<?xml version="1.0" encoding="UTF-8" standalone="no"?>
<!DOCTYPE svg PUBLIC "-//W3C//DTD SVG 1.1//EN"
 "http://www.w3.org/Graphics/SVG/1.1/DTD/svg11.dtd">
<!-- Generated by graphviz version 2.40.1 (20161225.0304)
 -->
<!-- Title: G Pages: 1 -->
<svg width="1064pt" height="3721pt"
 viewBox="0.00 0.00 1064.25 3720.92" xmlns="http://www.w3.org/2000/svg" xmlns:xlink="http://www.w3.org/1999/xlink">
<g id="graph0" class="graph" transform="scale(1 1) rotate(0) translate(4 3716.9186)">
<title>G</title>
<polygon fill="#ffffff" stroke="transparent" points="-4,4 -4,-3716.9186 1060.2549,-3716.9186 1060.2549,4 -4,4"/>
<g id="clust1" class="cluster">
<title>cluster_Global</title>
<path fill="none" stroke="#c0c0c0" d="M165.1275,-152.703C165.1275,-152.703 1036.2549,-152.703 1036.2549,-152.703 1042.2549,-152.703 1048.2549,-158.703 1048.2549,-164.703 1048.2549,-164.703 1048.2549,-3386.703 1048.2549,-3386.703 1048.2549,-3392.703 1042.2549,-3398.703 1036.2549,-3398.703 1036.2549,-3398.703 165.1275,-3398.703 165.1275,-3398.703 159.1275,-3398.703 153.1275,-3392.703 153.1275,-3386.703 153.1275,-3386.703 153.1275,-164.703 153.1275,-164.703 153.1275,-158.703 159.1275,-152.703 165.1275,-152.703"/>
<text text-anchor="middle" x="600.6912" y="-3385.903" font-family="Times,serif" font-size="11.00" fill="#c0c0c0">Global</text>
</g>
<g id="clust2" class="cluster">
<title>cluster_\SilverStripe</title>
<path fill="none" stroke="#c0c0c0" d="M861.2549,-3056.703C861.2549,-3056.703 992.2549,-3056.703 992.2549,-3056.703 998.2549,-3056.703 1004.2549,-3062.703 1004.2549,-3068.703 1004.2549,-3068.703 1004.2549,-3358.703 1004.2549,-3358.703 1004.2549,-3364.703 998.2549,-3370.703 992.2549,-3370.703 992.2549,-3370.703 861.2549,-3370.703 861.2549,-3370.703 855.2549,-3370.703 849.2549,-3364.703 849.2549,-3358.703 849.2549,-3358.703 849.2549,-3068.703 849.2549,-3068.703 849.2549,-3062.703 855.2549,-3056.703 861.2549,-3056.703"/>
<text text-anchor="middle" x="926.7549" y="-3357.903" font-family="Times,serif" font-size="11.00" fill="#c0c0c0">SilverStripe</text>
</g>
<g id="clust3" class="cluster">
<title>cluster_\SilverStripe\FullTextSearch</title>
<path fill="none" stroke="#c0c0c0" d="M869.2549,-3064.703C869.2549,-3064.703 984.2549,-3064.703 984.2549,-3064.703 990.2549,-3064.703 996.2549,-3070.703 996.2549,-3076.703 996.2549,-3076.703 996.2549,-3330.703 996.2549,-3330.703 996.2549,-3336.703 990.2549,-3342.703 984.2549,-3342.703 984.2549,-3342.703 869.2549,-3342.703 869.2549,-3342.703 863.2549,-3342.703 857.2549,-3336.703 857.2549,-3330.703 857.2549,-3330.703 857.2549,-3076.703 857.2549,-3076.703 857.2549,-3070.703 863.2549,-3064.703 869.2549,-3064.703"/>
<text text-anchor="middle" x="926.7549" y="-3329.903" font-family="Times,serif" font-size="11.00" fill="#c0c0c0">FullTextSearch</text>
</g>
<g id="clust4" class="cluster">
<title>cluster_\SilverStripe\FullTextSearch\Search</title>
<path fill="none" stroke="#c0c0c0" d="M877.2549,-3206.703C877.2549,-3206.703 976.2549,-3206.703 976.2549,-3206.703 982.2549,-3206.703 988.2549,-3212.703 988.2549,-3218.703 988.2549,-3218.703 988.2549,-3302.703 988.2549,-3302.703 988.2549,-3308.703 982.2549,-3314.703 976.2549,-3314.703 976.2549,-3314.703 877.2549,-3314.703 877.2549,-3314.703 871.2549,-3314.703 865.2549,-3308.703 865.2549,-3302.703 865.2549,-3302.703 865.2549,-3218.703 865.2549,-3218.703 865.2549,-3212.703 871.2549,-3206.703 877.2549,-3206.703"/>
<text text-anchor="middle" x="926.7549" y="-3301.903" font-family="Times,serif" font-size="11.00" fill="#c0c0c0">Search</text>
</g>
<g id="clust5" class="cluster">
<title>cluster_\SilverStripe\FullTextSearch\Search\Queries</title>
<path fill="none" stroke="#c0c0c0" d="M885.2549,-3214.703C885.2549,-3214.703 968.2549,-3214.703 968.2549,-3214.703 974.2549,-3214.703 980.2549,-3220.703 980.2549,-3226.703 980.2549,-3226.703 980.2549,-3274.703 980.2549,-3274.703 980.2549,-3280.703 974.2549,-3286.703 968.2549,-3286.703 968.2549,-3286.703 885.2549,-3286.703 885.2549,-3286.703 879.2549,-3286.703 873.2549,-3280.703 873.2549,-3274.703 873.2549,-3274.703 873.2549,-3226.703 873.2549,-3226.703 873.2549,-3220.703 879.2549,-3214.703 885.2549,-3214.703"/>
<text text-anchor="middle" x="926.7549" y="-3273.903" font-family="Times,serif" font-size="11.00" fill="#c0c0c0">Queries</text>
</g>
<g id="clust6" class="cluster">
<title>cluster_\SilverStripe\FullTextSearch\Solr</title>
<path fill="none" stroke="#c0c0c0" d="M888.7549,-3072.703C888.7549,-3072.703 964.7549,-3072.703 964.7549,-3072.703 970.7549,-3072.703 976.7549,-3078.703 976.7549,-3084.703 976.7549,-3084.703 976.7549,-3186.703 976.7549,-3186.703 976.7549,-3192.703 970.7549,-3198.703 964.7549,-3198.703 964.7549,-3198.703 888.7549,-3198.703 888.7549,-3198.703 882.7549,-3198.703 876.7549,-3192.703 876.7549,-3186.703 876.7549,-3186.703 876.7549,-3084.703 876.7549,-3084.703 876.7549,-3078.703 882.7549,-3072.703 888.7549,-3072.703"/>
<text text-anchor="middle" x="926.7549" y="-3185.903" font-family="Times,serif" font-size="11.00" fill="#c0c0c0">Solr</text>
</g>
<g id="clust7" class="cluster">
<title>cluster_\Firesphere</title>
<path fill="none" stroke="#c0c0c0" d="M173.1275,-160.703C173.1275,-160.703 1028.2549,-160.703 1028.2549,-160.703 1034.2549,-160.703 1040.2549,-166.703 1040.2549,-172.703 1040.2549,-172.703 1040.2549,-3036.703 1040.2549,-3036.703 1040.2549,-3042.703 1034.2549,-3048.703 1028.2549,-3048.703 1028.2549,-3048.703 173.1275,-3048.703 173.1275,-3048.703 167.1275,-3048.703 161.1275,-3042.703 161.1275,-3036.703 161.1275,-3036.703 161.1275,-172.703 161.1275,-172.703 161.1275,-166.703 167.1275,-160.703 173.1275,-160.703"/>
<text text-anchor="middle" x="600.6912" y="-3035.903" font-family="Times,serif" font-size="11.00" fill="#c0c0c0">Firesphere</text>
</g>
<g id="clust8" class="cluster">
<title>cluster_\Firesphere\SolrCompatibility</title>
<path fill="none" stroke="#c0c0c0" d="M836.7549,-168.703C836.7549,-168.703 1016.7549,-168.703 1016.7549,-168.703 1022.7549,-168.703 1028.7549,-174.703 1028.7549,-180.703 1028.7549,-180.703 1028.7549,-264.703 1028.7549,-264.703 1028.7549,-270.703 1022.7549,-276.703 1016.7549,-276.703 1016.7549,-276.703 836.7549,-276.703 836.7549,-276.703 830.7549,-276.703 824.7549,-270.703 824.7549,-264.703 824.7549,-264.703 824.7549,-180.703 824.7549,-180.703 824.7549,-174.703 830.7549,-168.703 836.7549,-168.703"/>
<text text-anchor="middle" x="926.7549" y="-263.903" font-family="Times,serif" font-size="11.00" fill="#c0c0c0">SolrCompatibility</text>
</g>
<g id="clust9" class="cluster">
<title>cluster_\Firesphere\SolrCompatibility\Extensions</title>
<path fill="none" stroke="#c0c0c0" d="M844.7549,-176.703C844.7549,-176.703 1008.7549,-176.703 1008.7549,-176.703 1014.7549,-176.703 1020.7549,-182.703 1020.7549,-188.703 1020.7549,-188.703 1020.7549,-236.703 1020.7549,-236.703 1020.7549,-242.703 1014.7549,-248.703 1008.7549,-248.703 1008.7549,-248.703 844.7549,-248.703 844.7549,-248.703 838.7549,-248.703 832.7549,-242.703 832.7549,-236.703 832.7549,-236.703 832.7549,-188.703 832.7549,-188.703 832.7549,-182.703 838.7549,-176.703 844.7549,-176.703"/>
<text text-anchor="middle" x="926.7549" y="-235.903" font-family="Times,serif" font-size="11.00" fill="#c0c0c0">Extensions</text>
</g>
<g id="clust10" class="cluster">
<title>cluster_\Firesphere\SolrSearch</title>
<path fill="none" stroke="#c0c0c0" d="M181.1275,-172.703C181.1275,-172.703 769.2549,-172.703 769.2549,-172.703 775.2549,-172.703 781.2549,-178.703 781.2549,-184.703 781.2549,-184.703 781.2549,-3008.703 781.2549,-3008.703 781.2549,-3014.703 775.2549,-3020.703 769.2549,-3020.703 769.2549,-3020.703 181.1275,-3020.703 181.1275,-3020.703 175.1275,-3020.703 169.1275,-3014.703 169.1275,-3008.703 169.1275,-3008.703 169.1275,-184.703 169.1275,-184.703 169.1275,-178.703 175.1275,-172.703 181.1275,-172.703"/>
<text text-anchor="middle" x="475.1912" y="-3007.903" font-family="Times,serif" font-size="11.00" fill="#c0c0c0">SolrSearch</text>
</g>
<g id="clust11" class="cluster">
<title>cluster_\Firesphere\SolrSearch\Indexes</title>
<path fill="none" stroke="#c0c0c0" d="M634.7549,-2920.703C634.7549,-2920.703 710.7549,-2920.703 710.7549,-2920.703 716.7549,-2920.703 722.7549,-2926.703 722.7549,-2932.703 722.7549,-2932.703 722.7549,-2980.703 722.7549,-2980.703 722.7549,-2986.703 716.7549,-2992.703 710.7549,-2992.703 710.7549,-2992.703 634.7549,-2992.703 634.7549,-2992.703 628.7549,-2992.703 622.7549,-2986.703 622.7549,-2980.703 622.7549,-2980.703 622.7549,-2932.703 622.7549,-2932.703 622.7549,-2926.703 628.7549,-2920.703 634.7549,-2920.703"/>
<text text-anchor="middle" x="672.7549" y="-2979.903" font-family="Times,serif" font-size="11.00" fill="#c0c0c0">Indexes</text>
</g>
<g id="clust12" class="cluster">
<title>cluster_\Firesphere\SolrSearch\Services</title>
<path fill="none" stroke="#c0c0c0" d="M617.7549,-2598.703C617.7549,-2598.703 727.7549,-2598.703 727.7549,-2598.703 733.7549,-2598.703 739.7549,-2604.703 739.7549,-2610.703 739.7549,-2610.703 739.7549,-2712.703 739.7549,-2712.703 739.7549,-2718.703 733.7549,-2724.703 727.7549,-2724.703 727.7549,-2724.703 617.7549,-2724.703 617.7549,-2724.703 611.7549,-2724.703 605.7549,-2718.703 605.7549,-2712.703 605.7549,-2712.703 605.7549,-2610.703 605.7549,-2610.703 605.7549,-2604.703 611.7549,-2598.703 617.7549,-2598.703"/>
<text text-anchor="middle" x="672.7549" y="-2711.903" font-family="Times,serif" font-size="11.00" fill="#c0c0c0">Services</text>
</g>
<g id="clust13" class="cluster">
<title>cluster_\Firesphere\SolrSearch\Models</title>
<path fill="none" stroke="#c0c0c0" d="M624.7549,-2732.703C624.7549,-2732.703 720.7549,-2732.703 720.7549,-2732.703 726.7549,-2732.703 732.7549,-2738.703 732.7549,-2744.703 732.7549,-2744.703 732.7549,-2900.703 732.7549,-2900.703 732.7549,-2906.703 726.7549,-2912.703 720.7549,-2912.703 720.7549,-2912.703 624.7549,-2912.703 624.7549,-2912.703 618.7549,-2912.703 612.7549,-2906.703 612.7549,-2900.703 612.7549,-2900.703 612.7549,-2744.703 612.7549,-2744.703 612.7549,-2738.703 618.7549,-2732.703 624.7549,-2732.703"/>
<text text-anchor="middle" x="672.7549" y="-2899.903" font-family="Times,serif" font-size="11.00" fill="#c0c0c0">Models</text>
</g>
<g id="clust14" class="cluster">
<title>cluster_\Firesphere\SolrSearch\Interfaces</title>
<path fill="none" stroke="#c0c0c0" d="M189.1275,-1928.703C189.1275,-1928.703 319.1275,-1928.703 319.1275,-1928.703 325.1275,-1928.703 331.1275,-1934.703 331.1275,-1940.703 331.1275,-1940.703 331.1275,-2042.703 331.1275,-2042.703 331.1275,-2048.703 325.1275,-2054.703 319.1275,-2054.703 319.1275,-2054.703 189.1275,-2054.703 189.1275,-2054.703 183.1275,-2054.703 177.1275,-2048.703 177.1275,-2042.703 177.1275,-2042.703 177.1275,-1940.703 177.1275,-1940.703 177.1275,-1934.703 183.1275,-1928.703 189.1275,-1928.703"/>
<text text-anchor="middle" x="254.1275" y="-2041.903" font-family="Times,serif" font-size="11.00" fill="#c0c0c0">Interfaces</text>
</g>
<g id="clust15" class="cluster">
<title>cluster_\Firesphere\SolrSearch\States</title>
<path fill="none" stroke="#c0c0c0" d="M634.7549,-2518.703C634.7549,-2518.703 710.7549,-2518.703 710.7549,-2518.703 716.7549,-2518.703 722.7549,-2524.703 722.7549,-2530.703 722.7549,-2530.703 722.7549,-2578.703 722.7549,-2578.703 722.7549,-2584.703 716.7549,-2590.703 710.7549,-2590.703 710.7549,-2590.703 634.7549,-2590.703 634.7549,-2590.703 628.7549,-2590.703 622.7549,-2584.703 622.7549,-2578.703 622.7549,-2578.703 622.7549,-2530.703 622.7549,-2530.703 622.7549,-2524.703 628.7549,-2518.703 634.7549,-2518.703"/>
<text text-anchor="middle" x="672.7549" y="-2577.903" font-family="Times,serif" font-size="11.00" fill="#c0c0c0">States</text>
</g>
<g id="clust16" class="cluster">
<title>cluster_\Firesphere\SolrSearch\Admins</title>
<path fill="none" stroke="#c0c0c0" d="M631.2549,-2438.703C631.2549,-2438.703 714.2549,-2438.703 714.2549,-2438.703 720.2549,-2438.703 726.2549,-2444.703 726.2549,-2450.703 726.2549,-2450.703 726.2549,-2498.703 726.2549,-2498.703 726.2549,-2504.703 720.2549,-2510.703 714.2549,-2510.703 714.2549,-2510.703 631.2549,-2510.703 631.2549,-2510.703 625.2549,-2510.703 619.2549,-2504.703 619.2549,-2498.703 619.2549,-2498.703 619.2549,-2450.703 619.2549,-2450.703 619.2549,-2444.703 625.2549,-2438.703 631.2549,-2438.703"/>
<text text-anchor="middle" x="672.7549" y="-2497.903" font-family="Times,serif" font-size="11.00" fill="#c0c0c0">Admins</text>
</g>
<g id="clust17" class="cluster">
<title>cluster_\Firesphere\SolrSearch\Results</title>
<path fill="none" stroke="#c0c0c0" d="M627.7549,-2358.703C627.7549,-2358.703 717.7549,-2358.703 717.7549,-2358.703 723.7549,-2358.703 729.7549,-2364.703 729.7549,-2370.703 729.7549,-2370.703 729.7549,-2418.703 729.7549,-2418.703 729.7549,-2424.703 723.7549,-2430.703 717.7549,-2430.703 717.7549,-2430.703 627.7549,-2430.703 627.7549,-2430.703 621.7549,-2430.703 615.7549,-2424.703 615.7549,-2418.703 615.7549,-2418.703 615.7549,-2370.703 615.7549,-2370.703 615.7549,-2364.703 621.7549,-2358.703 627.7549,-2358.703"/>
<text text-anchor="middle" x="672.7549" y="-2417.903" font-family="Times,serif" font-size="11.00" fill="#c0c0c0">Results</text>
</g>
<g id="clust18" class="cluster">
<title>cluster_\Firesphere\SolrSearch\Stores</title>
<path fill="none" stroke="#c0c0c0" d="M617.7549,-1982.703C617.7549,-1982.703 727.7549,-1982.703 727.7549,-1982.703 733.7549,-1982.703 739.7549,-1988.703 739.7549,-1994.703 739.7549,-1994.703 739.7549,-2096.703 739.7549,-2096.703 739.7549,-2102.703 733.7549,-2108.703 727.7549,-2108.703 727.7549,-2108.703 617.7549,-2108.703 617.7549,-2108.703 611.7549,-2108.703 605.7549,-2102.703 605.7549,-2096.703 605.7549,-2096.703 605.7549,-1994.703 605.7549,-1994.703 605.7549,-1988.703 611.7549,-1982.703 617.7549,-1982.703"/>
<text text-anchor="middle" x="672.7549" y="-2095.903" font-family="Times,serif" font-size="11.00" fill="#c0c0c0">Stores</text>
</g>
<g id="clust19" class="cluster">
<title>cluster_\Firesphere\SolrSearch\Tasks</title>
<path fill="none" stroke="#c0c0c0" d="M597.7549,-2116.703C597.7549,-2116.703 747.7549,-2116.703 747.7549,-2116.703 753.7549,-2116.703 759.7549,-2122.703 759.7549,-2128.703 759.7549,-2128.703 759.7549,-2338.703 759.7549,-2338.703 759.7549,-2344.703 753.7549,-2350.703 747.7549,-2350.703 747.7549,-2350.703 597.7549,-2350.703 597.7549,-2350.703 591.7549,-2350.703 585.7549,-2344.703 585.7549,-2338.703 585.7549,-2338.703 585.7549,-2128.703 585.7549,-2128.703 585.7549,-2122.703 591.7549,-2116.703 597.7549,-2116.703"/>
<text text-anchor="middle" x="672.7549" y="-2337.903" font-family="Times,serif" font-size="11.00" fill="#c0c0c0">Tasks</text>
</g>
<g id="clust20" class="cluster">
<title>cluster_\Firesphere\SolrSearch\Factories</title>
<path fill="none" stroke="#c0c0c0" d="M597.7549,-1848.703C597.7549,-1848.703 747.7549,-1848.703 747.7549,-1848.703 753.7549,-1848.703 759.7549,-1854.703 759.7549,-1860.703 759.7549,-1860.703 759.7549,-1962.703 759.7549,-1962.703 759.7549,-1968.703 753.7549,-1974.703 747.7549,-1974.703 747.7549,-1974.703 597.7549,-1974.703 597.7549,-1974.703 591.7549,-1974.703 585.7549,-1968.703 585.7549,-1962.703 585.7549,-1962.703 585.7549,-1860.703 585.7549,-1860.703 585.7549,-1854.703 591.7549,-1848.703 597.7549,-1848.703"/>
<text text-anchor="middle" x="672.7549" y="-1961.903" font-family="Times,serif" font-size="11.00" fill="#c0c0c0">Factories</text>
</g>
<g id="clust21" class="cluster">
<title>cluster_\Firesphere\SolrSearch\Extensions</title>
<path fill="none" stroke="#c0c0c0" d="M604.2549,-1714.703C604.2549,-1714.703 741.2549,-1714.703 741.2549,-1714.703 747.2549,-1714.703 753.2549,-1720.703 753.2549,-1726.703 753.2549,-1726.703 753.2549,-1828.703 753.2549,-1828.703 753.2549,-1834.703 747.2549,-1840.703 741.2549,-1840.703 741.2549,-1840.703 604.2549,-1840.703 604.2549,-1840.703 598.2549,-1840.703 592.2549,-1834.703 592.2549,-1828.703 592.2549,-1828.703 592.2549,-1726.703 592.2549,-1726.703 592.2549,-1720.703 598.2549,-1714.703 604.2549,-1714.703"/>
<text text-anchor="middle" x="672.7549" y="-1827.903" font-family="Times,serif" font-size="11.00" fill="#c0c0c0">Extensions</text>
</g>
<g id="clust22" class="cluster">
<title>cluster_\Firesphere\SolrSearch\Traits</title>
<path fill="none" stroke="#c0c0c0" d="M584.2549,-824.703C584.2549,-824.703 761.2549,-824.703 761.2549,-824.703 767.2549,-824.703 773.2549,-830.703 773.2549,-836.703 773.2549,-836.703 773.2549,-1694.703 773.2549,-1694.703 773.2549,-1700.703 767.2549,-1706.703 761.2549,-1706.703 761.2549,-1706.703 584.2549,-1706.703 584.2549,-1706.703 578.2549,-1706.703 572.2549,-1700.703 572.2549,-1694.703 572.2549,-1694.703 572.2549,-836.703 572.2549,-836.703 572.2549,-830.703 578.2549,-824.703 584.2549,-824.703"/>
<text text-anchor="middle" x="672.7549" y="-1693.903" font-family="Times,serif" font-size="11.00" fill="#c0c0c0">Traits</text>
</g>
<g id="clust23" class="cluster">
<title>cluster_\Firesphere\SolrSearch\Jobs</title>
<path fill="none" stroke="#c0c0c0" d="M600.7549,-636.703C600.7549,-636.703 744.7549,-636.703 744.7549,-636.703 750.7549,-636.703 756.7549,-642.703 756.7549,-648.703 756.7549,-648.703 756.7549,-804.703 756.7549,-804.703 756.7549,-810.703 750.7549,-816.703 744.7549,-816.703 744.7549,-816.703 600.7549,-816.703 600.7549,-816.703 594.7549,-816.703 588.7549,-810.703 588.7549,-804.703 588.7549,-804.703 588.7549,-648.703 588.7549,-648.703 588.7549,-642.703 594.7549,-636.703 600.7549,-636.703"/>
<text text-anchor="middle" x="672.7549" y="-803.903" font-family="Times,serif" font-size="11.00" fill="#c0c0c0">Jobs</text>
</g>
<g id="clust24" class="cluster">
<title>cluster_\Firesphere\SolrSearch\Forms</title>
<path fill="none" stroke="#c0c0c0" d="M634.7549,-556.703C634.7549,-556.703 710.7549,-556.703 710.7549,-556.703 716.7549,-556.703 722.7549,-562.703 722.7549,-568.703 722.7549,-568.703 722.7549,-616.703 722.7549,-616.703 722.7549,-622.703 716.7549,-628.703 710.7549,-628.703 710.7549,-628.703 634.7549,-628.703 634.7549,-628.703 628.7549,-628.703 622.7549,-622.703 622.7549,-616.703 622.7549,-616.703 622.7549,-568.703 622.7549,-568.703 622.7549,-562.703 628.7549,-556.703 634.7549,-556.703"/>
<text text-anchor="middle" x="672.7549" y="-615.903" font-family="Times,serif" font-size="11.00" fill="#c0c0c0">Forms</text>
</g>
<g id="clust25" class="cluster">
<title>cluster_\Firesphere\SolrSearch\Helpers</title>
<path fill="none" stroke="#c0c0c0" d="M624.7549,-260.703C624.7549,-260.703 720.7549,-260.703 720.7549,-260.703 726.7549,-260.703 732.7549,-266.703 732.7549,-272.703 732.7549,-272.703 732.7549,-536.703 732.7549,-536.703 732.7549,-542.703 726.7549,-548.703 720.7549,-548.703 720.7549,-548.703 624.7549,-548.703 624.7549,-548.703 618.7549,-548.703 612.7549,-542.703 612.7549,-536.703 612.7549,-536.703 612.7549,-272.703 612.7549,-272.703 612.7549,-266.703 618.7549,-260.703 624.7549,-260.703"/>
<text text-anchor="middle" x="672.7549" y="-535.903" font-family="Times,serif" font-size="11.00" fill="#c0c0c0">Helpers</text>
</g>
<g id="clust26" class="cluster">
<title>cluster_\Firesphere\SolrSearch\Queries</title>
<path fill="none" stroke="#c0c0c0" d="M638.2549,-180.703C638.2549,-180.703 707.2549,-180.703 707.2549,-180.703 713.2549,-180.703 719.2549,-186.703 719.2549,-192.703 719.2549,-192.703 719.2549,-240.703 719.2549,-240.703 719.2549,-246.703 713.2549,-252.703 707.2549,-252.703 707.2549,-252.703 638.2549,-252.703 638.2549,-252.703 632.2549,-252.703 626.2549,-246.703 626.2549,-240.703 626.2549,-240.703 626.2549,-192.703 626.2549,-192.703 626.2549,-186.703 632.2549,-180.703 638.2549,-180.703"/>
<text text-anchor="middle" x="672.7549" y="-239.903" font-family="Times,serif" font-size="11.00" fill="#c0c0c0">Queries</text>
</g>
<g id="clust27" class="cluster">
<title>cluster_\Firesphere\SolrFluent</title>
<path fill="none" stroke="#c0c0c0" d="M836.7549,-562.703C836.7549,-562.703 1016.7549,-562.703 1016.7549,-562.703 1022.7549,-562.703 1028.7549,-568.703 1028.7549,-574.703 1028.7549,-574.703 1028.7549,-846.703 1028.7549,-846.703 1028.7549,-852.703 1022.7549,-858.703 1016.7549,-858.703 1016.7549,-858.703 836.7549,-858.703 836.7549,-858.703 830.7549,-858.703 824.7549,-852.703 824.7549,-846.703 824.7549,-846.703 824.7549,-574.703 824.7549,-574.703 824.7549,-568.703 830.7549,-562.703 836.7549,-562.703"/>
<text text-anchor="middle" x="926.7549" y="-845.903" font-family="Times,serif" font-size="11.00" fill="#c0c0c0">SolrFluent</text>
</g>
<g id="clust28" class="cluster">
<title>cluster_\Firesphere\SolrFluent\States</title>
<path fill="none" stroke="#c0c0c0" d="M871.7549,-758.703C871.7549,-758.703 981.7549,-758.703 981.7549,-758.703 987.7549,-758.703 993.7549,-764.703 993.7549,-770.703 993.7549,-770.703 993.7549,-818.703 993.7549,-818.703 993.7549,-824.703 987.7549,-830.703 981.7549,-830.703 981.7549,-830.703 871.7549,-830.703 871.7549,-830.703 865.7549,-830.703 859.7549,-824.703 859.7549,-818.703 859.7549,-818.703 859.7549,-770.703 859.7549,-770.703 859.7549,-764.703 865.7549,-758.703 871.7549,-758.703"/>
<text text-anchor="middle" x="926.7549" y="-817.903" font-family="Times,serif" font-size="11.00" fill="#c0c0c0">States</text>
</g>
<g id="clust29" class="cluster">
<title>cluster_\Firesphere\SolrFluent\Extensions</title>
<path fill="none" stroke="#c0c0c0" d="M844.7549,-570.703C844.7549,-570.703 1008.7549,-570.703 1008.7549,-570.703 1014.7549,-570.703 1020.7549,-576.703 1020.7549,-582.703 1020.7549,-582.703 1020.7549,-738.703 1020.7549,-738.703 1020.7549,-744.703 1014.7549,-750.703 1008.7549,-750.703 1008.7549,-750.703 844.7549,-750.703 844.7549,-750.703 838.7549,-750.703 832.7549,-744.703 832.7549,-738.703 832.7549,-738.703 832.7549,-582.703 832.7549,-582.703 832.7549,-576.703 838.7549,-570.703 844.7549,-570.703"/>
<text text-anchor="middle" x="926.7549" y="-737.903" font-family="Times,serif" font-size="11.00" fill="#c0c0c0">Extensions</text>
</g>
<g id="clust30" class="cluster">
<title>cluster_\Firesphere\SolrSubsites</title>
<path fill="none" stroke="#c0c0c0" d="M857.2549,-866.703C857.2549,-866.703 996.2549,-866.703 996.2549,-866.703 1002.2549,-866.703 1008.2549,-872.703 1008.2549,-878.703 1008.2549,-878.703 1008.2549,-1042.703 1008.2549,-1042.703 1008.2549,-1048.703 1002.2549,-1054.703 996.2549,-1054.703 996.2549,-1054.703 857.2549,-1054.703 857.2549,-1054.703 851.2549,-1054.703 845.2549,-1048.703 845.2549,-1042.703 845.2549,-1042.703 845.2549,-878.703 845.2549,-878.703 845.2549,-872.703 851.2549,-866.703 857.2549,-866.703"/>
<text text-anchor="middle" x="926.7549" y="-1041.903" font-family="Times,serif" font-size="11.00" fill="#c0c0c0">SolrSubsites</text>
</g>
<g id="clust31" class="cluster">
<title>cluster_\Firesphere\SolrSubsites\States</title>
<path fill="none" stroke="#c0c0c0" d="M881.7549,-954.703C881.7549,-954.703 971.7549,-954.703 971.7549,-954.703 977.7549,-954.703 983.7549,-960.703 983.7549,-966.703 983.7549,-966.703 983.7549,-1014.703 983.7549,-1014.703 983.7549,-1020.703 977.7549,-1026.703 971.7549,-1026.703 971.7549,-1026.703 881.7549,-1026.703 881.7549,-1026.703 875.7549,-1026.703 869.7549,-1020.703 869.7549,-1014.703 869.7549,-1014.703 869.7549,-966.703 869.7549,-966.703 869.7549,-960.703 875.7549,-954.703 881.7549,-954.703"/>
<text text-anchor="middle" x="926.7549" y="-1013.903" font-family="Times,serif" font-size="11.00" fill="#c0c0c0">States</text>
</g>
<g id="clust32" class="cluster">
<title>cluster_\Firesphere\SolrSubsites\Extensions</title>
<path fill="none" stroke="#c0c0c0" d="M865.2549,-874.703C865.2549,-874.703 988.2549,-874.703 988.2549,-874.703 994.2549,-874.703 1000.2549,-880.703 1000.2549,-886.703 1000.2549,-886.703 1000.2549,-934.703 1000.2549,-934.703 1000.2549,-940.703 994.2549,-946.703 988.2549,-946.703 988.2549,-946.703 865.2549,-946.703 865.2549,-946.703 859.2549,-946.703 853.2549,-940.703 853.2549,-934.703 853.2549,-934.703 853.2549,-886.703 853.2549,-886.703 853.2549,-880.703 859.2549,-874.703 865.2549,-874.703"/>
<text text-anchor="middle" x="926.7549" y="-933.903" font-family="Times,serif" font-size="11.00" fill="#c0c0c0">Extensions</text>
</g>
<g id="clust33" class="cluster">
<title>cluster_\Firesphere\SolrPermissions</title>
<path fill="none" stroke="#c0c0c0" d="M833.2549,-284.703C833.2549,-284.703 1020.2549,-284.703 1020.2549,-284.703 1026.2549,-284.703 1032.2549,-290.703 1032.2549,-296.703 1032.2549,-296.703 1032.2549,-542.703 1032.2549,-542.703 1032.2549,-548.703 1026.2549,-554.703 1020.2549,-554.703 1020.2549,-554.703 833.2549,-554.703 833.2549,-554.703 827.2549,-554.703 821.2549,-548.703 821.2549,-542.703 821.2549,-542.703 821.2549,-296.703 821.2549,-296.703 821.2549,-290.703 827.2549,-284.703 833.2549,-284.703"/>
<text text-anchor="middle" x="926.7549" y="-541.903" font-family="Times,serif" font-size="11.00" fill="#c0c0c0">SolrPermissions</text>
</g>
<g id="clust34" class="cluster">
<title>cluster_\Firesphere\SolrPermissions\Extensions</title>
<path fill="none" stroke="#c0c0c0" d="M841.2549,-292.703C841.2549,-292.703 1012.2549,-292.703 1012.2549,-292.703 1018.2549,-292.703 1024.2549,-298.703 1024.2549,-304.703 1024.2549,-304.703 1024.2549,-514.703 1024.2549,-514.703 1024.2549,-520.703 1018.2549,-526.703 1012.2549,-526.703 1012.2549,-526.703 841.2549,-526.703 841.2549,-526.703 835.2549,-526.703 829.2549,-520.703 829.2549,-514.703 829.2549,-514.703 829.2549,-304.703 829.2549,-304.703 829.2549,-298.703 835.2549,-292.703 841.2549,-292.703"/>
<text text-anchor="middle" x="926.7549" y="-513.903" font-family="Times,serif" font-size="11.00" fill="#c0c0c0">Extensions</text>
</g>
<!-- \\SilverStripe\\FullTextSearch\\Search\\Queries\\SearchQuery -->
<g id="node1" class="node">
<title>\\SilverStripe\\FullTextSearch\\Search\\Queries\\SearchQuery</title>
<polygon fill="none" stroke="#000000" points="972.2549,-3258.703 881.2549,-3258.703 881.2549,-3222.703 972.2549,-3222.703 972.2549,-3258.703"/>
<text text-anchor="middle" x="926.7549" y="-3237.903" font-family="Courier,monospace" font-size="11.00" fill="#000000">SearchQuery</text>
</g>
<!-- \\Firesphere\\SolrSearch\\Queries\\BaseQuery -->
<g id="node51" class="node">
<title>\\Firesphere\\SolrSearch\\Queries\\BaseQuery</title>
<polygon fill="none" stroke="#000000" points="711.2549,-224.703 634.2549,-224.703 634.2549,-188.703 711.2549,-188.703 711.2549,-224.703"/>
<text text-anchor="middle" x="672.7549" y="-203.903" font-family="Courier,monospace" font-size="11.00" fill="#000000">BaseQuery</text>
</g>
<!-- \\SilverStripe\\FullTextSearch\\Search\\Queries\\SearchQuery&#45;&gt;\\Firesphere\\SolrSearch\\Queries\\BaseQuery -->
<g id="edge1" class="edge">
<title>\\SilverStripe\\FullTextSearch\\Search\\Queries\\SearchQuery&#45;&gt;\\Firesphere\\SolrSearch\\Queries\\BaseQuery</title>
<path fill="none" stroke="#000000" d="M881.0899,-3236.1482C859.2458,-3231.4223 834.9289,-3221.884 821.2549,-3202.703 726.24,-3069.4217 870.4458,-393.9498 781.2549,-256.703 767.7675,-235.9485 743.2762,-223.6785 720.9715,-216.4929"/>
<polygon fill="none" stroke="#000000" points="721.8375,-213.0993 711.2557,-213.6258 719.8562,-219.8131 721.8375,-213.0993"/>
</g>
<!-- \\SilverStripe\\FullTextSearch\\Solr\\Solr -->
<g id="node2" class="node">
<title>\\SilverStripe\\FullTextSearch\\Solr\\Solr</title>
<polygon fill="none" stroke="#000000" points="953.7549,-3170.703 899.7549,-3170.703 899.7549,-3134.703 953.7549,-3134.703 953.7549,-3170.703"/>
<text text-anchor="middle" x="926.7549" y="-3149.903" font-family="Courier,monospace" font-size="11.00" fill="#000000">Solr</text>
</g>
<!-- \\SilverStripe\\FullTextSearch\\Solr\\SolrIndex -->
<g id="node3" class="node">
<title>\\SilverStripe\\FullTextSearch\\Solr\\SolrIndex</title>
<polygon fill="none" stroke="#000000" points="968.7549,-3116.703 884.7549,-3116.703 884.7549,-3080.703 968.7549,-3080.703 968.7549,-3116.703"/>
<text text-anchor="start" x="892.7549" y="-3101.903" font-family="Courier,monospace" font-size="11.00" fill="#000000">«abstract»</text>
<text text-anchor="start" x="896.2549" y="-3089.903" font-family="Courier,monospace" font-size="11.00" fill="#000000">SolrIndex</text>
</g>
<!-- \\Firesphere\\SolrSearch\\Indexes\\BaseIndex -->
<g id="node5" class="node">
<title>\\Firesphere\\SolrSearch\\Indexes\\BaseIndex</title>
<polygon fill="none" stroke="#000000" points="714.7549,-2964.703 630.7549,-2964.703 630.7549,-2928.703 714.7549,-2928.703 714.7549,-2964.703"/>
<text text-anchor="start" x="638.7549" y="-2949.903" font-family="Courier,monospace" font-size="11.00" fill="#000000">«abstract»</text>
<text text-anchor="start" x="642.2549" y="-2937.903" font-family="Courier,monospace" font-size="11.00" fill="#000000">BaseIndex</text>
</g>
<!-- \\SilverStripe\\FullTextSearch\\Solr\\SolrIndex&#45;&gt;\\Firesphere\\SolrSearch\\Indexes\\BaseIndex -->
<g id="edge3" class="edge">
<title>\\SilverStripe\\FullTextSearch\\Solr\\SolrIndex&#45;&gt;\\Firesphere\\SolrSearch\\Indexes\\BaseIndex</title>
<path fill="none" stroke="#000000" d="M896.6203,-3080.6697C850.5046,-3053.0729 762.4363,-3000.3706 711.5893,-2969.9425"/>
<polygon fill="none" stroke="#000000" points="713.2284,-2966.8445 702.8503,-2964.7128 709.6339,-2972.8512 713.2284,-2966.8445"/>
</g>
<!-- \\Firesphere\\SolrCompatibility\\Extensions\\FulltextSearchExtension -->
<g id="node4" class="node">
<title>\\Firesphere\\SolrCompatibility\\Extensions\\FulltextSearchExtension</title>
<polygon fill="none" stroke="#000000" points="1012.7549,-220.703 840.7549,-220.703 840.7549,-184.703 1012.7549,-184.703 1012.7549,-220.703"/>
<text text-anchor="middle" x="926.7549" y="-199.903" font-family="Courier,monospace" font-size="11.00" fill="#000000">FulltextSearchExtension</text>
</g>
<!-- \\SilverStripe\\Core\\Extension -->
<g id="node62" class="node">
<title>\\SilverStripe\\Core\\Extension</title>
<ellipse fill="none" stroke="#000000" cx="254.1275" cy="-18.703" rx="144.0747" ry="18"/>
<text text-anchor="middle" x="254.1275" y="-15.003" font-family="Times,serif" font-size="14.00" fill="#c0c0c0">\SilverStripe\Core\Extension</text>
</g>
<!-- \\Firesphere\\SolrCompatibility\\Extensions\\FulltextSearchExtension&#45;&gt;\\SilverStripe\\Core\\Extension -->
<g id="edge2" class="edge">
<title>\\Firesphere\\SolrCompatibility\\Extensions\\FulltextSearchExtension&#45;&gt;\\SilverStripe\\Core\\Extension</title>
<path fill="none" stroke="#000000" d="M897.7118,-184.5969C869.069,-167.4588 823.5604,-142.1229 781.2549,-126.703 734.8533,-109.79 713.181,-131.0736 672.7549,-102.703"/>
<path fill="none" stroke="#000000" d="M672.7549,-102.703C596.2283,-48.9973 493.496,-27.8212 408.9542,-20.1575"/>
<polygon fill="none" stroke="#000000" points="408.9981,-16.6487 398.7374,-19.2887 408.4048,-23.6235 408.9981,-16.6487"/>
</g>
<!-- \\Firesphere\\SolrSearch\\Services\\SchemaService -->
<g id="node6" class="node">
<title>\\Firesphere\\SolrSearch\\Services\\SchemaService</title>
<polygon fill="none" stroke="#000000" points="724.7549,-2696.703 620.7549,-2696.703 620.7549,-2660.703 724.7549,-2660.703 724.7549,-2696.703"/>
<text text-anchor="middle" x="672.7549" y="-2675.903" font-family="Courier,monospace" font-size="11.00" fill="#000000">SchemaService</text>
</g>
<!-- \\SilverStripe\\View\\ViewableData -->
<g id="node63" class="node">
<title>\\SilverStripe\\View\\ViewableData</title>
<ellipse fill="none" stroke="#000000" cx="254.1275" cy="-126.703" rx="163.2712" ry="18"/>
<text text-anchor="middle" x="254.1275" y="-123.003" font-family="Times,serif" font-size="14.00" fill="#c0c0c0">\SilverStripe\View\ViewableData</text>
</g>
<!-- \\Firesphere\\SolrSearch\\Services\\SchemaService&#45;&gt;\\SilverStripe\\View\\ViewableData -->
<g id="edge4" class="edge">
<title>\\Firesphere\\SolrSearch\\Services\\SchemaService&#45;&gt;\\SilverStripe\\View\\ViewableData</title>
<path fill="none" stroke="#000000" d="M620.5254,-2676.5237C602.64,-2673.0442 584.1574,-2665.8895 572.2549,-2651.703 520.1349,-2589.5812 517.4879,-2005.2658 508.2549,-1924.703 425.4504,-1202.1857 285.5255,-321.8226 258.6618,-154.7757"/>
<polygon fill="none" stroke="#000000" points="262.103,-154.1298 257.0577,-144.8134 255.192,-155.2427 262.103,-154.1298"/>
</g>
<!-- \\Firesphere\\SolrSearch\\Services\\SolrCoreService -->
<g id="node7" class="node">
<title>\\Firesphere\\SolrSearch\\Services\\SolrCoreService</title>
<polygon fill="none" stroke="#000000" points="731.7549,-2642.703 613.7549,-2642.703 613.7549,-2606.703 731.7549,-2606.703 731.7549,-2642.703"/>
<text text-anchor="middle" x="672.7549" y="-2621.903" font-family="Courier,monospace" font-size="11.00" fill="#000000">SolrCoreService</text>
</g>
<!-- \\Firesphere\\SolrSearch\\Models\\SolrLog -->
<g id="node8" class="node">
<title>\\Firesphere\\SolrSearch\\Models\\SolrLog</title>
<polygon fill="none" stroke="#000000" points="704.7549,-2776.703 640.7549,-2776.703 640.7549,-2740.703 704.7549,-2740.703 704.7549,-2776.703"/>
<text text-anchor="middle" x="672.7549" y="-2755.903" font-family="Courier,monospace" font-size="11.00" fill="#000000">SolrLog</text>
</g>
<!-- \\SilverStripe\\ORM\\DataObject -->
<g id="node64" class="node">
<title>\\SilverStripe\\ORM\\DataObject</title>
<ellipse fill="none" stroke="#000000" cx="254.1275" cy="-3694.703" rx="152.9733" ry="18"/>
<text text-anchor="middle" x="254.1275" y="-3691.003" font-family="Times,serif" font-size="14.00" fill="#c0c0c0">\SilverStripe\ORM\DataObject</text>
</g>
<!-- \\Firesphere\\SolrSearch\\Models\\SolrLog&#45;&gt;\\SilverStripe\\ORM\\DataObject -->
<g id="edge5" class="edge">
<title>\\Firesphere\\SolrSearch\\Models\\SolrLog&#45;&gt;\\SilverStripe\\ORM\\DataObject</title>
<path fill="none" stroke="#000000" d="M640.4356,-2758.2298C617.7274,-2759.7794 588.5926,-2765.9233 572.2549,-2785.703 447.1071,-2937.2163 644.8714,-3526.4436 508.2549,-3667.703 466.5869,-3710.787 398.1287,-3715.9186 342.7581,-3711.1554"/>
<polygon fill="none" stroke="#000000" points="342.8747,-3707.6501 332.5809,-3710.1578 342.1917,-3714.6167 342.8747,-3707.6501"/>
</g>
<!-- \\SilverStripe\\Security\\PermissionProvider -->
<g id="node65" class="node">
<title>\\SilverStripe\\Security\\PermissionProvider</title>
<ellipse fill="none" stroke="#000000" cx="254.1275" cy="-3640.703" rx="206.0634" ry="18"/>
<text text-anchor="middle" x="254.1275" y="-3637.003" font-family="Times,serif" font-size="14.00" fill="#c0c0c0">\SilverStripe\Security\PermissionProvider</text>
</g>
<!-- \\Firesphere\\SolrSearch\\Models\\SolrLog&#45;&gt;\\SilverStripe\\Security\\PermissionProvider -->
<g id="edge6" class="edge">
<title>\\Firesphere\\SolrSearch\\Models\\SolrLog&#45;&gt;\\SilverStripe\\Security\\PermissionProvider</title>
<path fill="none" stroke="#000000" stroke-dasharray="1,5" d="M640.4633,-2758.2527C617.7688,-2759.8136 588.6391,-2765.9618 572.2549,-2785.703 454.3933,-2927.7132 636.8642,-3481.3476 508.2549,-3613.703 468.8235,-3654.2829 405.612,-3661.1323 352.0991,-3657.7873"/>
<polygon fill="none" stroke="#000000" points="352.1165,-3654.2788 341.8823,-3657.0198 351.592,-3661.2591 352.1165,-3654.2788"/>
</g>
<!-- \\Firesphere\\SolrSearch\\Models\\DirtyClass -->
<g id="node9" class="node">
<title>\\Firesphere\\SolrSearch\\Models\\DirtyClass</title>
<polygon fill="none" stroke="#000000" points="714.7549,-2830.703 630.7549,-2830.703 630.7549,-2794.703 714.7549,-2794.703 714.7549,-2830.703"/>
<text text-anchor="middle" x="672.7549" y="-2809.903" font-family="Courier,monospace" font-size="11.00" fill="#000000">DirtyClass</text>
</g>
<!-- \\Firesphere\\SolrSearch\\Models\\DirtyClass&#45;&gt;\\SilverStripe\\ORM\\DataObject -->
<g id="edge7" class="edge">
<title>\\Firesphere\\SolrSearch\\Models\\DirtyClass&#45;&gt;\\SilverStripe\\ORM\\DataObject</title>
<path fill="none" stroke="#000000" d="M630.5447,-2813.2104C609.8161,-2815.8152 586.3315,-2822.7422 572.2549,-2839.703 454.3933,-2981.7132 636.8642,-3535.3476 508.2549,-3667.703 466.6312,-3710.5391 398.5098,-3715.7896 343.2693,-3711.1388"/>
<polygon fill="none" stroke="#000000" points="343.4031,-3707.6356 333.1139,-3710.162 342.7328,-3714.6035 343.4031,-3707.6356"/>
</g>
<!-- \\Firesphere\\SolrSearch\\Models\\SearchSynonym -->
<g id="node10" class="node">
<title>\\Firesphere\\SolrSearch\\Models\\SearchSynonym</title>
<polygon fill="none" stroke="#000000" points="724.7549,-2884.703 620.7549,-2884.703 620.7549,-2848.703 724.7549,-2848.703 724.7549,-2884.703"/>
<text text-anchor="middle" x="672.7549" y="-2863.903" font-family="Courier,monospace" font-size="11.00" fill="#000000">SearchSynonym</text>
</g>
<!-- \\Firesphere\\SolrSearch\\Models\\SearchSynonym&#45;&gt;\\SilverStripe\\ORM\\DataObject -->
<g id="edge8" class="edge">
<title>\\Firesphere\\SolrSearch\\Models\\SearchSynonym&#45;&gt;\\SilverStripe\\ORM\\DataObject</title>
<path fill="none" stroke="#000000" d="M620.5892,-2880.9252C602.3728,-2888.5475 583.6499,-2899.9421 572.2549,-2916.703 478.0852,-3055.2174 625.4507,-3548.0396 508.2549,-3667.703 466.609,-3710.2257 398.8262,-3715.5967 343.7352,-3711.0761"/>
<polygon fill="none" stroke="#000000" points="343.8892,-3707.5752 333.6054,-3710.1236 343.2338,-3714.5444 343.8892,-3707.5752"/>
</g>
<!-- \\Firesphere\\SolrSearch\\Interfaces\\ConfigStore -->
<g id="node11" class="node">
<title>\\Firesphere\\SolrSearch\\Interfaces\\ConfigStore</title>
<polygon fill="none" stroke="#000000" points="299.6275,-2026.703 208.6275,-2026.703 208.6275,-1990.703 299.6275,-1990.703 299.6275,-2026.703"/>
<text text-anchor="middle" x="254.1275" y="-2005.903" font-family="Courier,monospace" font-size="11.00" fill="#000000">ConfigStore</text>
</g>
<!-- \\Firesphere\\SolrSearch\\Interfaces\\SiteStateInterface -->
<g id="node12" class="node">
<title>\\Firesphere\\SolrSearch\\Interfaces\\SiteStateInterface</title>
<polygon fill="none" stroke="#000000" points="323.1275,-1972.703 185.1275,-1972.703 185.1275,-1936.703 323.1275,-1936.703 323.1275,-1972.703"/>
<text text-anchor="middle" x="254.1275" y="-1951.903" font-family="Courier,monospace" font-size="11.00" fill="#000000">SiteStateInterface</text>
</g>
<!-- \\Firesphere\\SolrSearch\\States\\SiteState -->
<g id="node13" class="node">
<title>\\Firesphere\\SolrSearch\\States\\SiteState</title>
<polygon fill="none" stroke="#000000" points="714.7549,-2562.703 630.7549,-2562.703 630.7549,-2526.703 714.7549,-2526.703 714.7549,-2562.703"/>
<text text-anchor="start" x="638.7549" y="-2547.903" font-family="Courier,monospace" font-size="11.00" fill="#000000">«abstract»</text>
<text text-anchor="start" x="642.2549" y="-2535.903" font-family="Courier,monospace" font-size="11.00" fill="#000000">SiteState</text>
</g>
<!-- \\Firesphere\\SolrSearch\\Admins\\SearchAdmin -->
<g id="node14" class="node">
<title>\\Firesphere\\SolrSearch\\Admins\\SearchAdmin</title>
<polygon fill="none" stroke="#000000" points="718.2549,-2482.703 627.2549,-2482.703 627.2549,-2446.703 718.2549,-2446.703 718.2549,-2482.703"/>
<text text-anchor="middle" x="672.7549" y="-2461.903" font-family="Courier,monospace" font-size="11.00" fill="#000000">SearchAdmin</text>
</g>
<!-- \\SilverStripe\\Admin\\ModelAdmin -->
<g id="node66" class="node">
<title>\\SilverStripe\\Admin\\ModelAdmin</title>
<ellipse fill="none" stroke="#000000" cx="254.1275" cy="-3586.703" rx="165.1707" ry="18"/>
<text text-anchor="middle" x="254.1275" y="-3583.003" font-family="Times,serif" font-size="14.00" fill="#c0c0c0">\SilverStripe\Admin\ModelAdmin</text>
</g>
<!-- \\Firesphere\\SolrSearch\\Admins\\SearchAdmin&#45;&gt;\\SilverStripe\\Admin\\ModelAdmin -->
<g id="edge9" class="edge">
<title>\\Firesphere\\SolrSearch\\Admins\\SearchAdmin&#45;&gt;\\SilverStripe\\Admin\\ModelAdmin</title>
<path fill="none" stroke="#000000" d="M627.1817,-2476.1066C606.923,-2483.6181 584.8485,-2495.6955 572.2549,-2514.703 443.7518,-2708.6524 669.0524,-3391.5554 508.2549,-3559.703 467.1912,-3602.6437 399.5495,-3608.0476 344.3726,-3603.4359"/>
<polygon fill="none" stroke="#000000" points="344.5121,-3599.9333 334.2242,-3602.465 343.8454,-3606.9015 344.5121,-3599.9333"/>
</g>
<!-- \\Firesphere\\SolrSearch\\Results\\SearchResult -->
<g id="node15" class="node">
<title>\\Firesphere\\SolrSearch\\Results\\SearchResult</title>
<polygon fill="none" stroke="#000000" points="721.7549,-2402.703 623.7549,-2402.703 623.7549,-2366.703 721.7549,-2366.703 721.7549,-2402.703"/>
<text text-anchor="middle" x="672.7549" y="-2381.903" font-family="Courier,monospace" font-size="11.00" fill="#000000">SearchResult</text>
</g>
<!-- \\Firesphere\\SolrSearch\\Stores\\PostConfigStore -->
<g id="node16" class="node">
<title>\\Firesphere\\SolrSearch\\Stores\\PostConfigStore</title>
<polygon fill="none" stroke="#000000" points="731.7549,-2080.703 613.7549,-2080.703 613.7549,-2044.703 731.7549,-2044.703 731.7549,-2080.703"/>
<text text-anchor="middle" x="672.7549" y="-2059.903" font-family="Courier,monospace" font-size="11.00" fill="#000000">PostConfigStore</text>
</g>
<!-- \\Firesphere\\SolrSearch\\Stores\\PostConfigStore&#45;&gt;\\Firesphere\\SolrSearch\\Interfaces\\ConfigStore -->
<g id="edge10" class="edge">
<title>\\Firesphere\\SolrSearch\\Stores\\PostConfigStore&#45;&gt;\\Firesphere\\SolrSearch\\Interfaces\\ConfigStore</title>
<path fill="none" stroke="#000000" stroke-dasharray="1,5" d="M613.6637,-2055.0806C532.8854,-2044.6608 389.0185,-2026.103 309.9722,-2015.9065"/>
<polygon fill="none" stroke="#000000" points="310.0944,-2012.3934 299.7287,-2014.5852 309.1988,-2019.3359 310.0944,-2012.3934"/>
</g>
<!-- \\Firesphere\\SolrSearch\\Stores\\FileConfigStore -->
<g id="node17" class="node">
<title>\\Firesphere\\SolrSearch\\Stores\\FileConfigStore</title>
<polygon fill="none" stroke="#000000" points="731.7549,-2026.703 613.7549,-2026.703 613.7549,-1990.703 731.7549,-1990.703 731.7549,-2026.703"/>
<text text-anchor="middle" x="672.7549" y="-2005.903" font-family="Courier,monospace" font-size="11.00" fill="#000000">FileConfigStore</text>
</g>
<!-- \\Firesphere\\SolrSearch\\Stores\\FileConfigStore&#45;&gt;\\Firesphere\\SolrSearch\\Interfaces\\ConfigStore -->
<g id="edge11" class="edge">
<title>\\Firesphere\\SolrSearch\\Stores\\FileConfigStore&#45;&gt;\\Firesphere\\SolrSearch\\Interfaces\\ConfigStore</title>
<path fill="none" stroke="#000000" stroke-dasharray="1,5" d="M613.6637,-2008.703C532.8854,-2008.703 389.0185,-2008.703 309.9722,-2008.703"/>
<polygon fill="none" stroke="#000000" points="309.7288,-2005.2031 299.7287,-2008.703 309.7287,-2012.2031 309.7288,-2005.2031"/>
</g>
<!-- \\Firesphere\\SolrSearch\\Tasks\\ClearErrorsTask -->
<g id="node18" class="node">
<title>\\Firesphere\\SolrSearch\\Tasks\\ClearErrorsTask</title>
<polygon fill="none" stroke="#000000" points="731.7549,-2322.703 613.7549,-2322.703 613.7549,-2286.703 731.7549,-2286.703 731.7549,-2322.703"/>
<text text-anchor="middle" x="672.7549" y="-2301.903" font-family="Courier,monospace" font-size="11.00" fill="#000000">ClearErrorsTask</text>
</g>
<!-- \\SilverStripe\\Dev\\BuildTask -->
<g id="node67" class="node">
<title>\\SilverStripe\\Dev\\BuildTask</title>
<ellipse fill="none" stroke="#000000" cx="254.1275" cy="-3532.703" rx="139.9756" ry="18"/>
<text text-anchor="middle" x="254.1275" y="-3529.003" font-family="Times,serif" font-size="14.00" fill="#c0c0c0">\SilverStripe\Dev\BuildTask</text>
</g>
<!-- \\Firesphere\\SolrSearch\\Tasks\\ClearErrorsTask&#45;&gt;\\SilverStripe\\Dev\\BuildTask -->
<g id="edge12" class="edge">
<title>\\Firesphere\\SolrSearch\\Tasks\\ClearErrorsTask&#45;&gt;\\SilverStripe\\Dev\\BuildTask</title>
<path fill="none" stroke="#000000" d="M613.742,-2321.6589C597.6974,-2329.1763 582.0619,-2339.8105 572.2549,-2354.703 501.8096,-2461.6777 596.5193,-3412.8831 508.2549,-3505.703 465.9292,-3550.2132 395.0647,-3554.4793 338.9051,-3549.0108"/>
<polygon fill="none" stroke="#000000" points="339.278,-3545.5308 328.9577,-3547.9271 338.5198,-3552.4896 339.278,-3545.5308"/>
</g>
<!-- \\Firesphere\\SolrSearch\\Tasks\\SolrIndexTask -->
<g id="node19" class="node">
<title>\\Firesphere\\SolrSearch\\Tasks\\SolrIndexTask</title>
<polygon fill="none" stroke="#000000" points="724.7549,-2268.703 620.7549,-2268.703 620.7549,-2232.703 724.7549,-2232.703 724.7549,-2268.703"/>
<text text-anchor="middle" x="672.7549" y="-2247.903" font-family="Courier,monospace" font-size="11.00" fill="#000000">SolrIndexTask</text>
</g>
<!-- \\Firesphere\\SolrSearch\\Tasks\\SolrIndexTask&#45;&gt;\\SilverStripe\\Dev\\BuildTask -->
<g id="edge13" class="edge">
<title>\\Firesphere\\SolrSearch\\Tasks\\SolrIndexTask&#45;&gt;\\SilverStripe\\Dev\\BuildTask</title>
<path fill="none" stroke="#000000" d="M620.5121,-2252.605C602.5137,-2256.0394 583.9588,-2263.2358 572.2549,-2277.703 486.3215,-2383.9249 602.2342,-3406.5286 508.2549,-3505.703 465.9346,-3550.3626 394.8943,-3554.5612 338.6671,-3549.0291"/>
<polygon fill="none" stroke="#000000" points="339.0315,-3545.5482 328.7088,-3547.9341 338.2663,-3552.5063 339.0315,-3545.5482"/>
</g>
<!-- \\Firesphere\\SolrSearch\\Tasks\\SolrConfigureTask -->
<g id="node20" class="node">
<title>\\Firesphere\\SolrSearch\\Tasks\\SolrConfigureTask</title>
<polygon fill="none" stroke="#000000" points="738.2549,-2214.703 607.2549,-2214.703 607.2549,-2178.703 738.2549,-2178.703 738.2549,-2214.703"/>
<text text-anchor="middle" x="672.7549" y="-2193.903" font-family="Courier,monospace" font-size="11.00" fill="#000000">SolrConfigureTask</text>
</g>
<!-- \\Firesphere\\SolrSearch\\Tasks\\SolrConfigureTask&#45;&gt;\\SilverStripe\\Dev\\BuildTask -->
<g id="edge14" class="edge">
<title>\\Firesphere\\SolrSearch\\Tasks\\SolrConfigureTask&#45;&gt;\\SilverStripe\\Dev\\BuildTask</title>
<path fill="none" stroke="#000000" d="M607.137,-2201.8867C593.7296,-2206.0349 581.0493,-2212.8078 572.2549,-2223.703 482.6742,-2334.6817 606.2425,-3402.0718 508.2549,-3505.703 465.9836,-3550.4089 394.9391,-3554.6036 338.6979,-3549.0583"/>
<polygon fill="none" stroke="#000000" points="339.0602,-3545.5771 328.737,-3547.9608 338.2935,-3552.535 339.0602,-3545.5771"/>
</g>
<!-- \\Firesphere\\SolrSearch\\Tasks\\ClearDirtyClassesTask -->
<g id="node21" class="node">
<title>\\Firesphere\\SolrSearch\\Tasks\\ClearDirtyClassesTask</title>
<polygon fill="none" stroke="#000000" points="751.7549,-2160.703 593.7549,-2160.703 593.7549,-2124.703 751.7549,-2124.703 751.7549,-2160.703"/>
<text text-anchor="middle" x="672.7549" y="-2139.903" font-family="Courier,monospace" font-size="11.00" fill="#000000">ClearDirtyClassesTask</text>
</g>
<!-- \\Firesphere\\SolrSearch\\Tasks\\ClearDirtyClassesTask&#45;&gt;\\SilverStripe\\Dev\\BuildTask -->
<g id="edge15" class="edge">
<title>\\Firesphere\\SolrSearch\\Tasks\\ClearDirtyClassesTask&#45;&gt;\\SilverStripe\\Dev\\BuildTask</title>
<path fill="none" stroke="#000000" d="M593.7511,-2153.1113C585.5007,-2157.1393 578.035,-2162.5274 572.2549,-2169.703 479.0265,-2285.4388 610.2511,-3397.6146 508.2549,-3505.703 465.9568,-3550.5276 394.7386,-3554.6567 338.4394,-3549.0567"/>
<polygon fill="none" stroke="#000000" points="338.7946,-3545.5747 328.4693,-3547.9494 338.0219,-3552.5319 338.7946,-3545.5747"/>
</g>
<!-- \\Firesphere\\SolrSearch\\Factories\\DocumentFactory -->
<g id="node22" class="node">
<title>\\Firesphere\\SolrSearch\\Factories\\DocumentFactory</title>
<polygon fill="none" stroke="#000000" points="731.7549,-1946.703 613.7549,-1946.703 613.7549,-1910.703 731.7549,-1910.703 731.7549,-1946.703"/>
<text text-anchor="middle" x="672.7549" y="-1925.903" font-family="Courier,monospace" font-size="11.00" fill="#000000">DocumentFactory</text>
</g>
<!-- \\Firesphere\\SolrSearch\\Factories\\QueryComponentFactory -->
<g id="node23" class="node">
<title>\\Firesphere\\SolrSearch\\Factories\\QueryComponentFactory</title>
<polygon fill="none" stroke="#000000" points="751.7549,-1892.703 593.7549,-1892.703 593.7549,-1856.703 751.7549,-1856.703 751.7549,-1892.703"/>
<text text-anchor="middle" x="672.7549" y="-1871.903" font-family="Courier,monospace" font-size="11.00" fill="#000000">QueryComponentFactory</text>
</g>
<!-- \\Firesphere\\SolrSearch\\Extensions\\GridFieldExtension -->
<g id="node24" class="node">
<title>\\Firesphere\\SolrSearch\\Extensions\\GridFieldExtension</title>
<polygon fill="none" stroke="#000000" points="741.7549,-1758.703 603.7549,-1758.703 603.7549,-1722.703 741.7549,-1722.703 741.7549,-1758.703"/>
<text text-anchor="middle" x="672.7549" y="-1737.903" font-family="Courier,monospace" font-size="11.00" fill="#000000">GridFieldExtension</text>
</g>
<!-- \\Firesphere\\SolrSearch\\Extensions\\GridFieldExtension&#45;&gt;\\SilverStripe\\Core\\Extension -->
<g id="edge16" class="edge">
<title>\\Firesphere\\SolrSearch\\Extensions\\GridFieldExtension&#45;&gt;\\SilverStripe\\Core\\Extension</title>
<path fill="none" stroke="#000000" d="M603.5696,-1732.3521C591.4351,-1727.7767 580.1769,-1720.9196 572.2549,-1710.703 458.8082,-1564.397 634.6791,-180.9527 508.2549,-45.703 466.2404,-.7555 395.1746,3.4191 338.8598,-2.1954"/>
<polygon fill="none" stroke="#000000" points="338.4364,1.2792 328.8851,-3.3059 339.211,-5.6779 338.4364,1.2792"/>
</g>
<!-- \\Firesphere\\SolrSearch\\Extensions\\DataObjectExtension -->
<g id="node25" class="node">
<title>\\Firesphere\\SolrSearch\\Extensions\\DataObjectExtension</title>
<polygon fill="none" stroke="#000000" points="745.2549,-1812.703 600.2549,-1812.703 600.2549,-1776.703 745.2549,-1776.703 745.2549,-1812.703"/>
<text text-anchor="middle" x="672.7549" y="-1791.903" font-family="Courier,monospace" font-size="11.00" fill="#000000">DataObjectExtension</text>
</g>
<!-- \\SilverStripe\\ORM\\DataExtension -->
<g id="node68" class="node">
<title>\\SilverStripe\\ORM\\DataExtension</title>
<ellipse fill="none" stroke="#000000" cx="254.1275" cy="-72.703" rx="167.8704" ry="18"/>
<text text-anchor="middle" x="254.1275" y="-69.003" font-family="Times,serif" font-size="14.00" fill="#c0c0c0">\SilverStripe\ORM\DataExtension</text>
</g>
<!-- \\Firesphere\\SolrSearch\\Extensions\\DataObjectExtension&#45;&gt;\\SilverStripe\\ORM\\DataExtension -->
<g id="edge17" class="edge">
<title>\\Firesphere\\SolrSearch\\Extensions\\DataObjectExtension&#45;&gt;\\SilverStripe\\ORM\\DataExtension</title>
<path fill="none" stroke="#000000" d="M600.1257,-1787.175C589.3519,-1782.9489 579.4654,-1776.7419 572.2549,-1767.703 456.5954,-1622.7137 634.9019,-235.2004 508.2549,-99.703 467.3272,-55.9151 398.828,-50.8225 343.2535,-55.7795"/>
<polygon fill="none" stroke="#000000" points="342.6326,-52.3244 333.0365,-56.815 343.3384,-59.2888 342.6326,-52.3244"/>
</g>
<!-- \\Firesphere\\SolrSearch\\Traits\\GetSetSearchResolverTrait -->
<g id="node26" class="node">
<title>\\Firesphere\\SolrSearch\\Traits\\GetSetSearchResolverTrait</title>
<polygon fill="none" stroke="#000000" points="765.2549,-1678.703 580.2549,-1678.703 580.2549,-1642.703 765.2549,-1642.703 765.2549,-1678.703"/>
<text text-anchor="middle" x="672.7549" y="-1657.903" font-family="Courier,monospace" font-size="11.00" fill="#000000">GetSetSearchResolverTrait</text>
</g>
<!-- \\Firesphere\\SolrSearch\\Traits\\DataResolveTrait -->
<g id="node27" class="node">
<title>\\Firesphere\\SolrSearch\\Traits\\DataResolveTrait</title>
<polygon fill="none" stroke="#000000" points="735.2549,-1624.703 610.2549,-1624.703 610.2549,-1588.703 735.2549,-1588.703 735.2549,-1624.703"/>
<text text-anchor="middle" x="672.7549" y="-1603.903" font-family="Courier,monospace" font-size="11.00" fill="#000000">DataResolveTrait</text>
</g>
<!-- \\Firesphere\\SolrSearch\\Traits\\BaseQueryTrait -->
<g id="node28" class="node">
<title>\\Firesphere\\SolrSearch\\Traits\\BaseQueryTrait</title>
<polygon fill="none" stroke="#000000" points="728.2549,-1570.703 617.2549,-1570.703 617.2549,-1534.703 728.2549,-1534.703 728.2549,-1570.703"/>
<text text-anchor="middle" x="672.7549" y="-1549.903" font-family="Courier,monospace" font-size="11.00" fill="#000000">BaseQueryTrait</text>
</g>
<!-- \\Firesphere\\SolrSearch\\Traits\\GetSetSchemaServiceTrait -->
<g id="node29" class="node">
<title>\\Firesphere\\SolrSearch\\Traits\\GetSetSchemaServiceTrait</title>
<polygon fill="none" stroke="#000000" points="762.2549,-1516.703 583.2549,-1516.703 583.2549,-1480.703 762.2549,-1480.703 762.2549,-1516.703"/>
<text text-anchor="middle" x="672.7549" y="-1495.903" font-family="Courier,monospace" font-size="11.00" fill="#000000">GetSetSchemaServiceTrait</text>
</g>
<!-- \\Firesphere\\SolrSearch\\Traits\\SearchResultSetTrait -->
<g id="node30" class="node">
<title>\\Firesphere\\SolrSearch\\Traits\\SearchResultSetTrait</title>
<polygon fill="none" stroke="#000000" points="748.7549,-1462.703 596.7549,-1462.703 596.7549,-1426.703 748.7549,-1426.703 748.7549,-1462.703"/>
<text text-anchor="middle" x="672.7549" y="-1441.903" font-family="Courier,monospace" font-size="11.00" fill="#000000">SearchResultSetTrait</text>
</g>
<!-- \\Firesphere\\SolrSearch\\Traits\\SearchResultGetTrait -->
<g id="node31" class="node">
<title>\\Firesphere\\SolrSearch\\Traits\\SearchResultGetTrait</title>
<polygon fill="none" stroke="#000000" points="748.7549,-1408.703 596.7549,-1408.703 596.7549,-1372.703 748.7549,-1372.703 748.7549,-1408.703"/>
<text text-anchor="middle" x="672.7549" y="-1387.903" font-family="Courier,monospace" font-size="11.00" fill="#000000">SearchResultGetTrait</text>
</g>
<!-- \\Firesphere\\SolrSearch\\Traits\\GetterSetterTrait -->
<g id="node32" class="node">
<title>\\Firesphere\\SolrSearch\\Traits\\GetterSetterTrait</title>
<polygon fill="none" stroke="#000000" points="738.2549,-1354.703 607.2549,-1354.703 607.2549,-1318.703 738.2549,-1318.703 738.2549,-1354.703"/>
<text text-anchor="middle" x="672.7549" y="-1333.903" font-family="Courier,monospace" font-size="11.00" fill="#000000">GetterSetterTrait</text>
</g>
<!-- \\Firesphere\\SolrSearch\\Traits\\SolrIndexTrait -->
<g id="node33" class="node">
<title>\\Firesphere\\SolrSearch\\Traits\\SolrIndexTrait</title>
<polygon fill="none" stroke="#000000" points="728.2549,-1300.703 617.2549,-1300.703 617.2549,-1264.703 728.2549,-1264.703 728.2549,-1300.703"/>
<text text-anchor="middle" x="672.7549" y="-1279.903" font-family="Courier,monospace" font-size="11.00" fill="#000000">SolrIndexTrait</text>
</g>
<!-- \\Firesphere\\SolrSearch\\Traits\\BaseIndexTrait -->
<g id="node34" class="node">
<title>\\Firesphere\\SolrSearch\\Traits\\BaseIndexTrait</title>
<polygon fill="none" stroke="#000000" points="728.2549,-1246.703 617.2549,-1246.703 617.2549,-1210.703 728.2549,-1210.703 728.2549,-1246.703"/>
<text text-anchor="middle" x="672.7549" y="-1225.903" font-family="Courier,monospace" font-size="11.00" fill="#000000">BaseIndexTrait</text>
</g>
<!-- \\Firesphere\\SolrSearch\\Traits\\DocumentFactoryTrait -->
<g id="node35" class="node">
<title>\\Firesphere\\SolrSearch\\Traits\\DocumentFactoryTrait</title>
<polygon fill="none" stroke="#000000" points="748.7549,-1192.703 596.7549,-1192.703 596.7549,-1156.703 748.7549,-1156.703 748.7549,-1192.703"/>
<text text-anchor="middle" x="672.7549" y="-1171.903" font-family="Courier,monospace" font-size="11.00" fill="#000000">DocumentFactoryTrait</text>
</g>
<!-- \\Firesphere\\SolrSearch\\Traits\\LoggerTrait -->
<g id="node36" class="node">
<title>\\Firesphere\\SolrSearch\\Traits\\LoggerTrait</title>
<polygon fill="none" stroke="#000000" points="718.2549,-1138.703 627.2549,-1138.703 627.2549,-1102.703 718.2549,-1102.703 718.2549,-1138.703"/>
<text text-anchor="middle" x="672.7549" y="-1117.903" font-family="Courier,monospace" font-size="11.00" fill="#000000">LoggerTrait</text>
</g>
<!-- \\Firesphere\\SolrSearch\\Traits\\QueryComponentFacetTrait -->
<g id="node37" class="node">
<title>\\Firesphere\\SolrSearch\\Traits\\QueryComponentFacetTrait</title>
<polygon fill="none" stroke="#000000" points="762.2549,-1084.703 583.2549,-1084.703 583.2549,-1048.703 762.2549,-1048.703 762.2549,-1084.703"/>
<text text-anchor="middle" x="672.7549" y="-1063.903" font-family="Courier,monospace" font-size="11.00" fill="#000000">QueryComponentFacetTrait</text>
</g>
<!-- \\Firesphere\\SolrSearch\\Traits\\QueryComponentFilterTrait -->
<g id="node38" class="node">
<title>\\Firesphere\\SolrSearch\\Traits\\QueryComponentFilterTrait</title>
<polygon fill="none" stroke="#000000" points="765.2549,-1030.703 580.2549,-1030.703 580.2549,-994.703 765.2549,-994.703 765.2549,-1030.703"/>
<text text-anchor="middle" x="672.7549" y="-1009.903" font-family="Courier,monospace" font-size="11.00" fill="#000000">QueryComponentFilterTrait</text>
</g>
<!-- \\Firesphere\\SolrSearch\\Traits\\QueryComponentBoostTrait -->
<g id="node39" class="node">
<title>\\Firesphere\\SolrSearch\\Traits\\QueryComponentBoostTrait</title>
<polygon fill="none" stroke="#000000" points="762.2549,-976.703 583.2549,-976.703 583.2549,-940.703 762.2549,-940.703 762.2549,-976.703"/>
<text text-anchor="middle" x="672.7549" y="-955.903" font-family="Courier,monospace" font-size="11.00" fill="#000000">QueryComponentBoostTrait</text>
</g>
<!-- \\Firesphere\\SolrSearch\\Traits\\CoreServiceTrait -->
<g id="node40" class="node">
<title>\\Firesphere\\SolrSearch\\Traits\\CoreServiceTrait</title>
<polygon fill="none" stroke="#000000" points="735.2549,-922.703 610.2549,-922.703 610.2549,-886.703 735.2549,-886.703 735.2549,-922.703"/>
<text text-anchor="middle" x="672.7549" y="-901.903" font-family="Courier,monospace" font-size="11.00" fill="#000000">CoreServiceTrait</text>
</g>
<!-- \\Firesphere\\SolrSearch\\Traits\\CoreAdminTrait -->
<g id="node41" class="node">
<title>\\Firesphere\\SolrSearch\\Traits\\CoreAdminTrait</title>
<polygon fill="none" stroke="#000000" points="728.2549,-868.703 617.2549,-868.703 617.2549,-832.703 728.2549,-832.703 728.2549,-868.703"/>
<text text-anchor="middle" x="672.7549" y="-847.903" font-family="Courier,monospace" font-size="11.00" fill="#000000">CoreAdminTrait</text>
</g>
<!-- \\Firesphere\\SolrSearch\\Jobs\\ClearDirtyClassesJob -->
<g id="node42" class="node">
<title>\\Firesphere\\SolrSearch\\Jobs\\ClearDirtyClassesJob</title>
<polygon fill="none" stroke="#000000" points="748.7549,-788.703 596.7549,-788.703 596.7549,-752.703 748.7549,-752.703 748.7549,-788.703"/>
<text text-anchor="middle" x="672.7549" y="-767.903" font-family="Courier,monospace" font-size="11.00" fill="#000000">ClearDirtyClassesJob</text>
</g>
<!-- \\Symbiote\\QueuedJobs\\Services\\AbstractQueuedJob -->
<g id="node69" class="node">
<title>\\Symbiote\\QueuedJobs\\Services\\AbstractQueuedJob</title>
<ellipse fill="none" stroke="#000000" cx="254.1275" cy="-3478.703" rx="254.255" ry="18"/>
<text text-anchor="middle" x="254.1275" y="-3475.003" font-family="Times,serif" font-size="14.00" fill="#c0c0c0">\Symbiote\QueuedJobs\Services\AbstractQueuedJob</text>
</g>
<!-- \\Firesphere\\SolrSearch\\Jobs\\ClearDirtyClassesJob&#45;&gt;\\Symbiote\\QueuedJobs\\Services\\AbstractQueuedJob -->
<g id="edge18" class="edge">
<title>\\Firesphere\\SolrSearch\\Jobs\\ClearDirtyClassesJob&#45;&gt;\\Symbiote\\QueuedJobs\\Services\\AbstractQueuedJob</title>
<path fill="none" stroke="#000000" d="M610.8257,-788.7313C595.7134,-796.1618 581.3051,-806.4813 572.2549,-820.703 493.7582,-944.0545 607.3418,-3344.1896 508.2549,-3451.703 469.5461,-3493.7037 405.5031,-3500.2897 351.3952,-3496.4583"/>
<polygon fill="none" stroke="#000000" points="351.6718,-3492.9693 341.416,-3495.6278 351.0913,-3499.9452 351.6718,-3492.9693"/>
</g>
<!-- \\Firesphere\\SolrSearch\\Jobs\\SolrIndexJob -->
<g id="node43" class="node">
<title>\\Firesphere\\SolrSearch\\Jobs\\SolrIndexJob</title>
<polygon fill="none" stroke="#000000" points="721.7549,-734.703 623.7549,-734.703 623.7549,-698.703 721.7549,-698.703 721.7549,-734.703"/>
<text text-anchor="middle" x="672.7549" y="-713.903" font-family="Courier,monospace" font-size="11.00" fill="#000000">SolrIndexJob</text>
</g>
<!-- \\Firesphere\\SolrSearch\\Jobs\\SolrIndexJob&#45;&gt;\\Symbiote\\QueuedJobs\\Services\\AbstractQueuedJob -->
<g id="edge19" class="edge">
<title>\\Firesphere\\SolrSearch\\Jobs\\SolrIndexJob&#45;&gt;\\Symbiote\\QueuedJobs\\Services\\AbstractQueuedJob</title>
<path fill="none" stroke="#000000" d="M623.6949,-717.8266C604.6311,-720.9594 584.4774,-728.1474 572.2549,-743.703 479.2795,-862.0319 610.2017,-3341.0096 508.2549,-3451.703 469.5606,-3493.7171 405.5176,-3500.303 351.4059,-3496.4682"/>
<polygon fill="none" stroke="#000000" points="351.682,-3492.9792 341.426,-3495.6371 351.101,-3499.955 351.682,-3492.9792"/>
</g>
<!-- \\Firesphere\\SolrSearch\\Jobs\\SolrConfigureJob -->
<g id="node44" class="node">
<title>\\Firesphere\\SolrSearch\\Jobs\\SolrConfigureJob</title>
<polygon fill="none" stroke="#000000" points="735.2549,-680.703 610.2549,-680.703 610.2549,-644.703 735.2549,-644.703 735.2549,-680.703"/>
<text text-anchor="middle" x="672.7549" y="-659.903" font-family="Courier,monospace" font-size="11.00" fill="#000000">SolrConfigureJob</text>
</g>
<!-- \\Firesphere\\SolrSearch\\Jobs\\SolrConfigureJob&#45;&gt;\\Symbiote\\QueuedJobs\\Services\\AbstractQueuedJob -->
<g id="edge20" class="edge">
<title>\\Firesphere\\SolrSearch\\Jobs\\SolrConfigureJob&#45;&gt;\\Symbiote\\QueuedJobs\\Services\\AbstractQueuedJob</title>
<path fill="none" stroke="#000000" d="M610.0479,-666.7989C595.5039,-670.8417 581.5725,-677.8388 572.2549,-689.703 477.4544,-810.4121 612.2074,-3338.7795 508.2549,-3451.703 469.5703,-3493.726 405.5272,-3500.3119 351.4131,-3496.4748"/>
<polygon fill="none" stroke="#000000" points="351.6889,-3492.9858 341.4327,-3495.6433 351.1076,-3499.9616 351.6889,-3492.9858"/>
</g>
<!-- \\Firesphere\\SolrSearch\\Forms\\SearchForm -->
<g id="node45" class="node">
<title>\\Firesphere\\SolrSearch\\Forms\\SearchForm</title>
<polygon fill="none" stroke="#000000" points="714.7549,-600.703 630.7549,-600.703 630.7549,-564.703 714.7549,-564.703 714.7549,-600.703"/>
<text text-anchor="middle" x="672.7549" y="-579.903" font-family="Courier,monospace" font-size="11.00" fill="#000000">SearchForm</text>
</g>
<!-- \\SilverStripe\\Forms\\Form -->
<g id="node70" class="node">
<title>\\SilverStripe\\Forms\\Form</title>
<ellipse fill="none" stroke="#000000" cx="254.1275" cy="-3424.703" rx="129.1772" ry="18"/>
<text text-anchor="middle" x="254.1275" y="-3421.003" font-family="Times,serif" font-size="14.00" fill="#c0c0c0">\SilverStripe\Forms\Form</text>
</g>
<!-- \\Firesphere\\SolrSearch\\Forms\\SearchForm&#45;&gt;\\SilverStripe\\Forms\\Form -->
<g id="edge21" class="edge">
<title>\\Firesphere\\SolrSearch\\Forms\\SearchForm&#45;&gt;\\SilverStripe\\Forms\\Form</title>
<path fill="none" stroke="#000000" d="M630.6645,-592.7206C609.4283,-600.0862 585.4372,-612.4501 572.2549,-632.703 485.7351,-765.6298 526.3585,-1901.1356 508.2549,-2058.703 445.864,-2601.7311 294.8194,-3253.6756 260.9455,-3396.2724"/>
<polygon fill="none" stroke="#000000" points="257.453,-3395.8303 258.5403,-3406.3692 264.2624,-3397.4525 257.453,-3395.8303"/>
</g>
<!-- \\Firesphere\\SolrSearch\\Helpers\\DataResolver -->
<g id="node46" class="node">
<title>\\Firesphere\\SolrSearch\\Helpers\\DataResolver</title>
<polygon fill="none" stroke="#000000" points="721.7549,-520.703 623.7549,-520.703 623.7549,-484.703 721.7549,-484.703 721.7549,-520.703"/>
<text text-anchor="middle" x="672.7549" y="-499.903" font-family="Courier,monospace" font-size="11.00" fill="#000000">DataResolver</text>
</g>
<!-- \\Firesphere\\SolrSearch\\Helpers\\SolrLogger -->
<g id="node47" class="node">
<title>\\Firesphere\\SolrSearch\\Helpers\\SolrLogger</title>
<polygon fill="none" stroke="#000000" points="714.7549,-466.703 630.7549,-466.703 630.7549,-430.703 714.7549,-430.703 714.7549,-466.703"/>
<text text-anchor="middle" x="672.7549" y="-445.903" font-family="Courier,monospace" font-size="11.00" fill="#000000">SolrLogger</text>
</g>
<!-- \\Firesphere\\SolrSearch\\Helpers\\FieldResolver -->
<g id="node48" class="node">
<title>\\Firesphere\\SolrSearch\\Helpers\\FieldResolver</title>
<polygon fill="none" stroke="#000000" points="724.7549,-412.703 620.7549,-412.703 620.7549,-376.703 724.7549,-376.703 724.7549,-412.703"/>
<text text-anchor="middle" x="672.7549" y="-391.903" font-family="Courier,monospace" font-size="11.00" fill="#000000">FieldResolver</text>
</g>
<!-- \\Firesphere\\SolrSearch\\Helpers\\Statics -->
<g id="node49" class="node">
<title>\\Firesphere\\SolrSearch\\Helpers\\Statics</title>
<polygon fill="none" stroke="#000000" points="704.7549,-358.703 640.7549,-358.703 640.7549,-322.703 704.7549,-322.703 704.7549,-358.703"/>
<text text-anchor="middle" x="672.7549" y="-337.903" font-family="Courier,monospace" font-size="11.00" fill="#000000">Statics</text>
</g>
<!-- \\Firesphere\\SolrSearch\\Helpers\\Synonyms -->
<g id="node50" class="node">
<title>\\Firesphere\\SolrSearch\\Helpers\\Synonyms</title>
<polygon fill="none" stroke="#000000" points="708.2549,-304.703 637.2549,-304.703 637.2549,-268.703 708.2549,-268.703 708.2549,-304.703"/>
<text text-anchor="middle" x="672.7549" y="-283.903" font-family="Courier,monospace" font-size="11.00" fill="#000000">Synonyms</text>
</g>
<!-- \\Firesphere\\SolrFluent\\States\\FluentSiteState -->
<g id="node52" class="node">
<title>\\Firesphere\\SolrFluent\\States\\FluentSiteState</title>
<polygon fill="none" stroke="#000000" points="985.7549,-802.703 867.7549,-802.703 867.7549,-766.703 985.7549,-766.703 985.7549,-802.703"/>
<text text-anchor="middle" x="926.7549" y="-781.903" font-family="Courier,monospace" font-size="11.00" fill="#000000">FluentSiteState</text>
</g>
<!-- \\Firesphere\\SolrFluent\\States\\FluentSiteState&#45;&gt;\\Firesphere\\SolrSearch\\Interfaces\\SiteStateInterface -->
<g id="edge23" class="edge">
<title>\\Firesphere\\SolrFluent\\States\\FluentSiteState&#45;&gt;\\Firesphere\\SolrSearch\\Interfaces\\SiteStateInterface</title>
<path fill="none" stroke="#000000" stroke-dasharray="1,5" d="M867.5782,-780.7021C850.1159,-776.5067 832.6497,-768.7531 821.2549,-754.703 740.1545,-654.7044 872.5083,-267.5314 781.2549,-176.703 747.0061,-142.6136 721.0018,-167.0016 672.7549,-169.703"/>
<path fill="none" stroke="#000000" stroke-dasharray="1,5" d="M672.7549,-169.703C628.05,-172.206 605.5709,-146.7892 572.2549,-176.703 297.7538,-423.172 259.104,-1718.5427 254.6471,-1926.5162"/>
<polygon fill="none" stroke="#000000" points="251.1457,-1926.5534 254.4396,-1936.6232 258.1443,-1926.6972 251.1457,-1926.5534"/>
</g>
<!-- \\Firesphere\\SolrFluent\\States\\FluentSiteState&#45;&gt;\\Firesphere\\SolrSearch\\States\\SiteState -->
<g id="edge22" class="edge">
<title>\\Firesphere\\SolrFluent\\States\\FluentSiteState&#45;&gt;\\Firesphere\\SolrSearch\\States\\SiteState</title>
<path fill="none" stroke="#000000" d="M891.4081,-802.7503C866.8645,-817.4059 836.0193,-840.5705 821.2549,-870.703 781.0561,-952.7443 837.4629,-2442.6795 781.2549,-2514.703 767.9253,-2531.7832 745.7936,-2539.6962 724.9828,-2543.1787"/>
<polygon fill="none" stroke="#000000" points="724.3517,-2539.7323 714.9171,-2544.5531 725.2987,-2546.6679 724.3517,-2539.7323"/>
</g>
<!-- \\Firesphere\\SolrFluent\\Extensions\\FluentDocumentExtension -->
<g id="node53" class="node">
<title>\\Firesphere\\SolrFluent\\Extensions\\FluentDocumentExtension</title>
<polygon fill="none" stroke="#000000" points="1012.7549,-614.703 840.7549,-614.703 840.7549,-578.703 1012.7549,-578.703 1012.7549,-614.703"/>
<text text-anchor="middle" x="926.7549" y="-593.903" font-family="Courier,monospace" font-size="11.00" fill="#000000">FluentDocumentExtension</text>
</g>
<!-- \\Firesphere\\SolrFluent\\Extensions\\FluentDocumentExtension&#45;&gt;\\SilverStripe\\Core\\Extension -->
<g id="edge24" class="edge">
<title>\\Firesphere\\SolrFluent\\Extensions\\FluentDocumentExtension&#45;&gt;\\SilverStripe\\Core\\Extension</title>
<path fill="none" stroke="#000000" d="M879.6471,-578.6698C858.277,-568.0081 834.8036,-552.2984 821.2549,-530.703 734.2905,-392.0895 870.9657,-301.555 781.2549,-164.703 750.8059,-118.2536 718.2168,-134.6077 672.7549,-102.703"/>
</g>
<!-- \\Firesphere\\SolrFluent\\Extensions\\FluentSchemaExtension -->
<g id="node54" class="node">
<title>\\Firesphere\\SolrFluent\\Extensions\\FluentSchemaExtension</title>
<polygon fill="none" stroke="#000000" points="1005.7549,-722.703 847.7549,-722.703 847.7549,-686.703 1005.7549,-686.703 1005.7549,-722.703"/>
<text text-anchor="middle" x="926.7549" y="-701.903" font-family="Courier,monospace" font-size="11.00" fill="#000000">FluentSchemaExtension</text>
</g>
<!-- \\Firesphere\\SolrFluent\\Extensions\\FluentSchemaExtension&#45;&gt;\\SilverStripe\\Core\\Extension -->
<g id="edge25" class="edge">
<title>\\Firesphere\\SolrFluent\\Extensions\\FluentSchemaExtension&#45;&gt;\\SilverStripe\\Core\\Extension</title>
<path fill="none" stroke="#000000" d="M847.7103,-696.2964C837.5852,-692.0731 828.311,-686.0968 821.2549,-677.703 747.6758,-590.1751 842.4518,-261.2947 781.2549,-164.703 751.5304,-117.7866 718.2168,-134.6077 672.7549,-102.703"/>
</g>
<!-- \\Firesphere\\SolrFluent\\Extensions\\FluentIndexExtension -->
<g id="node55" class="node">
<title>\\Firesphere\\SolrFluent\\Extensions\\FluentIndexExtension</title>
<polygon fill="none" stroke="#000000" points="1002.7549,-668.703 850.7549,-668.703 850.7549,-632.703 1002.7549,-632.703 1002.7549,-668.703"/>
<text text-anchor="middle" x="926.7549" y="-647.903" font-family="Courier,monospace" font-size="11.00" fill="#000000">FluentIndexExtension</text>
</g>
<!-- \\Firesphere\\SolrFluent\\Extensions\\FluentIndexExtension&#45;&gt;\\SilverStripe\\Core\\Extension -->
<g id="edge26" class="edge">
<title>\\Firesphere\\SolrFluent\\Extensions\\FluentIndexExtension&#45;&gt;\\SilverStripe\\Core\\Extension</title>
<path fill="none" stroke="#000000" d="M850.6833,-643.3913C839.4269,-639.1317 829.0219,-632.8575 821.2549,-623.703 755.0151,-545.6306 836.4446,-250.9416 781.2549,-164.703 751.317,-117.9225 718.2168,-134.6077 672.7549,-102.703"/>
</g>
<!-- \\Firesphere\\SolrSubsites\\States\\SubsiteState -->
<g id="node56" class="node">
<title>\\Firesphere\\SolrSubsites\\States\\SubsiteState</title>
<polygon fill="none" stroke="#000000" points="975.7549,-998.703 877.7549,-998.703 877.7549,-962.703 975.7549,-962.703 975.7549,-998.703"/>
<text text-anchor="middle" x="926.7549" y="-977.903" font-family="Courier,monospace" font-size="11.00" fill="#000000">SubsiteState</text>
</g>
<!-- \\Firesphere\\SolrSubsites\\States\\SubsiteState&#45;&gt;\\Firesphere\\SolrSearch\\Interfaces\\SiteStateInterface -->
<g id="edge28" class="edge">
<title>\\Firesphere\\SolrSubsites\\States\\SubsiteState&#45;&gt;\\Firesphere\\SolrSearch\\Interfaces\\SiteStateInterface</title>
<path fill="none" stroke="#000000" stroke-dasharray="1,5" d="M877.5979,-978.8784C856.9851,-975.4193 834.7217,-967.6073 821.2549,-950.703 767.5974,-883.3485 841.7565,-237.9836 781.2549,-176.703 747.305,-142.3159 721.0018,-167.0016 672.7549,-169.703"/>
</g>
<!-- \\Firesphere\\SolrSubsites\\States\\SubsiteState&#45;&gt;\\Firesphere\\SolrSearch\\States\\SiteState -->
<g id="edge27" class="edge">
<title>\\Firesphere\\SolrSubsites\\States\\SubsiteState&#45;&gt;\\Firesphere\\SolrSearch\\States\\SiteState</title>
<path fill="none" stroke="#000000" d="M926.2668,-998.7346C921.673,-1162.6932 883.9041,-2392.2886 781.2549,-2514.703 767.4417,-2531.1759 745.4667,-2539.0313 724.8943,-2542.6335"/>
<polygon fill="none" stroke="#000000" points="724.3421,-2539.1769 714.9497,-2544.0793 725.3493,-2546.1041 724.3421,-2539.1769"/>
</g>
<!-- \\Firesphere\\SolrSubsites\\Extensions\\SubsitesExtension -->
<g id="node57" class="node">
<title>\\Firesphere\\SolrSubsites\\Extensions\\SubsitesExtension</title>
<polygon fill="none" stroke="#000000" points="992.2549,-918.703 861.2549,-918.703 861.2549,-882.703 992.2549,-882.703 992.2549,-918.703"/>
<text text-anchor="middle" x="926.7549" y="-897.903" font-family="Courier,monospace" font-size="11.00" fill="#000000">SubsitesExtension</text>
</g>
<!-- \\Firesphere\\SolrSubsites\\Extensions\\SubsitesExtension&#45;&gt;\\SilverStripe\\Core\\Extension -->
<g id="edge29" class="edge">
<title>\\Firesphere\\SolrSubsites\\Extensions\\SubsitesExtension&#45;&gt;\\SilverStripe\\Core\\Extension</title>
<path fill="none" stroke="#000000" d="M878.6337,-882.6843C857.3031,-872.0934 834.1577,-856.4395 821.2549,-834.703 745.1202,-706.4438 859.9318,-291.4186 781.2549,-164.703 751.9582,-117.5182 718.2168,-134.6077 672.7549,-102.703"/>
</g>
<!-- \\Firesphere\\SolrPermissions\\Extensions\\DataObjectExtension -->
<g id="node58" class="node">
<title>\\Firesphere\\SolrPermissions\\Extensions\\DataObjectExtension</title>
<polygon fill="none" stroke="#000000" points="999.2549,-498.703 854.2549,-498.703 854.2549,-462.703 999.2549,-462.703 999.2549,-498.703"/>
<text text-anchor="middle" x="926.7549" y="-477.903" font-family="Courier,monospace" font-size="11.00" fill="#000000">DataObjectExtension</text>
</g>
<!-- \\Firesphere\\SolrPermissions\\Extensions\\DataObjectExtension&#45;&gt;\\SilverStripe\\ORM\\DataExtension -->
<g id="edge30" class="edge">
<title>\\Firesphere\\SolrPermissions\\Extensions\\DataObjectExtension&#45;&gt;\\SilverStripe\\ORM\\DataExtension</title>
<path fill="none" stroke="#000000" d="M854.0248,-474.1064C841.6129,-469.8804 829.9437,-463.4336 821.2549,-453.703 734.8897,-356.9813 868.8126,-260.3465 781.2549,-164.703 716.8997,-94.4046 664.7691,-139.6067 572.2549,-116.703 543.6866,-109.6303 537.1957,-105.0512 508.2549,-99.703 473.46,-93.2728 435.681,-88.2287 400.1541,-84.331"/>
<polygon fill="none" stroke="#000000" points="400.5143,-80.8497 390.1977,-83.2619 399.7668,-87.8096 400.5143,-80.8497"/>
</g>
<!-- \\Firesphere\\SolrPermissions\\Extensions\\SchemaServiceExtension -->
<g id="node59" class="node">
<title>\\Firesphere\\SolrPermissions\\Extensions\\SchemaServiceExtension</title>
<polygon fill="none" stroke="#000000" points="1009.2549,-444.703 844.2549,-444.703 844.2549,-408.703 1009.2549,-408.703 1009.2549,-444.703"/>
<text text-anchor="middle" x="926.7549" y="-423.903" font-family="Courier,monospace" font-size="11.00" fill="#000000">SchemaServiceExtension</text>
</g>
<!-- \\Firesphere\\SolrPermissions\\Extensions\\SchemaServiceExtension&#45;&gt;\\SilverStripe\\Core\\Extension -->
<g id="edge31" class="edge">
<title>\\Firesphere\\SolrPermissions\\Extensions\\SchemaServiceExtension&#45;&gt;\\SilverStripe\\Core\\Extension</title>
<path fill="none" stroke="#000000" d="M844.0068,-416.0704C835.4287,-412.0664 827.5612,-406.7451 821.2549,-399.703 736.5125,-305.0731 871.6185,-205.9807 781.2549,-116.703 746.6668,-82.5305 712.5541,-130.6336 672.7549,-102.703"/>
</g>
<!-- \\Firesphere\\SolrPermissions\\Extensions\\BaseIndexExtension -->
<g id="node60" class="node">
<title>\\Firesphere\\SolrPermissions\\Extensions\\BaseIndexExtension</title>
<polygon fill="none" stroke="#000000" points="995.7549,-390.703 857.7549,-390.703 857.7549,-354.703 995.7549,-354.703 995.7549,-390.703"/>
<text text-anchor="middle" x="926.7549" y="-369.903" font-family="Courier,monospace" font-size="11.00" fill="#000000">BaseIndexExtension</text>
</g>
<!-- \\Firesphere\\SolrPermissions\\Extensions\\BaseIndexExtension&#45;&gt;\\SilverStripe\\Core\\Extension -->
<g id="edge32" class="edge">
<title>\\Firesphere\\SolrPermissions\\Extensions\\BaseIndexExtension&#45;&gt;\\SilverStripe\\Core\\Extension</title>
<path fill="none" stroke="#000000" d="M857.6167,-366.8502C843.9842,-362.6853 830.925,-356.0737 821.2549,-345.703 753.7783,-273.3377 849.9111,-197.9501 781.2549,-126.703 746.9851,-91.1398 713.181,-131.0736 672.7549,-102.703"/>
</g>
<!-- \\Firesphere\\SolrPermissions\\Extensions\\DocumentFactoryExtension -->
<g id="node61" class="node">
<title>\\Firesphere\\SolrPermissions\\Extensions\\DocumentFactoryExtension</title>
<polygon fill="none" stroke="#000000" points="1016.2549,-336.703 837.2549,-336.703 837.2549,-300.703 1016.2549,-300.703 1016.2549,-336.703"/>
<text text-anchor="middle" x="926.7549" y="-315.903" font-family="Courier,monospace" font-size="11.00" fill="#000000">DocumentFactoryExtension</text>
</g>
<!-- \\Firesphere\\SolrPermissions\\Extensions\\DocumentFactoryExtension&#45;&gt;\\SilverStripe\\Core\\Extension -->
<g id="edge33" class="edge">
<title>\\Firesphere\\SolrPermissions\\Extensions\\DocumentFactoryExtension&#45;&gt;\\SilverStripe\\Core\\Extension</title>
<path fill="none" stroke="#000000" d="M883.8383,-300.6402C862.3269,-289.6287 837.4729,-273.6176 821.2549,-252.703 785.251,-206.2727 824.6214,-166.3438 781.2549,-126.703 744.8017,-93.3814 713.181,-131.0736 672.7549,-102.703"/>
</g>
</g>
</svg>
