<?xml version="1.0" encoding="UTF-8" standalone="no"?>
<!DOCTYPE svg PUBLIC "-//W3C//DTD SVG 1.1//EN"
 "http://www.w3.org/Graphics/SVG/1.1/DTD/svg11.dtd">
<!-- Generated by graphviz version 2.40.1 (20161225.0304)
 -->
<!-- Title: G Pages: 1 -->
<svg width="1064pt" height="3721pt"
 viewBox="0.00 0.00 1064.25 3720.81" xmlns="http://www.w3.org/2000/svg" xmlns:xlink="http://www.w3.org/1999/xlink">
<g id="graph0" class="graph" transform="scale(1 1) rotate(0) translate(4 3716.8095)">
<title>G</title>
<polygon fill="#ffffff" stroke="transparent" points="-4,4 -4,-3716.8095 1060.2549,-3716.8095 1060.2549,4 -4,4"/>
<g id="clust1" class="cluster">
<title>cluster_Global</title>
<path fill="none" stroke="#c0c0c0" d="M165.1275,-152.8095C165.1275,-152.8095 1036.2549,-152.8095 1036.2549,-152.8095 1042.2549,-152.8095 1048.2549,-158.8095 1048.2549,-164.8095 1048.2549,-164.8095 1048.2549,-3386.8095 1048.2549,-3386.8095 1048.2549,-3392.8095 1042.2549,-3398.8095 1036.2549,-3398.8095 1036.2549,-3398.8095 165.1275,-3398.8095 165.1275,-3398.8095 159.1275,-3398.8095 153.1275,-3392.8095 153.1275,-3386.8095 153.1275,-3386.8095 153.1275,-164.8095 153.1275,-164.8095 153.1275,-158.8095 159.1275,-152.8095 165.1275,-152.8095"/>
<text text-anchor="middle" x="600.6912" y="-3386.0095" font-family="Times,serif" font-size="11.00" fill="#c0c0c0">Global</text>
</g>
<g id="clust2" class="cluster">
<title>cluster_\Firesphere</title>
<path fill="none" stroke="#c0c0c0" d="M173.1275,-160.8095C173.1275,-160.8095 1028.2549,-160.8095 1028.2549,-160.8095 1034.2549,-160.8095 1040.2549,-166.8095 1040.2549,-172.8095 1040.2549,-172.8095 1040.2549,-3036.8095 1040.2549,-3036.8095 1040.2549,-3042.8095 1034.2549,-3048.8095 1028.2549,-3048.8095 1028.2549,-3048.8095 173.1275,-3048.8095 173.1275,-3048.8095 167.1275,-3048.8095 161.1275,-3042.8095 161.1275,-3036.8095 161.1275,-3036.8095 161.1275,-172.8095 161.1275,-172.8095 161.1275,-166.8095 167.1275,-160.8095 173.1275,-160.8095"/>
<text text-anchor="middle" x="600.6912" y="-3036.0095" font-family="Times,serif" font-size="11.00" fill="#c0c0c0">Firesphere</text>
</g>
<g id="clust3" class="cluster">
<title>cluster_\Firesphere\SolrCompatibility</title>
<path fill="none" stroke="#c0c0c0" d="M833.2549,-168.8095C833.2549,-168.8095 1020.2549,-168.8095 1020.2549,-168.8095 1026.2549,-168.8095 1032.2549,-174.8095 1032.2549,-180.8095 1032.2549,-180.8095 1032.2549,-318.8095 1032.2549,-318.8095 1032.2549,-324.8095 1026.2549,-330.8095 1020.2549,-330.8095 1020.2549,-330.8095 833.2549,-330.8095 833.2549,-330.8095 827.2549,-330.8095 821.2549,-324.8095 821.2549,-318.8095 821.2549,-318.8095 821.2549,-180.8095 821.2549,-180.8095 821.2549,-174.8095 827.2549,-168.8095 833.2549,-168.8095"/>
<text text-anchor="middle" x="926.7549" y="-318.0095" font-family="Times,serif" font-size="11.00" fill="#c0c0c0">SolrCompatibility</text>
</g>
<g id="clust4" class="cluster">
<title>cluster_\Firesphere\SolrCompatibility\Extensions</title>
<path fill="none" stroke="#c0c0c0" d="M841.2549,-176.8095C841.2549,-176.8095 1012.2549,-176.8095 1012.2549,-176.8095 1018.2549,-176.8095 1024.2549,-182.8095 1024.2549,-188.8095 1024.2549,-188.8095 1024.2549,-290.8095 1024.2549,-290.8095 1024.2549,-296.8095 1018.2549,-302.8095 1012.2549,-302.8095 1012.2549,-302.8095 841.2549,-302.8095 841.2549,-302.8095 835.2549,-302.8095 829.2549,-296.8095 829.2549,-290.8095 829.2549,-290.8095 829.2549,-188.8095 829.2549,-188.8095 829.2549,-182.8095 835.2549,-176.8095 841.2549,-176.8095"/>
<text text-anchor="middle" x="926.7549" y="-290.0095" font-family="Times,serif" font-size="11.00" fill="#c0c0c0">Extensions</text>
</g>
<g id="clust5" class="cluster">
<title>cluster_\Firesphere\SolrSearch</title>
<path fill="none" stroke="#c0c0c0" d="M181.1275,-172.8095C181.1275,-172.8095 769.2549,-172.8095 769.2549,-172.8095 775.2549,-172.8095 781.2549,-178.8095 781.2549,-184.8095 781.2549,-184.8095 781.2549,-3008.8095 781.2549,-3008.8095 781.2549,-3014.8095 775.2549,-3020.8095 769.2549,-3020.8095 769.2549,-3020.8095 181.1275,-3020.8095 181.1275,-3020.8095 175.1275,-3020.8095 169.1275,-3014.8095 169.1275,-3008.8095 169.1275,-3008.8095 169.1275,-184.8095 169.1275,-184.8095 169.1275,-178.8095 175.1275,-172.8095 181.1275,-172.8095"/>
<text text-anchor="middle" x="475.1912" y="-3008.0095" font-family="Times,serif" font-size="11.00" fill="#c0c0c0">SolrSearch</text>
</g>
<g id="clust6" class="cluster">
<title>cluster_\Firesphere\SolrSearch\Models</title>
<path fill="none" stroke="#c0c0c0" d="M624.7549,-2812.8095C624.7549,-2812.8095 720.7549,-2812.8095 720.7549,-2812.8095 726.7549,-2812.8095 732.7549,-2818.8095 732.7549,-2824.8095 732.7549,-2824.8095 732.7549,-2980.8095 732.7549,-2980.8095 732.7549,-2986.8095 726.7549,-2992.8095 720.7549,-2992.8095 720.7549,-2992.8095 624.7549,-2992.8095 624.7549,-2992.8095 618.7549,-2992.8095 612.7549,-2986.8095 612.7549,-2980.8095 612.7549,-2980.8095 612.7549,-2824.8095 612.7549,-2824.8095 612.7549,-2818.8095 618.7549,-2812.8095 624.7549,-2812.8095"/>
<text text-anchor="middle" x="672.7549" y="-2980.0095" font-family="Times,serif" font-size="11.00" fill="#c0c0c0">Models</text>
</g>
<g id="clust7" class="cluster">
<title>cluster_\Firesphere\SolrSearch\States</title>
<path fill="none" stroke="#c0c0c0" d="M634.7549,-2732.8095C634.7549,-2732.8095 710.7549,-2732.8095 710.7549,-2732.8095 716.7549,-2732.8095 722.7549,-2738.8095 722.7549,-2744.8095 722.7549,-2744.8095 722.7549,-2792.8095 722.7549,-2792.8095 722.7549,-2798.8095 716.7549,-2804.8095 710.7549,-2804.8095 710.7549,-2804.8095 634.7549,-2804.8095 634.7549,-2804.8095 628.7549,-2804.8095 622.7549,-2798.8095 622.7549,-2792.8095 622.7549,-2792.8095 622.7549,-2744.8095 622.7549,-2744.8095 622.7549,-2738.8095 628.7549,-2732.8095 634.7549,-2732.8095"/>
<text text-anchor="middle" x="672.7549" y="-2792.0095" font-family="Times,serif" font-size="11.00" fill="#c0c0c0">States</text>
</g>
<g id="clust8" class="cluster">
<title>cluster_\Firesphere\SolrSearch\Admins</title>
<path fill="none" stroke="#c0c0c0" d="M631.2549,-2652.8095C631.2549,-2652.8095 714.2549,-2652.8095 714.2549,-2652.8095 720.2549,-2652.8095 726.2549,-2658.8095 726.2549,-2664.8095 726.2549,-2664.8095 726.2549,-2712.8095 726.2549,-2712.8095 726.2549,-2718.8095 720.2549,-2724.8095 714.2549,-2724.8095 714.2549,-2724.8095 631.2549,-2724.8095 631.2549,-2724.8095 625.2549,-2724.8095 619.2549,-2718.8095 619.2549,-2712.8095 619.2549,-2712.8095 619.2549,-2664.8095 619.2549,-2664.8095 619.2549,-2658.8095 625.2549,-2652.8095 631.2549,-2652.8095"/>
<text text-anchor="middle" x="672.7549" y="-2712.0095" font-family="Times,serif" font-size="11.00" fill="#c0c0c0">Admins</text>
</g>
<g id="clust9" class="cluster">
<title>cluster_\Firesphere\SolrSearch\Indexes</title>
<path fill="none" stroke="#c0c0c0" d="M634.7549,-2572.8095C634.7549,-2572.8095 710.7549,-2572.8095 710.7549,-2572.8095 716.7549,-2572.8095 722.7549,-2578.8095 722.7549,-2584.8095 722.7549,-2584.8095 722.7549,-2632.8095 722.7549,-2632.8095 722.7549,-2638.8095 716.7549,-2644.8095 710.7549,-2644.8095 710.7549,-2644.8095 634.7549,-2644.8095 634.7549,-2644.8095 628.7549,-2644.8095 622.7549,-2638.8095 622.7549,-2632.8095 622.7549,-2632.8095 622.7549,-2584.8095 622.7549,-2584.8095 622.7549,-2578.8095 628.7549,-2572.8095 634.7549,-2572.8095"/>
<text text-anchor="middle" x="672.7549" y="-2632.0095" font-family="Times,serif" font-size="11.00" fill="#c0c0c0">Indexes</text>
</g>
<g id="clust10" class="cluster">
<title>cluster_\Firesphere\SolrSearch\Factories</title>
<path fill="none" stroke="#c0c0c0" d="M597.7549,-2384.8095C597.7549,-2384.8095 747.7549,-2384.8095 747.7549,-2384.8095 753.7549,-2384.8095 759.7549,-2390.8095 759.7549,-2396.8095 759.7549,-2396.8095 759.7549,-2552.8095 759.7549,-2552.8095 759.7549,-2558.8095 753.7549,-2564.8095 747.7549,-2564.8095 747.7549,-2564.8095 597.7549,-2564.8095 597.7549,-2564.8095 591.7549,-2564.8095 585.7549,-2558.8095 585.7549,-2552.8095 585.7549,-2552.8095 585.7549,-2396.8095 585.7549,-2396.8095 585.7549,-2390.8095 591.7549,-2384.8095 597.7549,-2384.8095"/>
<text text-anchor="middle" x="672.7549" y="-2552.0095" font-family="Times,serif" font-size="11.00" fill="#c0c0c0">Factories</text>
</g>
<g id="clust11" class="cluster">
<title>cluster_\Firesphere\SolrSearch\Services</title>
<path fill="none" stroke="#c0c0c0" d="M617.7549,-2304.8095C617.7549,-2304.8095 727.7549,-2304.8095 727.7549,-2304.8095 733.7549,-2304.8095 739.7549,-2310.8095 739.7549,-2316.8095 739.7549,-2316.8095 739.7549,-2364.8095 739.7549,-2364.8095 739.7549,-2370.8095 733.7549,-2376.8095 727.7549,-2376.8095 727.7549,-2376.8095 617.7549,-2376.8095 617.7549,-2376.8095 611.7549,-2376.8095 605.7549,-2370.8095 605.7549,-2364.8095 605.7549,-2364.8095 605.7549,-2316.8095 605.7549,-2316.8095 605.7549,-2310.8095 611.7549,-2304.8095 617.7549,-2304.8095"/>
<text text-anchor="middle" x="672.7549" y="-2364.0095" font-family="Times,serif" font-size="11.00" fill="#c0c0c0">Services</text>
</g>
<g id="clust12" class="cluster">
<title>cluster_\Firesphere\SolrSearch\Extensions</title>
<path fill="none" stroke="#c0c0c0" d="M604.2549,-2090.8095C604.2549,-2090.8095 741.2549,-2090.8095 741.2549,-2090.8095 747.2549,-2090.8095 753.2549,-2096.8095 753.2549,-2102.8095 753.2549,-2102.8095 753.2549,-2204.8095 753.2549,-2204.8095 753.2549,-2210.8095 747.2549,-2216.8095 741.2549,-2216.8095 741.2549,-2216.8095 604.2549,-2216.8095 604.2549,-2216.8095 598.2549,-2216.8095 592.2549,-2210.8095 592.2549,-2204.8095 592.2549,-2204.8095 592.2549,-2102.8095 592.2549,-2102.8095 592.2549,-2096.8095 598.2549,-2090.8095 604.2549,-2090.8095"/>
<text text-anchor="middle" x="672.7549" y="-2204.0095" font-family="Times,serif" font-size="11.00" fill="#c0c0c0">Extensions</text>
</g>
<g id="clust13" class="cluster">
<title>cluster_\Firesphere\SolrSearch\Results</title>
<path fill="none" stroke="#c0c0c0" d="M627.7549,-2224.8095C627.7549,-2224.8095 717.7549,-2224.8095 717.7549,-2224.8095 723.7549,-2224.8095 729.7549,-2230.8095 729.7549,-2236.8095 729.7549,-2236.8095 729.7549,-2284.8095 729.7549,-2284.8095 729.7549,-2290.8095 723.7549,-2296.8095 717.7549,-2296.8095 717.7549,-2296.8095 627.7549,-2296.8095 627.7549,-2296.8095 621.7549,-2296.8095 615.7549,-2290.8095 615.7549,-2284.8095 615.7549,-2284.8095 615.7549,-2236.8095 615.7549,-2236.8095 615.7549,-2230.8095 621.7549,-2224.8095 627.7549,-2224.8095"/>
<text text-anchor="middle" x="672.7549" y="-2284.0095" font-family="Times,serif" font-size="11.00" fill="#c0c0c0">Results</text>
</g>
<g id="clust14" class="cluster">
<title>cluster_\Firesphere\SolrSearch\Queries</title>
<path fill="none" stroke="#c0c0c0" d="M638.2549,-2010.8095C638.2549,-2010.8095 707.2549,-2010.8095 707.2549,-2010.8095 713.2549,-2010.8095 719.2549,-2016.8095 719.2549,-2022.8095 719.2549,-2022.8095 719.2549,-2070.8095 719.2549,-2070.8095 719.2549,-2076.8095 713.2549,-2082.8095 707.2549,-2082.8095 707.2549,-2082.8095 638.2549,-2082.8095 638.2549,-2082.8095 632.2549,-2082.8095 626.2549,-2076.8095 626.2549,-2070.8095 626.2549,-2070.8095 626.2549,-2022.8095 626.2549,-2022.8095 626.2549,-2016.8095 632.2549,-2010.8095 638.2549,-2010.8095"/>
<text text-anchor="middle" x="672.7549" y="-2070.0095" font-family="Times,serif" font-size="11.00" fill="#c0c0c0">Queries</text>
</g>
<g id="clust15" class="cluster">
<title>cluster_\Firesphere\SolrSearch\Forms</title>
<path fill="none" stroke="#c0c0c0" d="M634.7549,-1930.8095C634.7549,-1930.8095 710.7549,-1930.8095 710.7549,-1930.8095 716.7549,-1930.8095 722.7549,-1936.8095 722.7549,-1942.8095 722.7549,-1942.8095 722.7549,-1990.8095 722.7549,-1990.8095 722.7549,-1996.8095 716.7549,-2002.8095 710.7549,-2002.8095 710.7549,-2002.8095 634.7549,-2002.8095 634.7549,-2002.8095 628.7549,-2002.8095 622.7549,-1996.8095 622.7549,-1990.8095 622.7549,-1990.8095 622.7549,-1942.8095 622.7549,-1942.8095 622.7549,-1936.8095 628.7549,-1930.8095 634.7549,-1930.8095"/>
<text text-anchor="middle" x="672.7549" y="-1990.0095" font-family="Times,serif" font-size="11.00" fill="#c0c0c0">Forms</text>
</g>
<g id="clust16" class="cluster">
<title>cluster_\Firesphere\SolrSearch\Jobs</title>
<path fill="none" stroke="#c0c0c0" d="M600.7549,-1742.8095C600.7549,-1742.8095 744.7549,-1742.8095 744.7549,-1742.8095 750.7549,-1742.8095 756.7549,-1748.8095 756.7549,-1754.8095 756.7549,-1754.8095 756.7549,-1910.8095 756.7549,-1910.8095 756.7549,-1916.8095 750.7549,-1922.8095 744.7549,-1922.8095 744.7549,-1922.8095 600.7549,-1922.8095 600.7549,-1922.8095 594.7549,-1922.8095 588.7549,-1916.8095 588.7549,-1910.8095 588.7549,-1910.8095 588.7549,-1754.8095 588.7549,-1754.8095 588.7549,-1748.8095 594.7549,-1742.8095 600.7549,-1742.8095"/>
<text text-anchor="middle" x="672.7549" y="-1910.0095" font-family="Times,serif" font-size="11.00" fill="#c0c0c0">Jobs</text>
</g>
<g id="clust17" class="cluster">
<title>cluster_\Firesphere\SolrSearch\Traits</title>
<path fill="none" stroke="#c0c0c0" d="M584.2549,-852.8095C584.2549,-852.8095 761.2549,-852.8095 761.2549,-852.8095 767.2549,-852.8095 773.2549,-858.8095 773.2549,-864.8095 773.2549,-864.8095 773.2549,-1722.8095 773.2549,-1722.8095 773.2549,-1728.8095 767.2549,-1734.8095 761.2549,-1734.8095 761.2549,-1734.8095 584.2549,-1734.8095 584.2549,-1734.8095 578.2549,-1734.8095 572.2549,-1728.8095 572.2549,-1722.8095 572.2549,-1722.8095 572.2549,-864.8095 572.2549,-864.8095 572.2549,-858.8095 578.2549,-852.8095 584.2549,-852.8095"/>
<text text-anchor="middle" x="672.7549" y="-1722.0095" font-family="Times,serif" font-size="11.00" fill="#c0c0c0">Traits</text>
</g>
<g id="clust18" class="cluster">
<title>cluster_\Firesphere\SolrSearch\Tasks</title>
<path fill="none" stroke="#c0c0c0" d="M597.7549,-610.8095C597.7549,-610.8095 747.7549,-610.8095 747.7549,-610.8095 753.7549,-610.8095 759.7549,-616.8095 759.7549,-622.8095 759.7549,-622.8095 759.7549,-832.8095 759.7549,-832.8095 759.7549,-838.8095 753.7549,-844.8095 747.7549,-844.8095 747.7549,-844.8095 597.7549,-844.8095 597.7549,-844.8095 591.7549,-844.8095 585.7549,-838.8095 585.7549,-832.8095 585.7549,-832.8095 585.7549,-622.8095 585.7549,-622.8095 585.7549,-616.8095 591.7549,-610.8095 597.7549,-610.8095"/>
<text text-anchor="middle" x="672.7549" y="-832.0095" font-family="Times,serif" font-size="11.00" fill="#c0c0c0">Tasks</text>
</g>
<g id="clust19" class="cluster">
<title>cluster_\Firesphere\SolrSearch\Interfaces</title>
<path fill="none" stroke="#c0c0c0" d="M189.1275,-180.8095C189.1275,-180.8095 319.1275,-180.8095 319.1275,-180.8095 325.1275,-180.8095 331.1275,-186.8095 331.1275,-192.8095 331.1275,-192.8095 331.1275,-294.8095 331.1275,-294.8095 331.1275,-300.8095 325.1275,-306.8095 319.1275,-306.8095 319.1275,-306.8095 189.1275,-306.8095 189.1275,-306.8095 183.1275,-306.8095 177.1275,-300.8095 177.1275,-294.8095 177.1275,-294.8095 177.1275,-192.8095 177.1275,-192.8095 177.1275,-186.8095 183.1275,-180.8095 189.1275,-180.8095"/>
<text text-anchor="middle" x="254.1275" y="-294.0095" font-family="Times,serif" font-size="11.00" fill="#c0c0c0">Interfaces</text>
</g>
<g id="clust20" class="cluster">
<title>cluster_\Firesphere\SolrSearch\Helpers</title>
<path fill="none" stroke="#c0c0c0" d="M624.7549,-314.8095C624.7549,-314.8095 720.7549,-314.8095 720.7549,-314.8095 726.7549,-314.8095 732.7549,-320.8095 732.7549,-326.8095 732.7549,-326.8095 732.7549,-590.8095 732.7549,-590.8095 732.7549,-596.8095 726.7549,-602.8095 720.7549,-602.8095 720.7549,-602.8095 624.7549,-602.8095 624.7549,-602.8095 618.7549,-602.8095 612.7549,-596.8095 612.7549,-590.8095 612.7549,-590.8095 612.7549,-326.8095 612.7549,-326.8095 612.7549,-320.8095 618.7549,-314.8095 624.7549,-314.8095"/>
<text text-anchor="middle" x="672.7549" y="-590.0095" font-family="Times,serif" font-size="11.00" fill="#c0c0c0">Helpers</text>
</g>
<g id="clust21" class="cluster">
<title>cluster_\Firesphere\SolrSearch\Stores</title>
<path fill="none" stroke="#c0c0c0" d="M617.7549,-180.8095C617.7549,-180.8095 727.7549,-180.8095 727.7549,-180.8095 733.7549,-180.8095 739.7549,-186.8095 739.7549,-192.8095 739.7549,-192.8095 739.7549,-294.8095 739.7549,-294.8095 739.7549,-300.8095 733.7549,-306.8095 727.7549,-306.8095 727.7549,-306.8095 617.7549,-306.8095 617.7549,-306.8095 611.7549,-306.8095 605.7549,-300.8095 605.7549,-294.8095 605.7549,-294.8095 605.7549,-192.8095 605.7549,-192.8095 605.7549,-186.8095 611.7549,-180.8095 617.7549,-180.8095"/>
<text text-anchor="middle" x="672.7549" y="-294.0095" font-family="Times,serif" font-size="11.00" fill="#c0c0c0">Stores</text>
</g>
<g id="clust22" class="cluster">
<title>cluster_\Firesphere\SolrFluent</title>
<path fill="none" stroke="#c0c0c0" d="M836.7549,-616.8095C836.7549,-616.8095 1016.7549,-616.8095 1016.7549,-616.8095 1022.7549,-616.8095 1028.7549,-622.8095 1028.7549,-628.8095 1028.7549,-628.8095 1028.7549,-900.8095 1028.7549,-900.8095 1028.7549,-906.8095 1022.7549,-912.8095 1016.7549,-912.8095 1016.7549,-912.8095 836.7549,-912.8095 836.7549,-912.8095 830.7549,-912.8095 824.7549,-906.8095 824.7549,-900.8095 824.7549,-900.8095 824.7549,-628.8095 824.7549,-628.8095 824.7549,-622.8095 830.7549,-616.8095 836.7549,-616.8095"/>
<text text-anchor="middle" x="926.7549" y="-900.0095" font-family="Times,serif" font-size="11.00" fill="#c0c0c0">SolrFluent</text>
</g>
<g id="clust23" class="cluster">
<title>cluster_\Firesphere\SolrFluent\States</title>
<path fill="none" stroke="#c0c0c0" d="M871.7549,-812.8095C871.7549,-812.8095 981.7549,-812.8095 981.7549,-812.8095 987.7549,-812.8095 993.7549,-818.8095 993.7549,-824.8095 993.7549,-824.8095 993.7549,-872.8095 993.7549,-872.8095 993.7549,-878.8095 987.7549,-884.8095 981.7549,-884.8095 981.7549,-884.8095 871.7549,-884.8095 871.7549,-884.8095 865.7549,-884.8095 859.7549,-878.8095 859.7549,-872.8095 859.7549,-872.8095 859.7549,-824.8095 859.7549,-824.8095 859.7549,-818.8095 865.7549,-812.8095 871.7549,-812.8095"/>
<text text-anchor="middle" x="926.7549" y="-872.0095" font-family="Times,serif" font-size="11.00" fill="#c0c0c0">States</text>
</g>
<g id="clust24" class="cluster">
<title>cluster_\Firesphere\SolrFluent\Extensions</title>
<path fill="none" stroke="#c0c0c0" d="M844.7549,-624.8095C844.7549,-624.8095 1008.7549,-624.8095 1008.7549,-624.8095 1014.7549,-624.8095 1020.7549,-630.8095 1020.7549,-636.8095 1020.7549,-636.8095 1020.7549,-792.8095 1020.7549,-792.8095 1020.7549,-798.8095 1014.7549,-804.8095 1008.7549,-804.8095 1008.7549,-804.8095 844.7549,-804.8095 844.7549,-804.8095 838.7549,-804.8095 832.7549,-798.8095 832.7549,-792.8095 832.7549,-792.8095 832.7549,-636.8095 832.7549,-636.8095 832.7549,-630.8095 838.7549,-624.8095 844.7549,-624.8095"/>
<text text-anchor="middle" x="926.7549" y="-792.0095" font-family="Times,serif" font-size="11.00" fill="#c0c0c0">Extensions</text>
</g>
<g id="clust25" class="cluster">
<title>cluster_\Firesphere\SolrSubsites</title>
<path fill="none" stroke="#c0c0c0" d="M857.2549,-920.8095C857.2549,-920.8095 996.2549,-920.8095 996.2549,-920.8095 1002.2549,-920.8095 1008.2549,-926.8095 1008.2549,-932.8095 1008.2549,-932.8095 1008.2549,-1096.8095 1008.2549,-1096.8095 1008.2549,-1102.8095 1002.2549,-1108.8095 996.2549,-1108.8095 996.2549,-1108.8095 857.2549,-1108.8095 857.2549,-1108.8095 851.2549,-1108.8095 845.2549,-1102.8095 845.2549,-1096.8095 845.2549,-1096.8095 845.2549,-932.8095 845.2549,-932.8095 845.2549,-926.8095 851.2549,-920.8095 857.2549,-920.8095"/>
<text text-anchor="middle" x="926.7549" y="-1096.0095" font-family="Times,serif" font-size="11.00" fill="#c0c0c0">SolrSubsites</text>
</g>
<g id="clust26" class="cluster">
<title>cluster_\Firesphere\SolrSubsites\States</title>
<path fill="none" stroke="#c0c0c0" d="M881.7549,-1008.8095C881.7549,-1008.8095 971.7549,-1008.8095 971.7549,-1008.8095 977.7549,-1008.8095 983.7549,-1014.8095 983.7549,-1020.8095 983.7549,-1020.8095 983.7549,-1068.8095 983.7549,-1068.8095 983.7549,-1074.8095 977.7549,-1080.8095 971.7549,-1080.8095 971.7549,-1080.8095 881.7549,-1080.8095 881.7549,-1080.8095 875.7549,-1080.8095 869.7549,-1074.8095 869.7549,-1068.8095 869.7549,-1068.8095 869.7549,-1020.8095 869.7549,-1020.8095 869.7549,-1014.8095 875.7549,-1008.8095 881.7549,-1008.8095"/>
<text text-anchor="middle" x="926.7549" y="-1068.0095" font-family="Times,serif" font-size="11.00" fill="#c0c0c0">States</text>
</g>
<g id="clust27" class="cluster">
<title>cluster_\Firesphere\SolrSubsites\Extensions</title>
<path fill="none" stroke="#c0c0c0" d="M865.2549,-928.8095C865.2549,-928.8095 988.2549,-928.8095 988.2549,-928.8095 994.2549,-928.8095 1000.2549,-934.8095 1000.2549,-940.8095 1000.2549,-940.8095 1000.2549,-988.8095 1000.2549,-988.8095 1000.2549,-994.8095 994.2549,-1000.8095 988.2549,-1000.8095 988.2549,-1000.8095 865.2549,-1000.8095 865.2549,-1000.8095 859.2549,-1000.8095 853.2549,-994.8095 853.2549,-988.8095 853.2549,-988.8095 853.2549,-940.8095 853.2549,-940.8095 853.2549,-934.8095 859.2549,-928.8095 865.2549,-928.8095"/>
<text text-anchor="middle" x="926.7549" y="-988.0095" font-family="Times,serif" font-size="11.00" fill="#c0c0c0">Extensions</text>
</g>
<g id="clust28" class="cluster">
<title>cluster_\Firesphere\SolrPermissions</title>
<path fill="none" stroke="#c0c0c0" d="M833.2549,-338.8095C833.2549,-338.8095 1020.2549,-338.8095 1020.2549,-338.8095 1026.2549,-338.8095 1032.2549,-344.8095 1032.2549,-350.8095 1032.2549,-350.8095 1032.2549,-596.8095 1032.2549,-596.8095 1032.2549,-602.8095 1026.2549,-608.8095 1020.2549,-608.8095 1020.2549,-608.8095 833.2549,-608.8095 833.2549,-608.8095 827.2549,-608.8095 821.2549,-602.8095 821.2549,-596.8095 821.2549,-596.8095 821.2549,-350.8095 821.2549,-350.8095 821.2549,-344.8095 827.2549,-338.8095 833.2549,-338.8095"/>
<text text-anchor="middle" x="926.7549" y="-596.0095" font-family="Times,serif" font-size="11.00" fill="#c0c0c0">SolrPermissions</text>
</g>
<g id="clust29" class="cluster">
<title>cluster_\Firesphere\SolrPermissions\Extensions</title>
<path fill="none" stroke="#c0c0c0" d="M841.2549,-346.8095C841.2549,-346.8095 1012.2549,-346.8095 1012.2549,-346.8095 1018.2549,-346.8095 1024.2549,-352.8095 1024.2549,-358.8095 1024.2549,-358.8095 1024.2549,-568.8095 1024.2549,-568.8095 1024.2549,-574.8095 1018.2549,-580.8095 1012.2549,-580.8095 1012.2549,-580.8095 841.2549,-580.8095 841.2549,-580.8095 835.2549,-580.8095 829.2549,-574.8095 829.2549,-568.8095 829.2549,-568.8095 829.2549,-358.8095 829.2549,-358.8095 829.2549,-352.8095 835.2549,-346.8095 841.2549,-346.8095"/>
<text text-anchor="middle" x="926.7549" y="-568.0095" font-family="Times,serif" font-size="11.00" fill="#c0c0c0">Extensions</text>
</g>
<g id="clust30" class="cluster">
<title>cluster_\SilverStripe</title>
<path fill="none" stroke="#c0c0c0" d="M861.2549,-3056.8095C861.2549,-3056.8095 992.2549,-3056.8095 992.2549,-3056.8095 998.2549,-3056.8095 1004.2549,-3062.8095 1004.2549,-3068.8095 1004.2549,-3068.8095 1004.2549,-3358.8095 1004.2549,-3358.8095 1004.2549,-3364.8095 998.2549,-3370.8095 992.2549,-3370.8095 992.2549,-3370.8095 861.2549,-3370.8095 861.2549,-3370.8095 855.2549,-3370.8095 849.2549,-3364.8095 849.2549,-3358.8095 849.2549,-3358.8095 849.2549,-3068.8095 849.2549,-3068.8095 849.2549,-3062.8095 855.2549,-3056.8095 861.2549,-3056.8095"/>
<text text-anchor="middle" x="926.7549" y="-3358.0095" font-family="Times,serif" font-size="11.00" fill="#c0c0c0">SilverStripe</text>
</g>
<g id="clust31" class="cluster">
<title>cluster_\SilverStripe\FullTextSearch</title>
<path fill="none" stroke="#c0c0c0" d="M869.2549,-3064.8095C869.2549,-3064.8095 984.2549,-3064.8095 984.2549,-3064.8095 990.2549,-3064.8095 996.2549,-3070.8095 996.2549,-3076.8095 996.2549,-3076.8095 996.2549,-3330.8095 996.2549,-3330.8095 996.2549,-3336.8095 990.2549,-3342.8095 984.2549,-3342.8095 984.2549,-3342.8095 869.2549,-3342.8095 869.2549,-3342.8095 863.2549,-3342.8095 857.2549,-3336.8095 857.2549,-3330.8095 857.2549,-3330.8095 857.2549,-3076.8095 857.2549,-3076.8095 857.2549,-3070.8095 863.2549,-3064.8095 869.2549,-3064.8095"/>
<text text-anchor="middle" x="926.7549" y="-3330.0095" font-family="Times,serif" font-size="11.00" fill="#c0c0c0">FullTextSearch</text>
</g>
<g id="clust32" class="cluster">
<title>cluster_\SilverStripe\FullTextSearch\Solr</title>
<path fill="none" stroke="#c0c0c0" d="M888.7549,-3188.8095C888.7549,-3188.8095 964.7549,-3188.8095 964.7549,-3188.8095 970.7549,-3188.8095 976.7549,-3194.8095 976.7549,-3200.8095 976.7549,-3200.8095 976.7549,-3302.8095 976.7549,-3302.8095 976.7549,-3308.8095 970.7549,-3314.8095 964.7549,-3314.8095 964.7549,-3314.8095 888.7549,-3314.8095 888.7549,-3314.8095 882.7549,-3314.8095 876.7549,-3308.8095 876.7549,-3302.8095 876.7549,-3302.8095 876.7549,-3200.8095 876.7549,-3200.8095 876.7549,-3194.8095 882.7549,-3188.8095 888.7549,-3188.8095"/>
<text text-anchor="middle" x="926.7549" y="-3302.0095" font-family="Times,serif" font-size="11.00" fill="#c0c0c0">Solr</text>
</g>
<g id="clust33" class="cluster">
<title>cluster_\SilverStripe\FullTextSearch\Search</title>
<path fill="none" stroke="#c0c0c0" d="M877.2549,-3072.8095C877.2549,-3072.8095 976.2549,-3072.8095 976.2549,-3072.8095 982.2549,-3072.8095 988.2549,-3078.8095 988.2549,-3084.8095 988.2549,-3084.8095 988.2549,-3168.8095 988.2549,-3168.8095 988.2549,-3174.8095 982.2549,-3180.8095 976.2549,-3180.8095 976.2549,-3180.8095 877.2549,-3180.8095 877.2549,-3180.8095 871.2549,-3180.8095 865.2549,-3174.8095 865.2549,-3168.8095 865.2549,-3168.8095 865.2549,-3084.8095 865.2549,-3084.8095 865.2549,-3078.8095 871.2549,-3072.8095 877.2549,-3072.8095"/>
<text text-anchor="middle" x="926.7549" y="-3168.0095" font-family="Times,serif" font-size="11.00" fill="#c0c0c0">Search</text>
</g>
<g id="clust34" class="cluster">
<title>cluster_\SilverStripe\FullTextSearch\Search\Queries</title>
<path fill="none" stroke="#c0c0c0" d="M885.2549,-3080.8095C885.2549,-3080.8095 968.2549,-3080.8095 968.2549,-3080.8095 974.2549,-3080.8095 980.2549,-3086.8095 980.2549,-3092.8095 980.2549,-3092.8095 980.2549,-3140.8095 980.2549,-3140.8095 980.2549,-3146.8095 974.2549,-3152.8095 968.2549,-3152.8095 968.2549,-3152.8095 885.2549,-3152.8095 885.2549,-3152.8095 879.2549,-3152.8095 873.2549,-3146.8095 873.2549,-3140.8095 873.2549,-3140.8095 873.2549,-3092.8095 873.2549,-3092.8095 873.2549,-3086.8095 879.2549,-3080.8095 885.2549,-3080.8095"/>
<text text-anchor="middle" x="926.7549" y="-3140.0095" font-family="Times,serif" font-size="11.00" fill="#c0c0c0">Queries</text>
</g>
<!-- \\Firesphere\\SolrCompatibility\\Extensions\\SolrCoreServiceExtension -->
<g id="node1" class="node">
<title>\\Firesphere\\SolrCompatibility\\Extensions\\SolrCoreServiceExtension</title>
<polygon fill="none" stroke="#000000" points="1016.2549,-274.8095 837.2549,-274.8095 837.2549,-238.8095 1016.2549,-238.8095 1016.2549,-274.8095"/>
<text text-anchor="middle" x="926.7549" y="-254.0095" font-family="Courier,monospace" font-size="11.00" fill="#000000">SolrCoreServiceExtension</text>
</g>
<!-- \\SilverStripe\\Core\\Extension -->
<g id="node63" class="node">
<title>\\SilverStripe\\Core\\Extension</title>
<ellipse fill="none" stroke="#000000" cx="254.1275" cy="-18.8095" rx="144.0747" ry="18"/>
<text text-anchor="middle" x="254.1275" y="-15.1095" font-family="Times,serif" font-size="14.00" fill="#c0c0c0">\SilverStripe\Core\Extension</text>
</g>
<!-- \\Firesphere\\SolrCompatibility\\Extensions\\SolrCoreServiceExtension&#45;&gt;\\SilverStripe\\Core\\Extension -->
<g id="edge1" class="edge">
<title>\\Firesphere\\SolrCompatibility\\Extensions\\SolrCoreServiceExtension&#45;&gt;\\SilverStripe\\Core\\Extension</title>
<path fill="none" stroke="#000000" d="M837.2275,-241.5106C831.4095,-238.2877 825.9941,-234.4277 821.2549,-229.8095 774.6022,-184.3488 828.6481,-133.4979 781.2549,-88.8095 745.3221,-54.9275 716.6848,-87.3777 672.7549,-64.8095"/>
</g>
<!-- \\Firesphere\\SolrCompatibility\\Extensions\\FulltextSearchExtension -->
<g id="node2" class="node">
<title>\\Firesphere\\SolrCompatibility\\Extensions\\FulltextSearchExtension</title>
<polygon fill="none" stroke="#000000" points="1012.7549,-220.8095 840.7549,-220.8095 840.7549,-184.8095 1012.7549,-184.8095 1012.7549,-220.8095"/>
<text text-anchor="middle" x="926.7549" y="-200.0095" font-family="Courier,monospace" font-size="11.00" fill="#000000">FulltextSearchExtension</text>
</g>
<!-- \\Firesphere\\SolrCompatibility\\Extensions\\FulltextSearchExtension&#45;&gt;\\SilverStripe\\Core\\Extension -->
<g id="edge2" class="edge">
<title>\\Firesphere\\SolrCompatibility\\Extensions\\FulltextSearchExtension&#45;&gt;\\SilverStripe\\Core\\Extension</title>
<path fill="none" stroke="#000000" d="M909.2812,-184.7299C883.6376,-159.2991 833.1975,-113.3359 781.2549,-88.8095 736.5953,-67.722 716.6848,-87.3777 672.7549,-64.8095"/>
<path fill="none" stroke="#000000" d="M672.7549,-64.8095C585.4855,-19.9765 474.685,-9.505 388.9993,-9.6905"/>
<polygon fill="none" stroke="#000000" points="388.9177,-6.1909 378.9425,-9.7612 388.9669,-13.1907 388.9177,-6.1909"/>
</g>
<!-- \\Firesphere\\SolrSearch\\Models\\SearchSynonym -->
<g id="node3" class="node">
<title>\\Firesphere\\SolrSearch\\Models\\SearchSynonym</title>
<polygon fill="none" stroke="#000000" points="724.7549,-2910.8095 620.7549,-2910.8095 620.7549,-2874.8095 724.7549,-2874.8095 724.7549,-2910.8095"/>
<text text-anchor="middle" x="672.7549" y="-2890.0095" font-family="Courier,monospace" font-size="11.00" fill="#000000">SearchSynonym</text>
</g>
<!-- \\SilverStripe\\ORM\\DataObject -->
<g id="node64" class="node">
<title>\\SilverStripe\\ORM\\DataObject</title>
<ellipse fill="none" stroke="#000000" cx="254.1275" cy="-126.8095" rx="152.9733" ry="18"/>
<text text-anchor="middle" x="254.1275" y="-123.1095" font-family="Times,serif" font-size="14.00" fill="#c0c0c0">\SilverStripe\ORM\DataObject</text>
</g>
<!-- \\Firesphere\\SolrSearch\\Models\\SearchSynonym&#45;&gt;\\SilverStripe\\ORM\\DataObject -->
<g id="edge5" class="edge">
<title>\\Firesphere\\SolrSearch\\Models\\SearchSynonym&#45;&gt;\\SilverStripe\\ORM\\DataObject</title>
<path fill="none" stroke="#000000" d="M620.5541,-2891.1327C602.4478,-2887.7391 583.8089,-2880.5117 572.2549,-2865.8095 479.9217,-2748.318 604.5395,-291.0853 508.2549,-176.8095 484.7512,-148.9141 450.6247,-133.6772 414.9681,-125.8773"/>
<polygon fill="none" stroke="#000000" points="415.3688,-122.3885 404.8781,-123.8702 414.0031,-129.254 415.3688,-122.3885"/>
</g>
<!-- \\Firesphere\\SolrSearch\\Models\\DirtyClass -->
<g id="node4" class="node">
<title>\\Firesphere\\SolrSearch\\Models\\DirtyClass</title>
<polygon fill="none" stroke="#000000" points="714.7549,-2856.8095 630.7549,-2856.8095 630.7549,-2820.8095 714.7549,-2820.8095 714.7549,-2856.8095"/>
<text text-anchor="middle" x="672.7549" y="-2836.0095" font-family="Courier,monospace" font-size="11.00" fill="#000000">DirtyClass</text>
</g>
<!-- \\Firesphere\\SolrSearch\\Models\\DirtyClass&#45;&gt;\\SilverStripe\\ORM\\DataObject -->
<g id="edge6" class="edge">
<title>\\Firesphere\\SolrSearch\\Models\\DirtyClass&#45;&gt;\\SilverStripe\\ORM\\DataObject</title>
<path fill="none" stroke="#000000" d="M630.5736,-2837.3408C609.5854,-2834.2258 585.8538,-2826.6051 572.2549,-2808.8095 483.445,-2692.5926 602.5285,-288.6401 508.2549,-176.8095 484.744,-148.9201 450.6149,-133.6854 414.958,-125.8858"/>
<polygon fill="none" stroke="#000000" points="415.3587,-122.397 404.868,-123.8787 413.993,-129.2625 415.3587,-122.397"/>
</g>
<!-- \\Firesphere\\SolrSearch\\Models\\SolrLog -->
<g id="node5" class="node">
<title>\\Firesphere\\SolrSearch\\Models\\SolrLog</title>
<polygon fill="none" stroke="#000000" points="704.7549,-2964.8095 640.7549,-2964.8095 640.7549,-2928.8095 704.7549,-2928.8095 704.7549,-2964.8095"/>
<text text-anchor="middle" x="672.7549" y="-2944.0095" font-family="Courier,monospace" font-size="11.00" fill="#000000">SolrLog</text>
</g>
<!-- \\Firesphere\\SolrSearch\\Models\\SolrLog&#45;&gt;\\SilverStripe\\ORM\\DataObject -->
<g id="edge7" class="edge">
<title>\\Firesphere\\SolrSearch\\Models\\SolrLog&#45;&gt;\\SilverStripe\\ORM\\DataObject</title>
<path fill="none" stroke="#000000" d="M640.6257,-2947.5473C617.7022,-2946.1703 588.2137,-2940.1265 572.2549,-2919.8095 478.0965,-2799.9379 606.4447,-293.4019 508.2549,-176.8095 484.7577,-148.9086 450.6336,-133.6696 414.9772,-125.8696"/>
<polygon fill="none" stroke="#000000" points="415.3779,-122.3808 404.8872,-123.8625 414.0122,-129.2463 415.3779,-122.3808"/>
</g>
<!-- \\SilverStripe\\Security\\PermissionProvider -->
<g id="node65" class="node">
<title>\\SilverStripe\\Security\\PermissionProvider</title>
<ellipse fill="none" stroke="#000000" cx="254.1275" cy="-3694.8095" rx="206.0634" ry="18"/>
<text text-anchor="middle" x="254.1275" y="-3691.1095" font-family="Times,serif" font-size="14.00" fill="#c0c0c0">\SilverStripe\Security\PermissionProvider</text>
</g>
<!-- \\Firesphere\\SolrSearch\\Models\\SolrLog&#45;&gt;\\SilverStripe\\Security\\PermissionProvider -->
<g id="edge8" class="edge">
<title>\\Firesphere\\SolrSearch\\Models\\SolrLog&#45;&gt;\\SilverStripe\\Security\\PermissionProvider</title>
<path fill="none" stroke="#000000" stroke-dasharray="1,5" d="M671.3994,-2964.9081C663.3653,-3067.0061 618.5358,-3569.8763 508.2549,-3667.8095 472.1709,-3699.8534 420.8739,-3709.5418 373.8053,-3710.0869"/>
<polygon fill="none" stroke="#000000" points="373.5279,-3706.5864 363.5202,-3710.0644 373.5125,-3713.5863 373.5279,-3706.5864"/>
</g>
<!-- \\Firesphere\\SolrSearch\\States\\SiteState -->
<g id="node6" class="node">
<title>\\Firesphere\\SolrSearch\\States\\SiteState</title>
<polygon fill="none" stroke="#000000" points="714.7549,-2776.8095 630.7549,-2776.8095 630.7549,-2740.8095 714.7549,-2740.8095 714.7549,-2776.8095"/>
<text text-anchor="start" x="638.7549" y="-2762.0095" font-family="Courier,monospace" font-size="11.00" fill="#000000">«abstract»</text>
<text text-anchor="start" x="642.2549" y="-2750.0095" font-family="Courier,monospace" font-size="11.00" fill="#000000">SiteState</text>
</g>
<!-- \\Firesphere\\SolrSearch\\Admins\\SearchAdmin -->
<g id="node7" class="node">
<title>\\Firesphere\\SolrSearch\\Admins\\SearchAdmin</title>
<polygon fill="none" stroke="#000000" points="718.2549,-2696.8095 627.2549,-2696.8095 627.2549,-2660.8095 718.2549,-2660.8095 718.2549,-2696.8095"/>
<text text-anchor="middle" x="672.7549" y="-2676.0095" font-family="Courier,monospace" font-size="11.00" fill="#000000">SearchAdmin</text>
</g>
<!-- \\SilverStripe\\Admin\\ModelAdmin -->
<g id="node66" class="node">
<title>\\SilverStripe\\Admin\\ModelAdmin</title>
<ellipse fill="none" stroke="#000000" cx="254.1275" cy="-3640.8095" rx="165.1707" ry="18"/>
<text text-anchor="middle" x="254.1275" y="-3637.1095" font-family="Times,serif" font-size="14.00" fill="#c0c0c0">\SilverStripe\Admin\ModelAdmin</text>
</g>
<!-- \\Firesphere\\SolrSearch\\Admins\\SearchAdmin&#45;&gt;\\SilverStripe\\Admin\\ModelAdmin -->
<g id="edge9" class="edge">
<title>\\Firesphere\\SolrSearch\\Admins\\SearchAdmin&#45;&gt;\\SilverStripe\\Admin\\ModelAdmin</title>
<path fill="none" stroke="#000000" d="M627.0146,-2690.3716C606.8479,-2697.9037 584.8988,-2709.9527 572.2549,-2728.8095 462.4424,-2892.5816 645.3163,-3472.0555 508.2549,-3613.8095 467.1729,-3656.2981 400.0368,-3661.8796 345.0843,-3657.4588"/>
<polygon fill="none" stroke="#000000" points="345.2542,-3653.9596 334.9743,-3656.5235 344.6094,-3660.9299 345.2542,-3653.9596"/>
</g>
<!-- \\Firesphere\\SolrSearch\\Indexes\\BaseIndex -->
<g id="node8" class="node">
<title>\\Firesphere\\SolrSearch\\Indexes\\BaseIndex</title>
<polygon fill="none" stroke="#000000" points="714.7549,-2616.8095 630.7549,-2616.8095 630.7549,-2580.8095 714.7549,-2580.8095 714.7549,-2616.8095"/>
<text text-anchor="start" x="638.7549" y="-2602.0095" font-family="Courier,monospace" font-size="11.00" fill="#000000">«abstract»</text>
<text text-anchor="start" x="642.2549" y="-2590.0095" font-family="Courier,monospace" font-size="11.00" fill="#000000">BaseIndex</text>
</g>
<!-- \\Firesphere\\SolrSearch\\Factories\\QueryComponentFactory -->
<g id="node9" class="node">
<title>\\Firesphere\\SolrSearch\\Factories\\QueryComponentFactory</title>
<polygon fill="none" stroke="#000000" points="751.7549,-2536.8095 593.7549,-2536.8095 593.7549,-2500.8095 751.7549,-2500.8095 751.7549,-2536.8095"/>
<text text-anchor="middle" x="672.7549" y="-2516.0095" font-family="Courier,monospace" font-size="11.00" fill="#000000">QueryComponentFactory</text>
</g>
<!-- \\Firesphere\\SolrSearch\\Factories\\SchemaFactory -->
<g id="node10" class="node">
<title>\\Firesphere\\SolrSearch\\Factories\\SchemaFactory</title>
<polygon fill="none" stroke="#000000" points="724.7549,-2482.8095 620.7549,-2482.8095 620.7549,-2446.8095 724.7549,-2446.8095 724.7549,-2482.8095"/>
<text text-anchor="middle" x="672.7549" y="-2462.0095" font-family="Courier,monospace" font-size="11.00" fill="#000000">SchemaFactory</text>
</g>
<!-- \\SilverStripe\\View\\ViewableData -->
<g id="node67" class="node">
<title>\\SilverStripe\\View\\ViewableData</title>
<ellipse fill="none" stroke="#000000" cx="254.1275" cy="-3586.8095" rx="163.2712" ry="18"/>
<text text-anchor="middle" x="254.1275" y="-3583.1095" font-family="Times,serif" font-size="14.00" fill="#c0c0c0">\SilverStripe\View\ViewableData</text>
</g>
<!-- \\Firesphere\\SolrSearch\\Factories\\SchemaFactory&#45;&gt;\\SilverStripe\\View\\ViewableData -->
<g id="edge10" class="edge">
<title>\\Firesphere\\SolrSearch\\Factories\\SchemaFactory&#45;&gt;\\SilverStripe\\View\\ViewableData</title>
<path fill="none" stroke="#000000" d="M620.5723,-2466.7605C602.5809,-2470.2006 584.015,-2477.388 572.2549,-2491.8095 421.9978,-2676.0707 672.4655,-3387.8669 508.2549,-3559.8095 467.1473,-3602.8528 399.3385,-3608.1988 344.101,-3603.5364"/>
<polygon fill="none" stroke="#000000" points="344.2325,-3600.0329 333.9426,-3602.5562 343.5601,-3607.0006 344.2325,-3600.0329"/>
</g>
<!-- \\Firesphere\\SolrSearch\\Factories\\DocumentFactory -->
<g id="node11" class="node">
<title>\\Firesphere\\SolrSearch\\Factories\\DocumentFactory</title>
<polygon fill="none" stroke="#000000" points="731.7549,-2428.8095 613.7549,-2428.8095 613.7549,-2392.8095 731.7549,-2392.8095 731.7549,-2428.8095"/>
<text text-anchor="middle" x="672.7549" y="-2408.0095" font-family="Courier,monospace" font-size="11.00" fill="#000000">DocumentFactory</text>
</g>
<!-- \\Firesphere\\SolrSearch\\Services\\SolrCoreService -->
<g id="node12" class="node">
<title>\\Firesphere\\SolrSearch\\Services\\SolrCoreService</title>
<polygon fill="none" stroke="#000000" points="731.7549,-2348.8095 613.7549,-2348.8095 613.7549,-2312.8095 731.7549,-2312.8095 731.7549,-2348.8095"/>
<text text-anchor="middle" x="672.7549" y="-2328.0095" font-family="Courier,monospace" font-size="11.00" fill="#000000">SolrCoreService</text>
</g>
<!-- \\Firesphere\\SolrSearch\\Extensions\\DataObjectExtension -->
<g id="node13" class="node">
<title>\\Firesphere\\SolrSearch\\Extensions\\DataObjectExtension</title>
<polygon fill="none" stroke="#000000" points="745.2549,-2188.8095 600.2549,-2188.8095 600.2549,-2152.8095 745.2549,-2152.8095 745.2549,-2188.8095"/>
<text text-anchor="middle" x="672.7549" y="-2168.0095" font-family="Courier,monospace" font-size="11.00" fill="#000000">DataObjectExtension</text>
</g>
<!-- \\SilverStripe\\ORM\\DataExtension -->
<g id="node68" class="node">
<title>\\SilverStripe\\ORM\\DataExtension</title>
<ellipse fill="none" stroke="#000000" cx="254.1275" cy="-72.8095" rx="167.8704" ry="18"/>
<text text-anchor="middle" x="254.1275" y="-69.1095" font-family="Times,serif" font-size="14.00" fill="#c0c0c0">\SilverStripe\ORM\DataExtension</text>
</g>
<!-- \\Firesphere\\SolrSearch\\Extensions\\DataObjectExtension&#45;&gt;\\SilverStripe\\ORM\\DataExtension -->
<g id="edge11" class="edge">
<title>\\Firesphere\\SolrSearch\\Extensions\\DataObjectExtension&#45;&gt;\\SilverStripe\\ORM\\DataExtension</title>
<path fill="none" stroke="#000000" d="M600.0719,-2163.3244C589.304,-2159.0936 579.4335,-2152.8739 572.2549,-2143.8095 431.1852,-1965.6821 662.8264,-266.3559 508.2549,-99.8095 467.4108,-55.8012 398.7352,-50.7754 343.0664,-55.816"/>
<polygon fill="none" stroke="#000000" points="342.4228,-52.3636 332.8328,-56.8672 343.1381,-59.3269 342.4228,-52.3636"/>
</g>
<!-- \\Firesphere\\SolrSearch\\Extensions\\GridFieldExtension -->
<g id="node14" class="node">
<title>\\Firesphere\\SolrSearch\\Extensions\\GridFieldExtension</title>
<polygon fill="none" stroke="#000000" points="741.7549,-2134.8095 603.7549,-2134.8095 603.7549,-2098.8095 741.7549,-2098.8095 741.7549,-2134.8095"/>
<text text-anchor="middle" x="672.7549" y="-2114.0095" font-family="Courier,monospace" font-size="11.00" fill="#000000">GridFieldExtension</text>
</g>
<!-- \\Firesphere\\SolrSearch\\Extensions\\GridFieldExtension&#45;&gt;\\SilverStripe\\Core\\Extension -->
<g id="edge12" class="edge">
<title>\\Firesphere\\SolrSearch\\Extensions\\GridFieldExtension&#45;&gt;\\SilverStripe\\Core\\Extension</title>
<path fill="none" stroke="#000000" d="M603.5129,-2108.5024C591.3828,-2103.9237 580.1408,-2097.0541 572.2549,-2086.8095 433.8583,-1907.0177 662.6036,-212.1081 508.2549,-45.8095 466.3285,-.6371 395.0787,3.4625 338.6727,-2.2375"/>
<polygon fill="none" stroke="#000000" points="338.2277,1.2346 328.6827,-3.3634 339.0118,-5.7214 338.2277,1.2346"/>
</g>
<!-- \\Firesphere\\SolrSearch\\Results\\SearchResult -->
<g id="node15" class="node">
<title>\\Firesphere\\SolrSearch\\Results\\SearchResult</title>
<polygon fill="none" stroke="#000000" points="721.7549,-2268.8095 623.7549,-2268.8095 623.7549,-2232.8095 721.7549,-2232.8095 721.7549,-2268.8095"/>
<text text-anchor="middle" x="672.7549" y="-2248.0095" font-family="Courier,monospace" font-size="11.00" fill="#000000">SearchResult</text>
</g>
<!-- \\Firesphere\\SolrSearch\\Results\\SearchResult&#45;&gt;\\SilverStripe\\View\\ViewableData -->
<g id="edge13" class="edge">
<title>\\Firesphere\\SolrSearch\\Results\\SearchResult&#45;&gt;\\SilverStripe\\View\\ViewableData</title>
<path fill="none" stroke="#000000" d="M623.6999,-2263.4482C604.3934,-2271.0182 584.0556,-2282.7966 572.2549,-2300.8095 495.4975,-2417.9751 604.5352,-3458.0767 508.2549,-3559.8095 467.1274,-3603.2661 398.81,-3608.4309 343.3619,-3603.5875"/>
<polygon fill="none" stroke="#000000" points="343.4651,-3600.0806 333.1678,-3602.5736 342.7723,-3607.0462 343.4651,-3600.0806"/>
</g>
<!-- \\Firesphere\\SolrSearch\\Queries\\BaseQuery -->
<g id="node16" class="node">
<title>\\Firesphere\\SolrSearch\\Queries\\BaseQuery</title>
<polygon fill="none" stroke="#000000" points="711.2549,-2054.8095 634.2549,-2054.8095 634.2549,-2018.8095 711.2549,-2018.8095 711.2549,-2054.8095"/>
<text text-anchor="middle" x="672.7549" y="-2034.0095" font-family="Courier,monospace" font-size="11.00" fill="#000000">BaseQuery</text>
</g>
<!-- \\Firesphere\\SolrSearch\\Forms\\SearchForm -->
<g id="node17" class="node">
<title>\\Firesphere\\SolrSearch\\Forms\\SearchForm</title>
<polygon fill="none" stroke="#000000" points="714.7549,-1974.8095 630.7549,-1974.8095 630.7549,-1938.8095 714.7549,-1938.8095 714.7549,-1974.8095"/>
<text text-anchor="middle" x="672.7549" y="-1954.0095" font-family="Courier,monospace" font-size="11.00" fill="#000000">SearchForm</text>
</g>
<!-- \\SilverStripe\\Forms\\Form -->
<g id="node69" class="node">
<title>\\SilverStripe\\Forms\\Form</title>
<ellipse fill="none" stroke="#000000" cx="254.1275" cy="-3532.8095" rx="129.1772" ry="18"/>
<text text-anchor="middle" x="254.1275" y="-3529.1095" font-family="Times,serif" font-size="14.00" fill="#c0c0c0">\SilverStripe\Forms\Form</text>
</g>
<!-- \\Firesphere\\SolrSearch\\Forms\\SearchForm&#45;&gt;\\SilverStripe\\Forms\\Form -->
<g id="edge14" class="edge">
<title>\\Firesphere\\SolrSearch\\Forms\\SearchForm&#45;&gt;\\SilverStripe\\Forms\\Form</title>
<path fill="none" stroke="#000000" d="M630.6469,-1966.8157C609.4056,-1974.178 585.4151,-1986.5423 572.2549,-2006.8095 481.4671,-2146.6269 622.3528,-3384.2653 508.2549,-3505.8095 465.4289,-3551.4305 392.6618,-3554.9801 335.9409,-3548.9673"/>
<polygon fill="none" stroke="#000000" points="336.2478,-3545.4793 325.9075,-3547.7878 335.4305,-3552.4315 336.2478,-3545.4793"/>
</g>
<!-- \\Firesphere\\SolrSearch\\Jobs\\SolrIndexJob -->
<g id="node18" class="node">
<title>\\Firesphere\\SolrSearch\\Jobs\\SolrIndexJob</title>
<polygon fill="none" stroke="#000000" points="721.7549,-1894.8095 623.7549,-1894.8095 623.7549,-1858.8095 721.7549,-1858.8095 721.7549,-1894.8095"/>
<text text-anchor="middle" x="672.7549" y="-1874.0095" font-family="Courier,monospace" font-size="11.00" fill="#000000">SolrIndexJob</text>
</g>
<!-- \\Symbiote\\QueuedJobs\\Services\\AbstractQueuedJob -->
<g id="node70" class="node">
<title>\\Symbiote\\QueuedJobs\\Services\\AbstractQueuedJob</title>
<ellipse fill="none" stroke="#000000" cx="254.1275" cy="-3478.8095" rx="254.255" ry="18"/>
<text text-anchor="middle" x="254.1275" y="-3475.1095" font-family="Times,serif" font-size="14.00" fill="#c0c0c0">\Symbiote\QueuedJobs\Services\AbstractQueuedJob</text>
</g>
<!-- \\Firesphere\\SolrSearch\\Jobs\\SolrIndexJob&#45;&gt;\\Symbiote\\QueuedJobs\\Services\\AbstractQueuedJob -->
<g id="edge15" class="edge">
<title>\\Firesphere\\SolrSearch\\Jobs\\SolrIndexJob&#45;&gt;\\Symbiote\\QueuedJobs\\Services\\AbstractQueuedJob</title>
<path fill="none" stroke="#000000" d="M623.6226,-1889.3978C604.3027,-1896.959 583.9758,-1908.7445 572.2549,-1926.8095 479.9469,-2069.0812 624.2833,-3328.1188 508.2549,-3451.8095 469.7576,-3492.8492 407.0326,-3499.8523 353.534,-3496.4707"/>
<polygon fill="none" stroke="#000000" points="353.5507,-3492.9619 343.3142,-3495.6938 353.0201,-3499.9418 353.5507,-3492.9619"/>
</g>
<!-- \\Firesphere\\SolrSearch\\Jobs\\ClearDirtyClassesJob -->
<g id="node19" class="node">
<title>\\Firesphere\\SolrSearch\\Jobs\\ClearDirtyClassesJob</title>
<polygon fill="none" stroke="#000000" points="748.7549,-1840.8095 596.7549,-1840.8095 596.7549,-1804.8095 748.7549,-1804.8095 748.7549,-1840.8095"/>
<text text-anchor="middle" x="672.7549" y="-1820.0095" font-family="Courier,monospace" font-size="11.00" fill="#000000">ClearDirtyClassesJob</text>
</g>
<!-- \\Firesphere\\SolrSearch\\Jobs\\ClearDirtyClassesJob&#45;&gt;\\Symbiote\\QueuedJobs\\Services\\AbstractQueuedJob -->
<g id="edge16" class="edge">
<title>\\Firesphere\\SolrSearch\\Jobs\\ClearDirtyClassesJob&#45;&gt;\\Symbiote\\QueuedJobs\\Services\\AbstractQueuedJob</title>
<path fill="none" stroke="#000000" d="M596.6363,-1831.8056C587.2311,-1835.9631 578.6831,-1841.7643 572.2549,-1849.8095 461.0551,-1988.9827 630.0008,-3321.7615 508.2549,-3451.8095 469.7277,-3492.964 406.8419,-3499.9172 353.2684,-3496.4813"/>
<polygon fill="none" stroke="#000000" points="353.2743,-3492.9715 343.0352,-3495.6939 352.7372,-3499.9509 353.2743,-3492.9715"/>
</g>
<!-- \\Firesphere\\SolrSearch\\Jobs\\SolrConfigureJob -->
<g id="node20" class="node">
<title>\\Firesphere\\SolrSearch\\Jobs\\SolrConfigureJob</title>
<polygon fill="none" stroke="#000000" points="735.2549,-1786.8095 610.2549,-1786.8095 610.2549,-1750.8095 735.2549,-1750.8095 735.2549,-1786.8095"/>
<text text-anchor="middle" x="672.7549" y="-1766.0095" font-family="Courier,monospace" font-size="11.00" fill="#000000">SolrConfigureJob</text>
</g>
<!-- \\Firesphere\\SolrSearch\\Jobs\\SolrConfigureJob&#45;&gt;\\Symbiote\\QueuedJobs\\Services\\AbstractQueuedJob -->
<g id="edge17" class="edge">
<title>\\Firesphere\\SolrSearch\\Jobs\\SolrConfigureJob&#45;&gt;\\Symbiote\\QueuedJobs\\Services\\AbstractQueuedJob</title>
<path fill="none" stroke="#000000" d="M610.1725,-1773.004C595.6271,-1777.0459 581.664,-1784.0178 572.2549,-1795.8095 457.4062,-1939.7413 634.0107,-3317.3029 508.2549,-3451.8095 469.6833,-3493.0651 406.6363,-3499.968 352.9918,-3496.4812"/>
<polygon fill="none" stroke="#000000" points="352.9874,-3492.9704 342.746,-3495.684 352.4443,-3499.9493 352.9874,-3492.9704"/>
</g>
<!-- \\Firesphere\\SolrSearch\\Traits\\GetSetSearchResolverTrait -->
<g id="node21" class="node">
<title>\\Firesphere\\SolrSearch\\Traits\\GetSetSearchResolverTrait</title>
<polygon fill="none" stroke="#000000" points="765.2549,-1706.8095 580.2549,-1706.8095 580.2549,-1670.8095 765.2549,-1670.8095 765.2549,-1706.8095"/>
<text text-anchor="middle" x="672.7549" y="-1686.0095" font-family="Courier,monospace" font-size="11.00" fill="#000000">GetSetSearchResolverTrait</text>
</g>
<!-- \\Firesphere\\SolrSearch\\Traits\\SearchResultGetTrait -->
<g id="node22" class="node">
<title>\\Firesphere\\SolrSearch\\Traits\\SearchResultGetTrait</title>
<polygon fill="none" stroke="#000000" points="748.7549,-1652.8095 596.7549,-1652.8095 596.7549,-1616.8095 748.7549,-1616.8095 748.7549,-1652.8095"/>
<text text-anchor="middle" x="672.7549" y="-1632.0095" font-family="Courier,monospace" font-size="11.00" fill="#000000">SearchResultGetTrait</text>
</g>
<!-- \\Firesphere\\SolrSearch\\Traits\\SearchResultSetTrait -->
<g id="node23" class="node">
<title>\\Firesphere\\SolrSearch\\Traits\\SearchResultSetTrait</title>
<polygon fill="none" stroke="#000000" points="748.7549,-1598.8095 596.7549,-1598.8095 596.7549,-1562.8095 748.7549,-1562.8095 748.7549,-1598.8095"/>
<text text-anchor="middle" x="672.7549" y="-1578.0095" font-family="Courier,monospace" font-size="11.00" fill="#000000">SearchResultSetTrait</text>
</g>
<!-- \\Firesphere\\SolrSearch\\Traits\\GetterSetterTrait -->
<g id="node24" class="node">
<title>\\Firesphere\\SolrSearch\\Traits\\GetterSetterTrait</title>
<polygon fill="none" stroke="#000000" points="738.2549,-1544.8095 607.2549,-1544.8095 607.2549,-1508.8095 738.2549,-1508.8095 738.2549,-1544.8095"/>
<text text-anchor="middle" x="672.7549" y="-1524.0095" font-family="Courier,monospace" font-size="11.00" fill="#000000">GetterSetterTrait</text>
</g>
<!-- \\Firesphere\\SolrSearch\\Traits\\SolrIndexTrait -->
<g id="node25" class="node">
<title>\\Firesphere\\SolrSearch\\Traits\\SolrIndexTrait</title>
<polygon fill="none" stroke="#000000" points="728.2549,-1490.8095 617.2549,-1490.8095 617.2549,-1454.8095 728.2549,-1454.8095 728.2549,-1490.8095"/>
<text text-anchor="middle" x="672.7549" y="-1470.0095" font-family="Courier,monospace" font-size="11.00" fill="#000000">SolrIndexTrait</text>
</g>
<!-- \\Firesphere\\SolrSearch\\Traits\\BaseIndexTrait -->
<g id="node26" class="node">
<title>\\Firesphere\\SolrSearch\\Traits\\BaseIndexTrait</title>
<polygon fill="none" stroke="#000000" points="728.2549,-1436.8095 617.2549,-1436.8095 617.2549,-1400.8095 728.2549,-1400.8095 728.2549,-1436.8095"/>
<text text-anchor="middle" x="672.7549" y="-1416.0095" font-family="Courier,monospace" font-size="11.00" fill="#000000">BaseIndexTrait</text>
</g>
<!-- \\Firesphere\\SolrSearch\\Traits\\GetSetSchemaFactoryTrait -->
<g id="node27" class="node">
<title>\\Firesphere\\SolrSearch\\Traits\\GetSetSchemaFactoryTrait</title>
<polygon fill="none" stroke="#000000" points="762.2549,-1382.8095 583.2549,-1382.8095 583.2549,-1346.8095 762.2549,-1346.8095 762.2549,-1382.8095"/>
<text text-anchor="middle" x="672.7549" y="-1362.0095" font-family="Courier,monospace" font-size="11.00" fill="#000000">GetSetSchemaFactoryTrait</text>
</g>
<!-- \\Firesphere\\SolrSearch\\Traits\\CoreServiceTrait -->
<g id="node28" class="node">
<title>\\Firesphere\\SolrSearch\\Traits\\CoreServiceTrait</title>
<polygon fill="none" stroke="#000000" points="735.2549,-1328.8095 610.2549,-1328.8095 610.2549,-1292.8095 735.2549,-1292.8095 735.2549,-1328.8095"/>
<text text-anchor="middle" x="672.7549" y="-1308.0095" font-family="Courier,monospace" font-size="11.00" fill="#000000">CoreServiceTrait</text>
</g>
<!-- \\Firesphere\\SolrSearch\\Traits\\CoreAdminTrait -->
<g id="node29" class="node">
<title>\\Firesphere\\SolrSearch\\Traits\\CoreAdminTrait</title>
<polygon fill="none" stroke="#000000" points="728.2549,-1274.8095 617.2549,-1274.8095 617.2549,-1238.8095 728.2549,-1238.8095 728.2549,-1274.8095"/>
<text text-anchor="middle" x="672.7549" y="-1254.0095" font-family="Courier,monospace" font-size="11.00" fill="#000000">CoreAdminTrait</text>
</g>
<!-- \\Firesphere\\SolrSearch\\Traits\\LoggerTrait -->
<g id="node30" class="node">
<title>\\Firesphere\\SolrSearch\\Traits\\LoggerTrait</title>
<polygon fill="none" stroke="#000000" points="718.2549,-1220.8095 627.2549,-1220.8095 627.2549,-1184.8095 718.2549,-1184.8095 718.2549,-1220.8095"/>
<text text-anchor="middle" x="672.7549" y="-1200.0095" font-family="Courier,monospace" font-size="11.00" fill="#000000">LoggerTrait</text>
</g>
<!-- \\Firesphere\\SolrSearch\\Traits\\DataResolveTrait -->
<g id="node31" class="node">
<title>\\Firesphere\\SolrSearch\\Traits\\DataResolveTrait</title>
<polygon fill="none" stroke="#000000" points="735.2549,-1166.8095 610.2549,-1166.8095 610.2549,-1130.8095 735.2549,-1130.8095 735.2549,-1166.8095"/>
<text text-anchor="middle" x="672.7549" y="-1146.0095" font-family="Courier,monospace" font-size="11.00" fill="#000000">DataResolveTrait</text>
</g>
<!-- \\Firesphere\\SolrSearch\\Traits\\QueryComponentFacetTrait -->
<g id="node32" class="node">
<title>\\Firesphere\\SolrSearch\\Traits\\QueryComponentFacetTrait</title>
<polygon fill="none" stroke="#000000" points="762.2549,-1112.8095 583.2549,-1112.8095 583.2549,-1076.8095 762.2549,-1076.8095 762.2549,-1112.8095"/>
<text text-anchor="middle" x="672.7549" y="-1092.0095" font-family="Courier,monospace" font-size="11.00" fill="#000000">QueryComponentFacetTrait</text>
</g>
<!-- \\Firesphere\\SolrSearch\\Traits\\QueryComponentFilterTrait -->
<g id="node33" class="node">
<title>\\Firesphere\\SolrSearch\\Traits\\QueryComponentFilterTrait</title>
<polygon fill="none" stroke="#000000" points="765.2549,-1058.8095 580.2549,-1058.8095 580.2549,-1022.8095 765.2549,-1022.8095 765.2549,-1058.8095"/>
<text text-anchor="middle" x="672.7549" y="-1038.0095" font-family="Courier,monospace" font-size="11.00" fill="#000000">QueryComponentFilterTrait</text>
</g>
<!-- \\Firesphere\\SolrSearch\\Traits\\QueryComponentBoostTrait -->
<g id="node34" class="node">
<title>\\Firesphere\\SolrSearch\\Traits\\QueryComponentBoostTrait</title>
<polygon fill="none" stroke="#000000" points="762.2549,-1004.8095 583.2549,-1004.8095 583.2549,-968.8095 762.2549,-968.8095 762.2549,-1004.8095"/>
<text text-anchor="middle" x="672.7549" y="-984.0095" font-family="Courier,monospace" font-size="11.00" fill="#000000">QueryComponentBoostTrait</text>
</g>
<!-- \\Firesphere\\SolrSearch\\Traits\\DocumentFactoryTrait -->
<g id="node35" class="node">
<title>\\Firesphere\\SolrSearch\\Traits\\DocumentFactoryTrait</title>
<polygon fill="none" stroke="#000000" points="748.7549,-950.8095 596.7549,-950.8095 596.7549,-914.8095 748.7549,-914.8095 748.7549,-950.8095"/>
<text text-anchor="middle" x="672.7549" y="-930.0095" font-family="Courier,monospace" font-size="11.00" fill="#000000">DocumentFactoryTrait</text>
</g>
<!-- \\Firesphere\\SolrSearch\\Traits\\BaseQueryTrait -->
<g id="node36" class="node">
<title>\\Firesphere\\SolrSearch\\Traits\\BaseQueryTrait</title>
<polygon fill="none" stroke="#000000" points="728.2549,-896.8095 617.2549,-896.8095 617.2549,-860.8095 728.2549,-860.8095 728.2549,-896.8095"/>
<text text-anchor="middle" x="672.7549" y="-876.0095" font-family="Courier,monospace" font-size="11.00" fill="#000000">BaseQueryTrait</text>
</g>
<!-- \\Firesphere\\SolrSearch\\Tasks\\ClearDirtyClassesTask -->
<g id="node37" class="node">
<title>\\Firesphere\\SolrSearch\\Tasks\\ClearDirtyClassesTask</title>
<polygon fill="none" stroke="#000000" points="751.7549,-708.8095 593.7549,-708.8095 593.7549,-672.8095 751.7549,-672.8095 751.7549,-708.8095"/>
<text text-anchor="middle" x="672.7549" y="-688.0095" font-family="Courier,monospace" font-size="11.00" fill="#000000">ClearDirtyClassesTask</text>
</g>
<!-- \\SilverStripe\\Dev\\BuildTask -->
<g id="node71" class="node">
<title>\\SilverStripe\\Dev\\BuildTask</title>
<ellipse fill="none" stroke="#000000" cx="254.1275" cy="-3424.8095" rx="139.9756" ry="18"/>
<text text-anchor="middle" x="254.1275" y="-3421.1095" font-family="Times,serif" font-size="14.00" fill="#c0c0c0">\SilverStripe\Dev\BuildTask</text>
</g>
<!-- \\Firesphere\\SolrSearch\\Tasks\\ClearDirtyClassesTask&#45;&gt;\\SilverStripe\\Dev\\BuildTask -->
<g id="edge18" class="edge">
<title>\\Firesphere\\SolrSearch\\Tasks\\ClearDirtyClassesTask&#45;&gt;\\SilverStripe\\Dev\\BuildTask</title>
<path fill="none" stroke="#000000" d="M593.7323,-701.8449C585.5943,-705.7798 578.1613,-710.9747 572.2549,-717.8095 386.7682,-932.4522 269.6399,-3120.2294 255.5595,-3396.243"/>
<polygon fill="none" stroke="#000000" points="252.0449,-3396.4439 255.0335,-3406.6085 259.0359,-3396.7987 252.0449,-3396.4439"/>
</g>
<!-- \\Firesphere\\SolrSearch\\Tasks\\SolrConfigureTask -->
<g id="node38" class="node">
<title>\\Firesphere\\SolrSearch\\Tasks\\SolrConfigureTask</title>
<polygon fill="none" stroke="#000000" points="738.2549,-654.8095 607.2549,-654.8095 607.2549,-618.8095 738.2549,-618.8095 738.2549,-654.8095"/>
<text text-anchor="middle" x="672.7549" y="-634.0095" font-family="Courier,monospace" font-size="11.00" fill="#000000">SolrConfigureTask</text>
</g>
<!-- \\Firesphere\\SolrSearch\\Tasks\\SolrConfigureTask&#45;&gt;\\SilverStripe\\Dev\\BuildTask -->
<g id="edge19" class="edge">
<title>\\Firesphere\\SolrSearch\\Tasks\\SolrConfigureTask&#45;&gt;\\SilverStripe\\Dev\\BuildTask</title>
<path fill="none" stroke="#000000" d="M607.1258,-642.5785C593.8855,-646.7194 581.2799,-653.342 572.2549,-663.8095 383.1756,-883.1117 268.979,-3118.6801 255.4775,-3396.5215"/>
<polygon fill="none" stroke="#000000" points="251.9774,-3396.4421 254.9904,-3406.5994 258.9692,-3396.7801 251.9774,-3396.4421"/>
</g>
<!-- \\Firesphere\\SolrSearch\\Tasks\\ClearErrorsTask -->
<g id="node39" class="node">
<title>\\Firesphere\\SolrSearch\\Tasks\\ClearErrorsTask</title>
<polygon fill="none" stroke="#000000" points="731.7549,-816.8095 613.7549,-816.8095 613.7549,-780.8095 731.7549,-780.8095 731.7549,-816.8095"/>
<text text-anchor="middle" x="672.7549" y="-796.0095" font-family="Courier,monospace" font-size="11.00" fill="#000000">ClearErrorsTask</text>
</g>
<!-- \\Firesphere\\SolrSearch\\Tasks\\ClearErrorsTask&#45;&gt;\\SilverStripe\\Dev\\BuildTask -->
<g id="edge20" class="edge">
<title>\\Firesphere\\SolrSearch\\Tasks\\ClearErrorsTask&#45;&gt;\\SilverStripe\\Dev\\BuildTask</title>
<path fill="none" stroke="#000000" d="M613.5683,-816.5577C597.8186,-824.0645 582.3887,-834.4942 572.2549,-848.8095 416.4094,-1068.9617 273.8013,-3130.6496 255.9943,-3396.6008"/>
<polygon fill="none" stroke="#000000" points="252.4997,-3396.4045 255.3261,-3406.6154 259.4842,-3396.8706 252.4997,-3396.4045"/>
</g>
<!-- \\Firesphere\\SolrSearch\\Tasks\\SolrIndexTask -->
<g id="node40" class="node">
<title>\\Firesphere\\SolrSearch\\Tasks\\SolrIndexTask</title>
<polygon fill="none" stroke="#000000" points="724.7549,-762.8095 620.7549,-762.8095 620.7549,-726.8095 724.7549,-726.8095 724.7549,-762.8095"/>
<text text-anchor="middle" x="672.7549" y="-742.0095" font-family="Courier,monospace" font-size="11.00" fill="#000000">SolrIndexTask</text>
</g>
<!-- \\Firesphere\\SolrSearch\\Tasks\\SolrIndexTask&#45;&gt;\\SilverStripe\\Dev\\BuildTask -->
<g id="edge21" class="edge">
<title>\\Firesphere\\SolrSearch\\Tasks\\SolrIndexTask&#45;&gt;\\SilverStripe\\Dev\\BuildTask</title>
<path fill="none" stroke="#000000" d="M620.5037,-747.2447C602.7259,-750.7651 584.3204,-757.8807 572.2549,-771.8095 390.263,-981.9067 270.1939,-3124.0811 255.6228,-3396.3922"/>
<polygon fill="none" stroke="#000000" points="252.1145,-3396.4561 255.0778,-3406.6281 259.1046,-3396.8284 252.1145,-3396.4561"/>
</g>
<!-- \\Firesphere\\SolrSearch\\Interfaces\\SiteStateInterface -->
<g id="node41" class="node">
<title>\\Firesphere\\SolrSearch\\Interfaces\\SiteStateInterface</title>
<polygon fill="none" stroke="#000000" points="323.1275,-224.8095 185.1275,-224.8095 185.1275,-188.8095 323.1275,-188.8095 323.1275,-224.8095"/>
<text text-anchor="middle" x="254.1275" y="-204.0095" font-family="Courier,monospace" font-size="11.00" fill="#000000">SiteStateInterface</text>
</g>
<!-- \\Firesphere\\SolrSearch\\Interfaces\\ConfigStore -->
<g id="node42" class="node">
<title>\\Firesphere\\SolrSearch\\Interfaces\\ConfigStore</title>
<polygon fill="none" stroke="#000000" points="299.6275,-278.8095 208.6275,-278.8095 208.6275,-242.8095 299.6275,-242.8095 299.6275,-278.8095"/>
<text text-anchor="middle" x="254.1275" y="-258.0095" font-family="Courier,monospace" font-size="11.00" fill="#000000">ConfigStore</text>
</g>
<!-- \\Firesphere\\SolrSearch\\Helpers\\DataResolver -->
<g id="node43" class="node">
<title>\\Firesphere\\SolrSearch\\Helpers\\DataResolver</title>
<polygon fill="none" stroke="#000000" points="721.7549,-574.8095 623.7549,-574.8095 623.7549,-538.8095 721.7549,-538.8095 721.7549,-574.8095"/>
<text text-anchor="middle" x="672.7549" y="-554.0095" font-family="Courier,monospace" font-size="11.00" fill="#000000">DataResolver</text>
</g>
<!-- \\Firesphere\\SolrSearch\\Helpers\\Synonyms -->
<g id="node44" class="node">
<title>\\Firesphere\\SolrSearch\\Helpers\\Synonyms</title>
<polygon fill="none" stroke="#000000" points="708.2549,-520.8095 637.2549,-520.8095 637.2549,-484.8095 708.2549,-484.8095 708.2549,-520.8095"/>
<text text-anchor="middle" x="672.7549" y="-500.0095" font-family="Courier,monospace" font-size="11.00" fill="#000000">Synonyms</text>
</g>
<!-- \\Firesphere\\SolrSearch\\Helpers\\SolrLogger -->
<g id="node45" class="node">
<title>\\Firesphere\\SolrSearch\\Helpers\\SolrLogger</title>
<polygon fill="none" stroke="#000000" points="714.7549,-466.8095 630.7549,-466.8095 630.7549,-430.8095 714.7549,-430.8095 714.7549,-466.8095"/>
<text text-anchor="middle" x="672.7549" y="-446.0095" font-family="Courier,monospace" font-size="11.00" fill="#000000">SolrLogger</text>
</g>
<!-- \\Firesphere\\SolrSearch\\Helpers\\Statics -->
<g id="node46" class="node">
<title>\\Firesphere\\SolrSearch\\Helpers\\Statics</title>
<polygon fill="none" stroke="#000000" points="704.7549,-412.8095 640.7549,-412.8095 640.7549,-376.8095 704.7549,-376.8095 704.7549,-412.8095"/>
<text text-anchor="middle" x="672.7549" y="-392.0095" font-family="Courier,monospace" font-size="11.00" fill="#000000">Statics</text>
</g>
<!-- \\Firesphere\\SolrSearch\\Helpers\\FieldResolver -->
<g id="node47" class="node">
<title>\\Firesphere\\SolrSearch\\Helpers\\FieldResolver</title>
<polygon fill="none" stroke="#000000" points="724.7549,-358.8095 620.7549,-358.8095 620.7549,-322.8095 724.7549,-322.8095 724.7549,-358.8095"/>
<text text-anchor="middle" x="672.7549" y="-338.0095" font-family="Courier,monospace" font-size="11.00" fill="#000000">FieldResolver</text>
</g>
<!-- \\Firesphere\\SolrSearch\\Stores\\FileConfigStore -->
<g id="node48" class="node">
<title>\\Firesphere\\SolrSearch\\Stores\\FileConfigStore</title>
<polygon fill="none" stroke="#000000" points="731.7549,-278.8095 613.7549,-278.8095 613.7549,-242.8095 731.7549,-242.8095 731.7549,-278.8095"/>
<text text-anchor="middle" x="672.7549" y="-258.0095" font-family="Courier,monospace" font-size="11.00" fill="#000000">FileConfigStore</text>
</g>
<!-- \\Firesphere\\SolrSearch\\Stores\\FileConfigStore&#45;&gt;\\Firesphere\\SolrSearch\\Interfaces\\ConfigStore -->
<g id="edge22" class="edge">
<title>\\Firesphere\\SolrSearch\\Stores\\FileConfigStore&#45;&gt;\\Firesphere\\SolrSearch\\Interfaces\\ConfigStore</title>
<path fill="none" stroke="#000000" stroke-dasharray="1,5" d="M613.6637,-260.8095C532.8854,-260.8095 389.0185,-260.8095 309.9722,-260.8095"/>
<polygon fill="none" stroke="#000000" points="309.7288,-257.3096 299.7287,-260.8095 309.7287,-264.3096 309.7288,-257.3096"/>
</g>
<!-- \\Firesphere\\SolrSearch\\Stores\\PostConfigStore -->
<g id="node49" class="node">
<title>\\Firesphere\\SolrSearch\\Stores\\PostConfigStore</title>
<polygon fill="none" stroke="#000000" points="731.7549,-224.8095 613.7549,-224.8095 613.7549,-188.8095 731.7549,-188.8095 731.7549,-224.8095"/>
<text text-anchor="middle" x="672.7549" y="-204.0095" font-family="Courier,monospace" font-size="11.00" fill="#000000">PostConfigStore</text>
</g>
<!-- \\Firesphere\\SolrSearch\\Stores\\PostConfigStore&#45;&gt;\\Firesphere\\SolrSearch\\Interfaces\\ConfigStore -->
<g id="edge23" class="edge">
<title>\\Firesphere\\SolrSearch\\Stores\\PostConfigStore&#45;&gt;\\Firesphere\\SolrSearch\\Interfaces\\ConfigStore</title>
<path fill="none" stroke="#000000" stroke-dasharray="1,5" d="M613.4867,-217.3731C582.2454,-222.7295 543.2453,-229.0831 508.2549,-233.8095 440.1774,-243.0054 361.4881,-250.9543 309.9264,-255.8008"/>
<polygon fill="none" stroke="#000000" points="309.2998,-252.3439 299.6682,-256.7576 309.95,-259.3137 309.2998,-252.3439"/>
</g>
<!-- \\Firesphere\\SolrFluent\\States\\FluentSiteState -->
<g id="node50" class="node">
<title>\\Firesphere\\SolrFluent\\States\\FluentSiteState</title>
<polygon fill="none" stroke="#000000" points="985.7549,-856.8095 867.7549,-856.8095 867.7549,-820.8095 985.7549,-820.8095 985.7549,-856.8095"/>
<text text-anchor="middle" x="926.7549" y="-836.0095" font-family="Courier,monospace" font-size="11.00" fill="#000000">FluentSiteState</text>
</g>
<!-- \\Firesphere\\SolrFluent\\States\\FluentSiteState&#45;&gt;\\Firesphere\\SolrSearch\\States\\SiteState -->
<g id="edge24" class="edge">
<title>\\Firesphere\\SolrFluent\\States\\FluentSiteState&#45;&gt;\\Firesphere\\SolrSearch\\States\\SiteState</title>
<path fill="none" stroke="#000000" d="M891.3888,-856.8474C866.8355,-871.4983 835.9868,-894.6612 821.2549,-924.8095 777.2432,-1014.8784 842.8449,-2649.714 781.2549,-2728.8095 767.9437,-2745.9041 745.8145,-2753.8191 725.0006,-2757.2991"/>
<polygon fill="none" stroke="#000000" points="724.3683,-2753.8529 714.933,-2758.672 725.3142,-2760.7887 724.3683,-2753.8529"/>
</g>
<!-- \\Firesphere\\SolrFluent\\States\\FluentSiteState&#45;&gt;\\Firesphere\\SolrSearch\\Interfaces\\SiteStateInterface -->
<g id="edge25" class="edge">
<title>\\Firesphere\\SolrFluent\\States\\FluentSiteState&#45;&gt;\\Firesphere\\SolrSearch\\Interfaces\\SiteStateInterface</title>
<path fill="none" stroke="#000000" stroke-dasharray="1,5" d="M867.5291,-834.8484C850.0639,-830.6554 832.6083,-822.8931 821.2549,-808.8095 732.9344,-699.2507 880.7021,-276.3781 781.2549,-176.8095 764.1808,-159.7145 692.946,-183.0792 672.7549,-169.8095"/>
<path fill="none" stroke="#000000" stroke-dasharray="1,5" d="M672.7549,-169.8095C645.1222,-151.6492 446.7099,-177.7614 333.2389,-194.5517"/>
<polygon fill="none" stroke="#000000" points="332.5799,-191.1111 323.204,-196.045 333.6103,-198.0349 332.5799,-191.1111"/>
</g>
<!-- \\Firesphere\\SolrFluent\\Extensions\\FluentIndexExtension -->
<g id="node51" class="node">
<title>\\Firesphere\\SolrFluent\\Extensions\\FluentIndexExtension</title>
<polygon fill="none" stroke="#000000" points="1002.7549,-668.8095 850.7549,-668.8095 850.7549,-632.8095 1002.7549,-632.8095 1002.7549,-668.8095"/>
<text text-anchor="middle" x="926.7549" y="-648.0095" font-family="Courier,monospace" font-size="11.00" fill="#000000">FluentIndexExtension</text>
</g>
<!-- \\Firesphere\\SolrFluent\\Extensions\\FluentIndexExtension&#45;&gt;\\SilverStripe\\Core\\Extension -->
<g id="edge26" class="edge">
<title>\\Firesphere\\SolrFluent\\Extensions\\FluentIndexExtension&#45;&gt;\\SilverStripe\\Core\\Extension</title>
<path fill="none" stroke="#000000" d="M879.2438,-632.7224C857.9161,-622.0824 834.5963,-606.4067 821.2549,-584.8095 771.9816,-505.0457 843.3593,-235.046 781.2549,-164.8095 748.54,-127.8109 709.4057,-173.9137 672.7549,-140.8095"/>
<path fill="none" stroke="#000000" d="M672.7549,-140.8095C657.0915,-126.6619 528.3246,-52.3444 508.2549,-45.8095 475.4252,-35.1199 439.0725,-28.4342 404.3721,-24.306"/>
<polygon fill="none" stroke="#000000" points="404.4777,-20.7959 394.1493,-23.1569 403.6957,-27.7521 404.4777,-20.7959"/>
</g>
<!-- \\Firesphere\\SolrFluent\\Extensions\\FluentDocumentExtension -->
<g id="node52" class="node">
<title>\\Firesphere\\SolrFluent\\Extensions\\FluentDocumentExtension</title>
<polygon fill="none" stroke="#000000" points="1012.7549,-776.8095 840.7549,-776.8095 840.7549,-740.8095 1012.7549,-740.8095 1012.7549,-776.8095"/>
<text text-anchor="middle" x="926.7549" y="-756.0095" font-family="Courier,monospace" font-size="11.00" fill="#000000">FluentDocumentExtension</text>
</g>
<!-- \\Firesphere\\SolrFluent\\Extensions\\FluentDocumentExtension&#45;&gt;\\SilverStripe\\Core\\Extension -->
<g id="edge27" class="edge">
<title>\\Firesphere\\SolrFluent\\Extensions\\FluentDocumentExtension&#45;&gt;\\SilverStripe\\Core\\Extension</title>
<path fill="none" stroke="#000000" d="M840.747,-747.2015C833.3488,-743.2996 826.6449,-738.2696 821.2549,-731.8095 740.3328,-634.8218 863.7592,-260.455 781.2549,-164.8095 748.9961,-127.4126 709.4057,-173.9137 672.7549,-140.8095"/>
</g>
<!-- \\Firesphere\\SolrFluent\\Extensions\\FluentSchemaExtension -->
<g id="node53" class="node">
<title>\\Firesphere\\SolrFluent\\Extensions\\FluentSchemaExtension</title>
<polygon fill="none" stroke="#000000" points="1005.7549,-722.8095 847.7549,-722.8095 847.7549,-686.8095 1005.7549,-686.8095 1005.7549,-722.8095"/>
<text text-anchor="middle" x="926.7549" y="-702.0095" font-family="Courier,monospace" font-size="11.00" fill="#000000">FluentSchemaExtension</text>
</g>
<!-- \\Firesphere\\SolrFluent\\Extensions\\FluentSchemaExtension&#45;&gt;\\SilverStripe\\Core\\Extension -->
<g id="edge28" class="edge">
<title>\\Firesphere\\SolrFluent\\Extensions\\FluentSchemaExtension&#45;&gt;\\SilverStripe\\Core\\Extension</title>
<path fill="none" stroke="#000000" d="M847.7103,-696.403C837.5852,-692.1797 828.311,-686.2034 821.2549,-677.8095 747.6758,-590.2817 856.2618,-251.117 781.2549,-164.8095 748.8582,-127.532 709.4057,-173.9137 672.7549,-140.8095"/>
</g>
<!-- \\Firesphere\\SolrSubsites\\States\\SubsiteState -->
<g id="node54" class="node">
<title>\\Firesphere\\SolrSubsites\\States\\SubsiteState</title>
<polygon fill="none" stroke="#000000" points="975.7549,-1052.8095 877.7549,-1052.8095 877.7549,-1016.8095 975.7549,-1016.8095 975.7549,-1052.8095"/>
<text text-anchor="middle" x="926.7549" y="-1032.0095" font-family="Courier,monospace" font-size="11.00" fill="#000000">SubsiteState</text>
</g>
<!-- \\Firesphere\\SolrSubsites\\States\\SubsiteState&#45;&gt;\\Firesphere\\SolrSearch\\States\\SiteState -->
<g id="edge29" class="edge">
<title>\\Firesphere\\SolrSubsites\\States\\SubsiteState&#45;&gt;\\Firesphere\\SolrSearch\\States\\SiteState</title>
<path fill="none" stroke="#000000" d="M926.4324,-1053.0465C923.1947,-1227.1928 894.2722,-2592.808 781.2549,-2728.8095 767.515,-2745.3437 745.5504,-2753.2077 724.9659,-2756.7998"/>
<polygon fill="none" stroke="#000000" points="724.4097,-2753.3438 715.0137,-2758.2393 725.4118,-2760.2717 724.4097,-2753.3438"/>
</g>
<!-- \\Firesphere\\SolrSubsites\\States\\SubsiteState&#45;&gt;\\Firesphere\\SolrSearch\\Interfaces\\SiteStateInterface -->
<g id="edge30" class="edge">
<title>\\Firesphere\\SolrSubsites\\States\\SubsiteState&#45;&gt;\\Firesphere\\SolrSearch\\Interfaces\\SiteStateInterface</title>
<path fill="none" stroke="#000000" stroke-dasharray="1,5" d="M877.5714,-1033.006C856.9534,-1029.5511 834.6932,-1021.7365 821.2549,-1004.8095 763.9847,-932.6717 845.8564,-242.4632 781.2549,-176.8095 764.3089,-159.5875 692.946,-183.0792 672.7549,-169.8095"/>
</g>
<!-- \\Firesphere\\SolrSubsites\\Extensions\\SubsitesExtension -->
<g id="node55" class="node">
<title>\\Firesphere\\SolrSubsites\\Extensions\\SubsitesExtension</title>
<polygon fill="none" stroke="#000000" points="992.2549,-972.8095 861.2549,-972.8095 861.2549,-936.8095 992.2549,-936.8095 992.2549,-972.8095"/>
<text text-anchor="middle" x="926.7549" y="-952.0095" font-family="Courier,monospace" font-size="11.00" fill="#000000">SubsitesExtension</text>
</g>
<!-- \\Firesphere\\SolrSubsites\\Extensions\\SubsitesExtension&#45;&gt;\\SilverStripe\\Core\\Extension -->
<g id="edge31" class="edge">
<title>\\Firesphere\\SolrSubsites\\Extensions\\SubsitesExtension&#45;&gt;\\SilverStripe\\Core\\Extension</title>
<path fill="none" stroke="#000000" d="M878.3173,-936.6802C857.0531,-926.0971 834.0545,-910.4816 821.2549,-888.8095 739.3126,-750.0662 885.5707,-287.6202 781.2549,-164.8095 749.282,-127.1679 709.4057,-173.9137 672.7549,-140.8095"/>
</g>
<!-- \\Firesphere\\SolrPermissions\\Extensions\\DocumentFactoryExtension -->
<g id="node56" class="node">
<title>\\Firesphere\\SolrPermissions\\Extensions\\DocumentFactoryExtension</title>
<polygon fill="none" stroke="#000000" points="1016.2549,-390.8095 837.2549,-390.8095 837.2549,-354.8095 1016.2549,-354.8095 1016.2549,-390.8095"/>
<text text-anchor="middle" x="926.7549" y="-370.0095" font-family="Courier,monospace" font-size="11.00" fill="#000000">DocumentFactoryExtension</text>
</g>
<!-- \\Firesphere\\SolrPermissions\\Extensions\\DocumentFactoryExtension&#45;&gt;\\SilverStripe\\Core\\Extension -->
<g id="edge32" class="edge">
<title>\\Firesphere\\SolrPermissions\\Extensions\\DocumentFactoryExtension&#45;&gt;\\SilverStripe\\Core\\Extension</title>
<path fill="none" stroke="#000000" d="M881.1304,-354.7434C859.7122,-343.9666 835.7606,-328.167 821.2549,-306.8095 765.9092,-225.3212 849.6364,-159.7142 781.2549,-88.8095 746.9706,-53.2603 716.6848,-87.3777 672.7549,-64.8095"/>
</g>
<!-- \\Firesphere\\SolrPermissions\\Extensions\\DataObjectExtension -->
<g id="node57" class="node">
<title>\\Firesphere\\SolrPermissions\\Extensions\\DataObjectExtension</title>
<polygon fill="none" stroke="#000000" points="999.2549,-552.8095 854.2549,-552.8095 854.2549,-516.8095 999.2549,-516.8095 999.2549,-552.8095"/>
<text text-anchor="middle" x="926.7549" y="-532.0095" font-family="Courier,monospace" font-size="11.00" fill="#000000">DataObjectExtension</text>
</g>
<!-- \\Firesphere\\SolrPermissions\\Extensions\\DataObjectExtension&#45;&gt;\\SilverStripe\\ORM\\DataExtension -->
<g id="edge33" class="edge">
<title>\\Firesphere\\SolrPermissions\\Extensions\\DataObjectExtension&#45;&gt;\\SilverStripe\\ORM\\DataExtension</title>
<path fill="none" stroke="#000000" d="M854.1266,-528.453C841.6284,-524.2161 829.9011,-517.704 821.2549,-507.8095 720.2653,-392.2394 883.2119,-279.5271 781.2549,-164.8095 734.3687,-112.0553 557.436,-89.5139 421.3514,-79.905"/>
<polygon fill="none" stroke="#000000" points="421.4309,-76.4023 411.2143,-79.2077 420.9505,-83.3858 421.4309,-76.4023"/>
</g>
<!-- \\Firesphere\\SolrPermissions\\Extensions\\BaseIndexExtension -->
<g id="node58" class="node">
<title>\\Firesphere\\SolrPermissions\\Extensions\\BaseIndexExtension</title>
<polygon fill="none" stroke="#000000" points="995.7549,-498.8095 857.7549,-498.8095 857.7549,-462.8095 995.7549,-462.8095 995.7549,-498.8095"/>
<text text-anchor="middle" x="926.7549" y="-478.0095" font-family="Courier,monospace" font-size="11.00" fill="#000000">BaseIndexExtension</text>
</g>
<!-- \\Firesphere\\SolrPermissions\\Extensions\\BaseIndexExtension&#45;&gt;\\SilverStripe\\Core\\Extension -->
<g id="edge34" class="edge">
<title>\\Firesphere\\SolrPermissions\\Extensions\\BaseIndexExtension&#45;&gt;\\SilverStripe\\Core\\Extension</title>
<path fill="none" stroke="#000000" d="M857.6055,-475.6232C843.8052,-471.4427 830.6786,-464.6565 821.2549,-453.8095 715.3842,-331.9495 887.0032,-214.7758 781.2549,-92.8095 748.6302,-55.1814 717.0533,-87.567 672.7549,-64.8095"/>
</g>
<!-- \\Firesphere\\SolrPermissions\\Extensions\\SchemaFactoryExtension -->
<g id="node59" class="node">
<title>\\Firesphere\\SolrPermissions\\Extensions\\SchemaFactoryExtension</title>
<polygon fill="none" stroke="#000000" points="1009.2549,-444.8095 844.2549,-444.8095 844.2549,-408.8095 1009.2549,-408.8095 1009.2549,-444.8095"/>
<text text-anchor="middle" x="926.7549" y="-424.0095" font-family="Courier,monospace" font-size="11.00" fill="#000000">SchemaFactoryExtension</text>
</g>
<!-- \\Firesphere\\SolrPermissions\\Extensions\\SchemaFactoryExtension&#45;&gt;\\SilverStripe\\Core\\Extension -->
<g id="edge35" class="edge">
<title>\\Firesphere\\SolrPermissions\\Extensions\\SchemaFactoryExtension&#45;&gt;\\SilverStripe\\Core\\Extension</title>
<path fill="none" stroke="#000000" d="M844.1782,-416.3734C835.5146,-412.3429 827.5797,-406.9618 821.2549,-399.8095 728.9356,-295.4133 875.2766,-191.6752 781.2549,-88.8095 747.9347,-52.3551 716.6848,-87.3777 672.7549,-64.8095"/>
</g>
<!-- \\SilverStripe\\FullTextSearch\\Solr\\Solr -->
<g id="node60" class="node">
<title>\\SilverStripe\\FullTextSearch\\Solr\\Solr</title>
<polygon fill="none" stroke="#000000" points="953.7549,-3286.8095 899.7549,-3286.8095 899.7549,-3250.8095 953.7549,-3250.8095 953.7549,-3286.8095"/>
<text text-anchor="middle" x="926.7549" y="-3266.0095" font-family="Courier,monospace" font-size="11.00" fill="#000000">Solr</text>
</g>
<!-- \\SilverStripe\\FullTextSearch\\Solr\\SolrIndex -->
<g id="node61" class="node">
<title>\\SilverStripe\\FullTextSearch\\Solr\\SolrIndex</title>
<polygon fill="none" stroke="#000000" points="968.7549,-3232.8095 884.7549,-3232.8095 884.7549,-3196.8095 968.7549,-3196.8095 968.7549,-3232.8095"/>
<text text-anchor="start" x="892.7549" y="-3218.0095" font-family="Courier,monospace" font-size="11.00" fill="#000000">«abstract»</text>
<text text-anchor="start" x="896.2549" y="-3206.0095" font-family="Courier,monospace" font-size="11.00" fill="#000000">SolrIndex</text>
</g>
<!-- \\SilverStripe\\FullTextSearch\\Solr\\SolrIndex&#45;&gt;\\Firesphere\\SolrSearch\\Indexes\\BaseIndex -->
<g id="edge3" class="edge">
<title>\\SilverStripe\\FullTextSearch\\Solr\\SolrIndex&#45;&gt;\\Firesphere\\SolrSearch\\Indexes\\BaseIndex</title>
<path fill="none" stroke="#000000" d="M884.6227,-3202.5618C861.9368,-3193.6716 835.7109,-3179.1972 821.2549,-3156.8095 759.8282,-3061.6797 846.0118,-2741.7045 781.2549,-2648.8095 767.9351,-2629.702 745.4221,-2617.7367 724.3448,-2610.3243"/>
<polygon fill="none" stroke="#000000" points="725.3919,-2606.9845 714.7999,-2607.2297 723.233,-2613.6433 725.3919,-2606.9845"/>
</g>
<!-- \\SilverStripe\\FullTextSearch\\Search\\Queries\\SearchQuery -->
<g id="node62" class="node">
<title>\\SilverStripe\\FullTextSearch\\Search\\Queries\\SearchQuery</title>
<polygon fill="none" stroke="#000000" points="972.2549,-3124.8095 881.2549,-3124.8095 881.2549,-3088.8095 972.2549,-3088.8095 972.2549,-3124.8095"/>
<text text-anchor="middle" x="926.7549" y="-3104.0095" font-family="Courier,monospace" font-size="11.00" fill="#000000">SearchQuery</text>
</g>
<!-- \\SilverStripe\\FullTextSearch\\Search\\Queries\\SearchQuery&#45;&gt;\\Firesphere\\SolrSearch\\Queries\\BaseQuery -->
<g id="edge4" class="edge">
<title>\\SilverStripe\\FullTextSearch\\Search\\Queries\\SearchQuery&#45;&gt;\\Firesphere\\SolrSearch\\Queries\\BaseQuery</title>
<path fill="none" stroke="#000000" d="M926.4721,-3088.4377C924.2354,-2964.8294 906.0274,-2254.2759 781.2549,-2086.8095 766.7478,-2067.3385 742.8186,-2055.2195 721.1187,-2047.8002"/>
<polygon fill="none" stroke="#000000" points="721.9371,-2044.3882 711.3472,-2044.7125 719.8279,-2051.0629 721.9371,-2044.3882"/>
</g>
</g>
</svg>
