<?xml version="1.0" encoding="UTF-8" standalone="no"?>
<!DOCTYPE svg PUBLIC "-//W3C//DTD SVG 1.1//EN"
 "http://www.w3.org/Graphics/SVG/1.1/DTD/svg11.dtd">
<!-- Generated by graphviz version 2.40.1 (20161225.0304)
 -->
<!-- Title: G Pages: 1 -->
<svg width="1057pt" height="3721pt"
 viewBox="0.00 0.00 1057.25 3721.26" xmlns="http://www.w3.org/2000/svg" xmlns:xlink="http://www.w3.org/1999/xlink">
<g id="graph0" class="graph" transform="scale(1 1) rotate(0) translate(4 3717.2625)">
<title>G</title>
<polygon fill="#ffffff" stroke="transparent" points="-4,4 -4,-3717.2625 1053.2549,-3717.2625 1053.2549,4 -4,4"/>
<g id="clust1" class="cluster">
<title>cluster_Global</title>
<path fill="none" stroke="#c0c0c0" d="M165.1275,-152.4375C165.1275,-152.4375 1029.2549,-152.4375 1029.2549,-152.4375 1035.2549,-152.4375 1041.2549,-158.4375 1041.2549,-164.4375 1041.2549,-164.4375 1041.2549,-3386.4375 1041.2549,-3386.4375 1041.2549,-3392.4375 1035.2549,-3398.4375 1029.2549,-3398.4375 1029.2549,-3398.4375 165.1275,-3398.4375 165.1275,-3398.4375 159.1275,-3398.4375 153.1275,-3392.4375 153.1275,-3386.4375 153.1275,-3386.4375 153.1275,-164.4375 153.1275,-164.4375 153.1275,-158.4375 159.1275,-152.4375 165.1275,-152.4375"/>
<text text-anchor="middle" x="597.1912" y="-3385.6375" font-family="Times,serif" font-size="11.00" fill="#c0c0c0">Global</text>
</g>
<g id="clust2" class="cluster">
<title>cluster_\SilverStripe</title>
<path fill="none" stroke="#c0c0c0" d="M857.7549,-3056.4375C857.7549,-3056.4375 988.7549,-3056.4375 988.7549,-3056.4375 994.7549,-3056.4375 1000.7549,-3062.4375 1000.7549,-3068.4375 1000.7549,-3068.4375 1000.7549,-3358.4375 1000.7549,-3358.4375 1000.7549,-3364.4375 994.7549,-3370.4375 988.7549,-3370.4375 988.7549,-3370.4375 857.7549,-3370.4375 857.7549,-3370.4375 851.7549,-3370.4375 845.7549,-3364.4375 845.7549,-3358.4375 845.7549,-3358.4375 845.7549,-3068.4375 845.7549,-3068.4375 845.7549,-3062.4375 851.7549,-3056.4375 857.7549,-3056.4375"/>
<text text-anchor="middle" x="923.2549" y="-3357.6375" font-family="Times,serif" font-size="11.00" fill="#c0c0c0">SilverStripe</text>
</g>
<g id="clust3" class="cluster">
<title>cluster_\SilverStripe\FullTextSearch</title>
<path fill="none" stroke="#c0c0c0" d="M865.7549,-3064.4375C865.7549,-3064.4375 980.7549,-3064.4375 980.7549,-3064.4375 986.7549,-3064.4375 992.7549,-3070.4375 992.7549,-3076.4375 992.7549,-3076.4375 992.7549,-3330.4375 992.7549,-3330.4375 992.7549,-3336.4375 986.7549,-3342.4375 980.7549,-3342.4375 980.7549,-3342.4375 865.7549,-3342.4375 865.7549,-3342.4375 859.7549,-3342.4375 853.7549,-3336.4375 853.7549,-3330.4375 853.7549,-3330.4375 853.7549,-3076.4375 853.7549,-3076.4375 853.7549,-3070.4375 859.7549,-3064.4375 865.7549,-3064.4375"/>
<text text-anchor="middle" x="923.2549" y="-3329.6375" font-family="Times,serif" font-size="11.00" fill="#c0c0c0">FullTextSearch</text>
</g>
<g id="clust4" class="cluster">
<title>cluster_\SilverStripe\FullTextSearch\Solr</title>
<path fill="none" stroke="#c0c0c0" d="M885.2549,-3188.4375C885.2549,-3188.4375 961.2549,-3188.4375 961.2549,-3188.4375 967.2549,-3188.4375 973.2549,-3194.4375 973.2549,-3200.4375 973.2549,-3200.4375 973.2549,-3302.4375 973.2549,-3302.4375 973.2549,-3308.4375 967.2549,-3314.4375 961.2549,-3314.4375 961.2549,-3314.4375 885.2549,-3314.4375 885.2549,-3314.4375 879.2549,-3314.4375 873.2549,-3308.4375 873.2549,-3302.4375 873.2549,-3302.4375 873.2549,-3200.4375 873.2549,-3200.4375 873.2549,-3194.4375 879.2549,-3188.4375 885.2549,-3188.4375"/>
<text text-anchor="middle" x="923.2549" y="-3301.6375" font-family="Times,serif" font-size="11.00" fill="#c0c0c0">Solr</text>
</g>
<g id="clust5" class="cluster">
<title>cluster_\SilverStripe\FullTextSearch\Search</title>
<path fill="none" stroke="#c0c0c0" d="M873.7549,-3072.4375C873.7549,-3072.4375 972.7549,-3072.4375 972.7549,-3072.4375 978.7549,-3072.4375 984.7549,-3078.4375 984.7549,-3084.4375 984.7549,-3084.4375 984.7549,-3168.4375 984.7549,-3168.4375 984.7549,-3174.4375 978.7549,-3180.4375 972.7549,-3180.4375 972.7549,-3180.4375 873.7549,-3180.4375 873.7549,-3180.4375 867.7549,-3180.4375 861.7549,-3174.4375 861.7549,-3168.4375 861.7549,-3168.4375 861.7549,-3084.4375 861.7549,-3084.4375 861.7549,-3078.4375 867.7549,-3072.4375 873.7549,-3072.4375"/>
<text text-anchor="middle" x="923.2549" y="-3167.6375" font-family="Times,serif" font-size="11.00" fill="#c0c0c0">Search</text>
</g>
<g id="clust6" class="cluster">
<title>cluster_\SilverStripe\FullTextSearch\Search\Queries</title>
<path fill="none" stroke="#c0c0c0" d="M881.7549,-3080.4375C881.7549,-3080.4375 964.7549,-3080.4375 964.7549,-3080.4375 970.7549,-3080.4375 976.7549,-3086.4375 976.7549,-3092.4375 976.7549,-3092.4375 976.7549,-3140.4375 976.7549,-3140.4375 976.7549,-3146.4375 970.7549,-3152.4375 964.7549,-3152.4375 964.7549,-3152.4375 881.7549,-3152.4375 881.7549,-3152.4375 875.7549,-3152.4375 869.7549,-3146.4375 869.7549,-3140.4375 869.7549,-3140.4375 869.7549,-3092.4375 869.7549,-3092.4375 869.7549,-3086.4375 875.7549,-3080.4375 881.7549,-3080.4375"/>
<text text-anchor="middle" x="923.2549" y="-3139.6375" font-family="Times,serif" font-size="11.00" fill="#c0c0c0">Queries</text>
</g>
<g id="clust7" class="cluster">
<title>cluster_\Firesphere</title>
<path fill="none" stroke="#c0c0c0" d="M173.1275,-160.4375C173.1275,-160.4375 1021.2549,-160.4375 1021.2549,-160.4375 1027.2549,-160.4375 1033.2549,-166.4375 1033.2549,-172.4375 1033.2549,-172.4375 1033.2549,-3036.4375 1033.2549,-3036.4375 1033.2549,-3042.4375 1027.2549,-3048.4375 1021.2549,-3048.4375 1021.2549,-3048.4375 173.1275,-3048.4375 173.1275,-3048.4375 167.1275,-3048.4375 161.1275,-3042.4375 161.1275,-3036.4375 161.1275,-3036.4375 161.1275,-172.4375 161.1275,-172.4375 161.1275,-166.4375 167.1275,-160.4375 173.1275,-160.4375"/>
<text text-anchor="middle" x="597.1912" y="-3035.6375" font-family="Times,serif" font-size="11.00" fill="#c0c0c0">Firesphere</text>
</g>
<g id="clust8" class="cluster">
<title>cluster_\Firesphere\SolrCompatibility</title>
<path fill="none" stroke="#c0c0c0" d="M833.2549,-642.4375C833.2549,-642.4375 1013.2549,-642.4375 1013.2549,-642.4375 1019.2549,-642.4375 1025.2549,-648.4375 1025.2549,-654.4375 1025.2549,-654.4375 1025.2549,-738.4375 1025.2549,-738.4375 1025.2549,-744.4375 1019.2549,-750.4375 1013.2549,-750.4375 1013.2549,-750.4375 833.2549,-750.4375 833.2549,-750.4375 827.2549,-750.4375 821.2549,-744.4375 821.2549,-738.4375 821.2549,-738.4375 821.2549,-654.4375 821.2549,-654.4375 821.2549,-648.4375 827.2549,-642.4375 833.2549,-642.4375"/>
<text text-anchor="middle" x="923.2549" y="-737.6375" font-family="Times,serif" font-size="11.00" fill="#c0c0c0">SolrCompatibility</text>
</g>
<g id="clust9" class="cluster">
<title>cluster_\Firesphere\SolrCompatibility\Extensions</title>
<path fill="none" stroke="#c0c0c0" d="M841.2549,-650.4375C841.2549,-650.4375 1005.2549,-650.4375 1005.2549,-650.4375 1011.2549,-650.4375 1017.2549,-656.4375 1017.2549,-662.4375 1017.2549,-662.4375 1017.2549,-710.4375 1017.2549,-710.4375 1017.2549,-716.4375 1011.2549,-722.4375 1005.2549,-722.4375 1005.2549,-722.4375 841.2549,-722.4375 841.2549,-722.4375 835.2549,-722.4375 829.2549,-716.4375 829.2549,-710.4375 829.2549,-710.4375 829.2549,-662.4375 829.2549,-662.4375 829.2549,-656.4375 835.2549,-650.4375 841.2549,-650.4375"/>
<text text-anchor="middle" x="923.2549" y="-709.6375" font-family="Times,serif" font-size="11.00" fill="#c0c0c0">Extensions</text>
</g>
<g id="clust10" class="cluster">
<title>cluster_\Firesphere\SolrSearch</title>
<path fill="none" stroke="#c0c0c0" d="M181.1275,-172.4375C181.1275,-172.4375 769.2549,-172.4375 769.2549,-172.4375 775.2549,-172.4375 781.2549,-178.4375 781.2549,-184.4375 781.2549,-184.4375 781.2549,-3008.4375 781.2549,-3008.4375 781.2549,-3014.4375 775.2549,-3020.4375 769.2549,-3020.4375 769.2549,-3020.4375 181.1275,-3020.4375 181.1275,-3020.4375 175.1275,-3020.4375 169.1275,-3014.4375 169.1275,-3008.4375 169.1275,-3008.4375 169.1275,-184.4375 169.1275,-184.4375 169.1275,-178.4375 175.1275,-172.4375 181.1275,-172.4375"/>
<text text-anchor="middle" x="475.1912" y="-3007.6375" font-family="Times,serif" font-size="11.00" fill="#c0c0c0">SolrSearch</text>
</g>
<g id="clust11" class="cluster">
<title>cluster_\Firesphere\SolrSearch\Forms</title>
<path fill="none" stroke="#c0c0c0" d="M634.7549,-2920.4375C634.7549,-2920.4375 710.7549,-2920.4375 710.7549,-2920.4375 716.7549,-2920.4375 722.7549,-2926.4375 722.7549,-2932.4375 722.7549,-2932.4375 722.7549,-2980.4375 722.7549,-2980.4375 722.7549,-2986.4375 716.7549,-2992.4375 710.7549,-2992.4375 710.7549,-2992.4375 634.7549,-2992.4375 634.7549,-2992.4375 628.7549,-2992.4375 622.7549,-2986.4375 622.7549,-2980.4375 622.7549,-2980.4375 622.7549,-2932.4375 622.7549,-2932.4375 622.7549,-2926.4375 628.7549,-2920.4375 634.7549,-2920.4375"/>
<text text-anchor="middle" x="672.7549" y="-2979.6375" font-family="Times,serif" font-size="11.00" fill="#c0c0c0">Forms</text>
</g>
<g id="clust12" class="cluster">
<title>cluster_\Firesphere\SolrSearch\Traits</title>
<path fill="none" stroke="#c0c0c0" d="M584.2549,-2030.4375C584.2549,-2030.4375 761.2549,-2030.4375 761.2549,-2030.4375 767.2549,-2030.4375 773.2549,-2036.4375 773.2549,-2042.4375 773.2549,-2042.4375 773.2549,-2900.4375 773.2549,-2900.4375 773.2549,-2906.4375 767.2549,-2912.4375 761.2549,-2912.4375 761.2549,-2912.4375 584.2549,-2912.4375 584.2549,-2912.4375 578.2549,-2912.4375 572.2549,-2906.4375 572.2549,-2900.4375 572.2549,-2900.4375 572.2549,-2042.4375 572.2549,-2042.4375 572.2549,-2036.4375 578.2549,-2030.4375 584.2549,-2030.4375"/>
<text text-anchor="middle" x="672.7549" y="-2899.6375" font-family="Times,serif" font-size="11.00" fill="#c0c0c0">Traits</text>
</g>
<g id="clust13" class="cluster">
<title>cluster_\Firesphere\SolrSearch\States</title>
<path fill="none" stroke="#c0c0c0" d="M634.7549,-1950.4375C634.7549,-1950.4375 710.7549,-1950.4375 710.7549,-1950.4375 716.7549,-1950.4375 722.7549,-1956.4375 722.7549,-1962.4375 722.7549,-1962.4375 722.7549,-2010.4375 722.7549,-2010.4375 722.7549,-2016.4375 716.7549,-2022.4375 710.7549,-2022.4375 710.7549,-2022.4375 634.7549,-2022.4375 634.7549,-2022.4375 628.7549,-2022.4375 622.7549,-2016.4375 622.7549,-2010.4375 622.7549,-2010.4375 622.7549,-1962.4375 622.7549,-1962.4375 622.7549,-1956.4375 628.7549,-1950.4375 634.7549,-1950.4375"/>
<text text-anchor="middle" x="672.7549" y="-2009.6375" font-family="Times,serif" font-size="11.00" fill="#c0c0c0">States</text>
</g>
<g id="clust14" class="cluster">
<title>cluster_\Firesphere\SolrSearch\Factories</title>
<path fill="none" stroke="#c0c0c0" d="M597.7549,-1816.4375C597.7549,-1816.4375 747.7549,-1816.4375 747.7549,-1816.4375 753.7549,-1816.4375 759.7549,-1822.4375 759.7549,-1828.4375 759.7549,-1828.4375 759.7549,-1930.4375 759.7549,-1930.4375 759.7549,-1936.4375 753.7549,-1942.4375 747.7549,-1942.4375 747.7549,-1942.4375 597.7549,-1942.4375 597.7549,-1942.4375 591.7549,-1942.4375 585.7549,-1936.4375 585.7549,-1930.4375 585.7549,-1930.4375 585.7549,-1828.4375 585.7549,-1828.4375 585.7549,-1822.4375 591.7549,-1816.4375 597.7549,-1816.4375"/>
<text text-anchor="middle" x="672.7549" y="-1929.6375" font-family="Times,serif" font-size="11.00" fill="#c0c0c0">Factories</text>
</g>
<g id="clust15" class="cluster">
<title>cluster_\Firesphere\SolrSearch\Models</title>
<path fill="none" stroke="#c0c0c0" d="M624.7549,-1628.4375C624.7549,-1628.4375 720.7549,-1628.4375 720.7549,-1628.4375 726.7549,-1628.4375 732.7549,-1634.4375 732.7549,-1640.4375 732.7549,-1640.4375 732.7549,-1796.4375 732.7549,-1796.4375 732.7549,-1802.4375 726.7549,-1808.4375 720.7549,-1808.4375 720.7549,-1808.4375 624.7549,-1808.4375 624.7549,-1808.4375 618.7549,-1808.4375 612.7549,-1802.4375 612.7549,-1796.4375 612.7549,-1796.4375 612.7549,-1640.4375 612.7549,-1640.4375 612.7549,-1634.4375 618.7549,-1628.4375 624.7549,-1628.4375"/>
<text text-anchor="middle" x="672.7549" y="-1795.6375" font-family="Times,serif" font-size="11.00" fill="#c0c0c0">Models</text>
</g>
<g id="clust16" class="cluster">
<title>cluster_\Firesphere\SolrSearch\Tasks</title>
<path fill="none" stroke="#c0c0c0" d="M597.7549,-1386.4375C597.7549,-1386.4375 747.7549,-1386.4375 747.7549,-1386.4375 753.7549,-1386.4375 759.7549,-1392.4375 759.7549,-1398.4375 759.7549,-1398.4375 759.7549,-1608.4375 759.7549,-1608.4375 759.7549,-1614.4375 753.7549,-1620.4375 747.7549,-1620.4375 747.7549,-1620.4375 597.7549,-1620.4375 597.7549,-1620.4375 591.7549,-1620.4375 585.7549,-1614.4375 585.7549,-1608.4375 585.7549,-1608.4375 585.7549,-1398.4375 585.7549,-1398.4375 585.7549,-1392.4375 591.7549,-1386.4375 597.7549,-1386.4375"/>
<text text-anchor="middle" x="672.7549" y="-1607.6375" font-family="Times,serif" font-size="11.00" fill="#c0c0c0">Tasks</text>
</g>
<g id="clust17" class="cluster">
<title>cluster_\Firesphere\SolrSearch\Indexes</title>
<path fill="none" stroke="#c0c0c0" d="M634.7549,-1306.4375C634.7549,-1306.4375 710.7549,-1306.4375 710.7549,-1306.4375 716.7549,-1306.4375 722.7549,-1312.4375 722.7549,-1318.4375 722.7549,-1318.4375 722.7549,-1366.4375 722.7549,-1366.4375 722.7549,-1372.4375 716.7549,-1378.4375 710.7549,-1378.4375 710.7549,-1378.4375 634.7549,-1378.4375 634.7549,-1378.4375 628.7549,-1378.4375 622.7549,-1372.4375 622.7549,-1366.4375 622.7549,-1366.4375 622.7549,-1318.4375 622.7549,-1318.4375 622.7549,-1312.4375 628.7549,-1306.4375 634.7549,-1306.4375"/>
<text text-anchor="middle" x="672.7549" y="-1365.6375" font-family="Times,serif" font-size="11.00" fill="#c0c0c0">Indexes</text>
</g>
<g id="clust18" class="cluster">
<title>cluster_\Firesphere\SolrSearch\Extensions</title>
<path fill="none" stroke="#c0c0c0" d="M604.2549,-1172.4375C604.2549,-1172.4375 741.2549,-1172.4375 741.2549,-1172.4375 747.2549,-1172.4375 753.2549,-1178.4375 753.2549,-1184.4375 753.2549,-1184.4375 753.2549,-1286.4375 753.2549,-1286.4375 753.2549,-1292.4375 747.2549,-1298.4375 741.2549,-1298.4375 741.2549,-1298.4375 604.2549,-1298.4375 604.2549,-1298.4375 598.2549,-1298.4375 592.2549,-1292.4375 592.2549,-1286.4375 592.2549,-1286.4375 592.2549,-1184.4375 592.2549,-1184.4375 592.2549,-1178.4375 598.2549,-1172.4375 604.2549,-1172.4375"/>
<text text-anchor="middle" x="672.7549" y="-1285.6375" font-family="Times,serif" font-size="11.00" fill="#c0c0c0">Extensions</text>
</g>
<g id="clust19" class="cluster">
<title>cluster_\Firesphere\SolrSearch\Helpers</title>
<path fill="none" stroke="#c0c0c0" d="M624.7549,-876.4375C624.7549,-876.4375 720.7549,-876.4375 720.7549,-876.4375 726.7549,-876.4375 732.7549,-882.4375 732.7549,-888.4375 732.7549,-888.4375 732.7549,-1152.4375 732.7549,-1152.4375 732.7549,-1158.4375 726.7549,-1164.4375 720.7549,-1164.4375 720.7549,-1164.4375 624.7549,-1164.4375 624.7549,-1164.4375 618.7549,-1164.4375 612.7549,-1158.4375 612.7549,-1152.4375 612.7549,-1152.4375 612.7549,-888.4375 612.7549,-888.4375 612.7549,-882.4375 618.7549,-876.4375 624.7549,-876.4375"/>
<text text-anchor="middle" x="672.7549" y="-1151.6375" font-family="Times,serif" font-size="11.00" fill="#c0c0c0">Helpers</text>
</g>
<g id="clust20" class="cluster">
<title>cluster_\Firesphere\SolrSearch\Jobs</title>
<path fill="none" stroke="#c0c0c0" d="M600.7549,-688.4375C600.7549,-688.4375 744.7549,-688.4375 744.7549,-688.4375 750.7549,-688.4375 756.7549,-694.4375 756.7549,-700.4375 756.7549,-700.4375 756.7549,-856.4375 756.7549,-856.4375 756.7549,-862.4375 750.7549,-868.4375 744.7549,-868.4375 744.7549,-868.4375 600.7549,-868.4375 600.7549,-868.4375 594.7549,-868.4375 588.7549,-862.4375 588.7549,-856.4375 588.7549,-856.4375 588.7549,-700.4375 588.7549,-700.4375 588.7549,-694.4375 594.7549,-688.4375 600.7549,-688.4375"/>
<text text-anchor="middle" x="672.7549" y="-855.6375" font-family="Times,serif" font-size="11.00" fill="#c0c0c0">Jobs</text>
</g>
<g id="clust21" class="cluster">
<title>cluster_\Firesphere\SolrSearch\Results</title>
<path fill="none" stroke="#c0c0c0" d="M627.7549,-608.4375C627.7549,-608.4375 717.7549,-608.4375 717.7549,-608.4375 723.7549,-608.4375 729.7549,-614.4375 729.7549,-620.4375 729.7549,-620.4375 729.7549,-668.4375 729.7549,-668.4375 729.7549,-674.4375 723.7549,-680.4375 717.7549,-680.4375 717.7549,-680.4375 627.7549,-680.4375 627.7549,-680.4375 621.7549,-680.4375 615.7549,-674.4375 615.7549,-668.4375 615.7549,-668.4375 615.7549,-620.4375 615.7549,-620.4375 615.7549,-614.4375 621.7549,-608.4375 627.7549,-608.4375"/>
<text text-anchor="middle" x="672.7549" y="-667.6375" font-family="Times,serif" font-size="11.00" fill="#c0c0c0">Results</text>
</g>
<g id="clust22" class="cluster">
<title>cluster_\Firesphere\SolrSearch\Queries</title>
<path fill="none" stroke="#c0c0c0" d="M638.2549,-528.4375C638.2549,-528.4375 707.2549,-528.4375 707.2549,-528.4375 713.2549,-528.4375 719.2549,-534.4375 719.2549,-540.4375 719.2549,-540.4375 719.2549,-588.4375 719.2549,-588.4375 719.2549,-594.4375 713.2549,-600.4375 707.2549,-600.4375 707.2549,-600.4375 638.2549,-600.4375 638.2549,-600.4375 632.2549,-600.4375 626.2549,-594.4375 626.2549,-588.4375 626.2549,-588.4375 626.2549,-540.4375 626.2549,-540.4375 626.2549,-534.4375 632.2549,-528.4375 638.2549,-528.4375"/>
<text text-anchor="middle" x="672.7549" y="-587.6375" font-family="Times,serif" font-size="11.00" fill="#c0c0c0">Queries</text>
</g>
<g id="clust23" class="cluster">
<title>cluster_\Firesphere\SolrSearch\Admins</title>
<path fill="none" stroke="#c0c0c0" d="M631.2549,-448.4375C631.2549,-448.4375 714.2549,-448.4375 714.2549,-448.4375 720.2549,-448.4375 726.2549,-454.4375 726.2549,-460.4375 726.2549,-460.4375 726.2549,-508.4375 726.2549,-508.4375 726.2549,-514.4375 720.2549,-520.4375 714.2549,-520.4375 714.2549,-520.4375 631.2549,-520.4375 631.2549,-520.4375 625.2549,-520.4375 619.2549,-514.4375 619.2549,-508.4375 619.2549,-508.4375 619.2549,-460.4375 619.2549,-460.4375 619.2549,-454.4375 625.2549,-448.4375 631.2549,-448.4375"/>
<text text-anchor="middle" x="672.7549" y="-507.6375" font-family="Times,serif" font-size="11.00" fill="#c0c0c0">Admins</text>
</g>
<g id="clust24" class="cluster">
<title>cluster_\Firesphere\SolrSearch\Stores</title>
<path fill="none" stroke="#c0c0c0" d="M617.7549,-180.4375C617.7549,-180.4375 727.7549,-180.4375 727.7549,-180.4375 733.7549,-180.4375 739.7549,-186.4375 739.7549,-192.4375 739.7549,-192.4375 739.7549,-294.4375 739.7549,-294.4375 739.7549,-300.4375 733.7549,-306.4375 727.7549,-306.4375 727.7549,-306.4375 617.7549,-306.4375 617.7549,-306.4375 611.7549,-306.4375 605.7549,-300.4375 605.7549,-294.4375 605.7549,-294.4375 605.7549,-192.4375 605.7549,-192.4375 605.7549,-186.4375 611.7549,-180.4375 617.7549,-180.4375"/>
<text text-anchor="middle" x="672.7549" y="-293.6375" font-family="Times,serif" font-size="11.00" fill="#c0c0c0">Stores</text>
</g>
<g id="clust25" class="cluster">
<title>cluster_\Firesphere\SolrSearch\Interfaces</title>
<path fill="none" stroke="#c0c0c0" d="M189.1275,-180.4375C189.1275,-180.4375 319.1275,-180.4375 319.1275,-180.4375 325.1275,-180.4375 331.1275,-186.4375 331.1275,-192.4375 331.1275,-192.4375 331.1275,-294.4375 331.1275,-294.4375 331.1275,-300.4375 325.1275,-306.4375 319.1275,-306.4375 319.1275,-306.4375 189.1275,-306.4375 189.1275,-306.4375 183.1275,-306.4375 177.1275,-300.4375 177.1275,-294.4375 177.1275,-294.4375 177.1275,-192.4375 177.1275,-192.4375 177.1275,-186.4375 183.1275,-180.4375 189.1275,-180.4375"/>
<text text-anchor="middle" x="254.1275" y="-293.6375" font-family="Times,serif" font-size="11.00" fill="#c0c0c0">Interfaces</text>
</g>
<g id="clust26" class="cluster">
<title>cluster_\Firesphere\SolrSearch\Services</title>
<path fill="none" stroke="#c0c0c0" d="M617.7549,-314.4375C617.7549,-314.4375 727.7549,-314.4375 727.7549,-314.4375 733.7549,-314.4375 739.7549,-320.4375 739.7549,-326.4375 739.7549,-326.4375 739.7549,-428.4375 739.7549,-428.4375 739.7549,-434.4375 733.7549,-440.4375 727.7549,-440.4375 727.7549,-440.4375 617.7549,-440.4375 617.7549,-440.4375 611.7549,-440.4375 605.7549,-434.4375 605.7549,-428.4375 605.7549,-428.4375 605.7549,-326.4375 605.7549,-326.4375 605.7549,-320.4375 611.7549,-314.4375 617.7549,-314.4375"/>
<text text-anchor="middle" x="672.7549" y="-427.6375" font-family="Times,serif" font-size="11.00" fill="#c0c0c0">Services</text>
</g>
<g id="clust27" class="cluster">
<title>cluster_\Firesphere\SolrFluent</title>
<path fill="none" stroke="#c0c0c0" d="M833.2549,-338.4375C833.2549,-338.4375 1013.2549,-338.4375 1013.2549,-338.4375 1019.2549,-338.4375 1025.2549,-344.4375 1025.2549,-350.4375 1025.2549,-350.4375 1025.2549,-622.4375 1025.2549,-622.4375 1025.2549,-628.4375 1019.2549,-634.4375 1013.2549,-634.4375 1013.2549,-634.4375 833.2549,-634.4375 833.2549,-634.4375 827.2549,-634.4375 821.2549,-628.4375 821.2549,-622.4375 821.2549,-622.4375 821.2549,-350.4375 821.2549,-350.4375 821.2549,-344.4375 827.2549,-338.4375 833.2549,-338.4375"/>
<text text-anchor="middle" x="923.2549" y="-621.6375" font-family="Times,serif" font-size="11.00" fill="#c0c0c0">SolrFluent</text>
</g>
<g id="clust28" class="cluster">
<title>cluster_\Firesphere\SolrFluent\States</title>
<path fill="none" stroke="#c0c0c0" d="M868.2549,-534.4375C868.2549,-534.4375 978.2549,-534.4375 978.2549,-534.4375 984.2549,-534.4375 990.2549,-540.4375 990.2549,-546.4375 990.2549,-546.4375 990.2549,-594.4375 990.2549,-594.4375 990.2549,-600.4375 984.2549,-606.4375 978.2549,-606.4375 978.2549,-606.4375 868.2549,-606.4375 868.2549,-606.4375 862.2549,-606.4375 856.2549,-600.4375 856.2549,-594.4375 856.2549,-594.4375 856.2549,-546.4375 856.2549,-546.4375 856.2549,-540.4375 862.2549,-534.4375 868.2549,-534.4375"/>
<text text-anchor="middle" x="923.2549" y="-593.6375" font-family="Times,serif" font-size="11.00" fill="#c0c0c0">States</text>
</g>
<g id="clust29" class="cluster">
<title>cluster_\Firesphere\SolrFluent\Extensions</title>
<path fill="none" stroke="#c0c0c0" d="M841.2549,-346.4375C841.2549,-346.4375 1005.2549,-346.4375 1005.2549,-346.4375 1011.2549,-346.4375 1017.2549,-352.4375 1017.2549,-358.4375 1017.2549,-358.4375 1017.2549,-514.4375 1017.2549,-514.4375 1017.2549,-520.4375 1011.2549,-526.4375 1005.2549,-526.4375 1005.2549,-526.4375 841.2549,-526.4375 841.2549,-526.4375 835.2549,-526.4375 829.2549,-520.4375 829.2549,-514.4375 829.2549,-514.4375 829.2549,-358.4375 829.2549,-358.4375 829.2549,-352.4375 835.2549,-346.4375 841.2549,-346.4375"/>
<text text-anchor="middle" x="923.2549" y="-513.6375" font-family="Times,serif" font-size="11.00" fill="#c0c0c0">Extensions</text>
</g>
<g id="clust30" class="cluster">
<title>cluster_\Firesphere\SolrSubsites</title>
<path fill="none" stroke="#c0c0c0" d="M853.7549,-758.4375C853.7549,-758.4375 992.7549,-758.4375 992.7549,-758.4375 998.7549,-758.4375 1004.7549,-764.4375 1004.7549,-770.4375 1004.7549,-770.4375 1004.7549,-934.4375 1004.7549,-934.4375 1004.7549,-940.4375 998.7549,-946.4375 992.7549,-946.4375 992.7549,-946.4375 853.7549,-946.4375 853.7549,-946.4375 847.7549,-946.4375 841.7549,-940.4375 841.7549,-934.4375 841.7549,-934.4375 841.7549,-770.4375 841.7549,-770.4375 841.7549,-764.4375 847.7549,-758.4375 853.7549,-758.4375"/>
<text text-anchor="middle" x="923.2549" y="-933.6375" font-family="Times,serif" font-size="11.00" fill="#c0c0c0">SolrSubsites</text>
</g>
<g id="clust31" class="cluster">
<title>cluster_\Firesphere\SolrSubsites\States</title>
<path fill="none" stroke="#c0c0c0" d="M878.2549,-846.4375C878.2549,-846.4375 968.2549,-846.4375 968.2549,-846.4375 974.2549,-846.4375 980.2549,-852.4375 980.2549,-858.4375 980.2549,-858.4375 980.2549,-906.4375 980.2549,-906.4375 980.2549,-912.4375 974.2549,-918.4375 968.2549,-918.4375 968.2549,-918.4375 878.2549,-918.4375 878.2549,-918.4375 872.2549,-918.4375 866.2549,-912.4375 866.2549,-906.4375 866.2549,-906.4375 866.2549,-858.4375 866.2549,-858.4375 866.2549,-852.4375 872.2549,-846.4375 878.2549,-846.4375"/>
<text text-anchor="middle" x="923.2549" y="-905.6375" font-family="Times,serif" font-size="11.00" fill="#c0c0c0">States</text>
</g>
<g id="clust32" class="cluster">
<title>cluster_\Firesphere\SolrSubsites\Extensions</title>
<path fill="none" stroke="#c0c0c0" d="M861.7549,-766.4375C861.7549,-766.4375 984.7549,-766.4375 984.7549,-766.4375 990.7549,-766.4375 996.7549,-772.4375 996.7549,-778.4375 996.7549,-778.4375 996.7549,-826.4375 996.7549,-826.4375 996.7549,-832.4375 990.7549,-838.4375 984.7549,-838.4375 984.7549,-838.4375 861.7549,-838.4375 861.7549,-838.4375 855.7549,-838.4375 849.7549,-832.4375 849.7549,-826.4375 849.7549,-826.4375 849.7549,-778.4375 849.7549,-778.4375 849.7549,-772.4375 855.7549,-766.4375 861.7549,-766.4375"/>
<text text-anchor="middle" x="923.2549" y="-825.6375" font-family="Times,serif" font-size="11.00" fill="#c0c0c0">Extensions</text>
</g>
<g id="clust33" class="cluster">
<title>cluster_\Firesphere\SolrPermissions</title>
<path fill="none" stroke="#c0c0c0" d="M846.7549,-168.4375C846.7549,-168.4375 999.7549,-168.4375 999.7549,-168.4375 1005.7549,-168.4375 1011.7549,-174.4375 1011.7549,-180.4375 1011.7549,-180.4375 1011.7549,-318.4375 1011.7549,-318.4375 1011.7549,-324.4375 1005.7549,-330.4375 999.7549,-330.4375 999.7549,-330.4375 846.7549,-330.4375 846.7549,-330.4375 840.7549,-330.4375 834.7549,-324.4375 834.7549,-318.4375 834.7549,-318.4375 834.7549,-180.4375 834.7549,-180.4375 834.7549,-174.4375 840.7549,-168.4375 846.7549,-168.4375"/>
<text text-anchor="middle" x="923.2549" y="-317.6375" font-family="Times,serif" font-size="11.00" fill="#c0c0c0">SolrPermissions</text>
</g>
<g id="clust34" class="cluster">
<title>cluster_\Firesphere\SolrPermissions\Extensions</title>
<path fill="none" stroke="#c0c0c0" d="M854.7549,-176.4375C854.7549,-176.4375 991.7549,-176.4375 991.7549,-176.4375 997.7549,-176.4375 1003.7549,-182.4375 1003.7549,-188.4375 1003.7549,-188.4375 1003.7549,-290.4375 1003.7549,-290.4375 1003.7549,-296.4375 997.7549,-302.4375 991.7549,-302.4375 991.7549,-302.4375 854.7549,-302.4375 854.7549,-302.4375 848.7549,-302.4375 842.7549,-296.4375 842.7549,-290.4375 842.7549,-290.4375 842.7549,-188.4375 842.7549,-188.4375 842.7549,-182.4375 848.7549,-176.4375 854.7549,-176.4375"/>
<text text-anchor="middle" x="923.2549" y="-289.6375" font-family="Times,serif" font-size="11.00" fill="#c0c0c0">Extensions</text>
</g>
<!-- \\SilverStripe\\FullTextSearch\\Solr\\Solr -->
<g id="node1" class="node">
<title>\\SilverStripe\\FullTextSearch\\Solr\\Solr</title>
<polygon fill="none" stroke="#000000" points="950.2549,-3286.4375 896.2549,-3286.4375 896.2549,-3250.4375 950.2549,-3250.4375 950.2549,-3286.4375"/>
<text text-anchor="middle" x="923.2549" y="-3265.6375" font-family="Courier,monospace" font-size="11.00" fill="#000000">Solr</text>
</g>
<!-- \\SilverStripe\\FullTextSearch\\Solr\\SolrIndex -->
<g id="node2" class="node">
<title>\\SilverStripe\\FullTextSearch\\Solr\\SolrIndex</title>
<polygon fill="none" stroke="#000000" points="965.2549,-3232.4375 881.2549,-3232.4375 881.2549,-3196.4375 965.2549,-3196.4375 965.2549,-3232.4375"/>
<text text-anchor="start" x="889.2549" y="-3217.6375" font-family="Courier,monospace" font-size="11.00" fill="#000000">«abstract»</text>
<text text-anchor="start" x="892.7549" y="-3205.6375" font-family="Courier,monospace" font-size="11.00" fill="#000000">SolrIndex</text>
</g>
<!-- \\Firesphere\\SolrSearch\\Indexes\\BaseIndex -->
<g id="node32" class="node">
<title>\\Firesphere\\SolrSearch\\Indexes\\BaseIndex</title>
<polygon fill="none" stroke="#000000" points="714.7549,-1350.4375 630.7549,-1350.4375 630.7549,-1314.4375 714.7549,-1314.4375 714.7549,-1350.4375"/>
<text text-anchor="start" x="638.7549" y="-1335.6375" font-family="Courier,monospace" font-size="11.00" fill="#000000">«abstract»</text>
<text text-anchor="start" x="642.2549" y="-1323.6375" font-family="Courier,monospace" font-size="11.00" fill="#000000">BaseIndex</text>
</g>
<!-- \\SilverStripe\\FullTextSearch\\Solr\\SolrIndex&#45;&gt;\\Firesphere\\SolrSearch\\Indexes\\BaseIndex -->
<g id="edge2" class="edge">
<title>\\SilverStripe\\FullTextSearch\\Solr\\SolrIndex&#45;&gt;\\Firesphere\\SolrSearch\\Indexes\\BaseIndex</title>
<path fill="none" stroke="#000000" d="M881.2374,-3201.8081C859.3257,-3192.8719 834.4108,-3178.4771 821.2549,-3156.4375 720.1995,-2987.1438 889.429,-1547.2735 781.2549,-1382.4375 768.4262,-1362.8891 745.8554,-1350.8615 724.6106,-1343.5218"/>
<polygon fill="none" stroke="#000000" points="725.5726,-1340.1551 714.9825,-1340.4691 723.457,-1346.8278 725.5726,-1340.1551"/>
</g>
<!-- \\SilverStripe\\FullTextSearch\\Search\\Queries\\SearchQuery -->
<g id="node3" class="node">
<title>\\SilverStripe\\FullTextSearch\\Search\\Queries\\SearchQuery</title>
<polygon fill="none" stroke="#000000" points="968.7549,-3124.4375 877.7549,-3124.4375 877.7549,-3088.4375 968.7549,-3088.4375 968.7549,-3124.4375"/>
<text text-anchor="middle" x="923.2549" y="-3103.6375" font-family="Courier,monospace" font-size="11.00" fill="#000000">SearchQuery</text>
</g>
<!-- \\Firesphere\\SolrSearch\\Queries\\BaseQuery -->
<g id="node44" class="node">
<title>\\Firesphere\\SolrSearch\\Queries\\BaseQuery</title>
<polygon fill="none" stroke="#000000" points="711.2549,-572.4375 634.2549,-572.4375 634.2549,-536.4375 711.2549,-536.4375 711.2549,-572.4375"/>
<text text-anchor="middle" x="672.7549" y="-551.6375" font-family="Courier,monospace" font-size="11.00" fill="#000000">BaseQuery</text>
</g>
<!-- \\SilverStripe\\FullTextSearch\\Search\\Queries\\SearchQuery&#45;&gt;\\Firesphere\\SolrSearch\\Queries\\BaseQuery -->
<g id="edge3" class="edge">
<title>\\SilverStripe\\FullTextSearch\\Search\\Queries\\SearchQuery&#45;&gt;\\Firesphere\\SolrSearch\\Queries\\BaseQuery</title>
<path fill="none" stroke="#000000" d="M922.4813,-3088.1593C912.9765,-2864.3271 818.4465,-659.0538 781.2549,-604.4375 767.4249,-584.128 743.1593,-571.9079 721.0784,-564.6396"/>
<polygon fill="none" stroke="#000000" points="722.0452,-561.2755 711.4601,-561.728 720.0171,-567.9753 722.0452,-561.2755"/>
</g>
<!-- \\Firesphere\\SolrCompatibility\\Extensions\\FulltextSearchExtension -->
<g id="node4" class="node">
<title>\\Firesphere\\SolrCompatibility\\Extensions\\FulltextSearchExtension</title>
<polygon fill="none" stroke="#000000" points="1009.2549,-694.4375 837.2549,-694.4375 837.2549,-658.4375 1009.2549,-658.4375 1009.2549,-694.4375"/>
<text text-anchor="middle" x="923.2549" y="-673.6375" font-family="Courier,monospace" font-size="11.00" fill="#000000">FulltextSearchExtension</text>
</g>
<!-- \\SilverStripe\\Core\\Extension -->
<g id="node60" class="node">
<title>\\SilverStripe\\Core\\Extension</title>
<ellipse fill="none" stroke="#000000" cx="254.1275" cy="-18.4375" rx="144.0747" ry="18"/>
<text text-anchor="middle" x="254.1275" y="-14.7375" font-family="Times,serif" font-size="14.00" fill="#c0c0c0">\SilverStripe\Core\Extension</text>
</g>
<!-- \\Firesphere\\SolrCompatibility\\Extensions\\FulltextSearchExtension&#45;&gt;\\SilverStripe\\Core\\Extension -->
<g id="edge1" class="edge">
<title>\\Firesphere\\SolrCompatibility\\Extensions\\FulltextSearchExtension&#45;&gt;\\SilverStripe\\Core\\Extension</title>
<path fill="none" stroke="#000000" d="M878.0271,-658.4263C857.1754,-647.6996 834.2234,-631.9273 821.2549,-610.4375 718.4263,-440.0427 888.7432,-331.9319 781.2549,-164.4375 751.2581,-117.6948 718.6395,-133.7312 672.7549,-102.4375"/>
</g>
<!-- \\Firesphere\\SolrSearch\\Forms\\SearchForm -->
<g id="node5" class="node">
<title>\\Firesphere\\SolrSearch\\Forms\\SearchForm</title>
<polygon fill="none" stroke="#000000" points="714.7549,-2964.4375 630.7549,-2964.4375 630.7549,-2928.4375 714.7549,-2928.4375 714.7549,-2964.4375"/>
<text text-anchor="middle" x="672.7549" y="-2943.6375" font-family="Courier,monospace" font-size="11.00" fill="#000000">SearchForm</text>
</g>
<!-- \\SilverStripe\\Forms\\Form -->
<g id="node61" class="node">
<title>\\SilverStripe\\Forms\\Form</title>
<ellipse fill="none" stroke="#000000" cx="254.1275" cy="-126.4375" rx="129.1772" ry="18"/>
<text text-anchor="middle" x="254.1275" y="-122.7375" font-family="Times,serif" font-size="14.00" fill="#c0c0c0">\SilverStripe\Forms\Form</text>
</g>
<!-- \\Firesphere\\SolrSearch\\Forms\\SearchForm&#45;&gt;\\SilverStripe\\Forms\\Form -->
<g id="edge4" class="edge">
<title>\\Firesphere\\SolrSearch\\Forms\\SearchForm&#45;&gt;\\SilverStripe\\Forms\\Form</title>
<path fill="none" stroke="#000000" d="M630.5667,-2944.9741C609.5766,-2941.8605 585.8453,-2934.2396 572.2549,-2916.4375 479.8609,-2795.4103 606.3389,-292.9012 508.2549,-176.4375 477.8965,-140.3903 429.7998,-125.4786 383.5781,-120.4382"/>
<polygon fill="none" stroke="#000000" points="383.7256,-116.9367 373.4415,-119.4836 383.0693,-123.9058 383.7256,-116.9367"/>
</g>
<!-- \\Firesphere\\SolrSearch\\Traits\\SearchResultGetTrait -->
<g id="node6" class="node">
<title>\\Firesphere\\SolrSearch\\Traits\\SearchResultGetTrait</title>
<polygon fill="none" stroke="#000000" points="748.7549,-2884.4375 596.7549,-2884.4375 596.7549,-2848.4375 748.7549,-2848.4375 748.7549,-2884.4375"/>
<text text-anchor="middle" x="672.7549" y="-2863.6375" font-family="Courier,monospace" font-size="11.00" fill="#000000">SearchResultGetTrait</text>
</g>
<!-- \\Firesphere\\SolrSearch\\Traits\\SearchResultSetTrait -->
<g id="node7" class="node">
<title>\\Firesphere\\SolrSearch\\Traits\\SearchResultSetTrait</title>
<polygon fill="none" stroke="#000000" points="748.7549,-2830.4375 596.7549,-2830.4375 596.7549,-2794.4375 748.7549,-2794.4375 748.7549,-2830.4375"/>
<text text-anchor="middle" x="672.7549" y="-2809.6375" font-family="Courier,monospace" font-size="11.00" fill="#000000">SearchResultSetTrait</text>
</g>
<!-- \\Firesphere\\SolrSearch\\Traits\\SolrIndexTrait -->
<g id="node8" class="node">
<title>\\Firesphere\\SolrSearch\\Traits\\SolrIndexTrait</title>
<polygon fill="none" stroke="#000000" points="728.2549,-2776.4375 617.2549,-2776.4375 617.2549,-2740.4375 728.2549,-2740.4375 728.2549,-2776.4375"/>
<text text-anchor="middle" x="672.7549" y="-2755.6375" font-family="Courier,monospace" font-size="11.00" fill="#000000">SolrIndexTrait</text>
</g>
<!-- \\Firesphere\\SolrSearch\\Traits\\BaseIndexTrait -->
<g id="node9" class="node">
<title>\\Firesphere\\SolrSearch\\Traits\\BaseIndexTrait</title>
<polygon fill="none" stroke="#000000" points="728.2549,-2722.4375 617.2549,-2722.4375 617.2549,-2686.4375 728.2549,-2686.4375 728.2549,-2722.4375"/>
<text text-anchor="middle" x="672.7549" y="-2701.6375" font-family="Courier,monospace" font-size="11.00" fill="#000000">BaseIndexTrait</text>
</g>
<!-- \\Firesphere\\SolrSearch\\Traits\\QueryComponentFilterTrait -->
<g id="node10" class="node">
<title>\\Firesphere\\SolrSearch\\Traits\\QueryComponentFilterTrait</title>
<polygon fill="none" stroke="#000000" points="765.2549,-2668.4375 580.2549,-2668.4375 580.2549,-2632.4375 765.2549,-2632.4375 765.2549,-2668.4375"/>
<text text-anchor="middle" x="672.7549" y="-2647.6375" font-family="Courier,monospace" font-size="11.00" fill="#000000">QueryComponentFilterTrait</text>
</g>
<!-- \\Firesphere\\SolrSearch\\Traits\\QueryComponentBoostTrait -->
<g id="node11" class="node">
<title>\\Firesphere\\SolrSearch\\Traits\\QueryComponentBoostTrait</title>
<polygon fill="none" stroke="#000000" points="762.2549,-2614.4375 583.2549,-2614.4375 583.2549,-2578.4375 762.2549,-2578.4375 762.2549,-2614.4375"/>
<text text-anchor="middle" x="672.7549" y="-2593.6375" font-family="Courier,monospace" font-size="11.00" fill="#000000">QueryComponentBoostTrait</text>
</g>
<!-- \\Firesphere\\SolrSearch\\Traits\\QueryComponentFacetTrait -->
<g id="node12" class="node">
<title>\\Firesphere\\SolrSearch\\Traits\\QueryComponentFacetTrait</title>
<polygon fill="none" stroke="#000000" points="762.2549,-2560.4375 583.2549,-2560.4375 583.2549,-2524.4375 762.2549,-2524.4375 762.2549,-2560.4375"/>
<text text-anchor="middle" x="672.7549" y="-2539.6375" font-family="Courier,monospace" font-size="11.00" fill="#000000">QueryComponentFacetTrait</text>
</g>
<!-- \\Firesphere\\SolrSearch\\Traits\\GetSetSearchResolverTrait -->
<g id="node13" class="node">
<title>\\Firesphere\\SolrSearch\\Traits\\GetSetSearchResolverTrait</title>
<polygon fill="none" stroke="#000000" points="765.2549,-2506.4375 580.2549,-2506.4375 580.2549,-2470.4375 765.2549,-2470.4375 765.2549,-2506.4375"/>
<text text-anchor="middle" x="672.7549" y="-2485.6375" font-family="Courier,monospace" font-size="11.00" fill="#000000">GetSetSearchResolverTrait</text>
</g>
<!-- \\Firesphere\\SolrSearch\\Traits\\BaseQueryTrait -->
<g id="node14" class="node">
<title>\\Firesphere\\SolrSearch\\Traits\\BaseQueryTrait</title>
<polygon fill="none" stroke="#000000" points="728.2549,-2452.4375 617.2549,-2452.4375 617.2549,-2416.4375 728.2549,-2416.4375 728.2549,-2452.4375"/>
<text text-anchor="middle" x="672.7549" y="-2431.6375" font-family="Courier,monospace" font-size="11.00" fill="#000000">BaseQueryTrait</text>
</g>
<!-- \\Firesphere\\SolrSearch\\Traits\\GetSetSchemaServiceTrait -->
<g id="node15" class="node">
<title>\\Firesphere\\SolrSearch\\Traits\\GetSetSchemaServiceTrait</title>
<polygon fill="none" stroke="#000000" points="762.2549,-2398.4375 583.2549,-2398.4375 583.2549,-2362.4375 762.2549,-2362.4375 762.2549,-2398.4375"/>
<text text-anchor="middle" x="672.7549" y="-2377.6375" font-family="Courier,monospace" font-size="11.00" fill="#000000">GetSetSchemaServiceTrait</text>
</g>
<!-- \\Firesphere\\SolrSearch\\Traits\\DataResolveTrait -->
<g id="node16" class="node">
<title>\\Firesphere\\SolrSearch\\Traits\\DataResolveTrait</title>
<polygon fill="none" stroke="#000000" points="735.2549,-2344.4375 610.2549,-2344.4375 610.2549,-2308.4375 735.2549,-2308.4375 735.2549,-2344.4375"/>
<text text-anchor="middle" x="672.7549" y="-2323.6375" font-family="Courier,monospace" font-size="11.00" fill="#000000">DataResolveTrait</text>
</g>
<!-- \\Firesphere\\SolrSearch\\Traits\\DocumentFactoryTrait -->
<g id="node17" class="node">
<title>\\Firesphere\\SolrSearch\\Traits\\DocumentFactoryTrait</title>
<polygon fill="none" stroke="#000000" points="748.7549,-2290.4375 596.7549,-2290.4375 596.7549,-2254.4375 748.7549,-2254.4375 748.7549,-2290.4375"/>
<text text-anchor="middle" x="672.7549" y="-2269.6375" font-family="Courier,monospace" font-size="11.00" fill="#000000">DocumentFactoryTrait</text>
</g>
<!-- \\Firesphere\\SolrSearch\\Traits\\LoggerTrait -->
<g id="node18" class="node">
<title>\\Firesphere\\SolrSearch\\Traits\\LoggerTrait</title>
<polygon fill="none" stroke="#000000" points="718.2549,-2236.4375 627.2549,-2236.4375 627.2549,-2200.4375 718.2549,-2200.4375 718.2549,-2236.4375"/>
<text text-anchor="middle" x="672.7549" y="-2215.6375" font-family="Courier,monospace" font-size="11.00" fill="#000000">LoggerTrait</text>
</g>
<!-- \\Firesphere\\SolrSearch\\Traits\\GetterSetterTrait -->
<g id="node19" class="node">
<title>\\Firesphere\\SolrSearch\\Traits\\GetterSetterTrait</title>
<polygon fill="none" stroke="#000000" points="738.2549,-2182.4375 607.2549,-2182.4375 607.2549,-2146.4375 738.2549,-2146.4375 738.2549,-2182.4375"/>
<text text-anchor="middle" x="672.7549" y="-2161.6375" font-family="Courier,monospace" font-size="11.00" fill="#000000">GetterSetterTrait</text>
</g>
<!-- \\Firesphere\\SolrSearch\\Traits\\CoreAdminTrait -->
<g id="node20" class="node">
<title>\\Firesphere\\SolrSearch\\Traits\\CoreAdminTrait</title>
<polygon fill="none" stroke="#000000" points="728.2549,-2128.4375 617.2549,-2128.4375 617.2549,-2092.4375 728.2549,-2092.4375 728.2549,-2128.4375"/>
<text text-anchor="middle" x="672.7549" y="-2107.6375" font-family="Courier,monospace" font-size="11.00" fill="#000000">CoreAdminTrait</text>
</g>
<!-- \\Firesphere\\SolrSearch\\Traits\\CoreServiceTrait -->
<g id="node21" class="node">
<title>\\Firesphere\\SolrSearch\\Traits\\CoreServiceTrait</title>
<polygon fill="none" stroke="#000000" points="735.2549,-2074.4375 610.2549,-2074.4375 610.2549,-2038.4375 735.2549,-2038.4375 735.2549,-2074.4375"/>
<text text-anchor="middle" x="672.7549" y="-2053.6375" font-family="Courier,monospace" font-size="11.00" fill="#000000">CoreServiceTrait</text>
</g>
<!-- \\Firesphere\\SolrSearch\\States\\SiteState -->
<g id="node22" class="node">
<title>\\Firesphere\\SolrSearch\\States\\SiteState</title>
<polygon fill="none" stroke="#000000" points="714.7549,-1994.4375 630.7549,-1994.4375 630.7549,-1958.4375 714.7549,-1958.4375 714.7549,-1994.4375"/>
<text text-anchor="start" x="638.7549" y="-1979.6375" font-family="Courier,monospace" font-size="11.00" fill="#000000">«abstract»</text>
<text text-anchor="start" x="642.2549" y="-1967.6375" font-family="Courier,monospace" font-size="11.00" fill="#000000">SiteState</text>
</g>
<!-- \\Firesphere\\SolrSearch\\Factories\\DocumentFactory -->
<g id="node23" class="node">
<title>\\Firesphere\\SolrSearch\\Factories\\DocumentFactory</title>
<polygon fill="none" stroke="#000000" points="731.7549,-1914.4375 613.7549,-1914.4375 613.7549,-1878.4375 731.7549,-1878.4375 731.7549,-1914.4375"/>
<text text-anchor="middle" x="672.7549" y="-1893.6375" font-family="Courier,monospace" font-size="11.00" fill="#000000">DocumentFactory</text>
</g>
<!-- \\Firesphere\\SolrSearch\\Factories\\QueryComponentFactory -->
<g id="node24" class="node">
<title>\\Firesphere\\SolrSearch\\Factories\\QueryComponentFactory</title>
<polygon fill="none" stroke="#000000" points="751.7549,-1860.4375 593.7549,-1860.4375 593.7549,-1824.4375 751.7549,-1824.4375 751.7549,-1860.4375"/>
<text text-anchor="middle" x="672.7549" y="-1839.6375" font-family="Courier,monospace" font-size="11.00" fill="#000000">QueryComponentFactory</text>
</g>
<!-- \\Firesphere\\SolrSearch\\Models\\SolrLog -->
<g id="node25" class="node">
<title>\\Firesphere\\SolrSearch\\Models\\SolrLog</title>
<polygon fill="none" stroke="#000000" points="704.7549,-1672.4375 640.7549,-1672.4375 640.7549,-1636.4375 704.7549,-1636.4375 704.7549,-1672.4375"/>
<text text-anchor="middle" x="672.7549" y="-1651.6375" font-family="Courier,monospace" font-size="11.00" fill="#000000">SolrLog</text>
</g>
<!-- \\SilverStripe\\ORM\\DataObject -->
<g id="node62" class="node">
<title>\\SilverStripe\\ORM\\DataObject</title>
<ellipse fill="none" stroke="#000000" cx="254.1275" cy="-3694.4375" rx="152.9733" ry="18"/>
<text text-anchor="middle" x="254.1275" y="-3690.7375" font-family="Times,serif" font-size="14.00" fill="#c0c0c0">\SilverStripe\ORM\DataObject</text>
</g>
<!-- \\Firesphere\\SolrSearch\\Models\\SolrLog&#45;&gt;\\SilverStripe\\ORM\\DataObject -->
<g id="edge5" class="edge">
<title>\\Firesphere\\SolrSearch\\Models\\SolrLog&#45;&gt;\\SilverStripe\\ORM\\DataObject</title>
<path fill="none" stroke="#000000" d="M640.6784,-1653.7413C617.7818,-1655.1395 588.3038,-1661.1917 572.2549,-1681.4375 435.1052,-1854.4528 658.5186,-3505.681 508.2549,-3667.4375 466.665,-3712.2085 396.2683,-3716.6203 340.0999,-3711.141"/>
<polygon fill="none" stroke="#000000" points="340.4667,-3707.6604 330.1458,-3710.0537 339.7066,-3714.619 340.4667,-3707.6604"/>
</g>
<!-- \\SilverStripe\\Security\\PermissionProvider -->
<g id="node63" class="node">
<title>\\SilverStripe\\Security\\PermissionProvider</title>
<ellipse fill="none" stroke="#000000" cx="254.1275" cy="-3640.4375" rx="206.0634" ry="18"/>
<text text-anchor="middle" x="254.1275" y="-3636.7375" font-family="Times,serif" font-size="14.00" fill="#c0c0c0">\SilverStripe\Security\PermissionProvider</text>
</g>
<!-- \\Firesphere\\SolrSearch\\Models\\SolrLog&#45;&gt;\\SilverStripe\\Security\\PermissionProvider -->
<g id="edge6" class="edge">
<title>\\Firesphere\\SolrSearch\\Models\\SolrLog&#45;&gt;\\SilverStripe\\Security\\PermissionProvider</title>
<path fill="none" stroke="#000000" stroke-dasharray="1,5" d="M640.6837,-1653.7455C617.7898,-1655.1459 588.3129,-1661.1989 572.2549,-1681.4375 438.7547,-1849.6934 654.5079,-3456.1403 508.2549,-3613.4375 468.5796,-3656.1088 402.734,-3662.1053 348.0095,-3657.8254"/>
<polygon fill="none" stroke="#000000" points="348.2042,-3654.3288 337.9294,-3656.9132 347.5732,-3661.3004 348.2042,-3654.3288"/>
</g>
<!-- \\Firesphere\\SolrSearch\\Models\\SearchSynonym -->
<g id="node26" class="node">
<title>\\Firesphere\\SolrSearch\\Models\\SearchSynonym</title>
<polygon fill="none" stroke="#000000" points="724.7549,-1726.4375 620.7549,-1726.4375 620.7549,-1690.4375 724.7549,-1690.4375 724.7549,-1726.4375"/>
<text text-anchor="middle" x="672.7549" y="-1705.6375" font-family="Courier,monospace" font-size="11.00" fill="#000000">SearchSynonym</text>
</g>
<!-- \\Firesphere\\SolrSearch\\Models\\SearchSynonym&#45;&gt;\\SilverStripe\\ORM\\DataObject -->
<g id="edge7" class="edge">
<title>\\Firesphere\\SolrSearch\\Models\\SearchSynonym&#45;&gt;\\SilverStripe\\ORM\\DataObject</title>
<path fill="none" stroke="#000000" d="M620.6269,-1710.1719C602.5292,-1713.5722 583.8773,-1720.7893 572.2549,-1735.4375 438.7547,-1903.6934 654.5079,-3510.1403 508.2549,-3667.4375 466.7161,-3712.1131 396.4907,-3716.5878 340.3756,-3711.1571"/>
<polygon fill="none" stroke="#000000" points="340.7489,-3707.6771 330.4298,-3710.0783 339.9941,-3714.6363 340.7489,-3707.6771"/>
</g>
<!-- \\Firesphere\\SolrSearch\\Models\\DirtyClass -->
<g id="node27" class="node">
<title>\\Firesphere\\SolrSearch\\Models\\DirtyClass</title>
<polygon fill="none" stroke="#000000" points="714.7549,-1780.4375 630.7549,-1780.4375 630.7549,-1744.4375 714.7549,-1744.4375 714.7549,-1780.4375"/>
<text text-anchor="middle" x="672.7549" y="-1759.6375" font-family="Courier,monospace" font-size="11.00" fill="#000000">DirtyClass</text>
</g>
<!-- \\Firesphere\\SolrSearch\\Models\\DirtyClass&#45;&gt;\\SilverStripe\\ORM\\DataObject -->
<g id="edge8" class="edge">
<title>\\Firesphere\\SolrSearch\\Models\\DirtyClass&#45;&gt;\\SilverStripe\\ORM\\DataObject</title>
<path fill="none" stroke="#000000" d="M630.5806,-1772.4009C609.3199,-1779.7506 585.3321,-1792.1166 572.2549,-1812.4375 460.6497,-1985.8637 648.7892,-3516.4989 508.2549,-3667.4375 466.6854,-3712.0846 396.4623,-3716.5613 340.3559,-3711.1387"/>
<polygon fill="none" stroke="#000000" points="340.7305,-3707.6589 330.4117,-3710.0615 339.9766,-3714.6182 340.7305,-3707.6589"/>
</g>
<!-- \\Firesphere\\SolrSearch\\Tasks\\ClearErrorsTask -->
<g id="node28" class="node">
<title>\\Firesphere\\SolrSearch\\Tasks\\ClearErrorsTask</title>
<polygon fill="none" stroke="#000000" points="731.7549,-1592.4375 613.7549,-1592.4375 613.7549,-1556.4375 731.7549,-1556.4375 731.7549,-1592.4375"/>
<text text-anchor="middle" x="672.7549" y="-1571.6375" font-family="Courier,monospace" font-size="11.00" fill="#000000">ClearErrorsTask</text>
</g>
<!-- \\SilverStripe\\Dev\\BuildTask -->
<g id="node64" class="node">
<title>\\SilverStripe\\Dev\\BuildTask</title>
<ellipse fill="none" stroke="#000000" cx="254.1275" cy="-3586.4375" rx="139.9756" ry="18"/>
<text text-anchor="middle" x="254.1275" y="-3582.7375" font-family="Times,serif" font-size="14.00" fill="#c0c0c0">\SilverStripe\Dev\BuildTask</text>
</g>
<!-- \\Firesphere\\SolrSearch\\Tasks\\ClearErrorsTask&#45;&gt;\\SilverStripe\\Dev\\BuildTask -->
<g id="edge9" class="edge">
<title>\\Firesphere\\SolrSearch\\Tasks\\ClearErrorsTask&#45;&gt;\\SilverStripe\\Dev\\BuildTask</title>
<path fill="none" stroke="#000000" d="M613.5338,-1591.2581C597.4814,-1598.7704 581.8939,-1609.4358 572.2549,-1624.4375 455.9711,-1805.4172 654.7307,-3401.8926 508.2549,-3559.4375 466.076,-3604.8039 394.3167,-3608.7173 337.7878,-3602.8993"/>
<polygon fill="none" stroke="#000000" points="338.1133,-3599.4137 327.78,-3601.7529 337.3167,-3606.3683 338.1133,-3599.4137"/>
</g>
<!-- \\Firesphere\\SolrSearch\\Tasks\\ClearDirtyClassesTask -->
<g id="node29" class="node">
<title>\\Firesphere\\SolrSearch\\Tasks\\ClearDirtyClassesTask</title>
<polygon fill="none" stroke="#000000" points="751.7549,-1538.4375 593.7549,-1538.4375 593.7549,-1502.4375 751.7549,-1502.4375 751.7549,-1538.4375"/>
<text text-anchor="middle" x="672.7549" y="-1517.6375" font-family="Courier,monospace" font-size="11.00" fill="#000000">ClearDirtyClassesTask</text>
</g>
<!-- \\Firesphere\\SolrSearch\\Tasks\\ClearDirtyClassesTask&#45;&gt;\\SilverStripe\\Dev\\BuildTask -->
<g id="edge10" class="edge">
<title>\\Firesphere\\SolrSearch\\Tasks\\ClearDirtyClassesTask&#45;&gt;\\SilverStripe\\Dev\\BuildTask</title>
<path fill="none" stroke="#000000" d="M593.6398,-1530.7569C585.4081,-1534.7999 577.9771,-1540.2158 572.2549,-1547.4375 433.348,-1722.7444 660.4496,-3395.5338 508.2549,-3559.4375 466.1047,-3604.8305 394.3428,-3608.7416 337.8056,-3602.9158"/>
<polygon fill="none" stroke="#000000" points="338.1299,-3599.4301 327.7962,-3601.768 337.3323,-3606.3845 338.1299,-3599.4301"/>
</g>
<!-- \\Firesphere\\SolrSearch\\Tasks\\SolrConfigureTask -->
<g id="node30" class="node">
<title>\\Firesphere\\SolrSearch\\Tasks\\SolrConfigureTask</title>
<polygon fill="none" stroke="#000000" points="738.2549,-1484.4375 607.2549,-1484.4375 607.2549,-1448.4375 738.2549,-1448.4375 738.2549,-1484.4375"/>
<text text-anchor="middle" x="672.7549" y="-1463.6375" font-family="Courier,monospace" font-size="11.00" fill="#000000">SolrConfigureTask</text>
</g>
<!-- \\Firesphere\\SolrSearch\\Tasks\\SolrConfigureTask&#45;&gt;\\SilverStripe\\Dev\\BuildTask -->
<g id="edge11" class="edge">
<title>\\Firesphere\\SolrSearch\\Tasks\\SolrConfigureTask&#45;&gt;\\SilverStripe\\Dev\\BuildTask</title>
<path fill="none" stroke="#000000" d="M607.2457,-1471.4207C593.7487,-1475.5665 581.002,-1482.3889 572.2549,-1493.4375 429.6983,-1673.504 664.4604,-3391.0743 508.2549,-3559.4375 466.1235,-3604.848 394.3599,-3608.7575 337.8173,-3602.9266"/>
<polygon fill="none" stroke="#000000" points="338.1407,-3599.4409 327.8069,-3601.7779 337.3426,-3606.3952 338.1407,-3599.4409"/>
</g>
<!-- \\Firesphere\\SolrSearch\\Tasks\\SolrIndexTask -->
<g id="node31" class="node">
<title>\\Firesphere\\SolrSearch\\Tasks\\SolrIndexTask</title>
<polygon fill="none" stroke="#000000" points="724.7549,-1430.4375 620.7549,-1430.4375 620.7549,-1394.4375 724.7549,-1394.4375 724.7549,-1430.4375"/>
<text text-anchor="middle" x="672.7549" y="-1409.6375" font-family="Courier,monospace" font-size="11.00" fill="#000000">SolrIndexTask</text>
</g>
<!-- \\Firesphere\\SolrSearch\\Tasks\\SolrIndexTask&#45;&gt;\\SilverStripe\\Dev\\BuildTask -->
<g id="edge12" class="edge">
<title>\\Firesphere\\SolrSearch\\Tasks\\SolrIndexTask&#45;&gt;\\SilverStripe\\Dev\\BuildTask</title>
<path fill="none" stroke="#000000" d="M620.604,-1414.1537C602.5036,-1417.5519 583.8558,-1424.7723 572.2549,-1439.4375 426.0486,-1624.2637 668.4712,-3386.6147 508.2549,-3559.4375 466.1414,-3604.8646 394.3762,-3608.7726 337.8284,-3602.9369"/>
<polygon fill="none" stroke="#000000" points="338.151,-3599.4511 327.817,-3601.7873 337.3524,-3606.4054 338.151,-3599.4511"/>
</g>
<!-- \\Firesphere\\SolrSearch\\Extensions\\GridFieldExtension -->
<g id="node33" class="node">
<title>\\Firesphere\\SolrSearch\\Extensions\\GridFieldExtension</title>
<polygon fill="none" stroke="#000000" points="741.7549,-1216.4375 603.7549,-1216.4375 603.7549,-1180.4375 741.7549,-1180.4375 741.7549,-1216.4375"/>
<text text-anchor="middle" x="672.7549" y="-1195.6375" font-family="Courier,monospace" font-size="11.00" fill="#000000">GridFieldExtension</text>
</g>
<!-- \\Firesphere\\SolrSearch\\Extensions\\GridFieldExtension&#45;&gt;\\SilverStripe\\Core\\Extension -->
<g id="edge13" class="edge">
<title>\\Firesphere\\SolrSearch\\Extensions\\GridFieldExtension&#45;&gt;\\SilverStripe\\Core\\Extension</title>
<path fill="none" stroke="#000000" d="M603.7172,-1189.9711C591.5713,-1185.4047 580.2711,-1178.5804 572.2549,-1168.4375 417.2644,-972.3299 680.6279,-226.4563 508.2549,-45.4375 466.2742,-1.3511 396.2914,3.233 340.3833,-2.0052"/>
<polygon fill="none" stroke="#000000" points="339.6944,1.4415 330.1178,-3.0903 340.4303,-5.5197 339.6944,1.4415"/>
</g>
<!-- \\Firesphere\\SolrSearch\\Extensions\\DataObjectExtension -->
<g id="node34" class="node">
<title>\\Firesphere\\SolrSearch\\Extensions\\DataObjectExtension</title>
<polygon fill="none" stroke="#000000" points="745.2549,-1270.4375 600.2549,-1270.4375 600.2549,-1234.4375 745.2549,-1234.4375 745.2549,-1270.4375"/>
<text text-anchor="middle" x="672.7549" y="-1249.6375" font-family="Courier,monospace" font-size="11.00" fill="#000000">DataObjectExtension</text>
</g>
<!-- \\SilverStripe\\ORM\\DataExtension -->
<g id="node65" class="node">
<title>\\SilverStripe\\ORM\\DataExtension</title>
<ellipse fill="none" stroke="#000000" cx="254.1275" cy="-72.4375" rx="167.8704" ry="18"/>
<text text-anchor="middle" x="254.1275" y="-68.7375" font-family="Times,serif" font-size="14.00" fill="#c0c0c0">\SilverStripe\ORM\DataExtension</text>
</g>
<!-- \\Firesphere\\SolrSearch\\Extensions\\DataObjectExtension&#45;&gt;\\SilverStripe\\ORM\\DataExtension -->
<g id="edge14" class="edge">
<title>\\Firesphere\\SolrSearch\\Extensions\\DataObjectExtension&#45;&gt;\\SilverStripe\\ORM\\DataExtension</title>
<path fill="none" stroke="#000000" d="M600.013,-1244.6977C589.3214,-1240.4866 579.4914,-1234.3396 572.2549,-1225.4375 414.1652,-1030.9611 681.0732,-280.9514 508.2549,-99.4375 467.2855,-56.4067 399.6395,-51.007 344.437,-55.6431"/>
<polygon fill="none" stroke="#000000" points="343.9029,-52.1783 334.2835,-56.6188 344.5725,-59.1462 343.9029,-52.1783"/>
</g>
<!-- \\Firesphere\\SolrSearch\\Helpers\\DataResolver -->
<g id="node35" class="node">
<title>\\Firesphere\\SolrSearch\\Helpers\\DataResolver</title>
<polygon fill="none" stroke="#000000" points="721.7549,-1136.4375 623.7549,-1136.4375 623.7549,-1100.4375 721.7549,-1100.4375 721.7549,-1136.4375"/>
<text text-anchor="middle" x="672.7549" y="-1115.6375" font-family="Courier,monospace" font-size="11.00" fill="#000000">DataResolver</text>
</g>
<!-- \\Firesphere\\SolrSearch\\Helpers\\Synonyms -->
<g id="node36" class="node">
<title>\\Firesphere\\SolrSearch\\Helpers\\Synonyms</title>
<polygon fill="none" stroke="#000000" points="708.2549,-1082.4375 637.2549,-1082.4375 637.2549,-1046.4375 708.2549,-1046.4375 708.2549,-1082.4375"/>
<text text-anchor="middle" x="672.7549" y="-1061.6375" font-family="Courier,monospace" font-size="11.00" fill="#000000">Synonyms</text>
</g>
<!-- \\Firesphere\\SolrSearch\\Helpers\\SolrLogger -->
<g id="node37" class="node">
<title>\\Firesphere\\SolrSearch\\Helpers\\SolrLogger</title>
<polygon fill="none" stroke="#000000" points="714.7549,-1028.4375 630.7549,-1028.4375 630.7549,-992.4375 714.7549,-992.4375 714.7549,-1028.4375"/>
<text text-anchor="middle" x="672.7549" y="-1007.6375" font-family="Courier,monospace" font-size="11.00" fill="#000000">SolrLogger</text>
</g>
<!-- \\Firesphere\\SolrSearch\\Helpers\\Statics -->
<g id="node38" class="node">
<title>\\Firesphere\\SolrSearch\\Helpers\\Statics</title>
<polygon fill="none" stroke="#000000" points="704.7549,-974.4375 640.7549,-974.4375 640.7549,-938.4375 704.7549,-938.4375 704.7549,-974.4375"/>
<text text-anchor="middle" x="672.7549" y="-953.6375" font-family="Courier,monospace" font-size="11.00" fill="#000000">Statics</text>
</g>
<!-- \\Firesphere\\SolrSearch\\Helpers\\FieldResolver -->
<g id="node39" class="node">
<title>\\Firesphere\\SolrSearch\\Helpers\\FieldResolver</title>
<polygon fill="none" stroke="#000000" points="724.7549,-920.4375 620.7549,-920.4375 620.7549,-884.4375 724.7549,-884.4375 724.7549,-920.4375"/>
<text text-anchor="middle" x="672.7549" y="-899.6375" font-family="Courier,monospace" font-size="11.00" fill="#000000">FieldResolver</text>
</g>
<!-- \\Firesphere\\SolrSearch\\Jobs\\SolrIndexJob -->
<g id="node40" class="node">
<title>\\Firesphere\\SolrSearch\\Jobs\\SolrIndexJob</title>
<polygon fill="none" stroke="#000000" points="721.7549,-840.4375 623.7549,-840.4375 623.7549,-804.4375 721.7549,-804.4375 721.7549,-840.4375"/>
<text text-anchor="middle" x="672.7549" y="-819.6375" font-family="Courier,monospace" font-size="11.00" fill="#000000">SolrIndexJob</text>
</g>
<!-- \\Symbiote\\QueuedJobs\\Services\\AbstractQueuedJob -->
<g id="node66" class="node">
<title>\\Symbiote\\QueuedJobs\\Services\\AbstractQueuedJob</title>
<ellipse fill="none" stroke="#000000" cx="254.1275" cy="-3532.4375" rx="254.255" ry="18"/>
<text text-anchor="middle" x="254.1275" y="-3528.7375" font-family="Times,serif" font-size="14.00" fill="#c0c0c0">\Symbiote\QueuedJobs\Services\AbstractQueuedJob</text>
</g>
<!-- \\Firesphere\\SolrSearch\\Jobs\\SolrIndexJob&#45;&gt;\\Symbiote\\QueuedJobs\\Services\\AbstractQueuedJob -->
<g id="edge15" class="edge">
<title>\\Firesphere\\SolrSearch\\Jobs\\SolrIndexJob&#45;&gt;\\Symbiote\\QueuedJobs\\Services\\AbstractQueuedJob</title>
<path fill="none" stroke="#000000" d="M623.7303,-834.8241C604.305,-842.3636 583.8683,-854.1876 572.2549,-872.4375 493.6997,-995.8835 607.416,-3397.8415 508.2549,-3505.4375 469.5464,-3547.4386 405.5035,-3554.0246 351.3955,-3550.1931"/>
<polygon fill="none" stroke="#000000" points="351.6721,-3546.7041 341.4163,-3549.3626 351.0915,-3553.68 351.6721,-3546.7041"/>
</g>
<!-- \\Firesphere\\SolrSearch\\Jobs\\ClearDirtyClassesJob -->
<g id="node41" class="node">
<title>\\Firesphere\\SolrSearch\\Jobs\\ClearDirtyClassesJob</title>
<polygon fill="none" stroke="#000000" points="748.7549,-786.4375 596.7549,-786.4375 596.7549,-750.4375 748.7549,-750.4375 748.7549,-786.4375"/>
<text text-anchor="middle" x="672.7549" y="-765.6375" font-family="Courier,monospace" font-size="11.00" fill="#000000">ClearDirtyClassesJob</text>
</g>
<!-- \\Firesphere\\SolrSearch\\Jobs\\ClearDirtyClassesJob&#45;&gt;\\Symbiote\\QueuedJobs\\Services\\AbstractQueuedJob -->
<g id="edge16" class="edge">
<title>\\Firesphere\\SolrSearch\\Jobs\\ClearDirtyClassesJob&#45;&gt;\\Symbiote\\QueuedJobs\\Services\\AbstractQueuedJob</title>
<path fill="none" stroke="#000000" d="M596.5169,-777.339C587.1287,-781.51 578.6173,-787.3401 572.2549,-795.4375 479.2119,-913.8546 610.276,-3394.6616 508.2549,-3505.4375 469.5609,-3547.452 405.5179,-3554.0379 351.4062,-3550.203"/>
<polygon fill="none" stroke="#000000" points="351.6823,-3546.714 341.4263,-3549.3719 351.1013,-3553.6898 351.6823,-3546.714"/>
</g>
<!-- \\Firesphere\\SolrSearch\\Jobs\\SolrConfigureJob -->
<g id="node42" class="node">
<title>\\Firesphere\\SolrSearch\\Jobs\\SolrConfigureJob</title>
<polygon fill="none" stroke="#000000" points="735.2549,-732.4375 610.2549,-732.4375 610.2549,-696.4375 735.2549,-696.4375 735.2549,-732.4375"/>
<text text-anchor="middle" x="672.7549" y="-711.6375" font-family="Courier,monospace" font-size="11.00" fill="#000000">SolrConfigureJob</text>
</g>
<!-- \\Firesphere\\SolrSearch\\Jobs\\SolrConfigureJob&#45;&gt;\\Symbiote\\QueuedJobs\\Services\\AbstractQueuedJob -->
<g id="edge17" class="edge">
<title>\\Firesphere\\SolrSearch\\Jobs\\SolrConfigureJob&#45;&gt;\\Symbiote\\QueuedJobs\\Services\\AbstractQueuedJob</title>
<path fill="none" stroke="#000000" d="M610.0478,-718.5333C595.5038,-722.5762 581.5724,-729.5733 572.2549,-741.4375 477.3868,-862.2348 612.2817,-3392.4315 508.2549,-3505.4375 469.5706,-3547.4609 405.5276,-3554.0468 351.4134,-3550.2096"/>
<polygon fill="none" stroke="#000000" points="351.6891,-3546.7206 341.433,-3549.378 351.1078,-3553.6964 351.6891,-3546.7206"/>
</g>
<!-- \\Firesphere\\SolrSearch\\Results\\SearchResult -->
<g id="node43" class="node">
<title>\\Firesphere\\SolrSearch\\Results\\SearchResult</title>
<polygon fill="none" stroke="#000000" points="721.7549,-652.4375 623.7549,-652.4375 623.7549,-616.4375 721.7549,-616.4375 721.7549,-652.4375"/>
<text text-anchor="middle" x="672.7549" y="-631.6375" font-family="Courier,monospace" font-size="11.00" fill="#000000">SearchResult</text>
</g>
<!-- \\Firesphere\\SolrSearch\\Admins\\SearchAdmin -->
<g id="node45" class="node">
<title>\\Firesphere\\SolrSearch\\Admins\\SearchAdmin</title>
<polygon fill="none" stroke="#000000" points="718.2549,-492.4375 627.2549,-492.4375 627.2549,-456.4375 718.2549,-456.4375 718.2549,-492.4375"/>
<text text-anchor="middle" x="672.7549" y="-471.6375" font-family="Courier,monospace" font-size="11.00" fill="#000000">SearchAdmin</text>
</g>
<!-- \\SilverStripe\\Admin\\ModelAdmin -->
<g id="node67" class="node">
<title>\\SilverStripe\\Admin\\ModelAdmin</title>
<ellipse fill="none" stroke="#000000" cx="254.1275" cy="-3478.4375" rx="165.1707" ry="18"/>
<text text-anchor="middle" x="254.1275" y="-3474.7375" font-family="Times,serif" font-size="14.00" fill="#c0c0c0">\SilverStripe\Admin\ModelAdmin</text>
</g>
<!-- \\Firesphere\\SolrSearch\\Admins\\SearchAdmin&#45;&gt;\\SilverStripe\\Admin\\ModelAdmin -->
<g id="edge18" class="edge">
<title>\\Firesphere\\SolrSearch\\Admins\\SearchAdmin&#45;&gt;\\SilverStripe\\Admin\\ModelAdmin</title>
<path fill="none" stroke="#000000" d="M627.1097,-485.5301C606.7033,-492.9847 584.5248,-505.1039 572.2549,-524.4375 485.1007,-661.7662 618.3361,-3331.6997 508.2549,-3451.4375 467.3362,-3495.9457 397.9745,-3500.7208 342.044,-3495.4515"/>
<polygon fill="none" stroke="#000000" points="342.081,-3491.9358 331.7668,-3494.358 341.3403,-3498.8965 342.081,-3491.9358"/>
</g>
<!-- \\Firesphere\\SolrSearch\\Stores\\FileConfigStore -->
<g id="node46" class="node">
<title>\\Firesphere\\SolrSearch\\Stores\\FileConfigStore</title>
<polygon fill="none" stroke="#000000" points="731.7549,-278.4375 613.7549,-278.4375 613.7549,-242.4375 731.7549,-242.4375 731.7549,-278.4375"/>
<text text-anchor="middle" x="672.7549" y="-257.6375" font-family="Courier,monospace" font-size="11.00" fill="#000000">FileConfigStore</text>
</g>
<!-- \\Firesphere\\SolrSearch\\Interfaces\\ConfigStore -->
<g id="node48" class="node">
<title>\\Firesphere\\SolrSearch\\Interfaces\\ConfigStore</title>
<polygon fill="none" stroke="#000000" points="299.6275,-278.4375 208.6275,-278.4375 208.6275,-242.4375 299.6275,-242.4375 299.6275,-278.4375"/>
<text text-anchor="middle" x="254.1275" y="-257.6375" font-family="Courier,monospace" font-size="11.00" fill="#000000">ConfigStore</text>
</g>
<!-- \\Firesphere\\SolrSearch\\Stores\\FileConfigStore&#45;&gt;\\Firesphere\\SolrSearch\\Interfaces\\ConfigStore -->
<g id="edge19" class="edge">
<title>\\Firesphere\\SolrSearch\\Stores\\FileConfigStore&#45;&gt;\\Firesphere\\SolrSearch\\Interfaces\\ConfigStore</title>
<path fill="none" stroke="#000000" stroke-dasharray="1,5" d="M613.6637,-260.4375C532.8854,-260.4375 389.0185,-260.4375 309.9722,-260.4375"/>
<polygon fill="none" stroke="#000000" points="309.7288,-256.9376 299.7287,-260.4375 309.7287,-263.9376 309.7288,-256.9376"/>
</g>
<!-- \\Firesphere\\SolrSearch\\Stores\\PostConfigStore -->
<g id="node47" class="node">
<title>\\Firesphere\\SolrSearch\\Stores\\PostConfigStore</title>
<polygon fill="none" stroke="#000000" points="731.7549,-224.4375 613.7549,-224.4375 613.7549,-188.4375 731.7549,-188.4375 731.7549,-224.4375"/>
<text text-anchor="middle" x="672.7549" y="-203.6375" font-family="Courier,monospace" font-size="11.00" fill="#000000">PostConfigStore</text>
</g>
<!-- \\Firesphere\\SolrSearch\\Stores\\PostConfigStore&#45;&gt;\\Firesphere\\SolrSearch\\Interfaces\\ConfigStore -->
<g id="edge20" class="edge">
<title>\\Firesphere\\SolrSearch\\Stores\\PostConfigStore&#45;&gt;\\Firesphere\\SolrSearch\\Interfaces\\ConfigStore</title>
<path fill="none" stroke="#000000" stroke-dasharray="1,5" d="M613.4867,-217.0011C582.2454,-222.3575 543.2453,-228.7111 508.2549,-233.4375 440.1774,-242.6333 361.4881,-250.5823 309.9264,-255.4287"/>
<polygon fill="none" stroke="#000000" points="309.2998,-251.9719 299.6682,-256.3856 309.95,-258.9416 309.2998,-251.9719"/>
</g>
<!-- \\Firesphere\\SolrSearch\\Interfaces\\SiteStateInterface -->
<g id="node49" class="node">
<title>\\Firesphere\\SolrSearch\\Interfaces\\SiteStateInterface</title>
<polygon fill="none" stroke="#000000" points="323.1275,-224.4375 185.1275,-224.4375 185.1275,-188.4375 323.1275,-188.4375 323.1275,-224.4375"/>
<text text-anchor="middle" x="254.1275" y="-203.6375" font-family="Courier,monospace" font-size="11.00" fill="#000000">SiteStateInterface</text>
</g>
<!-- \\Firesphere\\SolrSearch\\Services\\SolrCoreService -->
<g id="node50" class="node">
<title>\\Firesphere\\SolrSearch\\Services\\SolrCoreService</title>
<polygon fill="none" stroke="#000000" points="731.7549,-412.4375 613.7549,-412.4375 613.7549,-376.4375 731.7549,-376.4375 731.7549,-412.4375"/>
<text text-anchor="middle" x="672.7549" y="-391.6375" font-family="Courier,monospace" font-size="11.00" fill="#000000">SolrCoreService</text>
</g>
<!-- \\Firesphere\\SolrSearch\\Services\\SchemaService -->
<g id="node51" class="node">
<title>\\Firesphere\\SolrSearch\\Services\\SchemaService</title>
<polygon fill="none" stroke="#000000" points="724.7549,-358.4375 620.7549,-358.4375 620.7549,-322.4375 724.7549,-322.4375 724.7549,-358.4375"/>
<text text-anchor="middle" x="672.7549" y="-337.6375" font-family="Courier,monospace" font-size="11.00" fill="#000000">SchemaService</text>
</g>
<!-- \\SilverStripe\\View\\ViewableData -->
<g id="node68" class="node">
<title>\\SilverStripe\\View\\ViewableData</title>
<ellipse fill="none" stroke="#000000" cx="254.1275" cy="-3424.4375" rx="163.2712" ry="18"/>
<text text-anchor="middle" x="254.1275" y="-3420.7375" font-family="Times,serif" font-size="14.00" fill="#c0c0c0">\SilverStripe\View\ViewableData</text>
</g>
<!-- \\Firesphere\\SolrSearch\\Services\\SchemaService&#45;&gt;\\SilverStripe\\View\\ViewableData -->
<g id="edge21" class="edge">
<title>\\Firesphere\\SolrSearch\\Services\\SchemaService&#45;&gt;\\SilverStripe\\View\\ViewableData</title>
<path fill="none" stroke="#000000" d="M620.6465,-342.7193C602.7747,-346.2102 584.2697,-353.346 572.2549,-367.4375 363.8608,-611.853 266.0517,-3100.7872 255.1575,-3395.8937"/>
<polygon fill="none" stroke="#000000" points="251.6492,-3396.0585 254.7803,-3406.18 258.6445,-3396.315 251.6492,-3396.0585"/>
</g>
<!-- \\Firesphere\\SolrFluent\\States\\FluentSiteState -->
<g id="node52" class="node">
<title>\\Firesphere\\SolrFluent\\States\\FluentSiteState</title>
<polygon fill="none" stroke="#000000" points="982.2549,-578.4375 864.2549,-578.4375 864.2549,-542.4375 982.2549,-542.4375 982.2549,-578.4375"/>
<text text-anchor="middle" x="923.2549" y="-557.6375" font-family="Courier,monospace" font-size="11.00" fill="#000000">FluentSiteState</text>
</g>
<!-- \\Firesphere\\SolrFluent\\States\\FluentSiteState&#45;&gt;\\Firesphere\\SolrSearch\\States\\SiteState -->
<g id="edge22" class="edge">
<title>\\Firesphere\\SolrFluent\\States\\FluentSiteState&#45;&gt;\\Firesphere\\SolrSearch\\States\\SiteState</title>
<path fill="none" stroke="#000000" d="M889.6092,-578.4847C865.8144,-593.28 835.6779,-616.6201 821.2549,-646.4375 758.3279,-776.5303 870.53,-1832.7982 781.2549,-1946.4375 767.8704,-1963.4748 745.7314,-1971.3821 724.9299,-1974.8718"/>
<polygon fill="none" stroke="#000000" points="724.302,-1971.4251 714.87,-1976.2507 725.2527,-1978.3602 724.302,-1971.4251"/>
</g>
<!-- \\Firesphere\\SolrFluent\\States\\FluentSiteState&#45;&gt;\\Firesphere\\SolrSearch\\Interfaces\\SiteStateInterface -->
<g id="edge23" class="edge">
<title>\\Firesphere\\SolrFluent\\States\\FluentSiteState&#45;&gt;\\Firesphere\\SolrSearch\\Interfaces\\SiteStateInterface</title>
<path fill="none" stroke="#000000" stroke-dasharray="1,5" d="M864.2214,-555.1441C848.0697,-550.8081 832.0583,-543.2995 821.2549,-530.4375 770.3369,-469.8173 838.5643,-231.0551 781.2549,-176.4375 746.2741,-143.0998 714.5308,-193.7241 672.7549,-169.4375"/>
<path fill="none" stroke="#000000" stroke-dasharray="1,5" d="M672.7549,-169.4375C616.9194,-136.9773 438.1009,-167.1088 333.1028,-188.7845"/>
<polygon fill="none" stroke="#000000" points="332.254,-185.3861 323.1788,-190.8533 333.6827,-192.2388 332.254,-185.3861"/>
</g>
<!-- \\Firesphere\\SolrFluent\\Extensions\\FluentSchemaExtension -->
<g id="node53" class="node">
<title>\\Firesphere\\SolrFluent\\Extensions\\FluentSchemaExtension</title>
<polygon fill="none" stroke="#000000" points="1002.2549,-498.4375 844.2549,-498.4375 844.2549,-462.4375 1002.2549,-462.4375 1002.2549,-498.4375"/>
<text text-anchor="middle" x="923.2549" y="-477.6375" font-family="Courier,monospace" font-size="11.00" fill="#000000">FluentSchemaExtension</text>
</g>
<!-- \\Firesphere\\SolrFluent\\Extensions\\FluentSchemaExtension&#45;&gt;\\SilverStripe\\Core\\Extension -->
<g id="edge24" class="edge">
<title>\\Firesphere\\SolrFluent\\Extensions\\FluentSchemaExtension&#45;&gt;\\SilverStripe\\Core\\Extension</title>
<path fill="none" stroke="#000000" d="M844.2012,-469.9121C835.5281,-465.9169 827.57,-460.5687 821.2549,-453.4375 735.2882,-356.3615 853.8917,-271.8522 781.2549,-164.4375 750.143,-118.4295 718.6395,-133.7312 672.7549,-102.4375"/>
</g>
<!-- \\Firesphere\\SolrFluent\\Extensions\\FluentIndexExtension -->
<g id="node54" class="node">
<title>\\Firesphere\\SolrFluent\\Extensions\\FluentIndexExtension</title>
<polygon fill="none" stroke="#000000" points="999.2549,-444.4375 847.2549,-444.4375 847.2549,-408.4375 999.2549,-408.4375 999.2549,-444.4375"/>
<text text-anchor="middle" x="923.2549" y="-423.6375" font-family="Courier,monospace" font-size="11.00" fill="#000000">FluentIndexExtension</text>
</g>
<!-- \\Firesphere\\SolrFluent\\Extensions\\FluentIndexExtension&#45;&gt;\\SilverStripe\\Core\\Extension -->
<g id="edge25" class="edge">
<title>\\Firesphere\\SolrFluent\\Extensions\\FluentIndexExtension&#45;&gt;\\SilverStripe\\Core\\Extension</title>
<path fill="none" stroke="#000000" d="M847.1955,-416.9376C837.4185,-412.8586 828.3596,-407.2136 821.2549,-399.4375 749.792,-321.2215 841.959,-251.269 781.2549,-164.4375 749.4322,-118.9182 718.6395,-133.7312 672.7549,-102.4375"/>
</g>
<!-- \\Firesphere\\SolrFluent\\Extensions\\FluentDocumentExtension -->
<g id="node55" class="node">
<title>\\Firesphere\\SolrFluent\\Extensions\\FluentDocumentExtension</title>
<polygon fill="none" stroke="#000000" points="1009.2549,-390.4375 837.2549,-390.4375 837.2549,-354.4375 1009.2549,-354.4375 1009.2549,-390.4375"/>
<text text-anchor="middle" x="923.2549" y="-369.6375" font-family="Courier,monospace" font-size="11.00" fill="#000000">FluentDocumentExtension</text>
</g>
<!-- \\Firesphere\\SolrFluent\\Extensions\\FluentDocumentExtension&#45;&gt;\\SilverStripe\\Core\\Extension -->
<g id="edge26" class="edge">
<title>\\Firesphere\\SolrFluent\\Extensions\\FluentDocumentExtension&#45;&gt;\\SilverStripe\\Core\\Extension</title>
<path fill="none" stroke="#000000" d="M881.7382,-354.4106C860.8033,-343.3672 836.655,-327.3155 821.2549,-306.4375 782.3337,-253.6719 821.6163,-216.1097 781.2549,-164.4375 747.066,-120.6676 718.6395,-133.7312 672.7549,-102.4375"/>
</g>
<!-- \\Firesphere\\SolrSubsites\\States\\SubsiteState -->
<g id="node56" class="node">
<title>\\Firesphere\\SolrSubsites\\States\\SubsiteState</title>
<polygon fill="none" stroke="#000000" points="972.2549,-890.4375 874.2549,-890.4375 874.2549,-854.4375 972.2549,-854.4375 972.2549,-890.4375"/>
<text text-anchor="middle" x="923.2549" y="-869.6375" font-family="Courier,monospace" font-size="11.00" fill="#000000">SubsiteState</text>
</g>
<!-- \\Firesphere\\SolrSubsites\\States\\SubsiteState&#45;&gt;\\Firesphere\\SolrSearch\\States\\SiteState -->
<g id="edge27" class="edge">
<title>\\Firesphere\\SolrSubsites\\States\\SubsiteState&#45;&gt;\\Firesphere\\SolrSearch\\States\\SiteState</title>
<path fill="none" stroke="#000000" d="M922.0388,-890.8173C912.9415,-1025.9615 853.8801,-1863.0032 781.2549,-1946.4375 767.2593,-1962.5161 745.4937,-1970.3396 725.1198,-1974.0237"/>
<polygon fill="none" stroke="#000000" points="724.3229,-1970.6042 714.9566,-1975.5563 725.3667,-1977.5259 724.3229,-1970.6042"/>
</g>
<!-- \\Firesphere\\SolrSubsites\\States\\SubsiteState&#45;&gt;\\Firesphere\\SolrSearch\\Interfaces\\SiteStateInterface -->
<g id="edge28" class="edge">
<title>\\Firesphere\\SolrSubsites\\States\\SubsiteState&#45;&gt;\\Firesphere\\SolrSearch\\Interfaces\\SiteStateInterface</title>
<path fill="none" stroke="#000000" stroke-dasharray="1,5" d="M874.1722,-869.8446C854.6995,-866.1658 833.9586,-858.3947 821.2549,-842.4375 728.9086,-726.4411 885.8623,-281.5103 781.2549,-176.4375 747.1617,-142.1926 714.5308,-193.7241 672.7549,-169.4375"/>
</g>
<!-- \\Firesphere\\SolrSubsites\\Extensions\\SubsitesExtension -->
<g id="node57" class="node">
<title>\\Firesphere\\SolrSubsites\\Extensions\\SubsitesExtension</title>
<polygon fill="none" stroke="#000000" points="988.7549,-810.4375 857.7549,-810.4375 857.7549,-774.4375 988.7549,-774.4375 988.7549,-810.4375"/>
<text text-anchor="middle" x="923.2549" y="-789.6375" font-family="Courier,monospace" font-size="11.00" fill="#000000">SubsitesExtension</text>
</g>
<!-- \\Firesphere\\SolrSubsites\\Extensions\\SubsitesExtension&#45;&gt;\\SilverStripe\\Core\\Extension -->
<g id="edge29" class="edge">
<title>\\Firesphere\\SolrSubsites\\Extensions\\SubsitesExtension&#45;&gt;\\SilverStripe\\Core\\Extension</title>
<path fill="none" stroke="#000000" d="M877.5934,-774.3928C856.7707,-763.6935 833.9716,-747.9548 821.2549,-726.4375 757.5526,-618.6495 847.9054,-270.4279 781.2549,-164.4375 751.6892,-117.4209 718.6395,-133.7312 672.7549,-102.4375"/>
</g>
<!-- \\Firesphere\\SolrPermissions\\Extensions\\BaseIndexExtension -->
<g id="node58" class="node">
<title>\\Firesphere\\SolrPermissions\\Extensions\\BaseIndexExtension</title>
<polygon fill="none" stroke="#000000" points="992.2549,-220.4375 854.2549,-220.4375 854.2549,-184.4375 992.2549,-184.4375 992.2549,-220.4375"/>
<text text-anchor="middle" x="923.2549" y="-199.6375" font-family="Courier,monospace" font-size="11.00" fill="#000000">BaseIndexExtension</text>
</g>
<!-- \\Firesphere\\SolrPermissions\\Extensions\\BaseIndexExtension&#45;&gt;\\SilverStripe\\Core\\Extension -->
<g id="edge30" class="edge">
<title>\\Firesphere\\SolrPermissions\\Extensions\\BaseIndexExtension&#45;&gt;\\SilverStripe\\Core\\Extension</title>
<path fill="none" stroke="#000000" d="M894.9736,-184.2954C867.0666,-167.1306 822.6864,-141.7754 781.2549,-126.4375 734.9389,-109.2914 713.5569,-130.2648 672.7549,-102.4375"/>
<path fill="none" stroke="#000000" d="M672.7549,-102.4375C595.5166,-49.7605 492.774,-28.5994 408.4048,-20.6863"/>
<polygon fill="none" stroke="#000000" points="408.4791,-17.1793 398.2099,-19.7858 407.8631,-24.1522 408.4791,-17.1793"/>
</g>
<!-- \\Firesphere\\SolrPermissions\\Extensions\\DataObjectExtension -->
<g id="node59" class="node">
<title>\\Firesphere\\SolrPermissions\\Extensions\\DataObjectExtension</title>
<polygon fill="none" stroke="#000000" points="995.7549,-274.4375 850.7549,-274.4375 850.7549,-238.4375 995.7549,-238.4375 995.7549,-274.4375"/>
<text text-anchor="middle" x="923.2549" y="-253.6375" font-family="Courier,monospace" font-size="11.00" fill="#000000">DataObjectExtension</text>
</g>
<!-- \\Firesphere\\SolrPermissions\\Extensions\\DataObjectExtension&#45;&gt;\\SilverStripe\\ORM\\DataExtension -->
<g id="edge31" class="edge">
<title>\\Firesphere\\SolrPermissions\\Extensions\\DataObjectExtension&#45;&gt;\\SilverStripe\\ORM\\DataExtension</title>
<path fill="none" stroke="#000000" d="M850.688,-244.6239C840.1962,-240.8744 830.004,-235.9374 821.2549,-229.4375 794.0261,-209.2086 808.814,-184.2141 781.2549,-164.4375 703.8221,-108.8711 664.7691,-139.3412 572.2549,-116.4375 543.6866,-109.3649 537.1957,-104.7858 508.2549,-99.4375 473.46,-93.0074 435.681,-87.9632 400.1541,-84.0656"/>
<polygon fill="none" stroke="#000000" points="400.5143,-80.5842 390.1977,-82.9964 399.7668,-87.5442 400.5143,-80.5842"/>
</g>
</g>
</svg>
