<?xml version="1.0" encoding="UTF-8" standalone="no"?>
<!DOCTYPE svg PUBLIC "-//W3C//DTD SVG 1.1//EN"
 "http://www.w3.org/Graphics/SVG/1.1/DTD/svg11.dtd">
<!-- Generated by graphviz version 2.40.1 (20161225.0304)
 -->
<!-- Title: G Pages: 1 -->
<svg width="1064pt" height="3721pt"
 viewBox="0.00 0.00 1064.25 3721.14" xmlns="http://www.w3.org/2000/svg" xmlns:xlink="http://www.w3.org/1999/xlink">
<g id="graph0" class="graph" transform="scale(1 1) rotate(0) translate(4 3717.1412)">
<title>G</title>
<polygon fill="#ffffff" stroke="transparent" points="-4,4 -4,-3717.1412 1060.2549,-3717.1412 1060.2549,4 -4,4"/>
<g id="clust1" class="cluster">
<title>cluster_Global</title>
<path fill="none" stroke="#c0c0c0" d="M165.1275,-152.2623C165.1275,-152.2623 1036.2549,-152.2623 1036.2549,-152.2623 1042.2549,-152.2623 1048.2549,-158.2623 1048.2549,-164.2623 1048.2549,-164.2623 1048.2549,-3386.2623 1048.2549,-3386.2623 1048.2549,-3392.2623 1042.2549,-3398.2623 1036.2549,-3398.2623 1036.2549,-3398.2623 165.1275,-3398.2623 165.1275,-3398.2623 159.1275,-3398.2623 153.1275,-3392.2623 153.1275,-3386.2623 153.1275,-3386.2623 153.1275,-164.2623 153.1275,-164.2623 153.1275,-158.2623 159.1275,-152.2623 165.1275,-152.2623"/>
<text text-anchor="middle" x="600.6912" y="-3385.4623" font-family="Times,serif" font-size="11.00" fill="#c0c0c0">Global</text>
</g>
<g id="clust2" class="cluster">
<title>cluster_\SilverStripe</title>
<path fill="none" stroke="#c0c0c0" d="M861.2549,-3056.2623C861.2549,-3056.2623 992.2549,-3056.2623 992.2549,-3056.2623 998.2549,-3056.2623 1004.2549,-3062.2623 1004.2549,-3068.2623 1004.2549,-3068.2623 1004.2549,-3358.2623 1004.2549,-3358.2623 1004.2549,-3364.2623 998.2549,-3370.2623 992.2549,-3370.2623 992.2549,-3370.2623 861.2549,-3370.2623 861.2549,-3370.2623 855.2549,-3370.2623 849.2549,-3364.2623 849.2549,-3358.2623 849.2549,-3358.2623 849.2549,-3068.2623 849.2549,-3068.2623 849.2549,-3062.2623 855.2549,-3056.2623 861.2549,-3056.2623"/>
<text text-anchor="middle" x="926.7549" y="-3357.4623" font-family="Times,serif" font-size="11.00" fill="#c0c0c0">SilverStripe</text>
</g>
<g id="clust3" class="cluster">
<title>cluster_\SilverStripe\FullTextSearch</title>
<path fill="none" stroke="#c0c0c0" d="M869.2549,-3064.2623C869.2549,-3064.2623 984.2549,-3064.2623 984.2549,-3064.2623 990.2549,-3064.2623 996.2549,-3070.2623 996.2549,-3076.2623 996.2549,-3076.2623 996.2549,-3330.2623 996.2549,-3330.2623 996.2549,-3336.2623 990.2549,-3342.2623 984.2549,-3342.2623 984.2549,-3342.2623 869.2549,-3342.2623 869.2549,-3342.2623 863.2549,-3342.2623 857.2549,-3336.2623 857.2549,-3330.2623 857.2549,-3330.2623 857.2549,-3076.2623 857.2549,-3076.2623 857.2549,-3070.2623 863.2549,-3064.2623 869.2549,-3064.2623"/>
<text text-anchor="middle" x="926.7549" y="-3329.4623" font-family="Times,serif" font-size="11.00" fill="#c0c0c0">FullTextSearch</text>
</g>
<g id="clust4" class="cluster">
<title>cluster_\SilverStripe\FullTextSearch\Search</title>
<path fill="none" stroke="#c0c0c0" d="M877.2549,-3206.2623C877.2549,-3206.2623 976.2549,-3206.2623 976.2549,-3206.2623 982.2549,-3206.2623 988.2549,-3212.2623 988.2549,-3218.2623 988.2549,-3218.2623 988.2549,-3302.2623 988.2549,-3302.2623 988.2549,-3308.2623 982.2549,-3314.2623 976.2549,-3314.2623 976.2549,-3314.2623 877.2549,-3314.2623 877.2549,-3314.2623 871.2549,-3314.2623 865.2549,-3308.2623 865.2549,-3302.2623 865.2549,-3302.2623 865.2549,-3218.2623 865.2549,-3218.2623 865.2549,-3212.2623 871.2549,-3206.2623 877.2549,-3206.2623"/>
<text text-anchor="middle" x="926.7549" y="-3301.4623" font-family="Times,serif" font-size="11.00" fill="#c0c0c0">Search</text>
</g>
<g id="clust5" class="cluster">
<title>cluster_\SilverStripe\FullTextSearch\Search\Queries</title>
<path fill="none" stroke="#c0c0c0" d="M885.2549,-3214.2623C885.2549,-3214.2623 968.2549,-3214.2623 968.2549,-3214.2623 974.2549,-3214.2623 980.2549,-3220.2623 980.2549,-3226.2623 980.2549,-3226.2623 980.2549,-3274.2623 980.2549,-3274.2623 980.2549,-3280.2623 974.2549,-3286.2623 968.2549,-3286.2623 968.2549,-3286.2623 885.2549,-3286.2623 885.2549,-3286.2623 879.2549,-3286.2623 873.2549,-3280.2623 873.2549,-3274.2623 873.2549,-3274.2623 873.2549,-3226.2623 873.2549,-3226.2623 873.2549,-3220.2623 879.2549,-3214.2623 885.2549,-3214.2623"/>
<text text-anchor="middle" x="926.7549" y="-3273.4623" font-family="Times,serif" font-size="11.00" fill="#c0c0c0">Queries</text>
</g>
<g id="clust6" class="cluster">
<title>cluster_\SilverStripe\FullTextSearch\Solr</title>
<path fill="none" stroke="#c0c0c0" d="M888.7549,-3072.2623C888.7549,-3072.2623 964.7549,-3072.2623 964.7549,-3072.2623 970.7549,-3072.2623 976.7549,-3078.2623 976.7549,-3084.2623 976.7549,-3084.2623 976.7549,-3186.2623 976.7549,-3186.2623 976.7549,-3192.2623 970.7549,-3198.2623 964.7549,-3198.2623 964.7549,-3198.2623 888.7549,-3198.2623 888.7549,-3198.2623 882.7549,-3198.2623 876.7549,-3192.2623 876.7549,-3186.2623 876.7549,-3186.2623 876.7549,-3084.2623 876.7549,-3084.2623 876.7549,-3078.2623 882.7549,-3072.2623 888.7549,-3072.2623"/>
<text text-anchor="middle" x="926.7549" y="-3185.4623" font-family="Times,serif" font-size="11.00" fill="#c0c0c0">Solr</text>
</g>
<g id="clust7" class="cluster">
<title>cluster_\Firesphere</title>
<path fill="none" stroke="#c0c0c0" d="M173.1275,-160.2623C173.1275,-160.2623 1028.2549,-160.2623 1028.2549,-160.2623 1034.2549,-160.2623 1040.2549,-166.2623 1040.2549,-172.2623 1040.2549,-172.2623 1040.2549,-3036.2623 1040.2549,-3036.2623 1040.2549,-3042.2623 1034.2549,-3048.2623 1028.2549,-3048.2623 1028.2549,-3048.2623 173.1275,-3048.2623 173.1275,-3048.2623 167.1275,-3048.2623 161.1275,-3042.2623 161.1275,-3036.2623 161.1275,-3036.2623 161.1275,-172.2623 161.1275,-172.2623 161.1275,-166.2623 167.1275,-160.2623 173.1275,-160.2623"/>
<text text-anchor="middle" x="600.6912" y="-3035.4623" font-family="Times,serif" font-size="11.00" fill="#c0c0c0">Firesphere</text>
</g>
<g id="clust8" class="cluster">
<title>cluster_\Firesphere\SolrCompatibility</title>
<path fill="none" stroke="#c0c0c0" d="M833.2549,-168.2623C833.2549,-168.2623 1020.2549,-168.2623 1020.2549,-168.2623 1026.2549,-168.2623 1032.2549,-174.2623 1032.2549,-180.2623 1032.2549,-180.2623 1032.2549,-372.2623 1032.2549,-372.2623 1032.2549,-378.2623 1026.2549,-384.2623 1020.2549,-384.2623 1020.2549,-384.2623 833.2549,-384.2623 833.2549,-384.2623 827.2549,-384.2623 821.2549,-378.2623 821.2549,-372.2623 821.2549,-372.2623 821.2549,-180.2623 821.2549,-180.2623 821.2549,-174.2623 827.2549,-168.2623 833.2549,-168.2623"/>
<text text-anchor="middle" x="926.7549" y="-371.4623" font-family="Times,serif" font-size="11.00" fill="#c0c0c0">SolrCompatibility</text>
</g>
<g id="clust9" class="cluster">
<title>cluster_\Firesphere\SolrCompatibility\Extensions</title>
<path fill="none" stroke="#c0c0c0" d="M841.2549,-176.2623C841.2549,-176.2623 1012.2549,-176.2623 1012.2549,-176.2623 1018.2549,-176.2623 1024.2549,-182.2623 1024.2549,-188.2623 1024.2549,-188.2623 1024.2549,-344.2623 1024.2549,-344.2623 1024.2549,-350.2623 1018.2549,-356.2623 1012.2549,-356.2623 1012.2549,-356.2623 841.2549,-356.2623 841.2549,-356.2623 835.2549,-356.2623 829.2549,-350.2623 829.2549,-344.2623 829.2549,-344.2623 829.2549,-188.2623 829.2549,-188.2623 829.2549,-182.2623 835.2549,-176.2623 841.2549,-176.2623"/>
<text text-anchor="middle" x="926.7549" y="-343.4623" font-family="Times,serif" font-size="11.00" fill="#c0c0c0">Extensions</text>
</g>
<g id="clust10" class="cluster">
<title>cluster_\Firesphere\SolrSearch</title>
<path fill="none" stroke="#c0c0c0" d="M181.1275,-172.2623C181.1275,-172.2623 769.2549,-172.2623 769.2549,-172.2623 775.2549,-172.2623 781.2549,-178.2623 781.2549,-184.2623 781.2549,-184.2623 781.2549,-3008.2623 781.2549,-3008.2623 781.2549,-3014.2623 775.2549,-3020.2623 769.2549,-3020.2623 769.2549,-3020.2623 181.1275,-3020.2623 181.1275,-3020.2623 175.1275,-3020.2623 169.1275,-3014.2623 169.1275,-3008.2623 169.1275,-3008.2623 169.1275,-184.2623 169.1275,-184.2623 169.1275,-178.2623 175.1275,-172.2623 181.1275,-172.2623"/>
<text text-anchor="middle" x="475.1912" y="-3007.4623" font-family="Times,serif" font-size="11.00" fill="#c0c0c0">SolrSearch</text>
</g>
<g id="clust11" class="cluster">
<title>cluster_\Firesphere\SolrSearch\Traits</title>
<path fill="none" stroke="#c0c0c0" d="M584.2549,-2110.2623C584.2549,-2110.2623 761.2549,-2110.2623 761.2549,-2110.2623 767.2549,-2110.2623 773.2549,-2116.2623 773.2549,-2122.2623 773.2549,-2122.2623 773.2549,-2980.2623 773.2549,-2980.2623 773.2549,-2986.2623 767.2549,-2992.2623 761.2549,-2992.2623 761.2549,-2992.2623 584.2549,-2992.2623 584.2549,-2992.2623 578.2549,-2992.2623 572.2549,-2986.2623 572.2549,-2980.2623 572.2549,-2980.2623 572.2549,-2122.2623 572.2549,-2122.2623 572.2549,-2116.2623 578.2549,-2110.2623 584.2549,-2110.2623"/>
<text text-anchor="middle" x="672.7549" y="-2979.4623" font-family="Times,serif" font-size="11.00" fill="#c0c0c0">Traits</text>
</g>
<g id="clust12" class="cluster">
<title>cluster_\Firesphere\SolrSearch\Stores</title>
<path fill="none" stroke="#c0c0c0" d="M617.7549,-1976.2623C617.7549,-1976.2623 727.7549,-1976.2623 727.7549,-1976.2623 733.7549,-1976.2623 739.7549,-1982.2623 739.7549,-1988.2623 739.7549,-1988.2623 739.7549,-2090.2623 739.7549,-2090.2623 739.7549,-2096.2623 733.7549,-2102.2623 727.7549,-2102.2623 727.7549,-2102.2623 617.7549,-2102.2623 617.7549,-2102.2623 611.7549,-2102.2623 605.7549,-2096.2623 605.7549,-2090.2623 605.7549,-2090.2623 605.7549,-1988.2623 605.7549,-1988.2623 605.7549,-1982.2623 611.7549,-1976.2623 617.7549,-1976.2623"/>
<text text-anchor="middle" x="672.7549" y="-2089.4623" font-family="Times,serif" font-size="11.00" fill="#c0c0c0">Stores</text>
</g>
<g id="clust13" class="cluster">
<title>cluster_\Firesphere\SolrSearch\Results</title>
<path fill="none" stroke="#c0c0c0" d="M627.7549,-1896.2623C627.7549,-1896.2623 717.7549,-1896.2623 717.7549,-1896.2623 723.7549,-1896.2623 729.7549,-1902.2623 729.7549,-1908.2623 729.7549,-1908.2623 729.7549,-1956.2623 729.7549,-1956.2623 729.7549,-1962.2623 723.7549,-1968.2623 717.7549,-1968.2623 717.7549,-1968.2623 627.7549,-1968.2623 627.7549,-1968.2623 621.7549,-1968.2623 615.7549,-1962.2623 615.7549,-1956.2623 615.7549,-1956.2623 615.7549,-1908.2623 615.7549,-1908.2623 615.7549,-1902.2623 621.7549,-1896.2623 627.7549,-1896.2623"/>
<text text-anchor="middle" x="672.7549" y="-1955.4623" font-family="Times,serif" font-size="11.00" fill="#c0c0c0">Results</text>
</g>
<g id="clust14" class="cluster">
<title>cluster_\Firesphere\SolrSearch\Indexes</title>
<path fill="none" stroke="#c0c0c0" d="M634.7549,-1816.2623C634.7549,-1816.2623 710.7549,-1816.2623 710.7549,-1816.2623 716.7549,-1816.2623 722.7549,-1822.2623 722.7549,-1828.2623 722.7549,-1828.2623 722.7549,-1876.2623 722.7549,-1876.2623 722.7549,-1882.2623 716.7549,-1888.2623 710.7549,-1888.2623 710.7549,-1888.2623 634.7549,-1888.2623 634.7549,-1888.2623 628.7549,-1888.2623 622.7549,-1882.2623 622.7549,-1876.2623 622.7549,-1876.2623 622.7549,-1828.2623 622.7549,-1828.2623 622.7549,-1822.2623 628.7549,-1816.2623 634.7549,-1816.2623"/>
<text text-anchor="middle" x="672.7549" y="-1875.4623" font-family="Times,serif" font-size="11.00" fill="#c0c0c0">Indexes</text>
</g>
<g id="clust15" class="cluster">
<title>cluster_\Firesphere\SolrSearch\Jobs</title>
<path fill="none" stroke="#c0c0c0" d="M600.7549,-1628.2623C600.7549,-1628.2623 744.7549,-1628.2623 744.7549,-1628.2623 750.7549,-1628.2623 756.7549,-1634.2623 756.7549,-1640.2623 756.7549,-1640.2623 756.7549,-1796.2623 756.7549,-1796.2623 756.7549,-1802.2623 750.7549,-1808.2623 744.7549,-1808.2623 744.7549,-1808.2623 600.7549,-1808.2623 600.7549,-1808.2623 594.7549,-1808.2623 588.7549,-1802.2623 588.7549,-1796.2623 588.7549,-1796.2623 588.7549,-1640.2623 588.7549,-1640.2623 588.7549,-1634.2623 594.7549,-1628.2623 600.7549,-1628.2623"/>
<text text-anchor="middle" x="672.7549" y="-1795.4623" font-family="Times,serif" font-size="11.00" fill="#c0c0c0">Jobs</text>
</g>
<g id="clust16" class="cluster">
<title>cluster_\Firesphere\SolrSearch\Forms</title>
<path fill="none" stroke="#c0c0c0" d="M634.7549,-1548.2623C634.7549,-1548.2623 710.7549,-1548.2623 710.7549,-1548.2623 716.7549,-1548.2623 722.7549,-1554.2623 722.7549,-1560.2623 722.7549,-1560.2623 722.7549,-1608.2623 722.7549,-1608.2623 722.7549,-1614.2623 716.7549,-1620.2623 710.7549,-1620.2623 710.7549,-1620.2623 634.7549,-1620.2623 634.7549,-1620.2623 628.7549,-1620.2623 622.7549,-1614.2623 622.7549,-1608.2623 622.7549,-1608.2623 622.7549,-1560.2623 622.7549,-1560.2623 622.7549,-1554.2623 628.7549,-1548.2623 634.7549,-1548.2623"/>
<text text-anchor="middle" x="672.7549" y="-1607.4623" font-family="Times,serif" font-size="11.00" fill="#c0c0c0">Forms</text>
</g>
<g id="clust17" class="cluster">
<title>cluster_\Firesphere\SolrSearch\Factories</title>
<path fill="none" stroke="#c0c0c0" d="M597.7549,-1360.2623C597.7549,-1360.2623 747.7549,-1360.2623 747.7549,-1360.2623 753.7549,-1360.2623 759.7549,-1366.2623 759.7549,-1372.2623 759.7549,-1372.2623 759.7549,-1528.2623 759.7549,-1528.2623 759.7549,-1534.2623 753.7549,-1540.2623 747.7549,-1540.2623 747.7549,-1540.2623 597.7549,-1540.2623 597.7549,-1540.2623 591.7549,-1540.2623 585.7549,-1534.2623 585.7549,-1528.2623 585.7549,-1528.2623 585.7549,-1372.2623 585.7549,-1372.2623 585.7549,-1366.2623 591.7549,-1360.2623 597.7549,-1360.2623"/>
<text text-anchor="middle" x="672.7549" y="-1527.4623" font-family="Times,serif" font-size="11.00" fill="#c0c0c0">Factories</text>
</g>
<g id="clust18" class="cluster">
<title>cluster_\Firesphere\SolrSearch\Interfaces</title>
<path fill="none" stroke="#c0c0c0" d="M189.1275,-1922.2623C189.1275,-1922.2623 319.1275,-1922.2623 319.1275,-1922.2623 325.1275,-1922.2623 331.1275,-1928.2623 331.1275,-1934.2623 331.1275,-1934.2623 331.1275,-2036.2623 331.1275,-2036.2623 331.1275,-2042.2623 325.1275,-2048.2623 319.1275,-2048.2623 319.1275,-2048.2623 189.1275,-2048.2623 189.1275,-2048.2623 183.1275,-2048.2623 177.1275,-2042.2623 177.1275,-2036.2623 177.1275,-2036.2623 177.1275,-1934.2623 177.1275,-1934.2623 177.1275,-1928.2623 183.1275,-1922.2623 189.1275,-1922.2623"/>
<text text-anchor="middle" x="254.1275" y="-2035.4623" font-family="Times,serif" font-size="11.00" fill="#c0c0c0">Interfaces</text>
</g>
<g id="clust19" class="cluster">
<title>cluster_\Firesphere\SolrSearch\States</title>
<path fill="none" stroke="#c0c0c0" d="M634.7549,-1200.2623C634.7549,-1200.2623 710.7549,-1200.2623 710.7549,-1200.2623 716.7549,-1200.2623 722.7549,-1206.2623 722.7549,-1212.2623 722.7549,-1212.2623 722.7549,-1260.2623 722.7549,-1260.2623 722.7549,-1266.2623 716.7549,-1272.2623 710.7549,-1272.2623 710.7549,-1272.2623 634.7549,-1272.2623 634.7549,-1272.2623 628.7549,-1272.2623 622.7549,-1266.2623 622.7549,-1260.2623 622.7549,-1260.2623 622.7549,-1212.2623 622.7549,-1212.2623 622.7549,-1206.2623 628.7549,-1200.2623 634.7549,-1200.2623"/>
<text text-anchor="middle" x="672.7549" y="-1259.4623" font-family="Times,serif" font-size="11.00" fill="#c0c0c0">States</text>
</g>
<g id="clust20" class="cluster">
<title>cluster_\Firesphere\SolrSearch\Queries</title>
<path fill="none" stroke="#c0c0c0" d="M638.2549,-1280.2623C638.2549,-1280.2623 707.2549,-1280.2623 707.2549,-1280.2623 713.2549,-1280.2623 719.2549,-1286.2623 719.2549,-1292.2623 719.2549,-1292.2623 719.2549,-1340.2623 719.2549,-1340.2623 719.2549,-1346.2623 713.2549,-1352.2623 707.2549,-1352.2623 707.2549,-1352.2623 638.2549,-1352.2623 638.2549,-1352.2623 632.2549,-1352.2623 626.2549,-1346.2623 626.2549,-1340.2623 626.2549,-1340.2623 626.2549,-1292.2623 626.2549,-1292.2623 626.2549,-1286.2623 632.2549,-1280.2623 638.2549,-1280.2623"/>
<text text-anchor="middle" x="672.7549" y="-1339.4623" font-family="Times,serif" font-size="11.00" fill="#c0c0c0">Queries</text>
</g>
<g id="clust21" class="cluster">
<title>cluster_\Firesphere\SolrSearch\Admins</title>
<path fill="none" stroke="#c0c0c0" d="M631.2549,-1120.2623C631.2549,-1120.2623 714.2549,-1120.2623 714.2549,-1120.2623 720.2549,-1120.2623 726.2549,-1126.2623 726.2549,-1132.2623 726.2549,-1132.2623 726.2549,-1180.2623 726.2549,-1180.2623 726.2549,-1186.2623 720.2549,-1192.2623 714.2549,-1192.2623 714.2549,-1192.2623 631.2549,-1192.2623 631.2549,-1192.2623 625.2549,-1192.2623 619.2549,-1186.2623 619.2549,-1180.2623 619.2549,-1180.2623 619.2549,-1132.2623 619.2549,-1132.2623 619.2549,-1126.2623 625.2549,-1120.2623 631.2549,-1120.2623"/>
<text text-anchor="middle" x="672.7549" y="-1179.4623" font-family="Times,serif" font-size="11.00" fill="#c0c0c0">Admins</text>
</g>
<g id="clust22" class="cluster">
<title>cluster_\Firesphere\SolrSearch\Extensions</title>
<path fill="none" stroke="#c0c0c0" d="M604.2549,-986.2623C604.2549,-986.2623 741.2549,-986.2623 741.2549,-986.2623 747.2549,-986.2623 753.2549,-992.2623 753.2549,-998.2623 753.2549,-998.2623 753.2549,-1100.2623 753.2549,-1100.2623 753.2549,-1106.2623 747.2549,-1112.2623 741.2549,-1112.2623 741.2549,-1112.2623 604.2549,-1112.2623 604.2549,-1112.2623 598.2549,-1112.2623 592.2549,-1106.2623 592.2549,-1100.2623 592.2549,-1100.2623 592.2549,-998.2623 592.2549,-998.2623 592.2549,-992.2623 598.2549,-986.2623 604.2549,-986.2623"/>
<text text-anchor="middle" x="672.7549" y="-1099.4623" font-family="Times,serif" font-size="11.00" fill="#c0c0c0">Extensions</text>
</g>
<g id="clust23" class="cluster">
<title>cluster_\Firesphere\SolrSearch\Helpers</title>
<path fill="none" stroke="#c0c0c0" d="M624.7549,-690.2623C624.7549,-690.2623 720.7549,-690.2623 720.7549,-690.2623 726.7549,-690.2623 732.7549,-696.2623 732.7549,-702.2623 732.7549,-702.2623 732.7549,-966.2623 732.7549,-966.2623 732.7549,-972.2623 726.7549,-978.2623 720.7549,-978.2623 720.7549,-978.2623 624.7549,-978.2623 624.7549,-978.2623 618.7549,-978.2623 612.7549,-972.2623 612.7549,-966.2623 612.7549,-966.2623 612.7549,-702.2623 612.7549,-702.2623 612.7549,-696.2623 618.7549,-690.2623 624.7549,-690.2623"/>
<text text-anchor="middle" x="672.7549" y="-965.4623" font-family="Times,serif" font-size="11.00" fill="#c0c0c0">Helpers</text>
</g>
<g id="clust24" class="cluster">
<title>cluster_\Firesphere\SolrSearch\Services</title>
<path fill="none" stroke="#c0c0c0" d="M617.7549,-610.2623C617.7549,-610.2623 727.7549,-610.2623 727.7549,-610.2623 733.7549,-610.2623 739.7549,-616.2623 739.7549,-622.2623 739.7549,-622.2623 739.7549,-670.2623 739.7549,-670.2623 739.7549,-676.2623 733.7549,-682.2623 727.7549,-682.2623 727.7549,-682.2623 617.7549,-682.2623 617.7549,-682.2623 611.7549,-682.2623 605.7549,-676.2623 605.7549,-670.2623 605.7549,-670.2623 605.7549,-622.2623 605.7549,-622.2623 605.7549,-616.2623 611.7549,-610.2623 617.7549,-610.2623"/>
<text text-anchor="middle" x="672.7549" y="-669.4623" font-family="Times,serif" font-size="11.00" fill="#c0c0c0">Services</text>
</g>
<g id="clust25" class="cluster">
<title>cluster_\Firesphere\SolrSearch\Tasks</title>
<path fill="none" stroke="#c0c0c0" d="M597.7549,-368.2623C597.7549,-368.2623 747.7549,-368.2623 747.7549,-368.2623 753.7549,-368.2623 759.7549,-374.2623 759.7549,-380.2623 759.7549,-380.2623 759.7549,-590.2623 759.7549,-590.2623 759.7549,-596.2623 753.7549,-602.2623 747.7549,-602.2623 747.7549,-602.2623 597.7549,-602.2623 597.7549,-602.2623 591.7549,-602.2623 585.7549,-596.2623 585.7549,-590.2623 585.7549,-590.2623 585.7549,-380.2623 585.7549,-380.2623 585.7549,-374.2623 591.7549,-368.2623 597.7549,-368.2623"/>
<text text-anchor="middle" x="672.7549" y="-589.4623" font-family="Times,serif" font-size="11.00" fill="#c0c0c0">Tasks</text>
</g>
<g id="clust26" class="cluster">
<title>cluster_\Firesphere\SolrSearch\Models</title>
<path fill="none" stroke="#c0c0c0" d="M624.7549,-180.2623C624.7549,-180.2623 720.7549,-180.2623 720.7549,-180.2623 726.7549,-180.2623 732.7549,-186.2623 732.7549,-192.2623 732.7549,-192.2623 732.7549,-348.2623 732.7549,-348.2623 732.7549,-354.2623 726.7549,-360.2623 720.7549,-360.2623 720.7549,-360.2623 624.7549,-360.2623 624.7549,-360.2623 618.7549,-360.2623 612.7549,-354.2623 612.7549,-348.2623 612.7549,-348.2623 612.7549,-192.2623 612.7549,-192.2623 612.7549,-186.2623 618.7549,-180.2623 624.7549,-180.2623"/>
<text text-anchor="middle" x="672.7549" y="-347.4623" font-family="Times,serif" font-size="11.00" fill="#c0c0c0">Models</text>
</g>
<g id="clust27" class="cluster">
<title>cluster_\Firesphere\SolrFluent</title>
<path fill="none" stroke="#c0c0c0" d="M836.7549,-670.2623C836.7549,-670.2623 1016.7549,-670.2623 1016.7549,-670.2623 1022.7549,-670.2623 1028.7549,-676.2623 1028.7549,-682.2623 1028.7549,-682.2623 1028.7549,-954.2623 1028.7549,-954.2623 1028.7549,-960.2623 1022.7549,-966.2623 1016.7549,-966.2623 1016.7549,-966.2623 836.7549,-966.2623 836.7549,-966.2623 830.7549,-966.2623 824.7549,-960.2623 824.7549,-954.2623 824.7549,-954.2623 824.7549,-682.2623 824.7549,-682.2623 824.7549,-676.2623 830.7549,-670.2623 836.7549,-670.2623"/>
<text text-anchor="middle" x="926.7549" y="-953.4623" font-family="Times,serif" font-size="11.00" fill="#c0c0c0">SolrFluent</text>
</g>
<g id="clust28" class="cluster">
<title>cluster_\Firesphere\SolrFluent\States</title>
<path fill="none" stroke="#c0c0c0" d="M871.7549,-866.2623C871.7549,-866.2623 981.7549,-866.2623 981.7549,-866.2623 987.7549,-866.2623 993.7549,-872.2623 993.7549,-878.2623 993.7549,-878.2623 993.7549,-926.2623 993.7549,-926.2623 993.7549,-932.2623 987.7549,-938.2623 981.7549,-938.2623 981.7549,-938.2623 871.7549,-938.2623 871.7549,-938.2623 865.7549,-938.2623 859.7549,-932.2623 859.7549,-926.2623 859.7549,-926.2623 859.7549,-878.2623 859.7549,-878.2623 859.7549,-872.2623 865.7549,-866.2623 871.7549,-866.2623"/>
<text text-anchor="middle" x="926.7549" y="-925.4623" font-family="Times,serif" font-size="11.00" fill="#c0c0c0">States</text>
</g>
<g id="clust29" class="cluster">
<title>cluster_\Firesphere\SolrFluent\Extensions</title>
<path fill="none" stroke="#c0c0c0" d="M844.7549,-678.2623C844.7549,-678.2623 1008.7549,-678.2623 1008.7549,-678.2623 1014.7549,-678.2623 1020.7549,-684.2623 1020.7549,-690.2623 1020.7549,-690.2623 1020.7549,-846.2623 1020.7549,-846.2623 1020.7549,-852.2623 1014.7549,-858.2623 1008.7549,-858.2623 1008.7549,-858.2623 844.7549,-858.2623 844.7549,-858.2623 838.7549,-858.2623 832.7549,-852.2623 832.7549,-846.2623 832.7549,-846.2623 832.7549,-690.2623 832.7549,-690.2623 832.7549,-684.2623 838.7549,-678.2623 844.7549,-678.2623"/>
<text text-anchor="middle" x="926.7549" y="-845.4623" font-family="Times,serif" font-size="11.00" fill="#c0c0c0">Extensions</text>
</g>
<g id="clust30" class="cluster">
<title>cluster_\Firesphere\SolrSubsites</title>
<path fill="none" stroke="#c0c0c0" d="M857.2549,-974.2623C857.2549,-974.2623 996.2549,-974.2623 996.2549,-974.2623 1002.2549,-974.2623 1008.2549,-980.2623 1008.2549,-986.2623 1008.2549,-986.2623 1008.2549,-1150.2623 1008.2549,-1150.2623 1008.2549,-1156.2623 1002.2549,-1162.2623 996.2549,-1162.2623 996.2549,-1162.2623 857.2549,-1162.2623 857.2549,-1162.2623 851.2549,-1162.2623 845.2549,-1156.2623 845.2549,-1150.2623 845.2549,-1150.2623 845.2549,-986.2623 845.2549,-986.2623 845.2549,-980.2623 851.2549,-974.2623 857.2549,-974.2623"/>
<text text-anchor="middle" x="926.7549" y="-1149.4623" font-family="Times,serif" font-size="11.00" fill="#c0c0c0">SolrSubsites</text>
</g>
<g id="clust31" class="cluster">
<title>cluster_\Firesphere\SolrSubsites\States</title>
<path fill="none" stroke="#c0c0c0" d="M881.7549,-1062.2623C881.7549,-1062.2623 971.7549,-1062.2623 971.7549,-1062.2623 977.7549,-1062.2623 983.7549,-1068.2623 983.7549,-1074.2623 983.7549,-1074.2623 983.7549,-1122.2623 983.7549,-1122.2623 983.7549,-1128.2623 977.7549,-1134.2623 971.7549,-1134.2623 971.7549,-1134.2623 881.7549,-1134.2623 881.7549,-1134.2623 875.7549,-1134.2623 869.7549,-1128.2623 869.7549,-1122.2623 869.7549,-1122.2623 869.7549,-1074.2623 869.7549,-1074.2623 869.7549,-1068.2623 875.7549,-1062.2623 881.7549,-1062.2623"/>
<text text-anchor="middle" x="926.7549" y="-1121.4623" font-family="Times,serif" font-size="11.00" fill="#c0c0c0">States</text>
</g>
<g id="clust32" class="cluster">
<title>cluster_\Firesphere\SolrSubsites\Extensions</title>
<path fill="none" stroke="#c0c0c0" d="M865.2549,-982.2623C865.2549,-982.2623 988.2549,-982.2623 988.2549,-982.2623 994.2549,-982.2623 1000.2549,-988.2623 1000.2549,-994.2623 1000.2549,-994.2623 1000.2549,-1042.2623 1000.2549,-1042.2623 1000.2549,-1048.2623 994.2549,-1054.2623 988.2549,-1054.2623 988.2549,-1054.2623 865.2549,-1054.2623 865.2549,-1054.2623 859.2549,-1054.2623 853.2549,-1048.2623 853.2549,-1042.2623 853.2549,-1042.2623 853.2549,-994.2623 853.2549,-994.2623 853.2549,-988.2623 859.2549,-982.2623 865.2549,-982.2623"/>
<text text-anchor="middle" x="926.7549" y="-1041.4623" font-family="Times,serif" font-size="11.00" fill="#c0c0c0">Extensions</text>
</g>
<g id="clust33" class="cluster">
<title>cluster_\Firesphere\SolrPermissions</title>
<path fill="none" stroke="#c0c0c0" d="M833.2549,-392.2623C833.2549,-392.2623 1020.2549,-392.2623 1020.2549,-392.2623 1026.2549,-392.2623 1032.2549,-398.2623 1032.2549,-404.2623 1032.2549,-404.2623 1032.2549,-650.2623 1032.2549,-650.2623 1032.2549,-656.2623 1026.2549,-662.2623 1020.2549,-662.2623 1020.2549,-662.2623 833.2549,-662.2623 833.2549,-662.2623 827.2549,-662.2623 821.2549,-656.2623 821.2549,-650.2623 821.2549,-650.2623 821.2549,-404.2623 821.2549,-404.2623 821.2549,-398.2623 827.2549,-392.2623 833.2549,-392.2623"/>
<text text-anchor="middle" x="926.7549" y="-649.4623" font-family="Times,serif" font-size="11.00" fill="#c0c0c0">SolrPermissions</text>
</g>
<g id="clust34" class="cluster">
<title>cluster_\Firesphere\SolrPermissions\Extensions</title>
<path fill="none" stroke="#c0c0c0" d="M841.2549,-400.2623C841.2549,-400.2623 1012.2549,-400.2623 1012.2549,-400.2623 1018.2549,-400.2623 1024.2549,-406.2623 1024.2549,-412.2623 1024.2549,-412.2623 1024.2549,-622.2623 1024.2549,-622.2623 1024.2549,-628.2623 1018.2549,-634.2623 1012.2549,-634.2623 1012.2549,-634.2623 841.2549,-634.2623 841.2549,-634.2623 835.2549,-634.2623 829.2549,-628.2623 829.2549,-622.2623 829.2549,-622.2623 829.2549,-412.2623 829.2549,-412.2623 829.2549,-406.2623 835.2549,-400.2623 841.2549,-400.2623"/>
<text text-anchor="middle" x="926.7549" y="-621.4623" font-family="Times,serif" font-size="11.00" fill="#c0c0c0">Extensions</text>
</g>
<!-- \\SilverStripe\\FullTextSearch\\Search\\Queries\\SearchQuery -->
<g id="node1" class="node">
<title>\\SilverStripe\\FullTextSearch\\Search\\Queries\\SearchQuery</title>
<polygon fill="none" stroke="#000000" points="972.2549,-3258.2623 881.2549,-3258.2623 881.2549,-3222.2623 972.2549,-3222.2623 972.2549,-3258.2623"/>
<text text-anchor="middle" x="926.7549" y="-3237.4623" font-family="Courier,monospace" font-size="11.00" fill="#000000">SearchQuery</text>
</g>
<!-- \\Firesphere\\SolrSearch\\Queries\\BaseQuery -->
<g id="node37" class="node">
<title>\\Firesphere\\SolrSearch\\Queries\\BaseQuery</title>
<polygon fill="none" stroke="#000000" points="711.2549,-1324.2623 634.2549,-1324.2623 634.2549,-1288.2623 711.2549,-1288.2623 711.2549,-1324.2623"/>
<text text-anchor="middle" x="672.7549" y="-1303.4623" font-family="Courier,monospace" font-size="11.00" fill="#000000">BaseQuery</text>
</g>
<!-- \\SilverStripe\\FullTextSearch\\Search\\Queries\\SearchQuery&#45;&gt;\\Firesphere\\SolrSearch\\Queries\\BaseQuery -->
<g id="edge1" class="edge">
<title>\\SilverStripe\\FullTextSearch\\Search\\Queries\\SearchQuery&#45;&gt;\\Firesphere\\SolrSearch\\Queries\\BaseQuery</title>
<path fill="none" stroke="#000000" d="M881.1546,-3235.6612C859.3275,-3230.9231 835.0064,-3221.3879 821.2549,-3202.2623 761.3716,-3118.9762 837.4984,-1442.0483 781.2549,-1356.2623 767.7332,-1335.6381 743.3654,-1323.3859 721.1439,-1316.1779"/>
<polygon fill="none" stroke="#000000" points="722.0447,-1312.7944 711.4619,-1313.2986 720.0493,-1319.504 722.0447,-1312.7944"/>
</g>
<!-- \\SilverStripe\\FullTextSearch\\Solr\\Solr -->
<g id="node2" class="node">
<title>\\SilverStripe\\FullTextSearch\\Solr\\Solr</title>
<polygon fill="none" stroke="#000000" points="953.7549,-3170.2623 899.7549,-3170.2623 899.7549,-3134.2623 953.7549,-3134.2623 953.7549,-3170.2623"/>
<text text-anchor="middle" x="926.7549" y="-3149.4623" font-family="Courier,monospace" font-size="11.00" fill="#000000">Solr</text>
</g>
<!-- \\SilverStripe\\FullTextSearch\\Solr\\SolrIndex -->
<g id="node3" class="node">
<title>\\SilverStripe\\FullTextSearch\\Solr\\SolrIndex</title>
<polygon fill="none" stroke="#000000" points="968.7549,-3116.2623 884.7549,-3116.2623 884.7549,-3080.2623 968.7549,-3080.2623 968.7549,-3116.2623"/>
<text text-anchor="start" x="892.7549" y="-3101.4623" font-family="Courier,monospace" font-size="11.00" fill="#000000">«abstract»</text>
<text text-anchor="start" x="896.2549" y="-3089.4623" font-family="Courier,monospace" font-size="11.00" fill="#000000">SolrIndex</text>
</g>
<!-- \\Firesphere\\SolrSearch\\Indexes\\BaseIndex -->
<g id="node26" class="node">
<title>\\Firesphere\\SolrSearch\\Indexes\\BaseIndex</title>
<polygon fill="none" stroke="#000000" points="714.7549,-1860.2623 630.7549,-1860.2623 630.7549,-1824.2623 714.7549,-1824.2623 714.7549,-1860.2623"/>
<text text-anchor="start" x="638.7549" y="-1845.4623" font-family="Courier,monospace" font-size="11.00" fill="#000000">«abstract»</text>
<text text-anchor="start" x="642.2549" y="-1833.4623" font-family="Courier,monospace" font-size="11.00" fill="#000000">BaseIndex</text>
</g>
<!-- \\SilverStripe\\FullTextSearch\\Solr\\SolrIndex&#45;&gt;\\Firesphere\\SolrSearch\\Indexes\\BaseIndex -->
<g id="edge2" class="edge">
<title>\\SilverStripe\\FullTextSearch\\Solr\\SolrIndex&#45;&gt;\\Firesphere\\SolrSearch\\Indexes\\BaseIndex</title>
<path fill="none" stroke="#000000" d="M925.6287,-3080.0904C916.617,-2936.8876 854.6674,-1993.051 781.2549,-1892.2623 767.7088,-1873.6646 745.5292,-1861.7961 724.7419,-1854.317"/>
<polygon fill="none" stroke="#000000" points="725.6037,-1850.9153 715.0102,-1851.0846 723.3971,-1857.5584 725.6037,-1850.9153"/>
</g>
<!-- \\Firesphere\\SolrCompatibility\\Extensions\\DataObjectExtension -->
<g id="node4" class="node">
<title>\\Firesphere\\SolrCompatibility\\Extensions\\DataObjectExtension</title>
<polygon fill="none" stroke="#000000" points="999.2549,-220.2623 854.2549,-220.2623 854.2549,-184.2623 999.2549,-184.2623 999.2549,-220.2623"/>
<text text-anchor="middle" x="926.7549" y="-199.4623" font-family="Courier,monospace" font-size="11.00" fill="#000000">DataObjectExtension</text>
</g>
<!-- \\SilverStripe\\Core\\Extension -->
<g id="node64" class="node">
<title>\\SilverStripe\\Core\\Extension</title>
<ellipse fill="none" stroke="#000000" cx="254.1275" cy="-18.2623" rx="144.0747" ry="18"/>
<text text-anchor="middle" x="254.1275" y="-14.5623" font-family="Times,serif" font-size="14.00" fill="#c0c0c0">\SilverStripe\Core\Extension</text>
</g>
<!-- \\Firesphere\\SolrCompatibility\\Extensions\\DataObjectExtension&#45;&gt;\\SilverStripe\\Core\\Extension -->
<g id="edge3" class="edge">
<title>\\Firesphere\\SolrCompatibility\\Extensions\\DataObjectExtension&#45;&gt;\\SilverStripe\\Core\\Extension</title>
<path fill="none" stroke="#000000" d="M909.2812,-184.1826C883.6376,-158.7518 833.1975,-112.7887 781.2549,-88.2623 736.5953,-67.1748 716.2824,-87.5971 672.7549,-64.2623"/>
<path fill="none" stroke="#000000" d="M672.7549,-64.2623C584.7352,-17.0754 471.4652,-7.1471 384.9481,-8.1514"/>
<polygon fill="none" stroke="#000000" points="384.7408,-4.6543 374.8005,-8.3205 384.8575,-11.6533 384.7408,-4.6543"/>
</g>
<!-- \\Firesphere\\SolrCompatibility\\Extensions\\SolrCoreServiceExtension -->
<g id="node5" class="node">
<title>\\Firesphere\\SolrCompatibility\\Extensions\\SolrCoreServiceExtension</title>
<polygon fill="none" stroke="#000000" points="1016.2549,-328.2623 837.2549,-328.2623 837.2549,-292.2623 1016.2549,-292.2623 1016.2549,-328.2623"/>
<text text-anchor="middle" x="926.7549" y="-307.4623" font-family="Courier,monospace" font-size="11.00" fill="#000000">SolrCoreServiceExtension</text>
</g>
<!-- \\Firesphere\\SolrCompatibility\\Extensions\\SolrCoreServiceExtension&#45;&gt;\\SilverStripe\\Core\\Extension -->
<g id="edge4" class="edge">
<title>\\Firesphere\\SolrCompatibility\\Extensions\\SolrCoreServiceExtension&#45;&gt;\\SilverStripe\\Core\\Extension</title>
<path fill="none" stroke="#000000" d="M836.8377,-295.3488C831.1085,-292.0381 825.8198,-288.0528 821.2549,-283.2623 760.2228,-219.2135 843.3309,-151.2998 781.2549,-88.2623 746.6018,-53.0724 716.2824,-87.5971 672.7549,-64.2623"/>
</g>
<!-- \\Firesphere\\SolrCompatibility\\Extensions\\FulltextSearchExtension -->
<g id="node6" class="node">
<title>\\Firesphere\\SolrCompatibility\\Extensions\\FulltextSearchExtension</title>
<polygon fill="none" stroke="#000000" points="1012.7549,-274.2623 840.7549,-274.2623 840.7549,-238.2623 1012.7549,-238.2623 1012.7549,-274.2623"/>
<text text-anchor="middle" x="926.7549" y="-253.4623" font-family="Courier,monospace" font-size="11.00" fill="#000000">FulltextSearchExtension</text>
</g>
<!-- \\Firesphere\\SolrCompatibility\\Extensions\\FulltextSearchExtension&#45;&gt;\\SilverStripe\\Core\\Extension -->
<g id="edge5" class="edge">
<title>\\Firesphere\\SolrCompatibility\\Extensions\\FulltextSearchExtension&#45;&gt;\\SilverStripe\\Core\\Extension</title>
<path fill="none" stroke="#000000" d="M840.5088,-242.6938C833.4442,-239.148 826.8743,-234.738 821.2549,-229.2623 774.6022,-183.8015 828.6481,-132.9506 781.2549,-88.2623 745.3221,-54.3802 716.2824,-87.5971 672.7549,-64.2623"/>
</g>
<!-- \\Firesphere\\SolrSearch\\Traits\\BaseIndexTrait -->
<g id="node7" class="node">
<title>\\Firesphere\\SolrSearch\\Traits\\BaseIndexTrait</title>
<polygon fill="none" stroke="#000000" points="728.2549,-2964.2623 617.2549,-2964.2623 617.2549,-2928.2623 728.2549,-2928.2623 728.2549,-2964.2623"/>
<text text-anchor="middle" x="672.7549" y="-2943.4623" font-family="Courier,monospace" font-size="11.00" fill="#000000">BaseIndexTrait</text>
</g>
<!-- \\Firesphere\\SolrSearch\\Traits\\SolrIndexTrait -->
<g id="node8" class="node">
<title>\\Firesphere\\SolrSearch\\Traits\\SolrIndexTrait</title>
<polygon fill="none" stroke="#000000" points="728.2549,-2910.2623 617.2549,-2910.2623 617.2549,-2874.2623 728.2549,-2874.2623 728.2549,-2910.2623"/>
<text text-anchor="middle" x="672.7549" y="-2889.4623" font-family="Courier,monospace" font-size="11.00" fill="#000000">SolrIndexTrait</text>
</g>
<!-- \\Firesphere\\SolrSearch\\Traits\\CoreAdminTrait -->
<g id="node9" class="node">
<title>\\Firesphere\\SolrSearch\\Traits\\CoreAdminTrait</title>
<polygon fill="none" stroke="#000000" points="728.2549,-2856.2623 617.2549,-2856.2623 617.2549,-2820.2623 728.2549,-2820.2623 728.2549,-2856.2623"/>
<text text-anchor="middle" x="672.7549" y="-2835.4623" font-family="Courier,monospace" font-size="11.00" fill="#000000">CoreAdminTrait</text>
</g>
<!-- \\Firesphere\\SolrSearch\\Traits\\CoreServiceTrait -->
<g id="node10" class="node">
<title>\\Firesphere\\SolrSearch\\Traits\\CoreServiceTrait</title>
<polygon fill="none" stroke="#000000" points="735.2549,-2802.2623 610.2549,-2802.2623 610.2549,-2766.2623 735.2549,-2766.2623 735.2549,-2802.2623"/>
<text text-anchor="middle" x="672.7549" y="-2781.4623" font-family="Courier,monospace" font-size="11.00" fill="#000000">CoreServiceTrait</text>
</g>
<!-- \\Firesphere\\SolrSearch\\Traits\\BaseQueryTrait -->
<g id="node11" class="node">
<title>\\Firesphere\\SolrSearch\\Traits\\BaseQueryTrait</title>
<polygon fill="none" stroke="#000000" points="728.2549,-2748.2623 617.2549,-2748.2623 617.2549,-2712.2623 728.2549,-2712.2623 728.2549,-2748.2623"/>
<text text-anchor="middle" x="672.7549" y="-2727.4623" font-family="Courier,monospace" font-size="11.00" fill="#000000">BaseQueryTrait</text>
</g>
<!-- \\Firesphere\\SolrSearch\\Traits\\GetSetSchemaFactoryTrait -->
<g id="node12" class="node">
<title>\\Firesphere\\SolrSearch\\Traits\\GetSetSchemaFactoryTrait</title>
<polygon fill="none" stroke="#000000" points="762.2549,-2694.2623 583.2549,-2694.2623 583.2549,-2658.2623 762.2549,-2658.2623 762.2549,-2694.2623"/>
<text text-anchor="middle" x="672.7549" y="-2673.4623" font-family="Courier,monospace" font-size="11.00" fill="#000000">GetSetSchemaFactoryTrait</text>
</g>
<!-- \\Firesphere\\SolrSearch\\Traits\\DataResolveTrait -->
<g id="node13" class="node">
<title>\\Firesphere\\SolrSearch\\Traits\\DataResolveTrait</title>
<polygon fill="none" stroke="#000000" points="735.2549,-2640.2623 610.2549,-2640.2623 610.2549,-2604.2623 735.2549,-2604.2623 735.2549,-2640.2623"/>
<text text-anchor="middle" x="672.7549" y="-2619.4623" font-family="Courier,monospace" font-size="11.00" fill="#000000">DataResolveTrait</text>
</g>
<!-- \\Firesphere\\SolrSearch\\Traits\\SearchResultGetTrait -->
<g id="node14" class="node">
<title>\\Firesphere\\SolrSearch\\Traits\\SearchResultGetTrait</title>
<polygon fill="none" stroke="#000000" points="748.7549,-2586.2623 596.7549,-2586.2623 596.7549,-2550.2623 748.7549,-2550.2623 748.7549,-2586.2623"/>
<text text-anchor="middle" x="672.7549" y="-2565.4623" font-family="Courier,monospace" font-size="11.00" fill="#000000">SearchResultGetTrait</text>
</g>
<!-- \\Firesphere\\SolrSearch\\Traits\\SearchResultSetTrait -->
<g id="node15" class="node">
<title>\\Firesphere\\SolrSearch\\Traits\\SearchResultSetTrait</title>
<polygon fill="none" stroke="#000000" points="748.7549,-2532.2623 596.7549,-2532.2623 596.7549,-2496.2623 748.7549,-2496.2623 748.7549,-2532.2623"/>
<text text-anchor="middle" x="672.7549" y="-2511.4623" font-family="Courier,monospace" font-size="11.00" fill="#000000">SearchResultSetTrait</text>
</g>
<!-- \\Firesphere\\SolrSearch\\Traits\\DocumentFactoryTrait -->
<g id="node16" class="node">
<title>\\Firesphere\\SolrSearch\\Traits\\DocumentFactoryTrait</title>
<polygon fill="none" stroke="#000000" points="748.7549,-2478.2623 596.7549,-2478.2623 596.7549,-2442.2623 748.7549,-2442.2623 748.7549,-2478.2623"/>
<text text-anchor="middle" x="672.7549" y="-2457.4623" font-family="Courier,monospace" font-size="11.00" fill="#000000">DocumentFactoryTrait</text>
</g>
<!-- \\Firesphere\\SolrSearch\\Traits\\GetterSetterTrait -->
<g id="node17" class="node">
<title>\\Firesphere\\SolrSearch\\Traits\\GetterSetterTrait</title>
<polygon fill="none" stroke="#000000" points="738.2549,-2424.2623 607.2549,-2424.2623 607.2549,-2388.2623 738.2549,-2388.2623 738.2549,-2424.2623"/>
<text text-anchor="middle" x="672.7549" y="-2403.4623" font-family="Courier,monospace" font-size="11.00" fill="#000000">GetterSetterTrait</text>
</g>
<!-- \\Firesphere\\SolrSearch\\Traits\\QueryComponentFacetTrait -->
<g id="node18" class="node">
<title>\\Firesphere\\SolrSearch\\Traits\\QueryComponentFacetTrait</title>
<polygon fill="none" stroke="#000000" points="762.2549,-2370.2623 583.2549,-2370.2623 583.2549,-2334.2623 762.2549,-2334.2623 762.2549,-2370.2623"/>
<text text-anchor="middle" x="672.7549" y="-2349.4623" font-family="Courier,monospace" font-size="11.00" fill="#000000">QueryComponentFacetTrait</text>
</g>
<!-- \\Firesphere\\SolrSearch\\Traits\\QueryComponentBoostTrait -->
<g id="node19" class="node">
<title>\\Firesphere\\SolrSearch\\Traits\\QueryComponentBoostTrait</title>
<polygon fill="none" stroke="#000000" points="762.2549,-2316.2623 583.2549,-2316.2623 583.2549,-2280.2623 762.2549,-2280.2623 762.2549,-2316.2623"/>
<text text-anchor="middle" x="672.7549" y="-2295.4623" font-family="Courier,monospace" font-size="11.00" fill="#000000">QueryComponentBoostTrait</text>
</g>
<!-- \\Firesphere\\SolrSearch\\Traits\\QueryComponentFilterTrait -->
<g id="node20" class="node">
<title>\\Firesphere\\SolrSearch\\Traits\\QueryComponentFilterTrait</title>
<polygon fill="none" stroke="#000000" points="765.2549,-2262.2623 580.2549,-2262.2623 580.2549,-2226.2623 765.2549,-2226.2623 765.2549,-2262.2623"/>
<text text-anchor="middle" x="672.7549" y="-2241.4623" font-family="Courier,monospace" font-size="11.00" fill="#000000">QueryComponentFilterTrait</text>
</g>
<!-- \\Firesphere\\SolrSearch\\Traits\\LoggerTrait -->
<g id="node21" class="node">
<title>\\Firesphere\\SolrSearch\\Traits\\LoggerTrait</title>
<polygon fill="none" stroke="#000000" points="718.2549,-2208.2623 627.2549,-2208.2623 627.2549,-2172.2623 718.2549,-2172.2623 718.2549,-2208.2623"/>
<text text-anchor="middle" x="672.7549" y="-2187.4623" font-family="Courier,monospace" font-size="11.00" fill="#000000">LoggerTrait</text>
</g>
<!-- \\Firesphere\\SolrSearch\\Traits\\GetSetSearchResolverTrait -->
<g id="node22" class="node">
<title>\\Firesphere\\SolrSearch\\Traits\\GetSetSearchResolverTrait</title>
<polygon fill="none" stroke="#000000" points="765.2549,-2154.2623 580.2549,-2154.2623 580.2549,-2118.2623 765.2549,-2118.2623 765.2549,-2154.2623"/>
<text text-anchor="middle" x="672.7549" y="-2133.4623" font-family="Courier,monospace" font-size="11.00" fill="#000000">GetSetSearchResolverTrait</text>
</g>
<!-- \\Firesphere\\SolrSearch\\Stores\\PostConfigStore -->
<g id="node23" class="node">
<title>\\Firesphere\\SolrSearch\\Stores\\PostConfigStore</title>
<polygon fill="none" stroke="#000000" points="731.7549,-2074.2623 613.7549,-2074.2623 613.7549,-2038.2623 731.7549,-2038.2623 731.7549,-2074.2623"/>
<text text-anchor="middle" x="672.7549" y="-2053.4623" font-family="Courier,monospace" font-size="11.00" fill="#000000">PostConfigStore</text>
</g>
<!-- \\Firesphere\\SolrSearch\\Interfaces\\ConfigStore -->
<g id="node34" class="node">
<title>\\Firesphere\\SolrSearch\\Interfaces\\ConfigStore</title>
<polygon fill="none" stroke="#000000" points="299.6275,-2020.2623 208.6275,-2020.2623 208.6275,-1984.2623 299.6275,-1984.2623 299.6275,-2020.2623"/>
<text text-anchor="middle" x="254.1275" y="-1999.4623" font-family="Courier,monospace" font-size="11.00" fill="#000000">ConfigStore</text>
</g>
<!-- \\Firesphere\\SolrSearch\\Stores\\PostConfigStore&#45;&gt;\\Firesphere\\SolrSearch\\Interfaces\\ConfigStore -->
<g id="edge6" class="edge">
<title>\\Firesphere\\SolrSearch\\Stores\\PostConfigStore&#45;&gt;\\Firesphere\\SolrSearch\\Interfaces\\ConfigStore</title>
<path fill="none" stroke="#000000" stroke-dasharray="1,5" d="M613.6637,-2048.6399C532.8854,-2038.2201 389.0185,-2019.6623 309.9722,-2009.4658"/>
<polygon fill="none" stroke="#000000" points="310.0944,-2005.9527 299.7287,-2008.1445 309.1988,-2012.8952 310.0944,-2005.9527"/>
</g>
<!-- \\Firesphere\\SolrSearch\\Stores\\FileConfigStore -->
<g id="node24" class="node">
<title>\\Firesphere\\SolrSearch\\Stores\\FileConfigStore</title>
<polygon fill="none" stroke="#000000" points="731.7549,-2020.2623 613.7549,-2020.2623 613.7549,-1984.2623 731.7549,-1984.2623 731.7549,-2020.2623"/>
<text text-anchor="middle" x="672.7549" y="-1999.4623" font-family="Courier,monospace" font-size="11.00" fill="#000000">FileConfigStore</text>
</g>
<!-- \\Firesphere\\SolrSearch\\Stores\\FileConfigStore&#45;&gt;\\Firesphere\\SolrSearch\\Interfaces\\ConfigStore -->
<g id="edge7" class="edge">
<title>\\Firesphere\\SolrSearch\\Stores\\FileConfigStore&#45;&gt;\\Firesphere\\SolrSearch\\Interfaces\\ConfigStore</title>
<path fill="none" stroke="#000000" stroke-dasharray="1,5" d="M613.6637,-2002.2623C532.8854,-2002.2623 389.0185,-2002.2623 309.9722,-2002.2623"/>
<polygon fill="none" stroke="#000000" points="309.7288,-1998.7624 299.7287,-2002.2623 309.7287,-2005.7624 309.7288,-1998.7624"/>
</g>
<!-- \\Firesphere\\SolrSearch\\Results\\SearchResult -->
<g id="node25" class="node">
<title>\\Firesphere\\SolrSearch\\Results\\SearchResult</title>
<polygon fill="none" stroke="#000000" points="721.7549,-1940.2623 623.7549,-1940.2623 623.7549,-1904.2623 721.7549,-1904.2623 721.7549,-1940.2623"/>
<text text-anchor="middle" x="672.7549" y="-1919.4623" font-family="Courier,monospace" font-size="11.00" fill="#000000">SearchResult</text>
</g>
<!-- \\SilverStripe\\View\\ViewableData -->
<g id="node65" class="node">
<title>\\SilverStripe\\View\\ViewableData</title>
<ellipse fill="none" stroke="#000000" cx="254.1275" cy="-126.2623" rx="163.2712" ry="18"/>
<text text-anchor="middle" x="254.1275" y="-122.5623" font-family="Times,serif" font-size="14.00" fill="#c0c0c0">\SilverStripe\View\ViewableData</text>
</g>
<!-- \\Firesphere\\SolrSearch\\Results\\SearchResult&#45;&gt;\\SilverStripe\\View\\ViewableData -->
<g id="edge8" class="edge">
<title>\\Firesphere\\SolrSearch\\Results\\SearchResult&#45;&gt;\\SilverStripe\\View\\ViewableData</title>
<path fill="none" stroke="#000000" d="M623.7057,-1918.421C605.1117,-1914.4827 585.3007,-1906.8555 572.2549,-1892.2623 328.3671,-1619.4455 264.1939,-360.1164 255.2816,-154.644"/>
<polygon fill="none" stroke="#000000" points="258.7672,-154.2277 254.8451,-144.3856 251.7735,-154.5254 258.7672,-154.2277"/>
</g>
<!-- \\Firesphere\\SolrSearch\\Jobs\\SolrIndexJob -->
<g id="node27" class="node">
<title>\\Firesphere\\SolrSearch\\Jobs\\SolrIndexJob</title>
<polygon fill="none" stroke="#000000" points="721.7549,-1780.2623 623.7549,-1780.2623 623.7549,-1744.2623 721.7549,-1744.2623 721.7549,-1780.2623"/>
<text text-anchor="middle" x="672.7549" y="-1759.4623" font-family="Courier,monospace" font-size="11.00" fill="#000000">SolrIndexJob</text>
</g>
<!-- \\Symbiote\\QueuedJobs\\Services\\AbstractQueuedJob -->
<g id="node66" class="node">
<title>\\Symbiote\\QueuedJobs\\Services\\AbstractQueuedJob</title>
<ellipse fill="none" stroke="#000000" cx="254.1275" cy="-3694.2623" rx="254.255" ry="18"/>
<text text-anchor="middle" x="254.1275" y="-3690.5623" font-family="Times,serif" font-size="14.00" fill="#c0c0c0">\Symbiote\QueuedJobs\Services\AbstractQueuedJob</text>
</g>
<!-- \\Firesphere\\SolrSearch\\Jobs\\SolrIndexJob&#45;&gt;\\Symbiote\\QueuedJobs\\Services\\AbstractQueuedJob -->
<g id="edge9" class="edge">
<title>\\Firesphere\\SolrSearch\\Jobs\\SolrIndexJob&#45;&gt;\\Symbiote\\QueuedJobs\\Services\\AbstractQueuedJob</title>
<path fill="none" stroke="#000000" d="M623.5572,-1774.8083C604.2261,-1782.3622 583.9083,-1794.1537 572.2549,-1812.2623 460.6497,-1985.6885 648.7892,-3516.3236 508.2549,-3667.2623 469.6978,-3708.6739 406.4896,-3715.5263 352.7597,-3711.9749"/>
<polygon fill="none" stroke="#000000" points="352.7428,-3708.4627 342.4984,-3711.165 352.192,-3715.441 352.7428,-3708.4627"/>
</g>
<!-- \\Firesphere\\SolrSearch\\Jobs\\ClearDirtyClassesJob -->
<g id="node28" class="node">
<title>\\Firesphere\\SolrSearch\\Jobs\\ClearDirtyClassesJob</title>
<polygon fill="none" stroke="#000000" points="748.7549,-1726.2623 596.7549,-1726.2623 596.7549,-1690.2623 748.7549,-1690.2623 748.7549,-1726.2623"/>
<text text-anchor="middle" x="672.7549" y="-1705.4623" font-family="Courier,monospace" font-size="11.00" fill="#000000">ClearDirtyClassesJob</text>
</g>
<!-- \\Firesphere\\SolrSearch\\Jobs\\ClearDirtyClassesJob&#45;&gt;\\Symbiote\\QueuedJobs\\Services\\AbstractQueuedJob -->
<g id="edge10" class="edge">
<title>\\Firesphere\\SolrSearch\\Jobs\\ClearDirtyClassesJob&#45;&gt;\\Symbiote\\QueuedJobs\\Services\\AbstractQueuedJob</title>
<path fill="none" stroke="#000000" d="M596.5865,-1717.2187C587.1884,-1721.3818 578.6557,-1727.1951 572.2549,-1735.2623 438.7547,-1903.5181 654.5079,-3509.9651 508.2549,-3667.2623 469.6553,-3708.7767 406.2852,-3715.578 352.4844,-3711.9751"/>
<polygon fill="none" stroke="#000000" points="352.4573,-3708.4619 342.2106,-3711.1554 351.9005,-3715.4397 352.4573,-3708.4619"/>
</g>
<!-- \\Firesphere\\SolrSearch\\Jobs\\SolrConfigureJob -->
<g id="node29" class="node">
<title>\\Firesphere\\SolrSearch\\Jobs\\SolrConfigureJob</title>
<polygon fill="none" stroke="#000000" points="735.2549,-1672.2623 610.2549,-1672.2623 610.2549,-1636.2623 735.2549,-1636.2623 735.2549,-1672.2623"/>
<text text-anchor="middle" x="672.7549" y="-1651.4623" font-family="Courier,monospace" font-size="11.00" fill="#000000">SolrConfigureJob</text>
</g>
<!-- \\Firesphere\\SolrSearch\\Jobs\\SolrConfigureJob&#45;&gt;\\Symbiote\\QueuedJobs\\Services\\AbstractQueuedJob -->
<g id="edge11" class="edge">
<title>\\Firesphere\\SolrSearch\\Jobs\\SolrConfigureJob&#45;&gt;\\Symbiote\\QueuedJobs\\Services\\AbstractQueuedJob</title>
<path fill="none" stroke="#000000" d="M610.1209,-1658.4157C595.5761,-1662.458 581.6261,-1669.4404 572.2549,-1681.2623 435.1052,-1854.2776 658.5186,-3505.5057 508.2549,-3667.2623 469.674,-3708.794 406.3039,-3715.5954 352.4984,-3711.9882"/>
<polygon fill="none" stroke="#000000" points="352.4706,-3708.4749 342.2237,-3711.1675 351.9132,-3715.4527 352.4706,-3708.4749"/>
</g>
<!-- \\Firesphere\\SolrSearch\\Forms\\SearchForm -->
<g id="node30" class="node">
<title>\\Firesphere\\SolrSearch\\Forms\\SearchForm</title>
<polygon fill="none" stroke="#000000" points="714.7549,-1592.2623 630.7549,-1592.2623 630.7549,-1556.2623 714.7549,-1556.2623 714.7549,-1592.2623"/>
<text text-anchor="middle" x="672.7549" y="-1571.4623" font-family="Courier,monospace" font-size="11.00" fill="#000000">SearchForm</text>
</g>
<!-- \\SilverStripe\\Forms\\Form -->
<g id="node67" class="node">
<title>\\SilverStripe\\Forms\\Form</title>
<ellipse fill="none" stroke="#000000" cx="254.1275" cy="-3640.2623" rx="129.1772" ry="18"/>
<text text-anchor="middle" x="254.1275" y="-3636.5623" font-family="Times,serif" font-size="14.00" fill="#c0c0c0">\SilverStripe\Forms\Form</text>
</g>
<!-- \\Firesphere\\SolrSearch\\Forms\\SearchForm&#45;&gt;\\SilverStripe\\Forms\\Form -->
<g id="edge12" class="edge">
<title>\\Firesphere\\SolrSearch\\Forms\\SearchForm&#45;&gt;\\SilverStripe\\Forms\\Form</title>
<path fill="none" stroke="#000000" d="M630.5618,-1584.2135C609.2956,-1591.5597 585.3085,-1603.9262 572.2549,-1624.2623 452.8129,-1810.3407 658.7414,-3451.258 508.2549,-3613.2623 465.5266,-3659.2609 392.3903,-3662.6574 335.5169,-3656.4944"/>
<polygon fill="none" stroke="#000000" points="335.8043,-3653.0039 325.4586,-3655.288 334.9706,-3659.954 335.8043,-3653.0039"/>
</g>
<!-- \\Firesphere\\SolrSearch\\Factories\\DocumentFactory -->
<g id="node31" class="node">
<title>\\Firesphere\\SolrSearch\\Factories\\DocumentFactory</title>
<polygon fill="none" stroke="#000000" points="731.7549,-1512.2623 613.7549,-1512.2623 613.7549,-1476.2623 731.7549,-1476.2623 731.7549,-1512.2623"/>
<text text-anchor="middle" x="672.7549" y="-1491.4623" font-family="Courier,monospace" font-size="11.00" fill="#000000">DocumentFactory</text>
</g>
<!-- \\Firesphere\\SolrSearch\\Factories\\SchemaFactory -->
<g id="node32" class="node">
<title>\\Firesphere\\SolrSearch\\Factories\\SchemaFactory</title>
<polygon fill="none" stroke="#000000" points="724.7549,-1458.2623 620.7549,-1458.2623 620.7549,-1422.2623 724.7549,-1422.2623 724.7549,-1458.2623"/>
<text text-anchor="middle" x="672.7549" y="-1437.4623" font-family="Courier,monospace" font-size="11.00" fill="#000000">SchemaFactory</text>
</g>
<!-- \\Firesphere\\SolrSearch\\Factories\\SchemaFactory&#45;&gt;\\SilverStripe\\View\\ViewableData -->
<g id="edge13" class="edge">
<title>\\Firesphere\\SolrSearch\\Factories\\SchemaFactory&#45;&gt;\\SilverStripe\\View\\ViewableData</title>
<path fill="none" stroke="#000000" d="M620.6276,-1436.8321C603.1832,-1433.1769 584.9639,-1426.2297 572.2549,-1413.2623 385.9477,-1223.1661 276.6113,-326.0279 257.2398,-154.607"/>
<polygon fill="none" stroke="#000000" points="260.7096,-154.1415 256.1177,-144.5935 253.7531,-154.9211 260.7096,-154.1415"/>
</g>
<!-- \\Firesphere\\SolrSearch\\Factories\\QueryComponentFactory -->
<g id="node33" class="node">
<title>\\Firesphere\\SolrSearch\\Factories\\QueryComponentFactory</title>
<polygon fill="none" stroke="#000000" points="751.7549,-1404.2623 593.7549,-1404.2623 593.7549,-1368.2623 751.7549,-1368.2623 751.7549,-1404.2623"/>
<text text-anchor="middle" x="672.7549" y="-1383.4623" font-family="Courier,monospace" font-size="11.00" fill="#000000">QueryComponentFactory</text>
</g>
<!-- \\Firesphere\\SolrSearch\\Interfaces\\SiteStateInterface -->
<g id="node35" class="node">
<title>\\Firesphere\\SolrSearch\\Interfaces\\SiteStateInterface</title>
<polygon fill="none" stroke="#000000" points="323.1275,-1966.2623 185.1275,-1966.2623 185.1275,-1930.2623 323.1275,-1930.2623 323.1275,-1966.2623"/>
<text text-anchor="middle" x="254.1275" y="-1945.4623" font-family="Courier,monospace" font-size="11.00" fill="#000000">SiteStateInterface</text>
</g>
<!-- \\Firesphere\\SolrSearch\\States\\SiteState -->
<g id="node36" class="node">
<title>\\Firesphere\\SolrSearch\\States\\SiteState</title>
<polygon fill="none" stroke="#000000" points="714.7549,-1244.2623 630.7549,-1244.2623 630.7549,-1208.2623 714.7549,-1208.2623 714.7549,-1244.2623"/>
<text text-anchor="start" x="638.7549" y="-1229.4623" font-family="Courier,monospace" font-size="11.00" fill="#000000">«abstract»</text>
<text text-anchor="start" x="642.2549" y="-1217.4623" font-family="Courier,monospace" font-size="11.00" fill="#000000">SiteState</text>
</g>
<!-- \\Firesphere\\SolrSearch\\Admins\\SearchAdmin -->
<g id="node38" class="node">
<title>\\Firesphere\\SolrSearch\\Admins\\SearchAdmin</title>
<polygon fill="none" stroke="#000000" points="718.2549,-1164.2623 627.2549,-1164.2623 627.2549,-1128.2623 718.2549,-1128.2623 718.2549,-1164.2623"/>
<text text-anchor="middle" x="672.7549" y="-1143.4623" font-family="Courier,monospace" font-size="11.00" fill="#000000">SearchAdmin</text>
</g>
<!-- \\SilverStripe\\Admin\\ModelAdmin -->
<g id="node68" class="node">
<title>\\SilverStripe\\Admin\\ModelAdmin</title>
<ellipse fill="none" stroke="#000000" cx="254.1275" cy="-3586.2623" rx="165.1707" ry="18"/>
<text text-anchor="middle" x="254.1275" y="-3582.5623" font-family="Times,serif" font-size="14.00" fill="#c0c0c0">\SilverStripe\Admin\ModelAdmin</text>
</g>
<!-- \\Firesphere\\SolrSearch\\Admins\\SearchAdmin&#45;&gt;\\SilverStripe\\Admin\\ModelAdmin -->
<g id="edge14" class="edge">
<title>\\Firesphere\\SolrSearch\\Admins\\SearchAdmin&#45;&gt;\\SilverStripe\\Admin\\ModelAdmin</title>
<path fill="none" stroke="#000000" d="M627.154,-1157.383C606.7578,-1164.8441 584.5751,-1176.9608 572.2549,-1196.2623 501.5964,-1306.9595 597.3879,-3462.8164 508.2549,-3559.2623 467.2912,-3603.5869 398.1055,-3608.4289 342.2577,-3603.2332"/>
<polygon fill="none" stroke="#000000" points="342.3061,-3599.719 331.9947,-3602.1535 341.5736,-3606.6806 342.3061,-3599.719"/>
</g>
<!-- \\Firesphere\\SolrSearch\\Extensions\\DataObjectExtension -->
<g id="node39" class="node">
<title>\\Firesphere\\SolrSearch\\Extensions\\DataObjectExtension</title>
<polygon fill="none" stroke="#000000" points="745.2549,-1084.2623 600.2549,-1084.2623 600.2549,-1048.2623 745.2549,-1048.2623 745.2549,-1084.2623"/>
<text text-anchor="middle" x="672.7549" y="-1063.4623" font-family="Courier,monospace" font-size="11.00" fill="#000000">DataObjectExtension</text>
</g>
<!-- \\SilverStripe\\ORM\\DataExtension -->
<g id="node69" class="node">
<title>\\SilverStripe\\ORM\\DataExtension</title>
<ellipse fill="none" stroke="#000000" cx="254.1275" cy="-72.2623" rx="167.8704" ry="18"/>
<text text-anchor="middle" x="254.1275" y="-68.5623" font-family="Times,serif" font-size="14.00" fill="#c0c0c0">\SilverStripe\ORM\DataExtension</text>
</g>
<!-- \\Firesphere\\SolrSearch\\Extensions\\DataObjectExtension&#45;&gt;\\SilverStripe\\ORM\\DataExtension -->
<g id="edge15" class="edge">
<title>\\Firesphere\\SolrSearch\\Extensions\\DataObjectExtension&#45;&gt;\\SilverStripe\\ORM\\DataExtension</title>
<path fill="none" stroke="#000000" d="M600.0974,-1058.4534C589.3962,-1054.2502 579.5411,-1048.1237 572.2549,-1039.2623 439.2791,-877.5394 653.474,-250.0875 508.2549,-99.2623 467.2624,-56.6873 400.1226,-51.1093 345.1461,-55.5534"/>
<polygon fill="none" stroke="#000000" points="344.6647,-52.083 335.0314,-56.4932 345.3124,-59.053 344.6647,-52.083"/>
</g>
<!-- \\Firesphere\\SolrSearch\\Extensions\\GridFieldExtension -->
<g id="node40" class="node">
<title>\\Firesphere\\SolrSearch\\Extensions\\GridFieldExtension</title>
<polygon fill="none" stroke="#000000" points="741.7549,-1030.2623 603.7549,-1030.2623 603.7549,-994.2623 741.7549,-994.2623 741.7549,-1030.2623"/>
<text text-anchor="middle" x="672.7549" y="-1009.4623" font-family="Courier,monospace" font-size="11.00" fill="#000000">GridFieldExtension</text>
</g>
<!-- \\Firesphere\\SolrSearch\\Extensions\\GridFieldExtension&#45;&gt;\\SilverStripe\\Core\\Extension -->
<g id="edge16" class="edge">
<title>\\Firesphere\\SolrSearch\\Extensions\\GridFieldExtension&#45;&gt;\\SilverStripe\\Core\\Extension</title>
<path fill="none" stroke="#000000" d="M603.5499,-1003.6281C591.4943,-999.0679 580.2713,-992.2887 572.2549,-982.2623 441.9233,-819.2517 653.029,-195.5926 508.2549,-45.2623 466.1713,-1.5635 396.5412,3.1561 340.7985,-1.9303"/>
<polygon fill="none" stroke="#000000" points="340.1492,1.5213 330.5615,-2.987 340.868,-5.4417 340.1492,1.5213"/>
</g>
<!-- \\Firesphere\\SolrSearch\\Helpers\\DataResolver -->
<g id="node41" class="node">
<title>\\Firesphere\\SolrSearch\\Helpers\\DataResolver</title>
<polygon fill="none" stroke="#000000" points="721.7549,-950.2623 623.7549,-950.2623 623.7549,-914.2623 721.7549,-914.2623 721.7549,-950.2623"/>
<text text-anchor="middle" x="672.7549" y="-929.4623" font-family="Courier,monospace" font-size="11.00" fill="#000000">DataResolver</text>
</g>
<!-- \\Firesphere\\SolrSearch\\Helpers\\Statics -->
<g id="node42" class="node">
<title>\\Firesphere\\SolrSearch\\Helpers\\Statics</title>
<polygon fill="none" stroke="#000000" points="704.7549,-896.2623 640.7549,-896.2623 640.7549,-860.2623 704.7549,-860.2623 704.7549,-896.2623"/>
<text text-anchor="middle" x="672.7549" y="-875.4623" font-family="Courier,monospace" font-size="11.00" fill="#000000">Statics</text>
</g>
<!-- \\Firesphere\\SolrSearch\\Helpers\\Synonyms -->
<g id="node43" class="node">
<title>\\Firesphere\\SolrSearch\\Helpers\\Synonyms</title>
<polygon fill="none" stroke="#000000" points="708.2549,-842.2623 637.2549,-842.2623 637.2549,-806.2623 708.2549,-806.2623 708.2549,-842.2623"/>
<text text-anchor="middle" x="672.7549" y="-821.4623" font-family="Courier,monospace" font-size="11.00" fill="#000000">Synonyms</text>
</g>
<!-- \\Firesphere\\SolrSearch\\Helpers\\SolrLogger -->
<g id="node44" class="node">
<title>\\Firesphere\\SolrSearch\\Helpers\\SolrLogger</title>
<polygon fill="none" stroke="#000000" points="714.7549,-788.2623 630.7549,-788.2623 630.7549,-752.2623 714.7549,-752.2623 714.7549,-788.2623"/>
<text text-anchor="middle" x="672.7549" y="-767.4623" font-family="Courier,monospace" font-size="11.00" fill="#000000">SolrLogger</text>
</g>
<!-- \\Firesphere\\SolrSearch\\Helpers\\FieldResolver -->
<g id="node45" class="node">
<title>\\Firesphere\\SolrSearch\\Helpers\\FieldResolver</title>
<polygon fill="none" stroke="#000000" points="724.7549,-734.2623 620.7549,-734.2623 620.7549,-698.2623 724.7549,-698.2623 724.7549,-734.2623"/>
<text text-anchor="middle" x="672.7549" y="-713.4623" font-family="Courier,monospace" font-size="11.00" fill="#000000">FieldResolver</text>
</g>
<!-- \\Firesphere\\SolrSearch\\Services\\SolrCoreService -->
<g id="node46" class="node">
<title>\\Firesphere\\SolrSearch\\Services\\SolrCoreService</title>
<polygon fill="none" stroke="#000000" points="731.7549,-654.2623 613.7549,-654.2623 613.7549,-618.2623 731.7549,-618.2623 731.7549,-654.2623"/>
<text text-anchor="middle" x="672.7549" y="-633.4623" font-family="Courier,monospace" font-size="11.00" fill="#000000">SolrCoreService</text>
</g>
<!-- \\Firesphere\\SolrSearch\\Tasks\\SolrIndexTask -->
<g id="node47" class="node">
<title>\\Firesphere\\SolrSearch\\Tasks\\SolrIndexTask</title>
<polygon fill="none" stroke="#000000" points="724.7549,-574.2623 620.7549,-574.2623 620.7549,-538.2623 724.7549,-538.2623 724.7549,-574.2623"/>
<text text-anchor="middle" x="672.7549" y="-553.4623" font-family="Courier,monospace" font-size="11.00" fill="#000000">SolrIndexTask</text>
</g>
<!-- \\SilverStripe\\Dev\\BuildTask -->
<g id="node70" class="node">
<title>\\SilverStripe\\Dev\\BuildTask</title>
<ellipse fill="none" stroke="#000000" cx="254.1275" cy="-3532.2623" rx="139.9756" ry="18"/>
<text text-anchor="middle" x="254.1275" y="-3528.5623" font-family="Times,serif" font-size="14.00" fill="#c0c0c0">\SilverStripe\Dev\BuildTask</text>
</g>
<!-- \\Firesphere\\SolrSearch\\Tasks\\SolrIndexTask&#45;&gt;\\SilverStripe\\Dev\\BuildTask -->
<g id="edge17" class="edge">
<title>\\Firesphere\\SolrSearch\\Tasks\\SolrIndexTask&#45;&gt;\\SilverStripe\\Dev\\BuildTask</title>
<path fill="none" stroke="#000000" d="M620.5528,-569.8966C602.0987,-577.471 583.2213,-588.9866 572.2549,-606.2623 485.9196,-742.2687 617.2961,-3386.6808 508.2549,-3505.2623 466.1842,-3551.0138 394.0586,-3554.778 337.3696,-3548.8073"/>
<polygon fill="none" stroke="#000000" points="337.6743,-3545.3192 327.3353,-3547.6335 336.8609,-3552.2718 337.6743,-3545.3192"/>
</g>
<!-- \\Firesphere\\SolrSearch\\Tasks\\ClearDirtyClassesTask -->
<g id="node48" class="node">
<title>\\Firesphere\\SolrSearch\\Tasks\\ClearDirtyClassesTask</title>
<polygon fill="none" stroke="#000000" points="751.7549,-520.2623 593.7549,-520.2623 593.7549,-484.2623 751.7549,-484.2623 751.7549,-520.2623"/>
<text text-anchor="middle" x="672.7549" y="-499.4623" font-family="Courier,monospace" font-size="11.00" fill="#000000">ClearDirtyClassesTask</text>
</g>
<!-- \\Firesphere\\SolrSearch\\Tasks\\ClearDirtyClassesTask&#45;&gt;\\SilverStripe\\Dev\\BuildTask -->
<g id="edge18" class="edge">
<title>\\Firesphere\\SolrSearch\\Tasks\\ClearDirtyClassesTask&#45;&gt;\\SilverStripe\\Dev\\BuildTask</title>
<path fill="none" stroke="#000000" d="M593.5681,-512.5252C585.3484,-516.5776 577.9399,-522.0112 572.2549,-529.2623 470.2213,-659.4041 620.1562,-3383.5008 508.2549,-3505.2623 466.1973,-3551.0258 394.0704,-3554.7889 337.3776,-3548.8147"/>
<polygon fill="none" stroke="#000000" points="337.6817,-3545.3265 327.3427,-3547.6403 336.868,-3552.279 337.6817,-3545.3265"/>
</g>
<!-- \\Firesphere\\SolrSearch\\Tasks\\ClearErrorsTask -->
<g id="node49" class="node">
<title>\\Firesphere\\SolrSearch\\Tasks\\ClearErrorsTask</title>
<polygon fill="none" stroke="#000000" points="731.7549,-466.2623 613.7549,-466.2623 613.7549,-430.2623 731.7549,-430.2623 731.7549,-466.2623"/>
<text text-anchor="middle" x="672.7549" y="-445.4623" font-family="Courier,monospace" font-size="11.00" fill="#000000">ClearErrorsTask</text>
</g>
<!-- \\Firesphere\\SolrSearch\\Tasks\\ClearErrorsTask&#45;&gt;\\SilverStripe\\Dev\\BuildTask -->
<g id="edge19" class="edge">
<title>\\Firesphere\\SolrSearch\\Tasks\\ClearErrorsTask&#45;&gt;\\SilverStripe\\Dev\\BuildTask</title>
<path fill="none" stroke="#000000" d="M613.6997,-451.3896C597.8551,-455.2487 582.3405,-462.3932 572.2549,-475.2623 468.3962,-607.7844 622.162,-3381.2706 508.2549,-3505.2623 466.2061,-3551.0338 394.0784,-3554.7962 337.383,-3548.8196"/>
<polygon fill="none" stroke="#000000" points="337.6867,-3545.3314 327.3476,-3547.6448 336.8727,-3552.2839 337.6867,-3545.3314"/>
</g>
<!-- \\Firesphere\\SolrSearch\\Tasks\\SolrConfigureTask -->
<g id="node50" class="node">
<title>\\Firesphere\\SolrSearch\\Tasks\\SolrConfigureTask</title>
<polygon fill="none" stroke="#000000" points="738.2549,-412.2623 607.2549,-412.2623 607.2549,-376.2623 738.2549,-376.2623 738.2549,-412.2623"/>
<text text-anchor="middle" x="672.7549" y="-391.4623" font-family="Courier,monospace" font-size="11.00" fill="#000000">SolrConfigureTask</text>
</g>
<!-- \\Firesphere\\SolrSearch\\Tasks\\SolrConfigureTask&#45;&gt;\\SilverStripe\\Dev\\BuildTask -->
<g id="edge20" class="edge">
<title>\\Firesphere\\SolrSearch\\Tasks\\SolrConfigureTask&#45;&gt;\\SilverStripe\\Dev\\BuildTask</title>
<path fill="none" stroke="#000000" d="M607.1636,-399.1808C593.67,-403.3293 580.9454,-410.1691 572.2549,-421.2623 466.571,-556.1647 624.1678,-3379.0404 508.2549,-3505.2623 466.2145,-3551.0416 394.086,-3554.8032 337.3882,-3548.8244"/>
<polygon fill="none" stroke="#000000" points="337.6916,-3545.3361 327.3523,-3547.6492 336.8773,-3552.2886 337.6916,-3545.3361"/>
</g>
<!-- \\Firesphere\\SolrSearch\\Models\\DirtyClass -->
<g id="node51" class="node">
<title>\\Firesphere\\SolrSearch\\Models\\DirtyClass</title>
<polygon fill="none" stroke="#000000" points="714.7549,-332.2623 630.7549,-332.2623 630.7549,-296.2623 714.7549,-296.2623 714.7549,-332.2623"/>
<text text-anchor="middle" x="672.7549" y="-311.4623" font-family="Courier,monospace" font-size="11.00" fill="#000000">DirtyClass</text>
</g>
<!-- \\SilverStripe\\ORM\\DataObject -->
<g id="node71" class="node">
<title>\\SilverStripe\\ORM\\DataObject</title>
<ellipse fill="none" stroke="#000000" cx="254.1275" cy="-3478.2623" rx="152.9733" ry="18"/>
<text text-anchor="middle" x="254.1275" y="-3474.5623" font-family="Times,serif" font-size="14.00" fill="#c0c0c0">\SilverStripe\ORM\DataObject</text>
</g>
<!-- \\Firesphere\\SolrSearch\\Models\\DirtyClass&#45;&gt;\\SilverStripe\\ORM\\DataObject -->
<g id="edge21" class="edge">
<title>\\Firesphere\\SolrSearch\\Models\\DirtyClass&#45;&gt;\\SilverStripe\\ORM\\DataObject</title>
<path fill="none" stroke="#000000" d="M630.7263,-324.0658C609.3691,-331.3834 585.2441,-343.7695 572.2549,-364.2623 480.4208,-509.1463 624.2792,-3324.9165 508.2549,-3451.2623 466.7812,-3496.4254 396.0238,-3500.6946 339.6876,-3495.0609"/>
<polygon fill="none" stroke="#000000" points="340.0323,-3491.5777 329.7055,-3493.9457 339.2551,-3498.5344 340.0323,-3491.5777"/>
</g>
<!-- \\Firesphere\\SolrSearch\\Models\\SearchSynonym -->
<g id="node52" class="node">
<title>\\Firesphere\\SolrSearch\\Models\\SearchSynonym</title>
<polygon fill="none" stroke="#000000" points="724.7549,-278.2623 620.7549,-278.2623 620.7549,-242.2623 724.7549,-242.2623 724.7549,-278.2623"/>
<text text-anchor="middle" x="672.7549" y="-257.4623" font-family="Courier,monospace" font-size="11.00" fill="#000000">SearchSynonym</text>
</g>
<!-- \\Firesphere\\SolrSearch\\Models\\SearchSynonym&#45;&gt;\\SilverStripe\\ORM\\DataObject -->
<g id="edge22" class="edge">
<title>\\Firesphere\\SolrSearch\\Models\\SearchSynonym&#45;&gt;\\SilverStripe\\ORM\\DataObject</title>
<path fill="none" stroke="#000000" d="M620.5262,-261.9172C602.4165,-265.3081 583.7827,-272.5395 572.2549,-287.2623 463.867,-425.691 627.1393,-3321.7364 508.2549,-3451.2623 466.7926,-3496.4359 396.0343,-3500.7043 339.6949,-3495.0675"/>
<polygon fill="none" stroke="#000000" points="340.0391,-3491.5843 329.7122,-3493.9518 339.2615,-3498.541 340.0391,-3491.5843"/>
</g>
<!-- \\Firesphere\\SolrSearch\\Models\\SolrLog -->
<g id="node53" class="node">
<title>\\Firesphere\\SolrSearch\\Models\\SolrLog</title>
<polygon fill="none" stroke="#000000" points="704.7549,-224.2623 640.7549,-224.2623 640.7549,-188.2623 704.7549,-188.2623 704.7549,-224.2623"/>
<text text-anchor="middle" x="672.7549" y="-203.4623" font-family="Courier,monospace" font-size="11.00" fill="#000000">SolrLog</text>
</g>
<!-- \\Firesphere\\SolrSearch\\Models\\SolrLog&#45;&gt;\\SilverStripe\\ORM\\DataObject -->
<g id="edge23" class="edge">
<title>\\Firesphere\\SolrSearch\\Models\\SolrLog&#45;&gt;\\SilverStripe\\ORM\\DataObject</title>
<path fill="none" stroke="#000000" d="M640.6052,-205.5084C617.6713,-206.8773 588.1787,-212.9179 572.2549,-233.2623 462.0417,-374.0713 629.1452,-3319.5061 508.2549,-3451.2623 466.8002,-3496.4429 396.0414,-3500.7107 339.6997,-3495.072"/>
<polygon fill="none" stroke="#000000" points="340.0436,-3491.5887 329.7166,-3493.9559 339.2658,-3498.5454 340.0436,-3491.5887"/>
</g>
<!-- \\SilverStripe\\Security\\PermissionProvider -->
<g id="node72" class="node">
<title>\\SilverStripe\\Security\\PermissionProvider</title>
<ellipse fill="none" stroke="#000000" cx="254.1275" cy="-3424.2623" rx="206.0634" ry="18"/>
<text text-anchor="middle" x="254.1275" y="-3420.5623" font-family="Times,serif" font-size="14.00" fill="#c0c0c0">\SilverStripe\Security\PermissionProvider</text>
</g>
<!-- \\Firesphere\\SolrSearch\\Models\\SolrLog&#45;&gt;\\SilverStripe\\Security\\PermissionProvider -->
<g id="edge24" class="edge">
<title>\\Firesphere\\SolrSearch\\Models\\SolrLog&#45;&gt;\\SilverStripe\\Security\\PermissionProvider</title>
<path fill="none" stroke="#000000" stroke-dasharray="1,5" d="M640.6958,-205.5799C617.8082,-206.9852 588.3337,-213.0402 572.2549,-233.2623 509.3231,-312.4106 519.2709,-1951.746 508.2549,-2052.2623 448.3898,-2598.5032 295.0852,-3253.9469 260.9376,-3396.1764"/>
<polygon fill="none" stroke="#000000" points="257.4535,-3395.6951 258.5151,-3406.2366 264.259,-3397.3339 257.4535,-3395.6951"/>
</g>
<!-- \\Firesphere\\SolrFluent\\States\\FluentSiteState -->
<g id="node54" class="node">
<title>\\Firesphere\\SolrFluent\\States\\FluentSiteState</title>
<polygon fill="none" stroke="#000000" points="985.7549,-910.2623 867.7549,-910.2623 867.7549,-874.2623 985.7549,-874.2623 985.7549,-910.2623"/>
<text text-anchor="middle" x="926.7549" y="-889.4623" font-family="Courier,monospace" font-size="11.00" fill="#000000">FluentSiteState</text>
</g>
<!-- \\Firesphere\\SolrFluent\\States\\FluentSiteState&#45;&gt;\\Firesphere\\SolrSearch\\Interfaces\\SiteStateInterface -->
<g id="edge26" class="edge">
<title>\\Firesphere\\SolrFluent\\States\\FluentSiteState&#45;&gt;\\Firesphere\\SolrSearch\\Interfaces\\SiteStateInterface</title>
<path fill="none" stroke="#000000" stroke-dasharray="1,5" d="M867.4876,-888.3345C850.0199,-884.1435 832.5734,-876.374 821.2549,-862.2623 725.7123,-743.1408 888.8981,-284.5732 781.2549,-176.2623 747.1916,-141.9876 721.0487,-167.5972 672.7549,-169.2623"/>
<path fill="none" stroke="#000000" stroke-dasharray="1,5" d="M672.7549,-169.2623C628.0066,-170.8051 605.5797,-146.3583 572.2549,-176.2623 298.5792,-421.8451 259.2376,-1712.8901 254.6633,-1920.1695"/>
<polygon fill="none" stroke="#000000" points="251.1626,-1920.1709 254.4501,-1930.2428 258.1611,-1920.3191 251.1626,-1920.1709"/>
</g>
<!-- \\Firesphere\\SolrFluent\\States\\FluentSiteState&#45;&gt;\\Firesphere\\SolrSearch\\States\\SiteState -->
<g id="edge25" class="edge">
<title>\\Firesphere\\SolrFluent\\States\\FluentSiteState&#45;&gt;\\Firesphere\\SolrSearch\\States\\SiteState</title>
<path fill="none" stroke="#000000" d="M893.7921,-910.4244C869.7947,-925.4248 838.5794,-948.9749 821.2549,-978.2623 771.1025,-1063.0458 847.7677,-1123.6017 781.2549,-1196.2623 766.9181,-1211.9242 745.2083,-1219.6958 724.9658,-1223.4534"/>
<polygon fill="none" stroke="#000000" points="724.2127,-1220.0286 714.8742,-1225.0329 725.2952,-1226.9444 724.2127,-1220.0286"/>
</g>
<!-- \\Firesphere\\SolrFluent\\Extensions\\FluentIndexExtension -->
<g id="node55" class="node">
<title>\\Firesphere\\SolrFluent\\Extensions\\FluentIndexExtension</title>
<polygon fill="none" stroke="#000000" points="1002.7549,-776.2623 850.7549,-776.2623 850.7549,-740.2623 1002.7549,-740.2623 1002.7549,-776.2623"/>
<text text-anchor="middle" x="926.7549" y="-755.4623" font-family="Courier,monospace" font-size="11.00" fill="#000000">FluentIndexExtension</text>
</g>
<!-- \\Firesphere\\SolrFluent\\Extensions\\FluentIndexExtension&#45;&gt;\\SilverStripe\\Core\\Extension -->
<g id="edge27" class="edge">
<title>\\Firesphere\\SolrFluent\\Extensions\\FluentIndexExtension&#45;&gt;\\SilverStripe\\Core\\Extension</title>
<path fill="none" stroke="#000000" d="M850.5548,-751.0588C839.313,-746.7869 828.9462,-740.4805 821.2549,-731.2623 740.3328,-634.2745 863.7592,-259.9077 781.2549,-164.2623 748.9961,-126.8653 708.9397,-173.8751 672.7549,-140.2623"/>
</g>
<!-- \\Firesphere\\SolrFluent\\Extensions\\FluentSchemaExtension -->
<g id="node56" class="node">
<title>\\Firesphere\\SolrFluent\\Extensions\\FluentSchemaExtension</title>
<polygon fill="none" stroke="#000000" points="1005.7549,-722.2623 847.7549,-722.2623 847.7549,-686.2623 1005.7549,-686.2623 1005.7549,-722.2623"/>
<text text-anchor="middle" x="926.7549" y="-701.4623" font-family="Courier,monospace" font-size="11.00" fill="#000000">FluentSchemaExtension</text>
</g>
<!-- \\Firesphere\\SolrFluent\\Extensions\\FluentSchemaExtension&#45;&gt;\\SilverStripe\\Core\\Extension -->
<g id="edge28" class="edge">
<title>\\Firesphere\\SolrFluent\\Extensions\\FluentSchemaExtension&#45;&gt;\\SilverStripe\\Core\\Extension</title>
<path fill="none" stroke="#000000" d="M879.1415,-686.2379C857.7901,-675.6124 834.4799,-659.9309 821.2549,-638.2623 766.185,-548.0324 850.8493,-243.8282 781.2549,-164.2623 748.7396,-127.0881 708.9397,-173.8751 672.7549,-140.2623"/>
<path fill="none" stroke="#000000" d="M672.7549,-140.2623C657.2907,-125.8972 528.3246,-51.7971 508.2549,-45.2623 475.4252,-34.5726 439.0725,-27.8869 404.3721,-23.7587"/>
<polygon fill="none" stroke="#000000" points="404.4777,-20.2486 394.1493,-22.6096 403.6957,-27.2048 404.4777,-20.2486"/>
</g>
<!-- \\Firesphere\\SolrFluent\\Extensions\\FluentDocumentExtension -->
<g id="node57" class="node">
<title>\\Firesphere\\SolrFluent\\Extensions\\FluentDocumentExtension</title>
<polygon fill="none" stroke="#000000" points="1012.7549,-830.2623 840.7549,-830.2623 840.7549,-794.2623 1012.7549,-794.2623 1012.7549,-830.2623"/>
<text text-anchor="middle" x="926.7549" y="-809.4623" font-family="Courier,monospace" font-size="11.00" fill="#000000">FluentDocumentExtension</text>
</g>
<!-- \\Firesphere\\SolrFluent\\Extensions\\FluentDocumentExtension&#45;&gt;\\SilverStripe\\Core\\Extension -->
<g id="edge29" class="edge">
<title>\\Firesphere\\SolrFluent\\Extensions\\FluentDocumentExtension&#45;&gt;\\SilverStripe\\Core\\Extension</title>
<path fill="none" stroke="#000000" d="M840.7065,-800.6879C833.3161,-796.7794 826.6251,-791.7387 821.2549,-785.2623 732.9871,-678.8113 871.2594,-269.249 781.2549,-164.2623 749.1104,-126.767 708.9397,-173.8751 672.7549,-140.2623"/>
</g>
<!-- \\Firesphere\\SolrSubsites\\States\\SubsiteState -->
<g id="node58" class="node">
<title>\\Firesphere\\SolrSubsites\\States\\SubsiteState</title>
<polygon fill="none" stroke="#000000" points="975.7549,-1106.2623 877.7549,-1106.2623 877.7549,-1070.2623 975.7549,-1070.2623 975.7549,-1106.2623"/>
<text text-anchor="middle" x="926.7549" y="-1085.4623" font-family="Courier,monospace" font-size="11.00" fill="#000000">SubsiteState</text>
</g>
<!-- \\Firesphere\\SolrSubsites\\States\\SubsiteState&#45;&gt;\\Firesphere\\SolrSearch\\Interfaces\\SiteStateInterface -->
<g id="edge31" class="edge">
<title>\\Firesphere\\SolrSubsites\\States\\SubsiteState&#45;&gt;\\Firesphere\\SolrSearch\\Interfaces\\SiteStateInterface</title>
<path fill="none" stroke="#000000" stroke-dasharray="1,5" d="M877.5482,-1086.4772C856.9256,-1083.0259 834.6683,-1075.2091 821.2549,-1058.2623 760.3715,-981.3404 849.9568,-246.2895 781.2549,-176.2623 747.4137,-141.7682 721.0487,-167.5972 672.7549,-169.2623"/>
</g>
<!-- \\Firesphere\\SolrSubsites\\States\\SubsiteState&#45;&gt;\\Firesphere\\SolrSearch\\States\\SiteState -->
<g id="edge30" class="edge">
<title>\\Firesphere\\SolrSubsites\\States\\SubsiteState&#45;&gt;\\Firesphere\\SolrSearch\\States\\SiteState</title>
<path fill="none" stroke="#000000" d="M907.1319,-1106.6032C880.5539,-1130.5105 830.7273,-1172.1109 781.2549,-1196.2623 763.621,-1204.8708 743.129,-1211.3415 724.7334,-1216.027"/>
<polygon fill="none" stroke="#000000" points="723.6525,-1212.6877 714.7608,-1218.4487 725.3044,-1219.4901 723.6525,-1212.6877"/>
</g>
<!-- \\Firesphere\\SolrSubsites\\Extensions\\SubsitesExtension -->
<g id="node59" class="node">
<title>\\Firesphere\\SolrSubsites\\Extensions\\SubsitesExtension</title>
<polygon fill="none" stroke="#000000" points="992.2549,-1026.2623 861.2549,-1026.2623 861.2549,-990.2623 992.2549,-990.2623 992.2549,-1026.2623"/>
<text text-anchor="middle" x="926.7549" y="-1005.4623" font-family="Courier,monospace" font-size="11.00" fill="#000000">SubsitesExtension</text>
</g>
<!-- \\Firesphere\\SolrSubsites\\Extensions\\SubsitesExtension&#45;&gt;\\SilverStripe\\Core\\Extension -->
<g id="edge32" class="edge">
<title>\\Firesphere\\SolrSubsites\\Extensions\\SubsitesExtension&#45;&gt;\\SilverStripe\\Core\\Extension</title>
<path fill="none" stroke="#000000" d="M878.2804,-990.1546C857.0079,-979.5764 834.0131,-963.9588 821.2549,-942.2623 777.3794,-867.6477 837.1654,-230.3411 781.2549,-164.2623 749.354,-126.5596 708.9397,-173.8751 672.7549,-140.2623"/>
</g>
<!-- \\Firesphere\\SolrPermissions\\Extensions\\DataObjectExtension -->
<g id="node60" class="node">
<title>\\Firesphere\\SolrPermissions\\Extensions\\DataObjectExtension</title>
<polygon fill="none" stroke="#000000" points="999.2549,-606.2623 854.2549,-606.2623 854.2549,-570.2623 999.2549,-570.2623 999.2549,-606.2623"/>
<text text-anchor="middle" x="926.7549" y="-585.4623" font-family="Courier,monospace" font-size="11.00" fill="#000000">DataObjectExtension</text>
</g>
<!-- \\Firesphere\\SolrPermissions\\Extensions\\DataObjectExtension&#45;&gt;\\SilverStripe\\ORM\\DataExtension -->
<g id="edge33" class="edge">
<title>\\Firesphere\\SolrPermissions\\Extensions\\DataObjectExtension&#45;&gt;\\SilverStripe\\ORM\\DataExtension</title>
<path fill="none" stroke="#000000" d="M854.0027,-582.0132C841.515,-577.7671 829.8232,-571.2242 821.2549,-561.2623 705.6153,-426.8146 898.02,-297.7336 781.2549,-164.2623 734.821,-111.1847 558.0573,-88.7052 421.8851,-79.1993"/>
<polygon fill="none" stroke="#000000" points="421.9553,-75.6961 411.7409,-78.5097 421.4805,-82.68 421.9553,-75.6961"/>
</g>
<!-- \\Firesphere\\SolrPermissions\\Extensions\\SchemaFactoryExtension -->
<g id="node61" class="node">
<title>\\Firesphere\\SolrPermissions\\Extensions\\SchemaFactoryExtension</title>
<polygon fill="none" stroke="#000000" points="1009.2549,-552.2623 844.2549,-552.2623 844.2549,-516.2623 1009.2549,-516.2623 1009.2549,-552.2623"/>
<text text-anchor="middle" x="926.7549" y="-531.4623" font-family="Courier,monospace" font-size="11.00" fill="#000000">SchemaFactoryExtension</text>
</g>
<!-- \\Firesphere\\SolrPermissions\\Extensions\\SchemaFactoryExtension&#45;&gt;\\SilverStripe\\Core\\Extension -->
<g id="edge34" class="edge">
<title>\\Firesphere\\SolrPermissions\\Extensions\\SchemaFactoryExtension&#45;&gt;\\SilverStripe\\Core\\Extension</title>
<path fill="none" stroke="#000000" d="M844.2131,-524.1392C835.4865,-520.0633 827.5266,-514.586 821.2549,-507.2623 760.9915,-436.8899 841.4476,-162.6951 781.2549,-92.2623 748.8994,-54.4024 716.6475,-87.7928 672.7549,-64.2623"/>
</g>
<!-- \\Firesphere\\SolrPermissions\\Extensions\\DocumentFactoryExtension -->
<g id="node62" class="node">
<title>\\Firesphere\\SolrPermissions\\Extensions\\DocumentFactoryExtension</title>
<polygon fill="none" stroke="#000000" points="1016.2549,-498.2623 837.2549,-498.2623 837.2549,-462.2623 1016.2549,-462.2623 1016.2549,-498.2623"/>
<text text-anchor="middle" x="926.7549" y="-477.4623" font-family="Courier,monospace" font-size="11.00" fill="#000000">DocumentFactoryExtension</text>
</g>
<!-- \\Firesphere\\SolrPermissions\\Extensions\\DocumentFactoryExtension&#45;&gt;\\SilverStripe\\Core\\Extension -->
<g id="edge35" class="edge">
<title>\\Firesphere\\SolrPermissions\\Extensions\\DocumentFactoryExtension&#45;&gt;\\SilverStripe\\Core\\Extension</title>
<path fill="none" stroke="#000000" d="M836.8102,-466.1035C831.0082,-462.6318 825.7157,-458.403 821.2549,-453.2623 714.2992,-330.0041 890.2208,-209.7469 781.2549,-88.2623 748.2781,-51.4969 716.2824,-87.5971 672.7549,-64.2623"/>
</g>
<!-- \\Firesphere\\SolrPermissions\\Extensions\\BaseIndexExtension -->
<g id="node63" class="node">
<title>\\Firesphere\\SolrPermissions\\Extensions\\BaseIndexExtension</title>
<polygon fill="none" stroke="#000000" points="995.7549,-444.2623 857.7549,-444.2623 857.7549,-408.2623 995.7549,-408.2623 995.7549,-444.2623"/>
<text text-anchor="middle" x="926.7549" y="-423.4623" font-family="Courier,monospace" font-size="11.00" fill="#000000">BaseIndexExtension</text>
</g>
<!-- \\Firesphere\\SolrPermissions\\Extensions\\BaseIndexExtension&#45;&gt;\\SilverStripe\\Core\\Extension -->
<g id="edge36" class="edge">
<title>\\Firesphere\\SolrPermissions\\Extensions\\BaseIndexExtension&#45;&gt;\\SilverStripe\\Core\\Extension</title>
<path fill="none" stroke="#000000" d="M880.2653,-408.1423C858.9063,-397.4249 835.2615,-381.6927 821.2549,-360.2623 754.4057,-257.9815 864.5042,-177.7035 781.2549,-88.2623 747.6062,-52.1108 716.2824,-87.5971 672.7549,-64.2623"/>
</g>
</g>
</svg>
