<?xml version="1.0" encoding="UTF-8" standalone="no"?>
<!DOCTYPE svg PUBLIC "-//W3C//DTD SVG 1.1//EN"
 "http://www.w3.org/Graphics/SVG/1.1/DTD/svg11.dtd">
<!-- Generated by graphviz version 2.40.1 (20161225.0304)
 -->
<!-- Title: G Pages: 1 -->
<svg width="1064pt" height="3721pt"
 viewBox="0.00 0.00 1064.25 3720.96" xmlns="http://www.w3.org/2000/svg" xmlns:xlink="http://www.w3.org/1999/xlink">
<g id="graph0" class="graph" transform="scale(1 1) rotate(0) translate(4 3716.9601)">
<title>G</title>
<polygon fill="#ffffff" stroke="transparent" points="-4,4 -4,-3716.9601 1060.2549,-3716.9601 1060.2549,4 -4,4"/>
<g id="clust1" class="cluster">
<title>cluster_Global</title>
<path fill="none" stroke="#c0c0c0" d="M165.1275,-152.8026C165.1275,-152.8026 1036.2549,-152.8026 1036.2549,-152.8026 1042.2549,-152.8026 1048.2549,-158.8026 1048.2549,-164.8026 1048.2549,-164.8026 1048.2549,-3386.8026 1048.2549,-3386.8026 1048.2549,-3392.8026 1042.2549,-3398.8026 1036.2549,-3398.8026 1036.2549,-3398.8026 165.1275,-3398.8026 165.1275,-3398.8026 159.1275,-3398.8026 153.1275,-3392.8026 153.1275,-3386.8026 153.1275,-3386.8026 153.1275,-164.8026 153.1275,-164.8026 153.1275,-158.8026 159.1275,-152.8026 165.1275,-152.8026"/>
<text text-anchor="middle" x="600.6912" y="-3386.0026" font-family="Times,serif" font-size="11.00" fill="#c0c0c0">Global</text>
</g>
<g id="clust2" class="cluster">
<title>cluster_\Firesphere</title>
<path fill="none" stroke="#c0c0c0" d="M173.1275,-160.8026C173.1275,-160.8026 1028.2549,-160.8026 1028.2549,-160.8026 1034.2549,-160.8026 1040.2549,-166.8026 1040.2549,-172.8026 1040.2549,-172.8026 1040.2549,-3036.8026 1040.2549,-3036.8026 1040.2549,-3042.8026 1034.2549,-3048.8026 1028.2549,-3048.8026 1028.2549,-3048.8026 173.1275,-3048.8026 173.1275,-3048.8026 167.1275,-3048.8026 161.1275,-3042.8026 161.1275,-3036.8026 161.1275,-3036.8026 161.1275,-172.8026 161.1275,-172.8026 161.1275,-166.8026 167.1275,-160.8026 173.1275,-160.8026"/>
<text text-anchor="middle" x="600.6912" y="-3036.0026" font-family="Times,serif" font-size="11.00" fill="#c0c0c0">Firesphere</text>
</g>
<g id="clust3" class="cluster">
<title>cluster_\Firesphere\SolrCompatibility</title>
<path fill="none" stroke="#c0c0c0" d="M833.2549,-168.8026C833.2549,-168.8026 1020.2549,-168.8026 1020.2549,-168.8026 1026.2549,-168.8026 1032.2549,-174.8026 1032.2549,-180.8026 1032.2549,-180.8026 1032.2549,-372.8026 1032.2549,-372.8026 1032.2549,-378.8026 1026.2549,-384.8026 1020.2549,-384.8026 1020.2549,-384.8026 833.2549,-384.8026 833.2549,-384.8026 827.2549,-384.8026 821.2549,-378.8026 821.2549,-372.8026 821.2549,-372.8026 821.2549,-180.8026 821.2549,-180.8026 821.2549,-174.8026 827.2549,-168.8026 833.2549,-168.8026"/>
<text text-anchor="middle" x="926.7549" y="-372.0026" font-family="Times,serif" font-size="11.00" fill="#c0c0c0">SolrCompatibility</text>
</g>
<g id="clust4" class="cluster">
<title>cluster_\Firesphere\SolrCompatibility\Extensions</title>
<path fill="none" stroke="#c0c0c0" d="M841.2549,-176.8026C841.2549,-176.8026 1012.2549,-176.8026 1012.2549,-176.8026 1018.2549,-176.8026 1024.2549,-182.8026 1024.2549,-188.8026 1024.2549,-188.8026 1024.2549,-344.8026 1024.2549,-344.8026 1024.2549,-350.8026 1018.2549,-356.8026 1012.2549,-356.8026 1012.2549,-356.8026 841.2549,-356.8026 841.2549,-356.8026 835.2549,-356.8026 829.2549,-350.8026 829.2549,-344.8026 829.2549,-344.8026 829.2549,-188.8026 829.2549,-188.8026 829.2549,-182.8026 835.2549,-176.8026 841.2549,-176.8026"/>
<text text-anchor="middle" x="926.7549" y="-344.0026" font-family="Times,serif" font-size="11.00" fill="#c0c0c0">Extensions</text>
</g>
<g id="clust5" class="cluster">
<title>cluster_\Firesphere\SolrSearch</title>
<path fill="none" stroke="#c0c0c0" d="M181.1275,-172.8026C181.1275,-172.8026 769.2549,-172.8026 769.2549,-172.8026 775.2549,-172.8026 781.2549,-178.8026 781.2549,-184.8026 781.2549,-184.8026 781.2549,-3008.8026 781.2549,-3008.8026 781.2549,-3014.8026 775.2549,-3020.8026 769.2549,-3020.8026 769.2549,-3020.8026 181.1275,-3020.8026 181.1275,-3020.8026 175.1275,-3020.8026 169.1275,-3014.8026 169.1275,-3008.8026 169.1275,-3008.8026 169.1275,-184.8026 169.1275,-184.8026 169.1275,-178.8026 175.1275,-172.8026 181.1275,-172.8026"/>
<text text-anchor="middle" x="475.1912" y="-3008.0026" font-family="Times,serif" font-size="11.00" fill="#c0c0c0">SolrSearch</text>
</g>
<g id="clust6" class="cluster">
<title>cluster_\Firesphere\SolrSearch\Queries</title>
<path fill="none" stroke="#c0c0c0" d="M638.2549,-2920.8026C638.2549,-2920.8026 707.2549,-2920.8026 707.2549,-2920.8026 713.2549,-2920.8026 719.2549,-2926.8026 719.2549,-2932.8026 719.2549,-2932.8026 719.2549,-2980.8026 719.2549,-2980.8026 719.2549,-2986.8026 713.2549,-2992.8026 707.2549,-2992.8026 707.2549,-2992.8026 638.2549,-2992.8026 638.2549,-2992.8026 632.2549,-2992.8026 626.2549,-2986.8026 626.2549,-2980.8026 626.2549,-2980.8026 626.2549,-2932.8026 626.2549,-2932.8026 626.2549,-2926.8026 632.2549,-2920.8026 638.2549,-2920.8026"/>
<text text-anchor="middle" x="672.7549" y="-2980.0026" font-family="Times,serif" font-size="11.00" fill="#c0c0c0">Queries</text>
</g>
<g id="clust7" class="cluster">
<title>cluster_\Firesphere\SolrSearch\States</title>
<path fill="none" stroke="#c0c0c0" d="M634.7549,-2840.8026C634.7549,-2840.8026 710.7549,-2840.8026 710.7549,-2840.8026 716.7549,-2840.8026 722.7549,-2846.8026 722.7549,-2852.8026 722.7549,-2852.8026 722.7549,-2900.8026 722.7549,-2900.8026 722.7549,-2906.8026 716.7549,-2912.8026 710.7549,-2912.8026 710.7549,-2912.8026 634.7549,-2912.8026 634.7549,-2912.8026 628.7549,-2912.8026 622.7549,-2906.8026 622.7549,-2900.8026 622.7549,-2900.8026 622.7549,-2852.8026 622.7549,-2852.8026 622.7549,-2846.8026 628.7549,-2840.8026 634.7549,-2840.8026"/>
<text text-anchor="middle" x="672.7549" y="-2900.0026" font-family="Times,serif" font-size="11.00" fill="#c0c0c0">States</text>
</g>
<g id="clust8" class="cluster">
<title>cluster_\Firesphere\SolrSearch\Extensions</title>
<path fill="none" stroke="#c0c0c0" d="M604.2549,-2062.8026C604.2549,-2062.8026 741.2549,-2062.8026 741.2549,-2062.8026 747.2549,-2062.8026 753.2549,-2068.8026 753.2549,-2074.8026 753.2549,-2074.8026 753.2549,-2176.8026 753.2549,-2176.8026 753.2549,-2182.8026 747.2549,-2188.8026 741.2549,-2188.8026 741.2549,-2188.8026 604.2549,-2188.8026 604.2549,-2188.8026 598.2549,-2188.8026 592.2549,-2182.8026 592.2549,-2176.8026 592.2549,-2176.8026 592.2549,-2074.8026 592.2549,-2074.8026 592.2549,-2068.8026 598.2549,-2062.8026 604.2549,-2062.8026"/>
<text text-anchor="middle" x="672.7549" y="-2176.0026" font-family="Times,serif" font-size="11.00" fill="#c0c0c0">Extensions</text>
</g>
<g id="clust9" class="cluster">
<title>cluster_\Firesphere\SolrSearch\Jobs</title>
<path fill="none" stroke="#c0c0c0" d="M600.7549,-2196.8026C600.7549,-2196.8026 744.7549,-2196.8026 744.7549,-2196.8026 750.7549,-2196.8026 756.7549,-2202.8026 756.7549,-2208.8026 756.7549,-2208.8026 756.7549,-2364.8026 756.7549,-2364.8026 756.7549,-2370.8026 750.7549,-2376.8026 744.7549,-2376.8026 744.7549,-2376.8026 600.7549,-2376.8026 600.7549,-2376.8026 594.7549,-2376.8026 588.7549,-2370.8026 588.7549,-2364.8026 588.7549,-2364.8026 588.7549,-2208.8026 588.7549,-2208.8026 588.7549,-2202.8026 594.7549,-2196.8026 600.7549,-2196.8026"/>
<text text-anchor="middle" x="672.7549" y="-2364.0026" font-family="Times,serif" font-size="11.00" fill="#c0c0c0">Jobs</text>
</g>
<g id="clust10" class="cluster">
<title>cluster_\Firesphere\SolrSearch\Admins</title>
<path fill="none" stroke="#c0c0c0" d="M631.2549,-2760.8026C631.2549,-2760.8026 714.2549,-2760.8026 714.2549,-2760.8026 720.2549,-2760.8026 726.2549,-2766.8026 726.2549,-2772.8026 726.2549,-2772.8026 726.2549,-2820.8026 726.2549,-2820.8026 726.2549,-2826.8026 720.2549,-2832.8026 714.2549,-2832.8026 714.2549,-2832.8026 631.2549,-2832.8026 631.2549,-2832.8026 625.2549,-2832.8026 619.2549,-2826.8026 619.2549,-2820.8026 619.2549,-2820.8026 619.2549,-2772.8026 619.2549,-2772.8026 619.2549,-2766.8026 625.2549,-2760.8026 631.2549,-2760.8026"/>
<text text-anchor="middle" x="672.7549" y="-2820.0026" font-family="Times,serif" font-size="11.00" fill="#c0c0c0">Admins</text>
</g>
<g id="clust11" class="cluster">
<title>cluster_\Firesphere\SolrSearch\Stores</title>
<path fill="none" stroke="#c0c0c0" d="M617.7549,-2384.8026C617.7549,-2384.8026 727.7549,-2384.8026 727.7549,-2384.8026 733.7549,-2384.8026 739.7549,-2390.8026 739.7549,-2396.8026 739.7549,-2396.8026 739.7549,-2498.8026 739.7549,-2498.8026 739.7549,-2504.8026 733.7549,-2510.8026 727.7549,-2510.8026 727.7549,-2510.8026 617.7549,-2510.8026 617.7549,-2510.8026 611.7549,-2510.8026 605.7549,-2504.8026 605.7549,-2498.8026 605.7549,-2498.8026 605.7549,-2396.8026 605.7549,-2396.8026 605.7549,-2390.8026 611.7549,-2384.8026 617.7549,-2384.8026"/>
<text text-anchor="middle" x="672.7549" y="-2498.0026" font-family="Times,serif" font-size="11.00" fill="#c0c0c0">Stores</text>
</g>
<g id="clust12" class="cluster">
<title>cluster_\Firesphere\SolrSearch\Tasks</title>
<path fill="none" stroke="#c0c0c0" d="M597.7549,-2518.8026C597.7549,-2518.8026 747.7549,-2518.8026 747.7549,-2518.8026 753.7549,-2518.8026 759.7549,-2524.8026 759.7549,-2530.8026 759.7549,-2530.8026 759.7549,-2740.8026 759.7549,-2740.8026 759.7549,-2746.8026 753.7549,-2752.8026 747.7549,-2752.8026 747.7549,-2752.8026 597.7549,-2752.8026 597.7549,-2752.8026 591.7549,-2752.8026 585.7549,-2746.8026 585.7549,-2740.8026 585.7549,-2740.8026 585.7549,-2530.8026 585.7549,-2530.8026 585.7549,-2524.8026 591.7549,-2518.8026 597.7549,-2518.8026"/>
<text text-anchor="middle" x="672.7549" y="-2740.0026" font-family="Times,serif" font-size="11.00" fill="#c0c0c0">Tasks</text>
</g>
<g id="clust13" class="cluster">
<title>cluster_\Firesphere\SolrSearch\Traits</title>
<path fill="none" stroke="#c0c0c0" d="M584.2549,-1172.8026C584.2549,-1172.8026 761.2549,-1172.8026 761.2549,-1172.8026 767.2549,-1172.8026 773.2549,-1178.8026 773.2549,-1184.8026 773.2549,-1184.8026 773.2549,-2042.8026 773.2549,-2042.8026 773.2549,-2048.8026 767.2549,-2054.8026 761.2549,-2054.8026 761.2549,-2054.8026 584.2549,-2054.8026 584.2549,-2054.8026 578.2549,-2054.8026 572.2549,-2048.8026 572.2549,-2042.8026 572.2549,-2042.8026 572.2549,-1184.8026 572.2549,-1184.8026 572.2549,-1178.8026 578.2549,-1172.8026 584.2549,-1172.8026"/>
<text text-anchor="middle" x="672.7549" y="-2042.0026" font-family="Times,serif" font-size="11.00" fill="#c0c0c0">Traits</text>
</g>
<g id="clust14" class="cluster">
<title>cluster_\Firesphere\SolrSearch\Results</title>
<path fill="none" stroke="#c0c0c0" d="M627.7549,-1092.8026C627.7549,-1092.8026 717.7549,-1092.8026 717.7549,-1092.8026 723.7549,-1092.8026 729.7549,-1098.8026 729.7549,-1104.8026 729.7549,-1104.8026 729.7549,-1152.8026 729.7549,-1152.8026 729.7549,-1158.8026 723.7549,-1164.8026 717.7549,-1164.8026 717.7549,-1164.8026 627.7549,-1164.8026 627.7549,-1164.8026 621.7549,-1164.8026 615.7549,-1158.8026 615.7549,-1152.8026 615.7549,-1152.8026 615.7549,-1104.8026 615.7549,-1104.8026 615.7549,-1098.8026 621.7549,-1092.8026 627.7549,-1092.8026"/>
<text text-anchor="middle" x="672.7549" y="-1152.0026" font-family="Times,serif" font-size="11.00" fill="#c0c0c0">Results</text>
</g>
<g id="clust15" class="cluster">
<title>cluster_\Firesphere\SolrSearch\Forms</title>
<path fill="none" stroke="#c0c0c0" d="M634.7549,-824.8026C634.7549,-824.8026 710.7549,-824.8026 710.7549,-824.8026 716.7549,-824.8026 722.7549,-830.8026 722.7549,-836.8026 722.7549,-836.8026 722.7549,-884.8026 722.7549,-884.8026 722.7549,-890.8026 716.7549,-896.8026 710.7549,-896.8026 710.7549,-896.8026 634.7549,-896.8026 634.7549,-896.8026 628.7549,-896.8026 622.7549,-890.8026 622.7549,-884.8026 622.7549,-884.8026 622.7549,-836.8026 622.7549,-836.8026 622.7549,-830.8026 628.7549,-824.8026 634.7549,-824.8026"/>
<text text-anchor="middle" x="672.7549" y="-884.0026" font-family="Times,serif" font-size="11.00" fill="#c0c0c0">Forms</text>
</g>
<g id="clust16" class="cluster">
<title>cluster_\Firesphere\SolrSearch\Factories</title>
<path fill="none" stroke="#c0c0c0" d="M597.7549,-904.8026C597.7549,-904.8026 747.7549,-904.8026 747.7549,-904.8026 753.7549,-904.8026 759.7549,-910.8026 759.7549,-916.8026 759.7549,-916.8026 759.7549,-1072.8026 759.7549,-1072.8026 759.7549,-1078.8026 753.7549,-1084.8026 747.7549,-1084.8026 747.7549,-1084.8026 597.7549,-1084.8026 597.7549,-1084.8026 591.7549,-1084.8026 585.7549,-1078.8026 585.7549,-1072.8026 585.7549,-1072.8026 585.7549,-916.8026 585.7549,-916.8026 585.7549,-910.8026 591.7549,-904.8026 597.7549,-904.8026"/>
<text text-anchor="middle" x="672.7549" y="-1072.0026" font-family="Times,serif" font-size="11.00" fill="#c0c0c0">Factories</text>
</g>
<g id="clust17" class="cluster">
<title>cluster_\Firesphere\SolrSearch\Indexes</title>
<path fill="none" stroke="#c0c0c0" d="M634.7549,-744.8026C634.7549,-744.8026 710.7549,-744.8026 710.7549,-744.8026 716.7549,-744.8026 722.7549,-750.8026 722.7549,-756.8026 722.7549,-756.8026 722.7549,-804.8026 722.7549,-804.8026 722.7549,-810.8026 716.7549,-816.8026 710.7549,-816.8026 710.7549,-816.8026 634.7549,-816.8026 634.7549,-816.8026 628.7549,-816.8026 622.7549,-810.8026 622.7549,-804.8026 622.7549,-804.8026 622.7549,-756.8026 622.7549,-756.8026 622.7549,-750.8026 628.7549,-744.8026 634.7549,-744.8026"/>
<text text-anchor="middle" x="672.7549" y="-804.0026" font-family="Times,serif" font-size="11.00" fill="#c0c0c0">Indexes</text>
</g>
<g id="clust18" class="cluster">
<title>cluster_\Firesphere\SolrSearch\Models</title>
<path fill="none" stroke="#c0c0c0" d="M624.7549,-556.8026C624.7549,-556.8026 720.7549,-556.8026 720.7549,-556.8026 726.7549,-556.8026 732.7549,-562.8026 732.7549,-568.8026 732.7549,-568.8026 732.7549,-724.8026 732.7549,-724.8026 732.7549,-730.8026 726.7549,-736.8026 720.7549,-736.8026 720.7549,-736.8026 624.7549,-736.8026 624.7549,-736.8026 618.7549,-736.8026 612.7549,-730.8026 612.7549,-724.8026 612.7549,-724.8026 612.7549,-568.8026 612.7549,-568.8026 612.7549,-562.8026 618.7549,-556.8026 624.7549,-556.8026"/>
<text text-anchor="middle" x="672.7549" y="-724.0026" font-family="Times,serif" font-size="11.00" fill="#c0c0c0">Models</text>
</g>
<g id="clust19" class="cluster">
<title>cluster_\Firesphere\SolrSearch\Interfaces</title>
<path fill="none" stroke="#c0c0c0" d="M189.1275,-2330.8026C189.1275,-2330.8026 319.1275,-2330.8026 319.1275,-2330.8026 325.1275,-2330.8026 331.1275,-2336.8026 331.1275,-2342.8026 331.1275,-2342.8026 331.1275,-2444.8026 331.1275,-2444.8026 331.1275,-2450.8026 325.1275,-2456.8026 319.1275,-2456.8026 319.1275,-2456.8026 189.1275,-2456.8026 189.1275,-2456.8026 183.1275,-2456.8026 177.1275,-2450.8026 177.1275,-2444.8026 177.1275,-2444.8026 177.1275,-2342.8026 177.1275,-2342.8026 177.1275,-2336.8026 183.1275,-2330.8026 189.1275,-2330.8026"/>
<text text-anchor="middle" x="254.1275" y="-2444.0026" font-family="Times,serif" font-size="11.00" fill="#c0c0c0">Interfaces</text>
</g>
<g id="clust20" class="cluster">
<title>cluster_\Firesphere\SolrSearch\Services</title>
<path fill="none" stroke="#c0c0c0" d="M617.7549,-476.8026C617.7549,-476.8026 727.7549,-476.8026 727.7549,-476.8026 733.7549,-476.8026 739.7549,-482.8026 739.7549,-488.8026 739.7549,-488.8026 739.7549,-536.8026 739.7549,-536.8026 739.7549,-542.8026 733.7549,-548.8026 727.7549,-548.8026 727.7549,-548.8026 617.7549,-548.8026 617.7549,-548.8026 611.7549,-548.8026 605.7549,-542.8026 605.7549,-536.8026 605.7549,-536.8026 605.7549,-488.8026 605.7549,-488.8026 605.7549,-482.8026 611.7549,-476.8026 617.7549,-476.8026"/>
<text text-anchor="middle" x="672.7549" y="-536.0026" font-family="Times,serif" font-size="11.00" fill="#c0c0c0">Services</text>
</g>
<g id="clust21" class="cluster">
<title>cluster_\Firesphere\SolrSearch\Helpers</title>
<path fill="none" stroke="#c0c0c0" d="M624.7549,-180.8026C624.7549,-180.8026 720.7549,-180.8026 720.7549,-180.8026 726.7549,-180.8026 732.7549,-186.8026 732.7549,-192.8026 732.7549,-192.8026 732.7549,-456.8026 732.7549,-456.8026 732.7549,-462.8026 726.7549,-468.8026 720.7549,-468.8026 720.7549,-468.8026 624.7549,-468.8026 624.7549,-468.8026 618.7549,-468.8026 612.7549,-462.8026 612.7549,-456.8026 612.7549,-456.8026 612.7549,-192.8026 612.7549,-192.8026 612.7549,-186.8026 618.7549,-180.8026 624.7549,-180.8026"/>
<text text-anchor="middle" x="672.7549" y="-456.0026" font-family="Times,serif" font-size="11.00" fill="#c0c0c0">Helpers</text>
</g>
<g id="clust22" class="cluster">
<title>cluster_\Firesphere\SolrFluent</title>
<path fill="none" stroke="#c0c0c0" d="M836.7549,-670.8026C836.7549,-670.8026 1016.7549,-670.8026 1016.7549,-670.8026 1022.7549,-670.8026 1028.7549,-676.8026 1028.7549,-682.8026 1028.7549,-682.8026 1028.7549,-954.8026 1028.7549,-954.8026 1028.7549,-960.8026 1022.7549,-966.8026 1016.7549,-966.8026 1016.7549,-966.8026 836.7549,-966.8026 836.7549,-966.8026 830.7549,-966.8026 824.7549,-960.8026 824.7549,-954.8026 824.7549,-954.8026 824.7549,-682.8026 824.7549,-682.8026 824.7549,-676.8026 830.7549,-670.8026 836.7549,-670.8026"/>
<text text-anchor="middle" x="926.7549" y="-954.0026" font-family="Times,serif" font-size="11.00" fill="#c0c0c0">SolrFluent</text>
</g>
<g id="clust23" class="cluster">
<title>cluster_\Firesphere\SolrFluent\States</title>
<path fill="none" stroke="#c0c0c0" d="M871.7549,-866.8026C871.7549,-866.8026 981.7549,-866.8026 981.7549,-866.8026 987.7549,-866.8026 993.7549,-872.8026 993.7549,-878.8026 993.7549,-878.8026 993.7549,-926.8026 993.7549,-926.8026 993.7549,-932.8026 987.7549,-938.8026 981.7549,-938.8026 981.7549,-938.8026 871.7549,-938.8026 871.7549,-938.8026 865.7549,-938.8026 859.7549,-932.8026 859.7549,-926.8026 859.7549,-926.8026 859.7549,-878.8026 859.7549,-878.8026 859.7549,-872.8026 865.7549,-866.8026 871.7549,-866.8026"/>
<text text-anchor="middle" x="926.7549" y="-926.0026" font-family="Times,serif" font-size="11.00" fill="#c0c0c0">States</text>
</g>
<g id="clust24" class="cluster">
<title>cluster_\Firesphere\SolrFluent\Extensions</title>
<path fill="none" stroke="#c0c0c0" d="M844.7549,-678.8026C844.7549,-678.8026 1008.7549,-678.8026 1008.7549,-678.8026 1014.7549,-678.8026 1020.7549,-684.8026 1020.7549,-690.8026 1020.7549,-690.8026 1020.7549,-846.8026 1020.7549,-846.8026 1020.7549,-852.8026 1014.7549,-858.8026 1008.7549,-858.8026 1008.7549,-858.8026 844.7549,-858.8026 844.7549,-858.8026 838.7549,-858.8026 832.7549,-852.8026 832.7549,-846.8026 832.7549,-846.8026 832.7549,-690.8026 832.7549,-690.8026 832.7549,-684.8026 838.7549,-678.8026 844.7549,-678.8026"/>
<text text-anchor="middle" x="926.7549" y="-846.0026" font-family="Times,serif" font-size="11.00" fill="#c0c0c0">Extensions</text>
</g>
<g id="clust25" class="cluster">
<title>cluster_\Firesphere\SolrSubsites</title>
<path fill="none" stroke="#c0c0c0" d="M857.2549,-974.8026C857.2549,-974.8026 996.2549,-974.8026 996.2549,-974.8026 1002.2549,-974.8026 1008.2549,-980.8026 1008.2549,-986.8026 1008.2549,-986.8026 1008.2549,-1150.8026 1008.2549,-1150.8026 1008.2549,-1156.8026 1002.2549,-1162.8026 996.2549,-1162.8026 996.2549,-1162.8026 857.2549,-1162.8026 857.2549,-1162.8026 851.2549,-1162.8026 845.2549,-1156.8026 845.2549,-1150.8026 845.2549,-1150.8026 845.2549,-986.8026 845.2549,-986.8026 845.2549,-980.8026 851.2549,-974.8026 857.2549,-974.8026"/>
<text text-anchor="middle" x="926.7549" y="-1150.0026" font-family="Times,serif" font-size="11.00" fill="#c0c0c0">SolrSubsites</text>
</g>
<g id="clust26" class="cluster">
<title>cluster_\Firesphere\SolrSubsites\States</title>
<path fill="none" stroke="#c0c0c0" d="M881.7549,-1062.8026C881.7549,-1062.8026 971.7549,-1062.8026 971.7549,-1062.8026 977.7549,-1062.8026 983.7549,-1068.8026 983.7549,-1074.8026 983.7549,-1074.8026 983.7549,-1122.8026 983.7549,-1122.8026 983.7549,-1128.8026 977.7549,-1134.8026 971.7549,-1134.8026 971.7549,-1134.8026 881.7549,-1134.8026 881.7549,-1134.8026 875.7549,-1134.8026 869.7549,-1128.8026 869.7549,-1122.8026 869.7549,-1122.8026 869.7549,-1074.8026 869.7549,-1074.8026 869.7549,-1068.8026 875.7549,-1062.8026 881.7549,-1062.8026"/>
<text text-anchor="middle" x="926.7549" y="-1122.0026" font-family="Times,serif" font-size="11.00" fill="#c0c0c0">States</text>
</g>
<g id="clust27" class="cluster">
<title>cluster_\Firesphere\SolrSubsites\Extensions</title>
<path fill="none" stroke="#c0c0c0" d="M865.2549,-982.8026C865.2549,-982.8026 988.2549,-982.8026 988.2549,-982.8026 994.2549,-982.8026 1000.2549,-988.8026 1000.2549,-994.8026 1000.2549,-994.8026 1000.2549,-1042.8026 1000.2549,-1042.8026 1000.2549,-1048.8026 994.2549,-1054.8026 988.2549,-1054.8026 988.2549,-1054.8026 865.2549,-1054.8026 865.2549,-1054.8026 859.2549,-1054.8026 853.2549,-1048.8026 853.2549,-1042.8026 853.2549,-1042.8026 853.2549,-994.8026 853.2549,-994.8026 853.2549,-988.8026 859.2549,-982.8026 865.2549,-982.8026"/>
<text text-anchor="middle" x="926.7549" y="-1042.0026" font-family="Times,serif" font-size="11.00" fill="#c0c0c0">Extensions</text>
</g>
<g id="clust28" class="cluster">
<title>cluster_\Firesphere\SolrPermissions</title>
<path fill="none" stroke="#c0c0c0" d="M833.2549,-392.8026C833.2549,-392.8026 1020.2549,-392.8026 1020.2549,-392.8026 1026.2549,-392.8026 1032.2549,-398.8026 1032.2549,-404.8026 1032.2549,-404.8026 1032.2549,-650.8026 1032.2549,-650.8026 1032.2549,-656.8026 1026.2549,-662.8026 1020.2549,-662.8026 1020.2549,-662.8026 833.2549,-662.8026 833.2549,-662.8026 827.2549,-662.8026 821.2549,-656.8026 821.2549,-650.8026 821.2549,-650.8026 821.2549,-404.8026 821.2549,-404.8026 821.2549,-398.8026 827.2549,-392.8026 833.2549,-392.8026"/>
<text text-anchor="middle" x="926.7549" y="-650.0026" font-family="Times,serif" font-size="11.00" fill="#c0c0c0">SolrPermissions</text>
</g>
<g id="clust29" class="cluster">
<title>cluster_\Firesphere\SolrPermissions\Extensions</title>
<path fill="none" stroke="#c0c0c0" d="M841.2549,-400.8026C841.2549,-400.8026 1012.2549,-400.8026 1012.2549,-400.8026 1018.2549,-400.8026 1024.2549,-406.8026 1024.2549,-412.8026 1024.2549,-412.8026 1024.2549,-622.8026 1024.2549,-622.8026 1024.2549,-628.8026 1018.2549,-634.8026 1012.2549,-634.8026 1012.2549,-634.8026 841.2549,-634.8026 841.2549,-634.8026 835.2549,-634.8026 829.2549,-628.8026 829.2549,-622.8026 829.2549,-622.8026 829.2549,-412.8026 829.2549,-412.8026 829.2549,-406.8026 835.2549,-400.8026 841.2549,-400.8026"/>
<text text-anchor="middle" x="926.7549" y="-622.0026" font-family="Times,serif" font-size="11.00" fill="#c0c0c0">Extensions</text>
</g>
<g id="clust30" class="cluster">
<title>cluster_\SilverStripe</title>
<path fill="none" stroke="#c0c0c0" d="M861.2549,-3056.8026C861.2549,-3056.8026 992.2549,-3056.8026 992.2549,-3056.8026 998.2549,-3056.8026 1004.2549,-3062.8026 1004.2549,-3068.8026 1004.2549,-3068.8026 1004.2549,-3358.8026 1004.2549,-3358.8026 1004.2549,-3364.8026 998.2549,-3370.8026 992.2549,-3370.8026 992.2549,-3370.8026 861.2549,-3370.8026 861.2549,-3370.8026 855.2549,-3370.8026 849.2549,-3364.8026 849.2549,-3358.8026 849.2549,-3358.8026 849.2549,-3068.8026 849.2549,-3068.8026 849.2549,-3062.8026 855.2549,-3056.8026 861.2549,-3056.8026"/>
<text text-anchor="middle" x="926.7549" y="-3358.0026" font-family="Times,serif" font-size="11.00" fill="#c0c0c0">SilverStripe</text>
</g>
<g id="clust31" class="cluster">
<title>cluster_\SilverStripe\FullTextSearch</title>
<path fill="none" stroke="#c0c0c0" d="M869.2549,-3064.8026C869.2549,-3064.8026 984.2549,-3064.8026 984.2549,-3064.8026 990.2549,-3064.8026 996.2549,-3070.8026 996.2549,-3076.8026 996.2549,-3076.8026 996.2549,-3330.8026 996.2549,-3330.8026 996.2549,-3336.8026 990.2549,-3342.8026 984.2549,-3342.8026 984.2549,-3342.8026 869.2549,-3342.8026 869.2549,-3342.8026 863.2549,-3342.8026 857.2549,-3336.8026 857.2549,-3330.8026 857.2549,-3330.8026 857.2549,-3076.8026 857.2549,-3076.8026 857.2549,-3070.8026 863.2549,-3064.8026 869.2549,-3064.8026"/>
<text text-anchor="middle" x="926.7549" y="-3330.0026" font-family="Times,serif" font-size="11.00" fill="#c0c0c0">FullTextSearch</text>
</g>
<g id="clust32" class="cluster">
<title>cluster_\SilverStripe\FullTextSearch\Solr</title>
<path fill="none" stroke="#c0c0c0" d="M888.7549,-3072.8026C888.7549,-3072.8026 964.7549,-3072.8026 964.7549,-3072.8026 970.7549,-3072.8026 976.7549,-3078.8026 976.7549,-3084.8026 976.7549,-3084.8026 976.7549,-3186.8026 976.7549,-3186.8026 976.7549,-3192.8026 970.7549,-3198.8026 964.7549,-3198.8026 964.7549,-3198.8026 888.7549,-3198.8026 888.7549,-3198.8026 882.7549,-3198.8026 876.7549,-3192.8026 876.7549,-3186.8026 876.7549,-3186.8026 876.7549,-3084.8026 876.7549,-3084.8026 876.7549,-3078.8026 882.7549,-3072.8026 888.7549,-3072.8026"/>
<text text-anchor="middle" x="926.7549" y="-3186.0026" font-family="Times,serif" font-size="11.00" fill="#c0c0c0">Solr</text>
</g>
<g id="clust33" class="cluster">
<title>cluster_\SilverStripe\FullTextSearch\Search</title>
<path fill="none" stroke="#c0c0c0" d="M877.2549,-3206.8026C877.2549,-3206.8026 976.2549,-3206.8026 976.2549,-3206.8026 982.2549,-3206.8026 988.2549,-3212.8026 988.2549,-3218.8026 988.2549,-3218.8026 988.2549,-3302.8026 988.2549,-3302.8026 988.2549,-3308.8026 982.2549,-3314.8026 976.2549,-3314.8026 976.2549,-3314.8026 877.2549,-3314.8026 877.2549,-3314.8026 871.2549,-3314.8026 865.2549,-3308.8026 865.2549,-3302.8026 865.2549,-3302.8026 865.2549,-3218.8026 865.2549,-3218.8026 865.2549,-3212.8026 871.2549,-3206.8026 877.2549,-3206.8026"/>
<text text-anchor="middle" x="926.7549" y="-3302.0026" font-family="Times,serif" font-size="11.00" fill="#c0c0c0">Search</text>
</g>
<g id="clust34" class="cluster">
<title>cluster_\SilverStripe\FullTextSearch\Search\Queries</title>
<path fill="none" stroke="#c0c0c0" d="M885.2549,-3214.8026C885.2549,-3214.8026 968.2549,-3214.8026 968.2549,-3214.8026 974.2549,-3214.8026 980.2549,-3220.8026 980.2549,-3226.8026 980.2549,-3226.8026 980.2549,-3274.8026 980.2549,-3274.8026 980.2549,-3280.8026 974.2549,-3286.8026 968.2549,-3286.8026 968.2549,-3286.8026 885.2549,-3286.8026 885.2549,-3286.8026 879.2549,-3286.8026 873.2549,-3280.8026 873.2549,-3274.8026 873.2549,-3274.8026 873.2549,-3226.8026 873.2549,-3226.8026 873.2549,-3220.8026 879.2549,-3214.8026 885.2549,-3214.8026"/>
<text text-anchor="middle" x="926.7549" y="-3274.0026" font-family="Times,serif" font-size="11.00" fill="#c0c0c0">Queries</text>
</g>
<!-- \\Firesphere\\SolrCompatibility\\Extensions\\DataObjectExtension -->
<g id="node1" class="node">
<title>\\Firesphere\\SolrCompatibility\\Extensions\\DataObjectExtension</title>
<polygon fill="none" stroke="#000000" points="999.2549,-220.8026 854.2549,-220.8026 854.2549,-184.8026 999.2549,-184.8026 999.2549,-220.8026"/>
<text text-anchor="middle" x="926.7549" y="-200.0026" font-family="Courier,monospace" font-size="11.00" fill="#000000">DataObjectExtension</text>
</g>
<!-- \\SilverStripe\\Core\\Extension -->
<g id="node64" class="node">
<title>\\SilverStripe\\Core\\Extension</title>
<ellipse fill="none" stroke="#000000" cx="254.1275" cy="-18.8026" rx="144.0747" ry="18"/>
<text text-anchor="middle" x="254.1275" y="-15.1026" font-family="Times,serif" font-size="14.00" fill="#c0c0c0">\SilverStripe\Core\Extension</text>
</g>
<!-- \\Firesphere\\SolrCompatibility\\Extensions\\DataObjectExtension&#45;&gt;\\SilverStripe\\Core\\Extension -->
<g id="edge1" class="edge">
<title>\\Firesphere\\SolrCompatibility\\Extensions\\DataObjectExtension&#45;&gt;\\SilverStripe\\Core\\Extension</title>
<path fill="none" stroke="#000000" d="M909.2812,-184.723C883.6376,-159.2922 833.1975,-113.329 781.2549,-88.8026 736.5953,-67.7151 716.2824,-88.1375 672.7549,-64.8026"/>
<path fill="none" stroke="#000000" d="M672.7549,-64.8026C584.7352,-17.6158 471.4652,-7.6874 384.9481,-8.6918"/>
<polygon fill="none" stroke="#000000" points="384.7408,-5.1946 374.8005,-8.8608 384.8575,-12.1937 384.7408,-5.1946"/>
</g>
<!-- \\Firesphere\\SolrCompatibility\\Extensions\\FulltextSearchExtension -->
<g id="node2" class="node">
<title>\\Firesphere\\SolrCompatibility\\Extensions\\FulltextSearchExtension</title>
<polygon fill="none" stroke="#000000" points="1012.7549,-328.8026 840.7549,-328.8026 840.7549,-292.8026 1012.7549,-292.8026 1012.7549,-328.8026"/>
<text text-anchor="middle" x="926.7549" y="-308.0026" font-family="Courier,monospace" font-size="11.00" fill="#000000">FulltextSearchExtension</text>
</g>
<!-- \\Firesphere\\SolrCompatibility\\Extensions\\FulltextSearchExtension&#45;&gt;\\SilverStripe\\Core\\Extension -->
<g id="edge2" class="edge">
<title>\\Firesphere\\SolrCompatibility\\Extensions\\FulltextSearchExtension&#45;&gt;\\SilverStripe\\Core\\Extension</title>
<path fill="none" stroke="#000000" d="M840.5787,-297.9258C833.4083,-294.2494 826.798,-289.6197 821.2549,-283.8026 760.2228,-219.7539 843.3309,-151.8402 781.2549,-88.8026 746.6018,-53.6128 716.2824,-88.1375 672.7549,-64.8026"/>
</g>
<!-- \\Firesphere\\SolrCompatibility\\Extensions\\SolrCoreServiceExtension -->
<g id="node3" class="node">
<title>\\Firesphere\\SolrCompatibility\\Extensions\\SolrCoreServiceExtension</title>
<polygon fill="none" stroke="#000000" points="1016.2549,-274.8026 837.2549,-274.8026 837.2549,-238.8026 1016.2549,-238.8026 1016.2549,-274.8026"/>
<text text-anchor="middle" x="926.7549" y="-254.0026" font-family="Courier,monospace" font-size="11.00" fill="#000000">SolrCoreServiceExtension</text>
</g>
<!-- \\Firesphere\\SolrCompatibility\\Extensions\\SolrCoreServiceExtension&#45;&gt;\\SilverStripe\\Core\\Extension -->
<g id="edge3" class="edge">
<title>\\Firesphere\\SolrCompatibility\\Extensions\\SolrCoreServiceExtension&#45;&gt;\\SilverStripe\\Core\\Extension</title>
<path fill="none" stroke="#000000" d="M837.2275,-241.5037C831.4095,-238.2808 825.9941,-234.4207 821.2549,-229.8026 774.6022,-184.3418 828.6481,-133.4909 781.2549,-88.8026 745.3221,-54.9206 716.2824,-88.1375 672.7549,-64.8026"/>
</g>
<!-- \\Firesphere\\SolrSearch\\Queries\\BaseQuery -->
<g id="node4" class="node">
<title>\\Firesphere\\SolrSearch\\Queries\\BaseQuery</title>
<polygon fill="none" stroke="#000000" points="711.2549,-2964.8026 634.2549,-2964.8026 634.2549,-2928.8026 711.2549,-2928.8026 711.2549,-2964.8026"/>
<text text-anchor="middle" x="672.7549" y="-2944.0026" font-family="Courier,monospace" font-size="11.00" fill="#000000">BaseQuery</text>
</g>
<!-- \\Firesphere\\SolrSearch\\States\\SiteState -->
<g id="node5" class="node">
<title>\\Firesphere\\SolrSearch\\States\\SiteState</title>
<polygon fill="none" stroke="#000000" points="714.7549,-2884.8026 630.7549,-2884.8026 630.7549,-2848.8026 714.7549,-2848.8026 714.7549,-2884.8026"/>
<text text-anchor="start" x="638.7549" y="-2870.0026" font-family="Courier,monospace" font-size="11.00" fill="#000000">«abstract»</text>
<text text-anchor="start" x="642.2549" y="-2858.0026" font-family="Courier,monospace" font-size="11.00" fill="#000000">SiteState</text>
</g>
<!-- \\Firesphere\\SolrSearch\\Extensions\\DataObjectExtension -->
<g id="node6" class="node">
<title>\\Firesphere\\SolrSearch\\Extensions\\DataObjectExtension</title>
<polygon fill="none" stroke="#000000" points="745.2549,-2160.8026 600.2549,-2160.8026 600.2549,-2124.8026 745.2549,-2124.8026 745.2549,-2160.8026"/>
<text text-anchor="middle" x="672.7549" y="-2140.0026" font-family="Courier,monospace" font-size="11.00" fill="#000000">DataObjectExtension</text>
</g>
<!-- \\SilverStripe\\ORM\\DataExtension -->
<g id="node65" class="node">
<title>\\SilverStripe\\ORM\\DataExtension</title>
<ellipse fill="none" stroke="#000000" cx="254.1275" cy="-72.8026" rx="167.8704" ry="18"/>
<text text-anchor="middle" x="254.1275" y="-69.1026" font-family="Times,serif" font-size="14.00" fill="#c0c0c0">\SilverStripe\ORM\DataExtension</text>
</g>
<!-- \\Firesphere\\SolrSearch\\Extensions\\DataObjectExtension&#45;&gt;\\SilverStripe\\ORM\\DataExtension -->
<g id="edge6" class="edge">
<title>\\Firesphere\\SolrSearch\\Extensions\\DataObjectExtension&#45;&gt;\\SilverStripe\\ORM\\DataExtension</title>
<path fill="none" stroke="#000000" d="M600.0752,-2135.3148C589.307,-2131.0843 579.4355,-2124.8654 572.2549,-2115.8026 433.0776,-1940.1431 660.7467,-264.0366 508.2549,-99.8026 467.4012,-55.8031 398.7262,-50.7769 343.06,-55.815"/>
<polygon fill="none" stroke="#000000" points="342.4171,-52.3625 332.8269,-56.8657 343.1321,-59.3259 342.4171,-52.3625"/>
</g>
<!-- \\Firesphere\\SolrSearch\\Extensions\\GridFieldExtension -->
<g id="node7" class="node">
<title>\\Firesphere\\SolrSearch\\Extensions\\GridFieldExtension</title>
<polygon fill="none" stroke="#000000" points="741.7549,-2106.8026 603.7549,-2106.8026 603.7549,-2070.8026 741.7549,-2070.8026 741.7549,-2106.8026"/>
<text text-anchor="middle" x="672.7549" y="-2086.0026" font-family="Courier,monospace" font-size="11.00" fill="#000000">GridFieldExtension</text>
</g>
<!-- \\Firesphere\\SolrSearch\\Extensions\\GridFieldExtension&#45;&gt;\\SilverStripe\\Core\\Extension -->
<g id="edge7" class="edge">
<title>\\Firesphere\\SolrSearch\\Extensions\\GridFieldExtension&#45;&gt;\\SilverStripe\\Core\\Extension</title>
<path fill="none" stroke="#000000" d="M603.5164,-2080.4928C591.3861,-2075.9143 580.143,-2069.0455 572.2549,-2058.8026 435.7164,-1881.5046 660.5239,-209.7889 508.2549,-45.8026 466.3186,-.6393 395.0697,3.461 338.6665,-2.2363"/>
<polygon fill="none" stroke="#000000" points="338.2223,1.2359 328.677,-3.3617 339.006,-5.7201 338.2223,1.2359"/>
</g>
<!-- \\Firesphere\\SolrSearch\\Jobs\\SolrConfigureJob -->
<g id="node8" class="node">
<title>\\Firesphere\\SolrSearch\\Jobs\\SolrConfigureJob</title>
<polygon fill="none" stroke="#000000" points="735.2549,-2348.8026 610.2549,-2348.8026 610.2549,-2312.8026 735.2549,-2312.8026 735.2549,-2348.8026"/>
<text text-anchor="middle" x="672.7549" y="-2328.0026" font-family="Courier,monospace" font-size="11.00" fill="#000000">SolrConfigureJob</text>
</g>
<!-- \\Symbiote\\QueuedJobs\\Services\\AbstractQueuedJob -->
<g id="node66" class="node">
<title>\\Symbiote\\QueuedJobs\\Services\\AbstractQueuedJob</title>
<ellipse fill="none" stroke="#000000" cx="254.1275" cy="-126.8026" rx="254.255" ry="18"/>
<text text-anchor="middle" x="254.1275" y="-123.1026" font-family="Times,serif" font-size="14.00" fill="#c0c0c0">\Symbiote\QueuedJobs\Services\AbstractQueuedJob</text>
</g>
<!-- \\Firesphere\\SolrSearch\\Jobs\\SolrConfigureJob&#45;&gt;\\Symbiote\\QueuedJobs\\Services\\AbstractQueuedJob -->
<g id="edge8" class="edge">
<title>\\Firesphere\\SolrSearch\\Jobs\\SolrConfigureJob&#45;&gt;\\Symbiote\\QueuedJobs\\Services\\AbstractQueuedJob</title>
<path fill="none" stroke="#000000" d="M610.225,-2325.6833C595.9468,-2321.6236 582.0981,-2314.8744 572.2549,-2303.8026 421.2726,-2133.9742 276.0961,-398.7678 256.393,-155.1577"/>
<polygon fill="none" stroke="#000000" points="259.866,-154.6799 255.5739,-144.9934 252.8886,-155.2422 259.866,-154.6799"/>
</g>
<!-- \\Firesphere\\SolrSearch\\Jobs\\SolrIndexJob -->
<g id="node9" class="node">
<title>\\Firesphere\\SolrSearch\\Jobs\\SolrIndexJob</title>
<polygon fill="none" stroke="#000000" points="721.7549,-2294.8026 623.7549,-2294.8026 623.7549,-2258.8026 721.7549,-2258.8026 721.7549,-2294.8026"/>
<text text-anchor="middle" x="672.7549" y="-2274.0026" font-family="Courier,monospace" font-size="11.00" fill="#000000">SolrIndexJob</text>
</g>
<!-- \\Firesphere\\SolrSearch\\Jobs\\SolrIndexJob&#45;&gt;\\Symbiote\\QueuedJobs\\Services\\AbstractQueuedJob -->
<g id="edge9" class="edge">
<title>\\Firesphere\\SolrSearch\\Jobs\\SolrIndexJob&#45;&gt;\\Symbiote\\QueuedJobs\\Services\\AbstractQueuedJob</title>
<path fill="none" stroke="#000000" d="M623.5893,-2274.7158C604.9779,-2271.3759 585.1854,-2264.294 572.2549,-2249.8026 278.3804,-1920.4541 255.9757,-383.0052 254.2682,-155.0763"/>
<polygon fill="none" stroke="#000000" points="257.7674,-154.9187 254.1999,-144.9426 250.7675,-154.966 257.7674,-154.9187"/>
</g>
<!-- \\Firesphere\\SolrSearch\\Jobs\\ClearDirtyClassesJob -->
<g id="node10" class="node">
<title>\\Firesphere\\SolrSearch\\Jobs\\ClearDirtyClassesJob</title>
<polygon fill="none" stroke="#000000" points="748.7549,-2240.8026 596.7549,-2240.8026 596.7549,-2204.8026 748.7549,-2204.8026 748.7549,-2240.8026"/>
<text text-anchor="middle" x="672.7549" y="-2220.0026" font-family="Courier,monospace" font-size="11.00" fill="#000000">ClearDirtyClassesJob</text>
</g>
<!-- \\Firesphere\\SolrSearch\\Jobs\\ClearDirtyClassesJob&#45;&gt;\\Symbiote\\QueuedJobs\\Services\\AbstractQueuedJob -->
<g id="edge10" class="edge">
<title>\\Firesphere\\SolrSearch\\Jobs\\ClearDirtyClassesJob&#45;&gt;\\Symbiote\\QueuedJobs\\Services\\AbstractQueuedJob</title>
<path fill="none" stroke="#000000" d="M596.3456,-2210.326C587.2249,-2206.0442 578.834,-2200.3532 572.2549,-2192.8026 290.3301,-1869.2446 257.7962,-380.1748 254.4763,-155.2855"/>
<polygon fill="none" stroke="#000000" points="257.9718,-154.9383 254.332,-144.9884 250.9725,-155.0364 257.9718,-154.9383"/>
</g>
<!-- \\Firesphere\\SolrSearch\\Admins\\SearchAdmin -->
<g id="node11" class="node">
<title>\\Firesphere\\SolrSearch\\Admins\\SearchAdmin</title>
<polygon fill="none" stroke="#000000" points="718.2549,-2804.8026 627.2549,-2804.8026 627.2549,-2768.8026 718.2549,-2768.8026 718.2549,-2804.8026"/>
<text text-anchor="middle" x="672.7549" y="-2784.0026" font-family="Courier,monospace" font-size="11.00" fill="#000000">SearchAdmin</text>
</g>
<!-- \\SilverStripe\\Admin\\ModelAdmin -->
<g id="node67" class="node">
<title>\\SilverStripe\\Admin\\ModelAdmin</title>
<ellipse fill="none" stroke="#000000" cx="254.1275" cy="-3694.8026" rx="165.1707" ry="18"/>
<text text-anchor="middle" x="254.1275" y="-3691.1026" font-family="Times,serif" font-size="14.00" fill="#c0c0c0">\SilverStripe\Admin\ModelAdmin</text>
</g>
<!-- \\Firesphere\\SolrSearch\\Admins\\SearchAdmin&#45;&gt;\\SilverStripe\\Admin\\ModelAdmin -->
<g id="edge11" class="edge">
<title>\\Firesphere\\SolrSearch\\Admins\\SearchAdmin&#45;&gt;\\SilverStripe\\Admin\\ModelAdmin</title>
<path fill="none" stroke="#000000" d="M627.0538,-2798.391C606.8959,-2805.929 584.9428,-2817.9753 572.2549,-2836.8026 468.7477,-2990.394 637.3089,-3534.9527 508.2549,-3667.8026 467.1465,-3710.1202 400.1788,-3715.7606 345.3071,-3711.4087"/>
<polygon fill="none" stroke="#000000" points="345.4881,-3707.9107 335.2111,-3710.4864 344.8512,-3714.8817 345.4881,-3707.9107"/>
</g>
<!-- \\Firesphere\\SolrSearch\\Stores\\PostConfigStore -->
<g id="node12" class="node">
<title>\\Firesphere\\SolrSearch\\Stores\\PostConfigStore</title>
<polygon fill="none" stroke="#000000" points="731.7549,-2482.8026 613.7549,-2482.8026 613.7549,-2446.8026 731.7549,-2446.8026 731.7549,-2482.8026"/>
<text text-anchor="middle" x="672.7549" y="-2462.0026" font-family="Courier,monospace" font-size="11.00" fill="#000000">PostConfigStore</text>
</g>
<!-- \\Firesphere\\SolrSearch\\Interfaces\\ConfigStore -->
<g id="node43" class="node">
<title>\\Firesphere\\SolrSearch\\Interfaces\\ConfigStore</title>
<polygon fill="none" stroke="#000000" points="299.6275,-2428.8026 208.6275,-2428.8026 208.6275,-2392.8026 299.6275,-2392.8026 299.6275,-2428.8026"/>
<text text-anchor="middle" x="254.1275" y="-2408.0026" font-family="Courier,monospace" font-size="11.00" fill="#000000">ConfigStore</text>
</g>
<!-- \\Firesphere\\SolrSearch\\Stores\\PostConfigStore&#45;&gt;\\Firesphere\\SolrSearch\\Interfaces\\ConfigStore -->
<g id="edge12" class="edge">
<title>\\Firesphere\\SolrSearch\\Stores\\PostConfigStore&#45;&gt;\\Firesphere\\SolrSearch\\Interfaces\\ConfigStore</title>
<path fill="none" stroke="#000000" stroke-dasharray="1,5" d="M613.6637,-2457.1803C532.8854,-2446.7604 389.0185,-2428.2026 309.9722,-2418.0062"/>
<polygon fill="none" stroke="#000000" points="310.0944,-2414.493 299.7287,-2416.6849 309.1988,-2421.4355 310.0944,-2414.493"/>
</g>
<!-- \\Firesphere\\SolrSearch\\Stores\\FileConfigStore -->
<g id="node13" class="node">
<title>\\Firesphere\\SolrSearch\\Stores\\FileConfigStore</title>
<polygon fill="none" stroke="#000000" points="731.7549,-2428.8026 613.7549,-2428.8026 613.7549,-2392.8026 731.7549,-2392.8026 731.7549,-2428.8026"/>
<text text-anchor="middle" x="672.7549" y="-2408.0026" font-family="Courier,monospace" font-size="11.00" fill="#000000">FileConfigStore</text>
</g>
<!-- \\Firesphere\\SolrSearch\\Stores\\FileConfigStore&#45;&gt;\\Firesphere\\SolrSearch\\Interfaces\\ConfigStore -->
<g id="edge13" class="edge">
<title>\\Firesphere\\SolrSearch\\Stores\\FileConfigStore&#45;&gt;\\Firesphere\\SolrSearch\\Interfaces\\ConfigStore</title>
<path fill="none" stroke="#000000" stroke-dasharray="1,5" d="M613.6637,-2410.8026C532.8854,-2410.8026 389.0185,-2410.8026 309.9722,-2410.8026"/>
<polygon fill="none" stroke="#000000" points="309.7288,-2407.3027 299.7287,-2410.8026 309.7287,-2414.3027 309.7288,-2407.3027"/>
</g>
<!-- \\Firesphere\\SolrSearch\\Tasks\\ClearErrorsTask -->
<g id="node14" class="node">
<title>\\Firesphere\\SolrSearch\\Tasks\\ClearErrorsTask</title>
<polygon fill="none" stroke="#000000" points="731.7549,-2724.8026 613.7549,-2724.8026 613.7549,-2688.8026 731.7549,-2688.8026 731.7549,-2724.8026"/>
<text text-anchor="middle" x="672.7549" y="-2704.0026" font-family="Courier,monospace" font-size="11.00" fill="#000000">ClearErrorsTask</text>
</g>
<!-- \\SilverStripe\\Dev\\BuildTask -->
<g id="node68" class="node">
<title>\\SilverStripe\\Dev\\BuildTask</title>
<ellipse fill="none" stroke="#000000" cx="254.1275" cy="-3640.8026" rx="139.9756" ry="18"/>
<text text-anchor="middle" x="254.1275" y="-3637.1026" font-family="Times,serif" font-size="14.00" fill="#c0c0c0">\SilverStripe\Dev\BuildTask</text>
</g>
<!-- \\Firesphere\\SolrSearch\\Tasks\\ClearErrorsTask&#45;&gt;\\SilverStripe\\Dev\\BuildTask -->
<g id="edge14" class="edge">
<title>\\Firesphere\\SolrSearch\\Tasks\\ClearErrorsTask&#45;&gt;\\SilverStripe\\Dev\\BuildTask</title>
<path fill="none" stroke="#000000" d="M613.6537,-2723.9983C597.7074,-2731.5126 582.1486,-2742.0848 572.2549,-2756.8026 465.7121,-2915.2955 641.1641,-3476.6658 508.2549,-3613.8026 465.8876,-3657.5176 395.9326,-3662.1285 340.1336,-3656.995"/>
<polygon fill="none" stroke="#000000" points="340.1976,-3653.4829 329.8893,-3655.9303 339.4739,-3660.4454 340.1976,-3653.4829"/>
</g>
<!-- \\Firesphere\\SolrSearch\\Tasks\\SolrIndexTask -->
<g id="node15" class="node">
<title>\\Firesphere\\SolrSearch\\Tasks\\SolrIndexTask</title>
<polygon fill="none" stroke="#000000" points="724.7549,-2670.8026 620.7549,-2670.8026 620.7549,-2634.8026 724.7549,-2634.8026 724.7549,-2670.8026"/>
<text text-anchor="middle" x="672.7549" y="-2650.0026" font-family="Courier,monospace" font-size="11.00" fill="#000000">SolrIndexTask</text>
</g>
<!-- \\Firesphere\\SolrSearch\\Tasks\\SolrIndexTask&#45;&gt;\\SilverStripe\\Dev\\BuildTask -->
<g id="edge15" class="edge">
<title>\\Firesphere\\SolrSearch\\Tasks\\SolrIndexTask&#45;&gt;\\SilverStripe\\Dev\\BuildTask</title>
<path fill="none" stroke="#000000" d="M620.6384,-2654.8077C602.6546,-2658.254 584.0767,-2665.4316 572.2549,-2679.8026 440.089,-2840.4692 652.584,-3463.9671 508.2549,-3613.8026 465.9492,-3657.7224 395.817,-3662.2644 339.933,-3657.052"/>
<polygon fill="none" stroke="#000000" points="339.9854,-3653.5383 329.674,-3655.9725 339.2528,-3660.4998 339.9854,-3653.5383"/>
</g>
<!-- \\Firesphere\\SolrSearch\\Tasks\\ClearDirtyClassesTask -->
<g id="node16" class="node">
<title>\\Firesphere\\SolrSearch\\Tasks\\ClearDirtyClassesTask</title>
<polygon fill="none" stroke="#000000" points="751.7549,-2616.8026 593.7549,-2616.8026 593.7549,-2580.8026 751.7549,-2580.8026 751.7549,-2616.8026"/>
<text text-anchor="middle" x="672.7549" y="-2596.0026" font-family="Courier,monospace" font-size="11.00" fill="#000000">ClearDirtyClassesTask</text>
</g>
<!-- \\Firesphere\\SolrSearch\\Tasks\\ClearDirtyClassesTask&#45;&gt;\\SilverStripe\\Dev\\BuildTask -->
<g id="edge16" class="edge">
<title>\\Firesphere\\SolrSearch\\Tasks\\ClearDirtyClassesTask&#45;&gt;\\SilverStripe\\Dev\\BuildTask</title>
<path fill="none" stroke="#000000" d="M593.3812,-2609.5425C585.3035,-2613.5281 577.9806,-2618.8157 572.2549,-2625.8026 432.7994,-2795.9763 660.5949,-3455.0593 508.2549,-3613.8026 465.9589,-3657.8765 395.6526,-3662.3528 339.6987,-3657.0757"/>
<polygon fill="none" stroke="#000000" points="339.7418,-3653.5607 329.4279,-3655.9842 339.002,-3660.5215 339.7418,-3653.5607"/>
</g>
<!-- \\Firesphere\\SolrSearch\\Tasks\\SolrConfigureTask -->
<g id="node17" class="node">
<title>\\Firesphere\\SolrSearch\\Tasks\\SolrConfigureTask</title>
<polygon fill="none" stroke="#000000" points="738.2549,-2562.8026 607.2549,-2562.8026 607.2549,-2526.8026 738.2549,-2526.8026 738.2549,-2562.8026"/>
<text text-anchor="middle" x="672.7549" y="-2542.0026" font-family="Courier,monospace" font-size="11.00" fill="#000000">SolrConfigureTask</text>
</g>
<!-- \\Firesphere\\SolrSearch\\Tasks\\SolrConfigureTask&#45;&gt;\\SilverStripe\\Dev\\BuildTask -->
<g id="edge17" class="edge">
<title>\\Firesphere\\SolrSearch\\Tasks\\SolrConfigureTask&#45;&gt;\\SilverStripe\\Dev\\BuildTask</title>
<path fill="none" stroke="#000000" d="M607.2279,-2550.0602C593.8165,-2554.2051 581.1116,-2560.9581 572.2549,-2571.8026 425.5086,-2751.485 668.6072,-3446.1501 508.2549,-3613.8026 465.9604,-3658.0226 395.4803,-3662.4333 339.459,-3657.0937"/>
<polygon fill="none" stroke="#000000" points="339.4932,-3653.5774 329.1769,-3655.9907 338.7465,-3660.5375 339.4932,-3653.5774"/>
</g>
<!-- \\Firesphere\\SolrSearch\\Traits\\LoggerTrait -->
<g id="node18" class="node">
<title>\\Firesphere\\SolrSearch\\Traits\\LoggerTrait</title>
<polygon fill="none" stroke="#000000" points="718.2549,-2026.8026 627.2549,-2026.8026 627.2549,-1990.8026 718.2549,-1990.8026 718.2549,-2026.8026"/>
<text text-anchor="middle" x="672.7549" y="-2006.0026" font-family="Courier,monospace" font-size="11.00" fill="#000000">LoggerTrait</text>
</g>
<!-- \\Firesphere\\SolrSearch\\Traits\\BaseQueryTrait -->
<g id="node19" class="node">
<title>\\Firesphere\\SolrSearch\\Traits\\BaseQueryTrait</title>
<polygon fill="none" stroke="#000000" points="728.2549,-1972.8026 617.2549,-1972.8026 617.2549,-1936.8026 728.2549,-1936.8026 728.2549,-1972.8026"/>
<text text-anchor="middle" x="672.7549" y="-1952.0026" font-family="Courier,monospace" font-size="11.00" fill="#000000">BaseQueryTrait</text>
</g>
<!-- \\Firesphere\\SolrSearch\\Traits\\SolrIndexTrait -->
<g id="node20" class="node">
<title>\\Firesphere\\SolrSearch\\Traits\\SolrIndexTrait</title>
<polygon fill="none" stroke="#000000" points="728.2549,-1918.8026 617.2549,-1918.8026 617.2549,-1882.8026 728.2549,-1882.8026 728.2549,-1918.8026"/>
<text text-anchor="middle" x="672.7549" y="-1898.0026" font-family="Courier,monospace" font-size="11.00" fill="#000000">SolrIndexTrait</text>
</g>
<!-- \\Firesphere\\SolrSearch\\Traits\\BaseIndexTrait -->
<g id="node21" class="node">
<title>\\Firesphere\\SolrSearch\\Traits\\BaseIndexTrait</title>
<polygon fill="none" stroke="#000000" points="728.2549,-1864.8026 617.2549,-1864.8026 617.2549,-1828.8026 728.2549,-1828.8026 728.2549,-1864.8026"/>
<text text-anchor="middle" x="672.7549" y="-1844.0026" font-family="Courier,monospace" font-size="11.00" fill="#000000">BaseIndexTrait</text>
</g>
<!-- \\Firesphere\\SolrSearch\\Traits\\GetterSetterTrait -->
<g id="node22" class="node">
<title>\\Firesphere\\SolrSearch\\Traits\\GetterSetterTrait</title>
<polygon fill="none" stroke="#000000" points="738.2549,-1810.8026 607.2549,-1810.8026 607.2549,-1774.8026 738.2549,-1774.8026 738.2549,-1810.8026"/>
<text text-anchor="middle" x="672.7549" y="-1790.0026" font-family="Courier,monospace" font-size="11.00" fill="#000000">GetterSetterTrait</text>
</g>
<!-- \\Firesphere\\SolrSearch\\Traits\\CoreAdminTrait -->
<g id="node23" class="node">
<title>\\Firesphere\\SolrSearch\\Traits\\CoreAdminTrait</title>
<polygon fill="none" stroke="#000000" points="728.2549,-1756.8026 617.2549,-1756.8026 617.2549,-1720.8026 728.2549,-1720.8026 728.2549,-1756.8026"/>
<text text-anchor="middle" x="672.7549" y="-1736.0026" font-family="Courier,monospace" font-size="11.00" fill="#000000">CoreAdminTrait</text>
</g>
<!-- \\Firesphere\\SolrSearch\\Traits\\CoreServiceTrait -->
<g id="node24" class="node">
<title>\\Firesphere\\SolrSearch\\Traits\\CoreServiceTrait</title>
<polygon fill="none" stroke="#000000" points="735.2549,-1702.8026 610.2549,-1702.8026 610.2549,-1666.8026 735.2549,-1666.8026 735.2549,-1702.8026"/>
<text text-anchor="middle" x="672.7549" y="-1682.0026" font-family="Courier,monospace" font-size="11.00" fill="#000000">CoreServiceTrait</text>
</g>
<!-- \\Firesphere\\SolrSearch\\Traits\\GetSetSearchResolverTrait -->
<g id="node25" class="node">
<title>\\Firesphere\\SolrSearch\\Traits\\GetSetSearchResolverTrait</title>
<polygon fill="none" stroke="#000000" points="765.2549,-1648.8026 580.2549,-1648.8026 580.2549,-1612.8026 765.2549,-1612.8026 765.2549,-1648.8026"/>
<text text-anchor="middle" x="672.7549" y="-1628.0026" font-family="Courier,monospace" font-size="11.00" fill="#000000">GetSetSearchResolverTrait</text>
</g>
<!-- \\Firesphere\\SolrSearch\\Traits\\DataResolveTrait -->
<g id="node26" class="node">
<title>\\Firesphere\\SolrSearch\\Traits\\DataResolveTrait</title>
<polygon fill="none" stroke="#000000" points="735.2549,-1594.8026 610.2549,-1594.8026 610.2549,-1558.8026 735.2549,-1558.8026 735.2549,-1594.8026"/>
<text text-anchor="middle" x="672.7549" y="-1574.0026" font-family="Courier,monospace" font-size="11.00" fill="#000000">DataResolveTrait</text>
</g>
<!-- \\Firesphere\\SolrSearch\\Traits\\SearchResultGetTrait -->
<g id="node27" class="node">
<title>\\Firesphere\\SolrSearch\\Traits\\SearchResultGetTrait</title>
<polygon fill="none" stroke="#000000" points="748.7549,-1540.8026 596.7549,-1540.8026 596.7549,-1504.8026 748.7549,-1504.8026 748.7549,-1540.8026"/>
<text text-anchor="middle" x="672.7549" y="-1520.0026" font-family="Courier,monospace" font-size="11.00" fill="#000000">SearchResultGetTrait</text>
</g>
<!-- \\Firesphere\\SolrSearch\\Traits\\SearchResultSetTrait -->
<g id="node28" class="node">
<title>\\Firesphere\\SolrSearch\\Traits\\SearchResultSetTrait</title>
<polygon fill="none" stroke="#000000" points="748.7549,-1486.8026 596.7549,-1486.8026 596.7549,-1450.8026 748.7549,-1450.8026 748.7549,-1486.8026"/>
<text text-anchor="middle" x="672.7549" y="-1466.0026" font-family="Courier,monospace" font-size="11.00" fill="#000000">SearchResultSetTrait</text>
</g>
<!-- \\Firesphere\\SolrSearch\\Traits\\DocumentFactoryTrait -->
<g id="node29" class="node">
<title>\\Firesphere\\SolrSearch\\Traits\\DocumentFactoryTrait</title>
<polygon fill="none" stroke="#000000" points="748.7549,-1432.8026 596.7549,-1432.8026 596.7549,-1396.8026 748.7549,-1396.8026 748.7549,-1432.8026"/>
<text text-anchor="middle" x="672.7549" y="-1412.0026" font-family="Courier,monospace" font-size="11.00" fill="#000000">DocumentFactoryTrait</text>
</g>
<!-- \\Firesphere\\SolrSearch\\Traits\\GetSetSchemaFactoryTrait -->
<g id="node30" class="node">
<title>\\Firesphere\\SolrSearch\\Traits\\GetSetSchemaFactoryTrait</title>
<polygon fill="none" stroke="#000000" points="762.2549,-1378.8026 583.2549,-1378.8026 583.2549,-1342.8026 762.2549,-1342.8026 762.2549,-1378.8026"/>
<text text-anchor="middle" x="672.7549" y="-1358.0026" font-family="Courier,monospace" font-size="11.00" fill="#000000">GetSetSchemaFactoryTrait</text>
</g>
<!-- \\Firesphere\\SolrSearch\\Traits\\QueryComponentBoostTrait -->
<g id="node31" class="node">
<title>\\Firesphere\\SolrSearch\\Traits\\QueryComponentBoostTrait</title>
<polygon fill="none" stroke="#000000" points="762.2549,-1324.8026 583.2549,-1324.8026 583.2549,-1288.8026 762.2549,-1288.8026 762.2549,-1324.8026"/>
<text text-anchor="middle" x="672.7549" y="-1304.0026" font-family="Courier,monospace" font-size="11.00" fill="#000000">QueryComponentBoostTrait</text>
</g>
<!-- \\Firesphere\\SolrSearch\\Traits\\QueryComponentFilterTrait -->
<g id="node32" class="node">
<title>\\Firesphere\\SolrSearch\\Traits\\QueryComponentFilterTrait</title>
<polygon fill="none" stroke="#000000" points="765.2549,-1270.8026 580.2549,-1270.8026 580.2549,-1234.8026 765.2549,-1234.8026 765.2549,-1270.8026"/>
<text text-anchor="middle" x="672.7549" y="-1250.0026" font-family="Courier,monospace" font-size="11.00" fill="#000000">QueryComponentFilterTrait</text>
</g>
<!-- \\Firesphere\\SolrSearch\\Traits\\QueryComponentFacetTrait -->
<g id="node33" class="node">
<title>\\Firesphere\\SolrSearch\\Traits\\QueryComponentFacetTrait</title>
<polygon fill="none" stroke="#000000" points="762.2549,-1216.8026 583.2549,-1216.8026 583.2549,-1180.8026 762.2549,-1180.8026 762.2549,-1216.8026"/>
<text text-anchor="middle" x="672.7549" y="-1196.0026" font-family="Courier,monospace" font-size="11.00" fill="#000000">QueryComponentFacetTrait</text>
</g>
<!-- \\Firesphere\\SolrSearch\\Results\\SearchResult -->
<g id="node34" class="node">
<title>\\Firesphere\\SolrSearch\\Results\\SearchResult</title>
<polygon fill="none" stroke="#000000" points="721.7549,-1136.8026 623.7549,-1136.8026 623.7549,-1100.8026 721.7549,-1100.8026 721.7549,-1136.8026"/>
<text text-anchor="middle" x="672.7549" y="-1116.0026" font-family="Courier,monospace" font-size="11.00" fill="#000000">SearchResult</text>
</g>
<!-- \\SilverStripe\\View\\ViewableData -->
<g id="node69" class="node">
<title>\\SilverStripe\\View\\ViewableData</title>
<ellipse fill="none" stroke="#000000" cx="254.1275" cy="-3586.8026" rx="163.2712" ry="18"/>
<text text-anchor="middle" x="254.1275" y="-3583.1026" font-family="Times,serif" font-size="14.00" fill="#c0c0c0">\SilverStripe\View\ViewableData</text>
</g>
<!-- \\Firesphere\\SolrSearch\\Results\\SearchResult&#45;&gt;\\SilverStripe\\View\\ViewableData -->
<g id="edge18" class="edge">
<title>\\Firesphere\\SolrSearch\\Results\\SearchResult&#45;&gt;\\SilverStripe\\View\\ViewableData</title>
<path fill="none" stroke="#000000" d="M623.7519,-1131.203C604.3304,-1138.7449 583.8907,-1150.567 572.2549,-1168.8026 500.7775,-1280.8219 598.4278,-3462.2004 508.2549,-3559.8026 467.2273,-3604.2104 397.8726,-3608.992 341.9726,-3603.7507"/>
<polygon fill="none" stroke="#000000" points="342.0143,-3600.2357 331.7012,-3602.6627 341.2769,-3607.1967 342.0143,-3600.2357"/>
</g>
<!-- \\Firesphere\\SolrSearch\\Forms\\SearchForm -->
<g id="node35" class="node">
<title>\\Firesphere\\SolrSearch\\Forms\\SearchForm</title>
<polygon fill="none" stroke="#000000" points="714.7549,-868.8026 630.7549,-868.8026 630.7549,-832.8026 714.7549,-832.8026 714.7549,-868.8026"/>
<text text-anchor="middle" x="672.7549" y="-848.0026" font-family="Courier,monospace" font-size="11.00" fill="#000000">SearchForm</text>
</g>
<!-- \\SilverStripe\\Forms\\Form -->
<g id="node70" class="node">
<title>\\SilverStripe\\Forms\\Form</title>
<ellipse fill="none" stroke="#000000" cx="254.1275" cy="-3532.8026" rx="129.1772" ry="18"/>
<text text-anchor="middle" x="254.1275" y="-3529.1026" font-family="Times,serif" font-size="14.00" fill="#c0c0c0">\SilverStripe\Forms\Form</text>
</g>
<!-- \\Firesphere\\SolrSearch\\Forms\\SearchForm&#45;&gt;\\SilverStripe\\Forms\\Form -->
<g id="edge19" class="edge">
<title>\\Firesphere\\SolrSearch\\Forms\\SearchForm&#45;&gt;\\SilverStripe\\Forms\\Form</title>
<path fill="none" stroke="#000000" d="M630.5001,-860.7144C609.2158,-868.049 585.2311,-880.417 572.2549,-900.8026 494.5187,-1022.9265 606.3761,-3399.3629 508.2549,-3505.8026 465.6309,-3552.0402 392.3031,-3555.3539 335.3375,-3549.1009"/>
<polygon fill="none" stroke="#000000" points="335.6127,-3545.6087 325.2638,-3547.8783 334.7693,-3552.5577 335.6127,-3545.6087"/>
</g>
<!-- \\Firesphere\\SolrSearch\\Factories\\QueryComponentFactory -->
<g id="node36" class="node">
<title>\\Firesphere\\SolrSearch\\Factories\\QueryComponentFactory</title>
<polygon fill="none" stroke="#000000" points="751.7549,-1056.8026 593.7549,-1056.8026 593.7549,-1020.8026 751.7549,-1020.8026 751.7549,-1056.8026"/>
<text text-anchor="middle" x="672.7549" y="-1036.0026" font-family="Courier,monospace" font-size="11.00" fill="#000000">QueryComponentFactory</text>
</g>
<!-- \\Firesphere\\SolrSearch\\Factories\\DocumentFactory -->
<g id="node37" class="node">
<title>\\Firesphere\\SolrSearch\\Factories\\DocumentFactory</title>
<polygon fill="none" stroke="#000000" points="731.7549,-1002.8026 613.7549,-1002.8026 613.7549,-966.8026 731.7549,-966.8026 731.7549,-1002.8026"/>
<text text-anchor="middle" x="672.7549" y="-982.0026" font-family="Courier,monospace" font-size="11.00" fill="#000000">DocumentFactory</text>
</g>
<!-- \\Firesphere\\SolrSearch\\Factories\\SchemaFactory -->
<g id="node38" class="node">
<title>\\Firesphere\\SolrSearch\\Factories\\SchemaFactory</title>
<polygon fill="none" stroke="#000000" points="724.7549,-948.8026 620.7549,-948.8026 620.7549,-912.8026 724.7549,-912.8026 724.7549,-948.8026"/>
<text text-anchor="middle" x="672.7549" y="-928.0026" font-family="Courier,monospace" font-size="11.00" fill="#000000">SchemaFactory</text>
</g>
<!-- \\Firesphere\\SolrSearch\\Factories\\SchemaFactory&#45;&gt;\\SilverStripe\\View\\ViewableData -->
<g id="edge20" class="edge">
<title>\\Firesphere\\SolrSearch\\Factories\\SchemaFactory&#45;&gt;\\SilverStripe\\View\\ViewableData</title>
<path fill="none" stroke="#000000" d="M620.5603,-932.4844C602.4547,-935.8785 583.8148,-943.105 572.2549,-957.8026 482.8621,-1071.4594 606.2646,-3453.4868 508.2549,-3559.8026 467.2048,-3604.3316 397.678,-3609.05 341.7146,-3603.7526"/>
<polygon fill="none" stroke="#000000" points="341.748,-3600.2363 331.4328,-3602.6543 341.0044,-3607.1967 341.748,-3600.2363"/>
</g>
<!-- \\Firesphere\\SolrSearch\\Indexes\\BaseIndex -->
<g id="node39" class="node">
<title>\\Firesphere\\SolrSearch\\Indexes\\BaseIndex</title>
<polygon fill="none" stroke="#000000" points="714.7549,-788.8026 630.7549,-788.8026 630.7549,-752.8026 714.7549,-752.8026 714.7549,-788.8026"/>
<text text-anchor="start" x="638.7549" y="-774.0026" font-family="Courier,monospace" font-size="11.00" fill="#000000">«abstract»</text>
<text text-anchor="start" x="642.2549" y="-762.0026" font-family="Courier,monospace" font-size="11.00" fill="#000000">BaseIndex</text>
</g>
<!-- \\Firesphere\\SolrSearch\\Models\\DirtyClass -->
<g id="node40" class="node">
<title>\\Firesphere\\SolrSearch\\Models\\DirtyClass</title>
<polygon fill="none" stroke="#000000" points="714.7549,-654.8026 630.7549,-654.8026 630.7549,-618.8026 714.7549,-618.8026 714.7549,-654.8026"/>
<text text-anchor="middle" x="672.7549" y="-634.0026" font-family="Courier,monospace" font-size="11.00" fill="#000000">DirtyClass</text>
</g>
<!-- \\SilverStripe\\ORM\\DataObject -->
<g id="node71" class="node">
<title>\\SilverStripe\\ORM\\DataObject</title>
<ellipse fill="none" stroke="#000000" cx="254.1275" cy="-3478.8026" rx="152.9733" ry="18"/>
<text text-anchor="middle" x="254.1275" y="-3475.1026" font-family="Times,serif" font-size="14.00" fill="#c0c0c0">\SilverStripe\ORM\DataObject</text>
</g>
<!-- \\Firesphere\\SolrSearch\\Models\\DirtyClass&#45;&gt;\\SilverStripe\\ORM\\DataObject -->
<g id="edge21" class="edge">
<title>\\Firesphere\\SolrSearch\\Models\\DirtyClass&#45;&gt;\\SilverStripe\\ORM\\DataObject</title>
<path fill="none" stroke="#000000" d="M630.6745,-636.9406C609.7149,-639.4089 585.9784,-646.3246 572.2549,-663.8026 476.5756,-785.6578 613.1732,-3337.8054 508.2549,-3451.8026 466.731,-3496.9197 395.9777,-3501.1926 339.6558,-3495.5719"/>
<polygon fill="none" stroke="#000000" points="340.0026,-3492.089 329.6763,-3494.4592 339.2269,-3499.0459 340.0026,-3492.089"/>
</g>
<!-- \\Firesphere\\SolrSearch\\Models\\SolrLog -->
<g id="node41" class="node">
<title>\\Firesphere\\SolrSearch\\Models\\SolrLog</title>
<polygon fill="none" stroke="#000000" points="704.7549,-600.8026 640.7549,-600.8026 640.7549,-564.8026 704.7549,-564.8026 704.7549,-600.8026"/>
<text text-anchor="middle" x="672.7549" y="-580.0026" font-family="Courier,monospace" font-size="11.00" fill="#000000">SolrLog</text>
</g>
<!-- \\Firesphere\\SolrSearch\\Models\\SolrLog&#45;&gt;\\SilverStripe\\ORM\\DataObject -->
<g id="edge22" class="edge">
<title>\\Firesphere\\SolrSearch\\Models\\SolrLog&#45;&gt;\\SilverStripe\\ORM\\DataObject</title>
<path fill="none" stroke="#000000" d="M640.6209,-582.061C617.695,-583.4361 588.2054,-589.4792 572.2549,-609.8026 474.7505,-734.038 615.1789,-3335.5753 508.2549,-3451.8026 466.7409,-3496.9287 395.9867,-3501.2009 339.662,-3495.5777"/>
<polygon fill="none" stroke="#000000" points="340.0085,-3492.0947 329.6821,-3494.4645 339.2324,-3499.0516 340.0085,-3492.0947"/>
</g>
<!-- \\SilverStripe\\Security\\PermissionProvider -->
<g id="node72" class="node">
<title>\\SilverStripe\\Security\\PermissionProvider</title>
<ellipse fill="none" stroke="#000000" cx="254.1275" cy="-3424.8026" rx="206.0634" ry="18"/>
<text text-anchor="middle" x="254.1275" y="-3421.1026" font-family="Times,serif" font-size="14.00" fill="#c0c0c0">\SilverStripe\Security\PermissionProvider</text>
</g>
<!-- \\Firesphere\\SolrSearch\\Models\\SolrLog&#45;&gt;\\SilverStripe\\Security\\PermissionProvider -->
<g id="edge23" class="edge">
<title>\\Firesphere\\SolrSearch\\Models\\SolrLog&#45;&gt;\\SilverStripe\\Security\\PermissionProvider</title>
<path fill="none" stroke="#000000" stroke-dasharray="1,5" d="M640.6922,-582.1174C617.8028,-583.5213 588.3276,-589.5757 572.2549,-609.8026 508.2418,-690.3611 523.2403,-2359.0049 508.2549,-2460.8026 452.5231,-2839.3956 303.5012,-3283.0957 263.9027,-3397.0442"/>
<polygon fill="none" stroke="#000000" points="260.5095,-3396.1451 260.5201,-3406.74 267.1188,-3398.451 260.5095,-3396.1451"/>
</g>
<!-- \\Firesphere\\SolrSearch\\Models\\SearchSynonym -->
<g id="node42" class="node">
<title>\\Firesphere\\SolrSearch\\Models\\SearchSynonym</title>
<polygon fill="none" stroke="#000000" points="724.7549,-708.8026 620.7549,-708.8026 620.7549,-672.8026 724.7549,-672.8026 724.7549,-708.8026"/>
<text text-anchor="middle" x="672.7549" y="-688.0026" font-family="Courier,monospace" font-size="11.00" fill="#000000">SearchSynonym</text>
</g>
<!-- \\Firesphere\\SolrSearch\\Models\\SearchSynonym&#45;&gt;\\SilverStripe\\ORM\\DataObject -->
<g id="edge24" class="edge">
<title>\\Firesphere\\SolrSearch\\Models\\SearchSynonym&#45;&gt;\\SilverStripe\\ORM\\DataObject</title>
<path fill="none" stroke="#000000" d="M620.5666,-704.4457C602.1143,-712.0212 583.2345,-723.5354 572.2549,-740.8026 491.4184,-867.9317 610.3132,-3340.9854 508.2549,-3451.8026 466.7163,-3496.9062 395.9641,-3501.1801 339.6464,-3495.5633"/>
<polygon fill="none" stroke="#000000" points="339.9939,-3492.0805 329.6678,-3494.4514 339.2186,-3499.0374 339.9939,-3492.0805"/>
</g>
<!-- \\Firesphere\\SolrSearch\\Interfaces\\SiteStateInterface -->
<g id="node44" class="node">
<title>\\Firesphere\\SolrSearch\\Interfaces\\SiteStateInterface</title>
<polygon fill="none" stroke="#000000" points="323.1275,-2374.8026 185.1275,-2374.8026 185.1275,-2338.8026 323.1275,-2338.8026 323.1275,-2374.8026"/>
<text text-anchor="middle" x="254.1275" y="-2354.0026" font-family="Courier,monospace" font-size="11.00" fill="#000000">SiteStateInterface</text>
</g>
<!-- \\Firesphere\\SolrSearch\\Services\\SolrCoreService -->
<g id="node45" class="node">
<title>\\Firesphere\\SolrSearch\\Services\\SolrCoreService</title>
<polygon fill="none" stroke="#000000" points="731.7549,-520.8026 613.7549,-520.8026 613.7549,-484.8026 731.7549,-484.8026 731.7549,-520.8026"/>
<text text-anchor="middle" x="672.7549" y="-500.0026" font-family="Courier,monospace" font-size="11.00" fill="#000000">SolrCoreService</text>
</g>
<!-- \\Firesphere\\SolrSearch\\Helpers\\FieldResolver -->
<g id="node46" class="node">
<title>\\Firesphere\\SolrSearch\\Helpers\\FieldResolver</title>
<polygon fill="none" stroke="#000000" points="724.7549,-440.8026 620.7549,-440.8026 620.7549,-404.8026 724.7549,-404.8026 724.7549,-440.8026"/>
<text text-anchor="middle" x="672.7549" y="-420.0026" font-family="Courier,monospace" font-size="11.00" fill="#000000">FieldResolver</text>
</g>
<!-- \\Firesphere\\SolrSearch\\Helpers\\Statics -->
<g id="node47" class="node">
<title>\\Firesphere\\SolrSearch\\Helpers\\Statics</title>
<polygon fill="none" stroke="#000000" points="704.7549,-386.8026 640.7549,-386.8026 640.7549,-350.8026 704.7549,-350.8026 704.7549,-386.8026"/>
<text text-anchor="middle" x="672.7549" y="-366.0026" font-family="Courier,monospace" font-size="11.00" fill="#000000">Statics</text>
</g>
<!-- \\Firesphere\\SolrSearch\\Helpers\\Synonyms -->
<g id="node48" class="node">
<title>\\Firesphere\\SolrSearch\\Helpers\\Synonyms</title>
<polygon fill="none" stroke="#000000" points="708.2549,-332.8026 637.2549,-332.8026 637.2549,-296.8026 708.2549,-296.8026 708.2549,-332.8026"/>
<text text-anchor="middle" x="672.7549" y="-312.0026" font-family="Courier,monospace" font-size="11.00" fill="#000000">Synonyms</text>
</g>
<!-- \\Firesphere\\SolrSearch\\Helpers\\SolrLogger -->
<g id="node49" class="node">
<title>\\Firesphere\\SolrSearch\\Helpers\\SolrLogger</title>
<polygon fill="none" stroke="#000000" points="714.7549,-278.8026 630.7549,-278.8026 630.7549,-242.8026 714.7549,-242.8026 714.7549,-278.8026"/>
<text text-anchor="middle" x="672.7549" y="-258.0026" font-family="Courier,monospace" font-size="11.00" fill="#000000">SolrLogger</text>
</g>
<!-- \\Firesphere\\SolrSearch\\Helpers\\DataResolver -->
<g id="node50" class="node">
<title>\\Firesphere\\SolrSearch\\Helpers\\DataResolver</title>
<polygon fill="none" stroke="#000000" points="721.7549,-224.8026 623.7549,-224.8026 623.7549,-188.8026 721.7549,-188.8026 721.7549,-224.8026"/>
<text text-anchor="middle" x="672.7549" y="-204.0026" font-family="Courier,monospace" font-size="11.00" fill="#000000">DataResolver</text>
</g>
<!-- \\Firesphere\\SolrFluent\\States\\FluentSiteState -->
<g id="node51" class="node">
<title>\\Firesphere\\SolrFluent\\States\\FluentSiteState</title>
<polygon fill="none" stroke="#000000" points="985.7549,-910.8026 867.7549,-910.8026 867.7549,-874.8026 985.7549,-874.8026 985.7549,-910.8026"/>
<text text-anchor="middle" x="926.7549" y="-890.0026" font-family="Courier,monospace" font-size="11.00" fill="#000000">FluentSiteState</text>
</g>
<!-- \\Firesphere\\SolrFluent\\States\\FluentSiteState&#45;&gt;\\Firesphere\\SolrSearch\\States\\SiteState -->
<g id="edge25" class="edge">
<title>\\Firesphere\\SolrFluent\\States\\FluentSiteState&#45;&gt;\\Firesphere\\SolrSearch\\States\\SiteState</title>
<path fill="none" stroke="#000000" d="M891.383,-910.8377C866.8269,-925.4872 835.977,-948.6495 821.2549,-978.8026 775.9563,-1071.5808 844.6613,-2755.3202 781.2549,-2836.8026 767.9492,-2853.9015 745.8207,-2861.817 725.0059,-2865.2963"/>
<polygon fill="none" stroke="#000000" points="724.3733,-2861.8501 714.9377,-2866.6688 725.3188,-2868.786 724.3733,-2861.8501"/>
</g>
<!-- \\Firesphere\\SolrFluent\\States\\FluentSiteState&#45;&gt;\\Firesphere\\SolrSearch\\Interfaces\\SiteStateInterface -->
<g id="edge26" class="edge">
<title>\\Firesphere\\SolrFluent\\States\\FluentSiteState&#45;&gt;\\Firesphere\\SolrSearch\\Interfaces\\SiteStateInterface</title>
<path fill="none" stroke="#000000" stroke-dasharray="1,5" d="M867.4876,-888.8749C850.0199,-884.6838 832.5734,-876.9143 821.2549,-862.8026 725.7123,-743.6811 888.8981,-285.1135 781.2549,-176.8026 747.1916,-142.528 721.0031,-167.1243 672.7549,-169.8026"/>
<path fill="none" stroke="#000000" stroke-dasharray="1,5" d="M672.7549,-169.8026C628.0488,-172.2843 605.0859,-146.3573 572.2549,-176.8026 405.3223,-331.6053 273.7251,-2084.1135 256.1295,-2328.5605"/>
<polygon fill="none" stroke="#000000" points="252.623,-2328.527 255.3993,-2338.7516 259.6051,-2329.0273 252.623,-2328.527"/>
</g>
<!-- \\Firesphere\\SolrFluent\\Extensions\\FluentDocumentExtension -->
<g id="node52" class="node">
<title>\\Firesphere\\SolrFluent\\Extensions\\FluentDocumentExtension</title>
<polygon fill="none" stroke="#000000" points="1012.7549,-776.8026 840.7549,-776.8026 840.7549,-740.8026 1012.7549,-740.8026 1012.7549,-776.8026"/>
<text text-anchor="middle" x="926.7549" y="-756.0026" font-family="Courier,monospace" font-size="11.00" fill="#000000">FluentDocumentExtension</text>
</g>
<!-- \\Firesphere\\SolrFluent\\Extensions\\FluentDocumentExtension&#45;&gt;\\SilverStripe\\Core\\Extension -->
<g id="edge27" class="edge">
<title>\\Firesphere\\SolrFluent\\Extensions\\FluentDocumentExtension&#45;&gt;\\SilverStripe\\Core\\Extension</title>
<path fill="none" stroke="#000000" d="M840.747,-747.1946C833.3488,-743.2926 826.6449,-738.2626 821.2549,-731.8026 740.3328,-634.8148 863.7592,-260.4481 781.2549,-164.8026 748.9961,-127.4057 708.9397,-174.4154 672.7549,-140.8026"/>
</g>
<!-- \\Firesphere\\SolrFluent\\Extensions\\FluentSchemaExtension -->
<g id="node53" class="node">
<title>\\Firesphere\\SolrFluent\\Extensions\\FluentSchemaExtension</title>
<polygon fill="none" stroke="#000000" points="1005.7549,-722.8026 847.7549,-722.8026 847.7549,-686.8026 1005.7549,-686.8026 1005.7549,-722.8026"/>
<text text-anchor="middle" x="926.7549" y="-702.0026" font-family="Courier,monospace" font-size="11.00" fill="#000000">FluentSchemaExtension</text>
</g>
<!-- \\Firesphere\\SolrFluent\\Extensions\\FluentSchemaExtension&#45;&gt;\\SilverStripe\\Core\\Extension -->
<g id="edge28" class="edge">
<title>\\Firesphere\\SolrFluent\\Extensions\\FluentSchemaExtension&#45;&gt;\\SilverStripe\\Core\\Extension</title>
<path fill="none" stroke="#000000" d="M879.1415,-686.7783C857.7901,-676.1528 834.4799,-660.4713 821.2549,-638.8026 766.185,-548.5728 850.8493,-244.3686 781.2549,-164.8026 748.7396,-127.6285 708.9397,-174.4154 672.7549,-140.8026"/>
<path fill="none" stroke="#000000" d="M672.7549,-140.8026C657.2907,-126.4376 528.3246,-52.3375 508.2549,-45.8026 475.4252,-35.113 439.0725,-28.4273 404.3721,-24.2991"/>
<polygon fill="none" stroke="#000000" points="404.4777,-20.789 394.1493,-23.1499 403.6957,-27.7452 404.4777,-20.789"/>
</g>
<!-- \\Firesphere\\SolrFluent\\Extensions\\FluentIndexExtension -->
<g id="node54" class="node">
<title>\\Firesphere\\SolrFluent\\Extensions\\FluentIndexExtension</title>
<polygon fill="none" stroke="#000000" points="1002.7549,-830.8026 850.7549,-830.8026 850.7549,-794.8026 1002.7549,-794.8026 1002.7549,-830.8026"/>
<text text-anchor="middle" x="926.7549" y="-810.0026" font-family="Courier,monospace" font-size="11.00" fill="#000000">FluentIndexExtension</text>
</g>
<!-- \\Firesphere\\SolrFluent\\Extensions\\FluentIndexExtension&#45;&gt;\\SilverStripe\\Core\\Extension -->
<g id="edge29" class="edge">
<title>\\Firesphere\\SolrFluent\\Extensions\\FluentIndexExtension&#45;&gt;\\SilverStripe\\Core\\Extension</title>
<path fill="none" stroke="#000000" d="M850.507,-805.6389C839.2706,-801.3625 828.918,-795.0443 821.2549,-785.8026 732.9871,-679.3517 871.2594,-269.7893 781.2549,-164.8026 749.1104,-127.3074 708.9397,-174.4154 672.7549,-140.8026"/>
</g>
<!-- \\Firesphere\\SolrSubsites\\States\\SubsiteState -->
<g id="node55" class="node">
<title>\\Firesphere\\SolrSubsites\\States\\SubsiteState</title>
<polygon fill="none" stroke="#000000" points="975.7549,-1106.8026 877.7549,-1106.8026 877.7549,-1070.8026 975.7549,-1070.8026 975.7549,-1106.8026"/>
<text text-anchor="middle" x="926.7549" y="-1086.0026" font-family="Courier,monospace" font-size="11.00" fill="#000000">SubsiteState</text>
</g>
<!-- \\Firesphere\\SolrSubsites\\States\\SubsiteState&#45;&gt;\\Firesphere\\SolrSearch\\States\\SiteState -->
<g id="edge30" class="edge">
<title>\\Firesphere\\SolrSubsites\\States\\SubsiteState&#45;&gt;\\Firesphere\\SolrSearch\\States\\SiteState</title>
<path fill="none" stroke="#000000" d="M926.4828,-1107.0611C923.6827,-1284.3614 897.7854,-2696.197 781.2549,-2836.8026 767.4832,-2853.4195 745.4035,-2861.2828 724.7459,-2864.8524"/>
<polygon fill="none" stroke="#000000" points="724.166,-2861.3997 714.7618,-2866.2794 725.1565,-2868.3292 724.166,-2861.3997"/>
</g>
<!-- \\Firesphere\\SolrSubsites\\States\\SubsiteState&#45;&gt;\\Firesphere\\SolrSearch\\Interfaces\\SiteStateInterface -->
<g id="edge31" class="edge">
<title>\\Firesphere\\SolrSubsites\\States\\SubsiteState&#45;&gt;\\Firesphere\\SolrSearch\\Interfaces\\SiteStateInterface</title>
<path fill="none" stroke="#000000" stroke-dasharray="1,5" d="M877.5482,-1087.0175C856.9256,-1083.5662 834.6683,-1075.7494 821.2549,-1058.8026 760.3715,-981.8808 849.9568,-246.8298 781.2549,-176.8026 747.4137,-142.3086 721.0031,-167.1243 672.7549,-169.8026"/>
</g>
<!-- \\Firesphere\\SolrSubsites\\Extensions\\SubsitesExtension -->
<g id="node56" class="node">
<title>\\Firesphere\\SolrSubsites\\Extensions\\SubsitesExtension</title>
<polygon fill="none" stroke="#000000" points="992.2549,-1026.8026 861.2549,-1026.8026 861.2549,-990.8026 992.2549,-990.8026 992.2549,-1026.8026"/>
<text text-anchor="middle" x="926.7549" y="-1006.0026" font-family="Courier,monospace" font-size="11.00" fill="#000000">SubsitesExtension</text>
</g>
<!-- \\Firesphere\\SolrSubsites\\Extensions\\SubsitesExtension&#45;&gt;\\SilverStripe\\Core\\Extension -->
<g id="edge32" class="edge">
<title>\\Firesphere\\SolrSubsites\\Extensions\\SubsitesExtension&#45;&gt;\\SilverStripe\\Core\\Extension</title>
<path fill="none" stroke="#000000" d="M878.2804,-990.695C857.0079,-980.1168 834.0131,-964.4991 821.2549,-942.8026 777.3794,-868.188 837.1654,-230.8814 781.2549,-164.8026 749.354,-127.0999 708.9397,-174.4154 672.7549,-140.8026"/>
</g>
<!-- \\Firesphere\\SolrPermissions\\Extensions\\DocumentFactoryExtension -->
<g id="node57" class="node">
<title>\\Firesphere\\SolrPermissions\\Extensions\\DocumentFactoryExtension</title>
<polygon fill="none" stroke="#000000" points="1016.2549,-552.8026 837.2549,-552.8026 837.2549,-516.8026 1016.2549,-516.8026 1016.2549,-552.8026"/>
<text text-anchor="middle" x="926.7549" y="-532.0026" font-family="Courier,monospace" font-size="11.00" fill="#000000">DocumentFactoryExtension</text>
</g>
<!-- \\Firesphere\\SolrPermissions\\Extensions\\DocumentFactoryExtension&#45;&gt;\\SilverStripe\\Core\\Extension -->
<g id="edge33" class="edge">
<title>\\Firesphere\\SolrPermissions\\Extensions\\DocumentFactoryExtension&#45;&gt;\\SilverStripe\\Core\\Extension</title>
<path fill="none" stroke="#000000" d="M837.2136,-521.0015C831.2395,-517.4609 825.8025,-513.118 821.2549,-507.8026 760.4484,-436.7304 843.2207,-158.8664 781.2549,-88.8026 748.5359,-51.8077 716.2824,-88.1375 672.7549,-64.8026"/>
</g>
<!-- \\Firesphere\\SolrPermissions\\Extensions\\SchemaFactoryExtension -->
<g id="node58" class="node">
<title>\\Firesphere\\SolrPermissions\\Extensions\\SchemaFactoryExtension</title>
<polygon fill="none" stroke="#000000" points="1009.2549,-498.8026 844.2549,-498.8026 844.2549,-462.8026 1009.2549,-462.8026 1009.2549,-498.8026"/>
<text text-anchor="middle" x="926.7549" y="-478.0026" font-family="Courier,monospace" font-size="11.00" fill="#000000">SchemaFactoryExtension</text>
</g>
<!-- \\Firesphere\\SolrPermissions\\Extensions\\SchemaFactoryExtension&#45;&gt;\\SilverStripe\\Core\\Extension -->
<g id="edge34" class="edge">
<title>\\Firesphere\\SolrPermissions\\Extensions\\SchemaFactoryExtension&#45;&gt;\\SilverStripe\\Core\\Extension</title>
<path fill="none" stroke="#000000" d="M844.048,-470.4805C835.4065,-466.4307 827.5124,-461.0139 821.2549,-453.8026 714.2992,-330.5444 890.2208,-210.2873 781.2549,-88.8026 748.2781,-52.0372 716.2824,-88.1375 672.7549,-64.8026"/>
</g>
<!-- \\Firesphere\\SolrPermissions\\Extensions\\DataObjectExtension -->
<g id="node59" class="node">
<title>\\Firesphere\\SolrPermissions\\Extensions\\DataObjectExtension</title>
<polygon fill="none" stroke="#000000" points="999.2549,-606.8026 854.2549,-606.8026 854.2549,-570.8026 999.2549,-570.8026 999.2549,-606.8026"/>
<text text-anchor="middle" x="926.7549" y="-586.0026" font-family="Courier,monospace" font-size="11.00" fill="#000000">DataObjectExtension</text>
</g>
<!-- \\Firesphere\\SolrPermissions\\Extensions\\DataObjectExtension&#45;&gt;\\SilverStripe\\ORM\\DataExtension -->
<g id="edge35" class="edge">
<title>\\Firesphere\\SolrPermissions\\Extensions\\DataObjectExtension&#45;&gt;\\SilverStripe\\ORM\\DataExtension</title>
<path fill="none" stroke="#000000" d="M854.0027,-582.5535C841.515,-578.3074 829.8232,-571.7645 821.2549,-561.8026 705.6153,-427.3549 898.02,-298.274 781.2549,-164.8026 734.821,-111.7251 558.0573,-89.2456 421.8851,-79.7396"/>
<polygon fill="none" stroke="#000000" points="421.9553,-76.2364 411.7409,-79.0501 421.4805,-83.2203 421.9553,-76.2364"/>
</g>
<!-- \\Firesphere\\SolrPermissions\\Extensions\\BaseIndexExtension -->
<g id="node60" class="node">
<title>\\Firesphere\\SolrPermissions\\Extensions\\BaseIndexExtension</title>
<polygon fill="none" stroke="#000000" points="995.7549,-444.8026 857.7549,-444.8026 857.7549,-408.8026 995.7549,-408.8026 995.7549,-444.8026"/>
<text text-anchor="middle" x="926.7549" y="-424.0026" font-family="Courier,monospace" font-size="11.00" fill="#000000">BaseIndexExtension</text>
</g>
<!-- \\Firesphere\\SolrPermissions\\Extensions\\BaseIndexExtension&#45;&gt;\\SilverStripe\\Core\\Extension -->
<g id="edge36" class="edge">
<title>\\Firesphere\\SolrPermissions\\Extensions\\BaseIndexExtension&#45;&gt;\\SilverStripe\\Core\\Extension</title>
<path fill="none" stroke="#000000" d="M880.2653,-408.6827C858.9063,-397.9652 835.2615,-382.233 821.2549,-360.8026 754.4057,-258.5219 864.5042,-178.2438 781.2549,-88.8026 747.6062,-52.6512 716.2824,-88.1375 672.7549,-64.8026"/>
</g>
<!-- \\SilverStripe\\FullTextSearch\\Solr\\SolrIndex -->
<g id="node61" class="node">
<title>\\SilverStripe\\FullTextSearch\\Solr\\SolrIndex</title>
<polygon fill="none" stroke="#000000" points="968.7549,-3170.8026 884.7549,-3170.8026 884.7549,-3134.8026 968.7549,-3134.8026 968.7549,-3170.8026"/>
<text text-anchor="start" x="892.7549" y="-3156.0026" font-family="Courier,monospace" font-size="11.00" fill="#000000">«abstract»</text>
<text text-anchor="start" x="896.2549" y="-3144.0026" font-family="Courier,monospace" font-size="11.00" fill="#000000">SolrIndex</text>
</g>
<!-- \\SilverStripe\\FullTextSearch\\Solr\\SolrIndex&#45;&gt;\\Firesphere\\SolrSearch\\Indexes\\BaseIndex -->
<g id="edge4" class="edge">
<title>\\SilverStripe\\FullTextSearch\\Solr\\SolrIndex&#45;&gt;\\Firesphere\\SolrSearch\\Indexes\\BaseIndex</title>
<path fill="none" stroke="#000000" d="M884.7278,-3153.4947C862.2236,-3151.4329 836.1428,-3144.6408 821.2549,-3125.8026 741.8427,-3025.3195 851.246,-928.0612 781.2549,-820.8026 768.477,-801.221 745.9123,-789.1894 724.6583,-781.8556"/>
<polygon fill="none" stroke="#000000" points="725.6151,-778.4874 715.025,-778.8064 723.5026,-785.161 725.6151,-778.4874"/>
</g>
<!-- \\SilverStripe\\FullTextSearch\\Solr\\Solr -->
<g id="node62" class="node">
<title>\\SilverStripe\\FullTextSearch\\Solr\\Solr</title>
<polygon fill="none" stroke="#000000" points="953.7549,-3116.8026 899.7549,-3116.8026 899.7549,-3080.8026 953.7549,-3080.8026 953.7549,-3116.8026"/>
<text text-anchor="middle" x="926.7549" y="-3096.0026" font-family="Courier,monospace" font-size="11.00" fill="#000000">Solr</text>
</g>
<!-- \\SilverStripe\\FullTextSearch\\Search\\Queries\\SearchQuery -->
<g id="node63" class="node">
<title>\\SilverStripe\\FullTextSearch\\Search\\Queries\\SearchQuery</title>
<polygon fill="none" stroke="#000000" points="972.2549,-3258.8026 881.2549,-3258.8026 881.2549,-3222.8026 972.2549,-3222.8026 972.2549,-3258.8026"/>
<text text-anchor="middle" x="926.7549" y="-3238.0026" font-family="Courier,monospace" font-size="11.00" fill="#000000">SearchQuery</text>
</g>
<!-- \\SilverStripe\\FullTextSearch\\Search\\Queries\\SearchQuery&#45;&gt;\\Firesphere\\SolrSearch\\Queries\\BaseQuery -->
<g id="edge5" class="edge">
<title>\\SilverStripe\\FullTextSearch\\Search\\Queries\\SearchQuery&#45;&gt;\\Firesphere\\SolrSearch\\Queries\\BaseQuery</title>
<path fill="none" stroke="#000000" d="M881.1131,-3231.8232C861.0791,-3226.1132 838.2944,-3217.0224 821.2549,-3202.8026 745.2544,-3139.3786 699.5411,-3026.4297 681.5719,-2974.4175"/>
<polygon fill="none" stroke="#000000" points="684.8606,-2973.2165 678.3472,-2964.8603 678.228,-2975.4544 684.8606,-2973.2165"/>
</g>
</g>
</svg>
