<?xml version="1.0" encoding="UTF-8" standalone="no"?>
<!DOCTYPE svg PUBLIC "-//W3C//DTD SVG 1.1//EN"
 "http://www.w3.org/Graphics/SVG/1.1/DTD/svg11.dtd">
<!-- Generated by graphviz version 2.40.1 (20161225.0304)
 -->
<!-- Title: G Pages: 1 -->
<svg width="1064pt" height="3721pt"
 viewBox="0.00 0.00 1064.25 3721.18" xmlns="http://www.w3.org/2000/svg" xmlns:xlink="http://www.w3.org/1999/xlink">
<g id="graph0" class="graph" transform="scale(1 1) rotate(0) translate(4 3717.1846)">
<title>G</title>
<polygon fill="#ffffff" stroke="transparent" points="-4,4 -4,-3717.1846 1060.2549,-3717.1846 1060.2549,4 -4,4"/>
<g id="clust1" class="cluster">
<title>cluster_Global</title>
<path fill="none" stroke="#c0c0c0" d="M165.1275,-152.4752C165.1275,-152.4752 1036.2549,-152.4752 1036.2549,-152.4752 1042.2549,-152.4752 1048.2549,-158.4752 1048.2549,-164.4752 1048.2549,-164.4752 1048.2549,-3386.4752 1048.2549,-3386.4752 1048.2549,-3392.4752 1042.2549,-3398.4752 1036.2549,-3398.4752 1036.2549,-3398.4752 165.1275,-3398.4752 165.1275,-3398.4752 159.1275,-3398.4752 153.1275,-3392.4752 153.1275,-3386.4752 153.1275,-3386.4752 153.1275,-164.4752 153.1275,-164.4752 153.1275,-158.4752 159.1275,-152.4752 165.1275,-152.4752"/>
<text text-anchor="middle" x="600.6912" y="-3385.6752" font-family="Times,serif" font-size="11.00" fill="#c0c0c0">Global</text>
</g>
<g id="clust2" class="cluster">
<title>cluster_\SilverStripe</title>
<path fill="none" stroke="#c0c0c0" d="M861.2549,-3056.4752C861.2549,-3056.4752 992.2549,-3056.4752 992.2549,-3056.4752 998.2549,-3056.4752 1004.2549,-3062.4752 1004.2549,-3068.4752 1004.2549,-3068.4752 1004.2549,-3358.4752 1004.2549,-3358.4752 1004.2549,-3364.4752 998.2549,-3370.4752 992.2549,-3370.4752 992.2549,-3370.4752 861.2549,-3370.4752 861.2549,-3370.4752 855.2549,-3370.4752 849.2549,-3364.4752 849.2549,-3358.4752 849.2549,-3358.4752 849.2549,-3068.4752 849.2549,-3068.4752 849.2549,-3062.4752 855.2549,-3056.4752 861.2549,-3056.4752"/>
<text text-anchor="middle" x="926.7549" y="-3357.6752" font-family="Times,serif" font-size="11.00" fill="#c0c0c0">SilverStripe</text>
</g>
<g id="clust3" class="cluster">
<title>cluster_\SilverStripe\FullTextSearch</title>
<path fill="none" stroke="#c0c0c0" d="M869.2549,-3064.4752C869.2549,-3064.4752 984.2549,-3064.4752 984.2549,-3064.4752 990.2549,-3064.4752 996.2549,-3070.4752 996.2549,-3076.4752 996.2549,-3076.4752 996.2549,-3330.4752 996.2549,-3330.4752 996.2549,-3336.4752 990.2549,-3342.4752 984.2549,-3342.4752 984.2549,-3342.4752 869.2549,-3342.4752 869.2549,-3342.4752 863.2549,-3342.4752 857.2549,-3336.4752 857.2549,-3330.4752 857.2549,-3330.4752 857.2549,-3076.4752 857.2549,-3076.4752 857.2549,-3070.4752 863.2549,-3064.4752 869.2549,-3064.4752"/>
<text text-anchor="middle" x="926.7549" y="-3329.6752" font-family="Times,serif" font-size="11.00" fill="#c0c0c0">FullTextSearch</text>
</g>
<g id="clust4" class="cluster">
<title>cluster_\SilverStripe\FullTextSearch\Search</title>
<path fill="none" stroke="#c0c0c0" d="M877.2549,-3206.4752C877.2549,-3206.4752 976.2549,-3206.4752 976.2549,-3206.4752 982.2549,-3206.4752 988.2549,-3212.4752 988.2549,-3218.4752 988.2549,-3218.4752 988.2549,-3302.4752 988.2549,-3302.4752 988.2549,-3308.4752 982.2549,-3314.4752 976.2549,-3314.4752 976.2549,-3314.4752 877.2549,-3314.4752 877.2549,-3314.4752 871.2549,-3314.4752 865.2549,-3308.4752 865.2549,-3302.4752 865.2549,-3302.4752 865.2549,-3218.4752 865.2549,-3218.4752 865.2549,-3212.4752 871.2549,-3206.4752 877.2549,-3206.4752"/>
<text text-anchor="middle" x="926.7549" y="-3301.6752" font-family="Times,serif" font-size="11.00" fill="#c0c0c0">Search</text>
</g>
<g id="clust5" class="cluster">
<title>cluster_\SilverStripe\FullTextSearch\Search\Queries</title>
<path fill="none" stroke="#c0c0c0" d="M885.2549,-3214.4752C885.2549,-3214.4752 968.2549,-3214.4752 968.2549,-3214.4752 974.2549,-3214.4752 980.2549,-3220.4752 980.2549,-3226.4752 980.2549,-3226.4752 980.2549,-3274.4752 980.2549,-3274.4752 980.2549,-3280.4752 974.2549,-3286.4752 968.2549,-3286.4752 968.2549,-3286.4752 885.2549,-3286.4752 885.2549,-3286.4752 879.2549,-3286.4752 873.2549,-3280.4752 873.2549,-3274.4752 873.2549,-3274.4752 873.2549,-3226.4752 873.2549,-3226.4752 873.2549,-3220.4752 879.2549,-3214.4752 885.2549,-3214.4752"/>
<text text-anchor="middle" x="926.7549" y="-3273.6752" font-family="Times,serif" font-size="11.00" fill="#c0c0c0">Queries</text>
</g>
<g id="clust6" class="cluster">
<title>cluster_\SilverStripe\FullTextSearch\Solr</title>
<path fill="none" stroke="#c0c0c0" d="M888.7549,-3072.4752C888.7549,-3072.4752 964.7549,-3072.4752 964.7549,-3072.4752 970.7549,-3072.4752 976.7549,-3078.4752 976.7549,-3084.4752 976.7549,-3084.4752 976.7549,-3186.4752 976.7549,-3186.4752 976.7549,-3192.4752 970.7549,-3198.4752 964.7549,-3198.4752 964.7549,-3198.4752 888.7549,-3198.4752 888.7549,-3198.4752 882.7549,-3198.4752 876.7549,-3192.4752 876.7549,-3186.4752 876.7549,-3186.4752 876.7549,-3084.4752 876.7549,-3084.4752 876.7549,-3078.4752 882.7549,-3072.4752 888.7549,-3072.4752"/>
<text text-anchor="middle" x="926.7549" y="-3185.6752" font-family="Times,serif" font-size="11.00" fill="#c0c0c0">Solr</text>
</g>
<g id="clust7" class="cluster">
<title>cluster_\Firesphere</title>
<path fill="none" stroke="#c0c0c0" d="M173.1275,-160.4752C173.1275,-160.4752 1028.2549,-160.4752 1028.2549,-160.4752 1034.2549,-160.4752 1040.2549,-166.4752 1040.2549,-172.4752 1040.2549,-172.4752 1040.2549,-3036.4752 1040.2549,-3036.4752 1040.2549,-3042.4752 1034.2549,-3048.4752 1028.2549,-3048.4752 1028.2549,-3048.4752 173.1275,-3048.4752 173.1275,-3048.4752 167.1275,-3048.4752 161.1275,-3042.4752 161.1275,-3036.4752 161.1275,-3036.4752 161.1275,-172.4752 161.1275,-172.4752 161.1275,-166.4752 167.1275,-160.4752 173.1275,-160.4752"/>
<text text-anchor="middle" x="600.6912" y="-3035.6752" font-family="Times,serif" font-size="11.00" fill="#c0c0c0">Firesphere</text>
</g>
<g id="clust8" class="cluster">
<title>cluster_\Firesphere\SolrCompatibility</title>
<path fill="none" stroke="#c0c0c0" d="M833.2549,-168.4752C833.2549,-168.4752 1020.2549,-168.4752 1020.2549,-168.4752 1026.2549,-168.4752 1032.2549,-174.4752 1032.2549,-180.4752 1032.2549,-180.4752 1032.2549,-372.4752 1032.2549,-372.4752 1032.2549,-378.4752 1026.2549,-384.4752 1020.2549,-384.4752 1020.2549,-384.4752 833.2549,-384.4752 833.2549,-384.4752 827.2549,-384.4752 821.2549,-378.4752 821.2549,-372.4752 821.2549,-372.4752 821.2549,-180.4752 821.2549,-180.4752 821.2549,-174.4752 827.2549,-168.4752 833.2549,-168.4752"/>
<text text-anchor="middle" x="926.7549" y="-371.6752" font-family="Times,serif" font-size="11.00" fill="#c0c0c0">SolrCompatibility</text>
</g>
<g id="clust9" class="cluster">
<title>cluster_\Firesphere\SolrCompatibility\Extensions</title>
<path fill="none" stroke="#c0c0c0" d="M841.2549,-176.4752C841.2549,-176.4752 1012.2549,-176.4752 1012.2549,-176.4752 1018.2549,-176.4752 1024.2549,-182.4752 1024.2549,-188.4752 1024.2549,-188.4752 1024.2549,-344.4752 1024.2549,-344.4752 1024.2549,-350.4752 1018.2549,-356.4752 1012.2549,-356.4752 1012.2549,-356.4752 841.2549,-356.4752 841.2549,-356.4752 835.2549,-356.4752 829.2549,-350.4752 829.2549,-344.4752 829.2549,-344.4752 829.2549,-188.4752 829.2549,-188.4752 829.2549,-182.4752 835.2549,-176.4752 841.2549,-176.4752"/>
<text text-anchor="middle" x="926.7549" y="-343.6752" font-family="Times,serif" font-size="11.00" fill="#c0c0c0">Extensions</text>
</g>
<g id="clust10" class="cluster">
<title>cluster_\Firesphere\SolrSearch</title>
<path fill="none" stroke="#c0c0c0" d="M181.1275,-172.4752C181.1275,-172.4752 769.2549,-172.4752 769.2549,-172.4752 775.2549,-172.4752 781.2549,-178.4752 781.2549,-184.4752 781.2549,-184.4752 781.2549,-3008.4752 781.2549,-3008.4752 781.2549,-3014.4752 775.2549,-3020.4752 769.2549,-3020.4752 769.2549,-3020.4752 181.1275,-3020.4752 181.1275,-3020.4752 175.1275,-3020.4752 169.1275,-3014.4752 169.1275,-3008.4752 169.1275,-3008.4752 169.1275,-184.4752 169.1275,-184.4752 169.1275,-178.4752 175.1275,-172.4752 181.1275,-172.4752"/>
<text text-anchor="middle" x="475.1912" y="-3007.6752" font-family="Times,serif" font-size="11.00" fill="#c0c0c0">SolrSearch</text>
</g>
<g id="clust11" class="cluster">
<title>cluster_\Firesphere\SolrSearch\Indexes</title>
<path fill="none" stroke="#c0c0c0" d="M634.7549,-2920.4752C634.7549,-2920.4752 710.7549,-2920.4752 710.7549,-2920.4752 716.7549,-2920.4752 722.7549,-2926.4752 722.7549,-2932.4752 722.7549,-2932.4752 722.7549,-2980.4752 722.7549,-2980.4752 722.7549,-2986.4752 716.7549,-2992.4752 710.7549,-2992.4752 710.7549,-2992.4752 634.7549,-2992.4752 634.7549,-2992.4752 628.7549,-2992.4752 622.7549,-2986.4752 622.7549,-2980.4752 622.7549,-2980.4752 622.7549,-2932.4752 622.7549,-2932.4752 622.7549,-2926.4752 628.7549,-2920.4752 634.7549,-2920.4752"/>
<text text-anchor="middle" x="672.7549" y="-2979.6752" font-family="Times,serif" font-size="11.00" fill="#c0c0c0">Indexes</text>
</g>
<g id="clust12" class="cluster">
<title>cluster_\Firesphere\SolrSearch\Tasks</title>
<path fill="none" stroke="#c0c0c0" d="M597.7549,-2678.4752C597.7549,-2678.4752 747.7549,-2678.4752 747.7549,-2678.4752 753.7549,-2678.4752 759.7549,-2684.4752 759.7549,-2690.4752 759.7549,-2690.4752 759.7549,-2900.4752 759.7549,-2900.4752 759.7549,-2906.4752 753.7549,-2912.4752 747.7549,-2912.4752 747.7549,-2912.4752 597.7549,-2912.4752 597.7549,-2912.4752 591.7549,-2912.4752 585.7549,-2906.4752 585.7549,-2900.4752 585.7549,-2900.4752 585.7549,-2690.4752 585.7549,-2690.4752 585.7549,-2684.4752 591.7549,-2678.4752 597.7549,-2678.4752"/>
<text text-anchor="middle" x="672.7549" y="-2899.6752" font-family="Times,serif" font-size="11.00" fill="#c0c0c0">Tasks</text>
</g>
<g id="clust13" class="cluster">
<title>cluster_\Firesphere\SolrSearch\Interfaces</title>
<path fill="none" stroke="#c0c0c0" d="M189.1275,-180.4752C189.1275,-180.4752 319.1275,-180.4752 319.1275,-180.4752 325.1275,-180.4752 331.1275,-186.4752 331.1275,-192.4752 331.1275,-192.4752 331.1275,-294.4752 331.1275,-294.4752 331.1275,-300.4752 325.1275,-306.4752 319.1275,-306.4752 319.1275,-306.4752 189.1275,-306.4752 189.1275,-306.4752 183.1275,-306.4752 177.1275,-300.4752 177.1275,-294.4752 177.1275,-294.4752 177.1275,-192.4752 177.1275,-192.4752 177.1275,-186.4752 183.1275,-180.4752 189.1275,-180.4752"/>
<text text-anchor="middle" x="254.1275" y="-293.6752" font-family="Times,serif" font-size="11.00" fill="#c0c0c0">Interfaces</text>
</g>
<g id="clust14" class="cluster">
<title>cluster_\Firesphere\SolrSearch\Traits</title>
<path fill="none" stroke="#c0c0c0" d="M584.2549,-1788.4752C584.2549,-1788.4752 761.2549,-1788.4752 761.2549,-1788.4752 767.2549,-1788.4752 773.2549,-1794.4752 773.2549,-1800.4752 773.2549,-1800.4752 773.2549,-2658.4752 773.2549,-2658.4752 773.2549,-2664.4752 767.2549,-2670.4752 761.2549,-2670.4752 761.2549,-2670.4752 584.2549,-2670.4752 584.2549,-2670.4752 578.2549,-2670.4752 572.2549,-2664.4752 572.2549,-2658.4752 572.2549,-2658.4752 572.2549,-1800.4752 572.2549,-1800.4752 572.2549,-1794.4752 578.2549,-1788.4752 584.2549,-1788.4752"/>
<text text-anchor="middle" x="672.7549" y="-2657.6752" font-family="Times,serif" font-size="11.00" fill="#c0c0c0">Traits</text>
</g>
<g id="clust15" class="cluster">
<title>cluster_\Firesphere\SolrSearch\Services</title>
<path fill="none" stroke="#c0c0c0" d="M617.7549,-1708.4752C617.7549,-1708.4752 727.7549,-1708.4752 727.7549,-1708.4752 733.7549,-1708.4752 739.7549,-1714.4752 739.7549,-1720.4752 739.7549,-1720.4752 739.7549,-1768.4752 739.7549,-1768.4752 739.7549,-1774.4752 733.7549,-1780.4752 727.7549,-1780.4752 727.7549,-1780.4752 617.7549,-1780.4752 617.7549,-1780.4752 611.7549,-1780.4752 605.7549,-1774.4752 605.7549,-1768.4752 605.7549,-1768.4752 605.7549,-1720.4752 605.7549,-1720.4752 605.7549,-1714.4752 611.7549,-1708.4752 617.7549,-1708.4752"/>
<text text-anchor="middle" x="672.7549" y="-1767.6752" font-family="Times,serif" font-size="11.00" fill="#c0c0c0">Services</text>
</g>
<g id="clust16" class="cluster">
<title>cluster_\Firesphere\SolrSearch\Forms</title>
<path fill="none" stroke="#c0c0c0" d="M634.7549,-1628.4752C634.7549,-1628.4752 710.7549,-1628.4752 710.7549,-1628.4752 716.7549,-1628.4752 722.7549,-1634.4752 722.7549,-1640.4752 722.7549,-1640.4752 722.7549,-1688.4752 722.7549,-1688.4752 722.7549,-1694.4752 716.7549,-1700.4752 710.7549,-1700.4752 710.7549,-1700.4752 634.7549,-1700.4752 634.7549,-1700.4752 628.7549,-1700.4752 622.7549,-1694.4752 622.7549,-1688.4752 622.7549,-1688.4752 622.7549,-1640.4752 622.7549,-1640.4752 622.7549,-1634.4752 628.7549,-1628.4752 634.7549,-1628.4752"/>
<text text-anchor="middle" x="672.7549" y="-1687.6752" font-family="Times,serif" font-size="11.00" fill="#c0c0c0">Forms</text>
</g>
<g id="clust17" class="cluster">
<title>cluster_\Firesphere\SolrSearch\Queries</title>
<path fill="none" stroke="#c0c0c0" d="M638.2549,-1548.4752C638.2549,-1548.4752 707.2549,-1548.4752 707.2549,-1548.4752 713.2549,-1548.4752 719.2549,-1554.4752 719.2549,-1560.4752 719.2549,-1560.4752 719.2549,-1608.4752 719.2549,-1608.4752 719.2549,-1614.4752 713.2549,-1620.4752 707.2549,-1620.4752 707.2549,-1620.4752 638.2549,-1620.4752 638.2549,-1620.4752 632.2549,-1620.4752 626.2549,-1614.4752 626.2549,-1608.4752 626.2549,-1608.4752 626.2549,-1560.4752 626.2549,-1560.4752 626.2549,-1554.4752 632.2549,-1548.4752 638.2549,-1548.4752"/>
<text text-anchor="middle" x="672.7549" y="-1607.6752" font-family="Times,serif" font-size="11.00" fill="#c0c0c0">Queries</text>
</g>
<g id="clust18" class="cluster">
<title>cluster_\Firesphere\SolrSearch\Extensions</title>
<path fill="none" stroke="#c0c0c0" d="M604.2549,-1226.4752C604.2549,-1226.4752 741.2549,-1226.4752 741.2549,-1226.4752 747.2549,-1226.4752 753.2549,-1232.4752 753.2549,-1238.4752 753.2549,-1238.4752 753.2549,-1340.4752 753.2549,-1340.4752 753.2549,-1346.4752 747.2549,-1352.4752 741.2549,-1352.4752 741.2549,-1352.4752 604.2549,-1352.4752 604.2549,-1352.4752 598.2549,-1352.4752 592.2549,-1346.4752 592.2549,-1340.4752 592.2549,-1340.4752 592.2549,-1238.4752 592.2549,-1238.4752 592.2549,-1232.4752 598.2549,-1226.4752 604.2549,-1226.4752"/>
<text text-anchor="middle" x="672.7549" y="-1339.6752" font-family="Times,serif" font-size="11.00" fill="#c0c0c0">Extensions</text>
</g>
<g id="clust19" class="cluster">
<title>cluster_\Firesphere\SolrSearch\Jobs</title>
<path fill="none" stroke="#c0c0c0" d="M600.7549,-1360.4752C600.7549,-1360.4752 744.7549,-1360.4752 744.7549,-1360.4752 750.7549,-1360.4752 756.7549,-1366.4752 756.7549,-1372.4752 756.7549,-1372.4752 756.7549,-1528.4752 756.7549,-1528.4752 756.7549,-1534.4752 750.7549,-1540.4752 744.7549,-1540.4752 744.7549,-1540.4752 600.7549,-1540.4752 600.7549,-1540.4752 594.7549,-1540.4752 588.7549,-1534.4752 588.7549,-1528.4752 588.7549,-1528.4752 588.7549,-1372.4752 588.7549,-1372.4752 588.7549,-1366.4752 594.7549,-1360.4752 600.7549,-1360.4752"/>
<text text-anchor="middle" x="672.7549" y="-1527.6752" font-family="Times,serif" font-size="11.00" fill="#c0c0c0">Jobs</text>
</g>
<g id="clust20" class="cluster">
<title>cluster_\Firesphere\SolrSearch\Helpers</title>
<path fill="none" stroke="#c0c0c0" d="M624.7549,-930.4752C624.7549,-930.4752 720.7549,-930.4752 720.7549,-930.4752 726.7549,-930.4752 732.7549,-936.4752 732.7549,-942.4752 732.7549,-942.4752 732.7549,-1206.4752 732.7549,-1206.4752 732.7549,-1212.4752 726.7549,-1218.4752 720.7549,-1218.4752 720.7549,-1218.4752 624.7549,-1218.4752 624.7549,-1218.4752 618.7549,-1218.4752 612.7549,-1212.4752 612.7549,-1206.4752 612.7549,-1206.4752 612.7549,-942.4752 612.7549,-942.4752 612.7549,-936.4752 618.7549,-930.4752 624.7549,-930.4752"/>
<text text-anchor="middle" x="672.7549" y="-1205.6752" font-family="Times,serif" font-size="11.00" fill="#c0c0c0">Helpers</text>
</g>
<g id="clust21" class="cluster">
<title>cluster_\Firesphere\SolrSearch\States</title>
<path fill="none" stroke="#c0c0c0" d="M634.7549,-850.4752C634.7549,-850.4752 710.7549,-850.4752 710.7549,-850.4752 716.7549,-850.4752 722.7549,-856.4752 722.7549,-862.4752 722.7549,-862.4752 722.7549,-910.4752 722.7549,-910.4752 722.7549,-916.4752 716.7549,-922.4752 710.7549,-922.4752 710.7549,-922.4752 634.7549,-922.4752 634.7549,-922.4752 628.7549,-922.4752 622.7549,-916.4752 622.7549,-910.4752 622.7549,-910.4752 622.7549,-862.4752 622.7549,-862.4752 622.7549,-856.4752 628.7549,-850.4752 634.7549,-850.4752"/>
<text text-anchor="middle" x="672.7549" y="-909.6752" font-family="Times,serif" font-size="11.00" fill="#c0c0c0">States</text>
</g>
<g id="clust22" class="cluster">
<title>cluster_\Firesphere\SolrSearch\Models</title>
<path fill="none" stroke="#c0c0c0" d="M624.7549,-662.4752C624.7549,-662.4752 720.7549,-662.4752 720.7549,-662.4752 726.7549,-662.4752 732.7549,-668.4752 732.7549,-674.4752 732.7549,-674.4752 732.7549,-830.4752 732.7549,-830.4752 732.7549,-836.4752 726.7549,-842.4752 720.7549,-842.4752 720.7549,-842.4752 624.7549,-842.4752 624.7549,-842.4752 618.7549,-842.4752 612.7549,-836.4752 612.7549,-830.4752 612.7549,-830.4752 612.7549,-674.4752 612.7549,-674.4752 612.7549,-668.4752 618.7549,-662.4752 624.7549,-662.4752"/>
<text text-anchor="middle" x="672.7549" y="-829.6752" font-family="Times,serif" font-size="11.00" fill="#c0c0c0">Models</text>
</g>
<g id="clust23" class="cluster">
<title>cluster_\Firesphere\SolrSearch\Factories</title>
<path fill="none" stroke="#c0c0c0" d="M597.7549,-474.4752C597.7549,-474.4752 747.7549,-474.4752 747.7549,-474.4752 753.7549,-474.4752 759.7549,-480.4752 759.7549,-486.4752 759.7549,-486.4752 759.7549,-642.4752 759.7549,-642.4752 759.7549,-648.4752 753.7549,-654.4752 747.7549,-654.4752 747.7549,-654.4752 597.7549,-654.4752 597.7549,-654.4752 591.7549,-654.4752 585.7549,-648.4752 585.7549,-642.4752 585.7549,-642.4752 585.7549,-486.4752 585.7549,-486.4752 585.7549,-480.4752 591.7549,-474.4752 597.7549,-474.4752"/>
<text text-anchor="middle" x="672.7549" y="-641.6752" font-family="Times,serif" font-size="11.00" fill="#c0c0c0">Factories</text>
</g>
<g id="clust24" class="cluster">
<title>cluster_\Firesphere\SolrSearch\Results</title>
<path fill="none" stroke="#c0c0c0" d="M627.7549,-394.4752C627.7549,-394.4752 717.7549,-394.4752 717.7549,-394.4752 723.7549,-394.4752 729.7549,-400.4752 729.7549,-406.4752 729.7549,-406.4752 729.7549,-454.4752 729.7549,-454.4752 729.7549,-460.4752 723.7549,-466.4752 717.7549,-466.4752 717.7549,-466.4752 627.7549,-466.4752 627.7549,-466.4752 621.7549,-466.4752 615.7549,-460.4752 615.7549,-454.4752 615.7549,-454.4752 615.7549,-406.4752 615.7549,-406.4752 615.7549,-400.4752 621.7549,-394.4752 627.7549,-394.4752"/>
<text text-anchor="middle" x="672.7549" y="-453.6752" font-family="Times,serif" font-size="11.00" fill="#c0c0c0">Results</text>
</g>
<g id="clust25" class="cluster">
<title>cluster_\Firesphere\SolrSearch\Stores</title>
<path fill="none" stroke="#c0c0c0" d="M617.7549,-180.4752C617.7549,-180.4752 727.7549,-180.4752 727.7549,-180.4752 733.7549,-180.4752 739.7549,-186.4752 739.7549,-192.4752 739.7549,-192.4752 739.7549,-294.4752 739.7549,-294.4752 739.7549,-300.4752 733.7549,-306.4752 727.7549,-306.4752 727.7549,-306.4752 617.7549,-306.4752 617.7549,-306.4752 611.7549,-306.4752 605.7549,-300.4752 605.7549,-294.4752 605.7549,-294.4752 605.7549,-192.4752 605.7549,-192.4752 605.7549,-186.4752 611.7549,-180.4752 617.7549,-180.4752"/>
<text text-anchor="middle" x="672.7549" y="-293.6752" font-family="Times,serif" font-size="11.00" fill="#c0c0c0">Stores</text>
</g>
<g id="clust26" class="cluster">
<title>cluster_\Firesphere\SolrSearch\Admins</title>
<path fill="none" stroke="#c0c0c0" d="M631.2549,-314.4752C631.2549,-314.4752 714.2549,-314.4752 714.2549,-314.4752 720.2549,-314.4752 726.2549,-320.4752 726.2549,-326.4752 726.2549,-326.4752 726.2549,-374.4752 726.2549,-374.4752 726.2549,-380.4752 720.2549,-386.4752 714.2549,-386.4752 714.2549,-386.4752 631.2549,-386.4752 631.2549,-386.4752 625.2549,-386.4752 619.2549,-380.4752 619.2549,-374.4752 619.2549,-374.4752 619.2549,-326.4752 619.2549,-326.4752 619.2549,-320.4752 625.2549,-314.4752 631.2549,-314.4752"/>
<text text-anchor="middle" x="672.7549" y="-373.6752" font-family="Times,serif" font-size="11.00" fill="#c0c0c0">Admins</text>
</g>
<g id="clust27" class="cluster">
<title>cluster_\Firesphere\SolrFluent</title>
<path fill="none" stroke="#c0c0c0" d="M836.7549,-670.4752C836.7549,-670.4752 1016.7549,-670.4752 1016.7549,-670.4752 1022.7549,-670.4752 1028.7549,-676.4752 1028.7549,-682.4752 1028.7549,-682.4752 1028.7549,-954.4752 1028.7549,-954.4752 1028.7549,-960.4752 1022.7549,-966.4752 1016.7549,-966.4752 1016.7549,-966.4752 836.7549,-966.4752 836.7549,-966.4752 830.7549,-966.4752 824.7549,-960.4752 824.7549,-954.4752 824.7549,-954.4752 824.7549,-682.4752 824.7549,-682.4752 824.7549,-676.4752 830.7549,-670.4752 836.7549,-670.4752"/>
<text text-anchor="middle" x="926.7549" y="-953.6752" font-family="Times,serif" font-size="11.00" fill="#c0c0c0">SolrFluent</text>
</g>
<g id="clust28" class="cluster">
<title>cluster_\Firesphere\SolrFluent\Extensions</title>
<path fill="none" stroke="#c0c0c0" d="M844.7549,-678.4752C844.7549,-678.4752 1008.7549,-678.4752 1008.7549,-678.4752 1014.7549,-678.4752 1020.7549,-684.4752 1020.7549,-690.4752 1020.7549,-690.4752 1020.7549,-846.4752 1020.7549,-846.4752 1020.7549,-852.4752 1014.7549,-858.4752 1008.7549,-858.4752 1008.7549,-858.4752 844.7549,-858.4752 844.7549,-858.4752 838.7549,-858.4752 832.7549,-852.4752 832.7549,-846.4752 832.7549,-846.4752 832.7549,-690.4752 832.7549,-690.4752 832.7549,-684.4752 838.7549,-678.4752 844.7549,-678.4752"/>
<text text-anchor="middle" x="926.7549" y="-845.6752" font-family="Times,serif" font-size="11.00" fill="#c0c0c0">Extensions</text>
</g>
<g id="clust29" class="cluster">
<title>cluster_\Firesphere\SolrFluent\States</title>
<path fill="none" stroke="#c0c0c0" d="M871.7549,-866.4752C871.7549,-866.4752 981.7549,-866.4752 981.7549,-866.4752 987.7549,-866.4752 993.7549,-872.4752 993.7549,-878.4752 993.7549,-878.4752 993.7549,-926.4752 993.7549,-926.4752 993.7549,-932.4752 987.7549,-938.4752 981.7549,-938.4752 981.7549,-938.4752 871.7549,-938.4752 871.7549,-938.4752 865.7549,-938.4752 859.7549,-932.4752 859.7549,-926.4752 859.7549,-926.4752 859.7549,-878.4752 859.7549,-878.4752 859.7549,-872.4752 865.7549,-866.4752 871.7549,-866.4752"/>
<text text-anchor="middle" x="926.7549" y="-925.6752" font-family="Times,serif" font-size="11.00" fill="#c0c0c0">States</text>
</g>
<g id="clust30" class="cluster">
<title>cluster_\Firesphere\SolrSubsites</title>
<path fill="none" stroke="#c0c0c0" d="M857.2549,-974.4752C857.2549,-974.4752 996.2549,-974.4752 996.2549,-974.4752 1002.2549,-974.4752 1008.2549,-980.4752 1008.2549,-986.4752 1008.2549,-986.4752 1008.2549,-1150.4752 1008.2549,-1150.4752 1008.2549,-1156.4752 1002.2549,-1162.4752 996.2549,-1162.4752 996.2549,-1162.4752 857.2549,-1162.4752 857.2549,-1162.4752 851.2549,-1162.4752 845.2549,-1156.4752 845.2549,-1150.4752 845.2549,-1150.4752 845.2549,-986.4752 845.2549,-986.4752 845.2549,-980.4752 851.2549,-974.4752 857.2549,-974.4752"/>
<text text-anchor="middle" x="926.7549" y="-1149.6752" font-family="Times,serif" font-size="11.00" fill="#c0c0c0">SolrSubsites</text>
</g>
<g id="clust31" class="cluster">
<title>cluster_\Firesphere\SolrSubsites\Extensions</title>
<path fill="none" stroke="#c0c0c0" d="M865.2549,-982.4752C865.2549,-982.4752 988.2549,-982.4752 988.2549,-982.4752 994.2549,-982.4752 1000.2549,-988.4752 1000.2549,-994.4752 1000.2549,-994.4752 1000.2549,-1042.4752 1000.2549,-1042.4752 1000.2549,-1048.4752 994.2549,-1054.4752 988.2549,-1054.4752 988.2549,-1054.4752 865.2549,-1054.4752 865.2549,-1054.4752 859.2549,-1054.4752 853.2549,-1048.4752 853.2549,-1042.4752 853.2549,-1042.4752 853.2549,-994.4752 853.2549,-994.4752 853.2549,-988.4752 859.2549,-982.4752 865.2549,-982.4752"/>
<text text-anchor="middle" x="926.7549" y="-1041.6752" font-family="Times,serif" font-size="11.00" fill="#c0c0c0">Extensions</text>
</g>
<g id="clust32" class="cluster">
<title>cluster_\Firesphere\SolrSubsites\States</title>
<path fill="none" stroke="#c0c0c0" d="M881.7549,-1062.4752C881.7549,-1062.4752 971.7549,-1062.4752 971.7549,-1062.4752 977.7549,-1062.4752 983.7549,-1068.4752 983.7549,-1074.4752 983.7549,-1074.4752 983.7549,-1122.4752 983.7549,-1122.4752 983.7549,-1128.4752 977.7549,-1134.4752 971.7549,-1134.4752 971.7549,-1134.4752 881.7549,-1134.4752 881.7549,-1134.4752 875.7549,-1134.4752 869.7549,-1128.4752 869.7549,-1122.4752 869.7549,-1122.4752 869.7549,-1074.4752 869.7549,-1074.4752 869.7549,-1068.4752 875.7549,-1062.4752 881.7549,-1062.4752"/>
<text text-anchor="middle" x="926.7549" y="-1121.6752" font-family="Times,serif" font-size="11.00" fill="#c0c0c0">States</text>
</g>
<g id="clust33" class="cluster">
<title>cluster_\Firesphere\SolrPermissions</title>
<path fill="none" stroke="#c0c0c0" d="M833.2549,-392.4752C833.2549,-392.4752 1020.2549,-392.4752 1020.2549,-392.4752 1026.2549,-392.4752 1032.2549,-398.4752 1032.2549,-404.4752 1032.2549,-404.4752 1032.2549,-650.4752 1032.2549,-650.4752 1032.2549,-656.4752 1026.2549,-662.4752 1020.2549,-662.4752 1020.2549,-662.4752 833.2549,-662.4752 833.2549,-662.4752 827.2549,-662.4752 821.2549,-656.4752 821.2549,-650.4752 821.2549,-650.4752 821.2549,-404.4752 821.2549,-404.4752 821.2549,-398.4752 827.2549,-392.4752 833.2549,-392.4752"/>
<text text-anchor="middle" x="926.7549" y="-649.6752" font-family="Times,serif" font-size="11.00" fill="#c0c0c0">SolrPermissions</text>
</g>
<g id="clust34" class="cluster">
<title>cluster_\Firesphere\SolrPermissions\Extensions</title>
<path fill="none" stroke="#c0c0c0" d="M841.2549,-400.4752C841.2549,-400.4752 1012.2549,-400.4752 1012.2549,-400.4752 1018.2549,-400.4752 1024.2549,-406.4752 1024.2549,-412.4752 1024.2549,-412.4752 1024.2549,-622.4752 1024.2549,-622.4752 1024.2549,-628.4752 1018.2549,-634.4752 1012.2549,-634.4752 1012.2549,-634.4752 841.2549,-634.4752 841.2549,-634.4752 835.2549,-634.4752 829.2549,-628.4752 829.2549,-622.4752 829.2549,-622.4752 829.2549,-412.4752 829.2549,-412.4752 829.2549,-406.4752 835.2549,-400.4752 841.2549,-400.4752"/>
<text text-anchor="middle" x="926.7549" y="-621.6752" font-family="Times,serif" font-size="11.00" fill="#c0c0c0">Extensions</text>
</g>
<!-- \\SilverStripe\\FullTextSearch\\Search\\Queries\\SearchQuery -->
<g id="node1" class="node">
<title>\\SilverStripe\\FullTextSearch\\Search\\Queries\\SearchQuery</title>
<polygon fill="none" stroke="#000000" points="972.2549,-3258.4752 881.2549,-3258.4752 881.2549,-3222.4752 972.2549,-3222.4752 972.2549,-3258.4752"/>
<text text-anchor="middle" x="926.7549" y="-3237.6752" font-family="Courier,monospace" font-size="11.00" fill="#000000">SearchQuery</text>
</g>
<!-- \\Firesphere\\SolrSearch\\Queries\\BaseQuery -->
<g id="node32" class="node">
<title>\\Firesphere\\SolrSearch\\Queries\\BaseQuery</title>
<polygon fill="none" stroke="#000000" points="711.2549,-1592.4752 634.2549,-1592.4752 634.2549,-1556.4752 711.2549,-1556.4752 711.2549,-1592.4752"/>
<text text-anchor="middle" x="672.7549" y="-1571.6752" font-family="Courier,monospace" font-size="11.00" fill="#000000">BaseQuery</text>
</g>
<!-- \\SilverStripe\\FullTextSearch\\Search\\Queries\\SearchQuery&#45;&gt;\\Firesphere\\SolrSearch\\Queries\\BaseQuery -->
<g id="edge1" class="edge">
<title>\\SilverStripe\\FullTextSearch\\Search\\Queries\\SearchQuery&#45;&gt;\\Firesphere\\SolrSearch\\Queries\\BaseQuery</title>
<path fill="none" stroke="#000000" d="M881.1839,-3235.853C859.3646,-3231.1093 835.0415,-3221.5754 821.2549,-3202.4752 718.6053,-3060.262 877.689,-1770.9743 781.2549,-1624.4752 767.6953,-1603.8759 743.3248,-1591.6255 721.1113,-1584.4123"/>
<polygon fill="none" stroke="#000000" points="722.0165,-1581.03 711.4334,-1581.5302 720.0185,-1587.7388 722.0165,-1581.03"/>
</g>
<!-- \\SilverStripe\\FullTextSearch\\Solr\\Solr -->
<g id="node2" class="node">
<title>\\SilverStripe\\FullTextSearch\\Solr\\Solr</title>
<polygon fill="none" stroke="#000000" points="953.7549,-3170.4752 899.7549,-3170.4752 899.7549,-3134.4752 953.7549,-3134.4752 953.7549,-3170.4752"/>
<text text-anchor="middle" x="926.7549" y="-3149.6752" font-family="Courier,monospace" font-size="11.00" fill="#000000">Solr</text>
</g>
<!-- \\SilverStripe\\FullTextSearch\\Solr\\SolrIndex -->
<g id="node3" class="node">
<title>\\SilverStripe\\FullTextSearch\\Solr\\SolrIndex</title>
<polygon fill="none" stroke="#000000" points="968.7549,-3116.4752 884.7549,-3116.4752 884.7549,-3080.4752 968.7549,-3080.4752 968.7549,-3116.4752"/>
<text text-anchor="start" x="892.7549" y="-3101.6752" font-family="Courier,monospace" font-size="11.00" fill="#000000">«abstract»</text>
<text text-anchor="start" x="896.2549" y="-3089.6752" font-family="Courier,monospace" font-size="11.00" fill="#000000">SolrIndex</text>
</g>
<!-- \\Firesphere\\SolrSearch\\Indexes\\BaseIndex -->
<g id="node7" class="node">
<title>\\Firesphere\\SolrSearch\\Indexes\\BaseIndex</title>
<polygon fill="none" stroke="#000000" points="714.7549,-2964.4752 630.7549,-2964.4752 630.7549,-2928.4752 714.7549,-2928.4752 714.7549,-2964.4752"/>
<text text-anchor="start" x="638.7549" y="-2949.6752" font-family="Courier,monospace" font-size="11.00" fill="#000000">«abstract»</text>
<text text-anchor="start" x="642.2549" y="-2937.6752" font-family="Courier,monospace" font-size="11.00" fill="#000000">BaseIndex</text>
</g>
<!-- \\SilverStripe\\FullTextSearch\\Solr\\SolrIndex&#45;&gt;\\Firesphere\\SolrSearch\\Indexes\\BaseIndex -->
<g id="edge5" class="edge">
<title>\\SilverStripe\\FullTextSearch\\Solr\\SolrIndex&#45;&gt;\\Firesphere\\SolrSearch\\Indexes\\BaseIndex</title>
<path fill="none" stroke="#000000" d="M896.6203,-3080.4419C850.5046,-3052.8451 762.4363,-3000.1428 711.5893,-2969.7147"/>
<polygon fill="none" stroke="#000000" points="713.2284,-2966.6167 702.8503,-2964.485 709.6339,-2972.6234 713.2284,-2966.6167"/>
</g>
<!-- \\Firesphere\\SolrCompatibility\\Extensions\\DataObjectExtension -->
<g id="node4" class="node">
<title>\\Firesphere\\SolrCompatibility\\Extensions\\DataObjectExtension</title>
<polygon fill="none" stroke="#000000" points="999.2549,-220.4752 854.2549,-220.4752 854.2549,-184.4752 999.2549,-184.4752 999.2549,-220.4752"/>
<text text-anchor="middle" x="926.7549" y="-199.6752" font-family="Courier,monospace" font-size="11.00" fill="#000000">DataObjectExtension</text>
</g>
<!-- \\SilverStripe\\Core\\Extension -->
<g id="node64" class="node">
<title>\\SilverStripe\\Core\\Extension</title>
<ellipse fill="none" stroke="#000000" cx="254.1275" cy="-18.4752" rx="144.0747" ry="18"/>
<text text-anchor="middle" x="254.1275" y="-14.7752" font-family="Times,serif" font-size="14.00" fill="#c0c0c0">\SilverStripe\Core\Extension</text>
</g>
<!-- \\Firesphere\\SolrCompatibility\\Extensions\\DataObjectExtension&#45;&gt;\\SilverStripe\\Core\\Extension -->
<g id="edge2" class="edge">
<title>\\Firesphere\\SolrCompatibility\\Extensions\\DataObjectExtension&#45;&gt;\\SilverStripe\\Core\\Extension</title>
<path fill="none" stroke="#000000" d="M909.2812,-184.3955C883.6376,-158.9647 833.1975,-113.0016 781.2549,-88.4752 736.5953,-67.3877 716.2824,-87.81 672.7549,-64.4752"/>
<path fill="none" stroke="#000000" d="M672.7549,-64.4752C584.7352,-17.2883 471.4652,-7.36 384.9481,-8.3643"/>
<polygon fill="none" stroke="#000000" points="384.7408,-4.8672 374.8005,-8.5334 384.8575,-11.8662 384.7408,-4.8672"/>
</g>
<!-- \\Firesphere\\SolrCompatibility\\Extensions\\FulltextSearchExtension -->
<g id="node5" class="node">
<title>\\Firesphere\\SolrCompatibility\\Extensions\\FulltextSearchExtension</title>
<polygon fill="none" stroke="#000000" points="1012.7549,-328.4752 840.7549,-328.4752 840.7549,-292.4752 1012.7549,-292.4752 1012.7549,-328.4752"/>
<text text-anchor="middle" x="926.7549" y="-307.6752" font-family="Courier,monospace" font-size="11.00" fill="#000000">FulltextSearchExtension</text>
</g>
<!-- \\Firesphere\\SolrCompatibility\\Extensions\\FulltextSearchExtension&#45;&gt;\\SilverStripe\\Core\\Extension -->
<g id="edge3" class="edge">
<title>\\Firesphere\\SolrCompatibility\\Extensions\\FulltextSearchExtension&#45;&gt;\\SilverStripe\\Core\\Extension</title>
<path fill="none" stroke="#000000" d="M840.5787,-297.5983C833.4083,-293.922 826.798,-289.2922 821.2549,-283.4752 760.2228,-219.4264 843.3309,-151.5127 781.2549,-88.4752 746.6018,-53.2853 716.2824,-87.81 672.7549,-64.4752"/>
</g>
<!-- \\Firesphere\\SolrCompatibility\\Extensions\\SolrCoreServiceExtension -->
<g id="node6" class="node">
<title>\\Firesphere\\SolrCompatibility\\Extensions\\SolrCoreServiceExtension</title>
<polygon fill="none" stroke="#000000" points="1016.2549,-274.4752 837.2549,-274.4752 837.2549,-238.4752 1016.2549,-238.4752 1016.2549,-274.4752"/>
<text text-anchor="middle" x="926.7549" y="-253.6752" font-family="Courier,monospace" font-size="11.00" fill="#000000">SolrCoreServiceExtension</text>
</g>
<!-- \\Firesphere\\SolrCompatibility\\Extensions\\SolrCoreServiceExtension&#45;&gt;\\SilverStripe\\Core\\Extension -->
<g id="edge4" class="edge">
<title>\\Firesphere\\SolrCompatibility\\Extensions\\SolrCoreServiceExtension&#45;&gt;\\SilverStripe\\Core\\Extension</title>
<path fill="none" stroke="#000000" d="M837.2275,-241.1763C831.4095,-237.9533 825.9941,-234.0933 821.2549,-229.4752 774.6022,-184.0144 828.6481,-133.1635 781.2549,-88.4752 745.3221,-54.5931 716.2824,-87.81 672.7549,-64.4752"/>
</g>
<!-- \\Firesphere\\SolrSearch\\Tasks\\ClearErrorsTask -->
<g id="node8" class="node">
<title>\\Firesphere\\SolrSearch\\Tasks\\ClearErrorsTask</title>
<polygon fill="none" stroke="#000000" points="731.7549,-2884.4752 613.7549,-2884.4752 613.7549,-2848.4752 731.7549,-2848.4752 731.7549,-2884.4752"/>
<text text-anchor="middle" x="672.7549" y="-2863.6752" font-family="Courier,monospace" font-size="11.00" fill="#000000">ClearErrorsTask</text>
</g>
<!-- \\SilverStripe\\Dev\\BuildTask -->
<g id="node65" class="node">
<title>\\SilverStripe\\Dev\\BuildTask</title>
<ellipse fill="none" stroke="#000000" cx="254.1275" cy="-126.4752" rx="139.9756" ry="18"/>
<text text-anchor="middle" x="254.1275" y="-122.7752" font-family="Times,serif" font-size="14.00" fill="#c0c0c0">\SilverStripe\Dev\BuildTask</text>
</g>
<!-- \\Firesphere\\SolrSearch\\Tasks\\ClearErrorsTask&#45;&gt;\\SilverStripe\\Dev\\BuildTask -->
<g id="edge6" class="edge">
<title>\\Firesphere\\SolrSearch\\Tasks\\ClearErrorsTask&#45;&gt;\\SilverStripe\\Dev\\BuildTask</title>
<path fill="none" stroke="#000000" d="M613.7232,-2863.3294C597.8793,-2859.4697 582.3592,-2852.3295 572.2549,-2839.4752 480.8004,-2723.1296 603.6222,-289.6355 508.2549,-176.4752 480.825,-143.9276 438.9338,-128.6137 397.0265,-122.2388"/>
<polygon fill="none" stroke="#000000" points="397.3342,-118.7486 386.9547,-120.8737 396.394,-125.6852 397.3342,-118.7486"/>
</g>
<!-- \\Firesphere\\SolrSearch\\Tasks\\SolrIndexTask -->
<g id="node9" class="node">
<title>\\Firesphere\\SolrSearch\\Tasks\\SolrIndexTask</title>
<polygon fill="none" stroke="#000000" points="724.7549,-2830.4752 620.7549,-2830.4752 620.7549,-2794.4752 724.7549,-2794.4752 724.7549,-2830.4752"/>
<text text-anchor="middle" x="672.7549" y="-2809.6752" font-family="Courier,monospace" font-size="11.00" fill="#000000">SolrIndexTask</text>
</g>
<!-- \\Firesphere\\SolrSearch\\Tasks\\SolrIndexTask&#45;&gt;\\SilverStripe\\Dev\\BuildTask -->
<g id="edge7" class="edge">
<title>\\Firesphere\\SolrSearch\\Tasks\\SolrIndexTask&#45;&gt;\\SilverStripe\\Dev\\BuildTask</title>
<path fill="none" stroke="#000000" d="M620.5598,-2810.7938C602.4542,-2807.3997 583.8143,-2800.1731 572.2549,-2785.4752 392.9961,-2557.5444 695.1792,-398.1628 508.2549,-176.4752 480.884,-144.014 439.1284,-128.6973 397.3243,-122.2939"/>
<polygon fill="none" stroke="#000000" points="397.6583,-118.8071 387.2766,-120.9214 396.7108,-125.7427 397.6583,-118.8071"/>
</g>
<!-- \\Firesphere\\SolrSearch\\Tasks\\SolrConfigureTask -->
<g id="node10" class="node">
<title>\\Firesphere\\SolrSearch\\Tasks\\SolrConfigureTask</title>
<polygon fill="none" stroke="#000000" points="738.2549,-2776.4752 607.2549,-2776.4752 607.2549,-2740.4752 738.2549,-2740.4752 738.2549,-2776.4752"/>
<text text-anchor="middle" x="672.7549" y="-2755.6752" font-family="Courier,monospace" font-size="11.00" fill="#000000">SolrConfigureTask</text>
</g>
<!-- \\Firesphere\\SolrSearch\\Tasks\\SolrConfigureTask&#45;&gt;\\SilverStripe\\Dev\\BuildTask -->
<g id="edge8" class="edge">
<title>\\Firesphere\\SolrSearch\\Tasks\\SolrConfigureTask&#45;&gt;\\SilverStripe\\Dev\\BuildTask</title>
<path fill="none" stroke="#000000" d="M607.1981,-2753.5295C593.7031,-2749.3821 580.9692,-2742.5496 572.2549,-2731.4752 396.6462,-2508.3047 691.3689,-393.5298 508.2549,-176.4752 480.8756,-144.0211 439.1178,-128.7063 397.3142,-122.3024"/>
<polygon fill="none" stroke="#000000" points="397.6484,-118.8156 387.2667,-120.9298 396.7009,-125.7512 397.6484,-118.8156"/>
</g>
<!-- \\Firesphere\\SolrSearch\\Tasks\\ClearDirtyClassesTask -->
<g id="node11" class="node">
<title>\\Firesphere\\SolrSearch\\Tasks\\ClearDirtyClassesTask</title>
<polygon fill="none" stroke="#000000" points="751.7549,-2722.4752 593.7549,-2722.4752 593.7549,-2686.4752 751.7549,-2686.4752 751.7549,-2722.4752"/>
<text text-anchor="middle" x="672.7549" y="-2701.6752" font-family="Courier,monospace" font-size="11.00" fill="#000000">ClearDirtyClassesTask</text>
</g>
<!-- \\Firesphere\\SolrSearch\\Tasks\\ClearDirtyClassesTask&#45;&gt;\\SilverStripe\\Dev\\BuildTask -->
<g id="edge9" class="edge">
<title>\\Firesphere\\SolrSearch\\Tasks\\ClearDirtyClassesTask&#45;&gt;\\SilverStripe\\Dev\\BuildTask</title>
<path fill="none" stroke="#000000" d="M593.4881,-2691.7603C585.2818,-2687.4773 577.8983,-2681.8501 572.2549,-2674.4752 403.5288,-2453.9776 687.347,-388.6394 508.2549,-176.4752 480.8664,-144.0289 439.1061,-128.7161 397.3031,-122.3117"/>
<polygon fill="none" stroke="#000000" points="397.6376,-118.825 387.2558,-120.9389 396.6899,-125.7605 397.6376,-118.825"/>
</g>
<!-- \\Firesphere\\SolrSearch\\Interfaces\\SiteStateInterface -->
<g id="node12" class="node">
<title>\\Firesphere\\SolrSearch\\Interfaces\\SiteStateInterface</title>
<polygon fill="none" stroke="#000000" points="323.1275,-224.4752 185.1275,-224.4752 185.1275,-188.4752 323.1275,-188.4752 323.1275,-224.4752"/>
<text text-anchor="middle" x="254.1275" y="-203.6752" font-family="Courier,monospace" font-size="11.00" fill="#000000">SiteStateInterface</text>
</g>
<!-- \\Firesphere\\SolrSearch\\Interfaces\\ConfigStore -->
<g id="node13" class="node">
<title>\\Firesphere\\SolrSearch\\Interfaces\\ConfigStore</title>
<polygon fill="none" stroke="#000000" points="299.6275,-278.4752 208.6275,-278.4752 208.6275,-242.4752 299.6275,-242.4752 299.6275,-278.4752"/>
<text text-anchor="middle" x="254.1275" y="-257.6752" font-family="Courier,monospace" font-size="11.00" fill="#000000">ConfigStore</text>
</g>
<!-- \\Firesphere\\SolrSearch\\Traits\\SearchResultSetTrait -->
<g id="node14" class="node">
<title>\\Firesphere\\SolrSearch\\Traits\\SearchResultSetTrait</title>
<polygon fill="none" stroke="#000000" points="748.7549,-2642.4752 596.7549,-2642.4752 596.7549,-2606.4752 748.7549,-2606.4752 748.7549,-2642.4752"/>
<text text-anchor="middle" x="672.7549" y="-2621.6752" font-family="Courier,monospace" font-size="11.00" fill="#000000">SearchResultSetTrait</text>
</g>
<!-- \\Firesphere\\SolrSearch\\Traits\\SearchResultGetTrait -->
<g id="node15" class="node">
<title>\\Firesphere\\SolrSearch\\Traits\\SearchResultGetTrait</title>
<polygon fill="none" stroke="#000000" points="748.7549,-2588.4752 596.7549,-2588.4752 596.7549,-2552.4752 748.7549,-2552.4752 748.7549,-2588.4752"/>
<text text-anchor="middle" x="672.7549" y="-2567.6752" font-family="Courier,monospace" font-size="11.00" fill="#000000">SearchResultGetTrait</text>
</g>
<!-- \\Firesphere\\SolrSearch\\Traits\\SolrIndexTrait -->
<g id="node16" class="node">
<title>\\Firesphere\\SolrSearch\\Traits\\SolrIndexTrait</title>
<polygon fill="none" stroke="#000000" points="728.2549,-2534.4752 617.2549,-2534.4752 617.2549,-2498.4752 728.2549,-2498.4752 728.2549,-2534.4752"/>
<text text-anchor="middle" x="672.7549" y="-2513.6752" font-family="Courier,monospace" font-size="11.00" fill="#000000">SolrIndexTrait</text>
</g>
<!-- \\Firesphere\\SolrSearch\\Traits\\BaseIndexTrait -->
<g id="node17" class="node">
<title>\\Firesphere\\SolrSearch\\Traits\\BaseIndexTrait</title>
<polygon fill="none" stroke="#000000" points="728.2549,-2480.4752 617.2549,-2480.4752 617.2549,-2444.4752 728.2549,-2444.4752 728.2549,-2480.4752"/>
<text text-anchor="middle" x="672.7549" y="-2459.6752" font-family="Courier,monospace" font-size="11.00" fill="#000000">BaseIndexTrait</text>
</g>
<!-- \\Firesphere\\SolrSearch\\Traits\\DocumentFactoryTrait -->
<g id="node18" class="node">
<title>\\Firesphere\\SolrSearch\\Traits\\DocumentFactoryTrait</title>
<polygon fill="none" stroke="#000000" points="748.7549,-2426.4752 596.7549,-2426.4752 596.7549,-2390.4752 748.7549,-2390.4752 748.7549,-2426.4752"/>
<text text-anchor="middle" x="672.7549" y="-2405.6752" font-family="Courier,monospace" font-size="11.00" fill="#000000">DocumentFactoryTrait</text>
</g>
<!-- \\Firesphere\\SolrSearch\\Traits\\GetSetSearchResolverTrait -->
<g id="node19" class="node">
<title>\\Firesphere\\SolrSearch\\Traits\\GetSetSearchResolverTrait</title>
<polygon fill="none" stroke="#000000" points="765.2549,-2372.4752 580.2549,-2372.4752 580.2549,-2336.4752 765.2549,-2336.4752 765.2549,-2372.4752"/>
<text text-anchor="middle" x="672.7549" y="-2351.6752" font-family="Courier,monospace" font-size="11.00" fill="#000000">GetSetSearchResolverTrait</text>
</g>
<!-- \\Firesphere\\SolrSearch\\Traits\\BaseQueryTrait -->
<g id="node20" class="node">
<title>\\Firesphere\\SolrSearch\\Traits\\BaseQueryTrait</title>
<polygon fill="none" stroke="#000000" points="728.2549,-2318.4752 617.2549,-2318.4752 617.2549,-2282.4752 728.2549,-2282.4752 728.2549,-2318.4752"/>
<text text-anchor="middle" x="672.7549" y="-2297.6752" font-family="Courier,monospace" font-size="11.00" fill="#000000">BaseQueryTrait</text>
</g>
<!-- \\Firesphere\\SolrSearch\\Traits\\LoggerTrait -->
<g id="node21" class="node">
<title>\\Firesphere\\SolrSearch\\Traits\\LoggerTrait</title>
<polygon fill="none" stroke="#000000" points="718.2549,-2264.4752 627.2549,-2264.4752 627.2549,-2228.4752 718.2549,-2228.4752 718.2549,-2264.4752"/>
<text text-anchor="middle" x="672.7549" y="-2243.6752" font-family="Courier,monospace" font-size="11.00" fill="#000000">LoggerTrait</text>
</g>
<!-- \\Firesphere\\SolrSearch\\Traits\\CoreAdminTrait -->
<g id="node22" class="node">
<title>\\Firesphere\\SolrSearch\\Traits\\CoreAdminTrait</title>
<polygon fill="none" stroke="#000000" points="728.2549,-2210.4752 617.2549,-2210.4752 617.2549,-2174.4752 728.2549,-2174.4752 728.2549,-2210.4752"/>
<text text-anchor="middle" x="672.7549" y="-2189.6752" font-family="Courier,monospace" font-size="11.00" fill="#000000">CoreAdminTrait</text>
</g>
<!-- \\Firesphere\\SolrSearch\\Traits\\CoreServiceTrait -->
<g id="node23" class="node">
<title>\\Firesphere\\SolrSearch\\Traits\\CoreServiceTrait</title>
<polygon fill="none" stroke="#000000" points="735.2549,-2156.4752 610.2549,-2156.4752 610.2549,-2120.4752 735.2549,-2120.4752 735.2549,-2156.4752"/>
<text text-anchor="middle" x="672.7549" y="-2135.6752" font-family="Courier,monospace" font-size="11.00" fill="#000000">CoreServiceTrait</text>
</g>
<!-- \\Firesphere\\SolrSearch\\Traits\\DataResolveTrait -->
<g id="node24" class="node">
<title>\\Firesphere\\SolrSearch\\Traits\\DataResolveTrait</title>
<polygon fill="none" stroke="#000000" points="735.2549,-2102.4752 610.2549,-2102.4752 610.2549,-2066.4752 735.2549,-2066.4752 735.2549,-2102.4752"/>
<text text-anchor="middle" x="672.7549" y="-2081.6752" font-family="Courier,monospace" font-size="11.00" fill="#000000">DataResolveTrait</text>
</g>
<!-- \\Firesphere\\SolrSearch\\Traits\\QueryComponentFilterTrait -->
<g id="node25" class="node">
<title>\\Firesphere\\SolrSearch\\Traits\\QueryComponentFilterTrait</title>
<polygon fill="none" stroke="#000000" points="765.2549,-2048.4752 580.2549,-2048.4752 580.2549,-2012.4752 765.2549,-2012.4752 765.2549,-2048.4752"/>
<text text-anchor="middle" x="672.7549" y="-2027.6752" font-family="Courier,monospace" font-size="11.00" fill="#000000">QueryComponentFilterTrait</text>
</g>
<!-- \\Firesphere\\SolrSearch\\Traits\\QueryComponentBoostTrait -->
<g id="node26" class="node">
<title>\\Firesphere\\SolrSearch\\Traits\\QueryComponentBoostTrait</title>
<polygon fill="none" stroke="#000000" points="762.2549,-1994.4752 583.2549,-1994.4752 583.2549,-1958.4752 762.2549,-1958.4752 762.2549,-1994.4752"/>
<text text-anchor="middle" x="672.7549" y="-1973.6752" font-family="Courier,monospace" font-size="11.00" fill="#000000">QueryComponentBoostTrait</text>
</g>
<!-- \\Firesphere\\SolrSearch\\Traits\\QueryComponentFacetTrait -->
<g id="node27" class="node">
<title>\\Firesphere\\SolrSearch\\Traits\\QueryComponentFacetTrait</title>
<polygon fill="none" stroke="#000000" points="762.2549,-1940.4752 583.2549,-1940.4752 583.2549,-1904.4752 762.2549,-1904.4752 762.2549,-1940.4752"/>
<text text-anchor="middle" x="672.7549" y="-1919.6752" font-family="Courier,monospace" font-size="11.00" fill="#000000">QueryComponentFacetTrait</text>
</g>
<!-- \\Firesphere\\SolrSearch\\Traits\\GetterSetterTrait -->
<g id="node28" class="node">
<title>\\Firesphere\\SolrSearch\\Traits\\GetterSetterTrait</title>
<polygon fill="none" stroke="#000000" points="738.2549,-1886.4752 607.2549,-1886.4752 607.2549,-1850.4752 738.2549,-1850.4752 738.2549,-1886.4752"/>
<text text-anchor="middle" x="672.7549" y="-1865.6752" font-family="Courier,monospace" font-size="11.00" fill="#000000">GetterSetterTrait</text>
</g>
<!-- \\Firesphere\\SolrSearch\\Traits\\GetSetSchemaFactoryTrait -->
<g id="node29" class="node">
<title>\\Firesphere\\SolrSearch\\Traits\\GetSetSchemaFactoryTrait</title>
<polygon fill="none" stroke="#000000" points="762.2549,-1832.4752 583.2549,-1832.4752 583.2549,-1796.4752 762.2549,-1796.4752 762.2549,-1832.4752"/>
<text text-anchor="middle" x="672.7549" y="-1811.6752" font-family="Courier,monospace" font-size="11.00" fill="#000000">GetSetSchemaFactoryTrait</text>
</g>
<!-- \\Firesphere\\SolrSearch\\Services\\SolrCoreService -->
<g id="node30" class="node">
<title>\\Firesphere\\SolrSearch\\Services\\SolrCoreService</title>
<polygon fill="none" stroke="#000000" points="731.7549,-1752.4752 613.7549,-1752.4752 613.7549,-1716.4752 731.7549,-1716.4752 731.7549,-1752.4752"/>
<text text-anchor="middle" x="672.7549" y="-1731.6752" font-family="Courier,monospace" font-size="11.00" fill="#000000">SolrCoreService</text>
</g>
<!-- \\Firesphere\\SolrSearch\\Forms\\SearchForm -->
<g id="node31" class="node">
<title>\\Firesphere\\SolrSearch\\Forms\\SearchForm</title>
<polygon fill="none" stroke="#000000" points="714.7549,-1672.4752 630.7549,-1672.4752 630.7549,-1636.4752 714.7549,-1636.4752 714.7549,-1672.4752"/>
<text text-anchor="middle" x="672.7549" y="-1651.6752" font-family="Courier,monospace" font-size="11.00" fill="#000000">SearchForm</text>
</g>
<!-- \\SilverStripe\\Forms\\Form -->
<g id="node66" class="node">
<title>\\SilverStripe\\Forms\\Form</title>
<ellipse fill="none" stroke="#000000" cx="254.1275" cy="-3694.4752" rx="129.1772" ry="18"/>
<text text-anchor="middle" x="254.1275" y="-3690.7752" font-family="Times,serif" font-size="14.00" fill="#c0c0c0">\SilverStripe\Forms\Form</text>
</g>
<!-- \\Firesphere\\SolrSearch\\Forms\\SearchForm&#45;&gt;\\SilverStripe\\Forms\\Form -->
<g id="edge10" class="edge">
<title>\\Firesphere\\SolrSearch\\Forms\\SearchForm&#45;&gt;\\SilverStripe\\Forms\\Form</title>
<path fill="none" stroke="#000000" d="M630.5653,-1664.4286C609.3001,-1671.7755 585.3128,-1684.1418 572.2549,-1704.4752 454.3335,-1888.0986 656.8103,-3507.618 508.2549,-3667.4752 465.5168,-3713.4646 392.3816,-3716.8622 335.511,-3710.7018"/>
<polygon fill="none" stroke="#000000" points="335.7988,-3707.2113 325.4533,-3709.496 334.9655,-3714.1616 335.7988,-3707.2113"/>
</g>
<!-- \\Firesphere\\SolrSearch\\Extensions\\DataObjectExtension -->
<g id="node33" class="node">
<title>\\Firesphere\\SolrSearch\\Extensions\\DataObjectExtension</title>
<polygon fill="none" stroke="#000000" points="745.2549,-1324.4752 600.2549,-1324.4752 600.2549,-1288.4752 745.2549,-1288.4752 745.2549,-1324.4752"/>
<text text-anchor="middle" x="672.7549" y="-1303.6752" font-family="Courier,monospace" font-size="11.00" fill="#000000">DataObjectExtension</text>
</g>
<!-- \\SilverStripe\\ORM\\DataExtension -->
<g id="node67" class="node">
<title>\\SilverStripe\\ORM\\DataExtension</title>
<ellipse fill="none" stroke="#000000" cx="254.1275" cy="-72.4752" rx="167.8704" ry="18"/>
<text text-anchor="middle" x="254.1275" y="-68.7752" font-family="Times,serif" font-size="14.00" fill="#c0c0c0">\SilverStripe\ORM\DataExtension</text>
</g>
<!-- \\Firesphere\\SolrSearch\\Extensions\\DataObjectExtension&#45;&gt;\\SilverStripe\\ORM\\DataExtension -->
<g id="edge11" class="edge">
<title>\\Firesphere\\SolrSearch\\Extensions\\DataObjectExtension&#45;&gt;\\SilverStripe\\ORM\\DataExtension</title>
<path fill="none" stroke="#000000" d="M600.2461,-1298.8504C589.4589,-1294.6351 579.5367,-1288.4568 572.2549,-1279.4752 406.8718,-1075.4869 689.0883,-289.9011 508.2549,-99.4752 467.3414,-56.3913 399.6927,-50.994 344.4751,-55.6446"/>
<polygon fill="none" stroke="#000000" points="343.9369,-52.1801 334.3187,-56.623 344.6082,-59.1479 343.9369,-52.1801"/>
</g>
<!-- \\Firesphere\\SolrSearch\\Extensions\\GridFieldExtension -->
<g id="node34" class="node">
<title>\\Firesphere\\SolrSearch\\Extensions\\GridFieldExtension</title>
<polygon fill="none" stroke="#000000" points="741.7549,-1270.4752 603.7549,-1270.4752 603.7549,-1234.4752 741.7549,-1234.4752 741.7549,-1270.4752"/>
<text text-anchor="middle" x="672.7549" y="-1249.6752" font-family="Courier,monospace" font-size="11.00" fill="#000000">GridFieldExtension</text>
</g>
<!-- \\Firesphere\\SolrSearch\\Extensions\\GridFieldExtension&#45;&gt;\\SilverStripe\\Core\\Extension -->
<g id="edge12" class="edge">
<title>\\Firesphere\\SolrSearch\\Extensions\\GridFieldExtension&#45;&gt;\\SilverStripe\\Core\\Extension</title>
<path fill="none" stroke="#000000" d="M603.6965,-1244.025C591.5522,-1239.4574 580.2579,-1232.6284 572.2549,-1222.4752 410.1032,-1016.7559 688.643,-235.406 508.2549,-45.4752 466.2597,-1.2584 396.1046,3.2617 340.1328,-2.0347"/>
<polygon fill="none" stroke="#000000" points="339.4292,1.4102 329.8567,-3.1305 340.1715,-5.5503 339.4292,1.4102"/>
</g>
<!-- \\Firesphere\\SolrSearch\\Jobs\\SolrIndexJob -->
<g id="node35" class="node">
<title>\\Firesphere\\SolrSearch\\Jobs\\SolrIndexJob</title>
<polygon fill="none" stroke="#000000" points="721.7549,-1512.4752 623.7549,-1512.4752 623.7549,-1476.4752 721.7549,-1476.4752 721.7549,-1512.4752"/>
<text text-anchor="middle" x="672.7549" y="-1491.6752" font-family="Courier,monospace" font-size="11.00" fill="#000000">SolrIndexJob</text>
</g>
<!-- \\Symbiote\\QueuedJobs\\Services\\AbstractQueuedJob -->
<g id="node68" class="node">
<title>\\Symbiote\\QueuedJobs\\Services\\AbstractQueuedJob</title>
<ellipse fill="none" stroke="#000000" cx="254.1275" cy="-3640.4752" rx="254.255" ry="18"/>
<text text-anchor="middle" x="254.1275" y="-3636.7752" font-family="Times,serif" font-size="14.00" fill="#c0c0c0">\Symbiote\QueuedJobs\Services\AbstractQueuedJob</text>
</g>
<!-- \\Firesphere\\SolrSearch\\Jobs\\SolrIndexJob&#45;&gt;\\Symbiote\\QueuedJobs\\Services\\AbstractQueuedJob -->
<g id="edge13" class="edge">
<title>\\Firesphere\\SolrSearch\\Jobs\\SolrIndexJob&#45;&gt;\\Symbiote\\QueuedJobs\\Services\\AbstractQueuedJob</title>
<path fill="none" stroke="#000000" d="M623.5259,-1507.0011C604.1894,-1514.5515 583.876,-1526.3458 572.2549,-1544.4752 448.134,-1738.1075 664.6832,-3444.8642 508.2549,-3613.4752 469.63,-3655.1082 406.0978,-3661.8581 352.222,-3658.1998"/>
<polygon fill="none" stroke="#000000" points="352.184,-3654.6854 341.9348,-3657.3693 351.6207,-3661.6627 352.184,-3654.6854"/>
</g>
<!-- \\Firesphere\\SolrSearch\\Jobs\\ClearDirtyClassesJob -->
<g id="node36" class="node">
<title>\\Firesphere\\SolrSearch\\Jobs\\ClearDirtyClassesJob</title>
<polygon fill="none" stroke="#000000" points="748.7549,-1458.4752 596.7549,-1458.4752 596.7549,-1422.4752 748.7549,-1422.4752 748.7549,-1458.4752"/>
<text text-anchor="middle" x="672.7549" y="-1437.6752" font-family="Courier,monospace" font-size="11.00" fill="#000000">ClearDirtyClassesJob</text>
</g>
<!-- \\Firesphere\\SolrSearch\\Jobs\\ClearDirtyClassesJob&#45;&gt;\\Symbiote\\QueuedJobs\\Services\\AbstractQueuedJob -->
<g id="edge14" class="edge">
<title>\\Firesphere\\SolrSearch\\Jobs\\ClearDirtyClassesJob&#45;&gt;\\Symbiote\\QueuedJobs\\Services\\AbstractQueuedJob</title>
<path fill="none" stroke="#000000" d="M596.5624,-1449.4124C587.1677,-1453.5783 578.6423,-1459.3975 572.2549,-1467.4752 424.2913,-1654.593 670.4024,-3438.5051 508.2549,-3613.4752 469.653,-3655.1296 406.1208,-3661.8795 352.2393,-3658.2158"/>
<polygon fill="none" stroke="#000000" points="352.2004,-3654.7014 341.9509,-3657.3843 351.6364,-3661.6786 352.2004,-3654.7014"/>
</g>
<!-- \\Firesphere\\SolrSearch\\Jobs\\SolrConfigureJob -->
<g id="node37" class="node">
<title>\\Firesphere\\SolrSearch\\Jobs\\SolrConfigureJob</title>
<polygon fill="none" stroke="#000000" points="735.2549,-1404.4752 610.2549,-1404.4752 610.2549,-1368.4752 735.2549,-1368.4752 735.2549,-1404.4752"/>
<text text-anchor="middle" x="672.7549" y="-1383.6752" font-family="Courier,monospace" font-size="11.00" fill="#000000">SolrConfigureJob</text>
</g>
<!-- \\Firesphere\\SolrSearch\\Jobs\\SolrConfigureJob&#45;&gt;\\Symbiote\\QueuedJobs\\Services\\AbstractQueuedJob -->
<g id="edge15" class="edge">
<title>\\Firesphere\\SolrSearch\\Jobs\\SolrConfigureJob&#45;&gt;\\Symbiote\\QueuedJobs\\Services\\AbstractQueuedJob</title>
<path fill="none" stroke="#000000" d="M610.0957,-1390.6087C595.5511,-1394.6511 581.6076,-1401.6386 572.2549,-1413.4752 420.6415,-1605.3528 674.4134,-3434.0454 508.2549,-3613.4752 469.6683,-3655.1437 406.1361,-3661.8936 352.2507,-3658.2264"/>
<polygon fill="none" stroke="#000000" points="352.2113,-3654.7119 341.9616,-3657.3941 351.6468,-3661.6891 352.2113,-3654.7119"/>
</g>
<!-- \\Firesphere\\SolrSearch\\Helpers\\FieldResolver -->
<g id="node38" class="node">
<title>\\Firesphere\\SolrSearch\\Helpers\\FieldResolver</title>
<polygon fill="none" stroke="#000000" points="724.7549,-1190.4752 620.7549,-1190.4752 620.7549,-1154.4752 724.7549,-1154.4752 724.7549,-1190.4752"/>
<text text-anchor="middle" x="672.7549" y="-1169.6752" font-family="Courier,monospace" font-size="11.00" fill="#000000">FieldResolver</text>
</g>
<!-- \\Firesphere\\SolrSearch\\Helpers\\SolrLogger -->
<g id="node39" class="node">
<title>\\Firesphere\\SolrSearch\\Helpers\\SolrLogger</title>
<polygon fill="none" stroke="#000000" points="714.7549,-1136.4752 630.7549,-1136.4752 630.7549,-1100.4752 714.7549,-1100.4752 714.7549,-1136.4752"/>
<text text-anchor="middle" x="672.7549" y="-1115.6752" font-family="Courier,monospace" font-size="11.00" fill="#000000">SolrLogger</text>
</g>
<!-- \\Firesphere\\SolrSearch\\Helpers\\Statics -->
<g id="node40" class="node">
<title>\\Firesphere\\SolrSearch\\Helpers\\Statics</title>
<polygon fill="none" stroke="#000000" points="704.7549,-1082.4752 640.7549,-1082.4752 640.7549,-1046.4752 704.7549,-1046.4752 704.7549,-1082.4752"/>
<text text-anchor="middle" x="672.7549" y="-1061.6752" font-family="Courier,monospace" font-size="11.00" fill="#000000">Statics</text>
</g>
<!-- \\Firesphere\\SolrSearch\\Helpers\\Synonyms -->
<g id="node41" class="node">
<title>\\Firesphere\\SolrSearch\\Helpers\\Synonyms</title>
<polygon fill="none" stroke="#000000" points="708.2549,-1028.4752 637.2549,-1028.4752 637.2549,-992.4752 708.2549,-992.4752 708.2549,-1028.4752"/>
<text text-anchor="middle" x="672.7549" y="-1007.6752" font-family="Courier,monospace" font-size="11.00" fill="#000000">Synonyms</text>
</g>
<!-- \\Firesphere\\SolrSearch\\Helpers\\DataResolver -->
<g id="node42" class="node">
<title>\\Firesphere\\SolrSearch\\Helpers\\DataResolver</title>
<polygon fill="none" stroke="#000000" points="721.7549,-974.4752 623.7549,-974.4752 623.7549,-938.4752 721.7549,-938.4752 721.7549,-974.4752"/>
<text text-anchor="middle" x="672.7549" y="-953.6752" font-family="Courier,monospace" font-size="11.00" fill="#000000">DataResolver</text>
</g>
<!-- \\Firesphere\\SolrSearch\\States\\SiteState -->
<g id="node43" class="node">
<title>\\Firesphere\\SolrSearch\\States\\SiteState</title>
<polygon fill="none" stroke="#000000" points="714.7549,-894.4752 630.7549,-894.4752 630.7549,-858.4752 714.7549,-858.4752 714.7549,-894.4752"/>
<text text-anchor="start" x="638.7549" y="-879.6752" font-family="Courier,monospace" font-size="11.00" fill="#000000">«abstract»</text>
<text text-anchor="start" x="642.2549" y="-867.6752" font-family="Courier,monospace" font-size="11.00" fill="#000000">SiteState</text>
</g>
<!-- \\Firesphere\\SolrSearch\\Models\\SolrLog -->
<g id="node44" class="node">
<title>\\Firesphere\\SolrSearch\\Models\\SolrLog</title>
<polygon fill="none" stroke="#000000" points="704.7549,-706.4752 640.7549,-706.4752 640.7549,-670.4752 704.7549,-670.4752 704.7549,-706.4752"/>
<text text-anchor="middle" x="672.7549" y="-685.6752" font-family="Courier,monospace" font-size="11.00" fill="#000000">SolrLog</text>
</g>
<!-- \\SilverStripe\\ORM\\DataObject -->
<g id="node69" class="node">
<title>\\SilverStripe\\ORM\\DataObject</title>
<ellipse fill="none" stroke="#000000" cx="254.1275" cy="-3586.4752" rx="152.9733" ry="18"/>
<text text-anchor="middle" x="254.1275" y="-3582.7752" font-family="Times,serif" font-size="14.00" fill="#c0c0c0">\SilverStripe\ORM\DataObject</text>
</g>
<!-- \\Firesphere\\SolrSearch\\Models\\SolrLog&#45;&gt;\\SilverStripe\\ORM\\DataObject -->
<g id="edge16" class="edge">
<title>\\Firesphere\\SolrSearch\\Models\\SolrLog&#45;&gt;\\SilverStripe\\ORM\\DataObject</title>
<path fill="none" stroke="#000000" d="M640.6208,-687.7335C617.6948,-689.1086 588.2053,-695.1516 572.2549,-715.4752 474.6829,-839.7987 615.2532,-3443.1652 508.2549,-3559.4752 466.7412,-3604.6016 395.9871,-3608.8737 339.6622,-3603.2504"/>
<polygon fill="none" stroke="#000000" points="340.0087,-3599.7675 329.6823,-3602.1372 339.2326,-3606.7243 340.0087,-3599.7675"/>
</g>
<!-- \\SilverStripe\\Security\\PermissionProvider -->
<g id="node70" class="node">
<title>\\SilverStripe\\Security\\PermissionProvider</title>
<ellipse fill="none" stroke="#000000" cx="254.1275" cy="-3532.4752" rx="206.0634" ry="18"/>
<text text-anchor="middle" x="254.1275" y="-3528.7752" font-family="Times,serif" font-size="14.00" fill="#c0c0c0">\SilverStripe\Security\PermissionProvider</text>
</g>
<!-- \\Firesphere\\SolrSearch\\Models\\SolrLog&#45;&gt;\\SilverStripe\\Security\\PermissionProvider -->
<g id="edge17" class="edge">
<title>\\Firesphere\\SolrSearch\\Models\\SolrLog&#45;&gt;\\SilverStripe\\Security\\PermissionProvider</title>
<path fill="none" stroke="#000000" stroke-dasharray="1,5" d="M640.6234,-687.7355C617.6987,-689.1116 588.2097,-695.1551 572.2549,-715.4752 476.508,-837.4185 613.2475,-3391.3953 508.2549,-3505.4752 468.5852,-3548.5783 402.2372,-3554.4025 347.2818,-3549.9356"/>
<polygon fill="none" stroke="#000000" points="347.4446,-3546.4356 337.1619,-3548.9884 346.7922,-3553.4052 347.4446,-3546.4356"/>
</g>
<!-- \\Firesphere\\SolrSearch\\Models\\SearchSynonym -->
<g id="node45" class="node">
<title>\\Firesphere\\SolrSearch\\Models\\SearchSynonym</title>
<polygon fill="none" stroke="#000000" points="724.7549,-760.4752 620.7549,-760.4752 620.7549,-724.4752 724.7549,-724.4752 724.7549,-760.4752"/>
<text text-anchor="middle" x="672.7549" y="-739.6752" font-family="Courier,monospace" font-size="11.00" fill="#000000">SearchSynonym</text>
</g>
<!-- \\Firesphere\\SolrSearch\\Models\\SearchSynonym&#45;&gt;\\SilverStripe\\ORM\\DataObject -->
<g id="edge18" class="edge">
<title>\\Firesphere\\SolrSearch\\Models\\SearchSynonym&#45;&gt;\\SilverStripe\\ORM\\DataObject</title>
<path fill="none" stroke="#000000" d="M620.5474,-744.1467C602.4402,-747.5396 583.8026,-754.768 572.2549,-769.4752 476.508,-891.4185 613.2475,-3445.3953 508.2549,-3559.4752 466.7314,-3604.5926 395.978,-3608.8654 339.656,-3603.2447"/>
<polygon fill="none" stroke="#000000" points="340.0029,-3599.7618 329.6766,-3602.132 339.2271,-3606.7187 340.0029,-3599.7618"/>
</g>
<!-- \\Firesphere\\SolrSearch\\Models\\DirtyClass -->
<g id="node46" class="node">
<title>\\Firesphere\\SolrSearch\\Models\\DirtyClass</title>
<polygon fill="none" stroke="#000000" points="714.7549,-814.4752 630.7549,-814.4752 630.7549,-778.4752 714.7549,-778.4752 714.7549,-814.4752"/>
<text text-anchor="middle" x="672.7549" y="-793.6752" font-family="Courier,monospace" font-size="11.00" fill="#000000">DirtyClass</text>
</g>
<!-- \\Firesphere\\SolrSearch\\Models\\DirtyClass&#45;&gt;\\SilverStripe\\ORM\\DataObject -->
<g id="edge19" class="edge">
<title>\\Firesphere\\SolrSearch\\Models\\DirtyClass&#45;&gt;\\SilverStripe\\ORM\\DataObject</title>
<path fill="none" stroke="#000000" d="M630.7495,-806.2934C609.3991,-813.6154 585.2734,-826.001 572.2549,-846.4752 491.3599,-973.6987 610.3874,-3448.5753 508.2549,-3559.4752 466.7167,-3604.5791 395.9645,-3608.853 339.6467,-3603.2361"/>
<polygon fill="none" stroke="#000000" points="339.9942,-3599.7533 329.668,-3602.1241 339.2188,-3606.7102 339.9942,-3599.7533"/>
</g>
<!-- \\Firesphere\\SolrSearch\\Factories\\QueryComponentFactory -->
<g id="node47" class="node">
<title>\\Firesphere\\SolrSearch\\Factories\\QueryComponentFactory</title>
<polygon fill="none" stroke="#000000" points="751.7549,-626.4752 593.7549,-626.4752 593.7549,-590.4752 751.7549,-590.4752 751.7549,-626.4752"/>
<text text-anchor="middle" x="672.7549" y="-605.6752" font-family="Courier,monospace" font-size="11.00" fill="#000000">QueryComponentFactory</text>
</g>
<!-- \\Firesphere\\SolrSearch\\Factories\\DocumentFactory -->
<g id="node48" class="node">
<title>\\Firesphere\\SolrSearch\\Factories\\DocumentFactory</title>
<polygon fill="none" stroke="#000000" points="731.7549,-572.4752 613.7549,-572.4752 613.7549,-536.4752 731.7549,-536.4752 731.7549,-572.4752"/>
<text text-anchor="middle" x="672.7549" y="-551.6752" font-family="Courier,monospace" font-size="11.00" fill="#000000">DocumentFactory</text>
</g>
<!-- \\Firesphere\\SolrSearch\\Factories\\SchemaFactory -->
<g id="node49" class="node">
<title>\\Firesphere\\SolrSearch\\Factories\\SchemaFactory</title>
<polygon fill="none" stroke="#000000" points="724.7549,-518.4752 620.7549,-518.4752 620.7549,-482.4752 724.7549,-482.4752 724.7549,-518.4752"/>
<text text-anchor="middle" x="672.7549" y="-497.6752" font-family="Courier,monospace" font-size="11.00" fill="#000000">SchemaFactory</text>
</g>
<!-- \\SilverStripe\\View\\ViewableData -->
<g id="node71" class="node">
<title>\\SilverStripe\\View\\ViewableData</title>
<ellipse fill="none" stroke="#000000" cx="254.1275" cy="-3478.4752" rx="163.2712" ry="18"/>
<text text-anchor="middle" x="254.1275" y="-3474.7752" font-family="Times,serif" font-size="14.00" fill="#c0c0c0">\SilverStripe\View\ViewableData</text>
</g>
<!-- \\Firesphere\\SolrSearch\\Factories\\SchemaFactory&#45;&gt;\\SilverStripe\\View\\ViewableData -->
<g id="edge20" class="edge">
<title>\\Firesphere\\SolrSearch\\Factories\\SchemaFactory&#45;&gt;\\SilverStripe\\View\\ViewableData</title>
<path fill="none" stroke="#000000" d="M620.5392,-502.1403C602.431,-505.5324 583.7949,-512.7619 572.2549,-527.4752 471.9789,-655.3249 618.2247,-3331.8613 508.2549,-3451.4752 467.2651,-3496.0597 397.7343,-3500.7743 341.754,-3495.4614"/>
<polygon fill="none" stroke="#000000" points="341.7848,-3491.9448 331.4689,-3494.3601 341.0394,-3498.905 341.7848,-3491.9448"/>
</g>
<!-- \\Firesphere\\SolrSearch\\Results\\SearchResult -->
<g id="node50" class="node">
<title>\\Firesphere\\SolrSearch\\Results\\SearchResult</title>
<polygon fill="none" stroke="#000000" points="721.7549,-438.4752 623.7549,-438.4752 623.7549,-402.4752 721.7549,-402.4752 721.7549,-438.4752"/>
<text text-anchor="middle" x="672.7549" y="-417.6752" font-family="Courier,monospace" font-size="11.00" fill="#000000">SearchResult</text>
</g>
<!-- \\Firesphere\\SolrSearch\\Results\\SearchResult&#45;&gt;\\SilverStripe\\View\\ViewableData -->
<g id="edge21" class="edge">
<title>\\Firesphere\\SolrSearch\\Results\\SearchResult&#45;&gt;\\SilverStripe\\View\\ViewableData</title>
<path fill="none" stroke="#000000" d="M623.7054,-432.8459C604.2757,-440.3826 583.8424,-452.2088 572.2549,-470.4752 483.5212,-610.3537 620.3419,-3329.5072 508.2549,-3451.4752 467.2744,-3496.0683 397.743,-3500.7823 341.7601,-3495.467"/>
<polygon fill="none" stroke="#000000" points="341.7904,-3491.9504 331.4745,-3494.3652 341.0448,-3498.9105 341.7904,-3491.9504"/>
</g>
<!-- \\Firesphere\\SolrSearch\\Stores\\FileConfigStore -->
<g id="node51" class="node">
<title>\\Firesphere\\SolrSearch\\Stores\\FileConfigStore</title>
<polygon fill="none" stroke="#000000" points="731.7549,-278.4752 613.7549,-278.4752 613.7549,-242.4752 731.7549,-242.4752 731.7549,-278.4752"/>
<text text-anchor="middle" x="672.7549" y="-257.6752" font-family="Courier,monospace" font-size="11.00" fill="#000000">FileConfigStore</text>
</g>
<!-- \\Firesphere\\SolrSearch\\Stores\\FileConfigStore&#45;&gt;\\Firesphere\\SolrSearch\\Interfaces\\ConfigStore -->
<g id="edge22" class="edge">
<title>\\Firesphere\\SolrSearch\\Stores\\FileConfigStore&#45;&gt;\\Firesphere\\SolrSearch\\Interfaces\\ConfigStore</title>
<path fill="none" stroke="#000000" stroke-dasharray="1,5" d="M613.6637,-260.4752C532.8854,-260.4752 389.0185,-260.4752 309.9722,-260.4752"/>
<polygon fill="none" stroke="#000000" points="309.7288,-256.9752 299.7287,-260.4752 309.7287,-263.9752 309.7288,-256.9752"/>
</g>
<!-- \\Firesphere\\SolrSearch\\Stores\\PostConfigStore -->
<g id="node52" class="node">
<title>\\Firesphere\\SolrSearch\\Stores\\PostConfigStore</title>
<polygon fill="none" stroke="#000000" points="731.7549,-224.4752 613.7549,-224.4752 613.7549,-188.4752 731.7549,-188.4752 731.7549,-224.4752"/>
<text text-anchor="middle" x="672.7549" y="-203.6752" font-family="Courier,monospace" font-size="11.00" fill="#000000">PostConfigStore</text>
</g>
<!-- \\Firesphere\\SolrSearch\\Stores\\PostConfigStore&#45;&gt;\\Firesphere\\SolrSearch\\Interfaces\\ConfigStore -->
<g id="edge23" class="edge">
<title>\\Firesphere\\SolrSearch\\Stores\\PostConfigStore&#45;&gt;\\Firesphere\\SolrSearch\\Interfaces\\ConfigStore</title>
<path fill="none" stroke="#000000" stroke-dasharray="1,5" d="M613.4867,-217.0387C582.2454,-222.3951 543.2453,-228.7487 508.2549,-233.4752 440.1774,-242.671 361.4881,-250.6199 309.9264,-255.4664"/>
<polygon fill="none" stroke="#000000" points="309.2998,-252.0095 299.6682,-256.4233 309.95,-258.9793 309.2998,-252.0095"/>
</g>
<!-- \\Firesphere\\SolrSearch\\Admins\\SearchAdmin -->
<g id="node53" class="node">
<title>\\Firesphere\\SolrSearch\\Admins\\SearchAdmin</title>
<polygon fill="none" stroke="#000000" points="718.2549,-358.4752 627.2549,-358.4752 627.2549,-322.4752 718.2549,-322.4752 718.2549,-358.4752"/>
<text text-anchor="middle" x="672.7549" y="-337.6752" font-family="Courier,monospace" font-size="11.00" fill="#000000">SearchAdmin</text>
</g>
<!-- \\SilverStripe\\Admin\\ModelAdmin -->
<g id="node72" class="node">
<title>\\SilverStripe\\Admin\\ModelAdmin</title>
<ellipse fill="none" stroke="#000000" cx="254.1275" cy="-3424.4752" rx="165.1707" ry="18"/>
<text text-anchor="middle" x="254.1275" y="-3420.7752" font-family="Times,serif" font-size="14.00" fill="#c0c0c0">\SilverStripe\Admin\ModelAdmin</text>
</g>
<!-- \\Firesphere\\SolrSearch\\Admins\\SearchAdmin&#45;&gt;\\SilverStripe\\Admin\\ModelAdmin -->
<g id="edge24" class="edge">
<title>\\Firesphere\\SolrSearch\\Admins\\SearchAdmin&#45;&gt;\\SilverStripe\\Admin\\ModelAdmin</title>
<path fill="none" stroke="#000000" d="M627.0253,-352.3189C606.9894,-359.8978 585.1459,-371.9049 572.2549,-390.4752 390.5501,-652.2312 269.3387,-3103.0423 255.4608,-3395.9021"/>
<polygon fill="none" stroke="#000000" points="251.954,-3395.9659 254.9788,-3406.1197 258.9462,-3396.2958 251.954,-3395.9659"/>
</g>
<!-- \\Firesphere\\SolrFluent\\Extensions\\FluentDocumentExtension -->
<g id="node54" class="node">
<title>\\Firesphere\\SolrFluent\\Extensions\\FluentDocumentExtension</title>
<polygon fill="none" stroke="#000000" points="1012.7549,-776.4752 840.7549,-776.4752 840.7549,-740.4752 1012.7549,-740.4752 1012.7549,-776.4752"/>
<text text-anchor="middle" x="926.7549" y="-755.6752" font-family="Courier,monospace" font-size="11.00" fill="#000000">FluentDocumentExtension</text>
</g>
<!-- \\Firesphere\\SolrFluent\\Extensions\\FluentDocumentExtension&#45;&gt;\\SilverStripe\\Core\\Extension -->
<g id="edge25" class="edge">
<title>\\Firesphere\\SolrFluent\\Extensions\\FluentDocumentExtension&#45;&gt;\\SilverStripe\\Core\\Extension</title>
<path fill="none" stroke="#000000" d="M840.747,-746.8671C833.3488,-742.9652 826.6449,-737.9352 821.2549,-731.4752 740.3328,-634.4874 863.7592,-260.1206 781.2549,-164.4752 748.9961,-127.0782 708.9397,-174.088 672.7549,-140.4752"/>
</g>
<!-- \\Firesphere\\SolrFluent\\Extensions\\FluentIndexExtension -->
<g id="node55" class="node">
<title>\\Firesphere\\SolrFluent\\Extensions\\FluentIndexExtension</title>
<polygon fill="none" stroke="#000000" points="1002.7549,-722.4752 850.7549,-722.4752 850.7549,-686.4752 1002.7549,-686.4752 1002.7549,-722.4752"/>
<text text-anchor="middle" x="926.7549" y="-701.6752" font-family="Courier,monospace" font-size="11.00" fill="#000000">FluentIndexExtension</text>
</g>
<!-- \\Firesphere\\SolrFluent\\Extensions\\FluentIndexExtension&#45;&gt;\\SilverStripe\\Core\\Extension -->
<g id="edge26" class="edge">
<title>\\Firesphere\\SolrFluent\\Extensions\\FluentIndexExtension&#45;&gt;\\SilverStripe\\Core\\Extension</title>
<path fill="none" stroke="#000000" d="M879.1415,-686.4508C857.7901,-675.8253 834.4799,-660.1438 821.2549,-638.4752 766.185,-548.2453 850.8493,-244.0411 781.2549,-164.4752 748.7396,-127.301 708.9397,-174.088 672.7549,-140.4752"/>
<path fill="none" stroke="#000000" d="M672.7549,-140.4752C657.2907,-126.1101 528.3246,-52.01 508.2549,-45.4752 475.4252,-34.7855 439.0725,-28.0998 404.3721,-23.9716"/>
<polygon fill="none" stroke="#000000" points="404.4777,-20.4615 394.1493,-22.8225 403.6957,-27.4177 404.4777,-20.4615"/>
</g>
<!-- \\Firesphere\\SolrFluent\\Extensions\\FluentSchemaExtension -->
<g id="node56" class="node">
<title>\\Firesphere\\SolrFluent\\Extensions\\FluentSchemaExtension</title>
<polygon fill="none" stroke="#000000" points="1005.7549,-830.4752 847.7549,-830.4752 847.7549,-794.4752 1005.7549,-794.4752 1005.7549,-830.4752"/>
<text text-anchor="middle" x="926.7549" y="-809.6752" font-family="Courier,monospace" font-size="11.00" fill="#000000">FluentSchemaExtension</text>
</g>
<!-- \\Firesphere\\SolrFluent\\Extensions\\FluentSchemaExtension&#45;&gt;\\SilverStripe\\Core\\Extension -->
<g id="edge27" class="edge">
<title>\\Firesphere\\SolrFluent\\Extensions\\FluentSchemaExtension&#45;&gt;\\SilverStripe\\Core\\Extension</title>
<path fill="none" stroke="#000000" d="M847.6084,-804.1537C837.4974,-799.9186 828.2543,-793.9164 821.2549,-785.4752 732.9871,-679.0242 871.2594,-269.4619 781.2549,-164.4752 749.1104,-126.9799 708.9397,-174.088 672.7549,-140.4752"/>
</g>
<!-- \\Firesphere\\SolrFluent\\States\\FluentSiteState -->
<g id="node57" class="node">
<title>\\Firesphere\\SolrFluent\\States\\FluentSiteState</title>
<polygon fill="none" stroke="#000000" points="985.7549,-910.4752 867.7549,-910.4752 867.7549,-874.4752 985.7549,-874.4752 985.7549,-910.4752"/>
<text text-anchor="middle" x="926.7549" y="-889.6752" font-family="Courier,monospace" font-size="11.00" fill="#000000">FluentSiteState</text>
</g>
<!-- \\Firesphere\\SolrFluent\\States\\FluentSiteState&#45;&gt;\\Firesphere\\SolrSearch\\Interfaces\\SiteStateInterface -->
<g id="edge29" class="edge">
<title>\\Firesphere\\SolrFluent\\States\\FluentSiteState&#45;&gt;\\Firesphere\\SolrSearch\\Interfaces\\SiteStateInterface</title>
<path fill="none" stroke="#000000" stroke-dasharray="1,5" d="M867.4876,-888.5474C850.0199,-884.3564 832.5734,-876.5869 821.2549,-862.4752 725.7123,-743.3537 888.8981,-284.7861 781.2549,-176.4752 764.2232,-159.3378 692.8139,-182.9436 672.7549,-169.4752"/>
<path fill="none" stroke="#000000" stroke-dasharray="1,5" d="M672.7549,-169.4752C645.303,-151.0428 446.8154,-177.2681 333.2851,-194.1478"/>
<polygon fill="none" stroke="#000000" points="332.6173,-190.7086 323.2449,-195.6491 333.6526,-197.6317 332.6173,-190.7086"/>
</g>
<!-- \\Firesphere\\SolrFluent\\States\\FluentSiteState&#45;&gt;\\Firesphere\\SolrSearch\\States\\SiteState -->
<g id="edge28" class="edge">
<title>\\Firesphere\\SolrFluent\\States\\FluentSiteState&#45;&gt;\\Firesphere\\SolrSearch\\States\\SiteState</title>
<path fill="none" stroke="#000000" d="M867.5237,-888.7441C824.4143,-886.0285 766.5718,-882.3849 725.1427,-879.7752"/>
<polygon fill="none" stroke="#000000" points="725.1827,-876.2708 714.9824,-879.1352 724.7426,-883.257 725.1827,-876.2708"/>
</g>
<!-- \\Firesphere\\SolrSubsites\\Extensions\\SubsitesExtension -->
<g id="node58" class="node">
<title>\\Firesphere\\SolrSubsites\\Extensions\\SubsitesExtension</title>
<polygon fill="none" stroke="#000000" points="992.2549,-1026.4752 861.2549,-1026.4752 861.2549,-990.4752 992.2549,-990.4752 992.2549,-1026.4752"/>
<text text-anchor="middle" x="926.7549" y="-1005.6752" font-family="Courier,monospace" font-size="11.00" fill="#000000">SubsitesExtension</text>
</g>
<!-- \\Firesphere\\SolrSubsites\\Extensions\\SubsitesExtension&#45;&gt;\\SilverStripe\\Core\\Extension -->
<g id="edge30" class="edge">
<title>\\Firesphere\\SolrSubsites\\Extensions\\SubsitesExtension&#45;&gt;\\SilverStripe\\Core\\Extension</title>
<path fill="none" stroke="#000000" d="M878.2804,-990.3675C857.0079,-979.7893 834.0131,-964.1717 821.2549,-942.4752 777.3794,-867.8605 837.1654,-230.554 781.2549,-164.4752 749.354,-126.7725 708.9397,-174.088 672.7549,-140.4752"/>
</g>
<!-- \\Firesphere\\SolrSubsites\\States\\SubsiteState -->
<g id="node59" class="node">
<title>\\Firesphere\\SolrSubsites\\States\\SubsiteState</title>
<polygon fill="none" stroke="#000000" points="975.7549,-1106.4752 877.7549,-1106.4752 877.7549,-1070.4752 975.7549,-1070.4752 975.7549,-1106.4752"/>
<text text-anchor="middle" x="926.7549" y="-1085.6752" font-family="Courier,monospace" font-size="11.00" fill="#000000">SubsiteState</text>
</g>
<!-- \\Firesphere\\SolrSubsites\\States\\SubsiteState&#45;&gt;\\Firesphere\\SolrSearch\\Interfaces\\SiteStateInterface -->
<g id="edge32" class="edge">
<title>\\Firesphere\\SolrSubsites\\States\\SubsiteState&#45;&gt;\\Firesphere\\SolrSearch\\Interfaces\\SiteStateInterface</title>
<path fill="none" stroke="#000000" stroke-dasharray="1,5" d="M877.5482,-1086.6901C856.9256,-1083.2387 834.6683,-1075.422 821.2549,-1058.4752 760.3715,-981.5533 849.9568,-246.5024 781.2549,-176.4752 764.3343,-159.2281 692.8139,-182.9436 672.7549,-169.4752"/>
</g>
<!-- \\Firesphere\\SolrSubsites\\States\\SubsiteState&#45;&gt;\\Firesphere\\SolrSearch\\States\\SiteState -->
<g id="edge31" class="edge">
<title>\\Firesphere\\SolrSubsites\\States\\SubsiteState&#45;&gt;\\Firesphere\\SolrSearch\\States\\SiteState</title>
<path fill="none" stroke="#000000" d="M877.5273,-1084.6596C857.7722,-1080.7624 836.1929,-1073.1586 821.2549,-1058.4752 777.5376,-1015.5028 821.5192,-972.6987 781.2549,-926.4752 766.4366,-909.4637 744.6226,-897.8816 724.4329,-890.1862"/>
<polygon fill="none" stroke="#000000" points="725.5917,-886.8836 714.997,-886.8164 723.2373,-893.4758 725.5917,-886.8836"/>
</g>
<!-- \\Firesphere\\SolrPermissions\\Extensions\\DataObjectExtension -->
<g id="node60" class="node">
<title>\\Firesphere\\SolrPermissions\\Extensions\\DataObjectExtension</title>
<polygon fill="none" stroke="#000000" points="999.2549,-606.4752 854.2549,-606.4752 854.2549,-570.4752 999.2549,-570.4752 999.2549,-606.4752"/>
<text text-anchor="middle" x="926.7549" y="-585.6752" font-family="Courier,monospace" font-size="11.00" fill="#000000">DataObjectExtension</text>
</g>
<!-- \\Firesphere\\SolrPermissions\\Extensions\\DataObjectExtension&#45;&gt;\\SilverStripe\\ORM\\DataExtension -->
<g id="edge33" class="edge">
<title>\\Firesphere\\SolrPermissions\\Extensions\\DataObjectExtension&#45;&gt;\\SilverStripe\\ORM\\DataExtension</title>
<path fill="none" stroke="#000000" d="M854.0027,-582.2261C841.515,-577.98 829.8232,-571.4371 821.2549,-561.4752 705.6153,-427.0275 898.02,-297.9465 781.2549,-164.4752 734.821,-111.3976 558.0573,-88.9181 421.8851,-79.4122"/>
<polygon fill="none" stroke="#000000" points="421.9553,-75.909 411.7409,-78.7226 421.4805,-82.8929 421.9553,-75.909"/>
</g>
<!-- \\Firesphere\\SolrPermissions\\Extensions\\BaseIndexExtension -->
<g id="node61" class="node">
<title>\\Firesphere\\SolrPermissions\\Extensions\\BaseIndexExtension</title>
<polygon fill="none" stroke="#000000" points="995.7549,-552.4752 857.7549,-552.4752 857.7549,-516.4752 995.7549,-516.4752 995.7549,-552.4752"/>
<text text-anchor="middle" x="926.7549" y="-531.6752" font-family="Courier,monospace" font-size="11.00" fill="#000000">BaseIndexExtension</text>
</g>
<!-- \\Firesphere\\SolrPermissions\\Extensions\\BaseIndexExtension&#45;&gt;\\SilverStripe\\Core\\Extension -->
<g id="edge34" class="edge">
<title>\\Firesphere\\SolrPermissions\\Extensions\\BaseIndexExtension&#45;&gt;\\SilverStripe\\Core\\Extension</title>
<path fill="none" stroke="#000000" d="M857.4904,-529.3881C843.6961,-525.2024 830.601,-518.389 821.2549,-507.4752 760.9915,-437.1028 841.4476,-162.908 781.2549,-92.4752 748.8994,-54.6153 716.6475,-88.0057 672.7549,-64.4752"/>
</g>
<!-- \\Firesphere\\SolrPermissions\\Extensions\\SchemaFactoryExtension -->
<g id="node62" class="node">
<title>\\Firesphere\\SolrPermissions\\Extensions\\SchemaFactoryExtension</title>
<polygon fill="none" stroke="#000000" points="1009.2549,-498.4752 844.2549,-498.4752 844.2549,-462.4752 1009.2549,-462.4752 1009.2549,-498.4752"/>
<text text-anchor="middle" x="926.7549" y="-477.6752" font-family="Courier,monospace" font-size="11.00" fill="#000000">SchemaFactoryExtension</text>
</g>
<!-- \\Firesphere\\SolrPermissions\\Extensions\\SchemaFactoryExtension&#45;&gt;\\SilverStripe\\Core\\Extension -->
<g id="edge35" class="edge">
<title>\\Firesphere\\SolrPermissions\\Extensions\\SchemaFactoryExtension&#45;&gt;\\SilverStripe\\Core\\Extension</title>
<path fill="none" stroke="#000000" d="M844.048,-470.1531C835.4065,-466.1033 827.5124,-460.6864 821.2549,-453.4752 714.2992,-330.217 890.2208,-209.9598 781.2549,-88.4752 748.2781,-51.7098 716.2824,-87.81 672.7549,-64.4752"/>
</g>
<!-- \\Firesphere\\SolrPermissions\\Extensions\\DocumentFactoryExtension -->
<g id="node63" class="node">
<title>\\Firesphere\\SolrPermissions\\Extensions\\DocumentFactoryExtension</title>
<polygon fill="none" stroke="#000000" points="1016.2549,-444.4752 837.2549,-444.4752 837.2549,-408.4752 1016.2549,-408.4752 1016.2549,-444.4752"/>
<text text-anchor="middle" x="926.7549" y="-423.6752" font-family="Courier,monospace" font-size="11.00" fill="#000000">DocumentFactoryExtension</text>
</g>
<!-- \\Firesphere\\SolrPermissions\\Extensions\\DocumentFactoryExtension&#45;&gt;\\SilverStripe\\Core\\Extension -->
<g id="edge36" class="edge">
<title>\\Firesphere\\SolrPermissions\\Extensions\\DocumentFactoryExtension&#45;&gt;\\SilverStripe\\Core\\Extension</title>
<path fill="none" stroke="#000000" d="M880.2653,-408.3552C858.9063,-397.6378 835.2615,-381.9056 821.2549,-360.4752 754.4057,-258.1944 864.5042,-177.9164 781.2549,-88.4752 747.6062,-52.3237 716.2824,-87.81 672.7549,-64.4752"/>
</g>
</g>
</svg>
