<?xml version="1.0" encoding="UTF-8" standalone="no"?>
<!DOCTYPE svg PUBLIC "-//W3C//DTD SVG 1.1//EN"
 "http://www.w3.org/Graphics/SVG/1.1/DTD/svg11.dtd">
<!-- Generated by graphviz version 2.40.1 (20161225.0304)
 -->
<!-- Title: G Pages: 1 -->
<svg width="984pt" height="3895pt"
 viewBox="0.00 0.00 984.25 3894.83" xmlns="http://www.w3.org/2000/svg" xmlns:xlink="http://www.w3.org/1999/xlink">
<g id="graph0" class="graph" transform="scale(1 1) rotate(0) translate(4 3890.8328)">
<title>G</title>
<polygon fill="#ffffff" stroke="transparent" points="-4,4 -4,-3890.8328 980.2549,-3890.8328 980.2549,4 -4,4"/>
<g id="clust1" class="cluster">
<title>cluster_Global</title>
<path fill="none" stroke="#c0c0c0" d="M165.1275,-476.8328C165.1275,-476.8328 956.2549,-476.8328 956.2549,-476.8328 962.2549,-476.8328 968.2549,-482.8328 968.2549,-488.8328 968.2549,-488.8328 968.2549,-3866.8328 968.2549,-3866.8328 968.2549,-3872.8328 962.2549,-3878.8328 956.2549,-3878.8328 956.2549,-3878.8328 165.1275,-3878.8328 165.1275,-3878.8328 159.1275,-3878.8328 153.1275,-3872.8328 153.1275,-3866.8328 153.1275,-3866.8328 153.1275,-488.8328 153.1275,-488.8328 153.1275,-482.8328 159.1275,-476.8328 165.1275,-476.8328"/>
<text text-anchor="middle" x="560.6912" y="-3866.0328" font-family="Times,serif" font-size="11.00" fill="#c0c0c0">Global</text>
</g>
<g id="clust2" class="cluster">
<title>cluster_\SilverStripe</title>
<path fill="none" stroke="#c0c0c0" d="M817.2549,-2799.8328C817.2549,-2799.8328 948.2549,-2799.8328 948.2549,-2799.8328 954.2549,-2799.8328 960.2549,-2805.8328 960.2549,-2811.8328 960.2549,-2811.8328 960.2549,-3101.8328 960.2549,-3101.8328 960.2549,-3107.8328 954.2549,-3113.8328 948.2549,-3113.8328 948.2549,-3113.8328 817.2549,-3113.8328 817.2549,-3113.8328 811.2549,-3113.8328 805.2549,-3107.8328 805.2549,-3101.8328 805.2549,-3101.8328 805.2549,-2811.8328 805.2549,-2811.8328 805.2549,-2805.8328 811.2549,-2799.8328 817.2549,-2799.8328"/>
<text text-anchor="middle" x="882.7549" y="-3101.0328" font-family="Times,serif" font-size="11.00" fill="#c0c0c0">SilverStripe</text>
</g>
<g id="clust3" class="cluster">
<title>cluster_\SilverStripe\FullTextSearch</title>
<path fill="none" stroke="#c0c0c0" d="M825.2549,-2807.8328C825.2549,-2807.8328 940.2549,-2807.8328 940.2549,-2807.8328 946.2549,-2807.8328 952.2549,-2813.8328 952.2549,-2819.8328 952.2549,-2819.8328 952.2549,-3073.8328 952.2549,-3073.8328 952.2549,-3079.8328 946.2549,-3085.8328 940.2549,-3085.8328 940.2549,-3085.8328 825.2549,-3085.8328 825.2549,-3085.8328 819.2549,-3085.8328 813.2549,-3079.8328 813.2549,-3073.8328 813.2549,-3073.8328 813.2549,-2819.8328 813.2549,-2819.8328 813.2549,-2813.8328 819.2549,-2807.8328 825.2549,-2807.8328"/>
<text text-anchor="middle" x="882.7549" y="-3073.0328" font-family="Times,serif" font-size="11.00" fill="#c0c0c0">FullTextSearch</text>
</g>
<g id="clust4" class="cluster">
<title>cluster_\SilverStripe\FullTextSearch\Solr</title>
<path fill="none" stroke="#c0c0c0" d="M844.7549,-2931.8328C844.7549,-2931.8328 920.7549,-2931.8328 920.7549,-2931.8328 926.7549,-2931.8328 932.7549,-2937.8328 932.7549,-2943.8328 932.7549,-2943.8328 932.7549,-3045.8328 932.7549,-3045.8328 932.7549,-3051.8328 926.7549,-3057.8328 920.7549,-3057.8328 920.7549,-3057.8328 844.7549,-3057.8328 844.7549,-3057.8328 838.7549,-3057.8328 832.7549,-3051.8328 832.7549,-3045.8328 832.7549,-3045.8328 832.7549,-2943.8328 832.7549,-2943.8328 832.7549,-2937.8328 838.7549,-2931.8328 844.7549,-2931.8328"/>
<text text-anchor="middle" x="882.7549" y="-3045.0328" font-family="Times,serif" font-size="11.00" fill="#c0c0c0">Solr</text>
</g>
<g id="clust5" class="cluster">
<title>cluster_\SilverStripe\FullTextSearch\Search</title>
<path fill="none" stroke="#c0c0c0" d="M833.2549,-2815.8328C833.2549,-2815.8328 932.2549,-2815.8328 932.2549,-2815.8328 938.2549,-2815.8328 944.2549,-2821.8328 944.2549,-2827.8328 944.2549,-2827.8328 944.2549,-2911.8328 944.2549,-2911.8328 944.2549,-2917.8328 938.2549,-2923.8328 932.2549,-2923.8328 932.2549,-2923.8328 833.2549,-2923.8328 833.2549,-2923.8328 827.2549,-2923.8328 821.2549,-2917.8328 821.2549,-2911.8328 821.2549,-2911.8328 821.2549,-2827.8328 821.2549,-2827.8328 821.2549,-2821.8328 827.2549,-2815.8328 833.2549,-2815.8328"/>
<text text-anchor="middle" x="882.7549" y="-2911.0328" font-family="Times,serif" font-size="11.00" fill="#c0c0c0">Search</text>
</g>
<g id="clust6" class="cluster">
<title>cluster_\SilverStripe\FullTextSearch\Search\Queries</title>
<path fill="none" stroke="#c0c0c0" d="M841.2549,-2823.8328C841.2549,-2823.8328 924.2549,-2823.8328 924.2549,-2823.8328 930.2549,-2823.8328 936.2549,-2829.8328 936.2549,-2835.8328 936.2549,-2835.8328 936.2549,-2883.8328 936.2549,-2883.8328 936.2549,-2889.8328 930.2549,-2895.8328 924.2549,-2895.8328 924.2549,-2895.8328 841.2549,-2895.8328 841.2549,-2895.8328 835.2549,-2895.8328 829.2549,-2889.8328 829.2549,-2883.8328 829.2549,-2883.8328 829.2549,-2835.8328 829.2549,-2835.8328 829.2549,-2829.8328 835.2549,-2823.8328 841.2549,-2823.8328"/>
<text text-anchor="middle" x="882.7549" y="-2883.0328" font-family="Times,serif" font-size="11.00" fill="#c0c0c0">Queries</text>
</g>
<g id="clust7" class="cluster">
<title>cluster_\Firesphere</title>
<path fill="none" stroke="#c0c0c0" d="M173.1275,-484.8328C173.1275,-484.8328 777.2549,-484.8328 777.2549,-484.8328 783.2549,-484.8328 789.2549,-490.8328 789.2549,-496.8328 789.2549,-496.8328 789.2549,-3838.8328 789.2549,-3838.8328 789.2549,-3844.8328 783.2549,-3850.8328 777.2549,-3850.8328 777.2549,-3850.8328 173.1275,-3850.8328 173.1275,-3850.8328 167.1275,-3850.8328 161.1275,-3844.8328 161.1275,-3838.8328 161.1275,-3838.8328 161.1275,-496.8328 161.1275,-496.8328 161.1275,-490.8328 167.1275,-484.8328 173.1275,-484.8328"/>
<text text-anchor="middle" x="475.1912" y="-3838.0328" font-family="Times,serif" font-size="11.00" fill="#c0c0c0">Firesphere</text>
</g>
<g id="clust8" class="cluster">
<title>cluster_\Firesphere\SolrCompatibility</title>
<path fill="none" stroke="#c0c0c0" d="M582.7549,-778.8328C582.7549,-778.8328 762.7549,-778.8328 762.7549,-778.8328 768.7549,-778.8328 774.7549,-784.8328 774.7549,-790.8328 774.7549,-790.8328 774.7549,-874.8328 774.7549,-874.8328 774.7549,-880.8328 768.7549,-886.8328 762.7549,-886.8328 762.7549,-886.8328 582.7549,-886.8328 582.7549,-886.8328 576.7549,-886.8328 570.7549,-880.8328 570.7549,-874.8328 570.7549,-874.8328 570.7549,-790.8328 570.7549,-790.8328 570.7549,-784.8328 576.7549,-778.8328 582.7549,-778.8328"/>
<text text-anchor="middle" x="672.7549" y="-874.0328" font-family="Times,serif" font-size="11.00" fill="#c0c0c0">SolrCompatibility</text>
</g>
<g id="clust9" class="cluster">
<title>cluster_\Firesphere\SolrCompatibility\Extensions</title>
<path fill="none" stroke="#c0c0c0" d="M590.7549,-786.8328C590.7549,-786.8328 754.7549,-786.8328 754.7549,-786.8328 760.7549,-786.8328 766.7549,-792.8328 766.7549,-798.8328 766.7549,-798.8328 766.7549,-846.8328 766.7549,-846.8328 766.7549,-852.8328 760.7549,-858.8328 754.7549,-858.8328 754.7549,-858.8328 590.7549,-858.8328 590.7549,-858.8328 584.7549,-858.8328 578.7549,-852.8328 578.7549,-846.8328 578.7549,-846.8328 578.7549,-798.8328 578.7549,-798.8328 578.7549,-792.8328 584.7549,-786.8328 590.7549,-786.8328"/>
<text text-anchor="middle" x="672.7549" y="-846.0328" font-family="Times,serif" font-size="11.00" fill="#c0c0c0">Extensions</text>
</g>
<g id="clust10" class="cluster">
<title>cluster_\Firesphere\SolrSearch</title>
<path fill="none" stroke="#c0c0c0" d="M181.1275,-894.8328C181.1275,-894.8328 769.2549,-894.8328 769.2549,-894.8328 775.2549,-894.8328 781.2549,-900.8328 781.2549,-906.8328 781.2549,-906.8328 781.2549,-3810.8328 781.2549,-3810.8328 781.2549,-3816.8328 775.2549,-3822.8328 769.2549,-3822.8328 769.2549,-3822.8328 181.1275,-3822.8328 181.1275,-3822.8328 175.1275,-3822.8328 169.1275,-3816.8328 169.1275,-3810.8328 169.1275,-3810.8328 169.1275,-906.8328 169.1275,-906.8328 169.1275,-900.8328 175.1275,-894.8328 181.1275,-894.8328"/>
<text text-anchor="middle" x="475.1912" y="-3810.0328" font-family="Times,serif" font-size="11.00" fill="#c0c0c0">SolrSearch</text>
</g>
<g id="clust11" class="cluster">
<title>cluster_\Firesphere\SolrSearch\Factories</title>
<path fill="none" stroke="#c0c0c0" d="M597.7549,-3668.8328C597.7549,-3668.8328 747.7549,-3668.8328 747.7549,-3668.8328 753.7549,-3668.8328 759.7549,-3674.8328 759.7549,-3680.8328 759.7549,-3680.8328 759.7549,-3782.8328 759.7549,-3782.8328 759.7549,-3788.8328 753.7549,-3794.8328 747.7549,-3794.8328 747.7549,-3794.8328 597.7549,-3794.8328 597.7549,-3794.8328 591.7549,-3794.8328 585.7549,-3788.8328 585.7549,-3782.8328 585.7549,-3782.8328 585.7549,-3680.8328 585.7549,-3680.8328 585.7549,-3674.8328 591.7549,-3668.8328 597.7549,-3668.8328"/>
<text text-anchor="middle" x="672.7549" y="-3782.0328" font-family="Times,serif" font-size="11.00" fill="#c0c0c0">Factories</text>
</g>
<g id="clust12" class="cluster">
<title>cluster_\Firesphere\SolrSearch\Results</title>
<path fill="none" stroke="#c0c0c0" d="M627.7549,-3588.8328C627.7549,-3588.8328 717.7549,-3588.8328 717.7549,-3588.8328 723.7549,-3588.8328 729.7549,-3594.8328 729.7549,-3600.8328 729.7549,-3600.8328 729.7549,-3648.8328 729.7549,-3648.8328 729.7549,-3654.8328 723.7549,-3660.8328 717.7549,-3660.8328 717.7549,-3660.8328 627.7549,-3660.8328 627.7549,-3660.8328 621.7549,-3660.8328 615.7549,-3654.8328 615.7549,-3648.8328 615.7549,-3648.8328 615.7549,-3600.8328 615.7549,-3600.8328 615.7549,-3594.8328 621.7549,-3588.8328 627.7549,-3588.8328"/>
<text text-anchor="middle" x="672.7549" y="-3648.0328" font-family="Times,serif" font-size="11.00" fill="#c0c0c0">Results</text>
</g>
<g id="clust13" class="cluster">
<title>cluster_\Firesphere\SolrSearch\Helpers</title>
<path fill="none" stroke="#c0c0c0" d="M624.7549,-3292.8328C624.7549,-3292.8328 720.7549,-3292.8328 720.7549,-3292.8328 726.7549,-3292.8328 732.7549,-3298.8328 732.7549,-3304.8328 732.7549,-3304.8328 732.7549,-3568.8328 732.7549,-3568.8328 732.7549,-3574.8328 726.7549,-3580.8328 720.7549,-3580.8328 720.7549,-3580.8328 624.7549,-3580.8328 624.7549,-3580.8328 618.7549,-3580.8328 612.7549,-3574.8328 612.7549,-3568.8328 612.7549,-3568.8328 612.7549,-3304.8328 612.7549,-3304.8328 612.7549,-3298.8328 618.7549,-3292.8328 624.7549,-3292.8328"/>
<text text-anchor="middle" x="672.7549" y="-3568.0328" font-family="Times,serif" font-size="11.00" fill="#c0c0c0">Helpers</text>
</g>
<g id="clust14" class="cluster">
<title>cluster_\Firesphere\SolrSearch\Models</title>
<path fill="none" stroke="#c0c0c0" d="M624.7549,-3104.8328C624.7549,-3104.8328 720.7549,-3104.8328 720.7549,-3104.8328 726.7549,-3104.8328 732.7549,-3110.8328 732.7549,-3116.8328 732.7549,-3116.8328 732.7549,-3272.8328 732.7549,-3272.8328 732.7549,-3278.8328 726.7549,-3284.8328 720.7549,-3284.8328 720.7549,-3284.8328 624.7549,-3284.8328 624.7549,-3284.8328 618.7549,-3284.8328 612.7549,-3278.8328 612.7549,-3272.8328 612.7549,-3272.8328 612.7549,-3116.8328 612.7549,-3116.8328 612.7549,-3110.8328 618.7549,-3104.8328 624.7549,-3104.8328"/>
<text text-anchor="middle" x="672.7549" y="-3272.0328" font-family="Times,serif" font-size="11.00" fill="#c0c0c0">Models</text>
</g>
<g id="clust15" class="cluster">
<title>cluster_\Firesphere\SolrSearch\Forms</title>
<path fill="none" stroke="#c0c0c0" d="M634.7549,-3024.8328C634.7549,-3024.8328 710.7549,-3024.8328 710.7549,-3024.8328 716.7549,-3024.8328 722.7549,-3030.8328 722.7549,-3036.8328 722.7549,-3036.8328 722.7549,-3084.8328 722.7549,-3084.8328 722.7549,-3090.8328 716.7549,-3096.8328 710.7549,-3096.8328 710.7549,-3096.8328 634.7549,-3096.8328 634.7549,-3096.8328 628.7549,-3096.8328 622.7549,-3090.8328 622.7549,-3084.8328 622.7549,-3084.8328 622.7549,-3036.8328 622.7549,-3036.8328 622.7549,-3030.8328 628.7549,-3024.8328 634.7549,-3024.8328"/>
<text text-anchor="middle" x="672.7549" y="-3084.0328" font-family="Times,serif" font-size="11.00" fill="#c0c0c0">Forms</text>
</g>
<g id="clust16" class="cluster">
<title>cluster_\Firesphere\SolrSearch\Queries</title>
<path fill="none" stroke="#c0c0c0" d="M638.2549,-2864.8328C638.2549,-2864.8328 707.2549,-2864.8328 707.2549,-2864.8328 713.2549,-2864.8328 719.2549,-2870.8328 719.2549,-2876.8328 719.2549,-2876.8328 719.2549,-2924.8328 719.2549,-2924.8328 719.2549,-2930.8328 713.2549,-2936.8328 707.2549,-2936.8328 707.2549,-2936.8328 638.2549,-2936.8328 638.2549,-2936.8328 632.2549,-2936.8328 626.2549,-2930.8328 626.2549,-2924.8328 626.2549,-2924.8328 626.2549,-2876.8328 626.2549,-2876.8328 626.2549,-2870.8328 632.2549,-2864.8328 638.2549,-2864.8328"/>
<text text-anchor="middle" x="672.7549" y="-2924.0328" font-family="Times,serif" font-size="11.00" fill="#c0c0c0">Queries</text>
</g>
<g id="clust17" class="cluster">
<title>cluster_\Firesphere\SolrSearch\Indexes</title>
<path fill="none" stroke="#c0c0c0" d="M634.7549,-2944.8328C634.7549,-2944.8328 710.7549,-2944.8328 710.7549,-2944.8328 716.7549,-2944.8328 722.7549,-2950.8328 722.7549,-2956.8328 722.7549,-2956.8328 722.7549,-3004.8328 722.7549,-3004.8328 722.7549,-3010.8328 716.7549,-3016.8328 710.7549,-3016.8328 710.7549,-3016.8328 634.7549,-3016.8328 634.7549,-3016.8328 628.7549,-3016.8328 622.7549,-3010.8328 622.7549,-3004.8328 622.7549,-3004.8328 622.7549,-2956.8328 622.7549,-2956.8328 622.7549,-2950.8328 628.7549,-2944.8328 634.7549,-2944.8328"/>
<text text-anchor="middle" x="672.7549" y="-3004.0328" font-family="Times,serif" font-size="11.00" fill="#c0c0c0">Indexes</text>
</g>
<g id="clust18" class="cluster">
<title>cluster_\Firesphere\SolrSearch\Stores</title>
<path fill="none" stroke="#c0c0c0" d="M617.7549,-2730.8328C617.7549,-2730.8328 727.7549,-2730.8328 727.7549,-2730.8328 733.7549,-2730.8328 739.7549,-2736.8328 739.7549,-2742.8328 739.7549,-2742.8328 739.7549,-2844.8328 739.7549,-2844.8328 739.7549,-2850.8328 733.7549,-2856.8328 727.7549,-2856.8328 727.7549,-2856.8328 617.7549,-2856.8328 617.7549,-2856.8328 611.7549,-2856.8328 605.7549,-2850.8328 605.7549,-2844.8328 605.7549,-2844.8328 605.7549,-2742.8328 605.7549,-2742.8328 605.7549,-2736.8328 611.7549,-2730.8328 617.7549,-2730.8328"/>
<text text-anchor="middle" x="672.7549" y="-2844.0328" font-family="Times,serif" font-size="11.00" fill="#c0c0c0">Stores</text>
</g>
<g id="clust19" class="cluster">
<title>cluster_\Firesphere\SolrSearch\Tasks</title>
<path fill="none" stroke="#c0c0c0" d="M597.7549,-2488.8328C597.7549,-2488.8328 747.7549,-2488.8328 747.7549,-2488.8328 753.7549,-2488.8328 759.7549,-2494.8328 759.7549,-2500.8328 759.7549,-2500.8328 759.7549,-2710.8328 759.7549,-2710.8328 759.7549,-2716.8328 753.7549,-2722.8328 747.7549,-2722.8328 747.7549,-2722.8328 597.7549,-2722.8328 597.7549,-2722.8328 591.7549,-2722.8328 585.7549,-2716.8328 585.7549,-2710.8328 585.7549,-2710.8328 585.7549,-2500.8328 585.7549,-2500.8328 585.7549,-2494.8328 591.7549,-2488.8328 597.7549,-2488.8328"/>
<text text-anchor="middle" x="672.7549" y="-2710.0328" font-family="Times,serif" font-size="11.00" fill="#c0c0c0">Tasks</text>
</g>
<g id="clust20" class="cluster">
<title>cluster_\Firesphere\SolrSearch\Admins</title>
<path fill="none" stroke="#c0c0c0" d="M631.2549,-2408.8328C631.2549,-2408.8328 714.2549,-2408.8328 714.2549,-2408.8328 720.2549,-2408.8328 726.2549,-2414.8328 726.2549,-2420.8328 726.2549,-2420.8328 726.2549,-2468.8328 726.2549,-2468.8328 726.2549,-2474.8328 720.2549,-2480.8328 714.2549,-2480.8328 714.2549,-2480.8328 631.2549,-2480.8328 631.2549,-2480.8328 625.2549,-2480.8328 619.2549,-2474.8328 619.2549,-2468.8328 619.2549,-2468.8328 619.2549,-2420.8328 619.2549,-2420.8328 619.2549,-2414.8328 625.2549,-2408.8328 631.2549,-2408.8328"/>
<text text-anchor="middle" x="672.7549" y="-2468.0328" font-family="Times,serif" font-size="11.00" fill="#c0c0c0">Admins</text>
</g>
<g id="clust21" class="cluster">
<title>cluster_\Firesphere\SolrSearch\Services</title>
<path fill="none" stroke="#c0c0c0" d="M617.7549,-2274.8328C617.7549,-2274.8328 727.7549,-2274.8328 727.7549,-2274.8328 733.7549,-2274.8328 739.7549,-2280.8328 739.7549,-2286.8328 739.7549,-2286.8328 739.7549,-2388.8328 739.7549,-2388.8328 739.7549,-2394.8328 733.7549,-2400.8328 727.7549,-2400.8328 727.7549,-2400.8328 617.7549,-2400.8328 617.7549,-2400.8328 611.7549,-2400.8328 605.7549,-2394.8328 605.7549,-2388.8328 605.7549,-2388.8328 605.7549,-2286.8328 605.7549,-2286.8328 605.7549,-2280.8328 611.7549,-2274.8328 617.7549,-2274.8328"/>
<text text-anchor="middle" x="672.7549" y="-2388.0328" font-family="Times,serif" font-size="11.00" fill="#c0c0c0">Services</text>
</g>
<g id="clust22" class="cluster">
<title>cluster_\Firesphere\SolrSearch\Extensions</title>
<path fill="none" stroke="#c0c0c0" d="M604.2549,-2140.8328C604.2549,-2140.8328 741.2549,-2140.8328 741.2549,-2140.8328 747.2549,-2140.8328 753.2549,-2146.8328 753.2549,-2152.8328 753.2549,-2152.8328 753.2549,-2254.8328 753.2549,-2254.8328 753.2549,-2260.8328 747.2549,-2266.8328 741.2549,-2266.8328 741.2549,-2266.8328 604.2549,-2266.8328 604.2549,-2266.8328 598.2549,-2266.8328 592.2549,-2260.8328 592.2549,-2254.8328 592.2549,-2254.8328 592.2549,-2152.8328 592.2549,-2152.8328 592.2549,-2146.8328 598.2549,-2140.8328 604.2549,-2140.8328"/>
<text text-anchor="middle" x="672.7549" y="-2254.0328" font-family="Times,serif" font-size="11.00" fill="#c0c0c0">Extensions</text>
</g>
<g id="clust23" class="cluster">
<title>cluster_\Firesphere\SolrSearch\Interfaces</title>
<path fill="none" stroke="#c0c0c0" d="M189.1275,-2757.8328C189.1275,-2757.8328 319.1275,-2757.8328 319.1275,-2757.8328 325.1275,-2757.8328 331.1275,-2763.8328 331.1275,-2769.8328 331.1275,-2769.8328 331.1275,-2871.8328 331.1275,-2871.8328 331.1275,-2877.8328 325.1275,-2883.8328 319.1275,-2883.8328 319.1275,-2883.8328 189.1275,-2883.8328 189.1275,-2883.8328 183.1275,-2883.8328 177.1275,-2877.8328 177.1275,-2871.8328 177.1275,-2871.8328 177.1275,-2769.8328 177.1275,-2769.8328 177.1275,-2763.8328 183.1275,-2757.8328 189.1275,-2757.8328"/>
<text text-anchor="middle" x="254.1275" y="-2871.0328" font-family="Times,serif" font-size="11.00" fill="#c0c0c0">Interfaces</text>
</g>
<g id="clust24" class="cluster">
<title>cluster_\Firesphere\SolrSearch\Jobs</title>
<path fill="none" stroke="#c0c0c0" d="M600.7549,-1952.8328C600.7549,-1952.8328 744.7549,-1952.8328 744.7549,-1952.8328 750.7549,-1952.8328 756.7549,-1958.8328 756.7549,-1964.8328 756.7549,-1964.8328 756.7549,-2120.8328 756.7549,-2120.8328 756.7549,-2126.8328 750.7549,-2132.8328 744.7549,-2132.8328 744.7549,-2132.8328 600.7549,-2132.8328 600.7549,-2132.8328 594.7549,-2132.8328 588.7549,-2126.8328 588.7549,-2120.8328 588.7549,-2120.8328 588.7549,-1964.8328 588.7549,-1964.8328 588.7549,-1958.8328 594.7549,-1952.8328 600.7549,-1952.8328"/>
<text text-anchor="middle" x="672.7549" y="-2120.0328" font-family="Times,serif" font-size="11.00" fill="#c0c0c0">Jobs</text>
</g>
<g id="clust25" class="cluster">
<title>cluster_\Firesphere\SolrSearch\States</title>
<path fill="none" stroke="#c0c0c0" d="M634.7549,-1872.8328C634.7549,-1872.8328 710.7549,-1872.8328 710.7549,-1872.8328 716.7549,-1872.8328 722.7549,-1878.8328 722.7549,-1884.8328 722.7549,-1884.8328 722.7549,-1932.8328 722.7549,-1932.8328 722.7549,-1938.8328 716.7549,-1944.8328 710.7549,-1944.8328 710.7549,-1944.8328 634.7549,-1944.8328 634.7549,-1944.8328 628.7549,-1944.8328 622.7549,-1938.8328 622.7549,-1932.8328 622.7549,-1932.8328 622.7549,-1884.8328 622.7549,-1884.8328 622.7549,-1878.8328 628.7549,-1872.8328 634.7549,-1872.8328"/>
<text text-anchor="middle" x="672.7549" y="-1932.0328" font-family="Times,serif" font-size="11.00" fill="#c0c0c0">States</text>
</g>
<g id="clust26" class="cluster">
<title>cluster_\Firesphere\SolrSearch\Traits</title>
<path fill="none" stroke="#c0c0c0" d="M584.2549,-982.8328C584.2549,-982.8328 761.2549,-982.8328 761.2549,-982.8328 767.2549,-982.8328 773.2549,-988.8328 773.2549,-994.8328 773.2549,-994.8328 773.2549,-1852.8328 773.2549,-1852.8328 773.2549,-1858.8328 767.2549,-1864.8328 761.2549,-1864.8328 761.2549,-1864.8328 584.2549,-1864.8328 584.2549,-1864.8328 578.2549,-1864.8328 572.2549,-1858.8328 572.2549,-1852.8328 572.2549,-1852.8328 572.2549,-994.8328 572.2549,-994.8328 572.2549,-988.8328 578.2549,-982.8328 584.2549,-982.8328"/>
<text text-anchor="middle" x="672.7549" y="-1852.0328" font-family="Times,serif" font-size="11.00" fill="#c0c0c0">Traits</text>
</g>
<g id="clust27" class="cluster">
<title>cluster_\Firesphere\SolrSearch\Subsites</title>
<path fill="none" stroke="#c0c0c0" d="M611.2549,-902.8328C611.2549,-902.8328 734.2549,-902.8328 734.2549,-902.8328 740.2549,-902.8328 746.2549,-908.8328 746.2549,-914.8328 746.2549,-914.8328 746.2549,-962.8328 746.2549,-962.8328 746.2549,-968.8328 740.2549,-974.8328 734.2549,-974.8328 734.2549,-974.8328 611.2549,-974.8328 611.2549,-974.8328 605.2549,-974.8328 599.2549,-968.8328 599.2549,-962.8328 599.2549,-962.8328 599.2549,-914.8328 599.2549,-914.8328 599.2549,-908.8328 605.2549,-902.8328 611.2549,-902.8328"/>
<text text-anchor="middle" x="672.7549" y="-962.0328" font-family="Times,serif" font-size="11.00" fill="#c0c0c0">Subsites</text>
</g>
<g id="clust28" class="cluster">
<title>cluster_\Firesphere\SolrFluent</title>
<path fill="none" stroke="#c0c0c0" d="M609.7549,-662.8328C609.7549,-662.8328 735.7549,-662.8328 735.7549,-662.8328 741.7549,-662.8328 747.7549,-668.8328 747.7549,-674.8328 747.7549,-674.8328 747.7549,-758.8328 747.7549,-758.8328 747.7549,-764.8328 741.7549,-770.8328 735.7549,-770.8328 735.7549,-770.8328 609.7549,-770.8328 609.7549,-770.8328 603.7549,-770.8328 597.7549,-764.8328 597.7549,-758.8328 597.7549,-758.8328 597.7549,-674.8328 597.7549,-674.8328 597.7549,-668.8328 603.7549,-662.8328 609.7549,-662.8328"/>
<text text-anchor="middle" x="672.7549" y="-758.0328" font-family="Times,serif" font-size="11.00" fill="#c0c0c0">SolrFluent</text>
</g>
<g id="clust29" class="cluster">
<title>cluster_\Firesphere\SolrFluent\Extensions</title>
<path fill="none" stroke="#c0c0c0" d="M617.7549,-670.8328C617.7549,-670.8328 727.7549,-670.8328 727.7549,-670.8328 733.7549,-670.8328 739.7549,-676.8328 739.7549,-682.8328 739.7549,-682.8328 739.7549,-730.8328 739.7549,-730.8328 739.7549,-736.8328 733.7549,-742.8328 727.7549,-742.8328 727.7549,-742.8328 617.7549,-742.8328 617.7549,-742.8328 611.7549,-742.8328 605.7549,-736.8328 605.7549,-730.8328 605.7549,-730.8328 605.7549,-682.8328 605.7549,-682.8328 605.7549,-676.8328 611.7549,-670.8328 617.7549,-670.8328"/>
<text text-anchor="middle" x="672.7549" y="-730.0328" font-family="Times,serif" font-size="11.00" fill="#c0c0c0">Extensions</text>
</g>
<g id="clust30" class="cluster">
<title>cluster_\Firesphere\SolrPermissions</title>
<path fill="none" stroke="#c0c0c0" d="M596.2549,-492.8328C596.2549,-492.8328 749.2549,-492.8328 749.2549,-492.8328 755.2549,-492.8328 761.2549,-498.8328 761.2549,-504.8328 761.2549,-504.8328 761.2549,-642.8328 761.2549,-642.8328 761.2549,-648.8328 755.2549,-654.8328 749.2549,-654.8328 749.2549,-654.8328 596.2549,-654.8328 596.2549,-654.8328 590.2549,-654.8328 584.2549,-648.8328 584.2549,-642.8328 584.2549,-642.8328 584.2549,-504.8328 584.2549,-504.8328 584.2549,-498.8328 590.2549,-492.8328 596.2549,-492.8328"/>
<text text-anchor="middle" x="672.7549" y="-642.0328" font-family="Times,serif" font-size="11.00" fill="#c0c0c0">SolrPermissions</text>
</g>
<g id="clust31" class="cluster">
<title>cluster_\Firesphere\SolrPermissions\Extensions</title>
<path fill="none" stroke="#c0c0c0" d="M604.2549,-500.8328C604.2549,-500.8328 741.2549,-500.8328 741.2549,-500.8328 747.2549,-500.8328 753.2549,-506.8328 753.2549,-512.8328 753.2549,-512.8328 753.2549,-614.8328 753.2549,-614.8328 753.2549,-620.8328 747.2549,-626.8328 741.2549,-626.8328 741.2549,-626.8328 604.2549,-626.8328 604.2549,-626.8328 598.2549,-626.8328 592.2549,-620.8328 592.2549,-614.8328 592.2549,-614.8328 592.2549,-512.8328 592.2549,-512.8328 592.2549,-506.8328 598.2549,-500.8328 604.2549,-500.8328"/>
<text text-anchor="middle" x="672.7549" y="-614.0328" font-family="Times,serif" font-size="11.00" fill="#c0c0c0">Extensions</text>
</g>
<!-- \\SilverStripe\\FullTextSearch\\Solr\\SolrIndex -->
<g id="node1" class="node">
<title>\\SilverStripe\\FullTextSearch\\Solr\\SolrIndex</title>
<polygon fill="none" stroke="#000000" points="924.7549,-3029.8328 840.7549,-3029.8328 840.7549,-2993.8328 924.7549,-2993.8328 924.7549,-3029.8328"/>
<text text-anchor="start" x="848.7549" y="-3015.0328" font-family="Courier,monospace" font-size="11.00" fill="#000000">«abstract»</text>
<text text-anchor="start" x="852.2549" y="-3003.0328" font-family="Courier,monospace" font-size="11.00" fill="#000000">SolrIndex</text>
</g>
<!-- \\Firesphere\\SolrSearch\\Indexes\\BaseIndex -->
<g id="node18" class="node">
<title>\\Firesphere\\SolrSearch\\Indexes\\BaseIndex</title>
<polygon fill="none" stroke="#000000" points="714.7549,-2988.8328 630.7549,-2988.8328 630.7549,-2952.8328 714.7549,-2952.8328 714.7549,-2988.8328"/>
<text text-anchor="start" x="638.7549" y="-2974.0328" font-family="Courier,monospace" font-size="11.00" fill="#000000">«abstract»</text>
<text text-anchor="start" x="642.2549" y="-2962.0328" font-family="Courier,monospace" font-size="11.00" fill="#000000">BaseIndex</text>
</g>
<!-- \\SilverStripe\\FullTextSearch\\Solr\\SolrIndex&#45;&gt;\\Firesphere\\SolrSearch\\Indexes\\BaseIndex -->
<g id="edge1" class="edge">
<title>\\SilverStripe\\FullTextSearch\\Solr\\SolrIndex&#45;&gt;\\Firesphere\\SolrSearch\\Indexes\\BaseIndex</title>
<path fill="none" stroke="#000000" d="M840.5109,-3003.5852C807.2624,-2997.0938 760.7535,-2988.0135 725.1371,-2981.0598"/>
<polygon fill="none" stroke="#000000" points="725.4168,-2977.5484 714.9314,-2979.0673 724.0754,-2984.4187 725.4168,-2977.5484"/>
</g>
<!-- \\SilverStripe\\FullTextSearch\\Solr\\Solr -->
<g id="node2" class="node">
<title>\\SilverStripe\\FullTextSearch\\Solr\\Solr</title>
<polygon fill="none" stroke="#000000" points="909.7549,-2975.8328 855.7549,-2975.8328 855.7549,-2939.8328 909.7549,-2939.8328 909.7549,-2975.8328"/>
<text text-anchor="middle" x="882.7549" y="-2955.0328" font-family="Courier,monospace" font-size="11.00" fill="#000000">Solr</text>
</g>
<!-- \\SilverStripe\\FullTextSearch\\Search\\Queries\\SearchQuery -->
<g id="node3" class="node">
<title>\\SilverStripe\\FullTextSearch\\Search\\Queries\\SearchQuery</title>
<polygon fill="none" stroke="#000000" points="928.2549,-2867.8328 837.2549,-2867.8328 837.2549,-2831.8328 928.2549,-2831.8328 928.2549,-2867.8328"/>
<text text-anchor="middle" x="882.7549" y="-2847.0328" font-family="Courier,monospace" font-size="11.00" fill="#000000">SearchQuery</text>
</g>
<!-- \\Firesphere\\SolrSearch\\Queries\\BaseQuery -->
<g id="node17" class="node">
<title>\\Firesphere\\SolrSearch\\Queries\\BaseQuery</title>
<polygon fill="none" stroke="#000000" points="711.2549,-2908.8328 634.2549,-2908.8328 634.2549,-2872.8328 711.2549,-2872.8328 711.2549,-2908.8328"/>
<text text-anchor="middle" x="672.7549" y="-2888.0328" font-family="Courier,monospace" font-size="11.00" fill="#000000">BaseQuery</text>
</g>
<!-- \\SilverStripe\\FullTextSearch\\Search\\Queries\\SearchQuery&#45;&gt;\\Firesphere\\SolrSearch\\Queries\\BaseQuery -->
<g id="edge3" class="edge">
<title>\\SilverStripe\\FullTextSearch\\Search\\Queries\\SearchQuery&#45;&gt;\\Firesphere\\SolrSearch\\Queries\\BaseQuery</title>
<path fill="none" stroke="#000000" d="M837.188,-2858.7292C803.0426,-2865.3957 756.3941,-2874.5033 721.5033,-2881.3153"/>
<polygon fill="none" stroke="#000000" points="720.6819,-2877.9095 711.5379,-2883.2609 722.0233,-2884.7798 720.6819,-2877.9095"/>
</g>
<!-- \\Firesphere\\SolrCompatibility\\Extensions\\FulltextSearchExtension -->
<g id="node4" class="node">
<title>\\Firesphere\\SolrCompatibility\\Extensions\\FulltextSearchExtension</title>
<polygon fill="none" stroke="#000000" points="758.7549,-830.8328 586.7549,-830.8328 586.7549,-794.8328 758.7549,-794.8328 758.7549,-830.8328"/>
<text text-anchor="middle" x="672.7549" y="-810.0328" font-family="Courier,monospace" font-size="11.00" fill="#000000">FulltextSearchExtension</text>
</g>
<!-- \\SilverStripe\\Core\\Extension -->
<g id="node56" class="node">
<title>\\SilverStripe\\Core\\Extension</title>
<ellipse fill="none" stroke="#000000" cx="254.1275" cy="-18.8328" rx="144.0747" ry="18"/>
<text text-anchor="middle" x="254.1275" y="-15.1328" font-family="Times,serif" font-size="14.00" fill="#c0c0c0">\SilverStripe\Core\Extension</text>
</g>
<!-- \\Firesphere\\SolrCompatibility\\Extensions\\FulltextSearchExtension&#45;&gt;\\SilverStripe\\Core\\Extension -->
<g id="edge2" class="edge">
<title>\\Firesphere\\SolrCompatibility\\Extensions\\FulltextSearchExtension&#45;&gt;\\SilverStripe\\Core\\Extension</title>
<path fill="none" stroke="#000000" d="M627.5223,-794.8245C606.6694,-784.0985 583.7178,-768.326 570.7549,-746.8328 489.9834,-612.9091 617.9035,-157.3532 508.2549,-45.8328 466.0868,-2.9449 397.3173,2.0924 341.9441,-2.6604"/>
<polygon fill="none" stroke="#000000" points="341.382,.8014 331.77,-3.6549 342.0631,-6.1654 341.382,.8014"/>
</g>
<!-- \\Firesphere\\SolrSearch\\Factories\\DocumentFactory -->
<g id="node5" class="node">
<title>\\Firesphere\\SolrSearch\\Factories\\DocumentFactory</title>
<polygon fill="none" stroke="#000000" points="731.7549,-3766.8328 613.7549,-3766.8328 613.7549,-3730.8328 731.7549,-3730.8328 731.7549,-3766.8328"/>
<text text-anchor="middle" x="672.7549" y="-3746.0328" font-family="Courier,monospace" font-size="11.00" fill="#000000">DocumentFactory</text>
</g>
<!-- \\Firesphere\\SolrSearch\\Factories\\QueryComponentFactory -->
<g id="node6" class="node">
<title>\\Firesphere\\SolrSearch\\Factories\\QueryComponentFactory</title>
<polygon fill="none" stroke="#000000" points="751.7549,-3712.8328 593.7549,-3712.8328 593.7549,-3676.8328 751.7549,-3676.8328 751.7549,-3712.8328"/>
<text text-anchor="middle" x="672.7549" y="-3692.0328" font-family="Courier,monospace" font-size="11.00" fill="#000000">QueryComponentFactory</text>
</g>
<!-- \\Firesphere\\SolrSearch\\Results\\SearchResult -->
<g id="node7" class="node">
<title>\\Firesphere\\SolrSearch\\Results\\SearchResult</title>
<polygon fill="none" stroke="#000000" points="721.7549,-3632.8328 623.7549,-3632.8328 623.7549,-3596.8328 721.7549,-3596.8328 721.7549,-3632.8328"/>
<text text-anchor="middle" x="672.7549" y="-3612.0328" font-family="Courier,monospace" font-size="11.00" fill="#000000">SearchResult</text>
</g>
<!-- \\Firesphere\\SolrSearch\\Helpers\\Statics -->
<g id="node8" class="node">
<title>\\Firesphere\\SolrSearch\\Helpers\\Statics</title>
<polygon fill="none" stroke="#000000" points="704.7549,-3552.8328 640.7549,-3552.8328 640.7549,-3516.8328 704.7549,-3516.8328 704.7549,-3552.8328"/>
<text text-anchor="middle" x="672.7549" y="-3532.0328" font-family="Courier,monospace" font-size="11.00" fill="#000000">Statics</text>
</g>
<!-- \\Firesphere\\SolrSearch\\Helpers\\Synonyms -->
<g id="node9" class="node">
<title>\\Firesphere\\SolrSearch\\Helpers\\Synonyms</title>
<polygon fill="none" stroke="#000000" points="708.2549,-3498.8328 637.2549,-3498.8328 637.2549,-3462.8328 708.2549,-3462.8328 708.2549,-3498.8328"/>
<text text-anchor="middle" x="672.7549" y="-3478.0328" font-family="Courier,monospace" font-size="11.00" fill="#000000">Synonyms</text>
</g>
<!-- \\Firesphere\\SolrSearch\\Helpers\\DataResolver -->
<g id="node10" class="node">
<title>\\Firesphere\\SolrSearch\\Helpers\\DataResolver</title>
<polygon fill="none" stroke="#000000" points="721.7549,-3444.8328 623.7549,-3444.8328 623.7549,-3408.8328 721.7549,-3408.8328 721.7549,-3444.8328"/>
<text text-anchor="middle" x="672.7549" y="-3424.0328" font-family="Courier,monospace" font-size="11.00" fill="#000000">DataResolver</text>
</g>
<!-- \\Firesphere\\SolrSearch\\Helpers\\FieldResolver -->
<g id="node11" class="node">
<title>\\Firesphere\\SolrSearch\\Helpers\\FieldResolver</title>
<polygon fill="none" stroke="#000000" points="724.7549,-3390.8328 620.7549,-3390.8328 620.7549,-3354.8328 724.7549,-3354.8328 724.7549,-3390.8328"/>
<text text-anchor="middle" x="672.7549" y="-3370.0328" font-family="Courier,monospace" font-size="11.00" fill="#000000">FieldResolver</text>
</g>
<!-- \\Firesphere\\SolrSearch\\Helpers\\SolrLogger -->
<g id="node12" class="node">
<title>\\Firesphere\\SolrSearch\\Helpers\\SolrLogger</title>
<polygon fill="none" stroke="#000000" points="714.7549,-3336.8328 630.7549,-3336.8328 630.7549,-3300.8328 714.7549,-3300.8328 714.7549,-3336.8328"/>
<text text-anchor="middle" x="672.7549" y="-3316.0328" font-family="Courier,monospace" font-size="11.00" fill="#000000">SolrLogger</text>
</g>
<!-- \\Firesphere\\SolrSearch\\Models\\SearchSynonym -->
<g id="node13" class="node">
<title>\\Firesphere\\SolrSearch\\Models\\SearchSynonym</title>
<polygon fill="none" stroke="#000000" points="724.7549,-3256.8328 620.7549,-3256.8328 620.7549,-3220.8328 724.7549,-3220.8328 724.7549,-3256.8328"/>
<text text-anchor="middle" x="672.7549" y="-3236.0328" font-family="Courier,monospace" font-size="11.00" fill="#000000">SearchSynonym</text>
</g>
<!-- \\SilverStripe\\ORM\\DataObject -->
<g id="node57" class="node">
<title>\\SilverStripe\\ORM\\DataObject</title>
<ellipse fill="none" stroke="#000000" cx="254.1275" cy="-450.8328" rx="152.9733" ry="18"/>
<text text-anchor="middle" x="254.1275" y="-447.1328" font-family="Times,serif" font-size="14.00" fill="#c0c0c0">\SilverStripe\ORM\DataObject</text>
</g>
<!-- \\Firesphere\\SolrSearch\\Models\\SearchSynonym&#45;&gt;\\SilverStripe\\ORM\\DataObject -->
<g id="edge4" class="edge">
<title>\\Firesphere\\SolrSearch\\Models\\SearchSynonym&#45;&gt;\\SilverStripe\\ORM\\DataObject</title>
<path fill="none" stroke="#000000" d="M620.4951,-3236.77C602.2043,-3233.3305 583.1578,-3226.1725 570.7549,-3211.8328 547.0179,-3184.3892 288.1012,-768.6087 257.1479,-479.1065"/>
<polygon fill="none" stroke="#000000" points="260.6111,-478.5744 256.0679,-469.003 253.6507,-479.3184 260.6111,-478.5744"/>
</g>
<!-- \\Firesphere\\SolrSearch\\Models\\DirtyClass -->
<g id="node14" class="node">
<title>\\Firesphere\\SolrSearch\\Models\\DirtyClass</title>
<polygon fill="none" stroke="#000000" points="714.7549,-3202.8328 630.7549,-3202.8328 630.7549,-3166.8328 714.7549,-3166.8328 714.7549,-3202.8328"/>
<text text-anchor="middle" x="672.7549" y="-3182.0328" font-family="Courier,monospace" font-size="11.00" fill="#000000">DirtyClass</text>
</g>
<!-- \\Firesphere\\SolrSearch\\Models\\DirtyClass&#45;&gt;\\SilverStripe\\ORM\\DataObject -->
<g id="edge5" class="edge">
<title>\\Firesphere\\SolrSearch\\Models\\DirtyClass&#45;&gt;\\SilverStripe\\ORM\\DataObject</title>
<path fill="none" stroke="#000000" d="M630.719,-3184.3278C609.6371,-3181.7555 585.5138,-3174.8575 570.7549,-3157.8328 547.4576,-3130.959 288.4184,-764.8246 257.2004,-478.992"/>
<polygon fill="none" stroke="#000000" points="260.675,-478.5681 256.1101,-469.0071 253.7164,-479.328 260.675,-478.5681"/>
</g>
<!-- \\Firesphere\\SolrSearch\\Models\\SolrLog -->
<g id="node15" class="node">
<title>\\Firesphere\\SolrSearch\\Models\\SolrLog</title>
<polygon fill="none" stroke="#000000" points="704.7549,-3148.8328 640.7549,-3148.8328 640.7549,-3112.8328 704.7549,-3112.8328 704.7549,-3148.8328"/>
<text text-anchor="middle" x="672.7549" y="-3128.0328" font-family="Courier,monospace" font-size="11.00" fill="#000000">SolrLog</text>
</g>
<!-- \\Firesphere\\SolrSearch\\Models\\SolrLog&#45;&gt;\\SilverStripe\\ORM\\DataObject -->
<g id="edge6" class="edge">
<title>\\Firesphere\\SolrSearch\\Models\\SolrLog&#45;&gt;\\SilverStripe\\ORM\\DataObject</title>
<path fill="none" stroke="#000000" d="M640.6397,-3130.2397C617.626,-3127.9887 587.7963,-3120.99 570.7549,-3100.8328 525.8526,-3047.7206 286.5285,-761.9297 257.096,-479.3813"/>
<polygon fill="none" stroke="#000000" points="260.5465,-478.7235 256.0297,-469.1397 253.5842,-479.4484 260.5465,-478.7235"/>
</g>
<!-- \\SilverStripe\\Security\\PermissionProvider -->
<g id="node58" class="node">
<title>\\SilverStripe\\Security\\PermissionProvider</title>
<ellipse fill="none" stroke="#000000" cx="254.1275" cy="-396.8328" rx="206.0634" ry="18"/>
<text text-anchor="middle" x="254.1275" y="-393.1328" font-family="Times,serif" font-size="14.00" fill="#c0c0c0">\SilverStripe\Security\PermissionProvider</text>
</g>
<!-- \\Firesphere\\SolrSearch\\Models\\SolrLog&#45;&gt;\\SilverStripe\\Security\\PermissionProvider -->
<g id="edge7" class="edge">
<title>\\Firesphere\\SolrSearch\\Models\\SolrLog&#45;&gt;\\SilverStripe\\Security\\PermissionProvider</title>
<path fill="none" stroke="#000000" stroke-dasharray="1,5" d="M640.5535,-3130.7437C617.1783,-3128.7829 586.9262,-3121.9276 570.7549,-3100.8328 480.2475,-2982.7703 609.0183,-533.2727 508.2549,-423.8328 468.5764,-380.7377 402.2287,-374.9133 347.2756,-379.3781"/>
<polygon fill="none" stroke="#000000" points="346.7867,-375.9085 337.1562,-380.3248 347.4388,-382.878 346.7867,-375.9085"/>
</g>
<!-- \\Firesphere\\SolrSearch\\Forms\\SearchForm -->
<g id="node16" class="node">
<title>\\Firesphere\\SolrSearch\\Forms\\SearchForm</title>
<polygon fill="none" stroke="#000000" points="714.7549,-3068.8328 630.7549,-3068.8328 630.7549,-3032.8328 714.7549,-3032.8328 714.7549,-3068.8328"/>
<text text-anchor="middle" x="672.7549" y="-3048.0328" font-family="Courier,monospace" font-size="11.00" fill="#000000">SearchForm</text>
</g>
<!-- \\SilverStripe\\Forms\\Form -->
<g id="node59" class="node">
<title>\\SilverStripe\\Forms\\Form</title>
<ellipse fill="none" stroke="#000000" cx="254.1275" cy="-342.8328" rx="129.1772" ry="18"/>
<text text-anchor="middle" x="254.1275" y="-339.1328" font-family="Times,serif" font-size="14.00" fill="#c0c0c0">\SilverStripe\Forms\Form</text>
</g>
<!-- \\Firesphere\\SolrSearch\\Forms\\SearchForm&#45;&gt;\\SilverStripe\\Forms\\Form -->
<g id="edge8" class="edge">
<title>\\Firesphere\\SolrSearch\\Forms\\SearchForm&#45;&gt;\\SilverStripe\\Forms\\Form</title>
<path fill="none" stroke="#000000" d="M630.7327,-3049.6534C609.2453,-3046.6635 584.7385,-3039.0694 570.7549,-3020.8328 481.1127,-2903.9266 608.0526,-478.199 508.2549,-369.8328 465.6538,-323.5741 392.3235,-320.2627 335.3512,-326.5219"/>
<polygon fill="none" stroke="#000000" points="334.7812,-323.0654 325.2762,-327.7457 335.6253,-330.0143 334.7812,-323.0654"/>
</g>
<!-- \\Firesphere\\SolrSearch\\Stores\\PostConfigStore -->
<g id="node19" class="node">
<title>\\Firesphere\\SolrSearch\\Stores\\PostConfigStore</title>
<polygon fill="none" stroke="#000000" points="731.7549,-2828.8328 613.7549,-2828.8328 613.7549,-2792.8328 731.7549,-2792.8328 731.7549,-2828.8328"/>
<text text-anchor="middle" x="672.7549" y="-2808.0328" font-family="Courier,monospace" font-size="11.00" fill="#000000">PostConfigStore</text>
</g>
<!-- \\Firesphere\\SolrSearch\\Interfaces\\ConfigStore -->
<g id="node31" class="node">
<title>\\Firesphere\\SolrSearch\\Interfaces\\ConfigStore</title>
<polygon fill="none" stroke="#000000" points="299.6275,-2801.8328 208.6275,-2801.8328 208.6275,-2765.8328 299.6275,-2765.8328 299.6275,-2801.8328"/>
<text text-anchor="middle" x="254.1275" y="-2781.0328" font-family="Courier,monospace" font-size="11.00" fill="#000000">ConfigStore</text>
</g>
<!-- \\Firesphere\\SolrSearch\\Stores\\PostConfigStore&#45;&gt;\\Firesphere\\SolrSearch\\Interfaces\\ConfigStore -->
<g id="edge9" class="edge">
<title>\\Firesphere\\SolrSearch\\Stores\\PostConfigStore&#45;&gt;\\Firesphere\\SolrSearch\\Interfaces\\ConfigStore</title>
<path fill="none" stroke="#000000" stroke-dasharray="1,5" d="M613.6637,-2807.0217C532.8854,-2801.8117 389.0185,-2792.5328 309.9722,-2787.4346"/>
<polygon fill="none" stroke="#000000" points="309.9333,-2783.9249 299.7287,-2786.774 309.4827,-2790.9104 309.9333,-2783.9249"/>
</g>
<!-- \\Firesphere\\SolrSearch\\Stores\\FileConfigStore -->
<g id="node20" class="node">
<title>\\Firesphere\\SolrSearch\\Stores\\FileConfigStore</title>
<polygon fill="none" stroke="#000000" points="731.7549,-2774.8328 613.7549,-2774.8328 613.7549,-2738.8328 731.7549,-2738.8328 731.7549,-2774.8328"/>
<text text-anchor="middle" x="672.7549" y="-2754.0328" font-family="Courier,monospace" font-size="11.00" fill="#000000">FileConfigStore</text>
</g>
<!-- \\Firesphere\\SolrSearch\\Stores\\FileConfigStore&#45;&gt;\\Firesphere\\SolrSearch\\Interfaces\\ConfigStore -->
<g id="edge10" class="edge">
<title>\\Firesphere\\SolrSearch\\Stores\\FileConfigStore&#45;&gt;\\Firesphere\\SolrSearch\\Interfaces\\ConfigStore</title>
<path fill="none" stroke="#000000" stroke-dasharray="1,5" d="M613.6637,-2760.644C532.8854,-2765.8539 389.0185,-2775.1328 309.9722,-2780.2311"/>
<polygon fill="none" stroke="#000000" points="309.4827,-2776.7553 299.7287,-2780.8917 309.9333,-2783.7407 309.4827,-2776.7553"/>
</g>
<!-- \\Firesphere\\SolrSearch\\Tasks\\ClearDirtyClassesTask -->
<g id="node21" class="node">
<title>\\Firesphere\\SolrSearch\\Tasks\\ClearDirtyClassesTask</title>
<polygon fill="none" stroke="#000000" points="751.7549,-2694.8328 593.7549,-2694.8328 593.7549,-2658.8328 751.7549,-2658.8328 751.7549,-2694.8328"/>
<text text-anchor="middle" x="672.7549" y="-2674.0328" font-family="Courier,monospace" font-size="11.00" fill="#000000">ClearDirtyClassesTask</text>
</g>
<!-- \\SilverStripe\\Dev\\BuildTask -->
<g id="node60" class="node">
<title>\\SilverStripe\\Dev\\BuildTask</title>
<ellipse fill="none" stroke="#000000" cx="254.1275" cy="-288.8328" rx="139.9756" ry="18"/>
<text text-anchor="middle" x="254.1275" y="-285.1328" font-family="Times,serif" font-size="14.00" fill="#c0c0c0">\SilverStripe\Dev\BuildTask</text>
</g>
<!-- \\Firesphere\\SolrSearch\\Tasks\\ClearDirtyClassesTask&#45;&gt;\\SilverStripe\\Dev\\BuildTask -->
<g id="edge11" class="edge">
<title>\\Firesphere\\SolrSearch\\Tasks\\ClearDirtyClassesTask&#45;&gt;\\SilverStripe\\Dev\\BuildTask</title>
<path fill="none" stroke="#000000" d="M593.4248,-2667.1875C584.6811,-2663.0646 576.7793,-2657.4463 570.7549,-2649.8328 409.7771,-2446.392 684.3025,-506.3827 508.2549,-315.8328 466.1479,-270.2572 394.2041,-266.4195 337.5898,-272.3187"/>
<polygon fill="none" stroke="#000000" points="337.0986,-268.8521 327.5678,-273.4797 337.9042,-275.8056 337.0986,-268.8521"/>
</g>
<!-- \\Firesphere\\SolrSearch\\Tasks\\SolrIndexTask -->
<g id="node22" class="node">
<title>\\Firesphere\\SolrSearch\\Tasks\\SolrIndexTask</title>
<polygon fill="none" stroke="#000000" points="724.7549,-2640.8328 620.7549,-2640.8328 620.7549,-2604.8328 724.7549,-2604.8328 724.7549,-2640.8328"/>
<text text-anchor="middle" x="672.7549" y="-2620.0328" font-family="Courier,monospace" font-size="11.00" fill="#000000">SolrIndexTask</text>
</g>
<!-- \\Firesphere\\SolrSearch\\Tasks\\SolrIndexTask&#45;&gt;\\SilverStripe\\Dev\\BuildTask -->
<g id="edge12" class="edge">
<title>\\Firesphere\\SolrSearch\\Tasks\\SolrIndexTask&#45;&gt;\\SilverStripe\\Dev\\BuildTask</title>
<path fill="none" stroke="#000000" d="M620.6189,-2621.4726C601.9995,-2618.1641 582.6947,-2610.9124 570.7549,-2595.8328 413.4359,-2397.1453 680.2913,-501.9228 508.2549,-315.8328 466.1334,-270.2705 394.191,-266.4317 337.5809,-272.327"/>
<polygon fill="none" stroke="#000000" points="337.0908,-268.8603 327.5597,-273.4872 337.8959,-275.8138 337.0908,-268.8603"/>
</g>
<!-- \\Firesphere\\SolrSearch\\Tasks\\ClearErrorsTask -->
<g id="node23" class="node">
<title>\\Firesphere\\SolrSearch\\Tasks\\ClearErrorsTask</title>
<polygon fill="none" stroke="#000000" points="731.7549,-2586.8328 613.7549,-2586.8328 613.7549,-2550.8328 731.7549,-2550.8328 731.7549,-2586.8328"/>
<text text-anchor="middle" x="672.7549" y="-2566.0328" font-family="Courier,monospace" font-size="11.00" fill="#000000">ClearErrorsTask</text>
</g>
<!-- \\Firesphere\\SolrSearch\\Tasks\\ClearErrorsTask&#45;&gt;\\SilverStripe\\Dev\\BuildTask -->
<g id="edge13" class="edge">
<title>\\Firesphere\\SolrSearch\\Tasks\\ClearErrorsTask&#45;&gt;\\SilverStripe\\Dev\\BuildTask</title>
<path fill="none" stroke="#000000" d="M613.6923,-2566.0507C597.3378,-2562.244 581.2209,-2555.0419 570.7549,-2541.8328 417.0946,-2347.8985 676.2802,-497.4629 508.2549,-315.8328 466.1183,-270.2845 394.1773,-266.4444 337.5716,-272.3356"/>
<polygon fill="none" stroke="#000000" points="337.0825,-268.8688 327.5512,-273.4951 337.8872,-275.8224 337.0825,-268.8688"/>
</g>
<!-- \\Firesphere\\SolrSearch\\Tasks\\SolrConfigureTask -->
<g id="node24" class="node">
<title>\\Firesphere\\SolrSearch\\Tasks\\SolrConfigureTask</title>
<polygon fill="none" stroke="#000000" points="738.2549,-2532.8328 607.2549,-2532.8328 607.2549,-2496.8328 738.2549,-2496.8328 738.2549,-2532.8328"/>
<text text-anchor="middle" x="672.7549" y="-2512.0328" font-family="Courier,monospace" font-size="11.00" fill="#000000">SolrConfigureTask</text>
</g>
<!-- \\Firesphere\\SolrSearch\\Tasks\\SolrConfigureTask&#45;&gt;\\SilverStripe\\Dev\\BuildTask -->
<g id="edge14" class="edge">
<title>\\Firesphere\\SolrSearch\\Tasks\\SolrConfigureTask&#45;&gt;\\SilverStripe\\Dev\\BuildTask</title>
<path fill="none" stroke="#000000" d="M607.1966,-2508.3736C593.1129,-2503.8428 579.771,-2496.5276 570.7549,-2484.8328 423.5472,-2293.8901 672.0464,-492.7554 508.2549,-315.8328 466.1015,-270.3 394.162,-266.4585 337.5612,-272.3452"/>
<polygon fill="none" stroke="#000000" points="337.0734,-268.8782 327.5417,-273.5038 337.8776,-275.8319 337.0734,-268.8782"/>
</g>
<!-- \\Firesphere\\SolrSearch\\Admins\\SearchAdmin -->
<g id="node25" class="node">
<title>\\Firesphere\\SolrSearch\\Admins\\SearchAdmin</title>
<polygon fill="none" stroke="#000000" points="718.2549,-2452.8328 627.2549,-2452.8328 627.2549,-2416.8328 718.2549,-2416.8328 718.2549,-2452.8328"/>
<text text-anchor="middle" x="672.7549" y="-2432.0328" font-family="Courier,monospace" font-size="11.00" fill="#000000">SearchAdmin</text>
</g>
<!-- \\SilverStripe\\Admin\\ModelAdmin -->
<g id="node61" class="node">
<title>\\SilverStripe\\Admin\\ModelAdmin</title>
<ellipse fill="none" stroke="#000000" cx="254.1275" cy="-234.8328" rx="165.1707" ry="18"/>
<text text-anchor="middle" x="254.1275" y="-231.1328" font-family="Times,serif" font-size="14.00" fill="#c0c0c0">\SilverStripe\Admin\ModelAdmin</text>
</g>
<!-- \\Firesphere\\SolrSearch\\Admins\\SearchAdmin&#45;&gt;\\SilverStripe\\Admin\\ModelAdmin -->
<g id="edge15" class="edge">
<title>\\Firesphere\\SolrSearch\\Admins\\SearchAdmin&#45;&gt;\\SilverStripe\\Admin\\ModelAdmin</title>
<path fill="none" stroke="#000000" d="M627.1242,-2433.0719C606.5748,-2429.736 584.0002,-2422.0071 570.7549,-2404.8328 425.2774,-2216.2024 670.1151,-436.6081 508.2549,-261.8328 467.3161,-217.6275 398.3016,-212.723 342.5173,-217.8632"/>
<polygon fill="none" stroke="#000000" points="341.8477,-214.4139 332.2648,-218.9326 342.574,-221.3762 341.8477,-214.4139"/>
</g>
<!-- \\Firesphere\\SolrSearch\\Services\\SchemaService -->
<g id="node26" class="node">
<title>\\Firesphere\\SolrSearch\\Services\\SchemaService</title>
<polygon fill="none" stroke="#000000" points="724.7549,-2372.8328 620.7549,-2372.8328 620.7549,-2336.8328 724.7549,-2336.8328 724.7549,-2372.8328"/>
<text text-anchor="middle" x="672.7549" y="-2352.0328" font-family="Courier,monospace" font-size="11.00" fill="#000000">SchemaService</text>
</g>
<!-- \\SilverStripe\\View\\ViewableData -->
<g id="node62" class="node">
<title>\\SilverStripe\\View\\ViewableData</title>
<ellipse fill="none" stroke="#000000" cx="254.1275" cy="-180.8328" rx="163.2712" ry="18"/>
<text text-anchor="middle" x="254.1275" y="-177.1328" font-family="Times,serif" font-size="14.00" fill="#c0c0c0">\SilverStripe\View\ViewableData</text>
</g>
<!-- \\Firesphere\\SolrSearch\\Services\\SchemaService&#45;&gt;\\SilverStripe\\View\\ViewableData -->
<g id="edge16" class="edge">
<title>\\Firesphere\\SolrSearch\\Services\\SchemaService&#45;&gt;\\SilverStripe\\View\\ViewableData</title>
<path fill="none" stroke="#000000" d="M620.6352,-2353.4597C602.0178,-2350.1496 582.7103,-2342.9 570.7549,-2327.8328 424.2763,-2143.2287 668.4068,-380.7086 508.2549,-207.8328 467.2381,-163.5573 398.0558,-158.7122 342.2228,-163.8943"/>
<polygon fill="none" stroke="#000000" points="341.5426,-160.4463 331.9627,-164.9713 342.2734,-167.4081 341.5426,-160.4463"/>
</g>
<!-- \\Firesphere\\SolrSearch\\Services\\SolrCoreService -->
<g id="node27" class="node">
<title>\\Firesphere\\SolrSearch\\Services\\SolrCoreService</title>
<polygon fill="none" stroke="#000000" points="731.7549,-2318.8328 613.7549,-2318.8328 613.7549,-2282.8328 731.7549,-2282.8328 731.7549,-2318.8328"/>
<text text-anchor="middle" x="672.7549" y="-2298.0328" font-family="Courier,monospace" font-size="11.00" fill="#000000">SolrCoreService</text>
</g>
<!-- \\Firesphere\\SolrSearch\\Extensions\\DataObjectExtension -->
<g id="node28" class="node">
<title>\\Firesphere\\SolrSearch\\Extensions\\DataObjectExtension</title>
<polygon fill="none" stroke="#000000" points="745.2549,-2238.8328 600.2549,-2238.8328 600.2549,-2202.8328 745.2549,-2202.8328 745.2549,-2238.8328"/>
<text text-anchor="middle" x="672.7549" y="-2218.0328" font-family="Courier,monospace" font-size="11.00" fill="#000000">DataObjectExtension</text>
</g>
<!-- \\SilverStripe\\ORM\\DataExtension -->
<g id="node63" class="node">
<title>\\SilverStripe\\ORM\\DataExtension</title>
<ellipse fill="none" stroke="#000000" cx="254.1275" cy="-72.8328" rx="167.8704" ry="18"/>
<text text-anchor="middle" x="254.1275" y="-69.1328" font-family="Times,serif" font-size="14.00" fill="#c0c0c0">\SilverStripe\ORM\DataExtension</text>
</g>
<!-- \\Firesphere\\SolrSearch\\Extensions\\DataObjectExtension&#45;&gt;\\SilverStripe\\ORM\\DataExtension -->
<g id="edge17" class="edge">
<title>\\Firesphere\\SolrSearch\\Extensions\\DataObjectExtension&#45;&gt;\\SilverStripe\\ORM\\DataExtension</title>
<path fill="none" stroke="#000000" d="M600.0195,-2213.9398C588.692,-2209.6836 578.2715,-2203.3023 570.7549,-2193.8328 426.0379,-2011.5172 666.4756,-270.5613 508.2549,-99.8328 467.372,-55.718 398.5266,-50.7532 342.7975,-55.8458"/>
<polygon fill="none" stroke="#000000" points="342.1402,-52.3951 332.5539,-56.9066 342.8613,-59.3578 342.1402,-52.3951"/>
</g>
<!-- \\Firesphere\\SolrSearch\\Extensions\\GridFieldExtension -->
<g id="node29" class="node">
<title>\\Firesphere\\SolrSearch\\Extensions\\GridFieldExtension</title>
<polygon fill="none" stroke="#000000" points="741.7549,-2184.8328 603.7549,-2184.8328 603.7549,-2148.8328 741.7549,-2148.8328 741.7549,-2184.8328"/>
<text text-anchor="middle" x="672.7549" y="-2164.0328" font-family="Courier,monospace" font-size="11.00" fill="#000000">GridFieldExtension</text>
</g>
<!-- \\Firesphere\\SolrSearch\\Extensions\\GridFieldExtension&#45;&gt;\\SilverStripe\\Core\\Extension -->
<g id="edge18" class="edge">
<title>\\Firesphere\\SolrSearch\\Extensions\\GridFieldExtension&#45;&gt;\\SilverStripe\\Core\\Extension</title>
<path fill="none" stroke="#000000" d="M603.5279,-2159.1124C590.8194,-2154.5227 578.9878,-2147.4998 570.7549,-2136.8328 428.7377,-1952.8271 666.2528,-216.3136 508.2549,-45.8328 466.3616,-.6297 395.109,3.4672 338.6934,-2.2415"/>
<polygon fill="none" stroke="#000000" points="338.2461,1.2303 328.7017,-3.3691 339.0311,-5.7256 338.2461,1.2303"/>
</g>
<!-- \\Firesphere\\SolrSearch\\Interfaces\\SiteStateInterface -->
<g id="node30" class="node">
<title>\\Firesphere\\SolrSearch\\Interfaces\\SiteStateInterface</title>
<polygon fill="none" stroke="#000000" points="323.1275,-2855.8328 185.1275,-2855.8328 185.1275,-2819.8328 323.1275,-2819.8328 323.1275,-2855.8328"/>
<text text-anchor="middle" x="254.1275" y="-2835.0328" font-family="Courier,monospace" font-size="11.00" fill="#000000">SiteStateInterface</text>
</g>
<!-- \\Firesphere\\SolrSearch\\Jobs\\SolrIndexJob -->
<g id="node32" class="node">
<title>\\Firesphere\\SolrSearch\\Jobs\\SolrIndexJob</title>
<polygon fill="none" stroke="#000000" points="721.7549,-2050.8328 623.7549,-2050.8328 623.7549,-2014.8328 721.7549,-2014.8328 721.7549,-2050.8328"/>
<text text-anchor="middle" x="672.7549" y="-2030.0328" font-family="Courier,monospace" font-size="11.00" fill="#000000">SolrIndexJob</text>
</g>
<!-- \\Symbiote\\QueuedJobs\\Services\\AbstractQueuedJob -->
<g id="node64" class="node">
<title>\\Symbiote\\QueuedJobs\\Services\\AbstractQueuedJob</title>
<ellipse fill="none" stroke="#000000" cx="254.1275" cy="-126.8328" rx="254.255" ry="18"/>
<text text-anchor="middle" x="254.1275" y="-123.1328" font-family="Times,serif" font-size="14.00" fill="#c0c0c0">\Symbiote\QueuedJobs\Services\AbstractQueuedJob</text>
</g>
<!-- \\Firesphere\\SolrSearch\\Jobs\\SolrIndexJob&#45;&gt;\\Symbiote\\QueuedJobs\\Services\\AbstractQueuedJob -->
<g id="edge19" class="edge">
<title>\\Firesphere\\SolrSearch\\Jobs\\SolrIndexJob&#45;&gt;\\Symbiote\\QueuedJobs\\Services\\AbstractQueuedJob</title>
<path fill="none" stroke="#000000" d="M623.5867,-2031.9219C604.0991,-2028.8571 583.3703,-2021.6624 570.7549,-2005.8328 442.4328,-1844.8168 648.5016,-304.5763 508.2549,-153.8328 469.6424,-112.3304 406.2723,-105.5291 352.4747,-109.129"/>
<polygon fill="none" stroke="#000000" points="351.8917,-105.6643 342.2015,-109.9481 352.4481,-112.6421 351.8917,-105.6643"/>
</g>
<!-- \\Firesphere\\SolrSearch\\Jobs\\SolrConfigureJob -->
<g id="node33" class="node">
<title>\\Firesphere\\SolrSearch\\Jobs\\SolrConfigureJob</title>
<polygon fill="none" stroke="#000000" points="735.2549,-1996.8328 610.2549,-1996.8328 610.2549,-1960.8328 735.2549,-1960.8328 735.2549,-1996.8328"/>
<text text-anchor="middle" x="672.7549" y="-1976.0328" font-family="Courier,monospace" font-size="11.00" fill="#000000">SolrConfigureJob</text>
</g>
<!-- \\Firesphere\\SolrSearch\\Jobs\\SolrConfigureJob&#45;&gt;\\Symbiote\\QueuedJobs\\Services\\AbstractQueuedJob -->
<g id="edge20" class="edge">
<title>\\Firesphere\\SolrSearch\\Jobs\\SolrConfigureJob&#45;&gt;\\Symbiote\\QueuedJobs\\Services\\AbstractQueuedJob</title>
<path fill="none" stroke="#000000" d="M610.1606,-1973.2306C595.0178,-1968.7893 580.4283,-1961.3026 570.7549,-1948.8328 448.4335,-1791.1503 644.2683,-299.8694 508.2549,-153.8328 469.6913,-112.4273 406.483,-105.5749 352.7547,-109.1248"/>
<polygon fill="none" stroke="#000000" points="352.1875,-105.6586 342.4938,-109.9344 352.7381,-112.6369 352.1875,-105.6586"/>
</g>
<!-- \\Firesphere\\SolrSearch\\Jobs\\ClearDirtyClassesJob -->
<g id="node34" class="node">
<title>\\Firesphere\\SolrSearch\\Jobs\\ClearDirtyClassesJob</title>
<polygon fill="none" stroke="#000000" points="748.7549,-2104.8328 596.7549,-2104.8328 596.7549,-2068.8328 748.7549,-2068.8328 748.7549,-2104.8328"/>
<text text-anchor="middle" x="672.7549" y="-2084.0328" font-family="Courier,monospace" font-size="11.00" fill="#000000">ClearDirtyClassesJob</text>
</g>
<!-- \\Firesphere\\SolrSearch\\Jobs\\ClearDirtyClassesJob&#45;&gt;\\Symbiote\\QueuedJobs\\Services\\AbstractQueuedJob -->
<g id="edge21" class="edge">
<title>\\Firesphere\\SolrSearch\\Jobs\\ClearDirtyClassesJob&#45;&gt;\\Symbiote\\QueuedJobs\\Services\\AbstractQueuedJob</title>
<path fill="none" stroke="#000000" d="M596.7232,-2078.6019C586.6869,-2074.3814 577.5438,-2068.3597 570.7549,-2059.8328 438.7746,-1894.0642 652.5121,-309.0356 508.2549,-153.8328 469.6623,-112.312 406.2922,-105.5107 352.4896,-109.1151"/>
<polygon fill="none" stroke="#000000" points="351.9052,-105.6506 342.2154,-109.9352 352.4622,-112.6284 351.9052,-105.6506"/>
</g>
<!-- \\Firesphere\\SolrSearch\\States\\SiteState -->
<g id="node35" class="node">
<title>\\Firesphere\\SolrSearch\\States\\SiteState</title>
<polygon fill="none" stroke="#000000" points="714.7549,-1916.8328 630.7549,-1916.8328 630.7549,-1880.8328 714.7549,-1880.8328 714.7549,-1916.8328"/>
<text text-anchor="start" x="638.7549" y="-1902.0328" font-family="Courier,monospace" font-size="11.00" fill="#000000">«abstract»</text>
<text text-anchor="start" x="642.2549" y="-1890.0328" font-family="Courier,monospace" font-size="11.00" fill="#000000">SiteState</text>
</g>
<!-- \\Firesphere\\SolrSearch\\Traits\\CoreServiceTrait -->
<g id="node36" class="node">
<title>\\Firesphere\\SolrSearch\\Traits\\CoreServiceTrait</title>
<polygon fill="none" stroke="#000000" points="735.2549,-1836.8328 610.2549,-1836.8328 610.2549,-1800.8328 735.2549,-1800.8328 735.2549,-1836.8328"/>
<text text-anchor="middle" x="672.7549" y="-1816.0328" font-family="Courier,monospace" font-size="11.00" fill="#000000">CoreServiceTrait</text>
</g>
<!-- \\Firesphere\\SolrSearch\\Traits\\CoreAdminTrait -->
<g id="node37" class="node">
<title>\\Firesphere\\SolrSearch\\Traits\\CoreAdminTrait</title>
<polygon fill="none" stroke="#000000" points="728.2549,-1782.8328 617.2549,-1782.8328 617.2549,-1746.8328 728.2549,-1746.8328 728.2549,-1782.8328"/>
<text text-anchor="middle" x="672.7549" y="-1762.0328" font-family="Courier,monospace" font-size="11.00" fill="#000000">CoreAdminTrait</text>
</g>
<!-- \\Firesphere\\SolrSearch\\Traits\\GetSetSearchResolverTrait -->
<g id="node38" class="node">
<title>\\Firesphere\\SolrSearch\\Traits\\GetSetSearchResolverTrait</title>
<polygon fill="none" stroke="#000000" points="765.2549,-1728.8328 580.2549,-1728.8328 580.2549,-1692.8328 765.2549,-1692.8328 765.2549,-1728.8328"/>
<text text-anchor="middle" x="672.7549" y="-1708.0328" font-family="Courier,monospace" font-size="11.00" fill="#000000">GetSetSearchResolverTrait</text>
</g>
<!-- \\Firesphere\\SolrSearch\\Traits\\DocumentFactoryTrait -->
<g id="node39" class="node">
<title>\\Firesphere\\SolrSearch\\Traits\\DocumentFactoryTrait</title>
<polygon fill="none" stroke="#000000" points="748.7549,-1674.8328 596.7549,-1674.8328 596.7549,-1638.8328 748.7549,-1638.8328 748.7549,-1674.8328"/>
<text text-anchor="middle" x="672.7549" y="-1654.0328" font-family="Courier,monospace" font-size="11.00" fill="#000000">DocumentFactoryTrait</text>
</g>
<!-- \\Firesphere\\SolrSearch\\Traits\\SolrIndexTrait -->
<g id="node40" class="node">
<title>\\Firesphere\\SolrSearch\\Traits\\SolrIndexTrait</title>
<polygon fill="none" stroke="#000000" points="728.2549,-1620.8328 617.2549,-1620.8328 617.2549,-1584.8328 728.2549,-1584.8328 728.2549,-1620.8328"/>
<text text-anchor="middle" x="672.7549" y="-1600.0328" font-family="Courier,monospace" font-size="11.00" fill="#000000">SolrIndexTrait</text>
</g>
<!-- \\Firesphere\\SolrSearch\\Traits\\BaseIndexTrait -->
<g id="node41" class="node">
<title>\\Firesphere\\SolrSearch\\Traits\\BaseIndexTrait</title>
<polygon fill="none" stroke="#000000" points="728.2549,-1566.8328 617.2549,-1566.8328 617.2549,-1530.8328 728.2549,-1530.8328 728.2549,-1566.8328"/>
<text text-anchor="middle" x="672.7549" y="-1546.0328" font-family="Courier,monospace" font-size="11.00" fill="#000000">BaseIndexTrait</text>
</g>
<!-- \\Firesphere\\SolrSearch\\Traits\\BaseQueryTrait -->
<g id="node42" class="node">
<title>\\Firesphere\\SolrSearch\\Traits\\BaseQueryTrait</title>
<polygon fill="none" stroke="#000000" points="728.2549,-1512.8328 617.2549,-1512.8328 617.2549,-1476.8328 728.2549,-1476.8328 728.2549,-1512.8328"/>
<text text-anchor="middle" x="672.7549" y="-1492.0328" font-family="Courier,monospace" font-size="11.00" fill="#000000">BaseQueryTrait</text>
</g>
<!-- \\Firesphere\\SolrSearch\\Traits\\QueryComponentBoostTrait -->
<g id="node43" class="node">
<title>\\Firesphere\\SolrSearch\\Traits\\QueryComponentBoostTrait</title>
<polygon fill="none" stroke="#000000" points="762.2549,-1458.8328 583.2549,-1458.8328 583.2549,-1422.8328 762.2549,-1422.8328 762.2549,-1458.8328"/>
<text text-anchor="middle" x="672.7549" y="-1438.0328" font-family="Courier,monospace" font-size="11.00" fill="#000000">QueryComponentBoostTrait</text>
</g>
<!-- \\Firesphere\\SolrSearch\\Traits\\QueryComponentFacetTrait -->
<g id="node44" class="node">
<title>\\Firesphere\\SolrSearch\\Traits\\QueryComponentFacetTrait</title>
<polygon fill="none" stroke="#000000" points="762.2549,-1404.8328 583.2549,-1404.8328 583.2549,-1368.8328 762.2549,-1368.8328 762.2549,-1404.8328"/>
<text text-anchor="middle" x="672.7549" y="-1384.0328" font-family="Courier,monospace" font-size="11.00" fill="#000000">QueryComponentFacetTrait</text>
</g>
<!-- \\Firesphere\\SolrSearch\\Traits\\QueryComponentFilterTrait -->
<g id="node45" class="node">
<title>\\Firesphere\\SolrSearch\\Traits\\QueryComponentFilterTrait</title>
<polygon fill="none" stroke="#000000" points="765.2549,-1350.8328 580.2549,-1350.8328 580.2549,-1314.8328 765.2549,-1314.8328 765.2549,-1350.8328"/>
<text text-anchor="middle" x="672.7549" y="-1330.0328" font-family="Courier,monospace" font-size="11.00" fill="#000000">QueryComponentFilterTrait</text>
</g>
<!-- \\Firesphere\\SolrSearch\\Traits\\GetterSetterTrait -->
<g id="node46" class="node">
<title>\\Firesphere\\SolrSearch\\Traits\\GetterSetterTrait</title>
<polygon fill="none" stroke="#000000" points="738.2549,-1296.8328 607.2549,-1296.8328 607.2549,-1260.8328 738.2549,-1260.8328 738.2549,-1296.8328"/>
<text text-anchor="middle" x="672.7549" y="-1276.0328" font-family="Courier,monospace" font-size="11.00" fill="#000000">GetterSetterTrait</text>
</g>
<!-- \\Firesphere\\SolrSearch\\Traits\\LoggerTrait -->
<g id="node47" class="node">
<title>\\Firesphere\\SolrSearch\\Traits\\LoggerTrait</title>
<polygon fill="none" stroke="#000000" points="718.2549,-1242.8328 627.2549,-1242.8328 627.2549,-1206.8328 718.2549,-1206.8328 718.2549,-1242.8328"/>
<text text-anchor="middle" x="672.7549" y="-1222.0328" font-family="Courier,monospace" font-size="11.00" fill="#000000">LoggerTrait</text>
</g>
<!-- \\Firesphere\\SolrSearch\\Traits\\DataResolveTrait -->
<g id="node48" class="node">
<title>\\Firesphere\\SolrSearch\\Traits\\DataResolveTrait</title>
<polygon fill="none" stroke="#000000" points="735.2549,-1188.8328 610.2549,-1188.8328 610.2549,-1152.8328 735.2549,-1152.8328 735.2549,-1188.8328"/>
<text text-anchor="middle" x="672.7549" y="-1168.0328" font-family="Courier,monospace" font-size="11.00" fill="#000000">DataResolveTrait</text>
</g>
<!-- \\Firesphere\\SolrSearch\\Traits\\SearchResultGetTrait -->
<g id="node49" class="node">
<title>\\Firesphere\\SolrSearch\\Traits\\SearchResultGetTrait</title>
<polygon fill="none" stroke="#000000" points="748.7549,-1134.8328 596.7549,-1134.8328 596.7549,-1098.8328 748.7549,-1098.8328 748.7549,-1134.8328"/>
<text text-anchor="middle" x="672.7549" y="-1114.0328" font-family="Courier,monospace" font-size="11.00" fill="#000000">SearchResultGetTrait</text>
</g>
<!-- \\Firesphere\\SolrSearch\\Traits\\SearchResultSetTrait -->
<g id="node50" class="node">
<title>\\Firesphere\\SolrSearch\\Traits\\SearchResultSetTrait</title>
<polygon fill="none" stroke="#000000" points="748.7549,-1080.8328 596.7549,-1080.8328 596.7549,-1044.8328 748.7549,-1044.8328 748.7549,-1080.8328"/>
<text text-anchor="middle" x="672.7549" y="-1060.0328" font-family="Courier,monospace" font-size="11.00" fill="#000000">SearchResultSetTrait</text>
</g>
<!-- \\Firesphere\\SolrSearch\\Traits\\GetSetSchemaServiceTrait -->
<g id="node51" class="node">
<title>\\Firesphere\\SolrSearch\\Traits\\GetSetSchemaServiceTrait</title>
<polygon fill="none" stroke="#000000" points="762.2549,-1026.8328 583.2549,-1026.8328 583.2549,-990.8328 762.2549,-990.8328 762.2549,-1026.8328"/>
<text text-anchor="middle" x="672.7549" y="-1006.0328" font-family="Courier,monospace" font-size="11.00" fill="#000000">GetSetSchemaServiceTrait</text>
</g>
<!-- \\Firesphere\\SolrSearch\\Subsites\\SubsitesExtension -->
<g id="node52" class="node">
<title>\\Firesphere\\SolrSearch\\Subsites\\SubsitesExtension</title>
<polygon fill="none" stroke="#000000" points="738.2549,-946.8328 607.2549,-946.8328 607.2549,-910.8328 738.2549,-910.8328 738.2549,-946.8328"/>
<text text-anchor="middle" x="672.7549" y="-926.0328" font-family="Courier,monospace" font-size="11.00" fill="#000000">SubsitesExtension</text>
</g>
<!-- \\Firesphere\\SolrSearch\\Subsites\\SubsitesExtension&#45;&gt;\\SilverStripe\\ORM\\DataExtension -->
<g id="edge23" class="edge">
<title>\\Firesphere\\SolrSearch\\Subsites\\SubsitesExtension&#45;&gt;\\SilverStripe\\ORM\\DataExtension</title>
<path fill="none" stroke="#000000" d="M627.1926,-910.7291C606.3939,-900.0156 583.5863,-884.282 570.7549,-862.8328 483.418,-716.8388 627.091,-221.5701 508.2549,-99.8328 467.2624,-57.8396 400.7903,-52.0321 346.1105,-56.2281"/>
<polygon fill="none" stroke="#000000" points="345.6979,-52.7509 336.0466,-57.1216 346.317,-59.7235 345.6979,-52.7509"/>
</g>
<!-- \\Firesphere\\SolrFluent\\Extensions\\FluentExtension -->
<g id="node53" class="node">
<title>\\Firesphere\\SolrFluent\\Extensions\\FluentExtension</title>
<polygon fill="none" stroke="#000000" points="731.7549,-714.8328 613.7549,-714.8328 613.7549,-678.8328 731.7549,-678.8328 731.7549,-714.8328"/>
<text text-anchor="middle" x="672.7549" y="-694.0328" font-family="Courier,monospace" font-size="11.00" fill="#000000">FluentExtension</text>
</g>
<!-- \\Firesphere\\SolrFluent\\Extensions\\FluentExtension&#45;&gt;\\SilverStripe\\Core\\Extension -->
<g id="edge22" class="edge">
<title>\\Firesphere\\SolrFluent\\Extensions\\FluentExtension&#45;&gt;\\SilverStripe\\Core\\Extension</title>
<path fill="none" stroke="#000000" d="M627.6835,-678.7263C606.8702,-667.9762 583.9055,-652.2117 570.7549,-630.8328 502.2559,-519.474 600.729,-138.2528 508.2549,-45.8328 466.0822,-3.6848 398.1571,1.6528 343.1382,-2.7878"/>
<polygon fill="none" stroke="#000000" points="342.659,.6829 333.0242,-3.724 343.3043,-6.2873 342.659,.6829"/>
</g>
<!-- \\Firesphere\\SolrPermissions\\Extensions\\BaseIndexExtension -->
<g id="node54" class="node">
<title>\\Firesphere\\SolrPermissions\\Extensions\\BaseIndexExtension</title>
<polygon fill="none" stroke="#000000" points="741.7549,-544.8328 603.7549,-544.8328 603.7549,-508.8328 741.7549,-508.8328 741.7549,-544.8328"/>
<text text-anchor="middle" x="672.7549" y="-524.0328" font-family="Courier,monospace" font-size="11.00" fill="#000000">BaseIndexExtension</text>
</g>
<!-- \\Firesphere\\SolrPermissions\\Extensions\\BaseIndexExtension&#45;&gt;\\SilverStripe\\Core\\Extension -->
<g id="edge24" class="edge">
<title>\\Firesphere\\SolrPermissions\\Extensions\\BaseIndexExtension&#45;&gt;\\SilverStripe\\Core\\Extension</title>
<path fill="none" stroke="#000000" d="M669.255,-508.7878C653.3631,-428.7944 585.4274,-107.4215 508.2549,-45.8328 467.8634,-13.5979 411.6201,-5.1064 362.3109,-5.4255"/>
<polygon fill="none" stroke="#000000" points="362.1594,-1.9276 352.2258,-5.6121 362.2889,-8.9264 362.1594,-1.9276"/>
</g>
<!-- \\Firesphere\\SolrPermissions\\Extensions\\DataObjectExtension -->
<g id="node55" class="node">
<title>\\Firesphere\\SolrPermissions\\Extensions\\DataObjectExtension</title>
<polygon fill="none" stroke="#000000" points="745.2549,-598.8328 600.2549,-598.8328 600.2549,-562.8328 745.2549,-562.8328 745.2549,-598.8328"/>
<text text-anchor="middle" x="672.7549" y="-578.0328" font-family="Courier,monospace" font-size="11.00" fill="#000000">DataObjectExtension</text>
</g>
<!-- \\Firesphere\\SolrPermissions\\Extensions\\DataObjectExtension&#45;&gt;\\SilverStripe\\ORM\\DataExtension -->
<g id="edge25" class="edge">
<title>\\Firesphere\\SolrPermissions\\Extensions\\DataObjectExtension&#45;&gt;\\SilverStripe\\ORM\\DataExtension</title>
<path fill="none" stroke="#000000" d="M600.0614,-572.9649C588.9442,-568.7847 578.5848,-562.6811 570.7549,-553.8328 435.7761,-401.2989 654.4909,-241.6105 508.2549,-99.8328 467.5558,-60.3745 404.1819,-53.577 350.904,-56.6677"/>
<polygon fill="none" stroke="#000000" points="350.4673,-53.1897 340.7374,-57.3824 350.9583,-60.1725 350.4673,-53.1897"/>
</g>
</g>
</svg>
