<?xml version="1.0" encoding="UTF-8" standalone="no"?>
<!DOCTYPE svg PUBLIC "-//W3C//DTD SVG 1.1//EN"
 "http://www.w3.org/Graphics/SVG/1.1/DTD/svg11.dtd">
<!-- Generated by graphviz version 2.40.1 (20161225.0304)
 -->
<!-- Title: G Pages: 1 -->
<svg width="984pt" height="3599pt"
 viewBox="0.00 0.00 984.25 3598.97" xmlns="http://www.w3.org/2000/svg" xmlns:xlink="http://www.w3.org/1999/xlink">
<g id="graph0" class="graph" transform="scale(1 1) rotate(0) translate(4 3594.9678)">
<title>G</title>
<polygon fill="#ffffff" stroke="transparent" points="-4,4 -4,-3594.9678 980.2549,-3594.9678 980.2549,4 -4,4"/>
<g id="clust1" class="cluster">
<title>cluster_Global</title>
<path fill="none" stroke="#c0c0c0" d="M165.1275,-476.9678C165.1275,-476.9678 956.2549,-476.9678 956.2549,-476.9678 962.2549,-476.9678 968.2549,-482.9678 968.2549,-488.9678 968.2549,-488.9678 968.2549,-3570.9678 968.2549,-3570.9678 968.2549,-3576.9678 962.2549,-3582.9678 956.2549,-3582.9678 956.2549,-3582.9678 165.1275,-3582.9678 165.1275,-3582.9678 159.1275,-3582.9678 153.1275,-3576.9678 153.1275,-3570.9678 153.1275,-3570.9678 153.1275,-488.9678 153.1275,-488.9678 153.1275,-482.9678 159.1275,-476.9678 165.1275,-476.9678"/>
<text text-anchor="middle" x="560.6912" y="-3570.1678" font-family="Times,serif" font-size="11.00" fill="#c0c0c0">Global</text>
</g>
<g id="clust2" class="cluster">
<title>cluster_\SilverStripe</title>
<path fill="none" stroke="#c0c0c0" d="M817.2549,-2333.9678C817.2549,-2333.9678 948.2549,-2333.9678 948.2549,-2333.9678 954.2549,-2333.9678 960.2549,-2339.9678 960.2549,-2345.9678 960.2549,-2345.9678 960.2549,-2635.9678 960.2549,-2635.9678 960.2549,-2641.9678 954.2549,-2647.9678 948.2549,-2647.9678 948.2549,-2647.9678 817.2549,-2647.9678 817.2549,-2647.9678 811.2549,-2647.9678 805.2549,-2641.9678 805.2549,-2635.9678 805.2549,-2635.9678 805.2549,-2345.9678 805.2549,-2345.9678 805.2549,-2339.9678 811.2549,-2333.9678 817.2549,-2333.9678"/>
<text text-anchor="middle" x="882.7549" y="-2635.1678" font-family="Times,serif" font-size="11.00" fill="#c0c0c0">SilverStripe</text>
</g>
<g id="clust3" class="cluster">
<title>cluster_\SilverStripe\FullTextSearch</title>
<path fill="none" stroke="#c0c0c0" d="M825.2549,-2341.9678C825.2549,-2341.9678 940.2549,-2341.9678 940.2549,-2341.9678 946.2549,-2341.9678 952.2549,-2347.9678 952.2549,-2353.9678 952.2549,-2353.9678 952.2549,-2607.9678 952.2549,-2607.9678 952.2549,-2613.9678 946.2549,-2619.9678 940.2549,-2619.9678 940.2549,-2619.9678 825.2549,-2619.9678 825.2549,-2619.9678 819.2549,-2619.9678 813.2549,-2613.9678 813.2549,-2607.9678 813.2549,-2607.9678 813.2549,-2353.9678 813.2549,-2353.9678 813.2549,-2347.9678 819.2549,-2341.9678 825.2549,-2341.9678"/>
<text text-anchor="middle" x="882.7549" y="-2607.1678" font-family="Times,serif" font-size="11.00" fill="#c0c0c0">FullTextSearch</text>
</g>
<g id="clust4" class="cluster">
<title>cluster_\SilverStripe\FullTextSearch\Search</title>
<path fill="none" stroke="#c0c0c0" d="M833.2549,-2483.9678C833.2549,-2483.9678 932.2549,-2483.9678 932.2549,-2483.9678 938.2549,-2483.9678 944.2549,-2489.9678 944.2549,-2495.9678 944.2549,-2495.9678 944.2549,-2579.9678 944.2549,-2579.9678 944.2549,-2585.9678 938.2549,-2591.9678 932.2549,-2591.9678 932.2549,-2591.9678 833.2549,-2591.9678 833.2549,-2591.9678 827.2549,-2591.9678 821.2549,-2585.9678 821.2549,-2579.9678 821.2549,-2579.9678 821.2549,-2495.9678 821.2549,-2495.9678 821.2549,-2489.9678 827.2549,-2483.9678 833.2549,-2483.9678"/>
<text text-anchor="middle" x="882.7549" y="-2579.1678" font-family="Times,serif" font-size="11.00" fill="#c0c0c0">Search</text>
</g>
<g id="clust5" class="cluster">
<title>cluster_\SilverStripe\FullTextSearch\Search\Queries</title>
<path fill="none" stroke="#c0c0c0" d="M841.2549,-2491.9678C841.2549,-2491.9678 924.2549,-2491.9678 924.2549,-2491.9678 930.2549,-2491.9678 936.2549,-2497.9678 936.2549,-2503.9678 936.2549,-2503.9678 936.2549,-2551.9678 936.2549,-2551.9678 936.2549,-2557.9678 930.2549,-2563.9678 924.2549,-2563.9678 924.2549,-2563.9678 841.2549,-2563.9678 841.2549,-2563.9678 835.2549,-2563.9678 829.2549,-2557.9678 829.2549,-2551.9678 829.2549,-2551.9678 829.2549,-2503.9678 829.2549,-2503.9678 829.2549,-2497.9678 835.2549,-2491.9678 841.2549,-2491.9678"/>
<text text-anchor="middle" x="882.7549" y="-2551.1678" font-family="Times,serif" font-size="11.00" fill="#c0c0c0">Queries</text>
</g>
<g id="clust6" class="cluster">
<title>cluster_\SilverStripe\FullTextSearch\Solr</title>
<path fill="none" stroke="#c0c0c0" d="M844.7549,-2349.9678C844.7549,-2349.9678 920.7549,-2349.9678 920.7549,-2349.9678 926.7549,-2349.9678 932.7549,-2355.9678 932.7549,-2361.9678 932.7549,-2361.9678 932.7549,-2463.9678 932.7549,-2463.9678 932.7549,-2469.9678 926.7549,-2475.9678 920.7549,-2475.9678 920.7549,-2475.9678 844.7549,-2475.9678 844.7549,-2475.9678 838.7549,-2475.9678 832.7549,-2469.9678 832.7549,-2463.9678 832.7549,-2463.9678 832.7549,-2361.9678 832.7549,-2361.9678 832.7549,-2355.9678 838.7549,-2349.9678 844.7549,-2349.9678"/>
<text text-anchor="middle" x="882.7549" y="-2463.1678" font-family="Times,serif" font-size="11.00" fill="#c0c0c0">Solr</text>
</g>
<g id="clust7" class="cluster">
<title>cluster_\Firesphere</title>
<path fill="none" stroke="#c0c0c0" d="M173.1275,-484.9678C173.1275,-484.9678 777.2549,-484.9678 777.2549,-484.9678 783.2549,-484.9678 789.2549,-490.9678 789.2549,-496.9678 789.2549,-496.9678 789.2549,-3542.9678 789.2549,-3542.9678 789.2549,-3548.9678 783.2549,-3554.9678 777.2549,-3554.9678 777.2549,-3554.9678 173.1275,-3554.9678 173.1275,-3554.9678 167.1275,-3554.9678 161.1275,-3548.9678 161.1275,-3542.9678 161.1275,-3542.9678 161.1275,-496.9678 161.1275,-496.9678 161.1275,-490.9678 167.1275,-484.9678 173.1275,-484.9678"/>
<text text-anchor="middle" x="475.1912" y="-3542.1678" font-family="Times,serif" font-size="11.00" fill="#c0c0c0">Firesphere</text>
</g>
<g id="clust8" class="cluster">
<title>cluster_\Firesphere\SolrSearch</title>
<path fill="none" stroke="#c0c0c0" d="M181.1275,-492.9678C181.1275,-492.9678 769.2549,-492.9678 769.2549,-492.9678 775.2549,-492.9678 781.2549,-498.9678 781.2549,-504.9678 781.2549,-504.9678 781.2549,-3514.9678 781.2549,-3514.9678 781.2549,-3520.9678 775.2549,-3526.9678 769.2549,-3526.9678 769.2549,-3526.9678 181.1275,-3526.9678 181.1275,-3526.9678 175.1275,-3526.9678 169.1275,-3520.9678 169.1275,-3514.9678 169.1275,-3514.9678 169.1275,-504.9678 169.1275,-504.9678 169.1275,-498.9678 175.1275,-492.9678 181.1275,-492.9678"/>
<text text-anchor="middle" x="475.1912" y="-3514.1678" font-family="Times,serif" font-size="11.00" fill="#c0c0c0">SolrSearch</text>
</g>
<g id="clust9" class="cluster">
<title>cluster_\Firesphere\SolrSearch\Compat</title>
<path fill="none" stroke="#c0c0c0" d="M590.7549,-3426.9678C590.7549,-3426.9678 754.7549,-3426.9678 754.7549,-3426.9678 760.7549,-3426.9678 766.7549,-3432.9678 766.7549,-3438.9678 766.7549,-3438.9678 766.7549,-3486.9678 766.7549,-3486.9678 766.7549,-3492.9678 760.7549,-3498.9678 754.7549,-3498.9678 754.7549,-3498.9678 590.7549,-3498.9678 590.7549,-3498.9678 584.7549,-3498.9678 578.7549,-3492.9678 578.7549,-3486.9678 578.7549,-3486.9678 578.7549,-3438.9678 578.7549,-3438.9678 578.7549,-3432.9678 584.7549,-3426.9678 590.7549,-3426.9678"/>
<text text-anchor="middle" x="672.7549" y="-3486.1678" font-family="Times,serif" font-size="11.00" fill="#c0c0c0">Compat</text>
</g>
<g id="clust10" class="cluster">
<title>cluster_\Firesphere\SolrSearch\Helpers</title>
<path fill="none" stroke="#c0c0c0" d="M624.7549,-3130.9678C624.7549,-3130.9678 720.7549,-3130.9678 720.7549,-3130.9678 726.7549,-3130.9678 732.7549,-3136.9678 732.7549,-3142.9678 732.7549,-3142.9678 732.7549,-3406.9678 732.7549,-3406.9678 732.7549,-3412.9678 726.7549,-3418.9678 720.7549,-3418.9678 720.7549,-3418.9678 624.7549,-3418.9678 624.7549,-3418.9678 618.7549,-3418.9678 612.7549,-3412.9678 612.7549,-3406.9678 612.7549,-3406.9678 612.7549,-3142.9678 612.7549,-3142.9678 612.7549,-3136.9678 618.7549,-3130.9678 624.7549,-3130.9678"/>
<text text-anchor="middle" x="672.7549" y="-3406.1678" font-family="Times,serif" font-size="11.00" fill="#c0c0c0">Helpers</text>
</g>
<g id="clust11" class="cluster">
<title>cluster_\Firesphere\SolrSearch\Tasks</title>
<path fill="none" stroke="#c0c0c0" d="M597.7549,-2888.9678C597.7549,-2888.9678 747.7549,-2888.9678 747.7549,-2888.9678 753.7549,-2888.9678 759.7549,-2894.9678 759.7549,-2900.9678 759.7549,-2900.9678 759.7549,-3110.9678 759.7549,-3110.9678 759.7549,-3116.9678 753.7549,-3122.9678 747.7549,-3122.9678 747.7549,-3122.9678 597.7549,-3122.9678 597.7549,-3122.9678 591.7549,-3122.9678 585.7549,-3116.9678 585.7549,-3110.9678 585.7549,-3110.9678 585.7549,-2900.9678 585.7549,-2900.9678 585.7549,-2894.9678 591.7549,-2888.9678 597.7549,-2888.9678"/>
<text text-anchor="middle" x="672.7549" y="-3110.1678" font-family="Times,serif" font-size="11.00" fill="#c0c0c0">Tasks</text>
</g>
<g id="clust12" class="cluster">
<title>cluster_\Firesphere\SolrSearch\Queries</title>
<path fill="none" stroke="#c0c0c0" d="M638.2549,-2808.9678C638.2549,-2808.9678 707.2549,-2808.9678 707.2549,-2808.9678 713.2549,-2808.9678 719.2549,-2814.9678 719.2549,-2820.9678 719.2549,-2820.9678 719.2549,-2868.9678 719.2549,-2868.9678 719.2549,-2874.9678 713.2549,-2880.9678 707.2549,-2880.9678 707.2549,-2880.9678 638.2549,-2880.9678 638.2549,-2880.9678 632.2549,-2880.9678 626.2549,-2874.9678 626.2549,-2868.9678 626.2549,-2868.9678 626.2549,-2820.9678 626.2549,-2820.9678 626.2549,-2814.9678 632.2549,-2808.9678 638.2549,-2808.9678"/>
<text text-anchor="middle" x="672.7549" y="-2868.1678" font-family="Times,serif" font-size="11.00" fill="#c0c0c0">Queries</text>
</g>
<g id="clust13" class="cluster">
<title>cluster_\Firesphere\SolrSearch\Forms</title>
<path fill="none" stroke="#c0c0c0" d="M634.7549,-2460.9678C634.7549,-2460.9678 710.7549,-2460.9678 710.7549,-2460.9678 716.7549,-2460.9678 722.7549,-2466.9678 722.7549,-2472.9678 722.7549,-2472.9678 722.7549,-2520.9678 722.7549,-2520.9678 722.7549,-2526.9678 716.7549,-2532.9678 710.7549,-2532.9678 710.7549,-2532.9678 634.7549,-2532.9678 634.7549,-2532.9678 628.7549,-2532.9678 622.7549,-2526.9678 622.7549,-2520.9678 622.7549,-2520.9678 622.7549,-2472.9678 622.7549,-2472.9678 622.7549,-2466.9678 628.7549,-2460.9678 634.7549,-2460.9678"/>
<text text-anchor="middle" x="672.7549" y="-2520.1678" font-family="Times,serif" font-size="11.00" fill="#c0c0c0">Forms</text>
</g>
<g id="clust14" class="cluster">
<title>cluster_\Firesphere\SolrSearch\Jobs</title>
<path fill="none" stroke="#c0c0c0" d="M600.7549,-2272.9678C600.7549,-2272.9678 744.7549,-2272.9678 744.7549,-2272.9678 750.7549,-2272.9678 756.7549,-2278.9678 756.7549,-2284.9678 756.7549,-2284.9678 756.7549,-2440.9678 756.7549,-2440.9678 756.7549,-2446.9678 750.7549,-2452.9678 744.7549,-2452.9678 744.7549,-2452.9678 600.7549,-2452.9678 600.7549,-2452.9678 594.7549,-2452.9678 588.7549,-2446.9678 588.7549,-2440.9678 588.7549,-2440.9678 588.7549,-2284.9678 588.7549,-2284.9678 588.7549,-2278.9678 594.7549,-2272.9678 600.7549,-2272.9678"/>
<text text-anchor="middle" x="672.7549" y="-2440.1678" font-family="Times,serif" font-size="11.00" fill="#c0c0c0">Jobs</text>
</g>
<g id="clust15" class="cluster">
<title>cluster_\Firesphere\SolrSearch\Stores</title>
<path fill="none" stroke="#c0c0c0" d="M617.7549,-2674.9678C617.7549,-2674.9678 727.7549,-2674.9678 727.7549,-2674.9678 733.7549,-2674.9678 739.7549,-2680.9678 739.7549,-2686.9678 739.7549,-2686.9678 739.7549,-2788.9678 739.7549,-2788.9678 739.7549,-2794.9678 733.7549,-2800.9678 727.7549,-2800.9678 727.7549,-2800.9678 617.7549,-2800.9678 617.7549,-2800.9678 611.7549,-2800.9678 605.7549,-2794.9678 605.7549,-2788.9678 605.7549,-2788.9678 605.7549,-2686.9678 605.7549,-2686.9678 605.7549,-2680.9678 611.7549,-2674.9678 617.7549,-2674.9678"/>
<text text-anchor="middle" x="672.7549" y="-2788.1678" font-family="Times,serif" font-size="11.00" fill="#c0c0c0">Stores</text>
</g>
<g id="clust16" class="cluster">
<title>cluster_\Firesphere\SolrSearch\Extensions</title>
<path fill="none" stroke="#c0c0c0" d="M604.2549,-2540.9678C604.2549,-2540.9678 741.2549,-2540.9678 741.2549,-2540.9678 747.2549,-2540.9678 753.2549,-2546.9678 753.2549,-2552.9678 753.2549,-2552.9678 753.2549,-2654.9678 753.2549,-2654.9678 753.2549,-2660.9678 747.2549,-2666.9678 741.2549,-2666.9678 741.2549,-2666.9678 604.2549,-2666.9678 604.2549,-2666.9678 598.2549,-2666.9678 592.2549,-2660.9678 592.2549,-2654.9678 592.2549,-2654.9678 592.2549,-2552.9678 592.2549,-2552.9678 592.2549,-2546.9678 598.2549,-2540.9678 604.2549,-2540.9678"/>
<text text-anchor="middle" x="672.7549" y="-2654.1678" font-family="Times,serif" font-size="11.00" fill="#c0c0c0">Extensions</text>
</g>
<g id="clust17" class="cluster">
<title>cluster_\Firesphere\SolrSearch\Interfaces</title>
<path fill="none" stroke="#c0c0c0" d="M189.1275,-2647.9678C189.1275,-2647.9678 319.1275,-2647.9678 319.1275,-2647.9678 325.1275,-2647.9678 331.1275,-2653.9678 331.1275,-2659.9678 331.1275,-2659.9678 331.1275,-2761.9678 331.1275,-2761.9678 331.1275,-2767.9678 325.1275,-2773.9678 319.1275,-2773.9678 319.1275,-2773.9678 189.1275,-2773.9678 189.1275,-2773.9678 183.1275,-2773.9678 177.1275,-2767.9678 177.1275,-2761.9678 177.1275,-2761.9678 177.1275,-2659.9678 177.1275,-2659.9678 177.1275,-2653.9678 183.1275,-2647.9678 189.1275,-2647.9678"/>
<text text-anchor="middle" x="254.1275" y="-2761.1678" font-family="Times,serif" font-size="11.00" fill="#c0c0c0">Interfaces</text>
</g>
<g id="clust18" class="cluster">
<title>cluster_\Firesphere\SolrSearch\Results</title>
<path fill="none" stroke="#c0c0c0" d="M627.7549,-2192.9678C627.7549,-2192.9678 717.7549,-2192.9678 717.7549,-2192.9678 723.7549,-2192.9678 729.7549,-2198.9678 729.7549,-2204.9678 729.7549,-2204.9678 729.7549,-2252.9678 729.7549,-2252.9678 729.7549,-2258.9678 723.7549,-2264.9678 717.7549,-2264.9678 717.7549,-2264.9678 627.7549,-2264.9678 627.7549,-2264.9678 621.7549,-2264.9678 615.7549,-2258.9678 615.7549,-2252.9678 615.7549,-2252.9678 615.7549,-2204.9678 615.7549,-2204.9678 615.7549,-2198.9678 621.7549,-2192.9678 627.7549,-2192.9678"/>
<text text-anchor="middle" x="672.7549" y="-2252.1678" font-family="Times,serif" font-size="11.00" fill="#c0c0c0">Results</text>
</g>
<g id="clust19" class="cluster">
<title>cluster_\Firesphere\SolrSearch\Admins</title>
<path fill="none" stroke="#c0c0c0" d="M631.2549,-2112.9678C631.2549,-2112.9678 714.2549,-2112.9678 714.2549,-2112.9678 720.2549,-2112.9678 726.2549,-2118.9678 726.2549,-2124.9678 726.2549,-2124.9678 726.2549,-2172.9678 726.2549,-2172.9678 726.2549,-2178.9678 720.2549,-2184.9678 714.2549,-2184.9678 714.2549,-2184.9678 631.2549,-2184.9678 631.2549,-2184.9678 625.2549,-2184.9678 619.2549,-2178.9678 619.2549,-2172.9678 619.2549,-2172.9678 619.2549,-2124.9678 619.2549,-2124.9678 619.2549,-2118.9678 625.2549,-2112.9678 631.2549,-2112.9678"/>
<text text-anchor="middle" x="672.7549" y="-2172.1678" font-family="Times,serif" font-size="11.00" fill="#c0c0c0">Admins</text>
</g>
<g id="clust20" class="cluster">
<title>cluster_\Firesphere\SolrSearch\Indexes</title>
<path fill="none" stroke="#c0c0c0" d="M634.7549,-2032.9678C634.7549,-2032.9678 710.7549,-2032.9678 710.7549,-2032.9678 716.7549,-2032.9678 722.7549,-2038.9678 722.7549,-2044.9678 722.7549,-2044.9678 722.7549,-2092.9678 722.7549,-2092.9678 722.7549,-2098.9678 716.7549,-2104.9678 710.7549,-2104.9678 710.7549,-2104.9678 634.7549,-2104.9678 634.7549,-2104.9678 628.7549,-2104.9678 622.7549,-2098.9678 622.7549,-2092.9678 622.7549,-2092.9678 622.7549,-2044.9678 622.7549,-2044.9678 622.7549,-2038.9678 628.7549,-2032.9678 634.7549,-2032.9678"/>
<text text-anchor="middle" x="672.7549" y="-2092.1678" font-family="Times,serif" font-size="11.00" fill="#c0c0c0">Indexes</text>
</g>
<g id="clust21" class="cluster">
<title>cluster_\Firesphere\SolrSearch\Services</title>
<path fill="none" stroke="#c0c0c0" d="M617.7549,-1898.9678C617.7549,-1898.9678 727.7549,-1898.9678 727.7549,-1898.9678 733.7549,-1898.9678 739.7549,-1904.9678 739.7549,-1910.9678 739.7549,-1910.9678 739.7549,-2012.9678 739.7549,-2012.9678 739.7549,-2018.9678 733.7549,-2024.9678 727.7549,-2024.9678 727.7549,-2024.9678 617.7549,-2024.9678 617.7549,-2024.9678 611.7549,-2024.9678 605.7549,-2018.9678 605.7549,-2012.9678 605.7549,-2012.9678 605.7549,-1910.9678 605.7549,-1910.9678 605.7549,-1904.9678 611.7549,-1898.9678 617.7549,-1898.9678"/>
<text text-anchor="middle" x="672.7549" y="-2012.1678" font-family="Times,serif" font-size="11.00" fill="#c0c0c0">Services</text>
</g>
<g id="clust22" class="cluster">
<title>cluster_\Firesphere\SolrSearch\Models</title>
<path fill="none" stroke="#c0c0c0" d="M624.7549,-1710.9678C624.7549,-1710.9678 720.7549,-1710.9678 720.7549,-1710.9678 726.7549,-1710.9678 732.7549,-1716.9678 732.7549,-1722.9678 732.7549,-1722.9678 732.7549,-1878.9678 732.7549,-1878.9678 732.7549,-1884.9678 726.7549,-1890.9678 720.7549,-1890.9678 720.7549,-1890.9678 624.7549,-1890.9678 624.7549,-1890.9678 618.7549,-1890.9678 612.7549,-1884.9678 612.7549,-1878.9678 612.7549,-1878.9678 612.7549,-1722.9678 612.7549,-1722.9678 612.7549,-1716.9678 618.7549,-1710.9678 624.7549,-1710.9678"/>
<text text-anchor="middle" x="672.7549" y="-1878.1678" font-family="Times,serif" font-size="11.00" fill="#c0c0c0">Models</text>
</g>
<g id="clust23" class="cluster">
<title>cluster_\Firesphere\SolrSearch\Factories</title>
<path fill="none" stroke="#c0c0c0" d="M597.7549,-1576.9678C597.7549,-1576.9678 747.7549,-1576.9678 747.7549,-1576.9678 753.7549,-1576.9678 759.7549,-1582.9678 759.7549,-1588.9678 759.7549,-1588.9678 759.7549,-1690.9678 759.7549,-1690.9678 759.7549,-1696.9678 753.7549,-1702.9678 747.7549,-1702.9678 747.7549,-1702.9678 597.7549,-1702.9678 597.7549,-1702.9678 591.7549,-1702.9678 585.7549,-1696.9678 585.7549,-1690.9678 585.7549,-1690.9678 585.7549,-1588.9678 585.7549,-1588.9678 585.7549,-1582.9678 591.7549,-1576.9678 597.7549,-1576.9678"/>
<text text-anchor="middle" x="672.7549" y="-1690.1678" font-family="Times,serif" font-size="11.00" fill="#c0c0c0">Factories</text>
</g>
<g id="clust24" class="cluster">
<title>cluster_\Firesphere\SolrSearch\States</title>
<path fill="none" stroke="#c0c0c0" d="M634.7549,-1496.9678C634.7549,-1496.9678 710.7549,-1496.9678 710.7549,-1496.9678 716.7549,-1496.9678 722.7549,-1502.9678 722.7549,-1508.9678 722.7549,-1508.9678 722.7549,-1556.9678 722.7549,-1556.9678 722.7549,-1562.9678 716.7549,-1568.9678 710.7549,-1568.9678 710.7549,-1568.9678 634.7549,-1568.9678 634.7549,-1568.9678 628.7549,-1568.9678 622.7549,-1562.9678 622.7549,-1556.9678 622.7549,-1556.9678 622.7549,-1508.9678 622.7549,-1508.9678 622.7549,-1502.9678 628.7549,-1496.9678 634.7549,-1496.9678"/>
<text text-anchor="middle" x="672.7549" y="-1556.1678" font-family="Times,serif" font-size="11.00" fill="#c0c0c0">States</text>
</g>
<g id="clust25" class="cluster">
<title>cluster_\Firesphere\SolrSearch\Traits</title>
<path fill="none" stroke="#c0c0c0" d="M584.2549,-660.9678C584.2549,-660.9678 761.2549,-660.9678 761.2549,-660.9678 767.2549,-660.9678 773.2549,-666.9678 773.2549,-672.9678 773.2549,-672.9678 773.2549,-1476.9678 773.2549,-1476.9678 773.2549,-1482.9678 767.2549,-1488.9678 761.2549,-1488.9678 761.2549,-1488.9678 584.2549,-1488.9678 584.2549,-1488.9678 578.2549,-1488.9678 572.2549,-1482.9678 572.2549,-1476.9678 572.2549,-1476.9678 572.2549,-672.9678 572.2549,-672.9678 572.2549,-666.9678 578.2549,-660.9678 584.2549,-660.9678"/>
<text text-anchor="middle" x="672.7549" y="-1476.1678" font-family="Times,serif" font-size="11.00" fill="#c0c0c0">Traits</text>
</g>
<g id="clust26" class="cluster">
<title>cluster_\Firesphere\SolrSearch\Fluent</title>
<path fill="none" stroke="#c0c0c0" d="M617.7549,-580.9678C617.7549,-580.9678 727.7549,-580.9678 727.7549,-580.9678 733.7549,-580.9678 739.7549,-586.9678 739.7549,-592.9678 739.7549,-592.9678 739.7549,-640.9678 739.7549,-640.9678 739.7549,-646.9678 733.7549,-652.9678 727.7549,-652.9678 727.7549,-652.9678 617.7549,-652.9678 617.7549,-652.9678 611.7549,-652.9678 605.7549,-646.9678 605.7549,-640.9678 605.7549,-640.9678 605.7549,-592.9678 605.7549,-592.9678 605.7549,-586.9678 611.7549,-580.9678 617.7549,-580.9678"/>
<text text-anchor="middle" x="672.7549" y="-640.1678" font-family="Times,serif" font-size="11.00" fill="#c0c0c0">Fluent</text>
</g>
<g id="clust27" class="cluster">
<title>cluster_\Firesphere\SolrSearch\Subsites</title>
<path fill="none" stroke="#c0c0c0" d="M611.2549,-500.9678C611.2549,-500.9678 734.2549,-500.9678 734.2549,-500.9678 740.2549,-500.9678 746.2549,-506.9678 746.2549,-512.9678 746.2549,-512.9678 746.2549,-560.9678 746.2549,-560.9678 746.2549,-566.9678 740.2549,-572.9678 734.2549,-572.9678 734.2549,-572.9678 611.2549,-572.9678 611.2549,-572.9678 605.2549,-572.9678 599.2549,-566.9678 599.2549,-560.9678 599.2549,-560.9678 599.2549,-512.9678 599.2549,-512.9678 599.2549,-506.9678 605.2549,-500.9678 611.2549,-500.9678"/>
<text text-anchor="middle" x="672.7549" y="-560.1678" font-family="Times,serif" font-size="11.00" fill="#c0c0c0">Subsites</text>
</g>
<!-- \\SilverStripe\\FullTextSearch\\Search\\Queries\\SearchQuery -->
<g id="node1" class="node">
<title>\\SilverStripe\\FullTextSearch\\Search\\Queries\\SearchQuery</title>
<polygon fill="none" stroke="#000000" points="928.2549,-2535.9678 837.2549,-2535.9678 837.2549,-2499.9678 928.2549,-2499.9678 928.2549,-2535.9678"/>
<text text-anchor="middle" x="882.7549" y="-2515.1678" font-family="Courier,monospace" font-size="11.00" fill="#000000">SearchQuery</text>
</g>
<!-- \\Firesphere\\SolrSearch\\Queries\\BaseQuery -->
<g id="node14" class="node">
<title>\\Firesphere\\SolrSearch\\Queries\\BaseQuery</title>
<polygon fill="none" stroke="#000000" points="711.2549,-2852.9678 634.2549,-2852.9678 634.2549,-2816.9678 711.2549,-2816.9678 711.2549,-2852.9678"/>
<text text-anchor="middle" x="672.7549" y="-2832.1678" font-family="Courier,monospace" font-size="11.00" fill="#000000">BaseQuery</text>
</g>
<!-- \\SilverStripe\\FullTextSearch\\Search\\Queries\\SearchQuery&#45;&gt;\\Firesphere\\SolrSearch\\Queries\\BaseQuery -->
<g id="edge1" class="edge">
<title>\\SilverStripe\\FullTextSearch\\Search\\Queries\\SearchQuery&#45;&gt;\\Firesphere\\SolrSearch\\Queries\\BaseQuery</title>
<path fill="none" stroke="#000000" d="M879.1708,-2536.3059C867.6504,-2593.4507 829.9402,-2766.7646 789.2549,-2804.9678 771.0849,-2822.0293 744.5383,-2829.7031 721.3736,-2833.034"/>
<polygon fill="none" stroke="#000000" points="720.8585,-2829.5707 711.35,-2834.2438 721.6973,-2836.5203 720.8585,-2829.5707"/>
</g>
<!-- \\SilverStripe\\FullTextSearch\\Solr\\Solr -->
<g id="node2" class="node">
<title>\\SilverStripe\\FullTextSearch\\Solr\\Solr</title>
<polygon fill="none" stroke="#000000" points="909.7549,-2447.9678 855.7549,-2447.9678 855.7549,-2411.9678 909.7549,-2411.9678 909.7549,-2447.9678"/>
<text text-anchor="middle" x="882.7549" y="-2427.1678" font-family="Courier,monospace" font-size="11.00" fill="#000000">Solr</text>
</g>
<!-- \\SilverStripe\\FullTextSearch\\Solr\\SolrIndex -->
<g id="node3" class="node">
<title>\\SilverStripe\\FullTextSearch\\Solr\\SolrIndex</title>
<polygon fill="none" stroke="#000000" points="924.7549,-2393.9678 840.7549,-2393.9678 840.7549,-2357.9678 924.7549,-2357.9678 924.7549,-2393.9678"/>
<text text-anchor="start" x="848.7549" y="-2379.1678" font-family="Courier,monospace" font-size="11.00" fill="#000000">«abstract»</text>
<text text-anchor="start" x="852.2549" y="-2367.1678" font-family="Courier,monospace" font-size="11.00" fill="#000000">SolrIndex</text>
</g>
<!-- \\Firesphere\\SolrSearch\\Indexes\\BaseIndex -->
<g id="node27" class="node">
<title>\\Firesphere\\SolrSearch\\Indexes\\BaseIndex</title>
<polygon fill="none" stroke="#000000" points="714.7549,-2076.9678 630.7549,-2076.9678 630.7549,-2040.9678 714.7549,-2040.9678 714.7549,-2076.9678"/>
<text text-anchor="start" x="638.7549" y="-2062.1678" font-family="Courier,monospace" font-size="11.00" fill="#000000">«abstract»</text>
<text text-anchor="start" x="642.2549" y="-2050.1678" font-family="Courier,monospace" font-size="11.00" fill="#000000">BaseIndex</text>
</g>
<!-- \\SilverStripe\\FullTextSearch\\Solr\\SolrIndex&#45;&gt;\\Firesphere\\SolrSearch\\Indexes\\BaseIndex -->
<g id="edge3" class="edge">
<title>\\SilverStripe\\FullTextSearch\\Solr\\SolrIndex&#45;&gt;\\Firesphere\\SolrSearch\\Indexes\\BaseIndex</title>
<path fill="none" stroke="#000000" d="M881.3498,-2357.8538C876.7699,-2310.7436 858.3024,-2182.9197 789.2549,-2108.9678 772.1143,-2090.6097 747.1065,-2078.6832 724.6509,-2071.1021"/>
<polygon fill="none" stroke="#000000" points="725.4732,-2067.6914 714.8833,-2068.0152 723.3637,-2074.366 725.4732,-2067.6914"/>
</g>
<!-- \\Firesphere\\SolrSearch\\Compat\\FulltextSearchExtension -->
<g id="node4" class="node">
<title>\\Firesphere\\SolrSearch\\Compat\\FulltextSearchExtension</title>
<polygon fill="none" stroke="#000000" points="758.7549,-3470.9678 586.7549,-3470.9678 586.7549,-3434.9678 758.7549,-3434.9678 758.7549,-3470.9678"/>
<text text-anchor="middle" x="672.7549" y="-3450.1678" font-family="Courier,monospace" font-size="11.00" fill="#000000">FulltextSearchExtension</text>
</g>
<!-- \\SilverStripe\\Core\\Extension -->
<g id="node53" class="node">
<title>\\SilverStripe\\Core\\Extension</title>
<ellipse fill="none" stroke="#000000" cx="254.1275" cy="-396.9678" rx="144.0747" ry="18"/>
<text text-anchor="middle" x="254.1275" y="-393.2678" font-family="Times,serif" font-size="14.00" fill="#c0c0c0">\SilverStripe\Core\Extension</text>
</g>
<!-- \\Firesphere\\SolrSearch\\Compat\\FulltextSearchExtension&#45;&gt;\\SilverStripe\\Core\\Extension -->
<g id="edge2" class="edge">
<title>\\Firesphere\\SolrSearch\\Compat\\FulltextSearchExtension&#45;&gt;\\SilverStripe\\Core\\Extension</title>
<path fill="none" stroke="#000000" d="M586.4594,-3436.1335C581.0699,-3432.5232 576.2273,-3428.1822 572.2549,-3422.9678 471.2655,-3290.4044 621.0105,-546.6791 508.2549,-423.9678 466.4135,-378.432 394.8016,-374.4771 338.2401,-380.3234"/>
<polygon fill="none" stroke="#000000" points="337.759,-376.8556 328.2245,-381.4756 338.559,-383.8097 337.759,-376.8556"/>
</g>
<!-- \\Firesphere\\SolrSearch\\Helpers\\DataResolver -->
<g id="node5" class="node">
<title>\\Firesphere\\SolrSearch\\Helpers\\DataResolver</title>
<polygon fill="none" stroke="#000000" points="721.7549,-3390.9678 623.7549,-3390.9678 623.7549,-3354.9678 721.7549,-3354.9678 721.7549,-3390.9678"/>
<text text-anchor="middle" x="672.7549" y="-3370.1678" font-family="Courier,monospace" font-size="11.00" fill="#000000">DataResolver</text>
</g>
<!-- \\Firesphere\\SolrSearch\\Helpers\\Statics -->
<g id="node6" class="node">
<title>\\Firesphere\\SolrSearch\\Helpers\\Statics</title>
<polygon fill="none" stroke="#000000" points="704.7549,-3336.9678 640.7549,-3336.9678 640.7549,-3300.9678 704.7549,-3300.9678 704.7549,-3336.9678"/>
<text text-anchor="middle" x="672.7549" y="-3316.1678" font-family="Courier,monospace" font-size="11.00" fill="#000000">Statics</text>
</g>
<!-- \\Firesphere\\SolrSearch\\Helpers\\SolrLogger -->
<g id="node7" class="node">
<title>\\Firesphere\\SolrSearch\\Helpers\\SolrLogger</title>
<polygon fill="none" stroke="#000000" points="714.7549,-3282.9678 630.7549,-3282.9678 630.7549,-3246.9678 714.7549,-3246.9678 714.7549,-3282.9678"/>
<text text-anchor="middle" x="672.7549" y="-3262.1678" font-family="Courier,monospace" font-size="11.00" fill="#000000">SolrLogger</text>
</g>
<!-- \\Firesphere\\SolrSearch\\Helpers\\FieldResolver -->
<g id="node8" class="node">
<title>\\Firesphere\\SolrSearch\\Helpers\\FieldResolver</title>
<polygon fill="none" stroke="#000000" points="724.7549,-3228.9678 620.7549,-3228.9678 620.7549,-3192.9678 724.7549,-3192.9678 724.7549,-3228.9678"/>
<text text-anchor="middle" x="672.7549" y="-3208.1678" font-family="Courier,monospace" font-size="11.00" fill="#000000">FieldResolver</text>
</g>
<!-- \\Firesphere\\SolrSearch\\Helpers\\Synonyms -->
<g id="node9" class="node">
<title>\\Firesphere\\SolrSearch\\Helpers\\Synonyms</title>
<polygon fill="none" stroke="#000000" points="708.2549,-3174.9678 637.2549,-3174.9678 637.2549,-3138.9678 708.2549,-3138.9678 708.2549,-3174.9678"/>
<text text-anchor="middle" x="672.7549" y="-3154.1678" font-family="Courier,monospace" font-size="11.00" fill="#000000">Synonyms</text>
</g>
<!-- \\Firesphere\\SolrSearch\\Tasks\\ClearDirtyClassesTask -->
<g id="node10" class="node">
<title>\\Firesphere\\SolrSearch\\Tasks\\ClearDirtyClassesTask</title>
<polygon fill="none" stroke="#000000" points="751.7549,-3094.9678 593.7549,-3094.9678 593.7549,-3058.9678 751.7549,-3058.9678 751.7549,-3094.9678"/>
<text text-anchor="middle" x="672.7549" y="-3074.1678" font-family="Courier,monospace" font-size="11.00" fill="#000000">ClearDirtyClassesTask</text>
</g>
<!-- \\SilverStripe\\Dev\\BuildTask -->
<g id="node54" class="node">
<title>\\SilverStripe\\Dev\\BuildTask</title>
<ellipse fill="none" stroke="#000000" cx="254.1275" cy="-450.9678" rx="139.9756" ry="18"/>
<text text-anchor="middle" x="254.1275" y="-447.2678" font-family="Times,serif" font-size="14.00" fill="#c0c0c0">\SilverStripe\Dev\BuildTask</text>
</g>
<!-- \\Firesphere\\SolrSearch\\Tasks\\ClearDirtyClassesTask&#45;&gt;\\SilverStripe\\Dev\\BuildTask -->
<g id="edge4" class="edge">
<title>\\Firesphere\\SolrSearch\\Tasks\\ClearDirtyClassesTask&#45;&gt;\\SilverStripe\\Dev\\BuildTask</title>
<path fill="none" stroke="#000000" d="M593.2764,-3065.6675C585.3237,-3061.7665 578.0593,-3056.652 572.2549,-3049.9678 549.8852,-3024.2075 289.4956,-759.3345 257.3711,-479.269"/>
<polygon fill="none" stroke="#000000" points="260.8235,-478.6531 256.2069,-469.117 253.8691,-479.4507 260.8235,-478.6531"/>
</g>
<!-- \\Firesphere\\SolrSearch\\Tasks\\SolrIndexTask -->
<g id="node11" class="node">
<title>\\Firesphere\\SolrSearch\\Tasks\\SolrIndexTask</title>
<polygon fill="none" stroke="#000000" points="724.7549,-3040.9678 620.7549,-3040.9678 620.7549,-3004.9678 724.7549,-3004.9678 724.7549,-3040.9678"/>
<text text-anchor="middle" x="672.7549" y="-3020.1678" font-family="Courier,monospace" font-size="11.00" fill="#000000">SolrIndexTask</text>
</g>
<!-- \\Firesphere\\SolrSearch\\Tasks\\SolrIndexTask&#45;&gt;\\SilverStripe\\Dev\\BuildTask -->
<g id="edge5" class="edge">
<title>\\Firesphere\\SolrSearch\\Tasks\\SolrIndexTask&#45;&gt;\\SilverStripe\\Dev\\BuildTask</title>
<path fill="none" stroke="#000000" d="M620.5415,-3020.4998C602.7678,-3016.9758 584.3553,-3009.8663 572.2549,-2995.9678 528.4118,-2945.6096 287.3298,-754.3209 257.2164,-479.2344"/>
<polygon fill="none" stroke="#000000" points="260.6903,-478.8049 256.1234,-469.2449 253.7319,-479.5663 260.6903,-478.8049"/>
</g>
<!-- \\Firesphere\\SolrSearch\\Tasks\\SolrConfigureTask -->
<g id="node12" class="node">
<title>\\Firesphere\\SolrSearch\\Tasks\\SolrConfigureTask</title>
<polygon fill="none" stroke="#000000" points="738.2549,-2986.9678 607.2549,-2986.9678 607.2549,-2950.9678 738.2549,-2950.9678 738.2549,-2986.9678"/>
<text text-anchor="middle" x="672.7549" y="-2966.1678" font-family="Courier,monospace" font-size="11.00" fill="#000000">SolrConfigureTask</text>
</g>
<!-- \\Firesphere\\SolrSearch\\Tasks\\SolrConfigureTask&#45;&gt;\\SilverStripe\\Dev\\BuildTask -->
<g id="edge6" class="edge">
<title>\\Firesphere\\SolrSearch\\Tasks\\SolrConfigureTask&#45;&gt;\\SilverStripe\\Dev\\BuildTask</title>
<path fill="none" stroke="#000000" d="M607.2206,-2963.1166C593.9756,-2958.9797 581.3441,-2952.3796 572.2549,-2941.9678 529.3053,-2892.7684 287.9242,-752.2142 257.3185,-479.4556"/>
<polygon fill="none" stroke="#000000" points="260.7612,-478.748 256.1684,-469.2004 253.8048,-479.5282 260.7612,-478.748"/>
</g>
<!-- \\Firesphere\\SolrSearch\\Tasks\\ClearErrorsTask -->
<g id="node13" class="node">
<title>\\Firesphere\\SolrSearch\\Tasks\\ClearErrorsTask</title>
<polygon fill="none" stroke="#000000" points="731.7549,-2932.9678 613.7549,-2932.9678 613.7549,-2896.9678 731.7549,-2896.9678 731.7549,-2932.9678"/>
<text text-anchor="middle" x="672.7549" y="-2912.1678" font-family="Courier,monospace" font-size="11.00" fill="#000000">ClearErrorsTask</text>
</g>
<!-- \\Firesphere\\SolrSearch\\Tasks\\ClearErrorsTask&#45;&gt;\\SilverStripe\\Dev\\BuildTask -->
<g id="edge7" class="edge">
<title>\\Firesphere\\SolrSearch\\Tasks\\ClearErrorsTask&#45;&gt;\\SilverStripe\\Dev\\BuildTask</title>
<path fill="none" stroke="#000000" d="M613.6623,-2909.077C598.1089,-2904.6922 582.7609,-2897.3067 572.2549,-2884.9678 489.568,-2787.8551 283.2712,-743.2682 256.9137,-479.0153"/>
<polygon fill="none" stroke="#000000" points="260.3964,-478.6664 255.9222,-469.0627 253.4308,-479.3604 260.3964,-478.6664"/>
</g>
<!-- \\Firesphere\\SolrSearch\\Forms\\SearchForm -->
<g id="node15" class="node">
<title>\\Firesphere\\SolrSearch\\Forms\\SearchForm</title>
<polygon fill="none" stroke="#000000" points="714.7549,-2504.9678 630.7549,-2504.9678 630.7549,-2468.9678 714.7549,-2468.9678 714.7549,-2504.9678"/>
<text text-anchor="middle" x="672.7549" y="-2484.1678" font-family="Courier,monospace" font-size="11.00" fill="#000000">SearchForm</text>
</g>
<!-- \\SilverStripe\\Forms\\Form -->
<g id="node55" class="node">
<title>\\SilverStripe\\Forms\\Form</title>
<ellipse fill="none" stroke="#000000" cx="254.1275" cy="-342.9678" rx="129.1772" ry="18"/>
<text text-anchor="middle" x="254.1275" y="-339.2678" font-family="Times,serif" font-size="14.00" fill="#c0c0c0">\SilverStripe\Forms\Form</text>
</g>
<!-- \\Firesphere\\SolrSearch\\Forms\\SearchForm&#45;&gt;\\SilverStripe\\Forms\\Form -->
<g id="edge8" class="edge">
<title>\\Firesphere\\SolrSearch\\Forms\\SearchForm&#45;&gt;\\SilverStripe\\Forms\\Form</title>
<path fill="none" stroke="#000000" d="M630.6193,-2485.4641C609.644,-2482.3391 585.9102,-2474.7201 572.2549,-2456.9678 430.8056,-2273.0789 666.0202,-540.0652 508.2549,-369.9678 465.5613,-323.937 392.4214,-320.5438 335.5377,-326.7163"/>
<polygon fill="none" stroke="#000000" points="334.9889,-323.257 325.4775,-327.9244 335.8235,-330.207 334.9889,-323.257"/>
</g>
<!-- \\Firesphere\\SolrSearch\\Jobs\\SolrConfigureJob -->
<g id="node16" class="node">
<title>\\Firesphere\\SolrSearch\\Jobs\\SolrConfigureJob</title>
<polygon fill="none" stroke="#000000" points="735.2549,-2424.9678 610.2549,-2424.9678 610.2549,-2388.9678 735.2549,-2388.9678 735.2549,-2424.9678"/>
<text text-anchor="middle" x="672.7549" y="-2404.1678" font-family="Courier,monospace" font-size="11.00" fill="#000000">SolrConfigureJob</text>
</g>
<!-- \\Symbiote\\QueuedJobs\\Services\\AbstractQueuedJob -->
<g id="node56" class="node">
<title>\\Symbiote\\QueuedJobs\\Services\\AbstractQueuedJob</title>
<ellipse fill="none" stroke="#000000" cx="254.1275" cy="-288.9678" rx="254.255" ry="18"/>
<text text-anchor="middle" x="254.1275" y="-285.2678" font-family="Times,serif" font-size="14.00" fill="#c0c0c0">\Symbiote\QueuedJobs\Services\AbstractQueuedJob</text>
</g>
<!-- \\Firesphere\\SolrSearch\\Jobs\\SolrConfigureJob&#45;&gt;\\Symbiote\\QueuedJobs\\Services\\AbstractQueuedJob -->
<g id="edge9" class="edge">
<title>\\Firesphere\\SolrSearch\\Jobs\\SolrConfigureJob&#45;&gt;\\Symbiote\\QueuedJobs\\Services\\AbstractQueuedJob</title>
<path fill="none" stroke="#000000" d="M610.1111,-2402.8221C595.5664,-2398.7797 581.6189,-2391.7953 572.2549,-2379.9678 429.8335,-2200.0776 664.3119,-484.1658 508.2549,-315.9678 469.6284,-274.3362 406.0962,-267.5863 352.2208,-271.2442"/>
<polygon fill="none" stroke="#000000" points="351.6197,-267.7813 341.9337,-272.0746 352.1829,-274.7586 351.6197,-267.7813"/>
</g>
<!-- \\Firesphere\\SolrSearch\\Jobs\\ClearDirtyClassesJob -->
<g id="node17" class="node">
<title>\\Firesphere\\SolrSearch\\Jobs\\ClearDirtyClassesJob</title>
<polygon fill="none" stroke="#000000" points="748.7549,-2370.9678 596.7549,-2370.9678 596.7549,-2334.9678 748.7549,-2334.9678 748.7549,-2370.9678"/>
<text text-anchor="middle" x="672.7549" y="-2350.1678" font-family="Courier,monospace" font-size="11.00" fill="#000000">ClearDirtyClassesJob</text>
</g>
<!-- \\Firesphere\\SolrSearch\\Jobs\\ClearDirtyClassesJob&#45;&gt;\\Symbiote\\QueuedJobs\\Services\\AbstractQueuedJob -->
<g id="edge10" class="edge">
<title>\\Firesphere\\SolrSearch\\Jobs\\ClearDirtyClassesJob&#45;&gt;\\Symbiote\\QueuedJobs\\Services\\AbstractQueuedJob</title>
<path fill="none" stroke="#000000" d="M596.5771,-2344.0188C587.1804,-2339.8546 578.6505,-2334.039 572.2549,-2325.9678 433.4831,-2150.8371 660.3011,-479.7063 508.2549,-315.9678 469.682,-274.4286 406.3119,-267.6272 352.5044,-271.2363"/>
<polygon fill="none" stroke="#000000" points="351.9187,-267.7718 342.2293,-272.0573 352.4763,-274.7496 351.9187,-267.7718"/>
</g>
<!-- \\Firesphere\\SolrSearch\\Jobs\\SolrIndexJob -->
<g id="node18" class="node">
<title>\\Firesphere\\SolrSearch\\Jobs\\SolrIndexJob</title>
<polygon fill="none" stroke="#000000" points="721.7549,-2316.9678 623.7549,-2316.9678 623.7549,-2280.9678 721.7549,-2280.9678 721.7549,-2316.9678"/>
<text text-anchor="middle" x="672.7549" y="-2296.1678" font-family="Courier,monospace" font-size="11.00" fill="#000000">SolrIndexJob</text>
</g>
<!-- \\Firesphere\\SolrSearch\\Jobs\\SolrIndexJob&#45;&gt;\\Symbiote\\QueuedJobs\\Services\\AbstractQueuedJob -->
<g id="edge11" class="edge">
<title>\\Firesphere\\SolrSearch\\Jobs\\SolrIndexJob&#45;&gt;\\Symbiote\\QueuedJobs\\Services\\AbstractQueuedJob</title>
<path fill="none" stroke="#000000" d="M623.6464,-2296.2527C604.5746,-2292.5299 584.428,-2284.7589 572.2549,-2268.9678 439.698,-2097.0136 656.0676,-474.9991 508.2549,-315.9678 469.6627,-274.4465 406.2926,-267.6452 352.4899,-271.2498"/>
<polygon fill="none" stroke="#000000" points="351.9055,-267.7852 342.2157,-272.0699 352.4626,-274.763 351.9055,-267.7852"/>
</g>
<!-- \\Firesphere\\SolrSearch\\Stores\\FileConfigStore -->
<g id="node19" class="node">
<title>\\Firesphere\\SolrSearch\\Stores\\FileConfigStore</title>
<polygon fill="none" stroke="#000000" points="731.7549,-2772.9678 613.7549,-2772.9678 613.7549,-2736.9678 731.7549,-2736.9678 731.7549,-2772.9678"/>
<text text-anchor="middle" x="672.7549" y="-2752.1678" font-family="Courier,monospace" font-size="11.00" fill="#000000">FileConfigStore</text>
</g>
<!-- \\Firesphere\\SolrSearch\\Interfaces\\ConfigStore -->
<g id="node23" class="node">
<title>\\Firesphere\\SolrSearch\\Interfaces\\ConfigStore</title>
<polygon fill="none" stroke="#000000" points="299.6275,-2745.9678 208.6275,-2745.9678 208.6275,-2709.9678 299.6275,-2709.9678 299.6275,-2745.9678"/>
<text text-anchor="middle" x="254.1275" y="-2725.1678" font-family="Courier,monospace" font-size="11.00" fill="#000000">ConfigStore</text>
</g>
<!-- \\Firesphere\\SolrSearch\\Stores\\FileConfigStore&#45;&gt;\\Firesphere\\SolrSearch\\Interfaces\\ConfigStore -->
<g id="edge12" class="edge">
<title>\\Firesphere\\SolrSearch\\Stores\\FileConfigStore&#45;&gt;\\Firesphere\\SolrSearch\\Interfaces\\ConfigStore</title>
<path fill="none" stroke="#000000" stroke-dasharray="1,5" d="M613.6637,-2751.1566C532.8854,-2745.9467 389.0185,-2736.6678 309.9722,-2731.5696"/>
<polygon fill="none" stroke="#000000" points="309.9333,-2728.0599 299.7287,-2730.9089 309.4827,-2735.0454 309.9333,-2728.0599"/>
</g>
<!-- \\Firesphere\\SolrSearch\\Stores\\PostConfigStore -->
<g id="node20" class="node">
<title>\\Firesphere\\SolrSearch\\Stores\\PostConfigStore</title>
<polygon fill="none" stroke="#000000" points="731.7549,-2718.9678 613.7549,-2718.9678 613.7549,-2682.9678 731.7549,-2682.9678 731.7549,-2718.9678"/>
<text text-anchor="middle" x="672.7549" y="-2698.1678" font-family="Courier,monospace" font-size="11.00" fill="#000000">PostConfigStore</text>
</g>
<!-- \\Firesphere\\SolrSearch\\Stores\\PostConfigStore&#45;&gt;\\Firesphere\\SolrSearch\\Interfaces\\ConfigStore -->
<g id="edge13" class="edge">
<title>\\Firesphere\\SolrSearch\\Stores\\PostConfigStore&#45;&gt;\\Firesphere\\SolrSearch\\Interfaces\\ConfigStore</title>
<path fill="none" stroke="#000000" stroke-dasharray="1,5" d="M613.6637,-2704.779C532.8854,-2709.9889 389.0185,-2719.2678 309.9722,-2724.366"/>
<polygon fill="none" stroke="#000000" points="309.4827,-2720.8902 299.7287,-2725.0267 309.9333,-2727.8757 309.4827,-2720.8902"/>
</g>
<!-- \\Firesphere\\SolrSearch\\Extensions\\GridFieldExtension -->
<g id="node21" class="node">
<title>\\Firesphere\\SolrSearch\\Extensions\\GridFieldExtension</title>
<polygon fill="none" stroke="#000000" points="741.7549,-2638.9678 603.7549,-2638.9678 603.7549,-2602.9678 741.7549,-2602.9678 741.7549,-2638.9678"/>
<text text-anchor="middle" x="672.7549" y="-2618.1678" font-family="Courier,monospace" font-size="11.00" fill="#000000">GridFieldExtension</text>
</g>
<!-- \\Firesphere\\SolrSearch\\Extensions\\GridFieldExtension&#45;&gt;\\SilverStripe\\Core\\Extension -->
<g id="edge14" class="edge">
<title>\\Firesphere\\SolrSearch\\Extensions\\GridFieldExtension&#45;&gt;\\SilverStripe\\Core\\Extension</title>
<path fill="none" stroke="#000000" d="M603.6206,-2614.8119C591.4822,-2610.5888 580.2095,-2604.0308 572.2549,-2593.9678 422.6692,-2404.7344 672.1851,-600.9199 508.2549,-423.9678 466.2994,-378.6795 394.8751,-374.6463 338.4118,-380.4004"/>
<polygon fill="none" stroke="#000000" points="337.954,-376.9298 328.4128,-381.5359 338.7439,-383.8851 337.954,-376.9298"/>
</g>
<!-- \\Firesphere\\SolrSearch\\Extensions\\DataObjectExtension -->
<g id="node22" class="node">
<title>\\Firesphere\\SolrSearch\\Extensions\\DataObjectExtension</title>
<polygon fill="none" stroke="#000000" points="745.2549,-2584.9678 600.2549,-2584.9678 600.2549,-2548.9678 745.2549,-2548.9678 745.2549,-2584.9678"/>
<text text-anchor="middle" x="672.7549" y="-2564.1678" font-family="Courier,monospace" font-size="11.00" fill="#000000">DataObjectExtension</text>
</g>
<!-- \\SilverStripe\\ORM\\DataExtension -->
<g id="node57" class="node">
<title>\\SilverStripe\\ORM\\DataExtension</title>
<ellipse fill="none" stroke="#000000" cx="254.1275" cy="-18.9678" rx="167.8704" ry="18"/>
<text text-anchor="middle" x="254.1275" y="-15.2678" font-family="Times,serif" font-size="14.00" fill="#c0c0c0">\SilverStripe\ORM\DataExtension</text>
</g>
<!-- \\Firesphere\\SolrSearch\\Extensions\\DataObjectExtension&#45;&gt;\\SilverStripe\\ORM\\DataExtension -->
<g id="edge15" class="edge">
<title>\\Firesphere\\SolrSearch\\Extensions\\DataObjectExtension&#45;&gt;\\SilverStripe\\ORM\\DataExtension</title>
<path fill="none" stroke="#000000" d="M600.1614,-2557.3787C589.3131,-2552.8261 579.3924,-2546.2947 572.2549,-2536.9678 488.1242,-2427.0308 602.1419,-147.6996 508.2549,-45.9678 467.3928,-1.6914 398.3737,3.2087 342.568,-1.9512"/>
<polygon fill="none" stroke="#000000" points="341.8928,1.4974 332.3114,-3.0245 342.6214,-5.4646 341.8928,1.4974"/>
</g>
<!-- \\Firesphere\\SolrSearch\\Interfaces\\SiteStateInterface -->
<g id="node24" class="node">
<title>\\Firesphere\\SolrSearch\\Interfaces\\SiteStateInterface</title>
<polygon fill="none" stroke="#000000" points="323.1275,-2691.9678 185.1275,-2691.9678 185.1275,-2655.9678 323.1275,-2655.9678 323.1275,-2691.9678"/>
<text text-anchor="middle" x="254.1275" y="-2671.1678" font-family="Courier,monospace" font-size="11.00" fill="#000000">SiteStateInterface</text>
</g>
<!-- \\Firesphere\\SolrSearch\\Results\\SearchResult -->
<g id="node25" class="node">
<title>\\Firesphere\\SolrSearch\\Results\\SearchResult</title>
<polygon fill="none" stroke="#000000" points="721.7549,-2236.9678 623.7549,-2236.9678 623.7549,-2200.9678 721.7549,-2200.9678 721.7549,-2236.9678"/>
<text text-anchor="middle" x="672.7549" y="-2216.1678" font-family="Courier,monospace" font-size="11.00" fill="#000000">SearchResult</text>
</g>
<!-- \\Firesphere\\SolrSearch\\Admins\\SearchAdmin -->
<g id="node26" class="node">
<title>\\Firesphere\\SolrSearch\\Admins\\SearchAdmin</title>
<polygon fill="none" stroke="#000000" points="718.2549,-2156.9678 627.2549,-2156.9678 627.2549,-2120.9678 718.2549,-2120.9678 718.2549,-2156.9678"/>
<text text-anchor="middle" x="672.7549" y="-2136.1678" font-family="Courier,monospace" font-size="11.00" fill="#000000">SearchAdmin</text>
</g>
<!-- \\SilverStripe\\Admin\\ModelAdmin -->
<g id="node58" class="node">
<title>\\SilverStripe\\Admin\\ModelAdmin</title>
<ellipse fill="none" stroke="#000000" cx="254.1275" cy="-234.9678" rx="165.1707" ry="18"/>
<text text-anchor="middle" x="254.1275" y="-231.2678" font-family="Times,serif" font-size="14.00" fill="#c0c0c0">\SilverStripe\Admin\ModelAdmin</text>
</g>
<!-- \\Firesphere\\SolrSearch\\Admins\\SearchAdmin&#45;&gt;\\SilverStripe\\Admin\\ModelAdmin -->
<g id="edge16" class="edge">
<title>\\Firesphere\\SolrSearch\\Admins\\SearchAdmin&#45;&gt;\\SilverStripe\\Admin\\ModelAdmin</title>
<path fill="none" stroke="#000000" d="M627.0436,-2136.8628C607.0117,-2133.411 585.1663,-2125.6842 572.2549,-2108.9678 446.732,-1946.454 648.1951,-412.2458 508.2549,-261.9678 467.2663,-217.9512 398.4271,-212.9806 342.7273,-218.046"/>
<polygon fill="none" stroke="#000000" points="342.0778,-214.5943 332.4894,-219.1014 342.7957,-221.5574 342.0778,-214.5943"/>
</g>
<!-- \\Firesphere\\SolrSearch\\Services\\SolrCoreService -->
<g id="node28" class="node">
<title>\\Firesphere\\SolrSearch\\Services\\SolrCoreService</title>
<polygon fill="none" stroke="#000000" points="731.7549,-1996.9678 613.7549,-1996.9678 613.7549,-1960.9678 731.7549,-1960.9678 731.7549,-1996.9678"/>
<text text-anchor="middle" x="672.7549" y="-1976.1678" font-family="Courier,monospace" font-size="11.00" fill="#000000">SolrCoreService</text>
</g>
<!-- \\Firesphere\\SolrSearch\\Services\\SchemaService -->
<g id="node29" class="node">
<title>\\Firesphere\\SolrSearch\\Services\\SchemaService</title>
<polygon fill="none" stroke="#000000" points="724.7549,-1942.9678 620.7549,-1942.9678 620.7549,-1906.9678 724.7549,-1906.9678 724.7549,-1942.9678"/>
<text text-anchor="middle" x="672.7549" y="-1922.1678" font-family="Courier,monospace" font-size="11.00" fill="#000000">SchemaService</text>
</g>
<!-- \\SilverStripe\\View\\ViewableData -->
<g id="node59" class="node">
<title>\\SilverStripe\\View\\ViewableData</title>
<ellipse fill="none" stroke="#000000" cx="254.1275" cy="-180.9678" rx="163.2712" ry="18"/>
<text text-anchor="middle" x="254.1275" y="-177.2678" font-family="Times,serif" font-size="14.00" fill="#c0c0c0">\SilverStripe\View\ViewableData</text>
</g>
<!-- \\Firesphere\\SolrSearch\\Services\\SchemaService&#45;&gt;\\SilverStripe\\View\\ViewableData -->
<g id="edge17" class="edge">
<title>\\Firesphere\\SolrSearch\\Services\\SchemaService&#45;&gt;\\SilverStripe\\View\\ViewableData</title>
<path fill="none" stroke="#000000" d="M620.5441,-1921.5719C602.4365,-1917.6188 583.7995,-1909.8639 572.2549,-1894.9678 457.3485,-1746.7028 636.3128,-345.0341 508.2549,-207.9678 467.1941,-164.0185 398.3592,-159.0439 342.6793,-164.0907"/>
<polygon fill="none" stroke="#000000" points="342.0351,-160.6383 332.4454,-165.1425 342.7509,-167.6017 342.0351,-160.6383"/>
</g>
<!-- \\Firesphere\\SolrSearch\\Models\\DirtyClass -->
<g id="node30" class="node">
<title>\\Firesphere\\SolrSearch\\Models\\DirtyClass</title>
<polygon fill="none" stroke="#000000" points="714.7549,-1808.9678 630.7549,-1808.9678 630.7549,-1772.9678 714.7549,-1772.9678 714.7549,-1808.9678"/>
<text text-anchor="middle" x="672.7549" y="-1788.1678" font-family="Courier,monospace" font-size="11.00" fill="#000000">DirtyClass</text>
</g>
<!-- \\SilverStripe\\ORM\\DataObject -->
<g id="node60" class="node">
<title>\\SilverStripe\\ORM\\DataObject</title>
<ellipse fill="none" stroke="#000000" cx="254.1275" cy="-126.9678" rx="152.9733" ry="18"/>
<text text-anchor="middle" x="254.1275" y="-123.2678" font-family="Times,serif" font-size="14.00" fill="#c0c0c0">\SilverStripe\ORM\DataObject</text>
</g>
<!-- \\Firesphere\\SolrSearch\\Models\\DirtyClass&#45;&gt;\\SilverStripe\\ORM\\DataObject -->
<g id="edge18" class="edge">
<title>\\Firesphere\\SolrSearch\\Models\\DirtyClass&#45;&gt;\\SilverStripe\\ORM\\DataObject</title>
<path fill="none" stroke="#000000" d="M630.5375,-1790.7054C609.6739,-1788.1848 586.0682,-1781.2594 572.2549,-1763.9678 460.5145,-1624.0896 630.5949,-284.6764 508.2549,-153.9678 466.7262,-109.5983 396.8848,-104.9795 340.9176,-110.276"/>
<polygon fill="none" stroke="#000000" points="340.2108,-106.8314 330.6387,-111.373 340.9537,-113.7919 340.2108,-106.8314"/>
</g>
<!-- \\Firesphere\\SolrSearch\\Models\\SolrLog -->
<g id="node31" class="node">
<title>\\Firesphere\\SolrSearch\\Models\\SolrLog</title>
<polygon fill="none" stroke="#000000" points="704.7549,-1754.9678 640.7549,-1754.9678 640.7549,-1718.9678 704.7549,-1718.9678 704.7549,-1754.9678"/>
<text text-anchor="middle" x="672.7549" y="-1734.1678" font-family="Courier,monospace" font-size="11.00" fill="#000000">SolrLog</text>
</g>
<!-- \\Firesphere\\SolrSearch\\Models\\SolrLog&#45;&gt;\\SilverStripe\\ORM\\DataObject -->
<g id="edge19" class="edge">
<title>\\Firesphere\\SolrSearch\\Models\\SolrLog&#45;&gt;\\SilverStripe\\ORM\\DataObject</title>
<path fill="none" stroke="#000000" d="M640.6405,-1736.6072C617.7246,-1734.4748 588.239,-1727.5228 572.2549,-1706.9678 466.239,-1570.635 626.3623,-279.9702 508.2549,-153.9678 466.7653,-109.7047 397.0946,-105.0236 341.1852,-110.2684"/>
<polygon fill="none" stroke="#000000" points="340.4915,-106.8222 330.9157,-111.356 341.2287,-113.7833 340.4915,-106.8222"/>
</g>
<!-- \\SilverStripe\\Security\\PermissionProvider -->
<g id="node61" class="node">
<title>\\SilverStripe\\Security\\PermissionProvider</title>
<ellipse fill="none" stroke="#000000" cx="254.1275" cy="-72.9678" rx="206.0634" ry="18"/>
<text text-anchor="middle" x="254.1275" y="-69.2678" font-family="Times,serif" font-size="14.00" fill="#c0c0c0">\SilverStripe\Security\PermissionProvider</text>
</g>
<!-- \\Firesphere\\SolrSearch\\Models\\SolrLog&#45;&gt;\\SilverStripe\\Security\\PermissionProvider -->
<g id="edge20" class="edge">
<title>\\Firesphere\\SolrSearch\\Models\\SolrLog&#45;&gt;\\SilverStripe\\Security\\PermissionProvider</title>
<path fill="none" stroke="#000000" stroke-dasharray="1,5" d="M640.6322,-1736.6137C617.712,-1734.4846 588.2248,-1727.5338 572.2549,-1706.9678 462.6564,-1565.8266 630.3721,-230.4287 508.2549,-99.9678 468.5798,-57.5819 403.0668,-51.4729 348.4965,-55.6292"/>
<polygon fill="none" stroke="#000000" points="348.0958,-52.1509 338.4431,-56.5183 348.7126,-59.1237 348.0958,-52.1509"/>
</g>
<!-- \\Firesphere\\SolrSearch\\Models\\SearchSynonym -->
<g id="node32" class="node">
<title>\\Firesphere\\SolrSearch\\Models\\SearchSynonym</title>
<polygon fill="none" stroke="#000000" points="724.7549,-1862.9678 620.7549,-1862.9678 620.7549,-1826.9678 724.7549,-1826.9678 724.7549,-1862.9678"/>
<text text-anchor="middle" x="672.7549" y="-1842.1678" font-family="Courier,monospace" font-size="11.00" fill="#000000">SearchSynonym</text>
</g>
<!-- \\Firesphere\\SolrSearch\\Models\\SearchSynonym&#45;&gt;\\SilverStripe\\ORM\\DataObject -->
<g id="edge21" class="edge">
<title>\\Firesphere\\SolrSearch\\Models\\SearchSynonym&#45;&gt;\\SilverStripe\\ORM\\DataObject</title>
<path fill="none" stroke="#000000" d="M620.6684,-1843.2004C602.5757,-1839.7961 583.9163,-1832.585 572.2549,-1817.9678 456.8657,-1673.331 634.6048,-289.135 508.2549,-153.9678 466.7547,-109.5715 396.9113,-104.9546 340.9361,-110.2586"/>
<polygon fill="none" stroke="#000000" points="340.2272,-106.8144 330.6557,-111.3571 340.971,-113.7748 340.2272,-106.8144"/>
</g>
<!-- \\Firesphere\\SolrSearch\\Factories\\DocumentFactory -->
<g id="node33" class="node">
<title>\\Firesphere\\SolrSearch\\Factories\\DocumentFactory</title>
<polygon fill="none" stroke="#000000" points="731.7549,-1674.9678 613.7549,-1674.9678 613.7549,-1638.9678 731.7549,-1638.9678 731.7549,-1674.9678"/>
<text text-anchor="middle" x="672.7549" y="-1654.1678" font-family="Courier,monospace" font-size="11.00" fill="#000000">DocumentFactory</text>
</g>
<!-- \\Firesphere\\SolrSearch\\Factories\\QueryComponentFactory -->
<g id="node34" class="node">
<title>\\Firesphere\\SolrSearch\\Factories\\QueryComponentFactory</title>
<polygon fill="none" stroke="#000000" points="751.7549,-1620.9678 593.7549,-1620.9678 593.7549,-1584.9678 751.7549,-1584.9678 751.7549,-1620.9678"/>
<text text-anchor="middle" x="672.7549" y="-1600.1678" font-family="Courier,monospace" font-size="11.00" fill="#000000">QueryComponentFactory</text>
</g>
<!-- \\Firesphere\\SolrSearch\\States\\SiteState -->
<g id="node35" class="node">
<title>\\Firesphere\\SolrSearch\\States\\SiteState</title>
<polygon fill="none" stroke="#000000" points="714.7549,-1540.9678 630.7549,-1540.9678 630.7549,-1504.9678 714.7549,-1504.9678 714.7549,-1540.9678"/>
<text text-anchor="start" x="638.7549" y="-1526.1678" font-family="Courier,monospace" font-size="11.00" fill="#000000">«abstract»</text>
<text text-anchor="start" x="642.2549" y="-1514.1678" font-family="Courier,monospace" font-size="11.00" fill="#000000">SiteState</text>
</g>
<!-- \\Firesphere\\SolrSearch\\Traits\\GetterSetterTrait -->
<g id="node36" class="node">
<title>\\Firesphere\\SolrSearch\\Traits\\GetterSetterTrait</title>
<polygon fill="none" stroke="#000000" points="738.2549,-1460.9678 607.2549,-1460.9678 607.2549,-1424.9678 738.2549,-1424.9678 738.2549,-1460.9678"/>
<text text-anchor="middle" x="672.7549" y="-1440.1678" font-family="Courier,monospace" font-size="11.00" fill="#000000">GetterSetterTrait</text>
</g>
<!-- \\Firesphere\\SolrSearch\\Traits\\LoggerTrait -->
<g id="node37" class="node">
<title>\\Firesphere\\SolrSearch\\Traits\\LoggerTrait</title>
<polygon fill="none" stroke="#000000" points="718.2549,-1406.9678 627.2549,-1406.9678 627.2549,-1370.9678 718.2549,-1370.9678 718.2549,-1406.9678"/>
<text text-anchor="middle" x="672.7549" y="-1386.1678" font-family="Courier,monospace" font-size="11.00" fill="#000000">LoggerTrait</text>
</g>
<!-- \\Firesphere\\SolrSearch\\Traits\\GetSetSchemaServiceTrait -->
<g id="node38" class="node">
<title>\\Firesphere\\SolrSearch\\Traits\\GetSetSchemaServiceTrait</title>
<polygon fill="none" stroke="#000000" points="762.2549,-1352.9678 583.2549,-1352.9678 583.2549,-1316.9678 762.2549,-1316.9678 762.2549,-1352.9678"/>
<text text-anchor="middle" x="672.7549" y="-1332.1678" font-family="Courier,monospace" font-size="11.00" fill="#000000">GetSetSchemaServiceTrait</text>
</g>
<!-- \\Firesphere\\SolrSearch\\Traits\\DocumentFactoryTrait -->
<g id="node39" class="node">
<title>\\Firesphere\\SolrSearch\\Traits\\DocumentFactoryTrait</title>
<polygon fill="none" stroke="#000000" points="748.7549,-1298.9678 596.7549,-1298.9678 596.7549,-1262.9678 748.7549,-1262.9678 748.7549,-1298.9678"/>
<text text-anchor="middle" x="672.7549" y="-1278.1678" font-family="Courier,monospace" font-size="11.00" fill="#000000">DocumentFactoryTrait</text>
</g>
<!-- \\Firesphere\\SolrSearch\\Traits\\BaseQueryTrait -->
<g id="node40" class="node">
<title>\\Firesphere\\SolrSearch\\Traits\\BaseQueryTrait</title>
<polygon fill="none" stroke="#000000" points="728.2549,-1244.9678 617.2549,-1244.9678 617.2549,-1208.9678 728.2549,-1208.9678 728.2549,-1244.9678"/>
<text text-anchor="middle" x="672.7549" y="-1224.1678" font-family="Courier,monospace" font-size="11.00" fill="#000000">BaseQueryTrait</text>
</g>
<!-- \\Firesphere\\SolrSearch\\Traits\\GetSetSearchResolverTrait -->
<g id="node41" class="node">
<title>\\Firesphere\\SolrSearch\\Traits\\GetSetSearchResolverTrait</title>
<polygon fill="none" stroke="#000000" points="765.2549,-1190.9678 580.2549,-1190.9678 580.2549,-1154.9678 765.2549,-1154.9678 765.2549,-1190.9678"/>
<text text-anchor="middle" x="672.7549" y="-1170.1678" font-family="Courier,monospace" font-size="11.00" fill="#000000">GetSetSearchResolverTrait</text>
</g>
<!-- \\Firesphere\\SolrSearch\\Traits\\BaseIndexTrait -->
<g id="node42" class="node">
<title>\\Firesphere\\SolrSearch\\Traits\\BaseIndexTrait</title>
<polygon fill="none" stroke="#000000" points="728.2549,-1136.9678 617.2549,-1136.9678 617.2549,-1100.9678 728.2549,-1100.9678 728.2549,-1136.9678"/>
<text text-anchor="middle" x="672.7549" y="-1116.1678" font-family="Courier,monospace" font-size="11.00" fill="#000000">BaseIndexTrait</text>
</g>
<!-- \\Firesphere\\SolrSearch\\Traits\\DataResolveTrait -->
<g id="node43" class="node">
<title>\\Firesphere\\SolrSearch\\Traits\\DataResolveTrait</title>
<polygon fill="none" stroke="#000000" points="735.2549,-1082.9678 610.2549,-1082.9678 610.2549,-1046.9678 735.2549,-1046.9678 735.2549,-1082.9678"/>
<text text-anchor="middle" x="672.7549" y="-1062.1678" font-family="Courier,monospace" font-size="11.00" fill="#000000">DataResolveTrait</text>
</g>
<!-- \\Firesphere\\SolrSearch\\Traits\\CoreAdminTrait -->
<g id="node44" class="node">
<title>\\Firesphere\\SolrSearch\\Traits\\CoreAdminTrait</title>
<polygon fill="none" stroke="#000000" points="728.2549,-1028.9678 617.2549,-1028.9678 617.2549,-992.9678 728.2549,-992.9678 728.2549,-1028.9678"/>
<text text-anchor="middle" x="672.7549" y="-1008.1678" font-family="Courier,monospace" font-size="11.00" fill="#000000">CoreAdminTrait</text>
</g>
<!-- \\Firesphere\\SolrSearch\\Traits\\CoreServiceTrait -->
<g id="node45" class="node">
<title>\\Firesphere\\SolrSearch\\Traits\\CoreServiceTrait</title>
<polygon fill="none" stroke="#000000" points="735.2549,-974.9678 610.2549,-974.9678 610.2549,-938.9678 735.2549,-938.9678 735.2549,-974.9678"/>
<text text-anchor="middle" x="672.7549" y="-954.1678" font-family="Courier,monospace" font-size="11.00" fill="#000000">CoreServiceTrait</text>
</g>
<!-- \\Firesphere\\SolrSearch\\Traits\\QueryComponentBoostTrait -->
<g id="node46" class="node">
<title>\\Firesphere\\SolrSearch\\Traits\\QueryComponentBoostTrait</title>
<polygon fill="none" stroke="#000000" points="762.2549,-920.9678 583.2549,-920.9678 583.2549,-884.9678 762.2549,-884.9678 762.2549,-920.9678"/>
<text text-anchor="middle" x="672.7549" y="-900.1678" font-family="Courier,monospace" font-size="11.00" fill="#000000">QueryComponentBoostTrait</text>
</g>
<!-- \\Firesphere\\SolrSearch\\Traits\\QueryComponentFilterTrait -->
<g id="node47" class="node">
<title>\\Firesphere\\SolrSearch\\Traits\\QueryComponentFilterTrait</title>
<polygon fill="none" stroke="#000000" points="765.2549,-866.9678 580.2549,-866.9678 580.2549,-830.9678 765.2549,-830.9678 765.2549,-866.9678"/>
<text text-anchor="middle" x="672.7549" y="-846.1678" font-family="Courier,monospace" font-size="11.00" fill="#000000">QueryComponentFilterTrait</text>
</g>
<!-- \\Firesphere\\SolrSearch\\Traits\\QueryComponentFacetTrait -->
<g id="node48" class="node">
<title>\\Firesphere\\SolrSearch\\Traits\\QueryComponentFacetTrait</title>
<polygon fill="none" stroke="#000000" points="762.2549,-812.9678 583.2549,-812.9678 583.2549,-776.9678 762.2549,-776.9678 762.2549,-812.9678"/>
<text text-anchor="middle" x="672.7549" y="-792.1678" font-family="Courier,monospace" font-size="11.00" fill="#000000">QueryComponentFacetTrait</text>
</g>
<!-- \\Firesphere\\SolrSearch\\Traits\\SearchResultGetTrait -->
<g id="node49" class="node">
<title>\\Firesphere\\SolrSearch\\Traits\\SearchResultGetTrait</title>
<polygon fill="none" stroke="#000000" points="748.7549,-758.9678 596.7549,-758.9678 596.7549,-722.9678 748.7549,-722.9678 748.7549,-758.9678"/>
<text text-anchor="middle" x="672.7549" y="-738.1678" font-family="Courier,monospace" font-size="11.00" fill="#000000">SearchResultGetTrait</text>
</g>
<!-- \\Firesphere\\SolrSearch\\Traits\\SearchResultSetTrait -->
<g id="node50" class="node">
<title>\\Firesphere\\SolrSearch\\Traits\\SearchResultSetTrait</title>
<polygon fill="none" stroke="#000000" points="748.7549,-704.9678 596.7549,-704.9678 596.7549,-668.9678 748.7549,-668.9678 748.7549,-704.9678"/>
<text text-anchor="middle" x="672.7549" y="-684.1678" font-family="Courier,monospace" font-size="11.00" fill="#000000">SearchResultSetTrait</text>
</g>
<!-- \\Firesphere\\SolrSearch\\Fluent\\FluentExtension -->
<g id="node51" class="node">
<title>\\Firesphere\\SolrSearch\\Fluent\\FluentExtension</title>
<polygon fill="none" stroke="#000000" points="731.7549,-624.9678 613.7549,-624.9678 613.7549,-588.9678 731.7549,-588.9678 731.7549,-624.9678"/>
<text text-anchor="middle" x="672.7549" y="-604.1678" font-family="Courier,monospace" font-size="11.00" fill="#000000">FluentExtension</text>
</g>
<!-- \\Firesphere\\SolrSearch\\Fluent\\FluentExtension&#45;&gt;\\SilverStripe\\Core\\Extension -->
<g id="edge22" class="edge">
<title>\\Firesphere\\SolrSearch\\Fluent\\FluentExtension&#45;&gt;\\SilverStripe\\Core\\Extension</title>
<path fill="none" stroke="#000000" d="M613.5416,-598.5455C598.7099,-594.1 583.764,-587.3163 572.2549,-576.9678 517.4442,-527.6842 567.3668,-468.0004 508.2549,-423.9678 469.3881,-395.0157 417.4206,-385.8554 370.6092,-384.8678"/>
<polygon fill="none" stroke="#000000" points="370.4258,-381.3662 360.3953,-384.7779 370.364,-388.3659 370.4258,-381.3662"/>
</g>
<!-- \\Firesphere\\SolrSearch\\Subsites\\SubsitesExtension -->
<g id="node52" class="node">
<title>\\Firesphere\\SolrSearch\\Subsites\\SubsitesExtension</title>
<polygon fill="none" stroke="#000000" points="738.2549,-544.9678 607.2549,-544.9678 607.2549,-508.9678 738.2549,-508.9678 738.2549,-544.9678"/>
<text text-anchor="middle" x="672.7549" y="-524.1678" font-family="Courier,monospace" font-size="11.00" fill="#000000">SubsitesExtension</text>
</g>
<!-- \\Firesphere\\SolrSearch\\Subsites\\SubsitesExtension&#45;&gt;\\SilverStripe\\ORM\\DataExtension -->
<g id="edge23" class="edge">
<title>\\Firesphere\\SolrSearch\\Subsites\\SubsitesExtension&#45;&gt;\\SilverStripe\\ORM\\DataExtension</title>
<path fill="none" stroke="#000000" d="M669.255,-508.9228C653.3631,-428.9293 585.4274,-107.5564 508.2549,-45.9678 471.5859,-16.7036 421.8522,-7.0081 376.1027,-5.7084"/>
<polygon fill="none" stroke="#000000" points="376.1562,-2.2089 366.1032,-5.5535 376.0477,-9.2081 376.1562,-2.2089"/>
</g>
</g>
</svg>
