<?xml version="1.0" encoding="UTF-8" standalone="no"?>
<!DOCTYPE svg PUBLIC "-//W3C//DTD SVG 1.1//EN"
 "http://www.w3.org/Graphics/SVG/1.1/DTD/svg11.dtd">
<!-- Generated by graphviz version 2.40.1 (20161225.0304)
 -->
<!-- Title: G Pages: 1 -->
<svg width="984pt" height="3823pt"
 viewBox="0.00 0.00 984.25 3823.06" xmlns="http://www.w3.org/2000/svg" xmlns:xlink="http://www.w3.org/1999/xlink">
<g id="graph0" class="graph" transform="scale(1 1) rotate(0) translate(4 3819.0602)">
<title>G</title>
<polygon fill="#ffffff" stroke="transparent" points="-4,4 -4,-3819.0602 980.2549,-3819.0602 980.2549,4 -4,4"/>
<g id="clust1" class="cluster">
<title>cluster_Global</title>
<path fill="none" stroke="#c0c0c0" d="M165.1275,-477.0602C165.1275,-477.0602 956.2549,-477.0602 956.2549,-477.0602 962.2549,-477.0602 968.2549,-483.0602 968.2549,-489.0602 968.2549,-489.0602 968.2549,-3795.0602 968.2549,-3795.0602 968.2549,-3801.0602 962.2549,-3807.0602 956.2549,-3807.0602 956.2549,-3807.0602 165.1275,-3807.0602 165.1275,-3807.0602 159.1275,-3807.0602 153.1275,-3801.0602 153.1275,-3795.0602 153.1275,-3795.0602 153.1275,-489.0602 153.1275,-489.0602 153.1275,-483.0602 159.1275,-477.0602 165.1275,-477.0602"/>
<text text-anchor="middle" x="560.6912" y="-3794.2602" font-family="Times,serif" font-size="11.00" fill="#c0c0c0">Global</text>
</g>
<g id="clust2" class="cluster">
<title>cluster_\Firesphere</title>
<path fill="none" stroke="#c0c0c0" d="M173.1275,-485.0602C173.1275,-485.0602 777.2549,-485.0602 777.2549,-485.0602 783.2549,-485.0602 789.2549,-491.0602 789.2549,-497.0602 789.2549,-497.0602 789.2549,-3767.0602 789.2549,-3767.0602 789.2549,-3773.0602 783.2549,-3779.0602 777.2549,-3779.0602 777.2549,-3779.0602 173.1275,-3779.0602 173.1275,-3779.0602 167.1275,-3779.0602 161.1275,-3773.0602 161.1275,-3767.0602 161.1275,-3767.0602 161.1275,-497.0602 161.1275,-497.0602 161.1275,-491.0602 167.1275,-485.0602 173.1275,-485.0602"/>
<text text-anchor="middle" x="475.1912" y="-3766.2602" font-family="Times,serif" font-size="11.00" fill="#c0c0c0">Firesphere</text>
</g>
<g id="clust3" class="cluster">
<title>cluster_\Firesphere\SolrSearch</title>
<path fill="none" stroke="#c0c0c0" d="M181.1275,-663.0602C181.1275,-663.0602 769.2549,-663.0602 769.2549,-663.0602 775.2549,-663.0602 781.2549,-669.0602 781.2549,-675.0602 781.2549,-675.0602 781.2549,-3739.0602 781.2549,-3739.0602 781.2549,-3745.0602 775.2549,-3751.0602 769.2549,-3751.0602 769.2549,-3751.0602 181.1275,-3751.0602 181.1275,-3751.0602 175.1275,-3751.0602 169.1275,-3745.0602 169.1275,-3739.0602 169.1275,-3739.0602 169.1275,-675.0602 169.1275,-675.0602 169.1275,-669.0602 175.1275,-663.0602 181.1275,-663.0602"/>
<text text-anchor="middle" x="475.1912" y="-3738.2602" font-family="Times,serif" font-size="11.00" fill="#c0c0c0">SolrSearch</text>
</g>
<g id="clust4" class="cluster">
<title>cluster_\Firesphere\SolrSearch\Compat</title>
<path fill="none" stroke="#c0c0c0" d="M590.7549,-3651.0602C590.7549,-3651.0602 754.7549,-3651.0602 754.7549,-3651.0602 760.7549,-3651.0602 766.7549,-3657.0602 766.7549,-3663.0602 766.7549,-3663.0602 766.7549,-3711.0602 766.7549,-3711.0602 766.7549,-3717.0602 760.7549,-3723.0602 754.7549,-3723.0602 754.7549,-3723.0602 590.7549,-3723.0602 590.7549,-3723.0602 584.7549,-3723.0602 578.7549,-3717.0602 578.7549,-3711.0602 578.7549,-3711.0602 578.7549,-3663.0602 578.7549,-3663.0602 578.7549,-3657.0602 584.7549,-3651.0602 590.7549,-3651.0602"/>
<text text-anchor="middle" x="672.7549" y="-3710.2602" font-family="Times,serif" font-size="11.00" fill="#c0c0c0">Compat</text>
</g>
<g id="clust5" class="cluster">
<title>cluster_\Firesphere\SolrSearch\Factories</title>
<path fill="none" stroke="#c0c0c0" d="M597.7549,-3517.0602C597.7549,-3517.0602 747.7549,-3517.0602 747.7549,-3517.0602 753.7549,-3517.0602 759.7549,-3523.0602 759.7549,-3529.0602 759.7549,-3529.0602 759.7549,-3631.0602 759.7549,-3631.0602 759.7549,-3637.0602 753.7549,-3643.0602 747.7549,-3643.0602 747.7549,-3643.0602 597.7549,-3643.0602 597.7549,-3643.0602 591.7549,-3643.0602 585.7549,-3637.0602 585.7549,-3631.0602 585.7549,-3631.0602 585.7549,-3529.0602 585.7549,-3529.0602 585.7549,-3523.0602 591.7549,-3517.0602 597.7549,-3517.0602"/>
<text text-anchor="middle" x="672.7549" y="-3630.2602" font-family="Times,serif" font-size="11.00" fill="#c0c0c0">Factories</text>
</g>
<g id="clust6" class="cluster">
<title>cluster_\Firesphere\SolrSearch\Forms</title>
<path fill="none" stroke="#c0c0c0" d="M634.7549,-3437.0602C634.7549,-3437.0602 710.7549,-3437.0602 710.7549,-3437.0602 716.7549,-3437.0602 722.7549,-3443.0602 722.7549,-3449.0602 722.7549,-3449.0602 722.7549,-3497.0602 722.7549,-3497.0602 722.7549,-3503.0602 716.7549,-3509.0602 710.7549,-3509.0602 710.7549,-3509.0602 634.7549,-3509.0602 634.7549,-3509.0602 628.7549,-3509.0602 622.7549,-3503.0602 622.7549,-3497.0602 622.7549,-3497.0602 622.7549,-3449.0602 622.7549,-3449.0602 622.7549,-3443.0602 628.7549,-3437.0602 634.7549,-3437.0602"/>
<text text-anchor="middle" x="672.7549" y="-3496.2602" font-family="Times,serif" font-size="11.00" fill="#c0c0c0">Forms</text>
</g>
<g id="clust7" class="cluster">
<title>cluster_\Firesphere\SolrSearch\Extensions</title>
<path fill="none" stroke="#c0c0c0" d="M604.2549,-3303.0602C604.2549,-3303.0602 741.2549,-3303.0602 741.2549,-3303.0602 747.2549,-3303.0602 753.2549,-3309.0602 753.2549,-3315.0602 753.2549,-3315.0602 753.2549,-3417.0602 753.2549,-3417.0602 753.2549,-3423.0602 747.2549,-3429.0602 741.2549,-3429.0602 741.2549,-3429.0602 604.2549,-3429.0602 604.2549,-3429.0602 598.2549,-3429.0602 592.2549,-3423.0602 592.2549,-3417.0602 592.2549,-3417.0602 592.2549,-3315.0602 592.2549,-3315.0602 592.2549,-3309.0602 598.2549,-3303.0602 604.2549,-3303.0602"/>
<text text-anchor="middle" x="672.7549" y="-3416.2602" font-family="Times,serif" font-size="11.00" fill="#c0c0c0">Extensions</text>
</g>
<g id="clust8" class="cluster">
<title>cluster_\Firesphere\SolrSearch\Tasks</title>
<path fill="none" stroke="#c0c0c0" d="M597.7549,-3061.0602C597.7549,-3061.0602 747.7549,-3061.0602 747.7549,-3061.0602 753.7549,-3061.0602 759.7549,-3067.0602 759.7549,-3073.0602 759.7549,-3073.0602 759.7549,-3283.0602 759.7549,-3283.0602 759.7549,-3289.0602 753.7549,-3295.0602 747.7549,-3295.0602 747.7549,-3295.0602 597.7549,-3295.0602 597.7549,-3295.0602 591.7549,-3295.0602 585.7549,-3289.0602 585.7549,-3283.0602 585.7549,-3283.0602 585.7549,-3073.0602 585.7549,-3073.0602 585.7549,-3067.0602 591.7549,-3061.0602 597.7549,-3061.0602"/>
<text text-anchor="middle" x="672.7549" y="-3282.2602" font-family="Times,serif" font-size="11.00" fill="#c0c0c0">Tasks</text>
</g>
<g id="clust9" class="cluster">
<title>cluster_\Firesphere\SolrSearch\Helpers</title>
<path fill="none" stroke="#c0c0c0" d="M624.7549,-2765.0602C624.7549,-2765.0602 720.7549,-2765.0602 720.7549,-2765.0602 726.7549,-2765.0602 732.7549,-2771.0602 732.7549,-2777.0602 732.7549,-2777.0602 732.7549,-3041.0602 732.7549,-3041.0602 732.7549,-3047.0602 726.7549,-3053.0602 720.7549,-3053.0602 720.7549,-3053.0602 624.7549,-3053.0602 624.7549,-3053.0602 618.7549,-3053.0602 612.7549,-3047.0602 612.7549,-3041.0602 612.7549,-3041.0602 612.7549,-2777.0602 612.7549,-2777.0602 612.7549,-2771.0602 618.7549,-2765.0602 624.7549,-2765.0602"/>
<text text-anchor="middle" x="672.7549" y="-3040.2602" font-family="Times,serif" font-size="11.00" fill="#c0c0c0">Helpers</text>
</g>
<g id="clust10" class="cluster">
<title>cluster_\Firesphere\SolrSearch\States</title>
<path fill="none" stroke="#c0c0c0" d="M634.7549,-2685.0602C634.7549,-2685.0602 710.7549,-2685.0602 710.7549,-2685.0602 716.7549,-2685.0602 722.7549,-2691.0602 722.7549,-2697.0602 722.7549,-2697.0602 722.7549,-2745.0602 722.7549,-2745.0602 722.7549,-2751.0602 716.7549,-2757.0602 710.7549,-2757.0602 710.7549,-2757.0602 634.7549,-2757.0602 634.7549,-2757.0602 628.7549,-2757.0602 622.7549,-2751.0602 622.7549,-2745.0602 622.7549,-2745.0602 622.7549,-2697.0602 622.7549,-2697.0602 622.7549,-2691.0602 628.7549,-2685.0602 634.7549,-2685.0602"/>
<text text-anchor="middle" x="672.7549" y="-2744.2602" font-family="Times,serif" font-size="11.00" fill="#c0c0c0">States</text>
</g>
<g id="clust11" class="cluster">
<title>cluster_\Firesphere\SolrSearch\Admins</title>
<path fill="none" stroke="#c0c0c0" d="M631.2549,-2471.0602C631.2549,-2471.0602 714.2549,-2471.0602 714.2549,-2471.0602 720.2549,-2471.0602 726.2549,-2477.0602 726.2549,-2483.0602 726.2549,-2483.0602 726.2549,-2531.0602 726.2549,-2531.0602 726.2549,-2537.0602 720.2549,-2543.0602 714.2549,-2543.0602 714.2549,-2543.0602 631.2549,-2543.0602 631.2549,-2543.0602 625.2549,-2543.0602 619.2549,-2537.0602 619.2549,-2531.0602 619.2549,-2531.0602 619.2549,-2483.0602 619.2549,-2483.0602 619.2549,-2477.0602 625.2549,-2471.0602 631.2549,-2471.0602"/>
<text text-anchor="middle" x="672.7549" y="-2530.2602" font-family="Times,serif" font-size="11.00" fill="#c0c0c0">Admins</text>
</g>
<g id="clust12" class="cluster">
<title>cluster_\Firesphere\SolrSearch\Models</title>
<path fill="none" stroke="#c0c0c0" d="M624.7549,-2283.0602C624.7549,-2283.0602 720.7549,-2283.0602 720.7549,-2283.0602 726.7549,-2283.0602 732.7549,-2289.0602 732.7549,-2295.0602 732.7549,-2295.0602 732.7549,-2451.0602 732.7549,-2451.0602 732.7549,-2457.0602 726.7549,-2463.0602 720.7549,-2463.0602 720.7549,-2463.0602 624.7549,-2463.0602 624.7549,-2463.0602 618.7549,-2463.0602 612.7549,-2457.0602 612.7549,-2451.0602 612.7549,-2451.0602 612.7549,-2295.0602 612.7549,-2295.0602 612.7549,-2289.0602 618.7549,-2283.0602 624.7549,-2283.0602"/>
<text text-anchor="middle" x="672.7549" y="-2450.2602" font-family="Times,serif" font-size="11.00" fill="#c0c0c0">Models</text>
</g>
<g id="clust13" class="cluster">
<title>cluster_\Firesphere\SolrSearch\Stores</title>
<path fill="none" stroke="#c0c0c0" d="M617.7549,-2551.0602C617.7549,-2551.0602 727.7549,-2551.0602 727.7549,-2551.0602 733.7549,-2551.0602 739.7549,-2557.0602 739.7549,-2563.0602 739.7549,-2563.0602 739.7549,-2665.0602 739.7549,-2665.0602 739.7549,-2671.0602 733.7549,-2677.0602 727.7549,-2677.0602 727.7549,-2677.0602 617.7549,-2677.0602 617.7549,-2677.0602 611.7549,-2677.0602 605.7549,-2671.0602 605.7549,-2665.0602 605.7549,-2665.0602 605.7549,-2563.0602 605.7549,-2563.0602 605.7549,-2557.0602 611.7549,-2551.0602 617.7549,-2551.0602"/>
<text text-anchor="middle" x="672.7549" y="-2664.2602" font-family="Times,serif" font-size="11.00" fill="#c0c0c0">Stores</text>
</g>
<g id="clust14" class="cluster">
<title>cluster_\Firesphere\SolrSearch\Queries</title>
<path fill="none" stroke="#c0c0c0" d="M638.2549,-2203.0602C638.2549,-2203.0602 707.2549,-2203.0602 707.2549,-2203.0602 713.2549,-2203.0602 719.2549,-2209.0602 719.2549,-2215.0602 719.2549,-2215.0602 719.2549,-2263.0602 719.2549,-2263.0602 719.2549,-2269.0602 713.2549,-2275.0602 707.2549,-2275.0602 707.2549,-2275.0602 638.2549,-2275.0602 638.2549,-2275.0602 632.2549,-2275.0602 626.2549,-2269.0602 626.2549,-2263.0602 626.2549,-2263.0602 626.2549,-2215.0602 626.2549,-2215.0602 626.2549,-2209.0602 632.2549,-2203.0602 638.2549,-2203.0602"/>
<text text-anchor="middle" x="672.7549" y="-2262.2602" font-family="Times,serif" font-size="11.00" fill="#c0c0c0">Queries</text>
</g>
<g id="clust15" class="cluster">
<title>cluster_\Firesphere\SolrSearch\Interfaces</title>
<path fill="none" stroke="#c0c0c0" d="M189.1275,-2578.0602C189.1275,-2578.0602 319.1275,-2578.0602 319.1275,-2578.0602 325.1275,-2578.0602 331.1275,-2584.0602 331.1275,-2590.0602 331.1275,-2590.0602 331.1275,-2692.0602 331.1275,-2692.0602 331.1275,-2698.0602 325.1275,-2704.0602 319.1275,-2704.0602 319.1275,-2704.0602 189.1275,-2704.0602 189.1275,-2704.0602 183.1275,-2704.0602 177.1275,-2698.0602 177.1275,-2692.0602 177.1275,-2692.0602 177.1275,-2590.0602 177.1275,-2590.0602 177.1275,-2584.0602 183.1275,-2578.0602 189.1275,-2578.0602"/>
<text text-anchor="middle" x="254.1275" y="-2691.2602" font-family="Times,serif" font-size="11.00" fill="#c0c0c0">Interfaces</text>
</g>
<g id="clust16" class="cluster">
<title>cluster_\Firesphere\SolrSearch\Services</title>
<path fill="none" stroke="#c0c0c0" d="M617.7549,-2069.0602C617.7549,-2069.0602 727.7549,-2069.0602 727.7549,-2069.0602 733.7549,-2069.0602 739.7549,-2075.0602 739.7549,-2081.0602 739.7549,-2081.0602 739.7549,-2183.0602 739.7549,-2183.0602 739.7549,-2189.0602 733.7549,-2195.0602 727.7549,-2195.0602 727.7549,-2195.0602 617.7549,-2195.0602 617.7549,-2195.0602 611.7549,-2195.0602 605.7549,-2189.0602 605.7549,-2183.0602 605.7549,-2183.0602 605.7549,-2081.0602 605.7549,-2081.0602 605.7549,-2075.0602 611.7549,-2069.0602 617.7549,-2069.0602"/>
<text text-anchor="middle" x="672.7549" y="-2182.2602" font-family="Times,serif" font-size="11.00" fill="#c0c0c0">Services</text>
</g>
<g id="clust17" class="cluster">
<title>cluster_\Firesphere\SolrSearch\Indexes</title>
<path fill="none" stroke="#c0c0c0" d="M634.7549,-1989.0602C634.7549,-1989.0602 710.7549,-1989.0602 710.7549,-1989.0602 716.7549,-1989.0602 722.7549,-1995.0602 722.7549,-2001.0602 722.7549,-2001.0602 722.7549,-2049.0602 722.7549,-2049.0602 722.7549,-2055.0602 716.7549,-2061.0602 710.7549,-2061.0602 710.7549,-2061.0602 634.7549,-2061.0602 634.7549,-2061.0602 628.7549,-2061.0602 622.7549,-2055.0602 622.7549,-2049.0602 622.7549,-2049.0602 622.7549,-2001.0602 622.7549,-2001.0602 622.7549,-1995.0602 628.7549,-1989.0602 634.7549,-1989.0602"/>
<text text-anchor="middle" x="672.7549" y="-2048.2602" font-family="Times,serif" font-size="11.00" fill="#c0c0c0">Indexes</text>
</g>
<g id="clust18" class="cluster">
<title>cluster_\Firesphere\SolrSearch\Jobs</title>
<path fill="none" stroke="#c0c0c0" d="M600.7549,-1801.0602C600.7549,-1801.0602 744.7549,-1801.0602 744.7549,-1801.0602 750.7549,-1801.0602 756.7549,-1807.0602 756.7549,-1813.0602 756.7549,-1813.0602 756.7549,-1969.0602 756.7549,-1969.0602 756.7549,-1975.0602 750.7549,-1981.0602 744.7549,-1981.0602 744.7549,-1981.0602 600.7549,-1981.0602 600.7549,-1981.0602 594.7549,-1981.0602 588.7549,-1975.0602 588.7549,-1969.0602 588.7549,-1969.0602 588.7549,-1813.0602 588.7549,-1813.0602 588.7549,-1807.0602 594.7549,-1801.0602 600.7549,-1801.0602"/>
<text text-anchor="middle" x="672.7549" y="-1968.2602" font-family="Times,serif" font-size="11.00" fill="#c0c0c0">Jobs</text>
</g>
<g id="clust19" class="cluster">
<title>cluster_\Firesphere\SolrSearch\Traits</title>
<path fill="none" stroke="#c0c0c0" d="M584.2549,-911.0602C584.2549,-911.0602 761.2549,-911.0602 761.2549,-911.0602 767.2549,-911.0602 773.2549,-917.0602 773.2549,-923.0602 773.2549,-923.0602 773.2549,-1781.0602 773.2549,-1781.0602 773.2549,-1787.0602 767.2549,-1793.0602 761.2549,-1793.0602 761.2549,-1793.0602 584.2549,-1793.0602 584.2549,-1793.0602 578.2549,-1793.0602 572.2549,-1787.0602 572.2549,-1781.0602 572.2549,-1781.0602 572.2549,-923.0602 572.2549,-923.0602 572.2549,-917.0602 578.2549,-911.0602 584.2549,-911.0602"/>
<text text-anchor="middle" x="672.7549" y="-1780.2602" font-family="Times,serif" font-size="11.00" fill="#c0c0c0">Traits</text>
</g>
<g id="clust20" class="cluster">
<title>cluster_\Firesphere\SolrSearch\Results</title>
<path fill="none" stroke="#c0c0c0" d="M627.7549,-831.0602C627.7549,-831.0602 717.7549,-831.0602 717.7549,-831.0602 723.7549,-831.0602 729.7549,-837.0602 729.7549,-843.0602 729.7549,-843.0602 729.7549,-891.0602 729.7549,-891.0602 729.7549,-897.0602 723.7549,-903.0602 717.7549,-903.0602 717.7549,-903.0602 627.7549,-903.0602 627.7549,-903.0602 621.7549,-903.0602 615.7549,-897.0602 615.7549,-891.0602 615.7549,-891.0602 615.7549,-843.0602 615.7549,-843.0602 615.7549,-837.0602 621.7549,-831.0602 627.7549,-831.0602"/>
<text text-anchor="middle" x="672.7549" y="-890.2602" font-family="Times,serif" font-size="11.00" fill="#c0c0c0">Results</text>
</g>
<g id="clust21" class="cluster">
<title>cluster_\Firesphere\SolrSearch\Fluent</title>
<path fill="none" stroke="#c0c0c0" d="M617.7549,-751.0602C617.7549,-751.0602 727.7549,-751.0602 727.7549,-751.0602 733.7549,-751.0602 739.7549,-757.0602 739.7549,-763.0602 739.7549,-763.0602 739.7549,-811.0602 739.7549,-811.0602 739.7549,-817.0602 733.7549,-823.0602 727.7549,-823.0602 727.7549,-823.0602 617.7549,-823.0602 617.7549,-823.0602 611.7549,-823.0602 605.7549,-817.0602 605.7549,-811.0602 605.7549,-811.0602 605.7549,-763.0602 605.7549,-763.0602 605.7549,-757.0602 611.7549,-751.0602 617.7549,-751.0602"/>
<text text-anchor="middle" x="672.7549" y="-810.2602" font-family="Times,serif" font-size="11.00" fill="#c0c0c0">Fluent</text>
</g>
<g id="clust22" class="cluster">
<title>cluster_\Firesphere\SolrSearch\Subsites</title>
<path fill="none" stroke="#c0c0c0" d="M611.2549,-671.0602C611.2549,-671.0602 734.2549,-671.0602 734.2549,-671.0602 740.2549,-671.0602 746.2549,-677.0602 746.2549,-683.0602 746.2549,-683.0602 746.2549,-731.0602 746.2549,-731.0602 746.2549,-737.0602 740.2549,-743.0602 734.2549,-743.0602 734.2549,-743.0602 611.2549,-743.0602 611.2549,-743.0602 605.2549,-743.0602 599.2549,-737.0602 599.2549,-731.0602 599.2549,-731.0602 599.2549,-683.0602 599.2549,-683.0602 599.2549,-677.0602 605.2549,-671.0602 611.2549,-671.0602"/>
<text text-anchor="middle" x="672.7549" y="-730.2602" font-family="Times,serif" font-size="11.00" fill="#c0c0c0">Subsites</text>
</g>
<g id="clust23" class="cluster">
<title>cluster_\Firesphere\SolrPermissions</title>
<path fill="none" stroke="#c0c0c0" d="M596.2549,-493.0602C596.2549,-493.0602 749.2549,-493.0602 749.2549,-493.0602 755.2549,-493.0602 761.2549,-499.0602 761.2549,-505.0602 761.2549,-505.0602 761.2549,-643.0602 761.2549,-643.0602 761.2549,-649.0602 755.2549,-655.0602 749.2549,-655.0602 749.2549,-655.0602 596.2549,-655.0602 596.2549,-655.0602 590.2549,-655.0602 584.2549,-649.0602 584.2549,-643.0602 584.2549,-643.0602 584.2549,-505.0602 584.2549,-505.0602 584.2549,-499.0602 590.2549,-493.0602 596.2549,-493.0602"/>
<text text-anchor="middle" x="672.7549" y="-642.2602" font-family="Times,serif" font-size="11.00" fill="#c0c0c0">SolrPermissions</text>
</g>
<g id="clust24" class="cluster">
<title>cluster_\Firesphere\SolrPermissions\Extensions</title>
<path fill="none" stroke="#c0c0c0" d="M604.2549,-501.0602C604.2549,-501.0602 741.2549,-501.0602 741.2549,-501.0602 747.2549,-501.0602 753.2549,-507.0602 753.2549,-513.0602 753.2549,-513.0602 753.2549,-615.0602 753.2549,-615.0602 753.2549,-621.0602 747.2549,-627.0602 741.2549,-627.0602 741.2549,-627.0602 604.2549,-627.0602 604.2549,-627.0602 598.2549,-627.0602 592.2549,-621.0602 592.2549,-615.0602 592.2549,-615.0602 592.2549,-513.0602 592.2549,-513.0602 592.2549,-507.0602 598.2549,-501.0602 604.2549,-501.0602"/>
<text text-anchor="middle" x="672.7549" y="-614.2602" font-family="Times,serif" font-size="11.00" fill="#c0c0c0">Extensions</text>
</g>
<g id="clust25" class="cluster">
<title>cluster_\SilverStripe</title>
<path fill="none" stroke="#c0c0c0" d="M817.2549,-1982.0602C817.2549,-1982.0602 948.2549,-1982.0602 948.2549,-1982.0602 954.2549,-1982.0602 960.2549,-1988.0602 960.2549,-1994.0602 960.2549,-1994.0602 960.2549,-2284.0602 960.2549,-2284.0602 960.2549,-2290.0602 954.2549,-2296.0602 948.2549,-2296.0602 948.2549,-2296.0602 817.2549,-2296.0602 817.2549,-2296.0602 811.2549,-2296.0602 805.2549,-2290.0602 805.2549,-2284.0602 805.2549,-2284.0602 805.2549,-1994.0602 805.2549,-1994.0602 805.2549,-1988.0602 811.2549,-1982.0602 817.2549,-1982.0602"/>
<text text-anchor="middle" x="882.7549" y="-2283.2602" font-family="Times,serif" font-size="11.00" fill="#c0c0c0">SilverStripe</text>
</g>
<g id="clust26" class="cluster">
<title>cluster_\SilverStripe\FullTextSearch</title>
<path fill="none" stroke="#c0c0c0" d="M825.2549,-1990.0602C825.2549,-1990.0602 940.2549,-1990.0602 940.2549,-1990.0602 946.2549,-1990.0602 952.2549,-1996.0602 952.2549,-2002.0602 952.2549,-2002.0602 952.2549,-2256.0602 952.2549,-2256.0602 952.2549,-2262.0602 946.2549,-2268.0602 940.2549,-2268.0602 940.2549,-2268.0602 825.2549,-2268.0602 825.2549,-2268.0602 819.2549,-2268.0602 813.2549,-2262.0602 813.2549,-2256.0602 813.2549,-2256.0602 813.2549,-2002.0602 813.2549,-2002.0602 813.2549,-1996.0602 819.2549,-1990.0602 825.2549,-1990.0602"/>
<text text-anchor="middle" x="882.7549" y="-2255.2602" font-family="Times,serif" font-size="11.00" fill="#c0c0c0">FullTextSearch</text>
</g>
<g id="clust27" class="cluster">
<title>cluster_\SilverStripe\FullTextSearch\Search</title>
<path fill="none" stroke="#c0c0c0" d="M833.2549,-2132.0602C833.2549,-2132.0602 932.2549,-2132.0602 932.2549,-2132.0602 938.2549,-2132.0602 944.2549,-2138.0602 944.2549,-2144.0602 944.2549,-2144.0602 944.2549,-2228.0602 944.2549,-2228.0602 944.2549,-2234.0602 938.2549,-2240.0602 932.2549,-2240.0602 932.2549,-2240.0602 833.2549,-2240.0602 833.2549,-2240.0602 827.2549,-2240.0602 821.2549,-2234.0602 821.2549,-2228.0602 821.2549,-2228.0602 821.2549,-2144.0602 821.2549,-2144.0602 821.2549,-2138.0602 827.2549,-2132.0602 833.2549,-2132.0602"/>
<text text-anchor="middle" x="882.7549" y="-2227.2602" font-family="Times,serif" font-size="11.00" fill="#c0c0c0">Search</text>
</g>
<g id="clust28" class="cluster">
<title>cluster_\SilverStripe\FullTextSearch\Search\Queries</title>
<path fill="none" stroke="#c0c0c0" d="M841.2549,-2140.0602C841.2549,-2140.0602 924.2549,-2140.0602 924.2549,-2140.0602 930.2549,-2140.0602 936.2549,-2146.0602 936.2549,-2152.0602 936.2549,-2152.0602 936.2549,-2200.0602 936.2549,-2200.0602 936.2549,-2206.0602 930.2549,-2212.0602 924.2549,-2212.0602 924.2549,-2212.0602 841.2549,-2212.0602 841.2549,-2212.0602 835.2549,-2212.0602 829.2549,-2206.0602 829.2549,-2200.0602 829.2549,-2200.0602 829.2549,-2152.0602 829.2549,-2152.0602 829.2549,-2146.0602 835.2549,-2140.0602 841.2549,-2140.0602"/>
<text text-anchor="middle" x="882.7549" y="-2199.2602" font-family="Times,serif" font-size="11.00" fill="#c0c0c0">Queries</text>
</g>
<g id="clust29" class="cluster">
<title>cluster_\SilverStripe\FullTextSearch\Solr</title>
<path fill="none" stroke="#c0c0c0" d="M844.7549,-1998.0602C844.7549,-1998.0602 920.7549,-1998.0602 920.7549,-1998.0602 926.7549,-1998.0602 932.7549,-2004.0602 932.7549,-2010.0602 932.7549,-2010.0602 932.7549,-2112.0602 932.7549,-2112.0602 932.7549,-2118.0602 926.7549,-2124.0602 920.7549,-2124.0602 920.7549,-2124.0602 844.7549,-2124.0602 844.7549,-2124.0602 838.7549,-2124.0602 832.7549,-2118.0602 832.7549,-2112.0602 832.7549,-2112.0602 832.7549,-2010.0602 832.7549,-2010.0602 832.7549,-2004.0602 838.7549,-1998.0602 844.7549,-1998.0602"/>
<text text-anchor="middle" x="882.7549" y="-2111.2602" font-family="Times,serif" font-size="11.00" fill="#c0c0c0">Solr</text>
</g>
<!-- \\Firesphere\\SolrSearch\\Compat\\FulltextSearchExtension -->
<g id="node1" class="node">
<title>\\Firesphere\\SolrSearch\\Compat\\FulltextSearchExtension</title>
<polygon fill="none" stroke="#000000" points="758.7549,-3695.0602 586.7549,-3695.0602 586.7549,-3659.0602 758.7549,-3659.0602 758.7549,-3695.0602"/>
<text text-anchor="middle" x="672.7549" y="-3674.2602" font-family="Courier,monospace" font-size="11.00" fill="#000000">FulltextSearchExtension</text>
</g>
<!-- \\SilverStripe\\Core\\Extension -->
<g id="node56" class="node">
<title>\\SilverStripe\\Core\\Extension</title>
<ellipse fill="none" stroke="#000000" cx="254.1275" cy="-73.0602" rx="144.0747" ry="18"/>
<text text-anchor="middle" x="254.1275" y="-69.3602" font-family="Times,serif" font-size="14.00" fill="#c0c0c0">\SilverStripe\Core\Extension</text>
</g>
<!-- \\Firesphere\\SolrSearch\\Compat\\FulltextSearchExtension&#45;&gt;\\SilverStripe\\Core\\Extension -->
<g id="edge1" class="edge">
<title>\\Firesphere\\SolrSearch\\Compat\\FulltextSearchExtension&#45;&gt;\\SilverStripe\\Core\\Extension</title>
<path fill="none" stroke="#000000" d="M586.4404,-3660.2404C581.0551,-3656.6269 576.2187,-3652.2811 572.2549,-3647.0602 453.0782,-3490.0875 641.3661,-245.4044 508.2549,-100.0602 466.4179,-54.3783 394.6276,-50.4935 337.9998,-56.4028"/>
<polygon fill="none" stroke="#000000" points="337.5034,-52.9368 327.9735,-57.5662 338.3103,-59.8902 337.5034,-52.9368"/>
</g>
<!-- \\Firesphere\\SolrSearch\\Factories\\DocumentFactory -->
<g id="node2" class="node">
<title>\\Firesphere\\SolrSearch\\Factories\\DocumentFactory</title>
<polygon fill="none" stroke="#000000" points="731.7549,-3615.0602 613.7549,-3615.0602 613.7549,-3579.0602 731.7549,-3579.0602 731.7549,-3615.0602"/>
<text text-anchor="middle" x="672.7549" y="-3594.2602" font-family="Courier,monospace" font-size="11.00" fill="#000000">DocumentFactory</text>
</g>
<!-- \\Firesphere\\SolrSearch\\Factories\\QueryComponentFactory -->
<g id="node3" class="node">
<title>\\Firesphere\\SolrSearch\\Factories\\QueryComponentFactory</title>
<polygon fill="none" stroke="#000000" points="751.7549,-3561.0602 593.7549,-3561.0602 593.7549,-3525.0602 751.7549,-3525.0602 751.7549,-3561.0602"/>
<text text-anchor="middle" x="672.7549" y="-3540.2602" font-family="Courier,monospace" font-size="11.00" fill="#000000">QueryComponentFactory</text>
</g>
<!-- \\Firesphere\\SolrSearch\\Forms\\SearchForm -->
<g id="node4" class="node">
<title>\\Firesphere\\SolrSearch\\Forms\\SearchForm</title>
<polygon fill="none" stroke="#000000" points="714.7549,-3481.0602 630.7549,-3481.0602 630.7549,-3445.0602 714.7549,-3445.0602 714.7549,-3481.0602"/>
<text text-anchor="middle" x="672.7549" y="-3460.2602" font-family="Courier,monospace" font-size="11.00" fill="#000000">SearchForm</text>
</g>
<!-- \\SilverStripe\\Forms\\Form -->
<g id="node57" class="node">
<title>\\SilverStripe\\Forms\\Form</title>
<ellipse fill="none" stroke="#000000" cx="254.1275" cy="-451.0602" rx="129.1772" ry="18"/>
<text text-anchor="middle" x="254.1275" y="-447.3602" font-family="Times,serif" font-size="14.00" fill="#c0c0c0">\SilverStripe\Forms\Form</text>
</g>
<!-- \\Firesphere\\SolrSearch\\Forms\\SearchForm&#45;&gt;\\SilverStripe\\Forms\\Form -->
<g id="edge4" class="edge">
<title>\\Firesphere\\SolrSearch\\Forms\\SearchForm&#45;&gt;\\SilverStripe\\Forms\\Form</title>
<path fill="none" stroke="#000000" d="M630.6759,-3461.2722C609.8508,-3458.055 586.2378,-3450.4389 572.2549,-3433.0602 512.2571,-3358.4916 517.5005,-2669.3216 508.2549,-2574.0602 424.8413,-1714.6095 283.1941,-664.1795 258.0132,-479.4516"/>
<polygon fill="none" stroke="#000000" points="261.4685,-478.8859 256.6484,-469.451 254.5328,-479.8325 261.4685,-478.8859"/>
</g>
<!-- \\Firesphere\\SolrSearch\\Extensions\\GridFieldExtension -->
<g id="node5" class="node">
<title>\\Firesphere\\SolrSearch\\Extensions\\GridFieldExtension</title>
<polygon fill="none" stroke="#000000" points="741.7549,-3401.0602 603.7549,-3401.0602 603.7549,-3365.0602 741.7549,-3365.0602 741.7549,-3401.0602"/>
<text text-anchor="middle" x="672.7549" y="-3380.2602" font-family="Courier,monospace" font-size="11.00" fill="#000000">GridFieldExtension</text>
</g>
<!-- \\Firesphere\\SolrSearch\\Extensions\\GridFieldExtension&#45;&gt;\\SilverStripe\\Core\\Extension -->
<g id="edge5" class="edge">
<title>\\Firesphere\\SolrSearch\\Extensions\\GridFieldExtension&#45;&gt;\\SilverStripe\\Core\\Extension</title>
<path fill="none" stroke="#000000" d="M603.543,-3376.9654C591.4106,-3372.7375 580.16,-3366.1621 572.2549,-3356.0602 460.7573,-3213.5761 630.5567,-233.3857 508.2549,-100.0602 466.3811,-54.412 394.5941,-50.5242 337.977,-56.4237"/>
<polygon fill="none" stroke="#000000" points="337.4833,-52.9574 327.9527,-57.5853 338.2891,-59.9109 337.4833,-52.9574"/>
</g>
<!-- \\Firesphere\\SolrSearch\\Extensions\\DataObjectExtension -->
<g id="node6" class="node">
<title>\\Firesphere\\SolrSearch\\Extensions\\DataObjectExtension</title>
<polygon fill="none" stroke="#000000" points="745.2549,-3347.0602 600.2549,-3347.0602 600.2549,-3311.0602 745.2549,-3311.0602 745.2549,-3347.0602"/>
<text text-anchor="middle" x="672.7549" y="-3326.2602" font-family="Courier,monospace" font-size="11.00" fill="#000000">DataObjectExtension</text>
</g>
<!-- \\SilverStripe\\ORM\\DataExtension -->
<g id="node58" class="node">
<title>\\SilverStripe\\ORM\\DataExtension</title>
<ellipse fill="none" stroke="#000000" cx="254.1275" cy="-19.0602" rx="167.8704" ry="18"/>
<text text-anchor="middle" x="254.1275" y="-15.3602" font-family="Times,serif" font-size="14.00" fill="#c0c0c0">\SilverStripe\ORM\DataExtension</text>
</g>
<!-- \\Firesphere\\SolrSearch\\Extensions\\DataObjectExtension&#45;&gt;\\SilverStripe\\ORM\\DataExtension -->
<g id="edge6" class="edge">
<title>\\Firesphere\\SolrSearch\\Extensions\\DataObjectExtension&#45;&gt;\\SilverStripe\\ORM\\DataExtension</title>
<path fill="none" stroke="#000000" d="M600.1142,-3319.507C589.2711,-3314.9506 579.3644,-3308.4085 572.2549,-3299.0602 462.8357,-3155.1832 630.4453,-179.2618 508.2549,-46.0602 467.4556,-1.5842 398.2596,3.2483 342.366,-1.9895"/>
<polygon fill="none" stroke="#000000" points="341.6698,1.4564 332.0941,-3.0775 342.4072,-5.5047 341.6698,1.4564"/>
</g>
<!-- \\Firesphere\\SolrSearch\\Tasks\\ClearErrorsTask -->
<g id="node7" class="node">
<title>\\Firesphere\\SolrSearch\\Tasks\\ClearErrorsTask</title>
<polygon fill="none" stroke="#000000" points="731.7549,-3267.0602 613.7549,-3267.0602 613.7549,-3231.0602 731.7549,-3231.0602 731.7549,-3267.0602"/>
<text text-anchor="middle" x="672.7549" y="-3246.2602" font-family="Courier,monospace" font-size="11.00" fill="#000000">ClearErrorsTask</text>
</g>
<!-- \\SilverStripe\\Dev\\BuildTask -->
<g id="node59" class="node">
<title>\\SilverStripe\\Dev\\BuildTask</title>
<ellipse fill="none" stroke="#000000" cx="254.1275" cy="-397.0602" rx="139.9756" ry="18"/>
<text text-anchor="middle" x="254.1275" y="-393.3602" font-family="Times,serif" font-size="14.00" fill="#c0c0c0">\SilverStripe\Dev\BuildTask</text>
</g>
<!-- \\Firesphere\\SolrSearch\\Tasks\\ClearErrorsTask&#45;&gt;\\SilverStripe\\Dev\\BuildTask -->
<g id="edge7" class="edge">
<title>\\Firesphere\\SolrSearch\\Tasks\\ClearErrorsTask&#45;&gt;\\SilverStripe\\Dev\\BuildTask</title>
<path fill="none" stroke="#000000" d="M613.7139,-3245.9218C597.8696,-3242.0623 582.3518,-3234.9204 572.2549,-3222.0602 476.2376,-3099.7642 613.5446,-538.4704 508.2549,-424.0602 466.166,-378.3255 394.0421,-374.5596 337.3584,-380.5254"/>
<polygon fill="none" stroke="#000000" points="336.8511,-377.0608 327.3251,-381.6983 337.6639,-384.0135 336.8511,-377.0608"/>
</g>
<!-- \\Firesphere\\SolrSearch\\Tasks\\ClearDirtyClassesTask -->
<g id="node8" class="node">
<title>\\Firesphere\\SolrSearch\\Tasks\\ClearDirtyClassesTask</title>
<polygon fill="none" stroke="#000000" points="751.7549,-3213.0602 593.7549,-3213.0602 593.7549,-3177.0602 751.7549,-3177.0602 751.7549,-3213.0602"/>
<text text-anchor="middle" x="672.7549" y="-3192.2602" font-family="Courier,monospace" font-size="11.00" fill="#000000">ClearDirtyClassesTask</text>
</g>
<!-- \\Firesphere\\SolrSearch\\Tasks\\ClearDirtyClassesTask&#45;&gt;\\SilverStripe\\Dev\\BuildTask -->
<g id="edge8" class="edge">
<title>\\Firesphere\\SolrSearch\\Tasks\\ClearDirtyClassesTask&#45;&gt;\\SilverStripe\\Dev\\BuildTask</title>
<path fill="none" stroke="#000000" d="M593.5808,-3184.7873C585.359,-3180.7366 577.9465,-3175.3061 572.2549,-3168.0602 478.0627,-3048.1444 611.5389,-536.2403 508.2549,-424.0602 466.1557,-378.3349 394.0328,-374.5682 337.3521,-380.5313"/>
<polygon fill="none" stroke="#000000" points="336.8455,-377.0666 327.3193,-381.7036 337.658,-384.0192 336.8455,-377.0666"/>
</g>
<!-- \\Firesphere\\SolrSearch\\Tasks\\SolrConfigureTask -->
<g id="node9" class="node">
<title>\\Firesphere\\SolrSearch\\Tasks\\SolrConfigureTask</title>
<polygon fill="none" stroke="#000000" points="738.2549,-3159.0602 607.2549,-3159.0602 607.2549,-3123.0602 738.2549,-3123.0602 738.2549,-3159.0602"/>
<text text-anchor="middle" x="672.7549" y="-3138.2602" font-family="Courier,monospace" font-size="11.00" fill="#000000">SolrConfigureTask</text>
</g>
<!-- \\Firesphere\\SolrSearch\\Tasks\\SolrConfigureTask&#45;&gt;\\SilverStripe\\Dev\\BuildTask -->
<g id="edge9" class="edge">
<title>\\Firesphere\\SolrSearch\\Tasks\\SolrConfigureTask&#45;&gt;\\SilverStripe\\Dev\\BuildTask</title>
<path fill="none" stroke="#000000" d="M607.1881,-3136.1225C593.6934,-3131.9748 580.9622,-3125.1401 572.2549,-3114.0602 479.8879,-2996.5246 609.5332,-534.0102 508.2549,-424.0602 466.145,-378.3448 394.0231,-374.5771 337.3455,-380.5373"/>
<polygon fill="none" stroke="#000000" points="336.8397,-377.0725 327.3133,-381.7091 337.6519,-384.0252 336.8397,-377.0725"/>
</g>
<!-- \\Firesphere\\SolrSearch\\Tasks\\SolrIndexTask -->
<g id="node10" class="node">
<title>\\Firesphere\\SolrSearch\\Tasks\\SolrIndexTask</title>
<polygon fill="none" stroke="#000000" points="724.7549,-3105.0602 620.7549,-3105.0602 620.7549,-3069.0602 724.7549,-3069.0602 724.7549,-3105.0602"/>
<text text-anchor="middle" x="672.7549" y="-3084.2602" font-family="Courier,monospace" font-size="11.00" fill="#000000">SolrIndexTask</text>
</g>
<!-- \\Firesphere\\SolrSearch\\Tasks\\SolrIndexTask&#45;&gt;\\SilverStripe\\Dev\\BuildTask -->
<g id="edge10" class="edge">
<title>\\Firesphere\\SolrSearch\\Tasks\\SolrIndexTask&#45;&gt;\\SilverStripe\\Dev\\BuildTask</title>
<path fill="none" stroke="#000000" d="M620.6984,-3083.8045C602.4954,-3079.8793 583.7531,-3072.1069 572.2549,-3057.0602 483.4118,-2940.7987 607.416,-531.6562 508.2549,-424.0602 466.1333,-378.3556 394.0124,-374.5869 337.3383,-380.544"/>
<polygon fill="none" stroke="#000000" points="336.8334,-377.0791 327.3068,-381.7152 337.6452,-384.0318 336.8334,-377.0791"/>
</g>
<!-- \\Firesphere\\SolrSearch\\Helpers\\FieldResolver -->
<g id="node11" class="node">
<title>\\Firesphere\\SolrSearch\\Helpers\\FieldResolver</title>
<polygon fill="none" stroke="#000000" points="724.7549,-3025.0602 620.7549,-3025.0602 620.7549,-2989.0602 724.7549,-2989.0602 724.7549,-3025.0602"/>
<text text-anchor="middle" x="672.7549" y="-3004.2602" font-family="Courier,monospace" font-size="11.00" fill="#000000">FieldResolver</text>
</g>
<!-- \\Firesphere\\SolrSearch\\Helpers\\Statics -->
<g id="node12" class="node">
<title>\\Firesphere\\SolrSearch\\Helpers\\Statics</title>
<polygon fill="none" stroke="#000000" points="704.7549,-2971.0602 640.7549,-2971.0602 640.7549,-2935.0602 704.7549,-2935.0602 704.7549,-2971.0602"/>
<text text-anchor="middle" x="672.7549" y="-2950.2602" font-family="Courier,monospace" font-size="11.00" fill="#000000">Statics</text>
</g>
<!-- \\Firesphere\\SolrSearch\\Helpers\\SolrLogger -->
<g id="node13" class="node">
<title>\\Firesphere\\SolrSearch\\Helpers\\SolrLogger</title>
<polygon fill="none" stroke="#000000" points="714.7549,-2917.0602 630.7549,-2917.0602 630.7549,-2881.0602 714.7549,-2881.0602 714.7549,-2917.0602"/>
<text text-anchor="middle" x="672.7549" y="-2896.2602" font-family="Courier,monospace" font-size="11.00" fill="#000000">SolrLogger</text>
</g>
<!-- \\Firesphere\\SolrSearch\\Helpers\\Synonyms -->
<g id="node14" class="node">
<title>\\Firesphere\\SolrSearch\\Helpers\\Synonyms</title>
<polygon fill="none" stroke="#000000" points="708.2549,-2863.0602 637.2549,-2863.0602 637.2549,-2827.0602 708.2549,-2827.0602 708.2549,-2863.0602"/>
<text text-anchor="middle" x="672.7549" y="-2842.2602" font-family="Courier,monospace" font-size="11.00" fill="#000000">Synonyms</text>
</g>
<!-- \\Firesphere\\SolrSearch\\Helpers\\DataResolver -->
<g id="node15" class="node">
<title>\\Firesphere\\SolrSearch\\Helpers\\DataResolver</title>
<polygon fill="none" stroke="#000000" points="721.7549,-2809.0602 623.7549,-2809.0602 623.7549,-2773.0602 721.7549,-2773.0602 721.7549,-2809.0602"/>
<text text-anchor="middle" x="672.7549" y="-2788.2602" font-family="Courier,monospace" font-size="11.00" fill="#000000">DataResolver</text>
</g>
<!-- \\Firesphere\\SolrSearch\\States\\SiteState -->
<g id="node16" class="node">
<title>\\Firesphere\\SolrSearch\\States\\SiteState</title>
<polygon fill="none" stroke="#000000" points="714.7549,-2729.0602 630.7549,-2729.0602 630.7549,-2693.0602 714.7549,-2693.0602 714.7549,-2729.0602"/>
<text text-anchor="start" x="638.7549" y="-2714.2602" font-family="Courier,monospace" font-size="11.00" fill="#000000">«abstract»</text>
<text text-anchor="start" x="642.2549" y="-2702.2602" font-family="Courier,monospace" font-size="11.00" fill="#000000">SiteState</text>
</g>
<!-- \\Firesphere\\SolrSearch\\Admins\\SearchAdmin -->
<g id="node17" class="node">
<title>\\Firesphere\\SolrSearch\\Admins\\SearchAdmin</title>
<polygon fill="none" stroke="#000000" points="718.2549,-2515.0602 627.2549,-2515.0602 627.2549,-2479.0602 718.2549,-2479.0602 718.2549,-2515.0602"/>
<text text-anchor="middle" x="672.7549" y="-2494.2602" font-family="Courier,monospace" font-size="11.00" fill="#000000">SearchAdmin</text>
</g>
<!-- \\SilverStripe\\Admin\\ModelAdmin -->
<g id="node60" class="node">
<title>\\SilverStripe\\Admin\\ModelAdmin</title>
<ellipse fill="none" stroke="#000000" cx="254.1275" cy="-343.0602" rx="165.1707" ry="18"/>
<text text-anchor="middle" x="254.1275" y="-339.3602" font-family="Times,serif" font-size="14.00" fill="#c0c0c0">\SilverStripe\Admin\ModelAdmin</text>
</g>
<!-- \\Firesphere\\SolrSearch\\Admins\\SearchAdmin&#45;&gt;\\SilverStripe\\Admin\\ModelAdmin -->
<g id="edge11" class="edge">
<title>\\Firesphere\\SolrSearch\\Admins\\SearchAdmin&#45;&gt;\\SilverStripe\\Admin\\ModelAdmin</title>
<path fill="none" stroke="#000000" d="M627.0126,-2494.9791C606.9739,-2491.5325 585.1318,-2483.8032 572.2549,-2467.0602 430.142,-2282.2806 666.7629,-540.9835 508.2549,-370.0602 467.2862,-325.8825 398.2735,-320.9764 342.4975,-326.1089"/>
<polygon fill="none" stroke="#000000" points="341.8301,-322.6594 332.2467,-327.1768 342.5555,-329.6217 341.8301,-322.6594"/>
</g>
<!-- \\Firesphere\\SolrSearch\\Models\\DirtyClass -->
<g id="node18" class="node">
<title>\\Firesphere\\SolrSearch\\Models\\DirtyClass</title>
<polygon fill="none" stroke="#000000" points="714.7549,-2435.0602 630.7549,-2435.0602 630.7549,-2399.0602 714.7549,-2399.0602 714.7549,-2435.0602"/>
<text text-anchor="middle" x="672.7549" y="-2414.2602" font-family="Courier,monospace" font-size="11.00" fill="#000000">DirtyClass</text>
</g>
<!-- \\SilverStripe\\ORM\\DataObject -->
<g id="node61" class="node">
<title>\\SilverStripe\\ORM\\DataObject</title>
<ellipse fill="none" stroke="#000000" cx="254.1275" cy="-289.0602" rx="152.9733" ry="18"/>
<text text-anchor="middle" x="254.1275" y="-285.3602" font-family="Times,serif" font-size="14.00" fill="#c0c0c0">\SilverStripe\ORM\DataObject</text>
</g>
<!-- \\Firesphere\\SolrSearch\\Models\\DirtyClass&#45;&gt;\\SilverStripe\\ORM\\DataObject -->
<g id="edge12" class="edge">
<title>\\Firesphere\\SolrSearch\\Models\\DirtyClass&#45;&gt;\\SilverStripe\\ORM\\DataObject</title>
<path fill="none" stroke="#000000" d="M630.7303,-2416.8782C609.7865,-2414.3974 586.0473,-2407.4838 572.2549,-2390.0602 429.1576,-2209.2886 665.0546,-485.0841 508.2549,-316.0602 466.6955,-271.2608 396.2965,-266.8512 340.1195,-272.3385"/>
<polygon fill="none" stroke="#000000" points="339.7239,-268.8608 330.1637,-273.4273 340.485,-275.8193 339.7239,-268.8608"/>
</g>
<!-- \\Firesphere\\SolrSearch\\Models\\SearchSynonym -->
<g id="node19" class="node">
<title>\\Firesphere\\SolrSearch\\Models\\SearchSynonym</title>
<polygon fill="none" stroke="#000000" points="724.7549,-2381.0602 620.7549,-2381.0602 620.7549,-2345.0602 724.7549,-2345.0602 724.7549,-2381.0602"/>
<text text-anchor="middle" x="672.7549" y="-2360.2602" font-family="Courier,monospace" font-size="11.00" fill="#000000">SearchSynonym</text>
</g>
<!-- \\Firesphere\\SolrSearch\\Models\\SearchSynonym&#45;&gt;\\SilverStripe\\ORM\\DataObject -->
<g id="edge13" class="edge">
<title>\\Firesphere\\SolrSearch\\Models\\SearchSynonym&#45;&gt;\\SilverStripe\\ORM\\DataObject</title>
<path fill="none" stroke="#000000" d="M620.6157,-2361.3347C602.5167,-2357.9354 583.8668,-2350.7168 572.2549,-2336.0602 432.8073,-2160.0482 661.0438,-480.6245 508.2549,-316.0602 466.6771,-271.278 396.2795,-266.867 340.1076,-272.3495"/>
<polygon fill="none" stroke="#000000" points="339.7134,-268.8716 330.1529,-273.4374 340.474,-275.8302 339.7134,-268.8716"/>
</g>
<!-- \\Firesphere\\SolrSearch\\Models\\SolrLog -->
<g id="node20" class="node">
<title>\\Firesphere\\SolrSearch\\Models\\SolrLog</title>
<polygon fill="none" stroke="#000000" points="704.7549,-2327.0602 640.7549,-2327.0602 640.7549,-2291.0602 704.7549,-2291.0602 704.7549,-2327.0602"/>
<text text-anchor="middle" x="672.7549" y="-2306.2602" font-family="Courier,monospace" font-size="11.00" fill="#000000">SolrLog</text>
</g>
<!-- \\Firesphere\\SolrSearch\\Models\\SolrLog&#45;&gt;\\SilverStripe\\ORM\\DataObject -->
<g id="edge14" class="edge">
<title>\\Firesphere\\SolrSearch\\Models\\SolrLog&#45;&gt;\\SilverStripe\\ORM\\DataObject</title>
<path fill="none" stroke="#000000" d="M640.5888,-2308.7397C617.6465,-2306.6277 588.1505,-2299.6837 572.2549,-2279.0602 439.0344,-2106.2154 656.8103,-475.9174 508.2549,-316.0602 466.7277,-271.3737 396.5015,-266.8999 340.3831,-272.3337"/>
<polygon fill="none" stroke="#000000" points="340.0007,-268.8545 330.4367,-273.413 340.7559,-275.8137 340.0007,-268.8545"/>
</g>
<!-- \\SilverStripe\\Security\\PermissionProvider -->
<g id="node62" class="node">
<title>\\SilverStripe\\Security\\PermissionProvider</title>
<ellipse fill="none" stroke="#000000" cx="254.1275" cy="-235.0602" rx="206.0634" ry="18"/>
<text text-anchor="middle" x="254.1275" y="-231.3602" font-family="Times,serif" font-size="14.00" fill="#c0c0c0">\SilverStripe\Security\PermissionProvider</text>
</g>
<!-- \\Firesphere\\SolrSearch\\Models\\SolrLog&#45;&gt;\\SilverStripe\\Security\\PermissionProvider -->
<g id="edge15" class="edge">
<title>\\Firesphere\\SolrSearch\\Models\\SolrLog&#45;&gt;\\SilverStripe\\Security\\PermissionProvider</title>
<path fill="none" stroke="#000000" stroke-dasharray="1,5" d="M640.5835,-2308.7437C617.6385,-2306.6338 588.1415,-2299.6906 572.2549,-2279.0602 435.451,-2101.4059 660.821,-426.3768 508.2549,-262.0602 468.5383,-219.2847 402.5269,-213.344 347.7365,-217.6757"/>
<polygon fill="none" stroke="#000000" points="347.2855,-214.2023 337.6454,-218.5975 347.9223,-221.1732 347.2855,-214.2023"/>
</g>
<!-- \\Firesphere\\SolrSearch\\Stores\\PostConfigStore -->
<g id="node21" class="node">
<title>\\Firesphere\\SolrSearch\\Stores\\PostConfigStore</title>
<polygon fill="none" stroke="#000000" points="731.7549,-2649.0602 613.7549,-2649.0602 613.7549,-2613.0602 731.7549,-2613.0602 731.7549,-2649.0602"/>
<text text-anchor="middle" x="672.7549" y="-2628.2602" font-family="Courier,monospace" font-size="11.00" fill="#000000">PostConfigStore</text>
</g>
<!-- \\Firesphere\\SolrSearch\\Interfaces\\ConfigStore -->
<g id="node25" class="node">
<title>\\Firesphere\\SolrSearch\\Interfaces\\ConfigStore</title>
<polygon fill="none" stroke="#000000" points="299.6275,-2622.0602 208.6275,-2622.0602 208.6275,-2586.0602 299.6275,-2586.0602 299.6275,-2622.0602"/>
<text text-anchor="middle" x="254.1275" y="-2601.2602" font-family="Courier,monospace" font-size="11.00" fill="#000000">ConfigStore</text>
</g>
<!-- \\Firesphere\\SolrSearch\\Stores\\PostConfigStore&#45;&gt;\\Firesphere\\SolrSearch\\Interfaces\\ConfigStore -->
<g id="edge16" class="edge">
<title>\\Firesphere\\SolrSearch\\Stores\\PostConfigStore&#45;&gt;\\Firesphere\\SolrSearch\\Interfaces\\ConfigStore</title>
<path fill="none" stroke="#000000" stroke-dasharray="1,5" d="M613.6637,-2627.249C532.8854,-2622.0391 389.0185,-2612.7602 309.9722,-2607.662"/>
<polygon fill="none" stroke="#000000" points="309.9333,-2604.1523 299.7287,-2607.0013 309.4827,-2611.1378 309.9333,-2604.1523"/>
</g>
<!-- \\Firesphere\\SolrSearch\\Stores\\FileConfigStore -->
<g id="node22" class="node">
<title>\\Firesphere\\SolrSearch\\Stores\\FileConfigStore</title>
<polygon fill="none" stroke="#000000" points="731.7549,-2595.0602 613.7549,-2595.0602 613.7549,-2559.0602 731.7549,-2559.0602 731.7549,-2595.0602"/>
<text text-anchor="middle" x="672.7549" y="-2574.2602" font-family="Courier,monospace" font-size="11.00" fill="#000000">FileConfigStore</text>
</g>
<!-- \\Firesphere\\SolrSearch\\Stores\\FileConfigStore&#45;&gt;\\Firesphere\\SolrSearch\\Interfaces\\ConfigStore -->
<g id="edge17" class="edge">
<title>\\Firesphere\\SolrSearch\\Stores\\FileConfigStore&#45;&gt;\\Firesphere\\SolrSearch\\Interfaces\\ConfigStore</title>
<path fill="none" stroke="#000000" stroke-dasharray="1,5" d="M613.6637,-2580.8714C532.8854,-2586.0813 389.0185,-2595.3602 309.9722,-2600.4584"/>
<polygon fill="none" stroke="#000000" points="309.4827,-2596.9826 299.7287,-2601.1191 309.9333,-2603.9681 309.4827,-2596.9826"/>
</g>
<!-- \\Firesphere\\SolrSearch\\Queries\\BaseQuery -->
<g id="node23" class="node">
<title>\\Firesphere\\SolrSearch\\Queries\\BaseQuery</title>
<polygon fill="none" stroke="#000000" points="711.2549,-2247.0602 634.2549,-2247.0602 634.2549,-2211.0602 711.2549,-2211.0602 711.2549,-2247.0602"/>
<text text-anchor="middle" x="672.7549" y="-2226.2602" font-family="Courier,monospace" font-size="11.00" fill="#000000">BaseQuery</text>
</g>
<!-- \\Firesphere\\SolrSearch\\Interfaces\\SiteStateInterface -->
<g id="node24" class="node">
<title>\\Firesphere\\SolrSearch\\Interfaces\\SiteStateInterface</title>
<polygon fill="none" stroke="#000000" points="323.1275,-2676.0602 185.1275,-2676.0602 185.1275,-2640.0602 323.1275,-2640.0602 323.1275,-2676.0602"/>
<text text-anchor="middle" x="254.1275" y="-2655.2602" font-family="Courier,monospace" font-size="11.00" fill="#000000">SiteStateInterface</text>
</g>
<!-- \\Firesphere\\SolrSearch\\Services\\SchemaService -->
<g id="node26" class="node">
<title>\\Firesphere\\SolrSearch\\Services\\SchemaService</title>
<polygon fill="none" stroke="#000000" points="724.7549,-2167.0602 620.7549,-2167.0602 620.7549,-2131.0602 724.7549,-2131.0602 724.7549,-2167.0602"/>
<text text-anchor="middle" x="672.7549" y="-2146.2602" font-family="Courier,monospace" font-size="11.00" fill="#000000">SchemaService</text>
</g>
<!-- \\SilverStripe\\View\\ViewableData -->
<g id="node63" class="node">
<title>\\SilverStripe\\View\\ViewableData</title>
<ellipse fill="none" stroke="#000000" cx="254.1275" cy="-181.0602" rx="163.2712" ry="18"/>
<text text-anchor="middle" x="254.1275" y="-177.3602" font-family="Times,serif" font-size="14.00" fill="#c0c0c0">\SilverStripe\View\ViewableData</text>
</g>
<!-- \\Firesphere\\SolrSearch\\Services\\SchemaService&#45;&gt;\\SilverStripe\\View\\ViewableData -->
<g id="edge18" class="edge">
<title>\\Firesphere\\SolrSearch\\Services\\SchemaService&#45;&gt;\\SilverStripe\\View\\ViewableData</title>
<path fill="none" stroke="#000000" d="M620.6293,-2147.3239C602.532,-2143.9233 583.8796,-2136.7066 572.2549,-2122.0602 439.9712,-1955.3908 653.171,-363.8709 508.2549,-208.0602 467.2218,-163.9423 398.2131,-159.0325 342.4549,-164.1484"/>
<polygon fill="none" stroke="#000000" points="341.7923,-160.6983 332.2076,-165.2131 342.5158,-167.6608 341.7923,-160.6983"/>
</g>
<!-- \\Firesphere\\SolrSearch\\Services\\SolrCoreService -->
<g id="node27" class="node">
<title>\\Firesphere\\SolrSearch\\Services\\SolrCoreService</title>
<polygon fill="none" stroke="#000000" points="731.7549,-2113.0602 613.7549,-2113.0602 613.7549,-2077.0602 731.7549,-2077.0602 731.7549,-2113.0602"/>
<text text-anchor="middle" x="672.7549" y="-2092.2602" font-family="Courier,monospace" font-size="11.00" fill="#000000">SolrCoreService</text>
</g>
<!-- \\Firesphere\\SolrSearch\\Indexes\\BaseIndex -->
<g id="node28" class="node">
<title>\\Firesphere\\SolrSearch\\Indexes\\BaseIndex</title>
<polygon fill="none" stroke="#000000" points="714.7549,-2033.0602 630.7549,-2033.0602 630.7549,-1997.0602 714.7549,-1997.0602 714.7549,-2033.0602"/>
<text text-anchor="start" x="638.7549" y="-2018.2602" font-family="Courier,monospace" font-size="11.00" fill="#000000">«abstract»</text>
<text text-anchor="start" x="642.2549" y="-2006.2602" font-family="Courier,monospace" font-size="11.00" fill="#000000">BaseIndex</text>
</g>
<!-- \\Firesphere\\SolrSearch\\Jobs\\SolrConfigureJob -->
<g id="node29" class="node">
<title>\\Firesphere\\SolrSearch\\Jobs\\SolrConfigureJob</title>
<polygon fill="none" stroke="#000000" points="735.2549,-1899.0602 610.2549,-1899.0602 610.2549,-1863.0602 735.2549,-1863.0602 735.2549,-1899.0602"/>
<text text-anchor="middle" x="672.7549" y="-1878.2602" font-family="Courier,monospace" font-size="11.00" fill="#000000">SolrConfigureJob</text>
</g>
<!-- \\Symbiote\\QueuedJobs\\Services\\AbstractQueuedJob -->
<g id="node64" class="node">
<title>\\Symbiote\\QueuedJobs\\Services\\AbstractQueuedJob</title>
<ellipse fill="none" stroke="#000000" cx="254.1275" cy="-127.0602" rx="254.255" ry="18"/>
<text text-anchor="middle" x="254.1275" y="-123.3602" font-family="Times,serif" font-size="14.00" fill="#c0c0c0">\Symbiote\QueuedJobs\Services\AbstractQueuedJob</text>
</g>
<!-- \\Firesphere\\SolrSearch\\Jobs\\SolrConfigureJob&#45;&gt;\\Symbiote\\QueuedJobs\\Services\\AbstractQueuedJob -->
<g id="edge19" class="edge">
<title>\\Firesphere\\SolrSearch\\Jobs\\SolrConfigureJob&#45;&gt;\\Symbiote\\QueuedJobs\\Services\\AbstractQueuedJob</title>
<path fill="none" stroke="#000000" d="M610.1644,-1876.8721C595.6192,-1872.8302 581.6581,-1865.8566 572.2549,-1854.0602 454.433,-1706.2509 637.2782,-292.1999 508.2549,-154.0602 469.704,-112.7853 406.6571,-105.8824 353.0074,-109.3739"/>
<polygon fill="none" stroke="#000000" points="352.4585,-105.906 342.7606,-110.1721 353.0022,-112.8849 352.4585,-105.906"/>
</g>
<!-- \\Firesphere\\SolrSearch\\Jobs\\ClearDirtyClassesJob -->
<g id="node30" class="node">
<title>\\Firesphere\\SolrSearch\\Jobs\\ClearDirtyClassesJob</title>
<polygon fill="none" stroke="#000000" points="748.7549,-1845.0602 596.7549,-1845.0602 596.7549,-1809.0602 748.7549,-1809.0602 748.7549,-1845.0602"/>
<text text-anchor="middle" x="672.7549" y="-1824.2602" font-family="Courier,monospace" font-size="11.00" fill="#000000">ClearDirtyClassesJob</text>
</g>
<!-- \\Firesphere\\SolrSearch\\Jobs\\ClearDirtyClassesJob&#45;&gt;\\Symbiote\\QueuedJobs\\Services\\AbstractQueuedJob -->
<g id="edge20" class="edge">
<title>\\Firesphere\\SolrSearch\\Jobs\\ClearDirtyClassesJob&#45;&gt;\\Symbiote\\QueuedJobs\\Services\\AbstractQueuedJob</title>
<path fill="none" stroke="#000000" d="M596.5164,-1815.7254C587.1283,-1811.2966 578.617,-1805.2606 572.2549,-1797.0602 460.2679,-1652.7133 633.0454,-287.4935 508.2549,-154.0602 469.677,-112.8105 406.63,-105.9076 352.987,-109.393"/>
<polygon fill="none" stroke="#000000" points="352.44,-105.9249 342.7415,-110.1899 352.9829,-112.9038 352.44,-105.9249"/>
</g>
<!-- \\Firesphere\\SolrSearch\\Jobs\\SolrIndexJob -->
<g id="node31" class="node">
<title>\\Firesphere\\SolrSearch\\Jobs\\SolrIndexJob</title>
<polygon fill="none" stroke="#000000" points="721.7549,-1953.0602 623.7549,-1953.0602 623.7549,-1917.0602 721.7549,-1917.0602 721.7549,-1953.0602"/>
<text text-anchor="middle" x="672.7549" y="-1932.2602" font-family="Courier,monospace" font-size="11.00" fill="#000000">SolrIndexJob</text>
</g>
<!-- \\Firesphere\\SolrSearch\\Jobs\\SolrIndexJob&#45;&gt;\\Symbiote\\QueuedJobs\\Services\\AbstractQueuedJob -->
<g id="edge21" class="edge">
<title>\\Firesphere\\SolrSearch\\Jobs\\SolrIndexJob&#45;&gt;\\Symbiote\\QueuedJobs\\Services\\AbstractQueuedJob</title>
<path fill="none" stroke="#000000" d="M623.5318,-1933.8158C604.5611,-1930.6479 584.5208,-1923.4662 572.2549,-1908.0602 450.7839,-1755.492 641.2884,-296.6587 508.2549,-154.0602 469.7278,-112.763 406.6811,-105.8599 353.0255,-109.357"/>
<polygon fill="none" stroke="#000000" points="352.475,-105.8892 342.7775,-110.1564 353.0194,-112.868 352.475,-105.8892"/>
</g>
<!-- \\Firesphere\\SolrSearch\\Traits\\BaseQueryTrait -->
<g id="node32" class="node">
<title>\\Firesphere\\SolrSearch\\Traits\\BaseQueryTrait</title>
<polygon fill="none" stroke="#000000" points="728.2549,-1765.0602 617.2549,-1765.0602 617.2549,-1729.0602 728.2549,-1729.0602 728.2549,-1765.0602"/>
<text text-anchor="middle" x="672.7549" y="-1744.2602" font-family="Courier,monospace" font-size="11.00" fill="#000000">BaseQueryTrait</text>
</g>
<!-- \\Firesphere\\SolrSearch\\Traits\\CoreServiceTrait -->
<g id="node33" class="node">
<title>\\Firesphere\\SolrSearch\\Traits\\CoreServiceTrait</title>
<polygon fill="none" stroke="#000000" points="735.2549,-1711.0602 610.2549,-1711.0602 610.2549,-1675.0602 735.2549,-1675.0602 735.2549,-1711.0602"/>
<text text-anchor="middle" x="672.7549" y="-1690.2602" font-family="Courier,monospace" font-size="11.00" fill="#000000">CoreServiceTrait</text>
</g>
<!-- \\Firesphere\\SolrSearch\\Traits\\CoreAdminTrait -->
<g id="node34" class="node">
<title>\\Firesphere\\SolrSearch\\Traits\\CoreAdminTrait</title>
<polygon fill="none" stroke="#000000" points="728.2549,-1657.0602 617.2549,-1657.0602 617.2549,-1621.0602 728.2549,-1621.0602 728.2549,-1657.0602"/>
<text text-anchor="middle" x="672.7549" y="-1636.2602" font-family="Courier,monospace" font-size="11.00" fill="#000000">CoreAdminTrait</text>
</g>
<!-- \\Firesphere\\SolrSearch\\Traits\\SearchResultSetTrait -->
<g id="node35" class="node">
<title>\\Firesphere\\SolrSearch\\Traits\\SearchResultSetTrait</title>
<polygon fill="none" stroke="#000000" points="748.7549,-1603.0602 596.7549,-1603.0602 596.7549,-1567.0602 748.7549,-1567.0602 748.7549,-1603.0602"/>
<text text-anchor="middle" x="672.7549" y="-1582.2602" font-family="Courier,monospace" font-size="11.00" fill="#000000">SearchResultSetTrait</text>
</g>
<!-- \\Firesphere\\SolrSearch\\Traits\\SearchResultGetTrait -->
<g id="node36" class="node">
<title>\\Firesphere\\SolrSearch\\Traits\\SearchResultGetTrait</title>
<polygon fill="none" stroke="#000000" points="748.7549,-1549.0602 596.7549,-1549.0602 596.7549,-1513.0602 748.7549,-1513.0602 748.7549,-1549.0602"/>
<text text-anchor="middle" x="672.7549" y="-1528.2602" font-family="Courier,monospace" font-size="11.00" fill="#000000">SearchResultGetTrait</text>
</g>
<!-- \\Firesphere\\SolrSearch\\Traits\\GetterSetterTrait -->
<g id="node37" class="node">
<title>\\Firesphere\\SolrSearch\\Traits\\GetterSetterTrait</title>
<polygon fill="none" stroke="#000000" points="738.2549,-1495.0602 607.2549,-1495.0602 607.2549,-1459.0602 738.2549,-1459.0602 738.2549,-1495.0602"/>
<text text-anchor="middle" x="672.7549" y="-1474.2602" font-family="Courier,monospace" font-size="11.00" fill="#000000">GetterSetterTrait</text>
</g>
<!-- \\Firesphere\\SolrSearch\\Traits\\LoggerTrait -->
<g id="node38" class="node">
<title>\\Firesphere\\SolrSearch\\Traits\\LoggerTrait</title>
<polygon fill="none" stroke="#000000" points="718.2549,-1441.0602 627.2549,-1441.0602 627.2549,-1405.0602 718.2549,-1405.0602 718.2549,-1441.0602"/>
<text text-anchor="middle" x="672.7549" y="-1420.2602" font-family="Courier,monospace" font-size="11.00" fill="#000000">LoggerTrait</text>
</g>
<!-- \\Firesphere\\SolrSearch\\Traits\\SolrIndexTrait -->
<g id="node39" class="node">
<title>\\Firesphere\\SolrSearch\\Traits\\SolrIndexTrait</title>
<polygon fill="none" stroke="#000000" points="728.2549,-1387.0602 617.2549,-1387.0602 617.2549,-1351.0602 728.2549,-1351.0602 728.2549,-1387.0602"/>
<text text-anchor="middle" x="672.7549" y="-1366.2602" font-family="Courier,monospace" font-size="11.00" fill="#000000">SolrIndexTrait</text>
</g>
<!-- \\Firesphere\\SolrSearch\\Traits\\BaseIndexTrait -->
<g id="node40" class="node">
<title>\\Firesphere\\SolrSearch\\Traits\\BaseIndexTrait</title>
<polygon fill="none" stroke="#000000" points="728.2549,-1333.0602 617.2549,-1333.0602 617.2549,-1297.0602 728.2549,-1297.0602 728.2549,-1333.0602"/>
<text text-anchor="middle" x="672.7549" y="-1312.2602" font-family="Courier,monospace" font-size="11.00" fill="#000000">BaseIndexTrait</text>
</g>
<!-- \\Firesphere\\SolrSearch\\Traits\\DocumentFactoryTrait -->
<g id="node41" class="node">
<title>\\Firesphere\\SolrSearch\\Traits\\DocumentFactoryTrait</title>
<polygon fill="none" stroke="#000000" points="748.7549,-1279.0602 596.7549,-1279.0602 596.7549,-1243.0602 748.7549,-1243.0602 748.7549,-1279.0602"/>
<text text-anchor="middle" x="672.7549" y="-1258.2602" font-family="Courier,monospace" font-size="11.00" fill="#000000">DocumentFactoryTrait</text>
</g>
<!-- \\Firesphere\\SolrSearch\\Traits\\QueryComponentBoostTrait -->
<g id="node42" class="node">
<title>\\Firesphere\\SolrSearch\\Traits\\QueryComponentBoostTrait</title>
<polygon fill="none" stroke="#000000" points="762.2549,-1225.0602 583.2549,-1225.0602 583.2549,-1189.0602 762.2549,-1189.0602 762.2549,-1225.0602"/>
<text text-anchor="middle" x="672.7549" y="-1204.2602" font-family="Courier,monospace" font-size="11.00" fill="#000000">QueryComponentBoostTrait</text>
</g>
<!-- \\Firesphere\\SolrSearch\\Traits\\QueryComponentFacetTrait -->
<g id="node43" class="node">
<title>\\Firesphere\\SolrSearch\\Traits\\QueryComponentFacetTrait</title>
<polygon fill="none" stroke="#000000" points="762.2549,-1171.0602 583.2549,-1171.0602 583.2549,-1135.0602 762.2549,-1135.0602 762.2549,-1171.0602"/>
<text text-anchor="middle" x="672.7549" y="-1150.2602" font-family="Courier,monospace" font-size="11.00" fill="#000000">QueryComponentFacetTrait</text>
</g>
<!-- \\Firesphere\\SolrSearch\\Traits\\QueryComponentFilterTrait -->
<g id="node44" class="node">
<title>\\Firesphere\\SolrSearch\\Traits\\QueryComponentFilterTrait</title>
<polygon fill="none" stroke="#000000" points="765.2549,-1117.0602 580.2549,-1117.0602 580.2549,-1081.0602 765.2549,-1081.0602 765.2549,-1117.0602"/>
<text text-anchor="middle" x="672.7549" y="-1096.2602" font-family="Courier,monospace" font-size="11.00" fill="#000000">QueryComponentFilterTrait</text>
</g>
<!-- \\Firesphere\\SolrSearch\\Traits\\GetSetSearchResolverTrait -->
<g id="node45" class="node">
<title>\\Firesphere\\SolrSearch\\Traits\\GetSetSearchResolverTrait</title>
<polygon fill="none" stroke="#000000" points="765.2549,-1063.0602 580.2549,-1063.0602 580.2549,-1027.0602 765.2549,-1027.0602 765.2549,-1063.0602"/>
<text text-anchor="middle" x="672.7549" y="-1042.2602" font-family="Courier,monospace" font-size="11.00" fill="#000000">GetSetSearchResolverTrait</text>
</g>
<!-- \\Firesphere\\SolrSearch\\Traits\\DataResolveTrait -->
<g id="node46" class="node">
<title>\\Firesphere\\SolrSearch\\Traits\\DataResolveTrait</title>
<polygon fill="none" stroke="#000000" points="735.2549,-1009.0602 610.2549,-1009.0602 610.2549,-973.0602 735.2549,-973.0602 735.2549,-1009.0602"/>
<text text-anchor="middle" x="672.7549" y="-988.2602" font-family="Courier,monospace" font-size="11.00" fill="#000000">DataResolveTrait</text>
</g>
<!-- \\Firesphere\\SolrSearch\\Traits\\GetSetSchemaServiceTrait -->
<g id="node47" class="node">
<title>\\Firesphere\\SolrSearch\\Traits\\GetSetSchemaServiceTrait</title>
<polygon fill="none" stroke="#000000" points="762.2549,-955.0602 583.2549,-955.0602 583.2549,-919.0602 762.2549,-919.0602 762.2549,-955.0602"/>
<text text-anchor="middle" x="672.7549" y="-934.2602" font-family="Courier,monospace" font-size="11.00" fill="#000000">GetSetSchemaServiceTrait</text>
</g>
<!-- \\Firesphere\\SolrSearch\\Results\\SearchResult -->
<g id="node48" class="node">
<title>\\Firesphere\\SolrSearch\\Results\\SearchResult</title>
<polygon fill="none" stroke="#000000" points="721.7549,-875.0602 623.7549,-875.0602 623.7549,-839.0602 721.7549,-839.0602 721.7549,-875.0602"/>
<text text-anchor="middle" x="672.7549" y="-854.2602" font-family="Courier,monospace" font-size="11.00" fill="#000000">SearchResult</text>
</g>
<!-- \\Firesphere\\SolrSearch\\Fluent\\FluentExtension -->
<g id="node49" class="node">
<title>\\Firesphere\\SolrSearch\\Fluent\\FluentExtension</title>
<polygon fill="none" stroke="#000000" points="731.7549,-795.0602 613.7549,-795.0602 613.7549,-759.0602 731.7549,-759.0602 731.7549,-795.0602"/>
<text text-anchor="middle" x="672.7549" y="-774.2602" font-family="Courier,monospace" font-size="11.00" fill="#000000">FluentExtension</text>
</g>
<!-- \\Firesphere\\SolrSearch\\Fluent\\FluentExtension&#45;&gt;\\SilverStripe\\Core\\Extension -->
<g id="edge22" class="edge">
<title>\\Firesphere\\SolrSearch\\Fluent\\FluentExtension&#45;&gt;\\SilverStripe\\Core\\Extension</title>
<path fill="none" stroke="#000000" d="M613.6759,-771.4514C598.0267,-767.081 582.6241,-759.6326 572.2549,-747.0602 480.327,-635.5991 610.0462,-202.5924 508.2549,-100.0602 466.1005,-57.599 397.8381,-52.381 342.672,-56.951"/>
<polygon fill="none" stroke="#000000" points="342.1583,-53.4839 332.533,-57.9114 342.8185,-60.4527 342.1583,-53.4839"/>
</g>
<!-- \\Firesphere\\SolrSearch\\Subsites\\SubsitesExtension -->
<g id="node50" class="node">
<title>\\Firesphere\\SolrSearch\\Subsites\\SubsitesExtension</title>
<polygon fill="none" stroke="#000000" points="738.2549,-715.0602 607.2549,-715.0602 607.2549,-679.0602 738.2549,-679.0602 738.2549,-715.0602"/>
<text text-anchor="middle" x="672.7549" y="-694.2602" font-family="Courier,monospace" font-size="11.00" fill="#000000">SubsitesExtension</text>
</g>
<!-- \\Firesphere\\SolrSearch\\Subsites\\SubsitesExtension&#45;&gt;\\SilverStripe\\ORM\\DataExtension -->
<g id="edge23" class="edge">
<title>\\Firesphere\\SolrSearch\\Subsites\\SubsitesExtension&#45;&gt;\\SilverStripe\\ORM\\DataExtension</title>
<path fill="none" stroke="#000000" d="M628.8735,-679.0584C608.2334,-668.2607 585.3335,-652.4235 572.2549,-631.0602 503.9736,-519.5257 600.8714,-138.3882 508.2549,-46.0602 467.4448,-5.3772 402.6328,.9752 348.6775,-2.64"/>
<polygon fill="none" stroke="#000000" points="348.0817,.8238 338.39,-3.4567 348.6357,-6.1543 348.0817,.8238"/>
</g>
<!-- \\Firesphere\\SolrPermissions\\Extensions\\BaseIndexExtension -->
<g id="node51" class="node">
<title>\\Firesphere\\SolrPermissions\\Extensions\\BaseIndexExtension</title>
<polygon fill="none" stroke="#000000" points="741.7549,-599.0602 603.7549,-599.0602 603.7549,-563.0602 741.7549,-563.0602 741.7549,-599.0602"/>
<text text-anchor="middle" x="672.7549" y="-578.2602" font-family="Courier,monospace" font-size="11.00" fill="#000000">BaseIndexExtension</text>
</g>
<!-- \\Firesphere\\SolrPermissions\\Extensions\\BaseIndexExtension&#45;&gt;\\SilverStripe\\Core\\Extension -->
<g id="edge24" class="edge">
<title>\\Firesphere\\SolrPermissions\\Extensions\\BaseIndexExtension&#45;&gt;\\SilverStripe\\Core\\Extension</title>
<path fill="none" stroke="#000000" d="M603.7001,-573.9245C591.7831,-569.7537 580.5738,-563.4653 572.2549,-554.0602 437.2493,-401.4272 654.7866,-241.6646 508.2549,-100.0602 466.0556,-59.2799 399.6237,-53.4319 345.2647,-57.3055"/>
<polygon fill="none" stroke="#000000" points="344.9399,-53.8203 335.2638,-58.1357 345.5191,-60.7963 344.9399,-53.8203"/>
</g>
<!-- \\Firesphere\\SolrPermissions\\Extensions\\DataObjectExtension -->
<g id="node52" class="node">
<title>\\Firesphere\\SolrPermissions\\Extensions\\DataObjectExtension</title>
<polygon fill="none" stroke="#000000" points="745.2549,-545.0602 600.2549,-545.0602 600.2549,-509.0602 745.2549,-509.0602 745.2549,-545.0602"/>
<text text-anchor="middle" x="672.7549" y="-524.2602" font-family="Courier,monospace" font-size="11.00" fill="#000000">DataObjectExtension</text>
</g>
<!-- \\Firesphere\\SolrPermissions\\Extensions\\DataObjectExtension&#45;&gt;\\SilverStripe\\ORM\\DataExtension -->
<g id="edge25" class="edge">
<title>\\Firesphere\\SolrPermissions\\Extensions\\DataObjectExtension&#45;&gt;\\SilverStripe\\ORM\\DataExtension</title>
<path fill="none" stroke="#000000" d="M669.255,-509.0152C653.3631,-429.0217 585.4274,-107.6488 508.2549,-46.0602 471.5859,-16.796 421.8522,-7.1005 376.1027,-5.8008"/>
<polygon fill="none" stroke="#000000" points="376.1562,-2.3013 366.1032,-5.6459 376.0477,-9.3005 376.1562,-2.3013"/>
</g>
<!-- \\SilverStripe\\FullTextSearch\\Search\\Queries\\SearchQuery -->
<g id="node53" class="node">
<title>\\SilverStripe\\FullTextSearch\\Search\\Queries\\SearchQuery</title>
<polygon fill="none" stroke="#000000" points="928.2549,-2184.0602 837.2549,-2184.0602 837.2549,-2148.0602 928.2549,-2148.0602 928.2549,-2184.0602"/>
<text text-anchor="middle" x="882.7549" y="-2163.2602" font-family="Courier,monospace" font-size="11.00" fill="#000000">SearchQuery</text>
</g>
<!-- \\SilverStripe\\FullTextSearch\\Search\\Queries\\SearchQuery&#45;&gt;\\Firesphere\\SolrSearch\\Queries\\BaseQuery -->
<g id="edge2" class="edge">
<title>\\SilverStripe\\FullTextSearch\\Search\\Queries\\SearchQuery&#45;&gt;\\Firesphere\\SolrSearch\\Queries\\BaseQuery</title>
<path fill="none" stroke="#000000" d="M836.8887,-2183.1457C821.8077,-2188.5223 804.8986,-2194.2952 789.2549,-2199.0602 767.106,-2205.8066 742.2931,-2212.3358 721.2769,-2217.5708"/>
<polygon fill="none" stroke="#000000" points="720.1647,-2214.2401 711.2932,-2220.0321 721.8403,-2221.0367 720.1647,-2214.2401"/>
</g>
<!-- \\SilverStripe\\FullTextSearch\\Solr\\SolrIndex -->
<g id="node54" class="node">
<title>\\SilverStripe\\FullTextSearch\\Solr\\SolrIndex</title>
<polygon fill="none" stroke="#000000" points="924.7549,-2096.0602 840.7549,-2096.0602 840.7549,-2060.0602 924.7549,-2060.0602 924.7549,-2096.0602"/>
<text text-anchor="start" x="848.7549" y="-2081.2602" font-family="Courier,monospace" font-size="11.00" fill="#000000">«abstract»</text>
<text text-anchor="start" x="852.2549" y="-2069.2602" font-family="Courier,monospace" font-size="11.00" fill="#000000">SolrIndex</text>
</g>
<!-- \\SilverStripe\\FullTextSearch\\Solr\\SolrIndex&#45;&gt;\\Firesphere\\SolrSearch\\Indexes\\BaseIndex -->
<g id="edge3" class="edge">
<title>\\SilverStripe\\FullTextSearch\\Solr\\SolrIndex&#45;&gt;\\Firesphere\\SolrSearch\\Indexes\\BaseIndex</title>
<path fill="none" stroke="#000000" d="M840.5109,-2065.387C807.1197,-2055.3696 760.354,-2041.3399 724.6791,-2030.6375"/>
<polygon fill="none" stroke="#000000" points="725.5154,-2027.2343 714.9314,-2027.7131 723.5039,-2033.9391 725.5154,-2027.2343"/>
</g>
<!-- \\SilverStripe\\FullTextSearch\\Solr\\Solr -->
<g id="node55" class="node">
<title>\\SilverStripe\\FullTextSearch\\Solr\\Solr</title>
<polygon fill="none" stroke="#000000" points="909.7549,-2042.0602 855.7549,-2042.0602 855.7549,-2006.0602 909.7549,-2006.0602 909.7549,-2042.0602"/>
<text text-anchor="middle" x="882.7549" y="-2021.2602" font-family="Courier,monospace" font-size="11.00" fill="#000000">Solr</text>
</g>
</g>
</svg>
