<?xml version="1.0" encoding="UTF-8" standalone="no"?>
<!DOCTYPE svg PUBLIC "-//W3C//DTD SVG 1.1//EN"
 "http://www.w3.org/Graphics/SVG/1.1/DTD/svg11.dtd">
<!-- Generated by graphviz version 2.40.1 (20161225.0304)
 -->
<!-- Title: G Pages: 1 -->
<svg width="1064pt" height="3721pt"
 viewBox="0.00 0.00 1064.25 3720.94" xmlns="http://www.w3.org/2000/svg" xmlns:xlink="http://www.w3.org/1999/xlink">
<g id="graph0" class="graph" transform="scale(1 1) rotate(0) translate(4 3716.9351)">
<title>G</title>
<polygon fill="#ffffff" stroke="transparent" points="-4,4 -4,-3716.9351 1060.2549,-3716.9351 1060.2549,4 -4,4"/>
<g id="clust1" class="cluster">
<title>cluster_Global</title>
<path fill="none" stroke="#c0c0c0" d="M165.1275,-152.7666C165.1275,-152.7666 1036.2549,-152.7666 1036.2549,-152.7666 1042.2549,-152.7666 1048.2549,-158.7666 1048.2549,-164.7666 1048.2549,-164.7666 1048.2549,-3386.7666 1048.2549,-3386.7666 1048.2549,-3392.7666 1042.2549,-3398.7666 1036.2549,-3398.7666 1036.2549,-3398.7666 165.1275,-3398.7666 165.1275,-3398.7666 159.1275,-3398.7666 153.1275,-3392.7666 153.1275,-3386.7666 153.1275,-3386.7666 153.1275,-164.7666 153.1275,-164.7666 153.1275,-158.7666 159.1275,-152.7666 165.1275,-152.7666"/>
<text text-anchor="middle" x="600.6912" y="-3385.9666" font-family="Times,serif" font-size="11.00" fill="#c0c0c0">Global</text>
</g>
<g id="clust2" class="cluster">
<title>cluster_\SilverStripe</title>
<path fill="none" stroke="#c0c0c0" d="M861.2549,-3056.7666C861.2549,-3056.7666 992.2549,-3056.7666 992.2549,-3056.7666 998.2549,-3056.7666 1004.2549,-3062.7666 1004.2549,-3068.7666 1004.2549,-3068.7666 1004.2549,-3358.7666 1004.2549,-3358.7666 1004.2549,-3364.7666 998.2549,-3370.7666 992.2549,-3370.7666 992.2549,-3370.7666 861.2549,-3370.7666 861.2549,-3370.7666 855.2549,-3370.7666 849.2549,-3364.7666 849.2549,-3358.7666 849.2549,-3358.7666 849.2549,-3068.7666 849.2549,-3068.7666 849.2549,-3062.7666 855.2549,-3056.7666 861.2549,-3056.7666"/>
<text text-anchor="middle" x="926.7549" y="-3357.9666" font-family="Times,serif" font-size="11.00" fill="#c0c0c0">SilverStripe</text>
</g>
<g id="clust3" class="cluster">
<title>cluster_\SilverStripe\FullTextSearch</title>
<path fill="none" stroke="#c0c0c0" d="M869.2549,-3064.7666C869.2549,-3064.7666 984.2549,-3064.7666 984.2549,-3064.7666 990.2549,-3064.7666 996.2549,-3070.7666 996.2549,-3076.7666 996.2549,-3076.7666 996.2549,-3330.7666 996.2549,-3330.7666 996.2549,-3336.7666 990.2549,-3342.7666 984.2549,-3342.7666 984.2549,-3342.7666 869.2549,-3342.7666 869.2549,-3342.7666 863.2549,-3342.7666 857.2549,-3336.7666 857.2549,-3330.7666 857.2549,-3330.7666 857.2549,-3076.7666 857.2549,-3076.7666 857.2549,-3070.7666 863.2549,-3064.7666 869.2549,-3064.7666"/>
<text text-anchor="middle" x="926.7549" y="-3329.9666" font-family="Times,serif" font-size="11.00" fill="#c0c0c0">FullTextSearch</text>
</g>
<g id="clust4" class="cluster">
<title>cluster_\SilverStripe\FullTextSearch\Search</title>
<path fill="none" stroke="#c0c0c0" d="M877.2549,-3206.7666C877.2549,-3206.7666 976.2549,-3206.7666 976.2549,-3206.7666 982.2549,-3206.7666 988.2549,-3212.7666 988.2549,-3218.7666 988.2549,-3218.7666 988.2549,-3302.7666 988.2549,-3302.7666 988.2549,-3308.7666 982.2549,-3314.7666 976.2549,-3314.7666 976.2549,-3314.7666 877.2549,-3314.7666 877.2549,-3314.7666 871.2549,-3314.7666 865.2549,-3308.7666 865.2549,-3302.7666 865.2549,-3302.7666 865.2549,-3218.7666 865.2549,-3218.7666 865.2549,-3212.7666 871.2549,-3206.7666 877.2549,-3206.7666"/>
<text text-anchor="middle" x="926.7549" y="-3301.9666" font-family="Times,serif" font-size="11.00" fill="#c0c0c0">Search</text>
</g>
<g id="clust5" class="cluster">
<title>cluster_\SilverStripe\FullTextSearch\Search\Queries</title>
<path fill="none" stroke="#c0c0c0" d="M885.2549,-3214.7666C885.2549,-3214.7666 968.2549,-3214.7666 968.2549,-3214.7666 974.2549,-3214.7666 980.2549,-3220.7666 980.2549,-3226.7666 980.2549,-3226.7666 980.2549,-3274.7666 980.2549,-3274.7666 980.2549,-3280.7666 974.2549,-3286.7666 968.2549,-3286.7666 968.2549,-3286.7666 885.2549,-3286.7666 885.2549,-3286.7666 879.2549,-3286.7666 873.2549,-3280.7666 873.2549,-3274.7666 873.2549,-3274.7666 873.2549,-3226.7666 873.2549,-3226.7666 873.2549,-3220.7666 879.2549,-3214.7666 885.2549,-3214.7666"/>
<text text-anchor="middle" x="926.7549" y="-3273.9666" font-family="Times,serif" font-size="11.00" fill="#c0c0c0">Queries</text>
</g>
<g id="clust6" class="cluster">
<title>cluster_\SilverStripe\FullTextSearch\Solr</title>
<path fill="none" stroke="#c0c0c0" d="M888.7549,-3072.7666C888.7549,-3072.7666 964.7549,-3072.7666 964.7549,-3072.7666 970.7549,-3072.7666 976.7549,-3078.7666 976.7549,-3084.7666 976.7549,-3084.7666 976.7549,-3186.7666 976.7549,-3186.7666 976.7549,-3192.7666 970.7549,-3198.7666 964.7549,-3198.7666 964.7549,-3198.7666 888.7549,-3198.7666 888.7549,-3198.7666 882.7549,-3198.7666 876.7549,-3192.7666 876.7549,-3186.7666 876.7549,-3186.7666 876.7549,-3084.7666 876.7549,-3084.7666 876.7549,-3078.7666 882.7549,-3072.7666 888.7549,-3072.7666"/>
<text text-anchor="middle" x="926.7549" y="-3185.9666" font-family="Times,serif" font-size="11.00" fill="#c0c0c0">Solr</text>
</g>
<g id="clust7" class="cluster">
<title>cluster_\Firesphere</title>
<path fill="none" stroke="#c0c0c0" d="M173.1275,-160.7666C173.1275,-160.7666 1028.2549,-160.7666 1028.2549,-160.7666 1034.2549,-160.7666 1040.2549,-166.7666 1040.2549,-172.7666 1040.2549,-172.7666 1040.2549,-3036.7666 1040.2549,-3036.7666 1040.2549,-3042.7666 1034.2549,-3048.7666 1028.2549,-3048.7666 1028.2549,-3048.7666 173.1275,-3048.7666 173.1275,-3048.7666 167.1275,-3048.7666 161.1275,-3042.7666 161.1275,-3036.7666 161.1275,-3036.7666 161.1275,-172.7666 161.1275,-172.7666 161.1275,-166.7666 167.1275,-160.7666 173.1275,-160.7666"/>
<text text-anchor="middle" x="600.6912" y="-3035.9666" font-family="Times,serif" font-size="11.00" fill="#c0c0c0">Firesphere</text>
</g>
<g id="clust8" class="cluster">
<title>cluster_\Firesphere\SolrCompatibility</title>
<path fill="none" stroke="#c0c0c0" d="M833.2549,-168.7666C833.2549,-168.7666 1020.2549,-168.7666 1020.2549,-168.7666 1026.2549,-168.7666 1032.2549,-174.7666 1032.2549,-180.7666 1032.2549,-180.7666 1032.2549,-318.7666 1032.2549,-318.7666 1032.2549,-324.7666 1026.2549,-330.7666 1020.2549,-330.7666 1020.2549,-330.7666 833.2549,-330.7666 833.2549,-330.7666 827.2549,-330.7666 821.2549,-324.7666 821.2549,-318.7666 821.2549,-318.7666 821.2549,-180.7666 821.2549,-180.7666 821.2549,-174.7666 827.2549,-168.7666 833.2549,-168.7666"/>
<text text-anchor="middle" x="926.7549" y="-317.9666" font-family="Times,serif" font-size="11.00" fill="#c0c0c0">SolrCompatibility</text>
</g>
<g id="clust9" class="cluster">
<title>cluster_\Firesphere\SolrCompatibility\Extensions</title>
<path fill="none" stroke="#c0c0c0" d="M841.2549,-176.7666C841.2549,-176.7666 1012.2549,-176.7666 1012.2549,-176.7666 1018.2549,-176.7666 1024.2549,-182.7666 1024.2549,-188.7666 1024.2549,-188.7666 1024.2549,-290.7666 1024.2549,-290.7666 1024.2549,-296.7666 1018.2549,-302.7666 1012.2549,-302.7666 1012.2549,-302.7666 841.2549,-302.7666 841.2549,-302.7666 835.2549,-302.7666 829.2549,-296.7666 829.2549,-290.7666 829.2549,-290.7666 829.2549,-188.7666 829.2549,-188.7666 829.2549,-182.7666 835.2549,-176.7666 841.2549,-176.7666"/>
<text text-anchor="middle" x="926.7549" y="-289.9666" font-family="Times,serif" font-size="11.00" fill="#c0c0c0">Extensions</text>
</g>
<g id="clust10" class="cluster">
<title>cluster_\Firesphere\SolrSearch</title>
<path fill="none" stroke="#c0c0c0" d="M181.1275,-172.7666C181.1275,-172.7666 769.2549,-172.7666 769.2549,-172.7666 775.2549,-172.7666 781.2549,-178.7666 781.2549,-184.7666 781.2549,-184.7666 781.2549,-3008.7666 781.2549,-3008.7666 781.2549,-3014.7666 775.2549,-3020.7666 769.2549,-3020.7666 769.2549,-3020.7666 181.1275,-3020.7666 181.1275,-3020.7666 175.1275,-3020.7666 169.1275,-3014.7666 169.1275,-3008.7666 169.1275,-3008.7666 169.1275,-184.7666 169.1275,-184.7666 169.1275,-178.7666 175.1275,-172.7666 181.1275,-172.7666"/>
<text text-anchor="middle" x="475.1912" y="-3007.9666" font-family="Times,serif" font-size="11.00" fill="#c0c0c0">SolrSearch</text>
</g>
<g id="clust11" class="cluster">
<title>cluster_\Firesphere\SolrSearch\Queries</title>
<path fill="none" stroke="#c0c0c0" d="M638.2549,-2920.7666C638.2549,-2920.7666 707.2549,-2920.7666 707.2549,-2920.7666 713.2549,-2920.7666 719.2549,-2926.7666 719.2549,-2932.7666 719.2549,-2932.7666 719.2549,-2980.7666 719.2549,-2980.7666 719.2549,-2986.7666 713.2549,-2992.7666 707.2549,-2992.7666 707.2549,-2992.7666 638.2549,-2992.7666 638.2549,-2992.7666 632.2549,-2992.7666 626.2549,-2986.7666 626.2549,-2980.7666 626.2549,-2980.7666 626.2549,-2932.7666 626.2549,-2932.7666 626.2549,-2926.7666 632.2549,-2920.7666 638.2549,-2920.7666"/>
<text text-anchor="middle" x="672.7549" y="-2979.9666" font-family="Times,serif" font-size="11.00" fill="#c0c0c0">Queries</text>
</g>
<g id="clust12" class="cluster">
<title>cluster_\Firesphere\SolrSearch\Indexes</title>
<path fill="none" stroke="#c0c0c0" d="M634.7549,-2840.7666C634.7549,-2840.7666 710.7549,-2840.7666 710.7549,-2840.7666 716.7549,-2840.7666 722.7549,-2846.7666 722.7549,-2852.7666 722.7549,-2852.7666 722.7549,-2900.7666 722.7549,-2900.7666 722.7549,-2906.7666 716.7549,-2912.7666 710.7549,-2912.7666 710.7549,-2912.7666 634.7549,-2912.7666 634.7549,-2912.7666 628.7549,-2912.7666 622.7549,-2906.7666 622.7549,-2900.7666 622.7549,-2900.7666 622.7549,-2852.7666 622.7549,-2852.7666 622.7549,-2846.7666 628.7549,-2840.7666 634.7549,-2840.7666"/>
<text text-anchor="middle" x="672.7549" y="-2899.9666" font-family="Times,serif" font-size="11.00" fill="#c0c0c0">Indexes</text>
</g>
<g id="clust13" class="cluster">
<title>cluster_\Firesphere\SolrSearch\Jobs</title>
<path fill="none" stroke="#c0c0c0" d="M600.7549,-2062.7666C600.7549,-2062.7666 744.7549,-2062.7666 744.7549,-2062.7666 750.7549,-2062.7666 756.7549,-2068.7666 756.7549,-2074.7666 756.7549,-2074.7666 756.7549,-2230.7666 756.7549,-2230.7666 756.7549,-2236.7666 750.7549,-2242.7666 744.7549,-2242.7666 744.7549,-2242.7666 600.7549,-2242.7666 600.7549,-2242.7666 594.7549,-2242.7666 588.7549,-2236.7666 588.7549,-2230.7666 588.7549,-2230.7666 588.7549,-2074.7666 588.7549,-2074.7666 588.7549,-2068.7666 594.7549,-2062.7666 600.7549,-2062.7666"/>
<text text-anchor="middle" x="672.7549" y="-2229.9666" font-family="Times,serif" font-size="11.00" fill="#c0c0c0">Jobs</text>
</g>
<g id="clust14" class="cluster">
<title>cluster_\Firesphere\SolrSearch\Extensions</title>
<path fill="none" stroke="#c0c0c0" d="M604.2549,-1928.7666C604.2549,-1928.7666 741.2549,-1928.7666 741.2549,-1928.7666 747.2549,-1928.7666 753.2549,-1934.7666 753.2549,-1940.7666 753.2549,-1940.7666 753.2549,-2042.7666 753.2549,-2042.7666 753.2549,-2048.7666 747.2549,-2054.7666 741.2549,-2054.7666 741.2549,-2054.7666 604.2549,-2054.7666 604.2549,-2054.7666 598.2549,-2054.7666 592.2549,-2048.7666 592.2549,-2042.7666 592.2549,-2042.7666 592.2549,-1940.7666 592.2549,-1940.7666 592.2549,-1934.7666 598.2549,-1928.7666 604.2549,-1928.7666"/>
<text text-anchor="middle" x="672.7549" y="-2041.9666" font-family="Times,serif" font-size="11.00" fill="#c0c0c0">Extensions</text>
</g>
<g id="clust15" class="cluster">
<title>cluster_\Firesphere\SolrSearch\Results</title>
<path fill="none" stroke="#c0c0c0" d="M627.7549,-2760.7666C627.7549,-2760.7666 717.7549,-2760.7666 717.7549,-2760.7666 723.7549,-2760.7666 729.7549,-2766.7666 729.7549,-2772.7666 729.7549,-2772.7666 729.7549,-2820.7666 729.7549,-2820.7666 729.7549,-2826.7666 723.7549,-2832.7666 717.7549,-2832.7666 717.7549,-2832.7666 627.7549,-2832.7666 627.7549,-2832.7666 621.7549,-2832.7666 615.7549,-2826.7666 615.7549,-2820.7666 615.7549,-2820.7666 615.7549,-2772.7666 615.7549,-2772.7666 615.7549,-2766.7666 621.7549,-2760.7666 627.7549,-2760.7666"/>
<text text-anchor="middle" x="672.7549" y="-2819.9666" font-family="Times,serif" font-size="11.00" fill="#c0c0c0">Results</text>
</g>
<g id="clust16" class="cluster">
<title>cluster_\Firesphere\SolrSearch\Forms</title>
<path fill="none" stroke="#c0c0c0" d="M634.7549,-2680.7666C634.7549,-2680.7666 710.7549,-2680.7666 710.7549,-2680.7666 716.7549,-2680.7666 722.7549,-2686.7666 722.7549,-2692.7666 722.7549,-2692.7666 722.7549,-2740.7666 722.7549,-2740.7666 722.7549,-2746.7666 716.7549,-2752.7666 710.7549,-2752.7666 710.7549,-2752.7666 634.7549,-2752.7666 634.7549,-2752.7666 628.7549,-2752.7666 622.7549,-2746.7666 622.7549,-2740.7666 622.7549,-2740.7666 622.7549,-2692.7666 622.7549,-2692.7666 622.7549,-2686.7666 628.7549,-2680.7666 634.7549,-2680.7666"/>
<text text-anchor="middle" x="672.7549" y="-2739.9666" font-family="Times,serif" font-size="11.00" fill="#c0c0c0">Forms</text>
</g>
<g id="clust17" class="cluster">
<title>cluster_\Firesphere\SolrSearch\Interfaces</title>
<path fill="none" stroke="#c0c0c0" d="M189.1275,-180.7666C189.1275,-180.7666 319.1275,-180.7666 319.1275,-180.7666 325.1275,-180.7666 331.1275,-186.7666 331.1275,-192.7666 331.1275,-192.7666 331.1275,-294.7666 331.1275,-294.7666 331.1275,-300.7666 325.1275,-306.7666 319.1275,-306.7666 319.1275,-306.7666 189.1275,-306.7666 189.1275,-306.7666 183.1275,-306.7666 177.1275,-300.7666 177.1275,-294.7666 177.1275,-294.7666 177.1275,-192.7666 177.1275,-192.7666 177.1275,-186.7666 183.1275,-180.7666 189.1275,-180.7666"/>
<text text-anchor="middle" x="254.1275" y="-293.9666" font-family="Times,serif" font-size="11.00" fill="#c0c0c0">Interfaces</text>
</g>
<g id="clust18" class="cluster">
<title>cluster_\Firesphere\SolrSearch\Tasks</title>
<path fill="none" stroke="#c0c0c0" d="M597.7549,-2438.7666C597.7549,-2438.7666 747.7549,-2438.7666 747.7549,-2438.7666 753.7549,-2438.7666 759.7549,-2444.7666 759.7549,-2450.7666 759.7549,-2450.7666 759.7549,-2660.7666 759.7549,-2660.7666 759.7549,-2666.7666 753.7549,-2672.7666 747.7549,-2672.7666 747.7549,-2672.7666 597.7549,-2672.7666 597.7549,-2672.7666 591.7549,-2672.7666 585.7549,-2666.7666 585.7549,-2660.7666 585.7549,-2660.7666 585.7549,-2450.7666 585.7549,-2450.7666 585.7549,-2444.7666 591.7549,-2438.7666 597.7549,-2438.7666"/>
<text text-anchor="middle" x="672.7549" y="-2659.9666" font-family="Times,serif" font-size="11.00" fill="#c0c0c0">Tasks</text>
</g>
<g id="clust19" class="cluster">
<title>cluster_\Firesphere\SolrSearch\Models</title>
<path fill="none" stroke="#c0c0c0" d="M624.7549,-2250.7666C624.7549,-2250.7666 720.7549,-2250.7666 720.7549,-2250.7666 726.7549,-2250.7666 732.7549,-2256.7666 732.7549,-2262.7666 732.7549,-2262.7666 732.7549,-2418.7666 732.7549,-2418.7666 732.7549,-2424.7666 726.7549,-2430.7666 720.7549,-2430.7666 720.7549,-2430.7666 624.7549,-2430.7666 624.7549,-2430.7666 618.7549,-2430.7666 612.7549,-2424.7666 612.7549,-2418.7666 612.7549,-2418.7666 612.7549,-2262.7666 612.7549,-2262.7666 612.7549,-2256.7666 618.7549,-2250.7666 624.7549,-2250.7666"/>
<text text-anchor="middle" x="672.7549" y="-2417.9666" font-family="Times,serif" font-size="11.00" fill="#c0c0c0">Models</text>
</g>
<g id="clust20" class="cluster">
<title>cluster_\Firesphere\SolrSearch\Services</title>
<path fill="none" stroke="#c0c0c0" d="M617.7549,-1848.7666C617.7549,-1848.7666 727.7549,-1848.7666 727.7549,-1848.7666 733.7549,-1848.7666 739.7549,-1854.7666 739.7549,-1860.7666 739.7549,-1860.7666 739.7549,-1908.7666 739.7549,-1908.7666 739.7549,-1914.7666 733.7549,-1920.7666 727.7549,-1920.7666 727.7549,-1920.7666 617.7549,-1920.7666 617.7549,-1920.7666 611.7549,-1920.7666 605.7549,-1914.7666 605.7549,-1908.7666 605.7549,-1908.7666 605.7549,-1860.7666 605.7549,-1860.7666 605.7549,-1854.7666 611.7549,-1848.7666 617.7549,-1848.7666"/>
<text text-anchor="middle" x="672.7549" y="-1907.9666" font-family="Times,serif" font-size="11.00" fill="#c0c0c0">Services</text>
</g>
<g id="clust21" class="cluster">
<title>cluster_\Firesphere\SolrSearch\Admins</title>
<path fill="none" stroke="#c0c0c0" d="M631.2549,-1768.7666C631.2549,-1768.7666 714.2549,-1768.7666 714.2549,-1768.7666 720.2549,-1768.7666 726.2549,-1774.7666 726.2549,-1780.7666 726.2549,-1780.7666 726.2549,-1828.7666 726.2549,-1828.7666 726.2549,-1834.7666 720.2549,-1840.7666 714.2549,-1840.7666 714.2549,-1840.7666 631.2549,-1840.7666 631.2549,-1840.7666 625.2549,-1840.7666 619.2549,-1834.7666 619.2549,-1828.7666 619.2549,-1828.7666 619.2549,-1780.7666 619.2549,-1780.7666 619.2549,-1774.7666 625.2549,-1768.7666 631.2549,-1768.7666"/>
<text text-anchor="middle" x="672.7549" y="-1827.9666" font-family="Times,serif" font-size="11.00" fill="#c0c0c0">Admins</text>
</g>
<g id="clust22" class="cluster">
<title>cluster_\Firesphere\SolrSearch\Helpers</title>
<path fill="none" stroke="#c0c0c0" d="M624.7549,-1472.7666C624.7549,-1472.7666 720.7549,-1472.7666 720.7549,-1472.7666 726.7549,-1472.7666 732.7549,-1478.7666 732.7549,-1484.7666 732.7549,-1484.7666 732.7549,-1748.7666 732.7549,-1748.7666 732.7549,-1754.7666 726.7549,-1760.7666 720.7549,-1760.7666 720.7549,-1760.7666 624.7549,-1760.7666 624.7549,-1760.7666 618.7549,-1760.7666 612.7549,-1754.7666 612.7549,-1748.7666 612.7549,-1748.7666 612.7549,-1484.7666 612.7549,-1484.7666 612.7549,-1478.7666 618.7549,-1472.7666 624.7549,-1472.7666"/>
<text text-anchor="middle" x="672.7549" y="-1747.9666" font-family="Times,serif" font-size="11.00" fill="#c0c0c0">Helpers</text>
</g>
<g id="clust23" class="cluster">
<title>cluster_\Firesphere\SolrSearch\Factories</title>
<path fill="none" stroke="#c0c0c0" d="M597.7549,-1284.7666C597.7549,-1284.7666 747.7549,-1284.7666 747.7549,-1284.7666 753.7549,-1284.7666 759.7549,-1290.7666 759.7549,-1296.7666 759.7549,-1296.7666 759.7549,-1452.7666 759.7549,-1452.7666 759.7549,-1458.7666 753.7549,-1464.7666 747.7549,-1464.7666 747.7549,-1464.7666 597.7549,-1464.7666 597.7549,-1464.7666 591.7549,-1464.7666 585.7549,-1458.7666 585.7549,-1452.7666 585.7549,-1452.7666 585.7549,-1296.7666 585.7549,-1296.7666 585.7549,-1290.7666 591.7549,-1284.7666 597.7549,-1284.7666"/>
<text text-anchor="middle" x="672.7549" y="-1451.9666" font-family="Times,serif" font-size="11.00" fill="#c0c0c0">Factories</text>
</g>
<g id="clust24" class="cluster">
<title>cluster_\Firesphere\SolrSearch\States</title>
<path fill="none" stroke="#c0c0c0" d="M634.7549,-1204.7666C634.7549,-1204.7666 710.7549,-1204.7666 710.7549,-1204.7666 716.7549,-1204.7666 722.7549,-1210.7666 722.7549,-1216.7666 722.7549,-1216.7666 722.7549,-1264.7666 722.7549,-1264.7666 722.7549,-1270.7666 716.7549,-1276.7666 710.7549,-1276.7666 710.7549,-1276.7666 634.7549,-1276.7666 634.7549,-1276.7666 628.7549,-1276.7666 622.7549,-1270.7666 622.7549,-1264.7666 622.7549,-1264.7666 622.7549,-1216.7666 622.7549,-1216.7666 622.7549,-1210.7666 628.7549,-1204.7666 634.7549,-1204.7666"/>
<text text-anchor="middle" x="672.7549" y="-1263.9666" font-family="Times,serif" font-size="11.00" fill="#c0c0c0">States</text>
</g>
<g id="clust25" class="cluster">
<title>cluster_\Firesphere\SolrSearch\Traits</title>
<path fill="none" stroke="#c0c0c0" d="M584.2549,-314.7666C584.2549,-314.7666 761.2549,-314.7666 761.2549,-314.7666 767.2549,-314.7666 773.2549,-320.7666 773.2549,-326.7666 773.2549,-326.7666 773.2549,-1184.7666 773.2549,-1184.7666 773.2549,-1190.7666 767.2549,-1196.7666 761.2549,-1196.7666 761.2549,-1196.7666 584.2549,-1196.7666 584.2549,-1196.7666 578.2549,-1196.7666 572.2549,-1190.7666 572.2549,-1184.7666 572.2549,-1184.7666 572.2549,-326.7666 572.2549,-326.7666 572.2549,-320.7666 578.2549,-314.7666 584.2549,-314.7666"/>
<text text-anchor="middle" x="672.7549" y="-1183.9666" font-family="Times,serif" font-size="11.00" fill="#c0c0c0">Traits</text>
</g>
<g id="clust26" class="cluster">
<title>cluster_\Firesphere\SolrSearch\Stores</title>
<path fill="none" stroke="#c0c0c0" d="M617.7549,-180.7666C617.7549,-180.7666 727.7549,-180.7666 727.7549,-180.7666 733.7549,-180.7666 739.7549,-186.7666 739.7549,-192.7666 739.7549,-192.7666 739.7549,-294.7666 739.7549,-294.7666 739.7549,-300.7666 733.7549,-306.7666 727.7549,-306.7666 727.7549,-306.7666 617.7549,-306.7666 617.7549,-306.7666 611.7549,-306.7666 605.7549,-300.7666 605.7549,-294.7666 605.7549,-294.7666 605.7549,-192.7666 605.7549,-192.7666 605.7549,-186.7666 611.7549,-180.7666 617.7549,-180.7666"/>
<text text-anchor="middle" x="672.7549" y="-293.9666" font-family="Times,serif" font-size="11.00" fill="#c0c0c0">Stores</text>
</g>
<g id="clust27" class="cluster">
<title>cluster_\Firesphere\SolrFluent</title>
<path fill="none" stroke="#c0c0c0" d="M836.7549,-616.7666C836.7549,-616.7666 1016.7549,-616.7666 1016.7549,-616.7666 1022.7549,-616.7666 1028.7549,-622.7666 1028.7549,-628.7666 1028.7549,-628.7666 1028.7549,-900.7666 1028.7549,-900.7666 1028.7549,-906.7666 1022.7549,-912.7666 1016.7549,-912.7666 1016.7549,-912.7666 836.7549,-912.7666 836.7549,-912.7666 830.7549,-912.7666 824.7549,-906.7666 824.7549,-900.7666 824.7549,-900.7666 824.7549,-628.7666 824.7549,-628.7666 824.7549,-622.7666 830.7549,-616.7666 836.7549,-616.7666"/>
<text text-anchor="middle" x="926.7549" y="-899.9666" font-family="Times,serif" font-size="11.00" fill="#c0c0c0">SolrFluent</text>
</g>
<g id="clust28" class="cluster">
<title>cluster_\Firesphere\SolrFluent\Extensions</title>
<path fill="none" stroke="#c0c0c0" d="M844.7549,-624.7666C844.7549,-624.7666 1008.7549,-624.7666 1008.7549,-624.7666 1014.7549,-624.7666 1020.7549,-630.7666 1020.7549,-636.7666 1020.7549,-636.7666 1020.7549,-792.7666 1020.7549,-792.7666 1020.7549,-798.7666 1014.7549,-804.7666 1008.7549,-804.7666 1008.7549,-804.7666 844.7549,-804.7666 844.7549,-804.7666 838.7549,-804.7666 832.7549,-798.7666 832.7549,-792.7666 832.7549,-792.7666 832.7549,-636.7666 832.7549,-636.7666 832.7549,-630.7666 838.7549,-624.7666 844.7549,-624.7666"/>
<text text-anchor="middle" x="926.7549" y="-791.9666" font-family="Times,serif" font-size="11.00" fill="#c0c0c0">Extensions</text>
</g>
<g id="clust29" class="cluster">
<title>cluster_\Firesphere\SolrFluent\States</title>
<path fill="none" stroke="#c0c0c0" d="M871.7549,-812.7666C871.7549,-812.7666 981.7549,-812.7666 981.7549,-812.7666 987.7549,-812.7666 993.7549,-818.7666 993.7549,-824.7666 993.7549,-824.7666 993.7549,-872.7666 993.7549,-872.7666 993.7549,-878.7666 987.7549,-884.7666 981.7549,-884.7666 981.7549,-884.7666 871.7549,-884.7666 871.7549,-884.7666 865.7549,-884.7666 859.7549,-878.7666 859.7549,-872.7666 859.7549,-872.7666 859.7549,-824.7666 859.7549,-824.7666 859.7549,-818.7666 865.7549,-812.7666 871.7549,-812.7666"/>
<text text-anchor="middle" x="926.7549" y="-871.9666" font-family="Times,serif" font-size="11.00" fill="#c0c0c0">States</text>
</g>
<g id="clust30" class="cluster">
<title>cluster_\Firesphere\SolrSubsites</title>
<path fill="none" stroke="#c0c0c0" d="M857.2549,-920.7666C857.2549,-920.7666 996.2549,-920.7666 996.2549,-920.7666 1002.2549,-920.7666 1008.2549,-926.7666 1008.2549,-932.7666 1008.2549,-932.7666 1008.2549,-1096.7666 1008.2549,-1096.7666 1008.2549,-1102.7666 1002.2549,-1108.7666 996.2549,-1108.7666 996.2549,-1108.7666 857.2549,-1108.7666 857.2549,-1108.7666 851.2549,-1108.7666 845.2549,-1102.7666 845.2549,-1096.7666 845.2549,-1096.7666 845.2549,-932.7666 845.2549,-932.7666 845.2549,-926.7666 851.2549,-920.7666 857.2549,-920.7666"/>
<text text-anchor="middle" x="926.7549" y="-1095.9666" font-family="Times,serif" font-size="11.00" fill="#c0c0c0">SolrSubsites</text>
</g>
<g id="clust31" class="cluster">
<title>cluster_\Firesphere\SolrSubsites\Extensions</title>
<path fill="none" stroke="#c0c0c0" d="M865.2549,-928.7666C865.2549,-928.7666 988.2549,-928.7666 988.2549,-928.7666 994.2549,-928.7666 1000.2549,-934.7666 1000.2549,-940.7666 1000.2549,-940.7666 1000.2549,-988.7666 1000.2549,-988.7666 1000.2549,-994.7666 994.2549,-1000.7666 988.2549,-1000.7666 988.2549,-1000.7666 865.2549,-1000.7666 865.2549,-1000.7666 859.2549,-1000.7666 853.2549,-994.7666 853.2549,-988.7666 853.2549,-988.7666 853.2549,-940.7666 853.2549,-940.7666 853.2549,-934.7666 859.2549,-928.7666 865.2549,-928.7666"/>
<text text-anchor="middle" x="926.7549" y="-987.9666" font-family="Times,serif" font-size="11.00" fill="#c0c0c0">Extensions</text>
</g>
<g id="clust32" class="cluster">
<title>cluster_\Firesphere\SolrSubsites\States</title>
<path fill="none" stroke="#c0c0c0" d="M881.7549,-1008.7666C881.7549,-1008.7666 971.7549,-1008.7666 971.7549,-1008.7666 977.7549,-1008.7666 983.7549,-1014.7666 983.7549,-1020.7666 983.7549,-1020.7666 983.7549,-1068.7666 983.7549,-1068.7666 983.7549,-1074.7666 977.7549,-1080.7666 971.7549,-1080.7666 971.7549,-1080.7666 881.7549,-1080.7666 881.7549,-1080.7666 875.7549,-1080.7666 869.7549,-1074.7666 869.7549,-1068.7666 869.7549,-1068.7666 869.7549,-1020.7666 869.7549,-1020.7666 869.7549,-1014.7666 875.7549,-1008.7666 881.7549,-1008.7666"/>
<text text-anchor="middle" x="926.7549" y="-1067.9666" font-family="Times,serif" font-size="11.00" fill="#c0c0c0">States</text>
</g>
<g id="clust33" class="cluster">
<title>cluster_\Firesphere\SolrPermissions</title>
<path fill="none" stroke="#c0c0c0" d="M833.2549,-338.7666C833.2549,-338.7666 1020.2549,-338.7666 1020.2549,-338.7666 1026.2549,-338.7666 1032.2549,-344.7666 1032.2549,-350.7666 1032.2549,-350.7666 1032.2549,-596.7666 1032.2549,-596.7666 1032.2549,-602.7666 1026.2549,-608.7666 1020.2549,-608.7666 1020.2549,-608.7666 833.2549,-608.7666 833.2549,-608.7666 827.2549,-608.7666 821.2549,-602.7666 821.2549,-596.7666 821.2549,-596.7666 821.2549,-350.7666 821.2549,-350.7666 821.2549,-344.7666 827.2549,-338.7666 833.2549,-338.7666"/>
<text text-anchor="middle" x="926.7549" y="-595.9666" font-family="Times,serif" font-size="11.00" fill="#c0c0c0">SolrPermissions</text>
</g>
<g id="clust34" class="cluster">
<title>cluster_\Firesphere\SolrPermissions\Extensions</title>
<path fill="none" stroke="#c0c0c0" d="M841.2549,-346.7666C841.2549,-346.7666 1012.2549,-346.7666 1012.2549,-346.7666 1018.2549,-346.7666 1024.2549,-352.7666 1024.2549,-358.7666 1024.2549,-358.7666 1024.2549,-568.7666 1024.2549,-568.7666 1024.2549,-574.7666 1018.2549,-580.7666 1012.2549,-580.7666 1012.2549,-580.7666 841.2549,-580.7666 841.2549,-580.7666 835.2549,-580.7666 829.2549,-574.7666 829.2549,-568.7666 829.2549,-568.7666 829.2549,-358.7666 829.2549,-358.7666 829.2549,-352.7666 835.2549,-346.7666 841.2549,-346.7666"/>
<text text-anchor="middle" x="926.7549" y="-567.9666" font-family="Times,serif" font-size="11.00" fill="#c0c0c0">Extensions</text>
</g>
<!-- \\SilverStripe\\FullTextSearch\\Search\\Queries\\SearchQuery -->
<g id="node1" class="node">
<title>\\SilverStripe\\FullTextSearch\\Search\\Queries\\SearchQuery</title>
<polygon fill="none" stroke="#000000" points="972.2549,-3258.7666 881.2549,-3258.7666 881.2549,-3222.7666 972.2549,-3222.7666 972.2549,-3258.7666"/>
<text text-anchor="middle" x="926.7549" y="-3237.9666" font-family="Courier,monospace" font-size="11.00" fill="#000000">SearchQuery</text>
</g>
<!-- \\Firesphere\\SolrSearch\\Queries\\BaseQuery -->
<g id="node6" class="node">
<title>\\Firesphere\\SolrSearch\\Queries\\BaseQuery</title>
<polygon fill="none" stroke="#000000" points="711.2549,-2964.7666 634.2549,-2964.7666 634.2549,-2928.7666 711.2549,-2928.7666 711.2549,-2964.7666"/>
<text text-anchor="middle" x="672.7549" y="-2943.9666" font-family="Courier,monospace" font-size="11.00" fill="#000000">BaseQuery</text>
</g>
<!-- \\SilverStripe\\FullTextSearch\\Search\\Queries\\SearchQuery&#45;&gt;\\Firesphere\\SolrSearch\\Queries\\BaseQuery -->
<g id="edge1" class="edge">
<title>\\SilverStripe\\FullTextSearch\\Search\\Queries\\SearchQuery&#45;&gt;\\Firesphere\\SolrSearch\\Queries\\BaseQuery</title>
<path fill="none" stroke="#000000" d="M881.1131,-3231.7872C861.0791,-3226.0772 838.2944,-3216.9864 821.2549,-3202.7666 745.2544,-3139.3426 699.5411,-3026.3937 681.5719,-2974.3815"/>
<polygon fill="none" stroke="#000000" points="684.8606,-2973.1804 678.3472,-2964.8242 678.228,-2975.4184 684.8606,-2973.1804"/>
</g>
<!-- \\SilverStripe\\FullTextSearch\\Solr\\SolrIndex -->
<g id="node2" class="node">
<title>\\SilverStripe\\FullTextSearch\\Solr\\SolrIndex</title>
<polygon fill="none" stroke="#000000" points="968.7549,-3170.7666 884.7549,-3170.7666 884.7549,-3134.7666 968.7549,-3134.7666 968.7549,-3170.7666"/>
<text text-anchor="start" x="892.7549" y="-3155.9666" font-family="Courier,monospace" font-size="11.00" fill="#000000">«abstract»</text>
<text text-anchor="start" x="896.2549" y="-3143.9666" font-family="Courier,monospace" font-size="11.00" fill="#000000">SolrIndex</text>
</g>
<!-- \\Firesphere\\SolrSearch\\Indexes\\BaseIndex -->
<g id="node7" class="node">
<title>\\Firesphere\\SolrSearch\\Indexes\\BaseIndex</title>
<polygon fill="none" stroke="#000000" points="714.7549,-2884.7666 630.7549,-2884.7666 630.7549,-2848.7666 714.7549,-2848.7666 714.7549,-2884.7666"/>
<text text-anchor="start" x="638.7549" y="-2869.9666" font-family="Courier,monospace" font-size="11.00" fill="#000000">«abstract»</text>
<text text-anchor="start" x="642.2549" y="-2857.9666" font-family="Courier,monospace" font-size="11.00" fill="#000000">BaseIndex</text>
</g>
<!-- \\SilverStripe\\FullTextSearch\\Solr\\SolrIndex&#45;&gt;\\Firesphere\\SolrSearch\\Indexes\\BaseIndex -->
<g id="edge4" class="edge">
<title>\\SilverStripe\\FullTextSearch\\Solr\\SolrIndex&#45;&gt;\\Firesphere\\SolrSearch\\Indexes\\BaseIndex</title>
<path fill="none" stroke="#000000" d="M884.606,-3152.2866C862.7731,-3149.7689 837.3799,-3142.9141 821.2549,-3125.7666 756.4662,-3056.8694 839.5415,-2991.2452 781.2549,-2916.7666 767.1854,-2898.7885 745.157,-2887.0269 724.6145,-2879.4596"/>
<polygon fill="none" stroke="#000000" points="725.5984,-2876.0971 715.0038,-2876.1718 723.3326,-2882.7203 725.5984,-2876.0971"/>
</g>
<!-- \\SilverStripe\\FullTextSearch\\Solr\\Solr -->
<g id="node3" class="node">
<title>\\SilverStripe\\FullTextSearch\\Solr\\Solr</title>
<polygon fill="none" stroke="#000000" points="953.7549,-3116.7666 899.7549,-3116.7666 899.7549,-3080.7666 953.7549,-3080.7666 953.7549,-3116.7666"/>
<text text-anchor="middle" x="926.7549" y="-3095.9666" font-family="Courier,monospace" font-size="11.00" fill="#000000">Solr</text>
</g>
<!-- \\Firesphere\\SolrCompatibility\\Extensions\\FulltextSearchExtension -->
<g id="node4" class="node">
<title>\\Firesphere\\SolrCompatibility\\Extensions\\FulltextSearchExtension</title>
<polygon fill="none" stroke="#000000" points="1012.7549,-220.7666 840.7549,-220.7666 840.7549,-184.7666 1012.7549,-184.7666 1012.7549,-220.7666"/>
<text text-anchor="middle" x="926.7549" y="-199.9666" font-family="Courier,monospace" font-size="11.00" fill="#000000">FulltextSearchExtension</text>
</g>
<!-- \\SilverStripe\\Core\\Extension -->
<g id="node63" class="node">
<title>\\SilverStripe\\Core\\Extension</title>
<ellipse fill="none" stroke="#000000" cx="254.1275" cy="-18.7666" rx="144.0747" ry="18"/>
<text text-anchor="middle" x="254.1275" y="-15.0666" font-family="Times,serif" font-size="14.00" fill="#c0c0c0">\SilverStripe\Core\Extension</text>
</g>
<!-- \\Firesphere\\SolrCompatibility\\Extensions\\FulltextSearchExtension&#45;&gt;\\SilverStripe\\Core\\Extension -->
<g id="edge2" class="edge">
<title>\\Firesphere\\SolrCompatibility\\Extensions\\FulltextSearchExtension&#45;&gt;\\SilverStripe\\Core\\Extension</title>
<path fill="none" stroke="#000000" d="M897.7118,-184.6605C869.069,-167.5224 823.5604,-142.1865 781.2549,-126.7666 734.8533,-109.8536 712.9958,-131.3993 672.7549,-102.7666"/>
<path fill="none" stroke="#000000" d="M672.7549,-102.7666C596.3562,-48.4063 493.2511,-27.2577 408.4834,-19.7722"/>
<polygon fill="none" stroke="#000000" points="408.7583,-16.2831 398.5036,-18.9461 408.1807,-23.2592 408.7583,-16.2831"/>
</g>
<!-- \\Firesphere\\SolrCompatibility\\Extensions\\SolrCoreServiceExtension -->
<g id="node5" class="node">
<title>\\Firesphere\\SolrCompatibility\\Extensions\\SolrCoreServiceExtension</title>
<polygon fill="none" stroke="#000000" points="1016.2549,-274.7666 837.2549,-274.7666 837.2549,-238.7666 1016.2549,-238.7666 1016.2549,-274.7666"/>
<text text-anchor="middle" x="926.7549" y="-253.9666" font-family="Courier,monospace" font-size="11.00" fill="#000000">SolrCoreServiceExtension</text>
</g>
<!-- \\Firesphere\\SolrCompatibility\\Extensions\\SolrCoreServiceExtension&#45;&gt;\\SilverStripe\\Core\\Extension -->
<g id="edge3" class="edge">
<title>\\Firesphere\\SolrCompatibility\\Extensions\\SolrCoreServiceExtension&#45;&gt;\\SilverStripe\\Core\\Extension</title>
<path fill="none" stroke="#000000" d="M837.1938,-240.6907C831.4573,-237.6398 826.0644,-234.0315 821.2549,-229.7666 784.5121,-197.184 818.5279,-158.7412 781.2549,-126.7666 743.7699,-94.6101 712.9958,-131.3993 672.7549,-102.7666"/>
</g>
<!-- \\Firesphere\\SolrSearch\\Jobs\\SolrIndexJob -->
<g id="node8" class="node">
<title>\\Firesphere\\SolrSearch\\Jobs\\SolrIndexJob</title>
<polygon fill="none" stroke="#000000" points="721.7549,-2214.7666 623.7549,-2214.7666 623.7549,-2178.7666 721.7549,-2178.7666 721.7549,-2214.7666"/>
<text text-anchor="middle" x="672.7549" y="-2193.9666" font-family="Courier,monospace" font-size="11.00" fill="#000000">SolrIndexJob</text>
</g>
<!-- \\Symbiote\\QueuedJobs\\Services\\AbstractQueuedJob -->
<g id="node64" class="node">
<title>\\Symbiote\\QueuedJobs\\Services\\AbstractQueuedJob</title>
<ellipse fill="none" stroke="#000000" cx="254.1275" cy="-126.7666" rx="254.255" ry="18"/>
<text text-anchor="middle" x="254.1275" y="-123.0666" font-family="Times,serif" font-size="14.00" fill="#c0c0c0">\Symbiote\QueuedJobs\Services\AbstractQueuedJob</text>
</g>
<!-- \\Firesphere\\SolrSearch\\Jobs\\SolrIndexJob&#45;&gt;\\Symbiote\\QueuedJobs\\Services\\AbstractQueuedJob -->
<g id="edge5" class="edge">
<title>\\Firesphere\\SolrSearch\\Jobs\\SolrIndexJob&#45;&gt;\\Symbiote\\QueuedJobs\\Services\\AbstractQueuedJob</title>
<path fill="none" stroke="#000000" d="M623.4985,-2195.5486C604.5224,-2192.385 584.4871,-2185.1994 572.2549,-2169.7666 434.6321,-1996.1343 651.7165,-345.6066 508.2549,-176.7666 495.6101,-161.8849 479.9419,-150.6136 462.6398,-142.1558"/>
<polygon fill="none" stroke="#000000" points="464.0029,-138.9309 453.4504,-137.9852 461.11,-145.3051 464.0029,-138.9309"/>
</g>
<!-- \\Firesphere\\SolrSearch\\Jobs\\SolrConfigureJob -->
<g id="node9" class="node">
<title>\\Firesphere\\SolrSearch\\Jobs\\SolrConfigureJob</title>
<polygon fill="none" stroke="#000000" points="735.2549,-2160.7666 610.2549,-2160.7666 610.2549,-2124.7666 735.2549,-2124.7666 735.2549,-2160.7666"/>
<text text-anchor="middle" x="672.7549" y="-2139.9666" font-family="Courier,monospace" font-size="11.00" fill="#000000">SolrConfigureJob</text>
</g>
<!-- \\Firesphere\\SolrSearch\\Jobs\\SolrConfigureJob&#45;&gt;\\Symbiote\\QueuedJobs\\Services\\AbstractQueuedJob -->
<g id="edge6" class="edge">
<title>\\Firesphere\\SolrSearch\\Jobs\\SolrConfigureJob&#45;&gt;\\Symbiote\\QueuedJobs\\Services\\AbstractQueuedJob</title>
<path fill="none" stroke="#000000" d="M610.1272,-2138.6081C595.5823,-2134.5659 581.6307,-2127.5848 572.2549,-2115.7666 438.2816,-1946.8937 647.9069,-340.9744 508.2549,-176.7666 495.6035,-161.8906 479.9308,-150.623 462.6261,-142.1675"/>
<polygon fill="none" stroke="#000000" points="463.9881,-138.9421 453.4354,-137.9979 461.096,-145.3168 463.9881,-138.9421"/>
</g>
<!-- \\Firesphere\\SolrSearch\\Jobs\\ClearDirtyClassesJob -->
<g id="node10" class="node">
<title>\\Firesphere\\SolrSearch\\Jobs\\ClearDirtyClassesJob</title>
<polygon fill="none" stroke="#000000" points="748.7549,-2106.7666 596.7549,-2106.7666 596.7549,-2070.7666 748.7549,-2070.7666 748.7549,-2106.7666"/>
<text text-anchor="middle" x="672.7549" y="-2085.9666" font-family="Courier,monospace" font-size="11.00" fill="#000000">ClearDirtyClassesJob</text>
</g>
<!-- \\Firesphere\\SolrSearch\\Jobs\\ClearDirtyClassesJob&#45;&gt;\\Symbiote\\QueuedJobs\\Services\\AbstractQueuedJob -->
<g id="edge7" class="edge">
<title>\\Firesphere\\SolrSearch\\Jobs\\ClearDirtyClassesJob&#45;&gt;\\Symbiote\\QueuedJobs\\Services\\AbstractQueuedJob</title>
<path fill="none" stroke="#000000" d="M596.4796,-2077.4602C587.0967,-2073.0273 578.5967,-2066.9827 572.2549,-2058.7666 444.4095,-1893.1357 643.8857,-336.0848 508.2549,-176.7666 495.5961,-161.8969 479.9185,-150.6334 462.6107,-142.1806"/>
<polygon fill="none" stroke="#000000" points="463.9715,-138.9546 453.4186,-138.0122 461.0805,-145.3298 463.9715,-138.9546"/>
</g>
<!-- \\Firesphere\\SolrSearch\\Extensions\\GridFieldExtension -->
<g id="node11" class="node">
<title>\\Firesphere\\SolrSearch\\Extensions\\GridFieldExtension</title>
<polygon fill="none" stroke="#000000" points="741.7549,-1972.7666 603.7549,-1972.7666 603.7549,-1936.7666 741.7549,-1936.7666 741.7549,-1972.7666"/>
<text text-anchor="middle" x="672.7549" y="-1951.9666" font-family="Courier,monospace" font-size="11.00" fill="#000000">GridFieldExtension</text>
</g>
<!-- \\Firesphere\\SolrSearch\\Extensions\\GridFieldExtension&#45;&gt;\\SilverStripe\\Core\\Extension -->
<g id="edge8" class="edge">
<title>\\Firesphere\\SolrSearch\\Extensions\\GridFieldExtension&#45;&gt;\\SilverStripe\\Core\\Extension</title>
<path fill="none" stroke="#000000" d="M603.5346,-1946.4427C591.4028,-1941.8653 580.1546,-1935.0005 572.2549,-1924.7666 444.6086,-1759.4029 650.5716,-198.6871 508.2549,-45.7666 466.2675,-.6508 395.0229,3.4536 338.6344,-2.2301"/>
<polygon fill="none" stroke="#000000" points="338.194,1.2425 328.6477,-3.353 338.9761,-5.7136 338.194,1.2425"/>
</g>
<!-- \\Firesphere\\SolrSearch\\Extensions\\DataObjectExtension -->
<g id="node12" class="node">
<title>\\Firesphere\\SolrSearch\\Extensions\\DataObjectExtension</title>
<polygon fill="none" stroke="#000000" points="745.2549,-2026.7666 600.2549,-2026.7666 600.2549,-1990.7666 745.2549,-1990.7666 745.2549,-2026.7666"/>
<text text-anchor="middle" x="672.7549" y="-2005.9666" font-family="Courier,monospace" font-size="11.00" fill="#000000">DataObjectExtension</text>
</g>
<!-- \\SilverStripe\\ORM\\DataExtension -->
<g id="node65" class="node">
<title>\\SilverStripe\\ORM\\DataExtension</title>
<ellipse fill="none" stroke="#000000" cx="254.1275" cy="-72.7666" rx="167.8704" ry="18"/>
<text text-anchor="middle" x="254.1275" y="-69.0666" font-family="Times,serif" font-size="14.00" fill="#c0c0c0">\SilverStripe\ORM\DataExtension</text>
</g>
<!-- \\Firesphere\\SolrSearch\\Extensions\\DataObjectExtension&#45;&gt;\\SilverStripe\\ORM\\DataExtension -->
<g id="edge9" class="edge">
<title>\\Firesphere\\SolrSearch\\Extensions\\DataObjectExtension&#45;&gt;\\SilverStripe\\ORM\\DataExtension</title>
<path fill="none" stroke="#000000" d="M600.0925,-2001.2651C589.3223,-1997.0361 579.4457,-1990.8212 572.2549,-1981.7666 442.1338,-1817.9175 650.7944,-252.9348 508.2549,-99.7666 467.3516,-55.8132 398.6794,-50.7843 343.0269,-55.8097"/>
<polygon fill="none" stroke="#000000" points="342.3876,-52.3568 332.7965,-56.8579 343.1012,-59.3203 342.3876,-52.3568"/>
</g>
<!-- \\Firesphere\\SolrSearch\\Results\\SearchResult -->
<g id="node13" class="node">
<title>\\Firesphere\\SolrSearch\\Results\\SearchResult</title>
<polygon fill="none" stroke="#000000" points="721.7549,-2804.7666 623.7549,-2804.7666 623.7549,-2768.7666 721.7549,-2768.7666 721.7549,-2804.7666"/>
<text text-anchor="middle" x="672.7549" y="-2783.9666" font-family="Courier,monospace" font-size="11.00" fill="#000000">SearchResult</text>
</g>
<!-- \\SilverStripe\\View\\ViewableData -->
<g id="node66" class="node">
<title>\\SilverStripe\\View\\ViewableData</title>
<ellipse fill="none" stroke="#000000" cx="254.1275" cy="-3478.7666" rx="163.2712" ry="18"/>
<text text-anchor="middle" x="254.1275" y="-3475.0666" font-family="Times,serif" font-size="14.00" fill="#c0c0c0">\SilverStripe\View\ViewableData</text>
</g>
<!-- \\Firesphere\\SolrSearch\\Results\\SearchResult&#45;&gt;\\SilverStripe\\View\\ViewableData -->
<g id="edge10" class="edge">
<title>\\Firesphere\\SolrSearch\\Results\\SearchResult&#45;&gt;\\SilverStripe\\View\\ViewableData</title>
<path fill="none" stroke="#000000" d="M623.6353,-2799.9218C604.5617,-2807.55 584.4168,-2819.2321 572.2549,-2836.7666 493.9443,-2949.6714 605.3098,-3354.502 508.2549,-3451.7666 467.0988,-3493.0115 401.2917,-3499.0451 346.9558,-3495.1396"/>
<polygon fill="none" stroke="#000000" points="347.2096,-3491.6487 336.9522,-3494.3009 346.6248,-3498.6242 347.2096,-3491.6487"/>
</g>
<!-- \\Firesphere\\SolrSearch\\Forms\\SearchForm -->
<g id="node14" class="node">
<title>\\Firesphere\\SolrSearch\\Forms\\SearchForm</title>
<polygon fill="none" stroke="#000000" points="714.7549,-2724.7666 630.7549,-2724.7666 630.7549,-2688.7666 714.7549,-2688.7666 714.7549,-2724.7666"/>
<text text-anchor="middle" x="672.7549" y="-2703.9666" font-family="Courier,monospace" font-size="11.00" fill="#000000">SearchForm</text>
</g>
<!-- \\SilverStripe\\Forms\\Form -->
<g id="node67" class="node">
<title>\\SilverStripe\\Forms\\Form</title>
<ellipse fill="none" stroke="#000000" cx="254.1275" cy="-3694.7666" rx="129.1772" ry="18"/>
<text text-anchor="middle" x="254.1275" y="-3691.0666" font-family="Times,serif" font-size="14.00" fill="#c0c0c0">\SilverStripe\Forms\Form</text>
</g>
<!-- \\Firesphere\\SolrSearch\\Forms\\SearchForm&#45;&gt;\\SilverStripe\\Forms\\Form -->
<g id="edge11" class="edge">
<title>\\Firesphere\\SolrSearch\\Forms\\SearchForm&#45;&gt;\\SilverStripe\\Forms\\Form</title>
<path fill="none" stroke="#000000" d="M630.6116,-2717.0082C609.4979,-2724.4231 585.638,-2736.7629 572.2549,-2756.7666 459.406,-2925.4412 649.1725,-3521.7246 508.2549,-3667.7666 465.2423,-3712.3433 393.5587,-3716.3284 337.2709,-3710.7387"/>
<polygon fill="none" stroke="#000000" points="337.6327,-3707.2575 327.3081,-3709.635 336.8619,-3714.2149 337.6327,-3707.2575"/>
</g>
<!-- \\Firesphere\\SolrSearch\\Interfaces\\SiteStateInterface -->
<g id="node15" class="node">
<title>\\Firesphere\\SolrSearch\\Interfaces\\SiteStateInterface</title>
<polygon fill="none" stroke="#000000" points="323.1275,-224.7666 185.1275,-224.7666 185.1275,-188.7666 323.1275,-188.7666 323.1275,-224.7666"/>
<text text-anchor="middle" x="254.1275" y="-203.9666" font-family="Courier,monospace" font-size="11.00" fill="#000000">SiteStateInterface</text>
</g>
<!-- \\Firesphere\\SolrSearch\\Interfaces\\ConfigStore -->
<g id="node16" class="node">
<title>\\Firesphere\\SolrSearch\\Interfaces\\ConfigStore</title>
<polygon fill="none" stroke="#000000" points="299.6275,-278.7666 208.6275,-278.7666 208.6275,-242.7666 299.6275,-242.7666 299.6275,-278.7666"/>
<text text-anchor="middle" x="254.1275" y="-257.9666" font-family="Courier,monospace" font-size="11.00" fill="#000000">ConfigStore</text>
</g>
<!-- \\Firesphere\\SolrSearch\\Tasks\\SolrIndexTask -->
<g id="node17" class="node">
<title>\\Firesphere\\SolrSearch\\Tasks\\SolrIndexTask</title>
<polygon fill="none" stroke="#000000" points="724.7549,-2644.7666 620.7549,-2644.7666 620.7549,-2608.7666 724.7549,-2608.7666 724.7549,-2644.7666"/>
<text text-anchor="middle" x="672.7549" y="-2623.9666" font-family="Courier,monospace" font-size="11.00" fill="#000000">SolrIndexTask</text>
</g>
<!-- \\SilverStripe\\Dev\\BuildTask -->
<g id="node68" class="node">
<title>\\SilverStripe\\Dev\\BuildTask</title>
<ellipse fill="none" stroke="#000000" cx="254.1275" cy="-3640.7666" rx="139.9756" ry="18"/>
<text text-anchor="middle" x="254.1275" y="-3637.0666" font-family="Times,serif" font-size="14.00" fill="#c0c0c0">\SilverStripe\Dev\BuildTask</text>
</g>
<!-- \\Firesphere\\SolrSearch\\Tasks\\SolrIndexTask&#45;&gt;\\SilverStripe\\Dev\\BuildTask -->
<g id="edge12" class="edge">
<title>\\Firesphere\\SolrSearch\\Tasks\\SolrIndexTask&#45;&gt;\\SilverStripe\\Dev\\BuildTask</title>
<path fill="none" stroke="#000000" d="M620.7027,-2640.7786C602.385,-2648.3884 583.5626,-2659.8294 572.2549,-2676.7666 456.3692,-2850.3444 653.029,-3463.4362 508.2549,-3613.7666 465.954,-3657.6909 395.8214,-3662.2326 339.9361,-3657.0189"/>
<polygon fill="none" stroke="#000000" points="339.9883,-3653.5052 329.6768,-3655.9392 339.2555,-3660.4667 339.9883,-3653.5052"/>
</g>
<!-- \\Firesphere\\SolrSearch\\Tasks\\SolrConfigureTask -->
<g id="node18" class="node">
<title>\\Firesphere\\SolrSearch\\Tasks\\SolrConfigureTask</title>
<polygon fill="none" stroke="#000000" points="738.2549,-2590.7666 607.2549,-2590.7666 607.2549,-2554.7666 738.2549,-2554.7666 738.2549,-2590.7666"/>
<text text-anchor="middle" x="672.7549" y="-2569.9666" font-family="Courier,monospace" font-size="11.00" fill="#000000">SolrConfigureTask</text>
</g>
<!-- \\Firesphere\\SolrSearch\\Tasks\\SolrConfigureTask&#45;&gt;\\SilverStripe\\Dev\\BuildTask -->
<g id="edge13" class="edge">
<title>\\Firesphere\\SolrSearch\\Tasks\\SolrConfigureTask&#45;&gt;\\SilverStripe\\Dev\\BuildTask</title>
<path fill="none" stroke="#000000" d="M607.2413,-2578.035C593.8293,-2582.1795 581.1208,-2588.9295 572.2549,-2599.7666 429.2892,-2774.5184 664.4525,-3450.7338 508.2549,-3613.7666 465.9953,-3657.8754 395.6863,-3662.3491 339.7221,-3657.0621"/>
<polygon fill="none" stroke="#000000" points="339.7635,-3653.5468 329.4492,-3655.9686 339.0226,-3660.5075 339.7635,-3653.5468"/>
</g>
<!-- \\Firesphere\\SolrSearch\\Tasks\\ClearErrorsTask -->
<g id="node19" class="node">
<title>\\Firesphere\\SolrSearch\\Tasks\\ClearErrorsTask</title>
<polygon fill="none" stroke="#000000" points="731.7549,-2536.7666 613.7549,-2536.7666 613.7549,-2500.7666 731.7549,-2500.7666 731.7549,-2536.7666"/>
<text text-anchor="middle" x="672.7549" y="-2515.9666" font-family="Courier,monospace" font-size="11.00" fill="#000000">ClearErrorsTask</text>
</g>
<!-- \\Firesphere\\SolrSearch\\Tasks\\ClearErrorsTask&#45;&gt;\\SilverStripe\\Dev\\BuildTask -->
<g id="edge14" class="edge">
<title>\\Firesphere\\SolrSearch\\Tasks\\ClearErrorsTask&#45;&gt;\\SilverStripe\\Dev\\BuildTask</title>
<path fill="none" stroke="#000000" d="M613.7474,-2522.2062C598.0028,-2526.0871 582.5307,-2533.1652 572.2549,-2545.7666 421.9978,-2730.0278 672.4655,-3441.8239 508.2549,-3613.7666 465.9934,-3658.018 395.5107,-3662.4263 339.48,-3657.0778"/>
<polygon fill="none" stroke="#000000" points="339.5128,-3653.5613 329.1961,-3655.973 338.765,-3660.5212 339.5128,-3653.5613"/>
</g>
<!-- \\Firesphere\\SolrSearch\\Tasks\\ClearDirtyClassesTask -->
<g id="node20" class="node">
<title>\\Firesphere\\SolrSearch\\Tasks\\ClearDirtyClassesTask</title>
<polygon fill="none" stroke="#000000" points="751.7549,-2482.7666 593.7549,-2482.7666 593.7549,-2446.7666 751.7549,-2446.7666 751.7549,-2482.7666"/>
<text text-anchor="middle" x="672.7549" y="-2461.9666" font-family="Courier,monospace" font-size="11.00" fill="#000000">ClearDirtyClassesTask</text>
</g>
<!-- \\Firesphere\\SolrSearch\\Tasks\\ClearDirtyClassesTask&#45;&gt;\\SilverStripe\\Dev\\BuildTask -->
<g id="edge15" class="edge">
<title>\\Firesphere\\SolrSearch\\Tasks\\ClearDirtyClassesTask&#45;&gt;\\SilverStripe\\Dev\\BuildTask</title>
<path fill="none" stroke="#000000" d="M593.3288,-2475.4637C585.2601,-2479.4566 577.9536,-2484.7576 572.2549,-2491.7666 414.7054,-2685.5384 680.4795,-3432.9128 508.2549,-3613.7666 465.8973,-3658.2464 395.0354,-3662.515 338.8849,-3657.0552"/>
<polygon fill="none" stroke="#000000" points="339.2592,-3653.5753 328.9393,-3655.9731 338.502,-3660.5343 339.2592,-3653.5753"/>
</g>
<!-- \\Firesphere\\SolrSearch\\Models\\SearchSynonym -->
<g id="node21" class="node">
<title>\\Firesphere\\SolrSearch\\Models\\SearchSynonym</title>
<polygon fill="none" stroke="#000000" points="724.7549,-2402.7666 620.7549,-2402.7666 620.7549,-2366.7666 724.7549,-2366.7666 724.7549,-2402.7666"/>
<text text-anchor="middle" x="672.7549" y="-2381.9666" font-family="Courier,monospace" font-size="11.00" fill="#000000">SearchSynonym</text>
</g>
<!-- \\SilverStripe\\ORM\\DataObject -->
<g id="node69" class="node">
<title>\\SilverStripe\\ORM\\DataObject</title>
<ellipse fill="none" stroke="#000000" cx="254.1275" cy="-3586.7666" rx="152.9733" ry="18"/>
<text text-anchor="middle" x="254.1275" y="-3583.0666" font-family="Times,serif" font-size="14.00" fill="#c0c0c0">\SilverStripe\ORM\DataObject</text>
</g>
<!-- \\Firesphere\\SolrSearch\\Models\\SearchSynonym&#45;&gt;\\SilverStripe\\ORM\\DataObject -->
<g id="edge16" class="edge">
<title>\\Firesphere\\SolrSearch\\Models\\SearchSynonym&#45;&gt;\\SilverStripe\\ORM\\DataObject</title>
<path fill="none" stroke="#000000" d="M620.6014,-2398.7114C602.2708,-2406.3126 583.4662,-2417.7654 572.2549,-2434.7666 503.3289,-2539.2882 594.5898,-3469.0922 508.2549,-3559.7666 466.6364,-3603.4769 397.4918,-3608.3575 341.8263,-3603.3328"/>
<polygon fill="none" stroke="#000000" points="341.9032,-3599.8225 331.5989,-3602.2865 341.1907,-3606.7862 341.9032,-3599.8225"/>
</g>
<!-- \\Firesphere\\SolrSearch\\Models\\DirtyClass -->
<g id="node22" class="node">
<title>\\Firesphere\\SolrSearch\\Models\\DirtyClass</title>
<polygon fill="none" stroke="#000000" points="714.7549,-2348.7666 630.7549,-2348.7666 630.7549,-2312.7666 714.7549,-2312.7666 714.7549,-2348.7666"/>
<text text-anchor="middle" x="672.7549" y="-2327.9666" font-family="Courier,monospace" font-size="11.00" fill="#000000">DirtyClass</text>
</g>
<!-- \\Firesphere\\SolrSearch\\Models\\DirtyClass&#45;&gt;\\SilverStripe\\ORM\\DataObject -->
<g id="edge17" class="edge">
<title>\\Firesphere\\SolrSearch\\Models\\DirtyClass&#45;&gt;\\SilverStripe\\ORM\\DataObject</title>
<path fill="none" stroke="#000000" d="M630.6322,-2331.1051C609.795,-2333.6469 586.1843,-2340.5683 572.2549,-2357.7666 488.0775,-2461.6984 600.3044,-3462.738 508.2549,-3559.7666 466.644,-3603.6282 397.3269,-3608.4451 341.5898,-3603.3563"/>
<polygon fill="none" stroke="#000000" points="341.6571,-3599.8447 331.3502,-3602.298 340.9374,-3606.8076 341.6571,-3599.8447"/>
</g>
<!-- \\Firesphere\\SolrSearch\\Models\\SolrLog -->
<g id="node23" class="node">
<title>\\Firesphere\\SolrSearch\\Models\\SolrLog</title>
<polygon fill="none" stroke="#000000" points="704.7549,-2294.7666 640.7549,-2294.7666 640.7549,-2258.7666 704.7549,-2258.7666 704.7549,-2294.7666"/>
<text text-anchor="middle" x="672.7549" y="-2273.9666" font-family="Courier,monospace" font-size="11.00" fill="#000000">SolrLog</text>
</g>
<!-- \\Firesphere\\SolrSearch\\Models\\SolrLog&#45;&gt;\\SilverStripe\\ORM\\DataObject -->
<g id="edge18" class="edge">
<title>\\Firesphere\\SolrSearch\\Models\\SolrLog&#45;&gt;\\SilverStripe\\ORM\\DataObject</title>
<path fill="none" stroke="#000000" d="M640.3084,-2276.1895C617.5369,-2277.6874 588.3788,-2283.8122 572.2549,-2303.7666 484.4303,-2412.455 604.3125,-3458.2813 508.2549,-3559.7666 466.6941,-3603.6757 397.3738,-3608.4895 341.6226,-3603.3875"/>
<polygon fill="none" stroke="#000000" points="341.6877,-3599.8756 331.3803,-3602.3266 340.9665,-3606.8383 341.6877,-3599.8756"/>
</g>
<!-- \\SilverStripe\\Security\\PermissionProvider -->
<g id="node70" class="node">
<title>\\SilverStripe\\Security\\PermissionProvider</title>
<ellipse fill="none" stroke="#000000" cx="254.1275" cy="-3532.7666" rx="206.0634" ry="18"/>
<text text-anchor="middle" x="254.1275" y="-3529.0666" font-family="Times,serif" font-size="14.00" fill="#c0c0c0">\SilverStripe\Security\PermissionProvider</text>
</g>
<!-- \\Firesphere\\SolrSearch\\Models\\SolrLog&#45;&gt;\\SilverStripe\\Security\\PermissionProvider -->
<g id="edge19" class="edge">
<title>\\Firesphere\\SolrSearch\\Models\\SolrLog&#45;&gt;\\SilverStripe\\Security\\PermissionProvider</title>
<path fill="none" stroke="#000000" stroke-dasharray="1,5" d="M640.322,-2276.2005C617.5572,-2277.7038 588.4016,-2283.8306 572.2549,-2303.7666 488.0775,-2407.6984 600.3044,-3408.738 508.2549,-3505.7666 468.5844,-3547.5829 403.7315,-3553.9109 349.4716,-3550.0006"/>
<polygon fill="none" stroke="#000000" points="349.7305,-3546.5101 339.4718,-3549.1576 349.1424,-3553.4854 349.7305,-3546.5101"/>
</g>
<!-- \\Firesphere\\SolrSearch\\Services\\SolrCoreService -->
<g id="node24" class="node">
<title>\\Firesphere\\SolrSearch\\Services\\SolrCoreService</title>
<polygon fill="none" stroke="#000000" points="731.7549,-1892.7666 613.7549,-1892.7666 613.7549,-1856.7666 731.7549,-1856.7666 731.7549,-1892.7666"/>
<text text-anchor="middle" x="672.7549" y="-1871.9666" font-family="Courier,monospace" font-size="11.00" fill="#000000">SolrCoreService</text>
</g>
<!-- \\Firesphere\\SolrSearch\\Admins\\SearchAdmin -->
<g id="node25" class="node">
<title>\\Firesphere\\SolrSearch\\Admins\\SearchAdmin</title>
<polygon fill="none" stroke="#000000" points="718.2549,-1812.7666 627.2549,-1812.7666 627.2549,-1776.7666 718.2549,-1776.7666 718.2549,-1812.7666"/>
<text text-anchor="middle" x="672.7549" y="-1791.9666" font-family="Courier,monospace" font-size="11.00" fill="#000000">SearchAdmin</text>
</g>
<!-- \\SilverStripe\\Admin\\ModelAdmin -->
<g id="node71" class="node">
<title>\\SilverStripe\\Admin\\ModelAdmin</title>
<ellipse fill="none" stroke="#000000" cx="254.1275" cy="-3424.7666" rx="165.1707" ry="18"/>
<text text-anchor="middle" x="254.1275" y="-3421.0666" font-family="Times,serif" font-size="14.00" fill="#c0c0c0">\SilverStripe\Admin\ModelAdmin</text>
</g>
<!-- \\Firesphere\\SolrSearch\\Admins\\SearchAdmin&#45;&gt;\\SilverStripe\\Admin\\ModelAdmin -->
<g id="edge20" class="edge">
<title>\\Firesphere\\SolrSearch\\Admins\\SearchAdmin&#45;&gt;\\SilverStripe\\Admin\\ModelAdmin</title>
<path fill="none" stroke="#000000" d="M627.0253,-1807.4744C607.3646,-1815.1857 585.8283,-1827.056 572.2549,-1844.7666 373.564,-2104.0184 272.6877,-3204.5114 256.4694,-3396.2261"/>
<polygon fill="none" stroke="#000000" points="252.9683,-3396.0934 255.6205,-3406.3509 259.9439,-3396.6784 252.9683,-3396.0934"/>
</g>
<!-- \\Firesphere\\SolrSearch\\Helpers\\Synonyms -->
<g id="node26" class="node">
<title>\\Firesphere\\SolrSearch\\Helpers\\Synonyms</title>
<polygon fill="none" stroke="#000000" points="708.2549,-1732.7666 637.2549,-1732.7666 637.2549,-1696.7666 708.2549,-1696.7666 708.2549,-1732.7666"/>
<text text-anchor="middle" x="672.7549" y="-1711.9666" font-family="Courier,monospace" font-size="11.00" fill="#000000">Synonyms</text>
</g>
<!-- \\Firesphere\\SolrSearch\\Helpers\\SolrLogger -->
<g id="node27" class="node">
<title>\\Firesphere\\SolrSearch\\Helpers\\SolrLogger</title>
<polygon fill="none" stroke="#000000" points="714.7549,-1678.7666 630.7549,-1678.7666 630.7549,-1642.7666 714.7549,-1642.7666 714.7549,-1678.7666"/>
<text text-anchor="middle" x="672.7549" y="-1657.9666" font-family="Courier,monospace" font-size="11.00" fill="#000000">SolrLogger</text>
</g>
<!-- \\Firesphere\\SolrSearch\\Helpers\\Statics -->
<g id="node28" class="node">
<title>\\Firesphere\\SolrSearch\\Helpers\\Statics</title>
<polygon fill="none" stroke="#000000" points="704.7549,-1624.7666 640.7549,-1624.7666 640.7549,-1588.7666 704.7549,-1588.7666 704.7549,-1624.7666"/>
<text text-anchor="middle" x="672.7549" y="-1603.9666" font-family="Courier,monospace" font-size="11.00" fill="#000000">Statics</text>
</g>
<!-- \\Firesphere\\SolrSearch\\Helpers\\FieldResolver -->
<g id="node29" class="node">
<title>\\Firesphere\\SolrSearch\\Helpers\\FieldResolver</title>
<polygon fill="none" stroke="#000000" points="724.7549,-1570.7666 620.7549,-1570.7666 620.7549,-1534.7666 724.7549,-1534.7666 724.7549,-1570.7666"/>
<text text-anchor="middle" x="672.7549" y="-1549.9666" font-family="Courier,monospace" font-size="11.00" fill="#000000">FieldResolver</text>
</g>
<!-- \\Firesphere\\SolrSearch\\Helpers\\DataResolver -->
<g id="node30" class="node">
<title>\\Firesphere\\SolrSearch\\Helpers\\DataResolver</title>
<polygon fill="none" stroke="#000000" points="721.7549,-1516.7666 623.7549,-1516.7666 623.7549,-1480.7666 721.7549,-1480.7666 721.7549,-1516.7666"/>
<text text-anchor="middle" x="672.7549" y="-1495.9666" font-family="Courier,monospace" font-size="11.00" fill="#000000">DataResolver</text>
</g>
<!-- \\Firesphere\\SolrSearch\\Factories\\DocumentFactory -->
<g id="node31" class="node">
<title>\\Firesphere\\SolrSearch\\Factories\\DocumentFactory</title>
<polygon fill="none" stroke="#000000" points="731.7549,-1436.7666 613.7549,-1436.7666 613.7549,-1400.7666 731.7549,-1400.7666 731.7549,-1436.7666"/>
<text text-anchor="middle" x="672.7549" y="-1415.9666" font-family="Courier,monospace" font-size="11.00" fill="#000000">DocumentFactory</text>
</g>
<!-- \\Firesphere\\SolrSearch\\Factories\\SchemaFactory -->
<g id="node32" class="node">
<title>\\Firesphere\\SolrSearch\\Factories\\SchemaFactory</title>
<polygon fill="none" stroke="#000000" points="724.7549,-1382.7666 620.7549,-1382.7666 620.7549,-1346.7666 724.7549,-1346.7666 724.7549,-1382.7666"/>
<text text-anchor="middle" x="672.7549" y="-1361.9666" font-family="Courier,monospace" font-size="11.00" fill="#000000">SchemaFactory</text>
</g>
<!-- \\Firesphere\\SolrSearch\\Factories\\SchemaFactory&#45;&gt;\\SilverStripe\\View\\ViewableData -->
<g id="edge21" class="edge">
<title>\\Firesphere\\SolrSearch\\Factories\\SchemaFactory&#45;&gt;\\SilverStripe\\View\\ViewableData</title>
<path fill="none" stroke="#000000" d="M620.6109,-1366.4882C602.5113,-1369.8871 583.8622,-1377.1064 572.2549,-1391.7666 430.1038,-1571.3042 664.0148,-3283.8989 508.2549,-3451.7666 467.203,-3496.0095 398.0229,-3500.8567 342.1996,-3495.6837"/>
<polygon fill="none" stroke="#000000" points="342.2519,-3492.1701 331.9414,-3494.6084 341.522,-3499.132 342.2519,-3492.1701"/>
</g>
<!-- \\Firesphere\\SolrSearch\\Factories\\QueryComponentFactory -->
<g id="node33" class="node">
<title>\\Firesphere\\SolrSearch\\Factories\\QueryComponentFactory</title>
<polygon fill="none" stroke="#000000" points="751.7549,-1328.7666 593.7549,-1328.7666 593.7549,-1292.7666 751.7549,-1292.7666 751.7549,-1328.7666"/>
<text text-anchor="middle" x="672.7549" y="-1307.9666" font-family="Courier,monospace" font-size="11.00" fill="#000000">QueryComponentFactory</text>
</g>
<!-- \\Firesphere\\SolrSearch\\States\\SiteState -->
<g id="node34" class="node">
<title>\\Firesphere\\SolrSearch\\States\\SiteState</title>
<polygon fill="none" stroke="#000000" points="714.7549,-1248.7666 630.7549,-1248.7666 630.7549,-1212.7666 714.7549,-1212.7666 714.7549,-1248.7666"/>
<text text-anchor="start" x="638.7549" y="-1233.9666" font-family="Courier,monospace" font-size="11.00" fill="#000000">«abstract»</text>
<text text-anchor="start" x="642.2549" y="-1221.9666" font-family="Courier,monospace" font-size="11.00" fill="#000000">SiteState</text>
</g>
<!-- \\Firesphere\\SolrSearch\\Traits\\GetSetSearchResolverTrait -->
<g id="node35" class="node">
<title>\\Firesphere\\SolrSearch\\Traits\\GetSetSearchResolverTrait</title>
<polygon fill="none" stroke="#000000" points="765.2549,-1168.7666 580.2549,-1168.7666 580.2549,-1132.7666 765.2549,-1132.7666 765.2549,-1168.7666"/>
<text text-anchor="middle" x="672.7549" y="-1147.9666" font-family="Courier,monospace" font-size="11.00" fill="#000000">GetSetSearchResolverTrait</text>
</g>
<!-- \\Firesphere\\SolrSearch\\Traits\\DataResolveTrait -->
<g id="node36" class="node">
<title>\\Firesphere\\SolrSearch\\Traits\\DataResolveTrait</title>
<polygon fill="none" stroke="#000000" points="735.2549,-1114.7666 610.2549,-1114.7666 610.2549,-1078.7666 735.2549,-1078.7666 735.2549,-1114.7666"/>
<text text-anchor="middle" x="672.7549" y="-1093.9666" font-family="Courier,monospace" font-size="11.00" fill="#000000">DataResolveTrait</text>
</g>
<!-- \\Firesphere\\SolrSearch\\Traits\\GetSetSchemaFactoryTrait -->
<g id="node37" class="node">
<title>\\Firesphere\\SolrSearch\\Traits\\GetSetSchemaFactoryTrait</title>
<polygon fill="none" stroke="#000000" points="762.2549,-1060.7666 583.2549,-1060.7666 583.2549,-1024.7666 762.2549,-1024.7666 762.2549,-1060.7666"/>
<text text-anchor="middle" x="672.7549" y="-1039.9666" font-family="Courier,monospace" font-size="11.00" fill="#000000">GetSetSchemaFactoryTrait</text>
</g>
<!-- \\Firesphere\\SolrSearch\\Traits\\BaseQueryTrait -->
<g id="node38" class="node">
<title>\\Firesphere\\SolrSearch\\Traits\\BaseQueryTrait</title>
<polygon fill="none" stroke="#000000" points="728.2549,-1006.7666 617.2549,-1006.7666 617.2549,-970.7666 728.2549,-970.7666 728.2549,-1006.7666"/>
<text text-anchor="middle" x="672.7549" y="-985.9666" font-family="Courier,monospace" font-size="11.00" fill="#000000">BaseQueryTrait</text>
</g>
<!-- \\Firesphere\\SolrSearch\\Traits\\LoggerTrait -->
<g id="node39" class="node">
<title>\\Firesphere\\SolrSearch\\Traits\\LoggerTrait</title>
<polygon fill="none" stroke="#000000" points="718.2549,-952.7666 627.2549,-952.7666 627.2549,-916.7666 718.2549,-916.7666 718.2549,-952.7666"/>
<text text-anchor="middle" x="672.7549" y="-931.9666" font-family="Courier,monospace" font-size="11.00" fill="#000000">LoggerTrait</text>
</g>
<!-- \\Firesphere\\SolrSearch\\Traits\\GetterSetterTrait -->
<g id="node40" class="node">
<title>\\Firesphere\\SolrSearch\\Traits\\GetterSetterTrait</title>
<polygon fill="none" stroke="#000000" points="738.2549,-898.7666 607.2549,-898.7666 607.2549,-862.7666 738.2549,-862.7666 738.2549,-898.7666"/>
<text text-anchor="middle" x="672.7549" y="-877.9666" font-family="Courier,monospace" font-size="11.00" fill="#000000">GetterSetterTrait</text>
</g>
<!-- \\Firesphere\\SolrSearch\\Traits\\QueryComponentFacetTrait -->
<g id="node41" class="node">
<title>\\Firesphere\\SolrSearch\\Traits\\QueryComponentFacetTrait</title>
<polygon fill="none" stroke="#000000" points="762.2549,-844.7666 583.2549,-844.7666 583.2549,-808.7666 762.2549,-808.7666 762.2549,-844.7666"/>
<text text-anchor="middle" x="672.7549" y="-823.9666" font-family="Courier,monospace" font-size="11.00" fill="#000000">QueryComponentFacetTrait</text>
</g>
<!-- \\Firesphere\\SolrSearch\\Traits\\QueryComponentBoostTrait -->
<g id="node42" class="node">
<title>\\Firesphere\\SolrSearch\\Traits\\QueryComponentBoostTrait</title>
<polygon fill="none" stroke="#000000" points="762.2549,-790.7666 583.2549,-790.7666 583.2549,-754.7666 762.2549,-754.7666 762.2549,-790.7666"/>
<text text-anchor="middle" x="672.7549" y="-769.9666" font-family="Courier,monospace" font-size="11.00" fill="#000000">QueryComponentBoostTrait</text>
</g>
<!-- \\Firesphere\\SolrSearch\\Traits\\QueryComponentFilterTrait -->
<g id="node43" class="node">
<title>\\Firesphere\\SolrSearch\\Traits\\QueryComponentFilterTrait</title>
<polygon fill="none" stroke="#000000" points="765.2549,-736.7666 580.2549,-736.7666 580.2549,-700.7666 765.2549,-700.7666 765.2549,-736.7666"/>
<text text-anchor="middle" x="672.7549" y="-715.9666" font-family="Courier,monospace" font-size="11.00" fill="#000000">QueryComponentFilterTrait</text>
</g>
<!-- \\Firesphere\\SolrSearch\\Traits\\DocumentFactoryTrait -->
<g id="node44" class="node">
<title>\\Firesphere\\SolrSearch\\Traits\\DocumentFactoryTrait</title>
<polygon fill="none" stroke="#000000" points="748.7549,-682.7666 596.7549,-682.7666 596.7549,-646.7666 748.7549,-646.7666 748.7549,-682.7666"/>
<text text-anchor="middle" x="672.7549" y="-661.9666" font-family="Courier,monospace" font-size="11.00" fill="#000000">DocumentFactoryTrait</text>
</g>
<!-- \\Firesphere\\SolrSearch\\Traits\\SolrIndexTrait -->
<g id="node45" class="node">
<title>\\Firesphere\\SolrSearch\\Traits\\SolrIndexTrait</title>
<polygon fill="none" stroke="#000000" points="728.2549,-628.7666 617.2549,-628.7666 617.2549,-592.7666 728.2549,-592.7666 728.2549,-628.7666"/>
<text text-anchor="middle" x="672.7549" y="-607.9666" font-family="Courier,monospace" font-size="11.00" fill="#000000">SolrIndexTrait</text>
</g>
<!-- \\Firesphere\\SolrSearch\\Traits\\BaseIndexTrait -->
<g id="node46" class="node">
<title>\\Firesphere\\SolrSearch\\Traits\\BaseIndexTrait</title>
<polygon fill="none" stroke="#000000" points="728.2549,-574.7666 617.2549,-574.7666 617.2549,-538.7666 728.2549,-538.7666 728.2549,-574.7666"/>
<text text-anchor="middle" x="672.7549" y="-553.9666" font-family="Courier,monospace" font-size="11.00" fill="#000000">BaseIndexTrait</text>
</g>
<!-- \\Firesphere\\SolrSearch\\Traits\\SearchResultSetTrait -->
<g id="node47" class="node">
<title>\\Firesphere\\SolrSearch\\Traits\\SearchResultSetTrait</title>
<polygon fill="none" stroke="#000000" points="748.7549,-520.7666 596.7549,-520.7666 596.7549,-484.7666 748.7549,-484.7666 748.7549,-520.7666"/>
<text text-anchor="middle" x="672.7549" y="-499.9666" font-family="Courier,monospace" font-size="11.00" fill="#000000">SearchResultSetTrait</text>
</g>
<!-- \\Firesphere\\SolrSearch\\Traits\\SearchResultGetTrait -->
<g id="node48" class="node">
<title>\\Firesphere\\SolrSearch\\Traits\\SearchResultGetTrait</title>
<polygon fill="none" stroke="#000000" points="748.7549,-466.7666 596.7549,-466.7666 596.7549,-430.7666 748.7549,-430.7666 748.7549,-466.7666"/>
<text text-anchor="middle" x="672.7549" y="-445.9666" font-family="Courier,monospace" font-size="11.00" fill="#000000">SearchResultGetTrait</text>
</g>
<!-- \\Firesphere\\SolrSearch\\Traits\\CoreServiceTrait -->
<g id="node49" class="node">
<title>\\Firesphere\\SolrSearch\\Traits\\CoreServiceTrait</title>
<polygon fill="none" stroke="#000000" points="735.2549,-412.7666 610.2549,-412.7666 610.2549,-376.7666 735.2549,-376.7666 735.2549,-412.7666"/>
<text text-anchor="middle" x="672.7549" y="-391.9666" font-family="Courier,monospace" font-size="11.00" fill="#000000">CoreServiceTrait</text>
</g>
<!-- \\Firesphere\\SolrSearch\\Traits\\CoreAdminTrait -->
<g id="node50" class="node">
<title>\\Firesphere\\SolrSearch\\Traits\\CoreAdminTrait</title>
<polygon fill="none" stroke="#000000" points="728.2549,-358.7666 617.2549,-358.7666 617.2549,-322.7666 728.2549,-322.7666 728.2549,-358.7666"/>
<text text-anchor="middle" x="672.7549" y="-337.9666" font-family="Courier,monospace" font-size="11.00" fill="#000000">CoreAdminTrait</text>
</g>
<!-- \\Firesphere\\SolrSearch\\Stores\\FileConfigStore -->
<g id="node51" class="node">
<title>\\Firesphere\\SolrSearch\\Stores\\FileConfigStore</title>
<polygon fill="none" stroke="#000000" points="731.7549,-224.7666 613.7549,-224.7666 613.7549,-188.7666 731.7549,-188.7666 731.7549,-224.7666"/>
<text text-anchor="middle" x="672.7549" y="-203.9666" font-family="Courier,monospace" font-size="11.00" fill="#000000">FileConfigStore</text>
</g>
<!-- \\Firesphere\\SolrSearch\\Stores\\FileConfigStore&#45;&gt;\\Firesphere\\SolrSearch\\Interfaces\\ConfigStore -->
<g id="edge22" class="edge">
<title>\\Firesphere\\SolrSearch\\Stores\\FileConfigStore&#45;&gt;\\Firesphere\\SolrSearch\\Interfaces\\ConfigStore</title>
<path fill="none" stroke="#000000" stroke-dasharray="1,5" d="M613.4867,-217.3301C582.2454,-222.6865 543.2453,-229.0401 508.2549,-233.7666 440.1774,-242.9624 361.4881,-250.9113 309.9264,-255.7578"/>
<polygon fill="none" stroke="#000000" points="309.2998,-252.3009 299.6682,-256.7147 309.95,-259.2707 309.2998,-252.3009"/>
</g>
<!-- \\Firesphere\\SolrSearch\\Stores\\PostConfigStore -->
<g id="node52" class="node">
<title>\\Firesphere\\SolrSearch\\Stores\\PostConfigStore</title>
<polygon fill="none" stroke="#000000" points="731.7549,-278.7666 613.7549,-278.7666 613.7549,-242.7666 731.7549,-242.7666 731.7549,-278.7666"/>
<text text-anchor="middle" x="672.7549" y="-257.9666" font-family="Courier,monospace" font-size="11.00" fill="#000000">PostConfigStore</text>
</g>
<!-- \\Firesphere\\SolrSearch\\Stores\\PostConfigStore&#45;&gt;\\Firesphere\\SolrSearch\\Interfaces\\ConfigStore -->
<g id="edge23" class="edge">
<title>\\Firesphere\\SolrSearch\\Stores\\PostConfigStore&#45;&gt;\\Firesphere\\SolrSearch\\Interfaces\\ConfigStore</title>
<path fill="none" stroke="#000000" stroke-dasharray="1,5" d="M613.6637,-260.7666C532.8854,-260.7666 389.0185,-260.7666 309.9722,-260.7666"/>
<polygon fill="none" stroke="#000000" points="309.7288,-257.2667 299.7287,-260.7666 309.7287,-264.2667 309.7288,-257.2667"/>
</g>
<!-- \\Firesphere\\SolrFluent\\Extensions\\FluentDocumentExtension -->
<g id="node53" class="node">
<title>\\Firesphere\\SolrFluent\\Extensions\\FluentDocumentExtension</title>
<polygon fill="none" stroke="#000000" points="1012.7549,-668.7666 840.7549,-668.7666 840.7549,-632.7666 1012.7549,-632.7666 1012.7549,-668.7666"/>
<text text-anchor="middle" x="926.7549" y="-647.9666" font-family="Courier,monospace" font-size="11.00" fill="#000000">FluentDocumentExtension</text>
</g>
<!-- \\Firesphere\\SolrFluent\\Extensions\\FluentDocumentExtension&#45;&gt;\\SilverStripe\\Core\\Extension -->
<g id="edge24" class="edge">
<title>\\Firesphere\\SolrFluent\\Extensions\\FluentDocumentExtension&#45;&gt;\\SilverStripe\\Core\\Extension</title>
<path fill="none" stroke="#000000" d="M879.2438,-632.6795C857.9161,-622.0394 834.5963,-606.3637 821.2549,-584.7666 722.7083,-425.2389 882.9626,-322.2977 781.2549,-164.7666 751.1296,-118.1066 718.0085,-134.966 672.7549,-102.7666"/>
</g>
<!-- \\Firesphere\\SolrFluent\\Extensions\\FluentIndexExtension -->
<g id="node54" class="node">
<title>\\Firesphere\\SolrFluent\\Extensions\\FluentIndexExtension</title>
<polygon fill="none" stroke="#000000" points="1002.7549,-776.7666 850.7549,-776.7666 850.7549,-740.7666 1002.7549,-740.7666 1002.7549,-776.7666"/>
<text text-anchor="middle" x="926.7549" y="-755.9666" font-family="Courier,monospace" font-size="11.00" fill="#000000">FluentIndexExtension</text>
</g>
<!-- \\Firesphere\\SolrFluent\\Extensions\\FluentIndexExtension&#45;&gt;\\SilverStripe\\Core\\Extension -->
<g id="edge25" class="edge">
<title>\\Firesphere\\SolrFluent\\Extensions\\FluentIndexExtension&#45;&gt;\\SilverStripe\\Core\\Extension</title>
<path fill="none" stroke="#000000" d="M850.5548,-751.5631C839.313,-747.2912 828.9462,-740.9848 821.2549,-731.7666 740.3328,-634.7788 848.462,-271.7162 781.2549,-164.7666 751.7039,-117.7407 718.0085,-134.966 672.7549,-102.7666"/>
</g>
<!-- \\Firesphere\\SolrFluent\\Extensions\\FluentSchemaExtension -->
<g id="node55" class="node">
<title>\\Firesphere\\SolrFluent\\Extensions\\FluentSchemaExtension</title>
<polygon fill="none" stroke="#000000" points="1005.7549,-722.7666 847.7549,-722.7666 847.7549,-686.7666 1005.7549,-686.7666 1005.7549,-722.7666"/>
<text text-anchor="middle" x="926.7549" y="-701.9666" font-family="Courier,monospace" font-size="11.00" fill="#000000">FluentSchemaExtension</text>
</g>
<!-- \\Firesphere\\SolrFluent\\Extensions\\FluentSchemaExtension&#45;&gt;\\SilverStripe\\Core\\Extension -->
<g id="edge26" class="edge">
<title>\\Firesphere\\SolrFluent\\Extensions\\FluentSchemaExtension&#45;&gt;\\SilverStripe\\Core\\Extension</title>
<path fill="none" stroke="#000000" d="M847.7103,-696.36C837.5852,-692.1367 828.311,-686.1604 821.2549,-677.7666 747.6758,-590.2387 842.4518,-261.3583 781.2549,-164.7666 751.5304,-117.8502 718.0085,-134.966 672.7549,-102.7666"/>
</g>
<!-- \\Firesphere\\SolrFluent\\States\\FluentSiteState -->
<g id="node56" class="node">
<title>\\Firesphere\\SolrFluent\\States\\FluentSiteState</title>
<polygon fill="none" stroke="#000000" points="985.7549,-856.7666 867.7549,-856.7666 867.7549,-820.7666 985.7549,-820.7666 985.7549,-856.7666"/>
<text text-anchor="middle" x="926.7549" y="-835.9666" font-family="Courier,monospace" font-size="11.00" fill="#000000">FluentSiteState</text>
</g>
<!-- \\Firesphere\\SolrFluent\\States\\FluentSiteState&#45;&gt;\\Firesphere\\SolrSearch\\Interfaces\\SiteStateInterface -->
<g id="edge28" class="edge">
<title>\\Firesphere\\SolrFluent\\States\\FluentSiteState&#45;&gt;\\Firesphere\\SolrSearch\\Interfaces\\SiteStateInterface</title>
<path fill="none" stroke="#000000" stroke-dasharray="1,5" d="M867.5291,-834.8055C850.0639,-830.6124 832.6083,-822.8501 821.2549,-808.7666 732.9344,-699.2077 880.7021,-276.3352 781.2549,-176.7666 764.1808,-159.6716 692.946,-183.0363 672.7549,-169.7666"/>
<path fill="none" stroke="#000000" stroke-dasharray="1,5" d="M672.7549,-169.7666C645.1222,-151.6062 446.7099,-177.7184 333.2389,-194.5087"/>
<polygon fill="none" stroke="#000000" points="332.5799,-191.0682 323.204,-196.002 333.6103,-197.9919 332.5799,-191.0682"/>
</g>
<!-- \\Firesphere\\SolrFluent\\States\\FluentSiteState&#45;&gt;\\Firesphere\\SolrSearch\\States\\SiteState -->
<g id="edge27" class="edge">
<title>\\Firesphere\\SolrFluent\\States\\FluentSiteState&#45;&gt;\\Firesphere\\SolrSearch\\States\\SiteState</title>
<path fill="none" stroke="#000000" d="M893.2227,-856.9005C869.094,-871.8125 837.9684,-895.2619 821.2549,-924.7666 760.1629,-1032.6133 863.2155,-1107.7847 781.2549,-1200.7666 767.1593,-1216.7576 745.3789,-1224.5681 725.021,-1228.2662"/>
<polygon fill="none" stroke="#000000" points="724.2294,-1224.8462 714.8683,-1229.808 725.2804,-1231.7668 724.2294,-1224.8462"/>
</g>
<!-- \\Firesphere\\SolrSubsites\\Extensions\\SubsitesExtension -->
<g id="node57" class="node">
<title>\\Firesphere\\SolrSubsites\\Extensions\\SubsitesExtension</title>
<polygon fill="none" stroke="#000000" points="992.2549,-972.7666 861.2549,-972.7666 861.2549,-936.7666 992.2549,-936.7666 992.2549,-972.7666"/>
<text text-anchor="middle" x="926.7549" y="-951.9666" font-family="Courier,monospace" font-size="11.00" fill="#000000">SubsitesExtension</text>
</g>
<!-- \\Firesphere\\SolrSubsites\\Extensions\\SubsitesExtension&#45;&gt;\\SilverStripe\\Core\\Extension -->
<g id="edge29" class="edge">
<title>\\Firesphere\\SolrSubsites\\Extensions\\SubsitesExtension&#45;&gt;\\SilverStripe\\Core\\Extension</title>
<path fill="none" stroke="#000000" d="M878.3173,-936.6372C857.0531,-926.0541 834.0545,-910.4387 821.2549,-888.7666 739.3126,-750.0233 865.9472,-301.8485 781.2549,-164.7666 752.063,-117.517 718.0085,-134.966 672.7549,-102.7666"/>
</g>
<!-- \\Firesphere\\SolrSubsites\\States\\SubsiteState -->
<g id="node58" class="node">
<title>\\Firesphere\\SolrSubsites\\States\\SubsiteState</title>
<polygon fill="none" stroke="#000000" points="975.7549,-1052.7666 877.7549,-1052.7666 877.7549,-1016.7666 975.7549,-1016.7666 975.7549,-1052.7666"/>
<text text-anchor="middle" x="926.7549" y="-1031.9666" font-family="Courier,monospace" font-size="11.00" fill="#000000">SubsiteState</text>
</g>
<!-- \\Firesphere\\SolrSubsites\\States\\SubsiteState&#45;&gt;\\Firesphere\\SolrSearch\\Interfaces\\SiteStateInterface -->
<g id="edge31" class="edge">
<title>\\Firesphere\\SolrSubsites\\States\\SubsiteState&#45;&gt;\\Firesphere\\SolrSearch\\Interfaces\\SiteStateInterface</title>
<path fill="none" stroke="#000000" stroke-dasharray="1,5" d="M877.5714,-1032.9631C856.9534,-1029.5081 834.6932,-1021.6936 821.2549,-1004.7666 763.9847,-932.6287 845.8564,-242.4202 781.2549,-176.7666 764.3089,-159.5445 692.946,-183.0363 672.7549,-169.7666"/>
</g>
<!-- \\Firesphere\\SolrSubsites\\States\\SubsiteState&#45;&gt;\\Firesphere\\SolrSearch\\States\\SiteState -->
<g id="edge30" class="edge">
<title>\\Firesphere\\SolrSubsites\\States\\SubsiteState&#45;&gt;\\Firesphere\\SolrSearch\\States\\SiteState</title>
<path fill="none" stroke="#000000" d="M916.039,-1052.8353C894.7883,-1087.0657 843.9036,-1161.451 781.2549,-1200.7666 764.3463,-1211.3777 743.6578,-1218.2971 724.8974,-1222.7816"/>
<polygon fill="none" stroke="#000000" points="724.0102,-1219.3931 715.0024,-1224.9708 725.5224,-1226.2279 724.0102,-1219.3931"/>
</g>
<!-- \\Firesphere\\SolrPermissions\\Extensions\\BaseIndexExtension -->
<g id="node59" class="node">
<title>\\Firesphere\\SolrPermissions\\Extensions\\BaseIndexExtension</title>
<polygon fill="none" stroke="#000000" points="995.7549,-390.7666 857.7549,-390.7666 857.7549,-354.7666 995.7549,-354.7666 995.7549,-390.7666"/>
<text text-anchor="middle" x="926.7549" y="-369.9666" font-family="Courier,monospace" font-size="11.00" fill="#000000">BaseIndexExtension</text>
</g>
<!-- \\Firesphere\\SolrPermissions\\Extensions\\BaseIndexExtension&#45;&gt;\\SilverStripe\\Core\\Extension -->
<g id="edge32" class="edge">
<title>\\Firesphere\\SolrPermissions\\Extensions\\BaseIndexExtension&#45;&gt;\\SilverStripe\\Core\\Extension</title>
<path fill="none" stroke="#000000" d="M882.0021,-354.7381C860.5351,-343.8958 836.28,-328.027 821.2549,-306.7666 773.9576,-239.8412 839.2316,-184.6867 781.2549,-126.7666 746.3154,-91.8611 712.9958,-131.3993 672.7549,-102.7666"/>
</g>
<!-- \\Firesphere\\SolrPermissions\\Extensions\\SchemaFactoryExtension -->
<g id="node60" class="node">
<title>\\Firesphere\\SolrPermissions\\Extensions\\SchemaFactoryExtension</title>
<polygon fill="none" stroke="#000000" points="1009.2549,-498.7666 844.2549,-498.7666 844.2549,-462.7666 1009.2549,-462.7666 1009.2549,-498.7666"/>
<text text-anchor="middle" x="926.7549" y="-477.9666" font-family="Courier,monospace" font-size="11.00" fill="#000000">SchemaFactoryExtension</text>
</g>
<!-- \\Firesphere\\SolrPermissions\\Extensions\\SchemaFactoryExtension&#45;&gt;\\SilverStripe\\Core\\Extension -->
<g id="edge33" class="edge">
<title>\\Firesphere\\SolrPermissions\\Extensions\\SchemaFactoryExtension&#45;&gt;\\SilverStripe\\Core\\Extension</title>
<path fill="none" stroke="#000000" d="M844.1353,-470.3682C835.479,-466.3313 827.5576,-460.9384 821.2549,-453.7666 724.6017,-343.7848 879.7016,-235.1458 781.2549,-126.7666 748.0478,-90.2091 712.9958,-131.3993 672.7549,-102.7666"/>
</g>
<!-- \\Firesphere\\SolrPermissions\\Extensions\\DocumentFactoryExtension -->
<g id="node61" class="node">
<title>\\Firesphere\\SolrPermissions\\Extensions\\DocumentFactoryExtension</title>
<polygon fill="none" stroke="#000000" points="1016.2549,-444.7666 837.2549,-444.7666 837.2549,-408.7666 1016.2549,-408.7666 1016.2549,-444.7666"/>
<text text-anchor="middle" x="926.7549" y="-423.9666" font-family="Courier,monospace" font-size="11.00" fill="#000000">DocumentFactoryExtension</text>
</g>
<!-- \\Firesphere\\SolrPermissions\\Extensions\\DocumentFactoryExtension&#45;&gt;\\SilverStripe\\Core\\Extension -->
<g id="edge34" class="edge">
<title>\\Firesphere\\SolrPermissions\\Extensions\\DocumentFactoryExtension&#45;&gt;\\SilverStripe\\Core\\Extension</title>
<path fill="none" stroke="#000000" d="M837.0155,-412.4264C831.1674,-408.9953 825.8083,-404.8254 821.2549,-399.7666 739.2158,-308.6216 864.7801,-216.5517 781.2549,-126.7666 747.6157,-90.6063 712.9958,-131.3993 672.7549,-102.7666"/>
</g>
<!-- \\Firesphere\\SolrPermissions\\Extensions\\DataObjectExtension -->
<g id="node62" class="node">
<title>\\Firesphere\\SolrPermissions\\Extensions\\DataObjectExtension</title>
<polygon fill="none" stroke="#000000" points="999.2549,-552.7666 854.2549,-552.7666 854.2549,-516.7666 999.2549,-516.7666 999.2549,-552.7666"/>
<text text-anchor="middle" x="926.7549" y="-531.9666" font-family="Courier,monospace" font-size="11.00" fill="#000000">DataObjectExtension</text>
</g>
<!-- \\Firesphere\\SolrPermissions\\Extensions\\DataObjectExtension&#45;&gt;\\SilverStripe\\ORM\\DataExtension -->
<g id="edge35" class="edge">
<title>\\Firesphere\\SolrPermissions\\Extensions\\DataObjectExtension&#45;&gt;\\SilverStripe\\ORM\\DataExtension</title>
<path fill="none" stroke="#000000" d="M854.1266,-528.4101C841.6284,-524.1731 829.9011,-517.661 821.2549,-507.7666 720.2653,-392.1964 883.6696,-279.0758 781.2549,-164.7666 717.657,-93.7823 664.7691,-139.6703 572.2549,-116.7666 543.6866,-109.6939 537.1957,-105.1148 508.2549,-99.7666 473.46,-93.3364 435.681,-88.2923 400.1541,-84.3946"/>
<polygon fill="none" stroke="#000000" points="400.5143,-80.9133 390.1977,-83.3255 399.7668,-87.8732 400.5143,-80.9133"/>
</g>
</g>
</svg>
