<?xml version="1.0" encoding="UTF-8" standalone="no"?>
<!DOCTYPE svg PUBLIC "-//W3C//DTD SVG 1.1//EN"
 "http://www.w3.org/Graphics/SVG/1.1/DTD/svg11.dtd">
<!-- Generated by graphviz version 2.40.1 (20161225.0304)
 -->
<!-- Title: G Pages: 1 -->
<svg width="1064pt" height="3721pt"
 viewBox="0.00 0.00 1064.25 3721.46" xmlns="http://www.w3.org/2000/svg" xmlns:xlink="http://www.w3.org/1999/xlink">
<g id="graph0" class="graph" transform="scale(1 1) rotate(0) translate(4 3717.4587)">
<title>G</title>
<polygon fill="#ffffff" stroke="transparent" points="-4,4 -4,-3717.4587 1060.2549,-3717.4587 1060.2549,4 -4,4"/>
<g id="clust1" class="cluster">
<title>cluster_Global</title>
<path fill="none" stroke="#c0c0c0" d="M165.1275,-152.7817C165.1275,-152.7817 1036.2549,-152.7817 1036.2549,-152.7817 1042.2549,-152.7817 1048.2549,-158.7817 1048.2549,-164.7817 1048.2549,-164.7817 1048.2549,-3386.7817 1048.2549,-3386.7817 1048.2549,-3392.7817 1042.2549,-3398.7817 1036.2549,-3398.7817 1036.2549,-3398.7817 165.1275,-3398.7817 165.1275,-3398.7817 159.1275,-3398.7817 153.1275,-3392.7817 153.1275,-3386.7817 153.1275,-3386.7817 153.1275,-164.7817 153.1275,-164.7817 153.1275,-158.7817 159.1275,-152.7817 165.1275,-152.7817"/>
<text text-anchor="middle" x="600.6912" y="-3385.9817" font-family="Times,serif" font-size="11.00" fill="#c0c0c0">Global</text>
</g>
<g id="clust2" class="cluster">
<title>cluster_\SilverStripe</title>
<path fill="none" stroke="#c0c0c0" d="M861.2549,-3056.7817C861.2549,-3056.7817 992.2549,-3056.7817 992.2549,-3056.7817 998.2549,-3056.7817 1004.2549,-3062.7817 1004.2549,-3068.7817 1004.2549,-3068.7817 1004.2549,-3358.7817 1004.2549,-3358.7817 1004.2549,-3364.7817 998.2549,-3370.7817 992.2549,-3370.7817 992.2549,-3370.7817 861.2549,-3370.7817 861.2549,-3370.7817 855.2549,-3370.7817 849.2549,-3364.7817 849.2549,-3358.7817 849.2549,-3358.7817 849.2549,-3068.7817 849.2549,-3068.7817 849.2549,-3062.7817 855.2549,-3056.7817 861.2549,-3056.7817"/>
<text text-anchor="middle" x="926.7549" y="-3357.9817" font-family="Times,serif" font-size="11.00" fill="#c0c0c0">SilverStripe</text>
</g>
<g id="clust3" class="cluster">
<title>cluster_\SilverStripe\FullTextSearch</title>
<path fill="none" stroke="#c0c0c0" d="M869.2549,-3064.7817C869.2549,-3064.7817 984.2549,-3064.7817 984.2549,-3064.7817 990.2549,-3064.7817 996.2549,-3070.7817 996.2549,-3076.7817 996.2549,-3076.7817 996.2549,-3330.7817 996.2549,-3330.7817 996.2549,-3336.7817 990.2549,-3342.7817 984.2549,-3342.7817 984.2549,-3342.7817 869.2549,-3342.7817 869.2549,-3342.7817 863.2549,-3342.7817 857.2549,-3336.7817 857.2549,-3330.7817 857.2549,-3330.7817 857.2549,-3076.7817 857.2549,-3076.7817 857.2549,-3070.7817 863.2549,-3064.7817 869.2549,-3064.7817"/>
<text text-anchor="middle" x="926.7549" y="-3329.9817" font-family="Times,serif" font-size="11.00" fill="#c0c0c0">FullTextSearch</text>
</g>
<g id="clust4" class="cluster">
<title>cluster_\SilverStripe\FullTextSearch\Search</title>
<path fill="none" stroke="#c0c0c0" d="M877.2549,-3206.7817C877.2549,-3206.7817 976.2549,-3206.7817 976.2549,-3206.7817 982.2549,-3206.7817 988.2549,-3212.7817 988.2549,-3218.7817 988.2549,-3218.7817 988.2549,-3302.7817 988.2549,-3302.7817 988.2549,-3308.7817 982.2549,-3314.7817 976.2549,-3314.7817 976.2549,-3314.7817 877.2549,-3314.7817 877.2549,-3314.7817 871.2549,-3314.7817 865.2549,-3308.7817 865.2549,-3302.7817 865.2549,-3302.7817 865.2549,-3218.7817 865.2549,-3218.7817 865.2549,-3212.7817 871.2549,-3206.7817 877.2549,-3206.7817"/>
<text text-anchor="middle" x="926.7549" y="-3301.9817" font-family="Times,serif" font-size="11.00" fill="#c0c0c0">Search</text>
</g>
<g id="clust5" class="cluster">
<title>cluster_\SilverStripe\FullTextSearch\Search\Queries</title>
<path fill="none" stroke="#c0c0c0" d="M885.2549,-3214.7817C885.2549,-3214.7817 968.2549,-3214.7817 968.2549,-3214.7817 974.2549,-3214.7817 980.2549,-3220.7817 980.2549,-3226.7817 980.2549,-3226.7817 980.2549,-3274.7817 980.2549,-3274.7817 980.2549,-3280.7817 974.2549,-3286.7817 968.2549,-3286.7817 968.2549,-3286.7817 885.2549,-3286.7817 885.2549,-3286.7817 879.2549,-3286.7817 873.2549,-3280.7817 873.2549,-3274.7817 873.2549,-3274.7817 873.2549,-3226.7817 873.2549,-3226.7817 873.2549,-3220.7817 879.2549,-3214.7817 885.2549,-3214.7817"/>
<text text-anchor="middle" x="926.7549" y="-3273.9817" font-family="Times,serif" font-size="11.00" fill="#c0c0c0">Queries</text>
</g>
<g id="clust6" class="cluster">
<title>cluster_\SilverStripe\FullTextSearch\Solr</title>
<path fill="none" stroke="#c0c0c0" d="M888.7549,-3072.7817C888.7549,-3072.7817 964.7549,-3072.7817 964.7549,-3072.7817 970.7549,-3072.7817 976.7549,-3078.7817 976.7549,-3084.7817 976.7549,-3084.7817 976.7549,-3186.7817 976.7549,-3186.7817 976.7549,-3192.7817 970.7549,-3198.7817 964.7549,-3198.7817 964.7549,-3198.7817 888.7549,-3198.7817 888.7549,-3198.7817 882.7549,-3198.7817 876.7549,-3192.7817 876.7549,-3186.7817 876.7549,-3186.7817 876.7549,-3084.7817 876.7549,-3084.7817 876.7549,-3078.7817 882.7549,-3072.7817 888.7549,-3072.7817"/>
<text text-anchor="middle" x="926.7549" y="-3185.9817" font-family="Times,serif" font-size="11.00" fill="#c0c0c0">Solr</text>
</g>
<g id="clust7" class="cluster">
<title>cluster_\Firesphere</title>
<path fill="none" stroke="#c0c0c0" d="M173.1275,-160.7817C173.1275,-160.7817 1028.2549,-160.7817 1028.2549,-160.7817 1034.2549,-160.7817 1040.2549,-166.7817 1040.2549,-172.7817 1040.2549,-172.7817 1040.2549,-3036.7817 1040.2549,-3036.7817 1040.2549,-3042.7817 1034.2549,-3048.7817 1028.2549,-3048.7817 1028.2549,-3048.7817 173.1275,-3048.7817 173.1275,-3048.7817 167.1275,-3048.7817 161.1275,-3042.7817 161.1275,-3036.7817 161.1275,-3036.7817 161.1275,-172.7817 161.1275,-172.7817 161.1275,-166.7817 167.1275,-160.7817 173.1275,-160.7817"/>
<text text-anchor="middle" x="600.6912" y="-3035.9817" font-family="Times,serif" font-size="11.00" fill="#c0c0c0">Firesphere</text>
</g>
<g id="clust8" class="cluster">
<title>cluster_\Firesphere\SolrCompatibility</title>
<path fill="none" stroke="#c0c0c0" d="M833.2549,-168.7817C833.2549,-168.7817 1020.2549,-168.7817 1020.2549,-168.7817 1026.2549,-168.7817 1032.2549,-174.7817 1032.2549,-180.7817 1032.2549,-180.7817 1032.2549,-318.7817 1032.2549,-318.7817 1032.2549,-324.7817 1026.2549,-330.7817 1020.2549,-330.7817 1020.2549,-330.7817 833.2549,-330.7817 833.2549,-330.7817 827.2549,-330.7817 821.2549,-324.7817 821.2549,-318.7817 821.2549,-318.7817 821.2549,-180.7817 821.2549,-180.7817 821.2549,-174.7817 827.2549,-168.7817 833.2549,-168.7817"/>
<text text-anchor="middle" x="926.7549" y="-317.9817" font-family="Times,serif" font-size="11.00" fill="#c0c0c0">SolrCompatibility</text>
</g>
<g id="clust9" class="cluster">
<title>cluster_\Firesphere\SolrCompatibility\Extensions</title>
<path fill="none" stroke="#c0c0c0" d="M841.2549,-176.7817C841.2549,-176.7817 1012.2549,-176.7817 1012.2549,-176.7817 1018.2549,-176.7817 1024.2549,-182.7817 1024.2549,-188.7817 1024.2549,-188.7817 1024.2549,-290.7817 1024.2549,-290.7817 1024.2549,-296.7817 1018.2549,-302.7817 1012.2549,-302.7817 1012.2549,-302.7817 841.2549,-302.7817 841.2549,-302.7817 835.2549,-302.7817 829.2549,-296.7817 829.2549,-290.7817 829.2549,-290.7817 829.2549,-188.7817 829.2549,-188.7817 829.2549,-182.7817 835.2549,-176.7817 841.2549,-176.7817"/>
<text text-anchor="middle" x="926.7549" y="-289.9817" font-family="Times,serif" font-size="11.00" fill="#c0c0c0">Extensions</text>
</g>
<g id="clust10" class="cluster">
<title>cluster_\Firesphere\SolrSearch</title>
<path fill="none" stroke="#c0c0c0" d="M181.1275,-172.7817C181.1275,-172.7817 769.2549,-172.7817 769.2549,-172.7817 775.2549,-172.7817 781.2549,-178.7817 781.2549,-184.7817 781.2549,-184.7817 781.2549,-3008.7817 781.2549,-3008.7817 781.2549,-3014.7817 775.2549,-3020.7817 769.2549,-3020.7817 769.2549,-3020.7817 181.1275,-3020.7817 181.1275,-3020.7817 175.1275,-3020.7817 169.1275,-3014.7817 169.1275,-3008.7817 169.1275,-3008.7817 169.1275,-184.7817 169.1275,-184.7817 169.1275,-178.7817 175.1275,-172.7817 181.1275,-172.7817"/>
<text text-anchor="middle" x="475.1912" y="-3007.9817" font-family="Times,serif" font-size="11.00" fill="#c0c0c0">SolrSearch</text>
</g>
<g id="clust11" class="cluster">
<title>cluster_\Firesphere\SolrSearch\States</title>
<path fill="none" stroke="#c0c0c0" d="M634.7549,-2920.7817C634.7549,-2920.7817 710.7549,-2920.7817 710.7549,-2920.7817 716.7549,-2920.7817 722.7549,-2926.7817 722.7549,-2932.7817 722.7549,-2932.7817 722.7549,-2980.7817 722.7549,-2980.7817 722.7549,-2986.7817 716.7549,-2992.7817 710.7549,-2992.7817 710.7549,-2992.7817 634.7549,-2992.7817 634.7549,-2992.7817 628.7549,-2992.7817 622.7549,-2986.7817 622.7549,-2980.7817 622.7549,-2980.7817 622.7549,-2932.7817 622.7549,-2932.7817 622.7549,-2926.7817 628.7549,-2920.7817 634.7549,-2920.7817"/>
<text text-anchor="middle" x="672.7549" y="-2979.9817" font-family="Times,serif" font-size="11.00" fill="#c0c0c0">States</text>
</g>
<g id="clust12" class="cluster">
<title>cluster_\Firesphere\SolrSearch\Tasks</title>
<path fill="none" stroke="#c0c0c0" d="M597.7549,-2598.7817C597.7549,-2598.7817 747.7549,-2598.7817 747.7549,-2598.7817 753.7549,-2598.7817 759.7549,-2604.7817 759.7549,-2610.7817 759.7549,-2610.7817 759.7549,-2820.7817 759.7549,-2820.7817 759.7549,-2826.7817 753.7549,-2832.7817 747.7549,-2832.7817 747.7549,-2832.7817 597.7549,-2832.7817 597.7549,-2832.7817 591.7549,-2832.7817 585.7549,-2826.7817 585.7549,-2820.7817 585.7549,-2820.7817 585.7549,-2610.7817 585.7549,-2610.7817 585.7549,-2604.7817 591.7549,-2598.7817 597.7549,-2598.7817"/>
<text text-anchor="middle" x="672.7549" y="-2819.9817" font-family="Times,serif" font-size="11.00" fill="#c0c0c0">Tasks</text>
</g>
<g id="clust13" class="cluster">
<title>cluster_\Firesphere\SolrSearch\Results</title>
<path fill="none" stroke="#c0c0c0" d="M627.7549,-2840.7817C627.7549,-2840.7817 717.7549,-2840.7817 717.7549,-2840.7817 723.7549,-2840.7817 729.7549,-2846.7817 729.7549,-2852.7817 729.7549,-2852.7817 729.7549,-2900.7817 729.7549,-2900.7817 729.7549,-2906.7817 723.7549,-2912.7817 717.7549,-2912.7817 717.7549,-2912.7817 627.7549,-2912.7817 627.7549,-2912.7817 621.7549,-2912.7817 615.7549,-2906.7817 615.7549,-2900.7817 615.7549,-2900.7817 615.7549,-2852.7817 615.7549,-2852.7817 615.7549,-2846.7817 621.7549,-2840.7817 627.7549,-2840.7817"/>
<text text-anchor="middle" x="672.7549" y="-2899.9817" font-family="Times,serif" font-size="11.00" fill="#c0c0c0">Results</text>
</g>
<g id="clust14" class="cluster">
<title>cluster_\Firesphere\SolrSearch\Indexes</title>
<path fill="none" stroke="#c0c0c0" d="M634.7549,-2518.7817C634.7549,-2518.7817 710.7549,-2518.7817 710.7549,-2518.7817 716.7549,-2518.7817 722.7549,-2524.7817 722.7549,-2530.7817 722.7549,-2530.7817 722.7549,-2578.7817 722.7549,-2578.7817 722.7549,-2584.7817 716.7549,-2590.7817 710.7549,-2590.7817 710.7549,-2590.7817 634.7549,-2590.7817 634.7549,-2590.7817 628.7549,-2590.7817 622.7549,-2584.7817 622.7549,-2578.7817 622.7549,-2578.7817 622.7549,-2530.7817 622.7549,-2530.7817 622.7549,-2524.7817 628.7549,-2518.7817 634.7549,-2518.7817"/>
<text text-anchor="middle" x="672.7549" y="-2577.9817" font-family="Times,serif" font-size="11.00" fill="#c0c0c0">Indexes</text>
</g>
<g id="clust15" class="cluster">
<title>cluster_\Firesphere\SolrSearch\Stores</title>
<path fill="none" stroke="#c0c0c0" d="M617.7549,-2384.7817C617.7549,-2384.7817 727.7549,-2384.7817 727.7549,-2384.7817 733.7549,-2384.7817 739.7549,-2390.7817 739.7549,-2396.7817 739.7549,-2396.7817 739.7549,-2498.7817 739.7549,-2498.7817 739.7549,-2504.7817 733.7549,-2510.7817 727.7549,-2510.7817 727.7549,-2510.7817 617.7549,-2510.7817 617.7549,-2510.7817 611.7549,-2510.7817 605.7549,-2504.7817 605.7549,-2498.7817 605.7549,-2498.7817 605.7549,-2396.7817 605.7549,-2396.7817 605.7549,-2390.7817 611.7549,-2384.7817 617.7549,-2384.7817"/>
<text text-anchor="middle" x="672.7549" y="-2497.9817" font-family="Times,serif" font-size="11.00" fill="#c0c0c0">Stores</text>
</g>
<g id="clust16" class="cluster">
<title>cluster_\Firesphere\SolrSearch\Queries</title>
<path fill="none" stroke="#c0c0c0" d="M638.2549,-2304.7817C638.2549,-2304.7817 707.2549,-2304.7817 707.2549,-2304.7817 713.2549,-2304.7817 719.2549,-2310.7817 719.2549,-2316.7817 719.2549,-2316.7817 719.2549,-2364.7817 719.2549,-2364.7817 719.2549,-2370.7817 713.2549,-2376.7817 707.2549,-2376.7817 707.2549,-2376.7817 638.2549,-2376.7817 638.2549,-2376.7817 632.2549,-2376.7817 626.2549,-2370.7817 626.2549,-2364.7817 626.2549,-2364.7817 626.2549,-2316.7817 626.2549,-2316.7817 626.2549,-2310.7817 632.2549,-2304.7817 638.2549,-2304.7817"/>
<text text-anchor="middle" x="672.7549" y="-2363.9817" font-family="Times,serif" font-size="11.00" fill="#c0c0c0">Queries</text>
</g>
<g id="clust17" class="cluster">
<title>cluster_\Firesphere\SolrSearch\Extensions</title>
<path fill="none" stroke="#c0c0c0" d="M604.2549,-1982.7817C604.2549,-1982.7817 741.2549,-1982.7817 741.2549,-1982.7817 747.2549,-1982.7817 753.2549,-1988.7817 753.2549,-1994.7817 753.2549,-1994.7817 753.2549,-2096.7817 753.2549,-2096.7817 753.2549,-2102.7817 747.2549,-2108.7817 741.2549,-2108.7817 741.2549,-2108.7817 604.2549,-2108.7817 604.2549,-2108.7817 598.2549,-2108.7817 592.2549,-2102.7817 592.2549,-2096.7817 592.2549,-2096.7817 592.2549,-1994.7817 592.2549,-1994.7817 592.2549,-1988.7817 598.2549,-1982.7817 604.2549,-1982.7817"/>
<text text-anchor="middle" x="672.7549" y="-2095.9817" font-family="Times,serif" font-size="11.00" fill="#c0c0c0">Extensions</text>
</g>
<g id="clust18" class="cluster">
<title>cluster_\Firesphere\SolrSearch\Models</title>
<path fill="none" stroke="#c0c0c0" d="M624.7549,-2116.7817C624.7549,-2116.7817 720.7549,-2116.7817 720.7549,-2116.7817 726.7549,-2116.7817 732.7549,-2122.7817 732.7549,-2128.7817 732.7549,-2128.7817 732.7549,-2284.7817 732.7549,-2284.7817 732.7549,-2290.7817 726.7549,-2296.7817 720.7549,-2296.7817 720.7549,-2296.7817 624.7549,-2296.7817 624.7549,-2296.7817 618.7549,-2296.7817 612.7549,-2290.7817 612.7549,-2284.7817 612.7549,-2284.7817 612.7549,-2128.7817 612.7549,-2128.7817 612.7549,-2122.7817 618.7549,-2116.7817 624.7549,-2116.7817"/>
<text text-anchor="middle" x="672.7549" y="-2283.9817" font-family="Times,serif" font-size="11.00" fill="#c0c0c0">Models</text>
</g>
<g id="clust19" class="cluster">
<title>cluster_\Firesphere\SolrSearch\Helpers</title>
<path fill="none" stroke="#c0c0c0" d="M624.7549,-1686.7817C624.7549,-1686.7817 720.7549,-1686.7817 720.7549,-1686.7817 726.7549,-1686.7817 732.7549,-1692.7817 732.7549,-1698.7817 732.7549,-1698.7817 732.7549,-1962.7817 732.7549,-1962.7817 732.7549,-1968.7817 726.7549,-1974.7817 720.7549,-1974.7817 720.7549,-1974.7817 624.7549,-1974.7817 624.7549,-1974.7817 618.7549,-1974.7817 612.7549,-1968.7817 612.7549,-1962.7817 612.7549,-1962.7817 612.7549,-1698.7817 612.7549,-1698.7817 612.7549,-1692.7817 618.7549,-1686.7817 624.7549,-1686.7817"/>
<text text-anchor="middle" x="672.7549" y="-1961.9817" font-family="Times,serif" font-size="11.00" fill="#c0c0c0">Helpers</text>
</g>
<g id="clust20" class="cluster">
<title>cluster_\Firesphere\SolrSearch\Factories</title>
<path fill="none" stroke="#c0c0c0" d="M597.7549,-1498.7817C597.7549,-1498.7817 747.7549,-1498.7817 747.7549,-1498.7817 753.7549,-1498.7817 759.7549,-1504.7817 759.7549,-1510.7817 759.7549,-1510.7817 759.7549,-1666.7817 759.7549,-1666.7817 759.7549,-1672.7817 753.7549,-1678.7817 747.7549,-1678.7817 747.7549,-1678.7817 597.7549,-1678.7817 597.7549,-1678.7817 591.7549,-1678.7817 585.7549,-1672.7817 585.7549,-1666.7817 585.7549,-1666.7817 585.7549,-1510.7817 585.7549,-1510.7817 585.7549,-1504.7817 591.7549,-1498.7817 597.7549,-1498.7817"/>
<text text-anchor="middle" x="672.7549" y="-1665.9817" font-family="Times,serif" font-size="11.00" fill="#c0c0c0">Factories</text>
</g>
<g id="clust21" class="cluster">
<title>cluster_\Firesphere\SolrSearch\Jobs</title>
<path fill="none" stroke="#c0c0c0" d="M600.7549,-1310.7817C600.7549,-1310.7817 744.7549,-1310.7817 744.7549,-1310.7817 750.7549,-1310.7817 756.7549,-1316.7817 756.7549,-1322.7817 756.7549,-1322.7817 756.7549,-1478.7817 756.7549,-1478.7817 756.7549,-1484.7817 750.7549,-1490.7817 744.7549,-1490.7817 744.7549,-1490.7817 600.7549,-1490.7817 600.7549,-1490.7817 594.7549,-1490.7817 588.7549,-1484.7817 588.7549,-1478.7817 588.7549,-1478.7817 588.7549,-1322.7817 588.7549,-1322.7817 588.7549,-1316.7817 594.7549,-1310.7817 600.7549,-1310.7817"/>
<text text-anchor="middle" x="672.7549" y="-1477.9817" font-family="Times,serif" font-size="11.00" fill="#c0c0c0">Jobs</text>
</g>
<g id="clust22" class="cluster">
<title>cluster_\Firesphere\SolrSearch\Services</title>
<path fill="none" stroke="#c0c0c0" d="M617.7549,-1230.7817C617.7549,-1230.7817 727.7549,-1230.7817 727.7549,-1230.7817 733.7549,-1230.7817 739.7549,-1236.7817 739.7549,-1242.7817 739.7549,-1242.7817 739.7549,-1290.7817 739.7549,-1290.7817 739.7549,-1296.7817 733.7549,-1302.7817 727.7549,-1302.7817 727.7549,-1302.7817 617.7549,-1302.7817 617.7549,-1302.7817 611.7549,-1302.7817 605.7549,-1296.7817 605.7549,-1290.7817 605.7549,-1290.7817 605.7549,-1242.7817 605.7549,-1242.7817 605.7549,-1236.7817 611.7549,-1230.7817 617.7549,-1230.7817"/>
<text text-anchor="middle" x="672.7549" y="-1289.9817" font-family="Times,serif" font-size="11.00" fill="#c0c0c0">Services</text>
</g>
<g id="clust23" class="cluster">
<title>cluster_\Firesphere\SolrSearch\Admins</title>
<path fill="none" stroke="#c0c0c0" d="M631.2549,-1150.7817C631.2549,-1150.7817 714.2549,-1150.7817 714.2549,-1150.7817 720.2549,-1150.7817 726.2549,-1156.7817 726.2549,-1162.7817 726.2549,-1162.7817 726.2549,-1210.7817 726.2549,-1210.7817 726.2549,-1216.7817 720.2549,-1222.7817 714.2549,-1222.7817 714.2549,-1222.7817 631.2549,-1222.7817 631.2549,-1222.7817 625.2549,-1222.7817 619.2549,-1216.7817 619.2549,-1210.7817 619.2549,-1210.7817 619.2549,-1162.7817 619.2549,-1162.7817 619.2549,-1156.7817 625.2549,-1150.7817 631.2549,-1150.7817"/>
<text text-anchor="middle" x="672.7549" y="-1209.9817" font-family="Times,serif" font-size="11.00" fill="#c0c0c0">Admins</text>
</g>
<g id="clust24" class="cluster">
<title>cluster_\Firesphere\SolrSearch\Forms</title>
<path fill="none" stroke="#c0c0c0" d="M634.7549,-1070.7817C634.7549,-1070.7817 710.7549,-1070.7817 710.7549,-1070.7817 716.7549,-1070.7817 722.7549,-1076.7817 722.7549,-1082.7817 722.7549,-1082.7817 722.7549,-1130.7817 722.7549,-1130.7817 722.7549,-1136.7817 716.7549,-1142.7817 710.7549,-1142.7817 710.7549,-1142.7817 634.7549,-1142.7817 634.7549,-1142.7817 628.7549,-1142.7817 622.7549,-1136.7817 622.7549,-1130.7817 622.7549,-1130.7817 622.7549,-1082.7817 622.7549,-1082.7817 622.7549,-1076.7817 628.7549,-1070.7817 634.7549,-1070.7817"/>
<text text-anchor="middle" x="672.7549" y="-1129.9817" font-family="Times,serif" font-size="11.00" fill="#c0c0c0">Forms</text>
</g>
<g id="clust25" class="cluster">
<title>cluster_\Firesphere\SolrSearch\Interfaces</title>
<path fill="none" stroke="#c0c0c0" d="M189.1275,-2330.7817C189.1275,-2330.7817 319.1275,-2330.7817 319.1275,-2330.7817 325.1275,-2330.7817 331.1275,-2336.7817 331.1275,-2342.7817 331.1275,-2342.7817 331.1275,-2444.7817 331.1275,-2444.7817 331.1275,-2450.7817 325.1275,-2456.7817 319.1275,-2456.7817 319.1275,-2456.7817 189.1275,-2456.7817 189.1275,-2456.7817 183.1275,-2456.7817 177.1275,-2450.7817 177.1275,-2444.7817 177.1275,-2444.7817 177.1275,-2342.7817 177.1275,-2342.7817 177.1275,-2336.7817 183.1275,-2330.7817 189.1275,-2330.7817"/>
<text text-anchor="middle" x="254.1275" y="-2443.9817" font-family="Times,serif" font-size="11.00" fill="#c0c0c0">Interfaces</text>
</g>
<g id="clust26" class="cluster">
<title>cluster_\Firesphere\SolrSearch\Traits</title>
<path fill="none" stroke="#c0c0c0" d="M584.2549,-180.7817C584.2549,-180.7817 761.2549,-180.7817 761.2549,-180.7817 767.2549,-180.7817 773.2549,-186.7817 773.2549,-192.7817 773.2549,-192.7817 773.2549,-1050.7817 773.2549,-1050.7817 773.2549,-1056.7817 767.2549,-1062.7817 761.2549,-1062.7817 761.2549,-1062.7817 584.2549,-1062.7817 584.2549,-1062.7817 578.2549,-1062.7817 572.2549,-1056.7817 572.2549,-1050.7817 572.2549,-1050.7817 572.2549,-192.7817 572.2549,-192.7817 572.2549,-186.7817 578.2549,-180.7817 584.2549,-180.7817"/>
<text text-anchor="middle" x="672.7549" y="-1049.9817" font-family="Times,serif" font-size="11.00" fill="#c0c0c0">Traits</text>
</g>
<g id="clust27" class="cluster">
<title>cluster_\Firesphere\SolrFluent</title>
<path fill="none" stroke="#c0c0c0" d="M836.7549,-616.7817C836.7549,-616.7817 1016.7549,-616.7817 1016.7549,-616.7817 1022.7549,-616.7817 1028.7549,-622.7817 1028.7549,-628.7817 1028.7549,-628.7817 1028.7549,-900.7817 1028.7549,-900.7817 1028.7549,-906.7817 1022.7549,-912.7817 1016.7549,-912.7817 1016.7549,-912.7817 836.7549,-912.7817 836.7549,-912.7817 830.7549,-912.7817 824.7549,-906.7817 824.7549,-900.7817 824.7549,-900.7817 824.7549,-628.7817 824.7549,-628.7817 824.7549,-622.7817 830.7549,-616.7817 836.7549,-616.7817"/>
<text text-anchor="middle" x="926.7549" y="-899.9817" font-family="Times,serif" font-size="11.00" fill="#c0c0c0">SolrFluent</text>
</g>
<g id="clust28" class="cluster">
<title>cluster_\Firesphere\SolrFluent\States</title>
<path fill="none" stroke="#c0c0c0" d="M871.7549,-812.7817C871.7549,-812.7817 981.7549,-812.7817 981.7549,-812.7817 987.7549,-812.7817 993.7549,-818.7817 993.7549,-824.7817 993.7549,-824.7817 993.7549,-872.7817 993.7549,-872.7817 993.7549,-878.7817 987.7549,-884.7817 981.7549,-884.7817 981.7549,-884.7817 871.7549,-884.7817 871.7549,-884.7817 865.7549,-884.7817 859.7549,-878.7817 859.7549,-872.7817 859.7549,-872.7817 859.7549,-824.7817 859.7549,-824.7817 859.7549,-818.7817 865.7549,-812.7817 871.7549,-812.7817"/>
<text text-anchor="middle" x="926.7549" y="-871.9817" font-family="Times,serif" font-size="11.00" fill="#c0c0c0">States</text>
</g>
<g id="clust29" class="cluster">
<title>cluster_\Firesphere\SolrFluent\Extensions</title>
<path fill="none" stroke="#c0c0c0" d="M844.7549,-624.7817C844.7549,-624.7817 1008.7549,-624.7817 1008.7549,-624.7817 1014.7549,-624.7817 1020.7549,-630.7817 1020.7549,-636.7817 1020.7549,-636.7817 1020.7549,-792.7817 1020.7549,-792.7817 1020.7549,-798.7817 1014.7549,-804.7817 1008.7549,-804.7817 1008.7549,-804.7817 844.7549,-804.7817 844.7549,-804.7817 838.7549,-804.7817 832.7549,-798.7817 832.7549,-792.7817 832.7549,-792.7817 832.7549,-636.7817 832.7549,-636.7817 832.7549,-630.7817 838.7549,-624.7817 844.7549,-624.7817"/>
<text text-anchor="middle" x="926.7549" y="-791.9817" font-family="Times,serif" font-size="11.00" fill="#c0c0c0">Extensions</text>
</g>
<g id="clust30" class="cluster">
<title>cluster_\Firesphere\SolrSubsites</title>
<path fill="none" stroke="#c0c0c0" d="M857.2549,-920.7817C857.2549,-920.7817 996.2549,-920.7817 996.2549,-920.7817 1002.2549,-920.7817 1008.2549,-926.7817 1008.2549,-932.7817 1008.2549,-932.7817 1008.2549,-1096.7817 1008.2549,-1096.7817 1008.2549,-1102.7817 1002.2549,-1108.7817 996.2549,-1108.7817 996.2549,-1108.7817 857.2549,-1108.7817 857.2549,-1108.7817 851.2549,-1108.7817 845.2549,-1102.7817 845.2549,-1096.7817 845.2549,-1096.7817 845.2549,-932.7817 845.2549,-932.7817 845.2549,-926.7817 851.2549,-920.7817 857.2549,-920.7817"/>
<text text-anchor="middle" x="926.7549" y="-1095.9817" font-family="Times,serif" font-size="11.00" fill="#c0c0c0">SolrSubsites</text>
</g>
<g id="clust31" class="cluster">
<title>cluster_\Firesphere\SolrSubsites\States</title>
<path fill="none" stroke="#c0c0c0" d="M881.7549,-1008.7817C881.7549,-1008.7817 971.7549,-1008.7817 971.7549,-1008.7817 977.7549,-1008.7817 983.7549,-1014.7817 983.7549,-1020.7817 983.7549,-1020.7817 983.7549,-1068.7817 983.7549,-1068.7817 983.7549,-1074.7817 977.7549,-1080.7817 971.7549,-1080.7817 971.7549,-1080.7817 881.7549,-1080.7817 881.7549,-1080.7817 875.7549,-1080.7817 869.7549,-1074.7817 869.7549,-1068.7817 869.7549,-1068.7817 869.7549,-1020.7817 869.7549,-1020.7817 869.7549,-1014.7817 875.7549,-1008.7817 881.7549,-1008.7817"/>
<text text-anchor="middle" x="926.7549" y="-1067.9817" font-family="Times,serif" font-size="11.00" fill="#c0c0c0">States</text>
</g>
<g id="clust32" class="cluster">
<title>cluster_\Firesphere\SolrSubsites\Extensions</title>
<path fill="none" stroke="#c0c0c0" d="M865.2549,-928.7817C865.2549,-928.7817 988.2549,-928.7817 988.2549,-928.7817 994.2549,-928.7817 1000.2549,-934.7817 1000.2549,-940.7817 1000.2549,-940.7817 1000.2549,-988.7817 1000.2549,-988.7817 1000.2549,-994.7817 994.2549,-1000.7817 988.2549,-1000.7817 988.2549,-1000.7817 865.2549,-1000.7817 865.2549,-1000.7817 859.2549,-1000.7817 853.2549,-994.7817 853.2549,-988.7817 853.2549,-988.7817 853.2549,-940.7817 853.2549,-940.7817 853.2549,-934.7817 859.2549,-928.7817 865.2549,-928.7817"/>
<text text-anchor="middle" x="926.7549" y="-987.9817" font-family="Times,serif" font-size="11.00" fill="#c0c0c0">Extensions</text>
</g>
<g id="clust33" class="cluster">
<title>cluster_\Firesphere\SolrPermissions</title>
<path fill="none" stroke="#c0c0c0" d="M833.2549,-338.7817C833.2549,-338.7817 1020.2549,-338.7817 1020.2549,-338.7817 1026.2549,-338.7817 1032.2549,-344.7817 1032.2549,-350.7817 1032.2549,-350.7817 1032.2549,-596.7817 1032.2549,-596.7817 1032.2549,-602.7817 1026.2549,-608.7817 1020.2549,-608.7817 1020.2549,-608.7817 833.2549,-608.7817 833.2549,-608.7817 827.2549,-608.7817 821.2549,-602.7817 821.2549,-596.7817 821.2549,-596.7817 821.2549,-350.7817 821.2549,-350.7817 821.2549,-344.7817 827.2549,-338.7817 833.2549,-338.7817"/>
<text text-anchor="middle" x="926.7549" y="-595.9817" font-family="Times,serif" font-size="11.00" fill="#c0c0c0">SolrPermissions</text>
</g>
<g id="clust34" class="cluster">
<title>cluster_\Firesphere\SolrPermissions\Extensions</title>
<path fill="none" stroke="#c0c0c0" d="M841.2549,-346.7817C841.2549,-346.7817 1012.2549,-346.7817 1012.2549,-346.7817 1018.2549,-346.7817 1024.2549,-352.7817 1024.2549,-358.7817 1024.2549,-358.7817 1024.2549,-568.7817 1024.2549,-568.7817 1024.2549,-574.7817 1018.2549,-580.7817 1012.2549,-580.7817 1012.2549,-580.7817 841.2549,-580.7817 841.2549,-580.7817 835.2549,-580.7817 829.2549,-574.7817 829.2549,-568.7817 829.2549,-568.7817 829.2549,-358.7817 829.2549,-358.7817 829.2549,-352.7817 835.2549,-346.7817 841.2549,-346.7817"/>
<text text-anchor="middle" x="926.7549" y="-567.9817" font-family="Times,serif" font-size="11.00" fill="#c0c0c0">Extensions</text>
</g>
<!-- \\SilverStripe\\FullTextSearch\\Search\\Queries\\SearchQuery -->
<g id="node1" class="node">
<title>\\SilverStripe\\FullTextSearch\\Search\\Queries\\SearchQuery</title>
<polygon fill="none" stroke="#000000" points="972.2549,-3258.7817 881.2549,-3258.7817 881.2549,-3222.7817 972.2549,-3222.7817 972.2549,-3258.7817"/>
<text text-anchor="middle" x="926.7549" y="-3237.9817" font-family="Courier,monospace" font-size="11.00" fill="#000000">SearchQuery</text>
</g>
<!-- \\Firesphere\\SolrSearch\\Queries\\BaseQuery -->
<g id="node15" class="node">
<title>\\Firesphere\\SolrSearch\\Queries\\BaseQuery</title>
<polygon fill="none" stroke="#000000" points="711.2549,-2348.7817 634.2549,-2348.7817 634.2549,-2312.7817 711.2549,-2312.7817 711.2549,-2348.7817"/>
<text text-anchor="middle" x="672.7549" y="-2327.9817" font-family="Courier,monospace" font-size="11.00" fill="#000000">BaseQuery</text>
</g>
<!-- \\SilverStripe\\FullTextSearch\\Search\\Queries\\SearchQuery&#45;&gt;\\Firesphere\\SolrSearch\\Queries\\BaseQuery -->
<g id="edge1" class="edge">
<title>\\SilverStripe\\FullTextSearch\\Search\\Queries\\SearchQuery&#45;&gt;\\Firesphere\\SolrSearch\\Queries\\BaseQuery</title>
<path fill="none" stroke="#000000" d="M881.0986,-3235.9651C859.3971,-3231.1664 835.205,-3221.642 821.2549,-3202.7817 712.501,-3055.7487 883.5802,-2532.3589 781.2549,-2380.7817 767.507,-2360.4165 743.2475,-2348.1923 721.1494,-2340.9356"/>
<polygon fill="none" stroke="#000000" points="722.1069,-2337.5688 711.5222,-2338.0301 720.0844,-2344.2702 722.1069,-2337.5688"/>
</g>
<!-- \\SilverStripe\\FullTextSearch\\Solr\\Solr -->
<g id="node2" class="node">
<title>\\SilverStripe\\FullTextSearch\\Solr\\Solr</title>
<polygon fill="none" stroke="#000000" points="953.7549,-3170.7817 899.7549,-3170.7817 899.7549,-3134.7817 953.7549,-3134.7817 953.7549,-3170.7817"/>
<text text-anchor="middle" x="926.7549" y="-3149.9817" font-family="Courier,monospace" font-size="11.00" fill="#000000">Solr</text>
</g>
<!-- \\SilverStripe\\FullTextSearch\\Solr\\SolrIndex -->
<g id="node3" class="node">
<title>\\SilverStripe\\FullTextSearch\\Solr\\SolrIndex</title>
<polygon fill="none" stroke="#000000" points="968.7549,-3116.7817 884.7549,-3116.7817 884.7549,-3080.7817 968.7549,-3080.7817 968.7549,-3116.7817"/>
<text text-anchor="start" x="892.7549" y="-3101.9817" font-family="Courier,monospace" font-size="11.00" fill="#000000">«abstract»</text>
<text text-anchor="start" x="896.2549" y="-3089.9817" font-family="Courier,monospace" font-size="11.00" fill="#000000">SolrIndex</text>
</g>
<!-- \\Firesphere\\SolrSearch\\Indexes\\BaseIndex -->
<g id="node12" class="node">
<title>\\Firesphere\\SolrSearch\\Indexes\\BaseIndex</title>
<polygon fill="none" stroke="#000000" points="714.7549,-2562.7817 630.7549,-2562.7817 630.7549,-2526.7817 714.7549,-2526.7817 714.7549,-2562.7817"/>
<text text-anchor="start" x="638.7549" y="-2547.9817" font-family="Courier,monospace" font-size="11.00" fill="#000000">«abstract»</text>
<text text-anchor="start" x="642.2549" y="-2535.9817" font-family="Courier,monospace" font-size="11.00" fill="#000000">BaseIndex</text>
</g>
<!-- \\SilverStripe\\FullTextSearch\\Solr\\SolrIndex&#45;&gt;\\Firesphere\\SolrSearch\\Indexes\\BaseIndex -->
<g id="edge4" class="edge">
<title>\\SilverStripe\\FullTextSearch\\Solr\\SolrIndex&#45;&gt;\\Firesphere\\SolrSearch\\Indexes\\BaseIndex</title>
<path fill="none" stroke="#000000" d="M923.6196,-3080.7514C909.2757,-2999.9951 847.7441,-2672.1354 781.2549,-2594.7817 766.4907,-2577.605 744.5788,-2565.9843 724.304,-2558.305"/>
<polygon fill="none" stroke="#000000" points="725.424,-2554.9887 714.8293,-2554.9466 723.0854,-2561.5865 725.424,-2554.9887"/>
</g>
<!-- \\Firesphere\\SolrCompatibility\\Extensions\\FulltextSearchExtension -->
<g id="node4" class="node">
<title>\\Firesphere\\SolrCompatibility\\Extensions\\FulltextSearchExtension</title>
<polygon fill="none" stroke="#000000" points="1012.7549,-220.7817 840.7549,-220.7817 840.7549,-184.7817 1012.7549,-184.7817 1012.7549,-220.7817"/>
<text text-anchor="middle" x="926.7549" y="-199.9817" font-family="Courier,monospace" font-size="11.00" fill="#000000">FulltextSearchExtension</text>
</g>
<!-- \\SilverStripe\\Core\\Extension -->
<g id="node63" class="node">
<title>\\SilverStripe\\Core\\Extension</title>
<ellipse fill="none" stroke="#000000" cx="254.1275" cy="-18.7817" rx="144.0747" ry="18"/>
<text text-anchor="middle" x="254.1275" y="-15.0817" font-family="Times,serif" font-size="14.00" fill="#c0c0c0">\SilverStripe\Core\Extension</text>
</g>
<!-- \\Firesphere\\SolrCompatibility\\Extensions\\FulltextSearchExtension&#45;&gt;\\SilverStripe\\Core\\Extension -->
<g id="edge2" class="edge">
<title>\\Firesphere\\SolrCompatibility\\Extensions\\FulltextSearchExtension&#45;&gt;\\SilverStripe\\Core\\Extension</title>
<path fill="none" stroke="#000000" d="M897.7118,-184.6756C869.069,-167.5375 823.5604,-142.2016 781.2549,-126.7817 734.8533,-109.8688 712.9958,-131.4145 672.7549,-102.7817"/>
<path fill="none" stroke="#000000" d="M672.7549,-102.7817C596.3562,-48.4214 493.2511,-27.2729 408.4834,-19.7873"/>
<polygon fill="none" stroke="#000000" points="408.7583,-16.2982 398.5036,-18.9612 408.1807,-23.2743 408.7583,-16.2982"/>
</g>
<!-- \\Firesphere\\SolrCompatibility\\Extensions\\SolrCoreServiceExtension -->
<g id="node5" class="node">
<title>\\Firesphere\\SolrCompatibility\\Extensions\\SolrCoreServiceExtension</title>
<polygon fill="none" stroke="#000000" points="1016.2549,-274.7817 837.2549,-274.7817 837.2549,-238.7817 1016.2549,-238.7817 1016.2549,-274.7817"/>
<text text-anchor="middle" x="926.7549" y="-253.9817" font-family="Courier,monospace" font-size="11.00" fill="#000000">SolrCoreServiceExtension</text>
</g>
<!-- \\Firesphere\\SolrCompatibility\\Extensions\\SolrCoreServiceExtension&#45;&gt;\\SilverStripe\\Core\\Extension -->
<g id="edge3" class="edge">
<title>\\Firesphere\\SolrCompatibility\\Extensions\\SolrCoreServiceExtension&#45;&gt;\\SilverStripe\\Core\\Extension</title>
<path fill="none" stroke="#000000" d="M837.1938,-240.7058C831.4573,-237.655 826.0644,-234.0466 821.2549,-229.7817 784.5121,-197.1991 818.5279,-158.7563 781.2549,-126.7817 743.7699,-94.6252 712.9958,-131.4145 672.7549,-102.7817"/>
</g>
<!-- \\Firesphere\\SolrSearch\\States\\SiteState -->
<g id="node6" class="node">
<title>\\Firesphere\\SolrSearch\\States\\SiteState</title>
<polygon fill="none" stroke="#000000" points="714.7549,-2964.7817 630.7549,-2964.7817 630.7549,-2928.7817 714.7549,-2928.7817 714.7549,-2964.7817"/>
<text text-anchor="start" x="638.7549" y="-2949.9817" font-family="Courier,monospace" font-size="11.00" fill="#000000">«abstract»</text>
<text text-anchor="start" x="642.2549" y="-2937.9817" font-family="Courier,monospace" font-size="11.00" fill="#000000">SiteState</text>
</g>
<!-- \\Firesphere\\SolrSearch\\Tasks\\SolrConfigureTask -->
<g id="node7" class="node">
<title>\\Firesphere\\SolrSearch\\Tasks\\SolrConfigureTask</title>
<polygon fill="none" stroke="#000000" points="738.2549,-2804.7817 607.2549,-2804.7817 607.2549,-2768.7817 738.2549,-2768.7817 738.2549,-2804.7817"/>
<text text-anchor="middle" x="672.7549" y="-2783.9817" font-family="Courier,monospace" font-size="11.00" fill="#000000">SolrConfigureTask</text>
</g>
<!-- \\SilverStripe\\Dev\\BuildTask -->
<g id="node64" class="node">
<title>\\SilverStripe\\Dev\\BuildTask</title>
<ellipse fill="none" stroke="#000000" cx="254.1275" cy="-126.7817" rx="139.9756" ry="18"/>
<text text-anchor="middle" x="254.1275" y="-123.0817" font-family="Times,serif" font-size="14.00" fill="#c0c0c0">\SilverStripe\Dev\BuildTask</text>
</g>
<!-- \\Firesphere\\SolrSearch\\Tasks\\SolrConfigureTask&#45;&gt;\\SilverStripe\\Dev\\BuildTask -->
<g id="edge5" class="edge">
<title>\\Firesphere\\SolrSearch\\Tasks\\SolrConfigureTask&#45;&gt;\\SilverStripe\\Dev\\BuildTask</title>
<path fill="none" stroke="#000000" d="M607.1684,-2780.9759C593.926,-2776.8368 581.3087,-2770.2243 572.2549,-2759.7817 549.6056,-2733.6583 289.1952,-436.8233 257.3187,-155.0174"/>
<polygon fill="none" stroke="#000000" points="260.7663,-154.3553 256.1646,-144.812 253.8106,-155.142 260.7663,-154.3553"/>
</g>
<!-- \\Firesphere\\SolrSearch\\Tasks\\ClearErrorsTask -->
<g id="node8" class="node">
<title>\\Firesphere\\SolrSearch\\Tasks\\ClearErrorsTask</title>
<polygon fill="none" stroke="#000000" points="731.7549,-2750.7817 613.7549,-2750.7817 613.7549,-2714.7817 731.7549,-2714.7817 731.7549,-2750.7817"/>
<text text-anchor="middle" x="672.7549" y="-2729.9817" font-family="Courier,monospace" font-size="11.00" fill="#000000">ClearErrorsTask</text>
</g>
<!-- \\Firesphere\\SolrSearch\\Tasks\\ClearErrorsTask&#45;&gt;\\SilverStripe\\Dev\\BuildTask -->
<g id="edge6" class="edge">
<title>\\Firesphere\\SolrSearch\\Tasks\\ClearErrorsTask&#45;&gt;\\SilverStripe\\Dev\\BuildTask</title>
<path fill="none" stroke="#000000" d="M613.7164,-2728.7959C598.1641,-2724.8784 582.8033,-2717.9174 572.2549,-2705.7817 527.8536,-2654.6987 287.0151,-431.9003 257.1638,-154.9972"/>
<polygon fill="none" stroke="#000000" points="260.6326,-154.5184 256.0814,-144.9509 253.6729,-155.2684 260.6326,-154.5184"/>
</g>
<!-- \\Firesphere\\SolrSearch\\Tasks\\SolrIndexTask -->
<g id="node9" class="node">
<title>\\Firesphere\\SolrSearch\\Tasks\\SolrIndexTask</title>
<polygon fill="none" stroke="#000000" points="724.7549,-2696.7817 620.7549,-2696.7817 620.7549,-2660.7817 724.7549,-2660.7817 724.7549,-2696.7817"/>
<text text-anchor="middle" x="672.7549" y="-2675.9817" font-family="Courier,monospace" font-size="11.00" fill="#000000">SolrIndexTask</text>
</g>
<!-- \\Firesphere\\SolrSearch\\Tasks\\SolrIndexTask&#45;&gt;\\SilverStripe\\Dev\\BuildTask -->
<g id="edge7" class="edge">
<title>\\Firesphere\\SolrSearch\\Tasks\\SolrIndexTask&#45;&gt;\\SilverStripe\\Dev\\BuildTask</title>
<path fill="none" stroke="#000000" d="M620.5489,-2676.3073C602.776,-2672.7826 584.3621,-2665.6743 572.2549,-2651.7817 528.7482,-2601.859 287.6082,-429.9037 257.265,-155.2329"/>
<polygon fill="none" stroke="#000000" points="260.7022,-154.4707 256.1258,-144.9153 253.7445,-155.239 260.7022,-154.4707"/>
</g>
<!-- \\Firesphere\\SolrSearch\\Tasks\\ClearDirtyClassesTask -->
<g id="node10" class="node">
<title>\\Firesphere\\SolrSearch\\Tasks\\ClearDirtyClassesTask</title>
<polygon fill="none" stroke="#000000" points="751.7549,-2642.7817 593.7549,-2642.7817 593.7549,-2606.7817 751.7549,-2606.7817 751.7549,-2642.7817"/>
<text text-anchor="middle" x="672.7549" y="-2621.9817" font-family="Courier,monospace" font-size="11.00" fill="#000000">ClearDirtyClassesTask</text>
</g>
<!-- \\Firesphere\\SolrSearch\\Tasks\\ClearDirtyClassesTask&#45;&gt;\\SilverStripe\\Dev\\BuildTask -->
<g id="edge8" class="edge">
<title>\\Firesphere\\SolrSearch\\Tasks\\ClearDirtyClassesTask&#45;&gt;\\SilverStripe\\Dev\\BuildTask</title>
<path fill="none" stroke="#000000" d="M593.7123,-2611.2439C585.5777,-2607.0907 578.151,-2601.7189 572.2549,-2594.7817 488.4763,-2496.2102 282.9239,-421.023 256.8601,-154.8078"/>
<polygon fill="none" stroke="#000000" points="260.3373,-154.4022 255.8806,-144.7903 253.3705,-155.0835 260.3373,-154.4022"/>
</g>
<!-- \\Firesphere\\SolrSearch\\Results\\SearchResult -->
<g id="node11" class="node">
<title>\\Firesphere\\SolrSearch\\Results\\SearchResult</title>
<polygon fill="none" stroke="#000000" points="721.7549,-2884.7817 623.7549,-2884.7817 623.7549,-2848.7817 721.7549,-2848.7817 721.7549,-2884.7817"/>
<text text-anchor="middle" x="672.7549" y="-2863.9817" font-family="Courier,monospace" font-size="11.00" fill="#000000">SearchResult</text>
</g>
<!-- \\SilverStripe\\View\\ViewableData -->
<g id="node65" class="node">
<title>\\SilverStripe\\View\\ViewableData</title>
<ellipse fill="none" stroke="#000000" cx="254.1275" cy="-3640.7817" rx="163.2712" ry="18"/>
<text text-anchor="middle" x="254.1275" y="-3637.0817" font-family="Times,serif" font-size="14.00" fill="#c0c0c0">\SilverStripe\View\ViewableData</text>
</g>
<!-- \\Firesphere\\SolrSearch\\Results\\SearchResult&#45;&gt;\\SilverStripe\\View\\ViewableData -->
<g id="edge9" class="edge">
<title>\\Firesphere\\SolrSearch\\Results\\SearchResult&#45;&gt;\\SilverStripe\\View\\ViewableData</title>
<path fill="none" stroke="#000000" d="M623.5306,-2879.8648C604.4397,-2887.4811 584.3102,-2899.1738 572.2549,-2916.7817 484.3848,-3045.1238 617.4504,-3503.0153 508.2549,-3613.7817 467.0564,-3655.5729 400.5912,-3661.3871 345.9662,-3657.2448"/>
<polygon fill="none" stroke="#000000" points="346.1809,-3653.7503 335.913,-3656.3619 345.5684,-3660.7234 346.1809,-3653.7503"/>
</g>
<!-- \\Firesphere\\SolrSearch\\Stores\\FileConfigStore -->
<g id="node13" class="node">
<title>\\Firesphere\\SolrSearch\\Stores\\FileConfigStore</title>
<polygon fill="none" stroke="#000000" points="731.7549,-2482.7817 613.7549,-2482.7817 613.7549,-2446.7817 731.7549,-2446.7817 731.7549,-2482.7817"/>
<text text-anchor="middle" x="672.7549" y="-2461.9817" font-family="Courier,monospace" font-size="11.00" fill="#000000">FileConfigStore</text>
</g>
<!-- \\Firesphere\\SolrSearch\\Interfaces\\ConfigStore -->
<g id="node35" class="node">
<title>\\Firesphere\\SolrSearch\\Interfaces\\ConfigStore</title>
<polygon fill="none" stroke="#000000" points="299.6275,-2428.7817 208.6275,-2428.7817 208.6275,-2392.7817 299.6275,-2392.7817 299.6275,-2428.7817"/>
<text text-anchor="middle" x="254.1275" y="-2407.9817" font-family="Courier,monospace" font-size="11.00" fill="#000000">ConfigStore</text>
</g>
<!-- \\Firesphere\\SolrSearch\\Stores\\FileConfigStore&#45;&gt;\\Firesphere\\SolrSearch\\Interfaces\\ConfigStore -->
<g id="edge10" class="edge">
<title>\\Firesphere\\SolrSearch\\Stores\\FileConfigStore&#45;&gt;\\Firesphere\\SolrSearch\\Interfaces\\ConfigStore</title>
<path fill="none" stroke="#000000" stroke-dasharray="1,5" d="M613.6637,-2457.1593C532.8854,-2446.7395 389.0185,-2428.1817 309.9722,-2417.9853"/>
<polygon fill="none" stroke="#000000" points="310.0944,-2414.4721 299.7287,-2416.6639 309.1988,-2421.4146 310.0944,-2414.4721"/>
</g>
<!-- \\Firesphere\\SolrSearch\\Stores\\PostConfigStore -->
<g id="node14" class="node">
<title>\\Firesphere\\SolrSearch\\Stores\\PostConfigStore</title>
<polygon fill="none" stroke="#000000" points="731.7549,-2428.7817 613.7549,-2428.7817 613.7549,-2392.7817 731.7549,-2392.7817 731.7549,-2428.7817"/>
<text text-anchor="middle" x="672.7549" y="-2407.9817" font-family="Courier,monospace" font-size="11.00" fill="#000000">PostConfigStore</text>
</g>
<!-- \\Firesphere\\SolrSearch\\Stores\\PostConfigStore&#45;&gt;\\Firesphere\\SolrSearch\\Interfaces\\ConfigStore -->
<g id="edge11" class="edge">
<title>\\Firesphere\\SolrSearch\\Stores\\PostConfigStore&#45;&gt;\\Firesphere\\SolrSearch\\Interfaces\\ConfigStore</title>
<path fill="none" stroke="#000000" stroke-dasharray="1,5" d="M613.6637,-2410.7817C532.8854,-2410.7817 389.0185,-2410.7817 309.9722,-2410.7817"/>
<polygon fill="none" stroke="#000000" points="309.7288,-2407.2818 299.7287,-2410.7817 309.7287,-2414.2818 309.7288,-2407.2818"/>
</g>
<!-- \\Firesphere\\SolrSearch\\Extensions\\GridFieldExtension -->
<g id="node16" class="node">
<title>\\Firesphere\\SolrSearch\\Extensions\\GridFieldExtension</title>
<polygon fill="none" stroke="#000000" points="741.7549,-2026.7817 603.7549,-2026.7817 603.7549,-1990.7817 741.7549,-1990.7817 741.7549,-2026.7817"/>
<text text-anchor="middle" x="672.7549" y="-2005.9817" font-family="Courier,monospace" font-size="11.00" fill="#000000">GridFieldExtension</text>
</g>
<!-- \\Firesphere\\SolrSearch\\Extensions\\GridFieldExtension&#45;&gt;\\SilverStripe\\Core\\Extension -->
<g id="edge12" class="edge">
<title>\\Firesphere\\SolrSearch\\Extensions\\GridFieldExtension&#45;&gt;\\SilverStripe\\Core\\Extension</title>
<path fill="none" stroke="#000000" d="M603.527,-2000.4638C591.3958,-1995.8859 580.1497,-1989.0194 572.2549,-1978.7817 441.0252,-1808.6087 654.5822,-203.1615 508.2549,-45.7817 466.289,-.6459 395.0425,3.4567 338.6479,-2.2327"/>
<polygon fill="none" stroke="#000000" points="338.2058,1.2397 328.66,-3.3566 338.9887,-5.7164 338.2058,1.2397"/>
</g>
<!-- \\Firesphere\\SolrSearch\\Extensions\\DataObjectExtension -->
<g id="node17" class="node">
<title>\\Firesphere\\SolrSearch\\Extensions\\DataObjectExtension</title>
<polygon fill="none" stroke="#000000" points="745.2549,-2080.7817 600.2549,-2080.7817 600.2549,-2044.7817 745.2549,-2044.7817 745.2549,-2080.7817"/>
<text text-anchor="middle" x="672.7549" y="-2059.9817" font-family="Courier,monospace" font-size="11.00" fill="#000000">DataObjectExtension</text>
</g>
<!-- \\SilverStripe\\ORM\\DataExtension -->
<g id="node66" class="node">
<title>\\SilverStripe\\ORM\\DataExtension</title>
<ellipse fill="none" stroke="#000000" cx="254.1275" cy="-72.7817" rx="167.8704" ry="18"/>
<text text-anchor="middle" x="254.1275" y="-69.0817" font-family="Times,serif" font-size="14.00" fill="#c0c0c0">\SilverStripe\ORM\DataExtension</text>
</g>
<!-- \\Firesphere\\SolrSearch\\Extensions\\DataObjectExtension&#45;&gt;\\SilverStripe\\ORM\\DataExtension -->
<g id="edge13" class="edge">
<title>\\Firesphere\\SolrSearch\\Extensions\\DataObjectExtension&#45;&gt;\\SilverStripe\\ORM\\DataExtension</title>
<path fill="none" stroke="#000000" d="M600.0852,-2055.2859C589.3159,-2051.0563 579.4414,-2044.8398 572.2549,-2035.7817 438.4843,-1867.1733 654.805,-257.4092 508.2549,-99.7817 467.3724,-55.809 398.699,-50.7812 343.0408,-55.8119"/>
<polygon fill="none" stroke="#000000" points="342.4,-52.3592 332.8093,-56.8612 343.1142,-59.3226 342.4,-52.3592"/>
</g>
<!-- \\Firesphere\\SolrSearch\\Models\\SearchSynonym -->
<g id="node18" class="node">
<title>\\Firesphere\\SolrSearch\\Models\\SearchSynonym</title>
<polygon fill="none" stroke="#000000" points="724.7549,-2268.7817 620.7549,-2268.7817 620.7549,-2232.7817 724.7549,-2232.7817 724.7549,-2268.7817"/>
<text text-anchor="middle" x="672.7549" y="-2247.9817" font-family="Courier,monospace" font-size="11.00" fill="#000000">SearchSynonym</text>
</g>
<!-- \\SilverStripe\\ORM\\DataObject -->
<g id="node67" class="node">
<title>\\SilverStripe\\ORM\\DataObject</title>
<ellipse fill="none" stroke="#000000" cx="254.1275" cy="-3694.7817" rx="152.9733" ry="18"/>
<text text-anchor="middle" x="254.1275" y="-3691.0817" font-family="Times,serif" font-size="14.00" fill="#c0c0c0">\SilverStripe\ORM\DataObject</text>
</g>
<!-- \\Firesphere\\SolrSearch\\Models\\SearchSynonym&#45;&gt;\\SilverStripe\\ORM\\DataObject -->
<g id="edge14" class="edge">
<title>\\Firesphere\\SolrSearch\\Models\\SearchSynonym&#45;&gt;\\SilverStripe\\ORM\\DataObject</title>
<path fill="none" stroke="#000000" d="M620.5115,-2264.6676C602.1696,-2272.2614 583.3806,-2283.7245 572.2549,-2300.7817 489.1843,-2428.1398 612.5525,-3557.1344 508.2549,-3667.7817 466.7132,-3711.8525 397.2191,-3716.6013 341.3933,-3711.4322"/>
<polygon fill="none" stroke="#000000" points="341.4483,-3707.9189 331.1383,-3710.3588 340.7196,-3714.8809 341.4483,-3707.9189"/>
</g>
<!-- \\Firesphere\\SolrSearch\\Models\\DirtyClass -->
<g id="node19" class="node">
<title>\\Firesphere\\SolrSearch\\Models\\DirtyClass</title>
<polygon fill="none" stroke="#000000" points="714.7549,-2214.7817 630.7549,-2214.7817 630.7549,-2178.7817 714.7549,-2178.7817 714.7549,-2214.7817"/>
<text text-anchor="middle" x="672.7549" y="-2193.9817" font-family="Courier,monospace" font-size="11.00" fill="#000000">DirtyClass</text>
</g>
<!-- \\Firesphere\\SolrSearch\\Models\\DirtyClass&#45;&gt;\\SilverStripe\\ORM\\DataObject -->
<g id="edge15" class="edge">
<title>\\Firesphere\\SolrSearch\\Models\\DirtyClass&#45;&gt;\\SilverStripe\\ORM\\DataObject</title>
<path fill="none" stroke="#000000" d="M630.5697,-2197.0698C609.715,-2199.5976 586.1076,-2206.5216 572.2549,-2223.7817 471.7304,-2349.0327 618.2691,-3550.778 508.2549,-3667.7817 466.6966,-3711.9803 397.0307,-3716.6658 341.1405,-3711.4391"/>
<polygon fill="none" stroke="#000000" points="341.187,-3707.9246 330.8748,-3710.3551 340.4519,-3714.8859 341.187,-3707.9246"/>
</g>
<!-- \\Firesphere\\SolrSearch\\Models\\SolrLog -->
<g id="node20" class="node">
<title>\\Firesphere\\SolrSearch\\Models\\SolrLog</title>
<polygon fill="none" stroke="#000000" points="704.7549,-2160.7817 640.7549,-2160.7817 640.7549,-2124.7817 704.7549,-2124.7817 704.7549,-2160.7817"/>
<text text-anchor="middle" x="672.7549" y="-2139.9817" font-family="Courier,monospace" font-size="11.00" fill="#000000">SolrLog</text>
</g>
<!-- \\Firesphere\\SolrSearch\\Models\\SolrLog&#45;&gt;\\SilverStripe\\ORM\\DataObject -->
<g id="edge16" class="edge">
<title>\\Firesphere\\SolrSearch\\Models\\SolrLog&#45;&gt;\\SilverStripe\\ORM\\DataObject</title>
<path fill="none" stroke="#000000" d="M640.7403,-2142.1348C617.8753,-2143.5582 588.4097,-2149.6203 572.2549,-2169.7817 468.0821,-2299.7907 622.2785,-3546.32 508.2549,-3667.7817 466.7318,-3712.0134 397.0635,-3716.6967 341.1634,-3711.4606"/>
<polygon fill="none" stroke="#000000" points="341.2084,-3707.946 330.8958,-3710.3748 340.4722,-3714.9071 341.2084,-3707.946"/>
</g>
<!-- \\SilverStripe\\Security\\PermissionProvider -->
<g id="node68" class="node">
<title>\\SilverStripe\\Security\\PermissionProvider</title>
<ellipse fill="none" stroke="#000000" cx="254.1275" cy="-3586.7817" rx="206.0634" ry="18"/>
<text text-anchor="middle" x="254.1275" y="-3583.0817" font-family="Times,serif" font-size="14.00" fill="#c0c0c0">\SilverStripe\Security\PermissionProvider</text>
</g>
<!-- \\Firesphere\\SolrSearch\\Models\\SolrLog&#45;&gt;\\SilverStripe\\Security\\PermissionProvider -->
<g id="edge17" class="edge">
<title>\\Firesphere\\SolrSearch\\Models\\SolrLog&#45;&gt;\\SilverStripe\\Security\\PermissionProvider</title>
<path fill="none" stroke="#000000" stroke-dasharray="1,5" d="M640.2793,-2142.1812C617.4933,-2143.6674 588.3299,-2149.7879 572.2549,-2169.7817 475.3786,-2290.275 614.26,-3447.2358 508.2549,-3559.7817 468.5917,-3601.8922 403.4094,-3608.1115 348.9913,-3604.076"/>
<polygon fill="none" stroke="#000000" points="349.2283,-3600.5835 338.9641,-3603.2094 348.6256,-3607.5575 349.2283,-3600.5835"/>
</g>
<!-- \\Firesphere\\SolrSearch\\Helpers\\Synonyms -->
<g id="node21" class="node">
<title>\\Firesphere\\SolrSearch\\Helpers\\Synonyms</title>
<polygon fill="none" stroke="#000000" points="708.2549,-1946.7817 637.2549,-1946.7817 637.2549,-1910.7817 708.2549,-1910.7817 708.2549,-1946.7817"/>
<text text-anchor="middle" x="672.7549" y="-1925.9817" font-family="Courier,monospace" font-size="11.00" fill="#000000">Synonyms</text>
</g>
<!-- \\Firesphere\\SolrSearch\\Helpers\\SolrLogger -->
<g id="node22" class="node">
<title>\\Firesphere\\SolrSearch\\Helpers\\SolrLogger</title>
<polygon fill="none" stroke="#000000" points="714.7549,-1892.7817 630.7549,-1892.7817 630.7549,-1856.7817 714.7549,-1856.7817 714.7549,-1892.7817"/>
<text text-anchor="middle" x="672.7549" y="-1871.9817" font-family="Courier,monospace" font-size="11.00" fill="#000000">SolrLogger</text>
</g>
<!-- \\Firesphere\\SolrSearch\\Helpers\\DataResolver -->
<g id="node23" class="node">
<title>\\Firesphere\\SolrSearch\\Helpers\\DataResolver</title>
<polygon fill="none" stroke="#000000" points="721.7549,-1838.7817 623.7549,-1838.7817 623.7549,-1802.7817 721.7549,-1802.7817 721.7549,-1838.7817"/>
<text text-anchor="middle" x="672.7549" y="-1817.9817" font-family="Courier,monospace" font-size="11.00" fill="#000000">DataResolver</text>
</g>
<!-- \\Firesphere\\SolrSearch\\Helpers\\Statics -->
<g id="node24" class="node">
<title>\\Firesphere\\SolrSearch\\Helpers\\Statics</title>
<polygon fill="none" stroke="#000000" points="704.7549,-1784.7817 640.7549,-1784.7817 640.7549,-1748.7817 704.7549,-1748.7817 704.7549,-1784.7817"/>
<text text-anchor="middle" x="672.7549" y="-1763.9817" font-family="Courier,monospace" font-size="11.00" fill="#000000">Statics</text>
</g>
<!-- \\Firesphere\\SolrSearch\\Helpers\\FieldResolver -->
<g id="node25" class="node">
<title>\\Firesphere\\SolrSearch\\Helpers\\FieldResolver</title>
<polygon fill="none" stroke="#000000" points="724.7549,-1730.7817 620.7549,-1730.7817 620.7549,-1694.7817 724.7549,-1694.7817 724.7549,-1730.7817"/>
<text text-anchor="middle" x="672.7549" y="-1709.9817" font-family="Courier,monospace" font-size="11.00" fill="#000000">FieldResolver</text>
</g>
<!-- \\Firesphere\\SolrSearch\\Factories\\QueryComponentFactory -->
<g id="node26" class="node">
<title>\\Firesphere\\SolrSearch\\Factories\\QueryComponentFactory</title>
<polygon fill="none" stroke="#000000" points="751.7549,-1650.7817 593.7549,-1650.7817 593.7549,-1614.7817 751.7549,-1614.7817 751.7549,-1650.7817"/>
<text text-anchor="middle" x="672.7549" y="-1629.9817" font-family="Courier,monospace" font-size="11.00" fill="#000000">QueryComponentFactory</text>
</g>
<!-- \\Firesphere\\SolrSearch\\Factories\\SchemaFactory -->
<g id="node27" class="node">
<title>\\Firesphere\\SolrSearch\\Factories\\SchemaFactory</title>
<polygon fill="none" stroke="#000000" points="724.7549,-1596.7817 620.7549,-1596.7817 620.7549,-1560.7817 724.7549,-1560.7817 724.7549,-1596.7817"/>
<text text-anchor="middle" x="672.7549" y="-1575.9817" font-family="Courier,monospace" font-size="11.00" fill="#000000">SchemaFactory</text>
</g>
<!-- \\Firesphere\\SolrSearch\\Factories\\SchemaFactory&#45;&gt;\\SilverStripe\\View\\ViewableData -->
<g id="edge18" class="edge">
<title>\\Firesphere\\SolrSearch\\Factories\\SchemaFactory&#45;&gt;\\SilverStripe\\View\\ViewableData</title>
<path fill="none" stroke="#000000" d="M620.6171,-1580.5083C602.5183,-1583.9078 583.8681,-1591.1262 572.2549,-1605.7817 433.6183,-1780.7361 660.1525,-3450.2083 508.2549,-3613.7817 467.1853,-3658.0082 398.0062,-3662.8564 342.1879,-3657.688"/>
<polygon fill="none" stroke="#000000" points="342.2409,-3654.1745 331.9307,-3656.6136 341.5116,-3661.1364 342.2409,-3654.1745"/>
</g>
<!-- \\Firesphere\\SolrSearch\\Factories\\DocumentFactory -->
<g id="node28" class="node">
<title>\\Firesphere\\SolrSearch\\Factories\\DocumentFactory</title>
<polygon fill="none" stroke="#000000" points="731.7549,-1542.7817 613.7549,-1542.7817 613.7549,-1506.7817 731.7549,-1506.7817 731.7549,-1542.7817"/>
<text text-anchor="middle" x="672.7549" y="-1521.9817" font-family="Courier,monospace" font-size="11.00" fill="#000000">DocumentFactory</text>
</g>
<!-- \\Firesphere\\SolrSearch\\Jobs\\SolrIndexJob -->
<g id="node29" class="node">
<title>\\Firesphere\\SolrSearch\\Jobs\\SolrIndexJob</title>
<polygon fill="none" stroke="#000000" points="721.7549,-1462.7817 623.7549,-1462.7817 623.7549,-1426.7817 721.7549,-1426.7817 721.7549,-1462.7817"/>
<text text-anchor="middle" x="672.7549" y="-1441.9817" font-family="Courier,monospace" font-size="11.00" fill="#000000">SolrIndexJob</text>
</g>
<!-- \\Symbiote\\QueuedJobs\\Services\\AbstractQueuedJob -->
<g id="node69" class="node">
<title>\\Symbiote\\QueuedJobs\\Services\\AbstractQueuedJob</title>
<ellipse fill="none" stroke="#000000" cx="254.1275" cy="-3532.7817" rx="254.255" ry="18"/>
<text text-anchor="middle" x="254.1275" y="-3529.0817" font-family="Times,serif" font-size="14.00" fill="#c0c0c0">\Symbiote\QueuedJobs\Services\AbstractQueuedJob</text>
</g>
<!-- \\Firesphere\\SolrSearch\\Jobs\\SolrIndexJob&#45;&gt;\\Symbiote\\QueuedJobs\\Services\\AbstractQueuedJob -->
<g id="edge19" class="edge">
<title>\\Firesphere\\SolrSearch\\Jobs\\SolrIndexJob&#45;&gt;\\Symbiote\\QueuedJobs\\Services\\AbstractQueuedJob</title>
<path fill="none" stroke="#000000" d="M623.5338,-1457.3127C604.1986,-1464.864 583.8841,-1476.6576 572.2549,-1494.7817 451.5262,-1682.9374 660.3754,-3341.9606 508.2549,-3505.7817 469.6823,-3547.3212 406.3123,-3554.1225 352.5047,-3550.5134"/>
<polygon fill="none" stroke="#000000" points="352.4765,-3547.0001 342.2295,-3549.6924 351.9189,-3553.9779 352.4765,-3547.0001"/>
</g>
<!-- \\Firesphere\\SolrSearch\\Jobs\\SolrConfigureJob -->
<g id="node30" class="node">
<title>\\Firesphere\\SolrSearch\\Jobs\\SolrConfigureJob</title>
<polygon fill="none" stroke="#000000" points="735.2549,-1408.7817 610.2549,-1408.7817 610.2549,-1372.7817 735.2549,-1372.7817 735.2549,-1408.7817"/>
<text text-anchor="middle" x="672.7549" y="-1387.9817" font-family="Courier,monospace" font-size="11.00" fill="#000000">SolrConfigureJob</text>
</g>
<!-- \\Firesphere\\SolrSearch\\Jobs\\SolrConfigureJob&#45;&gt;\\Symbiote\\QueuedJobs\\Services\\AbstractQueuedJob -->
<g id="edge20" class="edge">
<title>\\Firesphere\\SolrSearch\\Jobs\\SolrConfigureJob&#45;&gt;\\Symbiote\\QueuedJobs\\Services\\AbstractQueuedJob</title>
<path fill="none" stroke="#000000" d="M610.1082,-1394.9251C595.5636,-1398.9675 581.6168,-1405.9525 572.2549,-1417.7817 428.2114,-1599.7873 666.0944,-3335.6016 508.2549,-3505.7817 469.6358,-3547.4202 406.1036,-3554.1701 352.2263,-3550.5104"/>
<polygon fill="none" stroke="#000000" points="352.1882,-3546.996 341.9389,-3549.6797 351.6247,-3553.9733 352.1882,-3546.996"/>
</g>
<!-- \\Firesphere\\SolrSearch\\Jobs\\ClearDirtyClassesJob -->
<g id="node31" class="node">
<title>\\Firesphere\\SolrSearch\\Jobs\\ClearDirtyClassesJob</title>
<polygon fill="none" stroke="#000000" points="748.7549,-1354.7817 596.7549,-1354.7817 596.7549,-1318.7817 748.7549,-1318.7817 748.7549,-1354.7817"/>
<text text-anchor="middle" x="672.7549" y="-1333.9817" font-family="Courier,monospace" font-size="11.00" fill="#000000">ClearDirtyClassesJob</text>
</g>
<!-- \\Firesphere\\SolrSearch\\Jobs\\ClearDirtyClassesJob&#45;&gt;\\Symbiote\\QueuedJobs\\Services\\AbstractQueuedJob -->
<g id="edge21" class="edge">
<title>\\Firesphere\\SolrSearch\\Jobs\\ClearDirtyClassesJob&#45;&gt;\\Symbiote\\QueuedJobs\\Services\\AbstractQueuedJob</title>
<path fill="none" stroke="#000000" d="M596.5628,-1345.7193C587.1681,-1349.8852 578.6426,-1355.7042 572.2549,-1363.7817 424.5617,-1550.547 670.1053,-3331.142 508.2549,-3505.7817 469.6519,-3547.4351 406.1197,-3554.185 352.2384,-3550.5216"/>
<polygon fill="none" stroke="#000000" points="352.1996,-3547.0071 341.9501,-3549.6901 351.6356,-3553.9844 352.1996,-3547.0071"/>
</g>
<!-- \\Firesphere\\SolrSearch\\Services\\SolrCoreService -->
<g id="node32" class="node">
<title>\\Firesphere\\SolrSearch\\Services\\SolrCoreService</title>
<polygon fill="none" stroke="#000000" points="731.7549,-1274.7817 613.7549,-1274.7817 613.7549,-1238.7817 731.7549,-1238.7817 731.7549,-1274.7817"/>
<text text-anchor="middle" x="672.7549" y="-1253.9817" font-family="Courier,monospace" font-size="11.00" fill="#000000">SolrCoreService</text>
</g>
<!-- \\Firesphere\\SolrSearch\\Admins\\SearchAdmin -->
<g id="node33" class="node">
<title>\\Firesphere\\SolrSearch\\Admins\\SearchAdmin</title>
<polygon fill="none" stroke="#000000" points="718.2549,-1194.7817 627.2549,-1194.7817 627.2549,-1158.7817 718.2549,-1158.7817 718.2549,-1194.7817"/>
<text text-anchor="middle" x="672.7549" y="-1173.9817" font-family="Courier,monospace" font-size="11.00" fill="#000000">SearchAdmin</text>
</g>
<!-- \\SilverStripe\\Admin\\ModelAdmin -->
<g id="node70" class="node">
<title>\\SilverStripe\\Admin\\ModelAdmin</title>
<ellipse fill="none" stroke="#000000" cx="254.1275" cy="-3478.7817" rx="165.1707" ry="18"/>
<text text-anchor="middle" x="254.1275" y="-3475.0817" font-family="Times,serif" font-size="14.00" fill="#c0c0c0">\SilverStripe\Admin\ModelAdmin</text>
</g>
<!-- \\Firesphere\\SolrSearch\\Admins\\SearchAdmin&#45;&gt;\\SilverStripe\\Admin\\ModelAdmin -->
<g id="edge22" class="edge">
<title>\\Firesphere\\SolrSearch\\Admins\\SearchAdmin&#45;&gt;\\SilverStripe\\Admin\\ModelAdmin</title>
<path fill="none" stroke="#000000" d="M627.1682,-1187.9115C606.7753,-1195.3747 584.5913,-1207.4905 572.2549,-1226.7817 439.0097,-1435.1446 676.2703,-3270.2873 508.2549,-3451.7817 467.3249,-3495.9953 398.3099,-3500.8992 342.5231,-3495.7568"/>
<polygon fill="none" stroke="#000000" points="342.5795,-3492.2437 332.2702,-3494.6869 341.8529,-3499.2059 342.5795,-3492.2437"/>
</g>
<!-- \\Firesphere\\SolrSearch\\Forms\\SearchForm -->
<g id="node34" class="node">
<title>\\Firesphere\\SolrSearch\\Forms\\SearchForm</title>
<polygon fill="none" stroke="#000000" points="714.7549,-1114.7817 630.7549,-1114.7817 630.7549,-1078.7817 714.7549,-1078.7817 714.7549,-1114.7817"/>
<text text-anchor="middle" x="672.7549" y="-1093.9817" font-family="Courier,monospace" font-size="11.00" fill="#000000">SearchForm</text>
</g>
<!-- \\SilverStripe\\Forms\\Form -->
<g id="node71" class="node">
<title>\\SilverStripe\\Forms\\Form</title>
<ellipse fill="none" stroke="#000000" cx="254.1275" cy="-3424.7817" rx="129.1772" ry="18"/>
<text text-anchor="middle" x="254.1275" y="-3421.0817" font-family="Times,serif" font-size="14.00" fill="#c0c0c0">\SilverStripe\Forms\Form</text>
</g>
<!-- \\Firesphere\\SolrSearch\\Forms\\SearchForm&#45;&gt;\\SilverStripe\\Forms\\Form -->
<g id="edge23" class="edge">
<title>\\Firesphere\\SolrSearch\\Forms\\SearchForm&#45;&gt;\\SilverStripe\\Forms\\Form</title>
<path fill="none" stroke="#000000" d="M630.6953,-1106.8194C609.4682,-1114.1909 585.4758,-1126.554 572.2549,-1146.7817 492.2826,-1269.1377 530.5627,-2316.3209 508.2549,-2460.7817 449.8544,-2838.9722 302.7735,-3282.965 263.7539,-3397.0008"/>
<polygon fill="none" stroke="#000000" points="260.3594,-3396.1095 260.4214,-3406.7042 266.9798,-3398.3833 260.3594,-3396.1095"/>
</g>
<!-- \\Firesphere\\SolrSearch\\Interfaces\\SiteStateInterface -->
<g id="node36" class="node">
<title>\\Firesphere\\SolrSearch\\Interfaces\\SiteStateInterface</title>
<polygon fill="none" stroke="#000000" points="323.1275,-2374.7817 185.1275,-2374.7817 185.1275,-2338.7817 323.1275,-2338.7817 323.1275,-2374.7817"/>
<text text-anchor="middle" x="254.1275" y="-2353.9817" font-family="Courier,monospace" font-size="11.00" fill="#000000">SiteStateInterface</text>
</g>
<!-- \\Firesphere\\SolrSearch\\Traits\\BaseQueryTrait -->
<g id="node37" class="node">
<title>\\Firesphere\\SolrSearch\\Traits\\BaseQueryTrait</title>
<polygon fill="none" stroke="#000000" points="728.2549,-1034.7817 617.2549,-1034.7817 617.2549,-998.7817 728.2549,-998.7817 728.2549,-1034.7817"/>
<text text-anchor="middle" x="672.7549" y="-1013.9817" font-family="Courier,monospace" font-size="11.00" fill="#000000">BaseQueryTrait</text>
</g>
<!-- \\Firesphere\\SolrSearch\\Traits\\GetSetSchemaFactoryTrait -->
<g id="node38" class="node">
<title>\\Firesphere\\SolrSearch\\Traits\\GetSetSchemaFactoryTrait</title>
<polygon fill="none" stroke="#000000" points="762.2549,-980.7817 583.2549,-980.7817 583.2549,-944.7817 762.2549,-944.7817 762.2549,-980.7817"/>
<text text-anchor="middle" x="672.7549" y="-959.9817" font-family="Courier,monospace" font-size="11.00" fill="#000000">GetSetSchemaFactoryTrait</text>
</g>
<!-- \\Firesphere\\SolrSearch\\Traits\\CoreServiceTrait -->
<g id="node39" class="node">
<title>\\Firesphere\\SolrSearch\\Traits\\CoreServiceTrait</title>
<polygon fill="none" stroke="#000000" points="735.2549,-926.7817 610.2549,-926.7817 610.2549,-890.7817 735.2549,-890.7817 735.2549,-926.7817"/>
<text text-anchor="middle" x="672.7549" y="-905.9817" font-family="Courier,monospace" font-size="11.00" fill="#000000">CoreServiceTrait</text>
</g>
<!-- \\Firesphere\\SolrSearch\\Traits\\CoreAdminTrait -->
<g id="node40" class="node">
<title>\\Firesphere\\SolrSearch\\Traits\\CoreAdminTrait</title>
<polygon fill="none" stroke="#000000" points="728.2549,-872.7817 617.2549,-872.7817 617.2549,-836.7817 728.2549,-836.7817 728.2549,-872.7817"/>
<text text-anchor="middle" x="672.7549" y="-851.9817" font-family="Courier,monospace" font-size="11.00" fill="#000000">CoreAdminTrait</text>
</g>
<!-- \\Firesphere\\SolrSearch\\Traits\\LoggerTrait -->
<g id="node41" class="node">
<title>\\Firesphere\\SolrSearch\\Traits\\LoggerTrait</title>
<polygon fill="none" stroke="#000000" points="718.2549,-818.7817 627.2549,-818.7817 627.2549,-782.7817 718.2549,-782.7817 718.2549,-818.7817"/>
<text text-anchor="middle" x="672.7549" y="-797.9817" font-family="Courier,monospace" font-size="11.00" fill="#000000">LoggerTrait</text>
</g>
<!-- \\Firesphere\\SolrSearch\\Traits\\GetSetSearchResolverTrait -->
<g id="node42" class="node">
<title>\\Firesphere\\SolrSearch\\Traits\\GetSetSearchResolverTrait</title>
<polygon fill="none" stroke="#000000" points="765.2549,-764.7817 580.2549,-764.7817 580.2549,-728.7817 765.2549,-728.7817 765.2549,-764.7817"/>
<text text-anchor="middle" x="672.7549" y="-743.9817" font-family="Courier,monospace" font-size="11.00" fill="#000000">GetSetSearchResolverTrait</text>
</g>
<!-- \\Firesphere\\SolrSearch\\Traits\\QueryComponentFilterTrait -->
<g id="node43" class="node">
<title>\\Firesphere\\SolrSearch\\Traits\\QueryComponentFilterTrait</title>
<polygon fill="none" stroke="#000000" points="765.2549,-710.7817 580.2549,-710.7817 580.2549,-674.7817 765.2549,-674.7817 765.2549,-710.7817"/>
<text text-anchor="middle" x="672.7549" y="-689.9817" font-family="Courier,monospace" font-size="11.00" fill="#000000">QueryComponentFilterTrait</text>
</g>
<!-- \\Firesphere\\SolrSearch\\Traits\\QueryComponentFacetTrait -->
<g id="node44" class="node">
<title>\\Firesphere\\SolrSearch\\Traits\\QueryComponentFacetTrait</title>
<polygon fill="none" stroke="#000000" points="762.2549,-656.7817 583.2549,-656.7817 583.2549,-620.7817 762.2549,-620.7817 762.2549,-656.7817"/>
<text text-anchor="middle" x="672.7549" y="-635.9817" font-family="Courier,monospace" font-size="11.00" fill="#000000">QueryComponentFacetTrait</text>
</g>
<!-- \\Firesphere\\SolrSearch\\Traits\\QueryComponentBoostTrait -->
<g id="node45" class="node">
<title>\\Firesphere\\SolrSearch\\Traits\\QueryComponentBoostTrait</title>
<polygon fill="none" stroke="#000000" points="762.2549,-602.7817 583.2549,-602.7817 583.2549,-566.7817 762.2549,-566.7817 762.2549,-602.7817"/>
<text text-anchor="middle" x="672.7549" y="-581.9817" font-family="Courier,monospace" font-size="11.00" fill="#000000">QueryComponentBoostTrait</text>
</g>
<!-- \\Firesphere\\SolrSearch\\Traits\\SolrIndexTrait -->
<g id="node46" class="node">
<title>\\Firesphere\\SolrSearch\\Traits\\SolrIndexTrait</title>
<polygon fill="none" stroke="#000000" points="728.2549,-548.7817 617.2549,-548.7817 617.2549,-512.7817 728.2549,-512.7817 728.2549,-548.7817"/>
<text text-anchor="middle" x="672.7549" y="-527.9817" font-family="Courier,monospace" font-size="11.00" fill="#000000">SolrIndexTrait</text>
</g>
<!-- \\Firesphere\\SolrSearch\\Traits\\BaseIndexTrait -->
<g id="node47" class="node">
<title>\\Firesphere\\SolrSearch\\Traits\\BaseIndexTrait</title>
<polygon fill="none" stroke="#000000" points="728.2549,-494.7817 617.2549,-494.7817 617.2549,-458.7817 728.2549,-458.7817 728.2549,-494.7817"/>
<text text-anchor="middle" x="672.7549" y="-473.9817" font-family="Courier,monospace" font-size="11.00" fill="#000000">BaseIndexTrait</text>
</g>
<!-- \\Firesphere\\SolrSearch\\Traits\\DataResolveTrait -->
<g id="node48" class="node">
<title>\\Firesphere\\SolrSearch\\Traits\\DataResolveTrait</title>
<polygon fill="none" stroke="#000000" points="735.2549,-440.7817 610.2549,-440.7817 610.2549,-404.7817 735.2549,-404.7817 735.2549,-440.7817"/>
<text text-anchor="middle" x="672.7549" y="-419.9817" font-family="Courier,monospace" font-size="11.00" fill="#000000">DataResolveTrait</text>
</g>
<!-- \\Firesphere\\SolrSearch\\Traits\\DocumentFactoryTrait -->
<g id="node49" class="node">
<title>\\Firesphere\\SolrSearch\\Traits\\DocumentFactoryTrait</title>
<polygon fill="none" stroke="#000000" points="748.7549,-386.7817 596.7549,-386.7817 596.7549,-350.7817 748.7549,-350.7817 748.7549,-386.7817"/>
<text text-anchor="middle" x="672.7549" y="-365.9817" font-family="Courier,monospace" font-size="11.00" fill="#000000">DocumentFactoryTrait</text>
</g>
<!-- \\Firesphere\\SolrSearch\\Traits\\GetterSetterTrait -->
<g id="node50" class="node">
<title>\\Firesphere\\SolrSearch\\Traits\\GetterSetterTrait</title>
<polygon fill="none" stroke="#000000" points="738.2549,-332.7817 607.2549,-332.7817 607.2549,-296.7817 738.2549,-296.7817 738.2549,-332.7817"/>
<text text-anchor="middle" x="672.7549" y="-311.9817" font-family="Courier,monospace" font-size="11.00" fill="#000000">GetterSetterTrait</text>
</g>
<!-- \\Firesphere\\SolrSearch\\Traits\\SearchResultGetTrait -->
<g id="node51" class="node">
<title>\\Firesphere\\SolrSearch\\Traits\\SearchResultGetTrait</title>
<polygon fill="none" stroke="#000000" points="748.7549,-278.7817 596.7549,-278.7817 596.7549,-242.7817 748.7549,-242.7817 748.7549,-278.7817"/>
<text text-anchor="middle" x="672.7549" y="-257.9817" font-family="Courier,monospace" font-size="11.00" fill="#000000">SearchResultGetTrait</text>
</g>
<!-- \\Firesphere\\SolrSearch\\Traits\\SearchResultSetTrait -->
<g id="node52" class="node">
<title>\\Firesphere\\SolrSearch\\Traits\\SearchResultSetTrait</title>
<polygon fill="none" stroke="#000000" points="748.7549,-224.7817 596.7549,-224.7817 596.7549,-188.7817 748.7549,-188.7817 748.7549,-224.7817"/>
<text text-anchor="middle" x="672.7549" y="-203.9817" font-family="Courier,monospace" font-size="11.00" fill="#000000">SearchResultSetTrait</text>
</g>
<!-- \\Firesphere\\SolrFluent\\States\\FluentSiteState -->
<g id="node53" class="node">
<title>\\Firesphere\\SolrFluent\\States\\FluentSiteState</title>
<polygon fill="none" stroke="#000000" points="985.7549,-856.7817 867.7549,-856.7817 867.7549,-820.7817 985.7549,-820.7817 985.7549,-856.7817"/>
<text text-anchor="middle" x="926.7549" y="-835.9817" font-family="Courier,monospace" font-size="11.00" fill="#000000">FluentSiteState</text>
</g>
<!-- \\Firesphere\\SolrFluent\\States\\FluentSiteState&#45;&gt;\\Firesphere\\SolrSearch\\States\\SiteState -->
<g id="edge24" class="edge">
<title>\\Firesphere\\SolrFluent\\States\\FluentSiteState&#45;&gt;\\Firesphere\\SolrSearch\\States\\SiteState</title>
<path fill="none" stroke="#000000" d="M891.37,-856.8104C866.8074,-871.4568 835.9552,-894.618 821.2549,-924.7817 772.7628,-1024.2833 849.169,-2829.3761 781.2549,-2916.7817 767.9616,-2933.8902 745.8348,-2941.807 725.0179,-2945.2847"/>
<polygon fill="none" stroke="#000000" points="724.3845,-2941.8385 714.9483,-2946.6561 725.3292,-2948.7745 724.3845,-2941.8385"/>
</g>
<!-- \\Firesphere\\SolrFluent\\States\\FluentSiteState&#45;&gt;\\Firesphere\\SolrSearch\\Interfaces\\SiteStateInterface -->
<g id="edge25" class="edge">
<title>\\Firesphere\\SolrFluent\\States\\FluentSiteState&#45;&gt;\\Firesphere\\SolrSearch\\Interfaces\\SiteStateInterface</title>
<path fill="none" stroke="#000000" stroke-dasharray="1,5" d="M867.5291,-834.8206C850.0639,-830.6275 832.6083,-822.8653 821.2549,-808.7817 732.9344,-699.2229 880.7021,-276.3503 781.2549,-176.7817 747.1066,-142.5917 720.9743,-166.6269 672.7549,-169.7817"/>
<path fill="none" stroke="#000000" stroke-dasharray="1,5" d="M672.7549,-169.7817C628.0755,-172.7049 605.0859,-146.3364 572.2549,-176.7817 405.3223,-331.5844 273.7251,-2084.0926 256.1295,-2328.5396"/>
<polygon fill="none" stroke="#000000" points="252.623,-2328.506 255.3993,-2338.7307 259.6051,-2329.0064 252.623,-2328.506"/>
</g>
<!-- \\Firesphere\\SolrFluent\\Extensions\\FluentDocumentExtension -->
<g id="node54" class="node">
<title>\\Firesphere\\SolrFluent\\Extensions\\FluentDocumentExtension</title>
<polygon fill="none" stroke="#000000" points="1012.7549,-668.7817 840.7549,-668.7817 840.7549,-632.7817 1012.7549,-632.7817 1012.7549,-668.7817"/>
<text text-anchor="middle" x="926.7549" y="-647.9817" font-family="Courier,monospace" font-size="11.00" fill="#000000">FluentDocumentExtension</text>
</g>
<!-- \\Firesphere\\SolrFluent\\Extensions\\FluentDocumentExtension&#45;&gt;\\SilverStripe\\Core\\Extension -->
<g id="edge26" class="edge">
<title>\\Firesphere\\SolrFluent\\Extensions\\FluentDocumentExtension&#45;&gt;\\SilverStripe\\Core\\Extension</title>
<path fill="none" stroke="#000000" d="M879.2438,-632.6946C857.9161,-622.0545 834.5963,-606.3789 821.2549,-584.7817 722.7083,-425.2541 882.9626,-322.3128 781.2549,-164.7817 751.1296,-118.1217 718.0085,-134.9812 672.7549,-102.7817"/>
</g>
<!-- \\Firesphere\\SolrFluent\\Extensions\\FluentIndexExtension -->
<g id="node55" class="node">
<title>\\Firesphere\\SolrFluent\\Extensions\\FluentIndexExtension</title>
<polygon fill="none" stroke="#000000" points="1002.7549,-776.7817 850.7549,-776.7817 850.7549,-740.7817 1002.7549,-740.7817 1002.7549,-776.7817"/>
<text text-anchor="middle" x="926.7549" y="-755.9817" font-family="Courier,monospace" font-size="11.00" fill="#000000">FluentIndexExtension</text>
</g>
<!-- \\Firesphere\\SolrFluent\\Extensions\\FluentIndexExtension&#45;&gt;\\SilverStripe\\Core\\Extension -->
<g id="edge27" class="edge">
<title>\\Firesphere\\SolrFluent\\Extensions\\FluentIndexExtension&#45;&gt;\\SilverStripe\\Core\\Extension</title>
<path fill="none" stroke="#000000" d="M850.5548,-751.5782C839.313,-747.3063 828.9462,-740.9999 821.2549,-731.7817 740.3328,-634.7939 848.462,-271.7313 781.2549,-164.7817 751.7039,-117.7559 718.0085,-134.9812 672.7549,-102.7817"/>
</g>
<!-- \\Firesphere\\SolrFluent\\Extensions\\FluentSchemaExtension -->
<g id="node56" class="node">
<title>\\Firesphere\\SolrFluent\\Extensions\\FluentSchemaExtension</title>
<polygon fill="none" stroke="#000000" points="1005.7549,-722.7817 847.7549,-722.7817 847.7549,-686.7817 1005.7549,-686.7817 1005.7549,-722.7817"/>
<text text-anchor="middle" x="926.7549" y="-701.9817" font-family="Courier,monospace" font-size="11.00" fill="#000000">FluentSchemaExtension</text>
</g>
<!-- \\Firesphere\\SolrFluent\\Extensions\\FluentSchemaExtension&#45;&gt;\\SilverStripe\\Core\\Extension -->
<g id="edge28" class="edge">
<title>\\Firesphere\\SolrFluent\\Extensions\\FluentSchemaExtension&#45;&gt;\\SilverStripe\\Core\\Extension</title>
<path fill="none" stroke="#000000" d="M847.7103,-696.3752C837.5852,-692.1518 828.311,-686.1755 821.2549,-677.7817 747.6758,-590.2538 842.4518,-261.3734 781.2549,-164.7817 751.5304,-117.8653 718.0085,-134.9812 672.7549,-102.7817"/>
</g>
<!-- \\Firesphere\\SolrSubsites\\States\\SubsiteState -->
<g id="node57" class="node">
<title>\\Firesphere\\SolrSubsites\\States\\SubsiteState</title>
<polygon fill="none" stroke="#000000" points="975.7549,-1052.7817 877.7549,-1052.7817 877.7549,-1016.7817 975.7549,-1016.7817 975.7549,-1052.7817"/>
<text text-anchor="middle" x="926.7549" y="-1031.9817" font-family="Courier,monospace" font-size="11.00" fill="#000000">SubsiteState</text>
</g>
<!-- \\Firesphere\\SolrSubsites\\States\\SubsiteState&#45;&gt;\\Firesphere\\SolrSearch\\States\\SiteState -->
<g id="edge29" class="edge">
<title>\\Firesphere\\SolrSubsites\\States\\SubsiteState&#45;&gt;\\Firesphere\\SolrSearch\\States\\SiteState</title>
<path fill="none" stroke="#000000" d="M926.5972,-1052.9715C924.8402,-1237.3653 906.5387,-2764.7052 781.2549,-2916.7817 767.5322,-2933.4391 745.4592,-2941.3079 724.7935,-2944.8708"/>
<polygon fill="none" stroke="#000000" points="724.2108,-2941.4184 714.8043,-2946.2936 725.1979,-2948.3484 724.2108,-2941.4184"/>
</g>
<!-- \\Firesphere\\SolrSubsites\\States\\SubsiteState&#45;&gt;\\Firesphere\\SolrSearch\\Interfaces\\SiteStateInterface -->
<g id="edge30" class="edge">
<title>\\Firesphere\\SolrSubsites\\States\\SubsiteState&#45;&gt;\\Firesphere\\SolrSearch\\Interfaces\\SiteStateInterface</title>
<path fill="none" stroke="#000000" stroke-dasharray="1,5" d="M877.5714,-1032.9782C856.9534,-1029.5232 834.6932,-1021.7087 821.2549,-1004.7817 763.9847,-932.6438 845.8564,-242.4353 781.2549,-176.7817 747.3629,-142.3377 720.9743,-166.6269 672.7549,-169.7817"/>
</g>
<!-- \\Firesphere\\SolrSubsites\\Extensions\\SubsitesExtension -->
<g id="node58" class="node">
<title>\\Firesphere\\SolrSubsites\\Extensions\\SubsitesExtension</title>
<polygon fill="none" stroke="#000000" points="992.2549,-972.7817 861.2549,-972.7817 861.2549,-936.7817 992.2549,-936.7817 992.2549,-972.7817"/>
<text text-anchor="middle" x="926.7549" y="-951.9817" font-family="Courier,monospace" font-size="11.00" fill="#000000">SubsitesExtension</text>
</g>
<!-- \\Firesphere\\SolrSubsites\\Extensions\\SubsitesExtension&#45;&gt;\\SilverStripe\\Core\\Extension -->
<g id="edge31" class="edge">
<title>\\Firesphere\\SolrSubsites\\Extensions\\SubsitesExtension&#45;&gt;\\SilverStripe\\Core\\Extension</title>
<path fill="none" stroke="#000000" d="M878.3173,-936.6523C857.0531,-926.0692 834.0545,-910.4538 821.2549,-888.7817 739.3126,-750.0384 865.9472,-301.8636 781.2549,-164.7817 752.063,-117.5321 718.0085,-134.9812 672.7549,-102.7817"/>
</g>
<!-- \\Firesphere\\SolrPermissions\\Extensions\\DocumentFactoryExtension -->
<g id="node59" class="node">
<title>\\Firesphere\\SolrPermissions\\Extensions\\DocumentFactoryExtension</title>
<polygon fill="none" stroke="#000000" points="1016.2549,-390.7817 837.2549,-390.7817 837.2549,-354.7817 1016.2549,-354.7817 1016.2549,-390.7817"/>
<text text-anchor="middle" x="926.7549" y="-369.9817" font-family="Courier,monospace" font-size="11.00" fill="#000000">DocumentFactoryExtension</text>
</g>
<!-- \\Firesphere\\SolrPermissions\\Extensions\\DocumentFactoryExtension&#45;&gt;\\SilverStripe\\Core\\Extension -->
<g id="edge32" class="edge">
<title>\\Firesphere\\SolrPermissions\\Extensions\\DocumentFactoryExtension&#45;&gt;\\SilverStripe\\Core\\Extension</title>
<path fill="none" stroke="#000000" d="M882.0021,-354.7533C860.5351,-343.9109 836.28,-328.0421 821.2549,-306.7817 773.9576,-239.8563 839.2316,-184.7019 781.2549,-126.7817 746.3154,-91.8763 712.9958,-131.4145 672.7549,-102.7817"/>
</g>
<!-- \\Firesphere\\SolrPermissions\\Extensions\\SchemaFactoryExtension -->
<g id="node60" class="node">
<title>\\Firesphere\\SolrPermissions\\Extensions\\SchemaFactoryExtension</title>
<polygon fill="none" stroke="#000000" points="1009.2549,-498.7817 844.2549,-498.7817 844.2549,-462.7817 1009.2549,-462.7817 1009.2549,-498.7817"/>
<text text-anchor="middle" x="926.7549" y="-477.9817" font-family="Courier,monospace" font-size="11.00" fill="#000000">SchemaFactoryExtension</text>
</g>
<!-- \\Firesphere\\SolrPermissions\\Extensions\\SchemaFactoryExtension&#45;&gt;\\SilverStripe\\Core\\Extension -->
<g id="edge33" class="edge">
<title>\\Firesphere\\SolrPermissions\\Extensions\\SchemaFactoryExtension&#45;&gt;\\SilverStripe\\Core\\Extension</title>
<path fill="none" stroke="#000000" d="M844.1353,-470.3833C835.479,-466.3465 827.5576,-460.9535 821.2549,-453.7817 724.6017,-343.8 879.7016,-235.161 781.2549,-126.7817 748.0478,-90.2242 712.9958,-131.4145 672.7549,-102.7817"/>
</g>
<!-- \\Firesphere\\SolrPermissions\\Extensions\\BaseIndexExtension -->
<g id="node61" class="node">
<title>\\Firesphere\\SolrPermissions\\Extensions\\BaseIndexExtension</title>
<polygon fill="none" stroke="#000000" points="995.7549,-444.7817 857.7549,-444.7817 857.7549,-408.7817 995.7549,-408.7817 995.7549,-444.7817"/>
<text text-anchor="middle" x="926.7549" y="-423.9817" font-family="Courier,monospace" font-size="11.00" fill="#000000">BaseIndexExtension</text>
</g>
<!-- \\Firesphere\\SolrPermissions\\Extensions\\BaseIndexExtension&#45;&gt;\\SilverStripe\\Core\\Extension -->
<g id="edge34" class="edge">
<title>\\Firesphere\\SolrPermissions\\Extensions\\BaseIndexExtension&#45;&gt;\\SilverStripe\\Core\\Extension</title>
<path fill="none" stroke="#000000" d="M857.6134,-421.2648C843.8975,-417.0911 830.8044,-410.3912 821.2549,-399.7817 739.2158,-308.6367 864.7801,-216.5668 781.2549,-126.7817 747.6157,-90.6214 712.9958,-131.4145 672.7549,-102.7817"/>
</g>
<!-- \\Firesphere\\SolrPermissions\\Extensions\\DataObjectExtension -->
<g id="node62" class="node">
<title>\\Firesphere\\SolrPermissions\\Extensions\\DataObjectExtension</title>
<polygon fill="none" stroke="#000000" points="999.2549,-552.7817 854.2549,-552.7817 854.2549,-516.7817 999.2549,-516.7817 999.2549,-552.7817"/>
<text text-anchor="middle" x="926.7549" y="-531.9817" font-family="Courier,monospace" font-size="11.00" fill="#000000">DataObjectExtension</text>
</g>
<!-- \\Firesphere\\SolrPermissions\\Extensions\\DataObjectExtension&#45;&gt;\\SilverStripe\\ORM\\DataExtension -->
<g id="edge35" class="edge">
<title>\\Firesphere\\SolrPermissions\\Extensions\\DataObjectExtension&#45;&gt;\\SilverStripe\\ORM\\DataExtension</title>
<path fill="none" stroke="#000000" d="M854.1266,-528.4252C841.6284,-524.1882 829.9011,-517.6761 821.2549,-507.7817 720.2653,-392.2116 883.6696,-279.0909 781.2549,-164.7817 717.657,-93.7975 664.7691,-139.6854 572.2549,-116.7817 543.6866,-109.709 537.1957,-105.13 508.2549,-99.7817 473.46,-93.3516 435.681,-88.3074 400.1541,-84.4097"/>
<polygon fill="none" stroke="#000000" points="400.5143,-80.9284 390.1977,-83.3406 399.7668,-87.8884 400.5143,-80.9284"/>
</g>
</g>
</svg>
