<?xml version="1.0" encoding="UTF-8" standalone="no"?>
<!DOCTYPE svg PUBLIC "-//W3C//DTD SVG 1.1//EN"
 "http://www.w3.org/Graphics/SVG/1.1/DTD/svg11.dtd">
<!-- Generated by graphviz version 2.40.1 (20161225.0304)
 -->
<!-- Title: G Pages: 1 -->
<svg width="984pt" height="3653pt"
 viewBox="0.00 0.00 984.25 3652.93" xmlns="http://www.w3.org/2000/svg" xmlns:xlink="http://www.w3.org/1999/xlink">
<g id="graph0" class="graph" transform="scale(1 1) rotate(0) translate(4 3648.9332)">
<title>G</title>
<polygon fill="#ffffff" stroke="transparent" points="-4,4 -4,-3648.9332 980.2549,-3648.9332 980.2549,4 -4,4"/>
<g id="clust1" class="cluster">
<title>cluster_Global</title>
<path fill="none" stroke="#c0c0c0" d="M165.1275,-476.9332C165.1275,-476.9332 956.2549,-476.9332 956.2549,-476.9332 962.2549,-476.9332 968.2549,-482.9332 968.2549,-488.9332 968.2549,-488.9332 968.2549,-3624.9332 968.2549,-3624.9332 968.2549,-3630.9332 962.2549,-3636.9332 956.2549,-3636.9332 956.2549,-3636.9332 165.1275,-3636.9332 165.1275,-3636.9332 159.1275,-3636.9332 153.1275,-3630.9332 153.1275,-3624.9332 153.1275,-3624.9332 153.1275,-488.9332 153.1275,-488.9332 153.1275,-482.9332 159.1275,-476.9332 165.1275,-476.9332"/>
<text text-anchor="middle" x="560.6912" y="-3624.1332" font-family="Times,serif" font-size="11.00" fill="#c0c0c0">Global</text>
</g>
<g id="clust2" class="cluster">
<title>cluster_\SilverStripe</title>
<path fill="none" stroke="#c0c0c0" d="M817.2549,-1644.9332C817.2549,-1644.9332 948.2549,-1644.9332 948.2549,-1644.9332 954.2549,-1644.9332 960.2549,-1650.9332 960.2549,-1656.9332 960.2549,-1656.9332 960.2549,-1946.9332 960.2549,-1946.9332 960.2549,-1952.9332 954.2549,-1958.9332 948.2549,-1958.9332 948.2549,-1958.9332 817.2549,-1958.9332 817.2549,-1958.9332 811.2549,-1958.9332 805.2549,-1952.9332 805.2549,-1946.9332 805.2549,-1946.9332 805.2549,-1656.9332 805.2549,-1656.9332 805.2549,-1650.9332 811.2549,-1644.9332 817.2549,-1644.9332"/>
<text text-anchor="middle" x="882.7549" y="-1946.1332" font-family="Times,serif" font-size="11.00" fill="#c0c0c0">SilverStripe</text>
</g>
<g id="clust3" class="cluster">
<title>cluster_\SilverStripe\FullTextSearch</title>
<path fill="none" stroke="#c0c0c0" d="M825.2549,-1652.9332C825.2549,-1652.9332 940.2549,-1652.9332 940.2549,-1652.9332 946.2549,-1652.9332 952.2549,-1658.9332 952.2549,-1664.9332 952.2549,-1664.9332 952.2549,-1918.9332 952.2549,-1918.9332 952.2549,-1924.9332 946.2549,-1930.9332 940.2549,-1930.9332 940.2549,-1930.9332 825.2549,-1930.9332 825.2549,-1930.9332 819.2549,-1930.9332 813.2549,-1924.9332 813.2549,-1918.9332 813.2549,-1918.9332 813.2549,-1664.9332 813.2549,-1664.9332 813.2549,-1658.9332 819.2549,-1652.9332 825.2549,-1652.9332"/>
<text text-anchor="middle" x="882.7549" y="-1918.1332" font-family="Times,serif" font-size="11.00" fill="#c0c0c0">FullTextSearch</text>
</g>
<g id="clust4" class="cluster">
<title>cluster_\SilverStripe\FullTextSearch\Solr</title>
<path fill="none" stroke="#c0c0c0" d="M844.7549,-1776.9332C844.7549,-1776.9332 920.7549,-1776.9332 920.7549,-1776.9332 926.7549,-1776.9332 932.7549,-1782.9332 932.7549,-1788.9332 932.7549,-1788.9332 932.7549,-1890.9332 932.7549,-1890.9332 932.7549,-1896.9332 926.7549,-1902.9332 920.7549,-1902.9332 920.7549,-1902.9332 844.7549,-1902.9332 844.7549,-1902.9332 838.7549,-1902.9332 832.7549,-1896.9332 832.7549,-1890.9332 832.7549,-1890.9332 832.7549,-1788.9332 832.7549,-1788.9332 832.7549,-1782.9332 838.7549,-1776.9332 844.7549,-1776.9332"/>
<text text-anchor="middle" x="882.7549" y="-1890.1332" font-family="Times,serif" font-size="11.00" fill="#c0c0c0">Solr</text>
</g>
<g id="clust5" class="cluster">
<title>cluster_\SilverStripe\FullTextSearch\Search</title>
<path fill="none" stroke="#c0c0c0" d="M833.2549,-1660.9332C833.2549,-1660.9332 932.2549,-1660.9332 932.2549,-1660.9332 938.2549,-1660.9332 944.2549,-1666.9332 944.2549,-1672.9332 944.2549,-1672.9332 944.2549,-1756.9332 944.2549,-1756.9332 944.2549,-1762.9332 938.2549,-1768.9332 932.2549,-1768.9332 932.2549,-1768.9332 833.2549,-1768.9332 833.2549,-1768.9332 827.2549,-1768.9332 821.2549,-1762.9332 821.2549,-1756.9332 821.2549,-1756.9332 821.2549,-1672.9332 821.2549,-1672.9332 821.2549,-1666.9332 827.2549,-1660.9332 833.2549,-1660.9332"/>
<text text-anchor="middle" x="882.7549" y="-1756.1332" font-family="Times,serif" font-size="11.00" fill="#c0c0c0">Search</text>
</g>
<g id="clust6" class="cluster">
<title>cluster_\SilverStripe\FullTextSearch\Search\Queries</title>
<path fill="none" stroke="#c0c0c0" d="M841.2549,-1668.9332C841.2549,-1668.9332 924.2549,-1668.9332 924.2549,-1668.9332 930.2549,-1668.9332 936.2549,-1674.9332 936.2549,-1680.9332 936.2549,-1680.9332 936.2549,-1728.9332 936.2549,-1728.9332 936.2549,-1734.9332 930.2549,-1740.9332 924.2549,-1740.9332 924.2549,-1740.9332 841.2549,-1740.9332 841.2549,-1740.9332 835.2549,-1740.9332 829.2549,-1734.9332 829.2549,-1728.9332 829.2549,-1728.9332 829.2549,-1680.9332 829.2549,-1680.9332 829.2549,-1674.9332 835.2549,-1668.9332 841.2549,-1668.9332"/>
<text text-anchor="middle" x="882.7549" y="-1728.1332" font-family="Times,serif" font-size="11.00" fill="#c0c0c0">Queries</text>
</g>
<g id="clust7" class="cluster">
<title>cluster_\Firesphere</title>
<path fill="none" stroke="#c0c0c0" d="M173.1275,-484.9332C173.1275,-484.9332 777.2549,-484.9332 777.2549,-484.9332 783.2549,-484.9332 789.2549,-490.9332 789.2549,-496.9332 789.2549,-496.9332 789.2549,-3596.9332 789.2549,-3596.9332 789.2549,-3602.9332 783.2549,-3608.9332 777.2549,-3608.9332 777.2549,-3608.9332 173.1275,-3608.9332 173.1275,-3608.9332 167.1275,-3608.9332 161.1275,-3602.9332 161.1275,-3596.9332 161.1275,-3596.9332 161.1275,-496.9332 161.1275,-496.9332 161.1275,-490.9332 167.1275,-484.9332 173.1275,-484.9332"/>
<text text-anchor="middle" x="475.1912" y="-3596.1332" font-family="Times,serif" font-size="11.00" fill="#c0c0c0">Firesphere</text>
</g>
<g id="clust8" class="cluster">
<title>cluster_\Firesphere\SolrSearch</title>
<path fill="none" stroke="#c0c0c0" d="M181.1275,-492.9332C181.1275,-492.9332 769.2549,-492.9332 769.2549,-492.9332 775.2549,-492.9332 781.2549,-498.9332 781.2549,-504.9332 781.2549,-504.9332 781.2549,-3568.9332 781.2549,-3568.9332 781.2549,-3574.9332 775.2549,-3580.9332 769.2549,-3580.9332 769.2549,-3580.9332 181.1275,-3580.9332 181.1275,-3580.9332 175.1275,-3580.9332 169.1275,-3574.9332 169.1275,-3568.9332 169.1275,-3568.9332 169.1275,-504.9332 169.1275,-504.9332 169.1275,-498.9332 175.1275,-492.9332 181.1275,-492.9332"/>
<text text-anchor="middle" x="475.1912" y="-3568.1332" font-family="Times,serif" font-size="11.00" fill="#c0c0c0">SolrSearch</text>
</g>
<g id="clust9" class="cluster">
<title>cluster_\Firesphere\SolrSearch\Compat</title>
<path fill="none" stroke="#c0c0c0" d="M590.7549,-3346.9332C590.7549,-3346.9332 754.7549,-3346.9332 754.7549,-3346.9332 760.7549,-3346.9332 766.7549,-3352.9332 766.7549,-3358.9332 766.7549,-3358.9332 766.7549,-3406.9332 766.7549,-3406.9332 766.7549,-3412.9332 760.7549,-3418.9332 754.7549,-3418.9332 754.7549,-3418.9332 590.7549,-3418.9332 590.7549,-3418.9332 584.7549,-3418.9332 578.7549,-3412.9332 578.7549,-3406.9332 578.7549,-3406.9332 578.7549,-3358.9332 578.7549,-3358.9332 578.7549,-3352.9332 584.7549,-3346.9332 590.7549,-3346.9332"/>
<text text-anchor="middle" x="672.7549" y="-3406.1332" font-family="Times,serif" font-size="11.00" fill="#c0c0c0">Compat</text>
</g>
<g id="clust10" class="cluster">
<title>cluster_\Firesphere\SolrSearch\Admins</title>
<path fill="none" stroke="#c0c0c0" d="M631.2549,-3266.9332C631.2549,-3266.9332 714.2549,-3266.9332 714.2549,-3266.9332 720.2549,-3266.9332 726.2549,-3272.9332 726.2549,-3278.9332 726.2549,-3278.9332 726.2549,-3326.9332 726.2549,-3326.9332 726.2549,-3332.9332 720.2549,-3338.9332 714.2549,-3338.9332 714.2549,-3338.9332 631.2549,-3338.9332 631.2549,-3338.9332 625.2549,-3338.9332 619.2549,-3332.9332 619.2549,-3326.9332 619.2549,-3326.9332 619.2549,-3278.9332 619.2549,-3278.9332 619.2549,-3272.9332 625.2549,-3266.9332 631.2549,-3266.9332"/>
<text text-anchor="middle" x="672.7549" y="-3326.1332" font-family="Times,serif" font-size="11.00" fill="#c0c0c0">Admins</text>
</g>
<g id="clust11" class="cluster">
<title>cluster_\Firesphere\SolrSearch\Jobs</title>
<path fill="none" stroke="#c0c0c0" d="M600.7549,-3078.9332C600.7549,-3078.9332 744.7549,-3078.9332 744.7549,-3078.9332 750.7549,-3078.9332 756.7549,-3084.9332 756.7549,-3090.9332 756.7549,-3090.9332 756.7549,-3246.9332 756.7549,-3246.9332 756.7549,-3252.9332 750.7549,-3258.9332 744.7549,-3258.9332 744.7549,-3258.9332 600.7549,-3258.9332 600.7549,-3258.9332 594.7549,-3258.9332 588.7549,-3252.9332 588.7549,-3246.9332 588.7549,-3246.9332 588.7549,-3090.9332 588.7549,-3090.9332 588.7549,-3084.9332 594.7549,-3078.9332 600.7549,-3078.9332"/>
<text text-anchor="middle" x="672.7549" y="-3246.1332" font-family="Times,serif" font-size="11.00" fill="#c0c0c0">Jobs</text>
</g>
<g id="clust12" class="cluster">
<title>cluster_\Firesphere\SolrSearch\Tasks</title>
<path fill="none" stroke="#c0c0c0" d="M597.7549,-2836.9332C597.7549,-2836.9332 747.7549,-2836.9332 747.7549,-2836.9332 753.7549,-2836.9332 759.7549,-2842.9332 759.7549,-2848.9332 759.7549,-2848.9332 759.7549,-3058.9332 759.7549,-3058.9332 759.7549,-3064.9332 753.7549,-3070.9332 747.7549,-3070.9332 747.7549,-3070.9332 597.7549,-3070.9332 597.7549,-3070.9332 591.7549,-3070.9332 585.7549,-3064.9332 585.7549,-3058.9332 585.7549,-3058.9332 585.7549,-2848.9332 585.7549,-2848.9332 585.7549,-2842.9332 591.7549,-2836.9332 597.7549,-2836.9332"/>
<text text-anchor="middle" x="672.7549" y="-3058.1332" font-family="Times,serif" font-size="11.00" fill="#c0c0c0">Tasks</text>
</g>
<g id="clust13" class="cluster">
<title>cluster_\Firesphere\SolrSearch\Forms</title>
<path fill="none" stroke="#c0c0c0" d="M634.7549,-2756.9332C634.7549,-2756.9332 710.7549,-2756.9332 710.7549,-2756.9332 716.7549,-2756.9332 722.7549,-2762.9332 722.7549,-2768.9332 722.7549,-2768.9332 722.7549,-2816.9332 722.7549,-2816.9332 722.7549,-2822.9332 716.7549,-2828.9332 710.7549,-2828.9332 710.7549,-2828.9332 634.7549,-2828.9332 634.7549,-2828.9332 628.7549,-2828.9332 622.7549,-2822.9332 622.7549,-2816.9332 622.7549,-2816.9332 622.7549,-2768.9332 622.7549,-2768.9332 622.7549,-2762.9332 628.7549,-2756.9332 634.7549,-2756.9332"/>
<text text-anchor="middle" x="672.7549" y="-2816.1332" font-family="Times,serif" font-size="11.00" fill="#c0c0c0">Forms</text>
</g>
<g id="clust14" class="cluster">
<title>cluster_\Firesphere\SolrSearch\Stores</title>
<path fill="none" stroke="#c0c0c0" d="M617.7549,-3426.9332C617.7549,-3426.9332 727.7549,-3426.9332 727.7549,-3426.9332 733.7549,-3426.9332 739.7549,-3432.9332 739.7549,-3438.9332 739.7549,-3438.9332 739.7549,-3540.9332 739.7549,-3540.9332 739.7549,-3546.9332 733.7549,-3552.9332 727.7549,-3552.9332 727.7549,-3552.9332 617.7549,-3552.9332 617.7549,-3552.9332 611.7549,-3552.9332 605.7549,-3546.9332 605.7549,-3540.9332 605.7549,-3540.9332 605.7549,-3438.9332 605.7549,-3438.9332 605.7549,-3432.9332 611.7549,-3426.9332 617.7549,-3426.9332"/>
<text text-anchor="middle" x="672.7549" y="-3540.1332" font-family="Times,serif" font-size="11.00" fill="#c0c0c0">Stores</text>
</g>
<g id="clust15" class="cluster">
<title>cluster_\Firesphere\SolrSearch\Services</title>
<path fill="none" stroke="#c0c0c0" d="M617.7549,-2622.9332C617.7549,-2622.9332 727.7549,-2622.9332 727.7549,-2622.9332 733.7549,-2622.9332 739.7549,-2628.9332 739.7549,-2634.9332 739.7549,-2634.9332 739.7549,-2736.9332 739.7549,-2736.9332 739.7549,-2742.9332 733.7549,-2748.9332 727.7549,-2748.9332 727.7549,-2748.9332 617.7549,-2748.9332 617.7549,-2748.9332 611.7549,-2748.9332 605.7549,-2742.9332 605.7549,-2736.9332 605.7549,-2736.9332 605.7549,-2634.9332 605.7549,-2634.9332 605.7549,-2628.9332 611.7549,-2622.9332 617.7549,-2622.9332"/>
<text text-anchor="middle" x="672.7549" y="-2736.1332" font-family="Times,serif" font-size="11.00" fill="#c0c0c0">Services</text>
</g>
<g id="clust16" class="cluster">
<title>cluster_\Firesphere\SolrSearch\Indexes</title>
<path fill="none" stroke="#c0c0c0" d="M634.7549,-2542.9332C634.7549,-2542.9332 710.7549,-2542.9332 710.7549,-2542.9332 716.7549,-2542.9332 722.7549,-2548.9332 722.7549,-2554.9332 722.7549,-2554.9332 722.7549,-2602.9332 722.7549,-2602.9332 722.7549,-2608.9332 716.7549,-2614.9332 710.7549,-2614.9332 710.7549,-2614.9332 634.7549,-2614.9332 634.7549,-2614.9332 628.7549,-2614.9332 622.7549,-2608.9332 622.7549,-2602.9332 622.7549,-2602.9332 622.7549,-2554.9332 622.7549,-2554.9332 622.7549,-2548.9332 628.7549,-2542.9332 634.7549,-2542.9332"/>
<text text-anchor="middle" x="672.7549" y="-2602.1332" font-family="Times,serif" font-size="11.00" fill="#c0c0c0">Indexes</text>
</g>
<g id="clust17" class="cluster">
<title>cluster_\Firesphere\SolrSearch\States</title>
<path fill="none" stroke="#c0c0c0" d="M634.7549,-2462.9332C634.7549,-2462.9332 710.7549,-2462.9332 710.7549,-2462.9332 716.7549,-2462.9332 722.7549,-2468.9332 722.7549,-2474.9332 722.7549,-2474.9332 722.7549,-2522.9332 722.7549,-2522.9332 722.7549,-2528.9332 716.7549,-2534.9332 710.7549,-2534.9332 710.7549,-2534.9332 634.7549,-2534.9332 634.7549,-2534.9332 628.7549,-2534.9332 622.7549,-2528.9332 622.7549,-2522.9332 622.7549,-2522.9332 622.7549,-2474.9332 622.7549,-2474.9332 622.7549,-2468.9332 628.7549,-2462.9332 634.7549,-2462.9332"/>
<text text-anchor="middle" x="672.7549" y="-2522.1332" font-family="Times,serif" font-size="11.00" fill="#c0c0c0">States</text>
</g>
<g id="clust18" class="cluster">
<title>cluster_\Firesphere\SolrSearch\Extensions</title>
<path fill="none" stroke="#c0c0c0" d="M604.2549,-2328.9332C604.2549,-2328.9332 741.2549,-2328.9332 741.2549,-2328.9332 747.2549,-2328.9332 753.2549,-2334.9332 753.2549,-2340.9332 753.2549,-2340.9332 753.2549,-2442.9332 753.2549,-2442.9332 753.2549,-2448.9332 747.2549,-2454.9332 741.2549,-2454.9332 741.2549,-2454.9332 604.2549,-2454.9332 604.2549,-2454.9332 598.2549,-2454.9332 592.2549,-2448.9332 592.2549,-2442.9332 592.2549,-2442.9332 592.2549,-2340.9332 592.2549,-2340.9332 592.2549,-2334.9332 598.2549,-2328.9332 604.2549,-2328.9332"/>
<text text-anchor="middle" x="672.7549" y="-2442.1332" font-family="Times,serif" font-size="11.00" fill="#c0c0c0">Extensions</text>
</g>
<g id="clust19" class="cluster">
<title>cluster_\Firesphere\SolrSearch\Factories</title>
<path fill="none" stroke="#c0c0c0" d="M597.7549,-2194.9332C597.7549,-2194.9332 747.7549,-2194.9332 747.7549,-2194.9332 753.7549,-2194.9332 759.7549,-2200.9332 759.7549,-2206.9332 759.7549,-2206.9332 759.7549,-2308.9332 759.7549,-2308.9332 759.7549,-2314.9332 753.7549,-2320.9332 747.7549,-2320.9332 747.7549,-2320.9332 597.7549,-2320.9332 597.7549,-2320.9332 591.7549,-2320.9332 585.7549,-2314.9332 585.7549,-2308.9332 585.7549,-2308.9332 585.7549,-2206.9332 585.7549,-2206.9332 585.7549,-2200.9332 591.7549,-2194.9332 597.7549,-2194.9332"/>
<text text-anchor="middle" x="672.7549" y="-2308.1332" font-family="Times,serif" font-size="11.00" fill="#c0c0c0">Factories</text>
</g>
<g id="clust20" class="cluster">
<title>cluster_\Firesphere\SolrSearch\Interfaces</title>
<path fill="none" stroke="#c0c0c0" d="M189.1275,-3426.9332C189.1275,-3426.9332 319.1275,-3426.9332 319.1275,-3426.9332 325.1275,-3426.9332 331.1275,-3432.9332 331.1275,-3438.9332 331.1275,-3438.9332 331.1275,-3540.9332 331.1275,-3540.9332 331.1275,-3546.9332 325.1275,-3552.9332 319.1275,-3552.9332 319.1275,-3552.9332 189.1275,-3552.9332 189.1275,-3552.9332 183.1275,-3552.9332 177.1275,-3546.9332 177.1275,-3540.9332 177.1275,-3540.9332 177.1275,-3438.9332 177.1275,-3438.9332 177.1275,-3432.9332 183.1275,-3426.9332 189.1275,-3426.9332"/>
<text text-anchor="middle" x="254.1275" y="-3540.1332" font-family="Times,serif" font-size="11.00" fill="#c0c0c0">Interfaces</text>
</g>
<g id="clust21" class="cluster">
<title>cluster_\Firesphere\SolrSearch\Results</title>
<path fill="none" stroke="#c0c0c0" d="M627.7549,-2114.9332C627.7549,-2114.9332 717.7549,-2114.9332 717.7549,-2114.9332 723.7549,-2114.9332 729.7549,-2120.9332 729.7549,-2126.9332 729.7549,-2126.9332 729.7549,-2174.9332 729.7549,-2174.9332 729.7549,-2180.9332 723.7549,-2186.9332 717.7549,-2186.9332 717.7549,-2186.9332 627.7549,-2186.9332 627.7549,-2186.9332 621.7549,-2186.9332 615.7549,-2180.9332 615.7549,-2174.9332 615.7549,-2174.9332 615.7549,-2126.9332 615.7549,-2126.9332 615.7549,-2120.9332 621.7549,-2114.9332 627.7549,-2114.9332"/>
<text text-anchor="middle" x="672.7549" y="-2174.1332" font-family="Times,serif" font-size="11.00" fill="#c0c0c0">Results</text>
</g>
<g id="clust22" class="cluster">
<title>cluster_\Firesphere\SolrSearch\Models</title>
<path fill="none" stroke="#c0c0c0" d="M624.7549,-1926.9332C624.7549,-1926.9332 720.7549,-1926.9332 720.7549,-1926.9332 726.7549,-1926.9332 732.7549,-1932.9332 732.7549,-1938.9332 732.7549,-1938.9332 732.7549,-2094.9332 732.7549,-2094.9332 732.7549,-2100.9332 726.7549,-2106.9332 720.7549,-2106.9332 720.7549,-2106.9332 624.7549,-2106.9332 624.7549,-2106.9332 618.7549,-2106.9332 612.7549,-2100.9332 612.7549,-2094.9332 612.7549,-2094.9332 612.7549,-1938.9332 612.7549,-1938.9332 612.7549,-1932.9332 618.7549,-1926.9332 624.7549,-1926.9332"/>
<text text-anchor="middle" x="672.7549" y="-2094.1332" font-family="Times,serif" font-size="11.00" fill="#c0c0c0">Models</text>
</g>
<g id="clust23" class="cluster">
<title>cluster_\Firesphere\SolrSearch\Traits</title>
<path fill="none" stroke="#c0c0c0" d="M584.2549,-1036.9332C584.2549,-1036.9332 761.2549,-1036.9332 761.2549,-1036.9332 767.2549,-1036.9332 773.2549,-1042.9332 773.2549,-1048.9332 773.2549,-1048.9332 773.2549,-1906.9332 773.2549,-1906.9332 773.2549,-1912.9332 767.2549,-1918.9332 761.2549,-1918.9332 761.2549,-1918.9332 584.2549,-1918.9332 584.2549,-1918.9332 578.2549,-1918.9332 572.2549,-1912.9332 572.2549,-1906.9332 572.2549,-1906.9332 572.2549,-1048.9332 572.2549,-1048.9332 572.2549,-1042.9332 578.2549,-1036.9332 584.2549,-1036.9332"/>
<text text-anchor="middle" x="672.7549" y="-1906.1332" font-family="Times,serif" font-size="11.00" fill="#c0c0c0">Traits</text>
</g>
<g id="clust24" class="cluster">
<title>cluster_\Firesphere\SolrSearch\Queries</title>
<path fill="none" stroke="#c0c0c0" d="M638.2549,-956.9332C638.2549,-956.9332 707.2549,-956.9332 707.2549,-956.9332 713.2549,-956.9332 719.2549,-962.9332 719.2549,-968.9332 719.2549,-968.9332 719.2549,-1016.9332 719.2549,-1016.9332 719.2549,-1022.9332 713.2549,-1028.9332 707.2549,-1028.9332 707.2549,-1028.9332 638.2549,-1028.9332 638.2549,-1028.9332 632.2549,-1028.9332 626.2549,-1022.9332 626.2549,-1016.9332 626.2549,-1016.9332 626.2549,-968.9332 626.2549,-968.9332 626.2549,-962.9332 632.2549,-956.9332 638.2549,-956.9332"/>
<text text-anchor="middle" x="672.7549" y="-1016.1332" font-family="Times,serif" font-size="11.00" fill="#c0c0c0">Queries</text>
</g>
<g id="clust25" class="cluster">
<title>cluster_\Firesphere\SolrSearch\Helpers</title>
<path fill="none" stroke="#c0c0c0" d="M624.7549,-660.9332C624.7549,-660.9332 720.7549,-660.9332 720.7549,-660.9332 726.7549,-660.9332 732.7549,-666.9332 732.7549,-672.9332 732.7549,-672.9332 732.7549,-936.9332 732.7549,-936.9332 732.7549,-942.9332 726.7549,-948.9332 720.7549,-948.9332 720.7549,-948.9332 624.7549,-948.9332 624.7549,-948.9332 618.7549,-948.9332 612.7549,-942.9332 612.7549,-936.9332 612.7549,-936.9332 612.7549,-672.9332 612.7549,-672.9332 612.7549,-666.9332 618.7549,-660.9332 624.7549,-660.9332"/>
<text text-anchor="middle" x="672.7549" y="-936.1332" font-family="Times,serif" font-size="11.00" fill="#c0c0c0">Helpers</text>
</g>
<g id="clust26" class="cluster">
<title>cluster_\Firesphere\SolrSearch\Fluent</title>
<path fill="none" stroke="#c0c0c0" d="M617.7549,-580.9332C617.7549,-580.9332 727.7549,-580.9332 727.7549,-580.9332 733.7549,-580.9332 739.7549,-586.9332 739.7549,-592.9332 739.7549,-592.9332 739.7549,-640.9332 739.7549,-640.9332 739.7549,-646.9332 733.7549,-652.9332 727.7549,-652.9332 727.7549,-652.9332 617.7549,-652.9332 617.7549,-652.9332 611.7549,-652.9332 605.7549,-646.9332 605.7549,-640.9332 605.7549,-640.9332 605.7549,-592.9332 605.7549,-592.9332 605.7549,-586.9332 611.7549,-580.9332 617.7549,-580.9332"/>
<text text-anchor="middle" x="672.7549" y="-640.1332" font-family="Times,serif" font-size="11.00" fill="#c0c0c0">Fluent</text>
</g>
<g id="clust27" class="cluster">
<title>cluster_\Firesphere\SolrSearch\Subsites</title>
<path fill="none" stroke="#c0c0c0" d="M611.2549,-500.9332C611.2549,-500.9332 734.2549,-500.9332 734.2549,-500.9332 740.2549,-500.9332 746.2549,-506.9332 746.2549,-512.9332 746.2549,-512.9332 746.2549,-560.9332 746.2549,-560.9332 746.2549,-566.9332 740.2549,-572.9332 734.2549,-572.9332 734.2549,-572.9332 611.2549,-572.9332 611.2549,-572.9332 605.2549,-572.9332 599.2549,-566.9332 599.2549,-560.9332 599.2549,-560.9332 599.2549,-512.9332 599.2549,-512.9332 599.2549,-506.9332 605.2549,-500.9332 611.2549,-500.9332"/>
<text text-anchor="middle" x="672.7549" y="-560.1332" font-family="Times,serif" font-size="11.00" fill="#c0c0c0">Subsites</text>
</g>
<!-- \\SilverStripe\\FullTextSearch\\Solr\\SolrIndex -->
<g id="node1" class="node">
<title>\\SilverStripe\\FullTextSearch\\Solr\\SolrIndex</title>
<polygon fill="none" stroke="#000000" points="924.7549,-1874.9332 840.7549,-1874.9332 840.7549,-1838.9332 924.7549,-1838.9332 924.7549,-1874.9332"/>
<text text-anchor="start" x="848.7549" y="-1860.1332" font-family="Courier,monospace" font-size="11.00" fill="#000000">«abstract»</text>
<text text-anchor="start" x="852.2549" y="-1848.1332" font-family="Courier,monospace" font-size="11.00" fill="#000000">SolrIndex</text>
</g>
<!-- \\Firesphere\\SolrSearch\\Indexes\\BaseIndex -->
<g id="node18" class="node">
<title>\\Firesphere\\SolrSearch\\Indexes\\BaseIndex</title>
<polygon fill="none" stroke="#000000" points="714.7549,-2586.9332 630.7549,-2586.9332 630.7549,-2550.9332 714.7549,-2550.9332 714.7549,-2586.9332"/>
<text text-anchor="start" x="638.7549" y="-2572.1332" font-family="Courier,monospace" font-size="11.00" fill="#000000">«abstract»</text>
<text text-anchor="start" x="642.2549" y="-2560.1332" font-family="Courier,monospace" font-size="11.00" fill="#000000">BaseIndex</text>
</g>
<!-- \\SilverStripe\\FullTextSearch\\Solr\\SolrIndex&#45;&gt;\\Firesphere\\SolrSearch\\Indexes\\BaseIndex -->
<g id="edge1" class="edge">
<title>\\SilverStripe\\FullTextSearch\\Solr\\SolrIndex&#45;&gt;\\Firesphere\\SolrSearch\\Indexes\\BaseIndex</title>
<path fill="none" stroke="#000000" d="M881.4716,-1875.0205C874.0096,-1978.005 834.9532,-2487.6117 789.2549,-2538.9332 773.1637,-2557.0044 747.7765,-2564.8633 724.803,-2568.0521"/>
<polygon fill="none" stroke="#000000" points="724.3458,-2564.5814 714.8005,-2569.1789 725.1294,-2571.5374 724.3458,-2564.5814"/>
</g>
<!-- \\SilverStripe\\FullTextSearch\\Solr\\Solr -->
<g id="node2" class="node">
<title>\\SilverStripe\\FullTextSearch\\Solr\\Solr</title>
<polygon fill="none" stroke="#000000" points="909.7549,-1820.9332 855.7549,-1820.9332 855.7549,-1784.9332 909.7549,-1784.9332 909.7549,-1820.9332"/>
<text text-anchor="middle" x="882.7549" y="-1800.1332" font-family="Courier,monospace" font-size="11.00" fill="#000000">Solr</text>
</g>
<!-- \\SilverStripe\\FullTextSearch\\Search\\Queries\\SearchQuery -->
<g id="node3" class="node">
<title>\\SilverStripe\\FullTextSearch\\Search\\Queries\\SearchQuery</title>
<polygon fill="none" stroke="#000000" points="928.2549,-1712.9332 837.2549,-1712.9332 837.2549,-1676.9332 928.2549,-1676.9332 928.2549,-1712.9332"/>
<text text-anchor="middle" x="882.7549" y="-1692.1332" font-family="Courier,monospace" font-size="11.00" fill="#000000">SearchQuery</text>
</g>
<!-- \\Firesphere\\SolrSearch\\Queries\\BaseQuery -->
<g id="node46" class="node">
<title>\\Firesphere\\SolrSearch\\Queries\\BaseQuery</title>
<polygon fill="none" stroke="#000000" points="711.2549,-1000.9332 634.2549,-1000.9332 634.2549,-964.9332 711.2549,-964.9332 711.2549,-1000.9332"/>
<text text-anchor="middle" x="672.7549" y="-980.1332" font-family="Courier,monospace" font-size="11.00" fill="#000000">BaseQuery</text>
</g>
<!-- \\SilverStripe\\FullTextSearch\\Search\\Queries\\SearchQuery&#45;&gt;\\Firesphere\\SolrSearch\\Queries\\BaseQuery -->
<g id="edge3" class="edge">
<title>\\SilverStripe\\FullTextSearch\\Search\\Queries\\SearchQuery&#45;&gt;\\Firesphere\\SolrSearch\\Queries\\BaseQuery</title>
<path fill="none" stroke="#000000" d="M882.5287,-1676.6795C881.0032,-1581.033 869.6336,-1138.0434 789.2549,-1032.9332 772.8037,-1011.4201 745.2525,-999.0363 721.0725,-991.9759"/>
<polygon fill="none" stroke="#000000" points="721.8737,-988.5671 711.3079,-989.3508 720.0563,-995.3271 721.8737,-988.5671"/>
</g>
<!-- \\Firesphere\\SolrSearch\\Compat\\FulltextSearchExtension -->
<g id="node4" class="node">
<title>\\Firesphere\\SolrSearch\\Compat\\FulltextSearchExtension</title>
<polygon fill="none" stroke="#000000" points="758.7549,-3390.9332 586.7549,-3390.9332 586.7549,-3354.9332 758.7549,-3354.9332 758.7549,-3390.9332"/>
<text text-anchor="middle" x="672.7549" y="-3370.1332" font-family="Courier,monospace" font-size="11.00" fill="#000000">FulltextSearchExtension</text>
</g>
<!-- \\SilverStripe\\Core\\Extension -->
<g id="node54" class="node">
<title>\\SilverStripe\\Core\\Extension</title>
<ellipse fill="none" stroke="#000000" cx="254.1275" cy="-180.9332" rx="144.0747" ry="18"/>
<text text-anchor="middle" x="254.1275" y="-177.2332" font-family="Times,serif" font-size="14.00" fill="#c0c0c0">\SilverStripe\Core\Extension</text>
</g>
<!-- \\Firesphere\\SolrSearch\\Compat\\FulltextSearchExtension&#45;&gt;\\SilverStripe\\Core\\Extension -->
<g id="edge2" class="edge">
<title>\\Firesphere\\SolrSearch\\Compat\\FulltextSearchExtension&#45;&gt;\\SilverStripe\\Core\\Extension</title>
<path fill="none" stroke="#000000" d="M586.4541,-3356.103C581.0658,-3352.4918 576.2249,-3348.1494 572.2549,-3342.9332 466.7519,-3204.3121 626.0621,-336.2613 508.2549,-207.9332 466.4345,-162.378 394.8208,-158.4249 338.2532,-164.2768"/>
<polygon fill="none" stroke="#000000" points="337.7705,-160.8091 328.2365,-165.43 338.5712,-167.7632 337.7705,-160.8091"/>
</g>
<!-- \\Firesphere\\SolrSearch\\Admins\\SearchAdmin -->
<g id="node5" class="node">
<title>\\Firesphere\\SolrSearch\\Admins\\SearchAdmin</title>
<polygon fill="none" stroke="#000000" points="718.2549,-3310.9332 627.2549,-3310.9332 627.2549,-3274.9332 718.2549,-3274.9332 718.2549,-3310.9332"/>
<text text-anchor="middle" x="672.7549" y="-3290.1332" font-family="Courier,monospace" font-size="11.00" fill="#000000">SearchAdmin</text>
</g>
<!-- \\SilverStripe\\Admin\\ModelAdmin -->
<g id="node55" class="node">
<title>\\SilverStripe\\Admin\\ModelAdmin</title>
<ellipse fill="none" stroke="#000000" cx="254.1275" cy="-450.9332" rx="165.1707" ry="18"/>
<text text-anchor="middle" x="254.1275" y="-447.2332" font-family="Times,serif" font-size="14.00" fill="#c0c0c0">\SilverStripe\Admin\ModelAdmin</text>
</g>
<!-- \\Firesphere\\SolrSearch\\Admins\\SearchAdmin&#45;&gt;\\SilverStripe\\Admin\\ModelAdmin -->
<g id="edge4" class="edge">
<title>\\Firesphere\\SolrSearch\\Admins\\SearchAdmin&#45;&gt;\\SilverStripe\\Admin\\ModelAdmin</title>
<path fill="none" stroke="#000000" d="M627.1044,-3290.2722C607.3369,-3286.6787 585.6916,-3278.9936 572.2549,-3262.9332 382.9672,-3036.6832 268.8479,-760.0325 255.4555,-479.2771"/>
<polygon fill="none" stroke="#000000" points="258.9429,-478.9259 254.9727,-469.103 251.9507,-479.2577 258.9429,-478.9259"/>
</g>
<!-- \\Firesphere\\SolrSearch\\Jobs\\ClearDirtyClassesJob -->
<g id="node6" class="node">
<title>\\Firesphere\\SolrSearch\\Jobs\\ClearDirtyClassesJob</title>
<polygon fill="none" stroke="#000000" points="748.7549,-3230.9332 596.7549,-3230.9332 596.7549,-3194.9332 748.7549,-3194.9332 748.7549,-3230.9332"/>
<text text-anchor="middle" x="672.7549" y="-3210.1332" font-family="Courier,monospace" font-size="11.00" fill="#000000">ClearDirtyClassesJob</text>
</g>
<!-- \\Symbiote\\QueuedJobs\\Services\\AbstractQueuedJob -->
<g id="node56" class="node">
<title>\\Symbiote\\QueuedJobs\\Services\\AbstractQueuedJob</title>
<ellipse fill="none" stroke="#000000" cx="254.1275" cy="-396.9332" rx="254.255" ry="18"/>
<text text-anchor="middle" x="254.1275" y="-393.2332" font-family="Times,serif" font-size="14.00" fill="#c0c0c0">\Symbiote\QueuedJobs\Services\AbstractQueuedJob</text>
</g>
<!-- \\Firesphere\\SolrSearch\\Jobs\\ClearDirtyClassesJob&#45;&gt;\\Symbiote\\QueuedJobs\\Services\\AbstractQueuedJob -->
<g id="edge5" class="edge">
<title>\\Firesphere\\SolrSearch\\Jobs\\ClearDirtyClassesJob&#45;&gt;\\Symbiote\\QueuedJobs\\Services\\AbstractQueuedJob</title>
<path fill="none" stroke="#000000" d="M596.5136,-3204.0343C587.1259,-3199.8629 578.6155,-3194.032 572.2549,-3185.9332 477.4544,-3065.224 612.2074,-536.8566 508.2549,-423.9332 469.5703,-381.9101 405.5272,-375.3242 351.4131,-379.1613"/>
<polygon fill="none" stroke="#000000" points="351.1076,-375.6745 341.4327,-379.9929 351.6889,-382.6504 351.1076,-375.6745"/>
</g>
<!-- \\Firesphere\\SolrSearch\\Jobs\\SolrConfigureJob -->
<g id="node7" class="node">
<title>\\Firesphere\\SolrSearch\\Jobs\\SolrConfigureJob</title>
<polygon fill="none" stroke="#000000" points="735.2549,-3176.9332 610.2549,-3176.9332 610.2549,-3140.9332 735.2549,-3140.9332 735.2549,-3176.9332"/>
<text text-anchor="middle" x="672.7549" y="-3156.1332" font-family="Courier,monospace" font-size="11.00" fill="#000000">SolrConfigureJob</text>
</g>
<!-- \\Firesphere\\SolrSearch\\Jobs\\SolrConfigureJob&#45;&gt;\\Symbiote\\QueuedJobs\\Services\\AbstractQueuedJob -->
<g id="edge6" class="edge">
<title>\\Firesphere\\SolrSearch\\Jobs\\SolrConfigureJob&#45;&gt;\\Symbiote\\QueuedJobs\\Services\\AbstractQueuedJob</title>
<path fill="none" stroke="#000000" d="M610.0517,-3154.8343C595.5076,-3150.7915 581.5753,-3143.7951 572.2549,-3131.9332 479.2795,-3013.6042 610.2017,-534.6265 508.2549,-423.9332 469.5606,-381.9191 405.5176,-375.3331 351.4059,-379.1679"/>
<polygon fill="none" stroke="#000000" points="351.101,-375.6811 341.426,-379.999 351.682,-382.6569 351.101,-375.6811"/>
</g>
<!-- \\Firesphere\\SolrSearch\\Jobs\\SolrIndexJob -->
<g id="node8" class="node">
<title>\\Firesphere\\SolrSearch\\Jobs\\SolrIndexJob</title>
<polygon fill="none" stroke="#000000" points="721.7549,-3122.9332 623.7549,-3122.9332 623.7549,-3086.9332 721.7549,-3086.9332 721.7549,-3122.9332"/>
<text text-anchor="middle" x="672.7549" y="-3102.1332" font-family="Courier,monospace" font-size="11.00" fill="#000000">SolrIndexJob</text>
</g>
<!-- \\Firesphere\\SolrSearch\\Jobs\\SolrIndexJob&#45;&gt;\\Symbiote\\QueuedJobs\\Services\\AbstractQueuedJob -->
<g id="edge7" class="edge">
<title>\\Firesphere\\SolrSearch\\Jobs\\SolrIndexJob&#45;&gt;\\Symbiote\\QueuedJobs\\Services\\AbstractQueuedJob</title>
<path fill="none" stroke="#000000" d="M623.5794,-3102.2695C604.4965,-3098.5552 584.3599,-3090.7766 572.2549,-3074.9332 482.8145,-2957.8699 608.0846,-532.2725 508.2549,-423.9332 469.5499,-381.9289 405.507,-375.3429 351.398,-379.1752"/>
<polygon fill="none" stroke="#000000" points="351.0938,-375.6883 341.4187,-380.0058 351.6746,-382.6642 351.0938,-375.6883"/>
</g>
<!-- \\Firesphere\\SolrSearch\\Tasks\\SolrIndexTask -->
<g id="node9" class="node">
<title>\\Firesphere\\SolrSearch\\Tasks\\SolrIndexTask</title>
<polygon fill="none" stroke="#000000" points="724.7549,-3042.9332 620.7549,-3042.9332 620.7549,-3006.9332 724.7549,-3006.9332 724.7549,-3042.9332"/>
<text text-anchor="middle" x="672.7549" y="-3022.1332" font-family="Courier,monospace" font-size="11.00" fill="#000000">SolrIndexTask</text>
</g>
<!-- \\SilverStripe\\Dev\\BuildTask -->
<g id="node57" class="node">
<title>\\SilverStripe\\Dev\\BuildTask</title>
<ellipse fill="none" stroke="#000000" cx="254.1275" cy="-342.9332" rx="139.9756" ry="18"/>
<text text-anchor="middle" x="254.1275" y="-339.2332" font-family="Times,serif" font-size="14.00" fill="#c0c0c0">\SilverStripe\Dev\BuildTask</text>
</g>
<!-- \\Firesphere\\SolrSearch\\Tasks\\SolrIndexTask&#45;&gt;\\SilverStripe\\Dev\\BuildTask -->
<g id="edge8" class="edge">
<title>\\Firesphere\\SolrSearch\\Tasks\\SolrIndexTask&#45;&gt;\\SilverStripe\\Dev\\BuildTask</title>
<path fill="none" stroke="#000000" d="M620.5584,-3023.2529C602.4526,-3019.859 583.813,-3012.6322 572.2549,-2997.9332 481.9833,-2883.1303 607.2303,-477.3227 508.2549,-369.9332 466.1322,-324.2296 394.0115,-320.4608 337.3376,-326.4176"/>
<polygon fill="none" stroke="#000000" points="336.8328,-322.9526 327.3062,-327.5887 337.6446,-329.9054 336.8328,-322.9526"/>
</g>
<!-- \\Firesphere\\SolrSearch\\Tasks\\ClearErrorsTask -->
<g id="node10" class="node">
<title>\\Firesphere\\SolrSearch\\Tasks\\ClearErrorsTask</title>
<polygon fill="none" stroke="#000000" points="731.7549,-2988.9332 613.7549,-2988.9332 613.7549,-2952.9332 731.7549,-2952.9332 731.7549,-2988.9332"/>
<text text-anchor="middle" x="672.7549" y="-2968.1332" font-family="Courier,monospace" font-size="11.00" fill="#000000">ClearErrorsTask</text>
</g>
<!-- \\Firesphere\\SolrSearch\\Tasks\\ClearErrorsTask&#45;&gt;\\SilverStripe\\Dev\\BuildTask -->
<g id="edge9" class="edge">
<title>\\Firesphere\\SolrSearch\\Tasks\\ClearErrorsTask&#45;&gt;\\SilverStripe\\Dev\\BuildTask</title>
<path fill="none" stroke="#000000" d="M613.7299,-2967.7822C597.8862,-2963.9223 582.3645,-2956.7833 572.2549,-2943.9332 483.8084,-2831.5105 605.2247,-475.0926 508.2549,-369.9332 466.1206,-324.2403 394.0009,-320.4705 337.3304,-326.4242"/>
<polygon fill="none" stroke="#000000" points="336.8265,-322.9591 327.2996,-327.5948 337.6379,-329.912 336.8265,-322.9591"/>
</g>
<!-- \\Firesphere\\SolrSearch\\Tasks\\ClearDirtyClassesTask -->
<g id="node11" class="node">
<title>\\Firesphere\\SolrSearch\\Tasks\\ClearDirtyClassesTask</title>
<polygon fill="none" stroke="#000000" points="751.7549,-2934.9332 593.7549,-2934.9332 593.7549,-2898.9332 751.7549,-2898.9332 751.7549,-2934.9332"/>
<text text-anchor="middle" x="672.7549" y="-2914.1332" font-family="Courier,monospace" font-size="11.00" fill="#000000">ClearDirtyClassesTask</text>
</g>
<!-- \\Firesphere\\SolrSearch\\Tasks\\ClearDirtyClassesTask&#45;&gt;\\SilverStripe\\Dev\\BuildTask -->
<g id="edge10" class="edge">
<title>\\Firesphere\\SolrSearch\\Tasks\\ClearDirtyClassesTask&#45;&gt;\\SilverStripe\\Dev\\BuildTask</title>
<path fill="none" stroke="#000000" d="M593.5952,-2906.6489C585.371,-2902.6001 577.954,-2897.1732 572.2549,-2889.9332 485.6335,-2779.8906 603.219,-472.8626 508.2549,-369.9332 466.1793,-324.3284 394.2326,-320.4935 337.6093,-326.4011"/>
<polygon fill="none" stroke="#000000" points="337.1157,-322.9348 327.5855,-327.5636 337.9222,-329.8882 337.1157,-322.9348"/>
</g>
<!-- \\Firesphere\\SolrSearch\\Tasks\\SolrConfigureTask -->
<g id="node12" class="node">
<title>\\Firesphere\\SolrSearch\\Tasks\\SolrConfigureTask</title>
<polygon fill="none" stroke="#000000" points="738.2549,-2880.9332 607.2549,-2880.9332 607.2549,-2844.9332 738.2549,-2844.9332 738.2549,-2880.9332"/>
<text text-anchor="middle" x="672.7549" y="-2860.1332" font-family="Courier,monospace" font-size="11.00" fill="#000000">SolrConfigureTask</text>
</g>
<!-- \\Firesphere\\SolrSearch\\Tasks\\SolrConfigureTask&#45;&gt;\\SilverStripe\\Dev\\BuildTask -->
<g id="edge11" class="edge">
<title>\\Firesphere\\SolrSearch\\Tasks\\SolrConfigureTask&#45;&gt;\\SilverStripe\\Dev\\BuildTask</title>
<path fill="none" stroke="#000000" d="M607.0804,-2855.9482C593.5902,-2851.4014 580.888,-2844.211 572.2549,-2832.9332 489.0533,-2724.2432 601.1019,-470.5087 508.2549,-369.9332 466.166,-324.3408 394.2205,-320.5047 337.601,-326.4087"/>
<polygon fill="none" stroke="#000000" points="337.1084,-322.9423 327.578,-327.5706 337.9145,-329.8958 337.1084,-322.9423"/>
</g>
<!-- \\Firesphere\\SolrSearch\\Forms\\SearchForm -->
<g id="node13" class="node">
<title>\\Firesphere\\SolrSearch\\Forms\\SearchForm</title>
<polygon fill="none" stroke="#000000" points="714.7549,-2800.9332 630.7549,-2800.9332 630.7549,-2764.9332 714.7549,-2764.9332 714.7549,-2800.9332"/>
<text text-anchor="middle" x="672.7549" y="-2780.1332" font-family="Courier,monospace" font-size="11.00" fill="#000000">SearchForm</text>
</g>
<!-- \\SilverStripe\\Forms\\Form -->
<g id="node58" class="node">
<title>\\SilverStripe\\Forms\\Form</title>
<ellipse fill="none" stroke="#000000" cx="254.1275" cy="-288.9332" rx="129.1772" ry="18"/>
<text text-anchor="middle" x="254.1275" y="-285.2332" font-family="Times,serif" font-size="14.00" fill="#c0c0c0">\SilverStripe\Forms\Form</text>
</g>
<!-- \\Firesphere\\SolrSearch\\Forms\\SearchForm&#45;&gt;\\SilverStripe\\Forms\\Form -->
<g id="edge12" class="edge">
<title>\\Firesphere\\SolrSearch\\Forms\\SearchForm&#45;&gt;\\SilverStripe\\Forms\\Form</title>
<path fill="none" stroke="#000000" d="M630.5876,-2781.4537C609.6034,-2778.3356 585.8711,-2770.7155 572.2549,-2752.9332 489.9162,-2645.4012 600.1363,-415.4349 508.2549,-315.9332 465.5917,-269.7316 392.2681,-266.4141 335.3141,-272.6565"/>
<polygon fill="none" stroke="#000000" points="334.7488,-269.1993 325.2426,-273.877 335.591,-276.1484 334.7488,-269.1993"/>
</g>
<!-- \\Firesphere\\SolrSearch\\Stores\\FileConfigStore -->
<g id="node14" class="node">
<title>\\Firesphere\\SolrSearch\\Stores\\FileConfigStore</title>
<polygon fill="none" stroke="#000000" points="731.7549,-3524.9332 613.7549,-3524.9332 613.7549,-3488.9332 731.7549,-3488.9332 731.7549,-3524.9332"/>
<text text-anchor="middle" x="672.7549" y="-3504.1332" font-family="Courier,monospace" font-size="11.00" fill="#000000">FileConfigStore</text>
</g>
<!-- \\Firesphere\\SolrSearch\\Interfaces\\ConfigStore -->
<g id="node25" class="node">
<title>\\Firesphere\\SolrSearch\\Interfaces\\ConfigStore</title>
<polygon fill="none" stroke="#000000" points="299.6275,-3470.9332 208.6275,-3470.9332 208.6275,-3434.9332 299.6275,-3434.9332 299.6275,-3470.9332"/>
<text text-anchor="middle" x="254.1275" y="-3450.1332" font-family="Courier,monospace" font-size="11.00" fill="#000000">ConfigStore</text>
</g>
<!-- \\Firesphere\\SolrSearch\\Stores\\FileConfigStore&#45;&gt;\\Firesphere\\SolrSearch\\Interfaces\\ConfigStore -->
<g id="edge13" class="edge">
<title>\\Firesphere\\SolrSearch\\Stores\\FileConfigStore&#45;&gt;\\Firesphere\\SolrSearch\\Interfaces\\ConfigStore</title>
<path fill="none" stroke="#000000" stroke-dasharray="1,5" d="M613.4867,-3496.3696C582.2454,-3491.0132 543.2453,-3484.6596 508.2549,-3479.9332 440.1774,-3470.7373 361.4881,-3462.7884 309.9264,-3457.9419"/>
<polygon fill="none" stroke="#000000" points="309.95,-3454.429 299.6682,-3456.9851 309.2998,-3461.3988 309.95,-3454.429"/>
</g>
<!-- \\Firesphere\\SolrSearch\\Stores\\PostConfigStore -->
<g id="node15" class="node">
<title>\\Firesphere\\SolrSearch\\Stores\\PostConfigStore</title>
<polygon fill="none" stroke="#000000" points="731.7549,-3470.9332 613.7549,-3470.9332 613.7549,-3434.9332 731.7549,-3434.9332 731.7549,-3470.9332"/>
<text text-anchor="middle" x="672.7549" y="-3450.1332" font-family="Courier,monospace" font-size="11.00" fill="#000000">PostConfigStore</text>
</g>
<!-- \\Firesphere\\SolrSearch\\Stores\\PostConfigStore&#45;&gt;\\Firesphere\\SolrSearch\\Interfaces\\ConfigStore -->
<g id="edge14" class="edge">
<title>\\Firesphere\\SolrSearch\\Stores\\PostConfigStore&#45;&gt;\\Firesphere\\SolrSearch\\Interfaces\\ConfigStore</title>
<path fill="none" stroke="#000000" stroke-dasharray="1,5" d="M613.6637,-3452.9332C532.8854,-3452.9332 389.0185,-3452.9332 309.9722,-3452.9332"/>
<polygon fill="none" stroke="#000000" points="309.7288,-3449.4333 299.7287,-3452.9332 309.7287,-3456.4333 309.7288,-3449.4333"/>
</g>
<!-- \\Firesphere\\SolrSearch\\Services\\SchemaService -->
<g id="node16" class="node">
<title>\\Firesphere\\SolrSearch\\Services\\SchemaService</title>
<polygon fill="none" stroke="#000000" points="724.7549,-2720.9332 620.7549,-2720.9332 620.7549,-2684.9332 724.7549,-2684.9332 724.7549,-2720.9332"/>
<text text-anchor="middle" x="672.7549" y="-2700.1332" font-family="Courier,monospace" font-size="11.00" fill="#000000">SchemaService</text>
</g>
<!-- \\SilverStripe\\View\\ViewableData -->
<g id="node59" class="node">
<title>\\SilverStripe\\View\\ViewableData</title>
<ellipse fill="none" stroke="#000000" cx="254.1275" cy="-234.9332" rx="163.2712" ry="18"/>
<text text-anchor="middle" x="254.1275" y="-231.2332" font-family="Times,serif" font-size="14.00" fill="#c0c0c0">\SilverStripe\View\ViewableData</text>
</g>
<!-- \\Firesphere\\SolrSearch\\Services\\SchemaService&#45;&gt;\\SilverStripe\\View\\ViewableData -->
<g id="edge15" class="edge">
<title>\\Firesphere\\SolrSearch\\Services\\SchemaService&#45;&gt;\\SilverStripe\\View\\ViewableData</title>
<path fill="none" stroke="#000000" d="M620.5753,-2701.2396C602.4715,-2697.8441 583.8289,-2690.6197 572.2549,-2675.9332 406.177,-2465.1919 690.3092,-459.0371 508.2549,-261.9332 467.233,-217.5201 397.8779,-212.7389 341.9763,-217.9816"/>
<polygon fill="none" stroke="#000000" points="341.2802,-214.5357 331.7047,-219.0699 342.0178,-221.4967 341.2802,-214.5357"/>
</g>
<!-- \\Firesphere\\SolrSearch\\Services\\SolrCoreService -->
<g id="node17" class="node">
<title>\\Firesphere\\SolrSearch\\Services\\SolrCoreService</title>
<polygon fill="none" stroke="#000000" points="731.7549,-2666.9332 613.7549,-2666.9332 613.7549,-2630.9332 731.7549,-2630.9332 731.7549,-2666.9332"/>
<text text-anchor="middle" x="672.7549" y="-2646.1332" font-family="Courier,monospace" font-size="11.00" fill="#000000">SolrCoreService</text>
</g>
<!-- \\Firesphere\\SolrSearch\\States\\SiteState -->
<g id="node19" class="node">
<title>\\Firesphere\\SolrSearch\\States\\SiteState</title>
<polygon fill="none" stroke="#000000" points="714.7549,-2506.9332 630.7549,-2506.9332 630.7549,-2470.9332 714.7549,-2470.9332 714.7549,-2506.9332"/>
<text text-anchor="start" x="638.7549" y="-2492.1332" font-family="Courier,monospace" font-size="11.00" fill="#000000">«abstract»</text>
<text text-anchor="start" x="642.2549" y="-2480.1332" font-family="Courier,monospace" font-size="11.00" fill="#000000">SiteState</text>
</g>
<!-- \\Firesphere\\SolrSearch\\Extensions\\GridFieldExtension -->
<g id="node20" class="node">
<title>\\Firesphere\\SolrSearch\\Extensions\\GridFieldExtension</title>
<polygon fill="none" stroke="#000000" points="741.7549,-2426.9332 603.7549,-2426.9332 603.7549,-2390.9332 741.7549,-2390.9332 741.7549,-2426.9332"/>
<text text-anchor="middle" x="672.7549" y="-2406.1332" font-family="Courier,monospace" font-size="11.00" fill="#000000">GridFieldExtension</text>
</g>
<!-- \\Firesphere\\SolrSearch\\Extensions\\GridFieldExtension&#45;&gt;\\SilverStripe\\Core\\Extension -->
<g id="edge16" class="edge">
<title>\\Firesphere\\SolrSearch\\Extensions\\GridFieldExtension&#45;&gt;\\SilverStripe\\Core\\Extension</title>
<path fill="none" stroke="#000000" d="M603.6202,-2402.7776C591.4818,-2398.5545 580.2092,-2391.9964 572.2549,-2381.9332 422.3989,-2192.3472 672.4822,-385.2156 508.2549,-207.9332 466.3007,-162.6438 394.8763,-158.6106 338.4126,-164.3651"/>
<polygon fill="none" stroke="#000000" points="337.9547,-160.8945 328.4135,-165.5007 338.7446,-167.8498 337.9547,-160.8945"/>
</g>
<!-- \\Firesphere\\SolrSearch\\Extensions\\DataObjectExtension -->
<g id="node21" class="node">
<title>\\Firesphere\\SolrSearch\\Extensions\\DataObjectExtension</title>
<polygon fill="none" stroke="#000000" points="745.2549,-2372.9332 600.2549,-2372.9332 600.2549,-2336.9332 745.2549,-2336.9332 745.2549,-2372.9332"/>
<text text-anchor="middle" x="672.7549" y="-2352.1332" font-family="Courier,monospace" font-size="11.00" fill="#000000">DataObjectExtension</text>
</g>
<!-- \\SilverStripe\\ORM\\DataExtension -->
<g id="node60" class="node">
<title>\\SilverStripe\\ORM\\DataExtension</title>
<ellipse fill="none" stroke="#000000" cx="254.1275" cy="-18.9332" rx="167.8704" ry="18"/>
<text text-anchor="middle" x="254.1275" y="-15.2332" font-family="Times,serif" font-size="14.00" fill="#c0c0c0">\SilverStripe\ORM\DataExtension</text>
</g>
<!-- \\Firesphere\\SolrSearch\\Extensions\\DataObjectExtension&#45;&gt;\\SilverStripe\\ORM\\DataExtension -->
<g id="edge17" class="edge">
<title>\\Firesphere\\SolrSearch\\Extensions\\DataObjectExtension&#45;&gt;\\SilverStripe\\ORM\\DataExtension</title>
<path fill="none" stroke="#000000" d="M600.1801,-2345.3297C589.3298,-2340.7787 579.4036,-2334.2515 572.2549,-2324.9332 418.0636,-2123.9429 680.2813,-231.8874 508.2549,-45.9332 467.4109,-1.7823 398.5632,3.1803 342.8233,-1.9222"/>
<polygon fill="none" stroke="#000000" points="342.1632,1.5282 332.5777,-2.9849 342.8854,-5.4344 342.1632,1.5282"/>
</g>
<!-- \\Firesphere\\SolrSearch\\Factories\\QueryComponentFactory -->
<g id="node22" class="node">
<title>\\Firesphere\\SolrSearch\\Factories\\QueryComponentFactory</title>
<polygon fill="none" stroke="#000000" points="751.7549,-2292.9332 593.7549,-2292.9332 593.7549,-2256.9332 751.7549,-2256.9332 751.7549,-2292.9332"/>
<text text-anchor="middle" x="672.7549" y="-2272.1332" font-family="Courier,monospace" font-size="11.00" fill="#000000">QueryComponentFactory</text>
</g>
<!-- \\Firesphere\\SolrSearch\\Factories\\DocumentFactory -->
<g id="node23" class="node">
<title>\\Firesphere\\SolrSearch\\Factories\\DocumentFactory</title>
<polygon fill="none" stroke="#000000" points="731.7549,-2238.9332 613.7549,-2238.9332 613.7549,-2202.9332 731.7549,-2202.9332 731.7549,-2238.9332"/>
<text text-anchor="middle" x="672.7549" y="-2218.1332" font-family="Courier,monospace" font-size="11.00" fill="#000000">DocumentFactory</text>
</g>
<!-- \\Firesphere\\SolrSearch\\Interfaces\\SiteStateInterface -->
<g id="node24" class="node">
<title>\\Firesphere\\SolrSearch\\Interfaces\\SiteStateInterface</title>
<polygon fill="none" stroke="#000000" points="323.1275,-3524.9332 185.1275,-3524.9332 185.1275,-3488.9332 323.1275,-3488.9332 323.1275,-3524.9332"/>
<text text-anchor="middle" x="254.1275" y="-3504.1332" font-family="Courier,monospace" font-size="11.00" fill="#000000">SiteStateInterface</text>
</g>
<!-- \\Firesphere\\SolrSearch\\Results\\SearchResult -->
<g id="node26" class="node">
<title>\\Firesphere\\SolrSearch\\Results\\SearchResult</title>
<polygon fill="none" stroke="#000000" points="721.7549,-2158.9332 623.7549,-2158.9332 623.7549,-2122.9332 721.7549,-2122.9332 721.7549,-2158.9332"/>
<text text-anchor="middle" x="672.7549" y="-2138.1332" font-family="Courier,monospace" font-size="11.00" fill="#000000">SearchResult</text>
</g>
<!-- \\Firesphere\\SolrSearch\\Models\\DirtyClass -->
<g id="node27" class="node">
<title>\\Firesphere\\SolrSearch\\Models\\DirtyClass</title>
<polygon fill="none" stroke="#000000" points="714.7549,-2078.9332 630.7549,-2078.9332 630.7549,-2042.9332 714.7549,-2042.9332 714.7549,-2078.9332"/>
<text text-anchor="middle" x="672.7549" y="-2058.1332" font-family="Courier,monospace" font-size="11.00" fill="#000000">DirtyClass</text>
</g>
<!-- \\SilverStripe\\ORM\\DataObject -->
<g id="node61" class="node">
<title>\\SilverStripe\\ORM\\DataObject</title>
<ellipse fill="none" stroke="#000000" cx="254.1275" cy="-126.9332" rx="152.9733" ry="18"/>
<text text-anchor="middle" x="254.1275" y="-123.2332" font-family="Times,serif" font-size="14.00" fill="#c0c0c0">\SilverStripe\ORM\DataObject</text>
</g>
<!-- \\Firesphere\\SolrSearch\\Models\\DirtyClass&#45;&gt;\\SilverStripe\\ORM\\DataObject -->
<g id="edge18" class="edge">
<title>\\Firesphere\\SolrSearch\\Models\\DirtyClass&#45;&gt;\\SilverStripe\\ORM\\DataObject</title>
<path fill="none" stroke="#000000" d="M630.7527,-2060.7334C609.8153,-2058.2476 586.075,-2051.3349 572.2549,-2033.9332 442.2689,-1870.2604 650.6459,-306.9362 508.2549,-153.9332 466.6956,-109.2766 396.4718,-104.8005 340.3625,-110.2258"/>
<polygon fill="none" stroke="#000000" points="339.9824,-106.7464 330.4177,-111.3036 340.7367,-113.7057 339.9824,-106.7464"/>
</g>
<!-- \\Firesphere\\SolrSearch\\Models\\SearchSynonym -->
<g id="node28" class="node">
<title>\\Firesphere\\SolrSearch\\Models\\SearchSynonym</title>
<polygon fill="none" stroke="#000000" points="724.7549,-2024.9332 620.7549,-2024.9332 620.7549,-1988.9332 724.7549,-1988.9332 724.7549,-2024.9332"/>
<text text-anchor="middle" x="672.7549" y="-2004.1332" font-family="Courier,monospace" font-size="11.00" fill="#000000">SearchSynonym</text>
</g>
<!-- \\Firesphere\\SolrSearch\\Models\\SearchSynonym&#45;&gt;\\SilverStripe\\ORM\\DataObject -->
<g id="edge19" class="edge">
<title>\\Firesphere\\SolrSearch\\Models\\SearchSynonym&#45;&gt;\\SilverStripe\\ORM\\DataObject</title>
<path fill="none" stroke="#000000" d="M620.6419,-2005.1869C602.546,-2001.7851 583.8914,-1994.5702 572.2549,-1979.9332 445.9183,-1821.0196 646.6354,-302.4771 508.2549,-153.9332 466.6732,-109.2975 396.451,-104.8199 340.348,-110.2393"/>
<polygon fill="none" stroke="#000000" points="339.9696,-106.7597 330.4045,-111.3159 340.7232,-113.719 339.9696,-106.7597"/>
</g>
<!-- \\Firesphere\\SolrSearch\\Models\\SolrLog -->
<g id="node29" class="node">
<title>\\Firesphere\\SolrSearch\\Models\\SolrLog</title>
<polygon fill="none" stroke="#000000" points="704.7549,-1970.9332 640.7549,-1970.9332 640.7549,-1934.9332 704.7549,-1934.9332 704.7549,-1970.9332"/>
<text text-anchor="middle" x="672.7549" y="-1950.1332" font-family="Courier,monospace" font-size="11.00" fill="#000000">SolrLog</text>
</g>
<!-- \\Firesphere\\SolrSearch\\Models\\SolrLog&#45;&gt;\\SilverStripe\\ORM\\DataObject -->
<g id="edge20" class="edge">
<title>\\Firesphere\\SolrSearch\\Models\\SolrLog&#45;&gt;\\SilverStripe\\ORM\\DataObject</title>
<path fill="none" stroke="#000000" d="M640.6103,-1952.596C617.6789,-1950.4756 588.1873,-1943.5283 572.2549,-1922.9332 451.9077,-1767.3658 642.4023,-297.7703 508.2549,-153.9332 466.648,-109.3209 396.4277,-104.8416 340.3319,-110.2543"/>
<polygon fill="none" stroke="#000000" points="339.9553,-106.7746 330.3897,-111.3298 340.7081,-113.734 339.9553,-106.7746"/>
</g>
<!-- \\SilverStripe\\Security\\PermissionProvider -->
<g id="node62" class="node">
<title>\\SilverStripe\\Security\\PermissionProvider</title>
<ellipse fill="none" stroke="#000000" cx="254.1275" cy="-72.9332" rx="206.0634" ry="18"/>
<text text-anchor="middle" x="254.1275" y="-69.2332" font-family="Times,serif" font-size="14.00" fill="#c0c0c0">\SilverStripe\Security\PermissionProvider</text>
</g>
<!-- \\Firesphere\\SolrSearch\\Models\\SolrLog&#45;&gt;\\SilverStripe\\Security\\PermissionProvider -->
<g id="edge21" class="edge">
<title>\\Firesphere\\SolrSearch\\Models\\SolrLog&#45;&gt;\\SilverStripe\\Security\\PermissionProvider</title>
<path fill="none" stroke="#000000" stroke-dasharray="1,5" d="M640.6038,-1952.601C617.6692,-1950.4831 588.1763,-1943.5368 572.2549,-1922.9332 448.3245,-1762.5568 646.4127,-248.2293 508.2549,-99.9332 468.5374,-57.3011 402.6929,-51.3036 347.9794,-55.5732"/>
<polygon fill="none" stroke="#000000" points="347.5462,-52.098 337.9016,-56.4834 348.1759,-59.0696 347.5462,-52.098"/>
</g>
<!-- \\Firesphere\\SolrSearch\\Traits\\GetSetSchemaServiceTrait -->
<g id="node30" class="node">
<title>\\Firesphere\\SolrSearch\\Traits\\GetSetSchemaServiceTrait</title>
<polygon fill="none" stroke="#000000" points="762.2549,-1890.9332 583.2549,-1890.9332 583.2549,-1854.9332 762.2549,-1854.9332 762.2549,-1890.9332"/>
<text text-anchor="middle" x="672.7549" y="-1870.1332" font-family="Courier,monospace" font-size="11.00" fill="#000000">GetSetSchemaServiceTrait</text>
</g>
<!-- \\Firesphere\\SolrSearch\\Traits\\SolrIndexTrait -->
<g id="node31" class="node">
<title>\\Firesphere\\SolrSearch\\Traits\\SolrIndexTrait</title>
<polygon fill="none" stroke="#000000" points="728.2549,-1836.9332 617.2549,-1836.9332 617.2549,-1800.9332 728.2549,-1800.9332 728.2549,-1836.9332"/>
<text text-anchor="middle" x="672.7549" y="-1816.1332" font-family="Courier,monospace" font-size="11.00" fill="#000000">SolrIndexTrait</text>
</g>
<!-- \\Firesphere\\SolrSearch\\Traits\\BaseIndexTrait -->
<g id="node32" class="node">
<title>\\Firesphere\\SolrSearch\\Traits\\BaseIndexTrait</title>
<polygon fill="none" stroke="#000000" points="728.2549,-1782.9332 617.2549,-1782.9332 617.2549,-1746.9332 728.2549,-1746.9332 728.2549,-1782.9332"/>
<text text-anchor="middle" x="672.7549" y="-1762.1332" font-family="Courier,monospace" font-size="11.00" fill="#000000">BaseIndexTrait</text>
</g>
<!-- \\Firesphere\\SolrSearch\\Traits\\BaseQueryTrait -->
<g id="node33" class="node">
<title>\\Firesphere\\SolrSearch\\Traits\\BaseQueryTrait</title>
<polygon fill="none" stroke="#000000" points="728.2549,-1728.9332 617.2549,-1728.9332 617.2549,-1692.9332 728.2549,-1692.9332 728.2549,-1728.9332"/>
<text text-anchor="middle" x="672.7549" y="-1708.1332" font-family="Courier,monospace" font-size="11.00" fill="#000000">BaseQueryTrait</text>
</g>
<!-- \\Firesphere\\SolrSearch\\Traits\\LoggerTrait -->
<g id="node34" class="node">
<title>\\Firesphere\\SolrSearch\\Traits\\LoggerTrait</title>
<polygon fill="none" stroke="#000000" points="718.2549,-1674.9332 627.2549,-1674.9332 627.2549,-1638.9332 718.2549,-1638.9332 718.2549,-1674.9332"/>
<text text-anchor="middle" x="672.7549" y="-1654.1332" font-family="Courier,monospace" font-size="11.00" fill="#000000">LoggerTrait</text>
</g>
<!-- \\Firesphere\\SolrSearch\\Traits\\DataResolveTrait -->
<g id="node35" class="node">
<title>\\Firesphere\\SolrSearch\\Traits\\DataResolveTrait</title>
<polygon fill="none" stroke="#000000" points="735.2549,-1620.9332 610.2549,-1620.9332 610.2549,-1584.9332 735.2549,-1584.9332 735.2549,-1620.9332"/>
<text text-anchor="middle" x="672.7549" y="-1600.1332" font-family="Courier,monospace" font-size="11.00" fill="#000000">DataResolveTrait</text>
</g>
<!-- \\Firesphere\\SolrSearch\\Traits\\GetSetSearchResolverTrait -->
<g id="node36" class="node">
<title>\\Firesphere\\SolrSearch\\Traits\\GetSetSearchResolverTrait</title>
<polygon fill="none" stroke="#000000" points="765.2549,-1566.9332 580.2549,-1566.9332 580.2549,-1530.9332 765.2549,-1530.9332 765.2549,-1566.9332"/>
<text text-anchor="middle" x="672.7549" y="-1546.1332" font-family="Courier,monospace" font-size="11.00" fill="#000000">GetSetSearchResolverTrait</text>
</g>
<!-- \\Firesphere\\SolrSearch\\Traits\\DocumentFactoryTrait -->
<g id="node37" class="node">
<title>\\Firesphere\\SolrSearch\\Traits\\DocumentFactoryTrait</title>
<polygon fill="none" stroke="#000000" points="748.7549,-1512.9332 596.7549,-1512.9332 596.7549,-1476.9332 748.7549,-1476.9332 748.7549,-1512.9332"/>
<text text-anchor="middle" x="672.7549" y="-1492.1332" font-family="Courier,monospace" font-size="11.00" fill="#000000">DocumentFactoryTrait</text>
</g>
<!-- \\Firesphere\\SolrSearch\\Traits\\GetterSetterTrait -->
<g id="node38" class="node">
<title>\\Firesphere\\SolrSearch\\Traits\\GetterSetterTrait</title>
<polygon fill="none" stroke="#000000" points="738.2549,-1458.9332 607.2549,-1458.9332 607.2549,-1422.9332 738.2549,-1422.9332 738.2549,-1458.9332"/>
<text text-anchor="middle" x="672.7549" y="-1438.1332" font-family="Courier,monospace" font-size="11.00" fill="#000000">GetterSetterTrait</text>
</g>
<!-- \\Firesphere\\SolrSearch\\Traits\\SearchResultSetTrait -->
<g id="node39" class="node">
<title>\\Firesphere\\SolrSearch\\Traits\\SearchResultSetTrait</title>
<polygon fill="none" stroke="#000000" points="748.7549,-1404.9332 596.7549,-1404.9332 596.7549,-1368.9332 748.7549,-1368.9332 748.7549,-1404.9332"/>
<text text-anchor="middle" x="672.7549" y="-1384.1332" font-family="Courier,monospace" font-size="11.00" fill="#000000">SearchResultSetTrait</text>
</g>
<!-- \\Firesphere\\SolrSearch\\Traits\\SearchResultGetTrait -->
<g id="node40" class="node">
<title>\\Firesphere\\SolrSearch\\Traits\\SearchResultGetTrait</title>
<polygon fill="none" stroke="#000000" points="748.7549,-1350.9332 596.7549,-1350.9332 596.7549,-1314.9332 748.7549,-1314.9332 748.7549,-1350.9332"/>
<text text-anchor="middle" x="672.7549" y="-1330.1332" font-family="Courier,monospace" font-size="11.00" fill="#000000">SearchResultGetTrait</text>
</g>
<!-- \\Firesphere\\SolrSearch\\Traits\\CoreServiceTrait -->
<g id="node41" class="node">
<title>\\Firesphere\\SolrSearch\\Traits\\CoreServiceTrait</title>
<polygon fill="none" stroke="#000000" points="735.2549,-1296.9332 610.2549,-1296.9332 610.2549,-1260.9332 735.2549,-1260.9332 735.2549,-1296.9332"/>
<text text-anchor="middle" x="672.7549" y="-1276.1332" font-family="Courier,monospace" font-size="11.00" fill="#000000">CoreServiceTrait</text>
</g>
<!-- \\Firesphere\\SolrSearch\\Traits\\CoreAdminTrait -->
<g id="node42" class="node">
<title>\\Firesphere\\SolrSearch\\Traits\\CoreAdminTrait</title>
<polygon fill="none" stroke="#000000" points="728.2549,-1242.9332 617.2549,-1242.9332 617.2549,-1206.9332 728.2549,-1206.9332 728.2549,-1242.9332"/>
<text text-anchor="middle" x="672.7549" y="-1222.1332" font-family="Courier,monospace" font-size="11.00" fill="#000000">CoreAdminTrait</text>
</g>
<!-- \\Firesphere\\SolrSearch\\Traits\\QueryComponentBoostTrait -->
<g id="node43" class="node">
<title>\\Firesphere\\SolrSearch\\Traits\\QueryComponentBoostTrait</title>
<polygon fill="none" stroke="#000000" points="762.2549,-1188.9332 583.2549,-1188.9332 583.2549,-1152.9332 762.2549,-1152.9332 762.2549,-1188.9332"/>
<text text-anchor="middle" x="672.7549" y="-1168.1332" font-family="Courier,monospace" font-size="11.00" fill="#000000">QueryComponentBoostTrait</text>
</g>
<!-- \\Firesphere\\SolrSearch\\Traits\\QueryComponentFacetTrait -->
<g id="node44" class="node">
<title>\\Firesphere\\SolrSearch\\Traits\\QueryComponentFacetTrait</title>
<polygon fill="none" stroke="#000000" points="762.2549,-1134.9332 583.2549,-1134.9332 583.2549,-1098.9332 762.2549,-1098.9332 762.2549,-1134.9332"/>
<text text-anchor="middle" x="672.7549" y="-1114.1332" font-family="Courier,monospace" font-size="11.00" fill="#000000">QueryComponentFacetTrait</text>
</g>
<!-- \\Firesphere\\SolrSearch\\Traits\\QueryComponentFilterTrait -->
<g id="node45" class="node">
<title>\\Firesphere\\SolrSearch\\Traits\\QueryComponentFilterTrait</title>
<polygon fill="none" stroke="#000000" points="765.2549,-1080.9332 580.2549,-1080.9332 580.2549,-1044.9332 765.2549,-1044.9332 765.2549,-1080.9332"/>
<text text-anchor="middle" x="672.7549" y="-1060.1332" font-family="Courier,monospace" font-size="11.00" fill="#000000">QueryComponentFilterTrait</text>
</g>
<!-- \\Firesphere\\SolrSearch\\Helpers\\SolrLogger -->
<g id="node47" class="node">
<title>\\Firesphere\\SolrSearch\\Helpers\\SolrLogger</title>
<polygon fill="none" stroke="#000000" points="714.7549,-920.9332 630.7549,-920.9332 630.7549,-884.9332 714.7549,-884.9332 714.7549,-920.9332"/>
<text text-anchor="middle" x="672.7549" y="-900.1332" font-family="Courier,monospace" font-size="11.00" fill="#000000">SolrLogger</text>
</g>
<!-- \\Firesphere\\SolrSearch\\Helpers\\Synonyms -->
<g id="node48" class="node">
<title>\\Firesphere\\SolrSearch\\Helpers\\Synonyms</title>
<polygon fill="none" stroke="#000000" points="708.2549,-866.9332 637.2549,-866.9332 637.2549,-830.9332 708.2549,-830.9332 708.2549,-866.9332"/>
<text text-anchor="middle" x="672.7549" y="-846.1332" font-family="Courier,monospace" font-size="11.00" fill="#000000">Synonyms</text>
</g>
<!-- \\Firesphere\\SolrSearch\\Helpers\\DataResolver -->
<g id="node49" class="node">
<title>\\Firesphere\\SolrSearch\\Helpers\\DataResolver</title>
<polygon fill="none" stroke="#000000" points="721.7549,-812.9332 623.7549,-812.9332 623.7549,-776.9332 721.7549,-776.9332 721.7549,-812.9332"/>
<text text-anchor="middle" x="672.7549" y="-792.1332" font-family="Courier,monospace" font-size="11.00" fill="#000000">DataResolver</text>
</g>
<!-- \\Firesphere\\SolrSearch\\Helpers\\FieldResolver -->
<g id="node50" class="node">
<title>\\Firesphere\\SolrSearch\\Helpers\\FieldResolver</title>
<polygon fill="none" stroke="#000000" points="724.7549,-758.9332 620.7549,-758.9332 620.7549,-722.9332 724.7549,-722.9332 724.7549,-758.9332"/>
<text text-anchor="middle" x="672.7549" y="-738.1332" font-family="Courier,monospace" font-size="11.00" fill="#000000">FieldResolver</text>
</g>
<!-- \\Firesphere\\SolrSearch\\Helpers\\Statics -->
<g id="node51" class="node">
<title>\\Firesphere\\SolrSearch\\Helpers\\Statics</title>
<polygon fill="none" stroke="#000000" points="704.7549,-704.9332 640.7549,-704.9332 640.7549,-668.9332 704.7549,-668.9332 704.7549,-704.9332"/>
<text text-anchor="middle" x="672.7549" y="-684.1332" font-family="Courier,monospace" font-size="11.00" fill="#000000">Statics</text>
</g>
<!-- \\Firesphere\\SolrSearch\\Fluent\\FluentExtension -->
<g id="node52" class="node">
<title>\\Firesphere\\SolrSearch\\Fluent\\FluentExtension</title>
<polygon fill="none" stroke="#000000" points="731.7549,-624.9332 613.7549,-624.9332 613.7549,-588.9332 731.7549,-588.9332 731.7549,-624.9332"/>
<text text-anchor="middle" x="672.7549" y="-604.1332" font-family="Courier,monospace" font-size="11.00" fill="#000000">FluentExtension</text>
</g>
<!-- \\Firesphere\\SolrSearch\\Fluent\\FluentExtension&#45;&gt;\\SilverStripe\\Core\\Extension -->
<g id="edge22" class="edge">
<title>\\Firesphere\\SolrSearch\\Fluent\\FluentExtension&#45;&gt;\\SilverStripe\\Core\\Extension</title>
<path fill="none" stroke="#000000" d="M613.7264,-600.6846C598.2689,-596.2854 582.9559,-588.9819 572.2549,-576.9332 461.725,-452.4815 629.7644,-321.6896 508.2549,-207.9332 466.1883,-168.5507 401.3948,-162.1792 347.7627,-165.46"/>
<polygon fill="none" stroke="#000000" points="347.2589,-161.9874 337.5412,-166.2083 347.7701,-168.9687 347.2589,-161.9874"/>
</g>
<!-- \\Firesphere\\SolrSearch\\Subsites\\SubsitesExtension -->
<g id="node53" class="node">
<title>\\Firesphere\\SolrSearch\\Subsites\\SubsitesExtension</title>
<polygon fill="none" stroke="#000000" points="738.2549,-544.9332 607.2549,-544.9332 607.2549,-508.9332 738.2549,-508.9332 738.2549,-544.9332"/>
<text text-anchor="middle" x="672.7549" y="-524.1332" font-family="Courier,monospace" font-size="11.00" fill="#000000">SubsitesExtension</text>
</g>
<!-- \\Firesphere\\SolrSearch\\Subsites\\SubsitesExtension&#45;&gt;\\SilverStripe\\ORM\\DataExtension -->
<g id="edge23" class="edge">
<title>\\Firesphere\\SolrSearch\\Subsites\\SubsitesExtension&#45;&gt;\\SilverStripe\\ORM\\DataExtension</title>
<path fill="none" stroke="#000000" d="M669.255,-508.8882C653.3631,-428.8947 585.4274,-107.5218 508.2549,-45.9332 471.5859,-16.669 421.8522,-6.9735 376.1027,-5.6738"/>
<polygon fill="none" stroke="#000000" points="376.1562,-2.1743 366.1032,-5.5189 376.0477,-9.1735 376.1562,-2.1743"/>
</g>
</g>
</svg>
