<?xml version="1.0" encoding="UTF-8" standalone="no"?>
<!DOCTYPE svg PUBLIC "-//W3C//DTD SVG 1.1//EN"
 "http://www.w3.org/Graphics/SVG/1.1/DTD/svg11.dtd">
<!-- Generated by graphviz version 2.40.1 (20161225.0304)
 -->
<!-- Title: G Pages: 1 -->
<svg width="1064pt" height="3721pt"
 viewBox="0.00 0.00 1064.25 3720.60" xmlns="http://www.w3.org/2000/svg" xmlns:xlink="http://www.w3.org/1999/xlink">
<g id="graph0" class="graph" transform="scale(1 1) rotate(0) translate(4 3716.5979)">
<title>G</title>
<polygon fill="#ffffff" stroke="transparent" points="-4,4 -4,-3716.5979 1060.2549,-3716.5979 1060.2549,4 -4,4"/>
<g id="clust1" class="cluster">
<title>cluster_Global</title>
<path fill="none" stroke="#c0c0c0" d="M165.1275,-152.5815C165.1275,-152.5815 1036.2549,-152.5815 1036.2549,-152.5815 1042.2549,-152.5815 1048.2549,-158.5815 1048.2549,-164.5815 1048.2549,-164.5815 1048.2549,-3386.5815 1048.2549,-3386.5815 1048.2549,-3392.5815 1042.2549,-3398.5815 1036.2549,-3398.5815 1036.2549,-3398.5815 165.1275,-3398.5815 165.1275,-3398.5815 159.1275,-3398.5815 153.1275,-3392.5815 153.1275,-3386.5815 153.1275,-3386.5815 153.1275,-164.5815 153.1275,-164.5815 153.1275,-158.5815 159.1275,-152.5815 165.1275,-152.5815"/>
<text text-anchor="middle" x="600.6912" y="-3385.7815" font-family="Times,serif" font-size="11.00" fill="#c0c0c0">Global</text>
</g>
<g id="clust2" class="cluster">
<title>cluster_\SilverStripe</title>
<path fill="none" stroke="#c0c0c0" d="M861.2549,-3056.5815C861.2549,-3056.5815 992.2549,-3056.5815 992.2549,-3056.5815 998.2549,-3056.5815 1004.2549,-3062.5815 1004.2549,-3068.5815 1004.2549,-3068.5815 1004.2549,-3358.5815 1004.2549,-3358.5815 1004.2549,-3364.5815 998.2549,-3370.5815 992.2549,-3370.5815 992.2549,-3370.5815 861.2549,-3370.5815 861.2549,-3370.5815 855.2549,-3370.5815 849.2549,-3364.5815 849.2549,-3358.5815 849.2549,-3358.5815 849.2549,-3068.5815 849.2549,-3068.5815 849.2549,-3062.5815 855.2549,-3056.5815 861.2549,-3056.5815"/>
<text text-anchor="middle" x="926.7549" y="-3357.7815" font-family="Times,serif" font-size="11.00" fill="#c0c0c0">SilverStripe</text>
</g>
<g id="clust3" class="cluster">
<title>cluster_\SilverStripe\FullTextSearch</title>
<path fill="none" stroke="#c0c0c0" d="M869.2549,-3064.5815C869.2549,-3064.5815 984.2549,-3064.5815 984.2549,-3064.5815 990.2549,-3064.5815 996.2549,-3070.5815 996.2549,-3076.5815 996.2549,-3076.5815 996.2549,-3330.5815 996.2549,-3330.5815 996.2549,-3336.5815 990.2549,-3342.5815 984.2549,-3342.5815 984.2549,-3342.5815 869.2549,-3342.5815 869.2549,-3342.5815 863.2549,-3342.5815 857.2549,-3336.5815 857.2549,-3330.5815 857.2549,-3330.5815 857.2549,-3076.5815 857.2549,-3076.5815 857.2549,-3070.5815 863.2549,-3064.5815 869.2549,-3064.5815"/>
<text text-anchor="middle" x="926.7549" y="-3329.7815" font-family="Times,serif" font-size="11.00" fill="#c0c0c0">FullTextSearch</text>
</g>
<g id="clust4" class="cluster">
<title>cluster_\SilverStripe\FullTextSearch\Solr</title>
<path fill="none" stroke="#c0c0c0" d="M888.7549,-3188.5815C888.7549,-3188.5815 964.7549,-3188.5815 964.7549,-3188.5815 970.7549,-3188.5815 976.7549,-3194.5815 976.7549,-3200.5815 976.7549,-3200.5815 976.7549,-3302.5815 976.7549,-3302.5815 976.7549,-3308.5815 970.7549,-3314.5815 964.7549,-3314.5815 964.7549,-3314.5815 888.7549,-3314.5815 888.7549,-3314.5815 882.7549,-3314.5815 876.7549,-3308.5815 876.7549,-3302.5815 876.7549,-3302.5815 876.7549,-3200.5815 876.7549,-3200.5815 876.7549,-3194.5815 882.7549,-3188.5815 888.7549,-3188.5815"/>
<text text-anchor="middle" x="926.7549" y="-3301.7815" font-family="Times,serif" font-size="11.00" fill="#c0c0c0">Solr</text>
</g>
<g id="clust5" class="cluster">
<title>cluster_\SilverStripe\FullTextSearch\Search</title>
<path fill="none" stroke="#c0c0c0" d="M877.2549,-3072.5815C877.2549,-3072.5815 976.2549,-3072.5815 976.2549,-3072.5815 982.2549,-3072.5815 988.2549,-3078.5815 988.2549,-3084.5815 988.2549,-3084.5815 988.2549,-3168.5815 988.2549,-3168.5815 988.2549,-3174.5815 982.2549,-3180.5815 976.2549,-3180.5815 976.2549,-3180.5815 877.2549,-3180.5815 877.2549,-3180.5815 871.2549,-3180.5815 865.2549,-3174.5815 865.2549,-3168.5815 865.2549,-3168.5815 865.2549,-3084.5815 865.2549,-3084.5815 865.2549,-3078.5815 871.2549,-3072.5815 877.2549,-3072.5815"/>
<text text-anchor="middle" x="926.7549" y="-3167.7815" font-family="Times,serif" font-size="11.00" fill="#c0c0c0">Search</text>
</g>
<g id="clust6" class="cluster">
<title>cluster_\SilverStripe\FullTextSearch\Search\Queries</title>
<path fill="none" stroke="#c0c0c0" d="M885.2549,-3080.5815C885.2549,-3080.5815 968.2549,-3080.5815 968.2549,-3080.5815 974.2549,-3080.5815 980.2549,-3086.5815 980.2549,-3092.5815 980.2549,-3092.5815 980.2549,-3140.5815 980.2549,-3140.5815 980.2549,-3146.5815 974.2549,-3152.5815 968.2549,-3152.5815 968.2549,-3152.5815 885.2549,-3152.5815 885.2549,-3152.5815 879.2549,-3152.5815 873.2549,-3146.5815 873.2549,-3140.5815 873.2549,-3140.5815 873.2549,-3092.5815 873.2549,-3092.5815 873.2549,-3086.5815 879.2549,-3080.5815 885.2549,-3080.5815"/>
<text text-anchor="middle" x="926.7549" y="-3139.7815" font-family="Times,serif" font-size="11.00" fill="#c0c0c0">Queries</text>
</g>
<g id="clust7" class="cluster">
<title>cluster_\Firesphere</title>
<path fill="none" stroke="#c0c0c0" d="M173.1275,-160.5815C173.1275,-160.5815 1028.2549,-160.5815 1028.2549,-160.5815 1034.2549,-160.5815 1040.2549,-166.5815 1040.2549,-172.5815 1040.2549,-172.5815 1040.2549,-3036.5815 1040.2549,-3036.5815 1040.2549,-3042.5815 1034.2549,-3048.5815 1028.2549,-3048.5815 1028.2549,-3048.5815 173.1275,-3048.5815 173.1275,-3048.5815 167.1275,-3048.5815 161.1275,-3042.5815 161.1275,-3036.5815 161.1275,-3036.5815 161.1275,-172.5815 161.1275,-172.5815 161.1275,-166.5815 167.1275,-160.5815 173.1275,-160.5815"/>
<text text-anchor="middle" x="600.6912" y="-3035.7815" font-family="Times,serif" font-size="11.00" fill="#c0c0c0">Firesphere</text>
</g>
<g id="clust8" class="cluster">
<title>cluster_\Firesphere\SolrCompatibility</title>
<path fill="none" stroke="#c0c0c0" d="M836.7549,-168.5815C836.7549,-168.5815 1016.7549,-168.5815 1016.7549,-168.5815 1022.7549,-168.5815 1028.7549,-174.5815 1028.7549,-180.5815 1028.7549,-180.5815 1028.7549,-264.5815 1028.7549,-264.5815 1028.7549,-270.5815 1022.7549,-276.5815 1016.7549,-276.5815 1016.7549,-276.5815 836.7549,-276.5815 836.7549,-276.5815 830.7549,-276.5815 824.7549,-270.5815 824.7549,-264.5815 824.7549,-264.5815 824.7549,-180.5815 824.7549,-180.5815 824.7549,-174.5815 830.7549,-168.5815 836.7549,-168.5815"/>
<text text-anchor="middle" x="926.7549" y="-263.7815" font-family="Times,serif" font-size="11.00" fill="#c0c0c0">SolrCompatibility</text>
</g>
<g id="clust9" class="cluster">
<title>cluster_\Firesphere\SolrCompatibility\Extensions</title>
<path fill="none" stroke="#c0c0c0" d="M844.7549,-176.5815C844.7549,-176.5815 1008.7549,-176.5815 1008.7549,-176.5815 1014.7549,-176.5815 1020.7549,-182.5815 1020.7549,-188.5815 1020.7549,-188.5815 1020.7549,-236.5815 1020.7549,-236.5815 1020.7549,-242.5815 1014.7549,-248.5815 1008.7549,-248.5815 1008.7549,-248.5815 844.7549,-248.5815 844.7549,-248.5815 838.7549,-248.5815 832.7549,-242.5815 832.7549,-236.5815 832.7549,-236.5815 832.7549,-188.5815 832.7549,-188.5815 832.7549,-182.5815 838.7549,-176.5815 844.7549,-176.5815"/>
<text text-anchor="middle" x="926.7549" y="-235.7815" font-family="Times,serif" font-size="11.00" fill="#c0c0c0">Extensions</text>
</g>
<g id="clust10" class="cluster">
<title>cluster_\Firesphere\SolrSearch</title>
<path fill="none" stroke="#c0c0c0" d="M181.1275,-172.5815C181.1275,-172.5815 769.2549,-172.5815 769.2549,-172.5815 775.2549,-172.5815 781.2549,-178.5815 781.2549,-184.5815 781.2549,-184.5815 781.2549,-3008.5815 781.2549,-3008.5815 781.2549,-3014.5815 775.2549,-3020.5815 769.2549,-3020.5815 769.2549,-3020.5815 181.1275,-3020.5815 181.1275,-3020.5815 175.1275,-3020.5815 169.1275,-3014.5815 169.1275,-3008.5815 169.1275,-3008.5815 169.1275,-184.5815 169.1275,-184.5815 169.1275,-178.5815 175.1275,-172.5815 181.1275,-172.5815"/>
<text text-anchor="middle" x="475.1912" y="-3007.7815" font-family="Times,serif" font-size="11.00" fill="#c0c0c0">SolrSearch</text>
</g>
<g id="clust11" class="cluster">
<title>cluster_\Firesphere\SolrSearch\Tasks</title>
<path fill="none" stroke="#c0c0c0" d="M597.7549,-2624.5815C597.7549,-2624.5815 747.7549,-2624.5815 747.7549,-2624.5815 753.7549,-2624.5815 759.7549,-2630.5815 759.7549,-2636.5815 759.7549,-2636.5815 759.7549,-2846.5815 759.7549,-2846.5815 759.7549,-2852.5815 753.7549,-2858.5815 747.7549,-2858.5815 747.7549,-2858.5815 597.7549,-2858.5815 597.7549,-2858.5815 591.7549,-2858.5815 585.7549,-2852.5815 585.7549,-2846.5815 585.7549,-2846.5815 585.7549,-2636.5815 585.7549,-2636.5815 585.7549,-2630.5815 591.7549,-2624.5815 597.7549,-2624.5815"/>
<text text-anchor="middle" x="672.7549" y="-2845.7815" font-family="Times,serif" font-size="11.00" fill="#c0c0c0">Tasks</text>
</g>
<g id="clust12" class="cluster">
<title>cluster_\Firesphere\SolrSearch\Services</title>
<path fill="none" stroke="#c0c0c0" d="M617.7549,-2866.5815C617.7549,-2866.5815 727.7549,-2866.5815 727.7549,-2866.5815 733.7549,-2866.5815 739.7549,-2872.5815 739.7549,-2878.5815 739.7549,-2878.5815 739.7549,-2980.5815 739.7549,-2980.5815 739.7549,-2986.5815 733.7549,-2992.5815 727.7549,-2992.5815 727.7549,-2992.5815 617.7549,-2992.5815 617.7549,-2992.5815 611.7549,-2992.5815 605.7549,-2986.5815 605.7549,-2980.5815 605.7549,-2980.5815 605.7549,-2878.5815 605.7549,-2878.5815 605.7549,-2872.5815 611.7549,-2866.5815 617.7549,-2866.5815"/>
<text text-anchor="middle" x="672.7549" y="-2979.7815" font-family="Times,serif" font-size="11.00" fill="#c0c0c0">Services</text>
</g>
<g id="clust13" class="cluster">
<title>cluster_\Firesphere\SolrSearch\Indexes</title>
<path fill="none" stroke="#c0c0c0" d="M634.7549,-2544.5815C634.7549,-2544.5815 710.7549,-2544.5815 710.7549,-2544.5815 716.7549,-2544.5815 722.7549,-2550.5815 722.7549,-2556.5815 722.7549,-2556.5815 722.7549,-2604.5815 722.7549,-2604.5815 722.7549,-2610.5815 716.7549,-2616.5815 710.7549,-2616.5815 710.7549,-2616.5815 634.7549,-2616.5815 634.7549,-2616.5815 628.7549,-2616.5815 622.7549,-2610.5815 622.7549,-2604.5815 622.7549,-2604.5815 622.7549,-2556.5815 622.7549,-2556.5815 622.7549,-2550.5815 628.7549,-2544.5815 634.7549,-2544.5815"/>
<text text-anchor="middle" x="672.7549" y="-2603.7815" font-family="Times,serif" font-size="11.00" fill="#c0c0c0">Indexes</text>
</g>
<g id="clust14" class="cluster">
<title>cluster_\Firesphere\SolrSearch\Helpers</title>
<path fill="none" stroke="#c0c0c0" d="M624.7549,-2248.5815C624.7549,-2248.5815 720.7549,-2248.5815 720.7549,-2248.5815 726.7549,-2248.5815 732.7549,-2254.5815 732.7549,-2260.5815 732.7549,-2260.5815 732.7549,-2524.5815 732.7549,-2524.5815 732.7549,-2530.5815 726.7549,-2536.5815 720.7549,-2536.5815 720.7549,-2536.5815 624.7549,-2536.5815 624.7549,-2536.5815 618.7549,-2536.5815 612.7549,-2530.5815 612.7549,-2524.5815 612.7549,-2524.5815 612.7549,-2260.5815 612.7549,-2260.5815 612.7549,-2254.5815 618.7549,-2248.5815 624.7549,-2248.5815"/>
<text text-anchor="middle" x="672.7549" y="-2523.7815" font-family="Times,serif" font-size="11.00" fill="#c0c0c0">Helpers</text>
</g>
<g id="clust15" class="cluster">
<title>cluster_\Firesphere\SolrSearch\States</title>
<path fill="none" stroke="#c0c0c0" d="M634.7549,-2168.5815C634.7549,-2168.5815 710.7549,-2168.5815 710.7549,-2168.5815 716.7549,-2168.5815 722.7549,-2174.5815 722.7549,-2180.5815 722.7549,-2180.5815 722.7549,-2228.5815 722.7549,-2228.5815 722.7549,-2234.5815 716.7549,-2240.5815 710.7549,-2240.5815 710.7549,-2240.5815 634.7549,-2240.5815 634.7549,-2240.5815 628.7549,-2240.5815 622.7549,-2234.5815 622.7549,-2228.5815 622.7549,-2228.5815 622.7549,-2180.5815 622.7549,-2180.5815 622.7549,-2174.5815 628.7549,-2168.5815 634.7549,-2168.5815"/>
<text text-anchor="middle" x="672.7549" y="-2227.7815" font-family="Times,serif" font-size="11.00" fill="#c0c0c0">States</text>
</g>
<g id="clust16" class="cluster">
<title>cluster_\Firesphere\SolrSearch\Forms</title>
<path fill="none" stroke="#c0c0c0" d="M634.7549,-2088.5815C634.7549,-2088.5815 710.7549,-2088.5815 710.7549,-2088.5815 716.7549,-2088.5815 722.7549,-2094.5815 722.7549,-2100.5815 722.7549,-2100.5815 722.7549,-2148.5815 722.7549,-2148.5815 722.7549,-2154.5815 716.7549,-2160.5815 710.7549,-2160.5815 710.7549,-2160.5815 634.7549,-2160.5815 634.7549,-2160.5815 628.7549,-2160.5815 622.7549,-2154.5815 622.7549,-2148.5815 622.7549,-2148.5815 622.7549,-2100.5815 622.7549,-2100.5815 622.7549,-2094.5815 628.7549,-2088.5815 634.7549,-2088.5815"/>
<text text-anchor="middle" x="672.7549" y="-2147.7815" font-family="Times,serif" font-size="11.00" fill="#c0c0c0">Forms</text>
</g>
<g id="clust17" class="cluster">
<title>cluster_\Firesphere\SolrSearch\Factories</title>
<path fill="none" stroke="#c0c0c0" d="M597.7549,-1954.5815C597.7549,-1954.5815 747.7549,-1954.5815 747.7549,-1954.5815 753.7549,-1954.5815 759.7549,-1960.5815 759.7549,-1966.5815 759.7549,-1966.5815 759.7549,-2068.5815 759.7549,-2068.5815 759.7549,-2074.5815 753.7549,-2080.5815 747.7549,-2080.5815 747.7549,-2080.5815 597.7549,-2080.5815 597.7549,-2080.5815 591.7549,-2080.5815 585.7549,-2074.5815 585.7549,-2068.5815 585.7549,-2068.5815 585.7549,-1966.5815 585.7549,-1966.5815 585.7549,-1960.5815 591.7549,-1954.5815 597.7549,-1954.5815"/>
<text text-anchor="middle" x="672.7549" y="-2067.7815" font-family="Times,serif" font-size="11.00" fill="#c0c0c0">Factories</text>
</g>
<g id="clust18" class="cluster">
<title>cluster_\Firesphere\SolrSearch\Queries</title>
<path fill="none" stroke="#c0c0c0" d="M638.2549,-1874.5815C638.2549,-1874.5815 707.2549,-1874.5815 707.2549,-1874.5815 713.2549,-1874.5815 719.2549,-1880.5815 719.2549,-1886.5815 719.2549,-1886.5815 719.2549,-1934.5815 719.2549,-1934.5815 719.2549,-1940.5815 713.2549,-1946.5815 707.2549,-1946.5815 707.2549,-1946.5815 638.2549,-1946.5815 638.2549,-1946.5815 632.2549,-1946.5815 626.2549,-1940.5815 626.2549,-1934.5815 626.2549,-1934.5815 626.2549,-1886.5815 626.2549,-1886.5815 626.2549,-1880.5815 632.2549,-1874.5815 638.2549,-1874.5815"/>
<text text-anchor="middle" x="672.7549" y="-1933.7815" font-family="Times,serif" font-size="11.00" fill="#c0c0c0">Queries</text>
</g>
<g id="clust19" class="cluster">
<title>cluster_\Firesphere\SolrSearch\Jobs</title>
<path fill="none" stroke="#c0c0c0" d="M600.7549,-1686.5815C600.7549,-1686.5815 744.7549,-1686.5815 744.7549,-1686.5815 750.7549,-1686.5815 756.7549,-1692.5815 756.7549,-1698.5815 756.7549,-1698.5815 756.7549,-1854.5815 756.7549,-1854.5815 756.7549,-1860.5815 750.7549,-1866.5815 744.7549,-1866.5815 744.7549,-1866.5815 600.7549,-1866.5815 600.7549,-1866.5815 594.7549,-1866.5815 588.7549,-1860.5815 588.7549,-1854.5815 588.7549,-1854.5815 588.7549,-1698.5815 588.7549,-1698.5815 588.7549,-1692.5815 594.7549,-1686.5815 600.7549,-1686.5815"/>
<text text-anchor="middle" x="672.7549" y="-1853.7815" font-family="Times,serif" font-size="11.00" fill="#c0c0c0">Jobs</text>
</g>
<g id="clust20" class="cluster">
<title>cluster_\Firesphere\SolrSearch\Stores</title>
<path fill="none" stroke="#c0c0c0" d="M617.7549,-1552.5815C617.7549,-1552.5815 727.7549,-1552.5815 727.7549,-1552.5815 733.7549,-1552.5815 739.7549,-1558.5815 739.7549,-1564.5815 739.7549,-1564.5815 739.7549,-1666.5815 739.7549,-1666.5815 739.7549,-1672.5815 733.7549,-1678.5815 727.7549,-1678.5815 727.7549,-1678.5815 617.7549,-1678.5815 617.7549,-1678.5815 611.7549,-1678.5815 605.7549,-1672.5815 605.7549,-1666.5815 605.7549,-1666.5815 605.7549,-1564.5815 605.7549,-1564.5815 605.7549,-1558.5815 611.7549,-1552.5815 617.7549,-1552.5815"/>
<text text-anchor="middle" x="672.7549" y="-1665.7815" font-family="Times,serif" font-size="11.00" fill="#c0c0c0">Stores</text>
</g>
<g id="clust21" class="cluster">
<title>cluster_\Firesphere\SolrSearch\Extensions</title>
<path fill="none" stroke="#c0c0c0" d="M604.2549,-1418.5815C604.2549,-1418.5815 741.2549,-1418.5815 741.2549,-1418.5815 747.2549,-1418.5815 753.2549,-1424.5815 753.2549,-1430.5815 753.2549,-1430.5815 753.2549,-1532.5815 753.2549,-1532.5815 753.2549,-1538.5815 747.2549,-1544.5815 741.2549,-1544.5815 741.2549,-1544.5815 604.2549,-1544.5815 604.2549,-1544.5815 598.2549,-1544.5815 592.2549,-1538.5815 592.2549,-1532.5815 592.2549,-1532.5815 592.2549,-1430.5815 592.2549,-1430.5815 592.2549,-1424.5815 598.2549,-1418.5815 604.2549,-1418.5815"/>
<text text-anchor="middle" x="672.7549" y="-1531.7815" font-family="Times,serif" font-size="11.00" fill="#c0c0c0">Extensions</text>
</g>
<g id="clust22" class="cluster">
<title>cluster_\Firesphere\SolrSearch\Traits</title>
<path fill="none" stroke="#c0c0c0" d="M584.2549,-528.5815C584.2549,-528.5815 761.2549,-528.5815 761.2549,-528.5815 767.2549,-528.5815 773.2549,-534.5815 773.2549,-540.5815 773.2549,-540.5815 773.2549,-1398.5815 773.2549,-1398.5815 773.2549,-1404.5815 767.2549,-1410.5815 761.2549,-1410.5815 761.2549,-1410.5815 584.2549,-1410.5815 584.2549,-1410.5815 578.2549,-1410.5815 572.2549,-1404.5815 572.2549,-1398.5815 572.2549,-1398.5815 572.2549,-540.5815 572.2549,-540.5815 572.2549,-534.5815 578.2549,-528.5815 584.2549,-528.5815"/>
<text text-anchor="middle" x="672.7549" y="-1397.7815" font-family="Times,serif" font-size="11.00" fill="#c0c0c0">Traits</text>
</g>
<g id="clust23" class="cluster">
<title>cluster_\Firesphere\SolrSearch\Results</title>
<path fill="none" stroke="#c0c0c0" d="M627.7549,-448.5815C627.7549,-448.5815 717.7549,-448.5815 717.7549,-448.5815 723.7549,-448.5815 729.7549,-454.5815 729.7549,-460.5815 729.7549,-460.5815 729.7549,-508.5815 729.7549,-508.5815 729.7549,-514.5815 723.7549,-520.5815 717.7549,-520.5815 717.7549,-520.5815 627.7549,-520.5815 627.7549,-520.5815 621.7549,-520.5815 615.7549,-514.5815 615.7549,-508.5815 615.7549,-508.5815 615.7549,-460.5815 615.7549,-460.5815 615.7549,-454.5815 621.7549,-448.5815 627.7549,-448.5815"/>
<text text-anchor="middle" x="672.7549" y="-507.7815" font-family="Times,serif" font-size="11.00" fill="#c0c0c0">Results</text>
</g>
<g id="clust24" class="cluster">
<title>cluster_\Firesphere\SolrSearch\Models</title>
<path fill="none" stroke="#c0c0c0" d="M624.7549,-260.5815C624.7549,-260.5815 720.7549,-260.5815 720.7549,-260.5815 726.7549,-260.5815 732.7549,-266.5815 732.7549,-272.5815 732.7549,-272.5815 732.7549,-428.5815 732.7549,-428.5815 732.7549,-434.5815 726.7549,-440.5815 720.7549,-440.5815 720.7549,-440.5815 624.7549,-440.5815 624.7549,-440.5815 618.7549,-440.5815 612.7549,-434.5815 612.7549,-428.5815 612.7549,-428.5815 612.7549,-272.5815 612.7549,-272.5815 612.7549,-266.5815 618.7549,-260.5815 624.7549,-260.5815"/>
<text text-anchor="middle" x="672.7549" y="-427.7815" font-family="Times,serif" font-size="11.00" fill="#c0c0c0">Models</text>
</g>
<g id="clust25" class="cluster">
<title>cluster_\Firesphere\SolrSearch\Admins</title>
<path fill="none" stroke="#c0c0c0" d="M631.2549,-180.5815C631.2549,-180.5815 714.2549,-180.5815 714.2549,-180.5815 720.2549,-180.5815 726.2549,-186.5815 726.2549,-192.5815 726.2549,-192.5815 726.2549,-240.5815 726.2549,-240.5815 726.2549,-246.5815 720.2549,-252.5815 714.2549,-252.5815 714.2549,-252.5815 631.2549,-252.5815 631.2549,-252.5815 625.2549,-252.5815 619.2549,-246.5815 619.2549,-240.5815 619.2549,-240.5815 619.2549,-192.5815 619.2549,-192.5815 619.2549,-186.5815 625.2549,-180.5815 631.2549,-180.5815"/>
<text text-anchor="middle" x="672.7549" y="-239.7815" font-family="Times,serif" font-size="11.00" fill="#c0c0c0">Admins</text>
</g>
<g id="clust26" class="cluster">
<title>cluster_\Firesphere\SolrSearch\Interfaces</title>
<path fill="none" stroke="#c0c0c0" d="M189.1275,-1498.5815C189.1275,-1498.5815 319.1275,-1498.5815 319.1275,-1498.5815 325.1275,-1498.5815 331.1275,-1504.5815 331.1275,-1510.5815 331.1275,-1510.5815 331.1275,-1612.5815 331.1275,-1612.5815 331.1275,-1618.5815 325.1275,-1624.5815 319.1275,-1624.5815 319.1275,-1624.5815 189.1275,-1624.5815 189.1275,-1624.5815 183.1275,-1624.5815 177.1275,-1618.5815 177.1275,-1612.5815 177.1275,-1612.5815 177.1275,-1510.5815 177.1275,-1510.5815 177.1275,-1504.5815 183.1275,-1498.5815 189.1275,-1498.5815"/>
<text text-anchor="middle" x="254.1275" y="-1611.7815" font-family="Times,serif" font-size="11.00" fill="#c0c0c0">Interfaces</text>
</g>
<g id="clust27" class="cluster">
<title>cluster_\Firesphere\SolrFluent</title>
<path fill="none" stroke="#c0c0c0" d="M836.7549,-562.5815C836.7549,-562.5815 1016.7549,-562.5815 1016.7549,-562.5815 1022.7549,-562.5815 1028.7549,-568.5815 1028.7549,-574.5815 1028.7549,-574.5815 1028.7549,-846.5815 1028.7549,-846.5815 1028.7549,-852.5815 1022.7549,-858.5815 1016.7549,-858.5815 1016.7549,-858.5815 836.7549,-858.5815 836.7549,-858.5815 830.7549,-858.5815 824.7549,-852.5815 824.7549,-846.5815 824.7549,-846.5815 824.7549,-574.5815 824.7549,-574.5815 824.7549,-568.5815 830.7549,-562.5815 836.7549,-562.5815"/>
<text text-anchor="middle" x="926.7549" y="-845.7815" font-family="Times,serif" font-size="11.00" fill="#c0c0c0">SolrFluent</text>
</g>
<g id="clust28" class="cluster">
<title>cluster_\Firesphere\SolrFluent\States</title>
<path fill="none" stroke="#c0c0c0" d="M871.7549,-758.5815C871.7549,-758.5815 981.7549,-758.5815 981.7549,-758.5815 987.7549,-758.5815 993.7549,-764.5815 993.7549,-770.5815 993.7549,-770.5815 993.7549,-818.5815 993.7549,-818.5815 993.7549,-824.5815 987.7549,-830.5815 981.7549,-830.5815 981.7549,-830.5815 871.7549,-830.5815 871.7549,-830.5815 865.7549,-830.5815 859.7549,-824.5815 859.7549,-818.5815 859.7549,-818.5815 859.7549,-770.5815 859.7549,-770.5815 859.7549,-764.5815 865.7549,-758.5815 871.7549,-758.5815"/>
<text text-anchor="middle" x="926.7549" y="-817.7815" font-family="Times,serif" font-size="11.00" fill="#c0c0c0">States</text>
</g>
<g id="clust29" class="cluster">
<title>cluster_\Firesphere\SolrFluent\Extensions</title>
<path fill="none" stroke="#c0c0c0" d="M844.7549,-570.5815C844.7549,-570.5815 1008.7549,-570.5815 1008.7549,-570.5815 1014.7549,-570.5815 1020.7549,-576.5815 1020.7549,-582.5815 1020.7549,-582.5815 1020.7549,-738.5815 1020.7549,-738.5815 1020.7549,-744.5815 1014.7549,-750.5815 1008.7549,-750.5815 1008.7549,-750.5815 844.7549,-750.5815 844.7549,-750.5815 838.7549,-750.5815 832.7549,-744.5815 832.7549,-738.5815 832.7549,-738.5815 832.7549,-582.5815 832.7549,-582.5815 832.7549,-576.5815 838.7549,-570.5815 844.7549,-570.5815"/>
<text text-anchor="middle" x="926.7549" y="-737.7815" font-family="Times,serif" font-size="11.00" fill="#c0c0c0">Extensions</text>
</g>
<g id="clust30" class="cluster">
<title>cluster_\Firesphere\SolrSubsites</title>
<path fill="none" stroke="#c0c0c0" d="M857.2549,-866.5815C857.2549,-866.5815 996.2549,-866.5815 996.2549,-866.5815 1002.2549,-866.5815 1008.2549,-872.5815 1008.2549,-878.5815 1008.2549,-878.5815 1008.2549,-1042.5815 1008.2549,-1042.5815 1008.2549,-1048.5815 1002.2549,-1054.5815 996.2549,-1054.5815 996.2549,-1054.5815 857.2549,-1054.5815 857.2549,-1054.5815 851.2549,-1054.5815 845.2549,-1048.5815 845.2549,-1042.5815 845.2549,-1042.5815 845.2549,-878.5815 845.2549,-878.5815 845.2549,-872.5815 851.2549,-866.5815 857.2549,-866.5815"/>
<text text-anchor="middle" x="926.7549" y="-1041.7815" font-family="Times,serif" font-size="11.00" fill="#c0c0c0">SolrSubsites</text>
</g>
<g id="clust31" class="cluster">
<title>cluster_\Firesphere\SolrSubsites\States</title>
<path fill="none" stroke="#c0c0c0" d="M881.7549,-954.5815C881.7549,-954.5815 971.7549,-954.5815 971.7549,-954.5815 977.7549,-954.5815 983.7549,-960.5815 983.7549,-966.5815 983.7549,-966.5815 983.7549,-1014.5815 983.7549,-1014.5815 983.7549,-1020.5815 977.7549,-1026.5815 971.7549,-1026.5815 971.7549,-1026.5815 881.7549,-1026.5815 881.7549,-1026.5815 875.7549,-1026.5815 869.7549,-1020.5815 869.7549,-1014.5815 869.7549,-1014.5815 869.7549,-966.5815 869.7549,-966.5815 869.7549,-960.5815 875.7549,-954.5815 881.7549,-954.5815"/>
<text text-anchor="middle" x="926.7549" y="-1013.7815" font-family="Times,serif" font-size="11.00" fill="#c0c0c0">States</text>
</g>
<g id="clust32" class="cluster">
<title>cluster_\Firesphere\SolrSubsites\Extensions</title>
<path fill="none" stroke="#c0c0c0" d="M865.2549,-874.5815C865.2549,-874.5815 988.2549,-874.5815 988.2549,-874.5815 994.2549,-874.5815 1000.2549,-880.5815 1000.2549,-886.5815 1000.2549,-886.5815 1000.2549,-934.5815 1000.2549,-934.5815 1000.2549,-940.5815 994.2549,-946.5815 988.2549,-946.5815 988.2549,-946.5815 865.2549,-946.5815 865.2549,-946.5815 859.2549,-946.5815 853.2549,-940.5815 853.2549,-934.5815 853.2549,-934.5815 853.2549,-886.5815 853.2549,-886.5815 853.2549,-880.5815 859.2549,-874.5815 865.2549,-874.5815"/>
<text text-anchor="middle" x="926.7549" y="-933.7815" font-family="Times,serif" font-size="11.00" fill="#c0c0c0">Extensions</text>
</g>
<g id="clust33" class="cluster">
<title>cluster_\Firesphere\SolrPermissions</title>
<path fill="none" stroke="#c0c0c0" d="M833.2549,-284.5815C833.2549,-284.5815 1020.2549,-284.5815 1020.2549,-284.5815 1026.2549,-284.5815 1032.2549,-290.5815 1032.2549,-296.5815 1032.2549,-296.5815 1032.2549,-542.5815 1032.2549,-542.5815 1032.2549,-548.5815 1026.2549,-554.5815 1020.2549,-554.5815 1020.2549,-554.5815 833.2549,-554.5815 833.2549,-554.5815 827.2549,-554.5815 821.2549,-548.5815 821.2549,-542.5815 821.2549,-542.5815 821.2549,-296.5815 821.2549,-296.5815 821.2549,-290.5815 827.2549,-284.5815 833.2549,-284.5815"/>
<text text-anchor="middle" x="926.7549" y="-541.7815" font-family="Times,serif" font-size="11.00" fill="#c0c0c0">SolrPermissions</text>
</g>
<g id="clust34" class="cluster">
<title>cluster_\Firesphere\SolrPermissions\Extensions</title>
<path fill="none" stroke="#c0c0c0" d="M841.2549,-292.5815C841.2549,-292.5815 1012.2549,-292.5815 1012.2549,-292.5815 1018.2549,-292.5815 1024.2549,-298.5815 1024.2549,-304.5815 1024.2549,-304.5815 1024.2549,-514.5815 1024.2549,-514.5815 1024.2549,-520.5815 1018.2549,-526.5815 1012.2549,-526.5815 1012.2549,-526.5815 841.2549,-526.5815 841.2549,-526.5815 835.2549,-526.5815 829.2549,-520.5815 829.2549,-514.5815 829.2549,-514.5815 829.2549,-304.5815 829.2549,-304.5815 829.2549,-298.5815 835.2549,-292.5815 841.2549,-292.5815"/>
<text text-anchor="middle" x="926.7549" y="-513.7815" font-family="Times,serif" font-size="11.00" fill="#c0c0c0">Extensions</text>
</g>
<!-- \\SilverStripe\\FullTextSearch\\Solr\\SolrIndex -->
<g id="node1" class="node">
<title>\\SilverStripe\\FullTextSearch\\Solr\\SolrIndex</title>
<polygon fill="none" stroke="#000000" points="968.7549,-3286.5815 884.7549,-3286.5815 884.7549,-3250.5815 968.7549,-3250.5815 968.7549,-3286.5815"/>
<text text-anchor="start" x="892.7549" y="-3271.7815" font-family="Courier,monospace" font-size="11.00" fill="#000000">«abstract»</text>
<text text-anchor="start" x="896.2549" y="-3259.7815" font-family="Courier,monospace" font-size="11.00" fill="#000000">SolrIndex</text>
</g>
<!-- \\Firesphere\\SolrSearch\\Indexes\\BaseIndex -->
<g id="node11" class="node">
<title>\\Firesphere\\SolrSearch\\Indexes\\BaseIndex</title>
<polygon fill="none" stroke="#000000" points="714.7549,-2588.5815 630.7549,-2588.5815 630.7549,-2552.5815 714.7549,-2552.5815 714.7549,-2588.5815"/>
<text text-anchor="start" x="638.7549" y="-2573.7815" font-family="Courier,monospace" font-size="11.00" fill="#000000">«abstract»</text>
<text text-anchor="start" x="642.2549" y="-2561.7815" font-family="Courier,monospace" font-size="11.00" fill="#000000">BaseIndex</text>
</g>
<!-- \\SilverStripe\\FullTextSearch\\Solr\\SolrIndex&#45;&gt;\\Firesphere\\SolrSearch\\Indexes\\BaseIndex -->
<g id="edge1" class="edge">
<title>\\SilverStripe\\FullTextSearch\\Solr\\SolrIndex&#45;&gt;\\Firesphere\\SolrSearch\\Indexes\\BaseIndex</title>
<path fill="none" stroke="#000000" d="M884.532,-3268.9516C862.2552,-3266.7465 836.4604,-3259.9193 821.2549,-3241.5815 732.9871,-3135.1305 859.5251,-2734.585 781.2549,-2620.5815 768.0716,-2601.3795 745.5754,-2589.4026 724.4739,-2582.0069"/>
<polygon fill="none" stroke="#000000" points="725.5069,-2578.6626 714.9152,-2578.9218 723.3568,-2585.3243 725.5069,-2578.6626"/>
</g>
<!-- \\SilverStripe\\FullTextSearch\\Solr\\Solr -->
<g id="node2" class="node">
<title>\\SilverStripe\\FullTextSearch\\Solr\\Solr</title>
<polygon fill="none" stroke="#000000" points="953.7549,-3232.5815 899.7549,-3232.5815 899.7549,-3196.5815 953.7549,-3196.5815 953.7549,-3232.5815"/>
<text text-anchor="middle" x="926.7549" y="-3211.7815" font-family="Courier,monospace" font-size="11.00" fill="#000000">Solr</text>
</g>
<!-- \\SilverStripe\\FullTextSearch\\Search\\Queries\\SearchQuery -->
<g id="node3" class="node">
<title>\\SilverStripe\\FullTextSearch\\Search\\Queries\\SearchQuery</title>
<polygon fill="none" stroke="#000000" points="972.2549,-3124.5815 881.2549,-3124.5815 881.2549,-3088.5815 972.2549,-3088.5815 972.2549,-3124.5815"/>
<text text-anchor="middle" x="926.7549" y="-3103.7815" font-family="Courier,monospace" font-size="11.00" fill="#000000">SearchQuery</text>
</g>
<!-- \\Firesphere\\SolrSearch\\Queries\\BaseQuery -->
<g id="node21" class="node">
<title>\\Firesphere\\SolrSearch\\Queries\\BaseQuery</title>
<polygon fill="none" stroke="#000000" points="711.2549,-1918.5815 634.2549,-1918.5815 634.2549,-1882.5815 711.2549,-1882.5815 711.2549,-1918.5815"/>
<text text-anchor="middle" x="672.7549" y="-1897.7815" font-family="Courier,monospace" font-size="11.00" fill="#000000">BaseQuery</text>
</g>
<!-- \\SilverStripe\\FullTextSearch\\Search\\Queries\\SearchQuery&#45;&gt;\\Firesphere\\SolrSearch\\Queries\\BaseQuery -->
<g id="edge3" class="edge">
<title>\\SilverStripe\\FullTextSearch\\Search\\Queries\\SearchQuery&#45;&gt;\\Firesphere\\SolrSearch\\Queries\\BaseQuery</title>
<path fill="none" stroke="#000000" d="M925.5206,-3088.28C915.9261,-2948.0568 851.7672,-2046.8675 781.2549,-1950.5815 766.9088,-1930.9915 742.9933,-1918.8623 721.2609,-1911.467"/>
<polygon fill="none" stroke="#000000" points="722.0609,-1908.0498 711.4716,-1908.3925 719.9634,-1914.7281 722.0609,-1908.0498"/>
</g>
<!-- \\Firesphere\\SolrCompatibility\\Extensions\\FulltextSearchExtension -->
<g id="node4" class="node">
<title>\\Firesphere\\SolrCompatibility\\Extensions\\FulltextSearchExtension</title>
<polygon fill="none" stroke="#000000" points="1012.7549,-220.5815 840.7549,-220.5815 840.7549,-184.5815 1012.7549,-184.5815 1012.7549,-220.5815"/>
<text text-anchor="middle" x="926.7549" y="-199.7815" font-family="Courier,monospace" font-size="11.00" fill="#000000">FulltextSearchExtension</text>
</g>
<!-- \\SilverStripe\\Core\\Extension -->
<g id="node62" class="node">
<title>\\SilverStripe\\Core\\Extension</title>
<ellipse fill="none" stroke="#000000" cx="254.1275" cy="-18.5815" rx="144.0747" ry="18"/>
<text text-anchor="middle" x="254.1275" y="-14.8815" font-family="Times,serif" font-size="14.00" fill="#c0c0c0">\SilverStripe\Core\Extension</text>
</g>
<!-- \\Firesphere\\SolrCompatibility\\Extensions\\FulltextSearchExtension&#45;&gt;\\SilverStripe\\Core\\Extension -->
<g id="edge2" class="edge">
<title>\\Firesphere\\SolrCompatibility\\Extensions\\FulltextSearchExtension&#45;&gt;\\SilverStripe\\Core\\Extension</title>
<path fill="none" stroke="#000000" d="M897.7118,-184.4754C869.069,-167.3373 823.5604,-142.0014 781.2549,-126.5815 734.8533,-109.6685 713.181,-130.9521 672.7549,-102.5815"/>
<path fill="none" stroke="#000000" d="M672.7549,-102.5815C596.2283,-48.8758 493.496,-27.6997 408.9542,-20.036"/>
<polygon fill="none" stroke="#000000" points="408.9981,-16.5272 398.7374,-19.1672 408.4048,-23.502 408.9981,-16.5272"/>
</g>
<!-- \\Firesphere\\SolrSearch\\Tasks\\SolrConfigureTask -->
<g id="node5" class="node">
<title>\\Firesphere\\SolrSearch\\Tasks\\SolrConfigureTask</title>
<polygon fill="none" stroke="#000000" points="738.2549,-2830.5815 607.2549,-2830.5815 607.2549,-2794.5815 738.2549,-2794.5815 738.2549,-2830.5815"/>
<text text-anchor="middle" x="672.7549" y="-2809.7815" font-family="Courier,monospace" font-size="11.00" fill="#000000">SolrConfigureTask</text>
</g>
<!-- \\SilverStripe\\Dev\\BuildTask -->
<g id="node63" class="node">
<title>\\SilverStripe\\Dev\\BuildTask</title>
<ellipse fill="none" stroke="#000000" cx="254.1275" cy="-126.5815" rx="139.9756" ry="18"/>
<text text-anchor="middle" x="254.1275" y="-122.8815" font-family="Times,serif" font-size="14.00" fill="#c0c0c0">\SilverStripe\Dev\BuildTask</text>
</g>
<!-- \\Firesphere\\SolrSearch\\Tasks\\SolrConfigureTask&#45;&gt;\\SilverStripe\\Dev\\BuildTask -->
<g id="edge4" class="edge">
<title>\\Firesphere\\SolrSearch\\Tasks\\SolrConfigureTask&#45;&gt;\\SilverStripe\\Dev\\BuildTask</title>
<path fill="none" stroke="#000000" d="M607.1343,-2807.3999C593.727,-2803.2517 581.0474,-2796.4781 572.2549,-2785.5815 482.0662,-2673.8099 524.9635,-1637.2268 508.2549,-1494.5815 444.5741,-950.9242 294.5231,-297.8973 260.8945,-155.0602"/>
<polygon fill="none" stroke="#000000" points="264.2109,-153.8747 258.5068,-144.9464 257.3982,-155.4831 264.2109,-153.8747"/>
</g>
<!-- \\Firesphere\\SolrSearch\\Tasks\\ClearErrorsTask -->
<g id="node6" class="node">
<title>\\Firesphere\\SolrSearch\\Tasks\\ClearErrorsTask</title>
<polygon fill="none" stroke="#000000" points="731.7549,-2776.5815 613.7549,-2776.5815 613.7549,-2740.5815 731.7549,-2740.5815 731.7549,-2776.5815"/>
<text text-anchor="middle" x="672.7549" y="-2755.7815" font-family="Courier,monospace" font-size="11.00" fill="#000000">ClearErrorsTask</text>
</g>
<!-- \\Firesphere\\SolrSearch\\Tasks\\ClearErrorsTask&#45;&gt;\\SilverStripe\\Dev\\BuildTask -->
<g id="edge5" class="edge">
<title>\\Firesphere\\SolrSearch\\Tasks\\ClearErrorsTask&#45;&gt;\\SilverStripe\\Dev\\BuildTask</title>
<path fill="none" stroke="#000000" d="M613.6824,-2755.1946C597.936,-2751.3151 582.4792,-2744.2246 572.2549,-2731.5815 485.7137,-2624.5667 524.4139,-1631.2578 508.2549,-1494.5815 443.9874,-950.9933 294.3884,-297.9132 260.8713,-155.063"/>
<polygon fill="none" stroke="#000000" points="264.1888,-153.8809 258.4916,-144.9482 257.3748,-155.484 264.1888,-153.8809"/>
</g>
<!-- \\Firesphere\\SolrSearch\\Tasks\\SolrIndexTask -->
<g id="node7" class="node">
<title>\\Firesphere\\SolrSearch\\Tasks\\SolrIndexTask</title>
<polygon fill="none" stroke="#000000" points="724.7549,-2722.5815 620.7549,-2722.5815 620.7549,-2686.5815 724.7549,-2686.5815 724.7549,-2722.5815"/>
<text text-anchor="middle" x="672.7549" y="-2701.7815" font-family="Courier,monospace" font-size="11.00" fill="#000000">SolrIndexTask</text>
</g>
<!-- \\Firesphere\\SolrSearch\\Tasks\\SolrIndexTask&#45;&gt;\\SilverStripe\\Dev\\BuildTask -->
<g id="edge6" class="edge">
<title>\\Firesphere\\SolrSearch\\Tasks\\SolrIndexTask&#45;&gt;\\SilverStripe\\Dev\\BuildTask</title>
<path fill="none" stroke="#000000" d="M620.5274,-2702.667C602.5308,-2699.2312 583.9731,-2692.0371 572.2549,-2677.5815 489.3607,-2575.3231 523.8644,-1625.2894 508.2549,-1494.5815 443.3474,-951.0693 294.2413,-297.9307 260.8459,-155.066"/>
<polygon fill="none" stroke="#000000" points="264.1647,-153.8876 258.475,-144.9502 257.3494,-155.485 264.1647,-153.8876"/>
</g>
<!-- \\Firesphere\\SolrSearch\\Tasks\\ClearDirtyClassesTask -->
<g id="node8" class="node">
<title>\\Firesphere\\SolrSearch\\Tasks\\ClearDirtyClassesTask</title>
<polygon fill="none" stroke="#000000" points="751.7549,-2668.5815 593.7549,-2668.5815 593.7549,-2632.5815 751.7549,-2632.5815 751.7549,-2668.5815"/>
<text text-anchor="middle" x="672.7549" y="-2647.7815" font-family="Courier,monospace" font-size="11.00" fill="#000000">ClearDirtyClassesTask</text>
</g>
<!-- \\Firesphere\\SolrSearch\\Tasks\\ClearDirtyClassesTask&#45;&gt;\\SilverStripe\\Dev\\BuildTask -->
<g id="edge7" class="edge">
<title>\\Firesphere\\SolrSearch\\Tasks\\ClearDirtyClassesTask&#45;&gt;\\SilverStripe\\Dev\\BuildTask</title>
<path fill="none" stroke="#000000" d="M593.7078,-2637.6957C585.4647,-2633.4413 578.0125,-2627.8676 572.2549,-2620.5815 494.5608,-2522.2607 523.2844,-1618.99 508.2549,-1494.5815 442.6055,-951.1584 294.0709,-297.9511 260.8166,-155.0695"/>
<polygon fill="none" stroke="#000000" points="264.1367,-153.8955 258.4558,-144.9525 257.3199,-155.4862 264.1367,-153.8955"/>
</g>
<!-- \\Firesphere\\SolrSearch\\Services\\SolrCoreService -->
<g id="node9" class="node">
<title>\\Firesphere\\SolrSearch\\Services\\SolrCoreService</title>
<polygon fill="none" stroke="#000000" points="731.7549,-2964.5815 613.7549,-2964.5815 613.7549,-2928.5815 731.7549,-2928.5815 731.7549,-2964.5815"/>
<text text-anchor="middle" x="672.7549" y="-2943.7815" font-family="Courier,monospace" font-size="11.00" fill="#000000">SolrCoreService</text>
</g>
<!-- \\Firesphere\\SolrSearch\\Services\\SchemaService -->
<g id="node10" class="node">
<title>\\Firesphere\\SolrSearch\\Services\\SchemaService</title>
<polygon fill="none" stroke="#000000" points="724.7549,-2910.5815 620.7549,-2910.5815 620.7549,-2874.5815 724.7549,-2874.5815 724.7549,-2910.5815"/>
<text text-anchor="middle" x="672.7549" y="-2889.7815" font-family="Courier,monospace" font-size="11.00" fill="#000000">SchemaService</text>
</g>
<!-- \\SilverStripe\\View\\ViewableData -->
<g id="node64" class="node">
<title>\\SilverStripe\\View\\ViewableData</title>
<ellipse fill="none" stroke="#000000" cx="254.1275" cy="-3694.5815" rx="163.2712" ry="18"/>
<text text-anchor="middle" x="254.1275" y="-3690.8815" font-family="Times,serif" font-size="14.00" fill="#c0c0c0">\SilverStripe\View\ViewableData</text>
</g>
<!-- \\Firesphere\\SolrSearch\\Services\\SchemaService&#45;&gt;\\SilverStripe\\View\\ViewableData -->
<g id="edge8" class="edge">
<title>\\Firesphere\\SolrSearch\\Services\\SchemaService&#45;&gt;\\SilverStripe\\View\\ViewableData</title>
<path fill="none" stroke="#000000" d="M620.5066,-2894.745C602.6191,-2898.2228 584.14,-2905.3803 572.2549,-2919.5815 465.1834,-3047.5182 625.0062,-3548.4125 508.2549,-3667.5815 467.1134,-3709.575 400.4802,-3715.331 345.7656,-3711.1117"/>
<polygon fill="none" stroke="#000000" points="345.968,-3707.616 335.6967,-3710.2143 345.3465,-3714.5883 345.968,-3707.616"/>
</g>
<!-- \\Firesphere\\SolrSearch\\Helpers\\FieldResolver -->
<g id="node12" class="node">
<title>\\Firesphere\\SolrSearch\\Helpers\\FieldResolver</title>
<polygon fill="none" stroke="#000000" points="724.7549,-2508.5815 620.7549,-2508.5815 620.7549,-2472.5815 724.7549,-2472.5815 724.7549,-2508.5815"/>
<text text-anchor="middle" x="672.7549" y="-2487.7815" font-family="Courier,monospace" font-size="11.00" fill="#000000">FieldResolver</text>
</g>
<!-- \\Firesphere\\SolrSearch\\Helpers\\Statics -->
<g id="node13" class="node">
<title>\\Firesphere\\SolrSearch\\Helpers\\Statics</title>
<polygon fill="none" stroke="#000000" points="704.7549,-2454.5815 640.7549,-2454.5815 640.7549,-2418.5815 704.7549,-2418.5815 704.7549,-2454.5815"/>
<text text-anchor="middle" x="672.7549" y="-2433.7815" font-family="Courier,monospace" font-size="11.00" fill="#000000">Statics</text>
</g>
<!-- \\Firesphere\\SolrSearch\\Helpers\\Synonyms -->
<g id="node14" class="node">
<title>\\Firesphere\\SolrSearch\\Helpers\\Synonyms</title>
<polygon fill="none" stroke="#000000" points="708.2549,-2400.5815 637.2549,-2400.5815 637.2549,-2364.5815 708.2549,-2364.5815 708.2549,-2400.5815"/>
<text text-anchor="middle" x="672.7549" y="-2379.7815" font-family="Courier,monospace" font-size="11.00" fill="#000000">Synonyms</text>
</g>
<!-- \\Firesphere\\SolrSearch\\Helpers\\DataResolver -->
<g id="node15" class="node">
<title>\\Firesphere\\SolrSearch\\Helpers\\DataResolver</title>
<polygon fill="none" stroke="#000000" points="721.7549,-2346.5815 623.7549,-2346.5815 623.7549,-2310.5815 721.7549,-2310.5815 721.7549,-2346.5815"/>
<text text-anchor="middle" x="672.7549" y="-2325.7815" font-family="Courier,monospace" font-size="11.00" fill="#000000">DataResolver</text>
</g>
<!-- \\Firesphere\\SolrSearch\\Helpers\\SolrLogger -->
<g id="node16" class="node">
<title>\\Firesphere\\SolrSearch\\Helpers\\SolrLogger</title>
<polygon fill="none" stroke="#000000" points="714.7549,-2292.5815 630.7549,-2292.5815 630.7549,-2256.5815 714.7549,-2256.5815 714.7549,-2292.5815"/>
<text text-anchor="middle" x="672.7549" y="-2271.7815" font-family="Courier,monospace" font-size="11.00" fill="#000000">SolrLogger</text>
</g>
<!-- \\Firesphere\\SolrSearch\\States\\SiteState -->
<g id="node17" class="node">
<title>\\Firesphere\\SolrSearch\\States\\SiteState</title>
<polygon fill="none" stroke="#000000" points="714.7549,-2212.5815 630.7549,-2212.5815 630.7549,-2176.5815 714.7549,-2176.5815 714.7549,-2212.5815"/>
<text text-anchor="start" x="638.7549" y="-2197.7815" font-family="Courier,monospace" font-size="11.00" fill="#000000">«abstract»</text>
<text text-anchor="start" x="642.2549" y="-2185.7815" font-family="Courier,monospace" font-size="11.00" fill="#000000">SiteState</text>
</g>
<!-- \\Firesphere\\SolrSearch\\Forms\\SearchForm -->
<g id="node18" class="node">
<title>\\Firesphere\\SolrSearch\\Forms\\SearchForm</title>
<polygon fill="none" stroke="#000000" points="714.7549,-2132.5815 630.7549,-2132.5815 630.7549,-2096.5815 714.7549,-2096.5815 714.7549,-2132.5815"/>
<text text-anchor="middle" x="672.7549" y="-2111.7815" font-family="Courier,monospace" font-size="11.00" fill="#000000">SearchForm</text>
</g>
<!-- \\SilverStripe\\Forms\\Form -->
<g id="node65" class="node">
<title>\\SilverStripe\\Forms\\Form</title>
<ellipse fill="none" stroke="#000000" cx="254.1275" cy="-3640.5815" rx="129.1772" ry="18"/>
<text text-anchor="middle" x="254.1275" y="-3636.8815" font-family="Times,serif" font-size="14.00" fill="#c0c0c0">\SilverStripe\Forms\Form</text>
</g>
<!-- \\Firesphere\\SolrSearch\\Forms\\SearchForm&#45;&gt;\\SilverStripe\\Forms\\Form -->
<g id="edge9" class="edge">
<title>\\Firesphere\\SolrSearch\\Forms\\SearchForm&#45;&gt;\\SilverStripe\\Forms\\Form</title>
<path fill="none" stroke="#000000" d="M630.6587,-2124.5954C609.4209,-2131.9599 585.43,-2144.3239 572.2549,-2164.5815 484.3904,-2299.6792 618.6404,-3496.165 508.2549,-3613.5815 465.467,-3659.0947 392.875,-3662.7118 336.2052,-3656.7502"/>
<polygon fill="none" stroke="#000000" points="336.5181,-3653.263 326.1797,-3655.5798 335.7064,-3660.2158 336.5181,-3653.263"/>
</g>
<!-- \\Firesphere\\SolrSearch\\Factories\\QueryComponentFactory -->
<g id="node19" class="node">
<title>\\Firesphere\\SolrSearch\\Factories\\QueryComponentFactory</title>
<polygon fill="none" stroke="#000000" points="751.7549,-2052.5815 593.7549,-2052.5815 593.7549,-2016.5815 751.7549,-2016.5815 751.7549,-2052.5815"/>
<text text-anchor="middle" x="672.7549" y="-2031.7815" font-family="Courier,monospace" font-size="11.00" fill="#000000">QueryComponentFactory</text>
</g>
<!-- \\Firesphere\\SolrSearch\\Factories\\DocumentFactory -->
<g id="node20" class="node">
<title>\\Firesphere\\SolrSearch\\Factories\\DocumentFactory</title>
<polygon fill="none" stroke="#000000" points="731.7549,-1998.5815 613.7549,-1998.5815 613.7549,-1962.5815 731.7549,-1962.5815 731.7549,-1998.5815"/>
<text text-anchor="middle" x="672.7549" y="-1977.7815" font-family="Courier,monospace" font-size="11.00" fill="#000000">DocumentFactory</text>
</g>
<!-- \\Firesphere\\SolrSearch\\Jobs\\SolrIndexJob -->
<g id="node22" class="node">
<title>\\Firesphere\\SolrSearch\\Jobs\\SolrIndexJob</title>
<polygon fill="none" stroke="#000000" points="721.7549,-1838.5815 623.7549,-1838.5815 623.7549,-1802.5815 721.7549,-1802.5815 721.7549,-1838.5815"/>
<text text-anchor="middle" x="672.7549" y="-1817.7815" font-family="Courier,monospace" font-size="11.00" fill="#000000">SolrIndexJob</text>
</g>
<!-- \\Symbiote\\QueuedJobs\\Services\\AbstractQueuedJob -->
<g id="node66" class="node">
<title>\\Symbiote\\QueuedJobs\\Services\\AbstractQueuedJob</title>
<ellipse fill="none" stroke="#000000" cx="254.1275" cy="-3586.5815" rx="254.255" ry="18"/>
<text text-anchor="middle" x="254.1275" y="-3582.8815" font-family="Times,serif" font-size="14.00" fill="#c0c0c0">\Symbiote\QueuedJobs\Services\AbstractQueuedJob</text>
</g>
<!-- \\Firesphere\\SolrSearch\\Jobs\\SolrIndexJob&#45;&gt;\\Symbiote\\QueuedJobs\\Services\\AbstractQueuedJob -->
<g id="edge10" class="edge">
<title>\\Firesphere\\SolrSearch\\Jobs\\SolrIndexJob&#45;&gt;\\Symbiote\\QueuedJobs\\Services\\AbstractQueuedJob</title>
<path fill="none" stroke="#000000" d="M623.5869,-1833.1467C604.2609,-1840.7039 583.939,-1852.4926 572.2549,-1870.5815 470.3573,-2028.3352 636.4613,-3422.3501 508.2549,-3559.5815 469.6989,-3600.8516 406.652,-3607.7546 353.0036,-3604.2641"/>
<polygon fill="none" stroke="#000000" points="352.9986,-3600.7532 342.757,-3603.4662 352.455,-3607.7321 352.9986,-3600.7532"/>
</g>
<!-- \\Firesphere\\SolrSearch\\Jobs\\SolrConfigureJob -->
<g id="node23" class="node">
<title>\\Firesphere\\SolrSearch\\Jobs\\SolrConfigureJob</title>
<polygon fill="none" stroke="#000000" points="735.2549,-1784.5815 610.2549,-1784.5815 610.2549,-1748.5815 735.2549,-1748.5815 735.2549,-1784.5815"/>
<text text-anchor="middle" x="672.7549" y="-1763.7815" font-family="Courier,monospace" font-size="11.00" fill="#000000">SolrConfigureJob</text>
</g>
<!-- \\Firesphere\\SolrSearch\\Jobs\\SolrConfigureJob&#45;&gt;\\Symbiote\\QueuedJobs\\Services\\AbstractQueuedJob -->
<g id="edge11" class="edge">
<title>\\Firesphere\\SolrSearch\\Jobs\\SolrConfigureJob&#45;&gt;\\Symbiote\\QueuedJobs\\Services\\AbstractQueuedJob</title>
<path fill="none" stroke="#000000" d="M610.1532,-1770.7606C595.608,-1774.8025 581.6498,-1781.7784 572.2549,-1793.5815 449.973,-1947.2072 642.1795,-3415.992 508.2549,-3559.5815 469.6619,-3600.9596 406.4535,-3607.8119 352.7325,-3604.2688"/>
<polygon fill="none" stroke="#000000" points="352.7171,-3600.7568 342.4731,-3603.4607 352.1673,-3607.7352 352.7171,-3600.7568"/>
</g>
<!-- \\Firesphere\\SolrSearch\\Jobs\\ClearDirtyClassesJob -->
<g id="node24" class="node">
<title>\\Firesphere\\SolrSearch\\Jobs\\ClearDirtyClassesJob</title>
<polygon fill="none" stroke="#000000" points="748.7549,-1730.5815 596.7549,-1730.5815 596.7549,-1694.5815 748.7549,-1694.5815 748.7549,-1730.5815"/>
<text text-anchor="middle" x="672.7549" y="-1709.7815" font-family="Courier,monospace" font-size="11.00" fill="#000000">ClearDirtyClassesJob</text>
</g>
<!-- \\Firesphere\\SolrSearch\\Jobs\\ClearDirtyClassesJob&#45;&gt;\\Symbiote\\QueuedJobs\\Services\\AbstractQueuedJob -->
<g id="edge12" class="edge">
<title>\\Firesphere\\SolrSearch\\Jobs\\ClearDirtyClassesJob&#45;&gt;\\Symbiote\\QueuedJobs\\Services\\AbstractQueuedJob</title>
<path fill="none" stroke="#000000" d="M596.6014,-1721.5497C587.2012,-1725.7112 578.6639,-1731.5209 572.2549,-1739.5815 446.3238,-1897.9663 646.1899,-3411.533 508.2549,-3559.5815 469.6841,-3600.9803 406.4758,-3607.8327 352.7493,-3604.2844"/>
<polygon fill="none" stroke="#000000" points="352.733,-3600.7724 342.4887,-3603.4752 352.1826,-3607.7507 352.733,-3600.7724"/>
</g>
<!-- \\Firesphere\\SolrSearch\\Stores\\FileConfigStore -->
<g id="node25" class="node">
<title>\\Firesphere\\SolrSearch\\Stores\\FileConfigStore</title>
<polygon fill="none" stroke="#000000" points="731.7549,-1650.5815 613.7549,-1650.5815 613.7549,-1614.5815 731.7549,-1614.5815 731.7549,-1650.5815"/>
<text text-anchor="middle" x="672.7549" y="-1629.7815" font-family="Courier,monospace" font-size="11.00" fill="#000000">FileConfigStore</text>
</g>
<!-- \\Firesphere\\SolrSearch\\Interfaces\\ConfigStore -->
<g id="node50" class="node">
<title>\\Firesphere\\SolrSearch\\Interfaces\\ConfigStore</title>
<polygon fill="none" stroke="#000000" points="299.6275,-1596.5815 208.6275,-1596.5815 208.6275,-1560.5815 299.6275,-1560.5815 299.6275,-1596.5815"/>
<text text-anchor="middle" x="254.1275" y="-1575.7815" font-family="Courier,monospace" font-size="11.00" fill="#000000">ConfigStore</text>
</g>
<!-- \\Firesphere\\SolrSearch\\Stores\\FileConfigStore&#45;&gt;\\Firesphere\\SolrSearch\\Interfaces\\ConfigStore -->
<g id="edge13" class="edge">
<title>\\Firesphere\\SolrSearch\\Stores\\FileConfigStore&#45;&gt;\\Firesphere\\SolrSearch\\Interfaces\\ConfigStore</title>
<path fill="none" stroke="#000000" stroke-dasharray="1,5" d="M613.6637,-1624.9591C532.8854,-1614.5393 389.0185,-1595.9815 309.9722,-1585.7851"/>
<polygon fill="none" stroke="#000000" points="310.0944,-1582.2719 299.7287,-1584.4637 309.1988,-1589.2144 310.0944,-1582.2719"/>
</g>
<!-- \\Firesphere\\SolrSearch\\Stores\\PostConfigStore -->
<g id="node26" class="node">
<title>\\Firesphere\\SolrSearch\\Stores\\PostConfigStore</title>
<polygon fill="none" stroke="#000000" points="731.7549,-1596.5815 613.7549,-1596.5815 613.7549,-1560.5815 731.7549,-1560.5815 731.7549,-1596.5815"/>
<text text-anchor="middle" x="672.7549" y="-1575.7815" font-family="Courier,monospace" font-size="11.00" fill="#000000">PostConfigStore</text>
</g>
<!-- \\Firesphere\\SolrSearch\\Stores\\PostConfigStore&#45;&gt;\\Firesphere\\SolrSearch\\Interfaces\\ConfigStore -->
<g id="edge14" class="edge">
<title>\\Firesphere\\SolrSearch\\Stores\\PostConfigStore&#45;&gt;\\Firesphere\\SolrSearch\\Interfaces\\ConfigStore</title>
<path fill="none" stroke="#000000" stroke-dasharray="1,5" d="M613.6637,-1578.5815C532.8854,-1578.5815 389.0185,-1578.5815 309.9722,-1578.5815"/>
<polygon fill="none" stroke="#000000" points="309.7288,-1575.0816 299.7287,-1578.5815 309.7287,-1582.0816 309.7288,-1575.0816"/>
</g>
<!-- \\Firesphere\\SolrSearch\\Extensions\\GridFieldExtension -->
<g id="node27" class="node">
<title>\\Firesphere\\SolrSearch\\Extensions\\GridFieldExtension</title>
<polygon fill="none" stroke="#000000" points="741.7549,-1462.5815 603.7549,-1462.5815 603.7549,-1426.5815 741.7549,-1426.5815 741.7549,-1462.5815"/>
<text text-anchor="middle" x="672.7549" y="-1441.7815" font-family="Courier,monospace" font-size="11.00" fill="#000000">GridFieldExtension</text>
</g>
<!-- \\Firesphere\\SolrSearch\\Extensions\\GridFieldExtension&#45;&gt;\\SilverStripe\\Core\\Extension -->
<g id="edge15" class="edge">
<title>\\Firesphere\\SolrSearch\\Extensions\\GridFieldExtension&#45;&gt;\\SilverStripe\\Core\\Extension</title>
<path fill="none" stroke="#000000" d="M603.6359,-1436.1789C591.4963,-1431.6076 580.2192,-1424.7651 572.2549,-1414.5815 478.4452,-1294.6311 612.7009,-156.3938 508.2549,-45.5815 466.1979,-.9609 395.487,3.3515 339.3171,-2.1276"/>
<polygon fill="none" stroke="#000000" points="338.9273,1.3508 329.3662,-3.2138 339.6869,-5.6079 338.9273,1.3508"/>
</g>
<!-- \\Firesphere\\SolrSearch\\Extensions\\DataObjectExtension -->
<g id="node28" class="node">
<title>\\Firesphere\\SolrSearch\\Extensions\\DataObjectExtension</title>
<polygon fill="none" stroke="#000000" points="745.2549,-1516.5815 600.2549,-1516.5815 600.2549,-1480.5815 745.2549,-1480.5815 745.2549,-1516.5815"/>
<text text-anchor="middle" x="672.7549" y="-1495.7815" font-family="Courier,monospace" font-size="11.00" fill="#000000">DataObjectExtension</text>
</g>
<!-- \\SilverStripe\\ORM\\DataExtension -->
<g id="node67" class="node">
<title>\\SilverStripe\\ORM\\DataExtension</title>
<ellipse fill="none" stroke="#000000" cx="254.1275" cy="-72.5815" rx="167.8704" ry="18"/>
<text text-anchor="middle" x="254.1275" y="-68.8815" font-family="Times,serif" font-size="14.00" fill="#c0c0c0">\SilverStripe\ORM\DataExtension</text>
</g>
<!-- \\Firesphere\\SolrSearch\\Extensions\\DataObjectExtension&#45;&gt;\\SilverStripe\\ORM\\DataExtension -->
<g id="edge16" class="edge">
<title>\\Firesphere\\SolrSearch\\Extensions\\DataObjectExtension&#45;&gt;\\SilverStripe\\ORM\\DataExtension</title>
<path fill="none" stroke="#000000" d="M600.1887,-1491.0031C589.4078,-1486.7826 579.5027,-1480.5906 572.2549,-1471.5815 476.5946,-1352.674 612.9237,-210.6415 508.2549,-99.5815 467.3615,-56.191 399.3726,-50.9154 344.0043,-55.6953"/>
<polygon fill="none" stroke="#000000" points="343.4309,-52.2347 333.8221,-56.6979 344.1169,-59.201 343.4309,-52.2347"/>
</g>
<!-- \\Firesphere\\SolrSearch\\Traits\\GetterSetterTrait -->
<g id="node29" class="node">
<title>\\Firesphere\\SolrSearch\\Traits\\GetterSetterTrait</title>
<polygon fill="none" stroke="#000000" points="738.2549,-1382.5815 607.2549,-1382.5815 607.2549,-1346.5815 738.2549,-1346.5815 738.2549,-1382.5815"/>
<text text-anchor="middle" x="672.7549" y="-1361.7815" font-family="Courier,monospace" font-size="11.00" fill="#000000">GetterSetterTrait</text>
</g>
<!-- \\Firesphere\\SolrSearch\\Traits\\GetSetSchemaServiceTrait -->
<g id="node30" class="node">
<title>\\Firesphere\\SolrSearch\\Traits\\GetSetSchemaServiceTrait</title>
<polygon fill="none" stroke="#000000" points="762.2549,-1328.5815 583.2549,-1328.5815 583.2549,-1292.5815 762.2549,-1292.5815 762.2549,-1328.5815"/>
<text text-anchor="middle" x="672.7549" y="-1307.7815" font-family="Courier,monospace" font-size="11.00" fill="#000000">GetSetSchemaServiceTrait</text>
</g>
<!-- \\Firesphere\\SolrSearch\\Traits\\DocumentFactoryTrait -->
<g id="node31" class="node">
<title>\\Firesphere\\SolrSearch\\Traits\\DocumentFactoryTrait</title>
<polygon fill="none" stroke="#000000" points="748.7549,-1274.5815 596.7549,-1274.5815 596.7549,-1238.5815 748.7549,-1238.5815 748.7549,-1274.5815"/>
<text text-anchor="middle" x="672.7549" y="-1253.7815" font-family="Courier,monospace" font-size="11.00" fill="#000000">DocumentFactoryTrait</text>
</g>
<!-- \\Firesphere\\SolrSearch\\Traits\\QueryComponentFilterTrait -->
<g id="node32" class="node">
<title>\\Firesphere\\SolrSearch\\Traits\\QueryComponentFilterTrait</title>
<polygon fill="none" stroke="#000000" points="765.2549,-1220.5815 580.2549,-1220.5815 580.2549,-1184.5815 765.2549,-1184.5815 765.2549,-1220.5815"/>
<text text-anchor="middle" x="672.7549" y="-1199.7815" font-family="Courier,monospace" font-size="11.00" fill="#000000">QueryComponentFilterTrait</text>
</g>
<!-- \\Firesphere\\SolrSearch\\Traits\\QueryComponentFacetTrait -->
<g id="node33" class="node">
<title>\\Firesphere\\SolrSearch\\Traits\\QueryComponentFacetTrait</title>
<polygon fill="none" stroke="#000000" points="762.2549,-1166.5815 583.2549,-1166.5815 583.2549,-1130.5815 762.2549,-1130.5815 762.2549,-1166.5815"/>
<text text-anchor="middle" x="672.7549" y="-1145.7815" font-family="Courier,monospace" font-size="11.00" fill="#000000">QueryComponentFacetTrait</text>
</g>
<!-- \\Firesphere\\SolrSearch\\Traits\\QueryComponentBoostTrait -->
<g id="node34" class="node">
<title>\\Firesphere\\SolrSearch\\Traits\\QueryComponentBoostTrait</title>
<polygon fill="none" stroke="#000000" points="762.2549,-1112.5815 583.2549,-1112.5815 583.2549,-1076.5815 762.2549,-1076.5815 762.2549,-1112.5815"/>
<text text-anchor="middle" x="672.7549" y="-1091.7815" font-family="Courier,monospace" font-size="11.00" fill="#000000">QueryComponentBoostTrait</text>
</g>
<!-- \\Firesphere\\SolrSearch\\Traits\\GetSetSearchResolverTrait -->
<g id="node35" class="node">
<title>\\Firesphere\\SolrSearch\\Traits\\GetSetSearchResolverTrait</title>
<polygon fill="none" stroke="#000000" points="765.2549,-1058.5815 580.2549,-1058.5815 580.2549,-1022.5815 765.2549,-1022.5815 765.2549,-1058.5815"/>
<text text-anchor="middle" x="672.7549" y="-1037.7815" font-family="Courier,monospace" font-size="11.00" fill="#000000">GetSetSearchResolverTrait</text>
</g>
<!-- \\Firesphere\\SolrSearch\\Traits\\DataResolveTrait -->
<g id="node36" class="node">
<title>\\Firesphere\\SolrSearch\\Traits\\DataResolveTrait</title>
<polygon fill="none" stroke="#000000" points="735.2549,-1004.5815 610.2549,-1004.5815 610.2549,-968.5815 735.2549,-968.5815 735.2549,-1004.5815"/>
<text text-anchor="middle" x="672.7549" y="-983.7815" font-family="Courier,monospace" font-size="11.00" fill="#000000">DataResolveTrait</text>
</g>
<!-- \\Firesphere\\SolrSearch\\Traits\\SearchResultGetTrait -->
<g id="node37" class="node">
<title>\\Firesphere\\SolrSearch\\Traits\\SearchResultGetTrait</title>
<polygon fill="none" stroke="#000000" points="748.7549,-950.5815 596.7549,-950.5815 596.7549,-914.5815 748.7549,-914.5815 748.7549,-950.5815"/>
<text text-anchor="middle" x="672.7549" y="-929.7815" font-family="Courier,monospace" font-size="11.00" fill="#000000">SearchResultGetTrait</text>
</g>
<!-- \\Firesphere\\SolrSearch\\Traits\\SearchResultSetTrait -->
<g id="node38" class="node">
<title>\\Firesphere\\SolrSearch\\Traits\\SearchResultSetTrait</title>
<polygon fill="none" stroke="#000000" points="748.7549,-896.5815 596.7549,-896.5815 596.7549,-860.5815 748.7549,-860.5815 748.7549,-896.5815"/>
<text text-anchor="middle" x="672.7549" y="-875.7815" font-family="Courier,monospace" font-size="11.00" fill="#000000">SearchResultSetTrait</text>
</g>
<!-- \\Firesphere\\SolrSearch\\Traits\\SolrIndexTrait -->
<g id="node39" class="node">
<title>\\Firesphere\\SolrSearch\\Traits\\SolrIndexTrait</title>
<polygon fill="none" stroke="#000000" points="728.2549,-842.5815 617.2549,-842.5815 617.2549,-806.5815 728.2549,-806.5815 728.2549,-842.5815"/>
<text text-anchor="middle" x="672.7549" y="-821.7815" font-family="Courier,monospace" font-size="11.00" fill="#000000">SolrIndexTrait</text>
</g>
<!-- \\Firesphere\\SolrSearch\\Traits\\BaseIndexTrait -->
<g id="node40" class="node">
<title>\\Firesphere\\SolrSearch\\Traits\\BaseIndexTrait</title>
<polygon fill="none" stroke="#000000" points="728.2549,-788.5815 617.2549,-788.5815 617.2549,-752.5815 728.2549,-752.5815 728.2549,-788.5815"/>
<text text-anchor="middle" x="672.7549" y="-767.7815" font-family="Courier,monospace" font-size="11.00" fill="#000000">BaseIndexTrait</text>
</g>
<!-- \\Firesphere\\SolrSearch\\Traits\\LoggerTrait -->
<g id="node41" class="node">
<title>\\Firesphere\\SolrSearch\\Traits\\LoggerTrait</title>
<polygon fill="none" stroke="#000000" points="718.2549,-734.5815 627.2549,-734.5815 627.2549,-698.5815 718.2549,-698.5815 718.2549,-734.5815"/>
<text text-anchor="middle" x="672.7549" y="-713.7815" font-family="Courier,monospace" font-size="11.00" fill="#000000">LoggerTrait</text>
</g>
<!-- \\Firesphere\\SolrSearch\\Traits\\BaseQueryTrait -->
<g id="node42" class="node">
<title>\\Firesphere\\SolrSearch\\Traits\\BaseQueryTrait</title>
<polygon fill="none" stroke="#000000" points="728.2549,-680.5815 617.2549,-680.5815 617.2549,-644.5815 728.2549,-644.5815 728.2549,-680.5815"/>
<text text-anchor="middle" x="672.7549" y="-659.7815" font-family="Courier,monospace" font-size="11.00" fill="#000000">BaseQueryTrait</text>
</g>
<!-- \\Firesphere\\SolrSearch\\Traits\\CoreAdminTrait -->
<g id="node43" class="node">
<title>\\Firesphere\\SolrSearch\\Traits\\CoreAdminTrait</title>
<polygon fill="none" stroke="#000000" points="728.2549,-626.5815 617.2549,-626.5815 617.2549,-590.5815 728.2549,-590.5815 728.2549,-626.5815"/>
<text text-anchor="middle" x="672.7549" y="-605.7815" font-family="Courier,monospace" font-size="11.00" fill="#000000">CoreAdminTrait</text>
</g>
<!-- \\Firesphere\\SolrSearch\\Traits\\CoreServiceTrait -->
<g id="node44" class="node">
<title>\\Firesphere\\SolrSearch\\Traits\\CoreServiceTrait</title>
<polygon fill="none" stroke="#000000" points="735.2549,-572.5815 610.2549,-572.5815 610.2549,-536.5815 735.2549,-536.5815 735.2549,-572.5815"/>
<text text-anchor="middle" x="672.7549" y="-551.7815" font-family="Courier,monospace" font-size="11.00" fill="#000000">CoreServiceTrait</text>
</g>
<!-- \\Firesphere\\SolrSearch\\Results\\SearchResult -->
<g id="node45" class="node">
<title>\\Firesphere\\SolrSearch\\Results\\SearchResult</title>
<polygon fill="none" stroke="#000000" points="721.7549,-492.5815 623.7549,-492.5815 623.7549,-456.5815 721.7549,-456.5815 721.7549,-492.5815"/>
<text text-anchor="middle" x="672.7549" y="-471.7815" font-family="Courier,monospace" font-size="11.00" fill="#000000">SearchResult</text>
</g>
<!-- \\Firesphere\\SolrSearch\\Models\\SolrLog -->
<g id="node46" class="node">
<title>\\Firesphere\\SolrSearch\\Models\\SolrLog</title>
<polygon fill="none" stroke="#000000" points="704.7549,-304.5815 640.7549,-304.5815 640.7549,-268.5815 704.7549,-268.5815 704.7549,-304.5815"/>
<text text-anchor="middle" x="672.7549" y="-283.7815" font-family="Courier,monospace" font-size="11.00" fill="#000000">SolrLog</text>
</g>
<!-- \\SilverStripe\\ORM\\DataObject -->
<g id="node68" class="node">
<title>\\SilverStripe\\ORM\\DataObject</title>
<ellipse fill="none" stroke="#000000" cx="254.1275" cy="-3532.5815" rx="152.9733" ry="18"/>
<text text-anchor="middle" x="254.1275" y="-3528.8815" font-family="Times,serif" font-size="14.00" fill="#c0c0c0">\SilverStripe\ORM\DataObject</text>
</g>
<!-- \\Firesphere\\SolrSearch\\Models\\SolrLog&#45;&gt;\\SilverStripe\\ORM\\DataObject -->
<g id="edge17" class="edge">
<title>\\Firesphere\\SolrSearch\\Models\\SolrLog&#45;&gt;\\SilverStripe\\ORM\\DataObject</title>
<path fill="none" stroke="#000000" d="M640.6062,-285.8284C617.6728,-287.1976 588.1804,-293.2384 572.2549,-313.5815 462.9205,-453.2445 628.1794,-3374.8992 508.2549,-3505.5815 466.7966,-3550.7588 396.038,-3555.0269 339.6974,-3549.3891"/>
<polygon fill="none" stroke="#000000" points="340.0414,-3545.9058 329.7145,-3548.2731 339.2637,-3552.8625 340.0414,-3545.9058"/>
</g>
<!-- \\SilverStripe\\Security\\PermissionProvider -->
<g id="node69" class="node">
<title>\\SilverStripe\\Security\\PermissionProvider</title>
<ellipse fill="none" stroke="#000000" cx="254.1275" cy="-3478.5815" rx="206.0634" ry="18"/>
<text text-anchor="middle" x="254.1275" y="-3474.8815" font-family="Times,serif" font-size="14.00" fill="#c0c0c0">\SilverStripe\Security\PermissionProvider</text>
</g>
<!-- \\Firesphere\\SolrSearch\\Models\\SolrLog&#45;&gt;\\SilverStripe\\Security\\PermissionProvider -->
<g id="edge18" class="edge">
<title>\\Firesphere\\SolrSearch\\Models\\SolrLog&#45;&gt;\\SilverStripe\\Security\\PermissionProvider</title>
<path fill="none" stroke="#000000" stroke-dasharray="1,5" d="M640.6082,-285.83C617.6759,-287.2001 588.1839,-293.2411 572.2549,-313.5815 464.7458,-450.8642 626.1736,-3323.1294 508.2549,-3451.5815 468.5694,-3494.812 402.0537,-3500.5783 347.0265,-3496.0533"/>
<polygon fill="none" stroke="#000000" points="347.1795,-3492.5522 336.8944,-3495.0953 346.5206,-3499.5212 347.1795,-3492.5522"/>
</g>
<!-- \\Firesphere\\SolrSearch\\Models\\SearchSynonym -->
<g id="node47" class="node">
<title>\\Firesphere\\SolrSearch\\Models\\SearchSynonym</title>
<polygon fill="none" stroke="#000000" points="724.7549,-358.5815 620.7549,-358.5815 620.7549,-322.5815 724.7549,-322.5815 724.7549,-358.5815"/>
<text text-anchor="middle" x="672.7549" y="-337.7815" font-family="Courier,monospace" font-size="11.00" fill="#000000">SearchSynonym</text>
</g>
<!-- \\Firesphere\\SolrSearch\\Models\\SearchSynonym&#45;&gt;\\SilverStripe\\ORM\\DataObject -->
<g id="edge19" class="edge">
<title>\\Firesphere\\SolrSearch\\Models\\SearchSynonym&#45;&gt;\\SilverStripe\\ORM\\DataObject</title>
<path fill="none" stroke="#000000" d="M620.5275,-342.2374C602.418,-345.6285 583.7839,-352.8596 572.2549,-367.5815 464.7458,-504.8642 626.1736,-3377.1294 508.2549,-3505.5815 466.7888,-3550.7516 396.0308,-3555.0203 339.6925,-3549.3845"/>
<polygon fill="none" stroke="#000000" points="340.0368,-3545.9013 329.71,-3548.269 339.2594,-3552.858 340.0368,-3545.9013"/>
</g>
<!-- \\Firesphere\\SolrSearch\\Models\\DirtyClass -->
<g id="node48" class="node">
<title>\\Firesphere\\SolrSearch\\Models\\DirtyClass</title>
<polygon fill="none" stroke="#000000" points="714.7549,-412.5815 630.7549,-412.5815 630.7549,-376.5815 714.7549,-376.5815 714.7549,-412.5815"/>
<text text-anchor="middle" x="672.7549" y="-391.7815" font-family="Courier,monospace" font-size="11.00" fill="#000000">DirtyClass</text>
</g>
<!-- \\Firesphere\\SolrSearch\\Models\\DirtyClass&#45;&gt;\\SilverStripe\\ORM\\DataObject -->
<g id="edge20" class="edge">
<title>\\Firesphere\\SolrSearch\\Models\\DirtyClass&#45;&gt;\\SilverStripe\\ORM\\DataObject</title>
<path fill="none" stroke="#000000" d="M630.7278,-404.386C609.3709,-411.7038 585.2459,-424.0899 572.2549,-444.5815 481.1813,-588.2378 623.3134,-3380.3095 508.2549,-3505.5815 466.7772,-3550.741 396.0202,-3555.0105 339.6851,-3549.3778"/>
<polygon fill="none" stroke="#000000" points="340.03,-3545.8946 329.7032,-3548.2628 339.2528,-3552.8513 340.03,-3545.8946"/>
</g>
<!-- \\Firesphere\\SolrSearch\\Admins\\SearchAdmin -->
<g id="node49" class="node">
<title>\\Firesphere\\SolrSearch\\Admins\\SearchAdmin</title>
<polygon fill="none" stroke="#000000" points="718.2549,-224.5815 627.2549,-224.5815 627.2549,-188.5815 718.2549,-188.5815 718.2549,-224.5815"/>
<text text-anchor="middle" x="672.7549" y="-203.7815" font-family="Courier,monospace" font-size="11.00" fill="#000000">SearchAdmin</text>
</g>
<!-- \\SilverStripe\\Admin\\ModelAdmin -->
<g id="node70" class="node">
<title>\\SilverStripe\\Admin\\ModelAdmin</title>
<ellipse fill="none" stroke="#000000" cx="254.1275" cy="-3424.5815" rx="165.1707" ry="18"/>
<text text-anchor="middle" x="254.1275" y="-3420.8815" font-family="Times,serif" font-size="14.00" fill="#c0c0c0">\SilverStripe\Admin\ModelAdmin</text>
</g>
<!-- \\Firesphere\\SolrSearch\\Admins\\SearchAdmin&#45;&gt;\\SilverStripe\\Admin\\ModelAdmin -->
<g id="edge21" class="edge">
<title>\\Firesphere\\SolrSearch\\Admins\\SearchAdmin&#45;&gt;\\SilverStripe\\Admin\\ModelAdmin</title>
<path fill="none" stroke="#000000" d="M627.059,-217.9045C606.7724,-225.3977 584.7099,-237.4828 572.2549,-256.5815 488.892,-384.4115 522.5166,-1476.6391 508.2549,-1628.5815 440.3665,-2351.856 288.4755,-3229.9876 259.0994,-3396.5857"/>
<polygon fill="none" stroke="#000000" points="255.6374,-3396.0646 257.3438,-3406.5211 262.5306,-3397.2827 255.6374,-3396.0646"/>
</g>
<!-- \\Firesphere\\SolrSearch\\Interfaces\\SiteStateInterface -->
<g id="node51" class="node">
<title>\\Firesphere\\SolrSearch\\Interfaces\\SiteStateInterface</title>
<polygon fill="none" stroke="#000000" points="323.1275,-1542.5815 185.1275,-1542.5815 185.1275,-1506.5815 323.1275,-1506.5815 323.1275,-1542.5815"/>
<text text-anchor="middle" x="254.1275" y="-1521.7815" font-family="Courier,monospace" font-size="11.00" fill="#000000">SiteStateInterface</text>
</g>
<!-- \\Firesphere\\SolrFluent\\States\\FluentSiteState -->
<g id="node52" class="node">
<title>\\Firesphere\\SolrFluent\\States\\FluentSiteState</title>
<polygon fill="none" stroke="#000000" points="985.7549,-802.5815 867.7549,-802.5815 867.7549,-766.5815 985.7549,-766.5815 985.7549,-802.5815"/>
<text text-anchor="middle" x="926.7549" y="-781.7815" font-family="Courier,monospace" font-size="11.00" fill="#000000">FluentSiteState</text>
</g>
<!-- \\Firesphere\\SolrFluent\\States\\FluentSiteState&#45;&gt;\\Firesphere\\SolrSearch\\States\\SiteState -->
<g id="edge22" class="edge">
<title>\\Firesphere\\SolrFluent\\States\\FluentSiteState&#45;&gt;\\Firesphere\\SolrSearch\\States\\SiteState</title>
<path fill="none" stroke="#000000" d="M891.467,-802.6578C866.9526,-817.3278 836.1183,-840.4977 821.2549,-870.5815 757.5378,-999.5463 870.1264,-2051.4724 781.2549,-2164.5815 767.8692,-2181.6178 745.73,-2189.5249 724.9288,-2193.0148"/>
<polygon fill="none" stroke="#000000" points="724.3009,-2189.5681 714.8689,-2194.3939 725.2517,-2196.5032 724.3009,-2189.5681"/>
</g>
<!-- \\Firesphere\\SolrFluent\\States\\FluentSiteState&#45;&gt;\\Firesphere\\SolrSearch\\Interfaces\\SiteStateInterface -->
<g id="edge23" class="edge">
<title>\\Firesphere\\SolrFluent\\States\\FluentSiteState&#45;&gt;\\Firesphere\\SolrSearch\\Interfaces\\SiteStateInterface</title>
<path fill="none" stroke="#000000" stroke-dasharray="1,5" d="M867.5782,-780.5806C850.1159,-776.3852 832.6497,-768.6316 821.2549,-754.5815 740.1545,-654.5829 872.5083,-267.4099 781.2549,-176.5815 747.0061,-142.4921 721.0664,-168.5528 672.7549,-169.5815"/>
<path fill="none" stroke="#000000" stroke-dasharray="1,5" d="M672.7549,-169.5815C627.9902,-170.5346 606.3766,-147.5901 572.2549,-176.5815 359.5623,-357.2949 271.0179,-1318.6989 256.3601,-1496.3434"/>
<polygon fill="none" stroke="#000000" points="252.8598,-1496.2052 255.5361,-1506.4565 259.8367,-1496.7738 252.8598,-1496.2052"/>
</g>
<!-- \\Firesphere\\SolrFluent\\Extensions\\FluentIndexExtension -->
<g id="node53" class="node">
<title>\\Firesphere\\SolrFluent\\Extensions\\FluentIndexExtension</title>
<polygon fill="none" stroke="#000000" points="1002.7549,-614.5815 850.7549,-614.5815 850.7549,-578.5815 1002.7549,-578.5815 1002.7549,-614.5815"/>
<text text-anchor="middle" x="926.7549" y="-593.7815" font-family="Courier,monospace" font-size="11.00" fill="#000000">FluentIndexExtension</text>
</g>
<!-- \\Firesphere\\SolrFluent\\Extensions\\FluentIndexExtension&#45;&gt;\\SilverStripe\\Core\\Extension -->
<g id="edge24" class="edge">
<title>\\Firesphere\\SolrFluent\\Extensions\\FluentIndexExtension&#45;&gt;\\SilverStripe\\Core\\Extension</title>
<path fill="none" stroke="#000000" d="M879.6471,-578.5483C858.277,-567.8866 834.8036,-552.1769 821.2549,-530.5815 734.2905,-391.968 870.9657,-301.4335 781.2549,-164.5815 750.8059,-118.1321 718.2168,-134.4862 672.7549,-102.5815"/>
</g>
<!-- \\Firesphere\\SolrFluent\\Extensions\\FluentSchemaExtension -->
<g id="node54" class="node">
<title>\\Firesphere\\SolrFluent\\Extensions\\FluentSchemaExtension</title>
<polygon fill="none" stroke="#000000" points="1005.7549,-722.5815 847.7549,-722.5815 847.7549,-686.5815 1005.7549,-686.5815 1005.7549,-722.5815"/>
<text text-anchor="middle" x="926.7549" y="-701.7815" font-family="Courier,monospace" font-size="11.00" fill="#000000">FluentSchemaExtension</text>
</g>
<!-- \\Firesphere\\SolrFluent\\Extensions\\FluentSchemaExtension&#45;&gt;\\SilverStripe\\Core\\Extension -->
<g id="edge25" class="edge">
<title>\\Firesphere\\SolrFluent\\Extensions\\FluentSchemaExtension&#45;&gt;\\SilverStripe\\Core\\Extension</title>
<path fill="none" stroke="#000000" d="M847.7103,-696.1749C837.5852,-691.9516 828.311,-685.9753 821.2549,-677.5815 747.6758,-590.0536 842.4518,-261.1732 781.2549,-164.5815 751.5304,-117.6651 718.2168,-134.4862 672.7549,-102.5815"/>
</g>
<!-- \\Firesphere\\SolrFluent\\Extensions\\FluentDocumentExtension -->
<g id="node55" class="node">
<title>\\Firesphere\\SolrFluent\\Extensions\\FluentDocumentExtension</title>
<polygon fill="none" stroke="#000000" points="1012.7549,-668.5815 840.7549,-668.5815 840.7549,-632.5815 1012.7549,-632.5815 1012.7549,-668.5815"/>
<text text-anchor="middle" x="926.7549" y="-647.7815" font-family="Courier,monospace" font-size="11.00" fill="#000000">FluentDocumentExtension</text>
</g>
<!-- \\Firesphere\\SolrFluent\\Extensions\\FluentDocumentExtension&#45;&gt;\\SilverStripe\\Core\\Extension -->
<g id="edge26" class="edge">
<title>\\Firesphere\\SolrFluent\\Extensions\\FluentDocumentExtension&#45;&gt;\\SilverStripe\\Core\\Extension</title>
<path fill="none" stroke="#000000" d="M840.6059,-638.7506C833.2852,-634.8851 826.6368,-629.9247 821.2549,-623.5815 755.0151,-545.5091 836.4446,-250.8201 781.2549,-164.5815 751.317,-117.801 718.2168,-134.4862 672.7549,-102.5815"/>
</g>
<!-- \\Firesphere\\SolrSubsites\\States\\SubsiteState -->
<g id="node56" class="node">
<title>\\Firesphere\\SolrSubsites\\States\\SubsiteState</title>
<polygon fill="none" stroke="#000000" points="975.7549,-998.5815 877.7549,-998.5815 877.7549,-962.5815 975.7549,-962.5815 975.7549,-998.5815"/>
<text text-anchor="middle" x="926.7549" y="-977.7815" font-family="Courier,monospace" font-size="11.00" fill="#000000">SubsiteState</text>
</g>
<!-- \\Firesphere\\SolrSubsites\\States\\SubsiteState&#45;&gt;\\Firesphere\\SolrSearch\\States\\SiteState -->
<g id="edge27" class="edge">
<title>\\Firesphere\\SolrSubsites\\States\\SubsiteState&#45;&gt;\\Firesphere\\SolrSearch\\States\\SiteState</title>
<path fill="none" stroke="#000000" d="M925.7169,-998.9812C917.4968,-1141.9294 861.1405,-2071.9512 781.2549,-2164.5815 767.2697,-2180.7979 745.3797,-2188.6285 724.9137,-2192.281"/>
<polygon fill="none" stroke="#000000" points="724.3959,-2188.8194 715.0219,-2193.7568 725.429,-2195.7428 724.3959,-2188.8194"/>
</g>
<!-- \\Firesphere\\SolrSubsites\\States\\SubsiteState&#45;&gt;\\Firesphere\\SolrSearch\\Interfaces\\SiteStateInterface -->
<g id="edge28" class="edge">
<title>\\Firesphere\\SolrSubsites\\States\\SubsiteState&#45;&gt;\\Firesphere\\SolrSearch\\Interfaces\\SiteStateInterface</title>
<path fill="none" stroke="#000000" stroke-dasharray="1,5" d="M877.5979,-978.757C856.9851,-975.2978 834.7217,-967.4859 821.2549,-950.5815 767.5974,-883.227 841.7565,-237.8621 781.2549,-176.5815 747.305,-142.1945 721.0664,-168.5528 672.7549,-169.5815"/>
</g>
<!-- \\Firesphere\\SolrSubsites\\Extensions\\SubsitesExtension -->
<g id="node57" class="node">
<title>\\Firesphere\\SolrSubsites\\Extensions\\SubsitesExtension</title>
<polygon fill="none" stroke="#000000" points="992.2549,-918.5815 861.2549,-918.5815 861.2549,-882.5815 992.2549,-882.5815 992.2549,-918.5815"/>
<text text-anchor="middle" x="926.7549" y="-897.7815" font-family="Courier,monospace" font-size="11.00" fill="#000000">SubsitesExtension</text>
</g>
<!-- \\Firesphere\\SolrSubsites\\Extensions\\SubsitesExtension&#45;&gt;\\SilverStripe\\Core\\Extension -->
<g id="edge29" class="edge">
<title>\\Firesphere\\SolrSubsites\\Extensions\\SubsitesExtension&#45;&gt;\\SilverStripe\\Core\\Extension</title>
<path fill="none" stroke="#000000" d="M878.6337,-882.5628C857.3031,-871.9719 834.1577,-856.318 821.2549,-834.5815 745.1202,-706.3223 859.9318,-291.2971 781.2549,-164.5815 751.9582,-117.3968 718.2168,-134.4862 672.7549,-102.5815"/>
</g>
<!-- \\Firesphere\\SolrPermissions\\Extensions\\DocumentFactoryExtension -->
<g id="node58" class="node">
<title>\\Firesphere\\SolrPermissions\\Extensions\\DocumentFactoryExtension</title>
<polygon fill="none" stroke="#000000" points="1016.2549,-444.5815 837.2549,-444.5815 837.2549,-408.5815 1016.2549,-408.5815 1016.2549,-444.5815"/>
<text text-anchor="middle" x="926.7549" y="-423.7815" font-family="Courier,monospace" font-size="11.00" fill="#000000">DocumentFactoryExtension</text>
</g>
<!-- \\Firesphere\\SolrPermissions\\Extensions\\DocumentFactoryExtension&#45;&gt;\\SilverStripe\\Core\\Extension -->
<g id="edge30" class="edge">
<title>\\Firesphere\\SolrPermissions\\Extensions\\DocumentFactoryExtension&#45;&gt;\\SilverStripe\\Core\\Extension</title>
<path fill="none" stroke="#000000" d="M837.0155,-412.2413C831.1674,-408.8102 825.8083,-404.6403 821.2549,-399.5815 739.2158,-308.4365 864.7801,-216.3666 781.2549,-126.5815 747.6157,-90.4212 713.181,-130.9521 672.7549,-102.5815"/>
</g>
<!-- \\Firesphere\\SolrPermissions\\Extensions\\SchemaServiceExtension -->
<g id="node59" class="node">
<title>\\Firesphere\\SolrPermissions\\Extensions\\SchemaServiceExtension</title>
<polygon fill="none" stroke="#000000" points="1009.2549,-390.5815 844.2549,-390.5815 844.2549,-354.5815 1009.2549,-354.5815 1009.2549,-390.5815"/>
<text text-anchor="middle" x="926.7549" y="-369.7815" font-family="Courier,monospace" font-size="11.00" fill="#000000">SchemaServiceExtension</text>
</g>
<!-- \\Firesphere\\SolrPermissions\\Extensions\\SchemaServiceExtension&#45;&gt;\\SilverStripe\\Core\\Extension -->
<g id="edge31" class="edge">
<title>\\Firesphere\\SolrPermissions\\Extensions\\SchemaServiceExtension&#45;&gt;\\SilverStripe\\Core\\Extension</title>
<path fill="none" stroke="#000000" d="M844.0211,-361.5804C835.4958,-357.6334 827.6372,-352.4262 821.2549,-345.5815 753.7783,-273.2162 849.9111,-197.8286 781.2549,-126.5815 746.9851,-91.0183 713.181,-130.9521 672.7549,-102.5815"/>
</g>
<!-- \\Firesphere\\SolrPermissions\\Extensions\\BaseIndexExtension -->
<g id="node60" class="node">
<title>\\Firesphere\\SolrPermissions\\Extensions\\BaseIndexExtension</title>
<polygon fill="none" stroke="#000000" points="995.7549,-336.5815 857.7549,-336.5815 857.7549,-300.5815 995.7549,-300.5815 995.7549,-336.5815"/>
<text text-anchor="middle" x="926.7549" y="-315.7815" font-family="Courier,monospace" font-size="11.00" fill="#000000">BaseIndexExtension</text>
</g>
<!-- \\Firesphere\\SolrPermissions\\Extensions\\BaseIndexExtension&#45;&gt;\\SilverStripe\\Core\\Extension -->
<g id="edge32" class="edge">
<title>\\Firesphere\\SolrPermissions\\Extensions\\BaseIndexExtension&#45;&gt;\\SilverStripe\\Core\\Extension</title>
<path fill="none" stroke="#000000" d="M883.8383,-300.5187C862.3269,-289.5072 837.4729,-273.4961 821.2549,-252.5815 785.251,-206.1512 824.6214,-166.2224 781.2549,-126.5815 744.8017,-93.2599 713.181,-130.9521 672.7549,-102.5815"/>
</g>
<!-- \\Firesphere\\SolrPermissions\\Extensions\\DataObjectExtension -->
<g id="node61" class="node">
<title>\\Firesphere\\SolrPermissions\\Extensions\\DataObjectExtension</title>
<polygon fill="none" stroke="#000000" points="999.2549,-498.5815 854.2549,-498.5815 854.2549,-462.5815 999.2549,-462.5815 999.2549,-498.5815"/>
<text text-anchor="middle" x="926.7549" y="-477.7815" font-family="Courier,monospace" font-size="11.00" fill="#000000">DataObjectExtension</text>
</g>
<!-- \\Firesphere\\SolrPermissions\\Extensions\\DataObjectExtension&#45;&gt;\\SilverStripe\\ORM\\DataExtension -->
<g id="edge33" class="edge">
<title>\\Firesphere\\SolrPermissions\\Extensions\\DataObjectExtension&#45;&gt;\\SilverStripe\\ORM\\DataExtension</title>
<path fill="none" stroke="#000000" d="M854.0248,-473.985C841.6129,-469.7589 829.9437,-463.3121 821.2549,-453.5815 734.8897,-356.8598 868.8126,-260.225 781.2549,-164.5815 716.8997,-94.2831 664.7691,-139.4852 572.2549,-116.5815 543.6866,-109.5088 537.1957,-104.9297 508.2549,-99.5815 473.46,-93.1513 435.681,-88.1072 400.1541,-84.2095"/>
<polygon fill="none" stroke="#000000" points="400.5143,-80.7282 390.1977,-83.1404 399.7668,-87.6881 400.5143,-80.7282"/>
</g>
</g>
</svg>
