<?xml version="1.0" encoding="UTF-8" standalone="no"?>
<!DOCTYPE svg PUBLIC "-//W3C//DTD SVG 1.1//EN"
 "http://www.w3.org/Graphics/SVG/1.1/DTD/svg11.dtd">
<!-- Generated by graphviz version 2.40.1 (20161225.0304)
 -->
<!-- Title: G Pages: 1 -->
<svg width="1064pt" height="3721pt"
 viewBox="0.00 0.00 1064.25 3720.68" xmlns="http://www.w3.org/2000/svg" xmlns:xlink="http://www.w3.org/1999/xlink">
<g id="graph0" class="graph" transform="scale(1 1) rotate(0) translate(4 3716.6779)">
<title>G</title>
<polygon fill="#ffffff" stroke="transparent" points="-4,4 -4,-3716.6779 1060.2549,-3716.6779 1060.2549,4 -4,4"/>
<g id="clust1" class="cluster">
<title>cluster_Global</title>
<path fill="none" stroke="#c0c0c0" d="M165.1275,-152.6779C165.1275,-152.6779 1036.2549,-152.6779 1036.2549,-152.6779 1042.2549,-152.6779 1048.2549,-158.6779 1048.2549,-164.6779 1048.2549,-164.6779 1048.2549,-3386.6779 1048.2549,-3386.6779 1048.2549,-3392.6779 1042.2549,-3398.6779 1036.2549,-3398.6779 1036.2549,-3398.6779 165.1275,-3398.6779 165.1275,-3398.6779 159.1275,-3398.6779 153.1275,-3392.6779 153.1275,-3386.6779 153.1275,-3386.6779 153.1275,-164.6779 153.1275,-164.6779 153.1275,-158.6779 159.1275,-152.6779 165.1275,-152.6779"/>
<text text-anchor="middle" x="600.6912" y="-3385.8779" font-family="Times,serif" font-size="11.00" fill="#c0c0c0">Global</text>
</g>
<g id="clust2" class="cluster">
<title>cluster_\SilverStripe</title>
<path fill="none" stroke="#c0c0c0" d="M861.2549,-3056.6779C861.2549,-3056.6779 992.2549,-3056.6779 992.2549,-3056.6779 998.2549,-3056.6779 1004.2549,-3062.6779 1004.2549,-3068.6779 1004.2549,-3068.6779 1004.2549,-3358.6779 1004.2549,-3358.6779 1004.2549,-3364.6779 998.2549,-3370.6779 992.2549,-3370.6779 992.2549,-3370.6779 861.2549,-3370.6779 861.2549,-3370.6779 855.2549,-3370.6779 849.2549,-3364.6779 849.2549,-3358.6779 849.2549,-3358.6779 849.2549,-3068.6779 849.2549,-3068.6779 849.2549,-3062.6779 855.2549,-3056.6779 861.2549,-3056.6779"/>
<text text-anchor="middle" x="926.7549" y="-3357.8779" font-family="Times,serif" font-size="11.00" fill="#c0c0c0">SilverStripe</text>
</g>
<g id="clust3" class="cluster">
<title>cluster_\SilverStripe\FullTextSearch</title>
<path fill="none" stroke="#c0c0c0" d="M869.2549,-3064.6779C869.2549,-3064.6779 984.2549,-3064.6779 984.2549,-3064.6779 990.2549,-3064.6779 996.2549,-3070.6779 996.2549,-3076.6779 996.2549,-3076.6779 996.2549,-3330.6779 996.2549,-3330.6779 996.2549,-3336.6779 990.2549,-3342.6779 984.2549,-3342.6779 984.2549,-3342.6779 869.2549,-3342.6779 869.2549,-3342.6779 863.2549,-3342.6779 857.2549,-3336.6779 857.2549,-3330.6779 857.2549,-3330.6779 857.2549,-3076.6779 857.2549,-3076.6779 857.2549,-3070.6779 863.2549,-3064.6779 869.2549,-3064.6779"/>
<text text-anchor="middle" x="926.7549" y="-3329.8779" font-family="Times,serif" font-size="11.00" fill="#c0c0c0">FullTextSearch</text>
</g>
<g id="clust4" class="cluster">
<title>cluster_\SilverStripe\FullTextSearch\Solr</title>
<path fill="none" stroke="#c0c0c0" d="M888.7549,-3188.6779C888.7549,-3188.6779 964.7549,-3188.6779 964.7549,-3188.6779 970.7549,-3188.6779 976.7549,-3194.6779 976.7549,-3200.6779 976.7549,-3200.6779 976.7549,-3302.6779 976.7549,-3302.6779 976.7549,-3308.6779 970.7549,-3314.6779 964.7549,-3314.6779 964.7549,-3314.6779 888.7549,-3314.6779 888.7549,-3314.6779 882.7549,-3314.6779 876.7549,-3308.6779 876.7549,-3302.6779 876.7549,-3302.6779 876.7549,-3200.6779 876.7549,-3200.6779 876.7549,-3194.6779 882.7549,-3188.6779 888.7549,-3188.6779"/>
<text text-anchor="middle" x="926.7549" y="-3301.8779" font-family="Times,serif" font-size="11.00" fill="#c0c0c0">Solr</text>
</g>
<g id="clust5" class="cluster">
<title>cluster_\SilverStripe\FullTextSearch\Search</title>
<path fill="none" stroke="#c0c0c0" d="M877.2549,-3072.6779C877.2549,-3072.6779 976.2549,-3072.6779 976.2549,-3072.6779 982.2549,-3072.6779 988.2549,-3078.6779 988.2549,-3084.6779 988.2549,-3084.6779 988.2549,-3168.6779 988.2549,-3168.6779 988.2549,-3174.6779 982.2549,-3180.6779 976.2549,-3180.6779 976.2549,-3180.6779 877.2549,-3180.6779 877.2549,-3180.6779 871.2549,-3180.6779 865.2549,-3174.6779 865.2549,-3168.6779 865.2549,-3168.6779 865.2549,-3084.6779 865.2549,-3084.6779 865.2549,-3078.6779 871.2549,-3072.6779 877.2549,-3072.6779"/>
<text text-anchor="middle" x="926.7549" y="-3167.8779" font-family="Times,serif" font-size="11.00" fill="#c0c0c0">Search</text>
</g>
<g id="clust6" class="cluster">
<title>cluster_\SilverStripe\FullTextSearch\Search\Queries</title>
<path fill="none" stroke="#c0c0c0" d="M885.2549,-3080.6779C885.2549,-3080.6779 968.2549,-3080.6779 968.2549,-3080.6779 974.2549,-3080.6779 980.2549,-3086.6779 980.2549,-3092.6779 980.2549,-3092.6779 980.2549,-3140.6779 980.2549,-3140.6779 980.2549,-3146.6779 974.2549,-3152.6779 968.2549,-3152.6779 968.2549,-3152.6779 885.2549,-3152.6779 885.2549,-3152.6779 879.2549,-3152.6779 873.2549,-3146.6779 873.2549,-3140.6779 873.2549,-3140.6779 873.2549,-3092.6779 873.2549,-3092.6779 873.2549,-3086.6779 879.2549,-3080.6779 885.2549,-3080.6779"/>
<text text-anchor="middle" x="926.7549" y="-3139.8779" font-family="Times,serif" font-size="11.00" fill="#c0c0c0">Queries</text>
</g>
<g id="clust7" class="cluster">
<title>cluster_\Firesphere</title>
<path fill="none" stroke="#c0c0c0" d="M173.1275,-160.6779C173.1275,-160.6779 1028.2549,-160.6779 1028.2549,-160.6779 1034.2549,-160.6779 1040.2549,-166.6779 1040.2549,-172.6779 1040.2549,-172.6779 1040.2549,-3036.6779 1040.2549,-3036.6779 1040.2549,-3042.6779 1034.2549,-3048.6779 1028.2549,-3048.6779 1028.2549,-3048.6779 173.1275,-3048.6779 173.1275,-3048.6779 167.1275,-3048.6779 161.1275,-3042.6779 161.1275,-3036.6779 161.1275,-3036.6779 161.1275,-172.6779 161.1275,-172.6779 161.1275,-166.6779 167.1275,-160.6779 173.1275,-160.6779"/>
<text text-anchor="middle" x="600.6912" y="-3035.8779" font-family="Times,serif" font-size="11.00" fill="#c0c0c0">Firesphere</text>
</g>
<g id="clust8" class="cluster">
<title>cluster_\Firesphere\SolrCompatibility</title>
<path fill="none" stroke="#c0c0c0" d="M833.2549,-168.6779C833.2549,-168.6779 1020.2549,-168.6779 1020.2549,-168.6779 1026.2549,-168.6779 1032.2549,-174.6779 1032.2549,-180.6779 1032.2549,-180.6779 1032.2549,-318.6779 1032.2549,-318.6779 1032.2549,-324.6779 1026.2549,-330.6779 1020.2549,-330.6779 1020.2549,-330.6779 833.2549,-330.6779 833.2549,-330.6779 827.2549,-330.6779 821.2549,-324.6779 821.2549,-318.6779 821.2549,-318.6779 821.2549,-180.6779 821.2549,-180.6779 821.2549,-174.6779 827.2549,-168.6779 833.2549,-168.6779"/>
<text text-anchor="middle" x="926.7549" y="-317.8779" font-family="Times,serif" font-size="11.00" fill="#c0c0c0">SolrCompatibility</text>
</g>
<g id="clust9" class="cluster">
<title>cluster_\Firesphere\SolrCompatibility\Extensions</title>
<path fill="none" stroke="#c0c0c0" d="M841.2549,-176.6779C841.2549,-176.6779 1012.2549,-176.6779 1012.2549,-176.6779 1018.2549,-176.6779 1024.2549,-182.6779 1024.2549,-188.6779 1024.2549,-188.6779 1024.2549,-290.6779 1024.2549,-290.6779 1024.2549,-296.6779 1018.2549,-302.6779 1012.2549,-302.6779 1012.2549,-302.6779 841.2549,-302.6779 841.2549,-302.6779 835.2549,-302.6779 829.2549,-296.6779 829.2549,-290.6779 829.2549,-290.6779 829.2549,-188.6779 829.2549,-188.6779 829.2549,-182.6779 835.2549,-176.6779 841.2549,-176.6779"/>
<text text-anchor="middle" x="926.7549" y="-289.8779" font-family="Times,serif" font-size="11.00" fill="#c0c0c0">Extensions</text>
</g>
<g id="clust10" class="cluster">
<title>cluster_\Firesphere\SolrSearch</title>
<path fill="none" stroke="#c0c0c0" d="M181.1275,-172.6779C181.1275,-172.6779 769.2549,-172.6779 769.2549,-172.6779 775.2549,-172.6779 781.2549,-178.6779 781.2549,-184.6779 781.2549,-184.6779 781.2549,-3008.6779 781.2549,-3008.6779 781.2549,-3014.6779 775.2549,-3020.6779 769.2549,-3020.6779 769.2549,-3020.6779 181.1275,-3020.6779 181.1275,-3020.6779 175.1275,-3020.6779 169.1275,-3014.6779 169.1275,-3008.6779 169.1275,-3008.6779 169.1275,-184.6779 169.1275,-184.6779 169.1275,-178.6779 175.1275,-172.6779 181.1275,-172.6779"/>
<text text-anchor="middle" x="475.1912" y="-3007.8779" font-family="Times,serif" font-size="11.00" fill="#c0c0c0">SolrSearch</text>
</g>
<g id="clust11" class="cluster">
<title>cluster_\Firesphere\SolrSearch\Interfaces</title>
<path fill="none" stroke="#c0c0c0" d="M189.1275,-2544.6779C189.1275,-2544.6779 319.1275,-2544.6779 319.1275,-2544.6779 325.1275,-2544.6779 331.1275,-2550.6779 331.1275,-2556.6779 331.1275,-2556.6779 331.1275,-2658.6779 331.1275,-2658.6779 331.1275,-2664.6779 325.1275,-2670.6779 319.1275,-2670.6779 319.1275,-2670.6779 189.1275,-2670.6779 189.1275,-2670.6779 183.1275,-2670.6779 177.1275,-2664.6779 177.1275,-2658.6779 177.1275,-2658.6779 177.1275,-2556.6779 177.1275,-2556.6779 177.1275,-2550.6779 183.1275,-2544.6779 189.1275,-2544.6779"/>
<text text-anchor="middle" x="254.1275" y="-2657.8779" font-family="Times,serif" font-size="11.00" fill="#c0c0c0">Interfaces</text>
</g>
<g id="clust12" class="cluster">
<title>cluster_\Firesphere\SolrSearch\Models</title>
<path fill="none" stroke="#c0c0c0" d="M624.7549,-2812.6779C624.7549,-2812.6779 720.7549,-2812.6779 720.7549,-2812.6779 726.7549,-2812.6779 732.7549,-2818.6779 732.7549,-2824.6779 732.7549,-2824.6779 732.7549,-2980.6779 732.7549,-2980.6779 732.7549,-2986.6779 726.7549,-2992.6779 720.7549,-2992.6779 720.7549,-2992.6779 624.7549,-2992.6779 624.7549,-2992.6779 618.7549,-2992.6779 612.7549,-2986.6779 612.7549,-2980.6779 612.7549,-2980.6779 612.7549,-2824.6779 612.7549,-2824.6779 612.7549,-2818.6779 618.7549,-2812.6779 624.7549,-2812.6779"/>
<text text-anchor="middle" x="672.7549" y="-2979.8779" font-family="Times,serif" font-size="11.00" fill="#c0c0c0">Models</text>
</g>
<g id="clust13" class="cluster">
<title>cluster_\Firesphere\SolrSearch\Indexes</title>
<path fill="none" stroke="#c0c0c0" d="M634.7549,-2732.6779C634.7549,-2732.6779 710.7549,-2732.6779 710.7549,-2732.6779 716.7549,-2732.6779 722.7549,-2738.6779 722.7549,-2744.6779 722.7549,-2744.6779 722.7549,-2792.6779 722.7549,-2792.6779 722.7549,-2798.6779 716.7549,-2804.6779 710.7549,-2804.6779 710.7549,-2804.6779 634.7549,-2804.6779 634.7549,-2804.6779 628.7549,-2804.6779 622.7549,-2798.6779 622.7549,-2792.6779 622.7549,-2792.6779 622.7549,-2744.6779 622.7549,-2744.6779 622.7549,-2738.6779 628.7549,-2732.6779 634.7549,-2732.6779"/>
<text text-anchor="middle" x="672.7549" y="-2791.8779" font-family="Times,serif" font-size="11.00" fill="#c0c0c0">Indexes</text>
</g>
<g id="clust14" class="cluster">
<title>cluster_\Firesphere\SolrSearch\Stores</title>
<path fill="none" stroke="#c0c0c0" d="M617.7549,-2598.6779C617.7549,-2598.6779 727.7549,-2598.6779 727.7549,-2598.6779 733.7549,-2598.6779 739.7549,-2604.6779 739.7549,-2610.6779 739.7549,-2610.6779 739.7549,-2712.6779 739.7549,-2712.6779 739.7549,-2718.6779 733.7549,-2724.6779 727.7549,-2724.6779 727.7549,-2724.6779 617.7549,-2724.6779 617.7549,-2724.6779 611.7549,-2724.6779 605.7549,-2718.6779 605.7549,-2712.6779 605.7549,-2712.6779 605.7549,-2610.6779 605.7549,-2610.6779 605.7549,-2604.6779 611.7549,-2598.6779 617.7549,-2598.6779"/>
<text text-anchor="middle" x="672.7549" y="-2711.8779" font-family="Times,serif" font-size="11.00" fill="#c0c0c0">Stores</text>
</g>
<g id="clust15" class="cluster">
<title>cluster_\Firesphere\SolrSearch\States</title>
<path fill="none" stroke="#c0c0c0" d="M634.7549,-2518.6779C634.7549,-2518.6779 710.7549,-2518.6779 710.7549,-2518.6779 716.7549,-2518.6779 722.7549,-2524.6779 722.7549,-2530.6779 722.7549,-2530.6779 722.7549,-2578.6779 722.7549,-2578.6779 722.7549,-2584.6779 716.7549,-2590.6779 710.7549,-2590.6779 710.7549,-2590.6779 634.7549,-2590.6779 634.7549,-2590.6779 628.7549,-2590.6779 622.7549,-2584.6779 622.7549,-2578.6779 622.7549,-2578.6779 622.7549,-2530.6779 622.7549,-2530.6779 622.7549,-2524.6779 628.7549,-2518.6779 634.7549,-2518.6779"/>
<text text-anchor="middle" x="672.7549" y="-2577.8779" font-family="Times,serif" font-size="11.00" fill="#c0c0c0">States</text>
</g>
<g id="clust16" class="cluster">
<title>cluster_\Firesphere\SolrSearch\Forms</title>
<path fill="none" stroke="#c0c0c0" d="M634.7549,-2438.6779C634.7549,-2438.6779 710.7549,-2438.6779 710.7549,-2438.6779 716.7549,-2438.6779 722.7549,-2444.6779 722.7549,-2450.6779 722.7549,-2450.6779 722.7549,-2498.6779 722.7549,-2498.6779 722.7549,-2504.6779 716.7549,-2510.6779 710.7549,-2510.6779 710.7549,-2510.6779 634.7549,-2510.6779 634.7549,-2510.6779 628.7549,-2510.6779 622.7549,-2504.6779 622.7549,-2498.6779 622.7549,-2498.6779 622.7549,-2450.6779 622.7549,-2450.6779 622.7549,-2444.6779 628.7549,-2438.6779 634.7549,-2438.6779"/>
<text text-anchor="middle" x="672.7549" y="-2497.8779" font-family="Times,serif" font-size="11.00" fill="#c0c0c0">Forms</text>
</g>
<g id="clust17" class="cluster">
<title>cluster_\Firesphere\SolrSearch\Services</title>
<path fill="none" stroke="#c0c0c0" d="M617.7549,-2358.6779C617.7549,-2358.6779 727.7549,-2358.6779 727.7549,-2358.6779 733.7549,-2358.6779 739.7549,-2364.6779 739.7549,-2370.6779 739.7549,-2370.6779 739.7549,-2418.6779 739.7549,-2418.6779 739.7549,-2424.6779 733.7549,-2430.6779 727.7549,-2430.6779 727.7549,-2430.6779 617.7549,-2430.6779 617.7549,-2430.6779 611.7549,-2430.6779 605.7549,-2424.6779 605.7549,-2418.6779 605.7549,-2418.6779 605.7549,-2370.6779 605.7549,-2370.6779 605.7549,-2364.6779 611.7549,-2358.6779 617.7549,-2358.6779"/>
<text text-anchor="middle" x="672.7549" y="-2417.8779" font-family="Times,serif" font-size="11.00" fill="#c0c0c0">Services</text>
</g>
<g id="clust18" class="cluster">
<title>cluster_\Firesphere\SolrSearch\Results</title>
<path fill="none" stroke="#c0c0c0" d="M627.7549,-2278.6779C627.7549,-2278.6779 717.7549,-2278.6779 717.7549,-2278.6779 723.7549,-2278.6779 729.7549,-2284.6779 729.7549,-2290.6779 729.7549,-2290.6779 729.7549,-2338.6779 729.7549,-2338.6779 729.7549,-2344.6779 723.7549,-2350.6779 717.7549,-2350.6779 717.7549,-2350.6779 627.7549,-2350.6779 627.7549,-2350.6779 621.7549,-2350.6779 615.7549,-2344.6779 615.7549,-2338.6779 615.7549,-2338.6779 615.7549,-2290.6779 615.7549,-2290.6779 615.7549,-2284.6779 621.7549,-2278.6779 627.7549,-2278.6779"/>
<text text-anchor="middle" x="672.7549" y="-2337.8779" font-family="Times,serif" font-size="11.00" fill="#c0c0c0">Results</text>
</g>
<g id="clust19" class="cluster">
<title>cluster_\Firesphere\SolrSearch\Admins</title>
<path fill="none" stroke="#c0c0c0" d="M631.2549,-2198.6779C631.2549,-2198.6779 714.2549,-2198.6779 714.2549,-2198.6779 720.2549,-2198.6779 726.2549,-2204.6779 726.2549,-2210.6779 726.2549,-2210.6779 726.2549,-2258.6779 726.2549,-2258.6779 726.2549,-2264.6779 720.2549,-2270.6779 714.2549,-2270.6779 714.2549,-2270.6779 631.2549,-2270.6779 631.2549,-2270.6779 625.2549,-2270.6779 619.2549,-2264.6779 619.2549,-2258.6779 619.2549,-2258.6779 619.2549,-2210.6779 619.2549,-2210.6779 619.2549,-2204.6779 625.2549,-2198.6779 631.2549,-2198.6779"/>
<text text-anchor="middle" x="672.7549" y="-2257.8779" font-family="Times,serif" font-size="11.00" fill="#c0c0c0">Admins</text>
</g>
<g id="clust20" class="cluster">
<title>cluster_\Firesphere\SolrSearch\Tasks</title>
<path fill="none" stroke="#c0c0c0" d="M597.7549,-1956.6779C597.7549,-1956.6779 747.7549,-1956.6779 747.7549,-1956.6779 753.7549,-1956.6779 759.7549,-1962.6779 759.7549,-1968.6779 759.7549,-1968.6779 759.7549,-2178.6779 759.7549,-2178.6779 759.7549,-2184.6779 753.7549,-2190.6779 747.7549,-2190.6779 747.7549,-2190.6779 597.7549,-2190.6779 597.7549,-2190.6779 591.7549,-2190.6779 585.7549,-2184.6779 585.7549,-2178.6779 585.7549,-2178.6779 585.7549,-1968.6779 585.7549,-1968.6779 585.7549,-1962.6779 591.7549,-1956.6779 597.7549,-1956.6779"/>
<text text-anchor="middle" x="672.7549" y="-2177.8779" font-family="Times,serif" font-size="11.00" fill="#c0c0c0">Tasks</text>
</g>
<g id="clust21" class="cluster">
<title>cluster_\Firesphere\SolrSearch\Jobs</title>
<path fill="none" stroke="#c0c0c0" d="M600.7549,-1768.6779C600.7549,-1768.6779 744.7549,-1768.6779 744.7549,-1768.6779 750.7549,-1768.6779 756.7549,-1774.6779 756.7549,-1780.6779 756.7549,-1780.6779 756.7549,-1936.6779 756.7549,-1936.6779 756.7549,-1942.6779 750.7549,-1948.6779 744.7549,-1948.6779 744.7549,-1948.6779 600.7549,-1948.6779 600.7549,-1948.6779 594.7549,-1948.6779 588.7549,-1942.6779 588.7549,-1936.6779 588.7549,-1936.6779 588.7549,-1780.6779 588.7549,-1780.6779 588.7549,-1774.6779 594.7549,-1768.6779 600.7549,-1768.6779"/>
<text text-anchor="middle" x="672.7549" y="-1935.8779" font-family="Times,serif" font-size="11.00" fill="#c0c0c0">Jobs</text>
</g>
<g id="clust22" class="cluster">
<title>cluster_\Firesphere\SolrSearch\Extensions</title>
<path fill="none" stroke="#c0c0c0" d="M604.2549,-1634.6779C604.2549,-1634.6779 741.2549,-1634.6779 741.2549,-1634.6779 747.2549,-1634.6779 753.2549,-1640.6779 753.2549,-1646.6779 753.2549,-1646.6779 753.2549,-1748.6779 753.2549,-1748.6779 753.2549,-1754.6779 747.2549,-1760.6779 741.2549,-1760.6779 741.2549,-1760.6779 604.2549,-1760.6779 604.2549,-1760.6779 598.2549,-1760.6779 592.2549,-1754.6779 592.2549,-1748.6779 592.2549,-1748.6779 592.2549,-1646.6779 592.2549,-1646.6779 592.2549,-1640.6779 598.2549,-1634.6779 604.2549,-1634.6779"/>
<text text-anchor="middle" x="672.7549" y="-1747.8779" font-family="Times,serif" font-size="11.00" fill="#c0c0c0">Extensions</text>
</g>
<g id="clust23" class="cluster">
<title>cluster_\Firesphere\SolrSearch\Helpers</title>
<path fill="none" stroke="#c0c0c0" d="M624.7549,-1338.6779C624.7549,-1338.6779 720.7549,-1338.6779 720.7549,-1338.6779 726.7549,-1338.6779 732.7549,-1344.6779 732.7549,-1350.6779 732.7549,-1350.6779 732.7549,-1614.6779 732.7549,-1614.6779 732.7549,-1620.6779 726.7549,-1626.6779 720.7549,-1626.6779 720.7549,-1626.6779 624.7549,-1626.6779 624.7549,-1626.6779 618.7549,-1626.6779 612.7549,-1620.6779 612.7549,-1614.6779 612.7549,-1614.6779 612.7549,-1350.6779 612.7549,-1350.6779 612.7549,-1344.6779 618.7549,-1338.6779 624.7549,-1338.6779"/>
<text text-anchor="middle" x="672.7549" y="-1613.8779" font-family="Times,serif" font-size="11.00" fill="#c0c0c0">Helpers</text>
</g>
<g id="clust24" class="cluster">
<title>cluster_\Firesphere\SolrSearch\Traits</title>
<path fill="none" stroke="#c0c0c0" d="M584.2549,-448.6779C584.2549,-448.6779 761.2549,-448.6779 761.2549,-448.6779 767.2549,-448.6779 773.2549,-454.6779 773.2549,-460.6779 773.2549,-460.6779 773.2549,-1318.6779 773.2549,-1318.6779 773.2549,-1324.6779 767.2549,-1330.6779 761.2549,-1330.6779 761.2549,-1330.6779 584.2549,-1330.6779 584.2549,-1330.6779 578.2549,-1330.6779 572.2549,-1324.6779 572.2549,-1318.6779 572.2549,-1318.6779 572.2549,-460.6779 572.2549,-460.6779 572.2549,-454.6779 578.2549,-448.6779 584.2549,-448.6779"/>
<text text-anchor="middle" x="672.7549" y="-1317.8779" font-family="Times,serif" font-size="11.00" fill="#c0c0c0">Traits</text>
</g>
<g id="clust25" class="cluster">
<title>cluster_\Firesphere\SolrSearch\Factories</title>
<path fill="none" stroke="#c0c0c0" d="M597.7549,-260.6779C597.7549,-260.6779 747.7549,-260.6779 747.7549,-260.6779 753.7549,-260.6779 759.7549,-266.6779 759.7549,-272.6779 759.7549,-272.6779 759.7549,-428.6779 759.7549,-428.6779 759.7549,-434.6779 753.7549,-440.6779 747.7549,-440.6779 747.7549,-440.6779 597.7549,-440.6779 597.7549,-440.6779 591.7549,-440.6779 585.7549,-434.6779 585.7549,-428.6779 585.7549,-428.6779 585.7549,-272.6779 585.7549,-272.6779 585.7549,-266.6779 591.7549,-260.6779 597.7549,-260.6779"/>
<text text-anchor="middle" x="672.7549" y="-427.8779" font-family="Times,serif" font-size="11.00" fill="#c0c0c0">Factories</text>
</g>
<g id="clust26" class="cluster">
<title>cluster_\Firesphere\SolrSearch\Queries</title>
<path fill="none" stroke="#c0c0c0" d="M638.2549,-180.6779C638.2549,-180.6779 707.2549,-180.6779 707.2549,-180.6779 713.2549,-180.6779 719.2549,-186.6779 719.2549,-192.6779 719.2549,-192.6779 719.2549,-240.6779 719.2549,-240.6779 719.2549,-246.6779 713.2549,-252.6779 707.2549,-252.6779 707.2549,-252.6779 638.2549,-252.6779 638.2549,-252.6779 632.2549,-252.6779 626.2549,-246.6779 626.2549,-240.6779 626.2549,-240.6779 626.2549,-192.6779 626.2549,-192.6779 626.2549,-186.6779 632.2549,-180.6779 638.2549,-180.6779"/>
<text text-anchor="middle" x="672.7549" y="-239.8779" font-family="Times,serif" font-size="11.00" fill="#c0c0c0">Queries</text>
</g>
<g id="clust27" class="cluster">
<title>cluster_\Firesphere\SolrFluent</title>
<path fill="none" stroke="#c0c0c0" d="M836.7549,-616.6779C836.7549,-616.6779 1016.7549,-616.6779 1016.7549,-616.6779 1022.7549,-616.6779 1028.7549,-622.6779 1028.7549,-628.6779 1028.7549,-628.6779 1028.7549,-900.6779 1028.7549,-900.6779 1028.7549,-906.6779 1022.7549,-912.6779 1016.7549,-912.6779 1016.7549,-912.6779 836.7549,-912.6779 836.7549,-912.6779 830.7549,-912.6779 824.7549,-906.6779 824.7549,-900.6779 824.7549,-900.6779 824.7549,-628.6779 824.7549,-628.6779 824.7549,-622.6779 830.7549,-616.6779 836.7549,-616.6779"/>
<text text-anchor="middle" x="926.7549" y="-899.8779" font-family="Times,serif" font-size="11.00" fill="#c0c0c0">SolrFluent</text>
</g>
<g id="clust28" class="cluster">
<title>cluster_\Firesphere\SolrFluent\States</title>
<path fill="none" stroke="#c0c0c0" d="M871.7549,-812.6779C871.7549,-812.6779 981.7549,-812.6779 981.7549,-812.6779 987.7549,-812.6779 993.7549,-818.6779 993.7549,-824.6779 993.7549,-824.6779 993.7549,-872.6779 993.7549,-872.6779 993.7549,-878.6779 987.7549,-884.6779 981.7549,-884.6779 981.7549,-884.6779 871.7549,-884.6779 871.7549,-884.6779 865.7549,-884.6779 859.7549,-878.6779 859.7549,-872.6779 859.7549,-872.6779 859.7549,-824.6779 859.7549,-824.6779 859.7549,-818.6779 865.7549,-812.6779 871.7549,-812.6779"/>
<text text-anchor="middle" x="926.7549" y="-871.8779" font-family="Times,serif" font-size="11.00" fill="#c0c0c0">States</text>
</g>
<g id="clust29" class="cluster">
<title>cluster_\Firesphere\SolrFluent\Extensions</title>
<path fill="none" stroke="#c0c0c0" d="M844.7549,-624.6779C844.7549,-624.6779 1008.7549,-624.6779 1008.7549,-624.6779 1014.7549,-624.6779 1020.7549,-630.6779 1020.7549,-636.6779 1020.7549,-636.6779 1020.7549,-792.6779 1020.7549,-792.6779 1020.7549,-798.6779 1014.7549,-804.6779 1008.7549,-804.6779 1008.7549,-804.6779 844.7549,-804.6779 844.7549,-804.6779 838.7549,-804.6779 832.7549,-798.6779 832.7549,-792.6779 832.7549,-792.6779 832.7549,-636.6779 832.7549,-636.6779 832.7549,-630.6779 838.7549,-624.6779 844.7549,-624.6779"/>
<text text-anchor="middle" x="926.7549" y="-791.8779" font-family="Times,serif" font-size="11.00" fill="#c0c0c0">Extensions</text>
</g>
<g id="clust30" class="cluster">
<title>cluster_\Firesphere\SolrSubsites</title>
<path fill="none" stroke="#c0c0c0" d="M857.2549,-920.6779C857.2549,-920.6779 996.2549,-920.6779 996.2549,-920.6779 1002.2549,-920.6779 1008.2549,-926.6779 1008.2549,-932.6779 1008.2549,-932.6779 1008.2549,-1096.6779 1008.2549,-1096.6779 1008.2549,-1102.6779 1002.2549,-1108.6779 996.2549,-1108.6779 996.2549,-1108.6779 857.2549,-1108.6779 857.2549,-1108.6779 851.2549,-1108.6779 845.2549,-1102.6779 845.2549,-1096.6779 845.2549,-1096.6779 845.2549,-932.6779 845.2549,-932.6779 845.2549,-926.6779 851.2549,-920.6779 857.2549,-920.6779"/>
<text text-anchor="middle" x="926.7549" y="-1095.8779" font-family="Times,serif" font-size="11.00" fill="#c0c0c0">SolrSubsites</text>
</g>
<g id="clust31" class="cluster">
<title>cluster_\Firesphere\SolrSubsites\States</title>
<path fill="none" stroke="#c0c0c0" d="M881.7549,-1008.6779C881.7549,-1008.6779 971.7549,-1008.6779 971.7549,-1008.6779 977.7549,-1008.6779 983.7549,-1014.6779 983.7549,-1020.6779 983.7549,-1020.6779 983.7549,-1068.6779 983.7549,-1068.6779 983.7549,-1074.6779 977.7549,-1080.6779 971.7549,-1080.6779 971.7549,-1080.6779 881.7549,-1080.6779 881.7549,-1080.6779 875.7549,-1080.6779 869.7549,-1074.6779 869.7549,-1068.6779 869.7549,-1068.6779 869.7549,-1020.6779 869.7549,-1020.6779 869.7549,-1014.6779 875.7549,-1008.6779 881.7549,-1008.6779"/>
<text text-anchor="middle" x="926.7549" y="-1067.8779" font-family="Times,serif" font-size="11.00" fill="#c0c0c0">States</text>
</g>
<g id="clust32" class="cluster">
<title>cluster_\Firesphere\SolrSubsites\Extensions</title>
<path fill="none" stroke="#c0c0c0" d="M865.2549,-928.6779C865.2549,-928.6779 988.2549,-928.6779 988.2549,-928.6779 994.2549,-928.6779 1000.2549,-934.6779 1000.2549,-940.6779 1000.2549,-940.6779 1000.2549,-988.6779 1000.2549,-988.6779 1000.2549,-994.6779 994.2549,-1000.6779 988.2549,-1000.6779 988.2549,-1000.6779 865.2549,-1000.6779 865.2549,-1000.6779 859.2549,-1000.6779 853.2549,-994.6779 853.2549,-988.6779 853.2549,-988.6779 853.2549,-940.6779 853.2549,-940.6779 853.2549,-934.6779 859.2549,-928.6779 865.2549,-928.6779"/>
<text text-anchor="middle" x="926.7549" y="-987.8779" font-family="Times,serif" font-size="11.00" fill="#c0c0c0">Extensions</text>
</g>
<g id="clust33" class="cluster">
<title>cluster_\Firesphere\SolrPermissions</title>
<path fill="none" stroke="#c0c0c0" d="M833.2549,-338.6779C833.2549,-338.6779 1020.2549,-338.6779 1020.2549,-338.6779 1026.2549,-338.6779 1032.2549,-344.6779 1032.2549,-350.6779 1032.2549,-350.6779 1032.2549,-596.6779 1032.2549,-596.6779 1032.2549,-602.6779 1026.2549,-608.6779 1020.2549,-608.6779 1020.2549,-608.6779 833.2549,-608.6779 833.2549,-608.6779 827.2549,-608.6779 821.2549,-602.6779 821.2549,-596.6779 821.2549,-596.6779 821.2549,-350.6779 821.2549,-350.6779 821.2549,-344.6779 827.2549,-338.6779 833.2549,-338.6779"/>
<text text-anchor="middle" x="926.7549" y="-595.8779" font-family="Times,serif" font-size="11.00" fill="#c0c0c0">SolrPermissions</text>
</g>
<g id="clust34" class="cluster">
<title>cluster_\Firesphere\SolrPermissions\Extensions</title>
<path fill="none" stroke="#c0c0c0" d="M841.2549,-346.6779C841.2549,-346.6779 1012.2549,-346.6779 1012.2549,-346.6779 1018.2549,-346.6779 1024.2549,-352.6779 1024.2549,-358.6779 1024.2549,-358.6779 1024.2549,-568.6779 1024.2549,-568.6779 1024.2549,-574.6779 1018.2549,-580.6779 1012.2549,-580.6779 1012.2549,-580.6779 841.2549,-580.6779 841.2549,-580.6779 835.2549,-580.6779 829.2549,-574.6779 829.2549,-568.6779 829.2549,-568.6779 829.2549,-358.6779 829.2549,-358.6779 829.2549,-352.6779 835.2549,-346.6779 841.2549,-346.6779"/>
<text text-anchor="middle" x="926.7549" y="-567.8779" font-family="Times,serif" font-size="11.00" fill="#c0c0c0">Extensions</text>
</g>
<!-- \\SilverStripe\\FullTextSearch\\Solr\\Solr -->
<g id="node1" class="node">
<title>\\SilverStripe\\FullTextSearch\\Solr\\Solr</title>
<polygon fill="none" stroke="#000000" points="953.7549,-3286.6779 899.7549,-3286.6779 899.7549,-3250.6779 953.7549,-3250.6779 953.7549,-3286.6779"/>
<text text-anchor="middle" x="926.7549" y="-3265.8779" font-family="Courier,monospace" font-size="11.00" fill="#000000">Solr</text>
</g>
<!-- \\SilverStripe\\FullTextSearch\\Solr\\SolrIndex -->
<g id="node2" class="node">
<title>\\SilverStripe\\FullTextSearch\\Solr\\SolrIndex</title>
<polygon fill="none" stroke="#000000" points="968.7549,-3232.6779 884.7549,-3232.6779 884.7549,-3196.6779 968.7549,-3196.6779 968.7549,-3232.6779"/>
<text text-anchor="start" x="892.7549" y="-3217.8779" font-family="Courier,monospace" font-size="11.00" fill="#000000">«abstract»</text>
<text text-anchor="start" x="896.2549" y="-3205.8779" font-family="Courier,monospace" font-size="11.00" fill="#000000">SolrIndex</text>
</g>
<!-- \\Firesphere\\SolrSearch\\Indexes\\BaseIndex -->
<g id="node11" class="node">
<title>\\Firesphere\\SolrSearch\\Indexes\\BaseIndex</title>
<polygon fill="none" stroke="#000000" points="714.7549,-2776.6779 630.7549,-2776.6779 630.7549,-2740.6779 714.7549,-2740.6779 714.7549,-2776.6779"/>
<text text-anchor="start" x="638.7549" y="-2761.8779" font-family="Courier,monospace" font-size="11.00" fill="#000000">«abstract»</text>
<text text-anchor="start" x="642.2549" y="-2749.8779" font-family="Courier,monospace" font-size="11.00" fill="#000000">BaseIndex</text>
</g>
<!-- \\SilverStripe\\FullTextSearch\\Solr\\SolrIndex&#45;&gt;\\Firesphere\\SolrSearch\\Indexes\\BaseIndex -->
<g id="edge3" class="edge">
<title>\\SilverStripe\\FullTextSearch\\Solr\\SolrIndex&#45;&gt;\\Firesphere\\SolrSearch\\Indexes\\BaseIndex</title>
<path fill="none" stroke="#000000" d="M884.6585,-3202.1259C862.1319,-3193.1625 836.0518,-3178.716 821.2549,-3156.6779 734.4713,-3027.4245 872.5611,-2934.777 781.2549,-2808.6779 767.7086,-2789.9697 745.4159,-2778.0763 724.5497,-2770.6089"/>
<polygon fill="none" stroke="#000000" points="725.3768,-2767.1963 714.7836,-2767.3846 723.1822,-2773.8434 725.3768,-2767.1963"/>
</g>
<!-- \\SilverStripe\\FullTextSearch\\Search\\Queries\\SearchQuery -->
<g id="node3" class="node">
<title>\\SilverStripe\\FullTextSearch\\Search\\Queries\\SearchQuery</title>
<polygon fill="none" stroke="#000000" points="972.2549,-3124.6779 881.2549,-3124.6779 881.2549,-3088.6779 972.2549,-3088.6779 972.2549,-3124.6779"/>
<text text-anchor="middle" x="926.7549" y="-3103.8779" font-family="Courier,monospace" font-size="11.00" fill="#000000">SearchQuery</text>
</g>
<!-- \\Firesphere\\SolrSearch\\Queries\\BaseQuery -->
<g id="node52" class="node">
<title>\\Firesphere\\SolrSearch\\Queries\\BaseQuery</title>
<polygon fill="none" stroke="#000000" points="711.2549,-224.6779 634.2549,-224.6779 634.2549,-188.6779 711.2549,-188.6779 711.2549,-224.6779"/>
<text text-anchor="middle" x="672.7549" y="-203.8779" font-family="Courier,monospace" font-size="11.00" fill="#000000">BaseQuery</text>
</g>
<!-- \\SilverStripe\\FullTextSearch\\Search\\Queries\\SearchQuery&#45;&gt;\\Firesphere\\SolrSearch\\Queries\\BaseQuery -->
<g id="edge4" class="edge">
<title>\\SilverStripe\\FullTextSearch\\Search\\Queries\\SearchQuery&#45;&gt;\\Firesphere\\SolrSearch\\Queries\\BaseQuery</title>
<path fill="none" stroke="#000000" d="M925.7886,-3088.667C917.8812,-2941.1828 863.0592,-1916.7288 821.2549,-1084.6779 816.633,-992.6866 832.7767,-333.0274 781.2549,-256.6779 767.46,-236.2354 743.0728,-223.9961 720.9089,-216.7499"/>
<polygon fill="none" stroke="#000000" points="721.8411,-213.3755 711.2569,-213.8506 719.8272,-220.0795 721.8411,-213.3755"/>
</g>
<!-- \\Firesphere\\SolrCompatibility\\Extensions\\FulltextSearchExtension -->
<g id="node4" class="node">
<title>\\Firesphere\\SolrCompatibility\\Extensions\\FulltextSearchExtension</title>
<polygon fill="none" stroke="#000000" points="1012.7549,-274.6779 840.7549,-274.6779 840.7549,-238.6779 1012.7549,-238.6779 1012.7549,-274.6779"/>
<text text-anchor="middle" x="926.7549" y="-253.8779" font-family="Courier,monospace" font-size="11.00" fill="#000000">FulltextSearchExtension</text>
</g>
<!-- \\SilverStripe\\Core\\Extension -->
<g id="node63" class="node">
<title>\\SilverStripe\\Core\\Extension</title>
<ellipse fill="none" stroke="#000000" cx="254.1275" cy="-18.6779" rx="144.0747" ry="18"/>
<text text-anchor="middle" x="254.1275" y="-14.9779" font-family="Times,serif" font-size="14.00" fill="#c0c0c0">\SilverStripe\Core\Extension</text>
</g>
<!-- \\Firesphere\\SolrCompatibility\\Extensions\\FulltextSearchExtension&#45;&gt;\\SilverStripe\\Core\\Extension -->
<g id="edge1" class="edge">
<title>\\Firesphere\\SolrCompatibility\\Extensions\\FulltextSearchExtension&#45;&gt;\\SilverStripe\\Core\\Extension</title>
<path fill="none" stroke="#000000" d="M840.5088,-243.1095C833.4442,-239.5636 826.8743,-235.1537 821.2549,-229.6779 774.6022,-184.2171 828.6481,-133.3662 781.2549,-88.6779 745.3221,-54.7958 716.6848,-87.2461 672.7549,-64.6779"/>
</g>
<!-- \\Firesphere\\SolrCompatibility\\Extensions\\SolrCoreServiceExtension -->
<g id="node5" class="node">
<title>\\Firesphere\\SolrCompatibility\\Extensions\\SolrCoreServiceExtension</title>
<polygon fill="none" stroke="#000000" points="1016.2549,-220.6779 837.2549,-220.6779 837.2549,-184.6779 1016.2549,-184.6779 1016.2549,-220.6779"/>
<text text-anchor="middle" x="926.7549" y="-199.8779" font-family="Courier,monospace" font-size="11.00" fill="#000000">SolrCoreServiceExtension</text>
</g>
<!-- \\Firesphere\\SolrCompatibility\\Extensions\\SolrCoreServiceExtension&#45;&gt;\\SilverStripe\\Core\\Extension -->
<g id="edge2" class="edge">
<title>\\Firesphere\\SolrCompatibility\\Extensions\\SolrCoreServiceExtension&#45;&gt;\\SilverStripe\\Core\\Extension</title>
<path fill="none" stroke="#000000" d="M909.2812,-184.5982C883.6376,-159.1674 833.1975,-113.2043 781.2549,-88.6779 736.5953,-67.5904 716.6848,-87.2461 672.7549,-64.6779"/>
<path fill="none" stroke="#000000" d="M672.7549,-64.6779C585.4855,-19.8448 474.685,-9.3733 388.9993,-9.5588"/>
<polygon fill="none" stroke="#000000" points="388.9177,-6.0592 378.9425,-9.6295 388.9669,-13.059 388.9177,-6.0592"/>
</g>
<!-- \\Firesphere\\SolrSearch\\Interfaces\\SiteStateInterface -->
<g id="node6" class="node">
<title>\\Firesphere\\SolrSearch\\Interfaces\\SiteStateInterface</title>
<polygon fill="none" stroke="#000000" points="323.1275,-2588.6779 185.1275,-2588.6779 185.1275,-2552.6779 323.1275,-2552.6779 323.1275,-2588.6779"/>
<text text-anchor="middle" x="254.1275" y="-2567.8779" font-family="Courier,monospace" font-size="11.00" fill="#000000">SiteStateInterface</text>
</g>
<!-- \\Firesphere\\SolrSearch\\Interfaces\\ConfigStore -->
<g id="node7" class="node">
<title>\\Firesphere\\SolrSearch\\Interfaces\\ConfigStore</title>
<polygon fill="none" stroke="#000000" points="299.6275,-2642.6779 208.6275,-2642.6779 208.6275,-2606.6779 299.6275,-2606.6779 299.6275,-2642.6779"/>
<text text-anchor="middle" x="254.1275" y="-2621.8779" font-family="Courier,monospace" font-size="11.00" fill="#000000">ConfigStore</text>
</g>
<!-- \\Firesphere\\SolrSearch\\Models\\DirtyClass -->
<g id="node8" class="node">
<title>\\Firesphere\\SolrSearch\\Models\\DirtyClass</title>
<polygon fill="none" stroke="#000000" points="714.7549,-2910.6779 630.7549,-2910.6779 630.7549,-2874.6779 714.7549,-2874.6779 714.7549,-2910.6779"/>
<text text-anchor="middle" x="672.7549" y="-2889.8779" font-family="Courier,monospace" font-size="11.00" fill="#000000">DirtyClass</text>
</g>
<!-- \\SilverStripe\\ORM\\DataObject -->
<g id="node64" class="node">
<title>\\SilverStripe\\ORM\\DataObject</title>
<ellipse fill="none" stroke="#000000" cx="254.1275" cy="-126.6779" rx="152.9733" ry="18"/>
<text text-anchor="middle" x="254.1275" y="-122.9779" font-family="Times,serif" font-size="14.00" fill="#c0c0c0">\SilverStripe\ORM\DataObject</text>
</g>
<!-- \\Firesphere\\SolrSearch\\Models\\DirtyClass&#45;&gt;\\SilverStripe\\ORM\\DataObject -->
<g id="edge5" class="edge">
<title>\\Firesphere\\SolrSearch\\Models\\DirtyClass&#45;&gt;\\SilverStripe\\ORM\\DataObject</title>
<path fill="none" stroke="#000000" d="M630.5567,-2891.9122C609.9625,-2889.222 586.5962,-2882.2962 572.2549,-2865.6779 525.2364,-2811.1941 285.7276,-441.0833 256.9564,-154.871"/>
<polygon fill="none" stroke="#000000" points="260.4341,-154.4732 255.9519,-144.8732 253.4692,-155.1731 260.4341,-154.4732"/>
</g>
<!-- \\Firesphere\\SolrSearch\\Models\\SearchSynonym -->
<g id="node9" class="node">
<title>\\Firesphere\\SolrSearch\\Models\\SearchSynonym</title>
<polygon fill="none" stroke="#000000" points="724.7549,-2856.6779 620.7549,-2856.6779 620.7549,-2820.6779 724.7549,-2820.6779 724.7549,-2856.6779"/>
<text text-anchor="middle" x="672.7549" y="-2835.8779" font-family="Courier,monospace" font-size="11.00" fill="#000000">SearchSynonym</text>
</g>
<!-- \\Firesphere\\SolrSearch\\Models\\SearchSynonym&#45;&gt;\\SilverStripe\\ORM\\DataObject -->
<g id="edge6" class="edge">
<title>\\Firesphere\\SolrSearch\\Models\\SearchSynonym&#45;&gt;\\SilverStripe\\ORM\\DataObject</title>
<path fill="none" stroke="#000000" d="M620.6466,-2834.6596C602.7748,-2830.6149 584.2698,-2822.9602 572.2549,-2808.6779 481.6381,-2700.9598 281.0535,-434.856 256.5879,-154.9517"/>
<polygon fill="none" stroke="#000000" points="260.0587,-154.4645 255.7023,-144.8068 253.0853,-155.0733 260.0587,-154.4645"/>
</g>
<!-- \\Firesphere\\SolrSearch\\Models\\SolrLog -->
<g id="node10" class="node">
<title>\\Firesphere\\SolrSearch\\Models\\SolrLog</title>
<polygon fill="none" stroke="#000000" points="704.7549,-2964.6779 640.7549,-2964.6779 640.7549,-2928.6779 704.7549,-2928.6779 704.7549,-2964.6779"/>
<text text-anchor="middle" x="672.7549" y="-2943.8779" font-family="Courier,monospace" font-size="11.00" fill="#000000">SolrLog</text>
</g>
<!-- \\Firesphere\\SolrSearch\\Models\\SolrLog&#45;&gt;\\SilverStripe\\ORM\\DataObject -->
<g id="edge7" class="edge">
<title>\\Firesphere\\SolrSearch\\Models\\SolrLog&#45;&gt;\\SilverStripe\\ORM\\DataObject</title>
<path fill="none" stroke="#000000" d="M640.6747,-2946.9494C618.0852,-2945.2997 588.9944,-2939.1187 572.2549,-2919.6779 524.3586,-2864.0525 285.3795,-444.7965 256.903,-154.9789"/>
<polygon fill="none" stroke="#000000" points="260.3705,-154.4748 255.9098,-144.8648 253.404,-155.159 260.3705,-154.4748"/>
</g>
<!-- \\SilverStripe\\Security\\PermissionProvider -->
<g id="node65" class="node">
<title>\\SilverStripe\\Security\\PermissionProvider</title>
<ellipse fill="none" stroke="#000000" cx="254.1275" cy="-3694.6779" rx="206.0634" ry="18"/>
<text text-anchor="middle" x="254.1275" y="-3690.9779" font-family="Times,serif" font-size="14.00" fill="#c0c0c0">\SilverStripe\Security\PermissionProvider</text>
</g>
<!-- \\Firesphere\\SolrSearch\\Models\\SolrLog&#45;&gt;\\SilverStripe\\Security\\PermissionProvider -->
<g id="edge8" class="edge">
<title>\\Firesphere\\SolrSearch\\Models\\SolrLog&#45;&gt;\\SilverStripe\\Security\\PermissionProvider</title>
<path fill="none" stroke="#000000" stroke-dasharray="1,5" d="M671.3994,-2964.7765C663.3653,-3066.8745 618.5358,-3569.7447 508.2549,-3667.6779 472.1709,-3699.7217 420.8739,-3709.4101 373.8053,-3709.9552"/>
<polygon fill="none" stroke="#000000" points="373.5279,-3706.4547 363.5202,-3709.9327 373.5125,-3713.4547 373.5279,-3706.4547"/>
</g>
<!-- \\Firesphere\\SolrSearch\\Stores\\PostConfigStore -->
<g id="node12" class="node">
<title>\\Firesphere\\SolrSearch\\Stores\\PostConfigStore</title>
<polygon fill="none" stroke="#000000" points="731.7549,-2696.6779 613.7549,-2696.6779 613.7549,-2660.6779 731.7549,-2660.6779 731.7549,-2696.6779"/>
<text text-anchor="middle" x="672.7549" y="-2675.8779" font-family="Courier,monospace" font-size="11.00" fill="#000000">PostConfigStore</text>
</g>
<!-- \\Firesphere\\SolrSearch\\Stores\\PostConfigStore&#45;&gt;\\Firesphere\\SolrSearch\\Interfaces\\ConfigStore -->
<g id="edge9" class="edge">
<title>\\Firesphere\\SolrSearch\\Stores\\PostConfigStore&#45;&gt;\\Firesphere\\SolrSearch\\Interfaces\\ConfigStore</title>
<path fill="none" stroke="#000000" stroke-dasharray="1,5" d="M613.6637,-2671.0555C532.8854,-2660.6357 389.0185,-2642.0779 309.9722,-2631.8815"/>
<polygon fill="none" stroke="#000000" points="310.0944,-2628.3683 299.7287,-2630.5601 309.1988,-2635.3108 310.0944,-2628.3683"/>
</g>
<!-- \\Firesphere\\SolrSearch\\Stores\\FileConfigStore -->
<g id="node13" class="node">
<title>\\Firesphere\\SolrSearch\\Stores\\FileConfigStore</title>
<polygon fill="none" stroke="#000000" points="731.7549,-2642.6779 613.7549,-2642.6779 613.7549,-2606.6779 731.7549,-2606.6779 731.7549,-2642.6779"/>
<text text-anchor="middle" x="672.7549" y="-2621.8779" font-family="Courier,monospace" font-size="11.00" fill="#000000">FileConfigStore</text>
</g>
<!-- \\Firesphere\\SolrSearch\\Stores\\FileConfigStore&#45;&gt;\\Firesphere\\SolrSearch\\Interfaces\\ConfigStore -->
<g id="edge10" class="edge">
<title>\\Firesphere\\SolrSearch\\Stores\\FileConfigStore&#45;&gt;\\Firesphere\\SolrSearch\\Interfaces\\ConfigStore</title>
<path fill="none" stroke="#000000" stroke-dasharray="1,5" d="M613.6637,-2624.6779C532.8854,-2624.6779 389.0185,-2624.6779 309.9722,-2624.6779"/>
<polygon fill="none" stroke="#000000" points="309.7288,-2621.178 299.7287,-2624.6779 309.7287,-2628.178 309.7288,-2621.178"/>
</g>
<!-- \\Firesphere\\SolrSearch\\States\\SiteState -->
<g id="node14" class="node">
<title>\\Firesphere\\SolrSearch\\States\\SiteState</title>
<polygon fill="none" stroke="#000000" points="714.7549,-2562.6779 630.7549,-2562.6779 630.7549,-2526.6779 714.7549,-2526.6779 714.7549,-2562.6779"/>
<text text-anchor="start" x="638.7549" y="-2547.8779" font-family="Courier,monospace" font-size="11.00" fill="#000000">«abstract»</text>
<text text-anchor="start" x="642.2549" y="-2535.8779" font-family="Courier,monospace" font-size="11.00" fill="#000000">SiteState</text>
</g>
<!-- \\Firesphere\\SolrSearch\\Forms\\SearchForm -->
<g id="node15" class="node">
<title>\\Firesphere\\SolrSearch\\Forms\\SearchForm</title>
<polygon fill="none" stroke="#000000" points="714.7549,-2482.6779 630.7549,-2482.6779 630.7549,-2446.6779 714.7549,-2446.6779 714.7549,-2482.6779"/>
<text text-anchor="middle" x="672.7549" y="-2461.8779" font-family="Courier,monospace" font-size="11.00" fill="#000000">SearchForm</text>
</g>
<!-- \\SilverStripe\\Forms\\Form -->
<g id="node66" class="node">
<title>\\SilverStripe\\Forms\\Form</title>
<ellipse fill="none" stroke="#000000" cx="254.1275" cy="-3640.6779" rx="129.1772" ry="18"/>
<text text-anchor="middle" x="254.1275" y="-3636.9779" font-family="Times,serif" font-size="14.00" fill="#c0c0c0">\SilverStripe\Forms\Form</text>
</g>
<!-- \\Firesphere\\SolrSearch\\Forms\\SearchForm&#45;&gt;\\SilverStripe\\Forms\\Form -->
<g id="edge11" class="edge">
<title>\\Firesphere\\SolrSearch\\Forms\\SearchForm&#45;&gt;\\SilverStripe\\Forms\\Form</title>
<path fill="none" stroke="#000000" d="M630.5152,-2474.8555C609.3738,-2482.2519 585.5181,-2494.5945 572.2549,-2514.6779 437.4415,-2718.8154 677.066,-3436.6197 508.2549,-3613.6779 465.3654,-3658.6627 393.3171,-3662.4993 336.866,-3656.7514"/>
<polygon fill="none" stroke="#000000" points="337.2067,-3653.2677 326.8762,-3655.6192 336.4184,-3660.2232 337.2067,-3653.2677"/>
</g>
<!-- \\Firesphere\\SolrSearch\\Services\\SolrCoreService -->
<g id="node16" class="node">
<title>\\Firesphere\\SolrSearch\\Services\\SolrCoreService</title>
<polygon fill="none" stroke="#000000" points="731.7549,-2402.6779 613.7549,-2402.6779 613.7549,-2366.6779 731.7549,-2366.6779 731.7549,-2402.6779"/>
<text text-anchor="middle" x="672.7549" y="-2381.8779" font-family="Courier,monospace" font-size="11.00" fill="#000000">SolrCoreService</text>
</g>
<!-- \\Firesphere\\SolrSearch\\Results\\SearchResult -->
<g id="node17" class="node">
<title>\\Firesphere\\SolrSearch\\Results\\SearchResult</title>
<polygon fill="none" stroke="#000000" points="721.7549,-2322.6779 623.7549,-2322.6779 623.7549,-2286.6779 721.7549,-2286.6779 721.7549,-2322.6779"/>
<text text-anchor="middle" x="672.7549" y="-2301.8779" font-family="Courier,monospace" font-size="11.00" fill="#000000">SearchResult</text>
</g>
<!-- \\SilverStripe\\View\\ViewableData -->
<g id="node67" class="node">
<title>\\SilverStripe\\View\\ViewableData</title>
<ellipse fill="none" stroke="#000000" cx="254.1275" cy="-3424.6779" rx="163.2712" ry="18"/>
<text text-anchor="middle" x="254.1275" y="-3420.9779" font-family="Times,serif" font-size="14.00" fill="#c0c0c0">\SilverStripe\View\ViewableData</text>
</g>
<!-- \\Firesphere\\SolrSearch\\Results\\SearchResult&#45;&gt;\\SilverStripe\\View\\ViewableData -->
<g id="edge12" class="edge">
<title>\\Firesphere\\SolrSearch\\Results\\SearchResult&#45;&gt;\\SilverStripe\\View\\ViewableData</title>
<path fill="none" stroke="#000000" d="M623.6498,-2318.7312C604.9326,-2326.454 585.047,-2337.9644 572.2549,-2354.6779 484.1025,-2469.8534 545.8282,-2534.5904 508.2549,-2674.6779 431.1179,-2962.2741 302.6037,-3300.0695 264.8591,-3397.2687"/>
<polygon fill="none" stroke="#000000" points="261.565,-3396.0827 261.1992,-3406.6713 268.0882,-3398.6219 261.565,-3396.0827"/>
</g>
<!-- \\Firesphere\\SolrSearch\\Admins\\SearchAdmin -->
<g id="node18" class="node">
<title>\\Firesphere\\SolrSearch\\Admins\\SearchAdmin</title>
<polygon fill="none" stroke="#000000" points="718.2549,-2242.6779 627.2549,-2242.6779 627.2549,-2206.6779 718.2549,-2206.6779 718.2549,-2242.6779"/>
<text text-anchor="middle" x="672.7549" y="-2221.8779" font-family="Courier,monospace" font-size="11.00" fill="#000000">SearchAdmin</text>
</g>
<!-- \\SilverStripe\\Admin\\ModelAdmin -->
<g id="node68" class="node">
<title>\\SilverStripe\\Admin\\ModelAdmin</title>
<ellipse fill="none" stroke="#000000" cx="254.1275" cy="-3586.6779" rx="165.1707" ry="18"/>
<text text-anchor="middle" x="254.1275" y="-3582.9779" font-family="Times,serif" font-size="14.00" fill="#c0c0c0">\SilverStripe\Admin\ModelAdmin</text>
</g>
<!-- \\Firesphere\\SolrSearch\\Admins\\SearchAdmin&#45;&gt;\\SilverStripe\\Admin\\ModelAdmin -->
<g id="edge13" class="edge">
<title>\\Firesphere\\SolrSearch\\Admins\\SearchAdmin&#45;&gt;\\SilverStripe\\Admin\\ModelAdmin</title>
<path fill="none" stroke="#000000" d="M627.0856,-2236.0183C606.8051,-2243.5154 584.7399,-2255.5989 572.2549,-2274.6779 493.9778,-2394.2971 606.4652,-3455.7991 508.2549,-3559.6779 467.2215,-3603.0797 399.0695,-3608.301 343.6674,-3603.4953"/>
<polygon fill="none" stroke="#000000" points="343.7762,-3599.9891 333.4804,-3602.4882 343.0875,-3606.9551 343.7762,-3599.9891"/>
</g>
<!-- \\Firesphere\\SolrSearch\\Tasks\\ClearErrorsTask -->
<g id="node19" class="node">
<title>\\Firesphere\\SolrSearch\\Tasks\\ClearErrorsTask</title>
<polygon fill="none" stroke="#000000" points="731.7549,-2162.6779 613.7549,-2162.6779 613.7549,-2126.6779 731.7549,-2126.6779 731.7549,-2162.6779"/>
<text text-anchor="middle" x="672.7549" y="-2141.8779" font-family="Courier,monospace" font-size="11.00" fill="#000000">ClearErrorsTask</text>
</g>
<!-- \\SilverStripe\\Dev\\BuildTask -->
<g id="node69" class="node">
<title>\\SilverStripe\\Dev\\BuildTask</title>
<ellipse fill="none" stroke="#000000" cx="254.1275" cy="-3532.6779" rx="139.9756" ry="18"/>
<text text-anchor="middle" x="254.1275" y="-3528.9779" font-family="Times,serif" font-size="14.00" fill="#c0c0c0">\SilverStripe\Dev\BuildTask</text>
</g>
<!-- \\Firesphere\\SolrSearch\\Tasks\\ClearErrorsTask&#45;&gt;\\SilverStripe\\Dev\\BuildTask -->
<g id="edge14" class="edge">
<title>\\Firesphere\\SolrSearch\\Tasks\\ClearErrorsTask&#45;&gt;\\SilverStripe\\Dev\\BuildTask</title>
<path fill="none" stroke="#000000" d="M613.6795,-2161.5928C597.6325,-2169.1087 582.0115,-2179.7523 572.2549,-2194.6779 492.4579,-2316.7508 608.3952,-3399.6531 508.2549,-3505.6779 466.0082,-3550.4071 394.9617,-3554.5999 338.7134,-3549.0479"/>
<polygon fill="none" stroke="#000000" points="339.0747,-3545.5666 328.7512,-3547.9491 338.3072,-3552.5244 339.0747,-3545.5666"/>
</g>
<!-- \\Firesphere\\SolrSearch\\Tasks\\ClearDirtyClassesTask -->
<g id="node20" class="node">
<title>\\Firesphere\\SolrSearch\\Tasks\\ClearDirtyClassesTask</title>
<polygon fill="none" stroke="#000000" points="751.7549,-2108.6779 593.7549,-2108.6779 593.7549,-2072.6779 751.7549,-2072.6779 751.7549,-2108.6779"/>
<text text-anchor="middle" x="672.7549" y="-2087.8779" font-family="Courier,monospace" font-size="11.00" fill="#000000">ClearDirtyClassesTask</text>
</g>
<!-- \\Firesphere\\SolrSearch\\Tasks\\ClearDirtyClassesTask&#45;&gt;\\SilverStripe\\Dev\\BuildTask -->
<g id="edge15" class="edge">
<title>\\Firesphere\\SolrSearch\\Tasks\\ClearDirtyClassesTask&#45;&gt;\\SilverStripe\\Dev\\BuildTask</title>
<path fill="none" stroke="#000000" d="M593.7387,-2101.0762C585.4904,-2105.106 578.0285,-2110.4972 572.2549,-2117.6779 475.5137,-2237.995 614.1115,-3393.2971 508.2549,-3505.6779 465.9969,-3550.5403 394.7754,-3554.6663 338.4646,-3549.0553"/>
<polygon fill="none" stroke="#000000" points="338.8181,-3545.5732 328.4924,-3547.9461 338.0441,-3552.5303 338.8181,-3545.5732"/>
</g>
<!-- \\Firesphere\\SolrSearch\\Tasks\\SolrConfigureTask -->
<g id="node21" class="node">
<title>\\Firesphere\\SolrSearch\\Tasks\\SolrConfigureTask</title>
<polygon fill="none" stroke="#000000" points="738.2549,-2054.6779 607.2549,-2054.6779 607.2549,-2018.6779 738.2549,-2018.6779 738.2549,-2054.6779"/>
<text text-anchor="middle" x="672.7549" y="-2033.8779" font-family="Courier,monospace" font-size="11.00" fill="#000000">SolrConfigureTask</text>
</g>
<!-- \\Firesphere\\SolrSearch\\Tasks\\SolrConfigureTask&#45;&gt;\\SilverStripe\\Dev\\BuildTask -->
<g id="edge16" class="edge">
<title>\\Firesphere\\SolrSearch\\Tasks\\SolrConfigureTask&#45;&gt;\\SilverStripe\\Dev\\BuildTask</title>
<path fill="none" stroke="#000000" d="M607.0931,-2041.8263C593.6876,-2045.976 581.0192,-2052.7585 572.2549,-2063.6779 471.8655,-2188.7527 618.1206,-3388.8393 508.2549,-3505.6779 466.0356,-3550.5767 394.8108,-3554.6996 338.4888,-3549.0782"/>
<polygon fill="none" stroke="#000000" points="338.8406,-3545.5958 328.5146,-3547.967 338.0655,-3552.5528 338.8406,-3545.5958"/>
</g>
<!-- \\Firesphere\\SolrSearch\\Tasks\\SolrIndexTask -->
<g id="node22" class="node">
<title>\\Firesphere\\SolrSearch\\Tasks\\SolrIndexTask</title>
<polygon fill="none" stroke="#000000" points="724.7549,-2000.6779 620.7549,-2000.6779 620.7549,-1964.6779 724.7549,-1964.6779 724.7549,-2000.6779"/>
<text text-anchor="middle" x="672.7549" y="-1979.8779" font-family="Courier,monospace" font-size="11.00" fill="#000000">SolrIndexTask</text>
</g>
<!-- \\Firesphere\\SolrSearch\\Tasks\\SolrIndexTask&#45;&gt;\\SilverStripe\\Dev\\BuildTask -->
<g id="edge17" class="edge">
<title>\\Firesphere\\SolrSearch\\Tasks\\SolrIndexTask&#45;&gt;\\SilverStripe\\Dev\\BuildTask</title>
<path fill="none" stroke="#000000" d="M620.7019,-1984.4721C602.6132,-1987.8795 583.9478,-1995.0859 572.2549,-2009.6779 468.2172,-2139.5107 622.13,-3384.3813 508.2549,-3505.6779 465.9999,-3550.6867 394.6017,-3554.7443 338.2246,-3549.0706"/>
<polygon fill="none" stroke="#000000" points="338.5697,-3545.5874 328.2417,-3547.9501 337.7889,-3552.5438 338.5697,-3545.5874"/>
</g>
<!-- \\Firesphere\\SolrSearch\\Jobs\\ClearDirtyClassesJob -->
<g id="node23" class="node">
<title>\\Firesphere\\SolrSearch\\Jobs\\ClearDirtyClassesJob</title>
<polygon fill="none" stroke="#000000" points="748.7549,-1920.6779 596.7549,-1920.6779 596.7549,-1884.6779 748.7549,-1884.6779 748.7549,-1920.6779"/>
<text text-anchor="middle" x="672.7549" y="-1899.8779" font-family="Courier,monospace" font-size="11.00" fill="#000000">ClearDirtyClassesJob</text>
</g>
<!-- \\Symbiote\\QueuedJobs\\Services\\AbstractQueuedJob -->
<g id="node70" class="node">
<title>\\Symbiote\\QueuedJobs\\Services\\AbstractQueuedJob</title>
<ellipse fill="none" stroke="#000000" cx="254.1275" cy="-3478.6779" rx="254.255" ry="18"/>
<text text-anchor="middle" x="254.1275" y="-3474.9779" font-family="Times,serif" font-size="14.00" fill="#c0c0c0">\Symbiote\QueuedJobs\Services\AbstractQueuedJob</text>
</g>
<!-- \\Firesphere\\SolrSearch\\Jobs\\ClearDirtyClassesJob&#45;&gt;\\Symbiote\\QueuedJobs\\Services\\AbstractQueuedJob -->
<g id="edge18" class="edge">
<title>\\Firesphere\\SolrSearch\\Jobs\\ClearDirtyClassesJob&#45;&gt;\\Symbiote\\QueuedJobs\\Services\\AbstractQueuedJob</title>
<path fill="none" stroke="#000000" d="M611.2589,-1920.6876C596.0529,-1928.1286 581.4883,-1938.4581 572.2549,-1952.6779 481.4671,-2092.4952 622.3528,-3330.1337 508.2549,-3451.6779 469.7427,-3492.7035 407.0176,-3499.7065 353.5226,-3496.3283"/>
<polygon fill="none" stroke="#000000" points="353.5399,-3492.8196 343.3035,-3495.5521 353.0097,-3499.7995 353.5399,-3492.8196"/>
</g>
<!-- \\Firesphere\\SolrSearch\\Jobs\\SolrConfigureJob -->
<g id="node24" class="node">
<title>\\Firesphere\\SolrSearch\\Jobs\\SolrConfigureJob</title>
<polygon fill="none" stroke="#000000" points="735.2549,-1866.6779 610.2549,-1866.6779 610.2549,-1830.6779 735.2549,-1830.6779 735.2549,-1866.6779"/>
<text text-anchor="middle" x="672.7549" y="-1845.8779" font-family="Courier,monospace" font-size="11.00" fill="#000000">SolrConfigureJob</text>
</g>
<!-- \\Firesphere\\SolrSearch\\Jobs\\SolrConfigureJob&#45;&gt;\\Symbiote\\QueuedJobs\\Services\\AbstractQueuedJob -->
<g id="edge19" class="edge">
<title>\\Firesphere\\SolrSearch\\Jobs\\SolrConfigureJob&#45;&gt;\\Symbiote\\QueuedJobs\\Services\\AbstractQueuedJob</title>
<path fill="none" stroke="#000000" d="M610.1882,-1852.8849C595.6427,-1856.9266 581.6755,-1863.8954 572.2549,-1875.6779 462.8119,-2012.5599 628.0702,-3323.7765 508.2549,-3451.6779 469.7142,-3492.8196 406.8283,-3499.7728 353.2581,-3496.34"/>
<polygon fill="none" stroke="#000000" points="353.2645,-3492.8303 343.0256,-3495.5532 352.7278,-3499.8097 353.2645,-3492.8303"/>
</g>
<!-- \\Firesphere\\SolrSearch\\Jobs\\SolrIndexJob -->
<g id="node25" class="node">
<title>\\Firesphere\\SolrSearch\\Jobs\\SolrIndexJob</title>
<polygon fill="none" stroke="#000000" points="721.7549,-1812.6779 623.7549,-1812.6779 623.7549,-1776.6779 721.7549,-1776.6779 721.7549,-1812.6779"/>
<text text-anchor="middle" x="672.7549" y="-1791.8779" font-family="Courier,monospace" font-size="11.00" fill="#000000">SolrIndexJob</text>
</g>
<!-- \\Firesphere\\SolrSearch\\Jobs\\SolrIndexJob&#45;&gt;\\Symbiote\\QueuedJobs\\Services\\AbstractQueuedJob -->
<g id="edge20" class="edge">
<title>\\Firesphere\\SolrSearch\\Jobs\\SolrIndexJob&#45;&gt;\\Symbiote\\QueuedJobs\\Services\\AbstractQueuedJob</title>
<path fill="none" stroke="#000000" d="M623.5529,-1795.9391C604.5857,-1799.1097 584.5422,-1806.2888 572.2549,-1821.6779 459.1631,-1963.3184 632.08,-3319.318 508.2549,-3451.6779 469.7418,-3492.8455 406.8561,-3499.7988 353.2792,-3496.3597"/>
<polygon fill="none" stroke="#000000" points="353.2845,-3492.8498 343.0452,-3495.5716 352.7469,-3499.8292 353.2845,-3492.8498"/>
</g>
<!-- \\Firesphere\\SolrSearch\\Extensions\\DataObjectExtension -->
<g id="node26" class="node">
<title>\\Firesphere\\SolrSearch\\Extensions\\DataObjectExtension</title>
<polygon fill="none" stroke="#000000" points="745.2549,-1732.6779 600.2549,-1732.6779 600.2549,-1696.6779 745.2549,-1696.6779 745.2549,-1732.6779"/>
<text text-anchor="middle" x="672.7549" y="-1711.8779" font-family="Courier,monospace" font-size="11.00" fill="#000000">DataObjectExtension</text>
</g>
<!-- \\SilverStripe\\ORM\\DataExtension -->
<g id="node71" class="node">
<title>\\SilverStripe\\ORM\\DataExtension</title>
<ellipse fill="none" stroke="#000000" cx="254.1275" cy="-72.6779" rx="167.8704" ry="18"/>
<text text-anchor="middle" x="254.1275" y="-68.9779" font-family="Times,serif" font-size="14.00" fill="#c0c0c0">\SilverStripe\ORM\DataExtension</text>
</g>
<!-- \\Firesphere\\SolrSearch\\Extensions\\DataObjectExtension&#45;&gt;\\SilverStripe\\ORM\\DataExtension -->
<g id="edge21" class="edge">
<title>\\Firesphere\\SolrSearch\\Extensions\\DataObjectExtension&#45;&gt;\\SilverStripe\\ORM\\DataExtension</title>
<path fill="none" stroke="#000000" d="M600.1405,-1707.1382C589.365,-1702.9134 579.4741,-1696.7099 572.2549,-1687.6779 462.0011,-1549.7384 628.9612,-228.57 508.2549,-99.6779 467.3563,-56.0057 399.0267,-50.8526 343.5157,-55.7551"/>
<polygon fill="none" stroke="#000000" points="342.9093,-52.2984 333.3093,-56.7806 343.6091,-59.2633 342.9093,-52.2984"/>
</g>
<!-- \\Firesphere\\SolrSearch\\Extensions\\GridFieldExtension -->
<g id="node27" class="node">
<title>\\Firesphere\\SolrSearch\\Extensions\\GridFieldExtension</title>
<polygon fill="none" stroke="#000000" points="741.7549,-1678.6779 603.7549,-1678.6779 603.7549,-1642.6779 741.7549,-1642.6779 741.7549,-1678.6779"/>
<text text-anchor="middle" x="672.7549" y="-1657.8779" font-family="Courier,monospace" font-size="11.00" fill="#000000">GridFieldExtension</text>
</g>
<!-- \\Firesphere\\SolrSearch\\Extensions\\GridFieldExtension&#45;&gt;\\SilverStripe\\Core\\Extension -->
<g id="edge22" class="edge">
<title>\\Firesphere\\SolrSearch\\Extensions\\GridFieldExtension&#45;&gt;\\SilverStripe\\Core\\Extension</title>
<path fill="none" stroke="#000000" d="M603.5851,-1652.3149C591.4494,-1647.7406 580.1868,-1640.8868 572.2549,-1630.6779 464.116,-1491.4957 628.7385,-174.3223 508.2549,-45.6779 466.2684,-.8475 395.3763,3.3925 339.1197,-2.1675"/>
<polygon fill="none" stroke="#000000" points="338.7095,1.3086 329.1542,-3.2683 339.4781,-5.6491 338.7095,1.3086"/>
</g>
<!-- \\Firesphere\\SolrSearch\\Helpers\\Statics -->
<g id="node28" class="node">
<title>\\Firesphere\\SolrSearch\\Helpers\\Statics</title>
<polygon fill="none" stroke="#000000" points="704.7549,-1598.6779 640.7549,-1598.6779 640.7549,-1562.6779 704.7549,-1562.6779 704.7549,-1598.6779"/>
<text text-anchor="middle" x="672.7549" y="-1577.8779" font-family="Courier,monospace" font-size="11.00" fill="#000000">Statics</text>
</g>
<!-- \\Firesphere\\SolrSearch\\Helpers\\SolrLogger -->
<g id="node29" class="node">
<title>\\Firesphere\\SolrSearch\\Helpers\\SolrLogger</title>
<polygon fill="none" stroke="#000000" points="714.7549,-1544.6779 630.7549,-1544.6779 630.7549,-1508.6779 714.7549,-1508.6779 714.7549,-1544.6779"/>
<text text-anchor="middle" x="672.7549" y="-1523.8779" font-family="Courier,monospace" font-size="11.00" fill="#000000">SolrLogger</text>
</g>
<!-- \\Firesphere\\SolrSearch\\Helpers\\Synonyms -->
<g id="node30" class="node">
<title>\\Firesphere\\SolrSearch\\Helpers\\Synonyms</title>
<polygon fill="none" stroke="#000000" points="708.2549,-1490.6779 637.2549,-1490.6779 637.2549,-1454.6779 708.2549,-1454.6779 708.2549,-1490.6779"/>
<text text-anchor="middle" x="672.7549" y="-1469.8779" font-family="Courier,monospace" font-size="11.00" fill="#000000">Synonyms</text>
</g>
<!-- \\Firesphere\\SolrSearch\\Helpers\\FieldResolver -->
<g id="node31" class="node">
<title>\\Firesphere\\SolrSearch\\Helpers\\FieldResolver</title>
<polygon fill="none" stroke="#000000" points="724.7549,-1436.6779 620.7549,-1436.6779 620.7549,-1400.6779 724.7549,-1400.6779 724.7549,-1436.6779"/>
<text text-anchor="middle" x="672.7549" y="-1415.8779" font-family="Courier,monospace" font-size="11.00" fill="#000000">FieldResolver</text>
</g>
<!-- \\Firesphere\\SolrSearch\\Helpers\\DataResolver -->
<g id="node32" class="node">
<title>\\Firesphere\\SolrSearch\\Helpers\\DataResolver</title>
<polygon fill="none" stroke="#000000" points="721.7549,-1382.6779 623.7549,-1382.6779 623.7549,-1346.6779 721.7549,-1346.6779 721.7549,-1382.6779"/>
<text text-anchor="middle" x="672.7549" y="-1361.8779" font-family="Courier,monospace" font-size="11.00" fill="#000000">DataResolver</text>
</g>
<!-- \\Firesphere\\SolrSearch\\Traits\\QueryComponentBoostTrait -->
<g id="node33" class="node">
<title>\\Firesphere\\SolrSearch\\Traits\\QueryComponentBoostTrait</title>
<polygon fill="none" stroke="#000000" points="762.2549,-1302.6779 583.2549,-1302.6779 583.2549,-1266.6779 762.2549,-1266.6779 762.2549,-1302.6779"/>
<text text-anchor="middle" x="672.7549" y="-1281.8779" font-family="Courier,monospace" font-size="11.00" fill="#000000">QueryComponentBoostTrait</text>
</g>
<!-- \\Firesphere\\SolrSearch\\Traits\\QueryComponentFilterTrait -->
<g id="node34" class="node">
<title>\\Firesphere\\SolrSearch\\Traits\\QueryComponentFilterTrait</title>
<polygon fill="none" stroke="#000000" points="765.2549,-1248.6779 580.2549,-1248.6779 580.2549,-1212.6779 765.2549,-1212.6779 765.2549,-1248.6779"/>
<text text-anchor="middle" x="672.7549" y="-1227.8779" font-family="Courier,monospace" font-size="11.00" fill="#000000">QueryComponentFilterTrait</text>
</g>
<!-- \\Firesphere\\SolrSearch\\Traits\\QueryComponentFacetTrait -->
<g id="node35" class="node">
<title>\\Firesphere\\SolrSearch\\Traits\\QueryComponentFacetTrait</title>
<polygon fill="none" stroke="#000000" points="762.2549,-1194.6779 583.2549,-1194.6779 583.2549,-1158.6779 762.2549,-1158.6779 762.2549,-1194.6779"/>
<text text-anchor="middle" x="672.7549" y="-1173.8779" font-family="Courier,monospace" font-size="11.00" fill="#000000">QueryComponentFacetTrait</text>
</g>
<!-- \\Firesphere\\SolrSearch\\Traits\\BaseQueryTrait -->
<g id="node36" class="node">
<title>\\Firesphere\\SolrSearch\\Traits\\BaseQueryTrait</title>
<polygon fill="none" stroke="#000000" points="728.2549,-1140.6779 617.2549,-1140.6779 617.2549,-1104.6779 728.2549,-1104.6779 728.2549,-1140.6779"/>
<text text-anchor="middle" x="672.7549" y="-1119.8779" font-family="Courier,monospace" font-size="11.00" fill="#000000">BaseQueryTrait</text>
</g>
<!-- \\Firesphere\\SolrSearch\\Traits\\CoreAdminTrait -->
<g id="node37" class="node">
<title>\\Firesphere\\SolrSearch\\Traits\\CoreAdminTrait</title>
<polygon fill="none" stroke="#000000" points="728.2549,-1086.6779 617.2549,-1086.6779 617.2549,-1050.6779 728.2549,-1050.6779 728.2549,-1086.6779"/>
<text text-anchor="middle" x="672.7549" y="-1065.8779" font-family="Courier,monospace" font-size="11.00" fill="#000000">CoreAdminTrait</text>
</g>
<!-- \\Firesphere\\SolrSearch\\Traits\\CoreServiceTrait -->
<g id="node38" class="node">
<title>\\Firesphere\\SolrSearch\\Traits\\CoreServiceTrait</title>
<polygon fill="none" stroke="#000000" points="735.2549,-1032.6779 610.2549,-1032.6779 610.2549,-996.6779 735.2549,-996.6779 735.2549,-1032.6779"/>
<text text-anchor="middle" x="672.7549" y="-1011.8779" font-family="Courier,monospace" font-size="11.00" fill="#000000">CoreServiceTrait</text>
</g>
<!-- \\Firesphere\\SolrSearch\\Traits\\GetterSetterTrait -->
<g id="node39" class="node">
<title>\\Firesphere\\SolrSearch\\Traits\\GetterSetterTrait</title>
<polygon fill="none" stroke="#000000" points="738.2549,-978.6779 607.2549,-978.6779 607.2549,-942.6779 738.2549,-942.6779 738.2549,-978.6779"/>
<text text-anchor="middle" x="672.7549" y="-957.8779" font-family="Courier,monospace" font-size="11.00" fill="#000000">GetterSetterTrait</text>
</g>
<!-- \\Firesphere\\SolrSearch\\Traits\\DataResolveTrait -->
<g id="node40" class="node">
<title>\\Firesphere\\SolrSearch\\Traits\\DataResolveTrait</title>
<polygon fill="none" stroke="#000000" points="735.2549,-924.6779 610.2549,-924.6779 610.2549,-888.6779 735.2549,-888.6779 735.2549,-924.6779"/>
<text text-anchor="middle" x="672.7549" y="-903.8779" font-family="Courier,monospace" font-size="11.00" fill="#000000">DataResolveTrait</text>
</g>
<!-- \\Firesphere\\SolrSearch\\Traits\\LoggerTrait -->
<g id="node41" class="node">
<title>\\Firesphere\\SolrSearch\\Traits\\LoggerTrait</title>
<polygon fill="none" stroke="#000000" points="718.2549,-870.6779 627.2549,-870.6779 627.2549,-834.6779 718.2549,-834.6779 718.2549,-870.6779"/>
<text text-anchor="middle" x="672.7549" y="-849.8779" font-family="Courier,monospace" font-size="11.00" fill="#000000">LoggerTrait</text>
</g>
<!-- \\Firesphere\\SolrSearch\\Traits\\DocumentFactoryTrait -->
<g id="node42" class="node">
<title>\\Firesphere\\SolrSearch\\Traits\\DocumentFactoryTrait</title>
<polygon fill="none" stroke="#000000" points="748.7549,-816.6779 596.7549,-816.6779 596.7549,-780.6779 748.7549,-780.6779 748.7549,-816.6779"/>
<text text-anchor="middle" x="672.7549" y="-795.8779" font-family="Courier,monospace" font-size="11.00" fill="#000000">DocumentFactoryTrait</text>
</g>
<!-- \\Firesphere\\SolrSearch\\Traits\\GetSetSearchResolverTrait -->
<g id="node43" class="node">
<title>\\Firesphere\\SolrSearch\\Traits\\GetSetSearchResolverTrait</title>
<polygon fill="none" stroke="#000000" points="765.2549,-762.6779 580.2549,-762.6779 580.2549,-726.6779 765.2549,-726.6779 765.2549,-762.6779"/>
<text text-anchor="middle" x="672.7549" y="-741.8779" font-family="Courier,monospace" font-size="11.00" fill="#000000">GetSetSearchResolverTrait</text>
</g>
<!-- \\Firesphere\\SolrSearch\\Traits\\SearchResultGetTrait -->
<g id="node44" class="node">
<title>\\Firesphere\\SolrSearch\\Traits\\SearchResultGetTrait</title>
<polygon fill="none" stroke="#000000" points="748.7549,-708.6779 596.7549,-708.6779 596.7549,-672.6779 748.7549,-672.6779 748.7549,-708.6779"/>
<text text-anchor="middle" x="672.7549" y="-687.8779" font-family="Courier,monospace" font-size="11.00" fill="#000000">SearchResultGetTrait</text>
</g>
<!-- \\Firesphere\\SolrSearch\\Traits\\SearchResultSetTrait -->
<g id="node45" class="node">
<title>\\Firesphere\\SolrSearch\\Traits\\SearchResultSetTrait</title>
<polygon fill="none" stroke="#000000" points="748.7549,-654.6779 596.7549,-654.6779 596.7549,-618.6779 748.7549,-618.6779 748.7549,-654.6779"/>
<text text-anchor="middle" x="672.7549" y="-633.8779" font-family="Courier,monospace" font-size="11.00" fill="#000000">SearchResultSetTrait</text>
</g>
<!-- \\Firesphere\\SolrSearch\\Traits\\GetSetSchemaFactoryTrait -->
<g id="node46" class="node">
<title>\\Firesphere\\SolrSearch\\Traits\\GetSetSchemaFactoryTrait</title>
<polygon fill="none" stroke="#000000" points="762.2549,-600.6779 583.2549,-600.6779 583.2549,-564.6779 762.2549,-564.6779 762.2549,-600.6779"/>
<text text-anchor="middle" x="672.7549" y="-579.8779" font-family="Courier,monospace" font-size="11.00" fill="#000000">GetSetSchemaFactoryTrait</text>
</g>
<!-- \\Firesphere\\SolrSearch\\Traits\\SolrIndexTrait -->
<g id="node47" class="node">
<title>\\Firesphere\\SolrSearch\\Traits\\SolrIndexTrait</title>
<polygon fill="none" stroke="#000000" points="728.2549,-546.6779 617.2549,-546.6779 617.2549,-510.6779 728.2549,-510.6779 728.2549,-546.6779"/>
<text text-anchor="middle" x="672.7549" y="-525.8779" font-family="Courier,monospace" font-size="11.00" fill="#000000">SolrIndexTrait</text>
</g>
<!-- \\Firesphere\\SolrSearch\\Traits\\BaseIndexTrait -->
<g id="node48" class="node">
<title>\\Firesphere\\SolrSearch\\Traits\\BaseIndexTrait</title>
<polygon fill="none" stroke="#000000" points="728.2549,-492.6779 617.2549,-492.6779 617.2549,-456.6779 728.2549,-456.6779 728.2549,-492.6779"/>
<text text-anchor="middle" x="672.7549" y="-471.8779" font-family="Courier,monospace" font-size="11.00" fill="#000000">BaseIndexTrait</text>
</g>
<!-- \\Firesphere\\SolrSearch\\Factories\\DocumentFactory -->
<g id="node49" class="node">
<title>\\Firesphere\\SolrSearch\\Factories\\DocumentFactory</title>
<polygon fill="none" stroke="#000000" points="731.7549,-412.6779 613.7549,-412.6779 613.7549,-376.6779 731.7549,-376.6779 731.7549,-412.6779"/>
<text text-anchor="middle" x="672.7549" y="-391.8779" font-family="Courier,monospace" font-size="11.00" fill="#000000">DocumentFactory</text>
</g>
<!-- \\Firesphere\\SolrSearch\\Factories\\SchemaFactory -->
<g id="node50" class="node">
<title>\\Firesphere\\SolrSearch\\Factories\\SchemaFactory</title>
<polygon fill="none" stroke="#000000" points="724.7549,-358.6779 620.7549,-358.6779 620.7549,-322.6779 724.7549,-322.6779 724.7549,-358.6779"/>
<text text-anchor="middle" x="672.7549" y="-337.8779" font-family="Courier,monospace" font-size="11.00" fill="#000000">SchemaFactory</text>
</g>
<!-- \\Firesphere\\SolrSearch\\Factories\\SchemaFactory&#45;&gt;\\SilverStripe\\View\\ViewableData -->
<g id="edge23" class="edge">
<title>\\Firesphere\\SolrSearch\\Factories\\SchemaFactory&#45;&gt;\\SilverStripe\\View\\ViewableData</title>
<path fill="none" stroke="#000000" d="M620.5849,-342.379C602.4822,-345.7754 583.8379,-352.9985 572.2549,-367.6779 492.8321,-468.3325 530.8579,-2548.47 508.2549,-2674.6779 455.8215,-2967.4489 310.5171,-3301.0189 266.7579,-3397.3383"/>
<polygon fill="none" stroke="#000000" points="263.4711,-3396.1102 262.5022,-3406.6606 269.839,-3399.0172 263.4711,-3396.1102"/>
</g>
<!-- \\Firesphere\\SolrSearch\\Factories\\QueryComponentFactory -->
<g id="node51" class="node">
<title>\\Firesphere\\SolrSearch\\Factories\\QueryComponentFactory</title>
<polygon fill="none" stroke="#000000" points="751.7549,-304.6779 593.7549,-304.6779 593.7549,-268.6779 751.7549,-268.6779 751.7549,-304.6779"/>
<text text-anchor="middle" x="672.7549" y="-283.8779" font-family="Courier,monospace" font-size="11.00" fill="#000000">QueryComponentFactory</text>
</g>
<!-- \\Firesphere\\SolrFluent\\States\\FluentSiteState -->
<g id="node53" class="node">
<title>\\Firesphere\\SolrFluent\\States\\FluentSiteState</title>
<polygon fill="none" stroke="#000000" points="985.7549,-856.6779 867.7549,-856.6779 867.7549,-820.6779 985.7549,-820.6779 985.7549,-856.6779"/>
<text text-anchor="middle" x="926.7549" y="-835.8779" font-family="Courier,monospace" font-size="11.00" fill="#000000">FluentSiteState</text>
</g>
<!-- \\Firesphere\\SolrFluent\\States\\FluentSiteState&#45;&gt;\\Firesphere\\SolrSearch\\Interfaces\\SiteStateInterface -->
<g id="edge25" class="edge">
<title>\\Firesphere\\SolrFluent\\States\\FluentSiteState&#45;&gt;\\Firesphere\\SolrSearch\\Interfaces\\SiteStateInterface</title>
<path fill="none" stroke="#000000" stroke-dasharray="1,5" d="M867.5291,-834.7168C850.0639,-830.5237 832.6083,-822.7615 821.2549,-808.6779 732.9344,-699.119 880.7021,-276.2465 781.2549,-176.6779 747.1066,-142.4879 720.9466,-166.1252 672.7549,-169.6779"/>
<path fill="none" stroke="#000000" stroke-dasharray="1,5" d="M672.7549,-169.6779C628.1012,-172.9697 604.8904,-146.0231 572.2549,-176.6779 389.7003,-348.1527 270.7814,-2285.1359 255.7449,-2542.4938"/>
<polygon fill="none" stroke="#000000" points="252.2475,-2542.3475 255.1613,-2552.5337 259.2358,-2542.7537 252.2475,-2542.3475"/>
</g>
<!-- \\Firesphere\\SolrFluent\\States\\FluentSiteState&#45;&gt;\\Firesphere\\SolrSearch\\States\\SiteState -->
<g id="edge24" class="edge">
<title>\\Firesphere\\SolrFluent\\States\\FluentSiteState&#45;&gt;\\Firesphere\\SolrSearch\\States\\SiteState</title>
<path fill="none" stroke="#000000" d="M891.4155,-856.7289C866.8755,-871.3863 836.0317,-894.5515 821.2549,-924.6779 782.343,-1004.01 835.6465,-2445.0412 781.2549,-2514.6779 767.9183,-2531.7526 745.7856,-2539.6649 724.976,-2543.1483"/>
<polygon fill="none" stroke="#000000" points="724.3453,-2539.7019 714.9111,-2544.5233 725.2928,-2546.6374 724.3453,-2539.7019"/>
</g>
<!-- \\Firesphere\\SolrFluent\\Extensions\\FluentDocumentExtension -->
<g id="node54" class="node">
<title>\\Firesphere\\SolrFluent\\Extensions\\FluentDocumentExtension</title>
<polygon fill="none" stroke="#000000" points="1012.7549,-668.6779 840.7549,-668.6779 840.7549,-632.6779 1012.7549,-632.6779 1012.7549,-668.6779"/>
<text text-anchor="middle" x="926.7549" y="-647.8779" font-family="Courier,monospace" font-size="11.00" fill="#000000">FluentDocumentExtension</text>
</g>
<!-- \\Firesphere\\SolrFluent\\Extensions\\FluentDocumentExtension&#45;&gt;\\SilverStripe\\Core\\Extension -->
<g id="edge26" class="edge">
<title>\\Firesphere\\SolrFluent\\Extensions\\FluentDocumentExtension&#45;&gt;\\SilverStripe\\Core\\Extension</title>
<path fill="none" stroke="#000000" d="M879.2438,-632.5908C857.9161,-621.9507 834.5963,-606.2751 821.2549,-584.6779 771.9816,-504.9141 843.3593,-234.9144 781.2549,-164.6779 748.54,-127.6793 709.4057,-173.782 672.7549,-140.6779"/>
<path fill="none" stroke="#000000" d="M672.7549,-140.6779C657.0915,-126.5302 528.3246,-52.2128 508.2549,-45.6779 475.4252,-34.9882 439.0725,-28.3025 404.3721,-24.1743"/>
<polygon fill="none" stroke="#000000" points="404.4777,-20.6643 394.1493,-23.0252 403.6957,-27.6204 404.4777,-20.6643"/>
</g>
<!-- \\Firesphere\\SolrFluent\\Extensions\\FluentSchemaExtension -->
<g id="node55" class="node">
<title>\\Firesphere\\SolrFluent\\Extensions\\FluentSchemaExtension</title>
<polygon fill="none" stroke="#000000" points="1005.7549,-776.6779 847.7549,-776.6779 847.7549,-740.6779 1005.7549,-740.6779 1005.7549,-776.6779"/>
<text text-anchor="middle" x="926.7549" y="-755.8779" font-family="Courier,monospace" font-size="11.00" fill="#000000">FluentSchemaExtension</text>
</g>
<!-- \\Firesphere\\SolrFluent\\Extensions\\FluentSchemaExtension&#45;&gt;\\SilverStripe\\Core\\Extension -->
<g id="edge27" class="edge">
<title>\\Firesphere\\SolrFluent\\Extensions\\FluentSchemaExtension&#45;&gt;\\SilverStripe\\Core\\Extension</title>
<path fill="none" stroke="#000000" d="M847.6545,-750.318C837.5372,-746.0882 828.28,-740.0977 821.2549,-731.6779 740.3328,-634.6901 863.7592,-260.3233 781.2549,-164.6779 748.9961,-127.2809 709.4057,-173.782 672.7549,-140.6779"/>
</g>
<!-- \\Firesphere\\SolrFluent\\Extensions\\FluentIndexExtension -->
<g id="node56" class="node">
<title>\\Firesphere\\SolrFluent\\Extensions\\FluentIndexExtension</title>
<polygon fill="none" stroke="#000000" points="1002.7549,-722.6779 850.7549,-722.6779 850.7549,-686.6779 1002.7549,-686.6779 1002.7549,-722.6779"/>
<text text-anchor="middle" x="926.7549" y="-701.8779" font-family="Courier,monospace" font-size="11.00" fill="#000000">FluentIndexExtension</text>
</g>
<!-- \\Firesphere\\SolrFluent\\Extensions\\FluentIndexExtension&#45;&gt;\\SilverStripe\\Core\\Extension -->
<g id="edge28" class="edge">
<title>\\Firesphere\\SolrFluent\\Extensions\\FluentIndexExtension&#45;&gt;\\SilverStripe\\Core\\Extension</title>
<path fill="none" stroke="#000000" d="M850.6124,-697.4261C839.3641,-693.1597 828.9802,-686.8677 821.2549,-677.6779 747.6758,-590.15 856.2618,-250.9853 781.2549,-164.6779 748.8582,-127.4003 709.4057,-173.782 672.7549,-140.6779"/>
</g>
<!-- \\Firesphere\\SolrSubsites\\States\\SubsiteState -->
<g id="node57" class="node">
<title>\\Firesphere\\SolrSubsites\\States\\SubsiteState</title>
<polygon fill="none" stroke="#000000" points="975.7549,-1052.6779 877.7549,-1052.6779 877.7549,-1016.6779 975.7549,-1016.6779 975.7549,-1052.6779"/>
<text text-anchor="middle" x="926.7549" y="-1031.8779" font-family="Courier,monospace" font-size="11.00" fill="#000000">SubsiteState</text>
</g>
<!-- \\Firesphere\\SolrSubsites\\States\\SubsiteState&#45;&gt;\\Firesphere\\SolrSearch\\Interfaces\\SiteStateInterface -->
<g id="edge30" class="edge">
<title>\\Firesphere\\SolrSubsites\\States\\SubsiteState&#45;&gt;\\Firesphere\\SolrSearch\\Interfaces\\SiteStateInterface</title>
<path fill="none" stroke="#000000" stroke-dasharray="1,5" d="M877.5714,-1032.8744C856.9534,-1029.4194 834.6932,-1021.6049 821.2549,-1004.6779 763.9847,-932.54 845.8564,-242.3315 781.2549,-176.6779 747.3629,-142.2338 720.9466,-166.1252 672.7549,-169.6779"/>
</g>
<!-- \\Firesphere\\SolrSubsites\\States\\SubsiteState&#45;&gt;\\Firesphere\\SolrSearch\\States\\SiteState -->
<g id="edge29" class="edge">
<title>\\Firesphere\\SolrSubsites\\States\\SubsiteState&#45;&gt;\\Firesphere\\SolrSearch\\States\\SiteState</title>
<path fill="none" stroke="#000000" d="M926.1976,-1052.8292C921.0931,-1214.0016 880.37,-2396.8889 781.2549,-2514.6779 767.4135,-2531.1271 745.4345,-2538.9792 724.8668,-2542.5853"/>
<polygon fill="none" stroke="#000000" points="724.3161,-2539.1285 714.9251,-2544.0336 725.3252,-2546.0554 724.3161,-2539.1285"/>
</g>
<!-- \\Firesphere\\SolrSubsites\\Extensions\\SubsitesExtension -->
<g id="node58" class="node">
<title>\\Firesphere\\SolrSubsites\\Extensions\\SubsitesExtension</title>
<polygon fill="none" stroke="#000000" points="992.2549,-972.6779 861.2549,-972.6779 861.2549,-936.6779 992.2549,-936.6779 992.2549,-972.6779"/>
<text text-anchor="middle" x="926.7549" y="-951.8779" font-family="Courier,monospace" font-size="11.00" fill="#000000">SubsitesExtension</text>
</g>
<!-- \\Firesphere\\SolrSubsites\\Extensions\\SubsitesExtension&#45;&gt;\\SilverStripe\\Core\\Extension -->
<g id="edge31" class="edge">
<title>\\Firesphere\\SolrSubsites\\Extensions\\SubsitesExtension&#45;&gt;\\SilverStripe\\Core\\Extension</title>
<path fill="none" stroke="#000000" d="M878.3173,-936.5485C857.0531,-925.9654 834.0545,-910.35 821.2549,-888.6779 739.3126,-749.9346 885.5707,-287.4885 781.2549,-164.6779 749.282,-127.0363 709.4057,-173.782 672.7549,-140.6779"/>
</g>
<!-- \\Firesphere\\SolrPermissions\\Extensions\\SchemaFactoryExtension -->
<g id="node59" class="node">
<title>\\Firesphere\\SolrPermissions\\Extensions\\SchemaFactoryExtension</title>
<polygon fill="none" stroke="#000000" points="1009.2549,-390.6779 844.2549,-390.6779 844.2549,-354.6779 1009.2549,-354.6779 1009.2549,-390.6779"/>
<text text-anchor="middle" x="926.7549" y="-369.8779" font-family="Courier,monospace" font-size="11.00" fill="#000000">SchemaFactoryExtension</text>
</g>
<!-- \\Firesphere\\SolrPermissions\\Extensions\\SchemaFactoryExtension&#45;&gt;\\SilverStripe\\Core\\Extension -->
<g id="edge32" class="edge">
<title>\\Firesphere\\SolrPermissions\\Extensions\\SchemaFactoryExtension&#45;&gt;\\SilverStripe\\Core\\Extension</title>
<path fill="none" stroke="#000000" d="M881.1304,-354.6117C859.7122,-343.835 835.7606,-328.0354 821.2549,-306.6779 765.9092,-225.1895 849.6364,-159.5825 781.2549,-88.6779 746.9706,-53.1286 716.6848,-87.2461 672.7549,-64.6779"/>
</g>
<!-- \\Firesphere\\SolrPermissions\\Extensions\\BaseIndexExtension -->
<g id="node60" class="node">
<title>\\Firesphere\\SolrPermissions\\Extensions\\BaseIndexExtension</title>
<polygon fill="none" stroke="#000000" points="995.7549,-498.6779 857.7549,-498.6779 857.7549,-462.6779 995.7549,-462.6779 995.7549,-498.6779"/>
<text text-anchor="middle" x="926.7549" y="-477.8779" font-family="Courier,monospace" font-size="11.00" fill="#000000">BaseIndexExtension</text>
</g>
<!-- \\Firesphere\\SolrPermissions\\Extensions\\BaseIndexExtension&#45;&gt;\\SilverStripe\\Core\\Extension -->
<g id="edge33" class="edge">
<title>\\Firesphere\\SolrPermissions\\Extensions\\BaseIndexExtension&#45;&gt;\\SilverStripe\\Core\\Extension</title>
<path fill="none" stroke="#000000" d="M857.5959,-475.4999C843.796,-471.3189 830.6721,-464.5305 821.2549,-453.6779 714.2992,-330.4197 890.2208,-210.1626 781.2549,-88.6779 748.2781,-51.9125 716.6848,-87.2461 672.7549,-64.6779"/>
</g>
<!-- \\Firesphere\\SolrPermissions\\Extensions\\DataObjectExtension -->
<g id="node61" class="node">
<title>\\Firesphere\\SolrPermissions\\Extensions\\DataObjectExtension</title>
<polygon fill="none" stroke="#000000" points="999.2549,-552.6779 854.2549,-552.6779 854.2549,-516.6779 999.2549,-516.6779 999.2549,-552.6779"/>
<text text-anchor="middle" x="926.7549" y="-531.8779" font-family="Courier,monospace" font-size="11.00" fill="#000000">DataObjectExtension</text>
</g>
<!-- \\Firesphere\\SolrPermissions\\Extensions\\DataObjectExtension&#45;&gt;\\SilverStripe\\ORM\\DataExtension -->
<g id="edge34" class="edge">
<title>\\Firesphere\\SolrPermissions\\Extensions\\DataObjectExtension&#45;&gt;\\SilverStripe\\ORM\\DataExtension</title>
<path fill="none" stroke="#000000" d="M854.1266,-528.3214C841.6284,-524.0844 829.9011,-517.5723 821.2549,-507.6779 720.2653,-392.1077 883.2119,-279.3955 781.2549,-164.6779 734.3687,-111.9236 557.436,-89.3822 421.3514,-79.7734"/>
<polygon fill="none" stroke="#000000" points="421.4309,-76.2707 411.2143,-79.076 420.9505,-83.2542 421.4309,-76.2707"/>
</g>
<!-- \\Firesphere\\SolrPermissions\\Extensions\\DocumentFactoryExtension -->
<g id="node62" class="node">
<title>\\Firesphere\\SolrPermissions\\Extensions\\DocumentFactoryExtension</title>
<polygon fill="none" stroke="#000000" points="1016.2549,-444.6779 837.2549,-444.6779 837.2549,-408.6779 1016.2549,-408.6779 1016.2549,-444.6779"/>
<text text-anchor="middle" x="926.7549" y="-423.8779" font-family="Courier,monospace" font-size="11.00" fill="#000000">DocumentFactoryExtension</text>
</g>
<!-- \\Firesphere\\SolrPermissions\\Extensions\\DocumentFactoryExtension&#45;&gt;\\SilverStripe\\Core\\Extension -->
<g id="edge35" class="edge">
<title>\\Firesphere\\SolrPermissions\\Extensions\\DocumentFactoryExtension&#45;&gt;\\SilverStripe\\Core\\Extension</title>
<path fill="none" stroke="#000000" d="M836.9166,-412.4259C831.0907,-408.9751 825.7637,-404.7765 821.2549,-399.6779 728.9356,-295.2816 875.2766,-191.5436 781.2549,-88.6779 747.9347,-52.2235 716.6848,-87.2461 672.7549,-64.6779"/>
</g>
</g>
</svg>
