<?xml version="1.0" encoding="UTF-8" standalone="no"?>
<!DOCTYPE svg PUBLIC "-//W3C//DTD SVG 1.1//EN"
 "http://www.w3.org/Graphics/SVG/1.1/DTD/svg11.dtd">
<!-- Generated by graphviz version 2.40.1 (20161225.0304)
 -->
<!-- Title: G Pages: 1 -->
<svg width="1064pt" height="3721pt"
 viewBox="0.00 0.00 1064.25 3721.15" xmlns="http://www.w3.org/2000/svg" xmlns:xlink="http://www.w3.org/1999/xlink">
<g id="graph0" class="graph" transform="scale(1 1) rotate(0) translate(4 3717.1512)">
<title>G</title>
<polygon fill="#ffffff" stroke="transparent" points="-4,4 -4,-3717.1512 1060.2549,-3717.1512 1060.2549,4 -4,4"/>
<g id="clust1" class="cluster">
<title>cluster_Global</title>
<path fill="none" stroke="#c0c0c0" d="M165.1275,-152.8393C165.1275,-152.8393 1036.2549,-152.8393 1036.2549,-152.8393 1042.2549,-152.8393 1048.2549,-158.8393 1048.2549,-164.8393 1048.2549,-164.8393 1048.2549,-3386.8393 1048.2549,-3386.8393 1048.2549,-3392.8393 1042.2549,-3398.8393 1036.2549,-3398.8393 1036.2549,-3398.8393 165.1275,-3398.8393 165.1275,-3398.8393 159.1275,-3398.8393 153.1275,-3392.8393 153.1275,-3386.8393 153.1275,-3386.8393 153.1275,-164.8393 153.1275,-164.8393 153.1275,-158.8393 159.1275,-152.8393 165.1275,-152.8393"/>
<text text-anchor="middle" x="600.6912" y="-3386.0393" font-family="Times,serif" font-size="11.00" fill="#c0c0c0">Global</text>
</g>
<g id="clust2" class="cluster">
<title>cluster_\SilverStripe</title>
<path fill="none" stroke="#c0c0c0" d="M861.2549,-3056.8393C861.2549,-3056.8393 992.2549,-3056.8393 992.2549,-3056.8393 998.2549,-3056.8393 1004.2549,-3062.8393 1004.2549,-3068.8393 1004.2549,-3068.8393 1004.2549,-3358.8393 1004.2549,-3358.8393 1004.2549,-3364.8393 998.2549,-3370.8393 992.2549,-3370.8393 992.2549,-3370.8393 861.2549,-3370.8393 861.2549,-3370.8393 855.2549,-3370.8393 849.2549,-3364.8393 849.2549,-3358.8393 849.2549,-3358.8393 849.2549,-3068.8393 849.2549,-3068.8393 849.2549,-3062.8393 855.2549,-3056.8393 861.2549,-3056.8393"/>
<text text-anchor="middle" x="926.7549" y="-3358.0393" font-family="Times,serif" font-size="11.00" fill="#c0c0c0">SilverStripe</text>
</g>
<g id="clust3" class="cluster">
<title>cluster_\SilverStripe\FullTextSearch</title>
<path fill="none" stroke="#c0c0c0" d="M869.2549,-3064.8393C869.2549,-3064.8393 984.2549,-3064.8393 984.2549,-3064.8393 990.2549,-3064.8393 996.2549,-3070.8393 996.2549,-3076.8393 996.2549,-3076.8393 996.2549,-3330.8393 996.2549,-3330.8393 996.2549,-3336.8393 990.2549,-3342.8393 984.2549,-3342.8393 984.2549,-3342.8393 869.2549,-3342.8393 869.2549,-3342.8393 863.2549,-3342.8393 857.2549,-3336.8393 857.2549,-3330.8393 857.2549,-3330.8393 857.2549,-3076.8393 857.2549,-3076.8393 857.2549,-3070.8393 863.2549,-3064.8393 869.2549,-3064.8393"/>
<text text-anchor="middle" x="926.7549" y="-3330.0393" font-family="Times,serif" font-size="11.00" fill="#c0c0c0">FullTextSearch</text>
</g>
<g id="clust4" class="cluster">
<title>cluster_\SilverStripe\FullTextSearch\Search</title>
<path fill="none" stroke="#c0c0c0" d="M877.2549,-3206.8393C877.2549,-3206.8393 976.2549,-3206.8393 976.2549,-3206.8393 982.2549,-3206.8393 988.2549,-3212.8393 988.2549,-3218.8393 988.2549,-3218.8393 988.2549,-3302.8393 988.2549,-3302.8393 988.2549,-3308.8393 982.2549,-3314.8393 976.2549,-3314.8393 976.2549,-3314.8393 877.2549,-3314.8393 877.2549,-3314.8393 871.2549,-3314.8393 865.2549,-3308.8393 865.2549,-3302.8393 865.2549,-3302.8393 865.2549,-3218.8393 865.2549,-3218.8393 865.2549,-3212.8393 871.2549,-3206.8393 877.2549,-3206.8393"/>
<text text-anchor="middle" x="926.7549" y="-3302.0393" font-family="Times,serif" font-size="11.00" fill="#c0c0c0">Search</text>
</g>
<g id="clust5" class="cluster">
<title>cluster_\SilverStripe\FullTextSearch\Search\Queries</title>
<path fill="none" stroke="#c0c0c0" d="M885.2549,-3214.8393C885.2549,-3214.8393 968.2549,-3214.8393 968.2549,-3214.8393 974.2549,-3214.8393 980.2549,-3220.8393 980.2549,-3226.8393 980.2549,-3226.8393 980.2549,-3274.8393 980.2549,-3274.8393 980.2549,-3280.8393 974.2549,-3286.8393 968.2549,-3286.8393 968.2549,-3286.8393 885.2549,-3286.8393 885.2549,-3286.8393 879.2549,-3286.8393 873.2549,-3280.8393 873.2549,-3274.8393 873.2549,-3274.8393 873.2549,-3226.8393 873.2549,-3226.8393 873.2549,-3220.8393 879.2549,-3214.8393 885.2549,-3214.8393"/>
<text text-anchor="middle" x="926.7549" y="-3274.0393" font-family="Times,serif" font-size="11.00" fill="#c0c0c0">Queries</text>
</g>
<g id="clust6" class="cluster">
<title>cluster_\SilverStripe\FullTextSearch\Solr</title>
<path fill="none" stroke="#c0c0c0" d="M888.7549,-3072.8393C888.7549,-3072.8393 964.7549,-3072.8393 964.7549,-3072.8393 970.7549,-3072.8393 976.7549,-3078.8393 976.7549,-3084.8393 976.7549,-3084.8393 976.7549,-3186.8393 976.7549,-3186.8393 976.7549,-3192.8393 970.7549,-3198.8393 964.7549,-3198.8393 964.7549,-3198.8393 888.7549,-3198.8393 888.7549,-3198.8393 882.7549,-3198.8393 876.7549,-3192.8393 876.7549,-3186.8393 876.7549,-3186.8393 876.7549,-3084.8393 876.7549,-3084.8393 876.7549,-3078.8393 882.7549,-3072.8393 888.7549,-3072.8393"/>
<text text-anchor="middle" x="926.7549" y="-3186.0393" font-family="Times,serif" font-size="11.00" fill="#c0c0c0">Solr</text>
</g>
<g id="clust7" class="cluster">
<title>cluster_\Firesphere</title>
<path fill="none" stroke="#c0c0c0" d="M173.1275,-160.8393C173.1275,-160.8393 1028.2549,-160.8393 1028.2549,-160.8393 1034.2549,-160.8393 1040.2549,-166.8393 1040.2549,-172.8393 1040.2549,-172.8393 1040.2549,-3036.8393 1040.2549,-3036.8393 1040.2549,-3042.8393 1034.2549,-3048.8393 1028.2549,-3048.8393 1028.2549,-3048.8393 173.1275,-3048.8393 173.1275,-3048.8393 167.1275,-3048.8393 161.1275,-3042.8393 161.1275,-3036.8393 161.1275,-3036.8393 161.1275,-172.8393 161.1275,-172.8393 161.1275,-166.8393 167.1275,-160.8393 173.1275,-160.8393"/>
<text text-anchor="middle" x="600.6912" y="-3036.0393" font-family="Times,serif" font-size="11.00" fill="#c0c0c0">Firesphere</text>
</g>
<g id="clust8" class="cluster">
<title>cluster_\Firesphere\SolrCompatibility</title>
<path fill="none" stroke="#c0c0c0" d="M833.2549,-168.8393C833.2549,-168.8393 1020.2549,-168.8393 1020.2549,-168.8393 1026.2549,-168.8393 1032.2549,-174.8393 1032.2549,-180.8393 1032.2549,-180.8393 1032.2549,-372.8393 1032.2549,-372.8393 1032.2549,-378.8393 1026.2549,-384.8393 1020.2549,-384.8393 1020.2549,-384.8393 833.2549,-384.8393 833.2549,-384.8393 827.2549,-384.8393 821.2549,-378.8393 821.2549,-372.8393 821.2549,-372.8393 821.2549,-180.8393 821.2549,-180.8393 821.2549,-174.8393 827.2549,-168.8393 833.2549,-168.8393"/>
<text text-anchor="middle" x="926.7549" y="-372.0393" font-family="Times,serif" font-size="11.00" fill="#c0c0c0">SolrCompatibility</text>
</g>
<g id="clust9" class="cluster">
<title>cluster_\Firesphere\SolrCompatibility\Extensions</title>
<path fill="none" stroke="#c0c0c0" d="M841.2549,-176.8393C841.2549,-176.8393 1012.2549,-176.8393 1012.2549,-176.8393 1018.2549,-176.8393 1024.2549,-182.8393 1024.2549,-188.8393 1024.2549,-188.8393 1024.2549,-344.8393 1024.2549,-344.8393 1024.2549,-350.8393 1018.2549,-356.8393 1012.2549,-356.8393 1012.2549,-356.8393 841.2549,-356.8393 841.2549,-356.8393 835.2549,-356.8393 829.2549,-350.8393 829.2549,-344.8393 829.2549,-344.8393 829.2549,-188.8393 829.2549,-188.8393 829.2549,-182.8393 835.2549,-176.8393 841.2549,-176.8393"/>
<text text-anchor="middle" x="926.7549" y="-344.0393" font-family="Times,serif" font-size="11.00" fill="#c0c0c0">Extensions</text>
</g>
<g id="clust10" class="cluster">
<title>cluster_\Firesphere\SolrSearch</title>
<path fill="none" stroke="#c0c0c0" d="M181.1275,-172.8393C181.1275,-172.8393 769.2549,-172.8393 769.2549,-172.8393 775.2549,-172.8393 781.2549,-178.8393 781.2549,-184.8393 781.2549,-184.8393 781.2549,-3008.8393 781.2549,-3008.8393 781.2549,-3014.8393 775.2549,-3020.8393 769.2549,-3020.8393 769.2549,-3020.8393 181.1275,-3020.8393 181.1275,-3020.8393 175.1275,-3020.8393 169.1275,-3014.8393 169.1275,-3008.8393 169.1275,-3008.8393 169.1275,-184.8393 169.1275,-184.8393 169.1275,-178.8393 175.1275,-172.8393 181.1275,-172.8393"/>
<text text-anchor="middle" x="475.1912" y="-3008.0393" font-family="Times,serif" font-size="11.00" fill="#c0c0c0">SolrSearch</text>
</g>
<g id="clust11" class="cluster">
<title>cluster_\Firesphere\SolrSearch\States</title>
<path fill="none" stroke="#c0c0c0" d="M634.7549,-2840.8393C634.7549,-2840.8393 710.7549,-2840.8393 710.7549,-2840.8393 716.7549,-2840.8393 722.7549,-2846.8393 722.7549,-2852.8393 722.7549,-2852.8393 722.7549,-2900.8393 722.7549,-2900.8393 722.7549,-2906.8393 716.7549,-2912.8393 710.7549,-2912.8393 710.7549,-2912.8393 634.7549,-2912.8393 634.7549,-2912.8393 628.7549,-2912.8393 622.7549,-2906.8393 622.7549,-2900.8393 622.7549,-2900.8393 622.7549,-2852.8393 622.7549,-2852.8393 622.7549,-2846.8393 628.7549,-2840.8393 634.7549,-2840.8393"/>
<text text-anchor="middle" x="672.7549" y="-2900.0393" font-family="Times,serif" font-size="11.00" fill="#c0c0c0">States</text>
</g>
<g id="clust12" class="cluster">
<title>cluster_\Firesphere\SolrSearch\Indexes</title>
<path fill="none" stroke="#c0c0c0" d="M634.7549,-2920.8393C634.7549,-2920.8393 710.7549,-2920.8393 710.7549,-2920.8393 716.7549,-2920.8393 722.7549,-2926.8393 722.7549,-2932.8393 722.7549,-2932.8393 722.7549,-2980.8393 722.7549,-2980.8393 722.7549,-2986.8393 716.7549,-2992.8393 710.7549,-2992.8393 710.7549,-2992.8393 634.7549,-2992.8393 634.7549,-2992.8393 628.7549,-2992.8393 622.7549,-2986.8393 622.7549,-2980.8393 622.7549,-2980.8393 622.7549,-2932.8393 622.7549,-2932.8393 622.7549,-2926.8393 628.7549,-2920.8393 634.7549,-2920.8393"/>
<text text-anchor="middle" x="672.7549" y="-2980.0393" font-family="Times,serif" font-size="11.00" fill="#c0c0c0">Indexes</text>
</g>
<g id="clust13" class="cluster">
<title>cluster_\Firesphere\SolrSearch\Admins</title>
<path fill="none" stroke="#c0c0c0" d="M631.2549,-2384.8393C631.2549,-2384.8393 714.2549,-2384.8393 714.2549,-2384.8393 720.2549,-2384.8393 726.2549,-2390.8393 726.2549,-2396.8393 726.2549,-2396.8393 726.2549,-2444.8393 726.2549,-2444.8393 726.2549,-2450.8393 720.2549,-2456.8393 714.2549,-2456.8393 714.2549,-2456.8393 631.2549,-2456.8393 631.2549,-2456.8393 625.2549,-2456.8393 619.2549,-2450.8393 619.2549,-2444.8393 619.2549,-2444.8393 619.2549,-2396.8393 619.2549,-2396.8393 619.2549,-2390.8393 625.2549,-2384.8393 631.2549,-2384.8393"/>
<text text-anchor="middle" x="672.7549" y="-2444.0393" font-family="Times,serif" font-size="11.00" fill="#c0c0c0">Admins</text>
</g>
<g id="clust14" class="cluster">
<title>cluster_\Firesphere\SolrSearch\Extensions</title>
<path fill="none" stroke="#c0c0c0" d="M604.2549,-2250.8393C604.2549,-2250.8393 741.2549,-2250.8393 741.2549,-2250.8393 747.2549,-2250.8393 753.2549,-2256.8393 753.2549,-2262.8393 753.2549,-2262.8393 753.2549,-2364.8393 753.2549,-2364.8393 753.2549,-2370.8393 747.2549,-2376.8393 741.2549,-2376.8393 741.2549,-2376.8393 604.2549,-2376.8393 604.2549,-2376.8393 598.2549,-2376.8393 592.2549,-2370.8393 592.2549,-2364.8393 592.2549,-2364.8393 592.2549,-2262.8393 592.2549,-2262.8393 592.2549,-2256.8393 598.2549,-2250.8393 604.2549,-2250.8393"/>
<text text-anchor="middle" x="672.7549" y="-2364.0393" font-family="Times,serif" font-size="11.00" fill="#c0c0c0">Extensions</text>
</g>
<g id="clust15" class="cluster">
<title>cluster_\Firesphere\SolrSearch\Models</title>
<path fill="none" stroke="#c0c0c0" d="M624.7549,-2652.8393C624.7549,-2652.8393 720.7549,-2652.8393 720.7549,-2652.8393 726.7549,-2652.8393 732.7549,-2658.8393 732.7549,-2664.8393 732.7549,-2664.8393 732.7549,-2820.8393 732.7549,-2820.8393 732.7549,-2826.8393 726.7549,-2832.8393 720.7549,-2832.8393 720.7549,-2832.8393 624.7549,-2832.8393 624.7549,-2832.8393 618.7549,-2832.8393 612.7549,-2826.8393 612.7549,-2820.8393 612.7549,-2820.8393 612.7549,-2664.8393 612.7549,-2664.8393 612.7549,-2658.8393 618.7549,-2652.8393 624.7549,-2652.8393"/>
<text text-anchor="middle" x="672.7549" y="-2820.0393" font-family="Times,serif" font-size="11.00" fill="#c0c0c0">Models</text>
</g>
<g id="clust16" class="cluster">
<title>cluster_\Firesphere\SolrSearch\Jobs</title>
<path fill="none" stroke="#c0c0c0" d="M600.7549,-2464.8393C600.7549,-2464.8393 744.7549,-2464.8393 744.7549,-2464.8393 750.7549,-2464.8393 756.7549,-2470.8393 756.7549,-2476.8393 756.7549,-2476.8393 756.7549,-2632.8393 756.7549,-2632.8393 756.7549,-2638.8393 750.7549,-2644.8393 744.7549,-2644.8393 744.7549,-2644.8393 600.7549,-2644.8393 600.7549,-2644.8393 594.7549,-2644.8393 588.7549,-2638.8393 588.7549,-2632.8393 588.7549,-2632.8393 588.7549,-2476.8393 588.7549,-2476.8393 588.7549,-2470.8393 594.7549,-2464.8393 600.7549,-2464.8393"/>
<text text-anchor="middle" x="672.7549" y="-2632.0393" font-family="Times,serif" font-size="11.00" fill="#c0c0c0">Jobs</text>
</g>
<g id="clust17" class="cluster">
<title>cluster_\Firesphere\SolrSearch\Traits</title>
<path fill="none" stroke="#c0c0c0" d="M584.2549,-1360.8393C584.2549,-1360.8393 761.2549,-1360.8393 761.2549,-1360.8393 767.2549,-1360.8393 773.2549,-1366.8393 773.2549,-1372.8393 773.2549,-1372.8393 773.2549,-2230.8393 773.2549,-2230.8393 773.2549,-2236.8393 767.2549,-2242.8393 761.2549,-2242.8393 761.2549,-2242.8393 584.2549,-2242.8393 584.2549,-2242.8393 578.2549,-2242.8393 572.2549,-2236.8393 572.2549,-2230.8393 572.2549,-2230.8393 572.2549,-1372.8393 572.2549,-1372.8393 572.2549,-1366.8393 578.2549,-1360.8393 584.2549,-1360.8393"/>
<text text-anchor="middle" x="672.7549" y="-2230.0393" font-family="Times,serif" font-size="11.00" fill="#c0c0c0">Traits</text>
</g>
<g id="clust18" class="cluster">
<title>cluster_\Firesphere\SolrSearch\Factories</title>
<path fill="none" stroke="#c0c0c0" d="M597.7549,-1172.8393C597.7549,-1172.8393 747.7549,-1172.8393 747.7549,-1172.8393 753.7549,-1172.8393 759.7549,-1178.8393 759.7549,-1184.8393 759.7549,-1184.8393 759.7549,-1340.8393 759.7549,-1340.8393 759.7549,-1346.8393 753.7549,-1352.8393 747.7549,-1352.8393 747.7549,-1352.8393 597.7549,-1352.8393 597.7549,-1352.8393 591.7549,-1352.8393 585.7549,-1346.8393 585.7549,-1340.8393 585.7549,-1340.8393 585.7549,-1184.8393 585.7549,-1184.8393 585.7549,-1178.8393 591.7549,-1172.8393 597.7549,-1172.8393"/>
<text text-anchor="middle" x="672.7549" y="-1340.0393" font-family="Times,serif" font-size="11.00" fill="#c0c0c0">Factories</text>
</g>
<g id="clust19" class="cluster">
<title>cluster_\Firesphere\SolrSearch\Queries</title>
<path fill="none" stroke="#c0c0c0" d="M638.2549,-1092.8393C638.2549,-1092.8393 707.2549,-1092.8393 707.2549,-1092.8393 713.2549,-1092.8393 719.2549,-1098.8393 719.2549,-1104.8393 719.2549,-1104.8393 719.2549,-1152.8393 719.2549,-1152.8393 719.2549,-1158.8393 713.2549,-1164.8393 707.2549,-1164.8393 707.2549,-1164.8393 638.2549,-1164.8393 638.2549,-1164.8393 632.2549,-1164.8393 626.2549,-1158.8393 626.2549,-1152.8393 626.2549,-1152.8393 626.2549,-1104.8393 626.2549,-1104.8393 626.2549,-1098.8393 632.2549,-1092.8393 638.2549,-1092.8393"/>
<text text-anchor="middle" x="672.7549" y="-1152.0393" font-family="Times,serif" font-size="11.00" fill="#c0c0c0">Queries</text>
</g>
<g id="clust20" class="cluster">
<title>cluster_\Firesphere\SolrSearch\Interfaces</title>
<path fill="none" stroke="#c0c0c0" d="M189.1275,-180.8393C189.1275,-180.8393 319.1275,-180.8393 319.1275,-180.8393 325.1275,-180.8393 331.1275,-186.8393 331.1275,-192.8393 331.1275,-192.8393 331.1275,-294.8393 331.1275,-294.8393 331.1275,-300.8393 325.1275,-306.8393 319.1275,-306.8393 319.1275,-306.8393 189.1275,-306.8393 189.1275,-306.8393 183.1275,-306.8393 177.1275,-300.8393 177.1275,-294.8393 177.1275,-294.8393 177.1275,-192.8393 177.1275,-192.8393 177.1275,-186.8393 183.1275,-180.8393 189.1275,-180.8393"/>
<text text-anchor="middle" x="254.1275" y="-294.0393" font-family="Times,serif" font-size="11.00" fill="#c0c0c0">Interfaces</text>
</g>
<g id="clust21" class="cluster">
<title>cluster_\Firesphere\SolrSearch\Helpers</title>
<path fill="none" stroke="#c0c0c0" d="M624.7549,-796.8393C624.7549,-796.8393 720.7549,-796.8393 720.7549,-796.8393 726.7549,-796.8393 732.7549,-802.8393 732.7549,-808.8393 732.7549,-808.8393 732.7549,-1072.8393 732.7549,-1072.8393 732.7549,-1078.8393 726.7549,-1084.8393 720.7549,-1084.8393 720.7549,-1084.8393 624.7549,-1084.8393 624.7549,-1084.8393 618.7549,-1084.8393 612.7549,-1078.8393 612.7549,-1072.8393 612.7549,-1072.8393 612.7549,-808.8393 612.7549,-808.8393 612.7549,-802.8393 618.7549,-796.8393 624.7549,-796.8393"/>
<text text-anchor="middle" x="672.7549" y="-1072.0393" font-family="Times,serif" font-size="11.00" fill="#c0c0c0">Helpers</text>
</g>
<g id="clust22" class="cluster">
<title>cluster_\Firesphere\SolrSearch\Services</title>
<path fill="none" stroke="#c0c0c0" d="M617.7549,-716.8393C617.7549,-716.8393 727.7549,-716.8393 727.7549,-716.8393 733.7549,-716.8393 739.7549,-722.8393 739.7549,-728.8393 739.7549,-728.8393 739.7549,-776.8393 739.7549,-776.8393 739.7549,-782.8393 733.7549,-788.8393 727.7549,-788.8393 727.7549,-788.8393 617.7549,-788.8393 617.7549,-788.8393 611.7549,-788.8393 605.7549,-782.8393 605.7549,-776.8393 605.7549,-776.8393 605.7549,-728.8393 605.7549,-728.8393 605.7549,-722.8393 611.7549,-716.8393 617.7549,-716.8393"/>
<text text-anchor="middle" x="672.7549" y="-776.0393" font-family="Times,serif" font-size="11.00" fill="#c0c0c0">Services</text>
</g>
<g id="clust23" class="cluster">
<title>cluster_\Firesphere\SolrSearch\Results</title>
<path fill="none" stroke="#c0c0c0" d="M627.7549,-636.8393C627.7549,-636.8393 717.7549,-636.8393 717.7549,-636.8393 723.7549,-636.8393 729.7549,-642.8393 729.7549,-648.8393 729.7549,-648.8393 729.7549,-696.8393 729.7549,-696.8393 729.7549,-702.8393 723.7549,-708.8393 717.7549,-708.8393 717.7549,-708.8393 627.7549,-708.8393 627.7549,-708.8393 621.7549,-708.8393 615.7549,-702.8393 615.7549,-696.8393 615.7549,-696.8393 615.7549,-648.8393 615.7549,-648.8393 615.7549,-642.8393 621.7549,-636.8393 627.7549,-636.8393"/>
<text text-anchor="middle" x="672.7549" y="-696.0393" font-family="Times,serif" font-size="11.00" fill="#c0c0c0">Results</text>
</g>
<g id="clust24" class="cluster">
<title>cluster_\Firesphere\SolrSearch\Forms</title>
<path fill="none" stroke="#c0c0c0" d="M634.7549,-556.8393C634.7549,-556.8393 710.7549,-556.8393 710.7549,-556.8393 716.7549,-556.8393 722.7549,-562.8393 722.7549,-568.8393 722.7549,-568.8393 722.7549,-616.8393 722.7549,-616.8393 722.7549,-622.8393 716.7549,-628.8393 710.7549,-628.8393 710.7549,-628.8393 634.7549,-628.8393 634.7549,-628.8393 628.7549,-628.8393 622.7549,-622.8393 622.7549,-616.8393 622.7549,-616.8393 622.7549,-568.8393 622.7549,-568.8393 622.7549,-562.8393 628.7549,-556.8393 634.7549,-556.8393"/>
<text text-anchor="middle" x="672.7549" y="-616.0393" font-family="Times,serif" font-size="11.00" fill="#c0c0c0">Forms</text>
</g>
<g id="clust25" class="cluster">
<title>cluster_\Firesphere\SolrSearch\Stores</title>
<path fill="none" stroke="#c0c0c0" d="M617.7549,-180.8393C617.7549,-180.8393 727.7549,-180.8393 727.7549,-180.8393 733.7549,-180.8393 739.7549,-186.8393 739.7549,-192.8393 739.7549,-192.8393 739.7549,-294.8393 739.7549,-294.8393 739.7549,-300.8393 733.7549,-306.8393 727.7549,-306.8393 727.7549,-306.8393 617.7549,-306.8393 617.7549,-306.8393 611.7549,-306.8393 605.7549,-300.8393 605.7549,-294.8393 605.7549,-294.8393 605.7549,-192.8393 605.7549,-192.8393 605.7549,-186.8393 611.7549,-180.8393 617.7549,-180.8393"/>
<text text-anchor="middle" x="672.7549" y="-294.0393" font-family="Times,serif" font-size="11.00" fill="#c0c0c0">Stores</text>
</g>
<g id="clust26" class="cluster">
<title>cluster_\Firesphere\SolrSearch\Tasks</title>
<path fill="none" stroke="#c0c0c0" d="M597.7549,-314.8393C597.7549,-314.8393 747.7549,-314.8393 747.7549,-314.8393 753.7549,-314.8393 759.7549,-320.8393 759.7549,-326.8393 759.7549,-326.8393 759.7549,-536.8393 759.7549,-536.8393 759.7549,-542.8393 753.7549,-548.8393 747.7549,-548.8393 747.7549,-548.8393 597.7549,-548.8393 597.7549,-548.8393 591.7549,-548.8393 585.7549,-542.8393 585.7549,-536.8393 585.7549,-536.8393 585.7549,-326.8393 585.7549,-326.8393 585.7549,-320.8393 591.7549,-314.8393 597.7549,-314.8393"/>
<text text-anchor="middle" x="672.7549" y="-536.0393" font-family="Times,serif" font-size="11.00" fill="#c0c0c0">Tasks</text>
</g>
<g id="clust27" class="cluster">
<title>cluster_\Firesphere\SolrFluent</title>
<path fill="none" stroke="#c0c0c0" d="M836.7549,-670.8393C836.7549,-670.8393 1016.7549,-670.8393 1016.7549,-670.8393 1022.7549,-670.8393 1028.7549,-676.8393 1028.7549,-682.8393 1028.7549,-682.8393 1028.7549,-954.8393 1028.7549,-954.8393 1028.7549,-960.8393 1022.7549,-966.8393 1016.7549,-966.8393 1016.7549,-966.8393 836.7549,-966.8393 836.7549,-966.8393 830.7549,-966.8393 824.7549,-960.8393 824.7549,-954.8393 824.7549,-954.8393 824.7549,-682.8393 824.7549,-682.8393 824.7549,-676.8393 830.7549,-670.8393 836.7549,-670.8393"/>
<text text-anchor="middle" x="926.7549" y="-954.0393" font-family="Times,serif" font-size="11.00" fill="#c0c0c0">SolrFluent</text>
</g>
<g id="clust28" class="cluster">
<title>cluster_\Firesphere\SolrFluent\States</title>
<path fill="none" stroke="#c0c0c0" d="M871.7549,-866.8393C871.7549,-866.8393 981.7549,-866.8393 981.7549,-866.8393 987.7549,-866.8393 993.7549,-872.8393 993.7549,-878.8393 993.7549,-878.8393 993.7549,-926.8393 993.7549,-926.8393 993.7549,-932.8393 987.7549,-938.8393 981.7549,-938.8393 981.7549,-938.8393 871.7549,-938.8393 871.7549,-938.8393 865.7549,-938.8393 859.7549,-932.8393 859.7549,-926.8393 859.7549,-926.8393 859.7549,-878.8393 859.7549,-878.8393 859.7549,-872.8393 865.7549,-866.8393 871.7549,-866.8393"/>
<text text-anchor="middle" x="926.7549" y="-926.0393" font-family="Times,serif" font-size="11.00" fill="#c0c0c0">States</text>
</g>
<g id="clust29" class="cluster">
<title>cluster_\Firesphere\SolrFluent\Extensions</title>
<path fill="none" stroke="#c0c0c0" d="M844.7549,-678.8393C844.7549,-678.8393 1008.7549,-678.8393 1008.7549,-678.8393 1014.7549,-678.8393 1020.7549,-684.8393 1020.7549,-690.8393 1020.7549,-690.8393 1020.7549,-846.8393 1020.7549,-846.8393 1020.7549,-852.8393 1014.7549,-858.8393 1008.7549,-858.8393 1008.7549,-858.8393 844.7549,-858.8393 844.7549,-858.8393 838.7549,-858.8393 832.7549,-852.8393 832.7549,-846.8393 832.7549,-846.8393 832.7549,-690.8393 832.7549,-690.8393 832.7549,-684.8393 838.7549,-678.8393 844.7549,-678.8393"/>
<text text-anchor="middle" x="926.7549" y="-846.0393" font-family="Times,serif" font-size="11.00" fill="#c0c0c0">Extensions</text>
</g>
<g id="clust30" class="cluster">
<title>cluster_\Firesphere\SolrSubsites</title>
<path fill="none" stroke="#c0c0c0" d="M857.2549,-974.8393C857.2549,-974.8393 996.2549,-974.8393 996.2549,-974.8393 1002.2549,-974.8393 1008.2549,-980.8393 1008.2549,-986.8393 1008.2549,-986.8393 1008.2549,-1150.8393 1008.2549,-1150.8393 1008.2549,-1156.8393 1002.2549,-1162.8393 996.2549,-1162.8393 996.2549,-1162.8393 857.2549,-1162.8393 857.2549,-1162.8393 851.2549,-1162.8393 845.2549,-1156.8393 845.2549,-1150.8393 845.2549,-1150.8393 845.2549,-986.8393 845.2549,-986.8393 845.2549,-980.8393 851.2549,-974.8393 857.2549,-974.8393"/>
<text text-anchor="middle" x="926.7549" y="-1150.0393" font-family="Times,serif" font-size="11.00" fill="#c0c0c0">SolrSubsites</text>
</g>
<g id="clust31" class="cluster">
<title>cluster_\Firesphere\SolrSubsites\States</title>
<path fill="none" stroke="#c0c0c0" d="M881.7549,-1062.8393C881.7549,-1062.8393 971.7549,-1062.8393 971.7549,-1062.8393 977.7549,-1062.8393 983.7549,-1068.8393 983.7549,-1074.8393 983.7549,-1074.8393 983.7549,-1122.8393 983.7549,-1122.8393 983.7549,-1128.8393 977.7549,-1134.8393 971.7549,-1134.8393 971.7549,-1134.8393 881.7549,-1134.8393 881.7549,-1134.8393 875.7549,-1134.8393 869.7549,-1128.8393 869.7549,-1122.8393 869.7549,-1122.8393 869.7549,-1074.8393 869.7549,-1074.8393 869.7549,-1068.8393 875.7549,-1062.8393 881.7549,-1062.8393"/>
<text text-anchor="middle" x="926.7549" y="-1122.0393" font-family="Times,serif" font-size="11.00" fill="#c0c0c0">States</text>
</g>
<g id="clust32" class="cluster">
<title>cluster_\Firesphere\SolrSubsites\Extensions</title>
<path fill="none" stroke="#c0c0c0" d="M865.2549,-982.8393C865.2549,-982.8393 988.2549,-982.8393 988.2549,-982.8393 994.2549,-982.8393 1000.2549,-988.8393 1000.2549,-994.8393 1000.2549,-994.8393 1000.2549,-1042.8393 1000.2549,-1042.8393 1000.2549,-1048.8393 994.2549,-1054.8393 988.2549,-1054.8393 988.2549,-1054.8393 865.2549,-1054.8393 865.2549,-1054.8393 859.2549,-1054.8393 853.2549,-1048.8393 853.2549,-1042.8393 853.2549,-1042.8393 853.2549,-994.8393 853.2549,-994.8393 853.2549,-988.8393 859.2549,-982.8393 865.2549,-982.8393"/>
<text text-anchor="middle" x="926.7549" y="-1042.0393" font-family="Times,serif" font-size="11.00" fill="#c0c0c0">Extensions</text>
</g>
<g id="clust33" class="cluster">
<title>cluster_\Firesphere\SolrPermissions</title>
<path fill="none" stroke="#c0c0c0" d="M833.2549,-392.8393C833.2549,-392.8393 1020.2549,-392.8393 1020.2549,-392.8393 1026.2549,-392.8393 1032.2549,-398.8393 1032.2549,-404.8393 1032.2549,-404.8393 1032.2549,-650.8393 1032.2549,-650.8393 1032.2549,-656.8393 1026.2549,-662.8393 1020.2549,-662.8393 1020.2549,-662.8393 833.2549,-662.8393 833.2549,-662.8393 827.2549,-662.8393 821.2549,-656.8393 821.2549,-650.8393 821.2549,-650.8393 821.2549,-404.8393 821.2549,-404.8393 821.2549,-398.8393 827.2549,-392.8393 833.2549,-392.8393"/>
<text text-anchor="middle" x="926.7549" y="-650.0393" font-family="Times,serif" font-size="11.00" fill="#c0c0c0">SolrPermissions</text>
</g>
<g id="clust34" class="cluster">
<title>cluster_\Firesphere\SolrPermissions\Extensions</title>
<path fill="none" stroke="#c0c0c0" d="M841.2549,-400.8393C841.2549,-400.8393 1012.2549,-400.8393 1012.2549,-400.8393 1018.2549,-400.8393 1024.2549,-406.8393 1024.2549,-412.8393 1024.2549,-412.8393 1024.2549,-622.8393 1024.2549,-622.8393 1024.2549,-628.8393 1018.2549,-634.8393 1012.2549,-634.8393 1012.2549,-634.8393 841.2549,-634.8393 841.2549,-634.8393 835.2549,-634.8393 829.2549,-628.8393 829.2549,-622.8393 829.2549,-622.8393 829.2549,-412.8393 829.2549,-412.8393 829.2549,-406.8393 835.2549,-400.8393 841.2549,-400.8393"/>
<text text-anchor="middle" x="926.7549" y="-622.0393" font-family="Times,serif" font-size="11.00" fill="#c0c0c0">Extensions</text>
</g>
<!-- \\SilverStripe\\FullTextSearch\\Search\\Queries\\SearchQuery -->
<g id="node1" class="node">
<title>\\SilverStripe\\FullTextSearch\\Search\\Queries\\SearchQuery</title>
<polygon fill="none" stroke="#000000" points="972.2549,-3258.8393 881.2549,-3258.8393 881.2549,-3222.8393 972.2549,-3222.8393 972.2549,-3258.8393"/>
<text text-anchor="middle" x="926.7549" y="-3238.0393" font-family="Courier,monospace" font-size="11.00" fill="#000000">SearchQuery</text>
</g>
<!-- \\Firesphere\\SolrSearch\\Queries\\BaseQuery -->
<g id="node37" class="node">
<title>\\Firesphere\\SolrSearch\\Queries\\BaseQuery</title>
<polygon fill="none" stroke="#000000" points="711.2549,-1136.8393 634.2549,-1136.8393 634.2549,-1100.8393 711.2549,-1100.8393 711.2549,-1136.8393"/>
<text text-anchor="middle" x="672.7549" y="-1116.0393" font-family="Courier,monospace" font-size="11.00" fill="#000000">BaseQuery</text>
</g>
<!-- \\SilverStripe\\FullTextSearch\\Search\\Queries\\SearchQuery&#45;&gt;\\Firesphere\\SolrSearch\\Queries\\BaseQuery -->
<g id="edge1" class="edge">
<title>\\SilverStripe\\FullTextSearch\\Search\\Queries\\SearchQuery&#45;&gt;\\Firesphere\\SolrSearch\\Queries\\BaseQuery</title>
<path fill="none" stroke="#000000" d="M881.1386,-3236.2497C859.3073,-3231.5147 834.9872,-3221.9786 821.2549,-3202.8393 755.3676,-3111.009 843.1291,-1263.4201 781.2549,-1168.8393 767.7538,-1148.2016 743.3875,-1135.9484 721.1617,-1128.7433"/>
<polygon fill="none" stroke="#000000" points="722.0601,-1125.3591 711.4774,-1125.8655 720.0661,-1132.0691 722.0601,-1125.3591"/>
</g>
<!-- \\SilverStripe\\FullTextSearch\\Solr\\SolrIndex -->
<g id="node2" class="node">
<title>\\SilverStripe\\FullTextSearch\\Solr\\SolrIndex</title>
<polygon fill="none" stroke="#000000" points="968.7549,-3170.8393 884.7549,-3170.8393 884.7549,-3134.8393 968.7549,-3134.8393 968.7549,-3170.8393"/>
<text text-anchor="start" x="892.7549" y="-3156.0393" font-family="Courier,monospace" font-size="11.00" fill="#000000">«abstract»</text>
<text text-anchor="start" x="896.2549" y="-3144.0393" font-family="Courier,monospace" font-size="11.00" fill="#000000">SolrIndex</text>
</g>
<!-- \\Firesphere\\SolrSearch\\Indexes\\BaseIndex -->
<g id="node8" class="node">
<title>\\Firesphere\\SolrSearch\\Indexes\\BaseIndex</title>
<polygon fill="none" stroke="#000000" points="714.7549,-2964.8393 630.7549,-2964.8393 630.7549,-2928.8393 714.7549,-2928.8393 714.7549,-2964.8393"/>
<text text-anchor="start" x="638.7549" y="-2950.0393" font-family="Courier,monospace" font-size="11.00" fill="#000000">«abstract»</text>
<text text-anchor="start" x="642.2549" y="-2938.0393" font-family="Courier,monospace" font-size="11.00" fill="#000000">BaseIndex</text>
</g>
<!-- \\SilverStripe\\FullTextSearch\\Solr\\SolrIndex&#45;&gt;\\Firesphere\\SolrSearch\\Indexes\\BaseIndex -->
<g id="edge2" class="edge">
<title>\\SilverStripe\\FullTextSearch\\Solr\\SolrIndex&#45;&gt;\\Firesphere\\SolrSearch\\Indexes\\BaseIndex</title>
<path fill="none" stroke="#000000" d="M884.5256,-3148.2109C864.1943,-3144.4981 840.1842,-3137.8234 821.2549,-3125.8393 759.5082,-3086.7474 710.8444,-3013.4597 687.6278,-2973.8682"/>
<polygon fill="none" stroke="#000000" points="690.5631,-2971.9517 682.5411,-2965.0309 684.4963,-2975.4438 690.5631,-2971.9517"/>
</g>
<!-- \\SilverStripe\\FullTextSearch\\Solr\\Solr -->
<g id="node3" class="node">
<title>\\SilverStripe\\FullTextSearch\\Solr\\Solr</title>
<polygon fill="none" stroke="#000000" points="953.7549,-3116.8393 899.7549,-3116.8393 899.7549,-3080.8393 953.7549,-3080.8393 953.7549,-3116.8393"/>
<text text-anchor="middle" x="926.7549" y="-3096.0393" font-family="Courier,monospace" font-size="11.00" fill="#000000">Solr</text>
</g>
<!-- \\Firesphere\\SolrCompatibility\\Extensions\\SolrCoreServiceExtension -->
<g id="node4" class="node">
<title>\\Firesphere\\SolrCompatibility\\Extensions\\SolrCoreServiceExtension</title>
<polygon fill="none" stroke="#000000" points="1016.2549,-328.8393 837.2549,-328.8393 837.2549,-292.8393 1016.2549,-292.8393 1016.2549,-328.8393"/>
<text text-anchor="middle" x="926.7549" y="-308.0393" font-family="Courier,monospace" font-size="11.00" fill="#000000">SolrCoreServiceExtension</text>
</g>
<!-- \\SilverStripe\\Core\\Extension -->
<g id="node64" class="node">
<title>\\SilverStripe\\Core\\Extension</title>
<ellipse fill="none" stroke="#000000" cx="254.1275" cy="-18.8393" rx="144.0747" ry="18"/>
<text text-anchor="middle" x="254.1275" y="-15.1393" font-family="Times,serif" font-size="14.00" fill="#c0c0c0">\SilverStripe\Core\Extension</text>
</g>
<!-- \\Firesphere\\SolrCompatibility\\Extensions\\SolrCoreServiceExtension&#45;&gt;\\SilverStripe\\Core\\Extension -->
<g id="edge3" class="edge">
<title>\\Firesphere\\SolrCompatibility\\Extensions\\SolrCoreServiceExtension&#45;&gt;\\SilverStripe\\Core\\Extension</title>
<path fill="none" stroke="#000000" d="M837.0874,-295.6823C831.3013,-292.427 825.9314,-288.5209 821.2549,-283.8393 770.3658,-232.8953 832.974,-176.9404 781.2549,-126.8393 745.782,-92.476 712.7764,-131.7778 672.7549,-102.8393"/>
</g>
<!-- \\Firesphere\\SolrCompatibility\\Extensions\\DataObjectExtension -->
<g id="node5" class="node">
<title>\\Firesphere\\SolrCompatibility\\Extensions\\DataObjectExtension</title>
<polygon fill="none" stroke="#000000" points="999.2549,-274.8393 854.2549,-274.8393 854.2549,-238.8393 999.2549,-238.8393 999.2549,-274.8393"/>
<text text-anchor="middle" x="926.7549" y="-254.0393" font-family="Courier,monospace" font-size="11.00" fill="#000000">DataObjectExtension</text>
</g>
<!-- \\Firesphere\\SolrCompatibility\\Extensions\\DataObjectExtension&#45;&gt;\\SilverStripe\\Core\\Extension -->
<g id="edge4" class="edge">
<title>\\Firesphere\\SolrCompatibility\\Extensions\\DataObjectExtension&#45;&gt;\\SilverStripe\\Core\\Extension</title>
<path fill="none" stroke="#000000" d="M854.1042,-247.9791C842.1254,-243.923 830.591,-238.1183 821.2549,-229.8393 784.5121,-197.2567 818.5279,-158.8139 781.2549,-126.8393 743.7699,-94.6828 712.7764,-131.7778 672.7549,-102.8393"/>
</g>
<!-- \\Firesphere\\SolrCompatibility\\Extensions\\FulltextSearchExtension -->
<g id="node6" class="node">
<title>\\Firesphere\\SolrCompatibility\\Extensions\\FulltextSearchExtension</title>
<polygon fill="none" stroke="#000000" points="1012.7549,-220.8393 840.7549,-220.8393 840.7549,-184.8393 1012.7549,-184.8393 1012.7549,-220.8393"/>
<text text-anchor="middle" x="926.7549" y="-200.0393" font-family="Courier,monospace" font-size="11.00" fill="#000000">FulltextSearchExtension</text>
</g>
<!-- \\Firesphere\\SolrCompatibility\\Extensions\\FulltextSearchExtension&#45;&gt;\\SilverStripe\\Core\\Extension -->
<g id="edge5" class="edge">
<title>\\Firesphere\\SolrCompatibility\\Extensions\\FulltextSearchExtension&#45;&gt;\\SilverStripe\\Core\\Extension</title>
<path fill="none" stroke="#000000" d="M897.7118,-184.7332C869.069,-167.5951 823.5604,-142.2592 781.2549,-126.8393 734.8533,-109.9263 712.7764,-131.7778 672.7549,-102.8393"/>
<path fill="none" stroke="#000000" d="M672.7549,-102.8393C596.7726,-47.8985 493.6724,-26.7431 408.8031,-19.3992"/>
<polygon fill="none" stroke="#000000" points="409.0605,-15.9087 398.8107,-18.5906 408.4958,-22.8859 409.0605,-15.9087"/>
</g>
<!-- \\Firesphere\\SolrSearch\\States\\SiteState -->
<g id="node7" class="node">
<title>\\Firesphere\\SolrSearch\\States\\SiteState</title>
<polygon fill="none" stroke="#000000" points="714.7549,-2884.8393 630.7549,-2884.8393 630.7549,-2848.8393 714.7549,-2848.8393 714.7549,-2884.8393"/>
<text text-anchor="start" x="638.7549" y="-2870.0393" font-family="Courier,monospace" font-size="11.00" fill="#000000">«abstract»</text>
<text text-anchor="start" x="642.2549" y="-2858.0393" font-family="Courier,monospace" font-size="11.00" fill="#000000">SiteState</text>
</g>
<!-- \\Firesphere\\SolrSearch\\Admins\\SearchAdmin -->
<g id="node9" class="node">
<title>\\Firesphere\\SolrSearch\\Admins\\SearchAdmin</title>
<polygon fill="none" stroke="#000000" points="718.2549,-2428.8393 627.2549,-2428.8393 627.2549,-2392.8393 718.2549,-2392.8393 718.2549,-2428.8393"/>
<text text-anchor="middle" x="672.7549" y="-2408.0393" font-family="Courier,monospace" font-size="11.00" fill="#000000">SearchAdmin</text>
</g>
<!-- \\SilverStripe\\Admin\\ModelAdmin -->
<g id="node65" class="node">
<title>\\SilverStripe\\Admin\\ModelAdmin</title>
<ellipse fill="none" stroke="#000000" cx="254.1275" cy="-126.8393" rx="165.1707" ry="18"/>
<text text-anchor="middle" x="254.1275" y="-123.1393" font-family="Times,serif" font-size="14.00" fill="#c0c0c0">\SilverStripe\Admin\ModelAdmin</text>
</g>
<!-- \\Firesphere\\SolrSearch\\Admins\\SearchAdmin&#45;&gt;\\SilverStripe\\Admin\\ModelAdmin -->
<g id="edge6" class="edge">
<title>\\Firesphere\\SolrSearch\\Admins\\SearchAdmin&#45;&gt;\\SilverStripe\\Admin\\ModelAdmin</title>
<path fill="none" stroke="#000000" d="M627.0015,-2408.7667C606.9604,-2405.322 585.1194,-2397.5918 572.2549,-2380.8393 423.041,-2186.5293 666.6031,-363.7804 508.2549,-176.8393 487.8652,-152.7679 459.5652,-138.1349 429.2217,-129.5749"/>
<polygon fill="none" stroke="#000000" points="429.8639,-126.1258 419.3056,-127.0048 428.1076,-132.9019 429.8639,-126.1258"/>
</g>
<!-- \\Firesphere\\SolrSearch\\Extensions\\GridFieldExtension -->
<g id="node10" class="node">
<title>\\Firesphere\\SolrSearch\\Extensions\\GridFieldExtension</title>
<polygon fill="none" stroke="#000000" points="741.7549,-2294.8393 603.7549,-2294.8393 603.7549,-2258.8393 741.7549,-2258.8393 741.7549,-2294.8393"/>
<text text-anchor="middle" x="672.7549" y="-2274.0393" font-family="Courier,monospace" font-size="11.00" fill="#000000">GridFieldExtension</text>
</g>
<!-- \\Firesphere\\SolrSearch\\Extensions\\GridFieldExtension&#45;&gt;\\SilverStripe\\Core\\Extension -->
<g id="edge7" class="edge">
<title>\\Firesphere\\SolrSearch\\Extensions\\GridFieldExtension&#45;&gt;\\SilverStripe\\Core\\Extension</title>
<path fill="none" stroke="#000000" d="M603.751,-2268.6426C591.5244,-2264.0631 580.1845,-2257.165 572.2549,-2246.8393 423.2401,-2052.7966 674.4876,-225.3516 508.2549,-45.8393 466.3088,-.5423 394.8837,3.4901 338.4177,-2.2665"/>
<polygon fill="none" stroke="#000000" points="337.9592,1.204 328.4182,-3.4025 338.7494,-5.7512 337.9592,1.204"/>
</g>
<!-- \\Firesphere\\SolrSearch\\Extensions\\DataObjectExtension -->
<g id="node11" class="node">
<title>\\Firesphere\\SolrSearch\\Extensions\\DataObjectExtension</title>
<polygon fill="none" stroke="#000000" points="745.2549,-2348.8393 600.2549,-2348.8393 600.2549,-2312.8393 745.2549,-2312.8393 745.2549,-2348.8393"/>
<text text-anchor="middle" x="672.7549" y="-2328.0393" font-family="Courier,monospace" font-size="11.00" fill="#000000">DataObjectExtension</text>
</g>
<!-- \\SilverStripe\\ORM\\DataExtension -->
<g id="node66" class="node">
<title>\\SilverStripe\\ORM\\DataExtension</title>
<ellipse fill="none" stroke="#000000" cx="254.1275" cy="-72.8393" rx="167.8704" ry="18"/>
<text text-anchor="middle" x="254.1275" y="-69.1393" font-family="Times,serif" font-size="14.00" fill="#c0c0c0">\SilverStripe\ORM\DataExtension</text>
</g>
<!-- \\Firesphere\\SolrSearch\\Extensions\\DataObjectExtension&#45;&gt;\\SilverStripe\\ORM\\DataExtension -->
<g id="edge8" class="edge">
<title>\\Firesphere\\SolrSearch\\Extensions\\DataObjectExtension&#45;&gt;\\SilverStripe\\ORM\\DataExtension</title>
<path fill="none" stroke="#000000" d="M600.0545,-2323.3679C589.2886,-2319.1355 579.4232,-2312.9118 572.2549,-2303.8393 420.3712,-2111.609 674.7105,-279.5993 508.2549,-99.8393 467.3898,-55.7079 398.5434,-50.7441 342.8093,-55.8413"/>
<polygon fill="none" stroke="#000000" points="342.1507,-52.3907 332.5648,-56.9029 342.8724,-59.3534 342.1507,-52.3907"/>
</g>
<!-- \\Firesphere\\SolrSearch\\Models\\SearchSynonym -->
<g id="node12" class="node">
<title>\\Firesphere\\SolrSearch\\Models\\SearchSynonym</title>
<polygon fill="none" stroke="#000000" points="724.7549,-2804.8393 620.7549,-2804.8393 620.7549,-2768.8393 724.7549,-2768.8393 724.7549,-2804.8393"/>
<text text-anchor="middle" x="672.7549" y="-2784.0393" font-family="Courier,monospace" font-size="11.00" fill="#000000">SearchSynonym</text>
</g>
<!-- \\SilverStripe\\ORM\\DataObject -->
<g id="node67" class="node">
<title>\\SilverStripe\\ORM\\DataObject</title>
<ellipse fill="none" stroke="#000000" cx="254.1275" cy="-3694.8393" rx="152.9733" ry="18"/>
<text text-anchor="middle" x="254.1275" y="-3691.1393" font-family="Times,serif" font-size="14.00" fill="#c0c0c0">\SilverStripe\ORM\DataObject</text>
</g>
<!-- \\Firesphere\\SolrSearch\\Models\\SearchSynonym&#45;&gt;\\SilverStripe\\ORM\\DataObject -->
<g id="edge9" class="edge">
<title>\\Firesphere\\SolrSearch\\Models\\SearchSynonym&#45;&gt;\\SilverStripe\\ORM\\DataObject</title>
<path fill="none" stroke="#000000" d="M620.5169,-2801.0126C602.2916,-2808.6288 583.5815,-2820.0321 572.2549,-2836.8393 468.7477,-2990.4307 637.3089,-3534.9894 508.2549,-3667.8393 466.5644,-3710.756 398.2771,-3715.9497 342.9837,-3711.2546"/>
<polygon fill="none" stroke="#000000" points="343.1107,-3707.7506 332.8197,-3710.2697 342.4355,-3714.7179 343.1107,-3707.7506"/>
</g>
<!-- \\Firesphere\\SolrSearch\\Models\\DirtyClass -->
<g id="node13" class="node">
<title>\\Firesphere\\SolrSearch\\Models\\DirtyClass</title>
<polygon fill="none" stroke="#000000" points="714.7549,-2750.8393 630.7549,-2750.8393 630.7549,-2714.8393 714.7549,-2714.8393 714.7549,-2750.8393"/>
<text text-anchor="middle" x="672.7549" y="-2730.0393" font-family="Courier,monospace" font-size="11.00" fill="#000000">DirtyClass</text>
</g>
<!-- \\Firesphere\\SolrSearch\\Models\\DirtyClass&#45;&gt;\\SilverStripe\\ORM\\DataObject -->
<g id="edge10" class="edge">
<title>\\Firesphere\\SolrSearch\\Models\\DirtyClass&#45;&gt;\\SilverStripe\\ORM\\DataObject</title>
<path fill="none" stroke="#000000" d="M630.7523,-2733.276C609.9485,-2735.8451 586.3314,-2742.7613 572.2549,-2759.8393 443.5982,-2915.929 648.7275,-3522.2921 508.2549,-3667.8393 466.6315,-3710.9664 398.1708,-3716.0956 342.7879,-3711.3205"/>
<polygon fill="none" stroke="#000000" points="342.9026,-3707.815 332.6083,-3710.3206 342.2182,-3714.7815 342.9026,-3707.815"/>
</g>
<!-- \\Firesphere\\SolrSearch\\Models\\SolrLog -->
<g id="node14" class="node">
<title>\\Firesphere\\SolrSearch\\Models\\SolrLog</title>
<polygon fill="none" stroke="#000000" points="704.7549,-2696.8393 640.7549,-2696.8393 640.7549,-2660.8393 704.7549,-2660.8393 704.7549,-2696.8393"/>
<text text-anchor="middle" x="672.7549" y="-2676.0393" font-family="Courier,monospace" font-size="11.00" fill="#000000">SolrLog</text>
</g>
<!-- \\Firesphere\\SolrSearch\\Models\\SolrLog&#45;&gt;\\SilverStripe\\ORM\\DataObject -->
<g id="edge11" class="edge">
<title>\\Firesphere\\SolrSearch\\Models\\SolrLog&#45;&gt;\\SilverStripe\\ORM\\DataObject</title>
<path fill="none" stroke="#000000" d="M640.4003,-2678.337C617.6744,-2679.8721 588.5332,-2686.0106 572.2549,-2705.8393 436.3094,-2871.4353 656.7376,-3513.3851 508.2549,-3667.8393 466.6441,-3711.1235 398.0125,-3716.1907 342.5553,-3711.3501"/>
<polygon fill="none" stroke="#000000" points="342.66,-3707.8434 332.3631,-3710.338 341.9682,-3714.8091 342.66,-3707.8434"/>
</g>
<!-- \\SilverStripe\\Security\\PermissionProvider -->
<g id="node68" class="node">
<title>\\SilverStripe\\Security\\PermissionProvider</title>
<ellipse fill="none" stroke="#000000" cx="254.1275" cy="-3640.8393" rx="206.0634" ry="18"/>
<text text-anchor="middle" x="254.1275" y="-3637.1393" font-family="Times,serif" font-size="14.00" fill="#c0c0c0">\SilverStripe\Security\PermissionProvider</text>
</g>
<!-- \\Firesphere\\SolrSearch\\Models\\SolrLog&#45;&gt;\\SilverStripe\\Security\\PermissionProvider -->
<g id="edge12" class="edge">
<title>\\Firesphere\\SolrSearch\\Models\\SolrLog&#45;&gt;\\SilverStripe\\Security\\PermissionProvider</title>
<path fill="none" stroke="#000000" stroke-dasharray="1,5" d="M640.4235,-2678.3561C617.7091,-2679.9007 588.5722,-2686.0427 572.2549,-2705.8393 443.5982,-2861.929 648.7275,-3468.2921 508.2549,-3613.8393 468.744,-3654.7775 405.051,-3661.4771 351.3165,-3657.9674"/>
<polygon fill="none" stroke="#000000" points="351.302,-3654.4557 341.0603,-3657.168 350.758,-3661.4345 351.302,-3654.4557"/>
</g>
<!-- \\Firesphere\\SolrSearch\\Jobs\\ClearDirtyClassesJob -->
<g id="node15" class="node">
<title>\\Firesphere\\SolrSearch\\Jobs\\ClearDirtyClassesJob</title>
<polygon fill="none" stroke="#000000" points="748.7549,-2616.8393 596.7549,-2616.8393 596.7549,-2580.8393 748.7549,-2580.8393 748.7549,-2616.8393"/>
<text text-anchor="middle" x="672.7549" y="-2596.0393" font-family="Courier,monospace" font-size="11.00" fill="#000000">ClearDirtyClassesJob</text>
</g>
<!-- \\Symbiote\\QueuedJobs\\Services\\AbstractQueuedJob -->
<g id="node69" class="node">
<title>\\Symbiote\\QueuedJobs\\Services\\AbstractQueuedJob</title>
<ellipse fill="none" stroke="#000000" cx="254.1275" cy="-3586.8393" rx="254.255" ry="18"/>
<text text-anchor="middle" x="254.1275" y="-3583.1393" font-family="Times,serif" font-size="14.00" fill="#c0c0c0">\Symbiote\QueuedJobs\Services\AbstractQueuedJob</text>
</g>
<!-- \\Firesphere\\SolrSearch\\Jobs\\ClearDirtyClassesJob&#45;&gt;\\Symbiote\\QueuedJobs\\Services\\AbstractQueuedJob -->
<g id="edge13" class="edge">
<title>\\Firesphere\\SolrSearch\\Jobs\\ClearDirtyClassesJob&#45;&gt;\\Symbiote\\QueuedJobs\\Services\\AbstractQueuedJob</title>
<path fill="none" stroke="#000000" d="M611.7753,-2616.8885C596.4779,-2624.3411 581.7369,-2634.6667 572.2549,-2648.8393 459.406,-2817.514 649.1725,-3413.7973 508.2549,-3559.8393 470.0512,-3599.4323 409.229,-3607.0027 356.6658,-3604.2838"/>
<polygon fill="none" stroke="#000000" points="356.8185,-3600.7865 346.614,-3603.6358 356.368,-3607.772 356.8185,-3600.7865"/>
</g>
<!-- \\Firesphere\\SolrSearch\\Jobs\\SolrConfigureJob -->
<g id="node16" class="node">
<title>\\Firesphere\\SolrSearch\\Jobs\\SolrConfigureJob</title>
<polygon fill="none" stroke="#000000" points="735.2549,-2562.8393 610.2549,-2562.8393 610.2549,-2526.8393 735.2549,-2526.8393 735.2549,-2562.8393"/>
<text text-anchor="middle" x="672.7549" y="-2542.0393" font-family="Courier,monospace" font-size="11.00" fill="#000000">SolrConfigureJob</text>
</g>
<!-- \\Firesphere\\SolrSearch\\Jobs\\SolrConfigureJob&#45;&gt;\\Symbiote\\QueuedJobs\\Services\\AbstractQueuedJob -->
<g id="edge14" class="edge">
<title>\\Firesphere\\SolrSearch\\Jobs\\SolrConfigureJob&#45;&gt;\\Symbiote\\QueuedJobs\\Services\\AbstractQueuedJob</title>
<path fill="none" stroke="#000000" d="M610.1194,-2549.275C595.6654,-2553.3253 581.7596,-2560.241 572.2549,-2571.8393 432.7994,-2742.013 660.5949,-3401.096 508.2549,-3559.8393 469.9428,-3599.7618 408.6485,-3607.1949 355.8563,-3604.319"/>
<polygon fill="none" stroke="#000000" points="355.9758,-3600.8192 345.7635,-3603.6404 355.5061,-3607.8035 355.9758,-3600.8192"/>
</g>
<!-- \\Firesphere\\SolrSearch\\Jobs\\SolrIndexJob -->
<g id="node17" class="node">
<title>\\Firesphere\\SolrSearch\\Jobs\\SolrIndexJob</title>
<polygon fill="none" stroke="#000000" points="721.7549,-2508.8393 623.7549,-2508.8393 623.7549,-2472.8393 721.7549,-2472.8393 721.7549,-2508.8393"/>
<text text-anchor="middle" x="672.7549" y="-2488.0393" font-family="Courier,monospace" font-size="11.00" fill="#000000">SolrIndexJob</text>
</g>
<!-- \\Firesphere\\SolrSearch\\Jobs\\SolrIndexJob&#45;&gt;\\Symbiote\\QueuedJobs\\Services\\AbstractQueuedJob -->
<g id="edge15" class="edge">
<title>\\Firesphere\\SolrSearch\\Jobs\\SolrIndexJob&#45;&gt;\\Symbiote\\QueuedJobs\\Services\\AbstractQueuedJob</title>
<path fill="none" stroke="#000000" d="M623.7204,-2492.2358C604.7801,-2495.4281 584.7114,-2502.587 572.2549,-2517.8393 425.5086,-2697.5217 668.6072,-3392.1867 508.2549,-3559.8393 469.9375,-3599.9011 408.4861,-3607.2884 355.6108,-3604.3531"/>
<polygon fill="none" stroke="#000000" points="355.7181,-3600.8523 345.5028,-3603.6629 355.2411,-3607.8361 355.7181,-3600.8523"/>
</g>
<!-- \\Firesphere\\SolrSearch\\Traits\\QueryComponentBoostTrait -->
<g id="node18" class="node">
<title>\\Firesphere\\SolrSearch\\Traits\\QueryComponentBoostTrait</title>
<polygon fill="none" stroke="#000000" points="762.2549,-2214.8393 583.2549,-2214.8393 583.2549,-2178.8393 762.2549,-2178.8393 762.2549,-2214.8393"/>
<text text-anchor="middle" x="672.7549" y="-2194.0393" font-family="Courier,monospace" font-size="11.00" fill="#000000">QueryComponentBoostTrait</text>
</g>
<!-- \\Firesphere\\SolrSearch\\Traits\\QueryComponentFilterTrait -->
<g id="node19" class="node">
<title>\\Firesphere\\SolrSearch\\Traits\\QueryComponentFilterTrait</title>
<polygon fill="none" stroke="#000000" points="765.2549,-2160.8393 580.2549,-2160.8393 580.2549,-2124.8393 765.2549,-2124.8393 765.2549,-2160.8393"/>
<text text-anchor="middle" x="672.7549" y="-2140.0393" font-family="Courier,monospace" font-size="11.00" fill="#000000">QueryComponentFilterTrait</text>
</g>
<!-- \\Firesphere\\SolrSearch\\Traits\\QueryComponentFacetTrait -->
<g id="node20" class="node">
<title>\\Firesphere\\SolrSearch\\Traits\\QueryComponentFacetTrait</title>
<polygon fill="none" stroke="#000000" points="762.2549,-2106.8393 583.2549,-2106.8393 583.2549,-2070.8393 762.2549,-2070.8393 762.2549,-2106.8393"/>
<text text-anchor="middle" x="672.7549" y="-2086.0393" font-family="Courier,monospace" font-size="11.00" fill="#000000">QueryComponentFacetTrait</text>
</g>
<!-- \\Firesphere\\SolrSearch\\Traits\\CoreAdminTrait -->
<g id="node21" class="node">
<title>\\Firesphere\\SolrSearch\\Traits\\CoreAdminTrait</title>
<polygon fill="none" stroke="#000000" points="728.2549,-2052.8393 617.2549,-2052.8393 617.2549,-2016.8393 728.2549,-2016.8393 728.2549,-2052.8393"/>
<text text-anchor="middle" x="672.7549" y="-2032.0393" font-family="Courier,monospace" font-size="11.00" fill="#000000">CoreAdminTrait</text>
</g>
<!-- \\Firesphere\\SolrSearch\\Traits\\CoreServiceTrait -->
<g id="node22" class="node">
<title>\\Firesphere\\SolrSearch\\Traits\\CoreServiceTrait</title>
<polygon fill="none" stroke="#000000" points="735.2549,-1998.8393 610.2549,-1998.8393 610.2549,-1962.8393 735.2549,-1962.8393 735.2549,-1998.8393"/>
<text text-anchor="middle" x="672.7549" y="-1978.0393" font-family="Courier,monospace" font-size="11.00" fill="#000000">CoreServiceTrait</text>
</g>
<!-- \\Firesphere\\SolrSearch\\Traits\\GetSetSchemaFactoryTrait -->
<g id="node23" class="node">
<title>\\Firesphere\\SolrSearch\\Traits\\GetSetSchemaFactoryTrait</title>
<polygon fill="none" stroke="#000000" points="762.2549,-1944.8393 583.2549,-1944.8393 583.2549,-1908.8393 762.2549,-1908.8393 762.2549,-1944.8393"/>
<text text-anchor="middle" x="672.7549" y="-1924.0393" font-family="Courier,monospace" font-size="11.00" fill="#000000">GetSetSchemaFactoryTrait</text>
</g>
<!-- \\Firesphere\\SolrSearch\\Traits\\DocumentFactoryTrait -->
<g id="node24" class="node">
<title>\\Firesphere\\SolrSearch\\Traits\\DocumentFactoryTrait</title>
<polygon fill="none" stroke="#000000" points="748.7549,-1890.8393 596.7549,-1890.8393 596.7549,-1854.8393 748.7549,-1854.8393 748.7549,-1890.8393"/>
<text text-anchor="middle" x="672.7549" y="-1870.0393" font-family="Courier,monospace" font-size="11.00" fill="#000000">DocumentFactoryTrait</text>
</g>
<!-- \\Firesphere\\SolrSearch\\Traits\\SearchResultSetTrait -->
<g id="node25" class="node">
<title>\\Firesphere\\SolrSearch\\Traits\\SearchResultSetTrait</title>
<polygon fill="none" stroke="#000000" points="748.7549,-1836.8393 596.7549,-1836.8393 596.7549,-1800.8393 748.7549,-1800.8393 748.7549,-1836.8393"/>
<text text-anchor="middle" x="672.7549" y="-1816.0393" font-family="Courier,monospace" font-size="11.00" fill="#000000">SearchResultSetTrait</text>
</g>
<!-- \\Firesphere\\SolrSearch\\Traits\\SearchResultGetTrait -->
<g id="node26" class="node">
<title>\\Firesphere\\SolrSearch\\Traits\\SearchResultGetTrait</title>
<polygon fill="none" stroke="#000000" points="748.7549,-1782.8393 596.7549,-1782.8393 596.7549,-1746.8393 748.7549,-1746.8393 748.7549,-1782.8393"/>
<text text-anchor="middle" x="672.7549" y="-1762.0393" font-family="Courier,monospace" font-size="11.00" fill="#000000">SearchResultGetTrait</text>
</g>
<!-- \\Firesphere\\SolrSearch\\Traits\\BaseQueryTrait -->
<g id="node27" class="node">
<title>\\Firesphere\\SolrSearch\\Traits\\BaseQueryTrait</title>
<polygon fill="none" stroke="#000000" points="728.2549,-1728.8393 617.2549,-1728.8393 617.2549,-1692.8393 728.2549,-1692.8393 728.2549,-1728.8393"/>
<text text-anchor="middle" x="672.7549" y="-1708.0393" font-family="Courier,monospace" font-size="11.00" fill="#000000">BaseQueryTrait</text>
</g>
<!-- \\Firesphere\\SolrSearch\\Traits\\GetterSetterTrait -->
<g id="node28" class="node">
<title>\\Firesphere\\SolrSearch\\Traits\\GetterSetterTrait</title>
<polygon fill="none" stroke="#000000" points="738.2549,-1674.8393 607.2549,-1674.8393 607.2549,-1638.8393 738.2549,-1638.8393 738.2549,-1674.8393"/>
<text text-anchor="middle" x="672.7549" y="-1654.0393" font-family="Courier,monospace" font-size="11.00" fill="#000000">GetterSetterTrait</text>
</g>
<!-- \\Firesphere\\SolrSearch\\Traits\\GetSetSearchResolverTrait -->
<g id="node29" class="node">
<title>\\Firesphere\\SolrSearch\\Traits\\GetSetSearchResolverTrait</title>
<polygon fill="none" stroke="#000000" points="765.2549,-1620.8393 580.2549,-1620.8393 580.2549,-1584.8393 765.2549,-1584.8393 765.2549,-1620.8393"/>
<text text-anchor="middle" x="672.7549" y="-1600.0393" font-family="Courier,monospace" font-size="11.00" fill="#000000">GetSetSearchResolverTrait</text>
</g>
<!-- \\Firesphere\\SolrSearch\\Traits\\BaseIndexTrait -->
<g id="node30" class="node">
<title>\\Firesphere\\SolrSearch\\Traits\\BaseIndexTrait</title>
<polygon fill="none" stroke="#000000" points="728.2549,-1566.8393 617.2549,-1566.8393 617.2549,-1530.8393 728.2549,-1530.8393 728.2549,-1566.8393"/>
<text text-anchor="middle" x="672.7549" y="-1546.0393" font-family="Courier,monospace" font-size="11.00" fill="#000000">BaseIndexTrait</text>
</g>
<!-- \\Firesphere\\SolrSearch\\Traits\\SolrIndexTrait -->
<g id="node31" class="node">
<title>\\Firesphere\\SolrSearch\\Traits\\SolrIndexTrait</title>
<polygon fill="none" stroke="#000000" points="728.2549,-1512.8393 617.2549,-1512.8393 617.2549,-1476.8393 728.2549,-1476.8393 728.2549,-1512.8393"/>
<text text-anchor="middle" x="672.7549" y="-1492.0393" font-family="Courier,monospace" font-size="11.00" fill="#000000">SolrIndexTrait</text>
</g>
<!-- \\Firesphere\\SolrSearch\\Traits\\LoggerTrait -->
<g id="node32" class="node">
<title>\\Firesphere\\SolrSearch\\Traits\\LoggerTrait</title>
<polygon fill="none" stroke="#000000" points="718.2549,-1458.8393 627.2549,-1458.8393 627.2549,-1422.8393 718.2549,-1422.8393 718.2549,-1458.8393"/>
<text text-anchor="middle" x="672.7549" y="-1438.0393" font-family="Courier,monospace" font-size="11.00" fill="#000000">LoggerTrait</text>
</g>
<!-- \\Firesphere\\SolrSearch\\Traits\\DataResolveTrait -->
<g id="node33" class="node">
<title>\\Firesphere\\SolrSearch\\Traits\\DataResolveTrait</title>
<polygon fill="none" stroke="#000000" points="735.2549,-1404.8393 610.2549,-1404.8393 610.2549,-1368.8393 735.2549,-1368.8393 735.2549,-1404.8393"/>
<text text-anchor="middle" x="672.7549" y="-1384.0393" font-family="Courier,monospace" font-size="11.00" fill="#000000">DataResolveTrait</text>
</g>
<!-- \\Firesphere\\SolrSearch\\Factories\\SchemaFactory -->
<g id="node34" class="node">
<title>\\Firesphere\\SolrSearch\\Factories\\SchemaFactory</title>
<polygon fill="none" stroke="#000000" points="724.7549,-1324.8393 620.7549,-1324.8393 620.7549,-1288.8393 724.7549,-1288.8393 724.7549,-1324.8393"/>
<text text-anchor="middle" x="672.7549" y="-1304.0393" font-family="Courier,monospace" font-size="11.00" fill="#000000">SchemaFactory</text>
</g>
<!-- \\SilverStripe\\View\\ViewableData -->
<g id="node70" class="node">
<title>\\SilverStripe\\View\\ViewableData</title>
<ellipse fill="none" stroke="#000000" cx="254.1275" cy="-3532.8393" rx="163.2712" ry="18"/>
<text text-anchor="middle" x="254.1275" y="-3529.1393" font-family="Times,serif" font-size="14.00" fill="#c0c0c0">\SilverStripe\View\ViewableData</text>
</g>
<!-- \\Firesphere\\SolrSearch\\Factories\\SchemaFactory&#45;&gt;\\SilverStripe\\View\\ViewableData -->
<g id="edge16" class="edge">
<title>\\Firesphere\\SolrSearch\\Factories\\SchemaFactory&#45;&gt;\\SilverStripe\\View\\ViewableData</title>
<path fill="none" stroke="#000000" d="M620.6222,-1320.5178C602.1771,-1328.098 583.2877,-1339.606 572.2549,-1356.8393 443.4549,-1558.0257 670.6252,-3330.6215 508.2549,-3505.8393 467.2315,-3550.1086 398.0496,-3554.9542 342.2184,-3549.7738"/>
<polygon fill="none" stroke="#000000" points="342.2694,-3546.26 331.9586,-3548.6971 341.5387,-3553.2218 342.2694,-3546.26"/>
</g>
<!-- \\Firesphere\\SolrSearch\\Factories\\QueryComponentFactory -->
<g id="node35" class="node">
<title>\\Firesphere\\SolrSearch\\Factories\\QueryComponentFactory</title>
<polygon fill="none" stroke="#000000" points="751.7549,-1270.8393 593.7549,-1270.8393 593.7549,-1234.8393 751.7549,-1234.8393 751.7549,-1270.8393"/>
<text text-anchor="middle" x="672.7549" y="-1250.0393" font-family="Courier,monospace" font-size="11.00" fill="#000000">QueryComponentFactory</text>
</g>
<!-- \\Firesphere\\SolrSearch\\Factories\\DocumentFactory -->
<g id="node36" class="node">
<title>\\Firesphere\\SolrSearch\\Factories\\DocumentFactory</title>
<polygon fill="none" stroke="#000000" points="731.7549,-1216.8393 613.7549,-1216.8393 613.7549,-1180.8393 731.7549,-1180.8393 731.7549,-1216.8393"/>
<text text-anchor="middle" x="672.7549" y="-1196.0393" font-family="Courier,monospace" font-size="11.00" fill="#000000">DocumentFactory</text>
</g>
<!-- \\Firesphere\\SolrSearch\\Interfaces\\SiteStateInterface -->
<g id="node38" class="node">
<title>\\Firesphere\\SolrSearch\\Interfaces\\SiteStateInterface</title>
<polygon fill="none" stroke="#000000" points="323.1275,-224.8393 185.1275,-224.8393 185.1275,-188.8393 323.1275,-188.8393 323.1275,-224.8393"/>
<text text-anchor="middle" x="254.1275" y="-204.0393" font-family="Courier,monospace" font-size="11.00" fill="#000000">SiteStateInterface</text>
</g>
<!-- \\Firesphere\\SolrSearch\\Interfaces\\ConfigStore -->
<g id="node39" class="node">
<title>\\Firesphere\\SolrSearch\\Interfaces\\ConfigStore</title>
<polygon fill="none" stroke="#000000" points="299.6275,-278.8393 208.6275,-278.8393 208.6275,-242.8393 299.6275,-242.8393 299.6275,-278.8393"/>
<text text-anchor="middle" x="254.1275" y="-258.0393" font-family="Courier,monospace" font-size="11.00" fill="#000000">ConfigStore</text>
</g>
<!-- \\Firesphere\\SolrSearch\\Helpers\\FieldResolver -->
<g id="node40" class="node">
<title>\\Firesphere\\SolrSearch\\Helpers\\FieldResolver</title>
<polygon fill="none" stroke="#000000" points="724.7549,-1056.8393 620.7549,-1056.8393 620.7549,-1020.8393 724.7549,-1020.8393 724.7549,-1056.8393"/>
<text text-anchor="middle" x="672.7549" y="-1036.0393" font-family="Courier,monospace" font-size="11.00" fill="#000000">FieldResolver</text>
</g>
<!-- \\Firesphere\\SolrSearch\\Helpers\\SolrLogger -->
<g id="node41" class="node">
<title>\\Firesphere\\SolrSearch\\Helpers\\SolrLogger</title>
<polygon fill="none" stroke="#000000" points="714.7549,-1002.8393 630.7549,-1002.8393 630.7549,-966.8393 714.7549,-966.8393 714.7549,-1002.8393"/>
<text text-anchor="middle" x="672.7549" y="-982.0393" font-family="Courier,monospace" font-size="11.00" fill="#000000">SolrLogger</text>
</g>
<!-- \\Firesphere\\SolrSearch\\Helpers\\Statics -->
<g id="node42" class="node">
<title>\\Firesphere\\SolrSearch\\Helpers\\Statics</title>
<polygon fill="none" stroke="#000000" points="704.7549,-948.8393 640.7549,-948.8393 640.7549,-912.8393 704.7549,-912.8393 704.7549,-948.8393"/>
<text text-anchor="middle" x="672.7549" y="-928.0393" font-family="Courier,monospace" font-size="11.00" fill="#000000">Statics</text>
</g>
<!-- \\Firesphere\\SolrSearch\\Helpers\\DataResolver -->
<g id="node43" class="node">
<title>\\Firesphere\\SolrSearch\\Helpers\\DataResolver</title>
<polygon fill="none" stroke="#000000" points="721.7549,-894.8393 623.7549,-894.8393 623.7549,-858.8393 721.7549,-858.8393 721.7549,-894.8393"/>
<text text-anchor="middle" x="672.7549" y="-874.0393" font-family="Courier,monospace" font-size="11.00" fill="#000000">DataResolver</text>
</g>
<!-- \\Firesphere\\SolrSearch\\Helpers\\Synonyms -->
<g id="node44" class="node">
<title>\\Firesphere\\SolrSearch\\Helpers\\Synonyms</title>
<polygon fill="none" stroke="#000000" points="708.2549,-840.8393 637.2549,-840.8393 637.2549,-804.8393 708.2549,-804.8393 708.2549,-840.8393"/>
<text text-anchor="middle" x="672.7549" y="-820.0393" font-family="Courier,monospace" font-size="11.00" fill="#000000">Synonyms</text>
</g>
<!-- \\Firesphere\\SolrSearch\\Services\\SolrCoreService -->
<g id="node45" class="node">
<title>\\Firesphere\\SolrSearch\\Services\\SolrCoreService</title>
<polygon fill="none" stroke="#000000" points="731.7549,-760.8393 613.7549,-760.8393 613.7549,-724.8393 731.7549,-724.8393 731.7549,-760.8393"/>
<text text-anchor="middle" x="672.7549" y="-740.0393" font-family="Courier,monospace" font-size="11.00" fill="#000000">SolrCoreService</text>
</g>
<!-- \\Firesphere\\SolrSearch\\Results\\SearchResult -->
<g id="node46" class="node">
<title>\\Firesphere\\SolrSearch\\Results\\SearchResult</title>
<polygon fill="none" stroke="#000000" points="721.7549,-680.8393 623.7549,-680.8393 623.7549,-644.8393 721.7549,-644.8393 721.7549,-680.8393"/>
<text text-anchor="middle" x="672.7549" y="-660.0393" font-family="Courier,monospace" font-size="11.00" fill="#000000">SearchResult</text>
</g>
<!-- \\Firesphere\\SolrSearch\\Results\\SearchResult&#45;&gt;\\SilverStripe\\View\\ViewableData -->
<g id="edge17" class="edge">
<title>\\Firesphere\\SolrSearch\\Results\\SearchResult&#45;&gt;\\SilverStripe\\View\\ViewableData</title>
<path fill="none" stroke="#000000" d="M623.7181,-675.2181C604.2906,-682.7562 583.8556,-694.5813 572.2549,-712.8393 489.02,-843.8404 613.3589,-3391.6356 508.2549,-3505.8393 467.2422,-3550.4028 397.713,-3555.1188 341.7391,-3549.8118"/>
<polygon fill="none" stroke="#000000" points="341.7708,-3546.2953 331.4552,-3548.7116 341.0261,-3553.2556 341.7708,-3546.2953"/>
</g>
<!-- \\Firesphere\\SolrSearch\\Forms\\SearchForm -->
<g id="node47" class="node">
<title>\\Firesphere\\SolrSearch\\Forms\\SearchForm</title>
<polygon fill="none" stroke="#000000" points="714.7549,-600.8393 630.7549,-600.8393 630.7549,-564.8393 714.7549,-564.8393 714.7549,-600.8393"/>
<text text-anchor="middle" x="672.7549" y="-580.0393" font-family="Courier,monospace" font-size="11.00" fill="#000000">SearchForm</text>
</g>
<!-- \\SilverStripe\\Forms\\Form -->
<g id="node71" class="node">
<title>\\SilverStripe\\Forms\\Form</title>
<ellipse fill="none" stroke="#000000" cx="254.1275" cy="-3478.8393" rx="129.1772" ry="18"/>
<text text-anchor="middle" x="254.1275" y="-3475.1393" font-family="Times,serif" font-size="14.00" fill="#c0c0c0">\SilverStripe\Forms\Form</text>
</g>
<!-- \\Firesphere\\SolrSearch\\Forms\\SearchForm&#45;&gt;\\SilverStripe\\Forms\\Form -->
<g id="edge18" class="edge">
<title>\\Firesphere\\SolrSearch\\Forms\\SearchForm&#45;&gt;\\SilverStripe\\Forms\\Form</title>
<path fill="none" stroke="#000000" d="M630.7423,-592.653C609.3898,-599.9736 585.2643,-612.3594 572.2549,-632.8393 488.2595,-765.0681 614.3246,-3336.5618 508.2549,-3451.8393 465.6031,-3498.1936 392.0974,-3501.4369 335.079,-3495.1299"/>
<polygon fill="none" stroke="#000000" points="335.3479,-3491.6368 324.9972,-3493.8979 334.4987,-3498.5851 335.3479,-3491.6368"/>
</g>
<!-- \\Firesphere\\SolrSearch\\Stores\\FileConfigStore -->
<g id="node48" class="node">
<title>\\Firesphere\\SolrSearch\\Stores\\FileConfigStore</title>
<polygon fill="none" stroke="#000000" points="731.7549,-278.8393 613.7549,-278.8393 613.7549,-242.8393 731.7549,-242.8393 731.7549,-278.8393"/>
<text text-anchor="middle" x="672.7549" y="-258.0393" font-family="Courier,monospace" font-size="11.00" fill="#000000">FileConfigStore</text>
</g>
<!-- \\Firesphere\\SolrSearch\\Stores\\FileConfigStore&#45;&gt;\\Firesphere\\SolrSearch\\Interfaces\\ConfigStore -->
<g id="edge19" class="edge">
<title>\\Firesphere\\SolrSearch\\Stores\\FileConfigStore&#45;&gt;\\Firesphere\\SolrSearch\\Interfaces\\ConfigStore</title>
<path fill="none" stroke="#000000" stroke-dasharray="1,5" d="M613.6637,-260.8393C532.8854,-260.8393 389.0185,-260.8393 309.9722,-260.8393"/>
<polygon fill="none" stroke="#000000" points="309.7288,-257.3394 299.7287,-260.8393 309.7287,-264.3394 309.7288,-257.3394"/>
</g>
<!-- \\Firesphere\\SolrSearch\\Stores\\PostConfigStore -->
<g id="node49" class="node">
<title>\\Firesphere\\SolrSearch\\Stores\\PostConfigStore</title>
<polygon fill="none" stroke="#000000" points="731.7549,-224.8393 613.7549,-224.8393 613.7549,-188.8393 731.7549,-188.8393 731.7549,-224.8393"/>
<text text-anchor="middle" x="672.7549" y="-204.0393" font-family="Courier,monospace" font-size="11.00" fill="#000000">PostConfigStore</text>
</g>
<!-- \\Firesphere\\SolrSearch\\Stores\\PostConfigStore&#45;&gt;\\Firesphere\\SolrSearch\\Interfaces\\ConfigStore -->
<g id="edge20" class="edge">
<title>\\Firesphere\\SolrSearch\\Stores\\PostConfigStore&#45;&gt;\\Firesphere\\SolrSearch\\Interfaces\\ConfigStore</title>
<path fill="none" stroke="#000000" stroke-dasharray="1,5" d="M613.4867,-217.4028C582.2454,-222.7593 543.2453,-229.1128 508.2549,-233.8393 440.1774,-243.0351 361.4881,-250.984 309.9264,-255.8305"/>
<polygon fill="none" stroke="#000000" points="309.2998,-252.3737 299.6682,-256.7874 309.95,-259.3434 309.2998,-252.3737"/>
</g>
<!-- \\Firesphere\\SolrSearch\\Tasks\\ClearErrorsTask -->
<g id="node50" class="node">
<title>\\Firesphere\\SolrSearch\\Tasks\\ClearErrorsTask</title>
<polygon fill="none" stroke="#000000" points="731.7549,-412.8393 613.7549,-412.8393 613.7549,-376.8393 731.7549,-376.8393 731.7549,-412.8393"/>
<text text-anchor="middle" x="672.7549" y="-392.0393" font-family="Courier,monospace" font-size="11.00" fill="#000000">ClearErrorsTask</text>
</g>
<!-- \\SilverStripe\\Dev\\BuildTask -->
<g id="node72" class="node">
<title>\\SilverStripe\\Dev\\BuildTask</title>
<ellipse fill="none" stroke="#000000" cx="254.1275" cy="-3424.8393" rx="139.9756" ry="18"/>
<text text-anchor="middle" x="254.1275" y="-3421.1393" font-family="Times,serif" font-size="14.00" fill="#c0c0c0">\SilverStripe\Dev\BuildTask</text>
</g>
<!-- \\Firesphere\\SolrSearch\\Tasks\\ClearErrorsTask&#45;&gt;\\SilverStripe\\Dev\\BuildTask -->
<g id="edge21" class="edge">
<title>\\Firesphere\\SolrSearch\\Tasks\\ClearErrorsTask&#45;&gt;\\SilverStripe\\Dev\\BuildTask</title>
<path fill="none" stroke="#000000" d="M613.5827,-398.71C598.0275,-402.6249 582.6986,-409.6134 572.2549,-421.8393 367.3851,-661.6714 266.5617,-3104.3831 255.2111,-3396.3507"/>
<polygon fill="none" stroke="#000000" points="251.7063,-3396.4098 254.8176,-3406.5375 258.7011,-3396.6801 251.7063,-3396.4098"/>
</g>
<!-- \\Firesphere\\SolrSearch\\Tasks\\ClearDirtyClassesTask -->
<g id="node51" class="node">
<title>\\Firesphere\\SolrSearch\\Tasks\\ClearDirtyClassesTask</title>
<polygon fill="none" stroke="#000000" points="751.7549,-358.8393 593.7549,-358.8393 593.7549,-322.8393 751.7549,-322.8393 751.7549,-358.8393"/>
<text text-anchor="middle" x="672.7549" y="-338.0393" font-family="Courier,monospace" font-size="11.00" fill="#000000">ClearDirtyClassesTask</text>
</g>
<!-- \\Firesphere\\SolrSearch\\Tasks\\ClearDirtyClassesTask&#45;&gt;\\SilverStripe\\Dev\\BuildTask -->
<g id="edge22" class="edge">
<title>\\Firesphere\\SolrSearch\\Tasks\\ClearDirtyClassesTask&#45;&gt;\\SilverStripe\\Dev\\BuildTask</title>
<path fill="none" stroke="#000000" d="M593.6438,-351.7987C585.521,-355.7466 578.1158,-360.9654 572.2549,-367.8393 363.8608,-612.2547 266.0517,-3101.1889 255.1575,-3396.2955"/>
<polygon fill="none" stroke="#000000" points="251.6492,-3396.4602 254.7803,-3406.5818 258.6445,-3396.7168 251.6492,-3396.4602"/>
</g>
<!-- \\Firesphere\\SolrSearch\\Tasks\\SolrIndexTask -->
<g id="node52" class="node">
<title>\\Firesphere\\SolrSearch\\Tasks\\SolrIndexTask</title>
<polygon fill="none" stroke="#000000" points="724.7549,-520.8393 620.7549,-520.8393 620.7549,-484.8393 724.7549,-484.8393 724.7549,-520.8393"/>
<text text-anchor="middle" x="672.7549" y="-500.0393" font-family="Courier,monospace" font-size="11.00" fill="#000000">SolrIndexTask</text>
</g>
<!-- \\Firesphere\\SolrSearch\\Tasks\\SolrIndexTask&#45;&gt;\\SilverStripe\\Dev\\BuildTask -->
<g id="edge23" class="edge">
<title>\\Firesphere\\SolrSearch\\Tasks\\SolrIndexTask&#45;&gt;\\SilverStripe\\Dev\\BuildTask</title>
<path fill="none" stroke="#000000" d="M620.5501,-517.3259C602.4433,-524.966 583.8052,-536.3038 572.2549,-552.8393 399.6824,-799.8949 270.7942,-3113.4802 255.6249,-3396.5099"/>
<polygon fill="none" stroke="#000000" points="252.116,-3396.5842 255.078,-3406.7565 259.1061,-3396.9573 252.116,-3396.5842"/>
</g>
<!-- \\Firesphere\\SolrSearch\\Tasks\\SolrConfigureTask -->
<g id="node53" class="node">
<title>\\Firesphere\\SolrSearch\\Tasks\\SolrConfigureTask</title>
<polygon fill="none" stroke="#000000" points="738.2549,-466.8393 607.2549,-466.8393 607.2549,-430.8393 738.2549,-430.8393 738.2549,-466.8393"/>
<text text-anchor="middle" x="672.7549" y="-446.0393" font-family="Courier,monospace" font-size="11.00" fill="#000000">SolrConfigureTask</text>
</g>
<!-- \\Firesphere\\SolrSearch\\Tasks\\SolrConfigureTask&#45;&gt;\\SilverStripe\\Dev\\BuildTask -->
<g id="edge24" class="edge">
<title>\\Firesphere\\SolrSearch\\Tasks\\SolrConfigureTask&#45;&gt;\\SilverStripe\\Dev\\BuildTask</title>
<path fill="none" stroke="#000000" d="M607.0697,-454.5601C593.8321,-458.7034 581.2418,-465.3391 572.2549,-475.8393 370.9053,-711.0932 267.0778,-3107.6683 255.2661,-3396.4186"/>
<polygon fill="none" stroke="#000000" points="251.7653,-3396.3688 254.8561,-3406.5028 258.7595,-3396.6532 251.7653,-3396.3688"/>
</g>
<!-- \\Firesphere\\SolrFluent\\States\\FluentSiteState -->
<g id="node54" class="node">
<title>\\Firesphere\\SolrFluent\\States\\FluentSiteState</title>
<polygon fill="none" stroke="#000000" points="985.7549,-910.8393 867.7549,-910.8393 867.7549,-874.8393 985.7549,-874.8393 985.7549,-910.8393"/>
<text text-anchor="middle" x="926.7549" y="-890.0393" font-family="Courier,monospace" font-size="11.00" fill="#000000">FluentSiteState</text>
</g>
<!-- \\Firesphere\\SolrFluent\\States\\FluentSiteState&#45;&gt;\\Firesphere\\SolrSearch\\States\\SiteState -->
<g id="edge25" class="edge">
<title>\\Firesphere\\SolrFluent\\States\\FluentSiteState&#45;&gt;\\Firesphere\\SolrSearch\\States\\SiteState</title>
<path fill="none" stroke="#000000" d="M891.383,-910.8744C866.8269,-925.5239 835.977,-948.6862 821.2549,-978.8393 775.9563,-1071.6175 844.6613,-2755.3568 781.2549,-2836.8393 767.9492,-2853.9381 745.8207,-2861.8537 725.0059,-2865.333"/>
<polygon fill="none" stroke="#000000" points="724.3733,-2861.8868 714.9377,-2866.7054 725.3188,-2868.8226 724.3733,-2861.8868"/>
</g>
<!-- \\Firesphere\\SolrFluent\\States\\FluentSiteState&#45;&gt;\\Firesphere\\SolrSearch\\Interfaces\\SiteStateInterface -->
<g id="edge26" class="edge">
<title>\\Firesphere\\SolrFluent\\States\\FluentSiteState&#45;&gt;\\Firesphere\\SolrSearch\\Interfaces\\SiteStateInterface</title>
<path fill="none" stroke="#000000" stroke-dasharray="1,5" d="M867.4876,-888.9116C850.0199,-884.7205 832.5734,-876.951 821.2549,-862.8393 725.7123,-743.7178 888.8981,-285.1502 781.2549,-176.8393 764.2232,-159.702 692.8139,-183.3078 672.7549,-169.8393"/>
<path fill="none" stroke="#000000" stroke-dasharray="1,5" d="M672.7549,-169.8393C645.303,-151.4069 446.8154,-177.6323 333.2851,-194.5119"/>
<polygon fill="none" stroke="#000000" points="332.6173,-191.0728 323.2449,-196.0132 333.6526,-197.9958 332.6173,-191.0728"/>
</g>
<!-- \\Firesphere\\SolrFluent\\Extensions\\FluentIndexExtension -->
<g id="node55" class="node">
<title>\\Firesphere\\SolrFluent\\Extensions\\FluentIndexExtension</title>
<polygon fill="none" stroke="#000000" points="1002.7549,-722.8393 850.7549,-722.8393 850.7549,-686.8393 1002.7549,-686.8393 1002.7549,-722.8393"/>
<text text-anchor="middle" x="926.7549" y="-702.0393" font-family="Courier,monospace" font-size="11.00" fill="#000000">FluentIndexExtension</text>
</g>
<!-- \\Firesphere\\SolrFluent\\Extensions\\FluentIndexExtension&#45;&gt;\\SilverStripe\\Core\\Extension -->
<g id="edge27" class="edge">
<title>\\Firesphere\\SolrFluent\\Extensions\\FluentIndexExtension&#45;&gt;\\SilverStripe\\Core\\Extension</title>
<path fill="none" stroke="#000000" d="M879.1415,-686.815C857.7901,-676.1895 834.4799,-660.5079 821.2549,-638.8393 711.1151,-458.3796 894.9709,-343.0671 781.2549,-164.8393 751.3811,-118.0179 717.7618,-135.3826 672.7549,-102.8393"/>
</g>
<!-- \\Firesphere\\SolrFluent\\Extensions\\FluentDocumentExtension -->
<g id="node56" class="node">
<title>\\Firesphere\\SolrFluent\\Extensions\\FluentDocumentExtension</title>
<polygon fill="none" stroke="#000000" points="1012.7549,-830.8393 840.7549,-830.8393 840.7549,-794.8393 1012.7549,-794.8393 1012.7549,-830.8393"/>
<text text-anchor="middle" x="926.7549" y="-810.0393" font-family="Courier,monospace" font-size="11.00" fill="#000000">FluentDocumentExtension</text>
</g>
<!-- \\Firesphere\\SolrFluent\\Extensions\\FluentDocumentExtension&#45;&gt;\\SilverStripe\\Core\\Extension -->
<g id="edge28" class="edge">
<title>\\Firesphere\\SolrFluent\\Extensions\\FluentDocumentExtension&#45;&gt;\\SilverStripe\\Core\\Extension</title>
<path fill="none" stroke="#000000" d="M840.7065,-801.2649C833.3161,-797.3565 826.6251,-792.3157 821.2549,-785.8393 732.9871,-679.3883 854.4745,-282.1504 781.2549,-164.8393 751.8476,-117.7234 717.7618,-135.3826 672.7549,-102.8393"/>
</g>
<!-- \\Firesphere\\SolrFluent\\Extensions\\FluentSchemaExtension -->
<g id="node57" class="node">
<title>\\Firesphere\\SolrFluent\\Extensions\\FluentSchemaExtension</title>
<polygon fill="none" stroke="#000000" points="1005.7549,-776.8393 847.7549,-776.8393 847.7549,-740.8393 1005.7549,-740.8393 1005.7549,-776.8393"/>
<text text-anchor="middle" x="926.7549" y="-756.0393" font-family="Courier,monospace" font-size="11.00" fill="#000000">FluentSchemaExtension</text>
</g>
<!-- \\Firesphere\\SolrFluent\\Extensions\\FluentSchemaExtension&#45;&gt;\\SilverStripe\\Core\\Extension -->
<g id="edge29" class="edge">
<title>\\Firesphere\\SolrFluent\\Extensions\\FluentSchemaExtension&#45;&gt;\\SilverStripe\\Core\\Extension</title>
<path fill="none" stroke="#000000" d="M847.6545,-750.4794C837.5372,-746.2496 828.28,-740.2591 821.2549,-731.8393 740.3328,-634.8515 848.462,-271.7889 781.2549,-164.8393 751.7039,-117.8135 717.7618,-135.3826 672.7549,-102.8393"/>
</g>
<!-- \\Firesphere\\SolrSubsites\\States\\SubsiteState -->
<g id="node58" class="node">
<title>\\Firesphere\\SolrSubsites\\States\\SubsiteState</title>
<polygon fill="none" stroke="#000000" points="975.7549,-1106.8393 877.7549,-1106.8393 877.7549,-1070.8393 975.7549,-1070.8393 975.7549,-1106.8393"/>
<text text-anchor="middle" x="926.7549" y="-1086.0393" font-family="Courier,monospace" font-size="11.00" fill="#000000">SubsiteState</text>
</g>
<!-- \\Firesphere\\SolrSubsites\\States\\SubsiteState&#45;&gt;\\Firesphere\\SolrSearch\\States\\SiteState -->
<g id="edge30" class="edge">
<title>\\Firesphere\\SolrSubsites\\States\\SubsiteState&#45;&gt;\\Firesphere\\SolrSearch\\States\\SiteState</title>
<path fill="none" stroke="#000000" d="M926.4828,-1107.0977C923.6827,-1284.3981 897.7854,-2696.2337 781.2549,-2836.8393 767.4832,-2853.4562 745.4035,-2861.3194 724.7459,-2864.8891"/>
<polygon fill="none" stroke="#000000" points="724.166,-2861.4363 714.7618,-2866.3161 725.1565,-2868.3659 724.166,-2861.4363"/>
</g>
<!-- \\Firesphere\\SolrSubsites\\States\\SubsiteState&#45;&gt;\\Firesphere\\SolrSearch\\Interfaces\\SiteStateInterface -->
<g id="edge31" class="edge">
<title>\\Firesphere\\SolrSubsites\\States\\SubsiteState&#45;&gt;\\Firesphere\\SolrSearch\\Interfaces\\SiteStateInterface</title>
<path fill="none" stroke="#000000" stroke-dasharray="1,5" d="M877.5482,-1087.0542C856.9256,-1083.6029 834.6683,-1075.7861 821.2549,-1058.8393 760.3715,-981.9175 849.9568,-246.8665 781.2549,-176.8393 764.3343,-159.5923 692.8139,-183.3078 672.7549,-169.8393"/>
</g>
<!-- \\Firesphere\\SolrSubsites\\Extensions\\SubsitesExtension -->
<g id="node59" class="node">
<title>\\Firesphere\\SolrSubsites\\Extensions\\SubsitesExtension</title>
<polygon fill="none" stroke="#000000" points="992.2549,-1026.8393 861.2549,-1026.8393 861.2549,-990.8393 992.2549,-990.8393 992.2549,-1026.8393"/>
<text text-anchor="middle" x="926.7549" y="-1006.0393" font-family="Courier,monospace" font-size="11.00" fill="#000000">SubsitesExtension</text>
</g>
<!-- \\Firesphere\\SolrSubsites\\Extensions\\SubsitesExtension&#45;&gt;\\SilverStripe\\Core\\Extension -->
<g id="edge32" class="edge">
<title>\\Firesphere\\SolrSubsites\\Extensions\\SubsitesExtension&#45;&gt;\\SilverStripe\\Core\\Extension</title>
<path fill="none" stroke="#000000" d="M878.2804,-990.7317C857.0079,-980.1534 834.0131,-964.5358 821.2549,-942.8393 733.504,-793.6101 871.9637,-312.2892 781.2549,-164.8393 752.1534,-117.5339 717.7618,-135.3826 672.7549,-102.8393"/>
</g>
<!-- \\Firesphere\\SolrPermissions\\Extensions\\BaseIndexExtension -->
<g id="node60" class="node">
<title>\\Firesphere\\SolrPermissions\\Extensions\\BaseIndexExtension</title>
<polygon fill="none" stroke="#000000" points="995.7549,-552.8393 857.7549,-552.8393 857.7549,-516.8393 995.7549,-516.8393 995.7549,-552.8393"/>
<text text-anchor="middle" x="926.7549" y="-532.0393" font-family="Courier,monospace" font-size="11.00" fill="#000000">BaseIndexExtension</text>
</g>
<!-- \\Firesphere\\SolrPermissions\\Extensions\\BaseIndexExtension&#45;&gt;\\SilverStripe\\Core\\Extension -->
<g id="edge33" class="edge">
<title>\\Firesphere\\SolrPermissions\\Extensions\\BaseIndexExtension&#45;&gt;\\SilverStripe\\Core\\Extension</title>
<path fill="none" stroke="#000000" d="M857.5592,-529.6931C843.7613,-525.5104 830.6474,-518.7133 821.2549,-507.8393 709.9581,-378.9873 894.6533,-253.8457 781.2549,-126.8393 748.3619,-89.999 712.7764,-131.7778 672.7549,-102.8393"/>
</g>
<!-- \\Firesphere\\SolrPermissions\\Extensions\\SchemaFactoryExtension -->
<g id="node61" class="node">
<title>\\Firesphere\\SolrPermissions\\Extensions\\SchemaFactoryExtension</title>
<polygon fill="none" stroke="#000000" points="1009.2549,-498.8393 844.2549,-498.8393 844.2549,-462.8393 1009.2549,-462.8393 1009.2549,-498.8393"/>
<text text-anchor="middle" x="926.7549" y="-478.0393" font-family="Courier,monospace" font-size="11.00" fill="#000000">SchemaFactoryExtension</text>
</g>
<!-- \\Firesphere\\SolrPermissions\\Extensions\\SchemaFactoryExtension&#45;&gt;\\SilverStripe\\Core\\Extension -->
<g id="edge34" class="edge">
<title>\\Firesphere\\SolrPermissions\\Extensions\\SchemaFactoryExtension&#45;&gt;\\SilverStripe\\Core\\Extension</title>
<path fill="none" stroke="#000000" d="M844.1353,-470.4409C835.479,-466.404 827.5576,-461.0111 821.2549,-453.8393 724.6017,-343.8575 879.7016,-235.2186 781.2549,-126.8393 748.0478,-90.2818 712.7764,-131.7778 672.7549,-102.8393"/>
</g>
<!-- \\Firesphere\\SolrPermissions\\Extensions\\DocumentFactoryExtension -->
<g id="node62" class="node">
<title>\\Firesphere\\SolrPermissions\\Extensions\\DocumentFactoryExtension</title>
<polygon fill="none" stroke="#000000" points="1016.2549,-444.8393 837.2549,-444.8393 837.2549,-408.8393 1016.2549,-408.8393 1016.2549,-444.8393"/>
<text text-anchor="middle" x="926.7549" y="-424.0393" font-family="Courier,monospace" font-size="11.00" fill="#000000">DocumentFactoryExtension</text>
</g>
<!-- \\Firesphere\\SolrPermissions\\Extensions\\DocumentFactoryExtension&#45;&gt;\\SilverStripe\\Core\\Extension -->
<g id="edge35" class="edge">
<title>\\Firesphere\\SolrPermissions\\Extensions\\DocumentFactoryExtension&#45;&gt;\\SilverStripe\\Core\\Extension</title>
<path fill="none" stroke="#000000" d="M880.75,-408.7128C859.3732,-397.9577 835.5703,-382.1949 821.2549,-360.8393 762.507,-273.1995 854.034,-203.2281 781.2549,-126.8393 747.1875,-91.0822 712.7764,-131.7778 672.7549,-102.8393"/>
</g>
<!-- \\Firesphere\\SolrPermissions\\Extensions\\DataObjectExtension -->
<g id="node63" class="node">
<title>\\Firesphere\\SolrPermissions\\Extensions\\DataObjectExtension</title>
<polygon fill="none" stroke="#000000" points="999.2549,-606.8393 854.2549,-606.8393 854.2549,-570.8393 999.2549,-570.8393 999.2549,-606.8393"/>
<text text-anchor="middle" x="926.7549" y="-586.0393" font-family="Courier,monospace" font-size="11.00" fill="#000000">DataObjectExtension</text>
</g>
<!-- \\Firesphere\\SolrPermissions\\Extensions\\DataObjectExtension&#45;&gt;\\SilverStripe\\ORM\\DataExtension -->
<g id="edge36" class="edge">
<title>\\Firesphere\\SolrPermissions\\Extensions\\DataObjectExtension&#45;&gt;\\SilverStripe\\ORM\\DataExtension</title>
<path fill="none" stroke="#000000" d="M854.0027,-582.5902C841.515,-578.3441 829.8232,-571.8012 821.2549,-561.8393 705.6153,-427.3916 898.5524,-297.843 781.2549,-164.8393 718.2153,-93.3587 664.7691,-139.743 572.2549,-116.8393 543.6866,-109.7666 537.1957,-105.1876 508.2549,-99.8393 473.46,-93.4092 435.681,-88.365 400.1541,-84.4673"/>
<polygon fill="none" stroke="#000000" points="400.5143,-80.986 390.1977,-83.3982 399.7668,-87.946 400.5143,-80.986"/>
</g>
</g>
</svg>
