<?xml version="1.0" encoding="UTF-8" standalone="no"?>
<!DOCTYPE svg PUBLIC "-//W3C//DTD SVG 1.1//EN"
 "http://www.w3.org/Graphics/SVG/1.1/DTD/svg11.dtd">
<!-- Generated by graphviz version 2.40.1 (20161225.0304)
 -->
<!-- Title: G Pages: 1 -->
<svg width="1057pt" height="3721pt"
 viewBox="0.00 0.00 1057.25 3721.01" xmlns="http://www.w3.org/2000/svg" xmlns:xlink="http://www.w3.org/1999/xlink">
<g id="graph0" class="graph" transform="scale(1 1) rotate(0) translate(4 3717.012)">
<title>G</title>
<polygon fill="#ffffff" stroke="transparent" points="-4,4 -4,-3717.012 1053.2549,-3717.012 1053.2549,4 -4,4"/>
<g id="clust1" class="cluster">
<title>cluster_Global</title>
<path fill="none" stroke="#c0c0c0" d="M165.1275,-152.8554C165.1275,-152.8554 1029.2549,-152.8554 1029.2549,-152.8554 1035.2549,-152.8554 1041.2549,-158.8554 1041.2549,-164.8554 1041.2549,-164.8554 1041.2549,-3386.8554 1041.2549,-3386.8554 1041.2549,-3392.8554 1035.2549,-3398.8554 1029.2549,-3398.8554 1029.2549,-3398.8554 165.1275,-3398.8554 165.1275,-3398.8554 159.1275,-3398.8554 153.1275,-3392.8554 153.1275,-3386.8554 153.1275,-3386.8554 153.1275,-164.8554 153.1275,-164.8554 153.1275,-158.8554 159.1275,-152.8554 165.1275,-152.8554"/>
<text text-anchor="middle" x="597.1912" y="-3386.0554" font-family="Times,serif" font-size="11.00" fill="#c0c0c0">Global</text>
</g>
<g id="clust2" class="cluster">
<title>cluster_\SilverStripe</title>
<path fill="none" stroke="#c0c0c0" d="M857.7549,-3056.8554C857.7549,-3056.8554 988.7549,-3056.8554 988.7549,-3056.8554 994.7549,-3056.8554 1000.7549,-3062.8554 1000.7549,-3068.8554 1000.7549,-3068.8554 1000.7549,-3358.8554 1000.7549,-3358.8554 1000.7549,-3364.8554 994.7549,-3370.8554 988.7549,-3370.8554 988.7549,-3370.8554 857.7549,-3370.8554 857.7549,-3370.8554 851.7549,-3370.8554 845.7549,-3364.8554 845.7549,-3358.8554 845.7549,-3358.8554 845.7549,-3068.8554 845.7549,-3068.8554 845.7549,-3062.8554 851.7549,-3056.8554 857.7549,-3056.8554"/>
<text text-anchor="middle" x="923.2549" y="-3358.0554" font-family="Times,serif" font-size="11.00" fill="#c0c0c0">SilverStripe</text>
</g>
<g id="clust3" class="cluster">
<title>cluster_\SilverStripe\FullTextSearch</title>
<path fill="none" stroke="#c0c0c0" d="M865.7549,-3064.8554C865.7549,-3064.8554 980.7549,-3064.8554 980.7549,-3064.8554 986.7549,-3064.8554 992.7549,-3070.8554 992.7549,-3076.8554 992.7549,-3076.8554 992.7549,-3330.8554 992.7549,-3330.8554 992.7549,-3336.8554 986.7549,-3342.8554 980.7549,-3342.8554 980.7549,-3342.8554 865.7549,-3342.8554 865.7549,-3342.8554 859.7549,-3342.8554 853.7549,-3336.8554 853.7549,-3330.8554 853.7549,-3330.8554 853.7549,-3076.8554 853.7549,-3076.8554 853.7549,-3070.8554 859.7549,-3064.8554 865.7549,-3064.8554"/>
<text text-anchor="middle" x="923.2549" y="-3330.0554" font-family="Times,serif" font-size="11.00" fill="#c0c0c0">FullTextSearch</text>
</g>
<g id="clust4" class="cluster">
<title>cluster_\SilverStripe\FullTextSearch\Solr</title>
<path fill="none" stroke="#c0c0c0" d="M885.2549,-3188.8554C885.2549,-3188.8554 961.2549,-3188.8554 961.2549,-3188.8554 967.2549,-3188.8554 973.2549,-3194.8554 973.2549,-3200.8554 973.2549,-3200.8554 973.2549,-3302.8554 973.2549,-3302.8554 973.2549,-3308.8554 967.2549,-3314.8554 961.2549,-3314.8554 961.2549,-3314.8554 885.2549,-3314.8554 885.2549,-3314.8554 879.2549,-3314.8554 873.2549,-3308.8554 873.2549,-3302.8554 873.2549,-3302.8554 873.2549,-3200.8554 873.2549,-3200.8554 873.2549,-3194.8554 879.2549,-3188.8554 885.2549,-3188.8554"/>
<text text-anchor="middle" x="923.2549" y="-3302.0554" font-family="Times,serif" font-size="11.00" fill="#c0c0c0">Solr</text>
</g>
<g id="clust5" class="cluster">
<title>cluster_\SilverStripe\FullTextSearch\Search</title>
<path fill="none" stroke="#c0c0c0" d="M873.7549,-3072.8554C873.7549,-3072.8554 972.7549,-3072.8554 972.7549,-3072.8554 978.7549,-3072.8554 984.7549,-3078.8554 984.7549,-3084.8554 984.7549,-3084.8554 984.7549,-3168.8554 984.7549,-3168.8554 984.7549,-3174.8554 978.7549,-3180.8554 972.7549,-3180.8554 972.7549,-3180.8554 873.7549,-3180.8554 873.7549,-3180.8554 867.7549,-3180.8554 861.7549,-3174.8554 861.7549,-3168.8554 861.7549,-3168.8554 861.7549,-3084.8554 861.7549,-3084.8554 861.7549,-3078.8554 867.7549,-3072.8554 873.7549,-3072.8554"/>
<text text-anchor="middle" x="923.2549" y="-3168.0554" font-family="Times,serif" font-size="11.00" fill="#c0c0c0">Search</text>
</g>
<g id="clust6" class="cluster">
<title>cluster_\SilverStripe\FullTextSearch\Search\Queries</title>
<path fill="none" stroke="#c0c0c0" d="M881.7549,-3080.8554C881.7549,-3080.8554 964.7549,-3080.8554 964.7549,-3080.8554 970.7549,-3080.8554 976.7549,-3086.8554 976.7549,-3092.8554 976.7549,-3092.8554 976.7549,-3140.8554 976.7549,-3140.8554 976.7549,-3146.8554 970.7549,-3152.8554 964.7549,-3152.8554 964.7549,-3152.8554 881.7549,-3152.8554 881.7549,-3152.8554 875.7549,-3152.8554 869.7549,-3146.8554 869.7549,-3140.8554 869.7549,-3140.8554 869.7549,-3092.8554 869.7549,-3092.8554 869.7549,-3086.8554 875.7549,-3080.8554 881.7549,-3080.8554"/>
<text text-anchor="middle" x="923.2549" y="-3140.0554" font-family="Times,serif" font-size="11.00" fill="#c0c0c0">Queries</text>
</g>
<g id="clust7" class="cluster">
<title>cluster_\Firesphere</title>
<path fill="none" stroke="#c0c0c0" d="M173.1275,-160.8554C173.1275,-160.8554 1021.2549,-160.8554 1021.2549,-160.8554 1027.2549,-160.8554 1033.2549,-166.8554 1033.2549,-172.8554 1033.2549,-172.8554 1033.2549,-3036.8554 1033.2549,-3036.8554 1033.2549,-3042.8554 1027.2549,-3048.8554 1021.2549,-3048.8554 1021.2549,-3048.8554 173.1275,-3048.8554 173.1275,-3048.8554 167.1275,-3048.8554 161.1275,-3042.8554 161.1275,-3036.8554 161.1275,-3036.8554 161.1275,-172.8554 161.1275,-172.8554 161.1275,-166.8554 167.1275,-160.8554 173.1275,-160.8554"/>
<text text-anchor="middle" x="597.1912" y="-3036.0554" font-family="Times,serif" font-size="11.00" fill="#c0c0c0">Firesphere</text>
</g>
<g id="clust8" class="cluster">
<title>cluster_\Firesphere\SolrCompatibility</title>
<path fill="none" stroke="#c0c0c0" d="M833.2549,-642.8554C833.2549,-642.8554 1013.2549,-642.8554 1013.2549,-642.8554 1019.2549,-642.8554 1025.2549,-648.8554 1025.2549,-654.8554 1025.2549,-654.8554 1025.2549,-738.8554 1025.2549,-738.8554 1025.2549,-744.8554 1019.2549,-750.8554 1013.2549,-750.8554 1013.2549,-750.8554 833.2549,-750.8554 833.2549,-750.8554 827.2549,-750.8554 821.2549,-744.8554 821.2549,-738.8554 821.2549,-738.8554 821.2549,-654.8554 821.2549,-654.8554 821.2549,-648.8554 827.2549,-642.8554 833.2549,-642.8554"/>
<text text-anchor="middle" x="923.2549" y="-738.0554" font-family="Times,serif" font-size="11.00" fill="#c0c0c0">SolrCompatibility</text>
</g>
<g id="clust9" class="cluster">
<title>cluster_\Firesphere\SolrCompatibility\Extensions</title>
<path fill="none" stroke="#c0c0c0" d="M841.2549,-650.8554C841.2549,-650.8554 1005.2549,-650.8554 1005.2549,-650.8554 1011.2549,-650.8554 1017.2549,-656.8554 1017.2549,-662.8554 1017.2549,-662.8554 1017.2549,-710.8554 1017.2549,-710.8554 1017.2549,-716.8554 1011.2549,-722.8554 1005.2549,-722.8554 1005.2549,-722.8554 841.2549,-722.8554 841.2549,-722.8554 835.2549,-722.8554 829.2549,-716.8554 829.2549,-710.8554 829.2549,-710.8554 829.2549,-662.8554 829.2549,-662.8554 829.2549,-656.8554 835.2549,-650.8554 841.2549,-650.8554"/>
<text text-anchor="middle" x="923.2549" y="-710.0554" font-family="Times,serif" font-size="11.00" fill="#c0c0c0">Extensions</text>
</g>
<g id="clust10" class="cluster">
<title>cluster_\Firesphere\SolrSearch</title>
<path fill="none" stroke="#c0c0c0" d="M181.1275,-172.8554C181.1275,-172.8554 769.2549,-172.8554 769.2549,-172.8554 775.2549,-172.8554 781.2549,-178.8554 781.2549,-184.8554 781.2549,-184.8554 781.2549,-3008.8554 781.2549,-3008.8554 781.2549,-3014.8554 775.2549,-3020.8554 769.2549,-3020.8554 769.2549,-3020.8554 181.1275,-3020.8554 181.1275,-3020.8554 175.1275,-3020.8554 169.1275,-3014.8554 169.1275,-3008.8554 169.1275,-3008.8554 169.1275,-184.8554 169.1275,-184.8554 169.1275,-178.8554 175.1275,-172.8554 181.1275,-172.8554"/>
<text text-anchor="middle" x="475.1912" y="-3008.0554" font-family="Times,serif" font-size="11.00" fill="#c0c0c0">SolrSearch</text>
</g>
<g id="clust11" class="cluster">
<title>cluster_\Firesphere\SolrSearch\States</title>
<path fill="none" stroke="#c0c0c0" d="M634.7549,-2920.8554C634.7549,-2920.8554 710.7549,-2920.8554 710.7549,-2920.8554 716.7549,-2920.8554 722.7549,-2926.8554 722.7549,-2932.8554 722.7549,-2932.8554 722.7549,-2980.8554 722.7549,-2980.8554 722.7549,-2986.8554 716.7549,-2992.8554 710.7549,-2992.8554 710.7549,-2992.8554 634.7549,-2992.8554 634.7549,-2992.8554 628.7549,-2992.8554 622.7549,-2986.8554 622.7549,-2980.8554 622.7549,-2980.8554 622.7549,-2932.8554 622.7549,-2932.8554 622.7549,-2926.8554 628.7549,-2920.8554 634.7549,-2920.8554"/>
<text text-anchor="middle" x="672.7549" y="-2980.0554" font-family="Times,serif" font-size="11.00" fill="#c0c0c0">States</text>
</g>
<g id="clust12" class="cluster">
<title>cluster_\Firesphere\SolrSearch\Results</title>
<path fill="none" stroke="#c0c0c0" d="M627.7549,-2840.8554C627.7549,-2840.8554 717.7549,-2840.8554 717.7549,-2840.8554 723.7549,-2840.8554 729.7549,-2846.8554 729.7549,-2852.8554 729.7549,-2852.8554 729.7549,-2900.8554 729.7549,-2900.8554 729.7549,-2906.8554 723.7549,-2912.8554 717.7549,-2912.8554 717.7549,-2912.8554 627.7549,-2912.8554 627.7549,-2912.8554 621.7549,-2912.8554 615.7549,-2906.8554 615.7549,-2900.8554 615.7549,-2900.8554 615.7549,-2852.8554 615.7549,-2852.8554 615.7549,-2846.8554 621.7549,-2840.8554 627.7549,-2840.8554"/>
<text text-anchor="middle" x="672.7549" y="-2900.0554" font-family="Times,serif" font-size="11.00" fill="#c0c0c0">Results</text>
</g>
<g id="clust13" class="cluster">
<title>cluster_\Firesphere\SolrSearch\Tasks</title>
<path fill="none" stroke="#c0c0c0" d="M597.7549,-2464.8554C597.7549,-2464.8554 747.7549,-2464.8554 747.7549,-2464.8554 753.7549,-2464.8554 759.7549,-2470.8554 759.7549,-2476.8554 759.7549,-2476.8554 759.7549,-2686.8554 759.7549,-2686.8554 759.7549,-2692.8554 753.7549,-2698.8554 747.7549,-2698.8554 747.7549,-2698.8554 597.7549,-2698.8554 597.7549,-2698.8554 591.7549,-2698.8554 585.7549,-2692.8554 585.7549,-2686.8554 585.7549,-2686.8554 585.7549,-2476.8554 585.7549,-2476.8554 585.7549,-2470.8554 591.7549,-2464.8554 597.7549,-2464.8554"/>
<text text-anchor="middle" x="672.7549" y="-2686.0554" font-family="Times,serif" font-size="11.00" fill="#c0c0c0">Tasks</text>
</g>
<g id="clust14" class="cluster">
<title>cluster_\Firesphere\SolrSearch\Services</title>
<path fill="none" stroke="#c0c0c0" d="M617.7549,-2706.8554C617.7549,-2706.8554 727.7549,-2706.8554 727.7549,-2706.8554 733.7549,-2706.8554 739.7549,-2712.8554 739.7549,-2718.8554 739.7549,-2718.8554 739.7549,-2820.8554 739.7549,-2820.8554 739.7549,-2826.8554 733.7549,-2832.8554 727.7549,-2832.8554 727.7549,-2832.8554 617.7549,-2832.8554 617.7549,-2832.8554 611.7549,-2832.8554 605.7549,-2826.8554 605.7549,-2820.8554 605.7549,-2820.8554 605.7549,-2718.8554 605.7549,-2718.8554 605.7549,-2712.8554 611.7549,-2706.8554 617.7549,-2706.8554"/>
<text text-anchor="middle" x="672.7549" y="-2820.0554" font-family="Times,serif" font-size="11.00" fill="#c0c0c0">Services</text>
</g>
<g id="clust15" class="cluster">
<title>cluster_\Firesphere\SolrSearch\Extensions</title>
<path fill="none" stroke="#c0c0c0" d="M604.2549,-2330.8554C604.2549,-2330.8554 741.2549,-2330.8554 741.2549,-2330.8554 747.2549,-2330.8554 753.2549,-2336.8554 753.2549,-2342.8554 753.2549,-2342.8554 753.2549,-2444.8554 753.2549,-2444.8554 753.2549,-2450.8554 747.2549,-2456.8554 741.2549,-2456.8554 741.2549,-2456.8554 604.2549,-2456.8554 604.2549,-2456.8554 598.2549,-2456.8554 592.2549,-2450.8554 592.2549,-2444.8554 592.2549,-2444.8554 592.2549,-2342.8554 592.2549,-2342.8554 592.2549,-2336.8554 598.2549,-2330.8554 604.2549,-2330.8554"/>
<text text-anchor="middle" x="672.7549" y="-2444.0554" font-family="Times,serif" font-size="11.00" fill="#c0c0c0">Extensions</text>
</g>
<g id="clust16" class="cluster">
<title>cluster_\Firesphere\SolrSearch\Factories</title>
<path fill="none" stroke="#c0c0c0" d="M597.7549,-2196.8554C597.7549,-2196.8554 747.7549,-2196.8554 747.7549,-2196.8554 753.7549,-2196.8554 759.7549,-2202.8554 759.7549,-2208.8554 759.7549,-2208.8554 759.7549,-2310.8554 759.7549,-2310.8554 759.7549,-2316.8554 753.7549,-2322.8554 747.7549,-2322.8554 747.7549,-2322.8554 597.7549,-2322.8554 597.7549,-2322.8554 591.7549,-2322.8554 585.7549,-2316.8554 585.7549,-2310.8554 585.7549,-2310.8554 585.7549,-2208.8554 585.7549,-2208.8554 585.7549,-2202.8554 591.7549,-2196.8554 597.7549,-2196.8554"/>
<text text-anchor="middle" x="672.7549" y="-2310.0554" font-family="Times,serif" font-size="11.00" fill="#c0c0c0">Factories</text>
</g>
<g id="clust17" class="cluster">
<title>cluster_\Firesphere\SolrSearch\Stores</title>
<path fill="none" stroke="#c0c0c0" d="M617.7549,-2062.8554C617.7549,-2062.8554 727.7549,-2062.8554 727.7549,-2062.8554 733.7549,-2062.8554 739.7549,-2068.8554 739.7549,-2074.8554 739.7549,-2074.8554 739.7549,-2176.8554 739.7549,-2176.8554 739.7549,-2182.8554 733.7549,-2188.8554 727.7549,-2188.8554 727.7549,-2188.8554 617.7549,-2188.8554 617.7549,-2188.8554 611.7549,-2188.8554 605.7549,-2182.8554 605.7549,-2176.8554 605.7549,-2176.8554 605.7549,-2074.8554 605.7549,-2074.8554 605.7549,-2068.8554 611.7549,-2062.8554 617.7549,-2062.8554"/>
<text text-anchor="middle" x="672.7549" y="-2176.0554" font-family="Times,serif" font-size="11.00" fill="#c0c0c0">Stores</text>
</g>
<g id="clust18" class="cluster">
<title>cluster_\Firesphere\SolrSearch\Helpers</title>
<path fill="none" stroke="#c0c0c0" d="M624.7549,-1766.8554C624.7549,-1766.8554 720.7549,-1766.8554 720.7549,-1766.8554 726.7549,-1766.8554 732.7549,-1772.8554 732.7549,-1778.8554 732.7549,-1778.8554 732.7549,-2042.8554 732.7549,-2042.8554 732.7549,-2048.8554 726.7549,-2054.8554 720.7549,-2054.8554 720.7549,-2054.8554 624.7549,-2054.8554 624.7549,-2054.8554 618.7549,-2054.8554 612.7549,-2048.8554 612.7549,-2042.8554 612.7549,-2042.8554 612.7549,-1778.8554 612.7549,-1778.8554 612.7549,-1772.8554 618.7549,-1766.8554 624.7549,-1766.8554"/>
<text text-anchor="middle" x="672.7549" y="-2042.0554" font-family="Times,serif" font-size="11.00" fill="#c0c0c0">Helpers</text>
</g>
<g id="clust19" class="cluster">
<title>cluster_\Firesphere\SolrSearch\Models</title>
<path fill="none" stroke="#c0c0c0" d="M624.7549,-1578.8554C624.7549,-1578.8554 720.7549,-1578.8554 720.7549,-1578.8554 726.7549,-1578.8554 732.7549,-1584.8554 732.7549,-1590.8554 732.7549,-1590.8554 732.7549,-1746.8554 732.7549,-1746.8554 732.7549,-1752.8554 726.7549,-1758.8554 720.7549,-1758.8554 720.7549,-1758.8554 624.7549,-1758.8554 624.7549,-1758.8554 618.7549,-1758.8554 612.7549,-1752.8554 612.7549,-1746.8554 612.7549,-1746.8554 612.7549,-1590.8554 612.7549,-1590.8554 612.7549,-1584.8554 618.7549,-1578.8554 624.7549,-1578.8554"/>
<text text-anchor="middle" x="672.7549" y="-1746.0554" font-family="Times,serif" font-size="11.00" fill="#c0c0c0">Models</text>
</g>
<g id="clust20" class="cluster">
<title>cluster_\Firesphere\SolrSearch\Forms</title>
<path fill="none" stroke="#c0c0c0" d="M634.7549,-1498.8554C634.7549,-1498.8554 710.7549,-1498.8554 710.7549,-1498.8554 716.7549,-1498.8554 722.7549,-1504.8554 722.7549,-1510.8554 722.7549,-1510.8554 722.7549,-1558.8554 722.7549,-1558.8554 722.7549,-1564.8554 716.7549,-1570.8554 710.7549,-1570.8554 710.7549,-1570.8554 634.7549,-1570.8554 634.7549,-1570.8554 628.7549,-1570.8554 622.7549,-1564.8554 622.7549,-1558.8554 622.7549,-1558.8554 622.7549,-1510.8554 622.7549,-1510.8554 622.7549,-1504.8554 628.7549,-1498.8554 634.7549,-1498.8554"/>
<text text-anchor="middle" x="672.7549" y="-1558.0554" font-family="Times,serif" font-size="11.00" fill="#c0c0c0">Forms</text>
</g>
<g id="clust21" class="cluster">
<title>cluster_\Firesphere\SolrSearch\Indexes</title>
<path fill="none" stroke="#c0c0c0" d="M634.7549,-1418.8554C634.7549,-1418.8554 710.7549,-1418.8554 710.7549,-1418.8554 716.7549,-1418.8554 722.7549,-1424.8554 722.7549,-1430.8554 722.7549,-1430.8554 722.7549,-1478.8554 722.7549,-1478.8554 722.7549,-1484.8554 716.7549,-1490.8554 710.7549,-1490.8554 710.7549,-1490.8554 634.7549,-1490.8554 634.7549,-1490.8554 628.7549,-1490.8554 622.7549,-1484.8554 622.7549,-1478.8554 622.7549,-1478.8554 622.7549,-1430.8554 622.7549,-1430.8554 622.7549,-1424.8554 628.7549,-1418.8554 634.7549,-1418.8554"/>
<text text-anchor="middle" x="672.7549" y="-1478.0554" font-family="Times,serif" font-size="11.00" fill="#c0c0c0">Indexes</text>
</g>
<g id="clust22" class="cluster">
<title>cluster_\Firesphere\SolrSearch\Admins</title>
<path fill="none" stroke="#c0c0c0" d="M631.2549,-1338.8554C631.2549,-1338.8554 714.2549,-1338.8554 714.2549,-1338.8554 720.2549,-1338.8554 726.2549,-1344.8554 726.2549,-1350.8554 726.2549,-1350.8554 726.2549,-1398.8554 726.2549,-1398.8554 726.2549,-1404.8554 720.2549,-1410.8554 714.2549,-1410.8554 714.2549,-1410.8554 631.2549,-1410.8554 631.2549,-1410.8554 625.2549,-1410.8554 619.2549,-1404.8554 619.2549,-1398.8554 619.2549,-1398.8554 619.2549,-1350.8554 619.2549,-1350.8554 619.2549,-1344.8554 625.2549,-1338.8554 631.2549,-1338.8554"/>
<text text-anchor="middle" x="672.7549" y="-1398.0554" font-family="Times,serif" font-size="11.00" fill="#c0c0c0">Admins</text>
</g>
<g id="clust23" class="cluster">
<title>cluster_\Firesphere\SolrSearch\Interfaces</title>
<path fill="none" stroke="#c0c0c0" d="M189.1275,-2008.8554C189.1275,-2008.8554 319.1275,-2008.8554 319.1275,-2008.8554 325.1275,-2008.8554 331.1275,-2014.8554 331.1275,-2020.8554 331.1275,-2020.8554 331.1275,-2122.8554 331.1275,-2122.8554 331.1275,-2128.8554 325.1275,-2134.8554 319.1275,-2134.8554 319.1275,-2134.8554 189.1275,-2134.8554 189.1275,-2134.8554 183.1275,-2134.8554 177.1275,-2128.8554 177.1275,-2122.8554 177.1275,-2122.8554 177.1275,-2020.8554 177.1275,-2020.8554 177.1275,-2014.8554 183.1275,-2008.8554 189.1275,-2008.8554"/>
<text text-anchor="middle" x="254.1275" y="-2122.0554" font-family="Times,serif" font-size="11.00" fill="#c0c0c0">Interfaces</text>
</g>
<g id="clust24" class="cluster">
<title>cluster_\Firesphere\SolrSearch\Queries</title>
<path fill="none" stroke="#c0c0c0" d="M638.2549,-1258.8554C638.2549,-1258.8554 707.2549,-1258.8554 707.2549,-1258.8554 713.2549,-1258.8554 719.2549,-1264.8554 719.2549,-1270.8554 719.2549,-1270.8554 719.2549,-1318.8554 719.2549,-1318.8554 719.2549,-1324.8554 713.2549,-1330.8554 707.2549,-1330.8554 707.2549,-1330.8554 638.2549,-1330.8554 638.2549,-1330.8554 632.2549,-1330.8554 626.2549,-1324.8554 626.2549,-1318.8554 626.2549,-1318.8554 626.2549,-1270.8554 626.2549,-1270.8554 626.2549,-1264.8554 632.2549,-1258.8554 638.2549,-1258.8554"/>
<text text-anchor="middle" x="672.7549" y="-1318.0554" font-family="Times,serif" font-size="11.00" fill="#c0c0c0">Queries</text>
</g>
<g id="clust25" class="cluster">
<title>cluster_\Firesphere\SolrSearch\Traits</title>
<path fill="none" stroke="#c0c0c0" d="M584.2549,-368.8554C584.2549,-368.8554 761.2549,-368.8554 761.2549,-368.8554 767.2549,-368.8554 773.2549,-374.8554 773.2549,-380.8554 773.2549,-380.8554 773.2549,-1238.8554 773.2549,-1238.8554 773.2549,-1244.8554 767.2549,-1250.8554 761.2549,-1250.8554 761.2549,-1250.8554 584.2549,-1250.8554 584.2549,-1250.8554 578.2549,-1250.8554 572.2549,-1244.8554 572.2549,-1238.8554 572.2549,-1238.8554 572.2549,-380.8554 572.2549,-380.8554 572.2549,-374.8554 578.2549,-368.8554 584.2549,-368.8554"/>
<text text-anchor="middle" x="672.7549" y="-1238.0554" font-family="Times,serif" font-size="11.00" fill="#c0c0c0">Traits</text>
</g>
<g id="clust26" class="cluster">
<title>cluster_\Firesphere\SolrSearch\Jobs</title>
<path fill="none" stroke="#c0c0c0" d="M600.7549,-180.8554C600.7549,-180.8554 744.7549,-180.8554 744.7549,-180.8554 750.7549,-180.8554 756.7549,-186.8554 756.7549,-192.8554 756.7549,-192.8554 756.7549,-348.8554 756.7549,-348.8554 756.7549,-354.8554 750.7549,-360.8554 744.7549,-360.8554 744.7549,-360.8554 600.7549,-360.8554 600.7549,-360.8554 594.7549,-360.8554 588.7549,-354.8554 588.7549,-348.8554 588.7549,-348.8554 588.7549,-192.8554 588.7549,-192.8554 588.7549,-186.8554 594.7549,-180.8554 600.7549,-180.8554"/>
<text text-anchor="middle" x="672.7549" y="-348.0554" font-family="Times,serif" font-size="11.00" fill="#c0c0c0">Jobs</text>
</g>
<g id="clust27" class="cluster">
<title>cluster_\Firesphere\SolrFluent</title>
<path fill="none" stroke="#c0c0c0" d="M833.2549,-338.8554C833.2549,-338.8554 1013.2549,-338.8554 1013.2549,-338.8554 1019.2549,-338.8554 1025.2549,-344.8554 1025.2549,-350.8554 1025.2549,-350.8554 1025.2549,-622.8554 1025.2549,-622.8554 1025.2549,-628.8554 1019.2549,-634.8554 1013.2549,-634.8554 1013.2549,-634.8554 833.2549,-634.8554 833.2549,-634.8554 827.2549,-634.8554 821.2549,-628.8554 821.2549,-622.8554 821.2549,-622.8554 821.2549,-350.8554 821.2549,-350.8554 821.2549,-344.8554 827.2549,-338.8554 833.2549,-338.8554"/>
<text text-anchor="middle" x="923.2549" y="-622.0554" font-family="Times,serif" font-size="11.00" fill="#c0c0c0">SolrFluent</text>
</g>
<g id="clust28" class="cluster">
<title>cluster_\Firesphere\SolrFluent\States</title>
<path fill="none" stroke="#c0c0c0" d="M868.2549,-534.8554C868.2549,-534.8554 978.2549,-534.8554 978.2549,-534.8554 984.2549,-534.8554 990.2549,-540.8554 990.2549,-546.8554 990.2549,-546.8554 990.2549,-594.8554 990.2549,-594.8554 990.2549,-600.8554 984.2549,-606.8554 978.2549,-606.8554 978.2549,-606.8554 868.2549,-606.8554 868.2549,-606.8554 862.2549,-606.8554 856.2549,-600.8554 856.2549,-594.8554 856.2549,-594.8554 856.2549,-546.8554 856.2549,-546.8554 856.2549,-540.8554 862.2549,-534.8554 868.2549,-534.8554"/>
<text text-anchor="middle" x="923.2549" y="-594.0554" font-family="Times,serif" font-size="11.00" fill="#c0c0c0">States</text>
</g>
<g id="clust29" class="cluster">
<title>cluster_\Firesphere\SolrFluent\Extensions</title>
<path fill="none" stroke="#c0c0c0" d="M841.2549,-346.8554C841.2549,-346.8554 1005.2549,-346.8554 1005.2549,-346.8554 1011.2549,-346.8554 1017.2549,-352.8554 1017.2549,-358.8554 1017.2549,-358.8554 1017.2549,-514.8554 1017.2549,-514.8554 1017.2549,-520.8554 1011.2549,-526.8554 1005.2549,-526.8554 1005.2549,-526.8554 841.2549,-526.8554 841.2549,-526.8554 835.2549,-526.8554 829.2549,-520.8554 829.2549,-514.8554 829.2549,-514.8554 829.2549,-358.8554 829.2549,-358.8554 829.2549,-352.8554 835.2549,-346.8554 841.2549,-346.8554"/>
<text text-anchor="middle" x="923.2549" y="-514.0554" font-family="Times,serif" font-size="11.00" fill="#c0c0c0">Extensions</text>
</g>
<g id="clust30" class="cluster">
<title>cluster_\Firesphere\SolrSubsites</title>
<path fill="none" stroke="#c0c0c0" d="M853.7549,-758.8554C853.7549,-758.8554 992.7549,-758.8554 992.7549,-758.8554 998.7549,-758.8554 1004.7549,-764.8554 1004.7549,-770.8554 1004.7549,-770.8554 1004.7549,-934.8554 1004.7549,-934.8554 1004.7549,-940.8554 998.7549,-946.8554 992.7549,-946.8554 992.7549,-946.8554 853.7549,-946.8554 853.7549,-946.8554 847.7549,-946.8554 841.7549,-940.8554 841.7549,-934.8554 841.7549,-934.8554 841.7549,-770.8554 841.7549,-770.8554 841.7549,-764.8554 847.7549,-758.8554 853.7549,-758.8554"/>
<text text-anchor="middle" x="923.2549" y="-934.0554" font-family="Times,serif" font-size="11.00" fill="#c0c0c0">SolrSubsites</text>
</g>
<g id="clust31" class="cluster">
<title>cluster_\Firesphere\SolrSubsites\States</title>
<path fill="none" stroke="#c0c0c0" d="M878.2549,-846.8554C878.2549,-846.8554 968.2549,-846.8554 968.2549,-846.8554 974.2549,-846.8554 980.2549,-852.8554 980.2549,-858.8554 980.2549,-858.8554 980.2549,-906.8554 980.2549,-906.8554 980.2549,-912.8554 974.2549,-918.8554 968.2549,-918.8554 968.2549,-918.8554 878.2549,-918.8554 878.2549,-918.8554 872.2549,-918.8554 866.2549,-912.8554 866.2549,-906.8554 866.2549,-906.8554 866.2549,-858.8554 866.2549,-858.8554 866.2549,-852.8554 872.2549,-846.8554 878.2549,-846.8554"/>
<text text-anchor="middle" x="923.2549" y="-906.0554" font-family="Times,serif" font-size="11.00" fill="#c0c0c0">States</text>
</g>
<g id="clust32" class="cluster">
<title>cluster_\Firesphere\SolrSubsites\Extensions</title>
<path fill="none" stroke="#c0c0c0" d="M861.7549,-766.8554C861.7549,-766.8554 984.7549,-766.8554 984.7549,-766.8554 990.7549,-766.8554 996.7549,-772.8554 996.7549,-778.8554 996.7549,-778.8554 996.7549,-826.8554 996.7549,-826.8554 996.7549,-832.8554 990.7549,-838.8554 984.7549,-838.8554 984.7549,-838.8554 861.7549,-838.8554 861.7549,-838.8554 855.7549,-838.8554 849.7549,-832.8554 849.7549,-826.8554 849.7549,-826.8554 849.7549,-778.8554 849.7549,-778.8554 849.7549,-772.8554 855.7549,-766.8554 861.7549,-766.8554"/>
<text text-anchor="middle" x="923.2549" y="-826.0554" font-family="Times,serif" font-size="11.00" fill="#c0c0c0">Extensions</text>
</g>
<g id="clust33" class="cluster">
<title>cluster_\Firesphere\SolrPermissions</title>
<path fill="none" stroke="#c0c0c0" d="M846.7549,-168.8554C846.7549,-168.8554 999.7549,-168.8554 999.7549,-168.8554 1005.7549,-168.8554 1011.7549,-174.8554 1011.7549,-180.8554 1011.7549,-180.8554 1011.7549,-318.8554 1011.7549,-318.8554 1011.7549,-324.8554 1005.7549,-330.8554 999.7549,-330.8554 999.7549,-330.8554 846.7549,-330.8554 846.7549,-330.8554 840.7549,-330.8554 834.7549,-324.8554 834.7549,-318.8554 834.7549,-318.8554 834.7549,-180.8554 834.7549,-180.8554 834.7549,-174.8554 840.7549,-168.8554 846.7549,-168.8554"/>
<text text-anchor="middle" x="923.2549" y="-318.0554" font-family="Times,serif" font-size="11.00" fill="#c0c0c0">SolrPermissions</text>
</g>
<g id="clust34" class="cluster">
<title>cluster_\Firesphere\SolrPermissions\Extensions</title>
<path fill="none" stroke="#c0c0c0" d="M854.7549,-176.8554C854.7549,-176.8554 991.7549,-176.8554 991.7549,-176.8554 997.7549,-176.8554 1003.7549,-182.8554 1003.7549,-188.8554 1003.7549,-188.8554 1003.7549,-290.8554 1003.7549,-290.8554 1003.7549,-296.8554 997.7549,-302.8554 991.7549,-302.8554 991.7549,-302.8554 854.7549,-302.8554 854.7549,-302.8554 848.7549,-302.8554 842.7549,-296.8554 842.7549,-290.8554 842.7549,-290.8554 842.7549,-188.8554 842.7549,-188.8554 842.7549,-182.8554 848.7549,-176.8554 854.7549,-176.8554"/>
<text text-anchor="middle" x="923.2549" y="-290.0554" font-family="Times,serif" font-size="11.00" fill="#c0c0c0">Extensions</text>
</g>
<!-- \\SilverStripe\\FullTextSearch\\Solr\\SolrIndex -->
<g id="node1" class="node">
<title>\\SilverStripe\\FullTextSearch\\Solr\\SolrIndex</title>
<polygon fill="none" stroke="#000000" points="965.2549,-3286.8554 881.2549,-3286.8554 881.2549,-3250.8554 965.2549,-3250.8554 965.2549,-3286.8554"/>
<text text-anchor="start" x="889.2549" y="-3272.0554" font-family="Courier,monospace" font-size="11.00" fill="#000000">«abstract»</text>
<text text-anchor="start" x="892.7549" y="-3260.0554" font-family="Courier,monospace" font-size="11.00" fill="#000000">SolrIndex</text>
</g>
<!-- \\Firesphere\\SolrSearch\\Indexes\\BaseIndex -->
<g id="node28" class="node">
<title>\\Firesphere\\SolrSearch\\Indexes\\BaseIndex</title>
<polygon fill="none" stroke="#000000" points="714.7549,-1462.8554 630.7549,-1462.8554 630.7549,-1426.8554 714.7549,-1426.8554 714.7549,-1462.8554"/>
<text text-anchor="start" x="638.7549" y="-1448.0554" font-family="Courier,monospace" font-size="11.00" fill="#000000">«abstract»</text>
<text text-anchor="start" x="642.2549" y="-1436.0554" font-family="Courier,monospace" font-size="11.00" fill="#000000">BaseIndex</text>
</g>
<!-- \\SilverStripe\\FullTextSearch\\Solr\\SolrIndex&#45;&gt;\\Firesphere\\SolrSearch\\Indexes\\BaseIndex -->
<g id="edge1" class="edge">
<title>\\SilverStripe\\FullTextSearch\\Solr\\SolrIndex&#45;&gt;\\Firesphere\\SolrSearch\\Indexes\\BaseIndex</title>
<path fill="none" stroke="#000000" d="M881.0795,-3268.9521C859.6856,-3266.5877 835.3151,-3259.6954 821.2549,-3241.8554 761.1625,-3165.6083 834.5333,-1576.0104 781.2549,-1494.8554 768.4228,-1475.3093 745.8516,-1463.282 724.6074,-1455.9418"/>
<polygon fill="none" stroke="#000000" points="725.5698,-1452.5753 714.9796,-1452.8889 723.4539,-1459.2479 725.5698,-1452.5753"/>
</g>
<!-- \\SilverStripe\\FullTextSearch\\Solr\\Solr -->
<g id="node2" class="node">
<title>\\SilverStripe\\FullTextSearch\\Solr\\Solr</title>
<polygon fill="none" stroke="#000000" points="950.2549,-3232.8554 896.2549,-3232.8554 896.2549,-3196.8554 950.2549,-3196.8554 950.2549,-3232.8554"/>
<text text-anchor="middle" x="923.2549" y="-3212.0554" font-family="Courier,monospace" font-size="11.00" fill="#000000">Solr</text>
</g>
<!-- \\SilverStripe\\FullTextSearch\\Search\\Queries\\SearchQuery -->
<g id="node3" class="node">
<title>\\SilverStripe\\FullTextSearch\\Search\\Queries\\SearchQuery</title>
<polygon fill="none" stroke="#000000" points="968.7549,-3124.8554 877.7549,-3124.8554 877.7549,-3088.8554 968.7549,-3088.8554 968.7549,-3124.8554"/>
<text text-anchor="middle" x="923.2549" y="-3104.0554" font-family="Courier,monospace" font-size="11.00" fill="#000000">SearchQuery</text>
</g>
<!-- \\Firesphere\\SolrSearch\\Queries\\BaseQuery -->
<g id="node32" class="node">
<title>\\Firesphere\\SolrSearch\\Queries\\BaseQuery</title>
<polygon fill="none" stroke="#000000" points="711.2549,-1302.8554 634.2549,-1302.8554 634.2549,-1266.8554 711.2549,-1266.8554 711.2549,-1302.8554"/>
<text text-anchor="middle" x="672.7549" y="-1282.0554" font-family="Courier,monospace" font-size="11.00" fill="#000000">BaseQuery</text>
</g>
<!-- \\SilverStripe\\FullTextSearch\\Search\\Queries\\SearchQuery&#45;&gt;\\Firesphere\\SolrSearch\\Queries\\BaseQuery -->
<g id="edge3" class="edge">
<title>\\SilverStripe\\FullTextSearch\\Search\\Queries\\SearchQuery&#45;&gt;\\Firesphere\\SolrSearch\\Queries\\BaseQuery</title>
<path fill="none" stroke="#000000" d="M922.9024,-3088.7344C919.3096,-2911.2567 887.255,-1486.6901 781.2549,-1334.8554 767.1895,-1314.7082 742.9064,-1302.5002 720.8746,-1295.1981"/>
<polygon fill="none" stroke="#000000" points="721.8682,-1291.842 711.2819,-1292.2688 719.8237,-1298.5368 721.8682,-1291.842"/>
</g>
<!-- \\Firesphere\\SolrCompatibility\\Extensions\\FulltextSearchExtension -->
<g id="node4" class="node">
<title>\\Firesphere\\SolrCompatibility\\Extensions\\FulltextSearchExtension</title>
<polygon fill="none" stroke="#000000" points="1009.2549,-694.8554 837.2549,-694.8554 837.2549,-658.8554 1009.2549,-658.8554 1009.2549,-694.8554"/>
<text text-anchor="middle" x="923.2549" y="-674.0554" font-family="Courier,monospace" font-size="11.00" fill="#000000">FulltextSearchExtension</text>
</g>
<!-- \\SilverStripe\\Core\\Extension -->
<g id="node60" class="node">
<title>\\SilverStripe\\Core\\Extension</title>
<ellipse fill="none" stroke="#000000" cx="254.1275" cy="-18.8554" rx="144.0747" ry="18"/>
<text text-anchor="middle" x="254.1275" y="-15.1554" font-family="Times,serif" font-size="14.00" fill="#c0c0c0">\SilverStripe\Core\Extension</text>
</g>
<!-- \\Firesphere\\SolrCompatibility\\Extensions\\FulltextSearchExtension&#45;&gt;\\SilverStripe\\Core\\Extension -->
<g id="edge2" class="edge">
<title>\\Firesphere\\SolrCompatibility\\Extensions\\FulltextSearchExtension&#45;&gt;\\SilverStripe\\Core\\Extension</title>
<path fill="none" stroke="#000000" d="M878.0271,-658.8442C857.1754,-648.1175 834.2234,-632.3452 821.2549,-610.8554 769.8406,-525.6581 846.9649,-239.5831 781.2549,-164.8554 748.642,-127.7669 711.9962,-170.8435 672.7549,-140.8554"/>
</g>
<!-- \\Firesphere\\SolrSearch\\States\\SiteState -->
<g id="node5" class="node">
<title>\\Firesphere\\SolrSearch\\States\\SiteState</title>
<polygon fill="none" stroke="#000000" points="714.7549,-2964.8554 630.7549,-2964.8554 630.7549,-2928.8554 714.7549,-2928.8554 714.7549,-2964.8554"/>
<text text-anchor="start" x="638.7549" y="-2950.0554" font-family="Courier,monospace" font-size="11.00" fill="#000000">«abstract»</text>
<text text-anchor="start" x="642.2549" y="-2938.0554" font-family="Courier,monospace" font-size="11.00" fill="#000000">SiteState</text>
</g>
<!-- \\Firesphere\\SolrSearch\\Results\\SearchResult -->
<g id="node6" class="node">
<title>\\Firesphere\\SolrSearch\\Results\\SearchResult</title>
<polygon fill="none" stroke="#000000" points="721.7549,-2884.8554 623.7549,-2884.8554 623.7549,-2848.8554 721.7549,-2848.8554 721.7549,-2884.8554"/>
<text text-anchor="middle" x="672.7549" y="-2864.0554" font-family="Courier,monospace" font-size="11.00" fill="#000000">SearchResult</text>
</g>
<!-- \\Firesphere\\SolrSearch\\Tasks\\SolrConfigureTask -->
<g id="node7" class="node">
<title>\\Firesphere\\SolrSearch\\Tasks\\SolrConfigureTask</title>
<polygon fill="none" stroke="#000000" points="738.2549,-2670.8554 607.2549,-2670.8554 607.2549,-2634.8554 738.2549,-2634.8554 738.2549,-2670.8554"/>
<text text-anchor="middle" x="672.7549" y="-2650.0554" font-family="Courier,monospace" font-size="11.00" fill="#000000">SolrConfigureTask</text>
</g>
<!-- \\SilverStripe\\Dev\\BuildTask -->
<g id="node61" class="node">
<title>\\SilverStripe\\Dev\\BuildTask</title>
<ellipse fill="none" stroke="#000000" cx="254.1275" cy="-126.8554" rx="139.9756" ry="18"/>
<text text-anchor="middle" x="254.1275" y="-123.1554" font-family="Times,serif" font-size="14.00" fill="#c0c0c0">\SilverStripe\Dev\BuildTask</text>
</g>
<!-- \\Firesphere\\SolrSearch\\Tasks\\SolrConfigureTask&#45;&gt;\\SilverStripe\\Dev\\BuildTask -->
<g id="edge4" class="edge">
<title>\\Firesphere\\SolrSearch\\Tasks\\SolrConfigureTask&#45;&gt;\\SilverStripe\\Dev\\BuildTask</title>
<path fill="none" stroke="#000000" d="M607.0328,-2647.1662C593.797,-2643.0214 581.2168,-2636.377 572.2549,-2625.8554 482.298,-2520.2429 524.6697,-2142.6118 508.2549,-2004.8554 418.2156,-1249.2275 283.4369,-326.0314 258.2568,-154.8491"/>
<polygon fill="none" stroke="#000000" points="261.7087,-154.2657 256.7895,-144.8821 254.7834,-155.2853 261.7087,-154.2657"/>
</g>
<!-- \\Firesphere\\SolrSearch\\Tasks\\ClearDirtyClassesTask -->
<g id="node8" class="node">
<title>\\Firesphere\\SolrSearch\\Tasks\\ClearDirtyClassesTask</title>
<polygon fill="none" stroke="#000000" points="751.7549,-2616.8554 593.7549,-2616.8554 593.7549,-2580.8554 751.7549,-2580.8554 751.7549,-2616.8554"/>
<text text-anchor="middle" x="672.7549" y="-2596.0554" font-family="Courier,monospace" font-size="11.00" fill="#000000">ClearDirtyClassesTask</text>
</g>
<!-- \\Firesphere\\SolrSearch\\Tasks\\ClearDirtyClassesTask&#45;&gt;\\SilverStripe\\Dev\\BuildTask -->
<g id="edge5" class="edge">
<title>\\Firesphere\\SolrSearch\\Tasks\\ClearDirtyClassesTask&#45;&gt;\\SilverStripe\\Dev\\BuildTask</title>
<path fill="none" stroke="#000000" d="M593.7018,-2587.8464C585.5691,-2583.907 578.1456,-2578.7038 572.2549,-2571.8554 489.5669,-2475.7255 523.8687,-2130.6906 508.2549,-2004.8554 414.5511,-1249.6731 282.7294,-326.1174 258.1544,-154.8615"/>
<polygon fill="none" stroke="#000000" points="261.6085,-154.2912 256.7227,-144.8902 254.6795,-155.2862 261.6085,-154.2912"/>
</g>
<!-- \\Firesphere\\SolrSearch\\Tasks\\SolrIndexTask -->
<g id="node9" class="node">
<title>\\Firesphere\\SolrSearch\\Tasks\\SolrIndexTask</title>
<polygon fill="none" stroke="#000000" points="724.7549,-2562.8554 620.7549,-2562.8554 620.7549,-2526.8554 724.7549,-2526.8554 724.7549,-2562.8554"/>
<text text-anchor="middle" x="672.7549" y="-2542.0554" font-family="Courier,monospace" font-size="11.00" fill="#000000">SolrIndexTask</text>
</g>
<!-- \\Firesphere\\SolrSearch\\Tasks\\SolrIndexTask&#45;&gt;\\SilverStripe\\Dev\\BuildTask -->
<g id="edge6" class="edge">
<title>\\Firesphere\\SolrSearch\\Tasks\\SolrIndexTask&#45;&gt;\\SilverStripe\\Dev\\BuildTask</title>
<path fill="none" stroke="#000000" d="M620.5397,-2542.389C602.7658,-2538.8652 584.3536,-2531.7554 572.2549,-2517.8554 496.8288,-2431.1999 523.0689,-2118.7801 508.2549,-2004.8554 410.1288,-1250.235 281.8757,-326.2259 258.0308,-154.8772"/>
<polygon fill="none" stroke="#000000" points="261.4874,-154.3224 256.642,-144.9005 254.5542,-155.2875 261.4874,-154.3224"/>
</g>
<!-- \\Firesphere\\SolrSearch\\Tasks\\ClearErrorsTask -->
<g id="node10" class="node">
<title>\\Firesphere\\SolrSearch\\Tasks\\ClearErrorsTask</title>
<polygon fill="none" stroke="#000000" points="731.7549,-2508.8554 613.7549,-2508.8554 613.7549,-2472.8554 731.7549,-2472.8554 731.7549,-2508.8554"/>
<text text-anchor="middle" x="672.7549" y="-2488.0554" font-family="Courier,monospace" font-size="11.00" fill="#000000">ClearErrorsTask</text>
</g>
<!-- \\Firesphere\\SolrSearch\\Tasks\\ClearErrorsTask&#45;&gt;\\SilverStripe\\Dev\\BuildTask -->
<g id="edge7" class="edge">
<title>\\Firesphere\\SolrSearch\\Tasks\\ClearErrorsTask&#45;&gt;\\SilverStripe\\Dev\\BuildTask</title>
<path fill="none" stroke="#000000" d="M613.7056,-2484.9278C598.1531,-2480.5421 582.7948,-2473.1654 572.2549,-2460.8554 569.7673,-2457.9501 293.6526,-418.8249 257.9215,-154.8844"/>
<polygon fill="none" stroke="#000000" points="261.3856,-154.3821 256.5756,-144.942 254.4488,-155.3212 261.3856,-154.3821"/>
</g>
<!-- \\Firesphere\\SolrSearch\\Services\\SchemaService -->
<g id="node11" class="node">
<title>\\Firesphere\\SolrSearch\\Services\\SchemaService</title>
<polygon fill="none" stroke="#000000" points="724.7549,-2804.8554 620.7549,-2804.8554 620.7549,-2768.8554 724.7549,-2768.8554 724.7549,-2804.8554"/>
<text text-anchor="middle" x="672.7549" y="-2784.0554" font-family="Courier,monospace" font-size="11.00" fill="#000000">SchemaService</text>
</g>
<!-- \\SilverStripe\\View\\ViewableData -->
<g id="node62" class="node">
<title>\\SilverStripe\\View\\ViewableData</title>
<ellipse fill="none" stroke="#000000" cx="254.1275" cy="-3694.8554" rx="163.2712" ry="18"/>
<text text-anchor="middle" x="254.1275" y="-3691.1554" font-family="Times,serif" font-size="14.00" fill="#c0c0c0">\SilverStripe\View\ViewableData</text>
</g>
<!-- \\Firesphere\\SolrSearch\\Services\\SchemaService&#45;&gt;\\SilverStripe\\View\\ViewableData -->
<g id="edge8" class="edge">
<title>\\Firesphere\\SolrSearch\\Services\\SchemaService&#45;&gt;\\SilverStripe\\View\\ViewableData</title>
<path fill="none" stroke="#000000" d="M620.5169,-2801.0287C602.2916,-2808.645 583.5815,-2820.0483 572.2549,-2836.8554 468.7477,-2990.4468 637.3089,-3535.0055 508.2549,-3667.8554 467.0737,-3710.2479 399.9416,-3715.8333 345.0159,-3711.4383"/>
<polygon fill="none" stroke="#000000" points="345.1899,-3707.9396 334.9111,-3710.5082 344.5482,-3714.9102 345.1899,-3707.9396"/>
</g>
<!-- \\Firesphere\\SolrSearch\\Services\\SolrCoreService -->
<g id="node12" class="node">
<title>\\Firesphere\\SolrSearch\\Services\\SolrCoreService</title>
<polygon fill="none" stroke="#000000" points="731.7549,-2750.8554 613.7549,-2750.8554 613.7549,-2714.8554 731.7549,-2714.8554 731.7549,-2750.8554"/>
<text text-anchor="middle" x="672.7549" y="-2730.0554" font-family="Courier,monospace" font-size="11.00" fill="#000000">SolrCoreService</text>
</g>
<!-- \\Firesphere\\SolrSearch\\Extensions\\DataObjectExtension -->
<g id="node13" class="node">
<title>\\Firesphere\\SolrSearch\\Extensions\\DataObjectExtension</title>
<polygon fill="none" stroke="#000000" points="745.2549,-2428.8554 600.2549,-2428.8554 600.2549,-2392.8554 745.2549,-2392.8554 745.2549,-2428.8554"/>
<text text-anchor="middle" x="672.7549" y="-2408.0554" font-family="Courier,monospace" font-size="11.00" fill="#000000">DataObjectExtension</text>
</g>
<!-- \\SilverStripe\\ORM\\DataExtension -->
<g id="node63" class="node">
<title>\\SilverStripe\\ORM\\DataExtension</title>
<ellipse fill="none" stroke="#000000" cx="254.1275" cy="-72.8554" rx="167.8704" ry="18"/>
<text text-anchor="middle" x="254.1275" y="-69.1554" font-family="Times,serif" font-size="14.00" fill="#c0c0c0">\SilverStripe\ORM\DataExtension</text>
</g>
<!-- \\Firesphere\\SolrSearch\\Extensions\\DataObjectExtension&#45;&gt;\\SilverStripe\\ORM\\DataExtension -->
<g id="edge9" class="edge">
<title>\\Firesphere\\SolrSearch\\Extensions\\DataObjectExtension&#45;&gt;\\SilverStripe\\ORM\\DataExtension</title>
<path fill="none" stroke="#000000" d="M600.0467,-2403.3902C589.2817,-2399.1571 579.4186,-2392.9316 572.2549,-2383.8554 414.964,-2184.5735 680.6527,-286.2226 508.2549,-99.8554 467.4123,-55.7033 398.5645,-50.7408 342.8242,-55.8436"/>
<polygon fill="none" stroke="#000000" points="342.164,-52.3933 332.5785,-56.9064 342.8863,-59.3559 342.164,-52.3933"/>
</g>
<!-- \\Firesphere\\SolrSearch\\Extensions\\GridFieldExtension -->
<g id="node14" class="node">
<title>\\Firesphere\\SolrSearch\\Extensions\\GridFieldExtension</title>
<polygon fill="none" stroke="#000000" points="741.7549,-2374.8554 603.7549,-2374.8554 603.7549,-2338.8554 741.7549,-2338.8554 741.7549,-2374.8554"/>
<text text-anchor="middle" x="672.7549" y="-2354.0554" font-family="Courier,monospace" font-size="11.00" fill="#000000">GridFieldExtension</text>
</g>
<!-- \\Firesphere\\SolrSearch\\Extensions\\GridFieldExtension&#45;&gt;\\SilverStripe\\Core\\Extension -->
<g id="edge10" class="edge">
<title>\\Firesphere\\SolrSearch\\Extensions\\GridFieldExtension&#45;&gt;\\SilverStripe\\Core\\Extension</title>
<path fill="none" stroke="#000000" d="M603.7428,-2348.6651C591.5168,-2344.0851 580.1793,-2337.1852 572.2549,-2326.8554 417.9308,-2125.687 680.4299,-231.9748 508.2549,-45.8554 466.3319,-.5371 394.9048,3.4935 338.4321,-2.2693"/>
<polygon fill="none" stroke="#000000" points="337.9719,1.201 328.4314,-3.4064 338.7628,-5.7542 337.9719,1.201"/>
</g>
<!-- \\Firesphere\\SolrSearch\\Factories\\DocumentFactory -->
<g id="node15" class="node">
<title>\\Firesphere\\SolrSearch\\Factories\\DocumentFactory</title>
<polygon fill="none" stroke="#000000" points="731.7549,-2294.8554 613.7549,-2294.8554 613.7549,-2258.8554 731.7549,-2258.8554 731.7549,-2294.8554"/>
<text text-anchor="middle" x="672.7549" y="-2274.0554" font-family="Courier,monospace" font-size="11.00" fill="#000000">DocumentFactory</text>
</g>
<!-- \\Firesphere\\SolrSearch\\Factories\\QueryComponentFactory -->
<g id="node16" class="node">
<title>\\Firesphere\\SolrSearch\\Factories\\QueryComponentFactory</title>
<polygon fill="none" stroke="#000000" points="751.7549,-2240.8554 593.7549,-2240.8554 593.7549,-2204.8554 751.7549,-2204.8554 751.7549,-2240.8554"/>
<text text-anchor="middle" x="672.7549" y="-2220.0554" font-family="Courier,monospace" font-size="11.00" fill="#000000">QueryComponentFactory</text>
</g>
<!-- \\Firesphere\\SolrSearch\\Stores\\PostConfigStore -->
<g id="node17" class="node">
<title>\\Firesphere\\SolrSearch\\Stores\\PostConfigStore</title>
<polygon fill="none" stroke="#000000" points="731.7549,-2160.8554 613.7549,-2160.8554 613.7549,-2124.8554 731.7549,-2124.8554 731.7549,-2160.8554"/>
<text text-anchor="middle" x="672.7549" y="-2140.0554" font-family="Courier,monospace" font-size="11.00" fill="#000000">PostConfigStore</text>
</g>
<!-- \\Firesphere\\SolrSearch\\Interfaces\\ConfigStore -->
<g id="node31" class="node">
<title>\\Firesphere\\SolrSearch\\Interfaces\\ConfigStore</title>
<polygon fill="none" stroke="#000000" points="299.6275,-2106.8554 208.6275,-2106.8554 208.6275,-2070.8554 299.6275,-2070.8554 299.6275,-2106.8554"/>
<text text-anchor="middle" x="254.1275" y="-2086.0554" font-family="Courier,monospace" font-size="11.00" fill="#000000">ConfigStore</text>
</g>
<!-- \\Firesphere\\SolrSearch\\Stores\\PostConfigStore&#45;&gt;\\Firesphere\\SolrSearch\\Interfaces\\ConfigStore -->
<g id="edge11" class="edge">
<title>\\Firesphere\\SolrSearch\\Stores\\PostConfigStore&#45;&gt;\\Firesphere\\SolrSearch\\Interfaces\\ConfigStore</title>
<path fill="none" stroke="#000000" stroke-dasharray="1,5" d="M613.6637,-2135.2331C532.8854,-2124.8133 389.0185,-2106.2554 309.9722,-2096.059"/>
<polygon fill="none" stroke="#000000" points="310.0944,-2092.5459 299.7287,-2094.7377 309.1988,-2099.4883 310.0944,-2092.5459"/>
</g>
<!-- \\Firesphere\\SolrSearch\\Stores\\FileConfigStore -->
<g id="node18" class="node">
<title>\\Firesphere\\SolrSearch\\Stores\\FileConfigStore</title>
<polygon fill="none" stroke="#000000" points="731.7549,-2106.8554 613.7549,-2106.8554 613.7549,-2070.8554 731.7549,-2070.8554 731.7549,-2106.8554"/>
<text text-anchor="middle" x="672.7549" y="-2086.0554" font-family="Courier,monospace" font-size="11.00" fill="#000000">FileConfigStore</text>
</g>
<!-- \\Firesphere\\SolrSearch\\Stores\\FileConfigStore&#45;&gt;\\Firesphere\\SolrSearch\\Interfaces\\ConfigStore -->
<g id="edge12" class="edge">
<title>\\Firesphere\\SolrSearch\\Stores\\FileConfigStore&#45;&gt;\\Firesphere\\SolrSearch\\Interfaces\\ConfigStore</title>
<path fill="none" stroke="#000000" stroke-dasharray="1,5" d="M613.6637,-2088.8554C532.8854,-2088.8554 389.0185,-2088.8554 309.9722,-2088.8554"/>
<polygon fill="none" stroke="#000000" points="309.7288,-2085.3555 299.7287,-2088.8554 309.7287,-2092.3555 309.7288,-2085.3555"/>
</g>
<!-- \\Firesphere\\SolrSearch\\Helpers\\DataResolver -->
<g id="node19" class="node">
<title>\\Firesphere\\SolrSearch\\Helpers\\DataResolver</title>
<polygon fill="none" stroke="#000000" points="721.7549,-2026.8554 623.7549,-2026.8554 623.7549,-1990.8554 721.7549,-1990.8554 721.7549,-2026.8554"/>
<text text-anchor="middle" x="672.7549" y="-2006.0554" font-family="Courier,monospace" font-size="11.00" fill="#000000">DataResolver</text>
</g>
<!-- \\Firesphere\\SolrSearch\\Helpers\\SolrLogger -->
<g id="node20" class="node">
<title>\\Firesphere\\SolrSearch\\Helpers\\SolrLogger</title>
<polygon fill="none" stroke="#000000" points="714.7549,-1972.8554 630.7549,-1972.8554 630.7549,-1936.8554 714.7549,-1936.8554 714.7549,-1972.8554"/>
<text text-anchor="middle" x="672.7549" y="-1952.0554" font-family="Courier,monospace" font-size="11.00" fill="#000000">SolrLogger</text>
</g>
<!-- \\Firesphere\\SolrSearch\\Helpers\\FieldResolver -->
<g id="node21" class="node">
<title>\\Firesphere\\SolrSearch\\Helpers\\FieldResolver</title>
<polygon fill="none" stroke="#000000" points="724.7549,-1918.8554 620.7549,-1918.8554 620.7549,-1882.8554 724.7549,-1882.8554 724.7549,-1918.8554"/>
<text text-anchor="middle" x="672.7549" y="-1898.0554" font-family="Courier,monospace" font-size="11.00" fill="#000000">FieldResolver</text>
</g>
<!-- \\Firesphere\\SolrSearch\\Helpers\\Synonyms -->
<g id="node22" class="node">
<title>\\Firesphere\\SolrSearch\\Helpers\\Synonyms</title>
<polygon fill="none" stroke="#000000" points="708.2549,-1864.8554 637.2549,-1864.8554 637.2549,-1828.8554 708.2549,-1828.8554 708.2549,-1864.8554"/>
<text text-anchor="middle" x="672.7549" y="-1844.0554" font-family="Courier,monospace" font-size="11.00" fill="#000000">Synonyms</text>
</g>
<!-- \\Firesphere\\SolrSearch\\Helpers\\Statics -->
<g id="node23" class="node">
<title>\\Firesphere\\SolrSearch\\Helpers\\Statics</title>
<polygon fill="none" stroke="#000000" points="704.7549,-1810.8554 640.7549,-1810.8554 640.7549,-1774.8554 704.7549,-1774.8554 704.7549,-1810.8554"/>
<text text-anchor="middle" x="672.7549" y="-1790.0554" font-family="Courier,monospace" font-size="11.00" fill="#000000">Statics</text>
</g>
<!-- \\Firesphere\\SolrSearch\\Models\\SolrLog -->
<g id="node24" class="node">
<title>\\Firesphere\\SolrSearch\\Models\\SolrLog</title>
<polygon fill="none" stroke="#000000" points="704.7549,-1622.8554 640.7549,-1622.8554 640.7549,-1586.8554 704.7549,-1586.8554 704.7549,-1622.8554"/>
<text text-anchor="middle" x="672.7549" y="-1602.0554" font-family="Courier,monospace" font-size="11.00" fill="#000000">SolrLog</text>
</g>
<!-- \\SilverStripe\\ORM\\DataObject -->
<g id="node64" class="node">
<title>\\SilverStripe\\ORM\\DataObject</title>
<ellipse fill="none" stroke="#000000" cx="254.1275" cy="-3640.8554" rx="152.9733" ry="18"/>
<text text-anchor="middle" x="254.1275" y="-3637.1554" font-family="Times,serif" font-size="14.00" fill="#c0c0c0">\SilverStripe\ORM\DataObject</text>
</g>
<!-- \\Firesphere\\SolrSearch\\Models\\SolrLog&#45;&gt;\\SilverStripe\\ORM\\DataObject -->
<g id="edge13" class="edge">
<title>\\Firesphere\\SolrSearch\\Models\\SolrLog&#45;&gt;\\SilverStripe\\ORM\\DataObject</title>
<path fill="none" stroke="#000000" d="M640.6787,-1604.1595C617.7824,-1605.5579 588.3045,-1611.6102 572.2549,-1631.8554 435.3755,-1804.5182 658.2215,-3452.4292 508.2549,-3613.8554 466.6635,-3658.6251 396.2669,-3663.037 340.099,-3657.5581"/>
<polygon fill="none" stroke="#000000" points="340.4659,-3654.0774 330.1449,-3656.4708 339.7057,-3661.036 340.4659,-3654.0774"/>
</g>
<!-- \\SilverStripe\\Security\\PermissionProvider -->
<g id="node65" class="node">
<title>\\SilverStripe\\Security\\PermissionProvider</title>
<ellipse fill="none" stroke="#000000" cx="254.1275" cy="-3586.8554" rx="206.0634" ry="18"/>
<text text-anchor="middle" x="254.1275" y="-3583.1554" font-family="Times,serif" font-size="14.00" fill="#c0c0c0">\SilverStripe\Security\PermissionProvider</text>
</g>
<!-- \\Firesphere\\SolrSearch\\Models\\SolrLog&#45;&gt;\\SilverStripe\\Security\\PermissionProvider -->
<g id="edge14" class="edge">
<title>\\Firesphere\\SolrSearch\\Models\\SolrLog&#45;&gt;\\SilverStripe\\Security\\PermissionProvider</title>
<path fill="none" stroke="#000000" stroke-dasharray="1,5" d="M640.6841,-1604.1638C617.7904,-1605.5643 588.3136,-1611.6174 572.2549,-1631.8554 439.025,-1799.7588 654.2108,-3402.8886 508.2549,-3559.8554 468.5782,-3602.5254 402.7326,-3608.522 348.0084,-3604.2424"/>
<polygon fill="none" stroke="#000000" points="348.2032,-3600.7458 337.9285,-3603.3303 347.5723,-3607.7173 348.2032,-3600.7458"/>
</g>
<!-- \\Firesphere\\SolrSearch\\Models\\SearchSynonym -->
<g id="node25" class="node">
<title>\\Firesphere\\SolrSearch\\Models\\SearchSynonym</title>
<polygon fill="none" stroke="#000000" points="724.7549,-1676.8554 620.7549,-1676.8554 620.7549,-1640.8554 724.7549,-1640.8554 724.7549,-1676.8554"/>
<text text-anchor="middle" x="672.7549" y="-1656.0554" font-family="Courier,monospace" font-size="11.00" fill="#000000">SearchSynonym</text>
</g>
<!-- \\Firesphere\\SolrSearch\\Models\\SearchSynonym&#45;&gt;\\SilverStripe\\ORM\\DataObject -->
<g id="edge15" class="edge">
<title>\\Firesphere\\SolrSearch\\Models\\SearchSynonym&#45;&gt;\\SilverStripe\\ORM\\DataObject</title>
<path fill="none" stroke="#000000" d="M620.6274,-1660.5902C602.5298,-1663.9906 583.8778,-1671.2076 572.2549,-1685.8554 439.025,-1853.7588 654.2108,-3456.8886 508.2549,-3613.8554 466.7145,-3658.5296 396.4893,-3663.0044 340.3746,-3657.5741"/>
<polygon fill="none" stroke="#000000" points="340.748,-3654.0941 330.4289,-3656.4954 339.9932,-3661.0533 340.748,-3654.0941"/>
</g>
<!-- \\Firesphere\\SolrSearch\\Models\\DirtyClass -->
<g id="node26" class="node">
<title>\\Firesphere\\SolrSearch\\Models\\DirtyClass</title>
<polygon fill="none" stroke="#000000" points="714.7549,-1730.8554 630.7549,-1730.8554 630.7549,-1694.8554 714.7549,-1694.8554 714.7549,-1730.8554"/>
<text text-anchor="middle" x="672.7549" y="-1710.0554" font-family="Courier,monospace" font-size="11.00" fill="#000000">DirtyClass</text>
</g>
<!-- \\Firesphere\\SolrSearch\\Models\\DirtyClass&#45;&gt;\\SilverStripe\\ORM\\DataObject -->
<g id="edge16" class="edge">
<title>\\Firesphere\\SolrSearch\\Models\\DirtyClass&#45;&gt;\\SilverStripe\\ORM\\DataObject</title>
<path fill="none" stroke="#000000" d="M630.5812,-1722.8192C609.3207,-1730.169 585.3328,-1742.535 572.2549,-1762.8554 460.8837,-1935.904 648.4921,-3463.2471 508.2549,-3613.8554 466.6837,-3658.501 396.4607,-3662.9778 340.3548,-3657.5557"/>
<polygon fill="none" stroke="#000000" points="340.7295,-3654.0759 330.4107,-3656.4785 339.9756,-3661.0351 340.7295,-3654.0759"/>
</g>
<!-- \\Firesphere\\SolrSearch\\Forms\\SearchForm -->
<g id="node27" class="node">
<title>\\Firesphere\\SolrSearch\\Forms\\SearchForm</title>
<polygon fill="none" stroke="#000000" points="714.7549,-1542.8554 630.7549,-1542.8554 630.7549,-1506.8554 714.7549,-1506.8554 714.7549,-1542.8554"/>
<text text-anchor="middle" x="672.7549" y="-1522.0554" font-family="Courier,monospace" font-size="11.00" fill="#000000">SearchForm</text>
</g>
<!-- \\SilverStripe\\Forms\\Form -->
<g id="node66" class="node">
<title>\\SilverStripe\\Forms\\Form</title>
<ellipse fill="none" stroke="#000000" cx="254.1275" cy="-3532.8554" rx="129.1772" ry="18"/>
<text text-anchor="middle" x="254.1275" y="-3529.1554" font-family="Times,serif" font-size="14.00" fill="#c0c0c0">\SilverStripe\Forms\Form</text>
</g>
<!-- \\Firesphere\\SolrSearch\\Forms\\SearchForm&#45;&gt;\\SilverStripe\\Forms\\Form -->
<g id="edge17" class="edge">
<title>\\Firesphere\\SolrSearch\\Forms\\SearchForm&#45;&gt;\\SilverStripe\\Forms\\Form</title>
<path fill="none" stroke="#000000" d="M630.5696,-1534.8117C609.3057,-1542.1594 585.3183,-1554.5256 572.2549,-1574.8554 456.205,-1755.4574 654.4336,-3348.6408 508.2549,-3505.8554 465.5757,-3551.7568 392.6142,-3555.2207 335.788,-3549.1059"/>
<polygon fill="none" stroke="#000000" points="336.0808,-3545.6161 325.7368,-3547.908 335.2523,-3552.5669 336.0808,-3545.6161"/>
</g>
<!-- \\Firesphere\\SolrSearch\\Admins\\SearchAdmin -->
<g id="node29" class="node">
<title>\\Firesphere\\SolrSearch\\Admins\\SearchAdmin</title>
<polygon fill="none" stroke="#000000" points="718.2549,-1382.8554 627.2549,-1382.8554 627.2549,-1346.8554 718.2549,-1346.8554 718.2549,-1382.8554"/>
<text text-anchor="middle" x="672.7549" y="-1362.0554" font-family="Courier,monospace" font-size="11.00" fill="#000000">SearchAdmin</text>
</g>
<!-- \\SilverStripe\\Admin\\ModelAdmin -->
<g id="node67" class="node">
<title>\\SilverStripe\\Admin\\ModelAdmin</title>
<ellipse fill="none" stroke="#000000" cx="254.1275" cy="-3478.8554" rx="165.1707" ry="18"/>
<text text-anchor="middle" x="254.1275" y="-3475.1554" font-family="Times,serif" font-size="14.00" fill="#c0c0c0">\SilverStripe\Admin\ModelAdmin</text>
</g>
<!-- \\Firesphere\\SolrSearch\\Admins\\SearchAdmin&#45;&gt;\\SilverStripe\\Admin\\ModelAdmin -->
<g id="edge18" class="edge">
<title>\\Firesphere\\SolrSearch\\Admins\\SearchAdmin&#45;&gt;\\SilverStripe\\Admin\\ModelAdmin</title>
<path fill="none" stroke="#000000" d="M627.1907,-1375.9997C606.803,-1383.4662 584.6169,-1395.5807 572.2549,-1414.8554 450.0056,-1605.4662 662.3065,-3285.8872 508.2549,-3451.8554 467.2663,-3496.0147 398.2549,-3500.922 342.4844,-3495.7946"/>
<polygon fill="none" stroke="#000000" points="342.5433,-3492.2819 332.2346,-3494.7276 341.8185,-3499.2443 342.5433,-3492.2819"/>
</g>
<!-- \\Firesphere\\SolrSearch\\Interfaces\\SiteStateInterface -->
<g id="node30" class="node">
<title>\\Firesphere\\SolrSearch\\Interfaces\\SiteStateInterface</title>
<polygon fill="none" stroke="#000000" points="323.1275,-2052.8554 185.1275,-2052.8554 185.1275,-2016.8554 323.1275,-2016.8554 323.1275,-2052.8554"/>
<text text-anchor="middle" x="254.1275" y="-2032.0554" font-family="Courier,monospace" font-size="11.00" fill="#000000">SiteStateInterface</text>
</g>
<!-- \\Firesphere\\SolrSearch\\Traits\\DocumentFactoryTrait -->
<g id="node33" class="node">
<title>\\Firesphere\\SolrSearch\\Traits\\DocumentFactoryTrait</title>
<polygon fill="none" stroke="#000000" points="748.7549,-1222.8554 596.7549,-1222.8554 596.7549,-1186.8554 748.7549,-1186.8554 748.7549,-1222.8554"/>
<text text-anchor="middle" x="672.7549" y="-1202.0554" font-family="Courier,monospace" font-size="11.00" fill="#000000">DocumentFactoryTrait</text>
</g>
<!-- \\Firesphere\\SolrSearch\\Traits\\QueryComponentBoostTrait -->
<g id="node34" class="node">
<title>\\Firesphere\\SolrSearch\\Traits\\QueryComponentBoostTrait</title>
<polygon fill="none" stroke="#000000" points="762.2549,-1168.8554 583.2549,-1168.8554 583.2549,-1132.8554 762.2549,-1132.8554 762.2549,-1168.8554"/>
<text text-anchor="middle" x="672.7549" y="-1148.0554" font-family="Courier,monospace" font-size="11.00" fill="#000000">QueryComponentBoostTrait</text>
</g>
<!-- \\Firesphere\\SolrSearch\\Traits\\QueryComponentFilterTrait -->
<g id="node35" class="node">
<title>\\Firesphere\\SolrSearch\\Traits\\QueryComponentFilterTrait</title>
<polygon fill="none" stroke="#000000" points="765.2549,-1114.8554 580.2549,-1114.8554 580.2549,-1078.8554 765.2549,-1078.8554 765.2549,-1114.8554"/>
<text text-anchor="middle" x="672.7549" y="-1094.0554" font-family="Courier,monospace" font-size="11.00" fill="#000000">QueryComponentFilterTrait</text>
</g>
<!-- \\Firesphere\\SolrSearch\\Traits\\QueryComponentFacetTrait -->
<g id="node36" class="node">
<title>\\Firesphere\\SolrSearch\\Traits\\QueryComponentFacetTrait</title>
<polygon fill="none" stroke="#000000" points="762.2549,-1060.8554 583.2549,-1060.8554 583.2549,-1024.8554 762.2549,-1024.8554 762.2549,-1060.8554"/>
<text text-anchor="middle" x="672.7549" y="-1040.0554" font-family="Courier,monospace" font-size="11.00" fill="#000000">QueryComponentFacetTrait</text>
</g>
<!-- \\Firesphere\\SolrSearch\\Traits\\DataResolveTrait -->
<g id="node37" class="node">
<title>\\Firesphere\\SolrSearch\\Traits\\DataResolveTrait</title>
<polygon fill="none" stroke="#000000" points="735.2549,-1006.8554 610.2549,-1006.8554 610.2549,-970.8554 735.2549,-970.8554 735.2549,-1006.8554"/>
<text text-anchor="middle" x="672.7549" y="-986.0554" font-family="Courier,monospace" font-size="11.00" fill="#000000">DataResolveTrait</text>
</g>
<!-- \\Firesphere\\SolrSearch\\Traits\\BaseIndexTrait -->
<g id="node38" class="node">
<title>\\Firesphere\\SolrSearch\\Traits\\BaseIndexTrait</title>
<polygon fill="none" stroke="#000000" points="728.2549,-952.8554 617.2549,-952.8554 617.2549,-916.8554 728.2549,-916.8554 728.2549,-952.8554"/>
<text text-anchor="middle" x="672.7549" y="-932.0554" font-family="Courier,monospace" font-size="11.00" fill="#000000">BaseIndexTrait</text>
</g>
<!-- \\Firesphere\\SolrSearch\\Traits\\SolrIndexTrait -->
<g id="node39" class="node">
<title>\\Firesphere\\SolrSearch\\Traits\\SolrIndexTrait</title>
<polygon fill="none" stroke="#000000" points="728.2549,-898.8554 617.2549,-898.8554 617.2549,-862.8554 728.2549,-862.8554 728.2549,-898.8554"/>
<text text-anchor="middle" x="672.7549" y="-878.0554" font-family="Courier,monospace" font-size="11.00" fill="#000000">SolrIndexTrait</text>
</g>
<!-- \\Firesphere\\SolrSearch\\Traits\\GetSetSchemaServiceTrait -->
<g id="node40" class="node">
<title>\\Firesphere\\SolrSearch\\Traits\\GetSetSchemaServiceTrait</title>
<polygon fill="none" stroke="#000000" points="762.2549,-844.8554 583.2549,-844.8554 583.2549,-808.8554 762.2549,-808.8554 762.2549,-844.8554"/>
<text text-anchor="middle" x="672.7549" y="-824.0554" font-family="Courier,monospace" font-size="11.00" fill="#000000">GetSetSchemaServiceTrait</text>
</g>
<!-- \\Firesphere\\SolrSearch\\Traits\\LoggerTrait -->
<g id="node41" class="node">
<title>\\Firesphere\\SolrSearch\\Traits\\LoggerTrait</title>
<polygon fill="none" stroke="#000000" points="718.2549,-790.8554 627.2549,-790.8554 627.2549,-754.8554 718.2549,-754.8554 718.2549,-790.8554"/>
<text text-anchor="middle" x="672.7549" y="-770.0554" font-family="Courier,monospace" font-size="11.00" fill="#000000">LoggerTrait</text>
</g>
<!-- \\Firesphere\\SolrSearch\\Traits\\SearchResultGetTrait -->
<g id="node42" class="node">
<title>\\Firesphere\\SolrSearch\\Traits\\SearchResultGetTrait</title>
<polygon fill="none" stroke="#000000" points="748.7549,-736.8554 596.7549,-736.8554 596.7549,-700.8554 748.7549,-700.8554 748.7549,-736.8554"/>
<text text-anchor="middle" x="672.7549" y="-716.0554" font-family="Courier,monospace" font-size="11.00" fill="#000000">SearchResultGetTrait</text>
</g>
<!-- \\Firesphere\\SolrSearch\\Traits\\SearchResultSetTrait -->
<g id="node43" class="node">
<title>\\Firesphere\\SolrSearch\\Traits\\SearchResultSetTrait</title>
<polygon fill="none" stroke="#000000" points="748.7549,-682.8554 596.7549,-682.8554 596.7549,-646.8554 748.7549,-646.8554 748.7549,-682.8554"/>
<text text-anchor="middle" x="672.7549" y="-662.0554" font-family="Courier,monospace" font-size="11.00" fill="#000000">SearchResultSetTrait</text>
</g>
<!-- \\Firesphere\\SolrSearch\\Traits\\BaseQueryTrait -->
<g id="node44" class="node">
<title>\\Firesphere\\SolrSearch\\Traits\\BaseQueryTrait</title>
<polygon fill="none" stroke="#000000" points="728.2549,-628.8554 617.2549,-628.8554 617.2549,-592.8554 728.2549,-592.8554 728.2549,-628.8554"/>
<text text-anchor="middle" x="672.7549" y="-608.0554" font-family="Courier,monospace" font-size="11.00" fill="#000000">BaseQueryTrait</text>
</g>
<!-- \\Firesphere\\SolrSearch\\Traits\\GetSetSearchResolverTrait -->
<g id="node45" class="node">
<title>\\Firesphere\\SolrSearch\\Traits\\GetSetSearchResolverTrait</title>
<polygon fill="none" stroke="#000000" points="765.2549,-574.8554 580.2549,-574.8554 580.2549,-538.8554 765.2549,-538.8554 765.2549,-574.8554"/>
<text text-anchor="middle" x="672.7549" y="-554.0554" font-family="Courier,monospace" font-size="11.00" fill="#000000">GetSetSearchResolverTrait</text>
</g>
<!-- \\Firesphere\\SolrSearch\\Traits\\GetterSetterTrait -->
<g id="node46" class="node">
<title>\\Firesphere\\SolrSearch\\Traits\\GetterSetterTrait</title>
<polygon fill="none" stroke="#000000" points="738.2549,-520.8554 607.2549,-520.8554 607.2549,-484.8554 738.2549,-484.8554 738.2549,-520.8554"/>
<text text-anchor="middle" x="672.7549" y="-500.0554" font-family="Courier,monospace" font-size="11.00" fill="#000000">GetterSetterTrait</text>
</g>
<!-- \\Firesphere\\SolrSearch\\Traits\\CoreAdminTrait -->
<g id="node47" class="node">
<title>\\Firesphere\\SolrSearch\\Traits\\CoreAdminTrait</title>
<polygon fill="none" stroke="#000000" points="728.2549,-466.8554 617.2549,-466.8554 617.2549,-430.8554 728.2549,-430.8554 728.2549,-466.8554"/>
<text text-anchor="middle" x="672.7549" y="-446.0554" font-family="Courier,monospace" font-size="11.00" fill="#000000">CoreAdminTrait</text>
</g>
<!-- \\Firesphere\\SolrSearch\\Traits\\CoreServiceTrait -->
<g id="node48" class="node">
<title>\\Firesphere\\SolrSearch\\Traits\\CoreServiceTrait</title>
<polygon fill="none" stroke="#000000" points="735.2549,-412.8554 610.2549,-412.8554 610.2549,-376.8554 735.2549,-376.8554 735.2549,-412.8554"/>
<text text-anchor="middle" x="672.7549" y="-392.0554" font-family="Courier,monospace" font-size="11.00" fill="#000000">CoreServiceTrait</text>
</g>
<!-- \\Firesphere\\SolrSearch\\Jobs\\ClearDirtyClassesJob -->
<g id="node49" class="node">
<title>\\Firesphere\\SolrSearch\\Jobs\\ClearDirtyClassesJob</title>
<polygon fill="none" stroke="#000000" points="748.7549,-332.8554 596.7549,-332.8554 596.7549,-296.8554 748.7549,-296.8554 748.7549,-332.8554"/>
<text text-anchor="middle" x="672.7549" y="-312.0554" font-family="Courier,monospace" font-size="11.00" fill="#000000">ClearDirtyClassesJob</text>
</g>
<!-- \\Symbiote\\QueuedJobs\\Services\\AbstractQueuedJob -->
<g id="node68" class="node">
<title>\\Symbiote\\QueuedJobs\\Services\\AbstractQueuedJob</title>
<ellipse fill="none" stroke="#000000" cx="254.1275" cy="-3424.8554" rx="254.255" ry="18"/>
<text text-anchor="middle" x="254.1275" y="-3421.1554" font-family="Times,serif" font-size="14.00" fill="#c0c0c0">\Symbiote\QueuedJobs\Services\AbstractQueuedJob</text>
</g>
<!-- \\Firesphere\\SolrSearch\\Jobs\\ClearDirtyClassesJob&#45;&gt;\\Symbiote\\QueuedJobs\\Services\\AbstractQueuedJob -->
<g id="edge19" class="edge">
<title>\\Firesphere\\SolrSearch\\Jobs\\ClearDirtyClassesJob&#45;&gt;\\Symbiote\\QueuedJobs\\Services\\AbstractQueuedJob</title>
<path fill="none" stroke="#000000" d="M610.9353,-332.9539C595.8238,-340.385 581.3884,-350.6871 572.2549,-364.8554 465.3867,-530.6341 531.0009,-1942.9321 508.2549,-2138.8554 448.9762,-2649.4542 296.4783,-3260.1263 261.398,-3396.8183"/>
<polygon fill="none" stroke="#000000" points="258.0025,-3395.9696 258.8991,-3406.5264 264.7815,-3397.7146 258.0025,-3395.9696"/>
</g>
<!-- \\Firesphere\\SolrSearch\\Jobs\\SolrIndexJob -->
<g id="node50" class="node">
<title>\\Firesphere\\SolrSearch\\Jobs\\SolrIndexJob</title>
<polygon fill="none" stroke="#000000" points="721.7549,-278.8554 623.7549,-278.8554 623.7549,-242.8554 721.7549,-242.8554 721.7549,-278.8554"/>
<text text-anchor="middle" x="672.7549" y="-258.0554" font-family="Courier,monospace" font-size="11.00" fill="#000000">SolrIndexJob</text>
</g>
<!-- \\Firesphere\\SolrSearch\\Jobs\\SolrIndexJob&#45;&gt;\\Symbiote\\QueuedJobs\\Services\\AbstractQueuedJob -->
<g id="edge20" class="edge">
<title>\\Firesphere\\SolrSearch\\Jobs\\SolrIndexJob&#45;&gt;\\Symbiote\\QueuedJobs\\Services\\AbstractQueuedJob</title>
<path fill="none" stroke="#000000" d="M623.5173,-262.0883C604.5442,-265.2543 584.5061,-272.4377 572.2549,-287.8554 508.2418,-368.4139 520.0443,-2036.6383 508.2549,-2138.8554 449.3588,-2649.4985 296.5684,-3260.1368 261.4139,-3396.8201"/>
<polygon fill="none" stroke="#000000" points="258.0186,-3395.9703 258.9096,-3406.5276 264.7967,-3397.719 258.0186,-3395.9703"/>
</g>
<!-- \\Firesphere\\SolrSearch\\Jobs\\SolrConfigureJob -->
<g id="node51" class="node">
<title>\\Firesphere\\SolrSearch\\Jobs\\SolrConfigureJob</title>
<polygon fill="none" stroke="#000000" points="735.2549,-224.8554 610.2549,-224.8554 610.2549,-188.8554 735.2549,-188.8554 735.2549,-224.8554"/>
<text text-anchor="middle" x="672.7549" y="-204.0554" font-family="Courier,monospace" font-size="11.00" fill="#000000">SolrConfigureJob</text>
</g>
<!-- \\Firesphere\\SolrSearch\\Jobs\\SolrConfigureJob&#45;&gt;\\Symbiote\\QueuedJobs\\Services\\AbstractQueuedJob -->
<g id="edge21" class="edge">
<title>\\Firesphere\\SolrSearch\\Jobs\\SolrConfigureJob&#45;&gt;\\Symbiote\\QueuedJobs\\Services\\AbstractQueuedJob</title>
<path fill="none" stroke="#000000" d="M610.1319,-211.0177C595.587,-215.0598 581.6342,-222.04 572.2549,-233.8554 506.4172,-316.7935 520.3364,-2033.6539 508.2549,-2138.8554 449.6088,-2649.5273 296.6272,-3260.1435 261.4243,-3396.8213"/>
<polygon fill="none" stroke="#000000" points="258.0292,-3395.9708 258.9165,-3406.5284 264.8067,-3397.7218 258.0292,-3395.9708"/>
</g>
<!-- \\Firesphere\\SolrFluent\\States\\FluentSiteState -->
<g id="node52" class="node">
<title>\\Firesphere\\SolrFluent\\States\\FluentSiteState</title>
<polygon fill="none" stroke="#000000" points="982.2549,-578.8554 864.2549,-578.8554 864.2549,-542.8554 982.2549,-542.8554 982.2549,-578.8554"/>
<text text-anchor="middle" x="923.2549" y="-558.0554" font-family="Courier,monospace" font-size="11.00" fill="#000000">FluentSiteState</text>
</g>
<!-- \\Firesphere\\SolrFluent\\States\\FluentSiteState&#45;&gt;\\Firesphere\\SolrSearch\\States\\SiteState -->
<g id="edge22" class="edge">
<title>\\Firesphere\\SolrFluent\\States\\FluentSiteState&#45;&gt;\\Firesphere\\SolrSearch\\States\\SiteState</title>
<path fill="none" stroke="#000000" d="M889.2441,-579.0028C865.4305,-593.778 835.4319,-617.0485 821.2549,-646.8554 767.0794,-760.7588 858.5209,-2817.1613 781.2549,-2916.8554 767.9827,-2933.9803 745.8586,-2941.8993 725.0382,-2945.3742"/>
<polygon fill="none" stroke="#000000" points="724.4035,-2941.9282 714.9664,-2946.7439 725.3469,-2948.8643 724.4035,-2941.9282"/>
</g>
<!-- \\Firesphere\\SolrFluent\\States\\FluentSiteState&#45;&gt;\\Firesphere\\SolrSearch\\Interfaces\\SiteStateInterface -->
<g id="edge23" class="edge">
<title>\\Firesphere\\SolrFluent\\States\\FluentSiteState&#45;&gt;\\Firesphere\\SolrSearch\\Interfaces\\SiteStateInterface</title>
<path fill="none" stroke="#000000" stroke-dasharray="1,5" d="M864.2214,-555.562C848.0697,-551.226 832.0583,-543.7174 821.2549,-530.8554 770.3369,-470.2352 838.5643,-231.4731 781.2549,-176.8554 746.2741,-143.5177 720.8147,-164.8235 672.7549,-169.8554"/>
<path fill="none" stroke="#000000" stroke-dasharray="1,5" d="M672.7549,-169.8554C628.2234,-174.5179 605.4589,-146.8174 572.2549,-176.8554 286.1521,-435.6792 257.2019,-1793.7765 254.4134,-2006.7451"/>
<polygon fill="none" stroke="#000000" points="250.913,-2006.7613 254.2904,-2016.8034 257.9125,-2006.8469 250.913,-2006.7613"/>
</g>
<!-- \\Firesphere\\SolrFluent\\Extensions\\FluentDocumentExtension -->
<g id="node53" class="node">
<title>\\Firesphere\\SolrFluent\\Extensions\\FluentDocumentExtension</title>
<polygon fill="none" stroke="#000000" points="1009.2549,-498.8554 837.2549,-498.8554 837.2549,-462.8554 1009.2549,-462.8554 1009.2549,-498.8554"/>
<text text-anchor="middle" x="923.2549" y="-478.0554" font-family="Courier,monospace" font-size="11.00" fill="#000000">FluentDocumentExtension</text>
</g>
<!-- \\Firesphere\\SolrFluent\\Extensions\\FluentDocumentExtension&#45;&gt;\\SilverStripe\\Core\\Extension -->
<g id="edge24" class="edge">
<title>\\Firesphere\\SolrFluent\\Extensions\\FluentDocumentExtension&#45;&gt;\\SilverStripe\\Core\\Extension</title>
<path fill="none" stroke="#000000" d="M836.8964,-466.5246C831.0736,-463.101 825.7484,-458.9296 821.2549,-453.8554 735.2882,-356.7794 869.1972,-260.1454 781.2549,-164.8554 747.7597,-128.5617 711.9962,-170.8435 672.7549,-140.8554"/>
</g>
<!-- \\Firesphere\\SolrFluent\\Extensions\\FluentIndexExtension -->
<g id="node54" class="node">
<title>\\Firesphere\\SolrFluent\\Extensions\\FluentIndexExtension</title>
<polygon fill="none" stroke="#000000" points="999.2549,-444.8554 847.2549,-444.8554 847.2549,-408.8554 999.2549,-408.8554 999.2549,-444.8554"/>
<text text-anchor="middle" x="923.2549" y="-424.0554" font-family="Courier,monospace" font-size="11.00" fill="#000000">FluentIndexExtension</text>
</g>
<!-- \\Firesphere\\SolrFluent\\Extensions\\FluentIndexExtension&#45;&gt;\\SilverStripe\\Core\\Extension -->
<g id="edge25" class="edge">
<title>\\Firesphere\\SolrFluent\\Extensions\\FluentIndexExtension&#45;&gt;\\SilverStripe\\Core\\Extension</title>
<path fill="none" stroke="#000000" d="M847.1955,-417.3556C837.4185,-413.2766 828.3596,-407.6315 821.2549,-399.8554 749.792,-321.6394 854.3091,-241.5873 781.2549,-164.8554 747.2001,-129.0863 711.9962,-170.8435 672.7549,-140.8554"/>
</g>
<!-- \\Firesphere\\SolrFluent\\Extensions\\FluentSchemaExtension -->
<g id="node55" class="node">
<title>\\Firesphere\\SolrFluent\\Extensions\\FluentSchemaExtension</title>
<polygon fill="none" stroke="#000000" points="1002.2549,-390.8554 844.2549,-390.8554 844.2549,-354.8554 1002.2549,-354.8554 1002.2549,-390.8554"/>
<text text-anchor="middle" x="923.2549" y="-370.0554" font-family="Courier,monospace" font-size="11.00" fill="#000000">FluentSchemaExtension</text>
</g>
<!-- \\Firesphere\\SolrFluent\\Extensions\\FluentSchemaExtension&#45;&gt;\\SilverStripe\\Core\\Extension -->
<g id="edge26" class="edge">
<title>\\Firesphere\\SolrFluent\\Extensions\\FluentSchemaExtension&#45;&gt;\\SilverStripe\\Core\\Extension</title>
<path fill="none" stroke="#000000" d="M881.7382,-354.8286C860.8033,-343.7851 836.655,-327.7335 821.2549,-306.8554 782.3337,-254.0899 828.9176,-209.8813 781.2549,-164.8554 745.3534,-130.9402 711.9962,-170.8435 672.7549,-140.8554"/>
<path fill="none" stroke="#000000" d="M672.7549,-140.8554C605.673,-89.5917 588.5336,-71.9949 508.2549,-45.8554 475.4252,-35.1658 439.0725,-28.4801 404.3721,-24.3519"/>
<polygon fill="none" stroke="#000000" points="404.4777,-20.8418 394.1493,-23.2028 403.6957,-27.798 404.4777,-20.8418"/>
</g>
<!-- \\Firesphere\\SolrSubsites\\States\\SubsiteState -->
<g id="node56" class="node">
<title>\\Firesphere\\SolrSubsites\\States\\SubsiteState</title>
<polygon fill="none" stroke="#000000" points="972.2549,-890.8554 874.2549,-890.8554 874.2549,-854.8554 972.2549,-854.8554 972.2549,-890.8554"/>
<text text-anchor="middle" x="923.2549" y="-870.0554" font-family="Courier,monospace" font-size="11.00" fill="#000000">SubsiteState</text>
</g>
<!-- \\Firesphere\\SolrSubsites\\States\\SubsiteState&#45;&gt;\\Firesphere\\SolrSearch\\States\\SiteState -->
<g id="edge27" class="edge">
<title>\\Firesphere\\SolrSubsites\\States\\SubsiteState&#45;&gt;\\Firesphere\\SolrSearch\\States\\SiteState</title>
<path fill="none" stroke="#000000" d="M922.5939,-890.9848C915.3225,-1088.4261 849.2091,-2833.7104 781.2549,-2916.8554 767.5973,-2933.5662 745.5332,-2941.4423 724.8566,-2944.9963"/>
<polygon fill="none" stroke="#000000" points="724.2702,-2941.5443 714.8606,-2946.4135 725.2529,-2948.475 724.2702,-2941.5443"/>
</g>
<!-- \\Firesphere\\SolrSubsites\\States\\SubsiteState&#45;&gt;\\Firesphere\\SolrSearch\\Interfaces\\SiteStateInterface -->
<g id="edge28" class="edge">
<title>\\Firesphere\\SolrSubsites\\States\\SubsiteState&#45;&gt;\\Firesphere\\SolrSearch\\Interfaces\\SiteStateInterface</title>
<path fill="none" stroke="#000000" stroke-dasharray="1,5" d="M874.1722,-870.2625C854.6995,-866.5837 833.9586,-858.8127 821.2549,-842.8554 728.9086,-726.859 885.8623,-281.9283 781.2549,-176.8554 747.1617,-142.6105 720.8147,-164.8235 672.7549,-169.8554"/>
</g>
<!-- \\Firesphere\\SolrSubsites\\Extensions\\SubsitesExtension -->
<g id="node57" class="node">
<title>\\Firesphere\\SolrSubsites\\Extensions\\SubsitesExtension</title>
<polygon fill="none" stroke="#000000" points="988.7549,-810.8554 857.7549,-810.8554 857.7549,-774.8554 988.7549,-774.8554 988.7549,-810.8554"/>
<text text-anchor="middle" x="923.2549" y="-790.0554" font-family="Courier,monospace" font-size="11.00" fill="#000000">SubsitesExtension</text>
</g>
<!-- \\Firesphere\\SolrSubsites\\Extensions\\SubsitesExtension&#45;&gt;\\SilverStripe\\Core\\Extension -->
<g id="edge29" class="edge">
<title>\\Firesphere\\SolrSubsites\\Extensions\\SubsitesExtension&#45;&gt;\\SilverStripe\\Core\\Extension</title>
<path fill="none" stroke="#000000" d="M877.5934,-774.8107C856.7707,-764.1114 833.9716,-748.3728 821.2549,-726.8554 757.5526,-619.0674 863.0649,-259.6361 781.2549,-164.8554 748.9844,-127.4686 711.9962,-170.8435 672.7549,-140.8554"/>
</g>
<!-- \\Firesphere\\SolrPermissions\\Extensions\\BaseIndexExtension -->
<g id="node58" class="node">
<title>\\Firesphere\\SolrPermissions\\Extensions\\BaseIndexExtension</title>
<polygon fill="none" stroke="#000000" points="992.2549,-220.8554 854.2549,-220.8554 854.2549,-184.8554 992.2549,-184.8554 992.2549,-220.8554"/>
<text text-anchor="middle" x="923.2549" y="-200.0554" font-family="Courier,monospace" font-size="11.00" fill="#000000">BaseIndexExtension</text>
</g>
<!-- \\Firesphere\\SolrPermissions\\Extensions\\BaseIndexExtension&#45;&gt;\\SilverStripe\\Core\\Extension -->
<g id="edge30" class="edge">
<title>\\Firesphere\\SolrPermissions\\Extensions\\BaseIndexExtension&#45;&gt;\\SilverStripe\\Core\\Extension</title>
<path fill="none" stroke="#000000" d="M909.5246,-184.3986C886.6098,-155.1822 837.499,-99.0207 781.2549,-73.8554 657.661,-18.556 501.9803,-8.6584 391.9403,-10.2386"/>
<polygon fill="none" stroke="#000000" points="391.7066,-6.7421 381.7703,-10.4191 391.8309,-13.741 391.7066,-6.7421"/>
</g>
<!-- \\Firesphere\\SolrPermissions\\Extensions\\DataObjectExtension -->
<g id="node59" class="node">
<title>\\Firesphere\\SolrPermissions\\Extensions\\DataObjectExtension</title>
<polygon fill="none" stroke="#000000" points="995.7549,-274.8554 850.7549,-274.8554 850.7549,-238.8554 995.7549,-238.8554 995.7549,-274.8554"/>
<text text-anchor="middle" x="923.2549" y="-254.0554" font-family="Courier,monospace" font-size="11.00" fill="#000000">DataObjectExtension</text>
</g>
<!-- \\Firesphere\\SolrPermissions\\Extensions\\DataObjectExtension&#45;&gt;\\SilverStripe\\ORM\\DataExtension -->
<g id="edge31" class="edge">
<title>\\Firesphere\\SolrPermissions\\Extensions\\DataObjectExtension&#45;&gt;\\SilverStripe\\ORM\\DataExtension</title>
<path fill="none" stroke="#000000" d="M850.688,-245.0419C840.1962,-241.2924 830.004,-236.3554 821.2549,-229.8554 794.0261,-209.6265 808.7347,-184.742 781.2549,-164.8554 676.0572,-88.726 528.5827,-68.3043 416.363,-65.4523"/>
<polygon fill="none" stroke="#000000" points="416.372,-61.9518 406.3007,-65.241 416.225,-68.9503 416.372,-61.9518"/>
</g>
</g>
</svg>
