<?xml version="1.0" encoding="UTF-8" standalone="no"?>
<!DOCTYPE svg PUBLIC "-//W3C//DTD SVG 1.1//EN"
 "http://www.w3.org/Graphics/SVG/1.1/DTD/svg11.dtd">
<!-- Generated by graphviz version 2.40.1 (20161225.0304)
 -->
<!-- Title: G Pages: 1 -->
<svg width="1064pt" height="3722pt"
 viewBox="0.00 0.00 1064.25 3721.74" xmlns="http://www.w3.org/2000/svg" xmlns:xlink="http://www.w3.org/1999/xlink">
<g id="graph0" class="graph" transform="scale(1 1) rotate(0) translate(4 3717.7439)">
<title>G</title>
<polygon fill="#ffffff" stroke="transparent" points="-4,4 -4,-3717.7439 1060.2549,-3717.7439 1060.2549,4 -4,4"/>
<g id="clust1" class="cluster">
<title>cluster_Global</title>
<path fill="none" stroke="#c0c0c0" d="M165.1275,-152.7666C165.1275,-152.7666 1036.2549,-152.7666 1036.2549,-152.7666 1042.2549,-152.7666 1048.2549,-158.7666 1048.2549,-164.7666 1048.2549,-164.7666 1048.2549,-3386.7666 1048.2549,-3386.7666 1048.2549,-3392.7666 1042.2549,-3398.7666 1036.2549,-3398.7666 1036.2549,-3398.7666 165.1275,-3398.7666 165.1275,-3398.7666 159.1275,-3398.7666 153.1275,-3392.7666 153.1275,-3386.7666 153.1275,-3386.7666 153.1275,-164.7666 153.1275,-164.7666 153.1275,-158.7666 159.1275,-152.7666 165.1275,-152.7666"/>
<text text-anchor="middle" x="600.6912" y="-3385.9666" font-family="Times,serif" font-size="11.00" fill="#c0c0c0">Global</text>
</g>
<g id="clust2" class="cluster">
<title>cluster_\SilverStripe</title>
<path fill="none" stroke="#c0c0c0" d="M861.2549,-3056.7666C861.2549,-3056.7666 992.2549,-3056.7666 992.2549,-3056.7666 998.2549,-3056.7666 1004.2549,-3062.7666 1004.2549,-3068.7666 1004.2549,-3068.7666 1004.2549,-3358.7666 1004.2549,-3358.7666 1004.2549,-3364.7666 998.2549,-3370.7666 992.2549,-3370.7666 992.2549,-3370.7666 861.2549,-3370.7666 861.2549,-3370.7666 855.2549,-3370.7666 849.2549,-3364.7666 849.2549,-3358.7666 849.2549,-3358.7666 849.2549,-3068.7666 849.2549,-3068.7666 849.2549,-3062.7666 855.2549,-3056.7666 861.2549,-3056.7666"/>
<text text-anchor="middle" x="926.7549" y="-3357.9666" font-family="Times,serif" font-size="11.00" fill="#c0c0c0">SilverStripe</text>
</g>
<g id="clust3" class="cluster">
<title>cluster_\SilverStripe\FullTextSearch</title>
<path fill="none" stroke="#c0c0c0" d="M869.2549,-3064.7666C869.2549,-3064.7666 984.2549,-3064.7666 984.2549,-3064.7666 990.2549,-3064.7666 996.2549,-3070.7666 996.2549,-3076.7666 996.2549,-3076.7666 996.2549,-3330.7666 996.2549,-3330.7666 996.2549,-3336.7666 990.2549,-3342.7666 984.2549,-3342.7666 984.2549,-3342.7666 869.2549,-3342.7666 869.2549,-3342.7666 863.2549,-3342.7666 857.2549,-3336.7666 857.2549,-3330.7666 857.2549,-3330.7666 857.2549,-3076.7666 857.2549,-3076.7666 857.2549,-3070.7666 863.2549,-3064.7666 869.2549,-3064.7666"/>
<text text-anchor="middle" x="926.7549" y="-3329.9666" font-family="Times,serif" font-size="11.00" fill="#c0c0c0">FullTextSearch</text>
</g>
<g id="clust4" class="cluster">
<title>cluster_\SilverStripe\FullTextSearch\Solr</title>
<path fill="none" stroke="#c0c0c0" d="M888.7549,-3188.7666C888.7549,-3188.7666 964.7549,-3188.7666 964.7549,-3188.7666 970.7549,-3188.7666 976.7549,-3194.7666 976.7549,-3200.7666 976.7549,-3200.7666 976.7549,-3302.7666 976.7549,-3302.7666 976.7549,-3308.7666 970.7549,-3314.7666 964.7549,-3314.7666 964.7549,-3314.7666 888.7549,-3314.7666 888.7549,-3314.7666 882.7549,-3314.7666 876.7549,-3308.7666 876.7549,-3302.7666 876.7549,-3302.7666 876.7549,-3200.7666 876.7549,-3200.7666 876.7549,-3194.7666 882.7549,-3188.7666 888.7549,-3188.7666"/>
<text text-anchor="middle" x="926.7549" y="-3301.9666" font-family="Times,serif" font-size="11.00" fill="#c0c0c0">Solr</text>
</g>
<g id="clust5" class="cluster">
<title>cluster_\SilverStripe\FullTextSearch\Search</title>
<path fill="none" stroke="#c0c0c0" d="M877.2549,-3072.7666C877.2549,-3072.7666 976.2549,-3072.7666 976.2549,-3072.7666 982.2549,-3072.7666 988.2549,-3078.7666 988.2549,-3084.7666 988.2549,-3084.7666 988.2549,-3168.7666 988.2549,-3168.7666 988.2549,-3174.7666 982.2549,-3180.7666 976.2549,-3180.7666 976.2549,-3180.7666 877.2549,-3180.7666 877.2549,-3180.7666 871.2549,-3180.7666 865.2549,-3174.7666 865.2549,-3168.7666 865.2549,-3168.7666 865.2549,-3084.7666 865.2549,-3084.7666 865.2549,-3078.7666 871.2549,-3072.7666 877.2549,-3072.7666"/>
<text text-anchor="middle" x="926.7549" y="-3167.9666" font-family="Times,serif" font-size="11.00" fill="#c0c0c0">Search</text>
</g>
<g id="clust6" class="cluster">
<title>cluster_\SilverStripe\FullTextSearch\Search\Queries</title>
<path fill="none" stroke="#c0c0c0" d="M885.2549,-3080.7666C885.2549,-3080.7666 968.2549,-3080.7666 968.2549,-3080.7666 974.2549,-3080.7666 980.2549,-3086.7666 980.2549,-3092.7666 980.2549,-3092.7666 980.2549,-3140.7666 980.2549,-3140.7666 980.2549,-3146.7666 974.2549,-3152.7666 968.2549,-3152.7666 968.2549,-3152.7666 885.2549,-3152.7666 885.2549,-3152.7666 879.2549,-3152.7666 873.2549,-3146.7666 873.2549,-3140.7666 873.2549,-3140.7666 873.2549,-3092.7666 873.2549,-3092.7666 873.2549,-3086.7666 879.2549,-3080.7666 885.2549,-3080.7666"/>
<text text-anchor="middle" x="926.7549" y="-3139.9666" font-family="Times,serif" font-size="11.00" fill="#c0c0c0">Queries</text>
</g>
<g id="clust7" class="cluster">
<title>cluster_\Firesphere</title>
<path fill="none" stroke="#c0c0c0" d="M173.1275,-160.7666C173.1275,-160.7666 1028.2549,-160.7666 1028.2549,-160.7666 1034.2549,-160.7666 1040.2549,-166.7666 1040.2549,-172.7666 1040.2549,-172.7666 1040.2549,-3036.7666 1040.2549,-3036.7666 1040.2549,-3042.7666 1034.2549,-3048.7666 1028.2549,-3048.7666 1028.2549,-3048.7666 173.1275,-3048.7666 173.1275,-3048.7666 167.1275,-3048.7666 161.1275,-3042.7666 161.1275,-3036.7666 161.1275,-3036.7666 161.1275,-172.7666 161.1275,-172.7666 161.1275,-166.7666 167.1275,-160.7666 173.1275,-160.7666"/>
<text text-anchor="middle" x="600.6912" y="-3035.9666" font-family="Times,serif" font-size="11.00" fill="#c0c0c0">Firesphere</text>
</g>
<g id="clust8" class="cluster">
<title>cluster_\Firesphere\SolrCompatibility</title>
<path fill="none" stroke="#c0c0c0" d="M833.2549,-168.7666C833.2549,-168.7666 1020.2549,-168.7666 1020.2549,-168.7666 1026.2549,-168.7666 1032.2549,-174.7666 1032.2549,-180.7666 1032.2549,-180.7666 1032.2549,-372.7666 1032.2549,-372.7666 1032.2549,-378.7666 1026.2549,-384.7666 1020.2549,-384.7666 1020.2549,-384.7666 833.2549,-384.7666 833.2549,-384.7666 827.2549,-384.7666 821.2549,-378.7666 821.2549,-372.7666 821.2549,-372.7666 821.2549,-180.7666 821.2549,-180.7666 821.2549,-174.7666 827.2549,-168.7666 833.2549,-168.7666"/>
<text text-anchor="middle" x="926.7549" y="-371.9666" font-family="Times,serif" font-size="11.00" fill="#c0c0c0">SolrCompatibility</text>
</g>
<g id="clust9" class="cluster">
<title>cluster_\Firesphere\SolrCompatibility\Extensions</title>
<path fill="none" stroke="#c0c0c0" d="M841.2549,-176.7666C841.2549,-176.7666 1012.2549,-176.7666 1012.2549,-176.7666 1018.2549,-176.7666 1024.2549,-182.7666 1024.2549,-188.7666 1024.2549,-188.7666 1024.2549,-344.7666 1024.2549,-344.7666 1024.2549,-350.7666 1018.2549,-356.7666 1012.2549,-356.7666 1012.2549,-356.7666 841.2549,-356.7666 841.2549,-356.7666 835.2549,-356.7666 829.2549,-350.7666 829.2549,-344.7666 829.2549,-344.7666 829.2549,-188.7666 829.2549,-188.7666 829.2549,-182.7666 835.2549,-176.7666 841.2549,-176.7666"/>
<text text-anchor="middle" x="926.7549" y="-343.9666" font-family="Times,serif" font-size="11.00" fill="#c0c0c0">Extensions</text>
</g>
<g id="clust10" class="cluster">
<title>cluster_\Firesphere\SolrSearch</title>
<path fill="none" stroke="#c0c0c0" d="M181.1275,-172.7666C181.1275,-172.7666 769.2549,-172.7666 769.2549,-172.7666 775.2549,-172.7666 781.2549,-178.7666 781.2549,-184.7666 781.2549,-184.7666 781.2549,-3008.7666 781.2549,-3008.7666 781.2549,-3014.7666 775.2549,-3020.7666 769.2549,-3020.7666 769.2549,-3020.7666 181.1275,-3020.7666 181.1275,-3020.7666 175.1275,-3020.7666 169.1275,-3014.7666 169.1275,-3008.7666 169.1275,-3008.7666 169.1275,-184.7666 169.1275,-184.7666 169.1275,-178.7666 175.1275,-172.7666 181.1275,-172.7666"/>
<text text-anchor="middle" x="475.1912" y="-3007.9666" font-family="Times,serif" font-size="11.00" fill="#c0c0c0">SolrSearch</text>
</g>
<g id="clust11" class="cluster">
<title>cluster_\Firesphere\SolrSearch\Tasks</title>
<path fill="none" stroke="#c0c0c0" d="M597.7549,-2758.7666C597.7549,-2758.7666 747.7549,-2758.7666 747.7549,-2758.7666 753.7549,-2758.7666 759.7549,-2764.7666 759.7549,-2770.7666 759.7549,-2770.7666 759.7549,-2980.7666 759.7549,-2980.7666 759.7549,-2986.7666 753.7549,-2992.7666 747.7549,-2992.7666 747.7549,-2992.7666 597.7549,-2992.7666 597.7549,-2992.7666 591.7549,-2992.7666 585.7549,-2986.7666 585.7549,-2980.7666 585.7549,-2980.7666 585.7549,-2770.7666 585.7549,-2770.7666 585.7549,-2764.7666 591.7549,-2758.7666 597.7549,-2758.7666"/>
<text text-anchor="middle" x="672.7549" y="-2979.9666" font-family="Times,serif" font-size="11.00" fill="#c0c0c0">Tasks</text>
</g>
<g id="clust12" class="cluster">
<title>cluster_\Firesphere\SolrSearch\Interfaces</title>
<path fill="none" stroke="#c0c0c0" d="M189.1275,-180.7666C189.1275,-180.7666 319.1275,-180.7666 319.1275,-180.7666 325.1275,-180.7666 331.1275,-186.7666 331.1275,-192.7666 331.1275,-192.7666 331.1275,-294.7666 331.1275,-294.7666 331.1275,-300.7666 325.1275,-306.7666 319.1275,-306.7666 319.1275,-306.7666 189.1275,-306.7666 189.1275,-306.7666 183.1275,-306.7666 177.1275,-300.7666 177.1275,-294.7666 177.1275,-294.7666 177.1275,-192.7666 177.1275,-192.7666 177.1275,-186.7666 183.1275,-180.7666 189.1275,-180.7666"/>
<text text-anchor="middle" x="254.1275" y="-293.9666" font-family="Times,serif" font-size="11.00" fill="#c0c0c0">Interfaces</text>
</g>
<g id="clust13" class="cluster">
<title>cluster_\Firesphere\SolrSearch\Services</title>
<path fill="none" stroke="#c0c0c0" d="M617.7549,-2678.7666C617.7549,-2678.7666 727.7549,-2678.7666 727.7549,-2678.7666 733.7549,-2678.7666 739.7549,-2684.7666 739.7549,-2690.7666 739.7549,-2690.7666 739.7549,-2738.7666 739.7549,-2738.7666 739.7549,-2744.7666 733.7549,-2750.7666 727.7549,-2750.7666 727.7549,-2750.7666 617.7549,-2750.7666 617.7549,-2750.7666 611.7549,-2750.7666 605.7549,-2744.7666 605.7549,-2738.7666 605.7549,-2738.7666 605.7549,-2690.7666 605.7549,-2690.7666 605.7549,-2684.7666 611.7549,-2678.7666 617.7549,-2678.7666"/>
<text text-anchor="middle" x="672.7549" y="-2737.9666" font-family="Times,serif" font-size="11.00" fill="#c0c0c0">Services</text>
</g>
<g id="clust14" class="cluster">
<title>cluster_\Firesphere\SolrSearch\States</title>
<path fill="none" stroke="#c0c0c0" d="M634.7549,-2438.7666C634.7549,-2438.7666 710.7549,-2438.7666 710.7549,-2438.7666 716.7549,-2438.7666 722.7549,-2444.7666 722.7549,-2450.7666 722.7549,-2450.7666 722.7549,-2498.7666 722.7549,-2498.7666 722.7549,-2504.7666 716.7549,-2510.7666 710.7549,-2510.7666 710.7549,-2510.7666 634.7549,-2510.7666 634.7549,-2510.7666 628.7549,-2510.7666 622.7549,-2504.7666 622.7549,-2498.7666 622.7549,-2498.7666 622.7549,-2450.7666 622.7549,-2450.7666 622.7549,-2444.7666 628.7549,-2438.7666 634.7549,-2438.7666"/>
<text text-anchor="middle" x="672.7549" y="-2497.9666" font-family="Times,serif" font-size="11.00" fill="#c0c0c0">States</text>
</g>
<g id="clust15" class="cluster">
<title>cluster_\Firesphere\SolrSearch\Indexes</title>
<path fill="none" stroke="#c0c0c0" d="M634.7549,-2598.7666C634.7549,-2598.7666 710.7549,-2598.7666 710.7549,-2598.7666 716.7549,-2598.7666 722.7549,-2604.7666 722.7549,-2610.7666 722.7549,-2610.7666 722.7549,-2658.7666 722.7549,-2658.7666 722.7549,-2664.7666 716.7549,-2670.7666 710.7549,-2670.7666 710.7549,-2670.7666 634.7549,-2670.7666 634.7549,-2670.7666 628.7549,-2670.7666 622.7549,-2664.7666 622.7549,-2658.7666 622.7549,-2658.7666 622.7549,-2610.7666 622.7549,-2610.7666 622.7549,-2604.7666 628.7549,-2598.7666 634.7549,-2598.7666"/>
<text text-anchor="middle" x="672.7549" y="-2657.9666" font-family="Times,serif" font-size="11.00" fill="#c0c0c0">Indexes</text>
</g>
<g id="clust16" class="cluster">
<title>cluster_\Firesphere\SolrSearch\Queries</title>
<path fill="none" stroke="#c0c0c0" d="M638.2549,-2518.7666C638.2549,-2518.7666 707.2549,-2518.7666 707.2549,-2518.7666 713.2549,-2518.7666 719.2549,-2524.7666 719.2549,-2530.7666 719.2549,-2530.7666 719.2549,-2578.7666 719.2549,-2578.7666 719.2549,-2584.7666 713.2549,-2590.7666 707.2549,-2590.7666 707.2549,-2590.7666 638.2549,-2590.7666 638.2549,-2590.7666 632.2549,-2590.7666 626.2549,-2584.7666 626.2549,-2578.7666 626.2549,-2578.7666 626.2549,-2530.7666 626.2549,-2530.7666 626.2549,-2524.7666 632.2549,-2518.7666 638.2549,-2518.7666"/>
<text text-anchor="middle" x="672.7549" y="-2577.9666" font-family="Times,serif" font-size="11.00" fill="#c0c0c0">Queries</text>
</g>
<g id="clust17" class="cluster">
<title>cluster_\Firesphere\SolrSearch\Results</title>
<path fill="none" stroke="#c0c0c0" d="M627.7549,-2358.7666C627.7549,-2358.7666 717.7549,-2358.7666 717.7549,-2358.7666 723.7549,-2358.7666 729.7549,-2364.7666 729.7549,-2370.7666 729.7549,-2370.7666 729.7549,-2418.7666 729.7549,-2418.7666 729.7549,-2424.7666 723.7549,-2430.7666 717.7549,-2430.7666 717.7549,-2430.7666 627.7549,-2430.7666 627.7549,-2430.7666 621.7549,-2430.7666 615.7549,-2424.7666 615.7549,-2418.7666 615.7549,-2418.7666 615.7549,-2370.7666 615.7549,-2370.7666 615.7549,-2364.7666 621.7549,-2358.7666 627.7549,-2358.7666"/>
<text text-anchor="middle" x="672.7549" y="-2417.9666" font-family="Times,serif" font-size="11.00" fill="#c0c0c0">Results</text>
</g>
<g id="clust18" class="cluster">
<title>cluster_\Firesphere\SolrSearch\Helpers</title>
<path fill="none" stroke="#c0c0c0" d="M624.7549,-2062.7666C624.7549,-2062.7666 720.7549,-2062.7666 720.7549,-2062.7666 726.7549,-2062.7666 732.7549,-2068.7666 732.7549,-2074.7666 732.7549,-2074.7666 732.7549,-2338.7666 732.7549,-2338.7666 732.7549,-2344.7666 726.7549,-2350.7666 720.7549,-2350.7666 720.7549,-2350.7666 624.7549,-2350.7666 624.7549,-2350.7666 618.7549,-2350.7666 612.7549,-2344.7666 612.7549,-2338.7666 612.7549,-2338.7666 612.7549,-2074.7666 612.7549,-2074.7666 612.7549,-2068.7666 618.7549,-2062.7666 624.7549,-2062.7666"/>
<text text-anchor="middle" x="672.7549" y="-2337.9666" font-family="Times,serif" font-size="11.00" fill="#c0c0c0">Helpers</text>
</g>
<g id="clust19" class="cluster">
<title>cluster_\Firesphere\SolrSearch\Extensions</title>
<path fill="none" stroke="#c0c0c0" d="M604.2549,-1928.7666C604.2549,-1928.7666 741.2549,-1928.7666 741.2549,-1928.7666 747.2549,-1928.7666 753.2549,-1934.7666 753.2549,-1940.7666 753.2549,-1940.7666 753.2549,-2042.7666 753.2549,-2042.7666 753.2549,-2048.7666 747.2549,-2054.7666 741.2549,-2054.7666 741.2549,-2054.7666 604.2549,-2054.7666 604.2549,-2054.7666 598.2549,-2054.7666 592.2549,-2048.7666 592.2549,-2042.7666 592.2549,-2042.7666 592.2549,-1940.7666 592.2549,-1940.7666 592.2549,-1934.7666 598.2549,-1928.7666 604.2549,-1928.7666"/>
<text text-anchor="middle" x="672.7549" y="-2041.9666" font-family="Times,serif" font-size="11.00" fill="#c0c0c0">Extensions</text>
</g>
<g id="clust20" class="cluster">
<title>cluster_\Firesphere\SolrSearch\Traits</title>
<path fill="none" stroke="#c0c0c0" d="M584.2549,-1038.7666C584.2549,-1038.7666 761.2549,-1038.7666 761.2549,-1038.7666 767.2549,-1038.7666 773.2549,-1044.7666 773.2549,-1050.7666 773.2549,-1050.7666 773.2549,-1908.7666 773.2549,-1908.7666 773.2549,-1914.7666 767.2549,-1920.7666 761.2549,-1920.7666 761.2549,-1920.7666 584.2549,-1920.7666 584.2549,-1920.7666 578.2549,-1920.7666 572.2549,-1914.7666 572.2549,-1908.7666 572.2549,-1908.7666 572.2549,-1050.7666 572.2549,-1050.7666 572.2549,-1044.7666 578.2549,-1038.7666 584.2549,-1038.7666"/>
<text text-anchor="middle" x="672.7549" y="-1907.9666" font-family="Times,serif" font-size="11.00" fill="#c0c0c0">Traits</text>
</g>
<g id="clust21" class="cluster">
<title>cluster_\Firesphere\SolrSearch\Jobs</title>
<path fill="none" stroke="#c0c0c0" d="M600.7549,-662.7666C600.7549,-662.7666 744.7549,-662.7666 744.7549,-662.7666 750.7549,-662.7666 756.7549,-668.7666 756.7549,-674.7666 756.7549,-674.7666 756.7549,-830.7666 756.7549,-830.7666 756.7549,-836.7666 750.7549,-842.7666 744.7549,-842.7666 744.7549,-842.7666 600.7549,-842.7666 600.7549,-842.7666 594.7549,-842.7666 588.7549,-836.7666 588.7549,-830.7666 588.7549,-830.7666 588.7549,-674.7666 588.7549,-674.7666 588.7549,-668.7666 594.7549,-662.7666 600.7549,-662.7666"/>
<text text-anchor="middle" x="672.7549" y="-829.9666" font-family="Times,serif" font-size="11.00" fill="#c0c0c0">Jobs</text>
</g>
<g id="clust22" class="cluster">
<title>cluster_\Firesphere\SolrSearch\Models</title>
<path fill="none" stroke="#c0c0c0" d="M624.7549,-474.7666C624.7549,-474.7666 720.7549,-474.7666 720.7549,-474.7666 726.7549,-474.7666 732.7549,-480.7666 732.7549,-486.7666 732.7549,-486.7666 732.7549,-642.7666 732.7549,-642.7666 732.7549,-648.7666 726.7549,-654.7666 720.7549,-654.7666 720.7549,-654.7666 624.7549,-654.7666 624.7549,-654.7666 618.7549,-654.7666 612.7549,-648.7666 612.7549,-642.7666 612.7549,-642.7666 612.7549,-486.7666 612.7549,-486.7666 612.7549,-480.7666 618.7549,-474.7666 624.7549,-474.7666"/>
<text text-anchor="middle" x="672.7549" y="-641.9666" font-family="Times,serif" font-size="11.00" fill="#c0c0c0">Models</text>
</g>
<g id="clust23" class="cluster">
<title>cluster_\Firesphere\SolrSearch\Forms</title>
<path fill="none" stroke="#c0c0c0" d="M634.7549,-394.7666C634.7549,-394.7666 710.7549,-394.7666 710.7549,-394.7666 716.7549,-394.7666 722.7549,-400.7666 722.7549,-406.7666 722.7549,-406.7666 722.7549,-454.7666 722.7549,-454.7666 722.7549,-460.7666 716.7549,-466.7666 710.7549,-466.7666 710.7549,-466.7666 634.7549,-466.7666 634.7549,-466.7666 628.7549,-466.7666 622.7549,-460.7666 622.7549,-454.7666 622.7549,-454.7666 622.7549,-406.7666 622.7549,-406.7666 622.7549,-400.7666 628.7549,-394.7666 634.7549,-394.7666"/>
<text text-anchor="middle" x="672.7549" y="-453.9666" font-family="Times,serif" font-size="11.00" fill="#c0c0c0">Forms</text>
</g>
<g id="clust24" class="cluster">
<title>cluster_\Firesphere\SolrSearch\Admins</title>
<path fill="none" stroke="#c0c0c0" d="M631.2549,-314.7666C631.2549,-314.7666 714.2549,-314.7666 714.2549,-314.7666 720.2549,-314.7666 726.2549,-320.7666 726.2549,-326.7666 726.2549,-326.7666 726.2549,-374.7666 726.2549,-374.7666 726.2549,-380.7666 720.2549,-386.7666 714.2549,-386.7666 714.2549,-386.7666 631.2549,-386.7666 631.2549,-386.7666 625.2549,-386.7666 619.2549,-380.7666 619.2549,-374.7666 619.2549,-374.7666 619.2549,-326.7666 619.2549,-326.7666 619.2549,-320.7666 625.2549,-314.7666 631.2549,-314.7666"/>
<text text-anchor="middle" x="672.7549" y="-373.9666" font-family="Times,serif" font-size="11.00" fill="#c0c0c0">Admins</text>
</g>
<g id="clust25" class="cluster">
<title>cluster_\Firesphere\SolrSearch\Factories</title>
<path fill="none" stroke="#c0c0c0" d="M597.7549,-850.7666C597.7549,-850.7666 747.7549,-850.7666 747.7549,-850.7666 753.7549,-850.7666 759.7549,-856.7666 759.7549,-862.7666 759.7549,-862.7666 759.7549,-1018.7666 759.7549,-1018.7666 759.7549,-1024.7666 753.7549,-1030.7666 747.7549,-1030.7666 747.7549,-1030.7666 597.7549,-1030.7666 597.7549,-1030.7666 591.7549,-1030.7666 585.7549,-1024.7666 585.7549,-1018.7666 585.7549,-1018.7666 585.7549,-862.7666 585.7549,-862.7666 585.7549,-856.7666 591.7549,-850.7666 597.7549,-850.7666"/>
<text text-anchor="middle" x="672.7549" y="-1017.9666" font-family="Times,serif" font-size="11.00" fill="#c0c0c0">Factories</text>
</g>
<g id="clust26" class="cluster">
<title>cluster_\Firesphere\SolrSearch\Stores</title>
<path fill="none" stroke="#c0c0c0" d="M617.7549,-180.7666C617.7549,-180.7666 727.7549,-180.7666 727.7549,-180.7666 733.7549,-180.7666 739.7549,-186.7666 739.7549,-192.7666 739.7549,-192.7666 739.7549,-294.7666 739.7549,-294.7666 739.7549,-300.7666 733.7549,-306.7666 727.7549,-306.7666 727.7549,-306.7666 617.7549,-306.7666 617.7549,-306.7666 611.7549,-306.7666 605.7549,-300.7666 605.7549,-294.7666 605.7549,-294.7666 605.7549,-192.7666 605.7549,-192.7666 605.7549,-186.7666 611.7549,-180.7666 617.7549,-180.7666"/>
<text text-anchor="middle" x="672.7549" y="-293.9666" font-family="Times,serif" font-size="11.00" fill="#c0c0c0">Stores</text>
</g>
<g id="clust27" class="cluster">
<title>cluster_\Firesphere\SolrFluent</title>
<path fill="none" stroke="#c0c0c0" d="M836.7549,-670.7666C836.7549,-670.7666 1016.7549,-670.7666 1016.7549,-670.7666 1022.7549,-670.7666 1028.7549,-676.7666 1028.7549,-682.7666 1028.7549,-682.7666 1028.7549,-954.7666 1028.7549,-954.7666 1028.7549,-960.7666 1022.7549,-966.7666 1016.7549,-966.7666 1016.7549,-966.7666 836.7549,-966.7666 836.7549,-966.7666 830.7549,-966.7666 824.7549,-960.7666 824.7549,-954.7666 824.7549,-954.7666 824.7549,-682.7666 824.7549,-682.7666 824.7549,-676.7666 830.7549,-670.7666 836.7549,-670.7666"/>
<text text-anchor="middle" x="926.7549" y="-953.9666" font-family="Times,serif" font-size="11.00" fill="#c0c0c0">SolrFluent</text>
</g>
<g id="clust28" class="cluster">
<title>cluster_\Firesphere\SolrFluent\States</title>
<path fill="none" stroke="#c0c0c0" d="M871.7549,-866.7666C871.7549,-866.7666 981.7549,-866.7666 981.7549,-866.7666 987.7549,-866.7666 993.7549,-872.7666 993.7549,-878.7666 993.7549,-878.7666 993.7549,-926.7666 993.7549,-926.7666 993.7549,-932.7666 987.7549,-938.7666 981.7549,-938.7666 981.7549,-938.7666 871.7549,-938.7666 871.7549,-938.7666 865.7549,-938.7666 859.7549,-932.7666 859.7549,-926.7666 859.7549,-926.7666 859.7549,-878.7666 859.7549,-878.7666 859.7549,-872.7666 865.7549,-866.7666 871.7549,-866.7666"/>
<text text-anchor="middle" x="926.7549" y="-925.9666" font-family="Times,serif" font-size="11.00" fill="#c0c0c0">States</text>
</g>
<g id="clust29" class="cluster">
<title>cluster_\Firesphere\SolrFluent\Extensions</title>
<path fill="none" stroke="#c0c0c0" d="M844.7549,-678.7666C844.7549,-678.7666 1008.7549,-678.7666 1008.7549,-678.7666 1014.7549,-678.7666 1020.7549,-684.7666 1020.7549,-690.7666 1020.7549,-690.7666 1020.7549,-846.7666 1020.7549,-846.7666 1020.7549,-852.7666 1014.7549,-858.7666 1008.7549,-858.7666 1008.7549,-858.7666 844.7549,-858.7666 844.7549,-858.7666 838.7549,-858.7666 832.7549,-852.7666 832.7549,-846.7666 832.7549,-846.7666 832.7549,-690.7666 832.7549,-690.7666 832.7549,-684.7666 838.7549,-678.7666 844.7549,-678.7666"/>
<text text-anchor="middle" x="926.7549" y="-845.9666" font-family="Times,serif" font-size="11.00" fill="#c0c0c0">Extensions</text>
</g>
<g id="clust30" class="cluster">
<title>cluster_\Firesphere\SolrSubsites</title>
<path fill="none" stroke="#c0c0c0" d="M857.2549,-974.7666C857.2549,-974.7666 996.2549,-974.7666 996.2549,-974.7666 1002.2549,-974.7666 1008.2549,-980.7666 1008.2549,-986.7666 1008.2549,-986.7666 1008.2549,-1150.7666 1008.2549,-1150.7666 1008.2549,-1156.7666 1002.2549,-1162.7666 996.2549,-1162.7666 996.2549,-1162.7666 857.2549,-1162.7666 857.2549,-1162.7666 851.2549,-1162.7666 845.2549,-1156.7666 845.2549,-1150.7666 845.2549,-1150.7666 845.2549,-986.7666 845.2549,-986.7666 845.2549,-980.7666 851.2549,-974.7666 857.2549,-974.7666"/>
<text text-anchor="middle" x="926.7549" y="-1149.9666" font-family="Times,serif" font-size="11.00" fill="#c0c0c0">SolrSubsites</text>
</g>
<g id="clust31" class="cluster">
<title>cluster_\Firesphere\SolrSubsites\States</title>
<path fill="none" stroke="#c0c0c0" d="M881.7549,-1062.7666C881.7549,-1062.7666 971.7549,-1062.7666 971.7549,-1062.7666 977.7549,-1062.7666 983.7549,-1068.7666 983.7549,-1074.7666 983.7549,-1074.7666 983.7549,-1122.7666 983.7549,-1122.7666 983.7549,-1128.7666 977.7549,-1134.7666 971.7549,-1134.7666 971.7549,-1134.7666 881.7549,-1134.7666 881.7549,-1134.7666 875.7549,-1134.7666 869.7549,-1128.7666 869.7549,-1122.7666 869.7549,-1122.7666 869.7549,-1074.7666 869.7549,-1074.7666 869.7549,-1068.7666 875.7549,-1062.7666 881.7549,-1062.7666"/>
<text text-anchor="middle" x="926.7549" y="-1121.9666" font-family="Times,serif" font-size="11.00" fill="#c0c0c0">States</text>
</g>
<g id="clust32" class="cluster">
<title>cluster_\Firesphere\SolrSubsites\Extensions</title>
<path fill="none" stroke="#c0c0c0" d="M865.2549,-982.7666C865.2549,-982.7666 988.2549,-982.7666 988.2549,-982.7666 994.2549,-982.7666 1000.2549,-988.7666 1000.2549,-994.7666 1000.2549,-994.7666 1000.2549,-1042.7666 1000.2549,-1042.7666 1000.2549,-1048.7666 994.2549,-1054.7666 988.2549,-1054.7666 988.2549,-1054.7666 865.2549,-1054.7666 865.2549,-1054.7666 859.2549,-1054.7666 853.2549,-1048.7666 853.2549,-1042.7666 853.2549,-1042.7666 853.2549,-994.7666 853.2549,-994.7666 853.2549,-988.7666 859.2549,-982.7666 865.2549,-982.7666"/>
<text text-anchor="middle" x="926.7549" y="-1041.9666" font-family="Times,serif" font-size="11.00" fill="#c0c0c0">Extensions</text>
</g>
<g id="clust33" class="cluster">
<title>cluster_\Firesphere\SolrPermissions</title>
<path fill="none" stroke="#c0c0c0" d="M833.2549,-392.7666C833.2549,-392.7666 1020.2549,-392.7666 1020.2549,-392.7666 1026.2549,-392.7666 1032.2549,-398.7666 1032.2549,-404.7666 1032.2549,-404.7666 1032.2549,-650.7666 1032.2549,-650.7666 1032.2549,-656.7666 1026.2549,-662.7666 1020.2549,-662.7666 1020.2549,-662.7666 833.2549,-662.7666 833.2549,-662.7666 827.2549,-662.7666 821.2549,-656.7666 821.2549,-650.7666 821.2549,-650.7666 821.2549,-404.7666 821.2549,-404.7666 821.2549,-398.7666 827.2549,-392.7666 833.2549,-392.7666"/>
<text text-anchor="middle" x="926.7549" y="-649.9666" font-family="Times,serif" font-size="11.00" fill="#c0c0c0">SolrPermissions</text>
</g>
<g id="clust34" class="cluster">
<title>cluster_\Firesphere\SolrPermissions\Extensions</title>
<path fill="none" stroke="#c0c0c0" d="M841.2549,-400.7666C841.2549,-400.7666 1012.2549,-400.7666 1012.2549,-400.7666 1018.2549,-400.7666 1024.2549,-406.7666 1024.2549,-412.7666 1024.2549,-412.7666 1024.2549,-622.7666 1024.2549,-622.7666 1024.2549,-628.7666 1018.2549,-634.7666 1012.2549,-634.7666 1012.2549,-634.7666 841.2549,-634.7666 841.2549,-634.7666 835.2549,-634.7666 829.2549,-628.7666 829.2549,-622.7666 829.2549,-622.7666 829.2549,-412.7666 829.2549,-412.7666 829.2549,-406.7666 835.2549,-400.7666 841.2549,-400.7666"/>
<text text-anchor="middle" x="926.7549" y="-621.9666" font-family="Times,serif" font-size="11.00" fill="#c0c0c0">Extensions</text>
</g>
<!-- \\SilverStripe\\FullTextSearch\\Solr\\Solr -->
<g id="node1" class="node">
<title>\\SilverStripe\\FullTextSearch\\Solr\\Solr</title>
<polygon fill="none" stroke="#000000" points="953.7549,-3286.7666 899.7549,-3286.7666 899.7549,-3250.7666 953.7549,-3250.7666 953.7549,-3286.7666"/>
<text text-anchor="middle" x="926.7549" y="-3265.9666" font-family="Courier,monospace" font-size="11.00" fill="#000000">Solr</text>
</g>
<!-- \\SilverStripe\\FullTextSearch\\Solr\\SolrIndex -->
<g id="node2" class="node">
<title>\\SilverStripe\\FullTextSearch\\Solr\\SolrIndex</title>
<polygon fill="none" stroke="#000000" points="968.7549,-3232.7666 884.7549,-3232.7666 884.7549,-3196.7666 968.7549,-3196.7666 968.7549,-3232.7666"/>
<text text-anchor="start" x="892.7549" y="-3217.9666" font-family="Courier,monospace" font-size="11.00" fill="#000000">«abstract»</text>
<text text-anchor="start" x="896.2549" y="-3205.9666" font-family="Courier,monospace" font-size="11.00" fill="#000000">SolrIndex</text>
</g>
<!-- \\Firesphere\\SolrSearch\\Indexes\\BaseIndex -->
<g id="node15" class="node">
<title>\\Firesphere\\SolrSearch\\Indexes\\BaseIndex</title>
<polygon fill="none" stroke="#000000" points="714.7549,-2642.7666 630.7549,-2642.7666 630.7549,-2606.7666 714.7549,-2606.7666 714.7549,-2642.7666"/>
<text text-anchor="start" x="638.7549" y="-2627.9666" font-family="Courier,monospace" font-size="11.00" fill="#000000">«abstract»</text>
<text text-anchor="start" x="642.2549" y="-2615.9666" font-family="Courier,monospace" font-size="11.00" fill="#000000">BaseIndex</text>
</g>
<!-- \\SilverStripe\\FullTextSearch\\Solr\\SolrIndex&#45;&gt;\\Firesphere\\SolrSearch\\Indexes\\BaseIndex -->
<g id="edge5" class="edge">
<title>\\SilverStripe\\FullTextSearch\\Solr\\SolrIndex&#45;&gt;\\Firesphere\\SolrSearch\\Indexes\\BaseIndex</title>
<path fill="none" stroke="#000000" d="M884.6584,-3202.4957C861.9841,-3193.598 835.7581,-3179.1237 821.2549,-3156.7666 762.7618,-3066.598 842.9043,-2762.8072 781.2549,-2674.7666 767.8948,-2655.6872 745.3769,-2643.7253 724.3068,-2636.3079"/>
<polygon fill="none" stroke="#000000" points="725.358,-2632.9694 714.7659,-2633.2105 723.1964,-2639.6274 725.358,-2632.9694"/>
</g>
<!-- \\SilverStripe\\FullTextSearch\\Search\\Queries\\SearchQuery -->
<g id="node3" class="node">
<title>\\SilverStripe\\FullTextSearch\\Search\\Queries\\SearchQuery</title>
<polygon fill="none" stroke="#000000" points="972.2549,-3124.7666 881.2549,-3124.7666 881.2549,-3088.7666 972.2549,-3088.7666 972.2549,-3124.7666"/>
<text text-anchor="middle" x="926.7549" y="-3103.9666" font-family="Courier,monospace" font-size="11.00" fill="#000000">SearchQuery</text>
</g>
<!-- \\Firesphere\\SolrSearch\\Queries\\BaseQuery -->
<g id="node16" class="node">
<title>\\Firesphere\\SolrSearch\\Queries\\BaseQuery</title>
<polygon fill="none" stroke="#000000" points="711.2549,-2562.7666 634.2549,-2562.7666 634.2549,-2526.7666 711.2549,-2526.7666 711.2549,-2562.7666"/>
<text text-anchor="middle" x="672.7549" y="-2541.9666" font-family="Courier,monospace" font-size="11.00" fill="#000000">BaseQuery</text>
</g>
<!-- \\SilverStripe\\FullTextSearch\\Search\\Queries\\SearchQuery&#45;&gt;\\Firesphere\\SolrSearch\\Queries\\BaseQuery -->
<g id="edge4" class="edge">
<title>\\SilverStripe\\FullTextSearch\\Search\\Queries\\SearchQuery&#45;&gt;\\Firesphere\\SolrSearch\\Queries\\BaseQuery</title>
<path fill="none" stroke="#000000" d="M923.7049,-3088.726C909.6144,-3007.1673 848.6303,-2673.4826 781.2549,-2594.7666 765.6997,-2576.5931 742.1376,-2564.6462 720.9406,-2557.0041"/>
<polygon fill="none" stroke="#000000" points="721.9993,-2553.6675 711.4052,-2553.7888 719.7627,-2560.3006 721.9993,-2553.6675"/>
</g>
<!-- \\Firesphere\\SolrCompatibility\\Extensions\\SolrCoreServiceExtension -->
<g id="node4" class="node">
<title>\\Firesphere\\SolrCompatibility\\Extensions\\SolrCoreServiceExtension</title>
<polygon fill="none" stroke="#000000" points="1016.2549,-220.7666 837.2549,-220.7666 837.2549,-184.7666 1016.2549,-184.7666 1016.2549,-220.7666"/>
<text text-anchor="middle" x="926.7549" y="-199.9666" font-family="Courier,monospace" font-size="11.00" fill="#000000">SolrCoreServiceExtension</text>
</g>
<!-- \\SilverStripe\\Core\\Extension -->
<g id="node64" class="node">
<title>\\SilverStripe\\Core\\Extension</title>
<ellipse fill="none" stroke="#000000" cx="254.1275" cy="-18.7666" rx="144.0747" ry="18"/>
<text text-anchor="middle" x="254.1275" y="-15.0666" font-family="Times,serif" font-size="14.00" fill="#c0c0c0">\SilverStripe\Core\Extension</text>
</g>
<!-- \\Firesphere\\SolrCompatibility\\Extensions\\SolrCoreServiceExtension&#45;&gt;\\SilverStripe\\Core\\Extension -->
<g id="edge1" class="edge">
<title>\\Firesphere\\SolrCompatibility\\Extensions\\SolrCoreServiceExtension&#45;&gt;\\SilverStripe\\Core\\Extension</title>
<path fill="none" stroke="#000000" d="M909.2812,-184.6869C883.6376,-159.2561 833.1975,-113.293 781.2549,-88.7666 736.5953,-67.6791 716.2824,-88.1014 672.7549,-64.7666"/>
<path fill="none" stroke="#000000" d="M672.7549,-64.7666C584.7352,-17.5797 471.4652,-7.6514 384.9481,-8.6557"/>
<polygon fill="none" stroke="#000000" points="384.7408,-5.1586 374.8005,-8.8248 384.8575,-12.1576 384.7408,-5.1586"/>
</g>
<!-- \\Firesphere\\SolrCompatibility\\Extensions\\DataObjectExtension -->
<g id="node5" class="node">
<title>\\Firesphere\\SolrCompatibility\\Extensions\\DataObjectExtension</title>
<polygon fill="none" stroke="#000000" points="999.2549,-328.7666 854.2549,-328.7666 854.2549,-292.7666 999.2549,-292.7666 999.2549,-328.7666"/>
<text text-anchor="middle" x="926.7549" y="-307.9666" font-family="Courier,monospace" font-size="11.00" fill="#000000">DataObjectExtension</text>
</g>
<!-- \\Firesphere\\SolrCompatibility\\Extensions\\DataObjectExtension&#45;&gt;\\SilverStripe\\Core\\Extension -->
<g id="edge2" class="edge">
<title>\\Firesphere\\SolrCompatibility\\Extensions\\DataObjectExtension&#45;&gt;\\SilverStripe\\Core\\Extension</title>
<path fill="none" stroke="#000000" d="M854.2513,-303.6201C841.8956,-299.4337 830.1891,-293.1423 821.2549,-283.7666 760.2228,-219.7178 843.3309,-151.8041 781.2549,-88.7666 746.6018,-53.5767 716.2824,-88.1014 672.7549,-64.7666"/>
</g>
<!-- \\Firesphere\\SolrCompatibility\\Extensions\\FulltextSearchExtension -->
<g id="node6" class="node">
<title>\\Firesphere\\SolrCompatibility\\Extensions\\FulltextSearchExtension</title>
<polygon fill="none" stroke="#000000" points="1012.7549,-274.7666 840.7549,-274.7666 840.7549,-238.7666 1012.7549,-238.7666 1012.7549,-274.7666"/>
<text text-anchor="middle" x="926.7549" y="-253.9666" font-family="Courier,monospace" font-size="11.00" fill="#000000">FulltextSearchExtension</text>
</g>
<!-- \\Firesphere\\SolrCompatibility\\Extensions\\FulltextSearchExtension&#45;&gt;\\SilverStripe\\Core\\Extension -->
<g id="edge3" class="edge">
<title>\\Firesphere\\SolrCompatibility\\Extensions\\FulltextSearchExtension&#45;&gt;\\SilverStripe\\Core\\Extension</title>
<path fill="none" stroke="#000000" d="M840.5088,-243.1982C833.4442,-239.6523 826.8743,-235.2424 821.2549,-229.7666 774.6022,-184.3058 828.6481,-133.4549 781.2549,-88.7666 745.3221,-54.8845 716.2824,-88.1014 672.7549,-64.7666"/>
</g>
<!-- \\Firesphere\\SolrSearch\\Tasks\\SolrIndexTask -->
<g id="node7" class="node">
<title>\\Firesphere\\SolrSearch\\Tasks\\SolrIndexTask</title>
<polygon fill="none" stroke="#000000" points="724.7549,-2964.7666 620.7549,-2964.7666 620.7549,-2928.7666 724.7549,-2928.7666 724.7549,-2964.7666"/>
<text text-anchor="middle" x="672.7549" y="-2943.9666" font-family="Courier,monospace" font-size="11.00" fill="#000000">SolrIndexTask</text>
</g>
<!-- \\SilverStripe\\Dev\\BuildTask -->
<g id="node65" class="node">
<title>\\SilverStripe\\Dev\\BuildTask</title>
<ellipse fill="none" stroke="#000000" cx="254.1275" cy="-126.7666" rx="139.9756" ry="18"/>
<text text-anchor="middle" x="254.1275" y="-123.0666" font-family="Times,serif" font-size="14.00" fill="#c0c0c0">\SilverStripe\Dev\BuildTask</text>
</g>
<!-- \\Firesphere\\SolrSearch\\Tasks\\SolrIndexTask&#45;&gt;\\SilverStripe\\Dev\\BuildTask -->
<g id="edge6" class="edge">
<title>\\Firesphere\\SolrSearch\\Tasks\\SolrIndexTask&#45;&gt;\\SilverStripe\\Dev\\BuildTask</title>
<path fill="none" stroke="#000000" d="M620.5505,-2945.0926C602.4437,-2941.6994 583.8055,-2934.4715 572.2549,-2919.7666 478.0965,-2799.8949 606.4447,-293.3589 508.2549,-176.7666 480.8364,-144.2094 438.9482,-128.8931 397.0401,-122.5188"/>
<polygon fill="none" stroke="#000000" points="397.3475,-119.0285 386.968,-121.1539 396.4074,-125.9651 397.3475,-119.0285"/>
</g>
<!-- \\Firesphere\\SolrSearch\\Tasks\\SolrConfigureTask -->
<g id="node8" class="node">
<title>\\Firesphere\\SolrSearch\\Tasks\\SolrConfigureTask</title>
<polygon fill="none" stroke="#000000" points="738.2549,-2910.7666 607.2549,-2910.7666 607.2549,-2874.7666 738.2549,-2874.7666 738.2549,-2910.7666"/>
<text text-anchor="middle" x="672.7549" y="-2889.9666" font-family="Courier,monospace" font-size="11.00" fill="#000000">SolrConfigureTask</text>
</g>
<!-- \\Firesphere\\SolrSearch\\Tasks\\SolrConfigureTask&#45;&gt;\\SilverStripe\\Dev\\BuildTask -->
<g id="edge7" class="edge">
<title>\\Firesphere\\SolrSearch\\Tasks\\SolrConfigureTask&#45;&gt;\\SilverStripe\\Dev\\BuildTask</title>
<path fill="none" stroke="#000000" d="M607.1881,-2887.8288C593.6935,-2883.6811 580.9623,-2876.8465 572.2549,-2865.7666 479.9217,-2748.2751 604.5395,-291.0423 508.2549,-176.7666 480.8288,-144.2158 438.9386,-128.9011 397.031,-122.5265"/>
<polygon fill="none" stroke="#000000" points="397.3386,-119.0362 386.9591,-121.1614 396.3984,-125.9728 397.3386,-119.0362"/>
</g>
<!-- \\Firesphere\\SolrSearch\\Tasks\\ClearErrorsTask -->
<g id="node9" class="node">
<title>\\Firesphere\\SolrSearch\\Tasks\\ClearErrorsTask</title>
<polygon fill="none" stroke="#000000" points="731.7549,-2856.7666 613.7549,-2856.7666 613.7549,-2820.7666 731.7549,-2820.7666 731.7549,-2856.7666"/>
<text text-anchor="middle" x="672.7549" y="-2835.9666" font-family="Courier,monospace" font-size="11.00" fill="#000000">ClearErrorsTask</text>
</g>
<!-- \\Firesphere\\SolrSearch\\Tasks\\ClearErrorsTask&#45;&gt;\\SilverStripe\\Dev\\BuildTask -->
<g id="edge8" class="edge">
<title>\\Firesphere\\SolrSearch\\Tasks\\ClearErrorsTask&#45;&gt;\\SilverStripe\\Dev\\BuildTask</title>
<path fill="none" stroke="#000000" d="M613.7253,-2835.6192C597.8814,-2831.7595 582.3608,-2824.6196 572.2549,-2811.7666 481.7468,-2696.6552 602.6344,-288.7258 508.2549,-176.7666 480.8209,-144.2225 438.9286,-128.9096 397.0216,-122.5344"/>
<polygon fill="none" stroke="#000000" points="397.3294,-119.0442 386.9498,-121.1692 396.3891,-125.9808 397.3294,-119.0442"/>
</g>
<!-- \\Firesphere\\SolrSearch\\Tasks\\ClearDirtyClassesTask -->
<g id="node10" class="node">
<title>\\Firesphere\\SolrSearch\\Tasks\\ClearDirtyClassesTask</title>
<polygon fill="none" stroke="#000000" points="751.7549,-2802.7666 593.7549,-2802.7666 593.7549,-2766.7666 751.7549,-2766.7666 751.7549,-2802.7666"/>
<text text-anchor="middle" x="672.7549" y="-2781.9666" font-family="Courier,monospace" font-size="11.00" fill="#000000">ClearDirtyClassesTask</text>
</g>
<!-- \\Firesphere\\SolrSearch\\Tasks\\ClearDirtyClassesTask&#45;&gt;\\SilverStripe\\Dev\\BuildTask -->
<g id="edge9" class="edge">
<title>\\Firesphere\\SolrSearch\\Tasks\\ClearDirtyClassesTask&#45;&gt;\\SilverStripe\\Dev\\BuildTask</title>
<path fill="none" stroke="#000000" d="M593.4824,-2772.056C585.2771,-2767.7723 577.8953,-2762.1438 572.2549,-2754.7666 398.2192,-2527.1428 692.9918,-395.7945 508.2549,-176.7666 480.8792,-144.3094 439.1224,-128.9938 397.3185,-122.5901"/>
<polygon fill="none" stroke="#000000" points="397.6527,-119.1033 387.2709,-121.2176 396.7052,-126.0389 397.6527,-119.1033"/>
</g>
<!-- \\Firesphere\\SolrSearch\\Interfaces\\SiteStateInterface -->
<g id="node11" class="node">
<title>\\Firesphere\\SolrSearch\\Interfaces\\SiteStateInterface</title>
<polygon fill="none" stroke="#000000" points="323.1275,-224.7666 185.1275,-224.7666 185.1275,-188.7666 323.1275,-188.7666 323.1275,-224.7666"/>
<text text-anchor="middle" x="254.1275" y="-203.9666" font-family="Courier,monospace" font-size="11.00" fill="#000000">SiteStateInterface</text>
</g>
<!-- \\Firesphere\\SolrSearch\\Interfaces\\ConfigStore -->
<g id="node12" class="node">
<title>\\Firesphere\\SolrSearch\\Interfaces\\ConfigStore</title>
<polygon fill="none" stroke="#000000" points="299.6275,-278.7666 208.6275,-278.7666 208.6275,-242.7666 299.6275,-242.7666 299.6275,-278.7666"/>
<text text-anchor="middle" x="254.1275" y="-257.9666" font-family="Courier,monospace" font-size="11.00" fill="#000000">ConfigStore</text>
</g>
<!-- \\Firesphere\\SolrSearch\\Services\\SolrCoreService -->
<g id="node13" class="node">
<title>\\Firesphere\\SolrSearch\\Services\\SolrCoreService</title>
<polygon fill="none" stroke="#000000" points="731.7549,-2722.7666 613.7549,-2722.7666 613.7549,-2686.7666 731.7549,-2686.7666 731.7549,-2722.7666"/>
<text text-anchor="middle" x="672.7549" y="-2701.9666" font-family="Courier,monospace" font-size="11.00" fill="#000000">SolrCoreService</text>
</g>
<!-- \\Firesphere\\SolrSearch\\States\\SiteState -->
<g id="node14" class="node">
<title>\\Firesphere\\SolrSearch\\States\\SiteState</title>
<polygon fill="none" stroke="#000000" points="714.7549,-2482.7666 630.7549,-2482.7666 630.7549,-2446.7666 714.7549,-2446.7666 714.7549,-2482.7666"/>
<text text-anchor="start" x="638.7549" y="-2467.9666" font-family="Courier,monospace" font-size="11.00" fill="#000000">«abstract»</text>
<text text-anchor="start" x="642.2549" y="-2455.9666" font-family="Courier,monospace" font-size="11.00" fill="#000000">SiteState</text>
</g>
<!-- \\Firesphere\\SolrSearch\\Results\\SearchResult -->
<g id="node17" class="node">
<title>\\Firesphere\\SolrSearch\\Results\\SearchResult</title>
<polygon fill="none" stroke="#000000" points="721.7549,-2402.7666 623.7549,-2402.7666 623.7549,-2366.7666 721.7549,-2366.7666 721.7549,-2402.7666"/>
<text text-anchor="middle" x="672.7549" y="-2381.9666" font-family="Courier,monospace" font-size="11.00" fill="#000000">SearchResult</text>
</g>
<!-- \\SilverStripe\\View\\ViewableData -->
<g id="node66" class="node">
<title>\\SilverStripe\\View\\ViewableData</title>
<ellipse fill="none" stroke="#000000" cx="254.1275" cy="-3694.7666" rx="163.2712" ry="18"/>
<text text-anchor="middle" x="254.1275" y="-3691.0666" font-family="Times,serif" font-size="14.00" fill="#c0c0c0">\SilverStripe\View\ViewableData</text>
</g>
<!-- \\Firesphere\\SolrSearch\\Results\\SearchResult&#45;&gt;\\SilverStripe\\View\\ViewableData -->
<g id="edge10" class="edge">
<title>\\Firesphere\\SolrSearch\\Results\\SearchResult&#45;&gt;\\SilverStripe\\View\\ViewableData</title>
<path fill="none" stroke="#000000" d="M623.7092,-2397.4114C604.4044,-2404.9824 584.0652,-2416.7599 572.2549,-2434.7666 497.0172,-2549.4786 602.6053,-3568.1796 508.2549,-3667.7666 467.1042,-3711.2012 398.788,-3716.3671 343.3463,-3711.5297"/>
<polygon fill="none" stroke="#000000" points="343.4505,-3708.0229 333.1534,-3710.5171 342.7584,-3714.9887 343.4505,-3708.0229"/>
</g>
<!-- \\Firesphere\\SolrSearch\\Helpers\\DataResolver -->
<g id="node18" class="node">
<title>\\Firesphere\\SolrSearch\\Helpers\\DataResolver</title>
<polygon fill="none" stroke="#000000" points="721.7549,-2322.7666 623.7549,-2322.7666 623.7549,-2286.7666 721.7549,-2286.7666 721.7549,-2322.7666"/>
<text text-anchor="middle" x="672.7549" y="-2301.9666" font-family="Courier,monospace" font-size="11.00" fill="#000000">DataResolver</text>
</g>
<!-- \\Firesphere\\SolrSearch\\Helpers\\SolrLogger -->
<g id="node19" class="node">
<title>\\Firesphere\\SolrSearch\\Helpers\\SolrLogger</title>
<polygon fill="none" stroke="#000000" points="714.7549,-2268.7666 630.7549,-2268.7666 630.7549,-2232.7666 714.7549,-2232.7666 714.7549,-2268.7666"/>
<text text-anchor="middle" x="672.7549" y="-2247.9666" font-family="Courier,monospace" font-size="11.00" fill="#000000">SolrLogger</text>
</g>
<!-- \\Firesphere\\SolrSearch\\Helpers\\Statics -->
<g id="node20" class="node">
<title>\\Firesphere\\SolrSearch\\Helpers\\Statics</title>
<polygon fill="none" stroke="#000000" points="704.7549,-2214.7666 640.7549,-2214.7666 640.7549,-2178.7666 704.7549,-2178.7666 704.7549,-2214.7666"/>
<text text-anchor="middle" x="672.7549" y="-2193.9666" font-family="Courier,monospace" font-size="11.00" fill="#000000">Statics</text>
</g>
<!-- \\Firesphere\\SolrSearch\\Helpers\\FieldResolver -->
<g id="node21" class="node">
<title>\\Firesphere\\SolrSearch\\Helpers\\FieldResolver</title>
<polygon fill="none" stroke="#000000" points="724.7549,-2160.7666 620.7549,-2160.7666 620.7549,-2124.7666 724.7549,-2124.7666 724.7549,-2160.7666"/>
<text text-anchor="middle" x="672.7549" y="-2139.9666" font-family="Courier,monospace" font-size="11.00" fill="#000000">FieldResolver</text>
</g>
<!-- \\Firesphere\\SolrSearch\\Helpers\\Synonyms -->
<g id="node22" class="node">
<title>\\Firesphere\\SolrSearch\\Helpers\\Synonyms</title>
<polygon fill="none" stroke="#000000" points="708.2549,-2106.7666 637.2549,-2106.7666 637.2549,-2070.7666 708.2549,-2070.7666 708.2549,-2106.7666"/>
<text text-anchor="middle" x="672.7549" y="-2085.9666" font-family="Courier,monospace" font-size="11.00" fill="#000000">Synonyms</text>
</g>
<!-- \\Firesphere\\SolrSearch\\Extensions\\DataObjectExtension -->
<g id="node23" class="node">
<title>\\Firesphere\\SolrSearch\\Extensions\\DataObjectExtension</title>
<polygon fill="none" stroke="#000000" points="745.2549,-2026.7666 600.2549,-2026.7666 600.2549,-1990.7666 745.2549,-1990.7666 745.2549,-2026.7666"/>
<text text-anchor="middle" x="672.7549" y="-2005.9666" font-family="Courier,monospace" font-size="11.00" fill="#000000">DataObjectExtension</text>
</g>
<!-- \\SilverStripe\\ORM\\DataExtension -->
<g id="node67" class="node">
<title>\\SilverStripe\\ORM\\DataExtension</title>
<ellipse fill="none" stroke="#000000" cx="254.1275" cy="-72.7666" rx="167.8704" ry="18"/>
<text text-anchor="middle" x="254.1275" y="-69.0666" font-family="Times,serif" font-size="14.00" fill="#c0c0c0">\SilverStripe\ORM\DataExtension</text>
</g>
<!-- \\Firesphere\\SolrSearch\\Extensions\\DataObjectExtension&#45;&gt;\\SilverStripe\\ORM\\DataExtension -->
<g id="edge11" class="edge">
<title>\\Firesphere\\SolrSearch\\Extensions\\DataObjectExtension&#45;&gt;\\SilverStripe\\ORM\\DataExtension</title>
<path fill="none" stroke="#000000" d="M600.0925,-2001.2651C589.3223,-1997.0361 579.4457,-1990.8212 572.2549,-1981.7666 442.1338,-1817.9175 650.7944,-252.9348 508.2549,-99.7666 467.3516,-55.8132 398.6794,-50.7843 343.0269,-55.8097"/>
<polygon fill="none" stroke="#000000" points="342.3876,-52.3568 332.7965,-56.8579 343.1012,-59.3203 342.3876,-52.3568"/>
</g>
<!-- \\Firesphere\\SolrSearch\\Extensions\\GridFieldExtension -->
<g id="node24" class="node">
<title>\\Firesphere\\SolrSearch\\Extensions\\GridFieldExtension</title>
<polygon fill="none" stroke="#000000" points="741.7549,-1972.7666 603.7549,-1972.7666 603.7549,-1936.7666 741.7549,-1936.7666 741.7549,-1972.7666"/>
<text text-anchor="middle" x="672.7549" y="-1951.9666" font-family="Courier,monospace" font-size="11.00" fill="#000000">GridFieldExtension</text>
</g>
<!-- \\Firesphere\\SolrSearch\\Extensions\\GridFieldExtension&#45;&gt;\\SilverStripe\\Core\\Extension -->
<g id="edge12" class="edge">
<title>\\Firesphere\\SolrSearch\\Extensions\\GridFieldExtension&#45;&gt;\\SilverStripe\\Core\\Extension</title>
<path fill="none" stroke="#000000" d="M603.5346,-1946.4427C591.4028,-1941.8653 580.1546,-1935.0005 572.2549,-1924.7666 444.6086,-1759.4029 650.5716,-198.6871 508.2549,-45.7666 466.2675,-.6508 395.0229,3.4536 338.6344,-2.2301"/>
<polygon fill="none" stroke="#000000" points="338.194,1.2425 328.6477,-3.353 338.9761,-5.7136 338.194,1.2425"/>
</g>
<!-- \\Firesphere\\SolrSearch\\Traits\\LoggerTrait -->
<g id="node25" class="node">
<title>\\Firesphere\\SolrSearch\\Traits\\LoggerTrait</title>
<polygon fill="none" stroke="#000000" points="718.2549,-1892.7666 627.2549,-1892.7666 627.2549,-1856.7666 718.2549,-1856.7666 718.2549,-1892.7666"/>
<text text-anchor="middle" x="672.7549" y="-1871.9666" font-family="Courier,monospace" font-size="11.00" fill="#000000">LoggerTrait</text>
</g>
<!-- \\Firesphere\\SolrSearch\\Traits\\GetSetSearchResolverTrait -->
<g id="node26" class="node">
<title>\\Firesphere\\SolrSearch\\Traits\\GetSetSearchResolverTrait</title>
<polygon fill="none" stroke="#000000" points="765.2549,-1838.7666 580.2549,-1838.7666 580.2549,-1802.7666 765.2549,-1802.7666 765.2549,-1838.7666"/>
<text text-anchor="middle" x="672.7549" y="-1817.9666" font-family="Courier,monospace" font-size="11.00" fill="#000000">GetSetSearchResolverTrait</text>
</g>
<!-- \\Firesphere\\SolrSearch\\Traits\\BaseQueryTrait -->
<g id="node27" class="node">
<title>\\Firesphere\\SolrSearch\\Traits\\BaseQueryTrait</title>
<polygon fill="none" stroke="#000000" points="728.2549,-1784.7666 617.2549,-1784.7666 617.2549,-1748.7666 728.2549,-1748.7666 728.2549,-1784.7666"/>
<text text-anchor="middle" x="672.7549" y="-1763.9666" font-family="Courier,monospace" font-size="11.00" fill="#000000">BaseQueryTrait</text>
</g>
<!-- \\Firesphere\\SolrSearch\\Traits\\CoreAdminTrait -->
<g id="node28" class="node">
<title>\\Firesphere\\SolrSearch\\Traits\\CoreAdminTrait</title>
<polygon fill="none" stroke="#000000" points="728.2549,-1730.7666 617.2549,-1730.7666 617.2549,-1694.7666 728.2549,-1694.7666 728.2549,-1730.7666"/>
<text text-anchor="middle" x="672.7549" y="-1709.9666" font-family="Courier,monospace" font-size="11.00" fill="#000000">CoreAdminTrait</text>
</g>
<!-- \\Firesphere\\SolrSearch\\Traits\\CoreServiceTrait -->
<g id="node29" class="node">
<title>\\Firesphere\\SolrSearch\\Traits\\CoreServiceTrait</title>
<polygon fill="none" stroke="#000000" points="735.2549,-1676.7666 610.2549,-1676.7666 610.2549,-1640.7666 735.2549,-1640.7666 735.2549,-1676.7666"/>
<text text-anchor="middle" x="672.7549" y="-1655.9666" font-family="Courier,monospace" font-size="11.00" fill="#000000">CoreServiceTrait</text>
</g>
<!-- \\Firesphere\\SolrSearch\\Traits\\DocumentFactoryTrait -->
<g id="node30" class="node">
<title>\\Firesphere\\SolrSearch\\Traits\\DocumentFactoryTrait</title>
<polygon fill="none" stroke="#000000" points="748.7549,-1622.7666 596.7549,-1622.7666 596.7549,-1586.7666 748.7549,-1586.7666 748.7549,-1622.7666"/>
<text text-anchor="middle" x="672.7549" y="-1601.9666" font-family="Courier,monospace" font-size="11.00" fill="#000000">DocumentFactoryTrait</text>
</g>
<!-- \\Firesphere\\SolrSearch\\Traits\\SolrIndexTrait -->
<g id="node31" class="node">
<title>\\Firesphere\\SolrSearch\\Traits\\SolrIndexTrait</title>
<polygon fill="none" stroke="#000000" points="728.2549,-1568.7666 617.2549,-1568.7666 617.2549,-1532.7666 728.2549,-1532.7666 728.2549,-1568.7666"/>
<text text-anchor="middle" x="672.7549" y="-1547.9666" font-family="Courier,monospace" font-size="11.00" fill="#000000">SolrIndexTrait</text>
</g>
<!-- \\Firesphere\\SolrSearch\\Traits\\BaseIndexTrait -->
<g id="node32" class="node">
<title>\\Firesphere\\SolrSearch\\Traits\\BaseIndexTrait</title>
<polygon fill="none" stroke="#000000" points="728.2549,-1514.7666 617.2549,-1514.7666 617.2549,-1478.7666 728.2549,-1478.7666 728.2549,-1514.7666"/>
<text text-anchor="middle" x="672.7549" y="-1493.9666" font-family="Courier,monospace" font-size="11.00" fill="#000000">BaseIndexTrait</text>
</g>
<!-- \\Firesphere\\SolrSearch\\Traits\\SearchResultGetTrait -->
<g id="node33" class="node">
<title>\\Firesphere\\SolrSearch\\Traits\\SearchResultGetTrait</title>
<polygon fill="none" stroke="#000000" points="748.7549,-1460.7666 596.7549,-1460.7666 596.7549,-1424.7666 748.7549,-1424.7666 748.7549,-1460.7666"/>
<text text-anchor="middle" x="672.7549" y="-1439.9666" font-family="Courier,monospace" font-size="11.00" fill="#000000">SearchResultGetTrait</text>
</g>
<!-- \\Firesphere\\SolrSearch\\Traits\\SearchResultSetTrait -->
<g id="node34" class="node">
<title>\\Firesphere\\SolrSearch\\Traits\\SearchResultSetTrait</title>
<polygon fill="none" stroke="#000000" points="748.7549,-1406.7666 596.7549,-1406.7666 596.7549,-1370.7666 748.7549,-1370.7666 748.7549,-1406.7666"/>
<text text-anchor="middle" x="672.7549" y="-1385.9666" font-family="Courier,monospace" font-size="11.00" fill="#000000">SearchResultSetTrait</text>
</g>
<!-- \\Firesphere\\SolrSearch\\Traits\\DataResolveTrait -->
<g id="node35" class="node">
<title>\\Firesphere\\SolrSearch\\Traits\\DataResolveTrait</title>
<polygon fill="none" stroke="#000000" points="735.2549,-1352.7666 610.2549,-1352.7666 610.2549,-1316.7666 735.2549,-1316.7666 735.2549,-1352.7666"/>
<text text-anchor="middle" x="672.7549" y="-1331.9666" font-family="Courier,monospace" font-size="11.00" fill="#000000">DataResolveTrait</text>
</g>
<!-- \\Firesphere\\SolrSearch\\Traits\\GetSetSchemaFactoryTrait -->
<g id="node36" class="node">
<title>\\Firesphere\\SolrSearch\\Traits\\GetSetSchemaFactoryTrait</title>
<polygon fill="none" stroke="#000000" points="762.2549,-1298.7666 583.2549,-1298.7666 583.2549,-1262.7666 762.2549,-1262.7666 762.2549,-1298.7666"/>
<text text-anchor="middle" x="672.7549" y="-1277.9666" font-family="Courier,monospace" font-size="11.00" fill="#000000">GetSetSchemaFactoryTrait</text>
</g>
<!-- \\Firesphere\\SolrSearch\\Traits\\GetterSetterTrait -->
<g id="node37" class="node">
<title>\\Firesphere\\SolrSearch\\Traits\\GetterSetterTrait</title>
<polygon fill="none" stroke="#000000" points="738.2549,-1244.7666 607.2549,-1244.7666 607.2549,-1208.7666 738.2549,-1208.7666 738.2549,-1244.7666"/>
<text text-anchor="middle" x="672.7549" y="-1223.9666" font-family="Courier,monospace" font-size="11.00" fill="#000000">GetterSetterTrait</text>
</g>
<!-- \\Firesphere\\SolrSearch\\Traits\\QueryComponentBoostTrait -->
<g id="node38" class="node">
<title>\\Firesphere\\SolrSearch\\Traits\\QueryComponentBoostTrait</title>
<polygon fill="none" stroke="#000000" points="762.2549,-1190.7666 583.2549,-1190.7666 583.2549,-1154.7666 762.2549,-1154.7666 762.2549,-1190.7666"/>
<text text-anchor="middle" x="672.7549" y="-1169.9666" font-family="Courier,monospace" font-size="11.00" fill="#000000">QueryComponentBoostTrait</text>
</g>
<!-- \\Firesphere\\SolrSearch\\Traits\\QueryComponentFilterTrait -->
<g id="node39" class="node">
<title>\\Firesphere\\SolrSearch\\Traits\\QueryComponentFilterTrait</title>
<polygon fill="none" stroke="#000000" points="765.2549,-1136.7666 580.2549,-1136.7666 580.2549,-1100.7666 765.2549,-1100.7666 765.2549,-1136.7666"/>
<text text-anchor="middle" x="672.7549" y="-1115.9666" font-family="Courier,monospace" font-size="11.00" fill="#000000">QueryComponentFilterTrait</text>
</g>
<!-- \\Firesphere\\SolrSearch\\Traits\\QueryComponentFacetTrait -->
<g id="node40" class="node">
<title>\\Firesphere\\SolrSearch\\Traits\\QueryComponentFacetTrait</title>
<polygon fill="none" stroke="#000000" points="762.2549,-1082.7666 583.2549,-1082.7666 583.2549,-1046.7666 762.2549,-1046.7666 762.2549,-1082.7666"/>
<text text-anchor="middle" x="672.7549" y="-1061.9666" font-family="Courier,monospace" font-size="11.00" fill="#000000">QueryComponentFacetTrait</text>
</g>
<!-- \\Firesphere\\SolrSearch\\Jobs\\ClearDirtyClassesJob -->
<g id="node41" class="node">
<title>\\Firesphere\\SolrSearch\\Jobs\\ClearDirtyClassesJob</title>
<polygon fill="none" stroke="#000000" points="748.7549,-706.7666 596.7549,-706.7666 596.7549,-670.7666 748.7549,-670.7666 748.7549,-706.7666"/>
<text text-anchor="middle" x="672.7549" y="-685.9666" font-family="Courier,monospace" font-size="11.00" fill="#000000">ClearDirtyClassesJob</text>
</g>
<!-- \\Symbiote\\QueuedJobs\\Services\\AbstractQueuedJob -->
<g id="node68" class="node">
<title>\\Symbiote\\QueuedJobs\\Services\\AbstractQueuedJob</title>
<ellipse fill="none" stroke="#000000" cx="254.1275" cy="-3640.7666" rx="254.255" ry="18"/>
<text text-anchor="middle" x="254.1275" y="-3637.0666" font-family="Times,serif" font-size="14.00" fill="#c0c0c0">\Symbiote\QueuedJobs\Services\AbstractQueuedJob</text>
</g>
<!-- \\Firesphere\\SolrSearch\\Jobs\\ClearDirtyClassesJob&#45;&gt;\\Symbiote\\QueuedJobs\\Services\\AbstractQueuedJob -->
<g id="edge13" class="edge">
<title>\\Firesphere\\SolrSearch\\Jobs\\ClearDirtyClassesJob&#45;&gt;\\Symbiote\\QueuedJobs\\Services\\AbstractQueuedJob</title>
<path fill="none" stroke="#000000" d="M596.5057,-697.6592C587.1191,-701.8314 578.611,-707.6642 572.2549,-715.7666 472.8577,-842.4703 617.259,-3495.2265 508.2549,-3613.7666 469.5224,-3655.8875 405.3157,-3662.4204 351.1334,-3658.5328"/>
<polygon fill="none" stroke="#000000" points="351.3997,-3655.043 341.1414,-3657.6919 350.8126,-3662.0183 351.3997,-3655.043"/>
</g>
<!-- \\Firesphere\\SolrSearch\\Jobs\\SolrConfigureJob -->
<g id="node42" class="node">
<title>\\Firesphere\\SolrSearch\\Jobs\\SolrConfigureJob</title>
<polygon fill="none" stroke="#000000" points="735.2549,-814.7666 610.2549,-814.7666 610.2549,-778.7666 735.2549,-778.7666 735.2549,-814.7666"/>
<text text-anchor="middle" x="672.7549" y="-793.9666" font-family="Courier,monospace" font-size="11.00" fill="#000000">SolrConfigureJob</text>
</g>
<!-- \\Firesphere\\SolrSearch\\Jobs\\SolrConfigureJob&#45;&gt;\\Symbiote\\QueuedJobs\\Services\\AbstractQueuedJob -->
<g id="edge14" class="edge">
<title>\\Firesphere\\SolrSearch\\Jobs\\SolrConfigureJob&#45;&gt;\\Symbiote\\QueuedJobs\\Services\\AbstractQueuedJob</title>
<path fill="none" stroke="#000000" d="M610.8145,-814.7878C595.7022,-822.2183 581.2966,-832.5395 572.2549,-846.7666 489.7805,-976.54 612.3932,-3500.6366 508.2549,-3613.7666 469.5712,-3655.7904 405.5281,-3662.3763 351.4138,-3658.539"/>
<polygon fill="none" stroke="#000000" points="351.6895,-3655.05 341.4334,-3657.7074 351.1082,-3662.0258 351.6895,-3655.05"/>
</g>
<!-- \\Firesphere\\SolrSearch\\Jobs\\SolrIndexJob -->
<g id="node43" class="node">
<title>\\Firesphere\\SolrSearch\\Jobs\\SolrIndexJob</title>
<polygon fill="none" stroke="#000000" points="721.7549,-760.7666 623.7549,-760.7666 623.7549,-724.7666 721.7549,-724.7666 721.7549,-760.7666"/>
<text text-anchor="middle" x="672.7549" y="-739.9666" font-family="Courier,monospace" font-size="11.00" fill="#000000">SolrIndexJob</text>
</g>
<!-- \\Firesphere\\SolrSearch\\Jobs\\SolrIndexJob&#45;&gt;\\Symbiote\\QueuedJobs\\Services\\AbstractQueuedJob -->
<g id="edge15" class="edge">
<title>\\Firesphere\\SolrSearch\\Jobs\\SolrIndexJob&#45;&gt;\\Symbiote\\QueuedJobs\\Services\\AbstractQueuedJob</title>
<path fill="none" stroke="#000000" d="M623.6863,-743.8834C604.6211,-747.0151 584.4687,-754.2041 572.2549,-769.7666 474.6829,-894.0901 615.2532,-3497.4566 508.2549,-3613.7666 469.5136,-3655.8794 405.3069,-3662.4123 351.1268,-3658.5268"/>
<polygon fill="none" stroke="#000000" points="351.3935,-3655.037 341.1353,-3657.6863 350.8067,-3662.0124 351.3935,-3655.037"/>
</g>
<!-- \\Firesphere\\SolrSearch\\Models\\SearchSynonym -->
<g id="node44" class="node">
<title>\\Firesphere\\SolrSearch\\Models\\SearchSynonym</title>
<polygon fill="none" stroke="#000000" points="724.7549,-572.7666 620.7549,-572.7666 620.7549,-536.7666 724.7549,-536.7666 724.7549,-572.7666"/>
<text text-anchor="middle" x="672.7549" y="-551.9666" font-family="Courier,monospace" font-size="11.00" fill="#000000">SearchSynonym</text>
</g>
<!-- \\SilverStripe\\ORM\\DataObject -->
<g id="node69" class="node">
<title>\\SilverStripe\\ORM\\DataObject</title>
<ellipse fill="none" stroke="#000000" cx="254.1275" cy="-3586.7666" rx="152.9733" ry="18"/>
<text text-anchor="middle" x="254.1275" y="-3583.0666" font-family="Times,serif" font-size="14.00" fill="#c0c0c0">\SilverStripe\ORM\DataObject</text>
</g>
<!-- \\Firesphere\\SolrSearch\\Models\\SearchSynonym&#45;&gt;\\SilverStripe\\ORM\\DataObject -->
<g id="edge16" class="edge">
<title>\\Firesphere\\SolrSearch\\Models\\SearchSynonym&#45;&gt;\\SilverStripe\\ORM\\DataObject</title>
<path fill="none" stroke="#000000" d="M620.536,-556.4293C602.4276,-559.8211 583.792,-567.051 572.2549,-581.7666 470.1537,-711.9966 620.2305,-3437.9225 508.2549,-3559.7666 466.7641,-3604.914 396.0081,-3609.1845 339.6767,-3603.5552"/>
<polygon fill="none" stroke="#000000" points="340.0222,-3600.0721 329.6956,-3602.4409 339.2455,-3607.0289 340.0222,-3600.0721"/>
</g>
<!-- \\Firesphere\\SolrSearch\\Models\\SolrLog -->
<g id="node45" class="node">
<title>\\Firesphere\\SolrSearch\\Models\\SolrLog</title>
<polygon fill="none" stroke="#000000" points="704.7549,-518.7666 640.7549,-518.7666 640.7549,-482.7666 704.7549,-482.7666 704.7549,-518.7666"/>
<text text-anchor="middle" x="672.7549" y="-497.9666" font-family="Courier,monospace" font-size="11.00" fill="#000000">SolrLog</text>
</g>
<!-- \\Firesphere\\SolrSearch\\Models\\SolrLog&#45;&gt;\\SilverStripe\\ORM\\DataObject -->
<g id="edge17" class="edge">
<title>\\Firesphere\\SolrSearch\\Models\\SolrLog&#45;&gt;\\SilverStripe\\ORM\\DataObject</title>
<path fill="none" stroke="#000000" d="M640.6125,-500.0184C617.6823,-501.3902 588.1911,-507.4319 572.2549,-527.7666 468.3286,-660.3769 622.2363,-3435.6923 508.2549,-3559.7666 466.7727,-3604.922 396.016,-3609.1918 339.6822,-3603.5602"/>
<polygon fill="none" stroke="#000000" points="340.0273,-3600.0771 329.7006,-3602.4455 339.2503,-3607.0338 340.0273,-3600.0771"/>
</g>
<!-- \\SilverStripe\\Security\\PermissionProvider -->
<g id="node70" class="node">
<title>\\SilverStripe\\Security\\PermissionProvider</title>
<ellipse fill="none" stroke="#000000" cx="254.1275" cy="-3532.7666" rx="206.0634" ry="18"/>
<text text-anchor="middle" x="254.1275" y="-3529.0666" font-family="Times,serif" font-size="14.00" fill="#c0c0c0">\SilverStripe\Security\PermissionProvider</text>
</g>
<!-- \\Firesphere\\SolrSearch\\Models\\SolrLog&#45;&gt;\\SilverStripe\\Security\\PermissionProvider -->
<g id="edge18" class="edge">
<title>\\Firesphere\\SolrSearch\\Models\\SolrLog&#45;&gt;\\SilverStripe\\Security\\PermissionProvider</title>
<path fill="none" stroke="#000000" stroke-dasharray="1,5" d="M640.6148,-500.0202C617.6857,-501.3929 588.195,-507.435 572.2549,-527.7666 470.1537,-657.9966 620.2305,-3383.9225 508.2549,-3505.7666 468.5457,-3548.9753 402.0308,-3554.7423 347.0099,-3550.2232"/>
<polygon fill="none" stroke="#000000" points="347.1639,-3546.7222 336.8791,-3549.2663 346.5057,-3553.6912 347.1639,-3546.7222"/>
</g>
<!-- \\Firesphere\\SolrSearch\\Models\\DirtyClass -->
<g id="node46" class="node">
<title>\\Firesphere\\SolrSearch\\Models\\DirtyClass</title>
<polygon fill="none" stroke="#000000" points="714.7549,-626.7666 630.7549,-626.7666 630.7549,-590.7666 714.7549,-590.7666 714.7549,-626.7666"/>
<text text-anchor="middle" x="672.7549" y="-605.9666" font-family="Courier,monospace" font-size="11.00" fill="#000000">DirtyClass</text>
</g>
<!-- \\Firesphere\\SolrSearch\\Models\\DirtyClass&#45;&gt;\\SilverStripe\\ORM\\DataObject -->
<g id="edge19" class="edge">
<title>\\Firesphere\\SolrSearch\\Models\\DirtyClass&#45;&gt;\\SilverStripe\\ORM\\DataObject</title>
<path fill="none" stroke="#000000" d="M630.7371,-618.577C609.383,-625.8966 585.2577,-638.2825 572.2549,-658.7666 485.8611,-794.8675 617.3704,-3441.1026 508.2549,-3559.7666 466.7512,-3604.9022 395.9962,-3609.1736 339.6686,-3603.5477"/>
<polygon fill="none" stroke="#000000" points="340.0146,-3600.0647 329.6881,-3602.434 339.2382,-3607.0215 340.0146,-3600.0647"/>
</g>
<!-- \\Firesphere\\SolrSearch\\Forms\\SearchForm -->
<g id="node47" class="node">
<title>\\Firesphere\\SolrSearch\\Forms\\SearchForm</title>
<polygon fill="none" stroke="#000000" points="714.7549,-438.7666 630.7549,-438.7666 630.7549,-402.7666 714.7549,-402.7666 714.7549,-438.7666"/>
<text text-anchor="middle" x="672.7549" y="-417.9666" font-family="Courier,monospace" font-size="11.00" fill="#000000">SearchForm</text>
</g>
<!-- \\SilverStripe\\Forms\\Form -->
<g id="node71" class="node">
<title>\\SilverStripe\\Forms\\Form</title>
<ellipse fill="none" stroke="#000000" cx="254.1275" cy="-3478.7666" rx="129.1772" ry="18"/>
<text text-anchor="middle" x="254.1275" y="-3475.0666" font-family="Times,serif" font-size="14.00" fill="#c0c0c0">\SilverStripe\Forms\Form</text>
</g>
<!-- \\Firesphere\\SolrSearch\\Forms\\SearchForm&#45;&gt;\\SilverStripe\\Forms\\Form -->
<g id="edge20" class="edge">
<title>\\Firesphere\\SolrSearch\\Forms\\SearchForm&#45;&gt;\\SilverStripe\\Forms\\Form</title>
<path fill="none" stroke="#000000" d="M630.7323,-430.5739C609.3768,-437.8927 585.2517,-450.2786 572.2549,-470.7666 483.5212,-610.6451 620.3419,-3329.7986 508.2549,-3451.7666 465.6317,-3498.1472 392.1229,-3501.3876 335.096,-3495.0729"/>
<polygon fill="none" stroke="#000000" points="335.3636,-3491.5796 325.0126,-3493.8393 334.5136,-3498.5278 335.3636,-3491.5796"/>
</g>
<!-- \\Firesphere\\SolrSearch\\Admins\\SearchAdmin -->
<g id="node48" class="node">
<title>\\Firesphere\\SolrSearch\\Admins\\SearchAdmin</title>
<polygon fill="none" stroke="#000000" points="718.2549,-358.7666 627.2549,-358.7666 627.2549,-322.7666 718.2549,-322.7666 718.2549,-358.7666"/>
<text text-anchor="middle" x="672.7549" y="-337.9666" font-family="Courier,monospace" font-size="11.00" fill="#000000">SearchAdmin</text>
</g>
<!-- \\SilverStripe\\Admin\\ModelAdmin -->
<g id="node72" class="node">
<title>\\SilverStripe\\Admin\\ModelAdmin</title>
<ellipse fill="none" stroke="#000000" cx="254.1275" cy="-3424.7666" rx="165.1707" ry="18"/>
<text text-anchor="middle" x="254.1275" y="-3421.0666" font-family="Times,serif" font-size="14.00" fill="#c0c0c0">\SilverStripe\Admin\ModelAdmin</text>
</g>
<!-- \\Firesphere\\SolrSearch\\Admins\\SearchAdmin&#45;&gt;\\SilverStripe\\Admin\\ModelAdmin -->
<g id="edge21" class="edge">
<title>\\Firesphere\\SolrSearch\\Admins\\SearchAdmin&#45;&gt;\\SilverStripe\\Admin\\ModelAdmin</title>
<path fill="none" stroke="#000000" d="M627.0253,-352.6103C606.9894,-360.1892 585.1459,-372.1963 572.2549,-390.7666 390.5501,-652.5226 269.3387,-3103.3337 255.4608,-3396.1935"/>
<polygon fill="none" stroke="#000000" points="251.954,-3396.2573 254.9788,-3406.4111 258.9462,-3396.5872 251.954,-3396.2573"/>
</g>
<!-- \\Firesphere\\SolrSearch\\Factories\\SchemaFactory -->
<g id="node49" class="node">
<title>\\Firesphere\\SolrSearch\\Factories\\SchemaFactory</title>
<polygon fill="none" stroke="#000000" points="724.7549,-1002.7666 620.7549,-1002.7666 620.7549,-966.7666 724.7549,-966.7666 724.7549,-1002.7666"/>
<text text-anchor="middle" x="672.7549" y="-981.9666" font-family="Courier,monospace" font-size="11.00" fill="#000000">SchemaFactory</text>
</g>
<!-- \\Firesphere\\SolrSearch\\Factories\\SchemaFactory&#45;&gt;\\SilverStripe\\View\\ViewableData -->
<g id="edge22" class="edge">
<title>\\Firesphere\\SolrSearch\\Factories\\SchemaFactory&#45;&gt;\\SilverStripe\\View\\ViewableData</title>
<path fill="none" stroke="#000000" d="M620.5729,-998.4137C602.1214,-1005.9897 583.2405,-1017.5031 572.2549,-1034.7666 493.6997,-1158.2126 607.416,-3560.1706 508.2549,-3667.7666 467.2112,-3712.3015 397.684,-3717.0195 341.7188,-3711.7204"/>
<polygon fill="none" stroke="#000000" points="341.7519,-3708.2041 331.4366,-3710.6218 341.0081,-3715.1645 341.7519,-3708.2041"/>
</g>
<!-- \\Firesphere\\SolrSearch\\Factories\\DocumentFactory -->
<g id="node50" class="node">
<title>\\Firesphere\\SolrSearch\\Factories\\DocumentFactory</title>
<polygon fill="none" stroke="#000000" points="731.7549,-948.7666 613.7549,-948.7666 613.7549,-912.7666 731.7549,-912.7666 731.7549,-948.7666"/>
<text text-anchor="middle" x="672.7549" y="-927.9666" font-family="Courier,monospace" font-size="11.00" fill="#000000">DocumentFactory</text>
</g>
<!-- \\Firesphere\\SolrSearch\\Factories\\QueryComponentFactory -->
<g id="node51" class="node">
<title>\\Firesphere\\SolrSearch\\Factories\\QueryComponentFactory</title>
<polygon fill="none" stroke="#000000" points="751.7549,-894.7666 593.7549,-894.7666 593.7549,-858.7666 751.7549,-858.7666 751.7549,-894.7666"/>
<text text-anchor="middle" x="672.7549" y="-873.9666" font-family="Courier,monospace" font-size="11.00" fill="#000000">QueryComponentFactory</text>
</g>
<!-- \\Firesphere\\SolrSearch\\Stores\\PostConfigStore -->
<g id="node52" class="node">
<title>\\Firesphere\\SolrSearch\\Stores\\PostConfigStore</title>
<polygon fill="none" stroke="#000000" points="731.7549,-278.7666 613.7549,-278.7666 613.7549,-242.7666 731.7549,-242.7666 731.7549,-278.7666"/>
<text text-anchor="middle" x="672.7549" y="-257.9666" font-family="Courier,monospace" font-size="11.00" fill="#000000">PostConfigStore</text>
</g>
<!-- \\Firesphere\\SolrSearch\\Stores\\PostConfigStore&#45;&gt;\\Firesphere\\SolrSearch\\Interfaces\\ConfigStore -->
<g id="edge23" class="edge">
<title>\\Firesphere\\SolrSearch\\Stores\\PostConfigStore&#45;&gt;\\Firesphere\\SolrSearch\\Interfaces\\ConfigStore</title>
<path fill="none" stroke="#000000" stroke-dasharray="1,5" d="M613.6637,-260.7666C532.8854,-260.7666 389.0185,-260.7666 309.9722,-260.7666"/>
<polygon fill="none" stroke="#000000" points="309.7288,-257.2667 299.7287,-260.7666 309.7287,-264.2667 309.7288,-257.2667"/>
</g>
<!-- \\Firesphere\\SolrSearch\\Stores\\FileConfigStore -->
<g id="node53" class="node">
<title>\\Firesphere\\SolrSearch\\Stores\\FileConfigStore</title>
<polygon fill="none" stroke="#000000" points="731.7549,-224.7666 613.7549,-224.7666 613.7549,-188.7666 731.7549,-188.7666 731.7549,-224.7666"/>
<text text-anchor="middle" x="672.7549" y="-203.9666" font-family="Courier,monospace" font-size="11.00" fill="#000000">FileConfigStore</text>
</g>
<!-- \\Firesphere\\SolrSearch\\Stores\\FileConfigStore&#45;&gt;\\Firesphere\\SolrSearch\\Interfaces\\ConfigStore -->
<g id="edge24" class="edge">
<title>\\Firesphere\\SolrSearch\\Stores\\FileConfigStore&#45;&gt;\\Firesphere\\SolrSearch\\Interfaces\\ConfigStore</title>
<path fill="none" stroke="#000000" stroke-dasharray="1,5" d="M613.4867,-217.3301C582.2454,-222.6865 543.2453,-229.0401 508.2549,-233.7666 440.1774,-242.9624 361.4881,-250.9113 309.9264,-255.7578"/>
<polygon fill="none" stroke="#000000" points="309.2998,-252.3009 299.6682,-256.7147 309.95,-259.2707 309.2998,-252.3009"/>
</g>
<!-- \\Firesphere\\SolrFluent\\States\\FluentSiteState -->
<g id="node54" class="node">
<title>\\Firesphere\\SolrFluent\\States\\FluentSiteState</title>
<polygon fill="none" stroke="#000000" points="985.7549,-910.7666 867.7549,-910.7666 867.7549,-874.7666 985.7549,-874.7666 985.7549,-910.7666"/>
<text text-anchor="middle" x="926.7549" y="-889.9666" font-family="Courier,monospace" font-size="11.00" fill="#000000">FluentSiteState</text>
</g>
<!-- \\Firesphere\\SolrFluent\\States\\FluentSiteState&#45;&gt;\\Firesphere\\SolrSearch\\Interfaces\\SiteStateInterface -->
<g id="edge26" class="edge">
<title>\\Firesphere\\SolrFluent\\States\\FluentSiteState&#45;&gt;\\Firesphere\\SolrSearch\\Interfaces\\SiteStateInterface</title>
<path fill="none" stroke="#000000" stroke-dasharray="1,5" d="M867.4876,-888.8388C850.0199,-884.6478 832.5734,-876.8783 821.2549,-862.7666 725.7123,-743.6451 888.8981,-285.0775 781.2549,-176.7666 764.2232,-159.6292 692.8139,-183.235 672.7549,-169.7666"/>
<path fill="none" stroke="#000000" stroke-dasharray="1,5" d="M672.7549,-169.7666C645.303,-151.3342 446.8154,-177.5596 333.2851,-194.4392"/>
<polygon fill="none" stroke="#000000" points="332.6173,-191.0001 323.2449,-195.9405 333.6526,-197.9231 332.6173,-191.0001"/>
</g>
<!-- \\Firesphere\\SolrFluent\\States\\FluentSiteState&#45;&gt;\\Firesphere\\SolrSearch\\States\\SiteState -->
<g id="edge25" class="edge">
<title>\\Firesphere\\SolrFluent\\States\\FluentSiteState&#45;&gt;\\Firesphere\\SolrSearch\\States\\SiteState</title>
<path fill="none" stroke="#000000" d="M891.4363,-910.8277C866.9066,-925.4902 836.0665,-948.6573 821.2549,-978.7666 749.8174,-1123.9853 881.0237,-2307.3382 781.2549,-2434.7666 767.8985,-2451.8258 745.7632,-2459.7361 724.957,-2463.2221"/>
<polygon fill="none" stroke="#000000" points="724.3274,-2459.7755 714.8941,-2464.5987 725.2762,-2466.7109 724.3274,-2459.7755"/>
</g>
<!-- \\Firesphere\\SolrFluent\\Extensions\\FluentIndexExtension -->
<g id="node55" class="node">
<title>\\Firesphere\\SolrFluent\\Extensions\\FluentIndexExtension</title>
<polygon fill="none" stroke="#000000" points="1002.7549,-776.7666 850.7549,-776.7666 850.7549,-740.7666 1002.7549,-740.7666 1002.7549,-776.7666"/>
<text text-anchor="middle" x="926.7549" y="-755.9666" font-family="Courier,monospace" font-size="11.00" fill="#000000">FluentIndexExtension</text>
</g>
<!-- \\Firesphere\\SolrFluent\\Extensions\\FluentIndexExtension&#45;&gt;\\SilverStripe\\Core\\Extension -->
<g id="edge27" class="edge">
<title>\\Firesphere\\SolrFluent\\Extensions\\FluentIndexExtension&#45;&gt;\\SilverStripe\\Core\\Extension</title>
<path fill="none" stroke="#000000" d="M850.5548,-751.5631C839.313,-747.2912 828.9462,-740.9848 821.2549,-731.7666 740.3328,-634.7788 863.7592,-260.412 781.2549,-164.7666 748.9961,-127.3696 708.9397,-174.3794 672.7549,-140.7666"/>
</g>
<!-- \\Firesphere\\SolrFluent\\Extensions\\FluentDocumentExtension -->
<g id="node56" class="node">
<title>\\Firesphere\\SolrFluent\\Extensions\\FluentDocumentExtension</title>
<polygon fill="none" stroke="#000000" points="1012.7549,-722.7666 840.7549,-722.7666 840.7549,-686.7666 1012.7549,-686.7666 1012.7549,-722.7666"/>
<text text-anchor="middle" x="926.7549" y="-701.9666" font-family="Courier,monospace" font-size="11.00" fill="#000000">FluentDocumentExtension</text>
</g>
<!-- \\Firesphere\\SolrFluent\\Extensions\\FluentDocumentExtension&#45;&gt;\\SilverStripe\\Core\\Extension -->
<g id="edge28" class="edge">
<title>\\Firesphere\\SolrFluent\\Extensions\\FluentDocumentExtension&#45;&gt;\\SilverStripe\\Core\\Extension</title>
<path fill="none" stroke="#000000" d="M879.1415,-686.7422C857.7901,-676.1167 834.4799,-660.4352 821.2549,-638.7666 766.185,-548.5367 850.8493,-244.3325 781.2549,-164.7666 748.7396,-127.5924 708.9397,-174.3794 672.7549,-140.7666"/>
<path fill="none" stroke="#000000" d="M672.7549,-140.7666C657.2907,-126.4015 528.3246,-52.3014 508.2549,-45.7666 475.4252,-35.0769 439.0725,-28.3912 404.3721,-24.263"/>
<polygon fill="none" stroke="#000000" points="404.4777,-20.7529 394.1493,-23.1139 403.6957,-27.7091 404.4777,-20.7529"/>
</g>
<!-- \\Firesphere\\SolrFluent\\Extensions\\FluentSchemaExtension -->
<g id="node57" class="node">
<title>\\Firesphere\\SolrFluent\\Extensions\\FluentSchemaExtension</title>
<polygon fill="none" stroke="#000000" points="1005.7549,-830.7666 847.7549,-830.7666 847.7549,-794.7666 1005.7549,-794.7666 1005.7549,-830.7666"/>
<text text-anchor="middle" x="926.7549" y="-809.9666" font-family="Courier,monospace" font-size="11.00" fill="#000000">FluentSchemaExtension</text>
</g>
<!-- \\Firesphere\\SolrFluent\\Extensions\\FluentSchemaExtension&#45;&gt;\\SilverStripe\\Core\\Extension -->
<g id="edge29" class="edge">
<title>\\Firesphere\\SolrFluent\\Extensions\\FluentSchemaExtension&#45;&gt;\\SilverStripe\\Core\\Extension</title>
<path fill="none" stroke="#000000" d="M847.6084,-804.4451C837.4974,-800.21 828.2543,-794.2078 821.2549,-785.7666 732.9871,-679.3156 871.2594,-269.7533 781.2549,-164.7666 749.1104,-127.2713 708.9397,-174.3794 672.7549,-140.7666"/>
</g>
<!-- \\Firesphere\\SolrSubsites\\States\\SubsiteState -->
<g id="node58" class="node">
<title>\\Firesphere\\SolrSubsites\\States\\SubsiteState</title>
<polygon fill="none" stroke="#000000" points="975.7549,-1106.7666 877.7549,-1106.7666 877.7549,-1070.7666 975.7549,-1070.7666 975.7549,-1106.7666"/>
<text text-anchor="middle" x="926.7549" y="-1085.9666" font-family="Courier,monospace" font-size="11.00" fill="#000000">SubsiteState</text>
</g>
<!-- \\Firesphere\\SolrSubsites\\States\\SubsiteState&#45;&gt;\\Firesphere\\SolrSearch\\Interfaces\\SiteStateInterface -->
<g id="edge31" class="edge">
<title>\\Firesphere\\SolrSubsites\\States\\SubsiteState&#45;&gt;\\Firesphere\\SolrSearch\\Interfaces\\SiteStateInterface</title>
<path fill="none" stroke="#000000" stroke-dasharray="1,5" d="M877.5482,-1086.9815C856.9256,-1083.5302 834.6683,-1075.7134 821.2549,-1058.7666 760.3715,-981.8448 849.9568,-246.7938 781.2549,-176.7666 764.3343,-159.5196 692.8139,-183.235 672.7549,-169.7666"/>
</g>
<!-- \\Firesphere\\SolrSubsites\\States\\SubsiteState&#45;&gt;\\Firesphere\\SolrSearch\\States\\SiteState -->
<g id="edge30" class="edge">
<title>\\Firesphere\\SolrSubsites\\States\\SubsiteState&#45;&gt;\\Firesphere\\SolrSearch\\States\\SiteState</title>
<path fill="none" stroke="#000000" d="M926.001,-1107.1722C919.5466,-1260.9061 871.6239,-2328.4211 781.2549,-2434.7666 767.334,-2451.1486 745.3439,-2458.9912 724.7892,-2462.6084"/>
<polygon fill="none" stroke="#000000" points="724.2428,-2459.151 714.8558,-2464.0636 725.2575,-2466.0771 724.2428,-2459.151"/>
</g>
<!-- \\Firesphere\\SolrSubsites\\Extensions\\SubsitesExtension -->
<g id="node59" class="node">
<title>\\Firesphere\\SolrSubsites\\Extensions\\SubsitesExtension</title>
<polygon fill="none" stroke="#000000" points="992.2549,-1026.7666 861.2549,-1026.7666 861.2549,-990.7666 992.2549,-990.7666 992.2549,-1026.7666"/>
<text text-anchor="middle" x="926.7549" y="-1005.9666" font-family="Courier,monospace" font-size="11.00" fill="#000000">SubsitesExtension</text>
</g>
<!-- \\Firesphere\\SolrSubsites\\Extensions\\SubsitesExtension&#45;&gt;\\SilverStripe\\Core\\Extension -->
<g id="edge32" class="edge">
<title>\\Firesphere\\SolrSubsites\\Extensions\\SubsitesExtension&#45;&gt;\\SilverStripe\\Core\\Extension</title>
<path fill="none" stroke="#000000" d="M878.2804,-990.6589C857.0079,-980.0807 834.0131,-964.4631 821.2549,-942.7666 777.3794,-868.152 837.1654,-230.8454 781.2549,-164.7666 749.354,-127.0639 708.9397,-174.3794 672.7549,-140.7666"/>
</g>
<!-- \\Firesphere\\SolrPermissions\\Extensions\\DataObjectExtension -->
<g id="node60" class="node">
<title>\\Firesphere\\SolrPermissions\\Extensions\\DataObjectExtension</title>
<polygon fill="none" stroke="#000000" points="999.2549,-606.7666 854.2549,-606.7666 854.2549,-570.7666 999.2549,-570.7666 999.2549,-606.7666"/>
<text text-anchor="middle" x="926.7549" y="-585.9666" font-family="Courier,monospace" font-size="11.00" fill="#000000">DataObjectExtension</text>
</g>
<!-- \\Firesphere\\SolrPermissions\\Extensions\\DataObjectExtension&#45;&gt;\\SilverStripe\\ORM\\DataExtension -->
<g id="edge33" class="edge">
<title>\\Firesphere\\SolrPermissions\\Extensions\\DataObjectExtension&#45;&gt;\\SilverStripe\\ORM\\DataExtension</title>
<path fill="none" stroke="#000000" d="M854.0027,-582.5175C841.515,-578.2714 829.8232,-571.7285 821.2549,-561.7666 705.6153,-427.3189 898.02,-298.2379 781.2549,-164.7666 734.821,-111.689 558.0573,-89.2095 421.8851,-79.7036"/>
<polygon fill="none" stroke="#000000" points="421.9553,-76.2004 411.7409,-79.014 421.4805,-83.1843 421.9553,-76.2004"/>
</g>
<!-- \\Firesphere\\SolrPermissions\\Extensions\\BaseIndexExtension -->
<g id="node61" class="node">
<title>\\Firesphere\\SolrPermissions\\Extensions\\BaseIndexExtension</title>
<polygon fill="none" stroke="#000000" points="995.7549,-552.7666 857.7549,-552.7666 857.7549,-516.7666 995.7549,-516.7666 995.7549,-552.7666"/>
<text text-anchor="middle" x="926.7549" y="-531.9666" font-family="Courier,monospace" font-size="11.00" fill="#000000">BaseIndexExtension</text>
</g>
<!-- \\Firesphere\\SolrPermissions\\Extensions\\BaseIndexExtension&#45;&gt;\\SilverStripe\\Core\\Extension -->
<g id="edge34" class="edge">
<title>\\Firesphere\\SolrPermissions\\Extensions\\BaseIndexExtension&#45;&gt;\\SilverStripe\\Core\\Extension</title>
<path fill="none" stroke="#000000" d="M857.4904,-529.6795C843.6961,-525.4938 830.601,-518.6804 821.2549,-507.7666 760.9915,-437.3942 841.4476,-163.1994 781.2549,-92.7666 748.8994,-54.9067 716.6475,-88.2971 672.7549,-64.7666"/>
</g>
<!-- \\Firesphere\\SolrPermissions\\Extensions\\SchemaFactoryExtension -->
<g id="node62" class="node">
<title>\\Firesphere\\SolrPermissions\\Extensions\\SchemaFactoryExtension</title>
<polygon fill="none" stroke="#000000" points="1009.2549,-498.7666 844.2549,-498.7666 844.2549,-462.7666 1009.2549,-462.7666 1009.2549,-498.7666"/>
<text text-anchor="middle" x="926.7549" y="-477.9666" font-family="Courier,monospace" font-size="11.00" fill="#000000">SchemaFactoryExtension</text>
</g>
<!-- \\Firesphere\\SolrPermissions\\Extensions\\SchemaFactoryExtension&#45;&gt;\\SilverStripe\\Core\\Extension -->
<g id="edge35" class="edge">
<title>\\Firesphere\\SolrPermissions\\Extensions\\SchemaFactoryExtension&#45;&gt;\\SilverStripe\\Core\\Extension</title>
<path fill="none" stroke="#000000" d="M844.048,-470.4445C835.4065,-466.3947 827.5124,-460.9778 821.2549,-453.7666 714.2992,-330.5084 890.2208,-210.2513 781.2549,-88.7666 748.2781,-52.0012 716.2824,-88.1014 672.7549,-64.7666"/>
</g>
<!-- \\Firesphere\\SolrPermissions\\Extensions\\DocumentFactoryExtension -->
<g id="node63" class="node">
<title>\\Firesphere\\SolrPermissions\\Extensions\\DocumentFactoryExtension</title>
<polygon fill="none" stroke="#000000" points="1016.2549,-444.7666 837.2549,-444.7666 837.2549,-408.7666 1016.2549,-408.7666 1016.2549,-444.7666"/>
<text text-anchor="middle" x="926.7549" y="-423.9666" font-family="Courier,monospace" font-size="11.00" fill="#000000">DocumentFactoryExtension</text>
</g>
<!-- \\Firesphere\\SolrPermissions\\Extensions\\DocumentFactoryExtension&#45;&gt;\\SilverStripe\\Core\\Extension -->
<g id="edge36" class="edge">
<title>\\Firesphere\\SolrPermissions\\Extensions\\DocumentFactoryExtension&#45;&gt;\\SilverStripe\\Core\\Extension</title>
<path fill="none" stroke="#000000" d="M880.2653,-408.6466C858.9063,-397.9292 835.2615,-382.197 821.2549,-360.7666 754.4057,-258.4858 864.5042,-178.2078 781.2549,-88.7666 747.6062,-52.6151 716.2824,-88.1014 672.7549,-64.7666"/>
</g>
</g>
</svg>
