<?xml version="1.0" encoding="UTF-8" standalone="no"?>
<!DOCTYPE svg PUBLIC "-//W3C//DTD SVG 1.1//EN"
 "http://www.w3.org/Graphics/SVG/1.1/DTD/svg11.dtd">
<!-- Generated by graphviz version 2.40.1 (20161225.0304)
 -->
<!-- Title: G Pages: 1 -->
<svg width="1064pt" height="3722pt"
 viewBox="0.00 0.00 1064.25 3721.83" xmlns="http://www.w3.org/2000/svg" xmlns:xlink="http://www.w3.org/1999/xlink">
<g id="graph0" class="graph" transform="scale(1 1) rotate(0) translate(4 3717.8347)">
<title>G</title>
<polygon fill="#ffffff" stroke="transparent" points="-4,4 -4,-3717.8347 1060.2549,-3717.8347 1060.2549,4 -4,4"/>
<g id="clust1" class="cluster">
<title>cluster_Global</title>
<path fill="none" stroke="#c0c0c0" d="M165.1275,-152.9332C165.1275,-152.9332 1036.2549,-152.9332 1036.2549,-152.9332 1042.2549,-152.9332 1048.2549,-158.9332 1048.2549,-164.9332 1048.2549,-164.9332 1048.2549,-3386.9332 1048.2549,-3386.9332 1048.2549,-3392.9332 1042.2549,-3398.9332 1036.2549,-3398.9332 1036.2549,-3398.9332 165.1275,-3398.9332 165.1275,-3398.9332 159.1275,-3398.9332 153.1275,-3392.9332 153.1275,-3386.9332 153.1275,-3386.9332 153.1275,-164.9332 153.1275,-164.9332 153.1275,-158.9332 159.1275,-152.9332 165.1275,-152.9332"/>
<text text-anchor="middle" x="600.6912" y="-3386.1332" font-family="Times,serif" font-size="11.00" fill="#c0c0c0">Global</text>
</g>
<g id="clust2" class="cluster">
<title>cluster_\SilverStripe</title>
<path fill="none" stroke="#c0c0c0" d="M861.2549,-3056.9332C861.2549,-3056.9332 992.2549,-3056.9332 992.2549,-3056.9332 998.2549,-3056.9332 1004.2549,-3062.9332 1004.2549,-3068.9332 1004.2549,-3068.9332 1004.2549,-3358.9332 1004.2549,-3358.9332 1004.2549,-3364.9332 998.2549,-3370.9332 992.2549,-3370.9332 992.2549,-3370.9332 861.2549,-3370.9332 861.2549,-3370.9332 855.2549,-3370.9332 849.2549,-3364.9332 849.2549,-3358.9332 849.2549,-3358.9332 849.2549,-3068.9332 849.2549,-3068.9332 849.2549,-3062.9332 855.2549,-3056.9332 861.2549,-3056.9332"/>
<text text-anchor="middle" x="926.7549" y="-3358.1332" font-family="Times,serif" font-size="11.00" fill="#c0c0c0">SilverStripe</text>
</g>
<g id="clust3" class="cluster">
<title>cluster_\SilverStripe\FullTextSearch</title>
<path fill="none" stroke="#c0c0c0" d="M869.2549,-3064.9332C869.2549,-3064.9332 984.2549,-3064.9332 984.2549,-3064.9332 990.2549,-3064.9332 996.2549,-3070.9332 996.2549,-3076.9332 996.2549,-3076.9332 996.2549,-3330.9332 996.2549,-3330.9332 996.2549,-3336.9332 990.2549,-3342.9332 984.2549,-3342.9332 984.2549,-3342.9332 869.2549,-3342.9332 869.2549,-3342.9332 863.2549,-3342.9332 857.2549,-3336.9332 857.2549,-3330.9332 857.2549,-3330.9332 857.2549,-3076.9332 857.2549,-3076.9332 857.2549,-3070.9332 863.2549,-3064.9332 869.2549,-3064.9332"/>
<text text-anchor="middle" x="926.7549" y="-3330.1332" font-family="Times,serif" font-size="11.00" fill="#c0c0c0">FullTextSearch</text>
</g>
<g id="clust4" class="cluster">
<title>cluster_\SilverStripe\FullTextSearch\Solr</title>
<path fill="none" stroke="#c0c0c0" d="M888.7549,-3188.9332C888.7549,-3188.9332 964.7549,-3188.9332 964.7549,-3188.9332 970.7549,-3188.9332 976.7549,-3194.9332 976.7549,-3200.9332 976.7549,-3200.9332 976.7549,-3302.9332 976.7549,-3302.9332 976.7549,-3308.9332 970.7549,-3314.9332 964.7549,-3314.9332 964.7549,-3314.9332 888.7549,-3314.9332 888.7549,-3314.9332 882.7549,-3314.9332 876.7549,-3308.9332 876.7549,-3302.9332 876.7549,-3302.9332 876.7549,-3200.9332 876.7549,-3200.9332 876.7549,-3194.9332 882.7549,-3188.9332 888.7549,-3188.9332"/>
<text text-anchor="middle" x="926.7549" y="-3302.1332" font-family="Times,serif" font-size="11.00" fill="#c0c0c0">Solr</text>
</g>
<g id="clust5" class="cluster">
<title>cluster_\SilverStripe\FullTextSearch\Search</title>
<path fill="none" stroke="#c0c0c0" d="M877.2549,-3072.9332C877.2549,-3072.9332 976.2549,-3072.9332 976.2549,-3072.9332 982.2549,-3072.9332 988.2549,-3078.9332 988.2549,-3084.9332 988.2549,-3084.9332 988.2549,-3168.9332 988.2549,-3168.9332 988.2549,-3174.9332 982.2549,-3180.9332 976.2549,-3180.9332 976.2549,-3180.9332 877.2549,-3180.9332 877.2549,-3180.9332 871.2549,-3180.9332 865.2549,-3174.9332 865.2549,-3168.9332 865.2549,-3168.9332 865.2549,-3084.9332 865.2549,-3084.9332 865.2549,-3078.9332 871.2549,-3072.9332 877.2549,-3072.9332"/>
<text text-anchor="middle" x="926.7549" y="-3168.1332" font-family="Times,serif" font-size="11.00" fill="#c0c0c0">Search</text>
</g>
<g id="clust6" class="cluster">
<title>cluster_\SilverStripe\FullTextSearch\Search\Queries</title>
<path fill="none" stroke="#c0c0c0" d="M885.2549,-3080.9332C885.2549,-3080.9332 968.2549,-3080.9332 968.2549,-3080.9332 974.2549,-3080.9332 980.2549,-3086.9332 980.2549,-3092.9332 980.2549,-3092.9332 980.2549,-3140.9332 980.2549,-3140.9332 980.2549,-3146.9332 974.2549,-3152.9332 968.2549,-3152.9332 968.2549,-3152.9332 885.2549,-3152.9332 885.2549,-3152.9332 879.2549,-3152.9332 873.2549,-3146.9332 873.2549,-3140.9332 873.2549,-3140.9332 873.2549,-3092.9332 873.2549,-3092.9332 873.2549,-3086.9332 879.2549,-3080.9332 885.2549,-3080.9332"/>
<text text-anchor="middle" x="926.7549" y="-3140.1332" font-family="Times,serif" font-size="11.00" fill="#c0c0c0">Queries</text>
</g>
<g id="clust7" class="cluster">
<title>cluster_\Firesphere</title>
<path fill="none" stroke="#c0c0c0" d="M173.1275,-160.9332C173.1275,-160.9332 1028.2549,-160.9332 1028.2549,-160.9332 1034.2549,-160.9332 1040.2549,-166.9332 1040.2549,-172.9332 1040.2549,-172.9332 1040.2549,-3036.9332 1040.2549,-3036.9332 1040.2549,-3042.9332 1034.2549,-3048.9332 1028.2549,-3048.9332 1028.2549,-3048.9332 173.1275,-3048.9332 173.1275,-3048.9332 167.1275,-3048.9332 161.1275,-3042.9332 161.1275,-3036.9332 161.1275,-3036.9332 161.1275,-172.9332 161.1275,-172.9332 161.1275,-166.9332 167.1275,-160.9332 173.1275,-160.9332"/>
<text text-anchor="middle" x="600.6912" y="-3036.1332" font-family="Times,serif" font-size="11.00" fill="#c0c0c0">Firesphere</text>
</g>
<g id="clust8" class="cluster">
<title>cluster_\Firesphere\SolrCompatibility</title>
<path fill="none" stroke="#c0c0c0" d="M833.2549,-168.9332C833.2549,-168.9332 1020.2549,-168.9332 1020.2549,-168.9332 1026.2549,-168.9332 1032.2549,-174.9332 1032.2549,-180.9332 1032.2549,-180.9332 1032.2549,-318.9332 1032.2549,-318.9332 1032.2549,-324.9332 1026.2549,-330.9332 1020.2549,-330.9332 1020.2549,-330.9332 833.2549,-330.9332 833.2549,-330.9332 827.2549,-330.9332 821.2549,-324.9332 821.2549,-318.9332 821.2549,-318.9332 821.2549,-180.9332 821.2549,-180.9332 821.2549,-174.9332 827.2549,-168.9332 833.2549,-168.9332"/>
<text text-anchor="middle" x="926.7549" y="-318.1332" font-family="Times,serif" font-size="11.00" fill="#c0c0c0">SolrCompatibility</text>
</g>
<g id="clust9" class="cluster">
<title>cluster_\Firesphere\SolrCompatibility\Extensions</title>
<path fill="none" stroke="#c0c0c0" d="M841.2549,-176.9332C841.2549,-176.9332 1012.2549,-176.9332 1012.2549,-176.9332 1018.2549,-176.9332 1024.2549,-182.9332 1024.2549,-188.9332 1024.2549,-188.9332 1024.2549,-290.9332 1024.2549,-290.9332 1024.2549,-296.9332 1018.2549,-302.9332 1012.2549,-302.9332 1012.2549,-302.9332 841.2549,-302.9332 841.2549,-302.9332 835.2549,-302.9332 829.2549,-296.9332 829.2549,-290.9332 829.2549,-290.9332 829.2549,-188.9332 829.2549,-188.9332 829.2549,-182.9332 835.2549,-176.9332 841.2549,-176.9332"/>
<text text-anchor="middle" x="926.7549" y="-290.1332" font-family="Times,serif" font-size="11.00" fill="#c0c0c0">Extensions</text>
</g>
<g id="clust10" class="cluster">
<title>cluster_\Firesphere\SolrSearch</title>
<path fill="none" stroke="#c0c0c0" d="M181.1275,-172.9332C181.1275,-172.9332 769.2549,-172.9332 769.2549,-172.9332 775.2549,-172.9332 781.2549,-178.9332 781.2549,-184.9332 781.2549,-184.9332 781.2549,-3008.9332 781.2549,-3008.9332 781.2549,-3014.9332 775.2549,-3020.9332 769.2549,-3020.9332 769.2549,-3020.9332 181.1275,-3020.9332 181.1275,-3020.9332 175.1275,-3020.9332 169.1275,-3014.9332 169.1275,-3008.9332 169.1275,-3008.9332 169.1275,-184.9332 169.1275,-184.9332 169.1275,-178.9332 175.1275,-172.9332 181.1275,-172.9332"/>
<text text-anchor="middle" x="475.1912" y="-3008.1332" font-family="Times,serif" font-size="11.00" fill="#c0c0c0">SolrSearch</text>
</g>
<g id="clust11" class="cluster">
<title>cluster_\Firesphere\SolrSearch\Extensions</title>
<path fill="none" stroke="#c0c0c0" d="M604.2549,-2866.9332C604.2549,-2866.9332 741.2549,-2866.9332 741.2549,-2866.9332 747.2549,-2866.9332 753.2549,-2872.9332 753.2549,-2878.9332 753.2549,-2878.9332 753.2549,-2980.9332 753.2549,-2980.9332 753.2549,-2986.9332 747.2549,-2992.9332 741.2549,-2992.9332 741.2549,-2992.9332 604.2549,-2992.9332 604.2549,-2992.9332 598.2549,-2992.9332 592.2549,-2986.9332 592.2549,-2980.9332 592.2549,-2980.9332 592.2549,-2878.9332 592.2549,-2878.9332 592.2549,-2872.9332 598.2549,-2866.9332 604.2549,-2866.9332"/>
<text text-anchor="middle" x="672.7549" y="-2980.1332" font-family="Times,serif" font-size="11.00" fill="#c0c0c0">Extensions</text>
</g>
<g id="clust12" class="cluster">
<title>cluster_\Firesphere\SolrSearch\Helpers</title>
<path fill="none" stroke="#c0c0c0" d="M624.7549,-2570.9332C624.7549,-2570.9332 720.7549,-2570.9332 720.7549,-2570.9332 726.7549,-2570.9332 732.7549,-2576.9332 732.7549,-2582.9332 732.7549,-2582.9332 732.7549,-2846.9332 732.7549,-2846.9332 732.7549,-2852.9332 726.7549,-2858.9332 720.7549,-2858.9332 720.7549,-2858.9332 624.7549,-2858.9332 624.7549,-2858.9332 618.7549,-2858.9332 612.7549,-2852.9332 612.7549,-2846.9332 612.7549,-2846.9332 612.7549,-2582.9332 612.7549,-2582.9332 612.7549,-2576.9332 618.7549,-2570.9332 624.7549,-2570.9332"/>
<text text-anchor="middle" x="672.7549" y="-2846.1332" font-family="Times,serif" font-size="11.00" fill="#c0c0c0">Helpers</text>
</g>
<g id="clust13" class="cluster">
<title>cluster_\Firesphere\SolrSearch\Traits</title>
<path fill="none" stroke="#c0c0c0" d="M584.2549,-1680.9332C584.2549,-1680.9332 761.2549,-1680.9332 761.2549,-1680.9332 767.2549,-1680.9332 773.2549,-1686.9332 773.2549,-1692.9332 773.2549,-1692.9332 773.2549,-2550.9332 773.2549,-2550.9332 773.2549,-2556.9332 767.2549,-2562.9332 761.2549,-2562.9332 761.2549,-2562.9332 584.2549,-2562.9332 584.2549,-2562.9332 578.2549,-2562.9332 572.2549,-2556.9332 572.2549,-2550.9332 572.2549,-2550.9332 572.2549,-1692.9332 572.2549,-1692.9332 572.2549,-1686.9332 578.2549,-1680.9332 584.2549,-1680.9332"/>
<text text-anchor="middle" x="672.7549" y="-2550.1332" font-family="Times,serif" font-size="11.00" fill="#c0c0c0">Traits</text>
</g>
<g id="clust14" class="cluster">
<title>cluster_\Firesphere\SolrSearch\Models</title>
<path fill="none" stroke="#c0c0c0" d="M624.7549,-1492.9332C624.7549,-1492.9332 720.7549,-1492.9332 720.7549,-1492.9332 726.7549,-1492.9332 732.7549,-1498.9332 732.7549,-1504.9332 732.7549,-1504.9332 732.7549,-1660.9332 732.7549,-1660.9332 732.7549,-1666.9332 726.7549,-1672.9332 720.7549,-1672.9332 720.7549,-1672.9332 624.7549,-1672.9332 624.7549,-1672.9332 618.7549,-1672.9332 612.7549,-1666.9332 612.7549,-1660.9332 612.7549,-1660.9332 612.7549,-1504.9332 612.7549,-1504.9332 612.7549,-1498.9332 618.7549,-1492.9332 624.7549,-1492.9332"/>
<text text-anchor="middle" x="672.7549" y="-1660.1332" font-family="Times,serif" font-size="11.00" fill="#c0c0c0">Models</text>
</g>
<g id="clust15" class="cluster">
<title>cluster_\Firesphere\SolrSearch\Interfaces</title>
<path fill="none" stroke="#c0c0c0" d="M189.1275,-1036.9332C189.1275,-1036.9332 319.1275,-1036.9332 319.1275,-1036.9332 325.1275,-1036.9332 331.1275,-1042.9332 331.1275,-1048.9332 331.1275,-1048.9332 331.1275,-1150.9332 331.1275,-1150.9332 331.1275,-1156.9332 325.1275,-1162.9332 319.1275,-1162.9332 319.1275,-1162.9332 189.1275,-1162.9332 189.1275,-1162.9332 183.1275,-1162.9332 177.1275,-1156.9332 177.1275,-1150.9332 177.1275,-1150.9332 177.1275,-1048.9332 177.1275,-1048.9332 177.1275,-1042.9332 183.1275,-1036.9332 189.1275,-1036.9332"/>
<text text-anchor="middle" x="254.1275" y="-1150.1332" font-family="Times,serif" font-size="11.00" fill="#c0c0c0">Interfaces</text>
</g>
<g id="clust16" class="cluster">
<title>cluster_\Firesphere\SolrSearch\Indexes</title>
<path fill="none" stroke="#c0c0c0" d="M634.7549,-1412.9332C634.7549,-1412.9332 710.7549,-1412.9332 710.7549,-1412.9332 716.7549,-1412.9332 722.7549,-1418.9332 722.7549,-1424.9332 722.7549,-1424.9332 722.7549,-1472.9332 722.7549,-1472.9332 722.7549,-1478.9332 716.7549,-1484.9332 710.7549,-1484.9332 710.7549,-1484.9332 634.7549,-1484.9332 634.7549,-1484.9332 628.7549,-1484.9332 622.7549,-1478.9332 622.7549,-1472.9332 622.7549,-1472.9332 622.7549,-1424.9332 622.7549,-1424.9332 622.7549,-1418.9332 628.7549,-1412.9332 634.7549,-1412.9332"/>
<text text-anchor="middle" x="672.7549" y="-1472.1332" font-family="Times,serif" font-size="11.00" fill="#c0c0c0">Indexes</text>
</g>
<g id="clust17" class="cluster">
<title>cluster_\Firesphere\SolrSearch\Jobs</title>
<path fill="none" stroke="#c0c0c0" d="M600.7549,-1224.9332C600.7549,-1224.9332 744.7549,-1224.9332 744.7549,-1224.9332 750.7549,-1224.9332 756.7549,-1230.9332 756.7549,-1236.9332 756.7549,-1236.9332 756.7549,-1392.9332 756.7549,-1392.9332 756.7549,-1398.9332 750.7549,-1404.9332 744.7549,-1404.9332 744.7549,-1404.9332 600.7549,-1404.9332 600.7549,-1404.9332 594.7549,-1404.9332 588.7549,-1398.9332 588.7549,-1392.9332 588.7549,-1392.9332 588.7549,-1236.9332 588.7549,-1236.9332 588.7549,-1230.9332 594.7549,-1224.9332 600.7549,-1224.9332"/>
<text text-anchor="middle" x="672.7549" y="-1392.1332" font-family="Times,serif" font-size="11.00" fill="#c0c0c0">Jobs</text>
</g>
<g id="clust18" class="cluster">
<title>cluster_\Firesphere\SolrSearch\Stores</title>
<path fill="none" stroke="#c0c0c0" d="M617.7549,-1090.9332C617.7549,-1090.9332 727.7549,-1090.9332 727.7549,-1090.9332 733.7549,-1090.9332 739.7549,-1096.9332 739.7549,-1102.9332 739.7549,-1102.9332 739.7549,-1204.9332 739.7549,-1204.9332 739.7549,-1210.9332 733.7549,-1216.9332 727.7549,-1216.9332 727.7549,-1216.9332 617.7549,-1216.9332 617.7549,-1216.9332 611.7549,-1216.9332 605.7549,-1210.9332 605.7549,-1204.9332 605.7549,-1204.9332 605.7549,-1102.9332 605.7549,-1102.9332 605.7549,-1096.9332 611.7549,-1090.9332 617.7549,-1090.9332"/>
<text text-anchor="middle" x="672.7549" y="-1204.1332" font-family="Times,serif" font-size="11.00" fill="#c0c0c0">Stores</text>
</g>
<g id="clust19" class="cluster">
<title>cluster_\Firesphere\SolrSearch\Services</title>
<path fill="none" stroke="#c0c0c0" d="M617.7549,-1010.9332C617.7549,-1010.9332 727.7549,-1010.9332 727.7549,-1010.9332 733.7549,-1010.9332 739.7549,-1016.9332 739.7549,-1022.9332 739.7549,-1022.9332 739.7549,-1070.9332 739.7549,-1070.9332 739.7549,-1076.9332 733.7549,-1082.9332 727.7549,-1082.9332 727.7549,-1082.9332 617.7549,-1082.9332 617.7549,-1082.9332 611.7549,-1082.9332 605.7549,-1076.9332 605.7549,-1070.9332 605.7549,-1070.9332 605.7549,-1022.9332 605.7549,-1022.9332 605.7549,-1016.9332 611.7549,-1010.9332 617.7549,-1010.9332"/>
<text text-anchor="middle" x="672.7549" y="-1070.1332" font-family="Times,serif" font-size="11.00" fill="#c0c0c0">Services</text>
</g>
<g id="clust20" class="cluster">
<title>cluster_\Firesphere\SolrSearch\Queries</title>
<path fill="none" stroke="#c0c0c0" d="M638.2549,-930.9332C638.2549,-930.9332 707.2549,-930.9332 707.2549,-930.9332 713.2549,-930.9332 719.2549,-936.9332 719.2549,-942.9332 719.2549,-942.9332 719.2549,-990.9332 719.2549,-990.9332 719.2549,-996.9332 713.2549,-1002.9332 707.2549,-1002.9332 707.2549,-1002.9332 638.2549,-1002.9332 638.2549,-1002.9332 632.2549,-1002.9332 626.2549,-996.9332 626.2549,-990.9332 626.2549,-990.9332 626.2549,-942.9332 626.2549,-942.9332 626.2549,-936.9332 632.2549,-930.9332 638.2549,-930.9332"/>
<text text-anchor="middle" x="672.7549" y="-990.1332" font-family="Times,serif" font-size="11.00" fill="#c0c0c0">Queries</text>
</g>
<g id="clust21" class="cluster">
<title>cluster_\Firesphere\SolrSearch\Factories</title>
<path fill="none" stroke="#c0c0c0" d="M597.7549,-742.9332C597.7549,-742.9332 747.7549,-742.9332 747.7549,-742.9332 753.7549,-742.9332 759.7549,-748.9332 759.7549,-754.9332 759.7549,-754.9332 759.7549,-910.9332 759.7549,-910.9332 759.7549,-916.9332 753.7549,-922.9332 747.7549,-922.9332 747.7549,-922.9332 597.7549,-922.9332 597.7549,-922.9332 591.7549,-922.9332 585.7549,-916.9332 585.7549,-910.9332 585.7549,-910.9332 585.7549,-754.9332 585.7549,-754.9332 585.7549,-748.9332 591.7549,-742.9332 597.7549,-742.9332"/>
<text text-anchor="middle" x="672.7549" y="-910.1332" font-family="Times,serif" font-size="11.00" fill="#c0c0c0">Factories</text>
</g>
<g id="clust22" class="cluster">
<title>cluster_\Firesphere\SolrSearch\States</title>
<path fill="none" stroke="#c0c0c0" d="M634.7549,-662.9332C634.7549,-662.9332 710.7549,-662.9332 710.7549,-662.9332 716.7549,-662.9332 722.7549,-668.9332 722.7549,-674.9332 722.7549,-674.9332 722.7549,-722.9332 722.7549,-722.9332 722.7549,-728.9332 716.7549,-734.9332 710.7549,-734.9332 710.7549,-734.9332 634.7549,-734.9332 634.7549,-734.9332 628.7549,-734.9332 622.7549,-728.9332 622.7549,-722.9332 622.7549,-722.9332 622.7549,-674.9332 622.7549,-674.9332 622.7549,-668.9332 628.7549,-662.9332 634.7549,-662.9332"/>
<text text-anchor="middle" x="672.7549" y="-722.1332" font-family="Times,serif" font-size="11.00" fill="#c0c0c0">States</text>
</g>
<g id="clust23" class="cluster">
<title>cluster_\Firesphere\SolrSearch\Forms</title>
<path fill="none" stroke="#c0c0c0" d="M634.7549,-502.9332C634.7549,-502.9332 710.7549,-502.9332 710.7549,-502.9332 716.7549,-502.9332 722.7549,-508.9332 722.7549,-514.9332 722.7549,-514.9332 722.7549,-562.9332 722.7549,-562.9332 722.7549,-568.9332 716.7549,-574.9332 710.7549,-574.9332 710.7549,-574.9332 634.7549,-574.9332 634.7549,-574.9332 628.7549,-574.9332 622.7549,-568.9332 622.7549,-562.9332 622.7549,-562.9332 622.7549,-514.9332 622.7549,-514.9332 622.7549,-508.9332 628.7549,-502.9332 634.7549,-502.9332"/>
<text text-anchor="middle" x="672.7549" y="-562.1332" font-family="Times,serif" font-size="11.00" fill="#c0c0c0">Forms</text>
</g>
<g id="clust24" class="cluster">
<title>cluster_\Firesphere\SolrSearch\Results</title>
<path fill="none" stroke="#c0c0c0" d="M627.7549,-582.9332C627.7549,-582.9332 717.7549,-582.9332 717.7549,-582.9332 723.7549,-582.9332 729.7549,-588.9332 729.7549,-594.9332 729.7549,-594.9332 729.7549,-642.9332 729.7549,-642.9332 729.7549,-648.9332 723.7549,-654.9332 717.7549,-654.9332 717.7549,-654.9332 627.7549,-654.9332 627.7549,-654.9332 621.7549,-654.9332 615.7549,-648.9332 615.7549,-642.9332 615.7549,-642.9332 615.7549,-594.9332 615.7549,-594.9332 615.7549,-588.9332 621.7549,-582.9332 627.7549,-582.9332"/>
<text text-anchor="middle" x="672.7549" y="-642.1332" font-family="Times,serif" font-size="11.00" fill="#c0c0c0">Results</text>
</g>
<g id="clust25" class="cluster">
<title>cluster_\Firesphere\SolrSearch\Admins</title>
<path fill="none" stroke="#c0c0c0" d="M631.2549,-422.9332C631.2549,-422.9332 714.2549,-422.9332 714.2549,-422.9332 720.2549,-422.9332 726.2549,-428.9332 726.2549,-434.9332 726.2549,-434.9332 726.2549,-482.9332 726.2549,-482.9332 726.2549,-488.9332 720.2549,-494.9332 714.2549,-494.9332 714.2549,-494.9332 631.2549,-494.9332 631.2549,-494.9332 625.2549,-494.9332 619.2549,-488.9332 619.2549,-482.9332 619.2549,-482.9332 619.2549,-434.9332 619.2549,-434.9332 619.2549,-428.9332 625.2549,-422.9332 631.2549,-422.9332"/>
<text text-anchor="middle" x="672.7549" y="-482.1332" font-family="Times,serif" font-size="11.00" fill="#c0c0c0">Admins</text>
</g>
<g id="clust26" class="cluster">
<title>cluster_\Firesphere\SolrSearch\Tasks</title>
<path fill="none" stroke="#c0c0c0" d="M597.7549,-180.9332C597.7549,-180.9332 747.7549,-180.9332 747.7549,-180.9332 753.7549,-180.9332 759.7549,-186.9332 759.7549,-192.9332 759.7549,-192.9332 759.7549,-402.9332 759.7549,-402.9332 759.7549,-408.9332 753.7549,-414.9332 747.7549,-414.9332 747.7549,-414.9332 597.7549,-414.9332 597.7549,-414.9332 591.7549,-414.9332 585.7549,-408.9332 585.7549,-402.9332 585.7549,-402.9332 585.7549,-192.9332 585.7549,-192.9332 585.7549,-186.9332 591.7549,-180.9332 597.7549,-180.9332"/>
<text text-anchor="middle" x="672.7549" y="-402.1332" font-family="Times,serif" font-size="11.00" fill="#c0c0c0">Tasks</text>
</g>
<g id="clust27" class="cluster">
<title>cluster_\Firesphere\SolrFluent</title>
<path fill="none" stroke="#c0c0c0" d="M836.7549,-616.9332C836.7549,-616.9332 1016.7549,-616.9332 1016.7549,-616.9332 1022.7549,-616.9332 1028.7549,-622.9332 1028.7549,-628.9332 1028.7549,-628.9332 1028.7549,-900.9332 1028.7549,-900.9332 1028.7549,-906.9332 1022.7549,-912.9332 1016.7549,-912.9332 1016.7549,-912.9332 836.7549,-912.9332 836.7549,-912.9332 830.7549,-912.9332 824.7549,-906.9332 824.7549,-900.9332 824.7549,-900.9332 824.7549,-628.9332 824.7549,-628.9332 824.7549,-622.9332 830.7549,-616.9332 836.7549,-616.9332"/>
<text text-anchor="middle" x="926.7549" y="-900.1332" font-family="Times,serif" font-size="11.00" fill="#c0c0c0">SolrFluent</text>
</g>
<g id="clust28" class="cluster">
<title>cluster_\Firesphere\SolrFluent\Extensions</title>
<path fill="none" stroke="#c0c0c0" d="M844.7549,-624.9332C844.7549,-624.9332 1008.7549,-624.9332 1008.7549,-624.9332 1014.7549,-624.9332 1020.7549,-630.9332 1020.7549,-636.9332 1020.7549,-636.9332 1020.7549,-792.9332 1020.7549,-792.9332 1020.7549,-798.9332 1014.7549,-804.9332 1008.7549,-804.9332 1008.7549,-804.9332 844.7549,-804.9332 844.7549,-804.9332 838.7549,-804.9332 832.7549,-798.9332 832.7549,-792.9332 832.7549,-792.9332 832.7549,-636.9332 832.7549,-636.9332 832.7549,-630.9332 838.7549,-624.9332 844.7549,-624.9332"/>
<text text-anchor="middle" x="926.7549" y="-792.1332" font-family="Times,serif" font-size="11.00" fill="#c0c0c0">Extensions</text>
</g>
<g id="clust29" class="cluster">
<title>cluster_\Firesphere\SolrFluent\States</title>
<path fill="none" stroke="#c0c0c0" d="M871.7549,-812.9332C871.7549,-812.9332 981.7549,-812.9332 981.7549,-812.9332 987.7549,-812.9332 993.7549,-818.9332 993.7549,-824.9332 993.7549,-824.9332 993.7549,-872.9332 993.7549,-872.9332 993.7549,-878.9332 987.7549,-884.9332 981.7549,-884.9332 981.7549,-884.9332 871.7549,-884.9332 871.7549,-884.9332 865.7549,-884.9332 859.7549,-878.9332 859.7549,-872.9332 859.7549,-872.9332 859.7549,-824.9332 859.7549,-824.9332 859.7549,-818.9332 865.7549,-812.9332 871.7549,-812.9332"/>
<text text-anchor="middle" x="926.7549" y="-872.1332" font-family="Times,serif" font-size="11.00" fill="#c0c0c0">States</text>
</g>
<g id="clust30" class="cluster">
<title>cluster_\Firesphere\SolrSubsites</title>
<path fill="none" stroke="#c0c0c0" d="M857.2549,-920.9332C857.2549,-920.9332 996.2549,-920.9332 996.2549,-920.9332 1002.2549,-920.9332 1008.2549,-926.9332 1008.2549,-932.9332 1008.2549,-932.9332 1008.2549,-1096.9332 1008.2549,-1096.9332 1008.2549,-1102.9332 1002.2549,-1108.9332 996.2549,-1108.9332 996.2549,-1108.9332 857.2549,-1108.9332 857.2549,-1108.9332 851.2549,-1108.9332 845.2549,-1102.9332 845.2549,-1096.9332 845.2549,-1096.9332 845.2549,-932.9332 845.2549,-932.9332 845.2549,-926.9332 851.2549,-920.9332 857.2549,-920.9332"/>
<text text-anchor="middle" x="926.7549" y="-1096.1332" font-family="Times,serif" font-size="11.00" fill="#c0c0c0">SolrSubsites</text>
</g>
<g id="clust31" class="cluster">
<title>cluster_\Firesphere\SolrSubsites\Extensions</title>
<path fill="none" stroke="#c0c0c0" d="M865.2549,-928.9332C865.2549,-928.9332 988.2549,-928.9332 988.2549,-928.9332 994.2549,-928.9332 1000.2549,-934.9332 1000.2549,-940.9332 1000.2549,-940.9332 1000.2549,-988.9332 1000.2549,-988.9332 1000.2549,-994.9332 994.2549,-1000.9332 988.2549,-1000.9332 988.2549,-1000.9332 865.2549,-1000.9332 865.2549,-1000.9332 859.2549,-1000.9332 853.2549,-994.9332 853.2549,-988.9332 853.2549,-988.9332 853.2549,-940.9332 853.2549,-940.9332 853.2549,-934.9332 859.2549,-928.9332 865.2549,-928.9332"/>
<text text-anchor="middle" x="926.7549" y="-988.1332" font-family="Times,serif" font-size="11.00" fill="#c0c0c0">Extensions</text>
</g>
<g id="clust32" class="cluster">
<title>cluster_\Firesphere\SolrSubsites\States</title>
<path fill="none" stroke="#c0c0c0" d="M881.7549,-1008.9332C881.7549,-1008.9332 971.7549,-1008.9332 971.7549,-1008.9332 977.7549,-1008.9332 983.7549,-1014.9332 983.7549,-1020.9332 983.7549,-1020.9332 983.7549,-1068.9332 983.7549,-1068.9332 983.7549,-1074.9332 977.7549,-1080.9332 971.7549,-1080.9332 971.7549,-1080.9332 881.7549,-1080.9332 881.7549,-1080.9332 875.7549,-1080.9332 869.7549,-1074.9332 869.7549,-1068.9332 869.7549,-1068.9332 869.7549,-1020.9332 869.7549,-1020.9332 869.7549,-1014.9332 875.7549,-1008.9332 881.7549,-1008.9332"/>
<text text-anchor="middle" x="926.7549" y="-1068.1332" font-family="Times,serif" font-size="11.00" fill="#c0c0c0">States</text>
</g>
<g id="clust33" class="cluster">
<title>cluster_\Firesphere\SolrPermissions</title>
<path fill="none" stroke="#c0c0c0" d="M833.2549,-338.9332C833.2549,-338.9332 1020.2549,-338.9332 1020.2549,-338.9332 1026.2549,-338.9332 1032.2549,-344.9332 1032.2549,-350.9332 1032.2549,-350.9332 1032.2549,-596.9332 1032.2549,-596.9332 1032.2549,-602.9332 1026.2549,-608.9332 1020.2549,-608.9332 1020.2549,-608.9332 833.2549,-608.9332 833.2549,-608.9332 827.2549,-608.9332 821.2549,-602.9332 821.2549,-596.9332 821.2549,-596.9332 821.2549,-350.9332 821.2549,-350.9332 821.2549,-344.9332 827.2549,-338.9332 833.2549,-338.9332"/>
<text text-anchor="middle" x="926.7549" y="-596.1332" font-family="Times,serif" font-size="11.00" fill="#c0c0c0">SolrPermissions</text>
</g>
<g id="clust34" class="cluster">
<title>cluster_\Firesphere\SolrPermissions\Extensions</title>
<path fill="none" stroke="#c0c0c0" d="M841.2549,-346.9332C841.2549,-346.9332 1012.2549,-346.9332 1012.2549,-346.9332 1018.2549,-346.9332 1024.2549,-352.9332 1024.2549,-358.9332 1024.2549,-358.9332 1024.2549,-568.9332 1024.2549,-568.9332 1024.2549,-574.9332 1018.2549,-580.9332 1012.2549,-580.9332 1012.2549,-580.9332 841.2549,-580.9332 841.2549,-580.9332 835.2549,-580.9332 829.2549,-574.9332 829.2549,-568.9332 829.2549,-568.9332 829.2549,-358.9332 829.2549,-358.9332 829.2549,-352.9332 835.2549,-346.9332 841.2549,-346.9332"/>
<text text-anchor="middle" x="926.7549" y="-568.1332" font-family="Times,serif" font-size="11.00" fill="#c0c0c0">Extensions</text>
</g>
<!-- \\SilverStripe\\FullTextSearch\\Solr\\Solr -->
<g id="node1" class="node">
<title>\\SilverStripe\\FullTextSearch\\Solr\\Solr</title>
<polygon fill="none" stroke="#000000" points="953.7549,-3286.9332 899.7549,-3286.9332 899.7549,-3250.9332 953.7549,-3250.9332 953.7549,-3286.9332"/>
<text text-anchor="middle" x="926.7549" y="-3266.1332" font-family="Courier,monospace" font-size="11.00" fill="#000000">Solr</text>
</g>
<!-- \\SilverStripe\\FullTextSearch\\Solr\\SolrIndex -->
<g id="node2" class="node">
<title>\\SilverStripe\\FullTextSearch\\Solr\\SolrIndex</title>
<polygon fill="none" stroke="#000000" points="968.7549,-3232.9332 884.7549,-3232.9332 884.7549,-3196.9332 968.7549,-3196.9332 968.7549,-3232.9332"/>
<text text-anchor="start" x="892.7549" y="-3218.1332" font-family="Courier,monospace" font-size="11.00" fill="#000000">«abstract»</text>
<text text-anchor="start" x="896.2549" y="-3206.1332" font-family="Courier,monospace" font-size="11.00" fill="#000000">SolrIndex</text>
</g>
<!-- \\Firesphere\\SolrSearch\\Indexes\\BaseIndex -->
<g id="node34" class="node">
<title>\\Firesphere\\SolrSearch\\Indexes\\BaseIndex</title>
<polygon fill="none" stroke="#000000" points="714.7549,-1456.9332 630.7549,-1456.9332 630.7549,-1420.9332 714.7549,-1420.9332 714.7549,-1456.9332"/>
<text text-anchor="start" x="638.7549" y="-1442.1332" font-family="Courier,monospace" font-size="11.00" fill="#000000">«abstract»</text>
<text text-anchor="start" x="642.2549" y="-1430.1332" font-family="Courier,monospace" font-size="11.00" fill="#000000">BaseIndex</text>
</g>
<!-- \\SilverStripe\\FullTextSearch\\Solr\\SolrIndex&#45;&gt;\\Firesphere\\SolrSearch\\Indexes\\BaseIndex -->
<g id="edge3" class="edge">
<title>\\SilverStripe\\FullTextSearch\\Solr\\SolrIndex&#45;&gt;\\Firesphere\\SolrSearch\\Indexes\\BaseIndex</title>
<path fill="none" stroke="#000000" d="M884.6935,-3203.1833C861.7299,-3194.4096 835.203,-3179.8857 821.2549,-3156.9332 724.9798,-2998.5056 883.0798,-1643.8522 781.2549,-1488.9332 768.4122,-1469.394 745.8398,-1457.3675 724.5974,-1450.0261"/>
<polygon fill="none" stroke="#000000" points="725.561,-1446.6599 714.9707,-1446.9725 723.4444,-1453.3323 725.561,-1446.6599"/>
</g>
<!-- \\SilverStripe\\FullTextSearch\\Search\\Queries\\SearchQuery -->
<g id="node3" class="node">
<title>\\SilverStripe\\FullTextSearch\\Search\\Queries\\SearchQuery</title>
<polygon fill="none" stroke="#000000" points="972.2549,-3124.9332 881.2549,-3124.9332 881.2549,-3088.9332 972.2549,-3088.9332 972.2549,-3124.9332"/>
<text text-anchor="middle" x="926.7549" y="-3104.1332" font-family="Courier,monospace" font-size="11.00" fill="#000000">SearchQuery</text>
</g>
<!-- \\Firesphere\\SolrSearch\\Queries\\BaseQuery -->
<g id="node41" class="node">
<title>\\Firesphere\\SolrSearch\\Queries\\BaseQuery</title>
<polygon fill="none" stroke="#000000" points="711.2549,-974.9332 634.2549,-974.9332 634.2549,-938.9332 711.2549,-938.9332 711.2549,-974.9332"/>
<text text-anchor="middle" x="672.7549" y="-954.1332" font-family="Courier,monospace" font-size="11.00" fill="#000000">BaseQuery</text>
</g>
<!-- \\SilverStripe\\FullTextSearch\\Search\\Queries\\SearchQuery&#45;&gt;\\Firesphere\\SolrSearch\\Queries\\BaseQuery -->
<g id="edge4" class="edge">
<title>\\SilverStripe\\FullTextSearch\\Search\\Queries\\SearchQuery&#45;&gt;\\Firesphere\\SolrSearch\\Queries\\BaseQuery</title>
<path fill="none" stroke="#000000" d="M926.611,-3088.932C924.9174,-2894.5837 906.5164,-1188.4362 781.2549,-1006.9332 767.2984,-986.7103 743.0234,-974.4967 720.9689,-967.2104"/>
<polygon fill="none" stroke="#000000" points="721.9501,-963.8506 711.3643,-964.2893 719.9132,-970.5477 721.9501,-963.8506"/>
</g>
<!-- \\Firesphere\\SolrCompatibility\\Extensions\\FulltextSearchExtension -->
<g id="node4" class="node">
<title>\\Firesphere\\SolrCompatibility\\Extensions\\FulltextSearchExtension</title>
<polygon fill="none" stroke="#000000" points="1012.7549,-220.9332 840.7549,-220.9332 840.7549,-184.9332 1012.7549,-184.9332 1012.7549,-220.9332"/>
<text text-anchor="middle" x="926.7549" y="-200.1332" font-family="Courier,monospace" font-size="11.00" fill="#000000">FulltextSearchExtension</text>
</g>
<!-- \\SilverStripe\\Core\\Extension -->
<g id="node63" class="node">
<title>\\SilverStripe\\Core\\Extension</title>
<ellipse fill="none" stroke="#000000" cx="254.1275" cy="-18.9332" rx="144.0747" ry="18"/>
<text text-anchor="middle" x="254.1275" y="-15.2332" font-family="Times,serif" font-size="14.00" fill="#c0c0c0">\SilverStripe\Core\Extension</text>
</g>
<!-- \\Firesphere\\SolrCompatibility\\Extensions\\FulltextSearchExtension&#45;&gt;\\SilverStripe\\Core\\Extension -->
<g id="edge1" class="edge">
<title>\\Firesphere\\SolrCompatibility\\Extensions\\FulltextSearchExtension&#45;&gt;\\SilverStripe\\Core\\Extension</title>
<path fill="none" stroke="#000000" d="M897.7118,-184.8271C869.069,-167.689 823.5604,-142.3531 781.2549,-126.9332 734.8533,-110.0202 712.9958,-131.5659 672.7549,-102.9332"/>
<path fill="none" stroke="#000000" d="M672.7549,-102.9332C596.3562,-48.5729 493.2511,-27.4243 408.4834,-19.9388"/>
<polygon fill="none" stroke="#000000" points="408.7583,-16.4497 398.5036,-19.1127 408.1807,-23.4258 408.7583,-16.4497"/>
</g>
<!-- \\Firesphere\\SolrCompatibility\\Extensions\\SolrCoreServiceExtension -->
<g id="node5" class="node">
<title>\\Firesphere\\SolrCompatibility\\Extensions\\SolrCoreServiceExtension</title>
<polygon fill="none" stroke="#000000" points="1016.2549,-274.9332 837.2549,-274.9332 837.2549,-238.9332 1016.2549,-238.9332 1016.2549,-274.9332"/>
<text text-anchor="middle" x="926.7549" y="-254.1332" font-family="Courier,monospace" font-size="11.00" fill="#000000">SolrCoreServiceExtension</text>
</g>
<!-- \\Firesphere\\SolrCompatibility\\Extensions\\SolrCoreServiceExtension&#45;&gt;\\SilverStripe\\Core\\Extension -->
<g id="edge2" class="edge">
<title>\\Firesphere\\SolrCompatibility\\Extensions\\SolrCoreServiceExtension&#45;&gt;\\SilverStripe\\Core\\Extension</title>
<path fill="none" stroke="#000000" d="M837.1938,-240.8573C831.4573,-237.8064 826.0644,-234.1981 821.2549,-229.9332 784.5121,-197.3506 818.5279,-158.9078 781.2549,-126.9332 743.7699,-94.7767 712.9958,-131.5659 672.7549,-102.9332"/>
</g>
<!-- \\Firesphere\\SolrSearch\\Extensions\\GridFieldExtension -->
<g id="node6" class="node">
<title>\\Firesphere\\SolrSearch\\Extensions\\GridFieldExtension</title>
<polygon fill="none" stroke="#000000" points="741.7549,-2910.9332 603.7549,-2910.9332 603.7549,-2874.9332 741.7549,-2874.9332 741.7549,-2910.9332"/>
<text text-anchor="middle" x="672.7549" y="-2890.1332" font-family="Courier,monospace" font-size="11.00" fill="#000000">GridFieldExtension</text>
</g>
<!-- \\Firesphere\\SolrSearch\\Extensions\\GridFieldExtension&#45;&gt;\\SilverStripe\\Core\\Extension -->
<g id="edge5" class="edge">
<title>\\Firesphere\\SolrSearch\\Extensions\\GridFieldExtension&#45;&gt;\\SilverStripe\\Core\\Extension</title>
<path fill="none" stroke="#000000" d="M603.6998,-2884.7757C591.4771,-2880.1932 580.1517,-2873.2841 572.2549,-2862.9332 477.3055,-2738.4763 614.2503,-161.1281 508.2549,-45.9332 466.3821,-.4262 394.773,3.5312 338.2206,-2.3068"/>
<polygon fill="none" stroke="#000000" points="337.7417,1.1613 328.2067,-3.4574 338.5409,-5.7929 337.7417,1.1613"/>
</g>
<!-- \\Firesphere\\SolrSearch\\Extensions\\DataObjectExtension -->
<g id="node7" class="node">
<title>\\Firesphere\\SolrSearch\\Extensions\\DataObjectExtension</title>
<polygon fill="none" stroke="#000000" points="745.2549,-2964.9332 600.2549,-2964.9332 600.2549,-2928.9332 745.2549,-2928.9332 745.2549,-2964.9332"/>
<text text-anchor="middle" x="672.7549" y="-2944.1332" font-family="Courier,monospace" font-size="11.00" fill="#000000">DataObjectExtension</text>
</g>
<!-- \\SilverStripe\\ORM\\DataExtension -->
<g id="node64" class="node">
<title>\\SilverStripe\\ORM\\DataExtension</title>
<ellipse fill="none" stroke="#000000" cx="254.1275" cy="-72.9332" rx="167.8704" ry="18"/>
<text text-anchor="middle" x="254.1275" y="-69.2332" font-family="Times,serif" font-size="14.00" fill="#c0c0c0">\SilverStripe\ORM\DataExtension</text>
</g>
<!-- \\Firesphere\\SolrSearch\\Extensions\\DataObjectExtension&#45;&gt;\\SilverStripe\\ORM\\DataExtension -->
<g id="edge6" class="edge">
<title>\\Firesphere\\SolrSearch\\Extensions\\DataObjectExtension&#45;&gt;\\SilverStripe\\ORM\\DataExtension</title>
<path fill="none" stroke="#000000" d="M600.0059,-2939.5C589.2454,-2935.2634 579.3944,-2929.0283 572.2549,-2919.9332 475.494,-2796.6675 614.3618,-215.252 508.2549,-99.9332 467.3885,-55.5188 398.1967,-50.6824 342.3218,-55.9031"/>
<polygon fill="none" stroke="#000000" points="341.6306,-52.4566 332.0535,-56.9877 342.3659,-59.4179 341.6306,-52.4566"/>
</g>
<!-- \\Firesphere\\SolrSearch\\Helpers\\FieldResolver -->
<g id="node8" class="node">
<title>\\Firesphere\\SolrSearch\\Helpers\\FieldResolver</title>
<polygon fill="none" stroke="#000000" points="724.7549,-2830.9332 620.7549,-2830.9332 620.7549,-2794.9332 724.7549,-2794.9332 724.7549,-2830.9332"/>
<text text-anchor="middle" x="672.7549" y="-2810.1332" font-family="Courier,monospace" font-size="11.00" fill="#000000">FieldResolver</text>
</g>
<!-- \\Firesphere\\SolrSearch\\Helpers\\Synonyms -->
<g id="node9" class="node">
<title>\\Firesphere\\SolrSearch\\Helpers\\Synonyms</title>
<polygon fill="none" stroke="#000000" points="708.2549,-2776.9332 637.2549,-2776.9332 637.2549,-2740.9332 708.2549,-2740.9332 708.2549,-2776.9332"/>
<text text-anchor="middle" x="672.7549" y="-2756.1332" font-family="Courier,monospace" font-size="11.00" fill="#000000">Synonyms</text>
</g>
<!-- \\Firesphere\\SolrSearch\\Helpers\\SolrLogger -->
<g id="node10" class="node">
<title>\\Firesphere\\SolrSearch\\Helpers\\SolrLogger</title>
<polygon fill="none" stroke="#000000" points="714.7549,-2722.9332 630.7549,-2722.9332 630.7549,-2686.9332 714.7549,-2686.9332 714.7549,-2722.9332"/>
<text text-anchor="middle" x="672.7549" y="-2702.1332" font-family="Courier,monospace" font-size="11.00" fill="#000000">SolrLogger</text>
</g>
<!-- \\Firesphere\\SolrSearch\\Helpers\\DataResolver -->
<g id="node11" class="node">
<title>\\Firesphere\\SolrSearch\\Helpers\\DataResolver</title>
<polygon fill="none" stroke="#000000" points="721.7549,-2668.9332 623.7549,-2668.9332 623.7549,-2632.9332 721.7549,-2632.9332 721.7549,-2668.9332"/>
<text text-anchor="middle" x="672.7549" y="-2648.1332" font-family="Courier,monospace" font-size="11.00" fill="#000000">DataResolver</text>
</g>
<!-- \\Firesphere\\SolrSearch\\Helpers\\Statics -->
<g id="node12" class="node">
<title>\\Firesphere\\SolrSearch\\Helpers\\Statics</title>
<polygon fill="none" stroke="#000000" points="704.7549,-2614.9332 640.7549,-2614.9332 640.7549,-2578.9332 704.7549,-2578.9332 704.7549,-2614.9332"/>
<text text-anchor="middle" x="672.7549" y="-2594.1332" font-family="Courier,monospace" font-size="11.00" fill="#000000">Statics</text>
</g>
<!-- \\Firesphere\\SolrSearch\\Traits\\SearchResultSetTrait -->
<g id="node13" class="node">
<title>\\Firesphere\\SolrSearch\\Traits\\SearchResultSetTrait</title>
<polygon fill="none" stroke="#000000" points="748.7549,-2534.9332 596.7549,-2534.9332 596.7549,-2498.9332 748.7549,-2498.9332 748.7549,-2534.9332"/>
<text text-anchor="middle" x="672.7549" y="-2514.1332" font-family="Courier,monospace" font-size="11.00" fill="#000000">SearchResultSetTrait</text>
</g>
<!-- \\Firesphere\\SolrSearch\\Traits\\SearchResultGetTrait -->
<g id="node14" class="node">
<title>\\Firesphere\\SolrSearch\\Traits\\SearchResultGetTrait</title>
<polygon fill="none" stroke="#000000" points="748.7549,-2480.9332 596.7549,-2480.9332 596.7549,-2444.9332 748.7549,-2444.9332 748.7549,-2480.9332"/>
<text text-anchor="middle" x="672.7549" y="-2460.1332" font-family="Courier,monospace" font-size="11.00" fill="#000000">SearchResultGetTrait</text>
</g>
<!-- \\Firesphere\\SolrSearch\\Traits\\LoggerTrait -->
<g id="node15" class="node">
<title>\\Firesphere\\SolrSearch\\Traits\\LoggerTrait</title>
<polygon fill="none" stroke="#000000" points="718.2549,-2426.9332 627.2549,-2426.9332 627.2549,-2390.9332 718.2549,-2390.9332 718.2549,-2426.9332"/>
<text text-anchor="middle" x="672.7549" y="-2406.1332" font-family="Courier,monospace" font-size="11.00" fill="#000000">LoggerTrait</text>
</g>
<!-- \\Firesphere\\SolrSearch\\Traits\\GetterSetterTrait -->
<g id="node16" class="node">
<title>\\Firesphere\\SolrSearch\\Traits\\GetterSetterTrait</title>
<polygon fill="none" stroke="#000000" points="738.2549,-2372.9332 607.2549,-2372.9332 607.2549,-2336.9332 738.2549,-2336.9332 738.2549,-2372.9332"/>
<text text-anchor="middle" x="672.7549" y="-2352.1332" font-family="Courier,monospace" font-size="11.00" fill="#000000">GetterSetterTrait</text>
</g>
<!-- \\Firesphere\\SolrSearch\\Traits\\GetSetSearchResolverTrait -->
<g id="node17" class="node">
<title>\\Firesphere\\SolrSearch\\Traits\\GetSetSearchResolverTrait</title>
<polygon fill="none" stroke="#000000" points="765.2549,-2318.9332 580.2549,-2318.9332 580.2549,-2282.9332 765.2549,-2282.9332 765.2549,-2318.9332"/>
<text text-anchor="middle" x="672.7549" y="-2298.1332" font-family="Courier,monospace" font-size="11.00" fill="#000000">GetSetSearchResolverTrait</text>
</g>
<!-- \\Firesphere\\SolrSearch\\Traits\\BaseIndexTrait -->
<g id="node18" class="node">
<title>\\Firesphere\\SolrSearch\\Traits\\BaseIndexTrait</title>
<polygon fill="none" stroke="#000000" points="728.2549,-2264.9332 617.2549,-2264.9332 617.2549,-2228.9332 728.2549,-2228.9332 728.2549,-2264.9332"/>
<text text-anchor="middle" x="672.7549" y="-2244.1332" font-family="Courier,monospace" font-size="11.00" fill="#000000">BaseIndexTrait</text>
</g>
<!-- \\Firesphere\\SolrSearch\\Traits\\SolrIndexTrait -->
<g id="node19" class="node">
<title>\\Firesphere\\SolrSearch\\Traits\\SolrIndexTrait</title>
<polygon fill="none" stroke="#000000" points="728.2549,-2210.9332 617.2549,-2210.9332 617.2549,-2174.9332 728.2549,-2174.9332 728.2549,-2210.9332"/>
<text text-anchor="middle" x="672.7549" y="-2190.1332" font-family="Courier,monospace" font-size="11.00" fill="#000000">SolrIndexTrait</text>
</g>
<!-- \\Firesphere\\SolrSearch\\Traits\\DataResolveTrait -->
<g id="node20" class="node">
<title>\\Firesphere\\SolrSearch\\Traits\\DataResolveTrait</title>
<polygon fill="none" stroke="#000000" points="735.2549,-2156.9332 610.2549,-2156.9332 610.2549,-2120.9332 735.2549,-2120.9332 735.2549,-2156.9332"/>
<text text-anchor="middle" x="672.7549" y="-2136.1332" font-family="Courier,monospace" font-size="11.00" fill="#000000">DataResolveTrait</text>
</g>
<!-- \\Firesphere\\SolrSearch\\Traits\\CoreServiceTrait -->
<g id="node21" class="node">
<title>\\Firesphere\\SolrSearch\\Traits\\CoreServiceTrait</title>
<polygon fill="none" stroke="#000000" points="735.2549,-2102.9332 610.2549,-2102.9332 610.2549,-2066.9332 735.2549,-2066.9332 735.2549,-2102.9332"/>
<text text-anchor="middle" x="672.7549" y="-2082.1332" font-family="Courier,monospace" font-size="11.00" fill="#000000">CoreServiceTrait</text>
</g>
<!-- \\Firesphere\\SolrSearch\\Traits\\CoreAdminTrait -->
<g id="node22" class="node">
<title>\\Firesphere\\SolrSearch\\Traits\\CoreAdminTrait</title>
<polygon fill="none" stroke="#000000" points="728.2549,-2048.9332 617.2549,-2048.9332 617.2549,-2012.9332 728.2549,-2012.9332 728.2549,-2048.9332"/>
<text text-anchor="middle" x="672.7549" y="-2028.1332" font-family="Courier,monospace" font-size="11.00" fill="#000000">CoreAdminTrait</text>
</g>
<!-- \\Firesphere\\SolrSearch\\Traits\\DocumentFactoryTrait -->
<g id="node23" class="node">
<title>\\Firesphere\\SolrSearch\\Traits\\DocumentFactoryTrait</title>
<polygon fill="none" stroke="#000000" points="748.7549,-1994.9332 596.7549,-1994.9332 596.7549,-1958.9332 748.7549,-1958.9332 748.7549,-1994.9332"/>
<text text-anchor="middle" x="672.7549" y="-1974.1332" font-family="Courier,monospace" font-size="11.00" fill="#000000">DocumentFactoryTrait</text>
</g>
<!-- \\Firesphere\\SolrSearch\\Traits\\BaseQueryTrait -->
<g id="node24" class="node">
<title>\\Firesphere\\SolrSearch\\Traits\\BaseQueryTrait</title>
<polygon fill="none" stroke="#000000" points="728.2549,-1940.9332 617.2549,-1940.9332 617.2549,-1904.9332 728.2549,-1904.9332 728.2549,-1940.9332"/>
<text text-anchor="middle" x="672.7549" y="-1920.1332" font-family="Courier,monospace" font-size="11.00" fill="#000000">BaseQueryTrait</text>
</g>
<!-- \\Firesphere\\SolrSearch\\Traits\\GetSetSchemaFactoryTrait -->
<g id="node25" class="node">
<title>\\Firesphere\\SolrSearch\\Traits\\GetSetSchemaFactoryTrait</title>
<polygon fill="none" stroke="#000000" points="762.2549,-1886.9332 583.2549,-1886.9332 583.2549,-1850.9332 762.2549,-1850.9332 762.2549,-1886.9332"/>
<text text-anchor="middle" x="672.7549" y="-1866.1332" font-family="Courier,monospace" font-size="11.00" fill="#000000">GetSetSchemaFactoryTrait</text>
</g>
<!-- \\Firesphere\\SolrSearch\\Traits\\QueryComponentFilterTrait -->
<g id="node26" class="node">
<title>\\Firesphere\\SolrSearch\\Traits\\QueryComponentFilterTrait</title>
<polygon fill="none" stroke="#000000" points="765.2549,-1832.9332 580.2549,-1832.9332 580.2549,-1796.9332 765.2549,-1796.9332 765.2549,-1832.9332"/>
<text text-anchor="middle" x="672.7549" y="-1812.1332" font-family="Courier,monospace" font-size="11.00" fill="#000000">QueryComponentFilterTrait</text>
</g>
<!-- \\Firesphere\\SolrSearch\\Traits\\QueryComponentBoostTrait -->
<g id="node27" class="node">
<title>\\Firesphere\\SolrSearch\\Traits\\QueryComponentBoostTrait</title>
<polygon fill="none" stroke="#000000" points="762.2549,-1778.9332 583.2549,-1778.9332 583.2549,-1742.9332 762.2549,-1742.9332 762.2549,-1778.9332"/>
<text text-anchor="middle" x="672.7549" y="-1758.1332" font-family="Courier,monospace" font-size="11.00" fill="#000000">QueryComponentBoostTrait</text>
</g>
<!-- \\Firesphere\\SolrSearch\\Traits\\QueryComponentFacetTrait -->
<g id="node28" class="node">
<title>\\Firesphere\\SolrSearch\\Traits\\QueryComponentFacetTrait</title>
<polygon fill="none" stroke="#000000" points="762.2549,-1724.9332 583.2549,-1724.9332 583.2549,-1688.9332 762.2549,-1688.9332 762.2549,-1724.9332"/>
<text text-anchor="middle" x="672.7549" y="-1704.1332" font-family="Courier,monospace" font-size="11.00" fill="#000000">QueryComponentFacetTrait</text>
</g>
<!-- \\Firesphere\\SolrSearch\\Models\\SolrLog -->
<g id="node29" class="node">
<title>\\Firesphere\\SolrSearch\\Models\\SolrLog</title>
<polygon fill="none" stroke="#000000" points="704.7549,-1644.9332 640.7549,-1644.9332 640.7549,-1608.9332 704.7549,-1608.9332 704.7549,-1644.9332"/>
<text text-anchor="middle" x="672.7549" y="-1624.1332" font-family="Courier,monospace" font-size="11.00" fill="#000000">SolrLog</text>
</g>
<!-- \\SilverStripe\\ORM\\DataObject -->
<g id="node65" class="node">
<title>\\SilverStripe\\ORM\\DataObject</title>
<ellipse fill="none" stroke="#000000" cx="254.1275" cy="-126.9332" rx="152.9733" ry="18"/>
<text text-anchor="middle" x="254.1275" y="-123.2332" font-family="Times,serif" font-size="14.00" fill="#c0c0c0">\SilverStripe\ORM\DataObject</text>
</g>
<!-- \\Firesphere\\SolrSearch\\Models\\SolrLog&#45;&gt;\\SilverStripe\\ORM\\DataObject -->
<g id="edge7" class="edge">
<title>\\Firesphere\\SolrSearch\\Models\\SolrLog&#45;&gt;\\SilverStripe\\ORM\\DataObject</title>
<path fill="none" stroke="#000000" d="M640.6688,-1627.2098C618.0764,-1625.5625 588.9846,-1619.3825 572.2549,-1599.9332 489.5669,-1503.8032 532.5673,-1157.3807 508.2549,-1032.9332 439.3742,-680.355 301.3121,-264.9785 263.7503,-154.8583"/>
<polygon fill="none" stroke="#000000" points="266.9833,-153.4955 260.4347,-145.1668 260.3601,-155.7614 266.9833,-153.4955"/>
</g>
<!-- \\SilverStripe\\Security\\PermissionProvider -->
<g id="node66" class="node">
<title>\\SilverStripe\\Security\\PermissionProvider</title>
<ellipse fill="none" stroke="#000000" cx="254.1275" cy="-3694.9332" rx="206.0634" ry="18"/>
<text text-anchor="middle" x="254.1275" y="-3691.2332" font-family="Times,serif" font-size="14.00" fill="#c0c0c0">\SilverStripe\Security\PermissionProvider</text>
</g>
<!-- \\Firesphere\\SolrSearch\\Models\\SolrLog&#45;&gt;\\SilverStripe\\Security\\PermissionProvider -->
<g id="edge8" class="edge">
<title>\\Firesphere\\SolrSearch\\Models\\SolrLog&#45;&gt;\\SilverStripe\\Security\\PermissionProvider</title>
<path fill="none" stroke="#000000" stroke-dasharray="1,5" d="M640.5821,-1633.7091C617.3175,-1640.4485 587.4135,-1653.3168 572.2549,-1676.9332 452.6959,-1863.2004 658.8899,-3505.7637 508.2549,-3667.9332 468.5295,-3710.7004 402.5183,-3716.6413 347.7302,-3712.3118"/>
<polygon fill="none" stroke="#000000" points="347.9164,-3708.8143 337.6396,-3711.3904 347.2798,-3715.7853 347.9164,-3708.8143"/>
</g>
<!-- \\Firesphere\\SolrSearch\\Models\\DirtyClass -->
<g id="node30" class="node">
<title>\\Firesphere\\SolrSearch\\Models\\DirtyClass</title>
<polygon fill="none" stroke="#000000" points="714.7549,-1536.9332 630.7549,-1536.9332 630.7549,-1500.9332 714.7549,-1500.9332 714.7549,-1536.9332"/>
<text text-anchor="middle" x="672.7549" y="-1516.1332" font-family="Courier,monospace" font-size="11.00" fill="#000000">DirtyClass</text>
</g>
<!-- \\Firesphere\\SolrSearch\\Models\\DirtyClass&#45;&gt;\\SilverStripe\\ORM\\DataObject -->
<g id="edge9" class="edge">
<title>\\Firesphere\\SolrSearch\\Models\\DirtyClass&#45;&gt;\\SilverStripe\\ORM\\DataObject</title>
<path fill="none" stroke="#000000" d="M630.6236,-1516.6844C610.0474,-1513.3193 586.677,-1505.7098 572.2549,-1488.9332 505.5492,-1411.3376 529.2308,-1133.0867 508.2549,-1032.9332 434.6136,-681.3185 299.9697,-265.2502 263.4664,-154.9158"/>
<polygon fill="none" stroke="#000000" points="266.7158,-153.5947 260.2455,-145.2051 260.0717,-155.7985 266.7158,-153.5947"/>
</g>
<!-- \\Firesphere\\SolrSearch\\Models\\SearchSynonym -->
<g id="node31" class="node">
<title>\\Firesphere\\SolrSearch\\Models\\SearchSynonym</title>
<polygon fill="none" stroke="#000000" points="724.7549,-1590.9332 620.7549,-1590.9332 620.7549,-1554.9332 724.7549,-1554.9332 724.7549,-1590.9332"/>
<text text-anchor="middle" x="672.7549" y="-1570.1332" font-family="Courier,monospace" font-size="11.00" fill="#000000">SearchSynonym</text>
</g>
<!-- \\Firesphere\\SolrSearch\\Models\\SearchSynonym&#45;&gt;\\SilverStripe\\ORM\\DataObject -->
<g id="edge10" class="edge">
<title>\\Firesphere\\SolrSearch\\Models\\SearchSynonym&#45;&gt;\\SilverStripe\\ORM\\DataObject</title>
<path fill="none" stroke="#000000" d="M620.5397,-1570.4668C602.7658,-1566.9429 584.3536,-1559.8332 572.2549,-1545.9332 496.8288,-1459.2777 530.9426,-1145.5544 508.2549,-1032.9332 437.31,-680.7646 300.73,-265.094 263.6272,-154.8827"/>
<polygon fill="none" stroke="#000000" points="266.8674,-153.5382 260.3526,-145.1831 260.2351,-155.7773 266.8674,-153.5382"/>
</g>
<!-- \\Firesphere\\SolrSearch\\Interfaces\\SiteStateInterface -->
<g id="node32" class="node">
<title>\\Firesphere\\SolrSearch\\Interfaces\\SiteStateInterface</title>
<polygon fill="none" stroke="#000000" points="323.1275,-1080.9332 185.1275,-1080.9332 185.1275,-1044.9332 323.1275,-1044.9332 323.1275,-1080.9332"/>
<text text-anchor="middle" x="254.1275" y="-1060.1332" font-family="Courier,monospace" font-size="11.00" fill="#000000">SiteStateInterface</text>
</g>
<!-- \\Firesphere\\SolrSearch\\Interfaces\\ConfigStore -->
<g id="node33" class="node">
<title>\\Firesphere\\SolrSearch\\Interfaces\\ConfigStore</title>
<polygon fill="none" stroke="#000000" points="299.6275,-1134.9332 208.6275,-1134.9332 208.6275,-1098.9332 299.6275,-1098.9332 299.6275,-1134.9332"/>
<text text-anchor="middle" x="254.1275" y="-1114.1332" font-family="Courier,monospace" font-size="11.00" fill="#000000">ConfigStore</text>
</g>
<!-- \\Firesphere\\SolrSearch\\Jobs\\ClearDirtyClassesJob -->
<g id="node35" class="node">
<title>\\Firesphere\\SolrSearch\\Jobs\\ClearDirtyClassesJob</title>
<polygon fill="none" stroke="#000000" points="748.7549,-1376.9332 596.7549,-1376.9332 596.7549,-1340.9332 748.7549,-1340.9332 748.7549,-1376.9332"/>
<text text-anchor="middle" x="672.7549" y="-1356.1332" font-family="Courier,monospace" font-size="11.00" fill="#000000">ClearDirtyClassesJob</text>
</g>
<!-- \\Symbiote\\QueuedJobs\\Services\\AbstractQueuedJob -->
<g id="node67" class="node">
<title>\\Symbiote\\QueuedJobs\\Services\\AbstractQueuedJob</title>
<ellipse fill="none" stroke="#000000" cx="254.1275" cy="-3640.9332" rx="254.255" ry="18"/>
<text text-anchor="middle" x="254.1275" y="-3637.2332" font-family="Times,serif" font-size="14.00" fill="#c0c0c0">\Symbiote\QueuedJobs\Services\AbstractQueuedJob</text>
</g>
<!-- \\Firesphere\\SolrSearch\\Jobs\\ClearDirtyClassesJob&#45;&gt;\\Symbiote\\QueuedJobs\\Services\\AbstractQueuedJob -->
<g id="edge11" class="edge">
<title>\\Firesphere\\SolrSearch\\Jobs\\ClearDirtyClassesJob&#45;&gt;\\Symbiote\\QueuedJobs\\Services\\AbstractQueuedJob</title>
<path fill="none" stroke="#000000" d="M610.8696,-1376.9895C595.7576,-1384.4202 581.3385,-1394.7328 572.2549,-1408.9332 440.1795,-1615.4075 674.7848,-3434.0905 508.2549,-3613.9332 469.6697,-3655.603 406.1375,-3662.3529 352.2517,-3658.6854"/>
<polygon fill="none" stroke="#000000" points="352.2122,-3655.1709 341.9625,-3657.853 351.6477,-3662.1481 352.2122,-3655.1709"/>
</g>
<!-- \\Firesphere\\SolrSearch\\Jobs\\SolrIndexJob -->
<g id="node36" class="node">
<title>\\Firesphere\\SolrSearch\\Jobs\\SolrIndexJob</title>
<polygon fill="none" stroke="#000000" points="721.7549,-1322.9332 623.7549,-1322.9332 623.7549,-1286.9332 721.7549,-1286.9332 721.7549,-1322.9332"/>
<text text-anchor="middle" x="672.7549" y="-1302.1332" font-family="Courier,monospace" font-size="11.00" fill="#000000">SolrIndexJob</text>
</g>
<!-- \\Firesphere\\SolrSearch\\Jobs\\SolrIndexJob&#45;&gt;\\Symbiote\\QueuedJobs\\Services\\AbstractQueuedJob -->
<g id="edge12" class="edge">
<title>\\Firesphere\\SolrSearch\\Jobs\\SolrIndexJob&#45;&gt;\\Symbiote\\QueuedJobs\\Services\\AbstractQueuedJob</title>
<path fill="none" stroke="#000000" d="M623.7286,-1306.0833C604.6703,-1309.2205 584.5117,-1316.4046 572.2549,-1331.9332 415.0991,-1531.0388 680.5042,-3427.7312 508.2549,-3613.9332 469.6193,-3655.6984 405.9246,-3662.3964 351.9705,-3658.6792"/>
<polygon fill="none" stroke="#000000" points="351.9212,-3655.1636 341.6693,-3657.8373 351.3509,-3662.1404 351.9212,-3655.1636"/>
</g>
<!-- \\Firesphere\\SolrSearch\\Jobs\\SolrConfigureJob -->
<g id="node37" class="node">
<title>\\Firesphere\\SolrSearch\\Jobs\\SolrConfigureJob</title>
<polygon fill="none" stroke="#000000" points="735.2549,-1268.9332 610.2549,-1268.9332 610.2549,-1232.9332 735.2549,-1232.9332 735.2549,-1268.9332"/>
<text text-anchor="middle" x="672.7549" y="-1248.1332" font-family="Courier,monospace" font-size="11.00" fill="#000000">SolrConfigureJob</text>
</g>
<!-- \\Firesphere\\SolrSearch\\Jobs\\SolrConfigureJob&#45;&gt;\\Symbiote\\QueuedJobs\\Services\\AbstractQueuedJob -->
<g id="edge13" class="edge">
<title>\\Firesphere\\SolrSearch\\Jobs\\SolrConfigureJob&#45;&gt;\\Symbiote\\QueuedJobs\\Services\\AbstractQueuedJob</title>
<path fill="none" stroke="#000000" d="M610.082,-1255.0559C595.5376,-1259.0985 581.5976,-1266.0888 572.2549,-1277.9332 411.4492,-1481.7988 684.5153,-3423.2713 508.2549,-3613.9332 469.6328,-3655.7109 405.9381,-3662.4089 351.9806,-3658.6886"/>
<polygon fill="none" stroke="#000000" points="351.9308,-3655.1729 341.6787,-3657.8461 351.3601,-3662.1496 351.9308,-3655.1729"/>
</g>
<!-- \\Firesphere\\SolrSearch\\Stores\\FileConfigStore -->
<g id="node38" class="node">
<title>\\Firesphere\\SolrSearch\\Stores\\FileConfigStore</title>
<polygon fill="none" stroke="#000000" points="731.7549,-1134.9332 613.7549,-1134.9332 613.7549,-1098.9332 731.7549,-1098.9332 731.7549,-1134.9332"/>
<text text-anchor="middle" x="672.7549" y="-1114.1332" font-family="Courier,monospace" font-size="11.00" fill="#000000">FileConfigStore</text>
</g>
<!-- \\Firesphere\\SolrSearch\\Stores\\FileConfigStore&#45;&gt;\\Firesphere\\SolrSearch\\Interfaces\\ConfigStore -->
<g id="edge14" class="edge">
<title>\\Firesphere\\SolrSearch\\Stores\\FileConfigStore&#45;&gt;\\Firesphere\\SolrSearch\\Interfaces\\ConfigStore</title>
<path fill="none" stroke="#000000" stroke-dasharray="1,5" d="M613.6637,-1116.9332C532.8854,-1116.9332 389.0185,-1116.9332 309.9722,-1116.9332"/>
<polygon fill="none" stroke="#000000" points="309.7288,-1113.4333 299.7287,-1116.9332 309.7287,-1120.4333 309.7288,-1113.4333"/>
</g>
<!-- \\Firesphere\\SolrSearch\\Stores\\PostConfigStore -->
<g id="node39" class="node">
<title>\\Firesphere\\SolrSearch\\Stores\\PostConfigStore</title>
<polygon fill="none" stroke="#000000" points="731.7549,-1188.9332 613.7549,-1188.9332 613.7549,-1152.9332 731.7549,-1152.9332 731.7549,-1188.9332"/>
<text text-anchor="middle" x="672.7549" y="-1168.1332" font-family="Courier,monospace" font-size="11.00" fill="#000000">PostConfigStore</text>
</g>
<!-- \\Firesphere\\SolrSearch\\Stores\\PostConfigStore&#45;&gt;\\Firesphere\\SolrSearch\\Interfaces\\ConfigStore -->
<g id="edge15" class="edge">
<title>\\Firesphere\\SolrSearch\\Stores\\PostConfigStore&#45;&gt;\\Firesphere\\SolrSearch\\Interfaces\\ConfigStore</title>
<path fill="none" stroke="#000000" stroke-dasharray="1,5" d="M613.6637,-1163.3108C532.8854,-1152.891 389.0185,-1134.3332 309.9722,-1124.1368"/>
<polygon fill="none" stroke="#000000" points="310.0944,-1120.6236 299.7287,-1122.8154 309.1988,-1127.5661 310.0944,-1120.6236"/>
</g>
<!-- \\Firesphere\\SolrSearch\\Services\\SolrCoreService -->
<g id="node40" class="node">
<title>\\Firesphere\\SolrSearch\\Services\\SolrCoreService</title>
<polygon fill="none" stroke="#000000" points="731.7549,-1054.9332 613.7549,-1054.9332 613.7549,-1018.9332 731.7549,-1018.9332 731.7549,-1054.9332"/>
<text text-anchor="middle" x="672.7549" y="-1034.1332" font-family="Courier,monospace" font-size="11.00" fill="#000000">SolrCoreService</text>
</g>
<!-- \\Firesphere\\SolrSearch\\Factories\\SchemaFactory -->
<g id="node42" class="node">
<title>\\Firesphere\\SolrSearch\\Factories\\SchemaFactory</title>
<polygon fill="none" stroke="#000000" points="724.7549,-894.9332 620.7549,-894.9332 620.7549,-858.9332 724.7549,-858.9332 724.7549,-894.9332"/>
<text text-anchor="middle" x="672.7549" y="-874.1332" font-family="Courier,monospace" font-size="11.00" fill="#000000">SchemaFactory</text>
</g>
<!-- \\SilverStripe\\View\\ViewableData -->
<g id="node68" class="node">
<title>\\SilverStripe\\View\\ViewableData</title>
<ellipse fill="none" stroke="#000000" cx="254.1275" cy="-3586.9332" rx="163.2712" ry="18"/>
<text text-anchor="middle" x="254.1275" y="-3583.2332" font-family="Times,serif" font-size="14.00" fill="#c0c0c0">\SilverStripe\View\ViewableData</text>
</g>
<!-- \\Firesphere\\SolrSearch\\Factories\\SchemaFactory&#45;&gt;\\SilverStripe\\View\\ViewableData -->
<g id="edge16" class="edge">
<title>\\Firesphere\\SolrSearch\\Factories\\SchemaFactory&#45;&gt;\\SilverStripe\\View\\ViewableData</title>
<path fill="none" stroke="#000000" d="M620.5729,-890.5803C602.1214,-898.1563 583.2405,-909.6698 572.2549,-926.9332 493.6997,-1050.3792 607.416,-3452.3372 508.2549,-3559.9332 467.2112,-3604.4681 397.684,-3609.1861 341.7188,-3603.8871"/>
<polygon fill="none" stroke="#000000" points="341.7519,-3600.3708 331.4366,-3602.7884 341.0081,-3607.3311 341.7519,-3600.3708"/>
</g>
<!-- \\Firesphere\\SolrSearch\\Factories\\DocumentFactory -->
<g id="node43" class="node">
<title>\\Firesphere\\SolrSearch\\Factories\\DocumentFactory</title>
<polygon fill="none" stroke="#000000" points="731.7549,-840.9332 613.7549,-840.9332 613.7549,-804.9332 731.7549,-804.9332 731.7549,-840.9332"/>
<text text-anchor="middle" x="672.7549" y="-820.1332" font-family="Courier,monospace" font-size="11.00" fill="#000000">DocumentFactory</text>
</g>
<!-- \\Firesphere\\SolrSearch\\Factories\\QueryComponentFactory -->
<g id="node44" class="node">
<title>\\Firesphere\\SolrSearch\\Factories\\QueryComponentFactory</title>
<polygon fill="none" stroke="#000000" points="751.7549,-786.9332 593.7549,-786.9332 593.7549,-750.9332 751.7549,-750.9332 751.7549,-786.9332"/>
<text text-anchor="middle" x="672.7549" y="-766.1332" font-family="Courier,monospace" font-size="11.00" fill="#000000">QueryComponentFactory</text>
</g>
<!-- \\Firesphere\\SolrSearch\\States\\SiteState -->
<g id="node45" class="node">
<title>\\Firesphere\\SolrSearch\\States\\SiteState</title>
<polygon fill="none" stroke="#000000" points="714.7549,-706.9332 630.7549,-706.9332 630.7549,-670.9332 714.7549,-670.9332 714.7549,-706.9332"/>
<text text-anchor="start" x="638.7549" y="-692.1332" font-family="Courier,monospace" font-size="11.00" fill="#000000">«abstract»</text>
<text text-anchor="start" x="642.2549" y="-680.1332" font-family="Courier,monospace" font-size="11.00" fill="#000000">SiteState</text>
</g>
<!-- \\Firesphere\\SolrSearch\\Forms\\SearchForm -->
<g id="node46" class="node">
<title>\\Firesphere\\SolrSearch\\Forms\\SearchForm</title>
<polygon fill="none" stroke="#000000" points="714.7549,-546.9332 630.7549,-546.9332 630.7549,-510.9332 714.7549,-510.9332 714.7549,-546.9332"/>
<text text-anchor="middle" x="672.7549" y="-526.1332" font-family="Courier,monospace" font-size="11.00" fill="#000000">SearchForm</text>
</g>
<!-- \\SilverStripe\\Forms\\Form -->
<g id="node69" class="node">
<title>\\SilverStripe\\Forms\\Form</title>
<ellipse fill="none" stroke="#000000" cx="254.1275" cy="-3532.9332" rx="129.1772" ry="18"/>
<text text-anchor="middle" x="254.1275" y="-3529.2332" font-family="Times,serif" font-size="14.00" fill="#c0c0c0">\SilverStripe\Forms\Form</text>
</g>
<!-- \\Firesphere\\SolrSearch\\Forms\\SearchForm&#45;&gt;\\SilverStripe\\Forms\\Form -->
<g id="edge17" class="edge">
<title>\\Firesphere\\SolrSearch\\Forms\\SearchForm&#45;&gt;\\SilverStripe\\Forms\\Form</title>
<path fill="none" stroke="#000000" d="M630.7355,-538.7426C609.381,-546.0619 585.2557,-558.4478 572.2549,-578.9332 485.1007,-716.2618 618.3361,-3386.1954 508.2549,-3505.9332 465.6225,-3552.3054 392.1147,-3555.5467 335.0906,-3549.2344"/>
<polygon fill="none" stroke="#000000" points="335.3586,-3545.7412 325.0076,-3548.0014 334.5088,-3552.6895 335.3586,-3545.7412"/>
</g>
<!-- \\Firesphere\\SolrSearch\\Results\\SearchResult -->
<g id="node47" class="node">
<title>\\Firesphere\\SolrSearch\\Results\\SearchResult</title>
<polygon fill="none" stroke="#000000" points="721.7549,-626.9332 623.7549,-626.9332 623.7549,-590.9332 721.7549,-590.9332 721.7549,-626.9332"/>
<text text-anchor="middle" x="672.7549" y="-606.1332" font-family="Courier,monospace" font-size="11.00" fill="#000000">SearchResult</text>
</g>
<!-- \\Firesphere\\SolrSearch\\Results\\SearchResult&#45;&gt;\\SilverStripe\\View\\ViewableData -->
<g id="edge18" class="edge">
<title>\\Firesphere\\SolrSearch\\Results\\SearchResult&#45;&gt;\\SilverStripe\\View\\ViewableData</title>
<path fill="none" stroke="#000000" d="M623.7106,-621.3073C604.2818,-628.8445 583.8478,-640.6703 572.2549,-658.9332 485.8611,-795.0341 617.3704,-3441.2692 508.2549,-3559.9332 467.2612,-3604.5142 397.7307,-3609.2291 341.7515,-3603.9171"/>
<polygon fill="none" stroke="#000000" points="341.7824,-3600.4005 331.4666,-3602.816 341.0371,-3607.3608 341.7824,-3600.4005"/>
</g>
<!-- \\Firesphere\\SolrSearch\\Admins\\SearchAdmin -->
<g id="node48" class="node">
<title>\\Firesphere\\SolrSearch\\Admins\\SearchAdmin</title>
<polygon fill="none" stroke="#000000" points="718.2549,-466.9332 627.2549,-466.9332 627.2549,-430.9332 718.2549,-430.9332 718.2549,-466.9332"/>
<text text-anchor="middle" x="672.7549" y="-446.1332" font-family="Courier,monospace" font-size="11.00" fill="#000000">SearchAdmin</text>
</g>
<!-- \\SilverStripe\\Admin\\ModelAdmin -->
<g id="node70" class="node">
<title>\\SilverStripe\\Admin\\ModelAdmin</title>
<ellipse fill="none" stroke="#000000" cx="254.1275" cy="-3478.9332" rx="165.1707" ry="18"/>
<text text-anchor="middle" x="254.1275" y="-3475.2332" font-family="Times,serif" font-size="14.00" fill="#c0c0c0">\SilverStripe\Admin\ModelAdmin</text>
</g>
<!-- \\Firesphere\\SolrSearch\\Admins\\SearchAdmin&#45;&gt;\\SilverStripe\\Admin\\ModelAdmin -->
<g id="edge19" class="edge">
<title>\\Firesphere\\SolrSearch\\Admins\\SearchAdmin&#45;&gt;\\SilverStripe\\Admin\\ModelAdmin</title>
<path fill="none" stroke="#000000" d="M627.1081,-460.0247C606.7013,-467.479 584.5229,-479.5984 572.2549,-498.9332 484.3402,-637.4896 619.3019,-3331.1216 508.2549,-3451.9332 467.3405,-3496.4453 397.9785,-3501.2201 342.0468,-3495.9497"/>
<polygon fill="none" stroke="#000000" points="342.0836,-3492.434 331.7694,-3494.8561 341.3428,-3499.3947 342.0836,-3492.434"/>
</g>
<!-- \\Firesphere\\SolrSearch\\Tasks\\ClearDirtyClassesTask -->
<g id="node49" class="node">
<title>\\Firesphere\\SolrSearch\\Tasks\\ClearDirtyClassesTask</title>
<polygon fill="none" stroke="#000000" points="751.7549,-224.9332 593.7549,-224.9332 593.7549,-188.9332 751.7549,-188.9332 751.7549,-224.9332"/>
<text text-anchor="middle" x="672.7549" y="-204.1332" font-family="Courier,monospace" font-size="11.00" fill="#000000">ClearDirtyClassesTask</text>
</g>
<!-- \\SilverStripe\\Dev\\BuildTask -->
<g id="node71" class="node">
<title>\\SilverStripe\\Dev\\BuildTask</title>
<ellipse fill="none" stroke="#000000" cx="254.1275" cy="-3424.9332" rx="139.9756" ry="18"/>
<text text-anchor="middle" x="254.1275" y="-3421.2332" font-family="Times,serif" font-size="14.00" fill="#c0c0c0">\SilverStripe\Dev\BuildTask</text>
</g>
<!-- \\Firesphere\\SolrSearch\\Tasks\\ClearDirtyClassesTask&#45;&gt;\\SilverStripe\\Dev\\BuildTask -->
<g id="edge20" class="edge">
<title>\\Firesphere\\SolrSearch\\Tasks\\ClearDirtyClassesTask&#45;&gt;\\SilverStripe\\Dev\\BuildTask</title>
<path fill="none" stroke="#000000" d="M593.407,-217.6942C585.3248,-221.6762 577.9939,-226.9572 572.2549,-233.9332 506.2394,-314.1784 517.6233,-1063.4461 508.2549,-1166.9332 425.2184,-2084.1865 282.2764,-3206.41 257.7572,-3396.8525"/>
<polygon fill="none" stroke="#000000" points="254.2716,-3396.5163 256.4644,-3406.8818 261.2142,-3397.4113 254.2716,-3396.5163"/>
</g>
<!-- \\Firesphere\\SolrSearch\\Tasks\\SolrConfigureTask -->
<g id="node50" class="node">
<title>\\Firesphere\\SolrSearch\\Tasks\\SolrConfigureTask</title>
<polygon fill="none" stroke="#000000" points="738.2549,-386.9332 607.2549,-386.9332 607.2549,-350.9332 738.2549,-350.9332 738.2549,-386.9332"/>
<text text-anchor="middle" x="672.7549" y="-366.1332" font-family="Courier,monospace" font-size="11.00" fill="#000000">SolrConfigureTask</text>
</g>
<!-- \\Firesphere\\SolrSearch\\Tasks\\SolrConfigureTask&#45;&gt;\\SilverStripe\\Dev\\BuildTask -->
<g id="edge21" class="edge">
<title>\\Firesphere\\SolrSearch\\Tasks\\SolrConfigureTask&#45;&gt;\\SilverStripe\\Dev\\BuildTask</title>
<path fill="none" stroke="#000000" d="M612.1773,-386.9492C596.7885,-394.4129 581.8992,-404.7525 572.2549,-418.9332 478.4352,-556.8823 524.6965,-1000.9158 508.2549,-1166.9332 417.4868,-2083.4537 280.9154,-3206.281 257.5775,-3396.8355"/>
<polygon fill="none" stroke="#000000" points="254.0901,-3396.5191 256.3475,-3406.8707 261.0382,-3397.3708 254.0901,-3396.5191"/>
</g>
<!-- \\Firesphere\\SolrSearch\\Tasks\\ClearErrorsTask -->
<g id="node51" class="node">
<title>\\Firesphere\\SolrSearch\\Tasks\\ClearErrorsTask</title>
<polygon fill="none" stroke="#000000" points="731.7549,-332.9332 613.7549,-332.9332 613.7549,-296.9332 731.7549,-296.9332 731.7549,-332.9332"/>
<text text-anchor="middle" x="672.7549" y="-312.1332" font-family="Courier,monospace" font-size="11.00" fill="#000000">ClearErrorsTask</text>
</g>
<!-- \\Firesphere\\SolrSearch\\Tasks\\ClearErrorsTask&#45;&gt;\\SilverStripe\\Dev\\BuildTask -->
<g id="edge22" class="edge">
<title>\\Firesphere\\SolrSearch\\Tasks\\ClearErrorsTask&#45;&gt;\\SilverStripe\\Dev\\BuildTask</title>
<path fill="none" stroke="#000000" d="M613.6242,-318.5523C597.9737,-322.4499 582.5833,-329.4921 572.2549,-341.9332 513.5265,-412.6744 516.9531,-1075.4035 508.2549,-1166.9332 421.1228,-2083.8065 281.5554,-3206.3431 257.662,-3396.8437"/>
<polygon fill="none" stroke="#000000" points="254.1755,-3396.5179 256.4025,-3406.876 261.121,-3397.3899 254.1755,-3396.5179"/>
</g>
<!-- \\Firesphere\\SolrSearch\\Tasks\\SolrIndexTask -->
<g id="node52" class="node">
<title>\\Firesphere\\SolrSearch\\Tasks\\SolrIndexTask</title>
<polygon fill="none" stroke="#000000" points="724.7549,-278.9332 620.7549,-278.9332 620.7549,-242.9332 724.7549,-242.9332 724.7549,-278.9332"/>
<text text-anchor="middle" x="672.7549" y="-258.1332" font-family="Courier,monospace" font-size="11.00" fill="#000000">SolrIndexTask</text>
</g>
<!-- \\Firesphere\\SolrSearch\\Tasks\\SolrIndexTask&#45;&gt;\\SilverStripe\\Dev\\BuildTask -->
<g id="edge23" class="edge">
<title>\\Firesphere\\SolrSearch\\Tasks\\SolrIndexTask&#45;&gt;\\SilverStripe\\Dev\\BuildTask</title>
<path fill="none" stroke="#000000" d="M620.6712,-262.9653C602.6912,-266.4147 584.1073,-273.5874 572.2549,-287.9332 509.8834,-363.4258 517.2882,-1069.4255 508.2549,-1166.9332 423.2956,-2084.0104 281.9379,-3206.379 257.7125,-3396.8484"/>
<polygon fill="none" stroke="#000000" points="254.2265,-3396.5171 256.4353,-3406.8791 261.1704,-3397.4013 254.2265,-3396.5171"/>
</g>
<!-- \\Firesphere\\SolrFluent\\Extensions\\FluentIndexExtension -->
<g id="node53" class="node">
<title>\\Firesphere\\SolrFluent\\Extensions\\FluentIndexExtension</title>
<polygon fill="none" stroke="#000000" points="1002.7549,-668.9332 850.7549,-668.9332 850.7549,-632.9332 1002.7549,-632.9332 1002.7549,-668.9332"/>
<text text-anchor="middle" x="926.7549" y="-648.1332" font-family="Courier,monospace" font-size="11.00" fill="#000000">FluentIndexExtension</text>
</g>
<!-- \\Firesphere\\SolrFluent\\Extensions\\FluentIndexExtension&#45;&gt;\\SilverStripe\\Core\\Extension -->
<g id="edge24" class="edge">
<title>\\Firesphere\\SolrFluent\\Extensions\\FluentIndexExtension&#45;&gt;\\SilverStripe\\Core\\Extension</title>
<path fill="none" stroke="#000000" d="M879.2438,-632.8461C857.9161,-622.206 834.5963,-606.5304 821.2549,-584.9332 722.7083,-425.4055 882.9626,-322.4643 781.2549,-164.9332 751.1296,-118.2732 718.0085,-135.1327 672.7549,-102.9332"/>
</g>
<!-- \\Firesphere\\SolrFluent\\Extensions\\FluentDocumentExtension -->
<g id="node54" class="node">
<title>\\Firesphere\\SolrFluent\\Extensions\\FluentDocumentExtension</title>
<polygon fill="none" stroke="#000000" points="1012.7549,-776.9332 840.7549,-776.9332 840.7549,-740.9332 1012.7549,-740.9332 1012.7549,-776.9332"/>
<text text-anchor="middle" x="926.7549" y="-756.1332" font-family="Courier,monospace" font-size="11.00" fill="#000000">FluentDocumentExtension</text>
</g>
<!-- \\Firesphere\\SolrFluent\\Extensions\\FluentDocumentExtension&#45;&gt;\\SilverStripe\\Core\\Extension -->
<g id="edge25" class="edge">
<title>\\Firesphere\\SolrFluent\\Extensions\\FluentDocumentExtension&#45;&gt;\\SilverStripe\\Core\\Extension</title>
<path fill="none" stroke="#000000" d="M840.747,-747.3251C833.3488,-743.4232 826.6449,-738.3932 821.2549,-731.9332 740.3328,-634.9454 848.462,-271.8828 781.2549,-164.9332 751.7039,-117.9073 718.0085,-135.1327 672.7549,-102.9332"/>
</g>
<!-- \\Firesphere\\SolrFluent\\Extensions\\FluentSchemaExtension -->
<g id="node55" class="node">
<title>\\Firesphere\\SolrFluent\\Extensions\\FluentSchemaExtension</title>
<polygon fill="none" stroke="#000000" points="1005.7549,-722.9332 847.7549,-722.9332 847.7549,-686.9332 1005.7549,-686.9332 1005.7549,-722.9332"/>
<text text-anchor="middle" x="926.7549" y="-702.1332" font-family="Courier,monospace" font-size="11.00" fill="#000000">FluentSchemaExtension</text>
</g>
<!-- \\Firesphere\\SolrFluent\\Extensions\\FluentSchemaExtension&#45;&gt;\\SilverStripe\\Core\\Extension -->
<g id="edge26" class="edge">
<title>\\Firesphere\\SolrFluent\\Extensions\\FluentSchemaExtension&#45;&gt;\\SilverStripe\\Core\\Extension</title>
<path fill="none" stroke="#000000" d="M847.7103,-696.5266C837.5852,-692.3033 828.311,-686.327 821.2549,-677.9332 747.6758,-590.4053 842.4518,-261.5249 781.2549,-164.9332 751.5304,-118.0168 718.0085,-135.1327 672.7549,-102.9332"/>
</g>
<!-- \\Firesphere\\SolrFluent\\States\\FluentSiteState -->
<g id="node56" class="node">
<title>\\Firesphere\\SolrFluent\\States\\FluentSiteState</title>
<polygon fill="none" stroke="#000000" points="985.7549,-856.9332 867.7549,-856.9332 867.7549,-820.9332 985.7549,-820.9332 985.7549,-856.9332"/>
<text text-anchor="middle" x="926.7549" y="-836.1332" font-family="Courier,monospace" font-size="11.00" fill="#000000">FluentSiteState</text>
</g>
<!-- \\Firesphere\\SolrFluent\\States\\FluentSiteState&#45;&gt;\\Firesphere\\SolrSearch\\Interfaces\\SiteStateInterface -->
<g id="edge28" class="edge">
<title>\\Firesphere\\SolrFluent\\States\\FluentSiteState&#45;&gt;\\Firesphere\\SolrSearch\\Interfaces\\SiteStateInterface</title>
<path fill="none" stroke="#000000" stroke-dasharray="1,5" d="M867.5291,-834.9721C850.0639,-830.779 832.6083,-823.0168 821.2549,-808.9332 732.9344,-699.3743 880.7021,-276.5018 781.2549,-176.9332 747.1066,-142.7432 720.9925,-172.7964 672.7549,-169.9332"/>
<path fill="none" stroke="#000000" stroke-dasharray="1,5" d="M672.7549,-169.9332C628.0587,-167.2802 607.9588,-149.9143 572.2549,-176.9332 424.5997,-288.671 289.0905,-896.7629 259.91,-1034.9758"/>
<polygon fill="none" stroke="#000000" points="256.476,-1034.2985 257.8476,-1044.8041 263.3268,-1035.7361 256.476,-1034.2985"/>
</g>
<!-- \\Firesphere\\SolrFluent\\States\\FluentSiteState&#45;&gt;\\Firesphere\\SolrSearch\\States\\SiteState -->
<g id="edge27" class="edge">
<title>\\Firesphere\\SolrFluent\\States\\FluentSiteState&#45;&gt;\\Firesphere\\SolrSearch\\States\\SiteState</title>
<path fill="none" stroke="#000000" d="M867.677,-830.6295C851.4147,-826.1917 834.598,-819.3821 821.2549,-808.9332 793.0435,-786.8409 807.6739,-763.1404 781.2549,-738.9332 765.0907,-724.1223 743.777,-713.0179 724.322,-705.0842"/>
<polygon fill="none" stroke="#000000" points="725.5401,-701.8026 714.9514,-701.4418 723.004,-708.3271 725.5401,-701.8026"/>
</g>
<!-- \\Firesphere\\SolrSubsites\\Extensions\\SubsitesExtension -->
<g id="node57" class="node">
<title>\\Firesphere\\SolrSubsites\\Extensions\\SubsitesExtension</title>
<polygon fill="none" stroke="#000000" points="992.2549,-972.9332 861.2549,-972.9332 861.2549,-936.9332 992.2549,-936.9332 992.2549,-972.9332"/>
<text text-anchor="middle" x="926.7549" y="-952.1332" font-family="Courier,monospace" font-size="11.00" fill="#000000">SubsitesExtension</text>
</g>
<!-- \\Firesphere\\SolrSubsites\\Extensions\\SubsitesExtension&#45;&gt;\\SilverStripe\\Core\\Extension -->
<g id="edge29" class="edge">
<title>\\Firesphere\\SolrSubsites\\Extensions\\SubsitesExtension&#45;&gt;\\SilverStripe\\Core\\Extension</title>
<path fill="none" stroke="#000000" d="M878.3173,-936.8038C857.0531,-926.2207 834.0545,-910.6053 821.2549,-888.9332 739.3126,-750.1899 865.9472,-302.0151 781.2549,-164.9332 752.063,-117.6836 718.0085,-135.1327 672.7549,-102.9332"/>
</g>
<!-- \\Firesphere\\SolrSubsites\\States\\SubsiteState -->
<g id="node58" class="node">
<title>\\Firesphere\\SolrSubsites\\States\\SubsiteState</title>
<polygon fill="none" stroke="#000000" points="975.7549,-1052.9332 877.7549,-1052.9332 877.7549,-1016.9332 975.7549,-1016.9332 975.7549,-1052.9332"/>
<text text-anchor="middle" x="926.7549" y="-1032.1332" font-family="Courier,monospace" font-size="11.00" fill="#000000">SubsiteState</text>
</g>
<!-- \\Firesphere\\SolrSubsites\\States\\SubsiteState&#45;&gt;\\Firesphere\\SolrSearch\\Interfaces\\SiteStateInterface -->
<g id="edge31" class="edge">
<title>\\Firesphere\\SolrSubsites\\States\\SubsiteState&#45;&gt;\\Firesphere\\SolrSearch\\Interfaces\\SiteStateInterface</title>
<path fill="none" stroke="#000000" stroke-dasharray="1,5" d="M877.5714,-1033.1297C856.9534,-1029.6747 834.6932,-1021.8602 821.2549,-1004.9332 763.9847,-932.7953 845.8564,-242.5868 781.2549,-176.9332 747.3629,-142.4891 720.9925,-172.7964 672.7549,-169.9332"/>
</g>
<!-- \\Firesphere\\SolrSubsites\\States\\SubsiteState&#45;&gt;\\Firesphere\\SolrSearch\\States\\SiteState -->
<g id="edge30" class="edge">
<title>\\Firesphere\\SolrSubsites\\States\\SubsiteState&#45;&gt;\\Firesphere\\SolrSearch\\States\\SiteState</title>
<path fill="none" stroke="#000000" d="M877.5373,-1032.3349C857.296,-1028.6897 835.3418,-1020.9459 821.2549,-1004.9332 742.2895,-915.1723 853.0445,-834.5302 781.2549,-738.9332 767.4388,-720.5353 745.2232,-708.6933 724.4818,-701.1803"/>
<polygon fill="none" stroke="#000000" points="725.3714,-697.7871 714.7775,-697.9276 723.1467,-704.4242 725.3714,-697.7871"/>
</g>
<!-- \\Firesphere\\SolrPermissions\\Extensions\\SchemaFactoryExtension -->
<g id="node59" class="node">
<title>\\Firesphere\\SolrPermissions\\Extensions\\SchemaFactoryExtension</title>
<polygon fill="none" stroke="#000000" points="1009.2549,-390.9332 844.2549,-390.9332 844.2549,-354.9332 1009.2549,-354.9332 1009.2549,-390.9332"/>
<text text-anchor="middle" x="926.7549" y="-370.1332" font-family="Courier,monospace" font-size="11.00" fill="#000000">SchemaFactoryExtension</text>
</g>
<!-- \\Firesphere\\SolrPermissions\\Extensions\\SchemaFactoryExtension&#45;&gt;\\SilverStripe\\Core\\Extension -->
<g id="edge32" class="edge">
<title>\\Firesphere\\SolrPermissions\\Extensions\\SchemaFactoryExtension&#45;&gt;\\SilverStripe\\Core\\Extension</title>
<path fill="none" stroke="#000000" d="M882.0021,-354.9048C860.5351,-344.0624 836.28,-328.1936 821.2549,-306.9332 773.9576,-240.0078 839.2316,-184.8534 781.2549,-126.9332 746.3154,-92.0277 712.9958,-131.5659 672.7549,-102.9332"/>
</g>
<!-- \\Firesphere\\SolrPermissions\\Extensions\\BaseIndexExtension -->
<g id="node60" class="node">
<title>\\Firesphere\\SolrPermissions\\Extensions\\BaseIndexExtension</title>
<polygon fill="none" stroke="#000000" points="995.7549,-498.9332 857.7549,-498.9332 857.7549,-462.9332 995.7549,-462.9332 995.7549,-498.9332"/>
<text text-anchor="middle" x="926.7549" y="-478.1332" font-family="Courier,monospace" font-size="11.00" fill="#000000">BaseIndexExtension</text>
</g>
<!-- \\Firesphere\\SolrPermissions\\Extensions\\BaseIndexExtension&#45;&gt;\\SilverStripe\\Core\\Extension -->
<g id="edge33" class="edge">
<title>\\Firesphere\\SolrPermissions\\Extensions\\BaseIndexExtension&#45;&gt;\\SilverStripe\\Core\\Extension</title>
<path fill="none" stroke="#000000" d="M857.6967,-475.6672C843.8917,-471.4907 830.7401,-464.7264 821.2549,-453.9332 724.6017,-343.9514 879.7016,-235.3124 781.2549,-126.9332 748.0478,-90.3757 712.9958,-131.5659 672.7549,-102.9332"/>
</g>
<!-- \\Firesphere\\SolrPermissions\\Extensions\\DocumentFactoryExtension -->
<g id="node61" class="node">
<title>\\Firesphere\\SolrPermissions\\Extensions\\DocumentFactoryExtension</title>
<polygon fill="none" stroke="#000000" points="1016.2549,-444.9332 837.2549,-444.9332 837.2549,-408.9332 1016.2549,-408.9332 1016.2549,-444.9332"/>
<text text-anchor="middle" x="926.7549" y="-424.1332" font-family="Courier,monospace" font-size="11.00" fill="#000000">DocumentFactoryExtension</text>
</g>
<!-- \\Firesphere\\SolrPermissions\\Extensions\\DocumentFactoryExtension&#45;&gt;\\SilverStripe\\Core\\Extension -->
<g id="edge34" class="edge">
<title>\\Firesphere\\SolrPermissions\\Extensions\\DocumentFactoryExtension&#45;&gt;\\SilverStripe\\Core\\Extension</title>
<path fill="none" stroke="#000000" d="M837.0155,-412.593C831.1674,-409.162 825.8083,-404.992 821.2549,-399.9332 739.2158,-308.7882 864.7801,-216.7183 781.2549,-126.9332 747.6157,-90.7729 712.9958,-131.5659 672.7549,-102.9332"/>
</g>
<!-- \\Firesphere\\SolrPermissions\\Extensions\\DataObjectExtension -->
<g id="node62" class="node">
<title>\\Firesphere\\SolrPermissions\\Extensions\\DataObjectExtension</title>
<polygon fill="none" stroke="#000000" points="999.2549,-552.9332 854.2549,-552.9332 854.2549,-516.9332 999.2549,-516.9332 999.2549,-552.9332"/>
<text text-anchor="middle" x="926.7549" y="-532.1332" font-family="Courier,monospace" font-size="11.00" fill="#000000">DataObjectExtension</text>
</g>
<!-- \\Firesphere\\SolrPermissions\\Extensions\\DataObjectExtension&#45;&gt;\\SilverStripe\\ORM\\DataExtension -->
<g id="edge35" class="edge">
<title>\\Firesphere\\SolrPermissions\\Extensions\\DataObjectExtension&#45;&gt;\\SilverStripe\\ORM\\DataExtension</title>
<path fill="none" stroke="#000000" d="M854.1266,-528.5767C841.6284,-524.3397 829.9011,-517.8276 821.2549,-507.9332 720.2653,-392.3631 883.6696,-279.2424 781.2549,-164.9332 717.657,-93.9489 664.7691,-139.8369 572.2549,-116.9332 543.6866,-109.8605 537.1957,-105.2815 508.2549,-99.9332 473.46,-93.503 435.681,-88.4589 400.1541,-84.5612"/>
<polygon fill="none" stroke="#000000" points="400.5143,-81.0799 390.1977,-83.4921 399.7668,-88.0399 400.5143,-81.0799"/>
</g>
</g>
</svg>
