<?xml version="1.0" encoding="UTF-8" standalone="no"?>
<!DOCTYPE svg PUBLIC "-//W3C//DTD SVG 1.1//EN"
 "http://www.w3.org/Graphics/SVG/1.1/DTD/svg11.dtd">
<!-- Generated by graphviz version 2.40.1 (20161225.0304)
 -->
<!-- Title: G Pages: 1 -->
<svg width="984pt" height="3544pt"
 viewBox="0.00 0.00 984.25 3544.33" xmlns="http://www.w3.org/2000/svg" xmlns:xlink="http://www.w3.org/1999/xlink">
<g id="graph0" class="graph" transform="scale(1 1) rotate(0) translate(4 3540.3268)">
<title>G</title>
<polygon fill="#ffffff" stroke="transparent" points="-4,4 -4,-3540.3268 980.2549,-3540.3268 980.2549,4 -4,4"/>
<g id="clust1" class="cluster">
<title>cluster_Global</title>
<path fill="none" stroke="#c0c0c0" d="M165.1275,-476.3268C165.1275,-476.3268 956.2549,-476.3268 956.2549,-476.3268 962.2549,-476.3268 968.2549,-482.3268 968.2549,-488.3268 968.2549,-488.3268 968.2549,-3516.3268 968.2549,-3516.3268 968.2549,-3522.3268 962.2549,-3528.3268 956.2549,-3528.3268 956.2549,-3528.3268 165.1275,-3528.3268 165.1275,-3528.3268 159.1275,-3528.3268 153.1275,-3522.3268 153.1275,-3516.3268 153.1275,-3516.3268 153.1275,-488.3268 153.1275,-488.3268 153.1275,-482.3268 159.1275,-476.3268 165.1275,-476.3268"/>
<text text-anchor="middle" x="560.6912" y="-3515.5268" font-family="Times,serif" font-size="11.00" fill="#c0c0c0">Global</text>
</g>
<g id="clust2" class="cluster">
<title>cluster_\SilverStripe</title>
<path fill="none" stroke="#c0c0c0" d="M817.2549,-1471.3268C817.2549,-1471.3268 948.2549,-1471.3268 948.2549,-1471.3268 954.2549,-1471.3268 960.2549,-1477.3268 960.2549,-1483.3268 960.2549,-1483.3268 960.2549,-1773.3268 960.2549,-1773.3268 960.2549,-1779.3268 954.2549,-1785.3268 948.2549,-1785.3268 948.2549,-1785.3268 817.2549,-1785.3268 817.2549,-1785.3268 811.2549,-1785.3268 805.2549,-1779.3268 805.2549,-1773.3268 805.2549,-1773.3268 805.2549,-1483.3268 805.2549,-1483.3268 805.2549,-1477.3268 811.2549,-1471.3268 817.2549,-1471.3268"/>
<text text-anchor="middle" x="882.7549" y="-1772.5268" font-family="Times,serif" font-size="11.00" fill="#c0c0c0">SilverStripe</text>
</g>
<g id="clust3" class="cluster">
<title>cluster_\SilverStripe\FullTextSearch</title>
<path fill="none" stroke="#c0c0c0" d="M825.2549,-1479.3268C825.2549,-1479.3268 940.2549,-1479.3268 940.2549,-1479.3268 946.2549,-1479.3268 952.2549,-1485.3268 952.2549,-1491.3268 952.2549,-1491.3268 952.2549,-1745.3268 952.2549,-1745.3268 952.2549,-1751.3268 946.2549,-1757.3268 940.2549,-1757.3268 940.2549,-1757.3268 825.2549,-1757.3268 825.2549,-1757.3268 819.2549,-1757.3268 813.2549,-1751.3268 813.2549,-1745.3268 813.2549,-1745.3268 813.2549,-1491.3268 813.2549,-1491.3268 813.2549,-1485.3268 819.2549,-1479.3268 825.2549,-1479.3268"/>
<text text-anchor="middle" x="882.7549" y="-1744.5268" font-family="Times,serif" font-size="11.00" fill="#c0c0c0">FullTextSearch</text>
</g>
<g id="clust4" class="cluster">
<title>cluster_\SilverStripe\FullTextSearch\Search</title>
<path fill="none" stroke="#c0c0c0" d="M833.2549,-1621.3268C833.2549,-1621.3268 932.2549,-1621.3268 932.2549,-1621.3268 938.2549,-1621.3268 944.2549,-1627.3268 944.2549,-1633.3268 944.2549,-1633.3268 944.2549,-1717.3268 944.2549,-1717.3268 944.2549,-1723.3268 938.2549,-1729.3268 932.2549,-1729.3268 932.2549,-1729.3268 833.2549,-1729.3268 833.2549,-1729.3268 827.2549,-1729.3268 821.2549,-1723.3268 821.2549,-1717.3268 821.2549,-1717.3268 821.2549,-1633.3268 821.2549,-1633.3268 821.2549,-1627.3268 827.2549,-1621.3268 833.2549,-1621.3268"/>
<text text-anchor="middle" x="882.7549" y="-1716.5268" font-family="Times,serif" font-size="11.00" fill="#c0c0c0">Search</text>
</g>
<g id="clust5" class="cluster">
<title>cluster_\SilverStripe\FullTextSearch\Search\Queries</title>
<path fill="none" stroke="#c0c0c0" d="M841.2549,-1629.3268C841.2549,-1629.3268 924.2549,-1629.3268 924.2549,-1629.3268 930.2549,-1629.3268 936.2549,-1635.3268 936.2549,-1641.3268 936.2549,-1641.3268 936.2549,-1689.3268 936.2549,-1689.3268 936.2549,-1695.3268 930.2549,-1701.3268 924.2549,-1701.3268 924.2549,-1701.3268 841.2549,-1701.3268 841.2549,-1701.3268 835.2549,-1701.3268 829.2549,-1695.3268 829.2549,-1689.3268 829.2549,-1689.3268 829.2549,-1641.3268 829.2549,-1641.3268 829.2549,-1635.3268 835.2549,-1629.3268 841.2549,-1629.3268"/>
<text text-anchor="middle" x="882.7549" y="-1688.5268" font-family="Times,serif" font-size="11.00" fill="#c0c0c0">Queries</text>
</g>
<g id="clust6" class="cluster">
<title>cluster_\SilverStripe\FullTextSearch\Solr</title>
<path fill="none" stroke="#c0c0c0" d="M844.7549,-1487.3268C844.7549,-1487.3268 920.7549,-1487.3268 920.7549,-1487.3268 926.7549,-1487.3268 932.7549,-1493.3268 932.7549,-1499.3268 932.7549,-1499.3268 932.7549,-1601.3268 932.7549,-1601.3268 932.7549,-1607.3268 926.7549,-1613.3268 920.7549,-1613.3268 920.7549,-1613.3268 844.7549,-1613.3268 844.7549,-1613.3268 838.7549,-1613.3268 832.7549,-1607.3268 832.7549,-1601.3268 832.7549,-1601.3268 832.7549,-1499.3268 832.7549,-1499.3268 832.7549,-1493.3268 838.7549,-1487.3268 844.7549,-1487.3268"/>
<text text-anchor="middle" x="882.7549" y="-1600.5268" font-family="Times,serif" font-size="11.00" fill="#c0c0c0">Solr</text>
</g>
<g id="clust7" class="cluster">
<title>cluster_\Firesphere</title>
<path fill="none" stroke="#c0c0c0" d="M173.1275,-484.3268C173.1275,-484.3268 777.2549,-484.3268 777.2549,-484.3268 783.2549,-484.3268 789.2549,-490.3268 789.2549,-496.3268 789.2549,-496.3268 789.2549,-3488.3268 789.2549,-3488.3268 789.2549,-3494.3268 783.2549,-3500.3268 777.2549,-3500.3268 777.2549,-3500.3268 173.1275,-3500.3268 173.1275,-3500.3268 167.1275,-3500.3268 161.1275,-3494.3268 161.1275,-3488.3268 161.1275,-3488.3268 161.1275,-496.3268 161.1275,-496.3268 161.1275,-490.3268 167.1275,-484.3268 173.1275,-484.3268"/>
<text text-anchor="middle" x="475.1912" y="-3487.5268" font-family="Times,serif" font-size="11.00" fill="#c0c0c0">Firesphere</text>
</g>
<g id="clust8" class="cluster">
<title>cluster_\Firesphere\SolrSearch</title>
<path fill="none" stroke="#c0c0c0" d="M181.1275,-492.3268C181.1275,-492.3268 769.2549,-492.3268 769.2549,-492.3268 775.2549,-492.3268 781.2549,-498.3268 781.2549,-504.3268 781.2549,-504.3268 781.2549,-3460.3268 781.2549,-3460.3268 781.2549,-3466.3268 775.2549,-3472.3268 769.2549,-3472.3268 769.2549,-3472.3268 181.1275,-3472.3268 181.1275,-3472.3268 175.1275,-3472.3268 169.1275,-3466.3268 169.1275,-3460.3268 169.1275,-3460.3268 169.1275,-504.3268 169.1275,-504.3268 169.1275,-498.3268 175.1275,-492.3268 181.1275,-492.3268"/>
<text text-anchor="middle" x="475.1912" y="-3459.5268" font-family="Times,serif" font-size="11.00" fill="#c0c0c0">SolrSearch</text>
</g>
<g id="clust9" class="cluster">
<title>cluster_\Firesphere\SolrSearch\Compat</title>
<path fill="none" stroke="#c0c0c0" d="M590.7549,-3372.3268C590.7549,-3372.3268 754.7549,-3372.3268 754.7549,-3372.3268 760.7549,-3372.3268 766.7549,-3378.3268 766.7549,-3384.3268 766.7549,-3384.3268 766.7549,-3432.3268 766.7549,-3432.3268 766.7549,-3438.3268 760.7549,-3444.3268 754.7549,-3444.3268 754.7549,-3444.3268 590.7549,-3444.3268 590.7549,-3444.3268 584.7549,-3444.3268 578.7549,-3438.3268 578.7549,-3432.3268 578.7549,-3432.3268 578.7549,-3384.3268 578.7549,-3384.3268 578.7549,-3378.3268 584.7549,-3372.3268 590.7549,-3372.3268"/>
<text text-anchor="middle" x="672.7549" y="-3431.5268" font-family="Times,serif" font-size="11.00" fill="#c0c0c0">Compat</text>
</g>
<g id="clust10" class="cluster">
<title>cluster_\Firesphere\SolrSearch\Interfaces</title>
<path fill="none" stroke="#c0c0c0" d="M189.1275,-2269.3268C189.1275,-2269.3268 319.1275,-2269.3268 319.1275,-2269.3268 325.1275,-2269.3268 331.1275,-2275.3268 331.1275,-2281.3268 331.1275,-2281.3268 331.1275,-2383.3268 331.1275,-2383.3268 331.1275,-2389.3268 325.1275,-2395.3268 319.1275,-2395.3268 319.1275,-2395.3268 189.1275,-2395.3268 189.1275,-2395.3268 183.1275,-2395.3268 177.1275,-2389.3268 177.1275,-2383.3268 177.1275,-2383.3268 177.1275,-2281.3268 177.1275,-2281.3268 177.1275,-2275.3268 183.1275,-2269.3268 189.1275,-2269.3268"/>
<text text-anchor="middle" x="254.1275" y="-2382.5268" font-family="Times,serif" font-size="11.00" fill="#c0c0c0">Interfaces</text>
</g>
<g id="clust11" class="cluster">
<title>cluster_\Firesphere\SolrSearch\Traits</title>
<path fill="none" stroke="#c0c0c0" d="M584.2549,-2536.3268C584.2549,-2536.3268 761.2549,-2536.3268 761.2549,-2536.3268 767.2549,-2536.3268 773.2549,-2542.3268 773.2549,-2548.3268 773.2549,-2548.3268 773.2549,-3352.3268 773.2549,-3352.3268 773.2549,-3358.3268 767.2549,-3364.3268 761.2549,-3364.3268 761.2549,-3364.3268 584.2549,-3364.3268 584.2549,-3364.3268 578.2549,-3364.3268 572.2549,-3358.3268 572.2549,-3352.3268 572.2549,-3352.3268 572.2549,-2548.3268 572.2549,-2548.3268 572.2549,-2542.3268 578.2549,-2536.3268 584.2549,-2536.3268"/>
<text text-anchor="middle" x="672.7549" y="-3351.5268" font-family="Times,serif" font-size="11.00" fill="#c0c0c0">Traits</text>
</g>
<g id="clust12" class="cluster">
<title>cluster_\Firesphere\SolrSearch\Indexes</title>
<path fill="none" stroke="#c0c0c0" d="M634.7549,-2456.3268C634.7549,-2456.3268 710.7549,-2456.3268 710.7549,-2456.3268 716.7549,-2456.3268 722.7549,-2462.3268 722.7549,-2468.3268 722.7549,-2468.3268 722.7549,-2516.3268 722.7549,-2516.3268 722.7549,-2522.3268 716.7549,-2528.3268 710.7549,-2528.3268 710.7549,-2528.3268 634.7549,-2528.3268 634.7549,-2528.3268 628.7549,-2528.3268 622.7549,-2522.3268 622.7549,-2516.3268 622.7549,-2516.3268 622.7549,-2468.3268 622.7549,-2468.3268 622.7549,-2462.3268 628.7549,-2456.3268 634.7549,-2456.3268"/>
<text text-anchor="middle" x="672.7549" y="-2515.5268" font-family="Times,serif" font-size="11.00" fill="#c0c0c0">Indexes</text>
</g>
<g id="clust13" class="cluster">
<title>cluster_\Firesphere\SolrSearch\Results</title>
<path fill="none" stroke="#c0c0c0" d="M627.7549,-2376.3268C627.7549,-2376.3268 717.7549,-2376.3268 717.7549,-2376.3268 723.7549,-2376.3268 729.7549,-2382.3268 729.7549,-2388.3268 729.7549,-2388.3268 729.7549,-2436.3268 729.7549,-2436.3268 729.7549,-2442.3268 723.7549,-2448.3268 717.7549,-2448.3268 717.7549,-2448.3268 627.7549,-2448.3268 627.7549,-2448.3268 621.7549,-2448.3268 615.7549,-2442.3268 615.7549,-2436.3268 615.7549,-2436.3268 615.7549,-2388.3268 615.7549,-2388.3268 615.7549,-2382.3268 621.7549,-2376.3268 627.7549,-2376.3268"/>
<text text-anchor="middle" x="672.7549" y="-2435.5268" font-family="Times,serif" font-size="11.00" fill="#c0c0c0">Results</text>
</g>
<g id="clust14" class="cluster">
<title>cluster_\Firesphere\SolrSearch\Services</title>
<path fill="none" stroke="#c0c0c0" d="M617.7549,-2108.3268C617.7549,-2108.3268 727.7549,-2108.3268 727.7549,-2108.3268 733.7549,-2108.3268 739.7549,-2114.3268 739.7549,-2120.3268 739.7549,-2120.3268 739.7549,-2222.3268 739.7549,-2222.3268 739.7549,-2228.3268 733.7549,-2234.3268 727.7549,-2234.3268 727.7549,-2234.3268 617.7549,-2234.3268 617.7549,-2234.3268 611.7549,-2234.3268 605.7549,-2228.3268 605.7549,-2222.3268 605.7549,-2222.3268 605.7549,-2120.3268 605.7549,-2120.3268 605.7549,-2114.3268 611.7549,-2108.3268 617.7549,-2108.3268"/>
<text text-anchor="middle" x="672.7549" y="-2221.5268" font-family="Times,serif" font-size="11.00" fill="#c0c0c0">Services</text>
</g>
<g id="clust15" class="cluster">
<title>cluster_\Firesphere\SolrSearch\Stores</title>
<path fill="none" stroke="#c0c0c0" d="M617.7549,-2242.3268C617.7549,-2242.3268 727.7549,-2242.3268 727.7549,-2242.3268 733.7549,-2242.3268 739.7549,-2248.3268 739.7549,-2254.3268 739.7549,-2254.3268 739.7549,-2356.3268 739.7549,-2356.3268 739.7549,-2362.3268 733.7549,-2368.3268 727.7549,-2368.3268 727.7549,-2368.3268 617.7549,-2368.3268 617.7549,-2368.3268 611.7549,-2368.3268 605.7549,-2362.3268 605.7549,-2356.3268 605.7549,-2356.3268 605.7549,-2254.3268 605.7549,-2254.3268 605.7549,-2248.3268 611.7549,-2242.3268 617.7549,-2242.3268"/>
<text text-anchor="middle" x="672.7549" y="-2355.5268" font-family="Times,serif" font-size="11.00" fill="#c0c0c0">Stores</text>
</g>
<g id="clust16" class="cluster">
<title>cluster_\Firesphere\SolrSearch\States</title>
<path fill="none" stroke="#c0c0c0" d="M634.7549,-2028.3268C634.7549,-2028.3268 710.7549,-2028.3268 710.7549,-2028.3268 716.7549,-2028.3268 722.7549,-2034.3268 722.7549,-2040.3268 722.7549,-2040.3268 722.7549,-2088.3268 722.7549,-2088.3268 722.7549,-2094.3268 716.7549,-2100.3268 710.7549,-2100.3268 710.7549,-2100.3268 634.7549,-2100.3268 634.7549,-2100.3268 628.7549,-2100.3268 622.7549,-2094.3268 622.7549,-2088.3268 622.7549,-2088.3268 622.7549,-2040.3268 622.7549,-2040.3268 622.7549,-2034.3268 628.7549,-2028.3268 634.7549,-2028.3268"/>
<text text-anchor="middle" x="672.7549" y="-2087.5268" font-family="Times,serif" font-size="11.00" fill="#c0c0c0">States</text>
</g>
<g id="clust17" class="cluster">
<title>cluster_\Firesphere\SolrSearch\Helpers</title>
<path fill="none" stroke="#c0c0c0" d="M624.7549,-1732.3268C624.7549,-1732.3268 720.7549,-1732.3268 720.7549,-1732.3268 726.7549,-1732.3268 732.7549,-1738.3268 732.7549,-1744.3268 732.7549,-1744.3268 732.7549,-2008.3268 732.7549,-2008.3268 732.7549,-2014.3268 726.7549,-2020.3268 720.7549,-2020.3268 720.7549,-2020.3268 624.7549,-2020.3268 624.7549,-2020.3268 618.7549,-2020.3268 612.7549,-2014.3268 612.7549,-2008.3268 612.7549,-2008.3268 612.7549,-1744.3268 612.7549,-1744.3268 612.7549,-1738.3268 618.7549,-1732.3268 624.7549,-1732.3268"/>
<text text-anchor="middle" x="672.7549" y="-2007.5268" font-family="Times,serif" font-size="11.00" fill="#c0c0c0">Helpers</text>
</g>
<g id="clust18" class="cluster">
<title>cluster_\Firesphere\SolrSearch\Tasks</title>
<path fill="none" stroke="#c0c0c0" d="M597.7549,-1544.3268C597.7549,-1544.3268 747.7549,-1544.3268 747.7549,-1544.3268 753.7549,-1544.3268 759.7549,-1550.3268 759.7549,-1556.3268 759.7549,-1556.3268 759.7549,-1712.3268 759.7549,-1712.3268 759.7549,-1718.3268 753.7549,-1724.3268 747.7549,-1724.3268 747.7549,-1724.3268 597.7549,-1724.3268 597.7549,-1724.3268 591.7549,-1724.3268 585.7549,-1718.3268 585.7549,-1712.3268 585.7549,-1712.3268 585.7549,-1556.3268 585.7549,-1556.3268 585.7549,-1550.3268 591.7549,-1544.3268 597.7549,-1544.3268"/>
<text text-anchor="middle" x="672.7549" y="-1711.5268" font-family="Times,serif" font-size="11.00" fill="#c0c0c0">Tasks</text>
</g>
<g id="clust19" class="cluster">
<title>cluster_\Firesphere\SolrSearch\Forms</title>
<path fill="none" stroke="#c0c0c0" d="M634.7549,-1464.3268C634.7549,-1464.3268 710.7549,-1464.3268 710.7549,-1464.3268 716.7549,-1464.3268 722.7549,-1470.3268 722.7549,-1476.3268 722.7549,-1476.3268 722.7549,-1524.3268 722.7549,-1524.3268 722.7549,-1530.3268 716.7549,-1536.3268 710.7549,-1536.3268 710.7549,-1536.3268 634.7549,-1536.3268 634.7549,-1536.3268 628.7549,-1536.3268 622.7549,-1530.3268 622.7549,-1524.3268 622.7549,-1524.3268 622.7549,-1476.3268 622.7549,-1476.3268 622.7549,-1470.3268 628.7549,-1464.3268 634.7549,-1464.3268"/>
<text text-anchor="middle" x="672.7549" y="-1523.5268" font-family="Times,serif" font-size="11.00" fill="#c0c0c0">Forms</text>
</g>
<g id="clust20" class="cluster">
<title>cluster_\Firesphere\SolrSearch\Models</title>
<path fill="none" stroke="#c0c0c0" d="M624.7549,-1276.3268C624.7549,-1276.3268 720.7549,-1276.3268 720.7549,-1276.3268 726.7549,-1276.3268 732.7549,-1282.3268 732.7549,-1288.3268 732.7549,-1288.3268 732.7549,-1444.3268 732.7549,-1444.3268 732.7549,-1450.3268 726.7549,-1456.3268 720.7549,-1456.3268 720.7549,-1456.3268 624.7549,-1456.3268 624.7549,-1456.3268 618.7549,-1456.3268 612.7549,-1450.3268 612.7549,-1444.3268 612.7549,-1444.3268 612.7549,-1288.3268 612.7549,-1288.3268 612.7549,-1282.3268 618.7549,-1276.3268 624.7549,-1276.3268"/>
<text text-anchor="middle" x="672.7549" y="-1443.5268" font-family="Times,serif" font-size="11.00" fill="#c0c0c0">Models</text>
</g>
<g id="clust21" class="cluster">
<title>cluster_\Firesphere\SolrSearch\Factories</title>
<path fill="none" stroke="#c0c0c0" d="M597.7549,-1142.3268C597.7549,-1142.3268 747.7549,-1142.3268 747.7549,-1142.3268 753.7549,-1142.3268 759.7549,-1148.3268 759.7549,-1154.3268 759.7549,-1154.3268 759.7549,-1256.3268 759.7549,-1256.3268 759.7549,-1262.3268 753.7549,-1268.3268 747.7549,-1268.3268 747.7549,-1268.3268 597.7549,-1268.3268 597.7549,-1268.3268 591.7549,-1268.3268 585.7549,-1262.3268 585.7549,-1256.3268 585.7549,-1256.3268 585.7549,-1154.3268 585.7549,-1154.3268 585.7549,-1148.3268 591.7549,-1142.3268 597.7549,-1142.3268"/>
<text text-anchor="middle" x="672.7549" y="-1255.5268" font-family="Times,serif" font-size="11.00" fill="#c0c0c0">Factories</text>
</g>
<g id="clust22" class="cluster">
<title>cluster_\Firesphere\SolrSearch\Extensions</title>
<path fill="none" stroke="#c0c0c0" d="M604.2549,-1008.3268C604.2549,-1008.3268 741.2549,-1008.3268 741.2549,-1008.3268 747.2549,-1008.3268 753.2549,-1014.3268 753.2549,-1020.3268 753.2549,-1020.3268 753.2549,-1122.3268 753.2549,-1122.3268 753.2549,-1128.3268 747.2549,-1134.3268 741.2549,-1134.3268 741.2549,-1134.3268 604.2549,-1134.3268 604.2549,-1134.3268 598.2549,-1134.3268 592.2549,-1128.3268 592.2549,-1122.3268 592.2549,-1122.3268 592.2549,-1020.3268 592.2549,-1020.3268 592.2549,-1014.3268 598.2549,-1008.3268 604.2549,-1008.3268"/>
<text text-anchor="middle" x="672.7549" y="-1121.5268" font-family="Times,serif" font-size="11.00" fill="#c0c0c0">Extensions</text>
</g>
<g id="clust23" class="cluster">
<title>cluster_\Firesphere\SolrSearch\Admins</title>
<path fill="none" stroke="#c0c0c0" d="M631.2549,-928.3268C631.2549,-928.3268 714.2549,-928.3268 714.2549,-928.3268 720.2549,-928.3268 726.2549,-934.3268 726.2549,-940.3268 726.2549,-940.3268 726.2549,-988.3268 726.2549,-988.3268 726.2549,-994.3268 720.2549,-1000.3268 714.2549,-1000.3268 714.2549,-1000.3268 631.2549,-1000.3268 631.2549,-1000.3268 625.2549,-1000.3268 619.2549,-994.3268 619.2549,-988.3268 619.2549,-988.3268 619.2549,-940.3268 619.2549,-940.3268 619.2549,-934.3268 625.2549,-928.3268 631.2549,-928.3268"/>
<text text-anchor="middle" x="672.7549" y="-987.5268" font-family="Times,serif" font-size="11.00" fill="#c0c0c0">Admins</text>
</g>
<g id="clust24" class="cluster">
<title>cluster_\Firesphere\SolrSearch\Jobs</title>
<path fill="none" stroke="#c0c0c0" d="M600.7549,-740.3268C600.7549,-740.3268 744.7549,-740.3268 744.7549,-740.3268 750.7549,-740.3268 756.7549,-746.3268 756.7549,-752.3268 756.7549,-752.3268 756.7549,-908.3268 756.7549,-908.3268 756.7549,-914.3268 750.7549,-920.3268 744.7549,-920.3268 744.7549,-920.3268 600.7549,-920.3268 600.7549,-920.3268 594.7549,-920.3268 588.7549,-914.3268 588.7549,-908.3268 588.7549,-908.3268 588.7549,-752.3268 588.7549,-752.3268 588.7549,-746.3268 594.7549,-740.3268 600.7549,-740.3268"/>
<text text-anchor="middle" x="672.7549" y="-907.5268" font-family="Times,serif" font-size="11.00" fill="#c0c0c0">Jobs</text>
</g>
<g id="clust25" class="cluster">
<title>cluster_\Firesphere\SolrSearch\Queries</title>
<path fill="none" stroke="#c0c0c0" d="M638.2549,-660.3268C638.2549,-660.3268 707.2549,-660.3268 707.2549,-660.3268 713.2549,-660.3268 719.2549,-666.3268 719.2549,-672.3268 719.2549,-672.3268 719.2549,-720.3268 719.2549,-720.3268 719.2549,-726.3268 713.2549,-732.3268 707.2549,-732.3268 707.2549,-732.3268 638.2549,-732.3268 638.2549,-732.3268 632.2549,-732.3268 626.2549,-726.3268 626.2549,-720.3268 626.2549,-720.3268 626.2549,-672.3268 626.2549,-672.3268 626.2549,-666.3268 632.2549,-660.3268 638.2549,-660.3268"/>
<text text-anchor="middle" x="672.7549" y="-719.5268" font-family="Times,serif" font-size="11.00" fill="#c0c0c0">Queries</text>
</g>
<g id="clust26" class="cluster">
<title>cluster_\Firesphere\SolrSearch\Fluent</title>
<path fill="none" stroke="#c0c0c0" d="M617.7549,-580.3268C617.7549,-580.3268 727.7549,-580.3268 727.7549,-580.3268 733.7549,-580.3268 739.7549,-586.3268 739.7549,-592.3268 739.7549,-592.3268 739.7549,-640.3268 739.7549,-640.3268 739.7549,-646.3268 733.7549,-652.3268 727.7549,-652.3268 727.7549,-652.3268 617.7549,-652.3268 617.7549,-652.3268 611.7549,-652.3268 605.7549,-646.3268 605.7549,-640.3268 605.7549,-640.3268 605.7549,-592.3268 605.7549,-592.3268 605.7549,-586.3268 611.7549,-580.3268 617.7549,-580.3268"/>
<text text-anchor="middle" x="672.7549" y="-639.5268" font-family="Times,serif" font-size="11.00" fill="#c0c0c0">Fluent</text>
</g>
<g id="clust27" class="cluster">
<title>cluster_\Firesphere\SolrSearch\Subsites</title>
<path fill="none" stroke="#c0c0c0" d="M611.2549,-500.3268C611.2549,-500.3268 734.2549,-500.3268 734.2549,-500.3268 740.2549,-500.3268 746.2549,-506.3268 746.2549,-512.3268 746.2549,-512.3268 746.2549,-560.3268 746.2549,-560.3268 746.2549,-566.3268 740.2549,-572.3268 734.2549,-572.3268 734.2549,-572.3268 611.2549,-572.3268 611.2549,-572.3268 605.2549,-572.3268 599.2549,-566.3268 599.2549,-560.3268 599.2549,-560.3268 599.2549,-512.3268 599.2549,-512.3268 599.2549,-506.3268 605.2549,-500.3268 611.2549,-500.3268"/>
<text text-anchor="middle" x="672.7549" y="-559.5268" font-family="Times,serif" font-size="11.00" fill="#c0c0c0">Subsites</text>
</g>
<!-- \\SilverStripe\\FullTextSearch\\Search\\Queries\\SearchQuery -->
<g id="node1" class="node">
<title>\\SilverStripe\\FullTextSearch\\Search\\Queries\\SearchQuery</title>
<polygon fill="none" stroke="#000000" points="928.2549,-1673.3268 837.2549,-1673.3268 837.2549,-1637.3268 928.2549,-1637.3268 928.2549,-1673.3268"/>
<text text-anchor="middle" x="882.7549" y="-1652.5268" font-family="Courier,monospace" font-size="11.00" fill="#000000">SearchQuery</text>
</g>
<!-- \\Firesphere\\SolrSearch\\Queries\\BaseQuery -->
<g id="node49" class="node">
<title>\\Firesphere\\SolrSearch\\Queries\\BaseQuery</title>
<polygon fill="none" stroke="#000000" points="711.2549,-704.3268 634.2549,-704.3268 634.2549,-668.3268 711.2549,-668.3268 711.2549,-704.3268"/>
<text text-anchor="middle" x="672.7549" y="-683.5268" font-family="Courier,monospace" font-size="11.00" fill="#000000">BaseQuery</text>
</g>
<!-- \\SilverStripe\\FullTextSearch\\Search\\Queries\\SearchQuery&#45;&gt;\\Firesphere\\SolrSearch\\Queries\\BaseQuery -->
<g id="edge1" class="edge">
<title>\\SilverStripe\\FullTextSearch\\Search\\Queries\\SearchQuery&#45;&gt;\\Firesphere\\SolrSearch\\Queries\\BaseQuery</title>
<path fill="none" stroke="#000000" d="M837.1984,-1642.8444C824.7445,-1637.1386 812.6543,-1628.9593 805.2549,-1617.3268 778.9813,-1576.0225 816.5622,-776.9551 789.2549,-736.3268 773.9856,-713.6089 746.0576,-701.1636 721.3738,-694.3716"/>
<polygon fill="none" stroke="#000000" points="721.9481,-690.9074 711.3975,-691.874 720.2481,-697.6978 721.9481,-690.9074"/>
</g>
<!-- \\SilverStripe\\FullTextSearch\\Solr\\Solr -->
<g id="node2" class="node">
<title>\\SilverStripe\\FullTextSearch\\Solr\\Solr</title>
<polygon fill="none" stroke="#000000" points="909.7549,-1585.3268 855.7549,-1585.3268 855.7549,-1549.3268 909.7549,-1549.3268 909.7549,-1585.3268"/>
<text text-anchor="middle" x="882.7549" y="-1564.5268" font-family="Courier,monospace" font-size="11.00" fill="#000000">Solr</text>
</g>
<!-- \\SilverStripe\\FullTextSearch\\Solr\\SolrIndex -->
<g id="node3" class="node">
<title>\\SilverStripe\\FullTextSearch\\Solr\\SolrIndex</title>
<polygon fill="none" stroke="#000000" points="924.7549,-1531.3268 840.7549,-1531.3268 840.7549,-1495.3268 924.7549,-1495.3268 924.7549,-1531.3268"/>
<text text-anchor="start" x="848.7549" y="-1516.5268" font-family="Courier,monospace" font-size="11.00" fill="#000000">«abstract»</text>
<text text-anchor="start" x="852.2549" y="-1504.5268" font-family="Courier,monospace" font-size="11.00" fill="#000000">SolrIndex</text>
</g>
<!-- \\Firesphere\\SolrSearch\\Indexes\\BaseIndex -->
<g id="node22" class="node">
<title>\\Firesphere\\SolrSearch\\Indexes\\BaseIndex</title>
<polygon fill="none" stroke="#000000" points="714.7549,-2500.3268 630.7549,-2500.3268 630.7549,-2464.3268 714.7549,-2464.3268 714.7549,-2500.3268"/>
<text text-anchor="start" x="638.7549" y="-2485.5268" font-family="Courier,monospace" font-size="11.00" fill="#000000">«abstract»</text>
<text text-anchor="start" x="642.2549" y="-2473.5268" font-family="Courier,monospace" font-size="11.00" fill="#000000">BaseIndex</text>
</g>
<!-- \\SilverStripe\\FullTextSearch\\Solr\\SolrIndex&#45;&gt;\\Firesphere\\SolrSearch\\Indexes\\BaseIndex -->
<g id="edge3" class="edge">
<title>\\SilverStripe\\FullTextSearch\\Solr\\SolrIndex&#45;&gt;\\Firesphere\\SolrSearch\\Indexes\\BaseIndex</title>
<path fill="none" stroke="#000000" d="M840.3936,-1518.4435C826.9898,-1522.2739 813.5257,-1528.9006 805.2549,-1540.3268 775.5417,-1581.3759 820.6496,-2412.549 789.2549,-2452.3268 774.0949,-2471.5349 748.4096,-2479.445 725.0084,-2482.3752"/>
<polygon fill="none" stroke="#000000" points="724.4243,-2478.9154 714.8111,-2483.3693 725.1036,-2485.8824 724.4243,-2478.9154"/>
</g>
<!-- \\Firesphere\\SolrSearch\\Compat\\FulltextSearchExtension -->
<g id="node4" class="node">
<title>\\Firesphere\\SolrSearch\\Compat\\FulltextSearchExtension</title>
<polygon fill="none" stroke="#000000" points="758.7549,-3416.3268 586.7549,-3416.3268 586.7549,-3380.3268 758.7549,-3380.3268 758.7549,-3416.3268"/>
<text text-anchor="middle" x="672.7549" y="-3395.5268" font-family="Courier,monospace" font-size="11.00" fill="#000000">FulltextSearchExtension</text>
</g>
<!-- \\SilverStripe\\Core\\Extension -->
<g id="node52" class="node">
<title>\\SilverStripe\\Core\\Extension</title>
<ellipse fill="none" stroke="#000000" cx="254.1275" cy="-180.3268" rx="144.0747" ry="18"/>
<text text-anchor="middle" x="254.1275" y="-176.6268" font-family="Times,serif" font-size="14.00" fill="#c0c0c0">\SilverStripe\Core\Extension</text>
</g>
<!-- \\Firesphere\\SolrSearch\\Compat\\FulltextSearchExtension&#45;&gt;\\SilverStripe\\Core\\Extension -->
<g id="edge2" class="edge">
<title>\\Firesphere\\SolrSearch\\Compat\\FulltextSearchExtension&#45;&gt;\\SilverStripe\\Core\\Extension</title>
<path fill="none" stroke="#000000" d="M586.4531,-3381.4974C581.065,-3377.886 576.2245,-3373.5433 572.2549,-3368.3268 465.889,-3228.5477 627.0279,-336.7288 508.2549,-207.3268 466.3676,-161.691 394.5819,-157.8021 337.9686,-163.698"/>
<polygon fill="none" stroke="#000000" points="337.4759,-160.2316 327.945,-164.8589 338.2813,-167.1851 337.4759,-160.2316"/>
</g>
<!-- \\Firesphere\\SolrSearch\\Interfaces\\SiteStateInterface -->
<g id="node5" class="node">
<title>\\Firesphere\\SolrSearch\\Interfaces\\SiteStateInterface</title>
<polygon fill="none" stroke="#000000" points="323.1275,-2367.3268 185.1275,-2367.3268 185.1275,-2331.3268 323.1275,-2331.3268 323.1275,-2367.3268"/>
<text text-anchor="middle" x="254.1275" y="-2346.5268" font-family="Courier,monospace" font-size="11.00" fill="#000000">SiteStateInterface</text>
</g>
<!-- \\Firesphere\\SolrSearch\\Interfaces\\ConfigStore -->
<g id="node6" class="node">
<title>\\Firesphere\\SolrSearch\\Interfaces\\ConfigStore</title>
<polygon fill="none" stroke="#000000" points="299.6275,-2313.3268 208.6275,-2313.3268 208.6275,-2277.3268 299.6275,-2277.3268 299.6275,-2313.3268"/>
<text text-anchor="middle" x="254.1275" y="-2292.5268" font-family="Courier,monospace" font-size="11.00" fill="#000000">ConfigStore</text>
</g>
<!-- \\Firesphere\\SolrSearch\\Traits\\GetSetSearchResolverTrait -->
<g id="node7" class="node">
<title>\\Firesphere\\SolrSearch\\Traits\\GetSetSearchResolverTrait</title>
<polygon fill="none" stroke="#000000" points="765.2549,-3336.3268 580.2549,-3336.3268 580.2549,-3300.3268 765.2549,-3300.3268 765.2549,-3336.3268"/>
<text text-anchor="middle" x="672.7549" y="-3315.5268" font-family="Courier,monospace" font-size="11.00" fill="#000000">GetSetSearchResolverTrait</text>
</g>
<!-- \\Firesphere\\SolrSearch\\Traits\\GetSetSchemaServiceTrait -->
<g id="node8" class="node">
<title>\\Firesphere\\SolrSearch\\Traits\\GetSetSchemaServiceTrait</title>
<polygon fill="none" stroke="#000000" points="762.2549,-3282.3268 583.2549,-3282.3268 583.2549,-3246.3268 762.2549,-3246.3268 762.2549,-3282.3268"/>
<text text-anchor="middle" x="672.7549" y="-3261.5268" font-family="Courier,monospace" font-size="11.00" fill="#000000">GetSetSchemaServiceTrait</text>
</g>
<!-- \\Firesphere\\SolrSearch\\Traits\\DataResolveTrait -->
<g id="node9" class="node">
<title>\\Firesphere\\SolrSearch\\Traits\\DataResolveTrait</title>
<polygon fill="none" stroke="#000000" points="735.2549,-3228.3268 610.2549,-3228.3268 610.2549,-3192.3268 735.2549,-3192.3268 735.2549,-3228.3268"/>
<text text-anchor="middle" x="672.7549" y="-3207.5268" font-family="Courier,monospace" font-size="11.00" fill="#000000">DataResolveTrait</text>
</g>
<!-- \\Firesphere\\SolrSearch\\Traits\\GetterSetterTrait -->
<g id="node10" class="node">
<title>\\Firesphere\\SolrSearch\\Traits\\GetterSetterTrait</title>
<polygon fill="none" stroke="#000000" points="738.2549,-3174.3268 607.2549,-3174.3268 607.2549,-3138.3268 738.2549,-3138.3268 738.2549,-3174.3268"/>
<text text-anchor="middle" x="672.7549" y="-3153.5268" font-family="Courier,monospace" font-size="11.00" fill="#000000">GetterSetterTrait</text>
</g>
<!-- \\Firesphere\\SolrSearch\\Traits\\LoggerTrait -->
<g id="node11" class="node">
<title>\\Firesphere\\SolrSearch\\Traits\\LoggerTrait</title>
<polygon fill="none" stroke="#000000" points="718.2549,-3120.3268 627.2549,-3120.3268 627.2549,-3084.3268 718.2549,-3084.3268 718.2549,-3120.3268"/>
<text text-anchor="middle" x="672.7549" y="-3099.5268" font-family="Courier,monospace" font-size="11.00" fill="#000000">LoggerTrait</text>
</g>
<!-- \\Firesphere\\SolrSearch\\Traits\\CoreAdminTrait -->
<g id="node12" class="node">
<title>\\Firesphere\\SolrSearch\\Traits\\CoreAdminTrait</title>
<polygon fill="none" stroke="#000000" points="728.2549,-3066.3268 617.2549,-3066.3268 617.2549,-3030.3268 728.2549,-3030.3268 728.2549,-3066.3268"/>
<text text-anchor="middle" x="672.7549" y="-3045.5268" font-family="Courier,monospace" font-size="11.00" fill="#000000">CoreAdminTrait</text>
</g>
<!-- \\Firesphere\\SolrSearch\\Traits\\CoreServiceTrait -->
<g id="node13" class="node">
<title>\\Firesphere\\SolrSearch\\Traits\\CoreServiceTrait</title>
<polygon fill="none" stroke="#000000" points="735.2549,-3012.3268 610.2549,-3012.3268 610.2549,-2976.3268 735.2549,-2976.3268 735.2549,-3012.3268"/>
<text text-anchor="middle" x="672.7549" y="-2991.5268" font-family="Courier,monospace" font-size="11.00" fill="#000000">CoreServiceTrait</text>
</g>
<!-- \\Firesphere\\SolrSearch\\Traits\\BaseQueryTrait -->
<g id="node14" class="node">
<title>\\Firesphere\\SolrSearch\\Traits\\BaseQueryTrait</title>
<polygon fill="none" stroke="#000000" points="728.2549,-2958.3268 617.2549,-2958.3268 617.2549,-2922.3268 728.2549,-2922.3268 728.2549,-2958.3268"/>
<text text-anchor="middle" x="672.7549" y="-2937.5268" font-family="Courier,monospace" font-size="11.00" fill="#000000">BaseQueryTrait</text>
</g>
<!-- \\Firesphere\\SolrSearch\\Traits\\SearchResultSetTrait -->
<g id="node15" class="node">
<title>\\Firesphere\\SolrSearch\\Traits\\SearchResultSetTrait</title>
<polygon fill="none" stroke="#000000" points="748.7549,-2904.3268 596.7549,-2904.3268 596.7549,-2868.3268 748.7549,-2868.3268 748.7549,-2904.3268"/>
<text text-anchor="middle" x="672.7549" y="-2883.5268" font-family="Courier,monospace" font-size="11.00" fill="#000000">SearchResultSetTrait</text>
</g>
<!-- \\Firesphere\\SolrSearch\\Traits\\SearchResultGetTrait -->
<g id="node16" class="node">
<title>\\Firesphere\\SolrSearch\\Traits\\SearchResultGetTrait</title>
<polygon fill="none" stroke="#000000" points="748.7549,-2850.3268 596.7549,-2850.3268 596.7549,-2814.3268 748.7549,-2814.3268 748.7549,-2850.3268"/>
<text text-anchor="middle" x="672.7549" y="-2829.5268" font-family="Courier,monospace" font-size="11.00" fill="#000000">SearchResultGetTrait</text>
</g>
<!-- \\Firesphere\\SolrSearch\\Traits\\QueryComponentFacetTrait -->
<g id="node17" class="node">
<title>\\Firesphere\\SolrSearch\\Traits\\QueryComponentFacetTrait</title>
<polygon fill="none" stroke="#000000" points="762.2549,-2796.3268 583.2549,-2796.3268 583.2549,-2760.3268 762.2549,-2760.3268 762.2549,-2796.3268"/>
<text text-anchor="middle" x="672.7549" y="-2775.5268" font-family="Courier,monospace" font-size="11.00" fill="#000000">QueryComponentFacetTrait</text>
</g>
<!-- \\Firesphere\\SolrSearch\\Traits\\QueryComponentBoostTrait -->
<g id="node18" class="node">
<title>\\Firesphere\\SolrSearch\\Traits\\QueryComponentBoostTrait</title>
<polygon fill="none" stroke="#000000" points="762.2549,-2742.3268 583.2549,-2742.3268 583.2549,-2706.3268 762.2549,-2706.3268 762.2549,-2742.3268"/>
<text text-anchor="middle" x="672.7549" y="-2721.5268" font-family="Courier,monospace" font-size="11.00" fill="#000000">QueryComponentBoostTrait</text>
</g>
<!-- \\Firesphere\\SolrSearch\\Traits\\QueryComponentFilterTrait -->
<g id="node19" class="node">
<title>\\Firesphere\\SolrSearch\\Traits\\QueryComponentFilterTrait</title>
<polygon fill="none" stroke="#000000" points="765.2549,-2688.3268 580.2549,-2688.3268 580.2549,-2652.3268 765.2549,-2652.3268 765.2549,-2688.3268"/>
<text text-anchor="middle" x="672.7549" y="-2667.5268" font-family="Courier,monospace" font-size="11.00" fill="#000000">QueryComponentFilterTrait</text>
</g>
<!-- \\Firesphere\\SolrSearch\\Traits\\DocumentFactoryTrait -->
<g id="node20" class="node">
<title>\\Firesphere\\SolrSearch\\Traits\\DocumentFactoryTrait</title>
<polygon fill="none" stroke="#000000" points="748.7549,-2634.3268 596.7549,-2634.3268 596.7549,-2598.3268 748.7549,-2598.3268 748.7549,-2634.3268"/>
<text text-anchor="middle" x="672.7549" y="-2613.5268" font-family="Courier,monospace" font-size="11.00" fill="#000000">DocumentFactoryTrait</text>
</g>
<!-- \\Firesphere\\SolrSearch\\Traits\\BaseIndexTrait -->
<g id="node21" class="node">
<title>\\Firesphere\\SolrSearch\\Traits\\BaseIndexTrait</title>
<polygon fill="none" stroke="#000000" points="728.2549,-2580.3268 617.2549,-2580.3268 617.2549,-2544.3268 728.2549,-2544.3268 728.2549,-2580.3268"/>
<text text-anchor="middle" x="672.7549" y="-2559.5268" font-family="Courier,monospace" font-size="11.00" fill="#000000">BaseIndexTrait</text>
</g>
<!-- \\Firesphere\\SolrSearch\\Results\\SearchResult -->
<g id="node23" class="node">
<title>\\Firesphere\\SolrSearch\\Results\\SearchResult</title>
<polygon fill="none" stroke="#000000" points="721.7549,-2420.3268 623.7549,-2420.3268 623.7549,-2384.3268 721.7549,-2384.3268 721.7549,-2420.3268"/>
<text text-anchor="middle" x="672.7549" y="-2399.5268" font-family="Courier,monospace" font-size="11.00" fill="#000000">SearchResult</text>
</g>
<!-- \\Firesphere\\SolrSearch\\Services\\SchemaService -->
<g id="node24" class="node">
<title>\\Firesphere\\SolrSearch\\Services\\SchemaService</title>
<polygon fill="none" stroke="#000000" points="724.7549,-2206.3268 620.7549,-2206.3268 620.7549,-2170.3268 724.7549,-2170.3268 724.7549,-2206.3268"/>
<text text-anchor="middle" x="672.7549" y="-2185.5268" font-family="Courier,monospace" font-size="11.00" fill="#000000">SchemaService</text>
</g>
<!-- \\SilverStripe\\View\\ViewableData -->
<g id="node53" class="node">
<title>\\SilverStripe\\View\\ViewableData</title>
<ellipse fill="none" stroke="#000000" cx="254.1275" cy="-450.3268" rx="163.2712" ry="18"/>
<text text-anchor="middle" x="254.1275" y="-446.6268" font-family="Times,serif" font-size="14.00" fill="#c0c0c0">\SilverStripe\View\ViewableData</text>
</g>
<!-- \\Firesphere\\SolrSearch\\Services\\SchemaService&#45;&gt;\\SilverStripe\\View\\ViewableData -->
<g id="edge4" class="edge">
<title>\\Firesphere\\SolrSearch\\Services\\SchemaService&#45;&gt;\\SilverStripe\\View\\ViewableData</title>
<path fill="none" stroke="#000000" d="M620.7236,-2185.4088C603.0774,-2181.8254 584.7019,-2174.7931 572.2549,-2161.3268 331.6086,-1900.9741 264.8256,-680.0614 255.3719,-478.5288"/>
<polygon fill="none" stroke="#000000" points="258.8643,-478.2808 254.9076,-468.4525 251.8717,-478.603 258.8643,-478.2808"/>
</g>
<!-- \\Firesphere\\SolrSearch\\Services\\SolrCoreService -->
<g id="node25" class="node">
<title>\\Firesphere\\SolrSearch\\Services\\SolrCoreService</title>
<polygon fill="none" stroke="#000000" points="731.7549,-2152.3268 613.7549,-2152.3268 613.7549,-2116.3268 731.7549,-2116.3268 731.7549,-2152.3268"/>
<text text-anchor="middle" x="672.7549" y="-2131.5268" font-family="Courier,monospace" font-size="11.00" fill="#000000">SolrCoreService</text>
</g>
<!-- \\Firesphere\\SolrSearch\\Stores\\FileConfigStore -->
<g id="node26" class="node">
<title>\\Firesphere\\SolrSearch\\Stores\\FileConfigStore</title>
<polygon fill="none" stroke="#000000" points="731.7549,-2340.3268 613.7549,-2340.3268 613.7549,-2304.3268 731.7549,-2304.3268 731.7549,-2340.3268"/>
<text text-anchor="middle" x="672.7549" y="-2319.5268" font-family="Courier,monospace" font-size="11.00" fill="#000000">FileConfigStore</text>
</g>
<!-- \\Firesphere\\SolrSearch\\Stores\\FileConfigStore&#45;&gt;\\Firesphere\\SolrSearch\\Interfaces\\ConfigStore -->
<g id="edge5" class="edge">
<title>\\Firesphere\\SolrSearch\\Stores\\FileConfigStore&#45;&gt;\\Firesphere\\SolrSearch\\Interfaces\\ConfigStore</title>
<path fill="none" stroke="#000000" stroke-dasharray="1,5" d="M613.6637,-2318.5156C532.8854,-2313.3057 389.0185,-2304.0268 309.9722,-2298.9286"/>
<polygon fill="none" stroke="#000000" points="309.9333,-2295.4189 299.7287,-2298.2679 309.4827,-2302.4044 309.9333,-2295.4189"/>
</g>
<!-- \\Firesphere\\SolrSearch\\Stores\\PostConfigStore -->
<g id="node27" class="node">
<title>\\Firesphere\\SolrSearch\\Stores\\PostConfigStore</title>
<polygon fill="none" stroke="#000000" points="731.7549,-2286.3268 613.7549,-2286.3268 613.7549,-2250.3268 731.7549,-2250.3268 731.7549,-2286.3268"/>
<text text-anchor="middle" x="672.7549" y="-2265.5268" font-family="Courier,monospace" font-size="11.00" fill="#000000">PostConfigStore</text>
</g>
<!-- \\Firesphere\\SolrSearch\\Stores\\PostConfigStore&#45;&gt;\\Firesphere\\SolrSearch\\Interfaces\\ConfigStore -->
<g id="edge6" class="edge">
<title>\\Firesphere\\SolrSearch\\Stores\\PostConfigStore&#45;&gt;\\Firesphere\\SolrSearch\\Interfaces\\ConfigStore</title>
<path fill="none" stroke="#000000" stroke-dasharray="1,5" d="M613.6637,-2272.138C532.8854,-2277.3479 389.0185,-2286.6268 309.9722,-2291.725"/>
<polygon fill="none" stroke="#000000" points="309.4827,-2288.2492 299.7287,-2292.3857 309.9333,-2295.2347 309.4827,-2288.2492"/>
</g>
<!-- \\Firesphere\\SolrSearch\\States\\SiteState -->
<g id="node28" class="node">
<title>\\Firesphere\\SolrSearch\\States\\SiteState</title>
<polygon fill="none" stroke="#000000" points="714.7549,-2072.3268 630.7549,-2072.3268 630.7549,-2036.3268 714.7549,-2036.3268 714.7549,-2072.3268"/>
<text text-anchor="start" x="638.7549" y="-2057.5268" font-family="Courier,monospace" font-size="11.00" fill="#000000">«abstract»</text>
<text text-anchor="start" x="642.2549" y="-2045.5268" font-family="Courier,monospace" font-size="11.00" fill="#000000">SiteState</text>
</g>
<!-- \\Firesphere\\SolrSearch\\Helpers\\SolrLogger -->
<g id="node29" class="node">
<title>\\Firesphere\\SolrSearch\\Helpers\\SolrLogger</title>
<polygon fill="none" stroke="#000000" points="714.7549,-1992.3268 630.7549,-1992.3268 630.7549,-1956.3268 714.7549,-1956.3268 714.7549,-1992.3268"/>
<text text-anchor="middle" x="672.7549" y="-1971.5268" font-family="Courier,monospace" font-size="11.00" fill="#000000">SolrLogger</text>
</g>
<!-- \\Firesphere\\SolrSearch\\Helpers\\Synonyms -->
<g id="node30" class="node">
<title>\\Firesphere\\SolrSearch\\Helpers\\Synonyms</title>
<polygon fill="none" stroke="#000000" points="708.2549,-1938.3268 637.2549,-1938.3268 637.2549,-1902.3268 708.2549,-1902.3268 708.2549,-1938.3268"/>
<text text-anchor="middle" x="672.7549" y="-1917.5268" font-family="Courier,monospace" font-size="11.00" fill="#000000">Synonyms</text>
</g>
<!-- \\Firesphere\\SolrSearch\\Helpers\\FieldResolver -->
<g id="node31" class="node">
<title>\\Firesphere\\SolrSearch\\Helpers\\FieldResolver</title>
<polygon fill="none" stroke="#000000" points="724.7549,-1884.3268 620.7549,-1884.3268 620.7549,-1848.3268 724.7549,-1848.3268 724.7549,-1884.3268"/>
<text text-anchor="middle" x="672.7549" y="-1863.5268" font-family="Courier,monospace" font-size="11.00" fill="#000000">FieldResolver</text>
</g>
<!-- \\Firesphere\\SolrSearch\\Helpers\\DataResolver -->
<g id="node32" class="node">
<title>\\Firesphere\\SolrSearch\\Helpers\\DataResolver</title>
<polygon fill="none" stroke="#000000" points="721.7549,-1830.3268 623.7549,-1830.3268 623.7549,-1794.3268 721.7549,-1794.3268 721.7549,-1830.3268"/>
<text text-anchor="middle" x="672.7549" y="-1809.5268" font-family="Courier,monospace" font-size="11.00" fill="#000000">DataResolver</text>
</g>
<!-- \\Firesphere\\SolrSearch\\Helpers\\Statics -->
<g id="node33" class="node">
<title>\\Firesphere\\SolrSearch\\Helpers\\Statics</title>
<polygon fill="none" stroke="#000000" points="704.7549,-1776.3268 640.7549,-1776.3268 640.7549,-1740.3268 704.7549,-1740.3268 704.7549,-1776.3268"/>
<text text-anchor="middle" x="672.7549" y="-1755.5268" font-family="Courier,monospace" font-size="11.00" fill="#000000">Statics</text>
</g>
<!-- \\Firesphere\\SolrSearch\\Tasks\\SolrConfigureTask -->
<g id="node34" class="node">
<title>\\Firesphere\\SolrSearch\\Tasks\\SolrConfigureTask</title>
<polygon fill="none" stroke="#000000" points="738.2549,-1588.3268 607.2549,-1588.3268 607.2549,-1552.3268 738.2549,-1552.3268 738.2549,-1588.3268"/>
<text text-anchor="middle" x="672.7549" y="-1567.5268" font-family="Courier,monospace" font-size="11.00" fill="#000000">SolrConfigureTask</text>
</g>
<!-- \\SilverStripe\\Dev\\BuildTask -->
<g id="node54" class="node">
<title>\\SilverStripe\\Dev\\BuildTask</title>
<ellipse fill="none" stroke="#000000" cx="254.1275" cy="-396.3268" rx="139.9756" ry="18"/>
<text text-anchor="middle" x="254.1275" y="-392.6268" font-family="Times,serif" font-size="14.00" fill="#c0c0c0">\SilverStripe\Dev\BuildTask</text>
</g>
<!-- \\Firesphere\\SolrSearch\\Tasks\\SolrConfigureTask&#45;&gt;\\SilverStripe\\Dev\\BuildTask -->
<g id="edge7" class="edge">
<title>\\Firesphere\\SolrSearch\\Tasks\\SolrConfigureTask&#45;&gt;\\SilverStripe\\Dev\\BuildTask</title>
<path fill="none" stroke="#000000" d="M607.0749,-1563.0566C593.6702,-1558.5138 581.0067,-1551.3969 572.2549,-1540.3268 418.0601,-1345.2871 679.7374,-603.3554 508.2549,-423.3268 465.8916,-378.8523 395.0303,-374.5833 338.8813,-380.0416"/>
<polygon fill="none" stroke="#000000" points="338.4989,-376.5625 328.936,-381.1234 339.2559,-383.5214 338.4989,-376.5625"/>
</g>
<!-- \\Firesphere\\SolrSearch\\Tasks\\SolrIndexTask -->
<g id="node35" class="node">
<title>\\Firesphere\\SolrSearch\\Tasks\\SolrIndexTask</title>
<polygon fill="none" stroke="#000000" points="724.7549,-1696.3268 620.7549,-1696.3268 620.7549,-1660.3268 724.7549,-1660.3268 724.7549,-1696.3268"/>
<text text-anchor="middle" x="672.7549" y="-1675.5268" font-family="Courier,monospace" font-size="11.00" fill="#000000">SolrIndexTask</text>
</g>
<!-- \\Firesphere\\SolrSearch\\Tasks\\SolrIndexTask&#45;&gt;\\SilverStripe\\Dev\\BuildTask -->
<g id="edge8" class="edge">
<title>\\Firesphere\\SolrSearch\\Tasks\\SolrIndexTask&#45;&gt;\\SilverStripe\\Dev\\BuildTask</title>
<path fill="none" stroke="#000000" d="M620.5121,-1676.4247C602.5137,-1672.9904 583.9588,-1665.794 572.2549,-1651.3268 486.3215,-1545.1048 602.2342,-522.5011 508.2549,-423.3268 465.9346,-378.6671 394.8943,-374.4686 338.6671,-380.0006"/>
<polygon fill="none" stroke="#000000" points="338.2663,-376.5235 328.7088,-381.0957 339.0315,-383.4816 338.2663,-376.5235"/>
</g>
<!-- \\Firesphere\\SolrSearch\\Tasks\\ClearDirtyClassesTask -->
<g id="node36" class="node">
<title>\\Firesphere\\SolrSearch\\Tasks\\ClearDirtyClassesTask</title>
<polygon fill="none" stroke="#000000" points="751.7549,-1642.3268 593.7549,-1642.3268 593.7549,-1606.3268 751.7549,-1606.3268 751.7549,-1642.3268"/>
<text text-anchor="middle" x="672.7549" y="-1621.5268" font-family="Courier,monospace" font-size="11.00" fill="#000000">ClearDirtyClassesTask</text>
</g>
<!-- \\Firesphere\\SolrSearch\\Tasks\\ClearDirtyClassesTask&#45;&gt;\\SilverStripe\\Dev\\BuildTask -->
<g id="edge9" class="edge">
<title>\\Firesphere\\SolrSearch\\Tasks\\ClearDirtyClassesTask&#45;&gt;\\SilverStripe\\Dev\\BuildTask</title>
<path fill="none" stroke="#000000" d="M593.3117,-1613.6436C585.2459,-1609.6483 577.9448,-1604.3429 572.2549,-1597.3268 407.6822,-1394.3955 688.1977,-612.7625 508.2549,-423.3268 465.9534,-378.7936 395.0869,-374.5294 338.9204,-380.0045"/>
<polygon fill="none" stroke="#000000" points="338.5334,-376.5258 328.9718,-381.0894 339.2923,-383.4846 338.5334,-376.5258"/>
</g>
<!-- \\Firesphere\\SolrSearch\\Forms\\SearchForm -->
<g id="node37" class="node">
<title>\\Firesphere\\SolrSearch\\Forms\\SearchForm</title>
<polygon fill="none" stroke="#000000" points="714.7549,-1508.3268 630.7549,-1508.3268 630.7549,-1472.3268 714.7549,-1472.3268 714.7549,-1508.3268"/>
<text text-anchor="middle" x="672.7549" y="-1487.5268" font-family="Courier,monospace" font-size="11.00" fill="#000000">SearchForm</text>
</g>
<!-- \\SilverStripe\\Forms\\Form -->
<g id="node55" class="node">
<title>\\SilverStripe\\Forms\\Form</title>
<ellipse fill="none" stroke="#000000" cx="254.1275" cy="-342.3268" rx="129.1772" ry="18"/>
<text text-anchor="middle" x="254.1275" y="-338.6268" font-family="Times,serif" font-size="14.00" fill="#c0c0c0">\SilverStripe\Forms\Form</text>
</g>
<!-- \\Firesphere\\SolrSearch\\Forms\\SearchForm&#45;&gt;\\SilverStripe\\Forms\\Form -->
<g id="edge10" class="edge">
<title>\\Firesphere\\SolrSearch\\Forms\\SearchForm&#45;&gt;\\SilverStripe\\Forms\\Form</title>
<path fill="none" stroke="#000000" d="M630.5637,-1488.6284C609.7074,-1485.4361 586.1003,-1477.8153 572.2549,-1460.3268 421.5077,-1269.9144 675.8787,-545.0648 508.2549,-369.3268 465.3558,-324.3511 393.3084,-320.5136 336.8601,-326.2589"/>
<polygon fill="none" stroke="#000000" points="336.4132,-322.7871 326.8708,-327.3906 337.2013,-329.7426 336.4132,-322.7871"/>
</g>
<!-- \\Firesphere\\SolrSearch\\Models\\SearchSynonym -->
<g id="node38" class="node">
<title>\\Firesphere\\SolrSearch\\Models\\SearchSynonym</title>
<polygon fill="none" stroke="#000000" points="724.7549,-1428.3268 620.7549,-1428.3268 620.7549,-1392.3268 724.7549,-1392.3268 724.7549,-1428.3268"/>
<text text-anchor="middle" x="672.7549" y="-1407.5268" font-family="Courier,monospace" font-size="11.00" fill="#000000">SearchSynonym</text>
</g>
<!-- \\SilverStripe\\ORM\\DataObject -->
<g id="node56" class="node">
<title>\\SilverStripe\\ORM\\DataObject</title>
<ellipse fill="none" stroke="#000000" cx="254.1275" cy="-288.3268" rx="152.9733" ry="18"/>
<text text-anchor="middle" x="254.1275" y="-284.6268" font-family="Times,serif" font-size="14.00" fill="#c0c0c0">\SilverStripe\ORM\DataObject</text>
</g>
<!-- \\Firesphere\\SolrSearch\\Models\\SearchSynonym&#45;&gt;\\SilverStripe\\ORM\\DataObject -->
<g id="edge11" class="edge">
<title>\\Firesphere\\SolrSearch\\Models\\SearchSynonym&#45;&gt;\\SilverStripe\\ORM\\DataObject</title>
<path fill="none" stroke="#000000" d="M620.5723,-1408.3758C602.5809,-1404.9358 584.015,-1397.7483 572.2549,-1383.3268 421.9978,-1199.0656 672.4655,-487.2695 508.2549,-315.3268 466.6424,-271.755 397.669,-266.8119 342.0717,-271.7762"/>
<polygon fill="none" stroke="#000000" points="341.452,-268.321 331.8558,-272.8113 342.1577,-275.2853 341.452,-268.321"/>
</g>
<!-- \\Firesphere\\SolrSearch\\Models\\DirtyClass -->
<g id="node39" class="node">
<title>\\Firesphere\\SolrSearch\\Models\\DirtyClass</title>
<polygon fill="none" stroke="#000000" points="714.7549,-1374.3268 630.7549,-1374.3268 630.7549,-1338.3268 714.7549,-1338.3268 714.7549,-1374.3268"/>
<text text-anchor="middle" x="672.7549" y="-1353.5268" font-family="Courier,monospace" font-size="11.00" fill="#000000">DirtyClass</text>
</g>
<!-- \\Firesphere\\SolrSearch\\Models\\DirtyClass&#45;&gt;\\SilverStripe\\ORM\\DataObject -->
<g id="edge12" class="edge">
<title>\\Firesphere\\SolrSearch\\Models\\DirtyClass&#45;&gt;\\SilverStripe\\ORM\\DataObject</title>
<path fill="none" stroke="#000000" d="M630.7011,-1355.9322C609.8831,-1353.3748 586.2687,-1346.4563 572.2549,-1329.3268 429.2892,-1154.575 664.4525,-478.3596 508.2549,-315.3268 466.6455,-271.8966 397.843,-266.8913 342.3151,-271.7943"/>
<polygon fill="none" stroke="#000000" points="341.7114,-268.3372 332.1108,-272.8181 342.4103,-275.3023 341.7114,-268.3372"/>
</g>
<!-- \\Firesphere\\SolrSearch\\Models\\SolrLog -->
<g id="node40" class="node">
<title>\\Firesphere\\SolrSearch\\Models\\SolrLog</title>
<polygon fill="none" stroke="#000000" points="704.7549,-1320.3268 640.7549,-1320.3268 640.7549,-1284.3268 704.7549,-1284.3268 704.7549,-1320.3268"/>
<text text-anchor="middle" x="672.7549" y="-1299.5268" font-family="Courier,monospace" font-size="11.00" fill="#000000">SolrLog</text>
</g>
<!-- \\Firesphere\\SolrSearch\\Models\\SolrLog&#45;&gt;\\SilverStripe\\ORM\\DataObject -->
<g id="edge13" class="edge">
<title>\\Firesphere\\SolrSearch\\Models\\SolrLog&#45;&gt;\\SilverStripe\\ORM\\DataObject</title>
<path fill="none" stroke="#000000" d="M640.3134,-1301.799C617.5443,-1299.5536 588.3871,-1292.5333 572.2549,-1272.3268 439.2725,-1105.7583 655.9959,-468.9562 508.2549,-315.3268 466.6366,-272.0498 398.0054,-266.9822 342.5503,-271.8208"/>
<polygon fill="none" stroke="#000000" points="341.9638,-268.3617 332.3585,-272.8325 342.6553,-275.3275 341.9638,-268.3617"/>
</g>
<!-- \\SilverStripe\\Security\\PermissionProvider -->
<g id="node57" class="node">
<title>\\SilverStripe\\Security\\PermissionProvider</title>
<ellipse fill="none" stroke="#000000" cx="254.1275" cy="-234.3268" rx="206.0634" ry="18"/>
<text text-anchor="middle" x="254.1275" y="-230.6268" font-family="Times,serif" font-size="14.00" fill="#c0c0c0">\SilverStripe\Security\PermissionProvider</text>
</g>
<!-- \\Firesphere\\SolrSearch\\Models\\SolrLog&#45;&gt;\\SilverStripe\\Security\\PermissionProvider -->
<g id="edge14" class="edge">
<title>\\Firesphere\\SolrSearch\\Models\\SolrLog&#45;&gt;\\SilverStripe\\Security\\PermissionProvider</title>
<path fill="none" stroke="#000000" stroke-dasharray="1,5" d="M640.292,-1301.816C617.5122,-1299.5791 588.3511,-1292.562 572.2549,-1272.3268 432.1144,-1096.1507 664.0074,-423.8646 508.2549,-261.3268 468.7464,-220.0972 404.7304,-213.4997 350.8355,-217.1328"/>
<polygon fill="none" stroke="#000000" points="350.2392,-213.6692 340.5505,-217.9562 350.7979,-220.6469 350.2392,-213.6692"/>
</g>
<!-- \\Firesphere\\SolrSearch\\Factories\\DocumentFactory -->
<g id="node41" class="node">
<title>\\Firesphere\\SolrSearch\\Factories\\DocumentFactory</title>
<polygon fill="none" stroke="#000000" points="731.7549,-1240.3268 613.7549,-1240.3268 613.7549,-1204.3268 731.7549,-1204.3268 731.7549,-1240.3268"/>
<text text-anchor="middle" x="672.7549" y="-1219.5268" font-family="Courier,monospace" font-size="11.00" fill="#000000">DocumentFactory</text>
</g>
<!-- \\Firesphere\\SolrSearch\\Factories\\QueryComponentFactory -->
<g id="node42" class="node">
<title>\\Firesphere\\SolrSearch\\Factories\\QueryComponentFactory</title>
<polygon fill="none" stroke="#000000" points="751.7549,-1186.3268 593.7549,-1186.3268 593.7549,-1150.3268 751.7549,-1150.3268 751.7549,-1186.3268"/>
<text text-anchor="middle" x="672.7549" y="-1165.5268" font-family="Courier,monospace" font-size="11.00" fill="#000000">QueryComponentFactory</text>
</g>
<!-- \\Firesphere\\SolrSearch\\Extensions\\DataObjectExtension -->
<g id="node43" class="node">
<title>\\Firesphere\\SolrSearch\\Extensions\\DataObjectExtension</title>
<polygon fill="none" stroke="#000000" points="745.2549,-1052.3268 600.2549,-1052.3268 600.2549,-1016.3268 745.2549,-1016.3268 745.2549,-1052.3268"/>
<text text-anchor="middle" x="672.7549" y="-1031.5268" font-family="Courier,monospace" font-size="11.00" fill="#000000">DataObjectExtension</text>
</g>
<!-- \\SilverStripe\\ORM\\DataExtension -->
<g id="node58" class="node">
<title>\\SilverStripe\\ORM\\DataExtension</title>
<ellipse fill="none" stroke="#000000" cx="254.1275" cy="-18.3268" rx="167.8704" ry="18"/>
<text text-anchor="middle" x="254.1275" y="-14.6268" font-family="Times,serif" font-size="14.00" fill="#c0c0c0">\SilverStripe\ORM\DataExtension</text>
</g>
<!-- \\Firesphere\\SolrSearch\\Extensions\\DataObjectExtension&#45;&gt;\\SilverStripe\\ORM\\DataExtension -->
<g id="edge15" class="edge">
<title>\\Firesphere\\SolrSearch\\Extensions\\DataObjectExtension&#45;&gt;\\SilverStripe\\ORM\\DataExtension</title>
<path fill="none" stroke="#000000" d="M600.2265,-1024.3835C589.4415,-1019.8633 579.5251,-1013.4345 572.2549,-1004.3268 439.0074,-837.4025 656.2926,-199.2861 508.2549,-45.3268 467.291,-2.7243 400.1501,2.8525 345.1659,-1.599"/>
<polygon fill="none" stroke="#000000" points="344.6824,1.8712 335.0496,-2.5402 345.3309,-5.0987 344.6824,1.8712"/>
</g>
<!-- \\Firesphere\\SolrSearch\\Extensions\\GridFieldExtension -->
<g id="node44" class="node">
<title>\\Firesphere\\SolrSearch\\Extensions\\GridFieldExtension</title>
<polygon fill="none" stroke="#000000" points="741.7549,-1106.3268 603.7549,-1106.3268 603.7549,-1070.3268 741.7549,-1070.3268 741.7549,-1106.3268"/>
<text text-anchor="middle" x="672.7549" y="-1085.5268" font-family="Courier,monospace" font-size="11.00" fill="#000000">GridFieldExtension</text>
</g>
<!-- \\Firesphere\\SolrSearch\\Extensions\\GridFieldExtension&#45;&gt;\\SilverStripe\\Core\\Extension -->
<g id="edge16" class="edge">
<title>\\Firesphere\\SolrSearch\\Extensions\\GridFieldExtension&#45;&gt;\\SilverStripe\\Core\\Extension</title>
<path fill="none" stroke="#000000" d="M603.7177,-1081.7954C591.6488,-1077.5922 580.3779,-1071.1374 572.2549,-1061.3268 450.8854,-914.7413 640.7192,-343.969 508.2549,-207.3268 466.1726,-163.9172 396.886,-159.0712 341.2804,-164.0337"/>
<polygon fill="none" stroke="#000000" points="340.6632,-160.5782 331.0665,-165.0674 341.3681,-167.5427 340.6632,-160.5782"/>
</g>
<!-- \\Firesphere\\SolrSearch\\Admins\\SearchAdmin -->
<g id="node45" class="node">
<title>\\Firesphere\\SolrSearch\\Admins\\SearchAdmin</title>
<polygon fill="none" stroke="#000000" points="718.2549,-972.3268 627.2549,-972.3268 627.2549,-936.3268 718.2549,-936.3268 718.2549,-972.3268"/>
<text text-anchor="middle" x="672.7549" y="-951.5268" font-family="Courier,monospace" font-size="11.00" fill="#000000">SearchAdmin</text>
</g>
<!-- \\SilverStripe\\Admin\\ModelAdmin -->
<g id="node59" class="node">
<title>\\SilverStripe\\Admin\\ModelAdmin</title>
<ellipse fill="none" stroke="#000000" cx="254.1275" cy="-126.3268" rx="165.1707" ry="18"/>
<text text-anchor="middle" x="254.1275" y="-122.6268" font-family="Times,serif" font-size="14.00" fill="#c0c0c0">\SilverStripe\Admin\ModelAdmin</text>
</g>
<!-- \\Firesphere\\SolrSearch\\Admins\\SearchAdmin&#45;&gt;\\SilverStripe\\Admin\\ModelAdmin -->
<g id="edge17" class="edge">
<title>\\Firesphere\\SolrSearch\\Admins\\SearchAdmin&#45;&gt;\\SilverStripe\\Admin\\ModelAdmin</title>
<path fill="none" stroke="#000000" d="M627.1434,-951.8927C607.2595,-948.358 585.5079,-940.6566 572.2549,-924.3268 463.9155,-790.8354 628.4147,-276.2862 508.2549,-153.3268 467.1666,-111.2812 400.5316,-105.527 345.8028,-109.7602"/>
<polygon fill="none" stroke="#000000" points="345.3798,-106.2839 335.7311,-110.6603 346.003,-113.2561 345.3798,-106.2839"/>
</g>
<!-- \\Firesphere\\SolrSearch\\Jobs\\ClearDirtyClassesJob -->
<g id="node46" class="node">
<title>\\Firesphere\\SolrSearch\\Jobs\\ClearDirtyClassesJob</title>
<polygon fill="none" stroke="#000000" points="748.7549,-784.3268 596.7549,-784.3268 596.7549,-748.3268 748.7549,-748.3268 748.7549,-784.3268"/>
<text text-anchor="middle" x="672.7549" y="-763.5268" font-family="Courier,monospace" font-size="11.00" fill="#000000">ClearDirtyClassesJob</text>
</g>
<!-- \\Symbiote\\QueuedJobs\\Services\\AbstractQueuedJob -->
<g id="node60" class="node">
<title>\\Symbiote\\QueuedJobs\\Services\\AbstractQueuedJob</title>
<ellipse fill="none" stroke="#000000" cx="254.1275" cy="-72.3268" rx="254.255" ry="18"/>
<text text-anchor="middle" x="254.1275" y="-68.6268" font-family="Times,serif" font-size="14.00" fill="#c0c0c0">\Symbiote\QueuedJobs\Services\AbstractQueuedJob</text>
</g>
<!-- \\Firesphere\\SolrSearch\\Jobs\\ClearDirtyClassesJob&#45;&gt;\\Symbiote\\QueuedJobs\\Services\\AbstractQueuedJob -->
<g id="edge18" class="edge">
<title>\\Firesphere\\SolrSearch\\Jobs\\ClearDirtyClassesJob&#45;&gt;\\Symbiote\\QueuedJobs\\Services\\AbstractQueuedJob</title>
<path fill="none" stroke="#000000" d="M596.4691,-754.4003C587.2109,-750.046 578.7489,-744.1884 572.2549,-736.3268 481.6496,-626.6413 608.5659,-200.2126 508.2549,-99.3268 470.5688,-61.4247 412.0757,-53.2156 360.704,-55.1468"/>
<polygon fill="none" stroke="#000000" points="360.3428,-51.6605 350.5328,-55.6625 360.6973,-58.6515 360.3428,-51.6605"/>
</g>
<!-- \\Firesphere\\SolrSearch\\Jobs\\SolrIndexJob -->
<g id="node47" class="node">
<title>\\Firesphere\\SolrSearch\\Jobs\\SolrIndexJob</title>
<polygon fill="none" stroke="#000000" points="721.7549,-892.3268 623.7549,-892.3268 623.7549,-856.3268 721.7549,-856.3268 721.7549,-892.3268"/>
<text text-anchor="middle" x="672.7549" y="-871.5268" font-family="Courier,monospace" font-size="11.00" fill="#000000">SolrIndexJob</text>
</g>
<!-- \\Firesphere\\SolrSearch\\Jobs\\SolrIndexJob&#45;&gt;\\Symbiote\\QueuedJobs\\Services\\AbstractQueuedJob -->
<g id="edge19" class="edge">
<title>\\Firesphere\\SolrSearch\\Jobs\\SolrIndexJob&#45;&gt;\\Symbiote\\QueuedJobs\\Services\\AbstractQueuedJob</title>
<path fill="none" stroke="#000000" d="M623.6403,-872.7368C604.8051,-869.4993 584.8357,-862.3592 572.2549,-847.3268 465.1834,-719.3901 625.0062,-218.4958 508.2549,-99.3268 470.3405,-60.6273 410.7768,-52.7033 358.843,-55.0005"/>
<polygon fill="none" stroke="#000000" points="358.3497,-51.5229 348.5667,-55.5901 358.7508,-58.5114 358.3497,-51.5229"/>
</g>
<!-- \\Firesphere\\SolrSearch\\Jobs\\SolrConfigureJob -->
<g id="node48" class="node">
<title>\\Firesphere\\SolrSearch\\Jobs\\SolrConfigureJob</title>
<polygon fill="none" stroke="#000000" points="735.2549,-838.3268 610.2549,-838.3268 610.2549,-802.3268 735.2549,-802.3268 735.2549,-838.3268"/>
<text text-anchor="middle" x="672.7549" y="-817.5268" font-family="Courier,monospace" font-size="11.00" fill="#000000">SolrConfigureJob</text>
</g>
<!-- \\Firesphere\\SolrSearch\\Jobs\\SolrConfigureJob&#45;&gt;\\Symbiote\\QueuedJobs\\Services\\AbstractQueuedJob -->
<g id="edge20" class="edge">
<title>\\Firesphere\\SolrSearch\\Jobs\\SolrConfigureJob&#45;&gt;\\Symbiote\\QueuedJobs\\Services\\AbstractQueuedJob</title>
<path fill="none" stroke="#000000" d="M610.0736,-815.6386C595.7099,-811.5812 581.8586,-804.7253 572.2549,-793.3268 472.4631,-674.8854 617.006,-209.599 508.2549,-99.3268 470.432,-60.9748 411.3286,-52.9267 359.6357,-55.0652"/>
<polygon fill="none" stroke="#000000" points="359.1991,-51.5837 349.4044,-55.6228 359.5801,-58.5734 359.1991,-51.5837"/>
</g>
<!-- \\Firesphere\\SolrSearch\\Fluent\\FluentExtension -->
<g id="node50" class="node">
<title>\\Firesphere\\SolrSearch\\Fluent\\FluentExtension</title>
<polygon fill="none" stroke="#000000" points="731.7549,-624.3268 613.7549,-624.3268 613.7549,-588.3268 731.7549,-588.3268 731.7549,-624.3268"/>
<text text-anchor="middle" x="672.7549" y="-603.5268" font-family="Courier,monospace" font-size="11.00" fill="#000000">FluentExtension</text>
</g>
<!-- \\Firesphere\\SolrSearch\\Fluent\\FluentExtension&#45;&gt;\\SilverStripe\\Core\\Extension -->
<g id="edge21" class="edge">
<title>\\Firesphere\\SolrSearch\\Fluent\\FluentExtension&#45;&gt;\\SilverStripe\\Core\\Extension</title>
<path fill="none" stroke="#000000" d="M613.7264,-600.0783C598.2689,-595.6791 582.9559,-588.3756 572.2549,-576.3268 461.725,-451.8751 629.7644,-321.0833 508.2549,-207.3268 466.1883,-167.9443 401.3948,-161.5729 347.7627,-164.8536"/>
<polygon fill="none" stroke="#000000" points="347.2589,-161.3811 337.5412,-165.602 347.7701,-168.3624 347.2589,-161.3811"/>
</g>
<!-- \\Firesphere\\SolrSearch\\Subsites\\SubsitesExtension -->
<g id="node51" class="node">
<title>\\Firesphere\\SolrSearch\\Subsites\\SubsitesExtension</title>
<polygon fill="none" stroke="#000000" points="738.2549,-544.3268 607.2549,-544.3268 607.2549,-508.3268 738.2549,-508.3268 738.2549,-544.3268"/>
<text text-anchor="middle" x="672.7549" y="-523.5268" font-family="Courier,monospace" font-size="11.00" fill="#000000">SubsitesExtension</text>
</g>
<!-- \\Firesphere\\SolrSearch\\Subsites\\SubsitesExtension&#45;&gt;\\SilverStripe\\ORM\\DataExtension -->
<g id="edge22" class="edge">
<title>\\Firesphere\\SolrSearch\\Subsites\\SubsitesExtension&#45;&gt;\\SilverStripe\\ORM\\DataExtension</title>
<path fill="none" stroke="#000000" d="M669.255,-508.2818C653.3631,-428.2883 585.4274,-106.9154 508.2549,-45.3268 471.5859,-16.0626 421.8522,-6.3671 376.1027,-5.0674"/>
<polygon fill="none" stroke="#000000" points="376.1562,-1.5679 366.1032,-4.9125 376.0477,-8.5671 376.1562,-1.5679"/>
</g>
</g>
</svg>
