<?xml version="1.0" encoding="UTF-8" standalone="no"?>
<!DOCTYPE svg PUBLIC "-//W3C//DTD SVG 1.1//EN"
 "http://www.w3.org/Graphics/SVG/1.1/DTD/svg11.dtd">
<!-- Generated by graphviz version 2.40.1 (20161225.0304)
 -->
<!-- Title: G Pages: 1 -->
<svg width="1057pt" height="3721pt"
 viewBox="0.00 0.00 1057.25 3721.13" xmlns="http://www.w3.org/2000/svg" xmlns:xlink="http://www.w3.org/1999/xlink">
<g id="graph0" class="graph" transform="scale(1 1) rotate(0) translate(4 3717.1331)">
<title>G</title>
<polygon fill="#ffffff" stroke="transparent" points="-4,4 -4,-3717.1331 1053.2549,-3717.1331 1053.2549,4 -4,4"/>
<g id="clust1" class="cluster">
<title>cluster_Global</title>
<path fill="none" stroke="#c0c0c0" d="M165.1275,-152.8709C165.1275,-152.8709 1029.2549,-152.8709 1029.2549,-152.8709 1035.2549,-152.8709 1041.2549,-158.8709 1041.2549,-164.8709 1041.2549,-164.8709 1041.2549,-3386.8709 1041.2549,-3386.8709 1041.2549,-3392.8709 1035.2549,-3398.8709 1029.2549,-3398.8709 1029.2549,-3398.8709 165.1275,-3398.8709 165.1275,-3398.8709 159.1275,-3398.8709 153.1275,-3392.8709 153.1275,-3386.8709 153.1275,-3386.8709 153.1275,-164.8709 153.1275,-164.8709 153.1275,-158.8709 159.1275,-152.8709 165.1275,-152.8709"/>
<text text-anchor="middle" x="597.1912" y="-3386.0709" font-family="Times,serif" font-size="11.00" fill="#c0c0c0">Global</text>
</g>
<g id="clust2" class="cluster">
<title>cluster_\Firesphere</title>
<path fill="none" stroke="#c0c0c0" d="M173.1275,-160.8709C173.1275,-160.8709 1021.2549,-160.8709 1021.2549,-160.8709 1027.2549,-160.8709 1033.2549,-166.8709 1033.2549,-172.8709 1033.2549,-172.8709 1033.2549,-3036.8709 1033.2549,-3036.8709 1033.2549,-3042.8709 1027.2549,-3048.8709 1021.2549,-3048.8709 1021.2549,-3048.8709 173.1275,-3048.8709 173.1275,-3048.8709 167.1275,-3048.8709 161.1275,-3042.8709 161.1275,-3036.8709 161.1275,-3036.8709 161.1275,-172.8709 161.1275,-172.8709 161.1275,-166.8709 167.1275,-160.8709 173.1275,-160.8709"/>
<text text-anchor="middle" x="597.1912" y="-3036.0709" font-family="Times,serif" font-size="11.00" fill="#c0c0c0">Firesphere</text>
</g>
<g id="clust3" class="cluster">
<title>cluster_\Firesphere\SolrCompatibility</title>
<path fill="none" stroke="#c0c0c0" d="M833.2549,-642.8709C833.2549,-642.8709 1013.2549,-642.8709 1013.2549,-642.8709 1019.2549,-642.8709 1025.2549,-648.8709 1025.2549,-654.8709 1025.2549,-654.8709 1025.2549,-738.8709 1025.2549,-738.8709 1025.2549,-744.8709 1019.2549,-750.8709 1013.2549,-750.8709 1013.2549,-750.8709 833.2549,-750.8709 833.2549,-750.8709 827.2549,-750.8709 821.2549,-744.8709 821.2549,-738.8709 821.2549,-738.8709 821.2549,-654.8709 821.2549,-654.8709 821.2549,-648.8709 827.2549,-642.8709 833.2549,-642.8709"/>
<text text-anchor="middle" x="923.2549" y="-738.0709" font-family="Times,serif" font-size="11.00" fill="#c0c0c0">SolrCompatibility</text>
</g>
<g id="clust4" class="cluster">
<title>cluster_\Firesphere\SolrCompatibility\Extensions</title>
<path fill="none" stroke="#c0c0c0" d="M841.2549,-650.8709C841.2549,-650.8709 1005.2549,-650.8709 1005.2549,-650.8709 1011.2549,-650.8709 1017.2549,-656.8709 1017.2549,-662.8709 1017.2549,-662.8709 1017.2549,-710.8709 1017.2549,-710.8709 1017.2549,-716.8709 1011.2549,-722.8709 1005.2549,-722.8709 1005.2549,-722.8709 841.2549,-722.8709 841.2549,-722.8709 835.2549,-722.8709 829.2549,-716.8709 829.2549,-710.8709 829.2549,-710.8709 829.2549,-662.8709 829.2549,-662.8709 829.2549,-656.8709 835.2549,-650.8709 841.2549,-650.8709"/>
<text text-anchor="middle" x="923.2549" y="-710.0709" font-family="Times,serif" font-size="11.00" fill="#c0c0c0">Extensions</text>
</g>
<g id="clust5" class="cluster">
<title>cluster_\Firesphere\SolrSearch</title>
<path fill="none" stroke="#c0c0c0" d="M181.1275,-172.8709C181.1275,-172.8709 769.2549,-172.8709 769.2549,-172.8709 775.2549,-172.8709 781.2549,-178.8709 781.2549,-184.8709 781.2549,-184.8709 781.2549,-3008.8709 781.2549,-3008.8709 781.2549,-3014.8709 775.2549,-3020.8709 769.2549,-3020.8709 769.2549,-3020.8709 181.1275,-3020.8709 181.1275,-3020.8709 175.1275,-3020.8709 169.1275,-3014.8709 169.1275,-3008.8709 169.1275,-3008.8709 169.1275,-184.8709 169.1275,-184.8709 169.1275,-178.8709 175.1275,-172.8709 181.1275,-172.8709"/>
<text text-anchor="middle" x="475.1912" y="-3008.0709" font-family="Times,serif" font-size="11.00" fill="#c0c0c0">SolrSearch</text>
</g>
<g id="clust6" class="cluster">
<title>cluster_\Firesphere\SolrSearch\Results</title>
<path fill="none" stroke="#c0c0c0" d="M627.7549,-2920.8709C627.7549,-2920.8709 717.7549,-2920.8709 717.7549,-2920.8709 723.7549,-2920.8709 729.7549,-2926.8709 729.7549,-2932.8709 729.7549,-2932.8709 729.7549,-2980.8709 729.7549,-2980.8709 729.7549,-2986.8709 723.7549,-2992.8709 717.7549,-2992.8709 717.7549,-2992.8709 627.7549,-2992.8709 627.7549,-2992.8709 621.7549,-2992.8709 615.7549,-2986.8709 615.7549,-2980.8709 615.7549,-2980.8709 615.7549,-2932.8709 615.7549,-2932.8709 615.7549,-2926.8709 621.7549,-2920.8709 627.7549,-2920.8709"/>
<text text-anchor="middle" x="672.7549" y="-2980.0709" font-family="Times,serif" font-size="11.00" fill="#c0c0c0">Results</text>
</g>
<g id="clust7" class="cluster">
<title>cluster_\Firesphere\SolrSearch\Indexes</title>
<path fill="none" stroke="#c0c0c0" d="M634.7549,-2840.8709C634.7549,-2840.8709 710.7549,-2840.8709 710.7549,-2840.8709 716.7549,-2840.8709 722.7549,-2846.8709 722.7549,-2852.8709 722.7549,-2852.8709 722.7549,-2900.8709 722.7549,-2900.8709 722.7549,-2906.8709 716.7549,-2912.8709 710.7549,-2912.8709 710.7549,-2912.8709 634.7549,-2912.8709 634.7549,-2912.8709 628.7549,-2912.8709 622.7549,-2906.8709 622.7549,-2900.8709 622.7549,-2900.8709 622.7549,-2852.8709 622.7549,-2852.8709 622.7549,-2846.8709 628.7549,-2840.8709 634.7549,-2840.8709"/>
<text text-anchor="middle" x="672.7549" y="-2900.0709" font-family="Times,serif" font-size="11.00" fill="#c0c0c0">Indexes</text>
</g>
<g id="clust8" class="cluster">
<title>cluster_\Firesphere\SolrSearch\Extensions</title>
<path fill="none" stroke="#c0c0c0" d="M604.2549,-2412.8709C604.2549,-2412.8709 741.2549,-2412.8709 741.2549,-2412.8709 747.2549,-2412.8709 753.2549,-2418.8709 753.2549,-2424.8709 753.2549,-2424.8709 753.2549,-2526.8709 753.2549,-2526.8709 753.2549,-2532.8709 747.2549,-2538.8709 741.2549,-2538.8709 741.2549,-2538.8709 604.2549,-2538.8709 604.2549,-2538.8709 598.2549,-2538.8709 592.2549,-2532.8709 592.2549,-2526.8709 592.2549,-2526.8709 592.2549,-2424.8709 592.2549,-2424.8709 592.2549,-2418.8709 598.2549,-2412.8709 604.2549,-2412.8709"/>
<text text-anchor="middle" x="672.7549" y="-2526.0709" font-family="Times,serif" font-size="11.00" fill="#c0c0c0">Extensions</text>
</g>
<g id="clust9" class="cluster">
<title>cluster_\Firesphere\SolrSearch\Admins</title>
<path fill="none" stroke="#c0c0c0" d="M631.2549,-2546.8709C631.2549,-2546.8709 714.2549,-2546.8709 714.2549,-2546.8709 720.2549,-2546.8709 726.2549,-2552.8709 726.2549,-2558.8709 726.2549,-2558.8709 726.2549,-2606.8709 726.2549,-2606.8709 726.2549,-2612.8709 720.2549,-2618.8709 714.2549,-2618.8709 714.2549,-2618.8709 631.2549,-2618.8709 631.2549,-2618.8709 625.2549,-2618.8709 619.2549,-2612.8709 619.2549,-2606.8709 619.2549,-2606.8709 619.2549,-2558.8709 619.2549,-2558.8709 619.2549,-2552.8709 625.2549,-2546.8709 631.2549,-2546.8709"/>
<text text-anchor="middle" x="672.7549" y="-2606.0709" font-family="Times,serif" font-size="11.00" fill="#c0c0c0">Admins</text>
</g>
<g id="clust10" class="cluster">
<title>cluster_\Firesphere\SolrSearch\Services</title>
<path fill="none" stroke="#c0c0c0" d="M617.7549,-2706.8709C617.7549,-2706.8709 727.7549,-2706.8709 727.7549,-2706.8709 733.7549,-2706.8709 739.7549,-2712.8709 739.7549,-2718.8709 739.7549,-2718.8709 739.7549,-2820.8709 739.7549,-2820.8709 739.7549,-2826.8709 733.7549,-2832.8709 727.7549,-2832.8709 727.7549,-2832.8709 617.7549,-2832.8709 617.7549,-2832.8709 611.7549,-2832.8709 605.7549,-2826.8709 605.7549,-2820.8709 605.7549,-2820.8709 605.7549,-2718.8709 605.7549,-2718.8709 605.7549,-2712.8709 611.7549,-2706.8709 617.7549,-2706.8709"/>
<text text-anchor="middle" x="672.7549" y="-2820.0709" font-family="Times,serif" font-size="11.00" fill="#c0c0c0">Services</text>
</g>
<g id="clust11" class="cluster">
<title>cluster_\Firesphere\SolrSearch\Forms</title>
<path fill="none" stroke="#c0c0c0" d="M634.7549,-2626.8709C634.7549,-2626.8709 710.7549,-2626.8709 710.7549,-2626.8709 716.7549,-2626.8709 722.7549,-2632.8709 722.7549,-2638.8709 722.7549,-2638.8709 722.7549,-2686.8709 722.7549,-2686.8709 722.7549,-2692.8709 716.7549,-2698.8709 710.7549,-2698.8709 710.7549,-2698.8709 634.7549,-2698.8709 634.7549,-2698.8709 628.7549,-2698.8709 622.7549,-2692.8709 622.7549,-2686.8709 622.7549,-2686.8709 622.7549,-2638.8709 622.7549,-2638.8709 622.7549,-2632.8709 628.7549,-2626.8709 634.7549,-2626.8709"/>
<text text-anchor="middle" x="672.7549" y="-2686.0709" font-family="Times,serif" font-size="11.00" fill="#c0c0c0">Forms</text>
</g>
<g id="clust12" class="cluster">
<title>cluster_\Firesphere\SolrSearch\Factories</title>
<path fill="none" stroke="#c0c0c0" d="M597.7549,-2278.8709C597.7549,-2278.8709 747.7549,-2278.8709 747.7549,-2278.8709 753.7549,-2278.8709 759.7549,-2284.8709 759.7549,-2290.8709 759.7549,-2290.8709 759.7549,-2392.8709 759.7549,-2392.8709 759.7549,-2398.8709 753.7549,-2404.8709 747.7549,-2404.8709 747.7549,-2404.8709 597.7549,-2404.8709 597.7549,-2404.8709 591.7549,-2404.8709 585.7549,-2398.8709 585.7549,-2392.8709 585.7549,-2392.8709 585.7549,-2290.8709 585.7549,-2290.8709 585.7549,-2284.8709 591.7549,-2278.8709 597.7549,-2278.8709"/>
<text text-anchor="middle" x="672.7549" y="-2392.0709" font-family="Times,serif" font-size="11.00" fill="#c0c0c0">Factories</text>
</g>
<g id="clust13" class="cluster">
<title>cluster_\Firesphere\SolrSearch\Stores</title>
<path fill="none" stroke="#c0c0c0" d="M617.7549,-2144.8709C617.7549,-2144.8709 727.7549,-2144.8709 727.7549,-2144.8709 733.7549,-2144.8709 739.7549,-2150.8709 739.7549,-2156.8709 739.7549,-2156.8709 739.7549,-2258.8709 739.7549,-2258.8709 739.7549,-2264.8709 733.7549,-2270.8709 727.7549,-2270.8709 727.7549,-2270.8709 617.7549,-2270.8709 617.7549,-2270.8709 611.7549,-2270.8709 605.7549,-2264.8709 605.7549,-2258.8709 605.7549,-2258.8709 605.7549,-2156.8709 605.7549,-2156.8709 605.7549,-2150.8709 611.7549,-2144.8709 617.7549,-2144.8709"/>
<text text-anchor="middle" x="672.7549" y="-2258.0709" font-family="Times,serif" font-size="11.00" fill="#c0c0c0">Stores</text>
</g>
<g id="clust14" class="cluster">
<title>cluster_\Firesphere\SolrSearch\Interfaces</title>
<path fill="none" stroke="#c0c0c0" d="M189.1275,-2090.8709C189.1275,-2090.8709 319.1275,-2090.8709 319.1275,-2090.8709 325.1275,-2090.8709 331.1275,-2096.8709 331.1275,-2102.8709 331.1275,-2102.8709 331.1275,-2204.8709 331.1275,-2204.8709 331.1275,-2210.8709 325.1275,-2216.8709 319.1275,-2216.8709 319.1275,-2216.8709 189.1275,-2216.8709 189.1275,-2216.8709 183.1275,-2216.8709 177.1275,-2210.8709 177.1275,-2204.8709 177.1275,-2204.8709 177.1275,-2102.8709 177.1275,-2102.8709 177.1275,-2096.8709 183.1275,-2090.8709 189.1275,-2090.8709"/>
<text text-anchor="middle" x="254.1275" y="-2204.0709" font-family="Times,serif" font-size="11.00" fill="#c0c0c0">Interfaces</text>
</g>
<g id="clust15" class="cluster">
<title>cluster_\Firesphere\SolrSearch\Helpers</title>
<path fill="none" stroke="#c0c0c0" d="M624.7549,-1848.8709C624.7549,-1848.8709 720.7549,-1848.8709 720.7549,-1848.8709 726.7549,-1848.8709 732.7549,-1854.8709 732.7549,-1860.8709 732.7549,-1860.8709 732.7549,-2124.8709 732.7549,-2124.8709 732.7549,-2130.8709 726.7549,-2136.8709 720.7549,-2136.8709 720.7549,-2136.8709 624.7549,-2136.8709 624.7549,-2136.8709 618.7549,-2136.8709 612.7549,-2130.8709 612.7549,-2124.8709 612.7549,-2124.8709 612.7549,-1860.8709 612.7549,-1860.8709 612.7549,-1854.8709 618.7549,-1848.8709 624.7549,-1848.8709"/>
<text text-anchor="middle" x="672.7549" y="-2124.0709" font-family="Times,serif" font-size="11.00" fill="#c0c0c0">Helpers</text>
</g>
<g id="clust16" class="cluster">
<title>cluster_\Firesphere\SolrSearch\Models</title>
<path fill="none" stroke="#c0c0c0" d="M624.7549,-1660.8709C624.7549,-1660.8709 720.7549,-1660.8709 720.7549,-1660.8709 726.7549,-1660.8709 732.7549,-1666.8709 732.7549,-1672.8709 732.7549,-1672.8709 732.7549,-1828.8709 732.7549,-1828.8709 732.7549,-1834.8709 726.7549,-1840.8709 720.7549,-1840.8709 720.7549,-1840.8709 624.7549,-1840.8709 624.7549,-1840.8709 618.7549,-1840.8709 612.7549,-1834.8709 612.7549,-1828.8709 612.7549,-1828.8709 612.7549,-1672.8709 612.7549,-1672.8709 612.7549,-1666.8709 618.7549,-1660.8709 624.7549,-1660.8709"/>
<text text-anchor="middle" x="672.7549" y="-1828.0709" font-family="Times,serif" font-size="11.00" fill="#c0c0c0">Models</text>
</g>
<g id="clust17" class="cluster">
<title>cluster_\Firesphere\SolrSearch\Traits</title>
<path fill="none" stroke="#c0c0c0" d="M584.2549,-770.8709C584.2549,-770.8709 761.2549,-770.8709 761.2549,-770.8709 767.2549,-770.8709 773.2549,-776.8709 773.2549,-782.8709 773.2549,-782.8709 773.2549,-1640.8709 773.2549,-1640.8709 773.2549,-1646.8709 767.2549,-1652.8709 761.2549,-1652.8709 761.2549,-1652.8709 584.2549,-1652.8709 584.2549,-1652.8709 578.2549,-1652.8709 572.2549,-1646.8709 572.2549,-1640.8709 572.2549,-1640.8709 572.2549,-782.8709 572.2549,-782.8709 572.2549,-776.8709 578.2549,-770.8709 584.2549,-770.8709"/>
<text text-anchor="middle" x="672.7549" y="-1640.0709" font-family="Times,serif" font-size="11.00" fill="#c0c0c0">Traits</text>
</g>
<g id="clust18" class="cluster">
<title>cluster_\Firesphere\SolrSearch\Jobs</title>
<path fill="none" stroke="#c0c0c0" d="M600.7549,-582.8709C600.7549,-582.8709 744.7549,-582.8709 744.7549,-582.8709 750.7549,-582.8709 756.7549,-588.8709 756.7549,-594.8709 756.7549,-594.8709 756.7549,-750.8709 756.7549,-750.8709 756.7549,-756.8709 750.7549,-762.8709 744.7549,-762.8709 744.7549,-762.8709 600.7549,-762.8709 600.7549,-762.8709 594.7549,-762.8709 588.7549,-756.8709 588.7549,-750.8709 588.7549,-750.8709 588.7549,-594.8709 588.7549,-594.8709 588.7549,-588.8709 594.7549,-582.8709 600.7549,-582.8709"/>
<text text-anchor="middle" x="672.7549" y="-750.0709" font-family="Times,serif" font-size="11.00" fill="#c0c0c0">Jobs</text>
</g>
<g id="clust19" class="cluster">
<title>cluster_\Firesphere\SolrSearch\Queries</title>
<path fill="none" stroke="#c0c0c0" d="M638.2549,-502.8709C638.2549,-502.8709 707.2549,-502.8709 707.2549,-502.8709 713.2549,-502.8709 719.2549,-508.8709 719.2549,-514.8709 719.2549,-514.8709 719.2549,-562.8709 719.2549,-562.8709 719.2549,-568.8709 713.2549,-574.8709 707.2549,-574.8709 707.2549,-574.8709 638.2549,-574.8709 638.2549,-574.8709 632.2549,-574.8709 626.2549,-568.8709 626.2549,-562.8709 626.2549,-562.8709 626.2549,-514.8709 626.2549,-514.8709 626.2549,-508.8709 632.2549,-502.8709 638.2549,-502.8709"/>
<text text-anchor="middle" x="672.7549" y="-562.0709" font-family="Times,serif" font-size="11.00" fill="#c0c0c0">Queries</text>
</g>
<g id="clust20" class="cluster">
<title>cluster_\Firesphere\SolrSearch\Tasks</title>
<path fill="none" stroke="#c0c0c0" d="M597.7549,-260.8709C597.7549,-260.8709 747.7549,-260.8709 747.7549,-260.8709 753.7549,-260.8709 759.7549,-266.8709 759.7549,-272.8709 759.7549,-272.8709 759.7549,-482.8709 759.7549,-482.8709 759.7549,-488.8709 753.7549,-494.8709 747.7549,-494.8709 747.7549,-494.8709 597.7549,-494.8709 597.7549,-494.8709 591.7549,-494.8709 585.7549,-488.8709 585.7549,-482.8709 585.7549,-482.8709 585.7549,-272.8709 585.7549,-272.8709 585.7549,-266.8709 591.7549,-260.8709 597.7549,-260.8709"/>
<text text-anchor="middle" x="672.7549" y="-482.0709" font-family="Times,serif" font-size="11.00" fill="#c0c0c0">Tasks</text>
</g>
<g id="clust21" class="cluster">
<title>cluster_\Firesphere\SolrSearch\States</title>
<path fill="none" stroke="#c0c0c0" d="M634.7549,-180.8709C634.7549,-180.8709 710.7549,-180.8709 710.7549,-180.8709 716.7549,-180.8709 722.7549,-186.8709 722.7549,-192.8709 722.7549,-192.8709 722.7549,-240.8709 722.7549,-240.8709 722.7549,-246.8709 716.7549,-252.8709 710.7549,-252.8709 710.7549,-252.8709 634.7549,-252.8709 634.7549,-252.8709 628.7549,-252.8709 622.7549,-246.8709 622.7549,-240.8709 622.7549,-240.8709 622.7549,-192.8709 622.7549,-192.8709 622.7549,-186.8709 628.7549,-180.8709 634.7549,-180.8709"/>
<text text-anchor="middle" x="672.7549" y="-240.0709" font-family="Times,serif" font-size="11.00" fill="#c0c0c0">States</text>
</g>
<g id="clust22" class="cluster">
<title>cluster_\Firesphere\SolrFluent</title>
<path fill="none" stroke="#c0c0c0" d="M833.2549,-338.8709C833.2549,-338.8709 1013.2549,-338.8709 1013.2549,-338.8709 1019.2549,-338.8709 1025.2549,-344.8709 1025.2549,-350.8709 1025.2549,-350.8709 1025.2549,-622.8709 1025.2549,-622.8709 1025.2549,-628.8709 1019.2549,-634.8709 1013.2549,-634.8709 1013.2549,-634.8709 833.2549,-634.8709 833.2549,-634.8709 827.2549,-634.8709 821.2549,-628.8709 821.2549,-622.8709 821.2549,-622.8709 821.2549,-350.8709 821.2549,-350.8709 821.2549,-344.8709 827.2549,-338.8709 833.2549,-338.8709"/>
<text text-anchor="middle" x="923.2549" y="-622.0709" font-family="Times,serif" font-size="11.00" fill="#c0c0c0">SolrFluent</text>
</g>
<g id="clust23" class="cluster">
<title>cluster_\Firesphere\SolrFluent\Extensions</title>
<path fill="none" stroke="#c0c0c0" d="M841.2549,-346.8709C841.2549,-346.8709 1005.2549,-346.8709 1005.2549,-346.8709 1011.2549,-346.8709 1017.2549,-352.8709 1017.2549,-358.8709 1017.2549,-358.8709 1017.2549,-514.8709 1017.2549,-514.8709 1017.2549,-520.8709 1011.2549,-526.8709 1005.2549,-526.8709 1005.2549,-526.8709 841.2549,-526.8709 841.2549,-526.8709 835.2549,-526.8709 829.2549,-520.8709 829.2549,-514.8709 829.2549,-514.8709 829.2549,-358.8709 829.2549,-358.8709 829.2549,-352.8709 835.2549,-346.8709 841.2549,-346.8709"/>
<text text-anchor="middle" x="923.2549" y="-514.0709" font-family="Times,serif" font-size="11.00" fill="#c0c0c0">Extensions</text>
</g>
<g id="clust24" class="cluster">
<title>cluster_\Firesphere\SolrFluent\States</title>
<path fill="none" stroke="#c0c0c0" d="M868.2549,-534.8709C868.2549,-534.8709 978.2549,-534.8709 978.2549,-534.8709 984.2549,-534.8709 990.2549,-540.8709 990.2549,-546.8709 990.2549,-546.8709 990.2549,-594.8709 990.2549,-594.8709 990.2549,-600.8709 984.2549,-606.8709 978.2549,-606.8709 978.2549,-606.8709 868.2549,-606.8709 868.2549,-606.8709 862.2549,-606.8709 856.2549,-600.8709 856.2549,-594.8709 856.2549,-594.8709 856.2549,-546.8709 856.2549,-546.8709 856.2549,-540.8709 862.2549,-534.8709 868.2549,-534.8709"/>
<text text-anchor="middle" x="923.2549" y="-594.0709" font-family="Times,serif" font-size="11.00" fill="#c0c0c0">States</text>
</g>
<g id="clust25" class="cluster">
<title>cluster_\Firesphere\SolrSubsites</title>
<path fill="none" stroke="#c0c0c0" d="M853.7549,-758.8709C853.7549,-758.8709 992.7549,-758.8709 992.7549,-758.8709 998.7549,-758.8709 1004.7549,-764.8709 1004.7549,-770.8709 1004.7549,-770.8709 1004.7549,-934.8709 1004.7549,-934.8709 1004.7549,-940.8709 998.7549,-946.8709 992.7549,-946.8709 992.7549,-946.8709 853.7549,-946.8709 853.7549,-946.8709 847.7549,-946.8709 841.7549,-940.8709 841.7549,-934.8709 841.7549,-934.8709 841.7549,-770.8709 841.7549,-770.8709 841.7549,-764.8709 847.7549,-758.8709 853.7549,-758.8709"/>
<text text-anchor="middle" x="923.2549" y="-934.0709" font-family="Times,serif" font-size="11.00" fill="#c0c0c0">SolrSubsites</text>
</g>
<g id="clust26" class="cluster">
<title>cluster_\Firesphere\SolrSubsites\Extensions</title>
<path fill="none" stroke="#c0c0c0" d="M861.7549,-766.8709C861.7549,-766.8709 984.7549,-766.8709 984.7549,-766.8709 990.7549,-766.8709 996.7549,-772.8709 996.7549,-778.8709 996.7549,-778.8709 996.7549,-826.8709 996.7549,-826.8709 996.7549,-832.8709 990.7549,-838.8709 984.7549,-838.8709 984.7549,-838.8709 861.7549,-838.8709 861.7549,-838.8709 855.7549,-838.8709 849.7549,-832.8709 849.7549,-826.8709 849.7549,-826.8709 849.7549,-778.8709 849.7549,-778.8709 849.7549,-772.8709 855.7549,-766.8709 861.7549,-766.8709"/>
<text text-anchor="middle" x="923.2549" y="-826.0709" font-family="Times,serif" font-size="11.00" fill="#c0c0c0">Extensions</text>
</g>
<g id="clust27" class="cluster">
<title>cluster_\Firesphere\SolrSubsites\States</title>
<path fill="none" stroke="#c0c0c0" d="M878.2549,-846.8709C878.2549,-846.8709 968.2549,-846.8709 968.2549,-846.8709 974.2549,-846.8709 980.2549,-852.8709 980.2549,-858.8709 980.2549,-858.8709 980.2549,-906.8709 980.2549,-906.8709 980.2549,-912.8709 974.2549,-918.8709 968.2549,-918.8709 968.2549,-918.8709 878.2549,-918.8709 878.2549,-918.8709 872.2549,-918.8709 866.2549,-912.8709 866.2549,-906.8709 866.2549,-906.8709 866.2549,-858.8709 866.2549,-858.8709 866.2549,-852.8709 872.2549,-846.8709 878.2549,-846.8709"/>
<text text-anchor="middle" x="923.2549" y="-906.0709" font-family="Times,serif" font-size="11.00" fill="#c0c0c0">States</text>
</g>
<g id="clust28" class="cluster">
<title>cluster_\Firesphere\SolrPermissions</title>
<path fill="none" stroke="#c0c0c0" d="M846.7549,-168.8709C846.7549,-168.8709 999.7549,-168.8709 999.7549,-168.8709 1005.7549,-168.8709 1011.7549,-174.8709 1011.7549,-180.8709 1011.7549,-180.8709 1011.7549,-318.8709 1011.7549,-318.8709 1011.7549,-324.8709 1005.7549,-330.8709 999.7549,-330.8709 999.7549,-330.8709 846.7549,-330.8709 846.7549,-330.8709 840.7549,-330.8709 834.7549,-324.8709 834.7549,-318.8709 834.7549,-318.8709 834.7549,-180.8709 834.7549,-180.8709 834.7549,-174.8709 840.7549,-168.8709 846.7549,-168.8709"/>
<text text-anchor="middle" x="923.2549" y="-318.0709" font-family="Times,serif" font-size="11.00" fill="#c0c0c0">SolrPermissions</text>
</g>
<g id="clust29" class="cluster">
<title>cluster_\Firesphere\SolrPermissions\Extensions</title>
<path fill="none" stroke="#c0c0c0" d="M854.7549,-176.8709C854.7549,-176.8709 991.7549,-176.8709 991.7549,-176.8709 997.7549,-176.8709 1003.7549,-182.8709 1003.7549,-188.8709 1003.7549,-188.8709 1003.7549,-290.8709 1003.7549,-290.8709 1003.7549,-296.8709 997.7549,-302.8709 991.7549,-302.8709 991.7549,-302.8709 854.7549,-302.8709 854.7549,-302.8709 848.7549,-302.8709 842.7549,-296.8709 842.7549,-290.8709 842.7549,-290.8709 842.7549,-188.8709 842.7549,-188.8709 842.7549,-182.8709 848.7549,-176.8709 854.7549,-176.8709"/>
<text text-anchor="middle" x="923.2549" y="-290.0709" font-family="Times,serif" font-size="11.00" fill="#c0c0c0">Extensions</text>
</g>
<g id="clust30" class="cluster">
<title>cluster_\SilverStripe</title>
<path fill="none" stroke="#c0c0c0" d="M857.7549,-3056.8709C857.7549,-3056.8709 988.7549,-3056.8709 988.7549,-3056.8709 994.7549,-3056.8709 1000.7549,-3062.8709 1000.7549,-3068.8709 1000.7549,-3068.8709 1000.7549,-3358.8709 1000.7549,-3358.8709 1000.7549,-3364.8709 994.7549,-3370.8709 988.7549,-3370.8709 988.7549,-3370.8709 857.7549,-3370.8709 857.7549,-3370.8709 851.7549,-3370.8709 845.7549,-3364.8709 845.7549,-3358.8709 845.7549,-3358.8709 845.7549,-3068.8709 845.7549,-3068.8709 845.7549,-3062.8709 851.7549,-3056.8709 857.7549,-3056.8709"/>
<text text-anchor="middle" x="923.2549" y="-3358.0709" font-family="Times,serif" font-size="11.00" fill="#c0c0c0">SilverStripe</text>
</g>
<g id="clust31" class="cluster">
<title>cluster_\SilverStripe\FullTextSearch</title>
<path fill="none" stroke="#c0c0c0" d="M865.7549,-3064.8709C865.7549,-3064.8709 980.7549,-3064.8709 980.7549,-3064.8709 986.7549,-3064.8709 992.7549,-3070.8709 992.7549,-3076.8709 992.7549,-3076.8709 992.7549,-3330.8709 992.7549,-3330.8709 992.7549,-3336.8709 986.7549,-3342.8709 980.7549,-3342.8709 980.7549,-3342.8709 865.7549,-3342.8709 865.7549,-3342.8709 859.7549,-3342.8709 853.7549,-3336.8709 853.7549,-3330.8709 853.7549,-3330.8709 853.7549,-3076.8709 853.7549,-3076.8709 853.7549,-3070.8709 859.7549,-3064.8709 865.7549,-3064.8709"/>
<text text-anchor="middle" x="923.2549" y="-3330.0709" font-family="Times,serif" font-size="11.00" fill="#c0c0c0">FullTextSearch</text>
</g>
<g id="clust32" class="cluster">
<title>cluster_\SilverStripe\FullTextSearch\Solr</title>
<path fill="none" stroke="#c0c0c0" d="M885.2549,-3188.8709C885.2549,-3188.8709 961.2549,-3188.8709 961.2549,-3188.8709 967.2549,-3188.8709 973.2549,-3194.8709 973.2549,-3200.8709 973.2549,-3200.8709 973.2549,-3302.8709 973.2549,-3302.8709 973.2549,-3308.8709 967.2549,-3314.8709 961.2549,-3314.8709 961.2549,-3314.8709 885.2549,-3314.8709 885.2549,-3314.8709 879.2549,-3314.8709 873.2549,-3308.8709 873.2549,-3302.8709 873.2549,-3302.8709 873.2549,-3200.8709 873.2549,-3200.8709 873.2549,-3194.8709 879.2549,-3188.8709 885.2549,-3188.8709"/>
<text text-anchor="middle" x="923.2549" y="-3302.0709" font-family="Times,serif" font-size="11.00" fill="#c0c0c0">Solr</text>
</g>
<g id="clust33" class="cluster">
<title>cluster_\SilverStripe\FullTextSearch\Search</title>
<path fill="none" stroke="#c0c0c0" d="M873.7549,-3072.8709C873.7549,-3072.8709 972.7549,-3072.8709 972.7549,-3072.8709 978.7549,-3072.8709 984.7549,-3078.8709 984.7549,-3084.8709 984.7549,-3084.8709 984.7549,-3168.8709 984.7549,-3168.8709 984.7549,-3174.8709 978.7549,-3180.8709 972.7549,-3180.8709 972.7549,-3180.8709 873.7549,-3180.8709 873.7549,-3180.8709 867.7549,-3180.8709 861.7549,-3174.8709 861.7549,-3168.8709 861.7549,-3168.8709 861.7549,-3084.8709 861.7549,-3084.8709 861.7549,-3078.8709 867.7549,-3072.8709 873.7549,-3072.8709"/>
<text text-anchor="middle" x="923.2549" y="-3168.0709" font-family="Times,serif" font-size="11.00" fill="#c0c0c0">Search</text>
</g>
<g id="clust34" class="cluster">
<title>cluster_\SilverStripe\FullTextSearch\Search\Queries</title>
<path fill="none" stroke="#c0c0c0" d="M881.7549,-3080.8709C881.7549,-3080.8709 964.7549,-3080.8709 964.7549,-3080.8709 970.7549,-3080.8709 976.7549,-3086.8709 976.7549,-3092.8709 976.7549,-3092.8709 976.7549,-3140.8709 976.7549,-3140.8709 976.7549,-3146.8709 970.7549,-3152.8709 964.7549,-3152.8709 964.7549,-3152.8709 881.7549,-3152.8709 881.7549,-3152.8709 875.7549,-3152.8709 869.7549,-3146.8709 869.7549,-3140.8709 869.7549,-3140.8709 869.7549,-3092.8709 869.7549,-3092.8709 869.7549,-3086.8709 875.7549,-3080.8709 881.7549,-3080.8709"/>
<text text-anchor="middle" x="923.2549" y="-3140.0709" font-family="Times,serif" font-size="11.00" fill="#c0c0c0">Queries</text>
</g>
<!-- \\Firesphere\\SolrCompatibility\\Extensions\\FulltextSearchExtension -->
<g id="node1" class="node">
<title>\\Firesphere\\SolrCompatibility\\Extensions\\FulltextSearchExtension</title>
<polygon fill="none" stroke="#000000" points="1009.2549,-694.8709 837.2549,-694.8709 837.2549,-658.8709 1009.2549,-658.8709 1009.2549,-694.8709"/>
<text text-anchor="middle" x="923.2549" y="-674.0709" font-family="Courier,monospace" font-size="11.00" fill="#000000">FulltextSearchExtension</text>
</g>
<!-- \\SilverStripe\\Core\\Extension -->
<g id="node60" class="node">
<title>\\SilverStripe\\Core\\Extension</title>
<ellipse fill="none" stroke="#000000" cx="254.1275" cy="-18.8709" rx="144.0747" ry="18"/>
<text text-anchor="middle" x="254.1275" y="-15.1709" font-family="Times,serif" font-size="14.00" fill="#c0c0c0">\SilverStripe\Core\Extension</text>
</g>
<!-- \\Firesphere\\SolrCompatibility\\Extensions\\FulltextSearchExtension&#45;&gt;\\SilverStripe\\Core\\Extension -->
<g id="edge1" class="edge">
<title>\\Firesphere\\SolrCompatibility\\Extensions\\FulltextSearchExtension&#45;&gt;\\SilverStripe\\Core\\Extension</title>
<path fill="none" stroke="#000000" d="M878.0271,-658.8597C857.1754,-648.1329 834.2234,-632.3606 821.2549,-610.8709 718.4263,-440.4761 888.7432,-332.3652 781.2549,-164.8709 751.2581,-118.1281 718.6395,-134.1645 672.7549,-102.8709"/>
</g>
<!-- \\Firesphere\\SolrSearch\\Results\\SearchResult -->
<g id="node2" class="node">
<title>\\Firesphere\\SolrSearch\\Results\\SearchResult</title>
<polygon fill="none" stroke="#000000" points="721.7549,-2964.8709 623.7549,-2964.8709 623.7549,-2928.8709 721.7549,-2928.8709 721.7549,-2964.8709"/>
<text text-anchor="middle" x="672.7549" y="-2944.0709" font-family="Courier,monospace" font-size="11.00" fill="#000000">SearchResult</text>
</g>
<!-- \\Firesphere\\SolrSearch\\Indexes\\BaseIndex -->
<g id="node3" class="node">
<title>\\Firesphere\\SolrSearch\\Indexes\\BaseIndex</title>
<polygon fill="none" stroke="#000000" points="714.7549,-2884.8709 630.7549,-2884.8709 630.7549,-2848.8709 714.7549,-2848.8709 714.7549,-2884.8709"/>
<text text-anchor="start" x="638.7549" y="-2870.0709" font-family="Courier,monospace" font-size="11.00" fill="#000000">«abstract»</text>
<text text-anchor="start" x="642.2549" y="-2858.0709" font-family="Courier,monospace" font-size="11.00" fill="#000000">BaseIndex</text>
</g>
<!-- \\Firesphere\\SolrSearch\\Extensions\\GridFieldExtension -->
<g id="node4" class="node">
<title>\\Firesphere\\SolrSearch\\Extensions\\GridFieldExtension</title>
<polygon fill="none" stroke="#000000" points="741.7549,-2456.8709 603.7549,-2456.8709 603.7549,-2420.8709 741.7549,-2420.8709 741.7549,-2456.8709"/>
<text text-anchor="middle" x="672.7549" y="-2436.0709" font-family="Courier,monospace" font-size="11.00" fill="#000000">GridFieldExtension</text>
</g>
<!-- \\Firesphere\\SolrSearch\\Extensions\\GridFieldExtension&#45;&gt;\\SilverStripe\\Core\\Extension -->
<g id="edge4" class="edge">
<title>\\Firesphere\\SolrSearch\\Extensions\\GridFieldExtension&#45;&gt;\\SilverStripe\\Core\\Extension</title>
<path fill="none" stroke="#000000" d="M603.735,-2430.6865C591.5096,-2426.106 580.1742,-2419.2045 572.2549,-2408.8709 412.4887,-2200.3985 686.5208,-238.7627 508.2549,-45.8709 466.354,-.5322 394.9249,3.4967 338.4459,-2.272"/>
<polygon fill="none" stroke="#000000" points="337.9841,1.1981 328.444,-3.4102 338.7756,-5.757 337.9841,1.1981"/>
</g>
<!-- \\Firesphere\\SolrSearch\\Extensions\\DataObjectExtension -->
<g id="node5" class="node">
<title>\\Firesphere\\SolrSearch\\Extensions\\DataObjectExtension</title>
<polygon fill="none" stroke="#000000" points="745.2549,-2510.8709 600.2549,-2510.8709 600.2549,-2474.8709 745.2549,-2474.8709 745.2549,-2510.8709"/>
<text text-anchor="middle" x="672.7549" y="-2490.0709" font-family="Courier,monospace" font-size="11.00" fill="#000000">DataObjectExtension</text>
</g>
<!-- \\SilverStripe\\ORM\\DataExtension -->
<g id="node61" class="node">
<title>\\SilverStripe\\ORM\\DataExtension</title>
<ellipse fill="none" stroke="#000000" cx="254.1275" cy="-72.8709" rx="167.8704" ry="18"/>
<text text-anchor="middle" x="254.1275" y="-69.1709" font-family="Times,serif" font-size="14.00" fill="#c0c0c0">\SilverStripe\ORM\DataExtension</text>
</g>
<!-- \\Firesphere\\SolrSearch\\Extensions\\DataObjectExtension&#45;&gt;\\SilverStripe\\ORM\\DataExtension -->
<g id="edge5" class="edge">
<title>\\Firesphere\\SolrSearch\\Extensions\\DataObjectExtension&#45;&gt;\\SilverStripe\\ORM\\DataExtension</title>
<path fill="none" stroke="#000000" d="M600.0393,-2485.4114C589.2751,-2481.1778 579.4142,-2474.9505 572.2549,-2465.8709 409.4215,-2259.3608 686.7437,-293.0104 508.2549,-99.8709 467.3628,-55.6223 398.3455,-50.7204 342.5482,-55.8726"/>
<polygon fill="none" stroke="#000000" points="341.8752,-52.4238 332.2932,-56.9444 342.6029,-59.3859 341.8752,-52.4238"/>
</g>
<!-- \\Firesphere\\SolrSearch\\Admins\\SearchAdmin -->
<g id="node6" class="node">
<title>\\Firesphere\\SolrSearch\\Admins\\SearchAdmin</title>
<polygon fill="none" stroke="#000000" points="718.2549,-2590.8709 627.2549,-2590.8709 627.2549,-2554.8709 718.2549,-2554.8709 718.2549,-2590.8709"/>
<text text-anchor="middle" x="672.7549" y="-2570.0709" font-family="Courier,monospace" font-size="11.00" fill="#000000">SearchAdmin</text>
</g>
<!-- \\SilverStripe\\Admin\\ModelAdmin -->
<g id="node62" class="node">
<title>\\SilverStripe\\Admin\\ModelAdmin</title>
<ellipse fill="none" stroke="#000000" cx="254.1275" cy="-126.8709" rx="165.1707" ry="18"/>
<text text-anchor="middle" x="254.1275" y="-123.1709" font-family="Times,serif" font-size="14.00" fill="#c0c0c0">\SilverStripe\Admin\ModelAdmin</text>
</g>
<!-- \\Firesphere\\SolrSearch\\Admins\\SearchAdmin&#45;&gt;\\SilverStripe\\Admin\\ModelAdmin -->
<g id="edge6" class="edge">
<title>\\Firesphere\\SolrSearch\\Admins\\SearchAdmin&#45;&gt;\\SilverStripe\\Admin\\ModelAdmin</title>
<path fill="none" stroke="#000000" d="M627.2374,-2570.0976C607.4979,-2566.4805 585.8377,-2558.8079 572.2549,-2542.8709 567.1164,-2536.8417 292.7458,-424.3633 257.7796,-155.0094"/>
<polygon fill="none" stroke="#000000" points="261.2232,-154.3477 256.4649,-144.8815 254.2814,-155.2489 261.2232,-154.3477"/>
</g>
<!-- \\Firesphere\\SolrSearch\\Services\\SolrCoreService -->
<g id="node7" class="node">
<title>\\Firesphere\\SolrSearch\\Services\\SolrCoreService</title>
<polygon fill="none" stroke="#000000" points="731.7549,-2804.8709 613.7549,-2804.8709 613.7549,-2768.8709 731.7549,-2768.8709 731.7549,-2804.8709"/>
<text text-anchor="middle" x="672.7549" y="-2784.0709" font-family="Courier,monospace" font-size="11.00" fill="#000000">SolrCoreService</text>
</g>
<!-- \\Firesphere\\SolrSearch\\Services\\SchemaService -->
<g id="node8" class="node">
<title>\\Firesphere\\SolrSearch\\Services\\SchemaService</title>
<polygon fill="none" stroke="#000000" points="724.7549,-2750.8709 620.7549,-2750.8709 620.7549,-2714.8709 724.7549,-2714.8709 724.7549,-2750.8709"/>
<text text-anchor="middle" x="672.7549" y="-2730.0709" font-family="Courier,monospace" font-size="11.00" fill="#000000">SchemaService</text>
</g>
<!-- \\SilverStripe\\View\\ViewableData -->
<g id="node63" class="node">
<title>\\SilverStripe\\View\\ViewableData</title>
<ellipse fill="none" stroke="#000000" cx="254.1275" cy="-3694.8709" rx="163.2712" ry="18"/>
<text text-anchor="middle" x="254.1275" y="-3691.1709" font-family="Times,serif" font-size="14.00" fill="#c0c0c0">\SilverStripe\View\ViewableData</text>
</g>
<!-- \\Firesphere\\SolrSearch\\Services\\SchemaService&#45;&gt;\\SilverStripe\\View\\ViewableData -->
<g id="edge7" class="edge">
<title>\\Firesphere\\SolrSearch\\Services\\SchemaService&#45;&gt;\\SilverStripe\\View\\ViewableData</title>
<path fill="none" stroke="#000000" d="M620.6534,-2734.8883C602.6713,-2738.336 584.0907,-2745.5114 572.2549,-2759.8709 443.5982,-2915.9606 648.7275,-3522.3237 508.2549,-3667.8709 467.0666,-3710.5471 399.5991,-3716.0158 344.5289,-3711.4986"/>
<polygon fill="none" stroke="#000000" points="344.6834,-3707.9977 334.3995,-3710.5456 344.0277,-3714.967 344.6834,-3707.9977"/>
</g>
<!-- \\Firesphere\\SolrSearch\\Forms\\SearchForm -->
<g id="node9" class="node">
<title>\\Firesphere\\SolrSearch\\Forms\\SearchForm</title>
<polygon fill="none" stroke="#000000" points="714.7549,-2670.8709 630.7549,-2670.8709 630.7549,-2634.8709 714.7549,-2634.8709 714.7549,-2670.8709"/>
<text text-anchor="middle" x="672.7549" y="-2650.0709" font-family="Courier,monospace" font-size="11.00" fill="#000000">SearchForm</text>
</g>
<!-- \\SilverStripe\\Forms\\Form -->
<g id="node64" class="node">
<title>\\SilverStripe\\Forms\\Form</title>
<ellipse fill="none" stroke="#000000" cx="254.1275" cy="-3640.8709" rx="129.1772" ry="18"/>
<text text-anchor="middle" x="254.1275" y="-3637.1709" font-family="Times,serif" font-size="14.00" fill="#c0c0c0">\SilverStripe\Forms\Form</text>
</g>
<!-- \\Firesphere\\SolrSearch\\Forms\\SearchForm&#45;&gt;\\SilverStripe\\Forms\\Form -->
<g id="edge8" class="edge">
<title>\\Firesphere\\SolrSearch\\Forms\\SearchForm&#45;&gt;\\SilverStripe\\Forms\\Form</title>
<path fill="none" stroke="#000000" d="M630.6116,-2663.1125C609.4979,-2670.5274 585.638,-2682.8672 572.2549,-2702.8709 459.406,-2871.5455 649.1725,-3467.8289 508.2549,-3613.8709 465.2423,-3658.4476 393.5587,-3662.4327 337.2709,-3656.843"/>
<polygon fill="none" stroke="#000000" points="337.6327,-3653.3618 327.3081,-3655.7393 336.8619,-3660.3192 337.6327,-3653.3618"/>
</g>
<!-- \\Firesphere\\SolrSearch\\Factories\\QueryComponentFactory -->
<g id="node10" class="node">
<title>\\Firesphere\\SolrSearch\\Factories\\QueryComponentFactory</title>
<polygon fill="none" stroke="#000000" points="751.7549,-2376.8709 593.7549,-2376.8709 593.7549,-2340.8709 751.7549,-2340.8709 751.7549,-2376.8709"/>
<text text-anchor="middle" x="672.7549" y="-2356.0709" font-family="Courier,monospace" font-size="11.00" fill="#000000">QueryComponentFactory</text>
</g>
<!-- \\Firesphere\\SolrSearch\\Factories\\DocumentFactory -->
<g id="node11" class="node">
<title>\\Firesphere\\SolrSearch\\Factories\\DocumentFactory</title>
<polygon fill="none" stroke="#000000" points="731.7549,-2322.8709 613.7549,-2322.8709 613.7549,-2286.8709 731.7549,-2286.8709 731.7549,-2322.8709"/>
<text text-anchor="middle" x="672.7549" y="-2302.0709" font-family="Courier,monospace" font-size="11.00" fill="#000000">DocumentFactory</text>
</g>
<!-- \\Firesphere\\SolrSearch\\Stores\\FileConfigStore -->
<g id="node12" class="node">
<title>\\Firesphere\\SolrSearch\\Stores\\FileConfigStore</title>
<polygon fill="none" stroke="#000000" points="731.7549,-2242.8709 613.7549,-2242.8709 613.7549,-2206.8709 731.7549,-2206.8709 731.7549,-2242.8709"/>
<text text-anchor="middle" x="672.7549" y="-2222.0709" font-family="Courier,monospace" font-size="11.00" fill="#000000">FileConfigStore</text>
</g>
<!-- \\Firesphere\\SolrSearch\\Interfaces\\ConfigStore -->
<g id="node15" class="node">
<title>\\Firesphere\\SolrSearch\\Interfaces\\ConfigStore</title>
<polygon fill="none" stroke="#000000" points="299.6275,-2188.8709 208.6275,-2188.8709 208.6275,-2152.8709 299.6275,-2152.8709 299.6275,-2188.8709"/>
<text text-anchor="middle" x="254.1275" y="-2168.0709" font-family="Courier,monospace" font-size="11.00" fill="#000000">ConfigStore</text>
</g>
<!-- \\Firesphere\\SolrSearch\\Stores\\FileConfigStore&#45;&gt;\\Firesphere\\SolrSearch\\Interfaces\\ConfigStore -->
<g id="edge9" class="edge">
<title>\\Firesphere\\SolrSearch\\Stores\\FileConfigStore&#45;&gt;\\Firesphere\\SolrSearch\\Interfaces\\ConfigStore</title>
<path fill="none" stroke="#000000" stroke-dasharray="1,5" d="M613.6637,-2217.2485C532.8854,-2206.8287 389.0185,-2188.2709 309.9722,-2178.0745"/>
<polygon fill="none" stroke="#000000" points="310.0944,-2174.5613 299.7287,-2176.7531 309.1988,-2181.5038 310.0944,-2174.5613"/>
</g>
<!-- \\Firesphere\\SolrSearch\\Stores\\PostConfigStore -->
<g id="node13" class="node">
<title>\\Firesphere\\SolrSearch\\Stores\\PostConfigStore</title>
<polygon fill="none" stroke="#000000" points="731.7549,-2188.8709 613.7549,-2188.8709 613.7549,-2152.8709 731.7549,-2152.8709 731.7549,-2188.8709"/>
<text text-anchor="middle" x="672.7549" y="-2168.0709" font-family="Courier,monospace" font-size="11.00" fill="#000000">PostConfigStore</text>
</g>
<!-- \\Firesphere\\SolrSearch\\Stores\\PostConfigStore&#45;&gt;\\Firesphere\\SolrSearch\\Interfaces\\ConfigStore -->
<g id="edge10" class="edge">
<title>\\Firesphere\\SolrSearch\\Stores\\PostConfigStore&#45;&gt;\\Firesphere\\SolrSearch\\Interfaces\\ConfigStore</title>
<path fill="none" stroke="#000000" stroke-dasharray="1,5" d="M613.6637,-2170.8709C532.8854,-2170.8709 389.0185,-2170.8709 309.9722,-2170.8709"/>
<polygon fill="none" stroke="#000000" points="309.7288,-2167.371 299.7287,-2170.8709 309.7287,-2174.371 309.7288,-2167.371"/>
</g>
<!-- \\Firesphere\\SolrSearch\\Interfaces\\SiteStateInterface -->
<g id="node14" class="node">
<title>\\Firesphere\\SolrSearch\\Interfaces\\SiteStateInterface</title>
<polygon fill="none" stroke="#000000" points="323.1275,-2134.8709 185.1275,-2134.8709 185.1275,-2098.8709 323.1275,-2098.8709 323.1275,-2134.8709"/>
<text text-anchor="middle" x="254.1275" y="-2114.0709" font-family="Courier,monospace" font-size="11.00" fill="#000000">SiteStateInterface</text>
</g>
<!-- \\Firesphere\\SolrSearch\\Helpers\\SolrLogger -->
<g id="node16" class="node">
<title>\\Firesphere\\SolrSearch\\Helpers\\SolrLogger</title>
<polygon fill="none" stroke="#000000" points="714.7549,-2108.8709 630.7549,-2108.8709 630.7549,-2072.8709 714.7549,-2072.8709 714.7549,-2108.8709"/>
<text text-anchor="middle" x="672.7549" y="-2088.0709" font-family="Courier,monospace" font-size="11.00" fill="#000000">SolrLogger</text>
</g>
<!-- \\Firesphere\\SolrSearch\\Helpers\\FieldResolver -->
<g id="node17" class="node">
<title>\\Firesphere\\SolrSearch\\Helpers\\FieldResolver</title>
<polygon fill="none" stroke="#000000" points="724.7549,-2054.8709 620.7549,-2054.8709 620.7549,-2018.8709 724.7549,-2018.8709 724.7549,-2054.8709"/>
<text text-anchor="middle" x="672.7549" y="-2034.0709" font-family="Courier,monospace" font-size="11.00" fill="#000000">FieldResolver</text>
</g>
<!-- \\Firesphere\\SolrSearch\\Helpers\\Synonyms -->
<g id="node18" class="node">
<title>\\Firesphere\\SolrSearch\\Helpers\\Synonyms</title>
<polygon fill="none" stroke="#000000" points="708.2549,-2000.8709 637.2549,-2000.8709 637.2549,-1964.8709 708.2549,-1964.8709 708.2549,-2000.8709"/>
<text text-anchor="middle" x="672.7549" y="-1980.0709" font-family="Courier,monospace" font-size="11.00" fill="#000000">Synonyms</text>
</g>
<!-- \\Firesphere\\SolrSearch\\Helpers\\Statics -->
<g id="node19" class="node">
<title>\\Firesphere\\SolrSearch\\Helpers\\Statics</title>
<polygon fill="none" stroke="#000000" points="704.7549,-1946.8709 640.7549,-1946.8709 640.7549,-1910.8709 704.7549,-1910.8709 704.7549,-1946.8709"/>
<text text-anchor="middle" x="672.7549" y="-1926.0709" font-family="Courier,monospace" font-size="11.00" fill="#000000">Statics</text>
</g>
<!-- \\Firesphere\\SolrSearch\\Helpers\\DataResolver -->
<g id="node20" class="node">
<title>\\Firesphere\\SolrSearch\\Helpers\\DataResolver</title>
<polygon fill="none" stroke="#000000" points="721.7549,-1892.8709 623.7549,-1892.8709 623.7549,-1856.8709 721.7549,-1856.8709 721.7549,-1892.8709"/>
<text text-anchor="middle" x="672.7549" y="-1872.0709" font-family="Courier,monospace" font-size="11.00" fill="#000000">DataResolver</text>
</g>
<!-- \\Firesphere\\SolrSearch\\Models\\SolrLog -->
<g id="node21" class="node">
<title>\\Firesphere\\SolrSearch\\Models\\SolrLog</title>
<polygon fill="none" stroke="#000000" points="704.7549,-1704.8709 640.7549,-1704.8709 640.7549,-1668.8709 704.7549,-1668.8709 704.7549,-1704.8709"/>
<text text-anchor="middle" x="672.7549" y="-1684.0709" font-family="Courier,monospace" font-size="11.00" fill="#000000">SolrLog</text>
</g>
<!-- \\SilverStripe\\ORM\\DataObject -->
<g id="node65" class="node">
<title>\\SilverStripe\\ORM\\DataObject</title>
<ellipse fill="none" stroke="#000000" cx="254.1275" cy="-3586.8709" rx="152.9733" ry="18"/>
<text text-anchor="middle" x="254.1275" y="-3583.1709" font-family="Times,serif" font-size="14.00" fill="#c0c0c0">\SilverStripe\ORM\DataObject</text>
</g>
<!-- \\Firesphere\\SolrSearch\\Models\\SolrLog&#45;&gt;\\SilverStripe\\ORM\\DataObject -->
<g id="edge11" class="edge">
<title>\\Firesphere\\SolrSearch\\Models\\SolrLog&#45;&gt;\\SilverStripe\\ORM\\DataObject</title>
<path fill="none" stroke="#000000" d="M640.6928,-1686.1861C617.8036,-1687.5902 588.3285,-1693.6447 572.2549,-1713.8709 444.5667,-1874.5471 648.1208,-3409.6754 508.2549,-3559.8709 466.6816,-3604.5144 396.4588,-3608.9915 340.3535,-3603.5698"/>
<polygon fill="none" stroke="#000000" points="340.7283,-3600.09 330.4095,-3602.4928 339.9744,-3607.0493 340.7283,-3600.09"/>
</g>
<!-- \\SilverStripe\\Security\\PermissionProvider -->
<g id="node66" class="node">
<title>\\SilverStripe\\Security\\PermissionProvider</title>
<ellipse fill="none" stroke="#000000" cx="254.1275" cy="-3532.8709" rx="206.0634" ry="18"/>
<text text-anchor="middle" x="254.1275" y="-3529.1709" font-family="Times,serif" font-size="14.00" fill="#c0c0c0">\SilverStripe\Security\PermissionProvider</text>
</g>
<!-- \\Firesphere\\SolrSearch\\Models\\SolrLog&#45;&gt;\\SilverStripe\\Security\\PermissionProvider -->
<g id="edge12" class="edge">
<title>\\Firesphere\\SolrSearch\\Models\\SolrLog&#45;&gt;\\SilverStripe\\Security\\PermissionProvider</title>
<path fill="none" stroke="#000000" stroke-dasharray="1,5" d="M640.699,-1686.191C617.8129,-1687.5976 588.3391,-1693.6531 572.2549,-1713.8709 448.216,-1869.788 644.1104,-3360.1345 508.2549,-3505.8709 468.5957,-3548.4145 402.9162,-3554.4671 348.2645,-3550.2451"/>
<polygon fill="none" stroke="#000000" points="348.4692,-3546.7495 338.1969,-3549.3437 347.8449,-3553.7216 348.4692,-3546.7495"/>
</g>
<!-- \\Firesphere\\SolrSearch\\Models\\SearchSynonym -->
<g id="node22" class="node">
<title>\\Firesphere\\SolrSearch\\Models\\SearchSynonym</title>
<polygon fill="none" stroke="#000000" points="724.7549,-1758.8709 620.7549,-1758.8709 620.7549,-1722.8709 724.7549,-1722.8709 724.7549,-1758.8709"/>
<text text-anchor="middle" x="672.7549" y="-1738.0709" font-family="Courier,monospace" font-size="11.00" fill="#000000">SearchSynonym</text>
</g>
<!-- \\Firesphere\\SolrSearch\\Models\\SearchSynonym&#45;&gt;\\SilverStripe\\ORM\\DataObject -->
<g id="edge13" class="edge">
<title>\\Firesphere\\SolrSearch\\Models\\SearchSynonym&#45;&gt;\\SilverStripe\\ORM\\DataObject</title>
<path fill="none" stroke="#000000" d="M620.6471,-1742.6212C602.5518,-1746.0235 583.8962,-1753.2377 572.2549,-1767.8709 448.216,-1923.788 644.1104,-3414.1345 508.2549,-3559.8709 466.6584,-3604.4928 396.4372,-3608.9714 340.3385,-3603.5559"/>
<polygon fill="none" stroke="#000000" points="340.7143,-3600.0762 330.3958,-3602.48 339.9612,-3607.0356 340.7143,-3600.0762"/>
</g>
<!-- \\Firesphere\\SolrSearch\\Models\\DirtyClass -->
<g id="node23" class="node">
<title>\\Firesphere\\SolrSearch\\Models\\DirtyClass</title>
<polygon fill="none" stroke="#000000" points="714.7549,-1812.8709 630.7549,-1812.8709 630.7549,-1776.8709 714.7549,-1776.8709 714.7549,-1812.8709"/>
<text text-anchor="middle" x="672.7549" y="-1792.0709" font-family="Courier,monospace" font-size="11.00" fill="#000000">DirtyClass</text>
</g>
<!-- \\Firesphere\\SolrSearch\\Models\\DirtyClass&#45;&gt;\\SilverStripe\\ORM\\DataObject -->
<g id="edge14" class="edge">
<title>\\Firesphere\\SolrSearch\\Models\\DirtyClass&#45;&gt;\\SilverStripe\\ORM\\DataObject</title>
<path fill="none" stroke="#000000" d="M630.6034,-1804.8489C609.3494,-1812.2029 585.3606,-1824.5683 572.2549,-1844.8709 468.8369,-2005.0792 638.3921,-3420.4926 508.2549,-3559.8709 466.7801,-3604.2908 396.9349,-3608.9061 340.9526,-3603.5954"/>
<polygon fill="none" stroke="#000000" points="340.9863,-3600.0791 330.6707,-3602.4956 340.2417,-3607.0394 340.9863,-3600.0791"/>
</g>
<!-- \\Firesphere\\SolrSearch\\Traits\\GetSetSchemaServiceTrait -->
<g id="node24" class="node">
<title>\\Firesphere\\SolrSearch\\Traits\\GetSetSchemaServiceTrait</title>
<polygon fill="none" stroke="#000000" points="762.2549,-1624.8709 583.2549,-1624.8709 583.2549,-1588.8709 762.2549,-1588.8709 762.2549,-1624.8709"/>
<text text-anchor="middle" x="672.7549" y="-1604.0709" font-family="Courier,monospace" font-size="11.00" fill="#000000">GetSetSchemaServiceTrait</text>
</g>
<!-- \\Firesphere\\SolrSearch\\Traits\\DataResolveTrait -->
<g id="node25" class="node">
<title>\\Firesphere\\SolrSearch\\Traits\\DataResolveTrait</title>
<polygon fill="none" stroke="#000000" points="735.2549,-1570.8709 610.2549,-1570.8709 610.2549,-1534.8709 735.2549,-1534.8709 735.2549,-1570.8709"/>
<text text-anchor="middle" x="672.7549" y="-1550.0709" font-family="Courier,monospace" font-size="11.00" fill="#000000">DataResolveTrait</text>
</g>
<!-- \\Firesphere\\SolrSearch\\Traits\\QueryComponentBoostTrait -->
<g id="node26" class="node">
<title>\\Firesphere\\SolrSearch\\Traits\\QueryComponentBoostTrait</title>
<polygon fill="none" stroke="#000000" points="762.2549,-1516.8709 583.2549,-1516.8709 583.2549,-1480.8709 762.2549,-1480.8709 762.2549,-1516.8709"/>
<text text-anchor="middle" x="672.7549" y="-1496.0709" font-family="Courier,monospace" font-size="11.00" fill="#000000">QueryComponentBoostTrait</text>
</g>
<!-- \\Firesphere\\SolrSearch\\Traits\\QueryComponentFilterTrait -->
<g id="node27" class="node">
<title>\\Firesphere\\SolrSearch\\Traits\\QueryComponentFilterTrait</title>
<polygon fill="none" stroke="#000000" points="765.2549,-1462.8709 580.2549,-1462.8709 580.2549,-1426.8709 765.2549,-1426.8709 765.2549,-1462.8709"/>
<text text-anchor="middle" x="672.7549" y="-1442.0709" font-family="Courier,monospace" font-size="11.00" fill="#000000">QueryComponentFilterTrait</text>
</g>
<!-- \\Firesphere\\SolrSearch\\Traits\\QueryComponentFacetTrait -->
<g id="node28" class="node">
<title>\\Firesphere\\SolrSearch\\Traits\\QueryComponentFacetTrait</title>
<polygon fill="none" stroke="#000000" points="762.2549,-1408.8709 583.2549,-1408.8709 583.2549,-1372.8709 762.2549,-1372.8709 762.2549,-1408.8709"/>
<text text-anchor="middle" x="672.7549" y="-1388.0709" font-family="Courier,monospace" font-size="11.00" fill="#000000">QueryComponentFacetTrait</text>
</g>
<!-- \\Firesphere\\SolrSearch\\Traits\\SearchResultSetTrait -->
<g id="node29" class="node">
<title>\\Firesphere\\SolrSearch\\Traits\\SearchResultSetTrait</title>
<polygon fill="none" stroke="#000000" points="748.7549,-1354.8709 596.7549,-1354.8709 596.7549,-1318.8709 748.7549,-1318.8709 748.7549,-1354.8709"/>
<text text-anchor="middle" x="672.7549" y="-1334.0709" font-family="Courier,monospace" font-size="11.00" fill="#000000">SearchResultSetTrait</text>
</g>
<!-- \\Firesphere\\SolrSearch\\Traits\\SearchResultGetTrait -->
<g id="node30" class="node">
<title>\\Firesphere\\SolrSearch\\Traits\\SearchResultGetTrait</title>
<polygon fill="none" stroke="#000000" points="748.7549,-1300.8709 596.7549,-1300.8709 596.7549,-1264.8709 748.7549,-1264.8709 748.7549,-1300.8709"/>
<text text-anchor="middle" x="672.7549" y="-1280.0709" font-family="Courier,monospace" font-size="11.00" fill="#000000">SearchResultGetTrait</text>
</g>
<!-- \\Firesphere\\SolrSearch\\Traits\\GetSetSearchResolverTrait -->
<g id="node31" class="node">
<title>\\Firesphere\\SolrSearch\\Traits\\GetSetSearchResolverTrait</title>
<polygon fill="none" stroke="#000000" points="765.2549,-1246.8709 580.2549,-1246.8709 580.2549,-1210.8709 765.2549,-1210.8709 765.2549,-1246.8709"/>
<text text-anchor="middle" x="672.7549" y="-1226.0709" font-family="Courier,monospace" font-size="11.00" fill="#000000">GetSetSearchResolverTrait</text>
</g>
<!-- \\Firesphere\\SolrSearch\\Traits\\BaseQueryTrait -->
<g id="node32" class="node">
<title>\\Firesphere\\SolrSearch\\Traits\\BaseQueryTrait</title>
<polygon fill="none" stroke="#000000" points="728.2549,-1192.8709 617.2549,-1192.8709 617.2549,-1156.8709 728.2549,-1156.8709 728.2549,-1192.8709"/>
<text text-anchor="middle" x="672.7549" y="-1172.0709" font-family="Courier,monospace" font-size="11.00" fill="#000000">BaseQueryTrait</text>
</g>
<!-- \\Firesphere\\SolrSearch\\Traits\\LoggerTrait -->
<g id="node33" class="node">
<title>\\Firesphere\\SolrSearch\\Traits\\LoggerTrait</title>
<polygon fill="none" stroke="#000000" points="718.2549,-1138.8709 627.2549,-1138.8709 627.2549,-1102.8709 718.2549,-1102.8709 718.2549,-1138.8709"/>
<text text-anchor="middle" x="672.7549" y="-1118.0709" font-family="Courier,monospace" font-size="11.00" fill="#000000">LoggerTrait</text>
</g>
<!-- \\Firesphere\\SolrSearch\\Traits\\DocumentFactoryTrait -->
<g id="node34" class="node">
<title>\\Firesphere\\SolrSearch\\Traits\\DocumentFactoryTrait</title>
<polygon fill="none" stroke="#000000" points="748.7549,-1084.8709 596.7549,-1084.8709 596.7549,-1048.8709 748.7549,-1048.8709 748.7549,-1084.8709"/>
<text text-anchor="middle" x="672.7549" y="-1064.0709" font-family="Courier,monospace" font-size="11.00" fill="#000000">DocumentFactoryTrait</text>
</g>
<!-- \\Firesphere\\SolrSearch\\Traits\\GetterSetterTrait -->
<g id="node35" class="node">
<title>\\Firesphere\\SolrSearch\\Traits\\GetterSetterTrait</title>
<polygon fill="none" stroke="#000000" points="738.2549,-1030.8709 607.2549,-1030.8709 607.2549,-994.8709 738.2549,-994.8709 738.2549,-1030.8709"/>
<text text-anchor="middle" x="672.7549" y="-1010.0709" font-family="Courier,monospace" font-size="11.00" fill="#000000">GetterSetterTrait</text>
</g>
<!-- \\Firesphere\\SolrSearch\\Traits\\SolrIndexTrait -->
<g id="node36" class="node">
<title>\\Firesphere\\SolrSearch\\Traits\\SolrIndexTrait</title>
<polygon fill="none" stroke="#000000" points="728.2549,-976.8709 617.2549,-976.8709 617.2549,-940.8709 728.2549,-940.8709 728.2549,-976.8709"/>
<text text-anchor="middle" x="672.7549" y="-956.0709" font-family="Courier,monospace" font-size="11.00" fill="#000000">SolrIndexTrait</text>
</g>
<!-- \\Firesphere\\SolrSearch\\Traits\\BaseIndexTrait -->
<g id="node37" class="node">
<title>\\Firesphere\\SolrSearch\\Traits\\BaseIndexTrait</title>
<polygon fill="none" stroke="#000000" points="728.2549,-922.8709 617.2549,-922.8709 617.2549,-886.8709 728.2549,-886.8709 728.2549,-922.8709"/>
<text text-anchor="middle" x="672.7549" y="-902.0709" font-family="Courier,monospace" font-size="11.00" fill="#000000">BaseIndexTrait</text>
</g>
<!-- \\Firesphere\\SolrSearch\\Traits\\CoreServiceTrait -->
<g id="node38" class="node">
<title>\\Firesphere\\SolrSearch\\Traits\\CoreServiceTrait</title>
<polygon fill="none" stroke="#000000" points="735.2549,-868.8709 610.2549,-868.8709 610.2549,-832.8709 735.2549,-832.8709 735.2549,-868.8709"/>
<text text-anchor="middle" x="672.7549" y="-848.0709" font-family="Courier,monospace" font-size="11.00" fill="#000000">CoreServiceTrait</text>
</g>
<!-- \\Firesphere\\SolrSearch\\Traits\\CoreAdminTrait -->
<g id="node39" class="node">
<title>\\Firesphere\\SolrSearch\\Traits\\CoreAdminTrait</title>
<polygon fill="none" stroke="#000000" points="728.2549,-814.8709 617.2549,-814.8709 617.2549,-778.8709 728.2549,-778.8709 728.2549,-814.8709"/>
<text text-anchor="middle" x="672.7549" y="-794.0709" font-family="Courier,monospace" font-size="11.00" fill="#000000">CoreAdminTrait</text>
</g>
<!-- \\Firesphere\\SolrSearch\\Jobs\\ClearDirtyClassesJob -->
<g id="node40" class="node">
<title>\\Firesphere\\SolrSearch\\Jobs\\ClearDirtyClassesJob</title>
<polygon fill="none" stroke="#000000" points="748.7549,-734.8709 596.7549,-734.8709 596.7549,-698.8709 748.7549,-698.8709 748.7549,-734.8709"/>
<text text-anchor="middle" x="672.7549" y="-714.0709" font-family="Courier,monospace" font-size="11.00" fill="#000000">ClearDirtyClassesJob</text>
</g>
<!-- \\Symbiote\\QueuedJobs\\Services\\AbstractQueuedJob -->
<g id="node67" class="node">
<title>\\Symbiote\\QueuedJobs\\Services\\AbstractQueuedJob</title>
<ellipse fill="none" stroke="#000000" cx="254.1275" cy="-3478.8709" rx="254.255" ry="18"/>
<text text-anchor="middle" x="254.1275" y="-3475.1709" font-family="Times,serif" font-size="14.00" fill="#c0c0c0">\Symbiote\QueuedJobs\Services\AbstractQueuedJob</text>
</g>
<!-- \\Firesphere\\SolrSearch\\Jobs\\ClearDirtyClassesJob&#45;&gt;\\Symbiote\\QueuedJobs\\Services\\AbstractQueuedJob -->
<g id="edge15" class="edge">
<title>\\Firesphere\\SolrSearch\\Jobs\\ClearDirtyClassesJob&#45;&gt;\\Symbiote\\QueuedJobs\\Services\\AbstractQueuedJob</title>
<path fill="none" stroke="#000000" d="M610.8211,-734.8963C595.7088,-742.3268 581.3016,-752.647 572.2549,-766.8709 492.1788,-892.7723 609.3474,-3342.1274 508.2549,-3451.8709 469.5563,-3493.8811 405.5134,-3500.4671 351.4028,-3496.6332"/>
<polygon fill="none" stroke="#000000" points="351.6791,-3493.1442 341.4231,-3495.8023 351.0982,-3500.1201 351.6791,-3493.1442"/>
</g>
<!-- \\Firesphere\\SolrSearch\\Jobs\\SolrIndexJob -->
<g id="node41" class="node">
<title>\\Firesphere\\SolrSearch\\Jobs\\SolrIndexJob</title>
<polygon fill="none" stroke="#000000" points="721.7549,-680.8709 623.7549,-680.8709 623.7549,-644.8709 721.7549,-644.8709 721.7549,-680.8709"/>
<text text-anchor="middle" x="672.7549" y="-660.0709" font-family="Courier,monospace" font-size="11.00" fill="#000000">SolrIndexJob</text>
</g>
<!-- \\Firesphere\\SolrSearch\\Jobs\\SolrIndexJob&#45;&gt;\\Symbiote\\QueuedJobs\\Services\\AbstractQueuedJob -->
<g id="edge16" class="edge">
<title>\\Firesphere\\SolrSearch\\Jobs\\SolrIndexJob&#45;&gt;\\Symbiote\\QueuedJobs\\Services\\AbstractQueuedJob</title>
<path fill="none" stroke="#000000" d="M623.6914,-663.9917C604.627,-667.124 584.4739,-674.3125 572.2549,-689.8709 477.4544,-810.58 612.2074,-3338.9474 508.2549,-3451.8709 469.5703,-3493.8939 405.5272,-3500.4798 351.4131,-3496.6427"/>
<polygon fill="none" stroke="#000000" points="351.6889,-3493.1537 341.4327,-3495.8112 351.1076,-3500.1295 351.6889,-3493.1537"/>
</g>
<!-- \\Firesphere\\SolrSearch\\Jobs\\SolrConfigureJob -->
<g id="node42" class="node">
<title>\\Firesphere\\SolrSearch\\Jobs\\SolrConfigureJob</title>
<polygon fill="none" stroke="#000000" points="735.2549,-626.8709 610.2549,-626.8709 610.2549,-590.8709 735.2549,-590.8709 735.2549,-626.8709"/>
<text text-anchor="middle" x="672.7549" y="-606.0709" font-family="Courier,monospace" font-size="11.00" fill="#000000">SolrConfigureJob</text>
</g>
<!-- \\Firesphere\\SolrSearch\\Jobs\\SolrConfigureJob&#45;&gt;\\Symbiote\\QueuedJobs\\Services\\AbstractQueuedJob -->
<g id="edge17" class="edge">
<title>\\Firesphere\\SolrSearch\\Jobs\\SolrConfigureJob&#45;&gt;\\Symbiote\\QueuedJobs\\Services\\AbstractQueuedJob</title>
<path fill="none" stroke="#000000" d="M610.0443,-612.9639C595.5003,-617.0068 581.5699,-624.0047 572.2549,-635.8709 475.6292,-758.9602 614.2132,-3336.7173 508.2549,-3451.8709 469.5089,-3493.9793 405.3023,-3500.5123 351.1234,-3496.628"/>
<polygon fill="none" stroke="#000000" points="351.3902,-3493.1381 341.1321,-3495.7877 350.8035,-3500.1135 351.3902,-3493.1381"/>
</g>
<!-- \\Firesphere\\SolrSearch\\Queries\\BaseQuery -->
<g id="node43" class="node">
<title>\\Firesphere\\SolrSearch\\Queries\\BaseQuery</title>
<polygon fill="none" stroke="#000000" points="711.2549,-546.8709 634.2549,-546.8709 634.2549,-510.8709 711.2549,-510.8709 711.2549,-546.8709"/>
<text text-anchor="middle" x="672.7549" y="-526.0709" font-family="Courier,monospace" font-size="11.00" fill="#000000">BaseQuery</text>
</g>
<!-- \\Firesphere\\SolrSearch\\Tasks\\SolrConfigureTask -->
<g id="node44" class="node">
<title>\\Firesphere\\SolrSearch\\Tasks\\SolrConfigureTask</title>
<polygon fill="none" stroke="#000000" points="738.2549,-358.8709 607.2549,-358.8709 607.2549,-322.8709 738.2549,-322.8709 738.2549,-358.8709"/>
<text text-anchor="middle" x="672.7549" y="-338.0709" font-family="Courier,monospace" font-size="11.00" fill="#000000">SolrConfigureTask</text>
</g>
<!-- \\SilverStripe\\Dev\\BuildTask -->
<g id="node68" class="node">
<title>\\SilverStripe\\Dev\\BuildTask</title>
<ellipse fill="none" stroke="#000000" cx="254.1275" cy="-3424.8709" rx="139.9756" ry="18"/>
<text text-anchor="middle" x="254.1275" y="-3421.1709" font-family="Times,serif" font-size="14.00" fill="#c0c0c0">\SilverStripe\Dev\BuildTask</text>
</g>
<!-- \\Firesphere\\SolrSearch\\Tasks\\SolrConfigureTask&#45;&gt;\\SilverStripe\\Dev\\BuildTask -->
<g id="edge18" class="edge">
<title>\\Firesphere\\SolrSearch\\Tasks\\SolrConfigureTask&#45;&gt;\\SilverStripe\\Dev\\BuildTask</title>
<path fill="none" stroke="#000000" d="M607.0147,-345.9566C593.6126,-350.1091 580.9654,-356.9085 572.2549,-367.8709 508.1743,-448.5175 520.7159,-2118.6215 508.2549,-2220.8709 450.1295,-2697.8227 297.9875,-3266.0317 261.8899,-3397.0131"/>
<polygon fill="none" stroke="#000000" points="258.5081,-3396.1109 259.2167,-3406.682 265.255,-3397.9763 258.5081,-3396.1109"/>
</g>
<!-- \\Firesphere\\SolrSearch\\Tasks\\ClearErrorsTask -->
<g id="node45" class="node">
<title>\\Firesphere\\SolrSearch\\Tasks\\ClearErrorsTask</title>
<polygon fill="none" stroke="#000000" points="731.7549,-304.8709 613.7549,-304.8709 613.7549,-268.8709 731.7549,-268.8709 731.7549,-304.8709"/>
<text text-anchor="middle" x="672.7549" y="-284.0709" font-family="Courier,monospace" font-size="11.00" fill="#000000">ClearErrorsTask</text>
</g>
<!-- \\Firesphere\\SolrSearch\\Tasks\\ClearErrorsTask&#45;&gt;\\SilverStripe\\Dev\\BuildTask -->
<g id="edge19" class="edge">
<title>\\Firesphere\\SolrSearch\\Tasks\\ClearErrorsTask&#45;&gt;\\SilverStripe\\Dev\\BuildTask</title>
<path fill="none" stroke="#000000" d="M613.5372,-290.1414C597.7867,-294.0176 582.3641,-301.1355 572.2549,-313.8709 506.3496,-396.8971 521.0272,-2115.6391 508.2549,-2220.8709 450.3625,-2697.851 298.044,-3266.0386 261.9002,-3397.0143"/>
<polygon fill="none" stroke="#000000" points="258.5186,-3396.1115 259.2236,-3406.6829 265.2649,-3397.9792 258.5186,-3396.1115"/>
</g>
<!-- \\Firesphere\\SolrSearch\\Tasks\\ClearDirtyClassesTask -->
<g id="node46" class="node">
<title>\\Firesphere\\SolrSearch\\Tasks\\ClearDirtyClassesTask</title>
<polygon fill="none" stroke="#000000" points="751.7549,-466.8709 593.7549,-466.8709 593.7549,-430.8709 751.7549,-430.8709 751.7549,-466.8709"/>
<text text-anchor="middle" x="672.7549" y="-446.0709" font-family="Courier,monospace" font-size="11.00" fill="#000000">ClearDirtyClassesTask</text>
</g>
<!-- \\Firesphere\\SolrSearch\\Tasks\\ClearDirtyClassesTask&#45;&gt;\\SilverStripe\\Dev\\BuildTask -->
<g id="edge20" class="edge">
<title>\\Firesphere\\SolrSearch\\Tasks\\ClearDirtyClassesTask&#45;&gt;\\SilverStripe\\Dev\\BuildTask</title>
<path fill="none" stroke="#000000" d="M610.9454,-466.9759C595.834,-474.407 581.3961,-484.7075 572.2549,-498.8709 468.4276,-659.7401 531.6665,-2030.8422 508.2549,-2220.8709 449.5038,-2697.746 297.8355,-3266.0131 261.8622,-3397.0097"/>
<polygon fill="none" stroke="#000000" points="258.48,-3396.1093 259.1983,-3406.6798 265.2286,-3397.9685 258.48,-3396.1093"/>
</g>
<!-- \\Firesphere\\SolrSearch\\Tasks\\SolrIndexTask -->
<g id="node47" class="node">
<title>\\Firesphere\\SolrSearch\\Tasks\\SolrIndexTask</title>
<polygon fill="none" stroke="#000000" points="724.7549,-412.8709 620.7549,-412.8709 620.7549,-376.8709 724.7549,-376.8709 724.7549,-412.8709"/>
<text text-anchor="middle" x="672.7549" y="-392.0709" font-family="Courier,monospace" font-size="11.00" fill="#000000">SolrIndexTask</text>
</g>
<!-- \\Firesphere\\SolrSearch\\Tasks\\SolrIndexTask&#45;&gt;\\SilverStripe\\Dev\\BuildTask -->
<g id="edge21" class="edge">
<title>\\Firesphere\\SolrSearch\\Tasks\\SolrIndexTask&#45;&gt;\\SilverStripe\\Dev\\BuildTask</title>
<path fill="none" stroke="#000000" d="M620.646,-396.6204C602.5506,-400.0225 583.8952,-407.2369 572.2549,-421.8709 509.9989,-500.1379 520.4046,-2121.604 508.2549,-2220.8709 449.8826,-2697.7925 297.9275,-3266.0244 261.879,-3397.0117"/>
<polygon fill="none" stroke="#000000" points="258.497,-3396.1103 259.2095,-3406.6811 265.2446,-3397.9732 258.497,-3396.1103"/>
</g>
<!-- \\Firesphere\\SolrSearch\\States\\SiteState -->
<g id="node48" class="node">
<title>\\Firesphere\\SolrSearch\\States\\SiteState</title>
<polygon fill="none" stroke="#000000" points="714.7549,-224.8709 630.7549,-224.8709 630.7549,-188.8709 714.7549,-188.8709 714.7549,-224.8709"/>
<text text-anchor="start" x="638.7549" y="-210.0709" font-family="Courier,monospace" font-size="11.00" fill="#000000">«abstract»</text>
<text text-anchor="start" x="642.2549" y="-198.0709" font-family="Courier,monospace" font-size="11.00" fill="#000000">SiteState</text>
</g>
<!-- \\Firesphere\\SolrFluent\\Extensions\\FluentDocumentExtension -->
<g id="node49" class="node">
<title>\\Firesphere\\SolrFluent\\Extensions\\FluentDocumentExtension</title>
<polygon fill="none" stroke="#000000" points="1009.2549,-498.8709 837.2549,-498.8709 837.2549,-462.8709 1009.2549,-462.8709 1009.2549,-498.8709"/>
<text text-anchor="middle" x="923.2549" y="-478.0709" font-family="Courier,monospace" font-size="11.00" fill="#000000">FluentDocumentExtension</text>
</g>
<!-- \\Firesphere\\SolrFluent\\Extensions\\FluentDocumentExtension&#45;&gt;\\SilverStripe\\Core\\Extension -->
<g id="edge22" class="edge">
<title>\\Firesphere\\SolrFluent\\Extensions\\FluentDocumentExtension&#45;&gt;\\SilverStripe\\Core\\Extension</title>
<path fill="none" stroke="#000000" d="M836.8964,-466.54C831.0736,-463.1164 825.7484,-458.945 821.2549,-453.8709 735.2882,-356.7949 853.8917,-272.2856 781.2549,-164.8709 750.143,-118.8628 718.6395,-134.1645 672.7549,-102.8709"/>
</g>
<!-- \\Firesphere\\SolrFluent\\Extensions\\FluentIndexExtension -->
<g id="node50" class="node">
<title>\\Firesphere\\SolrFluent\\Extensions\\FluentIndexExtension</title>
<polygon fill="none" stroke="#000000" points="999.2549,-444.8709 847.2549,-444.8709 847.2549,-408.8709 999.2549,-408.8709 999.2549,-444.8709"/>
<text text-anchor="middle" x="923.2549" y="-424.0709" font-family="Courier,monospace" font-size="11.00" fill="#000000">FluentIndexExtension</text>
</g>
<!-- \\Firesphere\\SolrFluent\\Extensions\\FluentIndexExtension&#45;&gt;\\SilverStripe\\Core\\Extension -->
<g id="edge23" class="edge">
<title>\\Firesphere\\SolrFluent\\Extensions\\FluentIndexExtension&#45;&gt;\\SilverStripe\\Core\\Extension</title>
<path fill="none" stroke="#000000" d="M847.1955,-417.371C837.4185,-413.292 828.3596,-407.6469 821.2549,-399.8709 749.792,-321.6548 841.959,-251.7023 781.2549,-164.8709 749.4322,-119.3516 718.6395,-134.1645 672.7549,-102.8709"/>
</g>
<!-- \\Firesphere\\SolrFluent\\Extensions\\FluentSchemaExtension -->
<g id="node51" class="node">
<title>\\Firesphere\\SolrFluent\\Extensions\\FluentSchemaExtension</title>
<polygon fill="none" stroke="#000000" points="1002.2549,-390.8709 844.2549,-390.8709 844.2549,-354.8709 1002.2549,-354.8709 1002.2549,-390.8709"/>
<text text-anchor="middle" x="923.2549" y="-370.0709" font-family="Courier,monospace" font-size="11.00" fill="#000000">FluentSchemaExtension</text>
</g>
<!-- \\Firesphere\\SolrFluent\\Extensions\\FluentSchemaExtension&#45;&gt;\\SilverStripe\\Core\\Extension -->
<g id="edge24" class="edge">
<title>\\Firesphere\\SolrFluent\\Extensions\\FluentSchemaExtension&#45;&gt;\\SilverStripe\\Core\\Extension</title>
<path fill="none" stroke="#000000" d="M881.7382,-354.844C860.8033,-343.8006 836.655,-327.7489 821.2549,-306.8709 782.3337,-254.1053 821.6163,-216.5431 781.2549,-164.8709 747.066,-121.1009 718.6395,-134.1645 672.7549,-102.8709"/>
</g>
<!-- \\Firesphere\\SolrFluent\\States\\FluentSiteState -->
<g id="node52" class="node">
<title>\\Firesphere\\SolrFluent\\States\\FluentSiteState</title>
<polygon fill="none" stroke="#000000" points="982.2549,-578.8709 864.2549,-578.8709 864.2549,-542.8709 982.2549,-542.8709 982.2549,-578.8709"/>
<text text-anchor="middle" x="923.2549" y="-558.0709" font-family="Courier,monospace" font-size="11.00" fill="#000000">FluentSiteState</text>
</g>
<!-- \\Firesphere\\SolrFluent\\States\\FluentSiteState&#45;&gt;\\Firesphere\\SolrSearch\\Interfaces\\SiteStateInterface -->
<g id="edge26" class="edge">
<title>\\Firesphere\\SolrFluent\\States\\FluentSiteState&#45;&gt;\\Firesphere\\SolrSearch\\Interfaces\\SiteStateInterface</title>
<path fill="none" stroke="#000000" stroke-dasharray="1,5" d="M864.2214,-555.5775C848.0697,-551.2415 832.0583,-543.7328 821.2549,-530.8709 770.3369,-470.2506 838.5643,-231.4885 781.2549,-176.8709 746.2741,-143.5331 720.7915,-164.6223 672.7549,-169.8709"/>
<path fill="none" stroke="#000000" stroke-dasharray="1,5" d="M672.7549,-169.8709C628.2449,-174.7341 605.3529,-146.7161 572.2549,-176.8709 422.7739,-313.0591 277.4156,-1859.7224 256.6558,-2088.6305"/>
<polygon fill="none" stroke="#000000" points="253.1507,-2088.5304 255.7367,-2098.8048 260.1223,-2089.1603 253.1507,-2088.5304"/>
</g>
<!-- \\Firesphere\\SolrFluent\\States\\FluentSiteState&#45;&gt;\\Firesphere\\SolrSearch\\States\\SiteState -->
<g id="edge25" class="edge">
<title>\\Firesphere\\SolrFluent\\States\\FluentSiteState&#45;&gt;\\Firesphere\\SolrSearch\\States\\SiteState</title>
<path fill="none" stroke="#000000" d="M864.2136,-555.2851C848.1604,-550.9313 832.205,-543.4862 821.2549,-530.8709 740.5826,-437.9308 854.945,-355.4389 781.2549,-256.8709 767.4783,-238.4433 745.268,-226.5975 724.5199,-219.0894"/>
<polygon fill="none" stroke="#000000" points="725.4054,-215.695 714.8116,-215.8397 723.1834,-222.333 725.4054,-215.695"/>
</g>
<!-- \\Firesphere\\SolrSubsites\\Extensions\\SubsitesExtension -->
<g id="node53" class="node">
<title>\\Firesphere\\SolrSubsites\\Extensions\\SubsitesExtension</title>
<polygon fill="none" stroke="#000000" points="988.7549,-810.8709 857.7549,-810.8709 857.7549,-774.8709 988.7549,-774.8709 988.7549,-810.8709"/>
<text text-anchor="middle" x="923.2549" y="-790.0709" font-family="Courier,monospace" font-size="11.00" fill="#000000">SubsitesExtension</text>
</g>
<!-- \\Firesphere\\SolrSubsites\\Extensions\\SubsitesExtension&#45;&gt;\\SilverStripe\\Core\\Extension -->
<g id="edge27" class="edge">
<title>\\Firesphere\\SolrSubsites\\Extensions\\SubsitesExtension&#45;&gt;\\SilverStripe\\Core\\Extension</title>
<path fill="none" stroke="#000000" d="M877.5934,-774.8262C856.7707,-764.1269 833.9716,-748.3882 821.2549,-726.8709 757.5526,-619.0828 847.9054,-270.8613 781.2549,-164.8709 751.6892,-117.8543 718.6395,-134.1645 672.7549,-102.8709"/>
</g>
<!-- \\Firesphere\\SolrSubsites\\States\\SubsiteState -->
<g id="node54" class="node">
<title>\\Firesphere\\SolrSubsites\\States\\SubsiteState</title>
<polygon fill="none" stroke="#000000" points="972.2549,-890.8709 874.2549,-890.8709 874.2549,-854.8709 972.2549,-854.8709 972.2549,-890.8709"/>
<text text-anchor="middle" x="923.2549" y="-870.0709" font-family="Courier,monospace" font-size="11.00" fill="#000000">SubsiteState</text>
</g>
<!-- \\Firesphere\\SolrSubsites\\States\\SubsiteState&#45;&gt;\\Firesphere\\SolrSearch\\Interfaces\\SiteStateInterface -->
<g id="edge29" class="edge">
<title>\\Firesphere\\SolrSubsites\\States\\SubsiteState&#45;&gt;\\Firesphere\\SolrSearch\\Interfaces\\SiteStateInterface</title>
<path fill="none" stroke="#000000" stroke-dasharray="1,5" d="M874.1722,-870.278C854.6995,-866.5991 833.9586,-858.8281 821.2549,-842.8709 728.9086,-726.8744 885.8623,-281.9437 781.2549,-176.8709 747.1617,-142.626 720.7915,-164.6223 672.7549,-169.8709"/>
</g>
<!-- \\Firesphere\\SolrSubsites\\States\\SubsiteState&#45;&gt;\\Firesphere\\SolrSearch\\States\\SiteState -->
<g id="edge28" class="edge">
<title>\\Firesphere\\SolrSubsites\\States\\SubsiteState&#45;&gt;\\Firesphere\\SolrSearch\\States\\SiteState</title>
<path fill="none" stroke="#000000" d="M874.2353,-870.2276C854.7734,-866.54 834.0237,-858.7761 821.2549,-842.8709 739.5424,-741.0872 855.3384,-364.3347 781.2549,-256.8709 768.0348,-237.6942 745.5341,-225.7203 724.4391,-218.3203"/>
<polygon fill="none" stroke="#000000" points="725.4759,-214.9771 714.8842,-215.2326 723.3235,-221.638 725.4759,-214.9771"/>
</g>
<!-- \\Firesphere\\SolrPermissions\\Extensions\\BaseIndexExtension -->
<g id="node55" class="node">
<title>\\Firesphere\\SolrPermissions\\Extensions\\BaseIndexExtension</title>
<polygon fill="none" stroke="#000000" points="992.2549,-220.8709 854.2549,-220.8709 854.2549,-184.8709 992.2549,-184.8709 992.2549,-220.8709"/>
<text text-anchor="middle" x="923.2549" y="-200.0709" font-family="Courier,monospace" font-size="11.00" fill="#000000">BaseIndexExtension</text>
</g>
<!-- \\Firesphere\\SolrPermissions\\Extensions\\BaseIndexExtension&#45;&gt;\\SilverStripe\\Core\\Extension -->
<g id="edge30" class="edge">
<title>\\Firesphere\\SolrPermissions\\Extensions\\BaseIndexExtension&#45;&gt;\\SilverStripe\\Core\\Extension</title>
<path fill="none" stroke="#000000" d="M894.9736,-184.7287C867.0666,-167.5639 822.6864,-142.2088 781.2549,-126.8709 734.9389,-109.7247 713.5569,-130.6981 672.7549,-102.8709"/>
<path fill="none" stroke="#000000" d="M672.7549,-102.8709C595.5166,-50.1938 492.774,-29.0327 408.4048,-21.1197"/>
<polygon fill="none" stroke="#000000" points="408.4791,-17.6127 398.2099,-20.2191 407.8631,-24.5855 408.4791,-17.6127"/>
</g>
<!-- \\Firesphere\\SolrPermissions\\Extensions\\DataObjectExtension -->
<g id="node56" class="node">
<title>\\Firesphere\\SolrPermissions\\Extensions\\DataObjectExtension</title>
<polygon fill="none" stroke="#000000" points="995.7549,-274.8709 850.7549,-274.8709 850.7549,-238.8709 995.7549,-238.8709 995.7549,-274.8709"/>
<text text-anchor="middle" x="923.2549" y="-254.0709" font-family="Courier,monospace" font-size="11.00" fill="#000000">DataObjectExtension</text>
</g>
<!-- \\Firesphere\\SolrPermissions\\Extensions\\DataObjectExtension&#45;&gt;\\SilverStripe\\ORM\\DataExtension -->
<g id="edge31" class="edge">
<title>\\Firesphere\\SolrPermissions\\Extensions\\DataObjectExtension&#45;&gt;\\SilverStripe\\ORM\\DataExtension</title>
<path fill="none" stroke="#000000" d="M850.688,-245.0573C840.1962,-241.3078 830.004,-236.3708 821.2549,-229.8709 794.0261,-209.642 808.814,-184.6475 781.2549,-164.8709 703.8221,-109.3045 664.7691,-139.7746 572.2549,-116.8709 543.6866,-109.7982 537.1957,-105.2192 508.2549,-99.8709 473.46,-93.4407 435.681,-88.3966 400.1541,-84.4989"/>
<polygon fill="none" stroke="#000000" points="400.5143,-81.0176 390.1977,-83.4298 399.7668,-87.9775 400.5143,-81.0176"/>
</g>
<!-- \\SilverStripe\\FullTextSearch\\Solr\\SolrIndex -->
<g id="node57" class="node">
<title>\\SilverStripe\\FullTextSearch\\Solr\\SolrIndex</title>
<polygon fill="none" stroke="#000000" points="965.2549,-3286.8709 881.2549,-3286.8709 881.2549,-3250.8709 965.2549,-3250.8709 965.2549,-3286.8709"/>
<text text-anchor="start" x="889.2549" y="-3272.0709" font-family="Courier,monospace" font-size="11.00" fill="#000000">«abstract»</text>
<text text-anchor="start" x="892.7549" y="-3260.0709" font-family="Courier,monospace" font-size="11.00" fill="#000000">SolrIndex</text>
</g>
<!-- \\SilverStripe\\FullTextSearch\\Solr\\SolrIndex&#45;&gt;\\Firesphere\\SolrSearch\\Indexes\\BaseIndex -->
<g id="edge2" class="edge">
<title>\\SilverStripe\\FullTextSearch\\Solr\\SolrIndex&#45;&gt;\\Firesphere\\SolrSearch\\Indexes\\BaseIndex</title>
<path fill="none" stroke="#000000" d="M881.0034,-3268.298C859.9943,-3265.691 836.0048,-3258.782 821.2549,-3241.8709 725.5938,-3132.1932 867.08,-3034.4051 781.2549,-2916.8709 767.6865,-2898.2895 745.504,-2886.4231 724.7205,-2878.9412"/>
<polygon fill="none" stroke="#000000" points="725.5846,-2875.5402 714.991,-2875.7072 723.3765,-2882.1829 725.5846,-2875.5402"/>
</g>
<!-- \\SilverStripe\\FullTextSearch\\Solr\\Solr -->
<g id="node58" class="node">
<title>\\SilverStripe\\FullTextSearch\\Solr\\Solr</title>
<polygon fill="none" stroke="#000000" points="950.2549,-3232.8709 896.2549,-3232.8709 896.2549,-3196.8709 950.2549,-3196.8709 950.2549,-3232.8709"/>
<text text-anchor="middle" x="923.2549" y="-3212.0709" font-family="Courier,monospace" font-size="11.00" fill="#000000">Solr</text>
</g>
<!-- \\SilverStripe\\FullTextSearch\\Search\\Queries\\SearchQuery -->
<g id="node59" class="node">
<title>\\SilverStripe\\FullTextSearch\\Search\\Queries\\SearchQuery</title>
<polygon fill="none" stroke="#000000" points="968.7549,-3124.8709 877.7549,-3124.8709 877.7549,-3088.8709 968.7549,-3088.8709 968.7549,-3124.8709"/>
<text text-anchor="middle" x="923.2549" y="-3104.0709" font-family="Courier,monospace" font-size="11.00" fill="#000000">SearchQuery</text>
</g>
<!-- \\SilverStripe\\FullTextSearch\\Search\\Queries\\SearchQuery&#45;&gt;\\Firesphere\\SolrSearch\\Queries\\BaseQuery -->
<g id="edge3" class="edge">
<title>\\SilverStripe\\FullTextSearch\\Search\\Queries\\SearchQuery&#45;&gt;\\Firesphere\\SolrSearch\\Queries\\BaseQuery</title>
<path fill="none" stroke="#000000" d="M922.4987,-3088.7502C913.1109,-2864.5384 818.835,-634.0922 781.2549,-578.8709 767.4308,-558.5573 743.1656,-546.337 721.0835,-539.0695"/>
<polygon fill="none" stroke="#000000" points="722.0497,-535.7052 711.4645,-536.1584 720.0219,-542.4051 722.0497,-535.7052"/>
</g>
</g>
</svg>
