<?xml version="1.0" encoding="UTF-8" standalone="no"?>
<!DOCTYPE svg PUBLIC "-//W3C//DTD SVG 1.1//EN"
 "http://www.w3.org/Graphics/SVG/1.1/DTD/svg11.dtd">
<!-- Generated by graphviz version 2.40.1 (20161225.0304)
 -->
<!-- Title: G Pages: 1 -->
<svg width="984pt" height="3652pt"
 viewBox="0.00 0.00 984.25 3652.06" xmlns="http://www.w3.org/2000/svg" xmlns:xlink="http://www.w3.org/1999/xlink">
<g id="graph0" class="graph" transform="scale(1 1) rotate(0) translate(4 3648.0593)">
<title>G</title>
<polygon fill="#ffffff" stroke="transparent" points="-4,4 -4,-3648.0593 980.2549,-3648.0593 980.2549,4 -4,4"/>
<g id="clust1" class="cluster">
<title>cluster_Global</title>
<path fill="none" stroke="#c0c0c0" d="M165.1275,-476.0593C165.1275,-476.0593 956.2549,-476.0593 956.2549,-476.0593 962.2549,-476.0593 968.2549,-482.0593 968.2549,-488.0593 968.2549,-488.0593 968.2549,-3624.0593 968.2549,-3624.0593 968.2549,-3630.0593 962.2549,-3636.0593 956.2549,-3636.0593 956.2549,-3636.0593 165.1275,-3636.0593 165.1275,-3636.0593 159.1275,-3636.0593 153.1275,-3630.0593 153.1275,-3624.0593 153.1275,-3624.0593 153.1275,-488.0593 153.1275,-488.0593 153.1275,-482.0593 159.1275,-476.0593 165.1275,-476.0593"/>
<text text-anchor="middle" x="560.6912" y="-3623.2593" font-family="Times,serif" font-size="11.00" fill="#c0c0c0">Global</text>
</g>
<g id="clust2" class="cluster">
<title>cluster_\SilverStripe</title>
<path fill="none" stroke="#c0c0c0" d="M817.2549,-988.0593C817.2549,-988.0593 948.2549,-988.0593 948.2549,-988.0593 954.2549,-988.0593 960.2549,-994.0593 960.2549,-1000.0593 960.2549,-1000.0593 960.2549,-1290.0593 960.2549,-1290.0593 960.2549,-1296.0593 954.2549,-1302.0593 948.2549,-1302.0593 948.2549,-1302.0593 817.2549,-1302.0593 817.2549,-1302.0593 811.2549,-1302.0593 805.2549,-1296.0593 805.2549,-1290.0593 805.2549,-1290.0593 805.2549,-1000.0593 805.2549,-1000.0593 805.2549,-994.0593 811.2549,-988.0593 817.2549,-988.0593"/>
<text text-anchor="middle" x="882.7549" y="-1289.2593" font-family="Times,serif" font-size="11.00" fill="#c0c0c0">SilverStripe</text>
</g>
<g id="clust3" class="cluster">
<title>cluster_\SilverStripe\FullTextSearch</title>
<path fill="none" stroke="#c0c0c0" d="M825.2549,-996.0593C825.2549,-996.0593 940.2549,-996.0593 940.2549,-996.0593 946.2549,-996.0593 952.2549,-1002.0593 952.2549,-1008.0593 952.2549,-1008.0593 952.2549,-1262.0593 952.2549,-1262.0593 952.2549,-1268.0593 946.2549,-1274.0593 940.2549,-1274.0593 940.2549,-1274.0593 825.2549,-1274.0593 825.2549,-1274.0593 819.2549,-1274.0593 813.2549,-1268.0593 813.2549,-1262.0593 813.2549,-1262.0593 813.2549,-1008.0593 813.2549,-1008.0593 813.2549,-1002.0593 819.2549,-996.0593 825.2549,-996.0593"/>
<text text-anchor="middle" x="882.7549" y="-1261.2593" font-family="Times,serif" font-size="11.00" fill="#c0c0c0">FullTextSearch</text>
</g>
<g id="clust4" class="cluster">
<title>cluster_\SilverStripe\FullTextSearch\Search</title>
<path fill="none" stroke="#c0c0c0" d="M833.2549,-1138.0593C833.2549,-1138.0593 932.2549,-1138.0593 932.2549,-1138.0593 938.2549,-1138.0593 944.2549,-1144.0593 944.2549,-1150.0593 944.2549,-1150.0593 944.2549,-1234.0593 944.2549,-1234.0593 944.2549,-1240.0593 938.2549,-1246.0593 932.2549,-1246.0593 932.2549,-1246.0593 833.2549,-1246.0593 833.2549,-1246.0593 827.2549,-1246.0593 821.2549,-1240.0593 821.2549,-1234.0593 821.2549,-1234.0593 821.2549,-1150.0593 821.2549,-1150.0593 821.2549,-1144.0593 827.2549,-1138.0593 833.2549,-1138.0593"/>
<text text-anchor="middle" x="882.7549" y="-1233.2593" font-family="Times,serif" font-size="11.00" fill="#c0c0c0">Search</text>
</g>
<g id="clust5" class="cluster">
<title>cluster_\SilverStripe\FullTextSearch\Search\Queries</title>
<path fill="none" stroke="#c0c0c0" d="M841.2549,-1146.0593C841.2549,-1146.0593 924.2549,-1146.0593 924.2549,-1146.0593 930.2549,-1146.0593 936.2549,-1152.0593 936.2549,-1158.0593 936.2549,-1158.0593 936.2549,-1206.0593 936.2549,-1206.0593 936.2549,-1212.0593 930.2549,-1218.0593 924.2549,-1218.0593 924.2549,-1218.0593 841.2549,-1218.0593 841.2549,-1218.0593 835.2549,-1218.0593 829.2549,-1212.0593 829.2549,-1206.0593 829.2549,-1206.0593 829.2549,-1158.0593 829.2549,-1158.0593 829.2549,-1152.0593 835.2549,-1146.0593 841.2549,-1146.0593"/>
<text text-anchor="middle" x="882.7549" y="-1205.2593" font-family="Times,serif" font-size="11.00" fill="#c0c0c0">Queries</text>
</g>
<g id="clust6" class="cluster">
<title>cluster_\SilverStripe\FullTextSearch\Solr</title>
<path fill="none" stroke="#c0c0c0" d="M844.7549,-1004.0593C844.7549,-1004.0593 920.7549,-1004.0593 920.7549,-1004.0593 926.7549,-1004.0593 932.7549,-1010.0593 932.7549,-1016.0593 932.7549,-1016.0593 932.7549,-1118.0593 932.7549,-1118.0593 932.7549,-1124.0593 926.7549,-1130.0593 920.7549,-1130.0593 920.7549,-1130.0593 844.7549,-1130.0593 844.7549,-1130.0593 838.7549,-1130.0593 832.7549,-1124.0593 832.7549,-1118.0593 832.7549,-1118.0593 832.7549,-1016.0593 832.7549,-1016.0593 832.7549,-1010.0593 838.7549,-1004.0593 844.7549,-1004.0593"/>
<text text-anchor="middle" x="882.7549" y="-1117.2593" font-family="Times,serif" font-size="11.00" fill="#c0c0c0">Solr</text>
</g>
<g id="clust7" class="cluster">
<title>cluster_\Firesphere</title>
<path fill="none" stroke="#c0c0c0" d="M173.1275,-484.0593C173.1275,-484.0593 777.2549,-484.0593 777.2549,-484.0593 783.2549,-484.0593 789.2549,-490.0593 789.2549,-496.0593 789.2549,-496.0593 789.2549,-3596.0593 789.2549,-3596.0593 789.2549,-3602.0593 783.2549,-3608.0593 777.2549,-3608.0593 777.2549,-3608.0593 173.1275,-3608.0593 173.1275,-3608.0593 167.1275,-3608.0593 161.1275,-3602.0593 161.1275,-3596.0593 161.1275,-3596.0593 161.1275,-496.0593 161.1275,-496.0593 161.1275,-490.0593 167.1275,-484.0593 173.1275,-484.0593"/>
<text text-anchor="middle" x="475.1912" y="-3595.2593" font-family="Times,serif" font-size="11.00" fill="#c0c0c0">Firesphere</text>
</g>
<g id="clust8" class="cluster">
<title>cluster_\Firesphere\SolrSearch</title>
<path fill="none" stroke="#c0c0c0" d="M181.1275,-492.0593C181.1275,-492.0593 769.2549,-492.0593 769.2549,-492.0593 775.2549,-492.0593 781.2549,-498.0593 781.2549,-504.0593 781.2549,-504.0593 781.2549,-3568.0593 781.2549,-3568.0593 781.2549,-3574.0593 775.2549,-3580.0593 769.2549,-3580.0593 769.2549,-3580.0593 181.1275,-3580.0593 181.1275,-3580.0593 175.1275,-3580.0593 169.1275,-3574.0593 169.1275,-3568.0593 169.1275,-3568.0593 169.1275,-504.0593 169.1275,-504.0593 169.1275,-498.0593 175.1275,-492.0593 181.1275,-492.0593"/>
<text text-anchor="middle" x="475.1912" y="-3567.2593" font-family="Times,serif" font-size="11.00" fill="#c0c0c0">SolrSearch</text>
</g>
<g id="clust9" class="cluster">
<title>cluster_\Firesphere\SolrSearch\Compat</title>
<path fill="none" stroke="#c0c0c0" d="M590.7549,-3480.0593C590.7549,-3480.0593 754.7549,-3480.0593 754.7549,-3480.0593 760.7549,-3480.0593 766.7549,-3486.0593 766.7549,-3492.0593 766.7549,-3492.0593 766.7549,-3540.0593 766.7549,-3540.0593 766.7549,-3546.0593 760.7549,-3552.0593 754.7549,-3552.0593 754.7549,-3552.0593 590.7549,-3552.0593 590.7549,-3552.0593 584.7549,-3552.0593 578.7549,-3546.0593 578.7549,-3540.0593 578.7549,-3540.0593 578.7549,-3492.0593 578.7549,-3492.0593 578.7549,-3486.0593 584.7549,-3480.0593 590.7549,-3480.0593"/>
<text text-anchor="middle" x="672.7549" y="-3539.2593" font-family="Times,serif" font-size="11.00" fill="#c0c0c0">Compat</text>
</g>
<g id="clust10" class="cluster">
<title>cluster_\Firesphere\SolrSearch\States</title>
<path fill="none" stroke="#c0c0c0" d="M634.7549,-3400.0593C634.7549,-3400.0593 710.7549,-3400.0593 710.7549,-3400.0593 716.7549,-3400.0593 722.7549,-3406.0593 722.7549,-3412.0593 722.7549,-3412.0593 722.7549,-3460.0593 722.7549,-3460.0593 722.7549,-3466.0593 716.7549,-3472.0593 710.7549,-3472.0593 710.7549,-3472.0593 634.7549,-3472.0593 634.7549,-3472.0593 628.7549,-3472.0593 622.7549,-3466.0593 622.7549,-3460.0593 622.7549,-3460.0593 622.7549,-3412.0593 622.7549,-3412.0593 622.7549,-3406.0593 628.7549,-3400.0593 634.7549,-3400.0593"/>
<text text-anchor="middle" x="672.7549" y="-3459.2593" font-family="Times,serif" font-size="11.00" fill="#c0c0c0">States</text>
</g>
<g id="clust11" class="cluster">
<title>cluster_\Firesphere\SolrSearch\Traits</title>
<path fill="none" stroke="#c0c0c0" d="M584.2549,-2510.0593C584.2549,-2510.0593 761.2549,-2510.0593 761.2549,-2510.0593 767.2549,-2510.0593 773.2549,-2516.0593 773.2549,-2522.0593 773.2549,-2522.0593 773.2549,-3380.0593 773.2549,-3380.0593 773.2549,-3386.0593 767.2549,-3392.0593 761.2549,-3392.0593 761.2549,-3392.0593 584.2549,-3392.0593 584.2549,-3392.0593 578.2549,-3392.0593 572.2549,-3386.0593 572.2549,-3380.0593 572.2549,-3380.0593 572.2549,-2522.0593 572.2549,-2522.0593 572.2549,-2516.0593 578.2549,-2510.0593 584.2549,-2510.0593"/>
<text text-anchor="middle" x="672.7549" y="-3379.2593" font-family="Times,serif" font-size="11.00" fill="#c0c0c0">Traits</text>
</g>
<g id="clust12" class="cluster">
<title>cluster_\Firesphere\SolrSearch\Helpers</title>
<path fill="none" stroke="#c0c0c0" d="M624.7549,-2214.0593C624.7549,-2214.0593 720.7549,-2214.0593 720.7549,-2214.0593 726.7549,-2214.0593 732.7549,-2220.0593 732.7549,-2226.0593 732.7549,-2226.0593 732.7549,-2490.0593 732.7549,-2490.0593 732.7549,-2496.0593 726.7549,-2502.0593 720.7549,-2502.0593 720.7549,-2502.0593 624.7549,-2502.0593 624.7549,-2502.0593 618.7549,-2502.0593 612.7549,-2496.0593 612.7549,-2490.0593 612.7549,-2490.0593 612.7549,-2226.0593 612.7549,-2226.0593 612.7549,-2220.0593 618.7549,-2214.0593 624.7549,-2214.0593"/>
<text text-anchor="middle" x="672.7549" y="-2489.2593" font-family="Times,serif" font-size="11.00" fill="#c0c0c0">Helpers</text>
</g>
<g id="clust13" class="cluster">
<title>cluster_\Firesphere\SolrSearch\Interfaces</title>
<path fill="none" stroke="#c0c0c0" d="M189.1275,-1329.0593C189.1275,-1329.0593 319.1275,-1329.0593 319.1275,-1329.0593 325.1275,-1329.0593 331.1275,-1335.0593 331.1275,-1341.0593 331.1275,-1341.0593 331.1275,-1443.0593 331.1275,-1443.0593 331.1275,-1449.0593 325.1275,-1455.0593 319.1275,-1455.0593 319.1275,-1455.0593 189.1275,-1455.0593 189.1275,-1455.0593 183.1275,-1455.0593 177.1275,-1449.0593 177.1275,-1443.0593 177.1275,-1443.0593 177.1275,-1341.0593 177.1275,-1341.0593 177.1275,-1335.0593 183.1275,-1329.0593 189.1275,-1329.0593"/>
<text text-anchor="middle" x="254.1275" y="-1442.2593" font-family="Times,serif" font-size="11.00" fill="#c0c0c0">Interfaces</text>
</g>
<g id="clust14" class="cluster">
<title>cluster_\Firesphere\SolrSearch\Services</title>
<path fill="none" stroke="#c0c0c0" d="M617.7549,-2080.0593C617.7549,-2080.0593 727.7549,-2080.0593 727.7549,-2080.0593 733.7549,-2080.0593 739.7549,-2086.0593 739.7549,-2092.0593 739.7549,-2092.0593 739.7549,-2194.0593 739.7549,-2194.0593 739.7549,-2200.0593 733.7549,-2206.0593 727.7549,-2206.0593 727.7549,-2206.0593 617.7549,-2206.0593 617.7549,-2206.0593 611.7549,-2206.0593 605.7549,-2200.0593 605.7549,-2194.0593 605.7549,-2194.0593 605.7549,-2092.0593 605.7549,-2092.0593 605.7549,-2086.0593 611.7549,-2080.0593 617.7549,-2080.0593"/>
<text text-anchor="middle" x="672.7549" y="-2193.2593" font-family="Times,serif" font-size="11.00" fill="#c0c0c0">Services</text>
</g>
<g id="clust15" class="cluster">
<title>cluster_\Firesphere\SolrSearch\Jobs</title>
<path fill="none" stroke="#c0c0c0" d="M600.7549,-1892.0593C600.7549,-1892.0593 744.7549,-1892.0593 744.7549,-1892.0593 750.7549,-1892.0593 756.7549,-1898.0593 756.7549,-1904.0593 756.7549,-1904.0593 756.7549,-2060.0593 756.7549,-2060.0593 756.7549,-2066.0593 750.7549,-2072.0593 744.7549,-2072.0593 744.7549,-2072.0593 600.7549,-2072.0593 600.7549,-2072.0593 594.7549,-2072.0593 588.7549,-2066.0593 588.7549,-2060.0593 588.7549,-2060.0593 588.7549,-1904.0593 588.7549,-1904.0593 588.7549,-1898.0593 594.7549,-1892.0593 600.7549,-1892.0593"/>
<text text-anchor="middle" x="672.7549" y="-2059.2593" font-family="Times,serif" font-size="11.00" fill="#c0c0c0">Jobs</text>
</g>
<g id="clust16" class="cluster">
<title>cluster_\Firesphere\SolrSearch\Forms</title>
<path fill="none" stroke="#c0c0c0" d="M634.7549,-1812.0593C634.7549,-1812.0593 710.7549,-1812.0593 710.7549,-1812.0593 716.7549,-1812.0593 722.7549,-1818.0593 722.7549,-1824.0593 722.7549,-1824.0593 722.7549,-1872.0593 722.7549,-1872.0593 722.7549,-1878.0593 716.7549,-1884.0593 710.7549,-1884.0593 710.7549,-1884.0593 634.7549,-1884.0593 634.7549,-1884.0593 628.7549,-1884.0593 622.7549,-1878.0593 622.7549,-1872.0593 622.7549,-1872.0593 622.7549,-1824.0593 622.7549,-1824.0593 622.7549,-1818.0593 628.7549,-1812.0593 634.7549,-1812.0593"/>
<text text-anchor="middle" x="672.7549" y="-1871.2593" font-family="Times,serif" font-size="11.00" fill="#c0c0c0">Forms</text>
</g>
<g id="clust17" class="cluster">
<title>cluster_\Firesphere\SolrSearch\Tasks</title>
<path fill="none" stroke="#c0c0c0" d="M597.7549,-1570.0593C597.7549,-1570.0593 747.7549,-1570.0593 747.7549,-1570.0593 753.7549,-1570.0593 759.7549,-1576.0593 759.7549,-1582.0593 759.7549,-1582.0593 759.7549,-1792.0593 759.7549,-1792.0593 759.7549,-1798.0593 753.7549,-1804.0593 747.7549,-1804.0593 747.7549,-1804.0593 597.7549,-1804.0593 597.7549,-1804.0593 591.7549,-1804.0593 585.7549,-1798.0593 585.7549,-1792.0593 585.7549,-1792.0593 585.7549,-1582.0593 585.7549,-1582.0593 585.7549,-1576.0593 591.7549,-1570.0593 597.7549,-1570.0593"/>
<text text-anchor="middle" x="672.7549" y="-1791.2593" font-family="Times,serif" font-size="11.00" fill="#c0c0c0">Tasks</text>
</g>
<g id="clust18" class="cluster">
<title>cluster_\Firesphere\SolrSearch\Indexes</title>
<path fill="none" stroke="#c0c0c0" d="M634.7549,-1490.0593C634.7549,-1490.0593 710.7549,-1490.0593 710.7549,-1490.0593 716.7549,-1490.0593 722.7549,-1496.0593 722.7549,-1502.0593 722.7549,-1502.0593 722.7549,-1550.0593 722.7549,-1550.0593 722.7549,-1556.0593 716.7549,-1562.0593 710.7549,-1562.0593 710.7549,-1562.0593 634.7549,-1562.0593 634.7549,-1562.0593 628.7549,-1562.0593 622.7549,-1556.0593 622.7549,-1550.0593 622.7549,-1550.0593 622.7549,-1502.0593 622.7549,-1502.0593 622.7549,-1496.0593 628.7549,-1490.0593 634.7549,-1490.0593"/>
<text text-anchor="middle" x="672.7549" y="-1549.2593" font-family="Times,serif" font-size="11.00" fill="#c0c0c0">Indexes</text>
</g>
<g id="clust19" class="cluster">
<title>cluster_\Firesphere\SolrSearch\Models</title>
<path fill="none" stroke="#c0c0c0" d="M624.7549,-1168.0593C624.7549,-1168.0593 720.7549,-1168.0593 720.7549,-1168.0593 726.7549,-1168.0593 732.7549,-1174.0593 732.7549,-1180.0593 732.7549,-1180.0593 732.7549,-1336.0593 732.7549,-1336.0593 732.7549,-1342.0593 726.7549,-1348.0593 720.7549,-1348.0593 720.7549,-1348.0593 624.7549,-1348.0593 624.7549,-1348.0593 618.7549,-1348.0593 612.7549,-1342.0593 612.7549,-1336.0593 612.7549,-1336.0593 612.7549,-1180.0593 612.7549,-1180.0593 612.7549,-1174.0593 618.7549,-1168.0593 624.7549,-1168.0593"/>
<text text-anchor="middle" x="672.7549" y="-1335.2593" font-family="Times,serif" font-size="11.00" fill="#c0c0c0">Models</text>
</g>
<g id="clust20" class="cluster">
<title>cluster_\Firesphere\SolrSearch\Admins</title>
<path fill="none" stroke="#c0c0c0" d="M631.2549,-1088.0593C631.2549,-1088.0593 714.2549,-1088.0593 714.2549,-1088.0593 720.2549,-1088.0593 726.2549,-1094.0593 726.2549,-1100.0593 726.2549,-1100.0593 726.2549,-1148.0593 726.2549,-1148.0593 726.2549,-1154.0593 720.2549,-1160.0593 714.2549,-1160.0593 714.2549,-1160.0593 631.2549,-1160.0593 631.2549,-1160.0593 625.2549,-1160.0593 619.2549,-1154.0593 619.2549,-1148.0593 619.2549,-1148.0593 619.2549,-1100.0593 619.2549,-1100.0593 619.2549,-1094.0593 625.2549,-1088.0593 631.2549,-1088.0593"/>
<text text-anchor="middle" x="672.7549" y="-1147.2593" font-family="Times,serif" font-size="11.00" fill="#c0c0c0">Admins</text>
</g>
<g id="clust21" class="cluster">
<title>cluster_\Firesphere\SolrSearch\Stores</title>
<path fill="none" stroke="#c0c0c0" d="M617.7549,-1356.0593C617.7549,-1356.0593 727.7549,-1356.0593 727.7549,-1356.0593 733.7549,-1356.0593 739.7549,-1362.0593 739.7549,-1368.0593 739.7549,-1368.0593 739.7549,-1470.0593 739.7549,-1470.0593 739.7549,-1476.0593 733.7549,-1482.0593 727.7549,-1482.0593 727.7549,-1482.0593 617.7549,-1482.0593 617.7549,-1482.0593 611.7549,-1482.0593 605.7549,-1476.0593 605.7549,-1470.0593 605.7549,-1470.0593 605.7549,-1368.0593 605.7549,-1368.0593 605.7549,-1362.0593 611.7549,-1356.0593 617.7549,-1356.0593"/>
<text text-anchor="middle" x="672.7549" y="-1469.2593" font-family="Times,serif" font-size="11.00" fill="#c0c0c0">Stores</text>
</g>
<g id="clust22" class="cluster">
<title>cluster_\Firesphere\SolrSearch\Factories</title>
<path fill="none" stroke="#c0c0c0" d="M597.7549,-954.0593C597.7549,-954.0593 747.7549,-954.0593 747.7549,-954.0593 753.7549,-954.0593 759.7549,-960.0593 759.7549,-966.0593 759.7549,-966.0593 759.7549,-1068.0593 759.7549,-1068.0593 759.7549,-1074.0593 753.7549,-1080.0593 747.7549,-1080.0593 747.7549,-1080.0593 597.7549,-1080.0593 597.7549,-1080.0593 591.7549,-1080.0593 585.7549,-1074.0593 585.7549,-1068.0593 585.7549,-1068.0593 585.7549,-966.0593 585.7549,-966.0593 585.7549,-960.0593 591.7549,-954.0593 597.7549,-954.0593"/>
<text text-anchor="middle" x="672.7549" y="-1067.2593" font-family="Times,serif" font-size="11.00" fill="#c0c0c0">Factories</text>
</g>
<g id="clust23" class="cluster">
<title>cluster_\Firesphere\SolrSearch\Extensions</title>
<path fill="none" stroke="#c0c0c0" d="M604.2549,-820.0593C604.2549,-820.0593 741.2549,-820.0593 741.2549,-820.0593 747.2549,-820.0593 753.2549,-826.0593 753.2549,-832.0593 753.2549,-832.0593 753.2549,-934.0593 753.2549,-934.0593 753.2549,-940.0593 747.2549,-946.0593 741.2549,-946.0593 741.2549,-946.0593 604.2549,-946.0593 604.2549,-946.0593 598.2549,-946.0593 592.2549,-940.0593 592.2549,-934.0593 592.2549,-934.0593 592.2549,-832.0593 592.2549,-832.0593 592.2549,-826.0593 598.2549,-820.0593 604.2549,-820.0593"/>
<text text-anchor="middle" x="672.7549" y="-933.2593" font-family="Times,serif" font-size="11.00" fill="#c0c0c0">Extensions</text>
</g>
<g id="clust24" class="cluster">
<title>cluster_\Firesphere\SolrSearch\Results</title>
<path fill="none" stroke="#c0c0c0" d="M627.7549,-740.0593C627.7549,-740.0593 717.7549,-740.0593 717.7549,-740.0593 723.7549,-740.0593 729.7549,-746.0593 729.7549,-752.0593 729.7549,-752.0593 729.7549,-800.0593 729.7549,-800.0593 729.7549,-806.0593 723.7549,-812.0593 717.7549,-812.0593 717.7549,-812.0593 627.7549,-812.0593 627.7549,-812.0593 621.7549,-812.0593 615.7549,-806.0593 615.7549,-800.0593 615.7549,-800.0593 615.7549,-752.0593 615.7549,-752.0593 615.7549,-746.0593 621.7549,-740.0593 627.7549,-740.0593"/>
<text text-anchor="middle" x="672.7549" y="-799.2593" font-family="Times,serif" font-size="11.00" fill="#c0c0c0">Results</text>
</g>
<g id="clust25" class="cluster">
<title>cluster_\Firesphere\SolrSearch\Queries</title>
<path fill="none" stroke="#c0c0c0" d="M638.2549,-660.0593C638.2549,-660.0593 707.2549,-660.0593 707.2549,-660.0593 713.2549,-660.0593 719.2549,-666.0593 719.2549,-672.0593 719.2549,-672.0593 719.2549,-720.0593 719.2549,-720.0593 719.2549,-726.0593 713.2549,-732.0593 707.2549,-732.0593 707.2549,-732.0593 638.2549,-732.0593 638.2549,-732.0593 632.2549,-732.0593 626.2549,-726.0593 626.2549,-720.0593 626.2549,-720.0593 626.2549,-672.0593 626.2549,-672.0593 626.2549,-666.0593 632.2549,-660.0593 638.2549,-660.0593"/>
<text text-anchor="middle" x="672.7549" y="-719.2593" font-family="Times,serif" font-size="11.00" fill="#c0c0c0">Queries</text>
</g>
<g id="clust26" class="cluster">
<title>cluster_\Firesphere\SolrSearch\Fluent</title>
<path fill="none" stroke="#c0c0c0" d="M617.7549,-580.0593C617.7549,-580.0593 727.7549,-580.0593 727.7549,-580.0593 733.7549,-580.0593 739.7549,-586.0593 739.7549,-592.0593 739.7549,-592.0593 739.7549,-640.0593 739.7549,-640.0593 739.7549,-646.0593 733.7549,-652.0593 727.7549,-652.0593 727.7549,-652.0593 617.7549,-652.0593 617.7549,-652.0593 611.7549,-652.0593 605.7549,-646.0593 605.7549,-640.0593 605.7549,-640.0593 605.7549,-592.0593 605.7549,-592.0593 605.7549,-586.0593 611.7549,-580.0593 617.7549,-580.0593"/>
<text text-anchor="middle" x="672.7549" y="-639.2593" font-family="Times,serif" font-size="11.00" fill="#c0c0c0">Fluent</text>
</g>
<g id="clust27" class="cluster">
<title>cluster_\Firesphere\SolrSearch\Subsites</title>
<path fill="none" stroke="#c0c0c0" d="M611.2549,-500.0593C611.2549,-500.0593 734.2549,-500.0593 734.2549,-500.0593 740.2549,-500.0593 746.2549,-506.0593 746.2549,-512.0593 746.2549,-512.0593 746.2549,-560.0593 746.2549,-560.0593 746.2549,-566.0593 740.2549,-572.0593 734.2549,-572.0593 734.2549,-572.0593 611.2549,-572.0593 611.2549,-572.0593 605.2549,-572.0593 599.2549,-566.0593 599.2549,-560.0593 599.2549,-560.0593 599.2549,-512.0593 599.2549,-512.0593 599.2549,-506.0593 605.2549,-500.0593 611.2549,-500.0593"/>
<text text-anchor="middle" x="672.7549" y="-559.2593" font-family="Times,serif" font-size="11.00" fill="#c0c0c0">Subsites</text>
</g>
<!-- \\SilverStripe\\FullTextSearch\\Search\\Queries\\SearchQuery -->
<g id="node1" class="node">
<title>\\SilverStripe\\FullTextSearch\\Search\\Queries\\SearchQuery</title>
<polygon fill="none" stroke="#000000" points="928.2549,-1190.0593 837.2549,-1190.0593 837.2549,-1154.0593 928.2549,-1154.0593 928.2549,-1190.0593"/>
<text text-anchor="middle" x="882.7549" y="-1169.2593" font-family="Courier,monospace" font-size="11.00" fill="#000000">SearchQuery</text>
</g>
<!-- \\Firesphere\\SolrSearch\\Queries\\BaseQuery -->
<g id="node51" class="node">
<title>\\Firesphere\\SolrSearch\\Queries\\BaseQuery</title>
<polygon fill="none" stroke="#000000" points="711.2549,-704.0593 634.2549,-704.0593 634.2549,-668.0593 711.2549,-668.0593 711.2549,-704.0593"/>
<text text-anchor="middle" x="672.7549" y="-683.2593" font-family="Courier,monospace" font-size="11.00" fill="#000000">BaseQuery</text>
</g>
<!-- \\SilverStripe\\FullTextSearch\\Search\\Queries\\SearchQuery&#45;&gt;\\Firesphere\\SolrSearch\\Queries\\BaseQuery -->
<g id="edge1" class="edge">
<title>\\SilverStripe\\FullTextSearch\\Search\\Queries\\SearchQuery&#45;&gt;\\Firesphere\\SolrSearch\\Queries\\BaseQuery</title>
<path fill="none" stroke="#000000" d="M836.9498,-1159.2887C824.645,-1153.5881 812.7001,-1145.484 805.2549,-1134.0593 781.0913,-1096.9799 814.3464,-772.5173 789.2549,-736.0593 773.7912,-713.5906 745.9986,-701.1585 721.4373,-694.3111"/>
<polygon fill="none" stroke="#000000" points="722.0641,-690.8592 711.51,-691.7873 720.3393,-697.6434 722.0641,-690.8592"/>
</g>
<!-- \\SilverStripe\\FullTextSearch\\Solr\\Solr -->
<g id="node2" class="node">
<title>\\SilverStripe\\FullTextSearch\\Solr\\Solr</title>
<polygon fill="none" stroke="#000000" points="909.7549,-1102.0593 855.7549,-1102.0593 855.7549,-1066.0593 909.7549,-1066.0593 909.7549,-1102.0593"/>
<text text-anchor="middle" x="882.7549" y="-1081.2593" font-family="Courier,monospace" font-size="11.00" fill="#000000">Solr</text>
</g>
<!-- \\SilverStripe\\FullTextSearch\\Solr\\SolrIndex -->
<g id="node3" class="node">
<title>\\SilverStripe\\FullTextSearch\\Solr\\SolrIndex</title>
<polygon fill="none" stroke="#000000" points="924.7549,-1048.0593 840.7549,-1048.0593 840.7549,-1012.0593 924.7549,-1012.0593 924.7549,-1048.0593"/>
<text text-anchor="start" x="848.7549" y="-1033.2593" font-family="Courier,monospace" font-size="11.00" fill="#000000">«abstract»</text>
<text text-anchor="start" x="852.2549" y="-1021.2593" font-family="Courier,monospace" font-size="11.00" fill="#000000">SolrIndex</text>
</g>
<!-- \\Firesphere\\SolrSearch\\Indexes\\BaseIndex -->
<g id="node39" class="node">
<title>\\Firesphere\\SolrSearch\\Indexes\\BaseIndex</title>
<polygon fill="none" stroke="#000000" points="714.7549,-1534.0593 630.7549,-1534.0593 630.7549,-1498.0593 714.7549,-1498.0593 714.7549,-1534.0593"/>
<text text-anchor="start" x="638.7549" y="-1519.2593" font-family="Courier,monospace" font-size="11.00" fill="#000000">«abstract»</text>
<text text-anchor="start" x="642.2549" y="-1507.2593" font-family="Courier,monospace" font-size="11.00" fill="#000000">BaseIndex</text>
</g>
<!-- \\SilverStripe\\FullTextSearch\\Solr\\SolrIndex&#45;&gt;\\Firesphere\\SolrSearch\\Indexes\\BaseIndex -->
<g id="edge2" class="edge">
<title>\\SilverStripe\\FullTextSearch\\Solr\\SolrIndex&#45;&gt;\\Firesphere\\SolrSearch\\Indexes\\BaseIndex</title>
<path fill="none" stroke="#000000" d="M840.5204,-1035.2687C827.1276,-1039.1072 813.6381,-1045.7152 805.2549,-1057.0593 776.906,-1095.4209 819.1747,-1448.9099 789.2549,-1486.0593 773.9631,-1505.046 748.3957,-1512.9553 725.1025,-1515.9416"/>
<polygon fill="none" stroke="#000000" points="724.5505,-1512.4794 714.9516,-1516.9639 725.252,-1519.4442 724.5505,-1512.4794"/>
</g>
<!-- \\Firesphere\\SolrSearch\\Compat\\FulltextSearchExtension -->
<g id="node4" class="node">
<title>\\Firesphere\\SolrSearch\\Compat\\FulltextSearchExtension</title>
<polygon fill="none" stroke="#000000" points="758.7549,-3524.0593 586.7549,-3524.0593 586.7549,-3488.0593 758.7549,-3488.0593 758.7549,-3524.0593"/>
<text text-anchor="middle" x="672.7549" y="-3503.2593" font-family="Courier,monospace" font-size="11.00" fill="#000000">FulltextSearchExtension</text>
</g>
<!-- \\SilverStripe\\Core\\Extension -->
<g id="node54" class="node">
<title>\\SilverStripe\\Core\\Extension</title>
<ellipse fill="none" stroke="#000000" cx="254.1275" cy="-72.0593" rx="144.0747" ry="18"/>
<text text-anchor="middle" x="254.1275" y="-68.3593" font-family="Times,serif" font-size="14.00" fill="#c0c0c0">\SilverStripe\Core\Extension</text>
</g>
<!-- \\Firesphere\\SolrSearch\\Compat\\FulltextSearchExtension&#45;&gt;\\SilverStripe\\Core\\Extension -->
<g id="edge3" class="edge">
<title>\\Firesphere\\SolrSearch\\Compat\\FulltextSearchExtension&#45;&gt;\\SilverStripe\\Core\\Extension</title>
<path fill="none" stroke="#000000" d="M586.4456,-3489.2356C581.0592,-3485.6229 576.2211,-3481.2784 572.2549,-3476.0593 458.7203,-3326.659 635.0513,-237.3823 508.2549,-99.0593 466.3972,-53.3964 394.6087,-49.5099 337.9869,-55.4137"/>
<polygon fill="none" stroke="#000000" points="337.4921,-51.9476 327.9617,-56.5761 338.2983,-58.901 337.4921,-51.9476"/>
</g>
<!-- \\Firesphere\\SolrSearch\\States\\SiteState -->
<g id="node5" class="node">
<title>\\Firesphere\\SolrSearch\\States\\SiteState</title>
<polygon fill="none" stroke="#000000" points="714.7549,-3444.0593 630.7549,-3444.0593 630.7549,-3408.0593 714.7549,-3408.0593 714.7549,-3444.0593"/>
<text text-anchor="start" x="638.7549" y="-3429.2593" font-family="Courier,monospace" font-size="11.00" fill="#000000">«abstract»</text>
<text text-anchor="start" x="642.2549" y="-3417.2593" font-family="Courier,monospace" font-size="11.00" fill="#000000">SiteState</text>
</g>
<!-- \\Firesphere\\SolrSearch\\Traits\\LoggerTrait -->
<g id="node6" class="node">
<title>\\Firesphere\\SolrSearch\\Traits\\LoggerTrait</title>
<polygon fill="none" stroke="#000000" points="718.2549,-3364.0593 627.2549,-3364.0593 627.2549,-3328.0593 718.2549,-3328.0593 718.2549,-3364.0593"/>
<text text-anchor="middle" x="672.7549" y="-3343.2593" font-family="Courier,monospace" font-size="11.00" fill="#000000">LoggerTrait</text>
</g>
<!-- \\Firesphere\\SolrSearch\\Traits\\GetterSetterTrait -->
<g id="node7" class="node">
<title>\\Firesphere\\SolrSearch\\Traits\\GetterSetterTrait</title>
<polygon fill="none" stroke="#000000" points="738.2549,-3310.0593 607.2549,-3310.0593 607.2549,-3274.0593 738.2549,-3274.0593 738.2549,-3310.0593"/>
<text text-anchor="middle" x="672.7549" y="-3289.2593" font-family="Courier,monospace" font-size="11.00" fill="#000000">GetterSetterTrait</text>
</g>
<!-- \\Firesphere\\SolrSearch\\Traits\\CoreServiceTrait -->
<g id="node8" class="node">
<title>\\Firesphere\\SolrSearch\\Traits\\CoreServiceTrait</title>
<polygon fill="none" stroke="#000000" points="735.2549,-3256.0593 610.2549,-3256.0593 610.2549,-3220.0593 735.2549,-3220.0593 735.2549,-3256.0593"/>
<text text-anchor="middle" x="672.7549" y="-3235.2593" font-family="Courier,monospace" font-size="11.00" fill="#000000">CoreServiceTrait</text>
</g>
<!-- \\Firesphere\\SolrSearch\\Traits\\CoreAdminTrait -->
<g id="node9" class="node">
<title>\\Firesphere\\SolrSearch\\Traits\\CoreAdminTrait</title>
<polygon fill="none" stroke="#000000" points="728.2549,-3202.0593 617.2549,-3202.0593 617.2549,-3166.0593 728.2549,-3166.0593 728.2549,-3202.0593"/>
<text text-anchor="middle" x="672.7549" y="-3181.2593" font-family="Courier,monospace" font-size="11.00" fill="#000000">CoreAdminTrait</text>
</g>
<!-- \\Firesphere\\SolrSearch\\Traits\\GetSetSchemaServiceTrait -->
<g id="node10" class="node">
<title>\\Firesphere\\SolrSearch\\Traits\\GetSetSchemaServiceTrait</title>
<polygon fill="none" stroke="#000000" points="762.2549,-3148.0593 583.2549,-3148.0593 583.2549,-3112.0593 762.2549,-3112.0593 762.2549,-3148.0593"/>
<text text-anchor="middle" x="672.7549" y="-3127.2593" font-family="Courier,monospace" font-size="11.00" fill="#000000">GetSetSchemaServiceTrait</text>
</g>
<!-- \\Firesphere\\SolrSearch\\Traits\\DataResolveTrait -->
<g id="node11" class="node">
<title>\\Firesphere\\SolrSearch\\Traits\\DataResolveTrait</title>
<polygon fill="none" stroke="#000000" points="735.2549,-3094.0593 610.2549,-3094.0593 610.2549,-3058.0593 735.2549,-3058.0593 735.2549,-3094.0593"/>
<text text-anchor="middle" x="672.7549" y="-3073.2593" font-family="Courier,monospace" font-size="11.00" fill="#000000">DataResolveTrait</text>
</g>
<!-- \\Firesphere\\SolrSearch\\Traits\\QueryComponentFilterTrait -->
<g id="node12" class="node">
<title>\\Firesphere\\SolrSearch\\Traits\\QueryComponentFilterTrait</title>
<polygon fill="none" stroke="#000000" points="765.2549,-3040.0593 580.2549,-3040.0593 580.2549,-3004.0593 765.2549,-3004.0593 765.2549,-3040.0593"/>
<text text-anchor="middle" x="672.7549" y="-3019.2593" font-family="Courier,monospace" font-size="11.00" fill="#000000">QueryComponentFilterTrait</text>
</g>
<!-- \\Firesphere\\SolrSearch\\Traits\\QueryComponentFacetTrait -->
<g id="node13" class="node">
<title>\\Firesphere\\SolrSearch\\Traits\\QueryComponentFacetTrait</title>
<polygon fill="none" stroke="#000000" points="762.2549,-2986.0593 583.2549,-2986.0593 583.2549,-2950.0593 762.2549,-2950.0593 762.2549,-2986.0593"/>
<text text-anchor="middle" x="672.7549" y="-2965.2593" font-family="Courier,monospace" font-size="11.00" fill="#000000">QueryComponentFacetTrait</text>
</g>
<!-- \\Firesphere\\SolrSearch\\Traits\\QueryComponentBoostTrait -->
<g id="node14" class="node">
<title>\\Firesphere\\SolrSearch\\Traits\\QueryComponentBoostTrait</title>
<polygon fill="none" stroke="#000000" points="762.2549,-2932.0593 583.2549,-2932.0593 583.2549,-2896.0593 762.2549,-2896.0593 762.2549,-2932.0593"/>
<text text-anchor="middle" x="672.7549" y="-2911.2593" font-family="Courier,monospace" font-size="11.00" fill="#000000">QueryComponentBoostTrait</text>
</g>
<!-- \\Firesphere\\SolrSearch\\Traits\\BaseIndexTrait -->
<g id="node15" class="node">
<title>\\Firesphere\\SolrSearch\\Traits\\BaseIndexTrait</title>
<polygon fill="none" stroke="#000000" points="728.2549,-2878.0593 617.2549,-2878.0593 617.2549,-2842.0593 728.2549,-2842.0593 728.2549,-2878.0593"/>
<text text-anchor="middle" x="672.7549" y="-2857.2593" font-family="Courier,monospace" font-size="11.00" fill="#000000">BaseIndexTrait</text>
</g>
<!-- \\Firesphere\\SolrSearch\\Traits\\SolrIndexTrait -->
<g id="node16" class="node">
<title>\\Firesphere\\SolrSearch\\Traits\\SolrIndexTrait</title>
<polygon fill="none" stroke="#000000" points="728.2549,-2824.0593 617.2549,-2824.0593 617.2549,-2788.0593 728.2549,-2788.0593 728.2549,-2824.0593"/>
<text text-anchor="middle" x="672.7549" y="-2803.2593" font-family="Courier,monospace" font-size="11.00" fill="#000000">SolrIndexTrait</text>
</g>
<!-- \\Firesphere\\SolrSearch\\Traits\\GetSetSearchResolverTrait -->
<g id="node17" class="node">
<title>\\Firesphere\\SolrSearch\\Traits\\GetSetSearchResolverTrait</title>
<polygon fill="none" stroke="#000000" points="765.2549,-2770.0593 580.2549,-2770.0593 580.2549,-2734.0593 765.2549,-2734.0593 765.2549,-2770.0593"/>
<text text-anchor="middle" x="672.7549" y="-2749.2593" font-family="Courier,monospace" font-size="11.00" fill="#000000">GetSetSearchResolverTrait</text>
</g>
<!-- \\Firesphere\\SolrSearch\\Traits\\SearchResultSetTrait -->
<g id="node18" class="node">
<title>\\Firesphere\\SolrSearch\\Traits\\SearchResultSetTrait</title>
<polygon fill="none" stroke="#000000" points="748.7549,-2716.0593 596.7549,-2716.0593 596.7549,-2680.0593 748.7549,-2680.0593 748.7549,-2716.0593"/>
<text text-anchor="middle" x="672.7549" y="-2695.2593" font-family="Courier,monospace" font-size="11.00" fill="#000000">SearchResultSetTrait</text>
</g>
<!-- \\Firesphere\\SolrSearch\\Traits\\SearchResultGetTrait -->
<g id="node19" class="node">
<title>\\Firesphere\\SolrSearch\\Traits\\SearchResultGetTrait</title>
<polygon fill="none" stroke="#000000" points="748.7549,-2662.0593 596.7549,-2662.0593 596.7549,-2626.0593 748.7549,-2626.0593 748.7549,-2662.0593"/>
<text text-anchor="middle" x="672.7549" y="-2641.2593" font-family="Courier,monospace" font-size="11.00" fill="#000000">SearchResultGetTrait</text>
</g>
<!-- \\Firesphere\\SolrSearch\\Traits\\BaseQueryTrait -->
<g id="node20" class="node">
<title>\\Firesphere\\SolrSearch\\Traits\\BaseQueryTrait</title>
<polygon fill="none" stroke="#000000" points="728.2549,-2608.0593 617.2549,-2608.0593 617.2549,-2572.0593 728.2549,-2572.0593 728.2549,-2608.0593"/>
<text text-anchor="middle" x="672.7549" y="-2587.2593" font-family="Courier,monospace" font-size="11.00" fill="#000000">BaseQueryTrait</text>
</g>
<!-- \\Firesphere\\SolrSearch\\Traits\\DocumentFactoryTrait -->
<g id="node21" class="node">
<title>\\Firesphere\\SolrSearch\\Traits\\DocumentFactoryTrait</title>
<polygon fill="none" stroke="#000000" points="748.7549,-2554.0593 596.7549,-2554.0593 596.7549,-2518.0593 748.7549,-2518.0593 748.7549,-2554.0593"/>
<text text-anchor="middle" x="672.7549" y="-2533.2593" font-family="Courier,monospace" font-size="11.00" fill="#000000">DocumentFactoryTrait</text>
</g>
<!-- \\Firesphere\\SolrSearch\\Helpers\\Synonyms -->
<g id="node22" class="node">
<title>\\Firesphere\\SolrSearch\\Helpers\\Synonyms</title>
<polygon fill="none" stroke="#000000" points="708.2549,-2474.0593 637.2549,-2474.0593 637.2549,-2438.0593 708.2549,-2438.0593 708.2549,-2474.0593"/>
<text text-anchor="middle" x="672.7549" y="-2453.2593" font-family="Courier,monospace" font-size="11.00" fill="#000000">Synonyms</text>
</g>
<!-- \\Firesphere\\SolrSearch\\Helpers\\FieldResolver -->
<g id="node23" class="node">
<title>\\Firesphere\\SolrSearch\\Helpers\\FieldResolver</title>
<polygon fill="none" stroke="#000000" points="724.7549,-2420.0593 620.7549,-2420.0593 620.7549,-2384.0593 724.7549,-2384.0593 724.7549,-2420.0593"/>
<text text-anchor="middle" x="672.7549" y="-2399.2593" font-family="Courier,monospace" font-size="11.00" fill="#000000">FieldResolver</text>
</g>
<!-- \\Firesphere\\SolrSearch\\Helpers\\DataResolver -->
<g id="node24" class="node">
<title>\\Firesphere\\SolrSearch\\Helpers\\DataResolver</title>
<polygon fill="none" stroke="#000000" points="721.7549,-2366.0593 623.7549,-2366.0593 623.7549,-2330.0593 721.7549,-2330.0593 721.7549,-2366.0593"/>
<text text-anchor="middle" x="672.7549" y="-2345.2593" font-family="Courier,monospace" font-size="11.00" fill="#000000">DataResolver</text>
</g>
<!-- \\Firesphere\\SolrSearch\\Helpers\\SolrLogger -->
<g id="node25" class="node">
<title>\\Firesphere\\SolrSearch\\Helpers\\SolrLogger</title>
<polygon fill="none" stroke="#000000" points="714.7549,-2312.0593 630.7549,-2312.0593 630.7549,-2276.0593 714.7549,-2276.0593 714.7549,-2312.0593"/>
<text text-anchor="middle" x="672.7549" y="-2291.2593" font-family="Courier,monospace" font-size="11.00" fill="#000000">SolrLogger</text>
</g>
<!-- \\Firesphere\\SolrSearch\\Helpers\\Statics -->
<g id="node26" class="node">
<title>\\Firesphere\\SolrSearch\\Helpers\\Statics</title>
<polygon fill="none" stroke="#000000" points="704.7549,-2258.0593 640.7549,-2258.0593 640.7549,-2222.0593 704.7549,-2222.0593 704.7549,-2258.0593"/>
<text text-anchor="middle" x="672.7549" y="-2237.2593" font-family="Courier,monospace" font-size="11.00" fill="#000000">Statics</text>
</g>
<!-- \\Firesphere\\SolrSearch\\Interfaces\\ConfigStore -->
<g id="node27" class="node">
<title>\\Firesphere\\SolrSearch\\Interfaces\\ConfigStore</title>
<polygon fill="none" stroke="#000000" points="299.6275,-1427.0593 208.6275,-1427.0593 208.6275,-1391.0593 299.6275,-1391.0593 299.6275,-1427.0593"/>
<text text-anchor="middle" x="254.1275" y="-1406.2593" font-family="Courier,monospace" font-size="11.00" fill="#000000">ConfigStore</text>
</g>
<!-- \\Firesphere\\SolrSearch\\Interfaces\\SiteStateInterface -->
<g id="node28" class="node">
<title>\\Firesphere\\SolrSearch\\Interfaces\\SiteStateInterface</title>
<polygon fill="none" stroke="#000000" points="323.1275,-1373.0593 185.1275,-1373.0593 185.1275,-1337.0593 323.1275,-1337.0593 323.1275,-1373.0593"/>
<text text-anchor="middle" x="254.1275" y="-1352.2593" font-family="Courier,monospace" font-size="11.00" fill="#000000">SiteStateInterface</text>
</g>
<!-- \\Firesphere\\SolrSearch\\Services\\SolrCoreService -->
<g id="node29" class="node">
<title>\\Firesphere\\SolrSearch\\Services\\SolrCoreService</title>
<polygon fill="none" stroke="#000000" points="731.7549,-2178.0593 613.7549,-2178.0593 613.7549,-2142.0593 731.7549,-2142.0593 731.7549,-2178.0593"/>
<text text-anchor="middle" x="672.7549" y="-2157.2593" font-family="Courier,monospace" font-size="11.00" fill="#000000">SolrCoreService</text>
</g>
<!-- \\Firesphere\\SolrSearch\\Services\\SchemaService -->
<g id="node30" class="node">
<title>\\Firesphere\\SolrSearch\\Services\\SchemaService</title>
<polygon fill="none" stroke="#000000" points="724.7549,-2124.0593 620.7549,-2124.0593 620.7549,-2088.0593 724.7549,-2088.0593 724.7549,-2124.0593"/>
<text text-anchor="middle" x="672.7549" y="-2103.2593" font-family="Courier,monospace" font-size="11.00" fill="#000000">SchemaService</text>
</g>
<!-- \\SilverStripe\\View\\ViewableData -->
<g id="node55" class="node">
<title>\\SilverStripe\\View\\ViewableData</title>
<ellipse fill="none" stroke="#000000" cx="254.1275" cy="-450.0593" rx="163.2712" ry="18"/>
<text text-anchor="middle" x="254.1275" y="-446.3593" font-family="Times,serif" font-size="14.00" fill="#c0c0c0">\SilverStripe\View\ViewableData</text>
</g>
<!-- \\Firesphere\\SolrSearch\\Services\\SchemaService&#45;&gt;\\SilverStripe\\View\\ViewableData -->
<g id="edge4" class="edge">
<title>\\Firesphere\\SolrSearch\\Services\\SchemaService&#45;&gt;\\SilverStripe\\View\\ViewableData</title>
<path fill="none" stroke="#000000" d="M620.6522,-2102.3116C602.67,-2098.307 584.0896,-2090.6088 572.2549,-2076.0593 466.5637,-1946.1226 538.873,-1489.7308 508.2549,-1325.0593 444.8053,-983.8114 303.4286,-584.7241 264.3233,-477.6451"/>
<polygon fill="none" stroke="#000000" points="267.5914,-476.3911 260.8642,-468.206 261.0188,-478.7997 267.5914,-476.3911"/>
</g>
<!-- \\Firesphere\\SolrSearch\\Jobs\\ClearDirtyClassesJob -->
<g id="node31" class="node">
<title>\\Firesphere\\SolrSearch\\Jobs\\ClearDirtyClassesJob</title>
<polygon fill="none" stroke="#000000" points="748.7549,-2044.0593 596.7549,-2044.0593 596.7549,-2008.0593 748.7549,-2008.0593 748.7549,-2044.0593"/>
<text text-anchor="middle" x="672.7549" y="-2023.2593" font-family="Courier,monospace" font-size="11.00" fill="#000000">ClearDirtyClassesJob</text>
</g>
<!-- \\Symbiote\\QueuedJobs\\Services\\AbstractQueuedJob -->
<g id="node56" class="node">
<title>\\Symbiote\\QueuedJobs\\Services\\AbstractQueuedJob</title>
<ellipse fill="none" stroke="#000000" cx="254.1275" cy="-396.0593" rx="254.255" ry="18"/>
<text text-anchor="middle" x="254.1275" y="-392.3593" font-family="Times,serif" font-size="14.00" fill="#c0c0c0">\Symbiote\QueuedJobs\Services\AbstractQueuedJob</text>
</g>
<!-- \\Firesphere\\SolrSearch\\Jobs\\ClearDirtyClassesJob&#45;&gt;\\Symbiote\\QueuedJobs\\Services\\AbstractQueuedJob -->
<g id="edge5" class="edge">
<title>\\Firesphere\\SolrSearch\\Jobs\\ClearDirtyClassesJob&#45;&gt;\\Symbiote\\QueuedJobs\\Services\\AbstractQueuedJob</title>
<path fill="none" stroke="#000000" d="M596.6411,-2017.0594C587.2352,-2012.9025 578.6857,-2007.1025 572.2549,-1999.0593 462.8119,-1862.1773 628.0702,-550.9607 508.2549,-423.0593 469.7142,-381.9176 406.8283,-374.9644 353.2581,-378.3972"/>
<polygon fill="none" stroke="#000000" points="352.7278,-374.9275 343.0256,-379.1839 353.2645,-381.9069 352.7278,-374.9275"/>
</g>
<!-- \\Firesphere\\SolrSearch\\Jobs\\SolrIndexJob -->
<g id="node32" class="node">
<title>\\Firesphere\\SolrSearch\\Jobs\\SolrIndexJob</title>
<polygon fill="none" stroke="#000000" points="721.7549,-1990.0593 623.7549,-1990.0593 623.7549,-1954.0593 721.7549,-1954.0593 721.7549,-1990.0593"/>
<text text-anchor="middle" x="672.7549" y="-1969.2593" font-family="Courier,monospace" font-size="11.00" fill="#000000">SolrIndexJob</text>
</g>
<!-- \\Firesphere\\SolrSearch\\Jobs\\SolrIndexJob&#45;&gt;\\Symbiote\\QueuedJobs\\Services\\AbstractQueuedJob -->
<g id="edge6" class="edge">
<title>\\Firesphere\\SolrSearch\\Jobs\\SolrIndexJob&#45;&gt;\\Symbiote\\QueuedJobs\\Services\\AbstractQueuedJob</title>
<path fill="none" stroke="#000000" d="M623.5741,-1970.7812C604.6102,-1967.6078 584.5635,-1960.4312 572.2549,-1945.0593 466.4605,-1812.9356 624.0605,-546.5024 508.2549,-423.0593 469.7559,-382.0213 407.0309,-375.0182 353.5327,-378.3994"/>
<polygon fill="none" stroke="#000000" points="353.0189,-374.9283 343.3129,-379.1762 353.5495,-381.9081 353.0189,-374.9283"/>
</g>
<!-- \\Firesphere\\SolrSearch\\Jobs\\SolrConfigureJob -->
<g id="node33" class="node">
<title>\\Firesphere\\SolrSearch\\Jobs\\SolrConfigureJob</title>
<polygon fill="none" stroke="#000000" points="735.2549,-1936.0593 610.2549,-1936.0593 610.2549,-1900.0593 735.2549,-1900.0593 735.2549,-1936.0593"/>
<text text-anchor="middle" x="672.7549" y="-1915.2593" font-family="Courier,monospace" font-size="11.00" fill="#000000">SolrConfigureJob</text>
</g>
<!-- \\Firesphere\\SolrSearch\\Jobs\\SolrConfigureJob&#45;&gt;\\Symbiote\\QueuedJobs\\Services\\AbstractQueuedJob -->
<g id="edge7" class="edge">
<title>\\Firesphere\\SolrSearch\\Jobs\\SolrConfigureJob&#45;&gt;\\Symbiote\\QueuedJobs\\Services\\AbstractQueuedJob</title>
<path fill="none" stroke="#000000" d="M610.0895,-1911.8853C595.5451,-1907.4105 581.6031,-1900.0502 572.2549,-1888.0593 472.0771,-1759.5619 619.8283,-541.7966 508.2549,-423.0593 469.7224,-382.0527 406.9971,-375.0499 353.5072,-378.4234"/>
<polygon fill="none" stroke="#000000" points="352.9956,-374.9521 343.2891,-379.1986 353.5252,-381.932 352.9956,-374.9521"/>
</g>
<!-- \\Firesphere\\SolrSearch\\Forms\\SearchForm -->
<g id="node34" class="node">
<title>\\Firesphere\\SolrSearch\\Forms\\SearchForm</title>
<polygon fill="none" stroke="#000000" points="714.7549,-1856.0593 630.7549,-1856.0593 630.7549,-1820.0593 714.7549,-1820.0593 714.7549,-1856.0593"/>
<text text-anchor="middle" x="672.7549" y="-1835.2593" font-family="Courier,monospace" font-size="11.00" fill="#000000">SearchForm</text>
</g>
<!-- \\SilverStripe\\Forms\\Form -->
<g id="node57" class="node">
<title>\\SilverStripe\\Forms\\Form</title>
<ellipse fill="none" stroke="#000000" cx="254.1275" cy="-342.0593" rx="129.1772" ry="18"/>
<text text-anchor="middle" x="254.1275" y="-338.3593" font-family="Times,serif" font-size="14.00" fill="#c0c0c0">\SilverStripe\Forms\Form</text>
</g>
<!-- \\Firesphere\\SolrSearch\\Forms\\SearchForm&#45;&gt;\\SilverStripe\\Forms\\Form -->
<g id="edge8" class="edge">
<title>\\Firesphere\\SolrSearch\\Forms\\SearchForm&#45;&gt;\\SilverStripe\\Forms\\Form</title>
<path fill="none" stroke="#000000" d="M630.7181,-1836.479C609.7709,-1833.3323 586.0323,-1825.7171 572.2549,-1808.0593 473.8018,-1681.8768 617.8979,-485.6502 508.2549,-369.0593 465.46,-323.5526 392.8687,-319.9349 336.201,-325.8946"/>
<polygon fill="none" stroke="#000000" points="335.7026,-322.4289 326.1758,-327.0646 336.5142,-329.3817 335.7026,-322.4289"/>
</g>
<!-- \\Firesphere\\SolrSearch\\Tasks\\ClearDirtyClassesTask -->
<g id="node35" class="node">
<title>\\Firesphere\\SolrSearch\\Tasks\\ClearDirtyClassesTask</title>
<polygon fill="none" stroke="#000000" points="751.7549,-1776.0593 593.7549,-1776.0593 593.7549,-1740.0593 751.7549,-1740.0593 751.7549,-1776.0593"/>
<text text-anchor="middle" x="672.7549" y="-1755.2593" font-family="Courier,monospace" font-size="11.00" fill="#000000">ClearDirtyClassesTask</text>
</g>
<!-- \\SilverStripe\\Dev\\BuildTask -->
<g id="node58" class="node">
<title>\\SilverStripe\\Dev\\BuildTask</title>
<ellipse fill="none" stroke="#000000" cx="254.1275" cy="-288.0593" rx="139.9756" ry="18"/>
<text text-anchor="middle" x="254.1275" y="-284.3593" font-family="Times,serif" font-size="14.00" fill="#c0c0c0">\SilverStripe\Dev\BuildTask</text>
</g>
<!-- \\Firesphere\\SolrSearch\\Tasks\\ClearDirtyClassesTask&#45;&gt;\\SilverStripe\\Dev\\BuildTask -->
<g id="edge9" class="edge">
<title>\\Firesphere\\SolrSearch\\Tasks\\ClearDirtyClassesTask&#45;&gt;\\SilverStripe\\Dev\\BuildTask</title>
<path fill="none" stroke="#000000" d="M593.7324,-1747.666C585.4852,-1743.6354 578.0253,-1738.2426 572.2549,-1731.0593 473.6221,-1608.2753 616.1903,-429.7515 508.2549,-315.0593 466.0173,-270.1776 394.7941,-266.0533 338.4774,-271.6698"/>
<polygon fill="none" stroke="#000000" points="338.0554,-268.195 328.5041,-272.7801 338.83,-275.1521 338.0554,-268.195"/>
</g>
<!-- \\Firesphere\\SolrSearch\\Tasks\\SolrConfigureTask -->
<g id="node36" class="node">
<title>\\Firesphere\\SolrSearch\\Tasks\\SolrConfigureTask</title>
<polygon fill="none" stroke="#000000" points="738.2549,-1722.0593 607.2549,-1722.0593 607.2549,-1686.0593 738.2549,-1686.0593 738.2549,-1722.0593"/>
<text text-anchor="middle" x="672.7549" y="-1701.2593" font-family="Courier,monospace" font-size="11.00" fill="#000000">SolrConfigureTask</text>
</g>
<!-- \\Firesphere\\SolrSearch\\Tasks\\SolrConfigureTask&#45;&gt;\\SilverStripe\\Dev\\BuildTask -->
<g id="edge10" class="edge">
<title>\\Firesphere\\SolrSearch\\Tasks\\SolrConfigureTask&#45;&gt;\\SilverStripe\\Dev\\BuildTask</title>
<path fill="none" stroke="#000000" d="M607.1138,-1698.8943C593.7074,-1694.7453 581.0334,-1687.9673 572.2549,-1677.0593 477.2701,-1559.0329 612.1813,-425.2939 508.2549,-315.0593 465.9772,-270.2154 394.7574,-266.0879 338.4522,-271.6935"/>
<polygon fill="none" stroke="#000000" points="338.0332,-268.2184 328.4811,-272.8018 338.8065,-275.1756 338.0332,-268.2184"/>
</g>
<!-- \\Firesphere\\SolrSearch\\Tasks\\ClearErrorsTask -->
<g id="node37" class="node">
<title>\\Firesphere\\SolrSearch\\Tasks\\ClearErrorsTask</title>
<polygon fill="none" stroke="#000000" points="731.7549,-1668.0593 613.7549,-1668.0593 613.7549,-1632.0593 731.7549,-1632.0593 731.7549,-1668.0593"/>
<text text-anchor="middle" x="672.7549" y="-1647.2593" font-family="Courier,monospace" font-size="11.00" fill="#000000">ClearErrorsTask</text>
</g>
<!-- \\Firesphere\\SolrSearch\\Tasks\\ClearErrorsTask&#45;&gt;\\SilverStripe\\Dev\\BuildTask -->
<g id="edge11" class="edge">
<title>\\Firesphere\\SolrSearch\\Tasks\\ClearErrorsTask&#45;&gt;\\SilverStripe\\Dev\\BuildTask</title>
<path fill="none" stroke="#000000" d="M613.6601,-1646.6905C597.913,-1642.8115 582.4615,-1635.7168 572.2549,-1623.0593 480.9179,-1509.7902 608.1725,-420.8365 508.2549,-315.0593 466.0057,-270.3324 394.9594,-266.1395 338.7118,-271.6908"/>
<polygon fill="none" stroke="#000000" points="338.3058,-268.2142 328.7498,-272.7894 339.0732,-275.1721 338.3058,-268.2142"/>
</g>
<!-- \\Firesphere\\SolrSearch\\Tasks\\SolrIndexTask -->
<g id="node38" class="node">
<title>\\Firesphere\\SolrSearch\\Tasks\\SolrIndexTask</title>
<polygon fill="none" stroke="#000000" points="724.7549,-1614.0593 620.7549,-1614.0593 620.7549,-1578.0593 724.7549,-1578.0593 724.7549,-1614.0593"/>
<text text-anchor="middle" x="672.7549" y="-1593.2593" font-family="Courier,monospace" font-size="11.00" fill="#000000">SolrIndexTask</text>
</g>
<!-- \\Firesphere\\SolrSearch\\Tasks\\SolrIndexTask&#45;&gt;\\SilverStripe\\Dev\\BuildTask -->
<g id="edge12" class="edge">
<title>\\Firesphere\\SolrSearch\\Tasks\\SolrIndexTask&#45;&gt;\\SilverStripe\\Dev\\BuildTask</title>
<path fill="none" stroke="#000000" d="M620.6484,-1592.582C602.5533,-1588.6192 583.8975,-1580.8789 572.2549,-1566.0593 486.2717,-1456.6132 603.9414,-416.1319 508.2549,-315.0593 465.956,-270.3794 394.9139,-266.1826 338.6805,-271.7204"/>
<polygon fill="none" stroke="#000000" points="338.2782,-268.2435 328.7211,-272.8165 339.044,-275.2014 338.2782,-268.2435"/>
</g>
<!-- \\Firesphere\\SolrSearch\\Models\\SolrLog -->
<g id="node40" class="node">
<title>\\Firesphere\\SolrSearch\\Models\\SolrLog</title>
<polygon fill="none" stroke="#000000" points="704.7549,-1212.0593 640.7549,-1212.0593 640.7549,-1176.0593 704.7549,-1176.0593 704.7549,-1212.0593"/>
<text text-anchor="middle" x="672.7549" y="-1191.2593" font-family="Courier,monospace" font-size="11.00" fill="#000000">SolrLog</text>
</g>
<!-- \\SilverStripe\\ORM\\DataObject -->
<g id="node59" class="node">
<title>\\SilverStripe\\ORM\\DataObject</title>
<ellipse fill="none" stroke="#000000" cx="254.1275" cy="-234.0593" rx="152.9733" ry="18"/>
<text text-anchor="middle" x="254.1275" y="-230.3593" font-family="Times,serif" font-size="14.00" fill="#c0c0c0">\SilverStripe\ORM\DataObject</text>
</g>
<!-- \\Firesphere\\SolrSearch\\Models\\SolrLog&#45;&gt;\\SilverStripe\\ORM\\DataObject -->
<g id="edge13" class="edge">
<title>\\Firesphere\\SolrSearch\\Models\\SolrLog&#45;&gt;\\SilverStripe\\ORM\\DataObject</title>
<path fill="none" stroke="#000000" d="M640.3373,-1193.5124C617.5801,-1191.2575 588.4273,-1184.2337 572.2549,-1164.0593 446.4292,-1007.0967 647.9859,-405.7819 508.2549,-261.0593 466.6231,-217.9403 398.1629,-212.8106 342.7823,-217.5835"/>
<polygon fill="none" stroke="#000000" points="342.2132,-214.1224 332.6032,-218.583 342.8974,-221.0889 342.2132,-214.1224"/>
</g>
<!-- \\SilverStripe\\Security\\PermissionProvider -->
<g id="node60" class="node">
<title>\\SilverStripe\\Security\\PermissionProvider</title>
<ellipse fill="none" stroke="#000000" cx="254.1275" cy="-180.0593" rx="206.0634" ry="18"/>
<text text-anchor="middle" x="254.1275" y="-176.3593" font-family="Times,serif" font-size="14.00" fill="#c0c0c0">\SilverStripe\Security\PermissionProvider</text>
</g>
<!-- \\Firesphere\\SolrSearch\\Models\\SolrLog&#45;&gt;\\SilverStripe\\Security\\PermissionProvider -->
<g id="edge14" class="edge">
<title>\\Firesphere\\SolrSearch\\Models\\SolrLog&#45;&gt;\\SilverStripe\\Security\\PermissionProvider</title>
<path fill="none" stroke="#000000" stroke-dasharray="1,5" d="M640.3134,-1193.5315C617.5443,-1191.2861 588.3871,-1184.2658 572.2549,-1164.0593 439.2725,-997.4908 655.9959,-360.6887 508.2549,-207.0593 468.7454,-165.9751 404.891,-159.3264 351.0762,-162.8977"/>
<polygon fill="none" stroke="#000000" points="350.4988,-159.4324 340.8056,-163.7091 351.0502,-166.4106 350.4988,-159.4324"/>
</g>
<!-- \\Firesphere\\SolrSearch\\Models\\DirtyClass -->
<g id="node41" class="node">
<title>\\Firesphere\\SolrSearch\\Models\\DirtyClass</title>
<polygon fill="none" stroke="#000000" points="714.7549,-1266.0593 630.7549,-1266.0593 630.7549,-1230.0593 714.7549,-1230.0593 714.7549,-1266.0593"/>
<text text-anchor="middle" x="672.7549" y="-1245.2593" font-family="Courier,monospace" font-size="11.00" fill="#000000">DirtyClass</text>
</g>
<!-- \\Firesphere\\SolrSearch\\Models\\DirtyClass&#45;&gt;\\SilverStripe\\ORM\\DataObject -->
<g id="edge15" class="edge">
<title>\\Firesphere\\SolrSearch\\Models\\DirtyClass&#45;&gt;\\SilverStripe\\ORM\\DataObject</title>
<path fill="none" stroke="#000000" d="M630.7258,-1247.6444C609.9146,-1245.0814 586.299,-1238.1641 572.2549,-1221.0593 436.5794,-1055.8154 656.4409,-415.1836 508.2549,-261.0593 466.6411,-217.778 398.0096,-212.7106 342.5533,-217.5504"/>
<polygon fill="none" stroke="#000000" points="341.9664,-214.0913 332.3612,-218.5624 342.6582,-221.0571 341.9664,-214.0913"/>
</g>
<!-- \\Firesphere\\SolrSearch\\Models\\SearchSynonym -->
<g id="node42" class="node">
<title>\\Firesphere\\SolrSearch\\Models\\SearchSynonym</title>
<polygon fill="none" stroke="#000000" points="724.7549,-1320.0593 620.7549,-1320.0593 620.7549,-1284.0593 724.7549,-1284.0593 724.7549,-1320.0593"/>
<text text-anchor="middle" x="672.7549" y="-1299.2593" font-family="Courier,monospace" font-size="11.00" fill="#000000">SearchSynonym</text>
</g>
<!-- \\Firesphere\\SolrSearch\\Models\\SearchSynonym&#45;&gt;\\SilverStripe\\ORM\\DataObject -->
<g id="edge16" class="edge">
<title>\\Firesphere\\SolrSearch\\Models\\SearchSynonym&#45;&gt;\\SilverStripe\\ORM\\DataObject</title>
<path fill="none" stroke="#000000" d="M620.5969,-1300.0883C602.6083,-1296.6459 584.0379,-1289.4621 572.2549,-1275.0593 429.2892,-1100.3075 664.4525,-424.0921 508.2549,-261.0593 466.6455,-217.6291 397.843,-212.6238 342.3151,-217.5268"/>
<polygon fill="none" stroke="#000000" points="341.7114,-214.0697 332.1108,-218.5506 342.4103,-221.0348 341.7114,-214.0697"/>
</g>
<!-- \\Firesphere\\SolrSearch\\Admins\\SearchAdmin -->
<g id="node43" class="node">
<title>\\Firesphere\\SolrSearch\\Admins\\SearchAdmin</title>
<polygon fill="none" stroke="#000000" points="718.2549,-1132.0593 627.2549,-1132.0593 627.2549,-1096.0593 718.2549,-1096.0593 718.2549,-1132.0593"/>
<text text-anchor="middle" x="672.7549" y="-1111.2593" font-family="Courier,monospace" font-size="11.00" fill="#000000">SearchAdmin</text>
</g>
<!-- \\SilverStripe\\Admin\\ModelAdmin -->
<g id="node61" class="node">
<title>\\SilverStripe\\Admin\\ModelAdmin</title>
<ellipse fill="none" stroke="#000000" cx="254.1275" cy="-126.0593" rx="165.1707" ry="18"/>
<text text-anchor="middle" x="254.1275" y="-122.3593" font-family="Times,serif" font-size="14.00" fill="#c0c0c0">\SilverStripe\Admin\ModelAdmin</text>
</g>
<!-- \\Firesphere\\SolrSearch\\Admins\\SearchAdmin&#45;&gt;\\SilverStripe\\Admin\\ModelAdmin -->
<g id="edge17" class="edge">
<title>\\Firesphere\\SolrSearch\\Admins\\SearchAdmin&#45;&gt;\\SilverStripe\\Admin\\ModelAdmin</title>
<path fill="none" stroke="#000000" d="M627.0384,-1111.7098C607.132,-1108.1932 585.3918,-1100.4827 572.2549,-1084.0593 442.7185,-922.1161 652.139,-302.4 508.2549,-153.0593 467.176,-110.4226 399.8719,-104.8997 344.8453,-109.3834"/>
<polygon fill="none" stroke="#000000" points="344.353,-105.914 334.7225,-110.3303 345.0051,-112.8836 344.353,-105.914"/>
</g>
<!-- \\Firesphere\\SolrSearch\\Stores\\PostConfigStore -->
<g id="node44" class="node">
<title>\\Firesphere\\SolrSearch\\Stores\\PostConfigStore</title>
<polygon fill="none" stroke="#000000" points="731.7549,-1454.0593 613.7549,-1454.0593 613.7549,-1418.0593 731.7549,-1418.0593 731.7549,-1454.0593"/>
<text text-anchor="middle" x="672.7549" y="-1433.2593" font-family="Courier,monospace" font-size="11.00" fill="#000000">PostConfigStore</text>
</g>
<!-- \\Firesphere\\SolrSearch\\Stores\\PostConfigStore&#45;&gt;\\Firesphere\\SolrSearch\\Interfaces\\ConfigStore -->
<g id="edge18" class="edge">
<title>\\Firesphere\\SolrSearch\\Stores\\PostConfigStore&#45;&gt;\\Firesphere\\SolrSearch\\Interfaces\\ConfigStore</title>
<path fill="none" stroke="#000000" stroke-dasharray="1,5" d="M613.6637,-1432.2481C532.8854,-1427.0382 389.0185,-1417.7593 309.9722,-1412.6611"/>
<polygon fill="none" stroke="#000000" points="309.9333,-1409.1514 299.7287,-1412.0004 309.4827,-1416.1369 309.9333,-1409.1514"/>
</g>
<!-- \\Firesphere\\SolrSearch\\Stores\\FileConfigStore -->
<g id="node45" class="node">
<title>\\Firesphere\\SolrSearch\\Stores\\FileConfigStore</title>
<polygon fill="none" stroke="#000000" points="731.7549,-1400.0593 613.7549,-1400.0593 613.7549,-1364.0593 731.7549,-1364.0593 731.7549,-1400.0593"/>
<text text-anchor="middle" x="672.7549" y="-1379.2593" font-family="Courier,monospace" font-size="11.00" fill="#000000">FileConfigStore</text>
</g>
<!-- \\Firesphere\\SolrSearch\\Stores\\FileConfigStore&#45;&gt;\\Firesphere\\SolrSearch\\Interfaces\\ConfigStore -->
<g id="edge19" class="edge">
<title>\\Firesphere\\SolrSearch\\Stores\\FileConfigStore&#45;&gt;\\Firesphere\\SolrSearch\\Interfaces\\ConfigStore</title>
<path fill="none" stroke="#000000" stroke-dasharray="1,5" d="M613.6637,-1385.8705C532.8854,-1391.0804 389.0185,-1400.3593 309.9722,-1405.4575"/>
<polygon fill="none" stroke="#000000" points="309.4827,-1401.9817 299.7287,-1406.1182 309.9333,-1408.9672 309.4827,-1401.9817"/>
</g>
<!-- \\Firesphere\\SolrSearch\\Factories\\QueryComponentFactory -->
<g id="node46" class="node">
<title>\\Firesphere\\SolrSearch\\Factories\\QueryComponentFactory</title>
<polygon fill="none" stroke="#000000" points="751.7549,-1052.0593 593.7549,-1052.0593 593.7549,-1016.0593 751.7549,-1016.0593 751.7549,-1052.0593"/>
<text text-anchor="middle" x="672.7549" y="-1031.2593" font-family="Courier,monospace" font-size="11.00" fill="#000000">QueryComponentFactory</text>
</g>
<!-- \\Firesphere\\SolrSearch\\Factories\\DocumentFactory -->
<g id="node47" class="node">
<title>\\Firesphere\\SolrSearch\\Factories\\DocumentFactory</title>
<polygon fill="none" stroke="#000000" points="731.7549,-998.0593 613.7549,-998.0593 613.7549,-962.0593 731.7549,-962.0593 731.7549,-998.0593"/>
<text text-anchor="middle" x="672.7549" y="-977.2593" font-family="Courier,monospace" font-size="11.00" fill="#000000">DocumentFactory</text>
</g>
<!-- \\Firesphere\\SolrSearch\\Extensions\\DataObjectExtension -->
<g id="node48" class="node">
<title>\\Firesphere\\SolrSearch\\Extensions\\DataObjectExtension</title>
<polygon fill="none" stroke="#000000" points="745.2549,-864.0593 600.2549,-864.0593 600.2549,-828.0593 745.2549,-828.0593 745.2549,-864.0593"/>
<text text-anchor="middle" x="672.7549" y="-843.2593" font-family="Courier,monospace" font-size="11.00" fill="#000000">DataObjectExtension</text>
</g>
<!-- \\SilverStripe\\ORM\\DataExtension -->
<g id="node62" class="node">
<title>\\SilverStripe\\ORM\\DataExtension</title>
<ellipse fill="none" stroke="#000000" cx="254.1275" cy="-18.0593" rx="167.8704" ry="18"/>
<text text-anchor="middle" x="254.1275" y="-14.3593" font-family="Times,serif" font-size="14.00" fill="#c0c0c0">\SilverStripe\ORM\DataExtension</text>
</g>
<!-- \\Firesphere\\SolrSearch\\Extensions\\DataObjectExtension&#45;&gt;\\SilverStripe\\ORM\\DataExtension -->
<g id="edge20" class="edge">
<title>\\Firesphere\\SolrSearch\\Extensions\\DataObjectExtension&#45;&gt;\\SilverStripe\\ORM\\DataExtension</title>
<path fill="none" stroke="#000000" d="M600.0975,-835.9102C589.3963,-831.407 579.5412,-825.0372 572.2549,-816.0593 463.9155,-682.5679 628.4147,-168.0187 508.2549,-45.0593 467.3126,-3.1631 401.0047,2.6991 346.3865,-1.448"/>
<polygon fill="none" stroke="#000000" points="345.9876,2.0306 336.3328,-2.3323 346.6011,-4.9425 345.9876,2.0306"/>
</g>
<!-- \\Firesphere\\SolrSearch\\Extensions\\GridFieldExtension -->
<g id="node49" class="node">
<title>\\Firesphere\\SolrSearch\\Extensions\\GridFieldExtension</title>
<polygon fill="none" stroke="#000000" points="741.7549,-918.0593 603.7549,-918.0593 603.7549,-882.0593 741.7549,-882.0593 741.7549,-918.0593"/>
<text text-anchor="middle" x="672.7549" y="-897.2593" font-family="Courier,monospace" font-size="11.00" fill="#000000">GridFieldExtension</text>
</g>
<!-- \\Firesphere\\SolrSearch\\Extensions\\GridFieldExtension&#45;&gt;\\SilverStripe\\Core\\Extension -->
<g id="edge21" class="edge">
<title>\\Firesphere\\SolrSearch\\Extensions\\GridFieldExtension&#45;&gt;\\SilverStripe\\Core\\Extension</title>
<path fill="none" stroke="#000000" d="M603.5204,-893.3889C591.5434,-889.1878 580.3577,-882.7692 572.2549,-873.0593 461.6773,-740.5495 628.8593,-222.5131 508.2549,-99.0593 466.1518,-55.9614 397.2082,-50.9895 341.7472,-55.8222"/>
<polygon fill="none" stroke="#000000" points="341.164,-52.3627 331.5578,-56.8316 341.8542,-59.3286 341.164,-52.3627"/>
</g>
<!-- \\Firesphere\\SolrSearch\\Results\\SearchResult -->
<g id="node50" class="node">
<title>\\Firesphere\\SolrSearch\\Results\\SearchResult</title>
<polygon fill="none" stroke="#000000" points="721.7549,-784.0593 623.7549,-784.0593 623.7549,-748.0593 721.7549,-748.0593 721.7549,-784.0593"/>
<text text-anchor="middle" x="672.7549" y="-763.2593" font-family="Courier,monospace" font-size="11.00" fill="#000000">SearchResult</text>
</g>
<!-- \\Firesphere\\SolrSearch\\Fluent\\FluentExtension -->
<g id="node52" class="node">
<title>\\Firesphere\\SolrSearch\\Fluent\\FluentExtension</title>
<polygon fill="none" stroke="#000000" points="731.7549,-624.0593 613.7549,-624.0593 613.7549,-588.0593 731.7549,-588.0593 731.7549,-624.0593"/>
<text text-anchor="middle" x="672.7549" y="-603.2593" font-family="Courier,monospace" font-size="11.00" fill="#000000">FluentExtension</text>
</g>
<!-- \\Firesphere\\SolrSearch\\Fluent\\FluentExtension&#45;&gt;\\SilverStripe\\Core\\Extension -->
<g id="edge22" class="edge">
<title>\\Firesphere\\SolrSearch\\Fluent\\FluentExtension&#45;&gt;\\SilverStripe\\Core\\Extension</title>
<path fill="none" stroke="#000000" d="M613.6892,-600.1457C598.1363,-595.7603 582.782,-588.3803 572.2549,-576.0593 433.3082,-413.4343 661.5721,-248.2133 508.2549,-99.0593 466.0422,-57.9928 399.2822,-52.254 344.78,-56.2483"/>
<polygon fill="none" stroke="#000000" points="344.4219,-52.766 334.7545,-57.101 345.0152,-59.7408 344.4219,-52.766"/>
</g>
<!-- \\Firesphere\\SolrSearch\\Subsites\\SubsitesExtension -->
<g id="node53" class="node">
<title>\\Firesphere\\SolrSearch\\Subsites\\SubsitesExtension</title>
<polygon fill="none" stroke="#000000" points="738.2549,-544.0593 607.2549,-544.0593 607.2549,-508.0593 738.2549,-508.0593 738.2549,-544.0593"/>
<text text-anchor="middle" x="672.7549" y="-523.2593" font-family="Courier,monospace" font-size="11.00" fill="#000000">SubsitesExtension</text>
</g>
<!-- \\Firesphere\\SolrSearch\\Subsites\\SubsitesExtension&#45;&gt;\\SilverStripe\\ORM\\DataExtension -->
<g id="edge23" class="edge">
<title>\\Firesphere\\SolrSearch\\Subsites\\SubsitesExtension&#45;&gt;\\SilverStripe\\ORM\\DataExtension</title>
<path fill="none" stroke="#000000" d="M669.255,-508.0143C653.3631,-428.0208 585.4274,-106.6479 508.2549,-45.0593 471.5859,-15.7951 421.8522,-6.0996 376.1027,-4.7999"/>
<polygon fill="none" stroke="#000000" points="376.1562,-1.3004 366.1032,-4.645 376.0477,-8.2996 376.1562,-1.3004"/>
</g>
</g>
</svg>
