<?xml version="1.0" encoding="UTF-8" standalone="no"?>
<!DOCTYPE svg PUBLIC "-//W3C//DTD SVG 1.1//EN"
 "http://www.w3.org/Graphics/SVG/1.1/DTD/svg11.dtd">
<!-- Generated by graphviz version 2.40.1 (20161225.0304)
 -->
<!-- Title: G Pages: 1 -->
<svg width="1057pt" height="3721pt"
 viewBox="0.00 0.00 1057.25 3721.00" xmlns="http://www.w3.org/2000/svg" xmlns:xlink="http://www.w3.org/1999/xlink">
<g id="graph0" class="graph" transform="scale(1 1) rotate(0) translate(4 3717.0013)">
<title>G</title>
<polygon fill="#ffffff" stroke="transparent" points="-4,4 -4,-3717.0013 1053.2549,-3717.0013 1053.2549,4 -4,4"/>
<g id="clust1" class="cluster">
<title>cluster_Global</title>
<path fill="none" stroke="#c0c0c0" d="M165.1275,-152.4191C165.1275,-152.4191 1029.2549,-152.4191 1029.2549,-152.4191 1035.2549,-152.4191 1041.2549,-158.4191 1041.2549,-164.4191 1041.2549,-164.4191 1041.2549,-3386.4191 1041.2549,-3386.4191 1041.2549,-3392.4191 1035.2549,-3398.4191 1029.2549,-3398.4191 1029.2549,-3398.4191 165.1275,-3398.4191 165.1275,-3398.4191 159.1275,-3398.4191 153.1275,-3392.4191 153.1275,-3386.4191 153.1275,-3386.4191 153.1275,-164.4191 153.1275,-164.4191 153.1275,-158.4191 159.1275,-152.4191 165.1275,-152.4191"/>
<text text-anchor="middle" x="597.1912" y="-3385.6191" font-family="Times,serif" font-size="11.00" fill="#c0c0c0">Global</text>
</g>
<g id="clust2" class="cluster">
<title>cluster_\SilverStripe</title>
<path fill="none" stroke="#c0c0c0" d="M857.7549,-3056.4191C857.7549,-3056.4191 988.7549,-3056.4191 988.7549,-3056.4191 994.7549,-3056.4191 1000.7549,-3062.4191 1000.7549,-3068.4191 1000.7549,-3068.4191 1000.7549,-3358.4191 1000.7549,-3358.4191 1000.7549,-3364.4191 994.7549,-3370.4191 988.7549,-3370.4191 988.7549,-3370.4191 857.7549,-3370.4191 857.7549,-3370.4191 851.7549,-3370.4191 845.7549,-3364.4191 845.7549,-3358.4191 845.7549,-3358.4191 845.7549,-3068.4191 845.7549,-3068.4191 845.7549,-3062.4191 851.7549,-3056.4191 857.7549,-3056.4191"/>
<text text-anchor="middle" x="923.2549" y="-3357.6191" font-family="Times,serif" font-size="11.00" fill="#c0c0c0">SilverStripe</text>
</g>
<g id="clust3" class="cluster">
<title>cluster_\SilverStripe\FullTextSearch</title>
<path fill="none" stroke="#c0c0c0" d="M865.7549,-3064.4191C865.7549,-3064.4191 980.7549,-3064.4191 980.7549,-3064.4191 986.7549,-3064.4191 992.7549,-3070.4191 992.7549,-3076.4191 992.7549,-3076.4191 992.7549,-3330.4191 992.7549,-3330.4191 992.7549,-3336.4191 986.7549,-3342.4191 980.7549,-3342.4191 980.7549,-3342.4191 865.7549,-3342.4191 865.7549,-3342.4191 859.7549,-3342.4191 853.7549,-3336.4191 853.7549,-3330.4191 853.7549,-3330.4191 853.7549,-3076.4191 853.7549,-3076.4191 853.7549,-3070.4191 859.7549,-3064.4191 865.7549,-3064.4191"/>
<text text-anchor="middle" x="923.2549" y="-3329.6191" font-family="Times,serif" font-size="11.00" fill="#c0c0c0">FullTextSearch</text>
</g>
<g id="clust4" class="cluster">
<title>cluster_\SilverStripe\FullTextSearch\Solr</title>
<path fill="none" stroke="#c0c0c0" d="M885.2549,-3188.4191C885.2549,-3188.4191 961.2549,-3188.4191 961.2549,-3188.4191 967.2549,-3188.4191 973.2549,-3194.4191 973.2549,-3200.4191 973.2549,-3200.4191 973.2549,-3302.4191 973.2549,-3302.4191 973.2549,-3308.4191 967.2549,-3314.4191 961.2549,-3314.4191 961.2549,-3314.4191 885.2549,-3314.4191 885.2549,-3314.4191 879.2549,-3314.4191 873.2549,-3308.4191 873.2549,-3302.4191 873.2549,-3302.4191 873.2549,-3200.4191 873.2549,-3200.4191 873.2549,-3194.4191 879.2549,-3188.4191 885.2549,-3188.4191"/>
<text text-anchor="middle" x="923.2549" y="-3301.6191" font-family="Times,serif" font-size="11.00" fill="#c0c0c0">Solr</text>
</g>
<g id="clust5" class="cluster">
<title>cluster_\SilverStripe\FullTextSearch\Search</title>
<path fill="none" stroke="#c0c0c0" d="M873.7549,-3072.4191C873.7549,-3072.4191 972.7549,-3072.4191 972.7549,-3072.4191 978.7549,-3072.4191 984.7549,-3078.4191 984.7549,-3084.4191 984.7549,-3084.4191 984.7549,-3168.4191 984.7549,-3168.4191 984.7549,-3174.4191 978.7549,-3180.4191 972.7549,-3180.4191 972.7549,-3180.4191 873.7549,-3180.4191 873.7549,-3180.4191 867.7549,-3180.4191 861.7549,-3174.4191 861.7549,-3168.4191 861.7549,-3168.4191 861.7549,-3084.4191 861.7549,-3084.4191 861.7549,-3078.4191 867.7549,-3072.4191 873.7549,-3072.4191"/>
<text text-anchor="middle" x="923.2549" y="-3167.6191" font-family="Times,serif" font-size="11.00" fill="#c0c0c0">Search</text>
</g>
<g id="clust6" class="cluster">
<title>cluster_\SilverStripe\FullTextSearch\Search\Queries</title>
<path fill="none" stroke="#c0c0c0" d="M881.7549,-3080.4191C881.7549,-3080.4191 964.7549,-3080.4191 964.7549,-3080.4191 970.7549,-3080.4191 976.7549,-3086.4191 976.7549,-3092.4191 976.7549,-3092.4191 976.7549,-3140.4191 976.7549,-3140.4191 976.7549,-3146.4191 970.7549,-3152.4191 964.7549,-3152.4191 964.7549,-3152.4191 881.7549,-3152.4191 881.7549,-3152.4191 875.7549,-3152.4191 869.7549,-3146.4191 869.7549,-3140.4191 869.7549,-3140.4191 869.7549,-3092.4191 869.7549,-3092.4191 869.7549,-3086.4191 875.7549,-3080.4191 881.7549,-3080.4191"/>
<text text-anchor="middle" x="923.2549" y="-3139.6191" font-family="Times,serif" font-size="11.00" fill="#c0c0c0">Queries</text>
</g>
<g id="clust7" class="cluster">
<title>cluster_\Firesphere</title>
<path fill="none" stroke="#c0c0c0" d="M173.1275,-160.4191C173.1275,-160.4191 1021.2549,-160.4191 1021.2549,-160.4191 1027.2549,-160.4191 1033.2549,-166.4191 1033.2549,-172.4191 1033.2549,-172.4191 1033.2549,-3036.4191 1033.2549,-3036.4191 1033.2549,-3042.4191 1027.2549,-3048.4191 1021.2549,-3048.4191 1021.2549,-3048.4191 173.1275,-3048.4191 173.1275,-3048.4191 167.1275,-3048.4191 161.1275,-3042.4191 161.1275,-3036.4191 161.1275,-3036.4191 161.1275,-172.4191 161.1275,-172.4191 161.1275,-166.4191 167.1275,-160.4191 173.1275,-160.4191"/>
<text text-anchor="middle" x="597.1912" y="-3035.6191" font-family="Times,serif" font-size="11.00" fill="#c0c0c0">Firesphere</text>
</g>
<g id="clust8" class="cluster">
<title>cluster_\Firesphere\SolrCompatibility</title>
<path fill="none" stroke="#c0c0c0" d="M833.2549,-642.4191C833.2549,-642.4191 1013.2549,-642.4191 1013.2549,-642.4191 1019.2549,-642.4191 1025.2549,-648.4191 1025.2549,-654.4191 1025.2549,-654.4191 1025.2549,-738.4191 1025.2549,-738.4191 1025.2549,-744.4191 1019.2549,-750.4191 1013.2549,-750.4191 1013.2549,-750.4191 833.2549,-750.4191 833.2549,-750.4191 827.2549,-750.4191 821.2549,-744.4191 821.2549,-738.4191 821.2549,-738.4191 821.2549,-654.4191 821.2549,-654.4191 821.2549,-648.4191 827.2549,-642.4191 833.2549,-642.4191"/>
<text text-anchor="middle" x="923.2549" y="-737.6191" font-family="Times,serif" font-size="11.00" fill="#c0c0c0">SolrCompatibility</text>
</g>
<g id="clust9" class="cluster">
<title>cluster_\Firesphere\SolrCompatibility\Extensions</title>
<path fill="none" stroke="#c0c0c0" d="M841.2549,-650.4191C841.2549,-650.4191 1005.2549,-650.4191 1005.2549,-650.4191 1011.2549,-650.4191 1017.2549,-656.4191 1017.2549,-662.4191 1017.2549,-662.4191 1017.2549,-710.4191 1017.2549,-710.4191 1017.2549,-716.4191 1011.2549,-722.4191 1005.2549,-722.4191 1005.2549,-722.4191 841.2549,-722.4191 841.2549,-722.4191 835.2549,-722.4191 829.2549,-716.4191 829.2549,-710.4191 829.2549,-710.4191 829.2549,-662.4191 829.2549,-662.4191 829.2549,-656.4191 835.2549,-650.4191 841.2549,-650.4191"/>
<text text-anchor="middle" x="923.2549" y="-709.6191" font-family="Times,serif" font-size="11.00" fill="#c0c0c0">Extensions</text>
</g>
<g id="clust10" class="cluster">
<title>cluster_\Firesphere\SolrSearch</title>
<path fill="none" stroke="#c0c0c0" d="M181.1275,-172.4191C181.1275,-172.4191 769.2549,-172.4191 769.2549,-172.4191 775.2549,-172.4191 781.2549,-178.4191 781.2549,-184.4191 781.2549,-184.4191 781.2549,-3008.4191 781.2549,-3008.4191 781.2549,-3014.4191 775.2549,-3020.4191 769.2549,-3020.4191 769.2549,-3020.4191 181.1275,-3020.4191 181.1275,-3020.4191 175.1275,-3020.4191 169.1275,-3014.4191 169.1275,-3008.4191 169.1275,-3008.4191 169.1275,-184.4191 169.1275,-184.4191 169.1275,-178.4191 175.1275,-172.4191 181.1275,-172.4191"/>
<text text-anchor="middle" x="475.1912" y="-3007.6191" font-family="Times,serif" font-size="11.00" fill="#c0c0c0">SolrSearch</text>
</g>
<g id="clust11" class="cluster">
<title>cluster_\Firesphere\SolrSearch\Stores</title>
<path fill="none" stroke="#c0c0c0" d="M617.7549,-2866.4191C617.7549,-2866.4191 727.7549,-2866.4191 727.7549,-2866.4191 733.7549,-2866.4191 739.7549,-2872.4191 739.7549,-2878.4191 739.7549,-2878.4191 739.7549,-2980.4191 739.7549,-2980.4191 739.7549,-2986.4191 733.7549,-2992.4191 727.7549,-2992.4191 727.7549,-2992.4191 617.7549,-2992.4191 617.7549,-2992.4191 611.7549,-2992.4191 605.7549,-2986.4191 605.7549,-2980.4191 605.7549,-2980.4191 605.7549,-2878.4191 605.7549,-2878.4191 605.7549,-2872.4191 611.7549,-2866.4191 617.7549,-2866.4191"/>
<text text-anchor="middle" x="672.7549" y="-2979.6191" font-family="Times,serif" font-size="11.00" fill="#c0c0c0">Stores</text>
</g>
<g id="clust12" class="cluster">
<title>cluster_\Firesphere\SolrSearch\Results</title>
<path fill="none" stroke="#c0c0c0" d="M627.7549,-2786.4191C627.7549,-2786.4191 717.7549,-2786.4191 717.7549,-2786.4191 723.7549,-2786.4191 729.7549,-2792.4191 729.7549,-2798.4191 729.7549,-2798.4191 729.7549,-2846.4191 729.7549,-2846.4191 729.7549,-2852.4191 723.7549,-2858.4191 717.7549,-2858.4191 717.7549,-2858.4191 627.7549,-2858.4191 627.7549,-2858.4191 621.7549,-2858.4191 615.7549,-2852.4191 615.7549,-2846.4191 615.7549,-2846.4191 615.7549,-2798.4191 615.7549,-2798.4191 615.7549,-2792.4191 621.7549,-2786.4191 627.7549,-2786.4191"/>
<text text-anchor="middle" x="672.7549" y="-2845.6191" font-family="Times,serif" font-size="11.00" fill="#c0c0c0">Results</text>
</g>
<g id="clust13" class="cluster">
<title>cluster_\Firesphere\SolrSearch\Indexes</title>
<path fill="none" stroke="#c0c0c0" d="M634.7549,-2706.4191C634.7549,-2706.4191 710.7549,-2706.4191 710.7549,-2706.4191 716.7549,-2706.4191 722.7549,-2712.4191 722.7549,-2718.4191 722.7549,-2718.4191 722.7549,-2766.4191 722.7549,-2766.4191 722.7549,-2772.4191 716.7549,-2778.4191 710.7549,-2778.4191 710.7549,-2778.4191 634.7549,-2778.4191 634.7549,-2778.4191 628.7549,-2778.4191 622.7549,-2772.4191 622.7549,-2766.4191 622.7549,-2766.4191 622.7549,-2718.4191 622.7549,-2718.4191 622.7549,-2712.4191 628.7549,-2706.4191 634.7549,-2706.4191"/>
<text text-anchor="middle" x="672.7549" y="-2765.6191" font-family="Times,serif" font-size="11.00" fill="#c0c0c0">Indexes</text>
</g>
<g id="clust14" class="cluster">
<title>cluster_\Firesphere\SolrSearch\Admins</title>
<path fill="none" stroke="#c0c0c0" d="M631.2549,-2626.4191C631.2549,-2626.4191 714.2549,-2626.4191 714.2549,-2626.4191 720.2549,-2626.4191 726.2549,-2632.4191 726.2549,-2638.4191 726.2549,-2638.4191 726.2549,-2686.4191 726.2549,-2686.4191 726.2549,-2692.4191 720.2549,-2698.4191 714.2549,-2698.4191 714.2549,-2698.4191 631.2549,-2698.4191 631.2549,-2698.4191 625.2549,-2698.4191 619.2549,-2692.4191 619.2549,-2686.4191 619.2549,-2686.4191 619.2549,-2638.4191 619.2549,-2638.4191 619.2549,-2632.4191 625.2549,-2626.4191 631.2549,-2626.4191"/>
<text text-anchor="middle" x="672.7549" y="-2685.6191" font-family="Times,serif" font-size="11.00" fill="#c0c0c0">Admins</text>
</g>
<g id="clust15" class="cluster">
<title>cluster_\Firesphere\SolrSearch\Factories</title>
<path fill="none" stroke="#c0c0c0" d="M597.7549,-2492.4191C597.7549,-2492.4191 747.7549,-2492.4191 747.7549,-2492.4191 753.7549,-2492.4191 759.7549,-2498.4191 759.7549,-2504.4191 759.7549,-2504.4191 759.7549,-2606.4191 759.7549,-2606.4191 759.7549,-2612.4191 753.7549,-2618.4191 747.7549,-2618.4191 747.7549,-2618.4191 597.7549,-2618.4191 597.7549,-2618.4191 591.7549,-2618.4191 585.7549,-2612.4191 585.7549,-2606.4191 585.7549,-2606.4191 585.7549,-2504.4191 585.7549,-2504.4191 585.7549,-2498.4191 591.7549,-2492.4191 597.7549,-2492.4191"/>
<text text-anchor="middle" x="672.7549" y="-2605.6191" font-family="Times,serif" font-size="11.00" fill="#c0c0c0">Factories</text>
</g>
<g id="clust16" class="cluster">
<title>cluster_\Firesphere\SolrSearch\Models</title>
<path fill="none" stroke="#c0c0c0" d="M624.7549,-2304.4191C624.7549,-2304.4191 720.7549,-2304.4191 720.7549,-2304.4191 726.7549,-2304.4191 732.7549,-2310.4191 732.7549,-2316.4191 732.7549,-2316.4191 732.7549,-2472.4191 732.7549,-2472.4191 732.7549,-2478.4191 726.7549,-2484.4191 720.7549,-2484.4191 720.7549,-2484.4191 624.7549,-2484.4191 624.7549,-2484.4191 618.7549,-2484.4191 612.7549,-2478.4191 612.7549,-2472.4191 612.7549,-2472.4191 612.7549,-2316.4191 612.7549,-2316.4191 612.7549,-2310.4191 618.7549,-2304.4191 624.7549,-2304.4191"/>
<text text-anchor="middle" x="672.7549" y="-2471.6191" font-family="Times,serif" font-size="11.00" fill="#c0c0c0">Models</text>
</g>
<g id="clust17" class="cluster">
<title>cluster_\Firesphere\SolrSearch\States</title>
<path fill="none" stroke="#c0c0c0" d="M634.7549,-2144.4191C634.7549,-2144.4191 710.7549,-2144.4191 710.7549,-2144.4191 716.7549,-2144.4191 722.7549,-2150.4191 722.7549,-2156.4191 722.7549,-2156.4191 722.7549,-2204.4191 722.7549,-2204.4191 722.7549,-2210.4191 716.7549,-2216.4191 710.7549,-2216.4191 710.7549,-2216.4191 634.7549,-2216.4191 634.7549,-2216.4191 628.7549,-2216.4191 622.7549,-2210.4191 622.7549,-2204.4191 622.7549,-2204.4191 622.7549,-2156.4191 622.7549,-2156.4191 622.7549,-2150.4191 628.7549,-2144.4191 634.7549,-2144.4191"/>
<text text-anchor="middle" x="672.7549" y="-2203.6191" font-family="Times,serif" font-size="11.00" fill="#c0c0c0">States</text>
</g>
<g id="clust18" class="cluster">
<title>cluster_\Firesphere\SolrSearch\Queries</title>
<path fill="none" stroke="#c0c0c0" d="M638.2549,-2224.4191C638.2549,-2224.4191 707.2549,-2224.4191 707.2549,-2224.4191 713.2549,-2224.4191 719.2549,-2230.4191 719.2549,-2236.4191 719.2549,-2236.4191 719.2549,-2284.4191 719.2549,-2284.4191 719.2549,-2290.4191 713.2549,-2296.4191 707.2549,-2296.4191 707.2549,-2296.4191 638.2549,-2296.4191 638.2549,-2296.4191 632.2549,-2296.4191 626.2549,-2290.4191 626.2549,-2284.4191 626.2549,-2284.4191 626.2549,-2236.4191 626.2549,-2236.4191 626.2549,-2230.4191 632.2549,-2224.4191 638.2549,-2224.4191"/>
<text text-anchor="middle" x="672.7549" y="-2283.6191" font-family="Times,serif" font-size="11.00" fill="#c0c0c0">Queries</text>
</g>
<g id="clust19" class="cluster">
<title>cluster_\Firesphere\SolrSearch\Interfaces</title>
<path fill="none" stroke="#c0c0c0" d="M189.1275,-2812.4191C189.1275,-2812.4191 319.1275,-2812.4191 319.1275,-2812.4191 325.1275,-2812.4191 331.1275,-2818.4191 331.1275,-2824.4191 331.1275,-2824.4191 331.1275,-2926.4191 331.1275,-2926.4191 331.1275,-2932.4191 325.1275,-2938.4191 319.1275,-2938.4191 319.1275,-2938.4191 189.1275,-2938.4191 189.1275,-2938.4191 183.1275,-2938.4191 177.1275,-2932.4191 177.1275,-2926.4191 177.1275,-2926.4191 177.1275,-2824.4191 177.1275,-2824.4191 177.1275,-2818.4191 183.1275,-2812.4191 189.1275,-2812.4191"/>
<text text-anchor="middle" x="254.1275" y="-2925.6191" font-family="Times,serif" font-size="11.00" fill="#c0c0c0">Interfaces</text>
</g>
<g id="clust20" class="cluster">
<title>cluster_\Firesphere\SolrSearch\Jobs</title>
<path fill="none" stroke="#c0c0c0" d="M600.7549,-1956.4191C600.7549,-1956.4191 744.7549,-1956.4191 744.7549,-1956.4191 750.7549,-1956.4191 756.7549,-1962.4191 756.7549,-1968.4191 756.7549,-1968.4191 756.7549,-2124.4191 756.7549,-2124.4191 756.7549,-2130.4191 750.7549,-2136.4191 744.7549,-2136.4191 744.7549,-2136.4191 600.7549,-2136.4191 600.7549,-2136.4191 594.7549,-2136.4191 588.7549,-2130.4191 588.7549,-2124.4191 588.7549,-2124.4191 588.7549,-1968.4191 588.7549,-1968.4191 588.7549,-1962.4191 594.7549,-1956.4191 600.7549,-1956.4191"/>
<text text-anchor="middle" x="672.7549" y="-2123.6191" font-family="Times,serif" font-size="11.00" fill="#c0c0c0">Jobs</text>
</g>
<g id="clust21" class="cluster">
<title>cluster_\Firesphere\SolrSearch\Helpers</title>
<path fill="none" stroke="#c0c0c0" d="M624.7549,-1660.4191C624.7549,-1660.4191 720.7549,-1660.4191 720.7549,-1660.4191 726.7549,-1660.4191 732.7549,-1666.4191 732.7549,-1672.4191 732.7549,-1672.4191 732.7549,-1936.4191 732.7549,-1936.4191 732.7549,-1942.4191 726.7549,-1948.4191 720.7549,-1948.4191 720.7549,-1948.4191 624.7549,-1948.4191 624.7549,-1948.4191 618.7549,-1948.4191 612.7549,-1942.4191 612.7549,-1936.4191 612.7549,-1936.4191 612.7549,-1672.4191 612.7549,-1672.4191 612.7549,-1666.4191 618.7549,-1660.4191 624.7549,-1660.4191"/>
<text text-anchor="middle" x="672.7549" y="-1935.6191" font-family="Times,serif" font-size="11.00" fill="#c0c0c0">Helpers</text>
</g>
<g id="clust22" class="cluster">
<title>cluster_\Firesphere\SolrSearch\Services</title>
<path fill="none" stroke="#c0c0c0" d="M617.7549,-1526.4191C617.7549,-1526.4191 727.7549,-1526.4191 727.7549,-1526.4191 733.7549,-1526.4191 739.7549,-1532.4191 739.7549,-1538.4191 739.7549,-1538.4191 739.7549,-1640.4191 739.7549,-1640.4191 739.7549,-1646.4191 733.7549,-1652.4191 727.7549,-1652.4191 727.7549,-1652.4191 617.7549,-1652.4191 617.7549,-1652.4191 611.7549,-1652.4191 605.7549,-1646.4191 605.7549,-1640.4191 605.7549,-1640.4191 605.7549,-1538.4191 605.7549,-1538.4191 605.7549,-1532.4191 611.7549,-1526.4191 617.7549,-1526.4191"/>
<text text-anchor="middle" x="672.7549" y="-1639.6191" font-family="Times,serif" font-size="11.00" fill="#c0c0c0">Services</text>
</g>
<g id="clust23" class="cluster">
<title>cluster_\Firesphere\SolrSearch\Tasks</title>
<path fill="none" stroke="#c0c0c0" d="M597.7549,-1284.4191C597.7549,-1284.4191 747.7549,-1284.4191 747.7549,-1284.4191 753.7549,-1284.4191 759.7549,-1290.4191 759.7549,-1296.4191 759.7549,-1296.4191 759.7549,-1506.4191 759.7549,-1506.4191 759.7549,-1512.4191 753.7549,-1518.4191 747.7549,-1518.4191 747.7549,-1518.4191 597.7549,-1518.4191 597.7549,-1518.4191 591.7549,-1518.4191 585.7549,-1512.4191 585.7549,-1506.4191 585.7549,-1506.4191 585.7549,-1296.4191 585.7549,-1296.4191 585.7549,-1290.4191 591.7549,-1284.4191 597.7549,-1284.4191"/>
<text text-anchor="middle" x="672.7549" y="-1505.6191" font-family="Times,serif" font-size="11.00" fill="#c0c0c0">Tasks</text>
</g>
<g id="clust24" class="cluster">
<title>cluster_\Firesphere\SolrSearch\Extensions</title>
<path fill="none" stroke="#c0c0c0" d="M604.2549,-1150.4191C604.2549,-1150.4191 741.2549,-1150.4191 741.2549,-1150.4191 747.2549,-1150.4191 753.2549,-1156.4191 753.2549,-1162.4191 753.2549,-1162.4191 753.2549,-1264.4191 753.2549,-1264.4191 753.2549,-1270.4191 747.2549,-1276.4191 741.2549,-1276.4191 741.2549,-1276.4191 604.2549,-1276.4191 604.2549,-1276.4191 598.2549,-1276.4191 592.2549,-1270.4191 592.2549,-1264.4191 592.2549,-1264.4191 592.2549,-1162.4191 592.2549,-1162.4191 592.2549,-1156.4191 598.2549,-1150.4191 604.2549,-1150.4191"/>
<text text-anchor="middle" x="672.7549" y="-1263.6191" font-family="Times,serif" font-size="11.00" fill="#c0c0c0">Extensions</text>
</g>
<g id="clust25" class="cluster">
<title>cluster_\Firesphere\SolrSearch\Traits</title>
<path fill="none" stroke="#c0c0c0" d="M584.2549,-260.4191C584.2549,-260.4191 761.2549,-260.4191 761.2549,-260.4191 767.2549,-260.4191 773.2549,-266.4191 773.2549,-272.4191 773.2549,-272.4191 773.2549,-1130.4191 773.2549,-1130.4191 773.2549,-1136.4191 767.2549,-1142.4191 761.2549,-1142.4191 761.2549,-1142.4191 584.2549,-1142.4191 584.2549,-1142.4191 578.2549,-1142.4191 572.2549,-1136.4191 572.2549,-1130.4191 572.2549,-1130.4191 572.2549,-272.4191 572.2549,-272.4191 572.2549,-266.4191 578.2549,-260.4191 584.2549,-260.4191"/>
<text text-anchor="middle" x="672.7549" y="-1129.6191" font-family="Times,serif" font-size="11.00" fill="#c0c0c0">Traits</text>
</g>
<g id="clust26" class="cluster">
<title>cluster_\Firesphere\SolrSearch\Forms</title>
<path fill="none" stroke="#c0c0c0" d="M634.7549,-180.4191C634.7549,-180.4191 710.7549,-180.4191 710.7549,-180.4191 716.7549,-180.4191 722.7549,-186.4191 722.7549,-192.4191 722.7549,-192.4191 722.7549,-240.4191 722.7549,-240.4191 722.7549,-246.4191 716.7549,-252.4191 710.7549,-252.4191 710.7549,-252.4191 634.7549,-252.4191 634.7549,-252.4191 628.7549,-252.4191 622.7549,-246.4191 622.7549,-240.4191 622.7549,-240.4191 622.7549,-192.4191 622.7549,-192.4191 622.7549,-186.4191 628.7549,-180.4191 634.7549,-180.4191"/>
<text text-anchor="middle" x="672.7549" y="-239.6191" font-family="Times,serif" font-size="11.00" fill="#c0c0c0">Forms</text>
</g>
<g id="clust27" class="cluster">
<title>cluster_\Firesphere\SolrFluent</title>
<path fill="none" stroke="#c0c0c0" d="M833.2549,-338.4191C833.2549,-338.4191 1013.2549,-338.4191 1013.2549,-338.4191 1019.2549,-338.4191 1025.2549,-344.4191 1025.2549,-350.4191 1025.2549,-350.4191 1025.2549,-622.4191 1025.2549,-622.4191 1025.2549,-628.4191 1019.2549,-634.4191 1013.2549,-634.4191 1013.2549,-634.4191 833.2549,-634.4191 833.2549,-634.4191 827.2549,-634.4191 821.2549,-628.4191 821.2549,-622.4191 821.2549,-622.4191 821.2549,-350.4191 821.2549,-350.4191 821.2549,-344.4191 827.2549,-338.4191 833.2549,-338.4191"/>
<text text-anchor="middle" x="923.2549" y="-621.6191" font-family="Times,serif" font-size="11.00" fill="#c0c0c0">SolrFluent</text>
</g>
<g id="clust28" class="cluster">
<title>cluster_\Firesphere\SolrFluent\States</title>
<path fill="none" stroke="#c0c0c0" d="M868.2549,-534.4191C868.2549,-534.4191 978.2549,-534.4191 978.2549,-534.4191 984.2549,-534.4191 990.2549,-540.4191 990.2549,-546.4191 990.2549,-546.4191 990.2549,-594.4191 990.2549,-594.4191 990.2549,-600.4191 984.2549,-606.4191 978.2549,-606.4191 978.2549,-606.4191 868.2549,-606.4191 868.2549,-606.4191 862.2549,-606.4191 856.2549,-600.4191 856.2549,-594.4191 856.2549,-594.4191 856.2549,-546.4191 856.2549,-546.4191 856.2549,-540.4191 862.2549,-534.4191 868.2549,-534.4191"/>
<text text-anchor="middle" x="923.2549" y="-593.6191" font-family="Times,serif" font-size="11.00" fill="#c0c0c0">States</text>
</g>
<g id="clust29" class="cluster">
<title>cluster_\Firesphere\SolrFluent\Extensions</title>
<path fill="none" stroke="#c0c0c0" d="M841.2549,-346.4191C841.2549,-346.4191 1005.2549,-346.4191 1005.2549,-346.4191 1011.2549,-346.4191 1017.2549,-352.4191 1017.2549,-358.4191 1017.2549,-358.4191 1017.2549,-514.4191 1017.2549,-514.4191 1017.2549,-520.4191 1011.2549,-526.4191 1005.2549,-526.4191 1005.2549,-526.4191 841.2549,-526.4191 841.2549,-526.4191 835.2549,-526.4191 829.2549,-520.4191 829.2549,-514.4191 829.2549,-514.4191 829.2549,-358.4191 829.2549,-358.4191 829.2549,-352.4191 835.2549,-346.4191 841.2549,-346.4191"/>
<text text-anchor="middle" x="923.2549" y="-513.6191" font-family="Times,serif" font-size="11.00" fill="#c0c0c0">Extensions</text>
</g>
<g id="clust30" class="cluster">
<title>cluster_\Firesphere\SolrSubsites</title>
<path fill="none" stroke="#c0c0c0" d="M853.7549,-758.4191C853.7549,-758.4191 992.7549,-758.4191 992.7549,-758.4191 998.7549,-758.4191 1004.7549,-764.4191 1004.7549,-770.4191 1004.7549,-770.4191 1004.7549,-934.4191 1004.7549,-934.4191 1004.7549,-940.4191 998.7549,-946.4191 992.7549,-946.4191 992.7549,-946.4191 853.7549,-946.4191 853.7549,-946.4191 847.7549,-946.4191 841.7549,-940.4191 841.7549,-934.4191 841.7549,-934.4191 841.7549,-770.4191 841.7549,-770.4191 841.7549,-764.4191 847.7549,-758.4191 853.7549,-758.4191"/>
<text text-anchor="middle" x="923.2549" y="-933.6191" font-family="Times,serif" font-size="11.00" fill="#c0c0c0">SolrSubsites</text>
</g>
<g id="clust31" class="cluster">
<title>cluster_\Firesphere\SolrSubsites\States</title>
<path fill="none" stroke="#c0c0c0" d="M878.2549,-846.4191C878.2549,-846.4191 968.2549,-846.4191 968.2549,-846.4191 974.2549,-846.4191 980.2549,-852.4191 980.2549,-858.4191 980.2549,-858.4191 980.2549,-906.4191 980.2549,-906.4191 980.2549,-912.4191 974.2549,-918.4191 968.2549,-918.4191 968.2549,-918.4191 878.2549,-918.4191 878.2549,-918.4191 872.2549,-918.4191 866.2549,-912.4191 866.2549,-906.4191 866.2549,-906.4191 866.2549,-858.4191 866.2549,-858.4191 866.2549,-852.4191 872.2549,-846.4191 878.2549,-846.4191"/>
<text text-anchor="middle" x="923.2549" y="-905.6191" font-family="Times,serif" font-size="11.00" fill="#c0c0c0">States</text>
</g>
<g id="clust32" class="cluster">
<title>cluster_\Firesphere\SolrSubsites\Extensions</title>
<path fill="none" stroke="#c0c0c0" d="M861.7549,-766.4191C861.7549,-766.4191 984.7549,-766.4191 984.7549,-766.4191 990.7549,-766.4191 996.7549,-772.4191 996.7549,-778.4191 996.7549,-778.4191 996.7549,-826.4191 996.7549,-826.4191 996.7549,-832.4191 990.7549,-838.4191 984.7549,-838.4191 984.7549,-838.4191 861.7549,-838.4191 861.7549,-838.4191 855.7549,-838.4191 849.7549,-832.4191 849.7549,-826.4191 849.7549,-826.4191 849.7549,-778.4191 849.7549,-778.4191 849.7549,-772.4191 855.7549,-766.4191 861.7549,-766.4191"/>
<text text-anchor="middle" x="923.2549" y="-825.6191" font-family="Times,serif" font-size="11.00" fill="#c0c0c0">Extensions</text>
</g>
<g id="clust33" class="cluster">
<title>cluster_\Firesphere\SolrPermissions</title>
<path fill="none" stroke="#c0c0c0" d="M846.7549,-168.4191C846.7549,-168.4191 999.7549,-168.4191 999.7549,-168.4191 1005.7549,-168.4191 1011.7549,-174.4191 1011.7549,-180.4191 1011.7549,-180.4191 1011.7549,-318.4191 1011.7549,-318.4191 1011.7549,-324.4191 1005.7549,-330.4191 999.7549,-330.4191 999.7549,-330.4191 846.7549,-330.4191 846.7549,-330.4191 840.7549,-330.4191 834.7549,-324.4191 834.7549,-318.4191 834.7549,-318.4191 834.7549,-180.4191 834.7549,-180.4191 834.7549,-174.4191 840.7549,-168.4191 846.7549,-168.4191"/>
<text text-anchor="middle" x="923.2549" y="-317.6191" font-family="Times,serif" font-size="11.00" fill="#c0c0c0">SolrPermissions</text>
</g>
<g id="clust34" class="cluster">
<title>cluster_\Firesphere\SolrPermissions\Extensions</title>
<path fill="none" stroke="#c0c0c0" d="M854.7549,-176.4191C854.7549,-176.4191 991.7549,-176.4191 991.7549,-176.4191 997.7549,-176.4191 1003.7549,-182.4191 1003.7549,-188.4191 1003.7549,-188.4191 1003.7549,-290.4191 1003.7549,-290.4191 1003.7549,-296.4191 997.7549,-302.4191 991.7549,-302.4191 991.7549,-302.4191 854.7549,-302.4191 854.7549,-302.4191 848.7549,-302.4191 842.7549,-296.4191 842.7549,-290.4191 842.7549,-290.4191 842.7549,-188.4191 842.7549,-188.4191 842.7549,-182.4191 848.7549,-176.4191 854.7549,-176.4191"/>
<text text-anchor="middle" x="923.2549" y="-289.6191" font-family="Times,serif" font-size="11.00" fill="#c0c0c0">Extensions</text>
</g>
<!-- \\SilverStripe\\FullTextSearch\\Solr\\Solr -->
<g id="node1" class="node">
<title>\\SilverStripe\\FullTextSearch\\Solr\\Solr</title>
<polygon fill="none" stroke="#000000" points="950.2549,-3286.4191 896.2549,-3286.4191 896.2549,-3250.4191 950.2549,-3250.4191 950.2549,-3286.4191"/>
<text text-anchor="middle" x="923.2549" y="-3265.6191" font-family="Courier,monospace" font-size="11.00" fill="#000000">Solr</text>
</g>
<!-- \\SilverStripe\\FullTextSearch\\Solr\\SolrIndex -->
<g id="node2" class="node">
<title>\\SilverStripe\\FullTextSearch\\Solr\\SolrIndex</title>
<polygon fill="none" stroke="#000000" points="965.2549,-3232.4191 881.2549,-3232.4191 881.2549,-3196.4191 965.2549,-3196.4191 965.2549,-3232.4191"/>
<text text-anchor="start" x="889.2549" y="-3217.6191" font-family="Courier,monospace" font-size="11.00" fill="#000000">«abstract»</text>
<text text-anchor="start" x="892.7549" y="-3205.6191" font-family="Courier,monospace" font-size="11.00" fill="#000000">SolrIndex</text>
</g>
<!-- \\Firesphere\\SolrSearch\\Indexes\\BaseIndex -->
<g id="node8" class="node">
<title>\\Firesphere\\SolrSearch\\Indexes\\BaseIndex</title>
<polygon fill="none" stroke="#000000" points="714.7549,-2750.4191 630.7549,-2750.4191 630.7549,-2714.4191 714.7549,-2714.4191 714.7549,-2750.4191"/>
<text text-anchor="start" x="638.7549" y="-2735.6191" font-family="Courier,monospace" font-size="11.00" fill="#000000">«abstract»</text>
<text text-anchor="start" x="642.2549" y="-2723.6191" font-family="Courier,monospace" font-size="11.00" fill="#000000">BaseIndex</text>
</g>
<!-- \\SilverStripe\\FullTextSearch\\Solr\\SolrIndex&#45;&gt;\\Firesphere\\SolrSearch\\Indexes\\BaseIndex -->
<g id="edge1" class="edge">
<title>\\SilverStripe\\FullTextSearch\\Solr\\SolrIndex&#45;&gt;\\Firesphere\\SolrSearch\\Indexes\\BaseIndex</title>
<path fill="none" stroke="#000000" d="M881.1683,-3201.0209C859.6618,-3191.9291 835.1571,-3177.6312 821.2549,-3156.4191 729.6199,-3016.6017 878.7618,-2918.2067 781.2549,-2782.4191 767.7826,-2763.6576 745.4994,-2751.7573 724.6205,-2744.2991"/>
<polygon fill="none" stroke="#000000" points="725.4399,-2740.8841 714.8469,-2741.0802 723.2502,-2747.5328 725.4399,-2740.8841"/>
</g>
<!-- \\SilverStripe\\FullTextSearch\\Search\\Queries\\SearchQuery -->
<g id="node3" class="node">
<title>\\SilverStripe\\FullTextSearch\\Search\\Queries\\SearchQuery</title>
<polygon fill="none" stroke="#000000" points="968.7549,-3124.4191 877.7549,-3124.4191 877.7549,-3088.4191 968.7549,-3088.4191 968.7549,-3124.4191"/>
<text text-anchor="middle" x="923.2549" y="-3103.6191" font-family="Courier,monospace" font-size="11.00" fill="#000000">SearchQuery</text>
</g>
<!-- \\Firesphere\\SolrSearch\\Queries\\BaseQuery -->
<g id="node16" class="node">
<title>\\Firesphere\\SolrSearch\\Queries\\BaseQuery</title>
<polygon fill="none" stroke="#000000" points="711.2549,-2268.4191 634.2549,-2268.4191 634.2549,-2232.4191 711.2549,-2232.4191 711.2549,-2268.4191"/>
<text text-anchor="middle" x="672.7549" y="-2247.6191" font-family="Courier,monospace" font-size="11.00" fill="#000000">BaseQuery</text>
</g>
<!-- \\SilverStripe\\FullTextSearch\\Search\\Queries\\SearchQuery&#45;&gt;\\Firesphere\\SolrSearch\\Queries\\BaseQuery -->
<g id="edge2" class="edge">
<title>\\SilverStripe\\FullTextSearch\\Search\\Queries\\SearchQuery&#45;&gt;\\Firesphere\\SolrSearch\\Queries\\BaseQuery</title>
<path fill="none" stroke="#000000" d="M922.3039,-3088.2318C916.3667,-2980.8765 881.3336,-2430.2564 781.2549,-2300.4191 766.4863,-2281.259 742.6525,-2269.179 721.0797,-2261.7047"/>
<polygon fill="none" stroke="#000000" points="721.9589,-2258.3111 711.3676,-2258.5858 719.8185,-2264.9758 721.9589,-2258.3111"/>
</g>
<!-- \\Firesphere\\SolrCompatibility\\Extensions\\FulltextSearchExtension -->
<g id="node4" class="node">
<title>\\Firesphere\\SolrCompatibility\\Extensions\\FulltextSearchExtension</title>
<polygon fill="none" stroke="#000000" points="1009.2549,-694.4191 837.2549,-694.4191 837.2549,-658.4191 1009.2549,-658.4191 1009.2549,-694.4191"/>
<text text-anchor="middle" x="923.2549" y="-673.6191" font-family="Courier,monospace" font-size="11.00" fill="#000000">FulltextSearchExtension</text>
</g>
<!-- \\SilverStripe\\Core\\Extension -->
<g id="node60" class="node">
<title>\\SilverStripe\\Core\\Extension</title>
<ellipse fill="none" stroke="#000000" cx="254.1275" cy="-18.4191" rx="144.0747" ry="18"/>
<text text-anchor="middle" x="254.1275" y="-14.7191" font-family="Times,serif" font-size="14.00" fill="#c0c0c0">\SilverStripe\Core\Extension</text>
</g>
<!-- \\Firesphere\\SolrCompatibility\\Extensions\\FulltextSearchExtension&#45;&gt;\\SilverStripe\\Core\\Extension -->
<g id="edge3" class="edge">
<title>\\Firesphere\\SolrCompatibility\\Extensions\\FulltextSearchExtension&#45;&gt;\\SilverStripe\\Core\\Extension</title>
<path fill="none" stroke="#000000" d="M878.0271,-658.4079C857.1754,-647.6811 834.2234,-631.9088 821.2549,-610.4191 718.4263,-440.0243 888.7432,-331.9134 781.2549,-164.4191 751.2581,-117.6763 718.6395,-133.7127 672.7549,-102.4191"/>
</g>
<!-- \\Firesphere\\SolrSearch\\Stores\\FileConfigStore -->
<g id="node5" class="node">
<title>\\Firesphere\\SolrSearch\\Stores\\FileConfigStore</title>
<polygon fill="none" stroke="#000000" points="731.7549,-2964.4191 613.7549,-2964.4191 613.7549,-2928.4191 731.7549,-2928.4191 731.7549,-2964.4191"/>
<text text-anchor="middle" x="672.7549" y="-2943.6191" font-family="Courier,monospace" font-size="11.00" fill="#000000">FileConfigStore</text>
</g>
<!-- \\Firesphere\\SolrSearch\\Interfaces\\ConfigStore -->
<g id="node17" class="node">
<title>\\Firesphere\\SolrSearch\\Interfaces\\ConfigStore</title>
<polygon fill="none" stroke="#000000" points="299.6275,-2910.4191 208.6275,-2910.4191 208.6275,-2874.4191 299.6275,-2874.4191 299.6275,-2910.4191"/>
<text text-anchor="middle" x="254.1275" y="-2889.6191" font-family="Courier,monospace" font-size="11.00" fill="#000000">ConfigStore</text>
</g>
<!-- \\Firesphere\\SolrSearch\\Stores\\FileConfigStore&#45;&gt;\\Firesphere\\SolrSearch\\Interfaces\\ConfigStore -->
<g id="edge4" class="edge">
<title>\\Firesphere\\SolrSearch\\Stores\\FileConfigStore&#45;&gt;\\Firesphere\\SolrSearch\\Interfaces\\ConfigStore</title>
<path fill="none" stroke="#000000" stroke-dasharray="1,5" d="M613.6637,-2938.7967C532.8854,-2928.3769 389.0185,-2909.8191 309.9722,-2899.6227"/>
<polygon fill="none" stroke="#000000" points="310.0944,-2896.1095 299.7287,-2898.3013 309.1988,-2903.052 310.0944,-2896.1095"/>
</g>
<!-- \\Firesphere\\SolrSearch\\Stores\\PostConfigStore -->
<g id="node6" class="node">
<title>\\Firesphere\\SolrSearch\\Stores\\PostConfigStore</title>
<polygon fill="none" stroke="#000000" points="731.7549,-2910.4191 613.7549,-2910.4191 613.7549,-2874.4191 731.7549,-2874.4191 731.7549,-2910.4191"/>
<text text-anchor="middle" x="672.7549" y="-2889.6191" font-family="Courier,monospace" font-size="11.00" fill="#000000">PostConfigStore</text>
</g>
<!-- \\Firesphere\\SolrSearch\\Stores\\PostConfigStore&#45;&gt;\\Firesphere\\SolrSearch\\Interfaces\\ConfigStore -->
<g id="edge5" class="edge">
<title>\\Firesphere\\SolrSearch\\Stores\\PostConfigStore&#45;&gt;\\Firesphere\\SolrSearch\\Interfaces\\ConfigStore</title>
<path fill="none" stroke="#000000" stroke-dasharray="1,5" d="M613.6637,-2892.4191C532.8854,-2892.4191 389.0185,-2892.4191 309.9722,-2892.4191"/>
<polygon fill="none" stroke="#000000" points="309.7288,-2888.9192 299.7287,-2892.4191 309.7287,-2895.9192 309.7288,-2888.9192"/>
</g>
<!-- \\Firesphere\\SolrSearch\\Results\\SearchResult -->
<g id="node7" class="node">
<title>\\Firesphere\\SolrSearch\\Results\\SearchResult</title>
<polygon fill="none" stroke="#000000" points="721.7549,-2830.4191 623.7549,-2830.4191 623.7549,-2794.4191 721.7549,-2794.4191 721.7549,-2830.4191"/>
<text text-anchor="middle" x="672.7549" y="-2809.6191" font-family="Courier,monospace" font-size="11.00" fill="#000000">SearchResult</text>
</g>
<!-- \\Firesphere\\SolrSearch\\Admins\\SearchAdmin -->
<g id="node9" class="node">
<title>\\Firesphere\\SolrSearch\\Admins\\SearchAdmin</title>
<polygon fill="none" stroke="#000000" points="718.2549,-2670.4191 627.2549,-2670.4191 627.2549,-2634.4191 718.2549,-2634.4191 718.2549,-2670.4191"/>
<text text-anchor="middle" x="672.7549" y="-2649.6191" font-family="Courier,monospace" font-size="11.00" fill="#000000">SearchAdmin</text>
</g>
<!-- \\SilverStripe\\Admin\\ModelAdmin -->
<g id="node61" class="node">
<title>\\SilverStripe\\Admin\\ModelAdmin</title>
<ellipse fill="none" stroke="#000000" cx="254.1275" cy="-126.4191" rx="165.1707" ry="18"/>
<text text-anchor="middle" x="254.1275" y="-122.7191" font-family="Times,serif" font-size="14.00" fill="#c0c0c0">\SilverStripe\Admin\ModelAdmin</text>
</g>
<!-- \\Firesphere\\SolrSearch\\Admins\\SearchAdmin&#45;&gt;\\SilverStripe\\Admin\\ModelAdmin -->
<g id="edge6" class="edge">
<title>\\Firesphere\\SolrSearch\\Admins\\SearchAdmin&#45;&gt;\\SilverStripe\\Admin\\ModelAdmin</title>
<path fill="none" stroke="#000000" d="M627.2073,-2649.6714C607.4614,-2646.0597 585.8046,-2638.3843 572.2549,-2622.4191 403.2275,-2423.2593 272.3374,-417.3067 255.8761,-154.718"/>
<polygon fill="none" stroke="#000000" points="259.3541,-154.255 255.2378,-144.4925 252.3677,-154.6911 259.3541,-154.255"/>
</g>
<!-- \\Firesphere\\SolrSearch\\Factories\\QueryComponentFactory -->
<g id="node10" class="node">
<title>\\Firesphere\\SolrSearch\\Factories\\QueryComponentFactory</title>
<polygon fill="none" stroke="#000000" points="751.7549,-2590.4191 593.7549,-2590.4191 593.7549,-2554.4191 751.7549,-2554.4191 751.7549,-2590.4191"/>
<text text-anchor="middle" x="672.7549" y="-2569.6191" font-family="Courier,monospace" font-size="11.00" fill="#000000">QueryComponentFactory</text>
</g>
<!-- \\Firesphere\\SolrSearch\\Factories\\DocumentFactory -->
<g id="node11" class="node">
<title>\\Firesphere\\SolrSearch\\Factories\\DocumentFactory</title>
<polygon fill="none" stroke="#000000" points="731.7549,-2536.4191 613.7549,-2536.4191 613.7549,-2500.4191 731.7549,-2500.4191 731.7549,-2536.4191"/>
<text text-anchor="middle" x="672.7549" y="-2515.6191" font-family="Courier,monospace" font-size="11.00" fill="#000000">DocumentFactory</text>
</g>
<!-- \\Firesphere\\SolrSearch\\Models\\SolrLog -->
<g id="node12" class="node">
<title>\\Firesphere\\SolrSearch\\Models\\SolrLog</title>
<polygon fill="none" stroke="#000000" points="704.7549,-2348.4191 640.7549,-2348.4191 640.7549,-2312.4191 704.7549,-2312.4191 704.7549,-2348.4191"/>
<text text-anchor="middle" x="672.7549" y="-2327.6191" font-family="Courier,monospace" font-size="11.00" fill="#000000">SolrLog</text>
</g>
<!-- \\SilverStripe\\ORM\\DataObject -->
<g id="node62" class="node">
<title>\\SilverStripe\\ORM\\DataObject</title>
<ellipse fill="none" stroke="#000000" cx="254.1275" cy="-3694.4191" rx="152.9733" ry="18"/>
<text text-anchor="middle" x="254.1275" y="-3690.7191" font-family="Times,serif" font-size="14.00" fill="#c0c0c0">\SilverStripe\ORM\DataObject</text>
</g>
<!-- \\Firesphere\\SolrSearch\\Models\\SolrLog&#45;&gt;\\SilverStripe\\ORM\\DataObject -->
<g id="edge7" class="edge">
<title>\\Firesphere\\SolrSearch\\Models\\SolrLog&#45;&gt;\\SilverStripe\\ORM\\DataObject</title>
<path fill="none" stroke="#000000" d="M640.296,-2329.832C617.5183,-2331.3249 588.3579,-2337.4478 572.2549,-2357.4191 480.7828,-2470.8644 608.321,-3561.4768 508.2549,-3667.4191 466.6684,-3711.4476 397.1773,-3716.1992 341.364,-3711.0419"/>
<polygon fill="none" stroke="#000000" points="341.421,-3707.5289 331.1115,-3709.9709 340.6936,-3714.491 341.421,-3707.5289"/>
</g>
<!-- \\SilverStripe\\Security\\PermissionProvider -->
<g id="node63" class="node">
<title>\\SilverStripe\\Security\\PermissionProvider</title>
<ellipse fill="none" stroke="#000000" cx="254.1275" cy="-3640.4191" rx="206.0634" ry="18"/>
<text text-anchor="middle" x="254.1275" y="-3636.7191" font-family="Times,serif" font-size="14.00" fill="#c0c0c0">\SilverStripe\Security\PermissionProvider</text>
</g>
<!-- \\Firesphere\\SolrSearch\\Models\\SolrLog&#45;&gt;\\SilverStripe\\Security\\PermissionProvider -->
<g id="edge8" class="edge">
<title>\\Firesphere\\SolrSearch\\Models\\SolrLog&#45;&gt;\\SilverStripe\\Security\\PermissionProvider</title>
<path fill="none" stroke="#000000" stroke-dasharray="1,5" d="M640.3084,-2329.842C617.5369,-2331.3399 588.3788,-2337.4647 572.2549,-2357.4191 484.4303,-2466.1075 604.3125,-3511.9338 508.2549,-3613.4191 468.6322,-3655.2806 403.7785,-3661.608 349.5064,-3657.6861"/>
<polygon fill="none" stroke="#000000" points="349.7634,-3654.1954 339.5042,-3656.8407 349.1739,-3661.1705 349.7634,-3654.1954"/>
</g>
<!-- \\Firesphere\\SolrSearch\\Models\\DirtyClass -->
<g id="node13" class="node">
<title>\\Firesphere\\SolrSearch\\Models\\DirtyClass</title>
<polygon fill="none" stroke="#000000" points="714.7549,-2402.4191 630.7549,-2402.4191 630.7549,-2366.4191 714.7549,-2366.4191 714.7549,-2402.4191"/>
<text text-anchor="middle" x="672.7549" y="-2381.6191" font-family="Courier,monospace" font-size="11.00" fill="#000000">DirtyClass</text>
</g>
<!-- \\Firesphere\\SolrSearch\\Models\\DirtyClass&#45;&gt;\\SilverStripe\\ORM\\DataObject -->
<g id="edge9" class="edge">
<title>\\Firesphere\\SolrSearch\\Models\\DirtyClass&#45;&gt;\\SilverStripe\\ORM\\DataObject</title>
<path fill="none" stroke="#000000" d="M630.6162,-2384.7447C609.7745,-2387.2829 586.1646,-2394.2049 572.2549,-2411.4191 484.4303,-2520.1075 604.3125,-3565.9338 508.2549,-3667.4191 466.6941,-3711.3282 397.3738,-3716.142 341.6226,-3711.04"/>
<polygon fill="none" stroke="#000000" points="341.6877,-3707.5281 331.3803,-3709.9791 340.9665,-3714.4908 341.6877,-3707.5281"/>
</g>
<!-- \\Firesphere\\SolrSearch\\Models\\SearchSynonym -->
<g id="node14" class="node">
<title>\\Firesphere\\SolrSearch\\Models\\SearchSynonym</title>
<polygon fill="none" stroke="#000000" points="724.7549,-2456.4191 620.7549,-2456.4191 620.7549,-2420.4191 724.7549,-2420.4191 724.7549,-2456.4191"/>
<text text-anchor="middle" x="672.7549" y="-2435.6191" font-family="Courier,monospace" font-size="11.00" fill="#000000">SearchSynonym</text>
</g>
<!-- \\Firesphere\\SolrSearch\\Models\\SearchSynonym&#45;&gt;\\SilverStripe\\ORM\\DataObject -->
<g id="edge10" class="edge">
<title>\\Firesphere\\SolrSearch\\Models\\SearchSynonym&#45;&gt;\\SilverStripe\\ORM\\DataObject</title>
<path fill="none" stroke="#000000" d="M620.5781,-2452.3486C602.2446,-2459.9479 583.4441,-2471.4034 572.2549,-2488.4191 500.1732,-2598.0357 598.5974,-3572.2886 508.2549,-3667.4191 466.6932,-3711.1835 397.5451,-3716.0607 341.8638,-3711.0209"/>
<polygon fill="none" stroke="#000000" points="341.9382,-3707.5103 331.6332,-3709.9716 341.2239,-3714.4737 341.9382,-3707.5103"/>
</g>
<!-- \\Firesphere\\SolrSearch\\States\\SiteState -->
<g id="node15" class="node">
<title>\\Firesphere\\SolrSearch\\States\\SiteState</title>
<polygon fill="none" stroke="#000000" points="714.7549,-2188.4191 630.7549,-2188.4191 630.7549,-2152.4191 714.7549,-2152.4191 714.7549,-2188.4191"/>
<text text-anchor="start" x="638.7549" y="-2173.6191" font-family="Courier,monospace" font-size="11.00" fill="#000000">«abstract»</text>
<text text-anchor="start" x="642.2549" y="-2161.6191" font-family="Courier,monospace" font-size="11.00" fill="#000000">SiteState</text>
</g>
<!-- \\Firesphere\\SolrSearch\\Interfaces\\SiteStateInterface -->
<g id="node18" class="node">
<title>\\Firesphere\\SolrSearch\\Interfaces\\SiteStateInterface</title>
<polygon fill="none" stroke="#000000" points="323.1275,-2856.4191 185.1275,-2856.4191 185.1275,-2820.4191 323.1275,-2820.4191 323.1275,-2856.4191"/>
<text text-anchor="middle" x="254.1275" y="-2835.6191" font-family="Courier,monospace" font-size="11.00" fill="#000000">SiteStateInterface</text>
</g>
<!-- \\Firesphere\\SolrSearch\\Jobs\\SolrIndexJob -->
<g id="node19" class="node">
<title>\\Firesphere\\SolrSearch\\Jobs\\SolrIndexJob</title>
<polygon fill="none" stroke="#000000" points="721.7549,-2108.4191 623.7549,-2108.4191 623.7549,-2072.4191 721.7549,-2072.4191 721.7549,-2108.4191"/>
<text text-anchor="middle" x="672.7549" y="-2087.6191" font-family="Courier,monospace" font-size="11.00" fill="#000000">SolrIndexJob</text>
</g>
<!-- \\Symbiote\\QueuedJobs\\Services\\AbstractQueuedJob -->
<g id="node64" class="node">
<title>\\Symbiote\\QueuedJobs\\Services\\AbstractQueuedJob</title>
<ellipse fill="none" stroke="#000000" cx="254.1275" cy="-3586.4191" rx="254.255" ry="18"/>
<text text-anchor="middle" x="254.1275" y="-3582.7191" font-family="Times,serif" font-size="14.00" fill="#c0c0c0">\Symbiote\QueuedJobs\Services\AbstractQueuedJob</text>
</g>
<!-- \\Firesphere\\SolrSearch\\Jobs\\SolrIndexJob&#45;&gt;\\Symbiote\\QueuedJobs\\Services\\AbstractQueuedJob -->
<g id="edge11" class="edge">
<title>\\Firesphere\\SolrSearch\\Jobs\\SolrIndexJob&#45;&gt;\\Symbiote\\QueuedJobs\\Services\\AbstractQueuedJob</title>
<path fill="none" stroke="#000000" d="M623.65,-2103.0251C604.3348,-2110.5894 584.004,-2122.3724 572.2549,-2140.4191 486.1443,-2272.6852 616.413,-3444.4792 508.2549,-3559.4191 469.7649,-3600.3225 407.2001,-3607.3749 353.7822,-3604.0528"/>
<polygon fill="none" stroke="#000000" points="353.8107,-3600.5452 343.5769,-3603.2874 353.2872,-3607.5256 353.8107,-3600.5452"/>
</g>
<!-- \\Firesphere\\SolrSearch\\Jobs\\ClearDirtyClassesJob -->
<g id="node20" class="node">
<title>\\Firesphere\\SolrSearch\\Jobs\\ClearDirtyClassesJob</title>
<polygon fill="none" stroke="#000000" points="748.7549,-2054.4191 596.7549,-2054.4191 596.7549,-2018.4191 748.7549,-2018.4191 748.7549,-2054.4191"/>
<text text-anchor="middle" x="672.7549" y="-2033.6191" font-family="Courier,monospace" font-size="11.00" fill="#000000">ClearDirtyClassesJob</text>
</g>
<!-- \\Firesphere\\SolrSearch\\Jobs\\ClearDirtyClassesJob&#45;&gt;\\Symbiote\\QueuedJobs\\Services\\AbstractQueuedJob -->
<g id="edge12" class="edge">
<title>\\Firesphere\\SolrSearch\\Jobs\\ClearDirtyClassesJob&#45;&gt;\\Symbiote\\QueuedJobs\\Services\\AbstractQueuedJob</title>
<path fill="none" stroke="#000000" d="M596.6569,-2045.4316C587.2488,-2049.5868 578.6945,-2055.3829 572.2549,-2063.4191 468.2172,-2193.2518 622.13,-3438.1225 508.2549,-3559.4191 469.7409,-3600.443 407.0158,-3607.446 353.5213,-3604.0683"/>
<polygon fill="none" stroke="#000000" points="353.5386,-3600.5596 343.3023,-3603.2922 353.0085,-3607.5395 353.5386,-3600.5596"/>
</g>
<!-- \\Firesphere\\SolrSearch\\Jobs\\SolrConfigureJob -->
<g id="node21" class="node">
<title>\\Firesphere\\SolrSearch\\Jobs\\SolrConfigureJob</title>
<polygon fill="none" stroke="#000000" points="735.2549,-2000.4191 610.2549,-2000.4191 610.2549,-1964.4191 735.2549,-1964.4191 735.2549,-2000.4191"/>
<text text-anchor="middle" x="672.7549" y="-1979.6191" font-family="Courier,monospace" font-size="11.00" fill="#000000">SolrConfigureJob</text>
</g>
<!-- \\Firesphere\\SolrSearch\\Jobs\\SolrConfigureJob&#45;&gt;\\Symbiote\\QueuedJobs\\Services\\AbstractQueuedJob -->
<g id="edge13" class="edge">
<title>\\Firesphere\\SolrSearch\\Jobs\\SolrConfigureJob&#45;&gt;\\Symbiote\\QueuedJobs\\Services\\AbstractQueuedJob</title>
<path fill="none" stroke="#000000" d="M610.1937,-1986.6305C595.6481,-1990.6721 581.6795,-1997.6398 572.2549,-2009.4191 464.5687,-2144.0101 626.1396,-3433.6643 508.2549,-3559.4191 469.7002,-3600.5477 406.8142,-3607.5007 353.2475,-3604.0712"/>
<polygon fill="none" stroke="#000000" points="353.2544,-3600.5615 343.0156,-3603.2851 352.7181,-3607.541 353.2544,-3600.5615"/>
</g>
<!-- \\Firesphere\\SolrSearch\\Helpers\\FieldResolver -->
<g id="node22" class="node">
<title>\\Firesphere\\SolrSearch\\Helpers\\FieldResolver</title>
<polygon fill="none" stroke="#000000" points="724.7549,-1920.4191 620.7549,-1920.4191 620.7549,-1884.4191 724.7549,-1884.4191 724.7549,-1920.4191"/>
<text text-anchor="middle" x="672.7549" y="-1899.6191" font-family="Courier,monospace" font-size="11.00" fill="#000000">FieldResolver</text>
</g>
<!-- \\Firesphere\\SolrSearch\\Helpers\\DataResolver -->
<g id="node23" class="node">
<title>\\Firesphere\\SolrSearch\\Helpers\\DataResolver</title>
<polygon fill="none" stroke="#000000" points="721.7549,-1866.4191 623.7549,-1866.4191 623.7549,-1830.4191 721.7549,-1830.4191 721.7549,-1866.4191"/>
<text text-anchor="middle" x="672.7549" y="-1845.6191" font-family="Courier,monospace" font-size="11.00" fill="#000000">DataResolver</text>
</g>
<!-- \\Firesphere\\SolrSearch\\Helpers\\Synonyms -->
<g id="node24" class="node">
<title>\\Firesphere\\SolrSearch\\Helpers\\Synonyms</title>
<polygon fill="none" stroke="#000000" points="708.2549,-1812.4191 637.2549,-1812.4191 637.2549,-1776.4191 708.2549,-1776.4191 708.2549,-1812.4191"/>
<text text-anchor="middle" x="672.7549" y="-1791.6191" font-family="Courier,monospace" font-size="11.00" fill="#000000">Synonyms</text>
</g>
<!-- \\Firesphere\\SolrSearch\\Helpers\\SolrLogger -->
<g id="node25" class="node">
<title>\\Firesphere\\SolrSearch\\Helpers\\SolrLogger</title>
<polygon fill="none" stroke="#000000" points="714.7549,-1758.4191 630.7549,-1758.4191 630.7549,-1722.4191 714.7549,-1722.4191 714.7549,-1758.4191"/>
<text text-anchor="middle" x="672.7549" y="-1737.6191" font-family="Courier,monospace" font-size="11.00" fill="#000000">SolrLogger</text>
</g>
<!-- \\Firesphere\\SolrSearch\\Helpers\\Statics -->
<g id="node26" class="node">
<title>\\Firesphere\\SolrSearch\\Helpers\\Statics</title>
<polygon fill="none" stroke="#000000" points="704.7549,-1704.4191 640.7549,-1704.4191 640.7549,-1668.4191 704.7549,-1668.4191 704.7549,-1704.4191"/>
<text text-anchor="middle" x="672.7549" y="-1683.6191" font-family="Courier,monospace" font-size="11.00" fill="#000000">Statics</text>
</g>
<!-- \\Firesphere\\SolrSearch\\Services\\SolrCoreService -->
<g id="node27" class="node">
<title>\\Firesphere\\SolrSearch\\Services\\SolrCoreService</title>
<polygon fill="none" stroke="#000000" points="731.7549,-1624.4191 613.7549,-1624.4191 613.7549,-1588.4191 731.7549,-1588.4191 731.7549,-1624.4191"/>
<text text-anchor="middle" x="672.7549" y="-1603.6191" font-family="Courier,monospace" font-size="11.00" fill="#000000">SolrCoreService</text>
</g>
<!-- \\Firesphere\\SolrSearch\\Services\\SchemaService -->
<g id="node28" class="node">
<title>\\Firesphere\\SolrSearch\\Services\\SchemaService</title>
<polygon fill="none" stroke="#000000" points="724.7549,-1570.4191 620.7549,-1570.4191 620.7549,-1534.4191 724.7549,-1534.4191 724.7549,-1570.4191"/>
<text text-anchor="middle" x="672.7549" y="-1549.6191" font-family="Courier,monospace" font-size="11.00" fill="#000000">SchemaService</text>
</g>
<!-- \\SilverStripe\\View\\ViewableData -->
<g id="node65" class="node">
<title>\\SilverStripe\\View\\ViewableData</title>
<ellipse fill="none" stroke="#000000" cx="254.1275" cy="-3532.4191" rx="163.2712" ry="18"/>
<text text-anchor="middle" x="254.1275" y="-3528.7191" font-family="Times,serif" font-size="14.00" fill="#c0c0c0">\SilverStripe\View\ViewableData</text>
</g>
<!-- \\Firesphere\\SolrSearch\\Services\\SchemaService&#45;&gt;\\SilverStripe\\View\\ViewableData -->
<g id="edge14" class="edge">
<title>\\Firesphere\\SolrSearch\\Services\\SchemaService&#45;&gt;\\SilverStripe\\View\\ViewableData</title>
<path fill="none" stroke="#000000" d="M620.6277,-1554.1541C602.5301,-1557.5545 583.8781,-1564.7715 572.2549,-1579.4191 439.1602,-1747.1461 654.0623,-3348.6174 508.2549,-3505.4191 467.2264,-3549.5412 398.2174,-3554.4508 342.458,-3549.3337"/>
<polygon fill="none" stroke="#000000" points="342.5186,-3545.8212 332.2104,-3548.2687 341.795,-3552.7837 342.5186,-3545.8212"/>
</g>
<!-- \\Firesphere\\SolrSearch\\Tasks\\SolrConfigureTask -->
<g id="node29" class="node">
<title>\\Firesphere\\SolrSearch\\Tasks\\SolrConfigureTask</title>
<polygon fill="none" stroke="#000000" points="738.2549,-1382.4191 607.2549,-1382.4191 607.2549,-1346.4191 738.2549,-1346.4191 738.2549,-1382.4191"/>
<text text-anchor="middle" x="672.7549" y="-1361.6191" font-family="Courier,monospace" font-size="11.00" fill="#000000">SolrConfigureTask</text>
</g>
<!-- \\SilverStripe\\Dev\\BuildTask -->
<g id="node66" class="node">
<title>\\SilverStripe\\Dev\\BuildTask</title>
<ellipse fill="none" stroke="#000000" cx="254.1275" cy="-3478.4191" rx="139.9756" ry="18"/>
<text text-anchor="middle" x="254.1275" y="-3474.7191" font-family="Times,serif" font-size="14.00" fill="#c0c0c0">\SilverStripe\Dev\BuildTask</text>
</g>
<!-- \\Firesphere\\SolrSearch\\Tasks\\SolrConfigureTask&#45;&gt;\\SilverStripe\\Dev\\BuildTask -->
<g id="edge15" class="edge">
<title>\\Firesphere\\SolrSearch\\Tasks\\SolrConfigureTask&#45;&gt;\\SilverStripe\\Dev\\BuildTask</title>
<path fill="none" stroke="#000000" d="M607.2464,-1369.4028C593.7494,-1373.5486 581.0025,-1380.3708 572.2549,-1391.4191 430.1038,-1570.9567 664.0148,-3283.5514 508.2549,-3451.4191 466.1215,-3496.8277 394.3581,-3500.7373 337.816,-3494.907"/>
<polygon fill="none" stroke="#000000" points="338.1395,-3491.4213 327.8057,-3493.7584 337.3415,-3498.3756 338.1395,-3491.4213"/>
</g>
<!-- \\Firesphere\\SolrSearch\\Tasks\\SolrIndexTask -->
<g id="node30" class="node">
<title>\\Firesphere\\SolrSearch\\Tasks\\SolrIndexTask</title>
<polygon fill="none" stroke="#000000" points="724.7549,-1328.4191 620.7549,-1328.4191 620.7549,-1292.4191 724.7549,-1292.4191 724.7549,-1328.4191"/>
<text text-anchor="middle" x="672.7549" y="-1307.6191" font-family="Courier,monospace" font-size="11.00" fill="#000000">SolrIndexTask</text>
</g>
<!-- \\Firesphere\\SolrSearch\\Tasks\\SolrIndexTask&#45;&gt;\\SilverStripe\\Dev\\BuildTask -->
<g id="edge16" class="edge">
<title>\\Firesphere\\SolrSearch\\Tasks\\SolrIndexTask&#45;&gt;\\SilverStripe\\Dev\\BuildTask</title>
<path fill="none" stroke="#000000" d="M620.6047,-1312.1358C602.5044,-1315.5341 583.8564,-1322.7543 572.2549,-1337.4191 426.4541,-1521.7164 668.0256,-3279.0918 508.2549,-3451.4191 466.1395,-3496.8444 394.3744,-3500.7525 337.8272,-3494.9174"/>
<polygon fill="none" stroke="#000000" points="338.1499,-3491.4315 327.8159,-3493.7678 337.3513,-3498.3858 338.1499,-3491.4315"/>
</g>
<!-- \\Firesphere\\SolrSearch\\Tasks\\ClearDirtyClassesTask -->
<g id="node31" class="node">
<title>\\Firesphere\\SolrSearch\\Tasks\\ClearDirtyClassesTask</title>
<polygon fill="none" stroke="#000000" points="751.7549,-1490.4191 593.7549,-1490.4191 593.7549,-1454.4191 751.7549,-1454.4191 751.7549,-1490.4191"/>
<text text-anchor="middle" x="672.7549" y="-1469.6191" font-family="Courier,monospace" font-size="11.00" fill="#000000">ClearDirtyClassesTask</text>
</g>
<!-- \\Firesphere\\SolrSearch\\Tasks\\ClearDirtyClassesTask&#45;&gt;\\SilverStripe\\Dev\\BuildTask -->
<g id="edge17" class="edge">
<title>\\Firesphere\\SolrSearch\\Tasks\\ClearDirtyClassesTask&#45;&gt;\\SilverStripe\\Dev\\BuildTask</title>
<path fill="none" stroke="#000000" d="M610.9083,-1490.5002C595.7966,-1497.9311 581.3679,-1508.2376 572.2549,-1522.4191 456.322,-1702.8322 654.2851,-3294.3696 508.2549,-3451.4191 466.0736,-3496.7833 394.3146,-3500.6969 337.7863,-3494.8795"/>
<polygon fill="none" stroke="#000000" points="338.112,-3491.394 327.7786,-3493.7332 337.3154,-3498.3485 338.112,-3491.394"/>
</g>
<!-- \\Firesphere\\SolrSearch\\Tasks\\ClearErrorsTask -->
<g id="node32" class="node">
<title>\\Firesphere\\SolrSearch\\Tasks\\ClearErrorsTask</title>
<polygon fill="none" stroke="#000000" points="731.7549,-1436.4191 613.7549,-1436.4191 613.7549,-1400.4191 731.7549,-1400.4191 731.7549,-1436.4191"/>
<text text-anchor="middle" x="672.7549" y="-1415.6191" font-family="Courier,monospace" font-size="11.00" fill="#000000">ClearErrorsTask</text>
</g>
<!-- \\Firesphere\\SolrSearch\\Tasks\\ClearErrorsTask&#45;&gt;\\SilverStripe\\Dev\\BuildTask -->
<g id="edge18" class="edge">
<title>\\Firesphere\\SolrSearch\\Tasks\\ClearErrorsTask&#45;&gt;\\SilverStripe\\Dev\\BuildTask</title>
<path fill="none" stroke="#000000" d="M613.5239,-1421.6791C597.773,-1425.5549 582.3536,-1432.6753 572.2549,-1445.4191 433.7535,-1620.1972 660.004,-3288.0109 508.2549,-3451.4191 466.1025,-3496.8101 394.3408,-3500.7213 337.8042,-3494.8961"/>
<polygon fill="none" stroke="#000000" points="338.1286,-3491.4105 327.795,-3493.7484 337.3311,-3498.3649 338.1286,-3491.4105"/>
</g>
<!-- \\Firesphere\\SolrSearch\\Extensions\\GridFieldExtension -->
<g id="node33" class="node">
<title>\\Firesphere\\SolrSearch\\Extensions\\GridFieldExtension</title>
<polygon fill="none" stroke="#000000" points="741.7549,-1194.4191 603.7549,-1194.4191 603.7549,-1158.4191 741.7549,-1158.4191 741.7549,-1194.4191"/>
<text text-anchor="middle" x="672.7549" y="-1173.6191" font-family="Courier,monospace" font-size="11.00" fill="#000000">GridFieldExtension</text>
</g>
<!-- \\Firesphere\\SolrSearch\\Extensions\\GridFieldExtension&#45;&gt;\\SilverStripe\\Core\\Extension -->
<g id="edge19" class="edge">
<title>\\Firesphere\\SolrSearch\\Extensions\\GridFieldExtension&#45;&gt;\\SilverStripe\\Core\\Extension</title>
<path fill="none" stroke="#000000" d="M603.7262,-1167.9455C591.5796,-1163.3797 580.2769,-1156.5574 572.2549,-1146.4191 420.1817,-954.227 677.3628,-222.8072 508.2549,-45.4191 466.2491,-1.3565 396.2682,3.2294 340.3672,-2.0022"/>
<polygon fill="none" stroke="#000000" points="339.6802,1.4448 330.103,-3.086 340.4153,-5.5165 339.6802,1.4448"/>
</g>
<!-- \\Firesphere\\SolrSearch\\Extensions\\DataObjectExtension -->
<g id="node34" class="node">
<title>\\Firesphere\\SolrSearch\\Extensions\\DataObjectExtension</title>
<polygon fill="none" stroke="#000000" points="745.2549,-1248.4191 600.2549,-1248.4191 600.2549,-1212.4191 745.2549,-1212.4191 745.2549,-1248.4191"/>
<text text-anchor="middle" x="672.7549" y="-1227.6191" font-family="Courier,monospace" font-size="11.00" fill="#000000">DataObjectExtension</text>
</g>
<!-- \\SilverStripe\\ORM\\DataExtension -->
<g id="node67" class="node">
<title>\\SilverStripe\\ORM\\DataExtension</title>
<ellipse fill="none" stroke="#000000" cx="254.1275" cy="-72.4191" rx="167.8704" ry="18"/>
<text text-anchor="middle" x="254.1275" y="-68.7191" font-family="Times,serif" font-size="14.00" fill="#c0c0c0">\SilverStripe\ORM\DataExtension</text>
</g>
<!-- \\Firesphere\\SolrSearch\\Extensions\\DataObjectExtension&#45;&gt;\\SilverStripe\\ORM\\DataExtension -->
<g id="edge20" class="edge">
<title>\\Firesphere\\SolrSearch\\Extensions\\DataObjectExtension&#45;&gt;\\SilverStripe\\ORM\\DataExtension</title>
<path fill="none" stroke="#000000" d="M600.0216,-1222.6723C589.3289,-1218.462 579.4964,-1212.3171 572.2549,-1203.4191 417.1363,-1012.8176 677.808,-277.3023 508.2549,-99.4191 467.3333,-56.487 399.854,-51.0297 344.7116,-55.6162"/>
<polygon fill="none" stroke="#000000" points="344.1909,-52.1498 334.568,-56.5827 344.855,-59.1183 344.1909,-52.1498"/>
</g>
<!-- \\Firesphere\\SolrSearch\\Traits\\QueryComponentBoostTrait -->
<g id="node35" class="node">
<title>\\Firesphere\\SolrSearch\\Traits\\QueryComponentBoostTrait</title>
<polygon fill="none" stroke="#000000" points="762.2549,-1114.4191 583.2549,-1114.4191 583.2549,-1078.4191 762.2549,-1078.4191 762.2549,-1114.4191"/>
<text text-anchor="middle" x="672.7549" y="-1093.6191" font-family="Courier,monospace" font-size="11.00" fill="#000000">QueryComponentBoostTrait</text>
</g>
<!-- \\Firesphere\\SolrSearch\\Traits\\QueryComponentFilterTrait -->
<g id="node36" class="node">
<title>\\Firesphere\\SolrSearch\\Traits\\QueryComponentFilterTrait</title>
<polygon fill="none" stroke="#000000" points="765.2549,-1060.4191 580.2549,-1060.4191 580.2549,-1024.4191 765.2549,-1024.4191 765.2549,-1060.4191"/>
<text text-anchor="middle" x="672.7549" y="-1039.6191" font-family="Courier,monospace" font-size="11.00" fill="#000000">QueryComponentFilterTrait</text>
</g>
<!-- \\Firesphere\\SolrSearch\\Traits\\QueryComponentFacetTrait -->
<g id="node37" class="node">
<title>\\Firesphere\\SolrSearch\\Traits\\QueryComponentFacetTrait</title>
<polygon fill="none" stroke="#000000" points="762.2549,-1006.4191 583.2549,-1006.4191 583.2549,-970.4191 762.2549,-970.4191 762.2549,-1006.4191"/>
<text text-anchor="middle" x="672.7549" y="-985.6191" font-family="Courier,monospace" font-size="11.00" fill="#000000">QueryComponentFacetTrait</text>
</g>
<!-- \\Firesphere\\SolrSearch\\Traits\\LoggerTrait -->
<g id="node38" class="node">
<title>\\Firesphere\\SolrSearch\\Traits\\LoggerTrait</title>
<polygon fill="none" stroke="#000000" points="718.2549,-952.4191 627.2549,-952.4191 627.2549,-916.4191 718.2549,-916.4191 718.2549,-952.4191"/>
<text text-anchor="middle" x="672.7549" y="-931.6191" font-family="Courier,monospace" font-size="11.00" fill="#000000">LoggerTrait</text>
</g>
<!-- \\Firesphere\\SolrSearch\\Traits\\DataResolveTrait -->
<g id="node39" class="node">
<title>\\Firesphere\\SolrSearch\\Traits\\DataResolveTrait</title>
<polygon fill="none" stroke="#000000" points="735.2549,-898.4191 610.2549,-898.4191 610.2549,-862.4191 735.2549,-862.4191 735.2549,-898.4191"/>
<text text-anchor="middle" x="672.7549" y="-877.6191" font-family="Courier,monospace" font-size="11.00" fill="#000000">DataResolveTrait</text>
</g>
<!-- \\Firesphere\\SolrSearch\\Traits\\CoreAdminTrait -->
<g id="node40" class="node">
<title>\\Firesphere\\SolrSearch\\Traits\\CoreAdminTrait</title>
<polygon fill="none" stroke="#000000" points="728.2549,-844.4191 617.2549,-844.4191 617.2549,-808.4191 728.2549,-808.4191 728.2549,-844.4191"/>
<text text-anchor="middle" x="672.7549" y="-823.6191" font-family="Courier,monospace" font-size="11.00" fill="#000000">CoreAdminTrait</text>
</g>
<!-- \\Firesphere\\SolrSearch\\Traits\\CoreServiceTrait -->
<g id="node41" class="node">
<title>\\Firesphere\\SolrSearch\\Traits\\CoreServiceTrait</title>
<polygon fill="none" stroke="#000000" points="735.2549,-790.4191 610.2549,-790.4191 610.2549,-754.4191 735.2549,-754.4191 735.2549,-790.4191"/>
<text text-anchor="middle" x="672.7549" y="-769.6191" font-family="Courier,monospace" font-size="11.00" fill="#000000">CoreServiceTrait</text>
</g>
<!-- \\Firesphere\\SolrSearch\\Traits\\DocumentFactoryTrait -->
<g id="node42" class="node">
<title>\\Firesphere\\SolrSearch\\Traits\\DocumentFactoryTrait</title>
<polygon fill="none" stroke="#000000" points="748.7549,-736.4191 596.7549,-736.4191 596.7549,-700.4191 748.7549,-700.4191 748.7549,-736.4191"/>
<text text-anchor="middle" x="672.7549" y="-715.6191" font-family="Courier,monospace" font-size="11.00" fill="#000000">DocumentFactoryTrait</text>
</g>
<!-- \\Firesphere\\SolrSearch\\Traits\\GetSetSearchResolverTrait -->
<g id="node43" class="node">
<title>\\Firesphere\\SolrSearch\\Traits\\GetSetSearchResolverTrait</title>
<polygon fill="none" stroke="#000000" points="765.2549,-682.4191 580.2549,-682.4191 580.2549,-646.4191 765.2549,-646.4191 765.2549,-682.4191"/>
<text text-anchor="middle" x="672.7549" y="-661.6191" font-family="Courier,monospace" font-size="11.00" fill="#000000">GetSetSearchResolverTrait</text>
</g>
<!-- \\Firesphere\\SolrSearch\\Traits\\BaseQueryTrait -->
<g id="node44" class="node">
<title>\\Firesphere\\SolrSearch\\Traits\\BaseQueryTrait</title>
<polygon fill="none" stroke="#000000" points="728.2549,-628.4191 617.2549,-628.4191 617.2549,-592.4191 728.2549,-592.4191 728.2549,-628.4191"/>
<text text-anchor="middle" x="672.7549" y="-607.6191" font-family="Courier,monospace" font-size="11.00" fill="#000000">BaseQueryTrait</text>
</g>
<!-- \\Firesphere\\SolrSearch\\Traits\\SearchResultGetTrait -->
<g id="node45" class="node">
<title>\\Firesphere\\SolrSearch\\Traits\\SearchResultGetTrait</title>
<polygon fill="none" stroke="#000000" points="748.7549,-574.4191 596.7549,-574.4191 596.7549,-538.4191 748.7549,-538.4191 748.7549,-574.4191"/>
<text text-anchor="middle" x="672.7549" y="-553.6191" font-family="Courier,monospace" font-size="11.00" fill="#000000">SearchResultGetTrait</text>
</g>
<!-- \\Firesphere\\SolrSearch\\Traits\\SearchResultSetTrait -->
<g id="node46" class="node">
<title>\\Firesphere\\SolrSearch\\Traits\\SearchResultSetTrait</title>
<polygon fill="none" stroke="#000000" points="748.7549,-520.4191 596.7549,-520.4191 596.7549,-484.4191 748.7549,-484.4191 748.7549,-520.4191"/>
<text text-anchor="middle" x="672.7549" y="-499.6191" font-family="Courier,monospace" font-size="11.00" fill="#000000">SearchResultSetTrait</text>
</g>
<!-- \\Firesphere\\SolrSearch\\Traits\\GetSetSchemaServiceTrait -->
<g id="node47" class="node">
<title>\\Firesphere\\SolrSearch\\Traits\\GetSetSchemaServiceTrait</title>
<polygon fill="none" stroke="#000000" points="762.2549,-466.4191 583.2549,-466.4191 583.2549,-430.4191 762.2549,-430.4191 762.2549,-466.4191"/>
<text text-anchor="middle" x="672.7549" y="-445.6191" font-family="Courier,monospace" font-size="11.00" fill="#000000">GetSetSchemaServiceTrait</text>
</g>
<!-- \\Firesphere\\SolrSearch\\Traits\\GetterSetterTrait -->
<g id="node48" class="node">
<title>\\Firesphere\\SolrSearch\\Traits\\GetterSetterTrait</title>
<polygon fill="none" stroke="#000000" points="738.2549,-412.4191 607.2549,-412.4191 607.2549,-376.4191 738.2549,-376.4191 738.2549,-412.4191"/>
<text text-anchor="middle" x="672.7549" y="-391.6191" font-family="Courier,monospace" font-size="11.00" fill="#000000">GetterSetterTrait</text>
</g>
<!-- \\Firesphere\\SolrSearch\\Traits\\SolrIndexTrait -->
<g id="node49" class="node">
<title>\\Firesphere\\SolrSearch\\Traits\\SolrIndexTrait</title>
<polygon fill="none" stroke="#000000" points="728.2549,-358.4191 617.2549,-358.4191 617.2549,-322.4191 728.2549,-322.4191 728.2549,-358.4191"/>
<text text-anchor="middle" x="672.7549" y="-337.6191" font-family="Courier,monospace" font-size="11.00" fill="#000000">SolrIndexTrait</text>
</g>
<!-- \\Firesphere\\SolrSearch\\Traits\\BaseIndexTrait -->
<g id="node50" class="node">
<title>\\Firesphere\\SolrSearch\\Traits\\BaseIndexTrait</title>
<polygon fill="none" stroke="#000000" points="728.2549,-304.4191 617.2549,-304.4191 617.2549,-268.4191 728.2549,-268.4191 728.2549,-304.4191"/>
<text text-anchor="middle" x="672.7549" y="-283.6191" font-family="Courier,monospace" font-size="11.00" fill="#000000">BaseIndexTrait</text>
</g>
<!-- \\Firesphere\\SolrSearch\\Forms\\SearchForm -->
<g id="node51" class="node">
<title>\\Firesphere\\SolrSearch\\Forms\\SearchForm</title>
<polygon fill="none" stroke="#000000" points="714.7549,-224.4191 630.7549,-224.4191 630.7549,-188.4191 714.7549,-188.4191 714.7549,-224.4191"/>
<text text-anchor="middle" x="672.7549" y="-203.6191" font-family="Courier,monospace" font-size="11.00" fill="#000000">SearchForm</text>
</g>
<!-- \\SilverStripe\\Forms\\Form -->
<g id="node68" class="node">
<title>\\SilverStripe\\Forms\\Form</title>
<ellipse fill="none" stroke="#000000" cx="254.1275" cy="-3424.4191" rx="129.1772" ry="18"/>
<text text-anchor="middle" x="254.1275" y="-3420.7191" font-family="Times,serif" font-size="14.00" fill="#c0c0c0">\SilverStripe\Forms\Form</text>
</g>
<!-- \\Firesphere\\SolrSearch\\Forms\\SearchForm&#45;&gt;\\SilverStripe\\Forms\\Form -->
<g id="edge21" class="edge">
<title>\\Firesphere\\SolrSearch\\Forms\\SearchForm&#45;&gt;\\SilverStripe\\Forms\\Form</title>
<path fill="none" stroke="#000000" d="M630.7514,-216.2386C609.4016,-223.5609 585.2758,-235.9465 572.2549,-256.4191 492.1496,-382.3677 545.8355,-2797.9628 508.2549,-2942.4191 459.148,-3131.1816 324.2988,-3328.5428 273.6744,-3398.2085"/>
<polygon fill="none" stroke="#000000" points="270.7349,-3396.2987 267.6543,-3406.4358 276.3841,-3400.4323 270.7349,-3396.2987"/>
</g>
<!-- \\Firesphere\\SolrFluent\\States\\FluentSiteState -->
<g id="node52" class="node">
<title>\\Firesphere\\SolrFluent\\States\\FluentSiteState</title>
<polygon fill="none" stroke="#000000" points="982.2549,-578.4191 864.2549,-578.4191 864.2549,-542.4191 982.2549,-542.4191 982.2549,-578.4191"/>
<text text-anchor="middle" x="923.2549" y="-557.6191" font-family="Courier,monospace" font-size="11.00" fill="#000000">FluentSiteState</text>
</g>
<!-- \\Firesphere\\SolrFluent\\States\\FluentSiteState&#45;&gt;\\Firesphere\\SolrSearch\\States\\SiteState -->
<g id="edge22" class="edge">
<title>\\Firesphere\\SolrFluent\\States\\FluentSiteState&#45;&gt;\\Firesphere\\SolrSearch\\States\\SiteState</title>
<path fill="none" stroke="#000000" d="M889.5744,-578.4494C865.7619,-593.2362 835.6183,-616.5729 821.2549,-646.4191 785.2495,-721.2358 832.4174,-2075.0254 781.2549,-2140.4191 767.9045,-2157.483 745.77,-2165.3939 724.9628,-2168.8791"/>
<polygon fill="none" stroke="#000000" points="724.3328,-2165.4326 714.8992,-2170.2552 725.2812,-2172.368 724.3328,-2165.4326"/>
</g>
<!-- \\Firesphere\\SolrFluent\\States\\FluentSiteState&#45;&gt;\\Firesphere\\SolrSearch\\Interfaces\\SiteStateInterface -->
<g id="edge23" class="edge">
<title>\\Firesphere\\SolrFluent\\States\\FluentSiteState&#45;&gt;\\Firesphere\\SolrSearch\\Interfaces\\SiteStateInterface</title>
<path fill="none" stroke="#000000" stroke-dasharray="1,5" d="M864.2214,-555.1257C848.0697,-550.7897 832.0583,-543.281 821.2549,-530.4191 770.3369,-469.7988 838.5643,-231.0367 781.2549,-176.4191 746.2741,-143.0813 720.625,-162.8228 672.7549,-169.4191"/>
<path fill="none" stroke="#000000" stroke-dasharray="1,5" d="M672.7549,-169.4191C628.3991,-175.5311 604.6879,-145.5501 572.2549,-176.4191 370.1355,-368.7919 267.535,-2536.5353 255.3597,-2810.1027"/>
<polygon fill="none" stroke="#000000" points="251.8507,-2810.2318 254.9055,-2820.3767 258.8439,-2810.541 251.8507,-2810.2318"/>
</g>
<!-- \\Firesphere\\SolrFluent\\Extensions\\FluentSchemaExtension -->
<g id="node53" class="node">
<title>\\Firesphere\\SolrFluent\\Extensions\\FluentSchemaExtension</title>
<polygon fill="none" stroke="#000000" points="1002.2549,-498.4191 844.2549,-498.4191 844.2549,-462.4191 1002.2549,-462.4191 1002.2549,-498.4191"/>
<text text-anchor="middle" x="923.2549" y="-477.6191" font-family="Courier,monospace" font-size="11.00" fill="#000000">FluentSchemaExtension</text>
</g>
<!-- \\Firesphere\\SolrFluent\\Extensions\\FluentSchemaExtension&#45;&gt;\\SilverStripe\\Core\\Extension -->
<g id="edge24" class="edge">
<title>\\Firesphere\\SolrFluent\\Extensions\\FluentSchemaExtension&#45;&gt;\\SilverStripe\\Core\\Extension</title>
<path fill="none" stroke="#000000" d="M844.2012,-469.8937C835.5281,-465.8984 827.57,-460.5503 821.2549,-453.4191 735.2882,-356.3431 853.8917,-271.8338 781.2549,-164.4191 750.143,-118.411 718.6395,-133.7127 672.7549,-102.4191"/>
</g>
<!-- \\Firesphere\\SolrFluent\\Extensions\\FluentDocumentExtension -->
<g id="node54" class="node">
<title>\\Firesphere\\SolrFluent\\Extensions\\FluentDocumentExtension</title>
<polygon fill="none" stroke="#000000" points="1009.2549,-444.4191 837.2549,-444.4191 837.2549,-408.4191 1009.2549,-408.4191 1009.2549,-444.4191"/>
<text text-anchor="middle" x="923.2549" y="-423.6191" font-family="Courier,monospace" font-size="11.00" fill="#000000">FluentDocumentExtension</text>
</g>
<!-- \\Firesphere\\SolrFluent\\Extensions\\FluentDocumentExtension&#45;&gt;\\SilverStripe\\Core\\Extension -->
<g id="edge25" class="edge">
<title>\\Firesphere\\SolrFluent\\Extensions\\FluentDocumentExtension&#45;&gt;\\SilverStripe\\Core\\Extension</title>
<path fill="none" stroke="#000000" d="M837.0682,-411.9337C831.2075,-408.5442 825.8266,-404.4228 821.2549,-399.4191 749.792,-321.203 841.959,-251.2505 781.2549,-164.4191 749.4322,-118.8998 718.6395,-133.7127 672.7549,-102.4191"/>
</g>
<!-- \\Firesphere\\SolrFluent\\Extensions\\FluentIndexExtension -->
<g id="node55" class="node">
<title>\\Firesphere\\SolrFluent\\Extensions\\FluentIndexExtension</title>
<polygon fill="none" stroke="#000000" points="999.2549,-390.4191 847.2549,-390.4191 847.2549,-354.4191 999.2549,-354.4191 999.2549,-390.4191"/>
<text text-anchor="middle" x="923.2549" y="-369.6191" font-family="Courier,monospace" font-size="11.00" fill="#000000">FluentIndexExtension</text>
</g>
<!-- \\Firesphere\\SolrFluent\\Extensions\\FluentIndexExtension&#45;&gt;\\SilverStripe\\Core\\Extension -->
<g id="edge26" class="edge">
<title>\\Firesphere\\SolrFluent\\Extensions\\FluentIndexExtension&#45;&gt;\\SilverStripe\\Core\\Extension</title>
<path fill="none" stroke="#000000" d="M881.7382,-354.3922C860.8033,-343.3488 836.655,-327.2971 821.2549,-306.4191 782.3337,-253.6535 821.6163,-216.0913 781.2549,-164.4191 747.066,-120.6491 718.6395,-133.7127 672.7549,-102.4191"/>
</g>
<!-- \\Firesphere\\SolrSubsites\\States\\SubsiteState -->
<g id="node56" class="node">
<title>\\Firesphere\\SolrSubsites\\States\\SubsiteState</title>
<polygon fill="none" stroke="#000000" points="972.2549,-890.4191 874.2549,-890.4191 874.2549,-854.4191 972.2549,-854.4191 972.2549,-890.4191"/>
<text text-anchor="middle" x="923.2549" y="-869.6191" font-family="Courier,monospace" font-size="11.00" fill="#000000">SubsiteState</text>
</g>
<!-- \\Firesphere\\SolrSubsites\\States\\SubsiteState&#45;&gt;\\Firesphere\\SolrSearch\\States\\SiteState -->
<g id="edge27" class="edge">
<title>\\Firesphere\\SolrSubsites\\States\\SubsiteState&#45;&gt;\\Firesphere\\SolrSearch\\States\\SiteState</title>
<path fill="none" stroke="#000000" d="M922.4321,-890.6863C915.603,-1038.8316 866.4357,-2040.5684 781.2549,-2140.4191 767.3025,-2156.7743 745.308,-2164.6132 724.7586,-2168.2348"/>
<polygon fill="none" stroke="#000000" points="724.2138,-2164.7772 714.8283,-2169.6927 725.2307,-2171.7029 724.2138,-2164.7772"/>
</g>
<!-- \\Firesphere\\SolrSubsites\\States\\SubsiteState&#45;&gt;\\Firesphere\\SolrSearch\\Interfaces\\SiteStateInterface -->
<g id="edge28" class="edge">
<title>\\Firesphere\\SolrSubsites\\States\\SubsiteState&#45;&gt;\\Firesphere\\SolrSearch\\Interfaces\\SiteStateInterface</title>
<path fill="none" stroke="#000000" stroke-dasharray="1,5" d="M874.1722,-869.8262C854.6995,-866.1473 833.9586,-858.3763 821.2549,-842.4191 728.9086,-726.4226 885.8623,-281.4919 781.2549,-176.4191 747.1617,-142.1742 720.625,-162.8228 672.7549,-169.4191"/>
</g>
<!-- \\Firesphere\\SolrSubsites\\Extensions\\SubsitesExtension -->
<g id="node57" class="node">
<title>\\Firesphere\\SolrSubsites\\Extensions\\SubsitesExtension</title>
<polygon fill="none" stroke="#000000" points="988.7549,-810.4191 857.7549,-810.4191 857.7549,-774.4191 988.7549,-774.4191 988.7549,-810.4191"/>
<text text-anchor="middle" x="923.2549" y="-789.6191" font-family="Courier,monospace" font-size="11.00" fill="#000000">SubsitesExtension</text>
</g>
<!-- \\Firesphere\\SolrSubsites\\Extensions\\SubsitesExtension&#45;&gt;\\SilverStripe\\Core\\Extension -->
<g id="edge29" class="edge">
<title>\\Firesphere\\SolrSubsites\\Extensions\\SubsitesExtension&#45;&gt;\\SilverStripe\\Core\\Extension</title>
<path fill="none" stroke="#000000" d="M877.5934,-774.3744C856.7707,-763.6751 833.9716,-747.9364 821.2549,-726.4191 757.5526,-618.6311 847.9054,-270.4095 781.2549,-164.4191 751.6892,-117.4025 718.6395,-133.7127 672.7549,-102.4191"/>
</g>
<!-- \\Firesphere\\SolrPermissions\\Extensions\\BaseIndexExtension -->
<g id="node58" class="node">
<title>\\Firesphere\\SolrPermissions\\Extensions\\BaseIndexExtension</title>
<polygon fill="none" stroke="#000000" points="992.2549,-220.4191 854.2549,-220.4191 854.2549,-184.4191 992.2549,-184.4191 992.2549,-220.4191"/>
<text text-anchor="middle" x="923.2549" y="-199.6191" font-family="Courier,monospace" font-size="11.00" fill="#000000">BaseIndexExtension</text>
</g>
<!-- \\Firesphere\\SolrPermissions\\Extensions\\BaseIndexExtension&#45;&gt;\\SilverStripe\\Core\\Extension -->
<g id="edge30" class="edge">
<title>\\Firesphere\\SolrPermissions\\Extensions\\BaseIndexExtension&#45;&gt;\\SilverStripe\\Core\\Extension</title>
<path fill="none" stroke="#000000" d="M894.9736,-184.2769C867.0666,-167.1121 822.6864,-141.757 781.2549,-126.4191 734.9389,-109.2729 713.5569,-130.2463 672.7549,-102.4191"/>
<path fill="none" stroke="#000000" d="M672.7549,-102.4191C595.5166,-49.742 492.774,-28.5809 408.4048,-20.6679"/>
<polygon fill="none" stroke="#000000" points="408.4791,-17.1609 398.2099,-19.7673 407.8631,-24.1338 408.4791,-17.1609"/>
</g>
<!-- \\Firesphere\\SolrPermissions\\Extensions\\DataObjectExtension -->
<g id="node59" class="node">
<title>\\Firesphere\\SolrPermissions\\Extensions\\DataObjectExtension</title>
<polygon fill="none" stroke="#000000" points="995.7549,-274.4191 850.7549,-274.4191 850.7549,-238.4191 995.7549,-238.4191 995.7549,-274.4191"/>
<text text-anchor="middle" x="923.2549" y="-253.6191" font-family="Courier,monospace" font-size="11.00" fill="#000000">DataObjectExtension</text>
</g>
<!-- \\Firesphere\\SolrPermissions\\Extensions\\DataObjectExtension&#45;&gt;\\SilverStripe\\ORM\\DataExtension -->
<g id="edge31" class="edge">
<title>\\Firesphere\\SolrPermissions\\Extensions\\DataObjectExtension&#45;&gt;\\SilverStripe\\ORM\\DataExtension</title>
<path fill="none" stroke="#000000" d="M850.688,-244.6055C840.1962,-240.856 830.004,-235.919 821.2549,-229.4191 794.0261,-209.1902 808.814,-184.1957 781.2549,-164.4191 703.8221,-108.8527 664.7691,-139.3228 572.2549,-116.4191 543.6866,-109.3464 537.1957,-104.7674 508.2549,-99.4191 473.46,-92.9889 435.681,-87.9448 400.1541,-84.0471"/>
<polygon fill="none" stroke="#000000" points="400.5143,-80.5658 390.1977,-82.978 399.7668,-87.5257 400.5143,-80.5658"/>
</g>
</g>
</svg>
