<?xml version="1.0" encoding="UTF-8" standalone="no"?>
<!DOCTYPE svg PUBLIC "-//W3C//DTD SVG 1.1//EN"
 "http://www.w3.org/Graphics/SVG/1.1/DTD/svg11.dtd">
<!-- Generated by graphviz version 2.40.1 (20161225.0304)
 -->
<!-- Title: G Pages: 1 -->
<svg width="984pt" height="3653pt"
 viewBox="0.00 0.00 984.25 3653.04" xmlns="http://www.w3.org/2000/svg" xmlns:xlink="http://www.w3.org/1999/xlink">
<g id="graph0" class="graph" transform="scale(1 1) rotate(0) translate(4 3649.0369)">
<title>G</title>
<polygon fill="#ffffff" stroke="transparent" points="-4,4 -4,-3649.0369 980.2549,-3649.0369 980.2549,4 -4,4"/>
<g id="clust1" class="cluster">
<title>cluster_Global</title>
<path fill="none" stroke="#c0c0c0" d="M165.1275,-477.0369C165.1275,-477.0369 956.2549,-477.0369 956.2549,-477.0369 962.2549,-477.0369 968.2549,-483.0369 968.2549,-489.0369 968.2549,-489.0369 968.2549,-3625.0369 968.2549,-3625.0369 968.2549,-3631.0369 962.2549,-3637.0369 956.2549,-3637.0369 956.2549,-3637.0369 165.1275,-3637.0369 165.1275,-3637.0369 159.1275,-3637.0369 153.1275,-3631.0369 153.1275,-3625.0369 153.1275,-3625.0369 153.1275,-489.0369 153.1275,-489.0369 153.1275,-483.0369 159.1275,-477.0369 165.1275,-477.0369"/>
<text text-anchor="middle" x="560.6912" y="-3624.2369" font-family="Times,serif" font-size="11.00" fill="#c0c0c0">Global</text>
</g>
<g id="clust2" class="cluster">
<title>cluster_\SilverStripe</title>
<path fill="none" stroke="#c0c0c0" d="M817.2549,-2011.0369C817.2549,-2011.0369 948.2549,-2011.0369 948.2549,-2011.0369 954.2549,-2011.0369 960.2549,-2017.0369 960.2549,-2023.0369 960.2549,-2023.0369 960.2549,-2313.0369 960.2549,-2313.0369 960.2549,-2319.0369 954.2549,-2325.0369 948.2549,-2325.0369 948.2549,-2325.0369 817.2549,-2325.0369 817.2549,-2325.0369 811.2549,-2325.0369 805.2549,-2319.0369 805.2549,-2313.0369 805.2549,-2313.0369 805.2549,-2023.0369 805.2549,-2023.0369 805.2549,-2017.0369 811.2549,-2011.0369 817.2549,-2011.0369"/>
<text text-anchor="middle" x="882.7549" y="-2312.2369" font-family="Times,serif" font-size="11.00" fill="#c0c0c0">SilverStripe</text>
</g>
<g id="clust3" class="cluster">
<title>cluster_\SilverStripe\FullTextSearch</title>
<path fill="none" stroke="#c0c0c0" d="M825.2549,-2019.0369C825.2549,-2019.0369 940.2549,-2019.0369 940.2549,-2019.0369 946.2549,-2019.0369 952.2549,-2025.0369 952.2549,-2031.0369 952.2549,-2031.0369 952.2549,-2285.0369 952.2549,-2285.0369 952.2549,-2291.0369 946.2549,-2297.0369 940.2549,-2297.0369 940.2549,-2297.0369 825.2549,-2297.0369 825.2549,-2297.0369 819.2549,-2297.0369 813.2549,-2291.0369 813.2549,-2285.0369 813.2549,-2285.0369 813.2549,-2031.0369 813.2549,-2031.0369 813.2549,-2025.0369 819.2549,-2019.0369 825.2549,-2019.0369"/>
<text text-anchor="middle" x="882.7549" y="-2284.2369" font-family="Times,serif" font-size="11.00" fill="#c0c0c0">FullTextSearch</text>
</g>
<g id="clust4" class="cluster">
<title>cluster_\SilverStripe\FullTextSearch\Search</title>
<path fill="none" stroke="#c0c0c0" d="M833.2549,-2161.0369C833.2549,-2161.0369 932.2549,-2161.0369 932.2549,-2161.0369 938.2549,-2161.0369 944.2549,-2167.0369 944.2549,-2173.0369 944.2549,-2173.0369 944.2549,-2257.0369 944.2549,-2257.0369 944.2549,-2263.0369 938.2549,-2269.0369 932.2549,-2269.0369 932.2549,-2269.0369 833.2549,-2269.0369 833.2549,-2269.0369 827.2549,-2269.0369 821.2549,-2263.0369 821.2549,-2257.0369 821.2549,-2257.0369 821.2549,-2173.0369 821.2549,-2173.0369 821.2549,-2167.0369 827.2549,-2161.0369 833.2549,-2161.0369"/>
<text text-anchor="middle" x="882.7549" y="-2256.2369" font-family="Times,serif" font-size="11.00" fill="#c0c0c0">Search</text>
</g>
<g id="clust5" class="cluster">
<title>cluster_\SilverStripe\FullTextSearch\Search\Queries</title>
<path fill="none" stroke="#c0c0c0" d="M841.2549,-2169.0369C841.2549,-2169.0369 924.2549,-2169.0369 924.2549,-2169.0369 930.2549,-2169.0369 936.2549,-2175.0369 936.2549,-2181.0369 936.2549,-2181.0369 936.2549,-2229.0369 936.2549,-2229.0369 936.2549,-2235.0369 930.2549,-2241.0369 924.2549,-2241.0369 924.2549,-2241.0369 841.2549,-2241.0369 841.2549,-2241.0369 835.2549,-2241.0369 829.2549,-2235.0369 829.2549,-2229.0369 829.2549,-2229.0369 829.2549,-2181.0369 829.2549,-2181.0369 829.2549,-2175.0369 835.2549,-2169.0369 841.2549,-2169.0369"/>
<text text-anchor="middle" x="882.7549" y="-2228.2369" font-family="Times,serif" font-size="11.00" fill="#c0c0c0">Queries</text>
</g>
<g id="clust6" class="cluster">
<title>cluster_\SilverStripe\FullTextSearch\Solr</title>
<path fill="none" stroke="#c0c0c0" d="M844.7549,-2027.0369C844.7549,-2027.0369 920.7549,-2027.0369 920.7549,-2027.0369 926.7549,-2027.0369 932.7549,-2033.0369 932.7549,-2039.0369 932.7549,-2039.0369 932.7549,-2141.0369 932.7549,-2141.0369 932.7549,-2147.0369 926.7549,-2153.0369 920.7549,-2153.0369 920.7549,-2153.0369 844.7549,-2153.0369 844.7549,-2153.0369 838.7549,-2153.0369 832.7549,-2147.0369 832.7549,-2141.0369 832.7549,-2141.0369 832.7549,-2039.0369 832.7549,-2039.0369 832.7549,-2033.0369 838.7549,-2027.0369 844.7549,-2027.0369"/>
<text text-anchor="middle" x="882.7549" y="-2140.2369" font-family="Times,serif" font-size="11.00" fill="#c0c0c0">Solr</text>
</g>
<g id="clust7" class="cluster">
<title>cluster_\Firesphere</title>
<path fill="none" stroke="#c0c0c0" d="M173.1275,-485.0369C173.1275,-485.0369 777.2549,-485.0369 777.2549,-485.0369 783.2549,-485.0369 789.2549,-491.0369 789.2549,-497.0369 789.2549,-497.0369 789.2549,-3597.0369 789.2549,-3597.0369 789.2549,-3603.0369 783.2549,-3609.0369 777.2549,-3609.0369 777.2549,-3609.0369 173.1275,-3609.0369 173.1275,-3609.0369 167.1275,-3609.0369 161.1275,-3603.0369 161.1275,-3597.0369 161.1275,-3597.0369 161.1275,-497.0369 161.1275,-497.0369 161.1275,-491.0369 167.1275,-485.0369 173.1275,-485.0369"/>
<text text-anchor="middle" x="475.1912" y="-3596.2369" font-family="Times,serif" font-size="11.00" fill="#c0c0c0">Firesphere</text>
</g>
<g id="clust8" class="cluster">
<title>cluster_\Firesphere\SolrSearch</title>
<path fill="none" stroke="#c0c0c0" d="M181.1275,-493.0369C181.1275,-493.0369 769.2549,-493.0369 769.2549,-493.0369 775.2549,-493.0369 781.2549,-499.0369 781.2549,-505.0369 781.2549,-505.0369 781.2549,-3569.0369 781.2549,-3569.0369 781.2549,-3575.0369 775.2549,-3581.0369 769.2549,-3581.0369 769.2549,-3581.0369 181.1275,-3581.0369 181.1275,-3581.0369 175.1275,-3581.0369 169.1275,-3575.0369 169.1275,-3569.0369 169.1275,-3569.0369 169.1275,-505.0369 169.1275,-505.0369 169.1275,-499.0369 175.1275,-493.0369 181.1275,-493.0369"/>
<text text-anchor="middle" x="475.1912" y="-3568.2369" font-family="Times,serif" font-size="11.00" fill="#c0c0c0">SolrSearch</text>
</g>
<g id="clust9" class="cluster">
<title>cluster_\Firesphere\SolrSearch\Compat</title>
<path fill="none" stroke="#c0c0c0" d="M590.7549,-3481.0369C590.7549,-3481.0369 754.7549,-3481.0369 754.7549,-3481.0369 760.7549,-3481.0369 766.7549,-3487.0369 766.7549,-3493.0369 766.7549,-3493.0369 766.7549,-3541.0369 766.7549,-3541.0369 766.7549,-3547.0369 760.7549,-3553.0369 754.7549,-3553.0369 754.7549,-3553.0369 590.7549,-3553.0369 590.7549,-3553.0369 584.7549,-3553.0369 578.7549,-3547.0369 578.7549,-3541.0369 578.7549,-3541.0369 578.7549,-3493.0369 578.7549,-3493.0369 578.7549,-3487.0369 584.7549,-3481.0369 590.7549,-3481.0369"/>
<text text-anchor="middle" x="672.7549" y="-3540.2369" font-family="Times,serif" font-size="11.00" fill="#c0c0c0">Compat</text>
</g>
<g id="clust10" class="cluster">
<title>cluster_\Firesphere\SolrSearch\Jobs</title>
<path fill="none" stroke="#c0c0c0" d="M600.7549,-3293.0369C600.7549,-3293.0369 744.7549,-3293.0369 744.7549,-3293.0369 750.7549,-3293.0369 756.7549,-3299.0369 756.7549,-3305.0369 756.7549,-3305.0369 756.7549,-3461.0369 756.7549,-3461.0369 756.7549,-3467.0369 750.7549,-3473.0369 744.7549,-3473.0369 744.7549,-3473.0369 600.7549,-3473.0369 600.7549,-3473.0369 594.7549,-3473.0369 588.7549,-3467.0369 588.7549,-3461.0369 588.7549,-3461.0369 588.7549,-3305.0369 588.7549,-3305.0369 588.7549,-3299.0369 594.7549,-3293.0369 600.7549,-3293.0369"/>
<text text-anchor="middle" x="672.7549" y="-3460.2369" font-family="Times,serif" font-size="11.00" fill="#c0c0c0">Jobs</text>
</g>
<g id="clust11" class="cluster">
<title>cluster_\Firesphere\SolrSearch\Indexes</title>
<path fill="none" stroke="#c0c0c0" d="M634.7549,-3213.0369C634.7549,-3213.0369 710.7549,-3213.0369 710.7549,-3213.0369 716.7549,-3213.0369 722.7549,-3219.0369 722.7549,-3225.0369 722.7549,-3225.0369 722.7549,-3273.0369 722.7549,-3273.0369 722.7549,-3279.0369 716.7549,-3285.0369 710.7549,-3285.0369 710.7549,-3285.0369 634.7549,-3285.0369 634.7549,-3285.0369 628.7549,-3285.0369 622.7549,-3279.0369 622.7549,-3273.0369 622.7549,-3273.0369 622.7549,-3225.0369 622.7549,-3225.0369 622.7549,-3219.0369 628.7549,-3213.0369 634.7549,-3213.0369"/>
<text text-anchor="middle" x="672.7549" y="-3272.2369" font-family="Times,serif" font-size="11.00" fill="#c0c0c0">Indexes</text>
</g>
<g id="clust12" class="cluster">
<title>cluster_\Firesphere\SolrSearch\Extensions</title>
<path fill="none" stroke="#c0c0c0" d="M604.2549,-3079.0369C604.2549,-3079.0369 741.2549,-3079.0369 741.2549,-3079.0369 747.2549,-3079.0369 753.2549,-3085.0369 753.2549,-3091.0369 753.2549,-3091.0369 753.2549,-3193.0369 753.2549,-3193.0369 753.2549,-3199.0369 747.2549,-3205.0369 741.2549,-3205.0369 741.2549,-3205.0369 604.2549,-3205.0369 604.2549,-3205.0369 598.2549,-3205.0369 592.2549,-3199.0369 592.2549,-3193.0369 592.2549,-3193.0369 592.2549,-3091.0369 592.2549,-3091.0369 592.2549,-3085.0369 598.2549,-3079.0369 604.2549,-3079.0369"/>
<text text-anchor="middle" x="672.7549" y="-3192.2369" font-family="Times,serif" font-size="11.00" fill="#c0c0c0">Extensions</text>
</g>
<g id="clust13" class="cluster">
<title>cluster_\Firesphere\SolrSearch\Models</title>
<path fill="none" stroke="#c0c0c0" d="M624.7549,-2891.0369C624.7549,-2891.0369 720.7549,-2891.0369 720.7549,-2891.0369 726.7549,-2891.0369 732.7549,-2897.0369 732.7549,-2903.0369 732.7549,-2903.0369 732.7549,-3059.0369 732.7549,-3059.0369 732.7549,-3065.0369 726.7549,-3071.0369 720.7549,-3071.0369 720.7549,-3071.0369 624.7549,-3071.0369 624.7549,-3071.0369 618.7549,-3071.0369 612.7549,-3065.0369 612.7549,-3059.0369 612.7549,-3059.0369 612.7549,-2903.0369 612.7549,-2903.0369 612.7549,-2897.0369 618.7549,-2891.0369 624.7549,-2891.0369"/>
<text text-anchor="middle" x="672.7549" y="-3058.2369" font-family="Times,serif" font-size="11.00" fill="#c0c0c0">Models</text>
</g>
<g id="clust14" class="cluster">
<title>cluster_\Firesphere\SolrSearch\Forms</title>
<path fill="none" stroke="#c0c0c0" d="M634.7549,-2811.0369C634.7549,-2811.0369 710.7549,-2811.0369 710.7549,-2811.0369 716.7549,-2811.0369 722.7549,-2817.0369 722.7549,-2823.0369 722.7549,-2823.0369 722.7549,-2871.0369 722.7549,-2871.0369 722.7549,-2877.0369 716.7549,-2883.0369 710.7549,-2883.0369 710.7549,-2883.0369 634.7549,-2883.0369 634.7549,-2883.0369 628.7549,-2883.0369 622.7549,-2877.0369 622.7549,-2871.0369 622.7549,-2871.0369 622.7549,-2823.0369 622.7549,-2823.0369 622.7549,-2817.0369 628.7549,-2811.0369 634.7549,-2811.0369"/>
<text text-anchor="middle" x="672.7549" y="-2870.2369" font-family="Times,serif" font-size="11.00" fill="#c0c0c0">Forms</text>
</g>
<g id="clust15" class="cluster">
<title>cluster_\Firesphere\SolrSearch\Services</title>
<path fill="none" stroke="#c0c0c0" d="M617.7549,-2677.0369C617.7549,-2677.0369 727.7549,-2677.0369 727.7549,-2677.0369 733.7549,-2677.0369 739.7549,-2683.0369 739.7549,-2689.0369 739.7549,-2689.0369 739.7549,-2791.0369 739.7549,-2791.0369 739.7549,-2797.0369 733.7549,-2803.0369 727.7549,-2803.0369 727.7549,-2803.0369 617.7549,-2803.0369 617.7549,-2803.0369 611.7549,-2803.0369 605.7549,-2797.0369 605.7549,-2791.0369 605.7549,-2791.0369 605.7549,-2689.0369 605.7549,-2689.0369 605.7549,-2683.0369 611.7549,-2677.0369 617.7549,-2677.0369"/>
<text text-anchor="middle" x="672.7549" y="-2790.2369" font-family="Times,serif" font-size="11.00" fill="#c0c0c0">Services</text>
</g>
<g id="clust16" class="cluster">
<title>cluster_\Firesphere\SolrSearch\Factories</title>
<path fill="none" stroke="#c0c0c0" d="M597.7549,-2543.0369C597.7549,-2543.0369 747.7549,-2543.0369 747.7549,-2543.0369 753.7549,-2543.0369 759.7549,-2549.0369 759.7549,-2555.0369 759.7549,-2555.0369 759.7549,-2657.0369 759.7549,-2657.0369 759.7549,-2663.0369 753.7549,-2669.0369 747.7549,-2669.0369 747.7549,-2669.0369 597.7549,-2669.0369 597.7549,-2669.0369 591.7549,-2669.0369 585.7549,-2663.0369 585.7549,-2657.0369 585.7549,-2657.0369 585.7549,-2555.0369 585.7549,-2555.0369 585.7549,-2549.0369 591.7549,-2543.0369 597.7549,-2543.0369"/>
<text text-anchor="middle" x="672.7549" y="-2656.2369" font-family="Times,serif" font-size="11.00" fill="#c0c0c0">Factories</text>
</g>
<g id="clust17" class="cluster">
<title>cluster_\Firesphere\SolrSearch\Results</title>
<path fill="none" stroke="#c0c0c0" d="M627.7549,-2463.0369C627.7549,-2463.0369 717.7549,-2463.0369 717.7549,-2463.0369 723.7549,-2463.0369 729.7549,-2469.0369 729.7549,-2475.0369 729.7549,-2475.0369 729.7549,-2523.0369 729.7549,-2523.0369 729.7549,-2529.0369 723.7549,-2535.0369 717.7549,-2535.0369 717.7549,-2535.0369 627.7549,-2535.0369 627.7549,-2535.0369 621.7549,-2535.0369 615.7549,-2529.0369 615.7549,-2523.0369 615.7549,-2523.0369 615.7549,-2475.0369 615.7549,-2475.0369 615.7549,-2469.0369 621.7549,-2463.0369 627.7549,-2463.0369"/>
<text text-anchor="middle" x="672.7549" y="-2522.2369" font-family="Times,serif" font-size="11.00" fill="#c0c0c0">Results</text>
</g>
<g id="clust18" class="cluster">
<title>cluster_\Firesphere\SolrSearch\Interfaces</title>
<path fill="none" stroke="#c0c0c0" d="M189.1275,-2356.0369C189.1275,-2356.0369 319.1275,-2356.0369 319.1275,-2356.0369 325.1275,-2356.0369 331.1275,-2362.0369 331.1275,-2368.0369 331.1275,-2368.0369 331.1275,-2470.0369 331.1275,-2470.0369 331.1275,-2476.0369 325.1275,-2482.0369 319.1275,-2482.0369 319.1275,-2482.0369 189.1275,-2482.0369 189.1275,-2482.0369 183.1275,-2482.0369 177.1275,-2476.0369 177.1275,-2470.0369 177.1275,-2470.0369 177.1275,-2368.0369 177.1275,-2368.0369 177.1275,-2362.0369 183.1275,-2356.0369 189.1275,-2356.0369"/>
<text text-anchor="middle" x="254.1275" y="-2469.2369" font-family="Times,serif" font-size="11.00" fill="#c0c0c0">Interfaces</text>
</g>
<g id="clust19" class="cluster">
<title>cluster_\Firesphere\SolrSearch\Admins</title>
<path fill="none" stroke="#c0c0c0" d="M631.2549,-2249.0369C631.2549,-2249.0369 714.2549,-2249.0369 714.2549,-2249.0369 720.2549,-2249.0369 726.2549,-2255.0369 726.2549,-2261.0369 726.2549,-2261.0369 726.2549,-2309.0369 726.2549,-2309.0369 726.2549,-2315.0369 720.2549,-2321.0369 714.2549,-2321.0369 714.2549,-2321.0369 631.2549,-2321.0369 631.2549,-2321.0369 625.2549,-2321.0369 619.2549,-2315.0369 619.2549,-2309.0369 619.2549,-2309.0369 619.2549,-2261.0369 619.2549,-2261.0369 619.2549,-2255.0369 625.2549,-2249.0369 631.2549,-2249.0369"/>
<text text-anchor="middle" x="672.7549" y="-2308.2369" font-family="Times,serif" font-size="11.00" fill="#c0c0c0">Admins</text>
</g>
<g id="clust20" class="cluster">
<title>cluster_\Firesphere\SolrSearch\Tasks</title>
<path fill="none" stroke="#c0c0c0" d="M597.7549,-2007.0369C597.7549,-2007.0369 747.7549,-2007.0369 747.7549,-2007.0369 753.7549,-2007.0369 759.7549,-2013.0369 759.7549,-2019.0369 759.7549,-2019.0369 759.7549,-2229.0369 759.7549,-2229.0369 759.7549,-2235.0369 753.7549,-2241.0369 747.7549,-2241.0369 747.7549,-2241.0369 597.7549,-2241.0369 597.7549,-2241.0369 591.7549,-2241.0369 585.7549,-2235.0369 585.7549,-2229.0369 585.7549,-2229.0369 585.7549,-2019.0369 585.7549,-2019.0369 585.7549,-2013.0369 591.7549,-2007.0369 597.7549,-2007.0369"/>
<text text-anchor="middle" x="672.7549" y="-2228.2369" font-family="Times,serif" font-size="11.00" fill="#c0c0c0">Tasks</text>
</g>
<g id="clust21" class="cluster">
<title>cluster_\Firesphere\SolrSearch\Stores</title>
<path fill="none" stroke="#c0c0c0" d="M617.7549,-2329.0369C617.7549,-2329.0369 727.7549,-2329.0369 727.7549,-2329.0369 733.7549,-2329.0369 739.7549,-2335.0369 739.7549,-2341.0369 739.7549,-2341.0369 739.7549,-2443.0369 739.7549,-2443.0369 739.7549,-2449.0369 733.7549,-2455.0369 727.7549,-2455.0369 727.7549,-2455.0369 617.7549,-2455.0369 617.7549,-2455.0369 611.7549,-2455.0369 605.7549,-2449.0369 605.7549,-2443.0369 605.7549,-2443.0369 605.7549,-2341.0369 605.7549,-2341.0369 605.7549,-2335.0369 611.7549,-2329.0369 617.7549,-2329.0369"/>
<text text-anchor="middle" x="672.7549" y="-2442.2369" font-family="Times,serif" font-size="11.00" fill="#c0c0c0">Stores</text>
</g>
<g id="clust22" class="cluster">
<title>cluster_\Firesphere\SolrSearch\Traits</title>
<path fill="none" stroke="#c0c0c0" d="M584.2549,-1117.0369C584.2549,-1117.0369 761.2549,-1117.0369 761.2549,-1117.0369 767.2549,-1117.0369 773.2549,-1123.0369 773.2549,-1129.0369 773.2549,-1129.0369 773.2549,-1987.0369 773.2549,-1987.0369 773.2549,-1993.0369 767.2549,-1999.0369 761.2549,-1999.0369 761.2549,-1999.0369 584.2549,-1999.0369 584.2549,-1999.0369 578.2549,-1999.0369 572.2549,-1993.0369 572.2549,-1987.0369 572.2549,-1987.0369 572.2549,-1129.0369 572.2549,-1129.0369 572.2549,-1123.0369 578.2549,-1117.0369 584.2549,-1117.0369"/>
<text text-anchor="middle" x="672.7549" y="-1986.2369" font-family="Times,serif" font-size="11.00" fill="#c0c0c0">Traits</text>
</g>
<g id="clust23" class="cluster">
<title>cluster_\Firesphere\SolrSearch\Queries</title>
<path fill="none" stroke="#c0c0c0" d="M638.2549,-1037.0369C638.2549,-1037.0369 707.2549,-1037.0369 707.2549,-1037.0369 713.2549,-1037.0369 719.2549,-1043.0369 719.2549,-1049.0369 719.2549,-1049.0369 719.2549,-1097.0369 719.2549,-1097.0369 719.2549,-1103.0369 713.2549,-1109.0369 707.2549,-1109.0369 707.2549,-1109.0369 638.2549,-1109.0369 638.2549,-1109.0369 632.2549,-1109.0369 626.2549,-1103.0369 626.2549,-1097.0369 626.2549,-1097.0369 626.2549,-1049.0369 626.2549,-1049.0369 626.2549,-1043.0369 632.2549,-1037.0369 638.2549,-1037.0369"/>
<text text-anchor="middle" x="672.7549" y="-1096.2369" font-family="Times,serif" font-size="11.00" fill="#c0c0c0">Queries</text>
</g>
<g id="clust24" class="cluster">
<title>cluster_\Firesphere\SolrSearch\States</title>
<path fill="none" stroke="#c0c0c0" d="M634.7549,-957.0369C634.7549,-957.0369 710.7549,-957.0369 710.7549,-957.0369 716.7549,-957.0369 722.7549,-963.0369 722.7549,-969.0369 722.7549,-969.0369 722.7549,-1017.0369 722.7549,-1017.0369 722.7549,-1023.0369 716.7549,-1029.0369 710.7549,-1029.0369 710.7549,-1029.0369 634.7549,-1029.0369 634.7549,-1029.0369 628.7549,-1029.0369 622.7549,-1023.0369 622.7549,-1017.0369 622.7549,-1017.0369 622.7549,-969.0369 622.7549,-969.0369 622.7549,-963.0369 628.7549,-957.0369 634.7549,-957.0369"/>
<text text-anchor="middle" x="672.7549" y="-1016.2369" font-family="Times,serif" font-size="11.00" fill="#c0c0c0">States</text>
</g>
<g id="clust25" class="cluster">
<title>cluster_\Firesphere\SolrSearch\Helpers</title>
<path fill="none" stroke="#c0c0c0" d="M624.7549,-661.0369C624.7549,-661.0369 720.7549,-661.0369 720.7549,-661.0369 726.7549,-661.0369 732.7549,-667.0369 732.7549,-673.0369 732.7549,-673.0369 732.7549,-937.0369 732.7549,-937.0369 732.7549,-943.0369 726.7549,-949.0369 720.7549,-949.0369 720.7549,-949.0369 624.7549,-949.0369 624.7549,-949.0369 618.7549,-949.0369 612.7549,-943.0369 612.7549,-937.0369 612.7549,-937.0369 612.7549,-673.0369 612.7549,-673.0369 612.7549,-667.0369 618.7549,-661.0369 624.7549,-661.0369"/>
<text text-anchor="middle" x="672.7549" y="-936.2369" font-family="Times,serif" font-size="11.00" fill="#c0c0c0">Helpers</text>
</g>
<g id="clust26" class="cluster">
<title>cluster_\Firesphere\SolrSearch\Fluent</title>
<path fill="none" stroke="#c0c0c0" d="M617.7549,-581.0369C617.7549,-581.0369 727.7549,-581.0369 727.7549,-581.0369 733.7549,-581.0369 739.7549,-587.0369 739.7549,-593.0369 739.7549,-593.0369 739.7549,-641.0369 739.7549,-641.0369 739.7549,-647.0369 733.7549,-653.0369 727.7549,-653.0369 727.7549,-653.0369 617.7549,-653.0369 617.7549,-653.0369 611.7549,-653.0369 605.7549,-647.0369 605.7549,-641.0369 605.7549,-641.0369 605.7549,-593.0369 605.7549,-593.0369 605.7549,-587.0369 611.7549,-581.0369 617.7549,-581.0369"/>
<text text-anchor="middle" x="672.7549" y="-640.2369" font-family="Times,serif" font-size="11.00" fill="#c0c0c0">Fluent</text>
</g>
<g id="clust27" class="cluster">
<title>cluster_\Firesphere\SolrSearch\Subsites</title>
<path fill="none" stroke="#c0c0c0" d="M611.2549,-501.0369C611.2549,-501.0369 734.2549,-501.0369 734.2549,-501.0369 740.2549,-501.0369 746.2549,-507.0369 746.2549,-513.0369 746.2549,-513.0369 746.2549,-561.0369 746.2549,-561.0369 746.2549,-567.0369 740.2549,-573.0369 734.2549,-573.0369 734.2549,-573.0369 611.2549,-573.0369 611.2549,-573.0369 605.2549,-573.0369 599.2549,-567.0369 599.2549,-561.0369 599.2549,-561.0369 599.2549,-513.0369 599.2549,-513.0369 599.2549,-507.0369 605.2549,-501.0369 611.2549,-501.0369"/>
<text text-anchor="middle" x="672.7549" y="-560.2369" font-family="Times,serif" font-size="11.00" fill="#c0c0c0">Subsites</text>
</g>
<!-- \\SilverStripe\\FullTextSearch\\Search\\Queries\\SearchQuery -->
<g id="node1" class="node">
<title>\\SilverStripe\\FullTextSearch\\Search\\Queries\\SearchQuery</title>
<polygon fill="none" stroke="#000000" points="928.2549,-2213.0369 837.2549,-2213.0369 837.2549,-2177.0369 928.2549,-2177.0369 928.2549,-2213.0369"/>
<text text-anchor="middle" x="882.7549" y="-2192.2369" font-family="Courier,monospace" font-size="11.00" fill="#000000">SearchQuery</text>
</g>
<!-- \\Firesphere\\SolrSearch\\Queries\\BaseQuery -->
<g id="node45" class="node">
<title>\\Firesphere\\SolrSearch\\Queries\\BaseQuery</title>
<polygon fill="none" stroke="#000000" points="711.2549,-1081.0369 634.2549,-1081.0369 634.2549,-1045.0369 711.2549,-1045.0369 711.2549,-1081.0369"/>
<text text-anchor="middle" x="672.7549" y="-1060.2369" font-family="Courier,monospace" font-size="11.00" fill="#000000">BaseQuery</text>
</g>
<!-- \\SilverStripe\\FullTextSearch\\Search\\Queries\\SearchQuery&#45;&gt;\\Firesphere\\SolrSearch\\Queries\\BaseQuery -->
<g id="edge1" class="edge">
<title>\\SilverStripe\\FullTextSearch\\Search\\Queries\\SearchQuery&#45;&gt;\\Firesphere\\SolrSearch\\Queries\\BaseQuery</title>
<path fill="none" stroke="#000000" d="M837.1781,-2182.5674C824.7234,-2176.8621 812.6378,-2168.6798 805.2549,-2157.0369 774.1911,-2108.0488 821.5448,-1161.2256 789.2549,-1113.0369 774.0178,-1090.2974 746.0907,-1077.8515 721.3993,-1071.0645"/>
<polygon fill="none" stroke="#000000" points="721.9698,-1067.5995 711.4195,-1068.5694 720.2719,-1074.3904 721.9698,-1067.5995"/>
</g>
<!-- \\SilverStripe\\FullTextSearch\\Solr\\SolrIndex -->
<g id="node2" class="node">
<title>\\SilverStripe\\FullTextSearch\\Solr\\SolrIndex</title>
<polygon fill="none" stroke="#000000" points="924.7549,-2125.0369 840.7549,-2125.0369 840.7549,-2089.0369 924.7549,-2089.0369 924.7549,-2125.0369"/>
<text text-anchor="start" x="848.7549" y="-2110.2369" font-family="Courier,monospace" font-size="11.00" fill="#000000">«abstract»</text>
<text text-anchor="start" x="852.2549" y="-2098.2369" font-family="Courier,monospace" font-size="11.00" fill="#000000">SolrIndex</text>
</g>
<!-- \\Firesphere\\SolrSearch\\Indexes\\BaseIndex -->
<g id="node8" class="node">
<title>\\Firesphere\\SolrSearch\\Indexes\\BaseIndex</title>
<polygon fill="none" stroke="#000000" points="714.7549,-3257.0369 630.7549,-3257.0369 630.7549,-3221.0369 714.7549,-3221.0369 714.7549,-3257.0369"/>
<text text-anchor="start" x="638.7549" y="-3242.2369" font-family="Courier,monospace" font-size="11.00" fill="#000000">«abstract»</text>
<text text-anchor="start" x="642.2549" y="-3230.2369" font-family="Courier,monospace" font-size="11.00" fill="#000000">BaseIndex</text>
</g>
<!-- \\SilverStripe\\FullTextSearch\\Solr\\SolrIndex&#45;&gt;\\Firesphere\\SolrSearch\\Indexes\\BaseIndex -->
<g id="edge2" class="edge">
<title>\\SilverStripe\\FullTextSearch\\Solr\\SolrIndex&#45;&gt;\\Firesphere\\SolrSearch\\Indexes\\BaseIndex</title>
<path fill="none" stroke="#000000" d="M845.3042,-2125.277C829.9978,-2134.8385 813.8863,-2148.1215 805.2549,-2165.0369 778.89,-2216.7059 825.1417,-3163.4636 789.2549,-3209.0369 774.1162,-3228.2618 748.4327,-3236.1733 725.0272,-3239.1001"/>
<polygon fill="none" stroke="#000000" points="724.4417,-3235.6405 714.8277,-3240.0925 725.1196,-3242.6076 724.4417,-3235.6405"/>
</g>
<!-- \\SilverStripe\\FullTextSearch\\Solr\\Solr -->
<g id="node3" class="node">
<title>\\SilverStripe\\FullTextSearch\\Solr\\Solr</title>
<polygon fill="none" stroke="#000000" points="909.7549,-2071.0369 855.7549,-2071.0369 855.7549,-2035.0369 909.7549,-2035.0369 909.7549,-2071.0369"/>
<text text-anchor="middle" x="882.7549" y="-2050.2369" font-family="Courier,monospace" font-size="11.00" fill="#000000">Solr</text>
</g>
<!-- \\Firesphere\\SolrSearch\\Compat\\FulltextSearchExtension -->
<g id="node4" class="node">
<title>\\Firesphere\\SolrSearch\\Compat\\FulltextSearchExtension</title>
<polygon fill="none" stroke="#000000" points="758.7549,-3525.0369 586.7549,-3525.0369 586.7549,-3489.0369 758.7549,-3489.0369 758.7549,-3525.0369"/>
<text text-anchor="middle" x="672.7549" y="-3504.2369" font-family="Courier,monospace" font-size="11.00" fill="#000000">FulltextSearchExtension</text>
</g>
<!-- \\SilverStripe\\Core\\Extension -->
<g id="node54" class="node">
<title>\\SilverStripe\\Core\\Extension</title>
<ellipse fill="none" stroke="#000000" cx="254.1275" cy="-397.0369" rx="144.0747" ry="18"/>
<text text-anchor="middle" x="254.1275" y="-393.3369" font-family="Times,serif" font-size="14.00" fill="#c0c0c0">\SilverStripe\Core\Extension</text>
</g>
<!-- \\Firesphere\\SolrSearch\\Compat\\FulltextSearchExtension&#45;&gt;\\SilverStripe\\Core\\Extension -->
<g id="edge3" class="edge">
<title>\\Firesphere\\SolrSearch\\Compat\\FulltextSearchExtension&#45;&gt;\\SilverStripe\\Core\\Extension</title>
<path fill="none" stroke="#000000" d="M586.4572,-3490.2043C581.0682,-3486.5937 576.2263,-3482.252 572.2549,-3477.0369 469.4733,-3342.0683 623.0163,-548.9785 508.2549,-424.0369 466.4221,-378.4932 394.8095,-374.539 338.2455,-380.3876"/>
<polygon fill="none" stroke="#000000" points="337.7637,-376.9199 328.2294,-381.5402 338.564,-383.874 337.7637,-376.9199"/>
</g>
<!-- \\Firesphere\\SolrSearch\\Jobs\\SolrIndexJob -->
<g id="node5" class="node">
<title>\\Firesphere\\SolrSearch\\Jobs\\SolrIndexJob</title>
<polygon fill="none" stroke="#000000" points="721.7549,-3445.0369 623.7549,-3445.0369 623.7549,-3409.0369 721.7549,-3409.0369 721.7549,-3445.0369"/>
<text text-anchor="middle" x="672.7549" y="-3424.2369" font-family="Courier,monospace" font-size="11.00" fill="#000000">SolrIndexJob</text>
</g>
<!-- \\Symbiote\\QueuedJobs\\Services\\AbstractQueuedJob -->
<g id="node55" class="node">
<title>\\Symbiote\\QueuedJobs\\Services\\AbstractQueuedJob</title>
<ellipse fill="none" stroke="#000000" cx="254.1275" cy="-451.0369" rx="254.255" ry="18"/>
<text text-anchor="middle" x="254.1275" y="-447.3369" font-family="Times,serif" font-size="14.00" fill="#c0c0c0">\Symbiote\QueuedJobs\Services\AbstractQueuedJob</text>
</g>
<!-- \\Firesphere\\SolrSearch\\Jobs\\SolrIndexJob&#45;&gt;\\Symbiote\\QueuedJobs\\Services\\AbstractQueuedJob -->
<g id="edge4" class="edge">
<title>\\Firesphere\\SolrSearch\\Jobs\\SolrIndexJob&#45;&gt;\\Symbiote\\QueuedJobs\\Services\\AbstractQueuedJob</title>
<path fill="none" stroke="#000000" d="M623.7177,-3425.6426C604.777,-3422.4506 584.7088,-3415.2914 572.2549,-3400.0369 498.4767,-3309.6674 519.5467,-2468.1505 508.2549,-2352.0369 433.7134,-1585.5262 286.4287,-652.3378 258.69,-479.3279"/>
<polygon fill="none" stroke="#000000" points="262.1137,-478.573 257.0721,-469.2546 255.2023,-479.6831 262.1137,-478.573"/>
</g>
<!-- \\Firesphere\\SolrSearch\\Jobs\\SolrConfigureJob -->
<g id="node6" class="node">
<title>\\Firesphere\\SolrSearch\\Jobs\\SolrConfigureJob</title>
<polygon fill="none" stroke="#000000" points="735.2549,-3391.0369 610.2549,-3391.0369 610.2549,-3355.0369 735.2549,-3355.0369 735.2549,-3391.0369"/>
<text text-anchor="middle" x="672.7549" y="-3370.2369" font-family="Courier,monospace" font-size="11.00" fill="#000000">SolrConfigureJob</text>
</g>
<!-- \\Firesphere\\SolrSearch\\Jobs\\SolrConfigureJob&#45;&gt;\\Symbiote\\QueuedJobs\\Services\\AbstractQueuedJob -->
<g id="edge5" class="edge">
<title>\\Firesphere\\SolrSearch\\Jobs\\SolrConfigureJob&#45;&gt;\\Symbiote\\QueuedJobs\\Services\\AbstractQueuedJob</title>
<path fill="none" stroke="#000000" d="M610.1163,-3368.6037C595.6623,-3364.5534 581.7573,-3357.637 572.2549,-3346.0369 502.1222,-3260.4218 519.1491,-2462.1725 508.2549,-2352.0369 432.447,-1585.6504 286.1842,-652.3617 258.6546,-479.3313"/>
<polygon fill="none" stroke="#000000" points="262.0793,-478.5814 257.0491,-469.2569 255.1666,-479.6831 262.0793,-478.5814"/>
</g>
<!-- \\Firesphere\\SolrSearch\\Jobs\\ClearDirtyClassesJob -->
<g id="node7" class="node">
<title>\\Firesphere\\SolrSearch\\Jobs\\ClearDirtyClassesJob</title>
<polygon fill="none" stroke="#000000" points="748.7549,-3337.0369 596.7549,-3337.0369 596.7549,-3301.0369 748.7549,-3301.0369 748.7549,-3337.0369"/>
<text text-anchor="middle" x="672.7549" y="-3316.2369" font-family="Courier,monospace" font-size="11.00" fill="#000000">ClearDirtyClassesJob</text>
</g>
<!-- \\Firesphere\\SolrSearch\\Jobs\\ClearDirtyClassesJob&#45;&gt;\\Symbiote\\QueuedJobs\\Services\\AbstractQueuedJob -->
<g id="edge6" class="edge">
<title>\\Firesphere\\SolrSearch\\Jobs\\ClearDirtyClassesJob&#45;&gt;\\Symbiote\\QueuedJobs\\Services\\AbstractQueuedJob</title>
<path fill="none" stroke="#000000" d="M596.7326,-3307.5317C587.3137,-3303.1272 578.7363,-3297.1434 572.2549,-3289.0369 507.0891,-3207.5316 518.7295,-2455.8636 508.2549,-2352.0369 430.9528,-1585.7997 285.8958,-652.3906 258.6128,-479.3355"/>
<polygon fill="none" stroke="#000000" points="262.0388,-478.5913 257.0218,-469.2596 255.1244,-479.6832 262.0388,-478.5913"/>
</g>
<!-- \\Firesphere\\SolrSearch\\Extensions\\DataObjectExtension -->
<g id="node9" class="node">
<title>\\Firesphere\\SolrSearch\\Extensions\\DataObjectExtension</title>
<polygon fill="none" stroke="#000000" points="745.2549,-3123.0369 600.2549,-3123.0369 600.2549,-3087.0369 745.2549,-3087.0369 745.2549,-3123.0369"/>
<text text-anchor="middle" x="672.7549" y="-3102.2369" font-family="Courier,monospace" font-size="11.00" fill="#000000">DataObjectExtension</text>
</g>
<!-- \\SilverStripe\\ORM\\DataExtension -->
<g id="node56" class="node">
<title>\\SilverStripe\\ORM\\DataExtension</title>
<ellipse fill="none" stroke="#000000" cx="254.1275" cy="-19.0369" rx="167.8704" ry="18"/>
<text text-anchor="middle" x="254.1275" y="-15.3369" font-family="Times,serif" font-size="14.00" fill="#c0c0c0">\SilverStripe\ORM\DataExtension</text>
</g>
<!-- \\Firesphere\\SolrSearch\\Extensions\\DataObjectExtension&#45;&gt;\\SilverStripe\\ORM\\DataExtension -->
<g id="edge7" class="edge">
<title>\\Firesphere\\SolrSearch\\Extensions\\DataObjectExtension&#45;&gt;\\SilverStripe\\ORM\\DataExtension</title>
<path fill="none" stroke="#000000" d="M600.1256,-3095.4751C589.2813,-3090.9196 579.3712,-3084.3801 572.2549,-3075.0369 470.2698,-2941.1373 622.1248,-169.9873 508.2549,-46.0369 467.4233,-1.5906 398.2293,3.2438 342.3447,-1.9858"/>
<polygon fill="none" stroke="#000000" points="341.6509,1.4604 332.0746,-3.0721 342.3873,-5.5007 341.6509,1.4604"/>
</g>
<!-- \\Firesphere\\SolrSearch\\Extensions\\GridFieldExtension -->
<g id="node10" class="node">
<title>\\Firesphere\\SolrSearch\\Extensions\\GridFieldExtension</title>
<polygon fill="none" stroke="#000000" points="741.7549,-3177.0369 603.7549,-3177.0369 603.7549,-3141.0369 741.7549,-3141.0369 741.7549,-3177.0369"/>
<text text-anchor="middle" x="672.7549" y="-3156.2369" font-family="Courier,monospace" font-size="11.00" fill="#000000">GridFieldExtension</text>
</g>
<!-- \\Firesphere\\SolrSearch\\Extensions\\GridFieldExtension&#45;&gt;\\SilverStripe\\Core\\Extension -->
<g id="edge8" class="edge">
<title>\\Firesphere\\SolrSearch\\Extensions\\GridFieldExtension&#45;&gt;\\SilverStripe\\Core\\Extension</title>
<path fill="none" stroke="#000000" d="M603.5744,-3152.9174C591.4396,-3148.6915 580.18,-3142.1231 572.2549,-3132.0369 479.2795,-3013.7079 610.2017,-534.7302 508.2549,-424.0369 466.3613,-378.5491 394.7541,-374.59 338.2077,-380.4224"/>
<polygon fill="none" stroke="#000000" points="337.7303,-376.9541 328.1948,-381.572 338.5288,-383.9085 337.7303,-376.9541"/>
</g>
<!-- \\Firesphere\\SolrSearch\\Models\\DirtyClass -->
<g id="node11" class="node">
<title>\\Firesphere\\SolrSearch\\Models\\DirtyClass</title>
<polygon fill="none" stroke="#000000" points="714.7549,-3043.0369 630.7549,-3043.0369 630.7549,-3007.0369 714.7549,-3007.0369 714.7549,-3043.0369"/>
<text text-anchor="middle" x="672.7549" y="-3022.2369" font-family="Courier,monospace" font-size="11.00" fill="#000000">DirtyClass</text>
</g>
<!-- \\SilverStripe\\ORM\\DataObject -->
<g id="node57" class="node">
<title>\\SilverStripe\\ORM\\DataObject</title>
<ellipse fill="none" stroke="#000000" cx="254.1275" cy="-343.0369" rx="152.9733" ry="18"/>
<text text-anchor="middle" x="254.1275" y="-339.3369" font-family="Times,serif" font-size="14.00" fill="#c0c0c0">\SilverStripe\ORM\DataObject</text>
</g>
<!-- \\Firesphere\\SolrSearch\\Models\\DirtyClass&#45;&gt;\\SilverStripe\\ORM\\DataObject -->
<g id="edge9" class="edge">
<title>\\Firesphere\\SolrSearch\\Models\\DirtyClass&#45;&gt;\\SilverStripe\\ORM\\DataObject</title>
<path fill="none" stroke="#000000" d="M630.6844,-3024.8911C609.7276,-3022.4206 585.9906,-3015.5053 572.2549,-2998.0369 481.9833,-2883.2341 607.2303,-477.4264 508.2549,-370.0369 466.7704,-325.0258 396.1901,-320.6884 339.9242,-326.2574"/>
<polygon fill="none" stroke="#000000" points="339.5078,-322.782 329.9535,-327.3609 340.2779,-329.7395 339.5078,-322.782"/>
</g>
<!-- \\Firesphere\\SolrSearch\\Models\\SearchSynonym -->
<g id="node12" class="node">
<title>\\Firesphere\\SolrSearch\\Models\\SearchSynonym</title>
<polygon fill="none" stroke="#000000" points="724.7549,-2989.0369 620.7549,-2989.0369 620.7549,-2953.0369 724.7549,-2953.0369 724.7549,-2989.0369"/>
<text text-anchor="middle" x="672.7549" y="-2968.2369" font-family="Courier,monospace" font-size="11.00" fill="#000000">SearchSynonym</text>
</g>
<!-- \\Firesphere\\SolrSearch\\Models\\SearchSynonym&#45;&gt;\\SilverStripe\\ORM\\DataObject -->
<g id="edge10" class="edge">
<title>\\Firesphere\\SolrSearch\\Models\\SearchSynonym&#45;&gt;\\SilverStripe\\ORM\\DataObject</title>
<path fill="none" stroke="#000000" d="M620.5624,-2969.3535C602.4571,-2965.9592 583.8168,-2958.733 572.2549,-2944.0369 483.8084,-2831.6142 605.2247,-475.1963 508.2549,-370.0369 466.759,-325.0364 396.1795,-320.6981 339.9168,-326.2641"/>
<polygon fill="none" stroke="#000000" points="339.5013,-322.7886 329.9468,-327.3671 340.2711,-329.7462 339.5013,-322.7886"/>
</g>
<!-- \\Firesphere\\SolrSearch\\Models\\SolrLog -->
<g id="node13" class="node">
<title>\\Firesphere\\SolrSearch\\Models\\SolrLog</title>
<polygon fill="none" stroke="#000000" points="704.7549,-2935.0369 640.7549,-2935.0369 640.7549,-2899.0369 704.7549,-2899.0369 704.7549,-2935.0369"/>
<text text-anchor="middle" x="672.7549" y="-2914.2369" font-family="Courier,monospace" font-size="11.00" fill="#000000">SolrLog</text>
</g>
<!-- \\Firesphere\\SolrSearch\\Models\\SolrLog&#45;&gt;\\SilverStripe\\ORM\\DataObject -->
<g id="edge11" class="edge">
<title>\\Firesphere\\SolrSearch\\Models\\SolrLog&#45;&gt;\\SilverStripe\\ORM\\DataObject</title>
<path fill="none" stroke="#000000" d="M640.5455,-2916.7496C617.5811,-2914.6546 588.0765,-2907.7173 572.2549,-2887.0369 487.2614,-2775.9419 603.1076,-472.8424 508.2549,-370.0369 466.7463,-325.048 396.1678,-320.7089 339.9088,-326.2716"/>
<polygon fill="none" stroke="#000000" points="339.4941,-322.796 329.9394,-327.374 340.2635,-329.7536 339.4941,-322.796"/>
</g>
<!-- \\SilverStripe\\Security\\PermissionProvider -->
<g id="node58" class="node">
<title>\\SilverStripe\\Security\\PermissionProvider</title>
<ellipse fill="none" stroke="#000000" cx="254.1275" cy="-289.0369" rx="206.0634" ry="18"/>
<text text-anchor="middle" x="254.1275" y="-285.3369" font-family="Times,serif" font-size="14.00" fill="#c0c0c0">\SilverStripe\Security\PermissionProvider</text>
</g>
<!-- \\Firesphere\\SolrSearch\\Models\\SolrLog&#45;&gt;\\SilverStripe\\Security\\PermissionProvider -->
<g id="edge12" class="edge">
<title>\\Firesphere\\SolrSearch\\Models\\SolrLog&#45;&gt;\\SilverStripe\\Security\\PermissionProvider</title>
<path fill="none" stroke="#000000" stroke-dasharray="1,5" d="M640.5423,-2916.7521C617.5762,-2914.6583 588.071,-2907.7215 572.2549,-2887.0369 485.4693,-2773.5368 605.1132,-421.0725 508.2549,-316.0369 468.5431,-272.9725 402.1965,-267.1471 347.2522,-271.6037"/>
<polygon fill="none" stroke="#000000" points="346.7656,-268.1339 337.1345,-272.5489 347.4168,-275.1035 346.7656,-268.1339"/>
</g>
<!-- \\Firesphere\\SolrSearch\\Forms\\SearchForm -->
<g id="node14" class="node">
<title>\\Firesphere\\SolrSearch\\Forms\\SearchForm</title>
<polygon fill="none" stroke="#000000" points="714.7549,-2855.0369 630.7549,-2855.0369 630.7549,-2819.0369 714.7549,-2819.0369 714.7549,-2855.0369"/>
<text text-anchor="middle" x="672.7549" y="-2834.2369" font-family="Courier,monospace" font-size="11.00" fill="#000000">SearchForm</text>
</g>
<!-- \\SilverStripe\\Forms\\Form -->
<g id="node59" class="node">
<title>\\SilverStripe\\Forms\\Form</title>
<ellipse fill="none" stroke="#000000" cx="254.1275" cy="-235.0369" rx="129.1772" ry="18"/>
<text text-anchor="middle" x="254.1275" y="-231.3369" font-family="Times,serif" font-size="14.00" fill="#c0c0c0">\SilverStripe\Forms\Form</text>
</g>
<!-- \\Firesphere\\SolrSearch\\Forms\\SearchForm&#45;&gt;\\SilverStripe\\Forms\\Form -->
<g id="edge13" class="edge">
<title>\\Firesphere\\SolrSearch\\Forms\\SearchForm&#45;&gt;\\SilverStripe\\Forms\\Form</title>
<path fill="none" stroke="#000000" d="M630.5796,-2835.5636C609.5931,-2832.4472 585.8612,-2824.8268 572.2549,-2807.0369 486.3322,-2694.6948 604.1475,-365.9987 508.2549,-262.0369 465.6175,-215.8116 392.2911,-212.4966 335.3295,-218.746"/>
<polygon fill="none" stroke="#000000" points="334.7623,-215.2891 325.2565,-219.9679 335.6053,-222.2381 334.7623,-215.2891"/>
</g>
<!-- \\Firesphere\\SolrSearch\\Services\\SchemaService -->
<g id="node15" class="node">
<title>\\Firesphere\\SolrSearch\\Services\\SchemaService</title>
<polygon fill="none" stroke="#000000" points="724.7549,-2775.0369 620.7549,-2775.0369 620.7549,-2739.0369 724.7549,-2739.0369 724.7549,-2775.0369"/>
<text text-anchor="middle" x="672.7549" y="-2754.2369" font-family="Courier,monospace" font-size="11.00" fill="#000000">SchemaService</text>
</g>
<!-- \\SilverStripe\\View\\ViewableData -->
<g id="node60" class="node">
<title>\\SilverStripe\\View\\ViewableData</title>
<ellipse fill="none" stroke="#000000" cx="254.1275" cy="-181.0369" rx="163.2712" ry="18"/>
<text text-anchor="middle" x="254.1275" y="-177.3369" font-family="Times,serif" font-size="14.00" fill="#c0c0c0">\SilverStripe\View\ViewableData</text>
</g>
<!-- \\Firesphere\\SolrSearch\\Services\\SchemaService&#45;&gt;\\SilverStripe\\View\\ViewableData -->
<g id="edge14" class="edge">
<title>\\Firesphere\\SolrSearch\\Services\\SchemaService&#45;&gt;\\SilverStripe\\View\\ViewableData</title>
<path fill="none" stroke="#000000" d="M620.5664,-2755.3503C602.4616,-2751.9557 583.8205,-2744.73 572.2549,-2730.0369 485.5659,-2619.9062 603.2933,-311.0489 508.2549,-208.0369 467.2582,-163.6006 397.9015,-158.8209 341.9928,-164.0701"/>
<polygon fill="none" stroke="#000000" points="341.2949,-160.6244 331.7198,-165.1596 342.0332,-167.5853 341.2949,-160.6244"/>
</g>
<!-- \\Firesphere\\SolrSearch\\Services\\SolrCoreService -->
<g id="node16" class="node">
<title>\\Firesphere\\SolrSearch\\Services\\SolrCoreService</title>
<polygon fill="none" stroke="#000000" points="731.7549,-2721.0369 613.7549,-2721.0369 613.7549,-2685.0369 731.7549,-2685.0369 731.7549,-2721.0369"/>
<text text-anchor="middle" x="672.7549" y="-2700.2369" font-family="Courier,monospace" font-size="11.00" fill="#000000">SolrCoreService</text>
</g>
<!-- \\Firesphere\\SolrSearch\\Factories\\DocumentFactory -->
<g id="node17" class="node">
<title>\\Firesphere\\SolrSearch\\Factories\\DocumentFactory</title>
<polygon fill="none" stroke="#000000" points="731.7549,-2641.0369 613.7549,-2641.0369 613.7549,-2605.0369 731.7549,-2605.0369 731.7549,-2641.0369"/>
<text text-anchor="middle" x="672.7549" y="-2620.2369" font-family="Courier,monospace" font-size="11.00" fill="#000000">DocumentFactory</text>
</g>
<!-- \\Firesphere\\SolrSearch\\Factories\\QueryComponentFactory -->
<g id="node18" class="node">
<title>\\Firesphere\\SolrSearch\\Factories\\QueryComponentFactory</title>
<polygon fill="none" stroke="#000000" points="751.7549,-2587.0369 593.7549,-2587.0369 593.7549,-2551.0369 751.7549,-2551.0369 751.7549,-2587.0369"/>
<text text-anchor="middle" x="672.7549" y="-2566.2369" font-family="Courier,monospace" font-size="11.00" fill="#000000">QueryComponentFactory</text>
</g>
<!-- \\Firesphere\\SolrSearch\\Results\\SearchResult -->
<g id="node19" class="node">
<title>\\Firesphere\\SolrSearch\\Results\\SearchResult</title>
<polygon fill="none" stroke="#000000" points="721.7549,-2507.0369 623.7549,-2507.0369 623.7549,-2471.0369 721.7549,-2471.0369 721.7549,-2507.0369"/>
<text text-anchor="middle" x="672.7549" y="-2486.2369" font-family="Courier,monospace" font-size="11.00" fill="#000000">SearchResult</text>
</g>
<!-- \\Firesphere\\SolrSearch\\Interfaces\\SiteStateInterface -->
<g id="node20" class="node">
<title>\\Firesphere\\SolrSearch\\Interfaces\\SiteStateInterface</title>
<polygon fill="none" stroke="#000000" points="323.1275,-2454.0369 185.1275,-2454.0369 185.1275,-2418.0369 323.1275,-2418.0369 323.1275,-2454.0369"/>
<text text-anchor="middle" x="254.1275" y="-2433.2369" font-family="Courier,monospace" font-size="11.00" fill="#000000">SiteStateInterface</text>
</g>
<!-- \\Firesphere\\SolrSearch\\Interfaces\\ConfigStore -->
<g id="node21" class="node">
<title>\\Firesphere\\SolrSearch\\Interfaces\\ConfigStore</title>
<polygon fill="none" stroke="#000000" points="299.6275,-2400.0369 208.6275,-2400.0369 208.6275,-2364.0369 299.6275,-2364.0369 299.6275,-2400.0369"/>
<text text-anchor="middle" x="254.1275" y="-2379.2369" font-family="Courier,monospace" font-size="11.00" fill="#000000">ConfigStore</text>
</g>
<!-- \\Firesphere\\SolrSearch\\Admins\\SearchAdmin -->
<g id="node22" class="node">
<title>\\Firesphere\\SolrSearch\\Admins\\SearchAdmin</title>
<polygon fill="none" stroke="#000000" points="718.2549,-2293.0369 627.2549,-2293.0369 627.2549,-2257.0369 718.2549,-2257.0369 718.2549,-2293.0369"/>
<text text-anchor="middle" x="672.7549" y="-2272.2369" font-family="Courier,monospace" font-size="11.00" fill="#000000">SearchAdmin</text>
</g>
<!-- \\SilverStripe\\Admin\\ModelAdmin -->
<g id="node61" class="node">
<title>\\SilverStripe\\Admin\\ModelAdmin</title>
<ellipse fill="none" stroke="#000000" cx="254.1275" cy="-127.0369" rx="165.1707" ry="18"/>
<text text-anchor="middle" x="254.1275" y="-123.3369" font-family="Times,serif" font-size="14.00" fill="#c0c0c0">\SilverStripe\Admin\ModelAdmin</text>
</g>
<!-- \\Firesphere\\SolrSearch\\Admins\\SearchAdmin&#45;&gt;\\SilverStripe\\Admin\\ModelAdmin -->
<g id="edge15" class="edge">
<title>\\Firesphere\\SolrSearch\\Admins\\SearchAdmin&#45;&gt;\\SilverStripe\\Admin\\ModelAdmin</title>
<path fill="none" stroke="#000000" d="M627.0133,-2272.9553C606.9747,-2269.5086 585.1326,-2261.7793 572.2549,-2245.0369 430.5402,-2060.7917 666.3173,-324.4647 508.2549,-154.0369 467.2842,-109.861 398.2717,-104.9548 342.4962,-110.0868"/>
<polygon fill="none" stroke="#000000" points="341.829,-106.6372 332.2455,-111.1546 342.5544,-113.5996 341.829,-106.6372"/>
</g>
<!-- \\Firesphere\\SolrSearch\\Tasks\\SolrConfigureTask -->
<g id="node23" class="node">
<title>\\Firesphere\\SolrSearch\\Tasks\\SolrConfigureTask</title>
<polygon fill="none" stroke="#000000" points="738.2549,-2213.0369 607.2549,-2213.0369 607.2549,-2177.0369 738.2549,-2177.0369 738.2549,-2213.0369"/>
<text text-anchor="middle" x="672.7549" y="-2192.2369" font-family="Courier,monospace" font-size="11.00" fill="#000000">SolrConfigureTask</text>
</g>
<!-- \\SilverStripe\\Dev\\BuildTask -->
<g id="node62" class="node">
<title>\\SilverStripe\\Dev\\BuildTask</title>
<ellipse fill="none" stroke="#000000" cx="254.1275" cy="-73.0369" rx="139.9756" ry="18"/>
<text text-anchor="middle" x="254.1275" y="-69.3369" font-family="Times,serif" font-size="14.00" fill="#c0c0c0">\SilverStripe\Dev\BuildTask</text>
</g>
<!-- \\Firesphere\\SolrSearch\\Tasks\\SolrConfigureTask&#45;&gt;\\SilverStripe\\Dev\\BuildTask -->
<g id="edge16" class="edge">
<title>\\Firesphere\\SolrSearch\\Tasks\\SolrConfigureTask&#45;&gt;\\SilverStripe\\Dev\\BuildTask</title>
<path fill="none" stroke="#000000" d="M607.2454,-2190.054C593.7484,-2185.9081 581.0018,-2179.0857 572.2549,-2168.0369 429.5632,-1987.7941 664.6089,-268.5653 508.2549,-100.0369 466.1242,-54.6257 394.3606,-50.7164 337.8177,-56.5474"/>
<polygon fill="none" stroke="#000000" points="337.343,-53.0788 327.8073,-57.6962 338.1411,-60.0332 337.343,-53.0788"/>
</g>
<!-- \\Firesphere\\SolrSearch\\Tasks\\ClearDirtyClassesTask -->
<g id="node24" class="node">
<title>\\Firesphere\\SolrSearch\\Tasks\\ClearDirtyClassesTask</title>
<polygon fill="none" stroke="#000000" points="751.7549,-2159.0369 593.7549,-2159.0369 593.7549,-2123.0369 751.7549,-2123.0369 751.7549,-2159.0369"/>
<text text-anchor="middle" x="672.7549" y="-2138.2369" font-family="Courier,monospace" font-size="11.00" fill="#000000">ClearDirtyClassesTask</text>
</g>
<!-- \\Firesphere\\SolrSearch\\Tasks\\ClearDirtyClassesTask&#45;&gt;\\SilverStripe\\Dev\\BuildTask -->
<g id="edge17" class="edge">
<title>\\Firesphere\\SolrSearch\\Tasks\\ClearDirtyClassesTask&#45;&gt;\\SilverStripe\\Dev\\BuildTask</title>
<path fill="none" stroke="#000000" d="M593.6396,-2130.7177C585.4079,-2126.6747 577.977,-2121.2587 572.2549,-2114.0369 433.2128,-1938.5537 660.5982,-264.1058 508.2549,-100.0369 466.1054,-54.6432 394.3434,-50.7323 337.806,-56.5582"/>
<polygon fill="none" stroke="#000000" points="337.3327,-53.0895 327.7966,-57.706 338.1303,-60.0439 337.3327,-53.0895"/>
</g>
<!-- \\Firesphere\\SolrSearch\\Tasks\\SolrIndexTask -->
<g id="node25" class="node">
<title>\\Firesphere\\SolrSearch\\Tasks\\SolrIndexTask</title>
<polygon fill="none" stroke="#000000" points="724.7549,-2105.0369 620.7549,-2105.0369 620.7549,-2069.0369 724.7549,-2069.0369 724.7549,-2105.0369"/>
<text text-anchor="middle" x="672.7549" y="-2084.2369" font-family="Courier,monospace" font-size="11.00" fill="#000000">SolrIndexTask</text>
</g>
<!-- \\Firesphere\\SolrSearch\\Tasks\\SolrIndexTask&#45;&gt;\\SilverStripe\\Dev\\BuildTask -->
<g id="edge18" class="edge">
<title>\\Firesphere\\SolrSearch\\Tasks\\SolrIndexTask&#45;&gt;\\SilverStripe\\Dev\\BuildTask</title>
<path fill="none" stroke="#000000" d="M620.6232,-2085.3055C602.5251,-2081.9055 583.8739,-2074.6879 572.2549,-2060.0369 436.8623,-1889.3132 656.5875,-259.6463 508.2549,-100.0369 466.0855,-54.6617 394.3254,-50.749 337.7937,-56.5696"/>
<polygon fill="none" stroke="#000000" points="337.3219,-53.1007 327.7854,-57.7165 338.1188,-60.0552 337.3219,-53.1007"/>
</g>
<!-- \\Firesphere\\SolrSearch\\Tasks\\ClearErrorsTask -->
<g id="node26" class="node">
<title>\\Firesphere\\SolrSearch\\Tasks\\ClearErrorsTask</title>
<polygon fill="none" stroke="#000000" points="731.7549,-2051.0369 613.7549,-2051.0369 613.7549,-2015.0369 731.7549,-2015.0369 731.7549,-2051.0369"/>
<text text-anchor="middle" x="672.7549" y="-2030.2369" font-family="Courier,monospace" font-size="11.00" fill="#000000">ClearErrorsTask</text>
</g>
<!-- \\Firesphere\\SolrSearch\\Tasks\\ClearErrorsTask&#45;&gt;\\SilverStripe\\Dev\\BuildTask -->
<g id="edge19" class="edge">
<title>\\Firesphere\\SolrSearch\\Tasks\\ClearErrorsTask&#45;&gt;\\SilverStripe\\Dev\\BuildTask</title>
<path fill="none" stroke="#000000" d="M613.6758,-2027.9921C597.8304,-2023.6552 582.3214,-2016.0837 572.2549,-2003.0369 443.016,-1835.5358 652.3541,-254.9393 508.2549,-100.0369 466.0634,-54.6823 394.3052,-50.7678 337.78,-56.5824"/>
<polygon fill="none" stroke="#000000" points="337.3098,-53.1133 327.7728,-57.7281 338.1061,-60.0679 337.3098,-53.1133"/>
</g>
<!-- \\Firesphere\\SolrSearch\\Stores\\FileConfigStore -->
<g id="node27" class="node">
<title>\\Firesphere\\SolrSearch\\Stores\\FileConfigStore</title>
<polygon fill="none" stroke="#000000" points="731.7549,-2427.0369 613.7549,-2427.0369 613.7549,-2391.0369 731.7549,-2391.0369 731.7549,-2427.0369"/>
<text text-anchor="middle" x="672.7549" y="-2406.2369" font-family="Courier,monospace" font-size="11.00" fill="#000000">FileConfigStore</text>
</g>
<!-- \\Firesphere\\SolrSearch\\Stores\\FileConfigStore&#45;&gt;\\Firesphere\\SolrSearch\\Interfaces\\ConfigStore -->
<g id="edge20" class="edge">
<title>\\Firesphere\\SolrSearch\\Stores\\FileConfigStore&#45;&gt;\\Firesphere\\SolrSearch\\Interfaces\\ConfigStore</title>
<path fill="none" stroke="#000000" stroke-dasharray="1,5" d="M613.6637,-2405.2257C532.8854,-2400.0158 389.0185,-2390.7369 309.9722,-2385.6387"/>
<polygon fill="none" stroke="#000000" points="309.9333,-2382.129 299.7287,-2384.978 309.4827,-2389.1145 309.9333,-2382.129"/>
</g>
<!-- \\Firesphere\\SolrSearch\\Stores\\PostConfigStore -->
<g id="node28" class="node">
<title>\\Firesphere\\SolrSearch\\Stores\\PostConfigStore</title>
<polygon fill="none" stroke="#000000" points="731.7549,-2373.0369 613.7549,-2373.0369 613.7549,-2337.0369 731.7549,-2337.0369 731.7549,-2373.0369"/>
<text text-anchor="middle" x="672.7549" y="-2352.2369" font-family="Courier,monospace" font-size="11.00" fill="#000000">PostConfigStore</text>
</g>
<!-- \\Firesphere\\SolrSearch\\Stores\\PostConfigStore&#45;&gt;\\Firesphere\\SolrSearch\\Interfaces\\ConfigStore -->
<g id="edge21" class="edge">
<title>\\Firesphere\\SolrSearch\\Stores\\PostConfigStore&#45;&gt;\\Firesphere\\SolrSearch\\Interfaces\\ConfigStore</title>
<path fill="none" stroke="#000000" stroke-dasharray="1,5" d="M613.6637,-2358.8481C532.8854,-2364.058 389.0185,-2373.3369 309.9722,-2378.4351"/>
<polygon fill="none" stroke="#000000" points="309.4827,-2374.9593 299.7287,-2379.0958 309.9333,-2381.9448 309.4827,-2374.9593"/>
</g>
<!-- \\Firesphere\\SolrSearch\\Traits\\CoreServiceTrait -->
<g id="node29" class="node">
<title>\\Firesphere\\SolrSearch\\Traits\\CoreServiceTrait</title>
<polygon fill="none" stroke="#000000" points="735.2549,-1971.0369 610.2549,-1971.0369 610.2549,-1935.0369 735.2549,-1935.0369 735.2549,-1971.0369"/>
<text text-anchor="middle" x="672.7549" y="-1950.2369" font-family="Courier,monospace" font-size="11.00" fill="#000000">CoreServiceTrait</text>
</g>
<!-- \\Firesphere\\SolrSearch\\Traits\\CoreAdminTrait -->
<g id="node30" class="node">
<title>\\Firesphere\\SolrSearch\\Traits\\CoreAdminTrait</title>
<polygon fill="none" stroke="#000000" points="728.2549,-1917.0369 617.2549,-1917.0369 617.2549,-1881.0369 728.2549,-1881.0369 728.2549,-1917.0369"/>
<text text-anchor="middle" x="672.7549" y="-1896.2369" font-family="Courier,monospace" font-size="11.00" fill="#000000">CoreAdminTrait</text>
</g>
<!-- \\Firesphere\\SolrSearch\\Traits\\SolrIndexTrait -->
<g id="node31" class="node">
<title>\\Firesphere\\SolrSearch\\Traits\\SolrIndexTrait</title>
<polygon fill="none" stroke="#000000" points="728.2549,-1863.0369 617.2549,-1863.0369 617.2549,-1827.0369 728.2549,-1827.0369 728.2549,-1863.0369"/>
<text text-anchor="middle" x="672.7549" y="-1842.2369" font-family="Courier,monospace" font-size="11.00" fill="#000000">SolrIndexTrait</text>
</g>
<!-- \\Firesphere\\SolrSearch\\Traits\\BaseIndexTrait -->
<g id="node32" class="node">
<title>\\Firesphere\\SolrSearch\\Traits\\BaseIndexTrait</title>
<polygon fill="none" stroke="#000000" points="728.2549,-1809.0369 617.2549,-1809.0369 617.2549,-1773.0369 728.2549,-1773.0369 728.2549,-1809.0369"/>
<text text-anchor="middle" x="672.7549" y="-1788.2369" font-family="Courier,monospace" font-size="11.00" fill="#000000">BaseIndexTrait</text>
</g>
<!-- \\Firesphere\\SolrSearch\\Traits\\DocumentFactoryTrait -->
<g id="node33" class="node">
<title>\\Firesphere\\SolrSearch\\Traits\\DocumentFactoryTrait</title>
<polygon fill="none" stroke="#000000" points="748.7549,-1755.0369 596.7549,-1755.0369 596.7549,-1719.0369 748.7549,-1719.0369 748.7549,-1755.0369"/>
<text text-anchor="middle" x="672.7549" y="-1734.2369" font-family="Courier,monospace" font-size="11.00" fill="#000000">DocumentFactoryTrait</text>
</g>
<!-- \\Firesphere\\SolrSearch\\Traits\\LoggerTrait -->
<g id="node34" class="node">
<title>\\Firesphere\\SolrSearch\\Traits\\LoggerTrait</title>
<polygon fill="none" stroke="#000000" points="718.2549,-1701.0369 627.2549,-1701.0369 627.2549,-1665.0369 718.2549,-1665.0369 718.2549,-1701.0369"/>
<text text-anchor="middle" x="672.7549" y="-1680.2369" font-family="Courier,monospace" font-size="11.00" fill="#000000">LoggerTrait</text>
</g>
<!-- \\Firesphere\\SolrSearch\\Traits\\QueryComponentFacetTrait -->
<g id="node35" class="node">
<title>\\Firesphere\\SolrSearch\\Traits\\QueryComponentFacetTrait</title>
<polygon fill="none" stroke="#000000" points="762.2549,-1647.0369 583.2549,-1647.0369 583.2549,-1611.0369 762.2549,-1611.0369 762.2549,-1647.0369"/>
<text text-anchor="middle" x="672.7549" y="-1626.2369" font-family="Courier,monospace" font-size="11.00" fill="#000000">QueryComponentFacetTrait</text>
</g>
<!-- \\Firesphere\\SolrSearch\\Traits\\QueryComponentBoostTrait -->
<g id="node36" class="node">
<title>\\Firesphere\\SolrSearch\\Traits\\QueryComponentBoostTrait</title>
<polygon fill="none" stroke="#000000" points="762.2549,-1593.0369 583.2549,-1593.0369 583.2549,-1557.0369 762.2549,-1557.0369 762.2549,-1593.0369"/>
<text text-anchor="middle" x="672.7549" y="-1572.2369" font-family="Courier,monospace" font-size="11.00" fill="#000000">QueryComponentBoostTrait</text>
</g>
<!-- \\Firesphere\\SolrSearch\\Traits\\QueryComponentFilterTrait -->
<g id="node37" class="node">
<title>\\Firesphere\\SolrSearch\\Traits\\QueryComponentFilterTrait</title>
<polygon fill="none" stroke="#000000" points="765.2549,-1539.0369 580.2549,-1539.0369 580.2549,-1503.0369 765.2549,-1503.0369 765.2549,-1539.0369"/>
<text text-anchor="middle" x="672.7549" y="-1518.2369" font-family="Courier,monospace" font-size="11.00" fill="#000000">QueryComponentFilterTrait</text>
</g>
<!-- \\Firesphere\\SolrSearch\\Traits\\GetSetSearchResolverTrait -->
<g id="node38" class="node">
<title>\\Firesphere\\SolrSearch\\Traits\\GetSetSearchResolverTrait</title>
<polygon fill="none" stroke="#000000" points="765.2549,-1485.0369 580.2549,-1485.0369 580.2549,-1449.0369 765.2549,-1449.0369 765.2549,-1485.0369"/>
<text text-anchor="middle" x="672.7549" y="-1464.2369" font-family="Courier,monospace" font-size="11.00" fill="#000000">GetSetSearchResolverTrait</text>
</g>
<!-- \\Firesphere\\SolrSearch\\Traits\\GetSetSchemaServiceTrait -->
<g id="node39" class="node">
<title>\\Firesphere\\SolrSearch\\Traits\\GetSetSchemaServiceTrait</title>
<polygon fill="none" stroke="#000000" points="762.2549,-1431.0369 583.2549,-1431.0369 583.2549,-1395.0369 762.2549,-1395.0369 762.2549,-1431.0369"/>
<text text-anchor="middle" x="672.7549" y="-1410.2369" font-family="Courier,monospace" font-size="11.00" fill="#000000">GetSetSchemaServiceTrait</text>
</g>
<!-- \\Firesphere\\SolrSearch\\Traits\\GetterSetterTrait -->
<g id="node40" class="node">
<title>\\Firesphere\\SolrSearch\\Traits\\GetterSetterTrait</title>
<polygon fill="none" stroke="#000000" points="738.2549,-1377.0369 607.2549,-1377.0369 607.2549,-1341.0369 738.2549,-1341.0369 738.2549,-1377.0369"/>
<text text-anchor="middle" x="672.7549" y="-1356.2369" font-family="Courier,monospace" font-size="11.00" fill="#000000">GetterSetterTrait</text>
</g>
<!-- \\Firesphere\\SolrSearch\\Traits\\BaseQueryTrait -->
<g id="node41" class="node">
<title>\\Firesphere\\SolrSearch\\Traits\\BaseQueryTrait</title>
<polygon fill="none" stroke="#000000" points="728.2549,-1323.0369 617.2549,-1323.0369 617.2549,-1287.0369 728.2549,-1287.0369 728.2549,-1323.0369"/>
<text text-anchor="middle" x="672.7549" y="-1302.2369" font-family="Courier,monospace" font-size="11.00" fill="#000000">BaseQueryTrait</text>
</g>
<!-- \\Firesphere\\SolrSearch\\Traits\\SearchResultSetTrait -->
<g id="node42" class="node">
<title>\\Firesphere\\SolrSearch\\Traits\\SearchResultSetTrait</title>
<polygon fill="none" stroke="#000000" points="748.7549,-1269.0369 596.7549,-1269.0369 596.7549,-1233.0369 748.7549,-1233.0369 748.7549,-1269.0369"/>
<text text-anchor="middle" x="672.7549" y="-1248.2369" font-family="Courier,monospace" font-size="11.00" fill="#000000">SearchResultSetTrait</text>
</g>
<!-- \\Firesphere\\SolrSearch\\Traits\\SearchResultGetTrait -->
<g id="node43" class="node">
<title>\\Firesphere\\SolrSearch\\Traits\\SearchResultGetTrait</title>
<polygon fill="none" stroke="#000000" points="748.7549,-1215.0369 596.7549,-1215.0369 596.7549,-1179.0369 748.7549,-1179.0369 748.7549,-1215.0369"/>
<text text-anchor="middle" x="672.7549" y="-1194.2369" font-family="Courier,monospace" font-size="11.00" fill="#000000">SearchResultGetTrait</text>
</g>
<!-- \\Firesphere\\SolrSearch\\Traits\\DataResolveTrait -->
<g id="node44" class="node">
<title>\\Firesphere\\SolrSearch\\Traits\\DataResolveTrait</title>
<polygon fill="none" stroke="#000000" points="735.2549,-1161.0369 610.2549,-1161.0369 610.2549,-1125.0369 735.2549,-1125.0369 735.2549,-1161.0369"/>
<text text-anchor="middle" x="672.7549" y="-1140.2369" font-family="Courier,monospace" font-size="11.00" fill="#000000">DataResolveTrait</text>
</g>
<!-- \\Firesphere\\SolrSearch\\States\\SiteState -->
<g id="node46" class="node">
<title>\\Firesphere\\SolrSearch\\States\\SiteState</title>
<polygon fill="none" stroke="#000000" points="714.7549,-1001.0369 630.7549,-1001.0369 630.7549,-965.0369 714.7549,-965.0369 714.7549,-1001.0369"/>
<text text-anchor="start" x="638.7549" y="-986.2369" font-family="Courier,monospace" font-size="11.00" fill="#000000">«abstract»</text>
<text text-anchor="start" x="642.2549" y="-974.2369" font-family="Courier,monospace" font-size="11.00" fill="#000000">SiteState</text>
</g>
<!-- \\Firesphere\\SolrSearch\\Helpers\\SolrLogger -->
<g id="node47" class="node">
<title>\\Firesphere\\SolrSearch\\Helpers\\SolrLogger</title>
<polygon fill="none" stroke="#000000" points="714.7549,-921.0369 630.7549,-921.0369 630.7549,-885.0369 714.7549,-885.0369 714.7549,-921.0369"/>
<text text-anchor="middle" x="672.7549" y="-900.2369" font-family="Courier,monospace" font-size="11.00" fill="#000000">SolrLogger</text>
</g>
<!-- \\Firesphere\\SolrSearch\\Helpers\\Synonyms -->
<g id="node48" class="node">
<title>\\Firesphere\\SolrSearch\\Helpers\\Synonyms</title>
<polygon fill="none" stroke="#000000" points="708.2549,-867.0369 637.2549,-867.0369 637.2549,-831.0369 708.2549,-831.0369 708.2549,-867.0369"/>
<text text-anchor="middle" x="672.7549" y="-846.2369" font-family="Courier,monospace" font-size="11.00" fill="#000000">Synonyms</text>
</g>
<!-- \\Firesphere\\SolrSearch\\Helpers\\FieldResolver -->
<g id="node49" class="node">
<title>\\Firesphere\\SolrSearch\\Helpers\\FieldResolver</title>
<polygon fill="none" stroke="#000000" points="724.7549,-813.0369 620.7549,-813.0369 620.7549,-777.0369 724.7549,-777.0369 724.7549,-813.0369"/>
<text text-anchor="middle" x="672.7549" y="-792.2369" font-family="Courier,monospace" font-size="11.00" fill="#000000">FieldResolver</text>
</g>
<!-- \\Firesphere\\SolrSearch\\Helpers\\DataResolver -->
<g id="node50" class="node">
<title>\\Firesphere\\SolrSearch\\Helpers\\DataResolver</title>
<polygon fill="none" stroke="#000000" points="721.7549,-759.0369 623.7549,-759.0369 623.7549,-723.0369 721.7549,-723.0369 721.7549,-759.0369"/>
<text text-anchor="middle" x="672.7549" y="-738.2369" font-family="Courier,monospace" font-size="11.00" fill="#000000">DataResolver</text>
</g>
<!-- \\Firesphere\\SolrSearch\\Helpers\\Statics -->
<g id="node51" class="node">
<title>\\Firesphere\\SolrSearch\\Helpers\\Statics</title>
<polygon fill="none" stroke="#000000" points="704.7549,-705.0369 640.7549,-705.0369 640.7549,-669.0369 704.7549,-669.0369 704.7549,-705.0369"/>
<text text-anchor="middle" x="672.7549" y="-684.2369" font-family="Courier,monospace" font-size="11.00" fill="#000000">Statics</text>
</g>
<!-- \\Firesphere\\SolrSearch\\Fluent\\FluentExtension -->
<g id="node52" class="node">
<title>\\Firesphere\\SolrSearch\\Fluent\\FluentExtension</title>
<polygon fill="none" stroke="#000000" points="731.7549,-625.0369 613.7549,-625.0369 613.7549,-589.0369 731.7549,-589.0369 731.7549,-625.0369"/>
<text text-anchor="middle" x="672.7549" y="-604.2369" font-family="Courier,monospace" font-size="11.00" fill="#000000">FluentExtension</text>
</g>
<!-- \\Firesphere\\SolrSearch\\Fluent\\FluentExtension&#45;&gt;\\SilverStripe\\Core\\Extension -->
<g id="edge22" class="edge">
<title>\\Firesphere\\SolrSearch\\Fluent\\FluentExtension&#45;&gt;\\SilverStripe\\Core\\Extension</title>
<path fill="none" stroke="#000000" d="M613.5416,-598.6146C598.7099,-594.1692 583.764,-587.3854 572.2549,-577.0369 517.4442,-527.7533 567.3668,-468.0695 508.2549,-424.0369 469.3881,-395.0849 417.4206,-385.9245 370.6092,-384.937"/>
<polygon fill="none" stroke="#000000" points="370.4258,-381.4353 360.3953,-384.847 370.364,-388.435 370.4258,-381.4353"/>
</g>
<!-- \\Firesphere\\SolrSearch\\Subsites\\SubsitesExtension -->
<g id="node53" class="node">
<title>\\Firesphere\\SolrSearch\\Subsites\\SubsitesExtension</title>
<polygon fill="none" stroke="#000000" points="738.2549,-545.0369 607.2549,-545.0369 607.2549,-509.0369 738.2549,-509.0369 738.2549,-545.0369"/>
<text text-anchor="middle" x="672.7549" y="-524.2369" font-family="Courier,monospace" font-size="11.00" fill="#000000">SubsitesExtension</text>
</g>
<!-- \\Firesphere\\SolrSearch\\Subsites\\SubsitesExtension&#45;&gt;\\SilverStripe\\ORM\\DataExtension -->
<g id="edge23" class="edge">
<title>\\Firesphere\\SolrSearch\\Subsites\\SubsitesExtension&#45;&gt;\\SilverStripe\\ORM\\DataExtension</title>
<path fill="none" stroke="#000000" d="M669.255,-508.9919C653.3631,-428.9984 585.4274,-107.6255 508.2549,-46.0369 471.5859,-16.7727 421.8522,-7.0772 376.1027,-5.7775"/>
<polygon fill="none" stroke="#000000" points="376.1562,-2.278 366.1032,-5.6226 376.0477,-9.2772 376.1562,-2.278"/>
</g>
</g>
</svg>
