<?xml version="1.0" encoding="UTF-8" standalone="no"?>
<!DOCTYPE svg PUBLIC "-//W3C//DTD SVG 1.1//EN"
 "http://www.w3.org/Graphics/SVG/1.1/DTD/svg11.dtd">
<!-- Generated by graphviz version 2.40.1 (20161225.0304)
 -->
<!-- Title: G Pages: 1 -->
<svg width="1064pt" height="3721pt"
 viewBox="0.00 0.00 1064.25 3720.92" xmlns="http://www.w3.org/2000/svg" xmlns:xlink="http://www.w3.org/1999/xlink">
<g id="graph0" class="graph" transform="scale(1 1) rotate(0) translate(4 3716.9186)">
<title>G</title>
<polygon fill="#ffffff" stroke="transparent" points="-4,4 -4,-3716.9186 1060.2549,-3716.9186 1060.2549,4 -4,4"/>
<g id="clust1" class="cluster">
<title>cluster_Global</title>
<path fill="none" stroke="#c0c0c0" d="M165.1275,-152.703C165.1275,-152.703 1036.2549,-152.703 1036.2549,-152.703 1042.2549,-152.703 1048.2549,-158.703 1048.2549,-164.703 1048.2549,-164.703 1048.2549,-3386.703 1048.2549,-3386.703 1048.2549,-3392.703 1042.2549,-3398.703 1036.2549,-3398.703 1036.2549,-3398.703 165.1275,-3398.703 165.1275,-3398.703 159.1275,-3398.703 153.1275,-3392.703 153.1275,-3386.703 153.1275,-3386.703 153.1275,-164.703 153.1275,-164.703 153.1275,-158.703 159.1275,-152.703 165.1275,-152.703"/>
<text text-anchor="middle" x="600.6912" y="-3385.903" font-family="Times,serif" font-size="11.00" fill="#c0c0c0">Global</text>
</g>
<g id="clust2" class="cluster">
<title>cluster_\Firesphere</title>
<path fill="none" stroke="#c0c0c0" d="M173.1275,-160.703C173.1275,-160.703 1028.2549,-160.703 1028.2549,-160.703 1034.2549,-160.703 1040.2549,-166.703 1040.2549,-172.703 1040.2549,-172.703 1040.2549,-3036.703 1040.2549,-3036.703 1040.2549,-3042.703 1034.2549,-3048.703 1028.2549,-3048.703 1028.2549,-3048.703 173.1275,-3048.703 173.1275,-3048.703 167.1275,-3048.703 161.1275,-3042.703 161.1275,-3036.703 161.1275,-3036.703 161.1275,-172.703 161.1275,-172.703 161.1275,-166.703 167.1275,-160.703 173.1275,-160.703"/>
<text text-anchor="middle" x="600.6912" y="-3035.903" font-family="Times,serif" font-size="11.00" fill="#c0c0c0">Firesphere</text>
</g>
<g id="clust3" class="cluster">
<title>cluster_\Firesphere\SolrCompatibility</title>
<path fill="none" stroke="#c0c0c0" d="M833.2549,-168.703C833.2549,-168.703 1020.2549,-168.703 1020.2549,-168.703 1026.2549,-168.703 1032.2549,-174.703 1032.2549,-180.703 1032.2549,-180.703 1032.2549,-372.703 1032.2549,-372.703 1032.2549,-378.703 1026.2549,-384.703 1020.2549,-384.703 1020.2549,-384.703 833.2549,-384.703 833.2549,-384.703 827.2549,-384.703 821.2549,-378.703 821.2549,-372.703 821.2549,-372.703 821.2549,-180.703 821.2549,-180.703 821.2549,-174.703 827.2549,-168.703 833.2549,-168.703"/>
<text text-anchor="middle" x="926.7549" y="-371.903" font-family="Times,serif" font-size="11.00" fill="#c0c0c0">SolrCompatibility</text>
</g>
<g id="clust4" class="cluster">
<title>cluster_\Firesphere\SolrCompatibility\Extensions</title>
<path fill="none" stroke="#c0c0c0" d="M841.2549,-176.703C841.2549,-176.703 1012.2549,-176.703 1012.2549,-176.703 1018.2549,-176.703 1024.2549,-182.703 1024.2549,-188.703 1024.2549,-188.703 1024.2549,-344.703 1024.2549,-344.703 1024.2549,-350.703 1018.2549,-356.703 1012.2549,-356.703 1012.2549,-356.703 841.2549,-356.703 841.2549,-356.703 835.2549,-356.703 829.2549,-350.703 829.2549,-344.703 829.2549,-344.703 829.2549,-188.703 829.2549,-188.703 829.2549,-182.703 835.2549,-176.703 841.2549,-176.703"/>
<text text-anchor="middle" x="926.7549" y="-343.903" font-family="Times,serif" font-size="11.00" fill="#c0c0c0">Extensions</text>
</g>
<g id="clust5" class="cluster">
<title>cluster_\Firesphere\SolrSearch</title>
<path fill="none" stroke="#c0c0c0" d="M181.1275,-172.703C181.1275,-172.703 769.2549,-172.703 769.2549,-172.703 775.2549,-172.703 781.2549,-178.703 781.2549,-184.703 781.2549,-184.703 781.2549,-3008.703 781.2549,-3008.703 781.2549,-3014.703 775.2549,-3020.703 769.2549,-3020.703 769.2549,-3020.703 181.1275,-3020.703 181.1275,-3020.703 175.1275,-3020.703 169.1275,-3014.703 169.1275,-3008.703 169.1275,-3008.703 169.1275,-184.703 169.1275,-184.703 169.1275,-178.703 175.1275,-172.703 181.1275,-172.703"/>
<text text-anchor="middle" x="475.1912" y="-3007.903" font-family="Times,serif" font-size="11.00" fill="#c0c0c0">SolrSearch</text>
</g>
<g id="clust6" class="cluster">
<title>cluster_\Firesphere\SolrSearch\Forms</title>
<path fill="none" stroke="#c0c0c0" d="M634.7549,-2652.703C634.7549,-2652.703 710.7549,-2652.703 710.7549,-2652.703 716.7549,-2652.703 722.7549,-2658.703 722.7549,-2664.703 722.7549,-2664.703 722.7549,-2712.703 722.7549,-2712.703 722.7549,-2718.703 716.7549,-2724.703 710.7549,-2724.703 710.7549,-2724.703 634.7549,-2724.703 634.7549,-2724.703 628.7549,-2724.703 622.7549,-2718.703 622.7549,-2712.703 622.7549,-2712.703 622.7549,-2664.703 622.7549,-2664.703 622.7549,-2658.703 628.7549,-2652.703 634.7549,-2652.703"/>
<text text-anchor="middle" x="672.7549" y="-2711.903" font-family="Times,serif" font-size="11.00" fill="#c0c0c0">Forms</text>
</g>
<g id="clust7" class="cluster">
<title>cluster_\Firesphere\SolrSearch\Results</title>
<path fill="none" stroke="#c0c0c0" d="M627.7549,-2920.703C627.7549,-2920.703 717.7549,-2920.703 717.7549,-2920.703 723.7549,-2920.703 729.7549,-2926.703 729.7549,-2932.703 729.7549,-2932.703 729.7549,-2980.703 729.7549,-2980.703 729.7549,-2986.703 723.7549,-2992.703 717.7549,-2992.703 717.7549,-2992.703 627.7549,-2992.703 627.7549,-2992.703 621.7549,-2992.703 615.7549,-2986.703 615.7549,-2980.703 615.7549,-2980.703 615.7549,-2932.703 615.7549,-2932.703 615.7549,-2926.703 621.7549,-2920.703 627.7549,-2920.703"/>
<text text-anchor="middle" x="672.7549" y="-2979.903" font-family="Times,serif" font-size="11.00" fill="#c0c0c0">Results</text>
</g>
<g id="clust8" class="cluster">
<title>cluster_\Firesphere\SolrSearch\Models</title>
<path fill="none" stroke="#c0c0c0" d="M624.7549,-2732.703C624.7549,-2732.703 720.7549,-2732.703 720.7549,-2732.703 726.7549,-2732.703 732.7549,-2738.703 732.7549,-2744.703 732.7549,-2744.703 732.7549,-2900.703 732.7549,-2900.703 732.7549,-2906.703 726.7549,-2912.703 720.7549,-2912.703 720.7549,-2912.703 624.7549,-2912.703 624.7549,-2912.703 618.7549,-2912.703 612.7549,-2906.703 612.7549,-2900.703 612.7549,-2900.703 612.7549,-2744.703 612.7549,-2744.703 612.7549,-2738.703 618.7549,-2732.703 624.7549,-2732.703"/>
<text text-anchor="middle" x="672.7549" y="-2899.903" font-family="Times,serif" font-size="11.00" fill="#c0c0c0">Models</text>
</g>
<g id="clust9" class="cluster">
<title>cluster_\Firesphere\SolrSearch\Services</title>
<path fill="none" stroke="#c0c0c0" d="M617.7549,-2572.703C617.7549,-2572.703 727.7549,-2572.703 727.7549,-2572.703 733.7549,-2572.703 739.7549,-2578.703 739.7549,-2584.703 739.7549,-2584.703 739.7549,-2632.703 739.7549,-2632.703 739.7549,-2638.703 733.7549,-2644.703 727.7549,-2644.703 727.7549,-2644.703 617.7549,-2644.703 617.7549,-2644.703 611.7549,-2644.703 605.7549,-2638.703 605.7549,-2632.703 605.7549,-2632.703 605.7549,-2584.703 605.7549,-2584.703 605.7549,-2578.703 611.7549,-2572.703 617.7549,-2572.703"/>
<text text-anchor="middle" x="672.7549" y="-2631.903" font-family="Times,serif" font-size="11.00" fill="#c0c0c0">Services</text>
</g>
<g id="clust10" class="cluster">
<title>cluster_\Firesphere\SolrSearch\Admins</title>
<path fill="none" stroke="#c0c0c0" d="M631.2549,-2492.703C631.2549,-2492.703 714.2549,-2492.703 714.2549,-2492.703 720.2549,-2492.703 726.2549,-2498.703 726.2549,-2504.703 726.2549,-2504.703 726.2549,-2552.703 726.2549,-2552.703 726.2549,-2558.703 720.2549,-2564.703 714.2549,-2564.703 714.2549,-2564.703 631.2549,-2564.703 631.2549,-2564.703 625.2549,-2564.703 619.2549,-2558.703 619.2549,-2552.703 619.2549,-2552.703 619.2549,-2504.703 619.2549,-2504.703 619.2549,-2498.703 625.2549,-2492.703 631.2549,-2492.703"/>
<text text-anchor="middle" x="672.7549" y="-2551.903" font-family="Times,serif" font-size="11.00" fill="#c0c0c0">Admins</text>
</g>
<g id="clust11" class="cluster">
<title>cluster_\Firesphere\SolrSearch\Queries</title>
<path fill="none" stroke="#c0c0c0" d="M638.2549,-2412.703C638.2549,-2412.703 707.2549,-2412.703 707.2549,-2412.703 713.2549,-2412.703 719.2549,-2418.703 719.2549,-2424.703 719.2549,-2424.703 719.2549,-2472.703 719.2549,-2472.703 719.2549,-2478.703 713.2549,-2484.703 707.2549,-2484.703 707.2549,-2484.703 638.2549,-2484.703 638.2549,-2484.703 632.2549,-2484.703 626.2549,-2478.703 626.2549,-2472.703 626.2549,-2472.703 626.2549,-2424.703 626.2549,-2424.703 626.2549,-2418.703 632.2549,-2412.703 638.2549,-2412.703"/>
<text text-anchor="middle" x="672.7549" y="-2471.903" font-family="Times,serif" font-size="11.00" fill="#c0c0c0">Queries</text>
</g>
<g id="clust12" class="cluster">
<title>cluster_\Firesphere\SolrSearch\Stores</title>
<path fill="none" stroke="#c0c0c0" d="M617.7549,-1848.703C617.7549,-1848.703 727.7549,-1848.703 727.7549,-1848.703 733.7549,-1848.703 739.7549,-1854.703 739.7549,-1860.703 739.7549,-1860.703 739.7549,-1962.703 739.7549,-1962.703 739.7549,-1968.703 733.7549,-1974.703 727.7549,-1974.703 727.7549,-1974.703 617.7549,-1974.703 617.7549,-1974.703 611.7549,-1974.703 605.7549,-1968.703 605.7549,-1962.703 605.7549,-1962.703 605.7549,-1860.703 605.7549,-1860.703 605.7549,-1854.703 611.7549,-1848.703 617.7549,-1848.703"/>
<text text-anchor="middle" x="672.7549" y="-1961.903" font-family="Times,serif" font-size="11.00" fill="#c0c0c0">Stores</text>
</g>
<g id="clust13" class="cluster">
<title>cluster_\Firesphere\SolrSearch\Extensions</title>
<path fill="none" stroke="#c0c0c0" d="M604.2549,-1714.703C604.2549,-1714.703 741.2549,-1714.703 741.2549,-1714.703 747.2549,-1714.703 753.2549,-1720.703 753.2549,-1726.703 753.2549,-1726.703 753.2549,-1828.703 753.2549,-1828.703 753.2549,-1834.703 747.2549,-1840.703 741.2549,-1840.703 741.2549,-1840.703 604.2549,-1840.703 604.2549,-1840.703 598.2549,-1840.703 592.2549,-1834.703 592.2549,-1828.703 592.2549,-1828.703 592.2549,-1726.703 592.2549,-1726.703 592.2549,-1720.703 598.2549,-1714.703 604.2549,-1714.703"/>
<text text-anchor="middle" x="672.7549" y="-1827.903" font-family="Times,serif" font-size="11.00" fill="#c0c0c0">Extensions</text>
</g>
<g id="clust14" class="cluster">
<title>cluster_\Firesphere\SolrSearch\Tasks</title>
<path fill="none" stroke="#c0c0c0" d="M597.7549,-1982.703C597.7549,-1982.703 747.7549,-1982.703 747.7549,-1982.703 753.7549,-1982.703 759.7549,-1988.703 759.7549,-1994.703 759.7549,-1994.703 759.7549,-2204.703 759.7549,-2204.703 759.7549,-2210.703 753.7549,-2216.703 747.7549,-2216.703 747.7549,-2216.703 597.7549,-2216.703 597.7549,-2216.703 591.7549,-2216.703 585.7549,-2210.703 585.7549,-2204.703 585.7549,-2204.703 585.7549,-1994.703 585.7549,-1994.703 585.7549,-1988.703 591.7549,-1982.703 597.7549,-1982.703"/>
<text text-anchor="middle" x="672.7549" y="-2203.903" font-family="Times,serif" font-size="11.00" fill="#c0c0c0">Tasks</text>
</g>
<g id="clust15" class="cluster">
<title>cluster_\Firesphere\SolrSearch\Factories</title>
<path fill="none" stroke="#c0c0c0" d="M597.7549,-2224.703C597.7549,-2224.703 747.7549,-2224.703 747.7549,-2224.703 753.7549,-2224.703 759.7549,-2230.703 759.7549,-2236.703 759.7549,-2236.703 759.7549,-2392.703 759.7549,-2392.703 759.7549,-2398.703 753.7549,-2404.703 747.7549,-2404.703 747.7549,-2404.703 597.7549,-2404.703 597.7549,-2404.703 591.7549,-2404.703 585.7549,-2398.703 585.7549,-2392.703 585.7549,-2392.703 585.7549,-2236.703 585.7549,-2236.703 585.7549,-2230.703 591.7549,-2224.703 597.7549,-2224.703"/>
<text text-anchor="middle" x="672.7549" y="-2391.903" font-family="Times,serif" font-size="11.00" fill="#c0c0c0">Factories</text>
</g>
<g id="clust16" class="cluster">
<title>cluster_\Firesphere\SolrSearch\States</title>
<path fill="none" stroke="#c0c0c0" d="M634.7549,-1634.703C634.7549,-1634.703 710.7549,-1634.703 710.7549,-1634.703 716.7549,-1634.703 722.7549,-1640.703 722.7549,-1646.703 722.7549,-1646.703 722.7549,-1694.703 722.7549,-1694.703 722.7549,-1700.703 716.7549,-1706.703 710.7549,-1706.703 710.7549,-1706.703 634.7549,-1706.703 634.7549,-1706.703 628.7549,-1706.703 622.7549,-1700.703 622.7549,-1694.703 622.7549,-1694.703 622.7549,-1646.703 622.7549,-1646.703 622.7549,-1640.703 628.7549,-1634.703 634.7549,-1634.703"/>
<text text-anchor="middle" x="672.7549" y="-1693.903" font-family="Times,serif" font-size="11.00" fill="#c0c0c0">States</text>
</g>
<g id="clust17" class="cluster">
<title>cluster_\Firesphere\SolrSearch\Interfaces</title>
<path fill="none" stroke="#c0c0c0" d="M189.1275,-1794.703C189.1275,-1794.703 319.1275,-1794.703 319.1275,-1794.703 325.1275,-1794.703 331.1275,-1800.703 331.1275,-1806.703 331.1275,-1806.703 331.1275,-1908.703 331.1275,-1908.703 331.1275,-1914.703 325.1275,-1920.703 319.1275,-1920.703 319.1275,-1920.703 189.1275,-1920.703 189.1275,-1920.703 183.1275,-1920.703 177.1275,-1914.703 177.1275,-1908.703 177.1275,-1908.703 177.1275,-1806.703 177.1275,-1806.703 177.1275,-1800.703 183.1275,-1794.703 189.1275,-1794.703"/>
<text text-anchor="middle" x="254.1275" y="-1907.903" font-family="Times,serif" font-size="11.00" fill="#c0c0c0">Interfaces</text>
</g>
<g id="clust18" class="cluster">
<title>cluster_\Firesphere\SolrSearch\Jobs</title>
<path fill="none" stroke="#c0c0c0" d="M600.7549,-1446.703C600.7549,-1446.703 744.7549,-1446.703 744.7549,-1446.703 750.7549,-1446.703 756.7549,-1452.703 756.7549,-1458.703 756.7549,-1458.703 756.7549,-1614.703 756.7549,-1614.703 756.7549,-1620.703 750.7549,-1626.703 744.7549,-1626.703 744.7549,-1626.703 600.7549,-1626.703 600.7549,-1626.703 594.7549,-1626.703 588.7549,-1620.703 588.7549,-1614.703 588.7549,-1614.703 588.7549,-1458.703 588.7549,-1458.703 588.7549,-1452.703 594.7549,-1446.703 600.7549,-1446.703"/>
<text text-anchor="middle" x="672.7549" y="-1613.903" font-family="Times,serif" font-size="11.00" fill="#c0c0c0">Jobs</text>
</g>
<g id="clust19" class="cluster">
<title>cluster_\Firesphere\SolrSearch\Traits</title>
<path fill="none" stroke="#c0c0c0" d="M584.2549,-556.703C584.2549,-556.703 761.2549,-556.703 761.2549,-556.703 767.2549,-556.703 773.2549,-562.703 773.2549,-568.703 773.2549,-568.703 773.2549,-1426.703 773.2549,-1426.703 773.2549,-1432.703 767.2549,-1438.703 761.2549,-1438.703 761.2549,-1438.703 584.2549,-1438.703 584.2549,-1438.703 578.2549,-1438.703 572.2549,-1432.703 572.2549,-1426.703 572.2549,-1426.703 572.2549,-568.703 572.2549,-568.703 572.2549,-562.703 578.2549,-556.703 584.2549,-556.703"/>
<text text-anchor="middle" x="672.7549" y="-1425.903" font-family="Times,serif" font-size="11.00" fill="#c0c0c0">Traits</text>
</g>
<g id="clust20" class="cluster">
<title>cluster_\Firesphere\SolrSearch\Helpers</title>
<path fill="none" stroke="#c0c0c0" d="M624.7549,-260.703C624.7549,-260.703 720.7549,-260.703 720.7549,-260.703 726.7549,-260.703 732.7549,-266.703 732.7549,-272.703 732.7549,-272.703 732.7549,-536.703 732.7549,-536.703 732.7549,-542.703 726.7549,-548.703 720.7549,-548.703 720.7549,-548.703 624.7549,-548.703 624.7549,-548.703 618.7549,-548.703 612.7549,-542.703 612.7549,-536.703 612.7549,-536.703 612.7549,-272.703 612.7549,-272.703 612.7549,-266.703 618.7549,-260.703 624.7549,-260.703"/>
<text text-anchor="middle" x="672.7549" y="-535.903" font-family="Times,serif" font-size="11.00" fill="#c0c0c0">Helpers</text>
</g>
<g id="clust21" class="cluster">
<title>cluster_\Firesphere\SolrSearch\Indexes</title>
<path fill="none" stroke="#c0c0c0" d="M634.7549,-180.703C634.7549,-180.703 710.7549,-180.703 710.7549,-180.703 716.7549,-180.703 722.7549,-186.703 722.7549,-192.703 722.7549,-192.703 722.7549,-240.703 722.7549,-240.703 722.7549,-246.703 716.7549,-252.703 710.7549,-252.703 710.7549,-252.703 634.7549,-252.703 634.7549,-252.703 628.7549,-252.703 622.7549,-246.703 622.7549,-240.703 622.7549,-240.703 622.7549,-192.703 622.7549,-192.703 622.7549,-186.703 628.7549,-180.703 634.7549,-180.703"/>
<text text-anchor="middle" x="672.7549" y="-239.903" font-family="Times,serif" font-size="11.00" fill="#c0c0c0">Indexes</text>
</g>
<g id="clust22" class="cluster">
<title>cluster_\Firesphere\SolrFluent</title>
<path fill="none" stroke="#c0c0c0" d="M836.7549,-670.703C836.7549,-670.703 1016.7549,-670.703 1016.7549,-670.703 1022.7549,-670.703 1028.7549,-676.703 1028.7549,-682.703 1028.7549,-682.703 1028.7549,-954.703 1028.7549,-954.703 1028.7549,-960.703 1022.7549,-966.703 1016.7549,-966.703 1016.7549,-966.703 836.7549,-966.703 836.7549,-966.703 830.7549,-966.703 824.7549,-960.703 824.7549,-954.703 824.7549,-954.703 824.7549,-682.703 824.7549,-682.703 824.7549,-676.703 830.7549,-670.703 836.7549,-670.703"/>
<text text-anchor="middle" x="926.7549" y="-953.903" font-family="Times,serif" font-size="11.00" fill="#c0c0c0">SolrFluent</text>
</g>
<g id="clust23" class="cluster">
<title>cluster_\Firesphere\SolrFluent\Extensions</title>
<path fill="none" stroke="#c0c0c0" d="M844.7549,-678.703C844.7549,-678.703 1008.7549,-678.703 1008.7549,-678.703 1014.7549,-678.703 1020.7549,-684.703 1020.7549,-690.703 1020.7549,-690.703 1020.7549,-846.703 1020.7549,-846.703 1020.7549,-852.703 1014.7549,-858.703 1008.7549,-858.703 1008.7549,-858.703 844.7549,-858.703 844.7549,-858.703 838.7549,-858.703 832.7549,-852.703 832.7549,-846.703 832.7549,-846.703 832.7549,-690.703 832.7549,-690.703 832.7549,-684.703 838.7549,-678.703 844.7549,-678.703"/>
<text text-anchor="middle" x="926.7549" y="-845.903" font-family="Times,serif" font-size="11.00" fill="#c0c0c0">Extensions</text>
</g>
<g id="clust24" class="cluster">
<title>cluster_\Firesphere\SolrFluent\States</title>
<path fill="none" stroke="#c0c0c0" d="M871.7549,-866.703C871.7549,-866.703 981.7549,-866.703 981.7549,-866.703 987.7549,-866.703 993.7549,-872.703 993.7549,-878.703 993.7549,-878.703 993.7549,-926.703 993.7549,-926.703 993.7549,-932.703 987.7549,-938.703 981.7549,-938.703 981.7549,-938.703 871.7549,-938.703 871.7549,-938.703 865.7549,-938.703 859.7549,-932.703 859.7549,-926.703 859.7549,-926.703 859.7549,-878.703 859.7549,-878.703 859.7549,-872.703 865.7549,-866.703 871.7549,-866.703"/>
<text text-anchor="middle" x="926.7549" y="-925.903" font-family="Times,serif" font-size="11.00" fill="#c0c0c0">States</text>
</g>
<g id="clust25" class="cluster">
<title>cluster_\Firesphere\SolrSubsites</title>
<path fill="none" stroke="#c0c0c0" d="M857.2549,-974.703C857.2549,-974.703 996.2549,-974.703 996.2549,-974.703 1002.2549,-974.703 1008.2549,-980.703 1008.2549,-986.703 1008.2549,-986.703 1008.2549,-1150.703 1008.2549,-1150.703 1008.2549,-1156.703 1002.2549,-1162.703 996.2549,-1162.703 996.2549,-1162.703 857.2549,-1162.703 857.2549,-1162.703 851.2549,-1162.703 845.2549,-1156.703 845.2549,-1150.703 845.2549,-1150.703 845.2549,-986.703 845.2549,-986.703 845.2549,-980.703 851.2549,-974.703 857.2549,-974.703"/>
<text text-anchor="middle" x="926.7549" y="-1149.903" font-family="Times,serif" font-size="11.00" fill="#c0c0c0">SolrSubsites</text>
</g>
<g id="clust26" class="cluster">
<title>cluster_\Firesphere\SolrSubsites\Extensions</title>
<path fill="none" stroke="#c0c0c0" d="M865.2549,-982.703C865.2549,-982.703 988.2549,-982.703 988.2549,-982.703 994.2549,-982.703 1000.2549,-988.703 1000.2549,-994.703 1000.2549,-994.703 1000.2549,-1042.703 1000.2549,-1042.703 1000.2549,-1048.703 994.2549,-1054.703 988.2549,-1054.703 988.2549,-1054.703 865.2549,-1054.703 865.2549,-1054.703 859.2549,-1054.703 853.2549,-1048.703 853.2549,-1042.703 853.2549,-1042.703 853.2549,-994.703 853.2549,-994.703 853.2549,-988.703 859.2549,-982.703 865.2549,-982.703"/>
<text text-anchor="middle" x="926.7549" y="-1041.903" font-family="Times,serif" font-size="11.00" fill="#c0c0c0">Extensions</text>
</g>
<g id="clust27" class="cluster">
<title>cluster_\Firesphere\SolrSubsites\States</title>
<path fill="none" stroke="#c0c0c0" d="M881.7549,-1062.703C881.7549,-1062.703 971.7549,-1062.703 971.7549,-1062.703 977.7549,-1062.703 983.7549,-1068.703 983.7549,-1074.703 983.7549,-1074.703 983.7549,-1122.703 983.7549,-1122.703 983.7549,-1128.703 977.7549,-1134.703 971.7549,-1134.703 971.7549,-1134.703 881.7549,-1134.703 881.7549,-1134.703 875.7549,-1134.703 869.7549,-1128.703 869.7549,-1122.703 869.7549,-1122.703 869.7549,-1074.703 869.7549,-1074.703 869.7549,-1068.703 875.7549,-1062.703 881.7549,-1062.703"/>
<text text-anchor="middle" x="926.7549" y="-1121.903" font-family="Times,serif" font-size="11.00" fill="#c0c0c0">States</text>
</g>
<g id="clust28" class="cluster">
<title>cluster_\Firesphere\SolrPermissions</title>
<path fill="none" stroke="#c0c0c0" d="M833.2549,-392.703C833.2549,-392.703 1020.2549,-392.703 1020.2549,-392.703 1026.2549,-392.703 1032.2549,-398.703 1032.2549,-404.703 1032.2549,-404.703 1032.2549,-650.703 1032.2549,-650.703 1032.2549,-656.703 1026.2549,-662.703 1020.2549,-662.703 1020.2549,-662.703 833.2549,-662.703 833.2549,-662.703 827.2549,-662.703 821.2549,-656.703 821.2549,-650.703 821.2549,-650.703 821.2549,-404.703 821.2549,-404.703 821.2549,-398.703 827.2549,-392.703 833.2549,-392.703"/>
<text text-anchor="middle" x="926.7549" y="-649.903" font-family="Times,serif" font-size="11.00" fill="#c0c0c0">SolrPermissions</text>
</g>
<g id="clust29" class="cluster">
<title>cluster_\Firesphere\SolrPermissions\Extensions</title>
<path fill="none" stroke="#c0c0c0" d="M841.2549,-400.703C841.2549,-400.703 1012.2549,-400.703 1012.2549,-400.703 1018.2549,-400.703 1024.2549,-406.703 1024.2549,-412.703 1024.2549,-412.703 1024.2549,-622.703 1024.2549,-622.703 1024.2549,-628.703 1018.2549,-634.703 1012.2549,-634.703 1012.2549,-634.703 841.2549,-634.703 841.2549,-634.703 835.2549,-634.703 829.2549,-628.703 829.2549,-622.703 829.2549,-622.703 829.2549,-412.703 829.2549,-412.703 829.2549,-406.703 835.2549,-400.703 841.2549,-400.703"/>
<text text-anchor="middle" x="926.7549" y="-621.903" font-family="Times,serif" font-size="11.00" fill="#c0c0c0">Extensions</text>
</g>
<g id="clust30" class="cluster">
<title>cluster_\SilverStripe</title>
<path fill="none" stroke="#c0c0c0" d="M861.2549,-3056.703C861.2549,-3056.703 992.2549,-3056.703 992.2549,-3056.703 998.2549,-3056.703 1004.2549,-3062.703 1004.2549,-3068.703 1004.2549,-3068.703 1004.2549,-3358.703 1004.2549,-3358.703 1004.2549,-3364.703 998.2549,-3370.703 992.2549,-3370.703 992.2549,-3370.703 861.2549,-3370.703 861.2549,-3370.703 855.2549,-3370.703 849.2549,-3364.703 849.2549,-3358.703 849.2549,-3358.703 849.2549,-3068.703 849.2549,-3068.703 849.2549,-3062.703 855.2549,-3056.703 861.2549,-3056.703"/>
<text text-anchor="middle" x="926.7549" y="-3357.903" font-family="Times,serif" font-size="11.00" fill="#c0c0c0">SilverStripe</text>
</g>
<g id="clust31" class="cluster">
<title>cluster_\SilverStripe\FullTextSearch</title>
<path fill="none" stroke="#c0c0c0" d="M869.2549,-3064.703C869.2549,-3064.703 984.2549,-3064.703 984.2549,-3064.703 990.2549,-3064.703 996.2549,-3070.703 996.2549,-3076.703 996.2549,-3076.703 996.2549,-3330.703 996.2549,-3330.703 996.2549,-3336.703 990.2549,-3342.703 984.2549,-3342.703 984.2549,-3342.703 869.2549,-3342.703 869.2549,-3342.703 863.2549,-3342.703 857.2549,-3336.703 857.2549,-3330.703 857.2549,-3330.703 857.2549,-3076.703 857.2549,-3076.703 857.2549,-3070.703 863.2549,-3064.703 869.2549,-3064.703"/>
<text text-anchor="middle" x="926.7549" y="-3329.903" font-family="Times,serif" font-size="11.00" fill="#c0c0c0">FullTextSearch</text>
</g>
<g id="clust32" class="cluster">
<title>cluster_\SilverStripe\FullTextSearch\Solr</title>
<path fill="none" stroke="#c0c0c0" d="M888.7549,-3072.703C888.7549,-3072.703 964.7549,-3072.703 964.7549,-3072.703 970.7549,-3072.703 976.7549,-3078.703 976.7549,-3084.703 976.7549,-3084.703 976.7549,-3186.703 976.7549,-3186.703 976.7549,-3192.703 970.7549,-3198.703 964.7549,-3198.703 964.7549,-3198.703 888.7549,-3198.703 888.7549,-3198.703 882.7549,-3198.703 876.7549,-3192.703 876.7549,-3186.703 876.7549,-3186.703 876.7549,-3084.703 876.7549,-3084.703 876.7549,-3078.703 882.7549,-3072.703 888.7549,-3072.703"/>
<text text-anchor="middle" x="926.7549" y="-3185.903" font-family="Times,serif" font-size="11.00" fill="#c0c0c0">Solr</text>
</g>
<g id="clust33" class="cluster">
<title>cluster_\SilverStripe\FullTextSearch\Search</title>
<path fill="none" stroke="#c0c0c0" d="M877.2549,-3206.703C877.2549,-3206.703 976.2549,-3206.703 976.2549,-3206.703 982.2549,-3206.703 988.2549,-3212.703 988.2549,-3218.703 988.2549,-3218.703 988.2549,-3302.703 988.2549,-3302.703 988.2549,-3308.703 982.2549,-3314.703 976.2549,-3314.703 976.2549,-3314.703 877.2549,-3314.703 877.2549,-3314.703 871.2549,-3314.703 865.2549,-3308.703 865.2549,-3302.703 865.2549,-3302.703 865.2549,-3218.703 865.2549,-3218.703 865.2549,-3212.703 871.2549,-3206.703 877.2549,-3206.703"/>
<text text-anchor="middle" x="926.7549" y="-3301.903" font-family="Times,serif" font-size="11.00" fill="#c0c0c0">Search</text>
</g>
<g id="clust34" class="cluster">
<title>cluster_\SilverStripe\FullTextSearch\Search\Queries</title>
<path fill="none" stroke="#c0c0c0" d="M885.2549,-3214.703C885.2549,-3214.703 968.2549,-3214.703 968.2549,-3214.703 974.2549,-3214.703 980.2549,-3220.703 980.2549,-3226.703 980.2549,-3226.703 980.2549,-3274.703 980.2549,-3274.703 980.2549,-3280.703 974.2549,-3286.703 968.2549,-3286.703 968.2549,-3286.703 885.2549,-3286.703 885.2549,-3286.703 879.2549,-3286.703 873.2549,-3280.703 873.2549,-3274.703 873.2549,-3274.703 873.2549,-3226.703 873.2549,-3226.703 873.2549,-3220.703 879.2549,-3214.703 885.2549,-3214.703"/>
<text text-anchor="middle" x="926.7549" y="-3273.903" font-family="Times,serif" font-size="11.00" fill="#c0c0c0">Queries</text>
</g>
<!-- \\Firesphere\\SolrCompatibility\\Extensions\\DataObjectExtension -->
<g id="node1" class="node">
<title>\\Firesphere\\SolrCompatibility\\Extensions\\DataObjectExtension</title>
<polygon fill="none" stroke="#000000" points="999.2549,-220.703 854.2549,-220.703 854.2549,-184.703 999.2549,-184.703 999.2549,-220.703"/>
<text text-anchor="middle" x="926.7549" y="-199.903" font-family="Courier,monospace" font-size="11.00" fill="#000000">DataObjectExtension</text>
</g>
<!-- \\SilverStripe\\Core\\Extension -->
<g id="node64" class="node">
<title>\\SilverStripe\\Core\\Extension</title>
<ellipse fill="none" stroke="#000000" cx="254.1275" cy="-18.703" rx="144.0747" ry="18"/>
<text text-anchor="middle" x="254.1275" y="-15.003" font-family="Times,serif" font-size="14.00" fill="#c0c0c0">\SilverStripe\Core\Extension</text>
</g>
<!-- \\Firesphere\\SolrCompatibility\\Extensions\\DataObjectExtension&#45;&gt;\\SilverStripe\\Core\\Extension -->
<g id="edge1" class="edge">
<title>\\Firesphere\\SolrCompatibility\\Extensions\\DataObjectExtension&#45;&gt;\\SilverStripe\\Core\\Extension</title>
<path fill="none" stroke="#000000" d="M909.2812,-184.6233C883.6376,-159.1925 833.1975,-113.2294 781.2549,-88.703 736.5953,-67.6155 716.2824,-88.0378 672.7549,-64.703"/>
<path fill="none" stroke="#000000" d="M672.7549,-64.703C584.7352,-17.5161 471.4652,-7.5878 384.9481,-8.5921"/>
<polygon fill="none" stroke="#000000" points="384.7408,-5.095 374.8005,-8.7612 384.8575,-12.094 384.7408,-5.095"/>
</g>
<!-- \\Firesphere\\SolrCompatibility\\Extensions\\SolrCoreServiceExtension -->
<g id="node2" class="node">
<title>\\Firesphere\\SolrCompatibility\\Extensions\\SolrCoreServiceExtension</title>
<polygon fill="none" stroke="#000000" points="1016.2549,-328.703 837.2549,-328.703 837.2549,-292.703 1016.2549,-292.703 1016.2549,-328.703"/>
<text text-anchor="middle" x="926.7549" y="-307.903" font-family="Courier,monospace" font-size="11.00" fill="#000000">SolrCoreServiceExtension</text>
</g>
<!-- \\Firesphere\\SolrCompatibility\\Extensions\\SolrCoreServiceExtension&#45;&gt;\\SilverStripe\\Core\\Extension -->
<g id="edge2" class="edge">
<title>\\Firesphere\\SolrCompatibility\\Extensions\\SolrCoreServiceExtension&#45;&gt;\\SilverStripe\\Core\\Extension</title>
<path fill="none" stroke="#000000" d="M836.8377,-295.7895C831.1085,-292.4788 825.8198,-288.4935 821.2549,-283.703 760.2228,-219.6542 843.3309,-151.7405 781.2549,-88.703 746.6018,-53.5131 716.2824,-88.0378 672.7549,-64.703"/>
</g>
<!-- \\Firesphere\\SolrCompatibility\\Extensions\\FulltextSearchExtension -->
<g id="node3" class="node">
<title>\\Firesphere\\SolrCompatibility\\Extensions\\FulltextSearchExtension</title>
<polygon fill="none" stroke="#000000" points="1012.7549,-274.703 840.7549,-274.703 840.7549,-238.703 1012.7549,-238.703 1012.7549,-274.703"/>
<text text-anchor="middle" x="926.7549" y="-253.903" font-family="Courier,monospace" font-size="11.00" fill="#000000">FulltextSearchExtension</text>
</g>
<!-- \\Firesphere\\SolrCompatibility\\Extensions\\FulltextSearchExtension&#45;&gt;\\SilverStripe\\Core\\Extension -->
<g id="edge3" class="edge">
<title>\\Firesphere\\SolrCompatibility\\Extensions\\FulltextSearchExtension&#45;&gt;\\SilverStripe\\Core\\Extension</title>
<path fill="none" stroke="#000000" d="M840.5088,-243.1345C833.4442,-239.5887 826.8743,-235.1787 821.2549,-229.703 774.6022,-184.2422 828.6481,-133.3913 781.2549,-88.703 745.3221,-54.8209 716.2824,-88.0378 672.7549,-64.703"/>
</g>
<!-- \\Firesphere\\SolrSearch\\Forms\\SearchForm -->
<g id="node4" class="node">
<title>\\Firesphere\\SolrSearch\\Forms\\SearchForm</title>
<polygon fill="none" stroke="#000000" points="714.7549,-2696.703 630.7549,-2696.703 630.7549,-2660.703 714.7549,-2660.703 714.7549,-2696.703"/>
<text text-anchor="middle" x="672.7549" y="-2675.903" font-family="Courier,monospace" font-size="11.00" fill="#000000">SearchForm</text>
</g>
<!-- \\SilverStripe\\Forms\\Form -->
<g id="node65" class="node">
<title>\\SilverStripe\\Forms\\Form</title>
<ellipse fill="none" stroke="#000000" cx="254.1275" cy="-126.703" rx="129.1772" ry="18"/>
<text text-anchor="middle" x="254.1275" y="-123.003" font-family="Times,serif" font-size="14.00" fill="#c0c0c0">\SilverStripe\Forms\Form</text>
</g>
<!-- \\Firesphere\\SolrSearch\\Forms\\SearchForm&#45;&gt;\\SilverStripe\\Forms\\Form -->
<g id="edge6" class="edge">
<title>\\Firesphere\\SolrSearch\\Forms\\SearchForm&#45;&gt;\\SilverStripe\\Forms\\Form</title>
<path fill="none" stroke="#000000" d="M630.6765,-2676.9145C609.8516,-2673.6971 586.2386,-2666.0811 572.2549,-2648.703 512.3234,-2574.2233 519.0347,-1885.6914 508.2549,-1790.703 432.6346,-1124.3593 288.3879,-315.5648 259.3104,-155.1281"/>
<polygon fill="none" stroke="#000000" points="262.7209,-154.3194 257.4907,-145.1055 255.8335,-155.5699 262.7209,-154.3194"/>
</g>
<!-- \\Firesphere\\SolrSearch\\Results\\SearchResult -->
<g id="node5" class="node">
<title>\\Firesphere\\SolrSearch\\Results\\SearchResult</title>
<polygon fill="none" stroke="#000000" points="721.7549,-2964.703 623.7549,-2964.703 623.7549,-2928.703 721.7549,-2928.703 721.7549,-2964.703"/>
<text text-anchor="middle" x="672.7549" y="-2943.903" font-family="Courier,monospace" font-size="11.00" fill="#000000">SearchResult</text>
</g>
<!-- \\SilverStripe\\View\\ViewableData -->
<g id="node66" class="node">
<title>\\SilverStripe\\View\\ViewableData</title>
<ellipse fill="none" stroke="#000000" cx="254.1275" cy="-3586.703" rx="163.2712" ry="18"/>
<text text-anchor="middle" x="254.1275" y="-3583.003" font-family="Times,serif" font-size="14.00" fill="#c0c0c0">\SilverStripe\View\ViewableData</text>
</g>
<!-- \\Firesphere\\SolrSearch\\Results\\SearchResult&#45;&gt;\\SilverStripe\\View\\ViewableData -->
<g id="edge7" class="edge">
<title>\\Firesphere\\SolrSearch\\Results\\SearchResult&#45;&gt;\\SilverStripe\\View\\ViewableData</title>
<path fill="none" stroke="#000000" d="M670.6351,-2964.7758C659.3811,-3057.4612 603.5335,-3478.2653 508.2549,-3559.703 468.8928,-3593.347 412.6025,-3601.9264 363.0002,-3601.3022"/>
<polygon fill="none" stroke="#000000" points="362.936,-3597.7996 352.8513,-3601.0474 362.7602,-3604.7974 362.936,-3597.7996"/>
</g>
<!-- \\Firesphere\\SolrSearch\\Models\\SearchSynonym -->
<g id="node6" class="node">
<title>\\Firesphere\\SolrSearch\\Models\\SearchSynonym</title>
<polygon fill="none" stroke="#000000" points="724.7549,-2884.703 620.7549,-2884.703 620.7549,-2848.703 724.7549,-2848.703 724.7549,-2884.703"/>
<text text-anchor="middle" x="672.7549" y="-2863.903" font-family="Courier,monospace" font-size="11.00" fill="#000000">SearchSynonym</text>
</g>
<!-- \\SilverStripe\\ORM\\DataObject -->
<g id="node67" class="node">
<title>\\SilverStripe\\ORM\\DataObject</title>
<ellipse fill="none" stroke="#000000" cx="254.1275" cy="-3694.703" rx="152.9733" ry="18"/>
<text text-anchor="middle" x="254.1275" y="-3691.003" font-family="Times,serif" font-size="14.00" fill="#c0c0c0">\SilverStripe\ORM\DataObject</text>
</g>
<!-- \\Firesphere\\SolrSearch\\Models\\SearchSynonym&#45;&gt;\\SilverStripe\\ORM\\DataObject -->
<g id="edge8" class="edge">
<title>\\Firesphere\\SolrSearch\\Models\\SearchSynonym&#45;&gt;\\SilverStripe\\ORM\\DataObject</title>
<path fill="none" stroke="#000000" d="M620.5892,-2880.9252C602.3728,-2888.5475 583.6499,-2899.9421 572.2549,-2916.703 478.0852,-3055.2174 625.4507,-3548.0396 508.2549,-3667.703 466.609,-3710.2257 398.8262,-3715.5967 343.7352,-3711.0761"/>
<polygon fill="none" stroke="#000000" points="343.8892,-3707.5752 333.6054,-3710.1236 343.2338,-3714.5444 343.8892,-3707.5752"/>
</g>
<!-- \\Firesphere\\SolrSearch\\Models\\DirtyClass -->
<g id="node7" class="node">
<title>\\Firesphere\\SolrSearch\\Models\\DirtyClass</title>
<polygon fill="none" stroke="#000000" points="714.7549,-2830.703 630.7549,-2830.703 630.7549,-2794.703 714.7549,-2794.703 714.7549,-2830.703"/>
<text text-anchor="middle" x="672.7549" y="-2809.903" font-family="Courier,monospace" font-size="11.00" fill="#000000">DirtyClass</text>
</g>
<!-- \\Firesphere\\SolrSearch\\Models\\DirtyClass&#45;&gt;\\SilverStripe\\ORM\\DataObject -->
<g id="edge9" class="edge">
<title>\\Firesphere\\SolrSearch\\Models\\DirtyClass&#45;&gt;\\SilverStripe\\ORM\\DataObject</title>
<path fill="none" stroke="#000000" d="M630.5447,-2813.2104C609.8161,-2815.8152 586.3315,-2822.7422 572.2549,-2839.703 454.3933,-2981.7132 636.8642,-3535.3476 508.2549,-3667.703 466.6312,-3710.5391 398.5098,-3715.7896 343.2693,-3711.1388"/>
<polygon fill="none" stroke="#000000" points="343.4031,-3707.6356 333.1139,-3710.162 342.7328,-3714.6035 343.4031,-3707.6356"/>
</g>
<!-- \\Firesphere\\SolrSearch\\Models\\SolrLog -->
<g id="node8" class="node">
<title>\\Firesphere\\SolrSearch\\Models\\SolrLog</title>
<polygon fill="none" stroke="#000000" points="704.7549,-2776.703 640.7549,-2776.703 640.7549,-2740.703 704.7549,-2740.703 704.7549,-2776.703"/>
<text text-anchor="middle" x="672.7549" y="-2755.903" font-family="Courier,monospace" font-size="11.00" fill="#000000">SolrLog</text>
</g>
<!-- \\Firesphere\\SolrSearch\\Models\\SolrLog&#45;&gt;\\SilverStripe\\ORM\\DataObject -->
<g id="edge10" class="edge">
<title>\\Firesphere\\SolrSearch\\Models\\SolrLog&#45;&gt;\\SilverStripe\\ORM\\DataObject</title>
<path fill="none" stroke="#000000" d="M640.4356,-2758.2298C617.7274,-2759.7794 588.5926,-2765.9233 572.2549,-2785.703 447.1071,-2937.2163 644.8714,-3526.4436 508.2549,-3667.703 466.5869,-3710.787 398.1287,-3715.9186 342.7581,-3711.1554"/>
<polygon fill="none" stroke="#000000" points="342.8747,-3707.6501 332.5809,-3710.1578 342.1917,-3714.6167 342.8747,-3707.6501"/>
</g>
<!-- \\SilverStripe\\Security\\PermissionProvider -->
<g id="node68" class="node">
<title>\\SilverStripe\\Security\\PermissionProvider</title>
<ellipse fill="none" stroke="#000000" cx="254.1275" cy="-3640.703" rx="206.0634" ry="18"/>
<text text-anchor="middle" x="254.1275" y="-3637.003" font-family="Times,serif" font-size="14.00" fill="#c0c0c0">\SilverStripe\Security\PermissionProvider</text>
</g>
<!-- \\Firesphere\\SolrSearch\\Models\\SolrLog&#45;&gt;\\SilverStripe\\Security\\PermissionProvider -->
<g id="edge11" class="edge">
<title>\\Firesphere\\SolrSearch\\Models\\SolrLog&#45;&gt;\\SilverStripe\\Security\\PermissionProvider</title>
<path fill="none" stroke="#000000" stroke-dasharray="1,5" d="M640.4633,-2758.2527C617.7688,-2759.8136 588.6391,-2765.9618 572.2549,-2785.703 454.3933,-2927.7132 636.8642,-3481.3476 508.2549,-3613.703 468.8235,-3654.2829 405.612,-3661.1323 352.0991,-3657.7873"/>
<polygon fill="none" stroke="#000000" points="352.1165,-3654.2788 341.8823,-3657.0198 351.592,-3661.2591 352.1165,-3654.2788"/>
</g>
<!-- \\Firesphere\\SolrSearch\\Services\\SolrCoreService -->
<g id="node9" class="node">
<title>\\Firesphere\\SolrSearch\\Services\\SolrCoreService</title>
<polygon fill="none" stroke="#000000" points="731.7549,-2616.703 613.7549,-2616.703 613.7549,-2580.703 731.7549,-2580.703 731.7549,-2616.703"/>
<text text-anchor="middle" x="672.7549" y="-2595.903" font-family="Courier,monospace" font-size="11.00" fill="#000000">SolrCoreService</text>
</g>
<!-- \\Firesphere\\SolrSearch\\Admins\\SearchAdmin -->
<g id="node10" class="node">
<title>\\Firesphere\\SolrSearch\\Admins\\SearchAdmin</title>
<polygon fill="none" stroke="#000000" points="718.2549,-2536.703 627.2549,-2536.703 627.2549,-2500.703 718.2549,-2500.703 718.2549,-2536.703"/>
<text text-anchor="middle" x="672.7549" y="-2515.903" font-family="Courier,monospace" font-size="11.00" fill="#000000">SearchAdmin</text>
</g>
<!-- \\SilverStripe\\Admin\\ModelAdmin -->
<g id="node69" class="node">
<title>\\SilverStripe\\Admin\\ModelAdmin</title>
<ellipse fill="none" stroke="#000000" cx="254.1275" cy="-3532.703" rx="165.1707" ry="18"/>
<text text-anchor="middle" x="254.1275" y="-3529.003" font-family="Times,serif" font-size="14.00" fill="#c0c0c0">\SilverStripe\Admin\ModelAdmin</text>
</g>
<!-- \\Firesphere\\SolrSearch\\Admins\\SearchAdmin&#45;&gt;\\SilverStripe\\Admin\\ModelAdmin -->
<g id="edge12" class="edge">
<title>\\Firesphere\\SolrSearch\\Admins\\SearchAdmin&#45;&gt;\\SilverStripe\\Admin\\ModelAdmin</title>
<path fill="none" stroke="#000000" d="M627.2407,-2530.1459C606.9954,-2537.6663 584.9152,-2549.7399 572.2549,-2568.703 456.3692,-2742.2808 653.029,-3355.3726 508.2549,-3505.703 467.1854,-3548.3487 399.8809,-3553.8712 344.8517,-3549.3851"/>
<polygon fill="none" stroke="#000000" points="345.0111,-3545.8848 334.7285,-3548.4376 344.3588,-3552.8543 345.0111,-3545.8848"/>
</g>
<!-- \\Firesphere\\SolrSearch\\Queries\\BaseQuery -->
<g id="node11" class="node">
<title>\\Firesphere\\SolrSearch\\Queries\\BaseQuery</title>
<polygon fill="none" stroke="#000000" points="711.2549,-2456.703 634.2549,-2456.703 634.2549,-2420.703 711.2549,-2420.703 711.2549,-2456.703"/>
<text text-anchor="middle" x="672.7549" y="-2435.903" font-family="Courier,monospace" font-size="11.00" fill="#000000">BaseQuery</text>
</g>
<!-- \\Firesphere\\SolrSearch\\Stores\\PostConfigStore -->
<g id="node12" class="node">
<title>\\Firesphere\\SolrSearch\\Stores\\PostConfigStore</title>
<polygon fill="none" stroke="#000000" points="731.7549,-1946.703 613.7549,-1946.703 613.7549,-1910.703 731.7549,-1910.703 731.7549,-1946.703"/>
<text text-anchor="middle" x="672.7549" y="-1925.903" font-family="Courier,monospace" font-size="11.00" fill="#000000">PostConfigStore</text>
</g>
<!-- \\Firesphere\\SolrSearch\\Interfaces\\ConfigStore -->
<g id="node24" class="node">
<title>\\Firesphere\\SolrSearch\\Interfaces\\ConfigStore</title>
<polygon fill="none" stroke="#000000" points="299.6275,-1892.703 208.6275,-1892.703 208.6275,-1856.703 299.6275,-1856.703 299.6275,-1892.703"/>
<text text-anchor="middle" x="254.1275" y="-1871.903" font-family="Courier,monospace" font-size="11.00" fill="#000000">ConfigStore</text>
</g>
<!-- \\Firesphere\\SolrSearch\\Stores\\PostConfigStore&#45;&gt;\\Firesphere\\SolrSearch\\Interfaces\\ConfigStore -->
<g id="edge13" class="edge">
<title>\\Firesphere\\SolrSearch\\Stores\\PostConfigStore&#45;&gt;\\Firesphere\\SolrSearch\\Interfaces\\ConfigStore</title>
<path fill="none" stroke="#000000" stroke-dasharray="1,5" d="M613.6637,-1921.0806C532.8854,-1910.6608 389.0185,-1892.103 309.9722,-1881.9065"/>
<polygon fill="none" stroke="#000000" points="310.0944,-1878.3934 299.7287,-1880.5852 309.1988,-1885.3359 310.0944,-1878.3934"/>
</g>
<!-- \\Firesphere\\SolrSearch\\Stores\\FileConfigStore -->
<g id="node13" class="node">
<title>\\Firesphere\\SolrSearch\\Stores\\FileConfigStore</title>
<polygon fill="none" stroke="#000000" points="731.7549,-1892.703 613.7549,-1892.703 613.7549,-1856.703 731.7549,-1856.703 731.7549,-1892.703"/>
<text text-anchor="middle" x="672.7549" y="-1871.903" font-family="Courier,monospace" font-size="11.00" fill="#000000">FileConfigStore</text>
</g>
<!-- \\Firesphere\\SolrSearch\\Stores\\FileConfigStore&#45;&gt;\\Firesphere\\SolrSearch\\Interfaces\\ConfigStore -->
<g id="edge14" class="edge">
<title>\\Firesphere\\SolrSearch\\Stores\\FileConfigStore&#45;&gt;\\Firesphere\\SolrSearch\\Interfaces\\ConfigStore</title>
<path fill="none" stroke="#000000" stroke-dasharray="1,5" d="M613.6637,-1874.703C532.8854,-1874.703 389.0185,-1874.703 309.9722,-1874.703"/>
<polygon fill="none" stroke="#000000" points="309.7288,-1871.2031 299.7287,-1874.703 309.7287,-1878.2031 309.7288,-1871.2031"/>
</g>
<!-- \\Firesphere\\SolrSearch\\Extensions\\DataObjectExtension -->
<g id="node14" class="node">
<title>\\Firesphere\\SolrSearch\\Extensions\\DataObjectExtension</title>
<polygon fill="none" stroke="#000000" points="745.2549,-1812.703 600.2549,-1812.703 600.2549,-1776.703 745.2549,-1776.703 745.2549,-1812.703"/>
<text text-anchor="middle" x="672.7549" y="-1791.903" font-family="Courier,monospace" font-size="11.00" fill="#000000">DataObjectExtension</text>
</g>
<!-- \\SilverStripe\\ORM\\DataExtension -->
<g id="node70" class="node">
<title>\\SilverStripe\\ORM\\DataExtension</title>
<ellipse fill="none" stroke="#000000" cx="254.1275" cy="-72.703" rx="167.8704" ry="18"/>
<text text-anchor="middle" x="254.1275" y="-69.003" font-family="Times,serif" font-size="14.00" fill="#c0c0c0">\SilverStripe\ORM\DataExtension</text>
</g>
<!-- \\Firesphere\\SolrSearch\\Extensions\\DataObjectExtension&#45;&gt;\\SilverStripe\\ORM\\DataExtension -->
<g id="edge15" class="edge">
<title>\\Firesphere\\SolrSearch\\Extensions\\DataObjectExtension&#45;&gt;\\SilverStripe\\ORM\\DataExtension</title>
<path fill="none" stroke="#000000" d="M600.1257,-1787.175C589.3519,-1782.9489 579.4654,-1776.7419 572.2549,-1767.703 456.5954,-1622.7137 634.9019,-235.2004 508.2549,-99.703 467.3272,-55.9151 398.828,-50.8225 343.2535,-55.7795"/>
<polygon fill="none" stroke="#000000" points="342.6326,-52.3244 333.0365,-56.815 343.3384,-59.2888 342.6326,-52.3244"/>
</g>
<!-- \\Firesphere\\SolrSearch\\Extensions\\GridFieldExtension -->
<g id="node15" class="node">
<title>\\Firesphere\\SolrSearch\\Extensions\\GridFieldExtension</title>
<polygon fill="none" stroke="#000000" points="741.7549,-1758.703 603.7549,-1758.703 603.7549,-1722.703 741.7549,-1722.703 741.7549,-1758.703"/>
<text text-anchor="middle" x="672.7549" y="-1737.903" font-family="Courier,monospace" font-size="11.00" fill="#000000">GridFieldExtension</text>
</g>
<!-- \\Firesphere\\SolrSearch\\Extensions\\GridFieldExtension&#45;&gt;\\SilverStripe\\Core\\Extension -->
<g id="edge16" class="edge">
<title>\\Firesphere\\SolrSearch\\Extensions\\GridFieldExtension&#45;&gt;\\SilverStripe\\Core\\Extension</title>
<path fill="none" stroke="#000000" d="M603.5696,-1732.3521C591.4351,-1727.7767 580.1769,-1720.9196 572.2549,-1710.703 458.8082,-1564.397 634.6791,-180.9527 508.2549,-45.703 466.2404,-.7555 395.1746,3.4191 338.8598,-2.1954"/>
<polygon fill="none" stroke="#000000" points="338.4364,1.2792 328.8851,-3.3059 339.211,-5.6779 338.4364,1.2792"/>
</g>
<!-- \\Firesphere\\SolrSearch\\Tasks\\ClearErrorsTask -->
<g id="node16" class="node">
<title>\\Firesphere\\SolrSearch\\Tasks\\ClearErrorsTask</title>
<polygon fill="none" stroke="#000000" points="731.7549,-2188.703 613.7549,-2188.703 613.7549,-2152.703 731.7549,-2152.703 731.7549,-2188.703"/>
<text text-anchor="middle" x="672.7549" y="-2167.903" font-family="Courier,monospace" font-size="11.00" fill="#000000">ClearErrorsTask</text>
</g>
<!-- \\SilverStripe\\Dev\\BuildTask -->
<g id="node71" class="node">
<title>\\SilverStripe\\Dev\\BuildTask</title>
<ellipse fill="none" stroke="#000000" cx="254.1275" cy="-3478.703" rx="139.9756" ry="18"/>
<text text-anchor="middle" x="254.1275" y="-3475.003" font-family="Times,serif" font-size="14.00" fill="#c0c0c0">\SilverStripe\Dev\BuildTask</text>
</g>
<!-- \\Firesphere\\SolrSearch\\Tasks\\ClearErrorsTask&#45;&gt;\\SilverStripe\\Dev\\BuildTask -->
<g id="edge17" class="edge">
<title>\\Firesphere\\SolrSearch\\Tasks\\ClearErrorsTask&#45;&gt;\\SilverStripe\\Dev\\BuildTask</title>
<path fill="none" stroke="#000000" d="M613.7087,-2187.637C597.6629,-2195.1536 582.0351,-2205.7929 572.2549,-2220.703 497.1341,-2335.2263 602.4569,-3352.281 508.2549,-3451.703 465.9375,-3496.3653 394.8969,-3500.5636 338.6688,-3495.0308"/>
<polygon fill="none" stroke="#000000" points="339.0331,-3491.5499 328.7104,-3493.9356 338.2679,-3498.5079 339.0331,-3491.5499"/>
</g>
<!-- \\Firesphere\\SolrSearch\\Tasks\\SolrConfigureTask -->
<g id="node17" class="node">
<title>\\Firesphere\\SolrSearch\\Tasks\\SolrConfigureTask</title>
<polygon fill="none" stroke="#000000" points="738.2549,-2134.703 607.2549,-2134.703 607.2549,-2098.703 738.2549,-2098.703 738.2549,-2134.703"/>
<text text-anchor="middle" x="672.7549" y="-2113.903" font-family="Courier,monospace" font-size="11.00" fill="#000000">SolrConfigureTask</text>
</g>
<!-- \\Firesphere\\SolrSearch\\Tasks\\SolrConfigureTask&#45;&gt;\\SilverStripe\\Dev\\BuildTask -->
<g id="edge18" class="edge">
<title>\\Firesphere\\SolrSearch\\Tasks\\SolrConfigureTask&#45;&gt;\\SilverStripe\\Dev\\BuildTask</title>
<path fill="none" stroke="#000000" d="M607.1292,-2121.8804C593.7221,-2126.0288 581.0439,-2132.8035 572.2549,-2143.703 480.9179,-2256.9721 608.1725,-3345.9258 508.2549,-3451.703 466.0057,-3496.4298 394.9594,-3500.6228 338.7118,-3495.0715"/>
<polygon fill="none" stroke="#000000" points="339.0732,-3491.5902 328.7498,-3493.9729 338.3058,-3498.548 339.0732,-3491.5902"/>
</g>
<!-- \\Firesphere\\SolrSearch\\Tasks\\ClearDirtyClassesTask -->
<g id="node18" class="node">
<title>\\Firesphere\\SolrSearch\\Tasks\\ClearDirtyClassesTask</title>
<polygon fill="none" stroke="#000000" points="751.7549,-2080.703 593.7549,-2080.703 593.7549,-2044.703 751.7549,-2044.703 751.7549,-2080.703"/>
<text text-anchor="middle" x="672.7549" y="-2059.903" font-family="Courier,monospace" font-size="11.00" fill="#000000">ClearDirtyClassesTask</text>
</g>
<!-- \\Firesphere\\SolrSearch\\Tasks\\ClearDirtyClassesTask&#45;&gt;\\SilverStripe\\Dev\\BuildTask -->
<g id="edge19" class="edge">
<title>\\Firesphere\\SolrSearch\\Tasks\\ClearDirtyClassesTask&#45;&gt;\\SilverStripe\\Dev\\BuildTask</title>
<path fill="none" stroke="#000000" d="M593.7448,-2073.1062C585.4955,-2077.1351 578.0317,-2082.5248 572.2549,-2089.703 477.2701,-2207.7294 612.1813,-3341.4684 508.2549,-3451.703 465.9772,-3496.5468 394.7574,-3500.6744 338.4522,-3495.0688"/>
<polygon fill="none" stroke="#000000" points="338.8065,-3491.5867 328.4811,-3493.9605 338.0332,-3498.5439 338.8065,-3491.5867"/>
</g>
<!-- \\Firesphere\\SolrSearch\\Tasks\\SolrIndexTask -->
<g id="node19" class="node">
<title>\\Firesphere\\SolrSearch\\Tasks\\SolrIndexTask</title>
<polygon fill="none" stroke="#000000" points="724.7549,-2026.703 620.7549,-2026.703 620.7549,-1990.703 724.7549,-1990.703 724.7549,-2026.703"/>
<text text-anchor="middle" x="672.7549" y="-2005.903" font-family="Courier,monospace" font-size="11.00" fill="#000000">SolrIndexTask</text>
</g>
<!-- \\Firesphere\\SolrSearch\\Tasks\\SolrIndexTask&#45;&gt;\\SilverStripe\\Dev\\BuildTask -->
<g id="edge20" class="edge">
<title>\\Firesphere\\SolrSearch\\Tasks\\SolrIndexTask&#45;&gt;\\SilverStripe\\Dev\\BuildTask</title>
<path fill="none" stroke="#000000" d="M620.7207,-2010.5122C602.6342,-2013.9214 583.9654,-2021.1251 572.2549,-2035.703 473.6221,-2158.487 616.1903,-3337.0108 508.2549,-3451.703 466.0173,-3496.5846 394.7941,-3500.7089 338.4774,-3495.0925"/>
<polygon fill="none" stroke="#000000" points="338.83,-3491.6102 328.5041,-3493.9822 338.0554,-3498.5672 338.83,-3491.6102"/>
</g>
<!-- \\Firesphere\\SolrSearch\\Factories\\DocumentFactory -->
<g id="node20" class="node">
<title>\\Firesphere\\SolrSearch\\Factories\\DocumentFactory</title>
<polygon fill="none" stroke="#000000" points="731.7549,-2376.703 613.7549,-2376.703 613.7549,-2340.703 731.7549,-2340.703 731.7549,-2376.703"/>
<text text-anchor="middle" x="672.7549" y="-2355.903" font-family="Courier,monospace" font-size="11.00" fill="#000000">DocumentFactory</text>
</g>
<!-- \\Firesphere\\SolrSearch\\Factories\\SchemaFactory -->
<g id="node21" class="node">
<title>\\Firesphere\\SolrSearch\\Factories\\SchemaFactory</title>
<polygon fill="none" stroke="#000000" points="724.7549,-2322.703 620.7549,-2322.703 620.7549,-2286.703 724.7549,-2286.703 724.7549,-2322.703"/>
<text text-anchor="middle" x="672.7549" y="-2301.903" font-family="Courier,monospace" font-size="11.00" fill="#000000">SchemaFactory</text>
</g>
<!-- \\Firesphere\\SolrSearch\\Factories\\SchemaFactory&#45;&gt;\\SilverStripe\\View\\ViewableData -->
<g id="edge21" class="edge">
<title>\\Firesphere\\SolrSearch\\Factories\\SchemaFactory&#45;&gt;\\SilverStripe\\View\\ViewableData</title>
<path fill="none" stroke="#000000" d="M620.5121,-2306.605C602.5137,-2310.0394 583.9588,-2317.2358 572.2549,-2331.703 486.3215,-2437.9249 602.2342,-3460.5286 508.2549,-3559.703 467.0996,-3603.1332 398.7837,-3608.2994 343.3433,-3603.4632"/>
<polygon fill="none" stroke="#000000" points="343.4476,-3599.9565 333.1506,-3602.4508 342.7556,-3606.9222 343.4476,-3599.9565"/>
</g>
<!-- \\Firesphere\\SolrSearch\\Factories\\QueryComponentFactory -->
<g id="node22" class="node">
<title>\\Firesphere\\SolrSearch\\Factories\\QueryComponentFactory</title>
<polygon fill="none" stroke="#000000" points="751.7549,-2268.703 593.7549,-2268.703 593.7549,-2232.703 751.7549,-2232.703 751.7549,-2268.703"/>
<text text-anchor="middle" x="672.7549" y="-2247.903" font-family="Courier,monospace" font-size="11.00" fill="#000000">QueryComponentFactory</text>
</g>
<!-- \\Firesphere\\SolrSearch\\States\\SiteState -->
<g id="node23" class="node">
<title>\\Firesphere\\SolrSearch\\States\\SiteState</title>
<polygon fill="none" stroke="#000000" points="714.7549,-1678.703 630.7549,-1678.703 630.7549,-1642.703 714.7549,-1642.703 714.7549,-1678.703"/>
<text text-anchor="start" x="638.7549" y="-1663.903" font-family="Courier,monospace" font-size="11.00" fill="#000000">abstract</text>
<text text-anchor="start" x="642.2549" y="-1651.903" font-family="Courier,monospace" font-size="11.00" fill="#000000">SiteState</text>
</g>
<!-- \\Firesphere\\SolrSearch\\Interfaces\\SiteStateInterface -->
<g id="node25" class="node">
<title>\\Firesphere\\SolrSearch\\Interfaces\\SiteStateInterface</title>
<polygon fill="none" stroke="#000000" points="323.1275,-1838.703 185.1275,-1838.703 185.1275,-1802.703 323.1275,-1802.703 323.1275,-1838.703"/>
<text text-anchor="middle" x="254.1275" y="-1817.903" font-family="Courier,monospace" font-size="11.00" fill="#000000">SiteStateInterface</text>
</g>
<!-- \\Firesphere\\SolrSearch\\Jobs\\SolrConfigureJob -->
<g id="node26" class="node">
<title>\\Firesphere\\SolrSearch\\Jobs\\SolrConfigureJob</title>
<polygon fill="none" stroke="#000000" points="735.2549,-1490.703 610.2549,-1490.703 610.2549,-1454.703 735.2549,-1454.703 735.2549,-1490.703"/>
<text text-anchor="middle" x="672.7549" y="-1469.903" font-family="Courier,monospace" font-size="11.00" fill="#000000">SolrConfigureJob</text>
</g>
<!-- \\Symbiote\\QueuedJobs\\Services\\AbstractQueuedJob -->
<g id="node72" class="node">
<title>\\Symbiote\\QueuedJobs\\Services\\AbstractQueuedJob</title>
<ellipse fill="none" stroke="#000000" cx="254.1275" cy="-3424.703" rx="254.255" ry="18"/>
<text text-anchor="middle" x="254.1275" y="-3421.003" font-family="Times,serif" font-size="14.00" fill="#c0c0c0">\Symbiote\QueuedJobs\Services\AbstractQueuedJob</text>
</g>
<!-- \\Firesphere\\SolrSearch\\Jobs\\SolrConfigureJob&#45;&gt;\\Symbiote\\QueuedJobs\\Services\\AbstractQueuedJob -->
<g id="edge22" class="edge">
<title>\\Firesphere\\SolrSearch\\Jobs\\SolrConfigureJob&#45;&gt;\\Symbiote\\QueuedJobs\\Services\\AbstractQueuedJob</title>
<path fill="none" stroke="#000000" d="M609.9973,-1477.9266C595.8107,-1481.9936 582.062,-1488.72 572.2549,-1499.703 508.6409,-1570.944 523.3435,-1830.3931 508.2549,-1924.703 413.0994,-2519.464 285.8182,-3244.8766 259.1532,-3396.2225"/>
<polygon fill="none" stroke="#000000" points="255.6316,-3396.0395 257.3424,-3406.4953 262.5253,-3397.2547 255.6316,-3396.0395"/>
</g>
<!-- \\Firesphere\\SolrSearch\\Jobs\\SolrIndexJob -->
<g id="node27" class="node">
<title>\\Firesphere\\SolrSearch\\Jobs\\SolrIndexJob</title>
<polygon fill="none" stroke="#000000" points="721.7549,-1598.703 623.7549,-1598.703 623.7549,-1562.703 721.7549,-1562.703 721.7549,-1598.703"/>
<text text-anchor="middle" x="672.7549" y="-1577.903" font-family="Courier,monospace" font-size="11.00" fill="#000000">SolrIndexJob</text>
</g>
<!-- \\Firesphere\\SolrSearch\\Jobs\\SolrIndexJob&#45;&gt;\\Symbiote\\QueuedJobs\\Services\\AbstractQueuedJob -->
<g id="edge23" class="edge">
<title>\\Firesphere\\SolrSearch\\Jobs\\SolrIndexJob&#45;&gt;\\Symbiote\\QueuedJobs\\Services\\AbstractQueuedJob</title>
<path fill="none" stroke="#000000" d="M623.7259,-1594.5102C604.9042,-1602.2117 584.9216,-1613.7724 572.2549,-1630.703 544.2163,-1668.1798 295.96,-3170.6536 258.7788,-3396.4261"/>
<polygon fill="none" stroke="#000000" points="255.2947,-3396.0436 257.1237,-3406.4794 262.2017,-3397.1808 255.2947,-3396.0436"/>
</g>
<!-- \\Firesphere\\SolrSearch\\Jobs\\ClearDirtyClassesJob -->
<g id="node28" class="node">
<title>\\Firesphere\\SolrSearch\\Jobs\\ClearDirtyClassesJob</title>
<polygon fill="none" stroke="#000000" points="748.7549,-1544.703 596.7549,-1544.703 596.7549,-1508.703 748.7549,-1508.703 748.7549,-1544.703"/>
<text text-anchor="middle" x="672.7549" y="-1523.903" font-family="Courier,monospace" font-size="11.00" fill="#000000">ClearDirtyClassesJob</text>
</g>
<!-- \\Firesphere\\SolrSearch\\Jobs\\ClearDirtyClassesJob&#45;&gt;\\Symbiote\\QueuedJobs\\Services\\AbstractQueuedJob -->
<g id="edge24" class="edge">
<title>\\Firesphere\\SolrSearch\\Jobs\\ClearDirtyClassesJob&#45;&gt;\\Symbiote\\QueuedJobs\\Services\\AbstractQueuedJob</title>
<path fill="none" stroke="#000000" d="M596.5475,-1536.9088C587.3964,-1540.9169 578.9431,-1546.3542 572.2549,-1553.703 570.1987,-1555.9623 298.4746,-3162.4521 258.9102,-3396.4176"/>
<polygon fill="none" stroke="#000000" points="255.4201,-3396.0658 257.2037,-3406.5094 262.3221,-3397.233 255.4201,-3396.0658"/>
</g>
<!-- \\Firesphere\\SolrSearch\\Traits\\BaseQueryTrait -->
<g id="node29" class="node">
<title>\\Firesphere\\SolrSearch\\Traits\\BaseQueryTrait</title>
<polygon fill="none" stroke="#000000" points="728.2549,-1410.703 617.2549,-1410.703 617.2549,-1374.703 728.2549,-1374.703 728.2549,-1410.703"/>
<text text-anchor="middle" x="672.7549" y="-1389.903" font-family="Courier,monospace" font-size="11.00" fill="#000000">BaseQueryTrait</text>
</g>
<!-- \\Firesphere\\SolrSearch\\Traits\\SearchResultSetTrait -->
<g id="node30" class="node">
<title>\\Firesphere\\SolrSearch\\Traits\\SearchResultSetTrait</title>
<polygon fill="none" stroke="#000000" points="748.7549,-1356.703 596.7549,-1356.703 596.7549,-1320.703 748.7549,-1320.703 748.7549,-1356.703"/>
<text text-anchor="middle" x="672.7549" y="-1335.903" font-family="Courier,monospace" font-size="11.00" fill="#000000">SearchResultSetTrait</text>
</g>
<!-- \\Firesphere\\SolrSearch\\Traits\\SearchResultGetTrait -->
<g id="node31" class="node">
<title>\\Firesphere\\SolrSearch\\Traits\\SearchResultGetTrait</title>
<polygon fill="none" stroke="#000000" points="748.7549,-1302.703 596.7549,-1302.703 596.7549,-1266.703 748.7549,-1266.703 748.7549,-1302.703"/>
<text text-anchor="middle" x="672.7549" y="-1281.903" font-family="Courier,monospace" font-size="11.00" fill="#000000">SearchResultGetTrait</text>
</g>
<!-- \\Firesphere\\SolrSearch\\Traits\\CoreServiceTrait -->
<g id="node32" class="node">
<title>\\Firesphere\\SolrSearch\\Traits\\CoreServiceTrait</title>
<polygon fill="none" stroke="#000000" points="735.2549,-1248.703 610.2549,-1248.703 610.2549,-1212.703 735.2549,-1212.703 735.2549,-1248.703"/>
<text text-anchor="middle" x="672.7549" y="-1227.903" font-family="Courier,monospace" font-size="11.00" fill="#000000">CoreServiceTrait</text>
</g>
<!-- \\Firesphere\\SolrSearch\\Traits\\CoreAdminTrait -->
<g id="node33" class="node">
<title>\\Firesphere\\SolrSearch\\Traits\\CoreAdminTrait</title>
<polygon fill="none" stroke="#000000" points="728.2549,-1194.703 617.2549,-1194.703 617.2549,-1158.703 728.2549,-1158.703 728.2549,-1194.703"/>
<text text-anchor="middle" x="672.7549" y="-1173.903" font-family="Courier,monospace" font-size="11.00" fill="#000000">CoreAdminTrait</text>
</g>
<!-- \\Firesphere\\SolrSearch\\Traits\\LoggerTrait -->
<g id="node34" class="node">
<title>\\Firesphere\\SolrSearch\\Traits\\LoggerTrait</title>
<polygon fill="none" stroke="#000000" points="718.2549,-1140.703 627.2549,-1140.703 627.2549,-1104.703 718.2549,-1104.703 718.2549,-1140.703"/>
<text text-anchor="middle" x="672.7549" y="-1119.903" font-family="Courier,monospace" font-size="11.00" fill="#000000">LoggerTrait</text>
</g>
<!-- \\Firesphere\\SolrSearch\\Traits\\QueryComponentBoostTrait -->
<g id="node35" class="node">
<title>\\Firesphere\\SolrSearch\\Traits\\QueryComponentBoostTrait</title>
<polygon fill="none" stroke="#000000" points="762.2549,-1086.703 583.2549,-1086.703 583.2549,-1050.703 762.2549,-1050.703 762.2549,-1086.703"/>
<text text-anchor="middle" x="672.7549" y="-1065.903" font-family="Courier,monospace" font-size="11.00" fill="#000000">QueryComponentBoostTrait</text>
</g>
<!-- \\Firesphere\\SolrSearch\\Traits\\QueryComponentFacetTrait -->
<g id="node36" class="node">
<title>\\Firesphere\\SolrSearch\\Traits\\QueryComponentFacetTrait</title>
<polygon fill="none" stroke="#000000" points="762.2549,-1032.703 583.2549,-1032.703 583.2549,-996.703 762.2549,-996.703 762.2549,-1032.703"/>
<text text-anchor="middle" x="672.7549" y="-1011.903" font-family="Courier,monospace" font-size="11.00" fill="#000000">QueryComponentFacetTrait</text>
</g>
<!-- \\Firesphere\\SolrSearch\\Traits\\QueryComponentFilterTrait -->
<g id="node37" class="node">
<title>\\Firesphere\\SolrSearch\\Traits\\QueryComponentFilterTrait</title>
<polygon fill="none" stroke="#000000" points="765.2549,-978.703 580.2549,-978.703 580.2549,-942.703 765.2549,-942.703 765.2549,-978.703"/>
<text text-anchor="middle" x="672.7549" y="-957.903" font-family="Courier,monospace" font-size="11.00" fill="#000000">QueryComponentFilterTrait</text>
</g>
<!-- \\Firesphere\\SolrSearch\\Traits\\BaseIndexTrait -->
<g id="node38" class="node">
<title>\\Firesphere\\SolrSearch\\Traits\\BaseIndexTrait</title>
<polygon fill="none" stroke="#000000" points="728.2549,-924.703 617.2549,-924.703 617.2549,-888.703 728.2549,-888.703 728.2549,-924.703"/>
<text text-anchor="middle" x="672.7549" y="-903.903" font-family="Courier,monospace" font-size="11.00" fill="#000000">BaseIndexTrait</text>
</g>
<!-- \\Firesphere\\SolrSearch\\Traits\\SolrIndexTrait -->
<g id="node39" class="node">
<title>\\Firesphere\\SolrSearch\\Traits\\SolrIndexTrait</title>
<polygon fill="none" stroke="#000000" points="728.2549,-870.703 617.2549,-870.703 617.2549,-834.703 728.2549,-834.703 728.2549,-870.703"/>
<text text-anchor="middle" x="672.7549" y="-849.903" font-family="Courier,monospace" font-size="11.00" fill="#000000">SolrIndexTrait</text>
</g>
<!-- \\Firesphere\\SolrSearch\\Traits\\GetSetSchemaFactoryTrait -->
<g id="node40" class="node">
<title>\\Firesphere\\SolrSearch\\Traits\\GetSetSchemaFactoryTrait</title>
<polygon fill="none" stroke="#000000" points="762.2549,-816.703 583.2549,-816.703 583.2549,-780.703 762.2549,-780.703 762.2549,-816.703"/>
<text text-anchor="middle" x="672.7549" y="-795.903" font-family="Courier,monospace" font-size="11.00" fill="#000000">GetSetSchemaFactoryTrait</text>
</g>
<!-- \\Firesphere\\SolrSearch\\Traits\\DocumentFactoryTrait -->
<g id="node41" class="node">
<title>\\Firesphere\\SolrSearch\\Traits\\DocumentFactoryTrait</title>
<polygon fill="none" stroke="#000000" points="748.7549,-762.703 596.7549,-762.703 596.7549,-726.703 748.7549,-726.703 748.7549,-762.703"/>
<text text-anchor="middle" x="672.7549" y="-741.903" font-family="Courier,monospace" font-size="11.00" fill="#000000">DocumentFactoryTrait</text>
</g>
<!-- \\Firesphere\\SolrSearch\\Traits\\GetSetSearchResolverTrait -->
<g id="node42" class="node">
<title>\\Firesphere\\SolrSearch\\Traits\\GetSetSearchResolverTrait</title>
<polygon fill="none" stroke="#000000" points="765.2549,-708.703 580.2549,-708.703 580.2549,-672.703 765.2549,-672.703 765.2549,-708.703"/>
<text text-anchor="middle" x="672.7549" y="-687.903" font-family="Courier,monospace" font-size="11.00" fill="#000000">GetSetSearchResolverTrait</text>
</g>
<!-- \\Firesphere\\SolrSearch\\Traits\\GetterSetterTrait -->
<g id="node43" class="node">
<title>\\Firesphere\\SolrSearch\\Traits\\GetterSetterTrait</title>
<polygon fill="none" stroke="#000000" points="738.2549,-654.703 607.2549,-654.703 607.2549,-618.703 738.2549,-618.703 738.2549,-654.703"/>
<text text-anchor="middle" x="672.7549" y="-633.903" font-family="Courier,monospace" font-size="11.00" fill="#000000">GetterSetterTrait</text>
</g>
<!-- \\Firesphere\\SolrSearch\\Traits\\DataResolveTrait -->
<g id="node44" class="node">
<title>\\Firesphere\\SolrSearch\\Traits\\DataResolveTrait</title>
<polygon fill="none" stroke="#000000" points="735.2549,-600.703 610.2549,-600.703 610.2549,-564.703 735.2549,-564.703 735.2549,-600.703"/>
<text text-anchor="middle" x="672.7549" y="-579.903" font-family="Courier,monospace" font-size="11.00" fill="#000000">DataResolveTrait</text>
</g>
<!-- \\Firesphere\\SolrSearch\\Helpers\\Synonyms -->
<g id="node45" class="node">
<title>\\Firesphere\\SolrSearch\\Helpers\\Synonyms</title>
<polygon fill="none" stroke="#000000" points="708.2549,-520.703 637.2549,-520.703 637.2549,-484.703 708.2549,-484.703 708.2549,-520.703"/>
<text text-anchor="middle" x="672.7549" y="-499.903" font-family="Courier,monospace" font-size="11.00" fill="#000000">Synonyms</text>
</g>
<!-- \\Firesphere\\SolrSearch\\Helpers\\SolrLogger -->
<g id="node46" class="node">
<title>\\Firesphere\\SolrSearch\\Helpers\\SolrLogger</title>
<polygon fill="none" stroke="#000000" points="714.7549,-466.703 630.7549,-466.703 630.7549,-430.703 714.7549,-430.703 714.7549,-466.703"/>
<text text-anchor="middle" x="672.7549" y="-445.903" font-family="Courier,monospace" font-size="11.00" fill="#000000">SolrLogger</text>
</g>
<!-- \\Firesphere\\SolrSearch\\Helpers\\Statics -->
<g id="node47" class="node">
<title>\\Firesphere\\SolrSearch\\Helpers\\Statics</title>
<polygon fill="none" stroke="#000000" points="704.7549,-412.703 640.7549,-412.703 640.7549,-376.703 704.7549,-376.703 704.7549,-412.703"/>
<text text-anchor="middle" x="672.7549" y="-391.903" font-family="Courier,monospace" font-size="11.00" fill="#000000">Statics</text>
</g>
<!-- \\Firesphere\\SolrSearch\\Helpers\\DataResolver -->
<g id="node48" class="node">
<title>\\Firesphere\\SolrSearch\\Helpers\\DataResolver</title>
<polygon fill="none" stroke="#000000" points="721.7549,-358.703 623.7549,-358.703 623.7549,-322.703 721.7549,-322.703 721.7549,-358.703"/>
<text text-anchor="middle" x="672.7549" y="-337.903" font-family="Courier,monospace" font-size="11.00" fill="#000000">DataResolver</text>
</g>
<!-- \\Firesphere\\SolrSearch\\Helpers\\FieldResolver -->
<g id="node49" class="node">
<title>\\Firesphere\\SolrSearch\\Helpers\\FieldResolver</title>
<polygon fill="none" stroke="#000000" points="724.7549,-304.703 620.7549,-304.703 620.7549,-268.703 724.7549,-268.703 724.7549,-304.703"/>
<text text-anchor="middle" x="672.7549" y="-283.903" font-family="Courier,monospace" font-size="11.00" fill="#000000">FieldResolver</text>
</g>
<!-- \\Firesphere\\SolrSearch\\Indexes\\BaseIndex -->
<g id="node50" class="node">
<title>\\Firesphere\\SolrSearch\\Indexes\\BaseIndex</title>
<polygon fill="none" stroke="#000000" points="714.7549,-224.703 630.7549,-224.703 630.7549,-188.703 714.7549,-188.703 714.7549,-224.703"/>
<text text-anchor="start" x="638.7549" y="-209.903" font-family="Courier,monospace" font-size="11.00" fill="#000000">abstract</text>
<text text-anchor="start" x="642.2549" y="-197.903" font-family="Courier,monospace" font-size="11.00" fill="#000000">BaseIndex</text>
</g>
<!-- \\Firesphere\\SolrFluent\\Extensions\\FluentSchemaExtension -->
<g id="node51" class="node">
<title>\\Firesphere\\SolrFluent\\Extensions\\FluentSchemaExtension</title>
<polygon fill="none" stroke="#000000" points="1005.7549,-776.703 847.7549,-776.703 847.7549,-740.703 1005.7549,-740.703 1005.7549,-776.703"/>
<text text-anchor="middle" x="926.7549" y="-755.903" font-family="Courier,monospace" font-size="11.00" fill="#000000">FluentSchemaExtension</text>
</g>
<!-- \\Firesphere\\SolrFluent\\Extensions\\FluentSchemaExtension&#45;&gt;\\SilverStripe\\Core\\Extension -->
<g id="edge25" class="edge">
<title>\\Firesphere\\SolrFluent\\Extensions\\FluentSchemaExtension&#45;&gt;\\SilverStripe\\Core\\Extension</title>
<path fill="none" stroke="#000000" d="M847.6545,-750.3431C837.5372,-746.1133 828.28,-740.1228 821.2549,-731.703 740.3328,-634.7152 863.7592,-260.3484 781.2549,-164.703 748.9961,-127.306 708.9397,-174.3158 672.7549,-140.703"/>
</g>
<!-- \\Firesphere\\SolrFluent\\Extensions\\FluentDocumentExtension -->
<g id="node52" class="node">
<title>\\Firesphere\\SolrFluent\\Extensions\\FluentDocumentExtension</title>
<polygon fill="none" stroke="#000000" points="1012.7549,-722.703 840.7549,-722.703 840.7549,-686.703 1012.7549,-686.703 1012.7549,-722.703"/>
<text text-anchor="middle" x="926.7549" y="-701.903" font-family="Courier,monospace" font-size="11.00" fill="#000000">FluentDocumentExtension</text>
</g>
<!-- \\Firesphere\\SolrFluent\\Extensions\\FluentDocumentExtension&#45;&gt;\\SilverStripe\\Core\\Extension -->
<g id="edge26" class="edge">
<title>\\Firesphere\\SolrFluent\\Extensions\\FluentDocumentExtension&#45;&gt;\\SilverStripe\\Core\\Extension</title>
<path fill="none" stroke="#000000" d="M879.1415,-686.6786C857.7901,-676.0531 834.4799,-660.3716 821.2549,-638.703 766.185,-548.4731 850.8493,-244.2689 781.2549,-164.703 748.7396,-127.5288 708.9397,-174.3158 672.7549,-140.703"/>
<path fill="none" stroke="#000000" d="M672.7549,-140.703C657.2907,-126.3379 528.3246,-52.2378 508.2549,-45.703 475.4252,-35.0133 439.0725,-28.3276 404.3721,-24.1994"/>
<polygon fill="none" stroke="#000000" points="404.4777,-20.6893 394.1493,-23.0503 403.6957,-27.6455 404.4777,-20.6893"/>
</g>
<!-- \\Firesphere\\SolrFluent\\Extensions\\FluentIndexExtension -->
<g id="node53" class="node">
<title>\\Firesphere\\SolrFluent\\Extensions\\FluentIndexExtension</title>
<polygon fill="none" stroke="#000000" points="1002.7549,-830.703 850.7549,-830.703 850.7549,-794.703 1002.7549,-794.703 1002.7549,-830.703"/>
<text text-anchor="middle" x="926.7549" y="-809.903" font-family="Courier,monospace" font-size="11.00" fill="#000000">FluentIndexExtension</text>
</g>
<!-- \\Firesphere\\SolrFluent\\Extensions\\FluentIndexExtension&#45;&gt;\\SilverStripe\\Core\\Extension -->
<g id="edge27" class="edge">
<title>\\Firesphere\\SolrFluent\\Extensions\\FluentIndexExtension&#45;&gt;\\SilverStripe\\Core\\Extension</title>
<path fill="none" stroke="#000000" d="M850.507,-805.5392C839.2706,-801.2628 828.918,-794.9446 821.2549,-785.703 732.9871,-679.252 871.2594,-269.6897 781.2549,-164.703 749.1104,-127.2077 708.9397,-174.3158 672.7549,-140.703"/>
</g>
<!-- \\Firesphere\\SolrFluent\\States\\FluentSiteState -->
<g id="node54" class="node">
<title>\\Firesphere\\SolrFluent\\States\\FluentSiteState</title>
<polygon fill="none" stroke="#000000" points="985.7549,-910.703 867.7549,-910.703 867.7549,-874.703 985.7549,-874.703 985.7549,-910.703"/>
<text text-anchor="middle" x="926.7549" y="-889.903" font-family="Courier,monospace" font-size="11.00" fill="#000000">FluentSiteState</text>
</g>
<!-- \\Firesphere\\SolrFluent\\States\\FluentSiteState&#45;&gt;\\Firesphere\\SolrSearch\\States\\SiteState -->
<g id="edge28" class="edge">
<title>\\Firesphere\\SolrFluent\\States\\FluentSiteState&#45;&gt;\\Firesphere\\SolrSearch\\States\\SiteState</title>
<path fill="none" stroke="#000000" d="M891.9951,-910.7603C867.5749,-925.4901 836.6273,-948.7433 821.2549,-978.703 754.9866,-1107.8552 872.6617,-1517.935 781.2549,-1630.703 767.665,-1647.4688 745.6102,-1655.3525 724.9222,-1658.8972"/>
<polygon fill="none" stroke="#000000" points="724.332,-1655.4458 714.9192,-1660.3088 725.3102,-1662.3771 724.332,-1655.4458"/>
</g>
<!-- \\Firesphere\\SolrFluent\\States\\FluentSiteState&#45;&gt;\\Firesphere\\SolrSearch\\Interfaces\\SiteStateInterface -->
<g id="edge29" class="edge">
<title>\\Firesphere\\SolrFluent\\States\\FluentSiteState&#45;&gt;\\Firesphere\\SolrSearch\\Interfaces\\SiteStateInterface</title>
<path fill="none" stroke="#000000" stroke-dasharray="1,5" d="M867.4876,-888.7752C850.0199,-884.5842 832.5734,-876.8147 821.2549,-862.703 725.7123,-743.5815 888.8981,-285.0139 781.2549,-176.703 747.1916,-142.4283 721.0612,-168.4537 672.7549,-169.703"/>
<path fill="none" stroke="#000000" stroke-dasharray="1,5" d="M672.7549,-169.703C627.995,-170.8605 605.7809,-147.0247 572.2549,-176.703 317.2264,-402.462 262.5332,-1592.2798 255.0986,-1792.1854"/>
<polygon fill="none" stroke="#000000" points="251.5912,-1792.3285 254.7266,-1802.4487 258.5866,-1792.5821 251.5912,-1792.3285"/>
</g>
<!-- \\Firesphere\\SolrSubsites\\Extensions\\SubsitesExtension -->
<g id="node55" class="node">
<title>\\Firesphere\\SolrSubsites\\Extensions\\SubsitesExtension</title>
<polygon fill="none" stroke="#000000" points="992.2549,-1026.703 861.2549,-1026.703 861.2549,-990.703 992.2549,-990.703 992.2549,-1026.703"/>
<text text-anchor="middle" x="926.7549" y="-1005.903" font-family="Courier,monospace" font-size="11.00" fill="#000000">SubsitesExtension</text>
</g>
<!-- \\Firesphere\\SolrSubsites\\Extensions\\SubsitesExtension&#45;&gt;\\SilverStripe\\Core\\Extension -->
<g id="edge30" class="edge">
<title>\\Firesphere\\SolrSubsites\\Extensions\\SubsitesExtension&#45;&gt;\\SilverStripe\\Core\\Extension</title>
<path fill="none" stroke="#000000" d="M878.2804,-990.5953C857.0079,-980.0171 834.0131,-964.3995 821.2549,-942.703 777.3794,-868.0884 837.1654,-230.7818 781.2549,-164.703 749.354,-127.0003 708.9397,-174.3158 672.7549,-140.703"/>
</g>
<!-- \\Firesphere\\SolrSubsites\\States\\SubsiteState -->
<g id="node56" class="node">
<title>\\Firesphere\\SolrSubsites\\States\\SubsiteState</title>
<polygon fill="none" stroke="#000000" points="975.7549,-1106.703 877.7549,-1106.703 877.7549,-1070.703 975.7549,-1070.703 975.7549,-1106.703"/>
<text text-anchor="middle" x="926.7549" y="-1085.903" font-family="Courier,monospace" font-size="11.00" fill="#000000">SubsiteState</text>
</g>
<!-- \\Firesphere\\SolrSubsites\\States\\SubsiteState&#45;&gt;\\Firesphere\\SolrSearch\\States\\SiteState -->
<g id="edge31" class="edge">
<title>\\Firesphere\\SolrSubsites\\States\\SubsiteState&#45;&gt;\\Firesphere\\SolrSearch\\States\\SiteState</title>
<path fill="none" stroke="#000000" d="M924.3072,-1106.9135C912.47,-1192.3804 858.554,-1552.8226 781.2549,-1630.703 766.415,-1645.6545 744.8365,-1653.3338 724.8249,-1657.2142"/>
<polygon fill="none" stroke="#000000" points="724.1463,-1653.7789 714.8562,-1658.8724 725.295,-1660.684 724.1463,-1653.7789"/>
</g>
<!-- \\Firesphere\\SolrSubsites\\States\\SubsiteState&#45;&gt;\\Firesphere\\SolrSearch\\Interfaces\\SiteStateInterface -->
<g id="edge32" class="edge">
<title>\\Firesphere\\SolrSubsites\\States\\SubsiteState&#45;&gt;\\Firesphere\\SolrSearch\\Interfaces\\SiteStateInterface</title>
<path fill="none" stroke="#000000" stroke-dasharray="1,5" d="M877.5482,-1086.9179C856.9256,-1083.4666 834.6683,-1075.6498 821.2549,-1058.703 760.3715,-981.7811 849.9568,-246.7302 781.2549,-176.703 747.4137,-142.209 721.0612,-168.4537 672.7549,-169.703"/>
</g>
<!-- \\Firesphere\\SolrPermissions\\Extensions\\DataObjectExtension -->
<g id="node57" class="node">
<title>\\Firesphere\\SolrPermissions\\Extensions\\DataObjectExtension</title>
<polygon fill="none" stroke="#000000" points="999.2549,-606.703 854.2549,-606.703 854.2549,-570.703 999.2549,-570.703 999.2549,-606.703"/>
<text text-anchor="middle" x="926.7549" y="-585.903" font-family="Courier,monospace" font-size="11.00" fill="#000000">DataObjectExtension</text>
</g>
<!-- \\Firesphere\\SolrPermissions\\Extensions\\DataObjectExtension&#45;&gt;\\SilverStripe\\ORM\\DataExtension -->
<g id="edge33" class="edge">
<title>\\Firesphere\\SolrPermissions\\Extensions\\DataObjectExtension&#45;&gt;\\SilverStripe\\ORM\\DataExtension</title>
<path fill="none" stroke="#000000" d="M854.0027,-582.4539C841.515,-578.2078 829.8232,-571.6649 821.2549,-561.703 705.6153,-427.2553 898.02,-298.1743 781.2549,-164.703 734.821,-111.6254 558.0573,-89.1459 421.8851,-79.64"/>
<polygon fill="none" stroke="#000000" points="421.9553,-76.1368 411.7409,-78.9504 421.4805,-83.1207 421.9553,-76.1368"/>
</g>
<!-- \\Firesphere\\SolrPermissions\\Extensions\\SchemaFactoryExtension -->
<g id="node58" class="node">
<title>\\Firesphere\\SolrPermissions\\Extensions\\SchemaFactoryExtension</title>
<polygon fill="none" stroke="#000000" points="1009.2549,-552.703 844.2549,-552.703 844.2549,-516.703 1009.2549,-516.703 1009.2549,-552.703"/>
<text text-anchor="middle" x="926.7549" y="-531.903" font-family="Courier,monospace" font-size="11.00" fill="#000000">SchemaFactoryExtension</text>
</g>
<!-- \\Firesphere\\SolrPermissions\\Extensions\\SchemaFactoryExtension&#45;&gt;\\SilverStripe\\Core\\Extension -->
<g id="edge34" class="edge">
<title>\\Firesphere\\SolrPermissions\\Extensions\\SchemaFactoryExtension&#45;&gt;\\SilverStripe\\Core\\Extension</title>
<path fill="none" stroke="#000000" d="M844.2131,-524.5799C835.4865,-520.504 827.5266,-515.0267 821.2549,-507.703 760.9915,-437.3306 841.4476,-163.1358 781.2549,-92.703 748.8994,-54.8431 716.6475,-88.2335 672.7549,-64.703"/>
</g>
<!-- \\Firesphere\\SolrPermissions\\Extensions\\BaseIndexExtension -->
<g id="node59" class="node">
<title>\\Firesphere\\SolrPermissions\\Extensions\\BaseIndexExtension</title>
<polygon fill="none" stroke="#000000" points="995.7549,-498.703 857.7549,-498.703 857.7549,-462.703 995.7549,-462.703 995.7549,-498.703"/>
<text text-anchor="middle" x="926.7549" y="-477.903" font-family="Courier,monospace" font-size="11.00" fill="#000000">BaseIndexExtension</text>
</g>
<!-- \\Firesphere\\SolrPermissions\\Extensions\\BaseIndexExtension&#45;&gt;\\SilverStripe\\Core\\Extension -->
<g id="edge35" class="edge">
<title>\\Firesphere\\SolrPermissions\\Extensions\\BaseIndexExtension&#45;&gt;\\SilverStripe\\Core\\Extension</title>
<path fill="none" stroke="#000000" d="M857.5959,-475.525C843.796,-471.344 830.6721,-464.5555 821.2549,-453.703 714.2992,-330.4448 890.2208,-210.1876 781.2549,-88.703 748.2781,-51.9376 716.2824,-88.0378 672.7549,-64.703"/>
</g>
<!-- \\Firesphere\\SolrPermissions\\Extensions\\DocumentFactoryExtension -->
<g id="node60" class="node">
<title>\\Firesphere\\SolrPermissions\\Extensions\\DocumentFactoryExtension</title>
<polygon fill="none" stroke="#000000" points="1016.2549,-444.703 837.2549,-444.703 837.2549,-408.703 1016.2549,-408.703 1016.2549,-444.703"/>
<text text-anchor="middle" x="926.7549" y="-423.903" font-family="Courier,monospace" font-size="11.00" fill="#000000">DocumentFactoryExtension</text>
</g>
<!-- \\Firesphere\\SolrPermissions\\Extensions\\DocumentFactoryExtension&#45;&gt;\\SilverStripe\\Core\\Extension -->
<g id="edge36" class="edge">
<title>\\Firesphere\\SolrPermissions\\Extensions\\DocumentFactoryExtension&#45;&gt;\\SilverStripe\\Core\\Extension</title>
<path fill="none" stroke="#000000" d="M880.2653,-408.583C858.9063,-397.8656 835.2615,-382.1334 821.2549,-360.703 754.4057,-258.4222 864.5042,-178.1442 781.2549,-88.703 747.6062,-52.5515 716.2824,-88.0378 672.7549,-64.703"/>
</g>
<!-- \\SilverStripe\\FullTextSearch\\Solr\\Solr -->
<g id="node61" class="node">
<title>\\SilverStripe\\FullTextSearch\\Solr\\Solr</title>
<polygon fill="none" stroke="#000000" points="953.7549,-3170.703 899.7549,-3170.703 899.7549,-3134.703 953.7549,-3134.703 953.7549,-3170.703"/>
<text text-anchor="middle" x="926.7549" y="-3149.903" font-family="Courier,monospace" font-size="11.00" fill="#000000">Solr</text>
</g>
<!-- \\SilverStripe\\FullTextSearch\\Solr\\SolrIndex -->
<g id="node62" class="node">
<title>\\SilverStripe\\FullTextSearch\\Solr\\SolrIndex</title>
<polygon fill="none" stroke="#000000" points="968.7549,-3116.703 884.7549,-3116.703 884.7549,-3080.703 968.7549,-3080.703 968.7549,-3116.703"/>
<text text-anchor="start" x="892.7549" y="-3101.903" font-family="Courier,monospace" font-size="11.00" fill="#000000">abstract</text>
<text text-anchor="start" x="896.2549" y="-3089.903" font-family="Courier,monospace" font-size="11.00" fill="#000000">SolrIndex</text>
</g>
<!-- \\SilverStripe\\FullTextSearch\\Solr\\SolrIndex&#45;&gt;\\Firesphere\\SolrSearch\\Indexes\\BaseIndex -->
<g id="edge5" class="edge">
<title>\\SilverStripe\\FullTextSearch\\Solr\\SolrIndex&#45;&gt;\\Firesphere\\SolrSearch\\Indexes\\BaseIndex</title>
<path fill="none" stroke="#000000" d="M925.7066,-3080.3298C917.3756,-2934.1079 861.17,-1943.6358 821.2549,-1138.703 816.3962,-1040.7226 836.0092,-338.1015 781.2549,-256.703 768.2044,-237.3019 745.6072,-225.2919 724.4022,-217.9257"/>
<polygon fill="none" stroke="#000000" points="725.3874,-214.5662 714.7966,-214.8581 723.2578,-221.2344 725.3874,-214.5662"/>
</g>
<!-- \\SilverStripe\\FullTextSearch\\Search\\Queries\\SearchQuery -->
<g id="node63" class="node">
<title>\\SilverStripe\\FullTextSearch\\Search\\Queries\\SearchQuery</title>
<polygon fill="none" stroke="#000000" points="972.2549,-3258.703 881.2549,-3258.703 881.2549,-3222.703 972.2549,-3222.703 972.2549,-3258.703"/>
<text text-anchor="middle" x="926.7549" y="-3237.903" font-family="Courier,monospace" font-size="11.00" fill="#000000">SearchQuery</text>
</g>
<!-- \\SilverStripe\\FullTextSearch\\Search\\Queries\\SearchQuery&#45;&gt;\\Firesphere\\SolrSearch\\Queries\\BaseQuery -->
<g id="edge4" class="edge">
<title>\\SilverStripe\\FullTextSearch\\Search\\Queries\\SearchQuery&#45;&gt;\\Firesphere\\SolrSearch\\Queries\\BaseQuery</title>
<path fill="none" stroke="#000000" d="M881.1567,-3235.8432C859.4703,-3231.0333 835.2741,-3221.5119 821.2549,-3202.703 726.2852,-3075.2868 870.653,-2620.0883 781.2549,-2488.703 767.4323,-2468.3884 743.1672,-2456.1679 721.0848,-2448.9007"/>
<polygon fill="none" stroke="#000000" points="722.0508,-2445.5363 711.4657,-2445.9897 720.0231,-2452.2363 722.0508,-2445.5363"/>
</g>
</g>
</svg>
