<?xml version="1.0" encoding="UTF-8" standalone="no"?>
<!DOCTYPE svg PUBLIC "-//W3C//DTD SVG 1.1//EN"
 "http://www.w3.org/Graphics/SVG/1.1/DTD/svg11.dtd">
<!-- Generated by graphviz version 2.40.1 (20161225.0304)
 -->
<!-- Title: G Pages: 1 -->
<svg width="1064pt" height="3721pt"
 viewBox="0.00 0.00 1064.25 3721.46" xmlns="http://www.w3.org/2000/svg" xmlns:xlink="http://www.w3.org/1999/xlink">
<g id="graph0" class="graph" transform="scale(1 1) rotate(0) translate(4 3717.4551)">
<title>G</title>
<polygon fill="#ffffff" stroke="transparent" points="-4,4 -4,-3717.4551 1060.2549,-3717.4551 1060.2549,4 -4,4"/>
<g id="clust1" class="cluster">
<title>cluster_Global</title>
<path fill="none" stroke="#c0c0c0" d="M165.1275,-152.57C165.1275,-152.57 1036.2549,-152.57 1036.2549,-152.57 1042.2549,-152.57 1048.2549,-158.57 1048.2549,-164.57 1048.2549,-164.57 1048.2549,-3386.57 1048.2549,-3386.57 1048.2549,-3392.57 1042.2549,-3398.57 1036.2549,-3398.57 1036.2549,-3398.57 165.1275,-3398.57 165.1275,-3398.57 159.1275,-3398.57 153.1275,-3392.57 153.1275,-3386.57 153.1275,-3386.57 153.1275,-164.57 153.1275,-164.57 153.1275,-158.57 159.1275,-152.57 165.1275,-152.57"/>
<text text-anchor="middle" x="600.6912" y="-3385.77" font-family="Times,serif" font-size="11.00" fill="#c0c0c0">Global</text>
</g>
<g id="clust2" class="cluster">
<title>cluster_\SilverStripe</title>
<path fill="none" stroke="#c0c0c0" d="M861.2549,-3056.57C861.2549,-3056.57 992.2549,-3056.57 992.2549,-3056.57 998.2549,-3056.57 1004.2549,-3062.57 1004.2549,-3068.57 1004.2549,-3068.57 1004.2549,-3358.57 1004.2549,-3358.57 1004.2549,-3364.57 998.2549,-3370.57 992.2549,-3370.57 992.2549,-3370.57 861.2549,-3370.57 861.2549,-3370.57 855.2549,-3370.57 849.2549,-3364.57 849.2549,-3358.57 849.2549,-3358.57 849.2549,-3068.57 849.2549,-3068.57 849.2549,-3062.57 855.2549,-3056.57 861.2549,-3056.57"/>
<text text-anchor="middle" x="926.7549" y="-3357.77" font-family="Times,serif" font-size="11.00" fill="#c0c0c0">SilverStripe</text>
</g>
<g id="clust3" class="cluster">
<title>cluster_\SilverStripe\FullTextSearch</title>
<path fill="none" stroke="#c0c0c0" d="M869.2549,-3064.57C869.2549,-3064.57 984.2549,-3064.57 984.2549,-3064.57 990.2549,-3064.57 996.2549,-3070.57 996.2549,-3076.57 996.2549,-3076.57 996.2549,-3330.57 996.2549,-3330.57 996.2549,-3336.57 990.2549,-3342.57 984.2549,-3342.57 984.2549,-3342.57 869.2549,-3342.57 869.2549,-3342.57 863.2549,-3342.57 857.2549,-3336.57 857.2549,-3330.57 857.2549,-3330.57 857.2549,-3076.57 857.2549,-3076.57 857.2549,-3070.57 863.2549,-3064.57 869.2549,-3064.57"/>
<text text-anchor="middle" x="926.7549" y="-3329.77" font-family="Times,serif" font-size="11.00" fill="#c0c0c0">FullTextSearch</text>
</g>
<g id="clust4" class="cluster">
<title>cluster_\SilverStripe\FullTextSearch\Solr</title>
<path fill="none" stroke="#c0c0c0" d="M888.7549,-3188.57C888.7549,-3188.57 964.7549,-3188.57 964.7549,-3188.57 970.7549,-3188.57 976.7549,-3194.57 976.7549,-3200.57 976.7549,-3200.57 976.7549,-3302.57 976.7549,-3302.57 976.7549,-3308.57 970.7549,-3314.57 964.7549,-3314.57 964.7549,-3314.57 888.7549,-3314.57 888.7549,-3314.57 882.7549,-3314.57 876.7549,-3308.57 876.7549,-3302.57 876.7549,-3302.57 876.7549,-3200.57 876.7549,-3200.57 876.7549,-3194.57 882.7549,-3188.57 888.7549,-3188.57"/>
<text text-anchor="middle" x="926.7549" y="-3301.77" font-family="Times,serif" font-size="11.00" fill="#c0c0c0">Solr</text>
</g>
<g id="clust5" class="cluster">
<title>cluster_\SilverStripe\FullTextSearch\Search</title>
<path fill="none" stroke="#c0c0c0" d="M877.2549,-3072.57C877.2549,-3072.57 976.2549,-3072.57 976.2549,-3072.57 982.2549,-3072.57 988.2549,-3078.57 988.2549,-3084.57 988.2549,-3084.57 988.2549,-3168.57 988.2549,-3168.57 988.2549,-3174.57 982.2549,-3180.57 976.2549,-3180.57 976.2549,-3180.57 877.2549,-3180.57 877.2549,-3180.57 871.2549,-3180.57 865.2549,-3174.57 865.2549,-3168.57 865.2549,-3168.57 865.2549,-3084.57 865.2549,-3084.57 865.2549,-3078.57 871.2549,-3072.57 877.2549,-3072.57"/>
<text text-anchor="middle" x="926.7549" y="-3167.77" font-family="Times,serif" font-size="11.00" fill="#c0c0c0">Search</text>
</g>
<g id="clust6" class="cluster">
<title>cluster_\SilverStripe\FullTextSearch\Search\Queries</title>
<path fill="none" stroke="#c0c0c0" d="M885.2549,-3080.57C885.2549,-3080.57 968.2549,-3080.57 968.2549,-3080.57 974.2549,-3080.57 980.2549,-3086.57 980.2549,-3092.57 980.2549,-3092.57 980.2549,-3140.57 980.2549,-3140.57 980.2549,-3146.57 974.2549,-3152.57 968.2549,-3152.57 968.2549,-3152.57 885.2549,-3152.57 885.2549,-3152.57 879.2549,-3152.57 873.2549,-3146.57 873.2549,-3140.57 873.2549,-3140.57 873.2549,-3092.57 873.2549,-3092.57 873.2549,-3086.57 879.2549,-3080.57 885.2549,-3080.57"/>
<text text-anchor="middle" x="926.7549" y="-3139.77" font-family="Times,serif" font-size="11.00" fill="#c0c0c0">Queries</text>
</g>
<g id="clust7" class="cluster">
<title>cluster_\Firesphere</title>
<path fill="none" stroke="#c0c0c0" d="M173.1275,-160.57C173.1275,-160.57 1028.2549,-160.57 1028.2549,-160.57 1034.2549,-160.57 1040.2549,-166.57 1040.2549,-172.57 1040.2549,-172.57 1040.2549,-3036.57 1040.2549,-3036.57 1040.2549,-3042.57 1034.2549,-3048.57 1028.2549,-3048.57 1028.2549,-3048.57 173.1275,-3048.57 173.1275,-3048.57 167.1275,-3048.57 161.1275,-3042.57 161.1275,-3036.57 161.1275,-3036.57 161.1275,-172.57 161.1275,-172.57 161.1275,-166.57 167.1275,-160.57 173.1275,-160.57"/>
<text text-anchor="middle" x="600.6912" y="-3035.77" font-family="Times,serif" font-size="11.00" fill="#c0c0c0">Firesphere</text>
</g>
<g id="clust8" class="cluster">
<title>cluster_\Firesphere\SolrCompatibility</title>
<path fill="none" stroke="#c0c0c0" d="M833.2549,-168.57C833.2549,-168.57 1020.2549,-168.57 1020.2549,-168.57 1026.2549,-168.57 1032.2549,-174.57 1032.2549,-180.57 1032.2549,-180.57 1032.2549,-318.57 1032.2549,-318.57 1032.2549,-324.57 1026.2549,-330.57 1020.2549,-330.57 1020.2549,-330.57 833.2549,-330.57 833.2549,-330.57 827.2549,-330.57 821.2549,-324.57 821.2549,-318.57 821.2549,-318.57 821.2549,-180.57 821.2549,-180.57 821.2549,-174.57 827.2549,-168.57 833.2549,-168.57"/>
<text text-anchor="middle" x="926.7549" y="-317.77" font-family="Times,serif" font-size="11.00" fill="#c0c0c0">SolrCompatibility</text>
</g>
<g id="clust9" class="cluster">
<title>cluster_\Firesphere\SolrCompatibility\Extensions</title>
<path fill="none" stroke="#c0c0c0" d="M841.2549,-176.57C841.2549,-176.57 1012.2549,-176.57 1012.2549,-176.57 1018.2549,-176.57 1024.2549,-182.57 1024.2549,-188.57 1024.2549,-188.57 1024.2549,-290.57 1024.2549,-290.57 1024.2549,-296.57 1018.2549,-302.57 1012.2549,-302.57 1012.2549,-302.57 841.2549,-302.57 841.2549,-302.57 835.2549,-302.57 829.2549,-296.57 829.2549,-290.57 829.2549,-290.57 829.2549,-188.57 829.2549,-188.57 829.2549,-182.57 835.2549,-176.57 841.2549,-176.57"/>
<text text-anchor="middle" x="926.7549" y="-289.77" font-family="Times,serif" font-size="11.00" fill="#c0c0c0">Extensions</text>
</g>
<g id="clust10" class="cluster">
<title>cluster_\Firesphere\SolrSearch</title>
<path fill="none" stroke="#c0c0c0" d="M181.1275,-172.57C181.1275,-172.57 769.2549,-172.57 769.2549,-172.57 775.2549,-172.57 781.2549,-178.57 781.2549,-184.57 781.2549,-184.57 781.2549,-3008.57 781.2549,-3008.57 781.2549,-3014.57 775.2549,-3020.57 769.2549,-3020.57 769.2549,-3020.57 181.1275,-3020.57 181.1275,-3020.57 175.1275,-3020.57 169.1275,-3014.57 169.1275,-3008.57 169.1275,-3008.57 169.1275,-184.57 169.1275,-184.57 169.1275,-178.57 175.1275,-172.57 181.1275,-172.57"/>
<text text-anchor="middle" x="475.1912" y="-3007.77" font-family="Times,serif" font-size="11.00" fill="#c0c0c0">SolrSearch</text>
</g>
<g id="clust11" class="cluster">
<title>cluster_\Firesphere\SolrSearch\Interfaces</title>
<path fill="none" stroke="#c0c0c0" d="M189.1275,-180.57C189.1275,-180.57 319.1275,-180.57 319.1275,-180.57 325.1275,-180.57 331.1275,-186.57 331.1275,-192.57 331.1275,-192.57 331.1275,-294.57 331.1275,-294.57 331.1275,-300.57 325.1275,-306.57 319.1275,-306.57 319.1275,-306.57 189.1275,-306.57 189.1275,-306.57 183.1275,-306.57 177.1275,-300.57 177.1275,-294.57 177.1275,-294.57 177.1275,-192.57 177.1275,-192.57 177.1275,-186.57 183.1275,-180.57 189.1275,-180.57"/>
<text text-anchor="middle" x="254.1275" y="-293.77" font-family="Times,serif" font-size="11.00" fill="#c0c0c0">Interfaces</text>
</g>
<g id="clust12" class="cluster">
<title>cluster_\Firesphere\SolrSearch\Forms</title>
<path fill="none" stroke="#c0c0c0" d="M634.7549,-2920.57C634.7549,-2920.57 710.7549,-2920.57 710.7549,-2920.57 716.7549,-2920.57 722.7549,-2926.57 722.7549,-2932.57 722.7549,-2932.57 722.7549,-2980.57 722.7549,-2980.57 722.7549,-2986.57 716.7549,-2992.57 710.7549,-2992.57 710.7549,-2992.57 634.7549,-2992.57 634.7549,-2992.57 628.7549,-2992.57 622.7549,-2986.57 622.7549,-2980.57 622.7549,-2980.57 622.7549,-2932.57 622.7549,-2932.57 622.7549,-2926.57 628.7549,-2920.57 634.7549,-2920.57"/>
<text text-anchor="middle" x="672.7549" y="-2979.77" font-family="Times,serif" font-size="11.00" fill="#c0c0c0">Forms</text>
</g>
<g id="clust13" class="cluster">
<title>cluster_\Firesphere\SolrSearch\Queries</title>
<path fill="none" stroke="#c0c0c0" d="M638.2549,-2840.57C638.2549,-2840.57 707.2549,-2840.57 707.2549,-2840.57 713.2549,-2840.57 719.2549,-2846.57 719.2549,-2852.57 719.2549,-2852.57 719.2549,-2900.57 719.2549,-2900.57 719.2549,-2906.57 713.2549,-2912.57 707.2549,-2912.57 707.2549,-2912.57 638.2549,-2912.57 638.2549,-2912.57 632.2549,-2912.57 626.2549,-2906.57 626.2549,-2900.57 626.2549,-2900.57 626.2549,-2852.57 626.2549,-2852.57 626.2549,-2846.57 632.2549,-2840.57 638.2549,-2840.57"/>
<text text-anchor="middle" x="672.7549" y="-2899.77" font-family="Times,serif" font-size="11.00" fill="#c0c0c0">Queries</text>
</g>
<g id="clust14" class="cluster">
<title>cluster_\Firesphere\SolrSearch\Results</title>
<path fill="none" stroke="#c0c0c0" d="M627.7549,-2760.57C627.7549,-2760.57 717.7549,-2760.57 717.7549,-2760.57 723.7549,-2760.57 729.7549,-2766.57 729.7549,-2772.57 729.7549,-2772.57 729.7549,-2820.57 729.7549,-2820.57 729.7549,-2826.57 723.7549,-2832.57 717.7549,-2832.57 717.7549,-2832.57 627.7549,-2832.57 627.7549,-2832.57 621.7549,-2832.57 615.7549,-2826.57 615.7549,-2820.57 615.7549,-2820.57 615.7549,-2772.57 615.7549,-2772.57 615.7549,-2766.57 621.7549,-2760.57 627.7549,-2760.57"/>
<text text-anchor="middle" x="672.7549" y="-2819.77" font-family="Times,serif" font-size="11.00" fill="#c0c0c0">Results</text>
</g>
<g id="clust15" class="cluster">
<title>cluster_\Firesphere\SolrSearch\Indexes</title>
<path fill="none" stroke="#c0c0c0" d="M634.7549,-2680.57C634.7549,-2680.57 710.7549,-2680.57 710.7549,-2680.57 716.7549,-2680.57 722.7549,-2686.57 722.7549,-2692.57 722.7549,-2692.57 722.7549,-2740.57 722.7549,-2740.57 722.7549,-2746.57 716.7549,-2752.57 710.7549,-2752.57 710.7549,-2752.57 634.7549,-2752.57 634.7549,-2752.57 628.7549,-2752.57 622.7549,-2746.57 622.7549,-2740.57 622.7549,-2740.57 622.7549,-2692.57 622.7549,-2692.57 622.7549,-2686.57 628.7549,-2680.57 634.7549,-2680.57"/>
<text text-anchor="middle" x="672.7549" y="-2739.77" font-family="Times,serif" font-size="11.00" fill="#c0c0c0">Indexes</text>
</g>
<g id="clust16" class="cluster">
<title>cluster_\Firesphere\SolrSearch\States</title>
<path fill="none" stroke="#c0c0c0" d="M634.7549,-2600.57C634.7549,-2600.57 710.7549,-2600.57 710.7549,-2600.57 716.7549,-2600.57 722.7549,-2606.57 722.7549,-2612.57 722.7549,-2612.57 722.7549,-2660.57 722.7549,-2660.57 722.7549,-2666.57 716.7549,-2672.57 710.7549,-2672.57 710.7549,-2672.57 634.7549,-2672.57 634.7549,-2672.57 628.7549,-2672.57 622.7549,-2666.57 622.7549,-2660.57 622.7549,-2660.57 622.7549,-2612.57 622.7549,-2612.57 622.7549,-2606.57 628.7549,-2600.57 634.7549,-2600.57"/>
<text text-anchor="middle" x="672.7549" y="-2659.77" font-family="Times,serif" font-size="11.00" fill="#c0c0c0">States</text>
</g>
<g id="clust17" class="cluster">
<title>cluster_\Firesphere\SolrSearch\Traits</title>
<path fill="none" stroke="#c0c0c0" d="M584.2549,-1710.57C584.2549,-1710.57 761.2549,-1710.57 761.2549,-1710.57 767.2549,-1710.57 773.2549,-1716.57 773.2549,-1722.57 773.2549,-1722.57 773.2549,-2580.57 773.2549,-2580.57 773.2549,-2586.57 767.2549,-2592.57 761.2549,-2592.57 761.2549,-2592.57 584.2549,-2592.57 584.2549,-2592.57 578.2549,-2592.57 572.2549,-2586.57 572.2549,-2580.57 572.2549,-2580.57 572.2549,-1722.57 572.2549,-1722.57 572.2549,-1716.57 578.2549,-1710.57 584.2549,-1710.57"/>
<text text-anchor="middle" x="672.7549" y="-2579.77" font-family="Times,serif" font-size="11.00" fill="#c0c0c0">Traits</text>
</g>
<g id="clust18" class="cluster">
<title>cluster_\Firesphere\SolrSearch\Factories</title>
<path fill="none" stroke="#c0c0c0" d="M597.7549,-1522.57C597.7549,-1522.57 747.7549,-1522.57 747.7549,-1522.57 753.7549,-1522.57 759.7549,-1528.57 759.7549,-1534.57 759.7549,-1534.57 759.7549,-1690.57 759.7549,-1690.57 759.7549,-1696.57 753.7549,-1702.57 747.7549,-1702.57 747.7549,-1702.57 597.7549,-1702.57 597.7549,-1702.57 591.7549,-1702.57 585.7549,-1696.57 585.7549,-1690.57 585.7549,-1690.57 585.7549,-1534.57 585.7549,-1534.57 585.7549,-1528.57 591.7549,-1522.57 597.7549,-1522.57"/>
<text text-anchor="middle" x="672.7549" y="-1689.77" font-family="Times,serif" font-size="11.00" fill="#c0c0c0">Factories</text>
</g>
<g id="clust19" class="cluster">
<title>cluster_\Firesphere\SolrSearch\Extensions</title>
<path fill="none" stroke="#c0c0c0" d="M604.2549,-1388.57C604.2549,-1388.57 741.2549,-1388.57 741.2549,-1388.57 747.2549,-1388.57 753.2549,-1394.57 753.2549,-1400.57 753.2549,-1400.57 753.2549,-1502.57 753.2549,-1502.57 753.2549,-1508.57 747.2549,-1514.57 741.2549,-1514.57 741.2549,-1514.57 604.2549,-1514.57 604.2549,-1514.57 598.2549,-1514.57 592.2549,-1508.57 592.2549,-1502.57 592.2549,-1502.57 592.2549,-1400.57 592.2549,-1400.57 592.2549,-1394.57 598.2549,-1388.57 604.2549,-1388.57"/>
<text text-anchor="middle" x="672.7549" y="-1501.77" font-family="Times,serif" font-size="11.00" fill="#c0c0c0">Extensions</text>
</g>
<g id="clust20" class="cluster">
<title>cluster_\Firesphere\SolrSearch\Services</title>
<path fill="none" stroke="#c0c0c0" d="M617.7549,-1308.57C617.7549,-1308.57 727.7549,-1308.57 727.7549,-1308.57 733.7549,-1308.57 739.7549,-1314.57 739.7549,-1320.57 739.7549,-1320.57 739.7549,-1368.57 739.7549,-1368.57 739.7549,-1374.57 733.7549,-1380.57 727.7549,-1380.57 727.7549,-1380.57 617.7549,-1380.57 617.7549,-1380.57 611.7549,-1380.57 605.7549,-1374.57 605.7549,-1368.57 605.7549,-1368.57 605.7549,-1320.57 605.7549,-1320.57 605.7549,-1314.57 611.7549,-1308.57 617.7549,-1308.57"/>
<text text-anchor="middle" x="672.7549" y="-1367.77" font-family="Times,serif" font-size="11.00" fill="#c0c0c0">Services</text>
</g>
<g id="clust21" class="cluster">
<title>cluster_\Firesphere\SolrSearch\Tasks</title>
<path fill="none" stroke="#c0c0c0" d="M597.7549,-1066.57C597.7549,-1066.57 747.7549,-1066.57 747.7549,-1066.57 753.7549,-1066.57 759.7549,-1072.57 759.7549,-1078.57 759.7549,-1078.57 759.7549,-1288.57 759.7549,-1288.57 759.7549,-1294.57 753.7549,-1300.57 747.7549,-1300.57 747.7549,-1300.57 597.7549,-1300.57 597.7549,-1300.57 591.7549,-1300.57 585.7549,-1294.57 585.7549,-1288.57 585.7549,-1288.57 585.7549,-1078.57 585.7549,-1078.57 585.7549,-1072.57 591.7549,-1066.57 597.7549,-1066.57"/>
<text text-anchor="middle" x="672.7549" y="-1287.77" font-family="Times,serif" font-size="11.00" fill="#c0c0c0">Tasks</text>
</g>
<g id="clust22" class="cluster">
<title>cluster_\Firesphere\SolrSearch\Helpers</title>
<path fill="none" stroke="#c0c0c0" d="M624.7549,-770.57C624.7549,-770.57 720.7549,-770.57 720.7549,-770.57 726.7549,-770.57 732.7549,-776.57 732.7549,-782.57 732.7549,-782.57 732.7549,-1046.57 732.7549,-1046.57 732.7549,-1052.57 726.7549,-1058.57 720.7549,-1058.57 720.7549,-1058.57 624.7549,-1058.57 624.7549,-1058.57 618.7549,-1058.57 612.7549,-1052.57 612.7549,-1046.57 612.7549,-1046.57 612.7549,-782.57 612.7549,-782.57 612.7549,-776.57 618.7549,-770.57 624.7549,-770.57"/>
<text text-anchor="middle" x="672.7549" y="-1045.77" font-family="Times,serif" font-size="11.00" fill="#c0c0c0">Helpers</text>
</g>
<g id="clust23" class="cluster">
<title>cluster_\Firesphere\SolrSearch\Jobs</title>
<path fill="none" stroke="#c0c0c0" d="M600.7549,-582.57C600.7549,-582.57 744.7549,-582.57 744.7549,-582.57 750.7549,-582.57 756.7549,-588.57 756.7549,-594.57 756.7549,-594.57 756.7549,-750.57 756.7549,-750.57 756.7549,-756.57 750.7549,-762.57 744.7549,-762.57 744.7549,-762.57 600.7549,-762.57 600.7549,-762.57 594.7549,-762.57 588.7549,-756.57 588.7549,-750.57 588.7549,-750.57 588.7549,-594.57 588.7549,-594.57 588.7549,-588.57 594.7549,-582.57 600.7549,-582.57"/>
<text text-anchor="middle" x="672.7549" y="-749.77" font-family="Times,serif" font-size="11.00" fill="#c0c0c0">Jobs</text>
</g>
<g id="clust24" class="cluster">
<title>cluster_\Firesphere\SolrSearch\Stores</title>
<path fill="none" stroke="#c0c0c0" d="M617.7549,-180.57C617.7549,-180.57 727.7549,-180.57 727.7549,-180.57 733.7549,-180.57 739.7549,-186.57 739.7549,-192.57 739.7549,-192.57 739.7549,-294.57 739.7549,-294.57 739.7549,-300.57 733.7549,-306.57 727.7549,-306.57 727.7549,-306.57 617.7549,-306.57 617.7549,-306.57 611.7549,-306.57 605.7549,-300.57 605.7549,-294.57 605.7549,-294.57 605.7549,-192.57 605.7549,-192.57 605.7549,-186.57 611.7549,-180.57 617.7549,-180.57"/>
<text text-anchor="middle" x="672.7549" y="-293.77" font-family="Times,serif" font-size="11.00" fill="#c0c0c0">Stores</text>
</g>
<g id="clust25" class="cluster">
<title>cluster_\Firesphere\SolrSearch\Models</title>
<path fill="none" stroke="#c0c0c0" d="M624.7549,-394.57C624.7549,-394.57 720.7549,-394.57 720.7549,-394.57 726.7549,-394.57 732.7549,-400.57 732.7549,-406.57 732.7549,-406.57 732.7549,-562.57 732.7549,-562.57 732.7549,-568.57 726.7549,-574.57 720.7549,-574.57 720.7549,-574.57 624.7549,-574.57 624.7549,-574.57 618.7549,-574.57 612.7549,-568.57 612.7549,-562.57 612.7549,-562.57 612.7549,-406.57 612.7549,-406.57 612.7549,-400.57 618.7549,-394.57 624.7549,-394.57"/>
<text text-anchor="middle" x="672.7549" y="-561.77" font-family="Times,serif" font-size="11.00" fill="#c0c0c0">Models</text>
</g>
<g id="clust26" class="cluster">
<title>cluster_\Firesphere\SolrSearch\Admins</title>
<path fill="none" stroke="#c0c0c0" d="M631.2549,-314.57C631.2549,-314.57 714.2549,-314.57 714.2549,-314.57 720.2549,-314.57 726.2549,-320.57 726.2549,-326.57 726.2549,-326.57 726.2549,-374.57 726.2549,-374.57 726.2549,-380.57 720.2549,-386.57 714.2549,-386.57 714.2549,-386.57 631.2549,-386.57 631.2549,-386.57 625.2549,-386.57 619.2549,-380.57 619.2549,-374.57 619.2549,-374.57 619.2549,-326.57 619.2549,-326.57 619.2549,-320.57 625.2549,-314.57 631.2549,-314.57"/>
<text text-anchor="middle" x="672.7549" y="-373.77" font-family="Times,serif" font-size="11.00" fill="#c0c0c0">Admins</text>
</g>
<g id="clust27" class="cluster">
<title>cluster_\Firesphere\SolrFluent</title>
<path fill="none" stroke="#c0c0c0" d="M836.7549,-616.57C836.7549,-616.57 1016.7549,-616.57 1016.7549,-616.57 1022.7549,-616.57 1028.7549,-622.57 1028.7549,-628.57 1028.7549,-628.57 1028.7549,-900.57 1028.7549,-900.57 1028.7549,-906.57 1022.7549,-912.57 1016.7549,-912.57 1016.7549,-912.57 836.7549,-912.57 836.7549,-912.57 830.7549,-912.57 824.7549,-906.57 824.7549,-900.57 824.7549,-900.57 824.7549,-628.57 824.7549,-628.57 824.7549,-622.57 830.7549,-616.57 836.7549,-616.57"/>
<text text-anchor="middle" x="926.7549" y="-899.77" font-family="Times,serif" font-size="11.00" fill="#c0c0c0">SolrFluent</text>
</g>
<g id="clust28" class="cluster">
<title>cluster_\Firesphere\SolrFluent\States</title>
<path fill="none" stroke="#c0c0c0" d="M871.7549,-812.57C871.7549,-812.57 981.7549,-812.57 981.7549,-812.57 987.7549,-812.57 993.7549,-818.57 993.7549,-824.57 993.7549,-824.57 993.7549,-872.57 993.7549,-872.57 993.7549,-878.57 987.7549,-884.57 981.7549,-884.57 981.7549,-884.57 871.7549,-884.57 871.7549,-884.57 865.7549,-884.57 859.7549,-878.57 859.7549,-872.57 859.7549,-872.57 859.7549,-824.57 859.7549,-824.57 859.7549,-818.57 865.7549,-812.57 871.7549,-812.57"/>
<text text-anchor="middle" x="926.7549" y="-871.77" font-family="Times,serif" font-size="11.00" fill="#c0c0c0">States</text>
</g>
<g id="clust29" class="cluster">
<title>cluster_\Firesphere\SolrFluent\Extensions</title>
<path fill="none" stroke="#c0c0c0" d="M844.7549,-624.57C844.7549,-624.57 1008.7549,-624.57 1008.7549,-624.57 1014.7549,-624.57 1020.7549,-630.57 1020.7549,-636.57 1020.7549,-636.57 1020.7549,-792.57 1020.7549,-792.57 1020.7549,-798.57 1014.7549,-804.57 1008.7549,-804.57 1008.7549,-804.57 844.7549,-804.57 844.7549,-804.57 838.7549,-804.57 832.7549,-798.57 832.7549,-792.57 832.7549,-792.57 832.7549,-636.57 832.7549,-636.57 832.7549,-630.57 838.7549,-624.57 844.7549,-624.57"/>
<text text-anchor="middle" x="926.7549" y="-791.77" font-family="Times,serif" font-size="11.00" fill="#c0c0c0">Extensions</text>
</g>
<g id="clust30" class="cluster">
<title>cluster_\Firesphere\SolrSubsites</title>
<path fill="none" stroke="#c0c0c0" d="M857.2549,-920.57C857.2549,-920.57 996.2549,-920.57 996.2549,-920.57 1002.2549,-920.57 1008.2549,-926.57 1008.2549,-932.57 1008.2549,-932.57 1008.2549,-1096.57 1008.2549,-1096.57 1008.2549,-1102.57 1002.2549,-1108.57 996.2549,-1108.57 996.2549,-1108.57 857.2549,-1108.57 857.2549,-1108.57 851.2549,-1108.57 845.2549,-1102.57 845.2549,-1096.57 845.2549,-1096.57 845.2549,-932.57 845.2549,-932.57 845.2549,-926.57 851.2549,-920.57 857.2549,-920.57"/>
<text text-anchor="middle" x="926.7549" y="-1095.77" font-family="Times,serif" font-size="11.00" fill="#c0c0c0">SolrSubsites</text>
</g>
<g id="clust31" class="cluster">
<title>cluster_\Firesphere\SolrSubsites\States</title>
<path fill="none" stroke="#c0c0c0" d="M881.7549,-1008.57C881.7549,-1008.57 971.7549,-1008.57 971.7549,-1008.57 977.7549,-1008.57 983.7549,-1014.57 983.7549,-1020.57 983.7549,-1020.57 983.7549,-1068.57 983.7549,-1068.57 983.7549,-1074.57 977.7549,-1080.57 971.7549,-1080.57 971.7549,-1080.57 881.7549,-1080.57 881.7549,-1080.57 875.7549,-1080.57 869.7549,-1074.57 869.7549,-1068.57 869.7549,-1068.57 869.7549,-1020.57 869.7549,-1020.57 869.7549,-1014.57 875.7549,-1008.57 881.7549,-1008.57"/>
<text text-anchor="middle" x="926.7549" y="-1067.77" font-family="Times,serif" font-size="11.00" fill="#c0c0c0">States</text>
</g>
<g id="clust32" class="cluster">
<title>cluster_\Firesphere\SolrSubsites\Extensions</title>
<path fill="none" stroke="#c0c0c0" d="M865.2549,-928.57C865.2549,-928.57 988.2549,-928.57 988.2549,-928.57 994.2549,-928.57 1000.2549,-934.57 1000.2549,-940.57 1000.2549,-940.57 1000.2549,-988.57 1000.2549,-988.57 1000.2549,-994.57 994.2549,-1000.57 988.2549,-1000.57 988.2549,-1000.57 865.2549,-1000.57 865.2549,-1000.57 859.2549,-1000.57 853.2549,-994.57 853.2549,-988.57 853.2549,-988.57 853.2549,-940.57 853.2549,-940.57 853.2549,-934.57 859.2549,-928.57 865.2549,-928.57"/>
<text text-anchor="middle" x="926.7549" y="-987.77" font-family="Times,serif" font-size="11.00" fill="#c0c0c0">Extensions</text>
</g>
<g id="clust33" class="cluster">
<title>cluster_\Firesphere\SolrPermissions</title>
<path fill="none" stroke="#c0c0c0" d="M833.2549,-338.57C833.2549,-338.57 1020.2549,-338.57 1020.2549,-338.57 1026.2549,-338.57 1032.2549,-344.57 1032.2549,-350.57 1032.2549,-350.57 1032.2549,-596.57 1032.2549,-596.57 1032.2549,-602.57 1026.2549,-608.57 1020.2549,-608.57 1020.2549,-608.57 833.2549,-608.57 833.2549,-608.57 827.2549,-608.57 821.2549,-602.57 821.2549,-596.57 821.2549,-596.57 821.2549,-350.57 821.2549,-350.57 821.2549,-344.57 827.2549,-338.57 833.2549,-338.57"/>
<text text-anchor="middle" x="926.7549" y="-595.77" font-family="Times,serif" font-size="11.00" fill="#c0c0c0">SolrPermissions</text>
</g>
<g id="clust34" class="cluster">
<title>cluster_\Firesphere\SolrPermissions\Extensions</title>
<path fill="none" stroke="#c0c0c0" d="M841.2549,-346.57C841.2549,-346.57 1012.2549,-346.57 1012.2549,-346.57 1018.2549,-346.57 1024.2549,-352.57 1024.2549,-358.57 1024.2549,-358.57 1024.2549,-568.57 1024.2549,-568.57 1024.2549,-574.57 1018.2549,-580.57 1012.2549,-580.57 1012.2549,-580.57 841.2549,-580.57 841.2549,-580.57 835.2549,-580.57 829.2549,-574.57 829.2549,-568.57 829.2549,-568.57 829.2549,-358.57 829.2549,-358.57 829.2549,-352.57 835.2549,-346.57 841.2549,-346.57"/>
<text text-anchor="middle" x="926.7549" y="-567.77" font-family="Times,serif" font-size="11.00" fill="#c0c0c0">Extensions</text>
</g>
<!-- \\SilverStripe\\FullTextSearch\\Solr\\SolrIndex -->
<g id="node1" class="node">
<title>\\SilverStripe\\FullTextSearch\\Solr\\SolrIndex</title>
<polygon fill="none" stroke="#000000" points="968.7549,-3286.57 884.7549,-3286.57 884.7549,-3250.57 968.7549,-3250.57 968.7549,-3286.57"/>
<text text-anchor="start" x="892.7549" y="-3271.77" font-family="Courier,monospace" font-size="11.00" fill="#000000">«abstract»</text>
<text text-anchor="start" x="896.2549" y="-3259.77" font-family="Courier,monospace" font-size="11.00" fill="#000000">SolrIndex</text>
</g>
<!-- \\Firesphere\\SolrSearch\\Indexes\\BaseIndex -->
<g id="node11" class="node">
<title>\\Firesphere\\SolrSearch\\Indexes\\BaseIndex</title>
<polygon fill="none" stroke="#000000" points="714.7549,-2724.57 630.7549,-2724.57 630.7549,-2688.57 714.7549,-2688.57 714.7549,-2724.57"/>
<text text-anchor="start" x="638.7549" y="-2709.77" font-family="Courier,monospace" font-size="11.00" fill="#000000">«abstract»</text>
<text text-anchor="start" x="642.2549" y="-2697.77" font-family="Courier,monospace" font-size="11.00" fill="#000000">BaseIndex</text>
</g>
<!-- \\SilverStripe\\FullTextSearch\\Solr\\SolrIndex&#45;&gt;\\Firesphere\\SolrSearch\\Indexes\\BaseIndex -->
<g id="edge1" class="edge">
<title>\\SilverStripe\\FullTextSearch\\Solr\\SolrIndex&#45;&gt;\\Firesphere\\SolrSearch\\Indexes\\BaseIndex</title>
<path fill="none" stroke="#000000" d="M884.6589,-3268.834C862.4219,-3266.5957 836.6245,-3259.7706 821.2549,-3241.57 751.4819,-3158.9456 843.2628,-2845.1707 781.2549,-2756.57 767.8996,-2737.4872 745.3823,-2725.5249 724.3114,-2718.1082"/>
<polygon fill="none" stroke="#000000" points="725.3621,-2714.7695 714.77,-2715.0111 723.2008,-2721.4276 725.3621,-2714.7695"/>
</g>
<!-- \\SilverStripe\\FullTextSearch\\Solr\\Solr -->
<g id="node2" class="node">
<title>\\SilverStripe\\FullTextSearch\\Solr\\Solr</title>
<polygon fill="none" stroke="#000000" points="953.7549,-3232.57 899.7549,-3232.57 899.7549,-3196.57 953.7549,-3196.57 953.7549,-3232.57"/>
<text text-anchor="middle" x="926.7549" y="-3211.77" font-family="Courier,monospace" font-size="11.00" fill="#000000">Solr</text>
</g>
<!-- \\SilverStripe\\FullTextSearch\\Search\\Queries\\SearchQuery -->
<g id="node3" class="node">
<title>\\SilverStripe\\FullTextSearch\\Search\\Queries\\SearchQuery</title>
<polygon fill="none" stroke="#000000" points="972.2549,-3124.57 881.2549,-3124.57 881.2549,-3088.57 972.2549,-3088.57 972.2549,-3124.57"/>
<text text-anchor="middle" x="926.7549" y="-3103.77" font-family="Courier,monospace" font-size="11.00" fill="#000000">SearchQuery</text>
</g>
<!-- \\Firesphere\\SolrSearch\\Queries\\BaseQuery -->
<g id="node9" class="node">
<title>\\Firesphere\\SolrSearch\\Queries\\BaseQuery</title>
<polygon fill="none" stroke="#000000" points="711.2549,-2884.57 634.2549,-2884.57 634.2549,-2848.57 711.2549,-2848.57 711.2549,-2884.57"/>
<text text-anchor="middle" x="672.7549" y="-2863.77" font-family="Courier,monospace" font-size="11.00" fill="#000000">BaseQuery</text>
</g>
<!-- \\SilverStripe\\FullTextSearch\\Search\\Queries\\SearchQuery&#45;&gt;\\Firesphere\\SolrSearch\\Queries\\BaseQuery -->
<g id="edge4" class="edge">
<title>\\SilverStripe\\FullTextSearch\\Search\\Queries\\SearchQuery&#45;&gt;\\Firesphere\\SolrSearch\\Queries\\BaseQuery</title>
<path fill="none" stroke="#000000" d="M917.0044,-3088.5325C896.356,-3051.7843 844.853,-2967.4281 781.2549,-2916.57 763.4368,-2902.3213 740.8986,-2891.086 720.9864,-2882.9052"/>
<polygon fill="none" stroke="#000000" points="722.0409,-2879.5585 711.4545,-2879.1347 719.466,-2886.0677 722.0409,-2879.5585"/>
</g>
<!-- \\Firesphere\\SolrCompatibility\\Extensions\\FulltextSearchExtension -->
<g id="node4" class="node">
<title>\\Firesphere\\SolrCompatibility\\Extensions\\FulltextSearchExtension</title>
<polygon fill="none" stroke="#000000" points="1012.7549,-220.57 840.7549,-220.57 840.7549,-184.57 1012.7549,-184.57 1012.7549,-220.57"/>
<text text-anchor="middle" x="926.7549" y="-199.77" font-family="Courier,monospace" font-size="11.00" fill="#000000">FulltextSearchExtension</text>
</g>
<!-- \\SilverStripe\\Core\\Extension -->
<g id="node63" class="node">
<title>\\SilverStripe\\Core\\Extension</title>
<ellipse fill="none" stroke="#000000" cx="254.1275" cy="-18.57" rx="144.0747" ry="18"/>
<text text-anchor="middle" x="254.1275" y="-14.87" font-family="Times,serif" font-size="14.00" fill="#c0c0c0">\SilverStripe\Core\Extension</text>
</g>
<!-- \\Firesphere\\SolrCompatibility\\Extensions\\FulltextSearchExtension&#45;&gt;\\SilverStripe\\Core\\Extension -->
<g id="edge2" class="edge">
<title>\\Firesphere\\SolrCompatibility\\Extensions\\FulltextSearchExtension&#45;&gt;\\SilverStripe\\Core\\Extension</title>
<path fill="none" stroke="#000000" d="M897.7118,-184.464C869.069,-167.3259 823.5604,-141.99 781.2549,-126.57 734.8533,-109.6571 712.9958,-131.2028 672.7549,-102.57"/>
<path fill="none" stroke="#000000" d="M672.7549,-102.57C596.3562,-48.2098 493.2511,-27.0612 408.4834,-19.5757"/>
<polygon fill="none" stroke="#000000" points="408.7583,-16.0865 398.5036,-18.7496 408.1807,-23.0627 408.7583,-16.0865"/>
</g>
<!-- \\Firesphere\\SolrCompatibility\\Extensions\\SolrCoreServiceExtension -->
<g id="node5" class="node">
<title>\\Firesphere\\SolrCompatibility\\Extensions\\SolrCoreServiceExtension</title>
<polygon fill="none" stroke="#000000" points="1016.2549,-274.57 837.2549,-274.57 837.2549,-238.57 1016.2549,-238.57 1016.2549,-274.57"/>
<text text-anchor="middle" x="926.7549" y="-253.77" font-family="Courier,monospace" font-size="11.00" fill="#000000">SolrCoreServiceExtension</text>
</g>
<!-- \\Firesphere\\SolrCompatibility\\Extensions\\SolrCoreServiceExtension&#45;&gt;\\SilverStripe\\Core\\Extension -->
<g id="edge3" class="edge">
<title>\\Firesphere\\SolrCompatibility\\Extensions\\SolrCoreServiceExtension&#45;&gt;\\SilverStripe\\Core\\Extension</title>
<path fill="none" stroke="#000000" d="M837.1938,-240.4942C831.4573,-237.4433 826.0644,-233.835 821.2549,-229.57 784.5121,-196.9875 818.5279,-158.5447 781.2549,-126.57 743.7699,-94.4136 712.9958,-131.2028 672.7549,-102.57"/>
</g>
<!-- \\Firesphere\\SolrSearch\\Interfaces\\SiteStateInterface -->
<g id="node6" class="node">
<title>\\Firesphere\\SolrSearch\\Interfaces\\SiteStateInterface</title>
<polygon fill="none" stroke="#000000" points="323.1275,-224.57 185.1275,-224.57 185.1275,-188.57 323.1275,-188.57 323.1275,-224.57"/>
<text text-anchor="middle" x="254.1275" y="-203.77" font-family="Courier,monospace" font-size="11.00" fill="#000000">SiteStateInterface</text>
</g>
<!-- \\Firesphere\\SolrSearch\\Interfaces\\ConfigStore -->
<g id="node7" class="node">
<title>\\Firesphere\\SolrSearch\\Interfaces\\ConfigStore</title>
<polygon fill="none" stroke="#000000" points="299.6275,-278.57 208.6275,-278.57 208.6275,-242.57 299.6275,-242.57 299.6275,-278.57"/>
<text text-anchor="middle" x="254.1275" y="-257.77" font-family="Courier,monospace" font-size="11.00" fill="#000000">ConfigStore</text>
</g>
<!-- \\Firesphere\\SolrSearch\\Forms\\SearchForm -->
<g id="node8" class="node">
<title>\\Firesphere\\SolrSearch\\Forms\\SearchForm</title>
<polygon fill="none" stroke="#000000" points="714.7549,-2964.57 630.7549,-2964.57 630.7549,-2928.57 714.7549,-2928.57 714.7549,-2964.57"/>
<text text-anchor="middle" x="672.7549" y="-2943.77" font-family="Courier,monospace" font-size="11.00" fill="#000000">SearchForm</text>
</g>
<!-- \\SilverStripe\\Forms\\Form -->
<g id="node64" class="node">
<title>\\SilverStripe\\Forms\\Form</title>
<ellipse fill="none" stroke="#000000" cx="254.1275" cy="-126.57" rx="129.1772" ry="18"/>
<text text-anchor="middle" x="254.1275" y="-122.87" font-family="Times,serif" font-size="14.00" fill="#c0c0c0">\SilverStripe\Forms\Form</text>
</g>
<!-- \\Firesphere\\SolrSearch\\Forms\\SearchForm&#45;&gt;\\SilverStripe\\Forms\\Form -->
<g id="edge5" class="edge">
<title>\\Firesphere\\SolrSearch\\Forms\\SearchForm&#45;&gt;\\SilverStripe\\Forms\\Form</title>
<path fill="none" stroke="#000000" d="M630.5667,-2945.1066C609.5766,-2941.993 585.8453,-2934.3721 572.2549,-2916.57 479.8609,-2795.5428 606.3389,-293.0337 508.2549,-176.57 477.8965,-140.5229 429.7998,-125.6111 383.5781,-120.5707"/>
<polygon fill="none" stroke="#000000" points="383.7256,-117.0692 373.4415,-119.6162 383.0693,-124.0383 383.7256,-117.0692"/>
</g>
<!-- \\Firesphere\\SolrSearch\\Results\\SearchResult -->
<g id="node10" class="node">
<title>\\Firesphere\\SolrSearch\\Results\\SearchResult</title>
<polygon fill="none" stroke="#000000" points="721.7549,-2804.57 623.7549,-2804.57 623.7549,-2768.57 721.7549,-2768.57 721.7549,-2804.57"/>
<text text-anchor="middle" x="672.7549" y="-2783.77" font-family="Courier,monospace" font-size="11.00" fill="#000000">SearchResult</text>
</g>
<!-- \\SilverStripe\\View\\ViewableData -->
<g id="node65" class="node">
<title>\\SilverStripe\\View\\ViewableData</title>
<ellipse fill="none" stroke="#000000" cx="254.1275" cy="-3694.57" rx="163.2712" ry="18"/>
<text text-anchor="middle" x="254.1275" y="-3690.87" font-family="Times,serif" font-size="14.00" fill="#c0c0c0">\SilverStripe\View\ViewableData</text>
</g>
<!-- \\Firesphere\\SolrSearch\\Results\\SearchResult&#45;&gt;\\SilverStripe\\View\\ViewableData -->
<g id="edge6" class="edge">
<title>\\Firesphere\\SolrSearch\\Results\\SearchResult&#45;&gt;\\SilverStripe\\View\\ViewableData</title>
<path fill="none" stroke="#000000" d="M623.6649,-2799.4627C604.4751,-2807.0618 584.2349,-2818.7932 572.2549,-2836.57 468.7477,-2990.1614 637.3089,-3534.7201 508.2549,-3667.57 467.0737,-3709.9625 399.9416,-3715.5479 345.0159,-3711.1529"/>
<polygon fill="none" stroke="#000000" points="345.1899,-3707.6542 334.9111,-3710.2228 344.5482,-3714.6248 345.1899,-3707.6542"/>
</g>
<!-- \\Firesphere\\SolrSearch\\States\\SiteState -->
<g id="node12" class="node">
<title>\\Firesphere\\SolrSearch\\States\\SiteState</title>
<polygon fill="none" stroke="#000000" points="714.7549,-2644.57 630.7549,-2644.57 630.7549,-2608.57 714.7549,-2608.57 714.7549,-2644.57"/>
<text text-anchor="start" x="638.7549" y="-2629.77" font-family="Courier,monospace" font-size="11.00" fill="#000000">«abstract»</text>
<text text-anchor="start" x="642.2549" y="-2617.77" font-family="Courier,monospace" font-size="11.00" fill="#000000">SiteState</text>
</g>
<!-- \\Firesphere\\SolrSearch\\Traits\\BaseIndexTrait -->
<g id="node13" class="node">
<title>\\Firesphere\\SolrSearch\\Traits\\BaseIndexTrait</title>
<polygon fill="none" stroke="#000000" points="728.2549,-2564.57 617.2549,-2564.57 617.2549,-2528.57 728.2549,-2528.57 728.2549,-2564.57"/>
<text text-anchor="middle" x="672.7549" y="-2543.77" font-family="Courier,monospace" font-size="11.00" fill="#000000">BaseIndexTrait</text>
</g>
<!-- \\Firesphere\\SolrSearch\\Traits\\SolrIndexTrait -->
<g id="node14" class="node">
<title>\\Firesphere\\SolrSearch\\Traits\\SolrIndexTrait</title>
<polygon fill="none" stroke="#000000" points="728.2549,-2510.57 617.2549,-2510.57 617.2549,-2474.57 728.2549,-2474.57 728.2549,-2510.57"/>
<text text-anchor="middle" x="672.7549" y="-2489.77" font-family="Courier,monospace" font-size="11.00" fill="#000000">SolrIndexTrait</text>
</g>
<!-- \\Firesphere\\SolrSearch\\Traits\\DocumentFactoryTrait -->
<g id="node15" class="node">
<title>\\Firesphere\\SolrSearch\\Traits\\DocumentFactoryTrait</title>
<polygon fill="none" stroke="#000000" points="748.7549,-2456.57 596.7549,-2456.57 596.7549,-2420.57 748.7549,-2420.57 748.7549,-2456.57"/>
<text text-anchor="middle" x="672.7549" y="-2435.77" font-family="Courier,monospace" font-size="11.00" fill="#000000">DocumentFactoryTrait</text>
</g>
<!-- \\Firesphere\\SolrSearch\\Traits\\SearchResultSetTrait -->
<g id="node16" class="node">
<title>\\Firesphere\\SolrSearch\\Traits\\SearchResultSetTrait</title>
<polygon fill="none" stroke="#000000" points="748.7549,-2402.57 596.7549,-2402.57 596.7549,-2366.57 748.7549,-2366.57 748.7549,-2402.57"/>
<text text-anchor="middle" x="672.7549" y="-2381.77" font-family="Courier,monospace" font-size="11.00" fill="#000000">SearchResultSetTrait</text>
</g>
<!-- \\Firesphere\\SolrSearch\\Traits\\SearchResultGetTrait -->
<g id="node17" class="node">
<title>\\Firesphere\\SolrSearch\\Traits\\SearchResultGetTrait</title>
<polygon fill="none" stroke="#000000" points="748.7549,-2348.57 596.7549,-2348.57 596.7549,-2312.57 748.7549,-2312.57 748.7549,-2348.57"/>
<text text-anchor="middle" x="672.7549" y="-2327.77" font-family="Courier,monospace" font-size="11.00" fill="#000000">SearchResultGetTrait</text>
</g>
<!-- \\Firesphere\\SolrSearch\\Traits\\GetSetSearchResolverTrait -->
<g id="node18" class="node">
<title>\\Firesphere\\SolrSearch\\Traits\\GetSetSearchResolverTrait</title>
<polygon fill="none" stroke="#000000" points="765.2549,-2294.57 580.2549,-2294.57 580.2549,-2258.57 765.2549,-2258.57 765.2549,-2294.57"/>
<text text-anchor="middle" x="672.7549" y="-2273.77" font-family="Courier,monospace" font-size="11.00" fill="#000000">GetSetSearchResolverTrait</text>
</g>
<!-- \\Firesphere\\SolrSearch\\Traits\\CoreServiceTrait -->
<g id="node19" class="node">
<title>\\Firesphere\\SolrSearch\\Traits\\CoreServiceTrait</title>
<polygon fill="none" stroke="#000000" points="735.2549,-2240.57 610.2549,-2240.57 610.2549,-2204.57 735.2549,-2204.57 735.2549,-2240.57"/>
<text text-anchor="middle" x="672.7549" y="-2219.77" font-family="Courier,monospace" font-size="11.00" fill="#000000">CoreServiceTrait</text>
</g>
<!-- \\Firesphere\\SolrSearch\\Traits\\CoreAdminTrait -->
<g id="node20" class="node">
<title>\\Firesphere\\SolrSearch\\Traits\\CoreAdminTrait</title>
<polygon fill="none" stroke="#000000" points="728.2549,-2186.57 617.2549,-2186.57 617.2549,-2150.57 728.2549,-2150.57 728.2549,-2186.57"/>
<text text-anchor="middle" x="672.7549" y="-2165.77" font-family="Courier,monospace" font-size="11.00" fill="#000000">CoreAdminTrait</text>
</g>
<!-- \\Firesphere\\SolrSearch\\Traits\\GetterSetterTrait -->
<g id="node21" class="node">
<title>\\Firesphere\\SolrSearch\\Traits\\GetterSetterTrait</title>
<polygon fill="none" stroke="#000000" points="738.2549,-2132.57 607.2549,-2132.57 607.2549,-2096.57 738.2549,-2096.57 738.2549,-2132.57"/>
<text text-anchor="middle" x="672.7549" y="-2111.77" font-family="Courier,monospace" font-size="11.00" fill="#000000">GetterSetterTrait</text>
</g>
<!-- \\Firesphere\\SolrSearch\\Traits\\DataResolveTrait -->
<g id="node22" class="node">
<title>\\Firesphere\\SolrSearch\\Traits\\DataResolveTrait</title>
<polygon fill="none" stroke="#000000" points="735.2549,-2078.57 610.2549,-2078.57 610.2549,-2042.57 735.2549,-2042.57 735.2549,-2078.57"/>
<text text-anchor="middle" x="672.7549" y="-2057.77" font-family="Courier,monospace" font-size="11.00" fill="#000000">DataResolveTrait</text>
</g>
<!-- \\Firesphere\\SolrSearch\\Traits\\LoggerTrait -->
<g id="node23" class="node">
<title>\\Firesphere\\SolrSearch\\Traits\\LoggerTrait</title>
<polygon fill="none" stroke="#000000" points="718.2549,-2024.57 627.2549,-2024.57 627.2549,-1988.57 718.2549,-1988.57 718.2549,-2024.57"/>
<text text-anchor="middle" x="672.7549" y="-2003.77" font-family="Courier,monospace" font-size="11.00" fill="#000000">LoggerTrait</text>
</g>
<!-- \\Firesphere\\SolrSearch\\Traits\\QueryComponentFilterTrait -->
<g id="node24" class="node">
<title>\\Firesphere\\SolrSearch\\Traits\\QueryComponentFilterTrait</title>
<polygon fill="none" stroke="#000000" points="765.2549,-1970.57 580.2549,-1970.57 580.2549,-1934.57 765.2549,-1934.57 765.2549,-1970.57"/>
<text text-anchor="middle" x="672.7549" y="-1949.77" font-family="Courier,monospace" font-size="11.00" fill="#000000">QueryComponentFilterTrait</text>
</g>
<!-- \\Firesphere\\SolrSearch\\Traits\\QueryComponentBoostTrait -->
<g id="node25" class="node">
<title>\\Firesphere\\SolrSearch\\Traits\\QueryComponentBoostTrait</title>
<polygon fill="none" stroke="#000000" points="762.2549,-1916.57 583.2549,-1916.57 583.2549,-1880.57 762.2549,-1880.57 762.2549,-1916.57"/>
<text text-anchor="middle" x="672.7549" y="-1895.77" font-family="Courier,monospace" font-size="11.00" fill="#000000">QueryComponentBoostTrait</text>
</g>
<!-- \\Firesphere\\SolrSearch\\Traits\\QueryComponentFacetTrait -->
<g id="node26" class="node">
<title>\\Firesphere\\SolrSearch\\Traits\\QueryComponentFacetTrait</title>
<polygon fill="none" stroke="#000000" points="762.2549,-1862.57 583.2549,-1862.57 583.2549,-1826.57 762.2549,-1826.57 762.2549,-1862.57"/>
<text text-anchor="middle" x="672.7549" y="-1841.77" font-family="Courier,monospace" font-size="11.00" fill="#000000">QueryComponentFacetTrait</text>
</g>
<!-- \\Firesphere\\SolrSearch\\Traits\\BaseQueryTrait -->
<g id="node27" class="node">
<title>\\Firesphere\\SolrSearch\\Traits\\BaseQueryTrait</title>
<polygon fill="none" stroke="#000000" points="728.2549,-1808.57 617.2549,-1808.57 617.2549,-1772.57 728.2549,-1772.57 728.2549,-1808.57"/>
<text text-anchor="middle" x="672.7549" y="-1787.77" font-family="Courier,monospace" font-size="11.00" fill="#000000">BaseQueryTrait</text>
</g>
<!-- \\Firesphere\\SolrSearch\\Traits\\GetSetSchemaFactoryTrait -->
<g id="node28" class="node">
<title>\\Firesphere\\SolrSearch\\Traits\\GetSetSchemaFactoryTrait</title>
<polygon fill="none" stroke="#000000" points="762.2549,-1754.57 583.2549,-1754.57 583.2549,-1718.57 762.2549,-1718.57 762.2549,-1754.57"/>
<text text-anchor="middle" x="672.7549" y="-1733.77" font-family="Courier,monospace" font-size="11.00" fill="#000000">GetSetSchemaFactoryTrait</text>
</g>
<!-- \\Firesphere\\SolrSearch\\Factories\\DocumentFactory -->
<g id="node29" class="node">
<title>\\Firesphere\\SolrSearch\\Factories\\DocumentFactory</title>
<polygon fill="none" stroke="#000000" points="731.7549,-1674.57 613.7549,-1674.57 613.7549,-1638.57 731.7549,-1638.57 731.7549,-1674.57"/>
<text text-anchor="middle" x="672.7549" y="-1653.77" font-family="Courier,monospace" font-size="11.00" fill="#000000">DocumentFactory</text>
</g>
<!-- \\Firesphere\\SolrSearch\\Factories\\QueryComponentFactory -->
<g id="node30" class="node">
<title>\\Firesphere\\SolrSearch\\Factories\\QueryComponentFactory</title>
<polygon fill="none" stroke="#000000" points="751.7549,-1620.57 593.7549,-1620.57 593.7549,-1584.57 751.7549,-1584.57 751.7549,-1620.57"/>
<text text-anchor="middle" x="672.7549" y="-1599.77" font-family="Courier,monospace" font-size="11.00" fill="#000000">QueryComponentFactory</text>
</g>
<!-- \\Firesphere\\SolrSearch\\Factories\\SchemaFactory -->
<g id="node31" class="node">
<title>\\Firesphere\\SolrSearch\\Factories\\SchemaFactory</title>
<polygon fill="none" stroke="#000000" points="724.7549,-1566.57 620.7549,-1566.57 620.7549,-1530.57 724.7549,-1530.57 724.7549,-1566.57"/>
<text text-anchor="middle" x="672.7549" y="-1545.77" font-family="Courier,monospace" font-size="11.00" fill="#000000">SchemaFactory</text>
</g>
<!-- \\Firesphere\\SolrSearch\\Factories\\SchemaFactory&#45;&gt;\\SilverStripe\\View\\ViewableData -->
<g id="edge7" class="edge">
<title>\\Firesphere\\SolrSearch\\Factories\\SchemaFactory&#45;&gt;\\SilverStripe\\View\\ViewableData</title>
<path fill="none" stroke="#000000" d="M620.6072,-1550.2888C602.5071,-1553.6873 583.8588,-1560.9071 572.2549,-1575.57 427.9411,-1757.9282 666.3915,-3497.0597 508.2549,-3667.57 467.2135,-3711.8228 398.0327,-3716.6693 342.2066,-3711.4936"/>
<polygon fill="none" stroke="#000000" points="342.2583,-3707.9799 331.9478,-3710.4178 341.5282,-3714.9418 342.2583,-3707.9799"/>
</g>
<!-- \\Firesphere\\SolrSearch\\Extensions\\GridFieldExtension -->
<g id="node32" class="node">
<title>\\Firesphere\\SolrSearch\\Extensions\\GridFieldExtension</title>
<polygon fill="none" stroke="#000000" points="741.7549,-1432.57 603.7549,-1432.57 603.7549,-1396.57 741.7549,-1396.57 741.7549,-1432.57"/>
<text text-anchor="middle" x="672.7549" y="-1411.77" font-family="Courier,monospace" font-size="11.00" fill="#000000">GridFieldExtension</text>
</g>
<!-- \\Firesphere\\SolrSearch\\Extensions\\GridFieldExtension&#45;&gt;\\SilverStripe\\Core\\Extension -->
<g id="edge8" class="edge">
<title>\\Firesphere\\SolrSearch\\Extensions\\GridFieldExtension&#45;&gt;\\SilverStripe\\Core\\Extension</title>
<path fill="none" stroke="#000000" d="M603.6442,-1406.161C591.504,-1401.5902 580.2246,-1394.7495 572.2549,-1384.57 480.4351,-1267.2904 610.4738,-153.9061 508.2549,-45.57 466.2464,-1.0476 395.7068,3.3278 339.59,-2.1022"/>
<polygon fill="none" stroke="#000000" points="339.2119,1.3774 329.6472,-3.1797 339.9661,-5.5818 339.2119,1.3774"/>
</g>
<!-- \\Firesphere\\SolrSearch\\Extensions\\DataObjectExtension -->
<g id="node33" class="node">
<title>\\Firesphere\\SolrSearch\\Extensions\\DataObjectExtension</title>
<polygon fill="none" stroke="#000000" points="745.2549,-1486.57 600.2549,-1486.57 600.2549,-1450.57 745.2549,-1450.57 745.2549,-1486.57"/>
<text text-anchor="middle" x="672.7549" y="-1465.77" font-family="Courier,monospace" font-size="11.00" fill="#000000">DataObjectExtension</text>
</g>
<!-- \\SilverStripe\\ORM\\DataExtension -->
<g id="node66" class="node">
<title>\\SilverStripe\\ORM\\DataExtension</title>
<ellipse fill="none" stroke="#000000" cx="254.1275" cy="-72.57" rx="167.8704" ry="18"/>
<text text-anchor="middle" x="254.1275" y="-68.87" font-family="Times,serif" font-size="14.00" fill="#c0c0c0">\SilverStripe\ORM\DataExtension</text>
</g>
<!-- \\Firesphere\\SolrSearch\\Extensions\\DataObjectExtension&#45;&gt;\\SilverStripe\\ORM\\DataExtension -->
<g id="edge9" class="edge">
<title>\\Firesphere\\SolrSearch\\Extensions\\DataObjectExtension&#45;&gt;\\SilverStripe\\ORM\\DataExtension</title>
<path fill="none" stroke="#000000" d="M600.1966,-1460.9853C589.4148,-1456.7656 579.5074,-1450.5754 572.2549,-1441.57 478.6212,-1325.3056 610.6965,-208.1537 508.2549,-99.57 467.3389,-56.2009 399.3512,-50.9242 343.989,-55.6983"/>
<polygon fill="none" stroke="#000000" points="343.4173,-52.2375 333.808,-56.6997 344.1026,-59.2039 343.4173,-52.2375"/>
</g>
<!-- \\Firesphere\\SolrSearch\\Services\\SolrCoreService -->
<g id="node34" class="node">
<title>\\Firesphere\\SolrSearch\\Services\\SolrCoreService</title>
<polygon fill="none" stroke="#000000" points="731.7549,-1352.57 613.7549,-1352.57 613.7549,-1316.57 731.7549,-1316.57 731.7549,-1352.57"/>
<text text-anchor="middle" x="672.7549" y="-1331.77" font-family="Courier,monospace" font-size="11.00" fill="#000000">SolrCoreService</text>
</g>
<!-- \\Firesphere\\SolrSearch\\Tasks\\SolrConfigureTask -->
<g id="node35" class="node">
<title>\\Firesphere\\SolrSearch\\Tasks\\SolrConfigureTask</title>
<polygon fill="none" stroke="#000000" points="738.2549,-1110.57 607.2549,-1110.57 607.2549,-1074.57 738.2549,-1074.57 738.2549,-1110.57"/>
<text text-anchor="middle" x="672.7549" y="-1089.77" font-family="Courier,monospace" font-size="11.00" fill="#000000">SolrConfigureTask</text>
</g>
<!-- \\SilverStripe\\Dev\\BuildTask -->
<g id="node67" class="node">
<title>\\SilverStripe\\Dev\\BuildTask</title>
<ellipse fill="none" stroke="#000000" cx="254.1275" cy="-3640.57" rx="139.9756" ry="18"/>
<text text-anchor="middle" x="254.1275" y="-3636.87" font-family="Times,serif" font-size="14.00" fill="#c0c0c0">\SilverStripe\Dev\BuildTask</text>
</g>
<!-- \\Firesphere\\SolrSearch\\Tasks\\SolrConfigureTask&#45;&gt;\\SilverStripe\\Dev\\BuildTask -->
<g id="edge10" class="edge">
<title>\\Firesphere\\SolrSearch\\Tasks\\SolrConfigureTask&#45;&gt;\\SilverStripe\\Dev\\BuildTask</title>
<path fill="none" stroke="#000000" d="M607.2031,-1097.5195C593.7078,-1101.6668 580.9726,-1108.4982 572.2549,-1119.57 486.5122,-1228.4667 602.2533,-3511.7144 508.2549,-3613.57 466.1733,-3659.1692 394.2272,-3663.0046 337.6055,-3657.0987"/>
<polygon fill="none" stroke="#000000" points="337.9187,-3653.6116 327.5821,-3655.9364 337.1124,-3660.565 337.9187,-3653.6116"/>
</g>
<!-- \\Firesphere\\SolrSearch\\Tasks\\SolrIndexTask -->
<g id="node36" class="node">
<title>\\Firesphere\\SolrSearch\\Tasks\\SolrIndexTask</title>
<polygon fill="none" stroke="#000000" points="724.7549,-1272.57 620.7549,-1272.57 620.7549,-1236.57 724.7549,-1236.57 724.7549,-1272.57"/>
<text text-anchor="middle" x="672.7549" y="-1251.77" font-family="Courier,monospace" font-size="11.00" fill="#000000">SolrIndexTask</text>
</g>
<!-- \\Firesphere\\SolrSearch\\Tasks\\SolrIndexTask&#45;&gt;\\SilverStripe\\Dev\\BuildTask -->
<g id="edge11" class="edge">
<title>\\Firesphere\\SolrSearch\\Tasks\\SolrIndexTask&#45;&gt;\\SilverStripe\\Dev\\BuildTask</title>
<path fill="none" stroke="#000000" d="M620.6036,-1268.2367C602.1561,-1275.8153 583.2699,-1287.3254 572.2549,-1304.57 503.1757,-1412.7176 595.3823,-3519.3541 508.2549,-3613.57 466.1265,-3659.1259 394.1847,-3662.9654 337.5766,-3657.0719"/>
<polygon fill="none" stroke="#000000" points="337.8919,-3653.5852 327.5558,-3655.9121 337.087,-3660.5387 337.8919,-3653.5852"/>
</g>
<!-- \\Firesphere\\SolrSearch\\Tasks\\ClearErrorsTask -->
<g id="node37" class="node">
<title>\\Firesphere\\SolrSearch\\Tasks\\ClearErrorsTask</title>
<polygon fill="none" stroke="#000000" points="731.7549,-1218.57 613.7549,-1218.57 613.7549,-1182.57 731.7549,-1182.57 731.7549,-1218.57"/>
<text text-anchor="middle" x="672.7549" y="-1197.77" font-family="Courier,monospace" font-size="11.00" fill="#000000">ClearErrorsTask</text>
</g>
<!-- \\Firesphere\\SolrSearch\\Tasks\\ClearErrorsTask&#45;&gt;\\SilverStripe\\Dev\\BuildTask -->
<g id="edge12" class="edge">
<title>\\Firesphere\\SolrSearch\\Tasks\\ClearErrorsTask&#45;&gt;\\SilverStripe\\Dev\\BuildTask</title>
<path fill="none" stroke="#000000" d="M613.7457,-1203.7335C597.9024,-1207.5937 582.3771,-1214.7298 572.2549,-1227.57 408.0696,-1435.8431 688.2293,-3418.7787 508.2549,-3613.57 466.1469,-3659.1448 394.2032,-3662.9825 337.5892,-3657.0836"/>
<polygon fill="none" stroke="#000000" points="337.9036,-3653.5967 327.5672,-3655.9227 337.098,-3660.5502 337.9036,-3653.5967"/>
</g>
<!-- \\Firesphere\\SolrSearch\\Tasks\\ClearDirtyClassesTask -->
<g id="node38" class="node">
<title>\\Firesphere\\SolrSearch\\Tasks\\ClearDirtyClassesTask</title>
<polygon fill="none" stroke="#000000" points="751.7549,-1164.57 593.7549,-1164.57 593.7549,-1128.57 751.7549,-1128.57 751.7549,-1164.57"/>
<text text-anchor="middle" x="672.7549" y="-1143.77" font-family="Courier,monospace" font-size="11.00" fill="#000000">ClearDirtyClassesTask</text>
</g>
<!-- \\Firesphere\\SolrSearch\\Tasks\\ClearDirtyClassesTask&#45;&gt;\\SilverStripe\\Dev\\BuildTask -->
<g id="edge13" class="edge">
<title>\\Firesphere\\SolrSearch\\Tasks\\ClearDirtyClassesTask&#45;&gt;\\SilverStripe\\Dev\\BuildTask</title>
<path fill="none" stroke="#000000" d="M593.601,-1156.8588C585.3758,-1160.9069 577.957,-1166.3324 572.2549,-1173.57 488.3372,-1280.0866 600.2477,-3513.9444 508.2549,-3613.57 466.1604,-3659.1573 394.2154,-3662.9938 337.5976,-3657.0913"/>
<polygon fill="none" stroke="#000000" points="337.9113,-3653.6043 327.5749,-3655.9297 337.1054,-3660.5578 337.9113,-3653.6043"/>
</g>
<!-- \\Firesphere\\SolrSearch\\Helpers\\SolrLogger -->
<g id="node39" class="node">
<title>\\Firesphere\\SolrSearch\\Helpers\\SolrLogger</title>
<polygon fill="none" stroke="#000000" points="714.7549,-1030.57 630.7549,-1030.57 630.7549,-994.57 714.7549,-994.57 714.7549,-1030.57"/>
<text text-anchor="middle" x="672.7549" y="-1009.77" font-family="Courier,monospace" font-size="11.00" fill="#000000">SolrLogger</text>
</g>
<!-- \\Firesphere\\SolrSearch\\Helpers\\Synonyms -->
<g id="node40" class="node">
<title>\\Firesphere\\SolrSearch\\Helpers\\Synonyms</title>
<polygon fill="none" stroke="#000000" points="708.2549,-976.57 637.2549,-976.57 637.2549,-940.57 708.2549,-940.57 708.2549,-976.57"/>
<text text-anchor="middle" x="672.7549" y="-955.77" font-family="Courier,monospace" font-size="11.00" fill="#000000">Synonyms</text>
</g>
<!-- \\Firesphere\\SolrSearch\\Helpers\\Statics -->
<g id="node41" class="node">
<title>\\Firesphere\\SolrSearch\\Helpers\\Statics</title>
<polygon fill="none" stroke="#000000" points="704.7549,-922.57 640.7549,-922.57 640.7549,-886.57 704.7549,-886.57 704.7549,-922.57"/>
<text text-anchor="middle" x="672.7549" y="-901.77" font-family="Courier,monospace" font-size="11.00" fill="#000000">Statics</text>
</g>
<!-- \\Firesphere\\SolrSearch\\Helpers\\FieldResolver -->
<g id="node42" class="node">
<title>\\Firesphere\\SolrSearch\\Helpers\\FieldResolver</title>
<polygon fill="none" stroke="#000000" points="724.7549,-868.57 620.7549,-868.57 620.7549,-832.57 724.7549,-832.57 724.7549,-868.57"/>
<text text-anchor="middle" x="672.7549" y="-847.77" font-family="Courier,monospace" font-size="11.00" fill="#000000">FieldResolver</text>
</g>
<!-- \\Firesphere\\SolrSearch\\Helpers\\DataResolver -->
<g id="node43" class="node">
<title>\\Firesphere\\SolrSearch\\Helpers\\DataResolver</title>
<polygon fill="none" stroke="#000000" points="721.7549,-814.57 623.7549,-814.57 623.7549,-778.57 721.7549,-778.57 721.7549,-814.57"/>
<text text-anchor="middle" x="672.7549" y="-793.77" font-family="Courier,monospace" font-size="11.00" fill="#000000">DataResolver</text>
</g>
<!-- \\Firesphere\\SolrSearch\\Jobs\\SolrIndexJob -->
<g id="node44" class="node">
<title>\\Firesphere\\SolrSearch\\Jobs\\SolrIndexJob</title>
<polygon fill="none" stroke="#000000" points="721.7549,-734.57 623.7549,-734.57 623.7549,-698.57 721.7549,-698.57 721.7549,-734.57"/>
<text text-anchor="middle" x="672.7549" y="-713.77" font-family="Courier,monospace" font-size="11.00" fill="#000000">SolrIndexJob</text>
</g>
<!-- \\Symbiote\\QueuedJobs\\Services\\AbstractQueuedJob -->
<g id="node68" class="node">
<title>\\Symbiote\\QueuedJobs\\Services\\AbstractQueuedJob</title>
<ellipse fill="none" stroke="#000000" cx="254.1275" cy="-3586.57" rx="254.255" ry="18"/>
<text text-anchor="middle" x="254.1275" y="-3582.87" font-family="Times,serif" font-size="14.00" fill="#c0c0c0">\Symbiote\QueuedJobs\Services\AbstractQueuedJob</text>
</g>
<!-- \\Firesphere\\SolrSearch\\Jobs\\SolrIndexJob&#45;&gt;\\Symbiote\\QueuedJobs\\Services\\AbstractQueuedJob -->
<g id="edge14" class="edge">
<title>\\Firesphere\\SolrSearch\\Jobs\\SolrIndexJob&#45;&gt;\\Symbiote\\QueuedJobs\\Services\\AbstractQueuedJob</title>
<path fill="none" stroke="#000000" d="M623.7181,-728.9489C604.2906,-736.487 583.8556,-748.3121 572.2549,-766.57 489.02,-897.5711 613.3589,-3445.3663 508.2549,-3559.57 469.505,-3601.6749 405.2984,-3608.2079 351.1204,-3604.3244"/>
<polygon fill="none" stroke="#000000" points="351.3875,-3600.8346 341.1293,-3603.4843 350.8009,-3607.81 351.3875,-3600.8346"/>
</g>
<!-- \\Firesphere\\SolrSearch\\Jobs\\SolrConfigureJob -->
<g id="node45" class="node">
<title>\\Firesphere\\SolrSearch\\Jobs\\SolrConfigureJob</title>
<polygon fill="none" stroke="#000000" points="735.2549,-680.57 610.2549,-680.57 610.2549,-644.57 735.2549,-644.57 735.2549,-680.57"/>
<text text-anchor="middle" x="672.7549" y="-659.77" font-family="Courier,monospace" font-size="11.00" fill="#000000">SolrConfigureJob</text>
</g>
<!-- \\Firesphere\\SolrSearch\\Jobs\\SolrConfigureJob&#45;&gt;\\Symbiote\\QueuedJobs\\Services\\AbstractQueuedJob -->
<g id="edge15" class="edge">
<title>\\Firesphere\\SolrSearch\\Jobs\\SolrConfigureJob&#45;&gt;\\Symbiote\\QueuedJobs\\Services\\AbstractQueuedJob</title>
<path fill="none" stroke="#000000" d="M610.0409,-666.6604C595.4969,-670.7033 581.5674,-677.7019 572.2549,-689.57 473.8041,-815.0396 616.2189,-3442.1863 508.2549,-3559.57 469.5179,-3601.6868 405.3112,-3608.2197 351.13,-3604.3332"/>
<polygon fill="none" stroke="#000000" points="351.3965,-3600.8434 341.1383,-3603.4925 350.8096,-3607.8187 351.3965,-3600.8434"/>
</g>
<!-- \\Firesphere\\SolrSearch\\Jobs\\ClearDirtyClassesJob -->
<g id="node46" class="node">
<title>\\Firesphere\\SolrSearch\\Jobs\\ClearDirtyClassesJob</title>
<polygon fill="none" stroke="#000000" points="748.7549,-626.57 596.7549,-626.57 596.7549,-590.57 748.7549,-590.57 748.7549,-626.57"/>
<text text-anchor="middle" x="672.7549" y="-605.77" font-family="Courier,monospace" font-size="11.00" fill="#000000">ClearDirtyClassesJob</text>
</g>
<!-- \\Firesphere\\SolrSearch\\Jobs\\ClearDirtyClassesJob&#45;&gt;\\Symbiote\\QueuedJobs\\Services\\AbstractQueuedJob -->
<g id="edge16" class="edge">
<title>\\Firesphere\\SolrSearch\\Jobs\\ClearDirtyClassesJob&#45;&gt;\\Symbiote\\QueuedJobs\\Services\\AbstractQueuedJob</title>
<path fill="none" stroke="#000000" d="M596.5042,-617.4615C587.1179,-621.634 578.6103,-627.4671 572.2549,-635.57 471.9789,-763.4198 618.2247,-3439.9561 508.2549,-3559.57 469.5266,-3601.6948 405.3198,-3608.2276 351.1364,-3604.3391"/>
<polygon fill="none" stroke="#000000" points="351.4026,-3600.8492 341.1442,-3603.498 350.8154,-3607.8246 351.4026,-3600.8492"/>
</g>
<!-- \\Firesphere\\SolrSearch\\Stores\\FileConfigStore -->
<g id="node47" class="node">
<title>\\Firesphere\\SolrSearch\\Stores\\FileConfigStore</title>
<polygon fill="none" stroke="#000000" points="731.7549,-224.57 613.7549,-224.57 613.7549,-188.57 731.7549,-188.57 731.7549,-224.57"/>
<text text-anchor="middle" x="672.7549" y="-203.77" font-family="Courier,monospace" font-size="11.00" fill="#000000">FileConfigStore</text>
</g>
<!-- \\Firesphere\\SolrSearch\\Stores\\FileConfigStore&#45;&gt;\\Firesphere\\SolrSearch\\Interfaces\\ConfigStore -->
<g id="edge17" class="edge">
<title>\\Firesphere\\SolrSearch\\Stores\\FileConfigStore&#45;&gt;\\Firesphere\\SolrSearch\\Interfaces\\ConfigStore</title>
<path fill="none" stroke="#000000" stroke-dasharray="1,5" d="M613.4867,-217.1336C582.2454,-222.49 543.2453,-228.8436 508.2549,-233.57 440.1774,-242.7659 361.4881,-250.7148 309.9264,-255.5613"/>
<polygon fill="none" stroke="#000000" points="309.2998,-252.1044 299.6682,-256.5181 309.95,-259.0742 309.2998,-252.1044"/>
</g>
<!-- \\Firesphere\\SolrSearch\\Stores\\PostConfigStore -->
<g id="node48" class="node">
<title>\\Firesphere\\SolrSearch\\Stores\\PostConfigStore</title>
<polygon fill="none" stroke="#000000" points="731.7549,-278.57 613.7549,-278.57 613.7549,-242.57 731.7549,-242.57 731.7549,-278.57"/>
<text text-anchor="middle" x="672.7549" y="-257.77" font-family="Courier,monospace" font-size="11.00" fill="#000000">PostConfigStore</text>
</g>
<!-- \\Firesphere\\SolrSearch\\Stores\\PostConfigStore&#45;&gt;\\Firesphere\\SolrSearch\\Interfaces\\ConfigStore -->
<g id="edge18" class="edge">
<title>\\Firesphere\\SolrSearch\\Stores\\PostConfigStore&#45;&gt;\\Firesphere\\SolrSearch\\Interfaces\\ConfigStore</title>
<path fill="none" stroke="#000000" stroke-dasharray="1,5" d="M613.6637,-260.57C532.8854,-260.57 389.0185,-260.57 309.9722,-260.57"/>
<polygon fill="none" stroke="#000000" points="309.7288,-257.0701 299.7287,-260.57 309.7287,-264.0701 309.7288,-257.0701"/>
</g>
<!-- \\Firesphere\\SolrSearch\\Models\\SearchSynonym -->
<g id="node49" class="node">
<title>\\Firesphere\\SolrSearch\\Models\\SearchSynonym</title>
<polygon fill="none" stroke="#000000" points="724.7549,-492.57 620.7549,-492.57 620.7549,-456.57 724.7549,-456.57 724.7549,-492.57"/>
<text text-anchor="middle" x="672.7549" y="-471.77" font-family="Courier,monospace" font-size="11.00" fill="#000000">SearchSynonym</text>
</g>
<!-- \\SilverStripe\\ORM\\DataObject -->
<g id="node69" class="node">
<title>\\SilverStripe\\ORM\\DataObject</title>
<ellipse fill="none" stroke="#000000" cx="254.1275" cy="-3532.57" rx="152.9733" ry="18"/>
<text text-anchor="middle" x="254.1275" y="-3528.87" font-family="Times,serif" font-size="14.00" fill="#c0c0c0">\SilverStripe\ORM\DataObject</text>
</g>
<!-- \\Firesphere\\SolrSearch\\Models\\SearchSynonym&#45;&gt;\\SilverStripe\\ORM\\DataObject -->
<g id="edge19" class="edge">
<title>\\Firesphere\\SolrSearch\\Models\\SearchSynonym&#45;&gt;\\SilverStripe\\ORM\\DataObject</title>
<path fill="none" stroke="#000000" d="M620.5346,-476.2316C602.4259,-479.6233 583.7906,-486.8534 572.2549,-501.57 469.275,-632.9461 621.1962,-3382.6522 508.2549,-3505.57 466.7683,-3550.7214 396.0119,-3554.9915 339.6794,-3549.3611"/>
<polygon fill="none" stroke="#000000" points="340.0247,-3545.878 329.698,-3548.2466 339.2478,-3552.8348 340.0247,-3545.878"/>
</g>
<!-- \\Firesphere\\SolrSearch\\Models\\DirtyClass -->
<g id="node50" class="node">
<title>\\Firesphere\\SolrSearch\\Models\\DirtyClass</title>
<polygon fill="none" stroke="#000000" points="714.7549,-546.57 630.7549,-546.57 630.7549,-510.57 714.7549,-510.57 714.7549,-546.57"/>
<text text-anchor="middle" x="672.7549" y="-525.77" font-family="Courier,monospace" font-size="11.00" fill="#000000">DirtyClass</text>
</g>
<!-- \\Firesphere\\SolrSearch\\Models\\DirtyClass&#45;&gt;\\SilverStripe\\ORM\\DataObject -->
<g id="edge20" class="edge">
<title>\\Firesphere\\SolrSearch\\Models\\DirtyClass&#45;&gt;\\SilverStripe\\ORM\\DataObject</title>
<path fill="none" stroke="#000000" d="M630.7355,-538.3795C609.381,-545.6988 585.2557,-558.0847 572.2549,-578.57 485.1007,-715.8987 618.3361,-3385.8322 508.2549,-3505.57 466.7556,-3550.7097 396.0003,-3554.9808 339.6714,-3549.3537"/>
<polygon fill="none" stroke="#000000" points="340.0172,-3545.8707 329.6906,-3548.2398 339.2407,-3552.8275 340.0172,-3545.8707"/>
</g>
<!-- \\Firesphere\\SolrSearch\\Models\\SolrLog -->
<g id="node51" class="node">
<title>\\Firesphere\\SolrSearch\\Models\\SolrLog</title>
<polygon fill="none" stroke="#000000" points="704.7549,-438.57 640.7549,-438.57 640.7549,-402.57 704.7549,-402.57 704.7549,-438.57"/>
<text text-anchor="middle" x="672.7549" y="-417.77" font-family="Courier,monospace" font-size="11.00" fill="#000000">SolrLog</text>
</g>
<!-- \\Firesphere\\SolrSearch\\Models\\SolrLog&#45;&gt;\\SilverStripe\\ORM\\DataObject -->
<g id="edge21" class="edge">
<title>\\Firesphere\\SolrSearch\\Models\\SolrLog&#45;&gt;\\SilverStripe\\ORM\\DataObject</title>
<path fill="none" stroke="#000000" d="M640.6114,-419.8211C617.6807,-421.1924 588.1893,-427.234 572.2549,-447.57 467.4498,-581.3264 623.202,-3380.422 508.2549,-3505.57 466.7768,-3550.7292 396.0198,-3554.9987 339.6848,-3549.3661"/>
<polygon fill="none" stroke="#000000" points="340.0297,-3545.8829 329.7029,-3548.2511 339.2526,-3552.8397 340.0297,-3545.8829"/>
</g>
<!-- \\SilverStripe\\Security\\PermissionProvider -->
<g id="node70" class="node">
<title>\\SilverStripe\\Security\\PermissionProvider</title>
<ellipse fill="none" stroke="#000000" cx="254.1275" cy="-3478.57" rx="206.0634" ry="18"/>
<text text-anchor="middle" x="254.1275" y="-3474.87" font-family="Times,serif" font-size="14.00" fill="#c0c0c0">\SilverStripe\Security\PermissionProvider</text>
</g>
<!-- \\Firesphere\\SolrSearch\\Models\\SolrLog&#45;&gt;\\SilverStripe\\Security\\PermissionProvider -->
<g id="edge22" class="edge">
<title>\\Firesphere\\SolrSearch\\Models\\SolrLog&#45;&gt;\\SilverStripe\\Security\\PermissionProvider</title>
<path fill="none" stroke="#000000" stroke-dasharray="1,5" d="M640.6137,-419.8228C617.6841,-421.195 588.1931,-427.237 572.2549,-447.57 469.275,-578.9461 621.1962,-3328.6522 508.2549,-3451.57 468.5498,-3494.7825 402.0347,-3500.5494 347.0127,-3496.0292"/>
<polygon fill="none" stroke="#000000" points="347.1666,-3492.5283 336.8817,-3495.0722 346.5082,-3499.4972 347.1666,-3492.5283"/>
</g>
<!-- \\Firesphere\\SolrSearch\\Admins\\SearchAdmin -->
<g id="node52" class="node">
<title>\\Firesphere\\SolrSearch\\Admins\\SearchAdmin</title>
<polygon fill="none" stroke="#000000" points="718.2549,-358.57 627.2549,-358.57 627.2549,-322.57 718.2549,-322.57 718.2549,-358.57"/>
<text text-anchor="middle" x="672.7549" y="-337.77" font-family="Courier,monospace" font-size="11.00" fill="#000000">SearchAdmin</text>
</g>
<!-- \\SilverStripe\\Admin\\ModelAdmin -->
<g id="node71" class="node">
<title>\\SilverStripe\\Admin\\ModelAdmin</title>
<ellipse fill="none" stroke="#000000" cx="254.1275" cy="-3424.57" rx="165.1707" ry="18"/>
<text text-anchor="middle" x="254.1275" y="-3420.87" font-family="Times,serif" font-size="14.00" fill="#c0c0c0">\SilverStripe\Admin\ModelAdmin</text>
</g>
<!-- \\Firesphere\\SolrSearch\\Admins\\SearchAdmin&#45;&gt;\\SilverStripe\\Admin\\ModelAdmin -->
<g id="edge23" class="edge">
<title>\\Firesphere\\SolrSearch\\Admins\\SearchAdmin&#45;&gt;\\SilverStripe\\Admin\\ModelAdmin</title>
<path fill="none" stroke="#000000" d="M627.0253,-352.4138C606.9894,-359.9927 585.1459,-371.9998 572.2549,-390.57 390.5501,-652.3261 269.3387,-3103.1372 255.4608,-3395.997"/>
<polygon fill="none" stroke="#000000" points="251.954,-3396.0608 254.9788,-3406.2146 258.9462,-3396.3907 251.954,-3396.0608"/>
</g>
<!-- \\Firesphere\\SolrFluent\\States\\FluentSiteState -->
<g id="node53" class="node">
<title>\\Firesphere\\SolrFluent\\States\\FluentSiteState</title>
<polygon fill="none" stroke="#000000" points="985.7549,-856.57 867.7549,-856.57 867.7549,-820.57 985.7549,-820.57 985.7549,-856.57"/>
<text text-anchor="middle" x="926.7549" y="-835.77" font-family="Courier,monospace" font-size="11.00" fill="#000000">FluentSiteState</text>
</g>
<!-- \\Firesphere\\SolrFluent\\States\\FluentSiteState&#45;&gt;\\Firesphere\\SolrSearch\\Interfaces\\SiteStateInterface -->
<g id="edge25" class="edge">
<title>\\Firesphere\\SolrFluent\\States\\FluentSiteState&#45;&gt;\\Firesphere\\SolrSearch\\Interfaces\\SiteStateInterface</title>
<path fill="none" stroke="#000000" stroke-dasharray="1,5" d="M867.5291,-834.6089C850.0639,-830.4159 832.6083,-822.6536 821.2549,-808.57 732.9344,-699.0112 880.7021,-276.1387 781.2549,-176.57 764.1808,-159.475 692.946,-182.8397 672.7549,-169.57"/>
<path fill="none" stroke="#000000" stroke-dasharray="1,5" d="M672.7549,-169.57C645.1222,-151.4097 446.7099,-177.5219 333.2389,-194.3122"/>
<polygon fill="none" stroke="#000000" points="332.5799,-190.8716 323.204,-195.8055 333.6103,-197.7954 332.5799,-190.8716"/>
</g>
<!-- \\Firesphere\\SolrFluent\\States\\FluentSiteState&#45;&gt;\\Firesphere\\SolrSearch\\States\\SiteState -->
<g id="edge24" class="edge">
<title>\\Firesphere\\SolrFluent\\States\\FluentSiteState&#45;&gt;\\Firesphere\\SolrSearch\\States\\SiteState</title>
<path fill="none" stroke="#000000" d="M891.4045,-856.6156C866.859,-871.2703 836.0131,-894.4346 821.2549,-924.57 780.3889,-1008.0161 838.4047,-2523.309 781.2549,-2596.57 767.9288,-2613.653 745.7975,-2621.5664 724.9862,-2625.0484"/>
<polygon fill="none" stroke="#000000" points="724.3548,-2621.602 714.9201,-2626.4225 725.3017,-2628.5377 724.3548,-2621.602"/>
</g>
<!-- \\Firesphere\\SolrFluent\\Extensions\\FluentDocumentExtension -->
<g id="node54" class="node">
<title>\\Firesphere\\SolrFluent\\Extensions\\FluentDocumentExtension</title>
<polygon fill="none" stroke="#000000" points="1012.7549,-668.57 840.7549,-668.57 840.7549,-632.57 1012.7549,-632.57 1012.7549,-668.57"/>
<text text-anchor="middle" x="926.7549" y="-647.77" font-family="Courier,monospace" font-size="11.00" fill="#000000">FluentDocumentExtension</text>
</g>
<!-- \\Firesphere\\SolrFluent\\Extensions\\FluentDocumentExtension&#45;&gt;\\SilverStripe\\Core\\Extension -->
<g id="edge26" class="edge">
<title>\\Firesphere\\SolrFluent\\Extensions\\FluentDocumentExtension&#45;&gt;\\SilverStripe\\Core\\Extension</title>
<path fill="none" stroke="#000000" d="M879.2438,-632.4829C857.9161,-621.8429 834.5963,-606.1672 821.2549,-584.57 722.7083,-425.0424 882.9626,-322.1011 781.2549,-164.57 751.1296,-117.9101 718.0085,-134.7695 672.7549,-102.57"/>
</g>
<!-- \\Firesphere\\SolrFluent\\Extensions\\FluentSchemaExtension -->
<g id="node55" class="node">
<title>\\Firesphere\\SolrFluent\\Extensions\\FluentSchemaExtension</title>
<polygon fill="none" stroke="#000000" points="1005.7549,-776.57 847.7549,-776.57 847.7549,-740.57 1005.7549,-740.57 1005.7549,-776.57"/>
<text text-anchor="middle" x="926.7549" y="-755.77" font-family="Courier,monospace" font-size="11.00" fill="#000000">FluentSchemaExtension</text>
</g>
<!-- \\Firesphere\\SolrFluent\\Extensions\\FluentSchemaExtension&#45;&gt;\\SilverStripe\\Core\\Extension -->
<g id="edge27" class="edge">
<title>\\Firesphere\\SolrFluent\\Extensions\\FluentSchemaExtension&#45;&gt;\\SilverStripe\\Core\\Extension</title>
<path fill="none" stroke="#000000" d="M847.6545,-750.2102C837.5372,-745.9804 828.28,-739.9899 821.2549,-731.57 740.3328,-634.5823 848.462,-271.5197 781.2549,-164.57 751.7039,-117.5442 718.0085,-134.7695 672.7549,-102.57"/>
</g>
<!-- \\Firesphere\\SolrFluent\\Extensions\\FluentIndexExtension -->
<g id="node56" class="node">
<title>\\Firesphere\\SolrFluent\\Extensions\\FluentIndexExtension</title>
<polygon fill="none" stroke="#000000" points="1002.7549,-722.57 850.7549,-722.57 850.7549,-686.57 1002.7549,-686.57 1002.7549,-722.57"/>
<text text-anchor="middle" x="926.7549" y="-701.77" font-family="Courier,monospace" font-size="11.00" fill="#000000">FluentIndexExtension</text>
</g>
<!-- \\Firesphere\\SolrFluent\\Extensions\\FluentIndexExtension&#45;&gt;\\SilverStripe\\Core\\Extension -->
<g id="edge28" class="edge">
<title>\\Firesphere\\SolrFluent\\Extensions\\FluentIndexExtension&#45;&gt;\\SilverStripe\\Core\\Extension</title>
<path fill="none" stroke="#000000" d="M850.6124,-697.3183C839.3641,-693.0519 828.9802,-686.7598 821.2549,-677.57 747.6758,-590.0422 842.4518,-261.1617 781.2549,-164.57 751.5304,-117.6536 718.0085,-134.7695 672.7549,-102.57"/>
</g>
<!-- \\Firesphere\\SolrSubsites\\States\\SubsiteState -->
<g id="node57" class="node">
<title>\\Firesphere\\SolrSubsites\\States\\SubsiteState</title>
<polygon fill="none" stroke="#000000" points="975.7549,-1052.57 877.7549,-1052.57 877.7549,-1016.57 975.7549,-1016.57 975.7549,-1052.57"/>
<text text-anchor="middle" x="926.7549" y="-1031.77" font-family="Courier,monospace" font-size="11.00" fill="#000000">SubsiteState</text>
</g>
<!-- \\Firesphere\\SolrSubsites\\States\\SubsiteState&#45;&gt;\\Firesphere\\SolrSearch\\Interfaces\\SiteStateInterface -->
<g id="edge30" class="edge">
<title>\\Firesphere\\SolrSubsites\\States\\SubsiteState&#45;&gt;\\Firesphere\\SolrSearch\\Interfaces\\SiteStateInterface</title>
<path fill="none" stroke="#000000" stroke-dasharray="1,5" d="M877.5714,-1032.7665C856.9534,-1029.3116 834.6932,-1021.497 821.2549,-1004.57 763.9847,-932.4322 845.8564,-242.2237 781.2549,-176.57 764.3089,-159.348 692.946,-182.8397 672.7549,-169.57"/>
</g>
<!-- \\Firesphere\\SolrSubsites\\States\\SubsiteState&#45;&gt;\\Firesphere\\SolrSearch\\States\\SiteState -->
<g id="edge29" class="edge">
<title>\\Firesphere\\SolrSubsites\\States\\SubsiteState&#45;&gt;\\Firesphere\\SolrSearch\\States\\SiteState</title>
<path fill="none" stroke="#000000" d="M926.2971,-1052.6687C921.9454,-1218.5624 885.7108,-2471.7878 781.2549,-2596.57 767.4556,-2613.0546 745.4826,-2620.9117 724.9079,-2624.512"/>
<polygon fill="none" stroke="#000000" points="724.3549,-2621.0555 714.9619,-2625.9566 725.3611,-2627.9828 724.3549,-2621.0555"/>
</g>
<!-- \\Firesphere\\SolrSubsites\\Extensions\\SubsitesExtension -->
<g id="node58" class="node">
<title>\\Firesphere\\SolrSubsites\\Extensions\\SubsitesExtension</title>
<polygon fill="none" stroke="#000000" points="992.2549,-972.57 861.2549,-972.57 861.2549,-936.57 992.2549,-936.57 992.2549,-972.57"/>
<text text-anchor="middle" x="926.7549" y="-951.77" font-family="Courier,monospace" font-size="11.00" fill="#000000">SubsitesExtension</text>
</g>
<!-- \\Firesphere\\SolrSubsites\\Extensions\\SubsitesExtension&#45;&gt;\\SilverStripe\\Core\\Extension -->
<g id="edge31" class="edge">
<title>\\Firesphere\\SolrSubsites\\Extensions\\SubsitesExtension&#45;&gt;\\SilverStripe\\Core\\Extension</title>
<path fill="none" stroke="#000000" d="M878.3173,-936.4407C857.0531,-925.8576 834.0545,-910.2421 821.2549,-888.57 739.3126,-749.8267 865.9472,-301.652 781.2549,-164.57 752.063,-117.3204 718.0085,-134.7695 672.7549,-102.57"/>
</g>
<!-- \\Firesphere\\SolrPermissions\\Extensions\\DocumentFactoryExtension -->
<g id="node59" class="node">
<title>\\Firesphere\\SolrPermissions\\Extensions\\DocumentFactoryExtension</title>
<polygon fill="none" stroke="#000000" points="1016.2549,-390.57 837.2549,-390.57 837.2549,-354.57 1016.2549,-354.57 1016.2549,-390.57"/>
<text text-anchor="middle" x="926.7549" y="-369.77" font-family="Courier,monospace" font-size="11.00" fill="#000000">DocumentFactoryExtension</text>
</g>
<!-- \\Firesphere\\SolrPermissions\\Extensions\\DocumentFactoryExtension&#45;&gt;\\SilverStripe\\Core\\Extension -->
<g id="edge32" class="edge">
<title>\\Firesphere\\SolrPermissions\\Extensions\\DocumentFactoryExtension&#45;&gt;\\SilverStripe\\Core\\Extension</title>
<path fill="none" stroke="#000000" d="M882.0021,-354.5416C860.5351,-343.6992 836.28,-327.8305 821.2549,-306.57 773.9576,-239.6446 839.2316,-184.4902 781.2549,-126.57 746.3154,-91.6646 712.9958,-131.2028 672.7549,-102.57"/>
</g>
<!-- \\Firesphere\\SolrPermissions\\Extensions\\BaseIndexExtension -->
<g id="node60" class="node">
<title>\\Firesphere\\SolrPermissions\\Extensions\\BaseIndexExtension</title>
<polygon fill="none" stroke="#000000" points="995.7549,-498.57 857.7549,-498.57 857.7549,-462.57 995.7549,-462.57 995.7549,-498.57"/>
<text text-anchor="middle" x="926.7549" y="-477.77" font-family="Courier,monospace" font-size="11.00" fill="#000000">BaseIndexExtension</text>
</g>
<!-- \\Firesphere\\SolrPermissions\\Extensions\\BaseIndexExtension&#45;&gt;\\SilverStripe\\Core\\Extension -->
<g id="edge33" class="edge">
<title>\\Firesphere\\SolrPermissions\\Extensions\\BaseIndexExtension&#45;&gt;\\SilverStripe\\Core\\Extension</title>
<path fill="none" stroke="#000000" d="M857.6967,-475.304C843.8917,-471.1276 830.7401,-464.3632 821.2549,-453.57 724.6017,-343.5883 879.7016,-234.9493 781.2549,-126.57 748.0478,-90.0126 712.9958,-131.2028 672.7549,-102.57"/>
</g>
<!-- \\Firesphere\\SolrPermissions\\Extensions\\SchemaFactoryExtension -->
<g id="node61" class="node">
<title>\\Firesphere\\SolrPermissions\\Extensions\\SchemaFactoryExtension</title>
<polygon fill="none" stroke="#000000" points="1009.2549,-444.57 844.2549,-444.57 844.2549,-408.57 1009.2549,-408.57 1009.2549,-444.57"/>
<text text-anchor="middle" x="926.7549" y="-423.77" font-family="Courier,monospace" font-size="11.00" fill="#000000">SchemaFactoryExtension</text>
</g>
<!-- \\Firesphere\\SolrPermissions\\Extensions\\SchemaFactoryExtension&#45;&gt;\\SilverStripe\\Core\\Extension -->
<g id="edge34" class="edge">
<title>\\Firesphere\\SolrPermissions\\Extensions\\SchemaFactoryExtension&#45;&gt;\\SilverStripe\\Core\\Extension</title>
<path fill="none" stroke="#000000" d="M844.0415,-415.9063C835.4574,-411.9077 827.5791,-406.5962 821.2549,-399.57 739.2158,-308.425 864.7801,-216.3552 781.2549,-126.57 747.6157,-90.4097 712.9958,-131.2028 672.7549,-102.57"/>
</g>
<!-- \\Firesphere\\SolrPermissions\\Extensions\\DataObjectExtension -->
<g id="node62" class="node">
<title>\\Firesphere\\SolrPermissions\\Extensions\\DataObjectExtension</title>
<polygon fill="none" stroke="#000000" points="999.2549,-552.57 854.2549,-552.57 854.2549,-516.57 999.2549,-516.57 999.2549,-552.57"/>
<text text-anchor="middle" x="926.7549" y="-531.77" font-family="Courier,monospace" font-size="11.00" fill="#000000">DataObjectExtension</text>
</g>
<!-- \\Firesphere\\SolrPermissions\\Extensions\\DataObjectExtension&#45;&gt;\\SilverStripe\\ORM\\DataExtension -->
<g id="edge35" class="edge">
<title>\\Firesphere\\SolrPermissions\\Extensions\\DataObjectExtension&#45;&gt;\\SilverStripe\\ORM\\DataExtension</title>
<path fill="none" stroke="#000000" d="M854.1266,-528.2135C841.6284,-523.9766 829.9011,-517.4645 821.2549,-507.57 720.2653,-391.9999 883.6696,-278.8792 781.2549,-164.57 717.657,-93.5858 664.7691,-139.4737 572.2549,-116.57 543.6866,-109.4974 537.1957,-104.9183 508.2549,-99.57 473.46,-93.1399 435.681,-88.0958 400.1541,-84.1981"/>
<polygon fill="none" stroke="#000000" points="400.5143,-80.7167 390.1977,-83.1289 399.7668,-87.6767 400.5143,-80.7167"/>
</g>
</g>
</svg>
