<?xml version="1.0" encoding="UTF-8" standalone="no"?>
<!DOCTYPE svg PUBLIC "-//W3C//DTD SVG 1.1//EN"
 "http://www.w3.org/Graphics/SVG/1.1/DTD/svg11.dtd">
<!-- Generated by graphviz version 2.40.1 (20161225.0304)
 -->
<!-- Title: G Pages: 1 -->
<svg width="1064pt" height="3721pt"
 viewBox="0.00 0.00 1064.25 3721.06" xmlns="http://www.w3.org/2000/svg" xmlns:xlink="http://www.w3.org/1999/xlink">
<g id="graph0" class="graph" transform="scale(1 1) rotate(0) translate(4 3717.064)">
<title>G</title>
<polygon fill="#ffffff" stroke="transparent" points="-4,4 -4,-3717.064 1060.2549,-3717.064 1060.2549,4 -4,4"/>
<g id="clust1" class="cluster">
<title>cluster_Global</title>
<path fill="none" stroke="#c0c0c0" d="M165.1275,-152.8657C165.1275,-152.8657 1036.2549,-152.8657 1036.2549,-152.8657 1042.2549,-152.8657 1048.2549,-158.8657 1048.2549,-164.8657 1048.2549,-164.8657 1048.2549,-3386.8657 1048.2549,-3386.8657 1048.2549,-3392.8657 1042.2549,-3398.8657 1036.2549,-3398.8657 1036.2549,-3398.8657 165.1275,-3398.8657 165.1275,-3398.8657 159.1275,-3398.8657 153.1275,-3392.8657 153.1275,-3386.8657 153.1275,-3386.8657 153.1275,-164.8657 153.1275,-164.8657 153.1275,-158.8657 159.1275,-152.8657 165.1275,-152.8657"/>
<text text-anchor="middle" x="600.6912" y="-3386.0657" font-family="Times,serif" font-size="11.00" fill="#c0c0c0">Global</text>
</g>
<g id="clust2" class="cluster">
<title>cluster_\Firesphere</title>
<path fill="none" stroke="#c0c0c0" d="M173.1275,-160.8657C173.1275,-160.8657 1028.2549,-160.8657 1028.2549,-160.8657 1034.2549,-160.8657 1040.2549,-166.8657 1040.2549,-172.8657 1040.2549,-172.8657 1040.2549,-3036.8657 1040.2549,-3036.8657 1040.2549,-3042.8657 1034.2549,-3048.8657 1028.2549,-3048.8657 1028.2549,-3048.8657 173.1275,-3048.8657 173.1275,-3048.8657 167.1275,-3048.8657 161.1275,-3042.8657 161.1275,-3036.8657 161.1275,-3036.8657 161.1275,-172.8657 161.1275,-172.8657 161.1275,-166.8657 167.1275,-160.8657 173.1275,-160.8657"/>
<text text-anchor="middle" x="600.6912" y="-3036.0657" font-family="Times,serif" font-size="11.00" fill="#c0c0c0">Firesphere</text>
</g>
<g id="clust3" class="cluster">
<title>cluster_\Firesphere\SolrCompatibility</title>
<path fill="none" stroke="#c0c0c0" d="M833.2549,-168.8657C833.2549,-168.8657 1020.2549,-168.8657 1020.2549,-168.8657 1026.2549,-168.8657 1032.2549,-174.8657 1032.2549,-180.8657 1032.2549,-180.8657 1032.2549,-372.8657 1032.2549,-372.8657 1032.2549,-378.8657 1026.2549,-384.8657 1020.2549,-384.8657 1020.2549,-384.8657 833.2549,-384.8657 833.2549,-384.8657 827.2549,-384.8657 821.2549,-378.8657 821.2549,-372.8657 821.2549,-372.8657 821.2549,-180.8657 821.2549,-180.8657 821.2549,-174.8657 827.2549,-168.8657 833.2549,-168.8657"/>
<text text-anchor="middle" x="926.7549" y="-372.0657" font-family="Times,serif" font-size="11.00" fill="#c0c0c0">SolrCompatibility</text>
</g>
<g id="clust4" class="cluster">
<title>cluster_\Firesphere\SolrCompatibility\Extensions</title>
<path fill="none" stroke="#c0c0c0" d="M841.2549,-176.8657C841.2549,-176.8657 1012.2549,-176.8657 1012.2549,-176.8657 1018.2549,-176.8657 1024.2549,-182.8657 1024.2549,-188.8657 1024.2549,-188.8657 1024.2549,-344.8657 1024.2549,-344.8657 1024.2549,-350.8657 1018.2549,-356.8657 1012.2549,-356.8657 1012.2549,-356.8657 841.2549,-356.8657 841.2549,-356.8657 835.2549,-356.8657 829.2549,-350.8657 829.2549,-344.8657 829.2549,-344.8657 829.2549,-188.8657 829.2549,-188.8657 829.2549,-182.8657 835.2549,-176.8657 841.2549,-176.8657"/>
<text text-anchor="middle" x="926.7549" y="-344.0657" font-family="Times,serif" font-size="11.00" fill="#c0c0c0">Extensions</text>
</g>
<g id="clust5" class="cluster">
<title>cluster_\Firesphere\SolrSearch</title>
<path fill="none" stroke="#c0c0c0" d="M181.1275,-172.8657C181.1275,-172.8657 769.2549,-172.8657 769.2549,-172.8657 775.2549,-172.8657 781.2549,-178.8657 781.2549,-184.8657 781.2549,-184.8657 781.2549,-3008.8657 781.2549,-3008.8657 781.2549,-3014.8657 775.2549,-3020.8657 769.2549,-3020.8657 769.2549,-3020.8657 181.1275,-3020.8657 181.1275,-3020.8657 175.1275,-3020.8657 169.1275,-3014.8657 169.1275,-3008.8657 169.1275,-3008.8657 169.1275,-184.8657 169.1275,-184.8657 169.1275,-178.8657 175.1275,-172.8657 181.1275,-172.8657"/>
<text text-anchor="middle" x="475.1912" y="-3008.0657" font-family="Times,serif" font-size="11.00" fill="#c0c0c0">SolrSearch</text>
</g>
<g id="clust6" class="cluster">
<title>cluster_\Firesphere\SolrSearch\Admins</title>
<path fill="none" stroke="#c0c0c0" d="M631.2549,-2518.8657C631.2549,-2518.8657 714.2549,-2518.8657 714.2549,-2518.8657 720.2549,-2518.8657 726.2549,-2524.8657 726.2549,-2530.8657 726.2549,-2530.8657 726.2549,-2578.8657 726.2549,-2578.8657 726.2549,-2584.8657 720.2549,-2590.8657 714.2549,-2590.8657 714.2549,-2590.8657 631.2549,-2590.8657 631.2549,-2590.8657 625.2549,-2590.8657 619.2549,-2584.8657 619.2549,-2578.8657 619.2549,-2578.8657 619.2549,-2530.8657 619.2549,-2530.8657 619.2549,-2524.8657 625.2549,-2518.8657 631.2549,-2518.8657"/>
<text text-anchor="middle" x="672.7549" y="-2578.0657" font-family="Times,serif" font-size="11.00" fill="#c0c0c0">Admins</text>
</g>
<g id="clust7" class="cluster">
<title>cluster_\Firesphere\SolrSearch\Factories</title>
<path fill="none" stroke="#c0c0c0" d="M597.7549,-2812.8657C597.7549,-2812.8657 747.7549,-2812.8657 747.7549,-2812.8657 753.7549,-2812.8657 759.7549,-2818.8657 759.7549,-2824.8657 759.7549,-2824.8657 759.7549,-2980.8657 759.7549,-2980.8657 759.7549,-2986.8657 753.7549,-2992.8657 747.7549,-2992.8657 747.7549,-2992.8657 597.7549,-2992.8657 597.7549,-2992.8657 591.7549,-2992.8657 585.7549,-2986.8657 585.7549,-2980.8657 585.7549,-2980.8657 585.7549,-2824.8657 585.7549,-2824.8657 585.7549,-2818.8657 591.7549,-2812.8657 597.7549,-2812.8657"/>
<text text-anchor="middle" x="672.7549" y="-2980.0657" font-family="Times,serif" font-size="11.00" fill="#c0c0c0">Factories</text>
</g>
<g id="clust8" class="cluster">
<title>cluster_\Firesphere\SolrSearch\Results</title>
<path fill="none" stroke="#c0c0c0" d="M627.7549,-2732.8657C627.7549,-2732.8657 717.7549,-2732.8657 717.7549,-2732.8657 723.7549,-2732.8657 729.7549,-2738.8657 729.7549,-2744.8657 729.7549,-2744.8657 729.7549,-2792.8657 729.7549,-2792.8657 729.7549,-2798.8657 723.7549,-2804.8657 717.7549,-2804.8657 717.7549,-2804.8657 627.7549,-2804.8657 627.7549,-2804.8657 621.7549,-2804.8657 615.7549,-2798.8657 615.7549,-2792.8657 615.7549,-2792.8657 615.7549,-2744.8657 615.7549,-2744.8657 615.7549,-2738.8657 621.7549,-2732.8657 627.7549,-2732.8657"/>
<text text-anchor="middle" x="672.7549" y="-2792.0657" font-family="Times,serif" font-size="11.00" fill="#c0c0c0">Results</text>
</g>
<g id="clust9" class="cluster">
<title>cluster_\Firesphere\SolrSearch\Stores</title>
<path fill="none" stroke="#c0c0c0" d="M617.7549,-2598.8657C617.7549,-2598.8657 727.7549,-2598.8657 727.7549,-2598.8657 733.7549,-2598.8657 739.7549,-2604.8657 739.7549,-2610.8657 739.7549,-2610.8657 739.7549,-2712.8657 739.7549,-2712.8657 739.7549,-2718.8657 733.7549,-2724.8657 727.7549,-2724.8657 727.7549,-2724.8657 617.7549,-2724.8657 617.7549,-2724.8657 611.7549,-2724.8657 605.7549,-2718.8657 605.7549,-2712.8657 605.7549,-2712.8657 605.7549,-2610.8657 605.7549,-2610.8657 605.7549,-2604.8657 611.7549,-2598.8657 617.7549,-2598.8657"/>
<text text-anchor="middle" x="672.7549" y="-2712.0657" font-family="Times,serif" font-size="11.00" fill="#c0c0c0">Stores</text>
</g>
<g id="clust10" class="cluster">
<title>cluster_\Firesphere\SolrSearch\Extensions</title>
<path fill="none" stroke="#c0c0c0" d="M604.2549,-2384.8657C604.2549,-2384.8657 741.2549,-2384.8657 741.2549,-2384.8657 747.2549,-2384.8657 753.2549,-2390.8657 753.2549,-2396.8657 753.2549,-2396.8657 753.2549,-2498.8657 753.2549,-2498.8657 753.2549,-2504.8657 747.2549,-2510.8657 741.2549,-2510.8657 741.2549,-2510.8657 604.2549,-2510.8657 604.2549,-2510.8657 598.2549,-2510.8657 592.2549,-2504.8657 592.2549,-2498.8657 592.2549,-2498.8657 592.2549,-2396.8657 592.2549,-2396.8657 592.2549,-2390.8657 598.2549,-2384.8657 604.2549,-2384.8657"/>
<text text-anchor="middle" x="672.7549" y="-2498.0657" font-family="Times,serif" font-size="11.00" fill="#c0c0c0">Extensions</text>
</g>
<g id="clust11" class="cluster">
<title>cluster_\Firesphere\SolrSearch\Helpers</title>
<path fill="none" stroke="#c0c0c0" d="M624.7549,-2088.8657C624.7549,-2088.8657 720.7549,-2088.8657 720.7549,-2088.8657 726.7549,-2088.8657 732.7549,-2094.8657 732.7549,-2100.8657 732.7549,-2100.8657 732.7549,-2364.8657 732.7549,-2364.8657 732.7549,-2370.8657 726.7549,-2376.8657 720.7549,-2376.8657 720.7549,-2376.8657 624.7549,-2376.8657 624.7549,-2376.8657 618.7549,-2376.8657 612.7549,-2370.8657 612.7549,-2364.8657 612.7549,-2364.8657 612.7549,-2100.8657 612.7549,-2100.8657 612.7549,-2094.8657 618.7549,-2088.8657 624.7549,-2088.8657"/>
<text text-anchor="middle" x="672.7549" y="-2364.0657" font-family="Times,serif" font-size="11.00" fill="#c0c0c0">Helpers</text>
</g>
<g id="clust12" class="cluster">
<title>cluster_\Firesphere\SolrSearch\Queries</title>
<path fill="none" stroke="#c0c0c0" d="M638.2549,-2008.8657C638.2549,-2008.8657 707.2549,-2008.8657 707.2549,-2008.8657 713.2549,-2008.8657 719.2549,-2014.8657 719.2549,-2020.8657 719.2549,-2020.8657 719.2549,-2068.8657 719.2549,-2068.8657 719.2549,-2074.8657 713.2549,-2080.8657 707.2549,-2080.8657 707.2549,-2080.8657 638.2549,-2080.8657 638.2549,-2080.8657 632.2549,-2080.8657 626.2549,-2074.8657 626.2549,-2068.8657 626.2549,-2068.8657 626.2549,-2020.8657 626.2549,-2020.8657 626.2549,-2014.8657 632.2549,-2008.8657 638.2549,-2008.8657"/>
<text text-anchor="middle" x="672.7549" y="-2068.0657" font-family="Times,serif" font-size="11.00" fill="#c0c0c0">Queries</text>
</g>
<g id="clust13" class="cluster">
<title>cluster_\Firesphere\SolrSearch\Models</title>
<path fill="none" stroke="#c0c0c0" d="M624.7549,-1820.8657C624.7549,-1820.8657 720.7549,-1820.8657 720.7549,-1820.8657 726.7549,-1820.8657 732.7549,-1826.8657 732.7549,-1832.8657 732.7549,-1832.8657 732.7549,-1988.8657 732.7549,-1988.8657 732.7549,-1994.8657 726.7549,-2000.8657 720.7549,-2000.8657 720.7549,-2000.8657 624.7549,-2000.8657 624.7549,-2000.8657 618.7549,-2000.8657 612.7549,-1994.8657 612.7549,-1988.8657 612.7549,-1988.8657 612.7549,-1832.8657 612.7549,-1832.8657 612.7549,-1826.8657 618.7549,-1820.8657 624.7549,-1820.8657"/>
<text text-anchor="middle" x="672.7549" y="-1988.0657" font-family="Times,serif" font-size="11.00" fill="#c0c0c0">Models</text>
</g>
<g id="clust14" class="cluster">
<title>cluster_\Firesphere\SolrSearch\Traits</title>
<path fill="none" stroke="#c0c0c0" d="M584.2549,-930.8657C584.2549,-930.8657 761.2549,-930.8657 761.2549,-930.8657 767.2549,-930.8657 773.2549,-936.8657 773.2549,-942.8657 773.2549,-942.8657 773.2549,-1800.8657 773.2549,-1800.8657 773.2549,-1806.8657 767.2549,-1812.8657 761.2549,-1812.8657 761.2549,-1812.8657 584.2549,-1812.8657 584.2549,-1812.8657 578.2549,-1812.8657 572.2549,-1806.8657 572.2549,-1800.8657 572.2549,-1800.8657 572.2549,-942.8657 572.2549,-942.8657 572.2549,-936.8657 578.2549,-930.8657 584.2549,-930.8657"/>
<text text-anchor="middle" x="672.7549" y="-1800.0657" font-family="Times,serif" font-size="11.00" fill="#c0c0c0">Traits</text>
</g>
<g id="clust15" class="cluster">
<title>cluster_\Firesphere\SolrSearch\Jobs</title>
<path fill="none" stroke="#c0c0c0" d="M600.7549,-742.8657C600.7549,-742.8657 744.7549,-742.8657 744.7549,-742.8657 750.7549,-742.8657 756.7549,-748.8657 756.7549,-754.8657 756.7549,-754.8657 756.7549,-910.8657 756.7549,-910.8657 756.7549,-916.8657 750.7549,-922.8657 744.7549,-922.8657 744.7549,-922.8657 600.7549,-922.8657 600.7549,-922.8657 594.7549,-922.8657 588.7549,-916.8657 588.7549,-910.8657 588.7549,-910.8657 588.7549,-754.8657 588.7549,-754.8657 588.7549,-748.8657 594.7549,-742.8657 600.7549,-742.8657"/>
<text text-anchor="middle" x="672.7549" y="-910.0657" font-family="Times,serif" font-size="11.00" fill="#c0c0c0">Jobs</text>
</g>
<g id="clust16" class="cluster">
<title>cluster_\Firesphere\SolrSearch\Indexes</title>
<path fill="none" stroke="#c0c0c0" d="M634.7549,-662.8657C634.7549,-662.8657 710.7549,-662.8657 710.7549,-662.8657 716.7549,-662.8657 722.7549,-668.8657 722.7549,-674.8657 722.7549,-674.8657 722.7549,-722.8657 722.7549,-722.8657 722.7549,-728.8657 716.7549,-734.8657 710.7549,-734.8657 710.7549,-734.8657 634.7549,-734.8657 634.7549,-734.8657 628.7549,-734.8657 622.7549,-728.8657 622.7549,-722.8657 622.7549,-722.8657 622.7549,-674.8657 622.7549,-674.8657 622.7549,-668.8657 628.7549,-662.8657 634.7549,-662.8657"/>
<text text-anchor="middle" x="672.7549" y="-722.0657" font-family="Times,serif" font-size="11.00" fill="#c0c0c0">Indexes</text>
</g>
<g id="clust17" class="cluster">
<title>cluster_\Firesphere\SolrSearch\Interfaces</title>
<path fill="none" stroke="#c0c0c0" d="M189.1275,-2544.8657C189.1275,-2544.8657 319.1275,-2544.8657 319.1275,-2544.8657 325.1275,-2544.8657 331.1275,-2550.8657 331.1275,-2556.8657 331.1275,-2556.8657 331.1275,-2658.8657 331.1275,-2658.8657 331.1275,-2664.8657 325.1275,-2670.8657 319.1275,-2670.8657 319.1275,-2670.8657 189.1275,-2670.8657 189.1275,-2670.8657 183.1275,-2670.8657 177.1275,-2664.8657 177.1275,-2658.8657 177.1275,-2658.8657 177.1275,-2556.8657 177.1275,-2556.8657 177.1275,-2550.8657 183.1275,-2544.8657 189.1275,-2544.8657"/>
<text text-anchor="middle" x="254.1275" y="-2658.0657" font-family="Times,serif" font-size="11.00" fill="#c0c0c0">Interfaces</text>
</g>
<g id="clust18" class="cluster">
<title>cluster_\Firesphere\SolrSearch\States</title>
<path fill="none" stroke="#c0c0c0" d="M634.7549,-582.8657C634.7549,-582.8657 710.7549,-582.8657 710.7549,-582.8657 716.7549,-582.8657 722.7549,-588.8657 722.7549,-594.8657 722.7549,-594.8657 722.7549,-642.8657 722.7549,-642.8657 722.7549,-648.8657 716.7549,-654.8657 710.7549,-654.8657 710.7549,-654.8657 634.7549,-654.8657 634.7549,-654.8657 628.7549,-654.8657 622.7549,-648.8657 622.7549,-642.8657 622.7549,-642.8657 622.7549,-594.8657 622.7549,-594.8657 622.7549,-588.8657 628.7549,-582.8657 634.7549,-582.8657"/>
<text text-anchor="middle" x="672.7549" y="-642.0657" font-family="Times,serif" font-size="11.00" fill="#c0c0c0">States</text>
</g>
<g id="clust19" class="cluster">
<title>cluster_\Firesphere\SolrSearch\Services</title>
<path fill="none" stroke="#c0c0c0" d="M617.7549,-502.8657C617.7549,-502.8657 727.7549,-502.8657 727.7549,-502.8657 733.7549,-502.8657 739.7549,-508.8657 739.7549,-514.8657 739.7549,-514.8657 739.7549,-562.8657 739.7549,-562.8657 739.7549,-568.8657 733.7549,-574.8657 727.7549,-574.8657 727.7549,-574.8657 617.7549,-574.8657 617.7549,-574.8657 611.7549,-574.8657 605.7549,-568.8657 605.7549,-562.8657 605.7549,-562.8657 605.7549,-514.8657 605.7549,-514.8657 605.7549,-508.8657 611.7549,-502.8657 617.7549,-502.8657"/>
<text text-anchor="middle" x="672.7549" y="-562.0657" font-family="Times,serif" font-size="11.00" fill="#c0c0c0">Services</text>
</g>
<g id="clust20" class="cluster">
<title>cluster_\Firesphere\SolrSearch\Tasks</title>
<path fill="none" stroke="#c0c0c0" d="M597.7549,-260.8657C597.7549,-260.8657 747.7549,-260.8657 747.7549,-260.8657 753.7549,-260.8657 759.7549,-266.8657 759.7549,-272.8657 759.7549,-272.8657 759.7549,-482.8657 759.7549,-482.8657 759.7549,-488.8657 753.7549,-494.8657 747.7549,-494.8657 747.7549,-494.8657 597.7549,-494.8657 597.7549,-494.8657 591.7549,-494.8657 585.7549,-488.8657 585.7549,-482.8657 585.7549,-482.8657 585.7549,-272.8657 585.7549,-272.8657 585.7549,-266.8657 591.7549,-260.8657 597.7549,-260.8657"/>
<text text-anchor="middle" x="672.7549" y="-482.0657" font-family="Times,serif" font-size="11.00" fill="#c0c0c0">Tasks</text>
</g>
<g id="clust21" class="cluster">
<title>cluster_\Firesphere\SolrSearch\Forms</title>
<path fill="none" stroke="#c0c0c0" d="M634.7549,-180.8657C634.7549,-180.8657 710.7549,-180.8657 710.7549,-180.8657 716.7549,-180.8657 722.7549,-186.8657 722.7549,-192.8657 722.7549,-192.8657 722.7549,-240.8657 722.7549,-240.8657 722.7549,-246.8657 716.7549,-252.8657 710.7549,-252.8657 710.7549,-252.8657 634.7549,-252.8657 634.7549,-252.8657 628.7549,-252.8657 622.7549,-246.8657 622.7549,-240.8657 622.7549,-240.8657 622.7549,-192.8657 622.7549,-192.8657 622.7549,-186.8657 628.7549,-180.8657 634.7549,-180.8657"/>
<text text-anchor="middle" x="672.7549" y="-240.0657" font-family="Times,serif" font-size="11.00" fill="#c0c0c0">Forms</text>
</g>
<g id="clust22" class="cluster">
<title>cluster_\Firesphere\SolrFluent</title>
<path fill="none" stroke="#c0c0c0" d="M836.7549,-670.8657C836.7549,-670.8657 1016.7549,-670.8657 1016.7549,-670.8657 1022.7549,-670.8657 1028.7549,-676.8657 1028.7549,-682.8657 1028.7549,-682.8657 1028.7549,-954.8657 1028.7549,-954.8657 1028.7549,-960.8657 1022.7549,-966.8657 1016.7549,-966.8657 1016.7549,-966.8657 836.7549,-966.8657 836.7549,-966.8657 830.7549,-966.8657 824.7549,-960.8657 824.7549,-954.8657 824.7549,-954.8657 824.7549,-682.8657 824.7549,-682.8657 824.7549,-676.8657 830.7549,-670.8657 836.7549,-670.8657"/>
<text text-anchor="middle" x="926.7549" y="-954.0657" font-family="Times,serif" font-size="11.00" fill="#c0c0c0">SolrFluent</text>
</g>
<g id="clust23" class="cluster">
<title>cluster_\Firesphere\SolrFluent\Extensions</title>
<path fill="none" stroke="#c0c0c0" d="M844.7549,-678.8657C844.7549,-678.8657 1008.7549,-678.8657 1008.7549,-678.8657 1014.7549,-678.8657 1020.7549,-684.8657 1020.7549,-690.8657 1020.7549,-690.8657 1020.7549,-846.8657 1020.7549,-846.8657 1020.7549,-852.8657 1014.7549,-858.8657 1008.7549,-858.8657 1008.7549,-858.8657 844.7549,-858.8657 844.7549,-858.8657 838.7549,-858.8657 832.7549,-852.8657 832.7549,-846.8657 832.7549,-846.8657 832.7549,-690.8657 832.7549,-690.8657 832.7549,-684.8657 838.7549,-678.8657 844.7549,-678.8657"/>
<text text-anchor="middle" x="926.7549" y="-846.0657" font-family="Times,serif" font-size="11.00" fill="#c0c0c0">Extensions</text>
</g>
<g id="clust24" class="cluster">
<title>cluster_\Firesphere\SolrFluent\States</title>
<path fill="none" stroke="#c0c0c0" d="M871.7549,-866.8657C871.7549,-866.8657 981.7549,-866.8657 981.7549,-866.8657 987.7549,-866.8657 993.7549,-872.8657 993.7549,-878.8657 993.7549,-878.8657 993.7549,-926.8657 993.7549,-926.8657 993.7549,-932.8657 987.7549,-938.8657 981.7549,-938.8657 981.7549,-938.8657 871.7549,-938.8657 871.7549,-938.8657 865.7549,-938.8657 859.7549,-932.8657 859.7549,-926.8657 859.7549,-926.8657 859.7549,-878.8657 859.7549,-878.8657 859.7549,-872.8657 865.7549,-866.8657 871.7549,-866.8657"/>
<text text-anchor="middle" x="926.7549" y="-926.0657" font-family="Times,serif" font-size="11.00" fill="#c0c0c0">States</text>
</g>
<g id="clust25" class="cluster">
<title>cluster_\Firesphere\SolrSubsites</title>
<path fill="none" stroke="#c0c0c0" d="M857.2549,-974.8657C857.2549,-974.8657 996.2549,-974.8657 996.2549,-974.8657 1002.2549,-974.8657 1008.2549,-980.8657 1008.2549,-986.8657 1008.2549,-986.8657 1008.2549,-1150.8657 1008.2549,-1150.8657 1008.2549,-1156.8657 1002.2549,-1162.8657 996.2549,-1162.8657 996.2549,-1162.8657 857.2549,-1162.8657 857.2549,-1162.8657 851.2549,-1162.8657 845.2549,-1156.8657 845.2549,-1150.8657 845.2549,-1150.8657 845.2549,-986.8657 845.2549,-986.8657 845.2549,-980.8657 851.2549,-974.8657 857.2549,-974.8657"/>
<text text-anchor="middle" x="926.7549" y="-1150.0657" font-family="Times,serif" font-size="11.00" fill="#c0c0c0">SolrSubsites</text>
</g>
<g id="clust26" class="cluster">
<title>cluster_\Firesphere\SolrSubsites\Extensions</title>
<path fill="none" stroke="#c0c0c0" d="M865.2549,-982.8657C865.2549,-982.8657 988.2549,-982.8657 988.2549,-982.8657 994.2549,-982.8657 1000.2549,-988.8657 1000.2549,-994.8657 1000.2549,-994.8657 1000.2549,-1042.8657 1000.2549,-1042.8657 1000.2549,-1048.8657 994.2549,-1054.8657 988.2549,-1054.8657 988.2549,-1054.8657 865.2549,-1054.8657 865.2549,-1054.8657 859.2549,-1054.8657 853.2549,-1048.8657 853.2549,-1042.8657 853.2549,-1042.8657 853.2549,-994.8657 853.2549,-994.8657 853.2549,-988.8657 859.2549,-982.8657 865.2549,-982.8657"/>
<text text-anchor="middle" x="926.7549" y="-1042.0657" font-family="Times,serif" font-size="11.00" fill="#c0c0c0">Extensions</text>
</g>
<g id="clust27" class="cluster">
<title>cluster_\Firesphere\SolrSubsites\States</title>
<path fill="none" stroke="#c0c0c0" d="M881.7549,-1062.8657C881.7549,-1062.8657 971.7549,-1062.8657 971.7549,-1062.8657 977.7549,-1062.8657 983.7549,-1068.8657 983.7549,-1074.8657 983.7549,-1074.8657 983.7549,-1122.8657 983.7549,-1122.8657 983.7549,-1128.8657 977.7549,-1134.8657 971.7549,-1134.8657 971.7549,-1134.8657 881.7549,-1134.8657 881.7549,-1134.8657 875.7549,-1134.8657 869.7549,-1128.8657 869.7549,-1122.8657 869.7549,-1122.8657 869.7549,-1074.8657 869.7549,-1074.8657 869.7549,-1068.8657 875.7549,-1062.8657 881.7549,-1062.8657"/>
<text text-anchor="middle" x="926.7549" y="-1122.0657" font-family="Times,serif" font-size="11.00" fill="#c0c0c0">States</text>
</g>
<g id="clust28" class="cluster">
<title>cluster_\Firesphere\SolrPermissions</title>
<path fill="none" stroke="#c0c0c0" d="M833.2549,-392.8657C833.2549,-392.8657 1020.2549,-392.8657 1020.2549,-392.8657 1026.2549,-392.8657 1032.2549,-398.8657 1032.2549,-404.8657 1032.2549,-404.8657 1032.2549,-650.8657 1032.2549,-650.8657 1032.2549,-656.8657 1026.2549,-662.8657 1020.2549,-662.8657 1020.2549,-662.8657 833.2549,-662.8657 833.2549,-662.8657 827.2549,-662.8657 821.2549,-656.8657 821.2549,-650.8657 821.2549,-650.8657 821.2549,-404.8657 821.2549,-404.8657 821.2549,-398.8657 827.2549,-392.8657 833.2549,-392.8657"/>
<text text-anchor="middle" x="926.7549" y="-650.0657" font-family="Times,serif" font-size="11.00" fill="#c0c0c0">SolrPermissions</text>
</g>
<g id="clust29" class="cluster">
<title>cluster_\Firesphere\SolrPermissions\Extensions</title>
<path fill="none" stroke="#c0c0c0" d="M841.2549,-400.8657C841.2549,-400.8657 1012.2549,-400.8657 1012.2549,-400.8657 1018.2549,-400.8657 1024.2549,-406.8657 1024.2549,-412.8657 1024.2549,-412.8657 1024.2549,-622.8657 1024.2549,-622.8657 1024.2549,-628.8657 1018.2549,-634.8657 1012.2549,-634.8657 1012.2549,-634.8657 841.2549,-634.8657 841.2549,-634.8657 835.2549,-634.8657 829.2549,-628.8657 829.2549,-622.8657 829.2549,-622.8657 829.2549,-412.8657 829.2549,-412.8657 829.2549,-406.8657 835.2549,-400.8657 841.2549,-400.8657"/>
<text text-anchor="middle" x="926.7549" y="-622.0657" font-family="Times,serif" font-size="11.00" fill="#c0c0c0">Extensions</text>
</g>
<g id="clust30" class="cluster">
<title>cluster_\SilverStripe</title>
<path fill="none" stroke="#c0c0c0" d="M861.2549,-3056.8657C861.2549,-3056.8657 992.2549,-3056.8657 992.2549,-3056.8657 998.2549,-3056.8657 1004.2549,-3062.8657 1004.2549,-3068.8657 1004.2549,-3068.8657 1004.2549,-3358.8657 1004.2549,-3358.8657 1004.2549,-3364.8657 998.2549,-3370.8657 992.2549,-3370.8657 992.2549,-3370.8657 861.2549,-3370.8657 861.2549,-3370.8657 855.2549,-3370.8657 849.2549,-3364.8657 849.2549,-3358.8657 849.2549,-3358.8657 849.2549,-3068.8657 849.2549,-3068.8657 849.2549,-3062.8657 855.2549,-3056.8657 861.2549,-3056.8657"/>
<text text-anchor="middle" x="926.7549" y="-3358.0657" font-family="Times,serif" font-size="11.00" fill="#c0c0c0">SilverStripe</text>
</g>
<g id="clust31" class="cluster">
<title>cluster_\SilverStripe\FullTextSearch</title>
<path fill="none" stroke="#c0c0c0" d="M869.2549,-3064.8657C869.2549,-3064.8657 984.2549,-3064.8657 984.2549,-3064.8657 990.2549,-3064.8657 996.2549,-3070.8657 996.2549,-3076.8657 996.2549,-3076.8657 996.2549,-3330.8657 996.2549,-3330.8657 996.2549,-3336.8657 990.2549,-3342.8657 984.2549,-3342.8657 984.2549,-3342.8657 869.2549,-3342.8657 869.2549,-3342.8657 863.2549,-3342.8657 857.2549,-3336.8657 857.2549,-3330.8657 857.2549,-3330.8657 857.2549,-3076.8657 857.2549,-3076.8657 857.2549,-3070.8657 863.2549,-3064.8657 869.2549,-3064.8657"/>
<text text-anchor="middle" x="926.7549" y="-3330.0657" font-family="Times,serif" font-size="11.00" fill="#c0c0c0">FullTextSearch</text>
</g>
<g id="clust32" class="cluster">
<title>cluster_\SilverStripe\FullTextSearch\Solr</title>
<path fill="none" stroke="#c0c0c0" d="M888.7549,-3072.8657C888.7549,-3072.8657 964.7549,-3072.8657 964.7549,-3072.8657 970.7549,-3072.8657 976.7549,-3078.8657 976.7549,-3084.8657 976.7549,-3084.8657 976.7549,-3186.8657 976.7549,-3186.8657 976.7549,-3192.8657 970.7549,-3198.8657 964.7549,-3198.8657 964.7549,-3198.8657 888.7549,-3198.8657 888.7549,-3198.8657 882.7549,-3198.8657 876.7549,-3192.8657 876.7549,-3186.8657 876.7549,-3186.8657 876.7549,-3084.8657 876.7549,-3084.8657 876.7549,-3078.8657 882.7549,-3072.8657 888.7549,-3072.8657"/>
<text text-anchor="middle" x="926.7549" y="-3186.0657" font-family="Times,serif" font-size="11.00" fill="#c0c0c0">Solr</text>
</g>
<g id="clust33" class="cluster">
<title>cluster_\SilverStripe\FullTextSearch\Search</title>
<path fill="none" stroke="#c0c0c0" d="M877.2549,-3206.8657C877.2549,-3206.8657 976.2549,-3206.8657 976.2549,-3206.8657 982.2549,-3206.8657 988.2549,-3212.8657 988.2549,-3218.8657 988.2549,-3218.8657 988.2549,-3302.8657 988.2549,-3302.8657 988.2549,-3308.8657 982.2549,-3314.8657 976.2549,-3314.8657 976.2549,-3314.8657 877.2549,-3314.8657 877.2549,-3314.8657 871.2549,-3314.8657 865.2549,-3308.8657 865.2549,-3302.8657 865.2549,-3302.8657 865.2549,-3218.8657 865.2549,-3218.8657 865.2549,-3212.8657 871.2549,-3206.8657 877.2549,-3206.8657"/>
<text text-anchor="middle" x="926.7549" y="-3302.0657" font-family="Times,serif" font-size="11.00" fill="#c0c0c0">Search</text>
</g>
<g id="clust34" class="cluster">
<title>cluster_\SilverStripe\FullTextSearch\Search\Queries</title>
<path fill="none" stroke="#c0c0c0" d="M885.2549,-3214.8657C885.2549,-3214.8657 968.2549,-3214.8657 968.2549,-3214.8657 974.2549,-3214.8657 980.2549,-3220.8657 980.2549,-3226.8657 980.2549,-3226.8657 980.2549,-3274.8657 980.2549,-3274.8657 980.2549,-3280.8657 974.2549,-3286.8657 968.2549,-3286.8657 968.2549,-3286.8657 885.2549,-3286.8657 885.2549,-3286.8657 879.2549,-3286.8657 873.2549,-3280.8657 873.2549,-3274.8657 873.2549,-3274.8657 873.2549,-3226.8657 873.2549,-3226.8657 873.2549,-3220.8657 879.2549,-3214.8657 885.2549,-3214.8657"/>
<text text-anchor="middle" x="926.7549" y="-3274.0657" font-family="Times,serif" font-size="11.00" fill="#c0c0c0">Queries</text>
</g>
<!-- \\Firesphere\\SolrCompatibility\\Extensions\\FulltextSearchExtension -->
<g id="node1" class="node">
<title>\\Firesphere\\SolrCompatibility\\Extensions\\FulltextSearchExtension</title>
<polygon fill="none" stroke="#000000" points="1012.7549,-328.8657 840.7549,-328.8657 840.7549,-292.8657 1012.7549,-292.8657 1012.7549,-328.8657"/>
<text text-anchor="middle" x="926.7549" y="-308.0657" font-family="Courier,monospace" font-size="11.00" fill="#000000">FulltextSearchExtension</text>
</g>
<!-- \\SilverStripe\\Core\\Extension -->
<g id="node64" class="node">
<title>\\SilverStripe\\Core\\Extension</title>
<ellipse fill="none" stroke="#000000" cx="254.1275" cy="-18.8657" rx="144.0747" ry="18"/>
<text text-anchor="middle" x="254.1275" y="-15.1657" font-family="Times,serif" font-size="14.00" fill="#c0c0c0">\SilverStripe\Core\Extension</text>
</g>
<!-- \\Firesphere\\SolrCompatibility\\Extensions\\FulltextSearchExtension&#45;&gt;\\SilverStripe\\Core\\Extension -->
<g id="edge1" class="edge">
<title>\\Firesphere\\SolrCompatibility\\Extensions\\FulltextSearchExtension&#45;&gt;\\SilverStripe\\Core\\Extension</title>
<path fill="none" stroke="#000000" d="M840.6068,-297.5847C833.4769,-293.9849 826.8668,-289.4836 821.2549,-283.8657 770.3658,-232.9218 832.974,-176.9669 781.2549,-126.8657 745.782,-92.5025 712.7764,-131.8042 672.7549,-102.8657"/>
</g>
<!-- \\Firesphere\\SolrCompatibility\\Extensions\\SolrCoreServiceExtension -->
<g id="node2" class="node">
<title>\\Firesphere\\SolrCompatibility\\Extensions\\SolrCoreServiceExtension</title>
<polygon fill="none" stroke="#000000" points="1016.2549,-274.8657 837.2549,-274.8657 837.2549,-238.8657 1016.2549,-238.8657 1016.2549,-274.8657"/>
<text text-anchor="middle" x="926.7549" y="-254.0657" font-family="Courier,monospace" font-size="11.00" fill="#000000">SolrCoreServiceExtension</text>
</g>
<!-- \\Firesphere\\SolrCompatibility\\Extensions\\SolrCoreServiceExtension&#45;&gt;\\SilverStripe\\Core\\Extension -->
<g id="edge2" class="edge">
<title>\\Firesphere\\SolrCompatibility\\Extensions\\SolrCoreServiceExtension&#45;&gt;\\SilverStripe\\Core\\Extension</title>
<path fill="none" stroke="#000000" d="M837.1938,-240.7899C831.4573,-237.739 826.0644,-234.1307 821.2549,-229.8657 784.5121,-197.2832 818.5279,-158.8404 781.2549,-126.8657 743.7699,-94.7093 712.7764,-131.8042 672.7549,-102.8657"/>
</g>
<!-- \\Firesphere\\SolrCompatibility\\Extensions\\DataObjectExtension -->
<g id="node3" class="node">
<title>\\Firesphere\\SolrCompatibility\\Extensions\\DataObjectExtension</title>
<polygon fill="none" stroke="#000000" points="999.2549,-220.8657 854.2549,-220.8657 854.2549,-184.8657 999.2549,-184.8657 999.2549,-220.8657"/>
<text text-anchor="middle" x="926.7549" y="-200.0657" font-family="Courier,monospace" font-size="11.00" fill="#000000">DataObjectExtension</text>
</g>
<!-- \\Firesphere\\SolrCompatibility\\Extensions\\DataObjectExtension&#45;&gt;\\SilverStripe\\Core\\Extension -->
<g id="edge3" class="edge">
<title>\\Firesphere\\SolrCompatibility\\Extensions\\DataObjectExtension&#45;&gt;\\SilverStripe\\Core\\Extension</title>
<path fill="none" stroke="#000000" d="M897.7118,-184.7597C869.069,-167.6216 823.5604,-142.2857 781.2549,-126.8657 734.8533,-109.9528 712.7764,-131.8042 672.7549,-102.8657"/>
<path fill="none" stroke="#000000" d="M672.7549,-102.8657C596.7726,-47.9249 493.6724,-26.7695 408.8031,-19.4257"/>
<polygon fill="none" stroke="#000000" points="409.0605,-15.9351 398.8107,-18.6171 408.4958,-22.9123 409.0605,-15.9351"/>
</g>
<!-- \\Firesphere\\SolrSearch\\Admins\\SearchAdmin -->
<g id="node4" class="node">
<title>\\Firesphere\\SolrSearch\\Admins\\SearchAdmin</title>
<polygon fill="none" stroke="#000000" points="718.2549,-2562.8657 627.2549,-2562.8657 627.2549,-2526.8657 718.2549,-2526.8657 718.2549,-2562.8657"/>
<text text-anchor="middle" x="672.7549" y="-2542.0657" font-family="Courier,monospace" font-size="11.00" fill="#000000">SearchAdmin</text>
</g>
<!-- \\SilverStripe\\Admin\\ModelAdmin -->
<g id="node65" class="node">
<title>\\SilverStripe\\Admin\\ModelAdmin</title>
<ellipse fill="none" stroke="#000000" cx="254.1275" cy="-126.8657" rx="165.1707" ry="18"/>
<text text-anchor="middle" x="254.1275" y="-123.1657" font-family="Times,serif" font-size="14.00" fill="#c0c0c0">\SilverStripe\Admin\ModelAdmin</text>
</g>
<!-- \\Firesphere\\SolrSearch\\Admins\\SearchAdmin&#45;&gt;\\SilverStripe\\Admin\\ModelAdmin -->
<g id="edge6" class="edge">
<title>\\Firesphere\\SolrSearch\\Admins\\SearchAdmin&#45;&gt;\\SilverStripe\\Admin\\ModelAdmin</title>
<path fill="none" stroke="#000000" d="M627.2484,-2542.0831C607.5112,-2538.464 585.8498,-2530.7925 572.2549,-2514.8657 410.1329,-2324.9361 273.6339,-411.138 256.043,-155.1213"/>
<polygon fill="none" stroke="#000000" points="259.5336,-154.8631 255.3589,-145.1255 252.55,-155.3412 259.5336,-154.8631"/>
</g>
<!-- \\Firesphere\\SolrSearch\\Factories\\QueryComponentFactory -->
<g id="node5" class="node">
<title>\\Firesphere\\SolrSearch\\Factories\\QueryComponentFactory</title>
<polygon fill="none" stroke="#000000" points="751.7549,-2964.8657 593.7549,-2964.8657 593.7549,-2928.8657 751.7549,-2928.8657 751.7549,-2964.8657"/>
<text text-anchor="middle" x="672.7549" y="-2944.0657" font-family="Courier,monospace" font-size="11.00" fill="#000000">QueryComponentFactory</text>
</g>
<!-- \\Firesphere\\SolrSearch\\Factories\\DocumentFactory -->
<g id="node6" class="node">
<title>\\Firesphere\\SolrSearch\\Factories\\DocumentFactory</title>
<polygon fill="none" stroke="#000000" points="731.7549,-2910.8657 613.7549,-2910.8657 613.7549,-2874.8657 731.7549,-2874.8657 731.7549,-2910.8657"/>
<text text-anchor="middle" x="672.7549" y="-2890.0657" font-family="Courier,monospace" font-size="11.00" fill="#000000">DocumentFactory</text>
</g>
<!-- \\Firesphere\\SolrSearch\\Factories\\SchemaFactory -->
<g id="node7" class="node">
<title>\\Firesphere\\SolrSearch\\Factories\\SchemaFactory</title>
<polygon fill="none" stroke="#000000" points="724.7549,-2856.8657 620.7549,-2856.8657 620.7549,-2820.8657 724.7549,-2820.8657 724.7549,-2856.8657"/>
<text text-anchor="middle" x="672.7549" y="-2836.0657" font-family="Courier,monospace" font-size="11.00" fill="#000000">SchemaFactory</text>
</g>
<!-- \\SilverStripe\\View\\ViewableData -->
<g id="node66" class="node">
<title>\\SilverStripe\\View\\ViewableData</title>
<ellipse fill="none" stroke="#000000" cx="254.1275" cy="-3694.8657" rx="163.2712" ry="18"/>
<text text-anchor="middle" x="254.1275" y="-3691.1657" font-family="Times,serif" font-size="14.00" fill="#c0c0c0">\SilverStripe\View\ViewableData</text>
</g>
<!-- \\Firesphere\\SolrSearch\\Factories\\SchemaFactory&#45;&gt;\\SilverStripe\\View\\ViewableData -->
<g id="edge7" class="edge">
<title>\\Firesphere\\SolrSearch\\Factories\\SchemaFactory&#45;&gt;\\SilverStripe\\View\\ViewableData</title>
<path fill="none" stroke="#000000" d="M620.7245,-2840.9421C602.7507,-2844.3966 584.1571,-2851.5612 572.2549,-2865.8657 457.9007,-3003.3013 633.0096,-3539.7967 508.2549,-3667.8657 467.0879,-3710.1264 400.1225,-3715.769 345.2666,-3711.4324"/>
<polygon fill="none" stroke="#000000" points="345.4499,-3707.9347 335.1737,-3710.5131 344.8149,-3714.9058 345.4499,-3707.9347"/>
</g>
<!-- \\Firesphere\\SolrSearch\\Results\\SearchResult -->
<g id="node8" class="node">
<title>\\Firesphere\\SolrSearch\\Results\\SearchResult</title>
<polygon fill="none" stroke="#000000" points="721.7549,-2776.8657 623.7549,-2776.8657 623.7549,-2740.8657 721.7549,-2740.8657 721.7549,-2776.8657"/>
<text text-anchor="middle" x="672.7549" y="-2756.0657" font-family="Courier,monospace" font-size="11.00" fill="#000000">SearchResult</text>
</g>
<!-- \\Firesphere\\SolrSearch\\Results\\SearchResult&#45;&gt;\\SilverStripe\\View\\ViewableData -->
<g id="edge8" class="edge">
<title>\\Firesphere\\SolrSearch\\Results\\SearchResult&#45;&gt;\\SilverStripe\\View\\ViewableData</title>
<path fill="none" stroke="#000000" d="M623.6432,-2771.7438C604.4497,-2779.3404 584.2127,-2791.074 572.2549,-2808.8657 465.4785,-2967.7356 641.4606,-3530.3991 508.2549,-3667.8657 467.1266,-3710.3096 399.9924,-3715.8929 345.0524,-3711.4841"/>
<polygon fill="none" stroke="#000000" points="345.2242,-3707.9851 334.9449,-3710.5512 344.5809,-3714.9555 345.2242,-3707.9851"/>
</g>
<!-- \\Firesphere\\SolrSearch\\Stores\\FileConfigStore -->
<g id="node9" class="node">
<title>\\Firesphere\\SolrSearch\\Stores\\FileConfigStore</title>
<polygon fill="none" stroke="#000000" points="731.7549,-2696.8657 613.7549,-2696.8657 613.7549,-2660.8657 731.7549,-2660.8657 731.7549,-2696.8657"/>
<text text-anchor="middle" x="672.7549" y="-2676.0657" font-family="Courier,monospace" font-size="11.00" fill="#000000">FileConfigStore</text>
</g>
<!-- \\Firesphere\\SolrSearch\\Interfaces\\ConfigStore -->
<g id="node42" class="node">
<title>\\Firesphere\\SolrSearch\\Interfaces\\ConfigStore</title>
<polygon fill="none" stroke="#000000" points="299.6275,-2642.8657 208.6275,-2642.8657 208.6275,-2606.8657 299.6275,-2606.8657 299.6275,-2642.8657"/>
<text text-anchor="middle" x="254.1275" y="-2622.0657" font-family="Courier,monospace" font-size="11.00" fill="#000000">ConfigStore</text>
</g>
<!-- \\Firesphere\\SolrSearch\\Stores\\FileConfigStore&#45;&gt;\\Firesphere\\SolrSearch\\Interfaces\\ConfigStore -->
<g id="edge9" class="edge">
<title>\\Firesphere\\SolrSearch\\Stores\\FileConfigStore&#45;&gt;\\Firesphere\\SolrSearch\\Interfaces\\ConfigStore</title>
<path fill="none" stroke="#000000" stroke-dasharray="1,5" d="M613.6637,-2671.2434C532.8854,-2660.8235 389.0185,-2642.2657 309.9722,-2632.0693"/>
<polygon fill="none" stroke="#000000" points="310.0944,-2628.5561 299.7287,-2630.748 309.1988,-2635.4986 310.0944,-2628.5561"/>
</g>
<!-- \\Firesphere\\SolrSearch\\Stores\\PostConfigStore -->
<g id="node10" class="node">
<title>\\Firesphere\\SolrSearch\\Stores\\PostConfigStore</title>
<polygon fill="none" stroke="#000000" points="731.7549,-2642.8657 613.7549,-2642.8657 613.7549,-2606.8657 731.7549,-2606.8657 731.7549,-2642.8657"/>
<text text-anchor="middle" x="672.7549" y="-2622.0657" font-family="Courier,monospace" font-size="11.00" fill="#000000">PostConfigStore</text>
</g>
<!-- \\Firesphere\\SolrSearch\\Stores\\PostConfigStore&#45;&gt;\\Firesphere\\SolrSearch\\Interfaces\\ConfigStore -->
<g id="edge10" class="edge">
<title>\\Firesphere\\SolrSearch\\Stores\\PostConfigStore&#45;&gt;\\Firesphere\\SolrSearch\\Interfaces\\ConfigStore</title>
<path fill="none" stroke="#000000" stroke-dasharray="1,5" d="M613.6637,-2624.8657C532.8854,-2624.8657 389.0185,-2624.8657 309.9722,-2624.8657"/>
<polygon fill="none" stroke="#000000" points="309.7288,-2621.3658 299.7287,-2624.8657 309.7287,-2628.3658 309.7288,-2621.3658"/>
</g>
<!-- \\Firesphere\\SolrSearch\\Extensions\\GridFieldExtension -->
<g id="node11" class="node">
<title>\\Firesphere\\SolrSearch\\Extensions\\GridFieldExtension</title>
<polygon fill="none" stroke="#000000" points="741.7549,-2428.8657 603.7549,-2428.8657 603.7549,-2392.8657 741.7549,-2392.8657 741.7549,-2428.8657"/>
<text text-anchor="middle" x="672.7549" y="-2408.0657" font-family="Courier,monospace" font-size="11.00" fill="#000000">GridFieldExtension</text>
</g>
<!-- \\Firesphere\\SolrSearch\\Extensions\\GridFieldExtension&#45;&gt;\\SilverStripe\\Core\\Extension -->
<g id="edge11" class="edge">
<title>\\Firesphere\\SolrSearch\\Extensions\\GridFieldExtension&#45;&gt;\\SilverStripe\\Core\\Extension</title>
<path fill="none" stroke="#000000" d="M603.7376,-2402.6794C591.512,-2398.099 580.1759,-2391.1981 572.2549,-2380.8657 414.347,-2174.8874 684.441,-236.445 508.2549,-45.8657 466.3466,-.5338 394.9182,3.4956 338.4413,-2.2711"/>
<polygon fill="none" stroke="#000000" points="337.98,1.1991 328.4398,-3.4089 338.7714,-5.756 337.98,1.1991"/>
</g>
<!-- \\Firesphere\\SolrSearch\\Extensions\\DataObjectExtension -->
<g id="node12" class="node">
<title>\\Firesphere\\SolrSearch\\Extensions\\DataObjectExtension</title>
<polygon fill="none" stroke="#000000" points="745.2549,-2482.8657 600.2549,-2482.8657 600.2549,-2446.8657 745.2549,-2446.8657 745.2549,-2482.8657"/>
<text text-anchor="middle" x="672.7549" y="-2462.0657" font-family="Courier,monospace" font-size="11.00" fill="#000000">DataObjectExtension</text>
</g>
<!-- \\SilverStripe\\ORM\\DataExtension -->
<g id="node67" class="node">
<title>\\SilverStripe\\ORM\\DataExtension</title>
<ellipse fill="none" stroke="#000000" cx="254.1275" cy="-72.8657" rx="167.8704" ry="18"/>
<text text-anchor="middle" x="254.1275" y="-69.1657" font-family="Times,serif" font-size="14.00" fill="#c0c0c0">\SilverStripe\ORM\DataExtension</text>
</g>
<!-- \\Firesphere\\SolrSearch\\Extensions\\DataObjectExtension&#45;&gt;\\SilverStripe\\ORM\\DataExtension -->
<g id="edge12" class="edge">
<title>\\Firesphere\\SolrSearch\\Extensions\\DataObjectExtension&#45;&gt;\\SilverStripe\\ORM\\DataExtension</title>
<path fill="none" stroke="#000000" d="M600.0418,-2457.4044C589.2773,-2453.1709 579.4156,-2446.9442 572.2549,-2437.8657 411.314,-2233.8238 684.6638,-290.6927 508.2549,-99.8657 467.4265,-55.7004 398.5779,-50.7386 342.8337,-55.8452"/>
<polygon fill="none" stroke="#000000" points="342.1724,-52.3949 332.5872,-56.9087 342.8951,-59.3575 342.1724,-52.3949"/>
</g>
<!-- \\Firesphere\\SolrSearch\\Helpers\\FieldResolver -->
<g id="node13" class="node">
<title>\\Firesphere\\SolrSearch\\Helpers\\FieldResolver</title>
<polygon fill="none" stroke="#000000" points="724.7549,-2348.8657 620.7549,-2348.8657 620.7549,-2312.8657 724.7549,-2312.8657 724.7549,-2348.8657"/>
<text text-anchor="middle" x="672.7549" y="-2328.0657" font-family="Courier,monospace" font-size="11.00" fill="#000000">FieldResolver</text>
</g>
<!-- \\Firesphere\\SolrSearch\\Helpers\\Synonyms -->
<g id="node14" class="node">
<title>\\Firesphere\\SolrSearch\\Helpers\\Synonyms</title>
<polygon fill="none" stroke="#000000" points="708.2549,-2294.8657 637.2549,-2294.8657 637.2549,-2258.8657 708.2549,-2258.8657 708.2549,-2294.8657"/>
<text text-anchor="middle" x="672.7549" y="-2274.0657" font-family="Courier,monospace" font-size="11.00" fill="#000000">Synonyms</text>
</g>
<!-- \\Firesphere\\SolrSearch\\Helpers\\DataResolver -->
<g id="node15" class="node">
<title>\\Firesphere\\SolrSearch\\Helpers\\DataResolver</title>
<polygon fill="none" stroke="#000000" points="721.7549,-2240.8657 623.7549,-2240.8657 623.7549,-2204.8657 721.7549,-2204.8657 721.7549,-2240.8657"/>
<text text-anchor="middle" x="672.7549" y="-2220.0657" font-family="Courier,monospace" font-size="11.00" fill="#000000">DataResolver</text>
</g>
<!-- \\Firesphere\\SolrSearch\\Helpers\\Statics -->
<g id="node16" class="node">
<title>\\Firesphere\\SolrSearch\\Helpers\\Statics</title>
<polygon fill="none" stroke="#000000" points="704.7549,-2186.8657 640.7549,-2186.8657 640.7549,-2150.8657 704.7549,-2150.8657 704.7549,-2186.8657"/>
<text text-anchor="middle" x="672.7549" y="-2166.0657" font-family="Courier,monospace" font-size="11.00" fill="#000000">Statics</text>
</g>
<!-- \\Firesphere\\SolrSearch\\Helpers\\SolrLogger -->
<g id="node17" class="node">
<title>\\Firesphere\\SolrSearch\\Helpers\\SolrLogger</title>
<polygon fill="none" stroke="#000000" points="714.7549,-2132.8657 630.7549,-2132.8657 630.7549,-2096.8657 714.7549,-2096.8657 714.7549,-2132.8657"/>
<text text-anchor="middle" x="672.7549" y="-2112.0657" font-family="Courier,monospace" font-size="11.00" fill="#000000">SolrLogger</text>
</g>
<!-- \\Firesphere\\SolrSearch\\Queries\\BaseQuery -->
<g id="node18" class="node">
<title>\\Firesphere\\SolrSearch\\Queries\\BaseQuery</title>
<polygon fill="none" stroke="#000000" points="711.2549,-2052.8657 634.2549,-2052.8657 634.2549,-2016.8657 711.2549,-2016.8657 711.2549,-2052.8657"/>
<text text-anchor="middle" x="672.7549" y="-2032.0657" font-family="Courier,monospace" font-size="11.00" fill="#000000">BaseQuery</text>
</g>
<!-- \\Firesphere\\SolrSearch\\Models\\SearchSynonym -->
<g id="node19" class="node">
<title>\\Firesphere\\SolrSearch\\Models\\SearchSynonym</title>
<polygon fill="none" stroke="#000000" points="724.7549,-1918.8657 620.7549,-1918.8657 620.7549,-1882.8657 724.7549,-1882.8657 724.7549,-1918.8657"/>
<text text-anchor="middle" x="672.7549" y="-1898.0657" font-family="Courier,monospace" font-size="11.00" fill="#000000">SearchSynonym</text>
</g>
<!-- \\SilverStripe\\ORM\\DataObject -->
<g id="node68" class="node">
<title>\\SilverStripe\\ORM\\DataObject</title>
<ellipse fill="none" stroke="#000000" cx="254.1275" cy="-3640.8657" rx="152.9733" ry="18"/>
<text text-anchor="middle" x="254.1275" y="-3637.1657" font-family="Times,serif" font-size="14.00" fill="#c0c0c0">\SilverStripe\ORM\DataObject</text>
</g>
<!-- \\Firesphere\\SolrSearch\\Models\\SearchSynonym&#45;&gt;\\SilverStripe\\ORM\\DataObject -->
<g id="edge13" class="edge">
<title>\\Firesphere\\SolrSearch\\Models\\SearchSynonym&#45;&gt;\\SilverStripe\\ORM\\DataObject</title>
<path fill="none" stroke="#000000" d="M620.6645,-1902.63C602.5713,-1906.0339 583.9126,-1913.2456 572.2549,-1927.8657 455.379,-2074.4412 636.2385,-3476.882 508.2549,-3613.8657 466.7659,-3658.2724 396.9217,-3662.8885 340.9433,-3657.5816"/>
<polygon fill="none" stroke="#000000" points="340.9777,-3654.0654 330.6623,-3656.4826 340.2336,-3661.0258 340.9777,-3654.0654"/>
</g>
<!-- \\Firesphere\\SolrSearch\\Models\\SolrLog -->
<g id="node20" class="node">
<title>\\Firesphere\\SolrSearch\\Models\\SolrLog</title>
<polygon fill="none" stroke="#000000" points="704.7549,-1864.8657 640.7549,-1864.8657 640.7549,-1828.8657 704.7549,-1828.8657 704.7549,-1864.8657"/>
<text text-anchor="middle" x="672.7549" y="-1844.0657" font-family="Courier,monospace" font-size="11.00" fill="#000000">SolrLog</text>
</g>
<!-- \\Firesphere\\SolrSearch\\Models\\SolrLog&#45;&gt;\\SilverStripe\\ORM\\DataObject -->
<g id="edge14" class="edge">
<title>\\Firesphere\\SolrSearch\\Models\\SolrLog&#45;&gt;\\SilverStripe\\ORM\\DataObject</title>
<path fill="none" stroke="#000000" d="M640.7053,-1846.1909C617.8224,-1847.6 588.3498,-1853.6565 572.2549,-1873.8657 451.73,-2025.2001 640.2487,-3472.4232 508.2549,-3613.8657 466.792,-3658.2968 396.946,-3662.9112 340.9603,-3657.5974"/>
<polygon fill="none" stroke="#000000" points="340.9935,-3654.0811 330.6778,-3656.4971 340.2486,-3661.0413 340.9935,-3654.0811"/>
</g>
<!-- \\SilverStripe\\Security\\PermissionProvider -->
<g id="node69" class="node">
<title>\\SilverStripe\\Security\\PermissionProvider</title>
<ellipse fill="none" stroke="#000000" cx="254.1275" cy="-3586.8657" rx="206.0634" ry="18"/>
<text text-anchor="middle" x="254.1275" y="-3583.1657" font-family="Times,serif" font-size="14.00" fill="#c0c0c0">\SilverStripe\Security\PermissionProvider</text>
</g>
<!-- \\Firesphere\\SolrSearch\\Models\\SolrLog&#45;&gt;\\SilverStripe\\Security\\PermissionProvider -->
<g id="edge15" class="edge">
<title>\\Firesphere\\SolrSearch\\Models\\SolrLog&#45;&gt;\\SilverStripe\\Security\\PermissionProvider</title>
<path fill="none" stroke="#000000" stroke-dasharray="1,5" d="M640.7122,-1846.1964C617.8329,-1847.6084 588.3617,-1853.666 572.2549,-1873.8657 455.379,-2020.4412 636.2385,-3422.882 508.2549,-3559.8657 468.548,-3602.3649 402.8697,-3608.4185 348.2304,-3604.2082"/>
<polygon fill="none" stroke="#000000" points="348.4371,-3600.7128 338.1653,-3603.3091 347.8142,-3607.685 348.4371,-3600.7128"/>
</g>
<!-- \\Firesphere\\SolrSearch\\Models\\DirtyClass -->
<g id="node21" class="node">
<title>\\Firesphere\\SolrSearch\\Models\\DirtyClass</title>
<polygon fill="none" stroke="#000000" points="714.7549,-1972.8657 630.7549,-1972.8657 630.7549,-1936.8657 714.7549,-1936.8657 714.7549,-1972.8657"/>
<text text-anchor="middle" x="672.7549" y="-1952.0657" font-family="Courier,monospace" font-size="11.00" fill="#000000">DirtyClass</text>
</g>
<!-- \\Firesphere\\SolrSearch\\Models\\DirtyClass&#45;&gt;\\SilverStripe\\ORM\\DataObject -->
<g id="edge16" class="edge">
<title>\\Firesphere\\SolrSearch\\Models\\DirtyClass&#45;&gt;\\SilverStripe\\ORM\\DataObject</title>
<path fill="none" stroke="#000000" d="M630.6233,-1964.8566C609.3751,-1972.2144 585.3855,-1984.5793 572.2549,-2004.8657 475.0353,-2155.067 630.5206,-3483.2397 508.2549,-3613.8657 466.7256,-3658.2347 396.8843,-3662.8535 340.9172,-3657.5572"/>
<polygon fill="none" stroke="#000000" points="340.9534,-3654.0413 330.6384,-3656.4602 340.2105,-3661.0017 340.9534,-3654.0413"/>
</g>
<!-- \\Firesphere\\SolrSearch\\Traits\\LoggerTrait -->
<g id="node22" class="node">
<title>\\Firesphere\\SolrSearch\\Traits\\LoggerTrait</title>
<polygon fill="none" stroke="#000000" points="718.2549,-1784.8657 627.2549,-1784.8657 627.2549,-1748.8657 718.2549,-1748.8657 718.2549,-1784.8657"/>
<text text-anchor="middle" x="672.7549" y="-1764.0657" font-family="Courier,monospace" font-size="11.00" fill="#000000">LoggerTrait</text>
</g>
<!-- \\Firesphere\\SolrSearch\\Traits\\SearchResultSetTrait -->
<g id="node23" class="node">
<title>\\Firesphere\\SolrSearch\\Traits\\SearchResultSetTrait</title>
<polygon fill="none" stroke="#000000" points="748.7549,-1730.8657 596.7549,-1730.8657 596.7549,-1694.8657 748.7549,-1694.8657 748.7549,-1730.8657"/>
<text text-anchor="middle" x="672.7549" y="-1710.0657" font-family="Courier,monospace" font-size="11.00" fill="#000000">SearchResultSetTrait</text>
</g>
<!-- \\Firesphere\\SolrSearch\\Traits\\SearchResultGetTrait -->
<g id="node24" class="node">
<title>\\Firesphere\\SolrSearch\\Traits\\SearchResultGetTrait</title>
<polygon fill="none" stroke="#000000" points="748.7549,-1676.8657 596.7549,-1676.8657 596.7549,-1640.8657 748.7549,-1640.8657 748.7549,-1676.8657"/>
<text text-anchor="middle" x="672.7549" y="-1656.0657" font-family="Courier,monospace" font-size="11.00" fill="#000000">SearchResultGetTrait</text>
</g>
<!-- \\Firesphere\\SolrSearch\\Traits\\GetSetSchemaFactoryTrait -->
<g id="node25" class="node">
<title>\\Firesphere\\SolrSearch\\Traits\\GetSetSchemaFactoryTrait</title>
<polygon fill="none" stroke="#000000" points="762.2549,-1622.8657 583.2549,-1622.8657 583.2549,-1586.8657 762.2549,-1586.8657 762.2549,-1622.8657"/>
<text text-anchor="middle" x="672.7549" y="-1602.0657" font-family="Courier,monospace" font-size="11.00" fill="#000000">GetSetSchemaFactoryTrait</text>
</g>
<!-- \\Firesphere\\SolrSearch\\Traits\\DataResolveTrait -->
<g id="node26" class="node">
<title>\\Firesphere\\SolrSearch\\Traits\\DataResolveTrait</title>
<polygon fill="none" stroke="#000000" points="735.2549,-1568.8657 610.2549,-1568.8657 610.2549,-1532.8657 735.2549,-1532.8657 735.2549,-1568.8657"/>
<text text-anchor="middle" x="672.7549" y="-1548.0657" font-family="Courier,monospace" font-size="11.00" fill="#000000">DataResolveTrait</text>
</g>
<!-- \\Firesphere\\SolrSearch\\Traits\\GetSetSearchResolverTrait -->
<g id="node27" class="node">
<title>\\Firesphere\\SolrSearch\\Traits\\GetSetSearchResolverTrait</title>
<polygon fill="none" stroke="#000000" points="765.2549,-1514.8657 580.2549,-1514.8657 580.2549,-1478.8657 765.2549,-1478.8657 765.2549,-1514.8657"/>
<text text-anchor="middle" x="672.7549" y="-1494.0657" font-family="Courier,monospace" font-size="11.00" fill="#000000">GetSetSearchResolverTrait</text>
</g>
<!-- \\Firesphere\\SolrSearch\\Traits\\CoreServiceTrait -->
<g id="node28" class="node">
<title>\\Firesphere\\SolrSearch\\Traits\\CoreServiceTrait</title>
<polygon fill="none" stroke="#000000" points="735.2549,-1460.8657 610.2549,-1460.8657 610.2549,-1424.8657 735.2549,-1424.8657 735.2549,-1460.8657"/>
<text text-anchor="middle" x="672.7549" y="-1440.0657" font-family="Courier,monospace" font-size="11.00" fill="#000000">CoreServiceTrait</text>
</g>
<!-- \\Firesphere\\SolrSearch\\Traits\\CoreAdminTrait -->
<g id="node29" class="node">
<title>\\Firesphere\\SolrSearch\\Traits\\CoreAdminTrait</title>
<polygon fill="none" stroke="#000000" points="728.2549,-1406.8657 617.2549,-1406.8657 617.2549,-1370.8657 728.2549,-1370.8657 728.2549,-1406.8657"/>
<text text-anchor="middle" x="672.7549" y="-1386.0657" font-family="Courier,monospace" font-size="11.00" fill="#000000">CoreAdminTrait</text>
</g>
<!-- \\Firesphere\\SolrSearch\\Traits\\QueryComponentFilterTrait -->
<g id="node30" class="node">
<title>\\Firesphere\\SolrSearch\\Traits\\QueryComponentFilterTrait</title>
<polygon fill="none" stroke="#000000" points="765.2549,-1352.8657 580.2549,-1352.8657 580.2549,-1316.8657 765.2549,-1316.8657 765.2549,-1352.8657"/>
<text text-anchor="middle" x="672.7549" y="-1332.0657" font-family="Courier,monospace" font-size="11.00" fill="#000000">QueryComponentFilterTrait</text>
</g>
<!-- \\Firesphere\\SolrSearch\\Traits\\QueryComponentBoostTrait -->
<g id="node31" class="node">
<title>\\Firesphere\\SolrSearch\\Traits\\QueryComponentBoostTrait</title>
<polygon fill="none" stroke="#000000" points="762.2549,-1298.8657 583.2549,-1298.8657 583.2549,-1262.8657 762.2549,-1262.8657 762.2549,-1298.8657"/>
<text text-anchor="middle" x="672.7549" y="-1278.0657" font-family="Courier,monospace" font-size="11.00" fill="#000000">QueryComponentBoostTrait</text>
</g>
<!-- \\Firesphere\\SolrSearch\\Traits\\QueryComponentFacetTrait -->
<g id="node32" class="node">
<title>\\Firesphere\\SolrSearch\\Traits\\QueryComponentFacetTrait</title>
<polygon fill="none" stroke="#000000" points="762.2549,-1244.8657 583.2549,-1244.8657 583.2549,-1208.8657 762.2549,-1208.8657 762.2549,-1244.8657"/>
<text text-anchor="middle" x="672.7549" y="-1224.0657" font-family="Courier,monospace" font-size="11.00" fill="#000000">QueryComponentFacetTrait</text>
</g>
<!-- \\Firesphere\\SolrSearch\\Traits\\GetterSetterTrait -->
<g id="node33" class="node">
<title>\\Firesphere\\SolrSearch\\Traits\\GetterSetterTrait</title>
<polygon fill="none" stroke="#000000" points="738.2549,-1190.8657 607.2549,-1190.8657 607.2549,-1154.8657 738.2549,-1154.8657 738.2549,-1190.8657"/>
<text text-anchor="middle" x="672.7549" y="-1170.0657" font-family="Courier,monospace" font-size="11.00" fill="#000000">GetterSetterTrait</text>
</g>
<!-- \\Firesphere\\SolrSearch\\Traits\\DocumentFactoryTrait -->
<g id="node34" class="node">
<title>\\Firesphere\\SolrSearch\\Traits\\DocumentFactoryTrait</title>
<polygon fill="none" stroke="#000000" points="748.7549,-1136.8657 596.7549,-1136.8657 596.7549,-1100.8657 748.7549,-1100.8657 748.7549,-1136.8657"/>
<text text-anchor="middle" x="672.7549" y="-1116.0657" font-family="Courier,monospace" font-size="11.00" fill="#000000">DocumentFactoryTrait</text>
</g>
<!-- \\Firesphere\\SolrSearch\\Traits\\BaseQueryTrait -->
<g id="node35" class="node">
<title>\\Firesphere\\SolrSearch\\Traits\\BaseQueryTrait</title>
<polygon fill="none" stroke="#000000" points="728.2549,-1082.8657 617.2549,-1082.8657 617.2549,-1046.8657 728.2549,-1046.8657 728.2549,-1082.8657"/>
<text text-anchor="middle" x="672.7549" y="-1062.0657" font-family="Courier,monospace" font-size="11.00" fill="#000000">BaseQueryTrait</text>
</g>
<!-- \\Firesphere\\SolrSearch\\Traits\\SolrIndexTrait -->
<g id="node36" class="node">
<title>\\Firesphere\\SolrSearch\\Traits\\SolrIndexTrait</title>
<polygon fill="none" stroke="#000000" points="728.2549,-1028.8657 617.2549,-1028.8657 617.2549,-992.8657 728.2549,-992.8657 728.2549,-1028.8657"/>
<text text-anchor="middle" x="672.7549" y="-1008.0657" font-family="Courier,monospace" font-size="11.00" fill="#000000">SolrIndexTrait</text>
</g>
<!-- \\Firesphere\\SolrSearch\\Traits\\BaseIndexTrait -->
<g id="node37" class="node">
<title>\\Firesphere\\SolrSearch\\Traits\\BaseIndexTrait</title>
<polygon fill="none" stroke="#000000" points="728.2549,-974.8657 617.2549,-974.8657 617.2549,-938.8657 728.2549,-938.8657 728.2549,-974.8657"/>
<text text-anchor="middle" x="672.7549" y="-954.0657" font-family="Courier,monospace" font-size="11.00" fill="#000000">BaseIndexTrait</text>
</g>
<!-- \\Firesphere\\SolrSearch\\Jobs\\SolrConfigureJob -->
<g id="node38" class="node">
<title>\\Firesphere\\SolrSearch\\Jobs\\SolrConfigureJob</title>
<polygon fill="none" stroke="#000000" points="735.2549,-894.8657 610.2549,-894.8657 610.2549,-858.8657 735.2549,-858.8657 735.2549,-894.8657"/>
<text text-anchor="middle" x="672.7549" y="-874.0657" font-family="Courier,monospace" font-size="11.00" fill="#000000">SolrConfigureJob</text>
</g>
<!-- \\Symbiote\\QueuedJobs\\Services\\AbstractQueuedJob -->
<g id="node70" class="node">
<title>\\Symbiote\\QueuedJobs\\Services\\AbstractQueuedJob</title>
<ellipse fill="none" stroke="#000000" cx="254.1275" cy="-3532.8657" rx="254.255" ry="18"/>
<text text-anchor="middle" x="254.1275" y="-3529.1657" font-family="Times,serif" font-size="14.00" fill="#c0c0c0">\Symbiote\QueuedJobs\Services\AbstractQueuedJob</text>
</g>
<!-- \\Firesphere\\SolrSearch\\Jobs\\SolrConfigureJob&#45;&gt;\\Symbiote\\QueuedJobs\\Services\\AbstractQueuedJob -->
<g id="edge17" class="edge">
<title>\\Firesphere\\SolrSearch\\Jobs\\SolrConfigureJob&#45;&gt;\\Symbiote\\QueuedJobs\\Services\\AbstractQueuedJob</title>
<path fill="none" stroke="#000000" d="M610.8303,-894.897C595.718,-902.3275 581.3086,-912.6463 572.2549,-926.8657 495.2791,-1047.7619 605.4104,-3400.4998 508.2549,-3505.8657 469.5358,-3547.857 405.4929,-3554.4431 351.3875,-3550.614"/>
<polygon fill="none" stroke="#000000" points="351.6646,-3547.1251 341.4089,-3549.784 351.0843,-3554.101 351.6646,-3547.1251"/>
</g>
<!-- \\Firesphere\\SolrSearch\\Jobs\\ClearDirtyClassesJob -->
<g id="node39" class="node">
<title>\\Firesphere\\SolrSearch\\Jobs\\ClearDirtyClassesJob</title>
<polygon fill="none" stroke="#000000" points="748.7549,-840.8657 596.7549,-840.8657 596.7549,-804.8657 748.7549,-804.8657 748.7549,-840.8657"/>
<text text-anchor="middle" x="672.7549" y="-820.0657" font-family="Courier,monospace" font-size="11.00" fill="#000000">ClearDirtyClassesJob</text>
</g>
<!-- \\Firesphere\\SolrSearch\\Jobs\\ClearDirtyClassesJob&#45;&gt;\\Symbiote\\QueuedJobs\\Services\\AbstractQueuedJob -->
<g id="edge18" class="edge">
<title>\\Firesphere\\SolrSearch\\Jobs\\ClearDirtyClassesJob&#45;&gt;\\Symbiote\\QueuedJobs\\Services\\AbstractQueuedJob</title>
<path fill="none" stroke="#000000" d="M596.5204,-831.77C587.1318,-835.9406 578.6192,-841.7698 572.2549,-849.8657 481.037,-965.9027 608.2703,-3397.3199 508.2549,-3505.8657 469.5509,-3547.8709 405.5079,-3554.4569 351.3987,-3550.6243"/>
<polygon fill="none" stroke="#000000" points="351.6752,-3547.1353 341.4193,-3549.7937 351.0945,-3554.1112 351.6752,-3547.1353"/>
</g>
<!-- \\Firesphere\\SolrSearch\\Jobs\\SolrIndexJob -->
<g id="node40" class="node">
<title>\\Firesphere\\SolrSearch\\Jobs\\SolrIndexJob</title>
<polygon fill="none" stroke="#000000" points="721.7549,-786.8657 623.7549,-786.8657 623.7549,-750.8657 721.7549,-750.8657 721.7549,-786.8657"/>
<text text-anchor="middle" x="672.7549" y="-766.0657" font-family="Courier,monospace" font-size="11.00" fill="#000000">SolrIndexJob</text>
</g>
<!-- \\Firesphere\\SolrSearch\\Jobs\\SolrIndexJob&#45;&gt;\\Symbiote\\QueuedJobs\\Services\\AbstractQueuedJob -->
<g id="edge19" class="edge">
<title>\\Firesphere\\SolrSearch\\Jobs\\SolrIndexJob&#45;&gt;\\Symbiote\\QueuedJobs\\Services\\AbstractQueuedJob</title>
<path fill="none" stroke="#000000" d="M623.6948,-769.9893C604.631,-773.122 584.4773,-780.3101 572.2549,-795.8657 479.2119,-914.2829 610.276,-3395.0898 508.2549,-3505.8657 469.5609,-3547.8802 405.5179,-3554.4661 351.4062,-3550.6312"/>
<polygon fill="none" stroke="#000000" points="351.6823,-3547.1422 341.4263,-3549.8001 351.1013,-3554.118 351.6823,-3547.1422"/>
</g>
<!-- \\Firesphere\\SolrSearch\\Indexes\\BaseIndex -->
<g id="node41" class="node">
<title>\\Firesphere\\SolrSearch\\Indexes\\BaseIndex</title>
<polygon fill="none" stroke="#000000" points="714.7549,-706.8657 630.7549,-706.8657 630.7549,-670.8657 714.7549,-670.8657 714.7549,-706.8657"/>
<text text-anchor="start" x="638.7549" y="-692.0657" font-family="Courier,monospace" font-size="11.00" fill="#000000">abstract</text>
<text text-anchor="start" x="642.2549" y="-680.0657" font-family="Courier,monospace" font-size="11.00" fill="#000000">BaseIndex</text>
</g>
<!-- \\Firesphere\\SolrSearch\\Interfaces\\SiteStateInterface -->
<g id="node43" class="node">
<title>\\Firesphere\\SolrSearch\\Interfaces\\SiteStateInterface</title>
<polygon fill="none" stroke="#000000" points="323.1275,-2588.8657 185.1275,-2588.8657 185.1275,-2552.8657 323.1275,-2552.8657 323.1275,-2588.8657"/>
<text text-anchor="middle" x="254.1275" y="-2568.0657" font-family="Courier,monospace" font-size="11.00" fill="#000000">SiteStateInterface</text>
</g>
<!-- \\Firesphere\\SolrSearch\\States\\SiteState -->
<g id="node44" class="node">
<title>\\Firesphere\\SolrSearch\\States\\SiteState</title>
<polygon fill="none" stroke="#000000" points="714.7549,-626.8657 630.7549,-626.8657 630.7549,-590.8657 714.7549,-590.8657 714.7549,-626.8657"/>
<text text-anchor="start" x="638.7549" y="-612.0657" font-family="Courier,monospace" font-size="11.00" fill="#000000">abstract</text>
<text text-anchor="start" x="642.2549" y="-600.0657" font-family="Courier,monospace" font-size="11.00" fill="#000000">SiteState</text>
</g>
<!-- \\Firesphere\\SolrSearch\\Services\\SolrCoreService -->
<g id="node45" class="node">
<title>\\Firesphere\\SolrSearch\\Services\\SolrCoreService</title>
<polygon fill="none" stroke="#000000" points="731.7549,-546.8657 613.7549,-546.8657 613.7549,-510.8657 731.7549,-510.8657 731.7549,-546.8657"/>
<text text-anchor="middle" x="672.7549" y="-526.0657" font-family="Courier,monospace" font-size="11.00" fill="#000000">SolrCoreService</text>
</g>
<!-- \\Firesphere\\SolrSearch\\Tasks\\SolrIndexTask -->
<g id="node46" class="node">
<title>\\Firesphere\\SolrSearch\\Tasks\\SolrIndexTask</title>
<polygon fill="none" stroke="#000000" points="724.7549,-358.8657 620.7549,-358.8657 620.7549,-322.8657 724.7549,-322.8657 724.7549,-358.8657"/>
<text text-anchor="middle" x="672.7549" y="-338.0657" font-family="Courier,monospace" font-size="11.00" fill="#000000">SolrIndexTask</text>
</g>
<!-- \\SilverStripe\\Dev\\BuildTask -->
<g id="node71" class="node">
<title>\\SilverStripe\\Dev\\BuildTask</title>
<ellipse fill="none" stroke="#000000" cx="254.1275" cy="-3478.8657" rx="139.9756" ry="18"/>
<text text-anchor="middle" x="254.1275" y="-3475.1657" font-family="Times,serif" font-size="14.00" fill="#c0c0c0">\SilverStripe\Dev\BuildTask</text>
</g>
<!-- \\Firesphere\\SolrSearch\\Tasks\\SolrIndexTask&#45;&gt;\\SilverStripe\\Dev\\BuildTask -->
<g id="edge20" class="edge">
<title>\\Firesphere\\SolrSearch\\Tasks\\SolrIndexTask&#45;&gt;\\SilverStripe\\Dev\\BuildTask</title>
<path fill="none" stroke="#000000" d="M620.5303,-342.5239C602.4211,-345.9152 583.7865,-353.1459 572.2549,-367.8657 466.571,-502.7681 624.1678,-3325.6439 508.2549,-3451.8657 466.2145,-3497.6451 394.086,-3501.4067 337.3882,-3495.4279"/>
<polygon fill="none" stroke="#000000" points="337.6916,-3491.9396 327.3523,-3494.2526 336.8773,-3498.8921 337.6916,-3491.9396"/>
</g>
<!-- \\Firesphere\\SolrSearch\\Tasks\\ClearErrorsTask -->
<g id="node47" class="node">
<title>\\Firesphere\\SolrSearch\\Tasks\\ClearErrorsTask</title>
<polygon fill="none" stroke="#000000" points="731.7549,-304.8657 613.7549,-304.8657 613.7549,-268.8657 731.7549,-268.8657 731.7549,-304.8657"/>
<text text-anchor="middle" x="672.7549" y="-284.0657" font-family="Courier,monospace" font-size="11.00" fill="#000000">ClearErrorsTask</text>
</g>
<!-- \\Firesphere\\SolrSearch\\Tasks\\ClearErrorsTask&#45;&gt;\\SilverStripe\\Dev\\BuildTask -->
<g id="edge21" class="edge">
<title>\\Firesphere\\SolrSearch\\Tasks\\ClearErrorsTask&#45;&gt;\\SilverStripe\\Dev\\BuildTask</title>
<path fill="none" stroke="#000000" d="M613.6939,-289.9885C597.849,-293.8474 582.3358,-300.993 572.2549,-313.8657 464.7458,-451.1484 626.1736,-3323.4136 508.2549,-3451.8657 466.2227,-3497.6526 394.0934,-3501.4135 337.3933,-3495.4325"/>
<polygon fill="none" stroke="#000000" points="337.6962,-3491.9442 327.3569,-3494.2568 336.8817,-3498.8966 337.6962,-3491.9442"/>
</g>
<!-- \\Firesphere\\SolrSearch\\Tasks\\ClearDirtyClassesTask -->
<g id="node48" class="node">
<title>\\Firesphere\\SolrSearch\\Tasks\\ClearDirtyClassesTask</title>
<polygon fill="none" stroke="#000000" points="751.7549,-466.8657 593.7549,-466.8657 593.7549,-430.8657 751.7549,-430.8657 751.7549,-466.8657"/>
<text text-anchor="middle" x="672.7549" y="-446.0657" font-family="Courier,monospace" font-size="11.00" fill="#000000">ClearDirtyClassesTask</text>
</g>
<!-- \\Firesphere\\SolrSearch\\Tasks\\ClearDirtyClassesTask&#45;&gt;\\SilverStripe\\Dev\\BuildTask -->
<g id="edge22" class="edge">
<title>\\Firesphere\\SolrSearch\\Tasks\\ClearDirtyClassesTask&#45;&gt;\\SilverStripe\\Dev\\BuildTask</title>
<path fill="none" stroke="#000000" d="M610.8009,-466.8783C595.6885,-474.3087 581.2862,-484.6321 572.2549,-498.8657 484.3402,-637.4221 619.3019,-3331.0541 508.2549,-3451.8657 466.1935,-3497.6257 394.0669,-3501.3891 337.3753,-3495.416"/>
<polygon fill="none" stroke="#000000" points="337.6795,-3491.9278 327.3405,-3494.2418 336.8659,-3498.8804 337.6795,-3491.9278"/>
</g>
<!-- \\Firesphere\\SolrSearch\\Tasks\\SolrConfigureTask -->
<g id="node49" class="node">
<title>\\Firesphere\\SolrSearch\\Tasks\\SolrConfigureTask</title>
<polygon fill="none" stroke="#000000" points="738.2549,-412.8657 607.2549,-412.8657 607.2549,-376.8657 738.2549,-376.8657 738.2549,-412.8657"/>
<text text-anchor="middle" x="672.7549" y="-392.0657" font-family="Courier,monospace" font-size="11.00" fill="#000000">SolrConfigureTask</text>
</g>
<!-- \\Firesphere\\SolrSearch\\Tasks\\SolrConfigureTask&#45;&gt;\\SilverStripe\\Dev\\BuildTask -->
<g id="edge23" class="edge">
<title>\\Firesphere\\SolrSearch\\Tasks\\SolrConfigureTask&#45;&gt;\\SilverStripe\\Dev\\BuildTask</title>
<path fill="none" stroke="#000000" d="M607.1666,-399.7866C593.6728,-403.935 580.9475,-410.7742 572.2549,-421.8657 468.3962,-554.3879 622.162,-3327.8741 508.2549,-3451.8657 466.2061,-3497.6373 394.0784,-3501.3996 337.383,-3495.4231"/>
<polygon fill="none" stroke="#000000" points="337.6867,-3491.9349 327.3476,-3494.2483 336.8727,-3498.8874 337.6867,-3491.9349"/>
</g>
<!-- \\Firesphere\\SolrSearch\\Forms\\SearchForm -->
<g id="node50" class="node">
<title>\\Firesphere\\SolrSearch\\Forms\\SearchForm</title>
<polygon fill="none" stroke="#000000" points="714.7549,-224.8657 630.7549,-224.8657 630.7549,-188.8657 714.7549,-188.8657 714.7549,-224.8657"/>
<text text-anchor="middle" x="672.7549" y="-204.0657" font-family="Courier,monospace" font-size="11.00" fill="#000000">SearchForm</text>
</g>
<!-- \\SilverStripe\\Forms\\Form -->
<g id="node72" class="node">
<title>\\SilverStripe\\Forms\\Form</title>
<ellipse fill="none" stroke="#000000" cx="254.1275" cy="-3424.8657" rx="129.1772" ry="18"/>
<text text-anchor="middle" x="254.1275" y="-3421.1657" font-family="Times,serif" font-size="14.00" fill="#c0c0c0">\SilverStripe\Forms\Form</text>
</g>
<!-- \\Firesphere\\SolrSearch\\Forms\\SearchForm&#45;&gt;\\SilverStripe\\Forms\\Form -->
<g id="edge24" class="edge">
<title>\\Firesphere\\SolrSearch\\Forms\\SearchForm&#45;&gt;\\SilverStripe\\Forms\\Form</title>
<path fill="none" stroke="#000000" d="M630.5155,-216.7874C609.2357,-224.1249 585.2504,-236.4925 572.2549,-256.8657 499.9879,-370.1599 531.8605,-2542.5749 508.2549,-2674.8657 456.0078,-2967.67 310.5748,-3301.2171 266.7713,-3397.5286"/>
<polygon fill="none" stroke="#000000" points="263.4846,-3396.3001 262.5112,-3406.8501 269.8512,-3399.2097 263.4846,-3396.3001"/>
</g>
<!-- \\Firesphere\\SolrFluent\\Extensions\\FluentDocumentExtension -->
<g id="node51" class="node">
<title>\\Firesphere\\SolrFluent\\Extensions\\FluentDocumentExtension</title>
<polygon fill="none" stroke="#000000" points="1012.7549,-722.8657 840.7549,-722.8657 840.7549,-686.8657 1012.7549,-686.8657 1012.7549,-722.8657"/>
<text text-anchor="middle" x="926.7549" y="-702.0657" font-family="Courier,monospace" font-size="11.00" fill="#000000">FluentDocumentExtension</text>
</g>
<!-- \\Firesphere\\SolrFluent\\Extensions\\FluentDocumentExtension&#45;&gt;\\SilverStripe\\Core\\Extension -->
<g id="edge25" class="edge">
<title>\\Firesphere\\SolrFluent\\Extensions\\FluentDocumentExtension&#45;&gt;\\SilverStripe\\Core\\Extension</title>
<path fill="none" stroke="#000000" d="M879.1415,-686.8414C857.7901,-676.2159 834.4799,-660.5344 821.2549,-638.8657 711.1151,-458.406 894.9709,-343.0936 781.2549,-164.8657 751.3811,-118.0443 717.7618,-135.4091 672.7549,-102.8657"/>
</g>
<!-- \\Firesphere\\SolrFluent\\Extensions\\FluentSchemaExtension -->
<g id="node52" class="node">
<title>\\Firesphere\\SolrFluent\\Extensions\\FluentSchemaExtension</title>
<polygon fill="none" stroke="#000000" points="1005.7549,-830.8657 847.7549,-830.8657 847.7549,-794.8657 1005.7549,-794.8657 1005.7549,-830.8657"/>
<text text-anchor="middle" x="926.7549" y="-810.0657" font-family="Courier,monospace" font-size="11.00" fill="#000000">FluentSchemaExtension</text>
</g>
<!-- \\Firesphere\\SolrFluent\\Extensions\\FluentSchemaExtension&#45;&gt;\\SilverStripe\\Core\\Extension -->
<g id="edge26" class="edge">
<title>\\Firesphere\\SolrFluent\\Extensions\\FluentSchemaExtension&#45;&gt;\\SilverStripe\\Core\\Extension</title>
<path fill="none" stroke="#000000" d="M847.6084,-804.5443C837.4974,-800.3092 828.2543,-794.307 821.2549,-785.8657 732.9871,-679.4148 854.4745,-282.1769 781.2549,-164.8657 751.8476,-117.7499 717.7618,-135.4091 672.7549,-102.8657"/>
</g>
<!-- \\Firesphere\\SolrFluent\\Extensions\\FluentIndexExtension -->
<g id="node53" class="node">
<title>\\Firesphere\\SolrFluent\\Extensions\\FluentIndexExtension</title>
<polygon fill="none" stroke="#000000" points="1002.7549,-776.8657 850.7549,-776.8657 850.7549,-740.8657 1002.7549,-740.8657 1002.7549,-776.8657"/>
<text text-anchor="middle" x="926.7549" y="-756.0657" font-family="Courier,monospace" font-size="11.00" fill="#000000">FluentIndexExtension</text>
</g>
<!-- \\Firesphere\\SolrFluent\\Extensions\\FluentIndexExtension&#45;&gt;\\SilverStripe\\Core\\Extension -->
<g id="edge27" class="edge">
<title>\\Firesphere\\SolrFluent\\Extensions\\FluentIndexExtension&#45;&gt;\\SilverStripe\\Core\\Extension</title>
<path fill="none" stroke="#000000" d="M850.5548,-751.6622C839.313,-747.3903 828.9462,-741.084 821.2549,-731.8657 740.3328,-634.8779 848.462,-271.8153 781.2549,-164.8657 751.7039,-117.8399 717.7618,-135.4091 672.7549,-102.8657"/>
</g>
<!-- \\Firesphere\\SolrFluent\\States\\FluentSiteState -->
<g id="node54" class="node">
<title>\\Firesphere\\SolrFluent\\States\\FluentSiteState</title>
<polygon fill="none" stroke="#000000" points="985.7549,-910.8657 867.7549,-910.8657 867.7549,-874.8657 985.7549,-874.8657 985.7549,-910.8657"/>
<text text-anchor="middle" x="926.7549" y="-890.0657" font-family="Courier,monospace" font-size="11.00" fill="#000000">FluentSiteState</text>
</g>
<!-- \\Firesphere\\SolrFluent\\States\\FluentSiteState&#45;&gt;\\Firesphere\\SolrSearch\\Interfaces\\SiteStateInterface -->
<g id="edge29" class="edge">
<title>\\Firesphere\\SolrFluent\\States\\FluentSiteState&#45;&gt;\\Firesphere\\SolrSearch\\Interfaces\\SiteStateInterface</title>
<path fill="none" stroke="#000000" stroke-dasharray="1,5" d="M867.4876,-888.938C850.0199,-884.7469 832.5734,-876.9774 821.2549,-862.8657 725.7123,-743.7442 888.8981,-285.1767 781.2549,-176.8657 747.1916,-142.5911 720.9793,-166.7892 672.7549,-169.8657"/>
<path fill="none" stroke="#000000" stroke-dasharray="1,5" d="M672.7549,-169.8657C628.0709,-172.7164 604.8904,-146.211 572.2549,-176.8657 389.7003,-348.3405 270.7814,-2285.3237 255.7449,-2542.6817"/>
<polygon fill="none" stroke="#000000" points="252.2475,-2542.5353 255.1613,-2552.7216 259.2358,-2542.9415 252.2475,-2542.5353"/>
</g>
<!-- \\Firesphere\\SolrFluent\\States\\FluentSiteState&#45;&gt;\\Firesphere\\SolrSearch\\States\\SiteState -->
<g id="edge28" class="edge">
<title>\\Firesphere\\SolrFluent\\States\\FluentSiteState&#45;&gt;\\Firesphere\\SolrSearch\\States\\SiteState</title>
<path fill="none" stroke="#000000" d="M867.49,-887.7185C850.4456,-883.4223 833.2441,-875.8993 821.2549,-862.8657 758.7043,-794.8664 838.3612,-731.4974 781.2549,-658.8657 767.1448,-640.9195 745.1107,-629.1624 724.5749,-621.5898"/>
<polygon fill="none" stroke="#000000" points="725.5629,-618.2286 714.9682,-618.2989 723.2943,-624.8509 725.5629,-618.2286"/>
</g>
<!-- \\Firesphere\\SolrSubsites\\Extensions\\SubsitesExtension -->
<g id="node55" class="node">
<title>\\Firesphere\\SolrSubsites\\Extensions\\SubsitesExtension</title>
<polygon fill="none" stroke="#000000" points="992.2549,-1026.8657 861.2549,-1026.8657 861.2549,-990.8657 992.2549,-990.8657 992.2549,-1026.8657"/>
<text text-anchor="middle" x="926.7549" y="-1006.0657" font-family="Courier,monospace" font-size="11.00" fill="#000000">SubsitesExtension</text>
</g>
<!-- \\Firesphere\\SolrSubsites\\Extensions\\SubsitesExtension&#45;&gt;\\SilverStripe\\Core\\Extension -->
<g id="edge30" class="edge">
<title>\\Firesphere\\SolrSubsites\\Extensions\\SubsitesExtension&#45;&gt;\\SilverStripe\\Core\\Extension</title>
<path fill="none" stroke="#000000" d="M878.2804,-990.7581C857.0079,-980.1799 834.0131,-964.5622 821.2549,-942.8657 733.504,-793.6365 871.9637,-312.3157 781.2549,-164.8657 752.1534,-117.5604 717.7618,-135.4091 672.7549,-102.8657"/>
</g>
<!-- \\Firesphere\\SolrSubsites\\States\\SubsiteState -->
<g id="node56" class="node">
<title>\\Firesphere\\SolrSubsites\\States\\SubsiteState</title>
<polygon fill="none" stroke="#000000" points="975.7549,-1106.8657 877.7549,-1106.8657 877.7549,-1070.8657 975.7549,-1070.8657 975.7549,-1106.8657"/>
<text text-anchor="middle" x="926.7549" y="-1086.0657" font-family="Courier,monospace" font-size="11.00" fill="#000000">SubsiteState</text>
</g>
<!-- \\Firesphere\\SolrSubsites\\States\\SubsiteState&#45;&gt;\\Firesphere\\SolrSearch\\Interfaces\\SiteStateInterface -->
<g id="edge32" class="edge">
<title>\\Firesphere\\SolrSubsites\\States\\SubsiteState&#45;&gt;\\Firesphere\\SolrSearch\\Interfaces\\SiteStateInterface</title>
<path fill="none" stroke="#000000" stroke-dasharray="1,5" d="M877.5482,-1087.0806C856.9256,-1083.6293 834.6683,-1075.8125 821.2549,-1058.8657 760.3715,-981.9439 849.9568,-246.8929 781.2549,-176.8657 747.4137,-142.3717 720.9793,-166.7892 672.7549,-169.8657"/>
</g>
<!-- \\Firesphere\\SolrSubsites\\States\\SubsiteState&#45;&gt;\\Firesphere\\SolrSearch\\States\\SiteState -->
<g id="edge31" class="edge">
<title>\\Firesphere\\SolrSubsites\\States\\SubsiteState&#45;&gt;\\Firesphere\\SolrSearch\\States\\SiteState</title>
<path fill="none" stroke="#000000" d="M877.7001,-1086.6893C857.2363,-1083.1479 835.0627,-1075.3688 821.2549,-1058.8657 763.9307,-990.3516 833.1107,-731.6065 781.2549,-658.8657 767.8472,-640.058 745.5724,-628.1517 724.6824,-620.7015"/>
<polygon fill="none" stroke="#000000" points="725.495,-617.2844 714.9021,-617.4874 723.3095,-623.9345 725.495,-617.2844"/>
</g>
<!-- \\Firesphere\\SolrPermissions\\Extensions\\SchemaFactoryExtension -->
<g id="node57" class="node">
<title>\\Firesphere\\SolrPermissions\\Extensions\\SchemaFactoryExtension</title>
<polygon fill="none" stroke="#000000" points="1009.2549,-552.8657 844.2549,-552.8657 844.2549,-516.8657 1009.2549,-516.8657 1009.2549,-552.8657"/>
<text text-anchor="middle" x="926.7549" y="-532.0657" font-family="Courier,monospace" font-size="11.00" fill="#000000">SchemaFactoryExtension</text>
</g>
<!-- \\Firesphere\\SolrPermissions\\Extensions\\SchemaFactoryExtension&#45;&gt;\\SilverStripe\\Core\\Extension -->
<g id="edge33" class="edge">
<title>\\Firesphere\\SolrPermissions\\Extensions\\SchemaFactoryExtension&#45;&gt;\\SilverStripe\\Core\\Extension</title>
<path fill="none" stroke="#000000" d="M844.0163,-524.5711C835.3801,-520.5167 827.496,-515.0912 821.2549,-507.8657 709.9581,-379.0137 894.6533,-253.8722 781.2549,-126.8657 748.3619,-90.0254 712.7764,-131.8042 672.7549,-102.8657"/>
</g>
<!-- \\Firesphere\\SolrPermissions\\Extensions\\BaseIndexExtension -->
<g id="node58" class="node">
<title>\\Firesphere\\SolrPermissions\\Extensions\\BaseIndexExtension</title>
<polygon fill="none" stroke="#000000" points="995.7549,-498.8657 857.7549,-498.8657 857.7549,-462.8657 995.7549,-462.8657 995.7549,-498.8657"/>
<text text-anchor="middle" x="926.7549" y="-478.0657" font-family="Courier,monospace" font-size="11.00" fill="#000000">BaseIndexExtension</text>
</g>
<!-- \\Firesphere\\SolrPermissions\\Extensions\\BaseIndexExtension&#45;&gt;\\SilverStripe\\Core\\Extension -->
<g id="edge34" class="edge">
<title>\\Firesphere\\SolrPermissions\\Extensions\\BaseIndexExtension&#45;&gt;\\SilverStripe\\Core\\Extension</title>
<path fill="none" stroke="#000000" d="M857.6967,-475.5997C843.8917,-471.4233 830.7401,-464.6589 821.2549,-453.8657 724.6017,-343.884 879.7016,-235.245 781.2549,-126.8657 748.0478,-90.3083 712.7764,-131.8042 672.7549,-102.8657"/>
</g>
<!-- \\Firesphere\\SolrPermissions\\Extensions\\DocumentFactoryExtension -->
<g id="node59" class="node">
<title>\\Firesphere\\SolrPermissions\\Extensions\\DocumentFactoryExtension</title>
<polygon fill="none" stroke="#000000" points="1016.2549,-444.8657 837.2549,-444.8657 837.2549,-408.8657 1016.2549,-408.8657 1016.2549,-444.8657"/>
<text text-anchor="middle" x="926.7549" y="-424.0657" font-family="Courier,monospace" font-size="11.00" fill="#000000">DocumentFactoryExtension</text>
</g>
<!-- \\Firesphere\\SolrPermissions\\Extensions\\DocumentFactoryExtension&#45;&gt;\\SilverStripe\\Core\\Extension -->
<g id="edge35" class="edge">
<title>\\Firesphere\\SolrPermissions\\Extensions\\DocumentFactoryExtension&#45;&gt;\\SilverStripe\\Core\\Extension</title>
<path fill="none" stroke="#000000" d="M880.75,-408.7392C859.3732,-397.9841 835.5703,-382.2213 821.2549,-360.8657 762.507,-273.226 854.034,-203.2546 781.2549,-126.8657 747.1875,-91.1086 712.7764,-131.8042 672.7549,-102.8657"/>
</g>
<!-- \\Firesphere\\SolrPermissions\\Extensions\\DataObjectExtension -->
<g id="node60" class="node">
<title>\\Firesphere\\SolrPermissions\\Extensions\\DataObjectExtension</title>
<polygon fill="none" stroke="#000000" points="999.2549,-606.8657 854.2549,-606.8657 854.2549,-570.8657 999.2549,-570.8657 999.2549,-606.8657"/>
<text text-anchor="middle" x="926.7549" y="-586.0657" font-family="Courier,monospace" font-size="11.00" fill="#000000">DataObjectExtension</text>
</g>
<!-- \\Firesphere\\SolrPermissions\\Extensions\\DataObjectExtension&#45;&gt;\\SilverStripe\\ORM\\DataExtension -->
<g id="edge36" class="edge">
<title>\\Firesphere\\SolrPermissions\\Extensions\\DataObjectExtension&#45;&gt;\\SilverStripe\\ORM\\DataExtension</title>
<path fill="none" stroke="#000000" d="M854.0027,-582.6166C841.515,-578.3706 829.8232,-571.8276 821.2549,-561.8657 705.6153,-427.418 898.5524,-297.8694 781.2549,-164.8657 718.2153,-93.3852 664.7691,-139.7694 572.2549,-116.8657 543.6866,-109.7931 537.1957,-105.214 508.2549,-99.8657 473.46,-93.4356 435.681,-88.3914 400.1541,-84.4938"/>
<polygon fill="none" stroke="#000000" points="400.5143,-81.0124 390.1977,-83.4246 399.7668,-87.9724 400.5143,-81.0124"/>
</g>
<!-- \\SilverStripe\\FullTextSearch\\Solr\\Solr -->
<g id="node61" class="node">
<title>\\SilverStripe\\FullTextSearch\\Solr\\Solr</title>
<polygon fill="none" stroke="#000000" points="953.7549,-3170.8657 899.7549,-3170.8657 899.7549,-3134.8657 953.7549,-3134.8657 953.7549,-3170.8657"/>
<text text-anchor="middle" x="926.7549" y="-3150.0657" font-family="Courier,monospace" font-size="11.00" fill="#000000">Solr</text>
</g>
<!-- \\SilverStripe\\FullTextSearch\\Solr\\SolrIndex -->
<g id="node62" class="node">
<title>\\SilverStripe\\FullTextSearch\\Solr\\SolrIndex</title>
<polygon fill="none" stroke="#000000" points="968.7549,-3116.8657 884.7549,-3116.8657 884.7549,-3080.8657 968.7549,-3080.8657 968.7549,-3116.8657"/>
<text text-anchor="start" x="892.7549" y="-3102.0657" font-family="Courier,monospace" font-size="11.00" fill="#000000">abstract</text>
<text text-anchor="start" x="896.2549" y="-3090.0657" font-family="Courier,monospace" font-size="11.00" fill="#000000">SolrIndex</text>
</g>
<!-- \\SilverStripe\\FullTextSearch\\Solr\\SolrIndex&#45;&gt;\\Firesphere\\SolrSearch\\Indexes\\BaseIndex -->
<g id="edge4" class="edge">
<title>\\SilverStripe\\FullTextSearch\\Solr\\SolrIndex&#45;&gt;\\Firesphere\\SolrSearch\\Indexes\\BaseIndex</title>
<path fill="none" stroke="#000000" d="M925.8929,-3080.6335C915.6226,-2864.0735 816.4171,-790.232 781.2549,-738.8657 768.098,-719.6456 745.605,-707.6665 724.4988,-700.2741"/>
<polygon fill="none" stroke="#000000" points="725.5291,-696.9289 714.9375,-697.1908 723.3807,-703.5911 725.5291,-696.9289"/>
</g>
<!-- \\SilverStripe\\FullTextSearch\\Search\\Queries\\SearchQuery -->
<g id="node63" class="node">
<title>\\SilverStripe\\FullTextSearch\\Search\\Queries\\SearchQuery</title>
<polygon fill="none" stroke="#000000" points="972.2549,-3258.8657 881.2549,-3258.8657 881.2549,-3222.8657 972.2549,-3222.8657 972.2549,-3258.8657"/>
<text text-anchor="middle" x="926.7549" y="-3238.0657" font-family="Courier,monospace" font-size="11.00" fill="#000000">SearchQuery</text>
</g>
<!-- \\SilverStripe\\FullTextSearch\\Search\\Queries\\SearchQuery&#45;&gt;\\Firesphere\\SolrSearch\\Queries\\BaseQuery -->
<g id="edge5" class="edge">
<title>\\SilverStripe\\FullTextSearch\\Search\\Queries\\SearchQuery&#45;&gt;\\Firesphere\\SolrSearch\\Queries\\BaseQuery</title>
<path fill="none" stroke="#000000" d="M880.9964,-3236.1242C859.2684,-3231.345 835.0834,-3221.8153 821.2549,-3202.8657 747.9812,-3102.4571 850.1394,-2188.3347 781.2549,-2084.8657 767.5881,-2064.3374 743.21,-2052.092 721.0191,-2044.8639"/>
<polygon fill="none" stroke="#000000" points="721.9366,-2041.4851 711.353,-2041.974 719.9314,-2048.1918 721.9366,-2041.4851"/>
</g>
</g>
</svg>
