<?xml version="1.0" encoding="UTF-8" standalone="no"?>
<!DOCTYPE svg PUBLIC "-//W3C//DTD SVG 1.1//EN"
 "http://www.w3.org/Graphics/SVG/1.1/DTD/svg11.dtd">
<!-- Generated by graphviz version 2.40.1 (20161225.0304)
 -->
<!-- Title: G Pages: 1 -->
<svg width="984pt" height="3599pt"
 viewBox="0.00 0.00 984.25 3599.00" xmlns="http://www.w3.org/2000/svg" xmlns:xlink="http://www.w3.org/1999/xlink">
<g id="graph0" class="graph" transform="scale(1 1) rotate(0) translate(4 3595.0041)">
<title>G</title>
<polygon fill="#ffffff" stroke="transparent" points="-4,4 -4,-3595.0041 980.2549,-3595.0041 980.2549,4 -4,4"/>
<g id="clust1" class="cluster">
<title>cluster_Global</title>
<path fill="none" stroke="#c0c0c0" d="M165.1275,-477.0041C165.1275,-477.0041 956.2549,-477.0041 956.2549,-477.0041 962.2549,-477.0041 968.2549,-483.0041 968.2549,-489.0041 968.2549,-489.0041 968.2549,-3571.0041 968.2549,-3571.0041 968.2549,-3577.0041 962.2549,-3583.0041 956.2549,-3583.0041 956.2549,-3583.0041 165.1275,-3583.0041 165.1275,-3583.0041 159.1275,-3583.0041 153.1275,-3577.0041 153.1275,-3571.0041 153.1275,-3571.0041 153.1275,-489.0041 153.1275,-489.0041 153.1275,-483.0041 159.1275,-477.0041 165.1275,-477.0041"/>
<text text-anchor="middle" x="560.6912" y="-3570.2041" font-family="Times,serif" font-size="11.00" fill="#c0c0c0">Global</text>
</g>
<g id="clust2" class="cluster">
<title>cluster_\SilverStripe</title>
<path fill="none" stroke="#c0c0c0" d="M817.2549,-2711.0041C817.2549,-2711.0041 948.2549,-2711.0041 948.2549,-2711.0041 954.2549,-2711.0041 960.2549,-2717.0041 960.2549,-2723.0041 960.2549,-2723.0041 960.2549,-3013.0041 960.2549,-3013.0041 960.2549,-3019.0041 954.2549,-3025.0041 948.2549,-3025.0041 948.2549,-3025.0041 817.2549,-3025.0041 817.2549,-3025.0041 811.2549,-3025.0041 805.2549,-3019.0041 805.2549,-3013.0041 805.2549,-3013.0041 805.2549,-2723.0041 805.2549,-2723.0041 805.2549,-2717.0041 811.2549,-2711.0041 817.2549,-2711.0041"/>
<text text-anchor="middle" x="882.7549" y="-3012.2041" font-family="Times,serif" font-size="11.00" fill="#c0c0c0">SilverStripe</text>
</g>
<g id="clust3" class="cluster">
<title>cluster_\SilverStripe\FullTextSearch</title>
<path fill="none" stroke="#c0c0c0" d="M825.2549,-2719.0041C825.2549,-2719.0041 940.2549,-2719.0041 940.2549,-2719.0041 946.2549,-2719.0041 952.2549,-2725.0041 952.2549,-2731.0041 952.2549,-2731.0041 952.2549,-2985.0041 952.2549,-2985.0041 952.2549,-2991.0041 946.2549,-2997.0041 940.2549,-2997.0041 940.2549,-2997.0041 825.2549,-2997.0041 825.2549,-2997.0041 819.2549,-2997.0041 813.2549,-2991.0041 813.2549,-2985.0041 813.2549,-2985.0041 813.2549,-2731.0041 813.2549,-2731.0041 813.2549,-2725.0041 819.2549,-2719.0041 825.2549,-2719.0041"/>
<text text-anchor="middle" x="882.7549" y="-2984.2041" font-family="Times,serif" font-size="11.00" fill="#c0c0c0">FullTextSearch</text>
</g>
<g id="clust4" class="cluster">
<title>cluster_\SilverStripe\FullTextSearch\Search</title>
<path fill="none" stroke="#c0c0c0" d="M833.2549,-2861.0041C833.2549,-2861.0041 932.2549,-2861.0041 932.2549,-2861.0041 938.2549,-2861.0041 944.2549,-2867.0041 944.2549,-2873.0041 944.2549,-2873.0041 944.2549,-2957.0041 944.2549,-2957.0041 944.2549,-2963.0041 938.2549,-2969.0041 932.2549,-2969.0041 932.2549,-2969.0041 833.2549,-2969.0041 833.2549,-2969.0041 827.2549,-2969.0041 821.2549,-2963.0041 821.2549,-2957.0041 821.2549,-2957.0041 821.2549,-2873.0041 821.2549,-2873.0041 821.2549,-2867.0041 827.2549,-2861.0041 833.2549,-2861.0041"/>
<text text-anchor="middle" x="882.7549" y="-2956.2041" font-family="Times,serif" font-size="11.00" fill="#c0c0c0">Search</text>
</g>
<g id="clust5" class="cluster">
<title>cluster_\SilverStripe\FullTextSearch\Search\Queries</title>
<path fill="none" stroke="#c0c0c0" d="M841.2549,-2869.0041C841.2549,-2869.0041 924.2549,-2869.0041 924.2549,-2869.0041 930.2549,-2869.0041 936.2549,-2875.0041 936.2549,-2881.0041 936.2549,-2881.0041 936.2549,-2929.0041 936.2549,-2929.0041 936.2549,-2935.0041 930.2549,-2941.0041 924.2549,-2941.0041 924.2549,-2941.0041 841.2549,-2941.0041 841.2549,-2941.0041 835.2549,-2941.0041 829.2549,-2935.0041 829.2549,-2929.0041 829.2549,-2929.0041 829.2549,-2881.0041 829.2549,-2881.0041 829.2549,-2875.0041 835.2549,-2869.0041 841.2549,-2869.0041"/>
<text text-anchor="middle" x="882.7549" y="-2928.2041" font-family="Times,serif" font-size="11.00" fill="#c0c0c0">Queries</text>
</g>
<g id="clust6" class="cluster">
<title>cluster_\SilverStripe\FullTextSearch\Solr</title>
<path fill="none" stroke="#c0c0c0" d="M844.7549,-2727.0041C844.7549,-2727.0041 920.7549,-2727.0041 920.7549,-2727.0041 926.7549,-2727.0041 932.7549,-2733.0041 932.7549,-2739.0041 932.7549,-2739.0041 932.7549,-2841.0041 932.7549,-2841.0041 932.7549,-2847.0041 926.7549,-2853.0041 920.7549,-2853.0041 920.7549,-2853.0041 844.7549,-2853.0041 844.7549,-2853.0041 838.7549,-2853.0041 832.7549,-2847.0041 832.7549,-2841.0041 832.7549,-2841.0041 832.7549,-2739.0041 832.7549,-2739.0041 832.7549,-2733.0041 838.7549,-2727.0041 844.7549,-2727.0041"/>
<text text-anchor="middle" x="882.7549" y="-2840.2041" font-family="Times,serif" font-size="11.00" fill="#c0c0c0">Solr</text>
</g>
<g id="clust7" class="cluster">
<title>cluster_\Firesphere</title>
<path fill="none" stroke="#c0c0c0" d="M173.1275,-485.0041C173.1275,-485.0041 777.2549,-485.0041 777.2549,-485.0041 783.2549,-485.0041 789.2549,-491.0041 789.2549,-497.0041 789.2549,-497.0041 789.2549,-3543.0041 789.2549,-3543.0041 789.2549,-3549.0041 783.2549,-3555.0041 777.2549,-3555.0041 777.2549,-3555.0041 173.1275,-3555.0041 173.1275,-3555.0041 167.1275,-3555.0041 161.1275,-3549.0041 161.1275,-3543.0041 161.1275,-3543.0041 161.1275,-497.0041 161.1275,-497.0041 161.1275,-491.0041 167.1275,-485.0041 173.1275,-485.0041"/>
<text text-anchor="middle" x="475.1912" y="-3542.2041" font-family="Times,serif" font-size="11.00" fill="#c0c0c0">Firesphere</text>
</g>
<g id="clust8" class="cluster">
<title>cluster_\Firesphere\SolrSearch</title>
<path fill="none" stroke="#c0c0c0" d="M181.1275,-493.0041C181.1275,-493.0041 769.2549,-493.0041 769.2549,-493.0041 775.2549,-493.0041 781.2549,-499.0041 781.2549,-505.0041 781.2549,-505.0041 781.2549,-3515.0041 781.2549,-3515.0041 781.2549,-3521.0041 775.2549,-3527.0041 769.2549,-3527.0041 769.2549,-3527.0041 181.1275,-3527.0041 181.1275,-3527.0041 175.1275,-3527.0041 169.1275,-3521.0041 169.1275,-3515.0041 169.1275,-3515.0041 169.1275,-505.0041 169.1275,-505.0041 169.1275,-499.0041 175.1275,-493.0041 181.1275,-493.0041"/>
<text text-anchor="middle" x="475.1912" y="-3514.2041" font-family="Times,serif" font-size="11.00" fill="#c0c0c0">SolrSearch</text>
</g>
<g id="clust9" class="cluster">
<title>cluster_\Firesphere\SolrSearch\Compat</title>
<path fill="none" stroke="#c0c0c0" d="M590.7549,-3293.0041C590.7549,-3293.0041 754.7549,-3293.0041 754.7549,-3293.0041 760.7549,-3293.0041 766.7549,-3299.0041 766.7549,-3305.0041 766.7549,-3305.0041 766.7549,-3353.0041 766.7549,-3353.0041 766.7549,-3359.0041 760.7549,-3365.0041 754.7549,-3365.0041 754.7549,-3365.0041 590.7549,-3365.0041 590.7549,-3365.0041 584.7549,-3365.0041 578.7549,-3359.0041 578.7549,-3353.0041 578.7549,-3353.0041 578.7549,-3305.0041 578.7549,-3305.0041 578.7549,-3299.0041 584.7549,-3293.0041 590.7549,-3293.0041"/>
<text text-anchor="middle" x="672.7549" y="-3352.2041" font-family="Times,serif" font-size="11.00" fill="#c0c0c0">Compat</text>
</g>
<g id="clust10" class="cluster">
<title>cluster_\Firesphere\SolrSearch\Stores</title>
<path fill="none" stroke="#c0c0c0" d="M617.7549,-3373.0041C617.7549,-3373.0041 727.7549,-3373.0041 727.7549,-3373.0041 733.7549,-3373.0041 739.7549,-3379.0041 739.7549,-3385.0041 739.7549,-3385.0041 739.7549,-3487.0041 739.7549,-3487.0041 739.7549,-3493.0041 733.7549,-3499.0041 727.7549,-3499.0041 727.7549,-3499.0041 617.7549,-3499.0041 617.7549,-3499.0041 611.7549,-3499.0041 605.7549,-3493.0041 605.7549,-3487.0041 605.7549,-3487.0041 605.7549,-3385.0041 605.7549,-3385.0041 605.7549,-3379.0041 611.7549,-3373.0041 617.7549,-3373.0041"/>
<text text-anchor="middle" x="672.7549" y="-3486.2041" font-family="Times,serif" font-size="11.00" fill="#c0c0c0">Stores</text>
</g>
<g id="clust11" class="cluster">
<title>cluster_\Firesphere\SolrSearch\Queries</title>
<path fill="none" stroke="#c0c0c0" d="M638.2549,-3213.0041C638.2549,-3213.0041 707.2549,-3213.0041 707.2549,-3213.0041 713.2549,-3213.0041 719.2549,-3219.0041 719.2549,-3225.0041 719.2549,-3225.0041 719.2549,-3273.0041 719.2549,-3273.0041 719.2549,-3279.0041 713.2549,-3285.0041 707.2549,-3285.0041 707.2549,-3285.0041 638.2549,-3285.0041 638.2549,-3285.0041 632.2549,-3285.0041 626.2549,-3279.0041 626.2549,-3273.0041 626.2549,-3273.0041 626.2549,-3225.0041 626.2549,-3225.0041 626.2549,-3219.0041 632.2549,-3213.0041 638.2549,-3213.0041"/>
<text text-anchor="middle" x="672.7549" y="-3272.2041" font-family="Times,serif" font-size="11.00" fill="#c0c0c0">Queries</text>
</g>
<g id="clust12" class="cluster">
<title>cluster_\Firesphere\SolrSearch\Jobs</title>
<path fill="none" stroke="#c0c0c0" d="M600.7549,-3025.0041C600.7549,-3025.0041 744.7549,-3025.0041 744.7549,-3025.0041 750.7549,-3025.0041 756.7549,-3031.0041 756.7549,-3037.0041 756.7549,-3037.0041 756.7549,-3193.0041 756.7549,-3193.0041 756.7549,-3199.0041 750.7549,-3205.0041 744.7549,-3205.0041 744.7549,-3205.0041 600.7549,-3205.0041 600.7549,-3205.0041 594.7549,-3205.0041 588.7549,-3199.0041 588.7549,-3193.0041 588.7549,-3193.0041 588.7549,-3037.0041 588.7549,-3037.0041 588.7549,-3031.0041 594.7549,-3025.0041 600.7549,-3025.0041"/>
<text text-anchor="middle" x="672.7549" y="-3192.2041" font-family="Times,serif" font-size="11.00" fill="#c0c0c0">Jobs</text>
</g>
<g id="clust13" class="cluster">
<title>cluster_\Firesphere\SolrSearch\Results</title>
<path fill="none" stroke="#c0c0c0" d="M627.7549,-2945.0041C627.7549,-2945.0041 717.7549,-2945.0041 717.7549,-2945.0041 723.7549,-2945.0041 729.7549,-2951.0041 729.7549,-2957.0041 729.7549,-2957.0041 729.7549,-3005.0041 729.7549,-3005.0041 729.7549,-3011.0041 723.7549,-3017.0041 717.7549,-3017.0041 717.7549,-3017.0041 627.7549,-3017.0041 627.7549,-3017.0041 621.7549,-3017.0041 615.7549,-3011.0041 615.7549,-3005.0041 615.7549,-3005.0041 615.7549,-2957.0041 615.7549,-2957.0041 615.7549,-2951.0041 621.7549,-2945.0041 627.7549,-2945.0041"/>
<text text-anchor="middle" x="672.7549" y="-3004.2041" font-family="Times,serif" font-size="11.00" fill="#c0c0c0">Results</text>
</g>
<g id="clust14" class="cluster">
<title>cluster_\Firesphere\SolrSearch\Extensions</title>
<path fill="none" stroke="#c0c0c0" d="M604.2549,-2811.0041C604.2549,-2811.0041 741.2549,-2811.0041 741.2549,-2811.0041 747.2549,-2811.0041 753.2549,-2817.0041 753.2549,-2823.0041 753.2549,-2823.0041 753.2549,-2925.0041 753.2549,-2925.0041 753.2549,-2931.0041 747.2549,-2937.0041 741.2549,-2937.0041 741.2549,-2937.0041 604.2549,-2937.0041 604.2549,-2937.0041 598.2549,-2937.0041 592.2549,-2931.0041 592.2549,-2925.0041 592.2549,-2925.0041 592.2549,-2823.0041 592.2549,-2823.0041 592.2549,-2817.0041 598.2549,-2811.0041 604.2549,-2811.0041"/>
<text text-anchor="middle" x="672.7549" y="-2924.2041" font-family="Times,serif" font-size="11.00" fill="#c0c0c0">Extensions</text>
</g>
<g id="clust15" class="cluster">
<title>cluster_\Firesphere\SolrSearch\Forms</title>
<path fill="none" stroke="#c0c0c0" d="M634.7549,-2731.0041C634.7549,-2731.0041 710.7549,-2731.0041 710.7549,-2731.0041 716.7549,-2731.0041 722.7549,-2737.0041 722.7549,-2743.0041 722.7549,-2743.0041 722.7549,-2791.0041 722.7549,-2791.0041 722.7549,-2797.0041 716.7549,-2803.0041 710.7549,-2803.0041 710.7549,-2803.0041 634.7549,-2803.0041 634.7549,-2803.0041 628.7549,-2803.0041 622.7549,-2797.0041 622.7549,-2791.0041 622.7549,-2791.0041 622.7549,-2743.0041 622.7549,-2743.0041 622.7549,-2737.0041 628.7549,-2731.0041 634.7549,-2731.0041"/>
<text text-anchor="middle" x="672.7549" y="-2790.2041" font-family="Times,serif" font-size="11.00" fill="#c0c0c0">Forms</text>
</g>
<g id="clust16" class="cluster">
<title>cluster_\Firesphere\SolrSearch\Services</title>
<path fill="none" stroke="#c0c0c0" d="M617.7549,-2597.0041C617.7549,-2597.0041 727.7549,-2597.0041 727.7549,-2597.0041 733.7549,-2597.0041 739.7549,-2603.0041 739.7549,-2609.0041 739.7549,-2609.0041 739.7549,-2711.0041 739.7549,-2711.0041 739.7549,-2717.0041 733.7549,-2723.0041 727.7549,-2723.0041 727.7549,-2723.0041 617.7549,-2723.0041 617.7549,-2723.0041 611.7549,-2723.0041 605.7549,-2717.0041 605.7549,-2711.0041 605.7549,-2711.0041 605.7549,-2609.0041 605.7549,-2609.0041 605.7549,-2603.0041 611.7549,-2597.0041 617.7549,-2597.0041"/>
<text text-anchor="middle" x="672.7549" y="-2710.2041" font-family="Times,serif" font-size="11.00" fill="#c0c0c0">Services</text>
</g>
<g id="clust17" class="cluster">
<title>cluster_\Firesphere\SolrSearch\Admins</title>
<path fill="none" stroke="#c0c0c0" d="M631.2549,-2517.0041C631.2549,-2517.0041 714.2549,-2517.0041 714.2549,-2517.0041 720.2549,-2517.0041 726.2549,-2523.0041 726.2549,-2529.0041 726.2549,-2529.0041 726.2549,-2577.0041 726.2549,-2577.0041 726.2549,-2583.0041 720.2549,-2589.0041 714.2549,-2589.0041 714.2549,-2589.0041 631.2549,-2589.0041 631.2549,-2589.0041 625.2549,-2589.0041 619.2549,-2583.0041 619.2549,-2577.0041 619.2549,-2577.0041 619.2549,-2529.0041 619.2549,-2529.0041 619.2549,-2523.0041 625.2549,-2517.0041 631.2549,-2517.0041"/>
<text text-anchor="middle" x="672.7549" y="-2576.2041" font-family="Times,serif" font-size="11.00" fill="#c0c0c0">Admins</text>
</g>
<g id="clust18" class="cluster">
<title>cluster_\Firesphere\SolrSearch\Indexes</title>
<path fill="none" stroke="#c0c0c0" d="M634.7549,-2437.0041C634.7549,-2437.0041 710.7549,-2437.0041 710.7549,-2437.0041 716.7549,-2437.0041 722.7549,-2443.0041 722.7549,-2449.0041 722.7549,-2449.0041 722.7549,-2497.0041 722.7549,-2497.0041 722.7549,-2503.0041 716.7549,-2509.0041 710.7549,-2509.0041 710.7549,-2509.0041 634.7549,-2509.0041 634.7549,-2509.0041 628.7549,-2509.0041 622.7549,-2503.0041 622.7549,-2497.0041 622.7549,-2497.0041 622.7549,-2449.0041 622.7549,-2449.0041 622.7549,-2443.0041 628.7549,-2437.0041 634.7549,-2437.0041"/>
<text text-anchor="middle" x="672.7549" y="-2496.2041" font-family="Times,serif" font-size="11.00" fill="#c0c0c0">Indexes</text>
</g>
<g id="clust19" class="cluster">
<title>cluster_\Firesphere\SolrSearch\States</title>
<path fill="none" stroke="#c0c0c0" d="M634.7549,-2357.0041C634.7549,-2357.0041 710.7549,-2357.0041 710.7549,-2357.0041 716.7549,-2357.0041 722.7549,-2363.0041 722.7549,-2369.0041 722.7549,-2369.0041 722.7549,-2417.0041 722.7549,-2417.0041 722.7549,-2423.0041 716.7549,-2429.0041 710.7549,-2429.0041 710.7549,-2429.0041 634.7549,-2429.0041 634.7549,-2429.0041 628.7549,-2429.0041 622.7549,-2423.0041 622.7549,-2417.0041 622.7549,-2417.0041 622.7549,-2369.0041 622.7549,-2369.0041 622.7549,-2363.0041 628.7549,-2357.0041 634.7549,-2357.0041"/>
<text text-anchor="middle" x="672.7549" y="-2416.2041" font-family="Times,serif" font-size="11.00" fill="#c0c0c0">States</text>
</g>
<g id="clust20" class="cluster">
<title>cluster_\Firesphere\SolrSearch\Tasks</title>
<path fill="none" stroke="#c0c0c0" d="M597.7549,-2115.0041C597.7549,-2115.0041 747.7549,-2115.0041 747.7549,-2115.0041 753.7549,-2115.0041 759.7549,-2121.0041 759.7549,-2127.0041 759.7549,-2127.0041 759.7549,-2337.0041 759.7549,-2337.0041 759.7549,-2343.0041 753.7549,-2349.0041 747.7549,-2349.0041 747.7549,-2349.0041 597.7549,-2349.0041 597.7549,-2349.0041 591.7549,-2349.0041 585.7549,-2343.0041 585.7549,-2337.0041 585.7549,-2337.0041 585.7549,-2127.0041 585.7549,-2127.0041 585.7549,-2121.0041 591.7549,-2115.0041 597.7549,-2115.0041"/>
<text text-anchor="middle" x="672.7549" y="-2336.2041" font-family="Times,serif" font-size="11.00" fill="#c0c0c0">Tasks</text>
</g>
<g id="clust21" class="cluster">
<title>cluster_\Firesphere\SolrSearch\Helpers</title>
<path fill="none" stroke="#c0c0c0" d="M624.7549,-1819.0041C624.7549,-1819.0041 720.7549,-1819.0041 720.7549,-1819.0041 726.7549,-1819.0041 732.7549,-1825.0041 732.7549,-1831.0041 732.7549,-1831.0041 732.7549,-2095.0041 732.7549,-2095.0041 732.7549,-2101.0041 726.7549,-2107.0041 720.7549,-2107.0041 720.7549,-2107.0041 624.7549,-2107.0041 624.7549,-2107.0041 618.7549,-2107.0041 612.7549,-2101.0041 612.7549,-2095.0041 612.7549,-2095.0041 612.7549,-1831.0041 612.7549,-1831.0041 612.7549,-1825.0041 618.7549,-1819.0041 624.7549,-1819.0041"/>
<text text-anchor="middle" x="672.7549" y="-2094.2041" font-family="Times,serif" font-size="11.00" fill="#c0c0c0">Helpers</text>
</g>
<g id="clust22" class="cluster">
<title>cluster_\Firesphere\SolrSearch\Models</title>
<path fill="none" stroke="#c0c0c0" d="M624.7549,-1631.0041C624.7549,-1631.0041 720.7549,-1631.0041 720.7549,-1631.0041 726.7549,-1631.0041 732.7549,-1637.0041 732.7549,-1643.0041 732.7549,-1643.0041 732.7549,-1799.0041 732.7549,-1799.0041 732.7549,-1805.0041 726.7549,-1811.0041 720.7549,-1811.0041 720.7549,-1811.0041 624.7549,-1811.0041 624.7549,-1811.0041 618.7549,-1811.0041 612.7549,-1805.0041 612.7549,-1799.0041 612.7549,-1799.0041 612.7549,-1643.0041 612.7549,-1643.0041 612.7549,-1637.0041 618.7549,-1631.0041 624.7549,-1631.0041"/>
<text text-anchor="middle" x="672.7549" y="-1798.2041" font-family="Times,serif" font-size="11.00" fill="#c0c0c0">Models</text>
</g>
<g id="clust23" class="cluster">
<title>cluster_\Firesphere\SolrSearch\Factories</title>
<path fill="none" stroke="#c0c0c0" d="M597.7549,-1497.0041C597.7549,-1497.0041 747.7549,-1497.0041 747.7549,-1497.0041 753.7549,-1497.0041 759.7549,-1503.0041 759.7549,-1509.0041 759.7549,-1509.0041 759.7549,-1611.0041 759.7549,-1611.0041 759.7549,-1617.0041 753.7549,-1623.0041 747.7549,-1623.0041 747.7549,-1623.0041 597.7549,-1623.0041 597.7549,-1623.0041 591.7549,-1623.0041 585.7549,-1617.0041 585.7549,-1611.0041 585.7549,-1611.0041 585.7549,-1509.0041 585.7549,-1509.0041 585.7549,-1503.0041 591.7549,-1497.0041 597.7549,-1497.0041"/>
<text text-anchor="middle" x="672.7549" y="-1610.2041" font-family="Times,serif" font-size="11.00" fill="#c0c0c0">Factories</text>
</g>
<g id="clust24" class="cluster">
<title>cluster_\Firesphere\SolrSearch\Interfaces</title>
<path fill="none" stroke="#c0c0c0" d="M189.1275,-3373.0041C189.1275,-3373.0041 319.1275,-3373.0041 319.1275,-3373.0041 325.1275,-3373.0041 331.1275,-3379.0041 331.1275,-3385.0041 331.1275,-3385.0041 331.1275,-3487.0041 331.1275,-3487.0041 331.1275,-3493.0041 325.1275,-3499.0041 319.1275,-3499.0041 319.1275,-3499.0041 189.1275,-3499.0041 189.1275,-3499.0041 183.1275,-3499.0041 177.1275,-3493.0041 177.1275,-3487.0041 177.1275,-3487.0041 177.1275,-3385.0041 177.1275,-3385.0041 177.1275,-3379.0041 183.1275,-3373.0041 189.1275,-3373.0041"/>
<text text-anchor="middle" x="254.1275" y="-3486.2041" font-family="Times,serif" font-size="11.00" fill="#c0c0c0">Interfaces</text>
</g>
<g id="clust25" class="cluster">
<title>cluster_\Firesphere\SolrSearch\Traits</title>
<path fill="none" stroke="#c0c0c0" d="M584.2549,-661.0041C584.2549,-661.0041 761.2549,-661.0041 761.2549,-661.0041 767.2549,-661.0041 773.2549,-667.0041 773.2549,-673.0041 773.2549,-673.0041 773.2549,-1477.0041 773.2549,-1477.0041 773.2549,-1483.0041 767.2549,-1489.0041 761.2549,-1489.0041 761.2549,-1489.0041 584.2549,-1489.0041 584.2549,-1489.0041 578.2549,-1489.0041 572.2549,-1483.0041 572.2549,-1477.0041 572.2549,-1477.0041 572.2549,-673.0041 572.2549,-673.0041 572.2549,-667.0041 578.2549,-661.0041 584.2549,-661.0041"/>
<text text-anchor="middle" x="672.7549" y="-1476.2041" font-family="Times,serif" font-size="11.00" fill="#c0c0c0">Traits</text>
</g>
<g id="clust26" class="cluster">
<title>cluster_\Firesphere\SolrSearch\Fluent</title>
<path fill="none" stroke="#c0c0c0" d="M617.7549,-581.0041C617.7549,-581.0041 727.7549,-581.0041 727.7549,-581.0041 733.7549,-581.0041 739.7549,-587.0041 739.7549,-593.0041 739.7549,-593.0041 739.7549,-641.0041 739.7549,-641.0041 739.7549,-647.0041 733.7549,-653.0041 727.7549,-653.0041 727.7549,-653.0041 617.7549,-653.0041 617.7549,-653.0041 611.7549,-653.0041 605.7549,-647.0041 605.7549,-641.0041 605.7549,-641.0041 605.7549,-593.0041 605.7549,-593.0041 605.7549,-587.0041 611.7549,-581.0041 617.7549,-581.0041"/>
<text text-anchor="middle" x="672.7549" y="-640.2041" font-family="Times,serif" font-size="11.00" fill="#c0c0c0">Fluent</text>
</g>
<g id="clust27" class="cluster">
<title>cluster_\Firesphere\SolrSearch\Subsites</title>
<path fill="none" stroke="#c0c0c0" d="M611.2549,-501.0041C611.2549,-501.0041 734.2549,-501.0041 734.2549,-501.0041 740.2549,-501.0041 746.2549,-507.0041 746.2549,-513.0041 746.2549,-513.0041 746.2549,-561.0041 746.2549,-561.0041 746.2549,-567.0041 740.2549,-573.0041 734.2549,-573.0041 734.2549,-573.0041 611.2549,-573.0041 611.2549,-573.0041 605.2549,-573.0041 599.2549,-567.0041 599.2549,-561.0041 599.2549,-561.0041 599.2549,-513.0041 599.2549,-513.0041 599.2549,-507.0041 605.2549,-501.0041 611.2549,-501.0041"/>
<text text-anchor="middle" x="672.7549" y="-560.2041" font-family="Times,serif" font-size="11.00" fill="#c0c0c0">Subsites</text>
</g>
<!-- \\SilverStripe\\FullTextSearch\\Search\\Queries\\SearchQuery -->
<g id="node1" class="node">
<title>\\SilverStripe\\FullTextSearch\\Search\\Queries\\SearchQuery</title>
<polygon fill="none" stroke="#000000" points="928.2549,-2913.0041 837.2549,-2913.0041 837.2549,-2877.0041 928.2549,-2877.0041 928.2549,-2913.0041"/>
<text text-anchor="middle" x="882.7549" y="-2892.2041" font-family="Courier,monospace" font-size="11.00" fill="#000000">SearchQuery</text>
</g>
<!-- \\Firesphere\\SolrSearch\\Queries\\BaseQuery -->
<g id="node7" class="node">
<title>\\Firesphere\\SolrSearch\\Queries\\BaseQuery</title>
<polygon fill="none" stroke="#000000" points="711.2549,-3257.0041 634.2549,-3257.0041 634.2549,-3221.0041 711.2549,-3221.0041 711.2549,-3257.0041"/>
<text text-anchor="middle" x="672.7549" y="-3236.2041" font-family="Courier,monospace" font-size="11.00" fill="#000000">BaseQuery</text>
</g>
<!-- \\SilverStripe\\FullTextSearch\\Search\\Queries\\SearchQuery&#45;&gt;\\Firesphere\\SolrSearch\\Queries\\BaseQuery -->
<g id="edge1" class="edge">
<title>\\SilverStripe\\FullTextSearch\\Search\\Queries\\SearchQuery&#45;&gt;\\Firesphere\\SolrSearch\\Queries\\BaseQuery</title>
<path fill="none" stroke="#000000" d="M879.7169,-2913.3223C869.3095,-2973.9402 833.2916,-3166.5833 789.2549,-3209.0041 771.3042,-3226.2961 744.7724,-3233.9855 721.561,-3237.2674"/>
<polygon fill="none" stroke="#000000" points="721.0347,-3233.8051 711.5131,-3238.4516 721.8541,-3240.757 721.0347,-3233.8051"/>
</g>
<!-- \\SilverStripe\\FullTextSearch\\Solr\\SolrIndex -->
<g id="node2" class="node">
<title>\\SilverStripe\\FullTextSearch\\Solr\\SolrIndex</title>
<polygon fill="none" stroke="#000000" points="924.7549,-2825.0041 840.7549,-2825.0041 840.7549,-2789.0041 924.7549,-2789.0041 924.7549,-2825.0041"/>
<text text-anchor="start" x="848.7549" y="-2810.2041" font-family="Courier,monospace" font-size="11.00" fill="#000000">«abstract»</text>
<text text-anchor="start" x="852.2549" y="-2798.2041" font-family="Courier,monospace" font-size="11.00" fill="#000000">SolrIndex</text>
</g>
<!-- \\Firesphere\\SolrSearch\\Indexes\\BaseIndex -->
<g id="node18" class="node">
<title>\\Firesphere\\SolrSearch\\Indexes\\BaseIndex</title>
<polygon fill="none" stroke="#000000" points="714.7549,-2481.0041 630.7549,-2481.0041 630.7549,-2445.0041 714.7549,-2445.0041 714.7549,-2481.0041"/>
<text text-anchor="start" x="638.7549" y="-2466.2041" font-family="Courier,monospace" font-size="11.00" fill="#000000">«abstract»</text>
<text text-anchor="start" x="642.2549" y="-2454.2041" font-family="Courier,monospace" font-size="11.00" fill="#000000">BaseIndex</text>
</g>
<!-- \\SilverStripe\\FullTextSearch\\Solr\\SolrIndex&#45;&gt;\\Firesphere\\SolrSearch\\Indexes\\BaseIndex -->
<g id="edge2" class="edge">
<title>\\SilverStripe\\FullTextSearch\\Solr\\SolrIndex&#45;&gt;\\Firesphere\\SolrSearch\\Indexes\\BaseIndex</title>
<path fill="none" stroke="#000000" d="M840.6643,-2801.6871C827.284,-2797.8392 813.7656,-2791.2528 805.2549,-2780.0041 769.3914,-2732.6026 823.4335,-2561.6344 789.2549,-2513.0041 774.3051,-2491.7331 748.3473,-2479.4464 724.7233,-2472.3817"/>
<polygon fill="none" stroke="#000000" points="725.3495,-2468.9245 714.7805,-2469.6627 723.503,-2475.6766 725.3495,-2468.9245"/>
</g>
<!-- \\SilverStripe\\FullTextSearch\\Solr\\Solr -->
<g id="node3" class="node">
<title>\\SilverStripe\\FullTextSearch\\Solr\\Solr</title>
<polygon fill="none" stroke="#000000" points="909.7549,-2771.0041 855.7549,-2771.0041 855.7549,-2735.0041 909.7549,-2735.0041 909.7549,-2771.0041"/>
<text text-anchor="middle" x="882.7549" y="-2750.2041" font-family="Courier,monospace" font-size="11.00" fill="#000000">Solr</text>
</g>
<!-- \\Firesphere\\SolrSearch\\Compat\\FulltextSearchExtension -->
<g id="node4" class="node">
<title>\\Firesphere\\SolrSearch\\Compat\\FulltextSearchExtension</title>
<polygon fill="none" stroke="#000000" points="758.7549,-3337.0041 586.7549,-3337.0041 586.7549,-3301.0041 758.7549,-3301.0041 758.7549,-3337.0041"/>
<text text-anchor="middle" x="672.7549" y="-3316.2041" font-family="Courier,monospace" font-size="11.00" fill="#000000">FulltextSearchExtension</text>
</g>
<!-- \\SilverStripe\\Core\\Extension -->
<g id="node53" class="node">
<title>\\SilverStripe\\Core\\Extension</title>
<ellipse fill="none" stroke="#000000" cx="254.1275" cy="-397.0041" rx="144.0747" ry="18"/>
<text text-anchor="middle" x="254.1275" y="-393.3041" font-family="Times,serif" font-size="14.00" fill="#c0c0c0">\SilverStripe\Core\Extension</text>
</g>
<!-- \\Firesphere\\SolrSearch\\Compat\\FulltextSearchExtension&#45;&gt;\\SilverStripe\\Core\\Extension -->
<g id="edge3" class="edge">
<title>\\Firesphere\\SolrSearch\\Compat\\FulltextSearchExtension&#45;&gt;\\SilverStripe\\Core\\Extension</title>
<path fill="none" stroke="#000000" d="M586.4652,-3302.1654C581.0744,-3298.5561 576.2299,-3294.2164 572.2549,-3289.0041 475.7126,-3162.4092 616.0332,-541.1813 508.2549,-424.0041 466.3908,-378.4891 394.7809,-374.5324 338.226,-380.3727"/>
<polygon fill="none" stroke="#000000" points="337.7465,-376.9047 328.2116,-381.5238 338.5459,-383.8589 337.7465,-376.9047"/>
</g>
<!-- \\Firesphere\\SolrSearch\\Stores\\FileConfigStore -->
<g id="node5" class="node">
<title>\\Firesphere\\SolrSearch\\Stores\\FileConfigStore</title>
<polygon fill="none" stroke="#000000" points="731.7549,-3471.0041 613.7549,-3471.0041 613.7549,-3435.0041 731.7549,-3435.0041 731.7549,-3471.0041"/>
<text text-anchor="middle" x="672.7549" y="-3450.2041" font-family="Courier,monospace" font-size="11.00" fill="#000000">FileConfigStore</text>
</g>
<!-- \\Firesphere\\SolrSearch\\Interfaces\\ConfigStore -->
<g id="node35" class="node">
<title>\\Firesphere\\SolrSearch\\Interfaces\\ConfigStore</title>
<polygon fill="none" stroke="#000000" points="299.6275,-3417.0041 208.6275,-3417.0041 208.6275,-3381.0041 299.6275,-3381.0041 299.6275,-3417.0041"/>
<text text-anchor="middle" x="254.1275" y="-3396.2041" font-family="Courier,monospace" font-size="11.00" fill="#000000">ConfigStore</text>
</g>
<!-- \\Firesphere\\SolrSearch\\Stores\\FileConfigStore&#45;&gt;\\Firesphere\\SolrSearch\\Interfaces\\ConfigStore -->
<g id="edge4" class="edge">
<title>\\Firesphere\\SolrSearch\\Stores\\FileConfigStore&#45;&gt;\\Firesphere\\SolrSearch\\Interfaces\\ConfigStore</title>
<path fill="none" stroke="#000000" stroke-dasharray="1,5" d="M613.4867,-3442.4405C582.2454,-3437.0841 543.2453,-3430.7305 508.2549,-3426.0041 440.1774,-3416.8082 361.4881,-3408.8593 309.9264,-3404.0128"/>
<polygon fill="none" stroke="#000000" points="309.95,-3400.4999 299.6682,-3403.0559 309.2998,-3407.4697 309.95,-3400.4999"/>
</g>
<!-- \\Firesphere\\SolrSearch\\Stores\\PostConfigStore -->
<g id="node6" class="node">
<title>\\Firesphere\\SolrSearch\\Stores\\PostConfigStore</title>
<polygon fill="none" stroke="#000000" points="731.7549,-3417.0041 613.7549,-3417.0041 613.7549,-3381.0041 731.7549,-3381.0041 731.7549,-3417.0041"/>
<text text-anchor="middle" x="672.7549" y="-3396.2041" font-family="Courier,monospace" font-size="11.00" fill="#000000">PostConfigStore</text>
</g>
<!-- \\Firesphere\\SolrSearch\\Stores\\PostConfigStore&#45;&gt;\\Firesphere\\SolrSearch\\Interfaces\\ConfigStore -->
<g id="edge5" class="edge">
<title>\\Firesphere\\SolrSearch\\Stores\\PostConfigStore&#45;&gt;\\Firesphere\\SolrSearch\\Interfaces\\ConfigStore</title>
<path fill="none" stroke="#000000" stroke-dasharray="1,5" d="M613.6637,-3399.0041C532.8854,-3399.0041 389.0185,-3399.0041 309.9722,-3399.0041"/>
<polygon fill="none" stroke="#000000" points="309.7288,-3395.5041 299.7287,-3399.0041 309.7287,-3402.5041 309.7288,-3395.5041"/>
</g>
<!-- \\Firesphere\\SolrSearch\\Jobs\\SolrConfigureJob -->
<g id="node8" class="node">
<title>\\Firesphere\\SolrSearch\\Jobs\\SolrConfigureJob</title>
<polygon fill="none" stroke="#000000" points="735.2549,-3177.0041 610.2549,-3177.0041 610.2549,-3141.0041 735.2549,-3141.0041 735.2549,-3177.0041"/>
<text text-anchor="middle" x="672.7549" y="-3156.2041" font-family="Courier,monospace" font-size="11.00" fill="#000000">SolrConfigureJob</text>
</g>
<!-- \\Symbiote\\QueuedJobs\\Services\\AbstractQueuedJob -->
<g id="node54" class="node">
<title>\\Symbiote\\QueuedJobs\\Services\\AbstractQueuedJob</title>
<ellipse fill="none" stroke="#000000" cx="254.1275" cy="-451.0041" rx="254.255" ry="18"/>
<text text-anchor="middle" x="254.1275" y="-447.3041" font-family="Times,serif" font-size="14.00" fill="#c0c0c0">\Symbiote\QueuedJobs\Services\AbstractQueuedJob</text>
</g>
<!-- \\Firesphere\\SolrSearch\\Jobs\\SolrConfigureJob&#45;&gt;\\Symbiote\\QueuedJobs\\Services\\AbstractQueuedJob -->
<g id="edge6" class="edge">
<title>\\Firesphere\\SolrSearch\\Jobs\\SolrConfigureJob&#45;&gt;\\Symbiote\\QueuedJobs\\Services\\AbstractQueuedJob</title>
<path fill="none" stroke="#000000" d="M610.0167,-3154.0674C595.7424,-3150.0042 581.9477,-3143.2077 572.2549,-3132.0041 388.4059,-2919.498 269.8472,-752.6683 255.5792,-479.2971"/>
<polygon fill="none" stroke="#000000" points="259.0601,-478.8359 255.0461,-469.0309 252.0695,-479.199 259.0601,-478.8359"/>
</g>
<!-- \\Firesphere\\SolrSearch\\Jobs\\SolrIndexJob -->
<g id="node9" class="node">
<title>\\Firesphere\\SolrSearch\\Jobs\\SolrIndexJob</title>
<polygon fill="none" stroke="#000000" points="721.7549,-3123.0041 623.7549,-3123.0041 623.7549,-3087.0041 721.7549,-3087.0041 721.7549,-3123.0041"/>
<text text-anchor="middle" x="672.7549" y="-3102.2041" font-family="Courier,monospace" font-size="11.00" fill="#000000">SolrIndexJob</text>
</g>
<!-- \\Firesphere\\SolrSearch\\Jobs\\SolrIndexJob&#45;&gt;\\Symbiote\\QueuedJobs\\Services\\AbstractQueuedJob -->
<g id="edge7" class="edge">
<title>\\Firesphere\\SolrSearch\\Jobs\\SolrIndexJob&#45;&gt;\\Symbiote\\QueuedJobs\\Services\\AbstractQueuedJob</title>
<path fill="none" stroke="#000000" d="M623.6416,-3103.146C604.9231,-3099.8534 585.0388,-3092.7447 572.2549,-3078.0041 391.8995,-2870.042 270.4026,-748.795 255.6427,-479.1438"/>
<polygon fill="none" stroke="#000000" points="259.1295,-478.8027 255.0906,-469.0079 252.1398,-479.1835 259.1295,-478.8027"/>
</g>
<!-- \\Firesphere\\SolrSearch\\Jobs\\ClearDirtyClassesJob -->
<g id="node10" class="node">
<title>\\Firesphere\\SolrSearch\\Jobs\\ClearDirtyClassesJob</title>
<polygon fill="none" stroke="#000000" points="748.7549,-3069.0041 596.7549,-3069.0041 596.7549,-3033.0041 748.7549,-3033.0041 748.7549,-3069.0041"/>
<text text-anchor="middle" x="672.7549" y="-3048.2041" font-family="Courier,monospace" font-size="11.00" fill="#000000">ClearDirtyClassesJob</text>
</g>
<!-- \\Firesphere\\SolrSearch\\Jobs\\ClearDirtyClassesJob&#45;&gt;\\Symbiote\\QueuedJobs\\Services\\AbstractQueuedJob -->
<g id="edge8" class="edge">
<title>\\Firesphere\\SolrSearch\\Jobs\\ClearDirtyClassesJob&#45;&gt;\\Symbiote\\QueuedJobs\\Services\\AbstractQueuedJob</title>
<path fill="none" stroke="#000000" d="M596.634,-3038.9397C587.3516,-3034.6057 578.839,-3028.7903 572.2549,-3021.0041 398.4903,-2815.5114 271.4818,-746.31 255.7691,-479.3249"/>
<polygon fill="none" stroke="#000000" points="259.2591,-479.0492 255.1801,-469.2711 252.2711,-479.4588 259.2591,-479.0492"/>
</g>
<!-- \\Firesphere\\SolrSearch\\Results\\SearchResult -->
<g id="node11" class="node">
<title>\\Firesphere\\SolrSearch\\Results\\SearchResult</title>
<polygon fill="none" stroke="#000000" points="721.7549,-2989.0041 623.7549,-2989.0041 623.7549,-2953.0041 721.7549,-2953.0041 721.7549,-2989.0041"/>
<text text-anchor="middle" x="672.7549" y="-2968.2041" font-family="Courier,monospace" font-size="11.00" fill="#000000">SearchResult</text>
</g>
<!-- \\Firesphere\\SolrSearch\\Extensions\\GridFieldExtension -->
<g id="node12" class="node">
<title>\\Firesphere\\SolrSearch\\Extensions\\GridFieldExtension</title>
<polygon fill="none" stroke="#000000" points="741.7549,-2909.0041 603.7549,-2909.0041 603.7549,-2873.0041 741.7549,-2873.0041 741.7549,-2909.0041"/>
<text text-anchor="middle" x="672.7549" y="-2888.2041" font-family="Courier,monospace" font-size="11.00" fill="#000000">GridFieldExtension</text>
</g>
<!-- \\Firesphere\\SolrSearch\\Extensions\\GridFieldExtension&#45;&gt;\\SilverStripe\\Core\\Extension -->
<g id="edge9" class="edge">
<title>\\Firesphere\\SolrSearch\\Extensions\\GridFieldExtension&#45;&gt;\\SilverStripe\\Core\\Extension</title>
<path fill="none" stroke="#000000" d="M603.5949,-2884.8685C591.4585,-2880.6438 580.1931,-2874.08 572.2549,-2864.0041 488.3372,-2757.4875 600.2477,-523.6297 508.2549,-424.0041 466.3733,-378.6475 394.9426,-374.6202 338.458,-380.394"/>
<polygon fill="none" stroke="#000000" points="337.9948,-376.924 328.4551,-381.5332 338.7869,-383.8791 337.9948,-376.924"/>
</g>
<!-- \\Firesphere\\SolrSearch\\Extensions\\DataObjectExtension -->
<g id="node13" class="node">
<title>\\Firesphere\\SolrSearch\\Extensions\\DataObjectExtension</title>
<polygon fill="none" stroke="#000000" points="745.2549,-2855.0041 600.2549,-2855.0041 600.2549,-2819.0041 745.2549,-2819.0041 745.2549,-2855.0041"/>
<text text-anchor="middle" x="672.7549" y="-2834.2041" font-family="Courier,monospace" font-size="11.00" fill="#000000">DataObjectExtension</text>
</g>
<!-- \\SilverStripe\\ORM\\DataExtension -->
<g id="node55" class="node">
<title>\\SilverStripe\\ORM\\DataExtension</title>
<ellipse fill="none" stroke="#000000" cx="254.1275" cy="-19.0041" rx="167.8704" ry="18"/>
<text text-anchor="middle" x="254.1275" y="-15.3041" font-family="Times,serif" font-size="14.00" fill="#c0c0c0">\SilverStripe\ORM\DataExtension</text>
</g>
<!-- \\Firesphere\\SolrSearch\\Extensions\\DataObjectExtension&#45;&gt;\\SilverStripe\\ORM\\DataExtension -->
<g id="edge10" class="edge">
<title>\\Firesphere\\SolrSearch\\Extensions\\DataObjectExtension&#45;&gt;\\SilverStripe\\ORM\\DataExtension</title>
<path fill="none" stroke="#000000" d="M600.1417,-2827.43C589.2956,-2822.8758 579.3807,-2816.3399 572.2549,-2807.0041 479.164,-2685.0415 612.1703,-158.8862 508.2549,-46.0041 467.3777,-1.5996 398.1866,3.2374 342.3147,-1.9805"/>
<polygon fill="none" stroke="#000000" points="341.6243,1.4661 332.047,-3.0646 342.3593,-5.4952 341.6243,1.4661"/>
</g>
<!-- \\Firesphere\\SolrSearch\\Forms\\SearchForm -->
<g id="node14" class="node">
<title>\\Firesphere\\SolrSearch\\Forms\\SearchForm</title>
<polygon fill="none" stroke="#000000" points="714.7549,-2775.0041 630.7549,-2775.0041 630.7549,-2739.0041 714.7549,-2739.0041 714.7549,-2775.0041"/>
<text text-anchor="middle" x="672.7549" y="-2754.2041" font-family="Courier,monospace" font-size="11.00" fill="#000000">SearchForm</text>
</g>
<!-- \\SilverStripe\\Forms\\Form -->
<g id="node56" class="node">
<title>\\SilverStripe\\Forms\\Form</title>
<ellipse fill="none" stroke="#000000" cx="254.1275" cy="-343.0041" rx="129.1772" ry="18"/>
<text text-anchor="middle" x="254.1275" y="-339.3041" font-family="Times,serif" font-size="14.00" fill="#c0c0c0">\SilverStripe\Forms\Form</text>
</g>
<!-- \\Firesphere\\SolrSearch\\Forms\\SearchForm&#45;&gt;\\SilverStripe\\Forms\\Form -->
<g id="edge11" class="edge">
<title>\\Firesphere\\SolrSearch\\Forms\\SearchForm&#45;&gt;\\SilverStripe\\Forms\\Form</title>
<path fill="none" stroke="#000000" d="M630.594,-2755.5197C609.6116,-2752.4002 585.879,-2744.7803 572.2549,-2727.0041 412.8869,-2519.0661 686.0752,-562.4003 508.2549,-370.0041 465.5712,-323.8215 392.2498,-320.502 335.3019,-326.7387"/>
<polygon fill="none" stroke="#000000" points="334.7381,-323.2813 325.2314,-327.9582 335.5797,-330.2306 334.7381,-323.2813"/>
</g>
<!-- \\Firesphere\\SolrSearch\\Services\\SolrCoreService -->
<g id="node15" class="node">
<title>\\Firesphere\\SolrSearch\\Services\\SolrCoreService</title>
<polygon fill="none" stroke="#000000" points="731.7549,-2695.0041 613.7549,-2695.0041 613.7549,-2659.0041 731.7549,-2659.0041 731.7549,-2695.0041"/>
<text text-anchor="middle" x="672.7549" y="-2674.2041" font-family="Courier,monospace" font-size="11.00" fill="#000000">SolrCoreService</text>
</g>
<!-- \\Firesphere\\SolrSearch\\Services\\SchemaService -->
<g id="node16" class="node">
<title>\\Firesphere\\SolrSearch\\Services\\SchemaService</title>
<polygon fill="none" stroke="#000000" points="724.7549,-2641.0041 620.7549,-2641.0041 620.7549,-2605.0041 724.7549,-2605.0041 724.7549,-2641.0041"/>
<text text-anchor="middle" x="672.7549" y="-2620.2041" font-family="Courier,monospace" font-size="11.00" fill="#000000">SchemaService</text>
</g>
<!-- \\SilverStripe\\View\\ViewableData -->
<g id="node57" class="node">
<title>\\SilverStripe\\View\\ViewableData</title>
<ellipse fill="none" stroke="#000000" cx="254.1275" cy="-289.0041" rx="163.2712" ry="18"/>
<text text-anchor="middle" x="254.1275" y="-285.3041" font-family="Times,serif" font-size="14.00" fill="#c0c0c0">\SilverStripe\View\ViewableData</text>
</g>
<!-- \\Firesphere\\SolrSearch\\Services\\SchemaService&#45;&gt;\\SilverStripe\\View\\ViewableData -->
<g id="edge12" class="edge">
<title>\\Firesphere\\SolrSearch\\Services\\SchemaService&#45;&gt;\\SilverStripe\\View\\ViewableData</title>
<path fill="none" stroke="#000000" d="M620.7286,-2619.7253C602.5293,-2615.7972 583.7816,-2608.0289 572.2549,-2593.0041 418.1963,-2392.1919 680.1328,-501.7931 508.2549,-316.0041 467.1976,-271.6237 397.8448,-266.8404 341.9531,-272.074"/>
<polygon fill="none" stroke="#000000" points="341.2596,-268.6277 331.6834,-273.1605 341.9961,-275.5889 341.2596,-268.6277"/>
</g>
<!-- \\Firesphere\\SolrSearch\\Admins\\SearchAdmin -->
<g id="node17" class="node">
<title>\\Firesphere\\SolrSearch\\Admins\\SearchAdmin</title>
<polygon fill="none" stroke="#000000" points="718.2549,-2561.0041 627.2549,-2561.0041 627.2549,-2525.0041 718.2549,-2525.0041 718.2549,-2561.0041"/>
<text text-anchor="middle" x="672.7549" y="-2540.2041" font-family="Courier,monospace" font-size="11.00" fill="#000000">SearchAdmin</text>
</g>
<!-- \\SilverStripe\\Admin\\ModelAdmin -->
<g id="node58" class="node">
<title>\\SilverStripe\\Admin\\ModelAdmin</title>
<ellipse fill="none" stroke="#000000" cx="254.1275" cy="-235.0041" rx="165.1707" ry="18"/>
<text text-anchor="middle" x="254.1275" y="-231.3041" font-family="Times,serif" font-size="14.00" fill="#c0c0c0">\SilverStripe\Admin\ModelAdmin</text>
</g>
<!-- \\Firesphere\\SolrSearch\\Admins\\SearchAdmin&#45;&gt;\\SilverStripe\\Admin\\ModelAdmin -->
<g id="edge13" class="edge">
<title>\\Firesphere\\SolrSearch\\Admins\\SearchAdmin&#45;&gt;\\SilverStripe\\Admin\\ModelAdmin</title>
<path fill="none" stroke="#000000" d="M626.9969,-2540.935C606.9548,-2537.491 585.1144,-2529.7604 572.2549,-2513.0041 419.9218,-2314.5078 678.2015,-445.6458 508.2549,-262.0041 467.2613,-217.707 398.0775,-212.8633 342.238,-218.0513"/>
<polygon fill="none" stroke="#000000" points="341.5562,-214.6036 331.9767,-219.1295 342.2877,-221.5653 341.5562,-214.6036"/>
</g>
<!-- \\Firesphere\\SolrSearch\\States\\SiteState -->
<g id="node19" class="node">
<title>\\Firesphere\\SolrSearch\\States\\SiteState</title>
<polygon fill="none" stroke="#000000" points="714.7549,-2401.0041 630.7549,-2401.0041 630.7549,-2365.0041 714.7549,-2365.0041 714.7549,-2401.0041"/>
<text text-anchor="start" x="638.7549" y="-2386.2041" font-family="Courier,monospace" font-size="11.00" fill="#000000">«abstract»</text>
<text text-anchor="start" x="642.2549" y="-2374.2041" font-family="Courier,monospace" font-size="11.00" fill="#000000">SiteState</text>
</g>
<!-- \\Firesphere\\SolrSearch\\Tasks\\ClearDirtyClassesTask -->
<g id="node20" class="node">
<title>\\Firesphere\\SolrSearch\\Tasks\\ClearDirtyClassesTask</title>
<polygon fill="none" stroke="#000000" points="751.7549,-2213.0041 593.7549,-2213.0041 593.7549,-2177.0041 751.7549,-2177.0041 751.7549,-2213.0041"/>
<text text-anchor="middle" x="672.7549" y="-2192.2041" font-family="Courier,monospace" font-size="11.00" fill="#000000">ClearDirtyClassesTask</text>
</g>
<!-- \\SilverStripe\\Dev\\BuildTask -->
<g id="node59" class="node">
<title>\\SilverStripe\\Dev\\BuildTask</title>
<ellipse fill="none" stroke="#000000" cx="254.1275" cy="-181.0041" rx="139.9756" ry="18"/>
<text text-anchor="middle" x="254.1275" y="-177.3041" font-family="Times,serif" font-size="14.00" fill="#c0c0c0">\SilverStripe\Dev\BuildTask</text>
</g>
<!-- \\Firesphere\\SolrSearch\\Tasks\\ClearDirtyClassesTask&#45;&gt;\\SilverStripe\\Dev\\BuildTask -->
<g id="edge14" class="edge">
<title>\\Firesphere\\SolrSearch\\Tasks\\ClearDirtyClassesTask&#45;&gt;\\SilverStripe\\Dev\\BuildTask</title>
<path fill="none" stroke="#000000" d="M593.6457,-2184.68C585.413,-2180.6378 577.9802,-2175.2234 572.2549,-2168.0041 436.8623,-1997.2803 656.5875,-367.6135 508.2549,-208.0041 466.0855,-162.6288 394.3254,-158.7162 337.7937,-164.5368"/>
<polygon fill="none" stroke="#000000" points="337.3219,-161.0679 327.7854,-165.6836 338.1188,-168.0224 337.3219,-161.0679"/>
</g>
<!-- \\Firesphere\\SolrSearch\\Tasks\\ClearErrorsTask -->
<g id="node21" class="node">
<title>\\Firesphere\\SolrSearch\\Tasks\\ClearErrorsTask</title>
<polygon fill="none" stroke="#000000" points="731.7549,-2159.0041 613.7549,-2159.0041 613.7549,-2123.0041 731.7549,-2123.0041 731.7549,-2159.0041"/>
<text text-anchor="middle" x="672.7549" y="-2138.2041" font-family="Courier,monospace" font-size="11.00" fill="#000000">ClearErrorsTask</text>
</g>
<!-- \\Firesphere\\SolrSearch\\Tasks\\ClearErrorsTask&#45;&gt;\\SilverStripe\\Dev\\BuildTask -->
<g id="edge15" class="edge">
<title>\\Firesphere\\SolrSearch\\Tasks\\ClearErrorsTask&#45;&gt;\\SilverStripe\\Dev\\BuildTask</title>
<path fill="none" stroke="#000000" d="M613.6758,-2135.9592C597.8304,-2131.6223 582.3214,-2124.0508 572.2549,-2111.0041 443.016,-1943.5029 652.3541,-362.9064 508.2549,-208.0041 466.0634,-162.6494 394.3052,-158.7349 337.78,-164.5496"/>
<polygon fill="none" stroke="#000000" points="337.3098,-161.0804 327.7728,-165.6953 338.1061,-168.035 337.3098,-161.0804"/>
</g>
<!-- \\Firesphere\\SolrSearch\\Tasks\\SolrIndexTask -->
<g id="node22" class="node">
<title>\\Firesphere\\SolrSearch\\Tasks\\SolrIndexTask</title>
<polygon fill="none" stroke="#000000" points="724.7549,-2321.0041 620.7549,-2321.0041 620.7549,-2285.0041 724.7549,-2285.0041 724.7549,-2321.0041"/>
<text text-anchor="middle" x="672.7549" y="-2300.2041" font-family="Courier,monospace" font-size="11.00" fill="#000000">SolrIndexTask</text>
</g>
<!-- \\Firesphere\\SolrSearch\\Tasks\\SolrIndexTask&#45;&gt;\\SilverStripe\\Dev\\BuildTask -->
<g id="edge16" class="edge">
<title>\\Firesphere\\SolrSearch\\Tasks\\SolrIndexTask&#45;&gt;\\SilverStripe\\Dev\\BuildTask</title>
<path fill="none" stroke="#000000" d="M620.6099,-2301.2831C602.5102,-2297.8844 583.8614,-2290.6649 572.2549,-2276.0041 429.5632,-2095.7613 664.6089,-376.5324 508.2549,-208.0041 466.1242,-162.5929 394.3606,-158.6835 337.8177,-164.5145"/>
<polygon fill="none" stroke="#000000" points="337.343,-161.0459 327.8073,-165.6633 338.1411,-168.0003 337.343,-161.0459"/>
</g>
<!-- \\Firesphere\\SolrSearch\\Tasks\\SolrConfigureTask -->
<g id="node23" class="node">
<title>\\Firesphere\\SolrSearch\\Tasks\\SolrConfigureTask</title>
<polygon fill="none" stroke="#000000" points="738.2549,-2267.0041 607.2549,-2267.0041 607.2549,-2231.0041 738.2549,-2231.0041 738.2549,-2267.0041"/>
<text text-anchor="middle" x="672.7549" y="-2246.2041" font-family="Courier,monospace" font-size="11.00" fill="#000000">SolrConfigureTask</text>
</g>
<!-- \\Firesphere\\SolrSearch\\Tasks\\SolrConfigureTask&#45;&gt;\\SilverStripe\\Dev\\BuildTask -->
<g id="edge17" class="edge">
<title>\\Firesphere\\SolrSearch\\Tasks\\SolrConfigureTask&#45;&gt;\\SilverStripe\\Dev\\BuildTask</title>
<path fill="none" stroke="#000000" d="M607.2521,-2244.0158C593.7548,-2239.8702 581.0064,-2233.0492 572.2549,-2222.0041 433.2128,-2046.5209 660.5982,-372.0729 508.2549,-208.0041 466.1054,-162.6104 394.3434,-158.6994 337.806,-164.5254"/>
<polygon fill="none" stroke="#000000" points="337.3327,-161.0566 327.7966,-165.6732 338.1303,-168.011 337.3327,-161.0566"/>
</g>
<!-- \\Firesphere\\SolrSearch\\Helpers\\DataResolver -->
<g id="node24" class="node">
<title>\\Firesphere\\SolrSearch\\Helpers\\DataResolver</title>
<polygon fill="none" stroke="#000000" points="721.7549,-2079.0041 623.7549,-2079.0041 623.7549,-2043.0041 721.7549,-2043.0041 721.7549,-2079.0041"/>
<text text-anchor="middle" x="672.7549" y="-2058.2041" font-family="Courier,monospace" font-size="11.00" fill="#000000">DataResolver</text>
</g>
<!-- \\Firesphere\\SolrSearch\\Helpers\\FieldResolver -->
<g id="node25" class="node">
<title>\\Firesphere\\SolrSearch\\Helpers\\FieldResolver</title>
<polygon fill="none" stroke="#000000" points="724.7549,-2025.0041 620.7549,-2025.0041 620.7549,-1989.0041 724.7549,-1989.0041 724.7549,-2025.0041"/>
<text text-anchor="middle" x="672.7549" y="-2004.2041" font-family="Courier,monospace" font-size="11.00" fill="#000000">FieldResolver</text>
</g>
<!-- \\Firesphere\\SolrSearch\\Helpers\\SolrLogger -->
<g id="node26" class="node">
<title>\\Firesphere\\SolrSearch\\Helpers\\SolrLogger</title>
<polygon fill="none" stroke="#000000" points="714.7549,-1971.0041 630.7549,-1971.0041 630.7549,-1935.0041 714.7549,-1935.0041 714.7549,-1971.0041"/>
<text text-anchor="middle" x="672.7549" y="-1950.2041" font-family="Courier,monospace" font-size="11.00" fill="#000000">SolrLogger</text>
</g>
<!-- \\Firesphere\\SolrSearch\\Helpers\\Statics -->
<g id="node27" class="node">
<title>\\Firesphere\\SolrSearch\\Helpers\\Statics</title>
<polygon fill="none" stroke="#000000" points="704.7549,-1917.0041 640.7549,-1917.0041 640.7549,-1881.0041 704.7549,-1881.0041 704.7549,-1917.0041"/>
<text text-anchor="middle" x="672.7549" y="-1896.2041" font-family="Courier,monospace" font-size="11.00" fill="#000000">Statics</text>
</g>
<!-- \\Firesphere\\SolrSearch\\Helpers\\Synonyms -->
<g id="node28" class="node">
<title>\\Firesphere\\SolrSearch\\Helpers\\Synonyms</title>
<polygon fill="none" stroke="#000000" points="708.2549,-1863.0041 637.2549,-1863.0041 637.2549,-1827.0041 708.2549,-1827.0041 708.2549,-1863.0041"/>
<text text-anchor="middle" x="672.7549" y="-1842.2041" font-family="Courier,monospace" font-size="11.00" fill="#000000">Synonyms</text>
</g>
<!-- \\Firesphere\\SolrSearch\\Models\\SearchSynonym -->
<g id="node29" class="node">
<title>\\Firesphere\\SolrSearch\\Models\\SearchSynonym</title>
<polygon fill="none" stroke="#000000" points="724.7549,-1783.0041 620.7549,-1783.0041 620.7549,-1747.0041 724.7549,-1747.0041 724.7549,-1783.0041"/>
<text text-anchor="middle" x="672.7549" y="-1762.2041" font-family="Courier,monospace" font-size="11.00" fill="#000000">SearchSynonym</text>
</g>
<!-- \\SilverStripe\\ORM\\DataObject -->
<g id="node60" class="node">
<title>\\SilverStripe\\ORM\\DataObject</title>
<ellipse fill="none" stroke="#000000" cx="254.1275" cy="-127.0041" rx="152.9733" ry="18"/>
<text text-anchor="middle" x="254.1275" y="-123.3041" font-family="Times,serif" font-size="14.00" fill="#c0c0c0">\SilverStripe\ORM\DataObject</text>
</g>
<!-- \\Firesphere\\SolrSearch\\Models\\SearchSynonym&#45;&gt;\\SilverStripe\\ORM\\DataObject -->
<g id="edge18" class="edge">
<title>\\Firesphere\\SolrSearch\\Models\\SearchSynonym&#45;&gt;\\SilverStripe\\ORM\\DataObject</title>
<path fill="none" stroke="#000000" d="M620.6835,-1763.2246C602.5926,-1759.8189 583.9305,-1752.6099 572.2549,-1738.0041 462.2713,-1600.417 628.6642,-282.566 508.2549,-154.0041 466.7117,-109.6481 396.8713,-105.0283 340.9082,-110.321"/>
<polygon fill="none" stroke="#000000" points="340.2025,-106.8764 330.6301,-111.4173 340.945,-113.8369 340.2025,-106.8764"/>
</g>
<!-- \\Firesphere\\SolrSearch\\Models\\DirtyClass -->
<g id="node30" class="node">
<title>\\Firesphere\\SolrSearch\\Models\\DirtyClass</title>
<polygon fill="none" stroke="#000000" points="714.7549,-1729.0041 630.7549,-1729.0041 630.7549,-1693.0041 714.7549,-1693.0041 714.7549,-1729.0041"/>
<text text-anchor="middle" x="672.7549" y="-1708.2041" font-family="Courier,monospace" font-size="11.00" fill="#000000">DirtyClass</text>
</g>
<!-- \\Firesphere\\SolrSearch\\Models\\DirtyClass&#45;&gt;\\SilverStripe\\ORM\\DataObject -->
<g id="edge19" class="edge">
<title>\\Firesphere\\SolrSearch\\Models\\DirtyClass&#45;&gt;\\SilverStripe\\ORM\\DataObject</title>
<path fill="none" stroke="#000000" d="M630.5521,-1710.73C609.6926,-1708.2061 586.0861,-1701.2814 572.2549,-1684.0041 465.92,-1551.1754 624.6545,-278.1076 508.2549,-154.0041 466.7516,-109.7538 397.0819,-105.0718 341.1763,-110.3131"/>
<polygon fill="none" stroke="#000000" points="340.4836,-106.8667 330.9076,-111.3999 341.2204,-113.8278 340.4836,-106.8667"/>
</g>
<!-- \\Firesphere\\SolrSearch\\Models\\SolrLog -->
<g id="node31" class="node">
<title>\\Firesphere\\SolrSearch\\Models\\SolrLog</title>
<polygon fill="none" stroke="#000000" points="704.7549,-1675.0041 640.7549,-1675.0041 640.7549,-1639.0041 704.7549,-1639.0041 704.7549,-1675.0041"/>
<text text-anchor="middle" x="672.7549" y="-1654.2041" font-family="Courier,monospace" font-size="11.00" fill="#000000">SolrLog</text>
</g>
<!-- \\Firesphere\\SolrSearch\\Models\\SolrLog&#45;&gt;\\SilverStripe\\ORM\\DataObject -->
<g id="edge20" class="edge">
<title>\\Firesphere\\SolrSearch\\Models\\SolrLog&#45;&gt;\\SilverStripe\\ORM\\DataObject</title>
<path fill="none" stroke="#000000" d="M640.6539,-1656.633C617.7448,-1654.4953 588.262,-1647.5412 572.2549,-1627.0041 471.5464,-1497.7944 620.4223,-273.4018 508.2549,-154.0041 466.7158,-109.7874 397.0486,-105.1031 341.153,-110.3349"/>
<polygon fill="none" stroke="#000000" points="340.463,-106.8882 330.8862,-111.4199 341.1987,-113.8495 340.463,-106.8882"/>
</g>
<!-- \\SilverStripe\\Security\\PermissionProvider -->
<g id="node61" class="node">
<title>\\SilverStripe\\Security\\PermissionProvider</title>
<ellipse fill="none" stroke="#000000" cx="254.1275" cy="-73.0041" rx="206.0634" ry="18"/>
<text text-anchor="middle" x="254.1275" y="-69.3041" font-family="Times,serif" font-size="14.00" fill="#c0c0c0">\SilverStripe\Security\PermissionProvider</text>
</g>
<!-- \\Firesphere\\SolrSearch\\Models\\SolrLog&#45;&gt;\\SilverStripe\\Security\\PermissionProvider -->
<g id="edge21" class="edge">
<title>\\Firesphere\\SolrSearch\\Models\\SolrLog&#45;&gt;\\SilverStripe\\Security\\PermissionProvider</title>
<path fill="none" stroke="#000000" stroke-dasharray="1,5" d="M640.6447,-1656.6402C617.7309,-1654.5061 588.2462,-1647.5535 572.2549,-1627.0041 467.964,-1492.9863 624.4318,-223.8599 508.2549,-100.0041 468.6071,-57.7357 403.2593,-51.5717 348.7594,-55.6729"/>
<polygon fill="none" stroke="#000000" points="348.3747,-52.1931 338.7179,-56.5517 348.985,-59.1664 348.3747,-52.1931"/>
</g>
<!-- \\Firesphere\\SolrSearch\\Factories\\QueryComponentFactory -->
<g id="node32" class="node">
<title>\\Firesphere\\SolrSearch\\Factories\\QueryComponentFactory</title>
<polygon fill="none" stroke="#000000" points="751.7549,-1595.0041 593.7549,-1595.0041 593.7549,-1559.0041 751.7549,-1559.0041 751.7549,-1595.0041"/>
<text text-anchor="middle" x="672.7549" y="-1574.2041" font-family="Courier,monospace" font-size="11.00" fill="#000000">QueryComponentFactory</text>
</g>
<!-- \\Firesphere\\SolrSearch\\Factories\\DocumentFactory -->
<g id="node33" class="node">
<title>\\Firesphere\\SolrSearch\\Factories\\DocumentFactory</title>
<polygon fill="none" stroke="#000000" points="731.7549,-1541.0041 613.7549,-1541.0041 613.7549,-1505.0041 731.7549,-1505.0041 731.7549,-1541.0041"/>
<text text-anchor="middle" x="672.7549" y="-1520.2041" font-family="Courier,monospace" font-size="11.00" fill="#000000">DocumentFactory</text>
</g>
<!-- \\Firesphere\\SolrSearch\\Interfaces\\SiteStateInterface -->
<g id="node34" class="node">
<title>\\Firesphere\\SolrSearch\\Interfaces\\SiteStateInterface</title>
<polygon fill="none" stroke="#000000" points="323.1275,-3471.0041 185.1275,-3471.0041 185.1275,-3435.0041 323.1275,-3435.0041 323.1275,-3471.0041"/>
<text text-anchor="middle" x="254.1275" y="-3450.2041" font-family="Courier,monospace" font-size="11.00" fill="#000000">SiteStateInterface</text>
</g>
<!-- \\Firesphere\\SolrSearch\\Traits\\DataResolveTrait -->
<g id="node36" class="node">
<title>\\Firesphere\\SolrSearch\\Traits\\DataResolveTrait</title>
<polygon fill="none" stroke="#000000" points="735.2549,-1461.0041 610.2549,-1461.0041 610.2549,-1425.0041 735.2549,-1425.0041 735.2549,-1461.0041"/>
<text text-anchor="middle" x="672.7549" y="-1440.2041" font-family="Courier,monospace" font-size="11.00" fill="#000000">DataResolveTrait</text>
</g>
<!-- \\Firesphere\\SolrSearch\\Traits\\GetSetSchemaServiceTrait -->
<g id="node37" class="node">
<title>\\Firesphere\\SolrSearch\\Traits\\GetSetSchemaServiceTrait</title>
<polygon fill="none" stroke="#000000" points="762.2549,-1407.0041 583.2549,-1407.0041 583.2549,-1371.0041 762.2549,-1371.0041 762.2549,-1407.0041"/>
<text text-anchor="middle" x="672.7549" y="-1386.2041" font-family="Courier,monospace" font-size="11.00" fill="#000000">GetSetSchemaServiceTrait</text>
</g>
<!-- \\Firesphere\\SolrSearch\\Traits\\QueryComponentFacetTrait -->
<g id="node38" class="node">
<title>\\Firesphere\\SolrSearch\\Traits\\QueryComponentFacetTrait</title>
<polygon fill="none" stroke="#000000" points="762.2549,-1353.0041 583.2549,-1353.0041 583.2549,-1317.0041 762.2549,-1317.0041 762.2549,-1353.0041"/>
<text text-anchor="middle" x="672.7549" y="-1332.2041" font-family="Courier,monospace" font-size="11.00" fill="#000000">QueryComponentFacetTrait</text>
</g>
<!-- \\Firesphere\\SolrSearch\\Traits\\QueryComponentFilterTrait -->
<g id="node39" class="node">
<title>\\Firesphere\\SolrSearch\\Traits\\QueryComponentFilterTrait</title>
<polygon fill="none" stroke="#000000" points="765.2549,-1299.0041 580.2549,-1299.0041 580.2549,-1263.0041 765.2549,-1263.0041 765.2549,-1299.0041"/>
<text text-anchor="middle" x="672.7549" y="-1278.2041" font-family="Courier,monospace" font-size="11.00" fill="#000000">QueryComponentFilterTrait</text>
</g>
<!-- \\Firesphere\\SolrSearch\\Traits\\QueryComponentBoostTrait -->
<g id="node40" class="node">
<title>\\Firesphere\\SolrSearch\\Traits\\QueryComponentBoostTrait</title>
<polygon fill="none" stroke="#000000" points="762.2549,-1245.0041 583.2549,-1245.0041 583.2549,-1209.0041 762.2549,-1209.0041 762.2549,-1245.0041"/>
<text text-anchor="middle" x="672.7549" y="-1224.2041" font-family="Courier,monospace" font-size="11.00" fill="#000000">QueryComponentBoostTrait</text>
</g>
<!-- \\Firesphere\\SolrSearch\\Traits\\GetSetSearchResolverTrait -->
<g id="node41" class="node">
<title>\\Firesphere\\SolrSearch\\Traits\\GetSetSearchResolverTrait</title>
<polygon fill="none" stroke="#000000" points="765.2549,-1191.0041 580.2549,-1191.0041 580.2549,-1155.0041 765.2549,-1155.0041 765.2549,-1191.0041"/>
<text text-anchor="middle" x="672.7549" y="-1170.2041" font-family="Courier,monospace" font-size="11.00" fill="#000000">GetSetSearchResolverTrait</text>
</g>
<!-- \\Firesphere\\SolrSearch\\Traits\\SearchResultGetTrait -->
<g id="node42" class="node">
<title>\\Firesphere\\SolrSearch\\Traits\\SearchResultGetTrait</title>
<polygon fill="none" stroke="#000000" points="748.7549,-1137.0041 596.7549,-1137.0041 596.7549,-1101.0041 748.7549,-1101.0041 748.7549,-1137.0041"/>
<text text-anchor="middle" x="672.7549" y="-1116.2041" font-family="Courier,monospace" font-size="11.00" fill="#000000">SearchResultGetTrait</text>
</g>
<!-- \\Firesphere\\SolrSearch\\Traits\\SearchResultSetTrait -->
<g id="node43" class="node">
<title>\\Firesphere\\SolrSearch\\Traits\\SearchResultSetTrait</title>
<polygon fill="none" stroke="#000000" points="748.7549,-1083.0041 596.7549,-1083.0041 596.7549,-1047.0041 748.7549,-1047.0041 748.7549,-1083.0041"/>
<text text-anchor="middle" x="672.7549" y="-1062.2041" font-family="Courier,monospace" font-size="11.00" fill="#000000">SearchResultSetTrait</text>
</g>
<!-- \\Firesphere\\SolrSearch\\Traits\\GetterSetterTrait -->
<g id="node44" class="node">
<title>\\Firesphere\\SolrSearch\\Traits\\GetterSetterTrait</title>
<polygon fill="none" stroke="#000000" points="738.2549,-1029.0041 607.2549,-1029.0041 607.2549,-993.0041 738.2549,-993.0041 738.2549,-1029.0041"/>
<text text-anchor="middle" x="672.7549" y="-1008.2041" font-family="Courier,monospace" font-size="11.00" fill="#000000">GetterSetterTrait</text>
</g>
<!-- \\Firesphere\\SolrSearch\\Traits\\CoreServiceTrait -->
<g id="node45" class="node">
<title>\\Firesphere\\SolrSearch\\Traits\\CoreServiceTrait</title>
<polygon fill="none" stroke="#000000" points="735.2549,-975.0041 610.2549,-975.0041 610.2549,-939.0041 735.2549,-939.0041 735.2549,-975.0041"/>
<text text-anchor="middle" x="672.7549" y="-954.2041" font-family="Courier,monospace" font-size="11.00" fill="#000000">CoreServiceTrait</text>
</g>
<!-- \\Firesphere\\SolrSearch\\Traits\\CoreAdminTrait -->
<g id="node46" class="node">
<title>\\Firesphere\\SolrSearch\\Traits\\CoreAdminTrait</title>
<polygon fill="none" stroke="#000000" points="728.2549,-921.0041 617.2549,-921.0041 617.2549,-885.0041 728.2549,-885.0041 728.2549,-921.0041"/>
<text text-anchor="middle" x="672.7549" y="-900.2041" font-family="Courier,monospace" font-size="11.00" fill="#000000">CoreAdminTrait</text>
</g>
<!-- \\Firesphere\\SolrSearch\\Traits\\DocumentFactoryTrait -->
<g id="node47" class="node">
<title>\\Firesphere\\SolrSearch\\Traits\\DocumentFactoryTrait</title>
<polygon fill="none" stroke="#000000" points="748.7549,-867.0041 596.7549,-867.0041 596.7549,-831.0041 748.7549,-831.0041 748.7549,-867.0041"/>
<text text-anchor="middle" x="672.7549" y="-846.2041" font-family="Courier,monospace" font-size="11.00" fill="#000000">DocumentFactoryTrait</text>
</g>
<!-- \\Firesphere\\SolrSearch\\Traits\\BaseIndexTrait -->
<g id="node48" class="node">
<title>\\Firesphere\\SolrSearch\\Traits\\BaseIndexTrait</title>
<polygon fill="none" stroke="#000000" points="728.2549,-813.0041 617.2549,-813.0041 617.2549,-777.0041 728.2549,-777.0041 728.2549,-813.0041"/>
<text text-anchor="middle" x="672.7549" y="-792.2041" font-family="Courier,monospace" font-size="11.00" fill="#000000">BaseIndexTrait</text>
</g>
<!-- \\Firesphere\\SolrSearch\\Traits\\BaseQueryTrait -->
<g id="node49" class="node">
<title>\\Firesphere\\SolrSearch\\Traits\\BaseQueryTrait</title>
<polygon fill="none" stroke="#000000" points="728.2549,-759.0041 617.2549,-759.0041 617.2549,-723.0041 728.2549,-723.0041 728.2549,-759.0041"/>
<text text-anchor="middle" x="672.7549" y="-738.2041" font-family="Courier,monospace" font-size="11.00" fill="#000000">BaseQueryTrait</text>
</g>
<!-- \\Firesphere\\SolrSearch\\Traits\\LoggerTrait -->
<g id="node50" class="node">
<title>\\Firesphere\\SolrSearch\\Traits\\LoggerTrait</title>
<polygon fill="none" stroke="#000000" points="718.2549,-705.0041 627.2549,-705.0041 627.2549,-669.0041 718.2549,-669.0041 718.2549,-705.0041"/>
<text text-anchor="middle" x="672.7549" y="-684.2041" font-family="Courier,monospace" font-size="11.00" fill="#000000">LoggerTrait</text>
</g>
<!-- \\Firesphere\\SolrSearch\\Fluent\\FluentExtension -->
<g id="node51" class="node">
<title>\\Firesphere\\SolrSearch\\Fluent\\FluentExtension</title>
<polygon fill="none" stroke="#000000" points="731.7549,-625.0041 613.7549,-625.0041 613.7549,-589.0041 731.7549,-589.0041 731.7549,-625.0041"/>
<text text-anchor="middle" x="672.7549" y="-604.2041" font-family="Courier,monospace" font-size="11.00" fill="#000000">FluentExtension</text>
</g>
<!-- \\Firesphere\\SolrSearch\\Fluent\\FluentExtension&#45;&gt;\\SilverStripe\\Core\\Extension -->
<g id="edge22" class="edge">
<title>\\Firesphere\\SolrSearch\\Fluent\\FluentExtension&#45;&gt;\\SilverStripe\\Core\\Extension</title>
<path fill="none" stroke="#000000" d="M613.5416,-598.5817C598.7099,-594.1363 583.764,-587.3525 572.2549,-577.0041 517.4442,-527.7205 567.3668,-468.0367 508.2549,-424.0041 469.3881,-395.052 417.4206,-385.8916 370.6092,-384.9041"/>
<polygon fill="none" stroke="#000000" points="370.4258,-381.4024 360.3953,-384.8141 370.364,-388.4022 370.4258,-381.4024"/>
</g>
<!-- \\Firesphere\\SolrSearch\\Subsites\\SubsitesExtension -->
<g id="node52" class="node">
<title>\\Firesphere\\SolrSearch\\Subsites\\SubsitesExtension</title>
<polygon fill="none" stroke="#000000" points="738.2549,-545.0041 607.2549,-545.0041 607.2549,-509.0041 738.2549,-509.0041 738.2549,-545.0041"/>
<text text-anchor="middle" x="672.7549" y="-524.2041" font-family="Courier,monospace" font-size="11.00" fill="#000000">SubsitesExtension</text>
</g>
<!-- \\Firesphere\\SolrSearch\\Subsites\\SubsitesExtension&#45;&gt;\\SilverStripe\\ORM\\DataExtension -->
<g id="edge23" class="edge">
<title>\\Firesphere\\SolrSearch\\Subsites\\SubsitesExtension&#45;&gt;\\SilverStripe\\ORM\\DataExtension</title>
<path fill="none" stroke="#000000" d="M669.255,-508.959C653.3631,-428.9656 585.4274,-107.5927 508.2549,-46.0041 471.5859,-16.7398 421.8522,-7.0444 376.1027,-5.7447"/>
<polygon fill="none" stroke="#000000" points="376.1562,-2.2452 366.1032,-5.5898 376.0477,-9.2443 376.1562,-2.2452"/>
</g>
</g>
</svg>
