<?xml version="1.0" encoding="UTF-8" standalone="no"?>
<!DOCTYPE svg PUBLIC "-//W3C//DTD SVG 1.1//EN"
 "http://www.w3.org/Graphics/SVG/1.1/DTD/svg11.dtd">
<!-- Generated by graphviz version 2.40.1 (20161225.0304)
 -->
<!-- Title: G Pages: 1 -->
<svg width="1064pt" height="3722pt"
 viewBox="0.00 0.00 1064.25 3721.57" xmlns="http://www.w3.org/2000/svg" xmlns:xlink="http://www.w3.org/1999/xlink">
<g id="graph0" class="graph" transform="scale(1 1) rotate(0) translate(4 3717.569)">
<title>G</title>
<polygon fill="#ffffff" stroke="transparent" points="-4,4 -4,-3717.569 1060.2549,-3717.569 1060.2549,4 -4,4"/>
<g id="clust1" class="cluster">
<title>cluster_Global</title>
<path fill="none" stroke="#c0c0c0" d="M165.1275,-152.8995C165.1275,-152.8995 1036.2549,-152.8995 1036.2549,-152.8995 1042.2549,-152.8995 1048.2549,-158.8995 1048.2549,-164.8995 1048.2549,-164.8995 1048.2549,-3386.8995 1048.2549,-3386.8995 1048.2549,-3392.8995 1042.2549,-3398.8995 1036.2549,-3398.8995 1036.2549,-3398.8995 165.1275,-3398.8995 165.1275,-3398.8995 159.1275,-3398.8995 153.1275,-3392.8995 153.1275,-3386.8995 153.1275,-3386.8995 153.1275,-164.8995 153.1275,-164.8995 153.1275,-158.8995 159.1275,-152.8995 165.1275,-152.8995"/>
<text text-anchor="middle" x="600.6912" y="-3386.0995" font-family="Times,serif" font-size="11.00" fill="#c0c0c0">Global</text>
</g>
<g id="clust2" class="cluster">
<title>cluster_\Firesphere</title>
<path fill="none" stroke="#c0c0c0" d="M173.1275,-160.8995C173.1275,-160.8995 1028.2549,-160.8995 1028.2549,-160.8995 1034.2549,-160.8995 1040.2549,-166.8995 1040.2549,-172.8995 1040.2549,-172.8995 1040.2549,-3036.8995 1040.2549,-3036.8995 1040.2549,-3042.8995 1034.2549,-3048.8995 1028.2549,-3048.8995 1028.2549,-3048.8995 173.1275,-3048.8995 173.1275,-3048.8995 167.1275,-3048.8995 161.1275,-3042.8995 161.1275,-3036.8995 161.1275,-3036.8995 161.1275,-172.8995 161.1275,-172.8995 161.1275,-166.8995 167.1275,-160.8995 173.1275,-160.8995"/>
<text text-anchor="middle" x="600.6912" y="-3036.0995" font-family="Times,serif" font-size="11.00" fill="#c0c0c0">Firesphere</text>
</g>
<g id="clust3" class="cluster">
<title>cluster_\Firesphere\SolrCompatibility</title>
<path fill="none" stroke="#c0c0c0" d="M833.2549,-168.8995C833.2549,-168.8995 1020.2549,-168.8995 1020.2549,-168.8995 1026.2549,-168.8995 1032.2549,-174.8995 1032.2549,-180.8995 1032.2549,-180.8995 1032.2549,-318.8995 1032.2549,-318.8995 1032.2549,-324.8995 1026.2549,-330.8995 1020.2549,-330.8995 1020.2549,-330.8995 833.2549,-330.8995 833.2549,-330.8995 827.2549,-330.8995 821.2549,-324.8995 821.2549,-318.8995 821.2549,-318.8995 821.2549,-180.8995 821.2549,-180.8995 821.2549,-174.8995 827.2549,-168.8995 833.2549,-168.8995"/>
<text text-anchor="middle" x="926.7549" y="-318.0995" font-family="Times,serif" font-size="11.00" fill="#c0c0c0">SolrCompatibility</text>
</g>
<g id="clust4" class="cluster">
<title>cluster_\Firesphere\SolrCompatibility\Extensions</title>
<path fill="none" stroke="#c0c0c0" d="M841.2549,-176.8995C841.2549,-176.8995 1012.2549,-176.8995 1012.2549,-176.8995 1018.2549,-176.8995 1024.2549,-182.8995 1024.2549,-188.8995 1024.2549,-188.8995 1024.2549,-290.8995 1024.2549,-290.8995 1024.2549,-296.8995 1018.2549,-302.8995 1012.2549,-302.8995 1012.2549,-302.8995 841.2549,-302.8995 841.2549,-302.8995 835.2549,-302.8995 829.2549,-296.8995 829.2549,-290.8995 829.2549,-290.8995 829.2549,-188.8995 829.2549,-188.8995 829.2549,-182.8995 835.2549,-176.8995 841.2549,-176.8995"/>
<text text-anchor="middle" x="926.7549" y="-290.0995" font-family="Times,serif" font-size="11.00" fill="#c0c0c0">Extensions</text>
</g>
<g id="clust5" class="cluster">
<title>cluster_\Firesphere\SolrSearch</title>
<path fill="none" stroke="#c0c0c0" d="M181.1275,-172.8995C181.1275,-172.8995 769.2549,-172.8995 769.2549,-172.8995 775.2549,-172.8995 781.2549,-178.8995 781.2549,-184.8995 781.2549,-184.8995 781.2549,-3008.8995 781.2549,-3008.8995 781.2549,-3014.8995 775.2549,-3020.8995 769.2549,-3020.8995 769.2549,-3020.8995 181.1275,-3020.8995 181.1275,-3020.8995 175.1275,-3020.8995 169.1275,-3014.8995 169.1275,-3008.8995 169.1275,-3008.8995 169.1275,-184.8995 169.1275,-184.8995 169.1275,-178.8995 175.1275,-172.8995 181.1275,-172.8995"/>
<text text-anchor="middle" x="475.1912" y="-3008.0995" font-family="Times,serif" font-size="11.00" fill="#c0c0c0">SolrSearch</text>
</g>
<g id="clust6" class="cluster">
<title>cluster_\Firesphere\SolrSearch\Tasks</title>
<path fill="none" stroke="#c0c0c0" d="M597.7549,-2758.8995C597.7549,-2758.8995 747.7549,-2758.8995 747.7549,-2758.8995 753.7549,-2758.8995 759.7549,-2764.8995 759.7549,-2770.8995 759.7549,-2770.8995 759.7549,-2980.8995 759.7549,-2980.8995 759.7549,-2986.8995 753.7549,-2992.8995 747.7549,-2992.8995 747.7549,-2992.8995 597.7549,-2992.8995 597.7549,-2992.8995 591.7549,-2992.8995 585.7549,-2986.8995 585.7549,-2980.8995 585.7549,-2980.8995 585.7549,-2770.8995 585.7549,-2770.8995 585.7549,-2764.8995 591.7549,-2758.8995 597.7549,-2758.8995"/>
<text text-anchor="middle" x="672.7549" y="-2980.0995" font-family="Times,serif" font-size="11.00" fill="#c0c0c0">Tasks</text>
</g>
<g id="clust7" class="cluster">
<title>cluster_\Firesphere\SolrSearch\Extensions</title>
<path fill="none" stroke="#c0c0c0" d="M604.2549,-2624.8995C604.2549,-2624.8995 741.2549,-2624.8995 741.2549,-2624.8995 747.2549,-2624.8995 753.2549,-2630.8995 753.2549,-2636.8995 753.2549,-2636.8995 753.2549,-2738.8995 753.2549,-2738.8995 753.2549,-2744.8995 747.2549,-2750.8995 741.2549,-2750.8995 741.2549,-2750.8995 604.2549,-2750.8995 604.2549,-2750.8995 598.2549,-2750.8995 592.2549,-2744.8995 592.2549,-2738.8995 592.2549,-2738.8995 592.2549,-2636.8995 592.2549,-2636.8995 592.2549,-2630.8995 598.2549,-2624.8995 604.2549,-2624.8995"/>
<text text-anchor="middle" x="672.7549" y="-2738.0995" font-family="Times,serif" font-size="11.00" fill="#c0c0c0">Extensions</text>
</g>
<g id="clust8" class="cluster">
<title>cluster_\Firesphere\SolrSearch\Helpers</title>
<path fill="none" stroke="#c0c0c0" d="M624.7549,-2328.8995C624.7549,-2328.8995 720.7549,-2328.8995 720.7549,-2328.8995 726.7549,-2328.8995 732.7549,-2334.8995 732.7549,-2340.8995 732.7549,-2340.8995 732.7549,-2604.8995 732.7549,-2604.8995 732.7549,-2610.8995 726.7549,-2616.8995 720.7549,-2616.8995 720.7549,-2616.8995 624.7549,-2616.8995 624.7549,-2616.8995 618.7549,-2616.8995 612.7549,-2610.8995 612.7549,-2604.8995 612.7549,-2604.8995 612.7549,-2340.8995 612.7549,-2340.8995 612.7549,-2334.8995 618.7549,-2328.8995 624.7549,-2328.8995"/>
<text text-anchor="middle" x="672.7549" y="-2604.0995" font-family="Times,serif" font-size="11.00" fill="#c0c0c0">Helpers</text>
</g>
<g id="clust9" class="cluster">
<title>cluster_\Firesphere\SolrSearch\Queries</title>
<path fill="none" stroke="#c0c0c0" d="M638.2549,-2248.8995C638.2549,-2248.8995 707.2549,-2248.8995 707.2549,-2248.8995 713.2549,-2248.8995 719.2549,-2254.8995 719.2549,-2260.8995 719.2549,-2260.8995 719.2549,-2308.8995 719.2549,-2308.8995 719.2549,-2314.8995 713.2549,-2320.8995 707.2549,-2320.8995 707.2549,-2320.8995 638.2549,-2320.8995 638.2549,-2320.8995 632.2549,-2320.8995 626.2549,-2314.8995 626.2549,-2308.8995 626.2549,-2308.8995 626.2549,-2260.8995 626.2549,-2260.8995 626.2549,-2254.8995 632.2549,-2248.8995 638.2549,-2248.8995"/>
<text text-anchor="middle" x="672.7549" y="-2308.0995" font-family="Times,serif" font-size="11.00" fill="#c0c0c0">Queries</text>
</g>
<g id="clust10" class="cluster">
<title>cluster_\Firesphere\SolrSearch\Admins</title>
<path fill="none" stroke="#c0c0c0" d="M631.2549,-2168.8995C631.2549,-2168.8995 714.2549,-2168.8995 714.2549,-2168.8995 720.2549,-2168.8995 726.2549,-2174.8995 726.2549,-2180.8995 726.2549,-2180.8995 726.2549,-2228.8995 726.2549,-2228.8995 726.2549,-2234.8995 720.2549,-2240.8995 714.2549,-2240.8995 714.2549,-2240.8995 631.2549,-2240.8995 631.2549,-2240.8995 625.2549,-2240.8995 619.2549,-2234.8995 619.2549,-2228.8995 619.2549,-2228.8995 619.2549,-2180.8995 619.2549,-2180.8995 619.2549,-2174.8995 625.2549,-2168.8995 631.2549,-2168.8995"/>
<text text-anchor="middle" x="672.7549" y="-2228.0995" font-family="Times,serif" font-size="11.00" fill="#c0c0c0">Admins</text>
</g>
<g id="clust11" class="cluster">
<title>cluster_\Firesphere\SolrSearch\Factories</title>
<path fill="none" stroke="#c0c0c0" d="M597.7549,-1980.8995C597.7549,-1980.8995 747.7549,-1980.8995 747.7549,-1980.8995 753.7549,-1980.8995 759.7549,-1986.8995 759.7549,-1992.8995 759.7549,-1992.8995 759.7549,-2148.8995 759.7549,-2148.8995 759.7549,-2154.8995 753.7549,-2160.8995 747.7549,-2160.8995 747.7549,-2160.8995 597.7549,-2160.8995 597.7549,-2160.8995 591.7549,-2160.8995 585.7549,-2154.8995 585.7549,-2148.8995 585.7549,-2148.8995 585.7549,-1992.8995 585.7549,-1992.8995 585.7549,-1986.8995 591.7549,-1980.8995 597.7549,-1980.8995"/>
<text text-anchor="middle" x="672.7549" y="-2148.0995" font-family="Times,serif" font-size="11.00" fill="#c0c0c0">Factories</text>
</g>
<g id="clust12" class="cluster">
<title>cluster_\Firesphere\SolrSearch\Results</title>
<path fill="none" stroke="#c0c0c0" d="M627.7549,-1900.8995C627.7549,-1900.8995 717.7549,-1900.8995 717.7549,-1900.8995 723.7549,-1900.8995 729.7549,-1906.8995 729.7549,-1912.8995 729.7549,-1912.8995 729.7549,-1960.8995 729.7549,-1960.8995 729.7549,-1966.8995 723.7549,-1972.8995 717.7549,-1972.8995 717.7549,-1972.8995 627.7549,-1972.8995 627.7549,-1972.8995 621.7549,-1972.8995 615.7549,-1966.8995 615.7549,-1960.8995 615.7549,-1960.8995 615.7549,-1912.8995 615.7549,-1912.8995 615.7549,-1906.8995 621.7549,-1900.8995 627.7549,-1900.8995"/>
<text text-anchor="middle" x="672.7549" y="-1960.0995" font-family="Times,serif" font-size="11.00" fill="#c0c0c0">Results</text>
</g>
<g id="clust13" class="cluster">
<title>cluster_\Firesphere\SolrSearch\Forms</title>
<path fill="none" stroke="#c0c0c0" d="M634.7549,-1820.8995C634.7549,-1820.8995 710.7549,-1820.8995 710.7549,-1820.8995 716.7549,-1820.8995 722.7549,-1826.8995 722.7549,-1832.8995 722.7549,-1832.8995 722.7549,-1880.8995 722.7549,-1880.8995 722.7549,-1886.8995 716.7549,-1892.8995 710.7549,-1892.8995 710.7549,-1892.8995 634.7549,-1892.8995 634.7549,-1892.8995 628.7549,-1892.8995 622.7549,-1886.8995 622.7549,-1880.8995 622.7549,-1880.8995 622.7549,-1832.8995 622.7549,-1832.8995 622.7549,-1826.8995 628.7549,-1820.8995 634.7549,-1820.8995"/>
<text text-anchor="middle" x="672.7549" y="-1880.0995" font-family="Times,serif" font-size="11.00" fill="#c0c0c0">Forms</text>
</g>
<g id="clust14" class="cluster">
<title>cluster_\Firesphere\SolrSearch\Jobs</title>
<path fill="none" stroke="#c0c0c0" d="M600.7549,-1632.8995C600.7549,-1632.8995 744.7549,-1632.8995 744.7549,-1632.8995 750.7549,-1632.8995 756.7549,-1638.8995 756.7549,-1644.8995 756.7549,-1644.8995 756.7549,-1800.8995 756.7549,-1800.8995 756.7549,-1806.8995 750.7549,-1812.8995 744.7549,-1812.8995 744.7549,-1812.8995 600.7549,-1812.8995 600.7549,-1812.8995 594.7549,-1812.8995 588.7549,-1806.8995 588.7549,-1800.8995 588.7549,-1800.8995 588.7549,-1644.8995 588.7549,-1644.8995 588.7549,-1638.8995 594.7549,-1632.8995 600.7549,-1632.8995"/>
<text text-anchor="middle" x="672.7549" y="-1800.0995" font-family="Times,serif" font-size="11.00" fill="#c0c0c0">Jobs</text>
</g>
<g id="clust15" class="cluster">
<title>cluster_\Firesphere\SolrSearch\Indexes</title>
<path fill="none" stroke="#c0c0c0" d="M634.7549,-1552.8995C634.7549,-1552.8995 710.7549,-1552.8995 710.7549,-1552.8995 716.7549,-1552.8995 722.7549,-1558.8995 722.7549,-1564.8995 722.7549,-1564.8995 722.7549,-1612.8995 722.7549,-1612.8995 722.7549,-1618.8995 716.7549,-1624.8995 710.7549,-1624.8995 710.7549,-1624.8995 634.7549,-1624.8995 634.7549,-1624.8995 628.7549,-1624.8995 622.7549,-1618.8995 622.7549,-1612.8995 622.7549,-1612.8995 622.7549,-1564.8995 622.7549,-1564.8995 622.7549,-1558.8995 628.7549,-1552.8995 634.7549,-1552.8995"/>
<text text-anchor="middle" x="672.7549" y="-1612.0995" font-family="Times,serif" font-size="11.00" fill="#c0c0c0">Indexes</text>
</g>
<g id="clust16" class="cluster">
<title>cluster_\Firesphere\SolrSearch\Interfaces</title>
<path fill="none" stroke="#c0c0c0" d="M189.1275,-1364.8995C189.1275,-1364.8995 319.1275,-1364.8995 319.1275,-1364.8995 325.1275,-1364.8995 331.1275,-1370.8995 331.1275,-1376.8995 331.1275,-1376.8995 331.1275,-1478.8995 331.1275,-1478.8995 331.1275,-1484.8995 325.1275,-1490.8995 319.1275,-1490.8995 319.1275,-1490.8995 189.1275,-1490.8995 189.1275,-1490.8995 183.1275,-1490.8995 177.1275,-1484.8995 177.1275,-1478.8995 177.1275,-1478.8995 177.1275,-1376.8995 177.1275,-1376.8995 177.1275,-1370.8995 183.1275,-1364.8995 189.1275,-1364.8995"/>
<text text-anchor="middle" x="254.1275" y="-1478.0995" font-family="Times,serif" font-size="11.00" fill="#c0c0c0">Interfaces</text>
</g>
<g id="clust17" class="cluster">
<title>cluster_\Firesphere\SolrSearch\Stores</title>
<path fill="none" stroke="#c0c0c0" d="M617.7549,-1418.8995C617.7549,-1418.8995 727.7549,-1418.8995 727.7549,-1418.8995 733.7549,-1418.8995 739.7549,-1424.8995 739.7549,-1430.8995 739.7549,-1430.8995 739.7549,-1532.8995 739.7549,-1532.8995 739.7549,-1538.8995 733.7549,-1544.8995 727.7549,-1544.8995 727.7549,-1544.8995 617.7549,-1544.8995 617.7549,-1544.8995 611.7549,-1544.8995 605.7549,-1538.8995 605.7549,-1532.8995 605.7549,-1532.8995 605.7549,-1430.8995 605.7549,-1430.8995 605.7549,-1424.8995 611.7549,-1418.8995 617.7549,-1418.8995"/>
<text text-anchor="middle" x="672.7549" y="-1532.0995" font-family="Times,serif" font-size="11.00" fill="#c0c0c0">Stores</text>
</g>
<g id="clust18" class="cluster">
<title>cluster_\Firesphere\SolrSearch\Services</title>
<path fill="none" stroke="#c0c0c0" d="M617.7549,-1338.8995C617.7549,-1338.8995 727.7549,-1338.8995 727.7549,-1338.8995 733.7549,-1338.8995 739.7549,-1344.8995 739.7549,-1350.8995 739.7549,-1350.8995 739.7549,-1398.8995 739.7549,-1398.8995 739.7549,-1404.8995 733.7549,-1410.8995 727.7549,-1410.8995 727.7549,-1410.8995 617.7549,-1410.8995 617.7549,-1410.8995 611.7549,-1410.8995 605.7549,-1404.8995 605.7549,-1398.8995 605.7549,-1398.8995 605.7549,-1350.8995 605.7549,-1350.8995 605.7549,-1344.8995 611.7549,-1338.8995 617.7549,-1338.8995"/>
<text text-anchor="middle" x="672.7549" y="-1398.0995" font-family="Times,serif" font-size="11.00" fill="#c0c0c0">Services</text>
</g>
<g id="clust19" class="cluster">
<title>cluster_\Firesphere\SolrSearch\Models</title>
<path fill="none" stroke="#c0c0c0" d="M624.7549,-1150.8995C624.7549,-1150.8995 720.7549,-1150.8995 720.7549,-1150.8995 726.7549,-1150.8995 732.7549,-1156.8995 732.7549,-1162.8995 732.7549,-1162.8995 732.7549,-1318.8995 732.7549,-1318.8995 732.7549,-1324.8995 726.7549,-1330.8995 720.7549,-1330.8995 720.7549,-1330.8995 624.7549,-1330.8995 624.7549,-1330.8995 618.7549,-1330.8995 612.7549,-1324.8995 612.7549,-1318.8995 612.7549,-1318.8995 612.7549,-1162.8995 612.7549,-1162.8995 612.7549,-1156.8995 618.7549,-1150.8995 624.7549,-1150.8995"/>
<text text-anchor="middle" x="672.7549" y="-1318.0995" font-family="Times,serif" font-size="11.00" fill="#c0c0c0">Models</text>
</g>
<g id="clust20" class="cluster">
<title>cluster_\Firesphere\SolrSearch\Traits</title>
<path fill="none" stroke="#c0c0c0" d="M584.2549,-260.8995C584.2549,-260.8995 761.2549,-260.8995 761.2549,-260.8995 767.2549,-260.8995 773.2549,-266.8995 773.2549,-272.8995 773.2549,-272.8995 773.2549,-1130.8995 773.2549,-1130.8995 773.2549,-1136.8995 767.2549,-1142.8995 761.2549,-1142.8995 761.2549,-1142.8995 584.2549,-1142.8995 584.2549,-1142.8995 578.2549,-1142.8995 572.2549,-1136.8995 572.2549,-1130.8995 572.2549,-1130.8995 572.2549,-272.8995 572.2549,-272.8995 572.2549,-266.8995 578.2549,-260.8995 584.2549,-260.8995"/>
<text text-anchor="middle" x="672.7549" y="-1130.0995" font-family="Times,serif" font-size="11.00" fill="#c0c0c0">Traits</text>
</g>
<g id="clust21" class="cluster">
<title>cluster_\Firesphere\SolrSearch\States</title>
<path fill="none" stroke="#c0c0c0" d="M634.7549,-180.8995C634.7549,-180.8995 710.7549,-180.8995 710.7549,-180.8995 716.7549,-180.8995 722.7549,-186.8995 722.7549,-192.8995 722.7549,-192.8995 722.7549,-240.8995 722.7549,-240.8995 722.7549,-246.8995 716.7549,-252.8995 710.7549,-252.8995 710.7549,-252.8995 634.7549,-252.8995 634.7549,-252.8995 628.7549,-252.8995 622.7549,-246.8995 622.7549,-240.8995 622.7549,-240.8995 622.7549,-192.8995 622.7549,-192.8995 622.7549,-186.8995 628.7549,-180.8995 634.7549,-180.8995"/>
<text text-anchor="middle" x="672.7549" y="-240.0995" font-family="Times,serif" font-size="11.00" fill="#c0c0c0">States</text>
</g>
<g id="clust22" class="cluster">
<title>cluster_\Firesphere\SolrFluent</title>
<path fill="none" stroke="#c0c0c0" d="M836.7549,-616.8995C836.7549,-616.8995 1016.7549,-616.8995 1016.7549,-616.8995 1022.7549,-616.8995 1028.7549,-622.8995 1028.7549,-628.8995 1028.7549,-628.8995 1028.7549,-900.8995 1028.7549,-900.8995 1028.7549,-906.8995 1022.7549,-912.8995 1016.7549,-912.8995 1016.7549,-912.8995 836.7549,-912.8995 836.7549,-912.8995 830.7549,-912.8995 824.7549,-906.8995 824.7549,-900.8995 824.7549,-900.8995 824.7549,-628.8995 824.7549,-628.8995 824.7549,-622.8995 830.7549,-616.8995 836.7549,-616.8995"/>
<text text-anchor="middle" x="926.7549" y="-900.0995" font-family="Times,serif" font-size="11.00" fill="#c0c0c0">SolrFluent</text>
</g>
<g id="clust23" class="cluster">
<title>cluster_\Firesphere\SolrFluent\Extensions</title>
<path fill="none" stroke="#c0c0c0" d="M844.7549,-624.8995C844.7549,-624.8995 1008.7549,-624.8995 1008.7549,-624.8995 1014.7549,-624.8995 1020.7549,-630.8995 1020.7549,-636.8995 1020.7549,-636.8995 1020.7549,-792.8995 1020.7549,-792.8995 1020.7549,-798.8995 1014.7549,-804.8995 1008.7549,-804.8995 1008.7549,-804.8995 844.7549,-804.8995 844.7549,-804.8995 838.7549,-804.8995 832.7549,-798.8995 832.7549,-792.8995 832.7549,-792.8995 832.7549,-636.8995 832.7549,-636.8995 832.7549,-630.8995 838.7549,-624.8995 844.7549,-624.8995"/>
<text text-anchor="middle" x="926.7549" y="-792.0995" font-family="Times,serif" font-size="11.00" fill="#c0c0c0">Extensions</text>
</g>
<g id="clust24" class="cluster">
<title>cluster_\Firesphere\SolrFluent\States</title>
<path fill="none" stroke="#c0c0c0" d="M871.7549,-812.8995C871.7549,-812.8995 981.7549,-812.8995 981.7549,-812.8995 987.7549,-812.8995 993.7549,-818.8995 993.7549,-824.8995 993.7549,-824.8995 993.7549,-872.8995 993.7549,-872.8995 993.7549,-878.8995 987.7549,-884.8995 981.7549,-884.8995 981.7549,-884.8995 871.7549,-884.8995 871.7549,-884.8995 865.7549,-884.8995 859.7549,-878.8995 859.7549,-872.8995 859.7549,-872.8995 859.7549,-824.8995 859.7549,-824.8995 859.7549,-818.8995 865.7549,-812.8995 871.7549,-812.8995"/>
<text text-anchor="middle" x="926.7549" y="-872.0995" font-family="Times,serif" font-size="11.00" fill="#c0c0c0">States</text>
</g>
<g id="clust25" class="cluster">
<title>cluster_\Firesphere\SolrSubsites</title>
<path fill="none" stroke="#c0c0c0" d="M857.2549,-920.8995C857.2549,-920.8995 996.2549,-920.8995 996.2549,-920.8995 1002.2549,-920.8995 1008.2549,-926.8995 1008.2549,-932.8995 1008.2549,-932.8995 1008.2549,-1096.8995 1008.2549,-1096.8995 1008.2549,-1102.8995 1002.2549,-1108.8995 996.2549,-1108.8995 996.2549,-1108.8995 857.2549,-1108.8995 857.2549,-1108.8995 851.2549,-1108.8995 845.2549,-1102.8995 845.2549,-1096.8995 845.2549,-1096.8995 845.2549,-932.8995 845.2549,-932.8995 845.2549,-926.8995 851.2549,-920.8995 857.2549,-920.8995"/>
<text text-anchor="middle" x="926.7549" y="-1096.0995" font-family="Times,serif" font-size="11.00" fill="#c0c0c0">SolrSubsites</text>
</g>
<g id="clust26" class="cluster">
<title>cluster_\Firesphere\SolrSubsites\Extensions</title>
<path fill="none" stroke="#c0c0c0" d="M865.2549,-928.8995C865.2549,-928.8995 988.2549,-928.8995 988.2549,-928.8995 994.2549,-928.8995 1000.2549,-934.8995 1000.2549,-940.8995 1000.2549,-940.8995 1000.2549,-988.8995 1000.2549,-988.8995 1000.2549,-994.8995 994.2549,-1000.8995 988.2549,-1000.8995 988.2549,-1000.8995 865.2549,-1000.8995 865.2549,-1000.8995 859.2549,-1000.8995 853.2549,-994.8995 853.2549,-988.8995 853.2549,-988.8995 853.2549,-940.8995 853.2549,-940.8995 853.2549,-934.8995 859.2549,-928.8995 865.2549,-928.8995"/>
<text text-anchor="middle" x="926.7549" y="-988.0995" font-family="Times,serif" font-size="11.00" fill="#c0c0c0">Extensions</text>
</g>
<g id="clust27" class="cluster">
<title>cluster_\Firesphere\SolrSubsites\States</title>
<path fill="none" stroke="#c0c0c0" d="M881.7549,-1008.8995C881.7549,-1008.8995 971.7549,-1008.8995 971.7549,-1008.8995 977.7549,-1008.8995 983.7549,-1014.8995 983.7549,-1020.8995 983.7549,-1020.8995 983.7549,-1068.8995 983.7549,-1068.8995 983.7549,-1074.8995 977.7549,-1080.8995 971.7549,-1080.8995 971.7549,-1080.8995 881.7549,-1080.8995 881.7549,-1080.8995 875.7549,-1080.8995 869.7549,-1074.8995 869.7549,-1068.8995 869.7549,-1068.8995 869.7549,-1020.8995 869.7549,-1020.8995 869.7549,-1014.8995 875.7549,-1008.8995 881.7549,-1008.8995"/>
<text text-anchor="middle" x="926.7549" y="-1068.0995" font-family="Times,serif" font-size="11.00" fill="#c0c0c0">States</text>
</g>
<g id="clust28" class="cluster">
<title>cluster_\Firesphere\SolrPermissions</title>
<path fill="none" stroke="#c0c0c0" d="M833.2549,-338.8995C833.2549,-338.8995 1020.2549,-338.8995 1020.2549,-338.8995 1026.2549,-338.8995 1032.2549,-344.8995 1032.2549,-350.8995 1032.2549,-350.8995 1032.2549,-596.8995 1032.2549,-596.8995 1032.2549,-602.8995 1026.2549,-608.8995 1020.2549,-608.8995 1020.2549,-608.8995 833.2549,-608.8995 833.2549,-608.8995 827.2549,-608.8995 821.2549,-602.8995 821.2549,-596.8995 821.2549,-596.8995 821.2549,-350.8995 821.2549,-350.8995 821.2549,-344.8995 827.2549,-338.8995 833.2549,-338.8995"/>
<text text-anchor="middle" x="926.7549" y="-596.0995" font-family="Times,serif" font-size="11.00" fill="#c0c0c0">SolrPermissions</text>
</g>
<g id="clust29" class="cluster">
<title>cluster_\Firesphere\SolrPermissions\Extensions</title>
<path fill="none" stroke="#c0c0c0" d="M841.2549,-346.8995C841.2549,-346.8995 1012.2549,-346.8995 1012.2549,-346.8995 1018.2549,-346.8995 1024.2549,-352.8995 1024.2549,-358.8995 1024.2549,-358.8995 1024.2549,-568.8995 1024.2549,-568.8995 1024.2549,-574.8995 1018.2549,-580.8995 1012.2549,-580.8995 1012.2549,-580.8995 841.2549,-580.8995 841.2549,-580.8995 835.2549,-580.8995 829.2549,-574.8995 829.2549,-568.8995 829.2549,-568.8995 829.2549,-358.8995 829.2549,-358.8995 829.2549,-352.8995 835.2549,-346.8995 841.2549,-346.8995"/>
<text text-anchor="middle" x="926.7549" y="-568.0995" font-family="Times,serif" font-size="11.00" fill="#c0c0c0">Extensions</text>
</g>
<g id="clust30" class="cluster">
<title>cluster_\SilverStripe</title>
<path fill="none" stroke="#c0c0c0" d="M861.2549,-3056.8995C861.2549,-3056.8995 992.2549,-3056.8995 992.2549,-3056.8995 998.2549,-3056.8995 1004.2549,-3062.8995 1004.2549,-3068.8995 1004.2549,-3068.8995 1004.2549,-3358.8995 1004.2549,-3358.8995 1004.2549,-3364.8995 998.2549,-3370.8995 992.2549,-3370.8995 992.2549,-3370.8995 861.2549,-3370.8995 861.2549,-3370.8995 855.2549,-3370.8995 849.2549,-3364.8995 849.2549,-3358.8995 849.2549,-3358.8995 849.2549,-3068.8995 849.2549,-3068.8995 849.2549,-3062.8995 855.2549,-3056.8995 861.2549,-3056.8995"/>
<text text-anchor="middle" x="926.7549" y="-3358.0995" font-family="Times,serif" font-size="11.00" fill="#c0c0c0">SilverStripe</text>
</g>
<g id="clust31" class="cluster">
<title>cluster_\SilverStripe\FullTextSearch</title>
<path fill="none" stroke="#c0c0c0" d="M869.2549,-3064.8995C869.2549,-3064.8995 984.2549,-3064.8995 984.2549,-3064.8995 990.2549,-3064.8995 996.2549,-3070.8995 996.2549,-3076.8995 996.2549,-3076.8995 996.2549,-3330.8995 996.2549,-3330.8995 996.2549,-3336.8995 990.2549,-3342.8995 984.2549,-3342.8995 984.2549,-3342.8995 869.2549,-3342.8995 869.2549,-3342.8995 863.2549,-3342.8995 857.2549,-3336.8995 857.2549,-3330.8995 857.2549,-3330.8995 857.2549,-3076.8995 857.2549,-3076.8995 857.2549,-3070.8995 863.2549,-3064.8995 869.2549,-3064.8995"/>
<text text-anchor="middle" x="926.7549" y="-3330.0995" font-family="Times,serif" font-size="11.00" fill="#c0c0c0">FullTextSearch</text>
</g>
<g id="clust32" class="cluster">
<title>cluster_\SilverStripe\FullTextSearch\Solr</title>
<path fill="none" stroke="#c0c0c0" d="M888.7549,-3072.8995C888.7549,-3072.8995 964.7549,-3072.8995 964.7549,-3072.8995 970.7549,-3072.8995 976.7549,-3078.8995 976.7549,-3084.8995 976.7549,-3084.8995 976.7549,-3186.8995 976.7549,-3186.8995 976.7549,-3192.8995 970.7549,-3198.8995 964.7549,-3198.8995 964.7549,-3198.8995 888.7549,-3198.8995 888.7549,-3198.8995 882.7549,-3198.8995 876.7549,-3192.8995 876.7549,-3186.8995 876.7549,-3186.8995 876.7549,-3084.8995 876.7549,-3084.8995 876.7549,-3078.8995 882.7549,-3072.8995 888.7549,-3072.8995"/>
<text text-anchor="middle" x="926.7549" y="-3186.0995" font-family="Times,serif" font-size="11.00" fill="#c0c0c0">Solr</text>
</g>
<g id="clust33" class="cluster">
<title>cluster_\SilverStripe\FullTextSearch\Search</title>
<path fill="none" stroke="#c0c0c0" d="M877.2549,-3206.8995C877.2549,-3206.8995 976.2549,-3206.8995 976.2549,-3206.8995 982.2549,-3206.8995 988.2549,-3212.8995 988.2549,-3218.8995 988.2549,-3218.8995 988.2549,-3302.8995 988.2549,-3302.8995 988.2549,-3308.8995 982.2549,-3314.8995 976.2549,-3314.8995 976.2549,-3314.8995 877.2549,-3314.8995 877.2549,-3314.8995 871.2549,-3314.8995 865.2549,-3308.8995 865.2549,-3302.8995 865.2549,-3302.8995 865.2549,-3218.8995 865.2549,-3218.8995 865.2549,-3212.8995 871.2549,-3206.8995 877.2549,-3206.8995"/>
<text text-anchor="middle" x="926.7549" y="-3302.0995" font-family="Times,serif" font-size="11.00" fill="#c0c0c0">Search</text>
</g>
<g id="clust34" class="cluster">
<title>cluster_\SilverStripe\FullTextSearch\Search\Queries</title>
<path fill="none" stroke="#c0c0c0" d="M885.2549,-3214.8995C885.2549,-3214.8995 968.2549,-3214.8995 968.2549,-3214.8995 974.2549,-3214.8995 980.2549,-3220.8995 980.2549,-3226.8995 980.2549,-3226.8995 980.2549,-3274.8995 980.2549,-3274.8995 980.2549,-3280.8995 974.2549,-3286.8995 968.2549,-3286.8995 968.2549,-3286.8995 885.2549,-3286.8995 885.2549,-3286.8995 879.2549,-3286.8995 873.2549,-3280.8995 873.2549,-3274.8995 873.2549,-3274.8995 873.2549,-3226.8995 873.2549,-3226.8995 873.2549,-3220.8995 879.2549,-3214.8995 885.2549,-3214.8995"/>
<text text-anchor="middle" x="926.7549" y="-3274.0995" font-family="Times,serif" font-size="11.00" fill="#c0c0c0">Queries</text>
</g>
<!-- \\Firesphere\\SolrCompatibility\\Extensions\\FulltextSearchExtension -->
<g id="node1" class="node">
<title>\\Firesphere\\SolrCompatibility\\Extensions\\FulltextSearchExtension</title>
<polygon fill="none" stroke="#000000" points="1012.7549,-220.8995 840.7549,-220.8995 840.7549,-184.8995 1012.7549,-184.8995 1012.7549,-220.8995"/>
<text text-anchor="middle" x="926.7549" y="-200.0995" font-family="Courier,monospace" font-size="11.00" fill="#000000">FulltextSearchExtension</text>
</g>
<!-- \\SilverStripe\\Core\\Extension -->
<g id="node63" class="node">
<title>\\SilverStripe\\Core\\Extension</title>
<ellipse fill="none" stroke="#000000" cx="254.1275" cy="-18.8995" rx="144.0747" ry="18"/>
<text text-anchor="middle" x="254.1275" y="-15.1995" font-family="Times,serif" font-size="14.00" fill="#c0c0c0">\SilverStripe\Core\Extension</text>
</g>
<!-- \\Firesphere\\SolrCompatibility\\Extensions\\FulltextSearchExtension&#45;&gt;\\SilverStripe\\Core\\Extension -->
<g id="edge1" class="edge">
<title>\\Firesphere\\SolrCompatibility\\Extensions\\FulltextSearchExtension&#45;&gt;\\SilverStripe\\Core\\Extension</title>
<path fill="none" stroke="#000000" d="M897.7118,-184.7934C869.069,-167.6553 823.5604,-142.3194 781.2549,-126.8995 734.8533,-109.9865 712.9958,-131.5322 672.7549,-102.8995"/>
<path fill="none" stroke="#000000" d="M672.7549,-102.8995C596.3562,-48.5392 493.2511,-27.3906 408.4834,-19.9051"/>
<polygon fill="none" stroke="#000000" points="408.7583,-16.416 398.5036,-19.079 408.1807,-23.3921 408.7583,-16.416"/>
</g>
<!-- \\Firesphere\\SolrCompatibility\\Extensions\\SolrCoreServiceExtension -->
<g id="node2" class="node">
<title>\\Firesphere\\SolrCompatibility\\Extensions\\SolrCoreServiceExtension</title>
<polygon fill="none" stroke="#000000" points="1016.2549,-274.8995 837.2549,-274.8995 837.2549,-238.8995 1016.2549,-238.8995 1016.2549,-274.8995"/>
<text text-anchor="middle" x="926.7549" y="-254.0995" font-family="Courier,monospace" font-size="11.00" fill="#000000">SolrCoreServiceExtension</text>
</g>
<!-- \\Firesphere\\SolrCompatibility\\Extensions\\SolrCoreServiceExtension&#45;&gt;\\SilverStripe\\Core\\Extension -->
<g id="edge2" class="edge">
<title>\\Firesphere\\SolrCompatibility\\Extensions\\SolrCoreServiceExtension&#45;&gt;\\SilverStripe\\Core\\Extension</title>
<path fill="none" stroke="#000000" d="M837.1938,-240.8236C831.4573,-237.7727 826.0644,-234.1644 821.2549,-229.8995 784.5121,-197.3169 818.5279,-158.8741 781.2549,-126.8995 743.7699,-94.743 712.9958,-131.5322 672.7549,-102.8995"/>
</g>
<!-- \\Firesphere\\SolrSearch\\Tasks\\SolrConfigureTask -->
<g id="node3" class="node">
<title>\\Firesphere\\SolrSearch\\Tasks\\SolrConfigureTask</title>
<polygon fill="none" stroke="#000000" points="738.2549,-2964.8995 607.2549,-2964.8995 607.2549,-2928.8995 738.2549,-2928.8995 738.2549,-2964.8995"/>
<text text-anchor="middle" x="672.7549" y="-2944.0995" font-family="Courier,monospace" font-size="11.00" fill="#000000">SolrConfigureTask</text>
</g>
<!-- \\SilverStripe\\Dev\\BuildTask -->
<g id="node64" class="node">
<title>\\SilverStripe\\Dev\\BuildTask</title>
<ellipse fill="none" stroke="#000000" cx="254.1275" cy="-126.8995" rx="139.9756" ry="18"/>
<text text-anchor="middle" x="254.1275" y="-123.1995" font-family="Times,serif" font-size="14.00" fill="#c0c0c0">\SilverStripe\Dev\BuildTask</text>
</g>
<!-- \\Firesphere\\SolrSearch\\Tasks\\SolrConfigureTask&#45;&gt;\\SilverStripe\\Dev\\BuildTask -->
<g id="edge5" class="edge">
<title>\\Firesphere\\SolrSearch\\Tasks\\SolrConfigureTask&#45;&gt;\\SilverStripe\\Dev\\BuildTask</title>
<path fill="none" stroke="#000000" d="M607.0666,-2941.7723C593.6623,-2937.6217 581.001,-2930.8334 572.2549,-2919.8995 518.1077,-2852.2074 518.8096,-1446.9385 508.2549,-1360.8995 448.2901,-872.0833 297.2299,-288.568 261.6958,-155.041"/>
<polygon fill="none" stroke="#000000" points="265.0279,-153.9526 259.0671,-145.1936 258.2647,-155.758 265.0279,-153.9526"/>
</g>
<!-- \\Firesphere\\SolrSearch\\Tasks\\SolrIndexTask -->
<g id="node4" class="node">
<title>\\Firesphere\\SolrSearch\\Tasks\\SolrIndexTask</title>
<polygon fill="none" stroke="#000000" points="724.7549,-2910.8995 620.7549,-2910.8995 620.7549,-2874.8995 724.7549,-2874.8995 724.7549,-2910.8995"/>
<text text-anchor="middle" x="672.7549" y="-2890.0995" font-family="Courier,monospace" font-size="11.00" fill="#000000">SolrIndexTask</text>
</g>
<!-- \\Firesphere\\SolrSearch\\Tasks\\SolrIndexTask&#45;&gt;\\SilverStripe\\Dev\\BuildTask -->
<g id="edge6" class="edge">
<title>\\Firesphere\\SolrSearch\\Tasks\\SolrIndexTask&#45;&gt;\\SilverStripe\\Dev\\BuildTask</title>
<path fill="none" stroke="#000000" d="M620.6999,-2891.1069C602.611,-2887.6996 583.9459,-2880.493 572.2549,-2865.8995 467.6091,-2735.2737 528.7566,-1527.0124 508.2549,-1360.8995 447.9307,-872.1275 297.1433,-288.5787 261.6801,-155.0429"/>
<polygon fill="none" stroke="#000000" points="265.013,-153.957 259.0568,-145.1949 258.2488,-155.7589 265.013,-153.957"/>
</g>
<!-- \\Firesphere\\SolrSearch\\Tasks\\ClearDirtyClassesTask -->
<g id="node5" class="node">
<title>\\Firesphere\\SolrSearch\\Tasks\\ClearDirtyClassesTask</title>
<polygon fill="none" stroke="#000000" points="751.7549,-2856.8995 593.7549,-2856.8995 593.7549,-2820.8995 751.7549,-2820.8995 751.7549,-2856.8995"/>
<text text-anchor="middle" x="672.7549" y="-2836.0995" font-family="Courier,monospace" font-size="11.00" fill="#000000">ClearDirtyClassesTask</text>
</g>
<!-- \\Firesphere\\SolrSearch\\Tasks\\ClearDirtyClassesTask&#45;&gt;\\SilverStripe\\Dev\\BuildTask -->
<g id="edge7" class="edge">
<title>\\Firesphere\\SolrSearch\\Tasks\\ClearDirtyClassesTask&#45;&gt;\\SilverStripe\\Dev\\BuildTask</title>
<path fill="none" stroke="#000000" d="M593.7249,-2828.5122C585.4789,-2824.4806 578.0214,-2819.0859 572.2549,-2811.8995 471.2575,-2686.0317 528.1488,-1521.0475 508.2549,-1360.8995 447.5447,-872.1753 297.0503,-288.5902 261.6633,-155.045"/>
<polygon fill="none" stroke="#000000" points="264.997,-153.9617 259.0456,-145.1963 258.2318,-155.7598 264.997,-153.9617"/>
</g>
<!-- \\Firesphere\\SolrSearch\\Tasks\\ClearErrorsTask -->
<g id="node6" class="node">
<title>\\Firesphere\\SolrSearch\\Tasks\\ClearErrorsTask</title>
<polygon fill="none" stroke="#000000" points="731.7549,-2802.8995 613.7549,-2802.8995 613.7549,-2766.8995 731.7549,-2766.8995 731.7549,-2802.8995"/>
<text text-anchor="middle" x="672.7549" y="-2782.0995" font-family="Courier,monospace" font-size="11.00" fill="#000000">ClearErrorsTask</text>
</g>
<!-- \\Firesphere\\SolrSearch\\Tasks\\ClearErrorsTask&#45;&gt;\\SilverStripe\\Dev\\BuildTask -->
<g id="edge8" class="edge">
<title>\\Firesphere\\SolrSearch\\Tasks\\ClearErrorsTask&#45;&gt;\\SilverStripe\\Dev\\BuildTask</title>
<path fill="none" stroke="#000000" d="M613.5133,-2779.7048C597.7621,-2775.354 582.3451,-2767.8125 572.2549,-2754.8995 476.7869,-2632.7234 527.5073,-1514.7516 508.2549,-1360.8995 447.1049,-872.2302 296.9443,-288.6034 261.6441,-155.0474"/>
<polygon fill="none" stroke="#000000" points="264.9787,-153.9671 259.033,-145.1979 258.2124,-155.7609 264.9787,-153.9671"/>
</g>
<!-- \\Firesphere\\SolrSearch\\Extensions\\GridFieldExtension -->
<g id="node7" class="node">
<title>\\Firesphere\\SolrSearch\\Extensions\\GridFieldExtension</title>
<polygon fill="none" stroke="#000000" points="741.7549,-2668.8995 603.7549,-2668.8995 603.7549,-2632.8995 741.7549,-2632.8995 741.7549,-2668.8995"/>
<text text-anchor="middle" x="672.7549" y="-2648.0995" font-family="Courier,monospace" font-size="11.00" fill="#000000">GridFieldExtension</text>
</g>
<!-- \\Firesphere\\SolrSearch\\Extensions\\GridFieldExtension&#45;&gt;\\SilverStripe\\Core\\Extension -->
<g id="edge9" class="edge">
<title>\\Firesphere\\SolrSearch\\Extensions\\GridFieldExtension&#45;&gt;\\SilverStripe\\Core\\Extension</title>
<path fill="none" stroke="#000000" d="M603.717,-2642.7288C591.493,-2638.1473 580.1627,-2631.2419 572.2549,-2620.8995 485.3366,-2507.2212 605.2618,-151.1002 508.2549,-45.8995 466.3336,-.4372 394.7288,3.5242 338.1904,-2.3009"/>
<polygon fill="none" stroke="#000000" points="337.7151,1.1676 328.1791,-3.4491 338.5128,-5.7868 337.7151,1.1676"/>
</g>
<!-- \\Firesphere\\SolrSearch\\Extensions\\DataObjectExtension -->
<g id="node8" class="node">
<title>\\Firesphere\\SolrSearch\\Extensions\\DataObjectExtension</title>
<polygon fill="none" stroke="#000000" points="745.2549,-2722.8995 600.2549,-2722.8995 600.2549,-2686.8995 745.2549,-2686.8995 745.2549,-2722.8995"/>
<text text-anchor="middle" x="672.7549" y="-2702.0995" font-family="Courier,monospace" font-size="11.00" fill="#000000">DataObjectExtension</text>
</g>
<!-- \\SilverStripe\\ORM\\DataExtension -->
<g id="node65" class="node">
<title>\\SilverStripe\\ORM\\DataExtension</title>
<ellipse fill="none" stroke="#000000" cx="254.1275" cy="-72.8995" rx="167.8704" ry="18"/>
<text text-anchor="middle" x="254.1275" y="-69.1995" font-family="Times,serif" font-size="14.00" fill="#c0c0c0">\SilverStripe\ORM\DataExtension</text>
</g>
<!-- \\Firesphere\\SolrSearch\\Extensions\\DataObjectExtension&#45;&gt;\\SilverStripe\\ORM\\DataExtension -->
<g id="edge10" class="edge">
<title>\\Firesphere\\SolrSearch\\Extensions\\DataObjectExtension&#45;&gt;\\SilverStripe\\ORM\\DataExtension</title>
<path fill="none" stroke="#000000" d="M600.0223,-2697.4535C589.2599,-2693.2183 579.4041,-2686.987 572.2549,-2677.8995 483.6732,-2565.3005 605.3732,-205.2241 508.2549,-99.8995 467.412,-55.6054 398.3917,-50.7064 342.5807,-55.8712"/>
<polygon fill="none" stroke="#000000" points="341.9041,-52.4228 332.3231,-56.9454 342.6333,-59.3847 341.9041,-52.4228"/>
</g>
<!-- \\Firesphere\\SolrSearch\\Helpers\\Synonyms -->
<g id="node9" class="node">
<title>\\Firesphere\\SolrSearch\\Helpers\\Synonyms</title>
<polygon fill="none" stroke="#000000" points="708.2549,-2588.8995 637.2549,-2588.8995 637.2549,-2552.8995 708.2549,-2552.8995 708.2549,-2588.8995"/>
<text text-anchor="middle" x="672.7549" y="-2568.0995" font-family="Courier,monospace" font-size="11.00" fill="#000000">Synonyms</text>
</g>
<!-- \\Firesphere\\SolrSearch\\Helpers\\SolrLogger -->
<g id="node10" class="node">
<title>\\Firesphere\\SolrSearch\\Helpers\\SolrLogger</title>
<polygon fill="none" stroke="#000000" points="714.7549,-2534.8995 630.7549,-2534.8995 630.7549,-2498.8995 714.7549,-2498.8995 714.7549,-2534.8995"/>
<text text-anchor="middle" x="672.7549" y="-2514.0995" font-family="Courier,monospace" font-size="11.00" fill="#000000">SolrLogger</text>
</g>
<!-- \\Firesphere\\SolrSearch\\Helpers\\DataResolver -->
<g id="node11" class="node">
<title>\\Firesphere\\SolrSearch\\Helpers\\DataResolver</title>
<polygon fill="none" stroke="#000000" points="721.7549,-2480.8995 623.7549,-2480.8995 623.7549,-2444.8995 721.7549,-2444.8995 721.7549,-2480.8995"/>
<text text-anchor="middle" x="672.7549" y="-2460.0995" font-family="Courier,monospace" font-size="11.00" fill="#000000">DataResolver</text>
</g>
<!-- \\Firesphere\\SolrSearch\\Helpers\\Statics -->
<g id="node12" class="node">
<title>\\Firesphere\\SolrSearch\\Helpers\\Statics</title>
<polygon fill="none" stroke="#000000" points="704.7549,-2426.8995 640.7549,-2426.8995 640.7549,-2390.8995 704.7549,-2390.8995 704.7549,-2426.8995"/>
<text text-anchor="middle" x="672.7549" y="-2406.0995" font-family="Courier,monospace" font-size="11.00" fill="#000000">Statics</text>
</g>
<!-- \\Firesphere\\SolrSearch\\Helpers\\FieldResolver -->
<g id="node13" class="node">
<title>\\Firesphere\\SolrSearch\\Helpers\\FieldResolver</title>
<polygon fill="none" stroke="#000000" points="724.7549,-2372.8995 620.7549,-2372.8995 620.7549,-2336.8995 724.7549,-2336.8995 724.7549,-2372.8995"/>
<text text-anchor="middle" x="672.7549" y="-2352.0995" font-family="Courier,monospace" font-size="11.00" fill="#000000">FieldResolver</text>
</g>
<!-- \\Firesphere\\SolrSearch\\Queries\\BaseQuery -->
<g id="node14" class="node">
<title>\\Firesphere\\SolrSearch\\Queries\\BaseQuery</title>
<polygon fill="none" stroke="#000000" points="711.2549,-2292.8995 634.2549,-2292.8995 634.2549,-2256.8995 711.2549,-2256.8995 711.2549,-2292.8995"/>
<text text-anchor="middle" x="672.7549" y="-2272.0995" font-family="Courier,monospace" font-size="11.00" fill="#000000">BaseQuery</text>
</g>
<!-- \\Firesphere\\SolrSearch\\Admins\\SearchAdmin -->
<g id="node15" class="node">
<title>\\Firesphere\\SolrSearch\\Admins\\SearchAdmin</title>
<polygon fill="none" stroke="#000000" points="718.2549,-2212.8995 627.2549,-2212.8995 627.2549,-2176.8995 718.2549,-2176.8995 718.2549,-2212.8995"/>
<text text-anchor="middle" x="672.7549" y="-2192.0995" font-family="Courier,monospace" font-size="11.00" fill="#000000">SearchAdmin</text>
</g>
<!-- \\SilverStripe\\Admin\\ModelAdmin -->
<g id="node66" class="node">
<title>\\SilverStripe\\Admin\\ModelAdmin</title>
<ellipse fill="none" stroke="#000000" cx="254.1275" cy="-3694.8995" rx="165.1707" ry="18"/>
<text text-anchor="middle" x="254.1275" y="-3691.1995" font-family="Times,serif" font-size="14.00" fill="#c0c0c0">\SilverStripe\Admin\ModelAdmin</text>
</g>
<!-- \\Firesphere\\SolrSearch\\Admins\\SearchAdmin&#45;&gt;\\SilverStripe\\Admin\\ModelAdmin -->
<g id="edge11" class="edge">
<title>\\Firesphere\\SolrSearch\\Admins\\SearchAdmin&#45;&gt;\\SilverStripe\\Admin\\ModelAdmin</title>
<path fill="none" stroke="#000000" d="M627.0449,-2206.2133C606.7551,-2213.7044 584.6939,-2225.7904 572.2549,-2244.8995 485.9105,-2377.5431 616.71,-3552.6294 508.2549,-3667.8995 467.2546,-3711.4761 398.9304,-3716.6344 343.4474,-3711.758"/>
<polygon fill="none" stroke="#000000" points="343.5451,-3708.2504 333.2464,-3710.7377 342.8484,-3715.2157 343.5451,-3708.2504"/>
</g>
<!-- \\Firesphere\\SolrSearch\\Factories\\QueryComponentFactory -->
<g id="node16" class="node">
<title>\\Firesphere\\SolrSearch\\Factories\\QueryComponentFactory</title>
<polygon fill="none" stroke="#000000" points="751.7549,-2132.8995 593.7549,-2132.8995 593.7549,-2096.8995 751.7549,-2096.8995 751.7549,-2132.8995"/>
<text text-anchor="middle" x="672.7549" y="-2112.0995" font-family="Courier,monospace" font-size="11.00" fill="#000000">QueryComponentFactory</text>
</g>
<!-- \\Firesphere\\SolrSearch\\Factories\\SchemaFactory -->
<g id="node17" class="node">
<title>\\Firesphere\\SolrSearch\\Factories\\SchemaFactory</title>
<polygon fill="none" stroke="#000000" points="724.7549,-2078.8995 620.7549,-2078.8995 620.7549,-2042.8995 724.7549,-2042.8995 724.7549,-2078.8995"/>
<text text-anchor="middle" x="672.7549" y="-2058.0995" font-family="Courier,monospace" font-size="11.00" fill="#000000">SchemaFactory</text>
</g>
<!-- \\SilverStripe\\View\\ViewableData -->
<g id="node67" class="node">
<title>\\SilverStripe\\View\\ViewableData</title>
<ellipse fill="none" stroke="#000000" cx="254.1275" cy="-3640.8995" rx="163.2712" ry="18"/>
<text text-anchor="middle" x="254.1275" y="-3637.1995" font-family="Times,serif" font-size="14.00" fill="#c0c0c0">\SilverStripe\View\ViewableData</text>
</g>
<!-- \\Firesphere\\SolrSearch\\Factories\\SchemaFactory&#45;&gt;\\SilverStripe\\View\\ViewableData -->
<g id="edge12" class="edge">
<title>\\Firesphere\\SolrSearch\\Factories\\SchemaFactory&#45;&gt;\\SilverStripe\\View\\ViewableData</title>
<path fill="none" stroke="#000000" d="M620.6954,-2062.6884C602.6059,-2066.0953 583.9417,-2073.3025 572.2549,-2087.8995 466.1902,-2220.3757 624.3575,-3490.1261 508.2549,-3613.8995 467.1778,-3657.6905 398.5156,-3662.7286 342.9111,-3657.7481"/>
<polygon fill="none" stroke="#000000" points="342.9929,-3654.2385 332.69,-3656.7087 342.2846,-3661.2026 342.9929,-3654.2385"/>
</g>
<!-- \\Firesphere\\SolrSearch\\Factories\\DocumentFactory -->
<g id="node18" class="node">
<title>\\Firesphere\\SolrSearch\\Factories\\DocumentFactory</title>
<polygon fill="none" stroke="#000000" points="731.7549,-2024.8995 613.7549,-2024.8995 613.7549,-1988.8995 731.7549,-1988.8995 731.7549,-2024.8995"/>
<text text-anchor="middle" x="672.7549" y="-2004.0995" font-family="Courier,monospace" font-size="11.00" fill="#000000">DocumentFactory</text>
</g>
<!-- \\Firesphere\\SolrSearch\\Results\\SearchResult -->
<g id="node19" class="node">
<title>\\Firesphere\\SolrSearch\\Results\\SearchResult</title>
<polygon fill="none" stroke="#000000" points="721.7549,-1944.8995 623.7549,-1944.8995 623.7549,-1908.8995 721.7549,-1908.8995 721.7549,-1944.8995"/>
<text text-anchor="middle" x="672.7549" y="-1924.0995" font-family="Courier,monospace" font-size="11.00" fill="#000000">SearchResult</text>
</g>
<!-- \\Firesphere\\SolrSearch\\Results\\SearchResult&#45;&gt;\\SilverStripe\\View\\ViewableData -->
<g id="edge13" class="edge">
<title>\\Firesphere\\SolrSearch\\Results\\SearchResult&#45;&gt;\\SilverStripe\\View\\ViewableData</title>
<path fill="none" stroke="#000000" d="M623.5975,-1939.4715C604.2733,-1947.0299 583.9498,-1958.8177 572.2549,-1976.8995 473.3981,-2129.744 632.5998,-3480.9616 508.2549,-3613.8995 467.1687,-3657.825 398.3353,-3662.8009 342.6624,-3657.7608"/>
<polygon fill="none" stroke="#000000" points="342.7351,-3654.25 332.4299,-3656.7103 342.0201,-3661.2134 342.7351,-3654.25"/>
</g>
<!-- \\Firesphere\\SolrSearch\\Forms\\SearchForm -->
<g id="node20" class="node">
<title>\\Firesphere\\SolrSearch\\Forms\\SearchForm</title>
<polygon fill="none" stroke="#000000" points="714.7549,-1864.8995 630.7549,-1864.8995 630.7549,-1828.8995 714.7549,-1828.8995 714.7549,-1864.8995"/>
<text text-anchor="middle" x="672.7549" y="-1844.0995" font-family="Courier,monospace" font-size="11.00" fill="#000000">SearchForm</text>
</g>
<!-- \\SilverStripe\\Forms\\Form -->
<g id="node68" class="node">
<title>\\SilverStripe\\Forms\\Form</title>
<ellipse fill="none" stroke="#000000" cx="254.1275" cy="-3586.8995" rx="129.1772" ry="18"/>
<text text-anchor="middle" x="254.1275" y="-3583.1995" font-family="Times,serif" font-size="14.00" fill="#c0c0c0">\SilverStripe\Forms\Form</text>
</g>
<!-- \\Firesphere\\SolrSearch\\Forms\\SearchForm&#45;&gt;\\SilverStripe\\Forms\\Form -->
<g id="edge14" class="edge">
<title>\\Firesphere\\SolrSearch\\Forms\\SearchForm&#45;&gt;\\SilverStripe\\Forms\\Form</title>
<path fill="none" stroke="#000000" d="M630.6129,-1856.8836C609.3616,-1864.2394 585.3725,-1876.6046 572.2549,-1896.8995 471.8777,-2052.1986 634.5306,-3424.8148 508.2549,-3559.8995 465.5248,-3605.6104 392.748,-3609.1508 335.9989,-3603.1116"/>
<polygon fill="none" stroke="#000000" points="336.3016,-3599.6231 325.9603,-3601.9272 335.4813,-3606.5749 336.3016,-3599.6231"/>
</g>
<!-- \\Firesphere\\SolrSearch\\Jobs\\ClearDirtyClassesJob -->
<g id="node21" class="node">
<title>\\Firesphere\\SolrSearch\\Jobs\\ClearDirtyClassesJob</title>
<polygon fill="none" stroke="#000000" points="748.7549,-1784.8995 596.7549,-1784.8995 596.7549,-1748.8995 748.7549,-1748.8995 748.7549,-1784.8995"/>
<text text-anchor="middle" x="672.7549" y="-1764.0995" font-family="Courier,monospace" font-size="11.00" fill="#000000">ClearDirtyClassesJob</text>
</g>
<!-- \\Symbiote\\QueuedJobs\\Services\\AbstractQueuedJob -->
<g id="node69" class="node">
<title>\\Symbiote\\QueuedJobs\\Services\\AbstractQueuedJob</title>
<ellipse fill="none" stroke="#000000" cx="254.1275" cy="-3532.8995" rx="254.255" ry="18"/>
<text text-anchor="middle" x="254.1275" y="-3529.1995" font-family="Times,serif" font-size="14.00" fill="#c0c0c0">\Symbiote\QueuedJobs\Services\AbstractQueuedJob</text>
</g>
<!-- \\Firesphere\\SolrSearch\\Jobs\\ClearDirtyClassesJob&#45;&gt;\\Symbiote\\QueuedJobs\\Services\\AbstractQueuedJob -->
<g id="edge15" class="edge">
<title>\\Firesphere\\SolrSearch\\Jobs\\ClearDirtyClassesJob&#45;&gt;\\Symbiote\\QueuedJobs\\Services\\AbstractQueuedJob</title>
<path fill="none" stroke="#000000" d="M610.9522,-1785.0089C595.8408,-1792.44 581.4013,-1802.7394 572.2549,-1816.8995 470.3573,-1974.6532 636.4613,-3368.668 508.2549,-3505.8995 469.6989,-3547.1696 406.652,-3554.0725 353.0036,-3550.5821"/>
<polygon fill="none" stroke="#000000" points="352.9986,-3547.0712 342.757,-3549.7842 352.455,-3554.0501 352.9986,-3547.0712"/>
</g>
<!-- \\Firesphere\\SolrSearch\\Jobs\\SolrIndexJob -->
<g id="node22" class="node">
<title>\\Firesphere\\SolrSearch\\Jobs\\SolrIndexJob</title>
<polygon fill="none" stroke="#000000" points="721.7549,-1730.8995 623.7549,-1730.8995 623.7549,-1694.8995 721.7549,-1694.8995 721.7549,-1730.8995"/>
<text text-anchor="middle" x="672.7549" y="-1710.0995" font-family="Courier,monospace" font-size="11.00" fill="#000000">SolrIndexJob</text>
</g>
<!-- \\Firesphere\\SolrSearch\\Jobs\\SolrIndexJob&#45;&gt;\\Symbiote\\QueuedJobs\\Services\\AbstractQueuedJob -->
<g id="edge16" class="edge">
<title>\\Firesphere\\SolrSearch\\Jobs\\SolrIndexJob&#45;&gt;\\Symbiote\\QueuedJobs\\Services\\AbstractQueuedJob</title>
<path fill="none" stroke="#000000" d="M623.5299,-1714.1424C604.559,-1717.31 584.5189,-1724.4919 572.2549,-1739.8995 449.973,-1893.5252 642.1795,-3362.31 508.2549,-3505.8995 469.6619,-3547.2776 406.4535,-3554.1299 352.7325,-3550.5868"/>
<polygon fill="none" stroke="#000000" points="352.7171,-3547.0748 342.4731,-3549.7786 352.1673,-3554.0532 352.7171,-3547.0748"/>
</g>
<!-- \\Firesphere\\SolrSearch\\Jobs\\SolrConfigureJob -->
<g id="node23" class="node">
<title>\\Firesphere\\SolrSearch\\Jobs\\SolrConfigureJob</title>
<polygon fill="none" stroke="#000000" points="735.2549,-1676.8995 610.2549,-1676.8995 610.2549,-1640.8995 735.2549,-1640.8995 735.2549,-1676.8995"/>
<text text-anchor="middle" x="672.7549" y="-1656.0995" font-family="Courier,monospace" font-size="11.00" fill="#000000">SolrConfigureJob</text>
</g>
<!-- \\Firesphere\\SolrSearch\\Jobs\\SolrConfigureJob&#45;&gt;\\Symbiote\\QueuedJobs\\Services\\AbstractQueuedJob -->
<g id="edge17" class="edge">
<title>\\Firesphere\\SolrSearch\\Jobs\\SolrConfigureJob&#45;&gt;\\Symbiote\\QueuedJobs\\Services\\AbstractQueuedJob</title>
<path fill="none" stroke="#000000" d="M610.1445,-1663.0717C595.5995,-1667.1137 581.6435,-1674.0914 572.2549,-1685.8995 446.3238,-1844.2843 646.1899,-3357.851 508.2549,-3505.8995 469.6841,-3547.2983 406.4758,-3554.1507 352.7493,-3550.6024"/>
<polygon fill="none" stroke="#000000" points="352.733,-3547.0903 342.4887,-3549.7932 352.1826,-3554.0687 352.733,-3547.0903"/>
</g>
<!-- \\Firesphere\\SolrSearch\\Indexes\\BaseIndex -->
<g id="node24" class="node">
<title>\\Firesphere\\SolrSearch\\Indexes\\BaseIndex</title>
<polygon fill="none" stroke="#000000" points="714.7549,-1596.8995 630.7549,-1596.8995 630.7549,-1560.8995 714.7549,-1560.8995 714.7549,-1596.8995"/>
<text text-anchor="start" x="638.7549" y="-1582.0995" font-family="Courier,monospace" font-size="11.00" fill="#000000">«abstract»</text>
<text text-anchor="start" x="642.2549" y="-1570.0995" font-family="Courier,monospace" font-size="11.00" fill="#000000">BaseIndex</text>
</g>
<!-- \\Firesphere\\SolrSearch\\Interfaces\\ConfigStore -->
<g id="node25" class="node">
<title>\\Firesphere\\SolrSearch\\Interfaces\\ConfigStore</title>
<polygon fill="none" stroke="#000000" points="299.6275,-1462.8995 208.6275,-1462.8995 208.6275,-1426.8995 299.6275,-1426.8995 299.6275,-1462.8995"/>
<text text-anchor="middle" x="254.1275" y="-1442.0995" font-family="Courier,monospace" font-size="11.00" fill="#000000">ConfigStore</text>
</g>
<!-- \\Firesphere\\SolrSearch\\Interfaces\\SiteStateInterface -->
<g id="node26" class="node">
<title>\\Firesphere\\SolrSearch\\Interfaces\\SiteStateInterface</title>
<polygon fill="none" stroke="#000000" points="323.1275,-1408.8995 185.1275,-1408.8995 185.1275,-1372.8995 323.1275,-1372.8995 323.1275,-1408.8995"/>
<text text-anchor="middle" x="254.1275" y="-1388.0995" font-family="Courier,monospace" font-size="11.00" fill="#000000">SiteStateInterface</text>
</g>
<!-- \\Firesphere\\SolrSearch\\Stores\\PostConfigStore -->
<g id="node27" class="node">
<title>\\Firesphere\\SolrSearch\\Stores\\PostConfigStore</title>
<polygon fill="none" stroke="#000000" points="731.7549,-1462.8995 613.7549,-1462.8995 613.7549,-1426.8995 731.7549,-1426.8995 731.7549,-1462.8995"/>
<text text-anchor="middle" x="672.7549" y="-1442.0995" font-family="Courier,monospace" font-size="11.00" fill="#000000">PostConfigStore</text>
</g>
<!-- \\Firesphere\\SolrSearch\\Stores\\PostConfigStore&#45;&gt;\\Firesphere\\SolrSearch\\Interfaces\\ConfigStore -->
<g id="edge18" class="edge">
<title>\\Firesphere\\SolrSearch\\Stores\\PostConfigStore&#45;&gt;\\Firesphere\\SolrSearch\\Interfaces\\ConfigStore</title>
<path fill="none" stroke="#000000" stroke-dasharray="1,5" d="M613.6637,-1444.8995C532.8854,-1444.8995 389.0185,-1444.8995 309.9722,-1444.8995"/>
<polygon fill="none" stroke="#000000" points="309.7288,-1441.3996 299.7287,-1444.8995 309.7287,-1448.3996 309.7288,-1441.3996"/>
</g>
<!-- \\Firesphere\\SolrSearch\\Stores\\FileConfigStore -->
<g id="node28" class="node">
<title>\\Firesphere\\SolrSearch\\Stores\\FileConfigStore</title>
<polygon fill="none" stroke="#000000" points="731.7549,-1516.8995 613.7549,-1516.8995 613.7549,-1480.8995 731.7549,-1480.8995 731.7549,-1516.8995"/>
<text text-anchor="middle" x="672.7549" y="-1496.0995" font-family="Courier,monospace" font-size="11.00" fill="#000000">FileConfigStore</text>
</g>
<!-- \\Firesphere\\SolrSearch\\Stores\\FileConfigStore&#45;&gt;\\Firesphere\\SolrSearch\\Interfaces\\ConfigStore -->
<g id="edge19" class="edge">
<title>\\Firesphere\\SolrSearch\\Stores\\FileConfigStore&#45;&gt;\\Firesphere\\SolrSearch\\Interfaces\\ConfigStore</title>
<path fill="none" stroke="#000000" stroke-dasharray="1,5" d="M613.6637,-1491.2771C532.8854,-1480.8573 389.0185,-1462.2995 309.9722,-1452.103"/>
<polygon fill="none" stroke="#000000" points="310.0944,-1448.5899 299.7287,-1450.7817 309.1988,-1455.5324 310.0944,-1448.5899"/>
</g>
<!-- \\Firesphere\\SolrSearch\\Services\\SolrCoreService -->
<g id="node29" class="node">
<title>\\Firesphere\\SolrSearch\\Services\\SolrCoreService</title>
<polygon fill="none" stroke="#000000" points="731.7549,-1382.8995 613.7549,-1382.8995 613.7549,-1346.8995 731.7549,-1346.8995 731.7549,-1382.8995"/>
<text text-anchor="middle" x="672.7549" y="-1362.0995" font-family="Courier,monospace" font-size="11.00" fill="#000000">SolrCoreService</text>
</g>
<!-- \\Firesphere\\SolrSearch\\Models\\SearchSynonym -->
<g id="node30" class="node">
<title>\\Firesphere\\SolrSearch\\Models\\SearchSynonym</title>
<polygon fill="none" stroke="#000000" points="724.7549,-1302.8995 620.7549,-1302.8995 620.7549,-1266.8995 724.7549,-1266.8995 724.7549,-1302.8995"/>
<text text-anchor="middle" x="672.7549" y="-1282.0995" font-family="Courier,monospace" font-size="11.00" fill="#000000">SearchSynonym</text>
</g>
<!-- \\SilverStripe\\ORM\\DataObject -->
<g id="node70" class="node">
<title>\\SilverStripe\\ORM\\DataObject</title>
<ellipse fill="none" stroke="#000000" cx="254.1275" cy="-3478.8995" rx="152.9733" ry="18"/>
<text text-anchor="middle" x="254.1275" y="-3475.1995" font-family="Times,serif" font-size="14.00" fill="#c0c0c0">\SilverStripe\ORM\DataObject</text>
</g>
<!-- \\Firesphere\\SolrSearch\\Models\\SearchSynonym&#45;&gt;\\SilverStripe\\ORM\\DataObject -->
<g id="edge20" class="edge">
<title>\\Firesphere\\SolrSearch\\Models\\SearchSynonym&#45;&gt;\\SilverStripe\\ORM\\DataObject</title>
<path fill="none" stroke="#000000" d="M620.6262,-1298.5806C602.1817,-1306.1611 583.2916,-1317.6686 572.2549,-1334.8995 445.3266,-1533.0642 668.2484,-3279.3244 508.2549,-3451.8995 466.7096,-3496.7118 396.3095,-3501.1205 340.1285,-3495.6295"/>
<polygon fill="none" stroke="#000000" points="340.4934,-3492.1486 330.172,-3494.5399 339.7319,-3499.1071 340.4934,-3492.1486"/>
</g>
<!-- \\Firesphere\\SolrSearch\\Models\\SolrLog -->
<g id="node31" class="node">
<title>\\Firesphere\\SolrSearch\\Models\\SolrLog</title>
<polygon fill="none" stroke="#000000" points="704.7549,-1194.8995 640.7549,-1194.8995 640.7549,-1158.8995 704.7549,-1158.8995 704.7549,-1194.8995"/>
<text text-anchor="middle" x="672.7549" y="-1174.0995" font-family="Courier,monospace" font-size="11.00" fill="#000000">SolrLog</text>
</g>
<!-- \\Firesphere\\SolrSearch\\Models\\SolrLog&#45;&gt;\\SilverStripe\\ORM\\DataObject -->
<g id="edge21" class="edge">
<title>\\Firesphere\\SolrSearch\\Models\\SolrLog&#45;&gt;\\SilverStripe\\ORM\\DataObject</title>
<path fill="none" stroke="#000000" d="M640.6561,-1176.1856C617.7482,-1177.5749 588.2658,-1183.6236 572.2549,-1203.8995 417.3972,-1400.0081 677.9787,-3268.5055 508.2549,-3451.8995 466.749,-3496.7484 396.346,-3501.1542 340.1537,-3495.6529"/>
<polygon fill="none" stroke="#000000" points="340.517,-3492.1718 330.1951,-3494.5614 339.7543,-3499.1301 340.517,-3492.1718"/>
</g>
<!-- \\SilverStripe\\Security\\PermissionProvider -->
<g id="node71" class="node">
<title>\\SilverStripe\\Security\\PermissionProvider</title>
<ellipse fill="none" stroke="#000000" cx="254.1275" cy="-3424.8995" rx="206.0634" ry="18"/>
<text text-anchor="middle" x="254.1275" y="-3421.1995" font-family="Times,serif" font-size="14.00" fill="#c0c0c0">\SilverStripe\Security\PermissionProvider</text>
</g>
<!-- \\Firesphere\\SolrSearch\\Models\\SolrLog&#45;&gt;\\SilverStripe\\Security\\PermissionProvider -->
<g id="edge22" class="edge">
<title>\\Firesphere\\SolrSearch\\Models\\SolrLog&#45;&gt;\\SilverStripe\\Security\\PermissionProvider</title>
<path fill="none" stroke="#000000" stroke-dasharray="1,5" d="M640.364,-1176.8098C617.9248,-1178.5826 589.1533,-1184.8374 572.2549,-1203.8995 533.686,-1247.4067 290.2173,-3142.637 257.7124,-3396.8209"/>
<polygon fill="none" stroke="#000000" points="254.2398,-3396.3847 256.4435,-3406.7478 261.1833,-3397.2723 254.2398,-3396.3847"/>
</g>
<!-- \\Firesphere\\SolrSearch\\Models\\DirtyClass -->
<g id="node32" class="node">
<title>\\Firesphere\\SolrSearch\\Models\\DirtyClass</title>
<polygon fill="none" stroke="#000000" points="714.7549,-1248.8995 630.7549,-1248.8995 630.7549,-1212.8995 714.7549,-1212.8995 714.7549,-1248.8995"/>
<text text-anchor="middle" x="672.7549" y="-1228.0995" font-family="Courier,monospace" font-size="11.00" fill="#000000">DirtyClass</text>
</g>
<!-- \\Firesphere\\SolrSearch\\Models\\DirtyClass&#45;&gt;\\SilverStripe\\ORM\\DataObject -->
<g id="edge23" class="edge">
<title>\\Firesphere\\SolrSearch\\Models\\DirtyClass&#45;&gt;\\SilverStripe\\ORM\\DataObject</title>
<path fill="none" stroke="#000000" d="M630.7184,-1231.0721C609.7713,-1233.5502 586.0326,-1240.4642 572.2549,-1257.8995 421.0471,-1449.2483 673.9677,-3272.9653 508.2549,-3451.8995 466.7333,-3496.7338 396.3315,-3501.1408 340.1437,-3495.6436"/>
<polygon fill="none" stroke="#000000" points="340.5076,-3492.1626 330.1859,-3494.5529 339.7454,-3499.121 340.5076,-3492.1626"/>
</g>
<!-- \\Firesphere\\SolrSearch\\Traits\\BaseQueryTrait -->
<g id="node33" class="node">
<title>\\Firesphere\\SolrSearch\\Traits\\BaseQueryTrait</title>
<polygon fill="none" stroke="#000000" points="728.2549,-1114.8995 617.2549,-1114.8995 617.2549,-1078.8995 728.2549,-1078.8995 728.2549,-1114.8995"/>
<text text-anchor="middle" x="672.7549" y="-1094.0995" font-family="Courier,monospace" font-size="11.00" fill="#000000">BaseQueryTrait</text>
</g>
<!-- \\Firesphere\\SolrSearch\\Traits\\CoreAdminTrait -->
<g id="node34" class="node">
<title>\\Firesphere\\SolrSearch\\Traits\\CoreAdminTrait</title>
<polygon fill="none" stroke="#000000" points="728.2549,-1060.8995 617.2549,-1060.8995 617.2549,-1024.8995 728.2549,-1024.8995 728.2549,-1060.8995"/>
<text text-anchor="middle" x="672.7549" y="-1040.0995" font-family="Courier,monospace" font-size="11.00" fill="#000000">CoreAdminTrait</text>
</g>
<!-- \\Firesphere\\SolrSearch\\Traits\\CoreServiceTrait -->
<g id="node35" class="node">
<title>\\Firesphere\\SolrSearch\\Traits\\CoreServiceTrait</title>
<polygon fill="none" stroke="#000000" points="735.2549,-1006.8995 610.2549,-1006.8995 610.2549,-970.8995 735.2549,-970.8995 735.2549,-1006.8995"/>
<text text-anchor="middle" x="672.7549" y="-986.0995" font-family="Courier,monospace" font-size="11.00" fill="#000000">CoreServiceTrait</text>
</g>
<!-- \\Firesphere\\SolrSearch\\Traits\\GetSetSearchResolverTrait -->
<g id="node36" class="node">
<title>\\Firesphere\\SolrSearch\\Traits\\GetSetSearchResolverTrait</title>
<polygon fill="none" stroke="#000000" points="765.2549,-952.8995 580.2549,-952.8995 580.2549,-916.8995 765.2549,-916.8995 765.2549,-952.8995"/>
<text text-anchor="middle" x="672.7549" y="-932.0995" font-family="Courier,monospace" font-size="11.00" fill="#000000">GetSetSearchResolverTrait</text>
</g>
<!-- \\Firesphere\\SolrSearch\\Traits\\SolrIndexTrait -->
<g id="node37" class="node">
<title>\\Firesphere\\SolrSearch\\Traits\\SolrIndexTrait</title>
<polygon fill="none" stroke="#000000" points="728.2549,-898.8995 617.2549,-898.8995 617.2549,-862.8995 728.2549,-862.8995 728.2549,-898.8995"/>
<text text-anchor="middle" x="672.7549" y="-878.0995" font-family="Courier,monospace" font-size="11.00" fill="#000000">SolrIndexTrait</text>
</g>
<!-- \\Firesphere\\SolrSearch\\Traits\\BaseIndexTrait -->
<g id="node38" class="node">
<title>\\Firesphere\\SolrSearch\\Traits\\BaseIndexTrait</title>
<polygon fill="none" stroke="#000000" points="728.2549,-844.8995 617.2549,-844.8995 617.2549,-808.8995 728.2549,-808.8995 728.2549,-844.8995"/>
<text text-anchor="middle" x="672.7549" y="-824.0995" font-family="Courier,monospace" font-size="11.00" fill="#000000">BaseIndexTrait</text>
</g>
<!-- \\Firesphere\\SolrSearch\\Traits\\QueryComponentFilterTrait -->
<g id="node39" class="node">
<title>\\Firesphere\\SolrSearch\\Traits\\QueryComponentFilterTrait</title>
<polygon fill="none" stroke="#000000" points="765.2549,-790.8995 580.2549,-790.8995 580.2549,-754.8995 765.2549,-754.8995 765.2549,-790.8995"/>
<text text-anchor="middle" x="672.7549" y="-770.0995" font-family="Courier,monospace" font-size="11.00" fill="#000000">QueryComponentFilterTrait</text>
</g>
<!-- \\Firesphere\\SolrSearch\\Traits\\QueryComponentFacetTrait -->
<g id="node40" class="node">
<title>\\Firesphere\\SolrSearch\\Traits\\QueryComponentFacetTrait</title>
<polygon fill="none" stroke="#000000" points="762.2549,-736.8995 583.2549,-736.8995 583.2549,-700.8995 762.2549,-700.8995 762.2549,-736.8995"/>
<text text-anchor="middle" x="672.7549" y="-716.0995" font-family="Courier,monospace" font-size="11.00" fill="#000000">QueryComponentFacetTrait</text>
</g>
<!-- \\Firesphere\\SolrSearch\\Traits\\QueryComponentBoostTrait -->
<g id="node41" class="node">
<title>\\Firesphere\\SolrSearch\\Traits\\QueryComponentBoostTrait</title>
<polygon fill="none" stroke="#000000" points="762.2549,-682.8995 583.2549,-682.8995 583.2549,-646.8995 762.2549,-646.8995 762.2549,-682.8995"/>
<text text-anchor="middle" x="672.7549" y="-662.0995" font-family="Courier,monospace" font-size="11.00" fill="#000000">QueryComponentBoostTrait</text>
</g>
<!-- \\Firesphere\\SolrSearch\\Traits\\LoggerTrait -->
<g id="node42" class="node">
<title>\\Firesphere\\SolrSearch\\Traits\\LoggerTrait</title>
<polygon fill="none" stroke="#000000" points="718.2549,-628.8995 627.2549,-628.8995 627.2549,-592.8995 718.2549,-592.8995 718.2549,-628.8995"/>
<text text-anchor="middle" x="672.7549" y="-608.0995" font-family="Courier,monospace" font-size="11.00" fill="#000000">LoggerTrait</text>
</g>
<!-- \\Firesphere\\SolrSearch\\Traits\\DataResolveTrait -->
<g id="node43" class="node">
<title>\\Firesphere\\SolrSearch\\Traits\\DataResolveTrait</title>
<polygon fill="none" stroke="#000000" points="735.2549,-574.8995 610.2549,-574.8995 610.2549,-538.8995 735.2549,-538.8995 735.2549,-574.8995"/>
<text text-anchor="middle" x="672.7549" y="-554.0995" font-family="Courier,monospace" font-size="11.00" fill="#000000">DataResolveTrait</text>
</g>
<!-- \\Firesphere\\SolrSearch\\Traits\\GetterSetterTrait -->
<g id="node44" class="node">
<title>\\Firesphere\\SolrSearch\\Traits\\GetterSetterTrait</title>
<polygon fill="none" stroke="#000000" points="738.2549,-520.8995 607.2549,-520.8995 607.2549,-484.8995 738.2549,-484.8995 738.2549,-520.8995"/>
<text text-anchor="middle" x="672.7549" y="-500.0995" font-family="Courier,monospace" font-size="11.00" fill="#000000">GetterSetterTrait</text>
</g>
<!-- \\Firesphere\\SolrSearch\\Traits\\DocumentFactoryTrait -->
<g id="node45" class="node">
<title>\\Firesphere\\SolrSearch\\Traits\\DocumentFactoryTrait</title>
<polygon fill="none" stroke="#000000" points="748.7549,-466.8995 596.7549,-466.8995 596.7549,-430.8995 748.7549,-430.8995 748.7549,-466.8995"/>
<text text-anchor="middle" x="672.7549" y="-446.0995" font-family="Courier,monospace" font-size="11.00" fill="#000000">DocumentFactoryTrait</text>
</g>
<!-- \\Firesphere\\SolrSearch\\Traits\\SearchResultSetTrait -->
<g id="node46" class="node">
<title>\\Firesphere\\SolrSearch\\Traits\\SearchResultSetTrait</title>
<polygon fill="none" stroke="#000000" points="748.7549,-412.8995 596.7549,-412.8995 596.7549,-376.8995 748.7549,-376.8995 748.7549,-412.8995"/>
<text text-anchor="middle" x="672.7549" y="-392.0995" font-family="Courier,monospace" font-size="11.00" fill="#000000">SearchResultSetTrait</text>
</g>
<!-- \\Firesphere\\SolrSearch\\Traits\\SearchResultGetTrait -->
<g id="node47" class="node">
<title>\\Firesphere\\SolrSearch\\Traits\\SearchResultGetTrait</title>
<polygon fill="none" stroke="#000000" points="748.7549,-358.8995 596.7549,-358.8995 596.7549,-322.8995 748.7549,-322.8995 748.7549,-358.8995"/>
<text text-anchor="middle" x="672.7549" y="-338.0995" font-family="Courier,monospace" font-size="11.00" fill="#000000">SearchResultGetTrait</text>
</g>
<!-- \\Firesphere\\SolrSearch\\Traits\\GetSetSchemaFactoryTrait -->
<g id="node48" class="node">
<title>\\Firesphere\\SolrSearch\\Traits\\GetSetSchemaFactoryTrait</title>
<polygon fill="none" stroke="#000000" points="762.2549,-304.8995 583.2549,-304.8995 583.2549,-268.8995 762.2549,-268.8995 762.2549,-304.8995"/>
<text text-anchor="middle" x="672.7549" y="-284.0995" font-family="Courier,monospace" font-size="11.00" fill="#000000">GetSetSchemaFactoryTrait</text>
</g>
<!-- \\Firesphere\\SolrSearch\\States\\SiteState -->
<g id="node49" class="node">
<title>\\Firesphere\\SolrSearch\\States\\SiteState</title>
<polygon fill="none" stroke="#000000" points="714.7549,-224.8995 630.7549,-224.8995 630.7549,-188.8995 714.7549,-188.8995 714.7549,-224.8995"/>
<text text-anchor="start" x="638.7549" y="-210.0995" font-family="Courier,monospace" font-size="11.00" fill="#000000">«abstract»</text>
<text text-anchor="start" x="642.2549" y="-198.0995" font-family="Courier,monospace" font-size="11.00" fill="#000000">SiteState</text>
</g>
<!-- \\Firesphere\\SolrFluent\\Extensions\\FluentSchemaExtension -->
<g id="node50" class="node">
<title>\\Firesphere\\SolrFluent\\Extensions\\FluentSchemaExtension</title>
<polygon fill="none" stroke="#000000" points="1005.7549,-668.8995 847.7549,-668.8995 847.7549,-632.8995 1005.7549,-632.8995 1005.7549,-668.8995"/>
<text text-anchor="middle" x="926.7549" y="-648.0995" font-family="Courier,monospace" font-size="11.00" fill="#000000">FluentSchemaExtension</text>
</g>
<!-- \\Firesphere\\SolrFluent\\Extensions\\FluentSchemaExtension&#45;&gt;\\SilverStripe\\Core\\Extension -->
<g id="edge24" class="edge">
<title>\\Firesphere\\SolrFluent\\Extensions\\FluentSchemaExtension&#45;&gt;\\SilverStripe\\Core\\Extension</title>
<path fill="none" stroke="#000000" d="M879.2438,-632.8124C857.9161,-622.1723 834.5963,-606.4966 821.2549,-584.8995 722.7083,-425.3718 882.9626,-322.4305 781.2549,-164.8995 751.1296,-118.2395 718.0085,-135.0989 672.7549,-102.8995"/>
</g>
<!-- \\Firesphere\\SolrFluent\\Extensions\\FluentIndexExtension -->
<g id="node51" class="node">
<title>\\Firesphere\\SolrFluent\\Extensions\\FluentIndexExtension</title>
<polygon fill="none" stroke="#000000" points="1002.7549,-776.8995 850.7549,-776.8995 850.7549,-740.8995 1002.7549,-740.8995 1002.7549,-776.8995"/>
<text text-anchor="middle" x="926.7549" y="-756.0995" font-family="Courier,monospace" font-size="11.00" fill="#000000">FluentIndexExtension</text>
</g>
<!-- \\Firesphere\\SolrFluent\\Extensions\\FluentIndexExtension&#45;&gt;\\SilverStripe\\Core\\Extension -->
<g id="edge25" class="edge">
<title>\\Firesphere\\SolrFluent\\Extensions\\FluentIndexExtension&#45;&gt;\\SilverStripe\\Core\\Extension</title>
<path fill="none" stroke="#000000" d="M850.5548,-751.696C839.313,-747.4241 828.9462,-741.1177 821.2549,-731.8995 740.3328,-634.9117 848.462,-271.8491 781.2549,-164.8995 751.7039,-117.8736 718.0085,-135.0989 672.7549,-102.8995"/>
</g>
<!-- \\Firesphere\\SolrFluent\\Extensions\\FluentDocumentExtension -->
<g id="node52" class="node">
<title>\\Firesphere\\SolrFluent\\Extensions\\FluentDocumentExtension</title>
<polygon fill="none" stroke="#000000" points="1012.7549,-722.8995 840.7549,-722.8995 840.7549,-686.8995 1012.7549,-686.8995 1012.7549,-722.8995"/>
<text text-anchor="middle" x="926.7549" y="-702.0995" font-family="Courier,monospace" font-size="11.00" fill="#000000">FluentDocumentExtension</text>
</g>
<!-- \\Firesphere\\SolrFluent\\Extensions\\FluentDocumentExtension&#45;&gt;\\SilverStripe\\Core\\Extension -->
<g id="edge26" class="edge">
<title>\\Firesphere\\SolrFluent\\Extensions\\FluentDocumentExtension&#45;&gt;\\SilverStripe\\Core\\Extension</title>
<path fill="none" stroke="#000000" d="M840.5463,-693.1189C833.2373,-689.2436 826.6078,-684.2672 821.2549,-677.8995 747.6758,-590.3716 842.4518,-261.4912 781.2549,-164.8995 751.5304,-117.9831 718.0085,-135.0989 672.7549,-102.8995"/>
</g>
<!-- \\Firesphere\\SolrFluent\\States\\FluentSiteState -->
<g id="node53" class="node">
<title>\\Firesphere\\SolrFluent\\States\\FluentSiteState</title>
<polygon fill="none" stroke="#000000" points="985.7549,-856.8995 867.7549,-856.8995 867.7549,-820.8995 985.7549,-820.8995 985.7549,-856.8995"/>
<text text-anchor="middle" x="926.7549" y="-836.0995" font-family="Courier,monospace" font-size="11.00" fill="#000000">FluentSiteState</text>
</g>
<!-- \\Firesphere\\SolrFluent\\States\\FluentSiteState&#45;&gt;\\Firesphere\\SolrSearch\\Interfaces\\SiteStateInterface -->
<g id="edge28" class="edge">
<title>\\Firesphere\\SolrFluent\\States\\FluentSiteState&#45;&gt;\\Firesphere\\SolrSearch\\Interfaces\\SiteStateInterface</title>
<path fill="none" stroke="#000000" stroke-dasharray="1,5" d="M867.5291,-834.9383C850.0639,-830.7453 832.6083,-822.983 821.2549,-808.8995 732.9344,-699.3406 880.7021,-276.4681 781.2549,-176.8995 747.1066,-142.7095 721.0767,-170.1532 672.7549,-169.8995"/>
<path fill="none" stroke="#000000" stroke-dasharray="1,5" d="M672.7549,-169.8995C627.9806,-169.6643 606.7296,-148.3287 572.2549,-176.8995 378.5532,-337.4289 275.4467,-1196.2076 257.1098,-1362.87"/>
<polygon fill="none" stroke="#000000" points="253.6282,-1362.5119 256.0245,-1372.8321 260.587,-1363.27 253.6282,-1362.5119"/>
</g>
<!-- \\Firesphere\\SolrFluent\\States\\FluentSiteState&#45;&gt;\\Firesphere\\SolrSearch\\States\\SiteState -->
<g id="edge27" class="edge">
<title>\\Firesphere\\SolrFluent\\States\\FluentSiteState&#45;&gt;\\Firesphere\\SolrSearch\\States\\SiteState</title>
<path fill="none" stroke="#000000" d="M867.6052,-834.8767C850.1446,-830.6799 832.6725,-822.9311 821.2549,-808.8995 743.63,-713.5029 851.2723,-358.0117 781.2549,-256.8995 767.9948,-237.7504 745.4891,-225.78 724.4013,-218.375"/>
<polygon fill="none" stroke="#000000" points="725.4422,-215.0332 714.8503,-215.2846 723.2871,-221.6933 725.4422,-215.0332"/>
</g>
<!-- \\Firesphere\\SolrSubsites\\Extensions\\SubsitesExtension -->
<g id="node54" class="node">
<title>\\Firesphere\\SolrSubsites\\Extensions\\SubsitesExtension</title>
<polygon fill="none" stroke="#000000" points="992.2549,-972.8995 861.2549,-972.8995 861.2549,-936.8995 992.2549,-936.8995 992.2549,-972.8995"/>
<text text-anchor="middle" x="926.7549" y="-952.0995" font-family="Courier,monospace" font-size="11.00" fill="#000000">SubsitesExtension</text>
</g>
<!-- \\Firesphere\\SolrSubsites\\Extensions\\SubsitesExtension&#45;&gt;\\SilverStripe\\Core\\Extension -->
<g id="edge29" class="edge">
<title>\\Firesphere\\SolrSubsites\\Extensions\\SubsitesExtension&#45;&gt;\\SilverStripe\\Core\\Extension</title>
<path fill="none" stroke="#000000" d="M878.3173,-936.7701C857.0531,-926.187 834.0545,-910.5715 821.2549,-888.8995 739.3126,-750.1562 865.9472,-301.9814 781.2549,-164.8995 752.063,-117.6498 718.0085,-135.0989 672.7549,-102.8995"/>
</g>
<!-- \\Firesphere\\SolrSubsites\\States\\SubsiteState -->
<g id="node55" class="node">
<title>\\Firesphere\\SolrSubsites\\States\\SubsiteState</title>
<polygon fill="none" stroke="#000000" points="975.7549,-1052.8995 877.7549,-1052.8995 877.7549,-1016.8995 975.7549,-1016.8995 975.7549,-1052.8995"/>
<text text-anchor="middle" x="926.7549" y="-1032.0995" font-family="Courier,monospace" font-size="11.00" fill="#000000">SubsiteState</text>
</g>
<!-- \\Firesphere\\SolrSubsites\\States\\SubsiteState&#45;&gt;\\Firesphere\\SolrSearch\\Interfaces\\SiteStateInterface -->
<g id="edge31" class="edge">
<title>\\Firesphere\\SolrSubsites\\States\\SubsiteState&#45;&gt;\\Firesphere\\SolrSearch\\Interfaces\\SiteStateInterface</title>
<path fill="none" stroke="#000000" stroke-dasharray="1,5" d="M877.5714,-1033.096C856.9534,-1029.641 834.6932,-1021.8265 821.2549,-1004.8995 763.9847,-932.7616 845.8564,-242.5531 781.2549,-176.8995 747.3629,-142.4554 721.0767,-170.1532 672.7549,-169.8995"/>
</g>
<!-- \\Firesphere\\SolrSubsites\\States\\SubsiteState&#45;&gt;\\Firesphere\\SolrSearch\\States\\SiteState -->
<g id="edge30" class="edge">
<title>\\Firesphere\\SolrSubsites\\States\\SubsiteState&#45;&gt;\\Firesphere\\SolrSearch\\States\\SiteState</title>
<path fill="none" stroke="#000000" d="M877.6119,-1033.0637C857.0019,-1029.6024 834.7368,-1021.7918 821.2549,-1004.8995 717.4184,-874.7963 874.7223,-394.6408 781.2549,-256.8995 768.1764,-237.6259 745.6931,-225.6402 724.573,-218.2573"/>
<polygon fill="none" stroke="#000000" points="725.5952,-214.9096 715.0038,-215.1794 723.4517,-221.5733 725.5952,-214.9096"/>
</g>
<!-- \\Firesphere\\SolrPermissions\\Extensions\\BaseIndexExtension -->
<g id="node56" class="node">
<title>\\Firesphere\\SolrPermissions\\Extensions\\BaseIndexExtension</title>
<polygon fill="none" stroke="#000000" points="995.7549,-390.8995 857.7549,-390.8995 857.7549,-354.8995 995.7549,-354.8995 995.7549,-390.8995"/>
<text text-anchor="middle" x="926.7549" y="-370.0995" font-family="Courier,monospace" font-size="11.00" fill="#000000">BaseIndexExtension</text>
</g>
<!-- \\Firesphere\\SolrPermissions\\Extensions\\BaseIndexExtension&#45;&gt;\\SilverStripe\\Core\\Extension -->
<g id="edge32" class="edge">
<title>\\Firesphere\\SolrPermissions\\Extensions\\BaseIndexExtension&#45;&gt;\\SilverStripe\\Core\\Extension</title>
<path fill="none" stroke="#000000" d="M882.0021,-354.871C860.5351,-344.0287 836.28,-328.1599 821.2549,-306.8995 773.9576,-239.974 839.2316,-184.8196 781.2549,-126.8995 746.3154,-91.994 712.9958,-131.5322 672.7549,-102.8995"/>
</g>
<!-- \\Firesphere\\SolrPermissions\\Extensions\\SchemaFactoryExtension -->
<g id="node57" class="node">
<title>\\Firesphere\\SolrPermissions\\Extensions\\SchemaFactoryExtension</title>
<polygon fill="none" stroke="#000000" points="1009.2549,-498.8995 844.2549,-498.8995 844.2549,-462.8995 1009.2549,-462.8995 1009.2549,-498.8995"/>
<text text-anchor="middle" x="926.7549" y="-478.0995" font-family="Courier,monospace" font-size="11.00" fill="#000000">SchemaFactoryExtension</text>
</g>
<!-- \\Firesphere\\SolrPermissions\\Extensions\\SchemaFactoryExtension&#45;&gt;\\SilverStripe\\Core\\Extension -->
<g id="edge33" class="edge">
<title>\\Firesphere\\SolrPermissions\\Extensions\\SchemaFactoryExtension&#45;&gt;\\SilverStripe\\Core\\Extension</title>
<path fill="none" stroke="#000000" d="M844.1353,-470.5011C835.479,-466.4642 827.5576,-461.0713 821.2549,-453.8995 724.6017,-343.9177 879.7016,-235.2787 781.2549,-126.8995 748.0478,-90.342 712.9958,-131.5322 672.7549,-102.8995"/>
</g>
<!-- \\Firesphere\\SolrPermissions\\Extensions\\DataObjectExtension -->
<g id="node58" class="node">
<title>\\Firesphere\\SolrPermissions\\Extensions\\DataObjectExtension</title>
<polygon fill="none" stroke="#000000" points="999.2549,-552.8995 854.2549,-552.8995 854.2549,-516.8995 999.2549,-516.8995 999.2549,-552.8995"/>
<text text-anchor="middle" x="926.7549" y="-532.0995" font-family="Courier,monospace" font-size="11.00" fill="#000000">DataObjectExtension</text>
</g>
<!-- \\Firesphere\\SolrPermissions\\Extensions\\DataObjectExtension&#45;&gt;\\SilverStripe\\ORM\\DataExtension -->
<g id="edge34" class="edge">
<title>\\Firesphere\\SolrPermissions\\Extensions\\DataObjectExtension&#45;&gt;\\SilverStripe\\ORM\\DataExtension</title>
<path fill="none" stroke="#000000" d="M854.1266,-528.5429C841.6284,-524.306 829.9011,-517.7939 821.2549,-507.8995 720.2653,-392.3293 883.6696,-279.2087 781.2549,-164.8995 717.657,-93.9152 664.7691,-139.8032 572.2549,-116.8995 543.6866,-109.8268 537.1957,-105.2477 508.2549,-99.8995 473.46,-93.4693 435.681,-88.4252 400.1541,-84.5275"/>
<polygon fill="none" stroke="#000000" points="400.5143,-81.0461 390.1977,-83.4584 399.7668,-88.0061 400.5143,-81.0461"/>
</g>
<!-- \\Firesphere\\SolrPermissions\\Extensions\\DocumentFactoryExtension -->
<g id="node59" class="node">
<title>\\Firesphere\\SolrPermissions\\Extensions\\DocumentFactoryExtension</title>
<polygon fill="none" stroke="#000000" points="1016.2549,-444.8995 837.2549,-444.8995 837.2549,-408.8995 1016.2549,-408.8995 1016.2549,-444.8995"/>
<text text-anchor="middle" x="926.7549" y="-424.0995" font-family="Courier,monospace" font-size="11.00" fill="#000000">DocumentFactoryExtension</text>
</g>
<!-- \\Firesphere\\SolrPermissions\\Extensions\\DocumentFactoryExtension&#45;&gt;\\SilverStripe\\Core\\Extension -->
<g id="edge35" class="edge">
<title>\\Firesphere\\SolrPermissions\\Extensions\\DocumentFactoryExtension&#45;&gt;\\SilverStripe\\Core\\Extension</title>
<path fill="none" stroke="#000000" d="M837.0155,-412.5593C831.1674,-409.1282 825.8083,-404.9583 821.2549,-399.8995 739.2158,-308.7545 864.7801,-216.6846 781.2549,-126.8995 747.6157,-90.7392 712.9958,-131.5322 672.7549,-102.8995"/>
</g>
<!-- \\SilverStripe\\FullTextSearch\\Solr\\Solr -->
<g id="node60" class="node">
<title>\\SilverStripe\\FullTextSearch\\Solr\\Solr</title>
<polygon fill="none" stroke="#000000" points="953.7549,-3170.8995 899.7549,-3170.8995 899.7549,-3134.8995 953.7549,-3134.8995 953.7549,-3170.8995"/>
<text text-anchor="middle" x="926.7549" y="-3150.0995" font-family="Courier,monospace" font-size="11.00" fill="#000000">Solr</text>
</g>
<!-- \\SilverStripe\\FullTextSearch\\Solr\\SolrIndex -->
<g id="node61" class="node">
<title>\\SilverStripe\\FullTextSearch\\Solr\\SolrIndex</title>
<polygon fill="none" stroke="#000000" points="968.7549,-3116.8995 884.7549,-3116.8995 884.7549,-3080.8995 968.7549,-3080.8995 968.7549,-3116.8995"/>
<text text-anchor="start" x="892.7549" y="-3102.0995" font-family="Courier,monospace" font-size="11.00" fill="#000000">«abstract»</text>
<text text-anchor="start" x="896.2549" y="-3090.0995" font-family="Courier,monospace" font-size="11.00" fill="#000000">SolrIndex</text>
</g>
<!-- \\SilverStripe\\FullTextSearch\\Solr\\SolrIndex&#45;&gt;\\Firesphere\\SolrSearch\\Indexes\\BaseIndex -->
<g id="edge4" class="edge">
<title>\\SilverStripe\\FullTextSearch\\Solr\\SolrIndex&#45;&gt;\\Firesphere\\SolrSearch\\Indexes\\BaseIndex</title>
<path fill="none" stroke="#000000" d="M926.0415,-3080.7258C919.617,-2920.597 869.9079,-1753.3907 781.2549,-1628.8995 767.8567,-1610.085 745.5831,-1598.1778 724.6915,-1590.7287"/>
<polygon fill="none" stroke="#000000" points="725.5031,-1587.3114 714.9103,-1587.5153 723.3183,-1593.9617 725.5031,-1587.3114"/>
</g>
<!-- \\SilverStripe\\FullTextSearch\\Search\\Queries\\SearchQuery -->
<g id="node62" class="node">
<title>\\SilverStripe\\FullTextSearch\\Search\\Queries\\SearchQuery</title>
<polygon fill="none" stroke="#000000" points="972.2549,-3258.8995 881.2549,-3258.8995 881.2549,-3222.8995 972.2549,-3222.8995 972.2549,-3258.8995"/>
<text text-anchor="middle" x="926.7549" y="-3238.0995" font-family="Courier,monospace" font-size="11.00" fill="#000000">SearchQuery</text>
</g>
<!-- \\SilverStripe\\FullTextSearch\\Search\\Queries\\SearchQuery&#45;&gt;\\Firesphere\\SolrSearch\\Queries\\BaseQuery -->
<g id="edge3" class="edge">
<title>\\SilverStripe\\FullTextSearch\\Search\\Queries\\SearchQuery&#45;&gt;\\Firesphere\\SolrSearch\\Queries\\BaseQuery</title>
<path fill="none" stroke="#000000" d="M881.074,-3236.101C859.3662,-3231.307 835.1758,-3221.7813 821.2549,-3202.8995 705.3522,-3045.6928 890.2846,-2486.9485 781.2549,-2324.8995 767.4881,-2304.4381 743.1028,-2292.1974 720.933,-2284.9552"/>
<polygon fill="none" stroke="#000000" points="721.862,-2281.5798 711.2779,-2282.058 719.8501,-2288.2845 721.862,-2281.5798"/>
</g>
</g>
</svg>
