<?xml version="1.0" encoding="UTF-8" standalone="no"?>
<!DOCTYPE svg PUBLIC "-//W3C//DTD SVG 1.1//EN"
 "http://www.w3.org/Graphics/SVG/1.1/DTD/svg11.dtd">
<!-- Generated by graphviz version 2.40.1 (20161225.0304)
 -->
<!-- Title: G Pages: 1 -->
<svg width="1064pt" height="3722pt"
 viewBox="0.00 0.00 1064.25 3721.86" xmlns="http://www.w3.org/2000/svg" xmlns:xlink="http://www.w3.org/1999/xlink">
<g id="graph0" class="graph" transform="scale(1 1) rotate(0) translate(4 3717.8615)">
<title>G</title>
<polygon fill="#ffffff" stroke="transparent" points="-4,4 -4,-3717.8615 1060.2549,-3717.8615 1060.2549,4 -4,4"/>
<g id="clust1" class="cluster">
<title>cluster_Global</title>
<path fill="none" stroke="#c0c0c0" d="M165.1275,-152.8849C165.1275,-152.8849 1036.2549,-152.8849 1036.2549,-152.8849 1042.2549,-152.8849 1048.2549,-158.8849 1048.2549,-164.8849 1048.2549,-164.8849 1048.2549,-3386.8849 1048.2549,-3386.8849 1048.2549,-3392.8849 1042.2549,-3398.8849 1036.2549,-3398.8849 1036.2549,-3398.8849 165.1275,-3398.8849 165.1275,-3398.8849 159.1275,-3398.8849 153.1275,-3392.8849 153.1275,-3386.8849 153.1275,-3386.8849 153.1275,-164.8849 153.1275,-164.8849 153.1275,-158.8849 159.1275,-152.8849 165.1275,-152.8849"/>
<text text-anchor="middle" x="600.6912" y="-3386.0849" font-family="Times,serif" font-size="11.00" fill="#c0c0c0">Global</text>
</g>
<g id="clust2" class="cluster">
<title>cluster_\Firesphere</title>
<path fill="none" stroke="#c0c0c0" d="M173.1275,-160.8849C173.1275,-160.8849 1028.2549,-160.8849 1028.2549,-160.8849 1034.2549,-160.8849 1040.2549,-166.8849 1040.2549,-172.8849 1040.2549,-172.8849 1040.2549,-3036.8849 1040.2549,-3036.8849 1040.2549,-3042.8849 1034.2549,-3048.8849 1028.2549,-3048.8849 1028.2549,-3048.8849 173.1275,-3048.8849 173.1275,-3048.8849 167.1275,-3048.8849 161.1275,-3042.8849 161.1275,-3036.8849 161.1275,-3036.8849 161.1275,-172.8849 161.1275,-172.8849 161.1275,-166.8849 167.1275,-160.8849 173.1275,-160.8849"/>
<text text-anchor="middle" x="600.6912" y="-3036.0849" font-family="Times,serif" font-size="11.00" fill="#c0c0c0">Firesphere</text>
</g>
<g id="clust3" class="cluster">
<title>cluster_\Firesphere\SolrCompatibility</title>
<path fill="none" stroke="#c0c0c0" d="M833.2549,-168.8849C833.2549,-168.8849 1020.2549,-168.8849 1020.2549,-168.8849 1026.2549,-168.8849 1032.2549,-174.8849 1032.2549,-180.8849 1032.2549,-180.8849 1032.2549,-318.8849 1032.2549,-318.8849 1032.2549,-324.8849 1026.2549,-330.8849 1020.2549,-330.8849 1020.2549,-330.8849 833.2549,-330.8849 833.2549,-330.8849 827.2549,-330.8849 821.2549,-324.8849 821.2549,-318.8849 821.2549,-318.8849 821.2549,-180.8849 821.2549,-180.8849 821.2549,-174.8849 827.2549,-168.8849 833.2549,-168.8849"/>
<text text-anchor="middle" x="926.7549" y="-318.0849" font-family="Times,serif" font-size="11.00" fill="#c0c0c0">SolrCompatibility</text>
</g>
<g id="clust4" class="cluster">
<title>cluster_\Firesphere\SolrCompatibility\Extensions</title>
<path fill="none" stroke="#c0c0c0" d="M841.2549,-176.8849C841.2549,-176.8849 1012.2549,-176.8849 1012.2549,-176.8849 1018.2549,-176.8849 1024.2549,-182.8849 1024.2549,-188.8849 1024.2549,-188.8849 1024.2549,-290.8849 1024.2549,-290.8849 1024.2549,-296.8849 1018.2549,-302.8849 1012.2549,-302.8849 1012.2549,-302.8849 841.2549,-302.8849 841.2549,-302.8849 835.2549,-302.8849 829.2549,-296.8849 829.2549,-290.8849 829.2549,-290.8849 829.2549,-188.8849 829.2549,-188.8849 829.2549,-182.8849 835.2549,-176.8849 841.2549,-176.8849"/>
<text text-anchor="middle" x="926.7549" y="-290.0849" font-family="Times,serif" font-size="11.00" fill="#c0c0c0">Extensions</text>
</g>
<g id="clust5" class="cluster">
<title>cluster_\Firesphere\SolrSearch</title>
<path fill="none" stroke="#c0c0c0" d="M181.1275,-172.8849C181.1275,-172.8849 769.2549,-172.8849 769.2549,-172.8849 775.2549,-172.8849 781.2549,-178.8849 781.2549,-184.8849 781.2549,-184.8849 781.2549,-3008.8849 781.2549,-3008.8849 781.2549,-3014.8849 775.2549,-3020.8849 769.2549,-3020.8849 769.2549,-3020.8849 181.1275,-3020.8849 181.1275,-3020.8849 175.1275,-3020.8849 169.1275,-3014.8849 169.1275,-3008.8849 169.1275,-3008.8849 169.1275,-184.8849 169.1275,-184.8849 169.1275,-178.8849 175.1275,-172.8849 181.1275,-172.8849"/>
<text text-anchor="middle" x="475.1912" y="-3008.0849" font-family="Times,serif" font-size="11.00" fill="#c0c0c0">SolrSearch</text>
</g>
<g id="clust6" class="cluster">
<title>cluster_\Firesphere\SolrSearch\Admins</title>
<path fill="none" stroke="#c0c0c0" d="M631.2549,-2786.8849C631.2549,-2786.8849 714.2549,-2786.8849 714.2549,-2786.8849 720.2549,-2786.8849 726.2549,-2792.8849 726.2549,-2798.8849 726.2549,-2798.8849 726.2549,-2846.8849 726.2549,-2846.8849 726.2549,-2852.8849 720.2549,-2858.8849 714.2549,-2858.8849 714.2549,-2858.8849 631.2549,-2858.8849 631.2549,-2858.8849 625.2549,-2858.8849 619.2549,-2852.8849 619.2549,-2846.8849 619.2549,-2846.8849 619.2549,-2798.8849 619.2549,-2798.8849 619.2549,-2792.8849 625.2549,-2786.8849 631.2549,-2786.8849"/>
<text text-anchor="middle" x="672.7549" y="-2846.0849" font-family="Times,serif" font-size="11.00" fill="#c0c0c0">Admins</text>
</g>
<g id="clust7" class="cluster">
<title>cluster_\Firesphere\SolrSearch\Stores</title>
<path fill="none" stroke="#c0c0c0" d="M617.7549,-2866.8849C617.7549,-2866.8849 727.7549,-2866.8849 727.7549,-2866.8849 733.7549,-2866.8849 739.7549,-2872.8849 739.7549,-2878.8849 739.7549,-2878.8849 739.7549,-2980.8849 739.7549,-2980.8849 739.7549,-2986.8849 733.7549,-2992.8849 727.7549,-2992.8849 727.7549,-2992.8849 617.7549,-2992.8849 617.7549,-2992.8849 611.7549,-2992.8849 605.7549,-2986.8849 605.7549,-2980.8849 605.7549,-2980.8849 605.7549,-2878.8849 605.7549,-2878.8849 605.7549,-2872.8849 611.7549,-2866.8849 617.7549,-2866.8849"/>
<text text-anchor="middle" x="672.7549" y="-2980.0849" font-family="Times,serif" font-size="11.00" fill="#c0c0c0">Stores</text>
</g>
<g id="clust8" class="cluster">
<title>cluster_\Firesphere\SolrSearch\States</title>
<path fill="none" stroke="#c0c0c0" d="M634.7549,-2706.8849C634.7549,-2706.8849 710.7549,-2706.8849 710.7549,-2706.8849 716.7549,-2706.8849 722.7549,-2712.8849 722.7549,-2718.8849 722.7549,-2718.8849 722.7549,-2766.8849 722.7549,-2766.8849 722.7549,-2772.8849 716.7549,-2778.8849 710.7549,-2778.8849 710.7549,-2778.8849 634.7549,-2778.8849 634.7549,-2778.8849 628.7549,-2778.8849 622.7549,-2772.8849 622.7549,-2766.8849 622.7549,-2766.8849 622.7549,-2718.8849 622.7549,-2718.8849 622.7549,-2712.8849 628.7549,-2706.8849 634.7549,-2706.8849"/>
<text text-anchor="middle" x="672.7549" y="-2766.0849" font-family="Times,serif" font-size="11.00" fill="#c0c0c0">States</text>
</g>
<g id="clust9" class="cluster">
<title>cluster_\Firesphere\SolrSearch\Results</title>
<path fill="none" stroke="#c0c0c0" d="M627.7549,-2626.8849C627.7549,-2626.8849 717.7549,-2626.8849 717.7549,-2626.8849 723.7549,-2626.8849 729.7549,-2632.8849 729.7549,-2638.8849 729.7549,-2638.8849 729.7549,-2686.8849 729.7549,-2686.8849 729.7549,-2692.8849 723.7549,-2698.8849 717.7549,-2698.8849 717.7549,-2698.8849 627.7549,-2698.8849 627.7549,-2698.8849 621.7549,-2698.8849 615.7549,-2692.8849 615.7549,-2686.8849 615.7549,-2686.8849 615.7549,-2638.8849 615.7549,-2638.8849 615.7549,-2632.8849 621.7549,-2626.8849 627.7549,-2626.8849"/>
<text text-anchor="middle" x="672.7549" y="-2686.0849" font-family="Times,serif" font-size="11.00" fill="#c0c0c0">Results</text>
</g>
<g id="clust10" class="cluster">
<title>cluster_\Firesphere\SolrSearch\Extensions</title>
<path fill="none" stroke="#c0c0c0" d="M604.2549,-2492.8849C604.2549,-2492.8849 741.2549,-2492.8849 741.2549,-2492.8849 747.2549,-2492.8849 753.2549,-2498.8849 753.2549,-2504.8849 753.2549,-2504.8849 753.2549,-2606.8849 753.2549,-2606.8849 753.2549,-2612.8849 747.2549,-2618.8849 741.2549,-2618.8849 741.2549,-2618.8849 604.2549,-2618.8849 604.2549,-2618.8849 598.2549,-2618.8849 592.2549,-2612.8849 592.2549,-2606.8849 592.2549,-2606.8849 592.2549,-2504.8849 592.2549,-2504.8849 592.2549,-2498.8849 598.2549,-2492.8849 604.2549,-2492.8849"/>
<text text-anchor="middle" x="672.7549" y="-2606.0849" font-family="Times,serif" font-size="11.00" fill="#c0c0c0">Extensions</text>
</g>
<g id="clust11" class="cluster">
<title>cluster_\Firesphere\SolrSearch\Traits</title>
<path fill="none" stroke="#c0c0c0" d="M584.2549,-1602.8849C584.2549,-1602.8849 761.2549,-1602.8849 761.2549,-1602.8849 767.2549,-1602.8849 773.2549,-1608.8849 773.2549,-1614.8849 773.2549,-1614.8849 773.2549,-2472.8849 773.2549,-2472.8849 773.2549,-2478.8849 767.2549,-2484.8849 761.2549,-2484.8849 761.2549,-2484.8849 584.2549,-2484.8849 584.2549,-2484.8849 578.2549,-2484.8849 572.2549,-2478.8849 572.2549,-2472.8849 572.2549,-2472.8849 572.2549,-1614.8849 572.2549,-1614.8849 572.2549,-1608.8849 578.2549,-1602.8849 584.2549,-1602.8849"/>
<text text-anchor="middle" x="672.7549" y="-2472.0849" font-family="Times,serif" font-size="11.00" fill="#c0c0c0">Traits</text>
</g>
<g id="clust12" class="cluster">
<title>cluster_\Firesphere\SolrSearch\Tasks</title>
<path fill="none" stroke="#c0c0c0" d="M597.7549,-1360.8849C597.7549,-1360.8849 747.7549,-1360.8849 747.7549,-1360.8849 753.7549,-1360.8849 759.7549,-1366.8849 759.7549,-1372.8849 759.7549,-1372.8849 759.7549,-1582.8849 759.7549,-1582.8849 759.7549,-1588.8849 753.7549,-1594.8849 747.7549,-1594.8849 747.7549,-1594.8849 597.7549,-1594.8849 597.7549,-1594.8849 591.7549,-1594.8849 585.7549,-1588.8849 585.7549,-1582.8849 585.7549,-1582.8849 585.7549,-1372.8849 585.7549,-1372.8849 585.7549,-1366.8849 591.7549,-1360.8849 597.7549,-1360.8849"/>
<text text-anchor="middle" x="672.7549" y="-1582.0849" font-family="Times,serif" font-size="11.00" fill="#c0c0c0">Tasks</text>
</g>
<g id="clust13" class="cluster">
<title>cluster_\Firesphere\SolrSearch\Indexes</title>
<path fill="none" stroke="#c0c0c0" d="M634.7549,-1200.8849C634.7549,-1200.8849 710.7549,-1200.8849 710.7549,-1200.8849 716.7549,-1200.8849 722.7549,-1206.8849 722.7549,-1212.8849 722.7549,-1212.8849 722.7549,-1260.8849 722.7549,-1260.8849 722.7549,-1266.8849 716.7549,-1272.8849 710.7549,-1272.8849 710.7549,-1272.8849 634.7549,-1272.8849 634.7549,-1272.8849 628.7549,-1272.8849 622.7549,-1266.8849 622.7549,-1260.8849 622.7549,-1260.8849 622.7549,-1212.8849 622.7549,-1212.8849 622.7549,-1206.8849 628.7549,-1200.8849 634.7549,-1200.8849"/>
<text text-anchor="middle" x="672.7549" y="-1260.0849" font-family="Times,serif" font-size="11.00" fill="#c0c0c0">Indexes</text>
</g>
<g id="clust14" class="cluster">
<title>cluster_\Firesphere\SolrSearch\Queries</title>
<path fill="none" stroke="#c0c0c0" d="M638.2549,-1280.8849C638.2549,-1280.8849 707.2549,-1280.8849 707.2549,-1280.8849 713.2549,-1280.8849 719.2549,-1286.8849 719.2549,-1292.8849 719.2549,-1292.8849 719.2549,-1340.8849 719.2549,-1340.8849 719.2549,-1346.8849 713.2549,-1352.8849 707.2549,-1352.8849 707.2549,-1352.8849 638.2549,-1352.8849 638.2549,-1352.8849 632.2549,-1352.8849 626.2549,-1346.8849 626.2549,-1340.8849 626.2549,-1340.8849 626.2549,-1292.8849 626.2549,-1292.8849 626.2549,-1286.8849 632.2549,-1280.8849 638.2549,-1280.8849"/>
<text text-anchor="middle" x="672.7549" y="-1340.0849" font-family="Times,serif" font-size="11.00" fill="#c0c0c0">Queries</text>
</g>
<g id="clust15" class="cluster">
<title>cluster_\Firesphere\SolrSearch\Services</title>
<path fill="none" stroke="#c0c0c0" d="M617.7549,-1120.8849C617.7549,-1120.8849 727.7549,-1120.8849 727.7549,-1120.8849 733.7549,-1120.8849 739.7549,-1126.8849 739.7549,-1132.8849 739.7549,-1132.8849 739.7549,-1180.8849 739.7549,-1180.8849 739.7549,-1186.8849 733.7549,-1192.8849 727.7549,-1192.8849 727.7549,-1192.8849 617.7549,-1192.8849 617.7549,-1192.8849 611.7549,-1192.8849 605.7549,-1186.8849 605.7549,-1180.8849 605.7549,-1180.8849 605.7549,-1132.8849 605.7549,-1132.8849 605.7549,-1126.8849 611.7549,-1120.8849 617.7549,-1120.8849"/>
<text text-anchor="middle" x="672.7549" y="-1180.0849" font-family="Times,serif" font-size="11.00" fill="#c0c0c0">Services</text>
</g>
<g id="clust16" class="cluster">
<title>cluster_\Firesphere\SolrSearch\Models</title>
<path fill="none" stroke="#c0c0c0" d="M624.7549,-744.8849C624.7549,-744.8849 720.7549,-744.8849 720.7549,-744.8849 726.7549,-744.8849 732.7549,-750.8849 732.7549,-756.8849 732.7549,-756.8849 732.7549,-912.8849 732.7549,-912.8849 732.7549,-918.8849 726.7549,-924.8849 720.7549,-924.8849 720.7549,-924.8849 624.7549,-924.8849 624.7549,-924.8849 618.7549,-924.8849 612.7549,-918.8849 612.7549,-912.8849 612.7549,-912.8849 612.7549,-756.8849 612.7549,-756.8849 612.7549,-750.8849 618.7549,-744.8849 624.7549,-744.8849"/>
<text text-anchor="middle" x="672.7549" y="-912.0849" font-family="Times,serif" font-size="11.00" fill="#c0c0c0">Models</text>
</g>
<g id="clust17" class="cluster">
<title>cluster_\Firesphere\SolrSearch\Factories</title>
<path fill="none" stroke="#c0c0c0" d="M597.7549,-932.8849C597.7549,-932.8849 747.7549,-932.8849 747.7549,-932.8849 753.7549,-932.8849 759.7549,-938.8849 759.7549,-944.8849 759.7549,-944.8849 759.7549,-1100.8849 759.7549,-1100.8849 759.7549,-1106.8849 753.7549,-1112.8849 747.7549,-1112.8849 747.7549,-1112.8849 597.7549,-1112.8849 597.7549,-1112.8849 591.7549,-1112.8849 585.7549,-1106.8849 585.7549,-1100.8849 585.7549,-1100.8849 585.7549,-944.8849 585.7549,-944.8849 585.7549,-938.8849 591.7549,-932.8849 597.7549,-932.8849"/>
<text text-anchor="middle" x="672.7549" y="-1100.0849" font-family="Times,serif" font-size="11.00" fill="#c0c0c0">Factories</text>
</g>
<g id="clust18" class="cluster">
<title>cluster_\Firesphere\SolrSearch\Helpers</title>
<path fill="none" stroke="#c0c0c0" d="M624.7549,-448.8849C624.7549,-448.8849 720.7549,-448.8849 720.7549,-448.8849 726.7549,-448.8849 732.7549,-454.8849 732.7549,-460.8849 732.7549,-460.8849 732.7549,-724.8849 732.7549,-724.8849 732.7549,-730.8849 726.7549,-736.8849 720.7549,-736.8849 720.7549,-736.8849 624.7549,-736.8849 624.7549,-736.8849 618.7549,-736.8849 612.7549,-730.8849 612.7549,-724.8849 612.7549,-724.8849 612.7549,-460.8849 612.7549,-460.8849 612.7549,-454.8849 618.7549,-448.8849 624.7549,-448.8849"/>
<text text-anchor="middle" x="672.7549" y="-724.0849" font-family="Times,serif" font-size="11.00" fill="#c0c0c0">Helpers</text>
</g>
<g id="clust19" class="cluster">
<title>cluster_\Firesphere\SolrSearch\Forms</title>
<path fill="none" stroke="#c0c0c0" d="M634.7549,-368.8849C634.7549,-368.8849 710.7549,-368.8849 710.7549,-368.8849 716.7549,-368.8849 722.7549,-374.8849 722.7549,-380.8849 722.7549,-380.8849 722.7549,-428.8849 722.7549,-428.8849 722.7549,-434.8849 716.7549,-440.8849 710.7549,-440.8849 710.7549,-440.8849 634.7549,-440.8849 634.7549,-440.8849 628.7549,-440.8849 622.7549,-434.8849 622.7549,-428.8849 622.7549,-428.8849 622.7549,-380.8849 622.7549,-380.8849 622.7549,-374.8849 628.7549,-368.8849 634.7549,-368.8849"/>
<text text-anchor="middle" x="672.7549" y="-428.0849" font-family="Times,serif" font-size="11.00" fill="#c0c0c0">Forms</text>
</g>
<g id="clust20" class="cluster">
<title>cluster_\Firesphere\SolrSearch\Jobs</title>
<path fill="none" stroke="#c0c0c0" d="M600.7549,-180.8849C600.7549,-180.8849 744.7549,-180.8849 744.7549,-180.8849 750.7549,-180.8849 756.7549,-186.8849 756.7549,-192.8849 756.7549,-192.8849 756.7549,-348.8849 756.7549,-348.8849 756.7549,-354.8849 750.7549,-360.8849 744.7549,-360.8849 744.7549,-360.8849 600.7549,-360.8849 600.7549,-360.8849 594.7549,-360.8849 588.7549,-354.8849 588.7549,-348.8849 588.7549,-348.8849 588.7549,-192.8849 588.7549,-192.8849 588.7549,-186.8849 594.7549,-180.8849 600.7549,-180.8849"/>
<text text-anchor="middle" x="672.7549" y="-348.0849" font-family="Times,serif" font-size="11.00" fill="#c0c0c0">Jobs</text>
</g>
<g id="clust21" class="cluster">
<title>cluster_\Firesphere\SolrSearch\Interfaces</title>
<path fill="none" stroke="#c0c0c0" d="M189.1275,-2812.8849C189.1275,-2812.8849 319.1275,-2812.8849 319.1275,-2812.8849 325.1275,-2812.8849 331.1275,-2818.8849 331.1275,-2824.8849 331.1275,-2824.8849 331.1275,-2926.8849 331.1275,-2926.8849 331.1275,-2932.8849 325.1275,-2938.8849 319.1275,-2938.8849 319.1275,-2938.8849 189.1275,-2938.8849 189.1275,-2938.8849 183.1275,-2938.8849 177.1275,-2932.8849 177.1275,-2926.8849 177.1275,-2926.8849 177.1275,-2824.8849 177.1275,-2824.8849 177.1275,-2818.8849 183.1275,-2812.8849 189.1275,-2812.8849"/>
<text text-anchor="middle" x="254.1275" y="-2926.0849" font-family="Times,serif" font-size="11.00" fill="#c0c0c0">Interfaces</text>
</g>
<g id="clust22" class="cluster">
<title>cluster_\Firesphere\SolrFluent</title>
<path fill="none" stroke="#c0c0c0" d="M836.7549,-616.8849C836.7549,-616.8849 1016.7549,-616.8849 1016.7549,-616.8849 1022.7549,-616.8849 1028.7549,-622.8849 1028.7549,-628.8849 1028.7549,-628.8849 1028.7549,-900.8849 1028.7549,-900.8849 1028.7549,-906.8849 1022.7549,-912.8849 1016.7549,-912.8849 1016.7549,-912.8849 836.7549,-912.8849 836.7549,-912.8849 830.7549,-912.8849 824.7549,-906.8849 824.7549,-900.8849 824.7549,-900.8849 824.7549,-628.8849 824.7549,-628.8849 824.7549,-622.8849 830.7549,-616.8849 836.7549,-616.8849"/>
<text text-anchor="middle" x="926.7549" y="-900.0849" font-family="Times,serif" font-size="11.00" fill="#c0c0c0">SolrFluent</text>
</g>
<g id="clust23" class="cluster">
<title>cluster_\Firesphere\SolrFluent\States</title>
<path fill="none" stroke="#c0c0c0" d="M871.7549,-812.8849C871.7549,-812.8849 981.7549,-812.8849 981.7549,-812.8849 987.7549,-812.8849 993.7549,-818.8849 993.7549,-824.8849 993.7549,-824.8849 993.7549,-872.8849 993.7549,-872.8849 993.7549,-878.8849 987.7549,-884.8849 981.7549,-884.8849 981.7549,-884.8849 871.7549,-884.8849 871.7549,-884.8849 865.7549,-884.8849 859.7549,-878.8849 859.7549,-872.8849 859.7549,-872.8849 859.7549,-824.8849 859.7549,-824.8849 859.7549,-818.8849 865.7549,-812.8849 871.7549,-812.8849"/>
<text text-anchor="middle" x="926.7549" y="-872.0849" font-family="Times,serif" font-size="11.00" fill="#c0c0c0">States</text>
</g>
<g id="clust24" class="cluster">
<title>cluster_\Firesphere\SolrFluent\Extensions</title>
<path fill="none" stroke="#c0c0c0" d="M844.7549,-624.8849C844.7549,-624.8849 1008.7549,-624.8849 1008.7549,-624.8849 1014.7549,-624.8849 1020.7549,-630.8849 1020.7549,-636.8849 1020.7549,-636.8849 1020.7549,-792.8849 1020.7549,-792.8849 1020.7549,-798.8849 1014.7549,-804.8849 1008.7549,-804.8849 1008.7549,-804.8849 844.7549,-804.8849 844.7549,-804.8849 838.7549,-804.8849 832.7549,-798.8849 832.7549,-792.8849 832.7549,-792.8849 832.7549,-636.8849 832.7549,-636.8849 832.7549,-630.8849 838.7549,-624.8849 844.7549,-624.8849"/>
<text text-anchor="middle" x="926.7549" y="-792.0849" font-family="Times,serif" font-size="11.00" fill="#c0c0c0">Extensions</text>
</g>
<g id="clust25" class="cluster">
<title>cluster_\Firesphere\SolrSubsites</title>
<path fill="none" stroke="#c0c0c0" d="M857.2549,-920.8849C857.2549,-920.8849 996.2549,-920.8849 996.2549,-920.8849 1002.2549,-920.8849 1008.2549,-926.8849 1008.2549,-932.8849 1008.2549,-932.8849 1008.2549,-1096.8849 1008.2549,-1096.8849 1008.2549,-1102.8849 1002.2549,-1108.8849 996.2549,-1108.8849 996.2549,-1108.8849 857.2549,-1108.8849 857.2549,-1108.8849 851.2549,-1108.8849 845.2549,-1102.8849 845.2549,-1096.8849 845.2549,-1096.8849 845.2549,-932.8849 845.2549,-932.8849 845.2549,-926.8849 851.2549,-920.8849 857.2549,-920.8849"/>
<text text-anchor="middle" x="926.7549" y="-1096.0849" font-family="Times,serif" font-size="11.00" fill="#c0c0c0">SolrSubsites</text>
</g>
<g id="clust26" class="cluster">
<title>cluster_\Firesphere\SolrSubsites\States</title>
<path fill="none" stroke="#c0c0c0" d="M881.7549,-1008.8849C881.7549,-1008.8849 971.7549,-1008.8849 971.7549,-1008.8849 977.7549,-1008.8849 983.7549,-1014.8849 983.7549,-1020.8849 983.7549,-1020.8849 983.7549,-1068.8849 983.7549,-1068.8849 983.7549,-1074.8849 977.7549,-1080.8849 971.7549,-1080.8849 971.7549,-1080.8849 881.7549,-1080.8849 881.7549,-1080.8849 875.7549,-1080.8849 869.7549,-1074.8849 869.7549,-1068.8849 869.7549,-1068.8849 869.7549,-1020.8849 869.7549,-1020.8849 869.7549,-1014.8849 875.7549,-1008.8849 881.7549,-1008.8849"/>
<text text-anchor="middle" x="926.7549" y="-1068.0849" font-family="Times,serif" font-size="11.00" fill="#c0c0c0">States</text>
</g>
<g id="clust27" class="cluster">
<title>cluster_\Firesphere\SolrSubsites\Extensions</title>
<path fill="none" stroke="#c0c0c0" d="M865.2549,-928.8849C865.2549,-928.8849 988.2549,-928.8849 988.2549,-928.8849 994.2549,-928.8849 1000.2549,-934.8849 1000.2549,-940.8849 1000.2549,-940.8849 1000.2549,-988.8849 1000.2549,-988.8849 1000.2549,-994.8849 994.2549,-1000.8849 988.2549,-1000.8849 988.2549,-1000.8849 865.2549,-1000.8849 865.2549,-1000.8849 859.2549,-1000.8849 853.2549,-994.8849 853.2549,-988.8849 853.2549,-988.8849 853.2549,-940.8849 853.2549,-940.8849 853.2549,-934.8849 859.2549,-928.8849 865.2549,-928.8849"/>
<text text-anchor="middle" x="926.7549" y="-988.0849" font-family="Times,serif" font-size="11.00" fill="#c0c0c0">Extensions</text>
</g>
<g id="clust28" class="cluster">
<title>cluster_\Firesphere\SolrPermissions</title>
<path fill="none" stroke="#c0c0c0" d="M833.2549,-338.8849C833.2549,-338.8849 1020.2549,-338.8849 1020.2549,-338.8849 1026.2549,-338.8849 1032.2549,-344.8849 1032.2549,-350.8849 1032.2549,-350.8849 1032.2549,-596.8849 1032.2549,-596.8849 1032.2549,-602.8849 1026.2549,-608.8849 1020.2549,-608.8849 1020.2549,-608.8849 833.2549,-608.8849 833.2549,-608.8849 827.2549,-608.8849 821.2549,-602.8849 821.2549,-596.8849 821.2549,-596.8849 821.2549,-350.8849 821.2549,-350.8849 821.2549,-344.8849 827.2549,-338.8849 833.2549,-338.8849"/>
<text text-anchor="middle" x="926.7549" y="-596.0849" font-family="Times,serif" font-size="11.00" fill="#c0c0c0">SolrPermissions</text>
</g>
<g id="clust29" class="cluster">
<title>cluster_\Firesphere\SolrPermissions\Extensions</title>
<path fill="none" stroke="#c0c0c0" d="M841.2549,-346.8849C841.2549,-346.8849 1012.2549,-346.8849 1012.2549,-346.8849 1018.2549,-346.8849 1024.2549,-352.8849 1024.2549,-358.8849 1024.2549,-358.8849 1024.2549,-568.8849 1024.2549,-568.8849 1024.2549,-574.8849 1018.2549,-580.8849 1012.2549,-580.8849 1012.2549,-580.8849 841.2549,-580.8849 841.2549,-580.8849 835.2549,-580.8849 829.2549,-574.8849 829.2549,-568.8849 829.2549,-568.8849 829.2549,-358.8849 829.2549,-358.8849 829.2549,-352.8849 835.2549,-346.8849 841.2549,-346.8849"/>
<text text-anchor="middle" x="926.7549" y="-568.0849" font-family="Times,serif" font-size="11.00" fill="#c0c0c0">Extensions</text>
</g>
<g id="clust30" class="cluster">
<title>cluster_\SilverStripe</title>
<path fill="none" stroke="#c0c0c0" d="M861.2549,-3056.8849C861.2549,-3056.8849 992.2549,-3056.8849 992.2549,-3056.8849 998.2549,-3056.8849 1004.2549,-3062.8849 1004.2549,-3068.8849 1004.2549,-3068.8849 1004.2549,-3358.8849 1004.2549,-3358.8849 1004.2549,-3364.8849 998.2549,-3370.8849 992.2549,-3370.8849 992.2549,-3370.8849 861.2549,-3370.8849 861.2549,-3370.8849 855.2549,-3370.8849 849.2549,-3364.8849 849.2549,-3358.8849 849.2549,-3358.8849 849.2549,-3068.8849 849.2549,-3068.8849 849.2549,-3062.8849 855.2549,-3056.8849 861.2549,-3056.8849"/>
<text text-anchor="middle" x="926.7549" y="-3358.0849" font-family="Times,serif" font-size="11.00" fill="#c0c0c0">SilverStripe</text>
</g>
<g id="clust31" class="cluster">
<title>cluster_\SilverStripe\FullTextSearch</title>
<path fill="none" stroke="#c0c0c0" d="M869.2549,-3064.8849C869.2549,-3064.8849 984.2549,-3064.8849 984.2549,-3064.8849 990.2549,-3064.8849 996.2549,-3070.8849 996.2549,-3076.8849 996.2549,-3076.8849 996.2549,-3330.8849 996.2549,-3330.8849 996.2549,-3336.8849 990.2549,-3342.8849 984.2549,-3342.8849 984.2549,-3342.8849 869.2549,-3342.8849 869.2549,-3342.8849 863.2549,-3342.8849 857.2549,-3336.8849 857.2549,-3330.8849 857.2549,-3330.8849 857.2549,-3076.8849 857.2549,-3076.8849 857.2549,-3070.8849 863.2549,-3064.8849 869.2549,-3064.8849"/>
<text text-anchor="middle" x="926.7549" y="-3330.0849" font-family="Times,serif" font-size="11.00" fill="#c0c0c0">FullTextSearch</text>
</g>
<g id="clust32" class="cluster">
<title>cluster_\SilverStripe\FullTextSearch\Solr</title>
<path fill="none" stroke="#c0c0c0" d="M888.7549,-3072.8849C888.7549,-3072.8849 964.7549,-3072.8849 964.7549,-3072.8849 970.7549,-3072.8849 976.7549,-3078.8849 976.7549,-3084.8849 976.7549,-3084.8849 976.7549,-3186.8849 976.7549,-3186.8849 976.7549,-3192.8849 970.7549,-3198.8849 964.7549,-3198.8849 964.7549,-3198.8849 888.7549,-3198.8849 888.7549,-3198.8849 882.7549,-3198.8849 876.7549,-3192.8849 876.7549,-3186.8849 876.7549,-3186.8849 876.7549,-3084.8849 876.7549,-3084.8849 876.7549,-3078.8849 882.7549,-3072.8849 888.7549,-3072.8849"/>
<text text-anchor="middle" x="926.7549" y="-3186.0849" font-family="Times,serif" font-size="11.00" fill="#c0c0c0">Solr</text>
</g>
<g id="clust33" class="cluster">
<title>cluster_\SilverStripe\FullTextSearch\Search</title>
<path fill="none" stroke="#c0c0c0" d="M877.2549,-3206.8849C877.2549,-3206.8849 976.2549,-3206.8849 976.2549,-3206.8849 982.2549,-3206.8849 988.2549,-3212.8849 988.2549,-3218.8849 988.2549,-3218.8849 988.2549,-3302.8849 988.2549,-3302.8849 988.2549,-3308.8849 982.2549,-3314.8849 976.2549,-3314.8849 976.2549,-3314.8849 877.2549,-3314.8849 877.2549,-3314.8849 871.2549,-3314.8849 865.2549,-3308.8849 865.2549,-3302.8849 865.2549,-3302.8849 865.2549,-3218.8849 865.2549,-3218.8849 865.2549,-3212.8849 871.2549,-3206.8849 877.2549,-3206.8849"/>
<text text-anchor="middle" x="926.7549" y="-3302.0849" font-family="Times,serif" font-size="11.00" fill="#c0c0c0">Search</text>
</g>
<g id="clust34" class="cluster">
<title>cluster_\SilverStripe\FullTextSearch\Search\Queries</title>
<path fill="none" stroke="#c0c0c0" d="M885.2549,-3214.8849C885.2549,-3214.8849 968.2549,-3214.8849 968.2549,-3214.8849 974.2549,-3214.8849 980.2549,-3220.8849 980.2549,-3226.8849 980.2549,-3226.8849 980.2549,-3274.8849 980.2549,-3274.8849 980.2549,-3280.8849 974.2549,-3286.8849 968.2549,-3286.8849 968.2549,-3286.8849 885.2549,-3286.8849 885.2549,-3286.8849 879.2549,-3286.8849 873.2549,-3280.8849 873.2549,-3274.8849 873.2549,-3274.8849 873.2549,-3226.8849 873.2549,-3226.8849 873.2549,-3220.8849 879.2549,-3214.8849 885.2549,-3214.8849"/>
<text text-anchor="middle" x="926.7549" y="-3274.0849" font-family="Times,serif" font-size="11.00" fill="#c0c0c0">Queries</text>
</g>
<!-- \\Firesphere\\SolrCompatibility\\Extensions\\FulltextSearchExtension -->
<g id="node1" class="node">
<title>\\Firesphere\\SolrCompatibility\\Extensions\\FulltextSearchExtension</title>
<polygon fill="none" stroke="#000000" points="1012.7549,-274.8849 840.7549,-274.8849 840.7549,-238.8849 1012.7549,-238.8849 1012.7549,-274.8849"/>
<text text-anchor="middle" x="926.7549" y="-254.0849" font-family="Courier,monospace" font-size="11.00" fill="#000000">FulltextSearchExtension</text>
</g>
<!-- \\SilverStripe\\Core\\Extension -->
<g id="node63" class="node">
<title>\\SilverStripe\\Core\\Extension</title>
<ellipse fill="none" stroke="#000000" cx="254.1275" cy="-18.8849" rx="144.0747" ry="18"/>
<text text-anchor="middle" x="254.1275" y="-15.1849" font-family="Times,serif" font-size="14.00" fill="#c0c0c0">\SilverStripe\Core\Extension</text>
</g>
<!-- \\Firesphere\\SolrCompatibility\\Extensions\\FulltextSearchExtension&#45;&gt;\\SilverStripe\\Core\\Extension -->
<g id="edge1" class="edge">
<title>\\Firesphere\\SolrCompatibility\\Extensions\\FulltextSearchExtension&#45;&gt;\\SilverStripe\\Core\\Extension</title>
<path fill="none" stroke="#000000" d="M840.5088,-243.3165C833.4442,-239.7707 826.8743,-235.3607 821.2549,-229.8849 774.6022,-184.4241 828.6481,-133.5732 781.2549,-88.8849 745.3221,-55.0029 716.6848,-87.4531 672.7549,-64.8849"/>
</g>
<!-- \\Firesphere\\SolrCompatibility\\Extensions\\SolrCoreServiceExtension -->
<g id="node2" class="node">
<title>\\Firesphere\\SolrCompatibility\\Extensions\\SolrCoreServiceExtension</title>
<polygon fill="none" stroke="#000000" points="1016.2549,-220.8849 837.2549,-220.8849 837.2549,-184.8849 1016.2549,-184.8849 1016.2549,-220.8849"/>
<text text-anchor="middle" x="926.7549" y="-200.0849" font-family="Courier,monospace" font-size="11.00" fill="#000000">SolrCoreServiceExtension</text>
</g>
<!-- \\Firesphere\\SolrCompatibility\\Extensions\\SolrCoreServiceExtension&#45;&gt;\\SilverStripe\\Core\\Extension -->
<g id="edge2" class="edge">
<title>\\Firesphere\\SolrCompatibility\\Extensions\\SolrCoreServiceExtension&#45;&gt;\\SilverStripe\\Core\\Extension</title>
<path fill="none" stroke="#000000" d="M909.2812,-184.8053C883.6376,-159.3745 833.1975,-113.4113 781.2549,-88.8849 736.5953,-67.7974 716.6848,-87.4531 672.7549,-64.8849"/>
<path fill="none" stroke="#000000" d="M672.7549,-64.8849C585.4855,-20.0519 474.685,-9.5803 388.9993,-9.7659"/>
<polygon fill="none" stroke="#000000" points="388.9177,-6.2662 378.9425,-9.8365 388.9669,-13.2661 388.9177,-6.2662"/>
</g>
<!-- \\Firesphere\\SolrSearch\\Admins\\SearchAdmin -->
<g id="node3" class="node">
<title>\\Firesphere\\SolrSearch\\Admins\\SearchAdmin</title>
<polygon fill="none" stroke="#000000" points="718.2549,-2830.8849 627.2549,-2830.8849 627.2549,-2794.8849 718.2549,-2794.8849 718.2549,-2830.8849"/>
<text text-anchor="middle" x="672.7549" y="-2810.0849" font-family="Courier,monospace" font-size="11.00" fill="#000000">SearchAdmin</text>
</g>
<!-- \\SilverStripe\\Admin\\ModelAdmin -->
<g id="node64" class="node">
<title>\\SilverStripe\\Admin\\ModelAdmin</title>
<ellipse fill="none" stroke="#000000" cx="254.1275" cy="-126.8849" rx="165.1707" ry="18"/>
<text text-anchor="middle" x="254.1275" y="-123.1849" font-family="Times,serif" font-size="14.00" fill="#c0c0c0">\SilverStripe\Admin\ModelAdmin</text>
</g>
<!-- \\Firesphere\\SolrSearch\\Admins\\SearchAdmin&#45;&gt;\\SilverStripe\\Admin\\ModelAdmin -->
<g id="edge5" class="edge">
<title>\\Firesphere\\SolrSearch\\Admins\\SearchAdmin&#45;&gt;\\SilverStripe\\Admin\\ModelAdmin</title>
<path fill="none" stroke="#000000" d="M627.1523,-2810.1838C607.3948,-2806.5818 585.7442,-2798.9013 572.2549,-2782.8849 392.9971,-2570.0449 270.5425,-427.6339 255.6561,-155.3038"/>
<polygon fill="none" stroke="#000000" points="259.1374,-154.8623 255.0992,-145.0673 252.1477,-155.2427 259.1374,-154.8623"/>
</g>
<!-- \\Firesphere\\SolrSearch\\Stores\\FileConfigStore -->
<g id="node4" class="node">
<title>\\Firesphere\\SolrSearch\\Stores\\FileConfigStore</title>
<polygon fill="none" stroke="#000000" points="731.7549,-2964.8849 613.7549,-2964.8849 613.7549,-2928.8849 731.7549,-2928.8849 731.7549,-2964.8849"/>
<text text-anchor="middle" x="672.7549" y="-2944.0849" font-family="Courier,monospace" font-size="11.00" fill="#000000">FileConfigStore</text>
</g>
<!-- \\Firesphere\\SolrSearch\\Interfaces\\ConfigStore -->
<g id="node48" class="node">
<title>\\Firesphere\\SolrSearch\\Interfaces\\ConfigStore</title>
<polygon fill="none" stroke="#000000" points="299.6275,-2910.8849 208.6275,-2910.8849 208.6275,-2874.8849 299.6275,-2874.8849 299.6275,-2910.8849"/>
<text text-anchor="middle" x="254.1275" y="-2890.0849" font-family="Courier,monospace" font-size="11.00" fill="#000000">ConfigStore</text>
</g>
<!-- \\Firesphere\\SolrSearch\\Stores\\FileConfigStore&#45;&gt;\\Firesphere\\SolrSearch\\Interfaces\\ConfigStore -->
<g id="edge6" class="edge">
<title>\\Firesphere\\SolrSearch\\Stores\\FileConfigStore&#45;&gt;\\Firesphere\\SolrSearch\\Interfaces\\ConfigStore</title>
<path fill="none" stroke="#000000" stroke-dasharray="1,5" d="M613.6637,-2939.2626C532.8854,-2928.8427 389.0185,-2910.2849 309.9722,-2900.0885"/>
<polygon fill="none" stroke="#000000" points="310.0944,-2896.5753 299.7287,-2898.7672 309.1988,-2903.5178 310.0944,-2896.5753"/>
</g>
<!-- \\Firesphere\\SolrSearch\\Stores\\PostConfigStore -->
<g id="node5" class="node">
<title>\\Firesphere\\SolrSearch\\Stores\\PostConfigStore</title>
<polygon fill="none" stroke="#000000" points="731.7549,-2910.8849 613.7549,-2910.8849 613.7549,-2874.8849 731.7549,-2874.8849 731.7549,-2910.8849"/>
<text text-anchor="middle" x="672.7549" y="-2890.0849" font-family="Courier,monospace" font-size="11.00" fill="#000000">PostConfigStore</text>
</g>
<!-- \\Firesphere\\SolrSearch\\Stores\\PostConfigStore&#45;&gt;\\Firesphere\\SolrSearch\\Interfaces\\ConfigStore -->
<g id="edge7" class="edge">
<title>\\Firesphere\\SolrSearch\\Stores\\PostConfigStore&#45;&gt;\\Firesphere\\SolrSearch\\Interfaces\\ConfigStore</title>
<path fill="none" stroke="#000000" stroke-dasharray="1,5" d="M613.6637,-2892.8849C532.8854,-2892.8849 389.0185,-2892.8849 309.9722,-2892.8849"/>
<polygon fill="none" stroke="#000000" points="309.7288,-2889.385 299.7287,-2892.8849 309.7287,-2896.385 309.7288,-2889.385"/>
</g>
<!-- \\Firesphere\\SolrSearch\\States\\SiteState -->
<g id="node6" class="node">
<title>\\Firesphere\\SolrSearch\\States\\SiteState</title>
<polygon fill="none" stroke="#000000" points="714.7549,-2750.8849 630.7549,-2750.8849 630.7549,-2714.8849 714.7549,-2714.8849 714.7549,-2750.8849"/>
<text text-anchor="start" x="638.7549" y="-2736.0849" font-family="Courier,monospace" font-size="11.00" fill="#000000">«abstract»</text>
<text text-anchor="start" x="642.2549" y="-2724.0849" font-family="Courier,monospace" font-size="11.00" fill="#000000">SiteState</text>
</g>
<!-- \\Firesphere\\SolrSearch\\Results\\SearchResult -->
<g id="node7" class="node">
<title>\\Firesphere\\SolrSearch\\Results\\SearchResult</title>
<polygon fill="none" stroke="#000000" points="721.7549,-2670.8849 623.7549,-2670.8849 623.7549,-2634.8849 721.7549,-2634.8849 721.7549,-2670.8849"/>
<text text-anchor="middle" x="672.7549" y="-2650.0849" font-family="Courier,monospace" font-size="11.00" fill="#000000">SearchResult</text>
</g>
<!-- \\SilverStripe\\View\\ViewableData -->
<g id="node65" class="node">
<title>\\SilverStripe\\View\\ViewableData</title>
<ellipse fill="none" stroke="#000000" cx="254.1275" cy="-3694.8849" rx="163.2712" ry="18"/>
<text text-anchor="middle" x="254.1275" y="-3691.1849" font-family="Times,serif" font-size="14.00" fill="#c0c0c0">\SilverStripe\View\ViewableData</text>
</g>
<!-- \\Firesphere\\SolrSearch\\Results\\SearchResult&#45;&gt;\\SilverStripe\\View\\ViewableData -->
<g id="edge8" class="edge">
<title>\\Firesphere\\SolrSearch\\Results\\SearchResult&#45;&gt;\\SilverStripe\\View\\ViewableData</title>
<path fill="none" stroke="#000000" d="M623.5725,-2665.7156C604.367,-2673.3043 584.1402,-2685.0446 572.2549,-2702.8849 453.0985,-2881.7436 657.1827,-3512.9359 508.2549,-3667.8849 467.0827,-3710.7217 399.446,-3716.1304 344.2986,-3711.5469"/>
<polygon fill="none" stroke="#000000" points="344.4426,-3708.0449 334.1559,-3710.5816 343.7793,-3715.0134 344.4426,-3708.0449"/>
</g>
<!-- \\Firesphere\\SolrSearch\\Extensions\\DataObjectExtension -->
<g id="node8" class="node">
<title>\\Firesphere\\SolrSearch\\Extensions\\DataObjectExtension</title>
<polygon fill="none" stroke="#000000" points="745.2549,-2590.8849 600.2549,-2590.8849 600.2549,-2554.8849 745.2549,-2554.8849 745.2549,-2590.8849"/>
<text text-anchor="middle" x="672.7549" y="-2570.0849" font-family="Courier,monospace" font-size="11.00" fill="#000000">DataObjectExtension</text>
</g>
<!-- \\SilverStripe\\ORM\\DataExtension -->
<g id="node66" class="node">
<title>\\SilverStripe\\ORM\\DataExtension</title>
<ellipse fill="none" stroke="#000000" cx="254.1275" cy="-72.8849" rx="167.8704" ry="18"/>
<text text-anchor="middle" x="254.1275" y="-69.1849" font-family="Times,serif" font-size="14.00" fill="#c0c0c0">\SilverStripe\ORM\DataExtension</text>
</g>
<!-- \\Firesphere\\SolrSearch\\Extensions\\DataObjectExtension&#45;&gt;\\SilverStripe\\ORM\\DataExtension -->
<g id="edge9" class="edge">
<title>\\Firesphere\\SolrSearch\\Extensions\\DataObjectExtension&#45;&gt;\\SilverStripe\\ORM\\DataExtension</title>
<path fill="none" stroke="#000000" d="M600.0325,-2565.4308C589.269,-2561.1966 579.4102,-2554.9677 572.2549,-2545.8849 488.1345,-2439.1039 600.4705,-199.7584 508.2549,-99.8849 467.3824,-55.6182 398.3639,-50.7175 342.5611,-55.8747"/>
<polygon fill="none" stroke="#000000" points="341.8867,-52.4261 332.3051,-56.9475 342.615,-59.3881 341.8867,-52.4261"/>
</g>
<!-- \\Firesphere\\SolrSearch\\Extensions\\GridFieldExtension -->
<g id="node9" class="node">
<title>\\Firesphere\\SolrSearch\\Extensions\\GridFieldExtension</title>
<polygon fill="none" stroke="#000000" points="741.7549,-2536.8849 603.7549,-2536.8849 603.7549,-2500.8849 741.7549,-2500.8849 741.7549,-2536.8849"/>
<text text-anchor="middle" x="672.7549" y="-2516.0849" font-family="Courier,monospace" font-size="11.00" fill="#000000">GridFieldExtension</text>
</g>
<!-- \\Firesphere\\SolrSearch\\Extensions\\GridFieldExtension&#45;&gt;\\SilverStripe\\Core\\Extension -->
<g id="edge10" class="edge">
<title>\\Firesphere\\SolrSearch\\Extensions\\GridFieldExtension&#45;&gt;\\SilverStripe\\Core\\Extension</title>
<path fill="none" stroke="#000000" d="M603.7278,-2510.706C591.503,-2506.1251 580.1697,-2499.2221 572.2549,-2488.8849 489.717,-2381.0857 600.3591,-145.6345 508.2549,-45.8849 466.3741,-.5277 394.9433,3.4996 338.4585,-2.2744"/>
<polygon fill="none" stroke="#000000" points="337.9952,1.1955 328.4555,-3.4136 338.7873,-5.7595 337.9952,1.1955"/>
</g>
<!-- \\Firesphere\\SolrSearch\\Traits\\BaseQueryTrait -->
<g id="node10" class="node">
<title>\\Firesphere\\SolrSearch\\Traits\\BaseQueryTrait</title>
<polygon fill="none" stroke="#000000" points="728.2549,-2456.8849 617.2549,-2456.8849 617.2549,-2420.8849 728.2549,-2420.8849 728.2549,-2456.8849"/>
<text text-anchor="middle" x="672.7549" y="-2436.0849" font-family="Courier,monospace" font-size="11.00" fill="#000000">BaseQueryTrait</text>
</g>
<!-- \\Firesphere\\SolrSearch\\Traits\\QueryComponentBoostTrait -->
<g id="node11" class="node">
<title>\\Firesphere\\SolrSearch\\Traits\\QueryComponentBoostTrait</title>
<polygon fill="none" stroke="#000000" points="762.2549,-2402.8849 583.2549,-2402.8849 583.2549,-2366.8849 762.2549,-2366.8849 762.2549,-2402.8849"/>
<text text-anchor="middle" x="672.7549" y="-2382.0849" font-family="Courier,monospace" font-size="11.00" fill="#000000">QueryComponentBoostTrait</text>
</g>
<!-- \\Firesphere\\SolrSearch\\Traits\\QueryComponentFilterTrait -->
<g id="node12" class="node">
<title>\\Firesphere\\SolrSearch\\Traits\\QueryComponentFilterTrait</title>
<polygon fill="none" stroke="#000000" points="765.2549,-2348.8849 580.2549,-2348.8849 580.2549,-2312.8849 765.2549,-2312.8849 765.2549,-2348.8849"/>
<text text-anchor="middle" x="672.7549" y="-2328.0849" font-family="Courier,monospace" font-size="11.00" fill="#000000">QueryComponentFilterTrait</text>
</g>
<!-- \\Firesphere\\SolrSearch\\Traits\\QueryComponentFacetTrait -->
<g id="node13" class="node">
<title>\\Firesphere\\SolrSearch\\Traits\\QueryComponentFacetTrait</title>
<polygon fill="none" stroke="#000000" points="762.2549,-2294.8849 583.2549,-2294.8849 583.2549,-2258.8849 762.2549,-2258.8849 762.2549,-2294.8849"/>
<text text-anchor="middle" x="672.7549" y="-2274.0849" font-family="Courier,monospace" font-size="11.00" fill="#000000">QueryComponentFacetTrait</text>
</g>
<!-- \\Firesphere\\SolrSearch\\Traits\\GetterSetterTrait -->
<g id="node14" class="node">
<title>\\Firesphere\\SolrSearch\\Traits\\GetterSetterTrait</title>
<polygon fill="none" stroke="#000000" points="738.2549,-2240.8849 607.2549,-2240.8849 607.2549,-2204.8849 738.2549,-2204.8849 738.2549,-2240.8849"/>
<text text-anchor="middle" x="672.7549" y="-2220.0849" font-family="Courier,monospace" font-size="11.00" fill="#000000">GetterSetterTrait</text>
</g>
<!-- \\Firesphere\\SolrSearch\\Traits\\CoreAdminTrait -->
<g id="node15" class="node">
<title>\\Firesphere\\SolrSearch\\Traits\\CoreAdminTrait</title>
<polygon fill="none" stroke="#000000" points="728.2549,-2186.8849 617.2549,-2186.8849 617.2549,-2150.8849 728.2549,-2150.8849 728.2549,-2186.8849"/>
<text text-anchor="middle" x="672.7549" y="-2166.0849" font-family="Courier,monospace" font-size="11.00" fill="#000000">CoreAdminTrait</text>
</g>
<!-- \\Firesphere\\SolrSearch\\Traits\\CoreServiceTrait -->
<g id="node16" class="node">
<title>\\Firesphere\\SolrSearch\\Traits\\CoreServiceTrait</title>
<polygon fill="none" stroke="#000000" points="735.2549,-2132.8849 610.2549,-2132.8849 610.2549,-2096.8849 735.2549,-2096.8849 735.2549,-2132.8849"/>
<text text-anchor="middle" x="672.7549" y="-2112.0849" font-family="Courier,monospace" font-size="11.00" fill="#000000">CoreServiceTrait</text>
</g>
<!-- \\Firesphere\\SolrSearch\\Traits\\GetSetSearchResolverTrait -->
<g id="node17" class="node">
<title>\\Firesphere\\SolrSearch\\Traits\\GetSetSearchResolverTrait</title>
<polygon fill="none" stroke="#000000" points="765.2549,-2078.8849 580.2549,-2078.8849 580.2549,-2042.8849 765.2549,-2042.8849 765.2549,-2078.8849"/>
<text text-anchor="middle" x="672.7549" y="-2058.0849" font-family="Courier,monospace" font-size="11.00" fill="#000000">GetSetSearchResolverTrait</text>
</g>
<!-- \\Firesphere\\SolrSearch\\Traits\\DocumentFactoryTrait -->
<g id="node18" class="node">
<title>\\Firesphere\\SolrSearch\\Traits\\DocumentFactoryTrait</title>
<polygon fill="none" stroke="#000000" points="748.7549,-2024.8849 596.7549,-2024.8849 596.7549,-1988.8849 748.7549,-1988.8849 748.7549,-2024.8849"/>
<text text-anchor="middle" x="672.7549" y="-2004.0849" font-family="Courier,monospace" font-size="11.00" fill="#000000">DocumentFactoryTrait</text>
</g>
<!-- \\Firesphere\\SolrSearch\\Traits\\GetSetSchemaFactoryTrait -->
<g id="node19" class="node">
<title>\\Firesphere\\SolrSearch\\Traits\\GetSetSchemaFactoryTrait</title>
<polygon fill="none" stroke="#000000" points="762.2549,-1970.8849 583.2549,-1970.8849 583.2549,-1934.8849 762.2549,-1934.8849 762.2549,-1970.8849"/>
<text text-anchor="middle" x="672.7549" y="-1950.0849" font-family="Courier,monospace" font-size="11.00" fill="#000000">GetSetSchemaFactoryTrait</text>
</g>
<!-- \\Firesphere\\SolrSearch\\Traits\\SolrIndexTrait -->
<g id="node20" class="node">
<title>\\Firesphere\\SolrSearch\\Traits\\SolrIndexTrait</title>
<polygon fill="none" stroke="#000000" points="728.2549,-1916.8849 617.2549,-1916.8849 617.2549,-1880.8849 728.2549,-1880.8849 728.2549,-1916.8849"/>
<text text-anchor="middle" x="672.7549" y="-1896.0849" font-family="Courier,monospace" font-size="11.00" fill="#000000">SolrIndexTrait</text>
</g>
<!-- \\Firesphere\\SolrSearch\\Traits\\BaseIndexTrait -->
<g id="node21" class="node">
<title>\\Firesphere\\SolrSearch\\Traits\\BaseIndexTrait</title>
<polygon fill="none" stroke="#000000" points="728.2549,-1862.8849 617.2549,-1862.8849 617.2549,-1826.8849 728.2549,-1826.8849 728.2549,-1862.8849"/>
<text text-anchor="middle" x="672.7549" y="-1842.0849" font-family="Courier,monospace" font-size="11.00" fill="#000000">BaseIndexTrait</text>
</g>
<!-- \\Firesphere\\SolrSearch\\Traits\\DataResolveTrait -->
<g id="node22" class="node">
<title>\\Firesphere\\SolrSearch\\Traits\\DataResolveTrait</title>
<polygon fill="none" stroke="#000000" points="735.2549,-1808.8849 610.2549,-1808.8849 610.2549,-1772.8849 735.2549,-1772.8849 735.2549,-1808.8849"/>
<text text-anchor="middle" x="672.7549" y="-1788.0849" font-family="Courier,monospace" font-size="11.00" fill="#000000">DataResolveTrait</text>
</g>
<!-- \\Firesphere\\SolrSearch\\Traits\\LoggerTrait -->
<g id="node23" class="node">
<title>\\Firesphere\\SolrSearch\\Traits\\LoggerTrait</title>
<polygon fill="none" stroke="#000000" points="718.2549,-1754.8849 627.2549,-1754.8849 627.2549,-1718.8849 718.2549,-1718.8849 718.2549,-1754.8849"/>
<text text-anchor="middle" x="672.7549" y="-1734.0849" font-family="Courier,monospace" font-size="11.00" fill="#000000">LoggerTrait</text>
</g>
<!-- \\Firesphere\\SolrSearch\\Traits\\SearchResultSetTrait -->
<g id="node24" class="node">
<title>\\Firesphere\\SolrSearch\\Traits\\SearchResultSetTrait</title>
<polygon fill="none" stroke="#000000" points="748.7549,-1700.8849 596.7549,-1700.8849 596.7549,-1664.8849 748.7549,-1664.8849 748.7549,-1700.8849"/>
<text text-anchor="middle" x="672.7549" y="-1680.0849" font-family="Courier,monospace" font-size="11.00" fill="#000000">SearchResultSetTrait</text>
</g>
<!-- \\Firesphere\\SolrSearch\\Traits\\SearchResultGetTrait -->
<g id="node25" class="node">
<title>\\Firesphere\\SolrSearch\\Traits\\SearchResultGetTrait</title>
<polygon fill="none" stroke="#000000" points="748.7549,-1646.8849 596.7549,-1646.8849 596.7549,-1610.8849 748.7549,-1610.8849 748.7549,-1646.8849"/>
<text text-anchor="middle" x="672.7549" y="-1626.0849" font-family="Courier,monospace" font-size="11.00" fill="#000000">SearchResultGetTrait</text>
</g>
<!-- \\Firesphere\\SolrSearch\\Tasks\\ClearErrorsTask -->
<g id="node26" class="node">
<title>\\Firesphere\\SolrSearch\\Tasks\\ClearErrorsTask</title>
<polygon fill="none" stroke="#000000" points="731.7549,-1566.8849 613.7549,-1566.8849 613.7549,-1530.8849 731.7549,-1530.8849 731.7549,-1566.8849"/>
<text text-anchor="middle" x="672.7549" y="-1546.0849" font-family="Courier,monospace" font-size="11.00" fill="#000000">ClearErrorsTask</text>
</g>
<!-- \\SilverStripe\\Dev\\BuildTask -->
<g id="node67" class="node">
<title>\\SilverStripe\\Dev\\BuildTask</title>
<ellipse fill="none" stroke="#000000" cx="254.1275" cy="-3640.8849" rx="139.9756" ry="18"/>
<text text-anchor="middle" x="254.1275" y="-3637.1849" font-family="Times,serif" font-size="14.00" fill="#c0c0c0">\SilverStripe\Dev\BuildTask</text>
</g>
<!-- \\Firesphere\\SolrSearch\\Tasks\\ClearErrorsTask&#45;&gt;\\SilverStripe\\Dev\\BuildTask -->
<g id="edge11" class="edge">
<title>\\Firesphere\\SolrSearch\\Tasks\\ClearErrorsTask&#45;&gt;\\SilverStripe\\Dev\\BuildTask</title>
<path fill="none" stroke="#000000" d="M613.5216,-1565.6976C597.4688,-1573.2097 581.8841,-1583.8768 572.2549,-1598.8849 451.2923,-1787.4183 660.6725,-3449.7335 508.2549,-3613.8849 466.1057,-3659.2789 394.3438,-3663.1899 337.8062,-3657.3638"/>
<polygon fill="none" stroke="#000000" points="338.1305,-3653.8781 327.7968,-3656.216 337.3329,-3660.8326 338.1305,-3653.8781"/>
</g>
<!-- \\Firesphere\\SolrSearch\\Tasks\\ClearDirtyClassesTask -->
<g id="node27" class="node">
<title>\\Firesphere\\SolrSearch\\Tasks\\ClearDirtyClassesTask</title>
<polygon fill="none" stroke="#000000" points="751.7549,-1512.8849 593.7549,-1512.8849 593.7549,-1476.8849 751.7549,-1476.8849 751.7549,-1512.8849"/>
<text text-anchor="middle" x="672.7549" y="-1492.0849" font-family="Courier,monospace" font-size="11.00" fill="#000000">ClearDirtyClassesTask</text>
</g>
<!-- \\Firesphere\\SolrSearch\\Tasks\\ClearDirtyClassesTask&#45;&gt;\\SilverStripe\\Dev\\BuildTask -->
<g id="edge12" class="edge">
<title>\\Firesphere\\SolrSearch\\Tasks\\ClearDirtyClassesTask&#45;&gt;\\SilverStripe\\Dev\\BuildTask</title>
<path fill="none" stroke="#000000" d="M593.6314,-1505.1976C585.401,-1509.2417 577.9727,-1514.6597 572.2549,-1521.8849 427.9411,-1704.2431 666.3915,-3443.3745 508.2549,-3613.8849 466.1323,-3659.3035 394.3679,-3663.2122 337.8227,-3657.3791"/>
<polygon fill="none" stroke="#000000" points="338.1458,-3653.8932 327.8118,-3656.2299 337.3474,-3660.8476 338.1458,-3653.8932"/>
</g>
<!-- \\Firesphere\\SolrSearch\\Tasks\\SolrConfigureTask -->
<g id="node28" class="node">
<title>\\Firesphere\\SolrSearch\\Tasks\\SolrConfigureTask</title>
<polygon fill="none" stroke="#000000" points="738.2549,-1458.8849 607.2549,-1458.8849 607.2549,-1422.8849 738.2549,-1422.8849 738.2549,-1458.8849"/>
<text text-anchor="middle" x="672.7549" y="-1438.0849" font-family="Courier,monospace" font-size="11.00" fill="#000000">SolrConfigureTask</text>
</g>
<!-- \\Firesphere\\SolrSearch\\Tasks\\SolrConfigureTask&#45;&gt;\\SilverStripe\\Dev\\BuildTask -->
<g id="edge13" class="edge">
<title>\\Firesphere\\SolrSearch\\Tasks\\SolrConfigureTask&#45;&gt;\\SilverStripe\\Dev\\BuildTask</title>
<path fill="none" stroke="#000000" d="M607.2364,-1445.8607C593.7398,-1450.0069 580.9956,-1456.8312 572.2549,-1467.8849 424.2913,-1655.0028 670.4024,-3438.9149 508.2549,-3613.8849 466.0786,-3659.3965 394.1412,-3663.24 337.5471,-3657.3594"/>
<polygon fill="none" stroke="#000000" points="337.8644,-3653.8729 327.5288,-3656.2019 337.061,-3660.8266 337.8644,-3653.8729"/>
</g>
<!-- \\Firesphere\\SolrSearch\\Tasks\\SolrIndexTask -->
<g id="node29" class="node">
<title>\\Firesphere\\SolrSearch\\Tasks\\SolrIndexTask</title>
<polygon fill="none" stroke="#000000" points="724.7549,-1404.8849 620.7549,-1404.8849 620.7549,-1368.8849 724.7549,-1368.8849 724.7549,-1404.8849"/>
<text text-anchor="middle" x="672.7549" y="-1384.0849" font-family="Courier,monospace" font-size="11.00" fill="#000000">SolrIndexTask</text>
</g>
<!-- \\Firesphere\\SolrSearch\\Tasks\\SolrIndexTask&#45;&gt;\\SilverStripe\\Dev\\BuildTask -->
<g id="edge14" class="edge">
<title>\\Firesphere\\SolrSearch\\Tasks\\SolrIndexTask&#45;&gt;\\SilverStripe\\Dev\\BuildTask</title>
<path fill="none" stroke="#000000" d="M620.5954,-1388.5944C602.494,-1391.9918 583.8478,-1399.2133 572.2549,-1413.8849 420.6415,-1605.7626 674.4134,-3434.4552 508.2549,-3613.8849 466.0952,-3659.4119 394.1563,-3663.254 337.5573,-3657.369"/>
<polygon fill="none" stroke="#000000" points="337.874,-3653.8823 327.5382,-3656.2106 337.07,-3660.836 337.874,-3653.8823"/>
</g>
<!-- \\Firesphere\\SolrSearch\\Indexes\\BaseIndex -->
<g id="node30" class="node">
<title>\\Firesphere\\SolrSearch\\Indexes\\BaseIndex</title>
<polygon fill="none" stroke="#000000" points="714.7549,-1244.8849 630.7549,-1244.8849 630.7549,-1208.8849 714.7549,-1208.8849 714.7549,-1244.8849"/>
<text text-anchor="start" x="638.7549" y="-1230.0849" font-family="Courier,monospace" font-size="11.00" fill="#000000">«abstract»</text>
<text text-anchor="start" x="642.2549" y="-1218.0849" font-family="Courier,monospace" font-size="11.00" fill="#000000">BaseIndex</text>
</g>
<!-- \\Firesphere\\SolrSearch\\Queries\\BaseQuery -->
<g id="node31" class="node">
<title>\\Firesphere\\SolrSearch\\Queries\\BaseQuery</title>
<polygon fill="none" stroke="#000000" points="711.2549,-1324.8849 634.2549,-1324.8849 634.2549,-1288.8849 711.2549,-1288.8849 711.2549,-1324.8849"/>
<text text-anchor="middle" x="672.7549" y="-1304.0849" font-family="Courier,monospace" font-size="11.00" fill="#000000">BaseQuery</text>
</g>
<!-- \\Firesphere\\SolrSearch\\Services\\SolrCoreService -->
<g id="node32" class="node">
<title>\\Firesphere\\SolrSearch\\Services\\SolrCoreService</title>
<polygon fill="none" stroke="#000000" points="731.7549,-1164.8849 613.7549,-1164.8849 613.7549,-1128.8849 731.7549,-1128.8849 731.7549,-1164.8849"/>
<text text-anchor="middle" x="672.7549" y="-1144.0849" font-family="Courier,monospace" font-size="11.00" fill="#000000">SolrCoreService</text>
</g>
<!-- \\Firesphere\\SolrSearch\\Models\\SearchSynonym -->
<g id="node33" class="node">
<title>\\Firesphere\\SolrSearch\\Models\\SearchSynonym</title>
<polygon fill="none" stroke="#000000" points="724.7549,-896.8849 620.7549,-896.8849 620.7549,-860.8849 724.7549,-860.8849 724.7549,-896.8849"/>
<text text-anchor="middle" x="672.7549" y="-876.0849" font-family="Courier,monospace" font-size="11.00" fill="#000000">SearchSynonym</text>
</g>
<!-- \\SilverStripe\\ORM\\DataObject -->
<g id="node68" class="node">
<title>\\SilverStripe\\ORM\\DataObject</title>
<ellipse fill="none" stroke="#000000" cx="254.1275" cy="-3586.8849" rx="152.9733" ry="18"/>
<text text-anchor="middle" x="254.1275" y="-3583.1849" font-family="Times,serif" font-size="14.00" fill="#c0c0c0">\SilverStripe\ORM\DataObject</text>
</g>
<!-- \\Firesphere\\SolrSearch\\Models\\SearchSynonym&#45;&gt;\\SilverStripe\\ORM\\DataObject -->
<g id="edge15" class="edge">
<title>\\Firesphere\\SolrSearch\\Models\\SearchSynonym&#45;&gt;\\SilverStripe\\ORM\\DataObject</title>
<path fill="none" stroke="#000000" d="M620.5731,-892.5321C602.1216,-900.1082 583.2407,-911.6216 572.2549,-928.8849 493.7582,-1052.2365 607.3418,-3452.3715 508.2549,-3559.8849 466.7711,-3604.8966 396.1906,-3609.234 339.9246,-3603.6648"/>
<polygon fill="none" stroke="#000000" points="340.2783,-3600.1827 329.9539,-3602.5612 339.5081,-3607.1402 340.2783,-3600.1827"/>
</g>
<!-- \\Firesphere\\SolrSearch\\Models\\DirtyClass -->
<g id="node34" class="node">
<title>\\Firesphere\\SolrSearch\\Models\\DirtyClass</title>
<polygon fill="none" stroke="#000000" points="714.7549,-842.8849 630.7549,-842.8849 630.7549,-806.8849 714.7549,-806.8849 714.7549,-842.8849"/>
<text text-anchor="middle" x="672.7549" y="-822.0849" font-family="Courier,monospace" font-size="11.00" fill="#000000">DirtyClass</text>
</g>
<!-- \\Firesphere\\SolrSearch\\Models\\DirtyClass&#45;&gt;\\SilverStripe\\ORM\\DataObject -->
<g id="edge16" class="edge">
<title>\\Firesphere\\SolrSearch\\Models\\DirtyClass&#45;&gt;\\SilverStripe\\ORM\\DataObject</title>
<path fill="none" stroke="#000000" d="M630.6793,-825.0267C609.7211,-827.4961 585.9843,-834.4116 572.2549,-851.8849 479.2795,-970.2139 610.2017,-3449.1916 508.2549,-3559.8849 466.7157,-3604.9879 395.9636,-3609.2619 339.646,-3603.6453"/>
<polygon fill="none" stroke="#000000" points="339.9936,-3600.1625 329.6674,-3602.5333 339.2183,-3607.1194 339.9936,-3600.1625"/>
</g>
<!-- \\Firesphere\\SolrSearch\\Models\\SolrLog -->
<g id="node35" class="node">
<title>\\Firesphere\\SolrSearch\\Models\\SolrLog</title>
<polygon fill="none" stroke="#000000" points="704.7549,-788.8849 640.7549,-788.8849 640.7549,-752.8849 704.7549,-752.8849 704.7549,-788.8849"/>
<text text-anchor="middle" x="672.7549" y="-768.0849" font-family="Courier,monospace" font-size="11.00" fill="#000000">SolrLog</text>
</g>
<!-- \\Firesphere\\SolrSearch\\Models\\SolrLog&#45;&gt;\\SilverStripe\\ORM\\DataObject -->
<g id="edge17" class="edge">
<title>\\Firesphere\\SolrSearch\\Models\\SolrLog&#45;&gt;\\SilverStripe\\ORM\\DataObject</title>
<path fill="none" stroke="#000000" d="M640.6247,-770.1464C617.7008,-771.523 588.2121,-777.5667 572.2549,-797.8849 477.4544,-918.5941 612.2074,-3446.9615 508.2549,-3559.8849 466.7262,-3604.9975 395.9732,-3609.2707 339.6527,-3603.6514"/>
<polygon fill="none" stroke="#000000" points="339.9998,-3600.1685 329.6735,-3602.5389 339.2241,-3607.1254 339.9998,-3600.1685"/>
</g>
<!-- \\SilverStripe\\Security\\PermissionProvider -->
<g id="node69" class="node">
<title>\\SilverStripe\\Security\\PermissionProvider</title>
<ellipse fill="none" stroke="#000000" cx="254.1275" cy="-3532.8849" rx="206.0634" ry="18"/>
<text text-anchor="middle" x="254.1275" y="-3529.1849" font-family="Times,serif" font-size="14.00" fill="#c0c0c0">\SilverStripe\Security\PermissionProvider</text>
</g>
<!-- \\Firesphere\\SolrSearch\\Models\\SolrLog&#45;&gt;\\SilverStripe\\Security\\PermissionProvider -->
<g id="edge18" class="edge">
<title>\\Firesphere\\SolrSearch\\Models\\SolrLog&#45;&gt;\\SilverStripe\\Security\\PermissionProvider</title>
<path fill="none" stroke="#000000" stroke-dasharray="1,5" d="M640.6275,-770.1485C617.7049,-771.5263 588.2168,-777.5704 572.2549,-797.8849 479.2795,-916.2139 610.2017,-3395.1916 508.2549,-3505.8849 468.5702,-3548.9743 402.2227,-3554.7989 347.2712,-3550.3357"/>
<polygon fill="none" stroke="#000000" points="347.4347,-3546.8358 337.1522,-3549.3892 346.7828,-3553.8053 347.4347,-3546.8358"/>
</g>
<!-- \\Firesphere\\SolrSearch\\Factories\\DocumentFactory -->
<g id="node36" class="node">
<title>\\Firesphere\\SolrSearch\\Factories\\DocumentFactory</title>
<polygon fill="none" stroke="#000000" points="731.7549,-1084.8849 613.7549,-1084.8849 613.7549,-1048.8849 731.7549,-1048.8849 731.7549,-1084.8849"/>
<text text-anchor="middle" x="672.7549" y="-1064.0849" font-family="Courier,monospace" font-size="11.00" fill="#000000">DocumentFactory</text>
</g>
<!-- \\Firesphere\\SolrSearch\\Factories\\SchemaFactory -->
<g id="node37" class="node">
<title>\\Firesphere\\SolrSearch\\Factories\\SchemaFactory</title>
<polygon fill="none" stroke="#000000" points="724.7549,-1030.8849 620.7549,-1030.8849 620.7549,-994.8849 724.7549,-994.8849 724.7549,-1030.8849"/>
<text text-anchor="middle" x="672.7549" y="-1010.0849" font-family="Courier,monospace" font-size="11.00" fill="#000000">SchemaFactory</text>
</g>
<!-- \\Firesphere\\SolrSearch\\Factories\\SchemaFactory&#45;&gt;\\SilverStripe\\View\\ViewableData -->
<g id="edge19" class="edge">
<title>\\Firesphere\\SolrSearch\\Factories\\SchemaFactory&#45;&gt;\\SilverStripe\\View\\ViewableData</title>
<path fill="none" stroke="#000000" d="M620.5584,-1014.5652C602.4526,-1017.9591 583.813,-1025.1859 572.2549,-1039.8849 481.9833,-1154.6877 607.2303,-3560.4954 508.2549,-3667.8849 467.2102,-3712.4189 397.6831,-3717.1369 341.7181,-3711.8382"/>
<polygon fill="none" stroke="#000000" points="341.7513,-3708.3219 331.436,-3710.7396 341.0075,-3715.2823 341.7513,-3708.3219"/>
</g>
<!-- \\Firesphere\\SolrSearch\\Factories\\QueryComponentFactory -->
<g id="node38" class="node">
<title>\\Firesphere\\SolrSearch\\Factories\\QueryComponentFactory</title>
<polygon fill="none" stroke="#000000" points="751.7549,-976.8849 593.7549,-976.8849 593.7549,-940.8849 751.7549,-940.8849 751.7549,-976.8849"/>
<text text-anchor="middle" x="672.7549" y="-956.0849" font-family="Courier,monospace" font-size="11.00" fill="#000000">QueryComponentFactory</text>
</g>
<!-- \\Firesphere\\SolrSearch\\Helpers\\DataResolver -->
<g id="node39" class="node">
<title>\\Firesphere\\SolrSearch\\Helpers\\DataResolver</title>
<polygon fill="none" stroke="#000000" points="721.7549,-708.8849 623.7549,-708.8849 623.7549,-672.8849 721.7549,-672.8849 721.7549,-708.8849"/>
<text text-anchor="middle" x="672.7549" y="-688.0849" font-family="Courier,monospace" font-size="11.00" fill="#000000">DataResolver</text>
</g>
<!-- \\Firesphere\\SolrSearch\\Helpers\\Synonyms -->
<g id="node40" class="node">
<title>\\Firesphere\\SolrSearch\\Helpers\\Synonyms</title>
<polygon fill="none" stroke="#000000" points="708.2549,-654.8849 637.2549,-654.8849 637.2549,-618.8849 708.2549,-618.8849 708.2549,-654.8849"/>
<text text-anchor="middle" x="672.7549" y="-634.0849" font-family="Courier,monospace" font-size="11.00" fill="#000000">Synonyms</text>
</g>
<!-- \\Firesphere\\SolrSearch\\Helpers\\Statics -->
<g id="node41" class="node">
<title>\\Firesphere\\SolrSearch\\Helpers\\Statics</title>
<polygon fill="none" stroke="#000000" points="704.7549,-600.8849 640.7549,-600.8849 640.7549,-564.8849 704.7549,-564.8849 704.7549,-600.8849"/>
<text text-anchor="middle" x="672.7549" y="-580.0849" font-family="Courier,monospace" font-size="11.00" fill="#000000">Statics</text>
</g>
<!-- \\Firesphere\\SolrSearch\\Helpers\\FieldResolver -->
<g id="node42" class="node">
<title>\\Firesphere\\SolrSearch\\Helpers\\FieldResolver</title>
<polygon fill="none" stroke="#000000" points="724.7549,-546.8849 620.7549,-546.8849 620.7549,-510.8849 724.7549,-510.8849 724.7549,-546.8849"/>
<text text-anchor="middle" x="672.7549" y="-526.0849" font-family="Courier,monospace" font-size="11.00" fill="#000000">FieldResolver</text>
</g>
<!-- \\Firesphere\\SolrSearch\\Helpers\\SolrLogger -->
<g id="node43" class="node">
<title>\\Firesphere\\SolrSearch\\Helpers\\SolrLogger</title>
<polygon fill="none" stroke="#000000" points="714.7549,-492.8849 630.7549,-492.8849 630.7549,-456.8849 714.7549,-456.8849 714.7549,-492.8849"/>
<text text-anchor="middle" x="672.7549" y="-472.0849" font-family="Courier,monospace" font-size="11.00" fill="#000000">SolrLogger</text>
</g>
<!-- \\Firesphere\\SolrSearch\\Forms\\SearchForm -->
<g id="node44" class="node">
<title>\\Firesphere\\SolrSearch\\Forms\\SearchForm</title>
<polygon fill="none" stroke="#000000" points="714.7549,-412.8849 630.7549,-412.8849 630.7549,-376.8849 714.7549,-376.8849 714.7549,-412.8849"/>
<text text-anchor="middle" x="672.7549" y="-392.0849" font-family="Courier,monospace" font-size="11.00" fill="#000000">SearchForm</text>
</g>
<!-- \\SilverStripe\\Forms\\Form -->
<g id="node70" class="node">
<title>\\SilverStripe\\Forms\\Form</title>
<ellipse fill="none" stroke="#000000" cx="254.1275" cy="-3478.8849" rx="129.1772" ry="18"/>
<text text-anchor="middle" x="254.1275" y="-3475.1849" font-family="Times,serif" font-size="14.00" fill="#c0c0c0">\SilverStripe\Forms\Form</text>
</g>
<!-- \\Firesphere\\SolrSearch\\Forms\\SearchForm&#45;&gt;\\SilverStripe\\Forms\\Form -->
<g id="edge20" class="edge">
<title>\\Firesphere\\SolrSearch\\Forms\\SearchForm&#45;&gt;\\SilverStripe\\Forms\\Form</title>
<path fill="none" stroke="#000000" d="M630.7308,-404.6913C609.3749,-412.0098 585.2498,-424.3958 572.2549,-444.8849 482.7607,-585.9912 621.3077,-3328.8431 508.2549,-3451.8849 465.636,-3498.2695 392.1267,-3501.5095 335.0986,-3495.1936"/>
<polygon fill="none" stroke="#000000" points="335.366,-3491.7003 325.0149,-3493.9598 334.5158,-3498.6484 335.366,-3491.7003"/>
</g>
<!-- \\Firesphere\\SolrSearch\\Jobs\\SolrIndexJob -->
<g id="node45" class="node">
<title>\\Firesphere\\SolrSearch\\Jobs\\SolrIndexJob</title>
<polygon fill="none" stroke="#000000" points="721.7549,-332.8849 623.7549,-332.8849 623.7549,-296.8849 721.7549,-296.8849 721.7549,-332.8849"/>
<text text-anchor="middle" x="672.7549" y="-312.0849" font-family="Courier,monospace" font-size="11.00" fill="#000000">SolrIndexJob</text>
</g>
<!-- \\Symbiote\\QueuedJobs\\Services\\AbstractQueuedJob -->
<g id="node71" class="node">
<title>\\Symbiote\\QueuedJobs\\Services\\AbstractQueuedJob</title>
<ellipse fill="none" stroke="#000000" cx="254.1275" cy="-3424.8849" rx="254.255" ry="18"/>
<text text-anchor="middle" x="254.1275" y="-3421.1849" font-family="Times,serif" font-size="14.00" fill="#c0c0c0">\Symbiote\QueuedJobs\Services\AbstractQueuedJob</text>
</g>
<!-- \\Firesphere\\SolrSearch\\Jobs\\SolrIndexJob&#45;&gt;\\Symbiote\\QueuedJobs\\Services\\AbstractQueuedJob -->
<g id="edge21" class="edge">
<title>\\Firesphere\\SolrSearch\\Jobs\\SolrIndexJob&#45;&gt;\\Symbiote\\QueuedJobs\\Services\\AbstractQueuedJob</title>
<path fill="none" stroke="#000000" d="M623.7348,-327.2744C604.3104,-334.8144 583.873,-346.638 572.2549,-364.8849 495.3083,-485.7339 544.3944,-2804.2517 508.2549,-2942.8849 459.0538,-3131.6229 324.2621,-3328.9991 273.6637,-3398.6715"/>
<polygon fill="none" stroke="#000000" points="270.7243,-3396.7617 267.6467,-3406.8997 276.3747,-3400.8936 270.7243,-3396.7617"/>
</g>
<!-- \\Firesphere\\SolrSearch\\Jobs\\SolrConfigureJob -->
<g id="node46" class="node">
<title>\\Firesphere\\SolrSearch\\Jobs\\SolrConfigureJob</title>
<polygon fill="none" stroke="#000000" points="735.2549,-278.8849 610.2549,-278.8849 610.2549,-242.8849 735.2549,-242.8849 735.2549,-278.8849"/>
<text text-anchor="middle" x="672.7549" y="-258.0849" font-family="Courier,monospace" font-size="11.00" fill="#000000">SolrConfigureJob</text>
</g>
<!-- \\Firesphere\\SolrSearch\\Jobs\\SolrConfigureJob&#45;&gt;\\Symbiote\\QueuedJobs\\Services\\AbstractQueuedJob -->
<g id="edge22" class="edge">
<title>\\Firesphere\\SolrSearch\\Jobs\\SolrConfigureJob&#45;&gt;\\Symbiote\\QueuedJobs\\Services\\AbstractQueuedJob</title>
<path fill="none" stroke="#000000" d="M610.0555,-264.9867C595.5114,-269.0295 581.5781,-276.0251 572.2549,-287.8849 481.0708,-403.8778 545.4218,-2800.1001 508.2549,-2942.8849 459.1218,-3131.6406 324.2886,-3329.006 273.6714,-3398.6735"/>
<polygon fill="none" stroke="#000000" points="270.7319,-3396.7637 267.6522,-3406.9011 276.3815,-3400.8969 270.7319,-3396.7637"/>
</g>
<!-- \\Firesphere\\SolrSearch\\Jobs\\ClearDirtyClassesJob -->
<g id="node47" class="node">
<title>\\Firesphere\\SolrSearch\\Jobs\\ClearDirtyClassesJob</title>
<polygon fill="none" stroke="#000000" points="748.7549,-224.8849 596.7549,-224.8849 596.7549,-188.8849 748.7549,-188.8849 748.7549,-224.8849"/>
<text text-anchor="middle" x="672.7549" y="-204.0849" font-family="Courier,monospace" font-size="11.00" fill="#000000">ClearDirtyClassesJob</text>
</g>
<!-- \\Firesphere\\SolrSearch\\Jobs\\ClearDirtyClassesJob&#45;&gt;\\Symbiote\\QueuedJobs\\Services\\AbstractQueuedJob -->
<g id="edge23" class="edge">
<title>\\Firesphere\\SolrSearch\\Jobs\\ClearDirtyClassesJob&#45;&gt;\\Symbiote\\QueuedJobs\\Services\\AbstractQueuedJob</title>
<path fill="none" stroke="#000000" d="M596.517,-215.7864C587.1288,-219.9574 578.6173,-225.7875 572.2549,-233.8849 479.2457,-352.258 546.1424,-2797.1885 508.2549,-2942.8849 459.1671,-3131.6524 324.3062,-3329.0106 273.6765,-3398.6749"/>
<polygon fill="none" stroke="#000000" points="270.737,-3396.7651 267.6558,-3406.902 276.3859,-3400.8991 270.737,-3396.7651"/>
</g>
<!-- \\Firesphere\\SolrSearch\\Interfaces\\SiteStateInterface -->
<g id="node49" class="node">
<title>\\Firesphere\\SolrSearch\\Interfaces\\SiteStateInterface</title>
<polygon fill="none" stroke="#000000" points="323.1275,-2856.8849 185.1275,-2856.8849 185.1275,-2820.8849 323.1275,-2820.8849 323.1275,-2856.8849"/>
<text text-anchor="middle" x="254.1275" y="-2836.0849" font-family="Courier,monospace" font-size="11.00" fill="#000000">SiteStateInterface</text>
</g>
<!-- \\Firesphere\\SolrFluent\\States\\FluentSiteState -->
<g id="node50" class="node">
<title>\\Firesphere\\SolrFluent\\States\\FluentSiteState</title>
<polygon fill="none" stroke="#000000" points="985.7549,-856.8849 867.7549,-856.8849 867.7549,-820.8849 985.7549,-820.8849 985.7549,-856.8849"/>
<text text-anchor="middle" x="926.7549" y="-836.0849" font-family="Courier,monospace" font-size="11.00" fill="#000000">FluentSiteState</text>
</g>
<!-- \\Firesphere\\SolrFluent\\States\\FluentSiteState&#45;&gt;\\Firesphere\\SolrSearch\\States\\SiteState -->
<g id="edge24" class="edge">
<title>\\Firesphere\\SolrFluent\\States\\FluentSiteState&#45;&gt;\\Firesphere\\SolrSearch\\States\\SiteState</title>
<path fill="none" stroke="#000000" d="M891.3917,-856.9242C866.8399,-871.5758 835.9916,-894.739 821.2549,-924.8849 777.8628,-1013.6493 841.9703,-2624.9386 781.2549,-2702.8849 767.941,-2719.9773 745.8114,-2727.892 724.9979,-2731.3724"/>
<polygon fill="none" stroke="#000000" points="724.3658,-2727.9261 714.9306,-2732.7455 725.3119,-2734.8619 724.3658,-2727.9261"/>
</g>
<!-- \\Firesphere\\SolrFluent\\States\\FluentSiteState&#45;&gt;\\Firesphere\\SolrSearch\\Interfaces\\SiteStateInterface -->
<g id="edge25" class="edge">
<title>\\Firesphere\\SolrFluent\\States\\FluentSiteState&#45;&gt;\\Firesphere\\SolrSearch\\Interfaces\\SiteStateInterface</title>
<path fill="none" stroke="#000000" stroke-dasharray="1,5" d="M867.5291,-834.9238C850.0639,-830.7307 832.6083,-822.9685 821.2549,-808.8849 732.9344,-699.3261 880.7021,-276.4535 781.2549,-176.8849 747.1066,-142.6949 720.9146,-165.9218 672.7549,-169.8849"/>
<path fill="none" stroke="#000000" stroke-dasharray="1,5" d="M672.7549,-169.8849C628.1309,-173.5571 604.6879,-146.0159 572.2549,-176.8849 370.1355,-369.2577 267.535,-2537.0012 255.3597,-2810.5686"/>
<polygon fill="none" stroke="#000000" points="251.8507,-2810.6977 254.9055,-2820.8425 258.8439,-2811.0069 251.8507,-2810.6977"/>
</g>
<!-- \\Firesphere\\SolrFluent\\Extensions\\FluentIndexExtension -->
<g id="node51" class="node">
<title>\\Firesphere\\SolrFluent\\Extensions\\FluentIndexExtension</title>
<polygon fill="none" stroke="#000000" points="1002.7549,-668.8849 850.7549,-668.8849 850.7549,-632.8849 1002.7549,-632.8849 1002.7549,-668.8849"/>
<text text-anchor="middle" x="926.7549" y="-648.0849" font-family="Courier,monospace" font-size="11.00" fill="#000000">FluentIndexExtension</text>
</g>
<!-- \\Firesphere\\SolrFluent\\Extensions\\FluentIndexExtension&#45;&gt;\\SilverStripe\\Core\\Extension -->
<g id="edge26" class="edge">
<title>\\Firesphere\\SolrFluent\\Extensions\\FluentIndexExtension&#45;&gt;\\SilverStripe\\Core\\Extension</title>
<path fill="none" stroke="#000000" d="M879.2438,-632.7978C857.9161,-622.1577 834.5963,-606.4821 821.2549,-584.8849 771.9816,-505.1211 843.3593,-235.1214 781.2549,-164.8849 748.54,-127.8863 709.4057,-173.989 672.7549,-140.8849"/>
<path fill="none" stroke="#000000" d="M672.7549,-140.8849C657.0915,-126.7373 528.3246,-52.4198 508.2549,-45.8849 475.4252,-35.1953 439.0725,-28.5096 404.3721,-24.3814"/>
<polygon fill="none" stroke="#000000" points="404.4777,-20.8713 394.1493,-23.2322 403.6957,-27.8275 404.4777,-20.8713"/>
</g>
<!-- \\Firesphere\\SolrFluent\\Extensions\\FluentSchemaExtension -->
<g id="node52" class="node">
<title>\\Firesphere\\SolrFluent\\Extensions\\FluentSchemaExtension</title>
<polygon fill="none" stroke="#000000" points="1005.7549,-776.8849 847.7549,-776.8849 847.7549,-740.8849 1005.7549,-740.8849 1005.7549,-776.8849"/>
<text text-anchor="middle" x="926.7549" y="-756.0849" font-family="Courier,monospace" font-size="11.00" fill="#000000">FluentSchemaExtension</text>
</g>
<!-- \\Firesphere\\SolrFluent\\Extensions\\FluentSchemaExtension&#45;&gt;\\SilverStripe\\Core\\Extension -->
<g id="edge27" class="edge">
<title>\\Firesphere\\SolrFluent\\Extensions\\FluentSchemaExtension&#45;&gt;\\SilverStripe\\Core\\Extension</title>
<path fill="none" stroke="#000000" d="M847.6545,-750.525C837.5372,-746.2952 828.28,-740.3047 821.2549,-731.8849 740.3328,-634.8971 863.7592,-260.5304 781.2549,-164.8849 748.9961,-127.488 709.4057,-173.989 672.7549,-140.8849"/>
</g>
<!-- \\Firesphere\\SolrFluent\\Extensions\\FluentDocumentExtension -->
<g id="node53" class="node">
<title>\\Firesphere\\SolrFluent\\Extensions\\FluentDocumentExtension</title>
<polygon fill="none" stroke="#000000" points="1012.7549,-722.8849 840.7549,-722.8849 840.7549,-686.8849 1012.7549,-686.8849 1012.7549,-722.8849"/>
<text text-anchor="middle" x="926.7549" y="-702.0849" font-family="Courier,monospace" font-size="11.00" fill="#000000">FluentDocumentExtension</text>
</g>
<!-- \\Firesphere\\SolrFluent\\Extensions\\FluentDocumentExtension&#45;&gt;\\SilverStripe\\Core\\Extension -->
<g id="edge28" class="edge">
<title>\\Firesphere\\SolrFluent\\Extensions\\FluentDocumentExtension&#45;&gt;\\SilverStripe\\Core\\Extension</title>
<path fill="none" stroke="#000000" d="M840.5463,-693.1043C833.2373,-689.2291 826.6078,-684.2526 821.2549,-677.8849 747.6758,-590.357 856.2618,-251.1924 781.2549,-164.8849 748.8582,-127.6074 709.4057,-173.989 672.7549,-140.8849"/>
</g>
<!-- \\Firesphere\\SolrSubsites\\States\\SubsiteState -->
<g id="node54" class="node">
<title>\\Firesphere\\SolrSubsites\\States\\SubsiteState</title>
<polygon fill="none" stroke="#000000" points="975.7549,-1052.8849 877.7549,-1052.8849 877.7549,-1016.8849 975.7549,-1016.8849 975.7549,-1052.8849"/>
<text text-anchor="middle" x="926.7549" y="-1032.0849" font-family="Courier,monospace" font-size="11.00" fill="#000000">SubsiteState</text>
</g>
<!-- \\Firesphere\\SolrSubsites\\States\\SubsiteState&#45;&gt;\\Firesphere\\SolrSearch\\States\\SiteState -->
<g id="edge29" class="edge">
<title>\\Firesphere\\SolrSubsites\\States\\SubsiteState&#45;&gt;\\Firesphere\\SolrSearch\\States\\SiteState</title>
<path fill="none" stroke="#000000" d="M926.4069,-1053.112C922.9541,-1225.7255 892.5812,-2569.0992 781.2549,-2702.8849 767.504,-2719.4099 745.5378,-2727.2727 724.9552,-2730.8663"/>
<polygon fill="none" stroke="#000000" points="724.3996,-2727.4102 715.0042,-2732.3067 725.4024,-2734.338 724.3996,-2727.4102"/>
</g>
<!-- \\Firesphere\\SolrSubsites\\States\\SubsiteState&#45;&gt;\\Firesphere\\SolrSearch\\Interfaces\\SiteStateInterface -->
<g id="edge30" class="edge">
<title>\\Firesphere\\SolrSubsites\\States\\SubsiteState&#45;&gt;\\Firesphere\\SolrSearch\\Interfaces\\SiteStateInterface</title>
<path fill="none" stroke="#000000" stroke-dasharray="1,5" d="M877.5714,-1033.0814C856.9534,-1029.6265 834.6932,-1021.8119 821.2549,-1004.8849 763.9847,-932.747 845.8564,-242.5386 781.2549,-176.8849 747.3629,-142.4409 720.9146,-165.9218 672.7549,-169.8849"/>
</g>
<!-- \\Firesphere\\SolrSubsites\\Extensions\\SubsitesExtension -->
<g id="node55" class="node">
<title>\\Firesphere\\SolrSubsites\\Extensions\\SubsitesExtension</title>
<polygon fill="none" stroke="#000000" points="992.2549,-972.8849 861.2549,-972.8849 861.2549,-936.8849 992.2549,-936.8849 992.2549,-972.8849"/>
<text text-anchor="middle" x="926.7549" y="-952.0849" font-family="Courier,monospace" font-size="11.00" fill="#000000">SubsitesExtension</text>
</g>
<!-- \\Firesphere\\SolrSubsites\\Extensions\\SubsitesExtension&#45;&gt;\\SilverStripe\\Core\\Extension -->
<g id="edge31" class="edge">
<title>\\Firesphere\\SolrSubsites\\Extensions\\SubsitesExtension&#45;&gt;\\SilverStripe\\Core\\Extension</title>
<path fill="none" stroke="#000000" d="M878.3173,-936.7555C857.0531,-926.1724 834.0545,-910.557 821.2549,-888.8849 739.3126,-750.1416 885.5707,-287.6955 781.2549,-164.8849 749.282,-127.2433 709.4057,-173.989 672.7549,-140.8849"/>
</g>
<!-- \\Firesphere\\SolrPermissions\\Extensions\\DataObjectExtension -->
<g id="node56" class="node">
<title>\\Firesphere\\SolrPermissions\\Extensions\\DataObjectExtension</title>
<polygon fill="none" stroke="#000000" points="999.2549,-552.8849 854.2549,-552.8849 854.2549,-516.8849 999.2549,-516.8849 999.2549,-552.8849"/>
<text text-anchor="middle" x="926.7549" y="-532.0849" font-family="Courier,monospace" font-size="11.00" fill="#000000">DataObjectExtension</text>
</g>
<!-- \\Firesphere\\SolrPermissions\\Extensions\\DataObjectExtension&#45;&gt;\\SilverStripe\\ORM\\DataExtension -->
<g id="edge32" class="edge">
<title>\\Firesphere\\SolrPermissions\\Extensions\\DataObjectExtension&#45;&gt;\\SilverStripe\\ORM\\DataExtension</title>
<path fill="none" stroke="#000000" d="M854.1266,-528.5284C841.6284,-524.2914 829.9011,-517.7794 821.2549,-507.8849 720.2653,-392.3148 883.2119,-279.6025 781.2549,-164.8849 734.3687,-112.1306 557.436,-89.5892 421.3514,-79.9804"/>
<polygon fill="none" stroke="#000000" points="421.4309,-76.4777 411.2143,-79.2831 420.9505,-83.4612 421.4309,-76.4777"/>
</g>
<!-- \\Firesphere\\SolrPermissions\\Extensions\\DocumentFactoryExtension -->
<g id="node57" class="node">
<title>\\Firesphere\\SolrPermissions\\Extensions\\DocumentFactoryExtension</title>
<polygon fill="none" stroke="#000000" points="1016.2549,-390.8849 837.2549,-390.8849 837.2549,-354.8849 1016.2549,-354.8849 1016.2549,-390.8849"/>
<text text-anchor="middle" x="926.7549" y="-370.0849" font-family="Courier,monospace" font-size="11.00" fill="#000000">DocumentFactoryExtension</text>
</g>
<!-- \\Firesphere\\SolrPermissions\\Extensions\\DocumentFactoryExtension&#45;&gt;\\SilverStripe\\Core\\Extension -->
<g id="edge33" class="edge">
<title>\\Firesphere\\SolrPermissions\\Extensions\\DocumentFactoryExtension&#45;&gt;\\SilverStripe\\Core\\Extension</title>
<path fill="none" stroke="#000000" d="M881.1304,-354.8188C859.7122,-344.042 835.7606,-328.2424 821.2549,-306.8849 765.9092,-225.3965 849.6364,-159.7896 781.2549,-88.8849 746.9706,-53.3357 716.6848,-87.4531 672.7549,-64.8849"/>
</g>
<!-- \\Firesphere\\SolrPermissions\\Extensions\\SchemaFactoryExtension -->
<g id="node58" class="node">
<title>\\Firesphere\\SolrPermissions\\Extensions\\SchemaFactoryExtension</title>
<polygon fill="none" stroke="#000000" points="1009.2549,-498.8849 844.2549,-498.8849 844.2549,-462.8849 1009.2549,-462.8849 1009.2549,-498.8849"/>
<text text-anchor="middle" x="926.7549" y="-478.0849" font-family="Courier,monospace" font-size="11.00" fill="#000000">SchemaFactoryExtension</text>
</g>
<!-- \\Firesphere\\SolrPermissions\\Extensions\\SchemaFactoryExtension&#45;&gt;\\SilverStripe\\Core\\Extension -->
<g id="edge34" class="edge">
<title>\\Firesphere\\SolrPermissions\\Extensions\\SchemaFactoryExtension&#45;&gt;\\SilverStripe\\Core\\Extension</title>
<path fill="none" stroke="#000000" d="M844.0564,-470.5556C835.4134,-466.507 827.5167,-461.0924 821.2549,-453.8849 715.3842,-332.0249 887.0032,-214.8512 781.2549,-92.8849 748.6302,-55.2568 717.0533,-87.6424 672.7549,-64.8849"/>
</g>
<!-- \\Firesphere\\SolrPermissions\\Extensions\\BaseIndexExtension -->
<g id="node59" class="node">
<title>\\Firesphere\\SolrPermissions\\Extensions\\BaseIndexExtension</title>
<polygon fill="none" stroke="#000000" points="995.7549,-444.8849 857.7549,-444.8849 857.7549,-408.8849 995.7549,-408.8849 995.7549,-444.8849"/>
<text text-anchor="middle" x="926.7549" y="-424.0849" font-family="Courier,monospace" font-size="11.00" fill="#000000">BaseIndexExtension</text>
</g>
<!-- \\Firesphere\\SolrPermissions\\Extensions\\BaseIndexExtension&#45;&gt;\\SilverStripe\\Core\\Extension -->
<g id="edge35" class="edge">
<title>\\Firesphere\\SolrPermissions\\Extensions\\BaseIndexExtension&#45;&gt;\\SilverStripe\\Core\\Extension</title>
<path fill="none" stroke="#000000" d="M857.7462,-421.5752C843.9386,-417.4011 830.7735,-410.6487 821.2549,-399.8849 728.9356,-295.4887 875.2766,-191.7506 781.2549,-88.8849 747.9347,-52.4305 716.6848,-87.4531 672.7549,-64.8849"/>
</g>
<!-- \\SilverStripe\\FullTextSearch\\Solr\\Solr -->
<g id="node60" class="node">
<title>\\SilverStripe\\FullTextSearch\\Solr\\Solr</title>
<polygon fill="none" stroke="#000000" points="953.7549,-3170.8849 899.7549,-3170.8849 899.7549,-3134.8849 953.7549,-3134.8849 953.7549,-3170.8849"/>
<text text-anchor="middle" x="926.7549" y="-3150.0849" font-family="Courier,monospace" font-size="11.00" fill="#000000">Solr</text>
</g>
<!-- \\SilverStripe\\FullTextSearch\\Solr\\SolrIndex -->
<g id="node61" class="node">
<title>\\SilverStripe\\FullTextSearch\\Solr\\SolrIndex</title>
<polygon fill="none" stroke="#000000" points="968.7549,-3116.8849 884.7549,-3116.8849 884.7549,-3080.8849 968.7549,-3080.8849 968.7549,-3116.8849"/>
<text text-anchor="start" x="892.7549" y="-3102.0849" font-family="Courier,monospace" font-size="11.00" fill="#000000">«abstract»</text>
<text text-anchor="start" x="896.2549" y="-3090.0849" font-family="Courier,monospace" font-size="11.00" fill="#000000">SolrIndex</text>
</g>
<!-- \\SilverStripe\\FullTextSearch\\Solr\\SolrIndex&#45;&gt;\\Firesphere\\SolrSearch\\Indexes\\BaseIndex -->
<g id="edge3" class="edge">
<title>\\SilverStripe\\FullTextSearch\\Solr\\SolrIndex&#45;&gt;\\Firesphere\\SolrSearch\\Indexes\\BaseIndex</title>
<path fill="none" stroke="#000000" d="M926.4091,-3080.8187C922.8243,-2900.8214 890.3355,-1433.1781 781.2549,-1276.8849 767.9245,-1257.7848 745.4102,-1245.8203 724.3348,-1238.4067"/>
<polygon fill="none" stroke="#000000" points="725.383,-1235.0672 714.7909,-1235.3113 723.2234,-1241.7257 725.383,-1235.0672"/>
</g>
<!-- \\SilverStripe\\FullTextSearch\\Search\\Queries\\SearchQuery -->
<g id="node62" class="node">
<title>\\SilverStripe\\FullTextSearch\\Search\\Queries\\SearchQuery</title>
<polygon fill="none" stroke="#000000" points="972.2549,-3258.8849 881.2549,-3258.8849 881.2549,-3222.8849 972.2549,-3222.8849 972.2549,-3258.8849"/>
<text text-anchor="middle" x="926.7549" y="-3238.0849" font-family="Courier,monospace" font-size="11.00" fill="#000000">SearchQuery</text>
</g>
<!-- \\SilverStripe\\FullTextSearch\\Search\\Queries\\SearchQuery&#45;&gt;\\Firesphere\\SolrSearch\\Queries\\BaseQuery -->
<g id="edge4" class="edge">
<title>\\SilverStripe\\FullTextSearch\\Search\\Queries\\SearchQuery&#45;&gt;\\Firesphere\\SolrSearch\\Queries\\BaseQuery</title>
<path fill="none" stroke="#000000" d="M881.1546,-3236.2839C859.3275,-3231.5458 835.0064,-3222.0105 821.2549,-3202.8849 761.3716,-3119.5988 837.4984,-1442.671 781.2549,-1356.8849 767.7332,-1336.2607 743.3654,-1324.0085 721.1439,-1316.8006"/>
<polygon fill="none" stroke="#000000" points="722.0447,-1313.4171 711.4619,-1313.9213 720.0493,-1320.1266 722.0447,-1313.4171"/>
</g>
</g>
</svg>
