<?xml version="1.0" encoding="UTF-8" standalone="no"?>
<!DOCTYPE svg PUBLIC "-//W3C//DTD SVG 1.1//EN"
 "http://www.w3.org/Graphics/SVG/1.1/DTD/svg11.dtd">
<!-- Generated by graphviz version 2.40.1 (20161225.0304)
 -->
<!-- Title: G Pages: 1 -->
<svg width="1064pt" height="3721pt"
 viewBox="0.00 0.00 1064.25 3720.81" xmlns="http://www.w3.org/2000/svg" xmlns:xlink="http://www.w3.org/1999/xlink">
<g id="graph0" class="graph" transform="scale(1 1) rotate(0) translate(4 3716.8091)">
<title>G</title>
<polygon fill="#ffffff" stroke="transparent" points="-4,4 -4,-3716.8091 1060.2549,-3716.8091 1060.2549,4 -4,4"/>
<g id="clust1" class="cluster">
<title>cluster_Global</title>
<path fill="none" stroke="#c0c0c0" d="M165.1275,-152.8091C165.1275,-152.8091 1036.2549,-152.8091 1036.2549,-152.8091 1042.2549,-152.8091 1048.2549,-158.8091 1048.2549,-164.8091 1048.2549,-164.8091 1048.2549,-3386.8091 1048.2549,-3386.8091 1048.2549,-3392.8091 1042.2549,-3398.8091 1036.2549,-3398.8091 1036.2549,-3398.8091 165.1275,-3398.8091 165.1275,-3398.8091 159.1275,-3398.8091 153.1275,-3392.8091 153.1275,-3386.8091 153.1275,-3386.8091 153.1275,-164.8091 153.1275,-164.8091 153.1275,-158.8091 159.1275,-152.8091 165.1275,-152.8091"/>
<text text-anchor="middle" x="600.6912" y="-3386.0091" font-family="Times,serif" font-size="11.00" fill="#c0c0c0">Global</text>
</g>
<g id="clust2" class="cluster">
<title>cluster_\SilverStripe</title>
<path fill="none" stroke="#c0c0c0" d="M861.2549,-3056.8091C861.2549,-3056.8091 992.2549,-3056.8091 992.2549,-3056.8091 998.2549,-3056.8091 1004.2549,-3062.8091 1004.2549,-3068.8091 1004.2549,-3068.8091 1004.2549,-3358.8091 1004.2549,-3358.8091 1004.2549,-3364.8091 998.2549,-3370.8091 992.2549,-3370.8091 992.2549,-3370.8091 861.2549,-3370.8091 861.2549,-3370.8091 855.2549,-3370.8091 849.2549,-3364.8091 849.2549,-3358.8091 849.2549,-3358.8091 849.2549,-3068.8091 849.2549,-3068.8091 849.2549,-3062.8091 855.2549,-3056.8091 861.2549,-3056.8091"/>
<text text-anchor="middle" x="926.7549" y="-3358.0091" font-family="Times,serif" font-size="11.00" fill="#c0c0c0">SilverStripe</text>
</g>
<g id="clust3" class="cluster">
<title>cluster_\SilverStripe\FullTextSearch</title>
<path fill="none" stroke="#c0c0c0" d="M869.2549,-3064.8091C869.2549,-3064.8091 984.2549,-3064.8091 984.2549,-3064.8091 990.2549,-3064.8091 996.2549,-3070.8091 996.2549,-3076.8091 996.2549,-3076.8091 996.2549,-3330.8091 996.2549,-3330.8091 996.2549,-3336.8091 990.2549,-3342.8091 984.2549,-3342.8091 984.2549,-3342.8091 869.2549,-3342.8091 869.2549,-3342.8091 863.2549,-3342.8091 857.2549,-3336.8091 857.2549,-3330.8091 857.2549,-3330.8091 857.2549,-3076.8091 857.2549,-3076.8091 857.2549,-3070.8091 863.2549,-3064.8091 869.2549,-3064.8091"/>
<text text-anchor="middle" x="926.7549" y="-3330.0091" font-family="Times,serif" font-size="11.00" fill="#c0c0c0">FullTextSearch</text>
</g>
<g id="clust4" class="cluster">
<title>cluster_\SilverStripe\FullTextSearch\Solr</title>
<path fill="none" stroke="#c0c0c0" d="M888.7549,-3188.8091C888.7549,-3188.8091 964.7549,-3188.8091 964.7549,-3188.8091 970.7549,-3188.8091 976.7549,-3194.8091 976.7549,-3200.8091 976.7549,-3200.8091 976.7549,-3302.8091 976.7549,-3302.8091 976.7549,-3308.8091 970.7549,-3314.8091 964.7549,-3314.8091 964.7549,-3314.8091 888.7549,-3314.8091 888.7549,-3314.8091 882.7549,-3314.8091 876.7549,-3308.8091 876.7549,-3302.8091 876.7549,-3302.8091 876.7549,-3200.8091 876.7549,-3200.8091 876.7549,-3194.8091 882.7549,-3188.8091 888.7549,-3188.8091"/>
<text text-anchor="middle" x="926.7549" y="-3302.0091" font-family="Times,serif" font-size="11.00" fill="#c0c0c0">Solr</text>
</g>
<g id="clust5" class="cluster">
<title>cluster_\SilverStripe\FullTextSearch\Search</title>
<path fill="none" stroke="#c0c0c0" d="M877.2549,-3072.8091C877.2549,-3072.8091 976.2549,-3072.8091 976.2549,-3072.8091 982.2549,-3072.8091 988.2549,-3078.8091 988.2549,-3084.8091 988.2549,-3084.8091 988.2549,-3168.8091 988.2549,-3168.8091 988.2549,-3174.8091 982.2549,-3180.8091 976.2549,-3180.8091 976.2549,-3180.8091 877.2549,-3180.8091 877.2549,-3180.8091 871.2549,-3180.8091 865.2549,-3174.8091 865.2549,-3168.8091 865.2549,-3168.8091 865.2549,-3084.8091 865.2549,-3084.8091 865.2549,-3078.8091 871.2549,-3072.8091 877.2549,-3072.8091"/>
<text text-anchor="middle" x="926.7549" y="-3168.0091" font-family="Times,serif" font-size="11.00" fill="#c0c0c0">Search</text>
</g>
<g id="clust6" class="cluster">
<title>cluster_\SilverStripe\FullTextSearch\Search\Queries</title>
<path fill="none" stroke="#c0c0c0" d="M885.2549,-3080.8091C885.2549,-3080.8091 968.2549,-3080.8091 968.2549,-3080.8091 974.2549,-3080.8091 980.2549,-3086.8091 980.2549,-3092.8091 980.2549,-3092.8091 980.2549,-3140.8091 980.2549,-3140.8091 980.2549,-3146.8091 974.2549,-3152.8091 968.2549,-3152.8091 968.2549,-3152.8091 885.2549,-3152.8091 885.2549,-3152.8091 879.2549,-3152.8091 873.2549,-3146.8091 873.2549,-3140.8091 873.2549,-3140.8091 873.2549,-3092.8091 873.2549,-3092.8091 873.2549,-3086.8091 879.2549,-3080.8091 885.2549,-3080.8091"/>
<text text-anchor="middle" x="926.7549" y="-3140.0091" font-family="Times,serif" font-size="11.00" fill="#c0c0c0">Queries</text>
</g>
<g id="clust7" class="cluster">
<title>cluster_\Firesphere</title>
<path fill="none" stroke="#c0c0c0" d="M173.1275,-160.8091C173.1275,-160.8091 1028.2549,-160.8091 1028.2549,-160.8091 1034.2549,-160.8091 1040.2549,-166.8091 1040.2549,-172.8091 1040.2549,-172.8091 1040.2549,-3036.8091 1040.2549,-3036.8091 1040.2549,-3042.8091 1034.2549,-3048.8091 1028.2549,-3048.8091 1028.2549,-3048.8091 173.1275,-3048.8091 173.1275,-3048.8091 167.1275,-3048.8091 161.1275,-3042.8091 161.1275,-3036.8091 161.1275,-3036.8091 161.1275,-172.8091 161.1275,-172.8091 161.1275,-166.8091 167.1275,-160.8091 173.1275,-160.8091"/>
<text text-anchor="middle" x="600.6912" y="-3036.0091" font-family="Times,serif" font-size="11.00" fill="#c0c0c0">Firesphere</text>
</g>
<g id="clust8" class="cluster">
<title>cluster_\Firesphere\SolrCompatibility</title>
<path fill="none" stroke="#c0c0c0" d="M836.7549,-168.8091C836.7549,-168.8091 1016.7549,-168.8091 1016.7549,-168.8091 1022.7549,-168.8091 1028.7549,-174.8091 1028.7549,-180.8091 1028.7549,-180.8091 1028.7549,-264.8091 1028.7549,-264.8091 1028.7549,-270.8091 1022.7549,-276.8091 1016.7549,-276.8091 1016.7549,-276.8091 836.7549,-276.8091 836.7549,-276.8091 830.7549,-276.8091 824.7549,-270.8091 824.7549,-264.8091 824.7549,-264.8091 824.7549,-180.8091 824.7549,-180.8091 824.7549,-174.8091 830.7549,-168.8091 836.7549,-168.8091"/>
<text text-anchor="middle" x="926.7549" y="-264.0091" font-family="Times,serif" font-size="11.00" fill="#c0c0c0">SolrCompatibility</text>
</g>
<g id="clust9" class="cluster">
<title>cluster_\Firesphere\SolrCompatibility\Extensions</title>
<path fill="none" stroke="#c0c0c0" d="M844.7549,-176.8091C844.7549,-176.8091 1008.7549,-176.8091 1008.7549,-176.8091 1014.7549,-176.8091 1020.7549,-182.8091 1020.7549,-188.8091 1020.7549,-188.8091 1020.7549,-236.8091 1020.7549,-236.8091 1020.7549,-242.8091 1014.7549,-248.8091 1008.7549,-248.8091 1008.7549,-248.8091 844.7549,-248.8091 844.7549,-248.8091 838.7549,-248.8091 832.7549,-242.8091 832.7549,-236.8091 832.7549,-236.8091 832.7549,-188.8091 832.7549,-188.8091 832.7549,-182.8091 838.7549,-176.8091 844.7549,-176.8091"/>
<text text-anchor="middle" x="926.7549" y="-236.0091" font-family="Times,serif" font-size="11.00" fill="#c0c0c0">Extensions</text>
</g>
<g id="clust10" class="cluster">
<title>cluster_\Firesphere\SolrSearch</title>
<path fill="none" stroke="#c0c0c0" d="M181.1275,-172.8091C181.1275,-172.8091 769.2549,-172.8091 769.2549,-172.8091 775.2549,-172.8091 781.2549,-178.8091 781.2549,-184.8091 781.2549,-184.8091 781.2549,-3008.8091 781.2549,-3008.8091 781.2549,-3014.8091 775.2549,-3020.8091 769.2549,-3020.8091 769.2549,-3020.8091 181.1275,-3020.8091 181.1275,-3020.8091 175.1275,-3020.8091 169.1275,-3014.8091 169.1275,-3008.8091 169.1275,-3008.8091 169.1275,-184.8091 169.1275,-184.8091 169.1275,-178.8091 175.1275,-172.8091 181.1275,-172.8091"/>
<text text-anchor="middle" x="475.1912" y="-3008.0091" font-family="Times,serif" font-size="11.00" fill="#c0c0c0">SolrSearch</text>
</g>
<g id="clust11" class="cluster">
<title>cluster_\Firesphere\SolrSearch\Tasks</title>
<path fill="none" stroke="#c0c0c0" d="M597.7549,-2382.8091C597.7549,-2382.8091 747.7549,-2382.8091 747.7549,-2382.8091 753.7549,-2382.8091 759.7549,-2388.8091 759.7549,-2394.8091 759.7549,-2394.8091 759.7549,-2604.8091 759.7549,-2604.8091 759.7549,-2610.8091 753.7549,-2616.8091 747.7549,-2616.8091 747.7549,-2616.8091 597.7549,-2616.8091 597.7549,-2616.8091 591.7549,-2616.8091 585.7549,-2610.8091 585.7549,-2604.8091 585.7549,-2604.8091 585.7549,-2394.8091 585.7549,-2394.8091 585.7549,-2388.8091 591.7549,-2382.8091 597.7549,-2382.8091"/>
<text text-anchor="middle" x="672.7549" y="-2604.0091" font-family="Times,serif" font-size="11.00" fill="#c0c0c0">Tasks</text>
</g>
<g id="clust12" class="cluster">
<title>cluster_\Firesphere\SolrSearch\Jobs</title>
<path fill="none" stroke="#c0c0c0" d="M600.7549,-2812.8091C600.7549,-2812.8091 744.7549,-2812.8091 744.7549,-2812.8091 750.7549,-2812.8091 756.7549,-2818.8091 756.7549,-2824.8091 756.7549,-2824.8091 756.7549,-2980.8091 756.7549,-2980.8091 756.7549,-2986.8091 750.7549,-2992.8091 744.7549,-2992.8091 744.7549,-2992.8091 600.7549,-2992.8091 600.7549,-2992.8091 594.7549,-2992.8091 588.7549,-2986.8091 588.7549,-2980.8091 588.7549,-2980.8091 588.7549,-2824.8091 588.7549,-2824.8091 588.7549,-2818.8091 594.7549,-2812.8091 600.7549,-2812.8091"/>
<text text-anchor="middle" x="672.7549" y="-2980.0091" font-family="Times,serif" font-size="11.00" fill="#c0c0c0">Jobs</text>
</g>
<g id="clust13" class="cluster">
<title>cluster_\Firesphere\SolrSearch\Models</title>
<path fill="none" stroke="#c0c0c0" d="M624.7549,-2624.8091C624.7549,-2624.8091 720.7549,-2624.8091 720.7549,-2624.8091 726.7549,-2624.8091 732.7549,-2630.8091 732.7549,-2636.8091 732.7549,-2636.8091 732.7549,-2792.8091 732.7549,-2792.8091 732.7549,-2798.8091 726.7549,-2804.8091 720.7549,-2804.8091 720.7549,-2804.8091 624.7549,-2804.8091 624.7549,-2804.8091 618.7549,-2804.8091 612.7549,-2798.8091 612.7549,-2792.8091 612.7549,-2792.8091 612.7549,-2636.8091 612.7549,-2636.8091 612.7549,-2630.8091 618.7549,-2624.8091 624.7549,-2624.8091"/>
<text text-anchor="middle" x="672.7549" y="-2792.0091" font-family="Times,serif" font-size="11.00" fill="#c0c0c0">Models</text>
</g>
<g id="clust14" class="cluster">
<title>cluster_\Firesphere\SolrSearch\Queries</title>
<path fill="none" stroke="#c0c0c0" d="M638.2549,-2222.8091C638.2549,-2222.8091 707.2549,-2222.8091 707.2549,-2222.8091 713.2549,-2222.8091 719.2549,-2228.8091 719.2549,-2234.8091 719.2549,-2234.8091 719.2549,-2282.8091 719.2549,-2282.8091 719.2549,-2288.8091 713.2549,-2294.8091 707.2549,-2294.8091 707.2549,-2294.8091 638.2549,-2294.8091 638.2549,-2294.8091 632.2549,-2294.8091 626.2549,-2288.8091 626.2549,-2282.8091 626.2549,-2282.8091 626.2549,-2234.8091 626.2549,-2234.8091 626.2549,-2228.8091 632.2549,-2222.8091 638.2549,-2222.8091"/>
<text text-anchor="middle" x="672.7549" y="-2282.0091" font-family="Times,serif" font-size="11.00" fill="#c0c0c0">Queries</text>
</g>
<g id="clust15" class="cluster">
<title>cluster_\Firesphere\SolrSearch\Indexes</title>
<path fill="none" stroke="#c0c0c0" d="M634.7549,-2302.8091C634.7549,-2302.8091 710.7549,-2302.8091 710.7549,-2302.8091 716.7549,-2302.8091 722.7549,-2308.8091 722.7549,-2314.8091 722.7549,-2314.8091 722.7549,-2362.8091 722.7549,-2362.8091 722.7549,-2368.8091 716.7549,-2374.8091 710.7549,-2374.8091 710.7549,-2374.8091 634.7549,-2374.8091 634.7549,-2374.8091 628.7549,-2374.8091 622.7549,-2368.8091 622.7549,-2362.8091 622.7549,-2362.8091 622.7549,-2314.8091 622.7549,-2314.8091 622.7549,-2308.8091 628.7549,-2302.8091 634.7549,-2302.8091"/>
<text text-anchor="middle" x="672.7549" y="-2362.0091" font-family="Times,serif" font-size="11.00" fill="#c0c0c0">Indexes</text>
</g>
<g id="clust16" class="cluster">
<title>cluster_\Firesphere\SolrSearch\Extensions</title>
<path fill="none" stroke="#c0c0c0" d="M604.2549,-2088.8091C604.2549,-2088.8091 741.2549,-2088.8091 741.2549,-2088.8091 747.2549,-2088.8091 753.2549,-2094.8091 753.2549,-2100.8091 753.2549,-2100.8091 753.2549,-2202.8091 753.2549,-2202.8091 753.2549,-2208.8091 747.2549,-2214.8091 741.2549,-2214.8091 741.2549,-2214.8091 604.2549,-2214.8091 604.2549,-2214.8091 598.2549,-2214.8091 592.2549,-2208.8091 592.2549,-2202.8091 592.2549,-2202.8091 592.2549,-2100.8091 592.2549,-2100.8091 592.2549,-2094.8091 598.2549,-2088.8091 604.2549,-2088.8091"/>
<text text-anchor="middle" x="672.7549" y="-2202.0091" font-family="Times,serif" font-size="11.00" fill="#c0c0c0">Extensions</text>
</g>
<g id="clust17" class="cluster">
<title>cluster_\Firesphere\SolrSearch\Traits</title>
<path fill="none" stroke="#c0c0c0" d="M584.2549,-1198.8091C584.2549,-1198.8091 761.2549,-1198.8091 761.2549,-1198.8091 767.2549,-1198.8091 773.2549,-1204.8091 773.2549,-1210.8091 773.2549,-1210.8091 773.2549,-2068.8091 773.2549,-2068.8091 773.2549,-2074.8091 767.2549,-2080.8091 761.2549,-2080.8091 761.2549,-2080.8091 584.2549,-2080.8091 584.2549,-2080.8091 578.2549,-2080.8091 572.2549,-2074.8091 572.2549,-2068.8091 572.2549,-2068.8091 572.2549,-1210.8091 572.2549,-1210.8091 572.2549,-1204.8091 578.2549,-1198.8091 584.2549,-1198.8091"/>
<text text-anchor="middle" x="672.7549" y="-2068.0091" font-family="Times,serif" font-size="11.00" fill="#c0c0c0">Traits</text>
</g>
<g id="clust18" class="cluster">
<title>cluster_\Firesphere\SolrSearch\Interfaces</title>
<path fill="none" stroke="#c0c0c0" d="M189.1275,-582.8091C189.1275,-582.8091 319.1275,-582.8091 319.1275,-582.8091 325.1275,-582.8091 331.1275,-588.8091 331.1275,-594.8091 331.1275,-594.8091 331.1275,-696.8091 331.1275,-696.8091 331.1275,-702.8091 325.1275,-708.8091 319.1275,-708.8091 319.1275,-708.8091 189.1275,-708.8091 189.1275,-708.8091 183.1275,-708.8091 177.1275,-702.8091 177.1275,-696.8091 177.1275,-696.8091 177.1275,-594.8091 177.1275,-594.8091 177.1275,-588.8091 183.1275,-582.8091 189.1275,-582.8091"/>
<text text-anchor="middle" x="254.1275" y="-696.0091" font-family="Times,serif" font-size="11.00" fill="#c0c0c0">Interfaces</text>
</g>
<g id="clust19" class="cluster">
<title>cluster_\Firesphere\SolrSearch\Admins</title>
<path fill="none" stroke="#c0c0c0" d="M631.2549,-1118.8091C631.2549,-1118.8091 714.2549,-1118.8091 714.2549,-1118.8091 720.2549,-1118.8091 726.2549,-1124.8091 726.2549,-1130.8091 726.2549,-1130.8091 726.2549,-1178.8091 726.2549,-1178.8091 726.2549,-1184.8091 720.2549,-1190.8091 714.2549,-1190.8091 714.2549,-1190.8091 631.2549,-1190.8091 631.2549,-1190.8091 625.2549,-1190.8091 619.2549,-1184.8091 619.2549,-1178.8091 619.2549,-1178.8091 619.2549,-1130.8091 619.2549,-1130.8091 619.2549,-1124.8091 625.2549,-1118.8091 631.2549,-1118.8091"/>
<text text-anchor="middle" x="672.7549" y="-1178.0091" font-family="Times,serif" font-size="11.00" fill="#c0c0c0">Admins</text>
</g>
<g id="clust20" class="cluster">
<title>cluster_\Firesphere\SolrSearch\Factories</title>
<path fill="none" stroke="#c0c0c0" d="M597.7549,-984.8091C597.7549,-984.8091 747.7549,-984.8091 747.7549,-984.8091 753.7549,-984.8091 759.7549,-990.8091 759.7549,-996.8091 759.7549,-996.8091 759.7549,-1098.8091 759.7549,-1098.8091 759.7549,-1104.8091 753.7549,-1110.8091 747.7549,-1110.8091 747.7549,-1110.8091 597.7549,-1110.8091 597.7549,-1110.8091 591.7549,-1110.8091 585.7549,-1104.8091 585.7549,-1098.8091 585.7549,-1098.8091 585.7549,-996.8091 585.7549,-996.8091 585.7549,-990.8091 591.7549,-984.8091 597.7549,-984.8091"/>
<text text-anchor="middle" x="672.7549" y="-1098.0091" font-family="Times,serif" font-size="11.00" fill="#c0c0c0">Factories</text>
</g>
<g id="clust21" class="cluster">
<title>cluster_\Firesphere\SolrSearch\Services</title>
<path fill="none" stroke="#c0c0c0" d="M617.7549,-850.8091C617.7549,-850.8091 727.7549,-850.8091 727.7549,-850.8091 733.7549,-850.8091 739.7549,-856.8091 739.7549,-862.8091 739.7549,-862.8091 739.7549,-964.8091 739.7549,-964.8091 739.7549,-970.8091 733.7549,-976.8091 727.7549,-976.8091 727.7549,-976.8091 617.7549,-976.8091 617.7549,-976.8091 611.7549,-976.8091 605.7549,-970.8091 605.7549,-964.8091 605.7549,-964.8091 605.7549,-862.8091 605.7549,-862.8091 605.7549,-856.8091 611.7549,-850.8091 617.7549,-850.8091"/>
<text text-anchor="middle" x="672.7549" y="-964.0091" font-family="Times,serif" font-size="11.00" fill="#c0c0c0">Services</text>
</g>
<g id="clust22" class="cluster">
<title>cluster_\Firesphere\SolrSearch\States</title>
<path fill="none" stroke="#c0c0c0" d="M634.7549,-770.8091C634.7549,-770.8091 710.7549,-770.8091 710.7549,-770.8091 716.7549,-770.8091 722.7549,-776.8091 722.7549,-782.8091 722.7549,-782.8091 722.7549,-830.8091 722.7549,-830.8091 722.7549,-836.8091 716.7549,-842.8091 710.7549,-842.8091 710.7549,-842.8091 634.7549,-842.8091 634.7549,-842.8091 628.7549,-842.8091 622.7549,-836.8091 622.7549,-830.8091 622.7549,-830.8091 622.7549,-782.8091 622.7549,-782.8091 622.7549,-776.8091 628.7549,-770.8091 634.7549,-770.8091"/>
<text text-anchor="middle" x="672.7549" y="-830.0091" font-family="Times,serif" font-size="11.00" fill="#c0c0c0">States</text>
</g>
<g id="clust23" class="cluster">
<title>cluster_\Firesphere\SolrSearch\Stores</title>
<path fill="none" stroke="#c0c0c0" d="M617.7549,-636.8091C617.7549,-636.8091 727.7549,-636.8091 727.7549,-636.8091 733.7549,-636.8091 739.7549,-642.8091 739.7549,-648.8091 739.7549,-648.8091 739.7549,-750.8091 739.7549,-750.8091 739.7549,-756.8091 733.7549,-762.8091 727.7549,-762.8091 727.7549,-762.8091 617.7549,-762.8091 617.7549,-762.8091 611.7549,-762.8091 605.7549,-756.8091 605.7549,-750.8091 605.7549,-750.8091 605.7549,-648.8091 605.7549,-648.8091 605.7549,-642.8091 611.7549,-636.8091 617.7549,-636.8091"/>
<text text-anchor="middle" x="672.7549" y="-750.0091" font-family="Times,serif" font-size="11.00" fill="#c0c0c0">Stores</text>
</g>
<g id="clust24" class="cluster">
<title>cluster_\Firesphere\SolrSearch\Helpers</title>
<path fill="none" stroke="#c0c0c0" d="M624.7549,-340.8091C624.7549,-340.8091 720.7549,-340.8091 720.7549,-340.8091 726.7549,-340.8091 732.7549,-346.8091 732.7549,-352.8091 732.7549,-352.8091 732.7549,-616.8091 732.7549,-616.8091 732.7549,-622.8091 726.7549,-628.8091 720.7549,-628.8091 720.7549,-628.8091 624.7549,-628.8091 624.7549,-628.8091 618.7549,-628.8091 612.7549,-622.8091 612.7549,-616.8091 612.7549,-616.8091 612.7549,-352.8091 612.7549,-352.8091 612.7549,-346.8091 618.7549,-340.8091 624.7549,-340.8091"/>
<text text-anchor="middle" x="672.7549" y="-616.0091" font-family="Times,serif" font-size="11.00" fill="#c0c0c0">Helpers</text>
</g>
<g id="clust25" class="cluster">
<title>cluster_\Firesphere\SolrSearch\Forms</title>
<path fill="none" stroke="#c0c0c0" d="M634.7549,-260.8091C634.7549,-260.8091 710.7549,-260.8091 710.7549,-260.8091 716.7549,-260.8091 722.7549,-266.8091 722.7549,-272.8091 722.7549,-272.8091 722.7549,-320.8091 722.7549,-320.8091 722.7549,-326.8091 716.7549,-332.8091 710.7549,-332.8091 710.7549,-332.8091 634.7549,-332.8091 634.7549,-332.8091 628.7549,-332.8091 622.7549,-326.8091 622.7549,-320.8091 622.7549,-320.8091 622.7549,-272.8091 622.7549,-272.8091 622.7549,-266.8091 628.7549,-260.8091 634.7549,-260.8091"/>
<text text-anchor="middle" x="672.7549" y="-320.0091" font-family="Times,serif" font-size="11.00" fill="#c0c0c0">Forms</text>
</g>
<g id="clust26" class="cluster">
<title>cluster_\Firesphere\SolrSearch\Results</title>
<path fill="none" stroke="#c0c0c0" d="M627.7549,-180.8091C627.7549,-180.8091 717.7549,-180.8091 717.7549,-180.8091 723.7549,-180.8091 729.7549,-186.8091 729.7549,-192.8091 729.7549,-192.8091 729.7549,-240.8091 729.7549,-240.8091 729.7549,-246.8091 723.7549,-252.8091 717.7549,-252.8091 717.7549,-252.8091 627.7549,-252.8091 627.7549,-252.8091 621.7549,-252.8091 615.7549,-246.8091 615.7549,-240.8091 615.7549,-240.8091 615.7549,-192.8091 615.7549,-192.8091 615.7549,-186.8091 621.7549,-180.8091 627.7549,-180.8091"/>
<text text-anchor="middle" x="672.7549" y="-240.0091" font-family="Times,serif" font-size="11.00" fill="#c0c0c0">Results</text>
</g>
<g id="clust27" class="cluster">
<title>cluster_\Firesphere\SolrFluent</title>
<path fill="none" stroke="#c0c0c0" d="M836.7549,-562.8091C836.7549,-562.8091 1016.7549,-562.8091 1016.7549,-562.8091 1022.7549,-562.8091 1028.7549,-568.8091 1028.7549,-574.8091 1028.7549,-574.8091 1028.7549,-846.8091 1028.7549,-846.8091 1028.7549,-852.8091 1022.7549,-858.8091 1016.7549,-858.8091 1016.7549,-858.8091 836.7549,-858.8091 836.7549,-858.8091 830.7549,-858.8091 824.7549,-852.8091 824.7549,-846.8091 824.7549,-846.8091 824.7549,-574.8091 824.7549,-574.8091 824.7549,-568.8091 830.7549,-562.8091 836.7549,-562.8091"/>
<text text-anchor="middle" x="926.7549" y="-846.0091" font-family="Times,serif" font-size="11.00" fill="#c0c0c0">SolrFluent</text>
</g>
<g id="clust28" class="cluster">
<title>cluster_\Firesphere\SolrFluent\Extensions</title>
<path fill="none" stroke="#c0c0c0" d="M844.7549,-570.8091C844.7549,-570.8091 1008.7549,-570.8091 1008.7549,-570.8091 1014.7549,-570.8091 1020.7549,-576.8091 1020.7549,-582.8091 1020.7549,-582.8091 1020.7549,-738.8091 1020.7549,-738.8091 1020.7549,-744.8091 1014.7549,-750.8091 1008.7549,-750.8091 1008.7549,-750.8091 844.7549,-750.8091 844.7549,-750.8091 838.7549,-750.8091 832.7549,-744.8091 832.7549,-738.8091 832.7549,-738.8091 832.7549,-582.8091 832.7549,-582.8091 832.7549,-576.8091 838.7549,-570.8091 844.7549,-570.8091"/>
<text text-anchor="middle" x="926.7549" y="-738.0091" font-family="Times,serif" font-size="11.00" fill="#c0c0c0">Extensions</text>
</g>
<g id="clust29" class="cluster">
<title>cluster_\Firesphere\SolrFluent\States</title>
<path fill="none" stroke="#c0c0c0" d="M871.7549,-758.8091C871.7549,-758.8091 981.7549,-758.8091 981.7549,-758.8091 987.7549,-758.8091 993.7549,-764.8091 993.7549,-770.8091 993.7549,-770.8091 993.7549,-818.8091 993.7549,-818.8091 993.7549,-824.8091 987.7549,-830.8091 981.7549,-830.8091 981.7549,-830.8091 871.7549,-830.8091 871.7549,-830.8091 865.7549,-830.8091 859.7549,-824.8091 859.7549,-818.8091 859.7549,-818.8091 859.7549,-770.8091 859.7549,-770.8091 859.7549,-764.8091 865.7549,-758.8091 871.7549,-758.8091"/>
<text text-anchor="middle" x="926.7549" y="-818.0091" font-family="Times,serif" font-size="11.00" fill="#c0c0c0">States</text>
</g>
<g id="clust30" class="cluster">
<title>cluster_\Firesphere\SolrSubsites</title>
<path fill="none" stroke="#c0c0c0" d="M857.2549,-866.8091C857.2549,-866.8091 996.2549,-866.8091 996.2549,-866.8091 1002.2549,-866.8091 1008.2549,-872.8091 1008.2549,-878.8091 1008.2549,-878.8091 1008.2549,-1042.8091 1008.2549,-1042.8091 1008.2549,-1048.8091 1002.2549,-1054.8091 996.2549,-1054.8091 996.2549,-1054.8091 857.2549,-1054.8091 857.2549,-1054.8091 851.2549,-1054.8091 845.2549,-1048.8091 845.2549,-1042.8091 845.2549,-1042.8091 845.2549,-878.8091 845.2549,-878.8091 845.2549,-872.8091 851.2549,-866.8091 857.2549,-866.8091"/>
<text text-anchor="middle" x="926.7549" y="-1042.0091" font-family="Times,serif" font-size="11.00" fill="#c0c0c0">SolrSubsites</text>
</g>
<g id="clust31" class="cluster">
<title>cluster_\Firesphere\SolrSubsites\Extensions</title>
<path fill="none" stroke="#c0c0c0" d="M865.2549,-874.8091C865.2549,-874.8091 988.2549,-874.8091 988.2549,-874.8091 994.2549,-874.8091 1000.2549,-880.8091 1000.2549,-886.8091 1000.2549,-886.8091 1000.2549,-934.8091 1000.2549,-934.8091 1000.2549,-940.8091 994.2549,-946.8091 988.2549,-946.8091 988.2549,-946.8091 865.2549,-946.8091 865.2549,-946.8091 859.2549,-946.8091 853.2549,-940.8091 853.2549,-934.8091 853.2549,-934.8091 853.2549,-886.8091 853.2549,-886.8091 853.2549,-880.8091 859.2549,-874.8091 865.2549,-874.8091"/>
<text text-anchor="middle" x="926.7549" y="-934.0091" font-family="Times,serif" font-size="11.00" fill="#c0c0c0">Extensions</text>
</g>
<g id="clust32" class="cluster">
<title>cluster_\Firesphere\SolrSubsites\States</title>
<path fill="none" stroke="#c0c0c0" d="M881.7549,-954.8091C881.7549,-954.8091 971.7549,-954.8091 971.7549,-954.8091 977.7549,-954.8091 983.7549,-960.8091 983.7549,-966.8091 983.7549,-966.8091 983.7549,-1014.8091 983.7549,-1014.8091 983.7549,-1020.8091 977.7549,-1026.8091 971.7549,-1026.8091 971.7549,-1026.8091 881.7549,-1026.8091 881.7549,-1026.8091 875.7549,-1026.8091 869.7549,-1020.8091 869.7549,-1014.8091 869.7549,-1014.8091 869.7549,-966.8091 869.7549,-966.8091 869.7549,-960.8091 875.7549,-954.8091 881.7549,-954.8091"/>
<text text-anchor="middle" x="926.7549" y="-1014.0091" font-family="Times,serif" font-size="11.00" fill="#c0c0c0">States</text>
</g>
<g id="clust33" class="cluster">
<title>cluster_\Firesphere\SolrPermissions</title>
<path fill="none" stroke="#c0c0c0" d="M833.2549,-284.8091C833.2549,-284.8091 1020.2549,-284.8091 1020.2549,-284.8091 1026.2549,-284.8091 1032.2549,-290.8091 1032.2549,-296.8091 1032.2549,-296.8091 1032.2549,-542.8091 1032.2549,-542.8091 1032.2549,-548.8091 1026.2549,-554.8091 1020.2549,-554.8091 1020.2549,-554.8091 833.2549,-554.8091 833.2549,-554.8091 827.2549,-554.8091 821.2549,-548.8091 821.2549,-542.8091 821.2549,-542.8091 821.2549,-296.8091 821.2549,-296.8091 821.2549,-290.8091 827.2549,-284.8091 833.2549,-284.8091"/>
<text text-anchor="middle" x="926.7549" y="-542.0091" font-family="Times,serif" font-size="11.00" fill="#c0c0c0">SolrPermissions</text>
</g>
<g id="clust34" class="cluster">
<title>cluster_\Firesphere\SolrPermissions\Extensions</title>
<path fill="none" stroke="#c0c0c0" d="M841.2549,-292.8091C841.2549,-292.8091 1012.2549,-292.8091 1012.2549,-292.8091 1018.2549,-292.8091 1024.2549,-298.8091 1024.2549,-304.8091 1024.2549,-304.8091 1024.2549,-514.8091 1024.2549,-514.8091 1024.2549,-520.8091 1018.2549,-526.8091 1012.2549,-526.8091 1012.2549,-526.8091 841.2549,-526.8091 841.2549,-526.8091 835.2549,-526.8091 829.2549,-520.8091 829.2549,-514.8091 829.2549,-514.8091 829.2549,-304.8091 829.2549,-304.8091 829.2549,-298.8091 835.2549,-292.8091 841.2549,-292.8091"/>
<text text-anchor="middle" x="926.7549" y="-514.0091" font-family="Times,serif" font-size="11.00" fill="#c0c0c0">Extensions</text>
</g>
<!-- \\SilverStripe\\FullTextSearch\\Solr\\Solr -->
<g id="node1" class="node">
<title>\\SilverStripe\\FullTextSearch\\Solr\\Solr</title>
<polygon fill="none" stroke="#000000" points="953.7549,-3286.8091 899.7549,-3286.8091 899.7549,-3250.8091 953.7549,-3250.8091 953.7549,-3286.8091"/>
<text text-anchor="middle" x="926.7549" y="-3266.0091" font-family="Courier,monospace" font-size="11.00" fill="#000000">Solr</text>
</g>
<!-- \\SilverStripe\\FullTextSearch\\Solr\\SolrIndex -->
<g id="node2" class="node">
<title>\\SilverStripe\\FullTextSearch\\Solr\\SolrIndex</title>
<polygon fill="none" stroke="#000000" points="968.7549,-3232.8091 884.7549,-3232.8091 884.7549,-3196.8091 968.7549,-3196.8091 968.7549,-3232.8091"/>
<text text-anchor="start" x="892.7549" y="-3218.0091" font-family="Courier,monospace" font-size="11.00" fill="#000000">«abstract»</text>
<text text-anchor="start" x="896.2549" y="-3206.0091" font-family="Courier,monospace" font-size="11.00" fill="#000000">SolrIndex</text>
</g>
<!-- \\Firesphere\\SolrSearch\\Indexes\\BaseIndex -->
<g id="node16" class="node">
<title>\\Firesphere\\SolrSearch\\Indexes\\BaseIndex</title>
<polygon fill="none" stroke="#000000" points="714.7549,-2346.8091 630.7549,-2346.8091 630.7549,-2310.8091 714.7549,-2310.8091 714.7549,-2346.8091"/>
<text text-anchor="start" x="638.7549" y="-2332.0091" font-family="Courier,monospace" font-size="11.00" fill="#000000">«abstract»</text>
<text text-anchor="start" x="642.2549" y="-2320.0091" font-family="Courier,monospace" font-size="11.00" fill="#000000">BaseIndex</text>
</g>
<!-- \\SilverStripe\\FullTextSearch\\Solr\\SolrIndex&#45;&gt;\\Firesphere\\SolrSearch\\Indexes\\BaseIndex -->
<g id="edge3" class="edge">
<title>\\SilverStripe\\FullTextSearch\\Solr\\SolrIndex&#45;&gt;\\Firesphere\\SolrSearch\\Indexes\\BaseIndex</title>
<path fill="none" stroke="#000000" d="M884.6591,-3202.8122C861.8355,-3193.9799 835.4605,-3179.4799 821.2549,-3156.8091 729.3338,-3010.1118 878.3131,-2522.1593 781.2549,-2378.8091 768.1962,-2359.5221 745.7153,-2347.5347 724.5917,-2340.1542"/>
<polygon fill="none" stroke="#000000" points="725.6119,-2336.8058 715.0205,-2337.0776 723.4697,-2343.47 725.6119,-2336.8058"/>
</g>
<!-- \\SilverStripe\\FullTextSearch\\Search\\Queries\\SearchQuery -->
<g id="node3" class="node">
<title>\\SilverStripe\\FullTextSearch\\Search\\Queries\\SearchQuery</title>
<polygon fill="none" stroke="#000000" points="972.2549,-3124.8091 881.2549,-3124.8091 881.2549,-3088.8091 972.2549,-3088.8091 972.2549,-3124.8091"/>
<text text-anchor="middle" x="926.7549" y="-3104.0091" font-family="Courier,monospace" font-size="11.00" fill="#000000">SearchQuery</text>
</g>
<!-- \\Firesphere\\SolrSearch\\Queries\\BaseQuery -->
<g id="node15" class="node">
<title>\\Firesphere\\SolrSearch\\Queries\\BaseQuery</title>
<polygon fill="none" stroke="#000000" points="711.2549,-2266.8091 634.2549,-2266.8091 634.2549,-2230.8091 711.2549,-2230.8091 711.2549,-2266.8091"/>
<text text-anchor="middle" x="672.7549" y="-2246.0091" font-family="Courier,monospace" font-size="11.00" fill="#000000">BaseQuery</text>
</g>
<!-- \\SilverStripe\\FullTextSearch\\Search\\Queries\\SearchQuery&#45;&gt;\\Firesphere\\SolrSearch\\Queries\\BaseQuery -->
<g id="edge2" class="edge">
<title>\\SilverStripe\\FullTextSearch\\Search\\Queries\\SearchQuery&#45;&gt;\\Firesphere\\SolrSearch\\Queries\\BaseQuery</title>
<path fill="none" stroke="#000000" d="M925.7249,-3088.5737C919.3211,-2980.9348 881.8951,-2428.8663 781.2549,-2298.8091 766.4502,-2279.6769 742.6132,-2267.5993 721.0475,-2260.1195"/>
<polygon fill="none" stroke="#000000" points="721.9308,-2256.7271 711.3394,-2256.9975 719.7878,-2263.391 721.9308,-2256.7271"/>
</g>
<!-- \\Firesphere\\SolrCompatibility\\Extensions\\FulltextSearchExtension -->
<g id="node4" class="node">
<title>\\Firesphere\\SolrCompatibility\\Extensions\\FulltextSearchExtension</title>
<polygon fill="none" stroke="#000000" points="1012.7549,-220.8091 840.7549,-220.8091 840.7549,-184.8091 1012.7549,-184.8091 1012.7549,-220.8091"/>
<text text-anchor="middle" x="926.7549" y="-200.0091" font-family="Courier,monospace" font-size="11.00" fill="#000000">FulltextSearchExtension</text>
</g>
<!-- \\SilverStripe\\Core\\Extension -->
<g id="node62" class="node">
<title>\\SilverStripe\\Core\\Extension</title>
<ellipse fill="none" stroke="#000000" cx="254.1275" cy="-18.8091" rx="144.0747" ry="18"/>
<text text-anchor="middle" x="254.1275" y="-15.1091" font-family="Times,serif" font-size="14.00" fill="#c0c0c0">\SilverStripe\Core\Extension</text>
</g>
<!-- \\Firesphere\\SolrCompatibility\\Extensions\\FulltextSearchExtension&#45;&gt;\\SilverStripe\\Core\\Extension -->
<g id="edge1" class="edge">
<title>\\Firesphere\\SolrCompatibility\\Extensions\\FulltextSearchExtension&#45;&gt;\\SilverStripe\\Core\\Extension</title>
<path fill="none" stroke="#000000" d="M909.2812,-184.7294C883.6376,-159.2986 833.1975,-113.3355 781.2549,-88.8091 736.5953,-67.7216 717.0421,-86.6677 672.7549,-64.8091"/>
<path fill="none" stroke="#000000" d="M672.7549,-64.8091C586.4401,-22.207 478.1923,-11.2563 393.3961,-10.6699"/>
<polygon fill="none" stroke="#000000" points="393.1818,-7.1695 383.1744,-10.6483 393.1669,-14.1695 393.1818,-7.1695"/>
</g>
<!-- \\Firesphere\\SolrSearch\\Tasks\\SolrConfigureTask -->
<g id="node5" class="node">
<title>\\Firesphere\\SolrSearch\\Tasks\\SolrConfigureTask</title>
<polygon fill="none" stroke="#000000" points="738.2549,-2588.8091 607.2549,-2588.8091 607.2549,-2552.8091 738.2549,-2552.8091 738.2549,-2588.8091"/>
<text text-anchor="middle" x="672.7549" y="-2568.0091" font-family="Courier,monospace" font-size="11.00" fill="#000000">SolrConfigureTask</text>
</g>
<!-- \\SilverStripe\\Dev\\BuildTask -->
<g id="node63" class="node">
<title>\\SilverStripe\\Dev\\BuildTask</title>
<ellipse fill="none" stroke="#000000" cx="254.1275" cy="-126.8091" rx="139.9756" ry="18"/>
<text text-anchor="middle" x="254.1275" y="-123.1091" font-family="Times,serif" font-size="14.00" fill="#c0c0c0">\SilverStripe\Dev\BuildTask</text>
</g>
<!-- \\Firesphere\\SolrSearch\\Tasks\\SolrConfigureTask&#45;&gt;\\SilverStripe\\Dev\\BuildTask -->
<g id="edge4" class="edge">
<title>\\Firesphere\\SolrSearch\\Tasks\\SolrConfigureTask&#45;&gt;\\SilverStripe\\Dev\\BuildTask</title>
<path fill="none" stroke="#000000" d="M606.9989,-2565.7358C593.5976,-2561.5828 580.9546,-2554.7799 572.2549,-2543.8091 504.3897,-2458.2269 537.638,-684.0071 508.2549,-578.8091 458.7712,-401.6464 326.3884,-219.3452 274.9614,-152.9681"/>
<polygon fill="none" stroke="#000000" points="277.4508,-150.4692 268.5389,-144.7396 271.9326,-154.7762 277.4508,-150.4692"/>
</g>
<!-- \\Firesphere\\SolrSearch\\Tasks\\SolrIndexTask -->
<g id="node6" class="node">
<title>\\Firesphere\\SolrSearch\\Tasks\\SolrIndexTask</title>
<polygon fill="none" stroke="#000000" points="724.7549,-2534.8091 620.7549,-2534.8091 620.7549,-2498.8091 724.7549,-2498.8091 724.7549,-2534.8091"/>
<text text-anchor="middle" x="672.7549" y="-2514.0091" font-family="Courier,monospace" font-size="11.00" fill="#000000">SolrIndexTask</text>
</g>
<!-- \\Firesphere\\SolrSearch\\Tasks\\SolrIndexTask&#45;&gt;\\SilverStripe\\Dev\\BuildTask -->
<g id="edge5" class="edge">
<title>\\Firesphere\\SolrSearch\\Tasks\\SolrIndexTask&#45;&gt;\\SilverStripe\\Dev\\BuildTask</title>
<path fill="none" stroke="#000000" d="M620.6297,-2515.0724C602.5324,-2511.6718 583.88,-2504.4551 572.2549,-2489.8091 440.1739,-2323.4041 565.502,-783.4032 508.2549,-578.8091 458.6898,-401.6692 326.3555,-219.3544 274.9514,-152.9709"/>
<polygon fill="none" stroke="#000000" points="277.4422,-150.4735 268.5318,-144.7415 271.9229,-154.779 277.4422,-150.4735"/>
</g>
<!-- \\Firesphere\\SolrSearch\\Tasks\\ClearDirtyClassesTask -->
<g id="node7" class="node">
<title>\\Firesphere\\SolrSearch\\Tasks\\ClearDirtyClassesTask</title>
<polygon fill="none" stroke="#000000" points="751.7549,-2480.8091 593.7549,-2480.8091 593.7549,-2444.8091 751.7549,-2444.8091 751.7549,-2480.8091"/>
<text text-anchor="middle" x="672.7549" y="-2460.0091" font-family="Courier,monospace" font-size="11.00" fill="#000000">ClearDirtyClassesTask</text>
</g>
<!-- \\Firesphere\\SolrSearch\\Tasks\\ClearDirtyClassesTask&#45;&gt;\\SilverStripe\\Dev\\BuildTask -->
<g id="edge6" class="edge">
<title>\\Firesphere\\SolrSearch\\Tasks\\ClearDirtyClassesTask&#45;&gt;\\SilverStripe\\Dev\\BuildTask</title>
<path fill="none" stroke="#000000" d="M593.6582,-2452.475C585.4234,-2448.4345 577.9867,-2443.0232 572.2549,-2435.8091 443.8233,-2274.1633 563.9829,-777.6014 508.2549,-578.8091 458.6036,-401.6933 326.3207,-219.3641 274.9409,-152.9739"/>
<polygon fill="none" stroke="#000000" points="277.4332,-150.4781 268.5244,-144.7436 271.9126,-154.7821 277.4332,-150.4781"/>
</g>
<!-- \\Firesphere\\SolrSearch\\Tasks\\ClearErrorsTask -->
<g id="node8" class="node">
<title>\\Firesphere\\SolrSearch\\Tasks\\ClearErrorsTask</title>
<polygon fill="none" stroke="#000000" points="731.7549,-2426.8091 613.7549,-2426.8091 613.7549,-2390.8091 731.7549,-2390.8091 731.7549,-2426.8091"/>
<text text-anchor="middle" x="672.7549" y="-2406.0091" font-family="Courier,monospace" font-size="11.00" fill="#000000">ClearErrorsTask</text>
</g>
<!-- \\Firesphere\\SolrSearch\\Tasks\\ClearErrorsTask&#45;&gt;\\SilverStripe\\Dev\\BuildTask -->
<g id="edge7" class="edge">
<title>\\Firesphere\\SolrSearch\\Tasks\\ClearErrorsTask&#45;&gt;\\SilverStripe\\Dev\\BuildTask</title>
<path fill="none" stroke="#000000" d="M613.6915,-2403.7521C597.8466,-2399.4148 582.3339,-2391.8462 572.2549,-2378.8091 449.8507,-2220.481 562.3794,-771.4774 508.2549,-578.8091 458.5071,-401.7204 326.2818,-219.3751 274.9291,-152.9772"/>
<polygon fill="none" stroke="#000000" points="277.423,-150.4833 268.516,-144.746 271.9011,-154.7855 277.423,-150.4833"/>
</g>
<!-- \\Firesphere\\SolrSearch\\Jobs\\SolrConfigureJob -->
<g id="node9" class="node">
<title>\\Firesphere\\SolrSearch\\Jobs\\SolrConfigureJob</title>
<polygon fill="none" stroke="#000000" points="735.2549,-2964.8091 610.2549,-2964.8091 610.2549,-2928.8091 735.2549,-2928.8091 735.2549,-2964.8091"/>
<text text-anchor="middle" x="672.7549" y="-2944.0091" font-family="Courier,monospace" font-size="11.00" fill="#000000">SolrConfigureJob</text>
</g>
<!-- \\Symbiote\\QueuedJobs\\Services\\AbstractQueuedJob -->
<g id="node64" class="node">
<title>\\Symbiote\\QueuedJobs\\Services\\AbstractQueuedJob</title>
<ellipse fill="none" stroke="#000000" cx="254.1275" cy="-3694.8091" rx="254.255" ry="18"/>
<text text-anchor="middle" x="254.1275" y="-3691.1091" font-family="Times,serif" font-size="14.00" fill="#c0c0c0">\Symbiote\QueuedJobs\Services\AbstractQueuedJob</text>
</g>
<!-- \\Firesphere\\SolrSearch\\Jobs\\SolrConfigureJob&#45;&gt;\\Symbiote\\QueuedJobs\\Services\\AbstractQueuedJob -->
<g id="edge8" class="edge">
<title>\\Firesphere\\SolrSearch\\Jobs\\SolrConfigureJob&#45;&gt;\\Symbiote\\QueuedJobs\\Services\\AbstractQueuedJob</title>
<path fill="none" stroke="#000000" d="M671.3994,-2964.9077C663.3653,-3067.0056 618.5358,-3569.8758 508.2549,-3667.8091 502.496,-3672.9232 496.3495,-3677.4679 489.8946,-3681.4969"/>
<polygon fill="none" stroke="#000000" points="487.8246,-3678.6502 480.9086,-3686.6764 491.3203,-3684.7149 487.8246,-3678.6502"/>
</g>
<!-- \\Firesphere\\SolrSearch\\Jobs\\SolrIndexJob -->
<g id="node10" class="node">
<title>\\Firesphere\\SolrSearch\\Jobs\\SolrIndexJob</title>
<polygon fill="none" stroke="#000000" points="721.7549,-2910.8091 623.7549,-2910.8091 623.7549,-2874.8091 721.7549,-2874.8091 721.7549,-2910.8091"/>
<text text-anchor="middle" x="672.7549" y="-2890.0091" font-family="Courier,monospace" font-size="11.00" fill="#000000">SolrIndexJob</text>
</g>
<!-- \\Firesphere\\SolrSearch\\Jobs\\SolrIndexJob&#45;&gt;\\Symbiote\\QueuedJobs\\Services\\AbstractQueuedJob -->
<g id="edge9" class="edge">
<title>\\Firesphere\\SolrSearch\\Jobs\\SolrIndexJob&#45;&gt;\\Symbiote\\QueuedJobs\\Services\\AbstractQueuedJob</title>
<path fill="none" stroke="#000000" d="M623.6403,-2894.399C604.8051,-2897.6365 584.8357,-2904.7766 572.2549,-2919.8091 465.1834,-3047.7457 625.0062,-3548.6401 508.2549,-3667.8091 470.3405,-3706.5086 410.7768,-3714.4326 358.843,-3712.1354"/>
<polygon fill="none" stroke="#000000" points="358.7508,-3708.6244 348.5667,-3711.5457 358.3497,-3715.6129 358.7508,-3708.6244"/>
</g>
<!-- \\Firesphere\\SolrSearch\\Jobs\\ClearDirtyClassesJob -->
<g id="node11" class="node">
<title>\\Firesphere\\SolrSearch\\Jobs\\ClearDirtyClassesJob</title>
<polygon fill="none" stroke="#000000" points="748.7549,-2856.8091 596.7549,-2856.8091 596.7549,-2820.8091 748.7549,-2820.8091 748.7549,-2856.8091"/>
<text text-anchor="middle" x="672.7549" y="-2836.0091" font-family="Courier,monospace" font-size="11.00" fill="#000000">ClearDirtyClassesJob</text>
</g>
<!-- \\Firesphere\\SolrSearch\\Jobs\\ClearDirtyClassesJob&#45;&gt;\\Symbiote\\QueuedJobs\\Services\\AbstractQueuedJob -->
<g id="edge10" class="edge">
<title>\\Firesphere\\SolrSearch\\Jobs\\ClearDirtyClassesJob&#45;&gt;\\Symbiote\\QueuedJobs\\Services\\AbstractQueuedJob</title>
<path fill="none" stroke="#000000" d="M596.4271,-2848.2578C587.175,-2852.3652 578.726,-2858.0318 572.2549,-2865.8091 457.9007,-3003.2447 633.0096,-3539.74 508.2549,-3667.8091 470.1545,-3706.9217 409.9559,-3714.6685 357.7112,-3712.1677"/>
<polygon fill="none" stroke="#000000" points="357.9104,-3708.6734 347.717,-3711.5621 357.487,-3715.6606 357.9104,-3708.6734"/>
</g>
<!-- \\Firesphere\\SolrSearch\\Models\\SolrLog -->
<g id="node12" class="node">
<title>\\Firesphere\\SolrSearch\\Models\\SolrLog</title>
<polygon fill="none" stroke="#000000" points="704.7549,-2668.8091 640.7549,-2668.8091 640.7549,-2632.8091 704.7549,-2632.8091 704.7549,-2668.8091"/>
<text text-anchor="middle" x="672.7549" y="-2648.0091" font-family="Courier,monospace" font-size="11.00" fill="#000000">SolrLog</text>
</g>
<!-- \\SilverStripe\\ORM\\DataObject -->
<g id="node65" class="node">
<title>\\SilverStripe\\ORM\\DataObject</title>
<ellipse fill="none" stroke="#000000" cx="254.1275" cy="-3640.8091" rx="152.9733" ry="18"/>
<text text-anchor="middle" x="254.1275" y="-3637.1091" font-family="Times,serif" font-size="14.00" fill="#c0c0c0">\SilverStripe\ORM\DataObject</text>
</g>
<!-- \\Firesphere\\SolrSearch\\Models\\SolrLog&#45;&gt;\\SilverStripe\\ORM\\DataObject -->
<g id="edge11" class="edge">
<title>\\Firesphere\\SolrSearch\\Models\\SolrLog&#45;&gt;\\SilverStripe\\ORM\\DataObject</title>
<path fill="none" stroke="#000000" d="M640.4111,-2650.3157C617.6906,-2651.8552 588.5514,-2657.9954 572.2549,-2677.8091 439.819,-2838.8277 652.8807,-3463.6436 508.2549,-3613.8091 466.6043,-3657.055 397.9749,-3662.1243 342.5288,-3657.2944"/>
<polygon fill="none" stroke="#000000" points="342.6352,-3653.7879 332.3387,-3656.2843 341.9446,-3660.7537 342.6352,-3653.7879"/>
</g>
<!-- \\SilverStripe\\Security\\PermissionProvider -->
<g id="node66" class="node">
<title>\\SilverStripe\\Security\\PermissionProvider</title>
<ellipse fill="none" stroke="#000000" cx="254.1275" cy="-3586.8091" rx="206.0634" ry="18"/>
<text text-anchor="middle" x="254.1275" y="-3583.1091" font-family="Times,serif" font-size="14.00" fill="#c0c0c0">\SilverStripe\Security\PermissionProvider</text>
</g>
<!-- \\Firesphere\\SolrSearch\\Models\\SolrLog&#45;&gt;\\SilverStripe\\Security\\PermissionProvider -->
<g id="edge12" class="edge">
<title>\\Firesphere\\SolrSearch\\Models\\SolrLog&#45;&gt;\\SilverStripe\\Security\\PermissionProvider</title>
<path fill="none" stroke="#000000" stroke-dasharray="1,5" d="M640.4356,-2650.3359C617.7274,-2651.8855 588.5926,-2658.0294 572.2549,-2677.8091 447.1071,-2829.3224 644.8714,-3418.5497 508.2549,-3559.8091 468.7742,-3600.6315 405.242,-3607.3814 351.5801,-3603.9257"/>
<polygon fill="none" stroke="#000000" points="351.5761,-3600.4151 341.3368,-3603.1368 351.0385,-3607.3945 351.5761,-3600.4151"/>
</g>
<!-- \\Firesphere\\SolrSearch\\Models\\DirtyClass -->
<g id="node13" class="node">
<title>\\Firesphere\\SolrSearch\\Models\\DirtyClass</title>
<polygon fill="none" stroke="#000000" points="714.7549,-2722.8091 630.7549,-2722.8091 630.7549,-2686.8091 714.7549,-2686.8091 714.7549,-2722.8091"/>
<text text-anchor="middle" x="672.7549" y="-2702.0091" font-family="Courier,monospace" font-size="11.00" fill="#000000">DirtyClass</text>
</g>
<!-- \\Firesphere\\SolrSearch\\Models\\DirtyClass&#45;&gt;\\SilverStripe\\ORM\\DataObject -->
<g id="edge13" class="edge">
<title>\\Firesphere\\SolrSearch\\Models\\DirtyClass&#45;&gt;\\SilverStripe\\ORM\\DataObject</title>
<path fill="none" stroke="#000000" d="M630.5119,-2705.2893C609.7743,-2707.8866 586.2916,-2714.8152 572.2549,-2731.8091 447.1071,-2883.3224 644.8714,-3472.5497 508.2549,-3613.8091 466.5869,-3656.8931 398.1287,-3662.0247 342.7581,-3657.2615"/>
<polygon fill="none" stroke="#000000" points="342.8747,-3653.7562 332.5809,-3656.2638 342.1917,-3660.7228 342.8747,-3653.7562"/>
</g>
<!-- \\Firesphere\\SolrSearch\\Models\\SearchSynonym -->
<g id="node14" class="node">
<title>\\Firesphere\\SolrSearch\\Models\\SearchSynonym</title>
<polygon fill="none" stroke="#000000" points="724.7549,-2776.8091 620.7549,-2776.8091 620.7549,-2740.8091 724.7549,-2740.8091 724.7549,-2776.8091"/>
<text text-anchor="middle" x="672.7549" y="-2756.0091" font-family="Courier,monospace" font-size="11.00" fill="#000000">SearchSynonym</text>
</g>
<!-- \\Firesphere\\SolrSearch\\Models\\SearchSynonym&#45;&gt;\\SilverStripe\\ORM\\DataObject -->
<g id="edge14" class="edge">
<title>\\Firesphere\\SolrSearch\\Models\\SearchSynonym&#45;&gt;\\SilverStripe\\ORM\\DataObject</title>
<path fill="none" stroke="#000000" d="M620.5388,-2772.9972C602.3163,-2780.6152 583.6022,-2792.0159 572.2549,-2808.8091 471.7829,-2957.4996 633.4544,-3485.2454 508.2549,-3613.8091 466.5842,-3656.5994 398.4652,-3661.8524 343.2376,-3657.2141"/>
<polygon fill="none" stroke="#000000" points="343.3734,-3653.7111 333.0847,-3656.2398 342.7046,-3660.6791 343.3734,-3653.7111"/>
</g>
<!-- \\Firesphere\\SolrSearch\\Extensions\\DataObjectExtension -->
<g id="node17" class="node">
<title>\\Firesphere\\SolrSearch\\Extensions\\DataObjectExtension</title>
<polygon fill="none" stroke="#000000" points="745.2549,-2186.8091 600.2549,-2186.8091 600.2549,-2150.8091 745.2549,-2150.8091 745.2549,-2186.8091"/>
<text text-anchor="middle" x="672.7549" y="-2166.0091" font-family="Courier,monospace" font-size="11.00" fill="#000000">DataObjectExtension</text>
</g>
<!-- \\SilverStripe\\ORM\\DataExtension -->
<g id="node67" class="node">
<title>\\SilverStripe\\ORM\\DataExtension</title>
<ellipse fill="none" stroke="#000000" cx="254.1275" cy="-72.8091" rx="167.8704" ry="18"/>
<text text-anchor="middle" x="254.1275" y="-69.1091" font-family="Times,serif" font-size="14.00" fill="#c0c0c0">\SilverStripe\ORM\DataExtension</text>
</g>
<!-- \\Firesphere\\SolrSearch\\Extensions\\DataObjectExtension&#45;&gt;\\SilverStripe\\ORM\\DataExtension -->
<g id="edge15" class="edge">
<title>\\Firesphere\\SolrSearch\\Extensions\\DataObjectExtension&#45;&gt;\\SilverStripe\\ORM\\DataExtension</title>
<path fill="none" stroke="#000000" d="M600.0721,-2161.3237C589.3042,-2157.0929 579.4336,-2150.8733 572.2549,-2141.8091 431.3204,-1963.8579 662.6778,-266.1902 508.2549,-99.8091 467.4101,-55.8013 398.7346,-50.7755 343.0659,-55.8159"/>
<polygon fill="none" stroke="#000000" points="342.4224,-52.3635 332.8324,-56.8671 343.1377,-59.3269 342.4224,-52.3635"/>
</g>
<!-- \\Firesphere\\SolrSearch\\Extensions\\GridFieldExtension -->
<g id="node18" class="node">
<title>\\Firesphere\\SolrSearch\\Extensions\\GridFieldExtension</title>
<polygon fill="none" stroke="#000000" points="741.7549,-2132.8091 603.7549,-2132.8091 603.7549,-2096.8091 741.7549,-2096.8091 741.7549,-2132.8091"/>
<text text-anchor="middle" x="672.7549" y="-2112.0091" font-family="Courier,monospace" font-size="11.00" fill="#000000">GridFieldExtension</text>
</g>
<!-- \\Firesphere\\SolrSearch\\Extensions\\GridFieldExtension&#45;&gt;\\SilverStripe\\Core\\Extension -->
<g id="edge16" class="edge">
<title>\\Firesphere\\SolrSearch\\Extensions\\GridFieldExtension&#45;&gt;\\SilverStripe\\Core\\Extension</title>
<path fill="none" stroke="#000000" d="M603.5132,-2106.5017C591.3831,-2101.9231 580.1409,-2095.0535 572.2549,-2084.8091 433.991,-1905.1953 662.455,-211.9425 508.2549,-45.8091 466.3278,-.6372 395.078,3.4623 338.6722,-2.2374"/>
<polygon fill="none" stroke="#000000" points="338.2273,1.2347 328.6823,-3.3633 339.0114,-5.7213 338.2273,1.2347"/>
</g>
<!-- \\Firesphere\\SolrSearch\\Traits\\BaseQueryTrait -->
<g id="node19" class="node">
<title>\\Firesphere\\SolrSearch\\Traits\\BaseQueryTrait</title>
<polygon fill="none" stroke="#000000" points="728.2549,-2052.8091 617.2549,-2052.8091 617.2549,-2016.8091 728.2549,-2016.8091 728.2549,-2052.8091"/>
<text text-anchor="middle" x="672.7549" y="-2032.0091" font-family="Courier,monospace" font-size="11.00" fill="#000000">BaseQueryTrait</text>
</g>
<!-- \\Firesphere\\SolrSearch\\Traits\\BaseIndexTrait -->
<g id="node20" class="node">
<title>\\Firesphere\\SolrSearch\\Traits\\BaseIndexTrait</title>
<polygon fill="none" stroke="#000000" points="728.2549,-1998.8091 617.2549,-1998.8091 617.2549,-1962.8091 728.2549,-1962.8091 728.2549,-1998.8091"/>
<text text-anchor="middle" x="672.7549" y="-1978.0091" font-family="Courier,monospace" font-size="11.00" fill="#000000">BaseIndexTrait</text>
</g>
<!-- \\Firesphere\\SolrSearch\\Traits\\SolrIndexTrait -->
<g id="node21" class="node">
<title>\\Firesphere\\SolrSearch\\Traits\\SolrIndexTrait</title>
<polygon fill="none" stroke="#000000" points="728.2549,-1944.8091 617.2549,-1944.8091 617.2549,-1908.8091 728.2549,-1908.8091 728.2549,-1944.8091"/>
<text text-anchor="middle" x="672.7549" y="-1924.0091" font-family="Courier,monospace" font-size="11.00" fill="#000000">SolrIndexTrait</text>
</g>
<!-- \\Firesphere\\SolrSearch\\Traits\\SearchResultSetTrait -->
<g id="node22" class="node">
<title>\\Firesphere\\SolrSearch\\Traits\\SearchResultSetTrait</title>
<polygon fill="none" stroke="#000000" points="748.7549,-1890.8091 596.7549,-1890.8091 596.7549,-1854.8091 748.7549,-1854.8091 748.7549,-1890.8091"/>
<text text-anchor="middle" x="672.7549" y="-1870.0091" font-family="Courier,monospace" font-size="11.00" fill="#000000">SearchResultSetTrait</text>
</g>
<!-- \\Firesphere\\SolrSearch\\Traits\\SearchResultGetTrait -->
<g id="node23" class="node">
<title>\\Firesphere\\SolrSearch\\Traits\\SearchResultGetTrait</title>
<polygon fill="none" stroke="#000000" points="748.7549,-1836.8091 596.7549,-1836.8091 596.7549,-1800.8091 748.7549,-1800.8091 748.7549,-1836.8091"/>
<text text-anchor="middle" x="672.7549" y="-1816.0091" font-family="Courier,monospace" font-size="11.00" fill="#000000">SearchResultGetTrait</text>
</g>
<!-- \\Firesphere\\SolrSearch\\Traits\\CoreAdminTrait -->
<g id="node24" class="node">
<title>\\Firesphere\\SolrSearch\\Traits\\CoreAdminTrait</title>
<polygon fill="none" stroke="#000000" points="728.2549,-1782.8091 617.2549,-1782.8091 617.2549,-1746.8091 728.2549,-1746.8091 728.2549,-1782.8091"/>
<text text-anchor="middle" x="672.7549" y="-1762.0091" font-family="Courier,monospace" font-size="11.00" fill="#000000">CoreAdminTrait</text>
</g>
<!-- \\Firesphere\\SolrSearch\\Traits\\CoreServiceTrait -->
<g id="node25" class="node">
<title>\\Firesphere\\SolrSearch\\Traits\\CoreServiceTrait</title>
<polygon fill="none" stroke="#000000" points="735.2549,-1728.8091 610.2549,-1728.8091 610.2549,-1692.8091 735.2549,-1692.8091 735.2549,-1728.8091"/>
<text text-anchor="middle" x="672.7549" y="-1708.0091" font-family="Courier,monospace" font-size="11.00" fill="#000000">CoreServiceTrait</text>
</g>
<!-- \\Firesphere\\SolrSearch\\Traits\\GetterSetterTrait -->
<g id="node26" class="node">
<title>\\Firesphere\\SolrSearch\\Traits\\GetterSetterTrait</title>
<polygon fill="none" stroke="#000000" points="738.2549,-1674.8091 607.2549,-1674.8091 607.2549,-1638.8091 738.2549,-1638.8091 738.2549,-1674.8091"/>
<text text-anchor="middle" x="672.7549" y="-1654.0091" font-family="Courier,monospace" font-size="11.00" fill="#000000">GetterSetterTrait</text>
</g>
<!-- \\Firesphere\\SolrSearch\\Traits\\LoggerTrait -->
<g id="node27" class="node">
<title>\\Firesphere\\SolrSearch\\Traits\\LoggerTrait</title>
<polygon fill="none" stroke="#000000" points="718.2549,-1620.8091 627.2549,-1620.8091 627.2549,-1584.8091 718.2549,-1584.8091 718.2549,-1620.8091"/>
<text text-anchor="middle" x="672.7549" y="-1600.0091" font-family="Courier,monospace" font-size="11.00" fill="#000000">LoggerTrait</text>
</g>
<!-- \\Firesphere\\SolrSearch\\Traits\\QueryComponentBoostTrait -->
<g id="node28" class="node">
<title>\\Firesphere\\SolrSearch\\Traits\\QueryComponentBoostTrait</title>
<polygon fill="none" stroke="#000000" points="762.2549,-1566.8091 583.2549,-1566.8091 583.2549,-1530.8091 762.2549,-1530.8091 762.2549,-1566.8091"/>
<text text-anchor="middle" x="672.7549" y="-1546.0091" font-family="Courier,monospace" font-size="11.00" fill="#000000">QueryComponentBoostTrait</text>
</g>
<!-- \\Firesphere\\SolrSearch\\Traits\\QueryComponentFilterTrait -->
<g id="node29" class="node">
<title>\\Firesphere\\SolrSearch\\Traits\\QueryComponentFilterTrait</title>
<polygon fill="none" stroke="#000000" points="765.2549,-1512.8091 580.2549,-1512.8091 580.2549,-1476.8091 765.2549,-1476.8091 765.2549,-1512.8091"/>
<text text-anchor="middle" x="672.7549" y="-1492.0091" font-family="Courier,monospace" font-size="11.00" fill="#000000">QueryComponentFilterTrait</text>
</g>
<!-- \\Firesphere\\SolrSearch\\Traits\\QueryComponentFacetTrait -->
<g id="node30" class="node">
<title>\\Firesphere\\SolrSearch\\Traits\\QueryComponentFacetTrait</title>
<polygon fill="none" stroke="#000000" points="762.2549,-1458.8091 583.2549,-1458.8091 583.2549,-1422.8091 762.2549,-1422.8091 762.2549,-1458.8091"/>
<text text-anchor="middle" x="672.7549" y="-1438.0091" font-family="Courier,monospace" font-size="11.00" fill="#000000">QueryComponentFacetTrait</text>
</g>
<!-- \\Firesphere\\SolrSearch\\Traits\\GetSetSchemaServiceTrait -->
<g id="node31" class="node">
<title>\\Firesphere\\SolrSearch\\Traits\\GetSetSchemaServiceTrait</title>
<polygon fill="none" stroke="#000000" points="762.2549,-1404.8091 583.2549,-1404.8091 583.2549,-1368.8091 762.2549,-1368.8091 762.2549,-1404.8091"/>
<text text-anchor="middle" x="672.7549" y="-1384.0091" font-family="Courier,monospace" font-size="11.00" fill="#000000">GetSetSchemaServiceTrait</text>
</g>
<!-- \\Firesphere\\SolrSearch\\Traits\\DocumentFactoryTrait -->
<g id="node32" class="node">
<title>\\Firesphere\\SolrSearch\\Traits\\DocumentFactoryTrait</title>
<polygon fill="none" stroke="#000000" points="748.7549,-1350.8091 596.7549,-1350.8091 596.7549,-1314.8091 748.7549,-1314.8091 748.7549,-1350.8091"/>
<text text-anchor="middle" x="672.7549" y="-1330.0091" font-family="Courier,monospace" font-size="11.00" fill="#000000">DocumentFactoryTrait</text>
</g>
<!-- \\Firesphere\\SolrSearch\\Traits\\GetSetSearchResolverTrait -->
<g id="node33" class="node">
<title>\\Firesphere\\SolrSearch\\Traits\\GetSetSearchResolverTrait</title>
<polygon fill="none" stroke="#000000" points="765.2549,-1296.8091 580.2549,-1296.8091 580.2549,-1260.8091 765.2549,-1260.8091 765.2549,-1296.8091"/>
<text text-anchor="middle" x="672.7549" y="-1276.0091" font-family="Courier,monospace" font-size="11.00" fill="#000000">GetSetSearchResolverTrait</text>
</g>
<!-- \\Firesphere\\SolrSearch\\Traits\\DataResolveTrait -->
<g id="node34" class="node">
<title>\\Firesphere\\SolrSearch\\Traits\\DataResolveTrait</title>
<polygon fill="none" stroke="#000000" points="735.2549,-1242.8091 610.2549,-1242.8091 610.2549,-1206.8091 735.2549,-1206.8091 735.2549,-1242.8091"/>
<text text-anchor="middle" x="672.7549" y="-1222.0091" font-family="Courier,monospace" font-size="11.00" fill="#000000">DataResolveTrait</text>
</g>
<!-- \\Firesphere\\SolrSearch\\Interfaces\\SiteStateInterface -->
<g id="node35" class="node">
<title>\\Firesphere\\SolrSearch\\Interfaces\\SiteStateInterface</title>
<polygon fill="none" stroke="#000000" points="323.1275,-626.8091 185.1275,-626.8091 185.1275,-590.8091 323.1275,-590.8091 323.1275,-626.8091"/>
<text text-anchor="middle" x="254.1275" y="-606.0091" font-family="Courier,monospace" font-size="11.00" fill="#000000">SiteStateInterface</text>
</g>
<!-- \\Firesphere\\SolrSearch\\Interfaces\\ConfigStore -->
<g id="node36" class="node">
<title>\\Firesphere\\SolrSearch\\Interfaces\\ConfigStore</title>
<polygon fill="none" stroke="#000000" points="299.6275,-680.8091 208.6275,-680.8091 208.6275,-644.8091 299.6275,-644.8091 299.6275,-680.8091"/>
<text text-anchor="middle" x="254.1275" y="-660.0091" font-family="Courier,monospace" font-size="11.00" fill="#000000">ConfigStore</text>
</g>
<!-- \\Firesphere\\SolrSearch\\Admins\\SearchAdmin -->
<g id="node37" class="node">
<title>\\Firesphere\\SolrSearch\\Admins\\SearchAdmin</title>
<polygon fill="none" stroke="#000000" points="718.2549,-1162.8091 627.2549,-1162.8091 627.2549,-1126.8091 718.2549,-1126.8091 718.2549,-1162.8091"/>
<text text-anchor="middle" x="672.7549" y="-1142.0091" font-family="Courier,monospace" font-size="11.00" fill="#000000">SearchAdmin</text>
</g>
<!-- \\SilverStripe\\Admin\\ModelAdmin -->
<g id="node68" class="node">
<title>\\SilverStripe\\Admin\\ModelAdmin</title>
<ellipse fill="none" stroke="#000000" cx="254.1275" cy="-3532.8091" rx="165.1707" ry="18"/>
<text text-anchor="middle" x="254.1275" y="-3529.1091" font-family="Times,serif" font-size="14.00" fill="#c0c0c0">\SilverStripe\Admin\ModelAdmin</text>
</g>
<!-- \\Firesphere\\SolrSearch\\Admins\\SearchAdmin&#45;&gt;\\SilverStripe\\Admin\\ModelAdmin -->
<g id="edge17" class="edge">
<title>\\Firesphere\\SolrSearch\\Admins\\SearchAdmin&#45;&gt;\\SilverStripe\\Admin\\ModelAdmin</title>
<path fill="none" stroke="#000000" d="M627.1591,-1155.9331C606.7641,-1163.3949 584.581,-1175.5113 572.2549,-1194.8091 503.1172,-1303.051 595.4566,-3411.5105 508.2549,-3505.8091 467.2777,-3550.1212 398.0928,-3554.964 342.2488,-3549.7717"/>
<polygon fill="none" stroke="#000000" points="342.2978,-3546.2577 331.9866,-3548.6927 341.5657,-3553.2193 342.2978,-3546.2577"/>
</g>
<!-- \\Firesphere\\SolrSearch\\Factories\\DocumentFactory -->
<g id="node38" class="node">
<title>\\Firesphere\\SolrSearch\\Factories\\DocumentFactory</title>
<polygon fill="none" stroke="#000000" points="731.7549,-1082.8091 613.7549,-1082.8091 613.7549,-1046.8091 731.7549,-1046.8091 731.7549,-1082.8091"/>
<text text-anchor="middle" x="672.7549" y="-1062.0091" font-family="Courier,monospace" font-size="11.00" fill="#000000">DocumentFactory</text>
</g>
<!-- \\Firesphere\\SolrSearch\\Factories\\QueryComponentFactory -->
<g id="node39" class="node">
<title>\\Firesphere\\SolrSearch\\Factories\\QueryComponentFactory</title>
<polygon fill="none" stroke="#000000" points="751.7549,-1028.8091 593.7549,-1028.8091 593.7549,-992.8091 751.7549,-992.8091 751.7549,-1028.8091"/>
<text text-anchor="middle" x="672.7549" y="-1008.0091" font-family="Courier,monospace" font-size="11.00" fill="#000000">QueryComponentFactory</text>
</g>
<!-- \\Firesphere\\SolrSearch\\Services\\SolrCoreService -->
<g id="node40" class="node">
<title>\\Firesphere\\SolrSearch\\Services\\SolrCoreService</title>
<polygon fill="none" stroke="#000000" points="731.7549,-948.8091 613.7549,-948.8091 613.7549,-912.8091 731.7549,-912.8091 731.7549,-948.8091"/>
<text text-anchor="middle" x="672.7549" y="-928.0091" font-family="Courier,monospace" font-size="11.00" fill="#000000">SolrCoreService</text>
</g>
<!-- \\Firesphere\\SolrSearch\\Services\\SchemaService -->
<g id="node41" class="node">
<title>\\Firesphere\\SolrSearch\\Services\\SchemaService</title>
<polygon fill="none" stroke="#000000" points="724.7549,-894.8091 620.7549,-894.8091 620.7549,-858.8091 724.7549,-858.8091 724.7549,-894.8091"/>
<text text-anchor="middle" x="672.7549" y="-874.0091" font-family="Courier,monospace" font-size="11.00" fill="#000000">SchemaService</text>
</g>
<!-- \\SilverStripe\\View\\ViewableData -->
<g id="node69" class="node">
<title>\\SilverStripe\\View\\ViewableData</title>
<ellipse fill="none" stroke="#000000" cx="254.1275" cy="-3478.8091" rx="163.2712" ry="18"/>
<text text-anchor="middle" x="254.1275" y="-3475.1091" font-family="Times,serif" font-size="14.00" fill="#c0c0c0">\SilverStripe\View\ViewableData</text>
</g>
<!-- \\Firesphere\\SolrSearch\\Services\\SchemaService&#45;&gt;\\SilverStripe\\View\\ViewableData -->
<g id="edge18" class="edge">
<title>\\Firesphere\\SolrSearch\\Services\\SchemaService&#45;&gt;\\SilverStripe\\View\\ViewableData</title>
<path fill="none" stroke="#000000" d="M620.5644,-878.494C602.4593,-881.8885 583.8186,-889.1145 572.2549,-903.8091 484.6872,-1015.0858 604.259,-3347.7233 508.2549,-3451.8091 467.264,-3496.2506 397.9068,-3501.03 341.9966,-3495.7794"/>
<polygon fill="none" stroke="#000000" points="342.0367,-3492.2641 331.7233,-3494.6895 341.2982,-3499.225 342.0367,-3492.2641"/>
</g>
<!-- \\Firesphere\\SolrSearch\\States\\SiteState -->
<g id="node42" class="node">
<title>\\Firesphere\\SolrSearch\\States\\SiteState</title>
<polygon fill="none" stroke="#000000" points="714.7549,-814.8091 630.7549,-814.8091 630.7549,-778.8091 714.7549,-778.8091 714.7549,-814.8091"/>
<text text-anchor="start" x="638.7549" y="-800.0091" font-family="Courier,monospace" font-size="11.00" fill="#000000">«abstract»</text>
<text text-anchor="start" x="642.2549" y="-788.0091" font-family="Courier,monospace" font-size="11.00" fill="#000000">SiteState</text>
</g>
<!-- \\Firesphere\\SolrSearch\\Stores\\FileConfigStore -->
<g id="node43" class="node">
<title>\\Firesphere\\SolrSearch\\Stores\\FileConfigStore</title>
<polygon fill="none" stroke="#000000" points="731.7549,-734.8091 613.7549,-734.8091 613.7549,-698.8091 731.7549,-698.8091 731.7549,-734.8091"/>
<text text-anchor="middle" x="672.7549" y="-714.0091" font-family="Courier,monospace" font-size="11.00" fill="#000000">FileConfigStore</text>
</g>
<!-- \\Firesphere\\SolrSearch\\Stores\\FileConfigStore&#45;&gt;\\Firesphere\\SolrSearch\\Interfaces\\ConfigStore -->
<g id="edge19" class="edge">
<title>\\Firesphere\\SolrSearch\\Stores\\FileConfigStore&#45;&gt;\\Firesphere\\SolrSearch\\Interfaces\\ConfigStore</title>
<path fill="none" stroke="#000000" stroke-dasharray="1,5" d="M613.6637,-709.1867C532.8854,-698.7669 389.0185,-680.209 309.9722,-670.0126"/>
<polygon fill="none" stroke="#000000" points="310.0944,-666.4995 299.7287,-668.6913 309.1988,-673.442 310.0944,-666.4995"/>
</g>
<!-- \\Firesphere\\SolrSearch\\Stores\\PostConfigStore -->
<g id="node44" class="node">
<title>\\Firesphere\\SolrSearch\\Stores\\PostConfigStore</title>
<polygon fill="none" stroke="#000000" points="731.7549,-680.8091 613.7549,-680.8091 613.7549,-644.8091 731.7549,-644.8091 731.7549,-680.8091"/>
<text text-anchor="middle" x="672.7549" y="-660.0091" font-family="Courier,monospace" font-size="11.00" fill="#000000">PostConfigStore</text>
</g>
<!-- \\Firesphere\\SolrSearch\\Stores\\PostConfigStore&#45;&gt;\\Firesphere\\SolrSearch\\Interfaces\\ConfigStore -->
<g id="edge20" class="edge">
<title>\\Firesphere\\SolrSearch\\Stores\\PostConfigStore&#45;&gt;\\Firesphere\\SolrSearch\\Interfaces\\ConfigStore</title>
<path fill="none" stroke="#000000" stroke-dasharray="1,5" d="M613.6637,-662.8091C532.8854,-662.8091 389.0185,-662.8091 309.9722,-662.8091"/>
<polygon fill="none" stroke="#000000" points="309.7288,-659.3092 299.7287,-662.8091 309.7287,-666.3092 309.7288,-659.3092"/>
</g>
<!-- \\Firesphere\\SolrSearch\\Helpers\\FieldResolver -->
<g id="node45" class="node">
<title>\\Firesphere\\SolrSearch\\Helpers\\FieldResolver</title>
<polygon fill="none" stroke="#000000" points="724.7549,-600.8091 620.7549,-600.8091 620.7549,-564.8091 724.7549,-564.8091 724.7549,-600.8091"/>
<text text-anchor="middle" x="672.7549" y="-580.0091" font-family="Courier,monospace" font-size="11.00" fill="#000000">FieldResolver</text>
</g>
<!-- \\Firesphere\\SolrSearch\\Helpers\\Statics -->
<g id="node46" class="node">
<title>\\Firesphere\\SolrSearch\\Helpers\\Statics</title>
<polygon fill="none" stroke="#000000" points="704.7549,-546.8091 640.7549,-546.8091 640.7549,-510.8091 704.7549,-510.8091 704.7549,-546.8091"/>
<text text-anchor="middle" x="672.7549" y="-526.0091" font-family="Courier,monospace" font-size="11.00" fill="#000000">Statics</text>
</g>
<!-- \\Firesphere\\SolrSearch\\Helpers\\SolrLogger -->
<g id="node47" class="node">
<title>\\Firesphere\\SolrSearch\\Helpers\\SolrLogger</title>
<polygon fill="none" stroke="#000000" points="714.7549,-492.8091 630.7549,-492.8091 630.7549,-456.8091 714.7549,-456.8091 714.7549,-492.8091"/>
<text text-anchor="middle" x="672.7549" y="-472.0091" font-family="Courier,monospace" font-size="11.00" fill="#000000">SolrLogger</text>
</g>
<!-- \\Firesphere\\SolrSearch\\Helpers\\DataResolver -->
<g id="node48" class="node">
<title>\\Firesphere\\SolrSearch\\Helpers\\DataResolver</title>
<polygon fill="none" stroke="#000000" points="721.7549,-438.8091 623.7549,-438.8091 623.7549,-402.8091 721.7549,-402.8091 721.7549,-438.8091"/>
<text text-anchor="middle" x="672.7549" y="-418.0091" font-family="Courier,monospace" font-size="11.00" fill="#000000">DataResolver</text>
</g>
<!-- \\Firesphere\\SolrSearch\\Helpers\\Synonyms -->
<g id="node49" class="node">
<title>\\Firesphere\\SolrSearch\\Helpers\\Synonyms</title>
<polygon fill="none" stroke="#000000" points="708.2549,-384.8091 637.2549,-384.8091 637.2549,-348.8091 708.2549,-348.8091 708.2549,-384.8091"/>
<text text-anchor="middle" x="672.7549" y="-364.0091" font-family="Courier,monospace" font-size="11.00" fill="#000000">Synonyms</text>
</g>
<!-- \\Firesphere\\SolrSearch\\Forms\\SearchForm -->
<g id="node50" class="node">
<title>\\Firesphere\\SolrSearch\\Forms\\SearchForm</title>
<polygon fill="none" stroke="#000000" points="714.7549,-304.8091 630.7549,-304.8091 630.7549,-268.8091 714.7549,-268.8091 714.7549,-304.8091"/>
<text text-anchor="middle" x="672.7549" y="-284.0091" font-family="Courier,monospace" font-size="11.00" fill="#000000">SearchForm</text>
</g>
<!-- \\SilverStripe\\Forms\\Form -->
<g id="node70" class="node">
<title>\\SilverStripe\\Forms\\Form</title>
<ellipse fill="none" stroke="#000000" cx="254.1275" cy="-3424.8091" rx="129.1772" ry="18"/>
<text text-anchor="middle" x="254.1275" y="-3421.1091" font-family="Times,serif" font-size="14.00" fill="#c0c0c0">\SilverStripe\Forms\Form</text>
</g>
<!-- \\Firesphere\\SolrSearch\\Forms\\SearchForm&#45;&gt;\\SilverStripe\\Forms\\Form -->
<g id="edge21" class="edge">
<title>\\Firesphere\\SolrSearch\\Forms\\SearchForm&#45;&gt;\\SilverStripe\\Forms\\Form</title>
<path fill="none" stroke="#000000" d="M630.6159,-297.3186C609.6397,-304.7936 585.906,-317.1058 572.2549,-336.8091 525.9481,-403.646 284.1133,-3090.0717 256.6645,-3396.4443"/>
<polygon fill="none" stroke="#000000" points="253.1518,-3396.4305 255.7459,-3406.7028 260.1239,-3397.0549 253.1518,-3396.4305"/>
</g>
<!-- \\Firesphere\\SolrSearch\\Results\\SearchResult -->
<g id="node51" class="node">
<title>\\Firesphere\\SolrSearch\\Results\\SearchResult</title>
<polygon fill="none" stroke="#000000" points="721.7549,-224.8091 623.7549,-224.8091 623.7549,-188.8091 721.7549,-188.8091 721.7549,-224.8091"/>
<text text-anchor="middle" x="672.7549" y="-204.0091" font-family="Courier,monospace" font-size="11.00" fill="#000000">SearchResult</text>
</g>
<!-- \\Firesphere\\SolrFluent\\Extensions\\FluentIndexExtension -->
<g id="node52" class="node">
<title>\\Firesphere\\SolrFluent\\Extensions\\FluentIndexExtension</title>
<polygon fill="none" stroke="#000000" points="1002.7549,-614.8091 850.7549,-614.8091 850.7549,-578.8091 1002.7549,-578.8091 1002.7549,-614.8091"/>
<text text-anchor="middle" x="926.7549" y="-594.0091" font-family="Courier,monospace" font-size="11.00" fill="#000000">FluentIndexExtension</text>
</g>
<!-- \\Firesphere\\SolrFluent\\Extensions\\FluentIndexExtension&#45;&gt;\\SilverStripe\\Core\\Extension -->
<g id="edge22" class="edge">
<title>\\Firesphere\\SolrFluent\\Extensions\\FluentIndexExtension&#45;&gt;\\SilverStripe\\Core\\Extension</title>
<path fill="none" stroke="#000000" d="M879.6471,-578.7758C858.277,-568.1142 834.8036,-552.4045 821.2549,-530.8091 777.7727,-461.5023 835.8763,-225.7239 781.2549,-164.8091 748.2836,-128.0388 709.9371,-173.3151 672.7549,-140.8091"/>
<path fill="none" stroke="#000000" d="M672.7549,-140.8091C656.8644,-126.917 528.3246,-52.3439 508.2549,-45.8091 475.4252,-35.1194 439.0725,-28.4337 404.3721,-24.3055"/>
<polygon fill="none" stroke="#000000" points="404.4777,-20.7954 394.1493,-23.1564 403.6957,-27.7516 404.4777,-20.7954"/>
</g>
<!-- \\Firesphere\\SolrFluent\\Extensions\\FluentDocumentExtension -->
<g id="node53" class="node">
<title>\\Firesphere\\SolrFluent\\Extensions\\FluentDocumentExtension</title>
<polygon fill="none" stroke="#000000" points="1012.7549,-722.8091 840.7549,-722.8091 840.7549,-686.8091 1012.7549,-686.8091 1012.7549,-722.8091"/>
<text text-anchor="middle" x="926.7549" y="-702.0091" font-family="Courier,monospace" font-size="11.00" fill="#000000">FluentDocumentExtension</text>
</g>
<!-- \\Firesphere\\SolrFluent\\Extensions\\FluentDocumentExtension&#45;&gt;\\SilverStripe\\Core\\Extension -->
<g id="edge23" class="edge">
<title>\\Firesphere\\SolrFluent\\Extensions\\FluentDocumentExtension&#45;&gt;\\SilverStripe\\Core\\Extension</title>
<path fill="none" stroke="#000000" d="M840.5463,-693.0285C833.2373,-689.1532 826.6078,-684.1768 821.2549,-677.8091 747.6758,-590.2812 856.2618,-251.1165 781.2549,-164.8091 748.8582,-127.5315 709.9371,-173.3151 672.7549,-140.8091"/>
</g>
<!-- \\Firesphere\\SolrFluent\\Extensions\\FluentSchemaExtension -->
<g id="node54" class="node">
<title>\\Firesphere\\SolrFluent\\Extensions\\FluentSchemaExtension</title>
<polygon fill="none" stroke="#000000" points="1005.7549,-668.8091 847.7549,-668.8091 847.7549,-632.8091 1005.7549,-632.8091 1005.7549,-668.8091"/>
<text text-anchor="middle" x="926.7549" y="-648.0091" font-family="Courier,monospace" font-size="11.00" fill="#000000">FluentSchemaExtension</text>
</g>
<!-- \\Firesphere\\SolrFluent\\Extensions\\FluentSchemaExtension&#45;&gt;\\SilverStripe\\Core\\Extension -->
<g id="edge24" class="edge">
<title>\\Firesphere\\SolrFluent\\Extensions\\FluentSchemaExtension&#45;&gt;\\SilverStripe\\Core\\Extension</title>
<path fill="none" stroke="#000000" d="M847.5168,-642.2353C837.4842,-638.0264 828.2881,-632.0986 821.2549,-623.8091 755.0151,-545.7366 848.7682,-241.7829 781.2549,-164.8091 748.6888,-127.6795 709.9371,-173.3151 672.7549,-140.8091"/>
</g>
<!-- \\Firesphere\\SolrFluent\\States\\FluentSiteState -->
<g id="node55" class="node">
<title>\\Firesphere\\SolrFluent\\States\\FluentSiteState</title>
<polygon fill="none" stroke="#000000" points="985.7549,-802.8091 867.7549,-802.8091 867.7549,-766.8091 985.7549,-766.8091 985.7549,-802.8091"/>
<text text-anchor="middle" x="926.7549" y="-782.0091" font-family="Courier,monospace" font-size="11.00" fill="#000000">FluentSiteState</text>
</g>
<!-- \\Firesphere\\SolrFluent\\States\\FluentSiteState&#45;&gt;\\Firesphere\\SolrSearch\\Interfaces\\SiteStateInterface -->
<g id="edge26" class="edge">
<title>\\Firesphere\\SolrFluent\\States\\FluentSiteState&#45;&gt;\\Firesphere\\SolrSearch\\Interfaces\\SiteStateInterface</title>
<path fill="none" stroke="#000000" stroke-dasharray="1,5" d="M867.5782,-780.8082C850.1159,-776.6128 832.6497,-768.8592 821.2549,-754.8091 740.1545,-654.8105 872.5083,-267.6375 781.2549,-176.8091 747.0061,-142.7197 720.0187,-179.8687 672.7549,-169.8091"/>
<path fill="none" stroke="#000000" stroke-dasharray="1,5" d="M672.7549,-169.8091C446.9648,-121.7516 300.9169,-477.8538 263.5945,-581.2243"/>
<polygon fill="none" stroke="#000000" points="260.2828,-580.0913 260.2288,-590.686 266.878,-582.4374 260.2828,-580.0913"/>
</g>
<!-- \\Firesphere\\SolrFluent\\States\\FluentSiteState&#45;&gt;\\Firesphere\\SolrSearch\\States\\SiteState -->
<g id="edge25" class="edge">
<title>\\Firesphere\\SolrFluent\\States\\FluentSiteState&#45;&gt;\\Firesphere\\SolrSearch\\States\\SiteState</title>
<path fill="none" stroke="#000000" d="M867.5237,-787.6074C824.4143,-789.644 766.5718,-792.3768 725.1427,-794.334"/>
<polygon fill="none" stroke="#000000" points="724.8061,-790.8459 714.9824,-794.8141 725.1365,-797.8381 724.8061,-790.8459"/>
</g>
<!-- \\Firesphere\\SolrSubsites\\Extensions\\SubsitesExtension -->
<g id="node56" class="node">
<title>\\Firesphere\\SolrSubsites\\Extensions\\SubsitesExtension</title>
<polygon fill="none" stroke="#000000" points="992.2549,-918.8091 861.2549,-918.8091 861.2549,-882.8091 992.2549,-882.8091 992.2549,-918.8091"/>
<text text-anchor="middle" x="926.7549" y="-898.0091" font-family="Courier,monospace" font-size="11.00" fill="#000000">SubsitesExtension</text>
</g>
<!-- \\Firesphere\\SolrSubsites\\Extensions\\SubsitesExtension&#45;&gt;\\SilverStripe\\Core\\Extension -->
<g id="edge27" class="edge">
<title>\\Firesphere\\SolrSubsites\\Extensions\\SubsitesExtension&#45;&gt;\\SilverStripe\\Core\\Extension</title>
<path fill="none" stroke="#000000" d="M878.6337,-882.7904C857.3031,-872.1995 834.1577,-856.5456 821.2549,-834.8091 745.1202,-706.5499 878.0669,-278.2742 781.2549,-164.8091 749.1985,-127.2385 709.9371,-173.3151 672.7549,-140.8091"/>
</g>
<!-- \\Firesphere\\SolrSubsites\\States\\SubsiteState -->
<g id="node57" class="node">
<title>\\Firesphere\\SolrSubsites\\States\\SubsiteState</title>
<polygon fill="none" stroke="#000000" points="975.7549,-998.8091 877.7549,-998.8091 877.7549,-962.8091 975.7549,-962.8091 975.7549,-998.8091"/>
<text text-anchor="middle" x="926.7549" y="-978.0091" font-family="Courier,monospace" font-size="11.00" fill="#000000">SubsiteState</text>
</g>
<!-- \\Firesphere\\SolrSubsites\\States\\SubsiteState&#45;&gt;\\Firesphere\\SolrSearch\\Interfaces\\SiteStateInterface -->
<g id="edge29" class="edge">
<title>\\Firesphere\\SolrSubsites\\States\\SubsiteState&#45;&gt;\\Firesphere\\SolrSearch\\Interfaces\\SiteStateInterface</title>
<path fill="none" stroke="#000000" stroke-dasharray="1,5" d="M877.5979,-978.9845C856.9851,-975.5254 834.7217,-967.7134 821.2549,-950.8091 767.5974,-883.4546 841.7565,-238.0896 781.2549,-176.8091 747.305,-142.422 720.0187,-179.8687 672.7549,-169.8091"/>
</g>
<!-- \\Firesphere\\SolrSubsites\\States\\SubsiteState&#45;&gt;\\Firesphere\\SolrSearch\\States\\SiteState -->
<g id="edge28" class="edge">
<title>\\Firesphere\\SolrSubsites\\States\\SubsiteState&#45;&gt;\\Firesphere\\SolrSearch\\States\\SiteState</title>
<path fill="none" stroke="#000000" d="M877.5032,-976.3429C857.9783,-972.3265 836.5778,-964.8096 821.2549,-950.8091 784.6948,-917.4039 815.123,-882.9407 781.2549,-846.8091 766.0179,-830.5537 744.4638,-819.1365 724.5771,-811.3593"/>
<polygon fill="none" stroke="#000000" points="725.5769,-807.9978 714.9834,-807.8286 723.1592,-814.5671 725.5769,-807.9978"/>
</g>
<!-- \\Firesphere\\SolrPermissions\\Extensions\\BaseIndexExtension -->
<g id="node58" class="node">
<title>\\Firesphere\\SolrPermissions\\Extensions\\BaseIndexExtension</title>
<polygon fill="none" stroke="#000000" points="995.7549,-444.8091 857.7549,-444.8091 857.7549,-408.8091 995.7549,-408.8091 995.7549,-444.8091"/>
<text text-anchor="middle" x="926.7549" y="-424.0091" font-family="Courier,monospace" font-size="11.00" fill="#000000">BaseIndexExtension</text>
</g>
<!-- \\Firesphere\\SolrPermissions\\Extensions\\BaseIndexExtension&#45;&gt;\\SilverStripe\\Core\\Extension -->
<g id="edge30" class="edge">
<title>\\Firesphere\\SolrPermissions\\Extensions\\BaseIndexExtension&#45;&gt;\\SilverStripe\\Core\\Extension</title>
<path fill="none" stroke="#000000" d="M857.7462,-421.4994C843.9386,-417.3252 830.7735,-410.5728 821.2549,-399.8091 728.9356,-295.4128 875.2766,-191.6748 781.2549,-88.8091 747.9347,-52.3546 717.0421,-86.6677 672.7549,-64.8091"/>
</g>
<!-- \\Firesphere\\SolrPermissions\\Extensions\\DocumentFactoryExtension -->
<g id="node59" class="node">
<title>\\Firesphere\\SolrPermissions\\Extensions\\DocumentFactoryExtension</title>
<polygon fill="none" stroke="#000000" points="1016.2549,-390.8091 837.2549,-390.8091 837.2549,-354.8091 1016.2549,-354.8091 1016.2549,-390.8091"/>
<text text-anchor="middle" x="926.7549" y="-370.0091" font-family="Courier,monospace" font-size="11.00" fill="#000000">DocumentFactoryExtension</text>
</g>
<!-- \\Firesphere\\SolrPermissions\\Extensions\\DocumentFactoryExtension&#45;&gt;\\SilverStripe\\Core\\Extension -->
<g id="edge31" class="edge">
<title>\\Firesphere\\SolrPermissions\\Extensions\\DocumentFactoryExtension&#45;&gt;\\SilverStripe\\Core\\Extension</title>
<path fill="none" stroke="#000000" d="M837.0654,-358.4238C831.2061,-355.0028 825.8308,-350.8475 821.2549,-345.8091 743.5375,-260.2359 860.3675,-173.0941 781.2549,-88.8091 747.4548,-52.7991 717.0421,-86.6677 672.7549,-64.8091"/>
</g>
<!-- \\Firesphere\\SolrPermissions\\Extensions\\DataObjectExtension -->
<g id="node60" class="node">
<title>\\Firesphere\\SolrPermissions\\Extensions\\DataObjectExtension</title>
<polygon fill="none" stroke="#000000" points="999.2549,-498.8091 854.2549,-498.8091 854.2549,-462.8091 999.2549,-462.8091 999.2549,-498.8091"/>
<text text-anchor="middle" x="926.7549" y="-478.0091" font-family="Courier,monospace" font-size="11.00" fill="#000000">DataObjectExtension</text>
</g>
<!-- \\Firesphere\\SolrPermissions\\Extensions\\DataObjectExtension&#45;&gt;\\SilverStripe\\ORM\\DataExtension -->
<g id="edge32" class="edge">
<title>\\Firesphere\\SolrPermissions\\Extensions\\DataObjectExtension&#45;&gt;\\SilverStripe\\ORM\\DataExtension</title>
<path fill="none" stroke="#000000" d="M854.0248,-474.2125C841.6129,-469.9864 829.9437,-463.5397 821.2549,-453.8091 734.8897,-357.0874 868.4296,-260.8017 781.2549,-164.8091 733.7297,-112.4766 556.4104,-89.8518 420.4183,-80.1082"/>
<polygon fill="none" stroke="#000000" points="420.5086,-76.6061 410.289,-79.4007 420.0208,-83.5891 420.5086,-76.6061"/>
</g>
<!-- \\Firesphere\\SolrPermissions\\Extensions\\SchemaServiceExtension -->
<g id="node61" class="node">
<title>\\Firesphere\\SolrPermissions\\Extensions\\SchemaServiceExtension</title>
<polygon fill="none" stroke="#000000" points="1009.2549,-336.8091 844.2549,-336.8091 844.2549,-300.8091 1009.2549,-300.8091 1009.2549,-336.8091"/>
<text text-anchor="middle" x="926.7549" y="-316.0091" font-family="Courier,monospace" font-size="11.00" fill="#000000">SchemaServiceExtension</text>
</g>
<!-- \\Firesphere\\SolrPermissions\\Extensions\\SchemaServiceExtension&#45;&gt;\\SilverStripe\\Core\\Extension -->
<g id="edge33" class="edge">
<title>\\Firesphere\\SolrPermissions\\Extensions\\SchemaServiceExtension&#45;&gt;\\SilverStripe\\Core\\Extension</title>
<path fill="none" stroke="#000000" d="M882.4516,-300.785C860.9672,-289.9051 836.561,-274.0014 821.2549,-252.8091 777.3271,-191.9881 834.8742,-141.2858 781.2549,-88.8091 745.9584,-54.2647 717.0421,-86.6677 672.7549,-64.8091"/>
</g>
</g>
</svg>
