<?xml version="1.0" encoding="UTF-8" standalone="no"?>
<!DOCTYPE svg PUBLIC "-//W3C//DTD SVG 1.1//EN"
 "http://www.w3.org/Graphics/SVG/1.1/DTD/svg11.dtd">
<!-- Generated by graphviz version 2.40.1 (20161225.0304)
 -->
<!-- Title: G Pages: 1 -->
<svg width="1064pt" height="3722pt"
 viewBox="0.00 0.00 1064.25 3721.76" xmlns="http://www.w3.org/2000/svg" xmlns:xlink="http://www.w3.org/1999/xlink">
<g id="graph0" class="graph" transform="scale(1 1) rotate(0) translate(4 3717.7628)">
<title>G</title>
<polygon fill="#ffffff" stroke="transparent" points="-4,4 -4,-3717.7628 1060.2549,-3717.7628 1060.2549,4 -4,4"/>
<g id="clust1" class="cluster">
<title>cluster_Global</title>
<path fill="none" stroke="#c0c0c0" d="M165.1275,-152.9227C165.1275,-152.9227 1036.2549,-152.9227 1036.2549,-152.9227 1042.2549,-152.9227 1048.2549,-158.9227 1048.2549,-164.9227 1048.2549,-164.9227 1048.2549,-3386.9227 1048.2549,-3386.9227 1048.2549,-3392.9227 1042.2549,-3398.9227 1036.2549,-3398.9227 1036.2549,-3398.9227 165.1275,-3398.9227 165.1275,-3398.9227 159.1275,-3398.9227 153.1275,-3392.9227 153.1275,-3386.9227 153.1275,-3386.9227 153.1275,-164.9227 153.1275,-164.9227 153.1275,-158.9227 159.1275,-152.9227 165.1275,-152.9227"/>
<text text-anchor="middle" x="600.6912" y="-3386.1227" font-family="Times,serif" font-size="11.00" fill="#c0c0c0">Global</text>
</g>
<g id="clust2" class="cluster">
<title>cluster_\SilverStripe</title>
<path fill="none" stroke="#c0c0c0" d="M861.2549,-3056.9227C861.2549,-3056.9227 992.2549,-3056.9227 992.2549,-3056.9227 998.2549,-3056.9227 1004.2549,-3062.9227 1004.2549,-3068.9227 1004.2549,-3068.9227 1004.2549,-3358.9227 1004.2549,-3358.9227 1004.2549,-3364.9227 998.2549,-3370.9227 992.2549,-3370.9227 992.2549,-3370.9227 861.2549,-3370.9227 861.2549,-3370.9227 855.2549,-3370.9227 849.2549,-3364.9227 849.2549,-3358.9227 849.2549,-3358.9227 849.2549,-3068.9227 849.2549,-3068.9227 849.2549,-3062.9227 855.2549,-3056.9227 861.2549,-3056.9227"/>
<text text-anchor="middle" x="926.7549" y="-3358.1227" font-family="Times,serif" font-size="11.00" fill="#c0c0c0">SilverStripe</text>
</g>
<g id="clust3" class="cluster">
<title>cluster_\SilverStripe\FullTextSearch</title>
<path fill="none" stroke="#c0c0c0" d="M869.2549,-3064.9227C869.2549,-3064.9227 984.2549,-3064.9227 984.2549,-3064.9227 990.2549,-3064.9227 996.2549,-3070.9227 996.2549,-3076.9227 996.2549,-3076.9227 996.2549,-3330.9227 996.2549,-3330.9227 996.2549,-3336.9227 990.2549,-3342.9227 984.2549,-3342.9227 984.2549,-3342.9227 869.2549,-3342.9227 869.2549,-3342.9227 863.2549,-3342.9227 857.2549,-3336.9227 857.2549,-3330.9227 857.2549,-3330.9227 857.2549,-3076.9227 857.2549,-3076.9227 857.2549,-3070.9227 863.2549,-3064.9227 869.2549,-3064.9227"/>
<text text-anchor="middle" x="926.7549" y="-3330.1227" font-family="Times,serif" font-size="11.00" fill="#c0c0c0">FullTextSearch</text>
</g>
<g id="clust4" class="cluster">
<title>cluster_\SilverStripe\FullTextSearch\Solr</title>
<path fill="none" stroke="#c0c0c0" d="M888.7549,-3188.9227C888.7549,-3188.9227 964.7549,-3188.9227 964.7549,-3188.9227 970.7549,-3188.9227 976.7549,-3194.9227 976.7549,-3200.9227 976.7549,-3200.9227 976.7549,-3302.9227 976.7549,-3302.9227 976.7549,-3308.9227 970.7549,-3314.9227 964.7549,-3314.9227 964.7549,-3314.9227 888.7549,-3314.9227 888.7549,-3314.9227 882.7549,-3314.9227 876.7549,-3308.9227 876.7549,-3302.9227 876.7549,-3302.9227 876.7549,-3200.9227 876.7549,-3200.9227 876.7549,-3194.9227 882.7549,-3188.9227 888.7549,-3188.9227"/>
<text text-anchor="middle" x="926.7549" y="-3302.1227" font-family="Times,serif" font-size="11.00" fill="#c0c0c0">Solr</text>
</g>
<g id="clust5" class="cluster">
<title>cluster_\SilverStripe\FullTextSearch\Search</title>
<path fill="none" stroke="#c0c0c0" d="M877.2549,-3072.9227C877.2549,-3072.9227 976.2549,-3072.9227 976.2549,-3072.9227 982.2549,-3072.9227 988.2549,-3078.9227 988.2549,-3084.9227 988.2549,-3084.9227 988.2549,-3168.9227 988.2549,-3168.9227 988.2549,-3174.9227 982.2549,-3180.9227 976.2549,-3180.9227 976.2549,-3180.9227 877.2549,-3180.9227 877.2549,-3180.9227 871.2549,-3180.9227 865.2549,-3174.9227 865.2549,-3168.9227 865.2549,-3168.9227 865.2549,-3084.9227 865.2549,-3084.9227 865.2549,-3078.9227 871.2549,-3072.9227 877.2549,-3072.9227"/>
<text text-anchor="middle" x="926.7549" y="-3168.1227" font-family="Times,serif" font-size="11.00" fill="#c0c0c0">Search</text>
</g>
<g id="clust6" class="cluster">
<title>cluster_\SilverStripe\FullTextSearch\Search\Queries</title>
<path fill="none" stroke="#c0c0c0" d="M885.2549,-3080.9227C885.2549,-3080.9227 968.2549,-3080.9227 968.2549,-3080.9227 974.2549,-3080.9227 980.2549,-3086.9227 980.2549,-3092.9227 980.2549,-3092.9227 980.2549,-3140.9227 980.2549,-3140.9227 980.2549,-3146.9227 974.2549,-3152.9227 968.2549,-3152.9227 968.2549,-3152.9227 885.2549,-3152.9227 885.2549,-3152.9227 879.2549,-3152.9227 873.2549,-3146.9227 873.2549,-3140.9227 873.2549,-3140.9227 873.2549,-3092.9227 873.2549,-3092.9227 873.2549,-3086.9227 879.2549,-3080.9227 885.2549,-3080.9227"/>
<text text-anchor="middle" x="926.7549" y="-3140.1227" font-family="Times,serif" font-size="11.00" fill="#c0c0c0">Queries</text>
</g>
<g id="clust7" class="cluster">
<title>cluster_\Firesphere</title>
<path fill="none" stroke="#c0c0c0" d="M173.1275,-160.9227C173.1275,-160.9227 1028.2549,-160.9227 1028.2549,-160.9227 1034.2549,-160.9227 1040.2549,-166.9227 1040.2549,-172.9227 1040.2549,-172.9227 1040.2549,-3036.9227 1040.2549,-3036.9227 1040.2549,-3042.9227 1034.2549,-3048.9227 1028.2549,-3048.9227 1028.2549,-3048.9227 173.1275,-3048.9227 173.1275,-3048.9227 167.1275,-3048.9227 161.1275,-3042.9227 161.1275,-3036.9227 161.1275,-3036.9227 161.1275,-172.9227 161.1275,-172.9227 161.1275,-166.9227 167.1275,-160.9227 173.1275,-160.9227"/>
<text text-anchor="middle" x="600.6912" y="-3036.1227" font-family="Times,serif" font-size="11.00" fill="#c0c0c0">Firesphere</text>
</g>
<g id="clust8" class="cluster">
<title>cluster_\Firesphere\SolrCompatibility</title>
<path fill="none" stroke="#c0c0c0" d="M833.2549,-168.9227C833.2549,-168.9227 1020.2549,-168.9227 1020.2549,-168.9227 1026.2549,-168.9227 1032.2549,-174.9227 1032.2549,-180.9227 1032.2549,-180.9227 1032.2549,-318.9227 1032.2549,-318.9227 1032.2549,-324.9227 1026.2549,-330.9227 1020.2549,-330.9227 1020.2549,-330.9227 833.2549,-330.9227 833.2549,-330.9227 827.2549,-330.9227 821.2549,-324.9227 821.2549,-318.9227 821.2549,-318.9227 821.2549,-180.9227 821.2549,-180.9227 821.2549,-174.9227 827.2549,-168.9227 833.2549,-168.9227"/>
<text text-anchor="middle" x="926.7549" y="-318.1227" font-family="Times,serif" font-size="11.00" fill="#c0c0c0">SolrCompatibility</text>
</g>
<g id="clust9" class="cluster">
<title>cluster_\Firesphere\SolrCompatibility\Extensions</title>
<path fill="none" stroke="#c0c0c0" d="M841.2549,-176.9227C841.2549,-176.9227 1012.2549,-176.9227 1012.2549,-176.9227 1018.2549,-176.9227 1024.2549,-182.9227 1024.2549,-188.9227 1024.2549,-188.9227 1024.2549,-290.9227 1024.2549,-290.9227 1024.2549,-296.9227 1018.2549,-302.9227 1012.2549,-302.9227 1012.2549,-302.9227 841.2549,-302.9227 841.2549,-302.9227 835.2549,-302.9227 829.2549,-296.9227 829.2549,-290.9227 829.2549,-290.9227 829.2549,-188.9227 829.2549,-188.9227 829.2549,-182.9227 835.2549,-176.9227 841.2549,-176.9227"/>
<text text-anchor="middle" x="926.7549" y="-290.1227" font-family="Times,serif" font-size="11.00" fill="#c0c0c0">Extensions</text>
</g>
<g id="clust10" class="cluster">
<title>cluster_\Firesphere\SolrSearch</title>
<path fill="none" stroke="#c0c0c0" d="M181.1275,-172.9227C181.1275,-172.9227 769.2549,-172.9227 769.2549,-172.9227 775.2549,-172.9227 781.2549,-178.9227 781.2549,-184.9227 781.2549,-184.9227 781.2549,-3008.9227 781.2549,-3008.9227 781.2549,-3014.9227 775.2549,-3020.9227 769.2549,-3020.9227 769.2549,-3020.9227 181.1275,-3020.9227 181.1275,-3020.9227 175.1275,-3020.9227 169.1275,-3014.9227 169.1275,-3008.9227 169.1275,-3008.9227 169.1275,-184.9227 169.1275,-184.9227 169.1275,-178.9227 175.1275,-172.9227 181.1275,-172.9227"/>
<text text-anchor="middle" x="475.1912" y="-3008.1227" font-family="Times,serif" font-size="11.00" fill="#c0c0c0">SolrSearch</text>
</g>
<g id="clust11" class="cluster">
<title>cluster_\Firesphere\SolrSearch\Indexes</title>
<path fill="none" stroke="#c0c0c0" d="M634.7549,-2920.9227C634.7549,-2920.9227 710.7549,-2920.9227 710.7549,-2920.9227 716.7549,-2920.9227 722.7549,-2926.9227 722.7549,-2932.9227 722.7549,-2932.9227 722.7549,-2980.9227 722.7549,-2980.9227 722.7549,-2986.9227 716.7549,-2992.9227 710.7549,-2992.9227 710.7549,-2992.9227 634.7549,-2992.9227 634.7549,-2992.9227 628.7549,-2992.9227 622.7549,-2986.9227 622.7549,-2980.9227 622.7549,-2980.9227 622.7549,-2932.9227 622.7549,-2932.9227 622.7549,-2926.9227 628.7549,-2920.9227 634.7549,-2920.9227"/>
<text text-anchor="middle" x="672.7549" y="-2980.1227" font-family="Times,serif" font-size="11.00" fill="#c0c0c0">Indexes</text>
</g>
<g id="clust12" class="cluster">
<title>cluster_\Firesphere\SolrSearch\Extensions</title>
<path fill="none" stroke="#c0c0c0" d="M604.2549,-2786.9227C604.2549,-2786.9227 741.2549,-2786.9227 741.2549,-2786.9227 747.2549,-2786.9227 753.2549,-2792.9227 753.2549,-2798.9227 753.2549,-2798.9227 753.2549,-2900.9227 753.2549,-2900.9227 753.2549,-2906.9227 747.2549,-2912.9227 741.2549,-2912.9227 741.2549,-2912.9227 604.2549,-2912.9227 604.2549,-2912.9227 598.2549,-2912.9227 592.2549,-2906.9227 592.2549,-2900.9227 592.2549,-2900.9227 592.2549,-2798.9227 592.2549,-2798.9227 592.2549,-2792.9227 598.2549,-2786.9227 604.2549,-2786.9227"/>
<text text-anchor="middle" x="672.7549" y="-2900.1227" font-family="Times,serif" font-size="11.00" fill="#c0c0c0">Extensions</text>
</g>
<g id="clust13" class="cluster">
<title>cluster_\Firesphere\SolrSearch\Services</title>
<path fill="none" stroke="#c0c0c0" d="M617.7549,-2706.9227C617.7549,-2706.9227 727.7549,-2706.9227 727.7549,-2706.9227 733.7549,-2706.9227 739.7549,-2712.9227 739.7549,-2718.9227 739.7549,-2718.9227 739.7549,-2766.9227 739.7549,-2766.9227 739.7549,-2772.9227 733.7549,-2778.9227 727.7549,-2778.9227 727.7549,-2778.9227 617.7549,-2778.9227 617.7549,-2778.9227 611.7549,-2778.9227 605.7549,-2772.9227 605.7549,-2766.9227 605.7549,-2766.9227 605.7549,-2718.9227 605.7549,-2718.9227 605.7549,-2712.9227 611.7549,-2706.9227 617.7549,-2706.9227"/>
<text text-anchor="middle" x="672.7549" y="-2766.1227" font-family="Times,serif" font-size="11.00" fill="#c0c0c0">Services</text>
</g>
<g id="clust14" class="cluster">
<title>cluster_\Firesphere\SolrSearch\Traits</title>
<path fill="none" stroke="#c0c0c0" d="M584.2549,-1816.9227C584.2549,-1816.9227 761.2549,-1816.9227 761.2549,-1816.9227 767.2549,-1816.9227 773.2549,-1822.9227 773.2549,-1828.9227 773.2549,-1828.9227 773.2549,-2686.9227 773.2549,-2686.9227 773.2549,-2692.9227 767.2549,-2698.9227 761.2549,-2698.9227 761.2549,-2698.9227 584.2549,-2698.9227 584.2549,-2698.9227 578.2549,-2698.9227 572.2549,-2692.9227 572.2549,-2686.9227 572.2549,-2686.9227 572.2549,-1828.9227 572.2549,-1828.9227 572.2549,-1822.9227 578.2549,-1816.9227 584.2549,-1816.9227"/>
<text text-anchor="middle" x="672.7549" y="-2686.1227" font-family="Times,serif" font-size="11.00" fill="#c0c0c0">Traits</text>
</g>
<g id="clust15" class="cluster">
<title>cluster_\Firesphere\SolrSearch\Factories</title>
<path fill="none" stroke="#c0c0c0" d="M597.7549,-1628.9227C597.7549,-1628.9227 747.7549,-1628.9227 747.7549,-1628.9227 753.7549,-1628.9227 759.7549,-1634.9227 759.7549,-1640.9227 759.7549,-1640.9227 759.7549,-1796.9227 759.7549,-1796.9227 759.7549,-1802.9227 753.7549,-1808.9227 747.7549,-1808.9227 747.7549,-1808.9227 597.7549,-1808.9227 597.7549,-1808.9227 591.7549,-1808.9227 585.7549,-1802.9227 585.7549,-1796.9227 585.7549,-1796.9227 585.7549,-1640.9227 585.7549,-1640.9227 585.7549,-1634.9227 591.7549,-1628.9227 597.7549,-1628.9227"/>
<text text-anchor="middle" x="672.7549" y="-1796.1227" font-family="Times,serif" font-size="11.00" fill="#c0c0c0">Factories</text>
</g>
<g id="clust16" class="cluster">
<title>cluster_\Firesphere\SolrSearch\States</title>
<path fill="none" stroke="#c0c0c0" d="M634.7549,-1548.9227C634.7549,-1548.9227 710.7549,-1548.9227 710.7549,-1548.9227 716.7549,-1548.9227 722.7549,-1554.9227 722.7549,-1560.9227 722.7549,-1560.9227 722.7549,-1608.9227 722.7549,-1608.9227 722.7549,-1614.9227 716.7549,-1620.9227 710.7549,-1620.9227 710.7549,-1620.9227 634.7549,-1620.9227 634.7549,-1620.9227 628.7549,-1620.9227 622.7549,-1614.9227 622.7549,-1608.9227 622.7549,-1608.9227 622.7549,-1560.9227 622.7549,-1560.9227 622.7549,-1554.9227 628.7549,-1548.9227 634.7549,-1548.9227"/>
<text text-anchor="middle" x="672.7549" y="-1608.1227" font-family="Times,serif" font-size="11.00" fill="#c0c0c0">States</text>
</g>
<g id="clust17" class="cluster">
<title>cluster_\Firesphere\SolrSearch\Stores</title>
<path fill="none" stroke="#c0c0c0" d="M617.7549,-1172.9227C617.7549,-1172.9227 727.7549,-1172.9227 727.7549,-1172.9227 733.7549,-1172.9227 739.7549,-1178.9227 739.7549,-1184.9227 739.7549,-1184.9227 739.7549,-1286.9227 739.7549,-1286.9227 739.7549,-1292.9227 733.7549,-1298.9227 727.7549,-1298.9227 727.7549,-1298.9227 617.7549,-1298.9227 617.7549,-1298.9227 611.7549,-1298.9227 605.7549,-1292.9227 605.7549,-1286.9227 605.7549,-1286.9227 605.7549,-1184.9227 605.7549,-1184.9227 605.7549,-1178.9227 611.7549,-1172.9227 617.7549,-1172.9227"/>
<text text-anchor="middle" x="672.7549" y="-1286.1227" font-family="Times,serif" font-size="11.00" fill="#c0c0c0">Stores</text>
</g>
<g id="clust18" class="cluster">
<title>cluster_\Firesphere\SolrSearch\Tasks</title>
<path fill="none" stroke="#c0c0c0" d="M597.7549,-1306.9227C597.7549,-1306.9227 747.7549,-1306.9227 747.7549,-1306.9227 753.7549,-1306.9227 759.7549,-1312.9227 759.7549,-1318.9227 759.7549,-1318.9227 759.7549,-1528.9227 759.7549,-1528.9227 759.7549,-1534.9227 753.7549,-1540.9227 747.7549,-1540.9227 747.7549,-1540.9227 597.7549,-1540.9227 597.7549,-1540.9227 591.7549,-1540.9227 585.7549,-1534.9227 585.7549,-1528.9227 585.7549,-1528.9227 585.7549,-1318.9227 585.7549,-1318.9227 585.7549,-1312.9227 591.7549,-1306.9227 597.7549,-1306.9227"/>
<text text-anchor="middle" x="672.7549" y="-1528.1227" font-family="Times,serif" font-size="11.00" fill="#c0c0c0">Tasks</text>
</g>
<g id="clust19" class="cluster">
<title>cluster_\Firesphere\SolrSearch\Interfaces</title>
<path fill="none" stroke="#c0c0c0" d="M189.1275,-1118.9227C189.1275,-1118.9227 319.1275,-1118.9227 319.1275,-1118.9227 325.1275,-1118.9227 331.1275,-1124.9227 331.1275,-1130.9227 331.1275,-1130.9227 331.1275,-1232.9227 331.1275,-1232.9227 331.1275,-1238.9227 325.1275,-1244.9227 319.1275,-1244.9227 319.1275,-1244.9227 189.1275,-1244.9227 189.1275,-1244.9227 183.1275,-1244.9227 177.1275,-1238.9227 177.1275,-1232.9227 177.1275,-1232.9227 177.1275,-1130.9227 177.1275,-1130.9227 177.1275,-1124.9227 183.1275,-1118.9227 189.1275,-1118.9227"/>
<text text-anchor="middle" x="254.1275" y="-1232.1227" font-family="Times,serif" font-size="11.00" fill="#c0c0c0">Interfaces</text>
</g>
<g id="clust20" class="cluster">
<title>cluster_\Firesphere\SolrSearch\Helpers</title>
<path fill="none" stroke="#c0c0c0" d="M624.7549,-876.9227C624.7549,-876.9227 720.7549,-876.9227 720.7549,-876.9227 726.7549,-876.9227 732.7549,-882.9227 732.7549,-888.9227 732.7549,-888.9227 732.7549,-1152.9227 732.7549,-1152.9227 732.7549,-1158.9227 726.7549,-1164.9227 720.7549,-1164.9227 720.7549,-1164.9227 624.7549,-1164.9227 624.7549,-1164.9227 618.7549,-1164.9227 612.7549,-1158.9227 612.7549,-1152.9227 612.7549,-1152.9227 612.7549,-888.9227 612.7549,-888.9227 612.7549,-882.9227 618.7549,-876.9227 624.7549,-876.9227"/>
<text text-anchor="middle" x="672.7549" y="-1152.1227" font-family="Times,serif" font-size="11.00" fill="#c0c0c0">Helpers</text>
</g>
<g id="clust21" class="cluster">
<title>cluster_\Firesphere\SolrSearch\Admins</title>
<path fill="none" stroke="#c0c0c0" d="M631.2549,-796.9227C631.2549,-796.9227 714.2549,-796.9227 714.2549,-796.9227 720.2549,-796.9227 726.2549,-802.9227 726.2549,-808.9227 726.2549,-808.9227 726.2549,-856.9227 726.2549,-856.9227 726.2549,-862.9227 720.2549,-868.9227 714.2549,-868.9227 714.2549,-868.9227 631.2549,-868.9227 631.2549,-868.9227 625.2549,-868.9227 619.2549,-862.9227 619.2549,-856.9227 619.2549,-856.9227 619.2549,-808.9227 619.2549,-808.9227 619.2549,-802.9227 625.2549,-796.9227 631.2549,-796.9227"/>
<text text-anchor="middle" x="672.7549" y="-856.1227" font-family="Times,serif" font-size="11.00" fill="#c0c0c0">Admins</text>
</g>
<g id="clust22" class="cluster">
<title>cluster_\Firesphere\SolrSearch\Queries</title>
<path fill="none" stroke="#c0c0c0" d="M638.2549,-716.9227C638.2549,-716.9227 707.2549,-716.9227 707.2549,-716.9227 713.2549,-716.9227 719.2549,-722.9227 719.2549,-728.9227 719.2549,-728.9227 719.2549,-776.9227 719.2549,-776.9227 719.2549,-782.9227 713.2549,-788.9227 707.2549,-788.9227 707.2549,-788.9227 638.2549,-788.9227 638.2549,-788.9227 632.2549,-788.9227 626.2549,-782.9227 626.2549,-776.9227 626.2549,-776.9227 626.2549,-728.9227 626.2549,-728.9227 626.2549,-722.9227 632.2549,-716.9227 638.2549,-716.9227"/>
<text text-anchor="middle" x="672.7549" y="-776.1227" font-family="Times,serif" font-size="11.00" fill="#c0c0c0">Queries</text>
</g>
<g id="clust23" class="cluster">
<title>cluster_\Firesphere\SolrSearch\Results</title>
<path fill="none" stroke="#c0c0c0" d="M627.7549,-180.9227C627.7549,-180.9227 717.7549,-180.9227 717.7549,-180.9227 723.7549,-180.9227 729.7549,-186.9227 729.7549,-192.9227 729.7549,-192.9227 729.7549,-240.9227 729.7549,-240.9227 729.7549,-246.9227 723.7549,-252.9227 717.7549,-252.9227 717.7549,-252.9227 627.7549,-252.9227 627.7549,-252.9227 621.7549,-252.9227 615.7549,-246.9227 615.7549,-240.9227 615.7549,-240.9227 615.7549,-192.9227 615.7549,-192.9227 615.7549,-186.9227 621.7549,-180.9227 627.7549,-180.9227"/>
<text text-anchor="middle" x="672.7549" y="-240.1227" font-family="Times,serif" font-size="11.00" fill="#c0c0c0">Results</text>
</g>
<g id="clust24" class="cluster">
<title>cluster_\Firesphere\SolrSearch\Models</title>
<path fill="none" stroke="#c0c0c0" d="M624.7549,-528.9227C624.7549,-528.9227 720.7549,-528.9227 720.7549,-528.9227 726.7549,-528.9227 732.7549,-534.9227 732.7549,-540.9227 732.7549,-540.9227 732.7549,-696.9227 732.7549,-696.9227 732.7549,-702.9227 726.7549,-708.9227 720.7549,-708.9227 720.7549,-708.9227 624.7549,-708.9227 624.7549,-708.9227 618.7549,-708.9227 612.7549,-702.9227 612.7549,-696.9227 612.7549,-696.9227 612.7549,-540.9227 612.7549,-540.9227 612.7549,-534.9227 618.7549,-528.9227 624.7549,-528.9227"/>
<text text-anchor="middle" x="672.7549" y="-696.1227" font-family="Times,serif" font-size="11.00" fill="#c0c0c0">Models</text>
</g>
<g id="clust25" class="cluster">
<title>cluster_\Firesphere\SolrSearch\Forms</title>
<path fill="none" stroke="#c0c0c0" d="M634.7549,-448.9227C634.7549,-448.9227 710.7549,-448.9227 710.7549,-448.9227 716.7549,-448.9227 722.7549,-454.9227 722.7549,-460.9227 722.7549,-460.9227 722.7549,-508.9227 722.7549,-508.9227 722.7549,-514.9227 716.7549,-520.9227 710.7549,-520.9227 710.7549,-520.9227 634.7549,-520.9227 634.7549,-520.9227 628.7549,-520.9227 622.7549,-514.9227 622.7549,-508.9227 622.7549,-508.9227 622.7549,-460.9227 622.7549,-460.9227 622.7549,-454.9227 628.7549,-448.9227 634.7549,-448.9227"/>
<text text-anchor="middle" x="672.7549" y="-508.1227" font-family="Times,serif" font-size="11.00" fill="#c0c0c0">Forms</text>
</g>
<g id="clust26" class="cluster">
<title>cluster_\Firesphere\SolrSearch\Jobs</title>
<path fill="none" stroke="#c0c0c0" d="M600.7549,-260.9227C600.7549,-260.9227 744.7549,-260.9227 744.7549,-260.9227 750.7549,-260.9227 756.7549,-266.9227 756.7549,-272.9227 756.7549,-272.9227 756.7549,-428.9227 756.7549,-428.9227 756.7549,-434.9227 750.7549,-440.9227 744.7549,-440.9227 744.7549,-440.9227 600.7549,-440.9227 600.7549,-440.9227 594.7549,-440.9227 588.7549,-434.9227 588.7549,-428.9227 588.7549,-428.9227 588.7549,-272.9227 588.7549,-272.9227 588.7549,-266.9227 594.7549,-260.9227 600.7549,-260.9227"/>
<text text-anchor="middle" x="672.7549" y="-428.1227" font-family="Times,serif" font-size="11.00" fill="#c0c0c0">Jobs</text>
</g>
<g id="clust27" class="cluster">
<title>cluster_\Firesphere\SolrFluent</title>
<path fill="none" stroke="#c0c0c0" d="M836.7549,-616.9227C836.7549,-616.9227 1016.7549,-616.9227 1016.7549,-616.9227 1022.7549,-616.9227 1028.7549,-622.9227 1028.7549,-628.9227 1028.7549,-628.9227 1028.7549,-900.9227 1028.7549,-900.9227 1028.7549,-906.9227 1022.7549,-912.9227 1016.7549,-912.9227 1016.7549,-912.9227 836.7549,-912.9227 836.7549,-912.9227 830.7549,-912.9227 824.7549,-906.9227 824.7549,-900.9227 824.7549,-900.9227 824.7549,-628.9227 824.7549,-628.9227 824.7549,-622.9227 830.7549,-616.9227 836.7549,-616.9227"/>
<text text-anchor="middle" x="926.7549" y="-900.1227" font-family="Times,serif" font-size="11.00" fill="#c0c0c0">SolrFluent</text>
</g>
<g id="clust28" class="cluster">
<title>cluster_\Firesphere\SolrFluent\Extensions</title>
<path fill="none" stroke="#c0c0c0" d="M844.7549,-624.9227C844.7549,-624.9227 1008.7549,-624.9227 1008.7549,-624.9227 1014.7549,-624.9227 1020.7549,-630.9227 1020.7549,-636.9227 1020.7549,-636.9227 1020.7549,-792.9227 1020.7549,-792.9227 1020.7549,-798.9227 1014.7549,-804.9227 1008.7549,-804.9227 1008.7549,-804.9227 844.7549,-804.9227 844.7549,-804.9227 838.7549,-804.9227 832.7549,-798.9227 832.7549,-792.9227 832.7549,-792.9227 832.7549,-636.9227 832.7549,-636.9227 832.7549,-630.9227 838.7549,-624.9227 844.7549,-624.9227"/>
<text text-anchor="middle" x="926.7549" y="-792.1227" font-family="Times,serif" font-size="11.00" fill="#c0c0c0">Extensions</text>
</g>
<g id="clust29" class="cluster">
<title>cluster_\Firesphere\SolrFluent\States</title>
<path fill="none" stroke="#c0c0c0" d="M871.7549,-812.9227C871.7549,-812.9227 981.7549,-812.9227 981.7549,-812.9227 987.7549,-812.9227 993.7549,-818.9227 993.7549,-824.9227 993.7549,-824.9227 993.7549,-872.9227 993.7549,-872.9227 993.7549,-878.9227 987.7549,-884.9227 981.7549,-884.9227 981.7549,-884.9227 871.7549,-884.9227 871.7549,-884.9227 865.7549,-884.9227 859.7549,-878.9227 859.7549,-872.9227 859.7549,-872.9227 859.7549,-824.9227 859.7549,-824.9227 859.7549,-818.9227 865.7549,-812.9227 871.7549,-812.9227"/>
<text text-anchor="middle" x="926.7549" y="-872.1227" font-family="Times,serif" font-size="11.00" fill="#c0c0c0">States</text>
</g>
<g id="clust30" class="cluster">
<title>cluster_\Firesphere\SolrSubsites</title>
<path fill="none" stroke="#c0c0c0" d="M857.2549,-920.9227C857.2549,-920.9227 996.2549,-920.9227 996.2549,-920.9227 1002.2549,-920.9227 1008.2549,-926.9227 1008.2549,-932.9227 1008.2549,-932.9227 1008.2549,-1096.9227 1008.2549,-1096.9227 1008.2549,-1102.9227 1002.2549,-1108.9227 996.2549,-1108.9227 996.2549,-1108.9227 857.2549,-1108.9227 857.2549,-1108.9227 851.2549,-1108.9227 845.2549,-1102.9227 845.2549,-1096.9227 845.2549,-1096.9227 845.2549,-932.9227 845.2549,-932.9227 845.2549,-926.9227 851.2549,-920.9227 857.2549,-920.9227"/>
<text text-anchor="middle" x="926.7549" y="-1096.1227" font-family="Times,serif" font-size="11.00" fill="#c0c0c0">SolrSubsites</text>
</g>
<g id="clust31" class="cluster">
<title>cluster_\Firesphere\SolrSubsites\Extensions</title>
<path fill="none" stroke="#c0c0c0" d="M865.2549,-928.9227C865.2549,-928.9227 988.2549,-928.9227 988.2549,-928.9227 994.2549,-928.9227 1000.2549,-934.9227 1000.2549,-940.9227 1000.2549,-940.9227 1000.2549,-988.9227 1000.2549,-988.9227 1000.2549,-994.9227 994.2549,-1000.9227 988.2549,-1000.9227 988.2549,-1000.9227 865.2549,-1000.9227 865.2549,-1000.9227 859.2549,-1000.9227 853.2549,-994.9227 853.2549,-988.9227 853.2549,-988.9227 853.2549,-940.9227 853.2549,-940.9227 853.2549,-934.9227 859.2549,-928.9227 865.2549,-928.9227"/>
<text text-anchor="middle" x="926.7549" y="-988.1227" font-family="Times,serif" font-size="11.00" fill="#c0c0c0">Extensions</text>
</g>
<g id="clust32" class="cluster">
<title>cluster_\Firesphere\SolrSubsites\States</title>
<path fill="none" stroke="#c0c0c0" d="M881.7549,-1008.9227C881.7549,-1008.9227 971.7549,-1008.9227 971.7549,-1008.9227 977.7549,-1008.9227 983.7549,-1014.9227 983.7549,-1020.9227 983.7549,-1020.9227 983.7549,-1068.9227 983.7549,-1068.9227 983.7549,-1074.9227 977.7549,-1080.9227 971.7549,-1080.9227 971.7549,-1080.9227 881.7549,-1080.9227 881.7549,-1080.9227 875.7549,-1080.9227 869.7549,-1074.9227 869.7549,-1068.9227 869.7549,-1068.9227 869.7549,-1020.9227 869.7549,-1020.9227 869.7549,-1014.9227 875.7549,-1008.9227 881.7549,-1008.9227"/>
<text text-anchor="middle" x="926.7549" y="-1068.1227" font-family="Times,serif" font-size="11.00" fill="#c0c0c0">States</text>
</g>
<g id="clust33" class="cluster">
<title>cluster_\Firesphere\SolrPermissions</title>
<path fill="none" stroke="#c0c0c0" d="M833.2549,-338.9227C833.2549,-338.9227 1020.2549,-338.9227 1020.2549,-338.9227 1026.2549,-338.9227 1032.2549,-344.9227 1032.2549,-350.9227 1032.2549,-350.9227 1032.2549,-596.9227 1032.2549,-596.9227 1032.2549,-602.9227 1026.2549,-608.9227 1020.2549,-608.9227 1020.2549,-608.9227 833.2549,-608.9227 833.2549,-608.9227 827.2549,-608.9227 821.2549,-602.9227 821.2549,-596.9227 821.2549,-596.9227 821.2549,-350.9227 821.2549,-350.9227 821.2549,-344.9227 827.2549,-338.9227 833.2549,-338.9227"/>
<text text-anchor="middle" x="926.7549" y="-596.1227" font-family="Times,serif" font-size="11.00" fill="#c0c0c0">SolrPermissions</text>
</g>
<g id="clust34" class="cluster">
<title>cluster_\Firesphere\SolrPermissions\Extensions</title>
<path fill="none" stroke="#c0c0c0" d="M841.2549,-346.9227C841.2549,-346.9227 1012.2549,-346.9227 1012.2549,-346.9227 1018.2549,-346.9227 1024.2549,-352.9227 1024.2549,-358.9227 1024.2549,-358.9227 1024.2549,-568.9227 1024.2549,-568.9227 1024.2549,-574.9227 1018.2549,-580.9227 1012.2549,-580.9227 1012.2549,-580.9227 841.2549,-580.9227 841.2549,-580.9227 835.2549,-580.9227 829.2549,-574.9227 829.2549,-568.9227 829.2549,-568.9227 829.2549,-358.9227 829.2549,-358.9227 829.2549,-352.9227 835.2549,-346.9227 841.2549,-346.9227"/>
<text text-anchor="middle" x="926.7549" y="-568.1227" font-family="Times,serif" font-size="11.00" fill="#c0c0c0">Extensions</text>
</g>
<!-- \\SilverStripe\\FullTextSearch\\Solr\\Solr -->
<g id="node1" class="node">
<title>\\SilverStripe\\FullTextSearch\\Solr\\Solr</title>
<polygon fill="none" stroke="#000000" points="953.7549,-3286.9227 899.7549,-3286.9227 899.7549,-3250.9227 953.7549,-3250.9227 953.7549,-3286.9227"/>
<text text-anchor="middle" x="926.7549" y="-3266.1227" font-family="Courier,monospace" font-size="11.00" fill="#000000">Solr</text>
</g>
<!-- \\SilverStripe\\FullTextSearch\\Solr\\SolrIndex -->
<g id="node2" class="node">
<title>\\SilverStripe\\FullTextSearch\\Solr\\SolrIndex</title>
<polygon fill="none" stroke="#000000" points="968.7549,-3232.9227 884.7549,-3232.9227 884.7549,-3196.9227 968.7549,-3196.9227 968.7549,-3232.9227"/>
<text text-anchor="start" x="892.7549" y="-3218.1227" font-family="Courier,monospace" font-size="11.00" fill="#000000">«abstract»</text>
<text text-anchor="start" x="896.2549" y="-3206.1227" font-family="Courier,monospace" font-size="11.00" fill="#000000">SolrIndex</text>
</g>
<!-- \\Firesphere\\SolrSearch\\Indexes\\BaseIndex -->
<g id="node6" class="node">
<title>\\Firesphere\\SolrSearch\\Indexes\\BaseIndex</title>
<polygon fill="none" stroke="#000000" points="714.7549,-2964.9227 630.7549,-2964.9227 630.7549,-2928.9227 714.7549,-2928.9227 714.7549,-2964.9227"/>
<text text-anchor="start" x="638.7549" y="-2950.1227" font-family="Courier,monospace" font-size="11.00" fill="#000000">«abstract»</text>
<text text-anchor="start" x="642.2549" y="-2938.1227" font-family="Courier,monospace" font-size="11.00" fill="#000000">BaseIndex</text>
</g>
<!-- \\SilverStripe\\FullTextSearch\\Solr\\SolrIndex&#45;&gt;\\Firesphere\\SolrSearch\\Indexes\\BaseIndex -->
<g id="edge4" class="edge">
<title>\\SilverStripe\\FullTextSearch\\Solr\\SolrIndex&#45;&gt;\\Firesphere\\SolrSearch\\Indexes\\BaseIndex</title>
<path fill="none" stroke="#000000" d="M884.6475,-3197.2286C864.1098,-3187.3032 839.8843,-3173.5602 821.2549,-3156.9227 759.7935,-3102.0329 709.7748,-3017.1525 686.6401,-2974.0439"/>
<polygon fill="none" stroke="#000000" points="689.6305,-2972.2119 681.8591,-2965.0109 683.4437,-2975.4865 689.6305,-2972.2119"/>
</g>
<!-- \\SilverStripe\\FullTextSearch\\Search\\Queries\\SearchQuery -->
<g id="node3" class="node">
<title>\\SilverStripe\\FullTextSearch\\Search\\Queries\\SearchQuery</title>
<polygon fill="none" stroke="#000000" points="972.2549,-3124.9227 881.2549,-3124.9227 881.2549,-3088.9227 972.2549,-3088.9227 972.2549,-3124.9227"/>
<text text-anchor="middle" x="926.7549" y="-3104.1227" font-family="Courier,monospace" font-size="11.00" fill="#000000">SearchQuery</text>
</g>
<!-- \\Firesphere\\SolrSearch\\Queries\\BaseQuery -->
<g id="node44" class="node">
<title>\\Firesphere\\SolrSearch\\Queries\\BaseQuery</title>
<polygon fill="none" stroke="#000000" points="711.2549,-760.9227 634.2549,-760.9227 634.2549,-724.9227 711.2549,-724.9227 711.2549,-760.9227"/>
<text text-anchor="middle" x="672.7549" y="-740.1227" font-family="Courier,monospace" font-size="11.00" fill="#000000">BaseQuery</text>
</g>
<!-- \\SilverStripe\\FullTextSearch\\Search\\Queries\\SearchQuery&#45;&gt;\\Firesphere\\SolrSearch\\Queries\\BaseQuery -->
<g id="edge3" class="edge">
<title>\\SilverStripe\\FullTextSearch\\Search\\Queries\\SearchQuery&#45;&gt;\\Firesphere\\SolrSearch\\Queries\\BaseQuery</title>
<path fill="none" stroke="#000000" d="M925.8715,-3088.7161C915.4517,-2874.6104 815.7473,-843.2446 781.2549,-792.9227 767.363,-772.6554 743.0928,-760.4385 721.0248,-753.1614"/>
<polygon fill="none" stroke="#000000" points="721.9987,-749.7994 711.4132,-750.2452 719.9663,-756.4979 721.9987,-749.7994"/>
</g>
<!-- \\Firesphere\\SolrCompatibility\\Extensions\\FulltextSearchExtension -->
<g id="node4" class="node">
<title>\\Firesphere\\SolrCompatibility\\Extensions\\FulltextSearchExtension</title>
<polygon fill="none" stroke="#000000" points="1012.7549,-220.9227 840.7549,-220.9227 840.7549,-184.9227 1012.7549,-184.9227 1012.7549,-220.9227"/>
<text text-anchor="middle" x="926.7549" y="-200.1227" font-family="Courier,monospace" font-size="11.00" fill="#000000">FulltextSearchExtension</text>
</g>
<!-- \\SilverStripe\\Core\\Extension -->
<g id="node63" class="node">
<title>\\SilverStripe\\Core\\Extension</title>
<ellipse fill="none" stroke="#000000" cx="254.1275" cy="-18.9227" rx="144.0747" ry="18"/>
<text text-anchor="middle" x="254.1275" y="-15.2227" font-family="Times,serif" font-size="14.00" fill="#c0c0c0">\SilverStripe\Core\Extension</text>
</g>
<!-- \\Firesphere\\SolrCompatibility\\Extensions\\FulltextSearchExtension&#45;&gt;\\SilverStripe\\Core\\Extension -->
<g id="edge1" class="edge">
<title>\\Firesphere\\SolrCompatibility\\Extensions\\FulltextSearchExtension&#45;&gt;\\SilverStripe\\Core\\Extension</title>
<path fill="none" stroke="#000000" d="M897.7118,-184.8166C869.069,-167.6785 823.5604,-142.3426 781.2549,-126.9227 734.8533,-110.0098 712.9958,-131.5554 672.7549,-102.9227"/>
<path fill="none" stroke="#000000" d="M672.7549,-102.9227C596.3562,-48.5624 493.2511,-27.4139 408.4834,-19.9283"/>
<polygon fill="none" stroke="#000000" points="408.7583,-16.4392 398.5036,-19.1022 408.1807,-23.4153 408.7583,-16.4392"/>
</g>
<!-- \\Firesphere\\SolrCompatibility\\Extensions\\SolrCoreServiceExtension -->
<g id="node5" class="node">
<title>\\Firesphere\\SolrCompatibility\\Extensions\\SolrCoreServiceExtension</title>
<polygon fill="none" stroke="#000000" points="1016.2549,-274.9227 837.2549,-274.9227 837.2549,-238.9227 1016.2549,-238.9227 1016.2549,-274.9227"/>
<text text-anchor="middle" x="926.7549" y="-254.1227" font-family="Courier,monospace" font-size="11.00" fill="#000000">SolrCoreServiceExtension</text>
</g>
<!-- \\Firesphere\\SolrCompatibility\\Extensions\\SolrCoreServiceExtension&#45;&gt;\\SilverStripe\\Core\\Extension -->
<g id="edge2" class="edge">
<title>\\Firesphere\\SolrCompatibility\\Extensions\\SolrCoreServiceExtension&#45;&gt;\\SilverStripe\\Core\\Extension</title>
<path fill="none" stroke="#000000" d="M837.1938,-240.8468C831.4573,-237.796 826.0644,-234.1876 821.2549,-229.9227 784.5121,-197.3401 818.5279,-158.8973 781.2549,-126.9227 743.7699,-94.7662 712.9958,-131.5554 672.7549,-102.9227"/>
</g>
<!-- \\Firesphere\\SolrSearch\\Extensions\\GridFieldExtension -->
<g id="node7" class="node">
<title>\\Firesphere\\SolrSearch\\Extensions\\GridFieldExtension</title>
<polygon fill="none" stroke="#000000" points="741.7549,-2830.9227 603.7549,-2830.9227 603.7549,-2794.9227 741.7549,-2794.9227 741.7549,-2830.9227"/>
<text text-anchor="middle" x="672.7549" y="-2810.1227" font-family="Courier,monospace" font-size="11.00" fill="#000000">GridFieldExtension</text>
</g>
<!-- \\Firesphere\\SolrSearch\\Extensions\\GridFieldExtension&#45;&gt;\\SilverStripe\\Core\\Extension -->
<g id="edge5" class="edge">
<title>\\Firesphere\\SolrSearch\\Extensions\\GridFieldExtension&#45;&gt;\\SilverStripe\\Core\\Extension</title>
<path fill="none" stroke="#000000" d="M603.7052,-2804.7611C591.482,-2800.1789 580.1551,-2793.271 572.2549,-2782.9227 479.9605,-2662.0291 611.2789,-157.8137 508.2549,-45.9227 466.367,-.4296 394.7593,3.529 338.2112,-2.305"/>
<polygon fill="none" stroke="#000000" points="337.7334,1.1633 328.1981,-3.4548 338.5321,-5.791 337.7334,1.1633"/>
</g>
<!-- \\Firesphere\\SolrSearch\\Extensions\\DataObjectExtension -->
<g id="node8" class="node">
<title>\\Firesphere\\SolrSearch\\Extensions\\DataObjectExtension</title>
<polygon fill="none" stroke="#000000" points="745.2549,-2884.9227 600.2549,-2884.9227 600.2549,-2848.9227 745.2549,-2848.9227 745.2549,-2884.9227"/>
<text text-anchor="middle" x="672.7549" y="-2864.1227" font-family="Courier,monospace" font-size="11.00" fill="#000000">DataObjectExtension</text>
</g>
<!-- \\SilverStripe\\ORM\\DataExtension -->
<g id="node64" class="node">
<title>\\SilverStripe\\ORM\\DataExtension</title>
<ellipse fill="none" stroke="#000000" cx="254.1275" cy="-126.9227" rx="167.8704" ry="18"/>
<text text-anchor="middle" x="254.1275" y="-123.2227" font-family="Times,serif" font-size="14.00" fill="#c0c0c0">\SilverStripe\ORM\DataExtension</text>
</g>
<!-- \\Firesphere\\SolrSearch\\Extensions\\DataObjectExtension&#45;&gt;\\SilverStripe\\ORM\\DataExtension -->
<g id="edge6" class="edge">
<title>\\Firesphere\\SolrSearch\\Extensions\\DataObjectExtension&#45;&gt;\\SilverStripe\\ORM\\DataExtension</title>
<path fill="none" stroke="#000000" d="M600.1161,-2859.4024C589.3433,-2855.1755 579.4597,-2848.9662 572.2549,-2839.9227 512.4993,-2764.9165 522.0566,-1209.8236 508.2549,-1114.9227 451.7793,-726.5956 302.705,-270.3798 263.6201,-154.6669"/>
<polygon fill="none" stroke="#000000" points="266.9129,-153.4783 260.3874,-145.1316 260.2835,-155.7259 266.9129,-153.4783"/>
</g>
<!-- \\Firesphere\\SolrSearch\\Services\\SolrCoreService -->
<g id="node9" class="node">
<title>\\Firesphere\\SolrSearch\\Services\\SolrCoreService</title>
<polygon fill="none" stroke="#000000" points="731.7549,-2750.9227 613.7549,-2750.9227 613.7549,-2714.9227 731.7549,-2714.9227 731.7549,-2750.9227"/>
<text text-anchor="middle" x="672.7549" y="-2730.1227" font-family="Courier,monospace" font-size="11.00" fill="#000000">SolrCoreService</text>
</g>
<!-- \\Firesphere\\SolrSearch\\Traits\\CoreAdminTrait -->
<g id="node10" class="node">
<title>\\Firesphere\\SolrSearch\\Traits\\CoreAdminTrait</title>
<polygon fill="none" stroke="#000000" points="728.2549,-2670.9227 617.2549,-2670.9227 617.2549,-2634.9227 728.2549,-2634.9227 728.2549,-2670.9227"/>
<text text-anchor="middle" x="672.7549" y="-2650.1227" font-family="Courier,monospace" font-size="11.00" fill="#000000">CoreAdminTrait</text>
</g>
<!-- \\Firesphere\\SolrSearch\\Traits\\CoreServiceTrait -->
<g id="node11" class="node">
<title>\\Firesphere\\SolrSearch\\Traits\\CoreServiceTrait</title>
<polygon fill="none" stroke="#000000" points="735.2549,-2616.9227 610.2549,-2616.9227 610.2549,-2580.9227 735.2549,-2580.9227 735.2549,-2616.9227"/>
<text text-anchor="middle" x="672.7549" y="-2596.1227" font-family="Courier,monospace" font-size="11.00" fill="#000000">CoreServiceTrait</text>
</g>
<!-- \\Firesphere\\SolrSearch\\Traits\\GetSetSchemaFactoryTrait -->
<g id="node12" class="node">
<title>\\Firesphere\\SolrSearch\\Traits\\GetSetSchemaFactoryTrait</title>
<polygon fill="none" stroke="#000000" points="762.2549,-2562.9227 583.2549,-2562.9227 583.2549,-2526.9227 762.2549,-2526.9227 762.2549,-2562.9227"/>
<text text-anchor="middle" x="672.7549" y="-2542.1227" font-family="Courier,monospace" font-size="11.00" fill="#000000">GetSetSchemaFactoryTrait</text>
</g>
<!-- \\Firesphere\\SolrSearch\\Traits\\SearchResultGetTrait -->
<g id="node13" class="node">
<title>\\Firesphere\\SolrSearch\\Traits\\SearchResultGetTrait</title>
<polygon fill="none" stroke="#000000" points="748.7549,-2508.9227 596.7549,-2508.9227 596.7549,-2472.9227 748.7549,-2472.9227 748.7549,-2508.9227"/>
<text text-anchor="middle" x="672.7549" y="-2488.1227" font-family="Courier,monospace" font-size="11.00" fill="#000000">SearchResultGetTrait</text>
</g>
<!-- \\Firesphere\\SolrSearch\\Traits\\SearchResultSetTrait -->
<g id="node14" class="node">
<title>\\Firesphere\\SolrSearch\\Traits\\SearchResultSetTrait</title>
<polygon fill="none" stroke="#000000" points="748.7549,-2454.9227 596.7549,-2454.9227 596.7549,-2418.9227 748.7549,-2418.9227 748.7549,-2454.9227"/>
<text text-anchor="middle" x="672.7549" y="-2434.1227" font-family="Courier,monospace" font-size="11.00" fill="#000000">SearchResultSetTrait</text>
</g>
<!-- \\Firesphere\\SolrSearch\\Traits\\DataResolveTrait -->
<g id="node15" class="node">
<title>\\Firesphere\\SolrSearch\\Traits\\DataResolveTrait</title>
<polygon fill="none" stroke="#000000" points="735.2549,-2400.9227 610.2549,-2400.9227 610.2549,-2364.9227 735.2549,-2364.9227 735.2549,-2400.9227"/>
<text text-anchor="middle" x="672.7549" y="-2380.1227" font-family="Courier,monospace" font-size="11.00" fill="#000000">DataResolveTrait</text>
</g>
<!-- \\Firesphere\\SolrSearch\\Traits\\GetterSetterTrait -->
<g id="node16" class="node">
<title>\\Firesphere\\SolrSearch\\Traits\\GetterSetterTrait</title>
<polygon fill="none" stroke="#000000" points="738.2549,-2346.9227 607.2549,-2346.9227 607.2549,-2310.9227 738.2549,-2310.9227 738.2549,-2346.9227"/>
<text text-anchor="middle" x="672.7549" y="-2326.1227" font-family="Courier,monospace" font-size="11.00" fill="#000000">GetterSetterTrait</text>
</g>
<!-- \\Firesphere\\SolrSearch\\Traits\\QueryComponentBoostTrait -->
<g id="node17" class="node">
<title>\\Firesphere\\SolrSearch\\Traits\\QueryComponentBoostTrait</title>
<polygon fill="none" stroke="#000000" points="762.2549,-2292.9227 583.2549,-2292.9227 583.2549,-2256.9227 762.2549,-2256.9227 762.2549,-2292.9227"/>
<text text-anchor="middle" x="672.7549" y="-2272.1227" font-family="Courier,monospace" font-size="11.00" fill="#000000">QueryComponentBoostTrait</text>
</g>
<!-- \\Firesphere\\SolrSearch\\Traits\\QueryComponentFacetTrait -->
<g id="node18" class="node">
<title>\\Firesphere\\SolrSearch\\Traits\\QueryComponentFacetTrait</title>
<polygon fill="none" stroke="#000000" points="762.2549,-2238.9227 583.2549,-2238.9227 583.2549,-2202.9227 762.2549,-2202.9227 762.2549,-2238.9227"/>
<text text-anchor="middle" x="672.7549" y="-2218.1227" font-family="Courier,monospace" font-size="11.00" fill="#000000">QueryComponentFacetTrait</text>
</g>
<!-- \\Firesphere\\SolrSearch\\Traits\\QueryComponentFilterTrait -->
<g id="node19" class="node">
<title>\\Firesphere\\SolrSearch\\Traits\\QueryComponentFilterTrait</title>
<polygon fill="none" stroke="#000000" points="765.2549,-2184.9227 580.2549,-2184.9227 580.2549,-2148.9227 765.2549,-2148.9227 765.2549,-2184.9227"/>
<text text-anchor="middle" x="672.7549" y="-2164.1227" font-family="Courier,monospace" font-size="11.00" fill="#000000">QueryComponentFilterTrait</text>
</g>
<!-- \\Firesphere\\SolrSearch\\Traits\\LoggerTrait -->
<g id="node20" class="node">
<title>\\Firesphere\\SolrSearch\\Traits\\LoggerTrait</title>
<polygon fill="none" stroke="#000000" points="718.2549,-2130.9227 627.2549,-2130.9227 627.2549,-2094.9227 718.2549,-2094.9227 718.2549,-2130.9227"/>
<text text-anchor="middle" x="672.7549" y="-2110.1227" font-family="Courier,monospace" font-size="11.00" fill="#000000">LoggerTrait</text>
</g>
<!-- \\Firesphere\\SolrSearch\\Traits\\DocumentFactoryTrait -->
<g id="node21" class="node">
<title>\\Firesphere\\SolrSearch\\Traits\\DocumentFactoryTrait</title>
<polygon fill="none" stroke="#000000" points="748.7549,-2076.9227 596.7549,-2076.9227 596.7549,-2040.9227 748.7549,-2040.9227 748.7549,-2076.9227"/>
<text text-anchor="middle" x="672.7549" y="-2056.1227" font-family="Courier,monospace" font-size="11.00" fill="#000000">DocumentFactoryTrait</text>
</g>
<!-- \\Firesphere\\SolrSearch\\Traits\\SolrIndexTrait -->
<g id="node22" class="node">
<title>\\Firesphere\\SolrSearch\\Traits\\SolrIndexTrait</title>
<polygon fill="none" stroke="#000000" points="728.2549,-2022.9227 617.2549,-2022.9227 617.2549,-1986.9227 728.2549,-1986.9227 728.2549,-2022.9227"/>
<text text-anchor="middle" x="672.7549" y="-2002.1227" font-family="Courier,monospace" font-size="11.00" fill="#000000">SolrIndexTrait</text>
</g>
<!-- \\Firesphere\\SolrSearch\\Traits\\BaseIndexTrait -->
<g id="node23" class="node">
<title>\\Firesphere\\SolrSearch\\Traits\\BaseIndexTrait</title>
<polygon fill="none" stroke="#000000" points="728.2549,-1968.9227 617.2549,-1968.9227 617.2549,-1932.9227 728.2549,-1932.9227 728.2549,-1968.9227"/>
<text text-anchor="middle" x="672.7549" y="-1948.1227" font-family="Courier,monospace" font-size="11.00" fill="#000000">BaseIndexTrait</text>
</g>
<!-- \\Firesphere\\SolrSearch\\Traits\\GetSetSearchResolverTrait -->
<g id="node24" class="node">
<title>\\Firesphere\\SolrSearch\\Traits\\GetSetSearchResolverTrait</title>
<polygon fill="none" stroke="#000000" points="765.2549,-1914.9227 580.2549,-1914.9227 580.2549,-1878.9227 765.2549,-1878.9227 765.2549,-1914.9227"/>
<text text-anchor="middle" x="672.7549" y="-1894.1227" font-family="Courier,monospace" font-size="11.00" fill="#000000">GetSetSearchResolverTrait</text>
</g>
<!-- \\Firesphere\\SolrSearch\\Traits\\BaseQueryTrait -->
<g id="node25" class="node">
<title>\\Firesphere\\SolrSearch\\Traits\\BaseQueryTrait</title>
<polygon fill="none" stroke="#000000" points="728.2549,-1860.9227 617.2549,-1860.9227 617.2549,-1824.9227 728.2549,-1824.9227 728.2549,-1860.9227"/>
<text text-anchor="middle" x="672.7549" y="-1840.1227" font-family="Courier,monospace" font-size="11.00" fill="#000000">BaseQueryTrait</text>
</g>
<!-- \\Firesphere\\SolrSearch\\Factories\\SchemaFactory -->
<g id="node26" class="node">
<title>\\Firesphere\\SolrSearch\\Factories\\SchemaFactory</title>
<polygon fill="none" stroke="#000000" points="724.7549,-1780.9227 620.7549,-1780.9227 620.7549,-1744.9227 724.7549,-1744.9227 724.7549,-1780.9227"/>
<text text-anchor="middle" x="672.7549" y="-1760.1227" font-family="Courier,monospace" font-size="11.00" fill="#000000">SchemaFactory</text>
</g>
<!-- \\SilverStripe\\View\\ViewableData -->
<g id="node65" class="node">
<title>\\SilverStripe\\View\\ViewableData</title>
<ellipse fill="none" stroke="#000000" cx="254.1275" cy="-72.9227" rx="163.2712" ry="18"/>
<text text-anchor="middle" x="254.1275" y="-69.2227" font-family="Times,serif" font-size="14.00" fill="#c0c0c0">\SilverStripe\View\ViewableData</text>
</g>
<!-- \\Firesphere\\SolrSearch\\Factories\\SchemaFactory&#45;&gt;\\SilverStripe\\View\\ViewableData -->
<g id="edge7" class="edge">
<title>\\Firesphere\\SolrSearch\\Factories\\SchemaFactory&#45;&gt;\\SilverStripe\\View\\ViewableData</title>
<path fill="none" stroke="#000000" d="M620.6735,-1761.1512C602.5814,-1757.7465 583.9211,-1750.5361 572.2549,-1735.9227 458.7577,-1593.7534 632.5256,-232.778 508.2549,-99.9227 467.1681,-55.9977 398.3348,-51.0217 342.6621,-56.0617"/>
<polygon fill="none" stroke="#000000" points="342.0198,-52.6091 332.4296,-57.1122 342.7348,-59.5725 342.0198,-52.6091"/>
</g>
<!-- \\Firesphere\\SolrSearch\\Factories\\DocumentFactory -->
<g id="node27" class="node">
<title>\\Firesphere\\SolrSearch\\Factories\\DocumentFactory</title>
<polygon fill="none" stroke="#000000" points="731.7549,-1726.9227 613.7549,-1726.9227 613.7549,-1690.9227 731.7549,-1690.9227 731.7549,-1726.9227"/>
<text text-anchor="middle" x="672.7549" y="-1706.1227" font-family="Courier,monospace" font-size="11.00" fill="#000000">DocumentFactory</text>
</g>
<!-- \\Firesphere\\SolrSearch\\Factories\\QueryComponentFactory -->
<g id="node28" class="node">
<title>\\Firesphere\\SolrSearch\\Factories\\QueryComponentFactory</title>
<polygon fill="none" stroke="#000000" points="751.7549,-1672.9227 593.7549,-1672.9227 593.7549,-1636.9227 751.7549,-1636.9227 751.7549,-1672.9227"/>
<text text-anchor="middle" x="672.7549" y="-1652.1227" font-family="Courier,monospace" font-size="11.00" fill="#000000">QueryComponentFactory</text>
</g>
<!-- \\Firesphere\\SolrSearch\\States\\SiteState -->
<g id="node29" class="node">
<title>\\Firesphere\\SolrSearch\\States\\SiteState</title>
<polygon fill="none" stroke="#000000" points="714.7549,-1592.9227 630.7549,-1592.9227 630.7549,-1556.9227 714.7549,-1556.9227 714.7549,-1592.9227"/>
<text text-anchor="start" x="638.7549" y="-1578.1227" font-family="Courier,monospace" font-size="11.00" fill="#000000">«abstract»</text>
<text text-anchor="start" x="642.2549" y="-1566.1227" font-family="Courier,monospace" font-size="11.00" fill="#000000">SiteState</text>
</g>
<!-- \\Firesphere\\SolrSearch\\Stores\\PostConfigStore -->
<g id="node30" class="node">
<title>\\Firesphere\\SolrSearch\\Stores\\PostConfigStore</title>
<polygon fill="none" stroke="#000000" points="731.7549,-1216.9227 613.7549,-1216.9227 613.7549,-1180.9227 731.7549,-1180.9227 731.7549,-1216.9227"/>
<text text-anchor="middle" x="672.7549" y="-1196.1227" font-family="Courier,monospace" font-size="11.00" fill="#000000">PostConfigStore</text>
</g>
<!-- \\Firesphere\\SolrSearch\\Interfaces\\ConfigStore -->
<g id="node36" class="node">
<title>\\Firesphere\\SolrSearch\\Interfaces\\ConfigStore</title>
<polygon fill="none" stroke="#000000" points="299.6275,-1216.9227 208.6275,-1216.9227 208.6275,-1180.9227 299.6275,-1180.9227 299.6275,-1216.9227"/>
<text text-anchor="middle" x="254.1275" y="-1196.1227" font-family="Courier,monospace" font-size="11.00" fill="#000000">ConfigStore</text>
</g>
<!-- \\Firesphere\\SolrSearch\\Stores\\PostConfigStore&#45;&gt;\\Firesphere\\SolrSearch\\Interfaces\\ConfigStore -->
<g id="edge8" class="edge">
<title>\\Firesphere\\SolrSearch\\Stores\\PostConfigStore&#45;&gt;\\Firesphere\\SolrSearch\\Interfaces\\ConfigStore</title>
<path fill="none" stroke="#000000" stroke-dasharray="1,5" d="M613.6637,-1198.9227C532.8854,-1198.9227 389.0185,-1198.9227 309.9722,-1198.9227"/>
<polygon fill="none" stroke="#000000" points="309.7288,-1195.4228 299.7287,-1198.9227 309.7287,-1202.4228 309.7288,-1195.4228"/>
</g>
<!-- \\Firesphere\\SolrSearch\\Stores\\FileConfigStore -->
<g id="node31" class="node">
<title>\\Firesphere\\SolrSearch\\Stores\\FileConfigStore</title>
<polygon fill="none" stroke="#000000" points="731.7549,-1270.9227 613.7549,-1270.9227 613.7549,-1234.9227 731.7549,-1234.9227 731.7549,-1270.9227"/>
<text text-anchor="middle" x="672.7549" y="-1250.1227" font-family="Courier,monospace" font-size="11.00" fill="#000000">FileConfigStore</text>
</g>
<!-- \\Firesphere\\SolrSearch\\Stores\\FileConfigStore&#45;&gt;\\Firesphere\\SolrSearch\\Interfaces\\ConfigStore -->
<g id="edge9" class="edge">
<title>\\Firesphere\\SolrSearch\\Stores\\FileConfigStore&#45;&gt;\\Firesphere\\SolrSearch\\Interfaces\\ConfigStore</title>
<path fill="none" stroke="#000000" stroke-dasharray="1,5" d="M613.6637,-1245.3003C532.8854,-1234.8805 389.0185,-1216.3227 309.9722,-1206.1263"/>
<polygon fill="none" stroke="#000000" points="310.0944,-1202.6131 299.7287,-1204.8049 309.1988,-1209.5556 310.0944,-1202.6131"/>
</g>
<!-- \\Firesphere\\SolrSearch\\Tasks\\ClearDirtyClassesTask -->
<g id="node32" class="node">
<title>\\Firesphere\\SolrSearch\\Tasks\\ClearDirtyClassesTask</title>
<polygon fill="none" stroke="#000000" points="751.7549,-1350.9227 593.7549,-1350.9227 593.7549,-1314.9227 751.7549,-1314.9227 751.7549,-1350.9227"/>
<text text-anchor="middle" x="672.7549" y="-1330.1227" font-family="Courier,monospace" font-size="11.00" fill="#000000">ClearDirtyClassesTask</text>
</g>
<!-- \\SilverStripe\\Dev\\BuildTask -->
<g id="node66" class="node">
<title>\\SilverStripe\\Dev\\BuildTask</title>
<ellipse fill="none" stroke="#000000" cx="254.1275" cy="-3694.9227" rx="139.9756" ry="18"/>
<text text-anchor="middle" x="254.1275" y="-3691.2227" font-family="Times,serif" font-size="14.00" fill="#c0c0c0">\SilverStripe\Dev\BuildTask</text>
</g>
<!-- \\Firesphere\\SolrSearch\\Tasks\\ClearDirtyClassesTask&#45;&gt;\\SilverStripe\\Dev\\BuildTask -->
<g id="edge10" class="edge">
<title>\\Firesphere\\SolrSearch\\Tasks\\ClearDirtyClassesTask&#45;&gt;\\SilverStripe\\Dev\\BuildTask</title>
<path fill="none" stroke="#000000" d="M593.6115,-1343.2197C585.3845,-1347.2664 577.9624,-1352.6893 572.2549,-1359.9227 413.3418,-1561.3202 682.4354,-3479.5734 508.2549,-3667.9227 466.1262,-3713.4783 394.1844,-3717.3178 337.5765,-3711.4244"/>
<polygon fill="none" stroke="#000000" points="337.8917,-3707.9377 327.5556,-3710.2646 337.0868,-3714.8912 337.8917,-3707.9377"/>
</g>
<!-- \\Firesphere\\SolrSearch\\Tasks\\SolrConfigureTask -->
<g id="node33" class="node">
<title>\\Firesphere\\SolrSearch\\Tasks\\SolrConfigureTask</title>
<polygon fill="none" stroke="#000000" points="738.2549,-1512.9227 607.2549,-1512.9227 607.2549,-1476.9227 738.2549,-1476.9227 738.2549,-1512.9227"/>
<text text-anchor="middle" x="672.7549" y="-1492.1227" font-family="Courier,monospace" font-size="11.00" fill="#000000">SolrConfigureTask</text>
</g>
<!-- \\Firesphere\\SolrSearch\\Tasks\\SolrConfigureTask&#45;&gt;\\SilverStripe\\Dev\\BuildTask -->
<g id="edge11" class="edge">
<title>\\Firesphere\\SolrSearch\\Tasks\\SolrConfigureTask&#45;&gt;\\SilverStripe\\Dev\\BuildTask</title>
<path fill="none" stroke="#000000" d="M610.8801,-1512.9857C595.7681,-1520.4165 581.3464,-1530.7274 572.2549,-1544.9227 444.9756,-1743.654 668.6941,-3494.8522 508.2549,-3667.9227 466.1424,-3713.3507 394.3771,-3717.2586 337.829,-3711.4227"/>
<polygon fill="none" stroke="#000000" points="338.1516,-3707.9368 327.8176,-3710.273 337.3529,-3714.8911 338.1516,-3707.9368"/>
</g>
<!-- \\Firesphere\\SolrSearch\\Tasks\\ClearErrorsTask -->
<g id="node34" class="node">
<title>\\Firesphere\\SolrSearch\\Tasks\\ClearErrorsTask</title>
<polygon fill="none" stroke="#000000" points="731.7549,-1458.9227 613.7549,-1458.9227 613.7549,-1422.9227 731.7549,-1422.9227 731.7549,-1458.9227"/>
<text text-anchor="middle" x="672.7549" y="-1438.1227" font-family="Courier,monospace" font-size="11.00" fill="#000000">ClearErrorsTask</text>
</g>
<!-- \\Firesphere\\SolrSearch\\Tasks\\ClearErrorsTask&#45;&gt;\\SilverStripe\\Dev\\BuildTask -->
<g id="edge12" class="edge">
<title>\\Firesphere\\SolrSearch\\Tasks\\ClearErrorsTask&#45;&gt;\\SilverStripe\\Dev\\BuildTask</title>
<path fill="none" stroke="#000000" d="M613.5013,-1444.1648C597.7498,-1448.0402 582.3357,-1455.1648 572.2549,-1467.9227 420.6415,-1659.8004 674.4134,-3488.493 508.2549,-3667.9227 466.0952,-3713.4497 394.1563,-3717.2918 337.5573,-3711.4067"/>
<polygon fill="none" stroke="#000000" points="337.874,-3707.9201 327.5382,-3710.2484 337.07,-3714.8738 337.874,-3707.9201"/>
</g>
<!-- \\Firesphere\\SolrSearch\\Tasks\\SolrIndexTask -->
<g id="node35" class="node">
<title>\\Firesphere\\SolrSearch\\Tasks\\SolrIndexTask</title>
<polygon fill="none" stroke="#000000" points="724.7549,-1404.9227 620.7549,-1404.9227 620.7549,-1368.9227 724.7549,-1368.9227 724.7549,-1404.9227"/>
<text text-anchor="middle" x="672.7549" y="-1384.1227" font-family="Courier,monospace" font-size="11.00" fill="#000000">SolrIndexTask</text>
</g>
<!-- \\Firesphere\\SolrSearch\\Tasks\\SolrIndexTask&#45;&gt;\\SilverStripe\\Dev\\BuildTask -->
<g id="edge13" class="edge">
<title>\\Firesphere\\SolrSearch\\Tasks\\SolrIndexTask&#45;&gt;\\SilverStripe\\Dev\\BuildTask</title>
<path fill="none" stroke="#000000" d="M620.59,-1388.6278C602.4879,-1392.0247 583.8427,-1399.2471 572.2549,-1413.9227 416.9917,-1610.5602 678.4244,-3484.0332 508.2549,-3667.9227 466.1111,-3713.4644 394.1707,-3717.3051 337.5671,-3711.4158"/>
<polygon fill="none" stroke="#000000" points="337.8831,-3707.9291 327.5471,-3710.2567 337.0786,-3714.8827 337.8831,-3707.9291"/>
</g>
<!-- \\Firesphere\\SolrSearch\\Interfaces\\SiteStateInterface -->
<g id="node37" class="node">
<title>\\Firesphere\\SolrSearch\\Interfaces\\SiteStateInterface</title>
<polygon fill="none" stroke="#000000" points="323.1275,-1162.9227 185.1275,-1162.9227 185.1275,-1126.9227 323.1275,-1126.9227 323.1275,-1162.9227"/>
<text text-anchor="middle" x="254.1275" y="-1142.1227" font-family="Courier,monospace" font-size="11.00" fill="#000000">SiteStateInterface</text>
</g>
<!-- \\Firesphere\\SolrSearch\\Helpers\\Synonyms -->
<g id="node38" class="node">
<title>\\Firesphere\\SolrSearch\\Helpers\\Synonyms</title>
<polygon fill="none" stroke="#000000" points="708.2549,-1136.9227 637.2549,-1136.9227 637.2549,-1100.9227 708.2549,-1100.9227 708.2549,-1136.9227"/>
<text text-anchor="middle" x="672.7549" y="-1116.1227" font-family="Courier,monospace" font-size="11.00" fill="#000000">Synonyms</text>
</g>
<!-- \\Firesphere\\SolrSearch\\Helpers\\SolrLogger -->
<g id="node39" class="node">
<title>\\Firesphere\\SolrSearch\\Helpers\\SolrLogger</title>
<polygon fill="none" stroke="#000000" points="714.7549,-1082.9227 630.7549,-1082.9227 630.7549,-1046.9227 714.7549,-1046.9227 714.7549,-1082.9227"/>
<text text-anchor="middle" x="672.7549" y="-1062.1227" font-family="Courier,monospace" font-size="11.00" fill="#000000">SolrLogger</text>
</g>
<!-- \\Firesphere\\SolrSearch\\Helpers\\DataResolver -->
<g id="node40" class="node">
<title>\\Firesphere\\SolrSearch\\Helpers\\DataResolver</title>
<polygon fill="none" stroke="#000000" points="721.7549,-1028.9227 623.7549,-1028.9227 623.7549,-992.9227 721.7549,-992.9227 721.7549,-1028.9227"/>
<text text-anchor="middle" x="672.7549" y="-1008.1227" font-family="Courier,monospace" font-size="11.00" fill="#000000">DataResolver</text>
</g>
<!-- \\Firesphere\\SolrSearch\\Helpers\\FieldResolver -->
<g id="node41" class="node">
<title>\\Firesphere\\SolrSearch\\Helpers\\FieldResolver</title>
<polygon fill="none" stroke="#000000" points="724.7549,-974.9227 620.7549,-974.9227 620.7549,-938.9227 724.7549,-938.9227 724.7549,-974.9227"/>
<text text-anchor="middle" x="672.7549" y="-954.1227" font-family="Courier,monospace" font-size="11.00" fill="#000000">FieldResolver</text>
</g>
<!-- \\Firesphere\\SolrSearch\\Helpers\\Statics -->
<g id="node42" class="node">
<title>\\Firesphere\\SolrSearch\\Helpers\\Statics</title>
<polygon fill="none" stroke="#000000" points="704.7549,-920.9227 640.7549,-920.9227 640.7549,-884.9227 704.7549,-884.9227 704.7549,-920.9227"/>
<text text-anchor="middle" x="672.7549" y="-900.1227" font-family="Courier,monospace" font-size="11.00" fill="#000000">Statics</text>
</g>
<!-- \\Firesphere\\SolrSearch\\Admins\\SearchAdmin -->
<g id="node43" class="node">
<title>\\Firesphere\\SolrSearch\\Admins\\SearchAdmin</title>
<polygon fill="none" stroke="#000000" points="718.2549,-840.9227 627.2549,-840.9227 627.2549,-804.9227 718.2549,-804.9227 718.2549,-840.9227"/>
<text text-anchor="middle" x="672.7549" y="-820.1227" font-family="Courier,monospace" font-size="11.00" fill="#000000">SearchAdmin</text>
</g>
<!-- \\SilverStripe\\Admin\\ModelAdmin -->
<g id="node67" class="node">
<title>\\SilverStripe\\Admin\\ModelAdmin</title>
<ellipse fill="none" stroke="#000000" cx="254.1275" cy="-3640.9227" rx="165.1707" ry="18"/>
<text text-anchor="middle" x="254.1275" y="-3637.2227" font-family="Times,serif" font-size="14.00" fill="#c0c0c0">\SilverStripe\Admin\ModelAdmin</text>
</g>
<!-- \\Firesphere\\SolrSearch\\Admins\\SearchAdmin&#45;&gt;\\SilverStripe\\Admin\\ModelAdmin -->
<g id="edge14" class="edge">
<title>\\Firesphere\\SolrSearch\\Admins\\SearchAdmin&#45;&gt;\\SilverStripe\\Admin\\ModelAdmin</title>
<path fill="none" stroke="#000000" d="M627.1223,-834.0233C606.7188,-841.4797 584.5391,-853.5982 572.2549,-872.9227 490.5409,-1001.4684 611.4274,-3501.8665 508.2549,-3613.9227 467.3032,-3658.4005 397.9436,-3663.1775 342.0224,-3657.9168"/>
<polygon fill="none" stroke="#000000" points="342.0608,-3654.4012 331.7469,-3656.825 341.3211,-3661.362 342.0608,-3654.4012"/>
</g>
<!-- \\Firesphere\\SolrSearch\\Results\\SearchResult -->
<g id="node45" class="node">
<title>\\Firesphere\\SolrSearch\\Results\\SearchResult</title>
<polygon fill="none" stroke="#000000" points="721.7549,-224.9227 623.7549,-224.9227 623.7549,-188.9227 721.7549,-188.9227 721.7549,-224.9227"/>
<text text-anchor="middle" x="672.7549" y="-204.1227" font-family="Courier,monospace" font-size="11.00" fill="#000000">SearchResult</text>
</g>
<!-- \\Firesphere\\SolrSearch\\Results\\SearchResult&#45;&gt;\\SilverStripe\\View\\ViewableData -->
<g id="edge15" class="edge">
<title>\\Firesphere\\SolrSearch\\Results\\SearchResult&#45;&gt;\\SilverStripe\\View\\ViewableData</title>
<path fill="none" stroke="#000000" d="M652.1623,-188.8285C622.6071,-164.0209 565.4005,-120.219 508.2549,-99.9227 480.7402,-90.1503 450.5777,-83.618 420.9471,-79.3058"/>
<polygon fill="none" stroke="#000000" points="421.3072,-75.8224 410.9235,-77.927 420.3532,-82.7571 421.3072,-75.8224"/>
</g>
<!-- \\Firesphere\\SolrSearch\\Models\\SolrLog -->
<g id="node46" class="node">
<title>\\Firesphere\\SolrSearch\\Models\\SolrLog</title>
<polygon fill="none" stroke="#000000" points="704.7549,-572.9227 640.7549,-572.9227 640.7549,-536.9227 704.7549,-536.9227 704.7549,-572.9227"/>
<text text-anchor="middle" x="672.7549" y="-552.1227" font-family="Courier,monospace" font-size="11.00" fill="#000000">SolrLog</text>
</g>
<!-- \\SilverStripe\\ORM\\DataObject -->
<g id="node68" class="node">
<title>\\SilverStripe\\ORM\\DataObject</title>
<ellipse fill="none" stroke="#000000" cx="254.1275" cy="-3586.9227" rx="152.9733" ry="18"/>
<text text-anchor="middle" x="254.1275" y="-3583.2227" font-family="Times,serif" font-size="14.00" fill="#c0c0c0">\SilverStripe\ORM\DataObject</text>
</g>
<!-- \\Firesphere\\SolrSearch\\Models\\SolrLog&#45;&gt;\\SilverStripe\\ORM\\DataObject -->
<g id="edge16" class="edge">
<title>\\Firesphere\\SolrSearch\\Models\\SolrLog&#45;&gt;\\SilverStripe\\ORM\\DataObject</title>
<path fill="none" stroke="#000000" d="M640.6148,-554.1763C617.6857,-555.549 588.195,-561.5911 572.2549,-581.9227 470.1537,-712.1527 620.2305,-3438.0786 508.2549,-3559.9227 466.7641,-3605.0702 396.0081,-3609.3406 339.6767,-3603.7113"/>
<polygon fill="none" stroke="#000000" points="340.0222,-3600.2282 329.6956,-3602.597 339.2455,-3607.185 340.0222,-3600.2282"/>
</g>
<!-- \\SilverStripe\\Security\\PermissionProvider -->
<g id="node69" class="node">
<title>\\SilverStripe\\Security\\PermissionProvider</title>
<ellipse fill="none" stroke="#000000" cx="254.1275" cy="-3532.9227" rx="206.0634" ry="18"/>
<text text-anchor="middle" x="254.1275" y="-3529.2227" font-family="Times,serif" font-size="14.00" fill="#c0c0c0">\SilverStripe\Security\PermissionProvider</text>
</g>
<!-- \\Firesphere\\SolrSearch\\Models\\SolrLog&#45;&gt;\\SilverStripe\\Security\\PermissionProvider -->
<g id="edge17" class="edge">
<title>\\Firesphere\\SolrSearch\\Models\\SolrLog&#45;&gt;\\SilverStripe\\Security\\PermissionProvider</title>
<path fill="none" stroke="#000000" stroke-dasharray="1,5" d="M640.6171,-554.1782C617.6893,-555.5518 588.199,-561.5943 572.2549,-581.9227 471.9789,-709.7725 618.2247,-3386.3088 508.2549,-3505.9227 468.5372,-3549.1236 402.0225,-3554.8909 347.0039,-3550.3738"/>
<polygon fill="none" stroke="#000000" points="347.1583,-3546.8729 336.8735,-3549.4174 346.5003,-3553.8419 347.1583,-3546.8729"/>
</g>
<!-- \\Firesphere\\SolrSearch\\Models\\SearchSynonym -->
<g id="node47" class="node">
<title>\\Firesphere\\SolrSearch\\Models\\SearchSynonym</title>
<polygon fill="none" stroke="#000000" points="724.7549,-680.9227 620.7549,-680.9227 620.7549,-644.9227 724.7549,-644.9227 724.7549,-680.9227"/>
<text text-anchor="middle" x="672.7549" y="-660.1227" font-family="Courier,monospace" font-size="11.00" fill="#000000">SearchSynonym</text>
</g>
<!-- \\Firesphere\\SolrSearch\\Models\\SearchSynonym&#45;&gt;\\SilverStripe\\ORM\\DataObject -->
<g id="edge18" class="edge">
<title>\\Firesphere\\SolrSearch\\Models\\SearchSynonym&#45;&gt;\\SilverStripe\\ORM\\DataObject</title>
<path fill="none" stroke="#000000" d="M620.5565,-676.5594C602.1028,-684.134 583.2248,-695.6493 572.2549,-712.9227 487.4406,-846.4737 615.3646,-3443.4888 508.2549,-3559.9227 466.7418,-3605.0496 395.9875,-3609.3217 339.6626,-3603.6983"/>
<polygon fill="none" stroke="#000000" points="340.009,-3600.2153 329.6826,-3602.5851 339.2329,-3607.1722 340.009,-3600.2153"/>
</g>
<!-- \\Firesphere\\SolrSearch\\Models\\DirtyClass -->
<g id="node48" class="node">
<title>\\Firesphere\\SolrSearch\\Models\\DirtyClass</title>
<polygon fill="none" stroke="#000000" points="714.7549,-626.9227 630.7549,-626.9227 630.7549,-590.9227 714.7549,-590.9227 714.7549,-626.9227"/>
<text text-anchor="middle" x="672.7549" y="-606.1227" font-family="Courier,monospace" font-size="11.00" fill="#000000">DirtyClass</text>
</g>
<!-- \\Firesphere\\SolrSearch\\Models\\DirtyClass&#45;&gt;\\SilverStripe\\ORM\\DataObject -->
<g id="edge19" class="edge">
<title>\\Firesphere\\SolrSearch\\Models\\DirtyClass&#45;&gt;\\SilverStripe\\ORM\\DataObject</title>
<path fill="none" stroke="#000000" d="M630.667,-609.0548C609.7052,-611.5214 585.9691,-618.4374 572.2549,-635.9227 471.9789,-763.7725 618.2247,-3440.3088 508.2549,-3559.9227 466.7551,-3605.0619 395.9998,-3609.333 339.6711,-3603.7061"/>
<polygon fill="none" stroke="#000000" points="340.0169,-3600.223 329.6904,-3602.5922 339.2404,-3607.1799 340.0169,-3600.223"/>
</g>
<!-- \\Firesphere\\SolrSearch\\Forms\\SearchForm -->
<g id="node49" class="node">
<title>\\Firesphere\\SolrSearch\\Forms\\SearchForm</title>
<polygon fill="none" stroke="#000000" points="714.7549,-492.9227 630.7549,-492.9227 630.7549,-456.9227 714.7549,-456.9227 714.7549,-492.9227"/>
<text text-anchor="middle" x="672.7549" y="-472.1227" font-family="Courier,monospace" font-size="11.00" fill="#000000">SearchForm</text>
</g>
<!-- \\SilverStripe\\Forms\\Form -->
<g id="node70" class="node">
<title>\\SilverStripe\\Forms\\Form</title>
<ellipse fill="none" stroke="#000000" cx="254.1275" cy="-3478.9227" rx="129.1772" ry="18"/>
<text text-anchor="middle" x="254.1275" y="-3475.2227" font-family="Times,serif" font-size="14.00" fill="#c0c0c0">\SilverStripe\Forms\Form</text>
</g>
<!-- \\Firesphere\\SolrSearch\\Forms\\SearchForm&#45;&gt;\\SilverStripe\\Forms\\Form -->
<g id="edge20" class="edge">
<title>\\Firesphere\\SolrSearch\\Forms\\SearchForm&#45;&gt;\\SilverStripe\\Forms\\Form</title>
<path fill="none" stroke="#000000" d="M630.7355,-484.7321C609.381,-492.0514 585.2557,-504.4373 572.2549,-524.9227 485.1007,-662.2513 618.3361,-3332.1849 508.2549,-3451.9227 465.6225,-3498.2949 392.1147,-3501.5362 335.0906,-3495.224"/>
<polygon fill="none" stroke="#000000" points="335.3586,-3491.7308 325.0076,-3493.9909 334.5088,-3498.679 335.3586,-3491.7308"/>
</g>
<!-- \\Firesphere\\SolrSearch\\Jobs\\SolrConfigureJob -->
<g id="node50" class="node">
<title>\\Firesphere\\SolrSearch\\Jobs\\SolrConfigureJob</title>
<polygon fill="none" stroke="#000000" points="735.2549,-412.9227 610.2549,-412.9227 610.2549,-376.9227 735.2549,-376.9227 735.2549,-412.9227"/>
<text text-anchor="middle" x="672.7549" y="-392.1227" font-family="Courier,monospace" font-size="11.00" fill="#000000">SolrConfigureJob</text>
</g>
<!-- \\Symbiote\\QueuedJobs\\Services\\AbstractQueuedJob -->
<g id="node71" class="node">
<title>\\Symbiote\\QueuedJobs\\Services\\AbstractQueuedJob</title>
<ellipse fill="none" stroke="#000000" cx="254.1275" cy="-3424.9227" rx="254.255" ry="18"/>
<text text-anchor="middle" x="254.1275" y="-3421.2227" font-family="Times,serif" font-size="14.00" fill="#c0c0c0">\Symbiote\QueuedJobs\Services\AbstractQueuedJob</text>
</g>
<!-- \\Firesphere\\SolrSearch\\Jobs\\SolrConfigureJob&#45;&gt;\\Symbiote\\QueuedJobs\\Services\\AbstractQueuedJob -->
<g id="edge21" class="edge">
<title>\\Firesphere\\SolrSearch\\Jobs\\SolrConfigureJob&#45;&gt;\\Symbiote\\QueuedJobs\\Services\\AbstractQueuedJob</title>
<path fill="none" stroke="#000000" d="M611.8608,-413.0294C596.5645,-420.4827 581.8026,-430.7943 572.2549,-444.9227 471.8997,-593.4248 525.7643,-1070.5482 508.2549,-1248.9227 421.7321,-2130.3635 282.3494,-3208.681 257.8599,-3396.4084"/>
<polygon fill="none" stroke="#000000" points="254.3589,-3396.1894 256.5345,-3406.5584 261.2999,-3397.0958 254.3589,-3396.1894"/>
</g>
<!-- \\Firesphere\\SolrSearch\\Jobs\\ClearDirtyClassesJob -->
<g id="node51" class="node">
<title>\\Firesphere\\SolrSearch\\Jobs\\ClearDirtyClassesJob</title>
<polygon fill="none" stroke="#000000" points="748.7549,-358.9227 596.7549,-358.9227 596.7549,-322.9227 748.7549,-322.9227 748.7549,-358.9227"/>
<text text-anchor="middle" x="672.7549" y="-338.1227" font-family="Courier,monospace" font-size="11.00" fill="#000000">ClearDirtyClassesJob</text>
</g>
<!-- \\Firesphere\\SolrSearch\\Jobs\\ClearDirtyClassesJob&#45;&gt;\\Symbiote\\QueuedJobs\\Services\\AbstractQueuedJob -->
<g id="edge22" class="edge">
<title>\\Firesphere\\SolrSearch\\Jobs\\ClearDirtyClassesJob&#45;&gt;\\Symbiote\\QueuedJobs\\Services\\AbstractQueuedJob</title>
<path fill="none" stroke="#000000" d="M596.3763,-350.3294C587.1318,-354.4429 578.6983,-360.1225 572.2549,-367.9227 509.7485,-443.5914 517.5051,-1151.2127 508.2549,-1248.9227 424.7812,-2130.6575 282.9006,-3208.7341 257.9346,-3396.4156"/>
<polygon fill="none" stroke="#000000" points="254.4341,-3396.1885 256.5832,-3406.5631 261.3728,-3397.1127 254.4341,-3396.1885"/>
</g>
<!-- \\Firesphere\\SolrSearch\\Jobs\\SolrIndexJob -->
<g id="node52" class="node">
<title>\\Firesphere\\SolrSearch\\Jobs\\SolrIndexJob</title>
<polygon fill="none" stroke="#000000" points="721.7549,-304.9227 623.7549,-304.9227 623.7549,-268.9227 721.7549,-268.9227 721.7549,-304.9227"/>
<text text-anchor="middle" x="672.7549" y="-284.1227" font-family="Courier,monospace" font-size="11.00" fill="#000000">SolrIndexJob</text>
</g>
<!-- \\Firesphere\\SolrSearch\\Jobs\\SolrIndexJob&#45;&gt;\\Symbiote\\QueuedJobs\\Services\\AbstractQueuedJob -->
<g id="edge23" class="edge">
<title>\\Firesphere\\SolrSearch\\Jobs\\SolrIndexJob&#45;&gt;\\Symbiote\\QueuedJobs\\Services\\AbstractQueuedJob</title>
<path fill="none" stroke="#000000" d="M623.5125,-288.4067C604.6573,-291.6275 584.7074,-298.7838 572.2549,-313.9227 506.1045,-394.344 517.8528,-1145.234 508.2549,-1248.9227 426.6218,-2130.8298 283.2333,-3208.7653 257.9797,-3396.4199"/>
<polygon fill="none" stroke="#000000" points="254.4794,-3396.188 256.6126,-3406.5658 261.4167,-3397.1228 254.4794,-3396.188"/>
</g>
<!-- \\Firesphere\\SolrFluent\\Extensions\\FluentDocumentExtension -->
<g id="node53" class="node">
<title>\\Firesphere\\SolrFluent\\Extensions\\FluentDocumentExtension</title>
<polygon fill="none" stroke="#000000" points="1012.7549,-668.9227 840.7549,-668.9227 840.7549,-632.9227 1012.7549,-632.9227 1012.7549,-668.9227"/>
<text text-anchor="middle" x="926.7549" y="-648.1227" font-family="Courier,monospace" font-size="11.00" fill="#000000">FluentDocumentExtension</text>
</g>
<!-- \\Firesphere\\SolrFluent\\Extensions\\FluentDocumentExtension&#45;&gt;\\SilverStripe\\Core\\Extension -->
<g id="edge24" class="edge">
<title>\\Firesphere\\SolrFluent\\Extensions\\FluentDocumentExtension&#45;&gt;\\SilverStripe\\Core\\Extension</title>
<path fill="none" stroke="#000000" d="M879.2438,-632.8356C857.9161,-622.1955 834.5963,-606.5199 821.2549,-584.9227 722.7083,-425.3951 882.9626,-322.4538 781.2549,-164.9227 751.1296,-118.2627 718.0085,-135.1222 672.7549,-102.9227"/>
</g>
<!-- \\Firesphere\\SolrFluent\\Extensions\\FluentIndexExtension -->
<g id="node54" class="node">
<title>\\Firesphere\\SolrFluent\\Extensions\\FluentIndexExtension</title>
<polygon fill="none" stroke="#000000" points="1002.7549,-776.9227 850.7549,-776.9227 850.7549,-740.9227 1002.7549,-740.9227 1002.7549,-776.9227"/>
<text text-anchor="middle" x="926.7549" y="-756.1227" font-family="Courier,monospace" font-size="11.00" fill="#000000">FluentIndexExtension</text>
</g>
<!-- \\Firesphere\\SolrFluent\\Extensions\\FluentIndexExtension&#45;&gt;\\SilverStripe\\Core\\Extension -->
<g id="edge25" class="edge">
<title>\\Firesphere\\SolrFluent\\Extensions\\FluentIndexExtension&#45;&gt;\\SilverStripe\\Core\\Extension</title>
<path fill="none" stroke="#000000" d="M850.5548,-751.7192C839.313,-747.4473 828.9462,-741.1409 821.2549,-731.9227 740.3328,-634.9349 848.462,-271.8723 781.2549,-164.9227 751.7039,-117.8969 718.0085,-135.1222 672.7549,-102.9227"/>
</g>
<!-- \\Firesphere\\SolrFluent\\Extensions\\FluentSchemaExtension -->
<g id="node55" class="node">
<title>\\Firesphere\\SolrFluent\\Extensions\\FluentSchemaExtension</title>
<polygon fill="none" stroke="#000000" points="1005.7549,-722.9227 847.7549,-722.9227 847.7549,-686.9227 1005.7549,-686.9227 1005.7549,-722.9227"/>
<text text-anchor="middle" x="926.7549" y="-702.1227" font-family="Courier,monospace" font-size="11.00" fill="#000000">FluentSchemaExtension</text>
</g>
<!-- \\Firesphere\\SolrFluent\\Extensions\\FluentSchemaExtension&#45;&gt;\\SilverStripe\\Core\\Extension -->
<g id="edge26" class="edge">
<title>\\Firesphere\\SolrFluent\\Extensions\\FluentSchemaExtension&#45;&gt;\\SilverStripe\\Core\\Extension</title>
<path fill="none" stroke="#000000" d="M847.7103,-696.5162C837.5852,-692.2928 828.311,-686.3165 821.2549,-677.9227 747.6758,-590.3948 842.4518,-261.5144 781.2549,-164.9227 751.5304,-118.0063 718.0085,-135.1222 672.7549,-102.9227"/>
</g>
<!-- \\Firesphere\\SolrFluent\\States\\FluentSiteState -->
<g id="node56" class="node">
<title>\\Firesphere\\SolrFluent\\States\\FluentSiteState</title>
<polygon fill="none" stroke="#000000" points="985.7549,-856.9227 867.7549,-856.9227 867.7549,-820.9227 985.7549,-820.9227 985.7549,-856.9227"/>
<text text-anchor="middle" x="926.7549" y="-836.1227" font-family="Courier,monospace" font-size="11.00" fill="#000000">FluentSiteState</text>
</g>
<!-- \\Firesphere\\SolrFluent\\States\\FluentSiteState&#45;&gt;\\Firesphere\\SolrSearch\\States\\SiteState -->
<g id="edge27" class="edge">
<title>\\Firesphere\\SolrFluent\\States\\FluentSiteState&#45;&gt;\\Firesphere\\SolrSearch\\States\\SiteState</title>
<path fill="none" stroke="#000000" d="M892.0229,-856.9943C867.6168,-871.7314 836.6745,-894.9873 821.2549,-924.9227 758.0329,-1047.661 868.3617,-1437.8053 781.2549,-1544.9227 767.6385,-1561.6671 745.5801,-1569.5478 724.8966,-1573.0962"/>
<polygon fill="none" stroke="#000000" points="724.3079,-1569.6445 714.8963,-1574.5099 725.2878,-1576.5756 724.3079,-1569.6445"/>
</g>
<!-- \\Firesphere\\SolrFluent\\States\\FluentSiteState&#45;&gt;\\Firesphere\\SolrSearch\\Interfaces\\SiteStateInterface -->
<g id="edge28" class="edge">
<title>\\Firesphere\\SolrFluent\\States\\FluentSiteState&#45;&gt;\\Firesphere\\SolrSearch\\Interfaces\\SiteStateInterface</title>
<path fill="none" stroke="#000000" stroke-dasharray="1,5" d="M867.5291,-834.9616C850.0639,-830.7685 832.6083,-823.0063 821.2549,-808.9227 732.9344,-699.3639 880.7021,-276.4913 781.2549,-176.9227 747.1066,-142.7327 721.033,-171.9943 672.7549,-169.9227"/>
<path fill="none" stroke="#000000" stroke-dasharray="1,5" d="M672.7549,-169.9227C628.0212,-168.0032 607.5881,-149.4208 572.2549,-176.9227 413.2557,-300.6813 285.3258,-970.6679 259.07,-1116.7761"/>
<polygon fill="none" stroke="#000000" points="255.6024,-1116.2848 257.291,-1126.7442 262.4936,-1117.5147 255.6024,-1116.2848"/>
</g>
<!-- \\Firesphere\\SolrSubsites\\Extensions\\SubsitesExtension -->
<g id="node57" class="node">
<title>\\Firesphere\\SolrSubsites\\Extensions\\SubsitesExtension</title>
<polygon fill="none" stroke="#000000" points="992.2549,-972.9227 861.2549,-972.9227 861.2549,-936.9227 992.2549,-936.9227 992.2549,-972.9227"/>
<text text-anchor="middle" x="926.7549" y="-952.1227" font-family="Courier,monospace" font-size="11.00" fill="#000000">SubsitesExtension</text>
</g>
<!-- \\Firesphere\\SolrSubsites\\Extensions\\SubsitesExtension&#45;&gt;\\SilverStripe\\Core\\Extension -->
<g id="edge29" class="edge">
<title>\\Firesphere\\SolrSubsites\\Extensions\\SubsitesExtension&#45;&gt;\\SilverStripe\\Core\\Extension</title>
<path fill="none" stroke="#000000" d="M878.3173,-936.7933C857.0531,-926.2102 834.0545,-910.5948 821.2549,-888.9227 739.3126,-750.1794 865.9472,-302.0046 781.2549,-164.9227 752.063,-117.6731 718.0085,-135.1222 672.7549,-102.9227"/>
</g>
<!-- \\Firesphere\\SolrSubsites\\States\\SubsiteState -->
<g id="node58" class="node">
<title>\\Firesphere\\SolrSubsites\\States\\SubsiteState</title>
<polygon fill="none" stroke="#000000" points="975.7549,-1052.9227 877.7549,-1052.9227 877.7549,-1016.9227 975.7549,-1016.9227 975.7549,-1052.9227"/>
<text text-anchor="middle" x="926.7549" y="-1032.1227" font-family="Courier,monospace" font-size="11.00" fill="#000000">SubsiteState</text>
</g>
<!-- \\Firesphere\\SolrSubsites\\States\\SubsiteState&#45;&gt;\\Firesphere\\SolrSearch\\States\\SiteState -->
<g id="edge30" class="edge">
<title>\\Firesphere\\SolrSubsites\\States\\SubsiteState&#45;&gt;\\Firesphere\\SolrSearch\\States\\SiteState</title>
<path fill="none" stroke="#000000" d="M923.9782,-1053.1561C911.0834,-1135.5483 854.5526,-1472.2202 781.2549,-1544.9227 766.3578,-1559.6988 744.8729,-1567.3577 724.9458,-1571.2702"/>
<polygon fill="none" stroke="#000000" points="724.295,-1567.8304 715.0185,-1572.9487 725.462,-1574.7325 724.295,-1567.8304"/>
</g>
<!-- \\Firesphere\\SolrSubsites\\States\\SubsiteState&#45;&gt;\\Firesphere\\SolrSearch\\Interfaces\\SiteStateInterface -->
<g id="edge31" class="edge">
<title>\\Firesphere\\SolrSubsites\\States\\SubsiteState&#45;&gt;\\Firesphere\\SolrSearch\\Interfaces\\SiteStateInterface</title>
<path fill="none" stroke="#000000" stroke-dasharray="1,5" d="M877.5714,-1033.1192C856.9534,-1029.6642 834.6932,-1021.8497 821.2549,-1004.9227 763.9847,-932.7848 845.8564,-242.5763 781.2549,-176.9227 747.3629,-142.4787 721.033,-171.9943 672.7549,-169.9227"/>
</g>
<!-- \\Firesphere\\SolrPermissions\\Extensions\\DocumentFactoryExtension -->
<g id="node59" class="node">
<title>\\Firesphere\\SolrPermissions\\Extensions\\DocumentFactoryExtension</title>
<polygon fill="none" stroke="#000000" points="1016.2549,-390.9227 837.2549,-390.9227 837.2549,-354.9227 1016.2549,-354.9227 1016.2549,-390.9227"/>
<text text-anchor="middle" x="926.7549" y="-370.1227" font-family="Courier,monospace" font-size="11.00" fill="#000000">DocumentFactoryExtension</text>
</g>
<!-- \\Firesphere\\SolrPermissions\\Extensions\\DocumentFactoryExtension&#45;&gt;\\SilverStripe\\Core\\Extension -->
<g id="edge32" class="edge">
<title>\\Firesphere\\SolrPermissions\\Extensions\\DocumentFactoryExtension&#45;&gt;\\SilverStripe\\Core\\Extension</title>
<path fill="none" stroke="#000000" d="M882.0021,-354.8943C860.5351,-344.0519 836.28,-328.1831 821.2549,-306.9227 773.9576,-239.9973 839.2316,-184.8429 781.2549,-126.9227 746.3154,-92.0173 712.9958,-131.5554 672.7549,-102.9227"/>
</g>
<!-- \\Firesphere\\SolrPermissions\\Extensions\\DataObjectExtension -->
<g id="node60" class="node">
<title>\\Firesphere\\SolrPermissions\\Extensions\\DataObjectExtension</title>
<polygon fill="none" stroke="#000000" points="999.2549,-552.9227 854.2549,-552.9227 854.2549,-516.9227 999.2549,-516.9227 999.2549,-552.9227"/>
<text text-anchor="middle" x="926.7549" y="-532.1227" font-family="Courier,monospace" font-size="11.00" fill="#000000">DataObjectExtension</text>
</g>
<!-- \\Firesphere\\SolrPermissions\\Extensions\\DataObjectExtension&#45;&gt;\\SilverStripe\\ORM\\DataExtension -->
<g id="edge33" class="edge">
<title>\\Firesphere\\SolrPermissions\\Extensions\\DataObjectExtension&#45;&gt;\\SilverStripe\\ORM\\DataExtension</title>
<path fill="none" stroke="#000000" d="M854.1266,-528.5662C841.6284,-524.3292 829.9011,-517.8171 821.2549,-507.9227 720.2653,-392.3526 892.1479,-271.0269 781.2549,-164.9227 729.3928,-115.3002 544.0264,-112.1392 407.7154,-117.1833"/>
<polygon fill="none" stroke="#000000" points="407.4336,-113.6916 397.5769,-117.5769 407.7051,-120.6863 407.4336,-113.6916"/>
</g>
<!-- \\Firesphere\\SolrPermissions\\Extensions\\BaseIndexExtension -->
<g id="node61" class="node">
<title>\\Firesphere\\SolrPermissions\\Extensions\\BaseIndexExtension</title>
<polygon fill="none" stroke="#000000" points="995.7549,-498.9227 857.7549,-498.9227 857.7549,-462.9227 995.7549,-462.9227 995.7549,-498.9227"/>
<text text-anchor="middle" x="926.7549" y="-478.1227" font-family="Courier,monospace" font-size="11.00" fill="#000000">BaseIndexExtension</text>
</g>
<!-- \\Firesphere\\SolrPermissions\\Extensions\\BaseIndexExtension&#45;&gt;\\SilverStripe\\Core\\Extension -->
<g id="edge34" class="edge">
<title>\\Firesphere\\SolrPermissions\\Extensions\\BaseIndexExtension&#45;&gt;\\SilverStripe\\Core\\Extension</title>
<path fill="none" stroke="#000000" d="M857.6681,-475.6818C843.8645,-471.5041 830.7208,-464.7328 821.2549,-453.9227 721.8917,-340.4485 887.3629,-224.1166 781.2549,-116.9227 747.0494,-82.3672 712.3717,-131.1114 672.7549,-102.9227"/>
</g>
<!-- \\Firesphere\\SolrPermissions\\Extensions\\SchemaFactoryExtension -->
<g id="node62" class="node">
<title>\\Firesphere\\SolrPermissions\\Extensions\\SchemaFactoryExtension</title>
<polygon fill="none" stroke="#000000" points="1009.2549,-444.9227 844.2549,-444.9227 844.2549,-408.9227 1009.2549,-408.9227 1009.2549,-444.9227"/>
<text text-anchor="middle" x="926.7549" y="-424.1227" font-family="Courier,monospace" font-size="11.00" fill="#000000">SchemaFactoryExtension</text>
</g>
<!-- \\Firesphere\\SolrPermissions\\Extensions\\SchemaFactoryExtension&#45;&gt;\\SilverStripe\\Core\\Extension -->
<g id="edge35" class="edge">
<title>\\Firesphere\\SolrPermissions\\Extensions\\SchemaFactoryExtension&#45;&gt;\\SilverStripe\\Core\\Extension</title>
<path fill="none" stroke="#000000" d="M844.0068,-416.2901C835.4287,-412.2861 827.5612,-406.9648 821.2549,-399.9227 736.5125,-305.2928 871.6185,-206.2004 781.2549,-116.9227 746.6668,-82.7502 712.3717,-131.1114 672.7549,-102.9227"/>
</g>
</g>
</svg>
