<?xml version="1.0" encoding="UTF-8" standalone="no"?>
<!DOCTYPE svg PUBLIC "-//W3C//DTD SVG 1.1//EN"
 "http://www.w3.org/Graphics/SVG/1.1/DTD/svg11.dtd">
<!-- Generated by graphviz version 2.40.1 (20161225.0304)
 -->
<!-- Title: G Pages: 1 -->
<svg width="1064pt" height="3720pt"
 viewBox="0.00 0.00 1064.25 3720.20" xmlns="http://www.w3.org/2000/svg" xmlns:xlink="http://www.w3.org/1999/xlink">
<g id="graph0" class="graph" transform="scale(1 1) rotate(0) translate(4 3716.2)">
<title>G</title>
<polygon fill="#ffffff" stroke="transparent" points="-4,4 -4,-3716.2 1060.2549,-3716.2 1060.2549,4 -4,4"/>
<g id="clust1" class="cluster">
<title>cluster_Global</title>
<path fill="none" stroke="#c0c0c0" d="M165.1275,-152.0425C165.1275,-152.0425 1036.2549,-152.0425 1036.2549,-152.0425 1042.2549,-152.0425 1048.2549,-158.0425 1048.2549,-164.0425 1048.2549,-164.0425 1048.2549,-3386.0425 1048.2549,-3386.0425 1048.2549,-3392.0425 1042.2549,-3398.0425 1036.2549,-3398.0425 1036.2549,-3398.0425 165.1275,-3398.0425 165.1275,-3398.0425 159.1275,-3398.0425 153.1275,-3392.0425 153.1275,-3386.0425 153.1275,-3386.0425 153.1275,-164.0425 153.1275,-164.0425 153.1275,-158.0425 159.1275,-152.0425 165.1275,-152.0425"/>
<text text-anchor="middle" x="600.6912" y="-3385.2425" font-family="Times,serif" font-size="11.00" fill="#c0c0c0">Global</text>
</g>
<g id="clust2" class="cluster">
<title>cluster_\SilverStripe</title>
<path fill="none" stroke="#c0c0c0" d="M861.2549,-3056.0425C861.2549,-3056.0425 992.2549,-3056.0425 992.2549,-3056.0425 998.2549,-3056.0425 1004.2549,-3062.0425 1004.2549,-3068.0425 1004.2549,-3068.0425 1004.2549,-3358.0425 1004.2549,-3358.0425 1004.2549,-3364.0425 998.2549,-3370.0425 992.2549,-3370.0425 992.2549,-3370.0425 861.2549,-3370.0425 861.2549,-3370.0425 855.2549,-3370.0425 849.2549,-3364.0425 849.2549,-3358.0425 849.2549,-3358.0425 849.2549,-3068.0425 849.2549,-3068.0425 849.2549,-3062.0425 855.2549,-3056.0425 861.2549,-3056.0425"/>
<text text-anchor="middle" x="926.7549" y="-3357.2425" font-family="Times,serif" font-size="11.00" fill="#c0c0c0">SilverStripe</text>
</g>
<g id="clust3" class="cluster">
<title>cluster_\SilverStripe\FullTextSearch</title>
<path fill="none" stroke="#c0c0c0" d="M869.2549,-3064.0425C869.2549,-3064.0425 984.2549,-3064.0425 984.2549,-3064.0425 990.2549,-3064.0425 996.2549,-3070.0425 996.2549,-3076.0425 996.2549,-3076.0425 996.2549,-3330.0425 996.2549,-3330.0425 996.2549,-3336.0425 990.2549,-3342.0425 984.2549,-3342.0425 984.2549,-3342.0425 869.2549,-3342.0425 869.2549,-3342.0425 863.2549,-3342.0425 857.2549,-3336.0425 857.2549,-3330.0425 857.2549,-3330.0425 857.2549,-3076.0425 857.2549,-3076.0425 857.2549,-3070.0425 863.2549,-3064.0425 869.2549,-3064.0425"/>
<text text-anchor="middle" x="926.7549" y="-3329.2425" font-family="Times,serif" font-size="11.00" fill="#c0c0c0">FullTextSearch</text>
</g>
<g id="clust4" class="cluster">
<title>cluster_\SilverStripe\FullTextSearch\Solr</title>
<path fill="none" stroke="#c0c0c0" d="M888.7549,-3188.0425C888.7549,-3188.0425 964.7549,-3188.0425 964.7549,-3188.0425 970.7549,-3188.0425 976.7549,-3194.0425 976.7549,-3200.0425 976.7549,-3200.0425 976.7549,-3302.0425 976.7549,-3302.0425 976.7549,-3308.0425 970.7549,-3314.0425 964.7549,-3314.0425 964.7549,-3314.0425 888.7549,-3314.0425 888.7549,-3314.0425 882.7549,-3314.0425 876.7549,-3308.0425 876.7549,-3302.0425 876.7549,-3302.0425 876.7549,-3200.0425 876.7549,-3200.0425 876.7549,-3194.0425 882.7549,-3188.0425 888.7549,-3188.0425"/>
<text text-anchor="middle" x="926.7549" y="-3301.2425" font-family="Times,serif" font-size="11.00" fill="#c0c0c0">Solr</text>
</g>
<g id="clust5" class="cluster">
<title>cluster_\SilverStripe\FullTextSearch\Search</title>
<path fill="none" stroke="#c0c0c0" d="M877.2549,-3072.0425C877.2549,-3072.0425 976.2549,-3072.0425 976.2549,-3072.0425 982.2549,-3072.0425 988.2549,-3078.0425 988.2549,-3084.0425 988.2549,-3084.0425 988.2549,-3168.0425 988.2549,-3168.0425 988.2549,-3174.0425 982.2549,-3180.0425 976.2549,-3180.0425 976.2549,-3180.0425 877.2549,-3180.0425 877.2549,-3180.0425 871.2549,-3180.0425 865.2549,-3174.0425 865.2549,-3168.0425 865.2549,-3168.0425 865.2549,-3084.0425 865.2549,-3084.0425 865.2549,-3078.0425 871.2549,-3072.0425 877.2549,-3072.0425"/>
<text text-anchor="middle" x="926.7549" y="-3167.2425" font-family="Times,serif" font-size="11.00" fill="#c0c0c0">Search</text>
</g>
<g id="clust6" class="cluster">
<title>cluster_\SilverStripe\FullTextSearch\Search\Queries</title>
<path fill="none" stroke="#c0c0c0" d="M885.2549,-3080.0425C885.2549,-3080.0425 968.2549,-3080.0425 968.2549,-3080.0425 974.2549,-3080.0425 980.2549,-3086.0425 980.2549,-3092.0425 980.2549,-3092.0425 980.2549,-3140.0425 980.2549,-3140.0425 980.2549,-3146.0425 974.2549,-3152.0425 968.2549,-3152.0425 968.2549,-3152.0425 885.2549,-3152.0425 885.2549,-3152.0425 879.2549,-3152.0425 873.2549,-3146.0425 873.2549,-3140.0425 873.2549,-3140.0425 873.2549,-3092.0425 873.2549,-3092.0425 873.2549,-3086.0425 879.2549,-3080.0425 885.2549,-3080.0425"/>
<text text-anchor="middle" x="926.7549" y="-3139.2425" font-family="Times,serif" font-size="11.00" fill="#c0c0c0">Queries</text>
</g>
<g id="clust7" class="cluster">
<title>cluster_\Firesphere</title>
<path fill="none" stroke="#c0c0c0" d="M173.1275,-160.0425C173.1275,-160.0425 1028.2549,-160.0425 1028.2549,-160.0425 1034.2549,-160.0425 1040.2549,-166.0425 1040.2549,-172.0425 1040.2549,-172.0425 1040.2549,-3036.0425 1040.2549,-3036.0425 1040.2549,-3042.0425 1034.2549,-3048.0425 1028.2549,-3048.0425 1028.2549,-3048.0425 173.1275,-3048.0425 173.1275,-3048.0425 167.1275,-3048.0425 161.1275,-3042.0425 161.1275,-3036.0425 161.1275,-3036.0425 161.1275,-172.0425 161.1275,-172.0425 161.1275,-166.0425 167.1275,-160.0425 173.1275,-160.0425"/>
<text text-anchor="middle" x="600.6912" y="-3035.2425" font-family="Times,serif" font-size="11.00" fill="#c0c0c0">Firesphere</text>
</g>
<g id="clust8" class="cluster">
<title>cluster_\Firesphere\SolrCompatibility</title>
<path fill="none" stroke="#c0c0c0" d="M833.2549,-168.0425C833.2549,-168.0425 1020.2549,-168.0425 1020.2549,-168.0425 1026.2549,-168.0425 1032.2549,-174.0425 1032.2549,-180.0425 1032.2549,-180.0425 1032.2549,-318.0425 1032.2549,-318.0425 1032.2549,-324.0425 1026.2549,-330.0425 1020.2549,-330.0425 1020.2549,-330.0425 833.2549,-330.0425 833.2549,-330.0425 827.2549,-330.0425 821.2549,-324.0425 821.2549,-318.0425 821.2549,-318.0425 821.2549,-180.0425 821.2549,-180.0425 821.2549,-174.0425 827.2549,-168.0425 833.2549,-168.0425"/>
<text text-anchor="middle" x="926.7549" y="-317.2425" font-family="Times,serif" font-size="11.00" fill="#c0c0c0">SolrCompatibility</text>
</g>
<g id="clust9" class="cluster">
<title>cluster_\Firesphere\SolrCompatibility\Extensions</title>
<path fill="none" stroke="#c0c0c0" d="M841.2549,-176.0425C841.2549,-176.0425 1012.2549,-176.0425 1012.2549,-176.0425 1018.2549,-176.0425 1024.2549,-182.0425 1024.2549,-188.0425 1024.2549,-188.0425 1024.2549,-290.0425 1024.2549,-290.0425 1024.2549,-296.0425 1018.2549,-302.0425 1012.2549,-302.0425 1012.2549,-302.0425 841.2549,-302.0425 841.2549,-302.0425 835.2549,-302.0425 829.2549,-296.0425 829.2549,-290.0425 829.2549,-290.0425 829.2549,-188.0425 829.2549,-188.0425 829.2549,-182.0425 835.2549,-176.0425 841.2549,-176.0425"/>
<text text-anchor="middle" x="926.7549" y="-289.2425" font-family="Times,serif" font-size="11.00" fill="#c0c0c0">Extensions</text>
</g>
<g id="clust10" class="cluster">
<title>cluster_\Firesphere\SolrSearch</title>
<path fill="none" stroke="#c0c0c0" d="M181.1275,-172.0425C181.1275,-172.0425 769.2549,-172.0425 769.2549,-172.0425 775.2549,-172.0425 781.2549,-178.0425 781.2549,-184.0425 781.2549,-184.0425 781.2549,-3008.0425 781.2549,-3008.0425 781.2549,-3014.0425 775.2549,-3020.0425 769.2549,-3020.0425 769.2549,-3020.0425 181.1275,-3020.0425 181.1275,-3020.0425 175.1275,-3020.0425 169.1275,-3014.0425 169.1275,-3008.0425 169.1275,-3008.0425 169.1275,-184.0425 169.1275,-184.0425 169.1275,-178.0425 175.1275,-172.0425 181.1275,-172.0425"/>
<text text-anchor="middle" x="475.1912" y="-3007.2425" font-family="Times,serif" font-size="11.00" fill="#c0c0c0">SolrSearch</text>
</g>
<g id="clust11" class="cluster">
<title>cluster_\Firesphere\SolrSearch\Indexes</title>
<path fill="none" stroke="#c0c0c0" d="M634.7549,-2920.0425C634.7549,-2920.0425 710.7549,-2920.0425 710.7549,-2920.0425 716.7549,-2920.0425 722.7549,-2926.0425 722.7549,-2932.0425 722.7549,-2932.0425 722.7549,-2980.0425 722.7549,-2980.0425 722.7549,-2986.0425 716.7549,-2992.0425 710.7549,-2992.0425 710.7549,-2992.0425 634.7549,-2992.0425 634.7549,-2992.0425 628.7549,-2992.0425 622.7549,-2986.0425 622.7549,-2980.0425 622.7549,-2980.0425 622.7549,-2932.0425 622.7549,-2932.0425 622.7549,-2926.0425 628.7549,-2920.0425 634.7549,-2920.0425"/>
<text text-anchor="middle" x="672.7549" y="-2979.2425" font-family="Times,serif" font-size="11.00" fill="#c0c0c0">Indexes</text>
</g>
<g id="clust12" class="cluster">
<title>cluster_\Firesphere\SolrSearch\Queries</title>
<path fill="none" stroke="#c0c0c0" d="M638.2549,-2840.0425C638.2549,-2840.0425 707.2549,-2840.0425 707.2549,-2840.0425 713.2549,-2840.0425 719.2549,-2846.0425 719.2549,-2852.0425 719.2549,-2852.0425 719.2549,-2900.0425 719.2549,-2900.0425 719.2549,-2906.0425 713.2549,-2912.0425 707.2549,-2912.0425 707.2549,-2912.0425 638.2549,-2912.0425 638.2549,-2912.0425 632.2549,-2912.0425 626.2549,-2906.0425 626.2549,-2900.0425 626.2549,-2900.0425 626.2549,-2852.0425 626.2549,-2852.0425 626.2549,-2846.0425 632.2549,-2840.0425 638.2549,-2840.0425"/>
<text text-anchor="middle" x="672.7549" y="-2899.2425" font-family="Times,serif" font-size="11.00" fill="#c0c0c0">Queries</text>
</g>
<g id="clust13" class="cluster">
<title>cluster_\Firesphere\SolrSearch\Tasks</title>
<path fill="none" stroke="#c0c0c0" d="M597.7549,-2116.0425C597.7549,-2116.0425 747.7549,-2116.0425 747.7549,-2116.0425 753.7549,-2116.0425 759.7549,-2122.0425 759.7549,-2128.0425 759.7549,-2128.0425 759.7549,-2338.0425 759.7549,-2338.0425 759.7549,-2344.0425 753.7549,-2350.0425 747.7549,-2350.0425 747.7549,-2350.0425 597.7549,-2350.0425 597.7549,-2350.0425 591.7549,-2350.0425 585.7549,-2344.0425 585.7549,-2338.0425 585.7549,-2338.0425 585.7549,-2128.0425 585.7549,-2128.0425 585.7549,-2122.0425 591.7549,-2116.0425 597.7549,-2116.0425"/>
<text text-anchor="middle" x="672.7549" y="-2337.2425" font-family="Times,serif" font-size="11.00" fill="#c0c0c0">Tasks</text>
</g>
<g id="clust14" class="cluster">
<title>cluster_\Firesphere\SolrSearch\Stores</title>
<path fill="none" stroke="#c0c0c0" d="M617.7549,-2358.0425C617.7549,-2358.0425 727.7549,-2358.0425 727.7549,-2358.0425 733.7549,-2358.0425 739.7549,-2364.0425 739.7549,-2370.0425 739.7549,-2370.0425 739.7549,-2472.0425 739.7549,-2472.0425 739.7549,-2478.0425 733.7549,-2484.0425 727.7549,-2484.0425 727.7549,-2484.0425 617.7549,-2484.0425 617.7549,-2484.0425 611.7549,-2484.0425 605.7549,-2478.0425 605.7549,-2472.0425 605.7549,-2472.0425 605.7549,-2370.0425 605.7549,-2370.0425 605.7549,-2364.0425 611.7549,-2358.0425 617.7549,-2358.0425"/>
<text text-anchor="middle" x="672.7549" y="-2471.2425" font-family="Times,serif" font-size="11.00" fill="#c0c0c0">Stores</text>
</g>
<g id="clust15" class="cluster">
<title>cluster_\Firesphere\SolrSearch\Admins</title>
<path fill="none" stroke="#c0c0c0" d="M631.2549,-2760.0425C631.2549,-2760.0425 714.2549,-2760.0425 714.2549,-2760.0425 720.2549,-2760.0425 726.2549,-2766.0425 726.2549,-2772.0425 726.2549,-2772.0425 726.2549,-2820.0425 726.2549,-2820.0425 726.2549,-2826.0425 720.2549,-2832.0425 714.2549,-2832.0425 714.2549,-2832.0425 631.2549,-2832.0425 631.2549,-2832.0425 625.2549,-2832.0425 619.2549,-2826.0425 619.2549,-2820.0425 619.2549,-2820.0425 619.2549,-2772.0425 619.2549,-2772.0425 619.2549,-2766.0425 625.2549,-2760.0425 631.2549,-2760.0425"/>
<text text-anchor="middle" x="672.7549" y="-2819.2425" font-family="Times,serif" font-size="11.00" fill="#c0c0c0">Admins</text>
</g>
<g id="clust16" class="cluster">
<title>cluster_\Firesphere\SolrSearch\Forms</title>
<path fill="none" stroke="#c0c0c0" d="M634.7549,-2680.0425C634.7549,-2680.0425 710.7549,-2680.0425 710.7549,-2680.0425 716.7549,-2680.0425 722.7549,-2686.0425 722.7549,-2692.0425 722.7549,-2692.0425 722.7549,-2740.0425 722.7549,-2740.0425 722.7549,-2746.0425 716.7549,-2752.0425 710.7549,-2752.0425 710.7549,-2752.0425 634.7549,-2752.0425 634.7549,-2752.0425 628.7549,-2752.0425 622.7549,-2746.0425 622.7549,-2740.0425 622.7549,-2740.0425 622.7549,-2692.0425 622.7549,-2692.0425 622.7549,-2686.0425 628.7549,-2680.0425 634.7549,-2680.0425"/>
<text text-anchor="middle" x="672.7549" y="-2739.2425" font-family="Times,serif" font-size="11.00" fill="#c0c0c0">Forms</text>
</g>
<g id="clust17" class="cluster">
<title>cluster_\Firesphere\SolrSearch\Factories</title>
<path fill="none" stroke="#c0c0c0" d="M597.7549,-2492.0425C597.7549,-2492.0425 747.7549,-2492.0425 747.7549,-2492.0425 753.7549,-2492.0425 759.7549,-2498.0425 759.7549,-2504.0425 759.7549,-2504.0425 759.7549,-2660.0425 759.7549,-2660.0425 759.7549,-2666.0425 753.7549,-2672.0425 747.7549,-2672.0425 747.7549,-2672.0425 597.7549,-2672.0425 597.7549,-2672.0425 591.7549,-2672.0425 585.7549,-2666.0425 585.7549,-2660.0425 585.7549,-2660.0425 585.7549,-2504.0425 585.7549,-2504.0425 585.7549,-2498.0425 591.7549,-2492.0425 597.7549,-2492.0425"/>
<text text-anchor="middle" x="672.7549" y="-2659.2425" font-family="Times,serif" font-size="11.00" fill="#c0c0c0">Factories</text>
</g>
<g id="clust18" class="cluster">
<title>cluster_\Firesphere\SolrSearch\Interfaces</title>
<path fill="none" stroke="#c0c0c0" d="M189.1275,-2304.0425C189.1275,-2304.0425 319.1275,-2304.0425 319.1275,-2304.0425 325.1275,-2304.0425 331.1275,-2310.0425 331.1275,-2316.0425 331.1275,-2316.0425 331.1275,-2418.0425 331.1275,-2418.0425 331.1275,-2424.0425 325.1275,-2430.0425 319.1275,-2430.0425 319.1275,-2430.0425 189.1275,-2430.0425 189.1275,-2430.0425 183.1275,-2430.0425 177.1275,-2424.0425 177.1275,-2418.0425 177.1275,-2418.0425 177.1275,-2316.0425 177.1275,-2316.0425 177.1275,-2310.0425 183.1275,-2304.0425 189.1275,-2304.0425"/>
<text text-anchor="middle" x="254.1275" y="-2417.2425" font-family="Times,serif" font-size="11.00" fill="#c0c0c0">Interfaces</text>
</g>
<g id="clust19" class="cluster">
<title>cluster_\Firesphere\SolrSearch\States</title>
<path fill="none" stroke="#c0c0c0" d="M634.7549,-2036.0425C634.7549,-2036.0425 710.7549,-2036.0425 710.7549,-2036.0425 716.7549,-2036.0425 722.7549,-2042.0425 722.7549,-2048.0425 722.7549,-2048.0425 722.7549,-2096.0425 722.7549,-2096.0425 722.7549,-2102.0425 716.7549,-2108.0425 710.7549,-2108.0425 710.7549,-2108.0425 634.7549,-2108.0425 634.7549,-2108.0425 628.7549,-2108.0425 622.7549,-2102.0425 622.7549,-2096.0425 622.7549,-2096.0425 622.7549,-2048.0425 622.7549,-2048.0425 622.7549,-2042.0425 628.7549,-2036.0425 634.7549,-2036.0425"/>
<text text-anchor="middle" x="672.7549" y="-2095.2425" font-family="Times,serif" font-size="11.00" fill="#c0c0c0">States</text>
</g>
<g id="clust20" class="cluster">
<title>cluster_\Firesphere\SolrSearch\Traits</title>
<path fill="none" stroke="#c0c0c0" d="M584.2549,-1146.0425C584.2549,-1146.0425 761.2549,-1146.0425 761.2549,-1146.0425 767.2549,-1146.0425 773.2549,-1152.0425 773.2549,-1158.0425 773.2549,-1158.0425 773.2549,-2016.0425 773.2549,-2016.0425 773.2549,-2022.0425 767.2549,-2028.0425 761.2549,-2028.0425 761.2549,-2028.0425 584.2549,-2028.0425 584.2549,-2028.0425 578.2549,-2028.0425 572.2549,-2022.0425 572.2549,-2016.0425 572.2549,-2016.0425 572.2549,-1158.0425 572.2549,-1158.0425 572.2549,-1152.0425 578.2549,-1146.0425 584.2549,-1146.0425"/>
<text text-anchor="middle" x="672.7549" y="-2015.2425" font-family="Times,serif" font-size="11.00" fill="#c0c0c0">Traits</text>
</g>
<g id="clust21" class="cluster">
<title>cluster_\Firesphere\SolrSearch\Jobs</title>
<path fill="none" stroke="#c0c0c0" d="M600.7549,-958.0425C600.7549,-958.0425 744.7549,-958.0425 744.7549,-958.0425 750.7549,-958.0425 756.7549,-964.0425 756.7549,-970.0425 756.7549,-970.0425 756.7549,-1126.0425 756.7549,-1126.0425 756.7549,-1132.0425 750.7549,-1138.0425 744.7549,-1138.0425 744.7549,-1138.0425 600.7549,-1138.0425 600.7549,-1138.0425 594.7549,-1138.0425 588.7549,-1132.0425 588.7549,-1126.0425 588.7549,-1126.0425 588.7549,-970.0425 588.7549,-970.0425 588.7549,-964.0425 594.7549,-958.0425 600.7549,-958.0425"/>
<text text-anchor="middle" x="672.7549" y="-1125.2425" font-family="Times,serif" font-size="11.00" fill="#c0c0c0">Jobs</text>
</g>
<g id="clust22" class="cluster">
<title>cluster_\Firesphere\SolrSearch\Extensions</title>
<path fill="none" stroke="#c0c0c0" d="M604.2549,-824.0425C604.2549,-824.0425 741.2549,-824.0425 741.2549,-824.0425 747.2549,-824.0425 753.2549,-830.0425 753.2549,-836.0425 753.2549,-836.0425 753.2549,-938.0425 753.2549,-938.0425 753.2549,-944.0425 747.2549,-950.0425 741.2549,-950.0425 741.2549,-950.0425 604.2549,-950.0425 604.2549,-950.0425 598.2549,-950.0425 592.2549,-944.0425 592.2549,-938.0425 592.2549,-938.0425 592.2549,-836.0425 592.2549,-836.0425 592.2549,-830.0425 598.2549,-824.0425 604.2549,-824.0425"/>
<text text-anchor="middle" x="672.7549" y="-937.2425" font-family="Times,serif" font-size="11.00" fill="#c0c0c0">Extensions</text>
</g>
<g id="clust23" class="cluster">
<title>cluster_\Firesphere\SolrSearch\Helpers</title>
<path fill="none" stroke="#c0c0c0" d="M624.7549,-528.0425C624.7549,-528.0425 720.7549,-528.0425 720.7549,-528.0425 726.7549,-528.0425 732.7549,-534.0425 732.7549,-540.0425 732.7549,-540.0425 732.7549,-804.0425 732.7549,-804.0425 732.7549,-810.0425 726.7549,-816.0425 720.7549,-816.0425 720.7549,-816.0425 624.7549,-816.0425 624.7549,-816.0425 618.7549,-816.0425 612.7549,-810.0425 612.7549,-804.0425 612.7549,-804.0425 612.7549,-540.0425 612.7549,-540.0425 612.7549,-534.0425 618.7549,-528.0425 624.7549,-528.0425"/>
<text text-anchor="middle" x="672.7549" y="-803.2425" font-family="Times,serif" font-size="11.00" fill="#c0c0c0">Helpers</text>
</g>
<g id="clust24" class="cluster">
<title>cluster_\Firesphere\SolrSearch\Services</title>
<path fill="none" stroke="#c0c0c0" d="M617.7549,-448.0425C617.7549,-448.0425 727.7549,-448.0425 727.7549,-448.0425 733.7549,-448.0425 739.7549,-454.0425 739.7549,-460.0425 739.7549,-460.0425 739.7549,-508.0425 739.7549,-508.0425 739.7549,-514.0425 733.7549,-520.0425 727.7549,-520.0425 727.7549,-520.0425 617.7549,-520.0425 617.7549,-520.0425 611.7549,-520.0425 605.7549,-514.0425 605.7549,-508.0425 605.7549,-508.0425 605.7549,-460.0425 605.7549,-460.0425 605.7549,-454.0425 611.7549,-448.0425 617.7549,-448.0425"/>
<text text-anchor="middle" x="672.7549" y="-507.2425" font-family="Times,serif" font-size="11.00" fill="#c0c0c0">Services</text>
</g>
<g id="clust25" class="cluster">
<title>cluster_\Firesphere\SolrSearch\Models</title>
<path fill="none" stroke="#c0c0c0" d="M624.7549,-180.0425C624.7549,-180.0425 720.7549,-180.0425 720.7549,-180.0425 726.7549,-180.0425 732.7549,-186.0425 732.7549,-192.0425 732.7549,-192.0425 732.7549,-348.0425 732.7549,-348.0425 732.7549,-354.0425 726.7549,-360.0425 720.7549,-360.0425 720.7549,-360.0425 624.7549,-360.0425 624.7549,-360.0425 618.7549,-360.0425 612.7549,-354.0425 612.7549,-348.0425 612.7549,-348.0425 612.7549,-192.0425 612.7549,-192.0425 612.7549,-186.0425 618.7549,-180.0425 624.7549,-180.0425"/>
<text text-anchor="middle" x="672.7549" y="-347.2425" font-family="Times,serif" font-size="11.00" fill="#c0c0c0">Models</text>
</g>
<g id="clust26" class="cluster">
<title>cluster_\Firesphere\SolrSearch\Results</title>
<path fill="none" stroke="#c0c0c0" d="M627.7549,-368.0425C627.7549,-368.0425 717.7549,-368.0425 717.7549,-368.0425 723.7549,-368.0425 729.7549,-374.0425 729.7549,-380.0425 729.7549,-380.0425 729.7549,-428.0425 729.7549,-428.0425 729.7549,-434.0425 723.7549,-440.0425 717.7549,-440.0425 717.7549,-440.0425 627.7549,-440.0425 627.7549,-440.0425 621.7549,-440.0425 615.7549,-434.0425 615.7549,-428.0425 615.7549,-428.0425 615.7549,-380.0425 615.7549,-380.0425 615.7549,-374.0425 621.7549,-368.0425 627.7549,-368.0425"/>
<text text-anchor="middle" x="672.7549" y="-427.2425" font-family="Times,serif" font-size="11.00" fill="#c0c0c0">Results</text>
</g>
<g id="clust27" class="cluster">
<title>cluster_\Firesphere\SolrFluent</title>
<path fill="none" stroke="#c0c0c0" d="M836.7549,-616.0425C836.7549,-616.0425 1016.7549,-616.0425 1016.7549,-616.0425 1022.7549,-616.0425 1028.7549,-622.0425 1028.7549,-628.0425 1028.7549,-628.0425 1028.7549,-900.0425 1028.7549,-900.0425 1028.7549,-906.0425 1022.7549,-912.0425 1016.7549,-912.0425 1016.7549,-912.0425 836.7549,-912.0425 836.7549,-912.0425 830.7549,-912.0425 824.7549,-906.0425 824.7549,-900.0425 824.7549,-900.0425 824.7549,-628.0425 824.7549,-628.0425 824.7549,-622.0425 830.7549,-616.0425 836.7549,-616.0425"/>
<text text-anchor="middle" x="926.7549" y="-899.2425" font-family="Times,serif" font-size="11.00" fill="#c0c0c0">SolrFluent</text>
</g>
<g id="clust28" class="cluster">
<title>cluster_\Firesphere\SolrFluent\States</title>
<path fill="none" stroke="#c0c0c0" d="M871.7549,-812.0425C871.7549,-812.0425 981.7549,-812.0425 981.7549,-812.0425 987.7549,-812.0425 993.7549,-818.0425 993.7549,-824.0425 993.7549,-824.0425 993.7549,-872.0425 993.7549,-872.0425 993.7549,-878.0425 987.7549,-884.0425 981.7549,-884.0425 981.7549,-884.0425 871.7549,-884.0425 871.7549,-884.0425 865.7549,-884.0425 859.7549,-878.0425 859.7549,-872.0425 859.7549,-872.0425 859.7549,-824.0425 859.7549,-824.0425 859.7549,-818.0425 865.7549,-812.0425 871.7549,-812.0425"/>
<text text-anchor="middle" x="926.7549" y="-871.2425" font-family="Times,serif" font-size="11.00" fill="#c0c0c0">States</text>
</g>
<g id="clust29" class="cluster">
<title>cluster_\Firesphere\SolrFluent\Extensions</title>
<path fill="none" stroke="#c0c0c0" d="M844.7549,-624.0425C844.7549,-624.0425 1008.7549,-624.0425 1008.7549,-624.0425 1014.7549,-624.0425 1020.7549,-630.0425 1020.7549,-636.0425 1020.7549,-636.0425 1020.7549,-792.0425 1020.7549,-792.0425 1020.7549,-798.0425 1014.7549,-804.0425 1008.7549,-804.0425 1008.7549,-804.0425 844.7549,-804.0425 844.7549,-804.0425 838.7549,-804.0425 832.7549,-798.0425 832.7549,-792.0425 832.7549,-792.0425 832.7549,-636.0425 832.7549,-636.0425 832.7549,-630.0425 838.7549,-624.0425 844.7549,-624.0425"/>
<text text-anchor="middle" x="926.7549" y="-791.2425" font-family="Times,serif" font-size="11.00" fill="#c0c0c0">Extensions</text>
</g>
<g id="clust30" class="cluster">
<title>cluster_\Firesphere\SolrSubsites</title>
<path fill="none" stroke="#c0c0c0" d="M857.2549,-920.0425C857.2549,-920.0425 996.2549,-920.0425 996.2549,-920.0425 1002.2549,-920.0425 1008.2549,-926.0425 1008.2549,-932.0425 1008.2549,-932.0425 1008.2549,-1096.0425 1008.2549,-1096.0425 1008.2549,-1102.0425 1002.2549,-1108.0425 996.2549,-1108.0425 996.2549,-1108.0425 857.2549,-1108.0425 857.2549,-1108.0425 851.2549,-1108.0425 845.2549,-1102.0425 845.2549,-1096.0425 845.2549,-1096.0425 845.2549,-932.0425 845.2549,-932.0425 845.2549,-926.0425 851.2549,-920.0425 857.2549,-920.0425"/>
<text text-anchor="middle" x="926.7549" y="-1095.2425" font-family="Times,serif" font-size="11.00" fill="#c0c0c0">SolrSubsites</text>
</g>
<g id="clust31" class="cluster">
<title>cluster_\Firesphere\SolrSubsites\States</title>
<path fill="none" stroke="#c0c0c0" d="M881.7549,-1008.0425C881.7549,-1008.0425 971.7549,-1008.0425 971.7549,-1008.0425 977.7549,-1008.0425 983.7549,-1014.0425 983.7549,-1020.0425 983.7549,-1020.0425 983.7549,-1068.0425 983.7549,-1068.0425 983.7549,-1074.0425 977.7549,-1080.0425 971.7549,-1080.0425 971.7549,-1080.0425 881.7549,-1080.0425 881.7549,-1080.0425 875.7549,-1080.0425 869.7549,-1074.0425 869.7549,-1068.0425 869.7549,-1068.0425 869.7549,-1020.0425 869.7549,-1020.0425 869.7549,-1014.0425 875.7549,-1008.0425 881.7549,-1008.0425"/>
<text text-anchor="middle" x="926.7549" y="-1067.2425" font-family="Times,serif" font-size="11.00" fill="#c0c0c0">States</text>
</g>
<g id="clust32" class="cluster">
<title>cluster_\Firesphere\SolrSubsites\Extensions</title>
<path fill="none" stroke="#c0c0c0" d="M865.2549,-928.0425C865.2549,-928.0425 988.2549,-928.0425 988.2549,-928.0425 994.2549,-928.0425 1000.2549,-934.0425 1000.2549,-940.0425 1000.2549,-940.0425 1000.2549,-988.0425 1000.2549,-988.0425 1000.2549,-994.0425 994.2549,-1000.0425 988.2549,-1000.0425 988.2549,-1000.0425 865.2549,-1000.0425 865.2549,-1000.0425 859.2549,-1000.0425 853.2549,-994.0425 853.2549,-988.0425 853.2549,-988.0425 853.2549,-940.0425 853.2549,-940.0425 853.2549,-934.0425 859.2549,-928.0425 865.2549,-928.0425"/>
<text text-anchor="middle" x="926.7549" y="-987.2425" font-family="Times,serif" font-size="11.00" fill="#c0c0c0">Extensions</text>
</g>
<g id="clust33" class="cluster">
<title>cluster_\Firesphere\SolrPermissions</title>
<path fill="none" stroke="#c0c0c0" d="M833.2549,-338.0425C833.2549,-338.0425 1020.2549,-338.0425 1020.2549,-338.0425 1026.2549,-338.0425 1032.2549,-344.0425 1032.2549,-350.0425 1032.2549,-350.0425 1032.2549,-596.0425 1032.2549,-596.0425 1032.2549,-602.0425 1026.2549,-608.0425 1020.2549,-608.0425 1020.2549,-608.0425 833.2549,-608.0425 833.2549,-608.0425 827.2549,-608.0425 821.2549,-602.0425 821.2549,-596.0425 821.2549,-596.0425 821.2549,-350.0425 821.2549,-350.0425 821.2549,-344.0425 827.2549,-338.0425 833.2549,-338.0425"/>
<text text-anchor="middle" x="926.7549" y="-595.2425" font-family="Times,serif" font-size="11.00" fill="#c0c0c0">SolrPermissions</text>
</g>
<g id="clust34" class="cluster">
<title>cluster_\Firesphere\SolrPermissions\Extensions</title>
<path fill="none" stroke="#c0c0c0" d="M841.2549,-346.0425C841.2549,-346.0425 1012.2549,-346.0425 1012.2549,-346.0425 1018.2549,-346.0425 1024.2549,-352.0425 1024.2549,-358.0425 1024.2549,-358.0425 1024.2549,-568.0425 1024.2549,-568.0425 1024.2549,-574.0425 1018.2549,-580.0425 1012.2549,-580.0425 1012.2549,-580.0425 841.2549,-580.0425 841.2549,-580.0425 835.2549,-580.0425 829.2549,-574.0425 829.2549,-568.0425 829.2549,-568.0425 829.2549,-358.0425 829.2549,-358.0425 829.2549,-352.0425 835.2549,-346.0425 841.2549,-346.0425"/>
<text text-anchor="middle" x="926.7549" y="-567.2425" font-family="Times,serif" font-size="11.00" fill="#c0c0c0">Extensions</text>
</g>
<!-- \\SilverStripe\\FullTextSearch\\Solr\\SolrIndex -->
<g id="node1" class="node">
<title>\\SilverStripe\\FullTextSearch\\Solr\\SolrIndex</title>
<polygon fill="none" stroke="#000000" points="968.7549,-3286.0425 884.7549,-3286.0425 884.7549,-3250.0425 968.7549,-3250.0425 968.7549,-3286.0425"/>
<text text-anchor="start" x="892.7549" y="-3271.2425" font-family="Courier,monospace" font-size="11.00" fill="#000000">«abstract»</text>
<text text-anchor="start" x="896.2549" y="-3259.2425" font-family="Courier,monospace" font-size="11.00" fill="#000000">SolrIndex</text>
</g>
<!-- \\Firesphere\\SolrSearch\\Indexes\\BaseIndex -->
<g id="node6" class="node">
<title>\\Firesphere\\SolrSearch\\Indexes\\BaseIndex</title>
<polygon fill="none" stroke="#000000" points="714.7549,-2964.0425 630.7549,-2964.0425 630.7549,-2928.0425 714.7549,-2928.0425 714.7549,-2964.0425"/>
<text text-anchor="start" x="638.7549" y="-2949.2425" font-family="Courier,monospace" font-size="11.00" fill="#000000">«abstract»</text>
<text text-anchor="start" x="642.2549" y="-2937.2425" font-family="Courier,monospace" font-size="11.00" fill="#000000">BaseIndex</text>
</g>
<!-- \\SilverStripe\\FullTextSearch\\Solr\\SolrIndex&#45;&gt;\\Firesphere\\SolrSearch\\Indexes\\BaseIndex -->
<g id="edge1" class="edge">
<title>\\SilverStripe\\FullTextSearch\\Solr\\SolrIndex&#45;&gt;\\Firesphere\\SolrSearch\\Indexes\\BaseIndex</title>
<path fill="none" stroke="#000000" d="M884.5524,-3265.3996C863.623,-3262.1986 839.0791,-3255.3825 821.2549,-3241.0425 733.145,-3170.1559 692.6572,-3033.4014 678.7104,-2974.3427"/>
<polygon fill="none" stroke="#000000" points="682.0453,-2973.2242 676.4096,-2964.2527 675.2205,-2974.7806 682.0453,-2973.2242"/>
</g>
<!-- \\SilverStripe\\FullTextSearch\\Solr\\Solr -->
<g id="node2" class="node">
<title>\\SilverStripe\\FullTextSearch\\Solr\\Solr</title>
<polygon fill="none" stroke="#000000" points="953.7549,-3232.0425 899.7549,-3232.0425 899.7549,-3196.0425 953.7549,-3196.0425 953.7549,-3232.0425"/>
<text text-anchor="middle" x="926.7549" y="-3211.2425" font-family="Courier,monospace" font-size="11.00" fill="#000000">Solr</text>
</g>
<!-- \\SilverStripe\\FullTextSearch\\Search\\Queries\\SearchQuery -->
<g id="node3" class="node">
<title>\\SilverStripe\\FullTextSearch\\Search\\Queries\\SearchQuery</title>
<polygon fill="none" stroke="#000000" points="972.2549,-3124.0425 881.2549,-3124.0425 881.2549,-3088.0425 972.2549,-3088.0425 972.2549,-3124.0425"/>
<text text-anchor="middle" x="926.7549" y="-3103.2425" font-family="Courier,monospace" font-size="11.00" fill="#000000">SearchQuery</text>
</g>
<!-- \\Firesphere\\SolrSearch\\Queries\\BaseQuery -->
<g id="node7" class="node">
<title>\\Firesphere\\SolrSearch\\Queries\\BaseQuery</title>
<polygon fill="none" stroke="#000000" points="711.2549,-2884.0425 634.2549,-2884.0425 634.2549,-2848.0425 711.2549,-2848.0425 711.2549,-2884.0425"/>
<text text-anchor="middle" x="672.7549" y="-2863.2425" font-family="Courier,monospace" font-size="11.00" fill="#000000">BaseQuery</text>
</g>
<!-- \\SilverStripe\\FullTextSearch\\Search\\Queries\\SearchQuery&#45;&gt;\\Firesphere\\SolrSearch\\Queries\\BaseQuery -->
<g id="edge2" class="edge">
<title>\\SilverStripe\\FullTextSearch\\Search\\Queries\\SearchQuery&#45;&gt;\\Firesphere\\SolrSearch\\Queries\\BaseQuery</title>
<path fill="none" stroke="#000000" d="M917.0044,-3088.0049C896.356,-3051.2567 844.853,-2966.9005 781.2549,-2916.0425 763.4368,-2901.7937 740.8986,-2890.5584 720.9864,-2882.3776"/>
<polygon fill="none" stroke="#000000" points="722.0409,-2879.0309 711.4545,-2878.6071 719.466,-2885.5401 722.0409,-2879.0309"/>
</g>
<!-- \\Firesphere\\SolrCompatibility\\Extensions\\FulltextSearchExtension -->
<g id="node4" class="node">
<title>\\Firesphere\\SolrCompatibility\\Extensions\\FulltextSearchExtension</title>
<polygon fill="none" stroke="#000000" points="1012.7549,-274.0425 840.7549,-274.0425 840.7549,-238.0425 1012.7549,-238.0425 1012.7549,-274.0425"/>
<text text-anchor="middle" x="926.7549" y="-253.2425" font-family="Courier,monospace" font-size="11.00" fill="#000000">FulltextSearchExtension</text>
</g>
<!-- \\SilverStripe\\Core\\Extension -->
<g id="node63" class="node">
<title>\\SilverStripe\\Core\\Extension</title>
<ellipse fill="none" stroke="#000000" cx="254.1275" cy="-18.0425" rx="144.0747" ry="18"/>
<text text-anchor="middle" x="254.1275" y="-14.3425" font-family="Times,serif" font-size="14.00" fill="#c0c0c0">\SilverStripe\Core\Extension</text>
</g>
<!-- \\Firesphere\\SolrCompatibility\\Extensions\\FulltextSearchExtension&#45;&gt;\\SilverStripe\\Core\\Extension -->
<g id="edge3" class="edge">
<title>\\Firesphere\\SolrCompatibility\\Extensions\\FulltextSearchExtension&#45;&gt;\\SilverStripe\\Core\\Extension</title>
<path fill="none" stroke="#000000" d="M840.5088,-242.474C833.4442,-238.9282 826.8743,-234.5182 821.2549,-229.0425 774.6022,-183.5817 828.6481,-132.7308 781.2549,-88.0425 745.3221,-54.1604 716.6848,-86.6106 672.7549,-64.0425"/>
</g>
<!-- \\Firesphere\\SolrCompatibility\\Extensions\\SolrCoreServiceExtension -->
<g id="node5" class="node">
<title>\\Firesphere\\SolrCompatibility\\Extensions\\SolrCoreServiceExtension</title>
<polygon fill="none" stroke="#000000" points="1016.2549,-220.0425 837.2549,-220.0425 837.2549,-184.0425 1016.2549,-184.0425 1016.2549,-220.0425"/>
<text text-anchor="middle" x="926.7549" y="-199.2425" font-family="Courier,monospace" font-size="11.00" fill="#000000">SolrCoreServiceExtension</text>
</g>
<!-- \\Firesphere\\SolrCompatibility\\Extensions\\SolrCoreServiceExtension&#45;&gt;\\SilverStripe\\Core\\Extension -->
<g id="edge4" class="edge">
<title>\\Firesphere\\SolrCompatibility\\Extensions\\SolrCoreServiceExtension&#45;&gt;\\SilverStripe\\Core\\Extension</title>
<path fill="none" stroke="#000000" d="M909.2812,-183.9628C883.6376,-158.532 833.1975,-112.5689 781.2549,-88.0425 736.5953,-66.955 716.6848,-86.6106 672.7549,-64.0425"/>
<path fill="none" stroke="#000000" d="M672.7549,-64.0425C585.4855,-19.2094 474.685,-8.7379 388.9993,-8.9234"/>
<polygon fill="none" stroke="#000000" points="388.9177,-5.4238 378.9425,-8.9941 388.9669,-12.4236 388.9177,-5.4238"/>
</g>
<!-- \\Firesphere\\SolrSearch\\Tasks\\SolrConfigureTask -->
<g id="node8" class="node">
<title>\\Firesphere\\SolrSearch\\Tasks\\SolrConfigureTask</title>
<polygon fill="none" stroke="#000000" points="738.2549,-2214.0425 607.2549,-2214.0425 607.2549,-2178.0425 738.2549,-2178.0425 738.2549,-2214.0425"/>
<text text-anchor="middle" x="672.7549" y="-2193.2425" font-family="Courier,monospace" font-size="11.00" fill="#000000">SolrConfigureTask</text>
</g>
<!-- \\SilverStripe\\Dev\\BuildTask -->
<g id="node64" class="node">
<title>\\SilverStripe\\Dev\\BuildTask</title>
<ellipse fill="none" stroke="#000000" cx="254.1275" cy="-126.0425" rx="139.9756" ry="18"/>
<text text-anchor="middle" x="254.1275" y="-122.3425" font-family="Times,serif" font-size="14.00" fill="#c0c0c0">\SilverStripe\Dev\BuildTask</text>
</g>
<!-- \\Firesphere\\SolrSearch\\Tasks\\SolrConfigureTask&#45;&gt;\\SilverStripe\\Dev\\BuildTask -->
<g id="edge5" class="edge">
<title>\\Firesphere\\SolrSearch\\Tasks\\SolrConfigureTask&#45;&gt;\\SilverStripe\\Dev\\BuildTask</title>
<path fill="none" stroke="#000000" d="M607.1702,-2189.9246C594.009,-2185.7923 581.4258,-2179.2613 572.2549,-2169.0425 288.7339,-1853.125 257.5531,-377.209 254.4485,-154.2785"/>
<polygon fill="none" stroke="#000000" points="257.9455,-154.024 254.3142,-144.0709 250.9461,-154.1161 257.9455,-154.024"/>
</g>
<!-- \\Firesphere\\SolrSearch\\Tasks\\SolrIndexTask -->
<g id="node9" class="node">
<title>\\Firesphere\\SolrSearch\\Tasks\\SolrIndexTask</title>
<polygon fill="none" stroke="#000000" points="724.7549,-2160.0425 620.7549,-2160.0425 620.7549,-2124.0425 724.7549,-2124.0425 724.7549,-2160.0425"/>
<text text-anchor="middle" x="672.7549" y="-2139.2425" font-family="Courier,monospace" font-size="11.00" fill="#000000">SolrIndexTask</text>
</g>
<!-- \\Firesphere\\SolrSearch\\Tasks\\SolrIndexTask&#45;&gt;\\SilverStripe\\Dev\\BuildTask -->
<g id="edge6" class="edge">
<title>\\Firesphere\\SolrSearch\\Tasks\\SolrIndexTask&#45;&gt;\\SilverStripe\\Dev\\BuildTask</title>
<path fill="none" stroke="#000000" d="M620.6969,-2137.6969C602.94,-2133.6078 584.4984,-2126.0084 572.2549,-2112.0425 300.331,-1801.8627 259.3611,-372.6593 254.6598,-154.1099"/>
<polygon fill="none" stroke="#000000" points="258.1587,-154.0128 254.4518,-144.0876 251.1602,-154.1581 258.1587,-154.0128"/>
</g>
<!-- \\Firesphere\\SolrSearch\\Tasks\\ClearErrorsTask -->
<g id="node10" class="node">
<title>\\Firesphere\\SolrSearch\\Tasks\\ClearErrorsTask</title>
<polygon fill="none" stroke="#000000" points="731.7549,-2322.0425 613.7549,-2322.0425 613.7549,-2286.0425 731.7549,-2286.0425 731.7549,-2322.0425"/>
<text text-anchor="middle" x="672.7549" y="-2301.2425" font-family="Courier,monospace" font-size="11.00" fill="#000000">ClearErrorsTask</text>
</g>
<!-- \\Firesphere\\SolrSearch\\Tasks\\ClearErrorsTask&#45;&gt;\\SilverStripe\\Dev\\BuildTask -->
<g id="edge7" class="edge">
<title>\\Firesphere\\SolrSearch\\Tasks\\ClearErrorsTask&#45;&gt;\\SilverStripe\\Dev\\BuildTask</title>
<path fill="none" stroke="#000000" d="M613.6401,-2299.8268C598.181,-2295.8942 582.8886,-2288.9827 572.2549,-2277.0425 422.9701,-2109.4155 276.476,-396.5453 256.4482,-154.4349"/>
<polygon fill="none" stroke="#000000" points="259.9246,-154.0035 255.6148,-144.3249 252.9482,-154.5786 259.9246,-154.0035"/>
</g>
<!-- \\Firesphere\\SolrSearch\\Tasks\\ClearDirtyClassesTask -->
<g id="node11" class="node">
<title>\\Firesphere\\SolrSearch\\Tasks\\ClearDirtyClassesTask</title>
<polygon fill="none" stroke="#000000" points="751.7549,-2268.0425 593.7549,-2268.0425 593.7549,-2232.0425 751.7549,-2232.0425 751.7549,-2268.0425"/>
<text text-anchor="middle" x="672.7549" y="-2247.2425" font-family="Courier,monospace" font-size="11.00" fill="#000000">ClearDirtyClassesTask</text>
</g>
<!-- \\Firesphere\\SolrSearch\\Tasks\\ClearDirtyClassesTask&#45;&gt;\\SilverStripe\\Dev\\BuildTask -->
<g id="edge8" class="edge">
<title>\\Firesphere\\SolrSearch\\Tasks\\ClearDirtyClassesTask&#45;&gt;\\SilverStripe\\Dev\\BuildTask</title>
<path fill="none" stroke="#000000" d="M593.4638,-2238.5771C585.4781,-2234.7051 578.1548,-2229.6425 572.2549,-2223.0425 281.7554,-1898.0709 256.4837,-380.7103 254.3256,-154.3246"/>
<polygon fill="none" stroke="#000000" points="257.8249,-154.2204 254.2371,-144.2516 250.8252,-154.282 257.8249,-154.2204"/>
</g>
<!-- \\Firesphere\\SolrSearch\\Stores\\FileConfigStore -->
<g id="node12" class="node">
<title>\\Firesphere\\SolrSearch\\Stores\\FileConfigStore</title>
<polygon fill="none" stroke="#000000" points="731.7549,-2456.0425 613.7549,-2456.0425 613.7549,-2420.0425 731.7549,-2420.0425 731.7549,-2456.0425"/>
<text text-anchor="middle" x="672.7549" y="-2435.2425" font-family="Courier,monospace" font-size="11.00" fill="#000000">FileConfigStore</text>
</g>
<!-- \\Firesphere\\SolrSearch\\Interfaces\\ConfigStore -->
<g id="node20" class="node">
<title>\\Firesphere\\SolrSearch\\Interfaces\\ConfigStore</title>
<polygon fill="none" stroke="#000000" points="299.6275,-2402.0425 208.6275,-2402.0425 208.6275,-2366.0425 299.6275,-2366.0425 299.6275,-2402.0425"/>
<text text-anchor="middle" x="254.1275" y="-2381.2425" font-family="Courier,monospace" font-size="11.00" fill="#000000">ConfigStore</text>
</g>
<!-- \\Firesphere\\SolrSearch\\Stores\\FileConfigStore&#45;&gt;\\Firesphere\\SolrSearch\\Interfaces\\ConfigStore -->
<g id="edge9" class="edge">
<title>\\Firesphere\\SolrSearch\\Stores\\FileConfigStore&#45;&gt;\\Firesphere\\SolrSearch\\Interfaces\\ConfigStore</title>
<path fill="none" stroke="#000000" stroke-dasharray="1,5" d="M613.6637,-2430.4201C532.8854,-2420.0003 389.0185,-2401.4425 309.9722,-2391.246"/>
<polygon fill="none" stroke="#000000" points="310.0944,-2387.7329 299.7287,-2389.9247 309.1988,-2394.6754 310.0944,-2387.7329"/>
</g>
<!-- \\Firesphere\\SolrSearch\\Stores\\PostConfigStore -->
<g id="node13" class="node">
<title>\\Firesphere\\SolrSearch\\Stores\\PostConfigStore</title>
<polygon fill="none" stroke="#000000" points="731.7549,-2402.0425 613.7549,-2402.0425 613.7549,-2366.0425 731.7549,-2366.0425 731.7549,-2402.0425"/>
<text text-anchor="middle" x="672.7549" y="-2381.2425" font-family="Courier,monospace" font-size="11.00" fill="#000000">PostConfigStore</text>
</g>
<!-- \\Firesphere\\SolrSearch\\Stores\\PostConfigStore&#45;&gt;\\Firesphere\\SolrSearch\\Interfaces\\ConfigStore -->
<g id="edge10" class="edge">
<title>\\Firesphere\\SolrSearch\\Stores\\PostConfigStore&#45;&gt;\\Firesphere\\SolrSearch\\Interfaces\\ConfigStore</title>
<path fill="none" stroke="#000000" stroke-dasharray="1,5" d="M613.6637,-2384.0425C532.8854,-2384.0425 389.0185,-2384.0425 309.9722,-2384.0425"/>
<polygon fill="none" stroke="#000000" points="309.7288,-2380.5426 299.7287,-2384.0425 309.7287,-2387.5426 309.7288,-2380.5426"/>
</g>
<!-- \\Firesphere\\SolrSearch\\Admins\\SearchAdmin -->
<g id="node14" class="node">
<title>\\Firesphere\\SolrSearch\\Admins\\SearchAdmin</title>
<polygon fill="none" stroke="#000000" points="718.2549,-2804.0425 627.2549,-2804.0425 627.2549,-2768.0425 718.2549,-2768.0425 718.2549,-2804.0425"/>
<text text-anchor="middle" x="672.7549" y="-2783.2425" font-family="Courier,monospace" font-size="11.00" fill="#000000">SearchAdmin</text>
</g>
<!-- \\SilverStripe\\Admin\\ModelAdmin -->
<g id="node65" class="node">
<title>\\SilverStripe\\Admin\\ModelAdmin</title>
<ellipse fill="none" stroke="#000000" cx="254.1275" cy="-3694.0425" rx="165.1707" ry="18"/>
<text text-anchor="middle" x="254.1275" y="-3690.3425" font-family="Times,serif" font-size="14.00" fill="#c0c0c0">\SilverStripe\Admin\ModelAdmin</text>
</g>
<!-- \\Firesphere\\SolrSearch\\Admins\\SearchAdmin&#45;&gt;\\SilverStripe\\Admin\\ModelAdmin -->
<g id="edge11" class="edge">
<title>\\Firesphere\\SolrSearch\\Admins\\SearchAdmin&#45;&gt;\\SilverStripe\\Admin\\ModelAdmin</title>
<path fill="none" stroke="#000000" d="M627.0538,-2797.6308C606.8959,-2805.1689 584.9428,-2817.2152 572.2549,-2836.0425 468.7477,-2989.6338 637.3089,-3534.1925 508.2549,-3667.0425 467.1465,-3709.36 400.1788,-3715.0005 345.3071,-3710.6485"/>
<polygon fill="none" stroke="#000000" points="345.4881,-3707.1506 335.2111,-3709.7262 344.8512,-3714.1215 345.4881,-3707.1506"/>
</g>
<!-- \\Firesphere\\SolrSearch\\Forms\\SearchForm -->
<g id="node15" class="node">
<title>\\Firesphere\\SolrSearch\\Forms\\SearchForm</title>
<polygon fill="none" stroke="#000000" points="714.7549,-2724.0425 630.7549,-2724.0425 630.7549,-2688.0425 714.7549,-2688.0425 714.7549,-2724.0425"/>
<text text-anchor="middle" x="672.7549" y="-2703.2425" font-family="Courier,monospace" font-size="11.00" fill="#000000">SearchForm</text>
</g>
<!-- \\SilverStripe\\Forms\\Form -->
<g id="node66" class="node">
<title>\\SilverStripe\\Forms\\Form</title>
<ellipse fill="none" stroke="#000000" cx="254.1275" cy="-3640.0425" rx="129.1772" ry="18"/>
<text text-anchor="middle" x="254.1275" y="-3636.3425" font-family="Times,serif" font-size="14.00" fill="#c0c0c0">\SilverStripe\Forms\Form</text>
</g>
<!-- \\Firesphere\\SolrSearch\\Forms\\SearchForm&#45;&gt;\\SilverStripe\\Forms\\Form -->
<g id="edge12" class="edge">
<title>\\Firesphere\\SolrSearch\\Forms\\SearchForm&#45;&gt;\\SilverStripe\\Forms\\Form</title>
<path fill="none" stroke="#000000" d="M630.6469,-2716.3078C609.5435,-2723.7296 585.682,-2736.0683 572.2549,-2756.0425 465.7121,-2914.5353 641.1641,-3475.9056 508.2549,-3613.0425 465.2171,-3657.4492 393.7116,-3661.5045 337.4953,-3655.9839"/>
<polygon fill="none" stroke="#000000" points="337.8662,-3652.5037 327.5442,-3654.8926 337.103,-3659.462 337.8662,-3652.5037"/>
</g>
<!-- \\Firesphere\\SolrSearch\\Factories\\DocumentFactory -->
<g id="node16" class="node">
<title>\\Firesphere\\SolrSearch\\Factories\\DocumentFactory</title>
<polygon fill="none" stroke="#000000" points="731.7549,-2644.0425 613.7549,-2644.0425 613.7549,-2608.0425 731.7549,-2608.0425 731.7549,-2644.0425"/>
<text text-anchor="middle" x="672.7549" y="-2623.2425" font-family="Courier,monospace" font-size="11.00" fill="#000000">DocumentFactory</text>
</g>
<!-- \\Firesphere\\SolrSearch\\Factories\\SchemaFactory -->
<g id="node17" class="node">
<title>\\Firesphere\\SolrSearch\\Factories\\SchemaFactory</title>
<polygon fill="none" stroke="#000000" points="724.7549,-2590.0425 620.7549,-2590.0425 620.7549,-2554.0425 724.7549,-2554.0425 724.7549,-2590.0425"/>
<text text-anchor="middle" x="672.7549" y="-2569.2425" font-family="Courier,monospace" font-size="11.00" fill="#000000">SchemaFactory</text>
</g>
<!-- \\SilverStripe\\View\\ViewableData -->
<g id="node67" class="node">
<title>\\SilverStripe\\View\\ViewableData</title>
<ellipse fill="none" stroke="#000000" cx="254.1275" cy="-3586.0425" rx="163.2712" ry="18"/>
<text text-anchor="middle" x="254.1275" y="-3582.3425" font-family="Times,serif" font-size="14.00" fill="#c0c0c0">\SilverStripe\View\ViewableData</text>
</g>
<!-- \\Firesphere\\SolrSearch\\Factories\\SchemaFactory&#45;&gt;\\SilverStripe\\View\\ViewableData -->
<g id="edge13" class="edge">
<title>\\Firesphere\\SolrSearch\\Factories\\SchemaFactory&#45;&gt;\\SilverStripe\\View\\ViewableData</title>
<path fill="none" stroke="#000000" d="M620.6241,-2574.0359C602.6387,-2577.4808 584.0634,-2584.6605 572.2549,-2599.0425 436.5794,-2764.2863 656.4409,-3404.9182 508.2549,-3559.0425 467.0754,-3601.8722 399.439,-3607.2812 344.2936,-3602.6996"/>
<polygon fill="none" stroke="#000000" points="344.4379,-3599.1976 334.1513,-3601.7347 343.7748,-3606.1662 344.4379,-3599.1976"/>
</g>
<!-- \\Firesphere\\SolrSearch\\Factories\\QueryComponentFactory -->
<g id="node18" class="node">
<title>\\Firesphere\\SolrSearch\\Factories\\QueryComponentFactory</title>
<polygon fill="none" stroke="#000000" points="751.7549,-2536.0425 593.7549,-2536.0425 593.7549,-2500.0425 751.7549,-2500.0425 751.7549,-2536.0425"/>
<text text-anchor="middle" x="672.7549" y="-2515.2425" font-family="Courier,monospace" font-size="11.00" fill="#000000">QueryComponentFactory</text>
</g>
<!-- \\Firesphere\\SolrSearch\\Interfaces\\SiteStateInterface -->
<g id="node19" class="node">
<title>\\Firesphere\\SolrSearch\\Interfaces\\SiteStateInterface</title>
<polygon fill="none" stroke="#000000" points="323.1275,-2348.0425 185.1275,-2348.0425 185.1275,-2312.0425 323.1275,-2312.0425 323.1275,-2348.0425"/>
<text text-anchor="middle" x="254.1275" y="-2327.2425" font-family="Courier,monospace" font-size="11.00" fill="#000000">SiteStateInterface</text>
</g>
<!-- \\Firesphere\\SolrSearch\\States\\SiteState -->
<g id="node21" class="node">
<title>\\Firesphere\\SolrSearch\\States\\SiteState</title>
<polygon fill="none" stroke="#000000" points="714.7549,-2080.0425 630.7549,-2080.0425 630.7549,-2044.0425 714.7549,-2044.0425 714.7549,-2080.0425"/>
<text text-anchor="start" x="638.7549" y="-2065.2425" font-family="Courier,monospace" font-size="11.00" fill="#000000">«abstract»</text>
<text text-anchor="start" x="642.2549" y="-2053.2425" font-family="Courier,monospace" font-size="11.00" fill="#000000">SiteState</text>
</g>
<!-- \\Firesphere\\SolrSearch\\Traits\\GetterSetterTrait -->
<g id="node22" class="node">
<title>\\Firesphere\\SolrSearch\\Traits\\GetterSetterTrait</title>
<polygon fill="none" stroke="#000000" points="738.2549,-2000.0425 607.2549,-2000.0425 607.2549,-1964.0425 738.2549,-1964.0425 738.2549,-2000.0425"/>
<text text-anchor="middle" x="672.7549" y="-1979.2425" font-family="Courier,monospace" font-size="11.00" fill="#000000">GetterSetterTrait</text>
</g>
<!-- \\Firesphere\\SolrSearch\\Traits\\GetSetSearchResolverTrait -->
<g id="node23" class="node">
<title>\\Firesphere\\SolrSearch\\Traits\\GetSetSearchResolverTrait</title>
<polygon fill="none" stroke="#000000" points="765.2549,-1946.0425 580.2549,-1946.0425 580.2549,-1910.0425 765.2549,-1910.0425 765.2549,-1946.0425"/>
<text text-anchor="middle" x="672.7549" y="-1925.2425" font-family="Courier,monospace" font-size="11.00" fill="#000000">GetSetSearchResolverTrait</text>
</g>
<!-- \\Firesphere\\SolrSearch\\Traits\\GetSetSchemaFactoryTrait -->
<g id="node24" class="node">
<title>\\Firesphere\\SolrSearch\\Traits\\GetSetSchemaFactoryTrait</title>
<polygon fill="none" stroke="#000000" points="762.2549,-1892.0425 583.2549,-1892.0425 583.2549,-1856.0425 762.2549,-1856.0425 762.2549,-1892.0425"/>
<text text-anchor="middle" x="672.7549" y="-1871.2425" font-family="Courier,monospace" font-size="11.00" fill="#000000">GetSetSchemaFactoryTrait</text>
</g>
<!-- \\Firesphere\\SolrSearch\\Traits\\DocumentFactoryTrait -->
<g id="node25" class="node">
<title>\\Firesphere\\SolrSearch\\Traits\\DocumentFactoryTrait</title>
<polygon fill="none" stroke="#000000" points="748.7549,-1838.0425 596.7549,-1838.0425 596.7549,-1802.0425 748.7549,-1802.0425 748.7549,-1838.0425"/>
<text text-anchor="middle" x="672.7549" y="-1817.2425" font-family="Courier,monospace" font-size="11.00" fill="#000000">DocumentFactoryTrait</text>
</g>
<!-- \\Firesphere\\SolrSearch\\Traits\\BaseIndexTrait -->
<g id="node26" class="node">
<title>\\Firesphere\\SolrSearch\\Traits\\BaseIndexTrait</title>
<polygon fill="none" stroke="#000000" points="728.2549,-1784.0425 617.2549,-1784.0425 617.2549,-1748.0425 728.2549,-1748.0425 728.2549,-1784.0425"/>
<text text-anchor="middle" x="672.7549" y="-1763.2425" font-family="Courier,monospace" font-size="11.00" fill="#000000">BaseIndexTrait</text>
</g>
<!-- \\Firesphere\\SolrSearch\\Traits\\SolrIndexTrait -->
<g id="node27" class="node">
<title>\\Firesphere\\SolrSearch\\Traits\\SolrIndexTrait</title>
<polygon fill="none" stroke="#000000" points="728.2549,-1730.0425 617.2549,-1730.0425 617.2549,-1694.0425 728.2549,-1694.0425 728.2549,-1730.0425"/>
<text text-anchor="middle" x="672.7549" y="-1709.2425" font-family="Courier,monospace" font-size="11.00" fill="#000000">SolrIndexTrait</text>
</g>
<!-- \\Firesphere\\SolrSearch\\Traits\\DataResolveTrait -->
<g id="node28" class="node">
<title>\\Firesphere\\SolrSearch\\Traits\\DataResolveTrait</title>
<polygon fill="none" stroke="#000000" points="735.2549,-1676.0425 610.2549,-1676.0425 610.2549,-1640.0425 735.2549,-1640.0425 735.2549,-1676.0425"/>
<text text-anchor="middle" x="672.7549" y="-1655.2425" font-family="Courier,monospace" font-size="11.00" fill="#000000">DataResolveTrait</text>
</g>
<!-- \\Firesphere\\SolrSearch\\Traits\\QueryComponentFacetTrait -->
<g id="node29" class="node">
<title>\\Firesphere\\SolrSearch\\Traits\\QueryComponentFacetTrait</title>
<polygon fill="none" stroke="#000000" points="762.2549,-1622.0425 583.2549,-1622.0425 583.2549,-1586.0425 762.2549,-1586.0425 762.2549,-1622.0425"/>
<text text-anchor="middle" x="672.7549" y="-1601.2425" font-family="Courier,monospace" font-size="11.00" fill="#000000">QueryComponentFacetTrait</text>
</g>
<!-- \\Firesphere\\SolrSearch\\Traits\\QueryComponentFilterTrait -->
<g id="node30" class="node">
<title>\\Firesphere\\SolrSearch\\Traits\\QueryComponentFilterTrait</title>
<polygon fill="none" stroke="#000000" points="765.2549,-1568.0425 580.2549,-1568.0425 580.2549,-1532.0425 765.2549,-1532.0425 765.2549,-1568.0425"/>
<text text-anchor="middle" x="672.7549" y="-1547.2425" font-family="Courier,monospace" font-size="11.00" fill="#000000">QueryComponentFilterTrait</text>
</g>
<!-- \\Firesphere\\SolrSearch\\Traits\\QueryComponentBoostTrait -->
<g id="node31" class="node">
<title>\\Firesphere\\SolrSearch\\Traits\\QueryComponentBoostTrait</title>
<polygon fill="none" stroke="#000000" points="762.2549,-1514.0425 583.2549,-1514.0425 583.2549,-1478.0425 762.2549,-1478.0425 762.2549,-1514.0425"/>
<text text-anchor="middle" x="672.7549" y="-1493.2425" font-family="Courier,monospace" font-size="11.00" fill="#000000">QueryComponentBoostTrait</text>
</g>
<!-- \\Firesphere\\SolrSearch\\Traits\\SearchResultSetTrait -->
<g id="node32" class="node">
<title>\\Firesphere\\SolrSearch\\Traits\\SearchResultSetTrait</title>
<polygon fill="none" stroke="#000000" points="748.7549,-1460.0425 596.7549,-1460.0425 596.7549,-1424.0425 748.7549,-1424.0425 748.7549,-1460.0425"/>
<text text-anchor="middle" x="672.7549" y="-1439.2425" font-family="Courier,monospace" font-size="11.00" fill="#000000">SearchResultSetTrait</text>
</g>
<!-- \\Firesphere\\SolrSearch\\Traits\\SearchResultGetTrait -->
<g id="node33" class="node">
<title>\\Firesphere\\SolrSearch\\Traits\\SearchResultGetTrait</title>
<polygon fill="none" stroke="#000000" points="748.7549,-1406.0425 596.7549,-1406.0425 596.7549,-1370.0425 748.7549,-1370.0425 748.7549,-1406.0425"/>
<text text-anchor="middle" x="672.7549" y="-1385.2425" font-family="Courier,monospace" font-size="11.00" fill="#000000">SearchResultGetTrait</text>
</g>
<!-- \\Firesphere\\SolrSearch\\Traits\\CoreServiceTrait -->
<g id="node34" class="node">
<title>\\Firesphere\\SolrSearch\\Traits\\CoreServiceTrait</title>
<polygon fill="none" stroke="#000000" points="735.2549,-1352.0425 610.2549,-1352.0425 610.2549,-1316.0425 735.2549,-1316.0425 735.2549,-1352.0425"/>
<text text-anchor="middle" x="672.7549" y="-1331.2425" font-family="Courier,monospace" font-size="11.00" fill="#000000">CoreServiceTrait</text>
</g>
<!-- \\Firesphere\\SolrSearch\\Traits\\CoreAdminTrait -->
<g id="node35" class="node">
<title>\\Firesphere\\SolrSearch\\Traits\\CoreAdminTrait</title>
<polygon fill="none" stroke="#000000" points="728.2549,-1298.0425 617.2549,-1298.0425 617.2549,-1262.0425 728.2549,-1262.0425 728.2549,-1298.0425"/>
<text text-anchor="middle" x="672.7549" y="-1277.2425" font-family="Courier,monospace" font-size="11.00" fill="#000000">CoreAdminTrait</text>
</g>
<!-- \\Firesphere\\SolrSearch\\Traits\\LoggerTrait -->
<g id="node36" class="node">
<title>\\Firesphere\\SolrSearch\\Traits\\LoggerTrait</title>
<polygon fill="none" stroke="#000000" points="718.2549,-1244.0425 627.2549,-1244.0425 627.2549,-1208.0425 718.2549,-1208.0425 718.2549,-1244.0425"/>
<text text-anchor="middle" x="672.7549" y="-1223.2425" font-family="Courier,monospace" font-size="11.00" fill="#000000">LoggerTrait</text>
</g>
<!-- \\Firesphere\\SolrSearch\\Traits\\BaseQueryTrait -->
<g id="node37" class="node">
<title>\\Firesphere\\SolrSearch\\Traits\\BaseQueryTrait</title>
<polygon fill="none" stroke="#000000" points="728.2549,-1190.0425 617.2549,-1190.0425 617.2549,-1154.0425 728.2549,-1154.0425 728.2549,-1190.0425"/>
<text text-anchor="middle" x="672.7549" y="-1169.2425" font-family="Courier,monospace" font-size="11.00" fill="#000000">BaseQueryTrait</text>
</g>
<!-- \\Firesphere\\SolrSearch\\Jobs\\SolrConfigureJob -->
<g id="node38" class="node">
<title>\\Firesphere\\SolrSearch\\Jobs\\SolrConfigureJob</title>
<polygon fill="none" stroke="#000000" points="735.2549,-1110.0425 610.2549,-1110.0425 610.2549,-1074.0425 735.2549,-1074.0425 735.2549,-1110.0425"/>
<text text-anchor="middle" x="672.7549" y="-1089.2425" font-family="Courier,monospace" font-size="11.00" fill="#000000">SolrConfigureJob</text>
</g>
<!-- \\Symbiote\\QueuedJobs\\Services\\AbstractQueuedJob -->
<g id="node68" class="node">
<title>\\Symbiote\\QueuedJobs\\Services\\AbstractQueuedJob</title>
<ellipse fill="none" stroke="#000000" cx="254.1275" cy="-3532.0425" rx="254.255" ry="18"/>
<text text-anchor="middle" x="254.1275" y="-3528.3425" font-family="Times,serif" font-size="14.00" fill="#c0c0c0">\Symbiote\QueuedJobs\Services\AbstractQueuedJob</text>
</g>
<!-- \\Firesphere\\SolrSearch\\Jobs\\SolrConfigureJob&#45;&gt;\\Symbiote\\QueuedJobs\\Services\\AbstractQueuedJob -->
<g id="edge14" class="edge">
<title>\\Firesphere\\SolrSearch\\Jobs\\SolrConfigureJob&#45;&gt;\\Symbiote\\QueuedJobs\\Services\\AbstractQueuedJob</title>
<path fill="none" stroke="#000000" d="M610.8515,-1110.0872C595.7394,-1117.5179 581.3247,-1127.8333 572.2549,-1142.0425 501.5964,-1252.7397 597.3879,-3408.5966 508.2549,-3505.0425 469.6393,-3546.8262 405.9446,-3553.5242 351.9855,-3549.8024"/>
<polygon fill="none" stroke="#000000" points="351.9354,-3546.2867 341.6833,-3548.9595 351.3645,-3553.2634 351.9354,-3546.2867"/>
</g>
<!-- \\Firesphere\\SolrSearch\\Jobs\\ClearDirtyClassesJob -->
<g id="node39" class="node">
<title>\\Firesphere\\SolrSearch\\Jobs\\ClearDirtyClassesJob</title>
<polygon fill="none" stroke="#000000" points="748.7549,-1056.0425 596.7549,-1056.0425 596.7549,-1020.0425 748.7549,-1020.0425 748.7549,-1056.0425"/>
<text text-anchor="middle" x="672.7549" y="-1035.2425" font-family="Courier,monospace" font-size="11.00" fill="#000000">ClearDirtyClassesJob</text>
</g>
<!-- \\Firesphere\\SolrSearch\\Jobs\\ClearDirtyClassesJob&#45;&gt;\\Symbiote\\QueuedJobs\\Services\\AbstractQueuedJob -->
<g id="edge15" class="edge">
<title>\\Firesphere\\SolrSearch\\Jobs\\ClearDirtyClassesJob&#45;&gt;\\Symbiote\\QueuedJobs\\Services\\AbstractQueuedJob</title>
<path fill="none" stroke="#000000" d="M596.5361,-1046.959C587.1452,-1051.1278 578.6278,-1056.9533 572.2549,-1065.0425 488.3372,-1171.559 600.2477,-3405.4168 508.2549,-3505.0425 469.577,-3546.9296 405.6975,-3553.5684 351.6624,-3549.7913"/>
<polygon fill="none" stroke="#000000" points="351.9491,-3546.3032 341.6957,-3548.971 351.3748,-3553.2796 351.9491,-3546.3032"/>
</g>
<!-- \\Firesphere\\SolrSearch\\Jobs\\SolrIndexJob -->
<g id="node40" class="node">
<title>\\Firesphere\\SolrSearch\\Jobs\\SolrIndexJob</title>
<polygon fill="none" stroke="#000000" points="721.7549,-1002.0425 623.7549,-1002.0425 623.7549,-966.0425 721.7549,-966.0425 721.7549,-1002.0425"/>
<text text-anchor="middle" x="672.7549" y="-981.2425" font-family="Courier,monospace" font-size="11.00" fill="#000000">SolrIndexJob</text>
</g>
<!-- \\Firesphere\\SolrSearch\\Jobs\\SolrIndexJob&#45;&gt;\\Symbiote\\QueuedJobs\\Services\\AbstractQueuedJob -->
<g id="edge16" class="edge">
<title>\\Firesphere\\SolrSearch\\Jobs\\SolrIndexJob&#45;&gt;\\Symbiote\\QueuedJobs\\Services\\AbstractQueuedJob</title>
<path fill="none" stroke="#000000" d="M623.7104,-985.1783C604.6492,-988.313 584.4932,-995.4993 572.2549,-1011.0425 486.5122,-1119.9391 602.2533,-3403.1868 508.2549,-3505.0425 469.518,-3547.0173 405.4753,-3553.6035 351.3744,-3549.7786"/>
<polygon fill="none" stroke="#000000" points="351.6521,-3546.2897 341.3966,-3548.9495 351.0724,-3553.2657 351.6521,-3546.2897"/>
</g>
<!-- \\Firesphere\\SolrSearch\\Extensions\\DataObjectExtension -->
<g id="node41" class="node">
<title>\\Firesphere\\SolrSearch\\Extensions\\DataObjectExtension</title>
<polygon fill="none" stroke="#000000" points="745.2549,-922.0425 600.2549,-922.0425 600.2549,-886.0425 745.2549,-886.0425 745.2549,-922.0425"/>
<text text-anchor="middle" x="672.7549" y="-901.2425" font-family="Courier,monospace" font-size="11.00" fill="#000000">DataObjectExtension</text>
</g>
<!-- \\SilverStripe\\ORM\\DataExtension -->
<g id="node69" class="node">
<title>\\SilverStripe\\ORM\\DataExtension</title>
<ellipse fill="none" stroke="#000000" cx="254.1275" cy="-72.0425" rx="167.8704" ry="18"/>
<text text-anchor="middle" x="254.1275" y="-68.3425" font-family="Times,serif" font-size="14.00" fill="#c0c0c0">\SilverStripe\ORM\DataExtension</text>
</g>
<!-- \\Firesphere\\SolrSearch\\Extensions\\DataObjectExtension&#45;&gt;\\SilverStripe\\ORM\\DataExtension -->
<g id="edge17" class="edge">
<title>\\Firesphere\\SolrSearch\\Extensions\\DataObjectExtension&#45;&gt;\\SilverStripe\\ORM\\DataExtension</title>
<path fill="none" stroke="#000000" d="M600.2031,-896.1461C589.4899,-891.9528 579.6034,-885.8523 572.2549,-877.0425 461.1378,-743.829 629.4522,-223.1556 508.2549,-99.0425 467.2552,-57.0563 400.7833,-51.2485 346.1054,-55.4427"/>
<polygon fill="none" stroke="#000000" points="345.6934,-51.9654 336.0419,-56.3358 346.3122,-58.938 345.6934,-51.9654"/>
</g>
<!-- \\Firesphere\\SolrSearch\\Extensions\\GridFieldExtension -->
<g id="node42" class="node">
<title>\\Firesphere\\SolrSearch\\Extensions\\GridFieldExtension</title>
<polygon fill="none" stroke="#000000" points="741.7549,-868.0425 603.7549,-868.0425 603.7549,-832.0425 741.7549,-832.0425 741.7549,-868.0425"/>
<text text-anchor="middle" x="672.7549" y="-847.2425" font-family="Courier,monospace" font-size="11.00" fill="#000000">GridFieldExtension</text>
</g>
<!-- \\Firesphere\\SolrSearch\\Extensions\\GridFieldExtension&#45;&gt;\\SilverStripe\\Core\\Extension -->
<g id="edge18" class="edge">
<title>\\Firesphere\\SolrSearch\\Extensions\\GridFieldExtension&#45;&gt;\\SilverStripe\\Core\\Extension</title>
<path fill="none" stroke="#000000" d="M603.6617,-841.3183C591.5972,-836.7653 580.3423,-830.0117 572.2549,-820.0425 463.3858,-685.8401 629.0075,-168.6611 508.2549,-45.0425 466.154,-1.9423 397.2104,3.0294 341.7487,-1.8038"/>
<polygon fill="none" stroke="#000000" points="341.1653,1.6556 331.5592,-2.8134 341.8556,-5.3103 341.1653,1.6556"/>
</g>
<!-- \\Firesphere\\SolrSearch\\Helpers\\Synonyms -->
<g id="node43" class="node">
<title>\\Firesphere\\SolrSearch\\Helpers\\Synonyms</title>
<polygon fill="none" stroke="#000000" points="708.2549,-788.0425 637.2549,-788.0425 637.2549,-752.0425 708.2549,-752.0425 708.2549,-788.0425"/>
<text text-anchor="middle" x="672.7549" y="-767.2425" font-family="Courier,monospace" font-size="11.00" fill="#000000">Synonyms</text>
</g>
<!-- \\Firesphere\\SolrSearch\\Helpers\\SolrLogger -->
<g id="node44" class="node">
<title>\\Firesphere\\SolrSearch\\Helpers\\SolrLogger</title>
<polygon fill="none" stroke="#000000" points="714.7549,-734.0425 630.7549,-734.0425 630.7549,-698.0425 714.7549,-698.0425 714.7549,-734.0425"/>
<text text-anchor="middle" x="672.7549" y="-713.2425" font-family="Courier,monospace" font-size="11.00" fill="#000000">SolrLogger</text>
</g>
<!-- \\Firesphere\\SolrSearch\\Helpers\\Statics -->
<g id="node45" class="node">
<title>\\Firesphere\\SolrSearch\\Helpers\\Statics</title>
<polygon fill="none" stroke="#000000" points="704.7549,-680.0425 640.7549,-680.0425 640.7549,-644.0425 704.7549,-644.0425 704.7549,-680.0425"/>
<text text-anchor="middle" x="672.7549" y="-659.2425" font-family="Courier,monospace" font-size="11.00" fill="#000000">Statics</text>
</g>
<!-- \\Firesphere\\SolrSearch\\Helpers\\FieldResolver -->
<g id="node46" class="node">
<title>\\Firesphere\\SolrSearch\\Helpers\\FieldResolver</title>
<polygon fill="none" stroke="#000000" points="724.7549,-626.0425 620.7549,-626.0425 620.7549,-590.0425 724.7549,-590.0425 724.7549,-626.0425"/>
<text text-anchor="middle" x="672.7549" y="-605.2425" font-family="Courier,monospace" font-size="11.00" fill="#000000">FieldResolver</text>
</g>
<!-- \\Firesphere\\SolrSearch\\Helpers\\DataResolver -->
<g id="node47" class="node">
<title>\\Firesphere\\SolrSearch\\Helpers\\DataResolver</title>
<polygon fill="none" stroke="#000000" points="721.7549,-572.0425 623.7549,-572.0425 623.7549,-536.0425 721.7549,-536.0425 721.7549,-572.0425"/>
<text text-anchor="middle" x="672.7549" y="-551.2425" font-family="Courier,monospace" font-size="11.00" fill="#000000">DataResolver</text>
</g>
<!-- \\Firesphere\\SolrSearch\\Services\\SolrCoreService -->
<g id="node48" class="node">
<title>\\Firesphere\\SolrSearch\\Services\\SolrCoreService</title>
<polygon fill="none" stroke="#000000" points="731.7549,-492.0425 613.7549,-492.0425 613.7549,-456.0425 731.7549,-456.0425 731.7549,-492.0425"/>
<text text-anchor="middle" x="672.7549" y="-471.2425" font-family="Courier,monospace" font-size="11.00" fill="#000000">SolrCoreService</text>
</g>
<!-- \\Firesphere\\SolrSearch\\Models\\DirtyClass -->
<g id="node49" class="node">
<title>\\Firesphere\\SolrSearch\\Models\\DirtyClass</title>
<polygon fill="none" stroke="#000000" points="714.7549,-278.0425 630.7549,-278.0425 630.7549,-242.0425 714.7549,-242.0425 714.7549,-278.0425"/>
<text text-anchor="middle" x="672.7549" y="-257.2425" font-family="Courier,monospace" font-size="11.00" fill="#000000">DirtyClass</text>
</g>
<!-- \\SilverStripe\\ORM\\DataObject -->
<g id="node70" class="node">
<title>\\SilverStripe\\ORM\\DataObject</title>
<ellipse fill="none" stroke="#000000" cx="254.1275" cy="-3478.0425" rx="152.9733" ry="18"/>
<text text-anchor="middle" x="254.1275" y="-3474.3425" font-family="Times,serif" font-size="14.00" fill="#c0c0c0">\SilverStripe\ORM\DataObject</text>
</g>
<!-- \\Firesphere\\SolrSearch\\Models\\DirtyClass&#45;&gt;\\SilverStripe\\ORM\\DataObject -->
<g id="edge19" class="edge">
<title>\\Firesphere\\SolrSearch\\Models\\DirtyClass&#45;&gt;\\SilverStripe\\ORM\\DataObject</title>
<path fill="none" stroke="#000000" d="M630.6552,-260.1653C609.6902,-262.6294 585.9546,-269.5458 572.2549,-287.0425 463.867,-425.4712 627.1393,-3321.5166 508.2549,-3451.0425 466.7926,-3496.2161 396.0343,-3500.4845 339.6949,-3494.8477"/>
<polygon fill="none" stroke="#000000" points="340.0391,-3491.3645 329.7122,-3493.732 339.2615,-3498.3212 340.0391,-3491.3645"/>
</g>
<!-- \\Firesphere\\SolrSearch\\Models\\SolrLog -->
<g id="node50" class="node">
<title>\\Firesphere\\SolrSearch\\Models\\SolrLog</title>
<polygon fill="none" stroke="#000000" points="704.7549,-224.0425 640.7549,-224.0425 640.7549,-188.0425 704.7549,-188.0425 704.7549,-224.0425"/>
<text text-anchor="middle" x="672.7549" y="-203.2425" font-family="Courier,monospace" font-size="11.00" fill="#000000">SolrLog</text>
</g>
<!-- \\Firesphere\\SolrSearch\\Models\\SolrLog&#45;&gt;\\SilverStripe\\ORM\\DataObject -->
<g id="edge20" class="edge">
<title>\\Firesphere\\SolrSearch\\Models\\SolrLog&#45;&gt;\\SilverStripe\\ORM\\DataObject</title>
<path fill="none" stroke="#000000" d="M640.6052,-205.2886C617.6713,-206.6575 588.1787,-212.6981 572.2549,-233.0425 462.0417,-373.8515 629.1452,-3319.2863 508.2549,-3451.0425 466.8002,-3496.2231 396.0414,-3500.4909 339.6997,-3494.8522"/>
<polygon fill="none" stroke="#000000" points="340.0436,-3491.3689 329.7166,-3493.7361 339.2658,-3498.3256 340.0436,-3491.3689"/>
</g>
<!-- \\SilverStripe\\Security\\PermissionProvider -->
<g id="node71" class="node">
<title>\\SilverStripe\\Security\\PermissionProvider</title>
<ellipse fill="none" stroke="#000000" cx="254.1275" cy="-3424.0425" rx="206.0634" ry="18"/>
<text text-anchor="middle" x="254.1275" y="-3420.3425" font-family="Times,serif" font-size="14.00" fill="#c0c0c0">\SilverStripe\Security\PermissionProvider</text>
</g>
<!-- \\Firesphere\\SolrSearch\\Models\\SolrLog&#45;&gt;\\SilverStripe\\Security\\PermissionProvider -->
<g id="edge21" class="edge">
<title>\\Firesphere\\SolrSearch\\Models\\SolrLog&#45;&gt;\\SilverStripe\\Security\\PermissionProvider</title>
<path fill="none" stroke="#000000" stroke-dasharray="1,5" d="M640.6597,-205.3315C617.7537,-206.7222 588.272,-212.7714 572.2549,-233.0425 496.4144,-329.0254 525.3457,-2312.9128 508.2549,-2434.0425 453.3265,-2823.344 303.1212,-3280.3456 263.7041,-3396.2523"/>
<polygon fill="none" stroke="#000000" points="260.362,-3395.209 260.4435,-3405.8036 266.9866,-3397.4706 260.362,-3395.209"/>
</g>
<!-- \\Firesphere\\SolrSearch\\Models\\SearchSynonym -->
<g id="node51" class="node">
<title>\\Firesphere\\SolrSearch\\Models\\SearchSynonym</title>
<polygon fill="none" stroke="#000000" points="724.7549,-332.0425 620.7549,-332.0425 620.7549,-296.0425 724.7549,-296.0425 724.7549,-332.0425"/>
<text text-anchor="middle" x="672.7549" y="-311.2425" font-family="Courier,monospace" font-size="11.00" fill="#000000">SearchSynonym</text>
</g>
<!-- \\Firesphere\\SolrSearch\\Models\\SearchSynonym&#45;&gt;\\SilverStripe\\ORM\\DataObject -->
<g id="edge22" class="edge">
<title>\\Firesphere\\SolrSearch\\Models\\SearchSynonym&#45;&gt;\\SilverStripe\\ORM\\DataObject</title>
<path fill="none" stroke="#000000" d="M620.5407,-327.6691C602.085,-335.2425 583.2097,-346.7594 572.2549,-364.0425 480.4208,-508.9265 624.2792,-3324.6967 508.2549,-3451.0425 466.7812,-3496.2056 396.0238,-3500.4748 339.6876,-3494.8411"/>
<polygon fill="none" stroke="#000000" points="340.0323,-3491.3579 329.7055,-3493.7259 339.2551,-3498.3146 340.0323,-3491.3579"/>
</g>
<!-- \\Firesphere\\SolrSearch\\Results\\SearchResult -->
<g id="node52" class="node">
<title>\\Firesphere\\SolrSearch\\Results\\SearchResult</title>
<polygon fill="none" stroke="#000000" points="721.7549,-412.0425 623.7549,-412.0425 623.7549,-376.0425 721.7549,-376.0425 721.7549,-412.0425"/>
<text text-anchor="middle" x="672.7549" y="-391.2425" font-family="Courier,monospace" font-size="11.00" fill="#000000">SearchResult</text>
</g>
<!-- \\Firesphere\\SolrSearch\\Results\\SearchResult&#45;&gt;\\SilverStripe\\View\\ViewableData -->
<g id="edge23" class="edge">
<title>\\Firesphere\\SolrSearch\\Results\\SearchResult&#45;&gt;\\SilverStripe\\View\\ViewableData</title>
<path fill="none" stroke="#000000" d="M623.6973,-406.4081C604.2661,-413.9439 583.834,-425.7708 572.2549,-444.0425 479.6018,-590.2487 625.3193,-3431.5403 508.2549,-3559.0425 467.1392,-3603.8241 397.233,-3608.4026 341.1355,-3602.9856"/>
<polygon fill="none" stroke="#000000" points="341.5083,-3599.5056 331.1895,-3601.9083 340.7545,-3606.4649 341.5083,-3599.5056"/>
</g>
<!-- \\Firesphere\\SolrFluent\\States\\FluentSiteState -->
<g id="node53" class="node">
<title>\\Firesphere\\SolrFluent\\States\\FluentSiteState</title>
<polygon fill="none" stroke="#000000" points="985.7549,-856.0425 867.7549,-856.0425 867.7549,-820.0425 985.7549,-820.0425 985.7549,-856.0425"/>
<text text-anchor="middle" x="926.7549" y="-835.2425" font-family="Courier,monospace" font-size="11.00" fill="#000000">FluentSiteState</text>
</g>
<!-- \\Firesphere\\SolrFluent\\States\\FluentSiteState&#45;&gt;\\Firesphere\\SolrSearch\\Interfaces\\SiteStateInterface -->
<g id="edge25" class="edge">
<title>\\Firesphere\\SolrFluent\\States\\FluentSiteState&#45;&gt;\\Firesphere\\SolrSearch\\Interfaces\\SiteStateInterface</title>
<path fill="none" stroke="#000000" stroke-dasharray="1,5" d="M867.5291,-834.0813C850.0639,-829.8883 832.6083,-822.126 821.2549,-808.0425 732.9344,-698.4836 880.7021,-275.6111 781.2549,-176.0425 747.1066,-141.8525 720.9778,-165.9412 672.7549,-169.0425"/>
<path fill="none" stroke="#000000" stroke-dasharray="1,5" d="M672.7549,-169.0425C628.0723,-171.916 605.1121,-145.6254 572.2549,-176.0425 407.225,-328.8162 274.1171,-2058.8007 256.1839,-2301.7598"/>
<polygon fill="none" stroke="#000000" points="252.6814,-2301.6677 255.439,-2311.8973 259.6625,-2302.1807 252.6814,-2301.6677"/>
</g>
<!-- \\Firesphere\\SolrFluent\\States\\FluentSiteState&#45;&gt;\\Firesphere\\SolrSearch\\States\\SiteState -->
<g id="edge24" class="edge">
<title>\\Firesphere\\SolrFluent\\States\\FluentSiteState&#45;&gt;\\Firesphere\\SolrSearch\\States\\SiteState</title>
<path fill="none" stroke="#000000" d="M891.5134,-856.1418C867.022,-870.8232 836.1962,-893.9973 821.2549,-924.0425 766.401,-1034.3472 857.616,-1935.3725 781.2549,-2032.0425 767.8251,-2049.044 745.68,-2056.9465 724.8862,-2060.4423"/>
<polygon fill="none" stroke="#000000" points="724.261,-2056.9953 714.8311,-2061.825 725.2147,-2063.93 724.261,-2056.9953"/>
</g>
<!-- \\Firesphere\\SolrFluent\\Extensions\\FluentIndexExtension -->
<g id="node54" class="node">
<title>\\Firesphere\\SolrFluent\\Extensions\\FluentIndexExtension</title>
<polygon fill="none" stroke="#000000" points="1002.7549,-668.0425 850.7549,-668.0425 850.7549,-632.0425 1002.7549,-632.0425 1002.7549,-668.0425"/>
<text text-anchor="middle" x="926.7549" y="-647.2425" font-family="Courier,monospace" font-size="11.00" fill="#000000">FluentIndexExtension</text>
</g>
<!-- \\Firesphere\\SolrFluent\\Extensions\\FluentIndexExtension&#45;&gt;\\SilverStripe\\Core\\Extension -->
<g id="edge26" class="edge">
<title>\\Firesphere\\SolrFluent\\Extensions\\FluentIndexExtension&#45;&gt;\\SilverStripe\\Core\\Extension</title>
<path fill="none" stroke="#000000" d="M879.2438,-631.9554C857.9161,-621.3153 834.5963,-605.6396 821.2549,-584.0425 771.9816,-504.2786 843.3593,-234.2789 781.2549,-164.0425 748.54,-127.0438 709.4057,-173.1466 672.7549,-140.0425"/>
<path fill="none" stroke="#000000" d="M672.7549,-140.0425C657.0915,-125.8948 528.3246,-51.5773 508.2549,-45.0425 475.4252,-34.3528 439.0725,-27.6671 404.3721,-23.5389"/>
<polygon fill="none" stroke="#000000" points="404.4777,-20.0288 394.1493,-22.3898 403.6957,-26.985 404.4777,-20.0288"/>
</g>
<!-- \\Firesphere\\SolrFluent\\Extensions\\FluentDocumentExtension -->
<g id="node55" class="node">
<title>\\Firesphere\\SolrFluent\\Extensions\\FluentDocumentExtension</title>
<polygon fill="none" stroke="#000000" points="1012.7549,-776.0425 840.7549,-776.0425 840.7549,-740.0425 1012.7549,-740.0425 1012.7549,-776.0425"/>
<text text-anchor="middle" x="926.7549" y="-755.2425" font-family="Courier,monospace" font-size="11.00" fill="#000000">FluentDocumentExtension</text>
</g>
<!-- \\Firesphere\\SolrFluent\\Extensions\\FluentDocumentExtension&#45;&gt;\\SilverStripe\\Core\\Extension -->
<g id="edge27" class="edge">
<title>\\Firesphere\\SolrFluent\\Extensions\\FluentDocumentExtension&#45;&gt;\\SilverStripe\\Core\\Extension</title>
<path fill="none" stroke="#000000" d="M840.747,-746.4344C833.3488,-742.5325 826.6449,-737.5025 821.2549,-731.0425 740.3328,-634.0547 863.7592,-259.6879 781.2549,-164.0425 748.9961,-126.6455 709.4057,-173.1466 672.7549,-140.0425"/>
</g>
<!-- \\Firesphere\\SolrFluent\\Extensions\\FluentSchemaExtension -->
<g id="node56" class="node">
<title>\\Firesphere\\SolrFluent\\Extensions\\FluentSchemaExtension</title>
<polygon fill="none" stroke="#000000" points="1005.7549,-722.0425 847.7549,-722.0425 847.7549,-686.0425 1005.7549,-686.0425 1005.7549,-722.0425"/>
<text text-anchor="middle" x="926.7549" y="-701.2425" font-family="Courier,monospace" font-size="11.00" fill="#000000">FluentSchemaExtension</text>
</g>
<!-- \\Firesphere\\SolrFluent\\Extensions\\FluentSchemaExtension&#45;&gt;\\SilverStripe\\Core\\Extension -->
<g id="edge28" class="edge">
<title>\\Firesphere\\SolrFluent\\Extensions\\FluentSchemaExtension&#45;&gt;\\SilverStripe\\Core\\Extension</title>
<path fill="none" stroke="#000000" d="M847.7103,-695.6359C837.5852,-691.4126 828.311,-685.4363 821.2549,-677.0425 747.6758,-589.5146 856.2618,-250.3499 781.2549,-164.0425 748.8582,-126.7649 709.4057,-173.1466 672.7549,-140.0425"/>
</g>
<!-- \\Firesphere\\SolrSubsites\\States\\SubsiteState -->
<g id="node57" class="node">
<title>\\Firesphere\\SolrSubsites\\States\\SubsiteState</title>
<polygon fill="none" stroke="#000000" points="975.7549,-1052.0425 877.7549,-1052.0425 877.7549,-1016.0425 975.7549,-1016.0425 975.7549,-1052.0425"/>
<text text-anchor="middle" x="926.7549" y="-1031.2425" font-family="Courier,monospace" font-size="11.00" fill="#000000">SubsiteState</text>
</g>
<!-- \\Firesphere\\SolrSubsites\\States\\SubsiteState&#45;&gt;\\Firesphere\\SolrSearch\\Interfaces\\SiteStateInterface -->
<g id="edge30" class="edge">
<title>\\Firesphere\\SolrSubsites\\States\\SubsiteState&#45;&gt;\\Firesphere\\SolrSearch\\Interfaces\\SiteStateInterface</title>
<path fill="none" stroke="#000000" stroke-dasharray="1,5" d="M877.5714,-1032.239C856.9534,-1028.784 834.6932,-1020.9695 821.2549,-1004.0425 763.9847,-931.9046 845.8564,-241.6961 781.2549,-176.0425 747.3629,-141.5984 720.9778,-165.9412 672.7549,-169.0425"/>
</g>
<!-- \\Firesphere\\SolrSubsites\\States\\SubsiteState&#45;&gt;\\Firesphere\\SolrSearch\\States\\SiteState -->
<g id="edge29" class="edge">
<title>\\Firesphere\\SolrSubsites\\States\\SubsiteState&#45;&gt;\\Firesphere\\SolrSearch\\States\\SiteState</title>
<path fill="none" stroke="#000000" d="M925.2855,-1052.3491C914.7484,-1181.7065 849.1645,-1955.0667 781.2549,-2032.0425 767.1525,-2048.0275 745.3712,-2055.8372 725.0143,-2059.5362"/>
<polygon fill="none" stroke="#000000" points="724.2231,-2056.1161 714.8623,-2061.0786 725.2746,-2063.0367 724.2231,-2056.1161"/>
</g>
<!-- \\Firesphere\\SolrSubsites\\Extensions\\SubsitesExtension -->
<g id="node58" class="node">
<title>\\Firesphere\\SolrSubsites\\Extensions\\SubsitesExtension</title>
<polygon fill="none" stroke="#000000" points="992.2549,-972.0425 861.2549,-972.0425 861.2549,-936.0425 992.2549,-936.0425 992.2549,-972.0425"/>
<text text-anchor="middle" x="926.7549" y="-951.2425" font-family="Courier,monospace" font-size="11.00" fill="#000000">SubsitesExtension</text>
</g>
<!-- \\Firesphere\\SolrSubsites\\Extensions\\SubsitesExtension&#45;&gt;\\SilverStripe\\Core\\Extension -->
<g id="edge31" class="edge">
<title>\\Firesphere\\SolrSubsites\\Extensions\\SubsitesExtension&#45;&gt;\\SilverStripe\\Core\\Extension</title>
<path fill="none" stroke="#000000" d="M878.3173,-935.9131C857.0531,-925.33 834.0545,-909.7145 821.2549,-888.0425 739.3126,-749.2992 885.5707,-286.8531 781.2549,-164.0425 749.282,-126.4008 709.4057,-173.1466 672.7549,-140.0425"/>
</g>
<!-- \\Firesphere\\SolrPermissions\\Extensions\\DataObjectExtension -->
<g id="node59" class="node">
<title>\\Firesphere\\SolrPermissions\\Extensions\\DataObjectExtension</title>
<polygon fill="none" stroke="#000000" points="999.2549,-552.0425 854.2549,-552.0425 854.2549,-516.0425 999.2549,-516.0425 999.2549,-552.0425"/>
<text text-anchor="middle" x="926.7549" y="-531.2425" font-family="Courier,monospace" font-size="11.00" fill="#000000">DataObjectExtension</text>
</g>
<!-- \\Firesphere\\SolrPermissions\\Extensions\\DataObjectExtension&#45;&gt;\\SilverStripe\\ORM\\DataExtension -->
<g id="edge32" class="edge">
<title>\\Firesphere\\SolrPermissions\\Extensions\\DataObjectExtension&#45;&gt;\\SilverStripe\\ORM\\DataExtension</title>
<path fill="none" stroke="#000000" d="M854.1266,-527.6859C841.6284,-523.449 829.9011,-516.9369 821.2549,-507.0425 720.2653,-391.4723 883.2119,-278.76 781.2549,-164.0425 734.3687,-111.2882 557.436,-88.7468 421.3514,-79.1379"/>
<polygon fill="none" stroke="#000000" points="421.4309,-75.6352 411.2143,-78.4406 420.9505,-82.6187 421.4309,-75.6352"/>
</g>
<!-- \\Firesphere\\SolrPermissions\\Extensions\\SchemaFactoryExtension -->
<g id="node60" class="node">
<title>\\Firesphere\\SolrPermissions\\Extensions\\SchemaFactoryExtension</title>
<polygon fill="none" stroke="#000000" points="1009.2549,-390.0425 844.2549,-390.0425 844.2549,-354.0425 1009.2549,-354.0425 1009.2549,-390.0425"/>
<text text-anchor="middle" x="926.7549" y="-369.2425" font-family="Courier,monospace" font-size="11.00" fill="#000000">SchemaFactoryExtension</text>
</g>
<!-- \\Firesphere\\SolrPermissions\\Extensions\\SchemaFactoryExtension&#45;&gt;\\SilverStripe\\Core\\Extension -->
<g id="edge33" class="edge">
<title>\\Firesphere\\SolrPermissions\\Extensions\\SchemaFactoryExtension&#45;&gt;\\SilverStripe\\Core\\Extension</title>
<path fill="none" stroke="#000000" d="M881.1304,-353.9763C859.7122,-343.1996 835.7606,-327.3999 821.2549,-306.0425 765.9092,-224.5541 849.6364,-158.9471 781.2549,-88.0425 746.9706,-52.4932 716.6848,-86.6106 672.7549,-64.0425"/>
</g>
<!-- \\Firesphere\\SolrPermissions\\Extensions\\DocumentFactoryExtension -->
<g id="node61" class="node">
<title>\\Firesphere\\SolrPermissions\\Extensions\\DocumentFactoryExtension</title>
<polygon fill="none" stroke="#000000" points="1016.2549,-498.0425 837.2549,-498.0425 837.2549,-462.0425 1016.2549,-462.0425 1016.2549,-498.0425"/>
<text text-anchor="middle" x="926.7549" y="-477.2425" font-family="Courier,monospace" font-size="11.00" fill="#000000">DocumentFactoryExtension</text>
</g>
<!-- \\Firesphere\\SolrPermissions\\Extensions\\DocumentFactoryExtension&#45;&gt;\\SilverStripe\\Core\\Extension -->
<g id="edge34" class="edge">
<title>\\Firesphere\\SolrPermissions\\Extensions\\DocumentFactoryExtension&#45;&gt;\\SilverStripe\\Core\\Extension</title>
<path fill="none" stroke="#000000" d="M836.817,-465.8778C831.0135,-462.4074 825.7188,-458.1805 821.2549,-453.0425 715.3842,-331.1824 887.0032,-214.0087 781.2549,-92.0425 748.6302,-54.4143 717.0533,-86.7999 672.7549,-64.0425"/>
</g>
<!-- \\Firesphere\\SolrPermissions\\Extensions\\BaseIndexExtension -->
<g id="node62" class="node">
<title>\\Firesphere\\SolrPermissions\\Extensions\\BaseIndexExtension</title>
<polygon fill="none" stroke="#000000" points="995.7549,-444.0425 857.7549,-444.0425 857.7549,-408.0425 995.7549,-408.0425 995.7549,-444.0425"/>
<text text-anchor="middle" x="926.7549" y="-423.2425" font-family="Courier,monospace" font-size="11.00" fill="#000000">BaseIndexExtension</text>
</g>
<!-- \\Firesphere\\SolrPermissions\\Extensions\\BaseIndexExtension&#45;&gt;\\SilverStripe\\Core\\Extension -->
<g id="edge35" class="edge">
<title>\\Firesphere\\SolrPermissions\\Extensions\\BaseIndexExtension&#45;&gt;\\SilverStripe\\Core\\Extension</title>
<path fill="none" stroke="#000000" d="M857.7462,-420.7328C843.9386,-416.5586 830.7735,-409.8062 821.2549,-399.0425 728.9356,-294.6462 875.2766,-190.9082 781.2549,-88.0425 747.9347,-51.588 716.6848,-86.6106 672.7549,-64.0425"/>
</g>
</g>
</svg>
