<?xml version="1.0" encoding="UTF-8" standalone="no"?>
<!DOCTYPE svg PUBLIC "-//W3C//DTD SVG 1.1//EN"
 "http://www.w3.org/Graphics/SVG/1.1/DTD/svg11.dtd">
<!-- Generated by graphviz version 2.40.1 (20161225.0304)
 -->
<!-- Title: G Pages: 1 -->
<svg width="1064pt" height="3722pt"
 viewBox="0.00 0.00 1064.25 3721.59" xmlns="http://www.w3.org/2000/svg" xmlns:xlink="http://www.w3.org/1999/xlink">
<g id="graph0" class="graph" transform="scale(1 1) rotate(0) translate(4 3717.5875)">
<title>G</title>
<polygon fill="#ffffff" stroke="transparent" points="-4,4 -4,-3717.5875 1060.2549,-3717.5875 1060.2549,4 -4,4"/>
<g id="clust1" class="cluster">
<title>cluster_Global</title>
<path fill="none" stroke="#c0c0c0" d="M165.1275,-152.9227C165.1275,-152.9227 1036.2549,-152.9227 1036.2549,-152.9227 1042.2549,-152.9227 1048.2549,-158.9227 1048.2549,-164.9227 1048.2549,-164.9227 1048.2549,-3386.9227 1048.2549,-3386.9227 1048.2549,-3392.9227 1042.2549,-3398.9227 1036.2549,-3398.9227 1036.2549,-3398.9227 165.1275,-3398.9227 165.1275,-3398.9227 159.1275,-3398.9227 153.1275,-3392.9227 153.1275,-3386.9227 153.1275,-3386.9227 153.1275,-164.9227 153.1275,-164.9227 153.1275,-158.9227 159.1275,-152.9227 165.1275,-152.9227"/>
<text text-anchor="middle" x="600.6912" y="-3386.1227" font-family="Times,serif" font-size="11.00" fill="#c0c0c0">Global</text>
</g>
<g id="clust2" class="cluster">
<title>cluster_\SilverStripe</title>
<path fill="none" stroke="#c0c0c0" d="M861.2549,-3056.9227C861.2549,-3056.9227 992.2549,-3056.9227 992.2549,-3056.9227 998.2549,-3056.9227 1004.2549,-3062.9227 1004.2549,-3068.9227 1004.2549,-3068.9227 1004.2549,-3358.9227 1004.2549,-3358.9227 1004.2549,-3364.9227 998.2549,-3370.9227 992.2549,-3370.9227 992.2549,-3370.9227 861.2549,-3370.9227 861.2549,-3370.9227 855.2549,-3370.9227 849.2549,-3364.9227 849.2549,-3358.9227 849.2549,-3358.9227 849.2549,-3068.9227 849.2549,-3068.9227 849.2549,-3062.9227 855.2549,-3056.9227 861.2549,-3056.9227"/>
<text text-anchor="middle" x="926.7549" y="-3358.1227" font-family="Times,serif" font-size="11.00" fill="#c0c0c0">SilverStripe</text>
</g>
<g id="clust3" class="cluster">
<title>cluster_\SilverStripe\FullTextSearch</title>
<path fill="none" stroke="#c0c0c0" d="M869.2549,-3064.9227C869.2549,-3064.9227 984.2549,-3064.9227 984.2549,-3064.9227 990.2549,-3064.9227 996.2549,-3070.9227 996.2549,-3076.9227 996.2549,-3076.9227 996.2549,-3330.9227 996.2549,-3330.9227 996.2549,-3336.9227 990.2549,-3342.9227 984.2549,-3342.9227 984.2549,-3342.9227 869.2549,-3342.9227 869.2549,-3342.9227 863.2549,-3342.9227 857.2549,-3336.9227 857.2549,-3330.9227 857.2549,-3330.9227 857.2549,-3076.9227 857.2549,-3076.9227 857.2549,-3070.9227 863.2549,-3064.9227 869.2549,-3064.9227"/>
<text text-anchor="middle" x="926.7549" y="-3330.1227" font-family="Times,serif" font-size="11.00" fill="#c0c0c0">FullTextSearch</text>
</g>
<g id="clust4" class="cluster">
<title>cluster_\SilverStripe\FullTextSearch\Solr</title>
<path fill="none" stroke="#c0c0c0" d="M888.7549,-3188.9227C888.7549,-3188.9227 964.7549,-3188.9227 964.7549,-3188.9227 970.7549,-3188.9227 976.7549,-3194.9227 976.7549,-3200.9227 976.7549,-3200.9227 976.7549,-3302.9227 976.7549,-3302.9227 976.7549,-3308.9227 970.7549,-3314.9227 964.7549,-3314.9227 964.7549,-3314.9227 888.7549,-3314.9227 888.7549,-3314.9227 882.7549,-3314.9227 876.7549,-3308.9227 876.7549,-3302.9227 876.7549,-3302.9227 876.7549,-3200.9227 876.7549,-3200.9227 876.7549,-3194.9227 882.7549,-3188.9227 888.7549,-3188.9227"/>
<text text-anchor="middle" x="926.7549" y="-3302.1227" font-family="Times,serif" font-size="11.00" fill="#c0c0c0">Solr</text>
</g>
<g id="clust5" class="cluster">
<title>cluster_\SilverStripe\FullTextSearch\Search</title>
<path fill="none" stroke="#c0c0c0" d="M877.2549,-3072.9227C877.2549,-3072.9227 976.2549,-3072.9227 976.2549,-3072.9227 982.2549,-3072.9227 988.2549,-3078.9227 988.2549,-3084.9227 988.2549,-3084.9227 988.2549,-3168.9227 988.2549,-3168.9227 988.2549,-3174.9227 982.2549,-3180.9227 976.2549,-3180.9227 976.2549,-3180.9227 877.2549,-3180.9227 877.2549,-3180.9227 871.2549,-3180.9227 865.2549,-3174.9227 865.2549,-3168.9227 865.2549,-3168.9227 865.2549,-3084.9227 865.2549,-3084.9227 865.2549,-3078.9227 871.2549,-3072.9227 877.2549,-3072.9227"/>
<text text-anchor="middle" x="926.7549" y="-3168.1227" font-family="Times,serif" font-size="11.00" fill="#c0c0c0">Search</text>
</g>
<g id="clust6" class="cluster">
<title>cluster_\SilverStripe\FullTextSearch\Search\Queries</title>
<path fill="none" stroke="#c0c0c0" d="M885.2549,-3080.9227C885.2549,-3080.9227 968.2549,-3080.9227 968.2549,-3080.9227 974.2549,-3080.9227 980.2549,-3086.9227 980.2549,-3092.9227 980.2549,-3092.9227 980.2549,-3140.9227 980.2549,-3140.9227 980.2549,-3146.9227 974.2549,-3152.9227 968.2549,-3152.9227 968.2549,-3152.9227 885.2549,-3152.9227 885.2549,-3152.9227 879.2549,-3152.9227 873.2549,-3146.9227 873.2549,-3140.9227 873.2549,-3140.9227 873.2549,-3092.9227 873.2549,-3092.9227 873.2549,-3086.9227 879.2549,-3080.9227 885.2549,-3080.9227"/>
<text text-anchor="middle" x="926.7549" y="-3140.1227" font-family="Times,serif" font-size="11.00" fill="#c0c0c0">Queries</text>
</g>
<g id="clust7" class="cluster">
<title>cluster_\Firesphere</title>
<path fill="none" stroke="#c0c0c0" d="M173.1275,-160.9227C173.1275,-160.9227 1028.2549,-160.9227 1028.2549,-160.9227 1034.2549,-160.9227 1040.2549,-166.9227 1040.2549,-172.9227 1040.2549,-172.9227 1040.2549,-3036.9227 1040.2549,-3036.9227 1040.2549,-3042.9227 1034.2549,-3048.9227 1028.2549,-3048.9227 1028.2549,-3048.9227 173.1275,-3048.9227 173.1275,-3048.9227 167.1275,-3048.9227 161.1275,-3042.9227 161.1275,-3036.9227 161.1275,-3036.9227 161.1275,-172.9227 161.1275,-172.9227 161.1275,-166.9227 167.1275,-160.9227 173.1275,-160.9227"/>
<text text-anchor="middle" x="600.6912" y="-3036.1227" font-family="Times,serif" font-size="11.00" fill="#c0c0c0">Firesphere</text>
</g>
<g id="clust8" class="cluster">
<title>cluster_\Firesphere\SolrCompatibility</title>
<path fill="none" stroke="#c0c0c0" d="M833.2549,-168.9227C833.2549,-168.9227 1020.2549,-168.9227 1020.2549,-168.9227 1026.2549,-168.9227 1032.2549,-174.9227 1032.2549,-180.9227 1032.2549,-180.9227 1032.2549,-318.9227 1032.2549,-318.9227 1032.2549,-324.9227 1026.2549,-330.9227 1020.2549,-330.9227 1020.2549,-330.9227 833.2549,-330.9227 833.2549,-330.9227 827.2549,-330.9227 821.2549,-324.9227 821.2549,-318.9227 821.2549,-318.9227 821.2549,-180.9227 821.2549,-180.9227 821.2549,-174.9227 827.2549,-168.9227 833.2549,-168.9227"/>
<text text-anchor="middle" x="926.7549" y="-318.1227" font-family="Times,serif" font-size="11.00" fill="#c0c0c0">SolrCompatibility</text>
</g>
<g id="clust9" class="cluster">
<title>cluster_\Firesphere\SolrCompatibility\Extensions</title>
<path fill="none" stroke="#c0c0c0" d="M841.2549,-176.9227C841.2549,-176.9227 1012.2549,-176.9227 1012.2549,-176.9227 1018.2549,-176.9227 1024.2549,-182.9227 1024.2549,-188.9227 1024.2549,-188.9227 1024.2549,-290.9227 1024.2549,-290.9227 1024.2549,-296.9227 1018.2549,-302.9227 1012.2549,-302.9227 1012.2549,-302.9227 841.2549,-302.9227 841.2549,-302.9227 835.2549,-302.9227 829.2549,-296.9227 829.2549,-290.9227 829.2549,-290.9227 829.2549,-188.9227 829.2549,-188.9227 829.2549,-182.9227 835.2549,-176.9227 841.2549,-176.9227"/>
<text text-anchor="middle" x="926.7549" y="-290.1227" font-family="Times,serif" font-size="11.00" fill="#c0c0c0">Extensions</text>
</g>
<g id="clust10" class="cluster">
<title>cluster_\Firesphere\SolrSearch</title>
<path fill="none" stroke="#c0c0c0" d="M181.1275,-172.9227C181.1275,-172.9227 769.2549,-172.9227 769.2549,-172.9227 775.2549,-172.9227 781.2549,-178.9227 781.2549,-184.9227 781.2549,-184.9227 781.2549,-3008.9227 781.2549,-3008.9227 781.2549,-3014.9227 775.2549,-3020.9227 769.2549,-3020.9227 769.2549,-3020.9227 181.1275,-3020.9227 181.1275,-3020.9227 175.1275,-3020.9227 169.1275,-3014.9227 169.1275,-3008.9227 169.1275,-3008.9227 169.1275,-184.9227 169.1275,-184.9227 169.1275,-178.9227 175.1275,-172.9227 181.1275,-172.9227"/>
<text text-anchor="middle" x="475.1912" y="-3008.1227" font-family="Times,serif" font-size="11.00" fill="#c0c0c0">SolrSearch</text>
</g>
<g id="clust11" class="cluster">
<title>cluster_\Firesphere\SolrSearch\Admins</title>
<path fill="none" stroke="#c0c0c0" d="M631.2549,-2920.9227C631.2549,-2920.9227 714.2549,-2920.9227 714.2549,-2920.9227 720.2549,-2920.9227 726.2549,-2926.9227 726.2549,-2932.9227 726.2549,-2932.9227 726.2549,-2980.9227 726.2549,-2980.9227 726.2549,-2986.9227 720.2549,-2992.9227 714.2549,-2992.9227 714.2549,-2992.9227 631.2549,-2992.9227 631.2549,-2992.9227 625.2549,-2992.9227 619.2549,-2986.9227 619.2549,-2980.9227 619.2549,-2980.9227 619.2549,-2932.9227 619.2549,-2932.9227 619.2549,-2926.9227 625.2549,-2920.9227 631.2549,-2920.9227"/>
<text text-anchor="middle" x="672.7549" y="-2980.1227" font-family="Times,serif" font-size="11.00" fill="#c0c0c0">Admins</text>
</g>
<g id="clust12" class="cluster">
<title>cluster_\Firesphere\SolrSearch\Extensions</title>
<path fill="none" stroke="#c0c0c0" d="M604.2549,-2786.9227C604.2549,-2786.9227 741.2549,-2786.9227 741.2549,-2786.9227 747.2549,-2786.9227 753.2549,-2792.9227 753.2549,-2798.9227 753.2549,-2798.9227 753.2549,-2900.9227 753.2549,-2900.9227 753.2549,-2906.9227 747.2549,-2912.9227 741.2549,-2912.9227 741.2549,-2912.9227 604.2549,-2912.9227 604.2549,-2912.9227 598.2549,-2912.9227 592.2549,-2906.9227 592.2549,-2900.9227 592.2549,-2900.9227 592.2549,-2798.9227 592.2549,-2798.9227 592.2549,-2792.9227 598.2549,-2786.9227 604.2549,-2786.9227"/>
<text text-anchor="middle" x="672.7549" y="-2900.1227" font-family="Times,serif" font-size="11.00" fill="#c0c0c0">Extensions</text>
</g>
<g id="clust13" class="cluster">
<title>cluster_\Firesphere\SolrSearch\Indexes</title>
<path fill="none" stroke="#c0c0c0" d="M634.7549,-2706.9227C634.7549,-2706.9227 710.7549,-2706.9227 710.7549,-2706.9227 716.7549,-2706.9227 722.7549,-2712.9227 722.7549,-2718.9227 722.7549,-2718.9227 722.7549,-2766.9227 722.7549,-2766.9227 722.7549,-2772.9227 716.7549,-2778.9227 710.7549,-2778.9227 710.7549,-2778.9227 634.7549,-2778.9227 634.7549,-2778.9227 628.7549,-2778.9227 622.7549,-2772.9227 622.7549,-2766.9227 622.7549,-2766.9227 622.7549,-2718.9227 622.7549,-2718.9227 622.7549,-2712.9227 628.7549,-2706.9227 634.7549,-2706.9227"/>
<text text-anchor="middle" x="672.7549" y="-2766.1227" font-family="Times,serif" font-size="11.00" fill="#c0c0c0">Indexes</text>
</g>
<g id="clust14" class="cluster">
<title>cluster_\Firesphere\SolrSearch\Results</title>
<path fill="none" stroke="#c0c0c0" d="M627.7549,-2626.9227C627.7549,-2626.9227 717.7549,-2626.9227 717.7549,-2626.9227 723.7549,-2626.9227 729.7549,-2632.9227 729.7549,-2638.9227 729.7549,-2638.9227 729.7549,-2686.9227 729.7549,-2686.9227 729.7549,-2692.9227 723.7549,-2698.9227 717.7549,-2698.9227 717.7549,-2698.9227 627.7549,-2698.9227 627.7549,-2698.9227 621.7549,-2698.9227 615.7549,-2692.9227 615.7549,-2686.9227 615.7549,-2686.9227 615.7549,-2638.9227 615.7549,-2638.9227 615.7549,-2632.9227 621.7549,-2626.9227 627.7549,-2626.9227"/>
<text text-anchor="middle" x="672.7549" y="-2686.1227" font-family="Times,serif" font-size="11.00" fill="#c0c0c0">Results</text>
</g>
<g id="clust15" class="cluster">
<title>cluster_\Firesphere\SolrSearch\Helpers</title>
<path fill="none" stroke="#c0c0c0" d="M624.7549,-2330.9227C624.7549,-2330.9227 720.7549,-2330.9227 720.7549,-2330.9227 726.7549,-2330.9227 732.7549,-2336.9227 732.7549,-2342.9227 732.7549,-2342.9227 732.7549,-2606.9227 732.7549,-2606.9227 732.7549,-2612.9227 726.7549,-2618.9227 720.7549,-2618.9227 720.7549,-2618.9227 624.7549,-2618.9227 624.7549,-2618.9227 618.7549,-2618.9227 612.7549,-2612.9227 612.7549,-2606.9227 612.7549,-2606.9227 612.7549,-2342.9227 612.7549,-2342.9227 612.7549,-2336.9227 618.7549,-2330.9227 624.7549,-2330.9227"/>
<text text-anchor="middle" x="672.7549" y="-2606.1227" font-family="Times,serif" font-size="11.00" fill="#c0c0c0">Helpers</text>
</g>
<g id="clust16" class="cluster">
<title>cluster_\Firesphere\SolrSearch\Models</title>
<path fill="none" stroke="#c0c0c0" d="M624.7549,-2142.9227C624.7549,-2142.9227 720.7549,-2142.9227 720.7549,-2142.9227 726.7549,-2142.9227 732.7549,-2148.9227 732.7549,-2154.9227 732.7549,-2154.9227 732.7549,-2310.9227 732.7549,-2310.9227 732.7549,-2316.9227 726.7549,-2322.9227 720.7549,-2322.9227 720.7549,-2322.9227 624.7549,-2322.9227 624.7549,-2322.9227 618.7549,-2322.9227 612.7549,-2316.9227 612.7549,-2310.9227 612.7549,-2310.9227 612.7549,-2154.9227 612.7549,-2154.9227 612.7549,-2148.9227 618.7549,-2142.9227 624.7549,-2142.9227"/>
<text text-anchor="middle" x="672.7549" y="-2310.1227" font-family="Times,serif" font-size="11.00" fill="#c0c0c0">Models</text>
</g>
<g id="clust17" class="cluster">
<title>cluster_\Firesphere\SolrSearch\Queries</title>
<path fill="none" stroke="#c0c0c0" d="M638.2549,-2062.9227C638.2549,-2062.9227 707.2549,-2062.9227 707.2549,-2062.9227 713.2549,-2062.9227 719.2549,-2068.9227 719.2549,-2074.9227 719.2549,-2074.9227 719.2549,-2122.9227 719.2549,-2122.9227 719.2549,-2128.9227 713.2549,-2134.9227 707.2549,-2134.9227 707.2549,-2134.9227 638.2549,-2134.9227 638.2549,-2134.9227 632.2549,-2134.9227 626.2549,-2128.9227 626.2549,-2122.9227 626.2549,-2122.9227 626.2549,-2074.9227 626.2549,-2074.9227 626.2549,-2068.9227 632.2549,-2062.9227 638.2549,-2062.9227"/>
<text text-anchor="middle" x="672.7549" y="-2122.1227" font-family="Times,serif" font-size="11.00" fill="#c0c0c0">Queries</text>
</g>
<g id="clust18" class="cluster">
<title>cluster_\Firesphere\SolrSearch\Stores</title>
<path fill="none" stroke="#c0c0c0" d="M617.7549,-1928.9227C617.7549,-1928.9227 727.7549,-1928.9227 727.7549,-1928.9227 733.7549,-1928.9227 739.7549,-1934.9227 739.7549,-1940.9227 739.7549,-1940.9227 739.7549,-2042.9227 739.7549,-2042.9227 739.7549,-2048.9227 733.7549,-2054.9227 727.7549,-2054.9227 727.7549,-2054.9227 617.7549,-2054.9227 617.7549,-2054.9227 611.7549,-2054.9227 605.7549,-2048.9227 605.7549,-2042.9227 605.7549,-2042.9227 605.7549,-1940.9227 605.7549,-1940.9227 605.7549,-1934.9227 611.7549,-1928.9227 617.7549,-1928.9227"/>
<text text-anchor="middle" x="672.7549" y="-2042.1227" font-family="Times,serif" font-size="11.00" fill="#c0c0c0">Stores</text>
</g>
<g id="clust19" class="cluster">
<title>cluster_\Firesphere\SolrSearch\Traits</title>
<path fill="none" stroke="#c0c0c0" d="M584.2549,-1038.9227C584.2549,-1038.9227 761.2549,-1038.9227 761.2549,-1038.9227 767.2549,-1038.9227 773.2549,-1044.9227 773.2549,-1050.9227 773.2549,-1050.9227 773.2549,-1908.9227 773.2549,-1908.9227 773.2549,-1914.9227 767.2549,-1920.9227 761.2549,-1920.9227 761.2549,-1920.9227 584.2549,-1920.9227 584.2549,-1920.9227 578.2549,-1920.9227 572.2549,-1914.9227 572.2549,-1908.9227 572.2549,-1908.9227 572.2549,-1050.9227 572.2549,-1050.9227 572.2549,-1044.9227 578.2549,-1038.9227 584.2549,-1038.9227"/>
<text text-anchor="middle" x="672.7549" y="-1908.1227" font-family="Times,serif" font-size="11.00" fill="#c0c0c0">Traits</text>
</g>
<g id="clust20" class="cluster">
<title>cluster_\Firesphere\SolrSearch\Interfaces</title>
<path fill="none" stroke="#c0c0c0" d="M189.1275,-1874.9227C189.1275,-1874.9227 319.1275,-1874.9227 319.1275,-1874.9227 325.1275,-1874.9227 331.1275,-1880.9227 331.1275,-1886.9227 331.1275,-1886.9227 331.1275,-1988.9227 331.1275,-1988.9227 331.1275,-1994.9227 325.1275,-2000.9227 319.1275,-2000.9227 319.1275,-2000.9227 189.1275,-2000.9227 189.1275,-2000.9227 183.1275,-2000.9227 177.1275,-1994.9227 177.1275,-1988.9227 177.1275,-1988.9227 177.1275,-1886.9227 177.1275,-1886.9227 177.1275,-1880.9227 183.1275,-1874.9227 189.1275,-1874.9227"/>
<text text-anchor="middle" x="254.1275" y="-1988.1227" font-family="Times,serif" font-size="11.00" fill="#c0c0c0">Interfaces</text>
</g>
<g id="clust21" class="cluster">
<title>cluster_\Firesphere\SolrSearch\Jobs</title>
<path fill="none" stroke="#c0c0c0" d="M600.7549,-716.9227C600.7549,-716.9227 744.7549,-716.9227 744.7549,-716.9227 750.7549,-716.9227 756.7549,-722.9227 756.7549,-728.9227 756.7549,-728.9227 756.7549,-884.9227 756.7549,-884.9227 756.7549,-890.9227 750.7549,-896.9227 744.7549,-896.9227 744.7549,-896.9227 600.7549,-896.9227 600.7549,-896.9227 594.7549,-896.9227 588.7549,-890.9227 588.7549,-884.9227 588.7549,-884.9227 588.7549,-728.9227 588.7549,-728.9227 588.7549,-722.9227 594.7549,-716.9227 600.7549,-716.9227"/>
<text text-anchor="middle" x="672.7549" y="-884.1227" font-family="Times,serif" font-size="11.00" fill="#c0c0c0">Jobs</text>
</g>
<g id="clust22" class="cluster">
<title>cluster_\Firesphere\SolrSearch\Tasks</title>
<path fill="none" stroke="#c0c0c0" d="M597.7549,-474.9227C597.7549,-474.9227 747.7549,-474.9227 747.7549,-474.9227 753.7549,-474.9227 759.7549,-480.9227 759.7549,-486.9227 759.7549,-486.9227 759.7549,-696.9227 759.7549,-696.9227 759.7549,-702.9227 753.7549,-708.9227 747.7549,-708.9227 747.7549,-708.9227 597.7549,-708.9227 597.7549,-708.9227 591.7549,-708.9227 585.7549,-702.9227 585.7549,-696.9227 585.7549,-696.9227 585.7549,-486.9227 585.7549,-486.9227 585.7549,-480.9227 591.7549,-474.9227 597.7549,-474.9227"/>
<text text-anchor="middle" x="672.7549" y="-696.1227" font-family="Times,serif" font-size="11.00" fill="#c0c0c0">Tasks</text>
</g>
<g id="clust23" class="cluster">
<title>cluster_\Firesphere\SolrSearch\Services</title>
<path fill="none" stroke="#c0c0c0" d="M617.7549,-904.9227C617.7549,-904.9227 727.7549,-904.9227 727.7549,-904.9227 733.7549,-904.9227 739.7549,-910.9227 739.7549,-916.9227 739.7549,-916.9227 739.7549,-1018.9227 739.7549,-1018.9227 739.7549,-1024.9227 733.7549,-1030.9227 727.7549,-1030.9227 727.7549,-1030.9227 617.7549,-1030.9227 617.7549,-1030.9227 611.7549,-1030.9227 605.7549,-1024.9227 605.7549,-1018.9227 605.7549,-1018.9227 605.7549,-916.9227 605.7549,-916.9227 605.7549,-910.9227 611.7549,-904.9227 617.7549,-904.9227"/>
<text text-anchor="middle" x="672.7549" y="-1018.1227" font-family="Times,serif" font-size="11.00" fill="#c0c0c0">Services</text>
</g>
<g id="clust24" class="cluster">
<title>cluster_\Firesphere\SolrSearch\Factories</title>
<path fill="none" stroke="#c0c0c0" d="M597.7549,-340.9227C597.7549,-340.9227 747.7549,-340.9227 747.7549,-340.9227 753.7549,-340.9227 759.7549,-346.9227 759.7549,-352.9227 759.7549,-352.9227 759.7549,-454.9227 759.7549,-454.9227 759.7549,-460.9227 753.7549,-466.9227 747.7549,-466.9227 747.7549,-466.9227 597.7549,-466.9227 597.7549,-466.9227 591.7549,-466.9227 585.7549,-460.9227 585.7549,-454.9227 585.7549,-454.9227 585.7549,-352.9227 585.7549,-352.9227 585.7549,-346.9227 591.7549,-340.9227 597.7549,-340.9227"/>
<text text-anchor="middle" x="672.7549" y="-454.1227" font-family="Times,serif" font-size="11.00" fill="#c0c0c0">Factories</text>
</g>
<g id="clust25" class="cluster">
<title>cluster_\Firesphere\SolrSearch\Forms</title>
<path fill="none" stroke="#c0c0c0" d="M634.7549,-260.9227C634.7549,-260.9227 710.7549,-260.9227 710.7549,-260.9227 716.7549,-260.9227 722.7549,-266.9227 722.7549,-272.9227 722.7549,-272.9227 722.7549,-320.9227 722.7549,-320.9227 722.7549,-326.9227 716.7549,-332.9227 710.7549,-332.9227 710.7549,-332.9227 634.7549,-332.9227 634.7549,-332.9227 628.7549,-332.9227 622.7549,-326.9227 622.7549,-320.9227 622.7549,-320.9227 622.7549,-272.9227 622.7549,-272.9227 622.7549,-266.9227 628.7549,-260.9227 634.7549,-260.9227"/>
<text text-anchor="middle" x="672.7549" y="-320.1227" font-family="Times,serif" font-size="11.00" fill="#c0c0c0">Forms</text>
</g>
<g id="clust26" class="cluster">
<title>cluster_\Firesphere\SolrSearch\States</title>
<path fill="none" stroke="#c0c0c0" d="M634.7549,-180.9227C634.7549,-180.9227 710.7549,-180.9227 710.7549,-180.9227 716.7549,-180.9227 722.7549,-186.9227 722.7549,-192.9227 722.7549,-192.9227 722.7549,-240.9227 722.7549,-240.9227 722.7549,-246.9227 716.7549,-252.9227 710.7549,-252.9227 710.7549,-252.9227 634.7549,-252.9227 634.7549,-252.9227 628.7549,-252.9227 622.7549,-246.9227 622.7549,-240.9227 622.7549,-240.9227 622.7549,-192.9227 622.7549,-192.9227 622.7549,-186.9227 628.7549,-180.9227 634.7549,-180.9227"/>
<text text-anchor="middle" x="672.7549" y="-240.1227" font-family="Times,serif" font-size="11.00" fill="#c0c0c0">States</text>
</g>
<g id="clust27" class="cluster">
<title>cluster_\Firesphere\SolrFluent</title>
<path fill="none" stroke="#c0c0c0" d="M836.7549,-616.9227C836.7549,-616.9227 1016.7549,-616.9227 1016.7549,-616.9227 1022.7549,-616.9227 1028.7549,-622.9227 1028.7549,-628.9227 1028.7549,-628.9227 1028.7549,-900.9227 1028.7549,-900.9227 1028.7549,-906.9227 1022.7549,-912.9227 1016.7549,-912.9227 1016.7549,-912.9227 836.7549,-912.9227 836.7549,-912.9227 830.7549,-912.9227 824.7549,-906.9227 824.7549,-900.9227 824.7549,-900.9227 824.7549,-628.9227 824.7549,-628.9227 824.7549,-622.9227 830.7549,-616.9227 836.7549,-616.9227"/>
<text text-anchor="middle" x="926.7549" y="-900.1227" font-family="Times,serif" font-size="11.00" fill="#c0c0c0">SolrFluent</text>
</g>
<g id="clust28" class="cluster">
<title>cluster_\Firesphere\SolrFluent\Extensions</title>
<path fill="none" stroke="#c0c0c0" d="M844.7549,-624.9227C844.7549,-624.9227 1008.7549,-624.9227 1008.7549,-624.9227 1014.7549,-624.9227 1020.7549,-630.9227 1020.7549,-636.9227 1020.7549,-636.9227 1020.7549,-792.9227 1020.7549,-792.9227 1020.7549,-798.9227 1014.7549,-804.9227 1008.7549,-804.9227 1008.7549,-804.9227 844.7549,-804.9227 844.7549,-804.9227 838.7549,-804.9227 832.7549,-798.9227 832.7549,-792.9227 832.7549,-792.9227 832.7549,-636.9227 832.7549,-636.9227 832.7549,-630.9227 838.7549,-624.9227 844.7549,-624.9227"/>
<text text-anchor="middle" x="926.7549" y="-792.1227" font-family="Times,serif" font-size="11.00" fill="#c0c0c0">Extensions</text>
</g>
<g id="clust29" class="cluster">
<title>cluster_\Firesphere\SolrFluent\States</title>
<path fill="none" stroke="#c0c0c0" d="M871.7549,-812.9227C871.7549,-812.9227 981.7549,-812.9227 981.7549,-812.9227 987.7549,-812.9227 993.7549,-818.9227 993.7549,-824.9227 993.7549,-824.9227 993.7549,-872.9227 993.7549,-872.9227 993.7549,-878.9227 987.7549,-884.9227 981.7549,-884.9227 981.7549,-884.9227 871.7549,-884.9227 871.7549,-884.9227 865.7549,-884.9227 859.7549,-878.9227 859.7549,-872.9227 859.7549,-872.9227 859.7549,-824.9227 859.7549,-824.9227 859.7549,-818.9227 865.7549,-812.9227 871.7549,-812.9227"/>
<text text-anchor="middle" x="926.7549" y="-872.1227" font-family="Times,serif" font-size="11.00" fill="#c0c0c0">States</text>
</g>
<g id="clust30" class="cluster">
<title>cluster_\Firesphere\SolrSubsites</title>
<path fill="none" stroke="#c0c0c0" d="M857.2549,-920.9227C857.2549,-920.9227 996.2549,-920.9227 996.2549,-920.9227 1002.2549,-920.9227 1008.2549,-926.9227 1008.2549,-932.9227 1008.2549,-932.9227 1008.2549,-1096.9227 1008.2549,-1096.9227 1008.2549,-1102.9227 1002.2549,-1108.9227 996.2549,-1108.9227 996.2549,-1108.9227 857.2549,-1108.9227 857.2549,-1108.9227 851.2549,-1108.9227 845.2549,-1102.9227 845.2549,-1096.9227 845.2549,-1096.9227 845.2549,-932.9227 845.2549,-932.9227 845.2549,-926.9227 851.2549,-920.9227 857.2549,-920.9227"/>
<text text-anchor="middle" x="926.7549" y="-1096.1227" font-family="Times,serif" font-size="11.00" fill="#c0c0c0">SolrSubsites</text>
</g>
<g id="clust31" class="cluster">
<title>cluster_\Firesphere\SolrSubsites\Extensions</title>
<path fill="none" stroke="#c0c0c0" d="M865.2549,-928.9227C865.2549,-928.9227 988.2549,-928.9227 988.2549,-928.9227 994.2549,-928.9227 1000.2549,-934.9227 1000.2549,-940.9227 1000.2549,-940.9227 1000.2549,-988.9227 1000.2549,-988.9227 1000.2549,-994.9227 994.2549,-1000.9227 988.2549,-1000.9227 988.2549,-1000.9227 865.2549,-1000.9227 865.2549,-1000.9227 859.2549,-1000.9227 853.2549,-994.9227 853.2549,-988.9227 853.2549,-988.9227 853.2549,-940.9227 853.2549,-940.9227 853.2549,-934.9227 859.2549,-928.9227 865.2549,-928.9227"/>
<text text-anchor="middle" x="926.7549" y="-988.1227" font-family="Times,serif" font-size="11.00" fill="#c0c0c0">Extensions</text>
</g>
<g id="clust32" class="cluster">
<title>cluster_\Firesphere\SolrSubsites\States</title>
<path fill="none" stroke="#c0c0c0" d="M881.7549,-1008.9227C881.7549,-1008.9227 971.7549,-1008.9227 971.7549,-1008.9227 977.7549,-1008.9227 983.7549,-1014.9227 983.7549,-1020.9227 983.7549,-1020.9227 983.7549,-1068.9227 983.7549,-1068.9227 983.7549,-1074.9227 977.7549,-1080.9227 971.7549,-1080.9227 971.7549,-1080.9227 881.7549,-1080.9227 881.7549,-1080.9227 875.7549,-1080.9227 869.7549,-1074.9227 869.7549,-1068.9227 869.7549,-1068.9227 869.7549,-1020.9227 869.7549,-1020.9227 869.7549,-1014.9227 875.7549,-1008.9227 881.7549,-1008.9227"/>
<text text-anchor="middle" x="926.7549" y="-1068.1227" font-family="Times,serif" font-size="11.00" fill="#c0c0c0">States</text>
</g>
<g id="clust33" class="cluster">
<title>cluster_\Firesphere\SolrPermissions</title>
<path fill="none" stroke="#c0c0c0" d="M833.2549,-338.9227C833.2549,-338.9227 1020.2549,-338.9227 1020.2549,-338.9227 1026.2549,-338.9227 1032.2549,-344.9227 1032.2549,-350.9227 1032.2549,-350.9227 1032.2549,-596.9227 1032.2549,-596.9227 1032.2549,-602.9227 1026.2549,-608.9227 1020.2549,-608.9227 1020.2549,-608.9227 833.2549,-608.9227 833.2549,-608.9227 827.2549,-608.9227 821.2549,-602.9227 821.2549,-596.9227 821.2549,-596.9227 821.2549,-350.9227 821.2549,-350.9227 821.2549,-344.9227 827.2549,-338.9227 833.2549,-338.9227"/>
<text text-anchor="middle" x="926.7549" y="-596.1227" font-family="Times,serif" font-size="11.00" fill="#c0c0c0">SolrPermissions</text>
</g>
<g id="clust34" class="cluster">
<title>cluster_\Firesphere\SolrPermissions\Extensions</title>
<path fill="none" stroke="#c0c0c0" d="M841.2549,-346.9227C841.2549,-346.9227 1012.2549,-346.9227 1012.2549,-346.9227 1018.2549,-346.9227 1024.2549,-352.9227 1024.2549,-358.9227 1024.2549,-358.9227 1024.2549,-568.9227 1024.2549,-568.9227 1024.2549,-574.9227 1018.2549,-580.9227 1012.2549,-580.9227 1012.2549,-580.9227 841.2549,-580.9227 841.2549,-580.9227 835.2549,-580.9227 829.2549,-574.9227 829.2549,-568.9227 829.2549,-568.9227 829.2549,-358.9227 829.2549,-358.9227 829.2549,-352.9227 835.2549,-346.9227 841.2549,-346.9227"/>
<text text-anchor="middle" x="926.7549" y="-568.1227" font-family="Times,serif" font-size="11.00" fill="#c0c0c0">Extensions</text>
</g>
<!-- \\SilverStripe\\FullTextSearch\\Solr\\Solr -->
<g id="node1" class="node">
<title>\\SilverStripe\\FullTextSearch\\Solr\\Solr</title>
<polygon fill="none" stroke="#000000" points="953.7549,-3286.9227 899.7549,-3286.9227 899.7549,-3250.9227 953.7549,-3250.9227 953.7549,-3286.9227"/>
<text text-anchor="middle" x="926.7549" y="-3266.1227" font-family="Courier,monospace" font-size="11.00" fill="#000000">Solr</text>
</g>
<!-- \\SilverStripe\\FullTextSearch\\Solr\\SolrIndex -->
<g id="node2" class="node">
<title>\\SilverStripe\\FullTextSearch\\Solr\\SolrIndex</title>
<polygon fill="none" stroke="#000000" points="968.7549,-3232.9227 884.7549,-3232.9227 884.7549,-3196.9227 968.7549,-3196.9227 968.7549,-3232.9227"/>
<text text-anchor="start" x="892.7549" y="-3218.1227" font-family="Courier,monospace" font-size="11.00" fill="#000000">«abstract»</text>
<text text-anchor="start" x="896.2549" y="-3206.1227" font-family="Courier,monospace" font-size="11.00" fill="#000000">SolrIndex</text>
</g>
<!-- \\Firesphere\\SolrSearch\\Indexes\\BaseIndex -->
<g id="node9" class="node">
<title>\\Firesphere\\SolrSearch\\Indexes\\BaseIndex</title>
<polygon fill="none" stroke="#000000" points="714.7549,-2750.9227 630.7549,-2750.9227 630.7549,-2714.9227 714.7549,-2714.9227 714.7549,-2750.9227"/>
<text text-anchor="start" x="638.7549" y="-2736.1227" font-family="Courier,monospace" font-size="11.00" fill="#000000">«abstract»</text>
<text text-anchor="start" x="642.2549" y="-2724.1227" font-family="Courier,monospace" font-size="11.00" fill="#000000">BaseIndex</text>
</g>
<!-- \\SilverStripe\\FullTextSearch\\Solr\\SolrIndex&#45;&gt;\\Firesphere\\SolrSearch\\Indexes\\BaseIndex -->
<g id="edge4" class="edge">
<title>\\SilverStripe\\FullTextSearch\\Solr\\SolrIndex&#45;&gt;\\Firesphere\\SolrSearch\\Indexes\\BaseIndex</title>
<path fill="none" stroke="#000000" d="M884.5921,-3202.4151C862.0441,-3193.466 835.9647,-3179.019 821.2549,-3156.9227 728.6176,-3017.7674 878.7618,-2918.7103 781.2549,-2782.9227 767.7826,-2764.1612 745.4994,-2752.2609 724.6205,-2744.8027"/>
<polygon fill="none" stroke="#000000" points="725.4399,-2741.3877 714.8469,-2741.5839 723.2502,-2748.0364 725.4399,-2741.3877"/>
</g>
<!-- \\SilverStripe\\FullTextSearch\\Search\\Queries\\SearchQuery -->
<g id="node3" class="node">
<title>\\SilverStripe\\FullTextSearch\\Search\\Queries\\SearchQuery</title>
<polygon fill="none" stroke="#000000" points="972.2549,-3124.9227 881.2549,-3124.9227 881.2549,-3088.9227 972.2549,-3088.9227 972.2549,-3124.9227"/>
<text text-anchor="middle" x="926.7549" y="-3104.1227" font-family="Courier,monospace" font-size="11.00" fill="#000000">SearchQuery</text>
</g>
<!-- \\Firesphere\\SolrSearch\\Queries\\BaseQuery -->
<g id="node19" class="node">
<title>\\Firesphere\\SolrSearch\\Queries\\BaseQuery</title>
<polygon fill="none" stroke="#000000" points="711.2549,-2106.9227 634.2549,-2106.9227 634.2549,-2070.9227 711.2549,-2070.9227 711.2549,-2106.9227"/>
<text text-anchor="middle" x="672.7549" y="-2086.1227" font-family="Courier,monospace" font-size="11.00" fill="#000000">BaseQuery</text>
</g>
<!-- \\SilverStripe\\FullTextSearch\\Search\\Queries\\SearchQuery&#45;&gt;\\Firesphere\\SolrSearch\\Queries\\BaseQuery -->
<g id="edge1" class="edge">
<title>\\SilverStripe\\FullTextSearch\\Search\\Queries\\SearchQuery&#45;&gt;\\Firesphere\\SolrSearch\\Queries\\BaseQuery</title>
<path fill="none" stroke="#000000" d="M926.3214,-3088.7197C923.1465,-2969.2466 900.1375,-2297.2408 781.2549,-2138.9227 766.6749,-2119.5062 742.7394,-2107.3918 721.0543,-2099.9615"/>
<polygon fill="none" stroke="#000000" points="721.881,-2096.552 711.2909,-2096.8678 719.7665,-2103.225 721.881,-2096.552"/>
</g>
<!-- \\Firesphere\\SolrCompatibility\\Extensions\\FulltextSearchExtension -->
<g id="node4" class="node">
<title>\\Firesphere\\SolrCompatibility\\Extensions\\FulltextSearchExtension</title>
<polygon fill="none" stroke="#000000" points="1012.7549,-274.9227 840.7549,-274.9227 840.7549,-238.9227 1012.7549,-238.9227 1012.7549,-274.9227"/>
<text text-anchor="middle" x="926.7549" y="-254.1227" font-family="Courier,monospace" font-size="11.00" fill="#000000">FulltextSearchExtension</text>
</g>
<!-- \\SilverStripe\\Core\\Extension -->
<g id="node63" class="node">
<title>\\SilverStripe\\Core\\Extension</title>
<ellipse fill="none" stroke="#000000" cx="254.1275" cy="-18.9227" rx="144.0747" ry="18"/>
<text text-anchor="middle" x="254.1275" y="-15.2227" font-family="Times,serif" font-size="14.00" fill="#c0c0c0">\SilverStripe\Core\Extension</text>
</g>
<!-- \\Firesphere\\SolrCompatibility\\Extensions\\FulltextSearchExtension&#45;&gt;\\SilverStripe\\Core\\Extension -->
<g id="edge2" class="edge">
<title>\\Firesphere\\SolrCompatibility\\Extensions\\FulltextSearchExtension&#45;&gt;\\SilverStripe\\Core\\Extension</title>
<path fill="none" stroke="#000000" d="M840.5088,-243.3543C833.4442,-239.8085 826.8743,-235.3985 821.2549,-229.9227 774.6022,-184.4619 828.6481,-133.611 781.2549,-88.9227 745.3221,-55.0407 716.6848,-87.4909 672.7549,-64.9227"/>
</g>
<!-- \\Firesphere\\SolrCompatibility\\Extensions\\SolrCoreServiceExtension -->
<g id="node5" class="node">
<title>\\Firesphere\\SolrCompatibility\\Extensions\\SolrCoreServiceExtension</title>
<polygon fill="none" stroke="#000000" points="1016.2549,-220.9227 837.2549,-220.9227 837.2549,-184.9227 1016.2549,-184.9227 1016.2549,-220.9227"/>
<text text-anchor="middle" x="926.7549" y="-200.1227" font-family="Courier,monospace" font-size="11.00" fill="#000000">SolrCoreServiceExtension</text>
</g>
<!-- \\Firesphere\\SolrCompatibility\\Extensions\\SolrCoreServiceExtension&#45;&gt;\\SilverStripe\\Core\\Extension -->
<g id="edge3" class="edge">
<title>\\Firesphere\\SolrCompatibility\\Extensions\\SolrCoreServiceExtension&#45;&gt;\\SilverStripe\\Core\\Extension</title>
<path fill="none" stroke="#000000" d="M909.2812,-184.8431C883.6376,-159.4122 833.1975,-113.4491 781.2549,-88.9227 736.5953,-67.8352 716.6848,-87.4909 672.7549,-64.9227"/>
<path fill="none" stroke="#000000" d="M672.7549,-64.9227C585.4855,-20.0897 474.685,-9.6181 388.9993,-9.8036"/>
<polygon fill="none" stroke="#000000" points="388.9177,-6.304 378.9425,-9.8743 388.9669,-13.3039 388.9177,-6.304"/>
</g>
<!-- \\Firesphere\\SolrSearch\\Admins\\SearchAdmin -->
<g id="node6" class="node">
<title>\\Firesphere\\SolrSearch\\Admins\\SearchAdmin</title>
<polygon fill="none" stroke="#000000" points="718.2549,-2964.9227 627.2549,-2964.9227 627.2549,-2928.9227 718.2549,-2928.9227 718.2549,-2964.9227"/>
<text text-anchor="middle" x="672.7549" y="-2944.1227" font-family="Courier,monospace" font-size="11.00" fill="#000000">SearchAdmin</text>
</g>
<!-- \\SilverStripe\\Admin\\ModelAdmin -->
<g id="node64" class="node">
<title>\\SilverStripe\\Admin\\ModelAdmin</title>
<ellipse fill="none" stroke="#000000" cx="254.1275" cy="-126.9227" rx="165.1707" ry="18"/>
<text text-anchor="middle" x="254.1275" y="-123.2227" font-family="Times,serif" font-size="14.00" fill="#c0c0c0">\SilverStripe\Admin\ModelAdmin</text>
</g>
<!-- \\Firesphere\\SolrSearch\\Admins\\SearchAdmin&#45;&gt;\\SilverStripe\\Admin\\ModelAdmin -->
<g id="edge5" class="edge">
<title>\\Firesphere\\SolrSearch\\Admins\\SearchAdmin&#45;&gt;\\SilverStripe\\Admin\\ModelAdmin</title>
<path fill="none" stroke="#000000" d="M627.2411,-2944.6631C607.2524,-2941.1774 585.3865,-2933.4667 572.2549,-2916.9227 499.8646,-2825.7206 520.2158,-1986.7463 508.2549,-1870.9227 435.9759,-1171.0054 288.4855,-321.2426 259.2349,-155.6477"/>
<polygon fill="none" stroke="#000000" points="262.5975,-154.5637 257.4082,-145.3267 255.7046,-155.7837 262.5975,-154.5637"/>
</g>
<!-- \\Firesphere\\SolrSearch\\Extensions\\DataObjectExtension -->
<g id="node7" class="node">
<title>\\Firesphere\\SolrSearch\\Extensions\\DataObjectExtension</title>
<polygon fill="none" stroke="#000000" points="745.2549,-2884.9227 600.2549,-2884.9227 600.2549,-2848.9227 745.2549,-2848.9227 745.2549,-2884.9227"/>
<text text-anchor="middle" x="672.7549" y="-2864.1227" font-family="Courier,monospace" font-size="11.00" fill="#000000">DataObjectExtension</text>
</g>
<!-- \\SilverStripe\\ORM\\DataExtension -->
<g id="node65" class="node">
<title>\\SilverStripe\\ORM\\DataExtension</title>
<ellipse fill="none" stroke="#000000" cx="254.1275" cy="-72.9227" rx="167.8704" ry="18"/>
<text text-anchor="middle" x="254.1275" y="-69.2227" font-family="Times,serif" font-size="14.00" fill="#c0c0c0">\SilverStripe\ORM\DataExtension</text>
</g>
<!-- \\Firesphere\\SolrSearch\\Extensions\\DataObjectExtension&#45;&gt;\\SilverStripe\\ORM\\DataExtension -->
<g id="edge6" class="edge">
<title>\\Firesphere\\SolrSearch\\Extensions\\DataObjectExtension&#45;&gt;\\SilverStripe\\ORM\\DataExtension</title>
<path fill="none" stroke="#000000" d="M600.011,-2859.4855C589.2499,-2855.2494 579.3974,-2849.0155 572.2549,-2839.9227 478.1979,-2720.1833 611.3903,-211.9376 508.2549,-99.9227 467.4445,-55.5987 398.4222,-50.7015 342.6022,-55.8746"/>
<polygon fill="none" stroke="#000000" points="341.9232,-52.4265 332.3428,-56.9505 342.6534,-59.3883 341.9232,-52.4265"/>
</g>
<!-- \\Firesphere\\SolrSearch\\Extensions\\GridFieldExtension -->
<g id="node8" class="node">
<title>\\Firesphere\\SolrSearch\\Extensions\\GridFieldExtension</title>
<polygon fill="none" stroke="#000000" points="741.7549,-2830.9227 603.7549,-2830.9227 603.7549,-2794.9227 741.7549,-2794.9227 741.7549,-2830.9227"/>
<text text-anchor="middle" x="672.7549" y="-2810.1227" font-family="Courier,monospace" font-size="11.00" fill="#000000">GridFieldExtension</text>
</g>
<!-- \\Firesphere\\SolrSearch\\Extensions\\GridFieldExtension&#45;&gt;\\SilverStripe\\Core\\Extension -->
<g id="edge7" class="edge">
<title>\\Firesphere\\SolrSearch\\Extensions\\GridFieldExtension&#45;&gt;\\SilverStripe\\Core\\Extension</title>
<path fill="none" stroke="#000000" d="M603.7052,-2804.7611C591.482,-2800.1789 580.1551,-2793.271 572.2549,-2782.9227 479.9605,-2662.0291 611.2789,-157.8137 508.2549,-45.9227 466.367,-.4296 394.7593,3.529 338.2112,-2.305"/>
<polygon fill="none" stroke="#000000" points="337.7334,1.1633 328.1981,-3.4548 338.5321,-5.791 337.7334,1.1633"/>
</g>
<!-- \\Firesphere\\SolrSearch\\Results\\SearchResult -->
<g id="node10" class="node">
<title>\\Firesphere\\SolrSearch\\Results\\SearchResult</title>
<polygon fill="none" stroke="#000000" points="721.7549,-2670.9227 623.7549,-2670.9227 623.7549,-2634.9227 721.7549,-2634.9227 721.7549,-2670.9227"/>
<text text-anchor="middle" x="672.7549" y="-2650.1227" font-family="Courier,monospace" font-size="11.00" fill="#000000">SearchResult</text>
</g>
<!-- \\SilverStripe\\View\\ViewableData -->
<g id="node66" class="node">
<title>\\SilverStripe\\View\\ViewableData</title>
<ellipse fill="none" stroke="#000000" cx="254.1275" cy="-3586.9227" rx="163.2712" ry="18"/>
<text text-anchor="middle" x="254.1275" y="-3583.2227" font-family="Times,serif" font-size="14.00" fill="#c0c0c0">\SilverStripe\View\ViewableData</text>
</g>
<!-- \\Firesphere\\SolrSearch\\Results\\SearchResult&#45;&gt;\\SilverStripe\\View\\ViewableData -->
<g id="edge8" class="edge">
<title>\\Firesphere\\SolrSearch\\Results\\SearchResult&#45;&gt;\\SilverStripe\\View\\ViewableData</title>
<path fill="none" stroke="#000000" d="M623.6447,-2665.8017C604.4515,-2673.3986 584.2143,-2685.132 572.2549,-2702.9227 465.7121,-2861.4155 641.1641,-3422.7859 508.2549,-3559.9227 467.123,-3602.363 399.9889,-3607.9464 345.0499,-3603.5386"/>
<polygon fill="none" stroke="#000000" points="345.2219,-3600.0397 334.9425,-3602.6059 344.5786,-3607.01 345.2219,-3600.0397"/>
</g>
<!-- \\Firesphere\\SolrSearch\\Helpers\\Synonyms -->
<g id="node11" class="node">
<title>\\Firesphere\\SolrSearch\\Helpers\\Synonyms</title>
<polygon fill="none" stroke="#000000" points="708.2549,-2590.9227 637.2549,-2590.9227 637.2549,-2554.9227 708.2549,-2554.9227 708.2549,-2590.9227"/>
<text text-anchor="middle" x="672.7549" y="-2570.1227" font-family="Courier,monospace" font-size="11.00" fill="#000000">Synonyms</text>
</g>
<!-- \\Firesphere\\SolrSearch\\Helpers\\Statics -->
<g id="node12" class="node">
<title>\\Firesphere\\SolrSearch\\Helpers\\Statics</title>
<polygon fill="none" stroke="#000000" points="704.7549,-2536.9227 640.7549,-2536.9227 640.7549,-2500.9227 704.7549,-2500.9227 704.7549,-2536.9227"/>
<text text-anchor="middle" x="672.7549" y="-2516.1227" font-family="Courier,monospace" font-size="11.00" fill="#000000">Statics</text>
</g>
<!-- \\Firesphere\\SolrSearch\\Helpers\\SolrLogger -->
<g id="node13" class="node">
<title>\\Firesphere\\SolrSearch\\Helpers\\SolrLogger</title>
<polygon fill="none" stroke="#000000" points="714.7549,-2482.9227 630.7549,-2482.9227 630.7549,-2446.9227 714.7549,-2446.9227 714.7549,-2482.9227"/>
<text text-anchor="middle" x="672.7549" y="-2462.1227" font-family="Courier,monospace" font-size="11.00" fill="#000000">SolrLogger</text>
</g>
<!-- \\Firesphere\\SolrSearch\\Helpers\\DataResolver -->
<g id="node14" class="node">
<title>\\Firesphere\\SolrSearch\\Helpers\\DataResolver</title>
<polygon fill="none" stroke="#000000" points="721.7549,-2428.9227 623.7549,-2428.9227 623.7549,-2392.9227 721.7549,-2392.9227 721.7549,-2428.9227"/>
<text text-anchor="middle" x="672.7549" y="-2408.1227" font-family="Courier,monospace" font-size="11.00" fill="#000000">DataResolver</text>
</g>
<!-- \\Firesphere\\SolrSearch\\Helpers\\FieldResolver -->
<g id="node15" class="node">
<title>\\Firesphere\\SolrSearch\\Helpers\\FieldResolver</title>
<polygon fill="none" stroke="#000000" points="724.7549,-2374.9227 620.7549,-2374.9227 620.7549,-2338.9227 724.7549,-2338.9227 724.7549,-2374.9227"/>
<text text-anchor="middle" x="672.7549" y="-2354.1227" font-family="Courier,monospace" font-size="11.00" fill="#000000">FieldResolver</text>
</g>
<!-- \\Firesphere\\SolrSearch\\Models\\DirtyClass -->
<g id="node16" class="node">
<title>\\Firesphere\\SolrSearch\\Models\\DirtyClass</title>
<polygon fill="none" stroke="#000000" points="714.7549,-2294.9227 630.7549,-2294.9227 630.7549,-2258.9227 714.7549,-2258.9227 714.7549,-2294.9227"/>
<text text-anchor="middle" x="672.7549" y="-2274.1227" font-family="Courier,monospace" font-size="11.00" fill="#000000">DirtyClass</text>
</g>
<!-- \\SilverStripe\\ORM\\DataObject -->
<g id="node67" class="node">
<title>\\SilverStripe\\ORM\\DataObject</title>
<ellipse fill="none" stroke="#000000" cx="254.1275" cy="-3694.9227" rx="152.9733" ry="18"/>
<text text-anchor="middle" x="254.1275" y="-3691.2227" font-family="Times,serif" font-size="14.00" fill="#c0c0c0">\SilverStripe\ORM\DataObject</text>
</g>
<!-- \\Firesphere\\SolrSearch\\Models\\DirtyClass&#45;&gt;\\SilverStripe\\ORM\\DataObject -->
<g id="edge9" class="edge">
<title>\\Firesphere\\SolrSearch\\Models\\DirtyClass&#45;&gt;\\SilverStripe\\ORM\\DataObject</title>
<path fill="none" stroke="#000000" d="M630.6874,-2286.9553C609.458,-2294.3252 585.4659,-2306.6885 572.2549,-2326.9227 490.7043,-2451.8269 610.6223,-3559.4216 508.2549,-3667.9227 466.6932,-3711.9747 397.2005,-3716.7247 341.3803,-3711.5609"/>
<polygon fill="none" stroke="#000000" points="341.4361,-3708.0477 331.1263,-3710.4885 340.708,-3715.0097 341.4361,-3708.0477"/>
</g>
<!-- \\Firesphere\\SolrSearch\\Models\\SearchSynonym -->
<g id="node17" class="node">
<title>\\Firesphere\\SolrSearch\\Models\\SearchSynonym</title>
<polygon fill="none" stroke="#000000" points="724.7549,-2240.9227 620.7549,-2240.9227 620.7549,-2204.9227 724.7549,-2204.9227 724.7549,-2240.9227"/>
<text text-anchor="middle" x="672.7549" y="-2220.1227" font-family="Courier,monospace" font-size="11.00" fill="#000000">SearchSynonym</text>
</g>
<!-- \\Firesphere\\SolrSearch\\Models\\SearchSynonym&#45;&gt;\\SilverStripe\\ORM\\DataObject -->
<g id="edge10" class="edge">
<title>\\Firesphere\\SolrSearch\\Models\\SearchSynonym&#45;&gt;\\SilverStripe\\ORM\\DataObject</title>
<path fill="none" stroke="#000000" d="M620.7202,-2224.7315C602.6336,-2228.1407 583.9649,-2235.3444 572.2549,-2249.9227 473.487,-2372.8829 616.3388,-3553.0654 508.2549,-3667.9227 466.6787,-3712.1044 397.014,-3716.7911 341.1288,-3711.5691"/>
<polygon fill="none" stroke="#000000" points="341.1762,-3708.0547 330.8641,-3710.486 340.4416,-3715.0161 341.1762,-3708.0547"/>
</g>
<!-- \\Firesphere\\SolrSearch\\Models\\SolrLog -->
<g id="node18" class="node">
<title>\\Firesphere\\SolrSearch\\Models\\SolrLog</title>
<polygon fill="none" stroke="#000000" points="704.7549,-2186.9227 640.7549,-2186.9227 640.7549,-2150.9227 704.7549,-2150.9227 704.7549,-2186.9227"/>
<text text-anchor="middle" x="672.7549" y="-2166.1227" font-family="Courier,monospace" font-size="11.00" fill="#000000">SolrLog</text>
</g>
<!-- \\Firesphere\\SolrSearch\\Models\\SolrLog&#45;&gt;\\SilverStripe\\ORM\\DataObject -->
<g id="edge11" class="edge">
<title>\\Firesphere\\SolrSearch\\Models\\SolrLog&#45;&gt;\\SilverStripe\\ORM\\DataObject</title>
<path fill="none" stroke="#000000" d="M640.7447,-2168.2794C617.882,-2169.7046 588.4173,-2175.7674 572.2549,-2195.9227 469.8387,-2323.6408 620.348,-3548.6075 508.2549,-3667.9227 466.7152,-3712.1388 397.048,-3716.8231 341.1526,-3711.5915"/>
<polygon fill="none" stroke="#000000" points="341.1983,-3708.0769 330.8859,-3710.5065 340.4626,-3715.0381 341.1983,-3708.0769"/>
</g>
<!-- \\SilverStripe\\Security\\PermissionProvider -->
<g id="node68" class="node">
<title>\\SilverStripe\\Security\\PermissionProvider</title>
<ellipse fill="none" stroke="#000000" cx="254.1275" cy="-3640.9227" rx="206.0634" ry="18"/>
<text text-anchor="middle" x="254.1275" y="-3637.2227" font-family="Times,serif" font-size="14.00" fill="#c0c0c0">\SilverStripe\Security\PermissionProvider</text>
</g>
<!-- \\Firesphere\\SolrSearch\\Models\\SolrLog&#45;&gt;\\SilverStripe\\Security\\PermissionProvider -->
<g id="edge12" class="edge">
<title>\\Firesphere\\SolrSearch\\Models\\SolrLog&#45;&gt;\\SilverStripe\\Security\\PermissionProvider</title>
<path fill="none" stroke="#000000" stroke-dasharray="1,5" d="M640.7544,-2168.2872C617.8967,-2169.7164 588.434,-2175.7807 572.2549,-2195.9227 473.487,-2318.8829 616.3388,-3499.0654 508.2549,-3613.9227 468.6108,-3656.0512 403.4282,-3662.2702 349.0051,-3658.23"/>
<polygon fill="none" stroke="#000000" points="349.2414,-3654.7374 338.9769,-3657.3625 348.6381,-3661.7114 349.2414,-3654.7374"/>
</g>
<!-- \\Firesphere\\SolrSearch\\Stores\\FileConfigStore -->
<g id="node20" class="node">
<title>\\Firesphere\\SolrSearch\\Stores\\FileConfigStore</title>
<polygon fill="none" stroke="#000000" points="731.7549,-2026.9227 613.7549,-2026.9227 613.7549,-1990.9227 731.7549,-1990.9227 731.7549,-2026.9227"/>
<text text-anchor="middle" x="672.7549" y="-2006.1227" font-family="Courier,monospace" font-size="11.00" fill="#000000">FileConfigStore</text>
</g>
<!-- \\Firesphere\\SolrSearch\\Interfaces\\ConfigStore -->
<g id="node38" class="node">
<title>\\Firesphere\\SolrSearch\\Interfaces\\ConfigStore</title>
<polygon fill="none" stroke="#000000" points="299.6275,-1972.9227 208.6275,-1972.9227 208.6275,-1936.9227 299.6275,-1936.9227 299.6275,-1972.9227"/>
<text text-anchor="middle" x="254.1275" y="-1952.1227" font-family="Courier,monospace" font-size="11.00" fill="#000000">ConfigStore</text>
</g>
<!-- \\Firesphere\\SolrSearch\\Stores\\FileConfigStore&#45;&gt;\\Firesphere\\SolrSearch\\Interfaces\\ConfigStore -->
<g id="edge13" class="edge">
<title>\\Firesphere\\SolrSearch\\Stores\\FileConfigStore&#45;&gt;\\Firesphere\\SolrSearch\\Interfaces\\ConfigStore</title>
<path fill="none" stroke="#000000" stroke-dasharray="1,5" d="M613.6637,-2001.3003C532.8854,-1990.8805 389.0185,-1972.3227 309.9722,-1962.1263"/>
<polygon fill="none" stroke="#000000" points="310.0944,-1958.6131 299.7287,-1960.8049 309.1988,-1965.5556 310.0944,-1958.6131"/>
</g>
<!-- \\Firesphere\\SolrSearch\\Stores\\PostConfigStore -->
<g id="node21" class="node">
<title>\\Firesphere\\SolrSearch\\Stores\\PostConfigStore</title>
<polygon fill="none" stroke="#000000" points="731.7549,-1972.9227 613.7549,-1972.9227 613.7549,-1936.9227 731.7549,-1936.9227 731.7549,-1972.9227"/>
<text text-anchor="middle" x="672.7549" y="-1952.1227" font-family="Courier,monospace" font-size="11.00" fill="#000000">PostConfigStore</text>
</g>
<!-- \\Firesphere\\SolrSearch\\Stores\\PostConfigStore&#45;&gt;\\Firesphere\\SolrSearch\\Interfaces\\ConfigStore -->
<g id="edge14" class="edge">
<title>\\Firesphere\\SolrSearch\\Stores\\PostConfigStore&#45;&gt;\\Firesphere\\SolrSearch\\Interfaces\\ConfigStore</title>
<path fill="none" stroke="#000000" stroke-dasharray="1,5" d="M613.6637,-1954.9227C532.8854,-1954.9227 389.0185,-1954.9227 309.9722,-1954.9227"/>
<polygon fill="none" stroke="#000000" points="309.7288,-1951.4228 299.7287,-1954.9227 309.7287,-1958.4228 309.7288,-1951.4228"/>
</g>
<!-- \\Firesphere\\SolrSearch\\Traits\\BaseQueryTrait -->
<g id="node22" class="node">
<title>\\Firesphere\\SolrSearch\\Traits\\BaseQueryTrait</title>
<polygon fill="none" stroke="#000000" points="728.2549,-1892.9227 617.2549,-1892.9227 617.2549,-1856.9227 728.2549,-1856.9227 728.2549,-1892.9227"/>
<text text-anchor="middle" x="672.7549" y="-1872.1227" font-family="Courier,monospace" font-size="11.00" fill="#000000">BaseQueryTrait</text>
</g>
<!-- \\Firesphere\\SolrSearch\\Traits\\CoreServiceTrait -->
<g id="node23" class="node">
<title>\\Firesphere\\SolrSearch\\Traits\\CoreServiceTrait</title>
<polygon fill="none" stroke="#000000" points="735.2549,-1838.9227 610.2549,-1838.9227 610.2549,-1802.9227 735.2549,-1802.9227 735.2549,-1838.9227"/>
<text text-anchor="middle" x="672.7549" y="-1818.1227" font-family="Courier,monospace" font-size="11.00" fill="#000000">CoreServiceTrait</text>
</g>
<!-- \\Firesphere\\SolrSearch\\Traits\\CoreAdminTrait -->
<g id="node24" class="node">
<title>\\Firesphere\\SolrSearch\\Traits\\CoreAdminTrait</title>
<polygon fill="none" stroke="#000000" points="728.2549,-1784.9227 617.2549,-1784.9227 617.2549,-1748.9227 728.2549,-1748.9227 728.2549,-1784.9227"/>
<text text-anchor="middle" x="672.7549" y="-1764.1227" font-family="Courier,monospace" font-size="11.00" fill="#000000">CoreAdminTrait</text>
</g>
<!-- \\Firesphere\\SolrSearch\\Traits\\LoggerTrait -->
<g id="node25" class="node">
<title>\\Firesphere\\SolrSearch\\Traits\\LoggerTrait</title>
<polygon fill="none" stroke="#000000" points="718.2549,-1730.9227 627.2549,-1730.9227 627.2549,-1694.9227 718.2549,-1694.9227 718.2549,-1730.9227"/>
<text text-anchor="middle" x="672.7549" y="-1710.1227" font-family="Courier,monospace" font-size="11.00" fill="#000000">LoggerTrait</text>
</g>
<!-- \\Firesphere\\SolrSearch\\Traits\\DocumentFactoryTrait -->
<g id="node26" class="node">
<title>\\Firesphere\\SolrSearch\\Traits\\DocumentFactoryTrait</title>
<polygon fill="none" stroke="#000000" points="748.7549,-1676.9227 596.7549,-1676.9227 596.7549,-1640.9227 748.7549,-1640.9227 748.7549,-1676.9227"/>
<text text-anchor="middle" x="672.7549" y="-1656.1227" font-family="Courier,monospace" font-size="11.00" fill="#000000">DocumentFactoryTrait</text>
</g>
<!-- \\Firesphere\\SolrSearch\\Traits\\GetSetSchemaServiceTrait -->
<g id="node27" class="node">
<title>\\Firesphere\\SolrSearch\\Traits\\GetSetSchemaServiceTrait</title>
<polygon fill="none" stroke="#000000" points="762.2549,-1622.9227 583.2549,-1622.9227 583.2549,-1586.9227 762.2549,-1586.9227 762.2549,-1622.9227"/>
<text text-anchor="middle" x="672.7549" y="-1602.1227" font-family="Courier,monospace" font-size="11.00" fill="#000000">GetSetSchemaServiceTrait</text>
</g>
<!-- \\Firesphere\\SolrSearch\\Traits\\QueryComponentFilterTrait -->
<g id="node28" class="node">
<title>\\Firesphere\\SolrSearch\\Traits\\QueryComponentFilterTrait</title>
<polygon fill="none" stroke="#000000" points="765.2549,-1568.9227 580.2549,-1568.9227 580.2549,-1532.9227 765.2549,-1532.9227 765.2549,-1568.9227"/>
<text text-anchor="middle" x="672.7549" y="-1548.1227" font-family="Courier,monospace" font-size="11.00" fill="#000000">QueryComponentFilterTrait</text>
</g>
<!-- \\Firesphere\\SolrSearch\\Traits\\QueryComponentFacetTrait -->
<g id="node29" class="node">
<title>\\Firesphere\\SolrSearch\\Traits\\QueryComponentFacetTrait</title>
<polygon fill="none" stroke="#000000" points="762.2549,-1514.9227 583.2549,-1514.9227 583.2549,-1478.9227 762.2549,-1478.9227 762.2549,-1514.9227"/>
<text text-anchor="middle" x="672.7549" y="-1494.1227" font-family="Courier,monospace" font-size="11.00" fill="#000000">QueryComponentFacetTrait</text>
</g>
<!-- \\Firesphere\\SolrSearch\\Traits\\QueryComponentBoostTrait -->
<g id="node30" class="node">
<title>\\Firesphere\\SolrSearch\\Traits\\QueryComponentBoostTrait</title>
<polygon fill="none" stroke="#000000" points="762.2549,-1460.9227 583.2549,-1460.9227 583.2549,-1424.9227 762.2549,-1424.9227 762.2549,-1460.9227"/>
<text text-anchor="middle" x="672.7549" y="-1440.1227" font-family="Courier,monospace" font-size="11.00" fill="#000000">QueryComponentBoostTrait</text>
</g>
<!-- \\Firesphere\\SolrSearch\\Traits\\BaseIndexTrait -->
<g id="node31" class="node">
<title>\\Firesphere\\SolrSearch\\Traits\\BaseIndexTrait</title>
<polygon fill="none" stroke="#000000" points="728.2549,-1406.9227 617.2549,-1406.9227 617.2549,-1370.9227 728.2549,-1370.9227 728.2549,-1406.9227"/>
<text text-anchor="middle" x="672.7549" y="-1386.1227" font-family="Courier,monospace" font-size="11.00" fill="#000000">BaseIndexTrait</text>
</g>
<!-- \\Firesphere\\SolrSearch\\Traits\\SolrIndexTrait -->
<g id="node32" class="node">
<title>\\Firesphere\\SolrSearch\\Traits\\SolrIndexTrait</title>
<polygon fill="none" stroke="#000000" points="728.2549,-1352.9227 617.2549,-1352.9227 617.2549,-1316.9227 728.2549,-1316.9227 728.2549,-1352.9227"/>
<text text-anchor="middle" x="672.7549" y="-1332.1227" font-family="Courier,monospace" font-size="11.00" fill="#000000">SolrIndexTrait</text>
</g>
<!-- \\Firesphere\\SolrSearch\\Traits\\DataResolveTrait -->
<g id="node33" class="node">
<title>\\Firesphere\\SolrSearch\\Traits\\DataResolveTrait</title>
<polygon fill="none" stroke="#000000" points="735.2549,-1298.9227 610.2549,-1298.9227 610.2549,-1262.9227 735.2549,-1262.9227 735.2549,-1298.9227"/>
<text text-anchor="middle" x="672.7549" y="-1278.1227" font-family="Courier,monospace" font-size="11.00" fill="#000000">DataResolveTrait</text>
</g>
<!-- \\Firesphere\\SolrSearch\\Traits\\GetterSetterTrait -->
<g id="node34" class="node">
<title>\\Firesphere\\SolrSearch\\Traits\\GetterSetterTrait</title>
<polygon fill="none" stroke="#000000" points="738.2549,-1244.9227 607.2549,-1244.9227 607.2549,-1208.9227 738.2549,-1208.9227 738.2549,-1244.9227"/>
<text text-anchor="middle" x="672.7549" y="-1224.1227" font-family="Courier,monospace" font-size="11.00" fill="#000000">GetterSetterTrait</text>
</g>
<!-- \\Firesphere\\SolrSearch\\Traits\\GetSetSearchResolverTrait -->
<g id="node35" class="node">
<title>\\Firesphere\\SolrSearch\\Traits\\GetSetSearchResolverTrait</title>
<polygon fill="none" stroke="#000000" points="765.2549,-1190.9227 580.2549,-1190.9227 580.2549,-1154.9227 765.2549,-1154.9227 765.2549,-1190.9227"/>
<text text-anchor="middle" x="672.7549" y="-1170.1227" font-family="Courier,monospace" font-size="11.00" fill="#000000">GetSetSearchResolverTrait</text>
</g>
<!-- \\Firesphere\\SolrSearch\\Traits\\SearchResultSetTrait -->
<g id="node36" class="node">
<title>\\Firesphere\\SolrSearch\\Traits\\SearchResultSetTrait</title>
<polygon fill="none" stroke="#000000" points="748.7549,-1136.9227 596.7549,-1136.9227 596.7549,-1100.9227 748.7549,-1100.9227 748.7549,-1136.9227"/>
<text text-anchor="middle" x="672.7549" y="-1116.1227" font-family="Courier,monospace" font-size="11.00" fill="#000000">SearchResultSetTrait</text>
</g>
<!-- \\Firesphere\\SolrSearch\\Traits\\SearchResultGetTrait -->
<g id="node37" class="node">
<title>\\Firesphere\\SolrSearch\\Traits\\SearchResultGetTrait</title>
<polygon fill="none" stroke="#000000" points="748.7549,-1082.9227 596.7549,-1082.9227 596.7549,-1046.9227 748.7549,-1046.9227 748.7549,-1082.9227"/>
<text text-anchor="middle" x="672.7549" y="-1062.1227" font-family="Courier,monospace" font-size="11.00" fill="#000000">SearchResultGetTrait</text>
</g>
<!-- \\Firesphere\\SolrSearch\\Interfaces\\SiteStateInterface -->
<g id="node39" class="node">
<title>\\Firesphere\\SolrSearch\\Interfaces\\SiteStateInterface</title>
<polygon fill="none" stroke="#000000" points="323.1275,-1918.9227 185.1275,-1918.9227 185.1275,-1882.9227 323.1275,-1882.9227 323.1275,-1918.9227"/>
<text text-anchor="middle" x="254.1275" y="-1898.1227" font-family="Courier,monospace" font-size="11.00" fill="#000000">SiteStateInterface</text>
</g>
<!-- \\Firesphere\\SolrSearch\\Jobs\\SolrConfigureJob -->
<g id="node40" class="node">
<title>\\Firesphere\\SolrSearch\\Jobs\\SolrConfigureJob</title>
<polygon fill="none" stroke="#000000" points="735.2549,-868.9227 610.2549,-868.9227 610.2549,-832.9227 735.2549,-832.9227 735.2549,-868.9227"/>
<text text-anchor="middle" x="672.7549" y="-848.1227" font-family="Courier,monospace" font-size="11.00" fill="#000000">SolrConfigureJob</text>
</g>
<!-- \\Symbiote\\QueuedJobs\\Services\\AbstractQueuedJob -->
<g id="node69" class="node">
<title>\\Symbiote\\QueuedJobs\\Services\\AbstractQueuedJob</title>
<ellipse fill="none" stroke="#000000" cx="254.1275" cy="-3532.9227" rx="254.255" ry="18"/>
<text text-anchor="middle" x="254.1275" y="-3529.2227" font-family="Times,serif" font-size="14.00" fill="#c0c0c0">\Symbiote\QueuedJobs\Services\AbstractQueuedJob</text>
</g>
<!-- \\Firesphere\\SolrSearch\\Jobs\\SolrConfigureJob&#45;&gt;\\Symbiote\\QueuedJobs\\Services\\AbstractQueuedJob -->
<g id="edge15" class="edge">
<title>\\Firesphere\\SolrSearch\\Jobs\\SolrConfigureJob&#45;&gt;\\Symbiote\\QueuedJobs\\Services\\AbstractQueuedJob</title>
<path fill="none" stroke="#000000" d="M610.828,-868.9524C595.7157,-876.383 581.3068,-886.7021 572.2549,-900.9227 494.5187,-1023.0466 606.3761,-3399.483 508.2549,-3505.9227 469.541,-3547.9187 405.4981,-3554.5048 351.3914,-3550.6745"/>
<polygon fill="none" stroke="#000000" points="351.6683,-3547.1856 341.4125,-3549.8443 351.0878,-3554.1615 351.6683,-3547.1856"/>
</g>
<!-- \\Firesphere\\SolrSearch\\Jobs\\SolrIndexJob -->
<g id="node41" class="node">
<title>\\Firesphere\\SolrSearch\\Jobs\\SolrIndexJob</title>
<polygon fill="none" stroke="#000000" points="721.7549,-814.9227 623.7549,-814.9227 623.7549,-778.9227 721.7549,-778.9227 721.7549,-814.9227"/>
<text text-anchor="middle" x="672.7549" y="-794.1227" font-family="Courier,monospace" font-size="11.00" fill="#000000">SolrIndexJob</text>
</g>
<!-- \\Firesphere\\SolrSearch\\Jobs\\SolrIndexJob&#45;&gt;\\Symbiote\\QueuedJobs\\Services\\AbstractQueuedJob -->
<g id="edge16" class="edge">
<title>\\Firesphere\\SolrSearch\\Jobs\\SolrIndexJob&#45;&gt;\\Symbiote\\QueuedJobs\\Services\\AbstractQueuedJob</title>
<path fill="none" stroke="#000000" d="M623.6967,-798.0477C604.6332,-801.1807 584.4792,-808.3686 572.2549,-823.9227 480.1582,-941.1057 609.236,-3396.3031 508.2549,-3505.9227 469.5558,-3547.9324 405.5128,-3554.5184 351.4024,-3550.6847"/>
<polygon fill="none" stroke="#000000" points="351.6787,-3547.1956 341.4227,-3549.8538 351.0978,-3554.1715 351.6787,-3547.1956"/>
</g>
<!-- \\Firesphere\\SolrSearch\\Jobs\\ClearDirtyClassesJob -->
<g id="node42" class="node">
<title>\\Firesphere\\SolrSearch\\Jobs\\ClearDirtyClassesJob</title>
<polygon fill="none" stroke="#000000" points="748.7549,-760.9227 596.7549,-760.9227 596.7549,-724.9227 748.7549,-724.9227 748.7549,-760.9227"/>
<text text-anchor="middle" x="672.7549" y="-740.1227" font-family="Courier,monospace" font-size="11.00" fill="#000000">ClearDirtyClassesJob</text>
</g>
<!-- \\Firesphere\\SolrSearch\\Jobs\\ClearDirtyClassesJob&#45;&gt;\\Symbiote\\QueuedJobs\\Services\\AbstractQueuedJob -->
<g id="edge17" class="edge">
<title>\\Firesphere\\SolrSearch\\Jobs\\ClearDirtyClassesJob&#45;&gt;\\Symbiote\\QueuedJobs\\Services\\AbstractQueuedJob</title>
<path fill="none" stroke="#000000" d="M596.5153,-751.8229C587.1273,-755.994 578.6163,-761.8245 572.2549,-769.9227 478.3331,-889.4858 611.2417,-3394.073 508.2549,-3505.9227 469.5657,-3547.9415 405.5226,-3554.5274 351.4097,-3550.6914"/>
<polygon fill="none" stroke="#000000" points="351.6856,-3547.2024 341.4295,-3549.8601 351.1045,-3554.1782 351.6856,-3547.2024"/>
</g>
<!-- \\Firesphere\\SolrSearch\\Tasks\\SolrConfigureTask -->
<g id="node43" class="node">
<title>\\Firesphere\\SolrSearch\\Tasks\\SolrConfigureTask</title>
<polygon fill="none" stroke="#000000" points="738.2549,-572.9227 607.2549,-572.9227 607.2549,-536.9227 738.2549,-536.9227 738.2549,-572.9227"/>
<text text-anchor="middle" x="672.7549" y="-552.1227" font-family="Courier,monospace" font-size="11.00" fill="#000000">SolrConfigureTask</text>
</g>
<!-- \\SilverStripe\\Dev\\BuildTask -->
<g id="node70" class="node">
<title>\\SilverStripe\\Dev\\BuildTask</title>
<ellipse fill="none" stroke="#000000" cx="254.1275" cy="-3478.9227" rx="139.9756" ry="18"/>
<text text-anchor="middle" x="254.1275" y="-3475.2227" font-family="Times,serif" font-size="14.00" fill="#c0c0c0">\SilverStripe\Dev\BuildTask</text>
</g>
<!-- \\Firesphere\\SolrSearch\\Tasks\\SolrConfigureTask&#45;&gt;\\SilverStripe\\Dev\\BuildTask -->
<g id="edge18" class="edge">
<title>\\Firesphere\\SolrSearch\\Tasks\\SolrConfigureTask&#45;&gt;\\SilverStripe\\Dev\\BuildTask</title>
<path fill="none" stroke="#000000" d="M607.1761,-559.851C593.6819,-563.9991 580.954,-570.8363 572.2549,-581.9227 473.8041,-707.3923 616.2189,-3334.539 508.2549,-3451.9227 466.1791,-3497.6695 394.054,-3501.4342 337.3665,-3495.4649"/>
<polygon fill="none" stroke="#000000" points="337.6714,-3491.9767 327.3325,-3494.2913 336.8582,-3498.9294 337.6714,-3491.9767"/>
</g>
<!-- \\Firesphere\\SolrSearch\\Tasks\\ClearErrorsTask -->
<g id="node44" class="node">
<title>\\Firesphere\\SolrSearch\\Tasks\\ClearErrorsTask</title>
<polygon fill="none" stroke="#000000" points="731.7549,-518.9227 613.7549,-518.9227 613.7549,-482.9227 731.7549,-482.9227 731.7549,-518.9227"/>
<text text-anchor="middle" x="672.7549" y="-498.1227" font-family="Courier,monospace" font-size="11.00" fill="#000000">ClearErrorsTask</text>
</g>
<!-- \\Firesphere\\SolrSearch\\Tasks\\ClearErrorsTask&#45;&gt;\\SilverStripe\\Dev\\BuildTask -->
<g id="edge19" class="edge">
<title>\\Firesphere\\SolrSearch\\Tasks\\ClearErrorsTask&#45;&gt;\\SilverStripe\\Dev\\BuildTask</title>
<path fill="none" stroke="#000000" d="M613.7059,-504.0549C597.8614,-507.9141 582.3454,-515.0575 572.2549,-527.9227 471.9789,-655.7725 618.2247,-3332.3088 508.2549,-3451.9227 466.1886,-3497.6782 394.0625,-3501.442 337.3723,-3495.4702"/>
<polygon fill="none" stroke="#000000" points="337.6767,-3491.982 327.3378,-3494.2962 336.8633,-3498.9346 337.6767,-3491.982"/>
</g>
<!-- \\Firesphere\\SolrSearch\\Tasks\\SolrIndexTask -->
<g id="node45" class="node">
<title>\\Firesphere\\SolrSearch\\Tasks\\SolrIndexTask</title>
<polygon fill="none" stroke="#000000" points="724.7549,-680.9227 620.7549,-680.9227 620.7549,-644.9227 724.7549,-644.9227 724.7549,-680.9227"/>
<text text-anchor="middle" x="672.7549" y="-660.1227" font-family="Courier,monospace" font-size="11.00" fill="#000000">SolrIndexTask</text>
</g>
<!-- \\Firesphere\\SolrSearch\\Tasks\\SolrIndexTask&#45;&gt;\\SilverStripe\\Dev\\BuildTask -->
<g id="edge20" class="edge">
<title>\\Firesphere\\SolrSearch\\Tasks\\SolrIndexTask&#45;&gt;\\SilverStripe\\Dev\\BuildTask</title>
<path fill="none" stroke="#000000" d="M620.5645,-676.5644C602.1119,-684.1398 583.2324,-695.6541 572.2549,-712.9227 490.5994,-841.3739 611.3532,-3339.9491 508.2549,-3451.9227 466.1548,-3497.6471 394.0319,-3501.4139 337.3515,-3495.4511"/>
<polygon fill="none" stroke="#000000" points="337.6575,-3491.9631 327.3188,-3494.2788 336.845,-3498.9158 337.6575,-3491.9631"/>
</g>
<!-- \\Firesphere\\SolrSearch\\Tasks\\ClearDirtyClassesTask -->
<g id="node46" class="node">
<title>\\Firesphere\\SolrSearch\\Tasks\\ClearDirtyClassesTask</title>
<polygon fill="none" stroke="#000000" points="751.7549,-626.9227 593.7549,-626.9227 593.7549,-590.9227 751.7549,-590.9227 751.7549,-626.9227"/>
<text text-anchor="middle" x="672.7549" y="-606.1227" font-family="Courier,monospace" font-size="11.00" fill="#000000">ClearDirtyClassesTask</text>
</g>
<!-- \\Firesphere\\SolrSearch\\Tasks\\ClearDirtyClassesTask&#45;&gt;\\SilverStripe\\Dev\\BuildTask -->
<g id="edge21" class="edge">
<title>\\Firesphere\\SolrSearch\\Tasks\\ClearDirtyClassesTask&#45;&gt;\\SilverStripe\\Dev\\BuildTask</title>
<path fill="none" stroke="#000000" d="M593.5766,-619.1923C585.3555,-623.2436 577.9443,-628.6751 572.2549,-635.9227 475.6292,-759.012 614.2132,-3336.7691 508.2549,-3451.9227 466.1694,-3497.6605 394.0451,-3501.426 337.3604,-3495.4593"/>
<polygon fill="none" stroke="#000000" points="337.6658,-3491.9713 327.327,-3494.2863 336.8529,-3498.9239 337.6658,-3491.9713"/>
</g>
<!-- \\Firesphere\\SolrSearch\\Services\\SchemaService -->
<g id="node47" class="node">
<title>\\Firesphere\\SolrSearch\\Services\\SchemaService</title>
<polygon fill="none" stroke="#000000" points="724.7549,-1002.9227 620.7549,-1002.9227 620.7549,-966.9227 724.7549,-966.9227 724.7549,-1002.9227"/>
<text text-anchor="middle" x="672.7549" y="-982.1227" font-family="Courier,monospace" font-size="11.00" fill="#000000">SchemaService</text>
</g>
<!-- \\Firesphere\\SolrSearch\\Services\\SchemaService&#45;&gt;\\SilverStripe\\View\\ViewableData -->
<g id="edge22" class="edge">
<title>\\Firesphere\\SolrSearch\\Services\\SchemaService&#45;&gt;\\SilverStripe\\View\\ViewableData</title>
<path fill="none" stroke="#000000" d="M620.5823,-998.5758C602.132,-1006.1526 583.2495,-1017.665 572.2549,-1034.9227 496.8584,-1153.2691 603.4047,-3456.7868 508.2549,-3559.9227 467.2589,-3604.3596 397.9021,-3609.1393 341.9933,-3603.8899"/>
<polygon fill="none" stroke="#000000" points="342.0336,-3600.3747 331.7202,-3602.8003 341.2953,-3607.3356 342.0336,-3600.3747"/>
</g>
<!-- \\Firesphere\\SolrSearch\\Services\\SolrCoreService -->
<g id="node48" class="node">
<title>\\Firesphere\\SolrSearch\\Services\\SolrCoreService</title>
<polygon fill="none" stroke="#000000" points="731.7549,-948.9227 613.7549,-948.9227 613.7549,-912.9227 731.7549,-912.9227 731.7549,-948.9227"/>
<text text-anchor="middle" x="672.7549" y="-928.1227" font-family="Courier,monospace" font-size="11.00" fill="#000000">SolrCoreService</text>
</g>
<!-- \\Firesphere\\SolrSearch\\Factories\\QueryComponentFactory -->
<g id="node49" class="node">
<title>\\Firesphere\\SolrSearch\\Factories\\QueryComponentFactory</title>
<polygon fill="none" stroke="#000000" points="751.7549,-438.9227 593.7549,-438.9227 593.7549,-402.9227 751.7549,-402.9227 751.7549,-438.9227"/>
<text text-anchor="middle" x="672.7549" y="-418.1227" font-family="Courier,monospace" font-size="11.00" fill="#000000">QueryComponentFactory</text>
</g>
<!-- \\Firesphere\\SolrSearch\\Factories\\DocumentFactory -->
<g id="node50" class="node">
<title>\\Firesphere\\SolrSearch\\Factories\\DocumentFactory</title>
<polygon fill="none" stroke="#000000" points="731.7549,-384.9227 613.7549,-384.9227 613.7549,-348.9227 731.7549,-348.9227 731.7549,-384.9227"/>
<text text-anchor="middle" x="672.7549" y="-364.1227" font-family="Courier,monospace" font-size="11.00" fill="#000000">DocumentFactory</text>
</g>
<!-- \\Firesphere\\SolrSearch\\Forms\\SearchForm -->
<g id="node51" class="node">
<title>\\Firesphere\\SolrSearch\\Forms\\SearchForm</title>
<polygon fill="none" stroke="#000000" points="714.7549,-304.9227 630.7549,-304.9227 630.7549,-268.9227 714.7549,-268.9227 714.7549,-304.9227"/>
<text text-anchor="middle" x="672.7549" y="-284.1227" font-family="Courier,monospace" font-size="11.00" fill="#000000">SearchForm</text>
</g>
<!-- \\SilverStripe\\Forms\\Form -->
<g id="node71" class="node">
<title>\\SilverStripe\\Forms\\Form</title>
<ellipse fill="none" stroke="#000000" cx="254.1275" cy="-3424.9227" rx="129.1772" ry="18"/>
<text text-anchor="middle" x="254.1275" y="-3421.2227" font-family="Times,serif" font-size="14.00" fill="#c0c0c0">\SilverStripe\Forms\Form</text>
</g>
<!-- \\Firesphere\\SolrSearch\\Forms\\SearchForm&#45;&gt;\\SilverStripe\\Forms\\Form -->
<g id="edge23" class="edge">
<title>\\Firesphere\\SolrSearch\\Forms\\SearchForm&#45;&gt;\\SilverStripe\\Forms\\Form</title>
<path fill="none" stroke="#000000" d="M630.6119,-296.9062C609.3604,-304.2619 585.3713,-316.6271 572.2549,-336.9227 471.5853,-492.6938 528.195,-1820.528 508.2549,-2004.9227 447.0499,-2570.9123 294.1755,-3251.3474 260.6806,-3396.7445"/>
<polygon fill="none" stroke="#000000" points="257.2342,-3396.1136 258.3935,-3406.6448 264.0546,-3397.6892 257.2342,-3396.1136"/>
</g>
<!-- \\Firesphere\\SolrSearch\\States\\SiteState -->
<g id="node52" class="node">
<title>\\Firesphere\\SolrSearch\\States\\SiteState</title>
<polygon fill="none" stroke="#000000" points="714.7549,-224.9227 630.7549,-224.9227 630.7549,-188.9227 714.7549,-188.9227 714.7549,-224.9227"/>
<text text-anchor="start" x="638.7549" y="-210.1227" font-family="Courier,monospace" font-size="11.00" fill="#000000">«abstract»</text>
<text text-anchor="start" x="642.2549" y="-198.1227" font-family="Courier,monospace" font-size="11.00" fill="#000000">SiteState</text>
</g>
<!-- \\Firesphere\\SolrFluent\\Extensions\\FluentIndexExtension -->
<g id="node53" class="node">
<title>\\Firesphere\\SolrFluent\\Extensions\\FluentIndexExtension</title>
<polygon fill="none" stroke="#000000" points="1002.7549,-668.9227 850.7549,-668.9227 850.7549,-632.9227 1002.7549,-632.9227 1002.7549,-668.9227"/>
<text text-anchor="middle" x="926.7549" y="-648.1227" font-family="Courier,monospace" font-size="11.00" fill="#000000">FluentIndexExtension</text>
</g>
<!-- \\Firesphere\\SolrFluent\\Extensions\\FluentIndexExtension&#45;&gt;\\SilverStripe\\Core\\Extension -->
<g id="edge24" class="edge">
<title>\\Firesphere\\SolrFluent\\Extensions\\FluentIndexExtension&#45;&gt;\\SilverStripe\\Core\\Extension</title>
<path fill="none" stroke="#000000" d="M879.2438,-632.8356C857.9161,-622.1955 834.5963,-606.5199 821.2549,-584.9227 771.9816,-505.1589 843.3593,-235.1592 781.2549,-164.9227 748.54,-127.9241 709.4057,-174.0268 672.7549,-140.9227"/>
<path fill="none" stroke="#000000" d="M672.7549,-140.9227C657.0915,-126.7751 528.3246,-52.4576 508.2549,-45.9227 475.4252,-35.233 439.0725,-28.5474 404.3721,-24.4192"/>
<polygon fill="none" stroke="#000000" points="404.4777,-20.9091 394.1493,-23.27 403.6957,-27.8653 404.4777,-20.9091"/>
</g>
<!-- \\Firesphere\\SolrFluent\\Extensions\\FluentSchemaExtension -->
<g id="node54" class="node">
<title>\\Firesphere\\SolrFluent\\Extensions\\FluentSchemaExtension</title>
<polygon fill="none" stroke="#000000" points="1005.7549,-776.9227 847.7549,-776.9227 847.7549,-740.9227 1005.7549,-740.9227 1005.7549,-776.9227"/>
<text text-anchor="middle" x="926.7549" y="-756.1227" font-family="Courier,monospace" font-size="11.00" fill="#000000">FluentSchemaExtension</text>
</g>
<!-- \\Firesphere\\SolrFluent\\Extensions\\FluentSchemaExtension&#45;&gt;\\SilverStripe\\Core\\Extension -->
<g id="edge25" class="edge">
<title>\\Firesphere\\SolrFluent\\Extensions\\FluentSchemaExtension&#45;&gt;\\SilverStripe\\Core\\Extension</title>
<path fill="none" stroke="#000000" d="M847.6545,-750.5628C837.5372,-746.333 828.28,-740.3425 821.2549,-731.9227 740.3328,-634.9349 863.7592,-260.5682 781.2549,-164.9227 748.9961,-127.5258 709.4057,-174.0268 672.7549,-140.9227"/>
</g>
<!-- \\Firesphere\\SolrFluent\\Extensions\\FluentDocumentExtension -->
<g id="node55" class="node">
<title>\\Firesphere\\SolrFluent\\Extensions\\FluentDocumentExtension</title>
<polygon fill="none" stroke="#000000" points="1012.7549,-722.9227 840.7549,-722.9227 840.7549,-686.9227 1012.7549,-686.9227 1012.7549,-722.9227"/>
<text text-anchor="middle" x="926.7549" y="-702.1227" font-family="Courier,monospace" font-size="11.00" fill="#000000">FluentDocumentExtension</text>
</g>
<!-- \\Firesphere\\SolrFluent\\Extensions\\FluentDocumentExtension&#45;&gt;\\SilverStripe\\Core\\Extension -->
<g id="edge26" class="edge">
<title>\\Firesphere\\SolrFluent\\Extensions\\FluentDocumentExtension&#45;&gt;\\SilverStripe\\Core\\Extension</title>
<path fill="none" stroke="#000000" d="M840.5463,-693.1421C833.2373,-689.2668 826.6078,-684.2904 821.2549,-677.9227 747.6758,-590.3948 856.2618,-251.2302 781.2549,-164.9227 748.8582,-127.6451 709.4057,-174.0268 672.7549,-140.9227"/>
</g>
<!-- \\Firesphere\\SolrFluent\\States\\FluentSiteState -->
<g id="node56" class="node">
<title>\\Firesphere\\SolrFluent\\States\\FluentSiteState</title>
<polygon fill="none" stroke="#000000" points="985.7549,-856.9227 867.7549,-856.9227 867.7549,-820.9227 985.7549,-820.9227 985.7549,-856.9227"/>
<text text-anchor="middle" x="926.7549" y="-836.1227" font-family="Courier,monospace" font-size="11.00" fill="#000000">FluentSiteState</text>
</g>
<!-- \\Firesphere\\SolrFluent\\States\\FluentSiteState&#45;&gt;\\Firesphere\\SolrSearch\\Interfaces\\SiteStateInterface -->
<g id="edge28" class="edge">
<title>\\Firesphere\\SolrFluent\\States\\FluentSiteState&#45;&gt;\\Firesphere\\SolrSearch\\Interfaces\\SiteStateInterface</title>
<path fill="none" stroke="#000000" stroke-dasharray="1,5" d="M867.5291,-834.9616C850.0639,-830.7685 832.6083,-823.0063 821.2549,-808.9227 732.9344,-699.3639 880.7021,-276.4913 781.2549,-176.9227 747.1066,-142.7327 721.0363,-167.9298 672.7549,-169.9227"/>
<path fill="none" stroke="#000000" stroke-dasharray="1,5" d="M672.7549,-169.9227C628.0181,-171.7693 605.6519,-147.0994 572.2549,-176.9227 305.5916,-415.0509 260.4444,-1667.9877 254.8187,-1872.6427"/>
<polygon fill="none" stroke="#000000" points="251.3141,-1872.7721 254.5472,-1882.8615 258.3116,-1872.9581 251.3141,-1872.7721"/>
</g>
<!-- \\Firesphere\\SolrFluent\\States\\FluentSiteState&#45;&gt;\\Firesphere\\SolrSearch\\States\\SiteState -->
<g id="edge27" class="edge">
<title>\\Firesphere\\SolrFluent\\States\\FluentSiteState&#45;&gt;\\Firesphere\\SolrSearch\\States\\SiteState</title>
<path fill="none" stroke="#000000" d="M867.6052,-834.8999C850.1446,-830.7031 832.6725,-822.9543 821.2549,-808.9227 743.63,-713.5261 851.2723,-358.035 781.2549,-256.9227 767.9948,-237.7737 745.4891,-225.8033 724.4013,-218.3983"/>
<polygon fill="none" stroke="#000000" points="725.4422,-215.0565 714.8503,-215.3078 723.2871,-221.7165 725.4422,-215.0565"/>
</g>
<!-- \\Firesphere\\SolrSubsites\\Extensions\\SubsitesExtension -->
<g id="node57" class="node">
<title>\\Firesphere\\SolrSubsites\\Extensions\\SubsitesExtension</title>
<polygon fill="none" stroke="#000000" points="992.2549,-972.9227 861.2549,-972.9227 861.2549,-936.9227 992.2549,-936.9227 992.2549,-972.9227"/>
<text text-anchor="middle" x="926.7549" y="-952.1227" font-family="Courier,monospace" font-size="11.00" fill="#000000">SubsitesExtension</text>
</g>
<!-- \\Firesphere\\SolrSubsites\\Extensions\\SubsitesExtension&#45;&gt;\\SilverStripe\\Core\\Extension -->
<g id="edge29" class="edge">
<title>\\Firesphere\\SolrSubsites\\Extensions\\SubsitesExtension&#45;&gt;\\SilverStripe\\Core\\Extension</title>
<path fill="none" stroke="#000000" d="M878.3173,-936.7933C857.0531,-926.2102 834.0545,-910.5948 821.2549,-888.9227 739.3126,-750.1794 885.5707,-287.7333 781.2549,-164.9227 749.282,-127.2811 709.4057,-174.0268 672.7549,-140.9227"/>
</g>
<!-- \\Firesphere\\SolrSubsites\\States\\SubsiteState -->
<g id="node58" class="node">
<title>\\Firesphere\\SolrSubsites\\States\\SubsiteState</title>
<polygon fill="none" stroke="#000000" points="975.7549,-1052.9227 877.7549,-1052.9227 877.7549,-1016.9227 975.7549,-1016.9227 975.7549,-1052.9227"/>
<text text-anchor="middle" x="926.7549" y="-1032.1227" font-family="Courier,monospace" font-size="11.00" fill="#000000">SubsiteState</text>
</g>
<!-- \\Firesphere\\SolrSubsites\\States\\SubsiteState&#45;&gt;\\Firesphere\\SolrSearch\\Interfaces\\SiteStateInterface -->
<g id="edge31" class="edge">
<title>\\Firesphere\\SolrSubsites\\States\\SubsiteState&#45;&gt;\\Firesphere\\SolrSearch\\Interfaces\\SiteStateInterface</title>
<path fill="none" stroke="#000000" stroke-dasharray="1,5" d="M877.5714,-1033.1192C856.9534,-1029.6642 834.6932,-1021.8497 821.2549,-1004.9227 763.9847,-932.7848 845.8564,-242.5763 781.2549,-176.9227 747.3629,-142.4787 721.0363,-167.9298 672.7549,-169.9227"/>
</g>
<!-- \\Firesphere\\SolrSubsites\\States\\SubsiteState&#45;&gt;\\Firesphere\\SolrSearch\\States\\SiteState -->
<g id="edge30" class="edge">
<title>\\Firesphere\\SolrSubsites\\States\\SubsiteState&#45;&gt;\\Firesphere\\SolrSearch\\States\\SiteState</title>
<path fill="none" stroke="#000000" d="M877.6119,-1033.087C857.0019,-1029.6256 834.7368,-1021.815 821.2549,-1004.9227 717.4184,-874.8196 874.7223,-394.6641 781.2549,-256.9227 768.1764,-237.6491 745.6931,-225.6635 724.573,-218.2805"/>
<polygon fill="none" stroke="#000000" points="725.5952,-214.9328 715.0038,-215.2026 723.4517,-221.5966 725.5952,-214.9328"/>
</g>
<!-- \\Firesphere\\SolrPermissions\\Extensions\\DataObjectExtension -->
<g id="node59" class="node">
<title>\\Firesphere\\SolrPermissions\\Extensions\\DataObjectExtension</title>
<polygon fill="none" stroke="#000000" points="999.2549,-552.9227 854.2549,-552.9227 854.2549,-516.9227 999.2549,-516.9227 999.2549,-552.9227"/>
<text text-anchor="middle" x="926.7549" y="-532.1227" font-family="Courier,monospace" font-size="11.00" fill="#000000">DataObjectExtension</text>
</g>
<!-- \\Firesphere\\SolrPermissions\\Extensions\\DataObjectExtension&#45;&gt;\\SilverStripe\\ORM\\DataExtension -->
<g id="edge32" class="edge">
<title>\\Firesphere\\SolrPermissions\\Extensions\\DataObjectExtension&#45;&gt;\\SilverStripe\\ORM\\DataExtension</title>
<path fill="none" stroke="#000000" d="M854.1266,-528.5662C841.6284,-524.3292 829.9011,-517.8171 821.2549,-507.9227 720.2653,-392.3526 883.2119,-279.6403 781.2549,-164.9227 734.3687,-112.1684 557.436,-89.627 421.3514,-80.0182"/>
<polygon fill="none" stroke="#000000" points="421.4309,-76.5155 411.2143,-79.3208 420.9505,-83.499 421.4309,-76.5155"/>
</g>
<!-- \\Firesphere\\SolrPermissions\\Extensions\\DocumentFactoryExtension -->
<g id="node60" class="node">
<title>\\Firesphere\\SolrPermissions\\Extensions\\DocumentFactoryExtension</title>
<polygon fill="none" stroke="#000000" points="1016.2549,-390.9227 837.2549,-390.9227 837.2549,-354.9227 1016.2549,-354.9227 1016.2549,-390.9227"/>
<text text-anchor="middle" x="926.7549" y="-370.1227" font-family="Courier,monospace" font-size="11.00" fill="#000000">DocumentFactoryExtension</text>
</g>
<!-- \\Firesphere\\SolrPermissions\\Extensions\\DocumentFactoryExtension&#45;&gt;\\SilverStripe\\Core\\Extension -->
<g id="edge33" class="edge">
<title>\\Firesphere\\SolrPermissions\\Extensions\\DocumentFactoryExtension&#45;&gt;\\SilverStripe\\Core\\Extension</title>
<path fill="none" stroke="#000000" d="M881.1304,-354.8566C859.7122,-344.0798 835.7606,-328.2802 821.2549,-306.9227 765.9092,-225.4343 849.6364,-159.8274 781.2549,-88.9227 746.9706,-53.3734 716.6848,-87.4909 672.7549,-64.9227"/>
</g>
<!-- \\Firesphere\\SolrPermissions\\Extensions\\BaseIndexExtension -->
<g id="node61" class="node">
<title>\\Firesphere\\SolrPermissions\\Extensions\\BaseIndexExtension</title>
<polygon fill="none" stroke="#000000" points="995.7549,-498.9227 857.7549,-498.9227 857.7549,-462.9227 995.7549,-462.9227 995.7549,-498.9227"/>
<text text-anchor="middle" x="926.7549" y="-478.1227" font-family="Courier,monospace" font-size="11.00" fill="#000000">BaseIndexExtension</text>
</g>
<!-- \\Firesphere\\SolrPermissions\\Extensions\\BaseIndexExtension&#45;&gt;\\SilverStripe\\Core\\Extension -->
<g id="edge34" class="edge">
<title>\\Firesphere\\SolrPermissions\\Extensions\\BaseIndexExtension&#45;&gt;\\SilverStripe\\Core\\Extension</title>
<path fill="none" stroke="#000000" d="M857.6055,-475.7364C843.8052,-471.5558 830.6786,-464.7696 821.2549,-453.9227 715.3842,-332.0627 887.0032,-214.889 781.2549,-92.9227 748.6302,-55.2946 717.0533,-87.6802 672.7549,-64.9227"/>
</g>
<!-- \\Firesphere\\SolrPermissions\\Extensions\\SchemaServiceExtension -->
<g id="node62" class="node">
<title>\\Firesphere\\SolrPermissions\\Extensions\\SchemaServiceExtension</title>
<polygon fill="none" stroke="#000000" points="1009.2549,-444.9227 844.2549,-444.9227 844.2549,-408.9227 1009.2549,-408.9227 1009.2549,-444.9227"/>
<text text-anchor="middle" x="926.7549" y="-424.1227" font-family="Courier,monospace" font-size="11.00" fill="#000000">SchemaServiceExtension</text>
</g>
<!-- \\Firesphere\\SolrPermissions\\Extensions\\SchemaServiceExtension&#45;&gt;\\SilverStripe\\Core\\Extension -->
<g id="edge35" class="edge">
<title>\\Firesphere\\SolrPermissions\\Extensions\\SchemaServiceExtension&#45;&gt;\\SilverStripe\\Core\\Extension</title>
<path fill="none" stroke="#000000" d="M844.1782,-416.4865C835.5146,-412.4561 827.5797,-407.0749 821.2549,-399.9227 728.9356,-295.5265 875.2766,-191.7884 781.2549,-88.9227 747.9347,-52.4683 716.6848,-87.4909 672.7549,-64.9227"/>
</g>
</g>
</svg>
