<?xml version="1.0" encoding="UTF-8" standalone="no"?>
<!DOCTYPE svg PUBLIC "-//W3C//DTD SVG 1.1//EN"
 "http://www.w3.org/Graphics/SVG/1.1/DTD/svg11.dtd">
<!-- Generated by graphviz version 2.40.1 (20161225.0304)
 -->
<!-- Title: G Pages: 1 -->
<svg width="1064pt" height="3721pt"
 viewBox="0.00 0.00 1064.25 3720.99" xmlns="http://www.w3.org/2000/svg" xmlns:xlink="http://www.w3.org/1999/xlink">
<g id="graph0" class="graph" transform="scale(1 1) rotate(0) translate(4 3716.9946)">
<title>G</title>
<polygon fill="#ffffff" stroke="transparent" points="-4,4 -4,-3716.9946 1060.2549,-3716.9946 1060.2549,4 -4,4"/>
<g id="clust1" class="cluster">
<title>cluster_Global</title>
<path fill="none" stroke="#c0c0c0" d="M165.1275,-152.8936C165.1275,-152.8936 1036.2549,-152.8936 1036.2549,-152.8936 1042.2549,-152.8936 1048.2549,-158.8936 1048.2549,-164.8936 1048.2549,-164.8936 1048.2549,-3386.8936 1048.2549,-3386.8936 1048.2549,-3392.8936 1042.2549,-3398.8936 1036.2549,-3398.8936 1036.2549,-3398.8936 165.1275,-3398.8936 165.1275,-3398.8936 159.1275,-3398.8936 153.1275,-3392.8936 153.1275,-3386.8936 153.1275,-3386.8936 153.1275,-164.8936 153.1275,-164.8936 153.1275,-158.8936 159.1275,-152.8936 165.1275,-152.8936"/>
<text text-anchor="middle" x="600.6912" y="-3386.0936" font-family="Times,serif" font-size="11.00" fill="#c0c0c0">Global</text>
</g>
<g id="clust2" class="cluster">
<title>cluster_\Firesphere</title>
<path fill="none" stroke="#c0c0c0" d="M173.1275,-160.8936C173.1275,-160.8936 1028.2549,-160.8936 1028.2549,-160.8936 1034.2549,-160.8936 1040.2549,-166.8936 1040.2549,-172.8936 1040.2549,-172.8936 1040.2549,-3036.8936 1040.2549,-3036.8936 1040.2549,-3042.8936 1034.2549,-3048.8936 1028.2549,-3048.8936 1028.2549,-3048.8936 173.1275,-3048.8936 173.1275,-3048.8936 167.1275,-3048.8936 161.1275,-3042.8936 161.1275,-3036.8936 161.1275,-3036.8936 161.1275,-172.8936 161.1275,-172.8936 161.1275,-166.8936 167.1275,-160.8936 173.1275,-160.8936"/>
<text text-anchor="middle" x="600.6912" y="-3036.0936" font-family="Times,serif" font-size="11.00" fill="#c0c0c0">Firesphere</text>
</g>
<g id="clust3" class="cluster">
<title>cluster_\Firesphere\SolrCompatibility</title>
<path fill="none" stroke="#c0c0c0" d="M833.2549,-168.8936C833.2549,-168.8936 1020.2549,-168.8936 1020.2549,-168.8936 1026.2549,-168.8936 1032.2549,-174.8936 1032.2549,-180.8936 1032.2549,-180.8936 1032.2549,-318.8936 1032.2549,-318.8936 1032.2549,-324.8936 1026.2549,-330.8936 1020.2549,-330.8936 1020.2549,-330.8936 833.2549,-330.8936 833.2549,-330.8936 827.2549,-330.8936 821.2549,-324.8936 821.2549,-318.8936 821.2549,-318.8936 821.2549,-180.8936 821.2549,-180.8936 821.2549,-174.8936 827.2549,-168.8936 833.2549,-168.8936"/>
<text text-anchor="middle" x="926.7549" y="-318.0936" font-family="Times,serif" font-size="11.00" fill="#c0c0c0">SolrCompatibility</text>
</g>
<g id="clust4" class="cluster">
<title>cluster_\Firesphere\SolrCompatibility\Extensions</title>
<path fill="none" stroke="#c0c0c0" d="M841.2549,-176.8936C841.2549,-176.8936 1012.2549,-176.8936 1012.2549,-176.8936 1018.2549,-176.8936 1024.2549,-182.8936 1024.2549,-188.8936 1024.2549,-188.8936 1024.2549,-290.8936 1024.2549,-290.8936 1024.2549,-296.8936 1018.2549,-302.8936 1012.2549,-302.8936 1012.2549,-302.8936 841.2549,-302.8936 841.2549,-302.8936 835.2549,-302.8936 829.2549,-296.8936 829.2549,-290.8936 829.2549,-290.8936 829.2549,-188.8936 829.2549,-188.8936 829.2549,-182.8936 835.2549,-176.8936 841.2549,-176.8936"/>
<text text-anchor="middle" x="926.7549" y="-290.0936" font-family="Times,serif" font-size="11.00" fill="#c0c0c0">Extensions</text>
</g>
<g id="clust5" class="cluster">
<title>cluster_\Firesphere\SolrSearch</title>
<path fill="none" stroke="#c0c0c0" d="M181.1275,-172.8936C181.1275,-172.8936 769.2549,-172.8936 769.2549,-172.8936 775.2549,-172.8936 781.2549,-178.8936 781.2549,-184.8936 781.2549,-184.8936 781.2549,-3008.8936 781.2549,-3008.8936 781.2549,-3014.8936 775.2549,-3020.8936 769.2549,-3020.8936 769.2549,-3020.8936 181.1275,-3020.8936 181.1275,-3020.8936 175.1275,-3020.8936 169.1275,-3014.8936 169.1275,-3008.8936 169.1275,-3008.8936 169.1275,-184.8936 169.1275,-184.8936 169.1275,-178.8936 175.1275,-172.8936 181.1275,-172.8936"/>
<text text-anchor="middle" x="475.1912" y="-3008.0936" font-family="Times,serif" font-size="11.00" fill="#c0c0c0">SolrSearch</text>
</g>
<g id="clust6" class="cluster">
<title>cluster_\Firesphere\SolrSearch\Interfaces</title>
<path fill="none" stroke="#c0c0c0" d="M189.1275,-180.8936C189.1275,-180.8936 319.1275,-180.8936 319.1275,-180.8936 325.1275,-180.8936 331.1275,-186.8936 331.1275,-192.8936 331.1275,-192.8936 331.1275,-294.8936 331.1275,-294.8936 331.1275,-300.8936 325.1275,-306.8936 319.1275,-306.8936 319.1275,-306.8936 189.1275,-306.8936 189.1275,-306.8936 183.1275,-306.8936 177.1275,-300.8936 177.1275,-294.8936 177.1275,-294.8936 177.1275,-192.8936 177.1275,-192.8936 177.1275,-186.8936 183.1275,-180.8936 189.1275,-180.8936"/>
<text text-anchor="middle" x="254.1275" y="-294.0936" font-family="Times,serif" font-size="11.00" fill="#c0c0c0">Interfaces</text>
</g>
<g id="clust7" class="cluster">
<title>cluster_\Firesphere\SolrSearch\Services</title>
<path fill="none" stroke="#c0c0c0" d="M617.7549,-2678.8936C617.7549,-2678.8936 727.7549,-2678.8936 727.7549,-2678.8936 733.7549,-2678.8936 739.7549,-2684.8936 739.7549,-2690.8936 739.7549,-2690.8936 739.7549,-2792.8936 739.7549,-2792.8936 739.7549,-2798.8936 733.7549,-2804.8936 727.7549,-2804.8936 727.7549,-2804.8936 617.7549,-2804.8936 617.7549,-2804.8936 611.7549,-2804.8936 605.7549,-2798.8936 605.7549,-2792.8936 605.7549,-2792.8936 605.7549,-2690.8936 605.7549,-2690.8936 605.7549,-2684.8936 611.7549,-2678.8936 617.7549,-2678.8936"/>
<text text-anchor="middle" x="672.7549" y="-2792.0936" font-family="Times,serif" font-size="11.00" fill="#c0c0c0">Services</text>
</g>
<g id="clust8" class="cluster">
<title>cluster_\Firesphere\SolrSearch\Extensions</title>
<path fill="none" stroke="#c0c0c0" d="M604.2549,-2544.8936C604.2549,-2544.8936 741.2549,-2544.8936 741.2549,-2544.8936 747.2549,-2544.8936 753.2549,-2550.8936 753.2549,-2556.8936 753.2549,-2556.8936 753.2549,-2658.8936 753.2549,-2658.8936 753.2549,-2664.8936 747.2549,-2670.8936 741.2549,-2670.8936 741.2549,-2670.8936 604.2549,-2670.8936 604.2549,-2670.8936 598.2549,-2670.8936 592.2549,-2664.8936 592.2549,-2658.8936 592.2549,-2658.8936 592.2549,-2556.8936 592.2549,-2556.8936 592.2549,-2550.8936 598.2549,-2544.8936 604.2549,-2544.8936"/>
<text text-anchor="middle" x="672.7549" y="-2658.0936" font-family="Times,serif" font-size="11.00" fill="#c0c0c0">Extensions</text>
</g>
<g id="clust9" class="cluster">
<title>cluster_\Firesphere\SolrSearch\Models</title>
<path fill="none" stroke="#c0c0c0" d="M624.7549,-2812.8936C624.7549,-2812.8936 720.7549,-2812.8936 720.7549,-2812.8936 726.7549,-2812.8936 732.7549,-2818.8936 732.7549,-2824.8936 732.7549,-2824.8936 732.7549,-2980.8936 732.7549,-2980.8936 732.7549,-2986.8936 726.7549,-2992.8936 720.7549,-2992.8936 720.7549,-2992.8936 624.7549,-2992.8936 624.7549,-2992.8936 618.7549,-2992.8936 612.7549,-2986.8936 612.7549,-2980.8936 612.7549,-2980.8936 612.7549,-2824.8936 612.7549,-2824.8936 612.7549,-2818.8936 618.7549,-2812.8936 624.7549,-2812.8936"/>
<text text-anchor="middle" x="672.7549" y="-2980.0936" font-family="Times,serif" font-size="11.00" fill="#c0c0c0">Models</text>
</g>
<g id="clust10" class="cluster">
<title>cluster_\Firesphere\SolrSearch\Traits</title>
<path fill="none" stroke="#c0c0c0" d="M584.2549,-1654.8936C584.2549,-1654.8936 761.2549,-1654.8936 761.2549,-1654.8936 767.2549,-1654.8936 773.2549,-1660.8936 773.2549,-1666.8936 773.2549,-1666.8936 773.2549,-2524.8936 773.2549,-2524.8936 773.2549,-2530.8936 767.2549,-2536.8936 761.2549,-2536.8936 761.2549,-2536.8936 584.2549,-2536.8936 584.2549,-2536.8936 578.2549,-2536.8936 572.2549,-2530.8936 572.2549,-2524.8936 572.2549,-2524.8936 572.2549,-1666.8936 572.2549,-1666.8936 572.2549,-1660.8936 578.2549,-1654.8936 584.2549,-1654.8936"/>
<text text-anchor="middle" x="672.7549" y="-2524.0936" font-family="Times,serif" font-size="11.00" fill="#c0c0c0">Traits</text>
</g>
<g id="clust11" class="cluster">
<title>cluster_\Firesphere\SolrSearch\Jobs</title>
<path fill="none" stroke="#c0c0c0" d="M600.7549,-1466.8936C600.7549,-1466.8936 744.7549,-1466.8936 744.7549,-1466.8936 750.7549,-1466.8936 756.7549,-1472.8936 756.7549,-1478.8936 756.7549,-1478.8936 756.7549,-1634.8936 756.7549,-1634.8936 756.7549,-1640.8936 750.7549,-1646.8936 744.7549,-1646.8936 744.7549,-1646.8936 600.7549,-1646.8936 600.7549,-1646.8936 594.7549,-1646.8936 588.7549,-1640.8936 588.7549,-1634.8936 588.7549,-1634.8936 588.7549,-1478.8936 588.7549,-1478.8936 588.7549,-1472.8936 594.7549,-1466.8936 600.7549,-1466.8936"/>
<text text-anchor="middle" x="672.7549" y="-1634.0936" font-family="Times,serif" font-size="11.00" fill="#c0c0c0">Jobs</text>
</g>
<g id="clust12" class="cluster">
<title>cluster_\Firesphere\SolrSearch\Tasks</title>
<path fill="none" stroke="#c0c0c0" d="M597.7549,-1224.8936C597.7549,-1224.8936 747.7549,-1224.8936 747.7549,-1224.8936 753.7549,-1224.8936 759.7549,-1230.8936 759.7549,-1236.8936 759.7549,-1236.8936 759.7549,-1446.8936 759.7549,-1446.8936 759.7549,-1452.8936 753.7549,-1458.8936 747.7549,-1458.8936 747.7549,-1458.8936 597.7549,-1458.8936 597.7549,-1458.8936 591.7549,-1458.8936 585.7549,-1452.8936 585.7549,-1446.8936 585.7549,-1446.8936 585.7549,-1236.8936 585.7549,-1236.8936 585.7549,-1230.8936 591.7549,-1224.8936 597.7549,-1224.8936"/>
<text text-anchor="middle" x="672.7549" y="-1446.0936" font-family="Times,serif" font-size="11.00" fill="#c0c0c0">Tasks</text>
</g>
<g id="clust13" class="cluster">
<title>cluster_\Firesphere\SolrSearch\Results</title>
<path fill="none" stroke="#c0c0c0" d="M627.7549,-1144.8936C627.7549,-1144.8936 717.7549,-1144.8936 717.7549,-1144.8936 723.7549,-1144.8936 729.7549,-1150.8936 729.7549,-1156.8936 729.7549,-1156.8936 729.7549,-1204.8936 729.7549,-1204.8936 729.7549,-1210.8936 723.7549,-1216.8936 717.7549,-1216.8936 717.7549,-1216.8936 627.7549,-1216.8936 627.7549,-1216.8936 621.7549,-1216.8936 615.7549,-1210.8936 615.7549,-1204.8936 615.7549,-1204.8936 615.7549,-1156.8936 615.7549,-1156.8936 615.7549,-1150.8936 621.7549,-1144.8936 627.7549,-1144.8936"/>
<text text-anchor="middle" x="672.7549" y="-1204.0936" font-family="Times,serif" font-size="11.00" fill="#c0c0c0">Results</text>
</g>
<g id="clust14" class="cluster">
<title>cluster_\Firesphere\SolrSearch\States</title>
<path fill="none" stroke="#c0c0c0" d="M634.7549,-1064.8936C634.7549,-1064.8936 710.7549,-1064.8936 710.7549,-1064.8936 716.7549,-1064.8936 722.7549,-1070.8936 722.7549,-1076.8936 722.7549,-1076.8936 722.7549,-1124.8936 722.7549,-1124.8936 722.7549,-1130.8936 716.7549,-1136.8936 710.7549,-1136.8936 710.7549,-1136.8936 634.7549,-1136.8936 634.7549,-1136.8936 628.7549,-1136.8936 622.7549,-1130.8936 622.7549,-1124.8936 622.7549,-1124.8936 622.7549,-1076.8936 622.7549,-1076.8936 622.7549,-1070.8936 628.7549,-1064.8936 634.7549,-1064.8936"/>
<text text-anchor="middle" x="672.7549" y="-1124.0936" font-family="Times,serif" font-size="11.00" fill="#c0c0c0">States</text>
</g>
<g id="clust15" class="cluster">
<title>cluster_\Firesphere\SolrSearch\Helpers</title>
<path fill="none" stroke="#c0c0c0" d="M624.7549,-768.8936C624.7549,-768.8936 720.7549,-768.8936 720.7549,-768.8936 726.7549,-768.8936 732.7549,-774.8936 732.7549,-780.8936 732.7549,-780.8936 732.7549,-1044.8936 732.7549,-1044.8936 732.7549,-1050.8936 726.7549,-1056.8936 720.7549,-1056.8936 720.7549,-1056.8936 624.7549,-1056.8936 624.7549,-1056.8936 618.7549,-1056.8936 612.7549,-1050.8936 612.7549,-1044.8936 612.7549,-1044.8936 612.7549,-780.8936 612.7549,-780.8936 612.7549,-774.8936 618.7549,-768.8936 624.7549,-768.8936"/>
<text text-anchor="middle" x="672.7549" y="-1044.0936" font-family="Times,serif" font-size="11.00" fill="#c0c0c0">Helpers</text>
</g>
<g id="clust16" class="cluster">
<title>cluster_\Firesphere\SolrSearch\Indexes</title>
<path fill="none" stroke="#c0c0c0" d="M634.7549,-688.8936C634.7549,-688.8936 710.7549,-688.8936 710.7549,-688.8936 716.7549,-688.8936 722.7549,-694.8936 722.7549,-700.8936 722.7549,-700.8936 722.7549,-748.8936 722.7549,-748.8936 722.7549,-754.8936 716.7549,-760.8936 710.7549,-760.8936 710.7549,-760.8936 634.7549,-760.8936 634.7549,-760.8936 628.7549,-760.8936 622.7549,-754.8936 622.7549,-748.8936 622.7549,-748.8936 622.7549,-700.8936 622.7549,-700.8936 622.7549,-694.8936 628.7549,-688.8936 634.7549,-688.8936"/>
<text text-anchor="middle" x="672.7549" y="-748.0936" font-family="Times,serif" font-size="11.00" fill="#c0c0c0">Indexes</text>
</g>
<g id="clust17" class="cluster">
<title>cluster_\Firesphere\SolrSearch\Admins</title>
<path fill="none" stroke="#c0c0c0" d="M631.2549,-608.8936C631.2549,-608.8936 714.2549,-608.8936 714.2549,-608.8936 720.2549,-608.8936 726.2549,-614.8936 726.2549,-620.8936 726.2549,-620.8936 726.2549,-668.8936 726.2549,-668.8936 726.2549,-674.8936 720.2549,-680.8936 714.2549,-680.8936 714.2549,-680.8936 631.2549,-680.8936 631.2549,-680.8936 625.2549,-680.8936 619.2549,-674.8936 619.2549,-668.8936 619.2549,-668.8936 619.2549,-620.8936 619.2549,-620.8936 619.2549,-614.8936 625.2549,-608.8936 631.2549,-608.8936"/>
<text text-anchor="middle" x="672.7549" y="-668.0936" font-family="Times,serif" font-size="11.00" fill="#c0c0c0">Admins</text>
</g>
<g id="clust18" class="cluster">
<title>cluster_\Firesphere\SolrSearch\Factories</title>
<path fill="none" stroke="#c0c0c0" d="M597.7549,-474.8936C597.7549,-474.8936 747.7549,-474.8936 747.7549,-474.8936 753.7549,-474.8936 759.7549,-480.8936 759.7549,-486.8936 759.7549,-486.8936 759.7549,-588.8936 759.7549,-588.8936 759.7549,-594.8936 753.7549,-600.8936 747.7549,-600.8936 747.7549,-600.8936 597.7549,-600.8936 597.7549,-600.8936 591.7549,-600.8936 585.7549,-594.8936 585.7549,-588.8936 585.7549,-588.8936 585.7549,-486.8936 585.7549,-486.8936 585.7549,-480.8936 591.7549,-474.8936 597.7549,-474.8936"/>
<text text-anchor="middle" x="672.7549" y="-588.0936" font-family="Times,serif" font-size="11.00" fill="#c0c0c0">Factories</text>
</g>
<g id="clust19" class="cluster">
<title>cluster_\Firesphere\SolrSearch\Queries</title>
<path fill="none" stroke="#c0c0c0" d="M638.2549,-394.8936C638.2549,-394.8936 707.2549,-394.8936 707.2549,-394.8936 713.2549,-394.8936 719.2549,-400.8936 719.2549,-406.8936 719.2549,-406.8936 719.2549,-454.8936 719.2549,-454.8936 719.2549,-460.8936 713.2549,-466.8936 707.2549,-466.8936 707.2549,-466.8936 638.2549,-466.8936 638.2549,-466.8936 632.2549,-466.8936 626.2549,-460.8936 626.2549,-454.8936 626.2549,-454.8936 626.2549,-406.8936 626.2549,-406.8936 626.2549,-400.8936 632.2549,-394.8936 638.2549,-394.8936"/>
<text text-anchor="middle" x="672.7549" y="-454.0936" font-family="Times,serif" font-size="11.00" fill="#c0c0c0">Queries</text>
</g>
<g id="clust20" class="cluster">
<title>cluster_\Firesphere\SolrSearch\Stores</title>
<path fill="none" stroke="#c0c0c0" d="M617.7549,-180.8936C617.7549,-180.8936 727.7549,-180.8936 727.7549,-180.8936 733.7549,-180.8936 739.7549,-186.8936 739.7549,-192.8936 739.7549,-192.8936 739.7549,-294.8936 739.7549,-294.8936 739.7549,-300.8936 733.7549,-306.8936 727.7549,-306.8936 727.7549,-306.8936 617.7549,-306.8936 617.7549,-306.8936 611.7549,-306.8936 605.7549,-300.8936 605.7549,-294.8936 605.7549,-294.8936 605.7549,-192.8936 605.7549,-192.8936 605.7549,-186.8936 611.7549,-180.8936 617.7549,-180.8936"/>
<text text-anchor="middle" x="672.7549" y="-294.0936" font-family="Times,serif" font-size="11.00" fill="#c0c0c0">Stores</text>
</g>
<g id="clust21" class="cluster">
<title>cluster_\Firesphere\SolrSearch\Forms</title>
<path fill="none" stroke="#c0c0c0" d="M634.7549,-314.8936C634.7549,-314.8936 710.7549,-314.8936 710.7549,-314.8936 716.7549,-314.8936 722.7549,-320.8936 722.7549,-326.8936 722.7549,-326.8936 722.7549,-374.8936 722.7549,-374.8936 722.7549,-380.8936 716.7549,-386.8936 710.7549,-386.8936 710.7549,-386.8936 634.7549,-386.8936 634.7549,-386.8936 628.7549,-386.8936 622.7549,-380.8936 622.7549,-374.8936 622.7549,-374.8936 622.7549,-326.8936 622.7549,-326.8936 622.7549,-320.8936 628.7549,-314.8936 634.7549,-314.8936"/>
<text text-anchor="middle" x="672.7549" y="-374.0936" font-family="Times,serif" font-size="11.00" fill="#c0c0c0">Forms</text>
</g>
<g id="clust22" class="cluster">
<title>cluster_\Firesphere\SolrFluent</title>
<path fill="none" stroke="#c0c0c0" d="M836.7549,-616.8936C836.7549,-616.8936 1016.7549,-616.8936 1016.7549,-616.8936 1022.7549,-616.8936 1028.7549,-622.8936 1028.7549,-628.8936 1028.7549,-628.8936 1028.7549,-900.8936 1028.7549,-900.8936 1028.7549,-906.8936 1022.7549,-912.8936 1016.7549,-912.8936 1016.7549,-912.8936 836.7549,-912.8936 836.7549,-912.8936 830.7549,-912.8936 824.7549,-906.8936 824.7549,-900.8936 824.7549,-900.8936 824.7549,-628.8936 824.7549,-628.8936 824.7549,-622.8936 830.7549,-616.8936 836.7549,-616.8936"/>
<text text-anchor="middle" x="926.7549" y="-900.0936" font-family="Times,serif" font-size="11.00" fill="#c0c0c0">SolrFluent</text>
</g>
<g id="clust23" class="cluster">
<title>cluster_\Firesphere\SolrFluent\Extensions</title>
<path fill="none" stroke="#c0c0c0" d="M844.7549,-624.8936C844.7549,-624.8936 1008.7549,-624.8936 1008.7549,-624.8936 1014.7549,-624.8936 1020.7549,-630.8936 1020.7549,-636.8936 1020.7549,-636.8936 1020.7549,-792.8936 1020.7549,-792.8936 1020.7549,-798.8936 1014.7549,-804.8936 1008.7549,-804.8936 1008.7549,-804.8936 844.7549,-804.8936 844.7549,-804.8936 838.7549,-804.8936 832.7549,-798.8936 832.7549,-792.8936 832.7549,-792.8936 832.7549,-636.8936 832.7549,-636.8936 832.7549,-630.8936 838.7549,-624.8936 844.7549,-624.8936"/>
<text text-anchor="middle" x="926.7549" y="-792.0936" font-family="Times,serif" font-size="11.00" fill="#c0c0c0">Extensions</text>
</g>
<g id="clust24" class="cluster">
<title>cluster_\Firesphere\SolrFluent\States</title>
<path fill="none" stroke="#c0c0c0" d="M871.7549,-812.8936C871.7549,-812.8936 981.7549,-812.8936 981.7549,-812.8936 987.7549,-812.8936 993.7549,-818.8936 993.7549,-824.8936 993.7549,-824.8936 993.7549,-872.8936 993.7549,-872.8936 993.7549,-878.8936 987.7549,-884.8936 981.7549,-884.8936 981.7549,-884.8936 871.7549,-884.8936 871.7549,-884.8936 865.7549,-884.8936 859.7549,-878.8936 859.7549,-872.8936 859.7549,-872.8936 859.7549,-824.8936 859.7549,-824.8936 859.7549,-818.8936 865.7549,-812.8936 871.7549,-812.8936"/>
<text text-anchor="middle" x="926.7549" y="-872.0936" font-family="Times,serif" font-size="11.00" fill="#c0c0c0">States</text>
</g>
<g id="clust25" class="cluster">
<title>cluster_\Firesphere\SolrSubsites</title>
<path fill="none" stroke="#c0c0c0" d="M857.2549,-920.8936C857.2549,-920.8936 996.2549,-920.8936 996.2549,-920.8936 1002.2549,-920.8936 1008.2549,-926.8936 1008.2549,-932.8936 1008.2549,-932.8936 1008.2549,-1096.8936 1008.2549,-1096.8936 1008.2549,-1102.8936 1002.2549,-1108.8936 996.2549,-1108.8936 996.2549,-1108.8936 857.2549,-1108.8936 857.2549,-1108.8936 851.2549,-1108.8936 845.2549,-1102.8936 845.2549,-1096.8936 845.2549,-1096.8936 845.2549,-932.8936 845.2549,-932.8936 845.2549,-926.8936 851.2549,-920.8936 857.2549,-920.8936"/>
<text text-anchor="middle" x="926.7549" y="-1096.0936" font-family="Times,serif" font-size="11.00" fill="#c0c0c0">SolrSubsites</text>
</g>
<g id="clust26" class="cluster">
<title>cluster_\Firesphere\SolrSubsites\Extensions</title>
<path fill="none" stroke="#c0c0c0" d="M865.2549,-928.8936C865.2549,-928.8936 988.2549,-928.8936 988.2549,-928.8936 994.2549,-928.8936 1000.2549,-934.8936 1000.2549,-940.8936 1000.2549,-940.8936 1000.2549,-988.8936 1000.2549,-988.8936 1000.2549,-994.8936 994.2549,-1000.8936 988.2549,-1000.8936 988.2549,-1000.8936 865.2549,-1000.8936 865.2549,-1000.8936 859.2549,-1000.8936 853.2549,-994.8936 853.2549,-988.8936 853.2549,-988.8936 853.2549,-940.8936 853.2549,-940.8936 853.2549,-934.8936 859.2549,-928.8936 865.2549,-928.8936"/>
<text text-anchor="middle" x="926.7549" y="-988.0936" font-family="Times,serif" font-size="11.00" fill="#c0c0c0">Extensions</text>
</g>
<g id="clust27" class="cluster">
<title>cluster_\Firesphere\SolrSubsites\States</title>
<path fill="none" stroke="#c0c0c0" d="M881.7549,-1008.8936C881.7549,-1008.8936 971.7549,-1008.8936 971.7549,-1008.8936 977.7549,-1008.8936 983.7549,-1014.8936 983.7549,-1020.8936 983.7549,-1020.8936 983.7549,-1068.8936 983.7549,-1068.8936 983.7549,-1074.8936 977.7549,-1080.8936 971.7549,-1080.8936 971.7549,-1080.8936 881.7549,-1080.8936 881.7549,-1080.8936 875.7549,-1080.8936 869.7549,-1074.8936 869.7549,-1068.8936 869.7549,-1068.8936 869.7549,-1020.8936 869.7549,-1020.8936 869.7549,-1014.8936 875.7549,-1008.8936 881.7549,-1008.8936"/>
<text text-anchor="middle" x="926.7549" y="-1068.0936" font-family="Times,serif" font-size="11.00" fill="#c0c0c0">States</text>
</g>
<g id="clust28" class="cluster">
<title>cluster_\Firesphere\SolrPermissions</title>
<path fill="none" stroke="#c0c0c0" d="M833.2549,-338.8936C833.2549,-338.8936 1020.2549,-338.8936 1020.2549,-338.8936 1026.2549,-338.8936 1032.2549,-344.8936 1032.2549,-350.8936 1032.2549,-350.8936 1032.2549,-596.8936 1032.2549,-596.8936 1032.2549,-602.8936 1026.2549,-608.8936 1020.2549,-608.8936 1020.2549,-608.8936 833.2549,-608.8936 833.2549,-608.8936 827.2549,-608.8936 821.2549,-602.8936 821.2549,-596.8936 821.2549,-596.8936 821.2549,-350.8936 821.2549,-350.8936 821.2549,-344.8936 827.2549,-338.8936 833.2549,-338.8936"/>
<text text-anchor="middle" x="926.7549" y="-596.0936" font-family="Times,serif" font-size="11.00" fill="#c0c0c0">SolrPermissions</text>
</g>
<g id="clust29" class="cluster">
<title>cluster_\Firesphere\SolrPermissions\Extensions</title>
<path fill="none" stroke="#c0c0c0" d="M841.2549,-346.8936C841.2549,-346.8936 1012.2549,-346.8936 1012.2549,-346.8936 1018.2549,-346.8936 1024.2549,-352.8936 1024.2549,-358.8936 1024.2549,-358.8936 1024.2549,-568.8936 1024.2549,-568.8936 1024.2549,-574.8936 1018.2549,-580.8936 1012.2549,-580.8936 1012.2549,-580.8936 841.2549,-580.8936 841.2549,-580.8936 835.2549,-580.8936 829.2549,-574.8936 829.2549,-568.8936 829.2549,-568.8936 829.2549,-358.8936 829.2549,-358.8936 829.2549,-352.8936 835.2549,-346.8936 841.2549,-346.8936"/>
<text text-anchor="middle" x="926.7549" y="-568.0936" font-family="Times,serif" font-size="11.00" fill="#c0c0c0">Extensions</text>
</g>
<g id="clust30" class="cluster">
<title>cluster_\SilverStripe</title>
<path fill="none" stroke="#c0c0c0" d="M861.2549,-3056.8936C861.2549,-3056.8936 992.2549,-3056.8936 992.2549,-3056.8936 998.2549,-3056.8936 1004.2549,-3062.8936 1004.2549,-3068.8936 1004.2549,-3068.8936 1004.2549,-3358.8936 1004.2549,-3358.8936 1004.2549,-3364.8936 998.2549,-3370.8936 992.2549,-3370.8936 992.2549,-3370.8936 861.2549,-3370.8936 861.2549,-3370.8936 855.2549,-3370.8936 849.2549,-3364.8936 849.2549,-3358.8936 849.2549,-3358.8936 849.2549,-3068.8936 849.2549,-3068.8936 849.2549,-3062.8936 855.2549,-3056.8936 861.2549,-3056.8936"/>
<text text-anchor="middle" x="926.7549" y="-3358.0936" font-family="Times,serif" font-size="11.00" fill="#c0c0c0">SilverStripe</text>
</g>
<g id="clust31" class="cluster">
<title>cluster_\SilverStripe\FullTextSearch</title>
<path fill="none" stroke="#c0c0c0" d="M869.2549,-3064.8936C869.2549,-3064.8936 984.2549,-3064.8936 984.2549,-3064.8936 990.2549,-3064.8936 996.2549,-3070.8936 996.2549,-3076.8936 996.2549,-3076.8936 996.2549,-3330.8936 996.2549,-3330.8936 996.2549,-3336.8936 990.2549,-3342.8936 984.2549,-3342.8936 984.2549,-3342.8936 869.2549,-3342.8936 869.2549,-3342.8936 863.2549,-3342.8936 857.2549,-3336.8936 857.2549,-3330.8936 857.2549,-3330.8936 857.2549,-3076.8936 857.2549,-3076.8936 857.2549,-3070.8936 863.2549,-3064.8936 869.2549,-3064.8936"/>
<text text-anchor="middle" x="926.7549" y="-3330.0936" font-family="Times,serif" font-size="11.00" fill="#c0c0c0">FullTextSearch</text>
</g>
<g id="clust32" class="cluster">
<title>cluster_\SilverStripe\FullTextSearch\Solr</title>
<path fill="none" stroke="#c0c0c0" d="M888.7549,-3188.8936C888.7549,-3188.8936 964.7549,-3188.8936 964.7549,-3188.8936 970.7549,-3188.8936 976.7549,-3194.8936 976.7549,-3200.8936 976.7549,-3200.8936 976.7549,-3302.8936 976.7549,-3302.8936 976.7549,-3308.8936 970.7549,-3314.8936 964.7549,-3314.8936 964.7549,-3314.8936 888.7549,-3314.8936 888.7549,-3314.8936 882.7549,-3314.8936 876.7549,-3308.8936 876.7549,-3302.8936 876.7549,-3302.8936 876.7549,-3200.8936 876.7549,-3200.8936 876.7549,-3194.8936 882.7549,-3188.8936 888.7549,-3188.8936"/>
<text text-anchor="middle" x="926.7549" y="-3302.0936" font-family="Times,serif" font-size="11.00" fill="#c0c0c0">Solr</text>
</g>
<g id="clust33" class="cluster">
<title>cluster_\SilverStripe\FullTextSearch\Search</title>
<path fill="none" stroke="#c0c0c0" d="M877.2549,-3072.8936C877.2549,-3072.8936 976.2549,-3072.8936 976.2549,-3072.8936 982.2549,-3072.8936 988.2549,-3078.8936 988.2549,-3084.8936 988.2549,-3084.8936 988.2549,-3168.8936 988.2549,-3168.8936 988.2549,-3174.8936 982.2549,-3180.8936 976.2549,-3180.8936 976.2549,-3180.8936 877.2549,-3180.8936 877.2549,-3180.8936 871.2549,-3180.8936 865.2549,-3174.8936 865.2549,-3168.8936 865.2549,-3168.8936 865.2549,-3084.8936 865.2549,-3084.8936 865.2549,-3078.8936 871.2549,-3072.8936 877.2549,-3072.8936"/>
<text text-anchor="middle" x="926.7549" y="-3168.0936" font-family="Times,serif" font-size="11.00" fill="#c0c0c0">Search</text>
</g>
<g id="clust34" class="cluster">
<title>cluster_\SilverStripe\FullTextSearch\Search\Queries</title>
<path fill="none" stroke="#c0c0c0" d="M885.2549,-3080.8936C885.2549,-3080.8936 968.2549,-3080.8936 968.2549,-3080.8936 974.2549,-3080.8936 980.2549,-3086.8936 980.2549,-3092.8936 980.2549,-3092.8936 980.2549,-3140.8936 980.2549,-3140.8936 980.2549,-3146.8936 974.2549,-3152.8936 968.2549,-3152.8936 968.2549,-3152.8936 885.2549,-3152.8936 885.2549,-3152.8936 879.2549,-3152.8936 873.2549,-3146.8936 873.2549,-3140.8936 873.2549,-3140.8936 873.2549,-3092.8936 873.2549,-3092.8936 873.2549,-3086.8936 879.2549,-3080.8936 885.2549,-3080.8936"/>
<text text-anchor="middle" x="926.7549" y="-3140.0936" font-family="Times,serif" font-size="11.00" fill="#c0c0c0">Queries</text>
</g>
<!-- \\Firesphere\\SolrCompatibility\\Extensions\\FulltextSearchExtension -->
<g id="node1" class="node">
<title>\\Firesphere\\SolrCompatibility\\Extensions\\FulltextSearchExtension</title>
<polygon fill="none" stroke="#000000" points="1012.7549,-274.8936 840.7549,-274.8936 840.7549,-238.8936 1012.7549,-238.8936 1012.7549,-274.8936"/>
<text text-anchor="middle" x="926.7549" y="-254.0936" font-family="Courier,monospace" font-size="11.00" fill="#000000">FulltextSearchExtension</text>
</g>
<!-- \\SilverStripe\\Core\\Extension -->
<g id="node63" class="node">
<title>\\SilverStripe\\Core\\Extension</title>
<ellipse fill="none" stroke="#000000" cx="254.1275" cy="-18.8936" rx="144.0747" ry="18"/>
<text text-anchor="middle" x="254.1275" y="-15.1936" font-family="Times,serif" font-size="14.00" fill="#c0c0c0">\SilverStripe\Core\Extension</text>
</g>
<!-- \\Firesphere\\SolrCompatibility\\Extensions\\FulltextSearchExtension&#45;&gt;\\SilverStripe\\Core\\Extension -->
<g id="edge1" class="edge">
<title>\\Firesphere\\SolrCompatibility\\Extensions\\FulltextSearchExtension&#45;&gt;\\SilverStripe\\Core\\Extension</title>
<path fill="none" stroke="#000000" d="M840.5088,-243.3251C833.4442,-239.7793 826.8743,-235.3693 821.2549,-229.8936 774.6022,-184.4328 828.6481,-133.5819 781.2549,-88.8936 745.3221,-55.0115 716.6848,-87.4617 672.7549,-64.8936"/>
</g>
<!-- \\Firesphere\\SolrCompatibility\\Extensions\\SolrCoreServiceExtension -->
<g id="node2" class="node">
<title>\\Firesphere\\SolrCompatibility\\Extensions\\SolrCoreServiceExtension</title>
<polygon fill="none" stroke="#000000" points="1016.2549,-220.8936 837.2549,-220.8936 837.2549,-184.8936 1016.2549,-184.8936 1016.2549,-220.8936"/>
<text text-anchor="middle" x="926.7549" y="-200.0936" font-family="Courier,monospace" font-size="11.00" fill="#000000">SolrCoreServiceExtension</text>
</g>
<!-- \\Firesphere\\SolrCompatibility\\Extensions\\SolrCoreServiceExtension&#45;&gt;\\SilverStripe\\Core\\Extension -->
<g id="edge2" class="edge">
<title>\\Firesphere\\SolrCompatibility\\Extensions\\SolrCoreServiceExtension&#45;&gt;\\SilverStripe\\Core\\Extension</title>
<path fill="none" stroke="#000000" d="M909.2812,-184.8139C883.6376,-159.3831 833.1975,-113.42 781.2549,-88.8936 736.5953,-67.8061 716.6848,-87.4617 672.7549,-64.8936"/>
<path fill="none" stroke="#000000" d="M672.7549,-64.8936C585.4855,-20.0605 474.685,-9.589 388.9993,-9.7745"/>
<polygon fill="none" stroke="#000000" points="388.9177,-6.2749 378.9425,-9.8452 388.9669,-13.2747 388.9177,-6.2749"/>
</g>
<!-- \\Firesphere\\SolrSearch\\Interfaces\\ConfigStore -->
<g id="node3" class="node">
<title>\\Firesphere\\SolrSearch\\Interfaces\\ConfigStore</title>
<polygon fill="none" stroke="#000000" points="299.6275,-278.8936 208.6275,-278.8936 208.6275,-242.8936 299.6275,-242.8936 299.6275,-278.8936"/>
<text text-anchor="middle" x="254.1275" y="-258.0936" font-family="Courier,monospace" font-size="11.00" fill="#000000">ConfigStore</text>
</g>
<!-- \\Firesphere\\SolrSearch\\Interfaces\\SiteStateInterface -->
<g id="node4" class="node">
<title>\\Firesphere\\SolrSearch\\Interfaces\\SiteStateInterface</title>
<polygon fill="none" stroke="#000000" points="323.1275,-224.8936 185.1275,-224.8936 185.1275,-188.8936 323.1275,-188.8936 323.1275,-224.8936"/>
<text text-anchor="middle" x="254.1275" y="-204.0936" font-family="Courier,monospace" font-size="11.00" fill="#000000">SiteStateInterface</text>
</g>
<!-- \\Firesphere\\SolrSearch\\Services\\SchemaService -->
<g id="node5" class="node">
<title>\\Firesphere\\SolrSearch\\Services\\SchemaService</title>
<polygon fill="none" stroke="#000000" points="724.7549,-2776.8936 620.7549,-2776.8936 620.7549,-2740.8936 724.7549,-2740.8936 724.7549,-2776.8936"/>
<text text-anchor="middle" x="672.7549" y="-2756.0936" font-family="Courier,monospace" font-size="11.00" fill="#000000">SchemaService</text>
</g>
<!-- \\SilverStripe\\View\\ViewableData -->
<g id="node64" class="node">
<title>\\SilverStripe\\View\\ViewableData</title>
<ellipse fill="none" stroke="#000000" cx="254.1275" cy="-126.8936" rx="163.2712" ry="18"/>
<text text-anchor="middle" x="254.1275" y="-123.1936" font-family="Times,serif" font-size="14.00" fill="#c0c0c0">\SilverStripe\View\ViewableData</text>
</g>
<!-- \\Firesphere\\SolrSearch\\Services\\SchemaService&#45;&gt;\\SilverStripe\\View\\ViewableData -->
<g id="edge5" class="edge">
<title>\\Firesphere\\SolrSearch\\Services\\SchemaService&#45;&gt;\\SilverStripe\\View\\ViewableData</title>
<path fill="none" stroke="#000000" d="M620.5639,-2757.209C602.4587,-2753.8146 583.8181,-2746.5885 572.2549,-2731.8936 396.6462,-2508.7231 691.3689,-393.9482 508.2549,-176.8936 487.4311,-152.21 458.2897,-137.4409 427.1368,-128.9661"/>
<polygon fill="none" stroke="#000000" points="427.9614,-125.5646 417.4111,-126.5341 426.2632,-132.3555 427.9614,-125.5646"/>
</g>
<!-- \\Firesphere\\SolrSearch\\Services\\SolrCoreService -->
<g id="node6" class="node">
<title>\\Firesphere\\SolrSearch\\Services\\SolrCoreService</title>
<polygon fill="none" stroke="#000000" points="731.7549,-2722.8936 613.7549,-2722.8936 613.7549,-2686.8936 731.7549,-2686.8936 731.7549,-2722.8936"/>
<text text-anchor="middle" x="672.7549" y="-2702.0936" font-family="Courier,monospace" font-size="11.00" fill="#000000">SolrCoreService</text>
</g>
<!-- \\Firesphere\\SolrSearch\\Extensions\\DataObjectExtension -->
<g id="node7" class="node">
<title>\\Firesphere\\SolrSearch\\Extensions\\DataObjectExtension</title>
<polygon fill="none" stroke="#000000" points="745.2549,-2642.8936 600.2549,-2642.8936 600.2549,-2606.8936 745.2549,-2606.8936 745.2549,-2642.8936"/>
<text text-anchor="middle" x="672.7549" y="-2622.0936" font-family="Courier,monospace" font-size="11.00" fill="#000000">DataObjectExtension</text>
</g>
<!-- \\SilverStripe\\ORM\\DataExtension -->
<g id="node65" class="node">
<title>\\SilverStripe\\ORM\\DataExtension</title>
<ellipse fill="none" stroke="#000000" cx="254.1275" cy="-72.8936" rx="167.8704" ry="18"/>
<text text-anchor="middle" x="254.1275" y="-69.1936" font-family="Times,serif" font-size="14.00" fill="#c0c0c0">\SilverStripe\ORM\DataExtension</text>
</g>
<!-- \\Firesphere\\SolrSearch\\Extensions\\DataObjectExtension&#45;&gt;\\SilverStripe\\ORM\\DataExtension -->
<g id="edge6" class="edge">
<title>\\Firesphere\\SolrSearch\\Extensions\\DataObjectExtension&#45;&gt;\\SilverStripe\\ORM\\DataExtension</title>
<path fill="none" stroke="#000000" d="M600.0284,-2617.4428C589.2653,-2613.2081 579.4077,-2606.9783 572.2549,-2597.8936 486.377,-2488.8206 602.4019,-201.9144 508.2549,-99.8936 467.3944,-55.6158 398.3752,-50.7157 342.5691,-55.876"/>
<polygon fill="none" stroke="#000000" points="341.8938,-52.4275 332.3124,-56.9494 342.6224,-59.3894 341.8938,-52.4275"/>
</g>
<!-- \\Firesphere\\SolrSearch\\Extensions\\GridFieldExtension -->
<g id="node8" class="node">
<title>\\Firesphere\\SolrSearch\\Extensions\\GridFieldExtension</title>
<polygon fill="none" stroke="#000000" points="741.7549,-2588.8936 603.7549,-2588.8936 603.7549,-2552.8936 741.7549,-2552.8936 741.7549,-2588.8936"/>
<text text-anchor="middle" x="672.7549" y="-2568.0936" font-family="Courier,monospace" font-size="11.00" fill="#000000">GridFieldExtension</text>
</g>
<!-- \\Firesphere\\SolrSearch\\Extensions\\GridFieldExtension&#45;&gt;\\SilverStripe\\Core\\Extension -->
<g id="edge7" class="edge">
<title>\\Firesphere\\SolrSearch\\Extensions\\GridFieldExtension&#45;&gt;\\SilverStripe\\Core\\Extension</title>
<path fill="none" stroke="#000000" d="M603.7234,-2562.718C591.4989,-2558.1369 580.1668,-2551.2329 572.2549,-2540.8936 487.9914,-2430.7784 602.2905,-147.7905 508.2549,-45.8936 466.3864,-.5249 394.9546,3.5014 338.4662,-2.2759"/>
<polygon fill="none" stroke="#000000" points="338.002,1.1939 328.4625,-3.4158 338.7945,-5.7611 338.002,1.1939"/>
</g>
<!-- \\Firesphere\\SolrSearch\\Models\\DirtyClass -->
<g id="node9" class="node">
<title>\\Firesphere\\SolrSearch\\Models\\DirtyClass</title>
<polygon fill="none" stroke="#000000" points="714.7549,-2964.8936 630.7549,-2964.8936 630.7549,-2928.8936 714.7549,-2928.8936 714.7549,-2964.8936"/>
<text text-anchor="middle" x="672.7549" y="-2944.0936" font-family="Courier,monospace" font-size="11.00" fill="#000000">DirtyClass</text>
</g>
<!-- \\SilverStripe\\ORM\\DataObject -->
<g id="node66" class="node">
<title>\\SilverStripe\\ORM\\DataObject</title>
<ellipse fill="none" stroke="#000000" cx="254.1275" cy="-3694.8936" rx="152.9733" ry="18"/>
<text text-anchor="middle" x="254.1275" y="-3691.1936" font-family="Times,serif" font-size="14.00" fill="#c0c0c0">\SilverStripe\ORM\DataObject</text>
</g>
<!-- \\Firesphere\\SolrSearch\\Models\\DirtyClass&#45;&gt;\\SilverStripe\\ORM\\DataObject -->
<g id="edge8" class="edge">
<title>\\Firesphere\\SolrSearch\\Models\\DirtyClass&#45;&gt;\\SilverStripe\\ORM\\DataObject</title>
<path fill="none" stroke="#000000" d="M671.3994,-2964.9922C663.3653,-3067.0901 618.5358,-3569.9603 508.2549,-3667.8936 467.2787,-3704.2818 406.6849,-3711.8419 354.9426,-3709.9213"/>
<polygon fill="none" stroke="#000000" points="354.8811,-3706.4141 344.7206,-3709.4165 354.5358,-3713.4056 354.8811,-3706.4141"/>
</g>
<!-- \\Firesphere\\SolrSearch\\Models\\SearchSynonym -->
<g id="node10" class="node">
<title>\\Firesphere\\SolrSearch\\Models\\SearchSynonym</title>
<polygon fill="none" stroke="#000000" points="724.7549,-2910.8936 620.7549,-2910.8936 620.7549,-2874.8936 724.7549,-2874.8936 724.7549,-2910.8936"/>
<text text-anchor="middle" x="672.7549" y="-2890.0936" font-family="Courier,monospace" font-size="11.00" fill="#000000">SearchSynonym</text>
</g>
<!-- \\Firesphere\\SolrSearch\\Models\\SearchSynonym&#45;&gt;\\SilverStripe\\ORM\\DataObject -->
<g id="edge9" class="edge">
<title>\\Firesphere\\SolrSearch\\Models\\SearchSynonym&#45;&gt;\\SilverStripe\\ORM\\DataObject</title>
<path fill="none" stroke="#000000" d="M620.5066,-2895.0571C602.6191,-2898.5349 584.14,-2905.6924 572.2549,-2919.8936 465.1834,-3047.8303 625.0062,-3548.7246 508.2549,-3667.8936 466.6018,-3710.4092 398.8193,-3715.7806 343.7303,-3711.2619"/>
<polygon fill="none" stroke="#000000" points="343.8846,-3707.761 333.6009,-3710.3097 343.2294,-3714.7303 343.8846,-3707.761"/>
</g>
<!-- \\Firesphere\\SolrSearch\\Models\\SolrLog -->
<g id="node11" class="node">
<title>\\Firesphere\\SolrSearch\\Models\\SolrLog</title>
<polygon fill="none" stroke="#000000" points="704.7549,-2856.8936 640.7549,-2856.8936 640.7549,-2820.8936 704.7549,-2820.8936 704.7549,-2856.8936"/>
<text text-anchor="middle" x="672.7549" y="-2836.0936" font-family="Courier,monospace" font-size="11.00" fill="#000000">SolrLog</text>
</g>
<!-- \\Firesphere\\SolrSearch\\Models\\SolrLog&#45;&gt;\\SilverStripe\\ORM\\DataObject -->
<g id="edge10" class="edge">
<title>\\Firesphere\\SolrSearch\\Models\\SolrLog&#45;&gt;\\SilverStripe\\ORM\\DataObject</title>
<path fill="none" stroke="#000000" d="M640.4779,-2838.4555C617.7907,-2840.0224 588.6637,-2846.1728 572.2549,-2865.8936 457.9007,-3003.3292 633.0096,-3539.8245 508.2549,-3667.8936 466.5779,-3710.6778 398.4592,-3715.931 343.2333,-3711.2945"/>
<polygon fill="none" stroke="#000000" points="343.3694,-3707.7915 333.0808,-3710.3204 342.7008,-3714.7595 343.3694,-3707.7915"/>
</g>
<!-- \\SilverStripe\\Security\\PermissionProvider -->
<g id="node67" class="node">
<title>\\SilverStripe\\Security\\PermissionProvider</title>
<ellipse fill="none" stroke="#000000" cx="254.1275" cy="-3640.8936" rx="206.0634" ry="18"/>
<text text-anchor="middle" x="254.1275" y="-3637.1936" font-family="Times,serif" font-size="14.00" fill="#c0c0c0">\SilverStripe\Security\PermissionProvider</text>
</g>
<!-- \\Firesphere\\SolrSearch\\Models\\SolrLog&#45;&gt;\\SilverStripe\\Security\\PermissionProvider -->
<g id="edge11" class="edge">
<title>\\Firesphere\\SolrSearch\\Models\\SolrLog&#45;&gt;\\SilverStripe\\Security\\PermissionProvider</title>
<path fill="none" stroke="#000000" stroke-dasharray="1,5" d="M640.5114,-2838.4834C617.8408,-2840.0643 588.7201,-2846.2198 572.2549,-2865.8936 465.1834,-2993.8303 625.0062,-3494.7246 508.2549,-3613.8936 468.876,-3654.088 406.1429,-3661.0833 352.8606,-3657.9091"/>
<polygon fill="none" stroke="#000000" points="352.9112,-3654.4037 342.6852,-3657.1748 352.4073,-3661.3856 352.9112,-3654.4037"/>
</g>
<!-- \\Firesphere\\SolrSearch\\Traits\\GetSetSearchResolverTrait -->
<g id="node12" class="node">
<title>\\Firesphere\\SolrSearch\\Traits\\GetSetSearchResolverTrait</title>
<polygon fill="none" stroke="#000000" points="765.2549,-2508.8936 580.2549,-2508.8936 580.2549,-2472.8936 765.2549,-2472.8936 765.2549,-2508.8936"/>
<text text-anchor="middle" x="672.7549" y="-2488.0936" font-family="Courier,monospace" font-size="11.00" fill="#000000">GetSetSearchResolverTrait</text>
</g>
<!-- \\Firesphere\\SolrSearch\\Traits\\QueryComponentBoostTrait -->
<g id="node13" class="node">
<title>\\Firesphere\\SolrSearch\\Traits\\QueryComponentBoostTrait</title>
<polygon fill="none" stroke="#000000" points="762.2549,-2454.8936 583.2549,-2454.8936 583.2549,-2418.8936 762.2549,-2418.8936 762.2549,-2454.8936"/>
<text text-anchor="middle" x="672.7549" y="-2434.0936" font-family="Courier,monospace" font-size="11.00" fill="#000000">QueryComponentBoostTrait</text>
</g>
<!-- \\Firesphere\\SolrSearch\\Traits\\QueryComponentFacetTrait -->
<g id="node14" class="node">
<title>\\Firesphere\\SolrSearch\\Traits\\QueryComponentFacetTrait</title>
<polygon fill="none" stroke="#000000" points="762.2549,-2400.8936 583.2549,-2400.8936 583.2549,-2364.8936 762.2549,-2364.8936 762.2549,-2400.8936"/>
<text text-anchor="middle" x="672.7549" y="-2380.0936" font-family="Courier,monospace" font-size="11.00" fill="#000000">QueryComponentFacetTrait</text>
</g>
<!-- \\Firesphere\\SolrSearch\\Traits\\QueryComponentFilterTrait -->
<g id="node15" class="node">
<title>\\Firesphere\\SolrSearch\\Traits\\QueryComponentFilterTrait</title>
<polygon fill="none" stroke="#000000" points="765.2549,-2346.8936 580.2549,-2346.8936 580.2549,-2310.8936 765.2549,-2310.8936 765.2549,-2346.8936"/>
<text text-anchor="middle" x="672.7549" y="-2326.0936" font-family="Courier,monospace" font-size="11.00" fill="#000000">QueryComponentFilterTrait</text>
</g>
<!-- \\Firesphere\\SolrSearch\\Traits\\BaseQueryTrait -->
<g id="node16" class="node">
<title>\\Firesphere\\SolrSearch\\Traits\\BaseQueryTrait</title>
<polygon fill="none" stroke="#000000" points="728.2549,-2292.8936 617.2549,-2292.8936 617.2549,-2256.8936 728.2549,-2256.8936 728.2549,-2292.8936"/>
<text text-anchor="middle" x="672.7549" y="-2272.0936" font-family="Courier,monospace" font-size="11.00" fill="#000000">BaseQueryTrait</text>
</g>
<!-- \\Firesphere\\SolrSearch\\Traits\\DataResolveTrait -->
<g id="node17" class="node">
<title>\\Firesphere\\SolrSearch\\Traits\\DataResolveTrait</title>
<polygon fill="none" stroke="#000000" points="735.2549,-2238.8936 610.2549,-2238.8936 610.2549,-2202.8936 735.2549,-2202.8936 735.2549,-2238.8936"/>
<text text-anchor="middle" x="672.7549" y="-2218.0936" font-family="Courier,monospace" font-size="11.00" fill="#000000">DataResolveTrait</text>
</g>
<!-- \\Firesphere\\SolrSearch\\Traits\\DocumentFactoryTrait -->
<g id="node18" class="node">
<title>\\Firesphere\\SolrSearch\\Traits\\DocumentFactoryTrait</title>
<polygon fill="none" stroke="#000000" points="748.7549,-2184.8936 596.7549,-2184.8936 596.7549,-2148.8936 748.7549,-2148.8936 748.7549,-2184.8936"/>
<text text-anchor="middle" x="672.7549" y="-2164.0936" font-family="Courier,monospace" font-size="11.00" fill="#000000">DocumentFactoryTrait</text>
</g>
<!-- \\Firesphere\\SolrSearch\\Traits\\BaseIndexTrait -->
<g id="node19" class="node">
<title>\\Firesphere\\SolrSearch\\Traits\\BaseIndexTrait</title>
<polygon fill="none" stroke="#000000" points="728.2549,-2130.8936 617.2549,-2130.8936 617.2549,-2094.8936 728.2549,-2094.8936 728.2549,-2130.8936"/>
<text text-anchor="middle" x="672.7549" y="-2110.0936" font-family="Courier,monospace" font-size="11.00" fill="#000000">BaseIndexTrait</text>
</g>
<!-- \\Firesphere\\SolrSearch\\Traits\\SolrIndexTrait -->
<g id="node20" class="node">
<title>\\Firesphere\\SolrSearch\\Traits\\SolrIndexTrait</title>
<polygon fill="none" stroke="#000000" points="728.2549,-2076.8936 617.2549,-2076.8936 617.2549,-2040.8936 728.2549,-2040.8936 728.2549,-2076.8936"/>
<text text-anchor="middle" x="672.7549" y="-2056.0936" font-family="Courier,monospace" font-size="11.00" fill="#000000">SolrIndexTrait</text>
</g>
<!-- \\Firesphere\\SolrSearch\\Traits\\SearchResultGetTrait -->
<g id="node21" class="node">
<title>\\Firesphere\\SolrSearch\\Traits\\SearchResultGetTrait</title>
<polygon fill="none" stroke="#000000" points="748.7549,-2022.8936 596.7549,-2022.8936 596.7549,-1986.8936 748.7549,-1986.8936 748.7549,-2022.8936"/>
<text text-anchor="middle" x="672.7549" y="-2002.0936" font-family="Courier,monospace" font-size="11.00" fill="#000000">SearchResultGetTrait</text>
</g>
<!-- \\Firesphere\\SolrSearch\\Traits\\SearchResultSetTrait -->
<g id="node22" class="node">
<title>\\Firesphere\\SolrSearch\\Traits\\SearchResultSetTrait</title>
<polygon fill="none" stroke="#000000" points="748.7549,-1968.8936 596.7549,-1968.8936 596.7549,-1932.8936 748.7549,-1932.8936 748.7549,-1968.8936"/>
<text text-anchor="middle" x="672.7549" y="-1948.0936" font-family="Courier,monospace" font-size="11.00" fill="#000000">SearchResultSetTrait</text>
</g>
<!-- \\Firesphere\\SolrSearch\\Traits\\GetSetSchemaServiceTrait -->
<g id="node23" class="node">
<title>\\Firesphere\\SolrSearch\\Traits\\GetSetSchemaServiceTrait</title>
<polygon fill="none" stroke="#000000" points="762.2549,-1914.8936 583.2549,-1914.8936 583.2549,-1878.8936 762.2549,-1878.8936 762.2549,-1914.8936"/>
<text text-anchor="middle" x="672.7549" y="-1894.0936" font-family="Courier,monospace" font-size="11.00" fill="#000000">GetSetSchemaServiceTrait</text>
</g>
<!-- \\Firesphere\\SolrSearch\\Traits\\CoreServiceTrait -->
<g id="node24" class="node">
<title>\\Firesphere\\SolrSearch\\Traits\\CoreServiceTrait</title>
<polygon fill="none" stroke="#000000" points="735.2549,-1860.8936 610.2549,-1860.8936 610.2549,-1824.8936 735.2549,-1824.8936 735.2549,-1860.8936"/>
<text text-anchor="middle" x="672.7549" y="-1840.0936" font-family="Courier,monospace" font-size="11.00" fill="#000000">CoreServiceTrait</text>
</g>
<!-- \\Firesphere\\SolrSearch\\Traits\\CoreAdminTrait -->
<g id="node25" class="node">
<title>\\Firesphere\\SolrSearch\\Traits\\CoreAdminTrait</title>
<polygon fill="none" stroke="#000000" points="728.2549,-1806.8936 617.2549,-1806.8936 617.2549,-1770.8936 728.2549,-1770.8936 728.2549,-1806.8936"/>
<text text-anchor="middle" x="672.7549" y="-1786.0936" font-family="Courier,monospace" font-size="11.00" fill="#000000">CoreAdminTrait</text>
</g>
<!-- \\Firesphere\\SolrSearch\\Traits\\GetterSetterTrait -->
<g id="node26" class="node">
<title>\\Firesphere\\SolrSearch\\Traits\\GetterSetterTrait</title>
<polygon fill="none" stroke="#000000" points="738.2549,-1752.8936 607.2549,-1752.8936 607.2549,-1716.8936 738.2549,-1716.8936 738.2549,-1752.8936"/>
<text text-anchor="middle" x="672.7549" y="-1732.0936" font-family="Courier,monospace" font-size="11.00" fill="#000000">GetterSetterTrait</text>
</g>
<!-- \\Firesphere\\SolrSearch\\Traits\\LoggerTrait -->
<g id="node27" class="node">
<title>\\Firesphere\\SolrSearch\\Traits\\LoggerTrait</title>
<polygon fill="none" stroke="#000000" points="718.2549,-1698.8936 627.2549,-1698.8936 627.2549,-1662.8936 718.2549,-1662.8936 718.2549,-1698.8936"/>
<text text-anchor="middle" x="672.7549" y="-1678.0936" font-family="Courier,monospace" font-size="11.00" fill="#000000">LoggerTrait</text>
</g>
<!-- \\Firesphere\\SolrSearch\\Jobs\\SolrConfigureJob -->
<g id="node28" class="node">
<title>\\Firesphere\\SolrSearch\\Jobs\\SolrConfigureJob</title>
<polygon fill="none" stroke="#000000" points="735.2549,-1618.8936 610.2549,-1618.8936 610.2549,-1582.8936 735.2549,-1582.8936 735.2549,-1618.8936"/>
<text text-anchor="middle" x="672.7549" y="-1598.0936" font-family="Courier,monospace" font-size="11.00" fill="#000000">SolrConfigureJob</text>
</g>
<!-- \\Symbiote\\QueuedJobs\\Services\\AbstractQueuedJob -->
<g id="node68" class="node">
<title>\\Symbiote\\QueuedJobs\\Services\\AbstractQueuedJob</title>
<ellipse fill="none" stroke="#000000" cx="254.1275" cy="-3586.8936" rx="254.255" ry="18"/>
<text text-anchor="middle" x="254.1275" y="-3583.1936" font-family="Times,serif" font-size="14.00" fill="#c0c0c0">\Symbiote\QueuedJobs\Services\AbstractQueuedJob</text>
</g>
<!-- \\Firesphere\\SolrSearch\\Jobs\\SolrConfigureJob&#45;&gt;\\Symbiote\\QueuedJobs\\Services\\AbstractQueuedJob -->
<g id="edge12" class="edge">
<title>\\Firesphere\\SolrSearch\\Jobs\\SolrConfigureJob&#45;&gt;\\Symbiote\\QueuedJobs\\Services\\AbstractQueuedJob</title>
<path fill="none" stroke="#000000" d="M610.9116,-1618.9768C595.7999,-1626.4077 581.3704,-1636.7136 572.2549,-1650.8936 457.4917,-1829.4183 652.7997,-3404.4957 508.2549,-3559.8936 469.647,-3601.4003 406.2769,-3608.2016 352.4781,-3604.6006"/>
<polygon fill="none" stroke="#000000" points="352.4514,-3601.0874 342.2047,-3603.7813 351.8948,-3608.0653 352.4514,-3601.0874"/>
</g>
<!-- \\Firesphere\\SolrSearch\\Jobs\\ClearDirtyClassesJob -->
<g id="node29" class="node">
<title>\\Firesphere\\SolrSearch\\Jobs\\ClearDirtyClassesJob</title>
<polygon fill="none" stroke="#000000" points="748.7549,-1564.8936 596.7549,-1564.8936 596.7549,-1528.8936 748.7549,-1528.8936 748.7549,-1564.8936"/>
<text text-anchor="middle" x="672.7549" y="-1544.0936" font-family="Courier,monospace" font-size="11.00" fill="#000000">ClearDirtyClassesJob</text>
</g>
<!-- \\Firesphere\\SolrSearch\\Jobs\\ClearDirtyClassesJob&#45;&gt;\\Symbiote\\QueuedJobs\\Services\\AbstractQueuedJob -->
<g id="edge13" class="edge">
<title>\\Firesphere\\SolrSearch\\Jobs\\ClearDirtyClassesJob&#45;&gt;\\Symbiote\\QueuedJobs\\Services\\AbstractQueuedJob</title>
<path fill="none" stroke="#000000" d="M596.5799,-1555.8448C587.1828,-1560.0087 578.652,-1565.8235 572.2549,-1573.8936 435.1052,-1746.9089 658.5186,-3398.137 508.2549,-3559.8936 469.674,-3601.4253 406.3039,-3608.2267 352.4984,-3604.6195"/>
<polygon fill="none" stroke="#000000" points="352.4706,-3601.1062 342.2237,-3603.7988 351.9132,-3608.084 352.4706,-3601.1062"/>
</g>
<!-- \\Firesphere\\SolrSearch\\Jobs\\SolrIndexJob -->
<g id="node30" class="node">
<title>\\Firesphere\\SolrSearch\\Jobs\\SolrIndexJob</title>
<polygon fill="none" stroke="#000000" points="721.7549,-1510.8936 623.7549,-1510.8936 623.7549,-1474.8936 721.7549,-1474.8936 721.7549,-1510.8936"/>
<text text-anchor="middle" x="672.7549" y="-1490.0936" font-family="Courier,monospace" font-size="11.00" fill="#000000">SolrIndexJob</text>
</g>
<!-- \\Firesphere\\SolrSearch\\Jobs\\SolrIndexJob&#45;&gt;\\Symbiote\\QueuedJobs\\Services\\AbstractQueuedJob -->
<g id="edge14" class="edge">
<title>\\Firesphere\\SolrSearch\\Jobs\\SolrIndexJob&#45;&gt;\\Symbiote\\QueuedJobs\\Services\\AbstractQueuedJob</title>
<path fill="none" stroke="#000000" d="M623.7539,-1494.0637C604.6999,-1497.2042 584.5375,-1504.3854 572.2549,-1519.8936 431.4556,-1697.6684 662.5293,-3393.6775 508.2549,-3559.8936 469.6917,-3601.4418 406.3217,-3608.2431 352.5117,-3604.6318"/>
<polygon fill="none" stroke="#000000" points="352.4832,-3601.1185 342.2361,-3603.8104 351.9253,-3608.0962 352.4832,-3601.1185"/>
</g>
<!-- \\Firesphere\\SolrSearch\\Tasks\\ClearErrorsTask -->
<g id="node31" class="node">
<title>\\Firesphere\\SolrSearch\\Tasks\\ClearErrorsTask</title>
<polygon fill="none" stroke="#000000" points="731.7549,-1322.8936 613.7549,-1322.8936 613.7549,-1286.8936 731.7549,-1286.8936 731.7549,-1322.8936"/>
<text text-anchor="middle" x="672.7549" y="-1302.0936" font-family="Courier,monospace" font-size="11.00" fill="#000000">ClearErrorsTask</text>
</g>
<!-- \\SilverStripe\\Dev\\BuildTask -->
<g id="node69" class="node">
<title>\\SilverStripe\\Dev\\BuildTask</title>
<ellipse fill="none" stroke="#000000" cx="254.1275" cy="-3532.8936" rx="139.9756" ry="18"/>
<text text-anchor="middle" x="254.1275" y="-3529.1936" font-family="Times,serif" font-size="14.00" fill="#c0c0c0">\SilverStripe\Dev\BuildTask</text>
</g>
<!-- \\Firesphere\\SolrSearch\\Tasks\\ClearErrorsTask&#45;&gt;\\SilverStripe\\Dev\\BuildTask -->
<g id="edge15" class="edge">
<title>\\Firesphere\\SolrSearch\\Tasks\\ClearErrorsTask&#45;&gt;\\SilverStripe\\Dev\\BuildTask</title>
<path fill="none" stroke="#000000" d="M613.5041,-1308.1379C597.7527,-1312.0133 582.3379,-1319.1374 572.2549,-1331.8936 422.3989,-1521.4795 672.4822,-3328.6111 508.2549,-3505.8936 466.0873,-3551.4132 394.1491,-3555.256 337.5525,-3549.3731"/>
<polygon fill="none" stroke="#000000" points="337.8694,-3545.8865 327.5337,-3548.2151 337.0657,-3552.8402 337.8694,-3545.8865"/>
</g>
<!-- \\Firesphere\\SolrSearch\\Tasks\\ClearDirtyClassesTask -->
<g id="node32" class="node">
<title>\\Firesphere\\SolrSearch\\Tasks\\ClearDirtyClassesTask</title>
<polygon fill="none" stroke="#000000" points="751.7549,-1268.8936 593.7549,-1268.8936 593.7549,-1232.8936 751.7549,-1232.8936 751.7549,-1268.8936"/>
<text text-anchor="middle" x="672.7549" y="-1248.0936" font-family="Courier,monospace" font-size="11.00" fill="#000000">ClearDirtyClassesTask</text>
</g>
<!-- \\Firesphere\\SolrSearch\\Tasks\\ClearDirtyClassesTask&#45;&gt;\\SilverStripe\\Dev\\BuildTask -->
<g id="edge16" class="edge">
<title>\\Firesphere\\SolrSearch\\Tasks\\ClearDirtyClassesTask&#45;&gt;\\SilverStripe\\Dev\\BuildTask</title>
<path fill="none" stroke="#000000" d="M593.6184,-1261.196C585.3902,-1265.2418 577.966,-1270.663 572.2549,-1277.8936 418.749,-1472.2393 676.4931,-3324.1514 508.2549,-3505.8936 466.1036,-3551.4282 394.1639,-3555.2697 337.5625,-3549.3824"/>
<polygon fill="none" stroke="#000000" points="337.8788,-3545.8957 327.5428,-3548.2236 337.0745,-3552.8493 337.8788,-3545.8957"/>
</g>
<!-- \\Firesphere\\SolrSearch\\Tasks\\SolrIndexTask -->
<g id="node33" class="node">
<title>\\Firesphere\\SolrSearch\\Tasks\\SolrIndexTask</title>
<polygon fill="none" stroke="#000000" points="724.7549,-1430.8936 620.7549,-1430.8936 620.7549,-1394.8936 724.7549,-1394.8936 724.7549,-1430.8936"/>
<text text-anchor="middle" x="672.7549" y="-1410.0936" font-family="Courier,monospace" font-size="11.00" fill="#000000">SolrIndexTask</text>
</g>
<!-- \\Firesphere\\SolrSearch\\Tasks\\SolrIndexTask&#45;&gt;\\SilverStripe\\Dev\\BuildTask -->
<g id="edge17" class="edge">
<title>\\Firesphere\\SolrSearch\\Tasks\\SolrIndexTask&#45;&gt;\\SilverStripe\\Dev\\BuildTask</title>
<path fill="none" stroke="#000000" d="M620.6361,-1426.581C602.1928,-1434.1623 583.301,-1445.6688 572.2549,-1462.8936 449.6547,-1654.0708 662.7521,-3339.4298 508.2549,-3505.8936 466.1156,-3551.2967 394.3527,-3555.2068 337.8124,-3549.3781"/>
<polygon fill="none" stroke="#000000" points="338.1362,-3545.8924 327.8024,-3548.2298 337.3383,-3552.8468 338.1362,-3545.8924"/>
</g>
<!-- \\Firesphere\\SolrSearch\\Tasks\\SolrConfigureTask -->
<g id="node34" class="node">
<title>\\Firesphere\\SolrSearch\\Tasks\\SolrConfigureTask</title>
<polygon fill="none" stroke="#000000" points="738.2549,-1376.8936 607.2549,-1376.8936 607.2549,-1340.8936 738.2549,-1340.8936 738.2549,-1376.8936"/>
<text text-anchor="middle" x="672.7549" y="-1356.0936" font-family="Courier,monospace" font-size="11.00" fill="#000000">SolrConfigureTask</text>
</g>
<!-- \\Firesphere\\SolrSearch\\Tasks\\SolrConfigureTask&#45;&gt;\\SilverStripe\\Dev\\BuildTask -->
<g id="edge18" class="edge">
<title>\\Firesphere\\SolrSearch\\Tasks\\SolrConfigureTask&#45;&gt;\\SilverStripe\\Dev\\BuildTask</title>
<path fill="none" stroke="#000000" d="M607.2394,-1363.8717C593.7426,-1368.0177 580.9976,-1374.8415 572.2549,-1385.8936 426.0486,-1570.7197 668.4712,-3333.0708 508.2549,-3505.8936 466.1414,-3551.3207 394.3762,-3555.2286 337.8284,-3549.393"/>
<polygon fill="none" stroke="#000000" points="338.151,-3545.9071 327.817,-3548.2433 337.3524,-3552.8614 338.151,-3545.9071"/>
</g>
<!-- \\Firesphere\\SolrSearch\\Results\\SearchResult -->
<g id="node35" class="node">
<title>\\Firesphere\\SolrSearch\\Results\\SearchResult</title>
<polygon fill="none" stroke="#000000" points="721.7549,-1188.8936 623.7549,-1188.8936 623.7549,-1152.8936 721.7549,-1152.8936 721.7549,-1188.8936"/>
<text text-anchor="middle" x="672.7549" y="-1168.0936" font-family="Courier,monospace" font-size="11.00" fill="#000000">SearchResult</text>
</g>
<!-- \\Firesphere\\SolrSearch\\States\\SiteState -->
<g id="node36" class="node">
<title>\\Firesphere\\SolrSearch\\States\\SiteState</title>
<polygon fill="none" stroke="#000000" points="714.7549,-1108.8936 630.7549,-1108.8936 630.7549,-1072.8936 714.7549,-1072.8936 714.7549,-1108.8936"/>
<text text-anchor="start" x="638.7549" y="-1094.0936" font-family="Courier,monospace" font-size="11.00" fill="#000000">abstract</text>
<text text-anchor="start" x="642.2549" y="-1082.0936" font-family="Courier,monospace" font-size="11.00" fill="#000000">SiteState</text>
</g>
<!-- \\Firesphere\\SolrSearch\\Helpers\\SolrLogger -->
<g id="node37" class="node">
<title>\\Firesphere\\SolrSearch\\Helpers\\SolrLogger</title>
<polygon fill="none" stroke="#000000" points="714.7549,-1028.8936 630.7549,-1028.8936 630.7549,-992.8936 714.7549,-992.8936 714.7549,-1028.8936"/>
<text text-anchor="middle" x="672.7549" y="-1008.0936" font-family="Courier,monospace" font-size="11.00" fill="#000000">SolrLogger</text>
</g>
<!-- \\Firesphere\\SolrSearch\\Helpers\\DataResolver -->
<g id="node38" class="node">
<title>\\Firesphere\\SolrSearch\\Helpers\\DataResolver</title>
<polygon fill="none" stroke="#000000" points="721.7549,-974.8936 623.7549,-974.8936 623.7549,-938.8936 721.7549,-938.8936 721.7549,-974.8936"/>
<text text-anchor="middle" x="672.7549" y="-954.0936" font-family="Courier,monospace" font-size="11.00" fill="#000000">DataResolver</text>
</g>
<!-- \\Firesphere\\SolrSearch\\Helpers\\Synonyms -->
<g id="node39" class="node">
<title>\\Firesphere\\SolrSearch\\Helpers\\Synonyms</title>
<polygon fill="none" stroke="#000000" points="708.2549,-920.8936 637.2549,-920.8936 637.2549,-884.8936 708.2549,-884.8936 708.2549,-920.8936"/>
<text text-anchor="middle" x="672.7549" y="-900.0936" font-family="Courier,monospace" font-size="11.00" fill="#000000">Synonyms</text>
</g>
<!-- \\Firesphere\\SolrSearch\\Helpers\\Statics -->
<g id="node40" class="node">
<title>\\Firesphere\\SolrSearch\\Helpers\\Statics</title>
<polygon fill="none" stroke="#000000" points="704.7549,-866.8936 640.7549,-866.8936 640.7549,-830.8936 704.7549,-830.8936 704.7549,-866.8936"/>
<text text-anchor="middle" x="672.7549" y="-846.0936" font-family="Courier,monospace" font-size="11.00" fill="#000000">Statics</text>
</g>
<!-- \\Firesphere\\SolrSearch\\Helpers\\FieldResolver -->
<g id="node41" class="node">
<title>\\Firesphere\\SolrSearch\\Helpers\\FieldResolver</title>
<polygon fill="none" stroke="#000000" points="724.7549,-812.8936 620.7549,-812.8936 620.7549,-776.8936 724.7549,-776.8936 724.7549,-812.8936"/>
<text text-anchor="middle" x="672.7549" y="-792.0936" font-family="Courier,monospace" font-size="11.00" fill="#000000">FieldResolver</text>
</g>
<!-- \\Firesphere\\SolrSearch\\Indexes\\BaseIndex -->
<g id="node42" class="node">
<title>\\Firesphere\\SolrSearch\\Indexes\\BaseIndex</title>
<polygon fill="none" stroke="#000000" points="714.7549,-732.8936 630.7549,-732.8936 630.7549,-696.8936 714.7549,-696.8936 714.7549,-732.8936"/>
<text text-anchor="start" x="638.7549" y="-718.0936" font-family="Courier,monospace" font-size="11.00" fill="#000000">abstract</text>
<text text-anchor="start" x="642.2549" y="-706.0936" font-family="Courier,monospace" font-size="11.00" fill="#000000">BaseIndex</text>
</g>
<!-- \\Firesphere\\SolrSearch\\Admins\\SearchAdmin -->
<g id="node43" class="node">
<title>\\Firesphere\\SolrSearch\\Admins\\SearchAdmin</title>
<polygon fill="none" stroke="#000000" points="718.2549,-652.8936 627.2549,-652.8936 627.2549,-616.8936 718.2549,-616.8936 718.2549,-652.8936"/>
<text text-anchor="middle" x="672.7549" y="-632.0936" font-family="Courier,monospace" font-size="11.00" fill="#000000">SearchAdmin</text>
</g>
<!-- \\SilverStripe\\Admin\\ModelAdmin -->
<g id="node70" class="node">
<title>\\SilverStripe\\Admin\\ModelAdmin</title>
<ellipse fill="none" stroke="#000000" cx="254.1275" cy="-3478.8936" rx="165.1707" ry="18"/>
<text text-anchor="middle" x="254.1275" y="-3475.1936" font-family="Times,serif" font-size="14.00" fill="#c0c0c0">\SilverStripe\Admin\ModelAdmin</text>
</g>
<!-- \\Firesphere\\SolrSearch\\Admins\\SearchAdmin&#45;&gt;\\SilverStripe\\Admin\\ModelAdmin -->
<g id="edge19" class="edge">
<title>\\Firesphere\\SolrSearch\\Admins\\SearchAdmin&#45;&gt;\\SilverStripe\\Admin\\ModelAdmin</title>
<path fill="none" stroke="#000000" d="M627.1205,-645.993C606.7165,-653.4491 584.537,-665.5677 572.2549,-684.8936 489.7805,-814.6669 612.3932,-3338.7636 508.2549,-3451.8936 467.3081,-3496.3758 397.9482,-3501.1526 342.0256,-3495.8906"/>
<polygon fill="none" stroke="#000000" points="342.0638,-3492.375 331.7499,-3494.7985 341.324,-3499.3358 342.0638,-3492.375"/>
</g>
<!-- \\Firesphere\\SolrSearch\\Factories\\QueryComponentFactory -->
<g id="node44" class="node">
<title>\\Firesphere\\SolrSearch\\Factories\\QueryComponentFactory</title>
<polygon fill="none" stroke="#000000" points="751.7549,-572.8936 593.7549,-572.8936 593.7549,-536.8936 751.7549,-536.8936 751.7549,-572.8936"/>
<text text-anchor="middle" x="672.7549" y="-552.0936" font-family="Courier,monospace" font-size="11.00" fill="#000000">QueryComponentFactory</text>
</g>
<!-- \\Firesphere\\SolrSearch\\Factories\\DocumentFactory -->
<g id="node45" class="node">
<title>\\Firesphere\\SolrSearch\\Factories\\DocumentFactory</title>
<polygon fill="none" stroke="#000000" points="731.7549,-518.8936 613.7549,-518.8936 613.7549,-482.8936 731.7549,-482.8936 731.7549,-518.8936"/>
<text text-anchor="middle" x="672.7549" y="-498.0936" font-family="Courier,monospace" font-size="11.00" fill="#000000">DocumentFactory</text>
</g>
<!-- \\Firesphere\\SolrSearch\\Queries\\BaseQuery -->
<g id="node46" class="node">
<title>\\Firesphere\\SolrSearch\\Queries\\BaseQuery</title>
<polygon fill="none" stroke="#000000" points="711.2549,-438.8936 634.2549,-438.8936 634.2549,-402.8936 711.2549,-402.8936 711.2549,-438.8936"/>
<text text-anchor="middle" x="672.7549" y="-418.0936" font-family="Courier,monospace" font-size="11.00" fill="#000000">BaseQuery</text>
</g>
<!-- \\Firesphere\\SolrSearch\\Stores\\FileConfigStore -->
<g id="node47" class="node">
<title>\\Firesphere\\SolrSearch\\Stores\\FileConfigStore</title>
<polygon fill="none" stroke="#000000" points="731.7549,-278.8936 613.7549,-278.8936 613.7549,-242.8936 731.7549,-242.8936 731.7549,-278.8936"/>
<text text-anchor="middle" x="672.7549" y="-258.0936" font-family="Courier,monospace" font-size="11.00" fill="#000000">FileConfigStore</text>
</g>
<!-- \\Firesphere\\SolrSearch\\Stores\\FileConfigStore&#45;&gt;\\Firesphere\\SolrSearch\\Interfaces\\ConfigStore -->
<g id="edge20" class="edge">
<title>\\Firesphere\\SolrSearch\\Stores\\FileConfigStore&#45;&gt;\\Firesphere\\SolrSearch\\Interfaces\\ConfigStore</title>
<path fill="none" stroke="#000000" stroke-dasharray="1,5" d="M613.6637,-260.8936C532.8854,-260.8936 389.0185,-260.8936 309.9722,-260.8936"/>
<polygon fill="none" stroke="#000000" points="309.7288,-257.3937 299.7287,-260.8936 309.7287,-264.3937 309.7288,-257.3937"/>
</g>
<!-- \\Firesphere\\SolrSearch\\Stores\\PostConfigStore -->
<g id="node48" class="node">
<title>\\Firesphere\\SolrSearch\\Stores\\PostConfigStore</title>
<polygon fill="none" stroke="#000000" points="731.7549,-224.8936 613.7549,-224.8936 613.7549,-188.8936 731.7549,-188.8936 731.7549,-224.8936"/>
<text text-anchor="middle" x="672.7549" y="-204.0936" font-family="Courier,monospace" font-size="11.00" fill="#000000">PostConfigStore</text>
</g>
<!-- \\Firesphere\\SolrSearch\\Stores\\PostConfigStore&#45;&gt;\\Firesphere\\SolrSearch\\Interfaces\\ConfigStore -->
<g id="edge21" class="edge">
<title>\\Firesphere\\SolrSearch\\Stores\\PostConfigStore&#45;&gt;\\Firesphere\\SolrSearch\\Interfaces\\ConfigStore</title>
<path fill="none" stroke="#000000" stroke-dasharray="1,5" d="M613.4867,-217.4571C582.2454,-222.8135 543.2453,-229.1671 508.2549,-233.8936 440.1774,-243.0894 361.4881,-251.0383 309.9264,-255.8848"/>
<polygon fill="none" stroke="#000000" points="309.2998,-252.4279 299.6682,-256.8417 309.95,-259.3977 309.2998,-252.4279"/>
</g>
<!-- \\Firesphere\\SolrSearch\\Forms\\SearchForm -->
<g id="node49" class="node">
<title>\\Firesphere\\SolrSearch\\Forms\\SearchForm</title>
<polygon fill="none" stroke="#000000" points="714.7549,-358.8936 630.7549,-358.8936 630.7549,-322.8936 714.7549,-322.8936 714.7549,-358.8936"/>
<text text-anchor="middle" x="672.7549" y="-338.0936" font-family="Courier,monospace" font-size="11.00" fill="#000000">SearchForm</text>
</g>
<!-- \\SilverStripe\\Forms\\Form -->
<g id="node71" class="node">
<title>\\SilverStripe\\Forms\\Form</title>
<ellipse fill="none" stroke="#000000" cx="254.1275" cy="-3424.8936" rx="129.1772" ry="18"/>
<text text-anchor="middle" x="254.1275" y="-3421.1936" font-family="Times,serif" font-size="14.00" fill="#c0c0c0">\SilverStripe\Forms\Form</text>
</g>
<!-- \\Firesphere\\SolrSearch\\Forms\\SearchForm&#45;&gt;\\SilverStripe\\Forms\\Form -->
<g id="edge22" class="edge">
<title>\\Firesphere\\SolrSearch\\Forms\\SearchForm&#45;&gt;\\SilverStripe\\Forms\\Form</title>
<path fill="none" stroke="#000000" d="M630.6303,-351.4132C609.6582,-358.891 585.9239,-371.2027 572.2549,-390.8936 390.5501,-652.6496 269.3387,-3103.4607 255.4608,-3396.3205"/>
<polygon fill="none" stroke="#000000" points="251.954,-3396.3843 254.9788,-3406.5381 258.9462,-3396.7142 251.954,-3396.3843"/>
</g>
<!-- \\Firesphere\\SolrFluent\\Extensions\\FluentIndexExtension -->
<g id="node50" class="node">
<title>\\Firesphere\\SolrFluent\\Extensions\\FluentIndexExtension</title>
<polygon fill="none" stroke="#000000" points="1002.7549,-668.8936 850.7549,-668.8936 850.7549,-632.8936 1002.7549,-632.8936 1002.7549,-668.8936"/>
<text text-anchor="middle" x="926.7549" y="-648.0936" font-family="Courier,monospace" font-size="11.00" fill="#000000">FluentIndexExtension</text>
</g>
<!-- \\Firesphere\\SolrFluent\\Extensions\\FluentIndexExtension&#45;&gt;\\SilverStripe\\Core\\Extension -->
<g id="edge23" class="edge">
<title>\\Firesphere\\SolrFluent\\Extensions\\FluentIndexExtension&#45;&gt;\\SilverStripe\\Core\\Extension</title>
<path fill="none" stroke="#000000" d="M879.2438,-632.8065C857.9161,-622.1664 834.5963,-606.4907 821.2549,-584.8936 771.9816,-505.1297 843.3593,-235.13 781.2549,-164.8936 748.54,-127.8949 709.4057,-173.9977 672.7549,-140.8936"/>
<path fill="none" stroke="#000000" d="M672.7549,-140.8936C657.0915,-126.7459 528.3246,-52.4284 508.2549,-45.8936 475.4252,-35.2039 439.0725,-28.5182 404.3721,-24.39"/>
<polygon fill="none" stroke="#000000" points="404.4777,-20.8799 394.1493,-23.2409 403.6957,-27.8361 404.4777,-20.8799"/>
</g>
<!-- \\Firesphere\\SolrFluent\\Extensions\\FluentDocumentExtension -->
<g id="node51" class="node">
<title>\\Firesphere\\SolrFluent\\Extensions\\FluentDocumentExtension</title>
<polygon fill="none" stroke="#000000" points="1012.7549,-776.8936 840.7549,-776.8936 840.7549,-740.8936 1012.7549,-740.8936 1012.7549,-776.8936"/>
<text text-anchor="middle" x="926.7549" y="-756.0936" font-family="Courier,monospace" font-size="11.00" fill="#000000">FluentDocumentExtension</text>
</g>
<!-- \\Firesphere\\SolrFluent\\Extensions\\FluentDocumentExtension&#45;&gt;\\SilverStripe\\Core\\Extension -->
<g id="edge24" class="edge">
<title>\\Firesphere\\SolrFluent\\Extensions\\FluentDocumentExtension&#45;&gt;\\SilverStripe\\Core\\Extension</title>
<path fill="none" stroke="#000000" d="M840.747,-747.2855C833.3488,-743.3836 826.6449,-738.3536 821.2549,-731.8936 740.3328,-634.9058 863.7592,-260.539 781.2549,-164.8936 748.9961,-127.4966 709.4057,-173.9977 672.7549,-140.8936"/>
</g>
<!-- \\Firesphere\\SolrFluent\\Extensions\\FluentSchemaExtension -->
<g id="node52" class="node">
<title>\\Firesphere\\SolrFluent\\Extensions\\FluentSchemaExtension</title>
<polygon fill="none" stroke="#000000" points="1005.7549,-722.8936 847.7549,-722.8936 847.7549,-686.8936 1005.7549,-686.8936 1005.7549,-722.8936"/>
<text text-anchor="middle" x="926.7549" y="-702.0936" font-family="Courier,monospace" font-size="11.00" fill="#000000">FluentSchemaExtension</text>
</g>
<!-- \\Firesphere\\SolrFluent\\Extensions\\FluentSchemaExtension&#45;&gt;\\SilverStripe\\Core\\Extension -->
<g id="edge25" class="edge">
<title>\\Firesphere\\SolrFluent\\Extensions\\FluentSchemaExtension&#45;&gt;\\SilverStripe\\Core\\Extension</title>
<path fill="none" stroke="#000000" d="M847.7103,-696.487C837.5852,-692.2637 828.311,-686.2874 821.2549,-677.8936 747.6758,-590.3657 856.2618,-251.201 781.2549,-164.8936 748.8582,-127.616 709.4057,-173.9977 672.7549,-140.8936"/>
</g>
<!-- \\Firesphere\\SolrFluent\\States\\FluentSiteState -->
<g id="node53" class="node">
<title>\\Firesphere\\SolrFluent\\States\\FluentSiteState</title>
<polygon fill="none" stroke="#000000" points="985.7549,-856.8936 867.7549,-856.8936 867.7549,-820.8936 985.7549,-820.8936 985.7549,-856.8936"/>
<text text-anchor="middle" x="926.7549" y="-836.0936" font-family="Courier,monospace" font-size="11.00" fill="#000000">FluentSiteState</text>
</g>
<!-- \\Firesphere\\SolrFluent\\States\\FluentSiteState&#45;&gt;\\Firesphere\\SolrSearch\\Interfaces\\SiteStateInterface -->
<g id="edge27" class="edge">
<title>\\Firesphere\\SolrFluent\\States\\FluentSiteState&#45;&gt;\\Firesphere\\SolrSearch\\Interfaces\\SiteStateInterface</title>
<path fill="none" stroke="#000000" stroke-dasharray="1,5" d="M867.5291,-834.9324C850.0639,-830.7394 832.6083,-822.9771 821.2549,-808.8936 732.9344,-699.3347 880.7021,-276.4622 781.2549,-176.8936 764.1808,-159.7986 692.946,-183.1633 672.7549,-169.8936"/>
<path fill="none" stroke="#000000" stroke-dasharray="1,5" d="M672.7549,-169.8936C645.1222,-151.7332 446.7099,-177.8454 333.2389,-194.6357"/>
<polygon fill="none" stroke="#000000" points="332.5799,-191.1952 323.204,-196.129 333.6103,-198.1189 332.5799,-191.1952"/>
</g>
<!-- \\Firesphere\\SolrFluent\\States\\FluentSiteState&#45;&gt;\\Firesphere\\SolrSearch\\States\\SiteState -->
<g id="edge26" class="edge">
<title>\\Firesphere\\SolrFluent\\States\\FluentSiteState&#45;&gt;\\Firesphere\\SolrSearch\\States\\SiteState</title>
<path fill="none" stroke="#000000" d="M895.6341,-856.9666C871.9777,-872.227 840.3481,-896.1581 821.2549,-924.8936 786.3869,-977.3703 826.1673,-1016.707 781.2549,-1060.8936 766.2978,-1075.6089 744.8032,-1083.258 724.8851,-1087.1796"/>
<polygon fill="none" stroke="#000000" points="724.2368,-1083.7395 714.9638,-1088.8641 725.4086,-1090.6407 724.2368,-1083.7395"/>
</g>
<!-- \\Firesphere\\SolrSubsites\\Extensions\\SubsitesExtension -->
<g id="node54" class="node">
<title>\\Firesphere\\SolrSubsites\\Extensions\\SubsitesExtension</title>
<polygon fill="none" stroke="#000000" points="992.2549,-972.8936 861.2549,-972.8936 861.2549,-936.8936 992.2549,-936.8936 992.2549,-972.8936"/>
<text text-anchor="middle" x="926.7549" y="-952.0936" font-family="Courier,monospace" font-size="11.00" fill="#000000">SubsitesExtension</text>
</g>
<!-- \\Firesphere\\SolrSubsites\\Extensions\\SubsitesExtension&#45;&gt;\\SilverStripe\\Core\\Extension -->
<g id="edge28" class="edge">
<title>\\Firesphere\\SolrSubsites\\Extensions\\SubsitesExtension&#45;&gt;\\SilverStripe\\Core\\Extension</title>
<path fill="none" stroke="#000000" d="M878.3173,-936.7642C857.0531,-926.1811 834.0545,-910.5656 821.2549,-888.8936 739.3126,-750.1502 885.5707,-287.7042 781.2549,-164.8936 749.282,-127.2519 709.4057,-173.9977 672.7549,-140.8936"/>
</g>
<!-- \\Firesphere\\SolrSubsites\\States\\SubsiteState -->
<g id="node55" class="node">
<title>\\Firesphere\\SolrSubsites\\States\\SubsiteState</title>
<polygon fill="none" stroke="#000000" points="975.7549,-1052.8936 877.7549,-1052.8936 877.7549,-1016.8936 975.7549,-1016.8936 975.7549,-1052.8936"/>
<text text-anchor="middle" x="926.7549" y="-1032.0936" font-family="Courier,monospace" font-size="11.00" fill="#000000">SubsiteState</text>
</g>
<!-- \\Firesphere\\SolrSubsites\\States\\SubsiteState&#45;&gt;\\Firesphere\\SolrSearch\\Interfaces\\SiteStateInterface -->
<g id="edge30" class="edge">
<title>\\Firesphere\\SolrSubsites\\States\\SubsiteState&#45;&gt;\\Firesphere\\SolrSearch\\Interfaces\\SiteStateInterface</title>
<path fill="none" stroke="#000000" stroke-dasharray="1,5" d="M877.5714,-1033.0901C856.9534,-1029.6351 834.6932,-1021.8206 821.2549,-1004.8936 763.9847,-932.7557 845.8564,-242.5472 781.2549,-176.8936 764.3089,-159.6715 692.946,-183.1633 672.7549,-169.8936"/>
</g>
<!-- \\Firesphere\\SolrSubsites\\States\\SubsiteState&#45;&gt;\\Firesphere\\SolrSearch\\States\\SiteState -->
<g id="edge29" class="edge">
<title>\\Firesphere\\SolrSubsites\\States\\SubsiteState&#45;&gt;\\Firesphere\\SolrSearch\\States\\SiteState</title>
<path fill="none" stroke="#000000" d="M877.48,-1045.7573C833.6217,-1055.4269 769.6692,-1069.5266 724.9475,-1079.3865"/>
<polygon fill="none" stroke="#000000" points="724.1595,-1075.9761 715.1476,-1081.5471 725.6666,-1082.812 724.1595,-1075.9761"/>
</g>
<!-- \\Firesphere\\SolrPermissions\\Extensions\\DataObjectExtension -->
<g id="node56" class="node">
<title>\\Firesphere\\SolrPermissions\\Extensions\\DataObjectExtension</title>
<polygon fill="none" stroke="#000000" points="999.2549,-552.8936 854.2549,-552.8936 854.2549,-516.8936 999.2549,-516.8936 999.2549,-552.8936"/>
<text text-anchor="middle" x="926.7549" y="-532.0936" font-family="Courier,monospace" font-size="11.00" fill="#000000">DataObjectExtension</text>
</g>
<!-- \\Firesphere\\SolrPermissions\\Extensions\\DataObjectExtension&#45;&gt;\\SilverStripe\\ORM\\DataExtension -->
<g id="edge31" class="edge">
<title>\\Firesphere\\SolrPermissions\\Extensions\\DataObjectExtension&#45;&gt;\\SilverStripe\\ORM\\DataExtension</title>
<path fill="none" stroke="#000000" d="M854.1266,-528.537C841.6284,-524.3001 829.9011,-517.788 821.2549,-507.8936 720.2653,-392.3234 883.2119,-279.6111 781.2549,-164.8936 734.3687,-112.1393 557.436,-89.5979 421.3514,-79.989"/>
<polygon fill="none" stroke="#000000" points="421.4309,-76.4863 411.2143,-79.2917 420.9505,-83.4698 421.4309,-76.4863"/>
</g>
<!-- \\Firesphere\\SolrPermissions\\Extensions\\DocumentFactoryExtension -->
<g id="node57" class="node">
<title>\\Firesphere\\SolrPermissions\\Extensions\\DocumentFactoryExtension</title>
<polygon fill="none" stroke="#000000" points="1016.2549,-390.8936 837.2549,-390.8936 837.2549,-354.8936 1016.2549,-354.8936 1016.2549,-390.8936"/>
<text text-anchor="middle" x="926.7549" y="-370.0936" font-family="Courier,monospace" font-size="11.00" fill="#000000">DocumentFactoryExtension</text>
</g>
<!-- \\Firesphere\\SolrPermissions\\Extensions\\DocumentFactoryExtension&#45;&gt;\\SilverStripe\\Core\\Extension -->
<g id="edge32" class="edge">
<title>\\Firesphere\\SolrPermissions\\Extensions\\DocumentFactoryExtension&#45;&gt;\\SilverStripe\\Core\\Extension</title>
<path fill="none" stroke="#000000" d="M881.1304,-354.8274C859.7122,-344.0507 835.7606,-328.251 821.2549,-306.8936 765.9092,-225.4052 849.6364,-159.7982 781.2549,-88.8936 746.9706,-53.3443 716.6848,-87.4617 672.7549,-64.8936"/>
</g>
<!-- \\Firesphere\\SolrPermissions\\Extensions\\SchemaServiceExtension -->
<g id="node58" class="node">
<title>\\Firesphere\\SolrPermissions\\Extensions\\SchemaServiceExtension</title>
<polygon fill="none" stroke="#000000" points="1009.2549,-498.8936 844.2549,-498.8936 844.2549,-462.8936 1009.2549,-462.8936 1009.2549,-498.8936"/>
<text text-anchor="middle" x="926.7549" y="-478.0936" font-family="Courier,monospace" font-size="11.00" fill="#000000">SchemaServiceExtension</text>
</g>
<!-- \\Firesphere\\SolrPermissions\\Extensions\\SchemaServiceExtension&#45;&gt;\\SilverStripe\\Core\\Extension -->
<g id="edge33" class="edge">
<title>\\Firesphere\\SolrPermissions\\Extensions\\SchemaServiceExtension&#45;&gt;\\SilverStripe\\Core\\Extension</title>
<path fill="none" stroke="#000000" d="M844.0564,-470.5642C835.4134,-466.5156 827.5167,-461.1011 821.2549,-453.8936 715.3842,-332.0335 887.0032,-214.8598 781.2549,-92.8936 748.6302,-55.2654 717.0533,-87.651 672.7549,-64.8936"/>
</g>
<!-- \\Firesphere\\SolrPermissions\\Extensions\\BaseIndexExtension -->
<g id="node59" class="node">
<title>\\Firesphere\\SolrPermissions\\Extensions\\BaseIndexExtension</title>
<polygon fill="none" stroke="#000000" points="995.7549,-444.8936 857.7549,-444.8936 857.7549,-408.8936 995.7549,-408.8936 995.7549,-444.8936"/>
<text text-anchor="middle" x="926.7549" y="-424.0936" font-family="Courier,monospace" font-size="11.00" fill="#000000">BaseIndexExtension</text>
</g>
<!-- \\Firesphere\\SolrPermissions\\Extensions\\BaseIndexExtension&#45;&gt;\\SilverStripe\\Core\\Extension -->
<g id="edge34" class="edge">
<title>\\Firesphere\\SolrPermissions\\Extensions\\BaseIndexExtension&#45;&gt;\\SilverStripe\\Core\\Extension</title>
<path fill="none" stroke="#000000" d="M857.7462,-421.5839C843.9386,-417.4097 830.7735,-410.6573 821.2549,-399.8936 728.9356,-295.4973 875.2766,-191.7593 781.2549,-88.8936 747.9347,-52.4391 716.6848,-87.4617 672.7549,-64.8936"/>
</g>
<!-- \\SilverStripe\\FullTextSearch\\Solr\\Solr -->
<g id="node60" class="node">
<title>\\SilverStripe\\FullTextSearch\\Solr\\Solr</title>
<polygon fill="none" stroke="#000000" points="953.7549,-3286.8936 899.7549,-3286.8936 899.7549,-3250.8936 953.7549,-3250.8936 953.7549,-3286.8936"/>
<text text-anchor="middle" x="926.7549" y="-3266.0936" font-family="Courier,monospace" font-size="11.00" fill="#000000">Solr</text>
</g>
<!-- \\SilverStripe\\FullTextSearch\\Solr\\SolrIndex -->
<g id="node61" class="node">
<title>\\SilverStripe\\FullTextSearch\\Solr\\SolrIndex</title>
<polygon fill="none" stroke="#000000" points="968.7549,-3232.8936 884.7549,-3232.8936 884.7549,-3196.8936 968.7549,-3196.8936 968.7549,-3232.8936"/>
<text text-anchor="start" x="892.7549" y="-3218.0936" font-family="Courier,monospace" font-size="11.00" fill="#000000">abstract</text>
<text text-anchor="start" x="896.2549" y="-3206.0936" font-family="Courier,monospace" font-size="11.00" fill="#000000">SolrIndex</text>
</g>
<!-- \\SilverStripe\\FullTextSearch\\Solr\\SolrIndex&#45;&gt;\\Firesphere\\SolrSearch\\Indexes\\BaseIndex -->
<g id="edge3" class="edge">
<title>\\SilverStripe\\FullTextSearch\\Solr\\SolrIndex&#45;&gt;\\Firesphere\\SolrSearch\\Indexes\\BaseIndex</title>
<path fill="none" stroke="#000000" d="M884.6314,-3203.1812C861.6469,-3194.4202 835.1196,-3179.8966 821.2549,-3156.8936 752.6458,-3043.0639 853.8519,-876.2222 781.2549,-764.8936 768.4341,-745.2326 745.7455,-733.1834 724.4189,-725.8584"/>
<polygon fill="none" stroke="#000000" points="725.3459,-722.4809 714.7564,-722.8149 723.2429,-729.1576 725.3459,-722.4809"/>
</g>
<!-- \\SilverStripe\\FullTextSearch\\Search\\Queries\\SearchQuery -->
<g id="node62" class="node">
<title>\\SilverStripe\\FullTextSearch\\Search\\Queries\\SearchQuery</title>
<polygon fill="none" stroke="#000000" points="972.2549,-3124.8936 881.2549,-3124.8936 881.2549,-3088.8936 972.2549,-3088.8936 972.2549,-3124.8936"/>
<text text-anchor="middle" x="926.7549" y="-3104.0936" font-family="Courier,monospace" font-size="11.00" fill="#000000">SearchQuery</text>
</g>
<!-- \\SilverStripe\\FullTextSearch\\Search\\Queries\\SearchQuery&#45;&gt;\\Firesphere\\SolrSearch\\Queries\\BaseQuery -->
<g id="edge4" class="edge">
<title>\\SilverStripe\\FullTextSearch\\Search\\Queries\\SearchQuery&#45;&gt;\\Firesphere\\SolrSearch\\Queries\\BaseQuery</title>
<path fill="none" stroke="#000000" d="M925.8182,-3088.7563C913.8502,-2857.1647 791.0589,-485.3149 781.2549,-470.8936 767.4407,-450.5733 743.1762,-438.3524 721.092,-431.0864"/>
<polygon fill="none" stroke="#000000" points="722.0571,-427.7217 711.472,-428.176 720.03,-434.4218 722.0571,-427.7217"/>
</g>
</g>
</svg>
