<?xml version="1.0" encoding="UTF-8" standalone="no"?>
<!DOCTYPE svg PUBLIC "-//W3C//DTD SVG 1.1//EN"
 "http://www.w3.org/Graphics/SVG/1.1/DTD/svg11.dtd">
<!-- Generated by graphviz version 2.40.1 (20161225.0304)
 -->
<!-- Title: G Pages: 1 -->
<svg width="984pt" height="3599pt"
 viewBox="0.00 0.00 984.25 3598.63" xmlns="http://www.w3.org/2000/svg" xmlns:xlink="http://www.w3.org/1999/xlink">
<g id="graph0" class="graph" transform="scale(1 1) rotate(0) translate(4 3594.6265)">
<title>G</title>
<polygon fill="#ffffff" stroke="transparent" points="-4,4 -4,-3594.6265 980.2549,-3594.6265 980.2549,4 -4,4"/>
<g id="clust1" class="cluster">
<title>cluster_Global</title>
<path fill="none" stroke="#c0c0c0" d="M165.1275,-476.6265C165.1275,-476.6265 956.2549,-476.6265 956.2549,-476.6265 962.2549,-476.6265 968.2549,-482.6265 968.2549,-488.6265 968.2549,-488.6265 968.2549,-3570.6265 968.2549,-3570.6265 968.2549,-3576.6265 962.2549,-3582.6265 956.2549,-3582.6265 956.2549,-3582.6265 165.1275,-3582.6265 165.1275,-3582.6265 159.1275,-3582.6265 153.1275,-3576.6265 153.1275,-3570.6265 153.1275,-3570.6265 153.1275,-488.6265 153.1275,-488.6265 153.1275,-482.6265 159.1275,-476.6265 165.1275,-476.6265"/>
<text text-anchor="middle" x="560.6912" y="-3569.8265" font-family="Times,serif" font-size="11.00" fill="#c0c0c0">Global</text>
</g>
<g id="clust2" class="cluster">
<title>cluster_\SilverStripe</title>
<path fill="none" stroke="#c0c0c0" d="M817.2549,-1351.6265C817.2549,-1351.6265 948.2549,-1351.6265 948.2549,-1351.6265 954.2549,-1351.6265 960.2549,-1357.6265 960.2549,-1363.6265 960.2549,-1363.6265 960.2549,-1653.6265 960.2549,-1653.6265 960.2549,-1659.6265 954.2549,-1665.6265 948.2549,-1665.6265 948.2549,-1665.6265 817.2549,-1665.6265 817.2549,-1665.6265 811.2549,-1665.6265 805.2549,-1659.6265 805.2549,-1653.6265 805.2549,-1653.6265 805.2549,-1363.6265 805.2549,-1363.6265 805.2549,-1357.6265 811.2549,-1351.6265 817.2549,-1351.6265"/>
<text text-anchor="middle" x="882.7549" y="-1652.8265" font-family="Times,serif" font-size="11.00" fill="#c0c0c0">SilverStripe</text>
</g>
<g id="clust3" class="cluster">
<title>cluster_\SilverStripe\FullTextSearch</title>
<path fill="none" stroke="#c0c0c0" d="M825.2549,-1359.6265C825.2549,-1359.6265 940.2549,-1359.6265 940.2549,-1359.6265 946.2549,-1359.6265 952.2549,-1365.6265 952.2549,-1371.6265 952.2549,-1371.6265 952.2549,-1625.6265 952.2549,-1625.6265 952.2549,-1631.6265 946.2549,-1637.6265 940.2549,-1637.6265 940.2549,-1637.6265 825.2549,-1637.6265 825.2549,-1637.6265 819.2549,-1637.6265 813.2549,-1631.6265 813.2549,-1625.6265 813.2549,-1625.6265 813.2549,-1371.6265 813.2549,-1371.6265 813.2549,-1365.6265 819.2549,-1359.6265 825.2549,-1359.6265"/>
<text text-anchor="middle" x="882.7549" y="-1624.8265" font-family="Times,serif" font-size="11.00" fill="#c0c0c0">FullTextSearch</text>
</g>
<g id="clust4" class="cluster">
<title>cluster_\SilverStripe\FullTextSearch\Search</title>
<path fill="none" stroke="#c0c0c0" d="M833.2549,-1501.6265C833.2549,-1501.6265 932.2549,-1501.6265 932.2549,-1501.6265 938.2549,-1501.6265 944.2549,-1507.6265 944.2549,-1513.6265 944.2549,-1513.6265 944.2549,-1597.6265 944.2549,-1597.6265 944.2549,-1603.6265 938.2549,-1609.6265 932.2549,-1609.6265 932.2549,-1609.6265 833.2549,-1609.6265 833.2549,-1609.6265 827.2549,-1609.6265 821.2549,-1603.6265 821.2549,-1597.6265 821.2549,-1597.6265 821.2549,-1513.6265 821.2549,-1513.6265 821.2549,-1507.6265 827.2549,-1501.6265 833.2549,-1501.6265"/>
<text text-anchor="middle" x="882.7549" y="-1596.8265" font-family="Times,serif" font-size="11.00" fill="#c0c0c0">Search</text>
</g>
<g id="clust5" class="cluster">
<title>cluster_\SilverStripe\FullTextSearch\Search\Queries</title>
<path fill="none" stroke="#c0c0c0" d="M841.2549,-1509.6265C841.2549,-1509.6265 924.2549,-1509.6265 924.2549,-1509.6265 930.2549,-1509.6265 936.2549,-1515.6265 936.2549,-1521.6265 936.2549,-1521.6265 936.2549,-1569.6265 936.2549,-1569.6265 936.2549,-1575.6265 930.2549,-1581.6265 924.2549,-1581.6265 924.2549,-1581.6265 841.2549,-1581.6265 841.2549,-1581.6265 835.2549,-1581.6265 829.2549,-1575.6265 829.2549,-1569.6265 829.2549,-1569.6265 829.2549,-1521.6265 829.2549,-1521.6265 829.2549,-1515.6265 835.2549,-1509.6265 841.2549,-1509.6265"/>
<text text-anchor="middle" x="882.7549" y="-1568.8265" font-family="Times,serif" font-size="11.00" fill="#c0c0c0">Queries</text>
</g>
<g id="clust6" class="cluster">
<title>cluster_\SilverStripe\FullTextSearch\Solr</title>
<path fill="none" stroke="#c0c0c0" d="M844.7549,-1367.6265C844.7549,-1367.6265 920.7549,-1367.6265 920.7549,-1367.6265 926.7549,-1367.6265 932.7549,-1373.6265 932.7549,-1379.6265 932.7549,-1379.6265 932.7549,-1481.6265 932.7549,-1481.6265 932.7549,-1487.6265 926.7549,-1493.6265 920.7549,-1493.6265 920.7549,-1493.6265 844.7549,-1493.6265 844.7549,-1493.6265 838.7549,-1493.6265 832.7549,-1487.6265 832.7549,-1481.6265 832.7549,-1481.6265 832.7549,-1379.6265 832.7549,-1379.6265 832.7549,-1373.6265 838.7549,-1367.6265 844.7549,-1367.6265"/>
<text text-anchor="middle" x="882.7549" y="-1480.8265" font-family="Times,serif" font-size="11.00" fill="#c0c0c0">Solr</text>
</g>
<g id="clust7" class="cluster">
<title>cluster_\Firesphere</title>
<path fill="none" stroke="#c0c0c0" d="M173.1275,-484.6265C173.1275,-484.6265 777.2549,-484.6265 777.2549,-484.6265 783.2549,-484.6265 789.2549,-490.6265 789.2549,-496.6265 789.2549,-496.6265 789.2549,-3542.6265 789.2549,-3542.6265 789.2549,-3548.6265 783.2549,-3554.6265 777.2549,-3554.6265 777.2549,-3554.6265 173.1275,-3554.6265 173.1275,-3554.6265 167.1275,-3554.6265 161.1275,-3548.6265 161.1275,-3542.6265 161.1275,-3542.6265 161.1275,-496.6265 161.1275,-496.6265 161.1275,-490.6265 167.1275,-484.6265 173.1275,-484.6265"/>
<text text-anchor="middle" x="475.1912" y="-3541.8265" font-family="Times,serif" font-size="11.00" fill="#c0c0c0">Firesphere</text>
</g>
<g id="clust8" class="cluster">
<title>cluster_\Firesphere\SolrSearch</title>
<path fill="none" stroke="#c0c0c0" d="M181.1275,-492.6265C181.1275,-492.6265 769.2549,-492.6265 769.2549,-492.6265 775.2549,-492.6265 781.2549,-498.6265 781.2549,-504.6265 781.2549,-504.6265 781.2549,-3514.6265 781.2549,-3514.6265 781.2549,-3520.6265 775.2549,-3526.6265 769.2549,-3526.6265 769.2549,-3526.6265 181.1275,-3526.6265 181.1275,-3526.6265 175.1275,-3526.6265 169.1275,-3520.6265 169.1275,-3514.6265 169.1275,-3514.6265 169.1275,-504.6265 169.1275,-504.6265 169.1275,-498.6265 175.1275,-492.6265 181.1275,-492.6265"/>
<text text-anchor="middle" x="475.1912" y="-3513.8265" font-family="Times,serif" font-size="11.00" fill="#c0c0c0">SolrSearch</text>
</g>
<g id="clust9" class="cluster">
<title>cluster_\Firesphere\SolrSearch\Compat</title>
<path fill="none" stroke="#c0c0c0" d="M590.7549,-3426.6265C590.7549,-3426.6265 754.7549,-3426.6265 754.7549,-3426.6265 760.7549,-3426.6265 766.7549,-3432.6265 766.7549,-3438.6265 766.7549,-3438.6265 766.7549,-3486.6265 766.7549,-3486.6265 766.7549,-3492.6265 760.7549,-3498.6265 754.7549,-3498.6265 754.7549,-3498.6265 590.7549,-3498.6265 590.7549,-3498.6265 584.7549,-3498.6265 578.7549,-3492.6265 578.7549,-3486.6265 578.7549,-3486.6265 578.7549,-3438.6265 578.7549,-3438.6265 578.7549,-3432.6265 584.7549,-3426.6265 590.7549,-3426.6265"/>
<text text-anchor="middle" x="672.7549" y="-3485.8265" font-family="Times,serif" font-size="11.00" fill="#c0c0c0">Compat</text>
</g>
<g id="clust10" class="cluster">
<title>cluster_\Firesphere\SolrSearch\Forms</title>
<path fill="none" stroke="#c0c0c0" d="M634.7549,-3346.6265C634.7549,-3346.6265 710.7549,-3346.6265 710.7549,-3346.6265 716.7549,-3346.6265 722.7549,-3352.6265 722.7549,-3358.6265 722.7549,-3358.6265 722.7549,-3406.6265 722.7549,-3406.6265 722.7549,-3412.6265 716.7549,-3418.6265 710.7549,-3418.6265 710.7549,-3418.6265 634.7549,-3418.6265 634.7549,-3418.6265 628.7549,-3418.6265 622.7549,-3412.6265 622.7549,-3406.6265 622.7549,-3406.6265 622.7549,-3358.6265 622.7549,-3358.6265 622.7549,-3352.6265 628.7549,-3346.6265 634.7549,-3346.6265"/>
<text text-anchor="middle" x="672.7549" y="-3405.8265" font-family="Times,serif" font-size="11.00" fill="#c0c0c0">Forms</text>
</g>
<g id="clust11" class="cluster">
<title>cluster_\Firesphere\SolrSearch\Factories</title>
<path fill="none" stroke="#c0c0c0" d="M597.7549,-3212.6265C597.7549,-3212.6265 747.7549,-3212.6265 747.7549,-3212.6265 753.7549,-3212.6265 759.7549,-3218.6265 759.7549,-3224.6265 759.7549,-3224.6265 759.7549,-3326.6265 759.7549,-3326.6265 759.7549,-3332.6265 753.7549,-3338.6265 747.7549,-3338.6265 747.7549,-3338.6265 597.7549,-3338.6265 597.7549,-3338.6265 591.7549,-3338.6265 585.7549,-3332.6265 585.7549,-3326.6265 585.7549,-3326.6265 585.7549,-3224.6265 585.7549,-3224.6265 585.7549,-3218.6265 591.7549,-3212.6265 597.7549,-3212.6265"/>
<text text-anchor="middle" x="672.7549" y="-3325.8265" font-family="Times,serif" font-size="11.00" fill="#c0c0c0">Factories</text>
</g>
<g id="clust12" class="cluster">
<title>cluster_\Firesphere\SolrSearch\Services</title>
<path fill="none" stroke="#c0c0c0" d="M617.7549,-3078.6265C617.7549,-3078.6265 727.7549,-3078.6265 727.7549,-3078.6265 733.7549,-3078.6265 739.7549,-3084.6265 739.7549,-3090.6265 739.7549,-3090.6265 739.7549,-3192.6265 739.7549,-3192.6265 739.7549,-3198.6265 733.7549,-3204.6265 727.7549,-3204.6265 727.7549,-3204.6265 617.7549,-3204.6265 617.7549,-3204.6265 611.7549,-3204.6265 605.7549,-3198.6265 605.7549,-3192.6265 605.7549,-3192.6265 605.7549,-3090.6265 605.7549,-3090.6265 605.7549,-3084.6265 611.7549,-3078.6265 617.7549,-3078.6265"/>
<text text-anchor="middle" x="672.7549" y="-3191.8265" font-family="Times,serif" font-size="11.00" fill="#c0c0c0">Services</text>
</g>
<g id="clust13" class="cluster">
<title>cluster_\Firesphere\SolrSearch\Tasks</title>
<path fill="none" stroke="#c0c0c0" d="M597.7549,-2836.6265C597.7549,-2836.6265 747.7549,-2836.6265 747.7549,-2836.6265 753.7549,-2836.6265 759.7549,-2842.6265 759.7549,-2848.6265 759.7549,-2848.6265 759.7549,-3058.6265 759.7549,-3058.6265 759.7549,-3064.6265 753.7549,-3070.6265 747.7549,-3070.6265 747.7549,-3070.6265 597.7549,-3070.6265 597.7549,-3070.6265 591.7549,-3070.6265 585.7549,-3064.6265 585.7549,-3058.6265 585.7549,-3058.6265 585.7549,-2848.6265 585.7549,-2848.6265 585.7549,-2842.6265 591.7549,-2836.6265 597.7549,-2836.6265"/>
<text text-anchor="middle" x="672.7549" y="-3057.8265" font-family="Times,serif" font-size="11.00" fill="#c0c0c0">Tasks</text>
</g>
<g id="clust14" class="cluster">
<title>cluster_\Firesphere\SolrSearch\Admins</title>
<path fill="none" stroke="#c0c0c0" d="M631.2549,-2756.6265C631.2549,-2756.6265 714.2549,-2756.6265 714.2549,-2756.6265 720.2549,-2756.6265 726.2549,-2762.6265 726.2549,-2768.6265 726.2549,-2768.6265 726.2549,-2816.6265 726.2549,-2816.6265 726.2549,-2822.6265 720.2549,-2828.6265 714.2549,-2828.6265 714.2549,-2828.6265 631.2549,-2828.6265 631.2549,-2828.6265 625.2549,-2828.6265 619.2549,-2822.6265 619.2549,-2816.6265 619.2549,-2816.6265 619.2549,-2768.6265 619.2549,-2768.6265 619.2549,-2762.6265 625.2549,-2756.6265 631.2549,-2756.6265"/>
<text text-anchor="middle" x="672.7549" y="-2815.8265" font-family="Times,serif" font-size="11.00" fill="#c0c0c0">Admins</text>
</g>
<g id="clust15" class="cluster">
<title>cluster_\Firesphere\SolrSearch\Interfaces</title>
<path fill="none" stroke="#c0c0c0" d="M189.1275,-1733.6265C189.1275,-1733.6265 319.1275,-1733.6265 319.1275,-1733.6265 325.1275,-1733.6265 331.1275,-1739.6265 331.1275,-1745.6265 331.1275,-1745.6265 331.1275,-1847.6265 331.1275,-1847.6265 331.1275,-1853.6265 325.1275,-1859.6265 319.1275,-1859.6265 319.1275,-1859.6265 189.1275,-1859.6265 189.1275,-1859.6265 183.1275,-1859.6265 177.1275,-1853.6265 177.1275,-1847.6265 177.1275,-1847.6265 177.1275,-1745.6265 177.1275,-1745.6265 177.1275,-1739.6265 183.1275,-1733.6265 189.1275,-1733.6265"/>
<text text-anchor="middle" x="254.1275" y="-1846.8265" font-family="Times,serif" font-size="11.00" fill="#c0c0c0">Interfaces</text>
</g>
<g id="clust16" class="cluster">
<title>cluster_\Firesphere\SolrSearch\Traits</title>
<path fill="none" stroke="#c0c0c0" d="M584.2549,-1920.6265C584.2549,-1920.6265 761.2549,-1920.6265 761.2549,-1920.6265 767.2549,-1920.6265 773.2549,-1926.6265 773.2549,-1932.6265 773.2549,-1932.6265 773.2549,-2736.6265 773.2549,-2736.6265 773.2549,-2742.6265 767.2549,-2748.6265 761.2549,-2748.6265 761.2549,-2748.6265 584.2549,-2748.6265 584.2549,-2748.6265 578.2549,-2748.6265 572.2549,-2742.6265 572.2549,-2736.6265 572.2549,-2736.6265 572.2549,-1932.6265 572.2549,-1932.6265 572.2549,-1926.6265 578.2549,-1920.6265 584.2549,-1920.6265"/>
<text text-anchor="middle" x="672.7549" y="-2735.8265" font-family="Times,serif" font-size="11.00" fill="#c0c0c0">Traits</text>
</g>
<g id="clust17" class="cluster">
<title>cluster_\Firesphere\SolrSearch\Queries</title>
<path fill="none" stroke="#c0c0c0" d="M638.2549,-1840.6265C638.2549,-1840.6265 707.2549,-1840.6265 707.2549,-1840.6265 713.2549,-1840.6265 719.2549,-1846.6265 719.2549,-1852.6265 719.2549,-1852.6265 719.2549,-1900.6265 719.2549,-1900.6265 719.2549,-1906.6265 713.2549,-1912.6265 707.2549,-1912.6265 707.2549,-1912.6265 638.2549,-1912.6265 638.2549,-1912.6265 632.2549,-1912.6265 626.2549,-1906.6265 626.2549,-1900.6265 626.2549,-1900.6265 626.2549,-1852.6265 626.2549,-1852.6265 626.2549,-1846.6265 632.2549,-1840.6265 638.2549,-1840.6265"/>
<text text-anchor="middle" x="672.7549" y="-1899.8265" font-family="Times,serif" font-size="11.00" fill="#c0c0c0">Queries</text>
</g>
<g id="clust18" class="cluster">
<title>cluster_\Firesphere\SolrSearch\Jobs</title>
<path fill="none" stroke="#c0c0c0" d="M600.7549,-1518.6265C600.7549,-1518.6265 744.7549,-1518.6265 744.7549,-1518.6265 750.7549,-1518.6265 756.7549,-1524.6265 756.7549,-1530.6265 756.7549,-1530.6265 756.7549,-1686.6265 756.7549,-1686.6265 756.7549,-1692.6265 750.7549,-1698.6265 744.7549,-1698.6265 744.7549,-1698.6265 600.7549,-1698.6265 600.7549,-1698.6265 594.7549,-1698.6265 588.7549,-1692.6265 588.7549,-1686.6265 588.7549,-1686.6265 588.7549,-1530.6265 588.7549,-1530.6265 588.7549,-1524.6265 594.7549,-1518.6265 600.7549,-1518.6265"/>
<text text-anchor="middle" x="672.7549" y="-1685.8265" font-family="Times,serif" font-size="11.00" fill="#c0c0c0">Jobs</text>
</g>
<g id="clust19" class="cluster">
<title>cluster_\Firesphere\SolrSearch\Stores</title>
<path fill="none" stroke="#c0c0c0" d="M617.7549,-1706.6265C617.7549,-1706.6265 727.7549,-1706.6265 727.7549,-1706.6265 733.7549,-1706.6265 739.7549,-1712.6265 739.7549,-1718.6265 739.7549,-1718.6265 739.7549,-1820.6265 739.7549,-1820.6265 739.7549,-1826.6265 733.7549,-1832.6265 727.7549,-1832.6265 727.7549,-1832.6265 617.7549,-1832.6265 617.7549,-1832.6265 611.7549,-1832.6265 605.7549,-1826.6265 605.7549,-1820.6265 605.7549,-1820.6265 605.7549,-1718.6265 605.7549,-1718.6265 605.7549,-1712.6265 611.7549,-1706.6265 617.7549,-1706.6265"/>
<text text-anchor="middle" x="672.7549" y="-1819.8265" font-family="Times,serif" font-size="11.00" fill="#c0c0c0">Stores</text>
</g>
<g id="clust20" class="cluster">
<title>cluster_\Firesphere\SolrSearch\Extensions</title>
<path fill="none" stroke="#c0c0c0" d="M604.2549,-1384.6265C604.2549,-1384.6265 741.2549,-1384.6265 741.2549,-1384.6265 747.2549,-1384.6265 753.2549,-1390.6265 753.2549,-1396.6265 753.2549,-1396.6265 753.2549,-1498.6265 753.2549,-1498.6265 753.2549,-1504.6265 747.2549,-1510.6265 741.2549,-1510.6265 741.2549,-1510.6265 604.2549,-1510.6265 604.2549,-1510.6265 598.2549,-1510.6265 592.2549,-1504.6265 592.2549,-1498.6265 592.2549,-1498.6265 592.2549,-1396.6265 592.2549,-1396.6265 592.2549,-1390.6265 598.2549,-1384.6265 604.2549,-1384.6265"/>
<text text-anchor="middle" x="672.7549" y="-1497.8265" font-family="Times,serif" font-size="11.00" fill="#c0c0c0">Extensions</text>
</g>
<g id="clust21" class="cluster">
<title>cluster_\Firesphere\SolrSearch\Results</title>
<path fill="none" stroke="#c0c0c0" d="M627.7549,-1304.6265C627.7549,-1304.6265 717.7549,-1304.6265 717.7549,-1304.6265 723.7549,-1304.6265 729.7549,-1310.6265 729.7549,-1316.6265 729.7549,-1316.6265 729.7549,-1364.6265 729.7549,-1364.6265 729.7549,-1370.6265 723.7549,-1376.6265 717.7549,-1376.6265 717.7549,-1376.6265 627.7549,-1376.6265 627.7549,-1376.6265 621.7549,-1376.6265 615.7549,-1370.6265 615.7549,-1364.6265 615.7549,-1364.6265 615.7549,-1316.6265 615.7549,-1316.6265 615.7549,-1310.6265 621.7549,-1304.6265 627.7549,-1304.6265"/>
<text text-anchor="middle" x="672.7549" y="-1363.8265" font-family="Times,serif" font-size="11.00" fill="#c0c0c0">Results</text>
</g>
<g id="clust22" class="cluster">
<title>cluster_\Firesphere\SolrSearch\Models</title>
<path fill="none" stroke="#c0c0c0" d="M624.7549,-1116.6265C624.7549,-1116.6265 720.7549,-1116.6265 720.7549,-1116.6265 726.7549,-1116.6265 732.7549,-1122.6265 732.7549,-1128.6265 732.7549,-1128.6265 732.7549,-1284.6265 732.7549,-1284.6265 732.7549,-1290.6265 726.7549,-1296.6265 720.7549,-1296.6265 720.7549,-1296.6265 624.7549,-1296.6265 624.7549,-1296.6265 618.7549,-1296.6265 612.7549,-1290.6265 612.7549,-1284.6265 612.7549,-1284.6265 612.7549,-1128.6265 612.7549,-1128.6265 612.7549,-1122.6265 618.7549,-1116.6265 624.7549,-1116.6265"/>
<text text-anchor="middle" x="672.7549" y="-1283.8265" font-family="Times,serif" font-size="11.00" fill="#c0c0c0">Models</text>
</g>
<g id="clust23" class="cluster">
<title>cluster_\Firesphere\SolrSearch\Indexes</title>
<path fill="none" stroke="#c0c0c0" d="M634.7549,-1036.6265C634.7549,-1036.6265 710.7549,-1036.6265 710.7549,-1036.6265 716.7549,-1036.6265 722.7549,-1042.6265 722.7549,-1048.6265 722.7549,-1048.6265 722.7549,-1096.6265 722.7549,-1096.6265 722.7549,-1102.6265 716.7549,-1108.6265 710.7549,-1108.6265 710.7549,-1108.6265 634.7549,-1108.6265 634.7549,-1108.6265 628.7549,-1108.6265 622.7549,-1102.6265 622.7549,-1096.6265 622.7549,-1096.6265 622.7549,-1048.6265 622.7549,-1048.6265 622.7549,-1042.6265 628.7549,-1036.6265 634.7549,-1036.6265"/>
<text text-anchor="middle" x="672.7549" y="-1095.8265" font-family="Times,serif" font-size="11.00" fill="#c0c0c0">Indexes</text>
</g>
<g id="clust24" class="cluster">
<title>cluster_\Firesphere\SolrSearch\Helpers</title>
<path fill="none" stroke="#c0c0c0" d="M624.7549,-740.6265C624.7549,-740.6265 720.7549,-740.6265 720.7549,-740.6265 726.7549,-740.6265 732.7549,-746.6265 732.7549,-752.6265 732.7549,-752.6265 732.7549,-1016.6265 732.7549,-1016.6265 732.7549,-1022.6265 726.7549,-1028.6265 720.7549,-1028.6265 720.7549,-1028.6265 624.7549,-1028.6265 624.7549,-1028.6265 618.7549,-1028.6265 612.7549,-1022.6265 612.7549,-1016.6265 612.7549,-1016.6265 612.7549,-752.6265 612.7549,-752.6265 612.7549,-746.6265 618.7549,-740.6265 624.7549,-740.6265"/>
<text text-anchor="middle" x="672.7549" y="-1015.8265" font-family="Times,serif" font-size="11.00" fill="#c0c0c0">Helpers</text>
</g>
<g id="clust25" class="cluster">
<title>cluster_\Firesphere\SolrSearch\States</title>
<path fill="none" stroke="#c0c0c0" d="M634.7549,-660.6265C634.7549,-660.6265 710.7549,-660.6265 710.7549,-660.6265 716.7549,-660.6265 722.7549,-666.6265 722.7549,-672.6265 722.7549,-672.6265 722.7549,-720.6265 722.7549,-720.6265 722.7549,-726.6265 716.7549,-732.6265 710.7549,-732.6265 710.7549,-732.6265 634.7549,-732.6265 634.7549,-732.6265 628.7549,-732.6265 622.7549,-726.6265 622.7549,-720.6265 622.7549,-720.6265 622.7549,-672.6265 622.7549,-672.6265 622.7549,-666.6265 628.7549,-660.6265 634.7549,-660.6265"/>
<text text-anchor="middle" x="672.7549" y="-719.8265" font-family="Times,serif" font-size="11.00" fill="#c0c0c0">States</text>
</g>
<g id="clust26" class="cluster">
<title>cluster_\Firesphere\SolrSearch\Fluent</title>
<path fill="none" stroke="#c0c0c0" d="M617.7549,-580.6265C617.7549,-580.6265 727.7549,-580.6265 727.7549,-580.6265 733.7549,-580.6265 739.7549,-586.6265 739.7549,-592.6265 739.7549,-592.6265 739.7549,-640.6265 739.7549,-640.6265 739.7549,-646.6265 733.7549,-652.6265 727.7549,-652.6265 727.7549,-652.6265 617.7549,-652.6265 617.7549,-652.6265 611.7549,-652.6265 605.7549,-646.6265 605.7549,-640.6265 605.7549,-640.6265 605.7549,-592.6265 605.7549,-592.6265 605.7549,-586.6265 611.7549,-580.6265 617.7549,-580.6265"/>
<text text-anchor="middle" x="672.7549" y="-639.8265" font-family="Times,serif" font-size="11.00" fill="#c0c0c0">Fluent</text>
</g>
<g id="clust27" class="cluster">
<title>cluster_\Firesphere\SolrSearch\Subsites</title>
<path fill="none" stroke="#c0c0c0" d="M611.2549,-500.6265C611.2549,-500.6265 734.2549,-500.6265 734.2549,-500.6265 740.2549,-500.6265 746.2549,-506.6265 746.2549,-512.6265 746.2549,-512.6265 746.2549,-560.6265 746.2549,-560.6265 746.2549,-566.6265 740.2549,-572.6265 734.2549,-572.6265 734.2549,-572.6265 611.2549,-572.6265 611.2549,-572.6265 605.2549,-572.6265 599.2549,-566.6265 599.2549,-560.6265 599.2549,-560.6265 599.2549,-512.6265 599.2549,-512.6265 599.2549,-506.6265 605.2549,-500.6265 611.2549,-500.6265"/>
<text text-anchor="middle" x="672.7549" y="-559.8265" font-family="Times,serif" font-size="11.00" fill="#c0c0c0">Subsites</text>
</g>
<!-- \\SilverStripe\\FullTextSearch\\Search\\Queries\\SearchQuery -->
<g id="node1" class="node">
<title>\\SilverStripe\\FullTextSearch\\Search\\Queries\\SearchQuery</title>
<polygon fill="none" stroke="#000000" points="928.2549,-1553.6265 837.2549,-1553.6265 837.2549,-1517.6265 928.2549,-1517.6265 928.2549,-1553.6265"/>
<text text-anchor="middle" x="882.7549" y="-1532.8265" font-family="Courier,monospace" font-size="11.00" fill="#000000">SearchQuery</text>
</g>
<!-- \\Firesphere\\SolrSearch\\Queries\\BaseQuery -->
<g id="node32" class="node">
<title>\\Firesphere\\SolrSearch\\Queries\\BaseQuery</title>
<polygon fill="none" stroke="#000000" points="711.2549,-1884.6265 634.2549,-1884.6265 634.2549,-1848.6265 711.2549,-1848.6265 711.2549,-1884.6265"/>
<text text-anchor="middle" x="672.7549" y="-1863.8265" font-family="Courier,monospace" font-size="11.00" fill="#000000">BaseQuery</text>
</g>
<!-- \\SilverStripe\\FullTextSearch\\Search\\Queries\\SearchQuery&#45;&gt;\\Firesphere\\SolrSearch\\Queries\\BaseQuery -->
<g id="edge1" class="edge">
<title>\\SilverStripe\\FullTextSearch\\Search\\Queries\\SearchQuery&#45;&gt;\\Firesphere\\SolrSearch\\Queries\\BaseQuery</title>
<path fill="none" stroke="#000000" d="M879.4549,-1554.0137C868.5064,-1613.0433 831.6611,-1796.2549 789.2549,-1836.6265 771.2027,-1853.8126 744.6641,-1861.4949 721.4743,-1864.7993"/>
<polygon fill="none" stroke="#000000" points="720.9532,-1861.3365 711.4376,-1865.9953 721.7815,-1868.2874 720.9532,-1861.3365"/>
</g>
<!-- \\SilverStripe\\FullTextSearch\\Solr\\Solr -->
<g id="node2" class="node">
<title>\\SilverStripe\\FullTextSearch\\Solr\\Solr</title>
<polygon fill="none" stroke="#000000" points="909.7549,-1465.6265 855.7549,-1465.6265 855.7549,-1429.6265 909.7549,-1429.6265 909.7549,-1465.6265"/>
<text text-anchor="middle" x="882.7549" y="-1444.8265" font-family="Courier,monospace" font-size="11.00" fill="#000000">Solr</text>
</g>
<!-- \\SilverStripe\\FullTextSearch\\Solr\\SolrIndex -->
<g id="node3" class="node">
<title>\\SilverStripe\\FullTextSearch\\Solr\\SolrIndex</title>
<polygon fill="none" stroke="#000000" points="924.7549,-1411.6265 840.7549,-1411.6265 840.7549,-1375.6265 924.7549,-1375.6265 924.7549,-1411.6265"/>
<text text-anchor="start" x="848.7549" y="-1396.8265" font-family="Courier,monospace" font-size="11.00" fill="#000000">«abstract»</text>
<text text-anchor="start" x="852.2549" y="-1384.8265" font-family="Courier,monospace" font-size="11.00" fill="#000000">SolrIndex</text>
</g>
<!-- \\Firesphere\\SolrSearch\\Indexes\\BaseIndex -->
<g id="node44" class="node">
<title>\\Firesphere\\SolrSearch\\Indexes\\BaseIndex</title>
<polygon fill="none" stroke="#000000" points="714.7549,-1080.6265 630.7549,-1080.6265 630.7549,-1044.6265 714.7549,-1044.6265 714.7549,-1080.6265"/>
<text text-anchor="start" x="638.7549" y="-1065.8265" font-family="Courier,monospace" font-size="11.00" fill="#000000">«abstract»</text>
<text text-anchor="start" x="642.2549" y="-1053.8265" font-family="Courier,monospace" font-size="11.00" fill="#000000">BaseIndex</text>
</g>
<!-- \\SilverStripe\\FullTextSearch\\Solr\\SolrIndex&#45;&gt;\\Firesphere\\SolrSearch\\Indexes\\BaseIndex -->
<g id="edge3" class="edge">
<title>\\SilverStripe\\FullTextSearch\\Solr\\SolrIndex&#45;&gt;\\Firesphere\\SolrSearch\\Indexes\\BaseIndex</title>
<path fill="none" stroke="#000000" d="M881.7056,-1375.2952C877.9584,-1326.3468 861.2771,-1190.9829 789.2549,-1112.6265 772.2583,-1094.1351 747.2661,-1082.1941 724.7836,-1074.638"/>
<polygon fill="none" stroke="#000000" points="725.5908,-1071.223 715.0015,-1071.5645 723.4925,-1077.9011 725.5908,-1071.223"/>
</g>
<!-- \\Firesphere\\SolrSearch\\Compat\\FulltextSearchExtension -->
<g id="node4" class="node">
<title>\\Firesphere\\SolrSearch\\Compat\\FulltextSearchExtension</title>
<polygon fill="none" stroke="#000000" points="758.7549,-3470.6265 586.7549,-3470.6265 586.7549,-3434.6265 758.7549,-3434.6265 758.7549,-3470.6265"/>
<text text-anchor="middle" x="672.7549" y="-3449.8265" font-family="Courier,monospace" font-size="11.00" fill="#000000">FulltextSearchExtension</text>
</g>
<!-- \\SilverStripe\\Core\\Extension -->
<g id="node53" class="node">
<title>\\SilverStripe\\Core\\Extension</title>
<ellipse fill="none" stroke="#000000" cx="254.1275" cy="-180.6265" rx="144.0747" ry="18"/>
<text text-anchor="middle" x="254.1275" y="-176.9265" font-family="Times,serif" font-size="14.00" fill="#c0c0c0">\SilverStripe\Core\Extension</text>
</g>
<!-- \\Firesphere\\SolrSearch\\Compat\\FulltextSearchExtension&#45;&gt;\\SilverStripe\\Core\\Extension -->
<g id="edge2" class="edge">
<title>\\Firesphere\\SolrSearch\\Compat\\FulltextSearchExtension&#45;&gt;\\SilverStripe\\Core\\Extension</title>
<path fill="none" stroke="#000000" d="M586.4511,-3435.7986C581.0635,-3432.1869 576.2236,-3427.8438 572.2549,-3422.6265 464.0969,-3280.4421 629.0337,-339.2588 508.2549,-207.6265 466.3754,-161.9837 394.5889,-158.0953 337.9734,-163.9933"/>
<polygon fill="none" stroke="#000000" points="337.4802,-160.527 327.9494,-165.1546 338.2858,-167.4805 337.4802,-160.527"/>
</g>
<!-- \\Firesphere\\SolrSearch\\Forms\\SearchForm -->
<g id="node5" class="node">
<title>\\Firesphere\\SolrSearch\\Forms\\SearchForm</title>
<polygon fill="none" stroke="#000000" points="714.7549,-3390.6265 630.7549,-3390.6265 630.7549,-3354.6265 714.7549,-3354.6265 714.7549,-3390.6265"/>
<text text-anchor="middle" x="672.7549" y="-3369.8265" font-family="Courier,monospace" font-size="11.00" fill="#000000">SearchForm</text>
</g>
<!-- \\SilverStripe\\Forms\\Form -->
<g id="node54" class="node">
<title>\\SilverStripe\\Forms\\Form</title>
<ellipse fill="none" stroke="#000000" cx="254.1275" cy="-450.6265" rx="129.1772" ry="18"/>
<text text-anchor="middle" x="254.1275" y="-446.9265" font-family="Times,serif" font-size="14.00" fill="#c0c0c0">\SilverStripe\Forms\Form</text>
</g>
<!-- \\Firesphere\\SolrSearch\\Forms\\SearchForm&#45;&gt;\\SilverStripe\\Forms\\Form -->
<g id="edge4" class="edge">
<title>\\Firesphere\\SolrSearch\\Forms\\SearchForm&#45;&gt;\\SilverStripe\\Forms\\Form</title>
<path fill="none" stroke="#000000" d="M630.6838,-3371.0729C609.7269,-3367.9338 585.9899,-3360.3172 572.2549,-3342.6265 517.2566,-3271.7888 518.8036,-1818.6856 508.2549,-1729.6265 448.1696,-1222.3492 296.5784,-615.6839 261.4673,-478.9226"/>
<polygon fill="none" stroke="#000000" points="264.7585,-477.6679 258.8751,-468.8567 257.9796,-479.4137 264.7585,-477.6679"/>
</g>
<!-- \\Firesphere\\SolrSearch\\Factories\\QueryComponentFactory -->
<g id="node6" class="node">
<title>\\Firesphere\\SolrSearch\\Factories\\QueryComponentFactory</title>
<polygon fill="none" stroke="#000000" points="751.7549,-3310.6265 593.7549,-3310.6265 593.7549,-3274.6265 751.7549,-3274.6265 751.7549,-3310.6265"/>
<text text-anchor="middle" x="672.7549" y="-3289.8265" font-family="Courier,monospace" font-size="11.00" fill="#000000">QueryComponentFactory</text>
</g>
<!-- \\Firesphere\\SolrSearch\\Factories\\DocumentFactory -->
<g id="node7" class="node">
<title>\\Firesphere\\SolrSearch\\Factories\\DocumentFactory</title>
<polygon fill="none" stroke="#000000" points="731.7549,-3256.6265 613.7549,-3256.6265 613.7549,-3220.6265 731.7549,-3220.6265 731.7549,-3256.6265"/>
<text text-anchor="middle" x="672.7549" y="-3235.8265" font-family="Courier,monospace" font-size="11.00" fill="#000000">DocumentFactory</text>
</g>
<!-- \\Firesphere\\SolrSearch\\Services\\SchemaService -->
<g id="node8" class="node">
<title>\\Firesphere\\SolrSearch\\Services\\SchemaService</title>
<polygon fill="none" stroke="#000000" points="724.7549,-3176.6265 620.7549,-3176.6265 620.7549,-3140.6265 724.7549,-3140.6265 724.7549,-3176.6265"/>
<text text-anchor="middle" x="672.7549" y="-3155.8265" font-family="Courier,monospace" font-size="11.00" fill="#000000">SchemaService</text>
</g>
<!-- \\SilverStripe\\View\\ViewableData -->
<g id="node55" class="node">
<title>\\SilverStripe\\View\\ViewableData</title>
<ellipse fill="none" stroke="#000000" cx="254.1275" cy="-396.6265" rx="163.2712" ry="18"/>
<text text-anchor="middle" x="254.1275" y="-392.9265" font-family="Times,serif" font-size="14.00" fill="#c0c0c0">\SilverStripe\View\ViewableData</text>
</g>
<!-- \\Firesphere\\SolrSearch\\Services\\SchemaService&#45;&gt;\\SilverStripe\\View\\ViewableData -->
<g id="edge5" class="edge">
<title>\\Firesphere\\SolrSearch\\Services\\SchemaService&#45;&gt;\\SilverStripe\\View\\ViewableData</title>
<path fill="none" stroke="#000000" d="M620.5528,-3156.9507C602.4463,-3153.5573 583.8077,-3146.3297 572.2549,-3131.6265 479.2795,-3013.2976 610.2017,-534.3199 508.2549,-423.6265 467.2262,-379.0778 397.698,-374.3608 341.7286,-379.6636"/>
<polygon fill="none" stroke="#000000" points="341.0168,-376.2197 331.4456,-380.7631 341.7611,-383.18 341.0168,-376.2197"/>
</g>
<!-- \\Firesphere\\SolrSearch\\Services\\SolrCoreService -->
<g id="node9" class="node">
<title>\\Firesphere\\SolrSearch\\Services\\SolrCoreService</title>
<polygon fill="none" stroke="#000000" points="731.7549,-3122.6265 613.7549,-3122.6265 613.7549,-3086.6265 731.7549,-3086.6265 731.7549,-3122.6265"/>
<text text-anchor="middle" x="672.7549" y="-3101.8265" font-family="Courier,monospace" font-size="11.00" fill="#000000">SolrCoreService</text>
</g>
<!-- \\Firesphere\\SolrSearch\\Tasks\\ClearDirtyClassesTask -->
<g id="node10" class="node">
<title>\\Firesphere\\SolrSearch\\Tasks\\ClearDirtyClassesTask</title>
<polygon fill="none" stroke="#000000" points="751.7549,-2934.6265 593.7549,-2934.6265 593.7549,-2898.6265 751.7549,-2898.6265 751.7549,-2934.6265"/>
<text text-anchor="middle" x="672.7549" y="-2913.8265" font-family="Courier,monospace" font-size="11.00" fill="#000000">ClearDirtyClassesTask</text>
</g>
<!-- \\SilverStripe\\Dev\\BuildTask -->
<g id="node56" class="node">
<title>\\SilverStripe\\Dev\\BuildTask</title>
<ellipse fill="none" stroke="#000000" cx="254.1275" cy="-342.6265" rx="139.9756" ry="18"/>
<text text-anchor="middle" x="254.1275" y="-338.9265" font-family="Times,serif" font-size="14.00" fill="#c0c0c0">\SilverStripe\Dev\BuildTask</text>
</g>
<!-- \\Firesphere\\SolrSearch\\Tasks\\ClearDirtyClassesTask&#45;&gt;\\SilverStripe\\Dev\\BuildTask -->
<g id="edge6" class="edge">
<title>\\Firesphere\\SolrSearch\\Tasks\\ClearDirtyClassesTask&#45;&gt;\\SilverStripe\\Dev\\BuildTask</title>
<path fill="none" stroke="#000000" d="M593.5952,-2906.3423C585.371,-2902.2935 577.954,-2896.8666 572.2549,-2889.6265 485.6335,-2779.584 603.219,-472.5559 508.2549,-369.6265 466.1793,-324.0218 394.2326,-320.1869 337.6093,-326.0945"/>
<polygon fill="none" stroke="#000000" points="337.1157,-322.6282 327.5855,-327.257 337.9222,-329.5816 337.1157,-322.6282"/>
</g>
<!-- \\Firesphere\\SolrSearch\\Tasks\\SolrIndexTask -->
<g id="node11" class="node">
<title>\\Firesphere\\SolrSearch\\Tasks\\SolrIndexTask</title>
<polygon fill="none" stroke="#000000" points="724.7549,-2880.6265 620.7549,-2880.6265 620.7549,-2844.6265 724.7549,-2844.6265 724.7549,-2880.6265"/>
<text text-anchor="middle" x="672.7549" y="-2859.8265" font-family="Courier,monospace" font-size="11.00" fill="#000000">SolrIndexTask</text>
</g>
<!-- \\Firesphere\\SolrSearch\\Tasks\\SolrIndexTask&#45;&gt;\\SilverStripe\\Dev\\BuildTask -->
<g id="edge7" class="edge">
<title>\\Firesphere\\SolrSearch\\Tasks\\SolrIndexTask&#45;&gt;\\SilverStripe\\Dev\\BuildTask</title>
<path fill="none" stroke="#000000" d="M620.7117,-2859.3607C602.5104,-2855.4342 583.7657,-2847.6636 572.2549,-2832.6265 489.0533,-2723.9366 601.1019,-470.202 508.2549,-369.6265 466.166,-324.0342 394.2205,-320.1981 337.601,-326.1021"/>
<polygon fill="none" stroke="#000000" points="337.1084,-322.6357 327.578,-327.264 337.9145,-329.5891 337.1084,-322.6357"/>
</g>
<!-- \\Firesphere\\SolrSearch\\Tasks\\ClearErrorsTask -->
<g id="node12" class="node">
<title>\\Firesphere\\SolrSearch\\Tasks\\ClearErrorsTask</title>
<polygon fill="none" stroke="#000000" points="731.7549,-3042.6265 613.7549,-3042.6265 613.7549,-3006.6265 731.7549,-3006.6265 731.7549,-3042.6265"/>
<text text-anchor="middle" x="672.7549" y="-3021.8265" font-family="Courier,monospace" font-size="11.00" fill="#000000">ClearErrorsTask</text>
</g>
<!-- \\Firesphere\\SolrSearch\\Tasks\\ClearErrorsTask&#45;&gt;\\SilverStripe\\Dev\\BuildTask -->
<g id="edge8" class="edge">
<title>\\Firesphere\\SolrSearch\\Tasks\\ClearErrorsTask&#45;&gt;\\SilverStripe\\Dev\\BuildTask</title>
<path fill="none" stroke="#000000" d="M613.7258,-3021.4788C597.8819,-3017.619 582.3613,-3010.4793 572.2549,-2997.6265 481.9833,-2882.8237 607.2303,-477.0161 508.2549,-369.6265 466.1322,-323.9229 394.0115,-320.1542 337.3376,-326.111"/>
<polygon fill="none" stroke="#000000" points="336.8328,-322.646 327.3062,-327.2821 337.6446,-329.5988 336.8328,-322.646"/>
</g>
<!-- \\Firesphere\\SolrSearch\\Tasks\\SolrConfigureTask -->
<g id="node13" class="node">
<title>\\Firesphere\\SolrSearch\\Tasks\\SolrConfigureTask</title>
<polygon fill="none" stroke="#000000" points="738.2549,-2988.6265 607.2549,-2988.6265 607.2549,-2952.6265 738.2549,-2952.6265 738.2549,-2988.6265"/>
<text text-anchor="middle" x="672.7549" y="-2967.8265" font-family="Courier,monospace" font-size="11.00" fill="#000000">SolrConfigureTask</text>
</g>
<!-- \\Firesphere\\SolrSearch\\Tasks\\SolrConfigureTask&#45;&gt;\\SilverStripe\\Dev\\BuildTask -->
<g id="edge9" class="edge">
<title>\\Firesphere\\SolrSearch\\Tasks\\SolrConfigureTask&#45;&gt;\\SilverStripe\\Dev\\BuildTask</title>
<path fill="none" stroke="#000000" d="M607.1967,-2965.6821C593.7017,-2961.5347 580.9682,-2954.7018 572.2549,-2943.6265 483.8084,-2831.2039 605.2247,-474.786 508.2549,-369.6265 466.1206,-323.9337 394.0009,-320.1639 337.3304,-326.1176"/>
<polygon fill="none" stroke="#000000" points="336.8265,-322.6525 327.2996,-327.2882 337.6379,-329.6053 336.8265,-322.6525"/>
</g>
<!-- \\Firesphere\\SolrSearch\\Admins\\SearchAdmin -->
<g id="node14" class="node">
<title>\\Firesphere\\SolrSearch\\Admins\\SearchAdmin</title>
<polygon fill="none" stroke="#000000" points="718.2549,-2800.6265 627.2549,-2800.6265 627.2549,-2764.6265 718.2549,-2764.6265 718.2549,-2800.6265"/>
<text text-anchor="middle" x="672.7549" y="-2779.8265" font-family="Courier,monospace" font-size="11.00" fill="#000000">SearchAdmin</text>
</g>
<!-- \\SilverStripe\\Admin\\ModelAdmin -->
<g id="node57" class="node">
<title>\\SilverStripe\\Admin\\ModelAdmin</title>
<ellipse fill="none" stroke="#000000" cx="254.1275" cy="-288.6265" rx="165.1707" ry="18"/>
<text text-anchor="middle" x="254.1275" y="-284.9265" font-family="Times,serif" font-size="14.00" fill="#c0c0c0">\SilverStripe\Admin\ModelAdmin</text>
</g>
<!-- \\Firesphere\\SolrSearch\\Admins\\SearchAdmin&#45;&gt;\\SilverStripe\\Admin\\ModelAdmin -->
<g id="edge10" class="edge">
<title>\\Firesphere\\SolrSearch\\Admins\\SearchAdmin&#45;&gt;\\SilverStripe\\Admin\\ModelAdmin</title>
<path fill="none" stroke="#000000" d="M627.2397,-2780.6142C607.1234,-2777.1952 585.1515,-2769.4692 572.2549,-2752.6265 489.9162,-2645.0946 600.1363,-415.1283 508.2549,-315.6265 467.3094,-271.2851 398.1226,-266.4441 342.2697,-271.6445"/>
<polygon fill="none" stroke="#000000" points="341.5843,-268.1973 332.0057,-272.7252 342.3173,-275.1588 341.5843,-268.1973"/>
</g>
<!-- \\Firesphere\\SolrSearch\\Interfaces\\SiteStateInterface -->
<g id="node15" class="node">
<title>\\Firesphere\\SolrSearch\\Interfaces\\SiteStateInterface</title>
<polygon fill="none" stroke="#000000" points="323.1275,-1831.6265 185.1275,-1831.6265 185.1275,-1795.6265 323.1275,-1795.6265 323.1275,-1831.6265"/>
<text text-anchor="middle" x="254.1275" y="-1810.8265" font-family="Courier,monospace" font-size="11.00" fill="#000000">SiteStateInterface</text>
</g>
<!-- \\Firesphere\\SolrSearch\\Interfaces\\ConfigStore -->
<g id="node16" class="node">
<title>\\Firesphere\\SolrSearch\\Interfaces\\ConfigStore</title>
<polygon fill="none" stroke="#000000" points="299.6275,-1777.6265 208.6275,-1777.6265 208.6275,-1741.6265 299.6275,-1741.6265 299.6275,-1777.6265"/>
<text text-anchor="middle" x="254.1275" y="-1756.8265" font-family="Courier,monospace" font-size="11.00" fill="#000000">ConfigStore</text>
</g>
<!-- \\Firesphere\\SolrSearch\\Traits\\QueryComponentFacetTrait -->
<g id="node17" class="node">
<title>\\Firesphere\\SolrSearch\\Traits\\QueryComponentFacetTrait</title>
<polygon fill="none" stroke="#000000" points="762.2549,-2720.6265 583.2549,-2720.6265 583.2549,-2684.6265 762.2549,-2684.6265 762.2549,-2720.6265"/>
<text text-anchor="middle" x="672.7549" y="-2699.8265" font-family="Courier,monospace" font-size="11.00" fill="#000000">QueryComponentFacetTrait</text>
</g>
<!-- \\Firesphere\\SolrSearch\\Traits\\QueryComponentFilterTrait -->
<g id="node18" class="node">
<title>\\Firesphere\\SolrSearch\\Traits\\QueryComponentFilterTrait</title>
<polygon fill="none" stroke="#000000" points="765.2549,-2666.6265 580.2549,-2666.6265 580.2549,-2630.6265 765.2549,-2630.6265 765.2549,-2666.6265"/>
<text text-anchor="middle" x="672.7549" y="-2645.8265" font-family="Courier,monospace" font-size="11.00" fill="#000000">QueryComponentFilterTrait</text>
</g>
<!-- \\Firesphere\\SolrSearch\\Traits\\QueryComponentBoostTrait -->
<g id="node19" class="node">
<title>\\Firesphere\\SolrSearch\\Traits\\QueryComponentBoostTrait</title>
<polygon fill="none" stroke="#000000" points="762.2549,-2612.6265 583.2549,-2612.6265 583.2549,-2576.6265 762.2549,-2576.6265 762.2549,-2612.6265"/>
<text text-anchor="middle" x="672.7549" y="-2591.8265" font-family="Courier,monospace" font-size="11.00" fill="#000000">QueryComponentBoostTrait</text>
</g>
<!-- \\Firesphere\\SolrSearch\\Traits\\BaseQueryTrait -->
<g id="node20" class="node">
<title>\\Firesphere\\SolrSearch\\Traits\\BaseQueryTrait</title>
<polygon fill="none" stroke="#000000" points="728.2549,-2558.6265 617.2549,-2558.6265 617.2549,-2522.6265 728.2549,-2522.6265 728.2549,-2558.6265"/>
<text text-anchor="middle" x="672.7549" y="-2537.8265" font-family="Courier,monospace" font-size="11.00" fill="#000000">BaseQueryTrait</text>
</g>
<!-- \\Firesphere\\SolrSearch\\Traits\\SearchResultGetTrait -->
<g id="node21" class="node">
<title>\\Firesphere\\SolrSearch\\Traits\\SearchResultGetTrait</title>
<polygon fill="none" stroke="#000000" points="748.7549,-2504.6265 596.7549,-2504.6265 596.7549,-2468.6265 748.7549,-2468.6265 748.7549,-2504.6265"/>
<text text-anchor="middle" x="672.7549" y="-2483.8265" font-family="Courier,monospace" font-size="11.00" fill="#000000">SearchResultGetTrait</text>
</g>
<!-- \\Firesphere\\SolrSearch\\Traits\\SearchResultSetTrait -->
<g id="node22" class="node">
<title>\\Firesphere\\SolrSearch\\Traits\\SearchResultSetTrait</title>
<polygon fill="none" stroke="#000000" points="748.7549,-2450.6265 596.7549,-2450.6265 596.7549,-2414.6265 748.7549,-2414.6265 748.7549,-2450.6265"/>
<text text-anchor="middle" x="672.7549" y="-2429.8265" font-family="Courier,monospace" font-size="11.00" fill="#000000">SearchResultSetTrait</text>
</g>
<!-- \\Firesphere\\SolrSearch\\Traits\\BaseIndexTrait -->
<g id="node23" class="node">
<title>\\Firesphere\\SolrSearch\\Traits\\BaseIndexTrait</title>
<polygon fill="none" stroke="#000000" points="728.2549,-2396.6265 617.2549,-2396.6265 617.2549,-2360.6265 728.2549,-2360.6265 728.2549,-2396.6265"/>
<text text-anchor="middle" x="672.7549" y="-2375.8265" font-family="Courier,monospace" font-size="11.00" fill="#000000">BaseIndexTrait</text>
</g>
<!-- \\Firesphere\\SolrSearch\\Traits\\GetSetSearchResolverTrait -->
<g id="node24" class="node">
<title>\\Firesphere\\SolrSearch\\Traits\\GetSetSearchResolverTrait</title>
<polygon fill="none" stroke="#000000" points="765.2549,-2342.6265 580.2549,-2342.6265 580.2549,-2306.6265 765.2549,-2306.6265 765.2549,-2342.6265"/>
<text text-anchor="middle" x="672.7549" y="-2321.8265" font-family="Courier,monospace" font-size="11.00" fill="#000000">GetSetSearchResolverTrait</text>
</g>
<!-- \\Firesphere\\SolrSearch\\Traits\\LoggerTrait -->
<g id="node25" class="node">
<title>\\Firesphere\\SolrSearch\\Traits\\LoggerTrait</title>
<polygon fill="none" stroke="#000000" points="718.2549,-2288.6265 627.2549,-2288.6265 627.2549,-2252.6265 718.2549,-2252.6265 718.2549,-2288.6265"/>
<text text-anchor="middle" x="672.7549" y="-2267.8265" font-family="Courier,monospace" font-size="11.00" fill="#000000">LoggerTrait</text>
</g>
<!-- \\Firesphere\\SolrSearch\\Traits\\GetSetSchemaServiceTrait -->
<g id="node26" class="node">
<title>\\Firesphere\\SolrSearch\\Traits\\GetSetSchemaServiceTrait</title>
<polygon fill="none" stroke="#000000" points="762.2549,-2234.6265 583.2549,-2234.6265 583.2549,-2198.6265 762.2549,-2198.6265 762.2549,-2234.6265"/>
<text text-anchor="middle" x="672.7549" y="-2213.8265" font-family="Courier,monospace" font-size="11.00" fill="#000000">GetSetSchemaServiceTrait</text>
</g>
<!-- \\Firesphere\\SolrSearch\\Traits\\DocumentFactoryTrait -->
<g id="node27" class="node">
<title>\\Firesphere\\SolrSearch\\Traits\\DocumentFactoryTrait</title>
<polygon fill="none" stroke="#000000" points="748.7549,-2180.6265 596.7549,-2180.6265 596.7549,-2144.6265 748.7549,-2144.6265 748.7549,-2180.6265"/>
<text text-anchor="middle" x="672.7549" y="-2159.8265" font-family="Courier,monospace" font-size="11.00" fill="#000000">DocumentFactoryTrait</text>
</g>
<!-- \\Firesphere\\SolrSearch\\Traits\\DataResolveTrait -->
<g id="node28" class="node">
<title>\\Firesphere\\SolrSearch\\Traits\\DataResolveTrait</title>
<polygon fill="none" stroke="#000000" points="735.2549,-2126.6265 610.2549,-2126.6265 610.2549,-2090.6265 735.2549,-2090.6265 735.2549,-2126.6265"/>
<text text-anchor="middle" x="672.7549" y="-2105.8265" font-family="Courier,monospace" font-size="11.00" fill="#000000">DataResolveTrait</text>
</g>
<!-- \\Firesphere\\SolrSearch\\Traits\\CoreServiceTrait -->
<g id="node29" class="node">
<title>\\Firesphere\\SolrSearch\\Traits\\CoreServiceTrait</title>
<polygon fill="none" stroke="#000000" points="735.2549,-2072.6265 610.2549,-2072.6265 610.2549,-2036.6265 735.2549,-2036.6265 735.2549,-2072.6265"/>
<text text-anchor="middle" x="672.7549" y="-2051.8265" font-family="Courier,monospace" font-size="11.00" fill="#000000">CoreServiceTrait</text>
</g>
<!-- \\Firesphere\\SolrSearch\\Traits\\CoreAdminTrait -->
<g id="node30" class="node">
<title>\\Firesphere\\SolrSearch\\Traits\\CoreAdminTrait</title>
<polygon fill="none" stroke="#000000" points="728.2549,-2018.6265 617.2549,-2018.6265 617.2549,-1982.6265 728.2549,-1982.6265 728.2549,-2018.6265"/>
<text text-anchor="middle" x="672.7549" y="-1997.8265" font-family="Courier,monospace" font-size="11.00" fill="#000000">CoreAdminTrait</text>
</g>
<!-- \\Firesphere\\SolrSearch\\Traits\\GetterSetterTrait -->
<g id="node31" class="node">
<title>\\Firesphere\\SolrSearch\\Traits\\GetterSetterTrait</title>
<polygon fill="none" stroke="#000000" points="738.2549,-1964.6265 607.2549,-1964.6265 607.2549,-1928.6265 738.2549,-1928.6265 738.2549,-1964.6265"/>
<text text-anchor="middle" x="672.7549" y="-1943.8265" font-family="Courier,monospace" font-size="11.00" fill="#000000">GetterSetterTrait</text>
</g>
<!-- \\Firesphere\\SolrSearch\\Jobs\\ClearDirtyClassesJob -->
<g id="node33" class="node">
<title>\\Firesphere\\SolrSearch\\Jobs\\ClearDirtyClassesJob</title>
<polygon fill="none" stroke="#000000" points="748.7549,-1616.6265 596.7549,-1616.6265 596.7549,-1580.6265 748.7549,-1580.6265 748.7549,-1616.6265"/>
<text text-anchor="middle" x="672.7549" y="-1595.8265" font-family="Courier,monospace" font-size="11.00" fill="#000000">ClearDirtyClassesJob</text>
</g>
<!-- \\Symbiote\\QueuedJobs\\Services\\AbstractQueuedJob -->
<g id="node58" class="node">
<title>\\Symbiote\\QueuedJobs\\Services\\AbstractQueuedJob</title>
<ellipse fill="none" stroke="#000000" cx="254.1275" cy="-234.6265" rx="254.255" ry="18"/>
<text text-anchor="middle" x="254.1275" y="-230.9265" font-family="Times,serif" font-size="14.00" fill="#c0c0c0">\Symbiote\QueuedJobs\Services\AbstractQueuedJob</text>
</g>
<!-- \\Firesphere\\SolrSearch\\Jobs\\ClearDirtyClassesJob&#45;&gt;\\Symbiote\\QueuedJobs\\Services\\AbstractQueuedJob -->
<g id="edge11" class="edge">
<title>\\Firesphere\\SolrSearch\\Jobs\\ClearDirtyClassesJob&#45;&gt;\\Symbiote\\QueuedJobs\\Services\\AbstractQueuedJob</title>
<path fill="none" stroke="#000000" d="M596.701,-1589.5786C587.2866,-1585.4284 578.7188,-1579.6432 572.2549,-1571.6265 480.7828,-1458.1812 608.321,-367.5688 508.2549,-261.6265 469.7599,-220.871 407.3548,-213.7699 354.0209,-217.0299"/>
<polygon fill="none" stroke="#000000" points="353.5456,-213.5554 343.8308,-217.7831 354.0616,-220.5363 353.5456,-213.5554"/>
</g>
<!-- \\Firesphere\\SolrSearch\\Jobs\\SolrIndexJob -->
<g id="node34" class="node">
<title>\\Firesphere\\SolrSearch\\Jobs\\SolrIndexJob</title>
<polygon fill="none" stroke="#000000" points="721.7549,-1562.6265 623.7549,-1562.6265 623.7549,-1526.6265 721.7549,-1526.6265 721.7549,-1562.6265"/>
<text text-anchor="middle" x="672.7549" y="-1541.8265" font-family="Courier,monospace" font-size="11.00" fill="#000000">SolrIndexJob</text>
</g>
<!-- \\Firesphere\\SolrSearch\\Jobs\\SolrIndexJob&#45;&gt;\\Symbiote\\QueuedJobs\\Services\\AbstractQueuedJob -->
<g id="edge12" class="edge">
<title>\\Firesphere\\SolrSearch\\Jobs\\SolrIndexJob&#45;&gt;\\Symbiote\\QueuedJobs\\Services\\AbstractQueuedJob</title>
<path fill="none" stroke="#000000" d="M623.5266,-1541.75C604.5551,-1537.9896 584.5156,-1530.2342 572.2549,-1514.6265 486.139,-1405.0024 604.0898,-362.8642 508.2549,-261.6265 469.7864,-220.9894 407.541,-213.8397 354.2836,-217.0447"/>
<polygon fill="none" stroke="#000000" points="353.8259,-213.5687 344.1072,-217.7872 354.3354,-220.5501 353.8259,-213.5687"/>
</g>
<!-- \\Firesphere\\SolrSearch\\Jobs\\SolrConfigureJob -->
<g id="node35" class="node">
<title>\\Firesphere\\SolrSearch\\Jobs\\SolrConfigureJob</title>
<polygon fill="none" stroke="#000000" points="735.2549,-1670.6265 610.2549,-1670.6265 610.2549,-1634.6265 735.2549,-1634.6265 735.2549,-1670.6265"/>
<text text-anchor="middle" x="672.7549" y="-1649.8265" font-family="Courier,monospace" font-size="11.00" fill="#000000">SolrConfigureJob</text>
</g>
<!-- \\Firesphere\\SolrSearch\\Jobs\\SolrConfigureJob&#45;&gt;\\Symbiote\\QueuedJobs\\Services\\AbstractQueuedJob -->
<g id="edge13" class="edge">
<title>\\Firesphere\\SolrSearch\\Jobs\\SolrConfigureJob&#45;&gt;\\Symbiote\\QueuedJobs\\Services\\AbstractQueuedJob</title>
<path fill="none" stroke="#000000" d="M610.2387,-1648.379C595.6926,-1644.3377 581.7126,-1637.3793 572.2549,-1625.6265 477.135,-1507.4239 612.3297,-372.0262 508.2549,-261.6265 469.7992,-220.8339 407.3946,-213.7323 354.0512,-217.0013"/>
<polygon fill="none" stroke="#000000" points="353.5732,-213.527 343.8591,-217.7563 354.0904,-220.5079 353.5732,-213.527"/>
</g>
<!-- \\Firesphere\\SolrSearch\\Stores\\PostConfigStore -->
<g id="node36" class="node">
<title>\\Firesphere\\SolrSearch\\Stores\\PostConfigStore</title>
<polygon fill="none" stroke="#000000" points="731.7549,-1804.6265 613.7549,-1804.6265 613.7549,-1768.6265 731.7549,-1768.6265 731.7549,-1804.6265"/>
<text text-anchor="middle" x="672.7549" y="-1783.8265" font-family="Courier,monospace" font-size="11.00" fill="#000000">PostConfigStore</text>
</g>
<!-- \\Firesphere\\SolrSearch\\Stores\\PostConfigStore&#45;&gt;\\Firesphere\\SolrSearch\\Interfaces\\ConfigStore -->
<g id="edge14" class="edge">
<title>\\Firesphere\\SolrSearch\\Stores\\PostConfigStore&#45;&gt;\\Firesphere\\SolrSearch\\Interfaces\\ConfigStore</title>
<path fill="none" stroke="#000000" stroke-dasharray="1,5" d="M613.6637,-1782.8154C532.8854,-1777.6055 389.0185,-1768.3265 309.9722,-1763.2283"/>
<polygon fill="none" stroke="#000000" points="309.9333,-1759.7186 299.7287,-1762.5677 309.4827,-1766.7041 309.9333,-1759.7186"/>
</g>
<!-- \\Firesphere\\SolrSearch\\Stores\\FileConfigStore -->
<g id="node37" class="node">
<title>\\Firesphere\\SolrSearch\\Stores\\FileConfigStore</title>
<polygon fill="none" stroke="#000000" points="731.7549,-1750.6265 613.7549,-1750.6265 613.7549,-1714.6265 731.7549,-1714.6265 731.7549,-1750.6265"/>
<text text-anchor="middle" x="672.7549" y="-1729.8265" font-family="Courier,monospace" font-size="11.00" fill="#000000">FileConfigStore</text>
</g>
<!-- \\Firesphere\\SolrSearch\\Stores\\FileConfigStore&#45;&gt;\\Firesphere\\SolrSearch\\Interfaces\\ConfigStore -->
<g id="edge15" class="edge">
<title>\\Firesphere\\SolrSearch\\Stores\\FileConfigStore&#45;&gt;\\Firesphere\\SolrSearch\\Interfaces\\ConfigStore</title>
<path fill="none" stroke="#000000" stroke-dasharray="1,5" d="M613.6637,-1736.4377C532.8854,-1741.6476 389.0185,-1750.9265 309.9722,-1756.0248"/>
<polygon fill="none" stroke="#000000" points="309.4827,-1752.549 299.7287,-1756.6854 309.9333,-1759.5344 309.4827,-1752.549"/>
</g>
<!-- \\Firesphere\\SolrSearch\\Extensions\\GridFieldExtension -->
<g id="node38" class="node">
<title>\\Firesphere\\SolrSearch\\Extensions\\GridFieldExtension</title>
<polygon fill="none" stroke="#000000" points="741.7549,-1482.6265 603.7549,-1482.6265 603.7549,-1446.6265 741.7549,-1446.6265 741.7549,-1482.6265"/>
<text text-anchor="middle" x="672.7549" y="-1461.8265" font-family="Courier,monospace" font-size="11.00" fill="#000000">GridFieldExtension</text>
</g>
<!-- \\Firesphere\\SolrSearch\\Extensions\\GridFieldExtension&#45;&gt;\\SilverStripe\\Core\\Extension -->
<g id="edge16" class="edge">
<title>\\Firesphere\\SolrSearch\\Extensions\\GridFieldExtension&#45;&gt;\\SilverStripe\\Core\\Extension</title>
<path fill="none" stroke="#000000" d="M603.5406,-1458.2401C591.4858,-1454.0253 580.2654,-1447.5292 572.2549,-1437.6265 486.1864,-1331.2284 602.3826,-306.9659 508.2549,-207.6265 466.3114,-163.3608 396.1525,-158.8443 340.1661,-164.1545"/>
<polygon fill="none" stroke="#000000" points="339.4585,-160.7101 329.8871,-165.2531 340.2025,-167.6705 339.4585,-160.7101"/>
</g>
<!-- \\Firesphere\\SolrSearch\\Extensions\\DataObjectExtension -->
<g id="node39" class="node">
<title>\\Firesphere\\SolrSearch\\Extensions\\DataObjectExtension</title>
<polygon fill="none" stroke="#000000" points="745.2549,-1428.6265 600.2549,-1428.6265 600.2549,-1392.6265 745.2549,-1392.6265 745.2549,-1428.6265"/>
<text text-anchor="middle" x="672.7549" y="-1407.8265" font-family="Courier,monospace" font-size="11.00" fill="#000000">DataObjectExtension</text>
</g>
<!-- \\SilverStripe\\ORM\\DataExtension -->
<g id="node59" class="node">
<title>\\SilverStripe\\ORM\\DataExtension</title>
<ellipse fill="none" stroke="#000000" cx="254.1275" cy="-18.6265" rx="167.8704" ry="18"/>
<text text-anchor="middle" x="254.1275" y="-14.9265" font-family="Times,serif" font-size="14.00" fill="#c0c0c0">\SilverStripe\ORM\DataExtension</text>
</g>
<!-- \\Firesphere\\SolrSearch\\Extensions\\DataObjectExtension&#45;&gt;\\SilverStripe\\ORM\\DataExtension -->
<g id="edge17" class="edge">
<title>\\Firesphere\\SolrSearch\\Extensions\\DataObjectExtension&#45;&gt;\\SilverStripe\\ORM\\DataExtension</title>
<path fill="none" stroke="#000000" d="M600.082,-1400.7975C589.313,-1396.2646 579.4395,-1389.8019 572.2549,-1380.6265 480.7004,-1263.703 610.1769,-153.6324 508.2549,-45.6265 467.3335,-2.2625 399.346,3.0144 343.9854,-1.7582"/>
<polygon fill="none" stroke="#000000" points="343.414,1.7026 333.8046,-2.7594 344.0992,-5.2638 343.414,1.7026"/>
</g>
<!-- \\Firesphere\\SolrSearch\\Results\\SearchResult -->
<g id="node40" class="node">
<title>\\Firesphere\\SolrSearch\\Results\\SearchResult</title>
<polygon fill="none" stroke="#000000" points="721.7549,-1348.6265 623.7549,-1348.6265 623.7549,-1312.6265 721.7549,-1312.6265 721.7549,-1348.6265"/>
<text text-anchor="middle" x="672.7549" y="-1327.8265" font-family="Courier,monospace" font-size="11.00" fill="#000000">SearchResult</text>
</g>
<!-- \\Firesphere\\SolrSearch\\Models\\DirtyClass -->
<g id="node41" class="node">
<title>\\Firesphere\\SolrSearch\\Models\\DirtyClass</title>
<polygon fill="none" stroke="#000000" points="714.7549,-1214.6265 630.7549,-1214.6265 630.7549,-1178.6265 714.7549,-1178.6265 714.7549,-1214.6265"/>
<text text-anchor="middle" x="672.7549" y="-1193.8265" font-family="Courier,monospace" font-size="11.00" fill="#000000">DirtyClass</text>
</g>
<!-- \\SilverStripe\\ORM\\DataObject -->
<g id="node60" class="node">
<title>\\SilverStripe\\ORM\\DataObject</title>
<ellipse fill="none" stroke="#000000" cx="254.1275" cy="-126.6265" rx="152.9733" ry="18"/>
<text text-anchor="middle" x="254.1275" y="-122.9265" font-family="Times,serif" font-size="14.00" fill="#c0c0c0">\SilverStripe\ORM\DataObject</text>
</g>
<!-- \\Firesphere\\SolrSearch\\Models\\DirtyClass&#45;&gt;\\SilverStripe\\ORM\\DataObject -->
<g id="edge18" class="edge">
<title>\\Firesphere\\SolrSearch\\Models\\DirtyClass&#45;&gt;\\SilverStripe\\ORM\\DataObject</title>
<path fill="none" stroke="#000000" d="M630.7002,-1196.2326C609.882,-1193.6754 586.2676,-1186.757 572.2549,-1169.6265 429.0192,-994.5226 664.7493,-316.9893 508.2549,-153.6265 466.6482,-110.1937 397.8456,-105.1887 342.3168,-110.0924"/>
<polygon fill="none" stroke="#000000" points="341.713,-106.6353 332.1124,-111.1163 342.4119,-113.6003 341.713,-106.6353"/>
</g>
<!-- \\Firesphere\\SolrSearch\\Models\\SolrLog -->
<g id="node42" class="node">
<title>\\Firesphere\\SolrSearch\\Models\\SolrLog</title>
<polygon fill="none" stroke="#000000" points="704.7549,-1160.6265 640.7549,-1160.6265 640.7549,-1124.6265 704.7549,-1124.6265 704.7549,-1160.6265"/>
<text text-anchor="middle" x="672.7549" y="-1139.8265" font-family="Courier,monospace" font-size="11.00" fill="#000000">SolrLog</text>
</g>
<!-- \\Firesphere\\SolrSearch\\Models\\SolrLog&#45;&gt;\\SilverStripe\\ORM\\DataObject -->
<g id="edge19" class="edge">
<title>\\Firesphere\\SolrSearch\\Models\\SolrLog&#45;&gt;\\SilverStripe\\ORM\\DataObject</title>
<path fill="none" stroke="#000000" d="M640.3125,-1142.0994C617.543,-1139.8543 588.3857,-1132.8342 572.2549,-1112.6265 439.0074,-945.7022 656.2926,-307.5858 508.2549,-153.6265 466.6396,-110.3466 398.0082,-105.2792 342.5523,-110.1186"/>
<polygon fill="none" stroke="#000000" points="341.9656,-106.6595 332.3603,-111.1305 342.6572,-113.6253 341.9656,-106.6595"/>
</g>
<!-- \\SilverStripe\\Security\\PermissionProvider -->
<g id="node61" class="node">
<title>\\SilverStripe\\Security\\PermissionProvider</title>
<ellipse fill="none" stroke="#000000" cx="254.1275" cy="-72.6265" rx="206.0634" ry="18"/>
<text text-anchor="middle" x="254.1275" y="-68.9265" font-family="Times,serif" font-size="14.00" fill="#c0c0c0">\SilverStripe\Security\PermissionProvider</text>
</g>
<!-- \\Firesphere\\SolrSearch\\Models\\SolrLog&#45;&gt;\\SilverStripe\\Security\\PermissionProvider -->
<g id="edge20" class="edge">
<title>\\Firesphere\\SolrSearch\\Models\\SolrLog&#45;&gt;\\SilverStripe\\Security\\PermissionProvider</title>
<path fill="none" stroke="#000000" stroke-dasharray="1,5" d="M640.2912,-1142.1164C617.5111,-1139.8797 588.3499,-1132.8627 572.2549,-1112.6265 431.8493,-936.0945 664.3042,-262.4943 508.2549,-99.6265 468.749,-58.3944 404.7329,-51.797 350.8374,-55.4307"/>
<polygon fill="none" stroke="#000000" points="350.241,-51.9671 340.5522,-56.2542 350.7997,-58.9448 350.241,-51.9671"/>
</g>
<!-- \\Firesphere\\SolrSearch\\Models\\SearchSynonym -->
<g id="node43" class="node">
<title>\\Firesphere\\SolrSearch\\Models\\SearchSynonym</title>
<polygon fill="none" stroke="#000000" points="724.7549,-1268.6265 620.7549,-1268.6265 620.7549,-1232.6265 724.7549,-1232.6265 724.7549,-1268.6265"/>
<text text-anchor="middle" x="672.7549" y="-1247.8265" font-family="Courier,monospace" font-size="11.00" fill="#000000">SearchSynonym</text>
</g>
<!-- \\Firesphere\\SolrSearch\\Models\\SearchSynonym&#45;&gt;\\SilverStripe\\ORM\\DataObject -->
<g id="edge21" class="edge">
<title>\\Firesphere\\SolrSearch\\Models\\SearchSynonym&#45;&gt;\\SilverStripe\\ORM\\DataObject</title>
<path fill="none" stroke="#000000" d="M620.5715,-1248.6762C602.58,-1245.2363 584.0142,-1238.0487 572.2549,-1223.6265 421.7277,-1039.0131 672.7623,-325.8992 508.2549,-153.6265 466.6449,-110.0524 397.6713,-105.1095 342.0733,-110.0744"/>
<polygon fill="none" stroke="#000000" points="341.4534,-106.6192 331.8573,-111.1096 342.1592,-113.5835 341.4534,-106.6192"/>
</g>
<!-- \\Firesphere\\SolrSearch\\Helpers\\Synonyms -->
<g id="node45" class="node">
<title>\\Firesphere\\SolrSearch\\Helpers\\Synonyms</title>
<polygon fill="none" stroke="#000000" points="708.2549,-1000.6265 637.2549,-1000.6265 637.2549,-964.6265 708.2549,-964.6265 708.2549,-1000.6265"/>
<text text-anchor="middle" x="672.7549" y="-979.8265" font-family="Courier,monospace" font-size="11.00" fill="#000000">Synonyms</text>
</g>
<!-- \\Firesphere\\SolrSearch\\Helpers\\Statics -->
<g id="node46" class="node">
<title>\\Firesphere\\SolrSearch\\Helpers\\Statics</title>
<polygon fill="none" stroke="#000000" points="704.7549,-946.6265 640.7549,-946.6265 640.7549,-910.6265 704.7549,-910.6265 704.7549,-946.6265"/>
<text text-anchor="middle" x="672.7549" y="-925.8265" font-family="Courier,monospace" font-size="11.00" fill="#000000">Statics</text>
</g>
<!-- \\Firesphere\\SolrSearch\\Helpers\\SolrLogger -->
<g id="node47" class="node">
<title>\\Firesphere\\SolrSearch\\Helpers\\SolrLogger</title>
<polygon fill="none" stroke="#000000" points="714.7549,-892.6265 630.7549,-892.6265 630.7549,-856.6265 714.7549,-856.6265 714.7549,-892.6265"/>
<text text-anchor="middle" x="672.7549" y="-871.8265" font-family="Courier,monospace" font-size="11.00" fill="#000000">SolrLogger</text>
</g>
<!-- \\Firesphere\\SolrSearch\\Helpers\\DataResolver -->
<g id="node48" class="node">
<title>\\Firesphere\\SolrSearch\\Helpers\\DataResolver</title>
<polygon fill="none" stroke="#000000" points="721.7549,-838.6265 623.7549,-838.6265 623.7549,-802.6265 721.7549,-802.6265 721.7549,-838.6265"/>
<text text-anchor="middle" x="672.7549" y="-817.8265" font-family="Courier,monospace" font-size="11.00" fill="#000000">DataResolver</text>
</g>
<!-- \\Firesphere\\SolrSearch\\Helpers\\FieldResolver -->
<g id="node49" class="node">
<title>\\Firesphere\\SolrSearch\\Helpers\\FieldResolver</title>
<polygon fill="none" stroke="#000000" points="724.7549,-784.6265 620.7549,-784.6265 620.7549,-748.6265 724.7549,-748.6265 724.7549,-784.6265"/>
<text text-anchor="middle" x="672.7549" y="-763.8265" font-family="Courier,monospace" font-size="11.00" fill="#000000">FieldResolver</text>
</g>
<!-- \\Firesphere\\SolrSearch\\States\\SiteState -->
<g id="node50" class="node">
<title>\\Firesphere\\SolrSearch\\States\\SiteState</title>
<polygon fill="none" stroke="#000000" points="714.7549,-704.6265 630.7549,-704.6265 630.7549,-668.6265 714.7549,-668.6265 714.7549,-704.6265"/>
<text text-anchor="start" x="638.7549" y="-689.8265" font-family="Courier,monospace" font-size="11.00" fill="#000000">«abstract»</text>
<text text-anchor="start" x="642.2549" y="-677.8265" font-family="Courier,monospace" font-size="11.00" fill="#000000">SiteState</text>
</g>
<!-- \\Firesphere\\SolrSearch\\Fluent\\FluentExtension -->
<g id="node51" class="node">
<title>\\Firesphere\\SolrSearch\\Fluent\\FluentExtension</title>
<polygon fill="none" stroke="#000000" points="731.7549,-624.6265 613.7549,-624.6265 613.7549,-588.6265 731.7549,-588.6265 731.7549,-624.6265"/>
<text text-anchor="middle" x="672.7549" y="-603.8265" font-family="Courier,monospace" font-size="11.00" fill="#000000">FluentExtension</text>
</g>
<!-- \\Firesphere\\SolrSearch\\Fluent\\FluentExtension&#45;&gt;\\SilverStripe\\Core\\Extension -->
<g id="edge22" class="edge">
<title>\\Firesphere\\SolrSearch\\Fluent\\FluentExtension&#45;&gt;\\SilverStripe\\Core\\Extension</title>
<path fill="none" stroke="#000000" d="M613.7264,-600.378C598.2689,-595.9788 582.9559,-588.6753 572.2549,-576.6265 461.725,-452.1749 629.7644,-321.383 508.2549,-207.6265 466.1883,-168.2441 401.3948,-161.8726 347.7627,-165.1534"/>
<polygon fill="none" stroke="#000000" points="347.2589,-161.6808 337.5412,-165.9017 347.7701,-168.6621 347.2589,-161.6808"/>
</g>
<!-- \\Firesphere\\SolrSearch\\Subsites\\SubsitesExtension -->
<g id="node52" class="node">
<title>\\Firesphere\\SolrSearch\\Subsites\\SubsitesExtension</title>
<polygon fill="none" stroke="#000000" points="738.2549,-544.6265 607.2549,-544.6265 607.2549,-508.6265 738.2549,-508.6265 738.2549,-544.6265"/>
<text text-anchor="middle" x="672.7549" y="-523.8265" font-family="Courier,monospace" font-size="11.00" fill="#000000">SubsitesExtension</text>
</g>
<!-- \\Firesphere\\SolrSearch\\Subsites\\SubsitesExtension&#45;&gt;\\SilverStripe\\ORM\\DataExtension -->
<g id="edge23" class="edge">
<title>\\Firesphere\\SolrSearch\\Subsites\\SubsitesExtension&#45;&gt;\\SilverStripe\\ORM\\DataExtension</title>
<path fill="none" stroke="#000000" d="M669.255,-508.5815C653.3631,-428.5881 585.4274,-107.2152 508.2549,-45.6265 471.5859,-16.3623 421.8522,-6.6669 376.1027,-5.3672"/>
<polygon fill="none" stroke="#000000" points="376.1562,-1.8677 366.1032,-5.2123 376.0477,-8.8668 376.1562,-1.8677"/>
</g>
</g>
</svg>
