<?xml version="1.0" encoding="UTF-8" standalone="no"?>
<!DOCTYPE svg PUBLIC "-//W3C//DTD SVG 1.1//EN"
 "http://www.w3.org/Graphics/SVG/1.1/DTD/svg11.dtd">
<!-- Generated by graphviz version 2.40.1 (20161225.0304)
 -->
<!-- Title: G Pages: 1 -->
<svg width="1057pt" height="3721pt"
 viewBox="0.00 0.00 1057.25 3720.92" xmlns="http://www.w3.org/2000/svg" xmlns:xlink="http://www.w3.org/1999/xlink">
<g id="graph0" class="graph" transform="scale(1 1) rotate(0) translate(4 3716.923)">
<title>G</title>
<polygon fill="#ffffff" stroke="transparent" points="-4,4 -4,-3716.923 1053.2549,-3716.923 1053.2549,4 -4,4"/>
<g id="clust1" class="cluster">
<title>cluster_Global</title>
<path fill="none" stroke="#c0c0c0" d="M165.1275,-152.8219C165.1275,-152.8219 1029.2549,-152.8219 1029.2549,-152.8219 1035.2549,-152.8219 1041.2549,-158.8219 1041.2549,-164.8219 1041.2549,-164.8219 1041.2549,-3386.8219 1041.2549,-3386.8219 1041.2549,-3392.8219 1035.2549,-3398.8219 1029.2549,-3398.8219 1029.2549,-3398.8219 165.1275,-3398.8219 165.1275,-3398.8219 159.1275,-3398.8219 153.1275,-3392.8219 153.1275,-3386.8219 153.1275,-3386.8219 153.1275,-164.8219 153.1275,-164.8219 153.1275,-158.8219 159.1275,-152.8219 165.1275,-152.8219"/>
<text text-anchor="middle" x="597.1912" y="-3386.0219" font-family="Times,serif" font-size="11.00" fill="#c0c0c0">Global</text>
</g>
<g id="clust2" class="cluster">
<title>cluster_\SilverStripe</title>
<path fill="none" stroke="#c0c0c0" d="M857.7549,-3056.8219C857.7549,-3056.8219 988.7549,-3056.8219 988.7549,-3056.8219 994.7549,-3056.8219 1000.7549,-3062.8219 1000.7549,-3068.8219 1000.7549,-3068.8219 1000.7549,-3358.8219 1000.7549,-3358.8219 1000.7549,-3364.8219 994.7549,-3370.8219 988.7549,-3370.8219 988.7549,-3370.8219 857.7549,-3370.8219 857.7549,-3370.8219 851.7549,-3370.8219 845.7549,-3364.8219 845.7549,-3358.8219 845.7549,-3358.8219 845.7549,-3068.8219 845.7549,-3068.8219 845.7549,-3062.8219 851.7549,-3056.8219 857.7549,-3056.8219"/>
<text text-anchor="middle" x="923.2549" y="-3358.0219" font-family="Times,serif" font-size="11.00" fill="#c0c0c0">SilverStripe</text>
</g>
<g id="clust3" class="cluster">
<title>cluster_\SilverStripe\FullTextSearch</title>
<path fill="none" stroke="#c0c0c0" d="M865.7549,-3064.8219C865.7549,-3064.8219 980.7549,-3064.8219 980.7549,-3064.8219 986.7549,-3064.8219 992.7549,-3070.8219 992.7549,-3076.8219 992.7549,-3076.8219 992.7549,-3330.8219 992.7549,-3330.8219 992.7549,-3336.8219 986.7549,-3342.8219 980.7549,-3342.8219 980.7549,-3342.8219 865.7549,-3342.8219 865.7549,-3342.8219 859.7549,-3342.8219 853.7549,-3336.8219 853.7549,-3330.8219 853.7549,-3330.8219 853.7549,-3076.8219 853.7549,-3076.8219 853.7549,-3070.8219 859.7549,-3064.8219 865.7549,-3064.8219"/>
<text text-anchor="middle" x="923.2549" y="-3330.0219" font-family="Times,serif" font-size="11.00" fill="#c0c0c0">FullTextSearch</text>
</g>
<g id="clust4" class="cluster">
<title>cluster_\SilverStripe\FullTextSearch\Search</title>
<path fill="none" stroke="#c0c0c0" d="M873.7549,-3206.8219C873.7549,-3206.8219 972.7549,-3206.8219 972.7549,-3206.8219 978.7549,-3206.8219 984.7549,-3212.8219 984.7549,-3218.8219 984.7549,-3218.8219 984.7549,-3302.8219 984.7549,-3302.8219 984.7549,-3308.8219 978.7549,-3314.8219 972.7549,-3314.8219 972.7549,-3314.8219 873.7549,-3314.8219 873.7549,-3314.8219 867.7549,-3314.8219 861.7549,-3308.8219 861.7549,-3302.8219 861.7549,-3302.8219 861.7549,-3218.8219 861.7549,-3218.8219 861.7549,-3212.8219 867.7549,-3206.8219 873.7549,-3206.8219"/>
<text text-anchor="middle" x="923.2549" y="-3302.0219" font-family="Times,serif" font-size="11.00" fill="#c0c0c0">Search</text>
</g>
<g id="clust5" class="cluster">
<title>cluster_\SilverStripe\FullTextSearch\Search\Queries</title>
<path fill="none" stroke="#c0c0c0" d="M881.7549,-3214.8219C881.7549,-3214.8219 964.7549,-3214.8219 964.7549,-3214.8219 970.7549,-3214.8219 976.7549,-3220.8219 976.7549,-3226.8219 976.7549,-3226.8219 976.7549,-3274.8219 976.7549,-3274.8219 976.7549,-3280.8219 970.7549,-3286.8219 964.7549,-3286.8219 964.7549,-3286.8219 881.7549,-3286.8219 881.7549,-3286.8219 875.7549,-3286.8219 869.7549,-3280.8219 869.7549,-3274.8219 869.7549,-3274.8219 869.7549,-3226.8219 869.7549,-3226.8219 869.7549,-3220.8219 875.7549,-3214.8219 881.7549,-3214.8219"/>
<text text-anchor="middle" x="923.2549" y="-3274.0219" font-family="Times,serif" font-size="11.00" fill="#c0c0c0">Queries</text>
</g>
<g id="clust6" class="cluster">
<title>cluster_\SilverStripe\FullTextSearch\Solr</title>
<path fill="none" stroke="#c0c0c0" d="M885.2549,-3072.8219C885.2549,-3072.8219 961.2549,-3072.8219 961.2549,-3072.8219 967.2549,-3072.8219 973.2549,-3078.8219 973.2549,-3084.8219 973.2549,-3084.8219 973.2549,-3186.8219 973.2549,-3186.8219 973.2549,-3192.8219 967.2549,-3198.8219 961.2549,-3198.8219 961.2549,-3198.8219 885.2549,-3198.8219 885.2549,-3198.8219 879.2549,-3198.8219 873.2549,-3192.8219 873.2549,-3186.8219 873.2549,-3186.8219 873.2549,-3084.8219 873.2549,-3084.8219 873.2549,-3078.8219 879.2549,-3072.8219 885.2549,-3072.8219"/>
<text text-anchor="middle" x="923.2549" y="-3186.0219" font-family="Times,serif" font-size="11.00" fill="#c0c0c0">Solr</text>
</g>
<g id="clust7" class="cluster">
<title>cluster_\Firesphere</title>
<path fill="none" stroke="#c0c0c0" d="M173.1275,-160.8219C173.1275,-160.8219 1021.2549,-160.8219 1021.2549,-160.8219 1027.2549,-160.8219 1033.2549,-166.8219 1033.2549,-172.8219 1033.2549,-172.8219 1033.2549,-3036.8219 1033.2549,-3036.8219 1033.2549,-3042.8219 1027.2549,-3048.8219 1021.2549,-3048.8219 1021.2549,-3048.8219 173.1275,-3048.8219 173.1275,-3048.8219 167.1275,-3048.8219 161.1275,-3042.8219 161.1275,-3036.8219 161.1275,-3036.8219 161.1275,-172.8219 161.1275,-172.8219 161.1275,-166.8219 167.1275,-160.8219 173.1275,-160.8219"/>
<text text-anchor="middle" x="597.1912" y="-3036.0219" font-family="Times,serif" font-size="11.00" fill="#c0c0c0">Firesphere</text>
</g>
<g id="clust8" class="cluster">
<title>cluster_\Firesphere\SolrCompatibility</title>
<path fill="none" stroke="#c0c0c0" d="M833.2549,-642.8219C833.2549,-642.8219 1013.2549,-642.8219 1013.2549,-642.8219 1019.2549,-642.8219 1025.2549,-648.8219 1025.2549,-654.8219 1025.2549,-654.8219 1025.2549,-738.8219 1025.2549,-738.8219 1025.2549,-744.8219 1019.2549,-750.8219 1013.2549,-750.8219 1013.2549,-750.8219 833.2549,-750.8219 833.2549,-750.8219 827.2549,-750.8219 821.2549,-744.8219 821.2549,-738.8219 821.2549,-738.8219 821.2549,-654.8219 821.2549,-654.8219 821.2549,-648.8219 827.2549,-642.8219 833.2549,-642.8219"/>
<text text-anchor="middle" x="923.2549" y="-738.0219" font-family="Times,serif" font-size="11.00" fill="#c0c0c0">SolrCompatibility</text>
</g>
<g id="clust9" class="cluster">
<title>cluster_\Firesphere\SolrCompatibility\Extensions</title>
<path fill="none" stroke="#c0c0c0" d="M841.2549,-650.8219C841.2549,-650.8219 1005.2549,-650.8219 1005.2549,-650.8219 1011.2549,-650.8219 1017.2549,-656.8219 1017.2549,-662.8219 1017.2549,-662.8219 1017.2549,-710.8219 1017.2549,-710.8219 1017.2549,-716.8219 1011.2549,-722.8219 1005.2549,-722.8219 1005.2549,-722.8219 841.2549,-722.8219 841.2549,-722.8219 835.2549,-722.8219 829.2549,-716.8219 829.2549,-710.8219 829.2549,-710.8219 829.2549,-662.8219 829.2549,-662.8219 829.2549,-656.8219 835.2549,-650.8219 841.2549,-650.8219"/>
<text text-anchor="middle" x="923.2549" y="-710.0219" font-family="Times,serif" font-size="11.00" fill="#c0c0c0">Extensions</text>
</g>
<g id="clust10" class="cluster">
<title>cluster_\Firesphere\SolrSearch</title>
<path fill="none" stroke="#c0c0c0" d="M181.1275,-172.8219C181.1275,-172.8219 769.2549,-172.8219 769.2549,-172.8219 775.2549,-172.8219 781.2549,-178.8219 781.2549,-184.8219 781.2549,-184.8219 781.2549,-3008.8219 781.2549,-3008.8219 781.2549,-3014.8219 775.2549,-3020.8219 769.2549,-3020.8219 769.2549,-3020.8219 181.1275,-3020.8219 181.1275,-3020.8219 175.1275,-3020.8219 169.1275,-3014.8219 169.1275,-3008.8219 169.1275,-3008.8219 169.1275,-184.8219 169.1275,-184.8219 169.1275,-178.8219 175.1275,-172.8219 181.1275,-172.8219"/>
<text text-anchor="middle" x="475.1912" y="-3008.0219" font-family="Times,serif" font-size="11.00" fill="#c0c0c0">SolrSearch</text>
</g>
<g id="clust11" class="cluster">
<title>cluster_\Firesphere\SolrSearch\Jobs</title>
<path fill="none" stroke="#c0c0c0" d="M600.7549,-2624.8219C600.7549,-2624.8219 744.7549,-2624.8219 744.7549,-2624.8219 750.7549,-2624.8219 756.7549,-2630.8219 756.7549,-2636.8219 756.7549,-2636.8219 756.7549,-2792.8219 756.7549,-2792.8219 756.7549,-2798.8219 750.7549,-2804.8219 744.7549,-2804.8219 744.7549,-2804.8219 600.7549,-2804.8219 600.7549,-2804.8219 594.7549,-2804.8219 588.7549,-2798.8219 588.7549,-2792.8219 588.7549,-2792.8219 588.7549,-2636.8219 588.7549,-2636.8219 588.7549,-2630.8219 594.7549,-2624.8219 600.7549,-2624.8219"/>
<text text-anchor="middle" x="672.7549" y="-2792.0219" font-family="Times,serif" font-size="11.00" fill="#c0c0c0">Jobs</text>
</g>
<g id="clust12" class="cluster">
<title>cluster_\Firesphere\SolrSearch\Models</title>
<path fill="none" stroke="#c0c0c0" d="M624.7549,-2812.8219C624.7549,-2812.8219 720.7549,-2812.8219 720.7549,-2812.8219 726.7549,-2812.8219 732.7549,-2818.8219 732.7549,-2824.8219 732.7549,-2824.8219 732.7549,-2980.8219 732.7549,-2980.8219 732.7549,-2986.8219 726.7549,-2992.8219 720.7549,-2992.8219 720.7549,-2992.8219 624.7549,-2992.8219 624.7549,-2992.8219 618.7549,-2992.8219 612.7549,-2986.8219 612.7549,-2980.8219 612.7549,-2980.8219 612.7549,-2824.8219 612.7549,-2824.8219 612.7549,-2818.8219 618.7549,-2812.8219 624.7549,-2812.8219"/>
<text text-anchor="middle" x="672.7549" y="-2980.0219" font-family="Times,serif" font-size="11.00" fill="#c0c0c0">Models</text>
</g>
<g id="clust13" class="cluster">
<title>cluster_\Firesphere\SolrSearch\Factories</title>
<path fill="none" stroke="#c0c0c0" d="M597.7549,-2490.8219C597.7549,-2490.8219 747.7549,-2490.8219 747.7549,-2490.8219 753.7549,-2490.8219 759.7549,-2496.8219 759.7549,-2502.8219 759.7549,-2502.8219 759.7549,-2604.8219 759.7549,-2604.8219 759.7549,-2610.8219 753.7549,-2616.8219 747.7549,-2616.8219 747.7549,-2616.8219 597.7549,-2616.8219 597.7549,-2616.8219 591.7549,-2616.8219 585.7549,-2610.8219 585.7549,-2604.8219 585.7549,-2604.8219 585.7549,-2502.8219 585.7549,-2502.8219 585.7549,-2496.8219 591.7549,-2490.8219 597.7549,-2490.8219"/>
<text text-anchor="middle" x="672.7549" y="-2604.0219" font-family="Times,serif" font-size="11.00" fill="#c0c0c0">Factories</text>
</g>
<g id="clust14" class="cluster">
<title>cluster_\Firesphere\SolrSearch\Queries</title>
<path fill="none" stroke="#c0c0c0" d="M638.2549,-2410.8219C638.2549,-2410.8219 707.2549,-2410.8219 707.2549,-2410.8219 713.2549,-2410.8219 719.2549,-2416.8219 719.2549,-2422.8219 719.2549,-2422.8219 719.2549,-2470.8219 719.2549,-2470.8219 719.2549,-2476.8219 713.2549,-2482.8219 707.2549,-2482.8219 707.2549,-2482.8219 638.2549,-2482.8219 638.2549,-2482.8219 632.2549,-2482.8219 626.2549,-2476.8219 626.2549,-2470.8219 626.2549,-2470.8219 626.2549,-2422.8219 626.2549,-2422.8219 626.2549,-2416.8219 632.2549,-2410.8219 638.2549,-2410.8219"/>
<text text-anchor="middle" x="672.7549" y="-2470.0219" font-family="Times,serif" font-size="11.00" fill="#c0c0c0">Queries</text>
</g>
<g id="clust15" class="cluster">
<title>cluster_\Firesphere\SolrSearch\Extensions</title>
<path fill="none" stroke="#c0c0c0" d="M604.2549,-2142.8219C604.2549,-2142.8219 741.2549,-2142.8219 741.2549,-2142.8219 747.2549,-2142.8219 753.2549,-2148.8219 753.2549,-2154.8219 753.2549,-2154.8219 753.2549,-2256.8219 753.2549,-2256.8219 753.2549,-2262.8219 747.2549,-2268.8219 741.2549,-2268.8219 741.2549,-2268.8219 604.2549,-2268.8219 604.2549,-2268.8219 598.2549,-2268.8219 592.2549,-2262.8219 592.2549,-2256.8219 592.2549,-2256.8219 592.2549,-2154.8219 592.2549,-2154.8219 592.2549,-2148.8219 598.2549,-2142.8219 604.2549,-2142.8219"/>
<text text-anchor="middle" x="672.7549" y="-2256.0219" font-family="Times,serif" font-size="11.00" fill="#c0c0c0">Extensions</text>
</g>
<g id="clust16" class="cluster">
<title>cluster_\Firesphere\SolrSearch\Services</title>
<path fill="none" stroke="#c0c0c0" d="M617.7549,-2276.8219C617.7549,-2276.8219 727.7549,-2276.8219 727.7549,-2276.8219 733.7549,-2276.8219 739.7549,-2282.8219 739.7549,-2288.8219 739.7549,-2288.8219 739.7549,-2390.8219 739.7549,-2390.8219 739.7549,-2396.8219 733.7549,-2402.8219 727.7549,-2402.8219 727.7549,-2402.8219 617.7549,-2402.8219 617.7549,-2402.8219 611.7549,-2402.8219 605.7549,-2396.8219 605.7549,-2390.8219 605.7549,-2390.8219 605.7549,-2288.8219 605.7549,-2288.8219 605.7549,-2282.8219 611.7549,-2276.8219 617.7549,-2276.8219"/>
<text text-anchor="middle" x="672.7549" y="-2390.0219" font-family="Times,serif" font-size="11.00" fill="#c0c0c0">Services</text>
</g>
<g id="clust17" class="cluster">
<title>cluster_\Firesphere\SolrSearch\Traits</title>
<path fill="none" stroke="#c0c0c0" d="M584.2549,-1252.8219C584.2549,-1252.8219 761.2549,-1252.8219 761.2549,-1252.8219 767.2549,-1252.8219 773.2549,-1258.8219 773.2549,-1264.8219 773.2549,-1264.8219 773.2549,-2122.8219 773.2549,-2122.8219 773.2549,-2128.8219 767.2549,-2134.8219 761.2549,-2134.8219 761.2549,-2134.8219 584.2549,-2134.8219 584.2549,-2134.8219 578.2549,-2134.8219 572.2549,-2128.8219 572.2549,-2122.8219 572.2549,-2122.8219 572.2549,-1264.8219 572.2549,-1264.8219 572.2549,-1258.8219 578.2549,-1252.8219 584.2549,-1252.8219"/>
<text text-anchor="middle" x="672.7549" y="-2122.0219" font-family="Times,serif" font-size="11.00" fill="#c0c0c0">Traits</text>
</g>
<g id="clust18" class="cluster">
<title>cluster_\Firesphere\SolrSearch\Results</title>
<path fill="none" stroke="#c0c0c0" d="M627.7549,-1172.8219C627.7549,-1172.8219 717.7549,-1172.8219 717.7549,-1172.8219 723.7549,-1172.8219 729.7549,-1178.8219 729.7549,-1184.8219 729.7549,-1184.8219 729.7549,-1232.8219 729.7549,-1232.8219 729.7549,-1238.8219 723.7549,-1244.8219 717.7549,-1244.8219 717.7549,-1244.8219 627.7549,-1244.8219 627.7549,-1244.8219 621.7549,-1244.8219 615.7549,-1238.8219 615.7549,-1232.8219 615.7549,-1232.8219 615.7549,-1184.8219 615.7549,-1184.8219 615.7549,-1178.8219 621.7549,-1172.8219 627.7549,-1172.8219"/>
<text text-anchor="middle" x="672.7549" y="-1232.0219" font-family="Times,serif" font-size="11.00" fill="#c0c0c0">Results</text>
</g>
<g id="clust19" class="cluster">
<title>cluster_\Firesphere\SolrSearch\Helpers</title>
<path fill="none" stroke="#c0c0c0" d="M624.7549,-876.8219C624.7549,-876.8219 720.7549,-876.8219 720.7549,-876.8219 726.7549,-876.8219 732.7549,-882.8219 732.7549,-888.8219 732.7549,-888.8219 732.7549,-1152.8219 732.7549,-1152.8219 732.7549,-1158.8219 726.7549,-1164.8219 720.7549,-1164.8219 720.7549,-1164.8219 624.7549,-1164.8219 624.7549,-1164.8219 618.7549,-1164.8219 612.7549,-1158.8219 612.7549,-1152.8219 612.7549,-1152.8219 612.7549,-888.8219 612.7549,-888.8219 612.7549,-882.8219 618.7549,-876.8219 624.7549,-876.8219"/>
<text text-anchor="middle" x="672.7549" y="-1152.0219" font-family="Times,serif" font-size="11.00" fill="#c0c0c0">Helpers</text>
</g>
<g id="clust20" class="cluster">
<title>cluster_\Firesphere\SolrSearch\Stores</title>
<path fill="none" stroke="#c0c0c0" d="M617.7549,-662.8219C617.7549,-662.8219 727.7549,-662.8219 727.7549,-662.8219 733.7549,-662.8219 739.7549,-668.8219 739.7549,-674.8219 739.7549,-674.8219 739.7549,-776.8219 739.7549,-776.8219 739.7549,-782.8219 733.7549,-788.8219 727.7549,-788.8219 727.7549,-788.8219 617.7549,-788.8219 617.7549,-788.8219 611.7549,-788.8219 605.7549,-782.8219 605.7549,-776.8219 605.7549,-776.8219 605.7549,-674.8219 605.7549,-674.8219 605.7549,-668.8219 611.7549,-662.8219 617.7549,-662.8219"/>
<text text-anchor="middle" x="672.7549" y="-776.0219" font-family="Times,serif" font-size="11.00" fill="#c0c0c0">Stores</text>
</g>
<g id="clust21" class="cluster">
<title>cluster_\Firesphere\SolrSearch\Admins</title>
<path fill="none" stroke="#c0c0c0" d="M631.2549,-796.8219C631.2549,-796.8219 714.2549,-796.8219 714.2549,-796.8219 720.2549,-796.8219 726.2549,-802.8219 726.2549,-808.8219 726.2549,-808.8219 726.2549,-856.8219 726.2549,-856.8219 726.2549,-862.8219 720.2549,-868.8219 714.2549,-868.8219 714.2549,-868.8219 631.2549,-868.8219 631.2549,-868.8219 625.2549,-868.8219 619.2549,-862.8219 619.2549,-856.8219 619.2549,-856.8219 619.2549,-808.8219 619.2549,-808.8219 619.2549,-802.8219 625.2549,-796.8219 631.2549,-796.8219"/>
<text text-anchor="middle" x="672.7549" y="-856.0219" font-family="Times,serif" font-size="11.00" fill="#c0c0c0">Admins</text>
</g>
<g id="clust22" class="cluster">
<title>cluster_\Firesphere\SolrSearch\Indexes</title>
<path fill="none" stroke="#c0c0c0" d="M634.7549,-582.8219C634.7549,-582.8219 710.7549,-582.8219 710.7549,-582.8219 716.7549,-582.8219 722.7549,-588.8219 722.7549,-594.8219 722.7549,-594.8219 722.7549,-642.8219 722.7549,-642.8219 722.7549,-648.8219 716.7549,-654.8219 710.7549,-654.8219 710.7549,-654.8219 634.7549,-654.8219 634.7549,-654.8219 628.7549,-654.8219 622.7549,-648.8219 622.7549,-642.8219 622.7549,-642.8219 622.7549,-594.8219 622.7549,-594.8219 622.7549,-588.8219 628.7549,-582.8219 634.7549,-582.8219"/>
<text text-anchor="middle" x="672.7549" y="-642.0219" font-family="Times,serif" font-size="11.00" fill="#c0c0c0">Indexes</text>
</g>
<g id="clust23" class="cluster">
<title>cluster_\Firesphere\SolrSearch\Forms</title>
<path fill="none" stroke="#c0c0c0" d="M634.7549,-502.8219C634.7549,-502.8219 710.7549,-502.8219 710.7549,-502.8219 716.7549,-502.8219 722.7549,-508.8219 722.7549,-514.8219 722.7549,-514.8219 722.7549,-562.8219 722.7549,-562.8219 722.7549,-568.8219 716.7549,-574.8219 710.7549,-574.8219 710.7549,-574.8219 634.7549,-574.8219 634.7549,-574.8219 628.7549,-574.8219 622.7549,-568.8219 622.7549,-562.8219 622.7549,-562.8219 622.7549,-514.8219 622.7549,-514.8219 622.7549,-508.8219 628.7549,-502.8219 634.7549,-502.8219"/>
<text text-anchor="middle" x="672.7549" y="-562.0219" font-family="Times,serif" font-size="11.00" fill="#c0c0c0">Forms</text>
</g>
<g id="clust24" class="cluster">
<title>cluster_\Firesphere\SolrSearch\Tasks</title>
<path fill="none" stroke="#c0c0c0" d="M597.7549,-260.8219C597.7549,-260.8219 747.7549,-260.8219 747.7549,-260.8219 753.7549,-260.8219 759.7549,-266.8219 759.7549,-272.8219 759.7549,-272.8219 759.7549,-482.8219 759.7549,-482.8219 759.7549,-488.8219 753.7549,-494.8219 747.7549,-494.8219 747.7549,-494.8219 597.7549,-494.8219 597.7549,-494.8219 591.7549,-494.8219 585.7549,-488.8219 585.7549,-482.8219 585.7549,-482.8219 585.7549,-272.8219 585.7549,-272.8219 585.7549,-266.8219 591.7549,-260.8219 597.7549,-260.8219"/>
<text text-anchor="middle" x="672.7549" y="-482.0219" font-family="Times,serif" font-size="11.00" fill="#c0c0c0">Tasks</text>
</g>
<g id="clust25" class="cluster">
<title>cluster_\Firesphere\SolrSearch\Interfaces</title>
<path fill="none" stroke="#c0c0c0" d="M189.1275,-608.8219C189.1275,-608.8219 319.1275,-608.8219 319.1275,-608.8219 325.1275,-608.8219 331.1275,-614.8219 331.1275,-620.8219 331.1275,-620.8219 331.1275,-722.8219 331.1275,-722.8219 331.1275,-728.8219 325.1275,-734.8219 319.1275,-734.8219 319.1275,-734.8219 189.1275,-734.8219 189.1275,-734.8219 183.1275,-734.8219 177.1275,-728.8219 177.1275,-722.8219 177.1275,-722.8219 177.1275,-620.8219 177.1275,-620.8219 177.1275,-614.8219 183.1275,-608.8219 189.1275,-608.8219"/>
<text text-anchor="middle" x="254.1275" y="-722.0219" font-family="Times,serif" font-size="11.00" fill="#c0c0c0">Interfaces</text>
</g>
<g id="clust26" class="cluster">
<title>cluster_\Firesphere\SolrSearch\States</title>
<path fill="none" stroke="#c0c0c0" d="M634.7549,-180.8219C634.7549,-180.8219 710.7549,-180.8219 710.7549,-180.8219 716.7549,-180.8219 722.7549,-186.8219 722.7549,-192.8219 722.7549,-192.8219 722.7549,-240.8219 722.7549,-240.8219 722.7549,-246.8219 716.7549,-252.8219 710.7549,-252.8219 710.7549,-252.8219 634.7549,-252.8219 634.7549,-252.8219 628.7549,-252.8219 622.7549,-246.8219 622.7549,-240.8219 622.7549,-240.8219 622.7549,-192.8219 622.7549,-192.8219 622.7549,-186.8219 628.7549,-180.8219 634.7549,-180.8219"/>
<text text-anchor="middle" x="672.7549" y="-240.0219" font-family="Times,serif" font-size="11.00" fill="#c0c0c0">States</text>
</g>
<g id="clust27" class="cluster">
<title>cluster_\Firesphere\SolrFluent</title>
<path fill="none" stroke="#c0c0c0" d="M833.2549,-338.8219C833.2549,-338.8219 1013.2549,-338.8219 1013.2549,-338.8219 1019.2549,-338.8219 1025.2549,-344.8219 1025.2549,-350.8219 1025.2549,-350.8219 1025.2549,-622.8219 1025.2549,-622.8219 1025.2549,-628.8219 1019.2549,-634.8219 1013.2549,-634.8219 1013.2549,-634.8219 833.2549,-634.8219 833.2549,-634.8219 827.2549,-634.8219 821.2549,-628.8219 821.2549,-622.8219 821.2549,-622.8219 821.2549,-350.8219 821.2549,-350.8219 821.2549,-344.8219 827.2549,-338.8219 833.2549,-338.8219"/>
<text text-anchor="middle" x="923.2549" y="-622.0219" font-family="Times,serif" font-size="11.00" fill="#c0c0c0">SolrFluent</text>
</g>
<g id="clust28" class="cluster">
<title>cluster_\Firesphere\SolrFluent\Extensions</title>
<path fill="none" stroke="#c0c0c0" d="M841.2549,-346.8219C841.2549,-346.8219 1005.2549,-346.8219 1005.2549,-346.8219 1011.2549,-346.8219 1017.2549,-352.8219 1017.2549,-358.8219 1017.2549,-358.8219 1017.2549,-514.8219 1017.2549,-514.8219 1017.2549,-520.8219 1011.2549,-526.8219 1005.2549,-526.8219 1005.2549,-526.8219 841.2549,-526.8219 841.2549,-526.8219 835.2549,-526.8219 829.2549,-520.8219 829.2549,-514.8219 829.2549,-514.8219 829.2549,-358.8219 829.2549,-358.8219 829.2549,-352.8219 835.2549,-346.8219 841.2549,-346.8219"/>
<text text-anchor="middle" x="923.2549" y="-514.0219" font-family="Times,serif" font-size="11.00" fill="#c0c0c0">Extensions</text>
</g>
<g id="clust29" class="cluster">
<title>cluster_\Firesphere\SolrFluent\States</title>
<path fill="none" stroke="#c0c0c0" d="M868.2549,-534.8219C868.2549,-534.8219 978.2549,-534.8219 978.2549,-534.8219 984.2549,-534.8219 990.2549,-540.8219 990.2549,-546.8219 990.2549,-546.8219 990.2549,-594.8219 990.2549,-594.8219 990.2549,-600.8219 984.2549,-606.8219 978.2549,-606.8219 978.2549,-606.8219 868.2549,-606.8219 868.2549,-606.8219 862.2549,-606.8219 856.2549,-600.8219 856.2549,-594.8219 856.2549,-594.8219 856.2549,-546.8219 856.2549,-546.8219 856.2549,-540.8219 862.2549,-534.8219 868.2549,-534.8219"/>
<text text-anchor="middle" x="923.2549" y="-594.0219" font-family="Times,serif" font-size="11.00" fill="#c0c0c0">States</text>
</g>
<g id="clust30" class="cluster">
<title>cluster_\Firesphere\SolrSubsites</title>
<path fill="none" stroke="#c0c0c0" d="M853.7549,-758.8219C853.7549,-758.8219 992.7549,-758.8219 992.7549,-758.8219 998.7549,-758.8219 1004.7549,-764.8219 1004.7549,-770.8219 1004.7549,-770.8219 1004.7549,-934.8219 1004.7549,-934.8219 1004.7549,-940.8219 998.7549,-946.8219 992.7549,-946.8219 992.7549,-946.8219 853.7549,-946.8219 853.7549,-946.8219 847.7549,-946.8219 841.7549,-940.8219 841.7549,-934.8219 841.7549,-934.8219 841.7549,-770.8219 841.7549,-770.8219 841.7549,-764.8219 847.7549,-758.8219 853.7549,-758.8219"/>
<text text-anchor="middle" x="923.2549" y="-934.0219" font-family="Times,serif" font-size="11.00" fill="#c0c0c0">SolrSubsites</text>
</g>
<g id="clust31" class="cluster">
<title>cluster_\Firesphere\SolrSubsites\Extensions</title>
<path fill="none" stroke="#c0c0c0" d="M861.7549,-766.8219C861.7549,-766.8219 984.7549,-766.8219 984.7549,-766.8219 990.7549,-766.8219 996.7549,-772.8219 996.7549,-778.8219 996.7549,-778.8219 996.7549,-826.8219 996.7549,-826.8219 996.7549,-832.8219 990.7549,-838.8219 984.7549,-838.8219 984.7549,-838.8219 861.7549,-838.8219 861.7549,-838.8219 855.7549,-838.8219 849.7549,-832.8219 849.7549,-826.8219 849.7549,-826.8219 849.7549,-778.8219 849.7549,-778.8219 849.7549,-772.8219 855.7549,-766.8219 861.7549,-766.8219"/>
<text text-anchor="middle" x="923.2549" y="-826.0219" font-family="Times,serif" font-size="11.00" fill="#c0c0c0">Extensions</text>
</g>
<g id="clust32" class="cluster">
<title>cluster_\Firesphere\SolrSubsites\States</title>
<path fill="none" stroke="#c0c0c0" d="M878.2549,-846.8219C878.2549,-846.8219 968.2549,-846.8219 968.2549,-846.8219 974.2549,-846.8219 980.2549,-852.8219 980.2549,-858.8219 980.2549,-858.8219 980.2549,-906.8219 980.2549,-906.8219 980.2549,-912.8219 974.2549,-918.8219 968.2549,-918.8219 968.2549,-918.8219 878.2549,-918.8219 878.2549,-918.8219 872.2549,-918.8219 866.2549,-912.8219 866.2549,-906.8219 866.2549,-906.8219 866.2549,-858.8219 866.2549,-858.8219 866.2549,-852.8219 872.2549,-846.8219 878.2549,-846.8219"/>
<text text-anchor="middle" x="923.2549" y="-906.0219" font-family="Times,serif" font-size="11.00" fill="#c0c0c0">States</text>
</g>
<g id="clust33" class="cluster">
<title>cluster_\Firesphere\SolrPermissions</title>
<path fill="none" stroke="#c0c0c0" d="M846.7549,-168.8219C846.7549,-168.8219 999.7549,-168.8219 999.7549,-168.8219 1005.7549,-168.8219 1011.7549,-174.8219 1011.7549,-180.8219 1011.7549,-180.8219 1011.7549,-318.8219 1011.7549,-318.8219 1011.7549,-324.8219 1005.7549,-330.8219 999.7549,-330.8219 999.7549,-330.8219 846.7549,-330.8219 846.7549,-330.8219 840.7549,-330.8219 834.7549,-324.8219 834.7549,-318.8219 834.7549,-318.8219 834.7549,-180.8219 834.7549,-180.8219 834.7549,-174.8219 840.7549,-168.8219 846.7549,-168.8219"/>
<text text-anchor="middle" x="923.2549" y="-318.0219" font-family="Times,serif" font-size="11.00" fill="#c0c0c0">SolrPermissions</text>
</g>
<g id="clust34" class="cluster">
<title>cluster_\Firesphere\SolrPermissions\Extensions</title>
<path fill="none" stroke="#c0c0c0" d="M854.7549,-176.8219C854.7549,-176.8219 991.7549,-176.8219 991.7549,-176.8219 997.7549,-176.8219 1003.7549,-182.8219 1003.7549,-188.8219 1003.7549,-188.8219 1003.7549,-290.8219 1003.7549,-290.8219 1003.7549,-296.8219 997.7549,-302.8219 991.7549,-302.8219 991.7549,-302.8219 854.7549,-302.8219 854.7549,-302.8219 848.7549,-302.8219 842.7549,-296.8219 842.7549,-290.8219 842.7549,-290.8219 842.7549,-188.8219 842.7549,-188.8219 842.7549,-182.8219 848.7549,-176.8219 854.7549,-176.8219"/>
<text text-anchor="middle" x="923.2549" y="-290.0219" font-family="Times,serif" font-size="11.00" fill="#c0c0c0">Extensions</text>
</g>
<!-- \\SilverStripe\\FullTextSearch\\Search\\Queries\\SearchQuery -->
<g id="node1" class="node">
<title>\\SilverStripe\\FullTextSearch\\Search\\Queries\\SearchQuery</title>
<polygon fill="none" stroke="#000000" points="968.7549,-3258.8219 877.7549,-3258.8219 877.7549,-3222.8219 968.7549,-3222.8219 968.7549,-3258.8219"/>
<text text-anchor="middle" x="923.2549" y="-3238.0219" font-family="Courier,monospace" font-size="11.00" fill="#000000">SearchQuery</text>
</g>
<!-- \\Firesphere\\SolrSearch\\Queries\\BaseQuery -->
<g id="node13" class="node">
<title>\\Firesphere\\SolrSearch\\Queries\\BaseQuery</title>
<polygon fill="none" stroke="#000000" points="711.2549,-2454.8219 634.2549,-2454.8219 634.2549,-2418.8219 711.2549,-2418.8219 711.2549,-2454.8219"/>
<text text-anchor="middle" x="672.7549" y="-2434.0219" font-family="Courier,monospace" font-size="11.00" fill="#000000">BaseQuery</text>
</g>
<!-- \\SilverStripe\\FullTextSearch\\Search\\Queries\\SearchQuery&#45;&gt;\\Firesphere\\SolrSearch\\Queries\\BaseQuery -->
<g id="edge1" class="edge">
<title>\\SilverStripe\\FullTextSearch\\Search\\Queries\\SearchQuery&#45;&gt;\\Firesphere\\SolrSearch\\Queries\\BaseQuery</title>
<path fill="none" stroke="#000000" d="M877.5589,-3235.1862C856.9943,-3230.1698 834.4259,-3220.6981 821.2549,-3202.8219 726.7276,-3074.5256 870.8924,-2618.5811 781.2549,-2486.8219 767.4339,-2466.5062 743.1689,-2454.2857 721.0862,-2447.0187"/>
<polygon fill="none" stroke="#000000" points="722.052,-2443.6543 711.4669,-2444.1078 720.0244,-2450.3543 722.052,-2443.6543"/>
</g>
<!-- \\SilverStripe\\FullTextSearch\\Solr\\Solr -->
<g id="node2" class="node">
<title>\\SilverStripe\\FullTextSearch\\Solr\\Solr</title>
<polygon fill="none" stroke="#000000" points="950.2549,-3170.8219 896.2549,-3170.8219 896.2549,-3134.8219 950.2549,-3134.8219 950.2549,-3170.8219"/>
<text text-anchor="middle" x="923.2549" y="-3150.0219" font-family="Courier,monospace" font-size="11.00" fill="#000000">Solr</text>
</g>
<!-- \\SilverStripe\\FullTextSearch\\Solr\\SolrIndex -->
<g id="node3" class="node">
<title>\\SilverStripe\\FullTextSearch\\Solr\\SolrIndex</title>
<polygon fill="none" stroke="#000000" points="965.2549,-3116.8219 881.2549,-3116.8219 881.2549,-3080.8219 965.2549,-3080.8219 965.2549,-3116.8219"/>
<text text-anchor="start" x="889.2549" y="-3102.0219" font-family="Courier,monospace" font-size="11.00" fill="#000000">«abstract»</text>
<text text-anchor="start" x="892.7549" y="-3090.0219" font-family="Courier,monospace" font-size="11.00" fill="#000000">SolrIndex</text>
</g>
<!-- \\Firesphere\\SolrSearch\\Indexes\\BaseIndex -->
<g id="node43" class="node">
<title>\\Firesphere\\SolrSearch\\Indexes\\BaseIndex</title>
<polygon fill="none" stroke="#000000" points="714.7549,-626.8219 630.7549,-626.8219 630.7549,-590.8219 714.7549,-590.8219 714.7549,-626.8219"/>
<text text-anchor="start" x="638.7549" y="-612.0219" font-family="Courier,monospace" font-size="11.00" fill="#000000">«abstract»</text>
<text text-anchor="start" x="642.2549" y="-600.0219" font-family="Courier,monospace" font-size="11.00" fill="#000000">BaseIndex</text>
</g>
<!-- \\SilverStripe\\FullTextSearch\\Solr\\SolrIndex&#45;&gt;\\Firesphere\\SolrSearch\\Indexes\\BaseIndex -->
<g id="edge3" class="edge">
<title>\\SilverStripe\\FullTextSearch\\Solr\\SolrIndex&#45;&gt;\\Firesphere\\SolrSearch\\Indexes\\BaseIndex</title>
<path fill="none" stroke="#000000" d="M922.4596,-3080.6581C912.789,-2860.4968 817.5474,-712.0357 781.2549,-658.8219 768.1311,-639.5792 745.6422,-627.5973 724.5301,-620.2089"/>
<polygon fill="none" stroke="#000000" points="725.557,-616.8626 714.9655,-617.1279 723.4107,-623.5255 725.557,-616.8626"/>
</g>
<!-- \\Firesphere\\SolrCompatibility\\Extensions\\FulltextSearchExtension -->
<g id="node4" class="node">
<title>\\Firesphere\\SolrCompatibility\\Extensions\\FulltextSearchExtension</title>
<polygon fill="none" stroke="#000000" points="1009.2549,-694.8219 837.2549,-694.8219 837.2549,-658.8219 1009.2549,-658.8219 1009.2549,-694.8219"/>
<text text-anchor="middle" x="923.2549" y="-674.0219" font-family="Courier,monospace" font-size="11.00" fill="#000000">FulltextSearchExtension</text>
</g>
<!-- \\SilverStripe\\Core\\Extension -->
<g id="node60" class="node">
<title>\\SilverStripe\\Core\\Extension</title>
<ellipse fill="none" stroke="#000000" cx="254.1275" cy="-18.8219" rx="144.0747" ry="18"/>
<text text-anchor="middle" x="254.1275" y="-15.1219" font-family="Times,serif" font-size="14.00" fill="#c0c0c0">\SilverStripe\Core\Extension</text>
</g>
<!-- \\Firesphere\\SolrCompatibility\\Extensions\\FulltextSearchExtension&#45;&gt;\\SilverStripe\\Core\\Extension -->
<g id="edge2" class="edge">
<title>\\Firesphere\\SolrCompatibility\\Extensions\\FulltextSearchExtension&#45;&gt;\\SilverStripe\\Core\\Extension</title>
<path fill="none" stroke="#000000" d="M878.0271,-658.8107C857.1754,-648.084 834.2234,-632.3117 821.2549,-610.8219 718.4263,-440.4272 888.7432,-332.3163 781.2549,-164.8219 751.2581,-118.0792 718.6395,-134.1156 672.7549,-102.8219"/>
</g>
<!-- \\Firesphere\\SolrSearch\\Jobs\\ClearDirtyClassesJob -->
<g id="node5" class="node">
<title>\\Firesphere\\SolrSearch\\Jobs\\ClearDirtyClassesJob</title>
<polygon fill="none" stroke="#000000" points="748.7549,-2776.8219 596.7549,-2776.8219 596.7549,-2740.8219 748.7549,-2740.8219 748.7549,-2776.8219"/>
<text text-anchor="middle" x="672.7549" y="-2756.0219" font-family="Courier,monospace" font-size="11.00" fill="#000000">ClearDirtyClassesJob</text>
</g>
<!-- \\Symbiote\\QueuedJobs\\Services\\AbstractQueuedJob -->
<g id="node61" class="node">
<title>\\Symbiote\\QueuedJobs\\Services\\AbstractQueuedJob</title>
<ellipse fill="none" stroke="#000000" cx="254.1275" cy="-126.8219" rx="254.255" ry="18"/>
<text text-anchor="middle" x="254.1275" y="-123.1219" font-family="Times,serif" font-size="14.00" fill="#c0c0c0">\Symbiote\QueuedJobs\Services\AbstractQueuedJob</text>
</g>
<!-- \\Firesphere\\SolrSearch\\Jobs\\ClearDirtyClassesJob&#45;&gt;\\Symbiote\\QueuedJobs\\Services\\AbstractQueuedJob -->
<g id="edge4" class="edge">
<title>\\Firesphere\\SolrSearch\\Jobs\\ClearDirtyClassesJob&#45;&gt;\\Symbiote\\QueuedJobs\\Services\\AbstractQueuedJob</title>
<path fill="none" stroke="#000000" d="M596.5643,-2749.8831C587.1694,-2745.7174 578.6434,-2739.8987 572.2549,-2731.8219 498.9152,-2639.1003 538.5741,-719.088 508.2549,-604.8219 458.6728,-417.9585 324.6939,-222.7725 273.9607,-153.2872"/>
<polygon fill="none" stroke="#000000" points="276.6643,-151.0557 267.921,-145.0719 271.0244,-155.202 276.6643,-151.0557"/>
</g>
<!-- \\Firesphere\\SolrSearch\\Jobs\\SolrConfigureJob -->
<g id="node6" class="node">
<title>\\Firesphere\\SolrSearch\\Jobs\\SolrConfigureJob</title>
<polygon fill="none" stroke="#000000" points="735.2549,-2722.8219 610.2549,-2722.8219 610.2549,-2686.8219 735.2549,-2686.8219 735.2549,-2722.8219"/>
<text text-anchor="middle" x="672.7549" y="-2702.0219" font-family="Courier,monospace" font-size="11.00" fill="#000000">SolrConfigureJob</text>
</g>
<!-- \\Firesphere\\SolrSearch\\Jobs\\SolrConfigureJob&#45;&gt;\\Symbiote\\QueuedJobs\\Services\\AbstractQueuedJob -->
<g id="edge5" class="edge">
<title>\\Firesphere\\SolrSearch\\Jobs\\SolrConfigureJob&#45;&gt;\\Symbiote\\QueuedJobs\\Services\\AbstractQueuedJob</title>
<path fill="none" stroke="#000000" d="M610.11,-2700.6771C595.5653,-2696.6347 581.6181,-2689.6501 572.2549,-2677.8219 500.7401,-2587.4802 537.8487,-716.1782 508.2549,-604.8219 458.5997,-417.978 324.6652,-222.7801 273.9522,-153.2894"/>
<polygon fill="none" stroke="#000000" points="276.6569,-151.0594 267.915,-145.0735 271.016,-155.2044 276.6569,-151.0594"/>
</g>
<!-- \\Firesphere\\SolrSearch\\Jobs\\SolrIndexJob -->
<g id="node7" class="node">
<title>\\Firesphere\\SolrSearch\\Jobs\\SolrIndexJob</title>
<polygon fill="none" stroke="#000000" points="721.7549,-2668.8219 623.7549,-2668.8219 623.7549,-2632.8219 721.7549,-2632.8219 721.7549,-2668.8219"/>
<text text-anchor="middle" x="672.7549" y="-2648.0219" font-family="Courier,monospace" font-size="11.00" fill="#000000">SolrIndexJob</text>
</g>
<!-- \\Firesphere\\SolrSearch\\Jobs\\SolrIndexJob&#45;&gt;\\Symbiote\\QueuedJobs\\Services\\AbstractQueuedJob -->
<g id="edge6" class="edge">
<title>\\Firesphere\\SolrSearch\\Jobs\\SolrIndexJob&#45;&gt;\\Symbiote\\QueuedJobs\\Services\\AbstractQueuedJob</title>
<path fill="none" stroke="#000000" d="M623.6384,-2648.1129C604.5653,-2644.3912 584.42,-2636.6193 572.2549,-2620.8219 503.8861,-2532.0393 537.083,-713.1067 508.2549,-604.8219 458.5182,-417.9996 324.6332,-222.7886 273.9428,-153.2919"/>
<polygon fill="none" stroke="#000000" points="276.6486,-151.0634 267.9083,-145.0752 271.0067,-155.2069 276.6486,-151.0634"/>
</g>
<!-- \\Firesphere\\SolrSearch\\Models\\SolrLog -->
<g id="node8" class="node">
<title>\\Firesphere\\SolrSearch\\Models\\SolrLog</title>
<polygon fill="none" stroke="#000000" points="704.7549,-2856.8219 640.7549,-2856.8219 640.7549,-2820.8219 704.7549,-2820.8219 704.7549,-2856.8219"/>
<text text-anchor="middle" x="672.7549" y="-2836.0219" font-family="Courier,monospace" font-size="11.00" fill="#000000">SolrLog</text>
</g>
<!-- \\SilverStripe\\ORM\\DataObject -->
<g id="node62" class="node">
<title>\\SilverStripe\\ORM\\DataObject</title>
<ellipse fill="none" stroke="#000000" cx="254.1275" cy="-3694.8219" rx="152.9733" ry="18"/>
<text text-anchor="middle" x="254.1275" y="-3691.1219" font-family="Times,serif" font-size="14.00" fill="#c0c0c0">\SilverStripe\ORM\DataObject</text>
</g>
<!-- \\Firesphere\\SolrSearch\\Models\\SolrLog&#45;&gt;\\SilverStripe\\ORM\\DataObject -->
<g id="edge7" class="edge">
<title>\\Firesphere\\SolrSearch\\Models\\SolrLog&#45;&gt;\\SilverStripe\\ORM\\DataObject</title>
<path fill="none" stroke="#000000" d="M640.4779,-2838.3838C617.7907,-2839.9508 588.6637,-2846.1011 572.2549,-2865.8219 457.9007,-3003.2575 633.0096,-3539.7528 508.2549,-3667.8219 466.5779,-3710.6061 398.4592,-3715.8594 343.2333,-3711.2228"/>
<polygon fill="none" stroke="#000000" points="343.3694,-3707.7199 333.0808,-3710.2488 342.7008,-3714.6879 343.3694,-3707.7199"/>
</g>
<!-- \\SilverStripe\\Security\\PermissionProvider -->
<g id="node63" class="node">
<title>\\SilverStripe\\Security\\PermissionProvider</title>
<ellipse fill="none" stroke="#000000" cx="254.1275" cy="-3640.8219" rx="206.0634" ry="18"/>
<text text-anchor="middle" x="254.1275" y="-3637.1219" font-family="Times,serif" font-size="14.00" fill="#c0c0c0">\SilverStripe\Security\PermissionProvider</text>
</g>
<!-- \\Firesphere\\SolrSearch\\Models\\SolrLog&#45;&gt;\\SilverStripe\\Security\\PermissionProvider -->
<g id="edge8" class="edge">
<title>\\Firesphere\\SolrSearch\\Models\\SolrLog&#45;&gt;\\SilverStripe\\Security\\PermissionProvider</title>
<path fill="none" stroke="#000000" stroke-dasharray="1,5" d="M640.5114,-2838.4118C617.8408,-2839.9927 588.7201,-2846.1482 572.2549,-2865.8219 465.1834,-2993.7586 625.0062,-3494.653 508.2549,-3613.8219 468.876,-3654.0163 406.1429,-3661.0117 352.8606,-3657.8375"/>
<polygon fill="none" stroke="#000000" points="352.9112,-3654.3321 342.6852,-3657.1032 352.4073,-3661.3139 352.9112,-3654.3321"/>
</g>
<!-- \\Firesphere\\SolrSearch\\Models\\DirtyClass -->
<g id="node9" class="node">
<title>\\Firesphere\\SolrSearch\\Models\\DirtyClass</title>
<polygon fill="none" stroke="#000000" points="714.7549,-2910.8219 630.7549,-2910.8219 630.7549,-2874.8219 714.7549,-2874.8219 714.7549,-2910.8219"/>
<text text-anchor="middle" x="672.7549" y="-2890.0219" font-family="Courier,monospace" font-size="11.00" fill="#000000">DirtyClass</text>
</g>
<!-- \\Firesphere\\SolrSearch\\Models\\DirtyClass&#45;&gt;\\SilverStripe\\ORM\\DataObject -->
<g id="edge9" class="edge">
<title>\\Firesphere\\SolrSearch\\Models\\DirtyClass&#45;&gt;\\SilverStripe\\ORM\\DataObject</title>
<path fill="none" stroke="#000000" d="M630.6018,-2893.377C609.8889,-2895.9948 586.401,-2902.9191 572.2549,-2919.8219 465.1834,-3047.7586 625.0062,-3548.653 508.2549,-3667.8219 466.6018,-3710.3376 398.8193,-3715.7089 343.7303,-3711.1902"/>
<polygon fill="none" stroke="#000000" points="343.8846,-3707.6894 333.6009,-3710.2381 343.2294,-3714.6587 343.8846,-3707.6894"/>
</g>
<!-- \\Firesphere\\SolrSearch\\Models\\SearchSynonym -->
<g id="node10" class="node">
<title>\\Firesphere\\SolrSearch\\Models\\SearchSynonym</title>
<polygon fill="none" stroke="#000000" points="724.7549,-2964.8219 620.7549,-2964.8219 620.7549,-2928.8219 724.7549,-2928.8219 724.7549,-2964.8219"/>
<text text-anchor="middle" x="672.7549" y="-2944.0219" font-family="Courier,monospace" font-size="11.00" fill="#000000">SearchSynonym</text>
</g>
<!-- \\Firesphere\\SolrSearch\\Models\\SearchSynonym&#45;&gt;\\SilverStripe\\ORM\\DataObject -->
<g id="edge10" class="edge">
<title>\\Firesphere\\SolrSearch\\Models\\SearchSynonym&#45;&gt;\\SilverStripe\\ORM\\DataObject</title>
<path fill="none" stroke="#000000" d="M671.3994,-2964.9205C663.3653,-3067.0185 618.5358,-3569.8887 508.2549,-3667.8219 467.2787,-3704.2101 406.6849,-3711.7703 354.9426,-3709.8497"/>
<polygon fill="none" stroke="#000000" points="354.8811,-3706.3425 344.7206,-3709.3449 354.5358,-3713.334 354.8811,-3706.3425"/>
</g>
<!-- \\Firesphere\\SolrSearch\\Factories\\DocumentFactory -->
<g id="node11" class="node">
<title>\\Firesphere\\SolrSearch\\Factories\\DocumentFactory</title>
<polygon fill="none" stroke="#000000" points="731.7549,-2588.8219 613.7549,-2588.8219 613.7549,-2552.8219 731.7549,-2552.8219 731.7549,-2588.8219"/>
<text text-anchor="middle" x="672.7549" y="-2568.0219" font-family="Courier,monospace" font-size="11.00" fill="#000000">DocumentFactory</text>
</g>
<!-- \\Firesphere\\SolrSearch\\Factories\\QueryComponentFactory -->
<g id="node12" class="node">
<title>\\Firesphere\\SolrSearch\\Factories\\QueryComponentFactory</title>
<polygon fill="none" stroke="#000000" points="751.7549,-2534.8219 593.7549,-2534.8219 593.7549,-2498.8219 751.7549,-2498.8219 751.7549,-2534.8219"/>
<text text-anchor="middle" x="672.7549" y="-2514.0219" font-family="Courier,monospace" font-size="11.00" fill="#000000">QueryComponentFactory</text>
</g>
<!-- \\Firesphere\\SolrSearch\\Extensions\\GridFieldExtension -->
<g id="node14" class="node">
<title>\\Firesphere\\SolrSearch\\Extensions\\GridFieldExtension</title>
<polygon fill="none" stroke="#000000" points="741.7549,-2186.8219 603.7549,-2186.8219 603.7549,-2150.8219 741.7549,-2150.8219 741.7549,-2186.8219"/>
<text text-anchor="middle" x="672.7549" y="-2166.0219" font-family="Courier,monospace" font-size="11.00" fill="#000000">GridFieldExtension</text>
</g>
<!-- \\Firesphere\\SolrSearch\\Extensions\\GridFieldExtension&#45;&gt;\\SilverStripe\\Core\\Extension -->
<g id="edge11" class="edge">
<title>\\Firesphere\\SolrSearch\\Extensions\\GridFieldExtension&#45;&gt;\\SilverStripe\\Core\\Extension</title>
<path fill="none" stroke="#000000" d="M603.5067,-2160.5196C591.3771,-2155.9405 580.1368,-2149.0695 572.2549,-2138.8219 430.4074,-1954.3986 666.4658,-216.4149 508.2549,-45.8219 466.346,-.6331 395.0948,3.465 338.6837,-2.2396"/>
<polygon fill="none" stroke="#000000" points="338.2375,1.2323 328.6927,-3.3664 339.022,-5.7236 338.2375,1.2323"/>
</g>
<!-- \\Firesphere\\SolrSearch\\Extensions\\DataObjectExtension -->
<g id="node15" class="node">
<title>\\Firesphere\\SolrSearch\\Extensions\\DataObjectExtension</title>
<polygon fill="none" stroke="#000000" points="745.2549,-2240.8219 600.2549,-2240.8219 600.2549,-2204.8219 745.2549,-2204.8219 745.2549,-2240.8219"/>
<text text-anchor="middle" x="672.7549" y="-2220.0219" font-family="Courier,monospace" font-size="11.00" fill="#000000">DataObjectExtension</text>
</g>
<!-- \\SilverStripe\\ORM\\DataExtension -->
<g id="node64" class="node">
<title>\\SilverStripe\\ORM\\DataExtension</title>
<ellipse fill="none" stroke="#000000" cx="254.1275" cy="-72.8219" rx="167.8704" ry="18"/>
<text text-anchor="middle" x="254.1275" y="-69.1219" font-family="Times,serif" font-size="14.00" fill="#c0c0c0">\SilverStripe\ORM\DataExtension</text>
</g>
<!-- \\Firesphere\\SolrSearch\\Extensions\\DataObjectExtension&#45;&gt;\\SilverStripe\\ORM\\DataExtension -->
<g id="edge12" class="edge">
<title>\\Firesphere\\SolrSearch\\Extensions\\DataObjectExtension&#45;&gt;\\SilverStripe\\ORM\\DataExtension</title>
<path fill="none" stroke="#000000" d="M600.066,-2215.3414C589.2988,-2211.1101 579.43,-2204.889 572.2549,-2195.8219 427.6707,-2013.1112 666.6886,-270.6626 508.2549,-99.8219 467.3568,-55.7211 398.5124,-50.7555 342.7874,-55.8442"/>
<polygon fill="none" stroke="#000000" points="342.1313,-52.3933 332.5447,-56.9042 342.8519,-59.3561 342.1313,-52.3933"/>
</g>
<!-- \\Firesphere\\SolrSearch\\Services\\SchemaService -->
<g id="node16" class="node">
<title>\\Firesphere\\SolrSearch\\Services\\SchemaService</title>
<polygon fill="none" stroke="#000000" points="724.7549,-2374.8219 620.7549,-2374.8219 620.7549,-2338.8219 724.7549,-2338.8219 724.7549,-2374.8219"/>
<text text-anchor="middle" x="672.7549" y="-2354.0219" font-family="Courier,monospace" font-size="11.00" fill="#000000">SchemaService</text>
</g>
<!-- \\SilverStripe\\View\\ViewableData -->
<g id="node65" class="node">
<title>\\SilverStripe\\View\\ViewableData</title>
<ellipse fill="none" stroke="#000000" cx="254.1275" cy="-3586.8219" rx="163.2712" ry="18"/>
<text text-anchor="middle" x="254.1275" y="-3583.1219" font-family="Times,serif" font-size="14.00" fill="#c0c0c0">\SilverStripe\View\ViewableData</text>
</g>
<!-- \\Firesphere\\SolrSearch\\Services\\SchemaService&#45;&gt;\\SilverStripe\\View\\ViewableData -->
<g id="edge13" class="edge">
<title>\\Firesphere\\SolrSearch\\Services\\SchemaService&#45;&gt;\\SilverStripe\\View\\ViewableData</title>
<path fill="none" stroke="#000000" d="M620.589,-2370.7586C602.2569,-2378.3588 583.4545,-2389.8131 572.2549,-2406.8219 501.6927,-2513.9853 596.6678,-3466.837 508.2549,-3559.8219 467.0982,-3603.1069 398.9526,-3608.3343 343.5843,-3603.5605"/>
<polygon fill="none" stroke="#000000" points="343.6983,-3600.055 333.4039,-3602.5597 343.0134,-3607.0214 343.6983,-3600.055"/>
</g>
<!-- \\Firesphere\\SolrSearch\\Services\\SolrCoreService -->
<g id="node17" class="node">
<title>\\Firesphere\\SolrSearch\\Services\\SolrCoreService</title>
<polygon fill="none" stroke="#000000" points="731.7549,-2320.8219 613.7549,-2320.8219 613.7549,-2284.8219 731.7549,-2284.8219 731.7549,-2320.8219"/>
<text text-anchor="middle" x="672.7549" y="-2300.0219" font-family="Courier,monospace" font-size="11.00" fill="#000000">SolrCoreService</text>
</g>
<!-- \\Firesphere\\SolrSearch\\Traits\\GetterSetterTrait -->
<g id="node18" class="node">
<title>\\Firesphere\\SolrSearch\\Traits\\GetterSetterTrait</title>
<polygon fill="none" stroke="#000000" points="738.2549,-2106.8219 607.2549,-2106.8219 607.2549,-2070.8219 738.2549,-2070.8219 738.2549,-2106.8219"/>
<text text-anchor="middle" x="672.7549" y="-2086.0219" font-family="Courier,monospace" font-size="11.00" fill="#000000">GetterSetterTrait</text>
</g>
<!-- \\Firesphere\\SolrSearch\\Traits\\BaseQueryTrait -->
<g id="node19" class="node">
<title>\\Firesphere\\SolrSearch\\Traits\\BaseQueryTrait</title>
<polygon fill="none" stroke="#000000" points="728.2549,-2052.8219 617.2549,-2052.8219 617.2549,-2016.8219 728.2549,-2016.8219 728.2549,-2052.8219"/>
<text text-anchor="middle" x="672.7549" y="-2032.0219" font-family="Courier,monospace" font-size="11.00" fill="#000000">BaseQueryTrait</text>
</g>
<!-- \\Firesphere\\SolrSearch\\Traits\\GetSetSearchResolverTrait -->
<g id="node20" class="node">
<title>\\Firesphere\\SolrSearch\\Traits\\GetSetSearchResolverTrait</title>
<polygon fill="none" stroke="#000000" points="765.2549,-1998.8219 580.2549,-1998.8219 580.2549,-1962.8219 765.2549,-1962.8219 765.2549,-1998.8219"/>
<text text-anchor="middle" x="672.7549" y="-1978.0219" font-family="Courier,monospace" font-size="11.00" fill="#000000">GetSetSearchResolverTrait</text>
</g>
<!-- \\Firesphere\\SolrSearch\\Traits\\QueryComponentFacetTrait -->
<g id="node21" class="node">
<title>\\Firesphere\\SolrSearch\\Traits\\QueryComponentFacetTrait</title>
<polygon fill="none" stroke="#000000" points="762.2549,-1944.8219 583.2549,-1944.8219 583.2549,-1908.8219 762.2549,-1908.8219 762.2549,-1944.8219"/>
<text text-anchor="middle" x="672.7549" y="-1924.0219" font-family="Courier,monospace" font-size="11.00" fill="#000000">QueryComponentFacetTrait</text>
</g>
<!-- \\Firesphere\\SolrSearch\\Traits\\QueryComponentBoostTrait -->
<g id="node22" class="node">
<title>\\Firesphere\\SolrSearch\\Traits\\QueryComponentBoostTrait</title>
<polygon fill="none" stroke="#000000" points="762.2549,-1890.8219 583.2549,-1890.8219 583.2549,-1854.8219 762.2549,-1854.8219 762.2549,-1890.8219"/>
<text text-anchor="middle" x="672.7549" y="-1870.0219" font-family="Courier,monospace" font-size="11.00" fill="#000000">QueryComponentBoostTrait</text>
</g>
<!-- \\Firesphere\\SolrSearch\\Traits\\QueryComponentFilterTrait -->
<g id="node23" class="node">
<title>\\Firesphere\\SolrSearch\\Traits\\QueryComponentFilterTrait</title>
<polygon fill="none" stroke="#000000" points="765.2549,-1836.8219 580.2549,-1836.8219 580.2549,-1800.8219 765.2549,-1800.8219 765.2549,-1836.8219"/>
<text text-anchor="middle" x="672.7549" y="-1816.0219" font-family="Courier,monospace" font-size="11.00" fill="#000000">QueryComponentFilterTrait</text>
</g>
<!-- \\Firesphere\\SolrSearch\\Traits\\SearchResultGetTrait -->
<g id="node24" class="node">
<title>\\Firesphere\\SolrSearch\\Traits\\SearchResultGetTrait</title>
<polygon fill="none" stroke="#000000" points="748.7549,-1782.8219 596.7549,-1782.8219 596.7549,-1746.8219 748.7549,-1746.8219 748.7549,-1782.8219"/>
<text text-anchor="middle" x="672.7549" y="-1762.0219" font-family="Courier,monospace" font-size="11.00" fill="#000000">SearchResultGetTrait</text>
</g>
<!-- \\Firesphere\\SolrSearch\\Traits\\SearchResultSetTrait -->
<g id="node25" class="node">
<title>\\Firesphere\\SolrSearch\\Traits\\SearchResultSetTrait</title>
<polygon fill="none" stroke="#000000" points="748.7549,-1728.8219 596.7549,-1728.8219 596.7549,-1692.8219 748.7549,-1692.8219 748.7549,-1728.8219"/>
<text text-anchor="middle" x="672.7549" y="-1708.0219" font-family="Courier,monospace" font-size="11.00" fill="#000000">SearchResultSetTrait</text>
</g>
<!-- \\Firesphere\\SolrSearch\\Traits\\LoggerTrait -->
<g id="node26" class="node">
<title>\\Firesphere\\SolrSearch\\Traits\\LoggerTrait</title>
<polygon fill="none" stroke="#000000" points="718.2549,-1674.8219 627.2549,-1674.8219 627.2549,-1638.8219 718.2549,-1638.8219 718.2549,-1674.8219"/>
<text text-anchor="middle" x="672.7549" y="-1654.0219" font-family="Courier,monospace" font-size="11.00" fill="#000000">LoggerTrait</text>
</g>
<!-- \\Firesphere\\SolrSearch\\Traits\\DocumentFactoryTrait -->
<g id="node27" class="node">
<title>\\Firesphere\\SolrSearch\\Traits\\DocumentFactoryTrait</title>
<polygon fill="none" stroke="#000000" points="748.7549,-1620.8219 596.7549,-1620.8219 596.7549,-1584.8219 748.7549,-1584.8219 748.7549,-1620.8219"/>
<text text-anchor="middle" x="672.7549" y="-1600.0219" font-family="Courier,monospace" font-size="11.00" fill="#000000">DocumentFactoryTrait</text>
</g>
<!-- \\Firesphere\\SolrSearch\\Traits\\GetSetSchemaServiceTrait -->
<g id="node28" class="node">
<title>\\Firesphere\\SolrSearch\\Traits\\GetSetSchemaServiceTrait</title>
<polygon fill="none" stroke="#000000" points="762.2549,-1566.8219 583.2549,-1566.8219 583.2549,-1530.8219 762.2549,-1530.8219 762.2549,-1566.8219"/>
<text text-anchor="middle" x="672.7549" y="-1546.0219" font-family="Courier,monospace" font-size="11.00" fill="#000000">GetSetSchemaServiceTrait</text>
</g>
<!-- \\Firesphere\\SolrSearch\\Traits\\DataResolveTrait -->
<g id="node29" class="node">
<title>\\Firesphere\\SolrSearch\\Traits\\DataResolveTrait</title>
<polygon fill="none" stroke="#000000" points="735.2549,-1512.8219 610.2549,-1512.8219 610.2549,-1476.8219 735.2549,-1476.8219 735.2549,-1512.8219"/>
<text text-anchor="middle" x="672.7549" y="-1492.0219" font-family="Courier,monospace" font-size="11.00" fill="#000000">DataResolveTrait</text>
</g>
<!-- \\Firesphere\\SolrSearch\\Traits\\CoreServiceTrait -->
<g id="node30" class="node">
<title>\\Firesphere\\SolrSearch\\Traits\\CoreServiceTrait</title>
<polygon fill="none" stroke="#000000" points="735.2549,-1458.8219 610.2549,-1458.8219 610.2549,-1422.8219 735.2549,-1422.8219 735.2549,-1458.8219"/>
<text text-anchor="middle" x="672.7549" y="-1438.0219" font-family="Courier,monospace" font-size="11.00" fill="#000000">CoreServiceTrait</text>
</g>
<!-- \\Firesphere\\SolrSearch\\Traits\\CoreAdminTrait -->
<g id="node31" class="node">
<title>\\Firesphere\\SolrSearch\\Traits\\CoreAdminTrait</title>
<polygon fill="none" stroke="#000000" points="728.2549,-1404.8219 617.2549,-1404.8219 617.2549,-1368.8219 728.2549,-1368.8219 728.2549,-1404.8219"/>
<text text-anchor="middle" x="672.7549" y="-1384.0219" font-family="Courier,monospace" font-size="11.00" fill="#000000">CoreAdminTrait</text>
</g>
<!-- \\Firesphere\\SolrSearch\\Traits\\SolrIndexTrait -->
<g id="node32" class="node">
<title>\\Firesphere\\SolrSearch\\Traits\\SolrIndexTrait</title>
<polygon fill="none" stroke="#000000" points="728.2549,-1350.8219 617.2549,-1350.8219 617.2549,-1314.8219 728.2549,-1314.8219 728.2549,-1350.8219"/>
<text text-anchor="middle" x="672.7549" y="-1330.0219" font-family="Courier,monospace" font-size="11.00" fill="#000000">SolrIndexTrait</text>
</g>
<!-- \\Firesphere\\SolrSearch\\Traits\\BaseIndexTrait -->
<g id="node33" class="node">
<title>\\Firesphere\\SolrSearch\\Traits\\BaseIndexTrait</title>
<polygon fill="none" stroke="#000000" points="728.2549,-1296.8219 617.2549,-1296.8219 617.2549,-1260.8219 728.2549,-1260.8219 728.2549,-1296.8219"/>
<text text-anchor="middle" x="672.7549" y="-1276.0219" font-family="Courier,monospace" font-size="11.00" fill="#000000">BaseIndexTrait</text>
</g>
<!-- \\Firesphere\\SolrSearch\\Results\\SearchResult -->
<g id="node34" class="node">
<title>\\Firesphere\\SolrSearch\\Results\\SearchResult</title>
<polygon fill="none" stroke="#000000" points="721.7549,-1216.8219 623.7549,-1216.8219 623.7549,-1180.8219 721.7549,-1180.8219 721.7549,-1216.8219"/>
<text text-anchor="middle" x="672.7549" y="-1196.0219" font-family="Courier,monospace" font-size="11.00" fill="#000000">SearchResult</text>
</g>
<!-- \\Firesphere\\SolrSearch\\Helpers\\Synonyms -->
<g id="node35" class="node">
<title>\\Firesphere\\SolrSearch\\Helpers\\Synonyms</title>
<polygon fill="none" stroke="#000000" points="708.2549,-1136.8219 637.2549,-1136.8219 637.2549,-1100.8219 708.2549,-1100.8219 708.2549,-1136.8219"/>
<text text-anchor="middle" x="672.7549" y="-1116.0219" font-family="Courier,monospace" font-size="11.00" fill="#000000">Synonyms</text>
</g>
<!-- \\Firesphere\\SolrSearch\\Helpers\\SolrLogger -->
<g id="node36" class="node">
<title>\\Firesphere\\SolrSearch\\Helpers\\SolrLogger</title>
<polygon fill="none" stroke="#000000" points="714.7549,-1082.8219 630.7549,-1082.8219 630.7549,-1046.8219 714.7549,-1046.8219 714.7549,-1082.8219"/>
<text text-anchor="middle" x="672.7549" y="-1062.0219" font-family="Courier,monospace" font-size="11.00" fill="#000000">SolrLogger</text>
</g>
<!-- \\Firesphere\\SolrSearch\\Helpers\\DataResolver -->
<g id="node37" class="node">
<title>\\Firesphere\\SolrSearch\\Helpers\\DataResolver</title>
<polygon fill="none" stroke="#000000" points="721.7549,-1028.8219 623.7549,-1028.8219 623.7549,-992.8219 721.7549,-992.8219 721.7549,-1028.8219"/>
<text text-anchor="middle" x="672.7549" y="-1008.0219" font-family="Courier,monospace" font-size="11.00" fill="#000000">DataResolver</text>
</g>
<!-- \\Firesphere\\SolrSearch\\Helpers\\Statics -->
<g id="node38" class="node">
<title>\\Firesphere\\SolrSearch\\Helpers\\Statics</title>
<polygon fill="none" stroke="#000000" points="704.7549,-974.8219 640.7549,-974.8219 640.7549,-938.8219 704.7549,-938.8219 704.7549,-974.8219"/>
<text text-anchor="middle" x="672.7549" y="-954.0219" font-family="Courier,monospace" font-size="11.00" fill="#000000">Statics</text>
</g>
<!-- \\Firesphere\\SolrSearch\\Helpers\\FieldResolver -->
<g id="node39" class="node">
<title>\\Firesphere\\SolrSearch\\Helpers\\FieldResolver</title>
<polygon fill="none" stroke="#000000" points="724.7549,-920.8219 620.7549,-920.8219 620.7549,-884.8219 724.7549,-884.8219 724.7549,-920.8219"/>
<text text-anchor="middle" x="672.7549" y="-900.0219" font-family="Courier,monospace" font-size="11.00" fill="#000000">FieldResolver</text>
</g>
<!-- \\Firesphere\\SolrSearch\\Stores\\FileConfigStore -->
<g id="node40" class="node">
<title>\\Firesphere\\SolrSearch\\Stores\\FileConfigStore</title>
<polygon fill="none" stroke="#000000" points="731.7549,-760.8219 613.7549,-760.8219 613.7549,-724.8219 731.7549,-724.8219 731.7549,-760.8219"/>
<text text-anchor="middle" x="672.7549" y="-740.0219" font-family="Courier,monospace" font-size="11.00" fill="#000000">FileConfigStore</text>
</g>
<!-- \\Firesphere\\SolrSearch\\Interfaces\\ConfigStore -->
<g id="node50" class="node">
<title>\\Firesphere\\SolrSearch\\Interfaces\\ConfigStore</title>
<polygon fill="none" stroke="#000000" points="299.6275,-706.8219 208.6275,-706.8219 208.6275,-670.8219 299.6275,-670.8219 299.6275,-706.8219"/>
<text text-anchor="middle" x="254.1275" y="-686.0219" font-family="Courier,monospace" font-size="11.00" fill="#000000">ConfigStore</text>
</g>
<!-- \\Firesphere\\SolrSearch\\Stores\\FileConfigStore&#45;&gt;\\Firesphere\\SolrSearch\\Interfaces\\ConfigStore -->
<g id="edge14" class="edge">
<title>\\Firesphere\\SolrSearch\\Stores\\FileConfigStore&#45;&gt;\\Firesphere\\SolrSearch\\Interfaces\\ConfigStore</title>
<path fill="none" stroke="#000000" stroke-dasharray="1,5" d="M613.6637,-735.1996C532.8854,-724.7797 389.0185,-706.2219 309.9722,-696.0255"/>
<polygon fill="none" stroke="#000000" points="310.0944,-692.5123 299.7287,-694.7042 309.1988,-699.4548 310.0944,-692.5123"/>
</g>
<!-- \\Firesphere\\SolrSearch\\Stores\\PostConfigStore -->
<g id="node41" class="node">
<title>\\Firesphere\\SolrSearch\\Stores\\PostConfigStore</title>
<polygon fill="none" stroke="#000000" points="731.7549,-706.8219 613.7549,-706.8219 613.7549,-670.8219 731.7549,-670.8219 731.7549,-706.8219"/>
<text text-anchor="middle" x="672.7549" y="-686.0219" font-family="Courier,monospace" font-size="11.00" fill="#000000">PostConfigStore</text>
</g>
<!-- \\Firesphere\\SolrSearch\\Stores\\PostConfigStore&#45;&gt;\\Firesphere\\SolrSearch\\Interfaces\\ConfigStore -->
<g id="edge15" class="edge">
<title>\\Firesphere\\SolrSearch\\Stores\\PostConfigStore&#45;&gt;\\Firesphere\\SolrSearch\\Interfaces\\ConfigStore</title>
<path fill="none" stroke="#000000" stroke-dasharray="1,5" d="M613.6637,-688.8219C532.8854,-688.8219 389.0185,-688.8219 309.9722,-688.8219"/>
<polygon fill="none" stroke="#000000" points="309.7288,-685.322 299.7287,-688.8219 309.7287,-692.322 309.7288,-685.322"/>
</g>
<!-- \\Firesphere\\SolrSearch\\Admins\\SearchAdmin -->
<g id="node42" class="node">
<title>\\Firesphere\\SolrSearch\\Admins\\SearchAdmin</title>
<polygon fill="none" stroke="#000000" points="718.2549,-840.8219 627.2549,-840.8219 627.2549,-804.8219 718.2549,-804.8219 718.2549,-840.8219"/>
<text text-anchor="middle" x="672.7549" y="-820.0219" font-family="Courier,monospace" font-size="11.00" fill="#000000">SearchAdmin</text>
</g>
<!-- \\SilverStripe\\Admin\\ModelAdmin -->
<g id="node66" class="node">
<title>\\SilverStripe\\Admin\\ModelAdmin</title>
<ellipse fill="none" stroke="#000000" cx="254.1275" cy="-3532.8219" rx="165.1707" ry="18"/>
<text text-anchor="middle" x="254.1275" y="-3529.1219" font-family="Times,serif" font-size="14.00" fill="#c0c0c0">\SilverStripe\Admin\ModelAdmin</text>
</g>
<!-- \\Firesphere\\SolrSearch\\Admins\\SearchAdmin&#45;&gt;\\SilverStripe\\Admin\\ModelAdmin -->
<g id="edge16" class="edge">
<title>\\Firesphere\\SolrSearch\\Admins\\SearchAdmin&#45;&gt;\\SilverStripe\\Admin\\ModelAdmin</title>
<path fill="none" stroke="#000000" d="M627.1305,-833.9277C606.7288,-841.3853 584.5483,-853.5033 572.2549,-872.8219 493.6997,-996.2679 607.416,-3398.2259 508.2549,-3505.8219 467.282,-3550.2801 397.9237,-3555.0584 342.0084,-3549.8031"/>
<polygon fill="none" stroke="#000000" points="342.0478,-3546.2877 331.7341,-3548.7124 341.3087,-3553.2486 342.0478,-3546.2877"/>
</g>
<!-- \\Firesphere\\SolrSearch\\Forms\\SearchForm -->
<g id="node44" class="node">
<title>\\Firesphere\\SolrSearch\\Forms\\SearchForm</title>
<polygon fill="none" stroke="#000000" points="714.7549,-546.8219 630.7549,-546.8219 630.7549,-510.8219 714.7549,-510.8219 714.7549,-546.8219"/>
<text text-anchor="middle" x="672.7549" y="-526.0219" font-family="Courier,monospace" font-size="11.00" fill="#000000">SearchForm</text>
</g>
<!-- \\SilverStripe\\Forms\\Form -->
<g id="node67" class="node">
<title>\\SilverStripe\\Forms\\Form</title>
<ellipse fill="none" stroke="#000000" cx="254.1275" cy="-3478.8219" rx="129.1772" ry="18"/>
<text text-anchor="middle" x="254.1275" y="-3475.1219" font-family="Times,serif" font-size="14.00" fill="#c0c0c0">\SilverStripe\Forms\Form</text>
</g>
<!-- \\Firesphere\\SolrSearch\\Forms\\SearchForm&#45;&gt;\\SilverStripe\\Forms\\Form -->
<g id="edge17" class="edge">
<title>\\Firesphere\\SolrSearch\\Forms\\SearchForm&#45;&gt;\\SilverStripe\\Forms\\Form</title>
<path fill="none" stroke="#000000" d="M630.7389,-538.6334C609.3853,-545.9534 585.2599,-558.3392 572.2549,-578.8219 486.6801,-713.6006 616.3304,-3334.3143 508.2549,-3451.8219 465.613,-3498.1853 392.1062,-3501.4276 335.0849,-3495.118"/>
<polygon fill="none" stroke="#000000" points="335.3533,-3491.6248 325.0025,-3493.8854 334.5039,-3498.5731 335.3533,-3491.6248"/>
</g>
<!-- \\Firesphere\\SolrSearch\\Tasks\\SolrConfigureTask -->
<g id="node45" class="node">
<title>\\Firesphere\\SolrSearch\\Tasks\\SolrConfigureTask</title>
<polygon fill="none" stroke="#000000" points="738.2549,-358.8219 607.2549,-358.8219 607.2549,-322.8219 738.2549,-322.8219 738.2549,-358.8219"/>
<text text-anchor="middle" x="672.7549" y="-338.0219" font-family="Courier,monospace" font-size="11.00" fill="#000000">SolrConfigureTask</text>
</g>
<!-- \\SilverStripe\\Dev\\BuildTask -->
<g id="node68" class="node">
<title>\\SilverStripe\\Dev\\BuildTask</title>
<ellipse fill="none" stroke="#000000" cx="254.1275" cy="-3424.8219" rx="139.9756" ry="18"/>
<text text-anchor="middle" x="254.1275" y="-3421.1219" font-family="Times,serif" font-size="14.00" fill="#c0c0c0">\SilverStripe\Dev\BuildTask</text>
</g>
<!-- \\Firesphere\\SolrSearch\\Tasks\\SolrConfigureTask&#45;&gt;\\SilverStripe\\Dev\\BuildTask -->
<g id="edge18" class="edge">
<title>\\Firesphere\\SolrSearch\\Tasks\\SolrConfigureTask&#45;&gt;\\SilverStripe\\Dev\\BuildTask</title>
<path fill="none" stroke="#000000" d="M607.0405,-346.5178C593.8044,-350.6623 581.222,-357.3048 572.2549,-367.8219 520.0505,-429.05 283.6792,-3090.1605 256.648,-3396.226"/>
<polygon fill="none" stroke="#000000" points="253.1354,-3396.2156 255.7425,-3406.4846 260.1083,-3396.8311 253.1354,-3396.2156"/>
</g>
<!-- \\Firesphere\\SolrSearch\\Tasks\\ClearErrorsTask -->
<g id="node46" class="node">
<title>\\Firesphere\\SolrSearch\\Tasks\\ClearErrorsTask</title>
<polygon fill="none" stroke="#000000" points="731.7549,-304.8219 613.7549,-304.8219 613.7549,-268.8219 731.7549,-268.8219 731.7549,-304.8219"/>
<text text-anchor="middle" x="672.7549" y="-284.0219" font-family="Courier,monospace" font-size="11.00" fill="#000000">ClearErrorsTask</text>
</g>
<!-- \\Firesphere\\SolrSearch\\Tasks\\ClearErrorsTask&#45;&gt;\\SilverStripe\\Dev\\BuildTask -->
<g id="edge19" class="edge">
<title>\\Firesphere\\SolrSearch\\Tasks\\ClearErrorsTask&#45;&gt;\\SilverStripe\\Dev\\BuildTask</title>
<path fill="none" stroke="#000000" d="M613.5543,-290.6684C597.9985,-294.5828 582.6763,-301.577 572.2549,-313.8219 519.1666,-376.1994 283.3394,-3087.0256 256.5983,-3396.1975"/>
<polygon fill="none" stroke="#000000" points="253.0777,-3396.2855 255.7034,-3406.5498 260.0517,-3396.8884 253.0777,-3396.2855"/>
</g>
<!-- \\Firesphere\\SolrSearch\\Tasks\\ClearDirtyClassesTask -->
<g id="node47" class="node">
<title>\\Firesphere\\SolrSearch\\Tasks\\ClearDirtyClassesTask</title>
<polygon fill="none" stroke="#000000" points="751.7549,-466.8219 593.7549,-466.8219 593.7549,-430.8219 751.7549,-430.8219 751.7549,-466.8219"/>
<text text-anchor="middle" x="672.7549" y="-446.0219" font-family="Courier,monospace" font-size="11.00" fill="#000000">ClearDirtyClassesTask</text>
</g>
<!-- \\Firesphere\\SolrSearch\\Tasks\\ClearDirtyClassesTask&#45;&gt;\\SilverStripe\\Dev\\BuildTask -->
<g id="edge20" class="edge">
<title>\\Firesphere\\SolrSearch\\Tasks\\ClearDirtyClassesTask&#45;&gt;\\SilverStripe\\Dev\\BuildTask</title>
<path fill="none" stroke="#000000" d="M612.649,-466.8551C597.1712,-474.3311 582.117,-484.6729 572.2549,-498.8219 484.3142,-624.9894 280.3754,-3102.2249 256.435,-3396.3583"/>
<polygon fill="none" stroke="#000000" points="252.9233,-3396.3614 255.6014,-3406.6122 259.9002,-3396.9287 252.9233,-3396.3614"/>
</g>
<!-- \\Firesphere\\SolrSearch\\Tasks\\SolrIndexTask -->
<g id="node48" class="node">
<title>\\Firesphere\\SolrSearch\\Tasks\\SolrIndexTask</title>
<polygon fill="none" stroke="#000000" points="724.7549,-412.8219 620.7549,-412.8219 620.7549,-376.8219 724.7549,-376.8219 724.7549,-412.8219"/>
<text text-anchor="middle" x="672.7549" y="-392.0219" font-family="Courier,monospace" font-size="11.00" fill="#000000">SolrIndexTask</text>
</g>
<!-- \\Firesphere\\SolrSearch\\Tasks\\SolrIndexTask&#45;&gt;\\SilverStripe\\Dev\\BuildTask -->
<g id="edge21" class="edge">
<title>\\Firesphere\\SolrSearch\\Tasks\\SolrIndexTask&#45;&gt;\\SilverStripe\\Dev\\BuildTask</title>
<path fill="none" stroke="#000000" d="M620.6606,-397.1157C602.7903,-400.608 584.2827,-407.7415 572.2549,-421.8219 520.907,-481.9326 283.7777,-3096.068 256.6565,-3396.7307"/>
<polygon fill="none" stroke="#000000" points="253.1601,-3396.5344 255.748,-3406.8083 260.1318,-3397.163 253.1601,-3396.5344"/>
</g>
<!-- \\Firesphere\\SolrSearch\\Interfaces\\SiteStateInterface -->
<g id="node49" class="node">
<title>\\Firesphere\\SolrSearch\\Interfaces\\SiteStateInterface</title>
<polygon fill="none" stroke="#000000" points="323.1275,-652.8219 185.1275,-652.8219 185.1275,-616.8219 323.1275,-616.8219 323.1275,-652.8219"/>
<text text-anchor="middle" x="254.1275" y="-632.0219" font-family="Courier,monospace" font-size="11.00" fill="#000000">SiteStateInterface</text>
</g>
<!-- \\Firesphere\\SolrSearch\\States\\SiteState -->
<g id="node51" class="node">
<title>\\Firesphere\\SolrSearch\\States\\SiteState</title>
<polygon fill="none" stroke="#000000" points="714.7549,-224.8219 630.7549,-224.8219 630.7549,-188.8219 714.7549,-188.8219 714.7549,-224.8219"/>
<text text-anchor="start" x="638.7549" y="-210.0219" font-family="Courier,monospace" font-size="11.00" fill="#000000">«abstract»</text>
<text text-anchor="start" x="642.2549" y="-198.0219" font-family="Courier,monospace" font-size="11.00" fill="#000000">SiteState</text>
</g>
<!-- \\Firesphere\\SolrFluent\\Extensions\\FluentIndexExtension -->
<g id="node52" class="node">
<title>\\Firesphere\\SolrFluent\\Extensions\\FluentIndexExtension</title>
<polygon fill="none" stroke="#000000" points="999.2549,-498.8219 847.2549,-498.8219 847.2549,-462.8219 999.2549,-462.8219 999.2549,-498.8219"/>
<text text-anchor="middle" x="923.2549" y="-478.0219" font-family="Courier,monospace" font-size="11.00" fill="#000000">FluentIndexExtension</text>
</g>
<!-- \\Firesphere\\SolrFluent\\Extensions\\FluentIndexExtension&#45;&gt;\\SilverStripe\\Core\\Extension -->
<g id="edge22" class="edge">
<title>\\Firesphere\\SolrFluent\\Extensions\\FluentIndexExtension&#45;&gt;\\SilverStripe\\Core\\Extension</title>
<path fill="none" stroke="#000000" d="M847.2305,-471.6261C837.3865,-467.5117 828.2987,-461.776 821.2549,-453.8219 735.2882,-356.7459 853.8917,-272.2366 781.2549,-164.8219 750.143,-118.8139 718.6395,-134.1156 672.7549,-102.8219"/>
</g>
<!-- \\Firesphere\\SolrFluent\\Extensions\\FluentDocumentExtension -->
<g id="node53" class="node">
<title>\\Firesphere\\SolrFluent\\Extensions\\FluentDocumentExtension</title>
<polygon fill="none" stroke="#000000" points="1009.2549,-444.8219 837.2549,-444.8219 837.2549,-408.8219 1009.2549,-408.8219 1009.2549,-444.8219"/>
<text text-anchor="middle" x="923.2549" y="-424.0219" font-family="Courier,monospace" font-size="11.00" fill="#000000">FluentDocumentExtension</text>
</g>
<!-- \\Firesphere\\SolrFluent\\Extensions\\FluentDocumentExtension&#45;&gt;\\SilverStripe\\Core\\Extension -->
<g id="edge23" class="edge">
<title>\\Firesphere\\SolrFluent\\Extensions\\FluentDocumentExtension&#45;&gt;\\SilverStripe\\Core\\Extension</title>
<path fill="none" stroke="#000000" d="M837.0682,-412.3365C831.2075,-408.947 825.8266,-404.8256 821.2549,-399.8219 749.792,-321.6059 841.959,-251.6534 781.2549,-164.8219 749.4322,-119.3026 718.6395,-134.1156 672.7549,-102.8219"/>
</g>
<!-- \\Firesphere\\SolrFluent\\Extensions\\FluentSchemaExtension -->
<g id="node54" class="node">
<title>\\Firesphere\\SolrFluent\\Extensions\\FluentSchemaExtension</title>
<polygon fill="none" stroke="#000000" points="1002.2549,-390.8219 844.2549,-390.8219 844.2549,-354.8219 1002.2549,-354.8219 1002.2549,-390.8219"/>
<text text-anchor="middle" x="923.2549" y="-370.0219" font-family="Courier,monospace" font-size="11.00" fill="#000000">FluentSchemaExtension</text>
</g>
<!-- \\Firesphere\\SolrFluent\\Extensions\\FluentSchemaExtension&#45;&gt;\\SilverStripe\\Core\\Extension -->
<g id="edge24" class="edge">
<title>\\Firesphere\\SolrFluent\\Extensions\\FluentSchemaExtension&#45;&gt;\\SilverStripe\\Core\\Extension</title>
<path fill="none" stroke="#000000" d="M881.7382,-354.795C860.8033,-343.7516 836.655,-327.6999 821.2549,-306.8219 782.3337,-254.0563 821.6163,-216.4941 781.2549,-164.8219 747.066,-121.052 718.6395,-134.1156 672.7549,-102.8219"/>
</g>
<!-- \\Firesphere\\SolrFluent\\States\\FluentSiteState -->
<g id="node55" class="node">
<title>\\Firesphere\\SolrFluent\\States\\FluentSiteState</title>
<polygon fill="none" stroke="#000000" points="982.2549,-578.8219 864.2549,-578.8219 864.2549,-542.8219 982.2549,-542.8219 982.2549,-578.8219"/>
<text text-anchor="middle" x="923.2549" y="-558.0219" font-family="Courier,monospace" font-size="11.00" fill="#000000">FluentSiteState</text>
</g>
<!-- \\Firesphere\\SolrFluent\\States\\FluentSiteState&#45;&gt;\\Firesphere\\SolrSearch\\Interfaces\\SiteStateInterface -->
<g id="edge26" class="edge">
<title>\\Firesphere\\SolrFluent\\States\\FluentSiteState&#45;&gt;\\Firesphere\\SolrSearch\\Interfaces\\SiteStateInterface</title>
<path fill="none" stroke="#000000" stroke-dasharray="1,5" d="M864.2214,-555.5285C848.0697,-551.1925 832.0583,-543.6839 821.2549,-530.8219 770.3369,-470.2017 838.5643,-231.4395 781.2549,-176.8219 746.2741,-143.4842 720.522,-177.1272 672.7549,-169.8219"/>
<path fill="none" stroke="#000000" stroke-dasharray="1,5" d="M672.7549,-169.8219C628.4946,-163.053 611.1864,-154.7056 572.2549,-176.8219 394.4767,-277.8148 293.5127,-523.8771 263.6151,-606.9213"/>
<polygon fill="none" stroke="#000000" points="260.2835,-605.8445 260.2446,-616.4393 266.882,-608.1812 260.2835,-605.8445"/>
</g>
<!-- \\Firesphere\\SolrFluent\\States\\FluentSiteState&#45;&gt;\\Firesphere\\SolrSearch\\States\\SiteState -->
<g id="edge25" class="edge">
<title>\\Firesphere\\SolrFluent\\States\\FluentSiteState&#45;&gt;\\Firesphere\\SolrSearch\\States\\SiteState</title>
<path fill="none" stroke="#000000" d="M864.2136,-555.2361C848.1604,-550.8823 832.205,-543.4372 821.2549,-530.8219 740.5826,-437.8818 854.945,-355.3899 781.2549,-256.8219 767.4783,-238.3944 745.268,-226.5485 724.5199,-219.0405"/>
<polygon fill="none" stroke="#000000" points="725.4054,-215.6461 714.8116,-215.7908 723.1834,-222.2841 725.4054,-215.6461"/>
</g>
<!-- \\Firesphere\\SolrSubsites\\Extensions\\SubsitesExtension -->
<g id="node56" class="node">
<title>\\Firesphere\\SolrSubsites\\Extensions\\SubsitesExtension</title>
<polygon fill="none" stroke="#000000" points="988.7549,-810.8219 857.7549,-810.8219 857.7549,-774.8219 988.7549,-774.8219 988.7549,-810.8219"/>
<text text-anchor="middle" x="923.2549" y="-790.0219" font-family="Courier,monospace" font-size="11.00" fill="#000000">SubsitesExtension</text>
</g>
<!-- \\Firesphere\\SolrSubsites\\Extensions\\SubsitesExtension&#45;&gt;\\SilverStripe\\Core\\Extension -->
<g id="edge27" class="edge">
<title>\\Firesphere\\SolrSubsites\\Extensions\\SubsitesExtension&#45;&gt;\\SilverStripe\\Core\\Extension</title>
<path fill="none" stroke="#000000" d="M877.5934,-774.7772C856.7707,-764.0779 833.9716,-748.3393 821.2549,-726.8219 757.5526,-619.0339 847.9054,-270.8123 781.2549,-164.8219 751.6892,-117.8053 718.6395,-134.1156 672.7549,-102.8219"/>
</g>
<!-- \\Firesphere\\SolrSubsites\\States\\SubsiteState -->
<g id="node57" class="node">
<title>\\Firesphere\\SolrSubsites\\States\\SubsiteState</title>
<polygon fill="none" stroke="#000000" points="972.2549,-890.8219 874.2549,-890.8219 874.2549,-854.8219 972.2549,-854.8219 972.2549,-890.8219"/>
<text text-anchor="middle" x="923.2549" y="-870.0219" font-family="Courier,monospace" font-size="11.00" fill="#000000">SubsiteState</text>
</g>
<!-- \\Firesphere\\SolrSubsites\\States\\SubsiteState&#45;&gt;\\Firesphere\\SolrSearch\\Interfaces\\SiteStateInterface -->
<g id="edge29" class="edge">
<title>\\Firesphere\\SolrSubsites\\States\\SubsiteState&#45;&gt;\\Firesphere\\SolrSearch\\Interfaces\\SiteStateInterface</title>
<path fill="none" stroke="#000000" stroke-dasharray="1,5" d="M874.1722,-870.229C854.6995,-866.5502 833.9586,-858.7791 821.2549,-842.8219 728.9086,-726.8255 885.8623,-281.8947 781.2549,-176.8219 747.1617,-142.577 720.522,-177.1272 672.7549,-169.8219"/>
</g>
<!-- \\Firesphere\\SolrSubsites\\States\\SubsiteState&#45;&gt;\\Firesphere\\SolrSearch\\States\\SiteState -->
<g id="edge28" class="edge">
<title>\\Firesphere\\SolrSubsites\\States\\SubsiteState&#45;&gt;\\Firesphere\\SolrSearch\\States\\SiteState</title>
<path fill="none" stroke="#000000" d="M874.2353,-870.1786C854.7734,-866.4911 834.0237,-858.7271 821.2549,-842.8219 739.5424,-741.0383 855.3384,-364.2857 781.2549,-256.8219 768.0348,-237.6452 745.5341,-225.6714 724.4391,-218.2713"/>
<polygon fill="none" stroke="#000000" points="725.4759,-214.9282 714.8842,-215.1837 723.3235,-221.589 725.4759,-214.9282"/>
</g>
<!-- \\Firesphere\\SolrPermissions\\Extensions\\BaseIndexExtension -->
<g id="node58" class="node">
<title>\\Firesphere\\SolrPermissions\\Extensions\\BaseIndexExtension</title>
<polygon fill="none" stroke="#000000" points="992.2549,-220.8219 854.2549,-220.8219 854.2549,-184.8219 992.2549,-184.8219 992.2549,-220.8219"/>
<text text-anchor="middle" x="923.2549" y="-200.0219" font-family="Courier,monospace" font-size="11.00" fill="#000000">BaseIndexExtension</text>
</g>
<!-- \\Firesphere\\SolrPermissions\\Extensions\\BaseIndexExtension&#45;&gt;\\SilverStripe\\Core\\Extension -->
<g id="edge30" class="edge">
<title>\\Firesphere\\SolrPermissions\\Extensions\\BaseIndexExtension&#45;&gt;\\SilverStripe\\Core\\Extension</title>
<path fill="none" stroke="#000000" d="M894.9736,-184.6798C867.0666,-167.515 822.6864,-142.1598 781.2549,-126.8219 734.9389,-109.6758 713.5569,-130.6492 672.7549,-102.8219"/>
<path fill="none" stroke="#000000" d="M672.7549,-102.8219C595.5166,-50.1449 492.774,-28.9838 408.4048,-21.0707"/>
<polygon fill="none" stroke="#000000" points="408.4791,-17.5637 398.2099,-20.1702 407.8631,-24.5366 408.4791,-17.5637"/>
</g>
<!-- \\Firesphere\\SolrPermissions\\Extensions\\DataObjectExtension -->
<g id="node59" class="node">
<title>\\Firesphere\\SolrPermissions\\Extensions\\DataObjectExtension</title>
<polygon fill="none" stroke="#000000" points="995.7549,-274.8219 850.7549,-274.8219 850.7549,-238.8219 995.7549,-238.8219 995.7549,-274.8219"/>
<text text-anchor="middle" x="923.2549" y="-254.0219" font-family="Courier,monospace" font-size="11.00" fill="#000000">DataObjectExtension</text>
</g>
<!-- \\Firesphere\\SolrPermissions\\Extensions\\DataObjectExtension&#45;&gt;\\SilverStripe\\ORM\\DataExtension -->
<g id="edge31" class="edge">
<title>\\Firesphere\\SolrPermissions\\Extensions\\DataObjectExtension&#45;&gt;\\SilverStripe\\ORM\\DataExtension</title>
<path fill="none" stroke="#000000" d="M850.688,-245.0083C840.1962,-241.2588 830.004,-236.3218 821.2549,-229.8219 794.0261,-209.593 808.814,-184.5985 781.2549,-164.8219 703.8221,-109.2555 664.7691,-139.7256 572.2549,-116.8219 543.6866,-109.7493 537.1957,-105.1702 508.2549,-99.8219 473.46,-93.3918 435.681,-88.3476 400.1541,-84.45"/>
<polygon fill="none" stroke="#000000" points="400.5143,-80.9686 390.1977,-83.3808 399.7668,-87.9286 400.5143,-80.9686"/>
</g>
</g>
</svg>
