<?xml version="1.0" encoding="UTF-8" standalone="no"?>
<!DOCTYPE svg PUBLIC "-//W3C//DTD SVG 1.1//EN"
 "http://www.w3.org/Graphics/SVG/1.1/DTD/svg11.dtd">
<!-- Generated by graphviz version 2.40.1 (20161225.0304)
 -->
<!-- Title: G Pages: 1 -->
<svg width="984pt" height="3859pt"
 viewBox="0.00 0.00 984.25 3858.91" xmlns="http://www.w3.org/2000/svg" xmlns:xlink="http://www.w3.org/1999/xlink">
<g id="graph0" class="graph" transform="scale(1 1) rotate(0) translate(4 3854.9142)">
<title>G</title>
<polygon fill="#ffffff" stroke="transparent" points="-4,4 -4,-3854.9142 980.2549,-3854.9142 980.2549,4 -4,4"/>
<g id="clust1" class="cluster">
<title>cluster_Global</title>
<path fill="none" stroke="#c0c0c0" d="M165.1275,-476.9142C165.1275,-476.9142 956.2549,-476.9142 956.2549,-476.9142 962.2549,-476.9142 968.2549,-482.9142 968.2549,-488.9142 968.2549,-488.9142 968.2549,-3830.9142 968.2549,-3830.9142 968.2549,-3836.9142 962.2549,-3842.9142 956.2549,-3842.9142 956.2549,-3842.9142 165.1275,-3842.9142 165.1275,-3842.9142 159.1275,-3842.9142 153.1275,-3836.9142 153.1275,-3830.9142 153.1275,-3830.9142 153.1275,-488.9142 153.1275,-488.9142 153.1275,-482.9142 159.1275,-476.9142 165.1275,-476.9142"/>
<text text-anchor="middle" x="560.6912" y="-3830.1142" font-family="Times,serif" font-size="11.00" fill="#c0c0c0">Global</text>
</g>
<g id="clust2" class="cluster">
<title>cluster_\Firesphere</title>
<path fill="none" stroke="#c0c0c0" d="M173.1275,-484.9142C173.1275,-484.9142 777.2549,-484.9142 777.2549,-484.9142 783.2549,-484.9142 789.2549,-490.9142 789.2549,-496.9142 789.2549,-496.9142 789.2549,-3802.9142 789.2549,-3802.9142 789.2549,-3808.9142 783.2549,-3814.9142 777.2549,-3814.9142 777.2549,-3814.9142 173.1275,-3814.9142 173.1275,-3814.9142 167.1275,-3814.9142 161.1275,-3808.9142 161.1275,-3802.9142 161.1275,-3802.9142 161.1275,-496.9142 161.1275,-496.9142 161.1275,-490.9142 167.1275,-484.9142 173.1275,-484.9142"/>
<text text-anchor="middle" x="475.1912" y="-3802.1142" font-family="Times,serif" font-size="11.00" fill="#c0c0c0">Firesphere</text>
</g>
<g id="clust3" class="cluster">
<title>cluster_\Firesphere\SolrCompatibility</title>
<path fill="none" stroke="#c0c0c0" d="M582.7549,-742.9142C582.7549,-742.9142 762.7549,-742.9142 762.7549,-742.9142 768.7549,-742.9142 774.7549,-748.9142 774.7549,-754.9142 774.7549,-754.9142 774.7549,-838.9142 774.7549,-838.9142 774.7549,-844.9142 768.7549,-850.9142 762.7549,-850.9142 762.7549,-850.9142 582.7549,-850.9142 582.7549,-850.9142 576.7549,-850.9142 570.7549,-844.9142 570.7549,-838.9142 570.7549,-838.9142 570.7549,-754.9142 570.7549,-754.9142 570.7549,-748.9142 576.7549,-742.9142 582.7549,-742.9142"/>
<text text-anchor="middle" x="672.7549" y="-838.1142" font-family="Times,serif" font-size="11.00" fill="#c0c0c0">SolrCompatibility</text>
</g>
<g id="clust4" class="cluster">
<title>cluster_\Firesphere\SolrCompatibility\Extensions</title>
<path fill="none" stroke="#c0c0c0" d="M590.7549,-750.9142C590.7549,-750.9142 754.7549,-750.9142 754.7549,-750.9142 760.7549,-750.9142 766.7549,-756.9142 766.7549,-762.9142 766.7549,-762.9142 766.7549,-810.9142 766.7549,-810.9142 766.7549,-816.9142 760.7549,-822.9142 754.7549,-822.9142 754.7549,-822.9142 590.7549,-822.9142 590.7549,-822.9142 584.7549,-822.9142 578.7549,-816.9142 578.7549,-810.9142 578.7549,-810.9142 578.7549,-762.9142 578.7549,-762.9142 578.7549,-756.9142 584.7549,-750.9142 590.7549,-750.9142"/>
<text text-anchor="middle" x="672.7549" y="-810.1142" font-family="Times,serif" font-size="11.00" fill="#c0c0c0">Extensions</text>
</g>
<g id="clust5" class="cluster">
<title>cluster_\Firesphere\SolrSearch</title>
<path fill="none" stroke="#c0c0c0" d="M181.1275,-858.9142C181.1275,-858.9142 769.2549,-858.9142 769.2549,-858.9142 775.2549,-858.9142 781.2549,-864.9142 781.2549,-870.9142 781.2549,-870.9142 781.2549,-3774.9142 781.2549,-3774.9142 781.2549,-3780.9142 775.2549,-3786.9142 769.2549,-3786.9142 769.2549,-3786.9142 181.1275,-3786.9142 181.1275,-3786.9142 175.1275,-3786.9142 169.1275,-3780.9142 169.1275,-3774.9142 169.1275,-3774.9142 169.1275,-870.9142 169.1275,-870.9142 169.1275,-864.9142 175.1275,-858.9142 181.1275,-858.9142"/>
<text text-anchor="middle" x="475.1912" y="-3774.1142" font-family="Times,serif" font-size="11.00" fill="#c0c0c0">SolrSearch</text>
</g>
<g id="clust6" class="cluster">
<title>cluster_\Firesphere\SolrSearch\Traits</title>
<path fill="none" stroke="#c0c0c0" d="M584.2549,-2876.9142C584.2549,-2876.9142 761.2549,-2876.9142 761.2549,-2876.9142 767.2549,-2876.9142 773.2549,-2882.9142 773.2549,-2888.9142 773.2549,-2888.9142 773.2549,-3746.9142 773.2549,-3746.9142 773.2549,-3752.9142 767.2549,-3758.9142 761.2549,-3758.9142 761.2549,-3758.9142 584.2549,-3758.9142 584.2549,-3758.9142 578.2549,-3758.9142 572.2549,-3752.9142 572.2549,-3746.9142 572.2549,-3746.9142 572.2549,-2888.9142 572.2549,-2888.9142 572.2549,-2882.9142 578.2549,-2876.9142 584.2549,-2876.9142"/>
<text text-anchor="middle" x="672.7549" y="-3746.1142" font-family="Times,serif" font-size="11.00" fill="#c0c0c0">Traits</text>
</g>
<g id="clust7" class="cluster">
<title>cluster_\Firesphere\SolrSearch\States</title>
<path fill="none" stroke="#c0c0c0" d="M634.7549,-2796.9142C634.7549,-2796.9142 710.7549,-2796.9142 710.7549,-2796.9142 716.7549,-2796.9142 722.7549,-2802.9142 722.7549,-2808.9142 722.7549,-2808.9142 722.7549,-2856.9142 722.7549,-2856.9142 722.7549,-2862.9142 716.7549,-2868.9142 710.7549,-2868.9142 710.7549,-2868.9142 634.7549,-2868.9142 634.7549,-2868.9142 628.7549,-2868.9142 622.7549,-2862.9142 622.7549,-2856.9142 622.7549,-2856.9142 622.7549,-2808.9142 622.7549,-2808.9142 622.7549,-2802.9142 628.7549,-2796.9142 634.7549,-2796.9142"/>
<text text-anchor="middle" x="672.7549" y="-2856.1142" font-family="Times,serif" font-size="11.00" fill="#c0c0c0">States</text>
</g>
<g id="clust8" class="cluster">
<title>cluster_\Firesphere\SolrSearch\Extensions</title>
<path fill="none" stroke="#c0c0c0" d="M604.2549,-2662.9142C604.2549,-2662.9142 741.2549,-2662.9142 741.2549,-2662.9142 747.2549,-2662.9142 753.2549,-2668.9142 753.2549,-2674.9142 753.2549,-2674.9142 753.2549,-2776.9142 753.2549,-2776.9142 753.2549,-2782.9142 747.2549,-2788.9142 741.2549,-2788.9142 741.2549,-2788.9142 604.2549,-2788.9142 604.2549,-2788.9142 598.2549,-2788.9142 592.2549,-2782.9142 592.2549,-2776.9142 592.2549,-2776.9142 592.2549,-2674.9142 592.2549,-2674.9142 592.2549,-2668.9142 598.2549,-2662.9142 604.2549,-2662.9142"/>
<text text-anchor="middle" x="672.7549" y="-2776.1142" font-family="Times,serif" font-size="11.00" fill="#c0c0c0">Extensions</text>
</g>
<g id="clust9" class="cluster">
<title>cluster_\Firesphere\SolrSearch\Factories</title>
<path fill="none" stroke="#c0c0c0" d="M597.7549,-2528.9142C597.7549,-2528.9142 747.7549,-2528.9142 747.7549,-2528.9142 753.7549,-2528.9142 759.7549,-2534.9142 759.7549,-2540.9142 759.7549,-2540.9142 759.7549,-2642.9142 759.7549,-2642.9142 759.7549,-2648.9142 753.7549,-2654.9142 747.7549,-2654.9142 747.7549,-2654.9142 597.7549,-2654.9142 597.7549,-2654.9142 591.7549,-2654.9142 585.7549,-2648.9142 585.7549,-2642.9142 585.7549,-2642.9142 585.7549,-2540.9142 585.7549,-2540.9142 585.7549,-2534.9142 591.7549,-2528.9142 597.7549,-2528.9142"/>
<text text-anchor="middle" x="672.7549" y="-2642.1142" font-family="Times,serif" font-size="11.00" fill="#c0c0c0">Factories</text>
</g>
<g id="clust10" class="cluster">
<title>cluster_\Firesphere\SolrSearch\Helpers</title>
<path fill="none" stroke="#c0c0c0" d="M624.7549,-2232.9142C624.7549,-2232.9142 720.7549,-2232.9142 720.7549,-2232.9142 726.7549,-2232.9142 732.7549,-2238.9142 732.7549,-2244.9142 732.7549,-2244.9142 732.7549,-2508.9142 732.7549,-2508.9142 732.7549,-2514.9142 726.7549,-2520.9142 720.7549,-2520.9142 720.7549,-2520.9142 624.7549,-2520.9142 624.7549,-2520.9142 618.7549,-2520.9142 612.7549,-2514.9142 612.7549,-2508.9142 612.7549,-2508.9142 612.7549,-2244.9142 612.7549,-2244.9142 612.7549,-2238.9142 618.7549,-2232.9142 624.7549,-2232.9142"/>
<text text-anchor="middle" x="672.7549" y="-2508.1142" font-family="Times,serif" font-size="11.00" fill="#c0c0c0">Helpers</text>
</g>
<g id="clust11" class="cluster">
<title>cluster_\Firesphere\SolrSearch\Admins</title>
<path fill="none" stroke="#c0c0c0" d="M631.2549,-2152.9142C631.2549,-2152.9142 714.2549,-2152.9142 714.2549,-2152.9142 720.2549,-2152.9142 726.2549,-2158.9142 726.2549,-2164.9142 726.2549,-2164.9142 726.2549,-2212.9142 726.2549,-2212.9142 726.2549,-2218.9142 720.2549,-2224.9142 714.2549,-2224.9142 714.2549,-2224.9142 631.2549,-2224.9142 631.2549,-2224.9142 625.2549,-2224.9142 619.2549,-2218.9142 619.2549,-2212.9142 619.2549,-2212.9142 619.2549,-2164.9142 619.2549,-2164.9142 619.2549,-2158.9142 625.2549,-2152.9142 631.2549,-2152.9142"/>
<text text-anchor="middle" x="672.7549" y="-2212.1142" font-family="Times,serif" font-size="11.00" fill="#c0c0c0">Admins</text>
</g>
<g id="clust12" class="cluster">
<title>cluster_\Firesphere\SolrSearch\Tasks</title>
<path fill="none" stroke="#c0c0c0" d="M597.7549,-1910.9142C597.7549,-1910.9142 747.7549,-1910.9142 747.7549,-1910.9142 753.7549,-1910.9142 759.7549,-1916.9142 759.7549,-1922.9142 759.7549,-1922.9142 759.7549,-2132.9142 759.7549,-2132.9142 759.7549,-2138.9142 753.7549,-2144.9142 747.7549,-2144.9142 747.7549,-2144.9142 597.7549,-2144.9142 597.7549,-2144.9142 591.7549,-2144.9142 585.7549,-2138.9142 585.7549,-2132.9142 585.7549,-2132.9142 585.7549,-1922.9142 585.7549,-1922.9142 585.7549,-1916.9142 591.7549,-1910.9142 597.7549,-1910.9142"/>
<text text-anchor="middle" x="672.7549" y="-2132.1142" font-family="Times,serif" font-size="11.00" fill="#c0c0c0">Tasks</text>
</g>
<g id="clust13" class="cluster">
<title>cluster_\Firesphere\SolrSearch\Forms</title>
<path fill="none" stroke="#c0c0c0" d="M634.7549,-1830.9142C634.7549,-1830.9142 710.7549,-1830.9142 710.7549,-1830.9142 716.7549,-1830.9142 722.7549,-1836.9142 722.7549,-1842.9142 722.7549,-1842.9142 722.7549,-1890.9142 722.7549,-1890.9142 722.7549,-1896.9142 716.7549,-1902.9142 710.7549,-1902.9142 710.7549,-1902.9142 634.7549,-1902.9142 634.7549,-1902.9142 628.7549,-1902.9142 622.7549,-1896.9142 622.7549,-1890.9142 622.7549,-1890.9142 622.7549,-1842.9142 622.7549,-1842.9142 622.7549,-1836.9142 628.7549,-1830.9142 634.7549,-1830.9142"/>
<text text-anchor="middle" x="672.7549" y="-1890.1142" font-family="Times,serif" font-size="11.00" fill="#c0c0c0">Forms</text>
</g>
<g id="clust14" class="cluster">
<title>cluster_\Firesphere\SolrSearch\Interfaces</title>
<path fill="none" stroke="#c0c0c0" d="M189.1275,-1483.9142C189.1275,-1483.9142 319.1275,-1483.9142 319.1275,-1483.9142 325.1275,-1483.9142 331.1275,-1489.9142 331.1275,-1495.9142 331.1275,-1495.9142 331.1275,-1597.9142 331.1275,-1597.9142 331.1275,-1603.9142 325.1275,-1609.9142 319.1275,-1609.9142 319.1275,-1609.9142 189.1275,-1609.9142 189.1275,-1609.9142 183.1275,-1609.9142 177.1275,-1603.9142 177.1275,-1597.9142 177.1275,-1597.9142 177.1275,-1495.9142 177.1275,-1495.9142 177.1275,-1489.9142 183.1275,-1483.9142 189.1275,-1483.9142"/>
<text text-anchor="middle" x="254.1275" y="-1597.1142" font-family="Times,serif" font-size="11.00" fill="#c0c0c0">Interfaces</text>
</g>
<g id="clust15" class="cluster">
<title>cluster_\Firesphere\SolrSearch\Queries</title>
<path fill="none" stroke="#c0c0c0" d="M638.2549,-1750.9142C638.2549,-1750.9142 707.2549,-1750.9142 707.2549,-1750.9142 713.2549,-1750.9142 719.2549,-1756.9142 719.2549,-1762.9142 719.2549,-1762.9142 719.2549,-1810.9142 719.2549,-1810.9142 719.2549,-1816.9142 713.2549,-1822.9142 707.2549,-1822.9142 707.2549,-1822.9142 638.2549,-1822.9142 638.2549,-1822.9142 632.2549,-1822.9142 626.2549,-1816.9142 626.2549,-1810.9142 626.2549,-1810.9142 626.2549,-1762.9142 626.2549,-1762.9142 626.2549,-1756.9142 632.2549,-1750.9142 638.2549,-1750.9142"/>
<text text-anchor="middle" x="672.7549" y="-1810.1142" font-family="Times,serif" font-size="11.00" fill="#c0c0c0">Queries</text>
</g>
<g id="clust16" class="cluster">
<title>cluster_\Firesphere\SolrSearch\Results</title>
<path fill="none" stroke="#c0c0c0" d="M627.7549,-1670.9142C627.7549,-1670.9142 717.7549,-1670.9142 717.7549,-1670.9142 723.7549,-1670.9142 729.7549,-1676.9142 729.7549,-1682.9142 729.7549,-1682.9142 729.7549,-1730.9142 729.7549,-1730.9142 729.7549,-1736.9142 723.7549,-1742.9142 717.7549,-1742.9142 717.7549,-1742.9142 627.7549,-1742.9142 627.7549,-1742.9142 621.7549,-1742.9142 615.7549,-1736.9142 615.7549,-1730.9142 615.7549,-1730.9142 615.7549,-1682.9142 615.7549,-1682.9142 615.7549,-1676.9142 621.7549,-1670.9142 627.7549,-1670.9142"/>
<text text-anchor="middle" x="672.7549" y="-1730.1142" font-family="Times,serif" font-size="11.00" fill="#c0c0c0">Results</text>
</g>
<g id="clust17" class="cluster">
<title>cluster_\Firesphere\SolrSearch\Indexes</title>
<path fill="none" stroke="#c0c0c0" d="M634.7549,-1590.9142C634.7549,-1590.9142 710.7549,-1590.9142 710.7549,-1590.9142 716.7549,-1590.9142 722.7549,-1596.9142 722.7549,-1602.9142 722.7549,-1602.9142 722.7549,-1650.9142 722.7549,-1650.9142 722.7549,-1656.9142 716.7549,-1662.9142 710.7549,-1662.9142 710.7549,-1662.9142 634.7549,-1662.9142 634.7549,-1662.9142 628.7549,-1662.9142 622.7549,-1656.9142 622.7549,-1650.9142 622.7549,-1650.9142 622.7549,-1602.9142 622.7549,-1602.9142 622.7549,-1596.9142 628.7549,-1590.9142 634.7549,-1590.9142"/>
<text text-anchor="middle" x="672.7549" y="-1650.1142" font-family="Times,serif" font-size="11.00" fill="#c0c0c0">Indexes</text>
</g>
<g id="clust18" class="cluster">
<title>cluster_\Firesphere\SolrSearch\Models</title>
<path fill="none" stroke="#c0c0c0" d="M624.7549,-1188.9142C624.7549,-1188.9142 720.7549,-1188.9142 720.7549,-1188.9142 726.7549,-1188.9142 732.7549,-1194.9142 732.7549,-1200.9142 732.7549,-1200.9142 732.7549,-1356.9142 732.7549,-1356.9142 732.7549,-1362.9142 726.7549,-1368.9142 720.7549,-1368.9142 720.7549,-1368.9142 624.7549,-1368.9142 624.7549,-1368.9142 618.7549,-1368.9142 612.7549,-1362.9142 612.7549,-1356.9142 612.7549,-1356.9142 612.7549,-1200.9142 612.7549,-1200.9142 612.7549,-1194.9142 618.7549,-1188.9142 624.7549,-1188.9142"/>
<text text-anchor="middle" x="672.7549" y="-1356.1142" font-family="Times,serif" font-size="11.00" fill="#c0c0c0">Models</text>
</g>
<g id="clust19" class="cluster">
<title>cluster_\Firesphere\SolrSearch\Jobs</title>
<path fill="none" stroke="#c0c0c0" d="M600.7549,-1000.9142C600.7549,-1000.9142 744.7549,-1000.9142 744.7549,-1000.9142 750.7549,-1000.9142 756.7549,-1006.9142 756.7549,-1012.9142 756.7549,-1012.9142 756.7549,-1168.9142 756.7549,-1168.9142 756.7549,-1174.9142 750.7549,-1180.9142 744.7549,-1180.9142 744.7549,-1180.9142 600.7549,-1180.9142 600.7549,-1180.9142 594.7549,-1180.9142 588.7549,-1174.9142 588.7549,-1168.9142 588.7549,-1168.9142 588.7549,-1012.9142 588.7549,-1012.9142 588.7549,-1006.9142 594.7549,-1000.9142 600.7549,-1000.9142"/>
<text text-anchor="middle" x="672.7549" y="-1168.1142" font-family="Times,serif" font-size="11.00" fill="#c0c0c0">Jobs</text>
</g>
<g id="clust20" class="cluster">
<title>cluster_\Firesphere\SolrSearch\Services</title>
<path fill="none" stroke="#c0c0c0" d="M617.7549,-866.9142C617.7549,-866.9142 727.7549,-866.9142 727.7549,-866.9142 733.7549,-866.9142 739.7549,-872.9142 739.7549,-878.9142 739.7549,-878.9142 739.7549,-980.9142 739.7549,-980.9142 739.7549,-986.9142 733.7549,-992.9142 727.7549,-992.9142 727.7549,-992.9142 617.7549,-992.9142 617.7549,-992.9142 611.7549,-992.9142 605.7549,-986.9142 605.7549,-980.9142 605.7549,-980.9142 605.7549,-878.9142 605.7549,-878.9142 605.7549,-872.9142 611.7549,-866.9142 617.7549,-866.9142"/>
<text text-anchor="middle" x="672.7549" y="-980.1142" font-family="Times,serif" font-size="11.00" fill="#c0c0c0">Services</text>
</g>
<g id="clust21" class="cluster">
<title>cluster_\Firesphere\SolrSearch\Stores</title>
<path fill="none" stroke="#c0c0c0" d="M617.7549,-1456.9142C617.7549,-1456.9142 727.7549,-1456.9142 727.7549,-1456.9142 733.7549,-1456.9142 739.7549,-1462.9142 739.7549,-1468.9142 739.7549,-1468.9142 739.7549,-1570.9142 739.7549,-1570.9142 739.7549,-1576.9142 733.7549,-1582.9142 727.7549,-1582.9142 727.7549,-1582.9142 617.7549,-1582.9142 617.7549,-1582.9142 611.7549,-1582.9142 605.7549,-1576.9142 605.7549,-1570.9142 605.7549,-1570.9142 605.7549,-1468.9142 605.7549,-1468.9142 605.7549,-1462.9142 611.7549,-1456.9142 617.7549,-1456.9142"/>
<text text-anchor="middle" x="672.7549" y="-1570.1142" font-family="Times,serif" font-size="11.00" fill="#c0c0c0">Stores</text>
</g>
<g id="clust22" class="cluster">
<title>cluster_\Firesphere\SolrSearch\Subsites</title>
<path fill="none" stroke="#c0c0c0" d="M611.2549,-1376.9142C611.2549,-1376.9142 734.2549,-1376.9142 734.2549,-1376.9142 740.2549,-1376.9142 746.2549,-1382.9142 746.2549,-1388.9142 746.2549,-1388.9142 746.2549,-1436.9142 746.2549,-1436.9142 746.2549,-1442.9142 740.2549,-1448.9142 734.2549,-1448.9142 734.2549,-1448.9142 611.2549,-1448.9142 611.2549,-1448.9142 605.2549,-1448.9142 599.2549,-1442.9142 599.2549,-1436.9142 599.2549,-1436.9142 599.2549,-1388.9142 599.2549,-1388.9142 599.2549,-1382.9142 605.2549,-1376.9142 611.2549,-1376.9142"/>
<text text-anchor="middle" x="672.7549" y="-1436.1142" font-family="Times,serif" font-size="11.00" fill="#c0c0c0">Subsites</text>
</g>
<g id="clust23" class="cluster">
<title>cluster_\Firesphere\SolrFluent</title>
<path fill="none" stroke="#c0c0c0" d="M617.7549,-662.9142C617.7549,-662.9142 727.7549,-662.9142 727.7549,-662.9142 733.7549,-662.9142 739.7549,-668.9142 739.7549,-674.9142 739.7549,-674.9142 739.7549,-722.9142 739.7549,-722.9142 739.7549,-728.9142 733.7549,-734.9142 727.7549,-734.9142 727.7549,-734.9142 617.7549,-734.9142 617.7549,-734.9142 611.7549,-734.9142 605.7549,-728.9142 605.7549,-722.9142 605.7549,-722.9142 605.7549,-674.9142 605.7549,-674.9142 605.7549,-668.9142 611.7549,-662.9142 617.7549,-662.9142"/>
<text text-anchor="middle" x="672.7549" y="-722.1142" font-family="Times,serif" font-size="11.00" fill="#c0c0c0">SolrFluent</text>
</g>
<g id="clust24" class="cluster">
<title>cluster_\Firesphere\SolrPermissions</title>
<path fill="none" stroke="#c0c0c0" d="M596.2549,-492.9142C596.2549,-492.9142 749.2549,-492.9142 749.2549,-492.9142 755.2549,-492.9142 761.2549,-498.9142 761.2549,-504.9142 761.2549,-504.9142 761.2549,-642.9142 761.2549,-642.9142 761.2549,-648.9142 755.2549,-654.9142 749.2549,-654.9142 749.2549,-654.9142 596.2549,-654.9142 596.2549,-654.9142 590.2549,-654.9142 584.2549,-648.9142 584.2549,-642.9142 584.2549,-642.9142 584.2549,-504.9142 584.2549,-504.9142 584.2549,-498.9142 590.2549,-492.9142 596.2549,-492.9142"/>
<text text-anchor="middle" x="672.7549" y="-642.1142" font-family="Times,serif" font-size="11.00" fill="#c0c0c0">SolrPermissions</text>
</g>
<g id="clust25" class="cluster">
<title>cluster_\Firesphere\SolrPermissions\Extensions</title>
<path fill="none" stroke="#c0c0c0" d="M604.2549,-500.9142C604.2549,-500.9142 741.2549,-500.9142 741.2549,-500.9142 747.2549,-500.9142 753.2549,-506.9142 753.2549,-512.9142 753.2549,-512.9142 753.2549,-614.9142 753.2549,-614.9142 753.2549,-620.9142 747.2549,-626.9142 741.2549,-626.9142 741.2549,-626.9142 604.2549,-626.9142 604.2549,-626.9142 598.2549,-626.9142 592.2549,-620.9142 592.2549,-614.9142 592.2549,-614.9142 592.2549,-512.9142 592.2549,-512.9142 592.2549,-506.9142 598.2549,-500.9142 604.2549,-500.9142"/>
<text text-anchor="middle" x="672.7549" y="-614.1142" font-family="Times,serif" font-size="11.00" fill="#c0c0c0">Extensions</text>
</g>
<g id="clust26" class="cluster">
<title>cluster_\SilverStripe</title>
<path fill="none" stroke="#c0c0c0" d="M817.2549,-1583.9142C817.2549,-1583.9142 948.2549,-1583.9142 948.2549,-1583.9142 954.2549,-1583.9142 960.2549,-1589.9142 960.2549,-1595.9142 960.2549,-1595.9142 960.2549,-1885.9142 960.2549,-1885.9142 960.2549,-1891.9142 954.2549,-1897.9142 948.2549,-1897.9142 948.2549,-1897.9142 817.2549,-1897.9142 817.2549,-1897.9142 811.2549,-1897.9142 805.2549,-1891.9142 805.2549,-1885.9142 805.2549,-1885.9142 805.2549,-1595.9142 805.2549,-1595.9142 805.2549,-1589.9142 811.2549,-1583.9142 817.2549,-1583.9142"/>
<text text-anchor="middle" x="882.7549" y="-1885.1142" font-family="Times,serif" font-size="11.00" fill="#c0c0c0">SilverStripe</text>
</g>
<g id="clust27" class="cluster">
<title>cluster_\SilverStripe\FullTextSearch</title>
<path fill="none" stroke="#c0c0c0" d="M825.2549,-1591.9142C825.2549,-1591.9142 940.2549,-1591.9142 940.2549,-1591.9142 946.2549,-1591.9142 952.2549,-1597.9142 952.2549,-1603.9142 952.2549,-1603.9142 952.2549,-1857.9142 952.2549,-1857.9142 952.2549,-1863.9142 946.2549,-1869.9142 940.2549,-1869.9142 940.2549,-1869.9142 825.2549,-1869.9142 825.2549,-1869.9142 819.2549,-1869.9142 813.2549,-1863.9142 813.2549,-1857.9142 813.2549,-1857.9142 813.2549,-1603.9142 813.2549,-1603.9142 813.2549,-1597.9142 819.2549,-1591.9142 825.2549,-1591.9142"/>
<text text-anchor="middle" x="882.7549" y="-1857.1142" font-family="Times,serif" font-size="11.00" fill="#c0c0c0">FullTextSearch</text>
</g>
<g id="clust28" class="cluster">
<title>cluster_\SilverStripe\FullTextSearch\Solr</title>
<path fill="none" stroke="#c0c0c0" d="M844.7549,-1599.9142C844.7549,-1599.9142 920.7549,-1599.9142 920.7549,-1599.9142 926.7549,-1599.9142 932.7549,-1605.9142 932.7549,-1611.9142 932.7549,-1611.9142 932.7549,-1713.9142 932.7549,-1713.9142 932.7549,-1719.9142 926.7549,-1725.9142 920.7549,-1725.9142 920.7549,-1725.9142 844.7549,-1725.9142 844.7549,-1725.9142 838.7549,-1725.9142 832.7549,-1719.9142 832.7549,-1713.9142 832.7549,-1713.9142 832.7549,-1611.9142 832.7549,-1611.9142 832.7549,-1605.9142 838.7549,-1599.9142 844.7549,-1599.9142"/>
<text text-anchor="middle" x="882.7549" y="-1713.1142" font-family="Times,serif" font-size="11.00" fill="#c0c0c0">Solr</text>
</g>
<g id="clust29" class="cluster">
<title>cluster_\SilverStripe\FullTextSearch\Search</title>
<path fill="none" stroke="#c0c0c0" d="M833.2549,-1733.9142C833.2549,-1733.9142 932.2549,-1733.9142 932.2549,-1733.9142 938.2549,-1733.9142 944.2549,-1739.9142 944.2549,-1745.9142 944.2549,-1745.9142 944.2549,-1829.9142 944.2549,-1829.9142 944.2549,-1835.9142 938.2549,-1841.9142 932.2549,-1841.9142 932.2549,-1841.9142 833.2549,-1841.9142 833.2549,-1841.9142 827.2549,-1841.9142 821.2549,-1835.9142 821.2549,-1829.9142 821.2549,-1829.9142 821.2549,-1745.9142 821.2549,-1745.9142 821.2549,-1739.9142 827.2549,-1733.9142 833.2549,-1733.9142"/>
<text text-anchor="middle" x="882.7549" y="-1829.1142" font-family="Times,serif" font-size="11.00" fill="#c0c0c0">Search</text>
</g>
<g id="clust30" class="cluster">
<title>cluster_\SilverStripe\FullTextSearch\Search\Queries</title>
<path fill="none" stroke="#c0c0c0" d="M841.2549,-1741.9142C841.2549,-1741.9142 924.2549,-1741.9142 924.2549,-1741.9142 930.2549,-1741.9142 936.2549,-1747.9142 936.2549,-1753.9142 936.2549,-1753.9142 936.2549,-1801.9142 936.2549,-1801.9142 936.2549,-1807.9142 930.2549,-1813.9142 924.2549,-1813.9142 924.2549,-1813.9142 841.2549,-1813.9142 841.2549,-1813.9142 835.2549,-1813.9142 829.2549,-1807.9142 829.2549,-1801.9142 829.2549,-1801.9142 829.2549,-1753.9142 829.2549,-1753.9142 829.2549,-1747.9142 835.2549,-1741.9142 841.2549,-1741.9142"/>
<text text-anchor="middle" x="882.7549" y="-1801.1142" font-family="Times,serif" font-size="11.00" fill="#c0c0c0">Queries</text>
</g>
<!-- \\Firesphere\\SolrCompatibility\\Extensions\\FulltextSearchExtension -->
<g id="node1" class="node">
<title>\\Firesphere\\SolrCompatibility\\Extensions\\FulltextSearchExtension</title>
<polygon fill="none" stroke="#000000" points="758.7549,-794.9142 586.7549,-794.9142 586.7549,-758.9142 758.7549,-758.9142 758.7549,-794.9142"/>
<text text-anchor="middle" x="672.7549" y="-774.1142" font-family="Courier,monospace" font-size="11.00" fill="#000000">FulltextSearchExtension</text>
</g>
<!-- \\SilverStripe\\Core\\Extension -->
<g id="node56" class="node">
<title>\\SilverStripe\\Core\\Extension</title>
<ellipse fill="none" stroke="#000000" cx="254.1275" cy="-18.9142" rx="144.0747" ry="18"/>
<text text-anchor="middle" x="254.1275" y="-15.2142" font-family="Times,serif" font-size="14.00" fill="#c0c0c0">\SilverStripe\Core\Extension</text>
</g>
<!-- \\Firesphere\\SolrCompatibility\\Extensions\\FulltextSearchExtension&#45;&gt;\\SilverStripe\\Core\\Extension -->
<g id="edge1" class="edge">
<title>\\Firesphere\\SolrCompatibility\\Extensions\\FulltextSearchExtension&#45;&gt;\\SilverStripe\\Core\\Extension</title>
<path fill="none" stroke="#000000" d="M594.5205,-758.7008C585.367,-753.6408 577.062,-747.1754 570.7549,-738.9142 476.9245,-616.0128 616.7184,-156.1167 508.2549,-45.9142 466.1381,-3.1222 397.5354,1.9731 342.218,-2.7315"/>
<polygon fill="none" stroke="#000000" points="341.6685,.7317 332.053,-3.7171 342.3442,-6.2356 341.6685,.7317"/>
</g>
<!-- \\Firesphere\\SolrSearch\\Traits\\DataResolveTrait -->
<g id="node2" class="node">
<title>\\Firesphere\\SolrSearch\\Traits\\DataResolveTrait</title>
<polygon fill="none" stroke="#000000" points="735.2549,-3730.9142 610.2549,-3730.9142 610.2549,-3694.9142 735.2549,-3694.9142 735.2549,-3730.9142"/>
<text text-anchor="middle" x="672.7549" y="-3710.1142" font-family="Courier,monospace" font-size="11.00" fill="#000000">DataResolveTrait</text>
</g>
<!-- \\Firesphere\\SolrSearch\\Traits\\BaseIndexTrait -->
<g id="node3" class="node">
<title>\\Firesphere\\SolrSearch\\Traits\\BaseIndexTrait</title>
<polygon fill="none" stroke="#000000" points="728.2549,-3676.9142 617.2549,-3676.9142 617.2549,-3640.9142 728.2549,-3640.9142 728.2549,-3676.9142"/>
<text text-anchor="middle" x="672.7549" y="-3656.1142" font-family="Courier,monospace" font-size="11.00" fill="#000000">BaseIndexTrait</text>
</g>
<!-- \\Firesphere\\SolrSearch\\Traits\\SolrIndexTrait -->
<g id="node4" class="node">
<title>\\Firesphere\\SolrSearch\\Traits\\SolrIndexTrait</title>
<polygon fill="none" stroke="#000000" points="728.2549,-3622.9142 617.2549,-3622.9142 617.2549,-3586.9142 728.2549,-3586.9142 728.2549,-3622.9142"/>
<text text-anchor="middle" x="672.7549" y="-3602.1142" font-family="Courier,monospace" font-size="11.00" fill="#000000">SolrIndexTrait</text>
</g>
<!-- \\Firesphere\\SolrSearch\\Traits\\DocumentFactoryTrait -->
<g id="node5" class="node">
<title>\\Firesphere\\SolrSearch\\Traits\\DocumentFactoryTrait</title>
<polygon fill="none" stroke="#000000" points="748.7549,-3568.9142 596.7549,-3568.9142 596.7549,-3532.9142 748.7549,-3532.9142 748.7549,-3568.9142"/>
<text text-anchor="middle" x="672.7549" y="-3548.1142" font-family="Courier,monospace" font-size="11.00" fill="#000000">DocumentFactoryTrait</text>
</g>
<!-- \\Firesphere\\SolrSearch\\Traits\\GetSetSchemaServiceTrait -->
<g id="node6" class="node">
<title>\\Firesphere\\SolrSearch\\Traits\\GetSetSchemaServiceTrait</title>
<polygon fill="none" stroke="#000000" points="762.2549,-3514.9142 583.2549,-3514.9142 583.2549,-3478.9142 762.2549,-3478.9142 762.2549,-3514.9142"/>
<text text-anchor="middle" x="672.7549" y="-3494.1142" font-family="Courier,monospace" font-size="11.00" fill="#000000">GetSetSchemaServiceTrait</text>
</g>
<!-- \\Firesphere\\SolrSearch\\Traits\\LoggerTrait -->
<g id="node7" class="node">
<title>\\Firesphere\\SolrSearch\\Traits\\LoggerTrait</title>
<polygon fill="none" stroke="#000000" points="718.2549,-3460.9142 627.2549,-3460.9142 627.2549,-3424.9142 718.2549,-3424.9142 718.2549,-3460.9142"/>
<text text-anchor="middle" x="672.7549" y="-3440.1142" font-family="Courier,monospace" font-size="11.00" fill="#000000">LoggerTrait</text>
</g>
<!-- \\Firesphere\\SolrSearch\\Traits\\SearchResultSetTrait -->
<g id="node8" class="node">
<title>\\Firesphere\\SolrSearch\\Traits\\SearchResultSetTrait</title>
<polygon fill="none" stroke="#000000" points="748.7549,-3406.9142 596.7549,-3406.9142 596.7549,-3370.9142 748.7549,-3370.9142 748.7549,-3406.9142"/>
<text text-anchor="middle" x="672.7549" y="-3386.1142" font-family="Courier,monospace" font-size="11.00" fill="#000000">SearchResultSetTrait</text>
</g>
<!-- \\Firesphere\\SolrSearch\\Traits\\SearchResultGetTrait -->
<g id="node9" class="node">
<title>\\Firesphere\\SolrSearch\\Traits\\SearchResultGetTrait</title>
<polygon fill="none" stroke="#000000" points="748.7549,-3352.9142 596.7549,-3352.9142 596.7549,-3316.9142 748.7549,-3316.9142 748.7549,-3352.9142"/>
<text text-anchor="middle" x="672.7549" y="-3332.1142" font-family="Courier,monospace" font-size="11.00" fill="#000000">SearchResultGetTrait</text>
</g>
<!-- \\Firesphere\\SolrSearch\\Traits\\CoreServiceTrait -->
<g id="node10" class="node">
<title>\\Firesphere\\SolrSearch\\Traits\\CoreServiceTrait</title>
<polygon fill="none" stroke="#000000" points="735.2549,-3298.9142 610.2549,-3298.9142 610.2549,-3262.9142 735.2549,-3262.9142 735.2549,-3298.9142"/>
<text text-anchor="middle" x="672.7549" y="-3278.1142" font-family="Courier,monospace" font-size="11.00" fill="#000000">CoreServiceTrait</text>
</g>
<!-- \\Firesphere\\SolrSearch\\Traits\\CoreAdminTrait -->
<g id="node11" class="node">
<title>\\Firesphere\\SolrSearch\\Traits\\CoreAdminTrait</title>
<polygon fill="none" stroke="#000000" points="728.2549,-3244.9142 617.2549,-3244.9142 617.2549,-3208.9142 728.2549,-3208.9142 728.2549,-3244.9142"/>
<text text-anchor="middle" x="672.7549" y="-3224.1142" font-family="Courier,monospace" font-size="11.00" fill="#000000">CoreAdminTrait</text>
</g>
<!-- \\Firesphere\\SolrSearch\\Traits\\BaseQueryTrait -->
<g id="node12" class="node">
<title>\\Firesphere\\SolrSearch\\Traits\\BaseQueryTrait</title>
<polygon fill="none" stroke="#000000" points="728.2549,-3190.9142 617.2549,-3190.9142 617.2549,-3154.9142 728.2549,-3154.9142 728.2549,-3190.9142"/>
<text text-anchor="middle" x="672.7549" y="-3170.1142" font-family="Courier,monospace" font-size="11.00" fill="#000000">BaseQueryTrait</text>
</g>
<!-- \\Firesphere\\SolrSearch\\Traits\\QueryComponentBoostTrait -->
<g id="node13" class="node">
<title>\\Firesphere\\SolrSearch\\Traits\\QueryComponentBoostTrait</title>
<polygon fill="none" stroke="#000000" points="762.2549,-3136.9142 583.2549,-3136.9142 583.2549,-3100.9142 762.2549,-3100.9142 762.2549,-3136.9142"/>
<text text-anchor="middle" x="672.7549" y="-3116.1142" font-family="Courier,monospace" font-size="11.00" fill="#000000">QueryComponentBoostTrait</text>
</g>
<!-- \\Firesphere\\SolrSearch\\Traits\\QueryComponentFacetTrait -->
<g id="node14" class="node">
<title>\\Firesphere\\SolrSearch\\Traits\\QueryComponentFacetTrait</title>
<polygon fill="none" stroke="#000000" points="762.2549,-3082.9142 583.2549,-3082.9142 583.2549,-3046.9142 762.2549,-3046.9142 762.2549,-3082.9142"/>
<text text-anchor="middle" x="672.7549" y="-3062.1142" font-family="Courier,monospace" font-size="11.00" fill="#000000">QueryComponentFacetTrait</text>
</g>
<!-- \\Firesphere\\SolrSearch\\Traits\\QueryComponentFilterTrait -->
<g id="node15" class="node">
<title>\\Firesphere\\SolrSearch\\Traits\\QueryComponentFilterTrait</title>
<polygon fill="none" stroke="#000000" points="765.2549,-3028.9142 580.2549,-3028.9142 580.2549,-2992.9142 765.2549,-2992.9142 765.2549,-3028.9142"/>
<text text-anchor="middle" x="672.7549" y="-3008.1142" font-family="Courier,monospace" font-size="11.00" fill="#000000">QueryComponentFilterTrait</text>
</g>
<!-- \\Firesphere\\SolrSearch\\Traits\\GetterSetterTrait -->
<g id="node16" class="node">
<title>\\Firesphere\\SolrSearch\\Traits\\GetterSetterTrait</title>
<polygon fill="none" stroke="#000000" points="738.2549,-2974.9142 607.2549,-2974.9142 607.2549,-2938.9142 738.2549,-2938.9142 738.2549,-2974.9142"/>
<text text-anchor="middle" x="672.7549" y="-2954.1142" font-family="Courier,monospace" font-size="11.00" fill="#000000">GetterSetterTrait</text>
</g>
<!-- \\Firesphere\\SolrSearch\\Traits\\GetSetSearchResolverTrait -->
<g id="node17" class="node">
<title>\\Firesphere\\SolrSearch\\Traits\\GetSetSearchResolverTrait</title>
<polygon fill="none" stroke="#000000" points="765.2549,-2920.9142 580.2549,-2920.9142 580.2549,-2884.9142 765.2549,-2884.9142 765.2549,-2920.9142"/>
<text text-anchor="middle" x="672.7549" y="-2900.1142" font-family="Courier,monospace" font-size="11.00" fill="#000000">GetSetSearchResolverTrait</text>
</g>
<!-- \\Firesphere\\SolrSearch\\States\\SiteState -->
<g id="node18" class="node">
<title>\\Firesphere\\SolrSearch\\States\\SiteState</title>
<polygon fill="none" stroke="#000000" points="714.7549,-2840.9142 630.7549,-2840.9142 630.7549,-2804.9142 714.7549,-2804.9142 714.7549,-2840.9142"/>
<text text-anchor="start" x="638.7549" y="-2826.1142" font-family="Courier,monospace" font-size="11.00" fill="#000000">«abstract»</text>
<text text-anchor="start" x="642.2549" y="-2814.1142" font-family="Courier,monospace" font-size="11.00" fill="#000000">SiteState</text>
</g>
<!-- \\Firesphere\\SolrSearch\\Extensions\\GridFieldExtension -->
<g id="node19" class="node">
<title>\\Firesphere\\SolrSearch\\Extensions\\GridFieldExtension</title>
<polygon fill="none" stroke="#000000" points="741.7549,-2706.9142 603.7549,-2706.9142 603.7549,-2670.9142 741.7549,-2670.9142 741.7549,-2706.9142"/>
<text text-anchor="middle" x="672.7549" y="-2686.1142" font-family="Courier,monospace" font-size="11.00" fill="#000000">GridFieldExtension</text>
</g>
<!-- \\Firesphere\\SolrSearch\\Extensions\\GridFieldExtension&#45;&gt;\\SilverStripe\\Core\\Extension -->
<g id="edge4" class="edge">
<title>\\Firesphere\\SolrSearch\\Extensions\\GridFieldExtension&#45;&gt;\\SilverStripe\\Core\\Extension</title>
<path fill="none" stroke="#000000" d="M603.7402,-2681.3254C590.9359,-2676.7354 579.0121,-2669.679 570.7549,-2658.9142 482.3772,-2543.6979 606.6412,-152.711 508.2549,-45.9142 466.3548,-.4324 394.7482,3.5273 338.2036,-2.3035"/>
<polygon fill="none" stroke="#000000" points="337.7268,1.1649 328.1912,-3.4527 338.5251,-5.7895 337.7268,1.1649"/>
</g>
<!-- \\Firesphere\\SolrSearch\\Extensions\\DataObjectExtension -->
<g id="node20" class="node">
<title>\\Firesphere\\SolrSearch\\Extensions\\DataObjectExtension</title>
<polygon fill="none" stroke="#000000" points="745.2549,-2760.9142 600.2549,-2760.9142 600.2549,-2724.9142 745.2549,-2724.9142 745.2549,-2760.9142"/>
<text text-anchor="middle" x="672.7549" y="-2740.1142" font-family="Courier,monospace" font-size="11.00" fill="#000000">DataObjectExtension</text>
</g>
<!-- \\SilverStripe\\ORM\\DataExtension -->
<g id="node57" class="node">
<title>\\SilverStripe\\ORM\\DataExtension</title>
<ellipse fill="none" stroke="#000000" cx="254.1275" cy="-288.9142" rx="167.8704" ry="18"/>
<text text-anchor="middle" x="254.1275" y="-285.2142" font-family="Times,serif" font-size="14.00" fill="#c0c0c0">\SilverStripe\ORM\DataExtension</text>
</g>
<!-- \\Firesphere\\SolrSearch\\Extensions\\DataObjectExtension&#45;&gt;\\SilverStripe\\ORM\\DataExtension -->
<g id="edge5" class="edge">
<title>\\Firesphere\\SolrSearch\\Extensions\\DataObjectExtension&#45;&gt;\\SilverStripe\\ORM\\DataExtension</title>
<path fill="none" stroke="#000000" d="M600.2472,-2736.1412C588.8232,-2731.8828 578.3103,-2725.4698 570.7549,-2715.9142 488.0301,-2611.289 598.73,-413.9147 508.2549,-315.9142 467.3851,-271.645 398.3665,-266.7445 342.5629,-271.9024"/>
<polygon fill="none" stroke="#000000" points="341.8883,-268.4537 332.3067,-272.9753 342.6167,-275.4158 341.8883,-268.4537"/>
</g>
<!-- \\Firesphere\\SolrSearch\\Factories\\QueryComponentFactory -->
<g id="node21" class="node">
<title>\\Firesphere\\SolrSearch\\Factories\\QueryComponentFactory</title>
<polygon fill="none" stroke="#000000" points="751.7549,-2626.9142 593.7549,-2626.9142 593.7549,-2590.9142 751.7549,-2590.9142 751.7549,-2626.9142"/>
<text text-anchor="middle" x="672.7549" y="-2606.1142" font-family="Courier,monospace" font-size="11.00" fill="#000000">QueryComponentFactory</text>
</g>
<!-- \\Firesphere\\SolrSearch\\Factories\\DocumentFactory -->
<g id="node22" class="node">
<title>\\Firesphere\\SolrSearch\\Factories\\DocumentFactory</title>
<polygon fill="none" stroke="#000000" points="731.7549,-2572.9142 613.7549,-2572.9142 613.7549,-2536.9142 731.7549,-2536.9142 731.7549,-2572.9142"/>
<text text-anchor="middle" x="672.7549" y="-2552.1142" font-family="Courier,monospace" font-size="11.00" fill="#000000">DocumentFactory</text>
</g>
<!-- \\Firesphere\\SolrSearch\\Helpers\\SolrLogger -->
<g id="node23" class="node">
<title>\\Firesphere\\SolrSearch\\Helpers\\SolrLogger</title>
<polygon fill="none" stroke="#000000" points="714.7549,-2492.9142 630.7549,-2492.9142 630.7549,-2456.9142 714.7549,-2456.9142 714.7549,-2492.9142"/>
<text text-anchor="middle" x="672.7549" y="-2472.1142" font-family="Courier,monospace" font-size="11.00" fill="#000000">SolrLogger</text>
</g>
<!-- \\Firesphere\\SolrSearch\\Helpers\\DataResolver -->
<g id="node24" class="node">
<title>\\Firesphere\\SolrSearch\\Helpers\\DataResolver</title>
<polygon fill="none" stroke="#000000" points="721.7549,-2438.9142 623.7549,-2438.9142 623.7549,-2402.9142 721.7549,-2402.9142 721.7549,-2438.9142"/>
<text text-anchor="middle" x="672.7549" y="-2418.1142" font-family="Courier,monospace" font-size="11.00" fill="#000000">DataResolver</text>
</g>
<!-- \\Firesphere\\SolrSearch\\Helpers\\FieldResolver -->
<g id="node25" class="node">
<title>\\Firesphere\\SolrSearch\\Helpers\\FieldResolver</title>
<polygon fill="none" stroke="#000000" points="724.7549,-2384.9142 620.7549,-2384.9142 620.7549,-2348.9142 724.7549,-2348.9142 724.7549,-2384.9142"/>
<text text-anchor="middle" x="672.7549" y="-2364.1142" font-family="Courier,monospace" font-size="11.00" fill="#000000">FieldResolver</text>
</g>
<!-- \\Firesphere\\SolrSearch\\Helpers\\Statics -->
<g id="node26" class="node">
<title>\\Firesphere\\SolrSearch\\Helpers\\Statics</title>
<polygon fill="none" stroke="#000000" points="704.7549,-2330.9142 640.7549,-2330.9142 640.7549,-2294.9142 704.7549,-2294.9142 704.7549,-2330.9142"/>
<text text-anchor="middle" x="672.7549" y="-2310.1142" font-family="Courier,monospace" font-size="11.00" fill="#000000">Statics</text>
</g>
<!-- \\Firesphere\\SolrSearch\\Helpers\\Synonyms -->
<g id="node27" class="node">
<title>\\Firesphere\\SolrSearch\\Helpers\\Synonyms</title>
<polygon fill="none" stroke="#000000" points="708.2549,-2276.9142 637.2549,-2276.9142 637.2549,-2240.9142 708.2549,-2240.9142 708.2549,-2276.9142"/>
<text text-anchor="middle" x="672.7549" y="-2256.1142" font-family="Courier,monospace" font-size="11.00" fill="#000000">Synonyms</text>
</g>
<!-- \\Firesphere\\SolrSearch\\Admins\\SearchAdmin -->
<g id="node28" class="node">
<title>\\Firesphere\\SolrSearch\\Admins\\SearchAdmin</title>
<polygon fill="none" stroke="#000000" points="718.2549,-2196.9142 627.2549,-2196.9142 627.2549,-2160.9142 718.2549,-2160.9142 718.2549,-2196.9142"/>
<text text-anchor="middle" x="672.7549" y="-2176.1142" font-family="Courier,monospace" font-size="11.00" fill="#000000">SearchAdmin</text>
</g>
<!-- \\SilverStripe\\Admin\\ModelAdmin -->
<g id="node58" class="node">
<title>\\SilverStripe\\Admin\\ModelAdmin</title>
<ellipse fill="none" stroke="#000000" cx="254.1275" cy="-450.9142" rx="165.1707" ry="18"/>
<text text-anchor="middle" x="254.1275" y="-447.2142" font-family="Times,serif" font-size="14.00" fill="#c0c0c0">\SilverStripe\Admin\ModelAdmin</text>
</g>
<!-- \\Firesphere\\SolrSearch\\Admins\\SearchAdmin&#45;&gt;\\SilverStripe\\Admin\\ModelAdmin -->
<g id="edge6" class="edge">
<title>\\Firesphere\\SolrSearch\\Admins\\SearchAdmin&#45;&gt;\\SilverStripe\\Admin\\ModelAdmin</title>
<path fill="none" stroke="#000000" d="M627.0784,-2176.6851C606.7776,-2173.2177 584.4256,-2165.5135 570.7549,-2148.9142 475.8321,-2033.6565 533.1683,-1627.1352 508.2549,-1479.9142 440.0047,-1076.6035 298.6723,-597.8491 262.6356,-478.7612"/>
<polygon fill="none" stroke="#000000" points="265.9185,-477.5262 259.6653,-468.9735 259.2201,-479.5589 265.9185,-477.5262"/>
</g>
<!-- \\Firesphere\\SolrSearch\\Tasks\\ClearErrorsTask -->
<g id="node29" class="node">
<title>\\Firesphere\\SolrSearch\\Tasks\\ClearErrorsTask</title>
<polygon fill="none" stroke="#000000" points="731.7549,-2116.9142 613.7549,-2116.9142 613.7549,-2080.9142 731.7549,-2080.9142 731.7549,-2116.9142"/>
<text text-anchor="middle" x="672.7549" y="-2096.1142" font-family="Courier,monospace" font-size="11.00" fill="#000000">ClearErrorsTask</text>
</g>
<!-- \\SilverStripe\\Dev\\BuildTask -->
<g id="node59" class="node">
<title>\\SilverStripe\\Dev\\BuildTask</title>
<ellipse fill="none" stroke="#000000" cx="254.1275" cy="-396.9142" rx="139.9756" ry="18"/>
<text text-anchor="middle" x="254.1275" y="-393.2142" font-family="Times,serif" font-size="14.00" fill="#c0c0c0">\SilverStripe\Dev\BuildTask</text>
</g>
<!-- \\Firesphere\\SolrSearch\\Tasks\\ClearErrorsTask&#45;&gt;\\SilverStripe\\Dev\\BuildTask -->
<g id="edge7" class="edge">
<title>\\Firesphere\\SolrSearch\\Tasks\\ClearErrorsTask&#45;&gt;\\SilverStripe\\Dev\\BuildTask</title>
<path fill="none" stroke="#000000" d="M613.5055,-2096.0061C597.2456,-2092.181 581.2285,-2085.0002 570.7549,-2071.9142 456.2519,-1928.8515 633.3515,-557.8125 508.2549,-423.9142 466.0377,-378.7266 394.4592,-374.7408 338.0062,-380.4867"/>
<polygon fill="none" stroke="#000000" points="337.5528,-377.0156 328.0108,-381.6201 338.3415,-383.971 337.5528,-377.0156"/>
</g>
<!-- \\Firesphere\\SolrSearch\\Tasks\\SolrConfigureTask -->
<g id="node30" class="node">
<title>\\Firesphere\\SolrSearch\\Tasks\\SolrConfigureTask</title>
<polygon fill="none" stroke="#000000" points="738.2549,-2062.9142 607.2549,-2062.9142 607.2549,-2026.9142 738.2549,-2026.9142 738.2549,-2062.9142"/>
<text text-anchor="middle" x="672.7549" y="-2042.1142" font-family="Courier,monospace" font-size="11.00" fill="#000000">SolrConfigureTask</text>
</g>
<!-- \\Firesphere\\SolrSearch\\Tasks\\SolrConfigureTask&#45;&gt;\\SilverStripe\\Dev\\BuildTask -->
<g id="edge8" class="edge">
<title>\\Firesphere\\SolrSearch\\Tasks\\SolrConfigureTask&#45;&gt;\\SilverStripe\\Dev\\BuildTask</title>
<path fill="none" stroke="#000000" d="M607.1431,-2040.3139C593.1498,-2036.1879 579.8622,-2029.2781 570.7549,-2017.9142 459.9096,-1879.6034 629.3415,-553.3539 508.2549,-423.9142 466.0802,-378.8301 394.675,-374.7791 338.2748,-380.4745"/>
<polygon fill="none" stroke="#000000" points="337.8332,-377.002 328.2876,-381.599 338.6164,-383.958 337.8332,-377.002"/>
</g>
<!-- \\Firesphere\\SolrSearch\\Tasks\\SolrIndexTask -->
<g id="node31" class="node">
<title>\\Firesphere\\SolrSearch\\Tasks\\SolrIndexTask</title>
<polygon fill="none" stroke="#000000" points="724.7549,-2008.9142 620.7549,-2008.9142 620.7549,-1972.9142 724.7549,-1972.9142 724.7549,-2008.9142"/>
<text text-anchor="middle" x="672.7549" y="-1988.1142" font-family="Courier,monospace" font-size="11.00" fill="#000000">SolrIndexTask</text>
</g>
<!-- \\Firesphere\\SolrSearch\\Tasks\\SolrIndexTask&#45;&gt;\\SilverStripe\\Dev\\BuildTask -->
<g id="edge9" class="edge">
<title>\\Firesphere\\SolrSearch\\Tasks\\SolrIndexTask&#45;&gt;\\SilverStripe\\Dev\\BuildTask</title>
<path fill="none" stroke="#000000" d="M620.7222,-1989.4716C602.1162,-1986.1525 582.7937,-1978.9149 570.7549,-1963.9142 463.5671,-1830.3552 625.3316,-548.8953 508.2549,-423.9142 466.0492,-378.8591 394.6467,-374.8055 338.2554,-380.4926"/>
<polygon fill="none" stroke="#000000" points="337.8161,-377.0198 328.2699,-381.6155 338.5984,-383.976 337.8161,-377.0198"/>
</g>
<!-- \\Firesphere\\SolrSearch\\Tasks\\ClearDirtyClassesTask -->
<g id="node32" class="node">
<title>\\Firesphere\\SolrSearch\\Tasks\\ClearDirtyClassesTask</title>
<polygon fill="none" stroke="#000000" points="751.7549,-1954.9142 593.7549,-1954.9142 593.7549,-1918.9142 751.7549,-1918.9142 751.7549,-1954.9142"/>
<text text-anchor="middle" x="672.7549" y="-1934.1142" font-family="Courier,monospace" font-size="11.00" fill="#000000">ClearDirtyClassesTask</text>
</g>
<!-- \\Firesphere\\SolrSearch\\Tasks\\ClearDirtyClassesTask&#45;&gt;\\SilverStripe\\Dev\\BuildTask -->
<g id="edge10" class="edge">
<title>\\Firesphere\\SolrSearch\\Tasks\\ClearDirtyClassesTask&#45;&gt;\\SilverStripe\\Dev\\BuildTask</title>
<path fill="none" stroke="#000000" d="M593.4252,-1924.7794C584.6814,-1920.4242 576.7795,-1914.6221 570.7549,-1906.9142 469.1906,-1776.9733 621.0992,-544.1893 508.2549,-423.9142 466.0142,-378.892 394.6147,-374.8356 338.2335,-380.5131"/>
<polygon fill="none" stroke="#000000" points="337.7968,-377.0401 328.2499,-381.6343 338.578,-383.9964 337.7968,-377.0401"/>
</g>
<!-- \\Firesphere\\SolrSearch\\Forms\\SearchForm -->
<g id="node33" class="node">
<title>\\Firesphere\\SolrSearch\\Forms\\SearchForm</title>
<polygon fill="none" stroke="#000000" points="714.7549,-1874.9142 630.7549,-1874.9142 630.7549,-1838.9142 714.7549,-1838.9142 714.7549,-1874.9142"/>
<text text-anchor="middle" x="672.7549" y="-1854.1142" font-family="Courier,monospace" font-size="11.00" fill="#000000">SearchForm</text>
</g>
<!-- \\SilverStripe\\Forms\\Form -->
<g id="node60" class="node">
<title>\\SilverStripe\\Forms\\Form</title>
<ellipse fill="none" stroke="#000000" cx="254.1275" cy="-342.9142" rx="129.1772" ry="18"/>
<text text-anchor="middle" x="254.1275" y="-339.2142" font-family="Times,serif" font-size="14.00" fill="#c0c0c0">\SilverStripe\Forms\Form</text>
</g>
<!-- \\Firesphere\\SolrSearch\\Forms\\SearchForm&#45;&gt;\\SilverStripe\\Forms\\Form -->
<g id="edge11" class="edge">
<title>\\Firesphere\\SolrSearch\\Forms\\SearchForm&#45;&gt;\\SilverStripe\\Forms\\Form</title>
<path fill="none" stroke="#000000" d="M630.6129,-1855.5907C609.2287,-1852.5443 584.8569,-1844.9423 570.7549,-1826.9142 470.9201,-1699.2849 619.1687,-488.0428 508.2549,-369.9142 465.4243,-324.2976 392.6577,-320.7475 335.9381,-326.7591"/>
<polygon fill="none" stroke="#000000" points="335.4281,-323.2949 325.905,-327.9383 336.2452,-330.247 335.4281,-323.2949"/>
</g>
<!-- \\Firesphere\\SolrSearch\\Interfaces\\SiteStateInterface -->
<g id="node34" class="node">
<title>\\Firesphere\\SolrSearch\\Interfaces\\SiteStateInterface</title>
<polygon fill="none" stroke="#000000" points="323.1275,-1581.9142 185.1275,-1581.9142 185.1275,-1545.9142 323.1275,-1545.9142 323.1275,-1581.9142"/>
<text text-anchor="middle" x="254.1275" y="-1561.1142" font-family="Courier,monospace" font-size="11.00" fill="#000000">SiteStateInterface</text>
</g>
<!-- \\Firesphere\\SolrSearch\\Interfaces\\ConfigStore -->
<g id="node35" class="node">
<title>\\Firesphere\\SolrSearch\\Interfaces\\ConfigStore</title>
<polygon fill="none" stroke="#000000" points="299.6275,-1527.9142 208.6275,-1527.9142 208.6275,-1491.9142 299.6275,-1491.9142 299.6275,-1527.9142"/>
<text text-anchor="middle" x="254.1275" y="-1507.1142" font-family="Courier,monospace" font-size="11.00" fill="#000000">ConfigStore</text>
</g>
<!-- \\Firesphere\\SolrSearch\\Queries\\BaseQuery -->
<g id="node36" class="node">
<title>\\Firesphere\\SolrSearch\\Queries\\BaseQuery</title>
<polygon fill="none" stroke="#000000" points="711.2549,-1794.9142 634.2549,-1794.9142 634.2549,-1758.9142 711.2549,-1758.9142 711.2549,-1794.9142"/>
<text text-anchor="middle" x="672.7549" y="-1774.1142" font-family="Courier,monospace" font-size="11.00" fill="#000000">BaseQuery</text>
</g>
<!-- \\Firesphere\\SolrSearch\\Results\\SearchResult -->
<g id="node37" class="node">
<title>\\Firesphere\\SolrSearch\\Results\\SearchResult</title>
<polygon fill="none" stroke="#000000" points="721.7549,-1714.9142 623.7549,-1714.9142 623.7549,-1678.9142 721.7549,-1678.9142 721.7549,-1714.9142"/>
<text text-anchor="middle" x="672.7549" y="-1694.1142" font-family="Courier,monospace" font-size="11.00" fill="#000000">SearchResult</text>
</g>
<!-- \\Firesphere\\SolrSearch\\Indexes\\BaseIndex -->
<g id="node38" class="node">
<title>\\Firesphere\\SolrSearch\\Indexes\\BaseIndex</title>
<polygon fill="none" stroke="#000000" points="714.7549,-1634.9142 630.7549,-1634.9142 630.7549,-1598.9142 714.7549,-1598.9142 714.7549,-1634.9142"/>
<text text-anchor="start" x="638.7549" y="-1620.1142" font-family="Courier,monospace" font-size="11.00" fill="#000000">«abstract»</text>
<text text-anchor="start" x="642.2549" y="-1608.1142" font-family="Courier,monospace" font-size="11.00" fill="#000000">BaseIndex</text>
</g>
<!-- \\Firesphere\\SolrSearch\\Models\\SolrLog -->
<g id="node39" class="node">
<title>\\Firesphere\\SolrSearch\\Models\\SolrLog</title>
<polygon fill="none" stroke="#000000" points="704.7549,-1232.9142 640.7549,-1232.9142 640.7549,-1196.9142 704.7549,-1196.9142 704.7549,-1232.9142"/>
<text text-anchor="middle" x="672.7549" y="-1212.1142" font-family="Courier,monospace" font-size="11.00" fill="#000000">SolrLog</text>
</g>
<!-- \\SilverStripe\\ORM\\DataObject -->
<g id="node61" class="node">
<title>\\SilverStripe\\ORM\\DataObject</title>
<ellipse fill="none" stroke="#000000" cx="254.1275" cy="-234.9142" rx="152.9733" ry="18"/>
<text text-anchor="middle" x="254.1275" y="-231.2142" font-family="Times,serif" font-size="14.00" fill="#c0c0c0">\SilverStripe\ORM\DataObject</text>
</g>
<!-- \\Firesphere\\SolrSearch\\Models\\SolrLog&#45;&gt;\\SilverStripe\\ORM\\DataObject -->
<g id="edge12" class="edge">
<title>\\Firesphere\\SolrSearch\\Models\\SolrLog&#45;&gt;\\SilverStripe\\ORM\\DataObject</title>
<path fill="none" stroke="#000000" d="M640.3342,-1214.5728C617.1646,-1212.4501 587.2736,-1205.5019 570.7549,-1184.9142 442.0991,-1024.5673 650.8168,-410.0344 508.2549,-261.9142 466.6186,-218.6546 397.9884,-213.586 342.5383,-218.4198"/>
<polygon fill="none" stroke="#000000" points="341.9531,-214.9605 332.3474,-219.4306 342.6441,-221.9264 341.9531,-214.9605"/>
</g>
<!-- \\SilverStripe\\Security\\PermissionProvider -->
<g id="node62" class="node">
<title>\\SilverStripe\\Security\\PermissionProvider</title>
<ellipse fill="none" stroke="#000000" cx="254.1275" cy="-180.9142" rx="206.0634" ry="18"/>
<text text-anchor="middle" x="254.1275" y="-177.2142" font-family="Times,serif" font-size="14.00" fill="#c0c0c0">\SilverStripe\Security\PermissionProvider</text>
</g>
<!-- \\Firesphere\\SolrSearch\\Models\\SolrLog&#45;&gt;\\SilverStripe\\Security\\PermissionProvider -->
<g id="edge13" class="edge">
<title>\\Firesphere\\SolrSearch\\Models\\SolrLog&#45;&gt;\\SilverStripe\\Security\\PermissionProvider</title>
<path fill="none" stroke="#000000" stroke-dasharray="1,5" d="M640.3118,-1214.5907C617.1307,-1212.4773 587.2352,-1205.5327 570.7549,-1184.9142 434.9219,-1014.9745 658.828,-364.9425 508.2549,-207.9142 468.7327,-166.6977 404.7167,-160.1002 350.8253,-163.7299"/>
<polygon fill="none" stroke="#000000" points="350.23,-160.2663 340.541,-164.5526 350.7883,-167.244 350.23,-160.2663"/>
</g>
<!-- \\Firesphere\\SolrSearch\\Models\\DirtyClass -->
<g id="node40" class="node">
<title>\\Firesphere\\SolrSearch\\Models\\DirtyClass</title>
<polygon fill="none" stroke="#000000" points="714.7549,-1286.9142 630.7549,-1286.9142 630.7549,-1250.9142 714.7549,-1250.9142 714.7549,-1286.9142"/>
<text text-anchor="middle" x="672.7549" y="-1266.1142" font-family="Courier,monospace" font-size="11.00" fill="#000000">DirtyClass</text>
</g>
<!-- \\Firesphere\\SolrSearch\\Models\\DirtyClass&#45;&gt;\\SilverStripe\\ORM\\DataObject -->
<g id="edge14" class="edge">
<title>\\Firesphere\\SolrSearch\\Models\\DirtyClass&#45;&gt;\\SilverStripe\\ORM\\DataObject</title>
<path fill="none" stroke="#000000" d="M630.6095,-1268.7496C609.3614,-1266.2912 585.1179,-1259.393 570.7549,-1241.9142 432.2106,-1073.3155 659.2731,-419.4374 508.2549,-261.9142 466.6312,-218.4977 397.8296,-213.4916 342.3056,-218.3908"/>
<polygon fill="none" stroke="#000000" points="341.703,-214.9336 332.1021,-219.4139 342.4014,-221.8987 341.703,-214.9336"/>
</g>
<!-- \\Firesphere\\SolrSearch\\Models\\SearchSynonym -->
<g id="node41" class="node">
<title>\\Firesphere\\SolrSearch\\Models\\SearchSynonym</title>
<polygon fill="none" stroke="#000000" points="724.7549,-1340.9142 620.7549,-1340.9142 620.7549,-1304.9142 724.7549,-1304.9142 724.7549,-1340.9142"/>
<text text-anchor="middle" x="672.7549" y="-1320.1142" font-family="Courier,monospace" font-size="11.00" fill="#000000">SearchSynonym</text>
</g>
<!-- \\Firesphere\\SolrSearch\\Models\\SearchSynonym&#45;&gt;\\SilverStripe\\ORM\\DataObject -->
<g id="edge15" class="edge">
<title>\\Firesphere\\SolrSearch\\Models\\SearchSynonym&#45;&gt;\\SilverStripe\\ORM\\DataObject</title>
<path fill="none" stroke="#000000" d="M620.6111,-1321.2985C602.1066,-1317.9421 582.8836,-1310.7241 570.7549,-1295.9142 424.9018,-1117.8198 667.2858,-428.3471 508.2549,-261.9142 466.6312,-218.3532 397.6584,-213.4095 342.0643,-218.3707"/>
<polygon fill="none" stroke="#000000" points="341.4453,-214.9154 331.8489,-219.4053 342.1507,-221.8798 341.4453,-214.9154"/>
</g>
<!-- \\Firesphere\\SolrSearch\\Jobs\\SolrIndexJob -->
<g id="node42" class="node">
<title>\\Firesphere\\SolrSearch\\Jobs\\SolrIndexJob</title>
<polygon fill="none" stroke="#000000" points="721.7549,-1152.9142 623.7549,-1152.9142 623.7549,-1116.9142 721.7549,-1116.9142 721.7549,-1152.9142"/>
<text text-anchor="middle" x="672.7549" y="-1132.1142" font-family="Courier,monospace" font-size="11.00" fill="#000000">SolrIndexJob</text>
</g>
<!-- \\Symbiote\\QueuedJobs\\Services\\AbstractQueuedJob -->
<g id="node63" class="node">
<title>\\Symbiote\\QueuedJobs\\Services\\AbstractQueuedJob</title>
<ellipse fill="none" stroke="#000000" cx="254.1275" cy="-126.9142" rx="254.255" ry="18"/>
<text text-anchor="middle" x="254.1275" y="-123.2142" font-family="Times,serif" font-size="14.00" fill="#c0c0c0">\Symbiote\QueuedJobs\Services\AbstractQueuedJob</text>
</g>
<!-- \\Firesphere\\SolrSearch\\Jobs\\SolrIndexJob&#45;&gt;\\Symbiote\\QueuedJobs\\Services\\AbstractQueuedJob -->
<g id="edge16" class="edge">
<title>\\Firesphere\\SolrSearch\\Jobs\\SolrIndexJob&#45;&gt;\\Symbiote\\QueuedJobs\\Services\\AbstractQueuedJob</title>
<path fill="none" stroke="#000000" d="M623.5641,-1133.7654C604.1946,-1130.644 583.5613,-1123.4713 570.7549,-1107.9142 435.7291,-943.887 655.4157,-307.1481 508.2549,-153.9142 469.9281,-114.0058 408.6335,-106.573 355.8448,-109.4456"/>
<polygon fill="none" stroke="#000000" points="355.4956,-105.9611 345.7526,-110.1235 355.9648,-112.9453 355.4956,-105.9611"/>
</g>
<!-- \\Firesphere\\SolrSearch\\Jobs\\ClearDirtyClassesJob -->
<g id="node43" class="node">
<title>\\Firesphere\\SolrSearch\\Jobs\\ClearDirtyClassesJob</title>
<polygon fill="none" stroke="#000000" points="748.7549,-1098.9142 596.7549,-1098.9142 596.7549,-1062.9142 748.7549,-1062.9142 748.7549,-1098.9142"/>
<text text-anchor="middle" x="672.7549" y="-1078.1142" font-family="Courier,monospace" font-size="11.00" fill="#000000">ClearDirtyClassesJob</text>
</g>
<!-- \\Firesphere\\SolrSearch\\Jobs\\ClearDirtyClassesJob&#45;&gt;\\Symbiote\\QueuedJobs\\Services\\AbstractQueuedJob -->
<g id="edge17" class="edge">
<title>\\Firesphere\\SolrSearch\\Jobs\\ClearDirtyClassesJob&#45;&gt;\\Symbiote\\QueuedJobs\\Services\\AbstractQueuedJob</title>
<path fill="none" stroke="#000000" d="M596.7429,-1072.3555C586.7695,-1068.1699 577.6401,-1062.245 570.7549,-1053.9142 443.0359,-899.3803 647.4051,-298.2407 508.2549,-153.9142 469.9948,-114.2309 409.0149,-106.7065 356.3799,-109.473"/>
<polygon fill="none" stroke="#000000" points="356.0659,-105.986 346.3153,-110.1303 356.5222,-112.9711 356.0659,-105.986"/>
</g>
<!-- \\Firesphere\\SolrSearch\\Jobs\\SolrConfigureJob -->
<g id="node44" class="node">
<title>\\Firesphere\\SolrSearch\\Jobs\\SolrConfigureJob</title>
<polygon fill="none" stroke="#000000" points="735.2549,-1044.9142 610.2549,-1044.9142 610.2549,-1008.9142 735.2549,-1008.9142 735.2549,-1044.9142"/>
<text text-anchor="middle" x="672.7549" y="-1024.1142" font-family="Courier,monospace" font-size="11.00" fill="#000000">SolrConfigureJob</text>
</g>
<!-- \\Firesphere\\SolrSearch\\Jobs\\SolrConfigureJob&#45;&gt;\\Symbiote\\QueuedJobs\\Services\\AbstractQueuedJob -->
<g id="edge18" class="edge">
<title>\\Firesphere\\SolrSearch\\Jobs\\SolrConfigureJob&#45;&gt;\\Symbiote\\QueuedJobs\\Services\\AbstractQueuedJob</title>
<path fill="none" stroke="#000000" d="M610.2177,-1020.9783C595.1694,-1016.528 580.6128,-1009.1202 570.7549,-996.9142 452.7291,-850.7753 638.9515,-288.8405 508.2549,-153.9142 470.0472,-114.47 409.3804,-106.8559 356.9034,-109.5134"/>
<polygon fill="none" stroke="#000000" points="356.6259,-106.0239 346.8674,-110.1495 357.0688,-113.0099 356.6259,-106.0239"/>
</g>
<!-- \\Firesphere\\SolrSearch\\Services\\SolrCoreService -->
<g id="node45" class="node">
<title>\\Firesphere\\SolrSearch\\Services\\SolrCoreService</title>
<polygon fill="none" stroke="#000000" points="731.7549,-964.9142 613.7549,-964.9142 613.7549,-928.9142 731.7549,-928.9142 731.7549,-964.9142"/>
<text text-anchor="middle" x="672.7549" y="-944.1142" font-family="Courier,monospace" font-size="11.00" fill="#000000">SolrCoreService</text>
</g>
<!-- \\Firesphere\\SolrSearch\\Services\\SchemaService -->
<g id="node46" class="node">
<title>\\Firesphere\\SolrSearch\\Services\\SchemaService</title>
<polygon fill="none" stroke="#000000" points="724.7549,-910.9142 620.7549,-910.9142 620.7549,-874.9142 724.7549,-874.9142 724.7549,-910.9142"/>
<text text-anchor="middle" x="672.7549" y="-890.1142" font-family="Courier,monospace" font-size="11.00" fill="#000000">SchemaService</text>
</g>
<!-- \\SilverStripe\\View\\ViewableData -->
<g id="node64" class="node">
<title>\\SilverStripe\\View\\ViewableData</title>
<ellipse fill="none" stroke="#000000" cx="254.1275" cy="-72.9142" rx="163.2712" ry="18"/>
<text text-anchor="middle" x="254.1275" y="-69.2142" font-family="Times,serif" font-size="14.00" fill="#c0c0c0">\SilverStripe\View\ViewableData</text>
</g>
<!-- \\Firesphere\\SolrSearch\\Services\\SchemaService&#45;&gt;\\SilverStripe\\View\\ViewableData -->
<g id="edge19" class="edge">
<title>\\Firesphere\\SolrSearch\\Services\\SchemaService&#45;&gt;\\SilverStripe\\View\\ViewableData</title>
<path fill="none" stroke="#000000" d="M627.23,-874.7881C606.4403,-864.0692 583.6294,-848.3375 570.7549,-826.9142 487.2306,-687.9294 621.7558,-215.7186 508.2549,-99.9142 467.1048,-57.9291 400.472,-52.1728 345.7597,-56.3898"/>
<polygon fill="none" stroke="#000000" points="345.3411,-52.9131 335.6912,-57.2868 345.9624,-59.8855 345.3411,-52.9131"/>
</g>
<!-- \\Firesphere\\SolrSearch\\Stores\\PostConfigStore -->
<g id="node47" class="node">
<title>\\Firesphere\\SolrSearch\\Stores\\PostConfigStore</title>
<polygon fill="none" stroke="#000000" points="731.7549,-1554.9142 613.7549,-1554.9142 613.7549,-1518.9142 731.7549,-1518.9142 731.7549,-1554.9142"/>
<text text-anchor="middle" x="672.7549" y="-1534.1142" font-family="Courier,monospace" font-size="11.00" fill="#000000">PostConfigStore</text>
</g>
<!-- \\Firesphere\\SolrSearch\\Stores\\PostConfigStore&#45;&gt;\\Firesphere\\SolrSearch\\Interfaces\\ConfigStore -->
<g id="edge20" class="edge">
<title>\\Firesphere\\SolrSearch\\Stores\\PostConfigStore&#45;&gt;\\Firesphere\\SolrSearch\\Interfaces\\ConfigStore</title>
<path fill="none" stroke="#000000" stroke-dasharray="1,5" d="M613.6637,-1533.1031C532.8854,-1527.8931 389.0185,-1518.6142 309.9722,-1513.516"/>
<polygon fill="none" stroke="#000000" points="309.9333,-1510.0063 299.7287,-1512.8554 309.4827,-1516.9918 309.9333,-1510.0063"/>
</g>
<!-- \\Firesphere\\SolrSearch\\Stores\\FileConfigStore -->
<g id="node48" class="node">
<title>\\Firesphere\\SolrSearch\\Stores\\FileConfigStore</title>
<polygon fill="none" stroke="#000000" points="731.7549,-1500.9142 613.7549,-1500.9142 613.7549,-1464.9142 731.7549,-1464.9142 731.7549,-1500.9142"/>
<text text-anchor="middle" x="672.7549" y="-1480.1142" font-family="Courier,monospace" font-size="11.00" fill="#000000">FileConfigStore</text>
</g>
<!-- \\Firesphere\\SolrSearch\\Stores\\FileConfigStore&#45;&gt;\\Firesphere\\SolrSearch\\Interfaces\\ConfigStore -->
<g id="edge21" class="edge">
<title>\\Firesphere\\SolrSearch\\Stores\\FileConfigStore&#45;&gt;\\Firesphere\\SolrSearch\\Interfaces\\ConfigStore</title>
<path fill="none" stroke="#000000" stroke-dasharray="1,5" d="M613.6637,-1486.7254C532.8854,-1491.9353 389.0185,-1501.2142 309.9722,-1506.3124"/>
<polygon fill="none" stroke="#000000" points="309.4827,-1502.8367 299.7287,-1506.9731 309.9333,-1509.8221 309.4827,-1502.8367"/>
</g>
<!-- \\Firesphere\\SolrSearch\\Subsites\\SubsitesExtension -->
<g id="node49" class="node">
<title>\\Firesphere\\SolrSearch\\Subsites\\SubsitesExtension</title>
<polygon fill="none" stroke="#000000" points="738.2549,-1420.9142 607.2549,-1420.9142 607.2549,-1384.9142 738.2549,-1384.9142 738.2549,-1420.9142"/>
<text text-anchor="middle" x="672.7549" y="-1400.1142" font-family="Courier,monospace" font-size="11.00" fill="#000000">SubsitesExtension</text>
</g>
<!-- \\Firesphere\\SolrSearch\\Subsites\\SubsitesExtension&#45;&gt;\\SilverStripe\\ORM\\DataExtension -->
<g id="edge23" class="edge">
<title>\\Firesphere\\SolrSearch\\Subsites\\SubsitesExtension&#45;&gt;\\SilverStripe\\ORM\\DataExtension</title>
<path fill="none" stroke="#000000" d="M607.1819,-1396.1745C593.1873,-1391.6438 579.8894,-1384.399 570.7549,-1372.9142 424.2867,-1188.76 670.699,-486.1423 508.2549,-315.9142 467.3085,-273.0058 399.8303,-267.5474 344.6946,-272.1275"/>
<polygon fill="none" stroke="#000000" points="344.1757,-268.661 334.5524,-273.0928 344.839,-275.6295 344.1757,-268.661"/>
</g>
<!-- \\Firesphere\\SolrFluent\\FluentExtension -->
<g id="node50" class="node">
<title>\\Firesphere\\SolrFluent\\FluentExtension</title>
<polygon fill="none" stroke="#000000" points="731.7549,-706.9142 613.7549,-706.9142 613.7549,-670.9142 731.7549,-670.9142 731.7549,-706.9142"/>
<text text-anchor="middle" x="672.7549" y="-686.1142" font-family="Courier,monospace" font-size="11.00" fill="#000000">FluentExtension</text>
</g>
<!-- \\Firesphere\\SolrFluent\\FluentExtension&#45;&gt;\\SilverStripe\\Core\\Extension -->
<g id="edge22" class="edge">
<title>\\Firesphere\\SolrFluent\\FluentExtension&#45;&gt;\\SilverStripe\\Core\\Extension</title>
<path fill="none" stroke="#000000" d="M620.3934,-670.855C601.7446,-661.7766 582.4787,-648.8047 570.7549,-630.9142 499.0955,-521.5624 600.729,-138.3342 508.2549,-45.9142 466.0822,-3.7662 398.1571,1.5714 343.1382,-2.8692"/>
<polygon fill="none" stroke="#000000" points="342.659,.6015 333.0242,-3.8054 343.3043,-6.3687 342.659,.6015"/>
</g>
<!-- \\Firesphere\\SolrPermissions\\Extensions\\BaseIndexExtension -->
<g id="node51" class="node">
<title>\\Firesphere\\SolrPermissions\\Extensions\\BaseIndexExtension</title>
<polygon fill="none" stroke="#000000" points="741.7549,-544.9142 603.7549,-544.9142 603.7549,-508.9142 741.7549,-508.9142 741.7549,-544.9142"/>
<text text-anchor="middle" x="672.7549" y="-524.1142" font-family="Courier,monospace" font-size="11.00" fill="#000000">BaseIndexExtension</text>
</g>
<!-- \\Firesphere\\SolrPermissions\\Extensions\\BaseIndexExtension&#45;&gt;\\SilverStripe\\Core\\Extension -->
<g id="edge24" class="edge">
<title>\\Firesphere\\SolrPermissions\\Extensions\\BaseIndexExtension&#45;&gt;\\SilverStripe\\Core\\Extension</title>
<path fill="none" stroke="#000000" d="M669.255,-508.8692C653.3631,-428.8757 585.4274,-107.5029 508.2549,-45.9142 467.8634,-13.6793 411.6201,-5.1878 362.3109,-5.5069"/>
<polygon fill="none" stroke="#000000" points="362.1594,-2.009 352.2258,-5.6934 362.2889,-9.0078 362.1594,-2.009"/>
</g>
<!-- \\Firesphere\\SolrPermissions\\Extensions\\DataObjectExtension -->
<g id="node52" class="node">
<title>\\Firesphere\\SolrPermissions\\Extensions\\DataObjectExtension</title>
<polygon fill="none" stroke="#000000" points="745.2549,-598.9142 600.2549,-598.9142 600.2549,-562.9142 745.2549,-562.9142 745.2549,-598.9142"/>
<text text-anchor="middle" x="672.7549" y="-578.1142" font-family="Courier,monospace" font-size="11.00" fill="#000000">DataObjectExtension</text>
</g>
<!-- \\Firesphere\\SolrPermissions\\Extensions\\DataObjectExtension&#45;&gt;\\SilverStripe\\ORM\\DataExtension -->
<g id="edge25" class="edge">
<title>\\Firesphere\\SolrPermissions\\Extensions\\DataObjectExtension&#45;&gt;\\SilverStripe\\ORM\\DataExtension</title>
<path fill="none" stroke="#000000" d="M600.1473,-571.943C589.2244,-567.8658 578.9072,-562.0826 570.7549,-553.9142 493.4987,-476.5061 591.1983,-387.1949 508.2549,-315.9142 469.298,-282.4352 413.6022,-273.7153 364.2751,-274.2075"/>
<polygon fill="none" stroke="#000000" points="364.0968,-270.7105 354.1783,-274.4353 364.2548,-277.7087 364.0968,-270.7105"/>
</g>
<!-- \\SilverStripe\\FullTextSearch\\Solr\\Solr -->
<g id="node53" class="node">
<title>\\SilverStripe\\FullTextSearch\\Solr\\Solr</title>
<polygon fill="none" stroke="#000000" points="909.7549,-1697.9142 855.7549,-1697.9142 855.7549,-1661.9142 909.7549,-1661.9142 909.7549,-1697.9142"/>
<text text-anchor="middle" x="882.7549" y="-1677.1142" font-family="Courier,monospace" font-size="11.00" fill="#000000">Solr</text>
</g>
<!-- \\SilverStripe\\FullTextSearch\\Solr\\SolrIndex -->
<g id="node54" class="node">
<title>\\SilverStripe\\FullTextSearch\\Solr\\SolrIndex</title>
<polygon fill="none" stroke="#000000" points="924.7549,-1643.9142 840.7549,-1643.9142 840.7549,-1607.9142 924.7549,-1607.9142 924.7549,-1643.9142"/>
<text text-anchor="start" x="848.7549" y="-1629.1142" font-family="Courier,monospace" font-size="11.00" fill="#000000">«abstract»</text>
<text text-anchor="start" x="852.2549" y="-1617.1142" font-family="Courier,monospace" font-size="11.00" fill="#000000">SolrIndex</text>
</g>
<!-- \\SilverStripe\\FullTextSearch\\Solr\\SolrIndex&#45;&gt;\\Firesphere\\SolrSearch\\Indexes\\BaseIndex -->
<g id="edge3" class="edge">
<title>\\SilverStripe\\FullTextSearch\\Solr\\SolrIndex&#45;&gt;\\Firesphere\\SolrSearch\\Indexes\\BaseIndex</title>
<path fill="none" stroke="#000000" d="M840.5109,-1624.1038C807.2624,-1622.6788 760.7535,-1620.6856 725.1371,-1619.1592"/>
<polygon fill="none" stroke="#000000" points="725.0721,-1615.6533 714.9314,-1618.7218 724.7723,-1622.6469 725.0721,-1615.6533"/>
</g>
<!-- \\SilverStripe\\FullTextSearch\\Search\\Queries\\SearchQuery -->
<g id="node55" class="node">
<title>\\SilverStripe\\FullTextSearch\\Search\\Queries\\SearchQuery</title>
<polygon fill="none" stroke="#000000" points="928.2549,-1785.9142 837.2549,-1785.9142 837.2549,-1749.9142 928.2549,-1749.9142 928.2549,-1785.9142"/>
<text text-anchor="middle" x="882.7549" y="-1765.1142" font-family="Courier,monospace" font-size="11.00" fill="#000000">SearchQuery</text>
</g>
<!-- \\SilverStripe\\FullTextSearch\\Search\\Queries\\SearchQuery&#45;&gt;\\Firesphere\\SolrSearch\\Queries\\BaseQuery -->
<g id="edge2" class="edge">
<title>\\SilverStripe\\FullTextSearch\\Search\\Queries\\SearchQuery&#45;&gt;\\Firesphere\\SolrSearch\\Queries\\BaseQuery</title>
<path fill="none" stroke="#000000" d="M837.188,-1769.8671C803.1891,-1771.3242 756.7942,-1773.3126 721.9532,-1774.8057"/>
<polygon fill="none" stroke="#000000" points="721.3789,-1771.327 711.5379,-1775.2521 721.6786,-1778.3206 721.3789,-1771.327"/>
</g>
</g>
</svg>
