<?xml version="1.0" encoding="UTF-8" standalone="no"?>
<!DOCTYPE svg PUBLIC "-//W3C//DTD SVG 1.1//EN"
 "http://www.w3.org/Graphics/SVG/1.1/DTD/svg11.dtd">
<!-- Generated by graphviz version 2.40.1 (20161225.0304)
 -->
<!-- Title: G Pages: 1 -->
<svg width="984pt" height="4003pt"
 viewBox="0.00 0.00 984.25 4002.97" xmlns="http://www.w3.org/2000/svg" xmlns:xlink="http://www.w3.org/1999/xlink">
<g id="graph0" class="graph" transform="scale(1 1) rotate(0) translate(4 3998.9682)">
<title>G</title>
<polygon fill="#ffffff" stroke="transparent" points="-4,4 -4,-3998.9682 980.2549,-3998.9682 980.2549,4 -4,4"/>
<g id="clust1" class="cluster">
<title>cluster_Global</title>
<path fill="none" stroke="#c0c0c0" d="M165.1275,-476.9682C165.1275,-476.9682 956.2549,-476.9682 956.2549,-476.9682 962.2549,-476.9682 968.2549,-482.9682 968.2549,-488.9682 968.2549,-488.9682 968.2549,-3974.9682 968.2549,-3974.9682 968.2549,-3980.9682 962.2549,-3986.9682 956.2549,-3986.9682 956.2549,-3986.9682 165.1275,-3986.9682 165.1275,-3986.9682 159.1275,-3986.9682 153.1275,-3980.9682 153.1275,-3974.9682 153.1275,-3974.9682 153.1275,-488.9682 153.1275,-488.9682 153.1275,-482.9682 159.1275,-476.9682 165.1275,-476.9682"/>
<text text-anchor="middle" x="560.6912" y="-3974.1682" font-family="Times,serif" font-size="11.00" fill="#c0c0c0">Global</text>
</g>
<g id="clust2" class="cluster">
<title>cluster_\SilverStripe</title>
<path fill="none" stroke="#c0c0c0" d="M817.2549,-1669.9682C817.2549,-1669.9682 948.2549,-1669.9682 948.2549,-1669.9682 954.2549,-1669.9682 960.2549,-1675.9682 960.2549,-1681.9682 960.2549,-1681.9682 960.2549,-1971.9682 960.2549,-1971.9682 960.2549,-1977.9682 954.2549,-1983.9682 948.2549,-1983.9682 948.2549,-1983.9682 817.2549,-1983.9682 817.2549,-1983.9682 811.2549,-1983.9682 805.2549,-1977.9682 805.2549,-1971.9682 805.2549,-1971.9682 805.2549,-1681.9682 805.2549,-1681.9682 805.2549,-1675.9682 811.2549,-1669.9682 817.2549,-1669.9682"/>
<text text-anchor="middle" x="882.7549" y="-1971.1682" font-family="Times,serif" font-size="11.00" fill="#c0c0c0">SilverStripe</text>
</g>
<g id="clust3" class="cluster">
<title>cluster_\SilverStripe\FullTextSearch</title>
<path fill="none" stroke="#c0c0c0" d="M825.2549,-1677.9682C825.2549,-1677.9682 940.2549,-1677.9682 940.2549,-1677.9682 946.2549,-1677.9682 952.2549,-1683.9682 952.2549,-1689.9682 952.2549,-1689.9682 952.2549,-1943.9682 952.2549,-1943.9682 952.2549,-1949.9682 946.2549,-1955.9682 940.2549,-1955.9682 940.2549,-1955.9682 825.2549,-1955.9682 825.2549,-1955.9682 819.2549,-1955.9682 813.2549,-1949.9682 813.2549,-1943.9682 813.2549,-1943.9682 813.2549,-1689.9682 813.2549,-1689.9682 813.2549,-1683.9682 819.2549,-1677.9682 825.2549,-1677.9682"/>
<text text-anchor="middle" x="882.7549" y="-1943.1682" font-family="Times,serif" font-size="11.00" fill="#c0c0c0">FullTextSearch</text>
</g>
<g id="clust4" class="cluster">
<title>cluster_\SilverStripe\FullTextSearch\Solr</title>
<path fill="none" stroke="#c0c0c0" d="M844.7549,-1801.9682C844.7549,-1801.9682 920.7549,-1801.9682 920.7549,-1801.9682 926.7549,-1801.9682 932.7549,-1807.9682 932.7549,-1813.9682 932.7549,-1813.9682 932.7549,-1915.9682 932.7549,-1915.9682 932.7549,-1921.9682 926.7549,-1927.9682 920.7549,-1927.9682 920.7549,-1927.9682 844.7549,-1927.9682 844.7549,-1927.9682 838.7549,-1927.9682 832.7549,-1921.9682 832.7549,-1915.9682 832.7549,-1915.9682 832.7549,-1813.9682 832.7549,-1813.9682 832.7549,-1807.9682 838.7549,-1801.9682 844.7549,-1801.9682"/>
<text text-anchor="middle" x="882.7549" y="-1915.1682" font-family="Times,serif" font-size="11.00" fill="#c0c0c0">Solr</text>
</g>
<g id="clust5" class="cluster">
<title>cluster_\SilverStripe\FullTextSearch\Search</title>
<path fill="none" stroke="#c0c0c0" d="M833.2549,-1685.9682C833.2549,-1685.9682 932.2549,-1685.9682 932.2549,-1685.9682 938.2549,-1685.9682 944.2549,-1691.9682 944.2549,-1697.9682 944.2549,-1697.9682 944.2549,-1781.9682 944.2549,-1781.9682 944.2549,-1787.9682 938.2549,-1793.9682 932.2549,-1793.9682 932.2549,-1793.9682 833.2549,-1793.9682 833.2549,-1793.9682 827.2549,-1793.9682 821.2549,-1787.9682 821.2549,-1781.9682 821.2549,-1781.9682 821.2549,-1697.9682 821.2549,-1697.9682 821.2549,-1691.9682 827.2549,-1685.9682 833.2549,-1685.9682"/>
<text text-anchor="middle" x="882.7549" y="-1781.1682" font-family="Times,serif" font-size="11.00" fill="#c0c0c0">Search</text>
</g>
<g id="clust6" class="cluster">
<title>cluster_\SilverStripe\FullTextSearch\Search\Queries</title>
<path fill="none" stroke="#c0c0c0" d="M841.2549,-1693.9682C841.2549,-1693.9682 924.2549,-1693.9682 924.2549,-1693.9682 930.2549,-1693.9682 936.2549,-1699.9682 936.2549,-1705.9682 936.2549,-1705.9682 936.2549,-1753.9682 936.2549,-1753.9682 936.2549,-1759.9682 930.2549,-1765.9682 924.2549,-1765.9682 924.2549,-1765.9682 841.2549,-1765.9682 841.2549,-1765.9682 835.2549,-1765.9682 829.2549,-1759.9682 829.2549,-1753.9682 829.2549,-1753.9682 829.2549,-1705.9682 829.2549,-1705.9682 829.2549,-1699.9682 835.2549,-1693.9682 841.2549,-1693.9682"/>
<text text-anchor="middle" x="882.7549" y="-1753.1682" font-family="Times,serif" font-size="11.00" fill="#c0c0c0">Queries</text>
</g>
<g id="clust7" class="cluster">
<title>cluster_\Firesphere</title>
<path fill="none" stroke="#c0c0c0" d="M173.1275,-484.9682C173.1275,-484.9682 777.2549,-484.9682 777.2549,-484.9682 783.2549,-484.9682 789.2549,-490.9682 789.2549,-496.9682 789.2549,-496.9682 789.2549,-3946.9682 789.2549,-3946.9682 789.2549,-3952.9682 783.2549,-3958.9682 777.2549,-3958.9682 777.2549,-3958.9682 173.1275,-3958.9682 173.1275,-3958.9682 167.1275,-3958.9682 161.1275,-3952.9682 161.1275,-3946.9682 161.1275,-3946.9682 161.1275,-496.9682 161.1275,-496.9682 161.1275,-490.9682 167.1275,-484.9682 173.1275,-484.9682"/>
<text text-anchor="middle" x="475.1912" y="-3946.1682" font-family="Times,serif" font-size="11.00" fill="#c0c0c0">Firesphere</text>
</g>
<g id="clust8" class="cluster">
<title>cluster_\Firesphere\SolrCompatibility</title>
<path fill="none" stroke="#c0c0c0" d="M582.7549,-886.9682C582.7549,-886.9682 762.7549,-886.9682 762.7549,-886.9682 768.7549,-886.9682 774.7549,-892.9682 774.7549,-898.9682 774.7549,-898.9682 774.7549,-982.9682 774.7549,-982.9682 774.7549,-988.9682 768.7549,-994.9682 762.7549,-994.9682 762.7549,-994.9682 582.7549,-994.9682 582.7549,-994.9682 576.7549,-994.9682 570.7549,-988.9682 570.7549,-982.9682 570.7549,-982.9682 570.7549,-898.9682 570.7549,-898.9682 570.7549,-892.9682 576.7549,-886.9682 582.7549,-886.9682"/>
<text text-anchor="middle" x="672.7549" y="-982.1682" font-family="Times,serif" font-size="11.00" fill="#c0c0c0">SolrCompatibility</text>
</g>
<g id="clust9" class="cluster">
<title>cluster_\Firesphere\SolrCompatibility\Extensions</title>
<path fill="none" stroke="#c0c0c0" d="M590.7549,-894.9682C590.7549,-894.9682 754.7549,-894.9682 754.7549,-894.9682 760.7549,-894.9682 766.7549,-900.9682 766.7549,-906.9682 766.7549,-906.9682 766.7549,-954.9682 766.7549,-954.9682 766.7549,-960.9682 760.7549,-966.9682 754.7549,-966.9682 754.7549,-966.9682 590.7549,-966.9682 590.7549,-966.9682 584.7549,-966.9682 578.7549,-960.9682 578.7549,-954.9682 578.7549,-954.9682 578.7549,-906.9682 578.7549,-906.9682 578.7549,-900.9682 584.7549,-894.9682 590.7549,-894.9682"/>
<text text-anchor="middle" x="672.7549" y="-954.1682" font-family="Times,serif" font-size="11.00" fill="#c0c0c0">Extensions</text>
</g>
<g id="clust10" class="cluster">
<title>cluster_\Firesphere\SolrSearch</title>
<path fill="none" stroke="#c0c0c0" d="M181.1275,-1002.9682C181.1275,-1002.9682 769.2549,-1002.9682 769.2549,-1002.9682 775.2549,-1002.9682 781.2549,-1008.9682 781.2549,-1014.9682 781.2549,-1014.9682 781.2549,-3918.9682 781.2549,-3918.9682 781.2549,-3924.9682 775.2549,-3930.9682 769.2549,-3930.9682 769.2549,-3930.9682 181.1275,-3930.9682 181.1275,-3930.9682 175.1275,-3930.9682 169.1275,-3924.9682 169.1275,-3918.9682 169.1275,-3918.9682 169.1275,-1014.9682 169.1275,-1014.9682 169.1275,-1008.9682 175.1275,-1002.9682 181.1275,-1002.9682"/>
<text text-anchor="middle" x="475.1912" y="-3918.1682" font-family="Times,serif" font-size="11.00" fill="#c0c0c0">SolrSearch</text>
</g>
<g id="clust11" class="cluster">
<title>cluster_\Firesphere\SolrSearch\Admins</title>
<path fill="none" stroke="#c0c0c0" d="M631.2549,-3830.9682C631.2549,-3830.9682 714.2549,-3830.9682 714.2549,-3830.9682 720.2549,-3830.9682 726.2549,-3836.9682 726.2549,-3842.9682 726.2549,-3842.9682 726.2549,-3890.9682 726.2549,-3890.9682 726.2549,-3896.9682 720.2549,-3902.9682 714.2549,-3902.9682 714.2549,-3902.9682 631.2549,-3902.9682 631.2549,-3902.9682 625.2549,-3902.9682 619.2549,-3896.9682 619.2549,-3890.9682 619.2549,-3890.9682 619.2549,-3842.9682 619.2549,-3842.9682 619.2549,-3836.9682 625.2549,-3830.9682 631.2549,-3830.9682"/>
<text text-anchor="middle" x="672.7549" y="-3890.1682" font-family="Times,serif" font-size="11.00" fill="#c0c0c0">Admins</text>
</g>
<g id="clust12" class="cluster">
<title>cluster_\Firesphere\SolrSearch\Models</title>
<path fill="none" stroke="#c0c0c0" d="M624.7549,-3642.9682C624.7549,-3642.9682 720.7549,-3642.9682 720.7549,-3642.9682 726.7549,-3642.9682 732.7549,-3648.9682 732.7549,-3654.9682 732.7549,-3654.9682 732.7549,-3810.9682 732.7549,-3810.9682 732.7549,-3816.9682 726.7549,-3822.9682 720.7549,-3822.9682 720.7549,-3822.9682 624.7549,-3822.9682 624.7549,-3822.9682 618.7549,-3822.9682 612.7549,-3816.9682 612.7549,-3810.9682 612.7549,-3810.9682 612.7549,-3654.9682 612.7549,-3654.9682 612.7549,-3648.9682 618.7549,-3642.9682 624.7549,-3642.9682"/>
<text text-anchor="middle" x="672.7549" y="-3810.1682" font-family="Times,serif" font-size="11.00" fill="#c0c0c0">Models</text>
</g>
<g id="clust13" class="cluster">
<title>cluster_\Firesphere\SolrSearch\Traits</title>
<path fill="none" stroke="#c0c0c0" d="M584.2549,-2752.9682C584.2549,-2752.9682 761.2549,-2752.9682 761.2549,-2752.9682 767.2549,-2752.9682 773.2549,-2758.9682 773.2549,-2764.9682 773.2549,-2764.9682 773.2549,-3622.9682 773.2549,-3622.9682 773.2549,-3628.9682 767.2549,-3634.9682 761.2549,-3634.9682 761.2549,-3634.9682 584.2549,-3634.9682 584.2549,-3634.9682 578.2549,-3634.9682 572.2549,-3628.9682 572.2549,-3622.9682 572.2549,-3622.9682 572.2549,-2764.9682 572.2549,-2764.9682 572.2549,-2758.9682 578.2549,-2752.9682 584.2549,-2752.9682"/>
<text text-anchor="middle" x="672.7549" y="-3622.1682" font-family="Times,serif" font-size="11.00" fill="#c0c0c0">Traits</text>
</g>
<g id="clust14" class="cluster">
<title>cluster_\Firesphere\SolrSearch\Services</title>
<path fill="none" stroke="#c0c0c0" d="M617.7549,-2618.9682C617.7549,-2618.9682 727.7549,-2618.9682 727.7549,-2618.9682 733.7549,-2618.9682 739.7549,-2624.9682 739.7549,-2630.9682 739.7549,-2630.9682 739.7549,-2732.9682 739.7549,-2732.9682 739.7549,-2738.9682 733.7549,-2744.9682 727.7549,-2744.9682 727.7549,-2744.9682 617.7549,-2744.9682 617.7549,-2744.9682 611.7549,-2744.9682 605.7549,-2738.9682 605.7549,-2732.9682 605.7549,-2732.9682 605.7549,-2630.9682 605.7549,-2630.9682 605.7549,-2624.9682 611.7549,-2618.9682 617.7549,-2618.9682"/>
<text text-anchor="middle" x="672.7549" y="-2732.1682" font-family="Times,serif" font-size="11.00" fill="#c0c0c0">Services</text>
</g>
<g id="clust15" class="cluster">
<title>cluster_\Firesphere\SolrSearch\Extensions</title>
<path fill="none" stroke="#c0c0c0" d="M604.2549,-2484.9682C604.2549,-2484.9682 741.2549,-2484.9682 741.2549,-2484.9682 747.2549,-2484.9682 753.2549,-2490.9682 753.2549,-2496.9682 753.2549,-2496.9682 753.2549,-2598.9682 753.2549,-2598.9682 753.2549,-2604.9682 747.2549,-2610.9682 741.2549,-2610.9682 741.2549,-2610.9682 604.2549,-2610.9682 604.2549,-2610.9682 598.2549,-2610.9682 592.2549,-2604.9682 592.2549,-2598.9682 592.2549,-2598.9682 592.2549,-2496.9682 592.2549,-2496.9682 592.2549,-2490.9682 598.2549,-2484.9682 604.2549,-2484.9682"/>
<text text-anchor="middle" x="672.7549" y="-2598.1682" font-family="Times,serif" font-size="11.00" fill="#c0c0c0">Extensions</text>
</g>
<g id="clust16" class="cluster">
<title>cluster_\Firesphere\SolrSearch\Indexes</title>
<path fill="none" stroke="#c0c0c0" d="M634.7549,-2404.9682C634.7549,-2404.9682 710.7549,-2404.9682 710.7549,-2404.9682 716.7549,-2404.9682 722.7549,-2410.9682 722.7549,-2416.9682 722.7549,-2416.9682 722.7549,-2464.9682 722.7549,-2464.9682 722.7549,-2470.9682 716.7549,-2476.9682 710.7549,-2476.9682 710.7549,-2476.9682 634.7549,-2476.9682 634.7549,-2476.9682 628.7549,-2476.9682 622.7549,-2470.9682 622.7549,-2464.9682 622.7549,-2464.9682 622.7549,-2416.9682 622.7549,-2416.9682 622.7549,-2410.9682 628.7549,-2404.9682 634.7549,-2404.9682"/>
<text text-anchor="middle" x="672.7549" y="-2464.1682" font-family="Times,serif" font-size="11.00" fill="#c0c0c0">Indexes</text>
</g>
<g id="clust17" class="cluster">
<title>cluster_\Firesphere\SolrSearch\Helpers</title>
<path fill="none" stroke="#c0c0c0" d="M624.7549,-2108.9682C624.7549,-2108.9682 720.7549,-2108.9682 720.7549,-2108.9682 726.7549,-2108.9682 732.7549,-2114.9682 732.7549,-2120.9682 732.7549,-2120.9682 732.7549,-2384.9682 732.7549,-2384.9682 732.7549,-2390.9682 726.7549,-2396.9682 720.7549,-2396.9682 720.7549,-2396.9682 624.7549,-2396.9682 624.7549,-2396.9682 618.7549,-2396.9682 612.7549,-2390.9682 612.7549,-2384.9682 612.7549,-2384.9682 612.7549,-2120.9682 612.7549,-2120.9682 612.7549,-2114.9682 618.7549,-2108.9682 624.7549,-2108.9682"/>
<text text-anchor="middle" x="672.7549" y="-2384.1682" font-family="Times,serif" font-size="11.00" fill="#c0c0c0">Helpers</text>
</g>
<g id="clust18" class="cluster">
<title>cluster_\Firesphere\SolrSearch\Factories</title>
<path fill="none" stroke="#c0c0c0" d="M597.7549,-1974.9682C597.7549,-1974.9682 747.7549,-1974.9682 747.7549,-1974.9682 753.7549,-1974.9682 759.7549,-1980.9682 759.7549,-1986.9682 759.7549,-1986.9682 759.7549,-2088.9682 759.7549,-2088.9682 759.7549,-2094.9682 753.7549,-2100.9682 747.7549,-2100.9682 747.7549,-2100.9682 597.7549,-2100.9682 597.7549,-2100.9682 591.7549,-2100.9682 585.7549,-2094.9682 585.7549,-2088.9682 585.7549,-2088.9682 585.7549,-1986.9682 585.7549,-1986.9682 585.7549,-1980.9682 591.7549,-1974.9682 597.7549,-1974.9682"/>
<text text-anchor="middle" x="672.7549" y="-2088.1682" font-family="Times,serif" font-size="11.00" fill="#c0c0c0">Factories</text>
</g>
<g id="clust19" class="cluster">
<title>cluster_\Firesphere\SolrSearch\Stores</title>
<path fill="none" stroke="#c0c0c0" d="M617.7549,-1840.9682C617.7549,-1840.9682 727.7549,-1840.9682 727.7549,-1840.9682 733.7549,-1840.9682 739.7549,-1846.9682 739.7549,-1852.9682 739.7549,-1852.9682 739.7549,-1954.9682 739.7549,-1954.9682 739.7549,-1960.9682 733.7549,-1966.9682 727.7549,-1966.9682 727.7549,-1966.9682 617.7549,-1966.9682 617.7549,-1966.9682 611.7549,-1966.9682 605.7549,-1960.9682 605.7549,-1954.9682 605.7549,-1954.9682 605.7549,-1852.9682 605.7549,-1852.9682 605.7549,-1846.9682 611.7549,-1840.9682 617.7549,-1840.9682"/>
<text text-anchor="middle" x="672.7549" y="-1954.1682" font-family="Times,serif" font-size="11.00" fill="#c0c0c0">Stores</text>
</g>
<g id="clust20" class="cluster">
<title>cluster_\Firesphere\SolrSearch\Interfaces</title>
<path fill="none" stroke="#c0c0c0" d="M189.1275,-1813.9682C189.1275,-1813.9682 319.1275,-1813.9682 319.1275,-1813.9682 325.1275,-1813.9682 331.1275,-1819.9682 331.1275,-1825.9682 331.1275,-1825.9682 331.1275,-1927.9682 331.1275,-1927.9682 331.1275,-1933.9682 325.1275,-1939.9682 319.1275,-1939.9682 319.1275,-1939.9682 189.1275,-1939.9682 189.1275,-1939.9682 183.1275,-1939.9682 177.1275,-1933.9682 177.1275,-1927.9682 177.1275,-1927.9682 177.1275,-1825.9682 177.1275,-1825.9682 177.1275,-1819.9682 183.1275,-1813.9682 189.1275,-1813.9682"/>
<text text-anchor="middle" x="254.1275" y="-1927.1682" font-family="Times,serif" font-size="11.00" fill="#c0c0c0">Interfaces</text>
</g>
<g id="clust21" class="cluster">
<title>cluster_\Firesphere\SolrSearch\Jobs</title>
<path fill="none" stroke="#c0c0c0" d="M600.7549,-1652.9682C600.7549,-1652.9682 744.7549,-1652.9682 744.7549,-1652.9682 750.7549,-1652.9682 756.7549,-1658.9682 756.7549,-1664.9682 756.7549,-1664.9682 756.7549,-1820.9682 756.7549,-1820.9682 756.7549,-1826.9682 750.7549,-1832.9682 744.7549,-1832.9682 744.7549,-1832.9682 600.7549,-1832.9682 600.7549,-1832.9682 594.7549,-1832.9682 588.7549,-1826.9682 588.7549,-1820.9682 588.7549,-1820.9682 588.7549,-1664.9682 588.7549,-1664.9682 588.7549,-1658.9682 594.7549,-1652.9682 600.7549,-1652.9682"/>
<text text-anchor="middle" x="672.7549" y="-1820.1682" font-family="Times,serif" font-size="11.00" fill="#c0c0c0">Jobs</text>
</g>
<g id="clust22" class="cluster">
<title>cluster_\Firesphere\SolrSearch\States</title>
<path fill="none" stroke="#c0c0c0" d="M634.7549,-1572.9682C634.7549,-1572.9682 710.7549,-1572.9682 710.7549,-1572.9682 716.7549,-1572.9682 722.7549,-1578.9682 722.7549,-1584.9682 722.7549,-1584.9682 722.7549,-1632.9682 722.7549,-1632.9682 722.7549,-1638.9682 716.7549,-1644.9682 710.7549,-1644.9682 710.7549,-1644.9682 634.7549,-1644.9682 634.7549,-1644.9682 628.7549,-1644.9682 622.7549,-1638.9682 622.7549,-1632.9682 622.7549,-1632.9682 622.7549,-1584.9682 622.7549,-1584.9682 622.7549,-1578.9682 628.7549,-1572.9682 634.7549,-1572.9682"/>
<text text-anchor="middle" x="672.7549" y="-1632.1682" font-family="Times,serif" font-size="11.00" fill="#c0c0c0">States</text>
</g>
<g id="clust23" class="cluster">
<title>cluster_\Firesphere\SolrSearch\Results</title>
<path fill="none" stroke="#c0c0c0" d="M627.7549,-1492.9682C627.7549,-1492.9682 717.7549,-1492.9682 717.7549,-1492.9682 723.7549,-1492.9682 729.7549,-1498.9682 729.7549,-1504.9682 729.7549,-1504.9682 729.7549,-1552.9682 729.7549,-1552.9682 729.7549,-1558.9682 723.7549,-1564.9682 717.7549,-1564.9682 717.7549,-1564.9682 627.7549,-1564.9682 627.7549,-1564.9682 621.7549,-1564.9682 615.7549,-1558.9682 615.7549,-1552.9682 615.7549,-1552.9682 615.7549,-1504.9682 615.7549,-1504.9682 615.7549,-1498.9682 621.7549,-1492.9682 627.7549,-1492.9682"/>
<text text-anchor="middle" x="672.7549" y="-1552.1682" font-family="Times,serif" font-size="11.00" fill="#c0c0c0">Results</text>
</g>
<g id="clust24" class="cluster">
<title>cluster_\Firesphere\SolrSearch\Tasks</title>
<path fill="none" stroke="#c0c0c0" d="M597.7549,-1250.9682C597.7549,-1250.9682 747.7549,-1250.9682 747.7549,-1250.9682 753.7549,-1250.9682 759.7549,-1256.9682 759.7549,-1262.9682 759.7549,-1262.9682 759.7549,-1472.9682 759.7549,-1472.9682 759.7549,-1478.9682 753.7549,-1484.9682 747.7549,-1484.9682 747.7549,-1484.9682 597.7549,-1484.9682 597.7549,-1484.9682 591.7549,-1484.9682 585.7549,-1478.9682 585.7549,-1472.9682 585.7549,-1472.9682 585.7549,-1262.9682 585.7549,-1262.9682 585.7549,-1256.9682 591.7549,-1250.9682 597.7549,-1250.9682"/>
<text text-anchor="middle" x="672.7549" y="-1472.1682" font-family="Times,serif" font-size="11.00" fill="#c0c0c0">Tasks</text>
</g>
<g id="clust25" class="cluster">
<title>cluster_\Firesphere\SolrSearch\Forms</title>
<path fill="none" stroke="#c0c0c0" d="M634.7549,-1170.9682C634.7549,-1170.9682 710.7549,-1170.9682 710.7549,-1170.9682 716.7549,-1170.9682 722.7549,-1176.9682 722.7549,-1182.9682 722.7549,-1182.9682 722.7549,-1230.9682 722.7549,-1230.9682 722.7549,-1236.9682 716.7549,-1242.9682 710.7549,-1242.9682 710.7549,-1242.9682 634.7549,-1242.9682 634.7549,-1242.9682 628.7549,-1242.9682 622.7549,-1236.9682 622.7549,-1230.9682 622.7549,-1230.9682 622.7549,-1182.9682 622.7549,-1182.9682 622.7549,-1176.9682 628.7549,-1170.9682 634.7549,-1170.9682"/>
<text text-anchor="middle" x="672.7549" y="-1230.1682" font-family="Times,serif" font-size="11.00" fill="#c0c0c0">Forms</text>
</g>
<g id="clust26" class="cluster">
<title>cluster_\Firesphere\SolrSearch\Queries</title>
<path fill="none" stroke="#c0c0c0" d="M638.2549,-1090.9682C638.2549,-1090.9682 707.2549,-1090.9682 707.2549,-1090.9682 713.2549,-1090.9682 719.2549,-1096.9682 719.2549,-1102.9682 719.2549,-1102.9682 719.2549,-1150.9682 719.2549,-1150.9682 719.2549,-1156.9682 713.2549,-1162.9682 707.2549,-1162.9682 707.2549,-1162.9682 638.2549,-1162.9682 638.2549,-1162.9682 632.2549,-1162.9682 626.2549,-1156.9682 626.2549,-1150.9682 626.2549,-1150.9682 626.2549,-1102.9682 626.2549,-1102.9682 626.2549,-1096.9682 632.2549,-1090.9682 638.2549,-1090.9682"/>
<text text-anchor="middle" x="672.7549" y="-1150.1682" font-family="Times,serif" font-size="11.00" fill="#c0c0c0">Queries</text>
</g>
<g id="clust27" class="cluster">
<title>cluster_\Firesphere\SolrSearch\Subsites</title>
<path fill="none" stroke="#c0c0c0" d="M611.2549,-1010.9682C611.2549,-1010.9682 734.2549,-1010.9682 734.2549,-1010.9682 740.2549,-1010.9682 746.2549,-1016.9682 746.2549,-1022.9682 746.2549,-1022.9682 746.2549,-1070.9682 746.2549,-1070.9682 746.2549,-1076.9682 740.2549,-1082.9682 734.2549,-1082.9682 734.2549,-1082.9682 611.2549,-1082.9682 611.2549,-1082.9682 605.2549,-1082.9682 599.2549,-1076.9682 599.2549,-1070.9682 599.2549,-1070.9682 599.2549,-1022.9682 599.2549,-1022.9682 599.2549,-1016.9682 605.2549,-1010.9682 611.2549,-1010.9682"/>
<text text-anchor="middle" x="672.7549" y="-1070.1682" font-family="Times,serif" font-size="11.00" fill="#c0c0c0">Subsites</text>
</g>
<g id="clust28" class="cluster">
<title>cluster_\Firesphere\SolrFluent</title>
<path fill="none" stroke="#c0c0c0" d="M582.7549,-662.9682C582.7549,-662.9682 762.7549,-662.9682 762.7549,-662.9682 768.7549,-662.9682 774.7549,-668.9682 774.7549,-674.9682 774.7549,-674.9682 774.7549,-866.9682 774.7549,-866.9682 774.7549,-872.9682 768.7549,-878.9682 762.7549,-878.9682 762.7549,-878.9682 582.7549,-878.9682 582.7549,-878.9682 576.7549,-878.9682 570.7549,-872.9682 570.7549,-866.9682 570.7549,-866.9682 570.7549,-674.9682 570.7549,-674.9682 570.7549,-668.9682 576.7549,-662.9682 582.7549,-662.9682"/>
<text text-anchor="middle" x="672.7549" y="-866.1682" font-family="Times,serif" font-size="11.00" fill="#c0c0c0">SolrFluent</text>
</g>
<g id="clust29" class="cluster">
<title>cluster_\Firesphere\SolrFluent\Extensions</title>
<path fill="none" stroke="#c0c0c0" d="M590.7549,-670.9682C590.7549,-670.9682 754.7549,-670.9682 754.7549,-670.9682 760.7549,-670.9682 766.7549,-676.9682 766.7549,-682.9682 766.7549,-682.9682 766.7549,-838.9682 766.7549,-838.9682 766.7549,-844.9682 760.7549,-850.9682 754.7549,-850.9682 754.7549,-850.9682 590.7549,-850.9682 590.7549,-850.9682 584.7549,-850.9682 578.7549,-844.9682 578.7549,-838.9682 578.7549,-838.9682 578.7549,-682.9682 578.7549,-682.9682 578.7549,-676.9682 584.7549,-670.9682 590.7549,-670.9682"/>
<text text-anchor="middle" x="672.7549" y="-838.1682" font-family="Times,serif" font-size="11.00" fill="#c0c0c0">Extensions</text>
</g>
<g id="clust30" class="cluster">
<title>cluster_\Firesphere\SolrPermissions</title>
<path fill="none" stroke="#c0c0c0" d="M596.2549,-492.9682C596.2549,-492.9682 749.2549,-492.9682 749.2549,-492.9682 755.2549,-492.9682 761.2549,-498.9682 761.2549,-504.9682 761.2549,-504.9682 761.2549,-642.9682 761.2549,-642.9682 761.2549,-648.9682 755.2549,-654.9682 749.2549,-654.9682 749.2549,-654.9682 596.2549,-654.9682 596.2549,-654.9682 590.2549,-654.9682 584.2549,-648.9682 584.2549,-642.9682 584.2549,-642.9682 584.2549,-504.9682 584.2549,-504.9682 584.2549,-498.9682 590.2549,-492.9682 596.2549,-492.9682"/>
<text text-anchor="middle" x="672.7549" y="-642.1682" font-family="Times,serif" font-size="11.00" fill="#c0c0c0">SolrPermissions</text>
</g>
<g id="clust31" class="cluster">
<title>cluster_\Firesphere\SolrPermissions\Extensions</title>
<path fill="none" stroke="#c0c0c0" d="M604.2549,-500.9682C604.2549,-500.9682 741.2549,-500.9682 741.2549,-500.9682 747.2549,-500.9682 753.2549,-506.9682 753.2549,-512.9682 753.2549,-512.9682 753.2549,-614.9682 753.2549,-614.9682 753.2549,-620.9682 747.2549,-626.9682 741.2549,-626.9682 741.2549,-626.9682 604.2549,-626.9682 604.2549,-626.9682 598.2549,-626.9682 592.2549,-620.9682 592.2549,-614.9682 592.2549,-614.9682 592.2549,-512.9682 592.2549,-512.9682 592.2549,-506.9682 598.2549,-500.9682 604.2549,-500.9682"/>
<text text-anchor="middle" x="672.7549" y="-614.1682" font-family="Times,serif" font-size="11.00" fill="#c0c0c0">Extensions</text>
</g>
<!-- \\SilverStripe\\FullTextSearch\\Solr\\Solr -->
<g id="node1" class="node">
<title>\\SilverStripe\\FullTextSearch\\Solr\\Solr</title>
<polygon fill="none" stroke="#000000" points="909.7549,-1899.9682 855.7549,-1899.9682 855.7549,-1863.9682 909.7549,-1863.9682 909.7549,-1899.9682"/>
<text text-anchor="middle" x="882.7549" y="-1879.1682" font-family="Courier,monospace" font-size="11.00" fill="#000000">Solr</text>
</g>
<!-- \\SilverStripe\\FullTextSearch\\Solr\\SolrIndex -->
<g id="node2" class="node">
<title>\\SilverStripe\\FullTextSearch\\Solr\\SolrIndex</title>
<polygon fill="none" stroke="#000000" points="924.7549,-1845.9682 840.7549,-1845.9682 840.7549,-1809.9682 924.7549,-1809.9682 924.7549,-1845.9682"/>
<text text-anchor="start" x="848.7549" y="-1831.1682" font-family="Courier,monospace" font-size="11.00" fill="#000000">«abstract»</text>
<text text-anchor="start" x="852.2549" y="-1819.1682" font-family="Courier,monospace" font-size="11.00" fill="#000000">SolrIndex</text>
</g>
<!-- \\Firesphere\\SolrSearch\\Indexes\\BaseIndex -->
<g id="node29" class="node">
<title>\\Firesphere\\SolrSearch\\Indexes\\BaseIndex</title>
<polygon fill="none" stroke="#000000" points="714.7549,-2448.9682 630.7549,-2448.9682 630.7549,-2412.9682 714.7549,-2412.9682 714.7549,-2448.9682"/>
<text text-anchor="start" x="638.7549" y="-2434.1682" font-family="Courier,monospace" font-size="11.00" fill="#000000">«abstract»</text>
<text text-anchor="start" x="642.2549" y="-2422.1682" font-family="Courier,monospace" font-size="11.00" fill="#000000">BaseIndex</text>
</g>
<!-- \\SilverStripe\\FullTextSearch\\Solr\\SolrIndex&#45;&gt;\\Firesphere\\SolrSearch\\Indexes\\BaseIndex -->
<g id="edge2" class="edge">
<title>\\SilverStripe\\FullTextSearch\\Solr\\SolrIndex&#45;&gt;\\Firesphere\\SolrSearch\\Indexes\\BaseIndex</title>
<path fill="none" stroke="#000000" d="M840.4692,-1833.1399C827.072,-1836.9751 813.5927,-1843.5907 805.2549,-1854.9682 769.3792,-1903.9226 827.1356,-2353.5481 789.2549,-2400.9682 774.0391,-2420.0158 748.4783,-2427.9305 725.1699,-2430.9046"/>
<polygon fill="none" stroke="#000000" points="724.6131,-2427.4427 715.011,-2431.9204 725.3096,-2434.408 724.6131,-2427.4427"/>
</g>
<!-- \\SilverStripe\\FullTextSearch\\Search\\Queries\\SearchQuery -->
<g id="node3" class="node">
<title>\\SilverStripe\\FullTextSearch\\Search\\Queries\\SearchQuery</title>
<polygon fill="none" stroke="#000000" points="928.2549,-1737.9682 837.2549,-1737.9682 837.2549,-1701.9682 928.2549,-1701.9682 928.2549,-1737.9682"/>
<text text-anchor="middle" x="882.7549" y="-1717.1682" font-family="Courier,monospace" font-size="11.00" fill="#000000">SearchQuery</text>
</g>
<!-- \\Firesphere\\SolrSearch\\Queries\\BaseQuery -->
<g id="node51" class="node">
<title>\\Firesphere\\SolrSearch\\Queries\\BaseQuery</title>
<polygon fill="none" stroke="#000000" points="711.2549,-1134.9682 634.2549,-1134.9682 634.2549,-1098.9682 711.2549,-1098.9682 711.2549,-1134.9682"/>
<text text-anchor="middle" x="672.7549" y="-1114.1682" font-family="Courier,monospace" font-size="11.00" fill="#000000">BaseQuery</text>
</g>
<!-- \\SilverStripe\\FullTextSearch\\Search\\Queries\\SearchQuery&#45;&gt;\\Firesphere\\SolrSearch\\Queries\\BaseQuery -->
<g id="edge3" class="edge">
<title>\\SilverStripe\\FullTextSearch\\Search\\Queries\\SearchQuery&#45;&gt;\\Firesphere\\SolrSearch\\Queries\\BaseQuery</title>
<path fill="none" stroke="#000000" d="M881.9796,-1701.9646C877.9744,-1616.6103 857.1226,-1253.2615 789.2549,-1166.9682 772.5726,-1145.7567 745.1471,-1133.3942 721.0956,-1126.2698"/>
<polygon fill="none" stroke="#000000" points="721.9525,-1122.8757 711.3834,-1123.614 720.106,-1129.6278 721.9525,-1122.8757"/>
</g>
<!-- \\Firesphere\\SolrCompatibility\\Extensions\\FulltextSearchExtension -->
<g id="node4" class="node">
<title>\\Firesphere\\SolrCompatibility\\Extensions\\FulltextSearchExtension</title>
<polygon fill="none" stroke="#000000" points="758.7549,-938.9682 586.7549,-938.9682 586.7549,-902.9682 758.7549,-902.9682 758.7549,-938.9682"/>
<text text-anchor="middle" x="672.7549" y="-918.1682" font-family="Courier,monospace" font-size="11.00" fill="#000000">FulltextSearchExtension</text>
</g>
<!-- \\SilverStripe\\Core\\Extension -->
<g id="node58" class="node">
<title>\\SilverStripe\\Core\\Extension</title>
<ellipse fill="none" stroke="#000000" cx="254.1275" cy="-72.9682" rx="144.0747" ry="18"/>
<text text-anchor="middle" x="254.1275" y="-69.2682" font-family="Times,serif" font-size="14.00" fill="#c0c0c0">\SilverStripe\Core\Extension</text>
</g>
<!-- \\Firesphere\\SolrCompatibility\\Extensions\\FulltextSearchExtension&#45;&gt;\\SilverStripe\\Core\\Extension -->
<g id="edge1" class="edge">
<title>\\Firesphere\\SolrCompatibility\\Extensions\\FulltextSearchExtension&#45;&gt;\\SilverStripe\\Core\\Extension</title>
<path fill="none" stroke="#000000" d="M627.2006,-902.8597C606.4038,-892.145 583.5955,-876.4118 570.7549,-854.9682 484.2653,-710.5319 625.9053,-220.3869 508.2549,-99.9682 466.1497,-56.8723 397.2063,-51.9002 341.7459,-56.7323"/>
<polygon fill="none" stroke="#000000" points="341.1628,-53.2729 331.5566,-57.7417 341.8529,-60.2388 341.1628,-53.2729"/>
</g>
<!-- \\Firesphere\\SolrSearch\\Admins\\SearchAdmin -->
<g id="node5" class="node">
<title>\\Firesphere\\SolrSearch\\Admins\\SearchAdmin</title>
<polygon fill="none" stroke="#000000" points="718.2549,-3874.9682 627.2549,-3874.9682 627.2549,-3838.9682 718.2549,-3838.9682 718.2549,-3874.9682"/>
<text text-anchor="middle" x="672.7549" y="-3854.1682" font-family="Courier,monospace" font-size="11.00" fill="#000000">SearchAdmin</text>
</g>
<!-- \\SilverStripe\\Admin\\ModelAdmin -->
<g id="node59" class="node">
<title>\\SilverStripe\\Admin\\ModelAdmin</title>
<ellipse fill="none" stroke="#000000" cx="254.1275" cy="-450.9682" rx="165.1707" ry="18"/>
<text text-anchor="middle" x="254.1275" y="-447.2682" font-family="Times,serif" font-size="14.00" fill="#c0c0c0">\SilverStripe\Admin\ModelAdmin</text>
</g>
<!-- \\Firesphere\\SolrSearch\\Admins\\SearchAdmin&#45;&gt;\\SilverStripe\\Admin\\ModelAdmin -->
<g id="edge4" class="edge">
<title>\\Firesphere\\SolrSearch\\Admins\\SearchAdmin&#45;&gt;\\SilverStripe\\Admin\\ModelAdmin</title>
<path fill="none" stroke="#000000" d="M627.138,-3855.1967C606.5917,-3851.8583 584.0159,-3844.1304 570.7549,-3826.9682 502.2084,-3738.2558 520.3301,-1921.4253 508.2549,-1809.9682 449.6724,-1269.2388 295.6943,-621.0079 261.0963,-479.2339"/>
<polygon fill="none" stroke="#000000" points="264.4164,-478.0765 258.6391,-469.1955 257.6171,-479.7409 264.4164,-478.0765"/>
</g>
<!-- \\Firesphere\\SolrSearch\\Models\\DirtyClass -->
<g id="node6" class="node">
<title>\\Firesphere\\SolrSearch\\Models\\DirtyClass</title>
<polygon fill="none" stroke="#000000" points="714.7549,-3794.9682 630.7549,-3794.9682 630.7549,-3758.9682 714.7549,-3758.9682 714.7549,-3794.9682"/>
<text text-anchor="middle" x="672.7549" y="-3774.1682" font-family="Courier,monospace" font-size="11.00" fill="#000000">DirtyClass</text>
</g>
<!-- \\SilverStripe\\ORM\\DataObject -->
<g id="node60" class="node">
<title>\\SilverStripe\\ORM\\DataObject</title>
<ellipse fill="none" stroke="#000000" cx="254.1275" cy="-396.9682" rx="152.9733" ry="18"/>
<text text-anchor="middle" x="254.1275" y="-393.2682" font-family="Times,serif" font-size="14.00" fill="#c0c0c0">\SilverStripe\ORM\DataObject</text>
</g>
<!-- \\Firesphere\\SolrSearch\\Models\\DirtyClass&#45;&gt;\\SilverStripe\\ORM\\DataObject -->
<g id="edge5" class="edge">
<title>\\Firesphere\\SolrSearch\\Models\\DirtyClass&#45;&gt;\\SilverStripe\\ORM\\DataObject</title>
<path fill="none" stroke="#000000" d="M630.5503,-3777.0879C609.1478,-3774.7301 584.7784,-3767.837 570.7549,-3749.9682 456.6567,-3604.5842 633.1251,-560.2118 508.2549,-423.9682 466.7543,-378.6876 395.8226,-374.4844 339.4271,-380.173"/>
<polygon fill="none" stroke="#000000" points="338.9813,-376.701 329.4356,-381.2979 339.7645,-383.6571 338.9813,-376.701"/>
</g>
<!-- \\Firesphere\\SolrSearch\\Models\\SearchSynonym -->
<g id="node7" class="node">
<title>\\Firesphere\\SolrSearch\\Models\\SearchSynonym</title>
<polygon fill="none" stroke="#000000" points="724.7549,-3740.9682 620.7549,-3740.9682 620.7549,-3704.9682 724.7549,-3704.9682 724.7549,-3740.9682"/>
<text text-anchor="middle" x="672.7549" y="-3720.1682" font-family="Courier,monospace" font-size="11.00" fill="#000000">SearchSynonym</text>
</g>
<!-- \\Firesphere\\SolrSearch\\Models\\SearchSynonym&#45;&gt;\\SilverStripe\\ORM\\DataObject -->
<g id="edge6" class="edge">
<title>\\Firesphere\\SolrSearch\\Models\\SearchSynonym&#45;&gt;\\SilverStripe\\ORM\\DataObject</title>
<path fill="none" stroke="#000000" d="M620.5535,-3721.6595C601.9255,-3718.3578 582.632,-3711.0972 570.7549,-3695.9682 458.4864,-3552.9612 631.1192,-557.9815 508.2549,-423.9682 466.7473,-378.6941 395.8161,-374.4903 339.4227,-380.1771"/>
<polygon fill="none" stroke="#000000" points="338.9773,-376.705 329.4316,-381.3016 339.7603,-383.6611 338.9773,-376.705"/>
</g>
<!-- \\Firesphere\\SolrSearch\\Models\\SolrLog -->
<g id="node8" class="node">
<title>\\Firesphere\\SolrSearch\\Models\\SolrLog</title>
<polygon fill="none" stroke="#000000" points="704.7549,-3686.9682 640.7549,-3686.9682 640.7549,-3650.9682 704.7549,-3650.9682 704.7549,-3686.9682"/>
<text text-anchor="middle" x="672.7549" y="-3666.1682" font-family="Courier,monospace" font-size="11.00" fill="#000000">SolrLog</text>
</g>
<!-- \\Firesphere\\SolrSearch\\Models\\SolrLog&#45;&gt;\\SilverStripe\\ORM\\DataObject -->
<g id="edge7" class="edge">
<title>\\Firesphere\\SolrSearch\\Models\\SolrLog&#45;&gt;\\SilverStripe\\ORM\\DataObject</title>
<path fill="none" stroke="#000000" d="M640.5298,-3668.8971C617.1422,-3666.9459 586.885,-3660.0945 570.7549,-3638.9682 462.3443,-3496.9783 629.0019,-555.6274 508.2549,-423.9682 466.7396,-378.7011 395.8091,-374.4967 339.4178,-380.1815"/>
<polygon fill="none" stroke="#000000" points="338.973,-376.7094 329.4271,-381.3057 339.7558,-383.6655 338.973,-376.7094"/>
</g>
<!-- \\SilverStripe\\Security\\PermissionProvider -->
<g id="node61" class="node">
<title>\\SilverStripe\\Security\\PermissionProvider</title>
<ellipse fill="none" stroke="#000000" cx="254.1275" cy="-342.9682" rx="206.0634" ry="18"/>
<text text-anchor="middle" x="254.1275" y="-339.2682" font-family="Times,serif" font-size="14.00" fill="#c0c0c0">\SilverStripe\Security\PermissionProvider</text>
</g>
<!-- \\Firesphere\\SolrSearch\\Models\\SolrLog&#45;&gt;\\SilverStripe\\Security\\PermissionProvider -->
<g id="edge8" class="edge">
<title>\\Firesphere\\SolrSearch\\Models\\SolrLog&#45;&gt;\\SilverStripe\\Security\\PermissionProvider</title>
<path fill="none" stroke="#000000" stroke-dasharray="1,5" d="M640.5279,-3668.8986C617.1392,-3666.9481 586.8816,-3660.097 570.7549,-3638.9682 460.5472,-3494.5766 631.0078,-503.8576 508.2549,-369.9682 468.5264,-326.6354 401.8436,-320.9265 346.7521,-325.5029"/>
<polygon fill="none" stroke="#000000" points="346.2318,-322.0366 336.6094,-326.4704 346.8965,-329.0049 346.2318,-322.0366"/>
</g>
<!-- \\Firesphere\\SolrSearch\\Traits\\CoreAdminTrait -->
<g id="node9" class="node">
<title>\\Firesphere\\SolrSearch\\Traits\\CoreAdminTrait</title>
<polygon fill="none" stroke="#000000" points="728.2549,-3606.9682 617.2549,-3606.9682 617.2549,-3570.9682 728.2549,-3570.9682 728.2549,-3606.9682"/>
<text text-anchor="middle" x="672.7549" y="-3586.1682" font-family="Courier,monospace" font-size="11.00" fill="#000000">CoreAdminTrait</text>
</g>
<!-- \\Firesphere\\SolrSearch\\Traits\\CoreServiceTrait -->
<g id="node10" class="node">
<title>\\Firesphere\\SolrSearch\\Traits\\CoreServiceTrait</title>
<polygon fill="none" stroke="#000000" points="735.2549,-3552.9682 610.2549,-3552.9682 610.2549,-3516.9682 735.2549,-3516.9682 735.2549,-3552.9682"/>
<text text-anchor="middle" x="672.7549" y="-3532.1682" font-family="Courier,monospace" font-size="11.00" fill="#000000">CoreServiceTrait</text>
</g>
<!-- \\Firesphere\\SolrSearch\\Traits\\GetSetSearchResolverTrait -->
<g id="node11" class="node">
<title>\\Firesphere\\SolrSearch\\Traits\\GetSetSearchResolverTrait</title>
<polygon fill="none" stroke="#000000" points="765.2549,-3498.9682 580.2549,-3498.9682 580.2549,-3462.9682 765.2549,-3462.9682 765.2549,-3498.9682"/>
<text text-anchor="middle" x="672.7549" y="-3478.1682" font-family="Courier,monospace" font-size="11.00" fill="#000000">GetSetSearchResolverTrait</text>
</g>
<!-- \\Firesphere\\SolrSearch\\Traits\\BaseIndexTrait -->
<g id="node12" class="node">
<title>\\Firesphere\\SolrSearch\\Traits\\BaseIndexTrait</title>
<polygon fill="none" stroke="#000000" points="728.2549,-3444.9682 617.2549,-3444.9682 617.2549,-3408.9682 728.2549,-3408.9682 728.2549,-3444.9682"/>
<text text-anchor="middle" x="672.7549" y="-3424.1682" font-family="Courier,monospace" font-size="11.00" fill="#000000">BaseIndexTrait</text>
</g>
<!-- \\Firesphere\\SolrSearch\\Traits\\SolrIndexTrait -->
<g id="node13" class="node">
<title>\\Firesphere\\SolrSearch\\Traits\\SolrIndexTrait</title>
<polygon fill="none" stroke="#000000" points="728.2549,-3390.9682 617.2549,-3390.9682 617.2549,-3354.9682 728.2549,-3354.9682 728.2549,-3390.9682"/>
<text text-anchor="middle" x="672.7549" y="-3370.1682" font-family="Courier,monospace" font-size="11.00" fill="#000000">SolrIndexTrait</text>
</g>
<!-- \\Firesphere\\SolrSearch\\Traits\\BaseQueryTrait -->
<g id="node14" class="node">
<title>\\Firesphere\\SolrSearch\\Traits\\BaseQueryTrait</title>
<polygon fill="none" stroke="#000000" points="728.2549,-3336.9682 617.2549,-3336.9682 617.2549,-3300.9682 728.2549,-3300.9682 728.2549,-3336.9682"/>
<text text-anchor="middle" x="672.7549" y="-3316.1682" font-family="Courier,monospace" font-size="11.00" fill="#000000">BaseQueryTrait</text>
</g>
<!-- \\Firesphere\\SolrSearch\\Traits\\SearchResultSetTrait -->
<g id="node15" class="node">
<title>\\Firesphere\\SolrSearch\\Traits\\SearchResultSetTrait</title>
<polygon fill="none" stroke="#000000" points="748.7549,-3282.9682 596.7549,-3282.9682 596.7549,-3246.9682 748.7549,-3246.9682 748.7549,-3282.9682"/>
<text text-anchor="middle" x="672.7549" y="-3262.1682" font-family="Courier,monospace" font-size="11.00" fill="#000000">SearchResultSetTrait</text>
</g>
<!-- \\Firesphere\\SolrSearch\\Traits\\SearchResultGetTrait -->
<g id="node16" class="node">
<title>\\Firesphere\\SolrSearch\\Traits\\SearchResultGetTrait</title>
<polygon fill="none" stroke="#000000" points="748.7549,-3228.9682 596.7549,-3228.9682 596.7549,-3192.9682 748.7549,-3192.9682 748.7549,-3228.9682"/>
<text text-anchor="middle" x="672.7549" y="-3208.1682" font-family="Courier,monospace" font-size="11.00" fill="#000000">SearchResultGetTrait</text>
</g>
<!-- \\Firesphere\\SolrSearch\\Traits\\GetterSetterTrait -->
<g id="node17" class="node">
<title>\\Firesphere\\SolrSearch\\Traits\\GetterSetterTrait</title>
<polygon fill="none" stroke="#000000" points="738.2549,-3174.9682 607.2549,-3174.9682 607.2549,-3138.9682 738.2549,-3138.9682 738.2549,-3174.9682"/>
<text text-anchor="middle" x="672.7549" y="-3154.1682" font-family="Courier,monospace" font-size="11.00" fill="#000000">GetterSetterTrait</text>
</g>
<!-- \\Firesphere\\SolrSearch\\Traits\\DataResolveTrait -->
<g id="node18" class="node">
<title>\\Firesphere\\SolrSearch\\Traits\\DataResolveTrait</title>
<polygon fill="none" stroke="#000000" points="735.2549,-3120.9682 610.2549,-3120.9682 610.2549,-3084.9682 735.2549,-3084.9682 735.2549,-3120.9682"/>
<text text-anchor="middle" x="672.7549" y="-3100.1682" font-family="Courier,monospace" font-size="11.00" fill="#000000">DataResolveTrait</text>
</g>
<!-- \\Firesphere\\SolrSearch\\Traits\\DocumentFactoryTrait -->
<g id="node19" class="node">
<title>\\Firesphere\\SolrSearch\\Traits\\DocumentFactoryTrait</title>
<polygon fill="none" stroke="#000000" points="748.7549,-3066.9682 596.7549,-3066.9682 596.7549,-3030.9682 748.7549,-3030.9682 748.7549,-3066.9682"/>
<text text-anchor="middle" x="672.7549" y="-3046.1682" font-family="Courier,monospace" font-size="11.00" fill="#000000">DocumentFactoryTrait</text>
</g>
<!-- \\Firesphere\\SolrSearch\\Traits\\GetSetSchemaServiceTrait -->
<g id="node20" class="node">
<title>\\Firesphere\\SolrSearch\\Traits\\GetSetSchemaServiceTrait</title>
<polygon fill="none" stroke="#000000" points="762.2549,-3012.9682 583.2549,-3012.9682 583.2549,-2976.9682 762.2549,-2976.9682 762.2549,-3012.9682"/>
<text text-anchor="middle" x="672.7549" y="-2992.1682" font-family="Courier,monospace" font-size="11.00" fill="#000000">GetSetSchemaServiceTrait</text>
</g>
<!-- \\Firesphere\\SolrSearch\\Traits\\QueryComponentFilterTrait -->
<g id="node21" class="node">
<title>\\Firesphere\\SolrSearch\\Traits\\QueryComponentFilterTrait</title>
<polygon fill="none" stroke="#000000" points="765.2549,-2958.9682 580.2549,-2958.9682 580.2549,-2922.9682 765.2549,-2922.9682 765.2549,-2958.9682"/>
<text text-anchor="middle" x="672.7549" y="-2938.1682" font-family="Courier,monospace" font-size="11.00" fill="#000000">QueryComponentFilterTrait</text>
</g>
<!-- \\Firesphere\\SolrSearch\\Traits\\QueryComponentFacetTrait -->
<g id="node22" class="node">
<title>\\Firesphere\\SolrSearch\\Traits\\QueryComponentFacetTrait</title>
<polygon fill="none" stroke="#000000" points="762.2549,-2904.9682 583.2549,-2904.9682 583.2549,-2868.9682 762.2549,-2868.9682 762.2549,-2904.9682"/>
<text text-anchor="middle" x="672.7549" y="-2884.1682" font-family="Courier,monospace" font-size="11.00" fill="#000000">QueryComponentFacetTrait</text>
</g>
<!-- \\Firesphere\\SolrSearch\\Traits\\QueryComponentBoostTrait -->
<g id="node23" class="node">
<title>\\Firesphere\\SolrSearch\\Traits\\QueryComponentBoostTrait</title>
<polygon fill="none" stroke="#000000" points="762.2549,-2850.9682 583.2549,-2850.9682 583.2549,-2814.9682 762.2549,-2814.9682 762.2549,-2850.9682"/>
<text text-anchor="middle" x="672.7549" y="-2830.1682" font-family="Courier,monospace" font-size="11.00" fill="#000000">QueryComponentBoostTrait</text>
</g>
<!-- \\Firesphere\\SolrSearch\\Traits\\LoggerTrait -->
<g id="node24" class="node">
<title>\\Firesphere\\SolrSearch\\Traits\\LoggerTrait</title>
<polygon fill="none" stroke="#000000" points="718.2549,-2796.9682 627.2549,-2796.9682 627.2549,-2760.9682 718.2549,-2760.9682 718.2549,-2796.9682"/>
<text text-anchor="middle" x="672.7549" y="-2776.1682" font-family="Courier,monospace" font-size="11.00" fill="#000000">LoggerTrait</text>
</g>
<!-- \\Firesphere\\SolrSearch\\Services\\SchemaService -->
<g id="node25" class="node">
<title>\\Firesphere\\SolrSearch\\Services\\SchemaService</title>
<polygon fill="none" stroke="#000000" points="724.7549,-2716.9682 620.7549,-2716.9682 620.7549,-2680.9682 724.7549,-2680.9682 724.7549,-2716.9682"/>
<text text-anchor="middle" x="672.7549" y="-2696.1682" font-family="Courier,monospace" font-size="11.00" fill="#000000">SchemaService</text>
</g>
<!-- \\SilverStripe\\View\\ViewableData -->
<g id="node62" class="node">
<title>\\SilverStripe\\View\\ViewableData</title>
<ellipse fill="none" stroke="#000000" cx="254.1275" cy="-288.9682" rx="163.2712" ry="18"/>
<text text-anchor="middle" x="254.1275" y="-285.2682" font-family="Times,serif" font-size="14.00" fill="#c0c0c0">\SilverStripe\View\ViewableData</text>
</g>
<!-- \\Firesphere\\SolrSearch\\Services\\SchemaService&#45;&gt;\\SilverStripe\\View\\ViewableData -->
<g id="edge9" class="edge">
<title>\\Firesphere\\SolrSearch\\Services\\SchemaService&#45;&gt;\\SilverStripe\\View\\ViewableData</title>
<path fill="none" stroke="#000000" d="M620.612,-2697.6134C601.9916,-2694.3057 582.6881,-2687.053 570.7549,-2671.9682 408.2865,-2466.5908 685.9367,-508.3351 508.2549,-315.9682 467.2326,-271.5555 397.8776,-266.7742 341.9761,-272.0168"/>
<polygon fill="none" stroke="#000000" points="341.28,-268.5709 331.7044,-273.1051 342.0176,-275.532 341.28,-268.5709"/>
</g>
<!-- \\Firesphere\\SolrSearch\\Services\\SolrCoreService -->
<g id="node26" class="node">
<title>\\Firesphere\\SolrSearch\\Services\\SolrCoreService</title>
<polygon fill="none" stroke="#000000" points="731.7549,-2662.9682 613.7549,-2662.9682 613.7549,-2626.9682 731.7549,-2626.9682 731.7549,-2662.9682"/>
<text text-anchor="middle" x="672.7549" y="-2642.1682" font-family="Courier,monospace" font-size="11.00" fill="#000000">SolrCoreService</text>
</g>
<!-- \\Firesphere\\SolrSearch\\Extensions\\GridFieldExtension -->
<g id="node27" class="node">
<title>\\Firesphere\\SolrSearch\\Extensions\\GridFieldExtension</title>
<polygon fill="none" stroke="#000000" points="741.7549,-2582.9682 603.7549,-2582.9682 603.7549,-2546.9682 741.7549,-2546.9682 741.7549,-2582.9682"/>
<text text-anchor="middle" x="672.7549" y="-2562.1682" font-family="Courier,monospace" font-size="11.00" fill="#000000">GridFieldExtension</text>
</g>
<!-- \\Firesphere\\SolrSearch\\Extensions\\GridFieldExtension&#45;&gt;\\SilverStripe\\Core\\Extension -->
<g id="edge10" class="edge">
<title>\\Firesphere\\SolrSearch\\Extensions\\GridFieldExtension&#45;&gt;\\SilverStripe\\Core\\Extension</title>
<path fill="none" stroke="#000000" d="M603.6181,-2559.3856C590.9035,-2555.1629 579.0466,-2548.4594 570.7549,-2537.9682 486.7427,-2431.6705 600.1413,-199.5379 508.2549,-99.9682 466.3868,-54.5992 394.9549,-50.573 338.4664,-56.3504"/>
<polygon fill="none" stroke="#000000" points="338.0022,-52.8805 328.4627,-57.4902 338.7947,-59.8355 338.0022,-52.8805"/>
</g>
<!-- \\Firesphere\\SolrSearch\\Extensions\\DataObjectExtension -->
<g id="node28" class="node">
<title>\\Firesphere\\SolrSearch\\Extensions\\DataObjectExtension</title>
<polygon fill="none" stroke="#000000" points="745.2549,-2528.9682 600.2549,-2528.9682 600.2549,-2492.9682 745.2549,-2492.9682 745.2549,-2528.9682"/>
<text text-anchor="middle" x="672.7549" y="-2508.1682" font-family="Courier,monospace" font-size="11.00" fill="#000000">DataObjectExtension</text>
</g>
<!-- \\SilverStripe\\ORM\\DataExtension -->
<g id="node63" class="node">
<title>\\SilverStripe\\ORM\\DataExtension</title>
<ellipse fill="none" stroke="#000000" cx="254.1275" cy="-18.9682" rx="167.8704" ry="18"/>
<text text-anchor="middle" x="254.1275" y="-15.2682" font-family="Times,serif" font-size="14.00" fill="#c0c0c0">\SilverStripe\ORM\DataExtension</text>
</g>
<!-- \\Firesphere\\SolrSearch\\Extensions\\DataObjectExtension&#45;&gt;\\SilverStripe\\ORM\\DataExtension -->
<g id="edge11" class="edge">
<title>\\Firesphere\\SolrSearch\\Extensions\\DataObjectExtension&#45;&gt;\\SilverStripe\\ORM\\DataExtension</title>
<path fill="none" stroke="#000000" d="M600.1222,-2501.989C588.7105,-2497.4019 578.2342,-2490.7012 570.7549,-2480.9682 488.3002,-2373.6679 600.0299,-145.414 508.2549,-45.9682 467.3934,-1.6913 398.3742,3.2088 342.5684,-1.9513"/>
<polygon fill="none" stroke="#000000" points="341.8932,1.4973 332.3118,-3.0246 342.6218,-5.4647 341.8932,1.4973"/>
</g>
<!-- \\Firesphere\\SolrSearch\\Helpers\\Synonyms -->
<g id="node30" class="node">
<title>\\Firesphere\\SolrSearch\\Helpers\\Synonyms</title>
<polygon fill="none" stroke="#000000" points="708.2549,-2368.9682 637.2549,-2368.9682 637.2549,-2332.9682 708.2549,-2332.9682 708.2549,-2368.9682"/>
<text text-anchor="middle" x="672.7549" y="-2348.1682" font-family="Courier,monospace" font-size="11.00" fill="#000000">Synonyms</text>
</g>
<!-- \\Firesphere\\SolrSearch\\Helpers\\FieldResolver -->
<g id="node31" class="node">
<title>\\Firesphere\\SolrSearch\\Helpers\\FieldResolver</title>
<polygon fill="none" stroke="#000000" points="724.7549,-2314.9682 620.7549,-2314.9682 620.7549,-2278.9682 724.7549,-2278.9682 724.7549,-2314.9682"/>
<text text-anchor="middle" x="672.7549" y="-2294.1682" font-family="Courier,monospace" font-size="11.00" fill="#000000">FieldResolver</text>
</g>
<!-- \\Firesphere\\SolrSearch\\Helpers\\Statics -->
<g id="node32" class="node">
<title>\\Firesphere\\SolrSearch\\Helpers\\Statics</title>
<polygon fill="none" stroke="#000000" points="704.7549,-2260.9682 640.7549,-2260.9682 640.7549,-2224.9682 704.7549,-2224.9682 704.7549,-2260.9682"/>
<text text-anchor="middle" x="672.7549" y="-2240.1682" font-family="Courier,monospace" font-size="11.00" fill="#000000">Statics</text>
</g>
<!-- \\Firesphere\\SolrSearch\\Helpers\\DataResolver -->
<g id="node33" class="node">
<title>\\Firesphere\\SolrSearch\\Helpers\\DataResolver</title>
<polygon fill="none" stroke="#000000" points="721.7549,-2206.9682 623.7549,-2206.9682 623.7549,-2170.9682 721.7549,-2170.9682 721.7549,-2206.9682"/>
<text text-anchor="middle" x="672.7549" y="-2186.1682" font-family="Courier,monospace" font-size="11.00" fill="#000000">DataResolver</text>
</g>
<!-- \\Firesphere\\SolrSearch\\Helpers\\SolrLogger -->
<g id="node34" class="node">
<title>\\Firesphere\\SolrSearch\\Helpers\\SolrLogger</title>
<polygon fill="none" stroke="#000000" points="714.7549,-2152.9682 630.7549,-2152.9682 630.7549,-2116.9682 714.7549,-2116.9682 714.7549,-2152.9682"/>
<text text-anchor="middle" x="672.7549" y="-2132.1682" font-family="Courier,monospace" font-size="11.00" fill="#000000">SolrLogger</text>
</g>
<!-- \\Firesphere\\SolrSearch\\Factories\\QueryComponentFactory -->
<g id="node35" class="node">
<title>\\Firesphere\\SolrSearch\\Factories\\QueryComponentFactory</title>
<polygon fill="none" stroke="#000000" points="751.7549,-2072.9682 593.7549,-2072.9682 593.7549,-2036.9682 751.7549,-2036.9682 751.7549,-2072.9682"/>
<text text-anchor="middle" x="672.7549" y="-2052.1682" font-family="Courier,monospace" font-size="11.00" fill="#000000">QueryComponentFactory</text>
</g>
<!-- \\Firesphere\\SolrSearch\\Factories\\DocumentFactory -->
<g id="node36" class="node">
<title>\\Firesphere\\SolrSearch\\Factories\\DocumentFactory</title>
<polygon fill="none" stroke="#000000" points="731.7549,-2018.9682 613.7549,-2018.9682 613.7549,-1982.9682 731.7549,-1982.9682 731.7549,-2018.9682"/>
<text text-anchor="middle" x="672.7549" y="-1998.1682" font-family="Courier,monospace" font-size="11.00" fill="#000000">DocumentFactory</text>
</g>
<!-- \\Firesphere\\SolrSearch\\Stores\\PostConfigStore -->
<g id="node37" class="node">
<title>\\Firesphere\\SolrSearch\\Stores\\PostConfigStore</title>
<polygon fill="none" stroke="#000000" points="731.7549,-1938.9682 613.7549,-1938.9682 613.7549,-1902.9682 731.7549,-1902.9682 731.7549,-1938.9682"/>
<text text-anchor="middle" x="672.7549" y="-1918.1682" font-family="Courier,monospace" font-size="11.00" fill="#000000">PostConfigStore</text>
</g>
<!-- \\Firesphere\\SolrSearch\\Interfaces\\ConfigStore -->
<g id="node39" class="node">
<title>\\Firesphere\\SolrSearch\\Interfaces\\ConfigStore</title>
<polygon fill="none" stroke="#000000" points="299.6275,-1911.9682 208.6275,-1911.9682 208.6275,-1875.9682 299.6275,-1875.9682 299.6275,-1911.9682"/>
<text text-anchor="middle" x="254.1275" y="-1891.1682" font-family="Courier,monospace" font-size="11.00" fill="#000000">ConfigStore</text>
</g>
<!-- \\Firesphere\\SolrSearch\\Stores\\PostConfigStore&#45;&gt;\\Firesphere\\SolrSearch\\Interfaces\\ConfigStore -->
<g id="edge12" class="edge">
<title>\\Firesphere\\SolrSearch\\Stores\\PostConfigStore&#45;&gt;\\Firesphere\\SolrSearch\\Interfaces\\ConfigStore</title>
<path fill="none" stroke="#000000" stroke-dasharray="1,5" d="M613.6637,-1917.157C532.8854,-1911.9471 389.0185,-1902.6682 309.9722,-1897.57"/>
<polygon fill="none" stroke="#000000" points="309.9333,-1894.0603 299.7287,-1896.9093 309.4827,-1901.0458 309.9333,-1894.0603"/>
</g>
<!-- \\Firesphere\\SolrSearch\\Stores\\FileConfigStore -->
<g id="node38" class="node">
<title>\\Firesphere\\SolrSearch\\Stores\\FileConfigStore</title>
<polygon fill="none" stroke="#000000" points="731.7549,-1884.9682 613.7549,-1884.9682 613.7549,-1848.9682 731.7549,-1848.9682 731.7549,-1884.9682"/>
<text text-anchor="middle" x="672.7549" y="-1864.1682" font-family="Courier,monospace" font-size="11.00" fill="#000000">FileConfigStore</text>
</g>
<!-- \\Firesphere\\SolrSearch\\Stores\\FileConfigStore&#45;&gt;\\Firesphere\\SolrSearch\\Interfaces\\ConfigStore -->
<g id="edge13" class="edge">
<title>\\Firesphere\\SolrSearch\\Stores\\FileConfigStore&#45;&gt;\\Firesphere\\SolrSearch\\Interfaces\\ConfigStore</title>
<path fill="none" stroke="#000000" stroke-dasharray="1,5" d="M613.6637,-1870.7794C532.8854,-1875.9893 389.0185,-1885.2682 309.9722,-1890.3664"/>
<polygon fill="none" stroke="#000000" points="309.4827,-1886.8906 299.7287,-1891.0271 309.9333,-1893.8761 309.4827,-1886.8906"/>
</g>
<!-- \\Firesphere\\SolrSearch\\Interfaces\\SiteStateInterface -->
<g id="node40" class="node">
<title>\\Firesphere\\SolrSearch\\Interfaces\\SiteStateInterface</title>
<polygon fill="none" stroke="#000000" points="323.1275,-1857.9682 185.1275,-1857.9682 185.1275,-1821.9682 323.1275,-1821.9682 323.1275,-1857.9682"/>
<text text-anchor="middle" x="254.1275" y="-1837.1682" font-family="Courier,monospace" font-size="11.00" fill="#000000">SiteStateInterface</text>
</g>
<!-- \\Firesphere\\SolrSearch\\Jobs\\SolrIndexJob -->
<g id="node41" class="node">
<title>\\Firesphere\\SolrSearch\\Jobs\\SolrIndexJob</title>
<polygon fill="none" stroke="#000000" points="721.7549,-1696.9682 623.7549,-1696.9682 623.7549,-1660.9682 721.7549,-1660.9682 721.7549,-1696.9682"/>
<text text-anchor="middle" x="672.7549" y="-1676.1682" font-family="Courier,monospace" font-size="11.00" fill="#000000">SolrIndexJob</text>
</g>
<!-- \\Symbiote\\QueuedJobs\\Services\\AbstractQueuedJob -->
<g id="node64" class="node">
<title>\\Symbiote\\QueuedJobs\\Services\\AbstractQueuedJob</title>
<ellipse fill="none" stroke="#000000" cx="254.1275" cy="-234.9682" rx="254.255" ry="18"/>
<text text-anchor="middle" x="254.1275" y="-231.2682" font-family="Times,serif" font-size="14.00" fill="#c0c0c0">\Symbiote\QueuedJobs\Services\AbstractQueuedJob</text>
</g>
<!-- \\Firesphere\\SolrSearch\\Jobs\\SolrIndexJob&#45;&gt;\\Symbiote\\QueuedJobs\\Services\\AbstractQueuedJob -->
<g id="edge14" class="edge">
<title>\\Firesphere\\SolrSearch\\Jobs\\SolrIndexJob&#45;&gt;\\Symbiote\\QueuedJobs\\Services\\AbstractQueuedJob</title>
<path fill="none" stroke="#000000" d="M623.5563,-1676.4669C604.0634,-1672.8039 583.339,-1665.02 570.7549,-1648.9682 475.5764,-1527.5618 613.9715,-374.318 508.2549,-261.9682 469.7657,-221.064 407.2009,-214.0115 353.7829,-217.3339"/>
<polygon fill="none" stroke="#000000" points="353.2877,-213.8611 343.5775,-218.0993 353.8113,-220.8415 353.2877,-213.8611"/>
</g>
<!-- \\Firesphere\\SolrSearch\\Jobs\\SolrConfigureJob -->
<g id="node42" class="node">
<title>\\Firesphere\\SolrSearch\\Jobs\\SolrConfigureJob</title>
<polygon fill="none" stroke="#000000" points="735.2549,-1804.9682 610.2549,-1804.9682 610.2549,-1768.9682 735.2549,-1768.9682 735.2549,-1804.9682"/>
<text text-anchor="middle" x="672.7549" y="-1784.1682" font-family="Courier,monospace" font-size="11.00" fill="#000000">SolrConfigureJob</text>
</g>
<!-- \\Firesphere\\SolrSearch\\Jobs\\SolrConfigureJob&#45;&gt;\\Symbiote\\QueuedJobs\\Services\\AbstractQueuedJob -->
<g id="edge15" class="edge">
<title>\\Firesphere\\SolrSearch\\Jobs\\SolrConfigureJob&#45;&gt;\\Symbiote\\QueuedJobs\\Services\\AbstractQueuedJob</title>
<path fill="none" stroke="#000000" d="M610.0767,-1783.1684C595.0287,-1779.1602 580.5075,-1772.106 570.7549,-1759.9682 466.4118,-1630.1048 622.213,-383.4817 508.2549,-261.9682 469.7626,-220.9239 407.0377,-213.9207 353.5379,-217.3035"/>
<polygon fill="none" stroke="#000000" points="353.0235,-213.8324 343.3177,-218.0806 353.5544,-220.8122 353.0235,-213.8324"/>
</g>
<!-- \\Firesphere\\SolrSearch\\Jobs\\ClearDirtyClassesJob -->
<g id="node43" class="node">
<title>\\Firesphere\\SolrSearch\\Jobs\\ClearDirtyClassesJob</title>
<polygon fill="none" stroke="#000000" points="748.7549,-1750.9682 596.7549,-1750.9682 596.7549,-1714.9682 748.7549,-1714.9682 748.7549,-1750.9682"/>
<text text-anchor="middle" x="672.7549" y="-1730.1682" font-family="Courier,monospace" font-size="11.00" fill="#000000">ClearDirtyClassesJob</text>
</g>
<!-- \\Firesphere\\SolrSearch\\Jobs\\ClearDirtyClassesJob&#45;&gt;\\Symbiote\\QueuedJobs\\Services\\AbstractQueuedJob -->
<g id="edge16" class="edge">
<title>\\Firesphere\\SolrSearch\\Jobs\\ClearDirtyClassesJob&#45;&gt;\\Symbiote\\QueuedJobs\\Services\\AbstractQueuedJob</title>
<path fill="none" stroke="#000000" d="M596.5489,-1724.5676C586.6014,-1720.361 577.5309,-1714.388 570.7549,-1705.9682 470.069,-1580.8562 618.2035,-379.0235 508.2549,-261.9682 469.7307,-220.9539 407.0054,-213.951 353.5135,-217.3264"/>
<polygon fill="none" stroke="#000000" points="353.0013,-213.8551 343.2949,-218.102 353.5312,-220.835 353.0013,-213.8551"/>
</g>
<!-- \\Firesphere\\SolrSearch\\States\\SiteState -->
<g id="node44" class="node">
<title>\\Firesphere\\SolrSearch\\States\\SiteState</title>
<polygon fill="none" stroke="#000000" points="714.7549,-1616.9682 630.7549,-1616.9682 630.7549,-1580.9682 714.7549,-1580.9682 714.7549,-1616.9682"/>
<text text-anchor="start" x="638.7549" y="-1602.1682" font-family="Courier,monospace" font-size="11.00" fill="#000000">«abstract»</text>
<text text-anchor="start" x="642.2549" y="-1590.1682" font-family="Courier,monospace" font-size="11.00" fill="#000000">SiteState</text>
</g>
<!-- \\Firesphere\\SolrSearch\\Results\\SearchResult -->
<g id="node45" class="node">
<title>\\Firesphere\\SolrSearch\\Results\\SearchResult</title>
<polygon fill="none" stroke="#000000" points="721.7549,-1536.9682 623.7549,-1536.9682 623.7549,-1500.9682 721.7549,-1500.9682 721.7549,-1536.9682"/>
<text text-anchor="middle" x="672.7549" y="-1516.1682" font-family="Courier,monospace" font-size="11.00" fill="#000000">SearchResult</text>
</g>
<!-- \\Firesphere\\SolrSearch\\Tasks\\ClearErrorsTask -->
<g id="node46" class="node">
<title>\\Firesphere\\SolrSearch\\Tasks\\ClearErrorsTask</title>
<polygon fill="none" stroke="#000000" points="731.7549,-1456.9682 613.7549,-1456.9682 613.7549,-1420.9682 731.7549,-1420.9682 731.7549,-1456.9682"/>
<text text-anchor="middle" x="672.7549" y="-1436.1682" font-family="Courier,monospace" font-size="11.00" fill="#000000">ClearErrorsTask</text>
</g>
<!-- \\SilverStripe\\Dev\\BuildTask -->
<g id="node65" class="node">
<title>\\SilverStripe\\Dev\\BuildTask</title>
<ellipse fill="none" stroke="#000000" cx="254.1275" cy="-180.9682" rx="139.9756" ry="18"/>
<text text-anchor="middle" x="254.1275" y="-177.2682" font-family="Times,serif" font-size="14.00" fill="#c0c0c0">\SilverStripe\Dev\BuildTask</text>
</g>
<!-- \\Firesphere\\SolrSearch\\Tasks\\ClearErrorsTask&#45;&gt;\\SilverStripe\\Dev\\BuildTask -->
<g id="edge17" class="edge">
<title>\\Firesphere\\SolrSearch\\Tasks\\ClearErrorsTask&#45;&gt;\\SilverStripe\\Dev\\BuildTask</title>
<path fill="none" stroke="#000000" d="M613.6184,-1435.9692C597.3627,-1432.1406 581.3195,-1424.9807 570.7549,-1411.9682 486.3207,-1307.9702 600.3864,-305.2127 508.2549,-207.9682 465.9392,-163.3042 394.8985,-159.106 338.67,-164.6393"/>
<polygon fill="none" stroke="#000000" points="338.2688,-161.1622 328.7115,-165.7345 339.0342,-168.1202 338.2688,-161.1622"/>
</g>
<!-- \\Firesphere\\SolrSearch\\Tasks\\SolrIndexTask -->
<g id="node47" class="node">
<title>\\Firesphere\\SolrSearch\\Tasks\\SolrIndexTask</title>
<polygon fill="none" stroke="#000000" points="724.7549,-1402.9682 620.7549,-1402.9682 620.7549,-1366.9682 724.7549,-1366.9682 724.7549,-1402.9682"/>
<text text-anchor="middle" x="672.7549" y="-1382.1682" font-family="Courier,monospace" font-size="11.00" fill="#000000">SolrIndexTask</text>
</g>
<!-- \\Firesphere\\SolrSearch\\Tasks\\SolrIndexTask&#45;&gt;\\SilverStripe\\Dev\\BuildTask -->
<g id="edge18" class="edge">
<title>\\Firesphere\\SolrSearch\\Tasks\\SolrIndexTask&#45;&gt;\\SilverStripe\\Dev\\BuildTask</title>
<path fill="none" stroke="#000000" d="M620.5638,-1383.3911C602.0533,-1380.0396 582.8386,-1372.8148 570.7549,-1357.9682 409.1982,-1159.4714 684.5021,-393.5442 508.2549,-207.9682 465.9571,-163.4315 395.0903,-159.1675 338.9227,-164.6436"/>
<polygon fill="none" stroke="#000000" points="338.5354,-161.165 328.9739,-165.7287 339.2945,-168.1237 338.5354,-161.165"/>
</g>
<!-- \\Firesphere\\SolrSearch\\Tasks\\SolrConfigureTask -->
<g id="node48" class="node">
<title>\\Firesphere\\SolrSearch\\Tasks\\SolrConfigureTask</title>
<polygon fill="none" stroke="#000000" points="738.2549,-1348.9682 607.2549,-1348.9682 607.2549,-1312.9682 738.2549,-1312.9682 738.2549,-1348.9682"/>
<text text-anchor="middle" x="672.7549" y="-1328.1682" font-family="Courier,monospace" font-size="11.00" fill="#000000">SolrConfigureTask</text>
</g>
<!-- \\Firesphere\\SolrSearch\\Tasks\\SolrConfigureTask&#45;&gt;\\SilverStripe\\Dev\\BuildTask -->
<g id="edge19" class="edge">
<title>\\Firesphere\\SolrSearch\\Tasks\\SolrConfigureTask&#45;&gt;\\SilverStripe\\Dev\\BuildTask</title>
<path fill="none" stroke="#000000" d="M607.0226,-1326.1737C593.1211,-1322.0429 579.9049,-1315.1797 570.7549,-1303.9682 416.509,-1114.9697 676.4871,-384.6321 508.2549,-207.9682 465.8976,-163.488 395.0358,-159.2194 338.8851,-164.6794"/>
<polygon fill="none" stroke="#000000" points="338.5022,-161.2003 328.9395,-165.7614 339.2594,-168.1592 338.5022,-161.2003"/>
</g>
<!-- \\Firesphere\\SolrSearch\\Tasks\\ClearDirtyClassesTask -->
<g id="node49" class="node">
<title>\\Firesphere\\SolrSearch\\Tasks\\ClearDirtyClassesTask</title>
<polygon fill="none" stroke="#000000" points="751.7549,-1294.9682 593.7549,-1294.9682 593.7549,-1258.9682 751.7549,-1258.9682 751.7549,-1294.9682"/>
<text text-anchor="middle" x="672.7549" y="-1274.1682" font-family="Courier,monospace" font-size="11.00" fill="#000000">ClearDirtyClassesTask</text>
</g>
<!-- \\Firesphere\\SolrSearch\\Tasks\\ClearDirtyClassesTask&#45;&gt;\\SilverStripe\\Dev\\BuildTask -->
<g id="edge20" class="edge">
<title>\\Firesphere\\SolrSearch\\Tasks\\ClearDirtyClassesTask&#45;&gt;\\SilverStripe\\Dev\\BuildTask</title>
<path fill="none" stroke="#000000" d="M593.5553,-1264.7307C584.7908,-1260.3919 576.8485,-1254.6216 570.7549,-1246.9682 426.6799,-1066.0125 668.0278,-375.2261 508.2549,-207.9682 465.9883,-163.7215 395.506,-159.3129 339.4768,-164.66"/>
<polygon fill="none" stroke="#000000" points="338.7622,-161.2166 329.1932,-165.7646 339.5098,-168.1765 338.7622,-161.2166"/>
</g>
<!-- \\Firesphere\\SolrSearch\\Forms\\SearchForm -->
<g id="node50" class="node">
<title>\\Firesphere\\SolrSearch\\Forms\\SearchForm</title>
<polygon fill="none" stroke="#000000" points="714.7549,-1214.9682 630.7549,-1214.9682 630.7549,-1178.9682 714.7549,-1178.9682 714.7549,-1214.9682"/>
<text text-anchor="middle" x="672.7549" y="-1194.1682" font-family="Courier,monospace" font-size="11.00" fill="#000000">SearchForm</text>
</g>
<!-- \\SilverStripe\\Forms\\Form -->
<g id="node66" class="node">
<title>\\SilverStripe\\Forms\\Form</title>
<ellipse fill="none" stroke="#000000" cx="254.1275" cy="-126.9682" rx="129.1772" ry="18"/>
<text text-anchor="middle" x="254.1275" y="-123.2682" font-family="Times,serif" font-size="14.00" fill="#c0c0c0">\SilverStripe\Forms\Form</text>
</g>
<!-- \\Firesphere\\SolrSearch\\Forms\\SearchForm&#45;&gt;\\SilverStripe\\Forms\\Form -->
<g id="edge21" class="edge">
<title>\\Firesphere\\SolrSearch\\Forms\\SearchForm&#45;&gt;\\SilverStripe\\Forms\\Form</title>
<path fill="none" stroke="#000000" d="M630.7472,-1195.5385C609.4024,-1192.4611 585.0253,-1184.8633 570.7549,-1166.9682 430.1364,-990.6323 664.1696,-316.936 508.2549,-153.9682 465.2879,-109.0575 393.2469,-105.2138 336.8183,-110.9402"/>
<polygon fill="none" stroke="#000000" points="336.3765,-107.4678 326.8327,-112.0684 337.1624,-114.4235 336.3765,-107.4678"/>
</g>
<!-- \\Firesphere\\SolrSearch\\Subsites\\SubsitesExtension -->
<g id="node52" class="node">
<title>\\Firesphere\\SolrSearch\\Subsites\\SubsitesExtension</title>
<polygon fill="none" stroke="#000000" points="738.2549,-1054.9682 607.2549,-1054.9682 607.2549,-1018.9682 738.2549,-1018.9682 738.2549,-1054.9682"/>
<text text-anchor="middle" x="672.7549" y="-1034.1682" font-family="Courier,monospace" font-size="11.00" fill="#000000">SubsitesExtension</text>
</g>
<!-- \\Firesphere\\SolrSearch\\Subsites\\SubsitesExtension&#45;&gt;\\SilverStripe\\ORM\\DataExtension -->
<g id="edge25" class="edge">
<title>\\Firesphere\\SolrSearch\\Subsites\\SubsitesExtension&#45;&gt;\\SilverStripe\\ORM\\DataExtension</title>
<path fill="none" stroke="#000000" d="M627.0599,-1018.9432C606.2292,-1008.2487 583.4329,-992.5083 570.7549,-970.9682 466.2513,-793.4154 651.1135,-194.4182 508.2549,-45.9682 467.2734,-3.3827 400.1332,2.1949 345.1537,-2.2521"/>
<polygon fill="none" stroke="#000000" points="344.6715,1.2183 335.0384,-3.1924 345.3195,-5.7517 344.6715,1.2183"/>
</g>
<!-- \\Firesphere\\SolrFluent\\Extensions\\FluentIndexExtension -->
<g id="node53" class="node">
<title>\\Firesphere\\SolrFluent\\Extensions\\FluentIndexExtension</title>
<polygon fill="none" stroke="#000000" points="748.7549,-822.9682 596.7549,-822.9682 596.7549,-786.9682 748.7549,-786.9682 748.7549,-822.9682"/>
<text text-anchor="middle" x="672.7549" y="-802.1682" font-family="Courier,monospace" font-size="11.00" fill="#000000">FluentIndexExtension</text>
</g>
<!-- \\Firesphere\\SolrFluent\\Extensions\\FluentIndexExtension&#45;&gt;\\SilverStripe\\Core\\Extension -->
<g id="edge22" class="edge">
<title>\\Firesphere\\SolrFluent\\Extensions\\FluentIndexExtension&#45;&gt;\\SilverStripe\\Core\\Extension</title>
<path fill="none" stroke="#000000" d="M596.6553,-796.164C586.7582,-792.0035 577.6746,-786.1507 570.7549,-777.9682 473.053,-662.436 614.4965,-207.6997 508.2549,-99.9682 466.0958,-57.2179 397.4955,-52.1201 342.1898,-56.8132"/>
<polygon fill="none" stroke="#000000" points="341.6435,-53.3496 332.0271,-57.7966 342.3177,-60.3171 341.6435,-53.3496"/>
</g>
<!-- \\Firesphere\\SolrFluent\\Extensions\\FluentSchemaExtension -->
<g id="node54" class="node">
<title>\\Firesphere\\SolrFluent\\Extensions\\FluentSchemaExtension</title>
<polygon fill="none" stroke="#000000" points="751.7549,-768.9682 593.7549,-768.9682 593.7549,-732.9682 751.7549,-732.9682 751.7549,-768.9682"/>
<text text-anchor="middle" x="672.7549" y="-748.1682" font-family="Courier,monospace" font-size="11.00" fill="#000000">FluentSchemaExtension</text>
</g>
<!-- \\Firesphere\\SolrFluent\\Extensions\\FluentSchemaExtension&#45;&gt;\\SilverStripe\\Core\\Extension -->
<g id="edge23" class="edge">
<title>\\Firesphere\\SolrFluent\\Extensions\\FluentSchemaExtension&#45;&gt;\\SilverStripe\\Core\\Extension</title>
<path fill="none" stroke="#000000" d="M593.6921,-740.7831C584.9637,-736.7393 576.9939,-731.2869 570.7549,-723.9682 480.3463,-617.9133 606.5005,-198.8072 508.2549,-99.9682 466.0744,-57.5329 397.8134,-52.3135 342.6545,-56.8764"/>
<polygon fill="none" stroke="#000000" points="342.1427,-53.4091 332.5169,-57.8354 342.8021,-60.378 342.1427,-53.4091"/>
</g>
<!-- \\Firesphere\\SolrFluent\\Extensions\\FluentDocumentExtension -->
<g id="node55" class="node">
<title>\\Firesphere\\SolrFluent\\Extensions\\FluentDocumentExtension</title>
<polygon fill="none" stroke="#000000" points="758.7549,-714.9682 586.7549,-714.9682 586.7549,-678.9682 758.7549,-678.9682 758.7549,-714.9682"/>
<text text-anchor="middle" x="672.7549" y="-694.1682" font-family="Courier,monospace" font-size="11.00" fill="#000000">FluentDocumentExtension</text>
</g>
<!-- \\Firesphere\\SolrFluent\\Extensions\\FluentDocumentExtension&#45;&gt;\\SilverStripe\\ORM\\DataExtension -->
<g id="edge24" class="edge">
<title>\\Firesphere\\SolrFluent\\Extensions\\FluentDocumentExtension&#45;&gt;\\SilverStripe\\ORM\\DataExtension</title>
<path fill="none" stroke="#000000" d="M627.6835,-678.8617C606.8702,-668.1115 583.9055,-652.347 570.7549,-630.9682 502.2559,-519.6094 600.729,-138.3882 508.2549,-45.9682 467.4226,-5.1598 402.4491,1.141 348.4224,-2.5302"/>
<polygon fill="none" stroke="#000000" points="347.8099,.932 338.1223,-3.3577 348.3705,-6.0455 347.8099,.932"/>
</g>
<!-- \\Firesphere\\SolrPermissions\\Extensions\\BaseIndexExtension -->
<g id="node56" class="node">
<title>\\Firesphere\\SolrPermissions\\Extensions\\BaseIndexExtension</title>
<polygon fill="none" stroke="#000000" points="741.7549,-598.9682 603.7549,-598.9682 603.7549,-562.9682 741.7549,-562.9682 741.7549,-598.9682"/>
<text text-anchor="middle" x="672.7549" y="-578.1682" font-family="Courier,monospace" font-size="11.00" fill="#000000">BaseIndexExtension</text>
</g>
<!-- \\Firesphere\\SolrPermissions\\Extensions\\BaseIndexExtension&#45;&gt;\\SilverStripe\\Core\\Extension -->
<g id="edge26" class="edge">
<title>\\Firesphere\\SolrPermissions\\Extensions\\BaseIndexExtension&#45;&gt;\\SilverStripe\\Core\\Extension</title>
<path fill="none" stroke="#000000" d="M603.7055,-574.3943C591.2226,-570.2125 579.4346,-563.7768 570.7549,-553.9682 435.7761,-401.4343 654.4909,-241.7459 508.2549,-99.9682 466.0468,-59.0468 399.4511,-53.2532 345.0209,-57.1865"/>
<polygon fill="none" stroke="#000000" points="344.6796,-53.7027 335.0078,-58.0278 345.2658,-60.6782 344.6796,-53.7027"/>
</g>
<!-- \\Firesphere\\SolrPermissions\\Extensions\\DataObjectExtension -->
<g id="node57" class="node">
<title>\\Firesphere\\SolrPermissions\\Extensions\\DataObjectExtension</title>
<polygon fill="none" stroke="#000000" points="745.2549,-544.9682 600.2549,-544.9682 600.2549,-508.9682 745.2549,-508.9682 745.2549,-544.9682"/>
<text text-anchor="middle" x="672.7549" y="-524.1682" font-family="Courier,monospace" font-size="11.00" fill="#000000">DataObjectExtension</text>
</g>
<!-- \\Firesphere\\SolrPermissions\\Extensions\\DataObjectExtension&#45;&gt;\\SilverStripe\\ORM\\DataExtension -->
<g id="edge27" class="edge">
<title>\\Firesphere\\SolrPermissions\\Extensions\\DataObjectExtension&#45;&gt;\\SilverStripe\\ORM\\DataExtension</title>
<path fill="none" stroke="#000000" d="M669.255,-508.9232C653.3631,-428.9297 585.4274,-107.5568 508.2549,-45.9682 471.5859,-16.704 421.8522,-7.0085 376.1027,-5.7088"/>
<polygon fill="none" stroke="#000000" points="376.1562,-2.2093 366.1032,-5.5539 376.0477,-9.2085 376.1562,-2.2093"/>
</g>
</g>
</svg>
