<?xml version="1.0" encoding="UTF-8" standalone="no"?>
<!DOCTYPE svg PUBLIC "-//W3C//DTD SVG 1.1//EN"
 "http://www.w3.org/Graphics/SVG/1.1/DTD/svg11.dtd">
<!-- Generated by graphviz version 2.40.1 (20161225.0304)
 -->
<!-- Title: G Pages: 1 -->
<svg width="1064pt" height="3722pt"
 viewBox="0.00 0.00 1064.25 3721.61" xmlns="http://www.w3.org/2000/svg" xmlns:xlink="http://www.w3.org/1999/xlink">
<g id="graph0" class="graph" transform="scale(1 1) rotate(0) translate(4 3717.6111)">
<title>G</title>
<polygon fill="#ffffff" stroke="transparent" points="-4,4 -4,-3717.6111 1060.2549,-3717.6111 1060.2549,4 -4,4"/>
<g id="clust1" class="cluster">
<title>cluster_Global</title>
<path fill="none" stroke="#c0c0c0" d="M165.1275,-152.9332C165.1275,-152.9332 1036.2549,-152.9332 1036.2549,-152.9332 1042.2549,-152.9332 1048.2549,-158.9332 1048.2549,-164.9332 1048.2549,-164.9332 1048.2549,-3386.9332 1048.2549,-3386.9332 1048.2549,-3392.9332 1042.2549,-3398.9332 1036.2549,-3398.9332 1036.2549,-3398.9332 165.1275,-3398.9332 165.1275,-3398.9332 159.1275,-3398.9332 153.1275,-3392.9332 153.1275,-3386.9332 153.1275,-3386.9332 153.1275,-164.9332 153.1275,-164.9332 153.1275,-158.9332 159.1275,-152.9332 165.1275,-152.9332"/>
<text text-anchor="middle" x="600.6912" y="-3386.1332" font-family="Times,serif" font-size="11.00" fill="#c0c0c0">Global</text>
</g>
<g id="clust2" class="cluster">
<title>cluster_\Firesphere</title>
<path fill="none" stroke="#c0c0c0" d="M173.1275,-160.9332C173.1275,-160.9332 1028.2549,-160.9332 1028.2549,-160.9332 1034.2549,-160.9332 1040.2549,-166.9332 1040.2549,-172.9332 1040.2549,-172.9332 1040.2549,-3036.9332 1040.2549,-3036.9332 1040.2549,-3042.9332 1034.2549,-3048.9332 1028.2549,-3048.9332 1028.2549,-3048.9332 173.1275,-3048.9332 173.1275,-3048.9332 167.1275,-3048.9332 161.1275,-3042.9332 161.1275,-3036.9332 161.1275,-3036.9332 161.1275,-172.9332 161.1275,-172.9332 161.1275,-166.9332 167.1275,-160.9332 173.1275,-160.9332"/>
<text text-anchor="middle" x="600.6912" y="-3036.1332" font-family="Times,serif" font-size="11.00" fill="#c0c0c0">Firesphere</text>
</g>
<g id="clust3" class="cluster">
<title>cluster_\Firesphere\SolrCompatibility</title>
<path fill="none" stroke="#c0c0c0" d="M833.2549,-168.9332C833.2549,-168.9332 1020.2549,-168.9332 1020.2549,-168.9332 1026.2549,-168.9332 1032.2549,-174.9332 1032.2549,-180.9332 1032.2549,-180.9332 1032.2549,-318.9332 1032.2549,-318.9332 1032.2549,-324.9332 1026.2549,-330.9332 1020.2549,-330.9332 1020.2549,-330.9332 833.2549,-330.9332 833.2549,-330.9332 827.2549,-330.9332 821.2549,-324.9332 821.2549,-318.9332 821.2549,-318.9332 821.2549,-180.9332 821.2549,-180.9332 821.2549,-174.9332 827.2549,-168.9332 833.2549,-168.9332"/>
<text text-anchor="middle" x="926.7549" y="-318.1332" font-family="Times,serif" font-size="11.00" fill="#c0c0c0">SolrCompatibility</text>
</g>
<g id="clust4" class="cluster">
<title>cluster_\Firesphere\SolrCompatibility\Extensions</title>
<path fill="none" stroke="#c0c0c0" d="M841.2549,-176.9332C841.2549,-176.9332 1012.2549,-176.9332 1012.2549,-176.9332 1018.2549,-176.9332 1024.2549,-182.9332 1024.2549,-188.9332 1024.2549,-188.9332 1024.2549,-290.9332 1024.2549,-290.9332 1024.2549,-296.9332 1018.2549,-302.9332 1012.2549,-302.9332 1012.2549,-302.9332 841.2549,-302.9332 841.2549,-302.9332 835.2549,-302.9332 829.2549,-296.9332 829.2549,-290.9332 829.2549,-290.9332 829.2549,-188.9332 829.2549,-188.9332 829.2549,-182.9332 835.2549,-176.9332 841.2549,-176.9332"/>
<text text-anchor="middle" x="926.7549" y="-290.1332" font-family="Times,serif" font-size="11.00" fill="#c0c0c0">Extensions</text>
</g>
<g id="clust5" class="cluster">
<title>cluster_\Firesphere\SolrSearch</title>
<path fill="none" stroke="#c0c0c0" d="M181.1275,-172.9332C181.1275,-172.9332 769.2549,-172.9332 769.2549,-172.9332 775.2549,-172.9332 781.2549,-178.9332 781.2549,-184.9332 781.2549,-184.9332 781.2549,-3008.9332 781.2549,-3008.9332 781.2549,-3014.9332 775.2549,-3020.9332 769.2549,-3020.9332 769.2549,-3020.9332 181.1275,-3020.9332 181.1275,-3020.9332 175.1275,-3020.9332 169.1275,-3014.9332 169.1275,-3008.9332 169.1275,-3008.9332 169.1275,-184.9332 169.1275,-184.9332 169.1275,-178.9332 175.1275,-172.9332 181.1275,-172.9332"/>
<text text-anchor="middle" x="475.1912" y="-3008.1332" font-family="Times,serif" font-size="11.00" fill="#c0c0c0">SolrSearch</text>
</g>
<g id="clust6" class="cluster">
<title>cluster_\Firesphere\SolrSearch\Interfaces</title>
<path fill="none" stroke="#c0c0c0" d="M189.1275,-260.9332C189.1275,-260.9332 319.1275,-260.9332 319.1275,-260.9332 325.1275,-260.9332 331.1275,-266.9332 331.1275,-272.9332 331.1275,-272.9332 331.1275,-374.9332 331.1275,-374.9332 331.1275,-380.9332 325.1275,-386.9332 319.1275,-386.9332 319.1275,-386.9332 189.1275,-386.9332 189.1275,-386.9332 183.1275,-386.9332 177.1275,-380.9332 177.1275,-374.9332 177.1275,-374.9332 177.1275,-272.9332 177.1275,-272.9332 177.1275,-266.9332 183.1275,-260.9332 189.1275,-260.9332"/>
<text text-anchor="middle" x="254.1275" y="-374.1332" font-family="Times,serif" font-size="11.00" fill="#c0c0c0">Interfaces</text>
</g>
<g id="clust7" class="cluster">
<title>cluster_\Firesphere\SolrSearch\Extensions</title>
<path fill="none" stroke="#c0c0c0" d="M604.2549,-2866.9332C604.2549,-2866.9332 741.2549,-2866.9332 741.2549,-2866.9332 747.2549,-2866.9332 753.2549,-2872.9332 753.2549,-2878.9332 753.2549,-2878.9332 753.2549,-2980.9332 753.2549,-2980.9332 753.2549,-2986.9332 747.2549,-2992.9332 741.2549,-2992.9332 741.2549,-2992.9332 604.2549,-2992.9332 604.2549,-2992.9332 598.2549,-2992.9332 592.2549,-2986.9332 592.2549,-2980.9332 592.2549,-2980.9332 592.2549,-2878.9332 592.2549,-2878.9332 592.2549,-2872.9332 598.2549,-2866.9332 604.2549,-2866.9332"/>
<text text-anchor="middle" x="672.7549" y="-2980.1332" font-family="Times,serif" font-size="11.00" fill="#c0c0c0">Extensions</text>
</g>
<g id="clust8" class="cluster">
<title>cluster_\Firesphere\SolrSearch\States</title>
<path fill="none" stroke="#c0c0c0" d="M634.7549,-2786.9332C634.7549,-2786.9332 710.7549,-2786.9332 710.7549,-2786.9332 716.7549,-2786.9332 722.7549,-2792.9332 722.7549,-2798.9332 722.7549,-2798.9332 722.7549,-2846.9332 722.7549,-2846.9332 722.7549,-2852.9332 716.7549,-2858.9332 710.7549,-2858.9332 710.7549,-2858.9332 634.7549,-2858.9332 634.7549,-2858.9332 628.7549,-2858.9332 622.7549,-2852.9332 622.7549,-2846.9332 622.7549,-2846.9332 622.7549,-2798.9332 622.7549,-2798.9332 622.7549,-2792.9332 628.7549,-2786.9332 634.7549,-2786.9332"/>
<text text-anchor="middle" x="672.7549" y="-2846.1332" font-family="Times,serif" font-size="11.00" fill="#c0c0c0">States</text>
</g>
<g id="clust9" class="cluster">
<title>cluster_\Firesphere\SolrSearch\Jobs</title>
<path fill="none" stroke="#c0c0c0" d="M600.7549,-2598.9332C600.7549,-2598.9332 744.7549,-2598.9332 744.7549,-2598.9332 750.7549,-2598.9332 756.7549,-2604.9332 756.7549,-2610.9332 756.7549,-2610.9332 756.7549,-2766.9332 756.7549,-2766.9332 756.7549,-2772.9332 750.7549,-2778.9332 744.7549,-2778.9332 744.7549,-2778.9332 600.7549,-2778.9332 600.7549,-2778.9332 594.7549,-2778.9332 588.7549,-2772.9332 588.7549,-2766.9332 588.7549,-2766.9332 588.7549,-2610.9332 588.7549,-2610.9332 588.7549,-2604.9332 594.7549,-2598.9332 600.7549,-2598.9332"/>
<text text-anchor="middle" x="672.7549" y="-2766.1332" font-family="Times,serif" font-size="11.00" fill="#c0c0c0">Jobs</text>
</g>
<g id="clust10" class="cluster">
<title>cluster_\Firesphere\SolrSearch\Helpers</title>
<path fill="none" stroke="#c0c0c0" d="M624.7549,-2302.9332C624.7549,-2302.9332 720.7549,-2302.9332 720.7549,-2302.9332 726.7549,-2302.9332 732.7549,-2308.9332 732.7549,-2314.9332 732.7549,-2314.9332 732.7549,-2578.9332 732.7549,-2578.9332 732.7549,-2584.9332 726.7549,-2590.9332 720.7549,-2590.9332 720.7549,-2590.9332 624.7549,-2590.9332 624.7549,-2590.9332 618.7549,-2590.9332 612.7549,-2584.9332 612.7549,-2578.9332 612.7549,-2578.9332 612.7549,-2314.9332 612.7549,-2314.9332 612.7549,-2308.9332 618.7549,-2302.9332 624.7549,-2302.9332"/>
<text text-anchor="middle" x="672.7549" y="-2578.1332" font-family="Times,serif" font-size="11.00" fill="#c0c0c0">Helpers</text>
</g>
<g id="clust11" class="cluster">
<title>cluster_\Firesphere\SolrSearch\Models</title>
<path fill="none" stroke="#c0c0c0" d="M624.7549,-2114.9332C624.7549,-2114.9332 720.7549,-2114.9332 720.7549,-2114.9332 726.7549,-2114.9332 732.7549,-2120.9332 732.7549,-2126.9332 732.7549,-2126.9332 732.7549,-2282.9332 732.7549,-2282.9332 732.7549,-2288.9332 726.7549,-2294.9332 720.7549,-2294.9332 720.7549,-2294.9332 624.7549,-2294.9332 624.7549,-2294.9332 618.7549,-2294.9332 612.7549,-2288.9332 612.7549,-2282.9332 612.7549,-2282.9332 612.7549,-2126.9332 612.7549,-2126.9332 612.7549,-2120.9332 618.7549,-2114.9332 624.7549,-2114.9332"/>
<text text-anchor="middle" x="672.7549" y="-2282.1332" font-family="Times,serif" font-size="11.00" fill="#c0c0c0">Models</text>
</g>
<g id="clust12" class="cluster">
<title>cluster_\Firesphere\SolrSearch\Indexes</title>
<path fill="none" stroke="#c0c0c0" d="M634.7549,-2034.9332C634.7549,-2034.9332 710.7549,-2034.9332 710.7549,-2034.9332 716.7549,-2034.9332 722.7549,-2040.9332 722.7549,-2046.9332 722.7549,-2046.9332 722.7549,-2094.9332 722.7549,-2094.9332 722.7549,-2100.9332 716.7549,-2106.9332 710.7549,-2106.9332 710.7549,-2106.9332 634.7549,-2106.9332 634.7549,-2106.9332 628.7549,-2106.9332 622.7549,-2100.9332 622.7549,-2094.9332 622.7549,-2094.9332 622.7549,-2046.9332 622.7549,-2046.9332 622.7549,-2040.9332 628.7549,-2034.9332 634.7549,-2034.9332"/>
<text text-anchor="middle" x="672.7549" y="-2094.1332" font-family="Times,serif" font-size="11.00" fill="#c0c0c0">Indexes</text>
</g>
<g id="clust13" class="cluster">
<title>cluster_\Firesphere\SolrSearch\Traits</title>
<path fill="none" stroke="#c0c0c0" d="M584.2549,-1144.9332C584.2549,-1144.9332 761.2549,-1144.9332 761.2549,-1144.9332 767.2549,-1144.9332 773.2549,-1150.9332 773.2549,-1156.9332 773.2549,-1156.9332 773.2549,-2014.9332 773.2549,-2014.9332 773.2549,-2020.9332 767.2549,-2026.9332 761.2549,-2026.9332 761.2549,-2026.9332 584.2549,-2026.9332 584.2549,-2026.9332 578.2549,-2026.9332 572.2549,-2020.9332 572.2549,-2014.9332 572.2549,-2014.9332 572.2549,-1156.9332 572.2549,-1156.9332 572.2549,-1150.9332 578.2549,-1144.9332 584.2549,-1144.9332"/>
<text text-anchor="middle" x="672.7549" y="-2014.1332" font-family="Times,serif" font-size="11.00" fill="#c0c0c0">Traits</text>
</g>
<g id="clust14" class="cluster">
<title>cluster_\Firesphere\SolrSearch\Queries</title>
<path fill="none" stroke="#c0c0c0" d="M638.2549,-1064.9332C638.2549,-1064.9332 707.2549,-1064.9332 707.2549,-1064.9332 713.2549,-1064.9332 719.2549,-1070.9332 719.2549,-1076.9332 719.2549,-1076.9332 719.2549,-1124.9332 719.2549,-1124.9332 719.2549,-1130.9332 713.2549,-1136.9332 707.2549,-1136.9332 707.2549,-1136.9332 638.2549,-1136.9332 638.2549,-1136.9332 632.2549,-1136.9332 626.2549,-1130.9332 626.2549,-1124.9332 626.2549,-1124.9332 626.2549,-1076.9332 626.2549,-1076.9332 626.2549,-1070.9332 632.2549,-1064.9332 638.2549,-1064.9332"/>
<text text-anchor="middle" x="672.7549" y="-1124.1332" font-family="Times,serif" font-size="11.00" fill="#c0c0c0">Queries</text>
</g>
<g id="clust15" class="cluster">
<title>cluster_\Firesphere\SolrSearch\Forms</title>
<path fill="none" stroke="#c0c0c0" d="M634.7549,-984.9332C634.7549,-984.9332 710.7549,-984.9332 710.7549,-984.9332 716.7549,-984.9332 722.7549,-990.9332 722.7549,-996.9332 722.7549,-996.9332 722.7549,-1044.9332 722.7549,-1044.9332 722.7549,-1050.9332 716.7549,-1056.9332 710.7549,-1056.9332 710.7549,-1056.9332 634.7549,-1056.9332 634.7549,-1056.9332 628.7549,-1056.9332 622.7549,-1050.9332 622.7549,-1044.9332 622.7549,-1044.9332 622.7549,-996.9332 622.7549,-996.9332 622.7549,-990.9332 628.7549,-984.9332 634.7549,-984.9332"/>
<text text-anchor="middle" x="672.7549" y="-1044.1332" font-family="Times,serif" font-size="11.00" fill="#c0c0c0">Forms</text>
</g>
<g id="clust16" class="cluster">
<title>cluster_\Firesphere\SolrSearch\Results</title>
<path fill="none" stroke="#c0c0c0" d="M627.7549,-904.9332C627.7549,-904.9332 717.7549,-904.9332 717.7549,-904.9332 723.7549,-904.9332 729.7549,-910.9332 729.7549,-916.9332 729.7549,-916.9332 729.7549,-964.9332 729.7549,-964.9332 729.7549,-970.9332 723.7549,-976.9332 717.7549,-976.9332 717.7549,-976.9332 627.7549,-976.9332 627.7549,-976.9332 621.7549,-976.9332 615.7549,-970.9332 615.7549,-964.9332 615.7549,-964.9332 615.7549,-916.9332 615.7549,-916.9332 615.7549,-910.9332 621.7549,-904.9332 627.7549,-904.9332"/>
<text text-anchor="middle" x="672.7549" y="-964.1332" font-family="Times,serif" font-size="11.00" fill="#c0c0c0">Results</text>
</g>
<g id="clust17" class="cluster">
<title>cluster_\Firesphere\SolrSearch\Tasks</title>
<path fill="none" stroke="#c0c0c0" d="M597.7549,-662.9332C597.7549,-662.9332 747.7549,-662.9332 747.7549,-662.9332 753.7549,-662.9332 759.7549,-668.9332 759.7549,-674.9332 759.7549,-674.9332 759.7549,-884.9332 759.7549,-884.9332 759.7549,-890.9332 753.7549,-896.9332 747.7549,-896.9332 747.7549,-896.9332 597.7549,-896.9332 597.7549,-896.9332 591.7549,-896.9332 585.7549,-890.9332 585.7549,-884.9332 585.7549,-884.9332 585.7549,-674.9332 585.7549,-674.9332 585.7549,-668.9332 591.7549,-662.9332 597.7549,-662.9332"/>
<text text-anchor="middle" x="672.7549" y="-884.1332" font-family="Times,serif" font-size="11.00" fill="#c0c0c0">Tasks</text>
</g>
<g id="clust18" class="cluster">
<title>cluster_\Firesphere\SolrSearch\Services</title>
<path fill="none" stroke="#c0c0c0" d="M617.7549,-528.9332C617.7549,-528.9332 727.7549,-528.9332 727.7549,-528.9332 733.7549,-528.9332 739.7549,-534.9332 739.7549,-540.9332 739.7549,-540.9332 739.7549,-642.9332 739.7549,-642.9332 739.7549,-648.9332 733.7549,-654.9332 727.7549,-654.9332 727.7549,-654.9332 617.7549,-654.9332 617.7549,-654.9332 611.7549,-654.9332 605.7549,-648.9332 605.7549,-642.9332 605.7549,-642.9332 605.7549,-540.9332 605.7549,-540.9332 605.7549,-534.9332 611.7549,-528.9332 617.7549,-528.9332"/>
<text text-anchor="middle" x="672.7549" y="-642.1332" font-family="Times,serif" font-size="11.00" fill="#c0c0c0">Services</text>
</g>
<g id="clust19" class="cluster">
<title>cluster_\Firesphere\SolrSearch\Stores</title>
<path fill="none" stroke="#c0c0c0" d="M617.7549,-314.9332C617.7549,-314.9332 727.7549,-314.9332 727.7549,-314.9332 733.7549,-314.9332 739.7549,-320.9332 739.7549,-326.9332 739.7549,-326.9332 739.7549,-428.9332 739.7549,-428.9332 739.7549,-434.9332 733.7549,-440.9332 727.7549,-440.9332 727.7549,-440.9332 617.7549,-440.9332 617.7549,-440.9332 611.7549,-440.9332 605.7549,-434.9332 605.7549,-428.9332 605.7549,-428.9332 605.7549,-326.9332 605.7549,-326.9332 605.7549,-320.9332 611.7549,-314.9332 617.7549,-314.9332"/>
<text text-anchor="middle" x="672.7549" y="-428.1332" font-family="Times,serif" font-size="11.00" fill="#c0c0c0">Stores</text>
</g>
<g id="clust20" class="cluster">
<title>cluster_\Firesphere\SolrSearch\Admins</title>
<path fill="none" stroke="#c0c0c0" d="M631.2549,-448.9332C631.2549,-448.9332 714.2549,-448.9332 714.2549,-448.9332 720.2549,-448.9332 726.2549,-454.9332 726.2549,-460.9332 726.2549,-460.9332 726.2549,-508.9332 726.2549,-508.9332 726.2549,-514.9332 720.2549,-520.9332 714.2549,-520.9332 714.2549,-520.9332 631.2549,-520.9332 631.2549,-520.9332 625.2549,-520.9332 619.2549,-514.9332 619.2549,-508.9332 619.2549,-508.9332 619.2549,-460.9332 619.2549,-460.9332 619.2549,-454.9332 625.2549,-448.9332 631.2549,-448.9332"/>
<text text-anchor="middle" x="672.7549" y="-508.1332" font-family="Times,serif" font-size="11.00" fill="#c0c0c0">Admins</text>
</g>
<g id="clust21" class="cluster">
<title>cluster_\Firesphere\SolrSearch\Factories</title>
<path fill="none" stroke="#c0c0c0" d="M597.7549,-180.9332C597.7549,-180.9332 747.7549,-180.9332 747.7549,-180.9332 753.7549,-180.9332 759.7549,-186.9332 759.7549,-192.9332 759.7549,-192.9332 759.7549,-294.9332 759.7549,-294.9332 759.7549,-300.9332 753.7549,-306.9332 747.7549,-306.9332 747.7549,-306.9332 597.7549,-306.9332 597.7549,-306.9332 591.7549,-306.9332 585.7549,-300.9332 585.7549,-294.9332 585.7549,-294.9332 585.7549,-192.9332 585.7549,-192.9332 585.7549,-186.9332 591.7549,-180.9332 597.7549,-180.9332"/>
<text text-anchor="middle" x="672.7549" y="-294.1332" font-family="Times,serif" font-size="11.00" fill="#c0c0c0">Factories</text>
</g>
<g id="clust22" class="cluster">
<title>cluster_\Firesphere\SolrFluent</title>
<path fill="none" stroke="#c0c0c0" d="M836.7549,-616.9332C836.7549,-616.9332 1016.7549,-616.9332 1016.7549,-616.9332 1022.7549,-616.9332 1028.7549,-622.9332 1028.7549,-628.9332 1028.7549,-628.9332 1028.7549,-900.9332 1028.7549,-900.9332 1028.7549,-906.9332 1022.7549,-912.9332 1016.7549,-912.9332 1016.7549,-912.9332 836.7549,-912.9332 836.7549,-912.9332 830.7549,-912.9332 824.7549,-906.9332 824.7549,-900.9332 824.7549,-900.9332 824.7549,-628.9332 824.7549,-628.9332 824.7549,-622.9332 830.7549,-616.9332 836.7549,-616.9332"/>
<text text-anchor="middle" x="926.7549" y="-900.1332" font-family="Times,serif" font-size="11.00" fill="#c0c0c0">SolrFluent</text>
</g>
<g id="clust23" class="cluster">
<title>cluster_\Firesphere\SolrFluent\Extensions</title>
<path fill="none" stroke="#c0c0c0" d="M844.7549,-624.9332C844.7549,-624.9332 1008.7549,-624.9332 1008.7549,-624.9332 1014.7549,-624.9332 1020.7549,-630.9332 1020.7549,-636.9332 1020.7549,-636.9332 1020.7549,-792.9332 1020.7549,-792.9332 1020.7549,-798.9332 1014.7549,-804.9332 1008.7549,-804.9332 1008.7549,-804.9332 844.7549,-804.9332 844.7549,-804.9332 838.7549,-804.9332 832.7549,-798.9332 832.7549,-792.9332 832.7549,-792.9332 832.7549,-636.9332 832.7549,-636.9332 832.7549,-630.9332 838.7549,-624.9332 844.7549,-624.9332"/>
<text text-anchor="middle" x="926.7549" y="-792.1332" font-family="Times,serif" font-size="11.00" fill="#c0c0c0">Extensions</text>
</g>
<g id="clust24" class="cluster">
<title>cluster_\Firesphere\SolrFluent\States</title>
<path fill="none" stroke="#c0c0c0" d="M871.7549,-812.9332C871.7549,-812.9332 981.7549,-812.9332 981.7549,-812.9332 987.7549,-812.9332 993.7549,-818.9332 993.7549,-824.9332 993.7549,-824.9332 993.7549,-872.9332 993.7549,-872.9332 993.7549,-878.9332 987.7549,-884.9332 981.7549,-884.9332 981.7549,-884.9332 871.7549,-884.9332 871.7549,-884.9332 865.7549,-884.9332 859.7549,-878.9332 859.7549,-872.9332 859.7549,-872.9332 859.7549,-824.9332 859.7549,-824.9332 859.7549,-818.9332 865.7549,-812.9332 871.7549,-812.9332"/>
<text text-anchor="middle" x="926.7549" y="-872.1332" font-family="Times,serif" font-size="11.00" fill="#c0c0c0">States</text>
</g>
<g id="clust25" class="cluster">
<title>cluster_\Firesphere\SolrSubsites</title>
<path fill="none" stroke="#c0c0c0" d="M857.2549,-920.9332C857.2549,-920.9332 996.2549,-920.9332 996.2549,-920.9332 1002.2549,-920.9332 1008.2549,-926.9332 1008.2549,-932.9332 1008.2549,-932.9332 1008.2549,-1096.9332 1008.2549,-1096.9332 1008.2549,-1102.9332 1002.2549,-1108.9332 996.2549,-1108.9332 996.2549,-1108.9332 857.2549,-1108.9332 857.2549,-1108.9332 851.2549,-1108.9332 845.2549,-1102.9332 845.2549,-1096.9332 845.2549,-1096.9332 845.2549,-932.9332 845.2549,-932.9332 845.2549,-926.9332 851.2549,-920.9332 857.2549,-920.9332"/>
<text text-anchor="middle" x="926.7549" y="-1096.1332" font-family="Times,serif" font-size="11.00" fill="#c0c0c0">SolrSubsites</text>
</g>
<g id="clust26" class="cluster">
<title>cluster_\Firesphere\SolrSubsites\Extensions</title>
<path fill="none" stroke="#c0c0c0" d="M865.2549,-928.9332C865.2549,-928.9332 988.2549,-928.9332 988.2549,-928.9332 994.2549,-928.9332 1000.2549,-934.9332 1000.2549,-940.9332 1000.2549,-940.9332 1000.2549,-988.9332 1000.2549,-988.9332 1000.2549,-994.9332 994.2549,-1000.9332 988.2549,-1000.9332 988.2549,-1000.9332 865.2549,-1000.9332 865.2549,-1000.9332 859.2549,-1000.9332 853.2549,-994.9332 853.2549,-988.9332 853.2549,-988.9332 853.2549,-940.9332 853.2549,-940.9332 853.2549,-934.9332 859.2549,-928.9332 865.2549,-928.9332"/>
<text text-anchor="middle" x="926.7549" y="-988.1332" font-family="Times,serif" font-size="11.00" fill="#c0c0c0">Extensions</text>
</g>
<g id="clust27" class="cluster">
<title>cluster_\Firesphere\SolrSubsites\States</title>
<path fill="none" stroke="#c0c0c0" d="M881.7549,-1008.9332C881.7549,-1008.9332 971.7549,-1008.9332 971.7549,-1008.9332 977.7549,-1008.9332 983.7549,-1014.9332 983.7549,-1020.9332 983.7549,-1020.9332 983.7549,-1068.9332 983.7549,-1068.9332 983.7549,-1074.9332 977.7549,-1080.9332 971.7549,-1080.9332 971.7549,-1080.9332 881.7549,-1080.9332 881.7549,-1080.9332 875.7549,-1080.9332 869.7549,-1074.9332 869.7549,-1068.9332 869.7549,-1068.9332 869.7549,-1020.9332 869.7549,-1020.9332 869.7549,-1014.9332 875.7549,-1008.9332 881.7549,-1008.9332"/>
<text text-anchor="middle" x="926.7549" y="-1068.1332" font-family="Times,serif" font-size="11.00" fill="#c0c0c0">States</text>
</g>
<g id="clust28" class="cluster">
<title>cluster_\Firesphere\SolrPermissions</title>
<path fill="none" stroke="#c0c0c0" d="M833.2549,-338.9332C833.2549,-338.9332 1020.2549,-338.9332 1020.2549,-338.9332 1026.2549,-338.9332 1032.2549,-344.9332 1032.2549,-350.9332 1032.2549,-350.9332 1032.2549,-596.9332 1032.2549,-596.9332 1032.2549,-602.9332 1026.2549,-608.9332 1020.2549,-608.9332 1020.2549,-608.9332 833.2549,-608.9332 833.2549,-608.9332 827.2549,-608.9332 821.2549,-602.9332 821.2549,-596.9332 821.2549,-596.9332 821.2549,-350.9332 821.2549,-350.9332 821.2549,-344.9332 827.2549,-338.9332 833.2549,-338.9332"/>
<text text-anchor="middle" x="926.7549" y="-596.1332" font-family="Times,serif" font-size="11.00" fill="#c0c0c0">SolrPermissions</text>
</g>
<g id="clust29" class="cluster">
<title>cluster_\Firesphere\SolrPermissions\Extensions</title>
<path fill="none" stroke="#c0c0c0" d="M841.2549,-346.9332C841.2549,-346.9332 1012.2549,-346.9332 1012.2549,-346.9332 1018.2549,-346.9332 1024.2549,-352.9332 1024.2549,-358.9332 1024.2549,-358.9332 1024.2549,-568.9332 1024.2549,-568.9332 1024.2549,-574.9332 1018.2549,-580.9332 1012.2549,-580.9332 1012.2549,-580.9332 841.2549,-580.9332 841.2549,-580.9332 835.2549,-580.9332 829.2549,-574.9332 829.2549,-568.9332 829.2549,-568.9332 829.2549,-358.9332 829.2549,-358.9332 829.2549,-352.9332 835.2549,-346.9332 841.2549,-346.9332"/>
<text text-anchor="middle" x="926.7549" y="-568.1332" font-family="Times,serif" font-size="11.00" fill="#c0c0c0">Extensions</text>
</g>
<g id="clust30" class="cluster">
<title>cluster_\SilverStripe</title>
<path fill="none" stroke="#c0c0c0" d="M861.2549,-3056.9332C861.2549,-3056.9332 992.2549,-3056.9332 992.2549,-3056.9332 998.2549,-3056.9332 1004.2549,-3062.9332 1004.2549,-3068.9332 1004.2549,-3068.9332 1004.2549,-3358.9332 1004.2549,-3358.9332 1004.2549,-3364.9332 998.2549,-3370.9332 992.2549,-3370.9332 992.2549,-3370.9332 861.2549,-3370.9332 861.2549,-3370.9332 855.2549,-3370.9332 849.2549,-3364.9332 849.2549,-3358.9332 849.2549,-3358.9332 849.2549,-3068.9332 849.2549,-3068.9332 849.2549,-3062.9332 855.2549,-3056.9332 861.2549,-3056.9332"/>
<text text-anchor="middle" x="926.7549" y="-3358.1332" font-family="Times,serif" font-size="11.00" fill="#c0c0c0">SilverStripe</text>
</g>
<g id="clust31" class="cluster">
<title>cluster_\SilverStripe\FullTextSearch</title>
<path fill="none" stroke="#c0c0c0" d="M869.2549,-3064.9332C869.2549,-3064.9332 984.2549,-3064.9332 984.2549,-3064.9332 990.2549,-3064.9332 996.2549,-3070.9332 996.2549,-3076.9332 996.2549,-3076.9332 996.2549,-3330.9332 996.2549,-3330.9332 996.2549,-3336.9332 990.2549,-3342.9332 984.2549,-3342.9332 984.2549,-3342.9332 869.2549,-3342.9332 869.2549,-3342.9332 863.2549,-3342.9332 857.2549,-3336.9332 857.2549,-3330.9332 857.2549,-3330.9332 857.2549,-3076.9332 857.2549,-3076.9332 857.2549,-3070.9332 863.2549,-3064.9332 869.2549,-3064.9332"/>
<text text-anchor="middle" x="926.7549" y="-3330.1332" font-family="Times,serif" font-size="11.00" fill="#c0c0c0">FullTextSearch</text>
</g>
<g id="clust32" class="cluster">
<title>cluster_\SilverStripe\FullTextSearch\Solr</title>
<path fill="none" stroke="#c0c0c0" d="M888.7549,-3188.9332C888.7549,-3188.9332 964.7549,-3188.9332 964.7549,-3188.9332 970.7549,-3188.9332 976.7549,-3194.9332 976.7549,-3200.9332 976.7549,-3200.9332 976.7549,-3302.9332 976.7549,-3302.9332 976.7549,-3308.9332 970.7549,-3314.9332 964.7549,-3314.9332 964.7549,-3314.9332 888.7549,-3314.9332 888.7549,-3314.9332 882.7549,-3314.9332 876.7549,-3308.9332 876.7549,-3302.9332 876.7549,-3302.9332 876.7549,-3200.9332 876.7549,-3200.9332 876.7549,-3194.9332 882.7549,-3188.9332 888.7549,-3188.9332"/>
<text text-anchor="middle" x="926.7549" y="-3302.1332" font-family="Times,serif" font-size="11.00" fill="#c0c0c0">Solr</text>
</g>
<g id="clust33" class="cluster">
<title>cluster_\SilverStripe\FullTextSearch\Search</title>
<path fill="none" stroke="#c0c0c0" d="M877.2549,-3072.9332C877.2549,-3072.9332 976.2549,-3072.9332 976.2549,-3072.9332 982.2549,-3072.9332 988.2549,-3078.9332 988.2549,-3084.9332 988.2549,-3084.9332 988.2549,-3168.9332 988.2549,-3168.9332 988.2549,-3174.9332 982.2549,-3180.9332 976.2549,-3180.9332 976.2549,-3180.9332 877.2549,-3180.9332 877.2549,-3180.9332 871.2549,-3180.9332 865.2549,-3174.9332 865.2549,-3168.9332 865.2549,-3168.9332 865.2549,-3084.9332 865.2549,-3084.9332 865.2549,-3078.9332 871.2549,-3072.9332 877.2549,-3072.9332"/>
<text text-anchor="middle" x="926.7549" y="-3168.1332" font-family="Times,serif" font-size="11.00" fill="#c0c0c0">Search</text>
</g>
<g id="clust34" class="cluster">
<title>cluster_\SilverStripe\FullTextSearch\Search\Queries</title>
<path fill="none" stroke="#c0c0c0" d="M885.2549,-3080.9332C885.2549,-3080.9332 968.2549,-3080.9332 968.2549,-3080.9332 974.2549,-3080.9332 980.2549,-3086.9332 980.2549,-3092.9332 980.2549,-3092.9332 980.2549,-3140.9332 980.2549,-3140.9332 980.2549,-3146.9332 974.2549,-3152.9332 968.2549,-3152.9332 968.2549,-3152.9332 885.2549,-3152.9332 885.2549,-3152.9332 879.2549,-3152.9332 873.2549,-3146.9332 873.2549,-3140.9332 873.2549,-3140.9332 873.2549,-3092.9332 873.2549,-3092.9332 873.2549,-3086.9332 879.2549,-3080.9332 885.2549,-3080.9332"/>
<text text-anchor="middle" x="926.7549" y="-3140.1332" font-family="Times,serif" font-size="11.00" fill="#c0c0c0">Queries</text>
</g>
<!-- \\Firesphere\\SolrCompatibility\\Extensions\\FulltextSearchExtension -->
<g id="node1" class="node">
<title>\\Firesphere\\SolrCompatibility\\Extensions\\FulltextSearchExtension</title>
<polygon fill="none" stroke="#000000" points="1012.7549,-274.9332 840.7549,-274.9332 840.7549,-238.9332 1012.7549,-238.9332 1012.7549,-274.9332"/>
<text text-anchor="middle" x="926.7549" y="-254.1332" font-family="Courier,monospace" font-size="11.00" fill="#000000">FulltextSearchExtension</text>
</g>
<!-- \\SilverStripe\\Core\\Extension -->
<g id="node63" class="node">
<title>\\SilverStripe\\Core\\Extension</title>
<ellipse fill="none" stroke="#000000" cx="254.1275" cy="-18.9332" rx="144.0747" ry="18"/>
<text text-anchor="middle" x="254.1275" y="-15.2332" font-family="Times,serif" font-size="14.00" fill="#c0c0c0">\SilverStripe\Core\Extension</text>
</g>
<!-- \\Firesphere\\SolrCompatibility\\Extensions\\FulltextSearchExtension&#45;&gt;\\SilverStripe\\Core\\Extension -->
<g id="edge1" class="edge">
<title>\\Firesphere\\SolrCompatibility\\Extensions\\FulltextSearchExtension&#45;&gt;\\SilverStripe\\Core\\Extension</title>
<path fill="none" stroke="#000000" d="M840.5088,-243.3648C833.4442,-239.8189 826.8743,-235.409 821.2549,-229.9332 774.6022,-184.4724 828.6481,-133.6215 781.2549,-88.9332 745.3221,-55.0511 716.6848,-87.5014 672.7549,-64.9332"/>
</g>
<!-- \\Firesphere\\SolrCompatibility\\Extensions\\SolrCoreServiceExtension -->
<g id="node2" class="node">
<title>\\Firesphere\\SolrCompatibility\\Extensions\\SolrCoreServiceExtension</title>
<polygon fill="none" stroke="#000000" points="1016.2549,-220.9332 837.2549,-220.9332 837.2549,-184.9332 1016.2549,-184.9332 1016.2549,-220.9332"/>
<text text-anchor="middle" x="926.7549" y="-200.1332" font-family="Courier,monospace" font-size="11.00" fill="#000000">SolrCoreServiceExtension</text>
</g>
<!-- \\Firesphere\\SolrCompatibility\\Extensions\\SolrCoreServiceExtension&#45;&gt;\\SilverStripe\\Core\\Extension -->
<g id="edge2" class="edge">
<title>\\Firesphere\\SolrCompatibility\\Extensions\\SolrCoreServiceExtension&#45;&gt;\\SilverStripe\\Core\\Extension</title>
<path fill="none" stroke="#000000" d="M909.2812,-184.8535C883.6376,-159.4227 833.1975,-113.4596 781.2549,-88.9332 736.5953,-67.8457 716.6848,-87.5014 672.7549,-64.9332"/>
<path fill="none" stroke="#000000" d="M672.7549,-64.9332C585.4855,-20.1001 474.685,-9.6286 388.9993,-9.8141"/>
<polygon fill="none" stroke="#000000" points="388.9177,-6.3145 378.9425,-9.8848 388.9669,-13.3143 388.9177,-6.3145"/>
</g>
<!-- \\Firesphere\\SolrSearch\\Interfaces\\ConfigStore -->
<g id="node3" class="node">
<title>\\Firesphere\\SolrSearch\\Interfaces\\ConfigStore</title>
<polygon fill="none" stroke="#000000" points="299.6275,-358.9332 208.6275,-358.9332 208.6275,-322.9332 299.6275,-322.9332 299.6275,-358.9332"/>
<text text-anchor="middle" x="254.1275" y="-338.1332" font-family="Courier,monospace" font-size="11.00" fill="#000000">ConfigStore</text>
</g>
<!-- \\Firesphere\\SolrSearch\\Interfaces\\SiteStateInterface -->
<g id="node4" class="node">
<title>\\Firesphere\\SolrSearch\\Interfaces\\SiteStateInterface</title>
<polygon fill="none" stroke="#000000" points="323.1275,-304.9332 185.1275,-304.9332 185.1275,-268.9332 323.1275,-268.9332 323.1275,-304.9332"/>
<text text-anchor="middle" x="254.1275" y="-284.1332" font-family="Courier,monospace" font-size="11.00" fill="#000000">SiteStateInterface</text>
</g>
<!-- \\Firesphere\\SolrSearch\\Extensions\\DataObjectExtension -->
<g id="node5" class="node">
<title>\\Firesphere\\SolrSearch\\Extensions\\DataObjectExtension</title>
<polygon fill="none" stroke="#000000" points="745.2549,-2964.9332 600.2549,-2964.9332 600.2549,-2928.9332 745.2549,-2928.9332 745.2549,-2964.9332"/>
<text text-anchor="middle" x="672.7549" y="-2944.1332" font-family="Courier,monospace" font-size="11.00" fill="#000000">DataObjectExtension</text>
</g>
<!-- \\SilverStripe\\ORM\\DataExtension -->
<g id="node64" class="node">
<title>\\SilverStripe\\ORM\\DataExtension</title>
<ellipse fill="none" stroke="#000000" cx="254.1275" cy="-72.9332" rx="167.8704" ry="18"/>
<text text-anchor="middle" x="254.1275" y="-69.2332" font-family="Times,serif" font-size="14.00" fill="#c0c0c0">\SilverStripe\ORM\DataExtension</text>
</g>
<!-- \\Firesphere\\SolrSearch\\Extensions\\DataObjectExtension&#45;&gt;\\SilverStripe\\ORM\\DataExtension -->
<g id="edge5" class="edge">
<title>\\Firesphere\\SolrSearch\\Extensions\\DataObjectExtension&#45;&gt;\\SilverStripe\\ORM\\DataExtension</title>
<path fill="none" stroke="#000000" d="M600.0059,-2939.5C589.2454,-2935.2634 579.3944,-2929.0283 572.2549,-2919.9332 475.494,-2796.6675 614.3618,-215.252 508.2549,-99.9332 467.3885,-55.5188 398.1967,-50.6824 342.3218,-55.9031"/>
<polygon fill="none" stroke="#000000" points="341.6306,-52.4566 332.0535,-56.9877 342.3659,-59.4179 341.6306,-52.4566"/>
</g>
<!-- \\Firesphere\\SolrSearch\\Extensions\\GridFieldExtension -->
<g id="node6" class="node">
<title>\\Firesphere\\SolrSearch\\Extensions\\GridFieldExtension</title>
<polygon fill="none" stroke="#000000" points="741.7549,-2910.9332 603.7549,-2910.9332 603.7549,-2874.9332 741.7549,-2874.9332 741.7549,-2910.9332"/>
<text text-anchor="middle" x="672.7549" y="-2890.1332" font-family="Courier,monospace" font-size="11.00" fill="#000000">GridFieldExtension</text>
</g>
<!-- \\Firesphere\\SolrSearch\\Extensions\\GridFieldExtension&#45;&gt;\\SilverStripe\\Core\\Extension -->
<g id="edge6" class="edge">
<title>\\Firesphere\\SolrSearch\\Extensions\\GridFieldExtension&#45;&gt;\\SilverStripe\\Core\\Extension</title>
<path fill="none" stroke="#000000" d="M603.6998,-2884.7757C591.4771,-2880.1932 580.1517,-2873.2841 572.2549,-2862.9332 477.3055,-2738.4763 614.2503,-161.1281 508.2549,-45.9332 466.3821,-.4262 394.773,3.5312 338.2206,-2.3068"/>
<polygon fill="none" stroke="#000000" points="337.7417,1.1613 328.2067,-3.4574 338.5409,-5.7929 337.7417,1.1613"/>
</g>
<!-- \\Firesphere\\SolrSearch\\States\\SiteState -->
<g id="node7" class="node">
<title>\\Firesphere\\SolrSearch\\States\\SiteState</title>
<polygon fill="none" stroke="#000000" points="714.7549,-2830.9332 630.7549,-2830.9332 630.7549,-2794.9332 714.7549,-2794.9332 714.7549,-2830.9332"/>
<text text-anchor="start" x="638.7549" y="-2816.1332" font-family="Courier,monospace" font-size="11.00" fill="#000000">«abstract»</text>
<text text-anchor="start" x="642.2549" y="-2804.1332" font-family="Courier,monospace" font-size="11.00" fill="#000000">SiteState</text>
</g>
<!-- \\Firesphere\\SolrSearch\\Jobs\\SolrIndexJob -->
<g id="node8" class="node">
<title>\\Firesphere\\SolrSearch\\Jobs\\SolrIndexJob</title>
<polygon fill="none" stroke="#000000" points="721.7549,-2750.9332 623.7549,-2750.9332 623.7549,-2714.9332 721.7549,-2714.9332 721.7549,-2750.9332"/>
<text text-anchor="middle" x="672.7549" y="-2730.1332" font-family="Courier,monospace" font-size="11.00" fill="#000000">SolrIndexJob</text>
</g>
<!-- \\Symbiote\\QueuedJobs\\Services\\AbstractQueuedJob -->
<g id="node65" class="node">
<title>\\Symbiote\\QueuedJobs\\Services\\AbstractQueuedJob</title>
<ellipse fill="none" stroke="#000000" cx="254.1275" cy="-126.9332" rx="254.255" ry="18"/>
<text text-anchor="middle" x="254.1275" y="-123.2332" font-family="Times,serif" font-size="14.00" fill="#c0c0c0">\Symbiote\QueuedJobs\Services\AbstractQueuedJob</text>
</g>
<!-- \\Firesphere\\SolrSearch\\Jobs\\SolrIndexJob&#45;&gt;\\Symbiote\\QueuedJobs\\Services\\AbstractQueuedJob -->
<g id="edge7" class="edge">
<title>\\Firesphere\\SolrSearch\\Jobs\\SolrIndexJob&#45;&gt;\\Symbiote\\QueuedJobs\\Services\\AbstractQueuedJob</title>
<path fill="none" stroke="#000000" d="M623.714,-2731.7945C604.6534,-2728.6593 584.4969,-2721.4734 572.2549,-2705.9332 403.8112,-2492.1067 653.3155,-487.2643 508.2549,-256.9332 471.6184,-198.7608 400.064,-165.4606 342.1935,-147.1587"/>
<polygon fill="none" stroke="#000000" points="342.8831,-143.7096 332.2966,-144.131 340.8353,-150.4033 342.8831,-143.7096"/>
</g>
<!-- \\Firesphere\\SolrSearch\\Jobs\\ClearDirtyClassesJob -->
<g id="node9" class="node">
<title>\\Firesphere\\SolrSearch\\Jobs\\ClearDirtyClassesJob</title>
<polygon fill="none" stroke="#000000" points="748.7549,-2696.9332 596.7549,-2696.9332 596.7549,-2660.9332 748.7549,-2660.9332 748.7549,-2696.9332"/>
<text text-anchor="middle" x="672.7549" y="-2676.1332" font-family="Courier,monospace" font-size="11.00" fill="#000000">ClearDirtyClassesJob</text>
</g>
<!-- \\Firesphere\\SolrSearch\\Jobs\\ClearDirtyClassesJob&#45;&gt;\\Symbiote\\QueuedJobs\\Services\\AbstractQueuedJob -->
<g id="edge8" class="edge">
<title>\\Firesphere\\SolrSearch\\Jobs\\ClearDirtyClassesJob&#45;&gt;\\Symbiote\\QueuedJobs\\Services\\AbstractQueuedJob</title>
<path fill="none" stroke="#000000" d="M596.5397,-2670.0138C587.1483,-2665.8454 578.6298,-2660.0207 572.2549,-2651.9332 407.4613,-2442.8668 650.1855,-482.1473 508.2549,-256.9332 471.6013,-198.7716 400.0483,-165.4705 342.1827,-147.1654"/>
<polygon fill="none" stroke="#000000" points="342.8732,-143.7166 332.2867,-144.1372 340.8249,-150.4102 342.8732,-143.7166"/>
</g>
<!-- \\Firesphere\\SolrSearch\\Jobs\\SolrConfigureJob -->
<g id="node10" class="node">
<title>\\Firesphere\\SolrSearch\\Jobs\\SolrConfigureJob</title>
<polygon fill="none" stroke="#000000" points="735.2549,-2642.9332 610.2549,-2642.9332 610.2549,-2606.9332 735.2549,-2606.9332 735.2549,-2642.9332"/>
<text text-anchor="middle" x="672.7549" y="-2622.1332" font-family="Courier,monospace" font-size="11.00" fill="#000000">SolrConfigureJob</text>
</g>
<!-- \\Firesphere\\SolrSearch\\Jobs\\SolrConfigureJob&#45;&gt;\\Symbiote\\QueuedJobs\\Services\\AbstractQueuedJob -->
<g id="edge9" class="edge">
<title>\\Firesphere\\SolrSearch\\Jobs\\SolrConfigureJob&#45;&gt;\\Symbiote\\QueuedJobs\\Services\\AbstractQueuedJob</title>
<path fill="none" stroke="#000000" d="M610.2174,-2618.9425C595.5797,-2614.4748 581.5605,-2607.072 572.2549,-2594.9332 414.1479,-2388.6876 646.8816,-476.7461 508.2549,-256.9332 471.5824,-198.7835 400.031,-165.4814 342.1708,-147.173"/>
<polygon fill="none" stroke="#000000" points="342.8623,-143.7244 332.2758,-144.1441 340.8134,-150.4178 342.8623,-143.7244"/>
</g>
<!-- \\Firesphere\\SolrSearch\\Helpers\\FieldResolver -->
<g id="node11" class="node">
<title>\\Firesphere\\SolrSearch\\Helpers\\FieldResolver</title>
<polygon fill="none" stroke="#000000" points="724.7549,-2562.9332 620.7549,-2562.9332 620.7549,-2526.9332 724.7549,-2526.9332 724.7549,-2562.9332"/>
<text text-anchor="middle" x="672.7549" y="-2542.1332" font-family="Courier,monospace" font-size="11.00" fill="#000000">FieldResolver</text>
</g>
<!-- \\Firesphere\\SolrSearch\\Helpers\\Statics -->
<g id="node12" class="node">
<title>\\Firesphere\\SolrSearch\\Helpers\\Statics</title>
<polygon fill="none" stroke="#000000" points="704.7549,-2508.9332 640.7549,-2508.9332 640.7549,-2472.9332 704.7549,-2472.9332 704.7549,-2508.9332"/>
<text text-anchor="middle" x="672.7549" y="-2488.1332" font-family="Courier,monospace" font-size="11.00" fill="#000000">Statics</text>
</g>
<!-- \\Firesphere\\SolrSearch\\Helpers\\Synonyms -->
<g id="node13" class="node">
<title>\\Firesphere\\SolrSearch\\Helpers\\Synonyms</title>
<polygon fill="none" stroke="#000000" points="708.2549,-2454.9332 637.2549,-2454.9332 637.2549,-2418.9332 708.2549,-2418.9332 708.2549,-2454.9332"/>
<text text-anchor="middle" x="672.7549" y="-2434.1332" font-family="Courier,monospace" font-size="11.00" fill="#000000">Synonyms</text>
</g>
<!-- \\Firesphere\\SolrSearch\\Helpers\\SolrLogger -->
<g id="node14" class="node">
<title>\\Firesphere\\SolrSearch\\Helpers\\SolrLogger</title>
<polygon fill="none" stroke="#000000" points="714.7549,-2400.9332 630.7549,-2400.9332 630.7549,-2364.9332 714.7549,-2364.9332 714.7549,-2400.9332"/>
<text text-anchor="middle" x="672.7549" y="-2380.1332" font-family="Courier,monospace" font-size="11.00" fill="#000000">SolrLogger</text>
</g>
<!-- \\Firesphere\\SolrSearch\\Helpers\\DataResolver -->
<g id="node15" class="node">
<title>\\Firesphere\\SolrSearch\\Helpers\\DataResolver</title>
<polygon fill="none" stroke="#000000" points="721.7549,-2346.9332 623.7549,-2346.9332 623.7549,-2310.9332 721.7549,-2310.9332 721.7549,-2346.9332"/>
<text text-anchor="middle" x="672.7549" y="-2326.1332" font-family="Courier,monospace" font-size="11.00" fill="#000000">DataResolver</text>
</g>
<!-- \\Firesphere\\SolrSearch\\Models\\SolrLog -->
<g id="node16" class="node">
<title>\\Firesphere\\SolrSearch\\Models\\SolrLog</title>
<polygon fill="none" stroke="#000000" points="704.7549,-2158.9332 640.7549,-2158.9332 640.7549,-2122.9332 704.7549,-2122.9332 704.7549,-2158.9332"/>
<text text-anchor="middle" x="672.7549" y="-2138.1332" font-family="Courier,monospace" font-size="11.00" fill="#000000">SolrLog</text>
</g>
<!-- \\SilverStripe\\ORM\\DataObject -->
<g id="node66" class="node">
<title>\\SilverStripe\\ORM\\DataObject</title>
<ellipse fill="none" stroke="#000000" cx="254.1275" cy="-3694.9332" rx="152.9733" ry="18"/>
<text text-anchor="middle" x="254.1275" y="-3691.2332" font-family="Times,serif" font-size="14.00" fill="#c0c0c0">\SilverStripe\ORM\DataObject</text>
</g>
<!-- \\Firesphere\\SolrSearch\\Models\\SolrLog&#45;&gt;\\SilverStripe\\ORM\\DataObject -->
<g id="edge10" class="edge">
<title>\\Firesphere\\SolrSearch\\Models\\SolrLog&#45;&gt;\\SilverStripe\\ORM\\DataObject</title>
<path fill="none" stroke="#000000" d="M640.7399,-2140.286C617.8748,-2141.7093 588.4091,-2147.7713 572.2549,-2167.9332 467.9469,-2298.1184 622.427,-3546.3064 508.2549,-3667.9332 466.7331,-3712.1661 397.0647,-3716.8492 341.1643,-3711.6129"/>
<polygon fill="none" stroke="#000000" points="341.2092,-3708.0982 330.8965,-3710.527 340.473,-3715.0594 341.2092,-3708.0982"/>
</g>
<!-- \\SilverStripe\\Security\\PermissionProvider -->
<g id="node67" class="node">
<title>\\SilverStripe\\Security\\PermissionProvider</title>
<ellipse fill="none" stroke="#000000" cx="254.1275" cy="-3640.9332" rx="206.0634" ry="18"/>
<text text-anchor="middle" x="254.1275" y="-3637.2332" font-family="Times,serif" font-size="14.00" fill="#c0c0c0">\SilverStripe\Security\PermissionProvider</text>
</g>
<!-- \\Firesphere\\SolrSearch\\Models\\SolrLog&#45;&gt;\\SilverStripe\\Security\\PermissionProvider -->
<g id="edge11" class="edge">
<title>\\Firesphere\\SolrSearch\\Models\\SolrLog&#45;&gt;\\SilverStripe\\Security\\PermissionProvider</title>
<path fill="none" stroke="#000000" stroke-dasharray="1,5" d="M640.7493,-2140.2935C617.8889,-2141.7206 588.4252,-2147.7842 572.2549,-2167.9332 471.5953,-2293.3604 618.4176,-3496.7644 508.2549,-3613.9332 468.5576,-3656.1551 403.2108,-3662.32 348.7238,-3658.2309"/>
<polygon fill="none" stroke="#000000" points="348.9514,-3654.7376 338.6848,-3657.3545 348.3425,-3661.711 348.9514,-3654.7376"/>
</g>
<!-- \\Firesphere\\SolrSearch\\Models\\DirtyClass -->
<g id="node17" class="node">
<title>\\Firesphere\\SolrSearch\\Models\\DirtyClass</title>
<polygon fill="none" stroke="#000000" points="714.7549,-2212.9332 630.7549,-2212.9332 630.7549,-2176.9332 714.7549,-2176.9332 714.7549,-2212.9332"/>
<text text-anchor="middle" x="672.7549" y="-2192.1332" font-family="Courier,monospace" font-size="11.00" fill="#000000">DirtyClass</text>
</g>
<!-- \\Firesphere\\SolrSearch\\Models\\DirtyClass&#45;&gt;\\SilverStripe\\ORM\\DataObject -->
<g id="edge12" class="edge">
<title>\\Firesphere\\SolrSearch\\Models\\DirtyClass&#45;&gt;\\SilverStripe\\ORM\\DataObject</title>
<path fill="none" stroke="#000000" d="M630.5692,-2195.221C609.7145,-2197.7486 586.1071,-2204.6727 572.2549,-2221.9332 471.5953,-2347.3604 618.4176,-3550.7644 508.2549,-3667.9332 466.6979,-3712.133 397.0319,-3716.8185 341.1414,-3711.5914"/>
<polygon fill="none" stroke="#000000" points="341.1879,-3708.0769 330.8756,-3710.5073 340.4527,-3715.0382 341.1879,-3708.0769"/>
</g>
<!-- \\Firesphere\\SolrSearch\\Models\\SearchSynonym -->
<g id="node18" class="node">
<title>\\Firesphere\\SolrSearch\\Models\\SearchSynonym</title>
<polygon fill="none" stroke="#000000" points="724.7549,-2266.9332 620.7549,-2266.9332 620.7549,-2230.9332 724.7549,-2230.9332 724.7549,-2266.9332"/>
<text text-anchor="middle" x="672.7549" y="-2246.1332" font-family="Courier,monospace" font-size="11.00" fill="#000000">SearchSynonym</text>
</g>
<!-- \\Firesphere\\SolrSearch\\Models\\SearchSynonym&#45;&gt;\\SilverStripe\\ORM\\DataObject -->
<g id="edge13" class="edge">
<title>\\Firesphere\\SolrSearch\\Models\\SearchSynonym&#45;&gt;\\SilverStripe\\ORM\\DataObject</title>
<path fill="none" stroke="#000000" d="M620.5109,-2262.8187C602.1689,-2270.4124 583.3801,-2281.8756 572.2549,-2298.9332 489.0674,-2426.48 612.7009,-3557.1208 508.2549,-3667.9332 466.7147,-3712.0054 397.2205,-3716.7541 341.3943,-3711.5846"/>
<polygon fill="none" stroke="#000000" points="341.4492,-3708.0713 331.1392,-3710.5111 340.7204,-3715.0333 341.4492,-3708.0713"/>
</g>
<!-- \\Firesphere\\SolrSearch\\Indexes\\BaseIndex -->
<g id="node19" class="node">
<title>\\Firesphere\\SolrSearch\\Indexes\\BaseIndex</title>
<polygon fill="none" stroke="#000000" points="714.7549,-2078.9332 630.7549,-2078.9332 630.7549,-2042.9332 714.7549,-2042.9332 714.7549,-2078.9332"/>
<text text-anchor="start" x="638.7549" y="-2064.1332" font-family="Courier,monospace" font-size="11.00" fill="#000000">«abstract»</text>
<text text-anchor="start" x="642.2549" y="-2052.1332" font-family="Courier,monospace" font-size="11.00" fill="#000000">BaseIndex</text>
</g>
<!-- \\Firesphere\\SolrSearch\\Traits\\GetSetSearchResolverTrait -->
<g id="node20" class="node">
<title>\\Firesphere\\SolrSearch\\Traits\\GetSetSearchResolverTrait</title>
<polygon fill="none" stroke="#000000" points="765.2549,-1998.9332 580.2549,-1998.9332 580.2549,-1962.9332 765.2549,-1962.9332 765.2549,-1998.9332"/>
<text text-anchor="middle" x="672.7549" y="-1978.1332" font-family="Courier,monospace" font-size="11.00" fill="#000000">GetSetSearchResolverTrait</text>
</g>
<!-- \\Firesphere\\SolrSearch\\Traits\\GetterSetterTrait -->
<g id="node21" class="node">
<title>\\Firesphere\\SolrSearch\\Traits\\GetterSetterTrait</title>
<polygon fill="none" stroke="#000000" points="738.2549,-1944.9332 607.2549,-1944.9332 607.2549,-1908.9332 738.2549,-1908.9332 738.2549,-1944.9332"/>
<text text-anchor="middle" x="672.7549" y="-1924.1332" font-family="Courier,monospace" font-size="11.00" fill="#000000">GetterSetterTrait</text>
</g>
<!-- \\Firesphere\\SolrSearch\\Traits\\LoggerTrait -->
<g id="node22" class="node">
<title>\\Firesphere\\SolrSearch\\Traits\\LoggerTrait</title>
<polygon fill="none" stroke="#000000" points="718.2549,-1890.9332 627.2549,-1890.9332 627.2549,-1854.9332 718.2549,-1854.9332 718.2549,-1890.9332"/>
<text text-anchor="middle" x="672.7549" y="-1870.1332" font-family="Courier,monospace" font-size="11.00" fill="#000000">LoggerTrait</text>
</g>
<!-- \\Firesphere\\SolrSearch\\Traits\\GetSetSchemaServiceTrait -->
<g id="node23" class="node">
<title>\\Firesphere\\SolrSearch\\Traits\\GetSetSchemaServiceTrait</title>
<polygon fill="none" stroke="#000000" points="762.2549,-1836.9332 583.2549,-1836.9332 583.2549,-1800.9332 762.2549,-1800.9332 762.2549,-1836.9332"/>
<text text-anchor="middle" x="672.7549" y="-1816.1332" font-family="Courier,monospace" font-size="11.00" fill="#000000">GetSetSchemaServiceTrait</text>
</g>
<!-- \\Firesphere\\SolrSearch\\Traits\\BaseIndexTrait -->
<g id="node24" class="node">
<title>\\Firesphere\\SolrSearch\\Traits\\BaseIndexTrait</title>
<polygon fill="none" stroke="#000000" points="728.2549,-1782.9332 617.2549,-1782.9332 617.2549,-1746.9332 728.2549,-1746.9332 728.2549,-1782.9332"/>
<text text-anchor="middle" x="672.7549" y="-1762.1332" font-family="Courier,monospace" font-size="11.00" fill="#000000">BaseIndexTrait</text>
</g>
<!-- \\Firesphere\\SolrSearch\\Traits\\SolrIndexTrait -->
<g id="node25" class="node">
<title>\\Firesphere\\SolrSearch\\Traits\\SolrIndexTrait</title>
<polygon fill="none" stroke="#000000" points="728.2549,-1728.9332 617.2549,-1728.9332 617.2549,-1692.9332 728.2549,-1692.9332 728.2549,-1728.9332"/>
<text text-anchor="middle" x="672.7549" y="-1708.1332" font-family="Courier,monospace" font-size="11.00" fill="#000000">SolrIndexTrait</text>
</g>
<!-- \\Firesphere\\SolrSearch\\Traits\\SearchResultGetTrait -->
<g id="node26" class="node">
<title>\\Firesphere\\SolrSearch\\Traits\\SearchResultGetTrait</title>
<polygon fill="none" stroke="#000000" points="748.7549,-1674.9332 596.7549,-1674.9332 596.7549,-1638.9332 748.7549,-1638.9332 748.7549,-1674.9332"/>
<text text-anchor="middle" x="672.7549" y="-1654.1332" font-family="Courier,monospace" font-size="11.00" fill="#000000">SearchResultGetTrait</text>
</g>
<!-- \\Firesphere\\SolrSearch\\Traits\\SearchResultSetTrait -->
<g id="node27" class="node">
<title>\\Firesphere\\SolrSearch\\Traits\\SearchResultSetTrait</title>
<polygon fill="none" stroke="#000000" points="748.7549,-1620.9332 596.7549,-1620.9332 596.7549,-1584.9332 748.7549,-1584.9332 748.7549,-1620.9332"/>
<text text-anchor="middle" x="672.7549" y="-1600.1332" font-family="Courier,monospace" font-size="11.00" fill="#000000">SearchResultSetTrait</text>
</g>
<!-- \\Firesphere\\SolrSearch\\Traits\\CoreServiceTrait -->
<g id="node28" class="node">
<title>\\Firesphere\\SolrSearch\\Traits\\CoreServiceTrait</title>
<polygon fill="none" stroke="#000000" points="735.2549,-1566.9332 610.2549,-1566.9332 610.2549,-1530.9332 735.2549,-1530.9332 735.2549,-1566.9332"/>
<text text-anchor="middle" x="672.7549" y="-1546.1332" font-family="Courier,monospace" font-size="11.00" fill="#000000">CoreServiceTrait</text>
</g>
<!-- \\Firesphere\\SolrSearch\\Traits\\CoreAdminTrait -->
<g id="node29" class="node">
<title>\\Firesphere\\SolrSearch\\Traits\\CoreAdminTrait</title>
<polygon fill="none" stroke="#000000" points="728.2549,-1512.9332 617.2549,-1512.9332 617.2549,-1476.9332 728.2549,-1476.9332 728.2549,-1512.9332"/>
<text text-anchor="middle" x="672.7549" y="-1492.1332" font-family="Courier,monospace" font-size="11.00" fill="#000000">CoreAdminTrait</text>
</g>
<!-- \\Firesphere\\SolrSearch\\Traits\\DocumentFactoryTrait -->
<g id="node30" class="node">
<title>\\Firesphere\\SolrSearch\\Traits\\DocumentFactoryTrait</title>
<polygon fill="none" stroke="#000000" points="748.7549,-1458.9332 596.7549,-1458.9332 596.7549,-1422.9332 748.7549,-1422.9332 748.7549,-1458.9332"/>
<text text-anchor="middle" x="672.7549" y="-1438.1332" font-family="Courier,monospace" font-size="11.00" fill="#000000">DocumentFactoryTrait</text>
</g>
<!-- \\Firesphere\\SolrSearch\\Traits\\BaseQueryTrait -->
<g id="node31" class="node">
<title>\\Firesphere\\SolrSearch\\Traits\\BaseQueryTrait</title>
<polygon fill="none" stroke="#000000" points="728.2549,-1404.9332 617.2549,-1404.9332 617.2549,-1368.9332 728.2549,-1368.9332 728.2549,-1404.9332"/>
<text text-anchor="middle" x="672.7549" y="-1384.1332" font-family="Courier,monospace" font-size="11.00" fill="#000000">BaseQueryTrait</text>
</g>
<!-- \\Firesphere\\SolrSearch\\Traits\\QueryComponentFilterTrait -->
<g id="node32" class="node">
<title>\\Firesphere\\SolrSearch\\Traits\\QueryComponentFilterTrait</title>
<polygon fill="none" stroke="#000000" points="765.2549,-1350.9332 580.2549,-1350.9332 580.2549,-1314.9332 765.2549,-1314.9332 765.2549,-1350.9332"/>
<text text-anchor="middle" x="672.7549" y="-1330.1332" font-family="Courier,monospace" font-size="11.00" fill="#000000">QueryComponentFilterTrait</text>
</g>
<!-- \\Firesphere\\SolrSearch\\Traits\\QueryComponentFacetTrait -->
<g id="node33" class="node">
<title>\\Firesphere\\SolrSearch\\Traits\\QueryComponentFacetTrait</title>
<polygon fill="none" stroke="#000000" points="762.2549,-1296.9332 583.2549,-1296.9332 583.2549,-1260.9332 762.2549,-1260.9332 762.2549,-1296.9332"/>
<text text-anchor="middle" x="672.7549" y="-1276.1332" font-family="Courier,monospace" font-size="11.00" fill="#000000">QueryComponentFacetTrait</text>
</g>
<!-- \\Firesphere\\SolrSearch\\Traits\\QueryComponentBoostTrait -->
<g id="node34" class="node">
<title>\\Firesphere\\SolrSearch\\Traits\\QueryComponentBoostTrait</title>
<polygon fill="none" stroke="#000000" points="762.2549,-1242.9332 583.2549,-1242.9332 583.2549,-1206.9332 762.2549,-1206.9332 762.2549,-1242.9332"/>
<text text-anchor="middle" x="672.7549" y="-1222.1332" font-family="Courier,monospace" font-size="11.00" fill="#000000">QueryComponentBoostTrait</text>
</g>
<!-- \\Firesphere\\SolrSearch\\Traits\\DataResolveTrait -->
<g id="node35" class="node">
<title>\\Firesphere\\SolrSearch\\Traits\\DataResolveTrait</title>
<polygon fill="none" stroke="#000000" points="735.2549,-1188.9332 610.2549,-1188.9332 610.2549,-1152.9332 735.2549,-1152.9332 735.2549,-1188.9332"/>
<text text-anchor="middle" x="672.7549" y="-1168.1332" font-family="Courier,monospace" font-size="11.00" fill="#000000">DataResolveTrait</text>
</g>
<!-- \\Firesphere\\SolrSearch\\Queries\\BaseQuery -->
<g id="node36" class="node">
<title>\\Firesphere\\SolrSearch\\Queries\\BaseQuery</title>
<polygon fill="none" stroke="#000000" points="711.2549,-1108.9332 634.2549,-1108.9332 634.2549,-1072.9332 711.2549,-1072.9332 711.2549,-1108.9332"/>
<text text-anchor="middle" x="672.7549" y="-1088.1332" font-family="Courier,monospace" font-size="11.00" fill="#000000">BaseQuery</text>
</g>
<!-- \\Firesphere\\SolrSearch\\Forms\\SearchForm -->
<g id="node37" class="node">
<title>\\Firesphere\\SolrSearch\\Forms\\SearchForm</title>
<polygon fill="none" stroke="#000000" points="714.7549,-1028.9332 630.7549,-1028.9332 630.7549,-992.9332 714.7549,-992.9332 714.7549,-1028.9332"/>
<text text-anchor="middle" x="672.7549" y="-1008.1332" font-family="Courier,monospace" font-size="11.00" fill="#000000">SearchForm</text>
</g>
<!-- \\SilverStripe\\Forms\\Form -->
<g id="node68" class="node">
<title>\\SilverStripe\\Forms\\Form</title>
<ellipse fill="none" stroke="#000000" cx="254.1275" cy="-3586.9332" rx="129.1772" ry="18"/>
<text text-anchor="middle" x="254.1275" y="-3583.2332" font-family="Times,serif" font-size="14.00" fill="#c0c0c0">\SilverStripe\Forms\Form</text>
</g>
<!-- \\Firesphere\\SolrSearch\\Forms\\SearchForm&#45;&gt;\\SilverStripe\\Forms\\Form -->
<g id="edge14" class="edge">
<title>\\Firesphere\\SolrSearch\\Forms\\SearchForm&#45;&gt;\\SilverStripe\\Forms\\Form</title>
<path fill="none" stroke="#000000" d="M630.5085,-1020.8504C609.2267,-1028.1866 585.2417,-1040.5544 572.2549,-1060.9332 497.6189,-1178.0519 602.439,-3457.871 508.2549,-3559.9332 465.6068,-3606.1486 392.2816,-3609.4646 335.3231,-3603.2182"/>
<polygon fill="none" stroke="#000000" points="335.5994,-3599.7261 325.2507,-3601.9968 334.7567,-3606.6752 335.5994,-3599.7261"/>
</g>
<!-- \\Firesphere\\SolrSearch\\Results\\SearchResult -->
<g id="node38" class="node">
<title>\\Firesphere\\SolrSearch\\Results\\SearchResult</title>
<polygon fill="none" stroke="#000000" points="721.7549,-948.9332 623.7549,-948.9332 623.7549,-912.9332 721.7549,-912.9332 721.7549,-948.9332"/>
<text text-anchor="middle" x="672.7549" y="-928.1332" font-family="Courier,monospace" font-size="11.00" fill="#000000">SearchResult</text>
</g>
<!-- \\Firesphere\\SolrSearch\\Tasks\\ClearDirtyClassesTask -->
<g id="node39" class="node">
<title>\\Firesphere\\SolrSearch\\Tasks\\ClearDirtyClassesTask</title>
<polygon fill="none" stroke="#000000" points="751.7549,-760.9332 593.7549,-760.9332 593.7549,-724.9332 751.7549,-724.9332 751.7549,-760.9332"/>
<text text-anchor="middle" x="672.7549" y="-740.1332" font-family="Courier,monospace" font-size="11.00" fill="#000000">ClearDirtyClassesTask</text>
</g>
<!-- \\SilverStripe\\Dev\\BuildTask -->
<g id="node69" class="node">
<title>\\SilverStripe\\Dev\\BuildTask</title>
<ellipse fill="none" stroke="#000000" cx="254.1275" cy="-3532.9332" rx="139.9756" ry="18"/>
<text text-anchor="middle" x="254.1275" y="-3529.2332" font-family="Times,serif" font-size="14.00" fill="#c0c0c0">\SilverStripe\Dev\BuildTask</text>
</g>
<!-- \\Firesphere\\SolrSearch\\Tasks\\ClearDirtyClassesTask&#45;&gt;\\SilverStripe\\Dev\\BuildTask -->
<g id="edge15" class="edge">
<title>\\Firesphere\\SolrSearch\\Tasks\\ClearDirtyClassesTask&#45;&gt;\\SilverStripe\\Dev\\BuildTask</title>
<path fill="none" stroke="#000000" d="M593.5813,-753.2064C585.3594,-757.2571 577.9467,-762.6875 572.2549,-769.9332 478.3331,-889.4963 611.2417,-3394.0835 508.2549,-3505.9332 466.1542,-3551.657 394.0314,-3555.4239 337.3511,-3549.4612"/>
<polygon fill="none" stroke="#000000" points="337.6571,-3545.9732 327.3185,-3548.289 336.8447,-3552.9259 337.6571,-3545.9732"/>
</g>
<!-- \\Firesphere\\SolrSearch\\Tasks\\SolrConfigureTask -->
<g id="node40" class="node">
<title>\\Firesphere\\SolrSearch\\Tasks\\SolrConfigureTask</title>
<polygon fill="none" stroke="#000000" points="738.2549,-706.9332 607.2549,-706.9332 607.2549,-670.9332 738.2549,-670.9332 738.2549,-706.9332"/>
<text text-anchor="middle" x="672.7549" y="-686.1332" font-family="Courier,monospace" font-size="11.00" fill="#000000">SolrConfigureTask</text>
</g>
<!-- \\Firesphere\\SolrSearch\\Tasks\\SolrConfigureTask&#45;&gt;\\SilverStripe\\Dev\\BuildTask -->
<g id="edge16" class="edge">
<title>\\Firesphere\\SolrSearch\\Tasks\\SolrConfigureTask&#45;&gt;\\SilverStripe\\Dev\\BuildTask</title>
<path fill="none" stroke="#000000" d="M607.1812,-693.8655C593.6868,-698.0134 580.9575,-704.8495 572.2549,-715.9332 476.508,-837.8765 613.2475,-3391.8534 508.2549,-3505.9332 466.1645,-3551.6665 394.0407,-3555.4325 337.3575,-3549.4671"/>
<polygon fill="none" stroke="#000000" points="337.663,-3545.979 327.3243,-3548.2943 336.8503,-3552.9317 337.663,-3545.979"/>
</g>
<!-- \\Firesphere\\SolrSearch\\Tasks\\ClearErrorsTask -->
<g id="node41" class="node">
<title>\\Firesphere\\SolrSearch\\Tasks\\ClearErrorsTask</title>
<polygon fill="none" stroke="#000000" points="731.7549,-868.9332 613.7549,-868.9332 613.7549,-832.9332 731.7549,-832.9332 731.7549,-868.9332"/>
<text text-anchor="middle" x="672.7549" y="-848.1332" font-family="Courier,monospace" font-size="11.00" fill="#000000">ClearErrorsTask</text>
</g>
<!-- \\Firesphere\\SolrSearch\\Tasks\\ClearErrorsTask&#45;&gt;\\SilverStripe\\Dev\\BuildTask -->
<g id="edge17" class="edge">
<title>\\Firesphere\\SolrSearch\\Tasks\\ClearErrorsTask&#45;&gt;\\SilverStripe\\Dev\\BuildTask</title>
<path fill="none" stroke="#000000" d="M613.718,-867.5803C597.5697,-875.097 581.8824,-885.8084 572.2549,-900.9332 494.5187,-1023.057 606.3761,-3399.4935 508.2549,-3505.9332 466.1273,-3551.6323 394.007,-3555.4014 337.3346,-3549.446"/>
<polygon fill="none" stroke="#000000" points="337.6418,-3545.9582 327.3034,-3548.2751 336.8301,-3552.911 337.6418,-3545.9582"/>
</g>
<!-- \\Firesphere\\SolrSearch\\Tasks\\SolrIndexTask -->
<g id="node42" class="node">
<title>\\Firesphere\\SolrSearch\\Tasks\\SolrIndexTask</title>
<polygon fill="none" stroke="#000000" points="724.7549,-814.9332 620.7549,-814.9332 620.7549,-778.9332 724.7549,-778.9332 724.7549,-814.9332"/>
<text text-anchor="middle" x="672.7549" y="-794.1332" font-family="Courier,monospace" font-size="11.00" fill="#000000">SolrIndexTask</text>
</g>
<!-- \\Firesphere\\SolrSearch\\Tasks\\SolrIndexTask&#45;&gt;\\SilverStripe\\Dev\\BuildTask -->
<g id="edge18" class="edge">
<title>\\Firesphere\\SolrSearch\\Tasks\\SolrIndexTask&#45;&gt;\\SilverStripe\\Dev\\BuildTask</title>
<path fill="none" stroke="#000000" d="M620.5546,-798.6104C602.4483,-802.004 583.8094,-809.2313 572.2549,-823.9332 480.1582,-941.1161 609.236,-3396.3136 508.2549,-3505.9332 466.1434,-3551.6471 394.0216,-3555.4149 337.3445,-3549.4551"/>
<polygon fill="none" stroke="#000000" points="337.651,-3545.9672 327.3124,-3548.2834 336.8389,-3552.9199 337.651,-3545.9672"/>
</g>
<!-- \\Firesphere\\SolrSearch\\Services\\SchemaService -->
<g id="node43" class="node">
<title>\\Firesphere\\SolrSearch\\Services\\SchemaService</title>
<polygon fill="none" stroke="#000000" points="724.7549,-626.9332 620.7549,-626.9332 620.7549,-590.9332 724.7549,-590.9332 724.7549,-626.9332"/>
<text text-anchor="middle" x="672.7549" y="-606.1332" font-family="Courier,monospace" font-size="11.00" fill="#000000">SchemaService</text>
</g>
<!-- \\SilverStripe\\View\\ViewableData -->
<g id="node70" class="node">
<title>\\SilverStripe\\View\\ViewableData</title>
<ellipse fill="none" stroke="#000000" cx="254.1275" cy="-3478.9332" rx="163.2712" ry="18"/>
<text text-anchor="middle" x="254.1275" y="-3475.2332" font-family="Times,serif" font-size="14.00" fill="#c0c0c0">\SilverStripe\View\ViewableData</text>
</g>
<!-- \\Firesphere\\SolrSearch\\Services\\SchemaService&#45;&gt;\\SilverStripe\\View\\ViewableData -->
<g id="edge19" class="edge">
<title>\\Firesphere\\SolrSearch\\Services\\SchemaService&#45;&gt;\\SilverStripe\\View\\ViewableData</title>
<path fill="none" stroke="#000000" d="M620.5604,-622.5723C602.1073,-630.1473 583.2285,-641.6621 572.2549,-658.9332 489.02,-789.9343 613.3589,-3337.7295 508.2549,-3451.9332 467.2422,-3496.4967 397.713,-3501.2127 341.7391,-3495.9057"/>
<polygon fill="none" stroke="#000000" points="341.7708,-3492.3892 331.4552,-3494.8055 341.0261,-3499.3495 341.7708,-3492.3892"/>
</g>
<!-- \\Firesphere\\SolrSearch\\Services\\SolrCoreService -->
<g id="node44" class="node">
<title>\\Firesphere\\SolrSearch\\Services\\SolrCoreService</title>
<polygon fill="none" stroke="#000000" points="731.7549,-572.9332 613.7549,-572.9332 613.7549,-536.9332 731.7549,-536.9332 731.7549,-572.9332"/>
<text text-anchor="middle" x="672.7549" y="-552.1332" font-family="Courier,monospace" font-size="11.00" fill="#000000">SolrCoreService</text>
</g>
<!-- \\Firesphere\\SolrSearch\\Stores\\FileConfigStore -->
<g id="node45" class="node">
<title>\\Firesphere\\SolrSearch\\Stores\\FileConfigStore</title>
<polygon fill="none" stroke="#000000" points="731.7549,-412.9332 613.7549,-412.9332 613.7549,-376.9332 731.7549,-376.9332 731.7549,-412.9332"/>
<text text-anchor="middle" x="672.7549" y="-392.1332" font-family="Courier,monospace" font-size="11.00" fill="#000000">FileConfigStore</text>
</g>
<!-- \\Firesphere\\SolrSearch\\Stores\\FileConfigStore&#45;&gt;\\Firesphere\\SolrSearch\\Interfaces\\ConfigStore -->
<g id="edge20" class="edge">
<title>\\Firesphere\\SolrSearch\\Stores\\FileConfigStore&#45;&gt;\\Firesphere\\SolrSearch\\Interfaces\\ConfigStore</title>
<path fill="none" stroke="#000000" stroke-dasharray="1,5" d="M613.6637,-387.3108C532.8854,-376.891 389.0185,-358.3332 309.9722,-348.1368"/>
<polygon fill="none" stroke="#000000" points="310.0944,-344.6236 299.7287,-346.8154 309.1988,-351.5661 310.0944,-344.6236"/>
</g>
<!-- \\Firesphere\\SolrSearch\\Stores\\PostConfigStore -->
<g id="node46" class="node">
<title>\\Firesphere\\SolrSearch\\Stores\\PostConfigStore</title>
<polygon fill="none" stroke="#000000" points="731.7549,-358.9332 613.7549,-358.9332 613.7549,-322.9332 731.7549,-322.9332 731.7549,-358.9332"/>
<text text-anchor="middle" x="672.7549" y="-338.1332" font-family="Courier,monospace" font-size="11.00" fill="#000000">PostConfigStore</text>
</g>
<!-- \\Firesphere\\SolrSearch\\Stores\\PostConfigStore&#45;&gt;\\Firesphere\\SolrSearch\\Interfaces\\ConfigStore -->
<g id="edge21" class="edge">
<title>\\Firesphere\\SolrSearch\\Stores\\PostConfigStore&#45;&gt;\\Firesphere\\SolrSearch\\Interfaces\\ConfigStore</title>
<path fill="none" stroke="#000000" stroke-dasharray="1,5" d="M613.6637,-340.9332C532.8854,-340.9332 389.0185,-340.9332 309.9722,-340.9332"/>
<polygon fill="none" stroke="#000000" points="309.7288,-337.4333 299.7287,-340.9332 309.7287,-344.4333 309.7288,-337.4333"/>
</g>
<!-- \\Firesphere\\SolrSearch\\Admins\\SearchAdmin -->
<g id="node47" class="node">
<title>\\Firesphere\\SolrSearch\\Admins\\SearchAdmin</title>
<polygon fill="none" stroke="#000000" points="718.2549,-492.9332 627.2549,-492.9332 627.2549,-456.9332 718.2549,-456.9332 718.2549,-492.9332"/>
<text text-anchor="middle" x="672.7549" y="-472.1332" font-family="Courier,monospace" font-size="11.00" fill="#000000">SearchAdmin</text>
</g>
<!-- \\SilverStripe\\Admin\\ModelAdmin -->
<g id="node71" class="node">
<title>\\SilverStripe\\Admin\\ModelAdmin</title>
<ellipse fill="none" stroke="#000000" cx="254.1275" cy="-3424.9332" rx="165.1707" ry="18"/>
<text text-anchor="middle" x="254.1275" y="-3421.2332" font-family="Times,serif" font-size="14.00" fill="#c0c0c0">\SilverStripe\Admin\ModelAdmin</text>
</g>
<!-- \\Firesphere\\SolrSearch\\Admins\\SearchAdmin&#45;&gt;\\SilverStripe\\Admin\\ModelAdmin -->
<g id="edge22" class="edge">
<title>\\Firesphere\\SolrSearch\\Admins\\SearchAdmin&#45;&gt;\\SilverStripe\\Admin\\ModelAdmin</title>
<path fill="none" stroke="#000000" d="M627.0651,-486.8047C607.038,-494.3896 585.1904,-506.3938 572.2549,-524.9332 398.152,-774.4604 270.6064,-3110.5463 255.6076,-3396.3284"/>
<polygon fill="none" stroke="#000000" points="252.0937,-3396.5055 255.0669,-3406.6746 259.0841,-3396.8709 252.0937,-3396.5055"/>
</g>
<!-- \\Firesphere\\SolrSearch\\Factories\\QueryComponentFactory -->
<g id="node48" class="node">
<title>\\Firesphere\\SolrSearch\\Factories\\QueryComponentFactory</title>
<polygon fill="none" stroke="#000000" points="751.7549,-278.9332 593.7549,-278.9332 593.7549,-242.9332 751.7549,-242.9332 751.7549,-278.9332"/>
<text text-anchor="middle" x="672.7549" y="-258.1332" font-family="Courier,monospace" font-size="11.00" fill="#000000">QueryComponentFactory</text>
</g>
<!-- \\Firesphere\\SolrSearch\\Factories\\DocumentFactory -->
<g id="node49" class="node">
<title>\\Firesphere\\SolrSearch\\Factories\\DocumentFactory</title>
<polygon fill="none" stroke="#000000" points="731.7549,-224.9332 613.7549,-224.9332 613.7549,-188.9332 731.7549,-188.9332 731.7549,-224.9332"/>
<text text-anchor="middle" x="672.7549" y="-204.1332" font-family="Courier,monospace" font-size="11.00" fill="#000000">DocumentFactory</text>
</g>
<!-- \\Firesphere\\SolrFluent\\Extensions\\FluentSchemaExtension -->
<g id="node50" class="node">
<title>\\Firesphere\\SolrFluent\\Extensions\\FluentSchemaExtension</title>
<polygon fill="none" stroke="#000000" points="1005.7549,-668.9332 847.7549,-668.9332 847.7549,-632.9332 1005.7549,-632.9332 1005.7549,-668.9332"/>
<text text-anchor="middle" x="926.7549" y="-648.1332" font-family="Courier,monospace" font-size="11.00" fill="#000000">FluentSchemaExtension</text>
</g>
<!-- \\Firesphere\\SolrFluent\\Extensions\\FluentSchemaExtension&#45;&gt;\\SilverStripe\\Core\\Extension -->
<g id="edge23" class="edge">
<title>\\Firesphere\\SolrFluent\\Extensions\\FluentSchemaExtension&#45;&gt;\\SilverStripe\\Core\\Extension</title>
<path fill="none" stroke="#000000" d="M879.2438,-632.8461C857.9161,-622.206 834.5963,-606.5304 821.2549,-584.9332 771.9816,-505.1694 843.3593,-235.1697 781.2549,-164.9332 748.54,-127.9346 709.4057,-174.0373 672.7549,-140.9332"/>
<path fill="none" stroke="#000000" d="M672.7549,-140.9332C657.0915,-126.7855 528.3246,-52.4681 508.2549,-45.9332 475.4252,-35.2435 439.0725,-28.5578 404.3721,-24.4296"/>
<polygon fill="none" stroke="#000000" points="404.4777,-20.9196 394.1493,-23.2805 403.6957,-27.8757 404.4777,-20.9196"/>
</g>
<!-- \\Firesphere\\SolrFluent\\Extensions\\FluentIndexExtension -->
<g id="node51" class="node">
<title>\\Firesphere\\SolrFluent\\Extensions\\FluentIndexExtension</title>
<polygon fill="none" stroke="#000000" points="1002.7549,-776.9332 850.7549,-776.9332 850.7549,-740.9332 1002.7549,-740.9332 1002.7549,-776.9332"/>
<text text-anchor="middle" x="926.7549" y="-756.1332" font-family="Courier,monospace" font-size="11.00" fill="#000000">FluentIndexExtension</text>
</g>
<!-- \\Firesphere\\SolrFluent\\Extensions\\FluentIndexExtension&#45;&gt;\\SilverStripe\\Core\\Extension -->
<g id="edge24" class="edge">
<title>\\Firesphere\\SolrFluent\\Extensions\\FluentIndexExtension&#45;&gt;\\SilverStripe\\Core\\Extension</title>
<path fill="none" stroke="#000000" d="M850.5548,-751.7297C839.313,-747.4578 828.9462,-741.1514 821.2549,-731.9332 740.3328,-634.9454 863.7592,-260.5786 781.2549,-164.9332 748.9961,-127.5362 709.4057,-174.0373 672.7549,-140.9332"/>
</g>
<!-- \\Firesphere\\SolrFluent\\Extensions\\FluentDocumentExtension -->
<g id="node52" class="node">
<title>\\Firesphere\\SolrFluent\\Extensions\\FluentDocumentExtension</title>
<polygon fill="none" stroke="#000000" points="1012.7549,-722.9332 840.7549,-722.9332 840.7549,-686.9332 1012.7549,-686.9332 1012.7549,-722.9332"/>
<text text-anchor="middle" x="926.7549" y="-702.1332" font-family="Courier,monospace" font-size="11.00" fill="#000000">FluentDocumentExtension</text>
</g>
<!-- \\Firesphere\\SolrFluent\\Extensions\\FluentDocumentExtension&#45;&gt;\\SilverStripe\\Core\\Extension -->
<g id="edge25" class="edge">
<title>\\Firesphere\\SolrFluent\\Extensions\\FluentDocumentExtension&#45;&gt;\\SilverStripe\\Core\\Extension</title>
<path fill="none" stroke="#000000" d="M840.5463,-693.1526C833.2373,-689.2773 826.6078,-684.3009 821.2549,-677.9332 747.6758,-590.4053 856.2618,-251.2406 781.2549,-164.9332 748.8582,-127.6556 709.4057,-174.0373 672.7549,-140.9332"/>
</g>
<!-- \\Firesphere\\SolrFluent\\States\\FluentSiteState -->
<g id="node53" class="node">
<title>\\Firesphere\\SolrFluent\\States\\FluentSiteState</title>
<polygon fill="none" stroke="#000000" points="985.7549,-856.9332 867.7549,-856.9332 867.7549,-820.9332 985.7549,-820.9332 985.7549,-856.9332"/>
<text text-anchor="middle" x="926.7549" y="-836.1332" font-family="Courier,monospace" font-size="11.00" fill="#000000">FluentSiteState</text>
</g>
<!-- \\Firesphere\\SolrFluent\\States\\FluentSiteState&#45;&gt;\\Firesphere\\SolrSearch\\Interfaces\\SiteStateInterface -->
<g id="edge27" class="edge">
<title>\\Firesphere\\SolrFluent\\States\\FluentSiteState&#45;&gt;\\Firesphere\\SolrSearch\\Interfaces\\SiteStateInterface</title>
<path fill="none" stroke="#000000" stroke-dasharray="1,5" d="M867.5291,-834.9721C850.0639,-830.779 832.6083,-823.0168 821.2549,-808.9332 732.9344,-699.3743 880.7021,-276.5018 781.2549,-176.9332 747.1066,-142.7432 715.4088,-192.6424 672.7549,-169.9332"/>
<path fill="none" stroke="#000000" stroke-dasharray="1,5" d="M672.7549,-169.9332C607.5653,-135.2258 397.3393,-221.9874 301.969,-264.7621"/>
<polygon fill="none" stroke="#000000" points="300.5098,-261.5806 292.8333,-268.8828 303.388,-267.9615 300.5098,-261.5806"/>
</g>
<!-- \\Firesphere\\SolrFluent\\States\\FluentSiteState&#45;&gt;\\Firesphere\\SolrSearch\\States\\SiteState -->
<g id="edge26" class="edge">
<title>\\Firesphere\\SolrFluent\\States\\FluentSiteState&#45;&gt;\\Firesphere\\SolrSearch\\States\\SiteState</title>
<path fill="none" stroke="#000000" d="M891.383,-856.9683C866.8269,-871.6178 835.977,-894.7801 821.2549,-924.9332 775.9563,-1017.7114 844.6613,-2701.4507 781.2549,-2782.9332 767.9492,-2800.032 745.8207,-2807.9476 725.0059,-2811.4269"/>
<polygon fill="none" stroke="#000000" points="724.3733,-2807.9807 714.9377,-2812.7993 725.3188,-2814.9165 724.3733,-2807.9807"/>
</g>
<!-- \\Firesphere\\SolrSubsites\\Extensions\\SubsitesExtension -->
<g id="node54" class="node">
<title>\\Firesphere\\SolrSubsites\\Extensions\\SubsitesExtension</title>
<polygon fill="none" stroke="#000000" points="992.2549,-972.9332 861.2549,-972.9332 861.2549,-936.9332 992.2549,-936.9332 992.2549,-972.9332"/>
<text text-anchor="middle" x="926.7549" y="-952.1332" font-family="Courier,monospace" font-size="11.00" fill="#000000">SubsitesExtension</text>
</g>
<!-- \\Firesphere\\SolrSubsites\\Extensions\\SubsitesExtension&#45;&gt;\\SilverStripe\\Core\\Extension -->
<g id="edge28" class="edge">
<title>\\Firesphere\\SolrSubsites\\Extensions\\SubsitesExtension&#45;&gt;\\SilverStripe\\Core\\Extension</title>
<path fill="none" stroke="#000000" d="M878.3173,-936.8038C857.0531,-926.2207 834.0545,-910.6053 821.2549,-888.9332 739.3126,-750.1899 885.5707,-287.7438 781.2549,-164.9332 749.282,-127.2916 709.4057,-174.0373 672.7549,-140.9332"/>
</g>
<!-- \\Firesphere\\SolrSubsites\\States\\SubsiteState -->
<g id="node55" class="node">
<title>\\Firesphere\\SolrSubsites\\States\\SubsiteState</title>
<polygon fill="none" stroke="#000000" points="975.7549,-1052.9332 877.7549,-1052.9332 877.7549,-1016.9332 975.7549,-1016.9332 975.7549,-1052.9332"/>
<text text-anchor="middle" x="926.7549" y="-1032.1332" font-family="Courier,monospace" font-size="11.00" fill="#000000">SubsiteState</text>
</g>
<!-- \\Firesphere\\SolrSubsites\\States\\SubsiteState&#45;&gt;\\Firesphere\\SolrSearch\\Interfaces\\SiteStateInterface -->
<g id="edge30" class="edge">
<title>\\Firesphere\\SolrSubsites\\States\\SubsiteState&#45;&gt;\\Firesphere\\SolrSearch\\Interfaces\\SiteStateInterface</title>
<path fill="none" stroke="#000000" stroke-dasharray="1,5" d="M877.5714,-1033.1297C856.9534,-1029.6747 834.6932,-1021.8602 821.2549,-1004.9332 763.9847,-932.7953 845.8564,-242.5868 781.2549,-176.9332 747.3629,-142.4891 715.4088,-192.6424 672.7549,-169.9332"/>
</g>
<!-- \\Firesphere\\SolrSubsites\\States\\SubsiteState&#45;&gt;\\Firesphere\\SolrSearch\\States\\SiteState -->
<g id="edge29" class="edge">
<title>\\Firesphere\\SolrSubsites\\States\\SubsiteState&#45;&gt;\\Firesphere\\SolrSearch\\States\\SiteState</title>
<path fill="none" stroke="#000000" d="M926.4828,-1053.1916C923.6827,-1230.492 897.7854,-2642.3276 781.2549,-2782.9332 767.4832,-2799.5501 745.4035,-2807.4133 724.7459,-2810.983"/>
<polygon fill="none" stroke="#000000" points="724.166,-2807.5302 714.7618,-2812.41 725.1565,-2814.4598 724.166,-2807.5302"/>
</g>
<!-- \\Firesphere\\SolrPermissions\\Extensions\\SchemaServiceExtension -->
<g id="node56" class="node">
<title>\\Firesphere\\SolrPermissions\\Extensions\\SchemaServiceExtension</title>
<polygon fill="none" stroke="#000000" points="1009.2549,-390.9332 844.2549,-390.9332 844.2549,-354.9332 1009.2549,-354.9332 1009.2549,-390.9332"/>
<text text-anchor="middle" x="926.7549" y="-370.1332" font-family="Courier,monospace" font-size="11.00" fill="#000000">SchemaServiceExtension</text>
</g>
<!-- \\Firesphere\\SolrPermissions\\Extensions\\SchemaServiceExtension&#45;&gt;\\SilverStripe\\Core\\Extension -->
<g id="edge31" class="edge">
<title>\\Firesphere\\SolrPermissions\\Extensions\\SchemaServiceExtension&#45;&gt;\\SilverStripe\\Core\\Extension</title>
<path fill="none" stroke="#000000" d="M881.1304,-354.8671C859.7122,-344.0903 835.7606,-328.2907 821.2549,-306.9332 765.9092,-225.4448 849.6364,-159.8378 781.2549,-88.9332 746.9706,-53.3839 716.6848,-87.5014 672.7549,-64.9332"/>
</g>
<!-- \\Firesphere\\SolrPermissions\\Extensions\\BaseIndexExtension -->
<g id="node57" class="node">
<title>\\Firesphere\\SolrPermissions\\Extensions\\BaseIndexExtension</title>
<polygon fill="none" stroke="#000000" points="995.7549,-498.9332 857.7549,-498.9332 857.7549,-462.9332 995.7549,-462.9332 995.7549,-498.9332"/>
<text text-anchor="middle" x="926.7549" y="-478.1332" font-family="Courier,monospace" font-size="11.00" fill="#000000">BaseIndexExtension</text>
</g>
<!-- \\Firesphere\\SolrPermissions\\Extensions\\BaseIndexExtension&#45;&gt;\\SilverStripe\\Core\\Extension -->
<g id="edge32" class="edge">
<title>\\Firesphere\\SolrPermissions\\Extensions\\BaseIndexExtension&#45;&gt;\\SilverStripe\\Core\\Extension</title>
<path fill="none" stroke="#000000" d="M857.5959,-475.7552C843.796,-471.5743 830.6721,-464.7858 821.2549,-453.9332 714.2992,-330.675 890.2208,-210.4179 781.2549,-88.9332 748.2781,-52.1678 716.6848,-87.5014 672.7549,-64.9332"/>
</g>
<!-- \\Firesphere\\SolrPermissions\\Extensions\\DataObjectExtension -->
<g id="node58" class="node">
<title>\\Firesphere\\SolrPermissions\\Extensions\\DataObjectExtension</title>
<polygon fill="none" stroke="#000000" points="999.2549,-552.9332 854.2549,-552.9332 854.2549,-516.9332 999.2549,-516.9332 999.2549,-552.9332"/>
<text text-anchor="middle" x="926.7549" y="-532.1332" font-family="Courier,monospace" font-size="11.00" fill="#000000">DataObjectExtension</text>
</g>
<!-- \\Firesphere\\SolrPermissions\\Extensions\\DataObjectExtension&#45;&gt;\\SilverStripe\\ORM\\DataExtension -->
<g id="edge33" class="edge">
<title>\\Firesphere\\SolrPermissions\\Extensions\\DataObjectExtension&#45;&gt;\\SilverStripe\\ORM\\DataExtension</title>
<path fill="none" stroke="#000000" d="M854.1266,-528.5767C841.6284,-524.3397 829.9011,-517.8276 821.2549,-507.9332 720.2653,-392.3631 883.2119,-279.6508 781.2549,-164.9332 734.3687,-112.1789 557.436,-89.6375 421.3514,-80.0287"/>
<polygon fill="none" stroke="#000000" points="421.4309,-76.526 411.2143,-79.3313 420.9505,-83.5095 421.4309,-76.526"/>
</g>
<!-- \\Firesphere\\SolrPermissions\\Extensions\\DocumentFactoryExtension -->
<g id="node59" class="node">
<title>\\Firesphere\\SolrPermissions\\Extensions\\DocumentFactoryExtension</title>
<polygon fill="none" stroke="#000000" points="1016.2549,-444.9332 837.2549,-444.9332 837.2549,-408.9332 1016.2549,-408.9332 1016.2549,-444.9332"/>
<text text-anchor="middle" x="926.7549" y="-424.1332" font-family="Courier,monospace" font-size="11.00" fill="#000000">DocumentFactoryExtension</text>
</g>
<!-- \\Firesphere\\SolrPermissions\\Extensions\\DocumentFactoryExtension&#45;&gt;\\SilverStripe\\Core\\Extension -->
<g id="edge34" class="edge">
<title>\\Firesphere\\SolrPermissions\\Extensions\\DocumentFactoryExtension&#45;&gt;\\SilverStripe\\Core\\Extension</title>
<path fill="none" stroke="#000000" d="M836.9166,-412.6812C831.0907,-409.2304 825.7637,-405.0318 821.2549,-399.9332 728.9356,-295.537 875.2766,-191.7989 781.2549,-88.9332 747.9347,-52.4788 716.6848,-87.5014 672.7549,-64.9332"/>
</g>
<!-- \\SilverStripe\\FullTextSearch\\Solr\\SolrIndex -->
<g id="node60" class="node">
<title>\\SilverStripe\\FullTextSearch\\Solr\\SolrIndex</title>
<polygon fill="none" stroke="#000000" points="968.7549,-3286.9332 884.7549,-3286.9332 884.7549,-3250.9332 968.7549,-3250.9332 968.7549,-3286.9332"/>
<text text-anchor="start" x="892.7549" y="-3272.1332" font-family="Courier,monospace" font-size="11.00" fill="#000000">«abstract»</text>
<text text-anchor="start" x="896.2549" y="-3260.1332" font-family="Courier,monospace" font-size="11.00" fill="#000000">SolrIndex</text>
</g>
<!-- \\SilverStripe\\FullTextSearch\\Solr\\SolrIndex&#45;&gt;\\Firesphere\\SolrSearch\\Indexes\\BaseIndex -->
<g id="edge3" class="edge">
<title>\\SilverStripe\\FullTextSearch\\Solr\\SolrIndex&#45;&gt;\\Firesphere\\SolrSearch\\Indexes\\BaseIndex</title>
<path fill="none" stroke="#000000" d="M884.591,-3269.4976C862.1887,-3267.374 836.2525,-3260.563 821.2549,-3241.9332 742.4024,-3143.9835 850.9179,-2215.6181 781.2549,-2110.9332 768.3013,-2091.4674 745.7156,-2079.4496 724.4932,-2072.095"/>
<polygon fill="none" stroke="#000000" points="725.4683,-2068.7324 714.8778,-2069.034 723.3449,-2075.4026 725.4683,-2068.7324"/>
</g>
<!-- \\SilverStripe\\FullTextSearch\\Solr\\Solr -->
<g id="node61" class="node">
<title>\\SilverStripe\\FullTextSearch\\Solr\\Solr</title>
<polygon fill="none" stroke="#000000" points="953.7549,-3232.9332 899.7549,-3232.9332 899.7549,-3196.9332 953.7549,-3196.9332 953.7549,-3232.9332"/>
<text text-anchor="middle" x="926.7549" y="-3212.1332" font-family="Courier,monospace" font-size="11.00" fill="#000000">Solr</text>
</g>
<!-- \\SilverStripe\\FullTextSearch\\Search\\Queries\\SearchQuery -->
<g id="node62" class="node">
<title>\\SilverStripe\\FullTextSearch\\Search\\Queries\\SearchQuery</title>
<polygon fill="none" stroke="#000000" points="972.2549,-3124.9332 881.2549,-3124.9332 881.2549,-3088.9332 972.2549,-3088.9332 972.2549,-3124.9332"/>
<text text-anchor="middle" x="926.7549" y="-3104.1332" font-family="Courier,monospace" font-size="11.00" fill="#000000">SearchQuery</text>
</g>
<!-- \\SilverStripe\\FullTextSearch\\Search\\Queries\\SearchQuery&#45;&gt;\\Firesphere\\SolrSearch\\Queries\\BaseQuery -->
<g id="edge4" class="edge">
<title>\\SilverStripe\\FullTextSearch\\Search\\Queries\\SearchQuery&#45;&gt;\\Firesphere\\SolrSearch\\Queries\\BaseQuery</title>
<path fill="none" stroke="#000000" d="M926.5213,-3088.9295C923.9499,-2901.4965 898.7182,-1310.2842 781.2549,-1140.9332 767.2509,-1120.7432 742.9724,-1108.532 720.9278,-1101.2388"/>
<polygon fill="none" stroke="#000000" points="721.9144,-1097.8806 711.3284,-1098.3142 719.8742,-1104.5767 721.9144,-1097.8806"/>
</g>
</g>
</svg>
