<?xml version="1.0" encoding="UTF-8" standalone="no"?>
<!DOCTYPE svg PUBLIC "-//W3C//DTD SVG 1.1//EN"
 "http://www.w3.org/Graphics/SVG/1.1/DTD/svg11.dtd">
<!-- Generated by graphviz version 2.40.1 (20161225.0304)
 -->
<!-- Title: G Pages: 1 -->
<svg width="984pt" height="3653pt"
 viewBox="0.00 0.00 984.25 3652.71" xmlns="http://www.w3.org/2000/svg" xmlns:xlink="http://www.w3.org/1999/xlink">
<g id="graph0" class="graph" transform="scale(1 1) rotate(0) translate(4 3648.7125)">
<title>G</title>
<polygon fill="#ffffff" stroke="transparent" points="-4,4 -4,-3648.7125 980.2549,-3648.7125 980.2549,4 -4,4"/>
<g id="clust1" class="cluster">
<title>cluster_Global</title>
<path fill="none" stroke="#c0c0c0" d="M165.1275,-476.7125C165.1275,-476.7125 956.2549,-476.7125 956.2549,-476.7125 962.2549,-476.7125 968.2549,-482.7125 968.2549,-488.7125 968.2549,-488.7125 968.2549,-3624.7125 968.2549,-3624.7125 968.2549,-3630.7125 962.2549,-3636.7125 956.2549,-3636.7125 956.2549,-3636.7125 165.1275,-3636.7125 165.1275,-3636.7125 159.1275,-3636.7125 153.1275,-3630.7125 153.1275,-3624.7125 153.1275,-3624.7125 153.1275,-488.7125 153.1275,-488.7125 153.1275,-482.7125 159.1275,-476.7125 165.1275,-476.7125"/>
<text text-anchor="middle" x="560.6912" y="-3623.9125" font-family="Times,serif" font-size="11.00" fill="#c0c0c0">Global</text>
</g>
<g id="clust2" class="cluster">
<title>cluster_\SilverStripe</title>
<path fill="none" stroke="#c0c0c0" d="M817.2549,-2665.7125C817.2549,-2665.7125 948.2549,-2665.7125 948.2549,-2665.7125 954.2549,-2665.7125 960.2549,-2671.7125 960.2549,-2677.7125 960.2549,-2677.7125 960.2549,-2967.7125 960.2549,-2967.7125 960.2549,-2973.7125 954.2549,-2979.7125 948.2549,-2979.7125 948.2549,-2979.7125 817.2549,-2979.7125 817.2549,-2979.7125 811.2549,-2979.7125 805.2549,-2973.7125 805.2549,-2967.7125 805.2549,-2967.7125 805.2549,-2677.7125 805.2549,-2677.7125 805.2549,-2671.7125 811.2549,-2665.7125 817.2549,-2665.7125"/>
<text text-anchor="middle" x="882.7549" y="-2966.9125" font-family="Times,serif" font-size="11.00" fill="#c0c0c0">SilverStripe</text>
</g>
<g id="clust3" class="cluster">
<title>cluster_\SilverStripe\FullTextSearch</title>
<path fill="none" stroke="#c0c0c0" d="M825.2549,-2673.7125C825.2549,-2673.7125 940.2549,-2673.7125 940.2549,-2673.7125 946.2549,-2673.7125 952.2549,-2679.7125 952.2549,-2685.7125 952.2549,-2685.7125 952.2549,-2939.7125 952.2549,-2939.7125 952.2549,-2945.7125 946.2549,-2951.7125 940.2549,-2951.7125 940.2549,-2951.7125 825.2549,-2951.7125 825.2549,-2951.7125 819.2549,-2951.7125 813.2549,-2945.7125 813.2549,-2939.7125 813.2549,-2939.7125 813.2549,-2685.7125 813.2549,-2685.7125 813.2549,-2679.7125 819.2549,-2673.7125 825.2549,-2673.7125"/>
<text text-anchor="middle" x="882.7549" y="-2938.9125" font-family="Times,serif" font-size="11.00" fill="#c0c0c0">FullTextSearch</text>
</g>
<g id="clust4" class="cluster">
<title>cluster_\SilverStripe\FullTextSearch\Solr</title>
<path fill="none" stroke="#c0c0c0" d="M844.7549,-2797.7125C844.7549,-2797.7125 920.7549,-2797.7125 920.7549,-2797.7125 926.7549,-2797.7125 932.7549,-2803.7125 932.7549,-2809.7125 932.7549,-2809.7125 932.7549,-2911.7125 932.7549,-2911.7125 932.7549,-2917.7125 926.7549,-2923.7125 920.7549,-2923.7125 920.7549,-2923.7125 844.7549,-2923.7125 844.7549,-2923.7125 838.7549,-2923.7125 832.7549,-2917.7125 832.7549,-2911.7125 832.7549,-2911.7125 832.7549,-2809.7125 832.7549,-2809.7125 832.7549,-2803.7125 838.7549,-2797.7125 844.7549,-2797.7125"/>
<text text-anchor="middle" x="882.7549" y="-2910.9125" font-family="Times,serif" font-size="11.00" fill="#c0c0c0">Solr</text>
</g>
<g id="clust5" class="cluster">
<title>cluster_\SilverStripe\FullTextSearch\Search</title>
<path fill="none" stroke="#c0c0c0" d="M833.2549,-2681.7125C833.2549,-2681.7125 932.2549,-2681.7125 932.2549,-2681.7125 938.2549,-2681.7125 944.2549,-2687.7125 944.2549,-2693.7125 944.2549,-2693.7125 944.2549,-2777.7125 944.2549,-2777.7125 944.2549,-2783.7125 938.2549,-2789.7125 932.2549,-2789.7125 932.2549,-2789.7125 833.2549,-2789.7125 833.2549,-2789.7125 827.2549,-2789.7125 821.2549,-2783.7125 821.2549,-2777.7125 821.2549,-2777.7125 821.2549,-2693.7125 821.2549,-2693.7125 821.2549,-2687.7125 827.2549,-2681.7125 833.2549,-2681.7125"/>
<text text-anchor="middle" x="882.7549" y="-2776.9125" font-family="Times,serif" font-size="11.00" fill="#c0c0c0">Search</text>
</g>
<g id="clust6" class="cluster">
<title>cluster_\SilverStripe\FullTextSearch\Search\Queries</title>
<path fill="none" stroke="#c0c0c0" d="M841.2549,-2689.7125C841.2549,-2689.7125 924.2549,-2689.7125 924.2549,-2689.7125 930.2549,-2689.7125 936.2549,-2695.7125 936.2549,-2701.7125 936.2549,-2701.7125 936.2549,-2749.7125 936.2549,-2749.7125 936.2549,-2755.7125 930.2549,-2761.7125 924.2549,-2761.7125 924.2549,-2761.7125 841.2549,-2761.7125 841.2549,-2761.7125 835.2549,-2761.7125 829.2549,-2755.7125 829.2549,-2749.7125 829.2549,-2749.7125 829.2549,-2701.7125 829.2549,-2701.7125 829.2549,-2695.7125 835.2549,-2689.7125 841.2549,-2689.7125"/>
<text text-anchor="middle" x="882.7549" y="-2748.9125" font-family="Times,serif" font-size="11.00" fill="#c0c0c0">Queries</text>
</g>
<g id="clust7" class="cluster">
<title>cluster_\Firesphere</title>
<path fill="none" stroke="#c0c0c0" d="M173.1275,-484.7125C173.1275,-484.7125 777.2549,-484.7125 777.2549,-484.7125 783.2549,-484.7125 789.2549,-490.7125 789.2549,-496.7125 789.2549,-496.7125 789.2549,-3596.7125 789.2549,-3596.7125 789.2549,-3602.7125 783.2549,-3608.7125 777.2549,-3608.7125 777.2549,-3608.7125 173.1275,-3608.7125 173.1275,-3608.7125 167.1275,-3608.7125 161.1275,-3602.7125 161.1275,-3596.7125 161.1275,-3596.7125 161.1275,-496.7125 161.1275,-496.7125 161.1275,-490.7125 167.1275,-484.7125 173.1275,-484.7125"/>
<text text-anchor="middle" x="475.1912" y="-3595.9125" font-family="Times,serif" font-size="11.00" fill="#c0c0c0">Firesphere</text>
</g>
<g id="clust8" class="cluster">
<title>cluster_\Firesphere\SolrSearch</title>
<path fill="none" stroke="#c0c0c0" d="M181.1275,-492.7125C181.1275,-492.7125 769.2549,-492.7125 769.2549,-492.7125 775.2549,-492.7125 781.2549,-498.7125 781.2549,-504.7125 781.2549,-504.7125 781.2549,-3568.7125 781.2549,-3568.7125 781.2549,-3574.7125 775.2549,-3580.7125 769.2549,-3580.7125 769.2549,-3580.7125 181.1275,-3580.7125 181.1275,-3580.7125 175.1275,-3580.7125 169.1275,-3574.7125 169.1275,-3568.7125 169.1275,-3568.7125 169.1275,-504.7125 169.1275,-504.7125 169.1275,-498.7125 175.1275,-492.7125 181.1275,-492.7125"/>
<text text-anchor="middle" x="475.1912" y="-3567.9125" font-family="Times,serif" font-size="11.00" fill="#c0c0c0">SolrSearch</text>
</g>
<g id="clust9" class="cluster">
<title>cluster_\Firesphere\SolrSearch\Compat</title>
<path fill="none" stroke="#c0c0c0" d="M590.7549,-3480.7125C590.7549,-3480.7125 754.7549,-3480.7125 754.7549,-3480.7125 760.7549,-3480.7125 766.7549,-3486.7125 766.7549,-3492.7125 766.7549,-3492.7125 766.7549,-3540.7125 766.7549,-3540.7125 766.7549,-3546.7125 760.7549,-3552.7125 754.7549,-3552.7125 754.7549,-3552.7125 590.7549,-3552.7125 590.7549,-3552.7125 584.7549,-3552.7125 578.7549,-3546.7125 578.7549,-3540.7125 578.7549,-3540.7125 578.7549,-3492.7125 578.7549,-3492.7125 578.7549,-3486.7125 584.7549,-3480.7125 590.7549,-3480.7125"/>
<text text-anchor="middle" x="672.7549" y="-3539.9125" font-family="Times,serif" font-size="11.00" fill="#c0c0c0">Compat</text>
</g>
<g id="clust10" class="cluster">
<title>cluster_\Firesphere\SolrSearch\Indexes</title>
<path fill="none" stroke="#c0c0c0" d="M634.7549,-3400.7125C634.7549,-3400.7125 710.7549,-3400.7125 710.7549,-3400.7125 716.7549,-3400.7125 722.7549,-3406.7125 722.7549,-3412.7125 722.7549,-3412.7125 722.7549,-3460.7125 722.7549,-3460.7125 722.7549,-3466.7125 716.7549,-3472.7125 710.7549,-3472.7125 710.7549,-3472.7125 634.7549,-3472.7125 634.7549,-3472.7125 628.7549,-3472.7125 622.7549,-3466.7125 622.7549,-3460.7125 622.7549,-3460.7125 622.7549,-3412.7125 622.7549,-3412.7125 622.7549,-3406.7125 628.7549,-3400.7125 634.7549,-3400.7125"/>
<text text-anchor="middle" x="672.7549" y="-3459.9125" font-family="Times,serif" font-size="11.00" fill="#c0c0c0">Indexes</text>
</g>
<g id="clust11" class="cluster">
<title>cluster_\Firesphere\SolrSearch\Helpers</title>
<path fill="none" stroke="#c0c0c0" d="M624.7549,-3104.7125C624.7549,-3104.7125 720.7549,-3104.7125 720.7549,-3104.7125 726.7549,-3104.7125 732.7549,-3110.7125 732.7549,-3116.7125 732.7549,-3116.7125 732.7549,-3380.7125 732.7549,-3380.7125 732.7549,-3386.7125 726.7549,-3392.7125 720.7549,-3392.7125 720.7549,-3392.7125 624.7549,-3392.7125 624.7549,-3392.7125 618.7549,-3392.7125 612.7549,-3386.7125 612.7549,-3380.7125 612.7549,-3380.7125 612.7549,-3116.7125 612.7549,-3116.7125 612.7549,-3110.7125 618.7549,-3104.7125 624.7549,-3104.7125"/>
<text text-anchor="middle" x="672.7549" y="-3379.9125" font-family="Times,serif" font-size="11.00" fill="#c0c0c0">Helpers</text>
</g>
<g id="clust12" class="cluster">
<title>cluster_\Firesphere\SolrSearch\Results</title>
<path fill="none" stroke="#c0c0c0" d="M627.7549,-3024.7125C627.7549,-3024.7125 717.7549,-3024.7125 717.7549,-3024.7125 723.7549,-3024.7125 729.7549,-3030.7125 729.7549,-3036.7125 729.7549,-3036.7125 729.7549,-3084.7125 729.7549,-3084.7125 729.7549,-3090.7125 723.7549,-3096.7125 717.7549,-3096.7125 717.7549,-3096.7125 627.7549,-3096.7125 627.7549,-3096.7125 621.7549,-3096.7125 615.7549,-3090.7125 615.7549,-3084.7125 615.7549,-3084.7125 615.7549,-3036.7125 615.7549,-3036.7125 615.7549,-3030.7125 621.7549,-3024.7125 627.7549,-3024.7125"/>
<text text-anchor="middle" x="672.7549" y="-3083.9125" font-family="Times,serif" font-size="11.00" fill="#c0c0c0">Results</text>
</g>
<g id="clust13" class="cluster">
<title>cluster_\Firesphere\SolrSearch\Extensions</title>
<path fill="none" stroke="#c0c0c0" d="M604.2549,-2890.7125C604.2549,-2890.7125 741.2549,-2890.7125 741.2549,-2890.7125 747.2549,-2890.7125 753.2549,-2896.7125 753.2549,-2902.7125 753.2549,-2902.7125 753.2549,-3004.7125 753.2549,-3004.7125 753.2549,-3010.7125 747.2549,-3016.7125 741.2549,-3016.7125 741.2549,-3016.7125 604.2549,-3016.7125 604.2549,-3016.7125 598.2549,-3016.7125 592.2549,-3010.7125 592.2549,-3004.7125 592.2549,-3004.7125 592.2549,-2902.7125 592.2549,-2902.7125 592.2549,-2896.7125 598.2549,-2890.7125 604.2549,-2890.7125"/>
<text text-anchor="middle" x="672.7549" y="-3003.9125" font-family="Times,serif" font-size="11.00" fill="#c0c0c0">Extensions</text>
</g>
<g id="clust14" class="cluster">
<title>cluster_\Firesphere\SolrSearch\Factories</title>
<path fill="none" stroke="#c0c0c0" d="M597.7549,-2756.7125C597.7549,-2756.7125 747.7549,-2756.7125 747.7549,-2756.7125 753.7549,-2756.7125 759.7549,-2762.7125 759.7549,-2768.7125 759.7549,-2768.7125 759.7549,-2870.7125 759.7549,-2870.7125 759.7549,-2876.7125 753.7549,-2882.7125 747.7549,-2882.7125 747.7549,-2882.7125 597.7549,-2882.7125 597.7549,-2882.7125 591.7549,-2882.7125 585.7549,-2876.7125 585.7549,-2870.7125 585.7549,-2870.7125 585.7549,-2768.7125 585.7549,-2768.7125 585.7549,-2762.7125 591.7549,-2756.7125 597.7549,-2756.7125"/>
<text text-anchor="middle" x="672.7549" y="-2869.9125" font-family="Times,serif" font-size="11.00" fill="#c0c0c0">Factories</text>
</g>
<g id="clust15" class="cluster">
<title>cluster_\Firesphere\SolrSearch\Stores</title>
<path fill="none" stroke="#c0c0c0" d="M617.7549,-2622.7125C617.7549,-2622.7125 727.7549,-2622.7125 727.7549,-2622.7125 733.7549,-2622.7125 739.7549,-2628.7125 739.7549,-2634.7125 739.7549,-2634.7125 739.7549,-2736.7125 739.7549,-2736.7125 739.7549,-2742.7125 733.7549,-2748.7125 727.7549,-2748.7125 727.7549,-2748.7125 617.7549,-2748.7125 617.7549,-2748.7125 611.7549,-2748.7125 605.7549,-2742.7125 605.7549,-2736.7125 605.7549,-2736.7125 605.7549,-2634.7125 605.7549,-2634.7125 605.7549,-2628.7125 611.7549,-2622.7125 617.7549,-2622.7125"/>
<text text-anchor="middle" x="672.7549" y="-2735.9125" font-family="Times,serif" font-size="11.00" fill="#c0c0c0">Stores</text>
</g>
<g id="clust16" class="cluster">
<title>cluster_\Firesphere\SolrSearch\Jobs</title>
<path fill="none" stroke="#c0c0c0" d="M600.7549,-2434.7125C600.7549,-2434.7125 744.7549,-2434.7125 744.7549,-2434.7125 750.7549,-2434.7125 756.7549,-2440.7125 756.7549,-2446.7125 756.7549,-2446.7125 756.7549,-2602.7125 756.7549,-2602.7125 756.7549,-2608.7125 750.7549,-2614.7125 744.7549,-2614.7125 744.7549,-2614.7125 600.7549,-2614.7125 600.7549,-2614.7125 594.7549,-2614.7125 588.7549,-2608.7125 588.7549,-2602.7125 588.7549,-2602.7125 588.7549,-2446.7125 588.7549,-2446.7125 588.7549,-2440.7125 594.7549,-2434.7125 600.7549,-2434.7125"/>
<text text-anchor="middle" x="672.7549" y="-2601.9125" font-family="Times,serif" font-size="11.00" fill="#c0c0c0">Jobs</text>
</g>
<g id="clust17" class="cluster">
<title>cluster_\Firesphere\SolrSearch\Forms</title>
<path fill="none" stroke="#c0c0c0" d="M634.7549,-2354.7125C634.7549,-2354.7125 710.7549,-2354.7125 710.7549,-2354.7125 716.7549,-2354.7125 722.7549,-2360.7125 722.7549,-2366.7125 722.7549,-2366.7125 722.7549,-2414.7125 722.7549,-2414.7125 722.7549,-2420.7125 716.7549,-2426.7125 710.7549,-2426.7125 710.7549,-2426.7125 634.7549,-2426.7125 634.7549,-2426.7125 628.7549,-2426.7125 622.7549,-2420.7125 622.7549,-2414.7125 622.7549,-2414.7125 622.7549,-2366.7125 622.7549,-2366.7125 622.7549,-2360.7125 628.7549,-2354.7125 634.7549,-2354.7125"/>
<text text-anchor="middle" x="672.7549" y="-2413.9125" font-family="Times,serif" font-size="11.00" fill="#c0c0c0">Forms</text>
</g>
<g id="clust18" class="cluster">
<title>cluster_\Firesphere\SolrSearch\Interfaces</title>
<path fill="none" stroke="#c0c0c0" d="M189.1275,-2595.7125C189.1275,-2595.7125 319.1275,-2595.7125 319.1275,-2595.7125 325.1275,-2595.7125 331.1275,-2601.7125 331.1275,-2607.7125 331.1275,-2607.7125 331.1275,-2709.7125 331.1275,-2709.7125 331.1275,-2715.7125 325.1275,-2721.7125 319.1275,-2721.7125 319.1275,-2721.7125 189.1275,-2721.7125 189.1275,-2721.7125 183.1275,-2721.7125 177.1275,-2715.7125 177.1275,-2709.7125 177.1275,-2709.7125 177.1275,-2607.7125 177.1275,-2607.7125 177.1275,-2601.7125 183.1275,-2595.7125 189.1275,-2595.7125"/>
<text text-anchor="middle" x="254.1275" y="-2708.9125" font-family="Times,serif" font-size="11.00" fill="#c0c0c0">Interfaces</text>
</g>
<g id="clust19" class="cluster">
<title>cluster_\Firesphere\SolrSearch\Services</title>
<path fill="none" stroke="#c0c0c0" d="M617.7549,-2220.7125C617.7549,-2220.7125 727.7549,-2220.7125 727.7549,-2220.7125 733.7549,-2220.7125 739.7549,-2226.7125 739.7549,-2232.7125 739.7549,-2232.7125 739.7549,-2334.7125 739.7549,-2334.7125 739.7549,-2340.7125 733.7549,-2346.7125 727.7549,-2346.7125 727.7549,-2346.7125 617.7549,-2346.7125 617.7549,-2346.7125 611.7549,-2346.7125 605.7549,-2340.7125 605.7549,-2334.7125 605.7549,-2334.7125 605.7549,-2232.7125 605.7549,-2232.7125 605.7549,-2226.7125 611.7549,-2220.7125 617.7549,-2220.7125"/>
<text text-anchor="middle" x="672.7549" y="-2333.9125" font-family="Times,serif" font-size="11.00" fill="#c0c0c0">Services</text>
</g>
<g id="clust20" class="cluster">
<title>cluster_\Firesphere\SolrSearch\Queries</title>
<path fill="none" stroke="#c0c0c0" d="M638.2549,-2140.7125C638.2549,-2140.7125 707.2549,-2140.7125 707.2549,-2140.7125 713.2549,-2140.7125 719.2549,-2146.7125 719.2549,-2152.7125 719.2549,-2152.7125 719.2549,-2200.7125 719.2549,-2200.7125 719.2549,-2206.7125 713.2549,-2212.7125 707.2549,-2212.7125 707.2549,-2212.7125 638.2549,-2212.7125 638.2549,-2212.7125 632.2549,-2212.7125 626.2549,-2206.7125 626.2549,-2200.7125 626.2549,-2200.7125 626.2549,-2152.7125 626.2549,-2152.7125 626.2549,-2146.7125 632.2549,-2140.7125 638.2549,-2140.7125"/>
<text text-anchor="middle" x="672.7549" y="-2199.9125" font-family="Times,serif" font-size="11.00" fill="#c0c0c0">Queries</text>
</g>
<g id="clust21" class="cluster">
<title>cluster_\Firesphere\SolrSearch\Admins</title>
<path fill="none" stroke="#c0c0c0" d="M631.2549,-2060.7125C631.2549,-2060.7125 714.2549,-2060.7125 714.2549,-2060.7125 720.2549,-2060.7125 726.2549,-2066.7125 726.2549,-2072.7125 726.2549,-2072.7125 726.2549,-2120.7125 726.2549,-2120.7125 726.2549,-2126.7125 720.2549,-2132.7125 714.2549,-2132.7125 714.2549,-2132.7125 631.2549,-2132.7125 631.2549,-2132.7125 625.2549,-2132.7125 619.2549,-2126.7125 619.2549,-2120.7125 619.2549,-2120.7125 619.2549,-2072.7125 619.2549,-2072.7125 619.2549,-2066.7125 625.2549,-2060.7125 631.2549,-2060.7125"/>
<text text-anchor="middle" x="672.7549" y="-2119.9125" font-family="Times,serif" font-size="11.00" fill="#c0c0c0">Admins</text>
</g>
<g id="clust22" class="cluster">
<title>cluster_\Firesphere\SolrSearch\Models</title>
<path fill="none" stroke="#c0c0c0" d="M624.7549,-1872.7125C624.7549,-1872.7125 720.7549,-1872.7125 720.7549,-1872.7125 726.7549,-1872.7125 732.7549,-1878.7125 732.7549,-1884.7125 732.7549,-1884.7125 732.7549,-2040.7125 732.7549,-2040.7125 732.7549,-2046.7125 726.7549,-2052.7125 720.7549,-2052.7125 720.7549,-2052.7125 624.7549,-2052.7125 624.7549,-2052.7125 618.7549,-2052.7125 612.7549,-2046.7125 612.7549,-2040.7125 612.7549,-2040.7125 612.7549,-1884.7125 612.7549,-1884.7125 612.7549,-1878.7125 618.7549,-1872.7125 624.7549,-1872.7125"/>
<text text-anchor="middle" x="672.7549" y="-2039.9125" font-family="Times,serif" font-size="11.00" fill="#c0c0c0">Models</text>
</g>
<g id="clust23" class="cluster">
<title>cluster_\Firesphere\SolrSearch\Tasks</title>
<path fill="none" stroke="#c0c0c0" d="M597.7549,-1630.7125C597.7549,-1630.7125 747.7549,-1630.7125 747.7549,-1630.7125 753.7549,-1630.7125 759.7549,-1636.7125 759.7549,-1642.7125 759.7549,-1642.7125 759.7549,-1852.7125 759.7549,-1852.7125 759.7549,-1858.7125 753.7549,-1864.7125 747.7549,-1864.7125 747.7549,-1864.7125 597.7549,-1864.7125 597.7549,-1864.7125 591.7549,-1864.7125 585.7549,-1858.7125 585.7549,-1852.7125 585.7549,-1852.7125 585.7549,-1642.7125 585.7549,-1642.7125 585.7549,-1636.7125 591.7549,-1630.7125 597.7549,-1630.7125"/>
<text text-anchor="middle" x="672.7549" y="-1851.9125" font-family="Times,serif" font-size="11.00" fill="#c0c0c0">Tasks</text>
</g>
<g id="clust24" class="cluster">
<title>cluster_\Firesphere\SolrSearch\Traits</title>
<path fill="none" stroke="#c0c0c0" d="M584.2549,-740.7125C584.2549,-740.7125 761.2549,-740.7125 761.2549,-740.7125 767.2549,-740.7125 773.2549,-746.7125 773.2549,-752.7125 773.2549,-752.7125 773.2549,-1610.7125 773.2549,-1610.7125 773.2549,-1616.7125 767.2549,-1622.7125 761.2549,-1622.7125 761.2549,-1622.7125 584.2549,-1622.7125 584.2549,-1622.7125 578.2549,-1622.7125 572.2549,-1616.7125 572.2549,-1610.7125 572.2549,-1610.7125 572.2549,-752.7125 572.2549,-752.7125 572.2549,-746.7125 578.2549,-740.7125 584.2549,-740.7125"/>
<text text-anchor="middle" x="672.7549" y="-1609.9125" font-family="Times,serif" font-size="11.00" fill="#c0c0c0">Traits</text>
</g>
<g id="clust25" class="cluster">
<title>cluster_\Firesphere\SolrSearch\States</title>
<path fill="none" stroke="#c0c0c0" d="M634.7549,-660.7125C634.7549,-660.7125 710.7549,-660.7125 710.7549,-660.7125 716.7549,-660.7125 722.7549,-666.7125 722.7549,-672.7125 722.7549,-672.7125 722.7549,-720.7125 722.7549,-720.7125 722.7549,-726.7125 716.7549,-732.7125 710.7549,-732.7125 710.7549,-732.7125 634.7549,-732.7125 634.7549,-732.7125 628.7549,-732.7125 622.7549,-726.7125 622.7549,-720.7125 622.7549,-720.7125 622.7549,-672.7125 622.7549,-672.7125 622.7549,-666.7125 628.7549,-660.7125 634.7549,-660.7125"/>
<text text-anchor="middle" x="672.7549" y="-719.9125" font-family="Times,serif" font-size="11.00" fill="#c0c0c0">States</text>
</g>
<g id="clust26" class="cluster">
<title>cluster_\Firesphere\SolrSearch\Fluent</title>
<path fill="none" stroke="#c0c0c0" d="M617.7549,-580.7125C617.7549,-580.7125 727.7549,-580.7125 727.7549,-580.7125 733.7549,-580.7125 739.7549,-586.7125 739.7549,-592.7125 739.7549,-592.7125 739.7549,-640.7125 739.7549,-640.7125 739.7549,-646.7125 733.7549,-652.7125 727.7549,-652.7125 727.7549,-652.7125 617.7549,-652.7125 617.7549,-652.7125 611.7549,-652.7125 605.7549,-646.7125 605.7549,-640.7125 605.7549,-640.7125 605.7549,-592.7125 605.7549,-592.7125 605.7549,-586.7125 611.7549,-580.7125 617.7549,-580.7125"/>
<text text-anchor="middle" x="672.7549" y="-639.9125" font-family="Times,serif" font-size="11.00" fill="#c0c0c0">Fluent</text>
</g>
<g id="clust27" class="cluster">
<title>cluster_\Firesphere\SolrSearch\Subsites</title>
<path fill="none" stroke="#c0c0c0" d="M611.2549,-500.7125C611.2549,-500.7125 734.2549,-500.7125 734.2549,-500.7125 740.2549,-500.7125 746.2549,-506.7125 746.2549,-512.7125 746.2549,-512.7125 746.2549,-560.7125 746.2549,-560.7125 746.2549,-566.7125 740.2549,-572.7125 734.2549,-572.7125 734.2549,-572.7125 611.2549,-572.7125 611.2549,-572.7125 605.2549,-572.7125 599.2549,-566.7125 599.2549,-560.7125 599.2549,-560.7125 599.2549,-512.7125 599.2549,-512.7125 599.2549,-506.7125 605.2549,-500.7125 611.2549,-500.7125"/>
<text text-anchor="middle" x="672.7549" y="-559.9125" font-family="Times,serif" font-size="11.00" fill="#c0c0c0">Subsites</text>
</g>
<!-- \\SilverStripe\\FullTextSearch\\Solr\\SolrIndex -->
<g id="node1" class="node">
<title>\\SilverStripe\\FullTextSearch\\Solr\\SolrIndex</title>
<polygon fill="none" stroke="#000000" points="924.7549,-2895.7125 840.7549,-2895.7125 840.7549,-2859.7125 924.7549,-2859.7125 924.7549,-2895.7125"/>
<text text-anchor="start" x="848.7549" y="-2880.9125" font-family="Courier,monospace" font-size="11.00" fill="#000000">«abstract»</text>
<text text-anchor="start" x="852.2549" y="-2868.9125" font-family="Courier,monospace" font-size="11.00" fill="#000000">SolrIndex</text>
</g>
<!-- \\Firesphere\\SolrSearch\\Indexes\\BaseIndex -->
<g id="node5" class="node">
<title>\\Firesphere\\SolrSearch\\Indexes\\BaseIndex</title>
<polygon fill="none" stroke="#000000" points="714.7549,-3444.7125 630.7549,-3444.7125 630.7549,-3408.7125 714.7549,-3408.7125 714.7549,-3444.7125"/>
<text text-anchor="start" x="638.7549" y="-3429.9125" font-family="Courier,monospace" font-size="11.00" fill="#000000">«abstract»</text>
<text text-anchor="start" x="642.2549" y="-3417.9125" font-family="Courier,monospace" font-size="11.00" fill="#000000">BaseIndex</text>
</g>
<!-- \\SilverStripe\\FullTextSearch\\Solr\\SolrIndex&#45;&gt;\\Firesphere\\SolrSearch\\Indexes\\BaseIndex -->
<g id="edge1" class="edge">
<title>\\SilverStripe\\FullTextSearch\\Solr\\SolrIndex&#45;&gt;\\Firesphere\\SolrSearch\\Indexes\\BaseIndex</title>
<path fill="none" stroke="#000000" d="M882.0331,-2895.9322C878.3724,-2979.0462 859.1943,-3321.4118 789.2549,-3396.7125 772.8497,-3414.3752 747.556,-3422.2093 724.7234,-3425.4871"/>
<polygon fill="none" stroke="#000000" points="724.3062,-3422.012 714.7854,-3426.66 725.1268,-3428.9637 724.3062,-3422.012"/>
</g>
<!-- \\SilverStripe\\FullTextSearch\\Solr\\Solr -->
<g id="node2" class="node">
<title>\\SilverStripe\\FullTextSearch\\Solr\\Solr</title>
<polygon fill="none" stroke="#000000" points="909.7549,-2841.7125 855.7549,-2841.7125 855.7549,-2805.7125 909.7549,-2805.7125 909.7549,-2841.7125"/>
<text text-anchor="middle" x="882.7549" y="-2820.9125" font-family="Courier,monospace" font-size="11.00" fill="#000000">Solr</text>
</g>
<!-- \\SilverStripe\\FullTextSearch\\Search\\Queries\\SearchQuery -->
<g id="node3" class="node">
<title>\\SilverStripe\\FullTextSearch\\Search\\Queries\\SearchQuery</title>
<polygon fill="none" stroke="#000000" points="928.2549,-2733.7125 837.2549,-2733.7125 837.2549,-2697.7125 928.2549,-2697.7125 928.2549,-2733.7125"/>
<text text-anchor="middle" x="882.7549" y="-2712.9125" font-family="Courier,monospace" font-size="11.00" fill="#000000">SearchQuery</text>
</g>
<!-- \\Firesphere\\SolrSearch\\Queries\\BaseQuery -->
<g id="node26" class="node">
<title>\\Firesphere\\SolrSearch\\Queries\\BaseQuery</title>
<polygon fill="none" stroke="#000000" points="711.2549,-2184.7125 634.2549,-2184.7125 634.2549,-2148.7125 711.2549,-2148.7125 711.2549,-2184.7125"/>
<text text-anchor="middle" x="672.7549" y="-2163.9125" font-family="Courier,monospace" font-size="11.00" fill="#000000">BaseQuery</text>
</g>
<!-- \\SilverStripe\\FullTextSearch\\Search\\Queries\\SearchQuery&#45;&gt;\\Firesphere\\SolrSearch\\Queries\\BaseQuery -->
<g id="edge3" class="edge">
<title>\\SilverStripe\\FullTextSearch\\Search\\Queries\\SearchQuery&#45;&gt;\\Firesphere\\SolrSearch\\Queries\\BaseQuery</title>
<path fill="none" stroke="#000000" d="M881.612,-2697.6144C876.2121,-2617.2982 850.8973,-2293.6761 789.2549,-2216.7125 772.4457,-2195.7252 745.1483,-2183.3821 721.2013,-2176.2124"/>
<polygon fill="none" stroke="#000000" points="722.1015,-2172.8301 711.5301,-2173.5345 720.2335,-2179.5762 722.1015,-2172.8301"/>
</g>
<!-- \\Firesphere\\SolrSearch\\Compat\\FulltextSearchExtension -->
<g id="node4" class="node">
<title>\\Firesphere\\SolrSearch\\Compat\\FulltextSearchExtension</title>
<polygon fill="none" stroke="#000000" points="758.7549,-3524.7125 586.7549,-3524.7125 586.7549,-3488.7125 758.7549,-3488.7125 758.7549,-3524.7125"/>
<text text-anchor="middle" x="672.7549" y="-3503.9125" font-family="Courier,monospace" font-size="11.00" fill="#000000">FulltextSearchExtension</text>
</g>
<!-- \\SilverStripe\\Core\\Extension -->
<g id="node54" class="node">
<title>\\SilverStripe\\Core\\Extension</title>
<ellipse fill="none" stroke="#000000" cx="254.1275" cy="-450.7125" rx="144.0747" ry="18"/>
<text text-anchor="middle" x="254.1275" y="-447.0125" font-family="Times,serif" font-size="14.00" fill="#c0c0c0">\SilverStripe\Core\Extension</text>
</g>
<!-- \\Firesphere\\SolrSearch\\Compat\\FulltextSearchExtension&#45;&gt;\\SilverStripe\\Core\\Extension -->
<g id="edge2" class="edge">
<title>\\Firesphere\\SolrSearch\\Compat\\FulltextSearchExtension&#45;&gt;\\SilverStripe\\Core\\Extension</title>
<path fill="none" stroke="#000000" d="M586.7503,-3489.6507C581.2956,-3486.0914 576.3586,-3481.8241 572.2549,-3476.7125 510.5347,-3399.8319 517.6233,-2689.8565 508.2549,-2591.7125 425.4303,-1724.0318 283.0179,-663.4006 257.9505,-478.7578"/>
<polygon fill="none" stroke="#000000" points="261.4086,-478.2122 256.5936,-468.7747 254.4724,-479.155 261.4086,-478.2122"/>
</g>
<!-- \\Firesphere\\SolrSearch\\Helpers\\Synonyms -->
<g id="node6" class="node">
<title>\\Firesphere\\SolrSearch\\Helpers\\Synonyms</title>
<polygon fill="none" stroke="#000000" points="708.2549,-3364.7125 637.2549,-3364.7125 637.2549,-3328.7125 708.2549,-3328.7125 708.2549,-3364.7125"/>
<text text-anchor="middle" x="672.7549" y="-3343.9125" font-family="Courier,monospace" font-size="11.00" fill="#000000">Synonyms</text>
</g>
<!-- \\Firesphere\\SolrSearch\\Helpers\\FieldResolver -->
<g id="node7" class="node">
<title>\\Firesphere\\SolrSearch\\Helpers\\FieldResolver</title>
<polygon fill="none" stroke="#000000" points="724.7549,-3310.7125 620.7549,-3310.7125 620.7549,-3274.7125 724.7549,-3274.7125 724.7549,-3310.7125"/>
<text text-anchor="middle" x="672.7549" y="-3289.9125" font-family="Courier,monospace" font-size="11.00" fill="#000000">FieldResolver</text>
</g>
<!-- \\Firesphere\\SolrSearch\\Helpers\\SolrLogger -->
<g id="node8" class="node">
<title>\\Firesphere\\SolrSearch\\Helpers\\SolrLogger</title>
<polygon fill="none" stroke="#000000" points="714.7549,-3256.7125 630.7549,-3256.7125 630.7549,-3220.7125 714.7549,-3220.7125 714.7549,-3256.7125"/>
<text text-anchor="middle" x="672.7549" y="-3235.9125" font-family="Courier,monospace" font-size="11.00" fill="#000000">SolrLogger</text>
</g>
<!-- \\Firesphere\\SolrSearch\\Helpers\\Statics -->
<g id="node9" class="node">
<title>\\Firesphere\\SolrSearch\\Helpers\\Statics</title>
<polygon fill="none" stroke="#000000" points="704.7549,-3202.7125 640.7549,-3202.7125 640.7549,-3166.7125 704.7549,-3166.7125 704.7549,-3202.7125"/>
<text text-anchor="middle" x="672.7549" y="-3181.9125" font-family="Courier,monospace" font-size="11.00" fill="#000000">Statics</text>
</g>
<!-- \\Firesphere\\SolrSearch\\Helpers\\DataResolver -->
<g id="node10" class="node">
<title>\\Firesphere\\SolrSearch\\Helpers\\DataResolver</title>
<polygon fill="none" stroke="#000000" points="721.7549,-3148.7125 623.7549,-3148.7125 623.7549,-3112.7125 721.7549,-3112.7125 721.7549,-3148.7125"/>
<text text-anchor="middle" x="672.7549" y="-3127.9125" font-family="Courier,monospace" font-size="11.00" fill="#000000">DataResolver</text>
</g>
<!-- \\Firesphere\\SolrSearch\\Results\\SearchResult -->
<g id="node11" class="node">
<title>\\Firesphere\\SolrSearch\\Results\\SearchResult</title>
<polygon fill="none" stroke="#000000" points="721.7549,-3068.7125 623.7549,-3068.7125 623.7549,-3032.7125 721.7549,-3032.7125 721.7549,-3068.7125"/>
<text text-anchor="middle" x="672.7549" y="-3047.9125" font-family="Courier,monospace" font-size="11.00" fill="#000000">SearchResult</text>
</g>
<!-- \\Firesphere\\SolrSearch\\Extensions\\DataObjectExtension -->
<g id="node12" class="node">
<title>\\Firesphere\\SolrSearch\\Extensions\\DataObjectExtension</title>
<polygon fill="none" stroke="#000000" points="745.2549,-2934.7125 600.2549,-2934.7125 600.2549,-2898.7125 745.2549,-2898.7125 745.2549,-2934.7125"/>
<text text-anchor="middle" x="672.7549" y="-2913.9125" font-family="Courier,monospace" font-size="11.00" fill="#000000">DataObjectExtension</text>
</g>
<!-- \\SilverStripe\\ORM\\DataExtension -->
<g id="node55" class="node">
<title>\\SilverStripe\\ORM\\DataExtension</title>
<ellipse fill="none" stroke="#000000" cx="254.1275" cy="-342.7125" rx="167.8704" ry="18"/>
<text text-anchor="middle" x="254.1275" y="-339.0125" font-family="Times,serif" font-size="14.00" fill="#c0c0c0">\SilverStripe\ORM\DataExtension</text>
</g>
<!-- \\Firesphere\\SolrSearch\\Extensions\\DataObjectExtension&#45;&gt;\\SilverStripe\\ORM\\DataExtension -->
<g id="edge4" class="edge">
<title>\\Firesphere\\SolrSearch\\Extensions\\DataObjectExtension&#45;&gt;\\SilverStripe\\ORM\\DataExtension</title>
<path fill="none" stroke="#000000" d="M600.1593,-2907.1249C589.3113,-2902.5722 579.3912,-2896.0403 572.2549,-2886.7125 487.2614,-2775.6174 603.1076,-472.518 508.2549,-369.7125 467.3987,-325.4307 398.3792,-320.5309 342.5719,-325.6923"/>
<polygon fill="none" stroke="#000000" points="341.8963,-322.2438 332.315,-326.7659 342.6251,-329.2058 341.8963,-322.2438"/>
</g>
<!-- \\Firesphere\\SolrSearch\\Extensions\\GridFieldExtension -->
<g id="node13" class="node">
<title>\\Firesphere\\SolrSearch\\Extensions\\GridFieldExtension</title>
<polygon fill="none" stroke="#000000" points="741.7549,-2988.7125 603.7549,-2988.7125 603.7549,-2952.7125 741.7549,-2952.7125 741.7549,-2988.7125"/>
<text text-anchor="middle" x="672.7549" y="-2967.9125" font-family="Courier,monospace" font-size="11.00" fill="#000000">GridFieldExtension</text>
</g>
<!-- \\Firesphere\\SolrSearch\\Extensions\\GridFieldExtension&#45;&gt;\\SilverStripe\\Core\\Extension -->
<g id="edge5" class="edge">
<title>\\Firesphere\\SolrSearch\\Extensions\\GridFieldExtension&#45;&gt;\\SilverStripe\\Core\\Extension</title>
<path fill="none" stroke="#000000" d="M603.6016,-2963.6634C591.6929,-2959.4852 580.5119,-2953.1719 572.2549,-2943.7125 529.2738,-2894.4721 287.9202,-752.2005 257.3181,-479.2232"/>
<polygon fill="none" stroke="#000000" points="260.7599,-478.5077 256.1681,-468.9597 253.8035,-479.2872 260.7599,-478.5077"/>
</g>
<!-- \\Firesphere\\SolrSearch\\Factories\\QueryComponentFactory -->
<g id="node14" class="node">
<title>\\Firesphere\\SolrSearch\\Factories\\QueryComponentFactory</title>
<polygon fill="none" stroke="#000000" points="751.7549,-2854.7125 593.7549,-2854.7125 593.7549,-2818.7125 751.7549,-2818.7125 751.7549,-2854.7125"/>
<text text-anchor="middle" x="672.7549" y="-2833.9125" font-family="Courier,monospace" font-size="11.00" fill="#000000">QueryComponentFactory</text>
</g>
<!-- \\Firesphere\\SolrSearch\\Factories\\DocumentFactory -->
<g id="node15" class="node">
<title>\\Firesphere\\SolrSearch\\Factories\\DocumentFactory</title>
<polygon fill="none" stroke="#000000" points="731.7549,-2800.7125 613.7549,-2800.7125 613.7549,-2764.7125 731.7549,-2764.7125 731.7549,-2800.7125"/>
<text text-anchor="middle" x="672.7549" y="-2779.9125" font-family="Courier,monospace" font-size="11.00" fill="#000000">DocumentFactory</text>
</g>
<!-- \\Firesphere\\SolrSearch\\Stores\\PostConfigStore -->
<g id="node16" class="node">
<title>\\Firesphere\\SolrSearch\\Stores\\PostConfigStore</title>
<polygon fill="none" stroke="#000000" points="731.7549,-2720.7125 613.7549,-2720.7125 613.7549,-2684.7125 731.7549,-2684.7125 731.7549,-2720.7125"/>
<text text-anchor="middle" x="672.7549" y="-2699.9125" font-family="Courier,monospace" font-size="11.00" fill="#000000">PostConfigStore</text>
</g>
<!-- \\Firesphere\\SolrSearch\\Interfaces\\ConfigStore -->
<g id="node22" class="node">
<title>\\Firesphere\\SolrSearch\\Interfaces\\ConfigStore</title>
<polygon fill="none" stroke="#000000" points="299.6275,-2693.7125 208.6275,-2693.7125 208.6275,-2657.7125 299.6275,-2657.7125 299.6275,-2693.7125"/>
<text text-anchor="middle" x="254.1275" y="-2672.9125" font-family="Courier,monospace" font-size="11.00" fill="#000000">ConfigStore</text>
</g>
<!-- \\Firesphere\\SolrSearch\\Stores\\PostConfigStore&#45;&gt;\\Firesphere\\SolrSearch\\Interfaces\\ConfigStore -->
<g id="edge6" class="edge">
<title>\\Firesphere\\SolrSearch\\Stores\\PostConfigStore&#45;&gt;\\Firesphere\\SolrSearch\\Interfaces\\ConfigStore</title>
<path fill="none" stroke="#000000" stroke-dasharray="1,5" d="M613.6637,-2698.9013C532.8854,-2693.6914 389.0185,-2684.4125 309.9722,-2679.3142"/>
<polygon fill="none" stroke="#000000" points="309.9333,-2675.8046 299.7287,-2678.6536 309.4827,-2682.79 309.9333,-2675.8046"/>
</g>
<!-- \\Firesphere\\SolrSearch\\Stores\\FileConfigStore -->
<g id="node17" class="node">
<title>\\Firesphere\\SolrSearch\\Stores\\FileConfigStore</title>
<polygon fill="none" stroke="#000000" points="731.7549,-2666.7125 613.7549,-2666.7125 613.7549,-2630.7125 731.7549,-2630.7125 731.7549,-2666.7125"/>
<text text-anchor="middle" x="672.7549" y="-2645.9125" font-family="Courier,monospace" font-size="11.00" fill="#000000">FileConfigStore</text>
</g>
<!-- \\Firesphere\\SolrSearch\\Stores\\FileConfigStore&#45;&gt;\\Firesphere\\SolrSearch\\Interfaces\\ConfigStore -->
<g id="edge7" class="edge">
<title>\\Firesphere\\SolrSearch\\Stores\\FileConfigStore&#45;&gt;\\Firesphere\\SolrSearch\\Interfaces\\ConfigStore</title>
<path fill="none" stroke="#000000" stroke-dasharray="1,5" d="M613.6637,-2652.5236C532.8854,-2657.7335 389.0185,-2667.0125 309.9722,-2672.1107"/>
<polygon fill="none" stroke="#000000" points="309.4827,-2668.6349 299.7287,-2672.7713 309.9333,-2675.6204 309.4827,-2668.6349"/>
</g>
<!-- \\Firesphere\\SolrSearch\\Jobs\\SolrIndexJob -->
<g id="node18" class="node">
<title>\\Firesphere\\SolrSearch\\Jobs\\SolrIndexJob</title>
<polygon fill="none" stroke="#000000" points="721.7549,-2586.7125 623.7549,-2586.7125 623.7549,-2550.7125 721.7549,-2550.7125 721.7549,-2586.7125"/>
<text text-anchor="middle" x="672.7549" y="-2565.9125" font-family="Courier,monospace" font-size="11.00" fill="#000000">SolrIndexJob</text>
</g>
<!-- \\Symbiote\\QueuedJobs\\Services\\AbstractQueuedJob -->
<g id="node56" class="node">
<title>\\Symbiote\\QueuedJobs\\Services\\AbstractQueuedJob</title>
<ellipse fill="none" stroke="#000000" cx="254.1275" cy="-396.7125" rx="254.255" ry="18"/>
<text text-anchor="middle" x="254.1275" y="-393.0125" font-family="Times,serif" font-size="14.00" fill="#c0c0c0">\Symbiote\QueuedJobs\Services\AbstractQueuedJob</text>
</g>
<!-- \\Firesphere\\SolrSearch\\Jobs\\SolrIndexJob&#45;&gt;\\Symbiote\\QueuedJobs\\Services\\AbstractQueuedJob -->
<g id="edge8" class="edge">
<title>\\Firesphere\\SolrSearch\\Jobs\\SolrIndexJob&#45;&gt;\\Symbiote\\QueuedJobs\\Services\\AbstractQueuedJob</title>
<path fill="none" stroke="#000000" d="M623.7451,-2567.5492C604.6896,-2564.4099 584.5285,-2557.2277 572.2549,-2541.7125 426.1838,-2357.0626 668.3227,-596.3701 508.2549,-423.7125 469.6448,-382.0656 406.1126,-375.3157 352.2331,-378.9775"/>
<polygon fill="none" stroke="#000000" points="351.6308,-375.5146 341.9452,-379.8086 352.1946,-382.4919 351.6308,-375.5146"/>
</g>
<!-- \\Firesphere\\SolrSearch\\Jobs\\SolrConfigureJob -->
<g id="node19" class="node">
<title>\\Firesphere\\SolrSearch\\Jobs\\SolrConfigureJob</title>
<polygon fill="none" stroke="#000000" points="735.2549,-2532.7125 610.2549,-2532.7125 610.2549,-2496.7125 735.2549,-2496.7125 735.2549,-2532.7125"/>
<text text-anchor="middle" x="672.7549" y="-2511.9125" font-family="Courier,monospace" font-size="11.00" fill="#000000">SolrConfigureJob</text>
</g>
<!-- \\Firesphere\\SolrSearch\\Jobs\\SolrConfigureJob&#45;&gt;\\Symbiote\\QueuedJobs\\Services\\AbstractQueuedJob -->
<g id="edge9" class="edge">
<title>\\Firesphere\\SolrSearch\\Jobs\\SolrConfigureJob&#45;&gt;\\Symbiote\\QueuedJobs\\Services\\AbstractQueuedJob</title>
<path fill="none" stroke="#000000" d="M610.1111,-2510.5667C595.5664,-2506.5244 581.6189,-2499.54 572.2549,-2487.7125 429.8335,-2307.8222 664.3119,-591.9105 508.2549,-423.7125 469.6284,-382.0808 406.0962,-375.3309 352.2208,-378.9889"/>
<polygon fill="none" stroke="#000000" points="351.6197,-375.526 341.9337,-379.8193 352.1829,-382.5033 351.6197,-375.526"/>
</g>
<!-- \\Firesphere\\SolrSearch\\Jobs\\ClearDirtyClassesJob -->
<g id="node20" class="node">
<title>\\Firesphere\\SolrSearch\\Jobs\\ClearDirtyClassesJob</title>
<polygon fill="none" stroke="#000000" points="748.7549,-2478.7125 596.7549,-2478.7125 596.7549,-2442.7125 748.7549,-2442.7125 748.7549,-2478.7125"/>
<text text-anchor="middle" x="672.7549" y="-2457.9125" font-family="Courier,monospace" font-size="11.00" fill="#000000">ClearDirtyClassesJob</text>
</g>
<!-- \\Firesphere\\SolrSearch\\Jobs\\ClearDirtyClassesJob&#45;&gt;\\Symbiote\\QueuedJobs\\Services\\AbstractQueuedJob -->
<g id="edge10" class="edge">
<title>\\Firesphere\\SolrSearch\\Jobs\\ClearDirtyClassesJob&#45;&gt;\\Symbiote\\QueuedJobs\\Services\\AbstractQueuedJob</title>
<path fill="none" stroke="#000000" d="M596.4638,-2449.4182C587.0832,-2444.9836 578.588,-2438.9353 572.2549,-2430.7125 436.1146,-2253.9488 660.0783,-587.2032 508.2549,-423.7125 469.681,-382.1742 406.3109,-375.3728 352.5037,-378.9816"/>
<polygon fill="none" stroke="#000000" points="351.918,-375.5172 342.2286,-379.8026 352.4756,-382.495 351.918,-375.5172"/>
</g>
<!-- \\Firesphere\\SolrSearch\\Forms\\SearchForm -->
<g id="node21" class="node">
<title>\\Firesphere\\SolrSearch\\Forms\\SearchForm</title>
<polygon fill="none" stroke="#000000" points="714.7549,-2398.7125 630.7549,-2398.7125 630.7549,-2362.7125 714.7549,-2362.7125 714.7549,-2398.7125"/>
<text text-anchor="middle" x="672.7549" y="-2377.9125" font-family="Courier,monospace" font-size="11.00" fill="#000000">SearchForm</text>
</g>
<!-- \\SilverStripe\\Forms\\Form -->
<g id="node57" class="node">
<title>\\SilverStripe\\Forms\\Form</title>
<ellipse fill="none" stroke="#000000" cx="254.1275" cy="-288.7125" rx="129.1772" ry="18"/>
<text text-anchor="middle" x="254.1275" y="-285.0125" font-family="Times,serif" font-size="14.00" fill="#c0c0c0">\SilverStripe\Forms\Form</text>
</g>
<!-- \\Firesphere\\SolrSearch\\Forms\\SearchForm&#45;&gt;\\SilverStripe\\Forms\\Form -->
<g id="edge11" class="edge">
<title>\\Firesphere\\SolrSearch\\Forms\\SearchForm&#45;&gt;\\SilverStripe\\Forms\\Form</title>
<path fill="none" stroke="#000000" d="M630.6249,-2379.2044C609.6513,-2376.0782 585.9171,-2368.4594 572.2549,-2350.7125 434.2565,-2171.455 662.1579,-481.5155 508.2549,-315.7125 465.5433,-269.6983 392.4053,-266.3034 335.5269,-272.471"/>
<polygon fill="none" stroke="#000000" points="334.9794,-269.0115 325.4677,-273.6782 335.8135,-275.9616 334.9794,-269.0115"/>
</g>
<!-- \\Firesphere\\SolrSearch\\Interfaces\\SiteStateInterface -->
<g id="node23" class="node">
<title>\\Firesphere\\SolrSearch\\Interfaces\\SiteStateInterface</title>
<polygon fill="none" stroke="#000000" points="323.1275,-2639.7125 185.1275,-2639.7125 185.1275,-2603.7125 323.1275,-2603.7125 323.1275,-2639.7125"/>
<text text-anchor="middle" x="254.1275" y="-2618.9125" font-family="Courier,monospace" font-size="11.00" fill="#000000">SiteStateInterface</text>
</g>
<!-- \\Firesphere\\SolrSearch\\Services\\SolrCoreService -->
<g id="node24" class="node">
<title>\\Firesphere\\SolrSearch\\Services\\SolrCoreService</title>
<polygon fill="none" stroke="#000000" points="731.7549,-2318.7125 613.7549,-2318.7125 613.7549,-2282.7125 731.7549,-2282.7125 731.7549,-2318.7125"/>
<text text-anchor="middle" x="672.7549" y="-2297.9125" font-family="Courier,monospace" font-size="11.00" fill="#000000">SolrCoreService</text>
</g>
<!-- \\Firesphere\\SolrSearch\\Services\\SchemaService -->
<g id="node25" class="node">
<title>\\Firesphere\\SolrSearch\\Services\\SchemaService</title>
<polygon fill="none" stroke="#000000" points="724.7549,-2264.7125 620.7549,-2264.7125 620.7549,-2228.7125 724.7549,-2228.7125 724.7549,-2264.7125"/>
<text text-anchor="middle" x="672.7549" y="-2243.9125" font-family="Courier,monospace" font-size="11.00" fill="#000000">SchemaService</text>
</g>
<!-- \\SilverStripe\\View\\ViewableData -->
<g id="node58" class="node">
<title>\\SilverStripe\\View\\ViewableData</title>
<ellipse fill="none" stroke="#000000" cx="254.1275" cy="-234.7125" rx="163.2712" ry="18"/>
<text text-anchor="middle" x="254.1275" y="-231.0125" font-family="Times,serif" font-size="14.00" fill="#c0c0c0">\SilverStripe\View\ViewableData</text>
</g>
<!-- \\Firesphere\\SolrSearch\\Services\\SchemaService&#45;&gt;\\SilverStripe\\View\\ViewableData -->
<g id="edge12" class="edge">
<title>\\Firesphere\\SolrSearch\\Services\\SchemaService&#45;&gt;\\SilverStripe\\View\\ViewableData</title>
<path fill="none" stroke="#000000" d="M620.5028,-2243.3485C602.3904,-2239.3991 583.7608,-2231.6385 572.2549,-2216.7125 439.5653,-2044.5801 656.2161,-420.909 508.2549,-261.7125 467.2373,-217.5802 398.2276,-212.6713 342.4652,-217.7911"/>
<polygon fill="none" stroke="#000000" points="341.8014,-214.3412 332.217,-218.8567 342.5253,-221.3037 341.8014,-214.3412"/>
</g>
<!-- \\Firesphere\\SolrSearch\\Admins\\SearchAdmin -->
<g id="node27" class="node">
<title>\\Firesphere\\SolrSearch\\Admins\\SearchAdmin</title>
<polygon fill="none" stroke="#000000" points="718.2549,-2104.7125 627.2549,-2104.7125 627.2549,-2068.7125 718.2549,-2068.7125 718.2549,-2104.7125"/>
<text text-anchor="middle" x="672.7549" y="-2083.9125" font-family="Courier,monospace" font-size="11.00" fill="#000000">SearchAdmin</text>
</g>
<!-- \\SilverStripe\\Admin\\ModelAdmin -->
<g id="node59" class="node">
<title>\\SilverStripe\\Admin\\ModelAdmin</title>
<ellipse fill="none" stroke="#000000" cx="254.1275" cy="-180.7125" rx="165.1707" ry="18"/>
<text text-anchor="middle" x="254.1275" y="-177.0125" font-family="Times,serif" font-size="14.00" fill="#c0c0c0">\SilverStripe\Admin\ModelAdmin</text>
</g>
<!-- \\Firesphere\\SolrSearch\\Admins\\SearchAdmin&#45;&gt;\\SilverStripe\\Admin\\ModelAdmin -->
<g id="edge13" class="edge">
<title>\\Firesphere\\SolrSearch\\Admins\\SearchAdmin&#45;&gt;\\SilverStripe\\Admin\\ModelAdmin</title>
<path fill="none" stroke="#000000" d="M627.0433,-2084.6077C607.0113,-2081.1559 585.166,-2073.4291 572.2549,-2056.7125 446.5993,-1894.0206 648.3436,-358.1556 508.2549,-207.7125 467.2671,-163.6951 398.4279,-158.7245 342.7278,-163.7901"/>
<polygon fill="none" stroke="#000000" points="342.0783,-160.3384 332.4899,-164.8456 342.7962,-167.3015 342.0783,-160.3384"/>
</g>
<!-- \\Firesphere\\SolrSearch\\Models\\DirtyClass -->
<g id="node28" class="node">
<title>\\Firesphere\\SolrSearch\\Models\\DirtyClass</title>
<polygon fill="none" stroke="#000000" points="714.7549,-2024.7125 630.7549,-2024.7125 630.7549,-1988.7125 714.7549,-1988.7125 714.7549,-2024.7125"/>
<text text-anchor="middle" x="672.7549" y="-2003.9125" font-family="Courier,monospace" font-size="11.00" fill="#000000">DirtyClass</text>
</g>
<!-- \\SilverStripe\\ORM\\DataObject -->
<g id="node60" class="node">
<title>\\SilverStripe\\ORM\\DataObject</title>
<ellipse fill="none" stroke="#000000" cx="254.1275" cy="-126.7125" rx="152.9733" ry="18"/>
<text text-anchor="middle" x="254.1275" y="-123.0125" font-family="Times,serif" font-size="14.00" fill="#c0c0c0">\SilverStripe\ORM\DataObject</text>
</g>
<!-- \\Firesphere\\SolrSearch\\Models\\DirtyClass&#45;&gt;\\SilverStripe\\ORM\\DataObject -->
<g id="edge14" class="edge">
<title>\\Firesphere\\SolrSearch\\Models\\DirtyClass&#45;&gt;\\SilverStripe\\ORM\\DataObject</title>
<path fill="none" stroke="#000000" d="M630.5044,-2006.4765C609.6315,-2003.9633 586.0275,-1997.0365 572.2549,-1979.7125 445.9183,-1820.7989 646.6354,-302.2564 508.2549,-153.7125 466.6732,-109.0768 396.451,-104.5992 340.348,-110.0186"/>
<polygon fill="none" stroke="#000000" points="339.9696,-106.539 330.4045,-111.0952 340.7232,-113.4983 339.9696,-106.539"/>
</g>
<!-- \\Firesphere\\SolrSearch\\Models\\SearchSynonym -->
<g id="node29" class="node">
<title>\\Firesphere\\SolrSearch\\Models\\SearchSynonym</title>
<polygon fill="none" stroke="#000000" points="724.7549,-1970.7125 620.7549,-1970.7125 620.7549,-1934.7125 724.7549,-1934.7125 724.7549,-1970.7125"/>
<text text-anchor="middle" x="672.7549" y="-1949.9125" font-family="Courier,monospace" font-size="11.00" fill="#000000">SearchSynonym</text>
</g>
<!-- \\Firesphere\\SolrSearch\\Models\\SearchSynonym&#45;&gt;\\SilverStripe\\ORM\\DataObject -->
<g id="edge15" class="edge">
<title>\\Firesphere\\SolrSearch\\Models\\SearchSynonym&#45;&gt;\\SilverStripe\\ORM\\DataObject</title>
<path fill="none" stroke="#000000" d="M620.6502,-1950.9596C602.5553,-1947.557 583.8992,-1940.3433 572.2549,-1925.7125 449.5675,-1771.558 642.6251,-297.7973 508.2549,-153.7125 466.6494,-109.0989 396.4289,-104.6197 340.3327,-110.0328"/>
<polygon fill="none" stroke="#000000" points="339.956,-106.5531 330.3905,-111.1083 340.7089,-113.5125 339.956,-106.5531"/>
</g>
<!-- \\Firesphere\\SolrSearch\\Models\\SolrLog -->
<g id="node30" class="node">
<title>\\Firesphere\\SolrSearch\\Models\\SolrLog</title>
<polygon fill="none" stroke="#000000" points="704.7549,-1916.7125 640.7549,-1916.7125 640.7549,-1880.7125 704.7549,-1880.7125 704.7549,-1916.7125"/>
<text text-anchor="middle" x="672.7549" y="-1895.9125" font-family="Courier,monospace" font-size="11.00" fill="#000000">SolrLog</text>
</g>
<!-- \\Firesphere\\SolrSearch\\Models\\SolrLog&#45;&gt;\\SilverStripe\\ORM\\DataObject -->
<g id="edge16" class="edge">
<title>\\Firesphere\\SolrSearch\\Models\\SolrLog&#45;&gt;\\SilverStripe\\ORM\\DataObject</title>
<path fill="none" stroke="#000000" d="M640.6171,-1898.37C617.6893,-1896.2469 588.199,-1889.2985 572.2549,-1868.7125 455.4907,-1717.954 638.3921,-293.0907 508.2549,-153.7125 466.7801,-109.2925 396.9349,-104.6773 340.9526,-109.9879"/>
<polygon fill="none" stroke="#000000" points="340.2417,-106.5439 330.6707,-111.0877 340.9863,-113.5042 340.2417,-106.5439"/>
</g>
<!-- \\SilverStripe\\Security\\PermissionProvider -->
<g id="node61" class="node">
<title>\\SilverStripe\\Security\\PermissionProvider</title>
<ellipse fill="none" stroke="#000000" cx="254.1275" cy="-72.7125" rx="206.0634" ry="18"/>
<text text-anchor="middle" x="254.1275" y="-69.0125" font-family="Times,serif" font-size="14.00" fill="#c0c0c0">\SilverStripe\Security\PermissionProvider</text>
</g>
<!-- \\Firesphere\\SolrSearch\\Models\\SolrLog&#45;&gt;\\SilverStripe\\Security\\PermissionProvider -->
<g id="edge17" class="edge">
<title>\\Firesphere\\SolrSearch\\Models\\SolrLog&#45;&gt;\\SilverStripe\\Security\\PermissionProvider</title>
<path fill="none" stroke="#000000" stroke-dasharray="1,5" d="M640.6103,-1898.3753C617.6789,-1896.2549 588.1873,-1889.3076 572.2549,-1868.7125 451.9077,-1713.1451 642.4023,-243.5496 508.2549,-99.7125 468.5859,-57.178 402.9066,-51.1252 348.2575,-55.3448"/>
<polygon fill="none" stroke="#000000" points="347.8385,-51.8682 338.1904,-56.2457 348.4626,-58.8403 347.8385,-51.8682"/>
</g>
<!-- \\Firesphere\\SolrSearch\\Tasks\\SolrConfigureTask -->
<g id="node31" class="node">
<title>\\Firesphere\\SolrSearch\\Tasks\\SolrConfigureTask</title>
<polygon fill="none" stroke="#000000" points="738.2549,-1836.7125 607.2549,-1836.7125 607.2549,-1800.7125 738.2549,-1800.7125 738.2549,-1836.7125"/>
<text text-anchor="middle" x="672.7549" y="-1815.9125" font-family="Courier,monospace" font-size="11.00" fill="#000000">SolrConfigureTask</text>
</g>
<!-- \\SilverStripe\\Dev\\BuildTask -->
<g id="node62" class="node">
<title>\\SilverStripe\\Dev\\BuildTask</title>
<ellipse fill="none" stroke="#000000" cx="254.1275" cy="-18.7125" rx="139.9756" ry="18"/>
<text text-anchor="middle" x="254.1275" y="-15.0125" font-family="Times,serif" font-size="14.00" fill="#c0c0c0">\SilverStripe\Dev\BuildTask</text>
</g>
<!-- \\Firesphere\\SolrSearch\\Tasks\\SolrConfigureTask&#45;&gt;\\SilverStripe\\Dev\\BuildTask -->
<g id="edge18" class="edge">
<title>\\Firesphere\\SolrSearch\\Tasks\\SolrConfigureTask&#45;&gt;\\SilverStripe\\Dev\\BuildTask</title>
<path fill="none" stroke="#000000" d="M607.0316,-1813.6132C593.6288,-1809.4614 580.977,-1802.6656 572.2549,-1791.7125 451.3245,-1639.8493 640.6943,-187.6504 508.2549,-45.7125 466.0663,-.4981 394.4853,3.4853 338.024,-2.2682"/>
<polygon fill="none" stroke="#000000" points="337.5685,1.2026 328.0271,-3.4031 338.3581,-5.7527 337.5685,1.2026"/>
</g>
<!-- \\Firesphere\\SolrSearch\\Tasks\\ClearDirtyClassesTask -->
<g id="node32" class="node">
<title>\\Firesphere\\SolrSearch\\Tasks\\ClearDirtyClassesTask</title>
<polygon fill="none" stroke="#000000" points="751.7549,-1782.7125 593.7549,-1782.7125 593.7549,-1746.7125 751.7549,-1746.7125 751.7549,-1782.7125"/>
<text text-anchor="middle" x="672.7549" y="-1761.9125" font-family="Courier,monospace" font-size="11.00" fill="#000000">ClearDirtyClassesTask</text>
</g>
<!-- \\Firesphere\\SolrSearch\\Tasks\\ClearDirtyClassesTask&#45;&gt;\\SilverStripe\\Dev\\BuildTask -->
<g id="edge19" class="edge">
<title>\\Firesphere\\SolrSearch\\Tasks\\ClearDirtyClassesTask&#45;&gt;\\SilverStripe\\Dev\\BuildTask</title>
<path fill="none" stroke="#000000" d="M593.6815,-1754.3599C585.4428,-1750.3225 577.9988,-1744.917 572.2549,-1737.7125 454.9736,-1590.6082 636.6841,-183.1916 508.2549,-45.7125 466.0399,-.5227 394.4613,3.4629 338.0076,-2.2836"/>
<polygon fill="none" stroke="#000000" points="337.554,1.1875 328.0121,-3.4171 338.3428,-5.7679 337.554,1.1875"/>
</g>
<!-- \\Firesphere\\SolrSearch\\Tasks\\SolrIndexTask -->
<g id="node33" class="node">
<title>\\Firesphere\\SolrSearch\\Tasks\\SolrIndexTask</title>
<polygon fill="none" stroke="#000000" points="724.7549,-1728.7125 620.7549,-1728.7125 620.7549,-1692.7125 724.7549,-1692.7125 724.7549,-1728.7125"/>
<text text-anchor="middle" x="672.7549" y="-1707.9125" font-family="Courier,monospace" font-size="11.00" fill="#000000">SolrIndexTask</text>
</g>
<!-- \\Firesphere\\SolrSearch\\Tasks\\SolrIndexTask&#45;&gt;\\SilverStripe\\Dev\\BuildTask -->
<g id="edge20" class="edge">
<title>\\Firesphere\\SolrSearch\\Tasks\\SolrIndexTask&#45;&gt;\\SilverStripe\\Dev\\BuildTask</title>
<path fill="none" stroke="#000000" d="M620.6732,-1708.9413C602.581,-1705.5365 583.9208,-1698.3261 572.2549,-1683.7125 458.6225,-1541.3669 632.6741,-178.7329 508.2549,-45.7125 466.0118,-.549 394.4357,3.4389 337.9901,-2.2999"/>
<polygon fill="none" stroke="#000000" points="337.5386,1.1714 327.9961,-3.432 338.3265,-5.7841 337.5386,1.1714"/>
</g>
<!-- \\Firesphere\\SolrSearch\\Tasks\\ClearErrorsTask -->
<g id="node34" class="node">
<title>\\Firesphere\\SolrSearch\\Tasks\\ClearErrorsTask</title>
<polygon fill="none" stroke="#000000" points="731.7549,-1674.7125 613.7549,-1674.7125 613.7549,-1638.7125 731.7549,-1638.7125 731.7549,-1674.7125"/>
<text text-anchor="middle" x="672.7549" y="-1653.9125" font-family="Courier,monospace" font-size="11.00" fill="#000000">ClearErrorsTask</text>
</g>
<!-- \\Firesphere\\SolrSearch\\Tasks\\ClearErrorsTask&#45;&gt;\\SilverStripe\\Dev\\BuildTask -->
<g id="edge21" class="edge">
<title>\\Firesphere\\SolrSearch\\Tasks\\ClearErrorsTask&#45;&gt;\\SilverStripe\\Dev\\BuildTask</title>
<path fill="none" stroke="#000000" d="M613.7317,-1651.6244C597.888,-1647.2861 582.366,-1639.7247 572.2549,-1626.7125 464.3814,-1487.8865 628.4415,-174.0267 508.2549,-45.7125 466.0516,-.6551 394.6489,3.3982 338.2569,-2.2894"/>
<polygon fill="none" stroke="#000000" points="337.8174,1.1833 328.2712,-3.4125 338.5998,-5.7728 337.8174,1.1833"/>
</g>
<!-- \\Firesphere\\SolrSearch\\Traits\\SearchResultGetTrait -->
<g id="node35" class="node">
<title>\\Firesphere\\SolrSearch\\Traits\\SearchResultGetTrait</title>
<polygon fill="none" stroke="#000000" points="748.7549,-1594.7125 596.7549,-1594.7125 596.7549,-1558.7125 748.7549,-1558.7125 748.7549,-1594.7125"/>
<text text-anchor="middle" x="672.7549" y="-1573.9125" font-family="Courier,monospace" font-size="11.00" fill="#000000">SearchResultGetTrait</text>
</g>
<!-- \\Firesphere\\SolrSearch\\Traits\\SearchResultSetTrait -->
<g id="node36" class="node">
<title>\\Firesphere\\SolrSearch\\Traits\\SearchResultSetTrait</title>
<polygon fill="none" stroke="#000000" points="748.7549,-1540.7125 596.7549,-1540.7125 596.7549,-1504.7125 748.7549,-1504.7125 748.7549,-1540.7125"/>
<text text-anchor="middle" x="672.7549" y="-1519.9125" font-family="Courier,monospace" font-size="11.00" fill="#000000">SearchResultSetTrait</text>
</g>
<!-- \\Firesphere\\SolrSearch\\Traits\\GetSetSchemaServiceTrait -->
<g id="node37" class="node">
<title>\\Firesphere\\SolrSearch\\Traits\\GetSetSchemaServiceTrait</title>
<polygon fill="none" stroke="#000000" points="762.2549,-1486.7125 583.2549,-1486.7125 583.2549,-1450.7125 762.2549,-1450.7125 762.2549,-1486.7125"/>
<text text-anchor="middle" x="672.7549" y="-1465.9125" font-family="Courier,monospace" font-size="11.00" fill="#000000">GetSetSchemaServiceTrait</text>
</g>
<!-- \\Firesphere\\SolrSearch\\Traits\\DataResolveTrait -->
<g id="node38" class="node">
<title>\\Firesphere\\SolrSearch\\Traits\\DataResolveTrait</title>
<polygon fill="none" stroke="#000000" points="735.2549,-1432.7125 610.2549,-1432.7125 610.2549,-1396.7125 735.2549,-1396.7125 735.2549,-1432.7125"/>
<text text-anchor="middle" x="672.7549" y="-1411.9125" font-family="Courier,monospace" font-size="11.00" fill="#000000">DataResolveTrait</text>
</g>
<!-- \\Firesphere\\SolrSearch\\Traits\\SolrIndexTrait -->
<g id="node39" class="node">
<title>\\Firesphere\\SolrSearch\\Traits\\SolrIndexTrait</title>
<polygon fill="none" stroke="#000000" points="728.2549,-1378.7125 617.2549,-1378.7125 617.2549,-1342.7125 728.2549,-1342.7125 728.2549,-1378.7125"/>
<text text-anchor="middle" x="672.7549" y="-1357.9125" font-family="Courier,monospace" font-size="11.00" fill="#000000">SolrIndexTrait</text>
</g>
<!-- \\Firesphere\\SolrSearch\\Traits\\BaseIndexTrait -->
<g id="node40" class="node">
<title>\\Firesphere\\SolrSearch\\Traits\\BaseIndexTrait</title>
<polygon fill="none" stroke="#000000" points="728.2549,-1324.7125 617.2549,-1324.7125 617.2549,-1288.7125 728.2549,-1288.7125 728.2549,-1324.7125"/>
<text text-anchor="middle" x="672.7549" y="-1303.9125" font-family="Courier,monospace" font-size="11.00" fill="#000000">BaseIndexTrait</text>
</g>
<!-- \\Firesphere\\SolrSearch\\Traits\\DocumentFactoryTrait -->
<g id="node41" class="node">
<title>\\Firesphere\\SolrSearch\\Traits\\DocumentFactoryTrait</title>
<polygon fill="none" stroke="#000000" points="748.7549,-1270.7125 596.7549,-1270.7125 596.7549,-1234.7125 748.7549,-1234.7125 748.7549,-1270.7125"/>
<text text-anchor="middle" x="672.7549" y="-1249.9125" font-family="Courier,monospace" font-size="11.00" fill="#000000">DocumentFactoryTrait</text>
</g>
<!-- \\Firesphere\\SolrSearch\\Traits\\BaseQueryTrait -->
<g id="node42" class="node">
<title>\\Firesphere\\SolrSearch\\Traits\\BaseQueryTrait</title>
<polygon fill="none" stroke="#000000" points="728.2549,-1216.7125 617.2549,-1216.7125 617.2549,-1180.7125 728.2549,-1180.7125 728.2549,-1216.7125"/>
<text text-anchor="middle" x="672.7549" y="-1195.9125" font-family="Courier,monospace" font-size="11.00" fill="#000000">BaseQueryTrait</text>
</g>
<!-- \\Firesphere\\SolrSearch\\Traits\\QueryComponentFilterTrait -->
<g id="node43" class="node">
<title>\\Firesphere\\SolrSearch\\Traits\\QueryComponentFilterTrait</title>
<polygon fill="none" stroke="#000000" points="765.2549,-1162.7125 580.2549,-1162.7125 580.2549,-1126.7125 765.2549,-1126.7125 765.2549,-1162.7125"/>
<text text-anchor="middle" x="672.7549" y="-1141.9125" font-family="Courier,monospace" font-size="11.00" fill="#000000">QueryComponentFilterTrait</text>
</g>
<!-- \\Firesphere\\SolrSearch\\Traits\\QueryComponentBoostTrait -->
<g id="node44" class="node">
<title>\\Firesphere\\SolrSearch\\Traits\\QueryComponentBoostTrait</title>
<polygon fill="none" stroke="#000000" points="762.2549,-1108.7125 583.2549,-1108.7125 583.2549,-1072.7125 762.2549,-1072.7125 762.2549,-1108.7125"/>
<text text-anchor="middle" x="672.7549" y="-1087.9125" font-family="Courier,monospace" font-size="11.00" fill="#000000">QueryComponentBoostTrait</text>
</g>
<!-- \\Firesphere\\SolrSearch\\Traits\\QueryComponentFacetTrait -->
<g id="node45" class="node">
<title>\\Firesphere\\SolrSearch\\Traits\\QueryComponentFacetTrait</title>
<polygon fill="none" stroke="#000000" points="762.2549,-1054.7125 583.2549,-1054.7125 583.2549,-1018.7125 762.2549,-1018.7125 762.2549,-1054.7125"/>
<text text-anchor="middle" x="672.7549" y="-1033.9125" font-family="Courier,monospace" font-size="11.00" fill="#000000">QueryComponentFacetTrait</text>
</g>
<!-- \\Firesphere\\SolrSearch\\Traits\\CoreServiceTrait -->
<g id="node46" class="node">
<title>\\Firesphere\\SolrSearch\\Traits\\CoreServiceTrait</title>
<polygon fill="none" stroke="#000000" points="735.2549,-1000.7125 610.2549,-1000.7125 610.2549,-964.7125 735.2549,-964.7125 735.2549,-1000.7125"/>
<text text-anchor="middle" x="672.7549" y="-979.9125" font-family="Courier,monospace" font-size="11.00" fill="#000000">CoreServiceTrait</text>
</g>
<!-- \\Firesphere\\SolrSearch\\Traits\\CoreAdminTrait -->
<g id="node47" class="node">
<title>\\Firesphere\\SolrSearch\\Traits\\CoreAdminTrait</title>
<polygon fill="none" stroke="#000000" points="728.2549,-946.7125 617.2549,-946.7125 617.2549,-910.7125 728.2549,-910.7125 728.2549,-946.7125"/>
<text text-anchor="middle" x="672.7549" y="-925.9125" font-family="Courier,monospace" font-size="11.00" fill="#000000">CoreAdminTrait</text>
</g>
<!-- \\Firesphere\\SolrSearch\\Traits\\GetterSetterTrait -->
<g id="node48" class="node">
<title>\\Firesphere\\SolrSearch\\Traits\\GetterSetterTrait</title>
<polygon fill="none" stroke="#000000" points="738.2549,-892.7125 607.2549,-892.7125 607.2549,-856.7125 738.2549,-856.7125 738.2549,-892.7125"/>
<text text-anchor="middle" x="672.7549" y="-871.9125" font-family="Courier,monospace" font-size="11.00" fill="#000000">GetterSetterTrait</text>
</g>
<!-- \\Firesphere\\SolrSearch\\Traits\\LoggerTrait -->
<g id="node49" class="node">
<title>\\Firesphere\\SolrSearch\\Traits\\LoggerTrait</title>
<polygon fill="none" stroke="#000000" points="718.2549,-838.7125 627.2549,-838.7125 627.2549,-802.7125 718.2549,-802.7125 718.2549,-838.7125"/>
<text text-anchor="middle" x="672.7549" y="-817.9125" font-family="Courier,monospace" font-size="11.00" fill="#000000">LoggerTrait</text>
</g>
<!-- \\Firesphere\\SolrSearch\\Traits\\GetSetSearchResolverTrait -->
<g id="node50" class="node">
<title>\\Firesphere\\SolrSearch\\Traits\\GetSetSearchResolverTrait</title>
<polygon fill="none" stroke="#000000" points="765.2549,-784.7125 580.2549,-784.7125 580.2549,-748.7125 765.2549,-748.7125 765.2549,-784.7125"/>
<text text-anchor="middle" x="672.7549" y="-763.9125" font-family="Courier,monospace" font-size="11.00" fill="#000000">GetSetSearchResolverTrait</text>
</g>
<!-- \\Firesphere\\SolrSearch\\States\\SiteState -->
<g id="node51" class="node">
<title>\\Firesphere\\SolrSearch\\States\\SiteState</title>
<polygon fill="none" stroke="#000000" points="714.7549,-704.7125 630.7549,-704.7125 630.7549,-668.7125 714.7549,-668.7125 714.7549,-704.7125"/>
<text text-anchor="start" x="638.7549" y="-689.9125" font-family="Courier,monospace" font-size="11.00" fill="#000000">«abstract»</text>
<text text-anchor="start" x="642.2549" y="-677.9125" font-family="Courier,monospace" font-size="11.00" fill="#000000">SiteState</text>
</g>
<!-- \\Firesphere\\SolrSearch\\Fluent\\FluentExtension -->
<g id="node52" class="node">
<title>\\Firesphere\\SolrSearch\\Fluent\\FluentExtension</title>
<polygon fill="none" stroke="#000000" points="731.7549,-624.7125 613.7549,-624.7125 613.7549,-588.7125 731.7549,-588.7125 731.7549,-624.7125"/>
<text text-anchor="middle" x="672.7549" y="-603.9125" font-family="Courier,monospace" font-size="11.00" fill="#000000">FluentExtension</text>
</g>
<!-- \\Firesphere\\SolrSearch\\Fluent\\FluentExtension&#45;&gt;\\SilverStripe\\Core\\Extension -->
<g id="edge22" class="edge">
<title>\\Firesphere\\SolrSearch\\Fluent\\FluentExtension&#45;&gt;\\SilverStripe\\Core\\Extension</title>
<path fill="none" stroke="#000000" d="M613.4926,-589.9558C599.8732,-585.8468 585.5026,-581.3035 572.2549,-576.7125 476.352,-543.4772 366.7546,-498.4791 304.4624,-472.2243"/>
<polygon fill="none" stroke="#000000" points="305.4542,-468.8438 294.8804,-468.1761 302.73,-475.292 305.4542,-468.8438"/>
</g>
<!-- \\Firesphere\\SolrSearch\\Subsites\\SubsitesExtension -->
<g id="node53" class="node">
<title>\\Firesphere\\SolrSearch\\Subsites\\SubsitesExtension</title>
<polygon fill="none" stroke="#000000" points="738.2549,-544.7125 607.2549,-544.7125 607.2549,-508.7125 738.2549,-508.7125 738.2549,-544.7125"/>
<text text-anchor="middle" x="672.7549" y="-523.9125" font-family="Courier,monospace" font-size="11.00" fill="#000000">SubsitesExtension</text>
</g>
<!-- \\Firesphere\\SolrSearch\\Subsites\\SubsitesExtension&#45;&gt;\\SilverStripe\\ORM\\DataExtension -->
<g id="edge23" class="edge">
<title>\\Firesphere\\SolrSearch\\Subsites\\SubsitesExtension&#45;&gt;\\SilverStripe\\ORM\\DataExtension</title>
<path fill="none" stroke="#000000" d="M660.3311,-508.6882C635.778,-474.7155 577.386,-401.7495 508.2549,-369.7125 484.3393,-358.6294 457.8374,-351.2363 431.2376,-346.4174"/>
<polygon fill="none" stroke="#000000" points="431.4869,-342.9099 421.0434,-344.6942 430.3202,-349.812 431.4869,-342.9099"/>
</g>
</g>
</svg>
