<?xml version="1.0" encoding="UTF-8" standalone="no"?>
<!DOCTYPE svg PUBLIC "-//W3C//DTD SVG 1.1//EN"
 "http://www.w3.org/Graphics/SVG/1.1/DTD/svg11.dtd">
<!-- Generated by graphviz version 2.40.1 (20161225.0304)
 -->
<!-- Title: G Pages: 1 -->
<svg width="984pt" height="3544pt"
 viewBox="0.00 0.00 984.25 3544.23" xmlns="http://www.w3.org/2000/svg" xmlns:xlink="http://www.w3.org/1999/xlink">
<g id="graph0" class="graph" transform="scale(1 1) rotate(0) translate(4 3540.2281)">
<title>G</title>
<polygon fill="#ffffff" stroke="transparent" points="-4,4 -4,-3540.2281 980.2549,-3540.2281 980.2549,4 -4,4"/>
<g id="clust1" class="cluster">
<title>cluster_Global</title>
<path fill="none" stroke="#c0c0c0" d="M165.1275,-476.2281C165.1275,-476.2281 956.2549,-476.2281 956.2549,-476.2281 962.2549,-476.2281 968.2549,-482.2281 968.2549,-488.2281 968.2549,-488.2281 968.2549,-3516.2281 968.2549,-3516.2281 968.2549,-3522.2281 962.2549,-3528.2281 956.2549,-3528.2281 956.2549,-3528.2281 165.1275,-3528.2281 165.1275,-3528.2281 159.1275,-3528.2281 153.1275,-3522.2281 153.1275,-3516.2281 153.1275,-3516.2281 153.1275,-488.2281 153.1275,-488.2281 153.1275,-482.2281 159.1275,-476.2281 165.1275,-476.2281"/>
<text text-anchor="middle" x="560.6912" y="-3515.4281" font-family="Times,serif" font-size="11.00" fill="#c0c0c0">Global</text>
</g>
<g id="clust2" class="cluster">
<title>cluster_\SilverStripe</title>
<path fill="none" stroke="#c0c0c0" d="M817.2549,-1594.2281C817.2549,-1594.2281 948.2549,-1594.2281 948.2549,-1594.2281 954.2549,-1594.2281 960.2549,-1600.2281 960.2549,-1606.2281 960.2549,-1606.2281 960.2549,-1896.2281 960.2549,-1896.2281 960.2549,-1902.2281 954.2549,-1908.2281 948.2549,-1908.2281 948.2549,-1908.2281 817.2549,-1908.2281 817.2549,-1908.2281 811.2549,-1908.2281 805.2549,-1902.2281 805.2549,-1896.2281 805.2549,-1896.2281 805.2549,-1606.2281 805.2549,-1606.2281 805.2549,-1600.2281 811.2549,-1594.2281 817.2549,-1594.2281"/>
<text text-anchor="middle" x="882.7549" y="-1895.4281" font-family="Times,serif" font-size="11.00" fill="#c0c0c0">SilverStripe</text>
</g>
<g id="clust3" class="cluster">
<title>cluster_\SilverStripe\FullTextSearch</title>
<path fill="none" stroke="#c0c0c0" d="M825.2549,-1602.2281C825.2549,-1602.2281 940.2549,-1602.2281 940.2549,-1602.2281 946.2549,-1602.2281 952.2549,-1608.2281 952.2549,-1614.2281 952.2549,-1614.2281 952.2549,-1868.2281 952.2549,-1868.2281 952.2549,-1874.2281 946.2549,-1880.2281 940.2549,-1880.2281 940.2549,-1880.2281 825.2549,-1880.2281 825.2549,-1880.2281 819.2549,-1880.2281 813.2549,-1874.2281 813.2549,-1868.2281 813.2549,-1868.2281 813.2549,-1614.2281 813.2549,-1614.2281 813.2549,-1608.2281 819.2549,-1602.2281 825.2549,-1602.2281"/>
<text text-anchor="middle" x="882.7549" y="-1867.4281" font-family="Times,serif" font-size="11.00" fill="#c0c0c0">FullTextSearch</text>
</g>
<g id="clust4" class="cluster">
<title>cluster_\SilverStripe\FullTextSearch\Search</title>
<path fill="none" stroke="#c0c0c0" d="M833.2549,-1744.2281C833.2549,-1744.2281 932.2549,-1744.2281 932.2549,-1744.2281 938.2549,-1744.2281 944.2549,-1750.2281 944.2549,-1756.2281 944.2549,-1756.2281 944.2549,-1840.2281 944.2549,-1840.2281 944.2549,-1846.2281 938.2549,-1852.2281 932.2549,-1852.2281 932.2549,-1852.2281 833.2549,-1852.2281 833.2549,-1852.2281 827.2549,-1852.2281 821.2549,-1846.2281 821.2549,-1840.2281 821.2549,-1840.2281 821.2549,-1756.2281 821.2549,-1756.2281 821.2549,-1750.2281 827.2549,-1744.2281 833.2549,-1744.2281"/>
<text text-anchor="middle" x="882.7549" y="-1839.4281" font-family="Times,serif" font-size="11.00" fill="#c0c0c0">Search</text>
</g>
<g id="clust5" class="cluster">
<title>cluster_\SilverStripe\FullTextSearch\Search\Queries</title>
<path fill="none" stroke="#c0c0c0" d="M841.2549,-1752.2281C841.2549,-1752.2281 924.2549,-1752.2281 924.2549,-1752.2281 930.2549,-1752.2281 936.2549,-1758.2281 936.2549,-1764.2281 936.2549,-1764.2281 936.2549,-1812.2281 936.2549,-1812.2281 936.2549,-1818.2281 930.2549,-1824.2281 924.2549,-1824.2281 924.2549,-1824.2281 841.2549,-1824.2281 841.2549,-1824.2281 835.2549,-1824.2281 829.2549,-1818.2281 829.2549,-1812.2281 829.2549,-1812.2281 829.2549,-1764.2281 829.2549,-1764.2281 829.2549,-1758.2281 835.2549,-1752.2281 841.2549,-1752.2281"/>
<text text-anchor="middle" x="882.7549" y="-1811.4281" font-family="Times,serif" font-size="11.00" fill="#c0c0c0">Queries</text>
</g>
<g id="clust6" class="cluster">
<title>cluster_\SilverStripe\FullTextSearch\Solr</title>
<path fill="none" stroke="#c0c0c0" d="M844.7549,-1610.2281C844.7549,-1610.2281 920.7549,-1610.2281 920.7549,-1610.2281 926.7549,-1610.2281 932.7549,-1616.2281 932.7549,-1622.2281 932.7549,-1622.2281 932.7549,-1724.2281 932.7549,-1724.2281 932.7549,-1730.2281 926.7549,-1736.2281 920.7549,-1736.2281 920.7549,-1736.2281 844.7549,-1736.2281 844.7549,-1736.2281 838.7549,-1736.2281 832.7549,-1730.2281 832.7549,-1724.2281 832.7549,-1724.2281 832.7549,-1622.2281 832.7549,-1622.2281 832.7549,-1616.2281 838.7549,-1610.2281 844.7549,-1610.2281"/>
<text text-anchor="middle" x="882.7549" y="-1723.4281" font-family="Times,serif" font-size="11.00" fill="#c0c0c0">Solr</text>
</g>
<g id="clust7" class="cluster">
<title>cluster_\Firesphere</title>
<path fill="none" stroke="#c0c0c0" d="M173.1275,-484.2281C173.1275,-484.2281 777.2549,-484.2281 777.2549,-484.2281 783.2549,-484.2281 789.2549,-490.2281 789.2549,-496.2281 789.2549,-496.2281 789.2549,-3488.2281 789.2549,-3488.2281 789.2549,-3494.2281 783.2549,-3500.2281 777.2549,-3500.2281 777.2549,-3500.2281 173.1275,-3500.2281 173.1275,-3500.2281 167.1275,-3500.2281 161.1275,-3494.2281 161.1275,-3488.2281 161.1275,-3488.2281 161.1275,-496.2281 161.1275,-496.2281 161.1275,-490.2281 167.1275,-484.2281 173.1275,-484.2281"/>
<text text-anchor="middle" x="475.1912" y="-3487.4281" font-family="Times,serif" font-size="11.00" fill="#c0c0c0">Firesphere</text>
</g>
<g id="clust8" class="cluster">
<title>cluster_\Firesphere\SolrSearch</title>
<path fill="none" stroke="#c0c0c0" d="M181.1275,-492.2281C181.1275,-492.2281 769.2549,-492.2281 769.2549,-492.2281 775.2549,-492.2281 781.2549,-498.2281 781.2549,-504.2281 781.2549,-504.2281 781.2549,-3460.2281 781.2549,-3460.2281 781.2549,-3466.2281 775.2549,-3472.2281 769.2549,-3472.2281 769.2549,-3472.2281 181.1275,-3472.2281 181.1275,-3472.2281 175.1275,-3472.2281 169.1275,-3466.2281 169.1275,-3460.2281 169.1275,-3460.2281 169.1275,-504.2281 169.1275,-504.2281 169.1275,-498.2281 175.1275,-492.2281 181.1275,-492.2281"/>
<text text-anchor="middle" x="475.1912" y="-3459.4281" font-family="Times,serif" font-size="11.00" fill="#c0c0c0">SolrSearch</text>
</g>
<g id="clust9" class="cluster">
<title>cluster_\Firesphere\SolrSearch\Compat</title>
<path fill="none" stroke="#c0c0c0" d="M590.7549,-3372.2281C590.7549,-3372.2281 754.7549,-3372.2281 754.7549,-3372.2281 760.7549,-3372.2281 766.7549,-3378.2281 766.7549,-3384.2281 766.7549,-3384.2281 766.7549,-3432.2281 766.7549,-3432.2281 766.7549,-3438.2281 760.7549,-3444.2281 754.7549,-3444.2281 754.7549,-3444.2281 590.7549,-3444.2281 590.7549,-3444.2281 584.7549,-3444.2281 578.7549,-3438.2281 578.7549,-3432.2281 578.7549,-3432.2281 578.7549,-3384.2281 578.7549,-3384.2281 578.7549,-3378.2281 584.7549,-3372.2281 590.7549,-3372.2281"/>
<text text-anchor="middle" x="672.7549" y="-3431.4281" font-family="Times,serif" font-size="11.00" fill="#c0c0c0">Compat</text>
</g>
<g id="clust10" class="cluster">
<title>cluster_\Firesphere\SolrSearch\Factories</title>
<path fill="none" stroke="#c0c0c0" d="M597.7549,-3238.2281C597.7549,-3238.2281 747.7549,-3238.2281 747.7549,-3238.2281 753.7549,-3238.2281 759.7549,-3244.2281 759.7549,-3250.2281 759.7549,-3250.2281 759.7549,-3352.2281 759.7549,-3352.2281 759.7549,-3358.2281 753.7549,-3364.2281 747.7549,-3364.2281 747.7549,-3364.2281 597.7549,-3364.2281 597.7549,-3364.2281 591.7549,-3364.2281 585.7549,-3358.2281 585.7549,-3352.2281 585.7549,-3352.2281 585.7549,-3250.2281 585.7549,-3250.2281 585.7549,-3244.2281 591.7549,-3238.2281 597.7549,-3238.2281"/>
<text text-anchor="middle" x="672.7549" y="-3351.4281" font-family="Times,serif" font-size="11.00" fill="#c0c0c0">Factories</text>
</g>
<g id="clust11" class="cluster">
<title>cluster_\Firesphere\SolrSearch\Helpers</title>
<path fill="none" stroke="#c0c0c0" d="M624.7549,-2942.2281C624.7549,-2942.2281 720.7549,-2942.2281 720.7549,-2942.2281 726.7549,-2942.2281 732.7549,-2948.2281 732.7549,-2954.2281 732.7549,-2954.2281 732.7549,-3218.2281 732.7549,-3218.2281 732.7549,-3224.2281 726.7549,-3230.2281 720.7549,-3230.2281 720.7549,-3230.2281 624.7549,-3230.2281 624.7549,-3230.2281 618.7549,-3230.2281 612.7549,-3224.2281 612.7549,-3218.2281 612.7549,-3218.2281 612.7549,-2954.2281 612.7549,-2954.2281 612.7549,-2948.2281 618.7549,-2942.2281 624.7549,-2942.2281"/>
<text text-anchor="middle" x="672.7549" y="-3217.4281" font-family="Times,serif" font-size="11.00" fill="#c0c0c0">Helpers</text>
</g>
<g id="clust12" class="cluster">
<title>cluster_\Firesphere\SolrSearch\Forms</title>
<path fill="none" stroke="#c0c0c0" d="M634.7549,-2862.2281C634.7549,-2862.2281 710.7549,-2862.2281 710.7549,-2862.2281 716.7549,-2862.2281 722.7549,-2868.2281 722.7549,-2874.2281 722.7549,-2874.2281 722.7549,-2922.2281 722.7549,-2922.2281 722.7549,-2928.2281 716.7549,-2934.2281 710.7549,-2934.2281 710.7549,-2934.2281 634.7549,-2934.2281 634.7549,-2934.2281 628.7549,-2934.2281 622.7549,-2928.2281 622.7549,-2922.2281 622.7549,-2922.2281 622.7549,-2874.2281 622.7549,-2874.2281 622.7549,-2868.2281 628.7549,-2862.2281 634.7549,-2862.2281"/>
<text text-anchor="middle" x="672.7549" y="-2921.4281" font-family="Times,serif" font-size="11.00" fill="#c0c0c0">Forms</text>
</g>
<g id="clust13" class="cluster">
<title>cluster_\Firesphere\SolrSearch\Results</title>
<path fill="none" stroke="#c0c0c0" d="M627.7549,-2782.2281C627.7549,-2782.2281 717.7549,-2782.2281 717.7549,-2782.2281 723.7549,-2782.2281 729.7549,-2788.2281 729.7549,-2794.2281 729.7549,-2794.2281 729.7549,-2842.2281 729.7549,-2842.2281 729.7549,-2848.2281 723.7549,-2854.2281 717.7549,-2854.2281 717.7549,-2854.2281 627.7549,-2854.2281 627.7549,-2854.2281 621.7549,-2854.2281 615.7549,-2848.2281 615.7549,-2842.2281 615.7549,-2842.2281 615.7549,-2794.2281 615.7549,-2794.2281 615.7549,-2788.2281 621.7549,-2782.2281 627.7549,-2782.2281"/>
<text text-anchor="middle" x="672.7549" y="-2841.4281" font-family="Times,serif" font-size="11.00" fill="#c0c0c0">Results</text>
</g>
<g id="clust14" class="cluster">
<title>cluster_\Firesphere\SolrSearch\Queries</title>
<path fill="none" stroke="#c0c0c0" d="M638.2549,-2702.2281C638.2549,-2702.2281 707.2549,-2702.2281 707.2549,-2702.2281 713.2549,-2702.2281 719.2549,-2708.2281 719.2549,-2714.2281 719.2549,-2714.2281 719.2549,-2762.2281 719.2549,-2762.2281 719.2549,-2768.2281 713.2549,-2774.2281 707.2549,-2774.2281 707.2549,-2774.2281 638.2549,-2774.2281 638.2549,-2774.2281 632.2549,-2774.2281 626.2549,-2768.2281 626.2549,-2762.2281 626.2549,-2762.2281 626.2549,-2714.2281 626.2549,-2714.2281 626.2549,-2708.2281 632.2549,-2702.2281 638.2549,-2702.2281"/>
<text text-anchor="middle" x="672.7549" y="-2761.4281" font-family="Times,serif" font-size="11.00" fill="#c0c0c0">Queries</text>
</g>
<g id="clust15" class="cluster">
<title>cluster_\Firesphere\SolrSearch\Models</title>
<path fill="none" stroke="#c0c0c0" d="M624.7549,-2380.2281C624.7549,-2380.2281 720.7549,-2380.2281 720.7549,-2380.2281 726.7549,-2380.2281 732.7549,-2386.2281 732.7549,-2392.2281 732.7549,-2392.2281 732.7549,-2548.2281 732.7549,-2548.2281 732.7549,-2554.2281 726.7549,-2560.2281 720.7549,-2560.2281 720.7549,-2560.2281 624.7549,-2560.2281 624.7549,-2560.2281 618.7549,-2560.2281 612.7549,-2554.2281 612.7549,-2548.2281 612.7549,-2548.2281 612.7549,-2392.2281 612.7549,-2392.2281 612.7549,-2386.2281 618.7549,-2380.2281 624.7549,-2380.2281"/>
<text text-anchor="middle" x="672.7549" y="-2547.4281" font-family="Times,serif" font-size="11.00" fill="#c0c0c0">Models</text>
</g>
<g id="clust16" class="cluster">
<title>cluster_\Firesphere\SolrSearch\Stores</title>
<path fill="none" stroke="#c0c0c0" d="M617.7549,-2568.2281C617.7549,-2568.2281 727.7549,-2568.2281 727.7549,-2568.2281 733.7549,-2568.2281 739.7549,-2574.2281 739.7549,-2580.2281 739.7549,-2580.2281 739.7549,-2682.2281 739.7549,-2682.2281 739.7549,-2688.2281 733.7549,-2694.2281 727.7549,-2694.2281 727.7549,-2694.2281 617.7549,-2694.2281 617.7549,-2694.2281 611.7549,-2694.2281 605.7549,-2688.2281 605.7549,-2682.2281 605.7549,-2682.2281 605.7549,-2580.2281 605.7549,-2580.2281 605.7549,-2574.2281 611.7549,-2568.2281 617.7549,-2568.2281"/>
<text text-anchor="middle" x="672.7549" y="-2681.4281" font-family="Times,serif" font-size="11.00" fill="#c0c0c0">Stores</text>
</g>
<g id="clust17" class="cluster">
<title>cluster_\Firesphere\SolrSearch\Admins</title>
<path fill="none" stroke="#c0c0c0" d="M631.2549,-2300.2281C631.2549,-2300.2281 714.2549,-2300.2281 714.2549,-2300.2281 720.2549,-2300.2281 726.2549,-2306.2281 726.2549,-2312.2281 726.2549,-2312.2281 726.2549,-2360.2281 726.2549,-2360.2281 726.2549,-2366.2281 720.2549,-2372.2281 714.2549,-2372.2281 714.2549,-2372.2281 631.2549,-2372.2281 631.2549,-2372.2281 625.2549,-2372.2281 619.2549,-2366.2281 619.2549,-2360.2281 619.2549,-2360.2281 619.2549,-2312.2281 619.2549,-2312.2281 619.2549,-2306.2281 625.2549,-2300.2281 631.2549,-2300.2281"/>
<text text-anchor="middle" x="672.7549" y="-2359.4281" font-family="Times,serif" font-size="11.00" fill="#c0c0c0">Admins</text>
</g>
<g id="clust18" class="cluster">
<title>cluster_\Firesphere\SolrSearch\Tasks</title>
<path fill="none" stroke="#c0c0c0" d="M597.7549,-2112.2281C597.7549,-2112.2281 747.7549,-2112.2281 747.7549,-2112.2281 753.7549,-2112.2281 759.7549,-2118.2281 759.7549,-2124.2281 759.7549,-2124.2281 759.7549,-2280.2281 759.7549,-2280.2281 759.7549,-2286.2281 753.7549,-2292.2281 747.7549,-2292.2281 747.7549,-2292.2281 597.7549,-2292.2281 597.7549,-2292.2281 591.7549,-2292.2281 585.7549,-2286.2281 585.7549,-2280.2281 585.7549,-2280.2281 585.7549,-2124.2281 585.7549,-2124.2281 585.7549,-2118.2281 591.7549,-2112.2281 597.7549,-2112.2281"/>
<text text-anchor="middle" x="672.7549" y="-2279.4281" font-family="Times,serif" font-size="11.00" fill="#c0c0c0">Tasks</text>
</g>
<g id="clust19" class="cluster">
<title>cluster_\Firesphere\SolrSearch\Services</title>
<path fill="none" stroke="#c0c0c0" d="M617.7549,-1978.2281C617.7549,-1978.2281 727.7549,-1978.2281 727.7549,-1978.2281 733.7549,-1978.2281 739.7549,-1984.2281 739.7549,-1990.2281 739.7549,-1990.2281 739.7549,-2092.2281 739.7549,-2092.2281 739.7549,-2098.2281 733.7549,-2104.2281 727.7549,-2104.2281 727.7549,-2104.2281 617.7549,-2104.2281 617.7549,-2104.2281 611.7549,-2104.2281 605.7549,-2098.2281 605.7549,-2092.2281 605.7549,-2092.2281 605.7549,-1990.2281 605.7549,-1990.2281 605.7549,-1984.2281 611.7549,-1978.2281 617.7549,-1978.2281"/>
<text text-anchor="middle" x="672.7549" y="-2091.4281" font-family="Times,serif" font-size="11.00" fill="#c0c0c0">Services</text>
</g>
<g id="clust20" class="cluster">
<title>cluster_\Firesphere\SolrSearch\States</title>
<path fill="none" stroke="#c0c0c0" d="M634.7549,-1898.2281C634.7549,-1898.2281 710.7549,-1898.2281 710.7549,-1898.2281 716.7549,-1898.2281 722.7549,-1904.2281 722.7549,-1910.2281 722.7549,-1910.2281 722.7549,-1958.2281 722.7549,-1958.2281 722.7549,-1964.2281 716.7549,-1970.2281 710.7549,-1970.2281 710.7549,-1970.2281 634.7549,-1970.2281 634.7549,-1970.2281 628.7549,-1970.2281 622.7549,-1964.2281 622.7549,-1958.2281 622.7549,-1958.2281 622.7549,-1910.2281 622.7549,-1910.2281 622.7549,-1904.2281 628.7549,-1898.2281 634.7549,-1898.2281"/>
<text text-anchor="middle" x="672.7549" y="-1957.4281" font-family="Times,serif" font-size="11.00" fill="#c0c0c0">States</text>
</g>
<g id="clust21" class="cluster">
<title>cluster_\Firesphere\SolrSearch\Interfaces</title>
<path fill="none" stroke="#c0c0c0" d="M189.1275,-2541.2281C189.1275,-2541.2281 319.1275,-2541.2281 319.1275,-2541.2281 325.1275,-2541.2281 331.1275,-2547.2281 331.1275,-2553.2281 331.1275,-2553.2281 331.1275,-2655.2281 331.1275,-2655.2281 331.1275,-2661.2281 325.1275,-2667.2281 319.1275,-2667.2281 319.1275,-2667.2281 189.1275,-2667.2281 189.1275,-2667.2281 183.1275,-2667.2281 177.1275,-2661.2281 177.1275,-2655.2281 177.1275,-2655.2281 177.1275,-2553.2281 177.1275,-2553.2281 177.1275,-2547.2281 183.1275,-2541.2281 189.1275,-2541.2281"/>
<text text-anchor="middle" x="254.1275" y="-2654.4281" font-family="Times,serif" font-size="11.00" fill="#c0c0c0">Interfaces</text>
</g>
<g id="clust22" class="cluster">
<title>cluster_\Firesphere\SolrSearch\Traits</title>
<path fill="none" stroke="#c0c0c0" d="M584.2549,-1062.2281C584.2549,-1062.2281 761.2549,-1062.2281 761.2549,-1062.2281 767.2549,-1062.2281 773.2549,-1068.2281 773.2549,-1074.2281 773.2549,-1074.2281 773.2549,-1878.2281 773.2549,-1878.2281 773.2549,-1884.2281 767.2549,-1890.2281 761.2549,-1890.2281 761.2549,-1890.2281 584.2549,-1890.2281 584.2549,-1890.2281 578.2549,-1890.2281 572.2549,-1884.2281 572.2549,-1878.2281 572.2549,-1878.2281 572.2549,-1074.2281 572.2549,-1074.2281 572.2549,-1068.2281 578.2549,-1062.2281 584.2549,-1062.2281"/>
<text text-anchor="middle" x="672.7549" y="-1877.4281" font-family="Times,serif" font-size="11.00" fill="#c0c0c0">Traits</text>
</g>
<g id="clust23" class="cluster">
<title>cluster_\Firesphere\SolrSearch\Extensions</title>
<path fill="none" stroke="#c0c0c0" d="M604.2549,-928.2281C604.2549,-928.2281 741.2549,-928.2281 741.2549,-928.2281 747.2549,-928.2281 753.2549,-934.2281 753.2549,-940.2281 753.2549,-940.2281 753.2549,-1042.2281 753.2549,-1042.2281 753.2549,-1048.2281 747.2549,-1054.2281 741.2549,-1054.2281 741.2549,-1054.2281 604.2549,-1054.2281 604.2549,-1054.2281 598.2549,-1054.2281 592.2549,-1048.2281 592.2549,-1042.2281 592.2549,-1042.2281 592.2549,-940.2281 592.2549,-940.2281 592.2549,-934.2281 598.2549,-928.2281 604.2549,-928.2281"/>
<text text-anchor="middle" x="672.7549" y="-1041.4281" font-family="Times,serif" font-size="11.00" fill="#c0c0c0">Extensions</text>
</g>
<g id="clust24" class="cluster">
<title>cluster_\Firesphere\SolrSearch\Jobs</title>
<path fill="none" stroke="#c0c0c0" d="M600.7549,-740.2281C600.7549,-740.2281 744.7549,-740.2281 744.7549,-740.2281 750.7549,-740.2281 756.7549,-746.2281 756.7549,-752.2281 756.7549,-752.2281 756.7549,-908.2281 756.7549,-908.2281 756.7549,-914.2281 750.7549,-920.2281 744.7549,-920.2281 744.7549,-920.2281 600.7549,-920.2281 600.7549,-920.2281 594.7549,-920.2281 588.7549,-914.2281 588.7549,-908.2281 588.7549,-908.2281 588.7549,-752.2281 588.7549,-752.2281 588.7549,-746.2281 594.7549,-740.2281 600.7549,-740.2281"/>
<text text-anchor="middle" x="672.7549" y="-907.4281" font-family="Times,serif" font-size="11.00" fill="#c0c0c0">Jobs</text>
</g>
<g id="clust25" class="cluster">
<title>cluster_\Firesphere\SolrSearch\Indexes</title>
<path fill="none" stroke="#c0c0c0" d="M634.7549,-660.2281C634.7549,-660.2281 710.7549,-660.2281 710.7549,-660.2281 716.7549,-660.2281 722.7549,-666.2281 722.7549,-672.2281 722.7549,-672.2281 722.7549,-720.2281 722.7549,-720.2281 722.7549,-726.2281 716.7549,-732.2281 710.7549,-732.2281 710.7549,-732.2281 634.7549,-732.2281 634.7549,-732.2281 628.7549,-732.2281 622.7549,-726.2281 622.7549,-720.2281 622.7549,-720.2281 622.7549,-672.2281 622.7549,-672.2281 622.7549,-666.2281 628.7549,-660.2281 634.7549,-660.2281"/>
<text text-anchor="middle" x="672.7549" y="-719.4281" font-family="Times,serif" font-size="11.00" fill="#c0c0c0">Indexes</text>
</g>
<g id="clust26" class="cluster">
<title>cluster_\Firesphere\SolrSearch\Fluent</title>
<path fill="none" stroke="#c0c0c0" d="M617.7549,-580.2281C617.7549,-580.2281 727.7549,-580.2281 727.7549,-580.2281 733.7549,-580.2281 739.7549,-586.2281 739.7549,-592.2281 739.7549,-592.2281 739.7549,-640.2281 739.7549,-640.2281 739.7549,-646.2281 733.7549,-652.2281 727.7549,-652.2281 727.7549,-652.2281 617.7549,-652.2281 617.7549,-652.2281 611.7549,-652.2281 605.7549,-646.2281 605.7549,-640.2281 605.7549,-640.2281 605.7549,-592.2281 605.7549,-592.2281 605.7549,-586.2281 611.7549,-580.2281 617.7549,-580.2281"/>
<text text-anchor="middle" x="672.7549" y="-639.4281" font-family="Times,serif" font-size="11.00" fill="#c0c0c0">Fluent</text>
</g>
<g id="clust27" class="cluster">
<title>cluster_\Firesphere\SolrSearch\Subsites</title>
<path fill="none" stroke="#c0c0c0" d="M611.2549,-500.2281C611.2549,-500.2281 734.2549,-500.2281 734.2549,-500.2281 740.2549,-500.2281 746.2549,-506.2281 746.2549,-512.2281 746.2549,-512.2281 746.2549,-560.2281 746.2549,-560.2281 746.2549,-566.2281 740.2549,-572.2281 734.2549,-572.2281 734.2549,-572.2281 611.2549,-572.2281 611.2549,-572.2281 605.2549,-572.2281 599.2549,-566.2281 599.2549,-560.2281 599.2549,-560.2281 599.2549,-512.2281 599.2549,-512.2281 599.2549,-506.2281 605.2549,-500.2281 611.2549,-500.2281"/>
<text text-anchor="middle" x="672.7549" y="-559.4281" font-family="Times,serif" font-size="11.00" fill="#c0c0c0">Subsites</text>
</g>
<!-- \\SilverStripe\\FullTextSearch\\Search\\Queries\\SearchQuery -->
<g id="node1" class="node">
<title>\\SilverStripe\\FullTextSearch\\Search\\Queries\\SearchQuery</title>
<polygon fill="none" stroke="#000000" points="928.2549,-1796.2281 837.2549,-1796.2281 837.2549,-1760.2281 928.2549,-1760.2281 928.2549,-1796.2281"/>
<text text-anchor="middle" x="882.7549" y="-1775.4281" font-family="Courier,monospace" font-size="11.00" fill="#000000">SearchQuery</text>
</g>
<!-- \\Firesphere\\SolrSearch\\Queries\\BaseQuery -->
<g id="node14" class="node">
<title>\\Firesphere\\SolrSearch\\Queries\\BaseQuery</title>
<polygon fill="none" stroke="#000000" points="711.2549,-2746.2281 634.2549,-2746.2281 634.2549,-2710.2281 711.2549,-2710.2281 711.2549,-2746.2281"/>
<text text-anchor="middle" x="672.7549" y="-2725.4281" font-family="Courier,monospace" font-size="11.00" fill="#000000">BaseQuery</text>
</g>
<!-- \\SilverStripe\\FullTextSearch\\Search\\Queries\\SearchQuery&#45;&gt;\\Firesphere\\SolrSearch\\Queries\\BaseQuery -->
<g id="edge1" class="edge">
<title>\\SilverStripe\\FullTextSearch\\Search\\Queries\\SearchQuery&#45;&gt;\\Firesphere\\SolrSearch\\Queries\\BaseQuery</title>
<path fill="none" stroke="#000000" d="M882.1447,-1796.2569C877.8388,-1918.8329 850.4105,-2627.0811 789.2549,-2698.2281 772.637,-2717.561 745.3805,-2725.2781 721.4085,-2728.0612"/>
<polygon fill="none" stroke="#000000" points="721.0193,-2724.582 711.3765,-2728.9713 721.6519,-2731.5534 721.0193,-2724.582"/>
</g>
<!-- \\SilverStripe\\FullTextSearch\\Solr\\Solr -->
<g id="node2" class="node">
<title>\\SilverStripe\\FullTextSearch\\Solr\\Solr</title>
<polygon fill="none" stroke="#000000" points="909.7549,-1708.2281 855.7549,-1708.2281 855.7549,-1672.2281 909.7549,-1672.2281 909.7549,-1708.2281"/>
<text text-anchor="middle" x="882.7549" y="-1687.4281" font-family="Courier,monospace" font-size="11.00" fill="#000000">Solr</text>
</g>
<!-- \\SilverStripe\\FullTextSearch\\Solr\\SolrIndex -->
<g id="node3" class="node">
<title>\\SilverStripe\\FullTextSearch\\Solr\\SolrIndex</title>
<polygon fill="none" stroke="#000000" points="924.7549,-1654.2281 840.7549,-1654.2281 840.7549,-1618.2281 924.7549,-1618.2281 924.7549,-1654.2281"/>
<text text-anchor="start" x="848.7549" y="-1639.4281" font-family="Courier,monospace" font-size="11.00" fill="#000000">«abstract»</text>
<text text-anchor="start" x="852.2549" y="-1627.4281" font-family="Courier,monospace" font-size="11.00" fill="#000000">SolrIndex</text>
</g>
<!-- \\Firesphere\\SolrSearch\\Indexes\\BaseIndex -->
<g id="node49" class="node">
<title>\\Firesphere\\SolrSearch\\Indexes\\BaseIndex</title>
<polygon fill="none" stroke="#000000" points="714.7549,-704.2281 630.7549,-704.2281 630.7549,-668.2281 714.7549,-668.2281 714.7549,-704.2281"/>
<text text-anchor="start" x="638.7549" y="-689.4281" font-family="Courier,monospace" font-size="11.00" fill="#000000">«abstract»</text>
<text text-anchor="start" x="642.2549" y="-677.4281" font-family="Courier,monospace" font-size="11.00" fill="#000000">BaseIndex</text>
</g>
<!-- \\SilverStripe\\FullTextSearch\\Solr\\SolrIndex&#45;&gt;\\Firesphere\\SolrSearch\\Indexes\\BaseIndex -->
<g id="edge3" class="edge">
<title>\\SilverStripe\\FullTextSearch\\Solr\\SolrIndex&#45;&gt;\\Firesphere\\SolrSearch\\Indexes\\BaseIndex</title>
<path fill="none" stroke="#000000" d="M881.9573,-1617.9164C876.5256,-1496.4876 843.5517,-810.0054 789.2549,-736.2281 773.9585,-715.4437 748.2355,-703.2095 724.8455,-696.0535"/>
<polygon fill="none" stroke="#000000" points="725.5753,-692.623 715.0013,-693.2874 723.6817,-699.3621 725.5753,-692.623"/>
</g>
<!-- \\Firesphere\\SolrSearch\\Compat\\FulltextSearchExtension -->
<g id="node4" class="node">
<title>\\Firesphere\\SolrSearch\\Compat\\FulltextSearchExtension</title>
<polygon fill="none" stroke="#000000" points="758.7549,-3416.2281 586.7549,-3416.2281 586.7549,-3380.2281 758.7549,-3380.2281 758.7549,-3416.2281"/>
<text text-anchor="middle" x="672.7549" y="-3395.4281" font-family="Courier,monospace" font-size="11.00" fill="#000000">FulltextSearchExtension</text>
</g>
<!-- \\SilverStripe\\Core\\Extension -->
<g id="node52" class="node">
<title>\\SilverStripe\\Core\\Extension</title>
<ellipse fill="none" stroke="#000000" cx="254.1275" cy="-126.2281" rx="144.0747" ry="18"/>
<text text-anchor="middle" x="254.1275" y="-122.5281" font-family="Times,serif" font-size="14.00" fill="#c0c0c0">\SilverStripe\Core\Extension</text>
</g>
<!-- \\Firesphere\\SolrSearch\\Compat\\FulltextSearchExtension&#45;&gt;\\SilverStripe\\Core\\Extension -->
<g id="edge2" class="edge">
<title>\\Firesphere\\SolrSearch\\Compat\\FulltextSearchExtension&#45;&gt;\\SilverStripe\\Core\\Extension</title>
<path fill="none" stroke="#000000" d="M586.4511,-3381.4002C581.0635,-3377.7885 576.2236,-3373.4453 572.2549,-3368.2281 464.0969,-3226.0437 629.0337,-284.8603 508.2549,-153.2281 466.3754,-107.5852 394.5889,-103.6969 337.9734,-109.5949"/>
<polygon fill="none" stroke="#000000" points="337.4802,-106.1285 327.9494,-110.7562 338.2858,-113.082 337.4802,-106.1285"/>
</g>
<!-- \\Firesphere\\SolrSearch\\Factories\\QueryComponentFactory -->
<g id="node5" class="node">
<title>\\Firesphere\\SolrSearch\\Factories\\QueryComponentFactory</title>
<polygon fill="none" stroke="#000000" points="751.7549,-3336.2281 593.7549,-3336.2281 593.7549,-3300.2281 751.7549,-3300.2281 751.7549,-3336.2281"/>
<text text-anchor="middle" x="672.7549" y="-3315.4281" font-family="Courier,monospace" font-size="11.00" fill="#000000">QueryComponentFactory</text>
</g>
<!-- \\Firesphere\\SolrSearch\\Factories\\DocumentFactory -->
<g id="node6" class="node">
<title>\\Firesphere\\SolrSearch\\Factories\\DocumentFactory</title>
<polygon fill="none" stroke="#000000" points="731.7549,-3282.2281 613.7549,-3282.2281 613.7549,-3246.2281 731.7549,-3246.2281 731.7549,-3282.2281"/>
<text text-anchor="middle" x="672.7549" y="-3261.4281" font-family="Courier,monospace" font-size="11.00" fill="#000000">DocumentFactory</text>
</g>
<!-- \\Firesphere\\SolrSearch\\Helpers\\Synonyms -->
<g id="node7" class="node">
<title>\\Firesphere\\SolrSearch\\Helpers\\Synonyms</title>
<polygon fill="none" stroke="#000000" points="708.2549,-3202.2281 637.2549,-3202.2281 637.2549,-3166.2281 708.2549,-3166.2281 708.2549,-3202.2281"/>
<text text-anchor="middle" x="672.7549" y="-3181.4281" font-family="Courier,monospace" font-size="11.00" fill="#000000">Synonyms</text>
</g>
<!-- \\Firesphere\\SolrSearch\\Helpers\\FieldResolver -->
<g id="node8" class="node">
<title>\\Firesphere\\SolrSearch\\Helpers\\FieldResolver</title>
<polygon fill="none" stroke="#000000" points="724.7549,-3148.2281 620.7549,-3148.2281 620.7549,-3112.2281 724.7549,-3112.2281 724.7549,-3148.2281"/>
<text text-anchor="middle" x="672.7549" y="-3127.4281" font-family="Courier,monospace" font-size="11.00" fill="#000000">FieldResolver</text>
</g>
<!-- \\Firesphere\\SolrSearch\\Helpers\\SolrLogger -->
<g id="node9" class="node">
<title>\\Firesphere\\SolrSearch\\Helpers\\SolrLogger</title>
<polygon fill="none" stroke="#000000" points="714.7549,-3094.2281 630.7549,-3094.2281 630.7549,-3058.2281 714.7549,-3058.2281 714.7549,-3094.2281"/>
<text text-anchor="middle" x="672.7549" y="-3073.4281" font-family="Courier,monospace" font-size="11.00" fill="#000000">SolrLogger</text>
</g>
<!-- \\Firesphere\\SolrSearch\\Helpers\\Statics -->
<g id="node10" class="node">
<title>\\Firesphere\\SolrSearch\\Helpers\\Statics</title>
<polygon fill="none" stroke="#000000" points="704.7549,-3040.2281 640.7549,-3040.2281 640.7549,-3004.2281 704.7549,-3004.2281 704.7549,-3040.2281"/>
<text text-anchor="middle" x="672.7549" y="-3019.4281" font-family="Courier,monospace" font-size="11.00" fill="#000000">Statics</text>
</g>
<!-- \\Firesphere\\SolrSearch\\Helpers\\DataResolver -->
<g id="node11" class="node">
<title>\\Firesphere\\SolrSearch\\Helpers\\DataResolver</title>
<polygon fill="none" stroke="#000000" points="721.7549,-2986.2281 623.7549,-2986.2281 623.7549,-2950.2281 721.7549,-2950.2281 721.7549,-2986.2281"/>
<text text-anchor="middle" x="672.7549" y="-2965.4281" font-family="Courier,monospace" font-size="11.00" fill="#000000">DataResolver</text>
</g>
<!-- \\Firesphere\\SolrSearch\\Forms\\SearchForm -->
<g id="node12" class="node">
<title>\\Firesphere\\SolrSearch\\Forms\\SearchForm</title>
<polygon fill="none" stroke="#000000" points="714.7549,-2906.2281 630.7549,-2906.2281 630.7549,-2870.2281 714.7549,-2870.2281 714.7549,-2906.2281"/>
<text text-anchor="middle" x="672.7549" y="-2885.4281" font-family="Courier,monospace" font-size="11.00" fill="#000000">SearchForm</text>
</g>
<!-- \\SilverStripe\\Forms\\Form -->
<g id="node53" class="node">
<title>\\SilverStripe\\Forms\\Form</title>
<ellipse fill="none" stroke="#000000" cx="254.1275" cy="-450.2281" rx="129.1772" ry="18"/>
<text text-anchor="middle" x="254.1275" y="-446.5281" font-family="Times,serif" font-size="14.00" fill="#c0c0c0">\SilverStripe\Forms\Form</text>
</g>
<!-- \\Firesphere\\SolrSearch\\Forms\\SearchForm&#45;&gt;\\SilverStripe\\Forms\\Form -->
<g id="edge4" class="edge">
<title>\\Firesphere\\SolrSearch\\Forms\\SearchForm&#45;&gt;\\SilverStripe\\Forms\\Form</title>
<path fill="none" stroke="#000000" d="M630.5673,-2886.0275C609.976,-2882.6754 586.6091,-2875.0629 572.2549,-2858.2281 531.3123,-2810.2101 288.6748,-745.6269 257.4383,-478.5799"/>
<polygon fill="none" stroke="#000000" points="260.8999,-478.0472 256.2623,-468.5213 253.9473,-478.8601 260.8999,-478.0472"/>
</g>
<!-- \\Firesphere\\SolrSearch\\Results\\SearchResult -->
<g id="node13" class="node">
<title>\\Firesphere\\SolrSearch\\Results\\SearchResult</title>
<polygon fill="none" stroke="#000000" points="721.7549,-2826.2281 623.7549,-2826.2281 623.7549,-2790.2281 721.7549,-2790.2281 721.7549,-2826.2281"/>
<text text-anchor="middle" x="672.7549" y="-2805.4281" font-family="Courier,monospace" font-size="11.00" fill="#000000">SearchResult</text>
</g>
<!-- \\Firesphere\\SolrSearch\\Models\\DirtyClass -->
<g id="node15" class="node">
<title>\\Firesphere\\SolrSearch\\Models\\DirtyClass</title>
<polygon fill="none" stroke="#000000" points="714.7549,-2478.2281 630.7549,-2478.2281 630.7549,-2442.2281 714.7549,-2442.2281 714.7549,-2478.2281"/>
<text text-anchor="middle" x="672.7549" y="-2457.4281" font-family="Courier,monospace" font-size="11.00" fill="#000000">DirtyClass</text>
</g>
<!-- \\SilverStripe\\ORM\\DataObject -->
<g id="node54" class="node">
<title>\\SilverStripe\\ORM\\DataObject</title>
<ellipse fill="none" stroke="#000000" cx="254.1275" cy="-396.2281" rx="152.9733" ry="18"/>
<text text-anchor="middle" x="254.1275" y="-392.5281" font-family="Times,serif" font-size="14.00" fill="#c0c0c0">\SilverStripe\ORM\DataObject</text>
</g>
<!-- \\Firesphere\\SolrSearch\\Models\\DirtyClass&#45;&gt;\\SilverStripe\\ORM\\DataObject -->
<g id="edge5" class="edge">
<title>\\Firesphere\\SolrSearch\\Models\\DirtyClass&#45;&gt;\\SilverStripe\\ORM\\DataObject</title>
<path fill="none" stroke="#000000" d="M630.7372,-2460.0406C609.7954,-2457.5583 586.0559,-2450.645 572.2549,-2433.2281 433.4831,-2258.0975 660.3011,-586.9666 508.2549,-423.2281 466.6736,-378.4492 396.2762,-374.0379 340.1054,-379.5195"/>
<polygon fill="none" stroke="#000000" points="339.7114,-376.0416 330.1508,-380.6072 340.4719,-383.0002 339.7114,-376.0416"/>
</g>
<!-- \\Firesphere\\SolrSearch\\Models\\SolrLog -->
<g id="node16" class="node">
<title>\\Firesphere\\SolrSearch\\Models\\SolrLog</title>
<polygon fill="none" stroke="#000000" points="704.7549,-2424.2281 640.7549,-2424.2281 640.7549,-2388.2281 704.7549,-2388.2281 704.7549,-2424.2281"/>
<text text-anchor="middle" x="672.7549" y="-2403.4281" font-family="Courier,monospace" font-size="11.00" fill="#000000">SolrLog</text>
</g>
<!-- \\Firesphere\\SolrSearch\\Models\\SolrLog&#45;&gt;\\SilverStripe\\ORM\\DataObject -->
<g id="edge6" class="edge">
<title>\\Firesphere\\SolrSearch\\Models\\SolrLog&#45;&gt;\\SilverStripe\\ORM\\DataObject</title>
<path fill="none" stroke="#000000" d="M640.5898,-2405.9068C617.648,-2403.7944 588.1522,-2396.8503 572.2549,-2376.2281 439.698,-2204.2739 656.0676,-582.2595 508.2549,-423.2281 466.724,-378.5451 396.498,-374.071 340.3807,-379.5038"/>
<polygon fill="none" stroke="#000000" points="339.9986,-376.0246 330.4345,-380.583 340.7537,-382.9838 339.9986,-376.0246"/>
</g>
<!-- \\SilverStripe\\Security\\PermissionProvider -->
<g id="node55" class="node">
<title>\\SilverStripe\\Security\\PermissionProvider</title>
<ellipse fill="none" stroke="#000000" cx="254.1275" cy="-342.2281" rx="206.0634" ry="18"/>
<text text-anchor="middle" x="254.1275" y="-338.5281" font-family="Times,serif" font-size="14.00" fill="#c0c0c0">\SilverStripe\Security\PermissionProvider</text>
</g>
<!-- \\Firesphere\\SolrSearch\\Models\\SolrLog&#45;&gt;\\SilverStripe\\Security\\PermissionProvider -->
<g id="edge7" class="edge">
<title>\\Firesphere\\SolrSearch\\Models\\SolrLog&#45;&gt;\\SilverStripe\\Security\\PermissionProvider</title>
<path fill="none" stroke="#000000" stroke-dasharray="1,5" d="M640.5844,-2405.9109C617.64,-2403.8006 588.1432,-2396.8573 572.2549,-2376.2281 436.1146,-2199.4645 660.0783,-532.7189 508.2549,-369.2281 468.535,-326.4557 402.5236,-320.515 347.7341,-324.8459"/>
<polygon fill="none" stroke="#000000" points="347.2833,-321.3724 337.6431,-325.7675 347.9201,-328.3434 347.2833,-321.3724"/>
</g>
<!-- \\Firesphere\\SolrSearch\\Models\\SearchSynonym -->
<g id="node17" class="node">
<title>\\Firesphere\\SolrSearch\\Models\\SearchSynonym</title>
<polygon fill="none" stroke="#000000" points="724.7549,-2532.2281 620.7549,-2532.2281 620.7549,-2496.2281 724.7549,-2496.2281 724.7549,-2532.2281"/>
<text text-anchor="middle" x="672.7549" y="-2511.4281" font-family="Courier,monospace" font-size="11.00" fill="#000000">SearchSynonym</text>
</g>
<!-- \\Firesphere\\SolrSearch\\Models\\SearchSynonym&#45;&gt;\\SilverStripe\\ORM\\DataObject -->
<g id="edge8" class="edge">
<title>\\Firesphere\\SolrSearch\\Models\\SearchSynonym&#45;&gt;\\SilverStripe\\ORM\\DataObject</title>
<path fill="none" stroke="#000000" d="M620.6104,-2512.5068C602.5108,-2509.108 583.8618,-2501.8886 572.2549,-2487.2281 429.8335,-2307.3379 664.3119,-591.4261 508.2549,-423.2281 466.6922,-378.4319 396.2935,-374.022 340.1173,-379.5084"/>
<polygon fill="none" stroke="#000000" points="339.722,-376.0307 330.1618,-380.5971 340.483,-382.9892 339.722,-376.0307"/>
</g>
<!-- \\Firesphere\\SolrSearch\\Stores\\FileConfigStore -->
<g id="node18" class="node">
<title>\\Firesphere\\SolrSearch\\Stores\\FileConfigStore</title>
<polygon fill="none" stroke="#000000" points="731.7549,-2666.2281 613.7549,-2666.2281 613.7549,-2630.2281 731.7549,-2630.2281 731.7549,-2666.2281"/>
<text text-anchor="middle" x="672.7549" y="-2645.4281" font-family="Courier,monospace" font-size="11.00" fill="#000000">FileConfigStore</text>
</g>
<!-- \\Firesphere\\SolrSearch\\Interfaces\\ConfigStore -->
<g id="node27" class="node">
<title>\\Firesphere\\SolrSearch\\Interfaces\\ConfigStore</title>
<polygon fill="none" stroke="#000000" points="299.6275,-2639.2281 208.6275,-2639.2281 208.6275,-2603.2281 299.6275,-2603.2281 299.6275,-2639.2281"/>
<text text-anchor="middle" x="254.1275" y="-2618.4281" font-family="Courier,monospace" font-size="11.00" fill="#000000">ConfigStore</text>
</g>
<!-- \\Firesphere\\SolrSearch\\Stores\\FileConfigStore&#45;&gt;\\Firesphere\\SolrSearch\\Interfaces\\ConfigStore -->
<g id="edge9" class="edge">
<title>\\Firesphere\\SolrSearch\\Stores\\FileConfigStore&#45;&gt;\\Firesphere\\SolrSearch\\Interfaces\\ConfigStore</title>
<path fill="none" stroke="#000000" stroke-dasharray="1,5" d="M613.6637,-2644.4169C532.8854,-2639.207 389.0185,-2629.9281 309.9722,-2624.8299"/>
<polygon fill="none" stroke="#000000" points="309.9333,-2621.3202 299.7287,-2624.1692 309.4827,-2628.3057 309.9333,-2621.3202"/>
</g>
<!-- \\Firesphere\\SolrSearch\\Stores\\PostConfigStore -->
<g id="node19" class="node">
<title>\\Firesphere\\SolrSearch\\Stores\\PostConfigStore</title>
<polygon fill="none" stroke="#000000" points="731.7549,-2612.2281 613.7549,-2612.2281 613.7549,-2576.2281 731.7549,-2576.2281 731.7549,-2612.2281"/>
<text text-anchor="middle" x="672.7549" y="-2591.4281" font-family="Courier,monospace" font-size="11.00" fill="#000000">PostConfigStore</text>
</g>
<!-- \\Firesphere\\SolrSearch\\Stores\\PostConfigStore&#45;&gt;\\Firesphere\\SolrSearch\\Interfaces\\ConfigStore -->
<g id="edge10" class="edge">
<title>\\Firesphere\\SolrSearch\\Stores\\PostConfigStore&#45;&gt;\\Firesphere\\SolrSearch\\Interfaces\\ConfigStore</title>
<path fill="none" stroke="#000000" stroke-dasharray="1,5" d="M613.6637,-2598.0393C532.8854,-2603.2492 389.0185,-2612.5281 309.9722,-2617.6263"/>
<polygon fill="none" stroke="#000000" points="309.4827,-2614.1505 299.7287,-2618.287 309.9333,-2621.136 309.4827,-2614.1505"/>
</g>
<!-- \\Firesphere\\SolrSearch\\Admins\\SearchAdmin -->
<g id="node20" class="node">
<title>\\Firesphere\\SolrSearch\\Admins\\SearchAdmin</title>
<polygon fill="none" stroke="#000000" points="718.2549,-2344.2281 627.2549,-2344.2281 627.2549,-2308.2281 718.2549,-2308.2281 718.2549,-2344.2281"/>
<text text-anchor="middle" x="672.7549" y="-2323.4281" font-family="Courier,monospace" font-size="11.00" fill="#000000">SearchAdmin</text>
</g>
<!-- \\SilverStripe\\Admin\\ModelAdmin -->
<g id="node56" class="node">
<title>\\SilverStripe\\Admin\\ModelAdmin</title>
<ellipse fill="none" stroke="#000000" cx="254.1275" cy="-288.2281" rx="165.1707" ry="18"/>
<text text-anchor="middle" x="254.1275" y="-284.5281" font-family="Times,serif" font-size="14.00" fill="#c0c0c0">\SilverStripe\Admin\ModelAdmin</text>
</g>
<!-- \\Firesphere\\SolrSearch\\Admins\\SearchAdmin&#45;&gt;\\SilverStripe\\Admin\\ModelAdmin -->
<g id="edge11" class="edge">
<title>\\Firesphere\\SolrSearch\\Admins\\SearchAdmin&#45;&gt;\\SilverStripe\\Admin\\ModelAdmin</title>
<path fill="none" stroke="#000000" d="M627.026,-2324.1367C606.9903,-2320.6878 585.1468,-2312.9596 572.2549,-2296.2281 437.84,-2121.7801 658.1472,-476.5717 508.2549,-315.2281 467.2467,-271.087 398.2365,-266.1787 342.4714,-271.301"/>
<polygon fill="none" stroke="#000000" points="341.807,-267.8511 332.2227,-272.367 342.5312,-274.8136 341.807,-267.8511"/>
</g>
<!-- \\Firesphere\\SolrSearch\\Tasks\\SolrConfigureTask -->
<g id="node21" class="node">
<title>\\Firesphere\\SolrSearch\\Tasks\\SolrConfigureTask</title>
<polygon fill="none" stroke="#000000" points="738.2549,-2156.2281 607.2549,-2156.2281 607.2549,-2120.2281 738.2549,-2120.2281 738.2549,-2156.2281"/>
<text text-anchor="middle" x="672.7549" y="-2135.4281" font-family="Courier,monospace" font-size="11.00" fill="#000000">SolrConfigureTask</text>
</g>
<!-- \\SilverStripe\\Dev\\BuildTask -->
<g id="node57" class="node">
<title>\\SilverStripe\\Dev\\BuildTask</title>
<ellipse fill="none" stroke="#000000" cx="254.1275" cy="-234.2281" rx="139.9756" ry="18"/>
<text text-anchor="middle" x="254.1275" y="-230.5281" font-family="Times,serif" font-size="14.00" fill="#c0c0c0">\SilverStripe\Dev\BuildTask</text>
</g>
<!-- \\Firesphere\\SolrSearch\\Tasks\\SolrConfigureTask&#45;&gt;\\SilverStripe\\Dev\\BuildTask -->
<g id="edge12" class="edge">
<title>\\Firesphere\\SolrSearch\\Tasks\\SolrConfigureTask&#45;&gt;\\SilverStripe\\Dev\\BuildTask</title>
<path fill="none" stroke="#000000" d="M607.1511,-2131.1888C593.6579,-2126.6442 580.9367,-2119.4684 572.2549,-2108.2281 446.732,-1945.7143 648.1951,-411.5061 508.2549,-261.2281 466.1116,-215.9715 394.5266,-211.9918 338.0522,-217.7576"/>
<polygon fill="none" stroke="#000000" points="337.5933,-214.2871 328.0528,-218.8947 338.3843,-221.2423 337.5933,-214.2871"/>
</g>
<!-- \\Firesphere\\SolrSearch\\Tasks\\SolrIndexTask -->
<g id="node22" class="node">
<title>\\Firesphere\\SolrSearch\\Tasks\\SolrIndexTask</title>
<polygon fill="none" stroke="#000000" points="724.7549,-2264.2281 620.7549,-2264.2281 620.7549,-2228.2281 724.7549,-2228.2281 724.7549,-2264.2281"/>
<text text-anchor="middle" x="672.7549" y="-2243.4281" font-family="Courier,monospace" font-size="11.00" fill="#000000">SolrIndexTask</text>
</g>
<!-- \\Firesphere\\SolrSearch\\Tasks\\SolrIndexTask&#45;&gt;\\SilverStripe\\Dev\\BuildTask -->
<g id="edge13" class="edge">
<title>\\Firesphere\\SolrSearch\\Tasks\\SolrIndexTask&#45;&gt;\\SilverStripe\\Dev\\BuildTask</title>
<path fill="none" stroke="#000000" d="M620.6235,-2244.4965C602.5254,-2241.0964 583.8741,-2233.8789 572.2549,-2219.2281 436.9975,-2048.6807 656.4389,-420.6724 508.2549,-261.2281 466.0848,-215.8536 394.3247,-211.9409 337.7932,-217.7613"/>
<polygon fill="none" stroke="#000000" points="337.3215,-214.2923 327.7849,-218.9081 338.1184,-221.2468 337.3215,-214.2923"/>
</g>
<!-- \\Firesphere\\SolrSearch\\Tasks\\ClearDirtyClassesTask -->
<g id="node23" class="node">
<title>\\Firesphere\\SolrSearch\\Tasks\\ClearDirtyClassesTask</title>
<polygon fill="none" stroke="#000000" points="751.7549,-2210.2281 593.7549,-2210.2281 593.7549,-2174.2281 751.7549,-2174.2281 751.7549,-2210.2281"/>
<text text-anchor="middle" x="672.7549" y="-2189.4281" font-family="Courier,monospace" font-size="11.00" fill="#000000">ClearDirtyClassesTask</text>
</g>
<!-- \\Firesphere\\SolrSearch\\Tasks\\ClearDirtyClassesTask&#45;&gt;\\SilverStripe\\Dev\\BuildTask -->
<g id="edge14" class="edge">
<title>\\Firesphere\\SolrSearch\\Tasks\\ClearDirtyClassesTask&#45;&gt;\\SilverStripe\\Dev\\BuildTask</title>
<path fill="none" stroke="#000000" d="M593.6523,-2181.8988C585.4185,-2177.8575 577.9836,-2172.4447 572.2549,-2165.2281 440.647,-1999.4401 652.4284,-416.2131 508.2549,-261.2281 466.0638,-215.8731 394.3056,-211.9586 337.7802,-217.7734"/>
<polygon fill="none" stroke="#000000" points="337.31,-214.3043 327.7731,-218.9191 338.1063,-221.2588 337.31,-214.3043"/>
</g>
<!-- \\Firesphere\\SolrSearch\\Services\\SchemaService -->
<g id="node24" class="node">
<title>\\Firesphere\\SolrSearch\\Services\\SchemaService</title>
<polygon fill="none" stroke="#000000" points="724.7549,-2076.2281 620.7549,-2076.2281 620.7549,-2040.2281 724.7549,-2040.2281 724.7549,-2076.2281"/>
<text text-anchor="middle" x="672.7549" y="-2055.4281" font-family="Courier,monospace" font-size="11.00" fill="#000000">SchemaService</text>
</g>
<!-- \\SilverStripe\\View\\ViewableData -->
<g id="node58" class="node">
<title>\\SilverStripe\\View\\ViewableData</title>
<ellipse fill="none" stroke="#000000" cx="254.1275" cy="-180.2281" rx="163.2712" ry="18"/>
<text text-anchor="middle" x="254.1275" y="-176.5281" font-family="Times,serif" font-size="14.00" fill="#c0c0c0">\SilverStripe\View\ViewableData</text>
</g>
<!-- \\Firesphere\\SolrSearch\\Services\\SchemaService&#45;&gt;\\SilverStripe\\View\\ViewableData -->
<g id="edge15" class="edge">
<title>\\Firesphere\\SolrSearch\\Services\\SchemaService&#45;&gt;\\SilverStripe\\View\\ViewableData</title>
<path fill="none" stroke="#000000" d="M620.6422,-2056.4816C602.5463,-2053.0798 583.8917,-2045.8649 572.2549,-2031.2281 446.0534,-1872.4908 646.4869,-355.6069 508.2549,-207.2281 467.1855,-163.144 398.179,-158.2322 342.4309,-163.3387"/>
<polygon fill="none" stroke="#000000" points="341.771,-159.8883 332.1855,-164.4016 342.4933,-166.8509 341.771,-159.8883"/>
</g>
<!-- \\Firesphere\\SolrSearch\\Services\\SolrCoreService -->
<g id="node25" class="node">
<title>\\Firesphere\\SolrSearch\\Services\\SolrCoreService</title>
<polygon fill="none" stroke="#000000" points="731.7549,-2022.2281 613.7549,-2022.2281 613.7549,-1986.2281 731.7549,-1986.2281 731.7549,-2022.2281"/>
<text text-anchor="middle" x="672.7549" y="-2001.4281" font-family="Courier,monospace" font-size="11.00" fill="#000000">SolrCoreService</text>
</g>
<!-- \\Firesphere\\SolrSearch\\States\\SiteState -->
<g id="node26" class="node">
<title>\\Firesphere\\SolrSearch\\States\\SiteState</title>
<polygon fill="none" stroke="#000000" points="714.7549,-1942.2281 630.7549,-1942.2281 630.7549,-1906.2281 714.7549,-1906.2281 714.7549,-1942.2281"/>
<text text-anchor="start" x="638.7549" y="-1927.4281" font-family="Courier,monospace" font-size="11.00" fill="#000000">«abstract»</text>
<text text-anchor="start" x="642.2549" y="-1915.4281" font-family="Courier,monospace" font-size="11.00" fill="#000000">SiteState</text>
</g>
<!-- \\Firesphere\\SolrSearch\\Interfaces\\SiteStateInterface -->
<g id="node28" class="node">
<title>\\Firesphere\\SolrSearch\\Interfaces\\SiteStateInterface</title>
<polygon fill="none" stroke="#000000" points="323.1275,-2585.2281 185.1275,-2585.2281 185.1275,-2549.2281 323.1275,-2549.2281 323.1275,-2585.2281"/>
<text text-anchor="middle" x="254.1275" y="-2564.4281" font-family="Courier,monospace" font-size="11.00" fill="#000000">SiteStateInterface</text>
</g>
<!-- \\Firesphere\\SolrSearch\\Traits\\GetterSetterTrait -->
<g id="node29" class="node">
<title>\\Firesphere\\SolrSearch\\Traits\\GetterSetterTrait</title>
<polygon fill="none" stroke="#000000" points="738.2549,-1862.2281 607.2549,-1862.2281 607.2549,-1826.2281 738.2549,-1826.2281 738.2549,-1862.2281"/>
<text text-anchor="middle" x="672.7549" y="-1841.4281" font-family="Courier,monospace" font-size="11.00" fill="#000000">GetterSetterTrait</text>
</g>
<!-- \\Firesphere\\SolrSearch\\Traits\\DataResolveTrait -->
<g id="node30" class="node">
<title>\\Firesphere\\SolrSearch\\Traits\\DataResolveTrait</title>
<polygon fill="none" stroke="#000000" points="735.2549,-1808.2281 610.2549,-1808.2281 610.2549,-1772.2281 735.2549,-1772.2281 735.2549,-1808.2281"/>
<text text-anchor="middle" x="672.7549" y="-1787.4281" font-family="Courier,monospace" font-size="11.00" fill="#000000">DataResolveTrait</text>
</g>
<!-- \\Firesphere\\SolrSearch\\Traits\\SearchResultGetTrait -->
<g id="node31" class="node">
<title>\\Firesphere\\SolrSearch\\Traits\\SearchResultGetTrait</title>
<polygon fill="none" stroke="#000000" points="748.7549,-1754.2281 596.7549,-1754.2281 596.7549,-1718.2281 748.7549,-1718.2281 748.7549,-1754.2281"/>
<text text-anchor="middle" x="672.7549" y="-1733.4281" font-family="Courier,monospace" font-size="11.00" fill="#000000">SearchResultGetTrait</text>
</g>
<!-- \\Firesphere\\SolrSearch\\Traits\\SearchResultSetTrait -->
<g id="node32" class="node">
<title>\\Firesphere\\SolrSearch\\Traits\\SearchResultSetTrait</title>
<polygon fill="none" stroke="#000000" points="748.7549,-1700.2281 596.7549,-1700.2281 596.7549,-1664.2281 748.7549,-1664.2281 748.7549,-1700.2281"/>
<text text-anchor="middle" x="672.7549" y="-1679.4281" font-family="Courier,monospace" font-size="11.00" fill="#000000">SearchResultSetTrait</text>
</g>
<!-- \\Firesphere\\SolrSearch\\Traits\\LoggerTrait -->
<g id="node33" class="node">
<title>\\Firesphere\\SolrSearch\\Traits\\LoggerTrait</title>
<polygon fill="none" stroke="#000000" points="718.2549,-1646.2281 627.2549,-1646.2281 627.2549,-1610.2281 718.2549,-1610.2281 718.2549,-1646.2281"/>
<text text-anchor="middle" x="672.7549" y="-1625.4281" font-family="Courier,monospace" font-size="11.00" fill="#000000">LoggerTrait</text>
</g>
<!-- \\Firesphere\\SolrSearch\\Traits\\GetSetSchemaServiceTrait -->
<g id="node34" class="node">
<title>\\Firesphere\\SolrSearch\\Traits\\GetSetSchemaServiceTrait</title>
<polygon fill="none" stroke="#000000" points="762.2549,-1592.2281 583.2549,-1592.2281 583.2549,-1556.2281 762.2549,-1556.2281 762.2549,-1592.2281"/>
<text text-anchor="middle" x="672.7549" y="-1571.4281" font-family="Courier,monospace" font-size="11.00" fill="#000000">GetSetSchemaServiceTrait</text>
</g>
<!-- \\Firesphere\\SolrSearch\\Traits\\GetSetSearchResolverTrait -->
<g id="node35" class="node">
<title>\\Firesphere\\SolrSearch\\Traits\\GetSetSearchResolverTrait</title>
<polygon fill="none" stroke="#000000" points="765.2549,-1538.2281 580.2549,-1538.2281 580.2549,-1502.2281 765.2549,-1502.2281 765.2549,-1538.2281"/>
<text text-anchor="middle" x="672.7549" y="-1517.4281" font-family="Courier,monospace" font-size="11.00" fill="#000000">GetSetSearchResolverTrait</text>
</g>
<!-- \\Firesphere\\SolrSearch\\Traits\\DocumentFactoryTrait -->
<g id="node36" class="node">
<title>\\Firesphere\\SolrSearch\\Traits\\DocumentFactoryTrait</title>
<polygon fill="none" stroke="#000000" points="748.7549,-1484.2281 596.7549,-1484.2281 596.7549,-1448.2281 748.7549,-1448.2281 748.7549,-1484.2281"/>
<text text-anchor="middle" x="672.7549" y="-1463.4281" font-family="Courier,monospace" font-size="11.00" fill="#000000">DocumentFactoryTrait</text>
</g>
<!-- \\Firesphere\\SolrSearch\\Traits\\BaseQueryTrait -->
<g id="node37" class="node">
<title>\\Firesphere\\SolrSearch\\Traits\\BaseQueryTrait</title>
<polygon fill="none" stroke="#000000" points="728.2549,-1430.2281 617.2549,-1430.2281 617.2549,-1394.2281 728.2549,-1394.2281 728.2549,-1430.2281"/>
<text text-anchor="middle" x="672.7549" y="-1409.4281" font-family="Courier,monospace" font-size="11.00" fill="#000000">BaseQueryTrait</text>
</g>
<!-- \\Firesphere\\SolrSearch\\Traits\\BaseIndexTrait -->
<g id="node38" class="node">
<title>\\Firesphere\\SolrSearch\\Traits\\BaseIndexTrait</title>
<polygon fill="none" stroke="#000000" points="728.2549,-1376.2281 617.2549,-1376.2281 617.2549,-1340.2281 728.2549,-1340.2281 728.2549,-1376.2281"/>
<text text-anchor="middle" x="672.7549" y="-1355.4281" font-family="Courier,monospace" font-size="11.00" fill="#000000">BaseIndexTrait</text>
</g>
<!-- \\Firesphere\\SolrSearch\\Traits\\QueryComponentFilterTrait -->
<g id="node39" class="node">
<title>\\Firesphere\\SolrSearch\\Traits\\QueryComponentFilterTrait</title>
<polygon fill="none" stroke="#000000" points="765.2549,-1322.2281 580.2549,-1322.2281 580.2549,-1286.2281 765.2549,-1286.2281 765.2549,-1322.2281"/>
<text text-anchor="middle" x="672.7549" y="-1301.4281" font-family="Courier,monospace" font-size="11.00" fill="#000000">QueryComponentFilterTrait</text>
</g>
<!-- \\Firesphere\\SolrSearch\\Traits\\QueryComponentBoostTrait -->
<g id="node40" class="node">
<title>\\Firesphere\\SolrSearch\\Traits\\QueryComponentBoostTrait</title>
<polygon fill="none" stroke="#000000" points="762.2549,-1268.2281 583.2549,-1268.2281 583.2549,-1232.2281 762.2549,-1232.2281 762.2549,-1268.2281"/>
<text text-anchor="middle" x="672.7549" y="-1247.4281" font-family="Courier,monospace" font-size="11.00" fill="#000000">QueryComponentBoostTrait</text>
</g>
<!-- \\Firesphere\\SolrSearch\\Traits\\QueryComponentFacetTrait -->
<g id="node41" class="node">
<title>\\Firesphere\\SolrSearch\\Traits\\QueryComponentFacetTrait</title>
<polygon fill="none" stroke="#000000" points="762.2549,-1214.2281 583.2549,-1214.2281 583.2549,-1178.2281 762.2549,-1178.2281 762.2549,-1214.2281"/>
<text text-anchor="middle" x="672.7549" y="-1193.4281" font-family="Courier,monospace" font-size="11.00" fill="#000000">QueryComponentFacetTrait</text>
</g>
<!-- \\Firesphere\\SolrSearch\\Traits\\CoreServiceTrait -->
<g id="node42" class="node">
<title>\\Firesphere\\SolrSearch\\Traits\\CoreServiceTrait</title>
<polygon fill="none" stroke="#000000" points="735.2549,-1160.2281 610.2549,-1160.2281 610.2549,-1124.2281 735.2549,-1124.2281 735.2549,-1160.2281"/>
<text text-anchor="middle" x="672.7549" y="-1139.4281" font-family="Courier,monospace" font-size="11.00" fill="#000000">CoreServiceTrait</text>
</g>
<!-- \\Firesphere\\SolrSearch\\Traits\\CoreAdminTrait -->
<g id="node43" class="node">
<title>\\Firesphere\\SolrSearch\\Traits\\CoreAdminTrait</title>
<polygon fill="none" stroke="#000000" points="728.2549,-1106.2281 617.2549,-1106.2281 617.2549,-1070.2281 728.2549,-1070.2281 728.2549,-1106.2281"/>
<text text-anchor="middle" x="672.7549" y="-1085.4281" font-family="Courier,monospace" font-size="11.00" fill="#000000">CoreAdminTrait</text>
</g>
<!-- \\Firesphere\\SolrSearch\\Extensions\\GridFieldExtension -->
<g id="node44" class="node">
<title>\\Firesphere\\SolrSearch\\Extensions\\GridFieldExtension</title>
<polygon fill="none" stroke="#000000" points="741.7549,-1026.2281 603.7549,-1026.2281 603.7549,-990.2281 741.7549,-990.2281 741.7549,-1026.2281"/>
<text text-anchor="middle" x="672.7549" y="-1005.4281" font-family="Courier,monospace" font-size="11.00" fill="#000000">GridFieldExtension</text>
</g>
<!-- \\Firesphere\\SolrSearch\\Extensions\\GridFieldExtension&#45;&gt;\\SilverStripe\\Core\\Extension -->
<g id="edge16" class="edge">
<title>\\Firesphere\\SolrSearch\\Extensions\\GridFieldExtension&#45;&gt;\\SilverStripe\\Core\\Extension</title>
<path fill="none" stroke="#000000" d="M603.7358,-1001.6818C591.6654,-997.4797 580.3893,-991.0292 572.2549,-981.2281 454.3933,-839.2179 636.8642,-285.5834 508.2549,-153.2281 466.1946,-109.9427 397.0777,-105.0354 341.5353,-109.9418"/>
<polygon fill="none" stroke="#000000" points="340.9326,-106.4846 331.3318,-110.9651 341.6312,-113.4497 340.9326,-106.4846"/>
</g>
<!-- \\Firesphere\\SolrSearch\\Extensions\\DataObjectExtension -->
<g id="node45" class="node">
<title>\\Firesphere\\SolrSearch\\Extensions\\DataObjectExtension</title>
<polygon fill="none" stroke="#000000" points="745.2549,-972.2281 600.2549,-972.2281 600.2549,-936.2281 745.2549,-936.2281 745.2549,-972.2281"/>
<text text-anchor="middle" x="672.7549" y="-951.4281" font-family="Courier,monospace" font-size="11.00" fill="#000000">DataObjectExtension</text>
</g>
<!-- \\SilverStripe\\ORM\\DataExtension -->
<g id="node59" class="node">
<title>\\SilverStripe\\ORM\\DataExtension</title>
<ellipse fill="none" stroke="#000000" cx="254.1275" cy="-18.2281" rx="167.8704" ry="18"/>
<text text-anchor="middle" x="254.1275" y="-14.5281" font-family="Times,serif" font-size="14.00" fill="#c0c0c0">\SilverStripe\ORM\DataExtension</text>
</g>
<!-- \\Firesphere\\SolrSearch\\Extensions\\DataObjectExtension&#45;&gt;\\SilverStripe\\ORM\\DataExtension -->
<g id="edge17" class="edge">
<title>\\Firesphere\\SolrSearch\\Extensions\\DataObjectExtension&#45;&gt;\\SilverStripe\\ORM\\DataExtension</title>
<path fill="none" stroke="#000000" d="M600.0202,-944.1415C589.3277,-939.6311 579.4956,-933.2428 572.2549,-924.2281 449.6094,-771.5341 644.4265,-185.9927 508.2549,-45.2281 467.3076,-2.8997 400.5009,2.7924 345.6601,-1.5394"/>
<polygon fill="none" stroke="#000000" points="345.2097,1.9342 335.5683,-2.4583 345.8445,-5.037 345.2097,1.9342"/>
</g>
<!-- \\Firesphere\\SolrSearch\\Jobs\\SolrIndexJob -->
<g id="node46" class="node">
<title>\\Firesphere\\SolrSearch\\Jobs\\SolrIndexJob</title>
<polygon fill="none" stroke="#000000" points="721.7549,-784.2281 623.7549,-784.2281 623.7549,-748.2281 721.7549,-748.2281 721.7549,-784.2281"/>
<text text-anchor="middle" x="672.7549" y="-763.4281" font-family="Courier,monospace" font-size="11.00" fill="#000000">SolrIndexJob</text>
</g>
<!-- \\Symbiote\\QueuedJobs\\Services\\AbstractQueuedJob -->
<g id="node60" class="node">
<title>\\Symbiote\\QueuedJobs\\Services\\AbstractQueuedJob</title>
<ellipse fill="none" stroke="#000000" cx="254.1275" cy="-72.2281" rx="254.255" ry="18"/>
<text text-anchor="middle" x="254.1275" y="-68.5281" font-family="Times,serif" font-size="14.00" fill="#c0c0c0">\Symbiote\QueuedJobs\Services\AbstractQueuedJob</text>
</g>
<!-- \\Firesphere\\SolrSearch\\Jobs\\SolrIndexJob&#45;&gt;\\Symbiote\\QueuedJobs\\Services\\AbstractQueuedJob -->
<g id="edge18" class="edge">
<title>\\Firesphere\\SolrSearch\\Jobs\\SolrIndexJob&#45;&gt;\\Symbiote\\QueuedJobs\\Services\\AbstractQueuedJob</title>
<path fill="none" stroke="#000000" d="M623.6417,-762.9965C604.8067,-759.1692 584.837,-751.4599 572.2549,-736.2281 481.6496,-626.5425 608.5659,-200.1139 508.2549,-99.2281 470.5688,-61.326 412.0757,-53.1169 360.704,-55.0481"/>
<polygon fill="none" stroke="#000000" points="360.3428,-51.5618 350.5328,-55.5638 360.6973,-58.5528 360.3428,-51.5618"/>
</g>
<!-- \\Firesphere\\SolrSearch\\Jobs\\SolrConfigureJob -->
<g id="node47" class="node">
<title>\\Firesphere\\SolrSearch\\Jobs\\SolrConfigureJob</title>
<polygon fill="none" stroke="#000000" points="735.2549,-892.2281 610.2549,-892.2281 610.2549,-856.2281 735.2549,-856.2281 735.2549,-892.2281"/>
<text text-anchor="middle" x="672.7549" y="-871.4281" font-family="Courier,monospace" font-size="11.00" fill="#000000">SolrConfigureJob</text>
</g>
<!-- \\Firesphere\\SolrSearch\\Jobs\\SolrConfigureJob&#45;&gt;\\Symbiote\\QueuedJobs\\Services\\AbstractQueuedJob -->
<g id="edge19" class="edge">
<title>\\Firesphere\\SolrSearch\\Jobs\\SolrConfigureJob&#45;&gt;\\Symbiote\\QueuedJobs\\Services\\AbstractQueuedJob</title>
<path fill="none" stroke="#000000" d="M610.0217,-869.5835C595.6588,-865.5254 581.8209,-858.6583 572.2549,-847.2281 465.1834,-719.2914 625.0062,-218.3971 508.2549,-99.2281 470.3405,-60.5286 410.7768,-52.6046 358.843,-54.9018"/>
<polygon fill="none" stroke="#000000" points="358.3497,-51.4242 348.5667,-55.4914 358.7508,-58.4127 358.3497,-51.4242"/>
</g>
<!-- \\Firesphere\\SolrSearch\\Jobs\\ClearDirtyClassesJob -->
<g id="node48" class="node">
<title>\\Firesphere\\SolrSearch\\Jobs\\ClearDirtyClassesJob</title>
<polygon fill="none" stroke="#000000" points="748.7549,-838.2281 596.7549,-838.2281 596.7549,-802.2281 748.7549,-802.2281 748.7549,-838.2281"/>
<text text-anchor="middle" x="672.7549" y="-817.4281" font-family="Courier,monospace" font-size="11.00" fill="#000000">ClearDirtyClassesJob</text>
</g>
<!-- \\Firesphere\\SolrSearch\\Jobs\\ClearDirtyClassesJob&#45;&gt;\\Symbiote\\QueuedJobs\\Services\\AbstractQueuedJob -->
<g id="edge20" class="edge">
<title>\\Firesphere\\SolrSearch\\Jobs\\ClearDirtyClassesJob&#45;&gt;\\Symbiote\\QueuedJobs\\Services\\AbstractQueuedJob</title>
<path fill="none" stroke="#000000" d="M596.5146,-810.706C587.2497,-806.6094 578.7738,-800.9653 572.2549,-793.2281 472.4631,-674.7867 617.006,-209.5003 508.2549,-99.2281 470.432,-60.8761 411.3286,-52.828 359.6357,-54.9665"/>
<polygon fill="none" stroke="#000000" points="359.1991,-51.485 349.4044,-55.5241 359.5801,-58.4747 359.1991,-51.485"/>
</g>
<!-- \\Firesphere\\SolrSearch\\Fluent\\FluentExtension -->
<g id="node50" class="node">
<title>\\Firesphere\\SolrSearch\\Fluent\\FluentExtension</title>
<polygon fill="none" stroke="#000000" points="731.7549,-624.2281 613.7549,-624.2281 613.7549,-588.2281 731.7549,-588.2281 731.7549,-624.2281"/>
<text text-anchor="middle" x="672.7549" y="-603.4281" font-family="Courier,monospace" font-size="11.00" fill="#000000">FluentExtension</text>
</g>
<!-- \\Firesphere\\SolrSearch\\Fluent\\FluentExtension&#45;&gt;\\SilverStripe\\Core\\Extension -->
<g id="edge21" class="edge">
<title>\\Firesphere\\SolrSearch\\Fluent\\FluentExtension&#45;&gt;\\SilverStripe\\Core\\Extension</title>
<path fill="none" stroke="#000000" d="M613.5587,-600.1269C598.098,-595.7305 582.8253,-588.3916 572.2549,-576.2281 447.5335,-432.7092 645.6496,-284.6655 508.2549,-153.2281 466.1638,-112.962 400.4068,-106.8952 346.3284,-110.5402"/>
<polygon fill="none" stroke="#000000" points="345.7185,-107.0776 336.0275,-111.3594 346.2735,-114.0555 345.7185,-107.0776"/>
</g>
<!-- \\Firesphere\\SolrSearch\\Subsites\\SubsitesExtension -->
<g id="node51" class="node">
<title>\\Firesphere\\SolrSearch\\Subsites\\SubsitesExtension</title>
<polygon fill="none" stroke="#000000" points="738.2549,-544.2281 607.2549,-544.2281 607.2549,-508.2281 738.2549,-508.2281 738.2549,-544.2281"/>
<text text-anchor="middle" x="672.7549" y="-523.4281" font-family="Courier,monospace" font-size="11.00" fill="#000000">SubsitesExtension</text>
</g>
<!-- \\Firesphere\\SolrSearch\\Subsites\\SubsitesExtension&#45;&gt;\\SilverStripe\\ORM\\DataExtension -->
<g id="edge22" class="edge">
<title>\\Firesphere\\SolrSearch\\Subsites\\SubsitesExtension&#45;&gt;\\SilverStripe\\ORM\\DataExtension</title>
<path fill="none" stroke="#000000" d="M669.255,-508.1831C653.3631,-428.1896 585.4274,-106.8167 508.2549,-45.2281 471.5859,-15.9639 421.8522,-6.2684 376.1027,-4.9687"/>
<polygon fill="none" stroke="#000000" points="376.1562,-1.4692 366.1032,-4.8138 376.0477,-8.4684 376.1562,-1.4692"/>
</g>
</g>
</svg>
