<?xml version="1.0" encoding="UTF-8" standalone="no"?>
<!DOCTYPE svg PUBLIC "-//W3C//DTD SVG 1.1//EN"
 "http://www.w3.org/Graphics/SVG/1.1/DTD/svg11.dtd">
<!-- Generated by graphviz version 2.40.1 (20161225.0304)
 -->
<!-- Title: G Pages: 1 -->
<svg width="1064pt" height="3721pt"
 viewBox="0.00 0.00 1064.25 3720.83" xmlns="http://www.w3.org/2000/svg" xmlns:xlink="http://www.w3.org/1999/xlink">
<g id="graph0" class="graph" transform="scale(1 1) rotate(0) translate(4 3716.8283)">
<title>G</title>
<polygon fill="#ffffff" stroke="transparent" points="-4,4 -4,-3716.8283 1060.2549,-3716.8283 1060.2549,4 -4,4"/>
<g id="clust1" class="cluster">
<title>cluster_Global</title>
<path fill="none" stroke="#c0c0c0" d="M165.1275,-152.8283C165.1275,-152.8283 1036.2549,-152.8283 1036.2549,-152.8283 1042.2549,-152.8283 1048.2549,-158.8283 1048.2549,-164.8283 1048.2549,-164.8283 1048.2549,-3386.8283 1048.2549,-3386.8283 1048.2549,-3392.8283 1042.2549,-3398.8283 1036.2549,-3398.8283 1036.2549,-3398.8283 165.1275,-3398.8283 165.1275,-3398.8283 159.1275,-3398.8283 153.1275,-3392.8283 153.1275,-3386.8283 153.1275,-3386.8283 153.1275,-164.8283 153.1275,-164.8283 153.1275,-158.8283 159.1275,-152.8283 165.1275,-152.8283"/>
<text text-anchor="middle" x="600.6912" y="-3386.0283" font-family="Times,serif" font-size="11.00" fill="#c0c0c0">Global</text>
</g>
<g id="clust2" class="cluster">
<title>cluster_\SilverStripe</title>
<path fill="none" stroke="#c0c0c0" d="M861.2549,-3056.8283C861.2549,-3056.8283 992.2549,-3056.8283 992.2549,-3056.8283 998.2549,-3056.8283 1004.2549,-3062.8283 1004.2549,-3068.8283 1004.2549,-3068.8283 1004.2549,-3358.8283 1004.2549,-3358.8283 1004.2549,-3364.8283 998.2549,-3370.8283 992.2549,-3370.8283 992.2549,-3370.8283 861.2549,-3370.8283 861.2549,-3370.8283 855.2549,-3370.8283 849.2549,-3364.8283 849.2549,-3358.8283 849.2549,-3358.8283 849.2549,-3068.8283 849.2549,-3068.8283 849.2549,-3062.8283 855.2549,-3056.8283 861.2549,-3056.8283"/>
<text text-anchor="middle" x="926.7549" y="-3358.0283" font-family="Times,serif" font-size="11.00" fill="#c0c0c0">SilverStripe</text>
</g>
<g id="clust3" class="cluster">
<title>cluster_\SilverStripe\FullTextSearch</title>
<path fill="none" stroke="#c0c0c0" d="M869.2549,-3064.8283C869.2549,-3064.8283 984.2549,-3064.8283 984.2549,-3064.8283 990.2549,-3064.8283 996.2549,-3070.8283 996.2549,-3076.8283 996.2549,-3076.8283 996.2549,-3330.8283 996.2549,-3330.8283 996.2549,-3336.8283 990.2549,-3342.8283 984.2549,-3342.8283 984.2549,-3342.8283 869.2549,-3342.8283 869.2549,-3342.8283 863.2549,-3342.8283 857.2549,-3336.8283 857.2549,-3330.8283 857.2549,-3330.8283 857.2549,-3076.8283 857.2549,-3076.8283 857.2549,-3070.8283 863.2549,-3064.8283 869.2549,-3064.8283"/>
<text text-anchor="middle" x="926.7549" y="-3330.0283" font-family="Times,serif" font-size="11.00" fill="#c0c0c0">FullTextSearch</text>
</g>
<g id="clust4" class="cluster">
<title>cluster_\SilverStripe\FullTextSearch\Solr</title>
<path fill="none" stroke="#c0c0c0" d="M888.7549,-3188.8283C888.7549,-3188.8283 964.7549,-3188.8283 964.7549,-3188.8283 970.7549,-3188.8283 976.7549,-3194.8283 976.7549,-3200.8283 976.7549,-3200.8283 976.7549,-3302.8283 976.7549,-3302.8283 976.7549,-3308.8283 970.7549,-3314.8283 964.7549,-3314.8283 964.7549,-3314.8283 888.7549,-3314.8283 888.7549,-3314.8283 882.7549,-3314.8283 876.7549,-3308.8283 876.7549,-3302.8283 876.7549,-3302.8283 876.7549,-3200.8283 876.7549,-3200.8283 876.7549,-3194.8283 882.7549,-3188.8283 888.7549,-3188.8283"/>
<text text-anchor="middle" x="926.7549" y="-3302.0283" font-family="Times,serif" font-size="11.00" fill="#c0c0c0">Solr</text>
</g>
<g id="clust5" class="cluster">
<title>cluster_\SilverStripe\FullTextSearch\Search</title>
<path fill="none" stroke="#c0c0c0" d="M877.2549,-3072.8283C877.2549,-3072.8283 976.2549,-3072.8283 976.2549,-3072.8283 982.2549,-3072.8283 988.2549,-3078.8283 988.2549,-3084.8283 988.2549,-3084.8283 988.2549,-3168.8283 988.2549,-3168.8283 988.2549,-3174.8283 982.2549,-3180.8283 976.2549,-3180.8283 976.2549,-3180.8283 877.2549,-3180.8283 877.2549,-3180.8283 871.2549,-3180.8283 865.2549,-3174.8283 865.2549,-3168.8283 865.2549,-3168.8283 865.2549,-3084.8283 865.2549,-3084.8283 865.2549,-3078.8283 871.2549,-3072.8283 877.2549,-3072.8283"/>
<text text-anchor="middle" x="926.7549" y="-3168.0283" font-family="Times,serif" font-size="11.00" fill="#c0c0c0">Search</text>
</g>
<g id="clust6" class="cluster">
<title>cluster_\SilverStripe\FullTextSearch\Search\Queries</title>
<path fill="none" stroke="#c0c0c0" d="M885.2549,-3080.8283C885.2549,-3080.8283 968.2549,-3080.8283 968.2549,-3080.8283 974.2549,-3080.8283 980.2549,-3086.8283 980.2549,-3092.8283 980.2549,-3092.8283 980.2549,-3140.8283 980.2549,-3140.8283 980.2549,-3146.8283 974.2549,-3152.8283 968.2549,-3152.8283 968.2549,-3152.8283 885.2549,-3152.8283 885.2549,-3152.8283 879.2549,-3152.8283 873.2549,-3146.8283 873.2549,-3140.8283 873.2549,-3140.8283 873.2549,-3092.8283 873.2549,-3092.8283 873.2549,-3086.8283 879.2549,-3080.8283 885.2549,-3080.8283"/>
<text text-anchor="middle" x="926.7549" y="-3140.0283" font-family="Times,serif" font-size="11.00" fill="#c0c0c0">Queries</text>
</g>
<g id="clust7" class="cluster">
<title>cluster_\Firesphere</title>
<path fill="none" stroke="#c0c0c0" d="M173.1275,-160.8283C173.1275,-160.8283 1028.2549,-160.8283 1028.2549,-160.8283 1034.2549,-160.8283 1040.2549,-166.8283 1040.2549,-172.8283 1040.2549,-172.8283 1040.2549,-3036.8283 1040.2549,-3036.8283 1040.2549,-3042.8283 1034.2549,-3048.8283 1028.2549,-3048.8283 1028.2549,-3048.8283 173.1275,-3048.8283 173.1275,-3048.8283 167.1275,-3048.8283 161.1275,-3042.8283 161.1275,-3036.8283 161.1275,-3036.8283 161.1275,-172.8283 161.1275,-172.8283 161.1275,-166.8283 167.1275,-160.8283 173.1275,-160.8283"/>
<text text-anchor="middle" x="600.6912" y="-3036.0283" font-family="Times,serif" font-size="11.00" fill="#c0c0c0">Firesphere</text>
</g>
<g id="clust8" class="cluster">
<title>cluster_\Firesphere\SolrCompatibility</title>
<path fill="none" stroke="#c0c0c0" d="M836.7549,-168.8283C836.7549,-168.8283 1016.7549,-168.8283 1016.7549,-168.8283 1022.7549,-168.8283 1028.7549,-174.8283 1028.7549,-180.8283 1028.7549,-180.8283 1028.7549,-264.8283 1028.7549,-264.8283 1028.7549,-270.8283 1022.7549,-276.8283 1016.7549,-276.8283 1016.7549,-276.8283 836.7549,-276.8283 836.7549,-276.8283 830.7549,-276.8283 824.7549,-270.8283 824.7549,-264.8283 824.7549,-264.8283 824.7549,-180.8283 824.7549,-180.8283 824.7549,-174.8283 830.7549,-168.8283 836.7549,-168.8283"/>
<text text-anchor="middle" x="926.7549" y="-264.0283" font-family="Times,serif" font-size="11.00" fill="#c0c0c0">SolrCompatibility</text>
</g>
<g id="clust9" class="cluster">
<title>cluster_\Firesphere\SolrCompatibility\Extensions</title>
<path fill="none" stroke="#c0c0c0" d="M844.7549,-176.8283C844.7549,-176.8283 1008.7549,-176.8283 1008.7549,-176.8283 1014.7549,-176.8283 1020.7549,-182.8283 1020.7549,-188.8283 1020.7549,-188.8283 1020.7549,-236.8283 1020.7549,-236.8283 1020.7549,-242.8283 1014.7549,-248.8283 1008.7549,-248.8283 1008.7549,-248.8283 844.7549,-248.8283 844.7549,-248.8283 838.7549,-248.8283 832.7549,-242.8283 832.7549,-236.8283 832.7549,-236.8283 832.7549,-188.8283 832.7549,-188.8283 832.7549,-182.8283 838.7549,-176.8283 844.7549,-176.8283"/>
<text text-anchor="middle" x="926.7549" y="-236.0283" font-family="Times,serif" font-size="11.00" fill="#c0c0c0">Extensions</text>
</g>
<g id="clust10" class="cluster">
<title>cluster_\Firesphere\SolrSearch</title>
<path fill="none" stroke="#c0c0c0" d="M181.1275,-172.8283C181.1275,-172.8283 769.2549,-172.8283 769.2549,-172.8283 775.2549,-172.8283 781.2549,-178.8283 781.2549,-184.8283 781.2549,-184.8283 781.2549,-3008.8283 781.2549,-3008.8283 781.2549,-3014.8283 775.2549,-3020.8283 769.2549,-3020.8283 769.2549,-3020.8283 181.1275,-3020.8283 181.1275,-3020.8283 175.1275,-3020.8283 169.1275,-3014.8283 169.1275,-3008.8283 169.1275,-3008.8283 169.1275,-184.8283 169.1275,-184.8283 169.1275,-178.8283 175.1275,-172.8283 181.1275,-172.8283"/>
<text text-anchor="middle" x="475.1912" y="-3008.0283" font-family="Times,serif" font-size="11.00" fill="#c0c0c0">SolrSearch</text>
</g>
<g id="clust11" class="cluster">
<title>cluster_\Firesphere\SolrSearch\Interfaces</title>
<path fill="none" stroke="#c0c0c0" d="M189.1275,-206.8283C189.1275,-206.8283 319.1275,-206.8283 319.1275,-206.8283 325.1275,-206.8283 331.1275,-212.8283 331.1275,-218.8283 331.1275,-218.8283 331.1275,-320.8283 331.1275,-320.8283 331.1275,-326.8283 325.1275,-332.8283 319.1275,-332.8283 319.1275,-332.8283 189.1275,-332.8283 189.1275,-332.8283 183.1275,-332.8283 177.1275,-326.8283 177.1275,-320.8283 177.1275,-320.8283 177.1275,-218.8283 177.1275,-218.8283 177.1275,-212.8283 183.1275,-206.8283 189.1275,-206.8283"/>
<text text-anchor="middle" x="254.1275" y="-320.0283" font-family="Times,serif" font-size="11.00" fill="#c0c0c0">Interfaces</text>
</g>
<g id="clust12" class="cluster">
<title>cluster_\Firesphere\SolrSearch\Models</title>
<path fill="none" stroke="#c0c0c0" d="M624.7549,-2678.8283C624.7549,-2678.8283 720.7549,-2678.8283 720.7549,-2678.8283 726.7549,-2678.8283 732.7549,-2684.8283 732.7549,-2690.8283 732.7549,-2690.8283 732.7549,-2846.8283 732.7549,-2846.8283 732.7549,-2852.8283 726.7549,-2858.8283 720.7549,-2858.8283 720.7549,-2858.8283 624.7549,-2858.8283 624.7549,-2858.8283 618.7549,-2858.8283 612.7549,-2852.8283 612.7549,-2846.8283 612.7549,-2846.8283 612.7549,-2690.8283 612.7549,-2690.8283 612.7549,-2684.8283 618.7549,-2678.8283 624.7549,-2678.8283"/>
<text text-anchor="middle" x="672.7549" y="-2846.0283" font-family="Times,serif" font-size="11.00" fill="#c0c0c0">Models</text>
</g>
<g id="clust13" class="cluster">
<title>cluster_\Firesphere\SolrSearch\Services</title>
<path fill="none" stroke="#c0c0c0" d="M617.7549,-2866.8283C617.7549,-2866.8283 727.7549,-2866.8283 727.7549,-2866.8283 733.7549,-2866.8283 739.7549,-2872.8283 739.7549,-2878.8283 739.7549,-2878.8283 739.7549,-2980.8283 739.7549,-2980.8283 739.7549,-2986.8283 733.7549,-2992.8283 727.7549,-2992.8283 727.7549,-2992.8283 617.7549,-2992.8283 617.7549,-2992.8283 611.7549,-2992.8283 605.7549,-2986.8283 605.7549,-2980.8283 605.7549,-2980.8283 605.7549,-2878.8283 605.7549,-2878.8283 605.7549,-2872.8283 611.7549,-2866.8283 617.7549,-2866.8283"/>
<text text-anchor="middle" x="672.7549" y="-2980.0283" font-family="Times,serif" font-size="11.00" fill="#c0c0c0">Services</text>
</g>
<g id="clust14" class="cluster">
<title>cluster_\Firesphere\SolrSearch\Factories</title>
<path fill="none" stroke="#c0c0c0" d="M597.7549,-2544.8283C597.7549,-2544.8283 747.7549,-2544.8283 747.7549,-2544.8283 753.7549,-2544.8283 759.7549,-2550.8283 759.7549,-2556.8283 759.7549,-2556.8283 759.7549,-2658.8283 759.7549,-2658.8283 759.7549,-2664.8283 753.7549,-2670.8283 747.7549,-2670.8283 747.7549,-2670.8283 597.7549,-2670.8283 597.7549,-2670.8283 591.7549,-2670.8283 585.7549,-2664.8283 585.7549,-2658.8283 585.7549,-2658.8283 585.7549,-2556.8283 585.7549,-2556.8283 585.7549,-2550.8283 591.7549,-2544.8283 597.7549,-2544.8283"/>
<text text-anchor="middle" x="672.7549" y="-2658.0283" font-family="Times,serif" font-size="11.00" fill="#c0c0c0">Factories</text>
</g>
<g id="clust15" class="cluster">
<title>cluster_\Firesphere\SolrSearch\States</title>
<path fill="none" stroke="#c0c0c0" d="M634.7549,-2464.8283C634.7549,-2464.8283 710.7549,-2464.8283 710.7549,-2464.8283 716.7549,-2464.8283 722.7549,-2470.8283 722.7549,-2476.8283 722.7549,-2476.8283 722.7549,-2524.8283 722.7549,-2524.8283 722.7549,-2530.8283 716.7549,-2536.8283 710.7549,-2536.8283 710.7549,-2536.8283 634.7549,-2536.8283 634.7549,-2536.8283 628.7549,-2536.8283 622.7549,-2530.8283 622.7549,-2524.8283 622.7549,-2524.8283 622.7549,-2476.8283 622.7549,-2476.8283 622.7549,-2470.8283 628.7549,-2464.8283 634.7549,-2464.8283"/>
<text text-anchor="middle" x="672.7549" y="-2524.0283" font-family="Times,serif" font-size="11.00" fill="#c0c0c0">States</text>
</g>
<g id="clust16" class="cluster">
<title>cluster_\Firesphere\SolrSearch\Results</title>
<path fill="none" stroke="#c0c0c0" d="M627.7549,-2384.8283C627.7549,-2384.8283 717.7549,-2384.8283 717.7549,-2384.8283 723.7549,-2384.8283 729.7549,-2390.8283 729.7549,-2396.8283 729.7549,-2396.8283 729.7549,-2444.8283 729.7549,-2444.8283 729.7549,-2450.8283 723.7549,-2456.8283 717.7549,-2456.8283 717.7549,-2456.8283 627.7549,-2456.8283 627.7549,-2456.8283 621.7549,-2456.8283 615.7549,-2450.8283 615.7549,-2444.8283 615.7549,-2444.8283 615.7549,-2396.8283 615.7549,-2396.8283 615.7549,-2390.8283 621.7549,-2384.8283 627.7549,-2384.8283"/>
<text text-anchor="middle" x="672.7549" y="-2444.0283" font-family="Times,serif" font-size="11.00" fill="#c0c0c0">Results</text>
</g>
<g id="clust17" class="cluster">
<title>cluster_\Firesphere\SolrSearch\Queries</title>
<path fill="none" stroke="#c0c0c0" d="M638.2549,-2304.8283C638.2549,-2304.8283 707.2549,-2304.8283 707.2549,-2304.8283 713.2549,-2304.8283 719.2549,-2310.8283 719.2549,-2316.8283 719.2549,-2316.8283 719.2549,-2364.8283 719.2549,-2364.8283 719.2549,-2370.8283 713.2549,-2376.8283 707.2549,-2376.8283 707.2549,-2376.8283 638.2549,-2376.8283 638.2549,-2376.8283 632.2549,-2376.8283 626.2549,-2370.8283 626.2549,-2364.8283 626.2549,-2364.8283 626.2549,-2316.8283 626.2549,-2316.8283 626.2549,-2310.8283 632.2549,-2304.8283 638.2549,-2304.8283"/>
<text text-anchor="middle" x="672.7549" y="-2364.0283" font-family="Times,serif" font-size="11.00" fill="#c0c0c0">Queries</text>
</g>
<g id="clust18" class="cluster">
<title>cluster_\Firesphere\SolrSearch\Extensions</title>
<path fill="none" stroke="#c0c0c0" d="M604.2549,-2170.8283C604.2549,-2170.8283 741.2549,-2170.8283 741.2549,-2170.8283 747.2549,-2170.8283 753.2549,-2176.8283 753.2549,-2182.8283 753.2549,-2182.8283 753.2549,-2284.8283 753.2549,-2284.8283 753.2549,-2290.8283 747.2549,-2296.8283 741.2549,-2296.8283 741.2549,-2296.8283 604.2549,-2296.8283 604.2549,-2296.8283 598.2549,-2296.8283 592.2549,-2290.8283 592.2549,-2284.8283 592.2549,-2284.8283 592.2549,-2182.8283 592.2549,-2182.8283 592.2549,-2176.8283 598.2549,-2170.8283 604.2549,-2170.8283"/>
<text text-anchor="middle" x="672.7549" y="-2284.0283" font-family="Times,serif" font-size="11.00" fill="#c0c0c0">Extensions</text>
</g>
<g id="clust19" class="cluster">
<title>cluster_\Firesphere\SolrSearch\Helpers</title>
<path fill="none" stroke="#c0c0c0" d="M624.7549,-1874.8283C624.7549,-1874.8283 720.7549,-1874.8283 720.7549,-1874.8283 726.7549,-1874.8283 732.7549,-1880.8283 732.7549,-1886.8283 732.7549,-1886.8283 732.7549,-2150.8283 732.7549,-2150.8283 732.7549,-2156.8283 726.7549,-2162.8283 720.7549,-2162.8283 720.7549,-2162.8283 624.7549,-2162.8283 624.7549,-2162.8283 618.7549,-2162.8283 612.7549,-2156.8283 612.7549,-2150.8283 612.7549,-2150.8283 612.7549,-1886.8283 612.7549,-1886.8283 612.7549,-1880.8283 618.7549,-1874.8283 624.7549,-1874.8283"/>
<text text-anchor="middle" x="672.7549" y="-2150.0283" font-family="Times,serif" font-size="11.00" fill="#c0c0c0">Helpers</text>
</g>
<g id="clust20" class="cluster">
<title>cluster_\Firesphere\SolrSearch\Admins</title>
<path fill="none" stroke="#c0c0c0" d="M631.2549,-1794.8283C631.2549,-1794.8283 714.2549,-1794.8283 714.2549,-1794.8283 720.2549,-1794.8283 726.2549,-1800.8283 726.2549,-1806.8283 726.2549,-1806.8283 726.2549,-1854.8283 726.2549,-1854.8283 726.2549,-1860.8283 720.2549,-1866.8283 714.2549,-1866.8283 714.2549,-1866.8283 631.2549,-1866.8283 631.2549,-1866.8283 625.2549,-1866.8283 619.2549,-1860.8283 619.2549,-1854.8283 619.2549,-1854.8283 619.2549,-1806.8283 619.2549,-1806.8283 619.2549,-1800.8283 625.2549,-1794.8283 631.2549,-1794.8283"/>
<text text-anchor="middle" x="672.7549" y="-1854.0283" font-family="Times,serif" font-size="11.00" fill="#c0c0c0">Admins</text>
</g>
<g id="clust21" class="cluster">
<title>cluster_\Firesphere\SolrSearch\Jobs</title>
<path fill="none" stroke="#c0c0c0" d="M600.7549,-1606.8283C600.7549,-1606.8283 744.7549,-1606.8283 744.7549,-1606.8283 750.7549,-1606.8283 756.7549,-1612.8283 756.7549,-1618.8283 756.7549,-1618.8283 756.7549,-1774.8283 756.7549,-1774.8283 756.7549,-1780.8283 750.7549,-1786.8283 744.7549,-1786.8283 744.7549,-1786.8283 600.7549,-1786.8283 600.7549,-1786.8283 594.7549,-1786.8283 588.7549,-1780.8283 588.7549,-1774.8283 588.7549,-1774.8283 588.7549,-1618.8283 588.7549,-1618.8283 588.7549,-1612.8283 594.7549,-1606.8283 600.7549,-1606.8283"/>
<text text-anchor="middle" x="672.7549" y="-1774.0283" font-family="Times,serif" font-size="11.00" fill="#c0c0c0">Jobs</text>
</g>
<g id="clust22" class="cluster">
<title>cluster_\Firesphere\SolrSearch\Traits</title>
<path fill="none" stroke="#c0c0c0" d="M584.2549,-716.8283C584.2549,-716.8283 761.2549,-716.8283 761.2549,-716.8283 767.2549,-716.8283 773.2549,-722.8283 773.2549,-728.8283 773.2549,-728.8283 773.2549,-1586.8283 773.2549,-1586.8283 773.2549,-1592.8283 767.2549,-1598.8283 761.2549,-1598.8283 761.2549,-1598.8283 584.2549,-1598.8283 584.2549,-1598.8283 578.2549,-1598.8283 572.2549,-1592.8283 572.2549,-1586.8283 572.2549,-1586.8283 572.2549,-728.8283 572.2549,-728.8283 572.2549,-722.8283 578.2549,-716.8283 584.2549,-716.8283"/>
<text text-anchor="middle" x="672.7549" y="-1586.0283" font-family="Times,serif" font-size="11.00" fill="#c0c0c0">Traits</text>
</g>
<g id="clust23" class="cluster">
<title>cluster_\Firesphere\SolrSearch\Forms</title>
<path fill="none" stroke="#c0c0c0" d="M634.7549,-636.8283C634.7549,-636.8283 710.7549,-636.8283 710.7549,-636.8283 716.7549,-636.8283 722.7549,-642.8283 722.7549,-648.8283 722.7549,-648.8283 722.7549,-696.8283 722.7549,-696.8283 722.7549,-702.8283 716.7549,-708.8283 710.7549,-708.8283 710.7549,-708.8283 634.7549,-708.8283 634.7549,-708.8283 628.7549,-708.8283 622.7549,-702.8283 622.7549,-696.8283 622.7549,-696.8283 622.7549,-648.8283 622.7549,-648.8283 622.7549,-642.8283 628.7549,-636.8283 634.7549,-636.8283"/>
<text text-anchor="middle" x="672.7549" y="-696.0283" font-family="Times,serif" font-size="11.00" fill="#c0c0c0">Forms</text>
</g>
<g id="clust24" class="cluster">
<title>cluster_\Firesphere\SolrSearch\Stores</title>
<path fill="none" stroke="#c0c0c0" d="M617.7549,-260.8283C617.7549,-260.8283 727.7549,-260.8283 727.7549,-260.8283 733.7549,-260.8283 739.7549,-266.8283 739.7549,-272.8283 739.7549,-272.8283 739.7549,-374.8283 739.7549,-374.8283 739.7549,-380.8283 733.7549,-386.8283 727.7549,-386.8283 727.7549,-386.8283 617.7549,-386.8283 617.7549,-386.8283 611.7549,-386.8283 605.7549,-380.8283 605.7549,-374.8283 605.7549,-374.8283 605.7549,-272.8283 605.7549,-272.8283 605.7549,-266.8283 611.7549,-260.8283 617.7549,-260.8283"/>
<text text-anchor="middle" x="672.7549" y="-374.0283" font-family="Times,serif" font-size="11.00" fill="#c0c0c0">Stores</text>
</g>
<g id="clust25" class="cluster">
<title>cluster_\Firesphere\SolrSearch\Tasks</title>
<path fill="none" stroke="#c0c0c0" d="M597.7549,-394.8283C597.7549,-394.8283 747.7549,-394.8283 747.7549,-394.8283 753.7549,-394.8283 759.7549,-400.8283 759.7549,-406.8283 759.7549,-406.8283 759.7549,-616.8283 759.7549,-616.8283 759.7549,-622.8283 753.7549,-628.8283 747.7549,-628.8283 747.7549,-628.8283 597.7549,-628.8283 597.7549,-628.8283 591.7549,-628.8283 585.7549,-622.8283 585.7549,-616.8283 585.7549,-616.8283 585.7549,-406.8283 585.7549,-406.8283 585.7549,-400.8283 591.7549,-394.8283 597.7549,-394.8283"/>
<text text-anchor="middle" x="672.7549" y="-616.0283" font-family="Times,serif" font-size="11.00" fill="#c0c0c0">Tasks</text>
</g>
<g id="clust26" class="cluster">
<title>cluster_\Firesphere\SolrSearch\Indexes</title>
<path fill="none" stroke="#c0c0c0" d="M634.7549,-180.8283C634.7549,-180.8283 710.7549,-180.8283 710.7549,-180.8283 716.7549,-180.8283 722.7549,-186.8283 722.7549,-192.8283 722.7549,-192.8283 722.7549,-240.8283 722.7549,-240.8283 722.7549,-246.8283 716.7549,-252.8283 710.7549,-252.8283 710.7549,-252.8283 634.7549,-252.8283 634.7549,-252.8283 628.7549,-252.8283 622.7549,-246.8283 622.7549,-240.8283 622.7549,-240.8283 622.7549,-192.8283 622.7549,-192.8283 622.7549,-186.8283 628.7549,-180.8283 634.7549,-180.8283"/>
<text text-anchor="middle" x="672.7549" y="-240.0283" font-family="Times,serif" font-size="11.00" fill="#c0c0c0">Indexes</text>
</g>
<g id="clust27" class="cluster">
<title>cluster_\Firesphere\SolrFluent</title>
<path fill="none" stroke="#c0c0c0" d="M836.7549,-562.8283C836.7549,-562.8283 1016.7549,-562.8283 1016.7549,-562.8283 1022.7549,-562.8283 1028.7549,-568.8283 1028.7549,-574.8283 1028.7549,-574.8283 1028.7549,-846.8283 1028.7549,-846.8283 1028.7549,-852.8283 1022.7549,-858.8283 1016.7549,-858.8283 1016.7549,-858.8283 836.7549,-858.8283 836.7549,-858.8283 830.7549,-858.8283 824.7549,-852.8283 824.7549,-846.8283 824.7549,-846.8283 824.7549,-574.8283 824.7549,-574.8283 824.7549,-568.8283 830.7549,-562.8283 836.7549,-562.8283"/>
<text text-anchor="middle" x="926.7549" y="-846.0283" font-family="Times,serif" font-size="11.00" fill="#c0c0c0">SolrFluent</text>
</g>
<g id="clust28" class="cluster">
<title>cluster_\Firesphere\SolrFluent\States</title>
<path fill="none" stroke="#c0c0c0" d="M871.7549,-758.8283C871.7549,-758.8283 981.7549,-758.8283 981.7549,-758.8283 987.7549,-758.8283 993.7549,-764.8283 993.7549,-770.8283 993.7549,-770.8283 993.7549,-818.8283 993.7549,-818.8283 993.7549,-824.8283 987.7549,-830.8283 981.7549,-830.8283 981.7549,-830.8283 871.7549,-830.8283 871.7549,-830.8283 865.7549,-830.8283 859.7549,-824.8283 859.7549,-818.8283 859.7549,-818.8283 859.7549,-770.8283 859.7549,-770.8283 859.7549,-764.8283 865.7549,-758.8283 871.7549,-758.8283"/>
<text text-anchor="middle" x="926.7549" y="-818.0283" font-family="Times,serif" font-size="11.00" fill="#c0c0c0">States</text>
</g>
<g id="clust29" class="cluster">
<title>cluster_\Firesphere\SolrFluent\Extensions</title>
<path fill="none" stroke="#c0c0c0" d="M844.7549,-570.8283C844.7549,-570.8283 1008.7549,-570.8283 1008.7549,-570.8283 1014.7549,-570.8283 1020.7549,-576.8283 1020.7549,-582.8283 1020.7549,-582.8283 1020.7549,-738.8283 1020.7549,-738.8283 1020.7549,-744.8283 1014.7549,-750.8283 1008.7549,-750.8283 1008.7549,-750.8283 844.7549,-750.8283 844.7549,-750.8283 838.7549,-750.8283 832.7549,-744.8283 832.7549,-738.8283 832.7549,-738.8283 832.7549,-582.8283 832.7549,-582.8283 832.7549,-576.8283 838.7549,-570.8283 844.7549,-570.8283"/>
<text text-anchor="middle" x="926.7549" y="-738.0283" font-family="Times,serif" font-size="11.00" fill="#c0c0c0">Extensions</text>
</g>
<g id="clust30" class="cluster">
<title>cluster_\Firesphere\SolrSubsites</title>
<path fill="none" stroke="#c0c0c0" d="M857.2549,-866.8283C857.2549,-866.8283 996.2549,-866.8283 996.2549,-866.8283 1002.2549,-866.8283 1008.2549,-872.8283 1008.2549,-878.8283 1008.2549,-878.8283 1008.2549,-1042.8283 1008.2549,-1042.8283 1008.2549,-1048.8283 1002.2549,-1054.8283 996.2549,-1054.8283 996.2549,-1054.8283 857.2549,-1054.8283 857.2549,-1054.8283 851.2549,-1054.8283 845.2549,-1048.8283 845.2549,-1042.8283 845.2549,-1042.8283 845.2549,-878.8283 845.2549,-878.8283 845.2549,-872.8283 851.2549,-866.8283 857.2549,-866.8283"/>
<text text-anchor="middle" x="926.7549" y="-1042.0283" font-family="Times,serif" font-size="11.00" fill="#c0c0c0">SolrSubsites</text>
</g>
<g id="clust31" class="cluster">
<title>cluster_\Firesphere\SolrSubsites\States</title>
<path fill="none" stroke="#c0c0c0" d="M881.7549,-954.8283C881.7549,-954.8283 971.7549,-954.8283 971.7549,-954.8283 977.7549,-954.8283 983.7549,-960.8283 983.7549,-966.8283 983.7549,-966.8283 983.7549,-1014.8283 983.7549,-1014.8283 983.7549,-1020.8283 977.7549,-1026.8283 971.7549,-1026.8283 971.7549,-1026.8283 881.7549,-1026.8283 881.7549,-1026.8283 875.7549,-1026.8283 869.7549,-1020.8283 869.7549,-1014.8283 869.7549,-1014.8283 869.7549,-966.8283 869.7549,-966.8283 869.7549,-960.8283 875.7549,-954.8283 881.7549,-954.8283"/>
<text text-anchor="middle" x="926.7549" y="-1014.0283" font-family="Times,serif" font-size="11.00" fill="#c0c0c0">States</text>
</g>
<g id="clust32" class="cluster">
<title>cluster_\Firesphere\SolrSubsites\Extensions</title>
<path fill="none" stroke="#c0c0c0" d="M865.2549,-874.8283C865.2549,-874.8283 988.2549,-874.8283 988.2549,-874.8283 994.2549,-874.8283 1000.2549,-880.8283 1000.2549,-886.8283 1000.2549,-886.8283 1000.2549,-934.8283 1000.2549,-934.8283 1000.2549,-940.8283 994.2549,-946.8283 988.2549,-946.8283 988.2549,-946.8283 865.2549,-946.8283 865.2549,-946.8283 859.2549,-946.8283 853.2549,-940.8283 853.2549,-934.8283 853.2549,-934.8283 853.2549,-886.8283 853.2549,-886.8283 853.2549,-880.8283 859.2549,-874.8283 865.2549,-874.8283"/>
<text text-anchor="middle" x="926.7549" y="-934.0283" font-family="Times,serif" font-size="11.00" fill="#c0c0c0">Extensions</text>
</g>
<g id="clust33" class="cluster">
<title>cluster_\Firesphere\SolrPermissions</title>
<path fill="none" stroke="#c0c0c0" d="M833.2549,-284.8283C833.2549,-284.8283 1020.2549,-284.8283 1020.2549,-284.8283 1026.2549,-284.8283 1032.2549,-290.8283 1032.2549,-296.8283 1032.2549,-296.8283 1032.2549,-542.8283 1032.2549,-542.8283 1032.2549,-548.8283 1026.2549,-554.8283 1020.2549,-554.8283 1020.2549,-554.8283 833.2549,-554.8283 833.2549,-554.8283 827.2549,-554.8283 821.2549,-548.8283 821.2549,-542.8283 821.2549,-542.8283 821.2549,-296.8283 821.2549,-296.8283 821.2549,-290.8283 827.2549,-284.8283 833.2549,-284.8283"/>
<text text-anchor="middle" x="926.7549" y="-542.0283" font-family="Times,serif" font-size="11.00" fill="#c0c0c0">SolrPermissions</text>
</g>
<g id="clust34" class="cluster">
<title>cluster_\Firesphere\SolrPermissions\Extensions</title>
<path fill="none" stroke="#c0c0c0" d="M841.2549,-292.8283C841.2549,-292.8283 1012.2549,-292.8283 1012.2549,-292.8283 1018.2549,-292.8283 1024.2549,-298.8283 1024.2549,-304.8283 1024.2549,-304.8283 1024.2549,-514.8283 1024.2549,-514.8283 1024.2549,-520.8283 1018.2549,-526.8283 1012.2549,-526.8283 1012.2549,-526.8283 841.2549,-526.8283 841.2549,-526.8283 835.2549,-526.8283 829.2549,-520.8283 829.2549,-514.8283 829.2549,-514.8283 829.2549,-304.8283 829.2549,-304.8283 829.2549,-298.8283 835.2549,-292.8283 841.2549,-292.8283"/>
<text text-anchor="middle" x="926.7549" y="-514.0283" font-family="Times,serif" font-size="11.00" fill="#c0c0c0">Extensions</text>
</g>
<!-- \\SilverStripe\\FullTextSearch\\Solr\\SolrIndex -->
<g id="node1" class="node">
<title>\\SilverStripe\\FullTextSearch\\Solr\\SolrIndex</title>
<polygon fill="none" stroke="#000000" points="968.7549,-3286.8283 884.7549,-3286.8283 884.7549,-3250.8283 968.7549,-3250.8283 968.7549,-3286.8283"/>
<text text-anchor="start" x="892.7549" y="-3272.0283" font-family="Courier,monospace" font-size="11.00" fill="#000000">«abstract»</text>
<text text-anchor="start" x="896.2549" y="-3260.0283" font-family="Courier,monospace" font-size="11.00" fill="#000000">SolrIndex</text>
</g>
<!-- \\Firesphere\\SolrSearch\\Indexes\\BaseIndex -->
<g id="node51" class="node">
<title>\\Firesphere\\SolrSearch\\Indexes\\BaseIndex</title>
<polygon fill="none" stroke="#000000" points="714.7549,-224.8283 630.7549,-224.8283 630.7549,-188.8283 714.7549,-188.8283 714.7549,-224.8283"/>
<text text-anchor="start" x="638.7549" y="-210.0283" font-family="Courier,monospace" font-size="11.00" fill="#000000">«abstract»</text>
<text text-anchor="start" x="642.2549" y="-198.0283" font-family="Courier,monospace" font-size="11.00" fill="#000000">BaseIndex</text>
</g>
<!-- \\SilverStripe\\FullTextSearch\\Solr\\SolrIndex&#45;&gt;\\Firesphere\\SolrSearch\\Indexes\\BaseIndex -->
<g id="edge1" class="edge">
<title>\\SilverStripe\\FullTextSearch\\Solr\\SolrIndex&#45;&gt;\\Firesphere\\SolrSearch\\Indexes\\BaseIndex</title>
<path fill="none" stroke="#000000" d="M884.6994,-3269.5428C862.1861,-3267.4882 836.1055,-3260.6959 821.2549,-3241.8283 718.6788,-3111.5065 871.614,-395.8998 781.2549,-256.8283 768.4667,-237.1461 745.7819,-225.0944 724.4494,-217.7733"/>
<polygon fill="none" stroke="#000000" points="725.373,-214.3948 714.7835,-214.732 723.272,-221.0721 725.373,-214.3948"/>
</g>
<!-- \\SilverStripe\\FullTextSearch\\Solr\\Solr -->
<g id="node2" class="node">
<title>\\SilverStripe\\FullTextSearch\\Solr\\Solr</title>
<polygon fill="none" stroke="#000000" points="953.7549,-3232.8283 899.7549,-3232.8283 899.7549,-3196.8283 953.7549,-3196.8283 953.7549,-3232.8283"/>
<text text-anchor="middle" x="926.7549" y="-3212.0283" font-family="Courier,monospace" font-size="11.00" fill="#000000">Solr</text>
</g>
<!-- \\SilverStripe\\FullTextSearch\\Search\\Queries\\SearchQuery -->
<g id="node3" class="node">
<title>\\SilverStripe\\FullTextSearch\\Search\\Queries\\SearchQuery</title>
<polygon fill="none" stroke="#000000" points="972.2549,-3124.8283 881.2549,-3124.8283 881.2549,-3088.8283 972.2549,-3088.8283 972.2549,-3124.8283"/>
<text text-anchor="middle" x="926.7549" y="-3104.0283" font-family="Courier,monospace" font-size="11.00" fill="#000000">SearchQuery</text>
</g>
<!-- \\Firesphere\\SolrSearch\\Queries\\BaseQuery -->
<g id="node16" class="node">
<title>\\Firesphere\\SolrSearch\\Queries\\BaseQuery</title>
<polygon fill="none" stroke="#000000" points="711.2549,-2348.8283 634.2549,-2348.8283 634.2549,-2312.8283 711.2549,-2312.8283 711.2549,-2348.8283"/>
<text text-anchor="middle" x="672.7549" y="-2328.0283" font-family="Courier,monospace" font-size="11.00" fill="#000000">BaseQuery</text>
</g>
<!-- \\SilverStripe\\FullTextSearch\\Search\\Queries\\SearchQuery&#45;&gt;\\Firesphere\\SolrSearch\\Queries\\BaseQuery -->
<g id="edge2" class="edge">
<title>\\SilverStripe\\FullTextSearch\\Search\\Queries\\SearchQuery&#45;&gt;\\Firesphere\\SolrSearch\\Queries\\BaseQuery</title>
<path fill="none" stroke="#000000" d="M925.339,-3088.8221C917.1165,-2988.2708 872.6687,-2496.5969 781.2549,-2380.8283 766.3189,-2361.913 742.5868,-2349.8676 721.1214,-2342.3527"/>
<polygon fill="none" stroke="#000000" points="722.0504,-2338.9745 711.4582,-2339.2103 719.8856,-2345.6313 722.0504,-2338.9745"/>
</g>
<!-- \\Firesphere\\SolrCompatibility\\Extensions\\FulltextSearchExtension -->
<g id="node4" class="node">
<title>\\Firesphere\\SolrCompatibility\\Extensions\\FulltextSearchExtension</title>
<polygon fill="none" stroke="#000000" points="1012.7549,-220.8283 840.7549,-220.8283 840.7549,-184.8283 1012.7549,-184.8283 1012.7549,-220.8283"/>
<text text-anchor="middle" x="926.7549" y="-200.0283" font-family="Courier,monospace" font-size="11.00" fill="#000000">FulltextSearchExtension</text>
</g>
<!-- \\SilverStripe\\Core\\Extension -->
<g id="node62" class="node">
<title>\\SilverStripe\\Core\\Extension</title>
<ellipse fill="none" stroke="#000000" cx="254.1275" cy="-18.8283" rx="144.0747" ry="18"/>
<text text-anchor="middle" x="254.1275" y="-15.1283" font-family="Times,serif" font-size="14.00" fill="#c0c0c0">\SilverStripe\Core\Extension</text>
</g>
<!-- \\Firesphere\\SolrCompatibility\\Extensions\\FulltextSearchExtension&#45;&gt;\\SilverStripe\\Core\\Extension -->
<g id="edge3" class="edge">
<title>\\Firesphere\\SolrCompatibility\\Extensions\\FulltextSearchExtension&#45;&gt;\\SilverStripe\\Core\\Extension</title>
<path fill="none" stroke="#000000" d="M897.7118,-184.7222C869.069,-167.5842 823.5604,-142.2483 781.2549,-126.8283 734.8533,-109.9154 713.181,-131.1989 672.7549,-102.8283"/>
<path fill="none" stroke="#000000" d="M672.7549,-102.8283C596.2283,-49.1227 493.496,-27.9465 408.9542,-20.2829"/>
<polygon fill="none" stroke="#000000" points="408.9981,-16.7741 398.7374,-19.414 408.4048,-23.7489 408.9981,-16.7741"/>
</g>
<!-- \\Firesphere\\SolrSearch\\Interfaces\\SiteStateInterface -->
<g id="node5" class="node">
<title>\\Firesphere\\SolrSearch\\Interfaces\\SiteStateInterface</title>
<polygon fill="none" stroke="#000000" points="323.1275,-250.8283 185.1275,-250.8283 185.1275,-214.8283 323.1275,-214.8283 323.1275,-250.8283"/>
<text text-anchor="middle" x="254.1275" y="-230.0283" font-family="Courier,monospace" font-size="11.00" fill="#000000">SiteStateInterface</text>
</g>
<!-- \\Firesphere\\SolrSearch\\Interfaces\\ConfigStore -->
<g id="node6" class="node">
<title>\\Firesphere\\SolrSearch\\Interfaces\\ConfigStore</title>
<polygon fill="none" stroke="#000000" points="299.6275,-304.8283 208.6275,-304.8283 208.6275,-268.8283 299.6275,-268.8283 299.6275,-304.8283"/>
<text text-anchor="middle" x="254.1275" y="-284.0283" font-family="Courier,monospace" font-size="11.00" fill="#000000">ConfigStore</text>
</g>
<!-- \\Firesphere\\SolrSearch\\Models\\DirtyClass -->
<g id="node7" class="node">
<title>\\Firesphere\\SolrSearch\\Models\\DirtyClass</title>
<polygon fill="none" stroke="#000000" points="714.7549,-2776.8283 630.7549,-2776.8283 630.7549,-2740.8283 714.7549,-2740.8283 714.7549,-2776.8283"/>
<text text-anchor="middle" x="672.7549" y="-2756.0283" font-family="Courier,monospace" font-size="11.00" fill="#000000">DirtyClass</text>
</g>
<!-- \\SilverStripe\\ORM\\DataObject -->
<g id="node63" class="node">
<title>\\SilverStripe\\ORM\\DataObject</title>
<ellipse fill="none" stroke="#000000" cx="254.1275" cy="-126.8283" rx="152.9733" ry="18"/>
<text text-anchor="middle" x="254.1275" y="-123.1283" font-family="Times,serif" font-size="14.00" fill="#c0c0c0">\SilverStripe\ORM\DataObject</text>
</g>
<!-- \\Firesphere\\SolrSearch\\Models\\DirtyClass&#45;&gt;\\SilverStripe\\ORM\\DataObject -->
<g id="edge4" class="edge">
<title>\\Firesphere\\SolrSearch\\Models\\DirtyClass&#45;&gt;\\SilverStripe\\ORM\\DataObject</title>
<path fill="none" stroke="#000000" d="M630.6911,-2758.6772C609.7363,-2756.2052 585.9989,-2749.2902 572.2549,-2731.8283 398.4037,-2510.9498 678.9815,-426.1308 508.2549,-202.8283 481.6578,-168.0406 439.7556,-148.6106 397.5885,-137.929"/>
<polygon fill="none" stroke="#000000" points="398.2752,-134.4948 387.737,-135.589 396.6574,-141.3053 398.2752,-134.4948"/>
</g>
<!-- \\Firesphere\\SolrSearch\\Models\\SolrLog -->
<g id="node8" class="node">
<title>\\Firesphere\\SolrSearch\\Models\\SolrLog</title>
<polygon fill="none" stroke="#000000" points="704.7549,-2830.8283 640.7549,-2830.8283 640.7549,-2794.8283 704.7549,-2794.8283 704.7549,-2830.8283"/>
<text text-anchor="middle" x="672.7549" y="-2810.0283" font-family="Courier,monospace" font-size="11.00" fill="#000000">SolrLog</text>
</g>
<!-- \\Firesphere\\SolrSearch\\Models\\SolrLog&#45;&gt;\\SilverStripe\\ORM\\DataObject -->
<g id="edge5" class="edge">
<title>\\Firesphere\\SolrSearch\\Models\\SolrLog&#45;&gt;\\SilverStripe\\ORM\\DataObject</title>
<path fill="none" stroke="#000000" d="M640.6343,-2813.5594C617.7152,-2812.1789 588.2284,-2806.1337 572.2549,-2785.8283 394.7536,-2560.1896 682.5644,-430.9419 508.2549,-202.8283 481.667,-168.0336 439.7672,-148.6018 397.5994,-137.9207"/>
<polygon fill="none" stroke="#000000" points="398.2859,-134.4864 387.7477,-135.5808 396.6683,-141.2969 398.2859,-134.4864"/>
</g>
<!-- \\SilverStripe\\Security\\PermissionProvider -->
<g id="node64" class="node">
<title>\\SilverStripe\\Security\\PermissionProvider</title>
<ellipse fill="none" stroke="#000000" cx="254.1275" cy="-3640.8283" rx="206.0634" ry="18"/>
<text text-anchor="middle" x="254.1275" y="-3637.1283" font-family="Times,serif" font-size="14.00" fill="#c0c0c0">\SilverStripe\Security\PermissionProvider</text>
</g>
<!-- \\Firesphere\\SolrSearch\\Models\\SolrLog&#45;&gt;\\SilverStripe\\Security\\PermissionProvider -->
<g id="edge6" class="edge">
<title>\\Firesphere\\SolrSearch\\Models\\SolrLog&#45;&gt;\\SilverStripe\\Security\\PermissionProvider</title>
<path fill="none" stroke="#000000" stroke-dasharray="1,5" d="M640.4558,-2819.983C617.4456,-2826.8815 587.923,-2839.7821 572.2549,-2862.8283 478.0852,-3001.3427 625.4507,-3494.165 508.2549,-3613.8283 468.8828,-3654.0294 406.1498,-3661.0248 352.8658,-3657.849"/>
<polygon fill="none" stroke="#000000" points="352.9161,-3654.3436 342.6901,-3657.1144 352.412,-3661.3254 352.9161,-3654.3436"/>
</g>
<!-- \\Firesphere\\SolrSearch\\Models\\SearchSynonym -->
<g id="node9" class="node">
<title>\\Firesphere\\SolrSearch\\Models\\SearchSynonym</title>
<polygon fill="none" stroke="#000000" points="724.7549,-2722.8283 620.7549,-2722.8283 620.7549,-2686.8283 724.7549,-2686.8283 724.7549,-2722.8283"/>
<text text-anchor="middle" x="672.7549" y="-2702.0283" font-family="Courier,monospace" font-size="11.00" fill="#000000">SearchSynonym</text>
</g>
<!-- \\Firesphere\\SolrSearch\\Models\\SearchSynonym&#45;&gt;\\SilverStripe\\ORM\\DataObject -->
<g id="edge7" class="edge">
<title>\\Firesphere\\SolrSearch\\Models\\SearchSynonym&#45;&gt;\\SilverStripe\\ORM\\DataObject</title>
<path fill="none" stroke="#000000" d="M620.711,-2701.563C602.5095,-2697.6367 583.765,-2689.8659 572.2549,-2674.8283 405.2545,-2456.6468 675.1997,-421.0524 508.2549,-202.8283 481.6477,-168.0484 439.7429,-148.6204 397.5765,-137.9382"/>
<polygon fill="none" stroke="#000000" points="398.2634,-134.504 387.7252,-135.598 396.6455,-141.3145 398.2634,-134.504"/>
</g>
<!-- \\Firesphere\\SolrSearch\\Services\\SchemaService -->
<g id="node10" class="node">
<title>\\Firesphere\\SolrSearch\\Services\\SchemaService</title>
<polygon fill="none" stroke="#000000" points="724.7549,-2964.8283 620.7549,-2964.8283 620.7549,-2928.8283 724.7549,-2928.8283 724.7549,-2964.8283"/>
<text text-anchor="middle" x="672.7549" y="-2944.0283" font-family="Courier,monospace" font-size="11.00" fill="#000000">SchemaService</text>
</g>
<!-- \\SilverStripe\\View\\ViewableData -->
<g id="node65" class="node">
<title>\\SilverStripe\\View\\ViewableData</title>
<ellipse fill="none" stroke="#000000" cx="254.1275" cy="-3694.8283" rx="163.2712" ry="18"/>
<text text-anchor="middle" x="254.1275" y="-3691.1283" font-family="Times,serif" font-size="14.00" fill="#c0c0c0">\SilverStripe\View\ViewableData</text>
</g>
<!-- \\Firesphere\\SolrSearch\\Services\\SchemaService&#45;&gt;\\SilverStripe\\View\\ViewableData -->
<g id="edge8" class="edge">
<title>\\Firesphere\\SolrSearch\\Services\\SchemaService&#45;&gt;\\SilverStripe\\View\\ViewableData</title>
<path fill="none" stroke="#000000" d="M671.3994,-2964.9269C663.3653,-3067.0249 618.5358,-3569.8951 508.2549,-3667.8283 468.134,-3703.457 409.2059,-3711.4486 358.194,-3709.9638"/>
<polygon fill="none" stroke="#000000" points="358.2414,-3706.4628 348.105,-3709.5459 357.9516,-3713.4569 358.2414,-3706.4628"/>
</g>
<!-- \\Firesphere\\SolrSearch\\Services\\SolrCoreService -->
<g id="node11" class="node">
<title>\\Firesphere\\SolrSearch\\Services\\SolrCoreService</title>
<polygon fill="none" stroke="#000000" points="731.7549,-2910.8283 613.7549,-2910.8283 613.7549,-2874.8283 731.7549,-2874.8283 731.7549,-2910.8283"/>
<text text-anchor="middle" x="672.7549" y="-2890.0283" font-family="Courier,monospace" font-size="11.00" fill="#000000">SolrCoreService</text>
</g>
<!-- \\Firesphere\\SolrSearch\\Factories\\QueryComponentFactory -->
<g id="node12" class="node">
<title>\\Firesphere\\SolrSearch\\Factories\\QueryComponentFactory</title>
<polygon fill="none" stroke="#000000" points="751.7549,-2642.8283 593.7549,-2642.8283 593.7549,-2606.8283 751.7549,-2606.8283 751.7549,-2642.8283"/>
<text text-anchor="middle" x="672.7549" y="-2622.0283" font-family="Courier,monospace" font-size="11.00" fill="#000000">QueryComponentFactory</text>
</g>
<!-- \\Firesphere\\SolrSearch\\Factories\\DocumentFactory -->
<g id="node13" class="node">
<title>\\Firesphere\\SolrSearch\\Factories\\DocumentFactory</title>
<polygon fill="none" stroke="#000000" points="731.7549,-2588.8283 613.7549,-2588.8283 613.7549,-2552.8283 731.7549,-2552.8283 731.7549,-2588.8283"/>
<text text-anchor="middle" x="672.7549" y="-2568.0283" font-family="Courier,monospace" font-size="11.00" fill="#000000">DocumentFactory</text>
</g>
<!-- \\Firesphere\\SolrSearch\\States\\SiteState -->
<g id="node14" class="node">
<title>\\Firesphere\\SolrSearch\\States\\SiteState</title>
<polygon fill="none" stroke="#000000" points="714.7549,-2508.8283 630.7549,-2508.8283 630.7549,-2472.8283 714.7549,-2472.8283 714.7549,-2508.8283"/>
<text text-anchor="start" x="638.7549" y="-2494.0283" font-family="Courier,monospace" font-size="11.00" fill="#000000">«abstract»</text>
<text text-anchor="start" x="642.2549" y="-2482.0283" font-family="Courier,monospace" font-size="11.00" fill="#000000">SiteState</text>
</g>
<!-- \\Firesphere\\SolrSearch\\Results\\SearchResult -->
<g id="node15" class="node">
<title>\\Firesphere\\SolrSearch\\Results\\SearchResult</title>
<polygon fill="none" stroke="#000000" points="721.7549,-2428.8283 623.7549,-2428.8283 623.7549,-2392.8283 721.7549,-2392.8283 721.7549,-2428.8283"/>
<text text-anchor="middle" x="672.7549" y="-2408.0283" font-family="Courier,monospace" font-size="11.00" fill="#000000">SearchResult</text>
</g>
<!-- \\Firesphere\\SolrSearch\\Extensions\\GridFieldExtension -->
<g id="node17" class="node">
<title>\\Firesphere\\SolrSearch\\Extensions\\GridFieldExtension</title>
<polygon fill="none" stroke="#000000" points="741.7549,-2214.8283 603.7549,-2214.8283 603.7549,-2178.8283 741.7549,-2178.8283 741.7549,-2214.8283"/>
<text text-anchor="middle" x="672.7549" y="-2194.0283" font-family="Courier,monospace" font-size="11.00" fill="#000000">GridFieldExtension</text>
</g>
<!-- \\Firesphere\\SolrSearch\\Extensions\\GridFieldExtension&#45;&gt;\\SilverStripe\\Core\\Extension -->
<g id="edge9" class="edge">
<title>\\Firesphere\\SolrSearch\\Extensions\\GridFieldExtension&#45;&gt;\\SilverStripe\\Core\\Extension</title>
<path fill="none" stroke="#000000" d="M603.5034,-2188.5285C591.3741,-2183.9492 580.1347,-2177.0775 572.2549,-2166.8283 428.5493,-1979.9111 668.5455,-218.7337 508.2549,-45.8283 466.3552,-.6311 395.1031,3.4663 338.6894,-2.2408"/>
<polygon fill="none" stroke="#000000" points="338.2425,1.2311 328.698,-3.368 339.0273,-5.7247 338.2425,1.2311"/>
</g>
<!-- \\Firesphere\\SolrSearch\\Extensions\\DataObjectExtension -->
<g id="node18" class="node">
<title>\\Firesphere\\SolrSearch\\Extensions\\DataObjectExtension</title>
<polygon fill="none" stroke="#000000" points="745.2549,-2268.8283 600.2549,-2268.8283 600.2549,-2232.8283 745.2549,-2232.8283 745.2549,-2268.8283"/>
<text text-anchor="middle" x="672.7549" y="-2248.0283" font-family="Courier,monospace" font-size="11.00" fill="#000000">DataObjectExtension</text>
</g>
<!-- \\SilverStripe\\ORM\\DataExtension -->
<g id="node66" class="node">
<title>\\SilverStripe\\ORM\\DataExtension</title>
<ellipse fill="none" stroke="#000000" cx="254.1275" cy="-72.8283" rx="167.8704" ry="18"/>
<text text-anchor="middle" x="254.1275" y="-69.1283" font-family="Times,serif" font-size="14.00" fill="#c0c0c0">\SilverStripe\ORM\DataExtension</text>
</g>
<!-- \\Firesphere\\SolrSearch\\Extensions\\DataObjectExtension&#45;&gt;\\SilverStripe\\ORM\\DataExtension -->
<g id="edge10" class="edge">
<title>\\Firesphere\\SolrSearch\\Extensions\\DataObjectExtension&#45;&gt;\\SilverStripe\\ORM\\DataExtension</title>
<path fill="none" stroke="#000000" d="M600.0629,-2243.3503C589.296,-2239.1187 579.4282,-2232.8969 572.2549,-2223.8283 425.7783,-2038.6496 668.7683,-272.9814 508.2549,-99.8283 467.3657,-55.7193 398.5207,-50.7542 342.7933,-55.8451"/>
<polygon fill="none" stroke="#000000" points="342.1365,-52.3943 332.5501,-56.9056 342.8574,-59.3571 342.1365,-52.3943"/>
</g>
<!-- \\Firesphere\\SolrSearch\\Helpers\\Synonyms -->
<g id="node19" class="node">
<title>\\Firesphere\\SolrSearch\\Helpers\\Synonyms</title>
<polygon fill="none" stroke="#000000" points="708.2549,-2134.8283 637.2549,-2134.8283 637.2549,-2098.8283 708.2549,-2098.8283 708.2549,-2134.8283"/>
<text text-anchor="middle" x="672.7549" y="-2114.0283" font-family="Courier,monospace" font-size="11.00" fill="#000000">Synonyms</text>
</g>
<!-- \\Firesphere\\SolrSearch\\Helpers\\FieldResolver -->
<g id="node20" class="node">
<title>\\Firesphere\\SolrSearch\\Helpers\\FieldResolver</title>
<polygon fill="none" stroke="#000000" points="724.7549,-2080.8283 620.7549,-2080.8283 620.7549,-2044.8283 724.7549,-2044.8283 724.7549,-2080.8283"/>
<text text-anchor="middle" x="672.7549" y="-2060.0283" font-family="Courier,monospace" font-size="11.00" fill="#000000">FieldResolver</text>
</g>
<!-- \\Firesphere\\SolrSearch\\Helpers\\SolrLogger -->
<g id="node21" class="node">
<title>\\Firesphere\\SolrSearch\\Helpers\\SolrLogger</title>
<polygon fill="none" stroke="#000000" points="714.7549,-2026.8283 630.7549,-2026.8283 630.7549,-1990.8283 714.7549,-1990.8283 714.7549,-2026.8283"/>
<text text-anchor="middle" x="672.7549" y="-2006.0283" font-family="Courier,monospace" font-size="11.00" fill="#000000">SolrLogger</text>
</g>
<!-- \\Firesphere\\SolrSearch\\Helpers\\Statics -->
<g id="node22" class="node">
<title>\\Firesphere\\SolrSearch\\Helpers\\Statics</title>
<polygon fill="none" stroke="#000000" points="704.7549,-1972.8283 640.7549,-1972.8283 640.7549,-1936.8283 704.7549,-1936.8283 704.7549,-1972.8283"/>
<text text-anchor="middle" x="672.7549" y="-1952.0283" font-family="Courier,monospace" font-size="11.00" fill="#000000">Statics</text>
</g>
<!-- \\Firesphere\\SolrSearch\\Helpers\\DataResolver -->
<g id="node23" class="node">
<title>\\Firesphere\\SolrSearch\\Helpers\\DataResolver</title>
<polygon fill="none" stroke="#000000" points="721.7549,-1918.8283 623.7549,-1918.8283 623.7549,-1882.8283 721.7549,-1882.8283 721.7549,-1918.8283"/>
<text text-anchor="middle" x="672.7549" y="-1898.0283" font-family="Courier,monospace" font-size="11.00" fill="#000000">DataResolver</text>
</g>
<!-- \\Firesphere\\SolrSearch\\Admins\\SearchAdmin -->
<g id="node24" class="node">
<title>\\Firesphere\\SolrSearch\\Admins\\SearchAdmin</title>
<polygon fill="none" stroke="#000000" points="718.2549,-1838.8283 627.2549,-1838.8283 627.2549,-1802.8283 718.2549,-1802.8283 718.2549,-1838.8283"/>
<text text-anchor="middle" x="672.7549" y="-1818.0283" font-family="Courier,monospace" font-size="11.00" fill="#000000">SearchAdmin</text>
</g>
<!-- \\SilverStripe\\Admin\\ModelAdmin -->
<g id="node67" class="node">
<title>\\SilverStripe\\Admin\\ModelAdmin</title>
<ellipse fill="none" stroke="#000000" cx="254.1275" cy="-3586.8283" rx="165.1707" ry="18"/>
<text text-anchor="middle" x="254.1275" y="-3583.1283" font-family="Times,serif" font-size="14.00" fill="#c0c0c0">\SilverStripe\Admin\ModelAdmin</text>
</g>
<!-- \\Firesphere\\SolrSearch\\Admins\\SearchAdmin&#45;&gt;\\SilverStripe\\Admin\\ModelAdmin -->
<g id="edge11" class="edge">
<title>\\Firesphere\\SolrSearch\\Admins\\SearchAdmin&#45;&gt;\\SilverStripe\\Admin\\ModelAdmin</title>
<path fill="none" stroke="#000000" d="M627.2453,-1832.0077C606.8703,-1839.4824 584.6791,-1851.5936 572.2549,-1870.8283 470.3573,-2028.582 636.4613,-3422.5969 508.2549,-3559.8283 467.2664,-3603.7022 398.5991,-3608.7356 342.9701,-3603.7323"/>
<polygon fill="none" stroke="#000000" points="343.0481,-3600.2221 332.7443,-3602.6883 342.3371,-3607.1859 343.0481,-3600.2221"/>
</g>
<!-- \\Firesphere\\SolrSearch\\Jobs\\ClearDirtyClassesJob -->
<g id="node25" class="node">
<title>\\Firesphere\\SolrSearch\\Jobs\\ClearDirtyClassesJob</title>
<polygon fill="none" stroke="#000000" points="748.7549,-1758.8283 596.7549,-1758.8283 596.7549,-1722.8283 748.7549,-1722.8283 748.7549,-1758.8283"/>
<text text-anchor="middle" x="672.7549" y="-1738.0283" font-family="Courier,monospace" font-size="11.00" fill="#000000">ClearDirtyClassesJob</text>
</g>
<!-- \\Symbiote\\QueuedJobs\\Services\\AbstractQueuedJob -->
<g id="node68" class="node">
<title>\\Symbiote\\QueuedJobs\\Services\\AbstractQueuedJob</title>
<ellipse fill="none" stroke="#000000" cx="254.1275" cy="-3532.8283" rx="254.255" ry="18"/>
<text text-anchor="middle" x="254.1275" y="-3529.1283" font-family="Times,serif" font-size="14.00" fill="#c0c0c0">\Symbiote\QueuedJobs\Services\AbstractQueuedJob</text>
</g>
<!-- \\Firesphere\\SolrSearch\\Jobs\\ClearDirtyClassesJob&#45;&gt;\\Symbiote\\QueuedJobs\\Services\\AbstractQueuedJob -->
<g id="edge12" class="edge">
<title>\\Firesphere\\SolrSearch\\Jobs\\ClearDirtyClassesJob&#45;&gt;\\Symbiote\\QueuedJobs\\Services\\AbstractQueuedJob</title>
<path fill="none" stroke="#000000" d="M610.9468,-1758.9343C595.8354,-1766.3654 581.3972,-1776.6657 572.2549,-1790.8283 468.8369,-1951.0367 638.3921,-3366.4501 508.2549,-3505.8283 469.7107,-3547.1095 406.6639,-3554.0125 353.0126,-3550.5194"/>
<polygon fill="none" stroke="#000000" points="353.0071,-3547.0084 342.7654,-3549.7209 352.4632,-3553.9873 353.0071,-3547.0084"/>
</g>
<!-- \\Firesphere\\SolrSearch\\Jobs\\SolrIndexJob -->
<g id="node26" class="node">
<title>\\Firesphere\\SolrSearch\\Jobs\\SolrIndexJob</title>
<polygon fill="none" stroke="#000000" points="721.7549,-1704.8283 623.7549,-1704.8283 623.7549,-1668.8283 721.7549,-1668.8283 721.7549,-1704.8283"/>
<text text-anchor="middle" x="672.7549" y="-1684.0283" font-family="Courier,monospace" font-size="11.00" fill="#000000">SolrIndexJob</text>
</g>
<!-- \\Firesphere\\SolrSearch\\Jobs\\SolrIndexJob&#45;&gt;\\Symbiote\\QueuedJobs\\Services\\AbstractQueuedJob -->
<g id="edge13" class="edge">
<title>\\Firesphere\\SolrSearch\\Jobs\\SolrIndexJob&#45;&gt;\\Symbiote\\QueuedJobs\\Services\\AbstractQueuedJob</title>
<path fill="none" stroke="#000000" d="M623.5259,-1688.068C604.5543,-1691.2352 584.5149,-1698.4175 572.2549,-1713.8283 448.216,-1869.7454 644.1104,-3360.092 508.2549,-3505.8283 469.6727,-3547.2166 406.4644,-3554.0689 352.7407,-3550.5233"/>
<polygon fill="none" stroke="#000000" points="352.7248,-3547.0113 342.4807,-3549.7146 352.1748,-3553.9896 352.7248,-3547.0113"/>
</g>
<!-- \\Firesphere\\SolrSearch\\Jobs\\SolrConfigureJob -->
<g id="node27" class="node">
<title>\\Firesphere\\SolrSearch\\Jobs\\SolrConfigureJob</title>
<polygon fill="none" stroke="#000000" points="735.2549,-1650.8283 610.2549,-1650.8283 610.2549,-1614.8283 735.2549,-1614.8283 735.2549,-1650.8283"/>
<text text-anchor="middle" x="672.7549" y="-1630.0283" font-family="Courier,monospace" font-size="11.00" fill="#000000">SolrConfigureJob</text>
</g>
<!-- \\Firesphere\\SolrSearch\\Jobs\\SolrConfigureJob&#45;&gt;\\Symbiote\\QueuedJobs\\Services\\AbstractQueuedJob -->
<g id="edge14" class="edge">
<title>\\Firesphere\\SolrSearch\\Jobs\\SolrConfigureJob&#45;&gt;\\Symbiote\\QueuedJobs\\Services\\AbstractQueuedJob</title>
<path fill="none" stroke="#000000" d="M610.1405,-1636.9974C595.5955,-1641.0395 581.6405,-1648.0179 572.2549,-1659.8283 444.5667,-1820.5046 648.1208,-3355.6329 508.2549,-3505.8283 469.6943,-3547.2367 406.4861,-3554.0891 352.757,-3550.5385"/>
<polygon fill="none" stroke="#000000" points="352.7403,-3547.0264 342.4959,-3549.7288 352.1896,-3554.0047 352.7403,-3547.0264"/>
</g>
<!-- \\Firesphere\\SolrSearch\\Traits\\GetSetSearchResolverTrait -->
<g id="node28" class="node">
<title>\\Firesphere\\SolrSearch\\Traits\\GetSetSearchResolverTrait</title>
<polygon fill="none" stroke="#000000" points="765.2549,-1570.8283 580.2549,-1570.8283 580.2549,-1534.8283 765.2549,-1534.8283 765.2549,-1570.8283"/>
<text text-anchor="middle" x="672.7549" y="-1550.0283" font-family="Courier,monospace" font-size="11.00" fill="#000000">GetSetSearchResolverTrait</text>
</g>
<!-- \\Firesphere\\SolrSearch\\Traits\\CoreServiceTrait -->
<g id="node29" class="node">
<title>\\Firesphere\\SolrSearch\\Traits\\CoreServiceTrait</title>
<polygon fill="none" stroke="#000000" points="735.2549,-1516.8283 610.2549,-1516.8283 610.2549,-1480.8283 735.2549,-1480.8283 735.2549,-1516.8283"/>
<text text-anchor="middle" x="672.7549" y="-1496.0283" font-family="Courier,monospace" font-size="11.00" fill="#000000">CoreServiceTrait</text>
</g>
<!-- \\Firesphere\\SolrSearch\\Traits\\CoreAdminTrait -->
<g id="node30" class="node">
<title>\\Firesphere\\SolrSearch\\Traits\\CoreAdminTrait</title>
<polygon fill="none" stroke="#000000" points="728.2549,-1462.8283 617.2549,-1462.8283 617.2549,-1426.8283 728.2549,-1426.8283 728.2549,-1462.8283"/>
<text text-anchor="middle" x="672.7549" y="-1442.0283" font-family="Courier,monospace" font-size="11.00" fill="#000000">CoreAdminTrait</text>
</g>
<!-- \\Firesphere\\SolrSearch\\Traits\\GetSetSchemaServiceTrait -->
<g id="node31" class="node">
<title>\\Firesphere\\SolrSearch\\Traits\\GetSetSchemaServiceTrait</title>
<polygon fill="none" stroke="#000000" points="762.2549,-1408.8283 583.2549,-1408.8283 583.2549,-1372.8283 762.2549,-1372.8283 762.2549,-1408.8283"/>
<text text-anchor="middle" x="672.7549" y="-1388.0283" font-family="Courier,monospace" font-size="11.00" fill="#000000">GetSetSchemaServiceTrait</text>
</g>
<!-- \\Firesphere\\SolrSearch\\Traits\\BaseIndexTrait -->
<g id="node32" class="node">
<title>\\Firesphere\\SolrSearch\\Traits\\BaseIndexTrait</title>
<polygon fill="none" stroke="#000000" points="728.2549,-1354.8283 617.2549,-1354.8283 617.2549,-1318.8283 728.2549,-1318.8283 728.2549,-1354.8283"/>
<text text-anchor="middle" x="672.7549" y="-1334.0283" font-family="Courier,monospace" font-size="11.00" fill="#000000">BaseIndexTrait</text>
</g>
<!-- \\Firesphere\\SolrSearch\\Traits\\SolrIndexTrait -->
<g id="node33" class="node">
<title>\\Firesphere\\SolrSearch\\Traits\\SolrIndexTrait</title>
<polygon fill="none" stroke="#000000" points="728.2549,-1300.8283 617.2549,-1300.8283 617.2549,-1264.8283 728.2549,-1264.8283 728.2549,-1300.8283"/>
<text text-anchor="middle" x="672.7549" y="-1280.0283" font-family="Courier,monospace" font-size="11.00" fill="#000000">SolrIndexTrait</text>
</g>
<!-- \\Firesphere\\SolrSearch\\Traits\\GetterSetterTrait -->
<g id="node34" class="node">
<title>\\Firesphere\\SolrSearch\\Traits\\GetterSetterTrait</title>
<polygon fill="none" stroke="#000000" points="738.2549,-1246.8283 607.2549,-1246.8283 607.2549,-1210.8283 738.2549,-1210.8283 738.2549,-1246.8283"/>
<text text-anchor="middle" x="672.7549" y="-1226.0283" font-family="Courier,monospace" font-size="11.00" fill="#000000">GetterSetterTrait</text>
</g>
<!-- \\Firesphere\\SolrSearch\\Traits\\DataResolveTrait -->
<g id="node35" class="node">
<title>\\Firesphere\\SolrSearch\\Traits\\DataResolveTrait</title>
<polygon fill="none" stroke="#000000" points="735.2549,-1192.8283 610.2549,-1192.8283 610.2549,-1156.8283 735.2549,-1156.8283 735.2549,-1192.8283"/>
<text text-anchor="middle" x="672.7549" y="-1172.0283" font-family="Courier,monospace" font-size="11.00" fill="#000000">DataResolveTrait</text>
</g>
<!-- \\Firesphere\\SolrSearch\\Traits\\QueryComponentFilterTrait -->
<g id="node36" class="node">
<title>\\Firesphere\\SolrSearch\\Traits\\QueryComponentFilterTrait</title>
<polygon fill="none" stroke="#000000" points="765.2549,-1138.8283 580.2549,-1138.8283 580.2549,-1102.8283 765.2549,-1102.8283 765.2549,-1138.8283"/>
<text text-anchor="middle" x="672.7549" y="-1118.0283" font-family="Courier,monospace" font-size="11.00" fill="#000000">QueryComponentFilterTrait</text>
</g>
<!-- \\Firesphere\\SolrSearch\\Traits\\QueryComponentFacetTrait -->
<g id="node37" class="node">
<title>\\Firesphere\\SolrSearch\\Traits\\QueryComponentFacetTrait</title>
<polygon fill="none" stroke="#000000" points="762.2549,-1084.8283 583.2549,-1084.8283 583.2549,-1048.8283 762.2549,-1048.8283 762.2549,-1084.8283"/>
<text text-anchor="middle" x="672.7549" y="-1064.0283" font-family="Courier,monospace" font-size="11.00" fill="#000000">QueryComponentFacetTrait</text>
</g>
<!-- \\Firesphere\\SolrSearch\\Traits\\QueryComponentBoostTrait -->
<g id="node38" class="node">
<title>\\Firesphere\\SolrSearch\\Traits\\QueryComponentBoostTrait</title>
<polygon fill="none" stroke="#000000" points="762.2549,-1030.8283 583.2549,-1030.8283 583.2549,-994.8283 762.2549,-994.8283 762.2549,-1030.8283"/>
<text text-anchor="middle" x="672.7549" y="-1010.0283" font-family="Courier,monospace" font-size="11.00" fill="#000000">QueryComponentBoostTrait</text>
</g>
<!-- \\Firesphere\\SolrSearch\\Traits\\LoggerTrait -->
<g id="node39" class="node">
<title>\\Firesphere\\SolrSearch\\Traits\\LoggerTrait</title>
<polygon fill="none" stroke="#000000" points="718.2549,-976.8283 627.2549,-976.8283 627.2549,-940.8283 718.2549,-940.8283 718.2549,-976.8283"/>
<text text-anchor="middle" x="672.7549" y="-956.0283" font-family="Courier,monospace" font-size="11.00" fill="#000000">LoggerTrait</text>
</g>
<!-- \\Firesphere\\SolrSearch\\Traits\\DocumentFactoryTrait -->
<g id="node40" class="node">
<title>\\Firesphere\\SolrSearch\\Traits\\DocumentFactoryTrait</title>
<polygon fill="none" stroke="#000000" points="748.7549,-922.8283 596.7549,-922.8283 596.7549,-886.8283 748.7549,-886.8283 748.7549,-922.8283"/>
<text text-anchor="middle" x="672.7549" y="-902.0283" font-family="Courier,monospace" font-size="11.00" fill="#000000">DocumentFactoryTrait</text>
</g>
<!-- \\Firesphere\\SolrSearch\\Traits\\SearchResultGetTrait -->
<g id="node41" class="node">
<title>\\Firesphere\\SolrSearch\\Traits\\SearchResultGetTrait</title>
<polygon fill="none" stroke="#000000" points="748.7549,-868.8283 596.7549,-868.8283 596.7549,-832.8283 748.7549,-832.8283 748.7549,-868.8283"/>
<text text-anchor="middle" x="672.7549" y="-848.0283" font-family="Courier,monospace" font-size="11.00" fill="#000000">SearchResultGetTrait</text>
</g>
<!-- \\Firesphere\\SolrSearch\\Traits\\SearchResultSetTrait -->
<g id="node42" class="node">
<title>\\Firesphere\\SolrSearch\\Traits\\SearchResultSetTrait</title>
<polygon fill="none" stroke="#000000" points="748.7549,-814.8283 596.7549,-814.8283 596.7549,-778.8283 748.7549,-778.8283 748.7549,-814.8283"/>
<text text-anchor="middle" x="672.7549" y="-794.0283" font-family="Courier,monospace" font-size="11.00" fill="#000000">SearchResultSetTrait</text>
</g>
<!-- \\Firesphere\\SolrSearch\\Traits\\BaseQueryTrait -->
<g id="node43" class="node">
<title>\\Firesphere\\SolrSearch\\Traits\\BaseQueryTrait</title>
<polygon fill="none" stroke="#000000" points="728.2549,-760.8283 617.2549,-760.8283 617.2549,-724.8283 728.2549,-724.8283 728.2549,-760.8283"/>
<text text-anchor="middle" x="672.7549" y="-740.0283" font-family="Courier,monospace" font-size="11.00" fill="#000000">BaseQueryTrait</text>
</g>
<!-- \\Firesphere\\SolrSearch\\Forms\\SearchForm -->
<g id="node44" class="node">
<title>\\Firesphere\\SolrSearch\\Forms\\SearchForm</title>
<polygon fill="none" stroke="#000000" points="714.7549,-680.8283 630.7549,-680.8283 630.7549,-644.8283 714.7549,-644.8283 714.7549,-680.8283"/>
<text text-anchor="middle" x="672.7549" y="-660.0283" font-family="Courier,monospace" font-size="11.00" fill="#000000">SearchForm</text>
</g>
<!-- \\SilverStripe\\Forms\\Form -->
<g id="node69" class="node">
<title>\\SilverStripe\\Forms\\Form</title>
<ellipse fill="none" stroke="#000000" cx="254.1275" cy="-3478.8283" rx="129.1772" ry="18"/>
<text text-anchor="middle" x="254.1275" y="-3475.1283" font-family="Times,serif" font-size="14.00" fill="#c0c0c0">\SilverStripe\Forms\Form</text>
</g>
<!-- \\Firesphere\\SolrSearch\\Forms\\SearchForm&#45;&gt;\\SilverStripe\\Forms\\Form -->
<g id="edge15" class="edge">
<title>\\Firesphere\\SolrSearch\\Forms\\SearchForm&#45;&gt;\\SilverStripe\\Forms\\Form</title>
<path fill="none" stroke="#000000" d="M630.7477,-672.6455C609.3968,-679.9671 585.2711,-692.3527 572.2549,-712.8283 490.5994,-841.2796 611.3532,-3339.8547 508.2549,-3451.8283 465.6586,-3498.0915 392.3279,-3501.4025 335.3541,-3495.1419"/>
<polygon fill="none" stroke="#000000" points="335.628,-3491.6495 325.2789,-3493.9179 334.7838,-3498.5984 335.628,-3491.6495"/>
</g>
<!-- \\Firesphere\\SolrSearch\\Stores\\PostConfigStore -->
<g id="node45" class="node">
<title>\\Firesphere\\SolrSearch\\Stores\\PostConfigStore</title>
<polygon fill="none" stroke="#000000" points="731.7549,-358.8283 613.7549,-358.8283 613.7549,-322.8283 731.7549,-322.8283 731.7549,-358.8283"/>
<text text-anchor="middle" x="672.7549" y="-338.0283" font-family="Courier,monospace" font-size="11.00" fill="#000000">PostConfigStore</text>
</g>
<!-- \\Firesphere\\SolrSearch\\Stores\\PostConfigStore&#45;&gt;\\Firesphere\\SolrSearch\\Interfaces\\ConfigStore -->
<g id="edge16" class="edge">
<title>\\Firesphere\\SolrSearch\\Stores\\PostConfigStore&#45;&gt;\\Firesphere\\SolrSearch\\Interfaces\\ConfigStore</title>
<path fill="none" stroke="#000000" stroke-dasharray="1,5" d="M613.6637,-333.206C532.8854,-322.7861 389.0185,-304.2283 309.9722,-294.0319"/>
<polygon fill="none" stroke="#000000" points="310.0944,-290.5187 299.7287,-292.7106 309.1988,-297.4612 310.0944,-290.5187"/>
</g>
<!-- \\Firesphere\\SolrSearch\\Stores\\FileConfigStore -->
<g id="node46" class="node">
<title>\\Firesphere\\SolrSearch\\Stores\\FileConfigStore</title>
<polygon fill="none" stroke="#000000" points="731.7549,-304.8283 613.7549,-304.8283 613.7549,-268.8283 731.7549,-268.8283 731.7549,-304.8283"/>
<text text-anchor="middle" x="672.7549" y="-284.0283" font-family="Courier,monospace" font-size="11.00" fill="#000000">FileConfigStore</text>
</g>
<!-- \\Firesphere\\SolrSearch\\Stores\\FileConfigStore&#45;&gt;\\Firesphere\\SolrSearch\\Interfaces\\ConfigStore -->
<g id="edge17" class="edge">
<title>\\Firesphere\\SolrSearch\\Stores\\FileConfigStore&#45;&gt;\\Firesphere\\SolrSearch\\Interfaces\\ConfigStore</title>
<path fill="none" stroke="#000000" stroke-dasharray="1,5" d="M613.6637,-286.8283C532.8854,-286.8283 389.0185,-286.8283 309.9722,-286.8283"/>
<polygon fill="none" stroke="#000000" points="309.7288,-283.3284 299.7287,-286.8283 309.7287,-290.3284 309.7288,-283.3284"/>
</g>
<!-- \\Firesphere\\SolrSearch\\Tasks\\SolrConfigureTask -->
<g id="node47" class="node">
<title>\\Firesphere\\SolrSearch\\Tasks\\SolrConfigureTask</title>
<polygon fill="none" stroke="#000000" points="738.2549,-600.8283 607.2549,-600.8283 607.2549,-564.8283 738.2549,-564.8283 738.2549,-600.8283"/>
<text text-anchor="middle" x="672.7549" y="-580.0283" font-family="Courier,monospace" font-size="11.00" fill="#000000">SolrConfigureTask</text>
</g>
<!-- \\SilverStripe\\Dev\\BuildTask -->
<g id="node70" class="node">
<title>\\SilverStripe\\Dev\\BuildTask</title>
<ellipse fill="none" stroke="#000000" cx="254.1275" cy="-3424.8283" rx="139.9756" ry="18"/>
<text text-anchor="middle" x="254.1275" y="-3421.1283" font-family="Times,serif" font-size="14.00" fill="#c0c0c0">\SilverStripe\Dev\BuildTask</text>
</g>
<!-- \\Firesphere\\SolrSearch\\Tasks\\SolrConfigureTask&#45;&gt;\\SilverStripe\\Dev\\BuildTask -->
<g id="edge18" class="edge">
<title>\\Firesphere\\SolrSearch\\Tasks\\SolrConfigureTask&#45;&gt;\\SilverStripe\\Dev\\BuildTask</title>
<path fill="none" stroke="#000000" d="M612.6958,-600.8942C597.2188,-608.3708 582.1534,-618.7048 572.2549,-632.8283 404.2267,-872.5771 271.6033,-3117.5037 255.7229,-3396.4323"/>
<polygon fill="none" stroke="#000000" points="252.221,-3396.3672 255.1491,-3406.5494 259.2098,-3396.7636 252.221,-3396.3672"/>
</g>
<!-- \\Firesphere\\SolrSearch\\Tasks\\ClearErrorsTask -->
<g id="node48" class="node">
<title>\\Firesphere\\SolrSearch\\Tasks\\ClearErrorsTask</title>
<polygon fill="none" stroke="#000000" points="731.7549,-546.8283 613.7549,-546.8283 613.7549,-510.8283 731.7549,-510.8283 731.7549,-546.8283"/>
<text text-anchor="middle" x="672.7549" y="-526.0283" font-family="Courier,monospace" font-size="11.00" fill="#000000">ClearErrorsTask</text>
</g>
<!-- \\Firesphere\\SolrSearch\\Tasks\\ClearErrorsTask&#45;&gt;\\SilverStripe\\Dev\\BuildTask -->
<g id="edge19" class="edge">
<title>\\Firesphere\\SolrSearch\\Tasks\\ClearErrorsTask&#45;&gt;\\SilverStripe\\Dev\\BuildTask</title>
<path fill="none" stroke="#000000" d="M613.6208,-532.7316C598.0665,-536.6473 582.7284,-543.628 572.2549,-555.8283 376.1615,-784.2529 267.9073,-3111.5395 255.3592,-3396.321"/>
<polygon fill="none" stroke="#000000" points="251.8486,-3396.4877 254.9075,-3406.6313 258.8419,-3396.7941 251.8486,-3396.4877"/>
</g>
<!-- \\Firesphere\\SolrSearch\\Tasks\\SolrIndexTask -->
<g id="node49" class="node">
<title>\\Firesphere\\SolrSearch\\Tasks\\SolrIndexTask</title>
<polygon fill="none" stroke="#000000" points="724.7549,-492.8283 620.7549,-492.8283 620.7549,-456.8283 724.7549,-456.8283 724.7549,-492.8283"/>
<text text-anchor="middle" x="672.7549" y="-472.0283" font-family="Courier,monospace" font-size="11.00" fill="#000000">SolrIndexTask</text>
</g>
<!-- \\Firesphere\\SolrSearch\\Tasks\\SolrIndexTask&#45;&gt;\\SilverStripe\\Dev\\BuildTask -->
<g id="edge20" class="edge">
<title>\\Firesphere\\SolrSearch\\Tasks\\SolrIndexTask&#45;&gt;\\SilverStripe\\Dev\\BuildTask</title>
<path fill="none" stroke="#000000" d="M620.6823,-477.1407C602.8145,-480.6351 584.3029,-487.7652 572.2549,-501.8283 372.5495,-734.9374 267.2765,-3110.4452 255.2841,-3396.6575"/>
<polygon fill="none" stroke="#000000" points="251.787,-3396.5159 254.8677,-3406.653 258.781,-3396.8073 251.787,-3396.5159"/>
</g>
<!-- \\Firesphere\\SolrSearch\\Tasks\\ClearDirtyClassesTask -->
<g id="node50" class="node">
<title>\\Firesphere\\SolrSearch\\Tasks\\ClearDirtyClassesTask</title>
<polygon fill="none" stroke="#000000" points="751.7549,-438.8283 593.7549,-438.8283 593.7549,-402.8283 751.7549,-402.8283 751.7549,-438.8283"/>
<text text-anchor="middle" x="672.7549" y="-418.0283" font-family="Courier,monospace" font-size="11.00" fill="#000000">ClearDirtyClassesTask</text>
</g>
<!-- \\Firesphere\\SolrSearch\\Tasks\\ClearDirtyClassesTask&#45;&gt;\\SilverStripe\\Dev\\BuildTask -->
<g id="edge21" class="edge">
<title>\\Firesphere\\SolrSearch\\Tasks\\ClearDirtyClassesTask&#45;&gt;\\SilverStripe\\Dev\\BuildTask</title>
<path fill="none" stroke="#000000" d="M593.6622,-431.8035C585.5363,-435.7487 578.1253,-440.9625 572.2549,-447.8283 369.0304,-685.5142 266.7589,-3107.1383 255.2289,-3396.5856"/>
<polygon fill="none" stroke="#000000" points="251.7275,-3396.5538 254.8291,-3406.6845 258.722,-3396.8308 251.7275,-3396.5538"/>
</g>
<!-- \\Firesphere\\SolrFluent\\States\\FluentSiteState -->
<g id="node52" class="node">
<title>\\Firesphere\\SolrFluent\\States\\FluentSiteState</title>
<polygon fill="none" stroke="#000000" points="985.7549,-802.8283 867.7549,-802.8283 867.7549,-766.8283 985.7549,-766.8283 985.7549,-802.8283"/>
<text text-anchor="middle" x="926.7549" y="-782.0283" font-family="Courier,monospace" font-size="11.00" fill="#000000">FluentSiteState</text>
</g>
<!-- \\Firesphere\\SolrFluent\\States\\FluentSiteState&#45;&gt;\\Firesphere\\SolrSearch\\Interfaces\\SiteStateInterface -->
<g id="edge23" class="edge">
<title>\\Firesphere\\SolrFluent\\States\\FluentSiteState&#45;&gt;\\Firesphere\\SolrSearch\\Interfaces\\SiteStateInterface</title>
<path fill="none" stroke="#000000" stroke-dasharray="1,5" d="M867.5782,-780.8275C850.1159,-776.632 832.6497,-768.8784 821.2549,-754.8283 740.1545,-654.8297 872.5083,-267.6568 781.2549,-176.8283 747.0061,-142.739 714.2114,-194.6561 672.7549,-169.8283"/>
<path fill="none" stroke="#000000" stroke-dasharray="1,5" d="M672.7549,-169.8283C615.031,-135.2582 425.738,-182.364 322.6022,-211.9983"/>
<polygon fill="none" stroke="#000000" points="321.5296,-208.665 312.8976,-214.8083 323.4765,-215.3889 321.5296,-208.665"/>
</g>
<!-- \\Firesphere\\SolrFluent\\States\\FluentSiteState&#45;&gt;\\Firesphere\\SolrSearch\\States\\SiteState -->
<g id="edge22" class="edge">
<title>\\Firesphere\\SolrFluent\\States\\FluentSiteState&#45;&gt;\\Firesphere\\SolrSearch\\States\\SiteState</title>
<path fill="none" stroke="#000000" d="M891.4155,-802.8793C866.8755,-817.5367 836.0317,-840.702 821.2549,-870.8283 782.343,-950.1604 835.6465,-2391.1916 781.2549,-2460.8283 767.9183,-2477.903 745.7856,-2485.8153 724.976,-2489.2987"/>
<polygon fill="none" stroke="#000000" points="724.3453,-2485.8523 714.9111,-2490.6737 725.2928,-2492.7879 724.3453,-2485.8523"/>
</g>
<!-- \\Firesphere\\SolrFluent\\Extensions\\FluentSchemaExtension -->
<g id="node53" class="node">
<title>\\Firesphere\\SolrFluent\\Extensions\\FluentSchemaExtension</title>
<polygon fill="none" stroke="#000000" points="1005.7549,-614.8283 847.7549,-614.8283 847.7549,-578.8283 1005.7549,-578.8283 1005.7549,-614.8283"/>
<text text-anchor="middle" x="926.7549" y="-594.0283" font-family="Courier,monospace" font-size="11.00" fill="#000000">FluentSchemaExtension</text>
</g>
<!-- \\Firesphere\\SolrFluent\\Extensions\\FluentSchemaExtension&#45;&gt;\\SilverStripe\\Core\\Extension -->
<g id="edge24" class="edge">
<title>\\Firesphere\\SolrFluent\\Extensions\\FluentSchemaExtension&#45;&gt;\\SilverStripe\\Core\\Extension</title>
<path fill="none" stroke="#000000" d="M879.6471,-578.7951C858.277,-568.1334 834.8036,-552.4237 821.2549,-530.8283 734.2905,-392.2149 870.9657,-301.6803 781.2549,-164.8283 750.8059,-118.3789 718.2168,-134.733 672.7549,-102.8283"/>
</g>
<!-- \\Firesphere\\SolrFluent\\Extensions\\FluentDocumentExtension -->
<g id="node54" class="node">
<title>\\Firesphere\\SolrFluent\\Extensions\\FluentDocumentExtension</title>
<polygon fill="none" stroke="#000000" points="1012.7549,-722.8283 840.7549,-722.8283 840.7549,-686.8283 1012.7549,-686.8283 1012.7549,-722.8283"/>
<text text-anchor="middle" x="926.7549" y="-702.0283" font-family="Courier,monospace" font-size="11.00" fill="#000000">FluentDocumentExtension</text>
</g>
<!-- \\Firesphere\\SolrFluent\\Extensions\\FluentDocumentExtension&#45;&gt;\\SilverStripe\\Core\\Extension -->
<g id="edge25" class="edge">
<title>\\Firesphere\\SolrFluent\\Extensions\\FluentDocumentExtension&#45;&gt;\\SilverStripe\\Core\\Extension</title>
<path fill="none" stroke="#000000" d="M840.5463,-693.0478C833.2373,-689.1725 826.6078,-684.196 821.2549,-677.8283 747.6758,-590.3004 842.4518,-261.42 781.2549,-164.8283 751.5304,-117.9119 718.2168,-134.733 672.7549,-102.8283"/>
</g>
<!-- \\Firesphere\\SolrFluent\\Extensions\\FluentIndexExtension -->
<g id="node55" class="node">
<title>\\Firesphere\\SolrFluent\\Extensions\\FluentIndexExtension</title>
<polygon fill="none" stroke="#000000" points="1002.7549,-668.8283 850.7549,-668.8283 850.7549,-632.8283 1002.7549,-632.8283 1002.7549,-668.8283"/>
<text text-anchor="middle" x="926.7549" y="-648.0283" font-family="Courier,monospace" font-size="11.00" fill="#000000">FluentIndexExtension</text>
</g>
<!-- \\Firesphere\\SolrFluent\\Extensions\\FluentIndexExtension&#45;&gt;\\SilverStripe\\Core\\Extension -->
<g id="edge26" class="edge">
<title>\\Firesphere\\SolrFluent\\Extensions\\FluentIndexExtension&#45;&gt;\\SilverStripe\\Core\\Extension</title>
<path fill="none" stroke="#000000" d="M850.6833,-643.5167C839.4269,-639.2571 829.0219,-632.9828 821.2549,-623.8283 755.0151,-545.7559 836.4446,-251.067 781.2549,-164.8283 751.317,-118.0478 718.2168,-134.733 672.7549,-102.8283"/>
</g>
<!-- \\Firesphere\\SolrSubsites\\States\\SubsiteState -->
<g id="node56" class="node">
<title>\\Firesphere\\SolrSubsites\\States\\SubsiteState</title>
<polygon fill="none" stroke="#000000" points="975.7549,-998.8283 877.7549,-998.8283 877.7549,-962.8283 975.7549,-962.8283 975.7549,-998.8283"/>
<text text-anchor="middle" x="926.7549" y="-978.0283" font-family="Courier,monospace" font-size="11.00" fill="#000000">SubsiteState</text>
</g>
<!-- \\Firesphere\\SolrSubsites\\States\\SubsiteState&#45;&gt;\\Firesphere\\SolrSearch\\Interfaces\\SiteStateInterface -->
<g id="edge28" class="edge">
<title>\\Firesphere\\SolrSubsites\\States\\SubsiteState&#45;&gt;\\Firesphere\\SolrSearch\\Interfaces\\SiteStateInterface</title>
<path fill="none" stroke="#000000" stroke-dasharray="1,5" d="M877.5979,-979.0038C856.9851,-975.5447 834.7217,-967.7327 821.2549,-950.8283 767.5974,-883.4739 841.7565,-238.1089 781.2549,-176.8283 747.305,-142.4413 714.2114,-194.6561 672.7549,-169.8283"/>
</g>
<!-- \\Firesphere\\SolrSubsites\\States\\SubsiteState&#45;&gt;\\Firesphere\\SolrSearch\\States\\SiteState -->
<g id="edge27" class="edge">
<title>\\Firesphere\\SolrSubsites\\States\\SubsiteState&#45;&gt;\\Firesphere\\SolrSearch\\States\\SiteState</title>
<path fill="none" stroke="#000000" d="M926.1976,-998.9796C921.0931,-1160.1521 880.37,-2343.0393 781.2549,-2460.8283 767.4135,-2477.2776 745.4345,-2485.1297 724.8668,-2488.7358"/>
<polygon fill="none" stroke="#000000" points="724.3161,-2485.279 714.9251,-2490.184 725.3252,-2492.2058 724.3161,-2485.279"/>
</g>
<!-- \\Firesphere\\SolrSubsites\\Extensions\\SubsitesExtension -->
<g id="node57" class="node">
<title>\\Firesphere\\SolrSubsites\\Extensions\\SubsitesExtension</title>
<polygon fill="none" stroke="#000000" points="992.2549,-918.8283 861.2549,-918.8283 861.2549,-882.8283 992.2549,-882.8283 992.2549,-918.8283"/>
<text text-anchor="middle" x="926.7549" y="-898.0283" font-family="Courier,monospace" font-size="11.00" fill="#000000">SubsitesExtension</text>
</g>
<!-- \\Firesphere\\SolrSubsites\\Extensions\\SubsitesExtension&#45;&gt;\\SilverStripe\\Core\\Extension -->
<g id="edge29" class="edge">
<title>\\Firesphere\\SolrSubsites\\Extensions\\SubsitesExtension&#45;&gt;\\SilverStripe\\Core\\Extension</title>
<path fill="none" stroke="#000000" d="M878.6337,-882.8097C857.3031,-872.2187 834.1577,-856.5648 821.2549,-834.8283 745.1202,-706.5692 859.9318,-291.544 781.2549,-164.8283 751.9582,-117.6436 718.2168,-134.733 672.7549,-102.8283"/>
</g>
<!-- \\Firesphere\\SolrPermissions\\Extensions\\SchemaServiceExtension -->
<g id="node58" class="node">
<title>\\Firesphere\\SolrPermissions\\Extensions\\SchemaServiceExtension</title>
<polygon fill="none" stroke="#000000" points="1009.2549,-444.8283 844.2549,-444.8283 844.2549,-408.8283 1009.2549,-408.8283 1009.2549,-444.8283"/>
<text text-anchor="middle" x="926.7549" y="-424.0283" font-family="Courier,monospace" font-size="11.00" fill="#000000">SchemaServiceExtension</text>
</g>
<!-- \\Firesphere\\SolrPermissions\\Extensions\\SchemaServiceExtension&#45;&gt;\\SilverStripe\\Core\\Extension -->
<g id="edge30" class="edge">
<title>\\Firesphere\\SolrPermissions\\Extensions\\SchemaServiceExtension&#45;&gt;\\SilverStripe\\Core\\Extension</title>
<path fill="none" stroke="#000000" d="M844.0415,-416.1646C835.4574,-412.166 827.5791,-406.8545 821.2549,-399.8283 739.2158,-308.6833 864.7801,-216.6134 781.2549,-126.8283 747.6157,-90.668 713.181,-131.1989 672.7549,-102.8283"/>
</g>
<!-- \\Firesphere\\SolrPermissions\\Extensions\\DataObjectExtension -->
<g id="node59" class="node">
<title>\\Firesphere\\SolrPermissions\\Extensions\\DataObjectExtension</title>
<polygon fill="none" stroke="#000000" points="999.2549,-498.8283 854.2549,-498.8283 854.2549,-462.8283 999.2549,-462.8283 999.2549,-498.8283"/>
<text text-anchor="middle" x="926.7549" y="-478.0283" font-family="Courier,monospace" font-size="11.00" fill="#000000">DataObjectExtension</text>
</g>
<!-- \\Firesphere\\SolrPermissions\\Extensions\\DataObjectExtension&#45;&gt;\\SilverStripe\\ORM\\DataExtension -->
<g id="edge31" class="edge">
<title>\\Firesphere\\SolrPermissions\\Extensions\\DataObjectExtension&#45;&gt;\\SilverStripe\\ORM\\DataExtension</title>
<path fill="none" stroke="#000000" d="M854.0248,-474.2318C841.6129,-470.0057 829.9437,-463.559 821.2549,-453.8283 734.8897,-357.1066 868.8126,-260.4718 781.2549,-164.8283 716.8997,-94.53 664.7691,-139.732 572.2549,-116.8283 543.6866,-109.7557 537.1957,-105.1766 508.2549,-99.8283 473.46,-93.3982 435.681,-88.354 400.1541,-84.4564"/>
<polygon fill="none" stroke="#000000" points="400.5143,-80.975 390.1977,-83.3872 399.7668,-87.935 400.5143,-80.975"/>
</g>
<!-- \\Firesphere\\SolrPermissions\\Extensions\\BaseIndexExtension -->
<g id="node60" class="node">
<title>\\Firesphere\\SolrPermissions\\Extensions\\BaseIndexExtension</title>
<polygon fill="none" stroke="#000000" points="995.7549,-390.8283 857.7549,-390.8283 857.7549,-354.8283 995.7549,-354.8283 995.7549,-390.8283"/>
<text text-anchor="middle" x="926.7549" y="-370.0283" font-family="Courier,monospace" font-size="11.00" fill="#000000">BaseIndexExtension</text>
</g>
<!-- \\Firesphere\\SolrPermissions\\Extensions\\BaseIndexExtension&#45;&gt;\\SilverStripe\\Core\\Extension -->
<g id="edge32" class="edge">
<title>\\Firesphere\\SolrPermissions\\Extensions\\BaseIndexExtension&#45;&gt;\\SilverStripe\\Core\\Extension</title>
<path fill="none" stroke="#000000" d="M857.6167,-366.9755C843.9842,-362.8106 830.925,-356.1991 821.2549,-345.8283 753.7783,-273.463 849.9111,-198.0755 781.2549,-126.8283 746.9851,-91.2652 713.181,-131.1989 672.7549,-102.8283"/>
</g>
<!-- \\Firesphere\\SolrPermissions\\Extensions\\DocumentFactoryExtension -->
<g id="node61" class="node">
<title>\\Firesphere\\SolrPermissions\\Extensions\\DocumentFactoryExtension</title>
<polygon fill="none" stroke="#000000" points="1016.2549,-336.8283 837.2549,-336.8283 837.2549,-300.8283 1016.2549,-300.8283 1016.2549,-336.8283"/>
<text text-anchor="middle" x="926.7549" y="-316.0283" font-family="Courier,monospace" font-size="11.00" fill="#000000">DocumentFactoryExtension</text>
</g>
<!-- \\Firesphere\\SolrPermissions\\Extensions\\DocumentFactoryExtension&#45;&gt;\\SilverStripe\\Core\\Extension -->
<g id="edge33" class="edge">
<title>\\Firesphere\\SolrPermissions\\Extensions\\DocumentFactoryExtension&#45;&gt;\\SilverStripe\\Core\\Extension</title>
<path fill="none" stroke="#000000" d="M883.8383,-300.7656C862.3269,-289.7541 837.4729,-273.7429 821.2549,-252.8283 785.251,-206.398 824.6214,-166.4692 781.2549,-126.8283 744.8017,-93.5068 713.181,-131.1989 672.7549,-102.8283"/>
</g>
</g>
</svg>
