<?xml version="1.0" encoding="UTF-8" standalone="no"?>
<!DOCTYPE svg PUBLIC "-//W3C//DTD SVG 1.1//EN"
 "http://www.w3.org/Graphics/SVG/1.1/DTD/svg11.dtd">
<!-- Generated by graphviz version 2.40.1 (20161225.0304)
 -->
<!-- Title: G Pages: 1 -->
<svg width="984pt" height="3544pt"
 viewBox="0.00 0.00 984.25 3544.41" xmlns="http://www.w3.org/2000/svg" xmlns:xlink="http://www.w3.org/1999/xlink">
<g id="graph0" class="graph" transform="scale(1 1) rotate(0) translate(4 3540.4051)">
<title>G</title>
<polygon fill="#ffffff" stroke="transparent" points="-4,4 -4,-3540.4051 980.2549,-3540.4051 980.2549,4 -4,4"/>
<g id="clust1" class="cluster">
<title>cluster_Global</title>
<path fill="none" stroke="#c0c0c0" d="M165.1275,-476.4051C165.1275,-476.4051 956.2549,-476.4051 956.2549,-476.4051 962.2549,-476.4051 968.2549,-482.4051 968.2549,-488.4051 968.2549,-488.4051 968.2549,-3516.4051 968.2549,-3516.4051 968.2549,-3522.4051 962.2549,-3528.4051 956.2549,-3528.4051 956.2549,-3528.4051 165.1275,-3528.4051 165.1275,-3528.4051 159.1275,-3528.4051 153.1275,-3522.4051 153.1275,-3516.4051 153.1275,-3516.4051 153.1275,-488.4051 153.1275,-488.4051 153.1275,-482.4051 159.1275,-476.4051 165.1275,-476.4051"/>
<text text-anchor="middle" x="560.6912" y="-3515.6051" font-family="Times,serif" font-size="11.00" fill="#c0c0c0">Global</text>
</g>
<g id="clust2" class="cluster">
<title>cluster_\SilverStripe</title>
<path fill="none" stroke="#c0c0c0" d="M817.2549,-1965.4051C817.2549,-1965.4051 948.2549,-1965.4051 948.2549,-1965.4051 954.2549,-1965.4051 960.2549,-1971.4051 960.2549,-1977.4051 960.2549,-1977.4051 960.2549,-2267.4051 960.2549,-2267.4051 960.2549,-2273.4051 954.2549,-2279.4051 948.2549,-2279.4051 948.2549,-2279.4051 817.2549,-2279.4051 817.2549,-2279.4051 811.2549,-2279.4051 805.2549,-2273.4051 805.2549,-2267.4051 805.2549,-2267.4051 805.2549,-1977.4051 805.2549,-1977.4051 805.2549,-1971.4051 811.2549,-1965.4051 817.2549,-1965.4051"/>
<text text-anchor="middle" x="882.7549" y="-2266.6051" font-family="Times,serif" font-size="11.00" fill="#c0c0c0">SilverStripe</text>
</g>
<g id="clust3" class="cluster">
<title>cluster_\SilverStripe\FullTextSearch</title>
<path fill="none" stroke="#c0c0c0" d="M825.2549,-1973.4051C825.2549,-1973.4051 940.2549,-1973.4051 940.2549,-1973.4051 946.2549,-1973.4051 952.2549,-1979.4051 952.2549,-1985.4051 952.2549,-1985.4051 952.2549,-2239.4051 952.2549,-2239.4051 952.2549,-2245.4051 946.2549,-2251.4051 940.2549,-2251.4051 940.2549,-2251.4051 825.2549,-2251.4051 825.2549,-2251.4051 819.2549,-2251.4051 813.2549,-2245.4051 813.2549,-2239.4051 813.2549,-2239.4051 813.2549,-1985.4051 813.2549,-1985.4051 813.2549,-1979.4051 819.2549,-1973.4051 825.2549,-1973.4051"/>
<text text-anchor="middle" x="882.7549" y="-2238.6051" font-family="Times,serif" font-size="11.00" fill="#c0c0c0">FullTextSearch</text>
</g>
<g id="clust4" class="cluster">
<title>cluster_\SilverStripe\FullTextSearch\Solr</title>
<path fill="none" stroke="#c0c0c0" d="M844.7549,-2097.4051C844.7549,-2097.4051 920.7549,-2097.4051 920.7549,-2097.4051 926.7549,-2097.4051 932.7549,-2103.4051 932.7549,-2109.4051 932.7549,-2109.4051 932.7549,-2211.4051 932.7549,-2211.4051 932.7549,-2217.4051 926.7549,-2223.4051 920.7549,-2223.4051 920.7549,-2223.4051 844.7549,-2223.4051 844.7549,-2223.4051 838.7549,-2223.4051 832.7549,-2217.4051 832.7549,-2211.4051 832.7549,-2211.4051 832.7549,-2109.4051 832.7549,-2109.4051 832.7549,-2103.4051 838.7549,-2097.4051 844.7549,-2097.4051"/>
<text text-anchor="middle" x="882.7549" y="-2210.6051" font-family="Times,serif" font-size="11.00" fill="#c0c0c0">Solr</text>
</g>
<g id="clust5" class="cluster">
<title>cluster_\SilverStripe\FullTextSearch\Search</title>
<path fill="none" stroke="#c0c0c0" d="M833.2549,-1981.4051C833.2549,-1981.4051 932.2549,-1981.4051 932.2549,-1981.4051 938.2549,-1981.4051 944.2549,-1987.4051 944.2549,-1993.4051 944.2549,-1993.4051 944.2549,-2077.4051 944.2549,-2077.4051 944.2549,-2083.4051 938.2549,-2089.4051 932.2549,-2089.4051 932.2549,-2089.4051 833.2549,-2089.4051 833.2549,-2089.4051 827.2549,-2089.4051 821.2549,-2083.4051 821.2549,-2077.4051 821.2549,-2077.4051 821.2549,-1993.4051 821.2549,-1993.4051 821.2549,-1987.4051 827.2549,-1981.4051 833.2549,-1981.4051"/>
<text text-anchor="middle" x="882.7549" y="-2076.6051" font-family="Times,serif" font-size="11.00" fill="#c0c0c0">Search</text>
</g>
<g id="clust6" class="cluster">
<title>cluster_\SilverStripe\FullTextSearch\Search\Queries</title>
<path fill="none" stroke="#c0c0c0" d="M841.2549,-1989.4051C841.2549,-1989.4051 924.2549,-1989.4051 924.2549,-1989.4051 930.2549,-1989.4051 936.2549,-1995.4051 936.2549,-2001.4051 936.2549,-2001.4051 936.2549,-2049.4051 936.2549,-2049.4051 936.2549,-2055.4051 930.2549,-2061.4051 924.2549,-2061.4051 924.2549,-2061.4051 841.2549,-2061.4051 841.2549,-2061.4051 835.2549,-2061.4051 829.2549,-2055.4051 829.2549,-2049.4051 829.2549,-2049.4051 829.2549,-2001.4051 829.2549,-2001.4051 829.2549,-1995.4051 835.2549,-1989.4051 841.2549,-1989.4051"/>
<text text-anchor="middle" x="882.7549" y="-2048.6051" font-family="Times,serif" font-size="11.00" fill="#c0c0c0">Queries</text>
</g>
<g id="clust7" class="cluster">
<title>cluster_\Firesphere</title>
<path fill="none" stroke="#c0c0c0" d="M173.1275,-484.4051C173.1275,-484.4051 777.2549,-484.4051 777.2549,-484.4051 783.2549,-484.4051 789.2549,-490.4051 789.2549,-496.4051 789.2549,-496.4051 789.2549,-3488.4051 789.2549,-3488.4051 789.2549,-3494.4051 783.2549,-3500.4051 777.2549,-3500.4051 777.2549,-3500.4051 173.1275,-3500.4051 173.1275,-3500.4051 167.1275,-3500.4051 161.1275,-3494.4051 161.1275,-3488.4051 161.1275,-3488.4051 161.1275,-496.4051 161.1275,-496.4051 161.1275,-490.4051 167.1275,-484.4051 173.1275,-484.4051"/>
<text text-anchor="middle" x="475.1912" y="-3487.6051" font-family="Times,serif" font-size="11.00" fill="#c0c0c0">Firesphere</text>
</g>
<g id="clust8" class="cluster">
<title>cluster_\Firesphere\SolrSearch</title>
<path fill="none" stroke="#c0c0c0" d="M181.1275,-492.4051C181.1275,-492.4051 769.2549,-492.4051 769.2549,-492.4051 775.2549,-492.4051 781.2549,-498.4051 781.2549,-504.4051 781.2549,-504.4051 781.2549,-3460.4051 781.2549,-3460.4051 781.2549,-3466.4051 775.2549,-3472.4051 769.2549,-3472.4051 769.2549,-3472.4051 181.1275,-3472.4051 181.1275,-3472.4051 175.1275,-3472.4051 169.1275,-3466.4051 169.1275,-3460.4051 169.1275,-3460.4051 169.1275,-504.4051 169.1275,-504.4051 169.1275,-498.4051 175.1275,-492.4051 181.1275,-492.4051"/>
<text text-anchor="middle" x="475.1912" y="-3459.6051" font-family="Times,serif" font-size="11.00" fill="#c0c0c0">SolrSearch</text>
</g>
<g id="clust9" class="cluster">
<title>cluster_\Firesphere\SolrSearch\Compat</title>
<path fill="none" stroke="#c0c0c0" d="M590.7549,-3372.4051C590.7549,-3372.4051 754.7549,-3372.4051 754.7549,-3372.4051 760.7549,-3372.4051 766.7549,-3378.4051 766.7549,-3384.4051 766.7549,-3384.4051 766.7549,-3432.4051 766.7549,-3432.4051 766.7549,-3438.4051 760.7549,-3444.4051 754.7549,-3444.4051 754.7549,-3444.4051 590.7549,-3444.4051 590.7549,-3444.4051 584.7549,-3444.4051 578.7549,-3438.4051 578.7549,-3432.4051 578.7549,-3432.4051 578.7549,-3384.4051 578.7549,-3384.4051 578.7549,-3378.4051 584.7549,-3372.4051 590.7549,-3372.4051"/>
<text text-anchor="middle" x="672.7549" y="-3431.6051" font-family="Times,serif" font-size="11.00" fill="#c0c0c0">Compat</text>
</g>
<g id="clust10" class="cluster">
<title>cluster_\Firesphere\SolrSearch\Admins</title>
<path fill="none" stroke="#c0c0c0" d="M631.2549,-3292.4051C631.2549,-3292.4051 714.2549,-3292.4051 714.2549,-3292.4051 720.2549,-3292.4051 726.2549,-3298.4051 726.2549,-3304.4051 726.2549,-3304.4051 726.2549,-3352.4051 726.2549,-3352.4051 726.2549,-3358.4051 720.2549,-3364.4051 714.2549,-3364.4051 714.2549,-3364.4051 631.2549,-3364.4051 631.2549,-3364.4051 625.2549,-3364.4051 619.2549,-3358.4051 619.2549,-3352.4051 619.2549,-3352.4051 619.2549,-3304.4051 619.2549,-3304.4051 619.2549,-3298.4051 625.2549,-3292.4051 631.2549,-3292.4051"/>
<text text-anchor="middle" x="672.7549" y="-3351.6051" font-family="Times,serif" font-size="11.00" fill="#c0c0c0">Admins</text>
</g>
<g id="clust11" class="cluster">
<title>cluster_\Firesphere\SolrSearch\Indexes</title>
<path fill="none" stroke="#c0c0c0" d="M634.7549,-3212.4051C634.7549,-3212.4051 710.7549,-3212.4051 710.7549,-3212.4051 716.7549,-3212.4051 722.7549,-3218.4051 722.7549,-3224.4051 722.7549,-3224.4051 722.7549,-3272.4051 722.7549,-3272.4051 722.7549,-3278.4051 716.7549,-3284.4051 710.7549,-3284.4051 710.7549,-3284.4051 634.7549,-3284.4051 634.7549,-3284.4051 628.7549,-3284.4051 622.7549,-3278.4051 622.7549,-3272.4051 622.7549,-3272.4051 622.7549,-3224.4051 622.7549,-3224.4051 622.7549,-3218.4051 628.7549,-3212.4051 634.7549,-3212.4051"/>
<text text-anchor="middle" x="672.7549" y="-3271.6051" font-family="Times,serif" font-size="11.00" fill="#c0c0c0">Indexes</text>
</g>
<g id="clust12" class="cluster">
<title>cluster_\Firesphere\SolrSearch\Forms</title>
<path fill="none" stroke="#c0c0c0" d="M634.7549,-3132.4051C634.7549,-3132.4051 710.7549,-3132.4051 710.7549,-3132.4051 716.7549,-3132.4051 722.7549,-3138.4051 722.7549,-3144.4051 722.7549,-3144.4051 722.7549,-3192.4051 722.7549,-3192.4051 722.7549,-3198.4051 716.7549,-3204.4051 710.7549,-3204.4051 710.7549,-3204.4051 634.7549,-3204.4051 634.7549,-3204.4051 628.7549,-3204.4051 622.7549,-3198.4051 622.7549,-3192.4051 622.7549,-3192.4051 622.7549,-3144.4051 622.7549,-3144.4051 622.7549,-3138.4051 628.7549,-3132.4051 634.7549,-3132.4051"/>
<text text-anchor="middle" x="672.7549" y="-3191.6051" font-family="Times,serif" font-size="11.00" fill="#c0c0c0">Forms</text>
</g>
<g id="clust13" class="cluster">
<title>cluster_\Firesphere\SolrSearch\Traits</title>
<path fill="none" stroke="#c0c0c0" d="M584.2549,-2296.4051C584.2549,-2296.4051 761.2549,-2296.4051 761.2549,-2296.4051 767.2549,-2296.4051 773.2549,-2302.4051 773.2549,-2308.4051 773.2549,-2308.4051 773.2549,-3112.4051 773.2549,-3112.4051 773.2549,-3118.4051 767.2549,-3124.4051 761.2549,-3124.4051 761.2549,-3124.4051 584.2549,-3124.4051 584.2549,-3124.4051 578.2549,-3124.4051 572.2549,-3118.4051 572.2549,-3112.4051 572.2549,-3112.4051 572.2549,-2308.4051 572.2549,-2308.4051 572.2549,-2302.4051 578.2549,-2296.4051 584.2549,-2296.4051"/>
<text text-anchor="middle" x="672.7549" y="-3111.6051" font-family="Times,serif" font-size="11.00" fill="#c0c0c0">Traits</text>
</g>
<g id="clust14" class="cluster">
<title>cluster_\Firesphere\SolrSearch\States</title>
<path fill="none" stroke="#c0c0c0" d="M634.7549,-2216.4051C634.7549,-2216.4051 710.7549,-2216.4051 710.7549,-2216.4051 716.7549,-2216.4051 722.7549,-2222.4051 722.7549,-2228.4051 722.7549,-2228.4051 722.7549,-2276.4051 722.7549,-2276.4051 722.7549,-2282.4051 716.7549,-2288.4051 710.7549,-2288.4051 710.7549,-2288.4051 634.7549,-2288.4051 634.7549,-2288.4051 628.7549,-2288.4051 622.7549,-2282.4051 622.7549,-2276.4051 622.7549,-2276.4051 622.7549,-2228.4051 622.7549,-2228.4051 622.7549,-2222.4051 628.7549,-2216.4051 634.7549,-2216.4051"/>
<text text-anchor="middle" x="672.7549" y="-2275.6051" font-family="Times,serif" font-size="11.00" fill="#c0c0c0">States</text>
</g>
<g id="clust15" class="cluster">
<title>cluster_\Firesphere\SolrSearch\Tasks</title>
<path fill="none" stroke="#c0c0c0" d="M597.7549,-2028.4051C597.7549,-2028.4051 747.7549,-2028.4051 747.7549,-2028.4051 753.7549,-2028.4051 759.7549,-2034.4051 759.7549,-2040.4051 759.7549,-2040.4051 759.7549,-2196.4051 759.7549,-2196.4051 759.7549,-2202.4051 753.7549,-2208.4051 747.7549,-2208.4051 747.7549,-2208.4051 597.7549,-2208.4051 597.7549,-2208.4051 591.7549,-2208.4051 585.7549,-2202.4051 585.7549,-2196.4051 585.7549,-2196.4051 585.7549,-2040.4051 585.7549,-2040.4051 585.7549,-2034.4051 591.7549,-2028.4051 597.7549,-2028.4051"/>
<text text-anchor="middle" x="672.7549" y="-2195.6051" font-family="Times,serif" font-size="11.00" fill="#c0c0c0">Tasks</text>
</g>
<g id="clust16" class="cluster">
<title>cluster_\Firesphere\SolrSearch\Helpers</title>
<path fill="none" stroke="#c0c0c0" d="M624.7549,-1732.4051C624.7549,-1732.4051 720.7549,-1732.4051 720.7549,-1732.4051 726.7549,-1732.4051 732.7549,-1738.4051 732.7549,-1744.4051 732.7549,-1744.4051 732.7549,-2008.4051 732.7549,-2008.4051 732.7549,-2014.4051 726.7549,-2020.4051 720.7549,-2020.4051 720.7549,-2020.4051 624.7549,-2020.4051 624.7549,-2020.4051 618.7549,-2020.4051 612.7549,-2014.4051 612.7549,-2008.4051 612.7549,-2008.4051 612.7549,-1744.4051 612.7549,-1744.4051 612.7549,-1738.4051 618.7549,-1732.4051 624.7549,-1732.4051"/>
<text text-anchor="middle" x="672.7549" y="-2007.6051" font-family="Times,serif" font-size="11.00" fill="#c0c0c0">Helpers</text>
</g>
<g id="clust17" class="cluster">
<title>cluster_\Firesphere\SolrSearch\Extensions</title>
<path fill="none" stroke="#c0c0c0" d="M604.2549,-1598.4051C604.2549,-1598.4051 741.2549,-1598.4051 741.2549,-1598.4051 747.2549,-1598.4051 753.2549,-1604.4051 753.2549,-1610.4051 753.2549,-1610.4051 753.2549,-1712.4051 753.2549,-1712.4051 753.2549,-1718.4051 747.2549,-1724.4051 741.2549,-1724.4051 741.2549,-1724.4051 604.2549,-1724.4051 604.2549,-1724.4051 598.2549,-1724.4051 592.2549,-1718.4051 592.2549,-1712.4051 592.2549,-1712.4051 592.2549,-1610.4051 592.2549,-1610.4051 592.2549,-1604.4051 598.2549,-1598.4051 604.2549,-1598.4051"/>
<text text-anchor="middle" x="672.7549" y="-1711.6051" font-family="Times,serif" font-size="11.00" fill="#c0c0c0">Extensions</text>
</g>
<g id="clust18" class="cluster">
<title>cluster_\Firesphere\SolrSearch\Models</title>
<path fill="none" stroke="#c0c0c0" d="M624.7549,-1410.4051C624.7549,-1410.4051 720.7549,-1410.4051 720.7549,-1410.4051 726.7549,-1410.4051 732.7549,-1416.4051 732.7549,-1422.4051 732.7549,-1422.4051 732.7549,-1578.4051 732.7549,-1578.4051 732.7549,-1584.4051 726.7549,-1590.4051 720.7549,-1590.4051 720.7549,-1590.4051 624.7549,-1590.4051 624.7549,-1590.4051 618.7549,-1590.4051 612.7549,-1584.4051 612.7549,-1578.4051 612.7549,-1578.4051 612.7549,-1422.4051 612.7549,-1422.4051 612.7549,-1416.4051 618.7549,-1410.4051 624.7549,-1410.4051"/>
<text text-anchor="middle" x="672.7549" y="-1577.6051" font-family="Times,serif" font-size="11.00" fill="#c0c0c0">Models</text>
</g>
<g id="clust19" class="cluster">
<title>cluster_\Firesphere\SolrSearch\Jobs</title>
<path fill="none" stroke="#c0c0c0" d="M600.7549,-1222.4051C600.7549,-1222.4051 744.7549,-1222.4051 744.7549,-1222.4051 750.7549,-1222.4051 756.7549,-1228.4051 756.7549,-1234.4051 756.7549,-1234.4051 756.7549,-1390.4051 756.7549,-1390.4051 756.7549,-1396.4051 750.7549,-1402.4051 744.7549,-1402.4051 744.7549,-1402.4051 600.7549,-1402.4051 600.7549,-1402.4051 594.7549,-1402.4051 588.7549,-1396.4051 588.7549,-1390.4051 588.7549,-1390.4051 588.7549,-1234.4051 588.7549,-1234.4051 588.7549,-1228.4051 594.7549,-1222.4051 600.7549,-1222.4051"/>
<text text-anchor="middle" x="672.7549" y="-1389.6051" font-family="Times,serif" font-size="11.00" fill="#c0c0c0">Jobs</text>
</g>
<g id="clust20" class="cluster">
<title>cluster_\Firesphere\SolrSearch\Services</title>
<path fill="none" stroke="#c0c0c0" d="M617.7549,-1088.4051C617.7549,-1088.4051 727.7549,-1088.4051 727.7549,-1088.4051 733.7549,-1088.4051 739.7549,-1094.4051 739.7549,-1100.4051 739.7549,-1100.4051 739.7549,-1202.4051 739.7549,-1202.4051 739.7549,-1208.4051 733.7549,-1214.4051 727.7549,-1214.4051 727.7549,-1214.4051 617.7549,-1214.4051 617.7549,-1214.4051 611.7549,-1214.4051 605.7549,-1208.4051 605.7549,-1202.4051 605.7549,-1202.4051 605.7549,-1100.4051 605.7549,-1100.4051 605.7549,-1094.4051 611.7549,-1088.4051 617.7549,-1088.4051"/>
<text text-anchor="middle" x="672.7549" y="-1201.6051" font-family="Times,serif" font-size="11.00" fill="#c0c0c0">Services</text>
</g>
<g id="clust21" class="cluster">
<title>cluster_\Firesphere\SolrSearch\Factories</title>
<path fill="none" stroke="#c0c0c0" d="M597.7549,-954.4051C597.7549,-954.4051 747.7549,-954.4051 747.7549,-954.4051 753.7549,-954.4051 759.7549,-960.4051 759.7549,-966.4051 759.7549,-966.4051 759.7549,-1068.4051 759.7549,-1068.4051 759.7549,-1074.4051 753.7549,-1080.4051 747.7549,-1080.4051 747.7549,-1080.4051 597.7549,-1080.4051 597.7549,-1080.4051 591.7549,-1080.4051 585.7549,-1074.4051 585.7549,-1068.4051 585.7549,-1068.4051 585.7549,-966.4051 585.7549,-966.4051 585.7549,-960.4051 591.7549,-954.4051 597.7549,-954.4051"/>
<text text-anchor="middle" x="672.7549" y="-1067.6051" font-family="Times,serif" font-size="11.00" fill="#c0c0c0">Factories</text>
</g>
<g id="clust22" class="cluster">
<title>cluster_\Firesphere\SolrSearch\Interfaces</title>
<path fill="none" stroke="#c0c0c0" d="M189.1275,-767.4051C189.1275,-767.4051 319.1275,-767.4051 319.1275,-767.4051 325.1275,-767.4051 331.1275,-773.4051 331.1275,-779.4051 331.1275,-779.4051 331.1275,-881.4051 331.1275,-881.4051 331.1275,-887.4051 325.1275,-893.4051 319.1275,-893.4051 319.1275,-893.4051 189.1275,-893.4051 189.1275,-893.4051 183.1275,-893.4051 177.1275,-887.4051 177.1275,-881.4051 177.1275,-881.4051 177.1275,-779.4051 177.1275,-779.4051 177.1275,-773.4051 183.1275,-767.4051 189.1275,-767.4051"/>
<text text-anchor="middle" x="254.1275" y="-880.6051" font-family="Times,serif" font-size="11.00" fill="#c0c0c0">Interfaces</text>
</g>
<g id="clust23" class="cluster">
<title>cluster_\Firesphere\SolrSearch\Queries</title>
<path fill="none" stroke="#c0c0c0" d="M638.2549,-874.4051C638.2549,-874.4051 707.2549,-874.4051 707.2549,-874.4051 713.2549,-874.4051 719.2549,-880.4051 719.2549,-886.4051 719.2549,-886.4051 719.2549,-934.4051 719.2549,-934.4051 719.2549,-940.4051 713.2549,-946.4051 707.2549,-946.4051 707.2549,-946.4051 638.2549,-946.4051 638.2549,-946.4051 632.2549,-946.4051 626.2549,-940.4051 626.2549,-934.4051 626.2549,-934.4051 626.2549,-886.4051 626.2549,-886.4051 626.2549,-880.4051 632.2549,-874.4051 638.2549,-874.4051"/>
<text text-anchor="middle" x="672.7549" y="-933.6051" font-family="Times,serif" font-size="11.00" fill="#c0c0c0">Queries</text>
</g>
<g id="clust24" class="cluster">
<title>cluster_\Firesphere\SolrSearch\Stores</title>
<path fill="none" stroke="#c0c0c0" d="M617.7549,-740.4051C617.7549,-740.4051 727.7549,-740.4051 727.7549,-740.4051 733.7549,-740.4051 739.7549,-746.4051 739.7549,-752.4051 739.7549,-752.4051 739.7549,-854.4051 739.7549,-854.4051 739.7549,-860.4051 733.7549,-866.4051 727.7549,-866.4051 727.7549,-866.4051 617.7549,-866.4051 617.7549,-866.4051 611.7549,-866.4051 605.7549,-860.4051 605.7549,-854.4051 605.7549,-854.4051 605.7549,-752.4051 605.7549,-752.4051 605.7549,-746.4051 611.7549,-740.4051 617.7549,-740.4051"/>
<text text-anchor="middle" x="672.7549" y="-853.6051" font-family="Times,serif" font-size="11.00" fill="#c0c0c0">Stores</text>
</g>
<g id="clust25" class="cluster">
<title>cluster_\Firesphere\SolrSearch\Results</title>
<path fill="none" stroke="#c0c0c0" d="M627.7549,-660.4051C627.7549,-660.4051 717.7549,-660.4051 717.7549,-660.4051 723.7549,-660.4051 729.7549,-666.4051 729.7549,-672.4051 729.7549,-672.4051 729.7549,-720.4051 729.7549,-720.4051 729.7549,-726.4051 723.7549,-732.4051 717.7549,-732.4051 717.7549,-732.4051 627.7549,-732.4051 627.7549,-732.4051 621.7549,-732.4051 615.7549,-726.4051 615.7549,-720.4051 615.7549,-720.4051 615.7549,-672.4051 615.7549,-672.4051 615.7549,-666.4051 621.7549,-660.4051 627.7549,-660.4051"/>
<text text-anchor="middle" x="672.7549" y="-719.6051" font-family="Times,serif" font-size="11.00" fill="#c0c0c0">Results</text>
</g>
<g id="clust26" class="cluster">
<title>cluster_\Firesphere\SolrSearch\Fluent</title>
<path fill="none" stroke="#c0c0c0" d="M617.7549,-580.4051C617.7549,-580.4051 727.7549,-580.4051 727.7549,-580.4051 733.7549,-580.4051 739.7549,-586.4051 739.7549,-592.4051 739.7549,-592.4051 739.7549,-640.4051 739.7549,-640.4051 739.7549,-646.4051 733.7549,-652.4051 727.7549,-652.4051 727.7549,-652.4051 617.7549,-652.4051 617.7549,-652.4051 611.7549,-652.4051 605.7549,-646.4051 605.7549,-640.4051 605.7549,-640.4051 605.7549,-592.4051 605.7549,-592.4051 605.7549,-586.4051 611.7549,-580.4051 617.7549,-580.4051"/>
<text text-anchor="middle" x="672.7549" y="-639.6051" font-family="Times,serif" font-size="11.00" fill="#c0c0c0">Fluent</text>
</g>
<g id="clust27" class="cluster">
<title>cluster_\Firesphere\SolrSearch\Subsites</title>
<path fill="none" stroke="#c0c0c0" d="M611.2549,-500.4051C611.2549,-500.4051 734.2549,-500.4051 734.2549,-500.4051 740.2549,-500.4051 746.2549,-506.4051 746.2549,-512.4051 746.2549,-512.4051 746.2549,-560.4051 746.2549,-560.4051 746.2549,-566.4051 740.2549,-572.4051 734.2549,-572.4051 734.2549,-572.4051 611.2549,-572.4051 611.2549,-572.4051 605.2549,-572.4051 599.2549,-566.4051 599.2549,-560.4051 599.2549,-560.4051 599.2549,-512.4051 599.2549,-512.4051 599.2549,-506.4051 605.2549,-500.4051 611.2549,-500.4051"/>
<text text-anchor="middle" x="672.7549" y="-559.6051" font-family="Times,serif" font-size="11.00" fill="#c0c0c0">Subsites</text>
</g>
<!-- \\SilverStripe\\FullTextSearch\\Solr\\Solr -->
<g id="node1" class="node">
<title>\\SilverStripe\\FullTextSearch\\Solr\\Solr</title>
<polygon fill="none" stroke="#000000" points="909.7549,-2195.4051 855.7549,-2195.4051 855.7549,-2159.4051 909.7549,-2159.4051 909.7549,-2195.4051"/>
<text text-anchor="middle" x="882.7549" y="-2174.6051" font-family="Courier,monospace" font-size="11.00" fill="#000000">Solr</text>
</g>
<!-- \\SilverStripe\\FullTextSearch\\Solr\\SolrIndex -->
<g id="node2" class="node">
<title>\\SilverStripe\\FullTextSearch\\Solr\\SolrIndex</title>
<polygon fill="none" stroke="#000000" points="924.7549,-2141.4051 840.7549,-2141.4051 840.7549,-2105.4051 924.7549,-2105.4051 924.7549,-2141.4051"/>
<text text-anchor="start" x="848.7549" y="-2126.6051" font-family="Courier,monospace" font-size="11.00" fill="#000000">«abstract»</text>
<text text-anchor="start" x="852.2549" y="-2114.6051" font-family="Courier,monospace" font-size="11.00" fill="#000000">SolrIndex</text>
</g>
<!-- \\Firesphere\\SolrSearch\\Indexes\\BaseIndex -->
<g id="node6" class="node">
<title>\\Firesphere\\SolrSearch\\Indexes\\BaseIndex</title>
<polygon fill="none" stroke="#000000" points="714.7549,-3256.4051 630.7549,-3256.4051 630.7549,-3220.4051 714.7549,-3220.4051 714.7549,-3256.4051"/>
<text text-anchor="start" x="638.7549" y="-3241.6051" font-family="Courier,monospace" font-size="11.00" fill="#000000">«abstract»</text>
<text text-anchor="start" x="642.2549" y="-3229.6051" font-family="Courier,monospace" font-size="11.00" fill="#000000">BaseIndex</text>
</g>
<!-- \\SilverStripe\\FullTextSearch\\Solr\\SolrIndex&#45;&gt;\\Firesphere\\SolrSearch\\Indexes\\BaseIndex -->
<g id="edge2" class="edge">
<title>\\SilverStripe\\FullTextSearch\\Solr\\SolrIndex&#45;&gt;\\Firesphere\\SolrSearch\\Indexes\\BaseIndex</title>
<path fill="none" stroke="#000000" d="M840.378,-2128.5105C826.9729,-2132.3399 813.5119,-2138.9688 805.2549,-2150.4051 770.844,-2198.0654 825.6182,-3162.2171 789.2549,-3208.4051 774.1182,-3227.6315 748.4348,-3235.5432 725.0289,-3238.4696"/>
<polygon fill="none" stroke="#000000" points="724.4433,-3235.01 714.8292,-3239.4618 725.1211,-3241.9771 724.4433,-3235.01"/>
</g>
<!-- \\SilverStripe\\FullTextSearch\\Search\\Queries\\SearchQuery -->
<g id="node3" class="node">
<title>\\SilverStripe\\FullTextSearch\\Search\\Queries\\SearchQuery</title>
<polygon fill="none" stroke="#000000" points="928.2549,-2033.4051 837.2549,-2033.4051 837.2549,-1997.4051 928.2549,-1997.4051 928.2549,-2033.4051"/>
<text text-anchor="middle" x="882.7549" y="-2012.6051" font-family="Courier,monospace" font-size="11.00" fill="#000000">SearchQuery</text>
</g>
<!-- \\Firesphere\\SolrSearch\\Queries\\BaseQuery -->
<g id="node46" class="node">
<title>\\Firesphere\\SolrSearch\\Queries\\BaseQuery</title>
<polygon fill="none" stroke="#000000" points="711.2549,-918.4051 634.2549,-918.4051 634.2549,-882.4051 711.2549,-882.4051 711.2549,-918.4051"/>
<text text-anchor="middle" x="672.7549" y="-897.6051" font-family="Courier,monospace" font-size="11.00" fill="#000000">BaseQuery</text>
</g>
<!-- \\SilverStripe\\FullTextSearch\\Search\\Queries\\SearchQuery&#45;&gt;\\Firesphere\\SolrSearch\\Queries\\BaseQuery -->
<g id="edge1" class="edge">
<title>\\SilverStripe\\FullTextSearch\\Search\\Queries\\SearchQuery&#45;&gt;\\Firesphere\\SolrSearch\\Queries\\BaseQuery</title>
<path fill="none" stroke="#000000" d="M882.2731,-1997.2916C878.587,-1864.0909 853.2549,-1038.8354 789.2549,-950.4051 773.3199,-928.3874 745.6509,-915.977 721.2758,-909.0285"/>
<polygon fill="none" stroke="#000000" points="721.9875,-905.597 711.4276,-906.4566 720.2187,-912.3699 721.9875,-905.597"/>
</g>
<!-- \\Firesphere\\SolrSearch\\Compat\\FulltextSearchExtension -->
<g id="node4" class="node">
<title>\\Firesphere\\SolrSearch\\Compat\\FulltextSearchExtension</title>
<polygon fill="none" stroke="#000000" points="758.7549,-3416.4051 586.7549,-3416.4051 586.7549,-3380.4051 758.7549,-3380.4051 758.7549,-3416.4051"/>
<text text-anchor="middle" x="672.7549" y="-3395.6051" font-family="Courier,monospace" font-size="11.00" fill="#000000">FulltextSearchExtension</text>
</g>
<!-- \\SilverStripe\\Core\\Extension -->
<g id="node52" class="node">
<title>\\SilverStripe\\Core\\Extension</title>
<ellipse fill="none" stroke="#000000" cx="254.1275" cy="-288.4051" rx="144.0747" ry="18"/>
<text text-anchor="middle" x="254.1275" y="-284.7051" font-family="Times,serif" font-size="14.00" fill="#c0c0c0">\SilverStripe\Core\Extension</text>
</g>
<!-- \\Firesphere\\SolrSearch\\Compat\\FulltextSearchExtension&#45;&gt;\\SilverStripe\\Core\\Extension -->
<g id="edge3" class="edge">
<title>\\Firesphere\\SolrSearch\\Compat\\FulltextSearchExtension&#45;&gt;\\SilverStripe\\Core\\Extension</title>
<path fill="none" stroke="#000000" d="M586.4572,-3381.5725C581.0682,-3377.9618 576.2263,-3373.6202 572.2549,-3368.4051 469.4733,-3233.4365 623.0163,-440.3466 508.2549,-315.4051 466.4221,-269.8614 394.8095,-265.9072 338.2455,-271.7558"/>
<polygon fill="none" stroke="#000000" points="337.7637,-268.2881 328.2294,-272.9084 338.564,-275.2422 337.7637,-268.2881"/>
</g>
<!-- \\Firesphere\\SolrSearch\\Admins\\SearchAdmin -->
<g id="node5" class="node">
<title>\\Firesphere\\SolrSearch\\Admins\\SearchAdmin</title>
<polygon fill="none" stroke="#000000" points="718.2549,-3336.4051 627.2549,-3336.4051 627.2549,-3300.4051 718.2549,-3300.4051 718.2549,-3336.4051"/>
<text text-anchor="middle" x="672.7549" y="-3315.6051" font-family="Courier,monospace" font-size="11.00" fill="#000000">SearchAdmin</text>
</g>
<!-- \\SilverStripe\\Admin\\ModelAdmin -->
<g id="node53" class="node">
<title>\\SilverStripe\\Admin\\ModelAdmin</title>
<ellipse fill="none" stroke="#000000" cx="254.1275" cy="-450.4051" rx="165.1707" ry="18"/>
<text text-anchor="middle" x="254.1275" y="-446.7051" font-family="Times,serif" font-size="14.00" fill="#c0c0c0">\SilverStripe\Admin\ModelAdmin</text>
</g>
<!-- \\Firesphere\\SolrSearch\\Admins\\SearchAdmin&#45;&gt;\\SilverStripe\\Admin\\ModelAdmin -->
<g id="edge4" class="edge">
<title>\\Firesphere\\SolrSearch\\Admins\\SearchAdmin&#45;&gt;\\SilverStripe\\Admin\\ModelAdmin</title>
<path fill="none" stroke="#000000" d="M627.2329,-3316.398C607.115,-3312.9802 585.1438,-3305.2536 572.2549,-3288.4051 486.9959,-3176.9538 556.8522,-895.044 508.2549,-763.4051 461.4675,-636.6687 340.7783,-523.1191 284.2168,-474.9118"/>
<polygon fill="none" stroke="#000000" points="286.2541,-472.0515 276.3534,-468.2796 281.741,-477.4024 286.2541,-472.0515"/>
</g>
<!-- \\Firesphere\\SolrSearch\\Forms\\SearchForm -->
<g id="node7" class="node">
<title>\\Firesphere\\SolrSearch\\Forms\\SearchForm</title>
<polygon fill="none" stroke="#000000" points="714.7549,-3176.4051 630.7549,-3176.4051 630.7549,-3140.4051 714.7549,-3140.4051 714.7549,-3176.4051"/>
<text text-anchor="middle" x="672.7549" y="-3155.6051" font-family="Courier,monospace" font-size="11.00" fill="#000000">SearchForm</text>
</g>
<!-- \\SilverStripe\\Forms\\Form -->
<g id="node54" class="node">
<title>\\SilverStripe\\Forms\\Form</title>
<ellipse fill="none" stroke="#000000" cx="254.1275" cy="-396.4051" rx="129.1772" ry="18"/>
<text text-anchor="middle" x="254.1275" y="-392.7051" font-family="Times,serif" font-size="14.00" fill="#c0c0c0">\SilverStripe\Forms\Form</text>
</g>
<!-- \\Firesphere\\SolrSearch\\Forms\\SearchForm&#45;&gt;\\SilverStripe\\Forms\\Form -->
<g id="edge5" class="edge">
<title>\\Firesphere\\SolrSearch\\Forms\\SearchForm&#45;&gt;\\SilverStripe\\Forms\\Form</title>
<path fill="none" stroke="#000000" d="M630.5689,-3156.94C609.5794,-3153.8259 585.848,-3146.2051 572.2549,-3128.4051 481.0224,-3008.9367 610.0903,-533.9745 508.2549,-423.4051 465.6519,-377.1481 392.3218,-373.8365 335.3501,-380.0953"/>
<polygon fill="none" stroke="#000000" points="334.7802,-376.6387 325.2752,-381.3189 335.6242,-383.5876 334.7802,-376.6387"/>
</g>
<!-- \\Firesphere\\SolrSearch\\Traits\\GetterSetterTrait -->
<g id="node8" class="node">
<title>\\Firesphere\\SolrSearch\\Traits\\GetterSetterTrait</title>
<polygon fill="none" stroke="#000000" points="738.2549,-3096.4051 607.2549,-3096.4051 607.2549,-3060.4051 738.2549,-3060.4051 738.2549,-3096.4051"/>
<text text-anchor="middle" x="672.7549" y="-3075.6051" font-family="Courier,monospace" font-size="11.00" fill="#000000">GetterSetterTrait</text>
</g>
<!-- \\Firesphere\\SolrSearch\\Traits\\LoggerTrait -->
<g id="node9" class="node">
<title>\\Firesphere\\SolrSearch\\Traits\\LoggerTrait</title>
<polygon fill="none" stroke="#000000" points="718.2549,-3042.4051 627.2549,-3042.4051 627.2549,-3006.4051 718.2549,-3006.4051 718.2549,-3042.4051"/>
<text text-anchor="middle" x="672.7549" y="-3021.6051" font-family="Courier,monospace" font-size="11.00" fill="#000000">LoggerTrait</text>
</g>
<!-- \\Firesphere\\SolrSearch\\Traits\\DocumentFactoryTrait -->
<g id="node10" class="node">
<title>\\Firesphere\\SolrSearch\\Traits\\DocumentFactoryTrait</title>
<polygon fill="none" stroke="#000000" points="748.7549,-2988.4051 596.7549,-2988.4051 596.7549,-2952.4051 748.7549,-2952.4051 748.7549,-2988.4051"/>
<text text-anchor="middle" x="672.7549" y="-2967.6051" font-family="Courier,monospace" font-size="11.00" fill="#000000">DocumentFactoryTrait</text>
</g>
<!-- \\Firesphere\\SolrSearch\\Traits\\SearchResultSetTrait -->
<g id="node11" class="node">
<title>\\Firesphere\\SolrSearch\\Traits\\SearchResultSetTrait</title>
<polygon fill="none" stroke="#000000" points="748.7549,-2934.4051 596.7549,-2934.4051 596.7549,-2898.4051 748.7549,-2898.4051 748.7549,-2934.4051"/>
<text text-anchor="middle" x="672.7549" y="-2913.6051" font-family="Courier,monospace" font-size="11.00" fill="#000000">SearchResultSetTrait</text>
</g>
<!-- \\Firesphere\\SolrSearch\\Traits\\SearchResultGetTrait -->
<g id="node12" class="node">
<title>\\Firesphere\\SolrSearch\\Traits\\SearchResultGetTrait</title>
<polygon fill="none" stroke="#000000" points="748.7549,-2880.4051 596.7549,-2880.4051 596.7549,-2844.4051 748.7549,-2844.4051 748.7549,-2880.4051"/>
<text text-anchor="middle" x="672.7549" y="-2859.6051" font-family="Courier,monospace" font-size="11.00" fill="#000000">SearchResultGetTrait</text>
</g>
<!-- \\Firesphere\\SolrSearch\\Traits\\DataResolveTrait -->
<g id="node13" class="node">
<title>\\Firesphere\\SolrSearch\\Traits\\DataResolveTrait</title>
<polygon fill="none" stroke="#000000" points="735.2549,-2826.4051 610.2549,-2826.4051 610.2549,-2790.4051 735.2549,-2790.4051 735.2549,-2826.4051"/>
<text text-anchor="middle" x="672.7549" y="-2805.6051" font-family="Courier,monospace" font-size="11.00" fill="#000000">DataResolveTrait</text>
</g>
<!-- \\Firesphere\\SolrSearch\\Traits\\GetSetSchemaServiceTrait -->
<g id="node14" class="node">
<title>\\Firesphere\\SolrSearch\\Traits\\GetSetSchemaServiceTrait</title>
<polygon fill="none" stroke="#000000" points="762.2549,-2772.4051 583.2549,-2772.4051 583.2549,-2736.4051 762.2549,-2736.4051 762.2549,-2772.4051"/>
<text text-anchor="middle" x="672.7549" y="-2751.6051" font-family="Courier,monospace" font-size="11.00" fill="#000000">GetSetSchemaServiceTrait</text>
</g>
<!-- \\Firesphere\\SolrSearch\\Traits\\BaseIndexTrait -->
<g id="node15" class="node">
<title>\\Firesphere\\SolrSearch\\Traits\\BaseIndexTrait</title>
<polygon fill="none" stroke="#000000" points="728.2549,-2718.4051 617.2549,-2718.4051 617.2549,-2682.4051 728.2549,-2682.4051 728.2549,-2718.4051"/>
<text text-anchor="middle" x="672.7549" y="-2697.6051" font-family="Courier,monospace" font-size="11.00" fill="#000000">BaseIndexTrait</text>
</g>
<!-- \\Firesphere\\SolrSearch\\Traits\\CoreAdminTrait -->
<g id="node16" class="node">
<title>\\Firesphere\\SolrSearch\\Traits\\CoreAdminTrait</title>
<polygon fill="none" stroke="#000000" points="728.2549,-2664.4051 617.2549,-2664.4051 617.2549,-2628.4051 728.2549,-2628.4051 728.2549,-2664.4051"/>
<text text-anchor="middle" x="672.7549" y="-2643.6051" font-family="Courier,monospace" font-size="11.00" fill="#000000">CoreAdminTrait</text>
</g>
<!-- \\Firesphere\\SolrSearch\\Traits\\CoreServiceTrait -->
<g id="node17" class="node">
<title>\\Firesphere\\SolrSearch\\Traits\\CoreServiceTrait</title>
<polygon fill="none" stroke="#000000" points="735.2549,-2610.4051 610.2549,-2610.4051 610.2549,-2574.4051 735.2549,-2574.4051 735.2549,-2610.4051"/>
<text text-anchor="middle" x="672.7549" y="-2589.6051" font-family="Courier,monospace" font-size="11.00" fill="#000000">CoreServiceTrait</text>
</g>
<!-- \\Firesphere\\SolrSearch\\Traits\\QueryComponentFacetTrait -->
<g id="node18" class="node">
<title>\\Firesphere\\SolrSearch\\Traits\\QueryComponentFacetTrait</title>
<polygon fill="none" stroke="#000000" points="762.2549,-2556.4051 583.2549,-2556.4051 583.2549,-2520.4051 762.2549,-2520.4051 762.2549,-2556.4051"/>
<text text-anchor="middle" x="672.7549" y="-2535.6051" font-family="Courier,monospace" font-size="11.00" fill="#000000">QueryComponentFacetTrait</text>
</g>
<!-- \\Firesphere\\SolrSearch\\Traits\\QueryComponentFilterTrait -->
<g id="node19" class="node">
<title>\\Firesphere\\SolrSearch\\Traits\\QueryComponentFilterTrait</title>
<polygon fill="none" stroke="#000000" points="765.2549,-2502.4051 580.2549,-2502.4051 580.2549,-2466.4051 765.2549,-2466.4051 765.2549,-2502.4051"/>
<text text-anchor="middle" x="672.7549" y="-2481.6051" font-family="Courier,monospace" font-size="11.00" fill="#000000">QueryComponentFilterTrait</text>
</g>
<!-- \\Firesphere\\SolrSearch\\Traits\\QueryComponentBoostTrait -->
<g id="node20" class="node">
<title>\\Firesphere\\SolrSearch\\Traits\\QueryComponentBoostTrait</title>
<polygon fill="none" stroke="#000000" points="762.2549,-2448.4051 583.2549,-2448.4051 583.2549,-2412.4051 762.2549,-2412.4051 762.2549,-2448.4051"/>
<text text-anchor="middle" x="672.7549" y="-2427.6051" font-family="Courier,monospace" font-size="11.00" fill="#000000">QueryComponentBoostTrait</text>
</g>
<!-- \\Firesphere\\SolrSearch\\Traits\\GetSetSearchResolverTrait -->
<g id="node21" class="node">
<title>\\Firesphere\\SolrSearch\\Traits\\GetSetSearchResolverTrait</title>
<polygon fill="none" stroke="#000000" points="765.2549,-2394.4051 580.2549,-2394.4051 580.2549,-2358.4051 765.2549,-2358.4051 765.2549,-2394.4051"/>
<text text-anchor="middle" x="672.7549" y="-2373.6051" font-family="Courier,monospace" font-size="11.00" fill="#000000">GetSetSearchResolverTrait</text>
</g>
<!-- \\Firesphere\\SolrSearch\\Traits\\BaseQueryTrait -->
<g id="node22" class="node">
<title>\\Firesphere\\SolrSearch\\Traits\\BaseQueryTrait</title>
<polygon fill="none" stroke="#000000" points="728.2549,-2340.4051 617.2549,-2340.4051 617.2549,-2304.4051 728.2549,-2304.4051 728.2549,-2340.4051"/>
<text text-anchor="middle" x="672.7549" y="-2319.6051" font-family="Courier,monospace" font-size="11.00" fill="#000000">BaseQueryTrait</text>
</g>
<!-- \\Firesphere\\SolrSearch\\States\\SiteState -->
<g id="node23" class="node">
<title>\\Firesphere\\SolrSearch\\States\\SiteState</title>
<polygon fill="none" stroke="#000000" points="714.7549,-2260.4051 630.7549,-2260.4051 630.7549,-2224.4051 714.7549,-2224.4051 714.7549,-2260.4051"/>
<text text-anchor="start" x="638.7549" y="-2245.6051" font-family="Courier,monospace" font-size="11.00" fill="#000000">«abstract»</text>
<text text-anchor="start" x="642.2549" y="-2233.6051" font-family="Courier,monospace" font-size="11.00" fill="#000000">SiteState</text>
</g>
<!-- \\Firesphere\\SolrSearch\\Tasks\\SolrConfigureTask -->
<g id="node24" class="node">
<title>\\Firesphere\\SolrSearch\\Tasks\\SolrConfigureTask</title>
<polygon fill="none" stroke="#000000" points="738.2549,-2180.4051 607.2549,-2180.4051 607.2549,-2144.4051 738.2549,-2144.4051 738.2549,-2180.4051"/>
<text text-anchor="middle" x="672.7549" y="-2159.6051" font-family="Courier,monospace" font-size="11.00" fill="#000000">SolrConfigureTask</text>
</g>
<!-- \\SilverStripe\\Dev\\BuildTask -->
<g id="node55" class="node">
<title>\\SilverStripe\\Dev\\BuildTask</title>
<ellipse fill="none" stroke="#000000" cx="254.1275" cy="-342.4051" rx="139.9756" ry="18"/>
<text text-anchor="middle" x="254.1275" y="-338.7051" font-family="Times,serif" font-size="14.00" fill="#c0c0c0">\SilverStripe\Dev\BuildTask</text>
</g>
<!-- \\Firesphere\\SolrSearch\\Tasks\\SolrConfigureTask&#45;&gt;\\SilverStripe\\Dev\\BuildTask -->
<g id="edge6" class="edge">
<title>\\Firesphere\\SolrSearch\\Tasks\\SolrConfigureTask&#45;&gt;\\SilverStripe\\Dev\\BuildTask</title>
<path fill="none" stroke="#000000" d="M607.0282,-2157.3085C593.6256,-2153.1566 580.9747,-2146.36 572.2549,-2135.4051 449.973,-1981.7794 642.1795,-512.9945 508.2549,-369.4051 466.0757,-324.182 394.4939,-320.1993 338.0298,-325.9554"/>
<polygon fill="none" stroke="#000000" points="337.5736,-322.4846 328.0324,-327.0907 338.3635,-329.4399 337.5736,-322.4846"/>
</g>
<!-- \\Firesphere\\SolrSearch\\Tasks\\SolrIndexTask -->
<g id="node25" class="node">
<title>\\Firesphere\\SolrSearch\\Tasks\\SolrIndexTask</title>
<polygon fill="none" stroke="#000000" points="724.7549,-2126.4051 620.7549,-2126.4051 620.7549,-2090.4051 724.7549,-2090.4051 724.7549,-2126.4051"/>
<text text-anchor="middle" x="672.7549" y="-2105.6051" font-family="Courier,monospace" font-size="11.00" fill="#000000">SolrIndexTask</text>
</g>
<!-- \\Firesphere\\SolrSearch\\Tasks\\SolrIndexTask&#45;&gt;\\SilverStripe\\Dev\\BuildTask -->
<g id="edge7" class="edge">
<title>\\Firesphere\\SolrSearch\\Tasks\\SolrIndexTask&#45;&gt;\\SilverStripe\\Dev\\BuildTask</title>
<path fill="none" stroke="#000000" d="M620.66,-2106.6444C602.5663,-2103.2409 583.9084,-2096.0286 572.2549,-2081.4051 453.6221,-1932.5383 638.1693,-508.5356 508.2549,-369.4051 466.0499,-324.206 394.4704,-320.2213 338.0138,-325.9704"/>
<polygon fill="none" stroke="#000000" points="337.5595,-322.4994 328.0178,-327.1044 338.3486,-329.4548 337.5595,-322.4994"/>
</g>
<!-- \\Firesphere\\SolrSearch\\Tasks\\ClearDirtyClassesTask -->
<g id="node26" class="node">
<title>\\Firesphere\\SolrSearch\\Tasks\\ClearDirtyClassesTask</title>
<polygon fill="none" stroke="#000000" points="751.7549,-2072.4051 593.7549,-2072.4051 593.7549,-2036.4051 751.7549,-2036.4051 751.7549,-2072.4051"/>
<text text-anchor="middle" x="672.7549" y="-2051.6051" font-family="Courier,monospace" font-size="11.00" fill="#000000">ClearDirtyClassesTask</text>
</g>
<!-- \\Firesphere\\SolrSearch\\Tasks\\ClearDirtyClassesTask&#45;&gt;\\SilverStripe\\Dev\\BuildTask -->
<g id="edge8" class="edge">
<title>\\Firesphere\\SolrSearch\\Tasks\\ClearDirtyClassesTask&#45;&gt;\\SilverStripe\\Dev\\BuildTask</title>
<path fill="none" stroke="#000000" d="M593.5803,-2041.6192C585.3586,-2037.348 577.9462,-2031.7431 572.2549,-2024.4051 459.4717,-1878.9897 633.9365,-503.8292 508.2549,-369.4051 466.0208,-324.2332 394.4439,-320.246 337.9957,-325.9873"/>
<polygon fill="none" stroke="#000000" points="337.5435,-322.516 328.0012,-327.1199 338.3318,-329.4715 337.5435,-322.516"/>
</g>
<!-- \\Firesphere\\SolrSearch\\Helpers\\FieldResolver -->
<g id="node27" class="node">
<title>\\Firesphere\\SolrSearch\\Helpers\\FieldResolver</title>
<polygon fill="none" stroke="#000000" points="724.7549,-1992.4051 620.7549,-1992.4051 620.7549,-1956.4051 724.7549,-1956.4051 724.7549,-1992.4051"/>
<text text-anchor="middle" x="672.7549" y="-1971.6051" font-family="Courier,monospace" font-size="11.00" fill="#000000">FieldResolver</text>
</g>
<!-- \\Firesphere\\SolrSearch\\Helpers\\Synonyms -->
<g id="node28" class="node">
<title>\\Firesphere\\SolrSearch\\Helpers\\Synonyms</title>
<polygon fill="none" stroke="#000000" points="708.2549,-1938.4051 637.2549,-1938.4051 637.2549,-1902.4051 708.2549,-1902.4051 708.2549,-1938.4051"/>
<text text-anchor="middle" x="672.7549" y="-1917.6051" font-family="Courier,monospace" font-size="11.00" fill="#000000">Synonyms</text>
</g>
<!-- \\Firesphere\\SolrSearch\\Helpers\\DataResolver -->
<g id="node29" class="node">
<title>\\Firesphere\\SolrSearch\\Helpers\\DataResolver</title>
<polygon fill="none" stroke="#000000" points="721.7549,-1884.4051 623.7549,-1884.4051 623.7549,-1848.4051 721.7549,-1848.4051 721.7549,-1884.4051"/>
<text text-anchor="middle" x="672.7549" y="-1863.6051" font-family="Courier,monospace" font-size="11.00" fill="#000000">DataResolver</text>
</g>
<!-- \\Firesphere\\SolrSearch\\Helpers\\Statics -->
<g id="node30" class="node">
<title>\\Firesphere\\SolrSearch\\Helpers\\Statics</title>
<polygon fill="none" stroke="#000000" points="704.7549,-1830.4051 640.7549,-1830.4051 640.7549,-1794.4051 704.7549,-1794.4051 704.7549,-1830.4051"/>
<text text-anchor="middle" x="672.7549" y="-1809.6051" font-family="Courier,monospace" font-size="11.00" fill="#000000">Statics</text>
</g>
<!-- \\Firesphere\\SolrSearch\\Helpers\\SolrLogger -->
<g id="node31" class="node">
<title>\\Firesphere\\SolrSearch\\Helpers\\SolrLogger</title>
<polygon fill="none" stroke="#000000" points="714.7549,-1776.4051 630.7549,-1776.4051 630.7549,-1740.4051 714.7549,-1740.4051 714.7549,-1776.4051"/>
<text text-anchor="middle" x="672.7549" y="-1755.6051" font-family="Courier,monospace" font-size="11.00" fill="#000000">SolrLogger</text>
</g>
<!-- \\Firesphere\\SolrSearch\\Extensions\\GridFieldExtension -->
<g id="node32" class="node">
<title>\\Firesphere\\SolrSearch\\Extensions\\GridFieldExtension</title>
<polygon fill="none" stroke="#000000" points="741.7549,-1696.4051 603.7549,-1696.4051 603.7549,-1660.4051 741.7549,-1660.4051 741.7549,-1696.4051"/>
<text text-anchor="middle" x="672.7549" y="-1675.6051" font-family="Courier,monospace" font-size="11.00" fill="#000000">GridFieldExtension</text>
</g>
<!-- \\Firesphere\\SolrSearch\\Extensions\\GridFieldExtension&#45;&gt;\\SilverStripe\\Core\\Extension -->
<g id="edge9" class="edge">
<title>\\Firesphere\\SolrSearch\\Extensions\\GridFieldExtension&#45;&gt;\\SilverStripe\\Core\\Extension</title>
<path fill="none" stroke="#000000" d="M603.5085,-1672.0446C591.4562,-1667.8277 580.245,-1661.3242 572.2549,-1651.4051 479.0265,-1535.6692 610.2511,-423.4935 508.2549,-315.4051 466.244,-270.8849 395.7046,-266.5093 339.5884,-271.9386"/>
<polygon fill="none" stroke="#000000" points="339.2105,-268.459 329.6458,-273.0161 339.9647,-275.4183 339.2105,-268.459"/>
</g>
<!-- \\Firesphere\\SolrSearch\\Extensions\\DataObjectExtension -->
<g id="node33" class="node">
<title>\\Firesphere\\SolrSearch\\Extensions\\DataObjectExtension</title>
<polygon fill="none" stroke="#000000" points="745.2549,-1642.4051 600.2549,-1642.4051 600.2549,-1606.4051 745.2549,-1606.4051 745.2549,-1642.4051"/>
<text text-anchor="middle" x="672.7549" y="-1621.6051" font-family="Courier,monospace" font-size="11.00" fill="#000000">DataObjectExtension</text>
</g>
<!-- \\SilverStripe\\ORM\\DataExtension -->
<g id="node56" class="node">
<title>\\SilverStripe\\ORM\\DataExtension</title>
<ellipse fill="none" stroke="#000000" cx="254.1275" cy="-72.4051" rx="167.8704" ry="18"/>
<text text-anchor="middle" x="254.1275" y="-68.7051" font-family="Times,serif" font-size="14.00" fill="#c0c0c0">\SilverStripe\ORM\DataExtension</text>
</g>
<!-- \\Firesphere\\SolrSearch\\Extensions\\DataObjectExtension&#45;&gt;\\SilverStripe\\ORM\\DataExtension -->
<g id="edge10" class="edge">
<title>\\Firesphere\\SolrSearch\\Extensions\\DataObjectExtension&#45;&gt;\\SilverStripe\\ORM\\DataExtension</title>
<path fill="none" stroke="#000000" d="M600.0423,-1614.607C589.2777,-1610.0707 579.416,-1603.5988 572.2549,-1594.4051 470.0869,-1463.2366 622.0558,-220.6191 508.2549,-99.4051 467.3732,-55.8603 399.2134,-50.6464 343.7697,-55.4912"/>
<polygon fill="none" stroke="#000000" points="343.1787,-52.0327 333.5746,-56.506 343.8721,-58.9983 343.1787,-52.0327"/>
</g>
<!-- \\Firesphere\\SolrSearch\\Models\\DirtyClass -->
<g id="node34" class="node">
<title>\\Firesphere\\SolrSearch\\Models\\DirtyClass</title>
<polygon fill="none" stroke="#000000" points="714.7549,-1562.4051 630.7549,-1562.4051 630.7549,-1526.4051 714.7549,-1526.4051 714.7549,-1562.4051"/>
<text text-anchor="middle" x="672.7549" y="-1541.6051" font-family="Courier,monospace" font-size="11.00" fill="#000000">DirtyClass</text>
</g>
<!-- \\SilverStripe\\ORM\\DataObject -->
<g id="node57" class="node">
<title>\\SilverStripe\\ORM\\DataObject</title>
<ellipse fill="none" stroke="#000000" cx="254.1275" cy="-234.4051" rx="152.9733" ry="18"/>
<text text-anchor="middle" x="254.1275" y="-230.7051" font-family="Times,serif" font-size="14.00" fill="#c0c0c0">\SilverStripe\ORM\DataObject</text>
</g>
<!-- \\Firesphere\\SolrSearch\\Models\\DirtyClass&#45;&gt;\\SilverStripe\\ORM\\DataObject -->
<g id="edge11" class="edge">
<title>\\Firesphere\\SolrSearch\\Models\\DirtyClass&#45;&gt;\\SilverStripe\\ORM\\DataObject</title>
<path fill="none" stroke="#000000" d="M630.6162,-1544.0795C609.7745,-1541.5413 586.1646,-1534.6192 572.2549,-1517.4051 484.4303,-1408.7167 604.3125,-362.8903 508.2549,-261.4051 466.6941,-217.4959 397.3738,-212.6822 341.6226,-217.7842"/>
<polygon fill="none" stroke="#000000" points="340.9665,-214.3333 331.3803,-218.8451 341.6877,-221.2961 340.9665,-214.3333"/>
</g>
<!-- \\Firesphere\\SolrSearch\\Models\\SearchSynonym -->
<g id="node35" class="node">
<title>\\Firesphere\\SolrSearch\\Models\\SearchSynonym</title>
<polygon fill="none" stroke="#000000" points="724.7549,-1508.4051 620.7549,-1508.4051 620.7549,-1472.4051 724.7549,-1472.4051 724.7549,-1508.4051"/>
<text text-anchor="middle" x="672.7549" y="-1487.6051" font-family="Courier,monospace" font-size="11.00" fill="#000000">SearchSynonym</text>
</g>
<!-- \\Firesphere\\SolrSearch\\Models\\SearchSynonym&#45;&gt;\\SilverStripe\\ORM\\DataObject -->
<g id="edge12" class="edge">
<title>\\Firesphere\\SolrSearch\\Models\\SearchSynonym&#45;&gt;\\SilverStripe\\ORM\\DataObject</title>
<path fill="none" stroke="#000000" d="M620.5208,-1488.496C602.5234,-1485.0608 583.9669,-1477.8657 572.2549,-1463.4051 488.0775,-1359.4732 600.3044,-358.4336 508.2549,-261.4051 466.644,-217.5434 397.3269,-212.7266 341.5898,-217.8153"/>
<polygon fill="none" stroke="#000000" points="340.9374,-214.364 331.3502,-218.8736 341.6571,-221.3269 340.9374,-214.364"/>
</g>
<!-- \\Firesphere\\SolrSearch\\Models\\SolrLog -->
<g id="node36" class="node">
<title>\\Firesphere\\SolrSearch\\Models\\SolrLog</title>
<polygon fill="none" stroke="#000000" points="704.7549,-1454.4051 640.7549,-1454.4051 640.7549,-1418.4051 704.7549,-1418.4051 704.7549,-1454.4051"/>
<text text-anchor="middle" x="672.7549" y="-1433.6051" font-family="Courier,monospace" font-size="11.00" fill="#000000">SolrLog</text>
</g>
<!-- \\Firesphere\\SolrSearch\\Models\\SolrLog&#45;&gt;\\SilverStripe\\ORM\\DataObject -->
<g id="edge13" class="edge">
<title>\\Firesphere\\SolrSearch\\Models\\SolrLog&#45;&gt;\\SilverStripe\\ORM\\DataObject</title>
<path fill="none" stroke="#000000" d="M640.7282,-1435.9758C617.8571,-1433.8083 588.3891,-1426.8425 572.2549,-1406.4051 414.347,-1206.3817 683.8932,-446.0546 508.2549,-261.4051 466.6581,-217.6741 397.5121,-212.7948 341.8406,-217.8252"/>
<polygon fill="none" stroke="#000000" points="341.2034,-214.3721 331.612,-218.8727 341.9165,-221.3357 341.2034,-214.3721"/>
</g>
<!-- \\SilverStripe\\Security\\PermissionProvider -->
<g id="node58" class="node">
<title>\\SilverStripe\\Security\\PermissionProvider</title>
<ellipse fill="none" stroke="#000000" cx="254.1275" cy="-180.4051" rx="206.0634" ry="18"/>
<text text-anchor="middle" x="254.1275" y="-176.7051" font-family="Times,serif" font-size="14.00" fill="#c0c0c0">\SilverStripe\Security\PermissionProvider</text>
</g>
<!-- \\Firesphere\\SolrSearch\\Models\\SolrLog&#45;&gt;\\SilverStripe\\Security\\PermissionProvider -->
<g id="edge14" class="edge">
<title>\\Firesphere\\SolrSearch\\Models\\SolrLog&#45;&gt;\\SilverStripe\\Security\\PermissionProvider</title>
<path fill="none" stroke="#000000" stroke-dasharray="1,5" d="M640.7132,-1435.9876C617.8345,-1433.8261 588.3635,-1426.8627 572.2549,-1406.4051 489.7202,-1301.5874 600.0818,-304.1861 508.2549,-207.4051 468.5816,-165.5914 403.7288,-159.2633 349.4696,-163.1729"/>
<polygon fill="none" stroke="#000000" points="349.1406,-159.6882 339.4699,-164.0158 349.7286,-166.6634 349.1406,-159.6882"/>
</g>
<!-- \\Firesphere\\SolrSearch\\Jobs\\ClearDirtyClassesJob -->
<g id="node37" class="node">
<title>\\Firesphere\\SolrSearch\\Jobs\\ClearDirtyClassesJob</title>
<polygon fill="none" stroke="#000000" points="748.7549,-1374.4051 596.7549,-1374.4051 596.7549,-1338.4051 748.7549,-1338.4051 748.7549,-1374.4051"/>
<text text-anchor="middle" x="672.7549" y="-1353.6051" font-family="Courier,monospace" font-size="11.00" fill="#000000">ClearDirtyClassesJob</text>
</g>
<!-- \\Symbiote\\QueuedJobs\\Services\\AbstractQueuedJob -->
<g id="node59" class="node">
<title>\\Symbiote\\QueuedJobs\\Services\\AbstractQueuedJob</title>
<ellipse fill="none" stroke="#000000" cx="254.1275" cy="-126.4051" rx="254.255" ry="18"/>
<text text-anchor="middle" x="254.1275" y="-122.7051" font-family="Times,serif" font-size="14.00" fill="#c0c0c0">\Symbiote\QueuedJobs\Services\AbstractQueuedJob</text>
</g>
<!-- \\Firesphere\\SolrSearch\\Jobs\\ClearDirtyClassesJob&#45;&gt;\\Symbiote\\QueuedJobs\\Services\\AbstractQueuedJob -->
<g id="edge15" class="edge">
<title>\\Firesphere\\SolrSearch\\Jobs\\ClearDirtyClassesJob&#45;&gt;\\Symbiote\\QueuedJobs\\Services\\AbstractQueuedJob</title>
<path fill="none" stroke="#000000" d="M596.7413,-1347.3245C587.3212,-1343.179 578.741,-1337.4037 572.2549,-1329.4051 407.4121,-1126.1215 688.4945,-343.1709 508.2549,-153.4051 469.8622,-112.9832 407.9356,-105.7371 354.8266,-108.8376"/>
<polygon fill="none" stroke="#000000" points="354.4029,-105.3588 344.6766,-109.5599 354.8998,-112.3412 354.4029,-105.3588"/>
</g>
<!-- \\Firesphere\\SolrSearch\\Jobs\\SolrConfigureJob -->
<g id="node38" class="node">
<title>\\Firesphere\\SolrSearch\\Jobs\\SolrConfigureJob</title>
<polygon fill="none" stroke="#000000" points="735.2549,-1320.4051 610.2549,-1320.4051 610.2549,-1284.4051 735.2549,-1284.4051 735.2549,-1320.4051"/>
<text text-anchor="middle" x="672.7549" y="-1299.6051" font-family="Courier,monospace" font-size="11.00" fill="#000000">SolrConfigureJob</text>
</g>
<!-- \\Firesphere\\SolrSearch\\Jobs\\SolrConfigureJob&#45;&gt;\\Symbiote\\QueuedJobs\\Services\\AbstractQueuedJob -->
<g id="edge16" class="edge">
<title>\\Firesphere\\SolrSearch\\Jobs\\SolrConfigureJob&#45;&gt;\\Symbiote\\QueuedJobs\\Services\\AbstractQueuedJob</title>
<path fill="none" stroke="#000000" d="M610.058,-1298.0194C595.6049,-1293.9685 581.7148,-1287.0399 572.2549,-1275.4051 414.7054,-1081.6332 680.4795,-334.2588 508.2549,-153.4051 469.8813,-113.1088 408.1133,-105.8153 355.0834,-108.8594"/>
<polygon fill="none" stroke="#000000" points="354.6781,-105.3792 344.9477,-109.5707 355.1682,-112.362 354.6781,-105.3792"/>
</g>
<!-- \\Firesphere\\SolrSearch\\Jobs\\SolrIndexJob -->
<g id="node39" class="node">
<title>\\Firesphere\\SolrSearch\\Jobs\\SolrIndexJob</title>
<polygon fill="none" stroke="#000000" points="721.7549,-1266.4051 623.7549,-1266.4051 623.7549,-1230.4051 721.7549,-1230.4051 721.7549,-1266.4051"/>
<text text-anchor="middle" x="672.7549" y="-1245.6051" font-family="Courier,monospace" font-size="11.00" fill="#000000">SolrIndexJob</text>
</g>
<!-- \\Firesphere\\SolrSearch\\Jobs\\SolrIndexJob&#45;&gt;\\Symbiote\\QueuedJobs\\Services\\AbstractQueuedJob -->
<g id="edge17" class="edge">
<title>\\Firesphere\\SolrSearch\\Jobs\\SolrIndexJob&#45;&gt;\\Symbiote\\QueuedJobs\\Services\\AbstractQueuedJob</title>
<path fill="none" stroke="#000000" d="M623.5959,-1245.4739C604.6355,-1241.7047 584.5856,-1233.9575 572.2549,-1218.4051 424.9552,-1032.6198 672.0203,-324.8527 508.2549,-153.4051 469.892,-113.2426 408.2821,-105.9024 355.3335,-108.8881"/>
<polygon fill="none" stroke="#000000" points="354.9471,-105.4064 345.2125,-109.588 355.4302,-112.3897 354.9471,-105.4064"/>
</g>
<!-- \\Firesphere\\SolrSearch\\Services\\SolrCoreService -->
<g id="node40" class="node">
<title>\\Firesphere\\SolrSearch\\Services\\SolrCoreService</title>
<polygon fill="none" stroke="#000000" points="731.7549,-1186.4051 613.7549,-1186.4051 613.7549,-1150.4051 731.7549,-1150.4051 731.7549,-1186.4051"/>
<text text-anchor="middle" x="672.7549" y="-1165.6051" font-family="Courier,monospace" font-size="11.00" fill="#000000">SolrCoreService</text>
</g>
<!-- \\Firesphere\\SolrSearch\\Services\\SchemaService -->
<g id="node41" class="node">
<title>\\Firesphere\\SolrSearch\\Services\\SchemaService</title>
<polygon fill="none" stroke="#000000" points="724.7549,-1132.4051 620.7549,-1132.4051 620.7549,-1096.4051 724.7549,-1096.4051 724.7549,-1132.4051"/>
<text text-anchor="middle" x="672.7549" y="-1111.6051" font-family="Courier,monospace" font-size="11.00" fill="#000000">SchemaService</text>
</g>
<!-- \\SilverStripe\\View\\ViewableData -->
<g id="node60" class="node">
<title>\\SilverStripe\\View\\ViewableData</title>
<ellipse fill="none" stroke="#000000" cx="254.1275" cy="-18.4051" rx="163.2712" ry="18"/>
<text text-anchor="middle" x="254.1275" y="-14.7051" font-family="Times,serif" font-size="14.00" fill="#c0c0c0">\SilverStripe\View\ViewableData</text>
</g>
<!-- \\Firesphere\\SolrSearch\\Services\\SchemaService&#45;&gt;\\SilverStripe\\View\\ViewableData -->
<g id="edge18" class="edge">
<title>\\Firesphere\\SolrSearch\\Services\\SchemaService&#45;&gt;\\SilverStripe\\View\\ViewableData</title>
<path fill="none" stroke="#000000" d="M620.7303,-1110.8631C602.645,-1106.8925 583.9745,-1099.1639 572.2549,-1084.4051 428.4024,-903.2466 668.1621,-212.5626 508.2549,-45.4051 467.1114,-2.3961 399.3044,2.9516 344.0767,-1.7015"/>
<polygon fill="none" stroke="#000000" points="343.5384,1.763 333.9201,-2.6799 344.2097,-5.2048 343.5384,1.763"/>
</g>
<!-- \\Firesphere\\SolrSearch\\Factories\\DocumentFactory -->
<g id="node42" class="node">
<title>\\Firesphere\\SolrSearch\\Factories\\DocumentFactory</title>
<polygon fill="none" stroke="#000000" points="731.7549,-1052.4051 613.7549,-1052.4051 613.7549,-1016.4051 731.7549,-1016.4051 731.7549,-1052.4051"/>
<text text-anchor="middle" x="672.7549" y="-1031.6051" font-family="Courier,monospace" font-size="11.00" fill="#000000">DocumentFactory</text>
</g>
<!-- \\Firesphere\\SolrSearch\\Factories\\QueryComponentFactory -->
<g id="node43" class="node">
<title>\\Firesphere\\SolrSearch\\Factories\\QueryComponentFactory</title>
<polygon fill="none" stroke="#000000" points="751.7549,-998.4051 593.7549,-998.4051 593.7549,-962.4051 751.7549,-962.4051 751.7549,-998.4051"/>
<text text-anchor="middle" x="672.7549" y="-977.6051" font-family="Courier,monospace" font-size="11.00" fill="#000000">QueryComponentFactory</text>
</g>
<!-- \\Firesphere\\SolrSearch\\Interfaces\\SiteStateInterface -->
<g id="node44" class="node">
<title>\\Firesphere\\SolrSearch\\Interfaces\\SiteStateInterface</title>
<polygon fill="none" stroke="#000000" points="323.1275,-865.4051 185.1275,-865.4051 185.1275,-829.4051 323.1275,-829.4051 323.1275,-865.4051"/>
<text text-anchor="middle" x="254.1275" y="-844.6051" font-family="Courier,monospace" font-size="11.00" fill="#000000">SiteStateInterface</text>
</g>
<!-- \\Firesphere\\SolrSearch\\Interfaces\\ConfigStore -->
<g id="node45" class="node">
<title>\\Firesphere\\SolrSearch\\Interfaces\\ConfigStore</title>
<polygon fill="none" stroke="#000000" points="299.6275,-811.4051 208.6275,-811.4051 208.6275,-775.4051 299.6275,-775.4051 299.6275,-811.4051"/>
<text text-anchor="middle" x="254.1275" y="-790.6051" font-family="Courier,monospace" font-size="11.00" fill="#000000">ConfigStore</text>
</g>
<!-- \\Firesphere\\SolrSearch\\Stores\\PostConfigStore -->
<g id="node47" class="node">
<title>\\Firesphere\\SolrSearch\\Stores\\PostConfigStore</title>
<polygon fill="none" stroke="#000000" points="731.7549,-838.4051 613.7549,-838.4051 613.7549,-802.4051 731.7549,-802.4051 731.7549,-838.4051"/>
<text text-anchor="middle" x="672.7549" y="-817.6051" font-family="Courier,monospace" font-size="11.00" fill="#000000">PostConfigStore</text>
</g>
<!-- \\Firesphere\\SolrSearch\\Stores\\PostConfigStore&#45;&gt;\\Firesphere\\SolrSearch\\Interfaces\\ConfigStore -->
<g id="edge19" class="edge">
<title>\\Firesphere\\SolrSearch\\Stores\\PostConfigStore&#45;&gt;\\Firesphere\\SolrSearch\\Interfaces\\ConfigStore</title>
<path fill="none" stroke="#000000" stroke-dasharray="1,5" d="M613.6637,-816.5939C532.8854,-811.384 389.0185,-802.1051 309.9722,-797.0069"/>
<polygon fill="none" stroke="#000000" points="309.9333,-793.4972 299.7287,-796.3462 309.4827,-800.4827 309.9333,-793.4972"/>
</g>
<!-- \\Firesphere\\SolrSearch\\Stores\\FileConfigStore -->
<g id="node48" class="node">
<title>\\Firesphere\\SolrSearch\\Stores\\FileConfigStore</title>
<polygon fill="none" stroke="#000000" points="731.7549,-784.4051 613.7549,-784.4051 613.7549,-748.4051 731.7549,-748.4051 731.7549,-784.4051"/>
<text text-anchor="middle" x="672.7549" y="-763.6051" font-family="Courier,monospace" font-size="11.00" fill="#000000">FileConfigStore</text>
</g>
<!-- \\Firesphere\\SolrSearch\\Stores\\FileConfigStore&#45;&gt;\\Firesphere\\SolrSearch\\Interfaces\\ConfigStore -->
<g id="edge20" class="edge">
<title>\\Firesphere\\SolrSearch\\Stores\\FileConfigStore&#45;&gt;\\Firesphere\\SolrSearch\\Interfaces\\ConfigStore</title>
<path fill="none" stroke="#000000" stroke-dasharray="1,5" d="M613.6637,-770.2163C532.8854,-775.4262 389.0185,-784.7051 309.9722,-789.8033"/>
<polygon fill="none" stroke="#000000" points="309.4827,-786.3275 299.7287,-790.464 309.9333,-793.313 309.4827,-786.3275"/>
</g>
<!-- \\Firesphere\\SolrSearch\\Results\\SearchResult -->
<g id="node49" class="node">
<title>\\Firesphere\\SolrSearch\\Results\\SearchResult</title>
<polygon fill="none" stroke="#000000" points="721.7549,-704.4051 623.7549,-704.4051 623.7549,-668.4051 721.7549,-668.4051 721.7549,-704.4051"/>
<text text-anchor="middle" x="672.7549" y="-683.6051" font-family="Courier,monospace" font-size="11.00" fill="#000000">SearchResult</text>
</g>
<!-- \\Firesphere\\SolrSearch\\Fluent\\FluentExtension -->
<g id="node50" class="node">
<title>\\Firesphere\\SolrSearch\\Fluent\\FluentExtension</title>
<polygon fill="none" stroke="#000000" points="731.7549,-624.4051 613.7549,-624.4051 613.7549,-588.4051 731.7549,-588.4051 731.7549,-624.4051"/>
<text text-anchor="middle" x="672.7549" y="-603.6051" font-family="Courier,monospace" font-size="11.00" fill="#000000">FluentExtension</text>
</g>
<!-- \\Firesphere\\SolrSearch\\Fluent\\FluentExtension&#45;&gt;\\SilverStripe\\Core\\Extension -->
<g id="edge21" class="edge">
<title>\\Firesphere\\SolrSearch\\Fluent\\FluentExtension&#45;&gt;\\SilverStripe\\Core\\Extension</title>
<path fill="none" stroke="#000000" d="M613.7263,-599.5247C598.454,-595.1039 583.238,-587.9472 572.2549,-576.4051 489.9216,-489.8816 598.1983,-393.988 508.2549,-315.4051 466.673,-279.0753 405.4611,-271.6875 353.5325,-273.6877"/>
<polygon fill="none" stroke="#000000" points="353.0892,-270.2056 343.2791,-274.2072 353.4434,-277.1966 353.0892,-270.2056"/>
</g>
<!-- \\Firesphere\\SolrSearch\\Subsites\\SubsitesExtension -->
<g id="node51" class="node">
<title>\\Firesphere\\SolrSearch\\Subsites\\SubsitesExtension</title>
<polygon fill="none" stroke="#000000" points="738.2549,-544.4051 607.2549,-544.4051 607.2549,-508.4051 738.2549,-508.4051 738.2549,-544.4051"/>
<text text-anchor="middle" x="672.7549" y="-523.6051" font-family="Courier,monospace" font-size="11.00" fill="#000000">SubsitesExtension</text>
</g>
<!-- \\Firesphere\\SolrSearch\\Subsites\\SubsitesExtension&#45;&gt;\\SilverStripe\\ORM\\DataExtension -->
<g id="edge22" class="edge">
<title>\\Firesphere\\SolrSearch\\Subsites\\SubsitesExtension&#45;&gt;\\SilverStripe\\ORM\\DataExtension</title>
<path fill="none" stroke="#000000" d="M672.0649,-508.4041C668.4379,-441.4265 645.9712,-205.0703 508.2549,-99.4051 473.3941,-72.6575 427.4732,-62.5642 384.2668,-60.2424"/>
<polygon fill="none" stroke="#000000" points="384.3591,-56.7434 374.226,-59.8372 384.0767,-63.7377 384.3591,-56.7434"/>
</g>
</g>
</svg>
