<?xml version="1.0" encoding="UTF-8" standalone="no"?>
<!DOCTYPE svg PUBLIC "-//W3C//DTD SVG 1.1//EN"
 "http://www.w3.org/Graphics/SVG/1.1/DTD/svg11.dtd">
<!-- Generated by graphviz version 2.40.1 (20161225.0304)
 -->
<!-- Title: G Pages: 1 -->
<svg width="984pt" height="3859pt"
 viewBox="0.00 0.00 984.25 3858.60" xmlns="http://www.w3.org/2000/svg" xmlns:xlink="http://www.w3.org/1999/xlink">
<g id="graph0" class="graph" transform="scale(1 1) rotate(0) translate(4 3854.6044)">
<title>G</title>
<polygon fill="#ffffff" stroke="transparent" points="-4,4 -4,-3854.6044 980.2549,-3854.6044 980.2549,4 -4,4"/>
<g id="clust1" class="cluster">
<title>cluster_Global</title>
<path fill="none" stroke="#c0c0c0" d="M165.1275,-476.6044C165.1275,-476.6044 956.2549,-476.6044 956.2549,-476.6044 962.2549,-476.6044 968.2549,-482.6044 968.2549,-488.6044 968.2549,-488.6044 968.2549,-3830.6044 968.2549,-3830.6044 968.2549,-3836.6044 962.2549,-3842.6044 956.2549,-3842.6044 956.2549,-3842.6044 165.1275,-3842.6044 165.1275,-3842.6044 159.1275,-3842.6044 153.1275,-3836.6044 153.1275,-3830.6044 153.1275,-3830.6044 153.1275,-488.6044 153.1275,-488.6044 153.1275,-482.6044 159.1275,-476.6044 165.1275,-476.6044"/>
<text text-anchor="middle" x="560.6912" y="-3829.8044" font-family="Times,serif" font-size="11.00" fill="#c0c0c0">Global</text>
</g>
<g id="clust2" class="cluster">
<title>cluster_\SilverStripe</title>
<path fill="none" stroke="#c0c0c0" d="M817.2549,-1283.6044C817.2549,-1283.6044 948.2549,-1283.6044 948.2549,-1283.6044 954.2549,-1283.6044 960.2549,-1289.6044 960.2549,-1295.6044 960.2549,-1295.6044 960.2549,-1585.6044 960.2549,-1585.6044 960.2549,-1591.6044 954.2549,-1597.6044 948.2549,-1597.6044 948.2549,-1597.6044 817.2549,-1597.6044 817.2549,-1597.6044 811.2549,-1597.6044 805.2549,-1591.6044 805.2549,-1585.6044 805.2549,-1585.6044 805.2549,-1295.6044 805.2549,-1295.6044 805.2549,-1289.6044 811.2549,-1283.6044 817.2549,-1283.6044"/>
<text text-anchor="middle" x="882.7549" y="-1584.8044" font-family="Times,serif" font-size="11.00" fill="#c0c0c0">SilverStripe</text>
</g>
<g id="clust3" class="cluster">
<title>cluster_\SilverStripe\FullTextSearch</title>
<path fill="none" stroke="#c0c0c0" d="M825.2549,-1291.6044C825.2549,-1291.6044 940.2549,-1291.6044 940.2549,-1291.6044 946.2549,-1291.6044 952.2549,-1297.6044 952.2549,-1303.6044 952.2549,-1303.6044 952.2549,-1557.6044 952.2549,-1557.6044 952.2549,-1563.6044 946.2549,-1569.6044 940.2549,-1569.6044 940.2549,-1569.6044 825.2549,-1569.6044 825.2549,-1569.6044 819.2549,-1569.6044 813.2549,-1563.6044 813.2549,-1557.6044 813.2549,-1557.6044 813.2549,-1303.6044 813.2549,-1303.6044 813.2549,-1297.6044 819.2549,-1291.6044 825.2549,-1291.6044"/>
<text text-anchor="middle" x="882.7549" y="-1556.8044" font-family="Times,serif" font-size="11.00" fill="#c0c0c0">FullTextSearch</text>
</g>
<g id="clust4" class="cluster">
<title>cluster_\SilverStripe\FullTextSearch\Solr</title>
<path fill="none" stroke="#c0c0c0" d="M844.7549,-1415.6044C844.7549,-1415.6044 920.7549,-1415.6044 920.7549,-1415.6044 926.7549,-1415.6044 932.7549,-1421.6044 932.7549,-1427.6044 932.7549,-1427.6044 932.7549,-1529.6044 932.7549,-1529.6044 932.7549,-1535.6044 926.7549,-1541.6044 920.7549,-1541.6044 920.7549,-1541.6044 844.7549,-1541.6044 844.7549,-1541.6044 838.7549,-1541.6044 832.7549,-1535.6044 832.7549,-1529.6044 832.7549,-1529.6044 832.7549,-1427.6044 832.7549,-1427.6044 832.7549,-1421.6044 838.7549,-1415.6044 844.7549,-1415.6044"/>
<text text-anchor="middle" x="882.7549" y="-1528.8044" font-family="Times,serif" font-size="11.00" fill="#c0c0c0">Solr</text>
</g>
<g id="clust5" class="cluster">
<title>cluster_\SilverStripe\FullTextSearch\Search</title>
<path fill="none" stroke="#c0c0c0" d="M833.2549,-1299.6044C833.2549,-1299.6044 932.2549,-1299.6044 932.2549,-1299.6044 938.2549,-1299.6044 944.2549,-1305.6044 944.2549,-1311.6044 944.2549,-1311.6044 944.2549,-1395.6044 944.2549,-1395.6044 944.2549,-1401.6044 938.2549,-1407.6044 932.2549,-1407.6044 932.2549,-1407.6044 833.2549,-1407.6044 833.2549,-1407.6044 827.2549,-1407.6044 821.2549,-1401.6044 821.2549,-1395.6044 821.2549,-1395.6044 821.2549,-1311.6044 821.2549,-1311.6044 821.2549,-1305.6044 827.2549,-1299.6044 833.2549,-1299.6044"/>
<text text-anchor="middle" x="882.7549" y="-1394.8044" font-family="Times,serif" font-size="11.00" fill="#c0c0c0">Search</text>
</g>
<g id="clust6" class="cluster">
<title>cluster_\SilverStripe\FullTextSearch\Search\Queries</title>
<path fill="none" stroke="#c0c0c0" d="M841.2549,-1307.6044C841.2549,-1307.6044 924.2549,-1307.6044 924.2549,-1307.6044 930.2549,-1307.6044 936.2549,-1313.6044 936.2549,-1319.6044 936.2549,-1319.6044 936.2549,-1367.6044 936.2549,-1367.6044 936.2549,-1373.6044 930.2549,-1379.6044 924.2549,-1379.6044 924.2549,-1379.6044 841.2549,-1379.6044 841.2549,-1379.6044 835.2549,-1379.6044 829.2549,-1373.6044 829.2549,-1367.6044 829.2549,-1367.6044 829.2549,-1319.6044 829.2549,-1319.6044 829.2549,-1313.6044 835.2549,-1307.6044 841.2549,-1307.6044"/>
<text text-anchor="middle" x="882.7549" y="-1366.8044" font-family="Times,serif" font-size="11.00" fill="#c0c0c0">Queries</text>
</g>
<g id="clust7" class="cluster">
<title>cluster_\Firesphere</title>
<path fill="none" stroke="#c0c0c0" d="M173.1275,-484.6044C173.1275,-484.6044 777.2549,-484.6044 777.2549,-484.6044 783.2549,-484.6044 789.2549,-490.6044 789.2549,-496.6044 789.2549,-496.6044 789.2549,-3802.6044 789.2549,-3802.6044 789.2549,-3808.6044 783.2549,-3814.6044 777.2549,-3814.6044 777.2549,-3814.6044 173.1275,-3814.6044 173.1275,-3814.6044 167.1275,-3814.6044 161.1275,-3808.6044 161.1275,-3802.6044 161.1275,-3802.6044 161.1275,-496.6044 161.1275,-496.6044 161.1275,-490.6044 167.1275,-484.6044 173.1275,-484.6044"/>
<text text-anchor="middle" x="475.1912" y="-3801.8044" font-family="Times,serif" font-size="11.00" fill="#c0c0c0">Firesphere</text>
</g>
<g id="clust8" class="cluster">
<title>cluster_\Firesphere\SolrCompatibility</title>
<path fill="none" stroke="#c0c0c0" d="M582.7549,-662.6044C582.7549,-662.6044 762.7549,-662.6044 762.7549,-662.6044 768.7549,-662.6044 774.7549,-668.6044 774.7549,-674.6044 774.7549,-674.6044 774.7549,-758.6044 774.7549,-758.6044 774.7549,-764.6044 768.7549,-770.6044 762.7549,-770.6044 762.7549,-770.6044 582.7549,-770.6044 582.7549,-770.6044 576.7549,-770.6044 570.7549,-764.6044 570.7549,-758.6044 570.7549,-758.6044 570.7549,-674.6044 570.7549,-674.6044 570.7549,-668.6044 576.7549,-662.6044 582.7549,-662.6044"/>
<text text-anchor="middle" x="672.7549" y="-757.8044" font-family="Times,serif" font-size="11.00" fill="#c0c0c0">SolrCompatibility</text>
</g>
<g id="clust9" class="cluster">
<title>cluster_\Firesphere\SolrCompatibility\Extensions</title>
<path fill="none" stroke="#c0c0c0" d="M590.7549,-670.6044C590.7549,-670.6044 754.7549,-670.6044 754.7549,-670.6044 760.7549,-670.6044 766.7549,-676.6044 766.7549,-682.6044 766.7549,-682.6044 766.7549,-730.6044 766.7549,-730.6044 766.7549,-736.6044 760.7549,-742.6044 754.7549,-742.6044 754.7549,-742.6044 590.7549,-742.6044 590.7549,-742.6044 584.7549,-742.6044 578.7549,-736.6044 578.7549,-730.6044 578.7549,-730.6044 578.7549,-682.6044 578.7549,-682.6044 578.7549,-676.6044 584.7549,-670.6044 590.7549,-670.6044"/>
<text text-anchor="middle" x="672.7549" y="-729.8044" font-family="Times,serif" font-size="11.00" fill="#c0c0c0">Extensions</text>
</g>
<g id="clust10" class="cluster">
<title>cluster_\Firesphere\SolrSearch</title>
<path fill="none" stroke="#c0c0c0" d="M181.1275,-778.6044C181.1275,-778.6044 769.2549,-778.6044 769.2549,-778.6044 775.2549,-778.6044 781.2549,-784.6044 781.2549,-790.6044 781.2549,-790.6044 781.2549,-3774.6044 781.2549,-3774.6044 781.2549,-3780.6044 775.2549,-3786.6044 769.2549,-3786.6044 769.2549,-3786.6044 181.1275,-3786.6044 181.1275,-3786.6044 175.1275,-3786.6044 169.1275,-3780.6044 169.1275,-3774.6044 169.1275,-3774.6044 169.1275,-790.6044 169.1275,-790.6044 169.1275,-784.6044 175.1275,-778.6044 181.1275,-778.6044"/>
<text text-anchor="middle" x="475.1912" y="-3773.8044" font-family="Times,serif" font-size="11.00" fill="#c0c0c0">SolrSearch</text>
</g>
<g id="clust11" class="cluster">
<title>cluster_\Firesphere\SolrSearch\Helpers</title>
<path fill="none" stroke="#c0c0c0" d="M624.7549,-3470.6044C624.7549,-3470.6044 720.7549,-3470.6044 720.7549,-3470.6044 726.7549,-3470.6044 732.7549,-3476.6044 732.7549,-3482.6044 732.7549,-3482.6044 732.7549,-3746.6044 732.7549,-3746.6044 732.7549,-3752.6044 726.7549,-3758.6044 720.7549,-3758.6044 720.7549,-3758.6044 624.7549,-3758.6044 624.7549,-3758.6044 618.7549,-3758.6044 612.7549,-3752.6044 612.7549,-3746.6044 612.7549,-3746.6044 612.7549,-3482.6044 612.7549,-3482.6044 612.7549,-3476.6044 618.7549,-3470.6044 624.7549,-3470.6044"/>
<text text-anchor="middle" x="672.7549" y="-3745.8044" font-family="Times,serif" font-size="11.00" fill="#c0c0c0">Helpers</text>
</g>
<g id="clust12" class="cluster">
<title>cluster_\Firesphere\SolrSearch\Admins</title>
<path fill="none" stroke="#c0c0c0" d="M631.2549,-3390.6044C631.2549,-3390.6044 714.2549,-3390.6044 714.2549,-3390.6044 720.2549,-3390.6044 726.2549,-3396.6044 726.2549,-3402.6044 726.2549,-3402.6044 726.2549,-3450.6044 726.2549,-3450.6044 726.2549,-3456.6044 720.2549,-3462.6044 714.2549,-3462.6044 714.2549,-3462.6044 631.2549,-3462.6044 631.2549,-3462.6044 625.2549,-3462.6044 619.2549,-3456.6044 619.2549,-3450.6044 619.2549,-3450.6044 619.2549,-3402.6044 619.2549,-3402.6044 619.2549,-3396.6044 625.2549,-3390.6044 631.2549,-3390.6044"/>
<text text-anchor="middle" x="672.7549" y="-3449.8044" font-family="Times,serif" font-size="11.00" fill="#c0c0c0">Admins</text>
</g>
<g id="clust13" class="cluster">
<title>cluster_\Firesphere\SolrSearch\Traits</title>
<path fill="none" stroke="#c0c0c0" d="M584.2549,-2500.6044C584.2549,-2500.6044 761.2549,-2500.6044 761.2549,-2500.6044 767.2549,-2500.6044 773.2549,-2506.6044 773.2549,-2512.6044 773.2549,-2512.6044 773.2549,-3370.6044 773.2549,-3370.6044 773.2549,-3376.6044 767.2549,-3382.6044 761.2549,-3382.6044 761.2549,-3382.6044 584.2549,-3382.6044 584.2549,-3382.6044 578.2549,-3382.6044 572.2549,-3376.6044 572.2549,-3370.6044 572.2549,-3370.6044 572.2549,-2512.6044 572.2549,-2512.6044 572.2549,-2506.6044 578.2549,-2500.6044 584.2549,-2500.6044"/>
<text text-anchor="middle" x="672.7549" y="-3369.8044" font-family="Times,serif" font-size="11.00" fill="#c0c0c0">Traits</text>
</g>
<g id="clust14" class="cluster">
<title>cluster_\Firesphere\SolrSearch\Tasks</title>
<path fill="none" stroke="#c0c0c0" d="M597.7549,-2258.6044C597.7549,-2258.6044 747.7549,-2258.6044 747.7549,-2258.6044 753.7549,-2258.6044 759.7549,-2264.6044 759.7549,-2270.6044 759.7549,-2270.6044 759.7549,-2480.6044 759.7549,-2480.6044 759.7549,-2486.6044 753.7549,-2492.6044 747.7549,-2492.6044 747.7549,-2492.6044 597.7549,-2492.6044 597.7549,-2492.6044 591.7549,-2492.6044 585.7549,-2486.6044 585.7549,-2480.6044 585.7549,-2480.6044 585.7549,-2270.6044 585.7549,-2270.6044 585.7549,-2264.6044 591.7549,-2258.6044 597.7549,-2258.6044"/>
<text text-anchor="middle" x="672.7549" y="-2479.8044" font-family="Times,serif" font-size="11.00" fill="#c0c0c0">Tasks</text>
</g>
<g id="clust15" class="cluster">
<title>cluster_\Firesphere\SolrSearch\Forms</title>
<path fill="none" stroke="#c0c0c0" d="M634.7549,-2178.6044C634.7549,-2178.6044 710.7549,-2178.6044 710.7549,-2178.6044 716.7549,-2178.6044 722.7549,-2184.6044 722.7549,-2190.6044 722.7549,-2190.6044 722.7549,-2238.6044 722.7549,-2238.6044 722.7549,-2244.6044 716.7549,-2250.6044 710.7549,-2250.6044 710.7549,-2250.6044 634.7549,-2250.6044 634.7549,-2250.6044 628.7549,-2250.6044 622.7549,-2244.6044 622.7549,-2238.6044 622.7549,-2238.6044 622.7549,-2190.6044 622.7549,-2190.6044 622.7549,-2184.6044 628.7549,-2178.6044 634.7549,-2178.6044"/>
<text text-anchor="middle" x="672.7549" y="-2237.8044" font-family="Times,serif" font-size="11.00" fill="#c0c0c0">Forms</text>
</g>
<g id="clust16" class="cluster">
<title>cluster_\Firesphere\SolrSearch\States</title>
<path fill="none" stroke="#c0c0c0" d="M634.7549,-2098.6044C634.7549,-2098.6044 710.7549,-2098.6044 710.7549,-2098.6044 716.7549,-2098.6044 722.7549,-2104.6044 722.7549,-2110.6044 722.7549,-2110.6044 722.7549,-2158.6044 722.7549,-2158.6044 722.7549,-2164.6044 716.7549,-2170.6044 710.7549,-2170.6044 710.7549,-2170.6044 634.7549,-2170.6044 634.7549,-2170.6044 628.7549,-2170.6044 622.7549,-2164.6044 622.7549,-2158.6044 622.7549,-2158.6044 622.7549,-2110.6044 622.7549,-2110.6044 622.7549,-2104.6044 628.7549,-2098.6044 634.7549,-2098.6044"/>
<text text-anchor="middle" x="672.7549" y="-2157.8044" font-family="Times,serif" font-size="11.00" fill="#c0c0c0">States</text>
</g>
<g id="clust17" class="cluster">
<title>cluster_\Firesphere\SolrSearch\Models</title>
<path fill="none" stroke="#c0c0c0" d="M624.7549,-1910.6044C624.7549,-1910.6044 720.7549,-1910.6044 720.7549,-1910.6044 726.7549,-1910.6044 732.7549,-1916.6044 732.7549,-1922.6044 732.7549,-1922.6044 732.7549,-2078.6044 732.7549,-2078.6044 732.7549,-2084.6044 726.7549,-2090.6044 720.7549,-2090.6044 720.7549,-2090.6044 624.7549,-2090.6044 624.7549,-2090.6044 618.7549,-2090.6044 612.7549,-2084.6044 612.7549,-2078.6044 612.7549,-2078.6044 612.7549,-1922.6044 612.7549,-1922.6044 612.7549,-1916.6044 618.7549,-1910.6044 624.7549,-1910.6044"/>
<text text-anchor="middle" x="672.7549" y="-2077.8044" font-family="Times,serif" font-size="11.00" fill="#c0c0c0">Models</text>
</g>
<g id="clust18" class="cluster">
<title>cluster_\Firesphere\SolrSearch\Indexes</title>
<path fill="none" stroke="#c0c0c0" d="M634.7549,-1830.6044C634.7549,-1830.6044 710.7549,-1830.6044 710.7549,-1830.6044 716.7549,-1830.6044 722.7549,-1836.6044 722.7549,-1842.6044 722.7549,-1842.6044 722.7549,-1890.6044 722.7549,-1890.6044 722.7549,-1896.6044 716.7549,-1902.6044 710.7549,-1902.6044 710.7549,-1902.6044 634.7549,-1902.6044 634.7549,-1902.6044 628.7549,-1902.6044 622.7549,-1896.6044 622.7549,-1890.6044 622.7549,-1890.6044 622.7549,-1842.6044 622.7549,-1842.6044 622.7549,-1836.6044 628.7549,-1830.6044 634.7549,-1830.6044"/>
<text text-anchor="middle" x="672.7549" y="-1889.8044" font-family="Times,serif" font-size="11.00" fill="#c0c0c0">Indexes</text>
</g>
<g id="clust19" class="cluster">
<title>cluster_\Firesphere\SolrSearch\Services</title>
<path fill="none" stroke="#c0c0c0" d="M617.7549,-1562.6044C617.7549,-1562.6044 727.7549,-1562.6044 727.7549,-1562.6044 733.7549,-1562.6044 739.7549,-1568.6044 739.7549,-1574.6044 739.7549,-1574.6044 739.7549,-1676.6044 739.7549,-1676.6044 739.7549,-1682.6044 733.7549,-1688.6044 727.7549,-1688.6044 727.7549,-1688.6044 617.7549,-1688.6044 617.7549,-1688.6044 611.7549,-1688.6044 605.7549,-1682.6044 605.7549,-1676.6044 605.7549,-1676.6044 605.7549,-1574.6044 605.7549,-1574.6044 605.7549,-1568.6044 611.7549,-1562.6044 617.7549,-1562.6044"/>
<text text-anchor="middle" x="672.7549" y="-1675.8044" font-family="Times,serif" font-size="11.00" fill="#c0c0c0">Services</text>
</g>
<g id="clust20" class="cluster">
<title>cluster_\Firesphere\SolrSearch\Stores</title>
<path fill="none" stroke="#c0c0c0" d="M617.7549,-1696.6044C617.7549,-1696.6044 727.7549,-1696.6044 727.7549,-1696.6044 733.7549,-1696.6044 739.7549,-1702.6044 739.7549,-1708.6044 739.7549,-1708.6044 739.7549,-1810.6044 739.7549,-1810.6044 739.7549,-1816.6044 733.7549,-1822.6044 727.7549,-1822.6044 727.7549,-1822.6044 617.7549,-1822.6044 617.7549,-1822.6044 611.7549,-1822.6044 605.7549,-1816.6044 605.7549,-1810.6044 605.7549,-1810.6044 605.7549,-1708.6044 605.7549,-1708.6044 605.7549,-1702.6044 611.7549,-1696.6044 617.7549,-1696.6044"/>
<text text-anchor="middle" x="672.7549" y="-1809.8044" font-family="Times,serif" font-size="11.00" fill="#c0c0c0">Stores</text>
</g>
<g id="clust21" class="cluster">
<title>cluster_\Firesphere\SolrSearch\Interfaces</title>
<path fill="none" stroke="#c0c0c0" d="M189.1275,-1723.6044C189.1275,-1723.6044 319.1275,-1723.6044 319.1275,-1723.6044 325.1275,-1723.6044 331.1275,-1729.6044 331.1275,-1735.6044 331.1275,-1735.6044 331.1275,-1837.6044 331.1275,-1837.6044 331.1275,-1843.6044 325.1275,-1849.6044 319.1275,-1849.6044 319.1275,-1849.6044 189.1275,-1849.6044 189.1275,-1849.6044 183.1275,-1849.6044 177.1275,-1843.6044 177.1275,-1837.6044 177.1275,-1837.6044 177.1275,-1735.6044 177.1275,-1735.6044 177.1275,-1729.6044 183.1275,-1723.6044 189.1275,-1723.6044"/>
<text text-anchor="middle" x="254.1275" y="-1836.8044" font-family="Times,serif" font-size="11.00" fill="#c0c0c0">Interfaces</text>
</g>
<g id="clust22" class="cluster">
<title>cluster_\Firesphere\SolrSearch\Extensions</title>
<path fill="none" stroke="#c0c0c0" d="M604.2549,-1428.6044C604.2549,-1428.6044 741.2549,-1428.6044 741.2549,-1428.6044 747.2549,-1428.6044 753.2549,-1434.6044 753.2549,-1440.6044 753.2549,-1440.6044 753.2549,-1542.6044 753.2549,-1542.6044 753.2549,-1548.6044 747.2549,-1554.6044 741.2549,-1554.6044 741.2549,-1554.6044 604.2549,-1554.6044 604.2549,-1554.6044 598.2549,-1554.6044 592.2549,-1548.6044 592.2549,-1542.6044 592.2549,-1542.6044 592.2549,-1440.6044 592.2549,-1440.6044 592.2549,-1434.6044 598.2549,-1428.6044 604.2549,-1428.6044"/>
<text text-anchor="middle" x="672.7549" y="-1541.8044" font-family="Times,serif" font-size="11.00" fill="#c0c0c0">Extensions</text>
</g>
<g id="clust23" class="cluster">
<title>cluster_\Firesphere\SolrSearch\Jobs</title>
<path fill="none" stroke="#c0c0c0" d="M600.7549,-1240.6044C600.7549,-1240.6044 744.7549,-1240.6044 744.7549,-1240.6044 750.7549,-1240.6044 756.7549,-1246.6044 756.7549,-1252.6044 756.7549,-1252.6044 756.7549,-1408.6044 756.7549,-1408.6044 756.7549,-1414.6044 750.7549,-1420.6044 744.7549,-1420.6044 744.7549,-1420.6044 600.7549,-1420.6044 600.7549,-1420.6044 594.7549,-1420.6044 588.7549,-1414.6044 588.7549,-1408.6044 588.7549,-1408.6044 588.7549,-1252.6044 588.7549,-1252.6044 588.7549,-1246.6044 594.7549,-1240.6044 600.7549,-1240.6044"/>
<text text-anchor="middle" x="672.7549" y="-1407.8044" font-family="Times,serif" font-size="11.00" fill="#c0c0c0">Jobs</text>
</g>
<g id="clust24" class="cluster">
<title>cluster_\Firesphere\SolrSearch\Factories</title>
<path fill="none" stroke="#c0c0c0" d="M597.7549,-1106.6044C597.7549,-1106.6044 747.7549,-1106.6044 747.7549,-1106.6044 753.7549,-1106.6044 759.7549,-1112.6044 759.7549,-1118.6044 759.7549,-1118.6044 759.7549,-1220.6044 759.7549,-1220.6044 759.7549,-1226.6044 753.7549,-1232.6044 747.7549,-1232.6044 747.7549,-1232.6044 597.7549,-1232.6044 597.7549,-1232.6044 591.7549,-1232.6044 585.7549,-1226.6044 585.7549,-1220.6044 585.7549,-1220.6044 585.7549,-1118.6044 585.7549,-1118.6044 585.7549,-1112.6044 591.7549,-1106.6044 597.7549,-1106.6044"/>
<text text-anchor="middle" x="672.7549" y="-1219.8044" font-family="Times,serif" font-size="11.00" fill="#c0c0c0">Factories</text>
</g>
<g id="clust25" class="cluster">
<title>cluster_\Firesphere\SolrSearch\Results</title>
<path fill="none" stroke="#c0c0c0" d="M627.7549,-1026.6044C627.7549,-1026.6044 717.7549,-1026.6044 717.7549,-1026.6044 723.7549,-1026.6044 729.7549,-1032.6044 729.7549,-1038.6044 729.7549,-1038.6044 729.7549,-1086.6044 729.7549,-1086.6044 729.7549,-1092.6044 723.7549,-1098.6044 717.7549,-1098.6044 717.7549,-1098.6044 627.7549,-1098.6044 627.7549,-1098.6044 621.7549,-1098.6044 615.7549,-1092.6044 615.7549,-1086.6044 615.7549,-1086.6044 615.7549,-1038.6044 615.7549,-1038.6044 615.7549,-1032.6044 621.7549,-1026.6044 627.7549,-1026.6044"/>
<text text-anchor="middle" x="672.7549" y="-1085.8044" font-family="Times,serif" font-size="11.00" fill="#c0c0c0">Results</text>
</g>
<g id="clust26" class="cluster">
<title>cluster_\Firesphere\SolrSearch\Queries</title>
<path fill="none" stroke="#c0c0c0" d="M638.2549,-946.6044C638.2549,-946.6044 707.2549,-946.6044 707.2549,-946.6044 713.2549,-946.6044 719.2549,-952.6044 719.2549,-958.6044 719.2549,-958.6044 719.2549,-1006.6044 719.2549,-1006.6044 719.2549,-1012.6044 713.2549,-1018.6044 707.2549,-1018.6044 707.2549,-1018.6044 638.2549,-1018.6044 638.2549,-1018.6044 632.2549,-1018.6044 626.2549,-1012.6044 626.2549,-1006.6044 626.2549,-1006.6044 626.2549,-958.6044 626.2549,-958.6044 626.2549,-952.6044 632.2549,-946.6044 638.2549,-946.6044"/>
<text text-anchor="middle" x="672.7549" y="-1005.8044" font-family="Times,serif" font-size="11.00" fill="#c0c0c0">Queries</text>
</g>
<g id="clust27" class="cluster">
<title>cluster_\Firesphere\SolrSearch\Fluent</title>
<path fill="none" stroke="#c0c0c0" d="M617.7549,-866.6044C617.7549,-866.6044 727.7549,-866.6044 727.7549,-866.6044 733.7549,-866.6044 739.7549,-872.6044 739.7549,-878.6044 739.7549,-878.6044 739.7549,-926.6044 739.7549,-926.6044 739.7549,-932.6044 733.7549,-938.6044 727.7549,-938.6044 727.7549,-938.6044 617.7549,-938.6044 617.7549,-938.6044 611.7549,-938.6044 605.7549,-932.6044 605.7549,-926.6044 605.7549,-926.6044 605.7549,-878.6044 605.7549,-878.6044 605.7549,-872.6044 611.7549,-866.6044 617.7549,-866.6044"/>
<text text-anchor="middle" x="672.7549" y="-925.8044" font-family="Times,serif" font-size="11.00" fill="#c0c0c0">Fluent</text>
</g>
<g id="clust28" class="cluster">
<title>cluster_\Firesphere\SolrSearch\Subsites</title>
<path fill="none" stroke="#c0c0c0" d="M611.2549,-786.6044C611.2549,-786.6044 734.2549,-786.6044 734.2549,-786.6044 740.2549,-786.6044 746.2549,-792.6044 746.2549,-798.6044 746.2549,-798.6044 746.2549,-846.6044 746.2549,-846.6044 746.2549,-852.6044 740.2549,-858.6044 734.2549,-858.6044 734.2549,-858.6044 611.2549,-858.6044 611.2549,-858.6044 605.2549,-858.6044 599.2549,-852.6044 599.2549,-846.6044 599.2549,-846.6044 599.2549,-798.6044 599.2549,-798.6044 599.2549,-792.6044 605.2549,-786.6044 611.2549,-786.6044"/>
<text text-anchor="middle" x="672.7549" y="-845.8044" font-family="Times,serif" font-size="11.00" fill="#c0c0c0">Subsites</text>
</g>
<g id="clust29" class="cluster">
<title>cluster_\Firesphere\SolrPermissions</title>
<path fill="none" stroke="#c0c0c0" d="M596.2549,-492.6044C596.2549,-492.6044 749.2549,-492.6044 749.2549,-492.6044 755.2549,-492.6044 761.2549,-498.6044 761.2549,-504.6044 761.2549,-504.6044 761.2549,-642.6044 761.2549,-642.6044 761.2549,-648.6044 755.2549,-654.6044 749.2549,-654.6044 749.2549,-654.6044 596.2549,-654.6044 596.2549,-654.6044 590.2549,-654.6044 584.2549,-648.6044 584.2549,-642.6044 584.2549,-642.6044 584.2549,-504.6044 584.2549,-504.6044 584.2549,-498.6044 590.2549,-492.6044 596.2549,-492.6044"/>
<text text-anchor="middle" x="672.7549" y="-641.8044" font-family="Times,serif" font-size="11.00" fill="#c0c0c0">SolrPermissions</text>
</g>
<g id="clust30" class="cluster">
<title>cluster_\Firesphere\SolrPermissions\Extensions</title>
<path fill="none" stroke="#c0c0c0" d="M604.2549,-500.6044C604.2549,-500.6044 741.2549,-500.6044 741.2549,-500.6044 747.2549,-500.6044 753.2549,-506.6044 753.2549,-512.6044 753.2549,-512.6044 753.2549,-614.6044 753.2549,-614.6044 753.2549,-620.6044 747.2549,-626.6044 741.2549,-626.6044 741.2549,-626.6044 604.2549,-626.6044 604.2549,-626.6044 598.2549,-626.6044 592.2549,-620.6044 592.2549,-614.6044 592.2549,-614.6044 592.2549,-512.6044 592.2549,-512.6044 592.2549,-506.6044 598.2549,-500.6044 604.2549,-500.6044"/>
<text text-anchor="middle" x="672.7549" y="-613.8044" font-family="Times,serif" font-size="11.00" fill="#c0c0c0">Extensions</text>
</g>
<!-- \\SilverStripe\\FullTextSearch\\Solr\\SolrIndex -->
<g id="node1" class="node">
<title>\\SilverStripe\\FullTextSearch\\Solr\\SolrIndex</title>
<polygon fill="none" stroke="#000000" points="924.7549,-1513.6044 840.7549,-1513.6044 840.7549,-1477.6044 924.7549,-1477.6044 924.7549,-1513.6044"/>
<text text-anchor="start" x="848.7549" y="-1498.8044" font-family="Courier,monospace" font-size="11.00" fill="#000000">«abstract»</text>
<text text-anchor="start" x="852.2549" y="-1486.8044" font-family="Courier,monospace" font-size="11.00" fill="#000000">SolrIndex</text>
</g>
<!-- \\Firesphere\\SolrSearch\\Indexes\\BaseIndex -->
<g id="node36" class="node">
<title>\\Firesphere\\SolrSearch\\Indexes\\BaseIndex</title>
<polygon fill="none" stroke="#000000" points="714.7549,-1874.6044 630.7549,-1874.6044 630.7549,-1838.6044 714.7549,-1838.6044 714.7549,-1874.6044"/>
<text text-anchor="start" x="638.7549" y="-1859.8044" font-family="Courier,monospace" font-size="11.00" fill="#000000">«abstract»</text>
<text text-anchor="start" x="642.2549" y="-1847.8044" font-family="Courier,monospace" font-size="11.00" fill="#000000">BaseIndex</text>
</g>
<!-- \\SilverStripe\\FullTextSearch\\Solr\\SolrIndex&#45;&gt;\\Firesphere\\SolrSearch\\Indexes\\BaseIndex -->
<g id="edge1" class="edge">
<title>\\SilverStripe\\FullTextSearch\\Solr\\SolrIndex&#45;&gt;\\Firesphere\\SolrSearch\\Indexes\\BaseIndex</title>
<path fill="none" stroke="#000000" d="M879.9987,-1514.0213C870.2343,-1576.8769 835.3844,-1781.5359 789.2549,-1826.6044 772.2838,-1843.1851 747.4337,-1850.9578 725.0391,-1854.4746"/>
<polygon fill="none" stroke="#000000" points="724.4146,-1851.0267 714.9597,-1855.8074 725.3322,-1857.9663 724.4146,-1851.0267"/>
</g>
<!-- \\SilverStripe\\FullTextSearch\\Solr\\Solr -->
<g id="node2" class="node">
<title>\\SilverStripe\\FullTextSearch\\Solr\\Solr</title>
<polygon fill="none" stroke="#000000" points="909.7549,-1459.6044 855.7549,-1459.6044 855.7549,-1423.6044 909.7549,-1423.6044 909.7549,-1459.6044"/>
<text text-anchor="middle" x="882.7549" y="-1438.8044" font-family="Courier,monospace" font-size="11.00" fill="#000000">Solr</text>
</g>
<!-- \\SilverStripe\\FullTextSearch\\Search\\Queries\\SearchQuery -->
<g id="node3" class="node">
<title>\\SilverStripe\\FullTextSearch\\Search\\Queries\\SearchQuery</title>
<polygon fill="none" stroke="#000000" points="928.2549,-1351.6044 837.2549,-1351.6044 837.2549,-1315.6044 928.2549,-1315.6044 928.2549,-1351.6044"/>
<text text-anchor="middle" x="882.7549" y="-1330.8044" font-family="Courier,monospace" font-size="11.00" fill="#000000">SearchQuery</text>
</g>
<!-- \\Firesphere\\SolrSearch\\Queries\\BaseQuery -->
<g id="node51" class="node">
<title>\\Firesphere\\SolrSearch\\Queries\\BaseQuery</title>
<polygon fill="none" stroke="#000000" points="711.2549,-990.6044 634.2549,-990.6044 634.2549,-954.6044 711.2549,-954.6044 711.2549,-990.6044"/>
<text text-anchor="middle" x="672.7549" y="-969.8044" font-family="Courier,monospace" font-size="11.00" fill="#000000">BaseQuery</text>
</g>
<!-- \\SilverStripe\\FullTextSearch\\Search\\Queries\\SearchQuery&#45;&gt;\\Firesphere\\SolrSearch\\Queries\\BaseQuery -->
<g id="edge3" class="edge">
<title>\\SilverStripe\\FullTextSearch\\Search\\Queries\\SearchQuery&#45;&gt;\\Firesphere\\SolrSearch\\Queries\\BaseQuery</title>
<path fill="none" stroke="#000000" d="M879.3547,-1315.2919C867.9527,-1255.571 829.5213,-1067.7153 789.2549,-1022.6044 771.5571,-1002.7773 744.6355,-990.5302 721.129,-983.1236"/>
<polygon fill="none" stroke="#000000" points="721.8817,-979.6969 711.3007,-980.2377 719.9095,-986.4133 721.8817,-979.6969"/>
</g>
<!-- \\Firesphere\\SolrCompatibility\\Extensions\\FulltextSearchExtension -->
<g id="node4" class="node">
<title>\\Firesphere\\SolrCompatibility\\Extensions\\FulltextSearchExtension</title>
<polygon fill="none" stroke="#000000" points="758.7549,-714.6044 586.7549,-714.6044 586.7549,-678.6044 758.7549,-678.6044 758.7549,-714.6044"/>
<text text-anchor="middle" x="672.7549" y="-693.8044" font-family="Courier,monospace" font-size="11.00" fill="#000000">FulltextSearchExtension</text>
</g>
<!-- \\SilverStripe\\Core\\Extension -->
<g id="node56" class="node">
<title>\\SilverStripe\\Core\\Extension</title>
<ellipse fill="none" stroke="#000000" cx="254.1275" cy="-18.6044" rx="144.0747" ry="18"/>
<text text-anchor="middle" x="254.1275" y="-14.9044" font-family="Times,serif" font-size="14.00" fill="#c0c0c0">\SilverStripe\Core\Extension</text>
</g>
<!-- \\Firesphere\\SolrCompatibility\\Extensions\\FulltextSearchExtension&#45;&gt;\\SilverStripe\\Core\\Extension -->
<g id="edge2" class="edge">
<title>\\Firesphere\\SolrCompatibility\\Extensions\\FulltextSearchExtension&#45;&gt;\\SilverStripe\\Core\\Extension</title>
<path fill="none" stroke="#000000" d="M627.6835,-678.4978C606.8702,-667.7477 583.9055,-651.9832 570.7549,-630.6044 502.2559,-519.2455 600.729,-138.0243 508.2549,-45.6044 466.0822,-3.4563 398.1571,1.8813 343.1382,-2.5593"/>
<polygon fill="none" stroke="#000000" points="342.659,.9114 333.0242,-3.4956 343.3043,-6.0588 342.659,.9114"/>
</g>
<!-- \\Firesphere\\SolrSearch\\Helpers\\SolrLogger -->
<g id="node5" class="node">
<title>\\Firesphere\\SolrSearch\\Helpers\\SolrLogger</title>
<polygon fill="none" stroke="#000000" points="714.7549,-3730.6044 630.7549,-3730.6044 630.7549,-3694.6044 714.7549,-3694.6044 714.7549,-3730.6044"/>
<text text-anchor="middle" x="672.7549" y="-3709.8044" font-family="Courier,monospace" font-size="11.00" fill="#000000">SolrLogger</text>
</g>
<!-- \\Firesphere\\SolrSearch\\Helpers\\DataResolver -->
<g id="node6" class="node">
<title>\\Firesphere\\SolrSearch\\Helpers\\DataResolver</title>
<polygon fill="none" stroke="#000000" points="721.7549,-3676.6044 623.7549,-3676.6044 623.7549,-3640.6044 721.7549,-3640.6044 721.7549,-3676.6044"/>
<text text-anchor="middle" x="672.7549" y="-3655.8044" font-family="Courier,monospace" font-size="11.00" fill="#000000">DataResolver</text>
</g>
<!-- \\Firesphere\\SolrSearch\\Helpers\\Statics -->
<g id="node7" class="node">
<title>\\Firesphere\\SolrSearch\\Helpers\\Statics</title>
<polygon fill="none" stroke="#000000" points="704.7549,-3622.6044 640.7549,-3622.6044 640.7549,-3586.6044 704.7549,-3586.6044 704.7549,-3622.6044"/>
<text text-anchor="middle" x="672.7549" y="-3601.8044" font-family="Courier,monospace" font-size="11.00" fill="#000000">Statics</text>
</g>
<!-- \\Firesphere\\SolrSearch\\Helpers\\FieldResolver -->
<g id="node8" class="node">
<title>\\Firesphere\\SolrSearch\\Helpers\\FieldResolver</title>
<polygon fill="none" stroke="#000000" points="724.7549,-3568.6044 620.7549,-3568.6044 620.7549,-3532.6044 724.7549,-3532.6044 724.7549,-3568.6044"/>
<text text-anchor="middle" x="672.7549" y="-3547.8044" font-family="Courier,monospace" font-size="11.00" fill="#000000">FieldResolver</text>
</g>
<!-- \\Firesphere\\SolrSearch\\Helpers\\Synonyms -->
<g id="node9" class="node">
<title>\\Firesphere\\SolrSearch\\Helpers\\Synonyms</title>
<polygon fill="none" stroke="#000000" points="708.2549,-3514.6044 637.2549,-3514.6044 637.2549,-3478.6044 708.2549,-3478.6044 708.2549,-3514.6044"/>
<text text-anchor="middle" x="672.7549" y="-3493.8044" font-family="Courier,monospace" font-size="11.00" fill="#000000">Synonyms</text>
</g>
<!-- \\Firesphere\\SolrSearch\\Admins\\SearchAdmin -->
<g id="node10" class="node">
<title>\\Firesphere\\SolrSearch\\Admins\\SearchAdmin</title>
<polygon fill="none" stroke="#000000" points="718.2549,-3434.6044 627.2549,-3434.6044 627.2549,-3398.6044 718.2549,-3398.6044 718.2549,-3434.6044"/>
<text text-anchor="middle" x="672.7549" y="-3413.8044" font-family="Courier,monospace" font-size="11.00" fill="#000000">SearchAdmin</text>
</g>
<!-- \\SilverStripe\\Admin\\ModelAdmin -->
<g id="node57" class="node">
<title>\\SilverStripe\\Admin\\ModelAdmin</title>
<ellipse fill="none" stroke="#000000" cx="254.1275" cy="-450.6044" rx="165.1707" ry="18"/>
<text text-anchor="middle" x="254.1275" y="-446.9044" font-family="Times,serif" font-size="14.00" fill="#c0c0c0">\SilverStripe\Admin\ModelAdmin</text>
</g>
<!-- \\Firesphere\\SolrSearch\\Admins\\SearchAdmin&#45;&gt;\\SilverStripe\\Admin\\ModelAdmin -->
<g id="edge4" class="edge">
<title>\\Firesphere\\SolrSearch\\Admins\\SearchAdmin&#45;&gt;\\SilverStripe\\Admin\\ModelAdmin</title>
<path fill="none" stroke="#000000" d="M627.1869,-3414.7949C606.6519,-3411.4477 584.0716,-3403.7234 570.7549,-3386.6044 513.8523,-3313.454 519.1248,-1811.6409 508.2549,-1719.6044 448.7917,-1216.1219 296.726,-614.3306 261.4935,-478.6719"/>
<polygon fill="none" stroke="#000000" points="264.8004,-477.4819 258.8923,-468.6873 258.0265,-479.2467 264.8004,-477.4819"/>
</g>
<!-- \\Firesphere\\SolrSearch\\Traits\\BaseQueryTrait -->
<g id="node11" class="node">
<title>\\Firesphere\\SolrSearch\\Traits\\BaseQueryTrait</title>
<polygon fill="none" stroke="#000000" points="728.2549,-3354.6044 617.2549,-3354.6044 617.2549,-3318.6044 728.2549,-3318.6044 728.2549,-3354.6044"/>
<text text-anchor="middle" x="672.7549" y="-3333.8044" font-family="Courier,monospace" font-size="11.00" fill="#000000">BaseQueryTrait</text>
</g>
<!-- \\Firesphere\\SolrSearch\\Traits\\GetSetSearchResolverTrait -->
<g id="node12" class="node">
<title>\\Firesphere\\SolrSearch\\Traits\\GetSetSearchResolverTrait</title>
<polygon fill="none" stroke="#000000" points="765.2549,-3300.6044 580.2549,-3300.6044 580.2549,-3264.6044 765.2549,-3264.6044 765.2549,-3300.6044"/>
<text text-anchor="middle" x="672.7549" y="-3279.8044" font-family="Courier,monospace" font-size="11.00" fill="#000000">GetSetSearchResolverTrait</text>
</g>
<!-- \\Firesphere\\SolrSearch\\Traits\\GetSetSchemaServiceTrait -->
<g id="node13" class="node">
<title>\\Firesphere\\SolrSearch\\Traits\\GetSetSchemaServiceTrait</title>
<polygon fill="none" stroke="#000000" points="762.2549,-3246.6044 583.2549,-3246.6044 583.2549,-3210.6044 762.2549,-3210.6044 762.2549,-3246.6044"/>
<text text-anchor="middle" x="672.7549" y="-3225.8044" font-family="Courier,monospace" font-size="11.00" fill="#000000">GetSetSchemaServiceTrait</text>
</g>
<!-- \\Firesphere\\SolrSearch\\Traits\\SearchResultSetTrait -->
<g id="node14" class="node">
<title>\\Firesphere\\SolrSearch\\Traits\\SearchResultSetTrait</title>
<polygon fill="none" stroke="#000000" points="748.7549,-3192.6044 596.7549,-3192.6044 596.7549,-3156.6044 748.7549,-3156.6044 748.7549,-3192.6044"/>
<text text-anchor="middle" x="672.7549" y="-3171.8044" font-family="Courier,monospace" font-size="11.00" fill="#000000">SearchResultSetTrait</text>
</g>
<!-- \\Firesphere\\SolrSearch\\Traits\\SearchResultGetTrait -->
<g id="node15" class="node">
<title>\\Firesphere\\SolrSearch\\Traits\\SearchResultGetTrait</title>
<polygon fill="none" stroke="#000000" points="748.7549,-3138.6044 596.7549,-3138.6044 596.7549,-3102.6044 748.7549,-3102.6044 748.7549,-3138.6044"/>
<text text-anchor="middle" x="672.7549" y="-3117.8044" font-family="Courier,monospace" font-size="11.00" fill="#000000">SearchResultGetTrait</text>
</g>
<!-- \\Firesphere\\SolrSearch\\Traits\\QueryComponentBoostTrait -->
<g id="node16" class="node">
<title>\\Firesphere\\SolrSearch\\Traits\\QueryComponentBoostTrait</title>
<polygon fill="none" stroke="#000000" points="762.2549,-3084.6044 583.2549,-3084.6044 583.2549,-3048.6044 762.2549,-3048.6044 762.2549,-3084.6044"/>
<text text-anchor="middle" x="672.7549" y="-3063.8044" font-family="Courier,monospace" font-size="11.00" fill="#000000">QueryComponentBoostTrait</text>
</g>
<!-- \\Firesphere\\SolrSearch\\Traits\\QueryComponentFacetTrait -->
<g id="node17" class="node">
<title>\\Firesphere\\SolrSearch\\Traits\\QueryComponentFacetTrait</title>
<polygon fill="none" stroke="#000000" points="762.2549,-3030.6044 583.2549,-3030.6044 583.2549,-2994.6044 762.2549,-2994.6044 762.2549,-3030.6044"/>
<text text-anchor="middle" x="672.7549" y="-3009.8044" font-family="Courier,monospace" font-size="11.00" fill="#000000">QueryComponentFacetTrait</text>
</g>
<!-- \\Firesphere\\SolrSearch\\Traits\\QueryComponentFilterTrait -->
<g id="node18" class="node">
<title>\\Firesphere\\SolrSearch\\Traits\\QueryComponentFilterTrait</title>
<polygon fill="none" stroke="#000000" points="765.2549,-2976.6044 580.2549,-2976.6044 580.2549,-2940.6044 765.2549,-2940.6044 765.2549,-2976.6044"/>
<text text-anchor="middle" x="672.7549" y="-2955.8044" font-family="Courier,monospace" font-size="11.00" fill="#000000">QueryComponentFilterTrait</text>
</g>
<!-- \\Firesphere\\SolrSearch\\Traits\\DataResolveTrait -->
<g id="node19" class="node">
<title>\\Firesphere\\SolrSearch\\Traits\\DataResolveTrait</title>
<polygon fill="none" stroke="#000000" points="735.2549,-2922.6044 610.2549,-2922.6044 610.2549,-2886.6044 735.2549,-2886.6044 735.2549,-2922.6044"/>
<text text-anchor="middle" x="672.7549" y="-2901.8044" font-family="Courier,monospace" font-size="11.00" fill="#000000">DataResolveTrait</text>
</g>
<!-- \\Firesphere\\SolrSearch\\Traits\\DocumentFactoryTrait -->
<g id="node20" class="node">
<title>\\Firesphere\\SolrSearch\\Traits\\DocumentFactoryTrait</title>
<polygon fill="none" stroke="#000000" points="748.7549,-2868.6044 596.7549,-2868.6044 596.7549,-2832.6044 748.7549,-2832.6044 748.7549,-2868.6044"/>
<text text-anchor="middle" x="672.7549" y="-2847.8044" font-family="Courier,monospace" font-size="11.00" fill="#000000">DocumentFactoryTrait</text>
</g>
<!-- \\Firesphere\\SolrSearch\\Traits\\CoreAdminTrait -->
<g id="node21" class="node">
<title>\\Firesphere\\SolrSearch\\Traits\\CoreAdminTrait</title>
<polygon fill="none" stroke="#000000" points="728.2549,-2814.6044 617.2549,-2814.6044 617.2549,-2778.6044 728.2549,-2778.6044 728.2549,-2814.6044"/>
<text text-anchor="middle" x="672.7549" y="-2793.8044" font-family="Courier,monospace" font-size="11.00" fill="#000000">CoreAdminTrait</text>
</g>
<!-- \\Firesphere\\SolrSearch\\Traits\\CoreServiceTrait -->
<g id="node22" class="node">
<title>\\Firesphere\\SolrSearch\\Traits\\CoreServiceTrait</title>
<polygon fill="none" stroke="#000000" points="735.2549,-2760.6044 610.2549,-2760.6044 610.2549,-2724.6044 735.2549,-2724.6044 735.2549,-2760.6044"/>
<text text-anchor="middle" x="672.7549" y="-2739.8044" font-family="Courier,monospace" font-size="11.00" fill="#000000">CoreServiceTrait</text>
</g>
<!-- \\Firesphere\\SolrSearch\\Traits\\LoggerTrait -->
<g id="node23" class="node">
<title>\\Firesphere\\SolrSearch\\Traits\\LoggerTrait</title>
<polygon fill="none" stroke="#000000" points="718.2549,-2706.6044 627.2549,-2706.6044 627.2549,-2670.6044 718.2549,-2670.6044 718.2549,-2706.6044"/>
<text text-anchor="middle" x="672.7549" y="-2685.8044" font-family="Courier,monospace" font-size="11.00" fill="#000000">LoggerTrait</text>
</g>
<!-- \\Firesphere\\SolrSearch\\Traits\\GetterSetterTrait -->
<g id="node24" class="node">
<title>\\Firesphere\\SolrSearch\\Traits\\GetterSetterTrait</title>
<polygon fill="none" stroke="#000000" points="738.2549,-2652.6044 607.2549,-2652.6044 607.2549,-2616.6044 738.2549,-2616.6044 738.2549,-2652.6044"/>
<text text-anchor="middle" x="672.7549" y="-2631.8044" font-family="Courier,monospace" font-size="11.00" fill="#000000">GetterSetterTrait</text>
</g>
<!-- \\Firesphere\\SolrSearch\\Traits\\SolrIndexTrait -->
<g id="node25" class="node">
<title>\\Firesphere\\SolrSearch\\Traits\\SolrIndexTrait</title>
<polygon fill="none" stroke="#000000" points="728.2549,-2598.6044 617.2549,-2598.6044 617.2549,-2562.6044 728.2549,-2562.6044 728.2549,-2598.6044"/>
<text text-anchor="middle" x="672.7549" y="-2577.8044" font-family="Courier,monospace" font-size="11.00" fill="#000000">SolrIndexTrait</text>
</g>
<!-- \\Firesphere\\SolrSearch\\Traits\\BaseIndexTrait -->
<g id="node26" class="node">
<title>\\Firesphere\\SolrSearch\\Traits\\BaseIndexTrait</title>
<polygon fill="none" stroke="#000000" points="728.2549,-2544.6044 617.2549,-2544.6044 617.2549,-2508.6044 728.2549,-2508.6044 728.2549,-2544.6044"/>
<text text-anchor="middle" x="672.7549" y="-2523.8044" font-family="Courier,monospace" font-size="11.00" fill="#000000">BaseIndexTrait</text>
</g>
<!-- \\Firesphere\\SolrSearch\\Tasks\\ClearErrorsTask -->
<g id="node27" class="node">
<title>\\Firesphere\\SolrSearch\\Tasks\\ClearErrorsTask</title>
<polygon fill="none" stroke="#000000" points="731.7549,-2464.6044 613.7549,-2464.6044 613.7549,-2428.6044 731.7549,-2428.6044 731.7549,-2464.6044"/>
<text text-anchor="middle" x="672.7549" y="-2443.8044" font-family="Courier,monospace" font-size="11.00" fill="#000000">ClearErrorsTask</text>
</g>
<!-- \\SilverStripe\\Dev\\BuildTask -->
<g id="node58" class="node">
<title>\\SilverStripe\\Dev\\BuildTask</title>
<ellipse fill="none" stroke="#000000" cx="254.1275" cy="-396.6044" rx="139.9756" ry="18"/>
<text text-anchor="middle" x="254.1275" y="-392.9044" font-family="Times,serif" font-size="14.00" fill="#c0c0c0">\SilverStripe\Dev\BuildTask</text>
</g>
<!-- \\Firesphere\\SolrSearch\\Tasks\\ClearErrorsTask&#45;&gt;\\SilverStripe\\Dev\\BuildTask -->
<g id="edge5" class="edge">
<title>\\Firesphere\\SolrSearch\\Tasks\\ClearErrorsTask&#45;&gt;\\SilverStripe\\Dev\\BuildTask</title>
<path fill="none" stroke="#000000" d="M613.7186,-2443.8014C597.3651,-2439.9938 581.2422,-2432.7965 570.7549,-2419.6044 432.6773,-2245.9144 659.1966,-586.2395 508.2549,-423.6044 466.1159,-378.2009 394.353,-374.2908 337.8125,-380.1196"/>
<polygon fill="none" stroke="#000000" points="337.3385,-376.6509 327.8026,-381.268 338.1363,-383.6053 337.3385,-376.6509"/>
</g>
<!-- \\Firesphere\\SolrSearch\\Tasks\\ClearDirtyClassesTask -->
<g id="node28" class="node">
<title>\\Firesphere\\SolrSearch\\Tasks\\ClearDirtyClassesTask</title>
<polygon fill="none" stroke="#000000" points="751.7549,-2410.6044 593.7549,-2410.6044 593.7549,-2374.6044 751.7549,-2374.6044 751.7549,-2410.6044"/>
<text text-anchor="middle" x="672.7549" y="-2389.8044" font-family="Courier,monospace" font-size="11.00" fill="#000000">ClearDirtyClassesTask</text>
</g>
<!-- \\Firesphere\\SolrSearch\\Tasks\\ClearDirtyClassesTask&#45;&gt;\\SilverStripe\\Dev\\BuildTask -->
<g id="edge6" class="edge">
<title>\\Firesphere\\SolrSearch\\Tasks\\ClearDirtyClassesTask&#45;&gt;\\SilverStripe\\Dev\\BuildTask</title>
<path fill="none" stroke="#000000" d="M593.4635,-2382.9283C584.7137,-2378.8103 576.7998,-2373.2016 570.7549,-2365.6044 436.3357,-2196.6672 655.1859,-581.7801 508.2549,-423.6044 466.0962,-378.2192 394.3351,-374.3075 337.8003,-380.131"/>
<polygon fill="none" stroke="#000000" points="337.3277,-376.6621 327.7914,-381.2783 338.125,-383.6166 337.3277,-376.6621"/>
</g>
<!-- \\Firesphere\\SolrSearch\\Tasks\\SolrConfigureTask -->
<g id="node29" class="node">
<title>\\Firesphere\\SolrSearch\\Tasks\\SolrConfigureTask</title>
<polygon fill="none" stroke="#000000" points="738.2549,-2356.6044 607.2549,-2356.6044 607.2549,-2320.6044 738.2549,-2320.6044 738.2549,-2356.6044"/>
<text text-anchor="middle" x="672.7549" y="-2335.8044" font-family="Courier,monospace" font-size="11.00" fill="#000000">SolrConfigureTask</text>
</g>
<!-- \\Firesphere\\SolrSearch\\Tasks\\SolrConfigureTask&#45;&gt;\\SilverStripe\\Dev\\BuildTask -->
<g id="edge7" class="edge">
<title>\\Firesphere\\SolrSearch\\Tasks\\SolrConfigureTask&#45;&gt;\\SilverStripe\\Dev\\BuildTask</title>
<path fill="none" stroke="#000000" d="M607.0936,-2334.0436C593.102,-2329.9162 579.8275,-2322.996 570.7549,-2311.6044 439.994,-2147.4199 651.1753,-577.3207 508.2549,-423.6044 466.0753,-378.2386 394.3161,-374.3251 337.7874,-380.143"/>
<polygon fill="none" stroke="#000000" points="337.3163,-376.674 327.7796,-381.2893 338.113,-383.6285 337.3163,-376.674"/>
</g>
<!-- \\Firesphere\\SolrSearch\\Tasks\\SolrIndexTask -->
<g id="node30" class="node">
<title>\\Firesphere\\SolrSearch\\Tasks\\SolrIndexTask</title>
<polygon fill="none" stroke="#000000" points="724.7549,-2302.6044 620.7549,-2302.6044 620.7549,-2266.6044 724.7549,-2266.6044 724.7549,-2302.6044"/>
<text text-anchor="middle" x="672.7549" y="-2281.8044" font-family="Courier,monospace" font-size="11.00" fill="#000000">SolrIndexTask</text>
</g>
<!-- \\Firesphere\\SolrSearch\\Tasks\\SolrIndexTask&#45;&gt;\\SilverStripe\\Dev\\BuildTask -->
<g id="edge8" class="edge">
<title>\\Firesphere\\SolrSearch\\Tasks\\SolrIndexTask&#45;&gt;\\SilverStripe\\Dev\\BuildTask</title>
<path fill="none" stroke="#000000" d="M620.5505,-2281.5928C601.9222,-2277.7214 582.6292,-2269.9222 570.7549,-2254.6044 446.0382,-2093.7205 646.9419,-572.6137 508.2549,-423.6044 466.052,-378.2603 394.2949,-374.3449 337.7729,-380.1565"/>
<polygon fill="none" stroke="#000000" points="337.3036,-376.6872 327.7664,-381.3016 338.0995,-383.6418 337.3036,-376.6872"/>
</g>
<!-- \\Firesphere\\SolrSearch\\Forms\\SearchForm -->
<g id="node31" class="node">
<title>\\Firesphere\\SolrSearch\\Forms\\SearchForm</title>
<polygon fill="none" stroke="#000000" points="714.7549,-2222.6044 630.7549,-2222.6044 630.7549,-2186.6044 714.7549,-2186.6044 714.7549,-2222.6044"/>
<text text-anchor="middle" x="672.7549" y="-2201.8044" font-family="Courier,monospace" font-size="11.00" fill="#000000">SearchForm</text>
</g>
<!-- \\SilverStripe\\Forms\\Form -->
<g id="node59" class="node">
<title>\\SilverStripe\\Forms\\Form</title>
<ellipse fill="none" stroke="#000000" cx="254.1275" cy="-342.6044" rx="129.1772" ry="18"/>
<text text-anchor="middle" x="254.1275" y="-338.9044" font-family="Times,serif" font-size="14.00" fill="#c0c0c0">\SilverStripe\Forms\Form</text>
</g>
<!-- \\Firesphere\\SolrSearch\\Forms\\SearchForm&#45;&gt;\\SilverStripe\\Forms\\Form -->
<g id="edge9" class="edge">
<title>\\Firesphere\\SolrSearch\\Forms\\SearchForm&#45;&gt;\\SilverStripe\\Forms\\Form</title>
<path fill="none" stroke="#000000" d="M630.5535,-2203.3271C609.1519,-2200.2943 584.7823,-2192.6905 570.7549,-2174.6044 447.7682,-2016.0325 645.0109,-516.4667 508.2549,-369.6044 465.5417,-323.7346 392.5837,-320.2675 335.7676,-326.373"/>
<polygon fill="none" stroke="#000000" points="335.2344,-322.9116 325.7182,-327.5691 336.0618,-329.8626 335.2344,-322.9116"/>
</g>
<!-- \\Firesphere\\SolrSearch\\States\\SiteState -->
<g id="node32" class="node">
<title>\\Firesphere\\SolrSearch\\States\\SiteState</title>
<polygon fill="none" stroke="#000000" points="714.7549,-2142.6044 630.7549,-2142.6044 630.7549,-2106.6044 714.7549,-2106.6044 714.7549,-2142.6044"/>
<text text-anchor="start" x="638.7549" y="-2127.8044" font-family="Courier,monospace" font-size="11.00" fill="#000000">«abstract»</text>
<text text-anchor="start" x="642.2549" y="-2115.8044" font-family="Courier,monospace" font-size="11.00" fill="#000000">SiteState</text>
</g>
<!-- \\Firesphere\\SolrSearch\\Models\\SearchSynonym -->
<g id="node33" class="node">
<title>\\Firesphere\\SolrSearch\\Models\\SearchSynonym</title>
<polygon fill="none" stroke="#000000" points="724.7549,-2008.6044 620.7549,-2008.6044 620.7549,-1972.6044 724.7549,-1972.6044 724.7549,-2008.6044"/>
<text text-anchor="middle" x="672.7549" y="-1987.8044" font-family="Courier,monospace" font-size="11.00" fill="#000000">SearchSynonym</text>
</g>
<!-- \\SilverStripe\\ORM\\DataObject -->
<g id="node60" class="node">
<title>\\SilverStripe\\ORM\\DataObject</title>
<ellipse fill="none" stroke="#000000" cx="254.1275" cy="-288.6044" rx="152.9733" ry="18"/>
<text text-anchor="middle" x="254.1275" y="-284.9044" font-family="Times,serif" font-size="14.00" fill="#c0c0c0">\SilverStripe\ORM\DataObject</text>
</g>
<!-- \\Firesphere\\SolrSearch\\Models\\SearchSynonym&#45;&gt;\\SilverStripe\\ORM\\DataObject -->
<g id="edge10" class="edge">
<title>\\Firesphere\\SolrSearch\\Models\\SearchSynonym&#45;&gt;\\SilverStripe\\ORM\\DataObject</title>
<path fill="none" stroke="#000000" d="M620.7014,-1989.1784C602.0927,-1985.8615 582.7738,-1978.621 570.7549,-1963.6044 456.2519,-1820.5416 633.3515,-449.5027 508.2549,-315.6044 466.7666,-271.197 396.9224,-266.5809 340.9438,-271.888"/>
<polygon fill="none" stroke="#000000" points="340.234,-268.4439 330.6627,-272.9871 340.9781,-275.4042 340.234,-268.4439"/>
</g>
<!-- \\Firesphere\\SolrSearch\\Models\\SolrLog -->
<g id="node34" class="node">
<title>\\Firesphere\\SolrSearch\\Models\\SolrLog</title>
<polygon fill="none" stroke="#000000" points="704.7549,-1954.6044 640.7549,-1954.6044 640.7549,-1918.6044 704.7549,-1918.6044 704.7549,-1954.6044"/>
<text text-anchor="middle" x="672.7549" y="-1933.8044" font-family="Courier,monospace" font-size="11.00" fill="#000000">SolrLog</text>
</g>
<!-- \\Firesphere\\SolrSearch\\Models\\SolrLog&#45;&gt;\\SilverStripe\\ORM\\DataObject -->
<g id="edge11" class="edge">
<title>\\Firesphere\\SolrSearch\\Models\\SolrLog&#45;&gt;\\SilverStripe\\ORM\\DataObject</title>
<path fill="none" stroke="#000000" d="M640.6496,-1936.4409C617.3247,-1934.4412 587.0936,-1927.5697 570.7549,-1906.6044 462.006,-1767.0612 629.1187,-444.7963 508.2549,-315.6044 466.7365,-271.2252 396.8944,-266.607 340.9243,-271.9063"/>
<polygon fill="none" stroke="#000000" points="340.2167,-268.4618 330.6449,-273.0038 340.9599,-275.4223 340.2167,-268.4618"/>
</g>
<!-- \\SilverStripe\\Security\\PermissionProvider -->
<g id="node61" class="node">
<title>\\SilverStripe\\Security\\PermissionProvider</title>
<ellipse fill="none" stroke="#000000" cx="254.1275" cy="-234.6044" rx="206.0634" ry="18"/>
<text text-anchor="middle" x="254.1275" y="-230.9044" font-family="Times,serif" font-size="14.00" fill="#c0c0c0">\SilverStripe\Security\PermissionProvider</text>
</g>
<!-- \\Firesphere\\SolrSearch\\Models\\SolrLog&#45;&gt;\\SilverStripe\\Security\\PermissionProvider -->
<g id="edge12" class="edge">
<title>\\Firesphere\\SolrSearch\\Models\\SolrLog&#45;&gt;\\SilverStripe\\Security\\PermissionProvider</title>
<path fill="none" stroke="#000000" stroke-dasharray="1,5" d="M640.6419,-1936.4469C617.3129,-1934.4504 587.0801,-1927.5802 570.7549,-1906.6044 458.4135,-1762.2598 633.1287,-395.2549 508.2549,-261.6044 468.5473,-219.1059 402.869,-213.0522 348.2299,-217.2624"/>
<polygon fill="none" stroke="#000000" points="347.8137,-213.7855 338.1648,-218.1615 348.4366,-220.7578 347.8137,-213.7855"/>
</g>
<!-- \\Firesphere\\SolrSearch\\Models\\DirtyClass -->
<g id="node35" class="node">
<title>\\Firesphere\\SolrSearch\\Models\\DirtyClass</title>
<polygon fill="none" stroke="#000000" points="714.7549,-2062.6044 630.7549,-2062.6044 630.7549,-2026.6044 714.7549,-2026.6044 714.7549,-2062.6044"/>
<text text-anchor="middle" x="672.7549" y="-2041.8044" font-family="Courier,monospace" font-size="11.00" fill="#000000">DirtyClass</text>
</g>
<!-- \\Firesphere\\SolrSearch\\Models\\DirtyClass&#45;&gt;\\SilverStripe\\ORM\\DataObject -->
<g id="edge13" class="edge">
<title>\\Firesphere\\SolrSearch\\Models\\DirtyClass&#45;&gt;\\SilverStripe\\ORM\\DataObject</title>
<path fill="none" stroke="#000000" d="M630.6776,-2044.6233C609.3123,-2042.236 584.9379,-2035.3468 570.7549,-2017.6044 452.594,-1869.7895 637.3616,-453.9615 508.2549,-315.6044 466.7221,-271.0957 396.7071,-266.542 340.6727,-271.8993"/>
<polygon fill="none" stroke="#000000" points="339.9502,-268.4568 330.3825,-273.0076 340.6999,-275.4166 339.9502,-268.4568"/>
</g>
<!-- \\Firesphere\\SolrSearch\\Services\\SchemaService -->
<g id="node37" class="node">
<title>\\Firesphere\\SolrSearch\\Services\\SchemaService</title>
<polygon fill="none" stroke="#000000" points="724.7549,-1660.6044 620.7549,-1660.6044 620.7549,-1624.6044 724.7549,-1624.6044 724.7549,-1660.6044"/>
<text text-anchor="middle" x="672.7549" y="-1639.8044" font-family="Courier,monospace" font-size="11.00" fill="#000000">SchemaService</text>
</g>
<!-- \\SilverStripe\\View\\ViewableData -->
<g id="node62" class="node">
<title>\\SilverStripe\\View\\ViewableData</title>
<ellipse fill="none" stroke="#000000" cx="254.1275" cy="-180.6044" rx="163.2712" ry="18"/>
<text text-anchor="middle" x="254.1275" y="-176.9044" font-family="Times,serif" font-size="14.00" fill="#c0c0c0">\SilverStripe\View\ViewableData</text>
</g>
<!-- \\Firesphere\\SolrSearch\\Services\\SchemaService&#45;&gt;\\SilverStripe\\View\\ViewableData -->
<g id="edge14" class="edge">
<title>\\Firesphere\\SolrSearch\\Services\\SchemaService&#45;&gt;\\SilverStripe\\View\\ViewableData</title>
<path fill="none" stroke="#000000" d="M620.7519,-1641.1379C602.1498,-1637.8156 582.8222,-1630.5821 570.7549,-1615.6044 472.5071,-1493.6599 615.5306,-321.6877 508.2549,-207.6044 467.1243,-163.8636 398.4651,-158.8226 342.8754,-163.7892"/>
<polygon fill="none" stroke="#000000" points="342.2528,-160.3343 332.6573,-164.826 342.9595,-167.2985 342.2528,-160.3343"/>
</g>
<!-- \\Firesphere\\SolrSearch\\Services\\SolrCoreService -->
<g id="node38" class="node">
<title>\\Firesphere\\SolrSearch\\Services\\SolrCoreService</title>
<polygon fill="none" stroke="#000000" points="731.7549,-1606.6044 613.7549,-1606.6044 613.7549,-1570.6044 731.7549,-1570.6044 731.7549,-1606.6044"/>
<text text-anchor="middle" x="672.7549" y="-1585.8044" font-family="Courier,monospace" font-size="11.00" fill="#000000">SolrCoreService</text>
</g>
<!-- \\Firesphere\\SolrSearch\\Stores\\PostConfigStore -->
<g id="node39" class="node">
<title>\\Firesphere\\SolrSearch\\Stores\\PostConfigStore</title>
<polygon fill="none" stroke="#000000" points="731.7549,-1794.6044 613.7549,-1794.6044 613.7549,-1758.6044 731.7549,-1758.6044 731.7549,-1794.6044"/>
<text text-anchor="middle" x="672.7549" y="-1773.8044" font-family="Courier,monospace" font-size="11.00" fill="#000000">PostConfigStore</text>
</g>
<!-- \\Firesphere\\SolrSearch\\Interfaces\\ConfigStore -->
<g id="node42" class="node">
<title>\\Firesphere\\SolrSearch\\Interfaces\\ConfigStore</title>
<polygon fill="none" stroke="#000000" points="299.6275,-1767.6044 208.6275,-1767.6044 208.6275,-1731.6044 299.6275,-1731.6044 299.6275,-1767.6044"/>
<text text-anchor="middle" x="254.1275" y="-1746.8044" font-family="Courier,monospace" font-size="11.00" fill="#000000">ConfigStore</text>
</g>
<!-- \\Firesphere\\SolrSearch\\Stores\\PostConfigStore&#45;&gt;\\Firesphere\\SolrSearch\\Interfaces\\ConfigStore -->
<g id="edge15" class="edge">
<title>\\Firesphere\\SolrSearch\\Stores\\PostConfigStore&#45;&gt;\\Firesphere\\SolrSearch\\Interfaces\\ConfigStore</title>
<path fill="none" stroke="#000000" stroke-dasharray="1,5" d="M613.6637,-1772.7932C532.8854,-1767.5833 389.0185,-1758.3044 309.9722,-1753.2062"/>
<polygon fill="none" stroke="#000000" points="309.9333,-1749.6965 299.7287,-1752.5455 309.4827,-1756.6819 309.9333,-1749.6965"/>
</g>
<!-- \\Firesphere\\SolrSearch\\Stores\\FileConfigStore -->
<g id="node40" class="node">
<title>\\Firesphere\\SolrSearch\\Stores\\FileConfigStore</title>
<polygon fill="none" stroke="#000000" points="731.7549,-1740.6044 613.7549,-1740.6044 613.7549,-1704.6044 731.7549,-1704.6044 731.7549,-1740.6044"/>
<text text-anchor="middle" x="672.7549" y="-1719.8044" font-family="Courier,monospace" font-size="11.00" fill="#000000">FileConfigStore</text>
</g>
<!-- \\Firesphere\\SolrSearch\\Stores\\FileConfigStore&#45;&gt;\\Firesphere\\SolrSearch\\Interfaces\\ConfigStore -->
<g id="edge16" class="edge">
<title>\\Firesphere\\SolrSearch\\Stores\\FileConfigStore&#45;&gt;\\Firesphere\\SolrSearch\\Interfaces\\ConfigStore</title>
<path fill="none" stroke="#000000" stroke-dasharray="1,5" d="M613.6637,-1726.4155C532.8854,-1731.6255 389.0185,-1740.9044 309.9722,-1746.0026"/>
<polygon fill="none" stroke="#000000" points="309.4827,-1742.5268 299.7287,-1746.6632 309.9333,-1749.5123 309.4827,-1742.5268"/>
</g>
<!-- \\Firesphere\\SolrSearch\\Interfaces\\SiteStateInterface -->
<g id="node41" class="node">
<title>\\Firesphere\\SolrSearch\\Interfaces\\SiteStateInterface</title>
<polygon fill="none" stroke="#000000" points="323.1275,-1821.6044 185.1275,-1821.6044 185.1275,-1785.6044 323.1275,-1785.6044 323.1275,-1821.6044"/>
<text text-anchor="middle" x="254.1275" y="-1800.8044" font-family="Courier,monospace" font-size="11.00" fill="#000000">SiteStateInterface</text>
</g>
<!-- \\Firesphere\\SolrSearch\\Extensions\\GridFieldExtension -->
<g id="node43" class="node">
<title>\\Firesphere\\SolrSearch\\Extensions\\GridFieldExtension</title>
<polygon fill="none" stroke="#000000" points="741.7549,-1472.6044 603.7549,-1472.6044 603.7549,-1436.6044 741.7549,-1436.6044 741.7549,-1472.6044"/>
<text text-anchor="middle" x="672.7549" y="-1451.8044" font-family="Courier,monospace" font-size="11.00" fill="#000000">GridFieldExtension</text>
</g>
<!-- \\Firesphere\\SolrSearch\\Extensions\\GridFieldExtension&#45;&gt;\\SilverStripe\\Core\\Extension -->
<g id="edge17" class="edge">
<title>\\Firesphere\\SolrSearch\\Extensions\\GridFieldExtension&#45;&gt;\\SilverStripe\\Core\\Extension</title>
<path fill="none" stroke="#000000" d="M603.6535,-1446.7862C590.9365,-1442.2031 579.0697,-1435.2076 570.7549,-1424.6044 476.1085,-1303.9092 613.3775,-157.2937 508.2549,-45.6044 466.2297,-.9539 395.5163,3.3561 339.3373,-2.1314"/>
<polygon fill="none" stroke="#000000" points="338.9451,1.3466 329.3846,-3.2192 339.7057,-5.6119 338.9451,1.3466"/>
</g>
<!-- \\Firesphere\\SolrSearch\\Extensions\\DataObjectExtension -->
<g id="node44" class="node">
<title>\\Firesphere\\SolrSearch\\Extensions\\DataObjectExtension</title>
<polygon fill="none" stroke="#000000" points="745.2549,-1526.6044 600.2549,-1526.6044 600.2549,-1490.6044 745.2549,-1490.6044 745.2549,-1526.6044"/>
<text text-anchor="middle" x="672.7549" y="-1505.8044" font-family="Courier,monospace" font-size="11.00" fill="#000000">DataObjectExtension</text>
</g>
<!-- \\SilverStripe\\ORM\\DataExtension -->
<g id="node63" class="node">
<title>\\SilverStripe\\ORM\\DataExtension</title>
<ellipse fill="none" stroke="#000000" cx="254.1275" cy="-72.6044" rx="167.8704" ry="18"/>
<text text-anchor="middle" x="254.1275" y="-68.9044" font-family="Times,serif" font-size="14.00" fill="#c0c0c0">\SilverStripe\ORM\DataExtension</text>
</g>
<!-- \\Firesphere\\SolrSearch\\Extensions\\DataObjectExtension&#45;&gt;\\SilverStripe\\ORM\\DataExtension -->
<g id="edge18" class="edge">
<title>\\Firesphere\\SolrSearch\\Extensions\\DataObjectExtension&#45;&gt;\\SilverStripe\\ORM\\DataExtension</title>
<path fill="none" stroke="#000000" d="M600.1392,-1501.6155C588.7996,-1497.3691 578.344,-1491.0158 570.7549,-1481.6044 474.2678,-1361.9474 613.6002,-211.5414 508.2549,-99.6044 467.3208,-56.1089 399.1636,-50.8924 343.7343,-55.7238"/>
<polygon fill="none" stroke="#000000" points="343.1472,-52.2648 333.542,-56.7359 343.839,-59.2305 343.1472,-52.2648"/>
</g>
<!-- \\Firesphere\\SolrSearch\\Jobs\\ClearDirtyClassesJob -->
<g id="node45" class="node">
<title>\\Firesphere\\SolrSearch\\Jobs\\ClearDirtyClassesJob</title>
<polygon fill="none" stroke="#000000" points="748.7549,-1338.6044 596.7549,-1338.6044 596.7549,-1302.6044 748.7549,-1302.6044 748.7549,-1338.6044"/>
<text text-anchor="middle" x="672.7549" y="-1317.8044" font-family="Courier,monospace" font-size="11.00" fill="#000000">ClearDirtyClassesJob</text>
</g>
<!-- \\Symbiote\\QueuedJobs\\Services\\AbstractQueuedJob -->
<g id="node64" class="node">
<title>\\Symbiote\\QueuedJobs\\Services\\AbstractQueuedJob</title>
<ellipse fill="none" stroke="#000000" cx="254.1275" cy="-126.6044" rx="254.255" ry="18"/>
<text text-anchor="middle" x="254.1275" y="-122.9044" font-family="Times,serif" font-size="14.00" fill="#c0c0c0">\Symbiote\QueuedJobs\Services\AbstractQueuedJob</text>
</g>
<!-- \\Firesphere\\SolrSearch\\Jobs\\ClearDirtyClassesJob&#45;&gt;\\Symbiote\\QueuedJobs\\Services\\AbstractQueuedJob -->
<g id="edge19" class="edge">
<title>\\Firesphere\\SolrSearch\\Jobs\\ClearDirtyClassesJob&#45;&gt;\\Symbiote\\QueuedJobs\\Services\\AbstractQueuedJob</title>
<path fill="none" stroke="#000000" d="M596.6348,-1312.1343C586.6758,-1307.9369 577.5793,-1301.985 570.7549,-1293.6044 410.5521,-1096.8666 683.0178,-337.5299 508.2549,-153.6044 469.8541,-113.1902 407.9273,-105.9442 354.8202,-109.0429"/>
<polygon fill="none" stroke="#000000" points="354.3971,-105.564 344.6707,-109.7648 354.8938,-112.5464 354.3971,-105.564"/>
</g>
<!-- \\Firesphere\\SolrSearch\\Jobs\\SolrIndexJob -->
<g id="node46" class="node">
<title>\\Firesphere\\SolrSearch\\Jobs\\SolrIndexJob</title>
<polygon fill="none" stroke="#000000" points="721.7549,-1284.6044 623.7549,-1284.6044 623.7549,-1248.6044 721.7549,-1248.6044 721.7549,-1284.6044"/>
<text text-anchor="middle" x="672.7549" y="-1263.8044" font-family="Courier,monospace" font-size="11.00" fill="#000000">SolrIndexJob</text>
</g>
<!-- \\Firesphere\\SolrSearch\\Jobs\\SolrIndexJob&#45;&gt;\\Symbiote\\QueuedJobs\\Services\\AbstractQueuedJob -->
<g id="edge20" class="edge">
<title>\\Firesphere\\SolrSearch\\Jobs\\SolrIndexJob&#45;&gt;\\Symbiote\\QueuedJobs\\Services\\AbstractQueuedJob</title>
<path fill="none" stroke="#000000" d="M623.6541,-1264.0258C604.1782,-1260.3495 583.44,-1252.5764 570.7549,-1236.6044 420.8298,-1047.8298 674.5577,-328.123 508.2549,-153.6044 469.8679,-113.3209 408.0996,-106.0277 355.0729,-109.0687"/>
<polygon fill="none" stroke="#000000" points="354.6685,-105.5884 344.9378,-109.7794 355.1582,-112.5712 354.6685,-105.5884"/>
</g>
<!-- \\Firesphere\\SolrSearch\\Jobs\\SolrConfigureJob -->
<g id="node47" class="node">
<title>\\Firesphere\\SolrSearch\\Jobs\\SolrConfigureJob</title>
<polygon fill="none" stroke="#000000" points="735.2549,-1392.6044 610.2549,-1392.6044 610.2549,-1356.6044 735.2549,-1356.6044 735.2549,-1392.6044"/>
<text text-anchor="middle" x="672.7549" y="-1371.8044" font-family="Courier,monospace" font-size="11.00" fill="#000000">SolrConfigureJob</text>
</g>
<!-- \\Firesphere\\SolrSearch\\Jobs\\SolrConfigureJob&#45;&gt;\\Symbiote\\QueuedJobs\\Services\\AbstractQueuedJob -->
<g id="edge21" class="edge">
<title>\\Firesphere\\SolrSearch\\Jobs\\SolrConfigureJob&#45;&gt;\\Symbiote\\QueuedJobs\\Services\\AbstractQueuedJob</title>
<path fill="none" stroke="#000000" d="M610.1626,-1370.7352C595.1145,-1366.7271 580.5717,-1359.6904 570.7549,-1347.6044 486.9977,-1244.4859 599.6442,-250.0236 508.2549,-153.6044 469.8324,-113.0671 407.7467,-105.8689 354.5613,-109.0235"/>
<polygon fill="none" stroke="#000000" points="354.1201,-105.5462 344.3977,-109.7563 354.6236,-112.5281 354.1201,-105.5462"/>
</g>
<!-- \\Firesphere\\SolrSearch\\Factories\\QueryComponentFactory -->
<g id="node48" class="node">
<title>\\Firesphere\\SolrSearch\\Factories\\QueryComponentFactory</title>
<polygon fill="none" stroke="#000000" points="751.7549,-1204.6044 593.7549,-1204.6044 593.7549,-1168.6044 751.7549,-1168.6044 751.7549,-1204.6044"/>
<text text-anchor="middle" x="672.7549" y="-1183.8044" font-family="Courier,monospace" font-size="11.00" fill="#000000">QueryComponentFactory</text>
</g>
<!-- \\Firesphere\\SolrSearch\\Factories\\DocumentFactory -->
<g id="node49" class="node">
<title>\\Firesphere\\SolrSearch\\Factories\\DocumentFactory</title>
<polygon fill="none" stroke="#000000" points="731.7549,-1150.6044 613.7549,-1150.6044 613.7549,-1114.6044 731.7549,-1114.6044 731.7549,-1150.6044"/>
<text text-anchor="middle" x="672.7549" y="-1129.8044" font-family="Courier,monospace" font-size="11.00" fill="#000000">DocumentFactory</text>
</g>
<!-- \\Firesphere\\SolrSearch\\Results\\SearchResult -->
<g id="node50" class="node">
<title>\\Firesphere\\SolrSearch\\Results\\SearchResult</title>
<polygon fill="none" stroke="#000000" points="721.7549,-1070.6044 623.7549,-1070.6044 623.7549,-1034.6044 721.7549,-1034.6044 721.7549,-1070.6044"/>
<text text-anchor="middle" x="672.7549" y="-1049.8044" font-family="Courier,monospace" font-size="11.00" fill="#000000">SearchResult</text>
</g>
<!-- \\Firesphere\\SolrSearch\\Fluent\\FluentExtension -->
<g id="node52" class="node">
<title>\\Firesphere\\SolrSearch\\Fluent\\FluentExtension</title>
<polygon fill="none" stroke="#000000" points="731.7549,-910.6044 613.7549,-910.6044 613.7549,-874.6044 731.7549,-874.6044 731.7549,-910.6044"/>
<text text-anchor="middle" x="672.7549" y="-889.8044" font-family="Courier,monospace" font-size="11.00" fill="#000000">FluentExtension</text>
</g>
<!-- \\Firesphere\\SolrSearch\\Fluent\\FluentExtension&#45;&gt;\\SilverStripe\\Core\\Extension -->
<g id="edge22" class="edge">
<title>\\Firesphere\\SolrSearch\\Fluent\\FluentExtension&#45;&gt;\\SilverStripe\\Core\\Extension</title>
<path fill="none" stroke="#000000" d="M613.6958,-887.6228C597.443,-883.307 581.382,-875.7313 570.7549,-862.6044 456.1829,-721.082 635.0962,-176.2436 508.2549,-45.6044 466.139,-2.2274 396.8545,2.6208 341.2584,-2.3327"/>
<polygon fill="none" stroke="#000000" points="340.6437,1.1231 331.0463,-3.3646 341.3475,-5.8414 340.6437,1.1231"/>
</g>
<!-- \\Firesphere\\SolrSearch\\Subsites\\SubsitesExtension -->
<g id="node53" class="node">
<title>\\Firesphere\\SolrSearch\\Subsites\\SubsitesExtension</title>
<polygon fill="none" stroke="#000000" points="738.2549,-830.6044 607.2549,-830.6044 607.2549,-794.6044 738.2549,-794.6044 738.2549,-830.6044"/>
<text text-anchor="middle" x="672.7549" y="-809.8044" font-family="Courier,monospace" font-size="11.00" fill="#000000">SubsitesExtension</text>
</g>
<!-- \\Firesphere\\SolrSearch\\Subsites\\SubsitesExtension&#45;&gt;\\SilverStripe\\ORM\\DataExtension -->
<g id="edge23" class="edge">
<title>\\Firesphere\\SolrSearch\\Subsites\\SubsitesExtension&#45;&gt;\\SilverStripe\\ORM\\DataExtension</title>
<path fill="none" stroke="#000000" d="M627.5903,-794.5548C606.7541,-783.8187 583.797,-768.0496 570.7549,-746.6044 495.6986,-623.1884 609.9056,-202.2303 508.2549,-99.6044 467.325,-58.2818 401.6762,-52.1997 347.3569,-56.1022"/>
<polygon fill="none" stroke="#000000" points="347.0273,-52.6175 337.3547,-56.9408 347.6122,-59.593 347.0273,-52.6175"/>
</g>
<!-- \\Firesphere\\SolrPermissions\\Extensions\\DataObjectExtension -->
<g id="node54" class="node">
<title>\\Firesphere\\SolrPermissions\\Extensions\\DataObjectExtension</title>
<polygon fill="none" stroke="#000000" points="745.2549,-598.6044 600.2549,-598.6044 600.2549,-562.6044 745.2549,-562.6044 745.2549,-598.6044"/>
<text text-anchor="middle" x="672.7549" y="-577.8044" font-family="Courier,monospace" font-size="11.00" fill="#000000">DataObjectExtension</text>
</g>
<!-- \\Firesphere\\SolrPermissions\\Extensions\\DataObjectExtension&#45;&gt;\\SilverStripe\\ORM\\DataExtension -->
<g id="edge24" class="edge">
<title>\\Firesphere\\SolrPermissions\\Extensions\\DataObjectExtension&#45;&gt;\\SilverStripe\\ORM\\DataExtension</title>
<path fill="none" stroke="#000000" d="M600.0614,-572.7364C588.9442,-568.5562 578.5848,-562.4527 570.7549,-553.6044 435.7761,-401.0704 654.4909,-241.382 508.2549,-99.6044 467.5558,-60.1461 404.1819,-53.3485 350.904,-56.4392"/>
<polygon fill="none" stroke="#000000" points="350.4673,-52.9612 340.7374,-57.1539 350.9583,-59.944 350.4673,-52.9612"/>
</g>
<!-- \\Firesphere\\SolrPermissions\\Extensions\\BaseIndexExtension -->
<g id="node55" class="node">
<title>\\Firesphere\\SolrPermissions\\Extensions\\BaseIndexExtension</title>
<polygon fill="none" stroke="#000000" points="741.7549,-544.6044 603.7549,-544.6044 603.7549,-508.6044 741.7549,-508.6044 741.7549,-544.6044"/>
<text text-anchor="middle" x="672.7549" y="-523.8044" font-family="Courier,monospace" font-size="11.00" fill="#000000">BaseIndexExtension</text>
</g>
<!-- \\Firesphere\\SolrPermissions\\Extensions\\BaseIndexExtension&#45;&gt;\\SilverStripe\\Core\\Extension -->
<g id="edge25" class="edge">
<title>\\Firesphere\\SolrPermissions\\Extensions\\BaseIndexExtension&#45;&gt;\\SilverStripe\\Core\\Extension</title>
<path fill="none" stroke="#000000" d="M669.255,-508.5594C653.3631,-428.5659 585.4274,-107.193 508.2549,-45.6044 467.8634,-13.3694 411.6201,-4.8779 362.3109,-5.197"/>
<polygon fill="none" stroke="#000000" points="362.1594,-1.6991 352.2258,-5.3836 362.2889,-8.6979 362.1594,-1.6991"/>
</g>
</g>
</svg>
