<?xml version="1.0" encoding="UTF-8" standalone="no"?>
<!DOCTYPE svg PUBLIC "-//W3C//DTD SVG 1.1//EN"
 "http://www.w3.org/Graphics/SVG/1.1/DTD/svg11.dtd">
<!-- Generated by graphviz version 2.40.1 (20161225.0304)
 -->
<!-- Title: G Pages: 1 -->
<svg width="1064pt" height="3721pt"
 viewBox="0.00 0.00 1064.25 3720.89" xmlns="http://www.w3.org/2000/svg" xmlns:xlink="http://www.w3.org/1999/xlink">
<g id="graph0" class="graph" transform="scale(1 1) rotate(0) translate(4 3716.8893)">
<title>G</title>
<polygon fill="#ffffff" stroke="transparent" points="-4,4 -4,-3716.8893 1060.2549,-3716.8893 1060.2549,4 -4,4"/>
<g id="clust1" class="cluster">
<title>cluster_Global</title>
<path fill="none" stroke="#c0c0c0" d="M165.1275,-152.8893C165.1275,-152.8893 1036.2549,-152.8893 1036.2549,-152.8893 1042.2549,-152.8893 1048.2549,-158.8893 1048.2549,-164.8893 1048.2549,-164.8893 1048.2549,-3386.8893 1048.2549,-3386.8893 1048.2549,-3392.8893 1042.2549,-3398.8893 1036.2549,-3398.8893 1036.2549,-3398.8893 165.1275,-3398.8893 165.1275,-3398.8893 159.1275,-3398.8893 153.1275,-3392.8893 153.1275,-3386.8893 153.1275,-3386.8893 153.1275,-164.8893 153.1275,-164.8893 153.1275,-158.8893 159.1275,-152.8893 165.1275,-152.8893"/>
<text text-anchor="middle" x="600.6912" y="-3386.0893" font-family="Times,serif" font-size="11.00" fill="#c0c0c0">Global</text>
</g>
<g id="clust2" class="cluster">
<title>cluster_\SilverStripe</title>
<path fill="none" stroke="#c0c0c0" d="M861.2549,-3056.8893C861.2549,-3056.8893 992.2549,-3056.8893 992.2549,-3056.8893 998.2549,-3056.8893 1004.2549,-3062.8893 1004.2549,-3068.8893 1004.2549,-3068.8893 1004.2549,-3358.8893 1004.2549,-3358.8893 1004.2549,-3364.8893 998.2549,-3370.8893 992.2549,-3370.8893 992.2549,-3370.8893 861.2549,-3370.8893 861.2549,-3370.8893 855.2549,-3370.8893 849.2549,-3364.8893 849.2549,-3358.8893 849.2549,-3358.8893 849.2549,-3068.8893 849.2549,-3068.8893 849.2549,-3062.8893 855.2549,-3056.8893 861.2549,-3056.8893"/>
<text text-anchor="middle" x="926.7549" y="-3358.0893" font-family="Times,serif" font-size="11.00" fill="#c0c0c0">SilverStripe</text>
</g>
<g id="clust3" class="cluster">
<title>cluster_\SilverStripe\FullTextSearch</title>
<path fill="none" stroke="#c0c0c0" d="M869.2549,-3064.8893C869.2549,-3064.8893 984.2549,-3064.8893 984.2549,-3064.8893 990.2549,-3064.8893 996.2549,-3070.8893 996.2549,-3076.8893 996.2549,-3076.8893 996.2549,-3330.8893 996.2549,-3330.8893 996.2549,-3336.8893 990.2549,-3342.8893 984.2549,-3342.8893 984.2549,-3342.8893 869.2549,-3342.8893 869.2549,-3342.8893 863.2549,-3342.8893 857.2549,-3336.8893 857.2549,-3330.8893 857.2549,-3330.8893 857.2549,-3076.8893 857.2549,-3076.8893 857.2549,-3070.8893 863.2549,-3064.8893 869.2549,-3064.8893"/>
<text text-anchor="middle" x="926.7549" y="-3330.0893" font-family="Times,serif" font-size="11.00" fill="#c0c0c0">FullTextSearch</text>
</g>
<g id="clust4" class="cluster">
<title>cluster_\SilverStripe\FullTextSearch\Solr</title>
<path fill="none" stroke="#c0c0c0" d="M888.7549,-3188.8893C888.7549,-3188.8893 964.7549,-3188.8893 964.7549,-3188.8893 970.7549,-3188.8893 976.7549,-3194.8893 976.7549,-3200.8893 976.7549,-3200.8893 976.7549,-3302.8893 976.7549,-3302.8893 976.7549,-3308.8893 970.7549,-3314.8893 964.7549,-3314.8893 964.7549,-3314.8893 888.7549,-3314.8893 888.7549,-3314.8893 882.7549,-3314.8893 876.7549,-3308.8893 876.7549,-3302.8893 876.7549,-3302.8893 876.7549,-3200.8893 876.7549,-3200.8893 876.7549,-3194.8893 882.7549,-3188.8893 888.7549,-3188.8893"/>
<text text-anchor="middle" x="926.7549" y="-3302.0893" font-family="Times,serif" font-size="11.00" fill="#c0c0c0">Solr</text>
</g>
<g id="clust5" class="cluster">
<title>cluster_\SilverStripe\FullTextSearch\Search</title>
<path fill="none" stroke="#c0c0c0" d="M877.2549,-3072.8893C877.2549,-3072.8893 976.2549,-3072.8893 976.2549,-3072.8893 982.2549,-3072.8893 988.2549,-3078.8893 988.2549,-3084.8893 988.2549,-3084.8893 988.2549,-3168.8893 988.2549,-3168.8893 988.2549,-3174.8893 982.2549,-3180.8893 976.2549,-3180.8893 976.2549,-3180.8893 877.2549,-3180.8893 877.2549,-3180.8893 871.2549,-3180.8893 865.2549,-3174.8893 865.2549,-3168.8893 865.2549,-3168.8893 865.2549,-3084.8893 865.2549,-3084.8893 865.2549,-3078.8893 871.2549,-3072.8893 877.2549,-3072.8893"/>
<text text-anchor="middle" x="926.7549" y="-3168.0893" font-family="Times,serif" font-size="11.00" fill="#c0c0c0">Search</text>
</g>
<g id="clust6" class="cluster">
<title>cluster_\SilverStripe\FullTextSearch\Search\Queries</title>
<path fill="none" stroke="#c0c0c0" d="M885.2549,-3080.8893C885.2549,-3080.8893 968.2549,-3080.8893 968.2549,-3080.8893 974.2549,-3080.8893 980.2549,-3086.8893 980.2549,-3092.8893 980.2549,-3092.8893 980.2549,-3140.8893 980.2549,-3140.8893 980.2549,-3146.8893 974.2549,-3152.8893 968.2549,-3152.8893 968.2549,-3152.8893 885.2549,-3152.8893 885.2549,-3152.8893 879.2549,-3152.8893 873.2549,-3146.8893 873.2549,-3140.8893 873.2549,-3140.8893 873.2549,-3092.8893 873.2549,-3092.8893 873.2549,-3086.8893 879.2549,-3080.8893 885.2549,-3080.8893"/>
<text text-anchor="middle" x="926.7549" y="-3140.0893" font-family="Times,serif" font-size="11.00" fill="#c0c0c0">Queries</text>
</g>
<g id="clust7" class="cluster">
<title>cluster_\Firesphere</title>
<path fill="none" stroke="#c0c0c0" d="M173.1275,-160.8893C173.1275,-160.8893 1028.2549,-160.8893 1028.2549,-160.8893 1034.2549,-160.8893 1040.2549,-166.8893 1040.2549,-172.8893 1040.2549,-172.8893 1040.2549,-3036.8893 1040.2549,-3036.8893 1040.2549,-3042.8893 1034.2549,-3048.8893 1028.2549,-3048.8893 1028.2549,-3048.8893 173.1275,-3048.8893 173.1275,-3048.8893 167.1275,-3048.8893 161.1275,-3042.8893 161.1275,-3036.8893 161.1275,-3036.8893 161.1275,-172.8893 161.1275,-172.8893 161.1275,-166.8893 167.1275,-160.8893 173.1275,-160.8893"/>
<text text-anchor="middle" x="600.6912" y="-3036.0893" font-family="Times,serif" font-size="11.00" fill="#c0c0c0">Firesphere</text>
</g>
<g id="clust8" class="cluster">
<title>cluster_\Firesphere\SolrCompatibility</title>
<path fill="none" stroke="#c0c0c0" d="M833.2549,-168.8893C833.2549,-168.8893 1020.2549,-168.8893 1020.2549,-168.8893 1026.2549,-168.8893 1032.2549,-174.8893 1032.2549,-180.8893 1032.2549,-180.8893 1032.2549,-372.8893 1032.2549,-372.8893 1032.2549,-378.8893 1026.2549,-384.8893 1020.2549,-384.8893 1020.2549,-384.8893 833.2549,-384.8893 833.2549,-384.8893 827.2549,-384.8893 821.2549,-378.8893 821.2549,-372.8893 821.2549,-372.8893 821.2549,-180.8893 821.2549,-180.8893 821.2549,-174.8893 827.2549,-168.8893 833.2549,-168.8893"/>
<text text-anchor="middle" x="926.7549" y="-372.0893" font-family="Times,serif" font-size="11.00" fill="#c0c0c0">SolrCompatibility</text>
</g>
<g id="clust9" class="cluster">
<title>cluster_\Firesphere\SolrCompatibility\Extensions</title>
<path fill="none" stroke="#c0c0c0" d="M841.2549,-176.8893C841.2549,-176.8893 1012.2549,-176.8893 1012.2549,-176.8893 1018.2549,-176.8893 1024.2549,-182.8893 1024.2549,-188.8893 1024.2549,-188.8893 1024.2549,-344.8893 1024.2549,-344.8893 1024.2549,-350.8893 1018.2549,-356.8893 1012.2549,-356.8893 1012.2549,-356.8893 841.2549,-356.8893 841.2549,-356.8893 835.2549,-356.8893 829.2549,-350.8893 829.2549,-344.8893 829.2549,-344.8893 829.2549,-188.8893 829.2549,-188.8893 829.2549,-182.8893 835.2549,-176.8893 841.2549,-176.8893"/>
<text text-anchor="middle" x="926.7549" y="-344.0893" font-family="Times,serif" font-size="11.00" fill="#c0c0c0">Extensions</text>
</g>
<g id="clust10" class="cluster">
<title>cluster_\Firesphere\SolrSearch</title>
<path fill="none" stroke="#c0c0c0" d="M181.1275,-172.8893C181.1275,-172.8893 769.2549,-172.8893 769.2549,-172.8893 775.2549,-172.8893 781.2549,-178.8893 781.2549,-184.8893 781.2549,-184.8893 781.2549,-3008.8893 781.2549,-3008.8893 781.2549,-3014.8893 775.2549,-3020.8893 769.2549,-3020.8893 769.2549,-3020.8893 181.1275,-3020.8893 181.1275,-3020.8893 175.1275,-3020.8893 169.1275,-3014.8893 169.1275,-3008.8893 169.1275,-3008.8893 169.1275,-184.8893 169.1275,-184.8893 169.1275,-178.8893 175.1275,-172.8893 181.1275,-172.8893"/>
<text text-anchor="middle" x="475.1912" y="-3008.0893" font-family="Times,serif" font-size="11.00" fill="#c0c0c0">SolrSearch</text>
</g>
<g id="clust11" class="cluster">
<title>cluster_\Firesphere\SolrSearch\Results</title>
<path fill="none" stroke="#c0c0c0" d="M627.7549,-2652.8893C627.7549,-2652.8893 717.7549,-2652.8893 717.7549,-2652.8893 723.7549,-2652.8893 729.7549,-2658.8893 729.7549,-2664.8893 729.7549,-2664.8893 729.7549,-2712.8893 729.7549,-2712.8893 729.7549,-2718.8893 723.7549,-2724.8893 717.7549,-2724.8893 717.7549,-2724.8893 627.7549,-2724.8893 627.7549,-2724.8893 621.7549,-2724.8893 615.7549,-2718.8893 615.7549,-2712.8893 615.7549,-2712.8893 615.7549,-2664.8893 615.7549,-2664.8893 615.7549,-2658.8893 621.7549,-2652.8893 627.7549,-2652.8893"/>
<text text-anchor="middle" x="672.7549" y="-2712.0893" font-family="Times,serif" font-size="11.00" fill="#c0c0c0">Results</text>
</g>
<g id="clust12" class="cluster">
<title>cluster_\Firesphere\SolrSearch\Admins</title>
<path fill="none" stroke="#c0c0c0" d="M631.2549,-2920.8893C631.2549,-2920.8893 714.2549,-2920.8893 714.2549,-2920.8893 720.2549,-2920.8893 726.2549,-2926.8893 726.2549,-2932.8893 726.2549,-2932.8893 726.2549,-2980.8893 726.2549,-2980.8893 726.2549,-2986.8893 720.2549,-2992.8893 714.2549,-2992.8893 714.2549,-2992.8893 631.2549,-2992.8893 631.2549,-2992.8893 625.2549,-2992.8893 619.2549,-2986.8893 619.2549,-2980.8893 619.2549,-2980.8893 619.2549,-2932.8893 619.2549,-2932.8893 619.2549,-2926.8893 625.2549,-2920.8893 631.2549,-2920.8893"/>
<text text-anchor="middle" x="672.7549" y="-2980.0893" font-family="Times,serif" font-size="11.00" fill="#c0c0c0">Admins</text>
</g>
<g id="clust13" class="cluster">
<title>cluster_\Firesphere\SolrSearch\Extensions</title>
<path fill="none" stroke="#c0c0c0" d="M604.2549,-2518.8893C604.2549,-2518.8893 741.2549,-2518.8893 741.2549,-2518.8893 747.2549,-2518.8893 753.2549,-2524.8893 753.2549,-2530.8893 753.2549,-2530.8893 753.2549,-2632.8893 753.2549,-2632.8893 753.2549,-2638.8893 747.2549,-2644.8893 741.2549,-2644.8893 741.2549,-2644.8893 604.2549,-2644.8893 604.2549,-2644.8893 598.2549,-2644.8893 592.2549,-2638.8893 592.2549,-2632.8893 592.2549,-2632.8893 592.2549,-2530.8893 592.2549,-2530.8893 592.2549,-2524.8893 598.2549,-2518.8893 604.2549,-2518.8893"/>
<text text-anchor="middle" x="672.7549" y="-2632.0893" font-family="Times,serif" font-size="11.00" fill="#c0c0c0">Extensions</text>
</g>
<g id="clust14" class="cluster">
<title>cluster_\Firesphere\SolrSearch\Models</title>
<path fill="none" stroke="#c0c0c0" d="M624.7549,-2732.8893C624.7549,-2732.8893 720.7549,-2732.8893 720.7549,-2732.8893 726.7549,-2732.8893 732.7549,-2738.8893 732.7549,-2744.8893 732.7549,-2744.8893 732.7549,-2900.8893 732.7549,-2900.8893 732.7549,-2906.8893 726.7549,-2912.8893 720.7549,-2912.8893 720.7549,-2912.8893 624.7549,-2912.8893 624.7549,-2912.8893 618.7549,-2912.8893 612.7549,-2906.8893 612.7549,-2900.8893 612.7549,-2900.8893 612.7549,-2744.8893 612.7549,-2744.8893 612.7549,-2738.8893 618.7549,-2732.8893 624.7549,-2732.8893"/>
<text text-anchor="middle" x="672.7549" y="-2900.0893" font-family="Times,serif" font-size="11.00" fill="#c0c0c0">Models</text>
</g>
<g id="clust15" class="cluster">
<title>cluster_\Firesphere\SolrSearch\Helpers</title>
<path fill="none" stroke="#c0c0c0" d="M624.7549,-2222.8893C624.7549,-2222.8893 720.7549,-2222.8893 720.7549,-2222.8893 726.7549,-2222.8893 732.7549,-2228.8893 732.7549,-2234.8893 732.7549,-2234.8893 732.7549,-2498.8893 732.7549,-2498.8893 732.7549,-2504.8893 726.7549,-2510.8893 720.7549,-2510.8893 720.7549,-2510.8893 624.7549,-2510.8893 624.7549,-2510.8893 618.7549,-2510.8893 612.7549,-2504.8893 612.7549,-2498.8893 612.7549,-2498.8893 612.7549,-2234.8893 612.7549,-2234.8893 612.7549,-2228.8893 618.7549,-2222.8893 624.7549,-2222.8893"/>
<text text-anchor="middle" x="672.7549" y="-2498.0893" font-family="Times,serif" font-size="11.00" fill="#c0c0c0">Helpers</text>
</g>
<g id="clust16" class="cluster">
<title>cluster_\Firesphere\SolrSearch\States</title>
<path fill="none" stroke="#c0c0c0" d="M634.7549,-2142.8893C634.7549,-2142.8893 710.7549,-2142.8893 710.7549,-2142.8893 716.7549,-2142.8893 722.7549,-2148.8893 722.7549,-2154.8893 722.7549,-2154.8893 722.7549,-2202.8893 722.7549,-2202.8893 722.7549,-2208.8893 716.7549,-2214.8893 710.7549,-2214.8893 710.7549,-2214.8893 634.7549,-2214.8893 634.7549,-2214.8893 628.7549,-2214.8893 622.7549,-2208.8893 622.7549,-2202.8893 622.7549,-2202.8893 622.7549,-2154.8893 622.7549,-2154.8893 622.7549,-2148.8893 628.7549,-2142.8893 634.7549,-2142.8893"/>
<text text-anchor="middle" x="672.7549" y="-2202.0893" font-family="Times,serif" font-size="11.00" fill="#c0c0c0">States</text>
</g>
<g id="clust17" class="cluster">
<title>cluster_\Firesphere\SolrSearch\Forms</title>
<path fill="none" stroke="#c0c0c0" d="M634.7549,-2062.8893C634.7549,-2062.8893 710.7549,-2062.8893 710.7549,-2062.8893 716.7549,-2062.8893 722.7549,-2068.8893 722.7549,-2074.8893 722.7549,-2074.8893 722.7549,-2122.8893 722.7549,-2122.8893 722.7549,-2128.8893 716.7549,-2134.8893 710.7549,-2134.8893 710.7549,-2134.8893 634.7549,-2134.8893 634.7549,-2134.8893 628.7549,-2134.8893 622.7549,-2128.8893 622.7549,-2122.8893 622.7549,-2122.8893 622.7549,-2074.8893 622.7549,-2074.8893 622.7549,-2068.8893 628.7549,-2062.8893 634.7549,-2062.8893"/>
<text text-anchor="middle" x="672.7549" y="-2122.0893" font-family="Times,serif" font-size="11.00" fill="#c0c0c0">Forms</text>
</g>
<g id="clust18" class="cluster">
<title>cluster_\Firesphere\SolrSearch\Indexes</title>
<path fill="none" stroke="#c0c0c0" d="M634.7549,-1982.8893C634.7549,-1982.8893 710.7549,-1982.8893 710.7549,-1982.8893 716.7549,-1982.8893 722.7549,-1988.8893 722.7549,-1994.8893 722.7549,-1994.8893 722.7549,-2042.8893 722.7549,-2042.8893 722.7549,-2048.8893 716.7549,-2054.8893 710.7549,-2054.8893 710.7549,-2054.8893 634.7549,-2054.8893 634.7549,-2054.8893 628.7549,-2054.8893 622.7549,-2048.8893 622.7549,-2042.8893 622.7549,-2042.8893 622.7549,-1994.8893 622.7549,-1994.8893 622.7549,-1988.8893 628.7549,-1982.8893 634.7549,-1982.8893"/>
<text text-anchor="middle" x="672.7549" y="-2042.0893" font-family="Times,serif" font-size="11.00" fill="#c0c0c0">Indexes</text>
</g>
<g id="clust19" class="cluster">
<title>cluster_\Firesphere\SolrSearch\Queries</title>
<path fill="none" stroke="#c0c0c0" d="M638.2549,-1902.8893C638.2549,-1902.8893 707.2549,-1902.8893 707.2549,-1902.8893 713.2549,-1902.8893 719.2549,-1908.8893 719.2549,-1914.8893 719.2549,-1914.8893 719.2549,-1962.8893 719.2549,-1962.8893 719.2549,-1968.8893 713.2549,-1974.8893 707.2549,-1974.8893 707.2549,-1974.8893 638.2549,-1974.8893 638.2549,-1974.8893 632.2549,-1974.8893 626.2549,-1968.8893 626.2549,-1962.8893 626.2549,-1962.8893 626.2549,-1914.8893 626.2549,-1914.8893 626.2549,-1908.8893 632.2549,-1902.8893 638.2549,-1902.8893"/>
<text text-anchor="middle" x="672.7549" y="-1962.0893" font-family="Times,serif" font-size="11.00" fill="#c0c0c0">Queries</text>
</g>
<g id="clust20" class="cluster">
<title>cluster_\Firesphere\SolrSearch\Traits</title>
<path fill="none" stroke="#c0c0c0" d="M584.2549,-1012.8893C584.2549,-1012.8893 761.2549,-1012.8893 761.2549,-1012.8893 767.2549,-1012.8893 773.2549,-1018.8893 773.2549,-1024.8893 773.2549,-1024.8893 773.2549,-1882.8893 773.2549,-1882.8893 773.2549,-1888.8893 767.2549,-1894.8893 761.2549,-1894.8893 761.2549,-1894.8893 584.2549,-1894.8893 584.2549,-1894.8893 578.2549,-1894.8893 572.2549,-1888.8893 572.2549,-1882.8893 572.2549,-1882.8893 572.2549,-1024.8893 572.2549,-1024.8893 572.2549,-1018.8893 578.2549,-1012.8893 584.2549,-1012.8893"/>
<text text-anchor="middle" x="672.7549" y="-1882.0893" font-family="Times,serif" font-size="11.00" fill="#c0c0c0">Traits</text>
</g>
<g id="clust21" class="cluster">
<title>cluster_\Firesphere\SolrSearch\Factories</title>
<path fill="none" stroke="#c0c0c0" d="M597.7549,-448.8893C597.7549,-448.8893 747.7549,-448.8893 747.7549,-448.8893 753.7549,-448.8893 759.7549,-454.8893 759.7549,-460.8893 759.7549,-460.8893 759.7549,-616.8893 759.7549,-616.8893 759.7549,-622.8893 753.7549,-628.8893 747.7549,-628.8893 747.7549,-628.8893 597.7549,-628.8893 597.7549,-628.8893 591.7549,-628.8893 585.7549,-622.8893 585.7549,-616.8893 585.7549,-616.8893 585.7549,-460.8893 585.7549,-460.8893 585.7549,-454.8893 591.7549,-448.8893 597.7549,-448.8893"/>
<text text-anchor="middle" x="672.7549" y="-616.0893" font-family="Times,serif" font-size="11.00" fill="#c0c0c0">Factories</text>
</g>
<g id="clust22" class="cluster">
<title>cluster_\Firesphere\SolrSearch\Tasks</title>
<path fill="none" stroke="#c0c0c0" d="M597.7549,-770.8893C597.7549,-770.8893 747.7549,-770.8893 747.7549,-770.8893 753.7549,-770.8893 759.7549,-776.8893 759.7549,-782.8893 759.7549,-782.8893 759.7549,-992.8893 759.7549,-992.8893 759.7549,-998.8893 753.7549,-1004.8893 747.7549,-1004.8893 747.7549,-1004.8893 597.7549,-1004.8893 597.7549,-1004.8893 591.7549,-1004.8893 585.7549,-998.8893 585.7549,-992.8893 585.7549,-992.8893 585.7549,-782.8893 585.7549,-782.8893 585.7549,-776.8893 591.7549,-770.8893 597.7549,-770.8893"/>
<text text-anchor="middle" x="672.7549" y="-992.0893" font-family="Times,serif" font-size="11.00" fill="#c0c0c0">Tasks</text>
</g>
<g id="clust23" class="cluster">
<title>cluster_\Firesphere\SolrSearch\Interfaces</title>
<path fill="none" stroke="#c0c0c0" d="M189.1275,-582.8893C189.1275,-582.8893 319.1275,-582.8893 319.1275,-582.8893 325.1275,-582.8893 331.1275,-588.8893 331.1275,-594.8893 331.1275,-594.8893 331.1275,-696.8893 331.1275,-696.8893 331.1275,-702.8893 325.1275,-708.8893 319.1275,-708.8893 319.1275,-708.8893 189.1275,-708.8893 189.1275,-708.8893 183.1275,-708.8893 177.1275,-702.8893 177.1275,-696.8893 177.1275,-696.8893 177.1275,-594.8893 177.1275,-594.8893 177.1275,-588.8893 183.1275,-582.8893 189.1275,-582.8893"/>
<text text-anchor="middle" x="254.1275" y="-696.0893" font-family="Times,serif" font-size="11.00" fill="#c0c0c0">Interfaces</text>
</g>
<g id="clust24" class="cluster">
<title>cluster_\Firesphere\SolrSearch\Stores</title>
<path fill="none" stroke="#c0c0c0" d="M617.7549,-636.8893C617.7549,-636.8893 727.7549,-636.8893 727.7549,-636.8893 733.7549,-636.8893 739.7549,-642.8893 739.7549,-648.8893 739.7549,-648.8893 739.7549,-750.8893 739.7549,-750.8893 739.7549,-756.8893 733.7549,-762.8893 727.7549,-762.8893 727.7549,-762.8893 617.7549,-762.8893 617.7549,-762.8893 611.7549,-762.8893 605.7549,-756.8893 605.7549,-750.8893 605.7549,-750.8893 605.7549,-648.8893 605.7549,-648.8893 605.7549,-642.8893 611.7549,-636.8893 617.7549,-636.8893"/>
<text text-anchor="middle" x="672.7549" y="-750.0893" font-family="Times,serif" font-size="11.00" fill="#c0c0c0">Stores</text>
</g>
<g id="clust25" class="cluster">
<title>cluster_\Firesphere\SolrSearch\Services</title>
<path fill="none" stroke="#c0c0c0" d="M617.7549,-368.8893C617.7549,-368.8893 727.7549,-368.8893 727.7549,-368.8893 733.7549,-368.8893 739.7549,-374.8893 739.7549,-380.8893 739.7549,-380.8893 739.7549,-428.8893 739.7549,-428.8893 739.7549,-434.8893 733.7549,-440.8893 727.7549,-440.8893 727.7549,-440.8893 617.7549,-440.8893 617.7549,-440.8893 611.7549,-440.8893 605.7549,-434.8893 605.7549,-428.8893 605.7549,-428.8893 605.7549,-380.8893 605.7549,-380.8893 605.7549,-374.8893 611.7549,-368.8893 617.7549,-368.8893"/>
<text text-anchor="middle" x="672.7549" y="-428.0893" font-family="Times,serif" font-size="11.00" fill="#c0c0c0">Services</text>
</g>
<g id="clust26" class="cluster">
<title>cluster_\Firesphere\SolrSearch\Jobs</title>
<path fill="none" stroke="#c0c0c0" d="M600.7549,-180.8893C600.7549,-180.8893 744.7549,-180.8893 744.7549,-180.8893 750.7549,-180.8893 756.7549,-186.8893 756.7549,-192.8893 756.7549,-192.8893 756.7549,-348.8893 756.7549,-348.8893 756.7549,-354.8893 750.7549,-360.8893 744.7549,-360.8893 744.7549,-360.8893 600.7549,-360.8893 600.7549,-360.8893 594.7549,-360.8893 588.7549,-354.8893 588.7549,-348.8893 588.7549,-348.8893 588.7549,-192.8893 588.7549,-192.8893 588.7549,-186.8893 594.7549,-180.8893 600.7549,-180.8893"/>
<text text-anchor="middle" x="672.7549" y="-348.0893" font-family="Times,serif" font-size="11.00" fill="#c0c0c0">Jobs</text>
</g>
<g id="clust27" class="cluster">
<title>cluster_\Firesphere\SolrFluent</title>
<path fill="none" stroke="#c0c0c0" d="M836.7549,-670.8893C836.7549,-670.8893 1016.7549,-670.8893 1016.7549,-670.8893 1022.7549,-670.8893 1028.7549,-676.8893 1028.7549,-682.8893 1028.7549,-682.8893 1028.7549,-954.8893 1028.7549,-954.8893 1028.7549,-960.8893 1022.7549,-966.8893 1016.7549,-966.8893 1016.7549,-966.8893 836.7549,-966.8893 836.7549,-966.8893 830.7549,-966.8893 824.7549,-960.8893 824.7549,-954.8893 824.7549,-954.8893 824.7549,-682.8893 824.7549,-682.8893 824.7549,-676.8893 830.7549,-670.8893 836.7549,-670.8893"/>
<text text-anchor="middle" x="926.7549" y="-954.0893" font-family="Times,serif" font-size="11.00" fill="#c0c0c0">SolrFluent</text>
</g>
<g id="clust28" class="cluster">
<title>cluster_\Firesphere\SolrFluent\Extensions</title>
<path fill="none" stroke="#c0c0c0" d="M844.7549,-678.8893C844.7549,-678.8893 1008.7549,-678.8893 1008.7549,-678.8893 1014.7549,-678.8893 1020.7549,-684.8893 1020.7549,-690.8893 1020.7549,-690.8893 1020.7549,-846.8893 1020.7549,-846.8893 1020.7549,-852.8893 1014.7549,-858.8893 1008.7549,-858.8893 1008.7549,-858.8893 844.7549,-858.8893 844.7549,-858.8893 838.7549,-858.8893 832.7549,-852.8893 832.7549,-846.8893 832.7549,-846.8893 832.7549,-690.8893 832.7549,-690.8893 832.7549,-684.8893 838.7549,-678.8893 844.7549,-678.8893"/>
<text text-anchor="middle" x="926.7549" y="-846.0893" font-family="Times,serif" font-size="11.00" fill="#c0c0c0">Extensions</text>
</g>
<g id="clust29" class="cluster">
<title>cluster_\Firesphere\SolrFluent\States</title>
<path fill="none" stroke="#c0c0c0" d="M871.7549,-866.8893C871.7549,-866.8893 981.7549,-866.8893 981.7549,-866.8893 987.7549,-866.8893 993.7549,-872.8893 993.7549,-878.8893 993.7549,-878.8893 993.7549,-926.8893 993.7549,-926.8893 993.7549,-932.8893 987.7549,-938.8893 981.7549,-938.8893 981.7549,-938.8893 871.7549,-938.8893 871.7549,-938.8893 865.7549,-938.8893 859.7549,-932.8893 859.7549,-926.8893 859.7549,-926.8893 859.7549,-878.8893 859.7549,-878.8893 859.7549,-872.8893 865.7549,-866.8893 871.7549,-866.8893"/>
<text text-anchor="middle" x="926.7549" y="-926.0893" font-family="Times,serif" font-size="11.00" fill="#c0c0c0">States</text>
</g>
<g id="clust30" class="cluster">
<title>cluster_\Firesphere\SolrSubsites</title>
<path fill="none" stroke="#c0c0c0" d="M857.2549,-974.8893C857.2549,-974.8893 996.2549,-974.8893 996.2549,-974.8893 1002.2549,-974.8893 1008.2549,-980.8893 1008.2549,-986.8893 1008.2549,-986.8893 1008.2549,-1150.8893 1008.2549,-1150.8893 1008.2549,-1156.8893 1002.2549,-1162.8893 996.2549,-1162.8893 996.2549,-1162.8893 857.2549,-1162.8893 857.2549,-1162.8893 851.2549,-1162.8893 845.2549,-1156.8893 845.2549,-1150.8893 845.2549,-1150.8893 845.2549,-986.8893 845.2549,-986.8893 845.2549,-980.8893 851.2549,-974.8893 857.2549,-974.8893"/>
<text text-anchor="middle" x="926.7549" y="-1150.0893" font-family="Times,serif" font-size="11.00" fill="#c0c0c0">SolrSubsites</text>
</g>
<g id="clust31" class="cluster">
<title>cluster_\Firesphere\SolrSubsites\Extensions</title>
<path fill="none" stroke="#c0c0c0" d="M865.2549,-982.8893C865.2549,-982.8893 988.2549,-982.8893 988.2549,-982.8893 994.2549,-982.8893 1000.2549,-988.8893 1000.2549,-994.8893 1000.2549,-994.8893 1000.2549,-1042.8893 1000.2549,-1042.8893 1000.2549,-1048.8893 994.2549,-1054.8893 988.2549,-1054.8893 988.2549,-1054.8893 865.2549,-1054.8893 865.2549,-1054.8893 859.2549,-1054.8893 853.2549,-1048.8893 853.2549,-1042.8893 853.2549,-1042.8893 853.2549,-994.8893 853.2549,-994.8893 853.2549,-988.8893 859.2549,-982.8893 865.2549,-982.8893"/>
<text text-anchor="middle" x="926.7549" y="-1042.0893" font-family="Times,serif" font-size="11.00" fill="#c0c0c0">Extensions</text>
</g>
<g id="clust32" class="cluster">
<title>cluster_\Firesphere\SolrSubsites\States</title>
<path fill="none" stroke="#c0c0c0" d="M881.7549,-1062.8893C881.7549,-1062.8893 971.7549,-1062.8893 971.7549,-1062.8893 977.7549,-1062.8893 983.7549,-1068.8893 983.7549,-1074.8893 983.7549,-1074.8893 983.7549,-1122.8893 983.7549,-1122.8893 983.7549,-1128.8893 977.7549,-1134.8893 971.7549,-1134.8893 971.7549,-1134.8893 881.7549,-1134.8893 881.7549,-1134.8893 875.7549,-1134.8893 869.7549,-1128.8893 869.7549,-1122.8893 869.7549,-1122.8893 869.7549,-1074.8893 869.7549,-1074.8893 869.7549,-1068.8893 875.7549,-1062.8893 881.7549,-1062.8893"/>
<text text-anchor="middle" x="926.7549" y="-1122.0893" font-family="Times,serif" font-size="11.00" fill="#c0c0c0">States</text>
</g>
<g id="clust33" class="cluster">
<title>cluster_\Firesphere\SolrPermissions</title>
<path fill="none" stroke="#c0c0c0" d="M833.2549,-392.8893C833.2549,-392.8893 1020.2549,-392.8893 1020.2549,-392.8893 1026.2549,-392.8893 1032.2549,-398.8893 1032.2549,-404.8893 1032.2549,-404.8893 1032.2549,-650.8893 1032.2549,-650.8893 1032.2549,-656.8893 1026.2549,-662.8893 1020.2549,-662.8893 1020.2549,-662.8893 833.2549,-662.8893 833.2549,-662.8893 827.2549,-662.8893 821.2549,-656.8893 821.2549,-650.8893 821.2549,-650.8893 821.2549,-404.8893 821.2549,-404.8893 821.2549,-398.8893 827.2549,-392.8893 833.2549,-392.8893"/>
<text text-anchor="middle" x="926.7549" y="-650.0893" font-family="Times,serif" font-size="11.00" fill="#c0c0c0">SolrPermissions</text>
</g>
<g id="clust34" class="cluster">
<title>cluster_\Firesphere\SolrPermissions\Extensions</title>
<path fill="none" stroke="#c0c0c0" d="M841.2549,-400.8893C841.2549,-400.8893 1012.2549,-400.8893 1012.2549,-400.8893 1018.2549,-400.8893 1024.2549,-406.8893 1024.2549,-412.8893 1024.2549,-412.8893 1024.2549,-622.8893 1024.2549,-622.8893 1024.2549,-628.8893 1018.2549,-634.8893 1012.2549,-634.8893 1012.2549,-634.8893 841.2549,-634.8893 841.2549,-634.8893 835.2549,-634.8893 829.2549,-628.8893 829.2549,-622.8893 829.2549,-622.8893 829.2549,-412.8893 829.2549,-412.8893 829.2549,-406.8893 835.2549,-400.8893 841.2549,-400.8893"/>
<text text-anchor="middle" x="926.7549" y="-622.0893" font-family="Times,serif" font-size="11.00" fill="#c0c0c0">Extensions</text>
</g>
<!-- \\SilverStripe\\FullTextSearch\\Solr\\SolrIndex -->
<g id="node1" class="node">
<title>\\SilverStripe\\FullTextSearch\\Solr\\SolrIndex</title>
<polygon fill="none" stroke="#000000" points="968.7549,-3286.8893 884.7549,-3286.8893 884.7549,-3250.8893 968.7549,-3250.8893 968.7549,-3286.8893"/>
<text text-anchor="start" x="892.7549" y="-3272.0893" font-family="Courier,monospace" font-size="11.00" fill="#000000">«abstract»</text>
<text text-anchor="start" x="896.2549" y="-3260.0893" font-family="Courier,monospace" font-size="11.00" fill="#000000">SolrIndex</text>
</g>
<!-- \\Firesphere\\SolrSearch\\Indexes\\BaseIndex -->
<g id="node21" class="node">
<title>\\Firesphere\\SolrSearch\\Indexes\\BaseIndex</title>
<polygon fill="none" stroke="#000000" points="714.7549,-2026.8893 630.7549,-2026.8893 630.7549,-1990.8893 714.7549,-1990.8893 714.7549,-2026.8893"/>
<text text-anchor="start" x="638.7549" y="-2012.0893" font-family="Courier,monospace" font-size="11.00" fill="#000000">«abstract»</text>
<text text-anchor="start" x="642.2549" y="-2000.0893" font-family="Courier,monospace" font-size="11.00" fill="#000000">BaseIndex</text>
</g>
<!-- \\SilverStripe\\FullTextSearch\\Solr\\SolrIndex&#45;&gt;\\Firesphere\\SolrSearch\\Indexes\\BaseIndex -->
<g id="edge1" class="edge">
<title>\\SilverStripe\\FullTextSearch\\Solr\\SolrIndex&#45;&gt;\\Firesphere\\SolrSearch\\Indexes\\BaseIndex</title>
<path fill="none" stroke="#000000" d="M884.5799,-3269.4627C862.174,-3267.3419 836.238,-3260.5307 821.2549,-3241.8893 738.861,-3139.3777 854.0319,-2168.4379 781.2549,-2058.8893 768.3164,-2039.4134 745.7325,-2027.3944 724.5074,-2020.0416"/>
<polygon fill="none" stroke="#000000" points="725.4809,-2016.6786 714.8904,-2016.9817 723.3584,-2023.349 725.4809,-2016.6786"/>
</g>
<!-- \\SilverStripe\\FullTextSearch\\Solr\\Solr -->
<g id="node2" class="node">
<title>\\SilverStripe\\FullTextSearch\\Solr\\Solr</title>
<polygon fill="none" stroke="#000000" points="953.7549,-3232.8893 899.7549,-3232.8893 899.7549,-3196.8893 953.7549,-3196.8893 953.7549,-3232.8893"/>
<text text-anchor="middle" x="926.7549" y="-3212.0893" font-family="Courier,monospace" font-size="11.00" fill="#000000">Solr</text>
</g>
<!-- \\SilverStripe\\FullTextSearch\\Search\\Queries\\SearchQuery -->
<g id="node3" class="node">
<title>\\SilverStripe\\FullTextSearch\\Search\\Queries\\SearchQuery</title>
<polygon fill="none" stroke="#000000" points="972.2549,-3124.8893 881.2549,-3124.8893 881.2549,-3088.8893 972.2549,-3088.8893 972.2549,-3124.8893"/>
<text text-anchor="middle" x="926.7549" y="-3104.0893" font-family="Courier,monospace" font-size="11.00" fill="#000000">SearchQuery</text>
</g>
<!-- \\Firesphere\\SolrSearch\\Queries\\BaseQuery -->
<g id="node22" class="node">
<title>\\Firesphere\\SolrSearch\\Queries\\BaseQuery</title>
<polygon fill="none" stroke="#000000" points="711.2549,-1946.8893 634.2549,-1946.8893 634.2549,-1910.8893 711.2549,-1910.8893 711.2549,-1946.8893"/>
<text text-anchor="middle" x="672.7549" y="-1926.0893" font-family="Courier,monospace" font-size="11.00" fill="#000000">BaseQuery</text>
</g>
<!-- \\SilverStripe\\FullTextSearch\\Search\\Queries\\SearchQuery&#45;&gt;\\Firesphere\\SolrSearch\\Queries\\BaseQuery -->
<g id="edge5" class="edge">
<title>\\SilverStripe\\FullTextSearch\\Search\\Queries\\SearchQuery&#45;&gt;\\Firesphere\\SolrSearch\\Queries\\BaseQuery</title>
<path fill="none" stroke="#000000" d="M925.4611,-3088.5924C915.5474,-2950.3312 850.1575,-2072.6746 781.2549,-1978.8893 766.8787,-1959.3214 742.9607,-1947.1941 721.2344,-1939.7943"/>
<polygon fill="none" stroke="#000000" points="722.0378,-1936.3781 711.4484,-1936.7174 719.9381,-1943.0558 722.0378,-1936.3781"/>
</g>
<!-- \\Firesphere\\SolrCompatibility\\Extensions\\DataObjectExtension -->
<g id="node4" class="node">
<title>\\Firesphere\\SolrCompatibility\\Extensions\\DataObjectExtension</title>
<polygon fill="none" stroke="#000000" points="999.2549,-220.8893 854.2549,-220.8893 854.2549,-184.8893 999.2549,-184.8893 999.2549,-220.8893"/>
<text text-anchor="middle" x="926.7549" y="-200.0893" font-family="Courier,monospace" font-size="11.00" fill="#000000">DataObjectExtension</text>
</g>
<!-- \\SilverStripe\\Core\\Extension -->
<g id="node64" class="node">
<title>\\SilverStripe\\Core\\Extension</title>
<ellipse fill="none" stroke="#000000" cx="254.1275" cy="-18.8893" rx="144.0747" ry="18"/>
<text text-anchor="middle" x="254.1275" y="-15.1893" font-family="Times,serif" font-size="14.00" fill="#c0c0c0">\SilverStripe\Core\Extension</text>
</g>
<!-- \\Firesphere\\SolrCompatibility\\Extensions\\DataObjectExtension&#45;&gt;\\SilverStripe\\Core\\Extension -->
<g id="edge2" class="edge">
<title>\\Firesphere\\SolrCompatibility\\Extensions\\DataObjectExtension&#45;&gt;\\SilverStripe\\Core\\Extension</title>
<path fill="none" stroke="#000000" d="M909.2812,-184.8096C883.6376,-159.3788 833.1975,-113.4157 781.2549,-88.8893 736.5953,-67.8018 716.2824,-88.2241 672.7549,-64.8893"/>
<path fill="none" stroke="#000000" d="M672.7549,-64.8893C584.7352,-17.7024 471.4652,-7.7741 384.9481,-8.7784"/>
<polygon fill="none" stroke="#000000" points="384.7408,-5.2813 374.8005,-8.9475 384.8575,-12.2803 384.7408,-5.2813"/>
</g>
<!-- \\Firesphere\\SolrCompatibility\\Extensions\\SolrCoreServiceExtension -->
<g id="node5" class="node">
<title>\\Firesphere\\SolrCompatibility\\Extensions\\SolrCoreServiceExtension</title>
<polygon fill="none" stroke="#000000" points="1016.2549,-328.8893 837.2549,-328.8893 837.2549,-292.8893 1016.2549,-292.8893 1016.2549,-328.8893"/>
<text text-anchor="middle" x="926.7549" y="-308.0893" font-family="Courier,monospace" font-size="11.00" fill="#000000">SolrCoreServiceExtension</text>
</g>
<!-- \\Firesphere\\SolrCompatibility\\Extensions\\SolrCoreServiceExtension&#45;&gt;\\SilverStripe\\Core\\Extension -->
<g id="edge3" class="edge">
<title>\\Firesphere\\SolrCompatibility\\Extensions\\SolrCoreServiceExtension&#45;&gt;\\SilverStripe\\Core\\Extension</title>
<path fill="none" stroke="#000000" d="M836.8377,-295.9758C831.1085,-292.6651 825.8198,-288.6798 821.2549,-283.8893 760.2228,-219.8406 843.3309,-151.9268 781.2549,-88.8893 746.6018,-53.6994 716.2824,-88.2241 672.7549,-64.8893"/>
</g>
<!-- \\Firesphere\\SolrCompatibility\\Extensions\\FulltextSearchExtension -->
<g id="node6" class="node">
<title>\\Firesphere\\SolrCompatibility\\Extensions\\FulltextSearchExtension</title>
<polygon fill="none" stroke="#000000" points="1012.7549,-274.8893 840.7549,-274.8893 840.7549,-238.8893 1012.7549,-238.8893 1012.7549,-274.8893"/>
<text text-anchor="middle" x="926.7549" y="-254.0893" font-family="Courier,monospace" font-size="11.00" fill="#000000">FulltextSearchExtension</text>
</g>
<!-- \\Firesphere\\SolrCompatibility\\Extensions\\FulltextSearchExtension&#45;&gt;\\SilverStripe\\Core\\Extension -->
<g id="edge4" class="edge">
<title>\\Firesphere\\SolrCompatibility\\Extensions\\FulltextSearchExtension&#45;&gt;\\SilverStripe\\Core\\Extension</title>
<path fill="none" stroke="#000000" d="M840.5088,-243.3209C833.4442,-239.775 826.8743,-235.3651 821.2549,-229.8893 774.6022,-184.4285 828.6481,-133.5776 781.2549,-88.8893 745.3221,-55.0072 716.2824,-88.2241 672.7549,-64.8893"/>
</g>
<!-- \\Firesphere\\SolrSearch\\Results\\SearchResult -->
<g id="node7" class="node">
<title>\\Firesphere\\SolrSearch\\Results\\SearchResult</title>
<polygon fill="none" stroke="#000000" points="721.7549,-2696.8893 623.7549,-2696.8893 623.7549,-2660.8893 721.7549,-2660.8893 721.7549,-2696.8893"/>
<text text-anchor="middle" x="672.7549" y="-2676.0893" font-family="Courier,monospace" font-size="11.00" fill="#000000">SearchResult</text>
</g>
<!-- \\SilverStripe\\View\\ViewableData -->
<g id="node65" class="node">
<title>\\SilverStripe\\View\\ViewableData</title>
<ellipse fill="none" stroke="#000000" cx="254.1275" cy="-126.8893" rx="163.2712" ry="18"/>
<text text-anchor="middle" x="254.1275" y="-123.1893" font-family="Times,serif" font-size="14.00" fill="#c0c0c0">\SilverStripe\View\ViewableData</text>
</g>
<!-- \\Firesphere\\SolrSearch\\Results\\SearchResult&#45;&gt;\\SilverStripe\\View\\ViewableData -->
<g id="edge6" class="edge">
<title>\\Firesphere\\SolrSearch\\Results\\SearchResult&#45;&gt;\\SilverStripe\\View\\ViewableData</title>
<path fill="none" stroke="#000000" d="M623.632,-2676.1852C604.5579,-2672.4643 584.4134,-2664.6917 572.2549,-2648.8893 502.0943,-2557.7019 539.115,-689.7283 508.2549,-578.8893 459.0329,-402.1009 327.0674,-220.2627 275.3422,-153.5116"/>
<polygon fill="none" stroke="#000000" points="277.7876,-150.9562 268.8751,-145.2275 272.2698,-155.2637 277.7876,-150.9562"/>
</g>
<!-- \\Firesphere\\SolrSearch\\Admins\\SearchAdmin -->
<g id="node8" class="node">
<title>\\Firesphere\\SolrSearch\\Admins\\SearchAdmin</title>
<polygon fill="none" stroke="#000000" points="718.2549,-2964.8893 627.2549,-2964.8893 627.2549,-2928.8893 718.2549,-2928.8893 718.2549,-2964.8893"/>
<text text-anchor="middle" x="672.7549" y="-2944.0893" font-family="Courier,monospace" font-size="11.00" fill="#000000">SearchAdmin</text>
</g>
<!-- \\SilverStripe\\Admin\\ModelAdmin -->
<g id="node66" class="node">
<title>\\SilverStripe\\Admin\\ModelAdmin</title>
<ellipse fill="none" stroke="#000000" cx="254.1275" cy="-3694.8893" rx="165.1707" ry="18"/>
<text text-anchor="middle" x="254.1275" y="-3691.1893" font-family="Times,serif" font-size="14.00" fill="#c0c0c0">\SilverStripe\Admin\ModelAdmin</text>
</g>
<!-- \\Firesphere\\SolrSearch\\Admins\\SearchAdmin&#45;&gt;\\SilverStripe\\Admin\\ModelAdmin -->
<g id="edge7" class="edge">
<title>\\Firesphere\\SolrSearch\\Admins\\SearchAdmin&#45;&gt;\\SilverStripe\\Admin\\ModelAdmin</title>
<path fill="none" stroke="#000000" d="M671.3994,-2964.9879C663.3653,-3067.0859 618.5358,-3569.9561 508.2549,-3667.8893 468.3673,-3703.3108 409.8905,-3711.4156 359.0845,-3710.0497"/>
<polygon fill="none" stroke="#000000" points="359.1629,-3706.5502 349.0334,-3709.6555 358.8885,-3713.5448 359.1629,-3706.5502"/>
</g>
<!-- \\Firesphere\\SolrSearch\\Extensions\\DataObjectExtension -->
<g id="node9" class="node">
<title>\\Firesphere\\SolrSearch\\Extensions\\DataObjectExtension</title>
<polygon fill="none" stroke="#000000" points="745.2549,-2616.8893 600.2549,-2616.8893 600.2549,-2580.8893 745.2549,-2580.8893 745.2549,-2616.8893"/>
<text text-anchor="middle" x="672.7549" y="-2596.0893" font-family="Courier,monospace" font-size="11.00" fill="#000000">DataObjectExtension</text>
</g>
<!-- \\SilverStripe\\ORM\\DataExtension -->
<g id="node67" class="node">
<title>\\SilverStripe\\ORM\\DataExtension</title>
<ellipse fill="none" stroke="#000000" cx="254.1275" cy="-72.8893" rx="167.8704" ry="18"/>
<text text-anchor="middle" x="254.1275" y="-69.1893" font-family="Times,serif" font-size="14.00" fill="#c0c0c0">\SilverStripe\ORM\DataExtension</text>
</g>
<!-- \\Firesphere\\SolrSearch\\Extensions\\DataObjectExtension&#45;&gt;\\SilverStripe\\ORM\\DataExtension -->
<g id="edge8" class="edge">
<title>\\Firesphere\\SolrSearch\\Extensions\\DataObjectExtension&#45;&gt;\\SilverStripe\\ORM\\DataExtension</title>
<path fill="none" stroke="#000000" d="M600.0304,-2591.4369C589.2672,-2587.2024 579.4089,-2580.973 572.2549,-2571.8893 487.2557,-2463.9623 601.4362,-200.8364 508.2549,-99.8893 467.3885,-55.617 398.3696,-50.7166 342.5652,-55.8754"/>
<polygon fill="none" stroke="#000000" points="341.8903,-52.4268 332.3088,-56.9484 342.6187,-59.3888 341.8903,-52.4268"/>
</g>
<!-- \\Firesphere\\SolrSearch\\Extensions\\GridFieldExtension -->
<g id="node10" class="node">
<title>\\Firesphere\\SolrSearch\\Extensions\\GridFieldExtension</title>
<polygon fill="none" stroke="#000000" points="741.7549,-2562.8893 603.7549,-2562.8893 603.7549,-2526.8893 741.7549,-2526.8893 741.7549,-2562.8893"/>
<text text-anchor="middle" x="672.7549" y="-2542.0893" font-family="Courier,monospace" font-size="11.00" fill="#000000">GridFieldExtension</text>
</g>
<!-- \\Firesphere\\SolrSearch\\Extensions\\GridFieldExtension&#45;&gt;\\SilverStripe\\Core\\Extension -->
<g id="edge9" class="edge">
<title>\\Firesphere\\SolrSearch\\Extensions\\GridFieldExtension&#45;&gt;\\SilverStripe\\Core\\Extension</title>
<path fill="none" stroke="#000000" d="M603.7256,-2536.7121C591.5009,-2532.1311 580.1682,-2525.2275 572.2549,-2514.8893 488.8542,-2405.9321 601.3248,-146.7125 508.2549,-45.8893 466.3803,-.5262 394.949,3.5005 338.4624,-2.2752"/>
<polygon fill="none" stroke="#000000" points="337.9986,1.1947 328.459,-3.4147 338.791,-5.7603 337.9986,1.1947"/>
</g>
<!-- \\Firesphere\\SolrSearch\\Models\\SolrLog -->
<g id="node11" class="node">
<title>\\Firesphere\\SolrSearch\\Models\\SolrLog</title>
<polygon fill="none" stroke="#000000" points="704.7549,-2776.8893 640.7549,-2776.8893 640.7549,-2740.8893 704.7549,-2740.8893 704.7549,-2776.8893"/>
<text text-anchor="middle" x="672.7549" y="-2756.0893" font-family="Courier,monospace" font-size="11.00" fill="#000000">SolrLog</text>
</g>
<!-- \\SilverStripe\\ORM\\DataObject -->
<g id="node68" class="node">
<title>\\SilverStripe\\ORM\\DataObject</title>
<ellipse fill="none" stroke="#000000" cx="254.1275" cy="-3640.8893" rx="152.9733" ry="18"/>
<text text-anchor="middle" x="254.1275" y="-3637.1893" font-family="Times,serif" font-size="14.00" fill="#c0c0c0">\SilverStripe\ORM\DataObject</text>
</g>
<!-- \\Firesphere\\SolrSearch\\Models\\SolrLog&#45;&gt;\\SilverStripe\\ORM\\DataObject -->
<g id="edge10" class="edge">
<title>\\Firesphere\\SolrSearch\\Models\\SolrLog&#45;&gt;\\SilverStripe\\ORM\\DataObject</title>
<path fill="none" stroke="#000000" d="M640.4633,-2758.439C617.7688,-2760 588.6391,-2766.1481 572.2549,-2785.8893 454.3933,-2927.8995 636.8642,-3481.534 508.2549,-3613.8893 466.6312,-3656.7254 398.5098,-3661.976 343.2693,-3657.3252"/>
<polygon fill="none" stroke="#000000" points="343.4031,-3653.822 333.1139,-3656.3484 342.7328,-3660.7898 343.4031,-3653.822"/>
</g>
<!-- \\SilverStripe\\Security\\PermissionProvider -->
<g id="node69" class="node">
<title>\\SilverStripe\\Security\\PermissionProvider</title>
<ellipse fill="none" stroke="#000000" cx="254.1275" cy="-3586.8893" rx="206.0634" ry="18"/>
<text text-anchor="middle" x="254.1275" y="-3583.1893" font-family="Times,serif" font-size="14.00" fill="#c0c0c0">\SilverStripe\Security\PermissionProvider</text>
</g>
<!-- \\Firesphere\\SolrSearch\\Models\\SolrLog&#45;&gt;\\SilverStripe\\Security\\PermissionProvider -->
<g id="edge11" class="edge">
<title>\\Firesphere\\SolrSearch\\Models\\SolrLog&#45;&gt;\\SilverStripe\\Security\\PermissionProvider</title>
<path fill="none" stroke="#000000" stroke-dasharray="1,5" d="M640.4947,-2758.4652C617.8158,-2760.0391 588.692,-2766.1921 572.2549,-2785.8893 461.6773,-2918.3991 628.8593,-3436.4355 508.2549,-3559.8893 468.8605,-3600.2144 405.9684,-3607.1615 352.6085,-3603.9299"/>
<polygon fill="none" stroke="#000000" points="352.6478,-3600.4235 342.4191,-3603.1845 352.137,-3607.4049 352.6478,-3600.4235"/>
</g>
<!-- \\Firesphere\\SolrSearch\\Models\\DirtyClass -->
<g id="node12" class="node">
<title>\\Firesphere\\SolrSearch\\Models\\DirtyClass</title>
<polygon fill="none" stroke="#000000" points="714.7549,-2830.8893 630.7549,-2830.8893 630.7549,-2794.8893 714.7549,-2794.8893 714.7549,-2830.8893"/>
<text text-anchor="middle" x="672.7549" y="-2810.0893" font-family="Courier,monospace" font-size="11.00" fill="#000000">DirtyClass</text>
</g>
<!-- \\Firesphere\\SolrSearch\\Models\\DirtyClass&#45;&gt;\\SilverStripe\\ORM\\DataObject -->
<g id="edge12" class="edge">
<title>\\Firesphere\\SolrSearch\\Models\\DirtyClass&#45;&gt;\\SilverStripe\\ORM\\DataObject</title>
<path fill="none" stroke="#000000" d="M630.582,-2813.4278C609.8636,-2816.041 586.3769,-2822.9663 572.2549,-2839.8893 461.6773,-2972.3991 628.8593,-3490.4355 508.2549,-3613.8893 466.5896,-3656.539 398.6392,-3661.8516 343.4817,-3657.274"/>
<polygon fill="none" stroke="#000000" points="343.6268,-3653.7721 333.3407,-3656.3109 342.9649,-3660.7408 343.6268,-3653.7721"/>
</g>
<!-- \\Firesphere\\SolrSearch\\Models\\SearchSynonym -->
<g id="node13" class="node">
<title>\\Firesphere\\SolrSearch\\Models\\SearchSynonym</title>
<polygon fill="none" stroke="#000000" points="724.7549,-2884.8893 620.7549,-2884.8893 620.7549,-2848.8893 724.7549,-2848.8893 724.7549,-2884.8893"/>
<text text-anchor="middle" x="672.7549" y="-2864.0893" font-family="Courier,monospace" font-size="11.00" fill="#000000">SearchSynonym</text>
</g>
<!-- \\Firesphere\\SolrSearch\\Models\\SearchSynonym&#45;&gt;\\SilverStripe\\ORM\\DataObject -->
<g id="edge13" class="edge">
<title>\\Firesphere\\SolrSearch\\Models\\SearchSynonym&#45;&gt;\\SilverStripe\\ORM\\DataObject</title>
<path fill="none" stroke="#000000" d="M620.6472,-2881.1511C602.438,-2888.7782 583.7047,-2900.1658 572.2549,-2916.8893 484.3848,-3045.2314 617.4504,-3503.1229 508.2549,-3613.8893 466.5433,-3656.201 398.9315,-3661.634 343.9306,-3657.193"/>
<polygon fill="none" stroke="#000000" points="344.0969,-3653.6935 333.8165,-3656.2556 343.4508,-3660.6636 344.0969,-3653.6935"/>
</g>
<!-- \\Firesphere\\SolrSearch\\Helpers\\FieldResolver -->
<g id="node14" class="node">
<title>\\Firesphere\\SolrSearch\\Helpers\\FieldResolver</title>
<polygon fill="none" stroke="#000000" points="724.7549,-2482.8893 620.7549,-2482.8893 620.7549,-2446.8893 724.7549,-2446.8893 724.7549,-2482.8893"/>
<text text-anchor="middle" x="672.7549" y="-2462.0893" font-family="Courier,monospace" font-size="11.00" fill="#000000">FieldResolver</text>
</g>
<!-- \\Firesphere\\SolrSearch\\Helpers\\Synonyms -->
<g id="node15" class="node">
<title>\\Firesphere\\SolrSearch\\Helpers\\Synonyms</title>
<polygon fill="none" stroke="#000000" points="708.2549,-2428.8893 637.2549,-2428.8893 637.2549,-2392.8893 708.2549,-2392.8893 708.2549,-2428.8893"/>
<text text-anchor="middle" x="672.7549" y="-2408.0893" font-family="Courier,monospace" font-size="11.00" fill="#000000">Synonyms</text>
</g>
<!-- \\Firesphere\\SolrSearch\\Helpers\\SolrLogger -->
<g id="node16" class="node">
<title>\\Firesphere\\SolrSearch\\Helpers\\SolrLogger</title>
<polygon fill="none" stroke="#000000" points="714.7549,-2374.8893 630.7549,-2374.8893 630.7549,-2338.8893 714.7549,-2338.8893 714.7549,-2374.8893"/>
<text text-anchor="middle" x="672.7549" y="-2354.0893" font-family="Courier,monospace" font-size="11.00" fill="#000000">SolrLogger</text>
</g>
<!-- \\Firesphere\\SolrSearch\\Helpers\\DataResolver -->
<g id="node17" class="node">
<title>\\Firesphere\\SolrSearch\\Helpers\\DataResolver</title>
<polygon fill="none" stroke="#000000" points="721.7549,-2320.8893 623.7549,-2320.8893 623.7549,-2284.8893 721.7549,-2284.8893 721.7549,-2320.8893"/>
<text text-anchor="middle" x="672.7549" y="-2300.0893" font-family="Courier,monospace" font-size="11.00" fill="#000000">DataResolver</text>
</g>
<!-- \\Firesphere\\SolrSearch\\Helpers\\Statics -->
<g id="node18" class="node">
<title>\\Firesphere\\SolrSearch\\Helpers\\Statics</title>
<polygon fill="none" stroke="#000000" points="704.7549,-2266.8893 640.7549,-2266.8893 640.7549,-2230.8893 704.7549,-2230.8893 704.7549,-2266.8893"/>
<text text-anchor="middle" x="672.7549" y="-2246.0893" font-family="Courier,monospace" font-size="11.00" fill="#000000">Statics</text>
</g>
<!-- \\Firesphere\\SolrSearch\\States\\SiteState -->
<g id="node19" class="node">
<title>\\Firesphere\\SolrSearch\\States\\SiteState</title>
<polygon fill="none" stroke="#000000" points="714.7549,-2186.8893 630.7549,-2186.8893 630.7549,-2150.8893 714.7549,-2150.8893 714.7549,-2186.8893"/>
<text text-anchor="start" x="638.7549" y="-2172.0893" font-family="Courier,monospace" font-size="11.00" fill="#000000">«abstract»</text>
<text text-anchor="start" x="642.2549" y="-2160.0893" font-family="Courier,monospace" font-size="11.00" fill="#000000">SiteState</text>
</g>
<!-- \\Firesphere\\SolrSearch\\Forms\\SearchForm -->
<g id="node20" class="node">
<title>\\Firesphere\\SolrSearch\\Forms\\SearchForm</title>
<polygon fill="none" stroke="#000000" points="714.7549,-2106.8893 630.7549,-2106.8893 630.7549,-2070.8893 714.7549,-2070.8893 714.7549,-2106.8893"/>
<text text-anchor="middle" x="672.7549" y="-2086.0893" font-family="Courier,monospace" font-size="11.00" fill="#000000">SearchForm</text>
</g>
<!-- \\SilverStripe\\Forms\\Form -->
<g id="node70" class="node">
<title>\\SilverStripe\\Forms\\Form</title>
<ellipse fill="none" stroke="#000000" cx="254.1275" cy="-3532.8893" rx="129.1772" ry="18"/>
<text text-anchor="middle" x="254.1275" y="-3529.1893" font-family="Times,serif" font-size="14.00" fill="#c0c0c0">\SilverStripe\Forms\Form</text>
</g>
<!-- \\Firesphere\\SolrSearch\\Forms\\SearchForm&#45;&gt;\\SilverStripe\\Forms\\Form -->
<g id="edge14" class="edge">
<title>\\Firesphere\\SolrSearch\\Forms\\SearchForm&#45;&gt;\\SilverStripe\\Forms\\Form</title>
<path fill="none" stroke="#000000" d="M630.6801,-2098.9171C609.4485,-2106.2857 585.4567,-2118.6491 572.2549,-2138.8893 489.1843,-2266.2474 612.5525,-3395.242 508.2549,-3505.8893 465.4069,-3551.3459 392.8209,-3554.9686 336.1687,-3549.0236"/>
<polygon fill="none" stroke="#000000" points="336.4843,-3545.5368 326.1464,-3547.8563 335.6743,-3552.4898 336.4843,-3545.5368"/>
</g>
<!-- \\Firesphere\\SolrSearch\\Traits\\GetSetSchemaFactoryTrait -->
<g id="node23" class="node">
<title>\\Firesphere\\SolrSearch\\Traits\\GetSetSchemaFactoryTrait</title>
<polygon fill="none" stroke="#000000" points="762.2549,-1866.8893 583.2549,-1866.8893 583.2549,-1830.8893 762.2549,-1830.8893 762.2549,-1866.8893"/>
<text text-anchor="middle" x="672.7549" y="-1846.0893" font-family="Courier,monospace" font-size="11.00" fill="#000000">GetSetSchemaFactoryTrait</text>
</g>
<!-- \\Firesphere\\SolrSearch\\Traits\\DocumentFactoryTrait -->
<g id="node24" class="node">
<title>\\Firesphere\\SolrSearch\\Traits\\DocumentFactoryTrait</title>
<polygon fill="none" stroke="#000000" points="748.7549,-1812.8893 596.7549,-1812.8893 596.7549,-1776.8893 748.7549,-1776.8893 748.7549,-1812.8893"/>
<text text-anchor="middle" x="672.7549" y="-1792.0893" font-family="Courier,monospace" font-size="11.00" fill="#000000">DocumentFactoryTrait</text>
</g>
<!-- \\Firesphere\\SolrSearch\\Traits\\GetterSetterTrait -->
<g id="node25" class="node">
<title>\\Firesphere\\SolrSearch\\Traits\\GetterSetterTrait</title>
<polygon fill="none" stroke="#000000" points="738.2549,-1758.8893 607.2549,-1758.8893 607.2549,-1722.8893 738.2549,-1722.8893 738.2549,-1758.8893"/>
<text text-anchor="middle" x="672.7549" y="-1738.0893" font-family="Courier,monospace" font-size="11.00" fill="#000000">GetterSetterTrait</text>
</g>
<!-- \\Firesphere\\SolrSearch\\Traits\\GetSetSearchResolverTrait -->
<g id="node26" class="node">
<title>\\Firesphere\\SolrSearch\\Traits\\GetSetSearchResolverTrait</title>
<polygon fill="none" stroke="#000000" points="765.2549,-1704.8893 580.2549,-1704.8893 580.2549,-1668.8893 765.2549,-1668.8893 765.2549,-1704.8893"/>
<text text-anchor="middle" x="672.7549" y="-1684.0893" font-family="Courier,monospace" font-size="11.00" fill="#000000">GetSetSearchResolverTrait</text>
</g>
<!-- \\Firesphere\\SolrSearch\\Traits\\LoggerTrait -->
<g id="node27" class="node">
<title>\\Firesphere\\SolrSearch\\Traits\\LoggerTrait</title>
<polygon fill="none" stroke="#000000" points="718.2549,-1650.8893 627.2549,-1650.8893 627.2549,-1614.8893 718.2549,-1614.8893 718.2549,-1650.8893"/>
<text text-anchor="middle" x="672.7549" y="-1630.0893" font-family="Courier,monospace" font-size="11.00" fill="#000000">LoggerTrait</text>
</g>
<!-- \\Firesphere\\SolrSearch\\Traits\\BaseQueryTrait -->
<g id="node28" class="node">
<title>\\Firesphere\\SolrSearch\\Traits\\BaseQueryTrait</title>
<polygon fill="none" stroke="#000000" points="728.2549,-1596.8893 617.2549,-1596.8893 617.2549,-1560.8893 728.2549,-1560.8893 728.2549,-1596.8893"/>
<text text-anchor="middle" x="672.7549" y="-1576.0893" font-family="Courier,monospace" font-size="11.00" fill="#000000">BaseQueryTrait</text>
</g>
<!-- \\Firesphere\\SolrSearch\\Traits\\BaseIndexTrait -->
<g id="node29" class="node">
<title>\\Firesphere\\SolrSearch\\Traits\\BaseIndexTrait</title>
<polygon fill="none" stroke="#000000" points="728.2549,-1542.8893 617.2549,-1542.8893 617.2549,-1506.8893 728.2549,-1506.8893 728.2549,-1542.8893"/>
<text text-anchor="middle" x="672.7549" y="-1522.0893" font-family="Courier,monospace" font-size="11.00" fill="#000000">BaseIndexTrait</text>
</g>
<!-- \\Firesphere\\SolrSearch\\Traits\\SolrIndexTrait -->
<g id="node30" class="node">
<title>\\Firesphere\\SolrSearch\\Traits\\SolrIndexTrait</title>
<polygon fill="none" stroke="#000000" points="728.2549,-1488.8893 617.2549,-1488.8893 617.2549,-1452.8893 728.2549,-1452.8893 728.2549,-1488.8893"/>
<text text-anchor="middle" x="672.7549" y="-1468.0893" font-family="Courier,monospace" font-size="11.00" fill="#000000">SolrIndexTrait</text>
</g>
<!-- \\Firesphere\\SolrSearch\\Traits\\SearchResultGetTrait -->
<g id="node31" class="node">
<title>\\Firesphere\\SolrSearch\\Traits\\SearchResultGetTrait</title>
<polygon fill="none" stroke="#000000" points="748.7549,-1434.8893 596.7549,-1434.8893 596.7549,-1398.8893 748.7549,-1398.8893 748.7549,-1434.8893"/>
<text text-anchor="middle" x="672.7549" y="-1414.0893" font-family="Courier,monospace" font-size="11.00" fill="#000000">SearchResultGetTrait</text>
</g>
<!-- \\Firesphere\\SolrSearch\\Traits\\SearchResultSetTrait -->
<g id="node32" class="node">
<title>\\Firesphere\\SolrSearch\\Traits\\SearchResultSetTrait</title>
<polygon fill="none" stroke="#000000" points="748.7549,-1380.8893 596.7549,-1380.8893 596.7549,-1344.8893 748.7549,-1344.8893 748.7549,-1380.8893"/>
<text text-anchor="middle" x="672.7549" y="-1360.0893" font-family="Courier,monospace" font-size="11.00" fill="#000000">SearchResultSetTrait</text>
</g>
<!-- \\Firesphere\\SolrSearch\\Traits\\CoreAdminTrait -->
<g id="node33" class="node">
<title>\\Firesphere\\SolrSearch\\Traits\\CoreAdminTrait</title>
<polygon fill="none" stroke="#000000" points="728.2549,-1326.8893 617.2549,-1326.8893 617.2549,-1290.8893 728.2549,-1290.8893 728.2549,-1326.8893"/>
<text text-anchor="middle" x="672.7549" y="-1306.0893" font-family="Courier,monospace" font-size="11.00" fill="#000000">CoreAdminTrait</text>
</g>
<!-- \\Firesphere\\SolrSearch\\Traits\\CoreServiceTrait -->
<g id="node34" class="node">
<title>\\Firesphere\\SolrSearch\\Traits\\CoreServiceTrait</title>
<polygon fill="none" stroke="#000000" points="735.2549,-1272.8893 610.2549,-1272.8893 610.2549,-1236.8893 735.2549,-1236.8893 735.2549,-1272.8893"/>
<text text-anchor="middle" x="672.7549" y="-1252.0893" font-family="Courier,monospace" font-size="11.00" fill="#000000">CoreServiceTrait</text>
</g>
<!-- \\Firesphere\\SolrSearch\\Traits\\QueryComponentBoostTrait -->
<g id="node35" class="node">
<title>\\Firesphere\\SolrSearch\\Traits\\QueryComponentBoostTrait</title>
<polygon fill="none" stroke="#000000" points="762.2549,-1218.8893 583.2549,-1218.8893 583.2549,-1182.8893 762.2549,-1182.8893 762.2549,-1218.8893"/>
<text text-anchor="middle" x="672.7549" y="-1198.0893" font-family="Courier,monospace" font-size="11.00" fill="#000000">QueryComponentBoostTrait</text>
</g>
<!-- \\Firesphere\\SolrSearch\\Traits\\QueryComponentFilterTrait -->
<g id="node36" class="node">
<title>\\Firesphere\\SolrSearch\\Traits\\QueryComponentFilterTrait</title>
<polygon fill="none" stroke="#000000" points="765.2549,-1164.8893 580.2549,-1164.8893 580.2549,-1128.8893 765.2549,-1128.8893 765.2549,-1164.8893"/>
<text text-anchor="middle" x="672.7549" y="-1144.0893" font-family="Courier,monospace" font-size="11.00" fill="#000000">QueryComponentFilterTrait</text>
</g>
<!-- \\Firesphere\\SolrSearch\\Traits\\QueryComponentFacetTrait -->
<g id="node37" class="node">
<title>\\Firesphere\\SolrSearch\\Traits\\QueryComponentFacetTrait</title>
<polygon fill="none" stroke="#000000" points="762.2549,-1110.8893 583.2549,-1110.8893 583.2549,-1074.8893 762.2549,-1074.8893 762.2549,-1110.8893"/>
<text text-anchor="middle" x="672.7549" y="-1090.0893" font-family="Courier,monospace" font-size="11.00" fill="#000000">QueryComponentFacetTrait</text>
</g>
<!-- \\Firesphere\\SolrSearch\\Traits\\DataResolveTrait -->
<g id="node38" class="node">
<title>\\Firesphere\\SolrSearch\\Traits\\DataResolveTrait</title>
<polygon fill="none" stroke="#000000" points="735.2549,-1056.8893 610.2549,-1056.8893 610.2549,-1020.8893 735.2549,-1020.8893 735.2549,-1056.8893"/>
<text text-anchor="middle" x="672.7549" y="-1036.0893" font-family="Courier,monospace" font-size="11.00" fill="#000000">DataResolveTrait</text>
</g>
<!-- \\Firesphere\\SolrSearch\\Factories\\SchemaFactory -->
<g id="node39" class="node">
<title>\\Firesphere\\SolrSearch\\Factories\\SchemaFactory</title>
<polygon fill="none" stroke="#000000" points="724.7549,-600.8893 620.7549,-600.8893 620.7549,-564.8893 724.7549,-564.8893 724.7549,-600.8893"/>
<text text-anchor="middle" x="672.7549" y="-580.0893" font-family="Courier,monospace" font-size="11.00" fill="#000000">SchemaFactory</text>
</g>
<!-- \\Firesphere\\SolrSearch\\Factories\\SchemaFactory&#45;&gt;\\SilverStripe\\View\\ViewableData -->
<g id="edge15" class="edge">
<title>\\Firesphere\\SolrSearch\\Factories\\SchemaFactory&#45;&gt;\\SilverStripe\\View\\ViewableData</title>
<path fill="none" stroke="#000000" d="M620.5976,-575.8057C604.1259,-571.8194 586.5184,-565.5971 572.2549,-555.8893 412.3305,-447.0439 301.7803,-230.6775 266.3455,-154.3361"/>
<polygon fill="none" stroke="#000000" points="269.3788,-152.5538 262.0293,-144.9226 263.0157,-155.4714 269.3788,-152.5538"/>
</g>
<!-- \\Firesphere\\SolrSearch\\Factories\\DocumentFactory -->
<g id="node40" class="node">
<title>\\Firesphere\\SolrSearch\\Factories\\DocumentFactory</title>
<polygon fill="none" stroke="#000000" points="731.7549,-546.8893 613.7549,-546.8893 613.7549,-510.8893 731.7549,-510.8893 731.7549,-546.8893"/>
<text text-anchor="middle" x="672.7549" y="-526.0893" font-family="Courier,monospace" font-size="11.00" fill="#000000">DocumentFactory</text>
</g>
<!-- \\Firesphere\\SolrSearch\\Factories\\QueryComponentFactory -->
<g id="node41" class="node">
<title>\\Firesphere\\SolrSearch\\Factories\\QueryComponentFactory</title>
<polygon fill="none" stroke="#000000" points="751.7549,-492.8893 593.7549,-492.8893 593.7549,-456.8893 751.7549,-456.8893 751.7549,-492.8893"/>
<text text-anchor="middle" x="672.7549" y="-472.0893" font-family="Courier,monospace" font-size="11.00" fill="#000000">QueryComponentFactory</text>
</g>
<!-- \\Firesphere\\SolrSearch\\Tasks\\ClearDirtyClassesTask -->
<g id="node42" class="node">
<title>\\Firesphere\\SolrSearch\\Tasks\\ClearDirtyClassesTask</title>
<polygon fill="none" stroke="#000000" points="751.7549,-976.8893 593.7549,-976.8893 593.7549,-940.8893 751.7549,-940.8893 751.7549,-976.8893"/>
<text text-anchor="middle" x="672.7549" y="-956.0893" font-family="Courier,monospace" font-size="11.00" fill="#000000">ClearDirtyClassesTask</text>
</g>
<!-- \\SilverStripe\\Dev\\BuildTask -->
<g id="node71" class="node">
<title>\\SilverStripe\\Dev\\BuildTask</title>
<ellipse fill="none" stroke="#000000" cx="254.1275" cy="-3478.8893" rx="139.9756" ry="18"/>
<text text-anchor="middle" x="254.1275" y="-3475.1893" font-family="Times,serif" font-size="14.00" fill="#c0c0c0">\SilverStripe\Dev\BuildTask</text>
</g>
<!-- \\Firesphere\\SolrSearch\\Tasks\\ClearDirtyClassesTask&#45;&gt;\\SilverStripe\\Dev\\BuildTask -->
<g id="edge16" class="edge">
<title>\\Firesphere\\SolrSearch\\Tasks\\ClearDirtyClassesTask&#45;&gt;\\SilverStripe\\Dev\\BuildTask</title>
<path fill="none" stroke="#000000" d="M610.8432,-976.9287C595.731,-984.3594 581.3184,-994.6761 572.2549,-1008.8893 499.2567,-1123.3638 600.3591,-3352.1397 508.2549,-3451.8893 466.1611,-3497.4772 394.2161,-3501.3137 337.598,-3495.4109"/>
<polygon fill="none" stroke="#000000" points="337.9118,-3491.924 327.5753,-3494.2493 337.1058,-3498.8774 337.9118,-3491.924"/>
</g>
<!-- \\Firesphere\\SolrSearch\\Tasks\\ClearErrorsTask -->
<g id="node43" class="node">
<title>\\Firesphere\\SolrSearch\\Tasks\\ClearErrorsTask</title>
<polygon fill="none" stroke="#000000" points="731.7549,-922.8893 613.7549,-922.8893 613.7549,-886.8893 731.7549,-886.8893 731.7549,-922.8893"/>
<text text-anchor="middle" x="672.7549" y="-902.0893" font-family="Courier,monospace" font-size="11.00" fill="#000000">ClearErrorsTask</text>
</g>
<!-- \\Firesphere\\SolrSearch\\Tasks\\ClearErrorsTask&#45;&gt;\\SilverStripe\\Dev\\BuildTask -->
<g id="edge17" class="edge">
<title>\\Firesphere\\SolrSearch\\Tasks\\ClearErrorsTask&#45;&gt;\\SilverStripe\\Dev\\BuildTask</title>
<path fill="none" stroke="#000000" d="M613.7342,-908.0437C597.8906,-911.9036 582.368,-919.0418 572.2549,-931.8893 485.6335,-1041.9319 603.219,-3348.9599 508.2549,-3451.8893 466.1793,-3497.494 394.2326,-3501.3289 337.6093,-3495.4213"/>
<polygon fill="none" stroke="#000000" points="337.9222,-3491.9342 327.5855,-3494.2588 337.1157,-3498.8876 337.9222,-3491.9342"/>
</g>
<!-- \\Firesphere\\SolrSearch\\Tasks\\SolrConfigureTask -->
<g id="node44" class="node">
<title>\\Firesphere\\SolrSearch\\Tasks\\SolrConfigureTask</title>
<polygon fill="none" stroke="#000000" points="738.2549,-868.8893 607.2549,-868.8893 607.2549,-832.8893 738.2549,-832.8893 738.2549,-868.8893"/>
<text text-anchor="middle" x="672.7549" y="-848.0893" font-family="Courier,monospace" font-size="11.00" fill="#000000">SolrConfigureTask</text>
</g>
<!-- \\Firesphere\\SolrSearch\\Tasks\\SolrConfigureTask&#45;&gt;\\SilverStripe\\Dev\\BuildTask -->
<g id="edge18" class="edge">
<title>\\Firesphere\\SolrSearch\\Tasks\\SolrConfigureTask&#45;&gt;\\SilverStripe\\Dev\\BuildTask</title>
<path fill="none" stroke="#000000" d="M607.1967,-855.8337C593.7017,-859.9812 580.9682,-866.814 572.2549,-877.8893 483.8084,-990.312 605.2247,-3346.7298 508.2549,-3451.8893 466.1206,-3497.5821 394.0009,-3501.3519 337.3304,-3495.3983"/>
<polygon fill="none" stroke="#000000" points="337.6379,-3491.9105 327.2996,-3494.2277 336.8265,-3498.8633 337.6379,-3491.9105"/>
</g>
<!-- \\Firesphere\\SolrSearch\\Tasks\\SolrIndexTask -->
<g id="node45" class="node">
<title>\\Firesphere\\SolrSearch\\Tasks\\SolrIndexTask</title>
<polygon fill="none" stroke="#000000" points="724.7549,-814.8893 620.7549,-814.8893 620.7549,-778.8893 724.7549,-778.8893 724.7549,-814.8893"/>
<text text-anchor="middle" x="672.7549" y="-794.0893" font-family="Courier,monospace" font-size="11.00" fill="#000000">SolrIndexTask</text>
</g>
<!-- \\Firesphere\\SolrSearch\\Tasks\\SolrIndexTask&#45;&gt;\\SilverStripe\\Dev\\BuildTask -->
<g id="edge19" class="edge">
<title>\\Firesphere\\SolrSearch\\Tasks\\SolrIndexTask&#45;&gt;\\SilverStripe\\Dev\\BuildTask</title>
<path fill="none" stroke="#000000" d="M620.5584,-798.5696C602.4526,-801.9635 583.813,-809.1903 572.2549,-823.8893 481.9833,-938.6921 607.2303,-3344.4998 508.2549,-3451.8893 466.1322,-3497.5929 394.0115,-3501.3616 337.3376,-3495.4049"/>
<polygon fill="none" stroke="#000000" points="337.6446,-3491.917 327.3062,-3494.2337 336.8328,-3498.8698 337.6446,-3491.917"/>
</g>
<!-- \\Firesphere\\SolrSearch\\Interfaces\\ConfigStore -->
<g id="node46" class="node">
<title>\\Firesphere\\SolrSearch\\Interfaces\\ConfigStore</title>
<polygon fill="none" stroke="#000000" points="299.6275,-680.8893 208.6275,-680.8893 208.6275,-644.8893 299.6275,-644.8893 299.6275,-680.8893"/>
<text text-anchor="middle" x="254.1275" y="-660.0893" font-family="Courier,monospace" font-size="11.00" fill="#000000">ConfigStore</text>
</g>
<!-- \\Firesphere\\SolrSearch\\Interfaces\\SiteStateInterface -->
<g id="node47" class="node">
<title>\\Firesphere\\SolrSearch\\Interfaces\\SiteStateInterface</title>
<polygon fill="none" stroke="#000000" points="323.1275,-626.8893 185.1275,-626.8893 185.1275,-590.8893 323.1275,-590.8893 323.1275,-626.8893"/>
<text text-anchor="middle" x="254.1275" y="-606.0893" font-family="Courier,monospace" font-size="11.00" fill="#000000">SiteStateInterface</text>
</g>
<!-- \\Firesphere\\SolrSearch\\Stores\\PostConfigStore -->
<g id="node48" class="node">
<title>\\Firesphere\\SolrSearch\\Stores\\PostConfigStore</title>
<polygon fill="none" stroke="#000000" points="731.7549,-734.8893 613.7549,-734.8893 613.7549,-698.8893 731.7549,-698.8893 731.7549,-734.8893"/>
<text text-anchor="middle" x="672.7549" y="-714.0893" font-family="Courier,monospace" font-size="11.00" fill="#000000">PostConfigStore</text>
</g>
<!-- \\Firesphere\\SolrSearch\\Stores\\PostConfigStore&#45;&gt;\\Firesphere\\SolrSearch\\Interfaces\\ConfigStore -->
<g id="edge20" class="edge">
<title>\\Firesphere\\SolrSearch\\Stores\\PostConfigStore&#45;&gt;\\Firesphere\\SolrSearch\\Interfaces\\ConfigStore</title>
<path fill="none" stroke="#000000" stroke-dasharray="1,5" d="M613.6637,-709.2669C532.8854,-698.8471 389.0185,-680.2893 309.9722,-670.0929"/>
<polygon fill="none" stroke="#000000" points="310.0944,-666.5797 299.7287,-668.7715 309.1988,-673.5222 310.0944,-666.5797"/>
</g>
<!-- \\Firesphere\\SolrSearch\\Stores\\FileConfigStore -->
<g id="node49" class="node">
<title>\\Firesphere\\SolrSearch\\Stores\\FileConfigStore</title>
<polygon fill="none" stroke="#000000" points="731.7549,-680.8893 613.7549,-680.8893 613.7549,-644.8893 731.7549,-644.8893 731.7549,-680.8893"/>
<text text-anchor="middle" x="672.7549" y="-660.0893" font-family="Courier,monospace" font-size="11.00" fill="#000000">FileConfigStore</text>
</g>
<!-- \\Firesphere\\SolrSearch\\Stores\\FileConfigStore&#45;&gt;\\Firesphere\\SolrSearch\\Interfaces\\ConfigStore -->
<g id="edge21" class="edge">
<title>\\Firesphere\\SolrSearch\\Stores\\FileConfigStore&#45;&gt;\\Firesphere\\SolrSearch\\Interfaces\\ConfigStore</title>
<path fill="none" stroke="#000000" stroke-dasharray="1,5" d="M613.6637,-662.8893C532.8854,-662.8893 389.0185,-662.8893 309.9722,-662.8893"/>
<polygon fill="none" stroke="#000000" points="309.7288,-659.3894 299.7287,-662.8893 309.7287,-666.3894 309.7288,-659.3894"/>
</g>
<!-- \\Firesphere\\SolrSearch\\Services\\SolrCoreService -->
<g id="node50" class="node">
<title>\\Firesphere\\SolrSearch\\Services\\SolrCoreService</title>
<polygon fill="none" stroke="#000000" points="731.7549,-412.8893 613.7549,-412.8893 613.7549,-376.8893 731.7549,-376.8893 731.7549,-412.8893"/>
<text text-anchor="middle" x="672.7549" y="-392.0893" font-family="Courier,monospace" font-size="11.00" fill="#000000">SolrCoreService</text>
</g>
<!-- \\Firesphere\\SolrSearch\\Jobs\\ClearDirtyClassesJob -->
<g id="node51" class="node">
<title>\\Firesphere\\SolrSearch\\Jobs\\ClearDirtyClassesJob</title>
<polygon fill="none" stroke="#000000" points="748.7549,-224.8893 596.7549,-224.8893 596.7549,-188.8893 748.7549,-188.8893 748.7549,-224.8893"/>
<text text-anchor="middle" x="672.7549" y="-204.0893" font-family="Courier,monospace" font-size="11.00" fill="#000000">ClearDirtyClassesJob</text>
</g>
<!-- \\Symbiote\\QueuedJobs\\Services\\AbstractQueuedJob -->
<g id="node72" class="node">
<title>\\Symbiote\\QueuedJobs\\Services\\AbstractQueuedJob</title>
<ellipse fill="none" stroke="#000000" cx="254.1275" cy="-3424.8893" rx="254.255" ry="18"/>
<text text-anchor="middle" x="254.1275" y="-3421.1893" font-family="Times,serif" font-size="14.00" fill="#c0c0c0">\Symbiote\QueuedJobs\Services\AbstractQueuedJob</text>
</g>
<!-- \\Firesphere\\SolrSearch\\Jobs\\ClearDirtyClassesJob&#45;&gt;\\Symbiote\\QueuedJobs\\Services\\AbstractQueuedJob -->
<g id="edge22" class="edge">
<title>\\Firesphere\\SolrSearch\\Jobs\\ClearDirtyClassesJob&#45;&gt;\\Symbiote\\QueuedJobs\\Services\\AbstractQueuedJob</title>
<path fill="none" stroke="#000000" d="M596.567,-216.4557C587.2945,-220.5458 578.8024,-226.1763 572.2549,-233.8893 545.0345,-265.955 285.5102,-3083.2917 256.7189,-3396.6585"/>
<polygon fill="none" stroke="#000000" points="253.2222,-3396.4627 255.7928,-3406.7409 260.1929,-3397.103 253.2222,-3396.4627"/>
</g>
<!-- \\Firesphere\\SolrSearch\\Jobs\\SolrConfigureJob -->
<g id="node52" class="node">
<title>\\Firesphere\\SolrSearch\\Jobs\\SolrConfigureJob</title>
<polygon fill="none" stroke="#000000" points="735.2549,-332.8893 610.2549,-332.8893 610.2549,-296.8893 735.2549,-296.8893 735.2549,-332.8893"/>
<text text-anchor="middle" x="672.7549" y="-312.0893" font-family="Courier,monospace" font-size="11.00" fill="#000000">SolrConfigureJob</text>
</g>
<!-- \\Firesphere\\SolrSearch\\Jobs\\SolrConfigureJob&#45;&gt;\\Symbiote\\QueuedJobs\\Services\\AbstractQueuedJob -->
<g id="edge23" class="edge">
<title>\\Firesphere\\SolrSearch\\Jobs\\SolrConfigureJob&#45;&gt;\\Symbiote\\QueuedJobs\\Services\\AbstractQueuedJob</title>
<path fill="none" stroke="#000000" d="M612.6062,-332.8927C597.1275,-340.3681 582.0836,-350.7171 572.2549,-364.8893 526.3561,-431.0713 284.4049,-3090.4627 256.7106,-3396.3139"/>
<polygon fill="none" stroke="#000000" points="253.1985,-3396.2905 255.7828,-3406.5653 260.17,-3396.9215 253.1985,-3396.2905"/>
</g>
<!-- \\Firesphere\\SolrSearch\\Jobs\\SolrIndexJob -->
<g id="node53" class="node">
<title>\\Firesphere\\SolrSearch\\Jobs\\SolrIndexJob</title>
<polygon fill="none" stroke="#000000" points="721.7549,-278.8893 623.7549,-278.8893 623.7549,-242.8893 721.7549,-242.8893 721.7549,-278.8893"/>
<text text-anchor="middle" x="672.7549" y="-258.0893" font-family="Courier,monospace" font-size="11.00" fill="#000000">SolrIndexJob</text>
</g>
<!-- \\Firesphere\\SolrSearch\\Jobs\\SolrIndexJob&#45;&gt;\\Symbiote\\QueuedJobs\\Services\\AbstractQueuedJob -->
<g id="edge24" class="edge">
<title>\\Firesphere\\SolrSearch\\Jobs\\SolrIndexJob&#45;&gt;\\Symbiote\\QueuedJobs\\Services\\AbstractQueuedJob</title>
<path fill="none" stroke="#000000" d="M623.4973,-262.6234C604.7567,-265.897 584.8949,-273.025 572.2549,-287.8893 518.7266,-350.8374 283.0513,-3087.0689 256.5534,-3396.5023"/>
<polygon fill="none" stroke="#000000" points="253.0332,-3396.5906 255.6676,-3406.8527 260.0077,-3397.1876 253.0332,-3396.5906"/>
</g>
<!-- \\Firesphere\\SolrFluent\\Extensions\\FluentDocumentExtension -->
<g id="node54" class="node">
<title>\\Firesphere\\SolrFluent\\Extensions\\FluentDocumentExtension</title>
<polygon fill="none" stroke="#000000" points="1012.7549,-776.8893 840.7549,-776.8893 840.7549,-740.8893 1012.7549,-740.8893 1012.7549,-776.8893"/>
<text text-anchor="middle" x="926.7549" y="-756.0893" font-family="Courier,monospace" font-size="11.00" fill="#000000">FluentDocumentExtension</text>
</g>
<!-- \\Firesphere\\SolrFluent\\Extensions\\FluentDocumentExtension&#45;&gt;\\SilverStripe\\Core\\Extension -->
<g id="edge25" class="edge">
<title>\\Firesphere\\SolrFluent\\Extensions\\FluentDocumentExtension&#45;&gt;\\SilverStripe\\Core\\Extension</title>
<path fill="none" stroke="#000000" d="M840.747,-747.2812C833.3488,-743.3793 826.6449,-738.3493 821.2549,-731.8893 740.3328,-634.9015 863.7592,-260.5347 781.2549,-164.8893 748.9961,-127.4923 708.9397,-174.5021 672.7549,-140.8893"/>
</g>
<!-- \\Firesphere\\SolrFluent\\Extensions\\FluentIndexExtension -->
<g id="node55" class="node">
<title>\\Firesphere\\SolrFluent\\Extensions\\FluentIndexExtension</title>
<polygon fill="none" stroke="#000000" points="1002.7549,-722.8893 850.7549,-722.8893 850.7549,-686.8893 1002.7549,-686.8893 1002.7549,-722.8893"/>
<text text-anchor="middle" x="926.7549" y="-702.0893" font-family="Courier,monospace" font-size="11.00" fill="#000000">FluentIndexExtension</text>
</g>
<!-- \\Firesphere\\SolrFluent\\Extensions\\FluentIndexExtension&#45;&gt;\\SilverStripe\\Core\\Extension -->
<g id="edge26" class="edge">
<title>\\Firesphere\\SolrFluent\\Extensions\\FluentIndexExtension&#45;&gt;\\SilverStripe\\Core\\Extension</title>
<path fill="none" stroke="#000000" d="M879.1415,-686.865C857.7901,-676.2394 834.4799,-660.5579 821.2549,-638.8893 766.185,-548.6594 850.8493,-244.4553 781.2549,-164.8893 748.7396,-127.7151 708.9397,-174.5021 672.7549,-140.8893"/>
<path fill="none" stroke="#000000" d="M672.7549,-140.8893C657.2907,-126.5242 528.3246,-52.4242 508.2549,-45.8893 475.4252,-35.1996 439.0725,-28.5139 404.3721,-24.3857"/>
<polygon fill="none" stroke="#000000" points="404.4777,-20.8757 394.1493,-23.2366 403.6957,-27.8318 404.4777,-20.8757"/>
</g>
<!-- \\Firesphere\\SolrFluent\\Extensions\\FluentSchemaExtension -->
<g id="node56" class="node">
<title>\\Firesphere\\SolrFluent\\Extensions\\FluentSchemaExtension</title>
<polygon fill="none" stroke="#000000" points="1005.7549,-830.8893 847.7549,-830.8893 847.7549,-794.8893 1005.7549,-794.8893 1005.7549,-830.8893"/>
<text text-anchor="middle" x="926.7549" y="-810.0893" font-family="Courier,monospace" font-size="11.00" fill="#000000">FluentSchemaExtension</text>
</g>
<!-- \\Firesphere\\SolrFluent\\Extensions\\FluentSchemaExtension&#45;&gt;\\SilverStripe\\Core\\Extension -->
<g id="edge27" class="edge">
<title>\\Firesphere\\SolrFluent\\Extensions\\FluentSchemaExtension&#45;&gt;\\SilverStripe\\Core\\Extension</title>
<path fill="none" stroke="#000000" d="M847.6084,-804.5678C837.4974,-800.3327 828.2543,-794.3305 821.2549,-785.8893 732.9871,-679.4383 871.2594,-269.876 781.2549,-164.8893 749.1104,-127.394 708.9397,-174.5021 672.7549,-140.8893"/>
</g>
<!-- \\Firesphere\\SolrFluent\\States\\FluentSiteState -->
<g id="node57" class="node">
<title>\\Firesphere\\SolrFluent\\States\\FluentSiteState</title>
<polygon fill="none" stroke="#000000" points="985.7549,-910.8893 867.7549,-910.8893 867.7549,-874.8893 985.7549,-874.8893 985.7549,-910.8893"/>
<text text-anchor="middle" x="926.7549" y="-890.0893" font-family="Courier,monospace" font-size="11.00" fill="#000000">FluentSiteState</text>
</g>
<!-- \\Firesphere\\SolrFluent\\States\\FluentSiteState&#45;&gt;\\Firesphere\\SolrSearch\\States\\SiteState -->
<g id="edge28" class="edge">
<title>\\Firesphere\\SolrFluent\\States\\FluentSiteState&#45;&gt;\\Firesphere\\SolrSearch\\States\\SiteState</title>
<path fill="none" stroke="#000000" d="M891.4989,-910.9814C867.0004,-925.6593 836.1719,-948.8321 821.2549,-978.8893 763.9232,-1094.4106 861.1134,-2037.6237 781.2549,-2138.8893 767.8389,-2155.9017 745.6956,-2163.8056 724.8995,-2167.2996"/>
<polygon fill="none" stroke="#000000" points="724.2734,-2163.8526 714.8429,-2168.6811 725.2262,-2170.7875 724.2734,-2163.8526"/>
</g>
<!-- \\Firesphere\\SolrFluent\\States\\FluentSiteState&#45;&gt;\\Firesphere\\SolrSearch\\Interfaces\\SiteStateInterface -->
<g id="edge29" class="edge">
<title>\\Firesphere\\SolrFluent\\States\\FluentSiteState&#45;&gt;\\Firesphere\\SolrSearch\\Interfaces\\SiteStateInterface</title>
<path fill="none" stroke="#000000" stroke-dasharray="1,5" d="M867.4876,-888.9615C850.0199,-884.7705 832.5734,-877.001 821.2549,-862.8893 725.7123,-743.7678 888.8981,-285.2002 781.2549,-176.8893 747.1916,-142.6146 719.796,-180.9436 672.7549,-169.8893"/>
<path fill="none" stroke="#000000" stroke-dasharray="1,5" d="M672.7549,-169.8893C447.7806,-117.0221 300.8988,-477.3621 263.5365,-581.3549"/>
<polygon fill="none" stroke="#000000" points="260.2073,-580.2714 260.1695,-590.8662 266.806,-582.6074 260.2073,-580.2714"/>
</g>
<!-- \\Firesphere\\SolrSubsites\\Extensions\\SubsitesExtension -->
<g id="node58" class="node">
<title>\\Firesphere\\SolrSubsites\\Extensions\\SubsitesExtension</title>
<polygon fill="none" stroke="#000000" points="992.2549,-1026.8893 861.2549,-1026.8893 861.2549,-990.8893 992.2549,-990.8893 992.2549,-1026.8893"/>
<text text-anchor="middle" x="926.7549" y="-1006.0893" font-family="Courier,monospace" font-size="11.00" fill="#000000">SubsitesExtension</text>
</g>
<!-- \\Firesphere\\SolrSubsites\\Extensions\\SubsitesExtension&#45;&gt;\\SilverStripe\\Core\\Extension -->
<g id="edge30" class="edge">
<title>\\Firesphere\\SolrSubsites\\Extensions\\SubsitesExtension&#45;&gt;\\SilverStripe\\Core\\Extension</title>
<path fill="none" stroke="#000000" d="M878.2804,-990.7817C857.0079,-980.2034 834.0131,-964.5858 821.2549,-942.8893 777.3794,-868.2747 837.1654,-230.9681 781.2549,-164.8893 749.354,-127.1866 708.9397,-174.5021 672.7549,-140.8893"/>
</g>
<!-- \\Firesphere\\SolrSubsites\\States\\SubsiteState -->
<g id="node59" class="node">
<title>\\Firesphere\\SolrSubsites\\States\\SubsiteState</title>
<polygon fill="none" stroke="#000000" points="975.7549,-1106.8893 877.7549,-1106.8893 877.7549,-1070.8893 975.7549,-1070.8893 975.7549,-1106.8893"/>
<text text-anchor="middle" x="926.7549" y="-1086.0893" font-family="Courier,monospace" font-size="11.00" fill="#000000">SubsiteState</text>
</g>
<!-- \\Firesphere\\SolrSubsites\\States\\SubsiteState&#45;&gt;\\Firesphere\\SolrSearch\\States\\SiteState -->
<g id="edge31" class="edge">
<title>\\Firesphere\\SolrSubsites\\States\\SubsiteState&#45;&gt;\\Firesphere\\SolrSearch\\States\\SiteState</title>
<path fill="none" stroke="#000000" d="M925.4164,-1107.285C915.5509,-1240.7461 852.4959,-2057.5591 781.2549,-2138.8893 767.2092,-2154.9242 745.4362,-2162.7412 725.0703,-2166.4322"/>
<polygon fill="none" stroke="#000000" points="724.276,-2163.0125 714.9123,-2167.9694 725.3235,-2169.9336 724.276,-2163.0125"/>
</g>
<!-- \\Firesphere\\SolrSubsites\\States\\SubsiteState&#45;&gt;\\Firesphere\\SolrSearch\\Interfaces\\SiteStateInterface -->
<g id="edge32" class="edge">
<title>\\Firesphere\\SolrSubsites\\States\\SubsiteState&#45;&gt;\\Firesphere\\SolrSearch\\Interfaces\\SiteStateInterface</title>
<path fill="none" stroke="#000000" stroke-dasharray="1,5" d="M877.5482,-1087.1042C856.9256,-1083.6529 834.6683,-1075.8361 821.2549,-1058.8893 760.3715,-981.9675 849.9568,-246.9165 781.2549,-176.8893 747.4137,-142.3953 719.796,-180.9436 672.7549,-169.8893"/>
</g>
<!-- \\Firesphere\\SolrPermissions\\Extensions\\DataObjectExtension -->
<g id="node60" class="node">
<title>\\Firesphere\\SolrPermissions\\Extensions\\DataObjectExtension</title>
<polygon fill="none" stroke="#000000" points="999.2549,-606.8893 854.2549,-606.8893 854.2549,-570.8893 999.2549,-570.8893 999.2549,-606.8893"/>
<text text-anchor="middle" x="926.7549" y="-586.0893" font-family="Courier,monospace" font-size="11.00" fill="#000000">DataObjectExtension</text>
</g>
<!-- \\Firesphere\\SolrPermissions\\Extensions\\DataObjectExtension&#45;&gt;\\SilverStripe\\ORM\\DataExtension -->
<g id="edge33" class="edge">
<title>\\Firesphere\\SolrPermissions\\Extensions\\DataObjectExtension&#45;&gt;\\SilverStripe\\ORM\\DataExtension</title>
<path fill="none" stroke="#000000" d="M854.0027,-582.6402C841.515,-578.3941 829.8232,-571.8512 821.2549,-561.8893 705.6153,-427.4416 898.02,-298.3607 781.2549,-164.8893 734.821,-111.8117 558.0573,-89.3323 421.8851,-79.8263"/>
<polygon fill="none" stroke="#000000" points="421.9553,-76.3231 411.7409,-79.1368 421.4805,-83.307 421.9553,-76.3231"/>
</g>
<!-- \\Firesphere\\SolrPermissions\\Extensions\\DocumentFactoryExtension -->
<g id="node61" class="node">
<title>\\Firesphere\\SolrPermissions\\Extensions\\DocumentFactoryExtension</title>
<polygon fill="none" stroke="#000000" points="1016.2549,-552.8893 837.2549,-552.8893 837.2549,-516.8893 1016.2549,-516.8893 1016.2549,-552.8893"/>
<text text-anchor="middle" x="926.7549" y="-532.0893" font-family="Courier,monospace" font-size="11.00" fill="#000000">DocumentFactoryExtension</text>
</g>
<!-- \\Firesphere\\SolrPermissions\\Extensions\\DocumentFactoryExtension&#45;&gt;\\SilverStripe\\Core\\Extension -->
<g id="edge34" class="edge">
<title>\\Firesphere\\SolrPermissions\\Extensions\\DocumentFactoryExtension&#45;&gt;\\SilverStripe\\Core\\Extension</title>
<path fill="none" stroke="#000000" d="M837.2189,-521.0836C831.2436,-517.5441 825.805,-513.2026 821.2549,-507.8893 760.9915,-437.5169 841.4476,-163.3221 781.2549,-92.8893 748.8994,-55.0294 716.6475,-88.4199 672.7549,-64.8893"/>
</g>
<!-- \\Firesphere\\SolrPermissions\\Extensions\\BaseIndexExtension -->
<g id="node62" class="node">
<title>\\Firesphere\\SolrPermissions\\Extensions\\BaseIndexExtension</title>
<polygon fill="none" stroke="#000000" points="995.7549,-498.8893 857.7549,-498.8893 857.7549,-462.8893 995.7549,-462.8893 995.7549,-498.8893"/>
<text text-anchor="middle" x="926.7549" y="-478.0893" font-family="Courier,monospace" font-size="11.00" fill="#000000">BaseIndexExtension</text>
</g>
<!-- \\Firesphere\\SolrPermissions\\Extensions\\BaseIndexExtension&#45;&gt;\\SilverStripe\\Core\\Extension -->
<g id="edge35" class="edge">
<title>\\Firesphere\\SolrPermissions\\Extensions\\BaseIndexExtension&#45;&gt;\\SilverStripe\\Core\\Extension</title>
<path fill="none" stroke="#000000" d="M857.5959,-475.7113C843.796,-471.5304 830.6721,-464.7419 821.2549,-453.8893 714.2992,-330.6311 890.2208,-210.374 781.2549,-88.8893 748.2781,-52.1239 716.2824,-88.2241 672.7549,-64.8893"/>
</g>
<!-- \\Firesphere\\SolrPermissions\\Extensions\\SchemaFactoryExtension -->
<g id="node63" class="node">
<title>\\Firesphere\\SolrPermissions\\Extensions\\SchemaFactoryExtension</title>
<polygon fill="none" stroke="#000000" points="1009.2549,-444.8893 844.2549,-444.8893 844.2549,-408.8893 1009.2549,-408.8893 1009.2549,-444.8893"/>
<text text-anchor="middle" x="926.7549" y="-424.0893" font-family="Courier,monospace" font-size="11.00" fill="#000000">SchemaFactoryExtension</text>
</g>
<!-- \\Firesphere\\SolrPermissions\\Extensions\\SchemaFactoryExtension&#45;&gt;\\SilverStripe\\Core\\Extension -->
<g id="edge36" class="edge">
<title>\\Firesphere\\SolrPermissions\\Extensions\\SchemaFactoryExtension&#45;&gt;\\SilverStripe\\Core\\Extension</title>
<path fill="none" stroke="#000000" d="M880.2653,-408.7694C858.9063,-398.0519 835.2615,-382.3197 821.2549,-360.8893 754.4057,-258.6085 864.5042,-178.3305 781.2549,-88.8893 747.6062,-52.7379 716.2824,-88.2241 672.7549,-64.8893"/>
</g>
</g>
</svg>
