<?xml version="1.0" encoding="UTF-8" standalone="no"?>
<!DOCTYPE svg PUBLIC "-//W3C//DTD SVG 1.1//EN"
 "http://www.w3.org/Graphics/SVG/1.1/DTD/svg11.dtd">
<!-- Generated by graphviz version 2.40.1 (20161225.0304)
 -->
<!-- Title: G Pages: 1 -->
<svg width="1064pt" height="3721pt"
 viewBox="0.00 0.00 1064.25 3720.73" xmlns="http://www.w3.org/2000/svg" xmlns:xlink="http://www.w3.org/1999/xlink">
<g id="graph0" class="graph" transform="scale(1 1) rotate(0) translate(4 3716.7327)">
<title>G</title>
<polygon fill="#ffffff" stroke="transparent" points="-4,4 -4,-3716.7327 1060.2549,-3716.7327 1060.2549,4 -4,4"/>
<g id="clust1" class="cluster">
<title>cluster_Global</title>
<path fill="none" stroke="#c0c0c0" d="M165.1275,-152.5623C165.1275,-152.5623 1036.2549,-152.5623 1036.2549,-152.5623 1042.2549,-152.5623 1048.2549,-158.5623 1048.2549,-164.5623 1048.2549,-164.5623 1048.2549,-3386.5623 1048.2549,-3386.5623 1048.2549,-3392.5623 1042.2549,-3398.5623 1036.2549,-3398.5623 1036.2549,-3398.5623 165.1275,-3398.5623 165.1275,-3398.5623 159.1275,-3398.5623 153.1275,-3392.5623 153.1275,-3386.5623 153.1275,-3386.5623 153.1275,-164.5623 153.1275,-164.5623 153.1275,-158.5623 159.1275,-152.5623 165.1275,-152.5623"/>
<text text-anchor="middle" x="600.6912" y="-3385.7623" font-family="Times,serif" font-size="11.00" fill="#c0c0c0">Global</text>
</g>
<g id="clust2" class="cluster">
<title>cluster_\SilverStripe</title>
<path fill="none" stroke="#c0c0c0" d="M861.2549,-3056.5623C861.2549,-3056.5623 992.2549,-3056.5623 992.2549,-3056.5623 998.2549,-3056.5623 1004.2549,-3062.5623 1004.2549,-3068.5623 1004.2549,-3068.5623 1004.2549,-3358.5623 1004.2549,-3358.5623 1004.2549,-3364.5623 998.2549,-3370.5623 992.2549,-3370.5623 992.2549,-3370.5623 861.2549,-3370.5623 861.2549,-3370.5623 855.2549,-3370.5623 849.2549,-3364.5623 849.2549,-3358.5623 849.2549,-3358.5623 849.2549,-3068.5623 849.2549,-3068.5623 849.2549,-3062.5623 855.2549,-3056.5623 861.2549,-3056.5623"/>
<text text-anchor="middle" x="926.7549" y="-3357.7623" font-family="Times,serif" font-size="11.00" fill="#c0c0c0">SilverStripe</text>
</g>
<g id="clust3" class="cluster">
<title>cluster_\SilverStripe\FullTextSearch</title>
<path fill="none" stroke="#c0c0c0" d="M869.2549,-3064.5623C869.2549,-3064.5623 984.2549,-3064.5623 984.2549,-3064.5623 990.2549,-3064.5623 996.2549,-3070.5623 996.2549,-3076.5623 996.2549,-3076.5623 996.2549,-3330.5623 996.2549,-3330.5623 996.2549,-3336.5623 990.2549,-3342.5623 984.2549,-3342.5623 984.2549,-3342.5623 869.2549,-3342.5623 869.2549,-3342.5623 863.2549,-3342.5623 857.2549,-3336.5623 857.2549,-3330.5623 857.2549,-3330.5623 857.2549,-3076.5623 857.2549,-3076.5623 857.2549,-3070.5623 863.2549,-3064.5623 869.2549,-3064.5623"/>
<text text-anchor="middle" x="926.7549" y="-3329.7623" font-family="Times,serif" font-size="11.00" fill="#c0c0c0">FullTextSearch</text>
</g>
<g id="clust4" class="cluster">
<title>cluster_\SilverStripe\FullTextSearch\Solr</title>
<path fill="none" stroke="#c0c0c0" d="M888.7549,-3188.5623C888.7549,-3188.5623 964.7549,-3188.5623 964.7549,-3188.5623 970.7549,-3188.5623 976.7549,-3194.5623 976.7549,-3200.5623 976.7549,-3200.5623 976.7549,-3302.5623 976.7549,-3302.5623 976.7549,-3308.5623 970.7549,-3314.5623 964.7549,-3314.5623 964.7549,-3314.5623 888.7549,-3314.5623 888.7549,-3314.5623 882.7549,-3314.5623 876.7549,-3308.5623 876.7549,-3302.5623 876.7549,-3302.5623 876.7549,-3200.5623 876.7549,-3200.5623 876.7549,-3194.5623 882.7549,-3188.5623 888.7549,-3188.5623"/>
<text text-anchor="middle" x="926.7549" y="-3301.7623" font-family="Times,serif" font-size="11.00" fill="#c0c0c0">Solr</text>
</g>
<g id="clust5" class="cluster">
<title>cluster_\SilverStripe\FullTextSearch\Search</title>
<path fill="none" stroke="#c0c0c0" d="M877.2549,-3072.5623C877.2549,-3072.5623 976.2549,-3072.5623 976.2549,-3072.5623 982.2549,-3072.5623 988.2549,-3078.5623 988.2549,-3084.5623 988.2549,-3084.5623 988.2549,-3168.5623 988.2549,-3168.5623 988.2549,-3174.5623 982.2549,-3180.5623 976.2549,-3180.5623 976.2549,-3180.5623 877.2549,-3180.5623 877.2549,-3180.5623 871.2549,-3180.5623 865.2549,-3174.5623 865.2549,-3168.5623 865.2549,-3168.5623 865.2549,-3084.5623 865.2549,-3084.5623 865.2549,-3078.5623 871.2549,-3072.5623 877.2549,-3072.5623"/>
<text text-anchor="middle" x="926.7549" y="-3167.7623" font-family="Times,serif" font-size="11.00" fill="#c0c0c0">Search</text>
</g>
<g id="clust6" class="cluster">
<title>cluster_\SilverStripe\FullTextSearch\Search\Queries</title>
<path fill="none" stroke="#c0c0c0" d="M885.2549,-3080.5623C885.2549,-3080.5623 968.2549,-3080.5623 968.2549,-3080.5623 974.2549,-3080.5623 980.2549,-3086.5623 980.2549,-3092.5623 980.2549,-3092.5623 980.2549,-3140.5623 980.2549,-3140.5623 980.2549,-3146.5623 974.2549,-3152.5623 968.2549,-3152.5623 968.2549,-3152.5623 885.2549,-3152.5623 885.2549,-3152.5623 879.2549,-3152.5623 873.2549,-3146.5623 873.2549,-3140.5623 873.2549,-3140.5623 873.2549,-3092.5623 873.2549,-3092.5623 873.2549,-3086.5623 879.2549,-3080.5623 885.2549,-3080.5623"/>
<text text-anchor="middle" x="926.7549" y="-3139.7623" font-family="Times,serif" font-size="11.00" fill="#c0c0c0">Queries</text>
</g>
<g id="clust7" class="cluster">
<title>cluster_\Firesphere</title>
<path fill="none" stroke="#c0c0c0" d="M173.1275,-160.5623C173.1275,-160.5623 1028.2549,-160.5623 1028.2549,-160.5623 1034.2549,-160.5623 1040.2549,-166.5623 1040.2549,-172.5623 1040.2549,-172.5623 1040.2549,-3036.5623 1040.2549,-3036.5623 1040.2549,-3042.5623 1034.2549,-3048.5623 1028.2549,-3048.5623 1028.2549,-3048.5623 173.1275,-3048.5623 173.1275,-3048.5623 167.1275,-3048.5623 161.1275,-3042.5623 161.1275,-3036.5623 161.1275,-3036.5623 161.1275,-172.5623 161.1275,-172.5623 161.1275,-166.5623 167.1275,-160.5623 173.1275,-160.5623"/>
<text text-anchor="middle" x="600.6912" y="-3035.7623" font-family="Times,serif" font-size="11.00" fill="#c0c0c0">Firesphere</text>
</g>
<g id="clust8" class="cluster">
<title>cluster_\Firesphere\SolrCompatibility</title>
<path fill="none" stroke="#c0c0c0" d="M833.2549,-168.5623C833.2549,-168.5623 1020.2549,-168.5623 1020.2549,-168.5623 1026.2549,-168.5623 1032.2549,-174.5623 1032.2549,-180.5623 1032.2549,-180.5623 1032.2549,-318.5623 1032.2549,-318.5623 1032.2549,-324.5623 1026.2549,-330.5623 1020.2549,-330.5623 1020.2549,-330.5623 833.2549,-330.5623 833.2549,-330.5623 827.2549,-330.5623 821.2549,-324.5623 821.2549,-318.5623 821.2549,-318.5623 821.2549,-180.5623 821.2549,-180.5623 821.2549,-174.5623 827.2549,-168.5623 833.2549,-168.5623"/>
<text text-anchor="middle" x="926.7549" y="-317.7623" font-family="Times,serif" font-size="11.00" fill="#c0c0c0">SolrCompatibility</text>
</g>
<g id="clust9" class="cluster">
<title>cluster_\Firesphere\SolrCompatibility\Extensions</title>
<path fill="none" stroke="#c0c0c0" d="M841.2549,-176.5623C841.2549,-176.5623 1012.2549,-176.5623 1012.2549,-176.5623 1018.2549,-176.5623 1024.2549,-182.5623 1024.2549,-188.5623 1024.2549,-188.5623 1024.2549,-290.5623 1024.2549,-290.5623 1024.2549,-296.5623 1018.2549,-302.5623 1012.2549,-302.5623 1012.2549,-302.5623 841.2549,-302.5623 841.2549,-302.5623 835.2549,-302.5623 829.2549,-296.5623 829.2549,-290.5623 829.2549,-290.5623 829.2549,-188.5623 829.2549,-188.5623 829.2549,-182.5623 835.2549,-176.5623 841.2549,-176.5623"/>
<text text-anchor="middle" x="926.7549" y="-289.7623" font-family="Times,serif" font-size="11.00" fill="#c0c0c0">Extensions</text>
</g>
<g id="clust10" class="cluster">
<title>cluster_\Firesphere\SolrSearch</title>
<path fill="none" stroke="#c0c0c0" d="M181.1275,-172.5623C181.1275,-172.5623 769.2549,-172.5623 769.2549,-172.5623 775.2549,-172.5623 781.2549,-178.5623 781.2549,-184.5623 781.2549,-184.5623 781.2549,-3008.5623 781.2549,-3008.5623 781.2549,-3014.5623 775.2549,-3020.5623 769.2549,-3020.5623 769.2549,-3020.5623 181.1275,-3020.5623 181.1275,-3020.5623 175.1275,-3020.5623 169.1275,-3014.5623 169.1275,-3008.5623 169.1275,-3008.5623 169.1275,-184.5623 169.1275,-184.5623 169.1275,-178.5623 175.1275,-172.5623 181.1275,-172.5623"/>
<text text-anchor="middle" x="475.1912" y="-3007.7623" font-family="Times,serif" font-size="11.00" fill="#c0c0c0">SolrSearch</text>
</g>
<g id="clust11" class="cluster">
<title>cluster_\Firesphere\SolrSearch\Models</title>
<path fill="none" stroke="#c0c0c0" d="M624.7549,-2624.5623C624.7549,-2624.5623 720.7549,-2624.5623 720.7549,-2624.5623 726.7549,-2624.5623 732.7549,-2630.5623 732.7549,-2636.5623 732.7549,-2636.5623 732.7549,-2792.5623 732.7549,-2792.5623 732.7549,-2798.5623 726.7549,-2804.5623 720.7549,-2804.5623 720.7549,-2804.5623 624.7549,-2804.5623 624.7549,-2804.5623 618.7549,-2804.5623 612.7549,-2798.5623 612.7549,-2792.5623 612.7549,-2792.5623 612.7549,-2636.5623 612.7549,-2636.5623 612.7549,-2630.5623 618.7549,-2624.5623 624.7549,-2624.5623"/>
<text text-anchor="middle" x="672.7549" y="-2791.7623" font-family="Times,serif" font-size="11.00" fill="#c0c0c0">Models</text>
</g>
<g id="clust12" class="cluster">
<title>cluster_\Firesphere\SolrSearch\Factories</title>
<path fill="none" stroke="#c0c0c0" d="M597.7549,-2812.5623C597.7549,-2812.5623 747.7549,-2812.5623 747.7549,-2812.5623 753.7549,-2812.5623 759.7549,-2818.5623 759.7549,-2824.5623 759.7549,-2824.5623 759.7549,-2980.5623 759.7549,-2980.5623 759.7549,-2986.5623 753.7549,-2992.5623 747.7549,-2992.5623 747.7549,-2992.5623 597.7549,-2992.5623 597.7549,-2992.5623 591.7549,-2992.5623 585.7549,-2986.5623 585.7549,-2980.5623 585.7549,-2980.5623 585.7549,-2824.5623 585.7549,-2824.5623 585.7549,-2818.5623 591.7549,-2812.5623 597.7549,-2812.5623"/>
<text text-anchor="middle" x="672.7549" y="-2979.7623" font-family="Times,serif" font-size="11.00" fill="#c0c0c0">Factories</text>
</g>
<g id="clust13" class="cluster">
<title>cluster_\Firesphere\SolrSearch\Interfaces</title>
<path fill="none" stroke="#c0c0c0" d="M189.1275,-1096.5623C189.1275,-1096.5623 319.1275,-1096.5623 319.1275,-1096.5623 325.1275,-1096.5623 331.1275,-1102.5623 331.1275,-1108.5623 331.1275,-1108.5623 331.1275,-1210.5623 331.1275,-1210.5623 331.1275,-1216.5623 325.1275,-1222.5623 319.1275,-1222.5623 319.1275,-1222.5623 189.1275,-1222.5623 189.1275,-1222.5623 183.1275,-1222.5623 177.1275,-1216.5623 177.1275,-1210.5623 177.1275,-1210.5623 177.1275,-1108.5623 177.1275,-1108.5623 177.1275,-1102.5623 183.1275,-1096.5623 189.1275,-1096.5623"/>
<text text-anchor="middle" x="254.1275" y="-1209.7623" font-family="Times,serif" font-size="11.00" fill="#c0c0c0">Interfaces</text>
</g>
<g id="clust14" class="cluster">
<title>cluster_\Firesphere\SolrSearch\Queries</title>
<path fill="none" stroke="#c0c0c0" d="M638.2549,-2544.5623C638.2549,-2544.5623 707.2549,-2544.5623 707.2549,-2544.5623 713.2549,-2544.5623 719.2549,-2550.5623 719.2549,-2556.5623 719.2549,-2556.5623 719.2549,-2604.5623 719.2549,-2604.5623 719.2549,-2610.5623 713.2549,-2616.5623 707.2549,-2616.5623 707.2549,-2616.5623 638.2549,-2616.5623 638.2549,-2616.5623 632.2549,-2616.5623 626.2549,-2610.5623 626.2549,-2604.5623 626.2549,-2604.5623 626.2549,-2556.5623 626.2549,-2556.5623 626.2549,-2550.5623 632.2549,-2544.5623 638.2549,-2544.5623"/>
<text text-anchor="middle" x="672.7549" y="-2603.7623" font-family="Times,serif" font-size="11.00" fill="#c0c0c0">Queries</text>
</g>
<g id="clust15" class="cluster">
<title>cluster_\Firesphere\SolrSearch\Services</title>
<path fill="none" stroke="#c0c0c0" d="M617.7549,-2464.5623C617.7549,-2464.5623 727.7549,-2464.5623 727.7549,-2464.5623 733.7549,-2464.5623 739.7549,-2470.5623 739.7549,-2476.5623 739.7549,-2476.5623 739.7549,-2524.5623 739.7549,-2524.5623 739.7549,-2530.5623 733.7549,-2536.5623 727.7549,-2536.5623 727.7549,-2536.5623 617.7549,-2536.5623 617.7549,-2536.5623 611.7549,-2536.5623 605.7549,-2530.5623 605.7549,-2524.5623 605.7549,-2524.5623 605.7549,-2476.5623 605.7549,-2476.5623 605.7549,-2470.5623 611.7549,-2464.5623 617.7549,-2464.5623"/>
<text text-anchor="middle" x="672.7549" y="-2523.7623" font-family="Times,serif" font-size="11.00" fill="#c0c0c0">Services</text>
</g>
<g id="clust16" class="cluster">
<title>cluster_\Firesphere\SolrSearch\Forms</title>
<path fill="none" stroke="#c0c0c0" d="M634.7549,-2304.5623C634.7549,-2304.5623 710.7549,-2304.5623 710.7549,-2304.5623 716.7549,-2304.5623 722.7549,-2310.5623 722.7549,-2316.5623 722.7549,-2316.5623 722.7549,-2364.5623 722.7549,-2364.5623 722.7549,-2370.5623 716.7549,-2376.5623 710.7549,-2376.5623 710.7549,-2376.5623 634.7549,-2376.5623 634.7549,-2376.5623 628.7549,-2376.5623 622.7549,-2370.5623 622.7549,-2364.5623 622.7549,-2364.5623 622.7549,-2316.5623 622.7549,-2316.5623 622.7549,-2310.5623 628.7549,-2304.5623 634.7549,-2304.5623"/>
<text text-anchor="middle" x="672.7549" y="-2363.7623" font-family="Times,serif" font-size="11.00" fill="#c0c0c0">Forms</text>
</g>
<g id="clust17" class="cluster">
<title>cluster_\Firesphere\SolrSearch\Results</title>
<path fill="none" stroke="#c0c0c0" d="M627.7549,-2384.5623C627.7549,-2384.5623 717.7549,-2384.5623 717.7549,-2384.5623 723.7549,-2384.5623 729.7549,-2390.5623 729.7549,-2396.5623 729.7549,-2396.5623 729.7549,-2444.5623 729.7549,-2444.5623 729.7549,-2450.5623 723.7549,-2456.5623 717.7549,-2456.5623 717.7549,-2456.5623 627.7549,-2456.5623 627.7549,-2456.5623 621.7549,-2456.5623 615.7549,-2450.5623 615.7549,-2444.5623 615.7549,-2444.5623 615.7549,-2396.5623 615.7549,-2396.5623 615.7549,-2390.5623 621.7549,-2384.5623 627.7549,-2384.5623"/>
<text text-anchor="middle" x="672.7549" y="-2443.7623" font-family="Times,serif" font-size="11.00" fill="#c0c0c0">Results</text>
</g>
<g id="clust18" class="cluster">
<title>cluster_\Firesphere\SolrSearch\Admins</title>
<path fill="none" stroke="#c0c0c0" d="M631.2549,-2224.5623C631.2549,-2224.5623 714.2549,-2224.5623 714.2549,-2224.5623 720.2549,-2224.5623 726.2549,-2230.5623 726.2549,-2236.5623 726.2549,-2236.5623 726.2549,-2284.5623 726.2549,-2284.5623 726.2549,-2290.5623 720.2549,-2296.5623 714.2549,-2296.5623 714.2549,-2296.5623 631.2549,-2296.5623 631.2549,-2296.5623 625.2549,-2296.5623 619.2549,-2290.5623 619.2549,-2284.5623 619.2549,-2284.5623 619.2549,-2236.5623 619.2549,-2236.5623 619.2549,-2230.5623 625.2549,-2224.5623 631.2549,-2224.5623"/>
<text text-anchor="middle" x="672.7549" y="-2283.7623" font-family="Times,serif" font-size="11.00" fill="#c0c0c0">Admins</text>
</g>
<g id="clust19" class="cluster">
<title>cluster_\Firesphere\SolrSearch\Jobs</title>
<path fill="none" stroke="#c0c0c0" d="M600.7549,-2036.5623C600.7549,-2036.5623 744.7549,-2036.5623 744.7549,-2036.5623 750.7549,-2036.5623 756.7549,-2042.5623 756.7549,-2048.5623 756.7549,-2048.5623 756.7549,-2204.5623 756.7549,-2204.5623 756.7549,-2210.5623 750.7549,-2216.5623 744.7549,-2216.5623 744.7549,-2216.5623 600.7549,-2216.5623 600.7549,-2216.5623 594.7549,-2216.5623 588.7549,-2210.5623 588.7549,-2204.5623 588.7549,-2204.5623 588.7549,-2048.5623 588.7549,-2048.5623 588.7549,-2042.5623 594.7549,-2036.5623 600.7549,-2036.5623"/>
<text text-anchor="middle" x="672.7549" y="-2203.7623" font-family="Times,serif" font-size="11.00" fill="#c0c0c0">Jobs</text>
</g>
<g id="clust20" class="cluster">
<title>cluster_\Firesphere\SolrSearch\Helpers</title>
<path fill="none" stroke="#c0c0c0" d="M624.7549,-1740.5623C624.7549,-1740.5623 720.7549,-1740.5623 720.7549,-1740.5623 726.7549,-1740.5623 732.7549,-1746.5623 732.7549,-1752.5623 732.7549,-1752.5623 732.7549,-2016.5623 732.7549,-2016.5623 732.7549,-2022.5623 726.7549,-2028.5623 720.7549,-2028.5623 720.7549,-2028.5623 624.7549,-2028.5623 624.7549,-2028.5623 618.7549,-2028.5623 612.7549,-2022.5623 612.7549,-2016.5623 612.7549,-2016.5623 612.7549,-1752.5623 612.7549,-1752.5623 612.7549,-1746.5623 618.7549,-1740.5623 624.7549,-1740.5623"/>
<text text-anchor="middle" x="672.7549" y="-2015.7623" font-family="Times,serif" font-size="11.00" fill="#c0c0c0">Helpers</text>
</g>
<g id="clust21" class="cluster">
<title>cluster_\Firesphere\SolrSearch\Tasks</title>
<path fill="none" stroke="#c0c0c0" d="M597.7549,-1498.5623C597.7549,-1498.5623 747.7549,-1498.5623 747.7549,-1498.5623 753.7549,-1498.5623 759.7549,-1504.5623 759.7549,-1510.5623 759.7549,-1510.5623 759.7549,-1720.5623 759.7549,-1720.5623 759.7549,-1726.5623 753.7549,-1732.5623 747.7549,-1732.5623 747.7549,-1732.5623 597.7549,-1732.5623 597.7549,-1732.5623 591.7549,-1732.5623 585.7549,-1726.5623 585.7549,-1720.5623 585.7549,-1720.5623 585.7549,-1510.5623 585.7549,-1510.5623 585.7549,-1504.5623 591.7549,-1498.5623 597.7549,-1498.5623"/>
<text text-anchor="middle" x="672.7549" y="-1719.7623" font-family="Times,serif" font-size="11.00" fill="#c0c0c0">Tasks</text>
</g>
<g id="clust22" class="cluster">
<title>cluster_\Firesphere\SolrSearch\Extensions</title>
<path fill="none" stroke="#c0c0c0" d="M604.2549,-1364.5623C604.2549,-1364.5623 741.2549,-1364.5623 741.2549,-1364.5623 747.2549,-1364.5623 753.2549,-1370.5623 753.2549,-1376.5623 753.2549,-1376.5623 753.2549,-1478.5623 753.2549,-1478.5623 753.2549,-1484.5623 747.2549,-1490.5623 741.2549,-1490.5623 741.2549,-1490.5623 604.2549,-1490.5623 604.2549,-1490.5623 598.2549,-1490.5623 592.2549,-1484.5623 592.2549,-1478.5623 592.2549,-1478.5623 592.2549,-1376.5623 592.2549,-1376.5623 592.2549,-1370.5623 598.2549,-1364.5623 604.2549,-1364.5623"/>
<text text-anchor="middle" x="672.7549" y="-1477.7623" font-family="Times,serif" font-size="11.00" fill="#c0c0c0">Extensions</text>
</g>
<g id="clust23" class="cluster">
<title>cluster_\Firesphere\SolrSearch\States</title>
<path fill="none" stroke="#c0c0c0" d="M634.7549,-1284.5623C634.7549,-1284.5623 710.7549,-1284.5623 710.7549,-1284.5623 716.7549,-1284.5623 722.7549,-1290.5623 722.7549,-1296.5623 722.7549,-1296.5623 722.7549,-1344.5623 722.7549,-1344.5623 722.7549,-1350.5623 716.7549,-1356.5623 710.7549,-1356.5623 710.7549,-1356.5623 634.7549,-1356.5623 634.7549,-1356.5623 628.7549,-1356.5623 622.7549,-1350.5623 622.7549,-1344.5623 622.7549,-1344.5623 622.7549,-1296.5623 622.7549,-1296.5623 622.7549,-1290.5623 628.7549,-1284.5623 634.7549,-1284.5623"/>
<text text-anchor="middle" x="672.7549" y="-1343.7623" font-family="Times,serif" font-size="11.00" fill="#c0c0c0">States</text>
</g>
<g id="clust24" class="cluster">
<title>cluster_\Firesphere\SolrSearch\Stores</title>
<path fill="none" stroke="#c0c0c0" d="M617.7549,-1150.5623C617.7549,-1150.5623 727.7549,-1150.5623 727.7549,-1150.5623 733.7549,-1150.5623 739.7549,-1156.5623 739.7549,-1162.5623 739.7549,-1162.5623 739.7549,-1264.5623 739.7549,-1264.5623 739.7549,-1270.5623 733.7549,-1276.5623 727.7549,-1276.5623 727.7549,-1276.5623 617.7549,-1276.5623 617.7549,-1276.5623 611.7549,-1276.5623 605.7549,-1270.5623 605.7549,-1264.5623 605.7549,-1264.5623 605.7549,-1162.5623 605.7549,-1162.5623 605.7549,-1156.5623 611.7549,-1150.5623 617.7549,-1150.5623"/>
<text text-anchor="middle" x="672.7549" y="-1263.7623" font-family="Times,serif" font-size="11.00" fill="#c0c0c0">Stores</text>
</g>
<g id="clust25" class="cluster">
<title>cluster_\Firesphere\SolrSearch\Traits</title>
<path fill="none" stroke="#c0c0c0" d="M584.2549,-260.5623C584.2549,-260.5623 761.2549,-260.5623 761.2549,-260.5623 767.2549,-260.5623 773.2549,-266.5623 773.2549,-272.5623 773.2549,-272.5623 773.2549,-1130.5623 773.2549,-1130.5623 773.2549,-1136.5623 767.2549,-1142.5623 761.2549,-1142.5623 761.2549,-1142.5623 584.2549,-1142.5623 584.2549,-1142.5623 578.2549,-1142.5623 572.2549,-1136.5623 572.2549,-1130.5623 572.2549,-1130.5623 572.2549,-272.5623 572.2549,-272.5623 572.2549,-266.5623 578.2549,-260.5623 584.2549,-260.5623"/>
<text text-anchor="middle" x="672.7549" y="-1129.7623" font-family="Times,serif" font-size="11.00" fill="#c0c0c0">Traits</text>
</g>
<g id="clust26" class="cluster">
<title>cluster_\Firesphere\SolrSearch\Indexes</title>
<path fill="none" stroke="#c0c0c0" d="M634.7549,-180.5623C634.7549,-180.5623 710.7549,-180.5623 710.7549,-180.5623 716.7549,-180.5623 722.7549,-186.5623 722.7549,-192.5623 722.7549,-192.5623 722.7549,-240.5623 722.7549,-240.5623 722.7549,-246.5623 716.7549,-252.5623 710.7549,-252.5623 710.7549,-252.5623 634.7549,-252.5623 634.7549,-252.5623 628.7549,-252.5623 622.7549,-246.5623 622.7549,-240.5623 622.7549,-240.5623 622.7549,-192.5623 622.7549,-192.5623 622.7549,-186.5623 628.7549,-180.5623 634.7549,-180.5623"/>
<text text-anchor="middle" x="672.7549" y="-239.7623" font-family="Times,serif" font-size="11.00" fill="#c0c0c0">Indexes</text>
</g>
<g id="clust27" class="cluster">
<title>cluster_\Firesphere\SolrFluent</title>
<path fill="none" stroke="#c0c0c0" d="M836.7549,-616.5623C836.7549,-616.5623 1016.7549,-616.5623 1016.7549,-616.5623 1022.7549,-616.5623 1028.7549,-622.5623 1028.7549,-628.5623 1028.7549,-628.5623 1028.7549,-900.5623 1028.7549,-900.5623 1028.7549,-906.5623 1022.7549,-912.5623 1016.7549,-912.5623 1016.7549,-912.5623 836.7549,-912.5623 836.7549,-912.5623 830.7549,-912.5623 824.7549,-906.5623 824.7549,-900.5623 824.7549,-900.5623 824.7549,-628.5623 824.7549,-628.5623 824.7549,-622.5623 830.7549,-616.5623 836.7549,-616.5623"/>
<text text-anchor="middle" x="926.7549" y="-899.7623" font-family="Times,serif" font-size="11.00" fill="#c0c0c0">SolrFluent</text>
</g>
<g id="clust28" class="cluster">
<title>cluster_\Firesphere\SolrFluent\Extensions</title>
<path fill="none" stroke="#c0c0c0" d="M844.7549,-624.5623C844.7549,-624.5623 1008.7549,-624.5623 1008.7549,-624.5623 1014.7549,-624.5623 1020.7549,-630.5623 1020.7549,-636.5623 1020.7549,-636.5623 1020.7549,-792.5623 1020.7549,-792.5623 1020.7549,-798.5623 1014.7549,-804.5623 1008.7549,-804.5623 1008.7549,-804.5623 844.7549,-804.5623 844.7549,-804.5623 838.7549,-804.5623 832.7549,-798.5623 832.7549,-792.5623 832.7549,-792.5623 832.7549,-636.5623 832.7549,-636.5623 832.7549,-630.5623 838.7549,-624.5623 844.7549,-624.5623"/>
<text text-anchor="middle" x="926.7549" y="-791.7623" font-family="Times,serif" font-size="11.00" fill="#c0c0c0">Extensions</text>
</g>
<g id="clust29" class="cluster">
<title>cluster_\Firesphere\SolrFluent\States</title>
<path fill="none" stroke="#c0c0c0" d="M871.7549,-812.5623C871.7549,-812.5623 981.7549,-812.5623 981.7549,-812.5623 987.7549,-812.5623 993.7549,-818.5623 993.7549,-824.5623 993.7549,-824.5623 993.7549,-872.5623 993.7549,-872.5623 993.7549,-878.5623 987.7549,-884.5623 981.7549,-884.5623 981.7549,-884.5623 871.7549,-884.5623 871.7549,-884.5623 865.7549,-884.5623 859.7549,-878.5623 859.7549,-872.5623 859.7549,-872.5623 859.7549,-824.5623 859.7549,-824.5623 859.7549,-818.5623 865.7549,-812.5623 871.7549,-812.5623"/>
<text text-anchor="middle" x="926.7549" y="-871.7623" font-family="Times,serif" font-size="11.00" fill="#c0c0c0">States</text>
</g>
<g id="clust30" class="cluster">
<title>cluster_\Firesphere\SolrSubsites</title>
<path fill="none" stroke="#c0c0c0" d="M857.2549,-920.5623C857.2549,-920.5623 996.2549,-920.5623 996.2549,-920.5623 1002.2549,-920.5623 1008.2549,-926.5623 1008.2549,-932.5623 1008.2549,-932.5623 1008.2549,-1096.5623 1008.2549,-1096.5623 1008.2549,-1102.5623 1002.2549,-1108.5623 996.2549,-1108.5623 996.2549,-1108.5623 857.2549,-1108.5623 857.2549,-1108.5623 851.2549,-1108.5623 845.2549,-1102.5623 845.2549,-1096.5623 845.2549,-1096.5623 845.2549,-932.5623 845.2549,-932.5623 845.2549,-926.5623 851.2549,-920.5623 857.2549,-920.5623"/>
<text text-anchor="middle" x="926.7549" y="-1095.7623" font-family="Times,serif" font-size="11.00" fill="#c0c0c0">SolrSubsites</text>
</g>
<g id="clust31" class="cluster">
<title>cluster_\Firesphere\SolrSubsites\Extensions</title>
<path fill="none" stroke="#c0c0c0" d="M865.2549,-928.5623C865.2549,-928.5623 988.2549,-928.5623 988.2549,-928.5623 994.2549,-928.5623 1000.2549,-934.5623 1000.2549,-940.5623 1000.2549,-940.5623 1000.2549,-988.5623 1000.2549,-988.5623 1000.2549,-994.5623 994.2549,-1000.5623 988.2549,-1000.5623 988.2549,-1000.5623 865.2549,-1000.5623 865.2549,-1000.5623 859.2549,-1000.5623 853.2549,-994.5623 853.2549,-988.5623 853.2549,-988.5623 853.2549,-940.5623 853.2549,-940.5623 853.2549,-934.5623 859.2549,-928.5623 865.2549,-928.5623"/>
<text text-anchor="middle" x="926.7549" y="-987.7623" font-family="Times,serif" font-size="11.00" fill="#c0c0c0">Extensions</text>
</g>
<g id="clust32" class="cluster">
<title>cluster_\Firesphere\SolrSubsites\States</title>
<path fill="none" stroke="#c0c0c0" d="M881.7549,-1008.5623C881.7549,-1008.5623 971.7549,-1008.5623 971.7549,-1008.5623 977.7549,-1008.5623 983.7549,-1014.5623 983.7549,-1020.5623 983.7549,-1020.5623 983.7549,-1068.5623 983.7549,-1068.5623 983.7549,-1074.5623 977.7549,-1080.5623 971.7549,-1080.5623 971.7549,-1080.5623 881.7549,-1080.5623 881.7549,-1080.5623 875.7549,-1080.5623 869.7549,-1074.5623 869.7549,-1068.5623 869.7549,-1068.5623 869.7549,-1020.5623 869.7549,-1020.5623 869.7549,-1014.5623 875.7549,-1008.5623 881.7549,-1008.5623"/>
<text text-anchor="middle" x="926.7549" y="-1067.7623" font-family="Times,serif" font-size="11.00" fill="#c0c0c0">States</text>
</g>
<g id="clust33" class="cluster">
<title>cluster_\Firesphere\SolrPermissions</title>
<path fill="none" stroke="#c0c0c0" d="M833.2549,-338.5623C833.2549,-338.5623 1020.2549,-338.5623 1020.2549,-338.5623 1026.2549,-338.5623 1032.2549,-344.5623 1032.2549,-350.5623 1032.2549,-350.5623 1032.2549,-596.5623 1032.2549,-596.5623 1032.2549,-602.5623 1026.2549,-608.5623 1020.2549,-608.5623 1020.2549,-608.5623 833.2549,-608.5623 833.2549,-608.5623 827.2549,-608.5623 821.2549,-602.5623 821.2549,-596.5623 821.2549,-596.5623 821.2549,-350.5623 821.2549,-350.5623 821.2549,-344.5623 827.2549,-338.5623 833.2549,-338.5623"/>
<text text-anchor="middle" x="926.7549" y="-595.7623" font-family="Times,serif" font-size="11.00" fill="#c0c0c0">SolrPermissions</text>
</g>
<g id="clust34" class="cluster">
<title>cluster_\Firesphere\SolrPermissions\Extensions</title>
<path fill="none" stroke="#c0c0c0" d="M841.2549,-346.5623C841.2549,-346.5623 1012.2549,-346.5623 1012.2549,-346.5623 1018.2549,-346.5623 1024.2549,-352.5623 1024.2549,-358.5623 1024.2549,-358.5623 1024.2549,-568.5623 1024.2549,-568.5623 1024.2549,-574.5623 1018.2549,-580.5623 1012.2549,-580.5623 1012.2549,-580.5623 841.2549,-580.5623 841.2549,-580.5623 835.2549,-580.5623 829.2549,-574.5623 829.2549,-568.5623 829.2549,-568.5623 829.2549,-358.5623 829.2549,-358.5623 829.2549,-352.5623 835.2549,-346.5623 841.2549,-346.5623"/>
<text text-anchor="middle" x="926.7549" y="-567.7623" font-family="Times,serif" font-size="11.00" fill="#c0c0c0">Extensions</text>
</g>
<!-- \\SilverStripe\\FullTextSearch\\Solr\\SolrIndex -->
<g id="node1" class="node">
<title>\\SilverStripe\\FullTextSearch\\Solr\\SolrIndex</title>
<polygon fill="none" stroke="#000000" points="968.7549,-3286.5623 884.7549,-3286.5623 884.7549,-3250.5623 968.7549,-3250.5623 968.7549,-3286.5623"/>
<text text-anchor="start" x="892.7549" y="-3271.7623" font-family="Courier,monospace" font-size="11.00" fill="#000000">«abstract»</text>
<text text-anchor="start" x="896.2549" y="-3259.7623" font-family="Courier,monospace" font-size="11.00" fill="#000000">SolrIndex</text>
</g>
<!-- \\Firesphere\\SolrSearch\\Indexes\\BaseIndex -->
<g id="node52" class="node">
<title>\\Firesphere\\SolrSearch\\Indexes\\BaseIndex</title>
<polygon fill="none" stroke="#000000" points="714.7549,-224.5623 630.7549,-224.5623 630.7549,-188.5623 714.7549,-188.5623 714.7549,-224.5623"/>
<text text-anchor="start" x="638.7549" y="-209.7623" font-family="Courier,monospace" font-size="11.00" fill="#000000">«abstract»</text>
<text text-anchor="start" x="642.2549" y="-197.7623" font-family="Courier,monospace" font-size="11.00" fill="#000000">BaseIndex</text>
</g>
<!-- \\SilverStripe\\FullTextSearch\\Solr\\SolrIndex&#45;&gt;\\Firesphere\\SolrSearch\\Indexes\\BaseIndex -->
<g id="edge1" class="edge">
<title>\\SilverStripe\\FullTextSearch\\Solr\\SolrIndex&#45;&gt;\\Firesphere\\SolrSearch\\Indexes\\BaseIndex</title>
<path fill="none" stroke="#000000" d="M884.6994,-3269.2767C862.1861,-3267.2222 836.1055,-3260.4299 821.2549,-3241.5623 718.6788,-3111.2405 871.614,-395.6337 781.2549,-256.5623 768.4667,-236.88 745.7819,-224.8284 724.4494,-217.5072"/>
<polygon fill="none" stroke="#000000" points="725.373,-214.1287 714.7835,-214.4659 723.272,-220.806 725.373,-214.1287"/>
</g>
<!-- \\SilverStripe\\FullTextSearch\\Solr\\Solr -->
<g id="node2" class="node">
<title>\\SilverStripe\\FullTextSearch\\Solr\\Solr</title>
<polygon fill="none" stroke="#000000" points="953.7549,-3232.5623 899.7549,-3232.5623 899.7549,-3196.5623 953.7549,-3196.5623 953.7549,-3232.5623"/>
<text text-anchor="middle" x="926.7549" y="-3211.7623" font-family="Courier,monospace" font-size="11.00" fill="#000000">Solr</text>
</g>
<!-- \\SilverStripe\\FullTextSearch\\Search\\Queries\\SearchQuery -->
<g id="node3" class="node">
<title>\\SilverStripe\\FullTextSearch\\Search\\Queries\\SearchQuery</title>
<polygon fill="none" stroke="#000000" points="972.2549,-3124.5623 881.2549,-3124.5623 881.2549,-3088.5623 972.2549,-3088.5623 972.2549,-3124.5623"/>
<text text-anchor="middle" x="926.7549" y="-3103.7623" font-family="Courier,monospace" font-size="11.00" fill="#000000">SearchQuery</text>
</g>
<!-- \\Firesphere\\SolrSearch\\Queries\\BaseQuery -->
<g id="node14" class="node">
<title>\\Firesphere\\SolrSearch\\Queries\\BaseQuery</title>
<polygon fill="none" stroke="#000000" points="711.2549,-2588.5623 634.2549,-2588.5623 634.2549,-2552.5623 711.2549,-2552.5623 711.2549,-2588.5623"/>
<text text-anchor="middle" x="672.7549" y="-2567.7623" font-family="Courier,monospace" font-size="11.00" fill="#000000">BaseQuery</text>
</g>
<!-- \\SilverStripe\\FullTextSearch\\Search\\Queries\\SearchQuery&#45;&gt;\\Firesphere\\SolrSearch\\Queries\\BaseQuery -->
<g id="edge2" class="edge">
<title>\\SilverStripe\\FullTextSearch\\Search\\Queries\\SearchQuery&#45;&gt;\\Firesphere\\SolrSearch\\Queries\\BaseQuery</title>
<path fill="none" stroke="#000000" d="M923.3848,-3088.3808C908.3991,-3009.1636 845.7061,-2694.8028 781.2549,-2620.5623 765.5728,-2602.4982 741.9981,-2590.5621 720.8257,-2582.8989"/>
<polygon fill="none" stroke="#000000" points="721.8981,-2579.5669 711.3038,-2579.6719 719.6513,-2586.1965 721.8981,-2579.5669"/>
</g>
<!-- \\Firesphere\\SolrCompatibility\\Extensions\\FulltextSearchExtension -->
<g id="node4" class="node">
<title>\\Firesphere\\SolrCompatibility\\Extensions\\FulltextSearchExtension</title>
<polygon fill="none" stroke="#000000" points="1012.7549,-274.5623 840.7549,-274.5623 840.7549,-238.5623 1012.7549,-238.5623 1012.7549,-274.5623"/>
<text text-anchor="middle" x="926.7549" y="-253.7623" font-family="Courier,monospace" font-size="11.00" fill="#000000">FulltextSearchExtension</text>
</g>
<!-- \\SilverStripe\\Core\\Extension -->
<g id="node63" class="node">
<title>\\SilverStripe\\Core\\Extension</title>
<ellipse fill="none" stroke="#000000" cx="254.1275" cy="-18.5623" rx="144.0747" ry="18"/>
<text text-anchor="middle" x="254.1275" y="-14.8623" font-family="Times,serif" font-size="14.00" fill="#c0c0c0">\SilverStripe\Core\Extension</text>
</g>
<!-- \\Firesphere\\SolrCompatibility\\Extensions\\FulltextSearchExtension&#45;&gt;\\SilverStripe\\Core\\Extension -->
<g id="edge3" class="edge">
<title>\\Firesphere\\SolrCompatibility\\Extensions\\FulltextSearchExtension&#45;&gt;\\SilverStripe\\Core\\Extension</title>
<path fill="none" stroke="#000000" d="M840.5088,-242.9939C833.4442,-239.448 826.8743,-235.0381 821.2549,-229.5623 774.6022,-184.1015 828.6481,-133.2506 781.2549,-88.5623 745.3221,-54.6802 716.6848,-87.1305 672.7549,-64.5623"/>
</g>
<!-- \\Firesphere\\SolrCompatibility\\Extensions\\SolrCoreServiceExtension -->
<g id="node5" class="node">
<title>\\Firesphere\\SolrCompatibility\\Extensions\\SolrCoreServiceExtension</title>
<polygon fill="none" stroke="#000000" points="1016.2549,-220.5623 837.2549,-220.5623 837.2549,-184.5623 1016.2549,-184.5623 1016.2549,-220.5623"/>
<text text-anchor="middle" x="926.7549" y="-199.7623" font-family="Courier,monospace" font-size="11.00" fill="#000000">SolrCoreServiceExtension</text>
</g>
<!-- \\Firesphere\\SolrCompatibility\\Extensions\\SolrCoreServiceExtension&#45;&gt;\\SilverStripe\\Core\\Extension -->
<g id="edge4" class="edge">
<title>\\Firesphere\\SolrCompatibility\\Extensions\\SolrCoreServiceExtension&#45;&gt;\\SilverStripe\\Core\\Extension</title>
<path fill="none" stroke="#000000" d="M909.2812,-184.4826C883.6376,-159.0518 833.1975,-113.0887 781.2549,-88.5623 736.5953,-67.4748 716.6848,-87.1305 672.7549,-64.5623"/>
<path fill="none" stroke="#000000" d="M672.7549,-64.5623C585.4855,-19.7292 474.685,-9.2577 388.9993,-9.4432"/>
<polygon fill="none" stroke="#000000" points="388.9177,-5.9436 378.9425,-9.5139 388.9669,-12.9434 388.9177,-5.9436"/>
</g>
<!-- \\Firesphere\\SolrSearch\\Models\\SolrLog -->
<g id="node6" class="node">
<title>\\Firesphere\\SolrSearch\\Models\\SolrLog</title>
<polygon fill="none" stroke="#000000" points="704.7549,-2776.5623 640.7549,-2776.5623 640.7549,-2740.5623 704.7549,-2740.5623 704.7549,-2776.5623"/>
<text text-anchor="middle" x="672.7549" y="-2755.7623" font-family="Courier,monospace" font-size="11.00" fill="#000000">SolrLog</text>
</g>
<!-- \\SilverStripe\\ORM\\DataObject -->
<g id="node64" class="node">
<title>\\SilverStripe\\ORM\\DataObject</title>
<ellipse fill="none" stroke="#000000" cx="254.1275" cy="-126.5623" rx="152.9733" ry="18"/>
<text text-anchor="middle" x="254.1275" y="-122.8623" font-family="Times,serif" font-size="14.00" fill="#c0c0c0">\SilverStripe\ORM\DataObject</text>
</g>
<!-- \\Firesphere\\SolrSearch\\Models\\SolrLog&#45;&gt;\\SilverStripe\\ORM\\DataObject -->
<g id="edge5" class="edge">
<title>\\Firesphere\\SolrSearch\\Models\\SolrLog&#45;&gt;\\SilverStripe\\ORM\\DataObject</title>
<path fill="none" stroke="#000000" d="M640.7186,-2759.2265C617.8426,-2757.8119 588.3727,-2751.7533 572.2549,-2731.5623 515.4049,-2660.3454 521.7045,-1182.6892 508.2549,-1092.5623 451.6648,-713.346 303.2672,-268.6074 263.8548,-154.3873"/>
<polygon fill="none" stroke="#000000" points="267.0687,-152.972 260.4884,-144.6684 260.4542,-155.2632 267.0687,-152.972"/>
</g>
<!-- \\SilverStripe\\Security\\PermissionProvider -->
<g id="node65" class="node">
<title>\\SilverStripe\\Security\\PermissionProvider</title>
<ellipse fill="none" stroke="#000000" cx="254.1275" cy="-3694.5623" rx="206.0634" ry="18"/>
<text text-anchor="middle" x="254.1275" y="-3690.8623" font-family="Times,serif" font-size="14.00" fill="#c0c0c0">\SilverStripe\Security\PermissionProvider</text>
</g>
<!-- \\Firesphere\\SolrSearch\\Models\\SolrLog&#45;&gt;\\SilverStripe\\Security\\PermissionProvider -->
<g id="edge6" class="edge">
<title>\\Firesphere\\SolrSearch\\Models\\SolrLog&#45;&gt;\\SilverStripe\\Security\\PermissionProvider</title>
<path fill="none" stroke="#000000" stroke-dasharray="1,5" d="M640.3839,-2765.6684C617.3371,-2772.5421 587.8001,-2785.433 572.2549,-2808.5623 465.4785,-2967.4322 641.4606,-3530.0957 508.2549,-3667.5623 468.8073,-3708.2717 405.4356,-3715.0716 351.846,-3711.6692"/>
<polygon fill="none" stroke="#000000" points="351.8523,-3708.1596 341.6155,-3710.8906 351.321,-3715.1395 351.8523,-3708.1596"/>
</g>
<!-- \\Firesphere\\SolrSearch\\Models\\SearchSynonym -->
<g id="node7" class="node">
<title>\\Firesphere\\SolrSearch\\Models\\SearchSynonym</title>
<polygon fill="none" stroke="#000000" points="724.7549,-2722.5623 620.7549,-2722.5623 620.7549,-2686.5623 724.7549,-2686.5623 724.7549,-2722.5623"/>
<text text-anchor="middle" x="672.7549" y="-2701.7623" font-family="Courier,monospace" font-size="11.00" fill="#000000">SearchSynonym</text>
</g>
<!-- \\Firesphere\\SolrSearch\\Models\\SearchSynonym&#45;&gt;\\SilverStripe\\ORM\\DataObject -->
<g id="edge7" class="edge">
<title>\\Firesphere\\SolrSearch\\Models\\SearchSynonym&#45;&gt;\\SilverStripe\\ORM\\DataObject</title>
<path fill="none" stroke="#000000" d="M620.6833,-2702.783C602.5923,-2699.3773 583.9303,-2692.1683 572.2549,-2677.5623 462.2038,-2539.8872 534.3849,-1266.8692 508.2549,-1092.5623 451.413,-713.3837 303.1985,-268.6177 263.8408,-154.3894"/>
<polygon fill="none" stroke="#000000" points="267.0556,-152.9764 260.4791,-144.6698 260.4401,-155.2646 267.0556,-152.9764"/>
</g>
<!-- \\Firesphere\\SolrSearch\\Models\\DirtyClass -->
<g id="node8" class="node">
<title>\\Firesphere\\SolrSearch\\Models\\DirtyClass</title>
<polygon fill="none" stroke="#000000" points="714.7549,-2668.5623 630.7549,-2668.5623 630.7549,-2632.5623 714.7549,-2632.5623 714.7549,-2668.5623"/>
<text text-anchor="middle" x="672.7549" y="-2647.7623" font-family="Courier,monospace" font-size="11.00" fill="#000000">DirtyClass</text>
</g>
<!-- \\Firesphere\\SolrSearch\\Models\\DirtyClass&#45;&gt;\\SilverStripe\\ORM\\DataObject -->
<g id="edge8" class="edge">
<title>\\Firesphere\\SolrSearch\\Models\\DirtyClass&#45;&gt;\\SilverStripe\\ORM\\DataObject</title>
<path fill="none" stroke="#000000" d="M630.6996,-2648.9964C609.7471,-2645.8538 586.0094,-2638.2378 572.2549,-2620.5623 467.8976,-2486.4555 533.5731,-1260.5922 508.2549,-1092.5623 451.1279,-713.4265 303.1208,-268.6294 263.8249,-154.3918"/>
<polygon fill="none" stroke="#000000" points="267.0407,-152.9814 260.4685,-144.6714 260.424,-155.2661 267.0407,-152.9814"/>
</g>
<!-- \\Firesphere\\SolrSearch\\Factories\\DocumentFactory -->
<g id="node9" class="node">
<title>\\Firesphere\\SolrSearch\\Factories\\DocumentFactory</title>
<polygon fill="none" stroke="#000000" points="731.7549,-2964.5623 613.7549,-2964.5623 613.7549,-2928.5623 731.7549,-2928.5623 731.7549,-2964.5623"/>
<text text-anchor="middle" x="672.7549" y="-2943.7623" font-family="Courier,monospace" font-size="11.00" fill="#000000">DocumentFactory</text>
</g>
<!-- \\Firesphere\\SolrSearch\\Factories\\SchemaFactory -->
<g id="node10" class="node">
<title>\\Firesphere\\SolrSearch\\Factories\\SchemaFactory</title>
<polygon fill="none" stroke="#000000" points="724.7549,-2910.5623 620.7549,-2910.5623 620.7549,-2874.5623 724.7549,-2874.5623 724.7549,-2910.5623"/>
<text text-anchor="middle" x="672.7549" y="-2889.7623" font-family="Courier,monospace" font-size="11.00" fill="#000000">SchemaFactory</text>
</g>
<!-- \\SilverStripe\\View\\ViewableData -->
<g id="node66" class="node">
<title>\\SilverStripe\\View\\ViewableData</title>
<ellipse fill="none" stroke="#000000" cx="254.1275" cy="-3640.5623" rx="163.2712" ry="18"/>
<text text-anchor="middle" x="254.1275" y="-3636.8623" font-family="Times,serif" font-size="14.00" fill="#c0c0c0">\SilverStripe\View\ViewableData</text>
</g>
<!-- \\Firesphere\\SolrSearch\\Factories\\SchemaFactory&#45;&gt;\\SilverStripe\\View\\ViewableData -->
<g id="edge9" class="edge">
<title>\\Firesphere\\SolrSearch\\Factories\\SchemaFactory&#45;&gt;\\SilverStripe\\View\\ViewableData</title>
<path fill="none" stroke="#000000" d="M620.5571,-2894.7683C602.6753,-2898.2507 584.1868,-2905.4005 572.2549,-2919.5623 472.4631,-3038.0037 617.006,-3503.2901 508.2549,-3613.5623 467.0482,-3655.3453 400.5832,-3661.1599 345.9604,-3657.0197"/>
<polygon fill="none" stroke="#000000" points="346.1755,-3653.5252 335.9077,-3656.1372 345.5633,-3660.4984 346.1755,-3653.5252"/>
</g>
<!-- \\Firesphere\\SolrSearch\\Factories\\QueryComponentFactory -->
<g id="node11" class="node">
<title>\\Firesphere\\SolrSearch\\Factories\\QueryComponentFactory</title>
<polygon fill="none" stroke="#000000" points="751.7549,-2856.5623 593.7549,-2856.5623 593.7549,-2820.5623 751.7549,-2820.5623 751.7549,-2856.5623"/>
<text text-anchor="middle" x="672.7549" y="-2835.7623" font-family="Courier,monospace" font-size="11.00" fill="#000000">QueryComponentFactory</text>
</g>
<!-- \\Firesphere\\SolrSearch\\Interfaces\\ConfigStore -->
<g id="node12" class="node">
<title>\\Firesphere\\SolrSearch\\Interfaces\\ConfigStore</title>
<polygon fill="none" stroke="#000000" points="299.6275,-1194.5623 208.6275,-1194.5623 208.6275,-1158.5623 299.6275,-1158.5623 299.6275,-1194.5623"/>
<text text-anchor="middle" x="254.1275" y="-1173.7623" font-family="Courier,monospace" font-size="11.00" fill="#000000">ConfigStore</text>
</g>
<!-- \\Firesphere\\SolrSearch\\Interfaces\\SiteStateInterface -->
<g id="node13" class="node">
<title>\\Firesphere\\SolrSearch\\Interfaces\\SiteStateInterface</title>
<polygon fill="none" stroke="#000000" points="323.1275,-1140.5623 185.1275,-1140.5623 185.1275,-1104.5623 323.1275,-1104.5623 323.1275,-1140.5623"/>
<text text-anchor="middle" x="254.1275" y="-1119.7623" font-family="Courier,monospace" font-size="11.00" fill="#000000">SiteStateInterface</text>
</g>
<!-- \\Firesphere\\SolrSearch\\Services\\SolrCoreService -->
<g id="node15" class="node">
<title>\\Firesphere\\SolrSearch\\Services\\SolrCoreService</title>
<polygon fill="none" stroke="#000000" points="731.7549,-2508.5623 613.7549,-2508.5623 613.7549,-2472.5623 731.7549,-2472.5623 731.7549,-2508.5623"/>
<text text-anchor="middle" x="672.7549" y="-2487.7623" font-family="Courier,monospace" font-size="11.00" fill="#000000">SolrCoreService</text>
</g>
<!-- \\Firesphere\\SolrSearch\\Forms\\SearchForm -->
<g id="node16" class="node">
<title>\\Firesphere\\SolrSearch\\Forms\\SearchForm</title>
<polygon fill="none" stroke="#000000" points="714.7549,-2348.5623 630.7549,-2348.5623 630.7549,-2312.5623 714.7549,-2312.5623 714.7549,-2348.5623"/>
<text text-anchor="middle" x="672.7549" y="-2327.7623" font-family="Courier,monospace" font-size="11.00" fill="#000000">SearchForm</text>
</g>
<!-- \\SilverStripe\\Forms\\Form -->
<g id="node67" class="node">
<title>\\SilverStripe\\Forms\\Form</title>
<ellipse fill="none" stroke="#000000" cx="254.1275" cy="-3586.5623" rx="129.1772" ry="18"/>
<text text-anchor="middle" x="254.1275" y="-3582.8623" font-family="Times,serif" font-size="14.00" fill="#c0c0c0">\SilverStripe\Forms\Form</text>
</g>
<!-- \\Firesphere\\SolrSearch\\Forms\\SearchForm&#45;&gt;\\SilverStripe\\Forms\\Form -->
<g id="edge10" class="edge">
<title>\\Firesphere\\SolrSearch\\Forms\\SearchForm&#45;&gt;\\SilverStripe\\Forms\\Form</title>
<path fill="none" stroke="#000000" d="M630.7401,-2340.6294C609.5261,-2348.0095 585.532,-2360.3714 572.2549,-2380.5623 500.1732,-2490.1789 598.5974,-3464.4318 508.2549,-3559.5623 465.382,-3604.7073 393.1547,-3608.4729 336.6354,-3602.6585"/>
<polygon fill="none" stroke="#000000" points="336.9676,-3599.1737 326.6346,-3601.5144 336.172,-3606.1284 336.9676,-3599.1737"/>
</g>
<!-- \\Firesphere\\SolrSearch\\Results\\SearchResult -->
<g id="node17" class="node">
<title>\\Firesphere\\SolrSearch\\Results\\SearchResult</title>
<polygon fill="none" stroke="#000000" points="721.7549,-2428.5623 623.7549,-2428.5623 623.7549,-2392.5623 721.7549,-2392.5623 721.7549,-2428.5623"/>
<text text-anchor="middle" x="672.7549" y="-2407.7623" font-family="Courier,monospace" font-size="11.00" fill="#000000">SearchResult</text>
</g>
<!-- \\Firesphere\\SolrSearch\\Results\\SearchResult&#45;&gt;\\SilverStripe\\View\\ViewableData -->
<g id="edge11" class="edge">
<title>\\Firesphere\\SolrSearch\\Results\\SearchResult&#45;&gt;\\SilverStripe\\View\\ViewableData</title>
<path fill="none" stroke="#000000" d="M623.7406,-2423.2276C604.4411,-2430.8022 584.0975,-2442.5768 572.2549,-2460.5623 501.6927,-2567.7257 596.6678,-3520.5774 508.2549,-3613.5623 467.0982,-3656.8473 398.9526,-3662.0746 343.5843,-3657.3009"/>
<polygon fill="none" stroke="#000000" points="343.6983,-3653.7953 333.4039,-3656.3001 343.0134,-3660.7617 343.6983,-3653.7953"/>
</g>
<!-- \\Firesphere\\SolrSearch\\Admins\\SearchAdmin -->
<g id="node18" class="node">
<title>\\Firesphere\\SolrSearch\\Admins\\SearchAdmin</title>
<polygon fill="none" stroke="#000000" points="718.2549,-2268.5623 627.2549,-2268.5623 627.2549,-2232.5623 718.2549,-2232.5623 718.2549,-2268.5623"/>
<text text-anchor="middle" x="672.7549" y="-2247.7623" font-family="Courier,monospace" font-size="11.00" fill="#000000">SearchAdmin</text>
</g>
<!-- \\SilverStripe\\Admin\\ModelAdmin -->
<g id="node68" class="node">
<title>\\SilverStripe\\Admin\\ModelAdmin</title>
<ellipse fill="none" stroke="#000000" cx="254.1275" cy="-3532.5623" rx="165.1707" ry="18"/>
<text text-anchor="middle" x="254.1275" y="-3528.8623" font-family="Times,serif" font-size="14.00" fill="#c0c0c0">\SilverStripe\Admin\ModelAdmin</text>
</g>
<!-- \\Firesphere\\SolrSearch\\Admins\\SearchAdmin&#45;&gt;\\SilverStripe\\Admin\\ModelAdmin -->
<g id="edge12" class="edge">
<title>\\Firesphere\\SolrSearch\\Admins\\SearchAdmin&#45;&gt;\\SilverStripe\\Admin\\ModelAdmin</title>
<path fill="none" stroke="#000000" d="M627.1134,-2261.9209C606.8392,-2269.4222 584.7714,-2281.5039 572.2549,-2300.5623 498.6537,-2412.6322 600.5271,-3408.2861 508.2549,-3505.5623 467.2218,-3548.8206 399.2399,-3554.1028 343.9097,-3549.359"/>
<polygon fill="none" stroke="#000000" points="344.0283,-3545.854 333.735,-3548.3635 343.3466,-3552.8207 344.0283,-3545.854"/>
</g>
<!-- \\Firesphere\\SolrSearch\\Jobs\\ClearDirtyClassesJob -->
<g id="node19" class="node">
<title>\\Firesphere\\SolrSearch\\Jobs\\ClearDirtyClassesJob</title>
<polygon fill="none" stroke="#000000" points="748.7549,-2188.5623 596.7549,-2188.5623 596.7549,-2152.5623 748.7549,-2152.5623 748.7549,-2188.5623"/>
<text text-anchor="middle" x="672.7549" y="-2167.7623" font-family="Courier,monospace" font-size="11.00" fill="#000000">ClearDirtyClassesJob</text>
</g>
<!-- \\Symbiote\\QueuedJobs\\Services\\AbstractQueuedJob -->
<g id="node69" class="node">
<title>\\Symbiote\\QueuedJobs\\Services\\AbstractQueuedJob</title>
<ellipse fill="none" stroke="#000000" cx="254.1275" cy="-3478.5623" rx="254.255" ry="18"/>
<text text-anchor="middle" x="254.1275" y="-3474.8623" font-family="Times,serif" font-size="14.00" fill="#c0c0c0">\Symbiote\QueuedJobs\Services\AbstractQueuedJob</text>
</g>
<!-- \\Firesphere\\SolrSearch\\Jobs\\ClearDirtyClassesJob&#45;&gt;\\Symbiote\\QueuedJobs\\Services\\AbstractQueuedJob -->
<g id="edge13" class="edge">
<title>\\Firesphere\\SolrSearch\\Jobs\\ClearDirtyClassesJob&#45;&gt;\\Symbiote\\QueuedJobs\\Services\\AbstractQueuedJob</title>
<path fill="none" stroke="#000000" d="M611.345,-2188.6282C596.1399,-2196.0698 581.5541,-2206.3855 572.2549,-2220.5623 497.1341,-2335.0856 602.4569,-3352.1404 508.2549,-3451.5623 469.8396,-3492.1063 407.754,-3499.3046 354.5669,-3496.1484"/>
<polygon fill="none" stroke="#000000" points="354.6289,-3492.6438 344.4029,-3495.4152 354.1252,-3499.6257 354.6289,-3492.6438"/>
</g>
<!-- \\Firesphere\\SolrSearch\\Jobs\\SolrConfigureJob -->
<g id="node20" class="node">
<title>\\Firesphere\\SolrSearch\\Jobs\\SolrConfigureJob</title>
<polygon fill="none" stroke="#000000" points="735.2549,-2134.5623 610.2549,-2134.5623 610.2549,-2098.5623 735.2549,-2098.5623 735.2549,-2134.5623"/>
<text text-anchor="middle" x="672.7549" y="-2113.7623" font-family="Courier,monospace" font-size="11.00" fill="#000000">SolrConfigureJob</text>
</g>
<!-- \\Firesphere\\SolrSearch\\Jobs\\SolrConfigureJob&#45;&gt;\\Symbiote\\QueuedJobs\\Services\\AbstractQueuedJob -->
<g id="edge14" class="edge">
<title>\\Firesphere\\SolrSearch\\Jobs\\SolrConfigureJob&#45;&gt;\\Symbiote\\QueuedJobs\\Services\\AbstractQueuedJob</title>
<path fill="none" stroke="#000000" d="M610.2547,-2120.8227C595.7085,-2124.8639 581.7244,-2131.819 572.2549,-2143.5623 480.9179,-2256.8314 608.1725,-3345.7851 508.2549,-3451.5623 469.7584,-3492.3164 407.3533,-3499.4175 354.0197,-3496.1579"/>
<polygon fill="none" stroke="#000000" points="354.0605,-3492.6514 343.8297,-3495.4047 353.5445,-3499.6324 354.0605,-3492.6514"/>
</g>
<!-- \\Firesphere\\SolrSearch\\Jobs\\SolrIndexJob -->
<g id="node21" class="node">
<title>\\Firesphere\\SolrSearch\\Jobs\\SolrIndexJob</title>
<polygon fill="none" stroke="#000000" points="721.7549,-2080.5623 623.7549,-2080.5623 623.7549,-2044.5623 721.7549,-2044.5623 721.7549,-2080.5623"/>
<text text-anchor="middle" x="672.7549" y="-2059.7623" font-family="Courier,monospace" font-size="11.00" fill="#000000">SolrIndexJob</text>
</g>
<!-- \\Firesphere\\SolrSearch\\Jobs\\SolrIndexJob&#45;&gt;\\Symbiote\\QueuedJobs\\Services\\AbstractQueuedJob -->
<g id="edge15" class="edge">
<title>\\Firesphere\\SolrSearch\\Jobs\\SolrIndexJob&#45;&gt;\\Symbiote\\QueuedJobs\\Services\\AbstractQueuedJob</title>
<path fill="none" stroke="#000000" d="M623.6115,-2063.8705C604.6537,-2067.0487 584.6014,-2074.2207 572.2549,-2089.5623 477.2701,-2207.5887 612.1813,-3341.3277 508.2549,-3451.5623 469.7978,-3492.3536 407.3932,-3499.4552 354.0501,-3496.1865"/>
<polygon fill="none" stroke="#000000" points="354.0894,-3492.6799 343.8581,-3495.4315 353.5722,-3499.6608 354.0894,-3492.6799"/>
</g>
<!-- \\Firesphere\\SolrSearch\\Helpers\\Statics -->
<g id="node22" class="node">
<title>\\Firesphere\\SolrSearch\\Helpers\\Statics</title>
<polygon fill="none" stroke="#000000" points="704.7549,-2000.5623 640.7549,-2000.5623 640.7549,-1964.5623 704.7549,-1964.5623 704.7549,-2000.5623"/>
<text text-anchor="middle" x="672.7549" y="-1979.7623" font-family="Courier,monospace" font-size="11.00" fill="#000000">Statics</text>
</g>
<!-- \\Firesphere\\SolrSearch\\Helpers\\FieldResolver -->
<g id="node23" class="node">
<title>\\Firesphere\\SolrSearch\\Helpers\\FieldResolver</title>
<polygon fill="none" stroke="#000000" points="724.7549,-1946.5623 620.7549,-1946.5623 620.7549,-1910.5623 724.7549,-1910.5623 724.7549,-1946.5623"/>
<text text-anchor="middle" x="672.7549" y="-1925.7623" font-family="Courier,monospace" font-size="11.00" fill="#000000">FieldResolver</text>
</g>
<!-- \\Firesphere\\SolrSearch\\Helpers\\DataResolver -->
<g id="node24" class="node">
<title>\\Firesphere\\SolrSearch\\Helpers\\DataResolver</title>
<polygon fill="none" stroke="#000000" points="721.7549,-1892.5623 623.7549,-1892.5623 623.7549,-1856.5623 721.7549,-1856.5623 721.7549,-1892.5623"/>
<text text-anchor="middle" x="672.7549" y="-1871.7623" font-family="Courier,monospace" font-size="11.00" fill="#000000">DataResolver</text>
</g>
<!-- \\Firesphere\\SolrSearch\\Helpers\\Synonyms -->
<g id="node25" class="node">
<title>\\Firesphere\\SolrSearch\\Helpers\\Synonyms</title>
<polygon fill="none" stroke="#000000" points="708.2549,-1838.5623 637.2549,-1838.5623 637.2549,-1802.5623 708.2549,-1802.5623 708.2549,-1838.5623"/>
<text text-anchor="middle" x="672.7549" y="-1817.7623" font-family="Courier,monospace" font-size="11.00" fill="#000000">Synonyms</text>
</g>
<!-- \\Firesphere\\SolrSearch\\Helpers\\SolrLogger -->
<g id="node26" class="node">
<title>\\Firesphere\\SolrSearch\\Helpers\\SolrLogger</title>
<polygon fill="none" stroke="#000000" points="714.7549,-1784.5623 630.7549,-1784.5623 630.7549,-1748.5623 714.7549,-1748.5623 714.7549,-1784.5623"/>
<text text-anchor="middle" x="672.7549" y="-1763.7623" font-family="Courier,monospace" font-size="11.00" fill="#000000">SolrLogger</text>
</g>
<!-- \\Firesphere\\SolrSearch\\Tasks\\SolrConfigureTask -->
<g id="node27" class="node">
<title>\\Firesphere\\SolrSearch\\Tasks\\SolrConfigureTask</title>
<polygon fill="none" stroke="#000000" points="738.2549,-1596.5623 607.2549,-1596.5623 607.2549,-1560.5623 738.2549,-1560.5623 738.2549,-1596.5623"/>
<text text-anchor="middle" x="672.7549" y="-1575.7623" font-family="Courier,monospace" font-size="11.00" fill="#000000">SolrConfigureTask</text>
</g>
<!-- \\SilverStripe\\Dev\\BuildTask -->
<g id="node70" class="node">
<title>\\SilverStripe\\Dev\\BuildTask</title>
<ellipse fill="none" stroke="#000000" cx="254.1275" cy="-3424.5623" rx="139.9756" ry="18"/>
<text text-anchor="middle" x="254.1275" y="-3420.8623" font-family="Times,serif" font-size="14.00" fill="#c0c0c0">\SilverStripe\Dev\BuildTask</text>
</g>
<!-- \\Firesphere\\SolrSearch\\Tasks\\SolrConfigureTask&#45;&gt;\\SilverStripe\\Dev\\BuildTask -->
<g id="edge16" class="edge">
<title>\\Firesphere\\SolrSearch\\Tasks\\SolrConfigureTask&#45;&gt;\\SilverStripe\\Dev\\BuildTask</title>
<path fill="none" stroke="#000000" d="M607.0513,-1584.8895C593.9767,-1589.019 581.4598,-1595.4962 572.2549,-1605.5623 317.7346,-1883.8955 262.3369,-3187.1922 255.0394,-3396.2396"/>
<polygon fill="none" stroke="#000000" points="251.536,-3396.2842 254.693,-3406.3977 258.5319,-3396.5228 251.536,-3396.2842"/>
</g>
<!-- \\Firesphere\\SolrSearch\\Tasks\\SolrIndexTask -->
<g id="node28" class="node">
<title>\\Firesphere\\SolrSearch\\Tasks\\SolrIndexTask</title>
<polygon fill="none" stroke="#000000" points="724.7549,-1542.5623 620.7549,-1542.5623 620.7549,-1506.5623 724.7549,-1506.5623 724.7549,-1542.5623"/>
<text text-anchor="middle" x="672.7549" y="-1521.7623" font-family="Courier,monospace" font-size="11.00" fill="#000000">SolrIndexTask</text>
</g>
<!-- \\Firesphere\\SolrSearch\\Tasks\\SolrIndexTask&#45;&gt;\\SilverStripe\\Dev\\BuildTask -->
<g id="edge17" class="edge">
<title>\\Firesphere\\SolrSearch\\Tasks\\SolrIndexTask&#45;&gt;\\SilverStripe\\Dev\\BuildTask</title>
<path fill="none" stroke="#000000" d="M620.6085,-1527.3747C602.9503,-1530.9471 584.5966,-1537.9994 572.2549,-1551.5623 310.6992,-1838.9991 261.1106,-3184.3484 254.8801,-3396.3936"/>
<polygon fill="none" stroke="#000000" points="251.3809,-3396.3188 254.5936,-3406.4148 258.3781,-3396.5189 251.3809,-3396.3188"/>
</g>
<!-- \\Firesphere\\SolrSearch\\Tasks\\ClearDirtyClassesTask -->
<g id="node29" class="node">
<title>\\Firesphere\\SolrSearch\\Tasks\\ClearDirtyClassesTask</title>
<polygon fill="none" stroke="#000000" points="751.7549,-1704.5623 593.7549,-1704.5623 593.7549,-1668.5623 751.7549,-1668.5623 751.7549,-1704.5623"/>
<text text-anchor="middle" x="672.7549" y="-1683.7623" font-family="Courier,monospace" font-size="11.00" fill="#000000">ClearDirtyClassesTask</text>
</g>
<!-- \\Firesphere\\SolrSearch\\Tasks\\ClearDirtyClassesTask&#45;&gt;\\SilverStripe\\Dev\\BuildTask -->
<g id="edge18" class="edge">
<title>\\Firesphere\\SolrSearch\\Tasks\\ClearDirtyClassesTask&#45;&gt;\\SilverStripe\\Dev\\BuildTask</title>
<path fill="none" stroke="#000000" d="M614.3965,-1704.5997C598.5735,-1712.1285 582.8962,-1722.4976 572.2549,-1736.5623 361.4473,-2015.1882 270.0231,-3197.9565 256.0501,-3396.289"/>
<polygon fill="none" stroke="#000000" points="252.5444,-3396.2501 255.3403,-3406.4694 259.5274,-3396.737 252.5444,-3396.2501"/>
</g>
<!-- \\Firesphere\\SolrSearch\\Tasks\\ClearErrorsTask -->
<g id="node30" class="node">
<title>\\Firesphere\\SolrSearch\\Tasks\\ClearErrorsTask</title>
<polygon fill="none" stroke="#000000" points="731.7549,-1650.5623 613.7549,-1650.5623 613.7549,-1614.5623 731.7549,-1614.5623 731.7549,-1650.5623"/>
<text text-anchor="middle" x="672.7549" y="-1629.7623" font-family="Courier,monospace" font-size="11.00" fill="#000000">ClearErrorsTask</text>
</g>
<!-- \\Firesphere\\SolrSearch\\Tasks\\ClearErrorsTask&#45;&gt;\\SilverStripe\\Dev\\BuildTask -->
<g id="edge19" class="edge">
<title>\\Firesphere\\SolrSearch\\Tasks\\ClearErrorsTask&#45;&gt;\\SilverStripe\\Dev\\BuildTask</title>
<path fill="none" stroke="#000000" d="M613.6179,-1637.0618C598.252,-1641.0092 583.0142,-1647.8574 572.2549,-1659.5623 324.7444,-1928.8241 263.5975,-3190.2808 255.208,-3396.1275"/>
<polygon fill="none" stroke="#000000" points="251.6995,-3396.273 254.7977,-3406.4047 258.6939,-3396.5523 251.6995,-3396.273"/>
</g>
<!-- \\Firesphere\\SolrSearch\\Extensions\\DataObjectExtension -->
<g id="node31" class="node">
<title>\\Firesphere\\SolrSearch\\Extensions\\DataObjectExtension</title>
<polygon fill="none" stroke="#000000" points="745.2549,-1462.5623 600.2549,-1462.5623 600.2549,-1426.5623 745.2549,-1426.5623 745.2549,-1462.5623"/>
<text text-anchor="middle" x="672.7549" y="-1441.7623" font-family="Courier,monospace" font-size="11.00" fill="#000000">DataObjectExtension</text>
</g>
<!-- \\SilverStripe\\ORM\\DataExtension -->
<g id="node71" class="node">
<title>\\SilverStripe\\ORM\\DataExtension</title>
<ellipse fill="none" stroke="#000000" cx="254.1275" cy="-72.5623" rx="167.8704" ry="18"/>
<text text-anchor="middle" x="254.1275" y="-68.8623" font-family="Times,serif" font-size="14.00" fill="#c0c0c0">\SilverStripe\ORM\DataExtension</text>
</g>
<!-- \\Firesphere\\SolrSearch\\Extensions\\DataObjectExtension&#45;&gt;\\SilverStripe\\ORM\\DataExtension -->
<g id="edge20" class="edge">
<title>\\Firesphere\\SolrSearch\\Extensions\\DataObjectExtension&#45;&gt;\\SilverStripe\\ORM\\DataExtension</title>
<path fill="none" stroke="#000000" d="M600.2031,-1436.9722C589.4207,-1432.7531 579.5113,-1426.5645 572.2549,-1417.5623 480.2424,-1303.4122 608.9149,-206.1649 508.2549,-99.5623 467.3201,-56.2109 399.3333,-50.9333 343.9763,-55.7025"/>
<polygon fill="none" stroke="#000000" points="343.406,-52.2416 333.7963,-56.703 344.0907,-59.208 343.406,-52.2416"/>
</g>
<!-- \\Firesphere\\SolrSearch\\Extensions\\GridFieldExtension -->
<g id="node32" class="node">
<title>\\Firesphere\\SolrSearch\\Extensions\\GridFieldExtension</title>
<polygon fill="none" stroke="#000000" points="741.7549,-1408.5623 603.7549,-1408.5623 603.7549,-1372.5623 741.7549,-1372.5623 741.7549,-1408.5623"/>
<text text-anchor="middle" x="672.7549" y="-1387.7623" font-family="Courier,monospace" font-size="11.00" fill="#000000">GridFieldExtension</text>
</g>
<!-- \\Firesphere\\SolrSearch\\Extensions\\GridFieldExtension&#45;&gt;\\SilverStripe\\Core\\Extension -->
<g id="edge21" class="edge">
<title>\\Firesphere\\SolrSearch\\Extensions\\GridFieldExtension&#45;&gt;\\SilverStripe\\Core\\Extension</title>
<path fill="none" stroke="#000000" d="M603.6512,-1382.1478C591.5104,-1377.5774 580.229,-1370.7383 572.2549,-1360.5623 482.027,-1245.4191 608.6922,-151.9173 508.2549,-45.5623 466.314,-1.1503 395.9809,3.3005 339.9263,-2.0725"/>
<polygon fill="none" stroke="#000000" points="339.2028,1.3698 329.6359,-3.1826 339.9537,-5.5898 339.2028,1.3698"/>
</g>
<!-- \\Firesphere\\SolrSearch\\States\\SiteState -->
<g id="node33" class="node">
<title>\\Firesphere\\SolrSearch\\States\\SiteState</title>
<polygon fill="none" stroke="#000000" points="714.7549,-1328.5623 630.7549,-1328.5623 630.7549,-1292.5623 714.7549,-1292.5623 714.7549,-1328.5623"/>
<text text-anchor="start" x="638.7549" y="-1313.7623" font-family="Courier,monospace" font-size="11.00" fill="#000000">«abstract»</text>
<text text-anchor="start" x="642.2549" y="-1301.7623" font-family="Courier,monospace" font-size="11.00" fill="#000000">SiteState</text>
</g>
<!-- \\Firesphere\\SolrSearch\\Stores\\PostConfigStore -->
<g id="node34" class="node">
<title>\\Firesphere\\SolrSearch\\Stores\\PostConfigStore</title>
<polygon fill="none" stroke="#000000" points="731.7549,-1248.5623 613.7549,-1248.5623 613.7549,-1212.5623 731.7549,-1212.5623 731.7549,-1248.5623"/>
<text text-anchor="middle" x="672.7549" y="-1227.7623" font-family="Courier,monospace" font-size="11.00" fill="#000000">PostConfigStore</text>
</g>
<!-- \\Firesphere\\SolrSearch\\Stores\\PostConfigStore&#45;&gt;\\Firesphere\\SolrSearch\\Interfaces\\ConfigStore -->
<g id="edge22" class="edge">
<title>\\Firesphere\\SolrSearch\\Stores\\PostConfigStore&#45;&gt;\\Firesphere\\SolrSearch\\Interfaces\\ConfigStore</title>
<path fill="none" stroke="#000000" stroke-dasharray="1,5" d="M613.6637,-1222.9399C532.8854,-1212.5201 389.0185,-1193.9623 309.9722,-1183.7659"/>
<polygon fill="none" stroke="#000000" points="310.0944,-1180.2527 299.7287,-1182.4445 309.1988,-1187.1952 310.0944,-1180.2527"/>
</g>
<!-- \\Firesphere\\SolrSearch\\Stores\\FileConfigStore -->
<g id="node35" class="node">
<title>\\Firesphere\\SolrSearch\\Stores\\FileConfigStore</title>
<polygon fill="none" stroke="#000000" points="731.7549,-1194.5623 613.7549,-1194.5623 613.7549,-1158.5623 731.7549,-1158.5623 731.7549,-1194.5623"/>
<text text-anchor="middle" x="672.7549" y="-1173.7623" font-family="Courier,monospace" font-size="11.00" fill="#000000">FileConfigStore</text>
</g>
<!-- \\Firesphere\\SolrSearch\\Stores\\FileConfigStore&#45;&gt;\\Firesphere\\SolrSearch\\Interfaces\\ConfigStore -->
<g id="edge23" class="edge">
<title>\\Firesphere\\SolrSearch\\Stores\\FileConfigStore&#45;&gt;\\Firesphere\\SolrSearch\\Interfaces\\ConfigStore</title>
<path fill="none" stroke="#000000" stroke-dasharray="1,5" d="M613.6637,-1176.5623C532.8854,-1176.5623 389.0185,-1176.5623 309.9722,-1176.5623"/>
<polygon fill="none" stroke="#000000" points="309.7288,-1173.0624 299.7287,-1176.5623 309.7287,-1180.0624 309.7288,-1173.0624"/>
</g>
<!-- \\Firesphere\\SolrSearch\\Traits\\SearchResultSetTrait -->
<g id="node36" class="node">
<title>\\Firesphere\\SolrSearch\\Traits\\SearchResultSetTrait</title>
<polygon fill="none" stroke="#000000" points="748.7549,-1114.5623 596.7549,-1114.5623 596.7549,-1078.5623 748.7549,-1078.5623 748.7549,-1114.5623"/>
<text text-anchor="middle" x="672.7549" y="-1093.7623" font-family="Courier,monospace" font-size="11.00" fill="#000000">SearchResultSetTrait</text>
</g>
<!-- \\Firesphere\\SolrSearch\\Traits\\SearchResultGetTrait -->
<g id="node37" class="node">
<title>\\Firesphere\\SolrSearch\\Traits\\SearchResultGetTrait</title>
<polygon fill="none" stroke="#000000" points="748.7549,-1060.5623 596.7549,-1060.5623 596.7549,-1024.5623 748.7549,-1024.5623 748.7549,-1060.5623"/>
<text text-anchor="middle" x="672.7549" y="-1039.7623" font-family="Courier,monospace" font-size="11.00" fill="#000000">SearchResultGetTrait</text>
</g>
<!-- \\Firesphere\\SolrSearch\\Traits\\QueryComponentBoostTrait -->
<g id="node38" class="node">
<title>\\Firesphere\\SolrSearch\\Traits\\QueryComponentBoostTrait</title>
<polygon fill="none" stroke="#000000" points="762.2549,-1006.5623 583.2549,-1006.5623 583.2549,-970.5623 762.2549,-970.5623 762.2549,-1006.5623"/>
<text text-anchor="middle" x="672.7549" y="-985.7623" font-family="Courier,monospace" font-size="11.00" fill="#000000">QueryComponentBoostTrait</text>
</g>
<!-- \\Firesphere\\SolrSearch\\Traits\\QueryComponentFacetTrait -->
<g id="node39" class="node">
<title>\\Firesphere\\SolrSearch\\Traits\\QueryComponentFacetTrait</title>
<polygon fill="none" stroke="#000000" points="762.2549,-952.5623 583.2549,-952.5623 583.2549,-916.5623 762.2549,-916.5623 762.2549,-952.5623"/>
<text text-anchor="middle" x="672.7549" y="-931.7623" font-family="Courier,monospace" font-size="11.00" fill="#000000">QueryComponentFacetTrait</text>
</g>
<!-- \\Firesphere\\SolrSearch\\Traits\\QueryComponentFilterTrait -->
<g id="node40" class="node">
<title>\\Firesphere\\SolrSearch\\Traits\\QueryComponentFilterTrait</title>
<polygon fill="none" stroke="#000000" points="765.2549,-898.5623 580.2549,-898.5623 580.2549,-862.5623 765.2549,-862.5623 765.2549,-898.5623"/>
<text text-anchor="middle" x="672.7549" y="-877.7623" font-family="Courier,monospace" font-size="11.00" fill="#000000">QueryComponentFilterTrait</text>
</g>
<!-- \\Firesphere\\SolrSearch\\Traits\\GetSetSearchResolverTrait -->
<g id="node41" class="node">
<title>\\Firesphere\\SolrSearch\\Traits\\GetSetSearchResolverTrait</title>
<polygon fill="none" stroke="#000000" points="765.2549,-844.5623 580.2549,-844.5623 580.2549,-808.5623 765.2549,-808.5623 765.2549,-844.5623"/>
<text text-anchor="middle" x="672.7549" y="-823.7623" font-family="Courier,monospace" font-size="11.00" fill="#000000">GetSetSearchResolverTrait</text>
</g>
<!-- \\Firesphere\\SolrSearch\\Traits\\DocumentFactoryTrait -->
<g id="node42" class="node">
<title>\\Firesphere\\SolrSearch\\Traits\\DocumentFactoryTrait</title>
<polygon fill="none" stroke="#000000" points="748.7549,-790.5623 596.7549,-790.5623 596.7549,-754.5623 748.7549,-754.5623 748.7549,-790.5623"/>
<text text-anchor="middle" x="672.7549" y="-769.7623" font-family="Courier,monospace" font-size="11.00" fill="#000000">DocumentFactoryTrait</text>
</g>
<!-- \\Firesphere\\SolrSearch\\Traits\\CoreAdminTrait -->
<g id="node43" class="node">
<title>\\Firesphere\\SolrSearch\\Traits\\CoreAdminTrait</title>
<polygon fill="none" stroke="#000000" points="728.2549,-736.5623 617.2549,-736.5623 617.2549,-700.5623 728.2549,-700.5623 728.2549,-736.5623"/>
<text text-anchor="middle" x="672.7549" y="-715.7623" font-family="Courier,monospace" font-size="11.00" fill="#000000">CoreAdminTrait</text>
</g>
<!-- \\Firesphere\\SolrSearch\\Traits\\CoreServiceTrait -->
<g id="node44" class="node">
<title>\\Firesphere\\SolrSearch\\Traits\\CoreServiceTrait</title>
<polygon fill="none" stroke="#000000" points="735.2549,-682.5623 610.2549,-682.5623 610.2549,-646.5623 735.2549,-646.5623 735.2549,-682.5623"/>
<text text-anchor="middle" x="672.7549" y="-661.7623" font-family="Courier,monospace" font-size="11.00" fill="#000000">CoreServiceTrait</text>
</g>
<!-- \\Firesphere\\SolrSearch\\Traits\\LoggerTrait -->
<g id="node45" class="node">
<title>\\Firesphere\\SolrSearch\\Traits\\LoggerTrait</title>
<polygon fill="none" stroke="#000000" points="718.2549,-628.5623 627.2549,-628.5623 627.2549,-592.5623 718.2549,-592.5623 718.2549,-628.5623"/>
<text text-anchor="middle" x="672.7549" y="-607.7623" font-family="Courier,monospace" font-size="11.00" fill="#000000">LoggerTrait</text>
</g>
<!-- \\Firesphere\\SolrSearch\\Traits\\GetterSetterTrait -->
<g id="node46" class="node">
<title>\\Firesphere\\SolrSearch\\Traits\\GetterSetterTrait</title>
<polygon fill="none" stroke="#000000" points="738.2549,-574.5623 607.2549,-574.5623 607.2549,-538.5623 738.2549,-538.5623 738.2549,-574.5623"/>
<text text-anchor="middle" x="672.7549" y="-553.7623" font-family="Courier,monospace" font-size="11.00" fill="#000000">GetterSetterTrait</text>
</g>
<!-- \\Firesphere\\SolrSearch\\Traits\\GetSetSchemaFactoryTrait -->
<g id="node47" class="node">
<title>\\Firesphere\\SolrSearch\\Traits\\GetSetSchemaFactoryTrait</title>
<polygon fill="none" stroke="#000000" points="762.2549,-520.5623 583.2549,-520.5623 583.2549,-484.5623 762.2549,-484.5623 762.2549,-520.5623"/>
<text text-anchor="middle" x="672.7549" y="-499.7623" font-family="Courier,monospace" font-size="11.00" fill="#000000">GetSetSchemaFactoryTrait</text>
</g>
<!-- \\Firesphere\\SolrSearch\\Traits\\BaseIndexTrait -->
<g id="node48" class="node">
<title>\\Firesphere\\SolrSearch\\Traits\\BaseIndexTrait</title>
<polygon fill="none" stroke="#000000" points="728.2549,-466.5623 617.2549,-466.5623 617.2549,-430.5623 728.2549,-430.5623 728.2549,-466.5623"/>
<text text-anchor="middle" x="672.7549" y="-445.7623" font-family="Courier,monospace" font-size="11.00" fill="#000000">BaseIndexTrait</text>
</g>
<!-- \\Firesphere\\SolrSearch\\Traits\\SolrIndexTrait -->
<g id="node49" class="node">
<title>\\Firesphere\\SolrSearch\\Traits\\SolrIndexTrait</title>
<polygon fill="none" stroke="#000000" points="728.2549,-412.5623 617.2549,-412.5623 617.2549,-376.5623 728.2549,-376.5623 728.2549,-412.5623"/>
<text text-anchor="middle" x="672.7549" y="-391.7623" font-family="Courier,monospace" font-size="11.00" fill="#000000">SolrIndexTrait</text>
</g>
<!-- \\Firesphere\\SolrSearch\\Traits\\BaseQueryTrait -->
<g id="node50" class="node">
<title>\\Firesphere\\SolrSearch\\Traits\\BaseQueryTrait</title>
<polygon fill="none" stroke="#000000" points="728.2549,-358.5623 617.2549,-358.5623 617.2549,-322.5623 728.2549,-322.5623 728.2549,-358.5623"/>
<text text-anchor="middle" x="672.7549" y="-337.7623" font-family="Courier,monospace" font-size="11.00" fill="#000000">BaseQueryTrait</text>
</g>
<!-- \\Firesphere\\SolrSearch\\Traits\\DataResolveTrait -->
<g id="node51" class="node">
<title>\\Firesphere\\SolrSearch\\Traits\\DataResolveTrait</title>
<polygon fill="none" stroke="#000000" points="735.2549,-304.5623 610.2549,-304.5623 610.2549,-268.5623 735.2549,-268.5623 735.2549,-304.5623"/>
<text text-anchor="middle" x="672.7549" y="-283.7623" font-family="Courier,monospace" font-size="11.00" fill="#000000">DataResolveTrait</text>
</g>
<!-- \\Firesphere\\SolrFluent\\Extensions\\FluentDocumentExtension -->
<g id="node53" class="node">
<title>\\Firesphere\\SolrFluent\\Extensions\\FluentDocumentExtension</title>
<polygon fill="none" stroke="#000000" points="1012.7549,-668.5623 840.7549,-668.5623 840.7549,-632.5623 1012.7549,-632.5623 1012.7549,-668.5623"/>
<text text-anchor="middle" x="926.7549" y="-647.7623" font-family="Courier,monospace" font-size="11.00" fill="#000000">FluentDocumentExtension</text>
</g>
<!-- \\Firesphere\\SolrFluent\\Extensions\\FluentDocumentExtension&#45;&gt;\\SilverStripe\\Core\\Extension -->
<g id="edge24" class="edge">
<title>\\Firesphere\\SolrFluent\\Extensions\\FluentDocumentExtension&#45;&gt;\\SilverStripe\\Core\\Extension</title>
<path fill="none" stroke="#000000" d="M879.2438,-632.4752C857.9161,-621.8351 834.5963,-606.1595 821.2549,-584.5623 771.9816,-504.7985 843.3593,-234.7988 781.2549,-164.5623 748.54,-127.5637 709.4057,-173.6664 672.7549,-140.5623"/>
<path fill="none" stroke="#000000" d="M672.7549,-140.5623C657.0915,-126.4146 528.3246,-52.0972 508.2549,-45.5623 475.4252,-34.8726 439.0725,-28.1869 404.3721,-24.0587"/>
<polygon fill="none" stroke="#000000" points="404.4777,-20.5487 394.1493,-22.9096 403.6957,-27.5048 404.4777,-20.5487"/>
</g>
<!-- \\Firesphere\\SolrFluent\\Extensions\\FluentSchemaExtension -->
<g id="node54" class="node">
<title>\\Firesphere\\SolrFluent\\Extensions\\FluentSchemaExtension</title>
<polygon fill="none" stroke="#000000" points="1005.7549,-776.5623 847.7549,-776.5623 847.7549,-740.5623 1005.7549,-740.5623 1005.7549,-776.5623"/>
<text text-anchor="middle" x="926.7549" y="-755.7623" font-family="Courier,monospace" font-size="11.00" fill="#000000">FluentSchemaExtension</text>
</g>
<!-- \\Firesphere\\SolrFluent\\Extensions\\FluentSchemaExtension&#45;&gt;\\SilverStripe\\Core\\Extension -->
<g id="edge25" class="edge">
<title>\\Firesphere\\SolrFluent\\Extensions\\FluentSchemaExtension&#45;&gt;\\SilverStripe\\Core\\Extension</title>
<path fill="none" stroke="#000000" d="M847.6545,-750.2024C837.5372,-745.9726 828.28,-739.9821 821.2549,-731.5623 740.3328,-634.5745 863.7592,-260.2077 781.2549,-164.5623 748.9961,-127.1653 709.4057,-173.6664 672.7549,-140.5623"/>
</g>
<!-- \\Firesphere\\SolrFluent\\Extensions\\FluentIndexExtension -->
<g id="node55" class="node">
<title>\\Firesphere\\SolrFluent\\Extensions\\FluentIndexExtension</title>
<polygon fill="none" stroke="#000000" points="1002.7549,-722.5623 850.7549,-722.5623 850.7549,-686.5623 1002.7549,-686.5623 1002.7549,-722.5623"/>
<text text-anchor="middle" x="926.7549" y="-701.7623" font-family="Courier,monospace" font-size="11.00" fill="#000000">FluentIndexExtension</text>
</g>
<!-- \\Firesphere\\SolrFluent\\Extensions\\FluentIndexExtension&#45;&gt;\\SilverStripe\\Core\\Extension -->
<g id="edge26" class="edge">
<title>\\Firesphere\\SolrFluent\\Extensions\\FluentIndexExtension&#45;&gt;\\SilverStripe\\Core\\Extension</title>
<path fill="none" stroke="#000000" d="M850.6124,-697.3105C839.3641,-693.0441 828.9802,-686.7521 821.2549,-677.5623 747.6758,-590.0344 856.2618,-250.8697 781.2549,-164.5623 748.8582,-127.2847 709.4057,-173.6664 672.7549,-140.5623"/>
</g>
<!-- \\Firesphere\\SolrFluent\\States\\FluentSiteState -->
<g id="node56" class="node">
<title>\\Firesphere\\SolrFluent\\States\\FluentSiteState</title>
<polygon fill="none" stroke="#000000" points="985.7549,-856.5623 867.7549,-856.5623 867.7549,-820.5623 985.7549,-820.5623 985.7549,-856.5623"/>
<text text-anchor="middle" x="926.7549" y="-835.7623" font-family="Courier,monospace" font-size="11.00" fill="#000000">FluentSiteState</text>
</g>
<!-- \\Firesphere\\SolrFluent\\States\\FluentSiteState&#45;&gt;\\Firesphere\\SolrSearch\\Interfaces\\SiteStateInterface -->
<g id="edge28" class="edge">
<title>\\Firesphere\\SolrFluent\\States\\FluentSiteState&#45;&gt;\\Firesphere\\SolrSearch\\Interfaces\\SiteStateInterface</title>
<path fill="none" stroke="#000000" stroke-dasharray="1,5" d="M867.5291,-834.6012C850.0639,-830.4081 832.6083,-822.6459 821.2549,-808.5623 732.9344,-699.0034 880.7021,-276.1309 781.2549,-176.5623 747.1066,-142.3723 721.0239,-171.8351 672.7549,-169.5623"/>
<path fill="none" stroke="#000000" stroke-dasharray="1,5" d="M672.7549,-169.5623C628.0296,-167.4563 607.6825,-149.1821 572.2549,-176.5623 416.4205,-296.9987 286.4909,-949.5006 259.3411,-1094.1521"/>
<polygon fill="none" stroke="#000000" points="255.8217,-1093.933 257.4298,-1104.4051 262.7032,-1095.2159 255.8217,-1093.933"/>
</g>
<!-- \\Firesphere\\SolrFluent\\States\\FluentSiteState&#45;&gt;\\Firesphere\\SolrSearch\\States\\SiteState -->
<g id="edge27" class="edge">
<title>\\Firesphere\\SolrFluent\\States\\FluentSiteState&#45;&gt;\\Firesphere\\SolrSearch\\States\\SiteState</title>
<path fill="none" stroke="#000000" d="M892.6937,-856.6987C868.4596,-871.5395 837.4371,-894.8975 821.2549,-924.5623 745.008,-1064.3361 884.6109,-1159.4513 781.2549,-1280.5623 767.2995,-1296.915 745.3046,-1304.7535 724.7556,-1308.3755"/>
<polygon fill="none" stroke="#000000" points="724.211,-1304.9179 714.8257,-1309.8337 725.2281,-1311.8436 724.211,-1304.9179"/>
</g>
<!-- \\Firesphere\\SolrSubsites\\Extensions\\SubsitesExtension -->
<g id="node57" class="node">
<title>\\Firesphere\\SolrSubsites\\Extensions\\SubsitesExtension</title>
<polygon fill="none" stroke="#000000" points="992.2549,-972.5623 861.2549,-972.5623 861.2549,-936.5623 992.2549,-936.5623 992.2549,-972.5623"/>
<text text-anchor="middle" x="926.7549" y="-951.7623" font-family="Courier,monospace" font-size="11.00" fill="#000000">SubsitesExtension</text>
</g>
<!-- \\Firesphere\\SolrSubsites\\Extensions\\SubsitesExtension&#45;&gt;\\SilverStripe\\Core\\Extension -->
<g id="edge29" class="edge">
<title>\\Firesphere\\SolrSubsites\\Extensions\\SubsitesExtension&#45;&gt;\\SilverStripe\\Core\\Extension</title>
<path fill="none" stroke="#000000" d="M878.3173,-936.4329C857.0531,-925.8498 834.0545,-910.2344 821.2549,-888.5623 739.3126,-749.819 885.5707,-287.3729 781.2549,-164.5623 749.282,-126.9207 709.4057,-173.6664 672.7549,-140.5623"/>
</g>
<!-- \\Firesphere\\SolrSubsites\\States\\SubsiteState -->
<g id="node58" class="node">
<title>\\Firesphere\\SolrSubsites\\States\\SubsiteState</title>
<polygon fill="none" stroke="#000000" points="975.7549,-1052.5623 877.7549,-1052.5623 877.7549,-1016.5623 975.7549,-1016.5623 975.7549,-1052.5623"/>
<text text-anchor="middle" x="926.7549" y="-1031.7623" font-family="Courier,monospace" font-size="11.00" fill="#000000">SubsiteState</text>
</g>
<!-- \\Firesphere\\SolrSubsites\\States\\SubsiteState&#45;&gt;\\Firesphere\\SolrSearch\\Interfaces\\SiteStateInterface -->
<g id="edge31" class="edge">
<title>\\Firesphere\\SolrSubsites\\States\\SubsiteState&#45;&gt;\\Firesphere\\SolrSearch\\Interfaces\\SiteStateInterface</title>
<path fill="none" stroke="#000000" stroke-dasharray="1,5" d="M877.5714,-1032.7588C856.9534,-1029.3038 834.6932,-1021.4893 821.2549,-1004.5623 763.9847,-932.4244 845.8564,-242.2159 781.2549,-176.5623 747.3629,-142.1182 721.0239,-171.8351 672.7549,-169.5623"/>
</g>
<!-- \\Firesphere\\SolrSubsites\\States\\SubsiteState&#45;&gt;\\Firesphere\\SolrSearch\\States\\SiteState -->
<g id="edge30" class="edge">
<title>\\Firesphere\\SolrSubsites\\States\\SubsiteState&#45;&gt;\\Firesphere\\SolrSearch\\States\\SiteState</title>
<path fill="none" stroke="#000000" d="M921.3498,-1052.6015C906.7423,-1098.1833 862.034,-1218.7425 781.2549,-1280.5623 765.0648,-1292.9525 744.0533,-1300.2264 724.838,-1304.4962"/>
<polygon fill="none" stroke="#000000" points="724.1076,-1301.0729 714.9884,-1306.4665 725.4807,-1307.9369 724.1076,-1301.0729"/>
</g>
<!-- \\Firesphere\\SolrPermissions\\Extensions\\DataObjectExtension -->
<g id="node59" class="node">
<title>\\Firesphere\\SolrPermissions\\Extensions\\DataObjectExtension</title>
<polygon fill="none" stroke="#000000" points="999.2549,-552.5623 854.2549,-552.5623 854.2549,-516.5623 999.2549,-516.5623 999.2549,-552.5623"/>
<text text-anchor="middle" x="926.7549" y="-531.7623" font-family="Courier,monospace" font-size="11.00" fill="#000000">DataObjectExtension</text>
</g>
<!-- \\Firesphere\\SolrPermissions\\Extensions\\DataObjectExtension&#45;&gt;\\SilverStripe\\ORM\\DataExtension -->
<g id="edge32" class="edge">
<title>\\Firesphere\\SolrPermissions\\Extensions\\DataObjectExtension&#45;&gt;\\SilverStripe\\ORM\\DataExtension</title>
<path fill="none" stroke="#000000" d="M854.1266,-528.2058C841.6284,-523.9688 829.9011,-517.4567 821.2549,-507.5623 720.2653,-391.9922 883.2119,-279.2799 781.2549,-164.5623 734.3687,-111.808 557.436,-89.2666 421.3514,-79.6578"/>
<polygon fill="none" stroke="#000000" points="421.4309,-76.1551 411.2143,-78.9604 420.9505,-83.1386 421.4309,-76.1551"/>
</g>
<!-- \\Firesphere\\SolrPermissions\\Extensions\\BaseIndexExtension -->
<g id="node60" class="node">
<title>\\Firesphere\\SolrPermissions\\Extensions\\BaseIndexExtension</title>
<polygon fill="none" stroke="#000000" points="995.7549,-390.5623 857.7549,-390.5623 857.7549,-354.5623 995.7549,-354.5623 995.7549,-390.5623"/>
<text text-anchor="middle" x="926.7549" y="-369.7623" font-family="Courier,monospace" font-size="11.00" fill="#000000">BaseIndexExtension</text>
</g>
<!-- \\Firesphere\\SolrPermissions\\Extensions\\BaseIndexExtension&#45;&gt;\\SilverStripe\\Core\\Extension -->
<g id="edge33" class="edge">
<title>\\Firesphere\\SolrPermissions\\Extensions\\BaseIndexExtension&#45;&gt;\\SilverStripe\\Core\\Extension</title>
<path fill="none" stroke="#000000" d="M881.1304,-354.4962C859.7122,-343.7194 835.7606,-327.9198 821.2549,-306.5623 765.9092,-225.0739 849.6364,-159.4669 781.2549,-88.5623 746.9706,-53.013 716.6848,-87.1305 672.7549,-64.5623"/>
</g>
<!-- \\Firesphere\\SolrPermissions\\Extensions\\DocumentFactoryExtension -->
<g id="node61" class="node">
<title>\\Firesphere\\SolrPermissions\\Extensions\\DocumentFactoryExtension</title>
<polygon fill="none" stroke="#000000" points="1016.2549,-498.5623 837.2549,-498.5623 837.2549,-462.5623 1016.2549,-462.5623 1016.2549,-498.5623"/>
<text text-anchor="middle" x="926.7549" y="-477.7623" font-family="Courier,monospace" font-size="11.00" fill="#000000">DocumentFactoryExtension</text>
</g>
<!-- \\Firesphere\\SolrPermissions\\Extensions\\DocumentFactoryExtension&#45;&gt;\\SilverStripe\\Core\\Extension -->
<g id="edge34" class="edge">
<title>\\Firesphere\\SolrPermissions\\Extensions\\DocumentFactoryExtension&#45;&gt;\\SilverStripe\\Core\\Extension</title>
<path fill="none" stroke="#000000" d="M836.817,-466.3976C831.0135,-462.9272 825.7188,-458.7003 821.2549,-453.5623 715.3842,-331.7022 887.0032,-214.5285 781.2549,-92.5623 748.6302,-54.9341 717.0533,-87.3197 672.7549,-64.5623"/>
</g>
<!-- \\Firesphere\\SolrPermissions\\Extensions\\SchemaFactoryExtension -->
<g id="node62" class="node">
<title>\\Firesphere\\SolrPermissions\\Extensions\\SchemaFactoryExtension</title>
<polygon fill="none" stroke="#000000" points="1009.2549,-444.5623 844.2549,-444.5623 844.2549,-408.5623 1009.2549,-408.5623 1009.2549,-444.5623"/>
<text text-anchor="middle" x="926.7549" y="-423.7623" font-family="Courier,monospace" font-size="11.00" fill="#000000">SchemaFactoryExtension</text>
</g>
<!-- \\Firesphere\\SolrPermissions\\Extensions\\SchemaFactoryExtension&#45;&gt;\\SilverStripe\\Core\\Extension -->
<g id="edge35" class="edge">
<title>\\Firesphere\\SolrPermissions\\Extensions\\SchemaFactoryExtension&#45;&gt;\\SilverStripe\\Core\\Extension</title>
<path fill="none" stroke="#000000" d="M844.1782,-416.1261C835.5146,-412.0956 827.5797,-406.7145 821.2549,-399.5623 728.9356,-295.1661 875.2766,-191.428 781.2549,-88.5623 747.9347,-52.1079 716.6848,-87.1305 672.7549,-64.5623"/>
</g>
</g>
</svg>
