<?xml version="1.0" encoding="UTF-8" standalone="no"?>
<!DOCTYPE svg PUBLIC "-//W3C//DTD SVG 1.1//EN"
 "http://www.w3.org/Graphics/SVG/1.1/DTD/svg11.dtd">
<!-- Generated by graphviz version 2.40.1 (20161225.0304)
 -->
<!-- Title: G Pages: 1 -->
<svg width="984pt" height="3652pt"
 viewBox="0.00 0.00 984.25 3652.15" xmlns="http://www.w3.org/2000/svg" xmlns:xlink="http://www.w3.org/1999/xlink">
<g id="graph0" class="graph" transform="scale(1 1) rotate(0) translate(4 3648.1487)">
<title>G</title>
<polygon fill="#ffffff" stroke="transparent" points="-4,4 -4,-3648.1487 980.2549,-3648.1487 980.2549,4 -4,4"/>
<g id="clust1" class="cluster">
<title>cluster_Global</title>
<path fill="none" stroke="#c0c0c0" d="M165.1275,-476.1487C165.1275,-476.1487 956.2549,-476.1487 956.2549,-476.1487 962.2549,-476.1487 968.2549,-482.1487 968.2549,-488.1487 968.2549,-488.1487 968.2549,-3624.1487 968.2549,-3624.1487 968.2549,-3630.1487 962.2549,-3636.1487 956.2549,-3636.1487 956.2549,-3636.1487 165.1275,-3636.1487 165.1275,-3636.1487 159.1275,-3636.1487 153.1275,-3630.1487 153.1275,-3624.1487 153.1275,-3624.1487 153.1275,-488.1487 153.1275,-488.1487 153.1275,-482.1487 159.1275,-476.1487 165.1275,-476.1487"/>
<text text-anchor="middle" x="560.6912" y="-3623.3487" font-family="Times,serif" font-size="11.00" fill="#c0c0c0">Global</text>
</g>
<g id="clust2" class="cluster">
<title>cluster_\SilverStripe</title>
<path fill="none" stroke="#c0c0c0" d="M817.2549,-2112.1487C817.2549,-2112.1487 948.2549,-2112.1487 948.2549,-2112.1487 954.2549,-2112.1487 960.2549,-2118.1487 960.2549,-2124.1487 960.2549,-2124.1487 960.2549,-2414.1487 960.2549,-2414.1487 960.2549,-2420.1487 954.2549,-2426.1487 948.2549,-2426.1487 948.2549,-2426.1487 817.2549,-2426.1487 817.2549,-2426.1487 811.2549,-2426.1487 805.2549,-2420.1487 805.2549,-2414.1487 805.2549,-2414.1487 805.2549,-2124.1487 805.2549,-2124.1487 805.2549,-2118.1487 811.2549,-2112.1487 817.2549,-2112.1487"/>
<text text-anchor="middle" x="882.7549" y="-2413.3487" font-family="Times,serif" font-size="11.00" fill="#c0c0c0">SilverStripe</text>
</g>
<g id="clust3" class="cluster">
<title>cluster_\SilverStripe\FullTextSearch</title>
<path fill="none" stroke="#c0c0c0" d="M825.2549,-2120.1487C825.2549,-2120.1487 940.2549,-2120.1487 940.2549,-2120.1487 946.2549,-2120.1487 952.2549,-2126.1487 952.2549,-2132.1487 952.2549,-2132.1487 952.2549,-2386.1487 952.2549,-2386.1487 952.2549,-2392.1487 946.2549,-2398.1487 940.2549,-2398.1487 940.2549,-2398.1487 825.2549,-2398.1487 825.2549,-2398.1487 819.2549,-2398.1487 813.2549,-2392.1487 813.2549,-2386.1487 813.2549,-2386.1487 813.2549,-2132.1487 813.2549,-2132.1487 813.2549,-2126.1487 819.2549,-2120.1487 825.2549,-2120.1487"/>
<text text-anchor="middle" x="882.7549" y="-2385.3487" font-family="Times,serif" font-size="11.00" fill="#c0c0c0">FullTextSearch</text>
</g>
<g id="clust4" class="cluster">
<title>cluster_\SilverStripe\FullTextSearch\Solr</title>
<path fill="none" stroke="#c0c0c0" d="M844.7549,-2244.1487C844.7549,-2244.1487 920.7549,-2244.1487 920.7549,-2244.1487 926.7549,-2244.1487 932.7549,-2250.1487 932.7549,-2256.1487 932.7549,-2256.1487 932.7549,-2358.1487 932.7549,-2358.1487 932.7549,-2364.1487 926.7549,-2370.1487 920.7549,-2370.1487 920.7549,-2370.1487 844.7549,-2370.1487 844.7549,-2370.1487 838.7549,-2370.1487 832.7549,-2364.1487 832.7549,-2358.1487 832.7549,-2358.1487 832.7549,-2256.1487 832.7549,-2256.1487 832.7549,-2250.1487 838.7549,-2244.1487 844.7549,-2244.1487"/>
<text text-anchor="middle" x="882.7549" y="-2357.3487" font-family="Times,serif" font-size="11.00" fill="#c0c0c0">Solr</text>
</g>
<g id="clust5" class="cluster">
<title>cluster_\SilverStripe\FullTextSearch\Search</title>
<path fill="none" stroke="#c0c0c0" d="M833.2549,-2128.1487C833.2549,-2128.1487 932.2549,-2128.1487 932.2549,-2128.1487 938.2549,-2128.1487 944.2549,-2134.1487 944.2549,-2140.1487 944.2549,-2140.1487 944.2549,-2224.1487 944.2549,-2224.1487 944.2549,-2230.1487 938.2549,-2236.1487 932.2549,-2236.1487 932.2549,-2236.1487 833.2549,-2236.1487 833.2549,-2236.1487 827.2549,-2236.1487 821.2549,-2230.1487 821.2549,-2224.1487 821.2549,-2224.1487 821.2549,-2140.1487 821.2549,-2140.1487 821.2549,-2134.1487 827.2549,-2128.1487 833.2549,-2128.1487"/>
<text text-anchor="middle" x="882.7549" y="-2223.3487" font-family="Times,serif" font-size="11.00" fill="#c0c0c0">Search</text>
</g>
<g id="clust6" class="cluster">
<title>cluster_\SilverStripe\FullTextSearch\Search\Queries</title>
<path fill="none" stroke="#c0c0c0" d="M841.2549,-2136.1487C841.2549,-2136.1487 924.2549,-2136.1487 924.2549,-2136.1487 930.2549,-2136.1487 936.2549,-2142.1487 936.2549,-2148.1487 936.2549,-2148.1487 936.2549,-2196.1487 936.2549,-2196.1487 936.2549,-2202.1487 930.2549,-2208.1487 924.2549,-2208.1487 924.2549,-2208.1487 841.2549,-2208.1487 841.2549,-2208.1487 835.2549,-2208.1487 829.2549,-2202.1487 829.2549,-2196.1487 829.2549,-2196.1487 829.2549,-2148.1487 829.2549,-2148.1487 829.2549,-2142.1487 835.2549,-2136.1487 841.2549,-2136.1487"/>
<text text-anchor="middle" x="882.7549" y="-2195.3487" font-family="Times,serif" font-size="11.00" fill="#c0c0c0">Queries</text>
</g>
<g id="clust7" class="cluster">
<title>cluster_\Firesphere</title>
<path fill="none" stroke="#c0c0c0" d="M173.1275,-484.1487C173.1275,-484.1487 777.2549,-484.1487 777.2549,-484.1487 783.2549,-484.1487 789.2549,-490.1487 789.2549,-496.1487 789.2549,-496.1487 789.2549,-3596.1487 789.2549,-3596.1487 789.2549,-3602.1487 783.2549,-3608.1487 777.2549,-3608.1487 777.2549,-3608.1487 173.1275,-3608.1487 173.1275,-3608.1487 167.1275,-3608.1487 161.1275,-3602.1487 161.1275,-3596.1487 161.1275,-3596.1487 161.1275,-496.1487 161.1275,-496.1487 161.1275,-490.1487 167.1275,-484.1487 173.1275,-484.1487"/>
<text text-anchor="middle" x="475.1912" y="-3595.3487" font-family="Times,serif" font-size="11.00" fill="#c0c0c0">Firesphere</text>
</g>
<g id="clust8" class="cluster">
<title>cluster_\Firesphere\SolrSearch</title>
<path fill="none" stroke="#c0c0c0" d="M181.1275,-492.1487C181.1275,-492.1487 769.2549,-492.1487 769.2549,-492.1487 775.2549,-492.1487 781.2549,-498.1487 781.2549,-504.1487 781.2549,-504.1487 781.2549,-3568.1487 781.2549,-3568.1487 781.2549,-3574.1487 775.2549,-3580.1487 769.2549,-3580.1487 769.2549,-3580.1487 181.1275,-3580.1487 181.1275,-3580.1487 175.1275,-3580.1487 169.1275,-3574.1487 169.1275,-3568.1487 169.1275,-3568.1487 169.1275,-504.1487 169.1275,-504.1487 169.1275,-498.1487 175.1275,-492.1487 181.1275,-492.1487"/>
<text text-anchor="middle" x="475.1912" y="-3567.3487" font-family="Times,serif" font-size="11.00" fill="#c0c0c0">SolrSearch</text>
</g>
<g id="clust9" class="cluster">
<title>cluster_\Firesphere\SolrSearch\Compat</title>
<path fill="none" stroke="#c0c0c0" d="M590.7549,-3480.1487C590.7549,-3480.1487 754.7549,-3480.1487 754.7549,-3480.1487 760.7549,-3480.1487 766.7549,-3486.1487 766.7549,-3492.1487 766.7549,-3492.1487 766.7549,-3540.1487 766.7549,-3540.1487 766.7549,-3546.1487 760.7549,-3552.1487 754.7549,-3552.1487 754.7549,-3552.1487 590.7549,-3552.1487 590.7549,-3552.1487 584.7549,-3552.1487 578.7549,-3546.1487 578.7549,-3540.1487 578.7549,-3540.1487 578.7549,-3492.1487 578.7549,-3492.1487 578.7549,-3486.1487 584.7549,-3480.1487 590.7549,-3480.1487"/>
<text text-anchor="middle" x="672.7549" y="-3539.3487" font-family="Times,serif" font-size="11.00" fill="#c0c0c0">Compat</text>
</g>
<g id="clust10" class="cluster">
<title>cluster_\Firesphere\SolrSearch\Queries</title>
<path fill="none" stroke="#c0c0c0" d="M638.2549,-3400.1487C638.2549,-3400.1487 707.2549,-3400.1487 707.2549,-3400.1487 713.2549,-3400.1487 719.2549,-3406.1487 719.2549,-3412.1487 719.2549,-3412.1487 719.2549,-3460.1487 719.2549,-3460.1487 719.2549,-3466.1487 713.2549,-3472.1487 707.2549,-3472.1487 707.2549,-3472.1487 638.2549,-3472.1487 638.2549,-3472.1487 632.2549,-3472.1487 626.2549,-3466.1487 626.2549,-3460.1487 626.2549,-3460.1487 626.2549,-3412.1487 626.2549,-3412.1487 626.2549,-3406.1487 632.2549,-3400.1487 638.2549,-3400.1487"/>
<text text-anchor="middle" x="672.7549" y="-3459.3487" font-family="Times,serif" font-size="11.00" fill="#c0c0c0">Queries</text>
</g>
<g id="clust11" class="cluster">
<title>cluster_\Firesphere\SolrSearch\Jobs</title>
<path fill="none" stroke="#c0c0c0" d="M600.7549,-3078.1487C600.7549,-3078.1487 744.7549,-3078.1487 744.7549,-3078.1487 750.7549,-3078.1487 756.7549,-3084.1487 756.7549,-3090.1487 756.7549,-3090.1487 756.7549,-3246.1487 756.7549,-3246.1487 756.7549,-3252.1487 750.7549,-3258.1487 744.7549,-3258.1487 744.7549,-3258.1487 600.7549,-3258.1487 600.7549,-3258.1487 594.7549,-3258.1487 588.7549,-3252.1487 588.7549,-3246.1487 588.7549,-3246.1487 588.7549,-3090.1487 588.7549,-3090.1487 588.7549,-3084.1487 594.7549,-3078.1487 600.7549,-3078.1487"/>
<text text-anchor="middle" x="672.7549" y="-3245.3487" font-family="Times,serif" font-size="11.00" fill="#c0c0c0">Jobs</text>
</g>
<g id="clust12" class="cluster">
<title>cluster_\Firesphere\SolrSearch\Services</title>
<path fill="none" stroke="#c0c0c0" d="M617.7549,-2944.1487C617.7549,-2944.1487 727.7549,-2944.1487 727.7549,-2944.1487 733.7549,-2944.1487 739.7549,-2950.1487 739.7549,-2956.1487 739.7549,-2956.1487 739.7549,-3058.1487 739.7549,-3058.1487 739.7549,-3064.1487 733.7549,-3070.1487 727.7549,-3070.1487 727.7549,-3070.1487 617.7549,-3070.1487 617.7549,-3070.1487 611.7549,-3070.1487 605.7549,-3064.1487 605.7549,-3058.1487 605.7549,-3058.1487 605.7549,-2956.1487 605.7549,-2956.1487 605.7549,-2950.1487 611.7549,-2944.1487 617.7549,-2944.1487"/>
<text text-anchor="middle" x="672.7549" y="-3057.3487" font-family="Times,serif" font-size="11.00" fill="#c0c0c0">Services</text>
</g>
<g id="clust13" class="cluster">
<title>cluster_\Firesphere\SolrSearch\Extensions</title>
<path fill="none" stroke="#c0c0c0" d="M604.2549,-3266.1487C604.2549,-3266.1487 741.2549,-3266.1487 741.2549,-3266.1487 747.2549,-3266.1487 753.2549,-3272.1487 753.2549,-3278.1487 753.2549,-3278.1487 753.2549,-3380.1487 753.2549,-3380.1487 753.2549,-3386.1487 747.2549,-3392.1487 741.2549,-3392.1487 741.2549,-3392.1487 604.2549,-3392.1487 604.2549,-3392.1487 598.2549,-3392.1487 592.2549,-3386.1487 592.2549,-3380.1487 592.2549,-3380.1487 592.2549,-3278.1487 592.2549,-3278.1487 592.2549,-3272.1487 598.2549,-3266.1487 604.2549,-3266.1487"/>
<text text-anchor="middle" x="672.7549" y="-3379.3487" font-family="Times,serif" font-size="11.00" fill="#c0c0c0">Extensions</text>
</g>
<g id="clust14" class="cluster">
<title>cluster_\Firesphere\SolrSearch\Helpers</title>
<path fill="none" stroke="#c0c0c0" d="M624.7549,-2648.1487C624.7549,-2648.1487 720.7549,-2648.1487 720.7549,-2648.1487 726.7549,-2648.1487 732.7549,-2654.1487 732.7549,-2660.1487 732.7549,-2660.1487 732.7549,-2924.1487 732.7549,-2924.1487 732.7549,-2930.1487 726.7549,-2936.1487 720.7549,-2936.1487 720.7549,-2936.1487 624.7549,-2936.1487 624.7549,-2936.1487 618.7549,-2936.1487 612.7549,-2930.1487 612.7549,-2924.1487 612.7549,-2924.1487 612.7549,-2660.1487 612.7549,-2660.1487 612.7549,-2654.1487 618.7549,-2648.1487 624.7549,-2648.1487"/>
<text text-anchor="middle" x="672.7549" y="-2923.3487" font-family="Times,serif" font-size="11.00" fill="#c0c0c0">Helpers</text>
</g>
<g id="clust15" class="cluster">
<title>cluster_\Firesphere\SolrSearch\Admins</title>
<path fill="none" stroke="#c0c0c0" d="M631.2549,-2568.1487C631.2549,-2568.1487 714.2549,-2568.1487 714.2549,-2568.1487 720.2549,-2568.1487 726.2549,-2574.1487 726.2549,-2580.1487 726.2549,-2580.1487 726.2549,-2628.1487 726.2549,-2628.1487 726.2549,-2634.1487 720.2549,-2640.1487 714.2549,-2640.1487 714.2549,-2640.1487 631.2549,-2640.1487 631.2549,-2640.1487 625.2549,-2640.1487 619.2549,-2634.1487 619.2549,-2628.1487 619.2549,-2628.1487 619.2549,-2580.1487 619.2549,-2580.1487 619.2549,-2574.1487 625.2549,-2568.1487 631.2549,-2568.1487"/>
<text text-anchor="middle" x="672.7549" y="-2627.3487" font-family="Times,serif" font-size="11.00" fill="#c0c0c0">Admins</text>
</g>
<g id="clust16" class="cluster">
<title>cluster_\Firesphere\SolrSearch\Interfaces</title>
<path fill="none" stroke="#c0c0c0" d="M189.1275,-955.1487C189.1275,-955.1487 319.1275,-955.1487 319.1275,-955.1487 325.1275,-955.1487 331.1275,-961.1487 331.1275,-967.1487 331.1275,-967.1487 331.1275,-1069.1487 331.1275,-1069.1487 331.1275,-1075.1487 325.1275,-1081.1487 319.1275,-1081.1487 319.1275,-1081.1487 189.1275,-1081.1487 189.1275,-1081.1487 183.1275,-1081.1487 177.1275,-1075.1487 177.1275,-1069.1487 177.1275,-1069.1487 177.1275,-967.1487 177.1275,-967.1487 177.1275,-961.1487 183.1275,-955.1487 189.1275,-955.1487"/>
<text text-anchor="middle" x="254.1275" y="-1068.3487" font-family="Times,serif" font-size="11.00" fill="#c0c0c0">Interfaces</text>
</g>
<g id="clust17" class="cluster">
<title>cluster_\Firesphere\SolrSearch\Factories</title>
<path fill="none" stroke="#c0c0c0" d="M597.7549,-2434.1487C597.7549,-2434.1487 747.7549,-2434.1487 747.7549,-2434.1487 753.7549,-2434.1487 759.7549,-2440.1487 759.7549,-2446.1487 759.7549,-2446.1487 759.7549,-2548.1487 759.7549,-2548.1487 759.7549,-2554.1487 753.7549,-2560.1487 747.7549,-2560.1487 747.7549,-2560.1487 597.7549,-2560.1487 597.7549,-2560.1487 591.7549,-2560.1487 585.7549,-2554.1487 585.7549,-2548.1487 585.7549,-2548.1487 585.7549,-2446.1487 585.7549,-2446.1487 585.7549,-2440.1487 591.7549,-2434.1487 597.7549,-2434.1487"/>
<text text-anchor="middle" x="672.7549" y="-2547.3487" font-family="Times,serif" font-size="11.00" fill="#c0c0c0">Factories</text>
</g>
<g id="clust18" class="cluster">
<title>cluster_\Firesphere\SolrSearch\Models</title>
<path fill="none" stroke="#c0c0c0" d="M624.7549,-2246.1487C624.7549,-2246.1487 720.7549,-2246.1487 720.7549,-2246.1487 726.7549,-2246.1487 732.7549,-2252.1487 732.7549,-2258.1487 732.7549,-2258.1487 732.7549,-2414.1487 732.7549,-2414.1487 732.7549,-2420.1487 726.7549,-2426.1487 720.7549,-2426.1487 720.7549,-2426.1487 624.7549,-2426.1487 624.7549,-2426.1487 618.7549,-2426.1487 612.7549,-2420.1487 612.7549,-2414.1487 612.7549,-2414.1487 612.7549,-2258.1487 612.7549,-2258.1487 612.7549,-2252.1487 618.7549,-2246.1487 624.7549,-2246.1487"/>
<text text-anchor="middle" x="672.7549" y="-2413.3487" font-family="Times,serif" font-size="11.00" fill="#c0c0c0">Models</text>
</g>
<g id="clust19" class="cluster">
<title>cluster_\Firesphere\SolrSearch\Forms</title>
<path fill="none" stroke="#c0c0c0" d="M634.7549,-2166.1487C634.7549,-2166.1487 710.7549,-2166.1487 710.7549,-2166.1487 716.7549,-2166.1487 722.7549,-2172.1487 722.7549,-2178.1487 722.7549,-2178.1487 722.7549,-2226.1487 722.7549,-2226.1487 722.7549,-2232.1487 716.7549,-2238.1487 710.7549,-2238.1487 710.7549,-2238.1487 634.7549,-2238.1487 634.7549,-2238.1487 628.7549,-2238.1487 622.7549,-2232.1487 622.7549,-2226.1487 622.7549,-2226.1487 622.7549,-2178.1487 622.7549,-2178.1487 622.7549,-2172.1487 628.7549,-2166.1487 634.7549,-2166.1487"/>
<text text-anchor="middle" x="672.7549" y="-2225.3487" font-family="Times,serif" font-size="11.00" fill="#c0c0c0">Forms</text>
</g>
<g id="clust20" class="cluster">
<title>cluster_\Firesphere\SolrSearch\Traits</title>
<path fill="none" stroke="#c0c0c0" d="M584.2549,-1276.1487C584.2549,-1276.1487 761.2549,-1276.1487 761.2549,-1276.1487 767.2549,-1276.1487 773.2549,-1282.1487 773.2549,-1288.1487 773.2549,-1288.1487 773.2549,-2146.1487 773.2549,-2146.1487 773.2549,-2152.1487 767.2549,-2158.1487 761.2549,-2158.1487 761.2549,-2158.1487 584.2549,-2158.1487 584.2549,-2158.1487 578.2549,-2158.1487 572.2549,-2152.1487 572.2549,-2146.1487 572.2549,-2146.1487 572.2549,-1288.1487 572.2549,-1288.1487 572.2549,-1282.1487 578.2549,-1276.1487 584.2549,-1276.1487"/>
<text text-anchor="middle" x="672.7549" y="-2145.3487" font-family="Times,serif" font-size="11.00" fill="#c0c0c0">Traits</text>
</g>
<g id="clust21" class="cluster">
<title>cluster_\Firesphere\SolrSearch\States</title>
<path fill="none" stroke="#c0c0c0" d="M634.7549,-1196.1487C634.7549,-1196.1487 710.7549,-1196.1487 710.7549,-1196.1487 716.7549,-1196.1487 722.7549,-1202.1487 722.7549,-1208.1487 722.7549,-1208.1487 722.7549,-1256.1487 722.7549,-1256.1487 722.7549,-1262.1487 716.7549,-1268.1487 710.7549,-1268.1487 710.7549,-1268.1487 634.7549,-1268.1487 634.7549,-1268.1487 628.7549,-1268.1487 622.7549,-1262.1487 622.7549,-1256.1487 622.7549,-1256.1487 622.7549,-1208.1487 622.7549,-1208.1487 622.7549,-1202.1487 628.7549,-1196.1487 634.7549,-1196.1487"/>
<text text-anchor="middle" x="672.7549" y="-1255.3487" font-family="Times,serif" font-size="11.00" fill="#c0c0c0">States</text>
</g>
<g id="clust22" class="cluster">
<title>cluster_\Firesphere\SolrSearch\Indexes</title>
<path fill="none" stroke="#c0c0c0" d="M634.7549,-1116.1487C634.7549,-1116.1487 710.7549,-1116.1487 710.7549,-1116.1487 716.7549,-1116.1487 722.7549,-1122.1487 722.7549,-1128.1487 722.7549,-1128.1487 722.7549,-1176.1487 722.7549,-1176.1487 722.7549,-1182.1487 716.7549,-1188.1487 710.7549,-1188.1487 710.7549,-1188.1487 634.7549,-1188.1487 634.7549,-1188.1487 628.7549,-1188.1487 622.7549,-1182.1487 622.7549,-1176.1487 622.7549,-1176.1487 622.7549,-1128.1487 622.7549,-1128.1487 622.7549,-1122.1487 628.7549,-1116.1487 634.7549,-1116.1487"/>
<text text-anchor="middle" x="672.7549" y="-1175.3487" font-family="Times,serif" font-size="11.00" fill="#c0c0c0">Indexes</text>
</g>
<g id="clust23" class="cluster">
<title>cluster_\Firesphere\SolrSearch\Stores</title>
<path fill="none" stroke="#c0c0c0" d="M617.7549,-982.1487C617.7549,-982.1487 727.7549,-982.1487 727.7549,-982.1487 733.7549,-982.1487 739.7549,-988.1487 739.7549,-994.1487 739.7549,-994.1487 739.7549,-1096.1487 739.7549,-1096.1487 739.7549,-1102.1487 733.7549,-1108.1487 727.7549,-1108.1487 727.7549,-1108.1487 617.7549,-1108.1487 617.7549,-1108.1487 611.7549,-1108.1487 605.7549,-1102.1487 605.7549,-1096.1487 605.7549,-1096.1487 605.7549,-994.1487 605.7549,-994.1487 605.7549,-988.1487 611.7549,-982.1487 617.7549,-982.1487"/>
<text text-anchor="middle" x="672.7549" y="-1095.3487" font-family="Times,serif" font-size="11.00" fill="#c0c0c0">Stores</text>
</g>
<g id="clust24" class="cluster">
<title>cluster_\Firesphere\SolrSearch\Tasks</title>
<path fill="none" stroke="#c0c0c0" d="M597.7549,-740.1487C597.7549,-740.1487 747.7549,-740.1487 747.7549,-740.1487 753.7549,-740.1487 759.7549,-746.1487 759.7549,-752.1487 759.7549,-752.1487 759.7549,-962.1487 759.7549,-962.1487 759.7549,-968.1487 753.7549,-974.1487 747.7549,-974.1487 747.7549,-974.1487 597.7549,-974.1487 597.7549,-974.1487 591.7549,-974.1487 585.7549,-968.1487 585.7549,-962.1487 585.7549,-962.1487 585.7549,-752.1487 585.7549,-752.1487 585.7549,-746.1487 591.7549,-740.1487 597.7549,-740.1487"/>
<text text-anchor="middle" x="672.7549" y="-961.3487" font-family="Times,serif" font-size="11.00" fill="#c0c0c0">Tasks</text>
</g>
<g id="clust25" class="cluster">
<title>cluster_\Firesphere\SolrSearch\Results</title>
<path fill="none" stroke="#c0c0c0" d="M627.7549,-660.1487C627.7549,-660.1487 717.7549,-660.1487 717.7549,-660.1487 723.7549,-660.1487 729.7549,-666.1487 729.7549,-672.1487 729.7549,-672.1487 729.7549,-720.1487 729.7549,-720.1487 729.7549,-726.1487 723.7549,-732.1487 717.7549,-732.1487 717.7549,-732.1487 627.7549,-732.1487 627.7549,-732.1487 621.7549,-732.1487 615.7549,-726.1487 615.7549,-720.1487 615.7549,-720.1487 615.7549,-672.1487 615.7549,-672.1487 615.7549,-666.1487 621.7549,-660.1487 627.7549,-660.1487"/>
<text text-anchor="middle" x="672.7549" y="-719.3487" font-family="Times,serif" font-size="11.00" fill="#c0c0c0">Results</text>
</g>
<g id="clust26" class="cluster">
<title>cluster_\Firesphere\SolrSearch\Fluent</title>
<path fill="none" stroke="#c0c0c0" d="M617.7549,-580.1487C617.7549,-580.1487 727.7549,-580.1487 727.7549,-580.1487 733.7549,-580.1487 739.7549,-586.1487 739.7549,-592.1487 739.7549,-592.1487 739.7549,-640.1487 739.7549,-640.1487 739.7549,-646.1487 733.7549,-652.1487 727.7549,-652.1487 727.7549,-652.1487 617.7549,-652.1487 617.7549,-652.1487 611.7549,-652.1487 605.7549,-646.1487 605.7549,-640.1487 605.7549,-640.1487 605.7549,-592.1487 605.7549,-592.1487 605.7549,-586.1487 611.7549,-580.1487 617.7549,-580.1487"/>
<text text-anchor="middle" x="672.7549" y="-639.3487" font-family="Times,serif" font-size="11.00" fill="#c0c0c0">Fluent</text>
</g>
<g id="clust27" class="cluster">
<title>cluster_\Firesphere\SolrSearch\Subsites</title>
<path fill="none" stroke="#c0c0c0" d="M611.2549,-500.1487C611.2549,-500.1487 734.2549,-500.1487 734.2549,-500.1487 740.2549,-500.1487 746.2549,-506.1487 746.2549,-512.1487 746.2549,-512.1487 746.2549,-560.1487 746.2549,-560.1487 746.2549,-566.1487 740.2549,-572.1487 734.2549,-572.1487 734.2549,-572.1487 611.2549,-572.1487 611.2549,-572.1487 605.2549,-572.1487 599.2549,-566.1487 599.2549,-560.1487 599.2549,-560.1487 599.2549,-512.1487 599.2549,-512.1487 599.2549,-506.1487 605.2549,-500.1487 611.2549,-500.1487"/>
<text text-anchor="middle" x="672.7549" y="-559.3487" font-family="Times,serif" font-size="11.00" fill="#c0c0c0">Subsites</text>
</g>
<!-- \\SilverStripe\\FullTextSearch\\Solr\\SolrIndex -->
<g id="node1" class="node">
<title>\\SilverStripe\\FullTextSearch\\Solr\\SolrIndex</title>
<polygon fill="none" stroke="#000000" points="924.7549,-2342.1487 840.7549,-2342.1487 840.7549,-2306.1487 924.7549,-2306.1487 924.7549,-2342.1487"/>
<text text-anchor="start" x="848.7549" y="-2327.3487" font-family="Courier,monospace" font-size="11.00" fill="#000000">«abstract»</text>
<text text-anchor="start" x="852.2549" y="-2315.3487" font-family="Courier,monospace" font-size="11.00" fill="#000000">SolrIndex</text>
</g>
<!-- \\Firesphere\\SolrSearch\\Indexes\\BaseIndex -->
<g id="node44" class="node">
<title>\\Firesphere\\SolrSearch\\Indexes\\BaseIndex</title>
<polygon fill="none" stroke="#000000" points="714.7549,-1160.1487 630.7549,-1160.1487 630.7549,-1124.1487 714.7549,-1124.1487 714.7549,-1160.1487"/>
<text text-anchor="start" x="638.7549" y="-1145.3487" font-family="Courier,monospace" font-size="11.00" fill="#000000">«abstract»</text>
<text text-anchor="start" x="642.2549" y="-1133.3487" font-family="Courier,monospace" font-size="11.00" fill="#000000">BaseIndex</text>
</g>
<!-- \\SilverStripe\\FullTextSearch\\Solr\\SolrIndex&#45;&gt;\\Firesphere\\SolrSearch\\Indexes\\BaseIndex -->
<g id="edge1" class="edge">
<title>\\SilverStripe\\FullTextSearch\\Solr\\SolrIndex&#45;&gt;\\Firesphere\\SolrSearch\\Indexes\\BaseIndex</title>
<path fill="none" stroke="#000000" d="M840.3739,-2319.0463C826.9684,-2315.2171 813.5082,-2308.5876 805.2549,-2297.1487 769.3317,-2247.36 823.4094,-1243.1669 789.2549,-1192.1487 774.6731,-1170.3672 748.4462,-1158.0307 724.5644,-1151.0652"/>
<polygon fill="none" stroke="#000000" points="725.4274,-1147.6731 714.8635,-1148.4814 723.6258,-1154.4373 725.4274,-1147.6731"/>
</g>
<!-- \\SilverStripe\\FullTextSearch\\Solr\\Solr -->
<g id="node2" class="node">
<title>\\SilverStripe\\FullTextSearch\\Solr\\Solr</title>
<polygon fill="none" stroke="#000000" points="909.7549,-2288.1487 855.7549,-2288.1487 855.7549,-2252.1487 909.7549,-2252.1487 909.7549,-2288.1487"/>
<text text-anchor="middle" x="882.7549" y="-2267.3487" font-family="Courier,monospace" font-size="11.00" fill="#000000">Solr</text>
</g>
<!-- \\SilverStripe\\FullTextSearch\\Search\\Queries\\SearchQuery -->
<g id="node3" class="node">
<title>\\SilverStripe\\FullTextSearch\\Search\\Queries\\SearchQuery</title>
<polygon fill="none" stroke="#000000" points="928.2549,-2180.1487 837.2549,-2180.1487 837.2549,-2144.1487 928.2549,-2144.1487 928.2549,-2180.1487"/>
<text text-anchor="middle" x="882.7549" y="-2159.3487" font-family="Courier,monospace" font-size="11.00" fill="#000000">SearchQuery</text>
</g>
<!-- \\Firesphere\\SolrSearch\\Queries\\BaseQuery -->
<g id="node5" class="node">
<title>\\Firesphere\\SolrSearch\\Queries\\BaseQuery</title>
<polygon fill="none" stroke="#000000" points="711.2549,-3444.1487 634.2549,-3444.1487 634.2549,-3408.1487 711.2549,-3408.1487 711.2549,-3444.1487"/>
<text text-anchor="middle" x="672.7549" y="-3423.3487" font-family="Courier,monospace" font-size="11.00" fill="#000000">BaseQuery</text>
</g>
<!-- \\SilverStripe\\FullTextSearch\\Search\\Queries\\SearchQuery&#45;&gt;\\Firesphere\\SolrSearch\\Queries\\BaseQuery -->
<g id="edge2" class="edge">
<title>\\SilverStripe\\FullTextSearch\\Search\\Queries\\SearchQuery&#45;&gt;\\Firesphere\\SolrSearch\\Queries\\BaseQuery</title>
<path fill="none" stroke="#000000" d="M856.2036,-2180.2065C838.1381,-2194.1943 815.6873,-2215.3364 805.2549,-2240.1487 792.8079,-2269.7526 809.1041,-3370.9033 789.2549,-3396.1487 773.3849,-3416.3331 745.8905,-3424.0498 721.5962,-3426.6187"/>
<polygon fill="none" stroke="#000000" points="721.1154,-3423.1457 711.4236,-3427.4258 721.6691,-3430.1238 721.1154,-3423.1457"/>
</g>
<!-- \\Firesphere\\SolrSearch\\Compat\\FulltextSearchExtension -->
<g id="node4" class="node">
<title>\\Firesphere\\SolrSearch\\Compat\\FulltextSearchExtension</title>
<polygon fill="none" stroke="#000000" points="758.7549,-3524.1487 586.7549,-3524.1487 586.7549,-3488.1487 758.7549,-3488.1487 758.7549,-3524.1487"/>
<text text-anchor="middle" x="672.7549" y="-3503.3487" font-family="Courier,monospace" font-size="11.00" fill="#000000">FulltextSearchExtension</text>
</g>
<!-- \\SilverStripe\\Core\\Extension -->
<g id="node54" class="node">
<title>\\SilverStripe\\Core\\Extension</title>
<ellipse fill="none" stroke="#000000" cx="254.1275" cy="-450.1487" rx="144.0747" ry="18"/>
<text text-anchor="middle" x="254.1275" y="-446.4487" font-family="Times,serif" font-size="14.00" fill="#c0c0c0">\SilverStripe\Core\Extension</text>
</g>
<!-- \\Firesphere\\SolrSearch\\Compat\\FulltextSearchExtension&#45;&gt;\\SilverStripe\\Core\\Extension -->
<g id="edge3" class="edge">
<title>\\Firesphere\\SolrSearch\\Compat\\FulltextSearchExtension&#45;&gt;\\SilverStripe\\Core\\Extension</title>
<path fill="none" stroke="#000000" d="M586.4825,-3489.2968C581.0878,-3485.6905 576.2377,-3481.3551 572.2549,-3476.1487 486.9959,-3364.6974 542.6153,-1087.1996 508.2549,-951.1487 458.901,-755.7303 323.6199,-549.3286 273.3077,-477.0278"/>
<polygon fill="none" stroke="#000000" points="275.9363,-474.6799 267.3319,-468.4982 270.2033,-478.6965 275.9363,-474.6799"/>
</g>
<!-- \\Firesphere\\SolrSearch\\Jobs\\SolrConfigureJob -->
<g id="node6" class="node">
<title>\\Firesphere\\SolrSearch\\Jobs\\SolrConfigureJob</title>
<polygon fill="none" stroke="#000000" points="735.2549,-3230.1487 610.2549,-3230.1487 610.2549,-3194.1487 735.2549,-3194.1487 735.2549,-3230.1487"/>
<text text-anchor="middle" x="672.7549" y="-3209.3487" font-family="Courier,monospace" font-size="11.00" fill="#000000">SolrConfigureJob</text>
</g>
<!-- \\Symbiote\\QueuedJobs\\Services\\AbstractQueuedJob -->
<g id="node55" class="node">
<title>\\Symbiote\\QueuedJobs\\Services\\AbstractQueuedJob</title>
<ellipse fill="none" stroke="#000000" cx="254.1275" cy="-342.1487" rx="254.255" ry="18"/>
<text text-anchor="middle" x="254.1275" y="-338.4487" font-family="Times,serif" font-size="14.00" fill="#c0c0c0">\Symbiote\QueuedJobs\Services\AbstractQueuedJob</text>
</g>
<!-- \\Firesphere\\SolrSearch\\Jobs\\SolrConfigureJob&#45;&gt;\\Symbiote\\QueuedJobs\\Services\\AbstractQueuedJob -->
<g id="edge4" class="edge">
<title>\\Firesphere\\SolrSearch\\Jobs\\SolrConfigureJob&#45;&gt;\\Symbiote\\QueuedJobs\\Services\\AbstractQueuedJob</title>
<path fill="none" stroke="#000000" d="M610.0443,-3208.0556C595.5003,-3204.0127 581.5699,-3197.0149 572.2549,-3185.1487 475.6292,-3062.0593 614.2132,-484.3023 508.2549,-369.1487 469.5089,-327.0402 405.3023,-320.5072 351.1234,-324.3916"/>
<polygon fill="none" stroke="#000000" points="350.8035,-320.9061 341.1321,-325.2319 351.3902,-327.8814 350.8035,-320.9061"/>
</g>
<!-- \\Firesphere\\SolrSearch\\Jobs\\SolrIndexJob -->
<g id="node7" class="node">
<title>\\Firesphere\\SolrSearch\\Jobs\\SolrIndexJob</title>
<polygon fill="none" stroke="#000000" points="721.7549,-3176.1487 623.7549,-3176.1487 623.7549,-3140.1487 721.7549,-3140.1487 721.7549,-3176.1487"/>
<text text-anchor="middle" x="672.7549" y="-3155.3487" font-family="Courier,monospace" font-size="11.00" fill="#000000">SolrIndexJob</text>
</g>
<!-- \\Firesphere\\SolrSearch\\Jobs\\SolrIndexJob&#45;&gt;\\Symbiote\\QueuedJobs\\Services\\AbstractQueuedJob -->
<g id="edge5" class="edge">
<title>\\Firesphere\\SolrSearch\\Jobs\\SolrIndexJob&#45;&gt;\\Symbiote\\QueuedJobs\\Services\\AbstractQueuedJob</title>
<path fill="none" stroke="#000000" d="M623.6914,-3157.0278C604.627,-3153.8955 584.4739,-3146.707 572.2549,-3131.1487 477.4544,-3010.4395 612.2074,-482.0721 508.2549,-369.1487 469.5703,-327.1257 405.5272,-320.5397 351.4131,-324.3768"/>
<polygon fill="none" stroke="#000000" points="351.1076,-320.89 341.4327,-325.2084 351.6889,-327.8659 351.1076,-320.89"/>
</g>
<!-- \\Firesphere\\SolrSearch\\Jobs\\ClearDirtyClassesJob -->
<g id="node8" class="node">
<title>\\Firesphere\\SolrSearch\\Jobs\\ClearDirtyClassesJob</title>
<polygon fill="none" stroke="#000000" points="748.7549,-3122.1487 596.7549,-3122.1487 596.7549,-3086.1487 748.7549,-3086.1487 748.7549,-3122.1487"/>
<text text-anchor="middle" x="672.7549" y="-3101.3487" font-family="Courier,monospace" font-size="11.00" fill="#000000">ClearDirtyClassesJob</text>
</g>
<!-- \\Firesphere\\SolrSearch\\Jobs\\ClearDirtyClassesJob&#45;&gt;\\Symbiote\\QueuedJobs\\Services\\AbstractQueuedJob -->
<g id="edge6" class="edge">
<title>\\Firesphere\\SolrSearch\\Jobs\\ClearDirtyClassesJob&#45;&gt;\\Symbiote\\QueuedJobs\\Services\\AbstractQueuedJob</title>
<path fill="none" stroke="#000000" d="M596.4025,-3092.9015C587.0306,-3088.4603 578.5541,-3082.3975 572.2549,-3074.1487 481.0224,-2954.6803 610.0903,-479.7181 508.2549,-369.1487 469.56,-327.1351 405.517,-320.5491 351.4055,-324.3838"/>
<polygon fill="none" stroke="#000000" points="351.1007,-320.897 341.4257,-325.2149 351.6817,-327.8728 351.1007,-320.897"/>
</g>
<!-- \\Firesphere\\SolrSearch\\Services\\SolrCoreService -->
<g id="node9" class="node">
<title>\\Firesphere\\SolrSearch\\Services\\SolrCoreService</title>
<polygon fill="none" stroke="#000000" points="731.7549,-3042.1487 613.7549,-3042.1487 613.7549,-3006.1487 731.7549,-3006.1487 731.7549,-3042.1487"/>
<text text-anchor="middle" x="672.7549" y="-3021.3487" font-family="Courier,monospace" font-size="11.00" fill="#000000">SolrCoreService</text>
</g>
<!-- \\Firesphere\\SolrSearch\\Services\\SchemaService -->
<g id="node10" class="node">
<title>\\Firesphere\\SolrSearch\\Services\\SchemaService</title>
<polygon fill="none" stroke="#000000" points="724.7549,-2988.1487 620.7549,-2988.1487 620.7549,-2952.1487 724.7549,-2952.1487 724.7549,-2988.1487"/>
<text text-anchor="middle" x="672.7549" y="-2967.3487" font-family="Courier,monospace" font-size="11.00" fill="#000000">SchemaService</text>
</g>
<!-- \\SilverStripe\\View\\ViewableData -->
<g id="node56" class="node">
<title>\\SilverStripe\\View\\ViewableData</title>
<ellipse fill="none" stroke="#000000" cx="254.1275" cy="-288.1487" rx="163.2712" ry="18"/>
<text text-anchor="middle" x="254.1275" y="-284.4487" font-family="Times,serif" font-size="14.00" fill="#c0c0c0">\SilverStripe\View\ViewableData</text>
</g>
<!-- \\Firesphere\\SolrSearch\\Services\\SchemaService&#45;&gt;\\SilverStripe\\View\\ViewableData -->
<g id="edge7" class="edge">
<title>\\Firesphere\\SolrSearch\\Services\\SchemaService&#45;&gt;\\SilverStripe\\View\\ViewableData</title>
<path fill="none" stroke="#000000" d="M620.699,-2966.8926C602.4961,-2962.9673 583.7536,-2955.195 572.2549,-2940.1487 483.6773,-2824.2435 607.1189,-422.4143 508.2549,-315.1487 467.2096,-270.6152 397.6825,-265.8972 341.7177,-271.1958"/>
<polygon fill="none" stroke="#000000" points="341.0072,-267.7517 331.4356,-272.2944 341.7509,-274.7121 341.0072,-267.7517"/>
</g>
<!-- \\Firesphere\\SolrSearch\\Extensions\\DataObjectExtension -->
<g id="node11" class="node">
<title>\\Firesphere\\SolrSearch\\Extensions\\DataObjectExtension</title>
<polygon fill="none" stroke="#000000" points="745.2549,-3310.1487 600.2549,-3310.1487 600.2549,-3274.1487 745.2549,-3274.1487 745.2549,-3310.1487"/>
<text text-anchor="middle" x="672.7549" y="-3289.3487" font-family="Courier,monospace" font-size="11.00" fill="#000000">DataObjectExtension</text>
</g>
<!-- \\SilverStripe\\ORM\\DataExtension -->
<g id="node57" class="node">
<title>\\SilverStripe\\ORM\\DataExtension</title>
<ellipse fill="none" stroke="#000000" cx="254.1275" cy="-396.1487" rx="167.8704" ry="18"/>
<text text-anchor="middle" x="254.1275" y="-392.4487" font-family="Times,serif" font-size="14.00" fill="#c0c0c0">\SilverStripe\ORM\DataExtension</text>
</g>
<!-- \\Firesphere\\SolrSearch\\Extensions\\DataObjectExtension&#45;&gt;\\SilverStripe\\ORM\\DataExtension -->
<g id="edge8" class="edge">
<title>\\Firesphere\\SolrSearch\\Extensions\\DataObjectExtension&#45;&gt;\\SilverStripe\\ORM\\DataExtension</title>
<path fill="none" stroke="#000000" d="M600.1367,-3282.5784C589.2911,-3278.0238 579.3778,-3271.4868 572.2549,-3262.1487 476.5754,-3136.7119 615.0675,-539.2521 508.2549,-423.1487 467.3919,-378.7313 398.1999,-373.895 342.324,-379.1166"/>
<polygon fill="none" stroke="#000000" points="341.6325,-375.6701 332.0556,-380.2014 342.368,-382.6314 341.6325,-375.6701"/>
</g>
<!-- \\Firesphere\\SolrSearch\\Extensions\\GridFieldExtension -->
<g id="node12" class="node">
<title>\\Firesphere\\SolrSearch\\Extensions\\GridFieldExtension</title>
<polygon fill="none" stroke="#000000" points="741.7549,-3364.1487 603.7549,-3364.1487 603.7549,-3328.1487 741.7549,-3328.1487 741.7549,-3364.1487"/>
<text text-anchor="middle" x="672.7549" y="-3343.3487" font-family="Courier,monospace" font-size="11.00" fill="#000000">GridFieldExtension</text>
</g>
<!-- \\Firesphere\\SolrSearch\\Extensions\\GridFieldExtension&#45;&gt;\\SilverStripe\\Core\\Extension -->
<g id="edge9" class="edge">
<title>\\Firesphere\\SolrSearch\\Extensions\\GridFieldExtension&#45;&gt;\\SilverStripe\\Core\\Extension</title>
<path fill="none" stroke="#000000" d="M603.6012,-3340.0082C591.4643,-3335.7838 580.1971,-3329.2215 572.2549,-3319.1487 490.7706,-3215.8055 540.5874,-1078.7187 508.2549,-951.1487 458.7369,-755.7718 323.5567,-549.3446 273.2894,-477.0324"/>
<polygon fill="none" stroke="#000000" points="275.9204,-474.6875 267.319,-468.5014 270.1853,-478.7012 275.9204,-474.6875"/>
</g>
<!-- \\Firesphere\\SolrSearch\\Helpers\\DataResolver -->
<g id="node13" class="node">
<title>\\Firesphere\\SolrSearch\\Helpers\\DataResolver</title>
<polygon fill="none" stroke="#000000" points="721.7549,-2908.1487 623.7549,-2908.1487 623.7549,-2872.1487 721.7549,-2872.1487 721.7549,-2908.1487"/>
<text text-anchor="middle" x="672.7549" y="-2887.3487" font-family="Courier,monospace" font-size="11.00" fill="#000000">DataResolver</text>
</g>
<!-- \\Firesphere\\SolrSearch\\Helpers\\SolrLogger -->
<g id="node14" class="node">
<title>\\Firesphere\\SolrSearch\\Helpers\\SolrLogger</title>
<polygon fill="none" stroke="#000000" points="714.7549,-2854.1487 630.7549,-2854.1487 630.7549,-2818.1487 714.7549,-2818.1487 714.7549,-2854.1487"/>
<text text-anchor="middle" x="672.7549" y="-2833.3487" font-family="Courier,monospace" font-size="11.00" fill="#000000">SolrLogger</text>
</g>
<!-- \\Firesphere\\SolrSearch\\Helpers\\FieldResolver -->
<g id="node15" class="node">
<title>\\Firesphere\\SolrSearch\\Helpers\\FieldResolver</title>
<polygon fill="none" stroke="#000000" points="724.7549,-2800.1487 620.7549,-2800.1487 620.7549,-2764.1487 724.7549,-2764.1487 724.7549,-2800.1487"/>
<text text-anchor="middle" x="672.7549" y="-2779.3487" font-family="Courier,monospace" font-size="11.00" fill="#000000">FieldResolver</text>
</g>
<!-- \\Firesphere\\SolrSearch\\Helpers\\Statics -->
<g id="node16" class="node">
<title>\\Firesphere\\SolrSearch\\Helpers\\Statics</title>
<polygon fill="none" stroke="#000000" points="704.7549,-2746.1487 640.7549,-2746.1487 640.7549,-2710.1487 704.7549,-2710.1487 704.7549,-2746.1487"/>
<text text-anchor="middle" x="672.7549" y="-2725.3487" font-family="Courier,monospace" font-size="11.00" fill="#000000">Statics</text>
</g>
<!-- \\Firesphere\\SolrSearch\\Helpers\\Synonyms -->
<g id="node17" class="node">
<title>\\Firesphere\\SolrSearch\\Helpers\\Synonyms</title>
<polygon fill="none" stroke="#000000" points="708.2549,-2692.1487 637.2549,-2692.1487 637.2549,-2656.1487 708.2549,-2656.1487 708.2549,-2692.1487"/>
<text text-anchor="middle" x="672.7549" y="-2671.3487" font-family="Courier,monospace" font-size="11.00" fill="#000000">Synonyms</text>
</g>
<!-- \\Firesphere\\SolrSearch\\Admins\\SearchAdmin -->
<g id="node18" class="node">
<title>\\Firesphere\\SolrSearch\\Admins\\SearchAdmin</title>
<polygon fill="none" stroke="#000000" points="718.2549,-2612.1487 627.2549,-2612.1487 627.2549,-2576.1487 718.2549,-2576.1487 718.2549,-2612.1487"/>
<text text-anchor="middle" x="672.7549" y="-2591.3487" font-family="Courier,monospace" font-size="11.00" fill="#000000">SearchAdmin</text>
</g>
<!-- \\SilverStripe\\Admin\\ModelAdmin -->
<g id="node58" class="node">
<title>\\SilverStripe\\Admin\\ModelAdmin</title>
<ellipse fill="none" stroke="#000000" cx="254.1275" cy="-234.1487" rx="165.1707" ry="18"/>
<text text-anchor="middle" x="254.1275" y="-230.4487" font-family="Times,serif" font-size="14.00" fill="#c0c0c0">\SilverStripe\Admin\ModelAdmin</text>
</g>
<!-- \\Firesphere\\SolrSearch\\Admins\\SearchAdmin&#45;&gt;\\SilverStripe\\Admin\\ModelAdmin -->
<g id="edge10" class="edge">
<title>\\Firesphere\\SolrSearch\\Admins\\SearchAdmin&#45;&gt;\\SilverStripe\\Admin\\ModelAdmin</title>
<path fill="none" stroke="#000000" d="M627.2512,-2592.1276C607.1374,-2588.7067 585.1644,-2580.9815 572.2549,-2564.1487 416.4707,-2361.0207 682.064,-449.085 508.2549,-261.1487 467.2756,-216.8385 398.0909,-211.9956 342.2474,-217.1873"/>
<polygon fill="none" stroke="#000000" points="341.5645,-213.7397 331.9853,-218.2662 342.2965,-220.7013 341.5645,-213.7397"/>
</g>
<!-- \\Firesphere\\SolrSearch\\Interfaces\\ConfigStore -->
<g id="node19" class="node">
<title>\\Firesphere\\SolrSearch\\Interfaces\\ConfigStore</title>
<polygon fill="none" stroke="#000000" points="299.6275,-1053.1487 208.6275,-1053.1487 208.6275,-1017.1487 299.6275,-1017.1487 299.6275,-1053.1487"/>
<text text-anchor="middle" x="254.1275" y="-1032.3487" font-family="Courier,monospace" font-size="11.00" fill="#000000">ConfigStore</text>
</g>
<!-- \\Firesphere\\SolrSearch\\Interfaces\\SiteStateInterface -->
<g id="node20" class="node">
<title>\\Firesphere\\SolrSearch\\Interfaces\\SiteStateInterface</title>
<polygon fill="none" stroke="#000000" points="323.1275,-999.1487 185.1275,-999.1487 185.1275,-963.1487 323.1275,-963.1487 323.1275,-999.1487"/>
<text text-anchor="middle" x="254.1275" y="-978.3487" font-family="Courier,monospace" font-size="11.00" fill="#000000">SiteStateInterface</text>
</g>
<!-- \\Firesphere\\SolrSearch\\Factories\\DocumentFactory -->
<g id="node21" class="node">
<title>\\Firesphere\\SolrSearch\\Factories\\DocumentFactory</title>
<polygon fill="none" stroke="#000000" points="731.7549,-2532.1487 613.7549,-2532.1487 613.7549,-2496.1487 731.7549,-2496.1487 731.7549,-2532.1487"/>
<text text-anchor="middle" x="672.7549" y="-2511.3487" font-family="Courier,monospace" font-size="11.00" fill="#000000">DocumentFactory</text>
</g>
<!-- \\Firesphere\\SolrSearch\\Factories\\QueryComponentFactory -->
<g id="node22" class="node">
<title>\\Firesphere\\SolrSearch\\Factories\\QueryComponentFactory</title>
<polygon fill="none" stroke="#000000" points="751.7549,-2478.1487 593.7549,-2478.1487 593.7549,-2442.1487 751.7549,-2442.1487 751.7549,-2478.1487"/>
<text text-anchor="middle" x="672.7549" y="-2457.3487" font-family="Courier,monospace" font-size="11.00" fill="#000000">QueryComponentFactory</text>
</g>
<!-- \\Firesphere\\SolrSearch\\Models\\DirtyClass -->
<g id="node23" class="node">
<title>\\Firesphere\\SolrSearch\\Models\\DirtyClass</title>
<polygon fill="none" stroke="#000000" points="714.7549,-2344.1487 630.7549,-2344.1487 630.7549,-2308.1487 714.7549,-2308.1487 714.7549,-2344.1487"/>
<text text-anchor="middle" x="672.7549" y="-2323.3487" font-family="Courier,monospace" font-size="11.00" fill="#000000">DirtyClass</text>
</g>
<!-- \\SilverStripe\\ORM\\DataObject -->
<g id="node59" class="node">
<title>\\SilverStripe\\ORM\\DataObject</title>
<ellipse fill="none" stroke="#000000" cx="254.1275" cy="-180.1487" rx="152.9733" ry="18"/>
<text text-anchor="middle" x="254.1275" y="-176.4487" font-family="Times,serif" font-size="14.00" fill="#c0c0c0">\SilverStripe\ORM\DataObject</text>
</g>
<!-- \\Firesphere\\SolrSearch\\Models\\DirtyClass&#45;&gt;\\SilverStripe\\ORM\\DataObject -->
<g id="edge11" class="edge">
<title>\\Firesphere\\SolrSearch\\Models\\DirtyClass&#45;&gt;\\SilverStripe\\ORM\\DataObject</title>
<path fill="none" stroke="#000000" d="M630.7284,-2325.9681C609.7841,-2323.4878 586.045,-2316.5742 572.2549,-2299.1487 427.9411,-2116.7905 666.3915,-377.6591 508.2549,-207.1487 466.7015,-162.3438 396.302,-157.9346 340.1233,-163.4235"/>
<polygon fill="none" stroke="#000000" points="339.7273,-159.9458 330.1672,-164.5126 340.4886,-166.9043 339.7273,-159.9458"/>
</g>
<!-- \\Firesphere\\SolrSearch\\Models\\SolrLog -->
<g id="node24" class="node">
<title>\\Firesphere\\SolrSearch\\Models\\SolrLog</title>
<polygon fill="none" stroke="#000000" points="704.7549,-2290.1487 640.7549,-2290.1487 640.7549,-2254.1487 704.7549,-2254.1487 704.7549,-2290.1487"/>
<text text-anchor="middle" x="672.7549" y="-2269.3487" font-family="Courier,monospace" font-size="11.00" fill="#000000">SolrLog</text>
</g>
<!-- \\Firesphere\\SolrSearch\\Models\\SolrLog&#45;&gt;\\SilverStripe\\ORM\\DataObject -->
<g id="edge12" class="edge">
<title>\\Firesphere\\SolrSearch\\Models\\SolrLog&#45;&gt;\\SilverStripe\\ORM\\DataObject</title>
<path fill="none" stroke="#000000" d="M640.5818,-2271.8335C617.636,-2269.7243 588.1386,-2262.7814 572.2549,-2242.1487 434.2565,-2062.8912 662.1579,-372.9518 508.2549,-207.1487 466.6823,-162.3616 396.2843,-157.951 340.111,-163.4349"/>
<polygon fill="none" stroke="#000000" points="339.7164,-159.9571 330.156,-164.523 340.4771,-166.9156 339.7164,-159.9571"/>
</g>
<!-- \\SilverStripe\\Security\\PermissionProvider -->
<g id="node60" class="node">
<title>\\SilverStripe\\Security\\PermissionProvider</title>
<ellipse fill="none" stroke="#000000" cx="254.1275" cy="-126.1487" rx="206.0634" ry="18"/>
<text text-anchor="middle" x="254.1275" y="-122.4487" font-family="Times,serif" font-size="14.00" fill="#c0c0c0">\SilverStripe\Security\PermissionProvider</text>
</g>
<!-- \\Firesphere\\SolrSearch\\Models\\SolrLog&#45;&gt;\\SilverStripe\\Security\\PermissionProvider -->
<g id="edge13" class="edge">
<title>\\Firesphere\\SolrSearch\\Models\\SolrLog&#45;&gt;\\SilverStripe\\Security\\PermissionProvider</title>
<path fill="none" stroke="#000000" stroke-dasharray="1,5" d="M640.5769,-2271.8373C617.6286,-2269.73 588.1302,-2262.7878 572.2549,-2242.1487 430.6729,-2058.0817 666.1687,-323.4113 508.2549,-153.1487 468.5617,-110.3515 402.5496,-104.4115 347.7531,-108.7489"/>
<polygon fill="none" stroke="#000000" points="347.3004,-105.2756 337.6607,-109.6718 347.9379,-112.2465 347.3004,-105.2756"/>
</g>
<!-- \\Firesphere\\SolrSearch\\Models\\SearchSynonym -->
<g id="node25" class="node">
<title>\\Firesphere\\SolrSearch\\Models\\SearchSynonym</title>
<polygon fill="none" stroke="#000000" points="724.7549,-2398.1487 620.7549,-2398.1487 620.7549,-2362.1487 724.7549,-2362.1487 724.7549,-2398.1487"/>
<text text-anchor="middle" x="672.7549" y="-2377.3487" font-family="Courier,monospace" font-size="11.00" fill="#000000">SearchSynonym</text>
</g>
<!-- \\Firesphere\\SolrSearch\\Models\\SearchSynonym&#45;&gt;\\SilverStripe\\ORM\\DataObject -->
<g id="edge14" class="edge">
<title>\\Firesphere\\SolrSearch\\Models\\SearchSynonym&#45;&gt;\\SilverStripe\\ORM\\DataObject</title>
<path fill="none" stroke="#000000" d="M620.6012,-2378.4347C602.5004,-2375.0368 583.8531,-2367.8161 572.2549,-2353.1487 424.2913,-2166.0308 670.4024,-382.1187 508.2549,-207.1487 466.7187,-162.3278 396.318,-157.9198 340.1343,-163.4132"/>
<polygon fill="none" stroke="#000000" points="339.7371,-159.9357 330.1774,-164.5032 340.4989,-166.8942 339.7371,-159.9357"/>
</g>
<!-- \\Firesphere\\SolrSearch\\Forms\\SearchForm -->
<g id="node26" class="node">
<title>\\Firesphere\\SolrSearch\\Forms\\SearchForm</title>
<polygon fill="none" stroke="#000000" points="714.7549,-2210.1487 630.7549,-2210.1487 630.7549,-2174.1487 714.7549,-2174.1487 714.7549,-2210.1487"/>
<text text-anchor="middle" x="672.7549" y="-2189.3487" font-family="Courier,monospace" font-size="11.00" fill="#000000">SearchForm</text>
</g>
<!-- \\SilverStripe\\Forms\\Form -->
<g id="node61" class="node">
<title>\\SilverStripe\\Forms\\Form</title>
<ellipse fill="none" stroke="#000000" cx="254.1275" cy="-72.1487" rx="129.1772" ry="18"/>
<text text-anchor="middle" x="254.1275" y="-68.4487" font-family="Times,serif" font-size="14.00" fill="#c0c0c0">\SilverStripe\Forms\Form</text>
</g>
<!-- \\Firesphere\\SolrSearch\\Forms\\SearchForm&#45;&gt;\\SilverStripe\\Forms\\Form -->
<g id="edge15" class="edge">
<title>\\Firesphere\\SolrSearch\\Forms\\SearchForm&#45;&gt;\\SilverStripe\\Forms\\Form</title>
<path fill="none" stroke="#000000" d="M630.6218,-2190.643C609.6473,-2187.5174 585.9133,-2179.8986 572.2549,-2162.1487 432.3983,-1980.3974 664.2376,-267.2641 508.2549,-99.1487 465.5531,-53.1255 392.414,-49.7315 335.5328,-55.9018"/>
<polygon fill="none" stroke="#000000" points="334.9846,-52.4424 325.4731,-57.1095 335.819,-59.3925 334.9846,-52.4424"/>
</g>
<!-- \\Firesphere\\SolrSearch\\Traits\\DocumentFactoryTrait -->
<g id="node27" class="node">
<title>\\Firesphere\\SolrSearch\\Traits\\DocumentFactoryTrait</title>
<polygon fill="none" stroke="#000000" points="748.7549,-2130.1487 596.7549,-2130.1487 596.7549,-2094.1487 748.7549,-2094.1487 748.7549,-2130.1487"/>
<text text-anchor="middle" x="672.7549" y="-2109.3487" font-family="Courier,monospace" font-size="11.00" fill="#000000">DocumentFactoryTrait</text>
</g>
<!-- \\Firesphere\\SolrSearch\\Traits\\LoggerTrait -->
<g id="node28" class="node">
<title>\\Firesphere\\SolrSearch\\Traits\\LoggerTrait</title>
<polygon fill="none" stroke="#000000" points="718.2549,-2076.1487 627.2549,-2076.1487 627.2549,-2040.1487 718.2549,-2040.1487 718.2549,-2076.1487"/>
<text text-anchor="middle" x="672.7549" y="-2055.3487" font-family="Courier,monospace" font-size="11.00" fill="#000000">LoggerTrait</text>
</g>
<!-- \\Firesphere\\SolrSearch\\Traits\\QueryComponentBoostTrait -->
<g id="node29" class="node">
<title>\\Firesphere\\SolrSearch\\Traits\\QueryComponentBoostTrait</title>
<polygon fill="none" stroke="#000000" points="762.2549,-2022.1487 583.2549,-2022.1487 583.2549,-1986.1487 762.2549,-1986.1487 762.2549,-2022.1487"/>
<text text-anchor="middle" x="672.7549" y="-2001.3487" font-family="Courier,monospace" font-size="11.00" fill="#000000">QueryComponentBoostTrait</text>
</g>
<!-- \\Firesphere\\SolrSearch\\Traits\\QueryComponentFacetTrait -->
<g id="node30" class="node">
<title>\\Firesphere\\SolrSearch\\Traits\\QueryComponentFacetTrait</title>
<polygon fill="none" stroke="#000000" points="762.2549,-1968.1487 583.2549,-1968.1487 583.2549,-1932.1487 762.2549,-1932.1487 762.2549,-1968.1487"/>
<text text-anchor="middle" x="672.7549" y="-1947.3487" font-family="Courier,monospace" font-size="11.00" fill="#000000">QueryComponentFacetTrait</text>
</g>
<!-- \\Firesphere\\SolrSearch\\Traits\\QueryComponentFilterTrait -->
<g id="node31" class="node">
<title>\\Firesphere\\SolrSearch\\Traits\\QueryComponentFilterTrait</title>
<polygon fill="none" stroke="#000000" points="765.2549,-1914.1487 580.2549,-1914.1487 580.2549,-1878.1487 765.2549,-1878.1487 765.2549,-1914.1487"/>
<text text-anchor="middle" x="672.7549" y="-1893.3487" font-family="Courier,monospace" font-size="11.00" fill="#000000">QueryComponentFilterTrait</text>
</g>
<!-- \\Firesphere\\SolrSearch\\Traits\\BaseIndexTrait -->
<g id="node32" class="node">
<title>\\Firesphere\\SolrSearch\\Traits\\BaseIndexTrait</title>
<polygon fill="none" stroke="#000000" points="728.2549,-1860.1487 617.2549,-1860.1487 617.2549,-1824.1487 728.2549,-1824.1487 728.2549,-1860.1487"/>
<text text-anchor="middle" x="672.7549" y="-1839.3487" font-family="Courier,monospace" font-size="11.00" fill="#000000">BaseIndexTrait</text>
</g>
<!-- \\Firesphere\\SolrSearch\\Traits\\SolrIndexTrait -->
<g id="node33" class="node">
<title>\\Firesphere\\SolrSearch\\Traits\\SolrIndexTrait</title>
<polygon fill="none" stroke="#000000" points="728.2549,-1806.1487 617.2549,-1806.1487 617.2549,-1770.1487 728.2549,-1770.1487 728.2549,-1806.1487"/>
<text text-anchor="middle" x="672.7549" y="-1785.3487" font-family="Courier,monospace" font-size="11.00" fill="#000000">SolrIndexTrait</text>
</g>
<!-- \\Firesphere\\SolrSearch\\Traits\\GetSetSchemaServiceTrait -->
<g id="node34" class="node">
<title>\\Firesphere\\SolrSearch\\Traits\\GetSetSchemaServiceTrait</title>
<polygon fill="none" stroke="#000000" points="762.2549,-1752.1487 583.2549,-1752.1487 583.2549,-1716.1487 762.2549,-1716.1487 762.2549,-1752.1487"/>
<text text-anchor="middle" x="672.7549" y="-1731.3487" font-family="Courier,monospace" font-size="11.00" fill="#000000">GetSetSchemaServiceTrait</text>
</g>
<!-- \\Firesphere\\SolrSearch\\Traits\\CoreAdminTrait -->
<g id="node35" class="node">
<title>\\Firesphere\\SolrSearch\\Traits\\CoreAdminTrait</title>
<polygon fill="none" stroke="#000000" points="728.2549,-1698.1487 617.2549,-1698.1487 617.2549,-1662.1487 728.2549,-1662.1487 728.2549,-1698.1487"/>
<text text-anchor="middle" x="672.7549" y="-1677.3487" font-family="Courier,monospace" font-size="11.00" fill="#000000">CoreAdminTrait</text>
</g>
<!-- \\Firesphere\\SolrSearch\\Traits\\CoreServiceTrait -->
<g id="node36" class="node">
<title>\\Firesphere\\SolrSearch\\Traits\\CoreServiceTrait</title>
<polygon fill="none" stroke="#000000" points="735.2549,-1644.1487 610.2549,-1644.1487 610.2549,-1608.1487 735.2549,-1608.1487 735.2549,-1644.1487"/>
<text text-anchor="middle" x="672.7549" y="-1623.3487" font-family="Courier,monospace" font-size="11.00" fill="#000000">CoreServiceTrait</text>
</g>
<!-- \\Firesphere\\SolrSearch\\Traits\\GetSetSearchResolverTrait -->
<g id="node37" class="node">
<title>\\Firesphere\\SolrSearch\\Traits\\GetSetSearchResolverTrait</title>
<polygon fill="none" stroke="#000000" points="765.2549,-1590.1487 580.2549,-1590.1487 580.2549,-1554.1487 765.2549,-1554.1487 765.2549,-1590.1487"/>
<text text-anchor="middle" x="672.7549" y="-1569.3487" font-family="Courier,monospace" font-size="11.00" fill="#000000">GetSetSearchResolverTrait</text>
</g>
<!-- \\Firesphere\\SolrSearch\\Traits\\GetterSetterTrait -->
<g id="node38" class="node">
<title>\\Firesphere\\SolrSearch\\Traits\\GetterSetterTrait</title>
<polygon fill="none" stroke="#000000" points="738.2549,-1536.1487 607.2549,-1536.1487 607.2549,-1500.1487 738.2549,-1500.1487 738.2549,-1536.1487"/>
<text text-anchor="middle" x="672.7549" y="-1515.3487" font-family="Courier,monospace" font-size="11.00" fill="#000000">GetterSetterTrait</text>
</g>
<!-- \\Firesphere\\SolrSearch\\Traits\\SearchResultSetTrait -->
<g id="node39" class="node">
<title>\\Firesphere\\SolrSearch\\Traits\\SearchResultSetTrait</title>
<polygon fill="none" stroke="#000000" points="748.7549,-1482.1487 596.7549,-1482.1487 596.7549,-1446.1487 748.7549,-1446.1487 748.7549,-1482.1487"/>
<text text-anchor="middle" x="672.7549" y="-1461.3487" font-family="Courier,monospace" font-size="11.00" fill="#000000">SearchResultSetTrait</text>
</g>
<!-- \\Firesphere\\SolrSearch\\Traits\\SearchResultGetTrait -->
<g id="node40" class="node">
<title>\\Firesphere\\SolrSearch\\Traits\\SearchResultGetTrait</title>
<polygon fill="none" stroke="#000000" points="748.7549,-1428.1487 596.7549,-1428.1487 596.7549,-1392.1487 748.7549,-1392.1487 748.7549,-1428.1487"/>
<text text-anchor="middle" x="672.7549" y="-1407.3487" font-family="Courier,monospace" font-size="11.00" fill="#000000">SearchResultGetTrait</text>
</g>
<!-- \\Firesphere\\SolrSearch\\Traits\\BaseQueryTrait -->
<g id="node41" class="node">
<title>\\Firesphere\\SolrSearch\\Traits\\BaseQueryTrait</title>
<polygon fill="none" stroke="#000000" points="728.2549,-1374.1487 617.2549,-1374.1487 617.2549,-1338.1487 728.2549,-1338.1487 728.2549,-1374.1487"/>
<text text-anchor="middle" x="672.7549" y="-1353.3487" font-family="Courier,monospace" font-size="11.00" fill="#000000">BaseQueryTrait</text>
</g>
<!-- \\Firesphere\\SolrSearch\\Traits\\DataResolveTrait -->
<g id="node42" class="node">
<title>\\Firesphere\\SolrSearch\\Traits\\DataResolveTrait</title>
<polygon fill="none" stroke="#000000" points="735.2549,-1320.1487 610.2549,-1320.1487 610.2549,-1284.1487 735.2549,-1284.1487 735.2549,-1320.1487"/>
<text text-anchor="middle" x="672.7549" y="-1299.3487" font-family="Courier,monospace" font-size="11.00" fill="#000000">DataResolveTrait</text>
</g>
<!-- \\Firesphere\\SolrSearch\\States\\SiteState -->
<g id="node43" class="node">
<title>\\Firesphere\\SolrSearch\\States\\SiteState</title>
<polygon fill="none" stroke="#000000" points="714.7549,-1240.1487 630.7549,-1240.1487 630.7549,-1204.1487 714.7549,-1204.1487 714.7549,-1240.1487"/>
<text text-anchor="start" x="638.7549" y="-1225.3487" font-family="Courier,monospace" font-size="11.00" fill="#000000">«abstract»</text>
<text text-anchor="start" x="642.2549" y="-1213.3487" font-family="Courier,monospace" font-size="11.00" fill="#000000">SiteState</text>
</g>
<!-- \\Firesphere\\SolrSearch\\Stores\\PostConfigStore -->
<g id="node45" class="node">
<title>\\Firesphere\\SolrSearch\\Stores\\PostConfigStore</title>
<polygon fill="none" stroke="#000000" points="731.7549,-1080.1487 613.7549,-1080.1487 613.7549,-1044.1487 731.7549,-1044.1487 731.7549,-1080.1487"/>
<text text-anchor="middle" x="672.7549" y="-1059.3487" font-family="Courier,monospace" font-size="11.00" fill="#000000">PostConfigStore</text>
</g>
<!-- \\Firesphere\\SolrSearch\\Stores\\PostConfigStore&#45;&gt;\\Firesphere\\SolrSearch\\Interfaces\\ConfigStore -->
<g id="edge16" class="edge">
<title>\\Firesphere\\SolrSearch\\Stores\\PostConfigStore&#45;&gt;\\Firesphere\\SolrSearch\\Interfaces\\ConfigStore</title>
<path fill="none" stroke="#000000" stroke-dasharray="1,5" d="M613.6637,-1058.3375C532.8854,-1053.1276 389.0185,-1043.8487 309.9722,-1038.7505"/>
<polygon fill="none" stroke="#000000" points="309.9333,-1035.2408 299.7287,-1038.0898 309.4827,-1042.2263 309.9333,-1035.2408"/>
</g>
<!-- \\Firesphere\\SolrSearch\\Stores\\FileConfigStore -->
<g id="node46" class="node">
<title>\\Firesphere\\SolrSearch\\Stores\\FileConfigStore</title>
<polygon fill="none" stroke="#000000" points="731.7549,-1026.1487 613.7549,-1026.1487 613.7549,-990.1487 731.7549,-990.1487 731.7549,-1026.1487"/>
<text text-anchor="middle" x="672.7549" y="-1005.3487" font-family="Courier,monospace" font-size="11.00" fill="#000000">FileConfigStore</text>
</g>
<!-- \\Firesphere\\SolrSearch\\Stores\\FileConfigStore&#45;&gt;\\Firesphere\\SolrSearch\\Interfaces\\ConfigStore -->
<g id="edge17" class="edge">
<title>\\Firesphere\\SolrSearch\\Stores\\FileConfigStore&#45;&gt;\\Firesphere\\SolrSearch\\Interfaces\\ConfigStore</title>
<path fill="none" stroke="#000000" stroke-dasharray="1,5" d="M613.6637,-1011.9599C532.8854,-1017.1698 389.0185,-1026.4487 309.9722,-1031.5469"/>
<polygon fill="none" stroke="#000000" points="309.4827,-1028.0711 299.7287,-1032.2076 309.9333,-1035.0566 309.4827,-1028.0711"/>
</g>
<!-- \\Firesphere\\SolrSearch\\Tasks\\ClearErrorsTask -->
<g id="node47" class="node">
<title>\\Firesphere\\SolrSearch\\Tasks\\ClearErrorsTask</title>
<polygon fill="none" stroke="#000000" points="731.7549,-946.1487 613.7549,-946.1487 613.7549,-910.1487 731.7549,-910.1487 731.7549,-946.1487"/>
<text text-anchor="middle" x="672.7549" y="-925.3487" font-family="Courier,monospace" font-size="11.00" fill="#000000">ClearErrorsTask</text>
</g>
<!-- \\SilverStripe\\Dev\\BuildTask -->
<g id="node62" class="node">
<title>\\SilverStripe\\Dev\\BuildTask</title>
<ellipse fill="none" stroke="#000000" cx="254.1275" cy="-18.1487" rx="139.9756" ry="18"/>
<text text-anchor="middle" x="254.1275" y="-14.4487" font-family="Times,serif" font-size="14.00" fill="#c0c0c0">\SilverStripe\Dev\BuildTask</text>
</g>
<!-- \\Firesphere\\SolrSearch\\Tasks\\ClearErrorsTask&#45;&gt;\\SilverStripe\\Dev\\BuildTask -->
<g id="edge18" class="edge">
<title>\\Firesphere\\SolrSearch\\Tasks\\ClearErrorsTask&#45;&gt;\\SilverStripe\\Dev\\BuildTask</title>
<path fill="none" stroke="#000000" d="M613.6022,-924.5478C597.9511,-920.6507 582.5659,-913.6042 572.2549,-901.1487 450.6155,-754.2112 641.0158,-182.1206 508.2549,-45.1487 465.8857,-1.4355 395.9309,3.1755 340.1324,-1.9575"/>
<polygon fill="none" stroke="#000000" points="339.4728,1.4929 329.8882,-3.0221 340.1964,-5.4696 339.4728,1.4929"/>
</g>
<!-- \\Firesphere\\SolrSearch\\Tasks\\SolrIndexTask -->
<g id="node48" class="node">
<title>\\Firesphere\\SolrSearch\\Tasks\\SolrIndexTask</title>
<polygon fill="none" stroke="#000000" points="724.7549,-892.1487 620.7549,-892.1487 620.7549,-856.1487 724.7549,-856.1487 724.7549,-892.1487"/>
<text text-anchor="middle" x="672.7549" y="-871.3487" font-family="Courier,monospace" font-size="11.00" fill="#000000">SolrIndexTask</text>
</g>
<!-- \\Firesphere\\SolrSearch\\Tasks\\SolrIndexTask&#45;&gt;\\SilverStripe\\Dev\\BuildTask -->
<g id="edge19" class="edge">
<title>\\Firesphere\\SolrSearch\\Tasks\\SolrIndexTask&#45;&gt;\\SilverStripe\\Dev\\BuildTask</title>
<path fill="none" stroke="#000000" d="M620.7245,-872.0723C602.7507,-868.6178 584.1571,-861.4532 572.2549,-847.1487 457.9007,-709.7131 633.0096,-173.2178 508.2549,-45.1487 465.9221,-1.6913 396.3091,3.0448 340.6363,-1.9739"/>
<polygon fill="none" stroke="#000000" points="340.0058,1.48 330.4129,-3.0174 340.7166,-5.4838 340.0058,1.48"/>
</g>
<!-- \\Firesphere\\SolrSearch\\Tasks\\ClearDirtyClassesTask -->
<g id="node49" class="node">
<title>\\Firesphere\\SolrSearch\\Tasks\\ClearDirtyClassesTask</title>
<polygon fill="none" stroke="#000000" points="751.7549,-838.1487 593.7549,-838.1487 593.7549,-802.1487 751.7549,-802.1487 751.7549,-838.1487"/>
<text text-anchor="middle" x="672.7549" y="-817.3487" font-family="Courier,monospace" font-size="11.00" fill="#000000">ClearDirtyClassesTask</text>
</g>
<!-- \\Firesphere\\SolrSearch\\Tasks\\ClearDirtyClassesTask&#45;&gt;\\SilverStripe\\Dev\\BuildTask -->
<g id="edge20" class="edge">
<title>\\Firesphere\\SolrSearch\\Tasks\\ClearDirtyClassesTask&#45;&gt;\\SilverStripe\\Dev\\BuildTask</title>
<path fill="none" stroke="#000000" d="M593.5208,-809.2931C585.4192,-805.3274 578.0525,-800.0761 572.2549,-793.1487 465.1834,-665.212 625.0062,-164.3176 508.2549,-45.1487 465.8711,-1.8872 396.4329,2.9154 340.8428,-2.0272"/>
<polygon fill="none" stroke="#000000" points="340.2322,1.4291 330.6337,-3.0564 340.9344,-5.5356 340.2322,1.4291"/>
</g>
<!-- \\Firesphere\\SolrSearch\\Tasks\\SolrConfigureTask -->
<g id="node50" class="node">
<title>\\Firesphere\\SolrSearch\\Tasks\\SolrConfigureTask</title>
<polygon fill="none" stroke="#000000" points="738.2549,-784.1487 607.2549,-784.1487 607.2549,-748.1487 738.2549,-748.1487 738.2549,-784.1487"/>
<text text-anchor="middle" x="672.7549" y="-763.3487" font-family="Courier,monospace" font-size="11.00" fill="#000000">SolrConfigureTask</text>
</g>
<!-- \\Firesphere\\SolrSearch\\Tasks\\SolrConfigureTask&#45;&gt;\\SilverStripe\\Dev\\BuildTask -->
<g id="edge21" class="edge">
<title>\\Firesphere\\SolrSearch\\Tasks\\SolrConfigureTask&#45;&gt;\\SilverStripe\\Dev\\BuildTask</title>
<path fill="none" stroke="#000000" d="M607.0969,-758.5638C593.7752,-754.0278 581.142,-746.993 572.2549,-736.1487 474.5057,-616.873 616.5617,-154.9268 508.2549,-45.1487 465.8665,-2.1845 396.7703,2.7429 341.3191,-2.074"/>
<polygon fill="none" stroke="#000000" points="340.7411,1.386 331.1335,-3.0799 341.4291,-5.5801 340.7411,1.386"/>
</g>
<!-- \\Firesphere\\SolrSearch\\Results\\SearchResult -->
<g id="node51" class="node">
<title>\\Firesphere\\SolrSearch\\Results\\SearchResult</title>
<polygon fill="none" stroke="#000000" points="721.7549,-704.1487 623.7549,-704.1487 623.7549,-668.1487 721.7549,-668.1487 721.7549,-704.1487"/>
<text text-anchor="middle" x="672.7549" y="-683.3487" font-family="Courier,monospace" font-size="11.00" fill="#000000">SearchResult</text>
</g>
<!-- \\Firesphere\\SolrSearch\\Fluent\\FluentExtension -->
<g id="node52" class="node">
<title>\\Firesphere\\SolrSearch\\Fluent\\FluentExtension</title>
<polygon fill="none" stroke="#000000" points="731.7549,-624.1487 613.7549,-624.1487 613.7549,-588.1487 731.7549,-588.1487 731.7549,-624.1487"/>
<text text-anchor="middle" x="672.7549" y="-603.3487" font-family="Courier,monospace" font-size="11.00" fill="#000000">FluentExtension</text>
</g>
<!-- \\Firesphere\\SolrSearch\\Fluent\\FluentExtension&#45;&gt;\\SilverStripe\\Core\\Extension -->
<g id="edge22" class="edge">
<title>\\Firesphere\\SolrSearch\\Fluent\\FluentExtension&#45;&gt;\\SilverStripe\\Core\\Extension</title>
<path fill="none" stroke="#000000" d="M613.4926,-589.392C599.8732,-585.283 585.5026,-580.7397 572.2549,-576.1487 476.352,-542.9134 366.7546,-497.9153 304.4624,-471.6605"/>
<polygon fill="none" stroke="#000000" points="305.4542,-468.28 294.8804,-467.6124 302.73,-474.7282 305.4542,-468.28"/>
</g>
<!-- \\Firesphere\\SolrSearch\\Subsites\\SubsitesExtension -->
<g id="node53" class="node">
<title>\\Firesphere\\SolrSearch\\Subsites\\SubsitesExtension</title>
<polygon fill="none" stroke="#000000" points="738.2549,-544.1487 607.2549,-544.1487 607.2549,-508.1487 738.2549,-508.1487 738.2549,-544.1487"/>
<text text-anchor="middle" x="672.7549" y="-523.3487" font-family="Courier,monospace" font-size="11.00" fill="#000000">SubsitesExtension</text>
</g>
<!-- \\Firesphere\\SolrSearch\\Subsites\\SubsitesExtension&#45;&gt;\\SilverStripe\\ORM\\DataExtension -->
<g id="edge23" class="edge">
<title>\\Firesphere\\SolrSearch\\Subsites\\SubsitesExtension&#45;&gt;\\SilverStripe\\ORM\\DataExtension</title>
<path fill="none" stroke="#000000" d="M651.2786,-508.1369C621.3625,-484.1708 564.4674,-442.5684 508.2549,-423.1487 481.4333,-413.8826 452.1512,-407.5613 423.3124,-403.2916"/>
<polygon fill="none" stroke="#000000" points="423.524,-399.7872 413.1351,-401.8655 422.5526,-406.7194 423.524,-399.7872"/>
</g>
</g>
</svg>
