<?xml version="1.0" encoding="UTF-8" standalone="no"?>
<!DOCTYPE svg PUBLIC "-//W3C//DTD SVG 1.1//EN"
 "http://www.w3.org/Graphics/SVG/1.1/DTD/svg11.dtd">
<!-- Generated by graphviz version 2.40.1 (20161225.0304)
 -->
<!-- Title: G Pages: 1 -->
<svg width="1064pt" height="3721pt"
 viewBox="0.00 0.00 1064.25 3720.95" xmlns="http://www.w3.org/2000/svg" xmlns:xlink="http://www.w3.org/1999/xlink">
<g id="graph0" class="graph" transform="scale(1 1) rotate(0) translate(4 3716.9457)">
<title>G</title>
<polygon fill="#ffffff" stroke="transparent" points="-4,4 -4,-3716.9457 1060.2549,-3716.9457 1060.2549,4 -4,4"/>
<g id="clust1" class="cluster">
<title>cluster_Global</title>
<path fill="none" stroke="#c0c0c0" d="M165.1275,-152.8447C165.1275,-152.8447 1036.2549,-152.8447 1036.2549,-152.8447 1042.2549,-152.8447 1048.2549,-158.8447 1048.2549,-164.8447 1048.2549,-164.8447 1048.2549,-3386.8447 1048.2549,-3386.8447 1048.2549,-3392.8447 1042.2549,-3398.8447 1036.2549,-3398.8447 1036.2549,-3398.8447 165.1275,-3398.8447 165.1275,-3398.8447 159.1275,-3398.8447 153.1275,-3392.8447 153.1275,-3386.8447 153.1275,-3386.8447 153.1275,-164.8447 153.1275,-164.8447 153.1275,-158.8447 159.1275,-152.8447 165.1275,-152.8447"/>
<text text-anchor="middle" x="600.6912" y="-3386.0447" font-family="Times,serif" font-size="11.00" fill="#c0c0c0">Global</text>
</g>
<g id="clust2" class="cluster">
<title>cluster_\Firesphere</title>
<path fill="none" stroke="#c0c0c0" d="M173.1275,-160.8447C173.1275,-160.8447 1028.2549,-160.8447 1028.2549,-160.8447 1034.2549,-160.8447 1040.2549,-166.8447 1040.2549,-172.8447 1040.2549,-172.8447 1040.2549,-3036.8447 1040.2549,-3036.8447 1040.2549,-3042.8447 1034.2549,-3048.8447 1028.2549,-3048.8447 1028.2549,-3048.8447 173.1275,-3048.8447 173.1275,-3048.8447 167.1275,-3048.8447 161.1275,-3042.8447 161.1275,-3036.8447 161.1275,-3036.8447 161.1275,-172.8447 161.1275,-172.8447 161.1275,-166.8447 167.1275,-160.8447 173.1275,-160.8447"/>
<text text-anchor="middle" x="600.6912" y="-3036.0447" font-family="Times,serif" font-size="11.00" fill="#c0c0c0">Firesphere</text>
</g>
<g id="clust3" class="cluster">
<title>cluster_\Firesphere\SolrCompatibility</title>
<path fill="none" stroke="#c0c0c0" d="M833.2549,-168.8447C833.2549,-168.8447 1020.2549,-168.8447 1020.2549,-168.8447 1026.2549,-168.8447 1032.2549,-174.8447 1032.2549,-180.8447 1032.2549,-180.8447 1032.2549,-372.8447 1032.2549,-372.8447 1032.2549,-378.8447 1026.2549,-384.8447 1020.2549,-384.8447 1020.2549,-384.8447 833.2549,-384.8447 833.2549,-384.8447 827.2549,-384.8447 821.2549,-378.8447 821.2549,-372.8447 821.2549,-372.8447 821.2549,-180.8447 821.2549,-180.8447 821.2549,-174.8447 827.2549,-168.8447 833.2549,-168.8447"/>
<text text-anchor="middle" x="926.7549" y="-372.0447" font-family="Times,serif" font-size="11.00" fill="#c0c0c0">SolrCompatibility</text>
</g>
<g id="clust4" class="cluster">
<title>cluster_\Firesphere\SolrCompatibility\Extensions</title>
<path fill="none" stroke="#c0c0c0" d="M841.2549,-176.8447C841.2549,-176.8447 1012.2549,-176.8447 1012.2549,-176.8447 1018.2549,-176.8447 1024.2549,-182.8447 1024.2549,-188.8447 1024.2549,-188.8447 1024.2549,-344.8447 1024.2549,-344.8447 1024.2549,-350.8447 1018.2549,-356.8447 1012.2549,-356.8447 1012.2549,-356.8447 841.2549,-356.8447 841.2549,-356.8447 835.2549,-356.8447 829.2549,-350.8447 829.2549,-344.8447 829.2549,-344.8447 829.2549,-188.8447 829.2549,-188.8447 829.2549,-182.8447 835.2549,-176.8447 841.2549,-176.8447"/>
<text text-anchor="middle" x="926.7549" y="-344.0447" font-family="Times,serif" font-size="11.00" fill="#c0c0c0">Extensions</text>
</g>
<g id="clust5" class="cluster">
<title>cluster_\Firesphere\SolrSearch</title>
<path fill="none" stroke="#c0c0c0" d="M181.1275,-172.8447C181.1275,-172.8447 769.2549,-172.8447 769.2549,-172.8447 775.2549,-172.8447 781.2549,-178.8447 781.2549,-184.8447 781.2549,-184.8447 781.2549,-3008.8447 781.2549,-3008.8447 781.2549,-3014.8447 775.2549,-3020.8447 769.2549,-3020.8447 769.2549,-3020.8447 181.1275,-3020.8447 181.1275,-3020.8447 175.1275,-3020.8447 169.1275,-3014.8447 169.1275,-3008.8447 169.1275,-3008.8447 169.1275,-184.8447 169.1275,-184.8447 169.1275,-178.8447 175.1275,-172.8447 181.1275,-172.8447"/>
<text text-anchor="middle" x="475.1912" y="-3008.0447" font-family="Times,serif" font-size="11.00" fill="#c0c0c0">SolrSearch</text>
</g>
<g id="clust6" class="cluster">
<title>cluster_\Firesphere\SolrSearch\Tasks</title>
<path fill="none" stroke="#c0c0c0" d="M597.7549,-2410.8447C597.7549,-2410.8447 747.7549,-2410.8447 747.7549,-2410.8447 753.7549,-2410.8447 759.7549,-2416.8447 759.7549,-2422.8447 759.7549,-2422.8447 759.7549,-2632.8447 759.7549,-2632.8447 759.7549,-2638.8447 753.7549,-2644.8447 747.7549,-2644.8447 747.7549,-2644.8447 597.7549,-2644.8447 597.7549,-2644.8447 591.7549,-2644.8447 585.7549,-2638.8447 585.7549,-2632.8447 585.7549,-2632.8447 585.7549,-2422.8447 585.7549,-2422.8447 585.7549,-2416.8447 591.7549,-2410.8447 597.7549,-2410.8447"/>
<text text-anchor="middle" x="672.7549" y="-2632.0447" font-family="Times,serif" font-size="11.00" fill="#c0c0c0">Tasks</text>
</g>
<g id="clust7" class="cluster">
<title>cluster_\Firesphere\SolrSearch\Extensions</title>
<path fill="none" stroke="#c0c0c0" d="M604.2549,-2276.8447C604.2549,-2276.8447 741.2549,-2276.8447 741.2549,-2276.8447 747.2549,-2276.8447 753.2549,-2282.8447 753.2549,-2288.8447 753.2549,-2288.8447 753.2549,-2390.8447 753.2549,-2390.8447 753.2549,-2396.8447 747.2549,-2402.8447 741.2549,-2402.8447 741.2549,-2402.8447 604.2549,-2402.8447 604.2549,-2402.8447 598.2549,-2402.8447 592.2549,-2396.8447 592.2549,-2390.8447 592.2549,-2390.8447 592.2549,-2288.8447 592.2549,-2288.8447 592.2549,-2282.8447 598.2549,-2276.8447 604.2549,-2276.8447"/>
<text text-anchor="middle" x="672.7549" y="-2390.0447" font-family="Times,serif" font-size="11.00" fill="#c0c0c0">Extensions</text>
</g>
<g id="clust8" class="cluster">
<title>cluster_\Firesphere\SolrSearch\Models</title>
<path fill="none" stroke="#c0c0c0" d="M624.7549,-2812.8447C624.7549,-2812.8447 720.7549,-2812.8447 720.7549,-2812.8447 726.7549,-2812.8447 732.7549,-2818.8447 732.7549,-2824.8447 732.7549,-2824.8447 732.7549,-2980.8447 732.7549,-2980.8447 732.7549,-2986.8447 726.7549,-2992.8447 720.7549,-2992.8447 720.7549,-2992.8447 624.7549,-2992.8447 624.7549,-2992.8447 618.7549,-2992.8447 612.7549,-2986.8447 612.7549,-2980.8447 612.7549,-2980.8447 612.7549,-2824.8447 612.7549,-2824.8447 612.7549,-2818.8447 618.7549,-2812.8447 624.7549,-2812.8447"/>
<text text-anchor="middle" x="672.7549" y="-2980.0447" font-family="Times,serif" font-size="11.00" fill="#c0c0c0">Models</text>
</g>
<g id="clust9" class="cluster">
<title>cluster_\Firesphere\SolrSearch\Results</title>
<path fill="none" stroke="#c0c0c0" d="M627.7549,-2732.8447C627.7549,-2732.8447 717.7549,-2732.8447 717.7549,-2732.8447 723.7549,-2732.8447 729.7549,-2738.8447 729.7549,-2744.8447 729.7549,-2744.8447 729.7549,-2792.8447 729.7549,-2792.8447 729.7549,-2798.8447 723.7549,-2804.8447 717.7549,-2804.8447 717.7549,-2804.8447 627.7549,-2804.8447 627.7549,-2804.8447 621.7549,-2804.8447 615.7549,-2798.8447 615.7549,-2792.8447 615.7549,-2792.8447 615.7549,-2744.8447 615.7549,-2744.8447 615.7549,-2738.8447 621.7549,-2732.8447 627.7549,-2732.8447"/>
<text text-anchor="middle" x="672.7549" y="-2792.0447" font-family="Times,serif" font-size="11.00" fill="#c0c0c0">Results</text>
</g>
<g id="clust10" class="cluster">
<title>cluster_\Firesphere\SolrSearch\Admins</title>
<path fill="none" stroke="#c0c0c0" d="M631.2549,-2652.8447C631.2549,-2652.8447 714.2549,-2652.8447 714.2549,-2652.8447 720.2549,-2652.8447 726.2549,-2658.8447 726.2549,-2664.8447 726.2549,-2664.8447 726.2549,-2712.8447 726.2549,-2712.8447 726.2549,-2718.8447 720.2549,-2724.8447 714.2549,-2724.8447 714.2549,-2724.8447 631.2549,-2724.8447 631.2549,-2724.8447 625.2549,-2724.8447 619.2549,-2718.8447 619.2549,-2712.8447 619.2549,-2712.8447 619.2549,-2664.8447 619.2549,-2664.8447 619.2549,-2658.8447 625.2549,-2652.8447 631.2549,-2652.8447"/>
<text text-anchor="middle" x="672.7549" y="-2712.0447" font-family="Times,serif" font-size="11.00" fill="#c0c0c0">Admins</text>
</g>
<g id="clust11" class="cluster">
<title>cluster_\Firesphere\SolrSearch\States</title>
<path fill="none" stroke="#c0c0c0" d="M634.7549,-2196.8447C634.7549,-2196.8447 710.7549,-2196.8447 710.7549,-2196.8447 716.7549,-2196.8447 722.7549,-2202.8447 722.7549,-2208.8447 722.7549,-2208.8447 722.7549,-2256.8447 722.7549,-2256.8447 722.7549,-2262.8447 716.7549,-2268.8447 710.7549,-2268.8447 710.7549,-2268.8447 634.7549,-2268.8447 634.7549,-2268.8447 628.7549,-2268.8447 622.7549,-2262.8447 622.7549,-2256.8447 622.7549,-2256.8447 622.7549,-2208.8447 622.7549,-2208.8447 622.7549,-2202.8447 628.7549,-2196.8447 634.7549,-2196.8447"/>
<text text-anchor="middle" x="672.7549" y="-2256.0447" font-family="Times,serif" font-size="11.00" fill="#c0c0c0">States</text>
</g>
<g id="clust12" class="cluster">
<title>cluster_\Firesphere\SolrSearch\Traits</title>
<path fill="none" stroke="#c0c0c0" d="M584.2549,-1306.8447C584.2549,-1306.8447 761.2549,-1306.8447 761.2549,-1306.8447 767.2549,-1306.8447 773.2549,-1312.8447 773.2549,-1318.8447 773.2549,-1318.8447 773.2549,-2176.8447 773.2549,-2176.8447 773.2549,-2182.8447 767.2549,-2188.8447 761.2549,-2188.8447 761.2549,-2188.8447 584.2549,-2188.8447 584.2549,-2188.8447 578.2549,-2188.8447 572.2549,-2182.8447 572.2549,-2176.8447 572.2549,-2176.8447 572.2549,-1318.8447 572.2549,-1318.8447 572.2549,-1312.8447 578.2549,-1306.8447 584.2549,-1306.8447"/>
<text text-anchor="middle" x="672.7549" y="-2176.0447" font-family="Times,serif" font-size="11.00" fill="#c0c0c0">Traits</text>
</g>
<g id="clust13" class="cluster">
<title>cluster_\Firesphere\SolrSearch\Helpers</title>
<path fill="none" stroke="#c0c0c0" d="M624.7549,-1010.8447C624.7549,-1010.8447 720.7549,-1010.8447 720.7549,-1010.8447 726.7549,-1010.8447 732.7549,-1016.8447 732.7549,-1022.8447 732.7549,-1022.8447 732.7549,-1286.8447 732.7549,-1286.8447 732.7549,-1292.8447 726.7549,-1298.8447 720.7549,-1298.8447 720.7549,-1298.8447 624.7549,-1298.8447 624.7549,-1298.8447 618.7549,-1298.8447 612.7549,-1292.8447 612.7549,-1286.8447 612.7549,-1286.8447 612.7549,-1022.8447 612.7549,-1022.8447 612.7549,-1016.8447 618.7549,-1010.8447 624.7549,-1010.8447"/>
<text text-anchor="middle" x="672.7549" y="-1286.0447" font-family="Times,serif" font-size="11.00" fill="#c0c0c0">Helpers</text>
</g>
<g id="clust14" class="cluster">
<title>cluster_\Firesphere\SolrSearch\Services</title>
<path fill="none" stroke="#c0c0c0" d="M617.7549,-930.8447C617.7549,-930.8447 727.7549,-930.8447 727.7549,-930.8447 733.7549,-930.8447 739.7549,-936.8447 739.7549,-942.8447 739.7549,-942.8447 739.7549,-990.8447 739.7549,-990.8447 739.7549,-996.8447 733.7549,-1002.8447 727.7549,-1002.8447 727.7549,-1002.8447 617.7549,-1002.8447 617.7549,-1002.8447 611.7549,-1002.8447 605.7549,-996.8447 605.7549,-990.8447 605.7549,-990.8447 605.7549,-942.8447 605.7549,-942.8447 605.7549,-936.8447 611.7549,-930.8447 617.7549,-930.8447"/>
<text text-anchor="middle" x="672.7549" y="-990.0447" font-family="Times,serif" font-size="11.00" fill="#c0c0c0">Services</text>
</g>
<g id="clust15" class="cluster">
<title>cluster_\Firesphere\SolrSearch\Indexes</title>
<path fill="none" stroke="#c0c0c0" d="M634.7549,-850.8447C634.7549,-850.8447 710.7549,-850.8447 710.7549,-850.8447 716.7549,-850.8447 722.7549,-856.8447 722.7549,-862.8447 722.7549,-862.8447 722.7549,-910.8447 722.7549,-910.8447 722.7549,-916.8447 716.7549,-922.8447 710.7549,-922.8447 710.7549,-922.8447 634.7549,-922.8447 634.7549,-922.8447 628.7549,-922.8447 622.7549,-916.8447 622.7549,-910.8447 622.7549,-910.8447 622.7549,-862.8447 622.7549,-862.8447 622.7549,-856.8447 628.7549,-850.8447 634.7549,-850.8447"/>
<text text-anchor="middle" x="672.7549" y="-910.0447" font-family="Times,serif" font-size="11.00" fill="#c0c0c0">Indexes</text>
</g>
<g id="clust16" class="cluster">
<title>cluster_\Firesphere\SolrSearch\Jobs</title>
<path fill="none" stroke="#c0c0c0" d="M600.7549,-662.8447C600.7549,-662.8447 744.7549,-662.8447 744.7549,-662.8447 750.7549,-662.8447 756.7549,-668.8447 756.7549,-674.8447 756.7549,-674.8447 756.7549,-830.8447 756.7549,-830.8447 756.7549,-836.8447 750.7549,-842.8447 744.7549,-842.8447 744.7549,-842.8447 600.7549,-842.8447 600.7549,-842.8447 594.7549,-842.8447 588.7549,-836.8447 588.7549,-830.8447 588.7549,-830.8447 588.7549,-674.8447 588.7549,-674.8447 588.7549,-668.8447 594.7549,-662.8447 600.7549,-662.8447"/>
<text text-anchor="middle" x="672.7549" y="-830.0447" font-family="Times,serif" font-size="11.00" fill="#c0c0c0">Jobs</text>
</g>
<g id="clust17" class="cluster">
<title>cluster_\Firesphere\SolrSearch\Queries</title>
<path fill="none" stroke="#c0c0c0" d="M638.2549,-582.8447C638.2549,-582.8447 707.2549,-582.8447 707.2549,-582.8447 713.2549,-582.8447 719.2549,-588.8447 719.2549,-594.8447 719.2549,-594.8447 719.2549,-642.8447 719.2549,-642.8447 719.2549,-648.8447 713.2549,-654.8447 707.2549,-654.8447 707.2549,-654.8447 638.2549,-654.8447 638.2549,-654.8447 632.2549,-654.8447 626.2549,-648.8447 626.2549,-642.8447 626.2549,-642.8447 626.2549,-594.8447 626.2549,-594.8447 626.2549,-588.8447 632.2549,-582.8447 638.2549,-582.8447"/>
<text text-anchor="middle" x="672.7549" y="-642.0447" font-family="Times,serif" font-size="11.00" fill="#c0c0c0">Queries</text>
</g>
<g id="clust18" class="cluster">
<title>cluster_\Firesphere\SolrSearch\Stores</title>
<path fill="none" stroke="#c0c0c0" d="M617.7549,-180.8447C617.7549,-180.8447 727.7549,-180.8447 727.7549,-180.8447 733.7549,-180.8447 739.7549,-186.8447 739.7549,-192.8447 739.7549,-192.8447 739.7549,-294.8447 739.7549,-294.8447 739.7549,-300.8447 733.7549,-306.8447 727.7549,-306.8447 727.7549,-306.8447 617.7549,-306.8447 617.7549,-306.8447 611.7549,-306.8447 605.7549,-300.8447 605.7549,-294.8447 605.7549,-294.8447 605.7549,-192.8447 605.7549,-192.8447 605.7549,-186.8447 611.7549,-180.8447 617.7549,-180.8447"/>
<text text-anchor="middle" x="672.7549" y="-294.0447" font-family="Times,serif" font-size="11.00" fill="#c0c0c0">Stores</text>
</g>
<g id="clust19" class="cluster">
<title>cluster_\Firesphere\SolrSearch\Factories</title>
<path fill="none" stroke="#c0c0c0" d="M597.7549,-394.8447C597.7549,-394.8447 747.7549,-394.8447 747.7549,-394.8447 753.7549,-394.8447 759.7549,-400.8447 759.7549,-406.8447 759.7549,-406.8447 759.7549,-562.8447 759.7549,-562.8447 759.7549,-568.8447 753.7549,-574.8447 747.7549,-574.8447 747.7549,-574.8447 597.7549,-574.8447 597.7549,-574.8447 591.7549,-574.8447 585.7549,-568.8447 585.7549,-562.8447 585.7549,-562.8447 585.7549,-406.8447 585.7549,-406.8447 585.7549,-400.8447 591.7549,-394.8447 597.7549,-394.8447"/>
<text text-anchor="middle" x="672.7549" y="-562.0447" font-family="Times,serif" font-size="11.00" fill="#c0c0c0">Factories</text>
</g>
<g id="clust20" class="cluster">
<title>cluster_\Firesphere\SolrSearch\Forms</title>
<path fill="none" stroke="#c0c0c0" d="M634.7549,-314.8447C634.7549,-314.8447 710.7549,-314.8447 710.7549,-314.8447 716.7549,-314.8447 722.7549,-320.8447 722.7549,-326.8447 722.7549,-326.8447 722.7549,-374.8447 722.7549,-374.8447 722.7549,-380.8447 716.7549,-386.8447 710.7549,-386.8447 710.7549,-386.8447 634.7549,-386.8447 634.7549,-386.8447 628.7549,-386.8447 622.7549,-380.8447 622.7549,-374.8447 622.7549,-374.8447 622.7549,-326.8447 622.7549,-326.8447 622.7549,-320.8447 628.7549,-314.8447 634.7549,-314.8447"/>
<text text-anchor="middle" x="672.7549" y="-374.0447" font-family="Times,serif" font-size="11.00" fill="#c0c0c0">Forms</text>
</g>
<g id="clust21" class="cluster">
<title>cluster_\Firesphere\SolrSearch\Interfaces</title>
<path fill="none" stroke="#c0c0c0" d="M189.1275,-180.8447C189.1275,-180.8447 319.1275,-180.8447 319.1275,-180.8447 325.1275,-180.8447 331.1275,-186.8447 331.1275,-192.8447 331.1275,-192.8447 331.1275,-294.8447 331.1275,-294.8447 331.1275,-300.8447 325.1275,-306.8447 319.1275,-306.8447 319.1275,-306.8447 189.1275,-306.8447 189.1275,-306.8447 183.1275,-306.8447 177.1275,-300.8447 177.1275,-294.8447 177.1275,-294.8447 177.1275,-192.8447 177.1275,-192.8447 177.1275,-186.8447 183.1275,-180.8447 189.1275,-180.8447"/>
<text text-anchor="middle" x="254.1275" y="-294.0447" font-family="Times,serif" font-size="11.00" fill="#c0c0c0">Interfaces</text>
</g>
<g id="clust22" class="cluster">
<title>cluster_\Firesphere\SolrFluent</title>
<path fill="none" stroke="#c0c0c0" d="M836.7549,-670.8447C836.7549,-670.8447 1016.7549,-670.8447 1016.7549,-670.8447 1022.7549,-670.8447 1028.7549,-676.8447 1028.7549,-682.8447 1028.7549,-682.8447 1028.7549,-954.8447 1028.7549,-954.8447 1028.7549,-960.8447 1022.7549,-966.8447 1016.7549,-966.8447 1016.7549,-966.8447 836.7549,-966.8447 836.7549,-966.8447 830.7549,-966.8447 824.7549,-960.8447 824.7549,-954.8447 824.7549,-954.8447 824.7549,-682.8447 824.7549,-682.8447 824.7549,-676.8447 830.7549,-670.8447 836.7549,-670.8447"/>
<text text-anchor="middle" x="926.7549" y="-954.0447" font-family="Times,serif" font-size="11.00" fill="#c0c0c0">SolrFluent</text>
</g>
<g id="clust23" class="cluster">
<title>cluster_\Firesphere\SolrFluent\Extensions</title>
<path fill="none" stroke="#c0c0c0" d="M844.7549,-678.8447C844.7549,-678.8447 1008.7549,-678.8447 1008.7549,-678.8447 1014.7549,-678.8447 1020.7549,-684.8447 1020.7549,-690.8447 1020.7549,-690.8447 1020.7549,-846.8447 1020.7549,-846.8447 1020.7549,-852.8447 1014.7549,-858.8447 1008.7549,-858.8447 1008.7549,-858.8447 844.7549,-858.8447 844.7549,-858.8447 838.7549,-858.8447 832.7549,-852.8447 832.7549,-846.8447 832.7549,-846.8447 832.7549,-690.8447 832.7549,-690.8447 832.7549,-684.8447 838.7549,-678.8447 844.7549,-678.8447"/>
<text text-anchor="middle" x="926.7549" y="-846.0447" font-family="Times,serif" font-size="11.00" fill="#c0c0c0">Extensions</text>
</g>
<g id="clust24" class="cluster">
<title>cluster_\Firesphere\SolrFluent\States</title>
<path fill="none" stroke="#c0c0c0" d="M871.7549,-866.8447C871.7549,-866.8447 981.7549,-866.8447 981.7549,-866.8447 987.7549,-866.8447 993.7549,-872.8447 993.7549,-878.8447 993.7549,-878.8447 993.7549,-926.8447 993.7549,-926.8447 993.7549,-932.8447 987.7549,-938.8447 981.7549,-938.8447 981.7549,-938.8447 871.7549,-938.8447 871.7549,-938.8447 865.7549,-938.8447 859.7549,-932.8447 859.7549,-926.8447 859.7549,-926.8447 859.7549,-878.8447 859.7549,-878.8447 859.7549,-872.8447 865.7549,-866.8447 871.7549,-866.8447"/>
<text text-anchor="middle" x="926.7549" y="-926.0447" font-family="Times,serif" font-size="11.00" fill="#c0c0c0">States</text>
</g>
<g id="clust25" class="cluster">
<title>cluster_\Firesphere\SolrSubsites</title>
<path fill="none" stroke="#c0c0c0" d="M857.2549,-974.8447C857.2549,-974.8447 996.2549,-974.8447 996.2549,-974.8447 1002.2549,-974.8447 1008.2549,-980.8447 1008.2549,-986.8447 1008.2549,-986.8447 1008.2549,-1150.8447 1008.2549,-1150.8447 1008.2549,-1156.8447 1002.2549,-1162.8447 996.2549,-1162.8447 996.2549,-1162.8447 857.2549,-1162.8447 857.2549,-1162.8447 851.2549,-1162.8447 845.2549,-1156.8447 845.2549,-1150.8447 845.2549,-1150.8447 845.2549,-986.8447 845.2549,-986.8447 845.2549,-980.8447 851.2549,-974.8447 857.2549,-974.8447"/>
<text text-anchor="middle" x="926.7549" y="-1150.0447" font-family="Times,serif" font-size="11.00" fill="#c0c0c0">SolrSubsites</text>
</g>
<g id="clust26" class="cluster">
<title>cluster_\Firesphere\SolrSubsites\Extensions</title>
<path fill="none" stroke="#c0c0c0" d="M865.2549,-982.8447C865.2549,-982.8447 988.2549,-982.8447 988.2549,-982.8447 994.2549,-982.8447 1000.2549,-988.8447 1000.2549,-994.8447 1000.2549,-994.8447 1000.2549,-1042.8447 1000.2549,-1042.8447 1000.2549,-1048.8447 994.2549,-1054.8447 988.2549,-1054.8447 988.2549,-1054.8447 865.2549,-1054.8447 865.2549,-1054.8447 859.2549,-1054.8447 853.2549,-1048.8447 853.2549,-1042.8447 853.2549,-1042.8447 853.2549,-994.8447 853.2549,-994.8447 853.2549,-988.8447 859.2549,-982.8447 865.2549,-982.8447"/>
<text text-anchor="middle" x="926.7549" y="-1042.0447" font-family="Times,serif" font-size="11.00" fill="#c0c0c0">Extensions</text>
</g>
<g id="clust27" class="cluster">
<title>cluster_\Firesphere\SolrSubsites\States</title>
<path fill="none" stroke="#c0c0c0" d="M881.7549,-1062.8447C881.7549,-1062.8447 971.7549,-1062.8447 971.7549,-1062.8447 977.7549,-1062.8447 983.7549,-1068.8447 983.7549,-1074.8447 983.7549,-1074.8447 983.7549,-1122.8447 983.7549,-1122.8447 983.7549,-1128.8447 977.7549,-1134.8447 971.7549,-1134.8447 971.7549,-1134.8447 881.7549,-1134.8447 881.7549,-1134.8447 875.7549,-1134.8447 869.7549,-1128.8447 869.7549,-1122.8447 869.7549,-1122.8447 869.7549,-1074.8447 869.7549,-1074.8447 869.7549,-1068.8447 875.7549,-1062.8447 881.7549,-1062.8447"/>
<text text-anchor="middle" x="926.7549" y="-1122.0447" font-family="Times,serif" font-size="11.00" fill="#c0c0c0">States</text>
</g>
<g id="clust28" class="cluster">
<title>cluster_\Firesphere\SolrPermissions</title>
<path fill="none" stroke="#c0c0c0" d="M833.2549,-392.8447C833.2549,-392.8447 1020.2549,-392.8447 1020.2549,-392.8447 1026.2549,-392.8447 1032.2549,-398.8447 1032.2549,-404.8447 1032.2549,-404.8447 1032.2549,-650.8447 1032.2549,-650.8447 1032.2549,-656.8447 1026.2549,-662.8447 1020.2549,-662.8447 1020.2549,-662.8447 833.2549,-662.8447 833.2549,-662.8447 827.2549,-662.8447 821.2549,-656.8447 821.2549,-650.8447 821.2549,-650.8447 821.2549,-404.8447 821.2549,-404.8447 821.2549,-398.8447 827.2549,-392.8447 833.2549,-392.8447"/>
<text text-anchor="middle" x="926.7549" y="-650.0447" font-family="Times,serif" font-size="11.00" fill="#c0c0c0">SolrPermissions</text>
</g>
<g id="clust29" class="cluster">
<title>cluster_\Firesphere\SolrPermissions\Extensions</title>
<path fill="none" stroke="#c0c0c0" d="M841.2549,-400.8447C841.2549,-400.8447 1012.2549,-400.8447 1012.2549,-400.8447 1018.2549,-400.8447 1024.2549,-406.8447 1024.2549,-412.8447 1024.2549,-412.8447 1024.2549,-622.8447 1024.2549,-622.8447 1024.2549,-628.8447 1018.2549,-634.8447 1012.2549,-634.8447 1012.2549,-634.8447 841.2549,-634.8447 841.2549,-634.8447 835.2549,-634.8447 829.2549,-628.8447 829.2549,-622.8447 829.2549,-622.8447 829.2549,-412.8447 829.2549,-412.8447 829.2549,-406.8447 835.2549,-400.8447 841.2549,-400.8447"/>
<text text-anchor="middle" x="926.7549" y="-622.0447" font-family="Times,serif" font-size="11.00" fill="#c0c0c0">Extensions</text>
</g>
<g id="clust30" class="cluster">
<title>cluster_\SilverStripe</title>
<path fill="none" stroke="#c0c0c0" d="M861.2549,-3056.8447C861.2549,-3056.8447 992.2549,-3056.8447 992.2549,-3056.8447 998.2549,-3056.8447 1004.2549,-3062.8447 1004.2549,-3068.8447 1004.2549,-3068.8447 1004.2549,-3358.8447 1004.2549,-3358.8447 1004.2549,-3364.8447 998.2549,-3370.8447 992.2549,-3370.8447 992.2549,-3370.8447 861.2549,-3370.8447 861.2549,-3370.8447 855.2549,-3370.8447 849.2549,-3364.8447 849.2549,-3358.8447 849.2549,-3358.8447 849.2549,-3068.8447 849.2549,-3068.8447 849.2549,-3062.8447 855.2549,-3056.8447 861.2549,-3056.8447"/>
<text text-anchor="middle" x="926.7549" y="-3358.0447" font-family="Times,serif" font-size="11.00" fill="#c0c0c0">SilverStripe</text>
</g>
<g id="clust31" class="cluster">
<title>cluster_\SilverStripe\FullTextSearch</title>
<path fill="none" stroke="#c0c0c0" d="M869.2549,-3064.8447C869.2549,-3064.8447 984.2549,-3064.8447 984.2549,-3064.8447 990.2549,-3064.8447 996.2549,-3070.8447 996.2549,-3076.8447 996.2549,-3076.8447 996.2549,-3330.8447 996.2549,-3330.8447 996.2549,-3336.8447 990.2549,-3342.8447 984.2549,-3342.8447 984.2549,-3342.8447 869.2549,-3342.8447 869.2549,-3342.8447 863.2549,-3342.8447 857.2549,-3336.8447 857.2549,-3330.8447 857.2549,-3330.8447 857.2549,-3076.8447 857.2549,-3076.8447 857.2549,-3070.8447 863.2549,-3064.8447 869.2549,-3064.8447"/>
<text text-anchor="middle" x="926.7549" y="-3330.0447" font-family="Times,serif" font-size="11.00" fill="#c0c0c0">FullTextSearch</text>
</g>
<g id="clust32" class="cluster">
<title>cluster_\SilverStripe\FullTextSearch\Solr</title>
<path fill="none" stroke="#c0c0c0" d="M888.7549,-3188.8447C888.7549,-3188.8447 964.7549,-3188.8447 964.7549,-3188.8447 970.7549,-3188.8447 976.7549,-3194.8447 976.7549,-3200.8447 976.7549,-3200.8447 976.7549,-3302.8447 976.7549,-3302.8447 976.7549,-3308.8447 970.7549,-3314.8447 964.7549,-3314.8447 964.7549,-3314.8447 888.7549,-3314.8447 888.7549,-3314.8447 882.7549,-3314.8447 876.7549,-3308.8447 876.7549,-3302.8447 876.7549,-3302.8447 876.7549,-3200.8447 876.7549,-3200.8447 876.7549,-3194.8447 882.7549,-3188.8447 888.7549,-3188.8447"/>
<text text-anchor="middle" x="926.7549" y="-3302.0447" font-family="Times,serif" font-size="11.00" fill="#c0c0c0">Solr</text>
</g>
<g id="clust33" class="cluster">
<title>cluster_\SilverStripe\FullTextSearch\Search</title>
<path fill="none" stroke="#c0c0c0" d="M877.2549,-3072.8447C877.2549,-3072.8447 976.2549,-3072.8447 976.2549,-3072.8447 982.2549,-3072.8447 988.2549,-3078.8447 988.2549,-3084.8447 988.2549,-3084.8447 988.2549,-3168.8447 988.2549,-3168.8447 988.2549,-3174.8447 982.2549,-3180.8447 976.2549,-3180.8447 976.2549,-3180.8447 877.2549,-3180.8447 877.2549,-3180.8447 871.2549,-3180.8447 865.2549,-3174.8447 865.2549,-3168.8447 865.2549,-3168.8447 865.2549,-3084.8447 865.2549,-3084.8447 865.2549,-3078.8447 871.2549,-3072.8447 877.2549,-3072.8447"/>
<text text-anchor="middle" x="926.7549" y="-3168.0447" font-family="Times,serif" font-size="11.00" fill="#c0c0c0">Search</text>
</g>
<g id="clust34" class="cluster">
<title>cluster_\SilverStripe\FullTextSearch\Search\Queries</title>
<path fill="none" stroke="#c0c0c0" d="M885.2549,-3080.8447C885.2549,-3080.8447 968.2549,-3080.8447 968.2549,-3080.8447 974.2549,-3080.8447 980.2549,-3086.8447 980.2549,-3092.8447 980.2549,-3092.8447 980.2549,-3140.8447 980.2549,-3140.8447 980.2549,-3146.8447 974.2549,-3152.8447 968.2549,-3152.8447 968.2549,-3152.8447 885.2549,-3152.8447 885.2549,-3152.8447 879.2549,-3152.8447 873.2549,-3146.8447 873.2549,-3140.8447 873.2549,-3140.8447 873.2549,-3092.8447 873.2549,-3092.8447 873.2549,-3086.8447 879.2549,-3080.8447 885.2549,-3080.8447"/>
<text text-anchor="middle" x="926.7549" y="-3140.0447" font-family="Times,serif" font-size="11.00" fill="#c0c0c0">Queries</text>
</g>
<!-- \\Firesphere\\SolrCompatibility\\Extensions\\SolrCoreServiceExtension -->
<g id="node1" class="node">
<title>\\Firesphere\\SolrCompatibility\\Extensions\\SolrCoreServiceExtension</title>
<polygon fill="none" stroke="#000000" points="1016.2549,-328.8447 837.2549,-328.8447 837.2549,-292.8447 1016.2549,-292.8447 1016.2549,-328.8447"/>
<text text-anchor="middle" x="926.7549" y="-308.0447" font-family="Courier,monospace" font-size="11.00" fill="#000000">SolrCoreServiceExtension</text>
</g>
<!-- \\SilverStripe\\Core\\Extension -->
<g id="node64" class="node">
<title>\\SilverStripe\\Core\\Extension</title>
<ellipse fill="none" stroke="#000000" cx="254.1275" cy="-18.8447" rx="144.0747" ry="18"/>
<text text-anchor="middle" x="254.1275" y="-15.1447" font-family="Times,serif" font-size="14.00" fill="#c0c0c0">\SilverStripe\Core\Extension</text>
</g>
<!-- \\Firesphere\\SolrCompatibility\\Extensions\\SolrCoreServiceExtension&#45;&gt;\\SilverStripe\\Core\\Extension -->
<g id="edge1" class="edge">
<title>\\Firesphere\\SolrCompatibility\\Extensions\\SolrCoreServiceExtension&#45;&gt;\\SilverStripe\\Core\\Extension</title>
<path fill="none" stroke="#000000" d="M837.0874,-295.6876C831.3013,-292.4324 825.9314,-288.5263 821.2549,-283.8447 770.3658,-232.9007 832.974,-176.9458 781.2549,-126.8447 745.782,-92.4814 712.7764,-131.7832 672.7549,-102.8447"/>
</g>
<!-- \\Firesphere\\SolrCompatibility\\Extensions\\DataObjectExtension -->
<g id="node2" class="node">
<title>\\Firesphere\\SolrCompatibility\\Extensions\\DataObjectExtension</title>
<polygon fill="none" stroke="#000000" points="999.2549,-274.8447 854.2549,-274.8447 854.2549,-238.8447 999.2549,-238.8447 999.2549,-274.8447"/>
<text text-anchor="middle" x="926.7549" y="-254.0447" font-family="Courier,monospace" font-size="11.00" fill="#000000">DataObjectExtension</text>
</g>
<!-- \\Firesphere\\SolrCompatibility\\Extensions\\DataObjectExtension&#45;&gt;\\SilverStripe\\Core\\Extension -->
<g id="edge2" class="edge">
<title>\\Firesphere\\SolrCompatibility\\Extensions\\DataObjectExtension&#45;&gt;\\SilverStripe\\Core\\Extension</title>
<path fill="none" stroke="#000000" d="M854.1042,-247.9844C842.1254,-243.9284 830.591,-238.1237 821.2549,-229.8447 784.5121,-197.2621 818.5279,-158.8193 781.2549,-126.8447 743.7699,-94.6882 712.7764,-131.7832 672.7549,-102.8447"/>
</g>
<!-- \\Firesphere\\SolrCompatibility\\Extensions\\FulltextSearchExtension -->
<g id="node3" class="node">
<title>\\Firesphere\\SolrCompatibility\\Extensions\\FulltextSearchExtension</title>
<polygon fill="none" stroke="#000000" points="1012.7549,-220.8447 840.7549,-220.8447 840.7549,-184.8447 1012.7549,-184.8447 1012.7549,-220.8447"/>
<text text-anchor="middle" x="926.7549" y="-200.0447" font-family="Courier,monospace" font-size="11.00" fill="#000000">FulltextSearchExtension</text>
</g>
<!-- \\Firesphere\\SolrCompatibility\\Extensions\\FulltextSearchExtension&#45;&gt;\\SilverStripe\\Core\\Extension -->
<g id="edge3" class="edge">
<title>\\Firesphere\\SolrCompatibility\\Extensions\\FulltextSearchExtension&#45;&gt;\\SilverStripe\\Core\\Extension</title>
<path fill="none" stroke="#000000" d="M897.7118,-184.7386C869.069,-167.6005 823.5604,-142.2646 781.2549,-126.8447 734.8533,-109.9317 712.7764,-131.7832 672.7549,-102.8447"/>
<path fill="none" stroke="#000000" d="M672.7549,-102.8447C596.7726,-47.9039 493.6724,-26.7485 408.8031,-19.4046"/>
<polygon fill="none" stroke="#000000" points="409.0605,-15.9141 398.8107,-18.596 408.4958,-22.8913 409.0605,-15.9141"/>
</g>
<!-- \\Firesphere\\SolrSearch\\Tasks\\ClearDirtyClassesTask -->
<g id="node4" class="node">
<title>\\Firesphere\\SolrSearch\\Tasks\\ClearDirtyClassesTask</title>
<polygon fill="none" stroke="#000000" points="751.7549,-2616.8447 593.7549,-2616.8447 593.7549,-2580.8447 751.7549,-2580.8447 751.7549,-2616.8447"/>
<text text-anchor="middle" x="672.7549" y="-2596.0447" font-family="Courier,monospace" font-size="11.00" fill="#000000">ClearDirtyClassesTask</text>
</g>
<!-- \\SilverStripe\\Dev\\BuildTask -->
<g id="node65" class="node">
<title>\\SilverStripe\\Dev\\BuildTask</title>
<ellipse fill="none" stroke="#000000" cx="254.1275" cy="-126.8447" rx="139.9756" ry="18"/>
<text text-anchor="middle" x="254.1275" y="-123.1447" font-family="Times,serif" font-size="14.00" fill="#c0c0c0">\SilverStripe\Dev\BuildTask</text>
</g>
<!-- \\Firesphere\\SolrSearch\\Tasks\\ClearDirtyClassesTask&#45;&gt;\\SilverStripe\\Dev\\BuildTask -->
<g id="edge6" class="edge">
<title>\\Firesphere\\SolrSearch\\Tasks\\ClearDirtyClassesTask&#45;&gt;\\SilverStripe\\Dev\\BuildTask</title>
<path fill="none" stroke="#000000" d="M593.6045,-2588.5532C585.3787,-2584.5055 577.9588,-2579.0809 572.2549,-2571.8447 407.4613,-2362.7783 680.0794,-380.1721 508.2549,-176.8447 480.8485,-144.4135 439.0836,-129.1047 397.2818,-122.6993"/>
<polygon fill="none" stroke="#000000" points="397.6167,-119.2126 387.2349,-121.3261 396.6688,-126.1481 397.6167,-119.2126"/>
</g>
<!-- \\Firesphere\\SolrSearch\\Tasks\\ClearErrorsTask -->
<g id="node5" class="node">
<title>\\Firesphere\\SolrSearch\\Tasks\\ClearErrorsTask</title>
<polygon fill="none" stroke="#000000" points="731.7549,-2562.8447 613.7549,-2562.8447 613.7549,-2526.8447 731.7549,-2526.8447 731.7549,-2562.8447"/>
<text text-anchor="middle" x="672.7549" y="-2542.0447" font-family="Courier,monospace" font-size="11.00" fill="#000000">ClearErrorsTask</text>
</g>
<!-- \\Firesphere\\SolrSearch\\Tasks\\ClearErrorsTask&#45;&gt;\\SilverStripe\\Dev\\BuildTask -->
<g id="edge7" class="edge">
<title>\\Firesphere\\SolrSearch\\Tasks\\ClearErrorsTask&#45;&gt;\\SilverStripe\\Dev\\BuildTask</title>
<path fill="none" stroke="#000000" d="M613.7498,-2541.678C597.9067,-2537.8176 582.3804,-2530.6823 572.2549,-2517.8447 411.1113,-2313.5383 676.2693,-375.5392 508.2549,-176.8447 480.8385,-144.4219 439.0709,-129.1154 397.2699,-122.7093"/>
<polygon fill="none" stroke="#000000" points="397.6051,-119.2227 387.2232,-121.336 396.657,-126.1582 397.6051,-119.2227"/>
</g>
<!-- \\Firesphere\\SolrSearch\\Tasks\\SolrIndexTask -->
<g id="node6" class="node">
<title>\\Firesphere\\SolrSearch\\Tasks\\SolrIndexTask</title>
<polygon fill="none" stroke="#000000" points="724.7549,-2508.8447 620.7549,-2508.8447 620.7549,-2472.8447 724.7549,-2472.8447 724.7549,-2508.8447"/>
<text text-anchor="middle" x="672.7549" y="-2488.0447" font-family="Courier,monospace" font-size="11.00" fill="#000000">SolrIndexTask</text>
</g>
<!-- \\Firesphere\\SolrSearch\\Tasks\\SolrIndexTask&#45;&gt;\\SilverStripe\\Dev\\BuildTask -->
<g id="edge8" class="edge">
<title>\\Firesphere\\SolrSearch\\Tasks\\SolrIndexTask&#45;&gt;\\SilverStripe\\Dev\\BuildTask</title>
<path fill="none" stroke="#000000" d="M620.5868,-2489.142C602.4844,-2485.7455 583.8397,-2478.5227 572.2549,-2463.8447 414.7612,-2264.2983 672.4592,-370.9064 508.2549,-176.8447 480.828,-144.4308 439.0577,-129.1265 397.2574,-122.7199"/>
<polygon fill="none" stroke="#000000" points="397.5929,-119.2333 387.2109,-121.3464 396.6446,-126.1688 397.5929,-119.2333"/>
</g>
<!-- \\Firesphere\\SolrSearch\\Tasks\\SolrConfigureTask -->
<g id="node7" class="node">
<title>\\Firesphere\\SolrSearch\\Tasks\\SolrConfigureTask</title>
<polygon fill="none" stroke="#000000" points="738.2549,-2454.8447 607.2549,-2454.8447 607.2549,-2418.8447 738.2549,-2418.8447 738.2549,-2454.8447"/>
<text text-anchor="middle" x="672.7549" y="-2434.0447" font-family="Courier,monospace" font-size="11.00" fill="#000000">SolrConfigureTask</text>
</g>
<!-- \\Firesphere\\SolrSearch\\Tasks\\SolrConfigureTask&#45;&gt;\\SilverStripe\\Dev\\BuildTask -->
<g id="edge9" class="edge">
<title>\\Firesphere\\SolrSearch\\Tasks\\SolrConfigureTask&#45;&gt;\\SilverStripe\\Dev\\BuildTask</title>
<path fill="none" stroke="#000000" d="M607.1025,-2429.8427C593.6114,-2425.2966 580.9033,-2418.1107 572.2549,-2406.8447 421.3155,-2210.2189 668.4375,-366.0163 508.2549,-176.8447 480.8837,-144.52 439.2478,-129.214 397.5509,-122.7789"/>
<polygon fill="none" stroke="#000000" points="397.9128,-119.2958 387.5286,-121.3981 396.9573,-126.2303 397.9128,-119.2958"/>
</g>
<!-- \\Firesphere\\SolrSearch\\Extensions\\GridFieldExtension -->
<g id="node8" class="node">
<title>\\Firesphere\\SolrSearch\\Extensions\\GridFieldExtension</title>
<polygon fill="none" stroke="#000000" points="741.7549,-2320.8447 603.7549,-2320.8447 603.7549,-2284.8447 741.7549,-2284.8447 741.7549,-2320.8447"/>
<text text-anchor="middle" x="672.7549" y="-2300.0447" font-family="Courier,monospace" font-size="11.00" fill="#000000">GridFieldExtension</text>
</g>
<!-- \\Firesphere\\SolrSearch\\Extensions\\GridFieldExtension&#45;&gt;\\SilverStripe\\Core\\Extension -->
<g id="edge10" class="edge">
<title>\\Firesphere\\SolrSearch\\Extensions\\GridFieldExtension&#45;&gt;\\SilverStripe\\Core\\Extension</title>
<path fill="none" stroke="#000000" d="M603.7483,-2294.6501C591.5219,-2290.0704 580.1828,-2283.1718 572.2549,-2272.8447 421.5146,-2076.4861 676.4189,-227.5042 508.2549,-45.8447 466.3165,-.5406 394.8907,3.4913 338.4225,-2.2674"/>
<polygon fill="none" stroke="#000000" points="337.9634,1.203 328.4226,-3.4038 338.7539,-5.7522 337.9634,1.203"/>
</g>
<!-- \\Firesphere\\SolrSearch\\Extensions\\DataObjectExtension -->
<g id="node9" class="node">
<title>\\Firesphere\\SolrSearch\\Extensions\\DataObjectExtension</title>
<polygon fill="none" stroke="#000000" points="745.2549,-2374.8447 600.2549,-2374.8447 600.2549,-2338.8447 745.2549,-2338.8447 745.2549,-2374.8447"/>
<text text-anchor="middle" x="672.7549" y="-2354.0447" font-family="Courier,monospace" font-size="11.00" fill="#000000">DataObjectExtension</text>
</g>
<!-- \\SilverStripe\\ORM\\DataExtension -->
<g id="node66" class="node">
<title>\\SilverStripe\\ORM\\DataExtension</title>
<ellipse fill="none" stroke="#000000" cx="254.1275" cy="-72.8447" rx="167.8704" ry="18"/>
<text text-anchor="middle" x="254.1275" y="-69.1447" font-family="Times,serif" font-size="14.00" fill="#c0c0c0">\SilverStripe\ORM\DataExtension</text>
</g>
<!-- \\Firesphere\\SolrSearch\\Extensions\\DataObjectExtension&#45;&gt;\\SilverStripe\\ORM\\DataExtension -->
<g id="edge11" class="edge">
<title>\\Firesphere\\SolrSearch\\Extensions\\DataObjectExtension&#45;&gt;\\SilverStripe\\ORM\\DataExtension</title>
<path fill="none" stroke="#000000" d="M600.0519,-2349.3753C589.2863,-2345.1427 579.4217,-2338.9184 572.2549,-2329.8447 418.6139,-2135.3226 676.6417,-281.752 508.2549,-99.8447 467.3973,-55.7064 398.5504,-50.743 342.8143,-55.8421"/>
<polygon fill="none" stroke="#000000" points="342.1551,-52.3915 332.5694,-56.9041 342.877,-59.3542 342.1551,-52.3915"/>
</g>
<!-- \\Firesphere\\SolrSearch\\Models\\SolrLog -->
<g id="node10" class="node">
<title>\\Firesphere\\SolrSearch\\Models\\SolrLog</title>
<polygon fill="none" stroke="#000000" points="704.7549,-2856.8447 640.7549,-2856.8447 640.7549,-2820.8447 704.7549,-2820.8447 704.7549,-2856.8447"/>
<text text-anchor="middle" x="672.7549" y="-2836.0447" font-family="Courier,monospace" font-size="11.00" fill="#000000">SolrLog</text>
</g>
<!-- \\SilverStripe\\ORM\\DataObject -->
<g id="node67" class="node">
<title>\\SilverStripe\\ORM\\DataObject</title>
<ellipse fill="none" stroke="#000000" cx="254.1275" cy="-3694.8447" rx="152.9733" ry="18"/>
<text text-anchor="middle" x="254.1275" y="-3691.1447" font-family="Times,serif" font-size="14.00" fill="#c0c0c0">\SilverStripe\ORM\DataObject</text>
</g>
<!-- \\Firesphere\\SolrSearch\\Models\\SolrLog&#45;&gt;\\SilverStripe\\ORM\\DataObject -->
<g id="edge12" class="edge">
<title>\\Firesphere\\SolrSearch\\Models\\SolrLog&#45;&gt;\\SilverStripe\\ORM\\DataObject</title>
<path fill="none" stroke="#000000" d="M640.4779,-2838.4066C617.7907,-2839.9735 588.6637,-2846.1239 572.2549,-2865.8447 457.9007,-3003.2803 633.0096,-3539.7756 508.2549,-3667.8447 466.5779,-3710.6289 398.4592,-3715.8822 343.2333,-3711.2456"/>
<polygon fill="none" stroke="#000000" points="343.3694,-3707.7426 333.0808,-3710.2715 342.7008,-3714.7106 343.3694,-3707.7426"/>
</g>
<!-- \\SilverStripe\\Security\\PermissionProvider -->
<g id="node68" class="node">
<title>\\SilverStripe\\Security\\PermissionProvider</title>
<ellipse fill="none" stroke="#000000" cx="254.1275" cy="-3640.8447" rx="206.0634" ry="18"/>
<text text-anchor="middle" x="254.1275" y="-3637.1447" font-family="Times,serif" font-size="14.00" fill="#c0c0c0">\SilverStripe\Security\PermissionProvider</text>
</g>
<!-- \\Firesphere\\SolrSearch\\Models\\SolrLog&#45;&gt;\\SilverStripe\\Security\\PermissionProvider -->
<g id="edge13" class="edge">
<title>\\Firesphere\\SolrSearch\\Models\\SolrLog&#45;&gt;\\SilverStripe\\Security\\PermissionProvider</title>
<path fill="none" stroke="#000000" stroke-dasharray="1,5" d="M640.5114,-2838.4345C617.8408,-2840.0154 588.7201,-2846.1709 572.2549,-2865.8447 465.1834,-2993.7814 625.0062,-3494.6757 508.2549,-3613.8447 468.876,-3654.0391 406.1429,-3661.0344 352.8606,-3657.8602"/>
<polygon fill="none" stroke="#000000" points="352.9112,-3654.3549 342.6852,-3657.1259 352.4073,-3661.3367 352.9112,-3654.3549"/>
</g>
<!-- \\Firesphere\\SolrSearch\\Models\\SearchSynonym -->
<g id="node11" class="node">
<title>\\Firesphere\\SolrSearch\\Models\\SearchSynonym</title>
<polygon fill="none" stroke="#000000" points="724.7549,-2910.8447 620.7549,-2910.8447 620.7549,-2874.8447 724.7549,-2874.8447 724.7549,-2910.8447"/>
<text text-anchor="middle" x="672.7549" y="-2890.0447" font-family="Courier,monospace" font-size="11.00" fill="#000000">SearchSynonym</text>
</g>
<!-- \\Firesphere\\SolrSearch\\Models\\SearchSynonym&#45;&gt;\\SilverStripe\\ORM\\DataObject -->
<g id="edge14" class="edge">
<title>\\Firesphere\\SolrSearch\\Models\\SearchSynonym&#45;&gt;\\SilverStripe\\ORM\\DataObject</title>
<path fill="none" stroke="#000000" d="M620.5066,-2895.0082C602.6191,-2898.486 584.14,-2905.6435 572.2549,-2919.8447 465.1834,-3047.7814 625.0062,-3548.6757 508.2549,-3667.8447 466.6018,-3710.3603 398.8193,-3715.7317 343.7303,-3711.213"/>
<polygon fill="none" stroke="#000000" points="343.8846,-3707.7121 333.6009,-3710.2609 343.2294,-3714.6814 343.8846,-3707.7121"/>
</g>
<!-- \\Firesphere\\SolrSearch\\Models\\DirtyClass -->
<g id="node12" class="node">
<title>\\Firesphere\\SolrSearch\\Models\\DirtyClass</title>
<polygon fill="none" stroke="#000000" points="714.7549,-2964.8447 630.7549,-2964.8447 630.7549,-2928.8447 714.7549,-2928.8447 714.7549,-2964.8447"/>
<text text-anchor="middle" x="672.7549" y="-2944.0447" font-family="Courier,monospace" font-size="11.00" fill="#000000">DirtyClass</text>
</g>
<!-- \\Firesphere\\SolrSearch\\Models\\DirtyClass&#45;&gt;\\SilverStripe\\ORM\\DataObject -->
<g id="edge15" class="edge">
<title>\\Firesphere\\SolrSearch\\Models\\DirtyClass&#45;&gt;\\SilverStripe\\ORM\\DataObject</title>
<path fill="none" stroke="#000000" d="M671.3994,-2964.9433C663.3653,-3067.0413 618.5358,-3569.9115 508.2549,-3667.8447 467.2787,-3704.2329 406.6849,-3711.7931 354.9426,-3709.8724"/>
<polygon fill="none" stroke="#000000" points="354.8811,-3706.3652 344.7206,-3709.3676 354.5358,-3713.3567 354.8811,-3706.3652"/>
</g>
<!-- \\Firesphere\\SolrSearch\\Results\\SearchResult -->
<g id="node13" class="node">
<title>\\Firesphere\\SolrSearch\\Results\\SearchResult</title>
<polygon fill="none" stroke="#000000" points="721.7549,-2776.8447 623.7549,-2776.8447 623.7549,-2740.8447 721.7549,-2740.8447 721.7549,-2776.8447"/>
<text text-anchor="middle" x="672.7549" y="-2756.0447" font-family="Courier,monospace" font-size="11.00" fill="#000000">SearchResult</text>
</g>
<!-- \\SilverStripe\\View\\ViewableData -->
<g id="node69" class="node">
<title>\\SilverStripe\\View\\ViewableData</title>
<ellipse fill="none" stroke="#000000" cx="254.1275" cy="-3532.8447" rx="163.2712" ry="18"/>
<text text-anchor="middle" x="254.1275" y="-3529.1447" font-family="Times,serif" font-size="14.00" fill="#c0c0c0">\SilverStripe\View\ViewableData</text>
</g>
<!-- \\Firesphere\\SolrSearch\\Results\\SearchResult&#45;&gt;\\SilverStripe\\View\\ViewableData -->
<g id="edge16" class="edge">
<title>\\Firesphere\\SolrSearch\\Results\\SearchResult&#45;&gt;\\SilverStripe\\View\\ViewableData</title>
<path fill="none" stroke="#000000" d="M623.5306,-2771.9278C604.4397,-2779.5441 584.3102,-2791.2368 572.2549,-2808.8447 484.3848,-2937.1867 617.4504,-3395.0783 508.2549,-3505.8447 467.0564,-3547.6358 400.5912,-3553.4501 345.9662,-3549.3078"/>
<polygon fill="none" stroke="#000000" points="346.1809,-3545.8133 335.913,-3548.4249 345.5684,-3552.7864 346.1809,-3545.8133"/>
</g>
<!-- \\Firesphere\\SolrSearch\\Admins\\SearchAdmin -->
<g id="node14" class="node">
<title>\\Firesphere\\SolrSearch\\Admins\\SearchAdmin</title>
<polygon fill="none" stroke="#000000" points="718.2549,-2696.8447 627.2549,-2696.8447 627.2549,-2660.8447 718.2549,-2660.8447 718.2549,-2696.8447"/>
<text text-anchor="middle" x="672.7549" y="-2676.0447" font-family="Courier,monospace" font-size="11.00" fill="#000000">SearchAdmin</text>
</g>
<!-- \\SilverStripe\\Admin\\ModelAdmin -->
<g id="node70" class="node">
<title>\\SilverStripe\\Admin\\ModelAdmin</title>
<ellipse fill="none" stroke="#000000" cx="254.1275" cy="-3586.8447" rx="165.1707" ry="18"/>
<text text-anchor="middle" x="254.1275" y="-3583.1447" font-family="Times,serif" font-size="14.00" fill="#c0c0c0">\SilverStripe\Admin\ModelAdmin</text>
</g>
<!-- \\Firesphere\\SolrSearch\\Admins\\SearchAdmin&#45;&gt;\\SilverStripe\\Admin\\ModelAdmin -->
<g id="edge17" class="edge">
<title>\\Firesphere\\SolrSearch\\Admins\\SearchAdmin&#45;&gt;\\SilverStripe\\Admin\\ModelAdmin</title>
<path fill="none" stroke="#000000" d="M627.0538,-2690.433C606.8959,-2697.9711 584.9428,-2710.0174 572.2549,-2728.8447 468.7477,-2882.436 637.3089,-3426.9947 508.2549,-3559.8447 467.1465,-3602.1622 400.1788,-3607.8027 345.3071,-3603.4507"/>
<polygon fill="none" stroke="#000000" points="345.4881,-3599.9528 335.2111,-3602.5284 344.8512,-3606.9238 345.4881,-3599.9528"/>
</g>
<!-- \\Firesphere\\SolrSearch\\States\\SiteState -->
<g id="node15" class="node">
<title>\\Firesphere\\SolrSearch\\States\\SiteState</title>
<polygon fill="none" stroke="#000000" points="714.7549,-2240.8447 630.7549,-2240.8447 630.7549,-2204.8447 714.7549,-2204.8447 714.7549,-2240.8447"/>
<text text-anchor="start" x="638.7549" y="-2226.0447" font-family="Courier,monospace" font-size="11.00" fill="#000000">«abstract»</text>
<text text-anchor="start" x="642.2549" y="-2214.0447" font-family="Courier,monospace" font-size="11.00" fill="#000000">SiteState</text>
</g>
<!-- \\Firesphere\\SolrSearch\\Traits\\DataResolveTrait -->
<g id="node16" class="node">
<title>\\Firesphere\\SolrSearch\\Traits\\DataResolveTrait</title>
<polygon fill="none" stroke="#000000" points="735.2549,-2160.8447 610.2549,-2160.8447 610.2549,-2124.8447 735.2549,-2124.8447 735.2549,-2160.8447"/>
<text text-anchor="middle" x="672.7549" y="-2140.0447" font-family="Courier,monospace" font-size="11.00" fill="#000000">DataResolveTrait</text>
</g>
<!-- \\Firesphere\\SolrSearch\\Traits\\SolrIndexTrait -->
<g id="node17" class="node">
<title>\\Firesphere\\SolrSearch\\Traits\\SolrIndexTrait</title>
<polygon fill="none" stroke="#000000" points="728.2549,-2106.8447 617.2549,-2106.8447 617.2549,-2070.8447 728.2549,-2070.8447 728.2549,-2106.8447"/>
<text text-anchor="middle" x="672.7549" y="-2086.0447" font-family="Courier,monospace" font-size="11.00" fill="#000000">SolrIndexTrait</text>
</g>
<!-- \\Firesphere\\SolrSearch\\Traits\\BaseIndexTrait -->
<g id="node18" class="node">
<title>\\Firesphere\\SolrSearch\\Traits\\BaseIndexTrait</title>
<polygon fill="none" stroke="#000000" points="728.2549,-2052.8447 617.2549,-2052.8447 617.2549,-2016.8447 728.2549,-2016.8447 728.2549,-2052.8447"/>
<text text-anchor="middle" x="672.7549" y="-2032.0447" font-family="Courier,monospace" font-size="11.00" fill="#000000">BaseIndexTrait</text>
</g>
<!-- \\Firesphere\\SolrSearch\\Traits\\LoggerTrait -->
<g id="node19" class="node">
<title>\\Firesphere\\SolrSearch\\Traits\\LoggerTrait</title>
<polygon fill="none" stroke="#000000" points="718.2549,-1998.8447 627.2549,-1998.8447 627.2549,-1962.8447 718.2549,-1962.8447 718.2549,-1998.8447"/>
<text text-anchor="middle" x="672.7549" y="-1978.0447" font-family="Courier,monospace" font-size="11.00" fill="#000000">LoggerTrait</text>
</g>
<!-- \\Firesphere\\SolrSearch\\Traits\\GetterSetterTrait -->
<g id="node20" class="node">
<title>\\Firesphere\\SolrSearch\\Traits\\GetterSetterTrait</title>
<polygon fill="none" stroke="#000000" points="738.2549,-1944.8447 607.2549,-1944.8447 607.2549,-1908.8447 738.2549,-1908.8447 738.2549,-1944.8447"/>
<text text-anchor="middle" x="672.7549" y="-1924.0447" font-family="Courier,monospace" font-size="11.00" fill="#000000">GetterSetterTrait</text>
</g>
<!-- \\Firesphere\\SolrSearch\\Traits\\QueryComponentBoostTrait -->
<g id="node21" class="node">
<title>\\Firesphere\\SolrSearch\\Traits\\QueryComponentBoostTrait</title>
<polygon fill="none" stroke="#000000" points="762.2549,-1890.8447 583.2549,-1890.8447 583.2549,-1854.8447 762.2549,-1854.8447 762.2549,-1890.8447"/>
<text text-anchor="middle" x="672.7549" y="-1870.0447" font-family="Courier,monospace" font-size="11.00" fill="#000000">QueryComponentBoostTrait</text>
</g>
<!-- \\Firesphere\\SolrSearch\\Traits\\QueryComponentFilterTrait -->
<g id="node22" class="node">
<title>\\Firesphere\\SolrSearch\\Traits\\QueryComponentFilterTrait</title>
<polygon fill="none" stroke="#000000" points="765.2549,-1836.8447 580.2549,-1836.8447 580.2549,-1800.8447 765.2549,-1800.8447 765.2549,-1836.8447"/>
<text text-anchor="middle" x="672.7549" y="-1816.0447" font-family="Courier,monospace" font-size="11.00" fill="#000000">QueryComponentFilterTrait</text>
</g>
<!-- \\Firesphere\\SolrSearch\\Traits\\QueryComponentFacetTrait -->
<g id="node23" class="node">
<title>\\Firesphere\\SolrSearch\\Traits\\QueryComponentFacetTrait</title>
<polygon fill="none" stroke="#000000" points="762.2549,-1782.8447 583.2549,-1782.8447 583.2549,-1746.8447 762.2549,-1746.8447 762.2549,-1782.8447"/>
<text text-anchor="middle" x="672.7549" y="-1762.0447" font-family="Courier,monospace" font-size="11.00" fill="#000000">QueryComponentFacetTrait</text>
</g>
<!-- \\Firesphere\\SolrSearch\\Traits\\DocumentFactoryTrait -->
<g id="node24" class="node">
<title>\\Firesphere\\SolrSearch\\Traits\\DocumentFactoryTrait</title>
<polygon fill="none" stroke="#000000" points="748.7549,-1728.8447 596.7549,-1728.8447 596.7549,-1692.8447 748.7549,-1692.8447 748.7549,-1728.8447"/>
<text text-anchor="middle" x="672.7549" y="-1708.0447" font-family="Courier,monospace" font-size="11.00" fill="#000000">DocumentFactoryTrait</text>
</g>
<!-- \\Firesphere\\SolrSearch\\Traits\\SearchResultSetTrait -->
<g id="node25" class="node">
<title>\\Firesphere\\SolrSearch\\Traits\\SearchResultSetTrait</title>
<polygon fill="none" stroke="#000000" points="748.7549,-1674.8447 596.7549,-1674.8447 596.7549,-1638.8447 748.7549,-1638.8447 748.7549,-1674.8447"/>
<text text-anchor="middle" x="672.7549" y="-1654.0447" font-family="Courier,monospace" font-size="11.00" fill="#000000">SearchResultSetTrait</text>
</g>
<!-- \\Firesphere\\SolrSearch\\Traits\\SearchResultGetTrait -->
<g id="node26" class="node">
<title>\\Firesphere\\SolrSearch\\Traits\\SearchResultGetTrait</title>
<polygon fill="none" stroke="#000000" points="748.7549,-1620.8447 596.7549,-1620.8447 596.7549,-1584.8447 748.7549,-1584.8447 748.7549,-1620.8447"/>
<text text-anchor="middle" x="672.7549" y="-1600.0447" font-family="Courier,monospace" font-size="11.00" fill="#000000">SearchResultGetTrait</text>
</g>
<!-- \\Firesphere\\SolrSearch\\Traits\\CoreServiceTrait -->
<g id="node27" class="node">
<title>\\Firesphere\\SolrSearch\\Traits\\CoreServiceTrait</title>
<polygon fill="none" stroke="#000000" points="735.2549,-1566.8447 610.2549,-1566.8447 610.2549,-1530.8447 735.2549,-1530.8447 735.2549,-1566.8447"/>
<text text-anchor="middle" x="672.7549" y="-1546.0447" font-family="Courier,monospace" font-size="11.00" fill="#000000">CoreServiceTrait</text>
</g>
<!-- \\Firesphere\\SolrSearch\\Traits\\CoreAdminTrait -->
<g id="node28" class="node">
<title>\\Firesphere\\SolrSearch\\Traits\\CoreAdminTrait</title>
<polygon fill="none" stroke="#000000" points="728.2549,-1512.8447 617.2549,-1512.8447 617.2549,-1476.8447 728.2549,-1476.8447 728.2549,-1512.8447"/>
<text text-anchor="middle" x="672.7549" y="-1492.0447" font-family="Courier,monospace" font-size="11.00" fill="#000000">CoreAdminTrait</text>
</g>
<!-- \\Firesphere\\SolrSearch\\Traits\\BaseQueryTrait -->
<g id="node29" class="node">
<title>\\Firesphere\\SolrSearch\\Traits\\BaseQueryTrait</title>
<polygon fill="none" stroke="#000000" points="728.2549,-1458.8447 617.2549,-1458.8447 617.2549,-1422.8447 728.2549,-1422.8447 728.2549,-1458.8447"/>
<text text-anchor="middle" x="672.7549" y="-1438.0447" font-family="Courier,monospace" font-size="11.00" fill="#000000">BaseQueryTrait</text>
</g>
<!-- \\Firesphere\\SolrSearch\\Traits\\GetSetSchemaFactoryTrait -->
<g id="node30" class="node">
<title>\\Firesphere\\SolrSearch\\Traits\\GetSetSchemaFactoryTrait</title>
<polygon fill="none" stroke="#000000" points="762.2549,-1404.8447 583.2549,-1404.8447 583.2549,-1368.8447 762.2549,-1368.8447 762.2549,-1404.8447"/>
<text text-anchor="middle" x="672.7549" y="-1384.0447" font-family="Courier,monospace" font-size="11.00" fill="#000000">GetSetSchemaFactoryTrait</text>
</g>
<!-- \\Firesphere\\SolrSearch\\Traits\\GetSetSearchResolverTrait -->
<g id="node31" class="node">
<title>\\Firesphere\\SolrSearch\\Traits\\GetSetSearchResolverTrait</title>
<polygon fill="none" stroke="#000000" points="765.2549,-1350.8447 580.2549,-1350.8447 580.2549,-1314.8447 765.2549,-1314.8447 765.2549,-1350.8447"/>
<text text-anchor="middle" x="672.7549" y="-1330.0447" font-family="Courier,monospace" font-size="11.00" fill="#000000">GetSetSearchResolverTrait</text>
</g>
<!-- \\Firesphere\\SolrSearch\\Helpers\\Statics -->
<g id="node32" class="node">
<title>\\Firesphere\\SolrSearch\\Helpers\\Statics</title>
<polygon fill="none" stroke="#000000" points="704.7549,-1270.8447 640.7549,-1270.8447 640.7549,-1234.8447 704.7549,-1234.8447 704.7549,-1270.8447"/>
<text text-anchor="middle" x="672.7549" y="-1250.0447" font-family="Courier,monospace" font-size="11.00" fill="#000000">Statics</text>
</g>
<!-- \\Firesphere\\SolrSearch\\Helpers\\FieldResolver -->
<g id="node33" class="node">
<title>\\Firesphere\\SolrSearch\\Helpers\\FieldResolver</title>
<polygon fill="none" stroke="#000000" points="724.7549,-1216.8447 620.7549,-1216.8447 620.7549,-1180.8447 724.7549,-1180.8447 724.7549,-1216.8447"/>
<text text-anchor="middle" x="672.7549" y="-1196.0447" font-family="Courier,monospace" font-size="11.00" fill="#000000">FieldResolver</text>
</g>
<!-- \\Firesphere\\SolrSearch\\Helpers\\DataResolver -->
<g id="node34" class="node">
<title>\\Firesphere\\SolrSearch\\Helpers\\DataResolver</title>
<polygon fill="none" stroke="#000000" points="721.7549,-1162.8447 623.7549,-1162.8447 623.7549,-1126.8447 721.7549,-1126.8447 721.7549,-1162.8447"/>
<text text-anchor="middle" x="672.7549" y="-1142.0447" font-family="Courier,monospace" font-size="11.00" fill="#000000">DataResolver</text>
</g>
<!-- \\Firesphere\\SolrSearch\\Helpers\\SolrLogger -->
<g id="node35" class="node">
<title>\\Firesphere\\SolrSearch\\Helpers\\SolrLogger</title>
<polygon fill="none" stroke="#000000" points="714.7549,-1108.8447 630.7549,-1108.8447 630.7549,-1072.8447 714.7549,-1072.8447 714.7549,-1108.8447"/>
<text text-anchor="middle" x="672.7549" y="-1088.0447" font-family="Courier,monospace" font-size="11.00" fill="#000000">SolrLogger</text>
</g>
<!-- \\Firesphere\\SolrSearch\\Helpers\\Synonyms -->
<g id="node36" class="node">
<title>\\Firesphere\\SolrSearch\\Helpers\\Synonyms</title>
<polygon fill="none" stroke="#000000" points="708.2549,-1054.8447 637.2549,-1054.8447 637.2549,-1018.8447 708.2549,-1018.8447 708.2549,-1054.8447"/>
<text text-anchor="middle" x="672.7549" y="-1034.0447" font-family="Courier,monospace" font-size="11.00" fill="#000000">Synonyms</text>
</g>
<!-- \\Firesphere\\SolrSearch\\Services\\SolrCoreService -->
<g id="node37" class="node">
<title>\\Firesphere\\SolrSearch\\Services\\SolrCoreService</title>
<polygon fill="none" stroke="#000000" points="731.7549,-974.8447 613.7549,-974.8447 613.7549,-938.8447 731.7549,-938.8447 731.7549,-974.8447"/>
<text text-anchor="middle" x="672.7549" y="-954.0447" font-family="Courier,monospace" font-size="11.00" fill="#000000">SolrCoreService</text>
</g>
<!-- \\Firesphere\\SolrSearch\\Indexes\\BaseIndex -->
<g id="node38" class="node">
<title>\\Firesphere\\SolrSearch\\Indexes\\BaseIndex</title>
<polygon fill="none" stroke="#000000" points="714.7549,-894.8447 630.7549,-894.8447 630.7549,-858.8447 714.7549,-858.8447 714.7549,-894.8447"/>
<text text-anchor="start" x="638.7549" y="-880.0447" font-family="Courier,monospace" font-size="11.00" fill="#000000">«abstract»</text>
<text text-anchor="start" x="642.2549" y="-868.0447" font-family="Courier,monospace" font-size="11.00" fill="#000000">BaseIndex</text>
</g>
<!-- \\Firesphere\\SolrSearch\\Jobs\\SolrConfigureJob -->
<g id="node39" class="node">
<title>\\Firesphere\\SolrSearch\\Jobs\\SolrConfigureJob</title>
<polygon fill="none" stroke="#000000" points="735.2549,-814.8447 610.2549,-814.8447 610.2549,-778.8447 735.2549,-778.8447 735.2549,-814.8447"/>
<text text-anchor="middle" x="672.7549" y="-794.0447" font-family="Courier,monospace" font-size="11.00" fill="#000000">SolrConfigureJob</text>
</g>
<!-- \\Symbiote\\QueuedJobs\\Services\\AbstractQueuedJob -->
<g id="node71" class="node">
<title>\\Symbiote\\QueuedJobs\\Services\\AbstractQueuedJob</title>
<ellipse fill="none" stroke="#000000" cx="254.1275" cy="-3478.8447" rx="254.255" ry="18"/>
<text text-anchor="middle" x="254.1275" y="-3475.1447" font-family="Times,serif" font-size="14.00" fill="#c0c0c0">\Symbiote\QueuedJobs\Services\AbstractQueuedJob</text>
</g>
<!-- \\Firesphere\\SolrSearch\\Jobs\\SolrConfigureJob&#45;&gt;\\Symbiote\\QueuedJobs\\Services\\AbstractQueuedJob -->
<g id="edge18" class="edge">
<title>\\Firesphere\\SolrSearch\\Jobs\\SolrConfigureJob&#45;&gt;\\Symbiote\\QueuedJobs\\Services\\AbstractQueuedJob</title>
<path fill="none" stroke="#000000" d="M610.828,-814.8744C595.7157,-822.305 581.3068,-832.6241 572.2549,-846.8447 494.5187,-968.9685 606.3761,-3345.405 508.2549,-3451.8447 469.541,-3493.8407 405.4981,-3500.4268 351.3914,-3496.5965"/>
<polygon fill="none" stroke="#000000" points="351.6683,-3493.1075 341.4125,-3495.7663 351.0878,-3500.0834 351.6683,-3493.1075"/>
</g>
<!-- \\Firesphere\\SolrSearch\\Jobs\\ClearDirtyClassesJob -->
<g id="node40" class="node">
<title>\\Firesphere\\SolrSearch\\Jobs\\ClearDirtyClassesJob</title>
<polygon fill="none" stroke="#000000" points="748.7549,-760.8447 596.7549,-760.8447 596.7549,-724.8447 748.7549,-724.8447 748.7549,-760.8447"/>
<text text-anchor="middle" x="672.7549" y="-740.0447" font-family="Courier,monospace" font-size="11.00" fill="#000000">ClearDirtyClassesJob</text>
</g>
<!-- \\Firesphere\\SolrSearch\\Jobs\\ClearDirtyClassesJob&#45;&gt;\\Symbiote\\QueuedJobs\\Services\\AbstractQueuedJob -->
<g id="edge19" class="edge">
<title>\\Firesphere\\SolrSearch\\Jobs\\ClearDirtyClassesJob&#45;&gt;\\Symbiote\\QueuedJobs\\Services\\AbstractQueuedJob</title>
<path fill="none" stroke="#000000" d="M596.5187,-751.7475C587.1303,-755.9183 578.6182,-761.748 572.2549,-769.8447 480.1582,-887.0276 609.236,-3342.2251 508.2549,-3451.8447 469.5558,-3493.8543 405.5128,-3500.4403 351.4024,-3496.6066"/>
<polygon fill="none" stroke="#000000" points="351.6787,-3493.1176 341.4227,-3495.7757 351.0978,-3500.0935 351.6787,-3493.1176"/>
</g>
<!-- \\Firesphere\\SolrSearch\\Jobs\\SolrIndexJob -->
<g id="node41" class="node">
<title>\\Firesphere\\SolrSearch\\Jobs\\SolrIndexJob</title>
<polygon fill="none" stroke="#000000" points="721.7549,-706.8447 623.7549,-706.8447 623.7549,-670.8447 721.7549,-670.8447 721.7549,-706.8447"/>
<text text-anchor="middle" x="672.7549" y="-686.0447" font-family="Courier,monospace" font-size="11.00" fill="#000000">SolrIndexJob</text>
</g>
<!-- \\Firesphere\\SolrSearch\\Jobs\\SolrIndexJob&#45;&gt;\\Symbiote\\QueuedJobs\\Services\\AbstractQueuedJob -->
<g id="edge20" class="edge">
<title>\\Firesphere\\SolrSearch\\Jobs\\SolrIndexJob&#45;&gt;\\Symbiote\\QueuedJobs\\Services\\AbstractQueuedJob</title>
<path fill="none" stroke="#000000" d="M623.6931,-689.9669C604.629,-693.0994 584.4756,-700.2877 572.2549,-715.8447 478.3331,-835.4078 611.2417,-3339.995 508.2549,-3451.8447 469.5657,-3493.8634 405.5226,-3500.4494 351.4097,-3496.6134"/>
<polygon fill="none" stroke="#000000" points="351.6856,-3493.1243 341.4295,-3495.782 351.1045,-3500.1002 351.6856,-3493.1243"/>
</g>
<!-- \\Firesphere\\SolrSearch\\Queries\\BaseQuery -->
<g id="node42" class="node">
<title>\\Firesphere\\SolrSearch\\Queries\\BaseQuery</title>
<polygon fill="none" stroke="#000000" points="711.2549,-626.8447 634.2549,-626.8447 634.2549,-590.8447 711.2549,-590.8447 711.2549,-626.8447"/>
<text text-anchor="middle" x="672.7549" y="-606.0447" font-family="Courier,monospace" font-size="11.00" fill="#000000">BaseQuery</text>
</g>
<!-- \\Firesphere\\SolrSearch\\Stores\\FileConfigStore -->
<g id="node43" class="node">
<title>\\Firesphere\\SolrSearch\\Stores\\FileConfigStore</title>
<polygon fill="none" stroke="#000000" points="731.7549,-278.8447 613.7549,-278.8447 613.7549,-242.8447 731.7549,-242.8447 731.7549,-278.8447"/>
<text text-anchor="middle" x="672.7549" y="-258.0447" font-family="Courier,monospace" font-size="11.00" fill="#000000">FileConfigStore</text>
</g>
<!-- \\Firesphere\\SolrSearch\\Interfaces\\ConfigStore -->
<g id="node49" class="node">
<title>\\Firesphere\\SolrSearch\\Interfaces\\ConfigStore</title>
<polygon fill="none" stroke="#000000" points="299.6275,-278.8447 208.6275,-278.8447 208.6275,-242.8447 299.6275,-242.8447 299.6275,-278.8447"/>
<text text-anchor="middle" x="254.1275" y="-258.0447" font-family="Courier,monospace" font-size="11.00" fill="#000000">ConfigStore</text>
</g>
<!-- \\Firesphere\\SolrSearch\\Stores\\FileConfigStore&#45;&gt;\\Firesphere\\SolrSearch\\Interfaces\\ConfigStore -->
<g id="edge21" class="edge">
<title>\\Firesphere\\SolrSearch\\Stores\\FileConfigStore&#45;&gt;\\Firesphere\\SolrSearch\\Interfaces\\ConfigStore</title>
<path fill="none" stroke="#000000" stroke-dasharray="1,5" d="M613.6637,-260.8447C532.8854,-260.8447 389.0185,-260.8447 309.9722,-260.8447"/>
<polygon fill="none" stroke="#000000" points="309.7288,-257.3448 299.7287,-260.8447 309.7287,-264.3448 309.7288,-257.3448"/>
</g>
<!-- \\Firesphere\\SolrSearch\\Stores\\PostConfigStore -->
<g id="node44" class="node">
<title>\\Firesphere\\SolrSearch\\Stores\\PostConfigStore</title>
<polygon fill="none" stroke="#000000" points="731.7549,-224.8447 613.7549,-224.8447 613.7549,-188.8447 731.7549,-188.8447 731.7549,-224.8447"/>
<text text-anchor="middle" x="672.7549" y="-204.0447" font-family="Courier,monospace" font-size="11.00" fill="#000000">PostConfigStore</text>
</g>
<!-- \\Firesphere\\SolrSearch\\Stores\\PostConfigStore&#45;&gt;\\Firesphere\\SolrSearch\\Interfaces\\ConfigStore -->
<g id="edge22" class="edge">
<title>\\Firesphere\\SolrSearch\\Stores\\PostConfigStore&#45;&gt;\\Firesphere\\SolrSearch\\Interfaces\\ConfigStore</title>
<path fill="none" stroke="#000000" stroke-dasharray="1,5" d="M613.4867,-217.4082C582.2454,-222.7646 543.2453,-229.1182 508.2549,-233.8447 440.1774,-243.0405 361.4881,-250.9894 309.9264,-255.8359"/>
<polygon fill="none" stroke="#000000" points="309.2998,-252.379 299.6682,-256.7928 309.95,-259.3488 309.2998,-252.379"/>
</g>
<!-- \\Firesphere\\SolrSearch\\Factories\\QueryComponentFactory -->
<g id="node45" class="node">
<title>\\Firesphere\\SolrSearch\\Factories\\QueryComponentFactory</title>
<polygon fill="none" stroke="#000000" points="751.7549,-546.8447 593.7549,-546.8447 593.7549,-510.8447 751.7549,-510.8447 751.7549,-546.8447"/>
<text text-anchor="middle" x="672.7549" y="-526.0447" font-family="Courier,monospace" font-size="11.00" fill="#000000">QueryComponentFactory</text>
</g>
<!-- \\Firesphere\\SolrSearch\\Factories\\DocumentFactory -->
<g id="node46" class="node">
<title>\\Firesphere\\SolrSearch\\Factories\\DocumentFactory</title>
<polygon fill="none" stroke="#000000" points="731.7549,-492.8447 613.7549,-492.8447 613.7549,-456.8447 731.7549,-456.8447 731.7549,-492.8447"/>
<text text-anchor="middle" x="672.7549" y="-472.0447" font-family="Courier,monospace" font-size="11.00" fill="#000000">DocumentFactory</text>
</g>
<!-- \\Firesphere\\SolrSearch\\Factories\\SchemaFactory -->
<g id="node47" class="node">
<title>\\Firesphere\\SolrSearch\\Factories\\SchemaFactory</title>
<polygon fill="none" stroke="#000000" points="724.7549,-438.8447 620.7549,-438.8447 620.7549,-402.8447 724.7549,-402.8447 724.7549,-438.8447"/>
<text text-anchor="middle" x="672.7549" y="-418.0447" font-family="Courier,monospace" font-size="11.00" fill="#000000">SchemaFactory</text>
</g>
<!-- \\Firesphere\\SolrSearch\\Factories\\SchemaFactory&#45;&gt;\\SilverStripe\\View\\ViewableData -->
<g id="edge23" class="edge">
<title>\\Firesphere\\SolrSearch\\Factories\\SchemaFactory&#45;&gt;\\SilverStripe\\View\\ViewableData</title>
<path fill="none" stroke="#000000" d="M620.5316,-422.5039C602.4226,-425.8953 583.7878,-433.1259 572.2549,-447.8447 467.4498,-581.601 623.202,-3380.6966 508.2549,-3505.8447 467.2864,-3550.4489 397.7543,-3555.1622 341.768,-3549.8438"/>
<polygon fill="none" stroke="#000000" points="341.7978,-3546.327 331.4817,-3548.7414 341.0518,-3553.2872 341.7978,-3546.327"/>
</g>
<!-- \\Firesphere\\SolrSearch\\Forms\\SearchForm -->
<g id="node48" class="node">
<title>\\Firesphere\\SolrSearch\\Forms\\SearchForm</title>
<polygon fill="none" stroke="#000000" points="714.7549,-358.8447 630.7549,-358.8447 630.7549,-322.8447 714.7549,-322.8447 714.7549,-358.8447"/>
<text text-anchor="middle" x="672.7549" y="-338.0447" font-family="Courier,monospace" font-size="11.00" fill="#000000">SearchForm</text>
</g>
<!-- \\SilverStripe\\Forms\\Form -->
<g id="node72" class="node">
<title>\\SilverStripe\\Forms\\Form</title>
<ellipse fill="none" stroke="#000000" cx="254.1275" cy="-3424.8447" rx="129.1772" ry="18"/>
<text text-anchor="middle" x="254.1275" y="-3421.1447" font-family="Times,serif" font-size="14.00" fill="#c0c0c0">\SilverStripe\Forms\Form</text>
</g>
<!-- \\Firesphere\\SolrSearch\\Forms\\SearchForm&#45;&gt;\\SilverStripe\\Forms\\Form -->
<g id="edge24" class="edge">
<title>\\Firesphere\\SolrSearch\\Forms\\SearchForm&#45;&gt;\\SilverStripe\\Forms\\Form</title>
<path fill="none" stroke="#000000" d="M630.6303,-351.3643C609.6582,-358.8421 585.9239,-371.1538 572.2549,-390.8447 390.5501,-652.6007 269.3387,-3103.4118 255.4608,-3396.2716"/>
<polygon fill="none" stroke="#000000" points="251.954,-3396.3354 254.9788,-3406.4892 258.9462,-3396.6653 251.954,-3396.3354"/>
</g>
<!-- \\Firesphere\\SolrSearch\\Interfaces\\SiteStateInterface -->
<g id="node50" class="node">
<title>\\Firesphere\\SolrSearch\\Interfaces\\SiteStateInterface</title>
<polygon fill="none" stroke="#000000" points="323.1275,-224.8447 185.1275,-224.8447 185.1275,-188.8447 323.1275,-188.8447 323.1275,-224.8447"/>
<text text-anchor="middle" x="254.1275" y="-204.0447" font-family="Courier,monospace" font-size="11.00" fill="#000000">SiteStateInterface</text>
</g>
<!-- \\Firesphere\\SolrFluent\\Extensions\\FluentDocumentExtension -->
<g id="node51" class="node">
<title>\\Firesphere\\SolrFluent\\Extensions\\FluentDocumentExtension</title>
<polygon fill="none" stroke="#000000" points="1012.7549,-722.8447 840.7549,-722.8447 840.7549,-686.8447 1012.7549,-686.8447 1012.7549,-722.8447"/>
<text text-anchor="middle" x="926.7549" y="-702.0447" font-family="Courier,monospace" font-size="11.00" fill="#000000">FluentDocumentExtension</text>
</g>
<!-- \\Firesphere\\SolrFluent\\Extensions\\FluentDocumentExtension&#45;&gt;\\SilverStripe\\Core\\Extension -->
<g id="edge25" class="edge">
<title>\\Firesphere\\SolrFluent\\Extensions\\FluentDocumentExtension&#45;&gt;\\SilverStripe\\Core\\Extension</title>
<path fill="none" stroke="#000000" d="M879.1415,-686.8203C857.7901,-676.1948 834.4799,-660.5133 821.2549,-638.8447 711.1151,-458.3849 894.9709,-343.0725 781.2549,-164.8447 751.3811,-118.0232 717.7618,-135.388 672.7549,-102.8447"/>
</g>
<!-- \\Firesphere\\SolrFluent\\Extensions\\FluentIndexExtension -->
<g id="node52" class="node">
<title>\\Firesphere\\SolrFluent\\Extensions\\FluentIndexExtension</title>
<polygon fill="none" stroke="#000000" points="1002.7549,-830.8447 850.7549,-830.8447 850.7549,-794.8447 1002.7549,-794.8447 1002.7549,-830.8447"/>
<text text-anchor="middle" x="926.7549" y="-810.0447" font-family="Courier,monospace" font-size="11.00" fill="#000000">FluentIndexExtension</text>
</g>
<!-- \\Firesphere\\SolrFluent\\Extensions\\FluentIndexExtension&#45;&gt;\\SilverStripe\\Core\\Extension -->
<g id="edge26" class="edge">
<title>\\Firesphere\\SolrFluent\\Extensions\\FluentIndexExtension&#45;&gt;\\SilverStripe\\Core\\Extension</title>
<path fill="none" stroke="#000000" d="M850.507,-805.6809C839.2706,-801.4045 828.918,-795.0864 821.2549,-785.8447 732.9871,-679.3937 854.4745,-282.1558 781.2549,-164.8447 751.8476,-117.7288 717.7618,-135.388 672.7549,-102.8447"/>
</g>
<!-- \\Firesphere\\SolrFluent\\Extensions\\FluentSchemaExtension -->
<g id="node53" class="node">
<title>\\Firesphere\\SolrFluent\\Extensions\\FluentSchemaExtension</title>
<polygon fill="none" stroke="#000000" points="1005.7549,-776.8447 847.7549,-776.8447 847.7549,-740.8447 1005.7549,-740.8447 1005.7549,-776.8447"/>
<text text-anchor="middle" x="926.7549" y="-756.0447" font-family="Courier,monospace" font-size="11.00" fill="#000000">FluentSchemaExtension</text>
</g>
<!-- \\Firesphere\\SolrFluent\\Extensions\\FluentSchemaExtension&#45;&gt;\\SilverStripe\\Core\\Extension -->
<g id="edge27" class="edge">
<title>\\Firesphere\\SolrFluent\\Extensions\\FluentSchemaExtension&#45;&gt;\\SilverStripe\\Core\\Extension</title>
<path fill="none" stroke="#000000" d="M847.6545,-750.4848C837.5372,-746.255 828.28,-740.2645 821.2549,-731.8447 740.3328,-634.8569 848.462,-271.7943 781.2549,-164.8447 751.7039,-117.8188 717.7618,-135.388 672.7549,-102.8447"/>
</g>
<!-- \\Firesphere\\SolrFluent\\States\\FluentSiteState -->
<g id="node54" class="node">
<title>\\Firesphere\\SolrFluent\\States\\FluentSiteState</title>
<polygon fill="none" stroke="#000000" points="985.7549,-910.8447 867.7549,-910.8447 867.7549,-874.8447 985.7549,-874.8447 985.7549,-910.8447"/>
<text text-anchor="middle" x="926.7549" y="-890.0447" font-family="Courier,monospace" font-size="11.00" fill="#000000">FluentSiteState</text>
</g>
<!-- \\Firesphere\\SolrFluent\\States\\FluentSiteState&#45;&gt;\\Firesphere\\SolrSearch\\States\\SiteState -->
<g id="edge28" class="edge">
<title>\\Firesphere\\SolrFluent\\States\\FluentSiteState&#45;&gt;\\Firesphere\\SolrSearch\\States\\SiteState</title>
<path fill="none" stroke="#000000" d="M891.4852,-910.93C866.9799,-925.6045 836.1489,-948.7761 821.2549,-978.8447 761.35,-1099.7834 864.7454,-2086.8065 781.2549,-2192.8447 767.8519,-2209.8673 745.7104,-2217.7727 724.9121,-2221.2649"/>
<polygon fill="none" stroke="#000000" points="724.2852,-2217.818 714.8541,-2222.6454 725.2371,-2224.753 724.2852,-2217.818"/>
</g>
<!-- \\Firesphere\\SolrFluent\\States\\FluentSiteState&#45;&gt;\\Firesphere\\SolrSearch\\Interfaces\\SiteStateInterface -->
<g id="edge29" class="edge">
<title>\\Firesphere\\SolrFluent\\States\\FluentSiteState&#45;&gt;\\Firesphere\\SolrSearch\\Interfaces\\SiteStateInterface</title>
<path fill="none" stroke="#000000" stroke-dasharray="1,5" d="M867.4876,-888.9169C850.0199,-884.7259 832.5734,-876.9564 821.2549,-862.8447 725.7123,-743.7232 888.8981,-285.1556 781.2549,-176.8447 764.2232,-159.7073 692.8139,-183.3132 672.7549,-169.8447"/>
<path fill="none" stroke="#000000" stroke-dasharray="1,5" d="M672.7549,-169.8447C645.303,-151.4123 446.8154,-177.6377 333.2851,-194.5173"/>
<polygon fill="none" stroke="#000000" points="332.6173,-191.0782 323.2449,-196.0186 333.6526,-198.0012 332.6173,-191.0782"/>
</g>
<!-- \\Firesphere\\SolrSubsites\\Extensions\\SubsitesExtension -->
<g id="node55" class="node">
<title>\\Firesphere\\SolrSubsites\\Extensions\\SubsitesExtension</title>
<polygon fill="none" stroke="#000000" points="992.2549,-1026.8447 861.2549,-1026.8447 861.2549,-990.8447 992.2549,-990.8447 992.2549,-1026.8447"/>
<text text-anchor="middle" x="926.7549" y="-1006.0447" font-family="Courier,monospace" font-size="11.00" fill="#000000">SubsitesExtension</text>
</g>
<!-- \\Firesphere\\SolrSubsites\\Extensions\\SubsitesExtension&#45;&gt;\\SilverStripe\\Core\\Extension -->
<g id="edge30" class="edge">
<title>\\Firesphere\\SolrSubsites\\Extensions\\SubsitesExtension&#45;&gt;\\SilverStripe\\Core\\Extension</title>
<path fill="none" stroke="#000000" d="M878.2804,-990.7371C857.0079,-980.1588 834.0131,-964.5412 821.2549,-942.8447 733.504,-793.6155 871.9637,-312.2946 781.2549,-164.8447 752.1534,-117.5393 717.7618,-135.388 672.7549,-102.8447"/>
</g>
<!-- \\Firesphere\\SolrSubsites\\States\\SubsiteState -->
<g id="node56" class="node">
<title>\\Firesphere\\SolrSubsites\\States\\SubsiteState</title>
<polygon fill="none" stroke="#000000" points="975.7549,-1106.8447 877.7549,-1106.8447 877.7549,-1070.8447 975.7549,-1070.8447 975.7549,-1106.8447"/>
<text text-anchor="middle" x="926.7549" y="-1086.0447" font-family="Courier,monospace" font-size="11.00" fill="#000000">SubsiteState</text>
</g>
<!-- \\Firesphere\\SolrSubsites\\States\\SubsiteState&#45;&gt;\\Firesphere\\SolrSearch\\States\\SiteState -->
<g id="edge31" class="edge">
<title>\\Firesphere\\SolrSubsites\\States\\SubsiteState&#45;&gt;\\Firesphere\\SolrSearch\\States\\SiteState</title>
<path fill="none" stroke="#000000" d="M925.5716,-1106.8617C916.4789,-1242.9943 856.0455,-2106.8867 781.2549,-2192.8447 767.2626,-2208.9262 745.4975,-2216.7501 725.1231,-2220.4337"/>
<polygon fill="none" stroke="#000000" points="724.326,-2217.0142 714.9596,-2221.966 725.3696,-2223.936 724.326,-2217.0142"/>
</g>
<!-- \\Firesphere\\SolrSubsites\\States\\SubsiteState&#45;&gt;\\Firesphere\\SolrSearch\\Interfaces\\SiteStateInterface -->
<g id="edge32" class="edge">
<title>\\Firesphere\\SolrSubsites\\States\\SubsiteState&#45;&gt;\\Firesphere\\SolrSearch\\Interfaces\\SiteStateInterface</title>
<path fill="none" stroke="#000000" stroke-dasharray="1,5" d="M877.5482,-1087.0596C856.9256,-1083.6083 834.6683,-1075.7915 821.2549,-1058.8447 760.3715,-981.9229 849.9568,-246.8719 781.2549,-176.8447 764.3343,-159.5977 692.8139,-183.3132 672.7549,-169.8447"/>
</g>
<!-- \\Firesphere\\SolrPermissions\\Extensions\\DataObjectExtension -->
<g id="node57" class="node">
<title>\\Firesphere\\SolrPermissions\\Extensions\\DataObjectExtension</title>
<polygon fill="none" stroke="#000000" points="999.2549,-606.8447 854.2549,-606.8447 854.2549,-570.8447 999.2549,-570.8447 999.2549,-606.8447"/>
<text text-anchor="middle" x="926.7549" y="-586.0447" font-family="Courier,monospace" font-size="11.00" fill="#000000">DataObjectExtension</text>
</g>
<!-- \\Firesphere\\SolrPermissions\\Extensions\\DataObjectExtension&#45;&gt;\\SilverStripe\\ORM\\DataExtension -->
<g id="edge33" class="edge">
<title>\\Firesphere\\SolrPermissions\\Extensions\\DataObjectExtension&#45;&gt;\\SilverStripe\\ORM\\DataExtension</title>
<path fill="none" stroke="#000000" d="M854.0027,-582.5956C841.515,-578.3495 829.8232,-571.8066 821.2549,-561.8447 705.6153,-427.397 898.5524,-297.8483 781.2549,-164.8447 718.2153,-93.3641 664.7691,-139.7484 572.2549,-116.8447 543.6866,-109.772 537.1957,-105.1929 508.2549,-99.8447 473.46,-93.4145 435.681,-88.3704 400.1541,-84.4727"/>
<polygon fill="none" stroke="#000000" points="400.5143,-80.9914 390.1977,-83.4036 399.7668,-87.9513 400.5143,-80.9914"/>
</g>
<!-- \\Firesphere\\SolrPermissions\\Extensions\\SchemaFactoryExtension -->
<g id="node58" class="node">
<title>\\Firesphere\\SolrPermissions\\Extensions\\SchemaFactoryExtension</title>
<polygon fill="none" stroke="#000000" points="1009.2549,-552.8447 844.2549,-552.8447 844.2549,-516.8447 1009.2549,-516.8447 1009.2549,-552.8447"/>
<text text-anchor="middle" x="926.7549" y="-532.0447" font-family="Courier,monospace" font-size="11.00" fill="#000000">SchemaFactoryExtension</text>
</g>
<!-- \\Firesphere\\SolrPermissions\\Extensions\\SchemaFactoryExtension&#45;&gt;\\SilverStripe\\Core\\Extension -->
<g id="edge34" class="edge">
<title>\\Firesphere\\SolrPermissions\\Extensions\\SchemaFactoryExtension&#45;&gt;\\SilverStripe\\Core\\Extension</title>
<path fill="none" stroke="#000000" d="M844.2543,-524.6862C835.5209,-520.6163 827.548,-515.15 821.2549,-507.8447 764.2495,-441.6701 842.1954,-179.4142 781.2549,-116.8447 747.3304,-82.0133 712.1558,-131.3344 672.7549,-102.8447"/>
</g>
<!-- \\Firesphere\\SolrPermissions\\Extensions\\BaseIndexExtension -->
<g id="node59" class="node">
<title>\\Firesphere\\SolrPermissions\\Extensions\\BaseIndexExtension</title>
<polygon fill="none" stroke="#000000" points="995.7549,-498.8447 857.7549,-498.8447 857.7549,-462.8447 995.7549,-462.8447 995.7549,-498.8447"/>
<text text-anchor="middle" x="926.7549" y="-478.0447" font-family="Courier,monospace" font-size="11.00" fill="#000000">BaseIndexExtension</text>
</g>
<!-- \\Firesphere\\SolrPermissions\\Extensions\\BaseIndexExtension&#45;&gt;\\SilverStripe\\Core\\Extension -->
<g id="edge35" class="edge">
<title>\\Firesphere\\SolrPermissions\\Extensions\\BaseIndexExtension&#45;&gt;\\SilverStripe\\Core\\Extension</title>
<path fill="none" stroke="#000000" d="M857.6967,-475.5786C843.8917,-471.4022 830.7401,-464.6379 821.2549,-453.8447 724.6017,-343.8629 879.7016,-235.2239 781.2549,-126.8447 748.0478,-90.2872 712.7764,-131.7832 672.7549,-102.8447"/>
</g>
<!-- \\Firesphere\\SolrPermissions\\Extensions\\DocumentFactoryExtension -->
<g id="node60" class="node">
<title>\\Firesphere\\SolrPermissions\\Extensions\\DocumentFactoryExtension</title>
<polygon fill="none" stroke="#000000" points="1016.2549,-444.8447 837.2549,-444.8447 837.2549,-408.8447 1016.2549,-408.8447 1016.2549,-444.8447"/>
<text text-anchor="middle" x="926.7549" y="-424.0447" font-family="Courier,monospace" font-size="11.00" fill="#000000">DocumentFactoryExtension</text>
</g>
<!-- \\Firesphere\\SolrPermissions\\Extensions\\DocumentFactoryExtension&#45;&gt;\\SilverStripe\\Core\\Extension -->
<g id="edge36" class="edge">
<title>\\Firesphere\\SolrPermissions\\Extensions\\DocumentFactoryExtension&#45;&gt;\\SilverStripe\\Core\\Extension</title>
<path fill="none" stroke="#000000" d="M880.75,-408.7181C859.3732,-397.9631 835.5703,-382.2002 821.2549,-360.8447 762.507,-273.2049 854.034,-203.2335 781.2549,-126.8447 747.1875,-91.0875 712.7764,-131.7832 672.7549,-102.8447"/>
</g>
<!-- \\SilverStripe\\FullTextSearch\\Solr\\SolrIndex -->
<g id="node61" class="node">
<title>\\SilverStripe\\FullTextSearch\\Solr\\SolrIndex</title>
<polygon fill="none" stroke="#000000" points="968.7549,-3286.8447 884.7549,-3286.8447 884.7549,-3250.8447 968.7549,-3250.8447 968.7549,-3286.8447"/>
<text text-anchor="start" x="892.7549" y="-3272.0447" font-family="Courier,monospace" font-size="11.00" fill="#000000">«abstract»</text>
<text text-anchor="start" x="896.2549" y="-3260.0447" font-family="Courier,monospace" font-size="11.00" fill="#000000">SolrIndex</text>
</g>
<!-- \\SilverStripe\\FullTextSearch\\Solr\\SolrIndex&#45;&gt;\\Firesphere\\SolrSearch\\Indexes\\BaseIndex -->
<g id="edge4" class="edge">
<title>\\SilverStripe\\FullTextSearch\\Solr\\SolrIndex&#45;&gt;\\Firesphere\\SolrSearch\\Indexes\\BaseIndex</title>
<path fill="none" stroke="#000000" d="M884.7273,-3269.5372C862.2229,-3267.4755 836.1421,-3260.6834 821.2549,-3241.8447 741.502,-3140.9227 851.5455,-1034.5711 781.2549,-926.8447 768.4777,-907.2626 745.9131,-895.2309 724.659,-887.8972"/>
<polygon fill="none" stroke="#000000" points="725.6157,-884.529 715.0256,-884.848 723.5032,-891.2026 725.6157,-884.529"/>
</g>
<!-- \\SilverStripe\\FullTextSearch\\Solr\\Solr -->
<g id="node62" class="node">
<title>\\SilverStripe\\FullTextSearch\\Solr\\Solr</title>
<polygon fill="none" stroke="#000000" points="953.7549,-3232.8447 899.7549,-3232.8447 899.7549,-3196.8447 953.7549,-3196.8447 953.7549,-3232.8447"/>
<text text-anchor="middle" x="926.7549" y="-3212.0447" font-family="Courier,monospace" font-size="11.00" fill="#000000">Solr</text>
</g>
<!-- \\SilverStripe\\FullTextSearch\\Search\\Queries\\SearchQuery -->
<g id="node63" class="node">
<title>\\SilverStripe\\FullTextSearch\\Search\\Queries\\SearchQuery</title>
<polygon fill="none" stroke="#000000" points="972.2549,-3124.8447 881.2549,-3124.8447 881.2549,-3088.8447 972.2549,-3088.8447 972.2549,-3124.8447"/>
<text text-anchor="middle" x="926.7549" y="-3104.0447" font-family="Courier,monospace" font-size="11.00" fill="#000000">SearchQuery</text>
</g>
<!-- \\SilverStripe\\FullTextSearch\\Search\\Queries\\SearchQuery&#45;&gt;\\Firesphere\\SolrSearch\\Queries\\BaseQuery -->
<g id="edge5" class="edge">
<title>\\SilverStripe\\FullTextSearch\\Search\\Queries\\SearchQuery&#45;&gt;\\Firesphere\\SolrSearch\\Queries\\BaseQuery</title>
<path fill="none" stroke="#000000" d="M925.8084,-3088.7541C914.2045,-2867.244 799.4879,-685.5432 781.2549,-658.8447 767.3978,-638.5536 743.1301,-626.3349 721.0549,-619.0628"/>
<polygon fill="none" stroke="#000000" points="722.0248,-615.6996 711.4395,-616.1492 719.9948,-622.3988 722.0248,-615.6996"/>
</g>
</g>
</svg>
