<?xml version="1.0" encoding="UTF-8" standalone="no"?>
<!DOCTYPE svg PUBLIC "-//W3C//DTD SVG 1.1//EN"
 "http://www.w3.org/Graphics/SVG/1.1/DTD/svg11.dtd">
<!-- Generated by graphviz version 2.40.1 (20161225.0304)
 -->
<!-- Title: G Pages: 1 -->
<svg width="1064pt" height="3722pt"
 viewBox="0.00 0.00 1064.25 3721.58" xmlns="http://www.w3.org/2000/svg" xmlns:xlink="http://www.w3.org/1999/xlink">
<g id="graph0" class="graph" transform="scale(1 1) rotate(0) translate(4 3717.5819)">
<title>G</title>
<polygon fill="#ffffff" stroke="transparent" points="-4,4 -4,-3717.5819 1060.2549,-3717.5819 1060.2549,4 -4,4"/>
<g id="clust1" class="cluster">
<title>cluster_Global</title>
<path fill="none" stroke="#c0c0c0" d="M165.1275,-152.8153C165.1275,-152.8153 1036.2549,-152.8153 1036.2549,-152.8153 1042.2549,-152.8153 1048.2549,-158.8153 1048.2549,-164.8153 1048.2549,-164.8153 1048.2549,-3386.8153 1048.2549,-3386.8153 1048.2549,-3392.8153 1042.2549,-3398.8153 1036.2549,-3398.8153 1036.2549,-3398.8153 165.1275,-3398.8153 165.1275,-3398.8153 159.1275,-3398.8153 153.1275,-3392.8153 153.1275,-3386.8153 153.1275,-3386.8153 153.1275,-164.8153 153.1275,-164.8153 153.1275,-158.8153 159.1275,-152.8153 165.1275,-152.8153"/>
<text text-anchor="middle" x="600.6912" y="-3386.0153" font-family="Times,serif" font-size="11.00" fill="#c0c0c0">Global</text>
</g>
<g id="clust2" class="cluster">
<title>cluster_\SilverStripe</title>
<path fill="none" stroke="#c0c0c0" d="M861.2549,-3056.8153C861.2549,-3056.8153 992.2549,-3056.8153 992.2549,-3056.8153 998.2549,-3056.8153 1004.2549,-3062.8153 1004.2549,-3068.8153 1004.2549,-3068.8153 1004.2549,-3358.8153 1004.2549,-3358.8153 1004.2549,-3364.8153 998.2549,-3370.8153 992.2549,-3370.8153 992.2549,-3370.8153 861.2549,-3370.8153 861.2549,-3370.8153 855.2549,-3370.8153 849.2549,-3364.8153 849.2549,-3358.8153 849.2549,-3358.8153 849.2549,-3068.8153 849.2549,-3068.8153 849.2549,-3062.8153 855.2549,-3056.8153 861.2549,-3056.8153"/>
<text text-anchor="middle" x="926.7549" y="-3358.0153" font-family="Times,serif" font-size="11.00" fill="#c0c0c0">SilverStripe</text>
</g>
<g id="clust3" class="cluster">
<title>cluster_\SilverStripe\FullTextSearch</title>
<path fill="none" stroke="#c0c0c0" d="M869.2549,-3064.8153C869.2549,-3064.8153 984.2549,-3064.8153 984.2549,-3064.8153 990.2549,-3064.8153 996.2549,-3070.8153 996.2549,-3076.8153 996.2549,-3076.8153 996.2549,-3330.8153 996.2549,-3330.8153 996.2549,-3336.8153 990.2549,-3342.8153 984.2549,-3342.8153 984.2549,-3342.8153 869.2549,-3342.8153 869.2549,-3342.8153 863.2549,-3342.8153 857.2549,-3336.8153 857.2549,-3330.8153 857.2549,-3330.8153 857.2549,-3076.8153 857.2549,-3076.8153 857.2549,-3070.8153 863.2549,-3064.8153 869.2549,-3064.8153"/>
<text text-anchor="middle" x="926.7549" y="-3330.0153" font-family="Times,serif" font-size="11.00" fill="#c0c0c0">FullTextSearch</text>
</g>
<g id="clust4" class="cluster">
<title>cluster_\SilverStripe\FullTextSearch\Solr</title>
<path fill="none" stroke="#c0c0c0" d="M888.7549,-3188.8153C888.7549,-3188.8153 964.7549,-3188.8153 964.7549,-3188.8153 970.7549,-3188.8153 976.7549,-3194.8153 976.7549,-3200.8153 976.7549,-3200.8153 976.7549,-3302.8153 976.7549,-3302.8153 976.7549,-3308.8153 970.7549,-3314.8153 964.7549,-3314.8153 964.7549,-3314.8153 888.7549,-3314.8153 888.7549,-3314.8153 882.7549,-3314.8153 876.7549,-3308.8153 876.7549,-3302.8153 876.7549,-3302.8153 876.7549,-3200.8153 876.7549,-3200.8153 876.7549,-3194.8153 882.7549,-3188.8153 888.7549,-3188.8153"/>
<text text-anchor="middle" x="926.7549" y="-3302.0153" font-family="Times,serif" font-size="11.00" fill="#c0c0c0">Solr</text>
</g>
<g id="clust5" class="cluster">
<title>cluster_\SilverStripe\FullTextSearch\Search</title>
<path fill="none" stroke="#c0c0c0" d="M877.2549,-3072.8153C877.2549,-3072.8153 976.2549,-3072.8153 976.2549,-3072.8153 982.2549,-3072.8153 988.2549,-3078.8153 988.2549,-3084.8153 988.2549,-3084.8153 988.2549,-3168.8153 988.2549,-3168.8153 988.2549,-3174.8153 982.2549,-3180.8153 976.2549,-3180.8153 976.2549,-3180.8153 877.2549,-3180.8153 877.2549,-3180.8153 871.2549,-3180.8153 865.2549,-3174.8153 865.2549,-3168.8153 865.2549,-3168.8153 865.2549,-3084.8153 865.2549,-3084.8153 865.2549,-3078.8153 871.2549,-3072.8153 877.2549,-3072.8153"/>
<text text-anchor="middle" x="926.7549" y="-3168.0153" font-family="Times,serif" font-size="11.00" fill="#c0c0c0">Search</text>
</g>
<g id="clust6" class="cluster">
<title>cluster_\SilverStripe\FullTextSearch\Search\Queries</title>
<path fill="none" stroke="#c0c0c0" d="M885.2549,-3080.8153C885.2549,-3080.8153 968.2549,-3080.8153 968.2549,-3080.8153 974.2549,-3080.8153 980.2549,-3086.8153 980.2549,-3092.8153 980.2549,-3092.8153 980.2549,-3140.8153 980.2549,-3140.8153 980.2549,-3146.8153 974.2549,-3152.8153 968.2549,-3152.8153 968.2549,-3152.8153 885.2549,-3152.8153 885.2549,-3152.8153 879.2549,-3152.8153 873.2549,-3146.8153 873.2549,-3140.8153 873.2549,-3140.8153 873.2549,-3092.8153 873.2549,-3092.8153 873.2549,-3086.8153 879.2549,-3080.8153 885.2549,-3080.8153"/>
<text text-anchor="middle" x="926.7549" y="-3140.0153" font-family="Times,serif" font-size="11.00" fill="#c0c0c0">Queries</text>
</g>
<g id="clust7" class="cluster">
<title>cluster_\Firesphere</title>
<path fill="none" stroke="#c0c0c0" d="M173.1275,-160.8153C173.1275,-160.8153 1028.2549,-160.8153 1028.2549,-160.8153 1034.2549,-160.8153 1040.2549,-166.8153 1040.2549,-172.8153 1040.2549,-172.8153 1040.2549,-3036.8153 1040.2549,-3036.8153 1040.2549,-3042.8153 1034.2549,-3048.8153 1028.2549,-3048.8153 1028.2549,-3048.8153 173.1275,-3048.8153 173.1275,-3048.8153 167.1275,-3048.8153 161.1275,-3042.8153 161.1275,-3036.8153 161.1275,-3036.8153 161.1275,-172.8153 161.1275,-172.8153 161.1275,-166.8153 167.1275,-160.8153 173.1275,-160.8153"/>
<text text-anchor="middle" x="600.6912" y="-3036.0153" font-family="Times,serif" font-size="11.00" fill="#c0c0c0">Firesphere</text>
</g>
<g id="clust8" class="cluster">
<title>cluster_\Firesphere\SolrCompatibility</title>
<path fill="none" stroke="#c0c0c0" d="M833.2549,-168.8153C833.2549,-168.8153 1020.2549,-168.8153 1020.2549,-168.8153 1026.2549,-168.8153 1032.2549,-174.8153 1032.2549,-180.8153 1032.2549,-180.8153 1032.2549,-372.8153 1032.2549,-372.8153 1032.2549,-378.8153 1026.2549,-384.8153 1020.2549,-384.8153 1020.2549,-384.8153 833.2549,-384.8153 833.2549,-384.8153 827.2549,-384.8153 821.2549,-378.8153 821.2549,-372.8153 821.2549,-372.8153 821.2549,-180.8153 821.2549,-180.8153 821.2549,-174.8153 827.2549,-168.8153 833.2549,-168.8153"/>
<text text-anchor="middle" x="926.7549" y="-372.0153" font-family="Times,serif" font-size="11.00" fill="#c0c0c0">SolrCompatibility</text>
</g>
<g id="clust9" class="cluster">
<title>cluster_\Firesphere\SolrCompatibility\Extensions</title>
<path fill="none" stroke="#c0c0c0" d="M841.2549,-176.8153C841.2549,-176.8153 1012.2549,-176.8153 1012.2549,-176.8153 1018.2549,-176.8153 1024.2549,-182.8153 1024.2549,-188.8153 1024.2549,-188.8153 1024.2549,-344.8153 1024.2549,-344.8153 1024.2549,-350.8153 1018.2549,-356.8153 1012.2549,-356.8153 1012.2549,-356.8153 841.2549,-356.8153 841.2549,-356.8153 835.2549,-356.8153 829.2549,-350.8153 829.2549,-344.8153 829.2549,-344.8153 829.2549,-188.8153 829.2549,-188.8153 829.2549,-182.8153 835.2549,-176.8153 841.2549,-176.8153"/>
<text text-anchor="middle" x="926.7549" y="-344.0153" font-family="Times,serif" font-size="11.00" fill="#c0c0c0">Extensions</text>
</g>
<g id="clust10" class="cluster">
<title>cluster_\Firesphere\SolrSearch</title>
<path fill="none" stroke="#c0c0c0" d="M181.1275,-172.8153C181.1275,-172.8153 769.2549,-172.8153 769.2549,-172.8153 775.2549,-172.8153 781.2549,-178.8153 781.2549,-184.8153 781.2549,-184.8153 781.2549,-3008.8153 781.2549,-3008.8153 781.2549,-3014.8153 775.2549,-3020.8153 769.2549,-3020.8153 769.2549,-3020.8153 181.1275,-3020.8153 181.1275,-3020.8153 175.1275,-3020.8153 169.1275,-3014.8153 169.1275,-3008.8153 169.1275,-3008.8153 169.1275,-184.8153 169.1275,-184.8153 169.1275,-178.8153 175.1275,-172.8153 181.1275,-172.8153"/>
<text text-anchor="middle" x="475.1912" y="-3008.0153" font-family="Times,serif" font-size="11.00" fill="#c0c0c0">SolrSearch</text>
</g>
<g id="clust11" class="cluster">
<title>cluster_\Firesphere\SolrSearch\Helpers</title>
<path fill="none" stroke="#c0c0c0" d="M624.7549,-2704.8153C624.7549,-2704.8153 720.7549,-2704.8153 720.7549,-2704.8153 726.7549,-2704.8153 732.7549,-2710.8153 732.7549,-2716.8153 732.7549,-2716.8153 732.7549,-2980.8153 732.7549,-2980.8153 732.7549,-2986.8153 726.7549,-2992.8153 720.7549,-2992.8153 720.7549,-2992.8153 624.7549,-2992.8153 624.7549,-2992.8153 618.7549,-2992.8153 612.7549,-2986.8153 612.7549,-2980.8153 612.7549,-2980.8153 612.7549,-2716.8153 612.7549,-2716.8153 612.7549,-2710.8153 618.7549,-2704.8153 624.7549,-2704.8153"/>
<text text-anchor="middle" x="672.7549" y="-2980.0153" font-family="Times,serif" font-size="11.00" fill="#c0c0c0">Helpers</text>
</g>
<g id="clust12" class="cluster">
<title>cluster_\Firesphere\SolrSearch\Queries</title>
<path fill="none" stroke="#c0c0c0" d="M638.2549,-2624.8153C638.2549,-2624.8153 707.2549,-2624.8153 707.2549,-2624.8153 713.2549,-2624.8153 719.2549,-2630.8153 719.2549,-2636.8153 719.2549,-2636.8153 719.2549,-2684.8153 719.2549,-2684.8153 719.2549,-2690.8153 713.2549,-2696.8153 707.2549,-2696.8153 707.2549,-2696.8153 638.2549,-2696.8153 638.2549,-2696.8153 632.2549,-2696.8153 626.2549,-2690.8153 626.2549,-2684.8153 626.2549,-2684.8153 626.2549,-2636.8153 626.2549,-2636.8153 626.2549,-2630.8153 632.2549,-2624.8153 638.2549,-2624.8153"/>
<text text-anchor="middle" x="672.7549" y="-2684.0153" font-family="Times,serif" font-size="11.00" fill="#c0c0c0">Queries</text>
</g>
<g id="clust13" class="cluster">
<title>cluster_\Firesphere\SolrSearch\Jobs</title>
<path fill="none" stroke="#c0c0c0" d="M600.7549,-2248.8153C600.7549,-2248.8153 744.7549,-2248.8153 744.7549,-2248.8153 750.7549,-2248.8153 756.7549,-2254.8153 756.7549,-2260.8153 756.7549,-2260.8153 756.7549,-2416.8153 756.7549,-2416.8153 756.7549,-2422.8153 750.7549,-2428.8153 744.7549,-2428.8153 744.7549,-2428.8153 600.7549,-2428.8153 600.7549,-2428.8153 594.7549,-2428.8153 588.7549,-2422.8153 588.7549,-2416.8153 588.7549,-2416.8153 588.7549,-2260.8153 588.7549,-2260.8153 588.7549,-2254.8153 594.7549,-2248.8153 600.7549,-2248.8153"/>
<text text-anchor="middle" x="672.7549" y="-2416.0153" font-family="Times,serif" font-size="11.00" fill="#c0c0c0">Jobs</text>
</g>
<g id="clust14" class="cluster">
<title>cluster_\Firesphere\SolrSearch\Interfaces</title>
<path fill="none" stroke="#c0c0c0" d="M189.1275,-768.8153C189.1275,-768.8153 319.1275,-768.8153 319.1275,-768.8153 325.1275,-768.8153 331.1275,-774.8153 331.1275,-780.8153 331.1275,-780.8153 331.1275,-882.8153 331.1275,-882.8153 331.1275,-888.8153 325.1275,-894.8153 319.1275,-894.8153 319.1275,-894.8153 189.1275,-894.8153 189.1275,-894.8153 183.1275,-894.8153 177.1275,-888.8153 177.1275,-882.8153 177.1275,-882.8153 177.1275,-780.8153 177.1275,-780.8153 177.1275,-774.8153 183.1275,-768.8153 189.1275,-768.8153"/>
<text text-anchor="middle" x="254.1275" y="-882.0153" font-family="Times,serif" font-size="11.00" fill="#c0c0c0">Interfaces</text>
</g>
<g id="clust15" class="cluster">
<title>cluster_\Firesphere\SolrSearch\Factories</title>
<path fill="none" stroke="#c0c0c0" d="M597.7549,-2436.8153C597.7549,-2436.8153 747.7549,-2436.8153 747.7549,-2436.8153 753.7549,-2436.8153 759.7549,-2442.8153 759.7549,-2448.8153 759.7549,-2448.8153 759.7549,-2604.8153 759.7549,-2604.8153 759.7549,-2610.8153 753.7549,-2616.8153 747.7549,-2616.8153 747.7549,-2616.8153 597.7549,-2616.8153 597.7549,-2616.8153 591.7549,-2616.8153 585.7549,-2610.8153 585.7549,-2604.8153 585.7549,-2604.8153 585.7549,-2448.8153 585.7549,-2448.8153 585.7549,-2442.8153 591.7549,-2436.8153 597.7549,-2436.8153"/>
<text text-anchor="middle" x="672.7549" y="-2604.0153" font-family="Times,serif" font-size="11.00" fill="#c0c0c0">Factories</text>
</g>
<g id="clust16" class="cluster">
<title>cluster_\Firesphere\SolrSearch\Extensions</title>
<path fill="none" stroke="#c0c0c0" d="M604.2549,-2114.8153C604.2549,-2114.8153 741.2549,-2114.8153 741.2549,-2114.8153 747.2549,-2114.8153 753.2549,-2120.8153 753.2549,-2126.8153 753.2549,-2126.8153 753.2549,-2228.8153 753.2549,-2228.8153 753.2549,-2234.8153 747.2549,-2240.8153 741.2549,-2240.8153 741.2549,-2240.8153 604.2549,-2240.8153 604.2549,-2240.8153 598.2549,-2240.8153 592.2549,-2234.8153 592.2549,-2228.8153 592.2549,-2228.8153 592.2549,-2126.8153 592.2549,-2126.8153 592.2549,-2120.8153 598.2549,-2114.8153 604.2549,-2114.8153"/>
<text text-anchor="middle" x="672.7549" y="-2228.0153" font-family="Times,serif" font-size="11.00" fill="#c0c0c0">Extensions</text>
</g>
<g id="clust17" class="cluster">
<title>cluster_\Firesphere\SolrSearch\Services</title>
<path fill="none" stroke="#c0c0c0" d="M617.7549,-2034.8153C617.7549,-2034.8153 727.7549,-2034.8153 727.7549,-2034.8153 733.7549,-2034.8153 739.7549,-2040.8153 739.7549,-2046.8153 739.7549,-2046.8153 739.7549,-2094.8153 739.7549,-2094.8153 739.7549,-2100.8153 733.7549,-2106.8153 727.7549,-2106.8153 727.7549,-2106.8153 617.7549,-2106.8153 617.7549,-2106.8153 611.7549,-2106.8153 605.7549,-2100.8153 605.7549,-2094.8153 605.7549,-2094.8153 605.7549,-2046.8153 605.7549,-2046.8153 605.7549,-2040.8153 611.7549,-2034.8153 617.7549,-2034.8153"/>
<text text-anchor="middle" x="672.7549" y="-2094.0153" font-family="Times,serif" font-size="11.00" fill="#c0c0c0">Services</text>
</g>
<g id="clust18" class="cluster">
<title>cluster_\Firesphere\SolrSearch\Models</title>
<path fill="none" stroke="#c0c0c0" d="M624.7549,-1846.8153C624.7549,-1846.8153 720.7549,-1846.8153 720.7549,-1846.8153 726.7549,-1846.8153 732.7549,-1852.8153 732.7549,-1858.8153 732.7549,-1858.8153 732.7549,-2014.8153 732.7549,-2014.8153 732.7549,-2020.8153 726.7549,-2026.8153 720.7549,-2026.8153 720.7549,-2026.8153 624.7549,-2026.8153 624.7549,-2026.8153 618.7549,-2026.8153 612.7549,-2020.8153 612.7549,-2014.8153 612.7549,-2014.8153 612.7549,-1858.8153 612.7549,-1858.8153 612.7549,-1852.8153 618.7549,-1846.8153 624.7549,-1846.8153"/>
<text text-anchor="middle" x="672.7549" y="-2014.0153" font-family="Times,serif" font-size="11.00" fill="#c0c0c0">Models</text>
</g>
<g id="clust19" class="cluster">
<title>cluster_\Firesphere\SolrSearch\Traits</title>
<path fill="none" stroke="#c0c0c0" d="M584.2549,-956.8153C584.2549,-956.8153 761.2549,-956.8153 761.2549,-956.8153 767.2549,-956.8153 773.2549,-962.8153 773.2549,-968.8153 773.2549,-968.8153 773.2549,-1826.8153 773.2549,-1826.8153 773.2549,-1832.8153 767.2549,-1838.8153 761.2549,-1838.8153 761.2549,-1838.8153 584.2549,-1838.8153 584.2549,-1838.8153 578.2549,-1838.8153 572.2549,-1832.8153 572.2549,-1826.8153 572.2549,-1826.8153 572.2549,-968.8153 572.2549,-968.8153 572.2549,-962.8153 578.2549,-956.8153 584.2549,-956.8153"/>
<text text-anchor="middle" x="672.7549" y="-1826.0153" font-family="Times,serif" font-size="11.00" fill="#c0c0c0">Traits</text>
</g>
<g id="clust20" class="cluster">
<title>cluster_\Firesphere\SolrSearch\Stores</title>
<path fill="none" stroke="#c0c0c0" d="M617.7549,-822.8153C617.7549,-822.8153 727.7549,-822.8153 727.7549,-822.8153 733.7549,-822.8153 739.7549,-828.8153 739.7549,-834.8153 739.7549,-834.8153 739.7549,-936.8153 739.7549,-936.8153 739.7549,-942.8153 733.7549,-948.8153 727.7549,-948.8153 727.7549,-948.8153 617.7549,-948.8153 617.7549,-948.8153 611.7549,-948.8153 605.7549,-942.8153 605.7549,-936.8153 605.7549,-936.8153 605.7549,-834.8153 605.7549,-834.8153 605.7549,-828.8153 611.7549,-822.8153 617.7549,-822.8153"/>
<text text-anchor="middle" x="672.7549" y="-936.0153" font-family="Times,serif" font-size="11.00" fill="#c0c0c0">Stores</text>
</g>
<g id="clust21" class="cluster">
<title>cluster_\Firesphere\SolrSearch\Indexes</title>
<path fill="none" stroke="#c0c0c0" d="M634.7549,-742.8153C634.7549,-742.8153 710.7549,-742.8153 710.7549,-742.8153 716.7549,-742.8153 722.7549,-748.8153 722.7549,-754.8153 722.7549,-754.8153 722.7549,-802.8153 722.7549,-802.8153 722.7549,-808.8153 716.7549,-814.8153 710.7549,-814.8153 710.7549,-814.8153 634.7549,-814.8153 634.7549,-814.8153 628.7549,-814.8153 622.7549,-808.8153 622.7549,-802.8153 622.7549,-802.8153 622.7549,-754.8153 622.7549,-754.8153 622.7549,-748.8153 628.7549,-742.8153 634.7549,-742.8153"/>
<text text-anchor="middle" x="672.7549" y="-802.0153" font-family="Times,serif" font-size="11.00" fill="#c0c0c0">Indexes</text>
</g>
<g id="clust22" class="cluster">
<title>cluster_\Firesphere\SolrSearch\States</title>
<path fill="none" stroke="#c0c0c0" d="M634.7549,-662.8153C634.7549,-662.8153 710.7549,-662.8153 710.7549,-662.8153 716.7549,-662.8153 722.7549,-668.8153 722.7549,-674.8153 722.7549,-674.8153 722.7549,-722.8153 722.7549,-722.8153 722.7549,-728.8153 716.7549,-734.8153 710.7549,-734.8153 710.7549,-734.8153 634.7549,-734.8153 634.7549,-734.8153 628.7549,-734.8153 622.7549,-728.8153 622.7549,-722.8153 622.7549,-722.8153 622.7549,-674.8153 622.7549,-674.8153 622.7549,-668.8153 628.7549,-662.8153 634.7549,-662.8153"/>
<text text-anchor="middle" x="672.7549" y="-722.0153" font-family="Times,serif" font-size="11.00" fill="#c0c0c0">States</text>
</g>
<g id="clust23" class="cluster">
<title>cluster_\Firesphere\SolrSearch\Forms</title>
<path fill="none" stroke="#c0c0c0" d="M634.7549,-502.8153C634.7549,-502.8153 710.7549,-502.8153 710.7549,-502.8153 716.7549,-502.8153 722.7549,-508.8153 722.7549,-514.8153 722.7549,-514.8153 722.7549,-562.8153 722.7549,-562.8153 722.7549,-568.8153 716.7549,-574.8153 710.7549,-574.8153 710.7549,-574.8153 634.7549,-574.8153 634.7549,-574.8153 628.7549,-574.8153 622.7549,-568.8153 622.7549,-562.8153 622.7549,-562.8153 622.7549,-514.8153 622.7549,-514.8153 622.7549,-508.8153 628.7549,-502.8153 634.7549,-502.8153"/>
<text text-anchor="middle" x="672.7549" y="-562.0153" font-family="Times,serif" font-size="11.00" fill="#c0c0c0">Forms</text>
</g>
<g id="clust24" class="cluster">
<title>cluster_\Firesphere\SolrSearch\Tasks</title>
<path fill="none" stroke="#c0c0c0" d="M597.7549,-260.8153C597.7549,-260.8153 747.7549,-260.8153 747.7549,-260.8153 753.7549,-260.8153 759.7549,-266.8153 759.7549,-272.8153 759.7549,-272.8153 759.7549,-482.8153 759.7549,-482.8153 759.7549,-488.8153 753.7549,-494.8153 747.7549,-494.8153 747.7549,-494.8153 597.7549,-494.8153 597.7549,-494.8153 591.7549,-494.8153 585.7549,-488.8153 585.7549,-482.8153 585.7549,-482.8153 585.7549,-272.8153 585.7549,-272.8153 585.7549,-266.8153 591.7549,-260.8153 597.7549,-260.8153"/>
<text text-anchor="middle" x="672.7549" y="-482.0153" font-family="Times,serif" font-size="11.00" fill="#c0c0c0">Tasks</text>
</g>
<g id="clust25" class="cluster">
<title>cluster_\Firesphere\SolrSearch\Results</title>
<path fill="none" stroke="#c0c0c0" d="M627.7549,-582.8153C627.7549,-582.8153 717.7549,-582.8153 717.7549,-582.8153 723.7549,-582.8153 729.7549,-588.8153 729.7549,-594.8153 729.7549,-594.8153 729.7549,-642.8153 729.7549,-642.8153 729.7549,-648.8153 723.7549,-654.8153 717.7549,-654.8153 717.7549,-654.8153 627.7549,-654.8153 627.7549,-654.8153 621.7549,-654.8153 615.7549,-648.8153 615.7549,-642.8153 615.7549,-642.8153 615.7549,-594.8153 615.7549,-594.8153 615.7549,-588.8153 621.7549,-582.8153 627.7549,-582.8153"/>
<text text-anchor="middle" x="672.7549" y="-642.0153" font-family="Times,serif" font-size="11.00" fill="#c0c0c0">Results</text>
</g>
<g id="clust26" class="cluster">
<title>cluster_\Firesphere\SolrSearch\Admins</title>
<path fill="none" stroke="#c0c0c0" d="M631.2549,-180.8153C631.2549,-180.8153 714.2549,-180.8153 714.2549,-180.8153 720.2549,-180.8153 726.2549,-186.8153 726.2549,-192.8153 726.2549,-192.8153 726.2549,-240.8153 726.2549,-240.8153 726.2549,-246.8153 720.2549,-252.8153 714.2549,-252.8153 714.2549,-252.8153 631.2549,-252.8153 631.2549,-252.8153 625.2549,-252.8153 619.2549,-246.8153 619.2549,-240.8153 619.2549,-240.8153 619.2549,-192.8153 619.2549,-192.8153 619.2549,-186.8153 625.2549,-180.8153 631.2549,-180.8153"/>
<text text-anchor="middle" x="672.7549" y="-240.0153" font-family="Times,serif" font-size="11.00" fill="#c0c0c0">Admins</text>
</g>
<g id="clust27" class="cluster">
<title>cluster_\Firesphere\SolrFluent</title>
<path fill="none" stroke="#c0c0c0" d="M836.7549,-670.8153C836.7549,-670.8153 1016.7549,-670.8153 1016.7549,-670.8153 1022.7549,-670.8153 1028.7549,-676.8153 1028.7549,-682.8153 1028.7549,-682.8153 1028.7549,-954.8153 1028.7549,-954.8153 1028.7549,-960.8153 1022.7549,-966.8153 1016.7549,-966.8153 1016.7549,-966.8153 836.7549,-966.8153 836.7549,-966.8153 830.7549,-966.8153 824.7549,-960.8153 824.7549,-954.8153 824.7549,-954.8153 824.7549,-682.8153 824.7549,-682.8153 824.7549,-676.8153 830.7549,-670.8153 836.7549,-670.8153"/>
<text text-anchor="middle" x="926.7549" y="-954.0153" font-family="Times,serif" font-size="11.00" fill="#c0c0c0">SolrFluent</text>
</g>
<g id="clust28" class="cluster">
<title>cluster_\Firesphere\SolrFluent\Extensions</title>
<path fill="none" stroke="#c0c0c0" d="M844.7549,-678.8153C844.7549,-678.8153 1008.7549,-678.8153 1008.7549,-678.8153 1014.7549,-678.8153 1020.7549,-684.8153 1020.7549,-690.8153 1020.7549,-690.8153 1020.7549,-846.8153 1020.7549,-846.8153 1020.7549,-852.8153 1014.7549,-858.8153 1008.7549,-858.8153 1008.7549,-858.8153 844.7549,-858.8153 844.7549,-858.8153 838.7549,-858.8153 832.7549,-852.8153 832.7549,-846.8153 832.7549,-846.8153 832.7549,-690.8153 832.7549,-690.8153 832.7549,-684.8153 838.7549,-678.8153 844.7549,-678.8153"/>
<text text-anchor="middle" x="926.7549" y="-846.0153" font-family="Times,serif" font-size="11.00" fill="#c0c0c0">Extensions</text>
</g>
<g id="clust29" class="cluster">
<title>cluster_\Firesphere\SolrFluent\States</title>
<path fill="none" stroke="#c0c0c0" d="M871.7549,-866.8153C871.7549,-866.8153 981.7549,-866.8153 981.7549,-866.8153 987.7549,-866.8153 993.7549,-872.8153 993.7549,-878.8153 993.7549,-878.8153 993.7549,-926.8153 993.7549,-926.8153 993.7549,-932.8153 987.7549,-938.8153 981.7549,-938.8153 981.7549,-938.8153 871.7549,-938.8153 871.7549,-938.8153 865.7549,-938.8153 859.7549,-932.8153 859.7549,-926.8153 859.7549,-926.8153 859.7549,-878.8153 859.7549,-878.8153 859.7549,-872.8153 865.7549,-866.8153 871.7549,-866.8153"/>
<text text-anchor="middle" x="926.7549" y="-926.0153" font-family="Times,serif" font-size="11.00" fill="#c0c0c0">States</text>
</g>
<g id="clust30" class="cluster">
<title>cluster_\Firesphere\SolrSubsites</title>
<path fill="none" stroke="#c0c0c0" d="M857.2549,-974.8153C857.2549,-974.8153 996.2549,-974.8153 996.2549,-974.8153 1002.2549,-974.8153 1008.2549,-980.8153 1008.2549,-986.8153 1008.2549,-986.8153 1008.2549,-1150.8153 1008.2549,-1150.8153 1008.2549,-1156.8153 1002.2549,-1162.8153 996.2549,-1162.8153 996.2549,-1162.8153 857.2549,-1162.8153 857.2549,-1162.8153 851.2549,-1162.8153 845.2549,-1156.8153 845.2549,-1150.8153 845.2549,-1150.8153 845.2549,-986.8153 845.2549,-986.8153 845.2549,-980.8153 851.2549,-974.8153 857.2549,-974.8153"/>
<text text-anchor="middle" x="926.7549" y="-1150.0153" font-family="Times,serif" font-size="11.00" fill="#c0c0c0">SolrSubsites</text>
</g>
<g id="clust31" class="cluster">
<title>cluster_\Firesphere\SolrSubsites\Extensions</title>
<path fill="none" stroke="#c0c0c0" d="M865.2549,-982.8153C865.2549,-982.8153 988.2549,-982.8153 988.2549,-982.8153 994.2549,-982.8153 1000.2549,-988.8153 1000.2549,-994.8153 1000.2549,-994.8153 1000.2549,-1042.8153 1000.2549,-1042.8153 1000.2549,-1048.8153 994.2549,-1054.8153 988.2549,-1054.8153 988.2549,-1054.8153 865.2549,-1054.8153 865.2549,-1054.8153 859.2549,-1054.8153 853.2549,-1048.8153 853.2549,-1042.8153 853.2549,-1042.8153 853.2549,-994.8153 853.2549,-994.8153 853.2549,-988.8153 859.2549,-982.8153 865.2549,-982.8153"/>
<text text-anchor="middle" x="926.7549" y="-1042.0153" font-family="Times,serif" font-size="11.00" fill="#c0c0c0">Extensions</text>
</g>
<g id="clust32" class="cluster">
<title>cluster_\Firesphere\SolrSubsites\States</title>
<path fill="none" stroke="#c0c0c0" d="M881.7549,-1062.8153C881.7549,-1062.8153 971.7549,-1062.8153 971.7549,-1062.8153 977.7549,-1062.8153 983.7549,-1068.8153 983.7549,-1074.8153 983.7549,-1074.8153 983.7549,-1122.8153 983.7549,-1122.8153 983.7549,-1128.8153 977.7549,-1134.8153 971.7549,-1134.8153 971.7549,-1134.8153 881.7549,-1134.8153 881.7549,-1134.8153 875.7549,-1134.8153 869.7549,-1128.8153 869.7549,-1122.8153 869.7549,-1122.8153 869.7549,-1074.8153 869.7549,-1074.8153 869.7549,-1068.8153 875.7549,-1062.8153 881.7549,-1062.8153"/>
<text text-anchor="middle" x="926.7549" y="-1122.0153" font-family="Times,serif" font-size="11.00" fill="#c0c0c0">States</text>
</g>
<g id="clust33" class="cluster">
<title>cluster_\Firesphere\SolrPermissions</title>
<path fill="none" stroke="#c0c0c0" d="M833.2549,-392.8153C833.2549,-392.8153 1020.2549,-392.8153 1020.2549,-392.8153 1026.2549,-392.8153 1032.2549,-398.8153 1032.2549,-404.8153 1032.2549,-404.8153 1032.2549,-650.8153 1032.2549,-650.8153 1032.2549,-656.8153 1026.2549,-662.8153 1020.2549,-662.8153 1020.2549,-662.8153 833.2549,-662.8153 833.2549,-662.8153 827.2549,-662.8153 821.2549,-656.8153 821.2549,-650.8153 821.2549,-650.8153 821.2549,-404.8153 821.2549,-404.8153 821.2549,-398.8153 827.2549,-392.8153 833.2549,-392.8153"/>
<text text-anchor="middle" x="926.7549" y="-650.0153" font-family="Times,serif" font-size="11.00" fill="#c0c0c0">SolrPermissions</text>
</g>
<g id="clust34" class="cluster">
<title>cluster_\Firesphere\SolrPermissions\Extensions</title>
<path fill="none" stroke="#c0c0c0" d="M841.2549,-400.8153C841.2549,-400.8153 1012.2549,-400.8153 1012.2549,-400.8153 1018.2549,-400.8153 1024.2549,-406.8153 1024.2549,-412.8153 1024.2549,-412.8153 1024.2549,-622.8153 1024.2549,-622.8153 1024.2549,-628.8153 1018.2549,-634.8153 1012.2549,-634.8153 1012.2549,-634.8153 841.2549,-634.8153 841.2549,-634.8153 835.2549,-634.8153 829.2549,-628.8153 829.2549,-622.8153 829.2549,-622.8153 829.2549,-412.8153 829.2549,-412.8153 829.2549,-406.8153 835.2549,-400.8153 841.2549,-400.8153"/>
<text text-anchor="middle" x="926.7549" y="-622.0153" font-family="Times,serif" font-size="11.00" fill="#c0c0c0">Extensions</text>
</g>
<!-- \\SilverStripe\\FullTextSearch\\Solr\\Solr -->
<g id="node1" class="node">
<title>\\SilverStripe\\FullTextSearch\\Solr\\Solr</title>
<polygon fill="none" stroke="#000000" points="953.7549,-3286.8153 899.7549,-3286.8153 899.7549,-3250.8153 953.7549,-3250.8153 953.7549,-3286.8153"/>
<text text-anchor="middle" x="926.7549" y="-3266.0153" font-family="Courier,monospace" font-size="11.00" fill="#000000">Solr</text>
</g>
<!-- \\SilverStripe\\FullTextSearch\\Solr\\SolrIndex -->
<g id="node2" class="node">
<title>\\SilverStripe\\FullTextSearch\\Solr\\SolrIndex</title>
<polygon fill="none" stroke="#000000" points="968.7549,-3232.8153 884.7549,-3232.8153 884.7549,-3196.8153 968.7549,-3196.8153 968.7549,-3232.8153"/>
<text text-anchor="start" x="892.7549" y="-3218.0153" font-family="Courier,monospace" font-size="11.00" fill="#000000">«abstract»</text>
<text text-anchor="start" x="896.2549" y="-3206.0153" font-family="Courier,monospace" font-size="11.00" fill="#000000">SolrIndex</text>
</g>
<!-- \\Firesphere\\SolrSearch\\Indexes\\BaseIndex -->
<g id="node45" class="node">
<title>\\Firesphere\\SolrSearch\\Indexes\\BaseIndex</title>
<polygon fill="none" stroke="#000000" points="714.7549,-786.8153 630.7549,-786.8153 630.7549,-750.8153 714.7549,-750.8153 714.7549,-786.8153"/>
<text text-anchor="start" x="638.7549" y="-772.0153" font-family="Courier,monospace" font-size="11.00" fill="#000000">«abstract»</text>
<text text-anchor="start" x="642.2549" y="-760.0153" font-family="Courier,monospace" font-size="11.00" fill="#000000">BaseIndex</text>
</g>
<!-- \\SilverStripe\\FullTextSearch\\Solr\\SolrIndex&#45;&gt;\\Firesphere\\SolrSearch\\Indexes\\BaseIndex -->
<g id="edge5" class="edge">
<title>\\SilverStripe\\FullTextSearch\\Solr\\SolrIndex&#45;&gt;\\Firesphere\\SolrSearch\\Indexes\\BaseIndex</title>
<path fill="none" stroke="#000000" d="M884.6347,-3203.101C861.6513,-3194.3393 835.1241,-3179.8157 821.2549,-3156.8153 754.1728,-3045.5676 852.2344,-927.6178 781.2549,-818.8153 768.4794,-799.2322 745.915,-787.2004 724.6605,-779.8669"/>
<polygon fill="none" stroke="#000000" points="725.6171,-776.4986 715.027,-776.8178 723.5047,-783.1723 725.6171,-776.4986"/>
</g>
<!-- \\SilverStripe\\FullTextSearch\\Search\\Queries\\SearchQuery -->
<g id="node3" class="node">
<title>\\SilverStripe\\FullTextSearch\\Search\\Queries\\SearchQuery</title>
<polygon fill="none" stroke="#000000" points="972.2549,-3124.8153 881.2549,-3124.8153 881.2549,-3088.8153 972.2549,-3088.8153 972.2549,-3124.8153"/>
<text text-anchor="middle" x="926.7549" y="-3104.0153" font-family="Courier,monospace" font-size="11.00" fill="#000000">SearchQuery</text>
</g>
<!-- \\Firesphere\\SolrSearch\\Queries\\BaseQuery -->
<g id="node12" class="node">
<title>\\Firesphere\\SolrSearch\\Queries\\BaseQuery</title>
<polygon fill="none" stroke="#000000" points="711.2549,-2668.8153 634.2549,-2668.8153 634.2549,-2632.8153 711.2549,-2632.8153 711.2549,-2668.8153"/>
<text text-anchor="middle" x="672.7549" y="-2648.0153" font-family="Courier,monospace" font-size="11.00" fill="#000000">BaseQuery</text>
</g>
<!-- \\SilverStripe\\FullTextSearch\\Search\\Queries\\SearchQuery&#45;&gt;\\Firesphere\\SolrSearch\\Queries\\BaseQuery -->
<g id="edge4" class="edge">
<title>\\SilverStripe\\FullTextSearch\\Search\\Queries\\SearchQuery&#45;&gt;\\Firesphere\\SolrSearch\\Queries\\BaseQuery</title>
<path fill="none" stroke="#000000" d="M925.1654,-3088.4804C918.843,-3026.1647 890.2401,-2819.8044 781.2549,-2700.8153 765.2914,-2683.3865 742.0413,-2671.5668 721.1546,-2663.8161"/>
<polygon fill="none" stroke="#000000" points="722.0421,-2660.4189 711.4473,-2660.4336 719.7388,-2667.0292 722.0421,-2660.4189"/>
</g>
<!-- \\Firesphere\\SolrCompatibility\\Extensions\\FulltextSearchExtension -->
<g id="node4" class="node">
<title>\\Firesphere\\SolrCompatibility\\Extensions\\FulltextSearchExtension</title>
<polygon fill="none" stroke="#000000" points="1012.7549,-220.8153 840.7549,-220.8153 840.7549,-184.8153 1012.7549,-184.8153 1012.7549,-220.8153"/>
<text text-anchor="middle" x="926.7549" y="-200.0153" font-family="Courier,monospace" font-size="11.00" fill="#000000">FulltextSearchExtension</text>
</g>
<!-- \\SilverStripe\\Core\\Extension -->
<g id="node64" class="node">
<title>\\SilverStripe\\Core\\Extension</title>
<ellipse fill="none" stroke="#000000" cx="254.1275" cy="-18.8153" rx="144.0747" ry="18"/>
<text text-anchor="middle" x="254.1275" y="-15.1153" font-family="Times,serif" font-size="14.00" fill="#c0c0c0">\SilverStripe\Core\Extension</text>
</g>
<!-- \\Firesphere\\SolrCompatibility\\Extensions\\FulltextSearchExtension&#45;&gt;\\SilverStripe\\Core\\Extension -->
<g id="edge1" class="edge">
<title>\\Firesphere\\SolrCompatibility\\Extensions\\FulltextSearchExtension&#45;&gt;\\SilverStripe\\Core\\Extension</title>
<path fill="none" stroke="#000000" d="M909.2812,-184.7357C883.6376,-159.3049 833.1975,-113.3417 781.2549,-88.8153 736.5953,-67.7278 716.2824,-88.1502 672.7549,-64.8153"/>
<path fill="none" stroke="#000000" d="M672.7549,-64.8153C584.7352,-17.6285 471.4652,-7.7002 384.9481,-8.7045"/>
<polygon fill="none" stroke="#000000" points="384.7408,-5.2073 374.8005,-8.8735 384.8575,-12.2064 384.7408,-5.2073"/>
</g>
<!-- \\Firesphere\\SolrCompatibility\\Extensions\\SolrCoreServiceExtension -->
<g id="node5" class="node">
<title>\\Firesphere\\SolrCompatibility\\Extensions\\SolrCoreServiceExtension</title>
<polygon fill="none" stroke="#000000" points="1016.2549,-328.8153 837.2549,-328.8153 837.2549,-292.8153 1016.2549,-292.8153 1016.2549,-328.8153"/>
<text text-anchor="middle" x="926.7549" y="-308.0153" font-family="Courier,monospace" font-size="11.00" fill="#000000">SolrCoreServiceExtension</text>
</g>
<!-- \\Firesphere\\SolrCompatibility\\Extensions\\SolrCoreServiceExtension&#45;&gt;\\SilverStripe\\Core\\Extension -->
<g id="edge2" class="edge">
<title>\\Firesphere\\SolrCompatibility\\Extensions\\SolrCoreServiceExtension&#45;&gt;\\SilverStripe\\Core\\Extension</title>
<path fill="none" stroke="#000000" d="M836.8377,-295.9019C831.1085,-292.5911 825.8198,-288.6058 821.2549,-283.8153 760.2228,-219.7666 843.3309,-151.8529 781.2549,-88.8153 746.6018,-53.6255 716.2824,-88.1502 672.7549,-64.8153"/>
</g>
<!-- \\Firesphere\\SolrCompatibility\\Extensions\\DataObjectExtension -->
<g id="node6" class="node">
<title>\\Firesphere\\SolrCompatibility\\Extensions\\DataObjectExtension</title>
<polygon fill="none" stroke="#000000" points="999.2549,-274.8153 854.2549,-274.8153 854.2549,-238.8153 999.2549,-238.8153 999.2549,-274.8153"/>
<text text-anchor="middle" x="926.7549" y="-254.0153" font-family="Courier,monospace" font-size="11.00" fill="#000000">DataObjectExtension</text>
</g>
<!-- \\Firesphere\\SolrCompatibility\\Extensions\\DataObjectExtension&#45;&gt;\\SilverStripe\\Core\\Extension -->
<g id="edge3" class="edge">
<title>\\Firesphere\\SolrCompatibility\\Extensions\\DataObjectExtension&#45;&gt;\\SilverStripe\\Core\\Extension</title>
<path fill="none" stroke="#000000" d="M853.9862,-248.8512C841.877,-244.7182 830.3271,-238.6558 821.2549,-229.8153 774.6022,-184.3545 828.6481,-133.5037 781.2549,-88.8153 745.3221,-54.9333 716.2824,-88.1502 672.7549,-64.8153"/>
</g>
<!-- \\Firesphere\\SolrSearch\\Helpers\\DataResolver -->
<g id="node7" class="node">
<title>\\Firesphere\\SolrSearch\\Helpers\\DataResolver</title>
<polygon fill="none" stroke="#000000" points="721.7549,-2964.8153 623.7549,-2964.8153 623.7549,-2928.8153 721.7549,-2928.8153 721.7549,-2964.8153"/>
<text text-anchor="middle" x="672.7549" y="-2944.0153" font-family="Courier,monospace" font-size="11.00" fill="#000000">DataResolver</text>
</g>
<!-- \\Firesphere\\SolrSearch\\Helpers\\SolrLogger -->
<g id="node8" class="node">
<title>\\Firesphere\\SolrSearch\\Helpers\\SolrLogger</title>
<polygon fill="none" stroke="#000000" points="714.7549,-2910.8153 630.7549,-2910.8153 630.7549,-2874.8153 714.7549,-2874.8153 714.7549,-2910.8153"/>
<text text-anchor="middle" x="672.7549" y="-2890.0153" font-family="Courier,monospace" font-size="11.00" fill="#000000">SolrLogger</text>
</g>
<!-- \\Firesphere\\SolrSearch\\Helpers\\Synonyms -->
<g id="node9" class="node">
<title>\\Firesphere\\SolrSearch\\Helpers\\Synonyms</title>
<polygon fill="none" stroke="#000000" points="708.2549,-2856.8153 637.2549,-2856.8153 637.2549,-2820.8153 708.2549,-2820.8153 708.2549,-2856.8153"/>
<text text-anchor="middle" x="672.7549" y="-2836.0153" font-family="Courier,monospace" font-size="11.00" fill="#000000">Synonyms</text>
</g>
<!-- \\Firesphere\\SolrSearch\\Helpers\\Statics -->
<g id="node10" class="node">
<title>\\Firesphere\\SolrSearch\\Helpers\\Statics</title>
<polygon fill="none" stroke="#000000" points="704.7549,-2802.8153 640.7549,-2802.8153 640.7549,-2766.8153 704.7549,-2766.8153 704.7549,-2802.8153"/>
<text text-anchor="middle" x="672.7549" y="-2782.0153" font-family="Courier,monospace" font-size="11.00" fill="#000000">Statics</text>
</g>
<!-- \\Firesphere\\SolrSearch\\Helpers\\FieldResolver -->
<g id="node11" class="node">
<title>\\Firesphere\\SolrSearch\\Helpers\\FieldResolver</title>
<polygon fill="none" stroke="#000000" points="724.7549,-2748.8153 620.7549,-2748.8153 620.7549,-2712.8153 724.7549,-2712.8153 724.7549,-2748.8153"/>
<text text-anchor="middle" x="672.7549" y="-2728.0153" font-family="Courier,monospace" font-size="11.00" fill="#000000">FieldResolver</text>
</g>
<!-- \\Firesphere\\SolrSearch\\Jobs\\ClearDirtyClassesJob -->
<g id="node13" class="node">
<title>\\Firesphere\\SolrSearch\\Jobs\\ClearDirtyClassesJob</title>
<polygon fill="none" stroke="#000000" points="748.7549,-2292.8153 596.7549,-2292.8153 596.7549,-2256.8153 748.7549,-2256.8153 748.7549,-2292.8153"/>
<text text-anchor="middle" x="672.7549" y="-2272.0153" font-family="Courier,monospace" font-size="11.00" fill="#000000">ClearDirtyClassesJob</text>
</g>
<!-- \\Symbiote\\QueuedJobs\\Services\\AbstractQueuedJob -->
<g id="node65" class="node">
<title>\\Symbiote\\QueuedJobs\\Services\\AbstractQueuedJob</title>
<ellipse fill="none" stroke="#000000" cx="254.1275" cy="-126.8153" rx="254.255" ry="18"/>
<text text-anchor="middle" x="254.1275" y="-123.1153" font-family="Times,serif" font-size="14.00" fill="#c0c0c0">\Symbiote\QueuedJobs\Services\AbstractQueuedJob</text>
</g>
<!-- \\Firesphere\\SolrSearch\\Jobs\\ClearDirtyClassesJob&#45;&gt;\\Symbiote\\QueuedJobs\\Services\\AbstractQueuedJob -->
<g id="edge6" class="edge">
<title>\\Firesphere\\SolrSearch\\Jobs\\ClearDirtyClassesJob&#45;&gt;\\Symbiote\\QueuedJobs\\Services\\AbstractQueuedJob</title>
<path fill="none" stroke="#000000" d="M596.5482,-2263.4558C587.1555,-2259.0305 578.6345,-2253.0021 572.2549,-2244.8153 471.082,-2114.9824 542.7499,-925.7583 508.2549,-764.8153 455.0298,-516.4835 314.4301,-239.6869 268.7142,-153.7338"/>
<polygon fill="none" stroke="#000000" points="271.7839,-152.052 263.9825,-144.8835 265.6108,-155.3524 271.7839,-152.052"/>
</g>
<!-- \\Firesphere\\SolrSearch\\Jobs\\SolrIndexJob -->
<g id="node14" class="node">
<title>\\Firesphere\\SolrSearch\\Jobs\\SolrIndexJob</title>
<polygon fill="none" stroke="#000000" points="721.7549,-2400.8153 623.7549,-2400.8153 623.7549,-2364.8153 721.7549,-2364.8153 721.7549,-2400.8153"/>
<text text-anchor="middle" x="672.7549" y="-2380.0153" font-family="Courier,monospace" font-size="11.00" fill="#000000">SolrIndexJob</text>
</g>
<!-- \\Firesphere\\SolrSearch\\Jobs\\SolrIndexJob&#45;&gt;\\Symbiote\\QueuedJobs\\Services\\AbstractQueuedJob -->
<g id="edge7" class="edge">
<title>\\Firesphere\\SolrSearch\\Jobs\\SolrIndexJob&#45;&gt;\\Symbiote\\QueuedJobs\\Services\\AbstractQueuedJob</title>
<path fill="none" stroke="#000000" d="M623.5602,-2381.5483C604.5941,-2378.3767 584.5495,-2371.1985 572.2549,-2355.8153 461.7984,-2217.6115 545.0718,-937.8629 508.2549,-764.8153 455.4038,-516.4036 314.5557,-239.6601 268.7458,-153.727"/>
<polygon fill="none" stroke="#000000" points="271.8126,-152.0399 264.0043,-144.8788 265.6427,-155.3462 271.8126,-152.0399"/>
</g>
<!-- \\Firesphere\\SolrSearch\\Jobs\\SolrConfigureJob -->
<g id="node15" class="node">
<title>\\Firesphere\\SolrSearch\\Jobs\\SolrConfigureJob</title>
<polygon fill="none" stroke="#000000" points="735.2549,-2346.8153 610.2549,-2346.8153 610.2549,-2310.8153 735.2549,-2310.8153 735.2549,-2346.8153"/>
<text text-anchor="middle" x="672.7549" y="-2326.0153" font-family="Courier,monospace" font-size="11.00" fill="#000000">SolrConfigureJob</text>
</g>
<!-- \\Firesphere\\SolrSearch\\Jobs\\SolrConfigureJob&#45;&gt;\\Symbiote\\QueuedJobs\\Services\\AbstractQueuedJob -->
<g id="edge8" class="edge">
<title>\\Firesphere\\SolrSearch\\Jobs\\SolrConfigureJob&#45;&gt;\\Symbiote\\QueuedJobs\\Services\\AbstractQueuedJob</title>
<path fill="none" stroke="#000000" d="M610.1964,-2324.6017C595.6508,-2320.5601 581.6816,-2313.593 572.2549,-2301.8153 465.447,-2168.3699 543.9422,-931.974 508.2549,-764.8153 455.2286,-516.441 314.4969,-239.6727 268.731,-153.7302"/>
<polygon fill="none" stroke="#000000" points="271.7992,-152.0456 263.9941,-144.881 265.6277,-155.3491 271.7992,-152.0456"/>
</g>
<!-- \\Firesphere\\SolrSearch\\Interfaces\\ConfigStore -->
<g id="node16" class="node">
<title>\\Firesphere\\SolrSearch\\Interfaces\\ConfigStore</title>
<polygon fill="none" stroke="#000000" points="299.6275,-866.8153 208.6275,-866.8153 208.6275,-830.8153 299.6275,-830.8153 299.6275,-866.8153"/>
<text text-anchor="middle" x="254.1275" y="-846.0153" font-family="Courier,monospace" font-size="11.00" fill="#000000">ConfigStore</text>
</g>
<!-- \\Firesphere\\SolrSearch\\Interfaces\\SiteStateInterface -->
<g id="node17" class="node">
<title>\\Firesphere\\SolrSearch\\Interfaces\\SiteStateInterface</title>
<polygon fill="none" stroke="#000000" points="323.1275,-812.8153 185.1275,-812.8153 185.1275,-776.8153 323.1275,-776.8153 323.1275,-812.8153"/>
<text text-anchor="middle" x="254.1275" y="-792.0153" font-family="Courier,monospace" font-size="11.00" fill="#000000">SiteStateInterface</text>
</g>
<!-- \\Firesphere\\SolrSearch\\Factories\\DocumentFactory -->
<g id="node18" class="node">
<title>\\Firesphere\\SolrSearch\\Factories\\DocumentFactory</title>
<polygon fill="none" stroke="#000000" points="731.7549,-2588.8153 613.7549,-2588.8153 613.7549,-2552.8153 731.7549,-2552.8153 731.7549,-2588.8153"/>
<text text-anchor="middle" x="672.7549" y="-2568.0153" font-family="Courier,monospace" font-size="11.00" fill="#000000">DocumentFactory</text>
</g>
<!-- \\Firesphere\\SolrSearch\\Factories\\QueryComponentFactory -->
<g id="node19" class="node">
<title>\\Firesphere\\SolrSearch\\Factories\\QueryComponentFactory</title>
<polygon fill="none" stroke="#000000" points="751.7549,-2534.8153 593.7549,-2534.8153 593.7549,-2498.8153 751.7549,-2498.8153 751.7549,-2534.8153"/>
<text text-anchor="middle" x="672.7549" y="-2514.0153" font-family="Courier,monospace" font-size="11.00" fill="#000000">QueryComponentFactory</text>
</g>
<!-- \\Firesphere\\SolrSearch\\Factories\\SchemaFactory -->
<g id="node20" class="node">
<title>\\Firesphere\\SolrSearch\\Factories\\SchemaFactory</title>
<polygon fill="none" stroke="#000000" points="724.7549,-2480.8153 620.7549,-2480.8153 620.7549,-2444.8153 724.7549,-2444.8153 724.7549,-2480.8153"/>
<text text-anchor="middle" x="672.7549" y="-2460.0153" font-family="Courier,monospace" font-size="11.00" fill="#000000">SchemaFactory</text>
</g>
<!-- \\SilverStripe\\View\\ViewableData -->
<g id="node66" class="node">
<title>\\SilverStripe\\View\\ViewableData</title>
<ellipse fill="none" stroke="#000000" cx="254.1275" cy="-3586.8153" rx="163.2712" ry="18"/>
<text text-anchor="middle" x="254.1275" y="-3583.1153" font-family="Times,serif" font-size="14.00" fill="#c0c0c0">\SilverStripe\View\ViewableData</text>
</g>
<!-- \\Firesphere\\SolrSearch\\Factories\\SchemaFactory&#45;&gt;\\SilverStripe\\View\\ViewableData -->
<g id="edge9" class="edge">
<title>\\Firesphere\\SolrSearch\\Factories\\SchemaFactory&#45;&gt;\\SilverStripe\\View\\ViewableData</title>
<path fill="none" stroke="#000000" d="M620.5715,-2464.7656C602.58,-2468.2056 584.0142,-2475.3932 572.2549,-2489.8153 421.7277,-2674.4287 672.7623,-3387.5427 508.2549,-3559.8153 467.1497,-3602.8609 399.3408,-3608.2068 344.1027,-3603.5438"/>
<polygon fill="none" stroke="#000000" points="344.234,-3600.0403 333.9441,-3602.5635 343.5616,-3607.0079 344.234,-3600.0403"/>
</g>
<!-- \\Firesphere\\SolrSearch\\Extensions\\DataObjectExtension -->
<g id="node21" class="node">
<title>\\Firesphere\\SolrSearch\\Extensions\\DataObjectExtension</title>
<polygon fill="none" stroke="#000000" points="745.2549,-2212.8153 600.2549,-2212.8153 600.2549,-2176.8153 745.2549,-2176.8153 745.2549,-2212.8153"/>
<text text-anchor="middle" x="672.7549" y="-2192.0153" font-family="Courier,monospace" font-size="11.00" fill="#000000">DataObjectExtension</text>
</g>
<!-- \\SilverStripe\\ORM\\DataExtension -->
<g id="node67" class="node">
<title>\\SilverStripe\\ORM\\DataExtension</title>
<ellipse fill="none" stroke="#000000" cx="254.1275" cy="-72.8153" rx="167.8704" ry="18"/>
<text text-anchor="middle" x="254.1275" y="-69.1153" font-family="Times,serif" font-size="14.00" fill="#c0c0c0">\SilverStripe\ORM\DataExtension</text>
</g>
<!-- \\Firesphere\\SolrSearch\\Extensions\\DataObjectExtension&#45;&gt;\\SilverStripe\\ORM\\DataExtension -->
<g id="edge10" class="edge">
<title>\\Firesphere\\SolrSearch\\Extensions\\DataObjectExtension&#45;&gt;\\SilverStripe\\ORM\\DataExtension</title>
<path fill="none" stroke="#000000" d="M600.0691,-2187.3324C589.3016,-2183.1013 579.4318,-2176.881 572.2549,-2167.8153 429.5632,-1987.5726 664.6089,-268.3437 508.2549,-99.8153 467.3477,-55.723 398.5038,-50.7569 342.7814,-55.8432"/>
<polygon fill="none" stroke="#000000" points="342.1259,-52.3923 332.5391,-56.9028 342.8462,-59.3551 342.1259,-52.3923"/>
</g>
<!-- \\Firesphere\\SolrSearch\\Extensions\\GridFieldExtension -->
<g id="node22" class="node">
<title>\\Firesphere\\SolrSearch\\Extensions\\GridFieldExtension</title>
<polygon fill="none" stroke="#000000" points="741.7549,-2158.8153 603.7549,-2158.8153 603.7549,-2122.8153 741.7549,-2122.8153 741.7549,-2158.8153"/>
<text text-anchor="middle" x="672.7549" y="-2138.0153" font-family="Courier,monospace" font-size="11.00" fill="#000000">GridFieldExtension</text>
</g>
<!-- \\Firesphere\\SolrSearch\\Extensions\\GridFieldExtension&#45;&gt;\\SilverStripe\\Core\\Extension -->
<g id="edge11" class="edge">
<title>\\Firesphere\\SolrSearch\\Extensions\\GridFieldExtension&#45;&gt;\\SilverStripe\\Core\\Extension</title>
<path fill="none" stroke="#000000" d="M603.51,-2132.5105C591.3801,-2127.9316 580.1389,-2121.0613 572.2549,-2110.8153 432.2656,-1928.8859 664.3861,-214.0959 508.2549,-45.8153 466.3367,-.6352 395.0862,3.4636 338.6778,-2.2385"/>
<polygon fill="none" stroke="#000000" points="338.2323,1.2335 328.6874,-3.3648 339.0166,-5.7224 338.2323,1.2335"/>
</g>
<!-- \\Firesphere\\SolrSearch\\Services\\SolrCoreService -->
<g id="node23" class="node">
<title>\\Firesphere\\SolrSearch\\Services\\SolrCoreService</title>
<polygon fill="none" stroke="#000000" points="731.7549,-2078.8153 613.7549,-2078.8153 613.7549,-2042.8153 731.7549,-2042.8153 731.7549,-2078.8153"/>
<text text-anchor="middle" x="672.7549" y="-2058.0153" font-family="Courier,monospace" font-size="11.00" fill="#000000">SolrCoreService</text>
</g>
<!-- \\Firesphere\\SolrSearch\\Models\\SolrLog -->
<g id="node24" class="node">
<title>\\Firesphere\\SolrSearch\\Models\\SolrLog</title>
<polygon fill="none" stroke="#000000" points="704.7549,-1890.8153 640.7549,-1890.8153 640.7549,-1854.8153 704.7549,-1854.8153 704.7549,-1890.8153"/>
<text text-anchor="middle" x="672.7549" y="-1870.0153" font-family="Courier,monospace" font-size="11.00" fill="#000000">SolrLog</text>
</g>
<!-- \\SilverStripe\\ORM\\DataObject -->
<g id="node68" class="node">
<title>\\SilverStripe\\ORM\\DataObject</title>
<ellipse fill="none" stroke="#000000" cx="254.1275" cy="-3694.8153" rx="152.9733" ry="18"/>
<text text-anchor="middle" x="254.1275" y="-3691.1153" font-family="Times,serif" font-size="14.00" fill="#c0c0c0">\SilverStripe\ORM\DataObject</text>
</g>
<!-- \\Firesphere\\SolrSearch\\Models\\SolrLog&#45;&gt;\\SilverStripe\\ORM\\DataObject -->
<g id="edge12" class="edge">
<title>\\Firesphere\\SolrSearch\\Models\\SolrLog&#45;&gt;\\SilverStripe\\ORM\\DataObject</title>
<path fill="none" stroke="#000000" d="M640.7018,-1872.1377C617.8172,-1873.5455 588.344,-1879.6014 572.2549,-1899.8153 449.8378,-2053.6173 642.3281,-3524.0608 508.2549,-3667.8153 466.6476,-3712.4271 396.4272,-3716.9065 340.3316,-3711.4939"/>
<polygon fill="none" stroke="#000000" points="340.7078,-3708.0142 330.3894,-3710.4185 339.955,-3714.9736 340.7078,-3708.0142"/>
</g>
<!-- \\SilverStripe\\Security\\PermissionProvider -->
<g id="node69" class="node">
<title>\\SilverStripe\\Security\\PermissionProvider</title>
<ellipse fill="none" stroke="#000000" cx="254.1275" cy="-3640.8153" rx="206.0634" ry="18"/>
<text text-anchor="middle" x="254.1275" y="-3637.1153" font-family="Times,serif" font-size="14.00" fill="#c0c0c0">\SilverStripe\Security\PermissionProvider</text>
</g>
<!-- \\Firesphere\\SolrSearch\\Models\\SolrLog&#45;&gt;\\SilverStripe\\Security\\PermissionProvider -->
<g id="edge13" class="edge">
<title>\\Firesphere\\SolrSearch\\Models\\SolrLog&#45;&gt;\\SilverStripe\\Security\\PermissionProvider</title>
<path fill="none" stroke="#000000" stroke-dasharray="1,5" d="M640.7086,-1872.1431C617.8274,-1873.5536 588.3555,-1879.6106 572.2549,-1899.8153 453.487,-2048.8584 638.3178,-3474.5197 508.2549,-3613.8153 468.5612,-3656.3268 402.8826,-3662.3801 348.2398,-3658.1666"/>
<polygon fill="none" stroke="#000000" points="348.446,-3654.6711 338.174,-3657.2668 347.8227,-3661.6433 348.446,-3654.6711"/>
</g>
<!-- \\Firesphere\\SolrSearch\\Models\\DirtyClass -->
<g id="node25" class="node">
<title>\\Firesphere\\SolrSearch\\Models\\DirtyClass</title>
<polygon fill="none" stroke="#000000" points="714.7549,-1944.8153 630.7549,-1944.8153 630.7549,-1908.8153 714.7549,-1908.8153 714.7549,-1944.8153"/>
<text text-anchor="middle" x="672.7549" y="-1924.0153" font-family="Courier,monospace" font-size="11.00" fill="#000000">DirtyClass</text>
</g>
<!-- \\Firesphere\\SolrSearch\\Models\\DirtyClass&#45;&gt;\\SilverStripe\\ORM\\DataObject -->
<g id="edge14" class="edge">
<title>\\Firesphere\\SolrSearch\\Models\\DirtyClass&#45;&gt;\\SilverStripe\\ORM\\DataObject</title>
<path fill="none" stroke="#000000" d="M630.5205,-1927.0642C609.6522,-1929.581 586.0473,-1936.5071 572.2549,-1953.8153 453.487,-2102.8584 638.3178,-3528.5197 508.2549,-3667.8153 466.7796,-3712.2348 396.9345,-3716.8501 340.9523,-3711.5395"/>
<polygon fill="none" stroke="#000000" points="340.986,-3708.0233 330.6704,-3710.4398 340.2415,-3714.9836 340.986,-3708.0233"/>
</g>
<!-- \\Firesphere\\SolrSearch\\Models\\SearchSynonym -->
<g id="node26" class="node">
<title>\\Firesphere\\SolrSearch\\Models\\SearchSynonym</title>
<polygon fill="none" stroke="#000000" points="724.7549,-1998.8153 620.7549,-1998.8153 620.7549,-1962.8153 724.7549,-1962.8153 724.7549,-1998.8153"/>
<text text-anchor="middle" x="672.7549" y="-1978.0153" font-family="Courier,monospace" font-size="11.00" fill="#000000">SearchSynonym</text>
</g>
<!-- \\Firesphere\\SolrSearch\\Models\\SearchSynonym&#45;&gt;\\SilverStripe\\ORM\\DataObject -->
<g id="edge15" class="edge">
<title>\\Firesphere\\SolrSearch\\Models\\SearchSynonym&#45;&gt;\\SilverStripe\\ORM\\DataObject</title>
<path fill="none" stroke="#000000" d="M620.7057,-1994.5476C602.2715,-2002.1348 583.3677,-2013.6335 572.2549,-2030.8153 473.3981,-2183.6599 632.5998,-3534.8775 508.2549,-3667.8153 466.7407,-3712.1984 396.8983,-3716.8163 340.927,-3711.5159"/>
<polygon fill="none" stroke="#000000" points="340.9625,-3707.9999 330.6473,-3710.4182 340.2191,-3714.9603 340.9625,-3707.9999"/>
</g>
<!-- \\Firesphere\\SolrSearch\\Traits\\GetSetSchemaFactoryTrait -->
<g id="node27" class="node">
<title>\\Firesphere\\SolrSearch\\Traits\\GetSetSchemaFactoryTrait</title>
<polygon fill="none" stroke="#000000" points="762.2549,-1810.8153 583.2549,-1810.8153 583.2549,-1774.8153 762.2549,-1774.8153 762.2549,-1810.8153"/>
<text text-anchor="middle" x="672.7549" y="-1790.0153" font-family="Courier,monospace" font-size="11.00" fill="#000000">GetSetSchemaFactoryTrait</text>
</g>
<!-- \\Firesphere\\SolrSearch\\Traits\\BaseQueryTrait -->
<g id="node28" class="node">
<title>\\Firesphere\\SolrSearch\\Traits\\BaseQueryTrait</title>
<polygon fill="none" stroke="#000000" points="728.2549,-1756.8153 617.2549,-1756.8153 617.2549,-1720.8153 728.2549,-1720.8153 728.2549,-1756.8153"/>
<text text-anchor="middle" x="672.7549" y="-1736.0153" font-family="Courier,monospace" font-size="11.00" fill="#000000">BaseQueryTrait</text>
</g>
<!-- \\Firesphere\\SolrSearch\\Traits\\DocumentFactoryTrait -->
<g id="node29" class="node">
<title>\\Firesphere\\SolrSearch\\Traits\\DocumentFactoryTrait</title>
<polygon fill="none" stroke="#000000" points="748.7549,-1702.8153 596.7549,-1702.8153 596.7549,-1666.8153 748.7549,-1666.8153 748.7549,-1702.8153"/>
<text text-anchor="middle" x="672.7549" y="-1682.0153" font-family="Courier,monospace" font-size="11.00" fill="#000000">DocumentFactoryTrait</text>
</g>
<!-- \\Firesphere\\SolrSearch\\Traits\\BaseIndexTrait -->
<g id="node30" class="node">
<title>\\Firesphere\\SolrSearch\\Traits\\BaseIndexTrait</title>
<polygon fill="none" stroke="#000000" points="728.2549,-1648.8153 617.2549,-1648.8153 617.2549,-1612.8153 728.2549,-1612.8153 728.2549,-1648.8153"/>
<text text-anchor="middle" x="672.7549" y="-1628.0153" font-family="Courier,monospace" font-size="11.00" fill="#000000">BaseIndexTrait</text>
</g>
<!-- \\Firesphere\\SolrSearch\\Traits\\SolrIndexTrait -->
<g id="node31" class="node">
<title>\\Firesphere\\SolrSearch\\Traits\\SolrIndexTrait</title>
<polygon fill="none" stroke="#000000" points="728.2549,-1594.8153 617.2549,-1594.8153 617.2549,-1558.8153 728.2549,-1558.8153 728.2549,-1594.8153"/>
<text text-anchor="middle" x="672.7549" y="-1574.0153" font-family="Courier,monospace" font-size="11.00" fill="#000000">SolrIndexTrait</text>
</g>
<!-- \\Firesphere\\SolrSearch\\Traits\\GetterSetterTrait -->
<g id="node32" class="node">
<title>\\Firesphere\\SolrSearch\\Traits\\GetterSetterTrait</title>
<polygon fill="none" stroke="#000000" points="738.2549,-1540.8153 607.2549,-1540.8153 607.2549,-1504.8153 738.2549,-1504.8153 738.2549,-1540.8153"/>
<text text-anchor="middle" x="672.7549" y="-1520.0153" font-family="Courier,monospace" font-size="11.00" fill="#000000">GetterSetterTrait</text>
</g>
<!-- \\Firesphere\\SolrSearch\\Traits\\SearchResultSetTrait -->
<g id="node33" class="node">
<title>\\Firesphere\\SolrSearch\\Traits\\SearchResultSetTrait</title>
<polygon fill="none" stroke="#000000" points="748.7549,-1486.8153 596.7549,-1486.8153 596.7549,-1450.8153 748.7549,-1450.8153 748.7549,-1486.8153"/>
<text text-anchor="middle" x="672.7549" y="-1466.0153" font-family="Courier,monospace" font-size="11.00" fill="#000000">SearchResultSetTrait</text>
</g>
<!-- \\Firesphere\\SolrSearch\\Traits\\SearchResultGetTrait -->
<g id="node34" class="node">
<title>\\Firesphere\\SolrSearch\\Traits\\SearchResultGetTrait</title>
<polygon fill="none" stroke="#000000" points="748.7549,-1432.8153 596.7549,-1432.8153 596.7549,-1396.8153 748.7549,-1396.8153 748.7549,-1432.8153"/>
<text text-anchor="middle" x="672.7549" y="-1412.0153" font-family="Courier,monospace" font-size="11.00" fill="#000000">SearchResultGetTrait</text>
</g>
<!-- \\Firesphere\\SolrSearch\\Traits\\CoreServiceTrait -->
<g id="node35" class="node">
<title>\\Firesphere\\SolrSearch\\Traits\\CoreServiceTrait</title>
<polygon fill="none" stroke="#000000" points="735.2549,-1378.8153 610.2549,-1378.8153 610.2549,-1342.8153 735.2549,-1342.8153 735.2549,-1378.8153"/>
<text text-anchor="middle" x="672.7549" y="-1358.0153" font-family="Courier,monospace" font-size="11.00" fill="#000000">CoreServiceTrait</text>
</g>
<!-- \\Firesphere\\SolrSearch\\Traits\\CoreAdminTrait -->
<g id="node36" class="node">
<title>\\Firesphere\\SolrSearch\\Traits\\CoreAdminTrait</title>
<polygon fill="none" stroke="#000000" points="728.2549,-1324.8153 617.2549,-1324.8153 617.2549,-1288.8153 728.2549,-1288.8153 728.2549,-1324.8153"/>
<text text-anchor="middle" x="672.7549" y="-1304.0153" font-family="Courier,monospace" font-size="11.00" fill="#000000">CoreAdminTrait</text>
</g>
<!-- \\Firesphere\\SolrSearch\\Traits\\LoggerTrait -->
<g id="node37" class="node">
<title>\\Firesphere\\SolrSearch\\Traits\\LoggerTrait</title>
<polygon fill="none" stroke="#000000" points="718.2549,-1270.8153 627.2549,-1270.8153 627.2549,-1234.8153 718.2549,-1234.8153 718.2549,-1270.8153"/>
<text text-anchor="middle" x="672.7549" y="-1250.0153" font-family="Courier,monospace" font-size="11.00" fill="#000000">LoggerTrait</text>
</g>
<!-- \\Firesphere\\SolrSearch\\Traits\\QueryComponentFacetTrait -->
<g id="node38" class="node">
<title>\\Firesphere\\SolrSearch\\Traits\\QueryComponentFacetTrait</title>
<polygon fill="none" stroke="#000000" points="762.2549,-1216.8153 583.2549,-1216.8153 583.2549,-1180.8153 762.2549,-1180.8153 762.2549,-1216.8153"/>
<text text-anchor="middle" x="672.7549" y="-1196.0153" font-family="Courier,monospace" font-size="11.00" fill="#000000">QueryComponentFacetTrait</text>
</g>
<!-- \\Firesphere\\SolrSearch\\Traits\\QueryComponentFilterTrait -->
<g id="node39" class="node">
<title>\\Firesphere\\SolrSearch\\Traits\\QueryComponentFilterTrait</title>
<polygon fill="none" stroke="#000000" points="765.2549,-1162.8153 580.2549,-1162.8153 580.2549,-1126.8153 765.2549,-1126.8153 765.2549,-1162.8153"/>
<text text-anchor="middle" x="672.7549" y="-1142.0153" font-family="Courier,monospace" font-size="11.00" fill="#000000">QueryComponentFilterTrait</text>
</g>
<!-- \\Firesphere\\SolrSearch\\Traits\\QueryComponentBoostTrait -->
<g id="node40" class="node">
<title>\\Firesphere\\SolrSearch\\Traits\\QueryComponentBoostTrait</title>
<polygon fill="none" stroke="#000000" points="762.2549,-1108.8153 583.2549,-1108.8153 583.2549,-1072.8153 762.2549,-1072.8153 762.2549,-1108.8153"/>
<text text-anchor="middle" x="672.7549" y="-1088.0153" font-family="Courier,monospace" font-size="11.00" fill="#000000">QueryComponentBoostTrait</text>
</g>
<!-- \\Firesphere\\SolrSearch\\Traits\\GetSetSearchResolverTrait -->
<g id="node41" class="node">
<title>\\Firesphere\\SolrSearch\\Traits\\GetSetSearchResolverTrait</title>
<polygon fill="none" stroke="#000000" points="765.2549,-1054.8153 580.2549,-1054.8153 580.2549,-1018.8153 765.2549,-1018.8153 765.2549,-1054.8153"/>
<text text-anchor="middle" x="672.7549" y="-1034.0153" font-family="Courier,monospace" font-size="11.00" fill="#000000">GetSetSearchResolverTrait</text>
</g>
<!-- \\Firesphere\\SolrSearch\\Traits\\DataResolveTrait -->
<g id="node42" class="node">
<title>\\Firesphere\\SolrSearch\\Traits\\DataResolveTrait</title>
<polygon fill="none" stroke="#000000" points="735.2549,-1000.8153 610.2549,-1000.8153 610.2549,-964.8153 735.2549,-964.8153 735.2549,-1000.8153"/>
<text text-anchor="middle" x="672.7549" y="-980.0153" font-family="Courier,monospace" font-size="11.00" fill="#000000">DataResolveTrait</text>
</g>
<!-- \\Firesphere\\SolrSearch\\Stores\\FileConfigStore -->
<g id="node43" class="node">
<title>\\Firesphere\\SolrSearch\\Stores\\FileConfigStore</title>
<polygon fill="none" stroke="#000000" points="731.7549,-920.8153 613.7549,-920.8153 613.7549,-884.8153 731.7549,-884.8153 731.7549,-920.8153"/>
<text text-anchor="middle" x="672.7549" y="-900.0153" font-family="Courier,monospace" font-size="11.00" fill="#000000">FileConfigStore</text>
</g>
<!-- \\Firesphere\\SolrSearch\\Stores\\FileConfigStore&#45;&gt;\\Firesphere\\SolrSearch\\Interfaces\\ConfigStore -->
<g id="edge16" class="edge">
<title>\\Firesphere\\SolrSearch\\Stores\\FileConfigStore&#45;&gt;\\Firesphere\\SolrSearch\\Interfaces\\ConfigStore</title>
<path fill="none" stroke="#000000" stroke-dasharray="1,5" d="M613.6637,-895.193C532.8854,-884.7731 389.0185,-866.2153 309.9722,-856.0189"/>
<polygon fill="none" stroke="#000000" points="310.0944,-852.5058 299.7287,-854.6976 309.1988,-859.4482 310.0944,-852.5058"/>
</g>
<!-- \\Firesphere\\SolrSearch\\Stores\\PostConfigStore -->
<g id="node44" class="node">
<title>\\Firesphere\\SolrSearch\\Stores\\PostConfigStore</title>
<polygon fill="none" stroke="#000000" points="731.7549,-866.8153 613.7549,-866.8153 613.7549,-830.8153 731.7549,-830.8153 731.7549,-866.8153"/>
<text text-anchor="middle" x="672.7549" y="-846.0153" font-family="Courier,monospace" font-size="11.00" fill="#000000">PostConfigStore</text>
</g>
<!-- \\Firesphere\\SolrSearch\\Stores\\PostConfigStore&#45;&gt;\\Firesphere\\SolrSearch\\Interfaces\\ConfigStore -->
<g id="edge17" class="edge">
<title>\\Firesphere\\SolrSearch\\Stores\\PostConfigStore&#45;&gt;\\Firesphere\\SolrSearch\\Interfaces\\ConfigStore</title>
<path fill="none" stroke="#000000" stroke-dasharray="1,5" d="M613.6637,-848.8153C532.8854,-848.8153 389.0185,-848.8153 309.9722,-848.8153"/>
<polygon fill="none" stroke="#000000" points="309.7288,-845.3154 299.7287,-848.8153 309.7287,-852.3154 309.7288,-845.3154"/>
</g>
<!-- \\Firesphere\\SolrSearch\\States\\SiteState -->
<g id="node46" class="node">
<title>\\Firesphere\\SolrSearch\\States\\SiteState</title>
<polygon fill="none" stroke="#000000" points="714.7549,-706.8153 630.7549,-706.8153 630.7549,-670.8153 714.7549,-670.8153 714.7549,-706.8153"/>
<text text-anchor="start" x="638.7549" y="-692.0153" font-family="Courier,monospace" font-size="11.00" fill="#000000">«abstract»</text>
<text text-anchor="start" x="642.2549" y="-680.0153" font-family="Courier,monospace" font-size="11.00" fill="#000000">SiteState</text>
</g>
<!-- \\Firesphere\\SolrSearch\\Forms\\SearchForm -->
<g id="node47" class="node">
<title>\\Firesphere\\SolrSearch\\Forms\\SearchForm</title>
<polygon fill="none" stroke="#000000" points="714.7549,-546.8153 630.7549,-546.8153 630.7549,-510.8153 714.7549,-510.8153 714.7549,-546.8153"/>
<text text-anchor="middle" x="672.7549" y="-526.0153" font-family="Courier,monospace" font-size="11.00" fill="#000000">SearchForm</text>
</g>
<!-- \\SilverStripe\\Forms\\Form -->
<g id="node70" class="node">
<title>\\SilverStripe\\Forms\\Form</title>
<ellipse fill="none" stroke="#000000" cx="254.1275" cy="-3532.8153" rx="129.1772" ry="18"/>
<text text-anchor="middle" x="254.1275" y="-3529.1153" font-family="Times,serif" font-size="14.00" fill="#c0c0c0">\SilverStripe\Forms\Form</text>
</g>
<!-- \\Firesphere\\SolrSearch\\Forms\\SearchForm&#45;&gt;\\SilverStripe\\Forms\\Form -->
<g id="edge18" class="edge">
<title>\\Firesphere\\SolrSearch\\Forms\\SearchForm&#45;&gt;\\SilverStripe\\Forms\\Form</title>
<path fill="none" stroke="#000000" d="M630.7355,-538.6247C609.381,-545.9441 585.2557,-558.33 572.2549,-578.8153 485.1007,-716.144 618.3361,-3386.0775 508.2549,-3505.8153 465.6225,-3552.1875 392.1147,-3555.4289 335.0906,-3549.1166"/>
<polygon fill="none" stroke="#000000" points="335.3586,-3545.6234 325.0076,-3547.8836 334.5088,-3552.5716 335.3586,-3545.6234"/>
</g>
<!-- \\Firesphere\\SolrSearch\\Tasks\\ClearDirtyClassesTask -->
<g id="node48" class="node">
<title>\\Firesphere\\SolrSearch\\Tasks\\ClearDirtyClassesTask</title>
<polygon fill="none" stroke="#000000" points="751.7549,-466.8153 593.7549,-466.8153 593.7549,-430.8153 751.7549,-430.8153 751.7549,-466.8153"/>
<text text-anchor="middle" x="672.7549" y="-446.0153" font-family="Courier,monospace" font-size="11.00" fill="#000000">ClearDirtyClassesTask</text>
</g>
<!-- \\SilverStripe\\Dev\\BuildTask -->
<g id="node71" class="node">
<title>\\SilverStripe\\Dev\\BuildTask</title>
<ellipse fill="none" stroke="#000000" cx="254.1275" cy="-3478.8153" rx="139.9756" ry="18"/>
<text text-anchor="middle" x="254.1275" y="-3475.1153" font-family="Times,serif" font-size="14.00" fill="#c0c0c0">\SilverStripe\Dev\BuildTask</text>
</g>
<!-- \\Firesphere\\SolrSearch\\Tasks\\ClearDirtyClassesTask&#45;&gt;\\SilverStripe\\Dev\\BuildTask -->
<g id="edge19" class="edge">
<title>\\Firesphere\\SolrSearch\\Tasks\\ClearDirtyClassesTask&#45;&gt;\\SilverStripe\\Dev\\BuildTask</title>
<path fill="none" stroke="#000000" d="M610.8009,-466.8279C595.6885,-474.2583 581.2862,-484.5817 572.2549,-498.8153 484.3402,-637.3717 619.3019,-3331.0037 508.2549,-3451.8153 466.1935,-3497.5753 394.0669,-3501.3388 337.3753,-3495.3656"/>
<polygon fill="none" stroke="#000000" points="337.6795,-3491.8774 327.3405,-3494.1914 336.8659,-3498.83 337.6795,-3491.8774"/>
</g>
<!-- \\Firesphere\\SolrSearch\\Tasks\\SolrIndexTask -->
<g id="node49" class="node">
<title>\\Firesphere\\SolrSearch\\Tasks\\SolrIndexTask</title>
<polygon fill="none" stroke="#000000" points="724.7549,-412.8153 620.7549,-412.8153 620.7549,-376.8153 724.7549,-376.8153 724.7549,-412.8153"/>
<text text-anchor="middle" x="672.7549" y="-392.0153" font-family="Courier,monospace" font-size="11.00" fill="#000000">SolrIndexTask</text>
</g>
<!-- \\Firesphere\\SolrSearch\\Tasks\\SolrIndexTask&#45;&gt;\\SilverStripe\\Dev\\BuildTask -->
<g id="edge20" class="edge">
<title>\\Firesphere\\SolrSearch\\Tasks\\SolrIndexTask&#45;&gt;\\SilverStripe\\Dev\\BuildTask</title>
<path fill="none" stroke="#000000" d="M620.5332,-396.4758C602.4243,-399.8673 583.7893,-407.0977 572.2549,-421.8153 468.3962,-554.3375 622.162,-3327.8237 508.2549,-3451.8153 466.2061,-3497.5869 394.0784,-3501.3492 337.383,-3495.3727"/>
<polygon fill="none" stroke="#000000" points="337.6867,-3491.8845 327.3476,-3494.1979 336.8727,-3498.837 337.6867,-3491.8845"/>
</g>
<!-- \\Firesphere\\SolrSearch\\Tasks\\SolrConfigureTask -->
<g id="node50" class="node">
<title>\\Firesphere\\SolrSearch\\Tasks\\SolrConfigureTask</title>
<polygon fill="none" stroke="#000000" points="738.2549,-358.8153 607.2549,-358.8153 607.2549,-322.8153 738.2549,-322.8153 738.2549,-358.8153"/>
<text text-anchor="middle" x="672.7549" y="-338.0153" font-family="Courier,monospace" font-size="11.00" fill="#000000">SolrConfigureTask</text>
</g>
<!-- \\Firesphere\\SolrSearch\\Tasks\\SolrConfigureTask&#45;&gt;\\SilverStripe\\Dev\\BuildTask -->
<g id="edge21" class="edge">
<title>\\Firesphere\\SolrSearch\\Tasks\\SolrConfigureTask&#45;&gt;\\SilverStripe\\Dev\\BuildTask</title>
<path fill="none" stroke="#000000" d="M607.1636,-345.7339C593.67,-349.8824 580.9454,-356.7222 572.2549,-367.8153 466.571,-502.7177 624.1678,-3325.5935 508.2549,-3451.8153 466.2145,-3497.5947 394.086,-3501.3563 337.3882,-3495.3775"/>
<polygon fill="none" stroke="#000000" points="337.6916,-3491.8892 327.3523,-3494.2022 336.8773,-3498.8417 337.6916,-3491.8892"/>
</g>
<!-- \\Firesphere\\SolrSearch\\Tasks\\ClearErrorsTask -->
<g id="node51" class="node">
<title>\\Firesphere\\SolrSearch\\Tasks\\ClearErrorsTask</title>
<polygon fill="none" stroke="#000000" points="731.7549,-304.8153 613.7549,-304.8153 613.7549,-268.8153 731.7549,-268.8153 731.7549,-304.8153"/>
<text text-anchor="middle" x="672.7549" y="-284.0153" font-family="Courier,monospace" font-size="11.00" fill="#000000">ClearErrorsTask</text>
</g>
<!-- \\Firesphere\\SolrSearch\\Tasks\\ClearErrorsTask&#45;&gt;\\SilverStripe\\Dev\\BuildTask -->
<g id="edge22" class="edge">
<title>\\Firesphere\\SolrSearch\\Tasks\\ClearErrorsTask&#45;&gt;\\SilverStripe\\Dev\\BuildTask</title>
<path fill="none" stroke="#000000" d="M613.6939,-289.9381C597.849,-293.797 582.3358,-300.9426 572.2549,-313.8153 464.7458,-451.098 626.1736,-3323.3632 508.2549,-3451.8153 466.2227,-3497.6022 394.0934,-3501.3631 337.3933,-3495.3821"/>
<polygon fill="none" stroke="#000000" points="337.6962,-3491.8938 327.3569,-3494.2064 336.8817,-3498.8462 337.6962,-3491.8938"/>
</g>
<!-- \\Firesphere\\SolrSearch\\Results\\SearchResult -->
<g id="node52" class="node">
<title>\\Firesphere\\SolrSearch\\Results\\SearchResult</title>
<polygon fill="none" stroke="#000000" points="721.7549,-626.8153 623.7549,-626.8153 623.7549,-590.8153 721.7549,-590.8153 721.7549,-626.8153"/>
<text text-anchor="middle" x="672.7549" y="-606.0153" font-family="Courier,monospace" font-size="11.00" fill="#000000">SearchResult</text>
</g>
<!-- \\Firesphere\\SolrSearch\\Results\\SearchResult&#45;&gt;\\SilverStripe\\View\\ViewableData -->
<g id="edge23" class="edge">
<title>\\Firesphere\\SolrSearch\\Results\\SearchResult&#45;&gt;\\SilverStripe\\View\\ViewableData</title>
<path fill="none" stroke="#000000" d="M623.7106,-621.1894C604.2818,-628.7267 583.8478,-640.5524 572.2549,-658.8153 485.8611,-794.9162 617.3704,-3441.1513 508.2549,-3559.8153 467.2612,-3604.3963 397.7307,-3609.1112 341.7515,-3603.7993"/>
<polygon fill="none" stroke="#000000" points="341.7824,-3600.2827 331.4666,-3602.6981 341.0371,-3607.2429 341.7824,-3600.2827"/>
</g>
<!-- \\Firesphere\\SolrSearch\\Admins\\SearchAdmin -->
<g id="node53" class="node">
<title>\\Firesphere\\SolrSearch\\Admins\\SearchAdmin</title>
<polygon fill="none" stroke="#000000" points="718.2549,-224.8153 627.2549,-224.8153 627.2549,-188.8153 718.2549,-188.8153 718.2549,-224.8153"/>
<text text-anchor="middle" x="672.7549" y="-204.0153" font-family="Courier,monospace" font-size="11.00" fill="#000000">SearchAdmin</text>
</g>
<!-- \\SilverStripe\\Admin\\ModelAdmin -->
<g id="node72" class="node">
<title>\\SilverStripe\\Admin\\ModelAdmin</title>
<ellipse fill="none" stroke="#000000" cx="254.1275" cy="-3424.8153" rx="165.1707" ry="18"/>
<text text-anchor="middle" x="254.1275" y="-3421.1153" font-family="Times,serif" font-size="14.00" fill="#c0c0c0">\SilverStripe\Admin\ModelAdmin</text>
</g>
<!-- \\Firesphere\\SolrSearch\\Admins\\SearchAdmin&#45;&gt;\\SilverStripe\\Admin\\ModelAdmin -->
<g id="edge24" class="edge">
<title>\\Firesphere\\SolrSearch\\Admins\\SearchAdmin&#45;&gt;\\SilverStripe\\Admin\\ModelAdmin</title>
<path fill="none" stroke="#000000" d="M627.2417,-218.5319C607.1258,-226.0986 585.1538,-238.132 572.2549,-256.8153 490.7977,-374.8017 522.5418,-756.1551 508.2549,-898.8153 405.1815,-1928.0411 277.5227,-3193.05 256.9764,-3396.595"/>
<polygon fill="none" stroke="#000000" points="253.474,-3396.4429 255.9519,-3406.7439 260.4386,-3397.146 253.474,-3396.4429"/>
</g>
<!-- \\Firesphere\\SolrFluent\\Extensions\\FluentSchemaExtension -->
<g id="node54" class="node">
<title>\\Firesphere\\SolrFluent\\Extensions\\FluentSchemaExtension</title>
<polygon fill="none" stroke="#000000" points="1005.7549,-776.8153 847.7549,-776.8153 847.7549,-740.8153 1005.7549,-740.8153 1005.7549,-776.8153"/>
<text text-anchor="middle" x="926.7549" y="-756.0153" font-family="Courier,monospace" font-size="11.00" fill="#000000">FluentSchemaExtension</text>
</g>
<!-- \\Firesphere\\SolrFluent\\Extensions\\FluentSchemaExtension&#45;&gt;\\SilverStripe\\Core\\Extension -->
<g id="edge25" class="edge">
<title>\\Firesphere\\SolrFluent\\Extensions\\FluentSchemaExtension&#45;&gt;\\SilverStripe\\Core\\Extension</title>
<path fill="none" stroke="#000000" d="M847.6545,-750.4555C837.5372,-746.2257 828.28,-740.2351 821.2549,-731.8153 740.3328,-634.8275 863.7592,-260.4608 781.2549,-164.8153 748.9961,-127.4184 708.9397,-174.4281 672.7549,-140.8153"/>
</g>
<!-- \\Firesphere\\SolrFluent\\Extensions\\FluentDocumentExtension -->
<g id="node55" class="node">
<title>\\Firesphere\\SolrFluent\\Extensions\\FluentDocumentExtension</title>
<polygon fill="none" stroke="#000000" points="1012.7549,-722.8153 840.7549,-722.8153 840.7549,-686.8153 1012.7549,-686.8153 1012.7549,-722.8153"/>
<text text-anchor="middle" x="926.7549" y="-702.0153" font-family="Courier,monospace" font-size="11.00" fill="#000000">FluentDocumentExtension</text>
</g>
<!-- \\Firesphere\\SolrFluent\\Extensions\\FluentDocumentExtension&#45;&gt;\\SilverStripe\\Core\\Extension -->
<g id="edge26" class="edge">
<title>\\Firesphere\\SolrFluent\\Extensions\\FluentDocumentExtension&#45;&gt;\\SilverStripe\\Core\\Extension</title>
<path fill="none" stroke="#000000" d="M879.1415,-686.791C857.7901,-676.1655 834.4799,-660.484 821.2549,-638.8153 766.185,-548.5855 850.8493,-244.3813 781.2549,-164.8153 748.7396,-127.6412 708.9397,-174.4281 672.7549,-140.8153"/>
<path fill="none" stroke="#000000" d="M672.7549,-140.8153C657.2907,-126.4503 528.3246,-52.3502 508.2549,-45.8153 475.4252,-35.1257 439.0725,-28.44 404.3721,-24.3118"/>
<polygon fill="none" stroke="#000000" points="404.4777,-20.8017 394.1493,-23.1626 403.6957,-27.7579 404.4777,-20.8017"/>
</g>
<!-- \\Firesphere\\SolrFluent\\Extensions\\FluentIndexExtension -->
<g id="node56" class="node">
<title>\\Firesphere\\SolrFluent\\Extensions\\FluentIndexExtension</title>
<polygon fill="none" stroke="#000000" points="1002.7549,-830.8153 850.7549,-830.8153 850.7549,-794.8153 1002.7549,-794.8153 1002.7549,-830.8153"/>
<text text-anchor="middle" x="926.7549" y="-810.0153" font-family="Courier,monospace" font-size="11.00" fill="#000000">FluentIndexExtension</text>
</g>
<!-- \\Firesphere\\SolrFluent\\Extensions\\FluentIndexExtension&#45;&gt;\\SilverStripe\\Core\\Extension -->
<g id="edge27" class="edge">
<title>\\Firesphere\\SolrFluent\\Extensions\\FluentIndexExtension&#45;&gt;\\SilverStripe\\Core\\Extension</title>
<path fill="none" stroke="#000000" d="M850.507,-805.6516C839.2706,-801.3752 828.918,-795.057 821.2549,-785.8153 732.9871,-679.3644 871.2594,-269.802 781.2549,-164.8153 749.1104,-127.3201 708.9397,-174.4281 672.7549,-140.8153"/>
</g>
<!-- \\Firesphere\\SolrFluent\\States\\FluentSiteState -->
<g id="node57" class="node">
<title>\\Firesphere\\SolrFluent\\States\\FluentSiteState</title>
<polygon fill="none" stroke="#000000" points="985.7549,-910.8153 867.7549,-910.8153 867.7549,-874.8153 985.7549,-874.8153 985.7549,-910.8153"/>
<text text-anchor="middle" x="926.7549" y="-890.0153" font-family="Courier,monospace" font-size="11.00" fill="#000000">FluentSiteState</text>
</g>
<!-- \\Firesphere\\SolrFluent\\States\\FluentSiteState&#45;&gt;\\Firesphere\\SolrSearch\\Interfaces\\SiteStateInterface -->
<g id="edge29" class="edge">
<title>\\Firesphere\\SolrFluent\\States\\FluentSiteState&#45;&gt;\\Firesphere\\SolrSearch\\Interfaces\\SiteStateInterface</title>
<path fill="none" stroke="#000000" stroke-dasharray="1,5" d="M867.4876,-888.8876C850.0199,-884.6965 832.5734,-876.927 821.2549,-862.8153 725.7123,-743.6939 888.8981,-285.1263 781.2549,-176.8153 747.1916,-142.5407 720.5698,-176.8007 672.7549,-169.8153"/>
<path fill="none" stroke="#000000" stroke-dasharray="1,5" d="M672.7549,-169.8153C628.4503,-163.3428 609.6467,-152.1851 572.2549,-176.8153 353.2407,-321.0814 276.8112,-665.8002 258.7188,-766.6486"/>
<polygon fill="none" stroke="#000000" points="255.2396,-766.227 256.9694,-776.6796 262.1355,-767.4297 255.2396,-766.227"/>
</g>
<!-- \\Firesphere\\SolrFluent\\States\\FluentSiteState&#45;&gt;\\Firesphere\\SolrSearch\\States\\SiteState -->
<g id="edge28" class="edge">
<title>\\Firesphere\\SolrFluent\\States\\FluentSiteState&#45;&gt;\\Firesphere\\SolrSearch\\States\\SiteState</title>
<path fill="none" stroke="#000000" d="M867.5796,-886.5653C850.8407,-882.2019 833.7889,-874.9182 821.2549,-862.8153 779.5979,-822.5912 819.6774,-782.1396 781.2549,-738.8153 766.2857,-721.9365 744.449,-710.3743 724.2832,-702.658"/>
<polygon fill="none" stroke="#000000" points="725.4563,-699.3605 714.8618,-699.2754 723.0909,-705.9487 725.4563,-699.3605"/>
</g>
<!-- \\Firesphere\\SolrSubsites\\Extensions\\SubsitesExtension -->
<g id="node58" class="node">
<title>\\Firesphere\\SolrSubsites\\Extensions\\SubsitesExtension</title>
<polygon fill="none" stroke="#000000" points="992.2549,-1026.8153 861.2549,-1026.8153 861.2549,-990.8153 992.2549,-990.8153 992.2549,-1026.8153"/>
<text text-anchor="middle" x="926.7549" y="-1006.0153" font-family="Courier,monospace" font-size="11.00" fill="#000000">SubsitesExtension</text>
</g>
<!-- \\Firesphere\\SolrSubsites\\Extensions\\SubsitesExtension&#45;&gt;\\SilverStripe\\Core\\Extension -->
<g id="edge30" class="edge">
<title>\\Firesphere\\SolrSubsites\\Extensions\\SubsitesExtension&#45;&gt;\\SilverStripe\\Core\\Extension</title>
<path fill="none" stroke="#000000" d="M878.2804,-990.7077C857.0079,-980.1295 834.0131,-964.5119 821.2549,-942.8153 777.3794,-868.2007 837.1654,-230.8942 781.2549,-164.8153 749.354,-127.1127 708.9397,-174.4281 672.7549,-140.8153"/>
</g>
<!-- \\Firesphere\\SolrSubsites\\States\\SubsiteState -->
<g id="node59" class="node">
<title>\\Firesphere\\SolrSubsites\\States\\SubsiteState</title>
<polygon fill="none" stroke="#000000" points="975.7549,-1106.8153 877.7549,-1106.8153 877.7549,-1070.8153 975.7549,-1070.8153 975.7549,-1106.8153"/>
<text text-anchor="middle" x="926.7549" y="-1086.0153" font-family="Courier,monospace" font-size="11.00" fill="#000000">SubsiteState</text>
</g>
<!-- \\Firesphere\\SolrSubsites\\States\\SubsiteState&#45;&gt;\\Firesphere\\SolrSearch\\Interfaces\\SiteStateInterface -->
<g id="edge32" class="edge">
<title>\\Firesphere\\SolrSubsites\\States\\SubsiteState&#45;&gt;\\Firesphere\\SolrSearch\\Interfaces\\SiteStateInterface</title>
<path fill="none" stroke="#000000" stroke-dasharray="1,5" d="M877.5482,-1087.0303C856.9256,-1083.5789 834.6683,-1075.7621 821.2549,-1058.8153 760.3715,-981.8935 849.9568,-246.8425 781.2549,-176.8153 747.4137,-142.3213 720.5698,-176.8007 672.7549,-169.8153"/>
</g>
<!-- \\Firesphere\\SolrSubsites\\States\\SubsiteState&#45;&gt;\\Firesphere\\SolrSearch\\States\\SiteState -->
<g id="edge31" class="edge">
<title>\\Firesphere\\SolrSubsites\\States\\SubsiteState&#45;&gt;\\Firesphere\\SolrSearch\\States\\SiteState</title>
<path fill="none" stroke="#000000" d="M877.6185,-1086.4305C857.2664,-1082.8369 835.2033,-1075.0745 821.2549,-1058.8153 727.9313,-950.0315 865.8891,-854.4884 781.2549,-738.8153 767.6689,-720.2468 745.484,-708.3822 724.7035,-700.8981"/>
<polygon fill="none" stroke="#000000" points="725.5694,-697.4976 714.9759,-697.6627 723.3602,-704.1399 725.5694,-697.4976"/>
</g>
<!-- \\Firesphere\\SolrPermissions\\Extensions\\DocumentFactoryExtension -->
<g id="node60" class="node">
<title>\\Firesphere\\SolrPermissions\\Extensions\\DocumentFactoryExtension</title>
<polygon fill="none" stroke="#000000" points="1016.2549,-552.8153 837.2549,-552.8153 837.2549,-516.8153 1016.2549,-516.8153 1016.2549,-552.8153"/>
<text text-anchor="middle" x="926.7549" y="-532.0153" font-family="Courier,monospace" font-size="11.00" fill="#000000">DocumentFactoryExtension</text>
</g>
<!-- \\Firesphere\\SolrPermissions\\Extensions\\DocumentFactoryExtension&#45;&gt;\\SilverStripe\\Core\\Extension -->
<g id="edge33" class="edge">
<title>\\Firesphere\\SolrPermissions\\Extensions\\DocumentFactoryExtension&#45;&gt;\\SilverStripe\\Core\\Extension</title>
<path fill="none" stroke="#000000" d="M837.2136,-521.0142C831.2395,-517.4737 825.8025,-513.1307 821.2549,-507.8153 760.4484,-436.7432 843.2207,-158.8791 781.2549,-88.8153 748.5359,-51.8204 716.2824,-88.1502 672.7549,-64.8153"/>
</g>
<!-- \\Firesphere\\SolrPermissions\\Extensions\\BaseIndexExtension -->
<g id="node61" class="node">
<title>\\Firesphere\\SolrPermissions\\Extensions\\BaseIndexExtension</title>
<polygon fill="none" stroke="#000000" points="995.7549,-498.8153 857.7549,-498.8153 857.7549,-462.8153 995.7549,-462.8153 995.7549,-498.8153"/>
<text text-anchor="middle" x="926.7549" y="-478.0153" font-family="Courier,monospace" font-size="11.00" fill="#000000">BaseIndexExtension</text>
</g>
<!-- \\Firesphere\\SolrPermissions\\Extensions\\BaseIndexExtension&#45;&gt;\\SilverStripe\\Core\\Extension -->
<g id="edge34" class="edge">
<title>\\Firesphere\\SolrPermissions\\Extensions\\BaseIndexExtension&#45;&gt;\\SilverStripe\\Core\\Extension</title>
<path fill="none" stroke="#000000" d="M857.5959,-475.6374C843.796,-471.4564 830.6721,-464.6679 821.2549,-453.8153 714.2992,-330.5571 890.2208,-210.3 781.2549,-88.8153 748.2781,-52.05 716.2824,-88.1502 672.7549,-64.8153"/>
</g>
<!-- \\Firesphere\\SolrPermissions\\Extensions\\DataObjectExtension -->
<g id="node62" class="node">
<title>\\Firesphere\\SolrPermissions\\Extensions\\DataObjectExtension</title>
<polygon fill="none" stroke="#000000" points="999.2549,-606.8153 854.2549,-606.8153 854.2549,-570.8153 999.2549,-570.8153 999.2549,-606.8153"/>
<text text-anchor="middle" x="926.7549" y="-586.0153" font-family="Courier,monospace" font-size="11.00" fill="#000000">DataObjectExtension</text>
</g>
<!-- \\Firesphere\\SolrPermissions\\Extensions\\DataObjectExtension&#45;&gt;\\SilverStripe\\ORM\\DataExtension -->
<g id="edge35" class="edge">
<title>\\Firesphere\\SolrPermissions\\Extensions\\DataObjectExtension&#45;&gt;\\SilverStripe\\ORM\\DataExtension</title>
<path fill="none" stroke="#000000" d="M854.0027,-582.5662C841.515,-578.3202 829.8232,-571.7772 821.2549,-561.8153 705.6153,-427.3676 898.02,-298.2867 781.2549,-164.8153 734.821,-111.7378 558.0573,-89.2583 421.8851,-79.7524"/>
<polygon fill="none" stroke="#000000" points="421.9553,-76.2491 411.7409,-79.0628 421.4805,-83.233 421.9553,-76.2491"/>
</g>
<!-- \\Firesphere\\SolrPermissions\\Extensions\\SchemaFactoryExtension -->
<g id="node63" class="node">
<title>\\Firesphere\\SolrPermissions\\Extensions\\SchemaFactoryExtension</title>
<polygon fill="none" stroke="#000000" points="1009.2549,-444.8153 844.2549,-444.8153 844.2549,-408.8153 1009.2549,-408.8153 1009.2549,-444.8153"/>
<text text-anchor="middle" x="926.7549" y="-424.0153" font-family="Courier,monospace" font-size="11.00" fill="#000000">SchemaFactoryExtension</text>
</g>
<!-- \\Firesphere\\SolrPermissions\\Extensions\\SchemaFactoryExtension&#45;&gt;\\SilverStripe\\Core\\Extension -->
<g id="edge36" class="edge">
<title>\\Firesphere\\SolrPermissions\\Extensions\\SchemaFactoryExtension&#45;&gt;\\SilverStripe\\Core\\Extension</title>
<path fill="none" stroke="#000000" d="M880.2653,-408.6954C858.9063,-397.978 835.2615,-382.2457 821.2549,-360.8153 754.4057,-258.5346 864.5042,-178.2565 781.2549,-88.8153 747.6062,-52.6639 716.2824,-88.1502 672.7549,-64.8153"/>
</g>
</g>
</svg>
