<?xml version="1.0" encoding="UTF-8" standalone="no"?>
<!DOCTYPE svg PUBLIC "-//W3C//DTD SVG 1.1//EN"
 "http://www.w3.org/Graphics/SVG/1.1/DTD/svg11.dtd">
<!-- Generated by graphviz version 2.40.1 (20161225.0304)
 -->
<!-- Title: G Pages: 1 -->
<svg width="984pt" height="3599pt"
 viewBox="0.00 0.00 984.25 3598.79" xmlns="http://www.w3.org/2000/svg" xmlns:xlink="http://www.w3.org/1999/xlink">
<g id="graph0" class="graph" transform="scale(1 1) rotate(0) translate(4 3594.7939)">
<title>G</title>
<polygon fill="#ffffff" stroke="transparent" points="-4,4 -4,-3594.7939 980.2549,-3594.7939 980.2549,4 -4,4"/>
<g id="clust1" class="cluster">
<title>cluster_Global</title>
<path fill="none" stroke="#c0c0c0" d="M165.1275,-476.7939C165.1275,-476.7939 956.2549,-476.7939 956.2549,-476.7939 962.2549,-476.7939 968.2549,-482.7939 968.2549,-488.7939 968.2549,-488.7939 968.2549,-3570.7939 968.2549,-3570.7939 968.2549,-3576.7939 962.2549,-3582.7939 956.2549,-3582.7939 956.2549,-3582.7939 165.1275,-3582.7939 165.1275,-3582.7939 159.1275,-3582.7939 153.1275,-3576.7939 153.1275,-3570.7939 153.1275,-3570.7939 153.1275,-488.7939 153.1275,-488.7939 153.1275,-482.7939 159.1275,-476.7939 165.1275,-476.7939"/>
<text text-anchor="middle" x="560.6912" y="-3569.9939" font-family="Times,serif" font-size="11.00" fill="#c0c0c0">Global</text>
</g>
<g id="clust2" class="cluster">
<title>cluster_\Firesphere</title>
<path fill="none" stroke="#c0c0c0" d="M173.1275,-484.7939C173.1275,-484.7939 777.2549,-484.7939 777.2549,-484.7939 783.2549,-484.7939 789.2549,-490.7939 789.2549,-496.7939 789.2549,-496.7939 789.2549,-3542.7939 789.2549,-3542.7939 789.2549,-3548.7939 783.2549,-3554.7939 777.2549,-3554.7939 777.2549,-3554.7939 173.1275,-3554.7939 173.1275,-3554.7939 167.1275,-3554.7939 161.1275,-3548.7939 161.1275,-3542.7939 161.1275,-3542.7939 161.1275,-496.7939 161.1275,-496.7939 161.1275,-490.7939 167.1275,-484.7939 173.1275,-484.7939"/>
<text text-anchor="middle" x="475.1912" y="-3541.9939" font-family="Times,serif" font-size="11.00" fill="#c0c0c0">Firesphere</text>
</g>
<g id="clust3" class="cluster">
<title>cluster_\Firesphere\SolrSearch</title>
<path fill="none" stroke="#c0c0c0" d="M181.1275,-492.7939C181.1275,-492.7939 769.2549,-492.7939 769.2549,-492.7939 775.2549,-492.7939 781.2549,-498.7939 781.2549,-504.7939 781.2549,-504.7939 781.2549,-3514.7939 781.2549,-3514.7939 781.2549,-3520.7939 775.2549,-3526.7939 769.2549,-3526.7939 769.2549,-3526.7939 181.1275,-3526.7939 181.1275,-3526.7939 175.1275,-3526.7939 169.1275,-3520.7939 169.1275,-3514.7939 169.1275,-3514.7939 169.1275,-504.7939 169.1275,-504.7939 169.1275,-498.7939 175.1275,-492.7939 181.1275,-492.7939"/>
<text text-anchor="middle" x="475.1912" y="-3513.9939" font-family="Times,serif" font-size="11.00" fill="#c0c0c0">SolrSearch</text>
</g>
<g id="clust4" class="cluster">
<title>cluster_\Firesphere\SolrSearch\Compat</title>
<path fill="none" stroke="#c0c0c0" d="M590.7549,-3292.7939C590.7549,-3292.7939 754.7549,-3292.7939 754.7549,-3292.7939 760.7549,-3292.7939 766.7549,-3298.7939 766.7549,-3304.7939 766.7549,-3304.7939 766.7549,-3352.7939 766.7549,-3352.7939 766.7549,-3358.7939 760.7549,-3364.7939 754.7549,-3364.7939 754.7549,-3364.7939 590.7549,-3364.7939 590.7549,-3364.7939 584.7549,-3364.7939 578.7549,-3358.7939 578.7549,-3352.7939 578.7549,-3352.7939 578.7549,-3304.7939 578.7549,-3304.7939 578.7549,-3298.7939 584.7549,-3292.7939 590.7549,-3292.7939"/>
<text text-anchor="middle" x="672.7549" y="-3351.9939" font-family="Times,serif" font-size="11.00" fill="#c0c0c0">Compat</text>
</g>
<g id="clust5" class="cluster">
<title>cluster_\Firesphere\SolrSearch\Extensions</title>
<path fill="none" stroke="#c0c0c0" d="M604.2549,-3158.7939C604.2549,-3158.7939 741.2549,-3158.7939 741.2549,-3158.7939 747.2549,-3158.7939 753.2549,-3164.7939 753.2549,-3170.7939 753.2549,-3170.7939 753.2549,-3272.7939 753.2549,-3272.7939 753.2549,-3278.7939 747.2549,-3284.7939 741.2549,-3284.7939 741.2549,-3284.7939 604.2549,-3284.7939 604.2549,-3284.7939 598.2549,-3284.7939 592.2549,-3278.7939 592.2549,-3272.7939 592.2549,-3272.7939 592.2549,-3170.7939 592.2549,-3170.7939 592.2549,-3164.7939 598.2549,-3158.7939 604.2549,-3158.7939"/>
<text text-anchor="middle" x="672.7549" y="-3271.9939" font-family="Times,serif" font-size="11.00" fill="#c0c0c0">Extensions</text>
</g>
<g id="clust6" class="cluster">
<title>cluster_\Firesphere\SolrSearch\Jobs</title>
<path fill="none" stroke="#c0c0c0" d="M600.7549,-2970.7939C600.7549,-2970.7939 744.7549,-2970.7939 744.7549,-2970.7939 750.7549,-2970.7939 756.7549,-2976.7939 756.7549,-2982.7939 756.7549,-2982.7939 756.7549,-3138.7939 756.7549,-3138.7939 756.7549,-3144.7939 750.7549,-3150.7939 744.7549,-3150.7939 744.7549,-3150.7939 600.7549,-3150.7939 600.7549,-3150.7939 594.7549,-3150.7939 588.7549,-3144.7939 588.7549,-3138.7939 588.7549,-3138.7939 588.7549,-2982.7939 588.7549,-2982.7939 588.7549,-2976.7939 594.7549,-2970.7939 600.7549,-2970.7939"/>
<text text-anchor="middle" x="672.7549" y="-3137.9939" font-family="Times,serif" font-size="11.00" fill="#c0c0c0">Jobs</text>
</g>
<g id="clust7" class="cluster">
<title>cluster_\Firesphere\SolrSearch\Stores</title>
<path fill="none" stroke="#c0c0c0" d="M617.7549,-3372.7939C617.7549,-3372.7939 727.7549,-3372.7939 727.7549,-3372.7939 733.7549,-3372.7939 739.7549,-3378.7939 739.7549,-3384.7939 739.7549,-3384.7939 739.7549,-3486.7939 739.7549,-3486.7939 739.7549,-3492.7939 733.7549,-3498.7939 727.7549,-3498.7939 727.7549,-3498.7939 617.7549,-3498.7939 617.7549,-3498.7939 611.7549,-3498.7939 605.7549,-3492.7939 605.7549,-3486.7939 605.7549,-3486.7939 605.7549,-3384.7939 605.7549,-3384.7939 605.7549,-3378.7939 611.7549,-3372.7939 617.7549,-3372.7939"/>
<text text-anchor="middle" x="672.7549" y="-3485.9939" font-family="Times,serif" font-size="11.00" fill="#c0c0c0">Stores</text>
</g>
<g id="clust8" class="cluster">
<title>cluster_\Firesphere\SolrSearch\Tasks</title>
<path fill="none" stroke="#c0c0c0" d="M597.7549,-2728.7939C597.7549,-2728.7939 747.7549,-2728.7939 747.7549,-2728.7939 753.7549,-2728.7939 759.7549,-2734.7939 759.7549,-2740.7939 759.7549,-2740.7939 759.7549,-2950.7939 759.7549,-2950.7939 759.7549,-2956.7939 753.7549,-2962.7939 747.7549,-2962.7939 747.7549,-2962.7939 597.7549,-2962.7939 597.7549,-2962.7939 591.7549,-2962.7939 585.7549,-2956.7939 585.7549,-2950.7939 585.7549,-2950.7939 585.7549,-2740.7939 585.7549,-2740.7939 585.7549,-2734.7939 591.7549,-2728.7939 597.7549,-2728.7939"/>
<text text-anchor="middle" x="672.7549" y="-2949.9939" font-family="Times,serif" font-size="11.00" fill="#c0c0c0">Tasks</text>
</g>
<g id="clust9" class="cluster">
<title>cluster_\Firesphere\SolrSearch\Results</title>
<path fill="none" stroke="#c0c0c0" d="M627.7549,-2648.7939C627.7549,-2648.7939 717.7549,-2648.7939 717.7549,-2648.7939 723.7549,-2648.7939 729.7549,-2654.7939 729.7549,-2660.7939 729.7549,-2660.7939 729.7549,-2708.7939 729.7549,-2708.7939 729.7549,-2714.7939 723.7549,-2720.7939 717.7549,-2720.7939 717.7549,-2720.7939 627.7549,-2720.7939 627.7549,-2720.7939 621.7549,-2720.7939 615.7549,-2714.7939 615.7549,-2708.7939 615.7549,-2708.7939 615.7549,-2660.7939 615.7549,-2660.7939 615.7549,-2654.7939 621.7549,-2648.7939 627.7549,-2648.7939"/>
<text text-anchor="middle" x="672.7549" y="-2707.9939" font-family="Times,serif" font-size="11.00" fill="#c0c0c0">Results</text>
</g>
<g id="clust10" class="cluster">
<title>cluster_\Firesphere\SolrSearch\States</title>
<path fill="none" stroke="#c0c0c0" d="M634.7549,-2568.7939C634.7549,-2568.7939 710.7549,-2568.7939 710.7549,-2568.7939 716.7549,-2568.7939 722.7549,-2574.7939 722.7549,-2580.7939 722.7549,-2580.7939 722.7549,-2628.7939 722.7549,-2628.7939 722.7549,-2634.7939 716.7549,-2640.7939 710.7549,-2640.7939 710.7549,-2640.7939 634.7549,-2640.7939 634.7549,-2640.7939 628.7549,-2640.7939 622.7549,-2634.7939 622.7549,-2628.7939 622.7549,-2628.7939 622.7549,-2580.7939 622.7549,-2580.7939 622.7549,-2574.7939 628.7549,-2568.7939 634.7549,-2568.7939"/>
<text text-anchor="middle" x="672.7549" y="-2627.9939" font-family="Times,serif" font-size="11.00" fill="#c0c0c0">States</text>
</g>
<g id="clust11" class="cluster">
<title>cluster_\Firesphere\SolrSearch\Queries</title>
<path fill="none" stroke="#c0c0c0" d="M638.2549,-2488.7939C638.2549,-2488.7939 707.2549,-2488.7939 707.2549,-2488.7939 713.2549,-2488.7939 719.2549,-2494.7939 719.2549,-2500.7939 719.2549,-2500.7939 719.2549,-2548.7939 719.2549,-2548.7939 719.2549,-2554.7939 713.2549,-2560.7939 707.2549,-2560.7939 707.2549,-2560.7939 638.2549,-2560.7939 638.2549,-2560.7939 632.2549,-2560.7939 626.2549,-2554.7939 626.2549,-2548.7939 626.2549,-2548.7939 626.2549,-2500.7939 626.2549,-2500.7939 626.2549,-2494.7939 632.2549,-2488.7939 638.2549,-2488.7939"/>
<text text-anchor="middle" x="672.7549" y="-2547.9939" font-family="Times,serif" font-size="11.00" fill="#c0c0c0">Queries</text>
</g>
<g id="clust12" class="cluster">
<title>cluster_\Firesphere\SolrSearch\Forms</title>
<path fill="none" stroke="#c0c0c0" d="M634.7549,-2408.7939C634.7549,-2408.7939 710.7549,-2408.7939 710.7549,-2408.7939 716.7549,-2408.7939 722.7549,-2414.7939 722.7549,-2420.7939 722.7549,-2420.7939 722.7549,-2468.7939 722.7549,-2468.7939 722.7549,-2474.7939 716.7549,-2480.7939 710.7549,-2480.7939 710.7549,-2480.7939 634.7549,-2480.7939 634.7549,-2480.7939 628.7549,-2480.7939 622.7549,-2474.7939 622.7549,-2468.7939 622.7549,-2468.7939 622.7549,-2420.7939 622.7549,-2420.7939 622.7549,-2414.7939 628.7549,-2408.7939 634.7549,-2408.7939"/>
<text text-anchor="middle" x="672.7549" y="-2467.9939" font-family="Times,serif" font-size="11.00" fill="#c0c0c0">Forms</text>
</g>
<g id="clust13" class="cluster">
<title>cluster_\Firesphere\SolrSearch\Interfaces</title>
<path fill="none" stroke="#c0c0c0" d="M189.1275,-3345.7939C189.1275,-3345.7939 319.1275,-3345.7939 319.1275,-3345.7939 325.1275,-3345.7939 331.1275,-3351.7939 331.1275,-3357.7939 331.1275,-3357.7939 331.1275,-3459.7939 331.1275,-3459.7939 331.1275,-3465.7939 325.1275,-3471.7939 319.1275,-3471.7939 319.1275,-3471.7939 189.1275,-3471.7939 189.1275,-3471.7939 183.1275,-3471.7939 177.1275,-3465.7939 177.1275,-3459.7939 177.1275,-3459.7939 177.1275,-3357.7939 177.1275,-3357.7939 177.1275,-3351.7939 183.1275,-3345.7939 189.1275,-3345.7939"/>
<text text-anchor="middle" x="254.1275" y="-3458.9939" font-family="Times,serif" font-size="11.00" fill="#c0c0c0">Interfaces</text>
</g>
<g id="clust14" class="cluster">
<title>cluster_\Firesphere\SolrSearch\Models</title>
<path fill="none" stroke="#c0c0c0" d="M624.7549,-2220.7939C624.7549,-2220.7939 720.7549,-2220.7939 720.7549,-2220.7939 726.7549,-2220.7939 732.7549,-2226.7939 732.7549,-2232.7939 732.7549,-2232.7939 732.7549,-2388.7939 732.7549,-2388.7939 732.7549,-2394.7939 726.7549,-2400.7939 720.7549,-2400.7939 720.7549,-2400.7939 624.7549,-2400.7939 624.7549,-2400.7939 618.7549,-2400.7939 612.7549,-2394.7939 612.7549,-2388.7939 612.7549,-2388.7939 612.7549,-2232.7939 612.7549,-2232.7939 612.7549,-2226.7939 618.7549,-2220.7939 624.7549,-2220.7939"/>
<text text-anchor="middle" x="672.7549" y="-2387.9939" font-family="Times,serif" font-size="11.00" fill="#c0c0c0">Models</text>
</g>
<g id="clust15" class="cluster">
<title>cluster_\Firesphere\SolrSearch\Indexes</title>
<path fill="none" stroke="#c0c0c0" d="M634.7549,-2140.7939C634.7549,-2140.7939 710.7549,-2140.7939 710.7549,-2140.7939 716.7549,-2140.7939 722.7549,-2146.7939 722.7549,-2152.7939 722.7549,-2152.7939 722.7549,-2200.7939 722.7549,-2200.7939 722.7549,-2206.7939 716.7549,-2212.7939 710.7549,-2212.7939 710.7549,-2212.7939 634.7549,-2212.7939 634.7549,-2212.7939 628.7549,-2212.7939 622.7549,-2206.7939 622.7549,-2200.7939 622.7549,-2200.7939 622.7549,-2152.7939 622.7549,-2152.7939 622.7549,-2146.7939 628.7549,-2140.7939 634.7549,-2140.7939"/>
<text text-anchor="middle" x="672.7549" y="-2199.9939" font-family="Times,serif" font-size="11.00" fill="#c0c0c0">Indexes</text>
</g>
<g id="clust16" class="cluster">
<title>cluster_\Firesphere\SolrSearch\Admins</title>
<path fill="none" stroke="#c0c0c0" d="M631.2549,-2060.7939C631.2549,-2060.7939 714.2549,-2060.7939 714.2549,-2060.7939 720.2549,-2060.7939 726.2549,-2066.7939 726.2549,-2072.7939 726.2549,-2072.7939 726.2549,-2120.7939 726.2549,-2120.7939 726.2549,-2126.7939 720.2549,-2132.7939 714.2549,-2132.7939 714.2549,-2132.7939 631.2549,-2132.7939 631.2549,-2132.7939 625.2549,-2132.7939 619.2549,-2126.7939 619.2549,-2120.7939 619.2549,-2120.7939 619.2549,-2072.7939 619.2549,-2072.7939 619.2549,-2066.7939 625.2549,-2060.7939 631.2549,-2060.7939"/>
<text text-anchor="middle" x="672.7549" y="-2119.9939" font-family="Times,serif" font-size="11.00" fill="#c0c0c0">Admins</text>
</g>
<g id="clust17" class="cluster">
<title>cluster_\Firesphere\SolrSearch\Factories</title>
<path fill="none" stroke="#c0c0c0" d="M597.7549,-1926.7939C597.7549,-1926.7939 747.7549,-1926.7939 747.7549,-1926.7939 753.7549,-1926.7939 759.7549,-1932.7939 759.7549,-1938.7939 759.7549,-1938.7939 759.7549,-2040.7939 759.7549,-2040.7939 759.7549,-2046.7939 753.7549,-2052.7939 747.7549,-2052.7939 747.7549,-2052.7939 597.7549,-2052.7939 597.7549,-2052.7939 591.7549,-2052.7939 585.7549,-2046.7939 585.7549,-2040.7939 585.7549,-2040.7939 585.7549,-1938.7939 585.7549,-1938.7939 585.7549,-1932.7939 591.7549,-1926.7939 597.7549,-1926.7939"/>
<text text-anchor="middle" x="672.7549" y="-2039.9939" font-family="Times,serif" font-size="11.00" fill="#c0c0c0">Factories</text>
</g>
<g id="clust18" class="cluster">
<title>cluster_\Firesphere\SolrSearch\Services</title>
<path fill="none" stroke="#c0c0c0" d="M617.7549,-1792.7939C617.7549,-1792.7939 727.7549,-1792.7939 727.7549,-1792.7939 733.7549,-1792.7939 739.7549,-1798.7939 739.7549,-1804.7939 739.7549,-1804.7939 739.7549,-1906.7939 739.7549,-1906.7939 739.7549,-1912.7939 733.7549,-1918.7939 727.7549,-1918.7939 727.7549,-1918.7939 617.7549,-1918.7939 617.7549,-1918.7939 611.7549,-1918.7939 605.7549,-1912.7939 605.7549,-1906.7939 605.7549,-1906.7939 605.7549,-1804.7939 605.7549,-1804.7939 605.7549,-1798.7939 611.7549,-1792.7939 617.7549,-1792.7939"/>
<text text-anchor="middle" x="672.7549" y="-1905.9939" font-family="Times,serif" font-size="11.00" fill="#c0c0c0">Services</text>
</g>
<g id="clust19" class="cluster">
<title>cluster_\Firesphere\SolrSearch\Traits</title>
<path fill="none" stroke="#c0c0c0" d="M584.2549,-956.7939C584.2549,-956.7939 761.2549,-956.7939 761.2549,-956.7939 767.2549,-956.7939 773.2549,-962.7939 773.2549,-968.7939 773.2549,-968.7939 773.2549,-1772.7939 773.2549,-1772.7939 773.2549,-1778.7939 767.2549,-1784.7939 761.2549,-1784.7939 761.2549,-1784.7939 584.2549,-1784.7939 584.2549,-1784.7939 578.2549,-1784.7939 572.2549,-1778.7939 572.2549,-1772.7939 572.2549,-1772.7939 572.2549,-968.7939 572.2549,-968.7939 572.2549,-962.7939 578.2549,-956.7939 584.2549,-956.7939"/>
<text text-anchor="middle" x="672.7549" y="-1771.9939" font-family="Times,serif" font-size="11.00" fill="#c0c0c0">Traits</text>
</g>
<g id="clust20" class="cluster">
<title>cluster_\Firesphere\SolrSearch\Helpers</title>
<path fill="none" stroke="#c0c0c0" d="M624.7549,-660.7939C624.7549,-660.7939 720.7549,-660.7939 720.7549,-660.7939 726.7549,-660.7939 732.7549,-666.7939 732.7549,-672.7939 732.7549,-672.7939 732.7549,-936.7939 732.7549,-936.7939 732.7549,-942.7939 726.7549,-948.7939 720.7549,-948.7939 720.7549,-948.7939 624.7549,-948.7939 624.7549,-948.7939 618.7549,-948.7939 612.7549,-942.7939 612.7549,-936.7939 612.7549,-936.7939 612.7549,-672.7939 612.7549,-672.7939 612.7549,-666.7939 618.7549,-660.7939 624.7549,-660.7939"/>
<text text-anchor="middle" x="672.7549" y="-935.9939" font-family="Times,serif" font-size="11.00" fill="#c0c0c0">Helpers</text>
</g>
<g id="clust21" class="cluster">
<title>cluster_\Firesphere\SolrSearch\Fluent</title>
<path fill="none" stroke="#c0c0c0" d="M617.7549,-580.7939C617.7549,-580.7939 727.7549,-580.7939 727.7549,-580.7939 733.7549,-580.7939 739.7549,-586.7939 739.7549,-592.7939 739.7549,-592.7939 739.7549,-640.7939 739.7549,-640.7939 739.7549,-646.7939 733.7549,-652.7939 727.7549,-652.7939 727.7549,-652.7939 617.7549,-652.7939 617.7549,-652.7939 611.7549,-652.7939 605.7549,-646.7939 605.7549,-640.7939 605.7549,-640.7939 605.7549,-592.7939 605.7549,-592.7939 605.7549,-586.7939 611.7549,-580.7939 617.7549,-580.7939"/>
<text text-anchor="middle" x="672.7549" y="-639.9939" font-family="Times,serif" font-size="11.00" fill="#c0c0c0">Fluent</text>
</g>
<g id="clust22" class="cluster">
<title>cluster_\Firesphere\SolrSearch\Subsites</title>
<path fill="none" stroke="#c0c0c0" d="M611.2549,-500.7939C611.2549,-500.7939 734.2549,-500.7939 734.2549,-500.7939 740.2549,-500.7939 746.2549,-506.7939 746.2549,-512.7939 746.2549,-512.7939 746.2549,-560.7939 746.2549,-560.7939 746.2549,-566.7939 740.2549,-572.7939 734.2549,-572.7939 734.2549,-572.7939 611.2549,-572.7939 611.2549,-572.7939 605.2549,-572.7939 599.2549,-566.7939 599.2549,-560.7939 599.2549,-560.7939 599.2549,-512.7939 599.2549,-512.7939 599.2549,-506.7939 605.2549,-500.7939 611.2549,-500.7939"/>
<text text-anchor="middle" x="672.7549" y="-559.9939" font-family="Times,serif" font-size="11.00" fill="#c0c0c0">Subsites</text>
</g>
<g id="clust23" class="cluster">
<title>cluster_\SilverStripe</title>
<path fill="none" stroke="#c0c0c0" d="M817.2549,-2200.7939C817.2549,-2200.7939 948.2549,-2200.7939 948.2549,-2200.7939 954.2549,-2200.7939 960.2549,-2206.7939 960.2549,-2212.7939 960.2549,-2212.7939 960.2549,-2502.7939 960.2549,-2502.7939 960.2549,-2508.7939 954.2549,-2514.7939 948.2549,-2514.7939 948.2549,-2514.7939 817.2549,-2514.7939 817.2549,-2514.7939 811.2549,-2514.7939 805.2549,-2508.7939 805.2549,-2502.7939 805.2549,-2502.7939 805.2549,-2212.7939 805.2549,-2212.7939 805.2549,-2206.7939 811.2549,-2200.7939 817.2549,-2200.7939"/>
<text text-anchor="middle" x="882.7549" y="-2501.9939" font-family="Times,serif" font-size="11.00" fill="#c0c0c0">SilverStripe</text>
</g>
<g id="clust24" class="cluster">
<title>cluster_\SilverStripe\FullTextSearch</title>
<path fill="none" stroke="#c0c0c0" d="M825.2549,-2208.7939C825.2549,-2208.7939 940.2549,-2208.7939 940.2549,-2208.7939 946.2549,-2208.7939 952.2549,-2214.7939 952.2549,-2220.7939 952.2549,-2220.7939 952.2549,-2474.7939 952.2549,-2474.7939 952.2549,-2480.7939 946.2549,-2486.7939 940.2549,-2486.7939 940.2549,-2486.7939 825.2549,-2486.7939 825.2549,-2486.7939 819.2549,-2486.7939 813.2549,-2480.7939 813.2549,-2474.7939 813.2549,-2474.7939 813.2549,-2220.7939 813.2549,-2220.7939 813.2549,-2214.7939 819.2549,-2208.7939 825.2549,-2208.7939"/>
<text text-anchor="middle" x="882.7549" y="-2473.9939" font-family="Times,serif" font-size="11.00" fill="#c0c0c0">FullTextSearch</text>
</g>
<g id="clust25" class="cluster">
<title>cluster_\SilverStripe\FullTextSearch\Search</title>
<path fill="none" stroke="#c0c0c0" d="M833.2549,-2350.7939C833.2549,-2350.7939 932.2549,-2350.7939 932.2549,-2350.7939 938.2549,-2350.7939 944.2549,-2356.7939 944.2549,-2362.7939 944.2549,-2362.7939 944.2549,-2446.7939 944.2549,-2446.7939 944.2549,-2452.7939 938.2549,-2458.7939 932.2549,-2458.7939 932.2549,-2458.7939 833.2549,-2458.7939 833.2549,-2458.7939 827.2549,-2458.7939 821.2549,-2452.7939 821.2549,-2446.7939 821.2549,-2446.7939 821.2549,-2362.7939 821.2549,-2362.7939 821.2549,-2356.7939 827.2549,-2350.7939 833.2549,-2350.7939"/>
<text text-anchor="middle" x="882.7549" y="-2445.9939" font-family="Times,serif" font-size="11.00" fill="#c0c0c0">Search</text>
</g>
<g id="clust26" class="cluster">
<title>cluster_\SilverStripe\FullTextSearch\Search\Queries</title>
<path fill="none" stroke="#c0c0c0" d="M841.2549,-2358.7939C841.2549,-2358.7939 924.2549,-2358.7939 924.2549,-2358.7939 930.2549,-2358.7939 936.2549,-2364.7939 936.2549,-2370.7939 936.2549,-2370.7939 936.2549,-2418.7939 936.2549,-2418.7939 936.2549,-2424.7939 930.2549,-2430.7939 924.2549,-2430.7939 924.2549,-2430.7939 841.2549,-2430.7939 841.2549,-2430.7939 835.2549,-2430.7939 829.2549,-2424.7939 829.2549,-2418.7939 829.2549,-2418.7939 829.2549,-2370.7939 829.2549,-2370.7939 829.2549,-2364.7939 835.2549,-2358.7939 841.2549,-2358.7939"/>
<text text-anchor="middle" x="882.7549" y="-2417.9939" font-family="Times,serif" font-size="11.00" fill="#c0c0c0">Queries</text>
</g>
<g id="clust27" class="cluster">
<title>cluster_\SilverStripe\FullTextSearch\Solr</title>
<path fill="none" stroke="#c0c0c0" d="M844.7549,-2216.7939C844.7549,-2216.7939 920.7549,-2216.7939 920.7549,-2216.7939 926.7549,-2216.7939 932.7549,-2222.7939 932.7549,-2228.7939 932.7549,-2228.7939 932.7549,-2330.7939 932.7549,-2330.7939 932.7549,-2336.7939 926.7549,-2342.7939 920.7549,-2342.7939 920.7549,-2342.7939 844.7549,-2342.7939 844.7549,-2342.7939 838.7549,-2342.7939 832.7549,-2336.7939 832.7549,-2330.7939 832.7549,-2330.7939 832.7549,-2228.7939 832.7549,-2228.7939 832.7549,-2222.7939 838.7549,-2216.7939 844.7549,-2216.7939"/>
<text text-anchor="middle" x="882.7549" y="-2329.9939" font-family="Times,serif" font-size="11.00" fill="#c0c0c0">Solr</text>
</g>
<!-- \\Firesphere\\SolrSearch\\Compat\\FulltextSearchExtension -->
<g id="node1" class="node">
<title>\\Firesphere\\SolrSearch\\Compat\\FulltextSearchExtension</title>
<polygon fill="none" stroke="#000000" points="758.7549,-3336.7939 586.7549,-3336.7939 586.7549,-3300.7939 758.7549,-3300.7939 758.7549,-3336.7939"/>
<text text-anchor="middle" x="672.7549" y="-3315.9939" font-family="Courier,monospace" font-size="11.00" fill="#000000">FulltextSearchExtension</text>
</g>
<!-- \\SilverStripe\\Core\\Extension -->
<g id="node53" class="node">
<title>\\SilverStripe\\Core\\Extension</title>
<ellipse fill="none" stroke="#000000" cx="254.1275" cy="-450.7939" rx="144.0747" ry="18"/>
<text text-anchor="middle" x="254.1275" y="-447.0939" font-family="Times,serif" font-size="14.00" fill="#c0c0c0">\SilverStripe\Core\Extension</text>
</g>
<!-- \\Firesphere\\SolrSearch\\Compat\\FulltextSearchExtension&#45;&gt;\\SilverStripe\\Core\\Extension -->
<g id="edge1" class="edge">
<title>\\Firesphere\\SolrSearch\\Compat\\FulltextSearchExtension&#45;&gt;\\SilverStripe\\Core\\Extension</title>
<path fill="none" stroke="#000000" d="M586.5143,-3301.2558C581.1898,-3297.7976 576.3418,-3293.6839 572.2549,-3288.7939 381.3559,-3060.3806 268.6486,-762.7424 255.437,-479.3991"/>
<polygon fill="none" stroke="#000000" points="258.9204,-478.9583 254.9608,-469.1312 251.9279,-479.2826 258.9204,-478.9583"/>
</g>
<!-- \\Firesphere\\SolrSearch\\Extensions\\GridFieldExtension -->
<g id="node2" class="node">
<title>\\Firesphere\\SolrSearch\\Extensions\\GridFieldExtension</title>
<polygon fill="none" stroke="#000000" points="741.7549,-3256.7939 603.7549,-3256.7939 603.7549,-3220.7939 741.7549,-3220.7939 741.7549,-3256.7939"/>
<text text-anchor="middle" x="672.7549" y="-3235.9939" font-family="Courier,monospace" font-size="11.00" fill="#000000">GridFieldExtension</text>
</g>
<!-- \\Firesphere\\SolrSearch\\Extensions\\GridFieldExtension&#45;&gt;\\SilverStripe\\Core\\Extension -->
<g id="edge4" class="edge">
<title>\\Firesphere\\SolrSearch\\Extensions\\GridFieldExtension&#45;&gt;\\SilverStripe\\Core\\Extension</title>
<path fill="none" stroke="#000000" d="M603.5094,-3231.8248C591.6085,-3227.6398 580.454,-3221.3036 572.2549,-3211.7939 383.1756,-2992.4917 268.979,-756.9233 255.4775,-479.0819"/>
<polygon fill="none" stroke="#000000" points="258.9692,-478.8233 254.9904,-469.004 251.9774,-479.1613 258.9692,-478.8233"/>
</g>
<!-- \\Firesphere\\SolrSearch\\Extensions\\DataObjectExtension -->
<g id="node3" class="node">
<title>\\Firesphere\\SolrSearch\\Extensions\\DataObjectExtension</title>
<polygon fill="none" stroke="#000000" points="745.2549,-3202.7939 600.2549,-3202.7939 600.2549,-3166.7939 745.2549,-3166.7939 745.2549,-3202.7939"/>
<text text-anchor="middle" x="672.7549" y="-3181.9939" font-family="Courier,monospace" font-size="11.00" fill="#000000">DataObjectExtension</text>
</g>
<!-- \\SilverStripe\\ORM\\DataExtension -->
<g id="node54" class="node">
<title>\\SilverStripe\\ORM\\DataExtension</title>
<ellipse fill="none" stroke="#000000" cx="254.1275" cy="-342.7939" rx="167.8704" ry="18"/>
<text text-anchor="middle" x="254.1275" y="-339.0939" font-family="Times,serif" font-size="14.00" fill="#c0c0c0">\SilverStripe\ORM\DataExtension</text>
</g>
<!-- \\Firesphere\\SolrSearch\\Extensions\\DataObjectExtension&#45;&gt;\\SilverStripe\\ORM\\DataExtension -->
<g id="edge5" class="edge">
<title>\\Firesphere\\SolrSearch\\Extensions\\DataObjectExtension&#45;&gt;\\SilverStripe\\ORM\\DataExtension</title>
<path fill="none" stroke="#000000" d="M600.1401,-3175.221C589.2942,-3170.6667 579.3798,-3164.1304 572.2549,-3154.7939 478.3675,-3031.7623 613.0617,-483.6672 508.2549,-369.7939 467.3822,-325.3854 398.1908,-320.5486 342.3176,-325.7677"/>
<polygon fill="none" stroke="#000000" points="341.6269,-322.3211 332.0497,-326.8519 342.362,-329.2824 341.6269,-322.3211"/>
</g>
<!-- \\Firesphere\\SolrSearch\\Jobs\\SolrConfigureJob -->
<g id="node4" class="node">
<title>\\Firesphere\\SolrSearch\\Jobs\\SolrConfigureJob</title>
<polygon fill="none" stroke="#000000" points="735.2549,-3122.7939 610.2549,-3122.7939 610.2549,-3086.7939 735.2549,-3086.7939 735.2549,-3122.7939"/>
<text text-anchor="middle" x="672.7549" y="-3101.9939" font-family="Courier,monospace" font-size="11.00" fill="#000000">SolrConfigureJob</text>
</g>
<!-- \\Symbiote\\QueuedJobs\\Services\\AbstractQueuedJob -->
<g id="node55" class="node">
<title>\\Symbiote\\QueuedJobs\\Services\\AbstractQueuedJob</title>
<ellipse fill="none" stroke="#000000" cx="254.1275" cy="-396.7939" rx="254.255" ry="18"/>
<text text-anchor="middle" x="254.1275" y="-393.0939" font-family="Times,serif" font-size="14.00" fill="#c0c0c0">\Symbiote\QueuedJobs\Services\AbstractQueuedJob</text>
</g>
<!-- \\Firesphere\\SolrSearch\\Jobs\\SolrConfigureJob&#45;&gt;\\Symbiote\\QueuedJobs\\Services\\AbstractQueuedJob -->
<g id="edge6" class="edge">
<title>\\Firesphere\\SolrSearch\\Jobs\\SolrConfigureJob&#45;&gt;\\Symbiote\\QueuedJobs\\Services\\AbstractQueuedJob</title>
<path fill="none" stroke="#000000" d="M610.0555,-3100.692C595.5114,-3096.6492 581.5781,-3089.6536 572.2549,-3077.7939 481.1046,-2961.8451 608.196,-532.2571 508.2549,-423.7939 469.5505,-381.7891 405.5075,-375.203 351.3985,-379.0355"/>
<polygon fill="none" stroke="#000000" points="351.0942,-375.5486 341.4191,-379.8662 351.675,-382.5245 351.0942,-375.5486"/>
</g>
<!-- \\Firesphere\\SolrSearch\\Jobs\\ClearDirtyClassesJob -->
<g id="node5" class="node">
<title>\\Firesphere\\SolrSearch\\Jobs\\ClearDirtyClassesJob</title>
<polygon fill="none" stroke="#000000" points="748.7549,-3068.7939 596.7549,-3068.7939 596.7549,-3032.7939 748.7549,-3032.7939 748.7549,-3068.7939"/>
<text text-anchor="middle" x="672.7549" y="-3047.9939" font-family="Courier,monospace" font-size="11.00" fill="#000000">ClearDirtyClassesJob</text>
</g>
<!-- \\Firesphere\\SolrSearch\\Jobs\\ClearDirtyClassesJob&#45;&gt;\\Symbiote\\QueuedJobs\\Services\\AbstractQueuedJob -->
<g id="edge7" class="edge">
<title>\\Firesphere\\SolrSearch\\Jobs\\ClearDirtyClassesJob&#45;&gt;\\Symbiote\\QueuedJobs\\Services\\AbstractQueuedJob</title>
<path fill="none" stroke="#000000" d="M596.5242,-3041.8866C587.135,-3037.7165 578.6213,-3031.8881 572.2549,-3023.7939 482.9297,-2910.2252 606.1903,-530.027 508.2549,-423.7939 469.54,-381.7987 405.4971,-375.2127 351.3907,-379.0427"/>
<polygon fill="none" stroke="#000000" points="351.0872,-375.5558 341.4118,-379.8729 351.6676,-382.5317 351.0872,-375.5558"/>
</g>
<!-- \\Firesphere\\SolrSearch\\Jobs\\SolrIndexJob -->
<g id="node6" class="node">
<title>\\Firesphere\\SolrSearch\\Jobs\\SolrIndexJob</title>
<polygon fill="none" stroke="#000000" points="721.7549,-3014.7939 623.7549,-3014.7939 623.7549,-2978.7939 721.7549,-2978.7939 721.7549,-3014.7939"/>
<text text-anchor="middle" x="672.7549" y="-2993.9939" font-family="Courier,monospace" font-size="11.00" fill="#000000">SolrIndexJob</text>
</g>
<!-- \\Firesphere\\SolrSearch\\Jobs\\SolrIndexJob&#45;&gt;\\Symbiote\\QueuedJobs\\Services\\AbstractQueuedJob -->
<g id="edge8" class="edge">
<title>\\Firesphere\\SolrSearch\\Jobs\\SolrIndexJob&#45;&gt;\\Symbiote\\QueuedJobs\\Services\\AbstractQueuedJob</title>
<path fill="none" stroke="#000000" d="M623.5874,-2994.1241C604.5058,-2990.4088 584.368,-2982.6311 572.2549,-2966.7939 486.3985,-2854.5409 604.0733,-527.6731 508.2549,-423.7939 469.5284,-381.8094 405.4856,-375.2233 351.3821,-379.0506"/>
<polygon fill="none" stroke="#000000" points="351.0794,-375.5636 341.4038,-379.8802 351.6594,-382.5395 351.0794,-375.5636"/>
</g>
<!-- \\Firesphere\\SolrSearch\\Stores\\PostConfigStore -->
<g id="node7" class="node">
<title>\\Firesphere\\SolrSearch\\Stores\\PostConfigStore</title>
<polygon fill="none" stroke="#000000" points="731.7549,-3470.7939 613.7549,-3470.7939 613.7549,-3434.7939 731.7549,-3434.7939 731.7549,-3470.7939"/>
<text text-anchor="middle" x="672.7549" y="-3449.9939" font-family="Courier,monospace" font-size="11.00" fill="#000000">PostConfigStore</text>
</g>
<!-- \\Firesphere\\SolrSearch\\Interfaces\\ConfigStore -->
<g id="node17" class="node">
<title>\\Firesphere\\SolrSearch\\Interfaces\\ConfigStore</title>
<polygon fill="none" stroke="#000000" points="299.6275,-3443.7939 208.6275,-3443.7939 208.6275,-3407.7939 299.6275,-3407.7939 299.6275,-3443.7939"/>
<text text-anchor="middle" x="254.1275" y="-3422.9939" font-family="Courier,monospace" font-size="11.00" fill="#000000">ConfigStore</text>
</g>
<!-- \\Firesphere\\SolrSearch\\Stores\\PostConfigStore&#45;&gt;\\Firesphere\\SolrSearch\\Interfaces\\ConfigStore -->
<g id="edge9" class="edge">
<title>\\Firesphere\\SolrSearch\\Stores\\PostConfigStore&#45;&gt;\\Firesphere\\SolrSearch\\Interfaces\\ConfigStore</title>
<path fill="none" stroke="#000000" stroke-dasharray="1,5" d="M613.6637,-3448.9827C532.8854,-3443.7728 389.0185,-3434.4939 309.9722,-3429.3957"/>
<polygon fill="none" stroke="#000000" points="309.9333,-3425.886 299.7287,-3428.735 309.4827,-3432.8714 309.9333,-3425.886"/>
</g>
<!-- \\Firesphere\\SolrSearch\\Stores\\FileConfigStore -->
<g id="node8" class="node">
<title>\\Firesphere\\SolrSearch\\Stores\\FileConfigStore</title>
<polygon fill="none" stroke="#000000" points="731.7549,-3416.7939 613.7549,-3416.7939 613.7549,-3380.7939 731.7549,-3380.7939 731.7549,-3416.7939"/>
<text text-anchor="middle" x="672.7549" y="-3395.9939" font-family="Courier,monospace" font-size="11.00" fill="#000000">FileConfigStore</text>
</g>
<!-- \\Firesphere\\SolrSearch\\Stores\\FileConfigStore&#45;&gt;\\Firesphere\\SolrSearch\\Interfaces\\ConfigStore -->
<g id="edge10" class="edge">
<title>\\Firesphere\\SolrSearch\\Stores\\FileConfigStore&#45;&gt;\\Firesphere\\SolrSearch\\Interfaces\\ConfigStore</title>
<path fill="none" stroke="#000000" stroke-dasharray="1,5" d="M613.6637,-3402.605C532.8854,-3407.815 389.0185,-3417.0939 309.9722,-3422.1921"/>
<polygon fill="none" stroke="#000000" points="309.4827,-3418.7163 299.7287,-3422.8527 309.9333,-3425.7018 309.4827,-3418.7163"/>
</g>
<!-- \\Firesphere\\SolrSearch\\Tasks\\ClearErrorsTask -->
<g id="node9" class="node">
<title>\\Firesphere\\SolrSearch\\Tasks\\ClearErrorsTask</title>
<polygon fill="none" stroke="#000000" points="731.7549,-2934.7939 613.7549,-2934.7939 613.7549,-2898.7939 731.7549,-2898.7939 731.7549,-2934.7939"/>
<text text-anchor="middle" x="672.7549" y="-2913.9939" font-family="Courier,monospace" font-size="11.00" fill="#000000">ClearErrorsTask</text>
</g>
<!-- \\SilverStripe\\Dev\\BuildTask -->
<g id="node56" class="node">
<title>\\SilverStripe\\Dev\\BuildTask</title>
<ellipse fill="none" stroke="#000000" cx="254.1275" cy="-288.7939" rx="139.9756" ry="18"/>
<text text-anchor="middle" x="254.1275" y="-285.0939" font-family="Times,serif" font-size="14.00" fill="#c0c0c0">\SilverStripe\Dev\BuildTask</text>
</g>
<!-- \\Firesphere\\SolrSearch\\Tasks\\ClearErrorsTask&#45;&gt;\\SilverStripe\\Dev\\BuildTask -->
<g id="edge11" class="edge">
<title>\\Firesphere\\SolrSearch\\Tasks\\ClearErrorsTask&#45;&gt;\\SilverStripe\\Dev\\BuildTask</title>
<path fill="none" stroke="#000000" d="M613.7299,-2913.6429C597.8862,-2909.783 582.3645,-2902.644 572.2549,-2889.7939 483.8084,-2777.3712 605.2247,-420.9533 508.2549,-315.7939 466.1206,-270.101 394.0009,-266.3312 337.3304,-272.2849"/>
<polygon fill="none" stroke="#000000" points="336.8265,-268.8198 327.2996,-273.4555 337.6379,-275.7727 336.8265,-268.8198"/>
</g>
<!-- \\Firesphere\\SolrSearch\\Tasks\\ClearDirtyClassesTask -->
<g id="node10" class="node">
<title>\\Firesphere\\SolrSearch\\Tasks\\ClearDirtyClassesTask</title>
<polygon fill="none" stroke="#000000" points="751.7549,-2880.7939 593.7549,-2880.7939 593.7549,-2844.7939 751.7549,-2844.7939 751.7549,-2880.7939"/>
<text text-anchor="middle" x="672.7549" y="-2859.9939" font-family="Courier,monospace" font-size="11.00" fill="#000000">ClearDirtyClassesTask</text>
</g>
<!-- \\Firesphere\\SolrSearch\\Tasks\\ClearDirtyClassesTask&#45;&gt;\\SilverStripe\\Dev\\BuildTask -->
<g id="edge12" class="edge">
<title>\\Firesphere\\SolrSearch\\Tasks\\ClearDirtyClassesTask&#45;&gt;\\SilverStripe\\Dev\\BuildTask</title>
<path fill="none" stroke="#000000" d="M593.5952,-2852.5096C585.371,-2848.4608 577.954,-2843.0339 572.2549,-2835.7939 485.6335,-2725.7513 603.219,-418.7233 508.2549,-315.7939 466.1793,-270.1891 394.2326,-266.3542 337.6093,-272.2618"/>
<polygon fill="none" stroke="#000000" points="337.1157,-268.7955 327.5855,-273.4243 337.9222,-275.7489 337.1157,-268.7955"/>
</g>
<!-- \\Firesphere\\SolrSearch\\Tasks\\SolrConfigureTask -->
<g id="node11" class="node">
<title>\\Firesphere\\SolrSearch\\Tasks\\SolrConfigureTask</title>
<polygon fill="none" stroke="#000000" points="738.2549,-2826.7939 607.2549,-2826.7939 607.2549,-2790.7939 738.2549,-2790.7939 738.2549,-2826.7939"/>
<text text-anchor="middle" x="672.7549" y="-2805.9939" font-family="Courier,monospace" font-size="11.00" fill="#000000">SolrConfigureTask</text>
</g>
<!-- \\Firesphere\\SolrSearch\\Tasks\\SolrConfigureTask&#45;&gt;\\SilverStripe\\Dev\\BuildTask -->
<g id="edge13" class="edge">
<title>\\Firesphere\\SolrSearch\\Tasks\\SolrConfigureTask&#45;&gt;\\SilverStripe\\Dev\\BuildTask</title>
<path fill="none" stroke="#000000" d="M607.2054,-2803.8425C593.71,-2799.6954 580.9742,-2792.8644 572.2549,-2781.7939 487.4585,-2674.1314 601.2134,-416.4932 508.2549,-315.7939 466.1667,-270.2008 394.2211,-266.3648 337.6015,-272.269"/>
<polygon fill="none" stroke="#000000" points="337.1088,-268.8026 327.5784,-273.4309 337.9149,-275.756 337.1088,-268.8026"/>
</g>
<!-- \\Firesphere\\SolrSearch\\Tasks\\SolrIndexTask -->
<g id="node12" class="node">
<title>\\Firesphere\\SolrSearch\\Tasks\\SolrIndexTask</title>
<polygon fill="none" stroke="#000000" points="724.7549,-2772.7939 620.7549,-2772.7939 620.7549,-2736.7939 724.7549,-2736.7939 724.7549,-2772.7939"/>
<text text-anchor="middle" x="672.7549" y="-2751.9939" font-family="Courier,monospace" font-size="11.00" fill="#000000">SolrIndexTask</text>
</g>
<!-- \\Firesphere\\SolrSearch\\Tasks\\SolrIndexTask&#45;&gt;\\SilverStripe\\Dev\\BuildTask -->
<g id="edge14" class="edge">
<title>\\Firesphere\\SolrSearch\\Tasks\\SolrIndexTask&#45;&gt;\\SilverStripe\\Dev\\BuildTask</title>
<path fill="none" stroke="#000000" d="M620.7163,-2751.5245C602.5156,-2747.5976 583.7701,-2739.8276 572.2549,-2724.7939 409.4357,-2512.224 689.9378,-512.4849 508.2549,-315.7939 466.1527,-270.2137 394.2084,-266.3765 337.5928,-272.277"/>
<polygon fill="none" stroke="#000000" points="337.1012,-268.8105 327.5705,-273.4382 337.9069,-275.7639 337.1012,-268.8105"/>
</g>
<!-- \\Firesphere\\SolrSearch\\Results\\SearchResult -->
<g id="node13" class="node">
<title>\\Firesphere\\SolrSearch\\Results\\SearchResult</title>
<polygon fill="none" stroke="#000000" points="721.7549,-2692.7939 623.7549,-2692.7939 623.7549,-2656.7939 721.7549,-2656.7939 721.7549,-2692.7939"/>
<text text-anchor="middle" x="672.7549" y="-2671.9939" font-family="Courier,monospace" font-size="11.00" fill="#000000">SearchResult</text>
</g>
<!-- \\Firesphere\\SolrSearch\\States\\SiteState -->
<g id="node14" class="node">
<title>\\Firesphere\\SolrSearch\\States\\SiteState</title>
<polygon fill="none" stroke="#000000" points="714.7549,-2612.7939 630.7549,-2612.7939 630.7549,-2576.7939 714.7549,-2576.7939 714.7549,-2612.7939"/>
<text text-anchor="start" x="638.7549" y="-2597.9939" font-family="Courier,monospace" font-size="11.00" fill="#000000">«abstract»</text>
<text text-anchor="start" x="642.2549" y="-2585.9939" font-family="Courier,monospace" font-size="11.00" fill="#000000">SiteState</text>
</g>
<!-- \\Firesphere\\SolrSearch\\Queries\\BaseQuery -->
<g id="node15" class="node">
<title>\\Firesphere\\SolrSearch\\Queries\\BaseQuery</title>
<polygon fill="none" stroke="#000000" points="711.2549,-2532.7939 634.2549,-2532.7939 634.2549,-2496.7939 711.2549,-2496.7939 711.2549,-2532.7939"/>
<text text-anchor="middle" x="672.7549" y="-2511.9939" font-family="Courier,monospace" font-size="11.00" fill="#000000">BaseQuery</text>
</g>
<!-- \\Firesphere\\SolrSearch\\Forms\\SearchForm -->
<g id="node16" class="node">
<title>\\Firesphere\\SolrSearch\\Forms\\SearchForm</title>
<polygon fill="none" stroke="#000000" points="714.7549,-2452.7939 630.7549,-2452.7939 630.7549,-2416.7939 714.7549,-2416.7939 714.7549,-2452.7939"/>
<text text-anchor="middle" x="672.7549" y="-2431.9939" font-family="Courier,monospace" font-size="11.00" fill="#000000">SearchForm</text>
</g>
<!-- \\SilverStripe\\Forms\\Form -->
<g id="node57" class="node">
<title>\\SilverStripe\\Forms\\Form</title>
<ellipse fill="none" stroke="#000000" cx="254.1275" cy="-234.7939" rx="129.1772" ry="18"/>
<text text-anchor="middle" x="254.1275" y="-231.0939" font-family="Times,serif" font-size="14.00" fill="#c0c0c0">\SilverStripe\Forms\Form</text>
</g>
<!-- \\Firesphere\\SolrSearch\\Forms\\SearchForm&#45;&gt;\\SilverStripe\\Forms\\Form -->
<g id="edge15" class="edge">
<title>\\Firesphere\\SolrSearch\\Forms\\SearchForm&#45;&gt;\\SilverStripe\\Forms\\Form</title>
<path fill="none" stroke="#000000" d="M630.6135,-2433.2946C609.6367,-2430.1708 585.9031,-2422.5517 572.2549,-2404.7939 427.0893,-2215.9172 670.1796,-436.5161 508.2549,-261.7939 465.5798,-215.7459 392.4379,-212.3546 335.5488,-218.5321"/>
<polygon fill="none" stroke="#000000" points="334.9985,-215.073 325.4876,-219.7412 335.8338,-222.023 334.9985,-215.073"/>
</g>
<!-- \\Firesphere\\SolrSearch\\Interfaces\\SiteStateInterface -->
<g id="node18" class="node">
<title>\\Firesphere\\SolrSearch\\Interfaces\\SiteStateInterface</title>
<polygon fill="none" stroke="#000000" points="323.1275,-3389.7939 185.1275,-3389.7939 185.1275,-3353.7939 323.1275,-3353.7939 323.1275,-3389.7939"/>
<text text-anchor="middle" x="254.1275" y="-3368.9939" font-family="Courier,monospace" font-size="11.00" fill="#000000">SiteStateInterface</text>
</g>
<!-- \\Firesphere\\SolrSearch\\Models\\SearchSynonym -->
<g id="node19" class="node">
<title>\\Firesphere\\SolrSearch\\Models\\SearchSynonym</title>
<polygon fill="none" stroke="#000000" points="724.7549,-2372.7939 620.7549,-2372.7939 620.7549,-2336.7939 724.7549,-2336.7939 724.7549,-2372.7939"/>
<text text-anchor="middle" x="672.7549" y="-2351.9939" font-family="Courier,monospace" font-size="11.00" fill="#000000">SearchSynonym</text>
</g>
<!-- \\SilverStripe\\ORM\\DataObject -->
<g id="node58" class="node">
<title>\\SilverStripe\\ORM\\DataObject</title>
<ellipse fill="none" stroke="#000000" cx="254.1275" cy="-180.7939" rx="152.9733" ry="18"/>
<text text-anchor="middle" x="254.1275" y="-177.0939" font-family="Times,serif" font-size="14.00" fill="#c0c0c0">\SilverStripe\ORM\DataObject</text>
</g>
<!-- \\Firesphere\\SolrSearch\\Models\\SearchSynonym&#45;&gt;\\SilverStripe\\ORM\\DataObject -->
<g id="edge16" class="edge">
<title>\\Firesphere\\SolrSearch\\Models\\SearchSynonym&#45;&gt;\\SilverStripe\\ORM\\DataObject</title>
<path fill="none" stroke="#000000" d="M620.604,-2353.0776C602.5036,-2349.6794 583.8558,-2342.4591 572.2549,-2327.7939 426.0486,-2142.9677 668.4712,-380.6166 508.2549,-207.7939 466.7105,-162.9806 396.3104,-158.572 340.1291,-164.0633"/>
<polygon fill="none" stroke="#000000" points="339.7324,-160.5857 330.1725,-165.1529 340.494,-167.5442 339.7324,-160.5857"/>
</g>
<!-- \\Firesphere\\SolrSearch\\Models\\DirtyClass -->
<g id="node20" class="node">
<title>\\Firesphere\\SolrSearch\\Models\\DirtyClass</title>
<polygon fill="none" stroke="#000000" points="714.7549,-2318.7939 630.7549,-2318.7939 630.7549,-2282.7939 714.7549,-2282.7939 714.7549,-2318.7939"/>
<text text-anchor="middle" x="672.7549" y="-2297.9939" font-family="Courier,monospace" font-size="11.00" fill="#000000">DirtyClass</text>
</g>
<!-- \\Firesphere\\SolrSearch\\Models\\DirtyClass&#45;&gt;\\SilverStripe\\ORM\\DataObject -->
<g id="edge17" class="edge">
<title>\\Firesphere\\SolrSearch\\Models\\DirtyClass&#45;&gt;\\SilverStripe\\ORM\\DataObject</title>
<path fill="none" stroke="#000000" d="M630.7311,-2300.6112C609.7876,-2298.1302 586.0484,-2291.2167 572.2549,-2273.7939 429.6983,-2093.7274 664.4604,-376.1571 508.2549,-207.7939 466.6929,-162.997 396.2941,-158.5872 340.1178,-164.0738"/>
<polygon fill="none" stroke="#000000" points="339.7224,-160.596 330.1622,-165.1625 340.4834,-167.5546 339.7224,-160.596"/>
</g>
<!-- \\Firesphere\\SolrSearch\\Models\\SolrLog -->
<g id="node21" class="node">
<title>\\Firesphere\\SolrSearch\\Models\\SolrLog</title>
<polygon fill="none" stroke="#000000" points="704.7549,-2264.7939 640.7549,-2264.7939 640.7549,-2228.7939 704.7549,-2228.7939 704.7549,-2264.7939"/>
<text text-anchor="middle" x="672.7549" y="-2243.9939" font-family="Courier,monospace" font-size="11.00" fill="#000000">SolrLog</text>
</g>
<!-- \\Firesphere\\SolrSearch\\Models\\SolrLog&#45;&gt;\\SilverStripe\\ORM\\DataObject -->
<g id="edge18" class="edge">
<title>\\Firesphere\\SolrSearch\\Models\\SolrLog&#45;&gt;\\SilverStripe\\ORM\\DataObject</title>
<path fill="none" stroke="#000000" d="M640.5843,-2246.4768C617.6397,-2244.3666 588.1428,-2237.4233 572.2549,-2216.7939 435.9819,-2039.8521 660.2268,-371.4498 508.2549,-207.7939 466.6732,-163.0152 396.2759,-158.604 340.1052,-164.0855"/>
<polygon fill="none" stroke="#000000" points="339.7112,-160.6076 330.1506,-165.1732 340.4717,-167.5662 339.7112,-160.6076"/>
</g>
<!-- \\SilverStripe\\Security\\PermissionProvider -->
<g id="node59" class="node">
<title>\\SilverStripe\\Security\\PermissionProvider</title>
<ellipse fill="none" stroke="#000000" cx="254.1275" cy="-126.7939" rx="206.0634" ry="18"/>
<text text-anchor="middle" x="254.1275" y="-123.0939" font-family="Times,serif" font-size="14.00" fill="#c0c0c0">\SilverStripe\Security\PermissionProvider</text>
</g>
<!-- \\Firesphere\\SolrSearch\\Models\\SolrLog&#45;&gt;\\SilverStripe\\Security\\PermissionProvider -->
<g id="edge19" class="edge">
<title>\\Firesphere\\SolrSearch\\Models\\SolrLog&#45;&gt;\\SilverStripe\\Security\\PermissionProvider</title>
<path fill="none" stroke="#000000" stroke-dasharray="1,5" d="M640.5792,-2246.4807C617.6321,-2244.3724 588.1342,-2237.4299 572.2549,-2216.7939 432.3983,-2035.0426 664.2376,-321.9093 508.2549,-153.7939 468.5535,-111.0043 402.5416,-105.0641 347.7472,-109.3995"/>
<polygon fill="none" stroke="#000000" points="347.2951,-105.9261 337.6553,-110.322 347.9324,-112.897 347.2951,-105.9261"/>
</g>
<!-- \\Firesphere\\SolrSearch\\Indexes\\BaseIndex -->
<g id="node22" class="node">
<title>\\Firesphere\\SolrSearch\\Indexes\\BaseIndex</title>
<polygon fill="none" stroke="#000000" points="714.7549,-2184.7939 630.7549,-2184.7939 630.7549,-2148.7939 714.7549,-2148.7939 714.7549,-2184.7939"/>
<text text-anchor="start" x="638.7549" y="-2169.9939" font-family="Courier,monospace" font-size="11.00" fill="#000000">«abstract»</text>
<text text-anchor="start" x="642.2549" y="-2157.9939" font-family="Courier,monospace" font-size="11.00" fill="#000000">BaseIndex</text>
</g>
<!-- \\Firesphere\\SolrSearch\\Admins\\SearchAdmin -->
<g id="node23" class="node">
<title>\\Firesphere\\SolrSearch\\Admins\\SearchAdmin</title>
<polygon fill="none" stroke="#000000" points="718.2549,-2104.7939 627.2549,-2104.7939 627.2549,-2068.7939 718.2549,-2068.7939 718.2549,-2104.7939"/>
<text text-anchor="middle" x="672.7549" y="-2083.9939" font-family="Courier,monospace" font-size="11.00" fill="#000000">SearchAdmin</text>
</g>
<!-- \\SilverStripe\\Admin\\ModelAdmin -->
<g id="node60" class="node">
<title>\\SilverStripe\\Admin\\ModelAdmin</title>
<ellipse fill="none" stroke="#000000" cx="254.1275" cy="-72.7939" rx="165.1707" ry="18"/>
<text text-anchor="middle" x="254.1275" y="-69.0939" font-family="Times,serif" font-size="14.00" fill="#c0c0c0">\SilverStripe\Admin\ModelAdmin</text>
</g>
<!-- \\Firesphere\\SolrSearch\\Admins\\SearchAdmin&#45;&gt;\\SilverStripe\\Admin\\ModelAdmin -->
<g id="edge20" class="edge">
<title>\\Firesphere\\SolrSearch\\Admins\\SearchAdmin&#45;&gt;\\SilverStripe\\Admin\\ModelAdmin</title>
<path fill="none" stroke="#000000" d="M627.029,-2084.7001C606.9939,-2081.2508 585.1501,-2073.5228 572.2549,-2056.7939 439.4326,-1884.4834 656.3647,-259.1556 508.2549,-99.7939 467.3091,-55.7374 398.4674,-50.7692 342.7557,-55.8456"/>
<polygon fill="none" stroke="#000000" points="342.1031,-52.3943 332.5156,-56.9032 342.8223,-59.3572 342.1031,-52.3943"/>
</g>
<!-- \\Firesphere\\SolrSearch\\Factories\\DocumentFactory -->
<g id="node24" class="node">
<title>\\Firesphere\\SolrSearch\\Factories\\DocumentFactory</title>
<polygon fill="none" stroke="#000000" points="731.7549,-2024.7939 613.7549,-2024.7939 613.7549,-1988.7939 731.7549,-1988.7939 731.7549,-2024.7939"/>
<text text-anchor="middle" x="672.7549" y="-2003.9939" font-family="Courier,monospace" font-size="11.00" fill="#000000">DocumentFactory</text>
</g>
<!-- \\Firesphere\\SolrSearch\\Factories\\QueryComponentFactory -->
<g id="node25" class="node">
<title>\\Firesphere\\SolrSearch\\Factories\\QueryComponentFactory</title>
<polygon fill="none" stroke="#000000" points="751.7549,-1970.7939 593.7549,-1970.7939 593.7549,-1934.7939 751.7549,-1934.7939 751.7549,-1970.7939"/>
<text text-anchor="middle" x="672.7549" y="-1949.9939" font-family="Courier,monospace" font-size="11.00" fill="#000000">QueryComponentFactory</text>
</g>
<!-- \\Firesphere\\SolrSearch\\Services\\SolrCoreService -->
<g id="node26" class="node">
<title>\\Firesphere\\SolrSearch\\Services\\SolrCoreService</title>
<polygon fill="none" stroke="#000000" points="731.7549,-1890.7939 613.7549,-1890.7939 613.7549,-1854.7939 731.7549,-1854.7939 731.7549,-1890.7939"/>
<text text-anchor="middle" x="672.7549" y="-1869.9939" font-family="Courier,monospace" font-size="11.00" fill="#000000">SolrCoreService</text>
</g>
<!-- \\Firesphere\\SolrSearch\\Services\\SchemaService -->
<g id="node27" class="node">
<title>\\Firesphere\\SolrSearch\\Services\\SchemaService</title>
<polygon fill="none" stroke="#000000" points="724.7549,-1836.7939 620.7549,-1836.7939 620.7549,-1800.7939 724.7549,-1800.7939 724.7549,-1836.7939"/>
<text text-anchor="middle" x="672.7549" y="-1815.9939" font-family="Courier,monospace" font-size="11.00" fill="#000000">SchemaService</text>
</g>
<!-- \\SilverStripe\\View\\ViewableData -->
<g id="node61" class="node">
<title>\\SilverStripe\\View\\ViewableData</title>
<ellipse fill="none" stroke="#000000" cx="254.1275" cy="-18.7939" rx="163.2712" ry="18"/>
<text text-anchor="middle" x="254.1275" y="-15.0939" font-family="Times,serif" font-size="14.00" fill="#c0c0c0">\SilverStripe\View\ViewableData</text>
</g>
<!-- \\Firesphere\\SolrSearch\\Services\\SchemaService&#45;&gt;\\SilverStripe\\View\\ViewableData -->
<g id="edge21" class="edge">
<title>\\Firesphere\\SolrSearch\\Services\\SchemaService&#45;&gt;\\SilverStripe\\View\\ViewableData</title>
<path fill="none" stroke="#000000" d="M620.5344,-1815.4055C602.4257,-1811.4532 583.7904,-1803.697 572.2549,-1788.7939 453.6329,-1635.5419 640.4715,-187.4841 508.2549,-45.7939 467.2208,-1.8196 398.3844,3.1535 342.6971,-1.9001"/>
<polygon fill="none" stroke="#000000" points="342.0509,1.5519 332.4617,-2.9533 342.7675,-5.4113 342.0509,1.5519"/>
</g>
<!-- \\Firesphere\\SolrSearch\\Traits\\GetterSetterTrait -->
<g id="node28" class="node">
<title>\\Firesphere\\SolrSearch\\Traits\\GetterSetterTrait</title>
<polygon fill="none" stroke="#000000" points="738.2549,-1756.7939 607.2549,-1756.7939 607.2549,-1720.7939 738.2549,-1720.7939 738.2549,-1756.7939"/>
<text text-anchor="middle" x="672.7549" y="-1735.9939" font-family="Courier,monospace" font-size="11.00" fill="#000000">GetterSetterTrait</text>
</g>
<!-- \\Firesphere\\SolrSearch\\Traits\\SearchResultGetTrait -->
<g id="node29" class="node">
<title>\\Firesphere\\SolrSearch\\Traits\\SearchResultGetTrait</title>
<polygon fill="none" stroke="#000000" points="748.7549,-1702.7939 596.7549,-1702.7939 596.7549,-1666.7939 748.7549,-1666.7939 748.7549,-1702.7939"/>
<text text-anchor="middle" x="672.7549" y="-1681.9939" font-family="Courier,monospace" font-size="11.00" fill="#000000">SearchResultGetTrait</text>
</g>
<!-- \\Firesphere\\SolrSearch\\Traits\\SearchResultSetTrait -->
<g id="node30" class="node">
<title>\\Firesphere\\SolrSearch\\Traits\\SearchResultSetTrait</title>
<polygon fill="none" stroke="#000000" points="748.7549,-1648.7939 596.7549,-1648.7939 596.7549,-1612.7939 748.7549,-1612.7939 748.7549,-1648.7939"/>
<text text-anchor="middle" x="672.7549" y="-1627.9939" font-family="Courier,monospace" font-size="11.00" fill="#000000">SearchResultSetTrait</text>
</g>
<!-- \\Firesphere\\SolrSearch\\Traits\\BaseIndexTrait -->
<g id="node31" class="node">
<title>\\Firesphere\\SolrSearch\\Traits\\BaseIndexTrait</title>
<polygon fill="none" stroke="#000000" points="728.2549,-1594.7939 617.2549,-1594.7939 617.2549,-1558.7939 728.2549,-1558.7939 728.2549,-1594.7939"/>
<text text-anchor="middle" x="672.7549" y="-1573.9939" font-family="Courier,monospace" font-size="11.00" fill="#000000">BaseIndexTrait</text>
</g>
<!-- \\Firesphere\\SolrSearch\\Traits\\GetSetSchemaServiceTrait -->
<g id="node32" class="node">
<title>\\Firesphere\\SolrSearch\\Traits\\GetSetSchemaServiceTrait</title>
<polygon fill="none" stroke="#000000" points="762.2549,-1540.7939 583.2549,-1540.7939 583.2549,-1504.7939 762.2549,-1504.7939 762.2549,-1540.7939"/>
<text text-anchor="middle" x="672.7549" y="-1519.9939" font-family="Courier,monospace" font-size="11.00" fill="#000000">GetSetSchemaServiceTrait</text>
</g>
<!-- \\Firesphere\\SolrSearch\\Traits\\DocumentFactoryTrait -->
<g id="node33" class="node">
<title>\\Firesphere\\SolrSearch\\Traits\\DocumentFactoryTrait</title>
<polygon fill="none" stroke="#000000" points="748.7549,-1486.7939 596.7549,-1486.7939 596.7549,-1450.7939 748.7549,-1450.7939 748.7549,-1486.7939"/>
<text text-anchor="middle" x="672.7549" y="-1465.9939" font-family="Courier,monospace" font-size="11.00" fill="#000000">DocumentFactoryTrait</text>
</g>
<!-- \\Firesphere\\SolrSearch\\Traits\\GetSetSearchResolverTrait -->
<g id="node34" class="node">
<title>\\Firesphere\\SolrSearch\\Traits\\GetSetSearchResolverTrait</title>
<polygon fill="none" stroke="#000000" points="765.2549,-1432.7939 580.2549,-1432.7939 580.2549,-1396.7939 765.2549,-1396.7939 765.2549,-1432.7939"/>
<text text-anchor="middle" x="672.7549" y="-1411.9939" font-family="Courier,monospace" font-size="11.00" fill="#000000">GetSetSearchResolverTrait</text>
</g>
<!-- \\Firesphere\\SolrSearch\\Traits\\CoreAdminTrait -->
<g id="node35" class="node">
<title>\\Firesphere\\SolrSearch\\Traits\\CoreAdminTrait</title>
<polygon fill="none" stroke="#000000" points="728.2549,-1378.7939 617.2549,-1378.7939 617.2549,-1342.7939 728.2549,-1342.7939 728.2549,-1378.7939"/>
<text text-anchor="middle" x="672.7549" y="-1357.9939" font-family="Courier,monospace" font-size="11.00" fill="#000000">CoreAdminTrait</text>
</g>
<!-- \\Firesphere\\SolrSearch\\Traits\\CoreServiceTrait -->
<g id="node36" class="node">
<title>\\Firesphere\\SolrSearch\\Traits\\CoreServiceTrait</title>
<polygon fill="none" stroke="#000000" points="735.2549,-1324.7939 610.2549,-1324.7939 610.2549,-1288.7939 735.2549,-1288.7939 735.2549,-1324.7939"/>
<text text-anchor="middle" x="672.7549" y="-1303.9939" font-family="Courier,monospace" font-size="11.00" fill="#000000">CoreServiceTrait</text>
</g>
<!-- \\Firesphere\\SolrSearch\\Traits\\BaseQueryTrait -->
<g id="node37" class="node">
<title>\\Firesphere\\SolrSearch\\Traits\\BaseQueryTrait</title>
<polygon fill="none" stroke="#000000" points="728.2549,-1270.7939 617.2549,-1270.7939 617.2549,-1234.7939 728.2549,-1234.7939 728.2549,-1270.7939"/>
<text text-anchor="middle" x="672.7549" y="-1249.9939" font-family="Courier,monospace" font-size="11.00" fill="#000000">BaseQueryTrait</text>
</g>
<!-- \\Firesphere\\SolrSearch\\Traits\\DataResolveTrait -->
<g id="node38" class="node">
<title>\\Firesphere\\SolrSearch\\Traits\\DataResolveTrait</title>
<polygon fill="none" stroke="#000000" points="735.2549,-1216.7939 610.2549,-1216.7939 610.2549,-1180.7939 735.2549,-1180.7939 735.2549,-1216.7939"/>
<text text-anchor="middle" x="672.7549" y="-1195.9939" font-family="Courier,monospace" font-size="11.00" fill="#000000">DataResolveTrait</text>
</g>
<!-- \\Firesphere\\SolrSearch\\Traits\\QueryComponentFacetTrait -->
<g id="node39" class="node">
<title>\\Firesphere\\SolrSearch\\Traits\\QueryComponentFacetTrait</title>
<polygon fill="none" stroke="#000000" points="762.2549,-1162.7939 583.2549,-1162.7939 583.2549,-1126.7939 762.2549,-1126.7939 762.2549,-1162.7939"/>
<text text-anchor="middle" x="672.7549" y="-1141.9939" font-family="Courier,monospace" font-size="11.00" fill="#000000">QueryComponentFacetTrait</text>
</g>
<!-- \\Firesphere\\SolrSearch\\Traits\\QueryComponentFilterTrait -->
<g id="node40" class="node">
<title>\\Firesphere\\SolrSearch\\Traits\\QueryComponentFilterTrait</title>
<polygon fill="none" stroke="#000000" points="765.2549,-1108.7939 580.2549,-1108.7939 580.2549,-1072.7939 765.2549,-1072.7939 765.2549,-1108.7939"/>
<text text-anchor="middle" x="672.7549" y="-1087.9939" font-family="Courier,monospace" font-size="11.00" fill="#000000">QueryComponentFilterTrait</text>
</g>
<!-- \\Firesphere\\SolrSearch\\Traits\\QueryComponentBoostTrait -->
<g id="node41" class="node">
<title>\\Firesphere\\SolrSearch\\Traits\\QueryComponentBoostTrait</title>
<polygon fill="none" stroke="#000000" points="762.2549,-1054.7939 583.2549,-1054.7939 583.2549,-1018.7939 762.2549,-1018.7939 762.2549,-1054.7939"/>
<text text-anchor="middle" x="672.7549" y="-1033.9939" font-family="Courier,monospace" font-size="11.00" fill="#000000">QueryComponentBoostTrait</text>
</g>
<!-- \\Firesphere\\SolrSearch\\Traits\\LoggerTrait -->
<g id="node42" class="node">
<title>\\Firesphere\\SolrSearch\\Traits\\LoggerTrait</title>
<polygon fill="none" stroke="#000000" points="718.2549,-1000.7939 627.2549,-1000.7939 627.2549,-964.7939 718.2549,-964.7939 718.2549,-1000.7939"/>
<text text-anchor="middle" x="672.7549" y="-979.9939" font-family="Courier,monospace" font-size="11.00" fill="#000000">LoggerTrait</text>
</g>
<!-- \\Firesphere\\SolrSearch\\Helpers\\Statics -->
<g id="node43" class="node">
<title>\\Firesphere\\SolrSearch\\Helpers\\Statics</title>
<polygon fill="none" stroke="#000000" points="704.7549,-920.7939 640.7549,-920.7939 640.7549,-884.7939 704.7549,-884.7939 704.7549,-920.7939"/>
<text text-anchor="middle" x="672.7549" y="-899.9939" font-family="Courier,monospace" font-size="11.00" fill="#000000">Statics</text>
</g>
<!-- \\Firesphere\\SolrSearch\\Helpers\\DataResolver -->
<g id="node44" class="node">
<title>\\Firesphere\\SolrSearch\\Helpers\\DataResolver</title>
<polygon fill="none" stroke="#000000" points="721.7549,-866.7939 623.7549,-866.7939 623.7549,-830.7939 721.7549,-830.7939 721.7549,-866.7939"/>
<text text-anchor="middle" x="672.7549" y="-845.9939" font-family="Courier,monospace" font-size="11.00" fill="#000000">DataResolver</text>
</g>
<!-- \\Firesphere\\SolrSearch\\Helpers\\SolrLogger -->
<g id="node45" class="node">
<title>\\Firesphere\\SolrSearch\\Helpers\\SolrLogger</title>
<polygon fill="none" stroke="#000000" points="714.7549,-812.7939 630.7549,-812.7939 630.7549,-776.7939 714.7549,-776.7939 714.7549,-812.7939"/>
<text text-anchor="middle" x="672.7549" y="-791.9939" font-family="Courier,monospace" font-size="11.00" fill="#000000">SolrLogger</text>
</g>
<!-- \\Firesphere\\SolrSearch\\Helpers\\Synonyms -->
<g id="node46" class="node">
<title>\\Firesphere\\SolrSearch\\Helpers\\Synonyms</title>
<polygon fill="none" stroke="#000000" points="708.2549,-758.7939 637.2549,-758.7939 637.2549,-722.7939 708.2549,-722.7939 708.2549,-758.7939"/>
<text text-anchor="middle" x="672.7549" y="-737.9939" font-family="Courier,monospace" font-size="11.00" fill="#000000">Synonyms</text>
</g>
<!-- \\Firesphere\\SolrSearch\\Helpers\\FieldResolver -->
<g id="node47" class="node">
<title>\\Firesphere\\SolrSearch\\Helpers\\FieldResolver</title>
<polygon fill="none" stroke="#000000" points="724.7549,-704.7939 620.7549,-704.7939 620.7549,-668.7939 724.7549,-668.7939 724.7549,-704.7939"/>
<text text-anchor="middle" x="672.7549" y="-683.9939" font-family="Courier,monospace" font-size="11.00" fill="#000000">FieldResolver</text>
</g>
<!-- \\Firesphere\\SolrSearch\\Fluent\\FluentExtension -->
<g id="node48" class="node">
<title>\\Firesphere\\SolrSearch\\Fluent\\FluentExtension</title>
<polygon fill="none" stroke="#000000" points="731.7549,-624.7939 613.7549,-624.7939 613.7549,-588.7939 731.7549,-588.7939 731.7549,-624.7939"/>
<text text-anchor="middle" x="672.7549" y="-603.9939" font-family="Courier,monospace" font-size="11.00" fill="#000000">FluentExtension</text>
</g>
<!-- \\Firesphere\\SolrSearch\\Fluent\\FluentExtension&#45;&gt;\\SilverStripe\\Core\\Extension -->
<g id="edge22" class="edge">
<title>\\Firesphere\\SolrSearch\\Fluent\\FluentExtension&#45;&gt;\\SilverStripe\\Core\\Extension</title>
<path fill="none" stroke="#000000" d="M613.4926,-590.0372C599.8732,-585.9282 585.5026,-581.3849 572.2549,-576.7939 476.352,-543.5586 366.7546,-498.5605 304.4624,-472.3057"/>
<polygon fill="none" stroke="#000000" points="305.4542,-468.9252 294.8804,-468.2576 302.73,-475.3734 305.4542,-468.9252"/>
</g>
<!-- \\Firesphere\\SolrSearch\\Subsites\\SubsitesExtension -->
<g id="node49" class="node">
<title>\\Firesphere\\SolrSearch\\Subsites\\SubsitesExtension</title>
<polygon fill="none" stroke="#000000" points="738.2549,-544.7939 607.2549,-544.7939 607.2549,-508.7939 738.2549,-508.7939 738.2549,-544.7939"/>
<text text-anchor="middle" x="672.7549" y="-523.9939" font-family="Courier,monospace" font-size="11.00" fill="#000000">SubsitesExtension</text>
</g>
<!-- \\Firesphere\\SolrSearch\\Subsites\\SubsitesExtension&#45;&gt;\\SilverStripe\\ORM\\DataExtension -->
<g id="edge23" class="edge">
<title>\\Firesphere\\SolrSearch\\Subsites\\SubsitesExtension&#45;&gt;\\SilverStripe\\ORM\\DataExtension</title>
<path fill="none" stroke="#000000" d="M660.3311,-508.7696C635.778,-474.7969 577.386,-401.8309 508.2549,-369.7939 484.3393,-358.7108 457.8374,-351.3177 431.2376,-346.4988"/>
<polygon fill="none" stroke="#000000" points="431.4869,-342.9914 421.0434,-344.7756 430.3202,-349.8934 431.4869,-342.9914"/>
</g>
<!-- \\SilverStripe\\FullTextSearch\\Search\\Queries\\SearchQuery -->
<g id="node50" class="node">
<title>\\SilverStripe\\FullTextSearch\\Search\\Queries\\SearchQuery</title>
<polygon fill="none" stroke="#000000" points="928.2549,-2402.7939 837.2549,-2402.7939 837.2549,-2366.7939 928.2549,-2366.7939 928.2549,-2402.7939"/>
<text text-anchor="middle" x="882.7549" y="-2381.9939" font-family="Courier,monospace" font-size="11.00" fill="#000000">SearchQuery</text>
</g>
<!-- \\SilverStripe\\FullTextSearch\\Search\\Queries\\SearchQuery&#45;&gt;\\Firesphere\\SolrSearch\\Queries\\BaseQuery -->
<g id="edge2" class="edge">
<title>\\SilverStripe\\FullTextSearch\\Search\\Queries\\SearchQuery&#45;&gt;\\Firesphere\\SolrSearch\\Queries\\BaseQuery</title>
<path fill="none" stroke="#000000" d="M870.7941,-2402.8963C854.8846,-2425.5205 824.617,-2463.8122 789.2549,-2484.7939 768.7094,-2496.9843 743.2654,-2504.2703 721.4022,-2508.6009"/>
<polygon fill="none" stroke="#000000" points="720.5257,-2505.203 711.3179,-2510.4438 721.7842,-2512.089 720.5257,-2505.203"/>
</g>
<!-- \\SilverStripe\\FullTextSearch\\Solr\\SolrIndex -->
<g id="node51" class="node">
<title>\\SilverStripe\\FullTextSearch\\Solr\\SolrIndex</title>
<polygon fill="none" stroke="#000000" points="924.7549,-2314.7939 840.7549,-2314.7939 840.7549,-2278.7939 924.7549,-2278.7939 924.7549,-2314.7939"/>
<text text-anchor="start" x="848.7549" y="-2299.9939" font-family="Courier,monospace" font-size="11.00" fill="#000000">«abstract»</text>
<text text-anchor="start" x="852.2549" y="-2287.9939" font-family="Courier,monospace" font-size="11.00" fill="#000000">SolrIndex</text>
</g>
<!-- \\SilverStripe\\FullTextSearch\\Solr\\SolrIndex&#45;&gt;\\Firesphere\\SolrSearch\\Indexes\\BaseIndex -->
<g id="edge3" class="edge">
<title>\\SilverStripe\\FullTextSearch\\Solr\\SolrIndex&#45;&gt;\\Firesphere\\SolrSearch\\Indexes\\BaseIndex</title>
<path fill="none" stroke="#000000" d="M840.4671,-2289.7819C827.7104,-2285.8012 814.6227,-2279.5641 805.2549,-2269.7939 788.2258,-2252.0332 805.6505,-2235.141 789.2549,-2216.7939 772.4552,-2197.9946 747.3645,-2186.0081 724.766,-2178.5016"/>
<polygon fill="none" stroke="#000000" points="725.5201,-2175.0712 714.9322,-2175.4559 723.449,-2181.7578 725.5201,-2175.0712"/>
</g>
<!-- \\SilverStripe\\FullTextSearch\\Solr\\Solr -->
<g id="node52" class="node">
<title>\\SilverStripe\\FullTextSearch\\Solr\\Solr</title>
<polygon fill="none" stroke="#000000" points="909.7549,-2260.7939 855.7549,-2260.7939 855.7549,-2224.7939 909.7549,-2224.7939 909.7549,-2260.7939"/>
<text text-anchor="middle" x="882.7549" y="-2239.9939" font-family="Courier,monospace" font-size="11.00" fill="#000000">Solr</text>
</g>
</g>
</svg>
