<?xml version="1.0" encoding="UTF-8" standalone="no"?>
<!DOCTYPE svg PUBLIC "-//W3C//DTD SVG 1.1//EN"
 "http://www.w3.org/Graphics/SVG/1.1/DTD/svg11.dtd">
<!-- Generated by graphviz version 2.40.1 (20161225.0304)
 -->
<!-- Title: G Pages: 1 -->
<svg width="1064pt" height="3721pt"
 viewBox="0.00 0.00 1064.25 3721.10" xmlns="http://www.w3.org/2000/svg" xmlns:xlink="http://www.w3.org/1999/xlink">
<g id="graph0" class="graph" transform="scale(1 1) rotate(0) translate(4 3717.0986)">
<title>G</title>
<polygon fill="#ffffff" stroke="transparent" points="-4,4 -4,-3717.0986 1060.2549,-3717.0986 1060.2549,4 -4,4"/>
<g id="clust1" class="cluster">
<title>cluster_Global</title>
<path fill="none" stroke="#c0c0c0" d="M165.1275,-152.8503C165.1275,-152.8503 1036.2549,-152.8503 1036.2549,-152.8503 1042.2549,-152.8503 1048.2549,-158.8503 1048.2549,-164.8503 1048.2549,-164.8503 1048.2549,-3386.8503 1048.2549,-3386.8503 1048.2549,-3392.8503 1042.2549,-3398.8503 1036.2549,-3398.8503 1036.2549,-3398.8503 165.1275,-3398.8503 165.1275,-3398.8503 159.1275,-3398.8503 153.1275,-3392.8503 153.1275,-3386.8503 153.1275,-3386.8503 153.1275,-164.8503 153.1275,-164.8503 153.1275,-158.8503 159.1275,-152.8503 165.1275,-152.8503"/>
<text text-anchor="middle" x="600.6912" y="-3386.0503" font-family="Times,serif" font-size="11.00" fill="#c0c0c0">Global</text>
</g>
<g id="clust2" class="cluster">
<title>cluster_\Firesphere</title>
<path fill="none" stroke="#c0c0c0" d="M173.1275,-160.8503C173.1275,-160.8503 1028.2549,-160.8503 1028.2549,-160.8503 1034.2549,-160.8503 1040.2549,-166.8503 1040.2549,-172.8503 1040.2549,-172.8503 1040.2549,-3036.8503 1040.2549,-3036.8503 1040.2549,-3042.8503 1034.2549,-3048.8503 1028.2549,-3048.8503 1028.2549,-3048.8503 173.1275,-3048.8503 173.1275,-3048.8503 167.1275,-3048.8503 161.1275,-3042.8503 161.1275,-3036.8503 161.1275,-3036.8503 161.1275,-172.8503 161.1275,-172.8503 161.1275,-166.8503 167.1275,-160.8503 173.1275,-160.8503"/>
<text text-anchor="middle" x="600.6912" y="-3036.0503" font-family="Times,serif" font-size="11.00" fill="#c0c0c0">Firesphere</text>
</g>
<g id="clust3" class="cluster">
<title>cluster_\Firesphere\SolrCompatibility</title>
<path fill="none" stroke="#c0c0c0" d="M833.2549,-168.8503C833.2549,-168.8503 1020.2549,-168.8503 1020.2549,-168.8503 1026.2549,-168.8503 1032.2549,-174.8503 1032.2549,-180.8503 1032.2549,-180.8503 1032.2549,-318.8503 1032.2549,-318.8503 1032.2549,-324.8503 1026.2549,-330.8503 1020.2549,-330.8503 1020.2549,-330.8503 833.2549,-330.8503 833.2549,-330.8503 827.2549,-330.8503 821.2549,-324.8503 821.2549,-318.8503 821.2549,-318.8503 821.2549,-180.8503 821.2549,-180.8503 821.2549,-174.8503 827.2549,-168.8503 833.2549,-168.8503"/>
<text text-anchor="middle" x="926.7549" y="-318.0503" font-family="Times,serif" font-size="11.00" fill="#c0c0c0">SolrCompatibility</text>
</g>
<g id="clust4" class="cluster">
<title>cluster_\Firesphere\SolrCompatibility\Extensions</title>
<path fill="none" stroke="#c0c0c0" d="M841.2549,-176.8503C841.2549,-176.8503 1012.2549,-176.8503 1012.2549,-176.8503 1018.2549,-176.8503 1024.2549,-182.8503 1024.2549,-188.8503 1024.2549,-188.8503 1024.2549,-290.8503 1024.2549,-290.8503 1024.2549,-296.8503 1018.2549,-302.8503 1012.2549,-302.8503 1012.2549,-302.8503 841.2549,-302.8503 841.2549,-302.8503 835.2549,-302.8503 829.2549,-296.8503 829.2549,-290.8503 829.2549,-290.8503 829.2549,-188.8503 829.2549,-188.8503 829.2549,-182.8503 835.2549,-176.8503 841.2549,-176.8503"/>
<text text-anchor="middle" x="926.7549" y="-290.0503" font-family="Times,serif" font-size="11.00" fill="#c0c0c0">Extensions</text>
</g>
<g id="clust5" class="cluster">
<title>cluster_\Firesphere\SolrSearch</title>
<path fill="none" stroke="#c0c0c0" d="M181.1275,-172.8503C181.1275,-172.8503 769.2549,-172.8503 769.2549,-172.8503 775.2549,-172.8503 781.2549,-178.8503 781.2549,-184.8503 781.2549,-184.8503 781.2549,-3008.8503 781.2549,-3008.8503 781.2549,-3014.8503 775.2549,-3020.8503 769.2549,-3020.8503 769.2549,-3020.8503 181.1275,-3020.8503 181.1275,-3020.8503 175.1275,-3020.8503 169.1275,-3014.8503 169.1275,-3008.8503 169.1275,-3008.8503 169.1275,-184.8503 169.1275,-184.8503 169.1275,-178.8503 175.1275,-172.8503 181.1275,-172.8503"/>
<text text-anchor="middle" x="475.1912" y="-3008.0503" font-family="Times,serif" font-size="11.00" fill="#c0c0c0">SolrSearch</text>
</g>
<g id="clust6" class="cluster">
<title>cluster_\Firesphere\SolrSearch\Indexes</title>
<path fill="none" stroke="#c0c0c0" d="M634.7549,-2920.8503C634.7549,-2920.8503 710.7549,-2920.8503 710.7549,-2920.8503 716.7549,-2920.8503 722.7549,-2926.8503 722.7549,-2932.8503 722.7549,-2932.8503 722.7549,-2980.8503 722.7549,-2980.8503 722.7549,-2986.8503 716.7549,-2992.8503 710.7549,-2992.8503 710.7549,-2992.8503 634.7549,-2992.8503 634.7549,-2992.8503 628.7549,-2992.8503 622.7549,-2986.8503 622.7549,-2980.8503 622.7549,-2980.8503 622.7549,-2932.8503 622.7549,-2932.8503 622.7549,-2926.8503 628.7549,-2920.8503 634.7549,-2920.8503"/>
<text text-anchor="middle" x="672.7549" y="-2980.0503" font-family="Times,serif" font-size="11.00" fill="#c0c0c0">Indexes</text>
</g>
<g id="clust7" class="cluster">
<title>cluster_\Firesphere\SolrSearch\Admins</title>
<path fill="none" stroke="#c0c0c0" d="M631.2549,-2598.8503C631.2549,-2598.8503 714.2549,-2598.8503 714.2549,-2598.8503 720.2549,-2598.8503 726.2549,-2604.8503 726.2549,-2610.8503 726.2549,-2610.8503 726.2549,-2658.8503 726.2549,-2658.8503 726.2549,-2664.8503 720.2549,-2670.8503 714.2549,-2670.8503 714.2549,-2670.8503 631.2549,-2670.8503 631.2549,-2670.8503 625.2549,-2670.8503 619.2549,-2664.8503 619.2549,-2658.8503 619.2549,-2658.8503 619.2549,-2610.8503 619.2549,-2610.8503 619.2549,-2604.8503 625.2549,-2598.8503 631.2549,-2598.8503"/>
<text text-anchor="middle" x="672.7549" y="-2658.0503" font-family="Times,serif" font-size="11.00" fill="#c0c0c0">Admins</text>
</g>
<g id="clust8" class="cluster">
<title>cluster_\Firesphere\SolrSearch\Tasks</title>
<path fill="none" stroke="#c0c0c0" d="M597.7549,-2678.8503C597.7549,-2678.8503 747.7549,-2678.8503 747.7549,-2678.8503 753.7549,-2678.8503 759.7549,-2684.8503 759.7549,-2690.8503 759.7549,-2690.8503 759.7549,-2900.8503 759.7549,-2900.8503 759.7549,-2906.8503 753.7549,-2912.8503 747.7549,-2912.8503 747.7549,-2912.8503 597.7549,-2912.8503 597.7549,-2912.8503 591.7549,-2912.8503 585.7549,-2906.8503 585.7549,-2900.8503 585.7549,-2900.8503 585.7549,-2690.8503 585.7549,-2690.8503 585.7549,-2684.8503 591.7549,-2678.8503 597.7549,-2678.8503"/>
<text text-anchor="middle" x="672.7549" y="-2900.0503" font-family="Times,serif" font-size="11.00" fill="#c0c0c0">Tasks</text>
</g>
<g id="clust9" class="cluster">
<title>cluster_\Firesphere\SolrSearch\Interfaces</title>
<path fill="none" stroke="#c0c0c0" d="M189.1275,-1472.8503C189.1275,-1472.8503 319.1275,-1472.8503 319.1275,-1472.8503 325.1275,-1472.8503 331.1275,-1478.8503 331.1275,-1484.8503 331.1275,-1484.8503 331.1275,-1586.8503 331.1275,-1586.8503 331.1275,-1592.8503 325.1275,-1598.8503 319.1275,-1598.8503 319.1275,-1598.8503 189.1275,-1598.8503 189.1275,-1598.8503 183.1275,-1598.8503 177.1275,-1592.8503 177.1275,-1586.8503 177.1275,-1586.8503 177.1275,-1484.8503 177.1275,-1484.8503 177.1275,-1478.8503 183.1275,-1472.8503 189.1275,-1472.8503"/>
<text text-anchor="middle" x="254.1275" y="-1586.0503" font-family="Times,serif" font-size="11.00" fill="#c0c0c0">Interfaces</text>
</g>
<g id="clust10" class="cluster">
<title>cluster_\Firesphere\SolrSearch\Results</title>
<path fill="none" stroke="#c0c0c0" d="M627.7549,-2518.8503C627.7549,-2518.8503 717.7549,-2518.8503 717.7549,-2518.8503 723.7549,-2518.8503 729.7549,-2524.8503 729.7549,-2530.8503 729.7549,-2530.8503 729.7549,-2578.8503 729.7549,-2578.8503 729.7549,-2584.8503 723.7549,-2590.8503 717.7549,-2590.8503 717.7549,-2590.8503 627.7549,-2590.8503 627.7549,-2590.8503 621.7549,-2590.8503 615.7549,-2584.8503 615.7549,-2578.8503 615.7549,-2578.8503 615.7549,-2530.8503 615.7549,-2530.8503 615.7549,-2524.8503 621.7549,-2518.8503 627.7549,-2518.8503"/>
<text text-anchor="middle" x="672.7549" y="-2578.0503" font-family="Times,serif" font-size="11.00" fill="#c0c0c0">Results</text>
</g>
<g id="clust11" class="cluster">
<title>cluster_\Firesphere\SolrSearch\States</title>
<path fill="none" stroke="#c0c0c0" d="M634.7549,-2438.8503C634.7549,-2438.8503 710.7549,-2438.8503 710.7549,-2438.8503 716.7549,-2438.8503 722.7549,-2444.8503 722.7549,-2450.8503 722.7549,-2450.8503 722.7549,-2498.8503 722.7549,-2498.8503 722.7549,-2504.8503 716.7549,-2510.8503 710.7549,-2510.8503 710.7549,-2510.8503 634.7549,-2510.8503 634.7549,-2510.8503 628.7549,-2510.8503 622.7549,-2504.8503 622.7549,-2498.8503 622.7549,-2498.8503 622.7549,-2450.8503 622.7549,-2450.8503 622.7549,-2444.8503 628.7549,-2438.8503 634.7549,-2438.8503"/>
<text text-anchor="middle" x="672.7549" y="-2498.0503" font-family="Times,serif" font-size="11.00" fill="#c0c0c0">States</text>
</g>
<g id="clust12" class="cluster">
<title>cluster_\Firesphere\SolrSearch\Extensions</title>
<path fill="none" stroke="#c0c0c0" d="M604.2549,-2304.8503C604.2549,-2304.8503 741.2549,-2304.8503 741.2549,-2304.8503 747.2549,-2304.8503 753.2549,-2310.8503 753.2549,-2316.8503 753.2549,-2316.8503 753.2549,-2418.8503 753.2549,-2418.8503 753.2549,-2424.8503 747.2549,-2430.8503 741.2549,-2430.8503 741.2549,-2430.8503 604.2549,-2430.8503 604.2549,-2430.8503 598.2549,-2430.8503 592.2549,-2424.8503 592.2549,-2418.8503 592.2549,-2418.8503 592.2549,-2316.8503 592.2549,-2316.8503 592.2549,-2310.8503 598.2549,-2304.8503 604.2549,-2304.8503"/>
<text text-anchor="middle" x="672.7549" y="-2418.0503" font-family="Times,serif" font-size="11.00" fill="#c0c0c0">Extensions</text>
</g>
<g id="clust13" class="cluster">
<title>cluster_\Firesphere\SolrSearch\Factories</title>
<path fill="none" stroke="#c0c0c0" d="M597.7549,-2170.8503C597.7549,-2170.8503 747.7549,-2170.8503 747.7549,-2170.8503 753.7549,-2170.8503 759.7549,-2176.8503 759.7549,-2182.8503 759.7549,-2182.8503 759.7549,-2284.8503 759.7549,-2284.8503 759.7549,-2290.8503 753.7549,-2296.8503 747.7549,-2296.8503 747.7549,-2296.8503 597.7549,-2296.8503 597.7549,-2296.8503 591.7549,-2296.8503 585.7549,-2290.8503 585.7549,-2284.8503 585.7549,-2284.8503 585.7549,-2182.8503 585.7549,-2182.8503 585.7549,-2176.8503 591.7549,-2170.8503 597.7549,-2170.8503"/>
<text text-anchor="middle" x="672.7549" y="-2284.0503" font-family="Times,serif" font-size="11.00" fill="#c0c0c0">Factories</text>
</g>
<g id="clust14" class="cluster">
<title>cluster_\Firesphere\SolrSearch\Jobs</title>
<path fill="none" stroke="#c0c0c0" d="M600.7549,-1982.8503C600.7549,-1982.8503 744.7549,-1982.8503 744.7549,-1982.8503 750.7549,-1982.8503 756.7549,-1988.8503 756.7549,-1994.8503 756.7549,-1994.8503 756.7549,-2150.8503 756.7549,-2150.8503 756.7549,-2156.8503 750.7549,-2162.8503 744.7549,-2162.8503 744.7549,-2162.8503 600.7549,-2162.8503 600.7549,-2162.8503 594.7549,-2162.8503 588.7549,-2156.8503 588.7549,-2150.8503 588.7549,-2150.8503 588.7549,-1994.8503 588.7549,-1994.8503 588.7549,-1988.8503 594.7549,-1982.8503 600.7549,-1982.8503"/>
<text text-anchor="middle" x="672.7549" y="-2150.0503" font-family="Times,serif" font-size="11.00" fill="#c0c0c0">Jobs</text>
</g>
<g id="clust15" class="cluster">
<title>cluster_\Firesphere\SolrSearch\Models</title>
<path fill="none" stroke="#c0c0c0" d="M624.7549,-1794.8503C624.7549,-1794.8503 720.7549,-1794.8503 720.7549,-1794.8503 726.7549,-1794.8503 732.7549,-1800.8503 732.7549,-1806.8503 732.7549,-1806.8503 732.7549,-1962.8503 732.7549,-1962.8503 732.7549,-1968.8503 726.7549,-1974.8503 720.7549,-1974.8503 720.7549,-1974.8503 624.7549,-1974.8503 624.7549,-1974.8503 618.7549,-1974.8503 612.7549,-1968.8503 612.7549,-1962.8503 612.7549,-1962.8503 612.7549,-1806.8503 612.7549,-1806.8503 612.7549,-1800.8503 618.7549,-1794.8503 624.7549,-1794.8503"/>
<text text-anchor="middle" x="672.7549" y="-1962.0503" font-family="Times,serif" font-size="11.00" fill="#c0c0c0">Models</text>
</g>
<g id="clust16" class="cluster">
<title>cluster_\Firesphere\SolrSearch\Services</title>
<path fill="none" stroke="#c0c0c0" d="M617.7549,-1660.8503C617.7549,-1660.8503 727.7549,-1660.8503 727.7549,-1660.8503 733.7549,-1660.8503 739.7549,-1666.8503 739.7549,-1672.8503 739.7549,-1672.8503 739.7549,-1774.8503 739.7549,-1774.8503 739.7549,-1780.8503 733.7549,-1786.8503 727.7549,-1786.8503 727.7549,-1786.8503 617.7549,-1786.8503 617.7549,-1786.8503 611.7549,-1786.8503 605.7549,-1780.8503 605.7549,-1774.8503 605.7549,-1774.8503 605.7549,-1672.8503 605.7549,-1672.8503 605.7549,-1666.8503 611.7549,-1660.8503 617.7549,-1660.8503"/>
<text text-anchor="middle" x="672.7549" y="-1774.0503" font-family="Times,serif" font-size="11.00" fill="#c0c0c0">Services</text>
</g>
<g id="clust17" class="cluster">
<title>cluster_\Firesphere\SolrSearch\Stores</title>
<path fill="none" stroke="#c0c0c0" d="M617.7549,-1526.8503C617.7549,-1526.8503 727.7549,-1526.8503 727.7549,-1526.8503 733.7549,-1526.8503 739.7549,-1532.8503 739.7549,-1538.8503 739.7549,-1538.8503 739.7549,-1640.8503 739.7549,-1640.8503 739.7549,-1646.8503 733.7549,-1652.8503 727.7549,-1652.8503 727.7549,-1652.8503 617.7549,-1652.8503 617.7549,-1652.8503 611.7549,-1652.8503 605.7549,-1646.8503 605.7549,-1640.8503 605.7549,-1640.8503 605.7549,-1538.8503 605.7549,-1538.8503 605.7549,-1532.8503 611.7549,-1526.8503 617.7549,-1526.8503"/>
<text text-anchor="middle" x="672.7549" y="-1640.0503" font-family="Times,serif" font-size="11.00" fill="#c0c0c0">Stores</text>
</g>
<g id="clust18" class="cluster">
<title>cluster_\Firesphere\SolrSearch\Helpers</title>
<path fill="none" stroke="#c0c0c0" d="M624.7549,-1230.8503C624.7549,-1230.8503 720.7549,-1230.8503 720.7549,-1230.8503 726.7549,-1230.8503 732.7549,-1236.8503 732.7549,-1242.8503 732.7549,-1242.8503 732.7549,-1506.8503 732.7549,-1506.8503 732.7549,-1512.8503 726.7549,-1518.8503 720.7549,-1518.8503 720.7549,-1518.8503 624.7549,-1518.8503 624.7549,-1518.8503 618.7549,-1518.8503 612.7549,-1512.8503 612.7549,-1506.8503 612.7549,-1506.8503 612.7549,-1242.8503 612.7549,-1242.8503 612.7549,-1236.8503 618.7549,-1230.8503 624.7549,-1230.8503"/>
<text text-anchor="middle" x="672.7549" y="-1506.0503" font-family="Times,serif" font-size="11.00" fill="#c0c0c0">Helpers</text>
</g>
<g id="clust19" class="cluster">
<title>cluster_\Firesphere\SolrSearch\Traits</title>
<path fill="none" stroke="#c0c0c0" d="M584.2549,-340.8503C584.2549,-340.8503 761.2549,-340.8503 761.2549,-340.8503 767.2549,-340.8503 773.2549,-346.8503 773.2549,-352.8503 773.2549,-352.8503 773.2549,-1210.8503 773.2549,-1210.8503 773.2549,-1216.8503 767.2549,-1222.8503 761.2549,-1222.8503 761.2549,-1222.8503 584.2549,-1222.8503 584.2549,-1222.8503 578.2549,-1222.8503 572.2549,-1216.8503 572.2549,-1210.8503 572.2549,-1210.8503 572.2549,-352.8503 572.2549,-352.8503 572.2549,-346.8503 578.2549,-340.8503 584.2549,-340.8503"/>
<text text-anchor="middle" x="672.7549" y="-1210.0503" font-family="Times,serif" font-size="11.00" fill="#c0c0c0">Traits</text>
</g>
<g id="clust20" class="cluster">
<title>cluster_\Firesphere\SolrSearch\Forms</title>
<path fill="none" stroke="#c0c0c0" d="M634.7549,-260.8503C634.7549,-260.8503 710.7549,-260.8503 710.7549,-260.8503 716.7549,-260.8503 722.7549,-266.8503 722.7549,-272.8503 722.7549,-272.8503 722.7549,-320.8503 722.7549,-320.8503 722.7549,-326.8503 716.7549,-332.8503 710.7549,-332.8503 710.7549,-332.8503 634.7549,-332.8503 634.7549,-332.8503 628.7549,-332.8503 622.7549,-326.8503 622.7549,-320.8503 622.7549,-320.8503 622.7549,-272.8503 622.7549,-272.8503 622.7549,-266.8503 628.7549,-260.8503 634.7549,-260.8503"/>
<text text-anchor="middle" x="672.7549" y="-320.0503" font-family="Times,serif" font-size="11.00" fill="#c0c0c0">Forms</text>
</g>
<g id="clust21" class="cluster">
<title>cluster_\Firesphere\SolrSearch\Queries</title>
<path fill="none" stroke="#c0c0c0" d="M638.2549,-180.8503C638.2549,-180.8503 707.2549,-180.8503 707.2549,-180.8503 713.2549,-180.8503 719.2549,-186.8503 719.2549,-192.8503 719.2549,-192.8503 719.2549,-240.8503 719.2549,-240.8503 719.2549,-246.8503 713.2549,-252.8503 707.2549,-252.8503 707.2549,-252.8503 638.2549,-252.8503 638.2549,-252.8503 632.2549,-252.8503 626.2549,-246.8503 626.2549,-240.8503 626.2549,-240.8503 626.2549,-192.8503 626.2549,-192.8503 626.2549,-186.8503 632.2549,-180.8503 638.2549,-180.8503"/>
<text text-anchor="middle" x="672.7549" y="-240.0503" font-family="Times,serif" font-size="11.00" fill="#c0c0c0">Queries</text>
</g>
<g id="clust22" class="cluster">
<title>cluster_\Firesphere\SolrFluent</title>
<path fill="none" stroke="#c0c0c0" d="M836.7549,-616.8503C836.7549,-616.8503 1016.7549,-616.8503 1016.7549,-616.8503 1022.7549,-616.8503 1028.7549,-622.8503 1028.7549,-628.8503 1028.7549,-628.8503 1028.7549,-900.8503 1028.7549,-900.8503 1028.7549,-906.8503 1022.7549,-912.8503 1016.7549,-912.8503 1016.7549,-912.8503 836.7549,-912.8503 836.7549,-912.8503 830.7549,-912.8503 824.7549,-906.8503 824.7549,-900.8503 824.7549,-900.8503 824.7549,-628.8503 824.7549,-628.8503 824.7549,-622.8503 830.7549,-616.8503 836.7549,-616.8503"/>
<text text-anchor="middle" x="926.7549" y="-900.0503" font-family="Times,serif" font-size="11.00" fill="#c0c0c0">SolrFluent</text>
</g>
<g id="clust23" class="cluster">
<title>cluster_\Firesphere\SolrFluent\States</title>
<path fill="none" stroke="#c0c0c0" d="M871.7549,-812.8503C871.7549,-812.8503 981.7549,-812.8503 981.7549,-812.8503 987.7549,-812.8503 993.7549,-818.8503 993.7549,-824.8503 993.7549,-824.8503 993.7549,-872.8503 993.7549,-872.8503 993.7549,-878.8503 987.7549,-884.8503 981.7549,-884.8503 981.7549,-884.8503 871.7549,-884.8503 871.7549,-884.8503 865.7549,-884.8503 859.7549,-878.8503 859.7549,-872.8503 859.7549,-872.8503 859.7549,-824.8503 859.7549,-824.8503 859.7549,-818.8503 865.7549,-812.8503 871.7549,-812.8503"/>
<text text-anchor="middle" x="926.7549" y="-872.0503" font-family="Times,serif" font-size="11.00" fill="#c0c0c0">States</text>
</g>
<g id="clust24" class="cluster">
<title>cluster_\Firesphere\SolrFluent\Extensions</title>
<path fill="none" stroke="#c0c0c0" d="M844.7549,-624.8503C844.7549,-624.8503 1008.7549,-624.8503 1008.7549,-624.8503 1014.7549,-624.8503 1020.7549,-630.8503 1020.7549,-636.8503 1020.7549,-636.8503 1020.7549,-792.8503 1020.7549,-792.8503 1020.7549,-798.8503 1014.7549,-804.8503 1008.7549,-804.8503 1008.7549,-804.8503 844.7549,-804.8503 844.7549,-804.8503 838.7549,-804.8503 832.7549,-798.8503 832.7549,-792.8503 832.7549,-792.8503 832.7549,-636.8503 832.7549,-636.8503 832.7549,-630.8503 838.7549,-624.8503 844.7549,-624.8503"/>
<text text-anchor="middle" x="926.7549" y="-792.0503" font-family="Times,serif" font-size="11.00" fill="#c0c0c0">Extensions</text>
</g>
<g id="clust25" class="cluster">
<title>cluster_\Firesphere\SolrSubsites</title>
<path fill="none" stroke="#c0c0c0" d="M857.2549,-920.8503C857.2549,-920.8503 996.2549,-920.8503 996.2549,-920.8503 1002.2549,-920.8503 1008.2549,-926.8503 1008.2549,-932.8503 1008.2549,-932.8503 1008.2549,-1096.8503 1008.2549,-1096.8503 1008.2549,-1102.8503 1002.2549,-1108.8503 996.2549,-1108.8503 996.2549,-1108.8503 857.2549,-1108.8503 857.2549,-1108.8503 851.2549,-1108.8503 845.2549,-1102.8503 845.2549,-1096.8503 845.2549,-1096.8503 845.2549,-932.8503 845.2549,-932.8503 845.2549,-926.8503 851.2549,-920.8503 857.2549,-920.8503"/>
<text text-anchor="middle" x="926.7549" y="-1096.0503" font-family="Times,serif" font-size="11.00" fill="#c0c0c0">SolrSubsites</text>
</g>
<g id="clust26" class="cluster">
<title>cluster_\Firesphere\SolrSubsites\States</title>
<path fill="none" stroke="#c0c0c0" d="M881.7549,-1008.8503C881.7549,-1008.8503 971.7549,-1008.8503 971.7549,-1008.8503 977.7549,-1008.8503 983.7549,-1014.8503 983.7549,-1020.8503 983.7549,-1020.8503 983.7549,-1068.8503 983.7549,-1068.8503 983.7549,-1074.8503 977.7549,-1080.8503 971.7549,-1080.8503 971.7549,-1080.8503 881.7549,-1080.8503 881.7549,-1080.8503 875.7549,-1080.8503 869.7549,-1074.8503 869.7549,-1068.8503 869.7549,-1068.8503 869.7549,-1020.8503 869.7549,-1020.8503 869.7549,-1014.8503 875.7549,-1008.8503 881.7549,-1008.8503"/>
<text text-anchor="middle" x="926.7549" y="-1068.0503" font-family="Times,serif" font-size="11.00" fill="#c0c0c0">States</text>
</g>
<g id="clust27" class="cluster">
<title>cluster_\Firesphere\SolrSubsites\Extensions</title>
<path fill="none" stroke="#c0c0c0" d="M865.2549,-928.8503C865.2549,-928.8503 988.2549,-928.8503 988.2549,-928.8503 994.2549,-928.8503 1000.2549,-934.8503 1000.2549,-940.8503 1000.2549,-940.8503 1000.2549,-988.8503 1000.2549,-988.8503 1000.2549,-994.8503 994.2549,-1000.8503 988.2549,-1000.8503 988.2549,-1000.8503 865.2549,-1000.8503 865.2549,-1000.8503 859.2549,-1000.8503 853.2549,-994.8503 853.2549,-988.8503 853.2549,-988.8503 853.2549,-940.8503 853.2549,-940.8503 853.2549,-934.8503 859.2549,-928.8503 865.2549,-928.8503"/>
<text text-anchor="middle" x="926.7549" y="-988.0503" font-family="Times,serif" font-size="11.00" fill="#c0c0c0">Extensions</text>
</g>
<g id="clust28" class="cluster">
<title>cluster_\Firesphere\SolrPermissions</title>
<path fill="none" stroke="#c0c0c0" d="M833.2549,-338.8503C833.2549,-338.8503 1020.2549,-338.8503 1020.2549,-338.8503 1026.2549,-338.8503 1032.2549,-344.8503 1032.2549,-350.8503 1032.2549,-350.8503 1032.2549,-596.8503 1032.2549,-596.8503 1032.2549,-602.8503 1026.2549,-608.8503 1020.2549,-608.8503 1020.2549,-608.8503 833.2549,-608.8503 833.2549,-608.8503 827.2549,-608.8503 821.2549,-602.8503 821.2549,-596.8503 821.2549,-596.8503 821.2549,-350.8503 821.2549,-350.8503 821.2549,-344.8503 827.2549,-338.8503 833.2549,-338.8503"/>
<text text-anchor="middle" x="926.7549" y="-596.0503" font-family="Times,serif" font-size="11.00" fill="#c0c0c0">SolrPermissions</text>
</g>
<g id="clust29" class="cluster">
<title>cluster_\Firesphere\SolrPermissions\Extensions</title>
<path fill="none" stroke="#c0c0c0" d="M841.2549,-346.8503C841.2549,-346.8503 1012.2549,-346.8503 1012.2549,-346.8503 1018.2549,-346.8503 1024.2549,-352.8503 1024.2549,-358.8503 1024.2549,-358.8503 1024.2549,-568.8503 1024.2549,-568.8503 1024.2549,-574.8503 1018.2549,-580.8503 1012.2549,-580.8503 1012.2549,-580.8503 841.2549,-580.8503 841.2549,-580.8503 835.2549,-580.8503 829.2549,-574.8503 829.2549,-568.8503 829.2549,-568.8503 829.2549,-358.8503 829.2549,-358.8503 829.2549,-352.8503 835.2549,-346.8503 841.2549,-346.8503"/>
<text text-anchor="middle" x="926.7549" y="-568.0503" font-family="Times,serif" font-size="11.00" fill="#c0c0c0">Extensions</text>
</g>
<g id="clust30" class="cluster">
<title>cluster_\SilverStripe</title>
<path fill="none" stroke="#c0c0c0" d="M861.2549,-3056.8503C861.2549,-3056.8503 992.2549,-3056.8503 992.2549,-3056.8503 998.2549,-3056.8503 1004.2549,-3062.8503 1004.2549,-3068.8503 1004.2549,-3068.8503 1004.2549,-3358.8503 1004.2549,-3358.8503 1004.2549,-3364.8503 998.2549,-3370.8503 992.2549,-3370.8503 992.2549,-3370.8503 861.2549,-3370.8503 861.2549,-3370.8503 855.2549,-3370.8503 849.2549,-3364.8503 849.2549,-3358.8503 849.2549,-3358.8503 849.2549,-3068.8503 849.2549,-3068.8503 849.2549,-3062.8503 855.2549,-3056.8503 861.2549,-3056.8503"/>
<text text-anchor="middle" x="926.7549" y="-3358.0503" font-family="Times,serif" font-size="11.00" fill="#c0c0c0">SilverStripe</text>
</g>
<g id="clust31" class="cluster">
<title>cluster_\SilverStripe\FullTextSearch</title>
<path fill="none" stroke="#c0c0c0" d="M869.2549,-3064.8503C869.2549,-3064.8503 984.2549,-3064.8503 984.2549,-3064.8503 990.2549,-3064.8503 996.2549,-3070.8503 996.2549,-3076.8503 996.2549,-3076.8503 996.2549,-3330.8503 996.2549,-3330.8503 996.2549,-3336.8503 990.2549,-3342.8503 984.2549,-3342.8503 984.2549,-3342.8503 869.2549,-3342.8503 869.2549,-3342.8503 863.2549,-3342.8503 857.2549,-3336.8503 857.2549,-3330.8503 857.2549,-3330.8503 857.2549,-3076.8503 857.2549,-3076.8503 857.2549,-3070.8503 863.2549,-3064.8503 869.2549,-3064.8503"/>
<text text-anchor="middle" x="926.7549" y="-3330.0503" font-family="Times,serif" font-size="11.00" fill="#c0c0c0">FullTextSearch</text>
</g>
<g id="clust32" class="cluster">
<title>cluster_\SilverStripe\FullTextSearch\Solr</title>
<path fill="none" stroke="#c0c0c0" d="M888.7549,-3188.8503C888.7549,-3188.8503 964.7549,-3188.8503 964.7549,-3188.8503 970.7549,-3188.8503 976.7549,-3194.8503 976.7549,-3200.8503 976.7549,-3200.8503 976.7549,-3302.8503 976.7549,-3302.8503 976.7549,-3308.8503 970.7549,-3314.8503 964.7549,-3314.8503 964.7549,-3314.8503 888.7549,-3314.8503 888.7549,-3314.8503 882.7549,-3314.8503 876.7549,-3308.8503 876.7549,-3302.8503 876.7549,-3302.8503 876.7549,-3200.8503 876.7549,-3200.8503 876.7549,-3194.8503 882.7549,-3188.8503 888.7549,-3188.8503"/>
<text text-anchor="middle" x="926.7549" y="-3302.0503" font-family="Times,serif" font-size="11.00" fill="#c0c0c0">Solr</text>
</g>
<g id="clust33" class="cluster">
<title>cluster_\SilverStripe\FullTextSearch\Search</title>
<path fill="none" stroke="#c0c0c0" d="M877.2549,-3072.8503C877.2549,-3072.8503 976.2549,-3072.8503 976.2549,-3072.8503 982.2549,-3072.8503 988.2549,-3078.8503 988.2549,-3084.8503 988.2549,-3084.8503 988.2549,-3168.8503 988.2549,-3168.8503 988.2549,-3174.8503 982.2549,-3180.8503 976.2549,-3180.8503 976.2549,-3180.8503 877.2549,-3180.8503 877.2549,-3180.8503 871.2549,-3180.8503 865.2549,-3174.8503 865.2549,-3168.8503 865.2549,-3168.8503 865.2549,-3084.8503 865.2549,-3084.8503 865.2549,-3078.8503 871.2549,-3072.8503 877.2549,-3072.8503"/>
<text text-anchor="middle" x="926.7549" y="-3168.0503" font-family="Times,serif" font-size="11.00" fill="#c0c0c0">Search</text>
</g>
<g id="clust34" class="cluster">
<title>cluster_\SilverStripe\FullTextSearch\Search\Queries</title>
<path fill="none" stroke="#c0c0c0" d="M885.2549,-3080.8503C885.2549,-3080.8503 968.2549,-3080.8503 968.2549,-3080.8503 974.2549,-3080.8503 980.2549,-3086.8503 980.2549,-3092.8503 980.2549,-3092.8503 980.2549,-3140.8503 980.2549,-3140.8503 980.2549,-3146.8503 974.2549,-3152.8503 968.2549,-3152.8503 968.2549,-3152.8503 885.2549,-3152.8503 885.2549,-3152.8503 879.2549,-3152.8503 873.2549,-3146.8503 873.2549,-3140.8503 873.2549,-3140.8503 873.2549,-3092.8503 873.2549,-3092.8503 873.2549,-3086.8503 879.2549,-3080.8503 885.2549,-3080.8503"/>
<text text-anchor="middle" x="926.7549" y="-3140.0503" font-family="Times,serif" font-size="11.00" fill="#c0c0c0">Queries</text>
</g>
<!-- \\Firesphere\\SolrCompatibility\\Extensions\\SolrCoreServiceExtension -->
<g id="node1" class="node">
<title>\\Firesphere\\SolrCompatibility\\Extensions\\SolrCoreServiceExtension</title>
<polygon fill="none" stroke="#000000" points="1016.2549,-274.8503 837.2549,-274.8503 837.2549,-238.8503 1016.2549,-238.8503 1016.2549,-274.8503"/>
<text text-anchor="middle" x="926.7549" y="-254.0503" font-family="Courier,monospace" font-size="11.00" fill="#000000">SolrCoreServiceExtension</text>
</g>
<!-- \\SilverStripe\\Core\\Extension -->
<g id="node63" class="node">
<title>\\SilverStripe\\Core\\Extension</title>
<ellipse fill="none" stroke="#000000" cx="254.1275" cy="-18.8503" rx="144.0747" ry="18"/>
<text text-anchor="middle" x="254.1275" y="-15.1503" font-family="Times,serif" font-size="14.00" fill="#c0c0c0">\SilverStripe\Core\Extension</text>
</g>
<!-- \\Firesphere\\SolrCompatibility\\Extensions\\SolrCoreServiceExtension&#45;&gt;\\SilverStripe\\Core\\Extension -->
<g id="edge1" class="edge">
<title>\\Firesphere\\SolrCompatibility\\Extensions\\SolrCoreServiceExtension&#45;&gt;\\SilverStripe\\Core\\Extension</title>
<path fill="none" stroke="#000000" d="M837.2275,-241.5514C831.4095,-238.3285 825.9941,-234.4685 821.2549,-229.8503 774.6022,-184.3895 828.6481,-133.5386 781.2549,-88.8503 745.3221,-54.9683 716.6848,-87.4185 672.7549,-64.8503"/>
</g>
<!-- \\Firesphere\\SolrCompatibility\\Extensions\\FulltextSearchExtension -->
<g id="node2" class="node">
<title>\\Firesphere\\SolrCompatibility\\Extensions\\FulltextSearchExtension</title>
<polygon fill="none" stroke="#000000" points="1012.7549,-220.8503 840.7549,-220.8503 840.7549,-184.8503 1012.7549,-184.8503 1012.7549,-220.8503"/>
<text text-anchor="middle" x="926.7549" y="-200.0503" font-family="Courier,monospace" font-size="11.00" fill="#000000">FulltextSearchExtension</text>
</g>
<!-- \\Firesphere\\SolrCompatibility\\Extensions\\FulltextSearchExtension&#45;&gt;\\SilverStripe\\Core\\Extension -->
<g id="edge2" class="edge">
<title>\\Firesphere\\SolrCompatibility\\Extensions\\FulltextSearchExtension&#45;&gt;\\SilverStripe\\Core\\Extension</title>
<path fill="none" stroke="#000000" d="M909.2812,-184.7707C883.6376,-159.3399 833.1975,-113.3767 781.2549,-88.8503 736.5953,-67.7628 716.6848,-87.4185 672.7549,-64.8503"/>
<path fill="none" stroke="#000000" d="M672.7549,-64.8503C585.4855,-20.0173 474.685,-9.5457 388.9993,-9.7313"/>
<polygon fill="none" stroke="#000000" points="388.9177,-6.2317 378.9425,-9.802 388.9669,-13.2315 388.9177,-6.2317"/>
</g>
<!-- \\Firesphere\\SolrSearch\\Indexes\\BaseIndex -->
<g id="node3" class="node">
<title>\\Firesphere\\SolrSearch\\Indexes\\BaseIndex</title>
<polygon fill="none" stroke="#000000" points="714.7549,-2964.8503 630.7549,-2964.8503 630.7549,-2928.8503 714.7549,-2928.8503 714.7549,-2964.8503"/>
<text text-anchor="start" x="638.7549" y="-2950.0503" font-family="Courier,monospace" font-size="11.00" fill="#000000">«abstract»</text>
<text text-anchor="start" x="642.2549" y="-2938.0503" font-family="Courier,monospace" font-size="11.00" fill="#000000">BaseIndex</text>
</g>
<!-- \\Firesphere\\SolrSearch\\Admins\\SearchAdmin -->
<g id="node4" class="node">
<title>\\Firesphere\\SolrSearch\\Admins\\SearchAdmin</title>
<polygon fill="none" stroke="#000000" points="718.2549,-2642.8503 627.2549,-2642.8503 627.2549,-2606.8503 718.2549,-2606.8503 718.2549,-2642.8503"/>
<text text-anchor="middle" x="672.7549" y="-2622.0503" font-family="Courier,monospace" font-size="11.00" fill="#000000">SearchAdmin</text>
</g>
<!-- \\SilverStripe\\Admin\\ModelAdmin -->
<g id="node64" class="node">
<title>\\SilverStripe\\Admin\\ModelAdmin</title>
<ellipse fill="none" stroke="#000000" cx="254.1275" cy="-126.8503" rx="165.1707" ry="18"/>
<text text-anchor="middle" x="254.1275" y="-123.1503" font-family="Times,serif" font-size="14.00" fill="#c0c0c0">\SilverStripe\Admin\ModelAdmin</text>
</g>
<!-- \\Firesphere\\SolrSearch\\Admins\\SearchAdmin&#45;&gt;\\SilverStripe\\Admin\\ModelAdmin -->
<g id="edge5" class="edge">
<title>\\Firesphere\\SolrSearch\\Admins\\SearchAdmin&#45;&gt;\\SilverStripe\\Admin\\ModelAdmin</title>
<path fill="none" stroke="#000000" d="M627.2089,-2622.6162C607.2132,-2619.1361 585.3506,-2611.4227 572.2549,-2594.8503 494.5608,-2496.5295 523.5006,-1593.2325 508.2549,-1468.8503 442.884,-935.5206 294.1349,-294.909 260.8276,-154.7876"/>
<polygon fill="none" stroke="#000000" points="264.1861,-153.7822 258.463,-144.8661 257.3768,-155.4051 264.1861,-153.7822"/>
</g>
<!-- \\Firesphere\\SolrSearch\\Tasks\\SolrIndexTask -->
<g id="node5" class="node">
<title>\\Firesphere\\SolrSearch\\Tasks\\SolrIndexTask</title>
<polygon fill="none" stroke="#000000" points="724.7549,-2884.8503 620.7549,-2884.8503 620.7549,-2848.8503 724.7549,-2848.8503 724.7549,-2884.8503"/>
<text text-anchor="middle" x="672.7549" y="-2864.0503" font-family="Courier,monospace" font-size="11.00" fill="#000000">SolrIndexTask</text>
</g>
<!-- \\SilverStripe\\Dev\\BuildTask -->
<g id="node65" class="node">
<title>\\SilverStripe\\Dev\\BuildTask</title>
<ellipse fill="none" stroke="#000000" cx="254.1275" cy="-3694.8503" rx="139.9756" ry="18"/>
<text text-anchor="middle" x="254.1275" y="-3691.1503" font-family="Times,serif" font-size="14.00" fill="#c0c0c0">\SilverStripe\Dev\BuildTask</text>
</g>
<!-- \\Firesphere\\SolrSearch\\Tasks\\SolrIndexTask&#45;&gt;\\SilverStripe\\Dev\\BuildTask -->
<g id="edge6" class="edge">
<title>\\Firesphere\\SolrSearch\\Tasks\\SolrIndexTask&#45;&gt;\\SilverStripe\\Dev\\BuildTask</title>
<path fill="none" stroke="#000000" d="M620.5892,-2881.0726C602.3728,-2888.6948 583.6499,-2900.0894 572.2549,-2916.8503 478.0852,-3055.3647 625.4507,-3548.187 508.2549,-3667.8503 465.8784,-3711.119 396.4398,-3715.9211 340.8476,-3710.9765"/>
<polygon fill="none" stroke="#000000" points="340.9389,-3707.468 330.6381,-3709.9469 340.2365,-3714.4327 340.9389,-3707.468"/>
</g>
<!-- \\Firesphere\\SolrSearch\\Tasks\\ClearErrorsTask -->
<g id="node6" class="node">
<title>\\Firesphere\\SolrSearch\\Tasks\\ClearErrorsTask</title>
<polygon fill="none" stroke="#000000" points="731.7549,-2830.8503 613.7549,-2830.8503 613.7549,-2794.8503 731.7549,-2794.8503 731.7549,-2830.8503"/>
<text text-anchor="middle" x="672.7549" y="-2810.0503" font-family="Courier,monospace" font-size="11.00" fill="#000000">ClearErrorsTask</text>
</g>
<!-- \\Firesphere\\SolrSearch\\Tasks\\ClearErrorsTask&#45;&gt;\\SilverStripe\\Dev\\BuildTask -->
<g id="edge7" class="edge">
<title>\\Firesphere\\SolrSearch\\Tasks\\ClearErrorsTask&#45;&gt;\\SilverStripe\\Dev\\BuildTask</title>
<path fill="none" stroke="#000000" d="M613.622,-2816.4676C597.9714,-2820.3652 582.5816,-2827.4078 572.2549,-2839.8503 454.3933,-2981.8606 636.8642,-3535.495 508.2549,-3667.8503 465.9035,-3711.4353 396.1198,-3716.1091 340.3841,-3711.0333"/>
<polygon fill="none" stroke="#000000" points="340.4563,-3707.5224 330.1503,-3709.9793 339.739,-3714.4855 340.4563,-3707.5224"/>
</g>
<!-- \\Firesphere\\SolrSearch\\Tasks\\ClearDirtyClassesTask -->
<g id="node7" class="node">
<title>\\Firesphere\\SolrSearch\\Tasks\\ClearDirtyClassesTask</title>
<polygon fill="none" stroke="#000000" points="751.7549,-2776.8503 593.7549,-2776.8503 593.7549,-2740.8503 751.7549,-2740.8503 751.7549,-2776.8503"/>
<text text-anchor="middle" x="672.7549" y="-2756.0503" font-family="Courier,monospace" font-size="11.00" fill="#000000">ClearDirtyClassesTask</text>
</g>
<!-- \\Firesphere\\SolrSearch\\Tasks\\ClearDirtyClassesTask&#45;&gt;\\SilverStripe\\Dev\\BuildTask -->
<g id="edge8" class="edge">
<title>\\Firesphere\\SolrSearch\\Tasks\\ClearDirtyClassesTask&#45;&gt;\\SilverStripe\\Dev\\BuildTask</title>
<path fill="none" stroke="#000000" d="M593.4337,-2769.6334C585.347,-2773.6116 578.0076,-2778.8856 572.2549,-2785.8503 447.1071,-2937.3637 644.8714,-3526.591 508.2549,-3667.8503 465.9336,-3711.6099 395.9754,-3716.2176 340.1634,-3711.0715"/>
<polygon fill="none" stroke="#000000" points="340.2253,-3707.5591 329.9165,-3710.0043 339.5001,-3714.5214 340.2253,-3707.5591"/>
</g>
<!-- \\Firesphere\\SolrSearch\\Tasks\\SolrConfigureTask -->
<g id="node8" class="node">
<title>\\Firesphere\\SolrSearch\\Tasks\\SolrConfigureTask</title>
<polygon fill="none" stroke="#000000" points="738.2549,-2722.8503 607.2549,-2722.8503 607.2549,-2686.8503 738.2549,-2686.8503 738.2549,-2722.8503"/>
<text text-anchor="middle" x="672.7549" y="-2702.0503" font-family="Courier,monospace" font-size="11.00" fill="#000000">SolrConfigureTask</text>
</g>
<!-- \\Firesphere\\SolrSearch\\Tasks\\SolrConfigureTask&#45;&gt;\\SilverStripe\\Dev\\BuildTask -->
<g id="edge9" class="edge">
<title>\\Firesphere\\SolrSearch\\Tasks\\SolrConfigureTask&#45;&gt;\\SilverStripe\\Dev\\BuildTask</title>
<path fill="none" stroke="#000000" d="M607.0231,-2710.2332C593.7048,-2714.3828 581.0917,-2721.1063 572.2549,-2731.8503 439.819,-2892.869 652.8807,-3517.6849 508.2549,-3667.8503 465.9524,-3711.7731 395.8199,-3716.315 339.9351,-3711.1017"/>
<polygon fill="none" stroke="#000000" points="339.9873,-3707.5879 329.6759,-3710.022 339.2546,-3714.5495 339.9873,-3707.5879"/>
</g>
<!-- \\Firesphere\\SolrSearch\\Interfaces\\SiteStateInterface -->
<g id="node9" class="node">
<title>\\Firesphere\\SolrSearch\\Interfaces\\SiteStateInterface</title>
<polygon fill="none" stroke="#000000" points="323.1275,-1516.8503 185.1275,-1516.8503 185.1275,-1480.8503 323.1275,-1480.8503 323.1275,-1516.8503"/>
<text text-anchor="middle" x="254.1275" y="-1496.0503" font-family="Courier,monospace" font-size="11.00" fill="#000000">SiteStateInterface</text>
</g>
<!-- \\Firesphere\\SolrSearch\\Interfaces\\ConfigStore -->
<g id="node10" class="node">
<title>\\Firesphere\\SolrSearch\\Interfaces\\ConfigStore</title>
<polygon fill="none" stroke="#000000" points="299.6275,-1570.8503 208.6275,-1570.8503 208.6275,-1534.8503 299.6275,-1534.8503 299.6275,-1570.8503"/>
<text text-anchor="middle" x="254.1275" y="-1550.0503" font-family="Courier,monospace" font-size="11.00" fill="#000000">ConfigStore</text>
</g>
<!-- \\Firesphere\\SolrSearch\\Results\\SearchResult -->
<g id="node11" class="node">
<title>\\Firesphere\\SolrSearch\\Results\\SearchResult</title>
<polygon fill="none" stroke="#000000" points="721.7549,-2562.8503 623.7549,-2562.8503 623.7549,-2526.8503 721.7549,-2526.8503 721.7549,-2562.8503"/>
<text text-anchor="middle" x="672.7549" y="-2542.0503" font-family="Courier,monospace" font-size="11.00" fill="#000000">SearchResult</text>
</g>
<!-- \\Firesphere\\SolrSearch\\States\\SiteState -->
<g id="node12" class="node">
<title>\\Firesphere\\SolrSearch\\States\\SiteState</title>
<polygon fill="none" stroke="#000000" points="714.7549,-2482.8503 630.7549,-2482.8503 630.7549,-2446.8503 714.7549,-2446.8503 714.7549,-2482.8503"/>
<text text-anchor="start" x="638.7549" y="-2468.0503" font-family="Courier,monospace" font-size="11.00" fill="#000000">«abstract»</text>
<text text-anchor="start" x="642.2549" y="-2456.0503" font-family="Courier,monospace" font-size="11.00" fill="#000000">SiteState</text>
</g>
<!-- \\Firesphere\\SolrSearch\\Extensions\\DataObjectExtension -->
<g id="node13" class="node">
<title>\\Firesphere\\SolrSearch\\Extensions\\DataObjectExtension</title>
<polygon fill="none" stroke="#000000" points="745.2549,-2402.8503 600.2549,-2402.8503 600.2549,-2366.8503 745.2549,-2366.8503 745.2549,-2402.8503"/>
<text text-anchor="middle" x="672.7549" y="-2382.0503" font-family="Courier,monospace" font-size="11.00" fill="#000000">DataObjectExtension</text>
</g>
<!-- \\SilverStripe\\ORM\\DataExtension -->
<g id="node66" class="node">
<title>\\SilverStripe\\ORM\\DataExtension</title>
<ellipse fill="none" stroke="#000000" cx="254.1275" cy="-72.8503" rx="167.8704" ry="18"/>
<text text-anchor="middle" x="254.1275" y="-69.1503" font-family="Times,serif" font-size="14.00" fill="#c0c0c0">\SilverStripe\ORM\DataExtension</text>
</g>
<!-- \\Firesphere\\SolrSearch\\Extensions\\DataObjectExtension&#45;&gt;\\SilverStripe\\ORM\\DataExtension -->
<g id="edge10" class="edge">
<title>\\Firesphere\\SolrSearch\\Extensions\\DataObjectExtension&#45;&gt;\\SilverStripe\\ORM\\DataExtension</title>
<path fill="none" stroke="#000000" d="M600.0492,-2377.3831C589.2839,-2373.1503 579.42,-2366.9253 572.2549,-2357.8503 416.7213,-2160.8602 678.7215,-284.0702 508.2549,-99.8503 467.4051,-55.7048 398.5578,-50.7418 342.8195,-55.8429"/>
<polygon fill="none" stroke="#000000" points="342.1598,-52.3924 332.5742,-56.9053 342.8819,-59.3551 342.1598,-52.3924"/>
</g>
<!-- \\Firesphere\\SolrSearch\\Extensions\\GridFieldExtension -->
<g id="node14" class="node">
<title>\\Firesphere\\SolrSearch\\Extensions\\GridFieldExtension</title>
<polygon fill="none" stroke="#000000" points="741.7549,-2348.8503 603.7549,-2348.8503 603.7549,-2312.8503 741.7549,-2312.8503 741.7549,-2348.8503"/>
<text text-anchor="middle" x="672.7549" y="-2328.0503" font-family="Courier,monospace" font-size="11.00" fill="#000000">GridFieldExtension</text>
</g>
<!-- \\Firesphere\\SolrSearch\\Extensions\\GridFieldExtension&#45;&gt;\\SilverStripe\\Core\\Extension -->
<g id="edge11" class="edge">
<title>\\Firesphere\\SolrSearch\\Extensions\\GridFieldExtension&#45;&gt;\\SilverStripe\\Core\\Extension</title>
<path fill="none" stroke="#000000" d="M603.7454,-2322.658C591.5192,-2318.0781 580.1809,-2311.1788 572.2549,-2300.8503 419.6564,-2101.9978 678.4987,-229.8224 508.2549,-45.8503 466.3246,-.5388 394.8981,3.4924 338.4276,-2.2684"/>
<polygon fill="none" stroke="#000000" points="337.9679,1.202 328.4272,-3.4052 338.7586,-5.7532 337.9679,1.202"/>
</g>
<!-- \\Firesphere\\SolrSearch\\Factories\\QueryComponentFactory -->
<g id="node15" class="node">
<title>\\Firesphere\\SolrSearch\\Factories\\QueryComponentFactory</title>
<polygon fill="none" stroke="#000000" points="751.7549,-2268.8503 593.7549,-2268.8503 593.7549,-2232.8503 751.7549,-2232.8503 751.7549,-2268.8503"/>
<text text-anchor="middle" x="672.7549" y="-2248.0503" font-family="Courier,monospace" font-size="11.00" fill="#000000">QueryComponentFactory</text>
</g>
<!-- \\Firesphere\\SolrSearch\\Factories\\DocumentFactory -->
<g id="node16" class="node">
<title>\\Firesphere\\SolrSearch\\Factories\\DocumentFactory</title>
<polygon fill="none" stroke="#000000" points="731.7549,-2214.8503 613.7549,-2214.8503 613.7549,-2178.8503 731.7549,-2178.8503 731.7549,-2214.8503"/>
<text text-anchor="middle" x="672.7549" y="-2194.0503" font-family="Courier,monospace" font-size="11.00" fill="#000000">DocumentFactory</text>
</g>
<!-- \\Firesphere\\SolrSearch\\Jobs\\ClearDirtyClassesJob -->
<g id="node17" class="node">
<title>\\Firesphere\\SolrSearch\\Jobs\\ClearDirtyClassesJob</title>
<polygon fill="none" stroke="#000000" points="748.7549,-2134.8503 596.7549,-2134.8503 596.7549,-2098.8503 748.7549,-2098.8503 748.7549,-2134.8503"/>
<text text-anchor="middle" x="672.7549" y="-2114.0503" font-family="Courier,monospace" font-size="11.00" fill="#000000">ClearDirtyClassesJob</text>
</g>
<!-- \\Symbiote\\QueuedJobs\\Services\\AbstractQueuedJob -->
<g id="node67" class="node">
<title>\\Symbiote\\QueuedJobs\\Services\\AbstractQueuedJob</title>
<ellipse fill="none" stroke="#000000" cx="254.1275" cy="-3640.8503" rx="254.255" ry="18"/>
<text text-anchor="middle" x="254.1275" y="-3637.1503" font-family="Times,serif" font-size="14.00" fill="#c0c0c0">\Symbiote\QueuedJobs\Services\AbstractQueuedJob</text>
</g>
<!-- \\Firesphere\\SolrSearch\\Jobs\\ClearDirtyClassesJob&#45;&gt;\\Symbiote\\QueuedJobs\\Services\\AbstractQueuedJob -->
<g id="edge12" class="edge">
<title>\\Firesphere\\SolrSearch\\Jobs\\ClearDirtyClassesJob&#45;&gt;\\Symbiote\\QueuedJobs\\Services\\AbstractQueuedJob</title>
<path fill="none" stroke="#000000" d="M611.2731,-2134.8693C596.0673,-2142.3104 581.4991,-2152.6376 572.2549,-2166.8503 484.5074,-2301.7593 618.4919,-3496.599 508.2549,-3613.8503 469.7827,-3654.7705 407.2181,-3661.8231 353.7959,-3658.4969"/>
<polygon fill="none" stroke="#000000" points="353.8237,-3654.9892 343.5897,-3657.7307 353.2996,-3661.9695 353.8237,-3654.9892"/>
</g>
<!-- \\Firesphere\\SolrSearch\\Jobs\\SolrConfigureJob -->
<g id="node18" class="node">
<title>\\Firesphere\\SolrSearch\\Jobs\\SolrConfigureJob</title>
<polygon fill="none" stroke="#000000" points="735.2549,-2080.8503 610.2549,-2080.8503 610.2549,-2044.8503 735.2549,-2044.8503 735.2549,-2080.8503"/>
<text text-anchor="middle" x="672.7549" y="-2060.0503" font-family="Courier,monospace" font-size="11.00" fill="#000000">SolrConfigureJob</text>
</g>
<!-- \\Firesphere\\SolrSearch\\Jobs\\SolrConfigureJob&#45;&gt;\\Symbiote\\QueuedJobs\\Services\\AbstractQueuedJob -->
<g id="edge13" class="edge">
<title>\\Firesphere\\SolrSearch\\Jobs\\SolrConfigureJob&#45;&gt;\\Symbiote\\QueuedJobs\\Services\\AbstractQueuedJob</title>
<path fill="none" stroke="#000000" d="M610.1993,-2067.0662C595.6536,-2071.1078 581.6837,-2078.0743 572.2549,-2089.8503 466.3254,-2222.1503 624.209,-3490.2421 508.2549,-3613.8503 469.757,-3654.8894 407.032,-3661.8925 353.5336,-3658.511"/>
<polygon fill="none" stroke="#000000" points="353.5503,-3655.0023 343.3138,-3657.7342 353.0197,-3661.9822 353.5503,-3655.0023"/>
</g>
<!-- \\Firesphere\\SolrSearch\\Jobs\\SolrIndexJob -->
<g id="node19" class="node">
<title>\\Firesphere\\SolrSearch\\Jobs\\SolrIndexJob</title>
<polygon fill="none" stroke="#000000" points="721.7549,-2026.8503 623.7549,-2026.8503 623.7549,-1990.8503 721.7549,-1990.8503 721.7549,-2026.8503"/>
<text text-anchor="middle" x="672.7549" y="-2006.0503" font-family="Courier,monospace" font-size="11.00" fill="#000000">SolrIndexJob</text>
</g>
<!-- \\Firesphere\\SolrSearch\\Jobs\\SolrIndexJob&#45;&gt;\\Symbiote\\QueuedJobs\\Services\\AbstractQueuedJob -->
<g id="edge14" class="edge">
<title>\\Firesphere\\SolrSearch\\Jobs\\SolrIndexJob&#45;&gt;\\Symbiote\\QueuedJobs\\Services\\AbstractQueuedJob</title>
<path fill="none" stroke="#000000" d="M623.5628,-2010.1194C604.5971,-2013.2913 584.5521,-2020.4692 572.2549,-2035.8503 462.6768,-2172.9086 628.2187,-3485.7838 508.2549,-3613.8503 469.7153,-3654.9931 406.8294,-3661.9462 353.2589,-3658.5132"/>
<polygon fill="none" stroke="#000000" points="353.2653,-3655.0034 343.0263,-3657.7264 352.7285,-3661.9828 353.2653,-3655.0034"/>
</g>
<!-- \\Firesphere\\SolrSearch\\Models\\SearchSynonym -->
<g id="node20" class="node">
<title>\\Firesphere\\SolrSearch\\Models\\SearchSynonym</title>
<polygon fill="none" stroke="#000000" points="724.7549,-1892.8503 620.7549,-1892.8503 620.7549,-1856.8503 724.7549,-1856.8503 724.7549,-1892.8503"/>
<text text-anchor="middle" x="672.7549" y="-1872.0503" font-family="Courier,monospace" font-size="11.00" fill="#000000">SearchSynonym</text>
</g>
<!-- \\SilverStripe\\ORM\\DataObject -->
<g id="node68" class="node">
<title>\\SilverStripe\\ORM\\DataObject</title>
<ellipse fill="none" stroke="#000000" cx="254.1275" cy="-3586.8503" rx="152.9733" ry="18"/>
<text text-anchor="middle" x="254.1275" y="-3583.1503" font-family="Times,serif" font-size="14.00" fill="#c0c0c0">\SilverStripe\ORM\DataObject</text>
</g>
<!-- \\Firesphere\\SolrSearch\\Models\\SearchSynonym&#45;&gt;\\SilverStripe\\ORM\\DataObject -->
<g id="edge15" class="edge">
<title>\\Firesphere\\SolrSearch\\Models\\SearchSynonym&#45;&gt;\\SilverStripe\\ORM\\DataObject</title>
<path fill="none" stroke="#000000" d="M620.6695,-1876.6186C602.5769,-1880.023 583.9173,-1887.2339 572.2549,-1901.8503 457.2711,-2045.9583 634.1593,-3425.1785 508.2549,-3559.8503 466.7517,-3604.2437 396.9085,-3608.8608 340.9341,-3603.5576"/>
<polygon fill="none" stroke="#000000" points="340.9691,-3600.0415 330.6538,-3602.4593 340.2254,-3607.0019 340.9691,-3600.0415"/>
</g>
<!-- \\Firesphere\\SolrSearch\\Models\\SolrLog -->
<g id="node21" class="node">
<title>\\Firesphere\\SolrSearch\\Models\\SolrLog</title>
<polygon fill="none" stroke="#000000" points="704.7549,-1838.8503 640.7549,-1838.8503 640.7549,-1802.8503 704.7549,-1802.8503 704.7549,-1838.8503"/>
<text text-anchor="middle" x="672.7549" y="-1818.0503" font-family="Courier,monospace" font-size="11.00" fill="#000000">SolrLog</text>
</g>
<!-- \\Firesphere\\SolrSearch\\Models\\SolrLog&#45;&gt;\\SilverStripe\\ORM\\DataObject -->
<g id="edge16" class="edge">
<title>\\Firesphere\\SolrSearch\\Models\\SolrLog&#45;&gt;\\SilverStripe\\ORM\\DataObject</title>
<path fill="none" stroke="#000000" d="M640.7088,-1820.1783C617.8278,-1821.5889 588.3559,-1827.6459 572.2549,-1847.8503 453.6221,-1996.7171 638.1693,-3420.7198 508.2549,-3559.8503 466.7787,-3604.2689 396.9336,-3608.8842 340.9516,-3603.574"/>
<polygon fill="none" stroke="#000000" points="340.9854,-3600.0577 330.6699,-3602.4743 340.2409,-3607.018 340.9854,-3600.0577"/>
</g>
<!-- \\SilverStripe\\Security\\PermissionProvider -->
<g id="node69" class="node">
<title>\\SilverStripe\\Security\\PermissionProvider</title>
<ellipse fill="none" stroke="#000000" cx="254.1275" cy="-3532.8503" rx="206.0634" ry="18"/>
<text text-anchor="middle" x="254.1275" y="-3529.1503" font-family="Times,serif" font-size="14.00" fill="#c0c0c0">\SilverStripe\Security\PermissionProvider</text>
</g>
<!-- \\Firesphere\\SolrSearch\\Models\\SolrLog&#45;&gt;\\SilverStripe\\Security\\PermissionProvider -->
<g id="edge17" class="edge">
<title>\\Firesphere\\SolrSearch\\Models\\SolrLog&#45;&gt;\\SilverStripe\\Security\\PermissionProvider</title>
<path fill="none" stroke="#000000" stroke-dasharray="1,5" d="M640.716,-1820.184C617.8386,-1821.5975 588.3682,-1827.6557 572.2549,-1847.8503 457.2711,-1991.9583 634.1593,-3371.1785 508.2549,-3505.8503 468.6058,-3548.2605 403.0922,-3554.3689 348.5151,-3550.2063"/>
<polygon fill="none" stroke="#000000" points="348.7301,-3546.7117 338.4603,-3549.3159 348.1126,-3553.6844 348.7301,-3546.7117"/>
</g>
<!-- \\Firesphere\\SolrSearch\\Models\\DirtyClass -->
<g id="node22" class="node">
<title>\\Firesphere\\SolrSearch\\Models\\DirtyClass</title>
<polygon fill="none" stroke="#000000" points="714.7549,-1946.8503 630.7549,-1946.8503 630.7549,-1910.8503 714.7549,-1910.8503 714.7549,-1946.8503"/>
<text text-anchor="middle" x="672.7549" y="-1926.0503" font-family="Courier,monospace" font-size="11.00" fill="#000000">DirtyClass</text>
</g>
<!-- \\Firesphere\\SolrSearch\\Models\\DirtyClass&#45;&gt;\\SilverStripe\\ORM\\DataObject -->
<g id="edge18" class="edge">
<title>\\Firesphere\\SolrSearch\\Models\\DirtyClass&#45;&gt;\\SilverStripe\\ORM\\DataObject</title>
<path fill="none" stroke="#000000" d="M630.629,-1938.8449C609.3824,-1946.2038 585.3927,-1958.5685 572.2549,-1978.8503 476.6726,-2126.4083 628.4415,-3431.5361 508.2549,-3559.8503 466.71,-3604.2047 396.8697,-3608.8246 340.9071,-3603.5323"/>
<polygon fill="none" stroke="#000000" points="340.9439,-3600.0165 330.6291,-3602.4361 340.2015,-3606.977 340.9439,-3600.0165"/>
</g>
<!-- \\Firesphere\\SolrSearch\\Services\\SolrCoreService -->
<g id="node23" class="node">
<title>\\Firesphere\\SolrSearch\\Services\\SolrCoreService</title>
<polygon fill="none" stroke="#000000" points="731.7549,-1758.8503 613.7549,-1758.8503 613.7549,-1722.8503 731.7549,-1722.8503 731.7549,-1758.8503"/>
<text text-anchor="middle" x="672.7549" y="-1738.0503" font-family="Courier,monospace" font-size="11.00" fill="#000000">SolrCoreService</text>
</g>
<!-- \\Firesphere\\SolrSearch\\Services\\SchemaService -->
<g id="node24" class="node">
<title>\\Firesphere\\SolrSearch\\Services\\SchemaService</title>
<polygon fill="none" stroke="#000000" points="724.7549,-1704.8503 620.7549,-1704.8503 620.7549,-1668.8503 724.7549,-1668.8503 724.7549,-1704.8503"/>
<text text-anchor="middle" x="672.7549" y="-1684.0503" font-family="Courier,monospace" font-size="11.00" fill="#000000">SchemaService</text>
</g>
<!-- \\SilverStripe\\View\\ViewableData -->
<g id="node70" class="node">
<title>\\SilverStripe\\View\\ViewableData</title>
<ellipse fill="none" stroke="#000000" cx="254.1275" cy="-3478.8503" rx="163.2712" ry="18"/>
<text text-anchor="middle" x="254.1275" y="-3475.1503" font-family="Times,serif" font-size="14.00" fill="#c0c0c0">\SilverStripe\View\ViewableData</text>
</g>
<!-- \\Firesphere\\SolrSearch\\Services\\SchemaService&#45;&gt;\\SilverStripe\\View\\ViewableData -->
<g id="edge19" class="edge">
<title>\\Firesphere\\SolrSearch\\Services\\SchemaService&#45;&gt;\\SilverStripe\\View\\ViewableData</title>
<path fill="none" stroke="#000000" d="M620.6557,-1688.6076C602.5614,-1692.0106 583.9043,-1699.2236 572.2549,-1713.8503 451.8651,-1865.0084 640.1001,-3310.5729 508.2549,-3451.8503 467.2185,-3495.8224 398.3822,-3500.7956 342.6956,-3495.7426"/>
<polygon fill="none" stroke="#000000" points="342.766,-3492.2315 332.4603,-3494.6895 342.0496,-3499.1947 342.766,-3492.2315"/>
</g>
<!-- \\Firesphere\\SolrSearch\\Stores\\FileConfigStore -->
<g id="node25" class="node">
<title>\\Firesphere\\SolrSearch\\Stores\\FileConfigStore</title>
<polygon fill="none" stroke="#000000" points="731.7549,-1624.8503 613.7549,-1624.8503 613.7549,-1588.8503 731.7549,-1588.8503 731.7549,-1624.8503"/>
<text text-anchor="middle" x="672.7549" y="-1604.0503" font-family="Courier,monospace" font-size="11.00" fill="#000000">FileConfigStore</text>
</g>
<!-- \\Firesphere\\SolrSearch\\Stores\\FileConfigStore&#45;&gt;\\Firesphere\\SolrSearch\\Interfaces\\ConfigStore -->
<g id="edge20" class="edge">
<title>\\Firesphere\\SolrSearch\\Stores\\FileConfigStore&#45;&gt;\\Firesphere\\SolrSearch\\Interfaces\\ConfigStore</title>
<path fill="none" stroke="#000000" stroke-dasharray="1,5" d="M613.6637,-1599.228C532.8854,-1588.8081 389.0185,-1570.2503 309.9722,-1560.0539"/>
<polygon fill="none" stroke="#000000" points="310.0944,-1556.5407 299.7287,-1558.7326 309.1988,-1563.4832 310.0944,-1556.5407"/>
</g>
<!-- \\Firesphere\\SolrSearch\\Stores\\PostConfigStore -->
<g id="node26" class="node">
<title>\\Firesphere\\SolrSearch\\Stores\\PostConfigStore</title>
<polygon fill="none" stroke="#000000" points="731.7549,-1570.8503 613.7549,-1570.8503 613.7549,-1534.8503 731.7549,-1534.8503 731.7549,-1570.8503"/>
<text text-anchor="middle" x="672.7549" y="-1550.0503" font-family="Courier,monospace" font-size="11.00" fill="#000000">PostConfigStore</text>
</g>
<!-- \\Firesphere\\SolrSearch\\Stores\\PostConfigStore&#45;&gt;\\Firesphere\\SolrSearch\\Interfaces\\ConfigStore -->
<g id="edge21" class="edge">
<title>\\Firesphere\\SolrSearch\\Stores\\PostConfigStore&#45;&gt;\\Firesphere\\SolrSearch\\Interfaces\\ConfigStore</title>
<path fill="none" stroke="#000000" stroke-dasharray="1,5" d="M613.6637,-1552.8503C532.8854,-1552.8503 389.0185,-1552.8503 309.9722,-1552.8503"/>
<polygon fill="none" stroke="#000000" points="309.7288,-1549.3504 299.7287,-1552.8503 309.7287,-1556.3504 309.7288,-1549.3504"/>
</g>
<!-- \\Firesphere\\SolrSearch\\Helpers\\SolrLogger -->
<g id="node27" class="node">
<title>\\Firesphere\\SolrSearch\\Helpers\\SolrLogger</title>
<polygon fill="none" stroke="#000000" points="714.7549,-1490.8503 630.7549,-1490.8503 630.7549,-1454.8503 714.7549,-1454.8503 714.7549,-1490.8503"/>
<text text-anchor="middle" x="672.7549" y="-1470.0503" font-family="Courier,monospace" font-size="11.00" fill="#000000">SolrLogger</text>
</g>
<!-- \\Firesphere\\SolrSearch\\Helpers\\FieldResolver -->
<g id="node28" class="node">
<title>\\Firesphere\\SolrSearch\\Helpers\\FieldResolver</title>
<polygon fill="none" stroke="#000000" points="724.7549,-1436.8503 620.7549,-1436.8503 620.7549,-1400.8503 724.7549,-1400.8503 724.7549,-1436.8503"/>
<text text-anchor="middle" x="672.7549" y="-1416.0503" font-family="Courier,monospace" font-size="11.00" fill="#000000">FieldResolver</text>
</g>
<!-- \\Firesphere\\SolrSearch\\Helpers\\Statics -->
<g id="node29" class="node">
<title>\\Firesphere\\SolrSearch\\Helpers\\Statics</title>
<polygon fill="none" stroke="#000000" points="704.7549,-1382.8503 640.7549,-1382.8503 640.7549,-1346.8503 704.7549,-1346.8503 704.7549,-1382.8503"/>
<text text-anchor="middle" x="672.7549" y="-1362.0503" font-family="Courier,monospace" font-size="11.00" fill="#000000">Statics</text>
</g>
<!-- \\Firesphere\\SolrSearch\\Helpers\\DataResolver -->
<g id="node30" class="node">
<title>\\Firesphere\\SolrSearch\\Helpers\\DataResolver</title>
<polygon fill="none" stroke="#000000" points="721.7549,-1328.8503 623.7549,-1328.8503 623.7549,-1292.8503 721.7549,-1292.8503 721.7549,-1328.8503"/>
<text text-anchor="middle" x="672.7549" y="-1308.0503" font-family="Courier,monospace" font-size="11.00" fill="#000000">DataResolver</text>
</g>
<!-- \\Firesphere\\SolrSearch\\Helpers\\Synonyms -->
<g id="node31" class="node">
<title>\\Firesphere\\SolrSearch\\Helpers\\Synonyms</title>
<polygon fill="none" stroke="#000000" points="708.2549,-1274.8503 637.2549,-1274.8503 637.2549,-1238.8503 708.2549,-1238.8503 708.2549,-1274.8503"/>
<text text-anchor="middle" x="672.7549" y="-1254.0503" font-family="Courier,monospace" font-size="11.00" fill="#000000">Synonyms</text>
</g>
<!-- \\Firesphere\\SolrSearch\\Traits\\QueryComponentFilterTrait -->
<g id="node32" class="node">
<title>\\Firesphere\\SolrSearch\\Traits\\QueryComponentFilterTrait</title>
<polygon fill="none" stroke="#000000" points="765.2549,-1194.8503 580.2549,-1194.8503 580.2549,-1158.8503 765.2549,-1158.8503 765.2549,-1194.8503"/>
<text text-anchor="middle" x="672.7549" y="-1174.0503" font-family="Courier,monospace" font-size="11.00" fill="#000000">QueryComponentFilterTrait</text>
</g>
<!-- \\Firesphere\\SolrSearch\\Traits\\QueryComponentFacetTrait -->
<g id="node33" class="node">
<title>\\Firesphere\\SolrSearch\\Traits\\QueryComponentFacetTrait</title>
<polygon fill="none" stroke="#000000" points="762.2549,-1140.8503 583.2549,-1140.8503 583.2549,-1104.8503 762.2549,-1104.8503 762.2549,-1140.8503"/>
<text text-anchor="middle" x="672.7549" y="-1120.0503" font-family="Courier,monospace" font-size="11.00" fill="#000000">QueryComponentFacetTrait</text>
</g>
<!-- \\Firesphere\\SolrSearch\\Traits\\QueryComponentBoostTrait -->
<g id="node34" class="node">
<title>\\Firesphere\\SolrSearch\\Traits\\QueryComponentBoostTrait</title>
<polygon fill="none" stroke="#000000" points="762.2549,-1086.8503 583.2549,-1086.8503 583.2549,-1050.8503 762.2549,-1050.8503 762.2549,-1086.8503"/>
<text text-anchor="middle" x="672.7549" y="-1066.0503" font-family="Courier,monospace" font-size="11.00" fill="#000000">QueryComponentBoostTrait</text>
</g>
<!-- \\Firesphere\\SolrSearch\\Traits\\DocumentFactoryTrait -->
<g id="node35" class="node">
<title>\\Firesphere\\SolrSearch\\Traits\\DocumentFactoryTrait</title>
<polygon fill="none" stroke="#000000" points="748.7549,-1032.8503 596.7549,-1032.8503 596.7549,-996.8503 748.7549,-996.8503 748.7549,-1032.8503"/>
<text text-anchor="middle" x="672.7549" y="-1012.0503" font-family="Courier,monospace" font-size="11.00" fill="#000000">DocumentFactoryTrait</text>
</g>
<!-- \\Firesphere\\SolrSearch\\Traits\\SearchResultGetTrait -->
<g id="node36" class="node">
<title>\\Firesphere\\SolrSearch\\Traits\\SearchResultGetTrait</title>
<polygon fill="none" stroke="#000000" points="748.7549,-978.8503 596.7549,-978.8503 596.7549,-942.8503 748.7549,-942.8503 748.7549,-978.8503"/>
<text text-anchor="middle" x="672.7549" y="-958.0503" font-family="Courier,monospace" font-size="11.00" fill="#000000">SearchResultGetTrait</text>
</g>
<!-- \\Firesphere\\SolrSearch\\Traits\\SearchResultSetTrait -->
<g id="node37" class="node">
<title>\\Firesphere\\SolrSearch\\Traits\\SearchResultSetTrait</title>
<polygon fill="none" stroke="#000000" points="748.7549,-924.8503 596.7549,-924.8503 596.7549,-888.8503 748.7549,-888.8503 748.7549,-924.8503"/>
<text text-anchor="middle" x="672.7549" y="-904.0503" font-family="Courier,monospace" font-size="11.00" fill="#000000">SearchResultSetTrait</text>
</g>
<!-- \\Firesphere\\SolrSearch\\Traits\\CoreAdminTrait -->
<g id="node38" class="node">
<title>\\Firesphere\\SolrSearch\\Traits\\CoreAdminTrait</title>
<polygon fill="none" stroke="#000000" points="728.2549,-870.8503 617.2549,-870.8503 617.2549,-834.8503 728.2549,-834.8503 728.2549,-870.8503"/>
<text text-anchor="middle" x="672.7549" y="-850.0503" font-family="Courier,monospace" font-size="11.00" fill="#000000">CoreAdminTrait</text>
</g>
<!-- \\Firesphere\\SolrSearch\\Traits\\CoreServiceTrait -->
<g id="node39" class="node">
<title>\\Firesphere\\SolrSearch\\Traits\\CoreServiceTrait</title>
<polygon fill="none" stroke="#000000" points="735.2549,-816.8503 610.2549,-816.8503 610.2549,-780.8503 735.2549,-780.8503 735.2549,-816.8503"/>
<text text-anchor="middle" x="672.7549" y="-796.0503" font-family="Courier,monospace" font-size="11.00" fill="#000000">CoreServiceTrait</text>
</g>
<!-- \\Firesphere\\SolrSearch\\Traits\\GetSetSchemaServiceTrait -->
<g id="node40" class="node">
<title>\\Firesphere\\SolrSearch\\Traits\\GetSetSchemaServiceTrait</title>
<polygon fill="none" stroke="#000000" points="762.2549,-762.8503 583.2549,-762.8503 583.2549,-726.8503 762.2549,-726.8503 762.2549,-762.8503"/>
<text text-anchor="middle" x="672.7549" y="-742.0503" font-family="Courier,monospace" font-size="11.00" fill="#000000">GetSetSchemaServiceTrait</text>
</g>
<!-- \\Firesphere\\SolrSearch\\Traits\\LoggerTrait -->
<g id="node41" class="node">
<title>\\Firesphere\\SolrSearch\\Traits\\LoggerTrait</title>
<polygon fill="none" stroke="#000000" points="718.2549,-708.8503 627.2549,-708.8503 627.2549,-672.8503 718.2549,-672.8503 718.2549,-708.8503"/>
<text text-anchor="middle" x="672.7549" y="-688.0503" font-family="Courier,monospace" font-size="11.00" fill="#000000">LoggerTrait</text>
</g>
<!-- \\Firesphere\\SolrSearch\\Traits\\DataResolveTrait -->
<g id="node42" class="node">
<title>\\Firesphere\\SolrSearch\\Traits\\DataResolveTrait</title>
<polygon fill="none" stroke="#000000" points="735.2549,-654.8503 610.2549,-654.8503 610.2549,-618.8503 735.2549,-618.8503 735.2549,-654.8503"/>
<text text-anchor="middle" x="672.7549" y="-634.0503" font-family="Courier,monospace" font-size="11.00" fill="#000000">DataResolveTrait</text>
</g>
<!-- \\Firesphere\\SolrSearch\\Traits\\GetterSetterTrait -->
<g id="node43" class="node">
<title>\\Firesphere\\SolrSearch\\Traits\\GetterSetterTrait</title>
<polygon fill="none" stroke="#000000" points="738.2549,-600.8503 607.2549,-600.8503 607.2549,-564.8503 738.2549,-564.8503 738.2549,-600.8503"/>
<text text-anchor="middle" x="672.7549" y="-580.0503" font-family="Courier,monospace" font-size="11.00" fill="#000000">GetterSetterTrait</text>
</g>
<!-- \\Firesphere\\SolrSearch\\Traits\\SolrIndexTrait -->
<g id="node44" class="node">
<title>\\Firesphere\\SolrSearch\\Traits\\SolrIndexTrait</title>
<polygon fill="none" stroke="#000000" points="728.2549,-546.8503 617.2549,-546.8503 617.2549,-510.8503 728.2549,-510.8503 728.2549,-546.8503"/>
<text text-anchor="middle" x="672.7549" y="-526.0503" font-family="Courier,monospace" font-size="11.00" fill="#000000">SolrIndexTrait</text>
</g>
<!-- \\Firesphere\\SolrSearch\\Traits\\BaseIndexTrait -->
<g id="node45" class="node">
<title>\\Firesphere\\SolrSearch\\Traits\\BaseIndexTrait</title>
<polygon fill="none" stroke="#000000" points="728.2549,-492.8503 617.2549,-492.8503 617.2549,-456.8503 728.2549,-456.8503 728.2549,-492.8503"/>
<text text-anchor="middle" x="672.7549" y="-472.0503" font-family="Courier,monospace" font-size="11.00" fill="#000000">BaseIndexTrait</text>
</g>
<!-- \\Firesphere\\SolrSearch\\Traits\\GetSetSearchResolverTrait -->
<g id="node46" class="node">
<title>\\Firesphere\\SolrSearch\\Traits\\GetSetSearchResolverTrait</title>
<polygon fill="none" stroke="#000000" points="765.2549,-438.8503 580.2549,-438.8503 580.2549,-402.8503 765.2549,-402.8503 765.2549,-438.8503"/>
<text text-anchor="middle" x="672.7549" y="-418.0503" font-family="Courier,monospace" font-size="11.00" fill="#000000">GetSetSearchResolverTrait</text>
</g>
<!-- \\Firesphere\\SolrSearch\\Traits\\BaseQueryTrait -->
<g id="node47" class="node">
<title>\\Firesphere\\SolrSearch\\Traits\\BaseQueryTrait</title>
<polygon fill="none" stroke="#000000" points="728.2549,-384.8503 617.2549,-384.8503 617.2549,-348.8503 728.2549,-348.8503 728.2549,-384.8503"/>
<text text-anchor="middle" x="672.7549" y="-364.0503" font-family="Courier,monospace" font-size="11.00" fill="#000000">BaseQueryTrait</text>
</g>
<!-- \\Firesphere\\SolrSearch\\Forms\\SearchForm -->
<g id="node48" class="node">
<title>\\Firesphere\\SolrSearch\\Forms\\SearchForm</title>
<polygon fill="none" stroke="#000000" points="714.7549,-304.8503 630.7549,-304.8503 630.7549,-268.8503 714.7549,-268.8503 714.7549,-304.8503"/>
<text text-anchor="middle" x="672.7549" y="-284.0503" font-family="Courier,monospace" font-size="11.00" fill="#000000">SearchForm</text>
</g>
<!-- \\SilverStripe\\Forms\\Form -->
<g id="node71" class="node">
<title>\\SilverStripe\\Forms\\Form</title>
<ellipse fill="none" stroke="#000000" cx="254.1275" cy="-3424.8503" rx="129.1772" ry="18"/>
<text text-anchor="middle" x="254.1275" y="-3421.1503" font-family="Times,serif" font-size="14.00" fill="#c0c0c0">\SilverStripe\Forms\Form</text>
</g>
<!-- \\Firesphere\\SolrSearch\\Forms\\SearchForm&#45;&gt;\\SilverStripe\\Forms\\Form -->
<g id="edge22" class="edge">
<title>\\Firesphere\\SolrSearch\\Forms\\SearchForm&#45;&gt;\\SilverStripe\\Forms\\Form</title>
<path fill="none" stroke="#000000" d="M630.7101,-296.8978C609.4874,-304.2721 585.4944,-316.6348 572.2549,-336.8503 495.0883,-454.6765 521.5516,-1462.6331 508.2549,-1602.8503 438.7,-2336.3251 288.1459,-3227.3859 259.0505,-3396.4414"/>
<polygon fill="none" stroke="#000000" points="255.5623,-3396.0739 257.3119,-3406.5233 262.4605,-3397.2636 255.5623,-3396.0739"/>
</g>
<!-- \\Firesphere\\SolrSearch\\Queries\\BaseQuery -->
<g id="node49" class="node">
<title>\\Firesphere\\SolrSearch\\Queries\\BaseQuery</title>
<polygon fill="none" stroke="#000000" points="711.2549,-224.8503 634.2549,-224.8503 634.2549,-188.8503 711.2549,-188.8503 711.2549,-224.8503"/>
<text text-anchor="middle" x="672.7549" y="-204.0503" font-family="Courier,monospace" font-size="11.00" fill="#000000">BaseQuery</text>
</g>
<!-- \\Firesphere\\SolrFluent\\States\\FluentSiteState -->
<g id="node50" class="node">
<title>\\Firesphere\\SolrFluent\\States\\FluentSiteState</title>
<polygon fill="none" stroke="#000000" points="985.7549,-856.8503 867.7549,-856.8503 867.7549,-820.8503 985.7549,-820.8503 985.7549,-856.8503"/>
<text text-anchor="middle" x="926.7549" y="-836.0503" font-family="Courier,monospace" font-size="11.00" fill="#000000">FluentSiteState</text>
</g>
<!-- \\Firesphere\\SolrFluent\\States\\FluentSiteState&#45;&gt;\\Firesphere\\SolrSearch\\Interfaces\\SiteStateInterface -->
<g id="edge24" class="edge">
<title>\\Firesphere\\SolrFluent\\States\\FluentSiteState&#45;&gt;\\Firesphere\\SolrSearch\\Interfaces\\SiteStateInterface</title>
<path fill="none" stroke="#000000" stroke-dasharray="1,5" d="M867.5291,-834.8892C850.0639,-830.6961 832.6083,-822.9339 821.2549,-808.8503 732.9344,-699.2915 880.7021,-276.4189 781.2549,-176.8503 747.1066,-142.6603 721.0761,-169.4967 672.7549,-169.8503"/>
<path fill="none" stroke="#000000" stroke-dasharray="1,5" d="M672.7549,-169.8503C627.9812,-170.178 606.4402,-147.934 572.2549,-176.8503 363.2778,-353.6181 271.8623,-1294.8991 256.4995,-1470.5958"/>
<polygon fill="none" stroke="#000000" points="253.0081,-1470.3465 255.6342,-1480.6107 259.9821,-1470.9491 253.0081,-1470.3465"/>
</g>
<!-- \\Firesphere\\SolrFluent\\States\\FluentSiteState&#45;&gt;\\Firesphere\\SolrSearch\\States\\SiteState -->
<g id="edge23" class="edge">
<title>\\Firesphere\\SolrFluent\\States\\FluentSiteState&#45;&gt;\\Firesphere\\SolrSearch\\States\\SiteState</title>
<path fill="none" stroke="#000000" d="M891.4275,-856.9072C866.8934,-871.5675 836.0518,-894.7338 821.2549,-924.8503 784.2494,-1000.1688 832.9556,-2368.7495 781.2549,-2434.8503 767.9069,-2451.9161 745.7727,-2459.8273 724.9651,-2463.3122"/>
<polygon fill="none" stroke="#000000" points="724.335,-2459.8657 714.9013,-2464.6881 725.2833,-2466.8011 724.335,-2459.8657"/>
</g>
<!-- \\Firesphere\\SolrFluent\\Extensions\\FluentIndexExtension -->
<g id="node51" class="node">
<title>\\Firesphere\\SolrFluent\\Extensions\\FluentIndexExtension</title>
<polygon fill="none" stroke="#000000" points="1002.7549,-668.8503 850.7549,-668.8503 850.7549,-632.8503 1002.7549,-632.8503 1002.7549,-668.8503"/>
<text text-anchor="middle" x="926.7549" y="-648.0503" font-family="Courier,monospace" font-size="11.00" fill="#000000">FluentIndexExtension</text>
</g>
<!-- \\Firesphere\\SolrFluent\\Extensions\\FluentIndexExtension&#45;&gt;\\SilverStripe\\Core\\Extension -->
<g id="edge25" class="edge">
<title>\\Firesphere\\SolrFluent\\Extensions\\FluentIndexExtension&#45;&gt;\\SilverStripe\\Core\\Extension</title>
<path fill="none" stroke="#000000" d="M879.2438,-632.7632C857.9161,-622.1231 834.5963,-606.4475 821.2549,-584.8503 771.9816,-505.0865 843.3593,-235.0868 781.2549,-164.8503 748.54,-127.8517 709.4057,-173.9544 672.7549,-140.8503"/>
<path fill="none" stroke="#000000" d="M672.7549,-140.8503C657.0915,-126.7027 528.3246,-52.3852 508.2549,-45.8503 475.4252,-35.1607 439.0725,-28.475 404.3721,-24.3468"/>
<polygon fill="none" stroke="#000000" points="404.4777,-20.8367 394.1493,-23.1976 403.6957,-27.7929 404.4777,-20.8367"/>
</g>
<!-- \\Firesphere\\SolrFluent\\Extensions\\FluentDocumentExtension -->
<g id="node52" class="node">
<title>\\Firesphere\\SolrFluent\\Extensions\\FluentDocumentExtension</title>
<polygon fill="none" stroke="#000000" points="1012.7549,-776.8503 840.7549,-776.8503 840.7549,-740.8503 1012.7549,-740.8503 1012.7549,-776.8503"/>
<text text-anchor="middle" x="926.7549" y="-756.0503" font-family="Courier,monospace" font-size="11.00" fill="#000000">FluentDocumentExtension</text>
</g>
<!-- \\Firesphere\\SolrFluent\\Extensions\\FluentDocumentExtension&#45;&gt;\\SilverStripe\\Core\\Extension -->
<g id="edge26" class="edge">
<title>\\Firesphere\\SolrFluent\\Extensions\\FluentDocumentExtension&#45;&gt;\\SilverStripe\\Core\\Extension</title>
<path fill="none" stroke="#000000" d="M840.747,-747.2423C833.3488,-743.3404 826.6449,-738.3104 821.2549,-731.8503 740.3328,-634.8625 863.7592,-260.4958 781.2549,-164.8503 748.9961,-127.4534 709.4057,-173.9544 672.7549,-140.8503"/>
</g>
<!-- \\Firesphere\\SolrFluent\\Extensions\\FluentSchemaExtension -->
<g id="node53" class="node">
<title>\\Firesphere\\SolrFluent\\Extensions\\FluentSchemaExtension</title>
<polygon fill="none" stroke="#000000" points="1005.7549,-722.8503 847.7549,-722.8503 847.7549,-686.8503 1005.7549,-686.8503 1005.7549,-722.8503"/>
<text text-anchor="middle" x="926.7549" y="-702.0503" font-family="Courier,monospace" font-size="11.00" fill="#000000">FluentSchemaExtension</text>
</g>
<!-- \\Firesphere\\SolrFluent\\Extensions\\FluentSchemaExtension&#45;&gt;\\SilverStripe\\Core\\Extension -->
<g id="edge27" class="edge">
<title>\\Firesphere\\SolrFluent\\Extensions\\FluentSchemaExtension&#45;&gt;\\SilverStripe\\Core\\Extension</title>
<path fill="none" stroke="#000000" d="M847.7103,-696.4438C837.5852,-692.2204 828.311,-686.2441 821.2549,-677.8503 747.6758,-590.3224 856.2618,-251.1578 781.2549,-164.8503 748.8582,-127.5728 709.4057,-173.9544 672.7549,-140.8503"/>
</g>
<!-- \\Firesphere\\SolrSubsites\\States\\SubsiteState -->
<g id="node54" class="node">
<title>\\Firesphere\\SolrSubsites\\States\\SubsiteState</title>
<polygon fill="none" stroke="#000000" points="975.7549,-1052.8503 877.7549,-1052.8503 877.7549,-1016.8503 975.7549,-1016.8503 975.7549,-1052.8503"/>
<text text-anchor="middle" x="926.7549" y="-1032.0503" font-family="Courier,monospace" font-size="11.00" fill="#000000">SubsiteState</text>
</g>
<!-- \\Firesphere\\SolrSubsites\\States\\SubsiteState&#45;&gt;\\Firesphere\\SolrSearch\\Interfaces\\SiteStateInterface -->
<g id="edge29" class="edge">
<title>\\Firesphere\\SolrSubsites\\States\\SubsiteState&#45;&gt;\\Firesphere\\SolrSearch\\Interfaces\\SiteStateInterface</title>
<path fill="none" stroke="#000000" stroke-dasharray="1,5" d="M877.5714,-1033.0468C856.9534,-1029.5919 834.6932,-1021.7773 821.2549,-1004.8503 763.9847,-932.7125 845.8564,-242.504 781.2549,-176.8503 747.3629,-142.4063 721.0761,-169.4967 672.7549,-169.8503"/>
</g>
<!-- \\Firesphere\\SolrSubsites\\States\\SubsiteState&#45;&gt;\\Firesphere\\SolrSearch\\States\\SiteState -->
<g id="edge28" class="edge">
<title>\\Firesphere\\SolrSubsites\\States\\SubsiteState&#45;&gt;\\Firesphere\\SolrSearch\\States\\SiteState</title>
<path fill="none" stroke="#000000" d="M926.0911,-1052.995C920.2212,-1209.1959 875.1775,-2323.8601 781.2549,-2434.8503 767.3678,-2451.261 745.3824,-2459.1077 724.8222,-2462.7201"/>
<polygon fill="none" stroke="#000000" points="724.274,-2459.263 714.8853,-2464.1724 725.2863,-2466.1894 724.274,-2459.263"/>
</g>
<!-- \\Firesphere\\SolrSubsites\\Extensions\\SubsitesExtension -->
<g id="node55" class="node">
<title>\\Firesphere\\SolrSubsites\\Extensions\\SubsitesExtension</title>
<polygon fill="none" stroke="#000000" points="992.2549,-972.8503 861.2549,-972.8503 861.2549,-936.8503 992.2549,-936.8503 992.2549,-972.8503"/>
<text text-anchor="middle" x="926.7549" y="-952.0503" font-family="Courier,monospace" font-size="11.00" fill="#000000">SubsitesExtension</text>
</g>
<!-- \\Firesphere\\SolrSubsites\\Extensions\\SubsitesExtension&#45;&gt;\\SilverStripe\\Core\\Extension -->
<g id="edge30" class="edge">
<title>\\Firesphere\\SolrSubsites\\Extensions\\SubsitesExtension&#45;&gt;\\SilverStripe\\Core\\Extension</title>
<path fill="none" stroke="#000000" d="M878.3173,-936.7209C857.0531,-926.1379 834.0545,-910.5224 821.2549,-888.8503 739.3126,-750.107 885.5707,-287.661 781.2549,-164.8503 749.282,-127.2087 709.4057,-173.9544 672.7549,-140.8503"/>
</g>
<!-- \\Firesphere\\SolrPermissions\\Extensions\\SchemaServiceExtension -->
<g id="node56" class="node">
<title>\\Firesphere\\SolrPermissions\\Extensions\\SchemaServiceExtension</title>
<polygon fill="none" stroke="#000000" points="1009.2549,-390.8503 844.2549,-390.8503 844.2549,-354.8503 1009.2549,-354.8503 1009.2549,-390.8503"/>
<text text-anchor="middle" x="926.7549" y="-370.0503" font-family="Courier,monospace" font-size="11.00" fill="#000000">SchemaServiceExtension</text>
</g>
<!-- \\Firesphere\\SolrPermissions\\Extensions\\SchemaServiceExtension&#45;&gt;\\SilverStripe\\Core\\Extension -->
<g id="edge31" class="edge">
<title>\\Firesphere\\SolrPermissions\\Extensions\\SchemaServiceExtension&#45;&gt;\\SilverStripe\\Core\\Extension</title>
<path fill="none" stroke="#000000" d="M881.1304,-354.7842C859.7122,-344.0074 835.7606,-328.2078 821.2549,-306.8503 765.9092,-225.3619 849.6364,-159.755 781.2549,-88.8503 746.9706,-53.3011 716.6848,-87.4185 672.7549,-64.8503"/>
</g>
<!-- \\Firesphere\\SolrPermissions\\Extensions\\DataObjectExtension -->
<g id="node57" class="node">
<title>\\Firesphere\\SolrPermissions\\Extensions\\DataObjectExtension</title>
<polygon fill="none" stroke="#000000" points="999.2549,-552.8503 854.2549,-552.8503 854.2549,-516.8503 999.2549,-516.8503 999.2549,-552.8503"/>
<text text-anchor="middle" x="926.7549" y="-532.0503" font-family="Courier,monospace" font-size="11.00" fill="#000000">DataObjectExtension</text>
</g>
<!-- \\Firesphere\\SolrPermissions\\Extensions\\DataObjectExtension&#45;&gt;\\SilverStripe\\ORM\\DataExtension -->
<g id="edge32" class="edge">
<title>\\Firesphere\\SolrPermissions\\Extensions\\DataObjectExtension&#45;&gt;\\SilverStripe\\ORM\\DataExtension</title>
<path fill="none" stroke="#000000" d="M854.1266,-528.4938C841.6284,-524.2568 829.9011,-517.7448 821.2549,-507.8503 720.2653,-392.2802 883.2119,-279.5679 781.2549,-164.8503 734.3687,-112.096 557.436,-89.5546 421.3514,-79.9458"/>
<polygon fill="none" stroke="#000000" points="421.4309,-76.4431 411.2143,-79.2485 420.9505,-83.4266 421.4309,-76.4431"/>
</g>
<!-- \\Firesphere\\SolrPermissions\\Extensions\\BaseIndexExtension -->
<g id="node58" class="node">
<title>\\Firesphere\\SolrPermissions\\Extensions\\BaseIndexExtension</title>
<polygon fill="none" stroke="#000000" points="995.7549,-498.8503 857.7549,-498.8503 857.7549,-462.8503 995.7549,-462.8503 995.7549,-498.8503"/>
<text text-anchor="middle" x="926.7549" y="-478.0503" font-family="Courier,monospace" font-size="11.00" fill="#000000">BaseIndexExtension</text>
</g>
<!-- \\Firesphere\\SolrPermissions\\Extensions\\BaseIndexExtension&#45;&gt;\\SilverStripe\\Core\\Extension -->
<g id="edge33" class="edge">
<title>\\Firesphere\\SolrPermissions\\Extensions\\BaseIndexExtension&#45;&gt;\\SilverStripe\\Core\\Extension</title>
<path fill="none" stroke="#000000" d="M857.6055,-475.664C843.8052,-471.4834 830.6786,-464.6972 821.2549,-453.8503 715.3842,-331.9903 887.0032,-214.8166 781.2549,-92.8503 748.6302,-55.2222 717.0533,-87.6078 672.7549,-64.8503"/>
</g>
<!-- \\Firesphere\\SolrPermissions\\Extensions\\DocumentFactoryExtension -->
<g id="node59" class="node">
<title>\\Firesphere\\SolrPermissions\\Extensions\\DocumentFactoryExtension</title>
<polygon fill="none" stroke="#000000" points="1016.2549,-444.8503 837.2549,-444.8503 837.2549,-408.8503 1016.2549,-408.8503 1016.2549,-444.8503"/>
<text text-anchor="middle" x="926.7549" y="-424.0503" font-family="Courier,monospace" font-size="11.00" fill="#000000">DocumentFactoryExtension</text>
</g>
<!-- \\Firesphere\\SolrPermissions\\Extensions\\DocumentFactoryExtension&#45;&gt;\\SilverStripe\\Core\\Extension -->
<g id="edge34" class="edge">
<title>\\Firesphere\\SolrPermissions\\Extensions\\DocumentFactoryExtension&#45;&gt;\\SilverStripe\\Core\\Extension</title>
<path fill="none" stroke="#000000" d="M836.9166,-412.5983C831.0907,-409.1475 825.7637,-404.9489 821.2549,-399.8503 728.9356,-295.4541 875.2766,-191.716 781.2549,-88.8503 747.9347,-52.3959 716.6848,-87.4185 672.7549,-64.8503"/>
</g>
<!-- \\SilverStripe\\FullTextSearch\\Solr\\Solr -->
<g id="node60" class="node">
<title>\\SilverStripe\\FullTextSearch\\Solr\\Solr</title>
<polygon fill="none" stroke="#000000" points="953.7549,-3286.8503 899.7549,-3286.8503 899.7549,-3250.8503 953.7549,-3250.8503 953.7549,-3286.8503"/>
<text text-anchor="middle" x="926.7549" y="-3266.0503" font-family="Courier,monospace" font-size="11.00" fill="#000000">Solr</text>
</g>
<!-- \\SilverStripe\\FullTextSearch\\Solr\\SolrIndex -->
<g id="node61" class="node">
<title>\\SilverStripe\\FullTextSearch\\Solr\\SolrIndex</title>
<polygon fill="none" stroke="#000000" points="968.7549,-3232.8503 884.7549,-3232.8503 884.7549,-3196.8503 968.7549,-3196.8503 968.7549,-3232.8503"/>
<text text-anchor="start" x="892.7549" y="-3218.0503" font-family="Courier,monospace" font-size="11.00" fill="#000000">«abstract»</text>
<text text-anchor="start" x="896.2549" y="-3206.0503" font-family="Courier,monospace" font-size="11.00" fill="#000000">SolrIndex</text>
</g>
<!-- \\SilverStripe\\FullTextSearch\\Solr\\SolrIndex&#45;&gt;\\Firesphere\\SolrSearch\\Indexes\\BaseIndex -->
<g id="edge4" class="edge">
<title>\\SilverStripe\\FullTextSearch\\Solr\\SolrIndex&#45;&gt;\\Firesphere\\SolrSearch\\Indexes\\BaseIndex</title>
<path fill="none" stroke="#000000" d="M884.6475,-3197.1563C864.1098,-3187.2308 839.8843,-3173.4878 821.2549,-3156.8503 759.7935,-3101.9606 709.7748,-3017.0801 686.6401,-2973.9716"/>
<polygon fill="none" stroke="#000000" points="689.6305,-2972.1395 681.8591,-2964.9385 683.4437,-2975.4142 689.6305,-2972.1395"/>
</g>
<!-- \\SilverStripe\\FullTextSearch\\Search\\Queries\\SearchQuery -->
<g id="node62" class="node">
<title>\\SilverStripe\\FullTextSearch\\Search\\Queries\\SearchQuery</title>
<polygon fill="none" stroke="#000000" points="972.2549,-3124.8503 881.2549,-3124.8503 881.2549,-3088.8503 972.2549,-3088.8503 972.2549,-3124.8503"/>
<text text-anchor="middle" x="926.7549" y="-3104.0503" font-family="Courier,monospace" font-size="11.00" fill="#000000">SearchQuery</text>
</g>
<!-- \\SilverStripe\\FullTextSearch\\Search\\Queries\\SearchQuery&#45;&gt;\\Firesphere\\SolrSearch\\Queries\\BaseQuery -->
<g id="edge3" class="edge">
<title>\\SilverStripe\\FullTextSearch\\Search\\Queries\\SearchQuery&#45;&gt;\\Firesphere\\SolrSearch\\Queries\\BaseQuery</title>
<path fill="none" stroke="#000000" d="M925.7886,-3088.8394C917.8812,-2941.3553 863.0592,-1916.9012 821.2549,-1084.8503 816.633,-992.8591 832.7767,-333.1999 781.2549,-256.8503 767.46,-236.4078 743.0728,-224.1686 720.9089,-216.9223"/>
<polygon fill="none" stroke="#000000" points="721.8411,-213.5479 711.2569,-214.023 719.8272,-220.252 721.8411,-213.5479"/>
</g>
</g>
</svg>
