<?xml version="1.0" encoding="UTF-8" standalone="no"?>
<!DOCTYPE svg PUBLIC "-//W3C//DTD SVG 1.1//EN"
 "http://www.w3.org/Graphics/SVG/1.1/DTD/svg11.dtd">
<!-- Generated by graphviz version 2.40.1 (20161225.0304)
 -->
<!-- Title: G Pages: 1 -->
<svg width="984pt" height="3599pt"
 viewBox="0.00 0.00 984.25 3598.93" xmlns="http://www.w3.org/2000/svg" xmlns:xlink="http://www.w3.org/1999/xlink">
<g id="graph0" class="graph" transform="scale(1 1) rotate(0) translate(4 3594.932)">
<title>G</title>
<polygon fill="#ffffff" stroke="transparent" points="-4,4 -4,-3594.932 980.2549,-3594.932 980.2549,4 -4,4"/>
<g id="clust1" class="cluster">
<title>cluster_Global</title>
<path fill="none" stroke="#c0c0c0" d="M165.1275,-476.932C165.1275,-476.932 956.2549,-476.932 956.2549,-476.932 962.2549,-476.932 968.2549,-482.932 968.2549,-488.932 968.2549,-488.932 968.2549,-3570.932 968.2549,-3570.932 968.2549,-3576.932 962.2549,-3582.932 956.2549,-3582.932 956.2549,-3582.932 165.1275,-3582.932 165.1275,-3582.932 159.1275,-3582.932 153.1275,-3576.932 153.1275,-3570.932 153.1275,-3570.932 153.1275,-488.932 153.1275,-488.932 153.1275,-482.932 159.1275,-476.932 165.1275,-476.932"/>
<text text-anchor="middle" x="560.6912" y="-3570.132" font-family="Times,serif" font-size="11.00" fill="#c0c0c0">Global</text>
</g>
<g id="clust2" class="cluster">
<title>cluster_\SilverStripe</title>
<path fill="none" stroke="#c0c0c0" d="M817.2549,-1547.932C817.2549,-1547.932 948.2549,-1547.932 948.2549,-1547.932 954.2549,-1547.932 960.2549,-1553.932 960.2549,-1559.932 960.2549,-1559.932 960.2549,-1849.932 960.2549,-1849.932 960.2549,-1855.932 954.2549,-1861.932 948.2549,-1861.932 948.2549,-1861.932 817.2549,-1861.932 817.2549,-1861.932 811.2549,-1861.932 805.2549,-1855.932 805.2549,-1849.932 805.2549,-1849.932 805.2549,-1559.932 805.2549,-1559.932 805.2549,-1553.932 811.2549,-1547.932 817.2549,-1547.932"/>
<text text-anchor="middle" x="882.7549" y="-1849.132" font-family="Times,serif" font-size="11.00" fill="#c0c0c0">SilverStripe</text>
</g>
<g id="clust3" class="cluster">
<title>cluster_\SilverStripe\FullTextSearch</title>
<path fill="none" stroke="#c0c0c0" d="M825.2549,-1555.932C825.2549,-1555.932 940.2549,-1555.932 940.2549,-1555.932 946.2549,-1555.932 952.2549,-1561.932 952.2549,-1567.932 952.2549,-1567.932 952.2549,-1821.932 952.2549,-1821.932 952.2549,-1827.932 946.2549,-1833.932 940.2549,-1833.932 940.2549,-1833.932 825.2549,-1833.932 825.2549,-1833.932 819.2549,-1833.932 813.2549,-1827.932 813.2549,-1821.932 813.2549,-1821.932 813.2549,-1567.932 813.2549,-1567.932 813.2549,-1561.932 819.2549,-1555.932 825.2549,-1555.932"/>
<text text-anchor="middle" x="882.7549" y="-1821.132" font-family="Times,serif" font-size="11.00" fill="#c0c0c0">FullTextSearch</text>
</g>
<g id="clust4" class="cluster">
<title>cluster_\SilverStripe\FullTextSearch\Solr</title>
<path fill="none" stroke="#c0c0c0" d="M844.7549,-1679.932C844.7549,-1679.932 920.7549,-1679.932 920.7549,-1679.932 926.7549,-1679.932 932.7549,-1685.932 932.7549,-1691.932 932.7549,-1691.932 932.7549,-1793.932 932.7549,-1793.932 932.7549,-1799.932 926.7549,-1805.932 920.7549,-1805.932 920.7549,-1805.932 844.7549,-1805.932 844.7549,-1805.932 838.7549,-1805.932 832.7549,-1799.932 832.7549,-1793.932 832.7549,-1793.932 832.7549,-1691.932 832.7549,-1691.932 832.7549,-1685.932 838.7549,-1679.932 844.7549,-1679.932"/>
<text text-anchor="middle" x="882.7549" y="-1793.132" font-family="Times,serif" font-size="11.00" fill="#c0c0c0">Solr</text>
</g>
<g id="clust5" class="cluster">
<title>cluster_\SilverStripe\FullTextSearch\Search</title>
<path fill="none" stroke="#c0c0c0" d="M833.2549,-1563.932C833.2549,-1563.932 932.2549,-1563.932 932.2549,-1563.932 938.2549,-1563.932 944.2549,-1569.932 944.2549,-1575.932 944.2549,-1575.932 944.2549,-1659.932 944.2549,-1659.932 944.2549,-1665.932 938.2549,-1671.932 932.2549,-1671.932 932.2549,-1671.932 833.2549,-1671.932 833.2549,-1671.932 827.2549,-1671.932 821.2549,-1665.932 821.2549,-1659.932 821.2549,-1659.932 821.2549,-1575.932 821.2549,-1575.932 821.2549,-1569.932 827.2549,-1563.932 833.2549,-1563.932"/>
<text text-anchor="middle" x="882.7549" y="-1659.132" font-family="Times,serif" font-size="11.00" fill="#c0c0c0">Search</text>
</g>
<g id="clust6" class="cluster">
<title>cluster_\SilverStripe\FullTextSearch\Search\Queries</title>
<path fill="none" stroke="#c0c0c0" d="M841.2549,-1571.932C841.2549,-1571.932 924.2549,-1571.932 924.2549,-1571.932 930.2549,-1571.932 936.2549,-1577.932 936.2549,-1583.932 936.2549,-1583.932 936.2549,-1631.932 936.2549,-1631.932 936.2549,-1637.932 930.2549,-1643.932 924.2549,-1643.932 924.2549,-1643.932 841.2549,-1643.932 841.2549,-1643.932 835.2549,-1643.932 829.2549,-1637.932 829.2549,-1631.932 829.2549,-1631.932 829.2549,-1583.932 829.2549,-1583.932 829.2549,-1577.932 835.2549,-1571.932 841.2549,-1571.932"/>
<text text-anchor="middle" x="882.7549" y="-1631.132" font-family="Times,serif" font-size="11.00" fill="#c0c0c0">Queries</text>
</g>
<g id="clust7" class="cluster">
<title>cluster_\Firesphere</title>
<path fill="none" stroke="#c0c0c0" d="M173.1275,-484.932C173.1275,-484.932 777.2549,-484.932 777.2549,-484.932 783.2549,-484.932 789.2549,-490.932 789.2549,-496.932 789.2549,-496.932 789.2549,-3542.932 789.2549,-3542.932 789.2549,-3548.932 783.2549,-3554.932 777.2549,-3554.932 777.2549,-3554.932 173.1275,-3554.932 173.1275,-3554.932 167.1275,-3554.932 161.1275,-3548.932 161.1275,-3542.932 161.1275,-3542.932 161.1275,-496.932 161.1275,-496.932 161.1275,-490.932 167.1275,-484.932 173.1275,-484.932"/>
<text text-anchor="middle" x="475.1912" y="-3542.132" font-family="Times,serif" font-size="11.00" fill="#c0c0c0">Firesphere</text>
</g>
<g id="clust8" class="cluster">
<title>cluster_\Firesphere\SolrSearch</title>
<path fill="none" stroke="#c0c0c0" d="M181.1275,-492.932C181.1275,-492.932 769.2549,-492.932 769.2549,-492.932 775.2549,-492.932 781.2549,-498.932 781.2549,-504.932 781.2549,-504.932 781.2549,-3514.932 781.2549,-3514.932 781.2549,-3520.932 775.2549,-3526.932 769.2549,-3526.932 769.2549,-3526.932 181.1275,-3526.932 181.1275,-3526.932 175.1275,-3526.932 169.1275,-3520.932 169.1275,-3514.932 169.1275,-3514.932 169.1275,-504.932 169.1275,-504.932 169.1275,-498.932 175.1275,-492.932 181.1275,-492.932"/>
<text text-anchor="middle" x="475.1912" y="-3514.132" font-family="Times,serif" font-size="11.00" fill="#c0c0c0">SolrSearch</text>
</g>
<g id="clust9" class="cluster">
<title>cluster_\Firesphere\SolrSearch\Compat</title>
<path fill="none" stroke="#c0c0c0" d="M590.7549,-3426.932C590.7549,-3426.932 754.7549,-3426.932 754.7549,-3426.932 760.7549,-3426.932 766.7549,-3432.932 766.7549,-3438.932 766.7549,-3438.932 766.7549,-3486.932 766.7549,-3486.932 766.7549,-3492.932 760.7549,-3498.932 754.7549,-3498.932 754.7549,-3498.932 590.7549,-3498.932 590.7549,-3498.932 584.7549,-3498.932 578.7549,-3492.932 578.7549,-3486.932 578.7549,-3486.932 578.7549,-3438.932 578.7549,-3438.932 578.7549,-3432.932 584.7549,-3426.932 590.7549,-3426.932"/>
<text text-anchor="middle" x="672.7549" y="-3486.132" font-family="Times,serif" font-size="11.00" fill="#c0c0c0">Compat</text>
</g>
<g id="clust10" class="cluster">
<title>cluster_\Firesphere\SolrSearch\Traits</title>
<path fill="none" stroke="#c0c0c0" d="M584.2549,-2590.932C584.2549,-2590.932 761.2549,-2590.932 761.2549,-2590.932 767.2549,-2590.932 773.2549,-2596.932 773.2549,-2602.932 773.2549,-2602.932 773.2549,-3406.932 773.2549,-3406.932 773.2549,-3412.932 767.2549,-3418.932 761.2549,-3418.932 761.2549,-3418.932 584.2549,-3418.932 584.2549,-3418.932 578.2549,-3418.932 572.2549,-3412.932 572.2549,-3406.932 572.2549,-3406.932 572.2549,-2602.932 572.2549,-2602.932 572.2549,-2596.932 578.2549,-2590.932 584.2549,-2590.932"/>
<text text-anchor="middle" x="672.7549" y="-3406.132" font-family="Times,serif" font-size="11.00" fill="#c0c0c0">Traits</text>
</g>
<g id="clust11" class="cluster">
<title>cluster_\Firesphere\SolrSearch\Factories</title>
<path fill="none" stroke="#c0c0c0" d="M597.7549,-2456.932C597.7549,-2456.932 747.7549,-2456.932 747.7549,-2456.932 753.7549,-2456.932 759.7549,-2462.932 759.7549,-2468.932 759.7549,-2468.932 759.7549,-2570.932 759.7549,-2570.932 759.7549,-2576.932 753.7549,-2582.932 747.7549,-2582.932 747.7549,-2582.932 597.7549,-2582.932 597.7549,-2582.932 591.7549,-2582.932 585.7549,-2576.932 585.7549,-2570.932 585.7549,-2570.932 585.7549,-2468.932 585.7549,-2468.932 585.7549,-2462.932 591.7549,-2456.932 597.7549,-2456.932"/>
<text text-anchor="middle" x="672.7549" y="-2570.132" font-family="Times,serif" font-size="11.00" fill="#c0c0c0">Factories</text>
</g>
<g id="clust12" class="cluster">
<title>cluster_\Firesphere\SolrSearch\Extensions</title>
<path fill="none" stroke="#c0c0c0" d="M604.2549,-2322.932C604.2549,-2322.932 741.2549,-2322.932 741.2549,-2322.932 747.2549,-2322.932 753.2549,-2328.932 753.2549,-2334.932 753.2549,-2334.932 753.2549,-2436.932 753.2549,-2436.932 753.2549,-2442.932 747.2549,-2448.932 741.2549,-2448.932 741.2549,-2448.932 604.2549,-2448.932 604.2549,-2448.932 598.2549,-2448.932 592.2549,-2442.932 592.2549,-2436.932 592.2549,-2436.932 592.2549,-2334.932 592.2549,-2334.932 592.2549,-2328.932 598.2549,-2322.932 604.2549,-2322.932"/>
<text text-anchor="middle" x="672.7549" y="-2436.132" font-family="Times,serif" font-size="11.00" fill="#c0c0c0">Extensions</text>
</g>
<g id="clust13" class="cluster">
<title>cluster_\Firesphere\SolrSearch\Admins</title>
<path fill="none" stroke="#c0c0c0" d="M631.2549,-2242.932C631.2549,-2242.932 714.2549,-2242.932 714.2549,-2242.932 720.2549,-2242.932 726.2549,-2248.932 726.2549,-2254.932 726.2549,-2254.932 726.2549,-2302.932 726.2549,-2302.932 726.2549,-2308.932 720.2549,-2314.932 714.2549,-2314.932 714.2549,-2314.932 631.2549,-2314.932 631.2549,-2314.932 625.2549,-2314.932 619.2549,-2308.932 619.2549,-2302.932 619.2549,-2302.932 619.2549,-2254.932 619.2549,-2254.932 619.2549,-2248.932 625.2549,-2242.932 631.2549,-2242.932"/>
<text text-anchor="middle" x="672.7549" y="-2302.132" font-family="Times,serif" font-size="11.00" fill="#c0c0c0">Admins</text>
</g>
<g id="clust14" class="cluster">
<title>cluster_\Firesphere\SolrSearch\Models</title>
<path fill="none" stroke="#c0c0c0" d="M624.7549,-2054.932C624.7549,-2054.932 720.7549,-2054.932 720.7549,-2054.932 726.7549,-2054.932 732.7549,-2060.932 732.7549,-2066.932 732.7549,-2066.932 732.7549,-2222.932 732.7549,-2222.932 732.7549,-2228.932 726.7549,-2234.932 720.7549,-2234.932 720.7549,-2234.932 624.7549,-2234.932 624.7549,-2234.932 618.7549,-2234.932 612.7549,-2228.932 612.7549,-2222.932 612.7549,-2222.932 612.7549,-2066.932 612.7549,-2066.932 612.7549,-2060.932 618.7549,-2054.932 624.7549,-2054.932"/>
<text text-anchor="middle" x="672.7549" y="-2222.132" font-family="Times,serif" font-size="11.00" fill="#c0c0c0">Models</text>
</g>
<g id="clust15" class="cluster">
<title>cluster_\Firesphere\SolrSearch\Jobs</title>
<path fill="none" stroke="#c0c0c0" d="M600.7549,-1866.932C600.7549,-1866.932 744.7549,-1866.932 744.7549,-1866.932 750.7549,-1866.932 756.7549,-1872.932 756.7549,-1878.932 756.7549,-1878.932 756.7549,-2034.932 756.7549,-2034.932 756.7549,-2040.932 750.7549,-2046.932 744.7549,-2046.932 744.7549,-2046.932 600.7549,-2046.932 600.7549,-2046.932 594.7549,-2046.932 588.7549,-2040.932 588.7549,-2034.932 588.7549,-2034.932 588.7549,-1878.932 588.7549,-1878.932 588.7549,-1872.932 594.7549,-1866.932 600.7549,-1866.932"/>
<text text-anchor="middle" x="672.7549" y="-2034.132" font-family="Times,serif" font-size="11.00" fill="#c0c0c0">Jobs</text>
</g>
<g id="clust16" class="cluster">
<title>cluster_\Firesphere\SolrSearch\Indexes</title>
<path fill="none" stroke="#c0c0c0" d="M634.7549,-1786.932C634.7549,-1786.932 710.7549,-1786.932 710.7549,-1786.932 716.7549,-1786.932 722.7549,-1792.932 722.7549,-1798.932 722.7549,-1798.932 722.7549,-1846.932 722.7549,-1846.932 722.7549,-1852.932 716.7549,-1858.932 710.7549,-1858.932 710.7549,-1858.932 634.7549,-1858.932 634.7549,-1858.932 628.7549,-1858.932 622.7549,-1852.932 622.7549,-1846.932 622.7549,-1846.932 622.7549,-1798.932 622.7549,-1798.932 622.7549,-1792.932 628.7549,-1786.932 634.7549,-1786.932"/>
<text text-anchor="middle" x="672.7549" y="-1846.132" font-family="Times,serif" font-size="11.00" fill="#c0c0c0">Indexes</text>
</g>
<g id="clust17" class="cluster">
<title>cluster_\Firesphere\SolrSearch\Interfaces</title>
<path fill="none" stroke="#c0c0c0" d="M189.1275,-1357.932C189.1275,-1357.932 319.1275,-1357.932 319.1275,-1357.932 325.1275,-1357.932 331.1275,-1363.932 331.1275,-1369.932 331.1275,-1369.932 331.1275,-1471.932 331.1275,-1471.932 331.1275,-1477.932 325.1275,-1483.932 319.1275,-1483.932 319.1275,-1483.932 189.1275,-1483.932 189.1275,-1483.932 183.1275,-1483.932 177.1275,-1477.932 177.1275,-1471.932 177.1275,-1471.932 177.1275,-1369.932 177.1275,-1369.932 177.1275,-1363.932 183.1275,-1357.932 189.1275,-1357.932"/>
<text text-anchor="middle" x="254.1275" y="-1471.132" font-family="Times,serif" font-size="11.00" fill="#c0c0c0">Interfaces</text>
</g>
<g id="clust18" class="cluster">
<title>cluster_\Firesphere\SolrSearch\Tasks</title>
<path fill="none" stroke="#c0c0c0" d="M597.7549,-1544.932C597.7549,-1544.932 747.7549,-1544.932 747.7549,-1544.932 753.7549,-1544.932 759.7549,-1550.932 759.7549,-1556.932 759.7549,-1556.932 759.7549,-1766.932 759.7549,-1766.932 759.7549,-1772.932 753.7549,-1778.932 747.7549,-1778.932 747.7549,-1778.932 597.7549,-1778.932 597.7549,-1778.932 591.7549,-1778.932 585.7549,-1772.932 585.7549,-1766.932 585.7549,-1766.932 585.7549,-1556.932 585.7549,-1556.932 585.7549,-1550.932 591.7549,-1544.932 597.7549,-1544.932"/>
<text text-anchor="middle" x="672.7549" y="-1766.132" font-family="Times,serif" font-size="11.00" fill="#c0c0c0">Tasks</text>
</g>
<g id="clust19" class="cluster">
<title>cluster_\Firesphere\SolrSearch\Queries</title>
<path fill="none" stroke="#c0c0c0" d="M638.2549,-1464.932C638.2549,-1464.932 707.2549,-1464.932 707.2549,-1464.932 713.2549,-1464.932 719.2549,-1470.932 719.2549,-1476.932 719.2549,-1476.932 719.2549,-1524.932 719.2549,-1524.932 719.2549,-1530.932 713.2549,-1536.932 707.2549,-1536.932 707.2549,-1536.932 638.2549,-1536.932 638.2549,-1536.932 632.2549,-1536.932 626.2549,-1530.932 626.2549,-1524.932 626.2549,-1524.932 626.2549,-1476.932 626.2549,-1476.932 626.2549,-1470.932 632.2549,-1464.932 638.2549,-1464.932"/>
<text text-anchor="middle" x="672.7549" y="-1524.132" font-family="Times,serif" font-size="11.00" fill="#c0c0c0">Queries</text>
</g>
<g id="clust20" class="cluster">
<title>cluster_\Firesphere\SolrSearch\Stores</title>
<path fill="none" stroke="#c0c0c0" d="M617.7549,-1330.932C617.7549,-1330.932 727.7549,-1330.932 727.7549,-1330.932 733.7549,-1330.932 739.7549,-1336.932 739.7549,-1342.932 739.7549,-1342.932 739.7549,-1444.932 739.7549,-1444.932 739.7549,-1450.932 733.7549,-1456.932 727.7549,-1456.932 727.7549,-1456.932 617.7549,-1456.932 617.7549,-1456.932 611.7549,-1456.932 605.7549,-1450.932 605.7549,-1444.932 605.7549,-1444.932 605.7549,-1342.932 605.7549,-1342.932 605.7549,-1336.932 611.7549,-1330.932 617.7549,-1330.932"/>
<text text-anchor="middle" x="672.7549" y="-1444.132" font-family="Times,serif" font-size="11.00" fill="#c0c0c0">Stores</text>
</g>
<g id="clust21" class="cluster">
<title>cluster_\Firesphere\SolrSearch\Services</title>
<path fill="none" stroke="#c0c0c0" d="M617.7549,-1196.932C617.7549,-1196.932 727.7549,-1196.932 727.7549,-1196.932 733.7549,-1196.932 739.7549,-1202.932 739.7549,-1208.932 739.7549,-1208.932 739.7549,-1310.932 739.7549,-1310.932 739.7549,-1316.932 733.7549,-1322.932 727.7549,-1322.932 727.7549,-1322.932 617.7549,-1322.932 617.7549,-1322.932 611.7549,-1322.932 605.7549,-1316.932 605.7549,-1310.932 605.7549,-1310.932 605.7549,-1208.932 605.7549,-1208.932 605.7549,-1202.932 611.7549,-1196.932 617.7549,-1196.932"/>
<text text-anchor="middle" x="672.7549" y="-1310.132" font-family="Times,serif" font-size="11.00" fill="#c0c0c0">Services</text>
</g>
<g id="clust22" class="cluster">
<title>cluster_\Firesphere\SolrSearch\States</title>
<path fill="none" stroke="#c0c0c0" d="M634.7549,-1116.932C634.7549,-1116.932 710.7549,-1116.932 710.7549,-1116.932 716.7549,-1116.932 722.7549,-1122.932 722.7549,-1128.932 722.7549,-1128.932 722.7549,-1176.932 722.7549,-1176.932 722.7549,-1182.932 716.7549,-1188.932 710.7549,-1188.932 710.7549,-1188.932 634.7549,-1188.932 634.7549,-1188.932 628.7549,-1188.932 622.7549,-1182.932 622.7549,-1176.932 622.7549,-1176.932 622.7549,-1128.932 622.7549,-1128.932 622.7549,-1122.932 628.7549,-1116.932 634.7549,-1116.932"/>
<text text-anchor="middle" x="672.7549" y="-1176.132" font-family="Times,serif" font-size="11.00" fill="#c0c0c0">States</text>
</g>
<g id="clust23" class="cluster">
<title>cluster_\Firesphere\SolrSearch\Results</title>
<path fill="none" stroke="#c0c0c0" d="M627.7549,-1036.932C627.7549,-1036.932 717.7549,-1036.932 717.7549,-1036.932 723.7549,-1036.932 729.7549,-1042.932 729.7549,-1048.932 729.7549,-1048.932 729.7549,-1096.932 729.7549,-1096.932 729.7549,-1102.932 723.7549,-1108.932 717.7549,-1108.932 717.7549,-1108.932 627.7549,-1108.932 627.7549,-1108.932 621.7549,-1108.932 615.7549,-1102.932 615.7549,-1096.932 615.7549,-1096.932 615.7549,-1048.932 615.7549,-1048.932 615.7549,-1042.932 621.7549,-1036.932 627.7549,-1036.932"/>
<text text-anchor="middle" x="672.7549" y="-1096.132" font-family="Times,serif" font-size="11.00" fill="#c0c0c0">Results</text>
</g>
<g id="clust24" class="cluster">
<title>cluster_\Firesphere\SolrSearch\Forms</title>
<path fill="none" stroke="#c0c0c0" d="M634.7549,-956.932C634.7549,-956.932 710.7549,-956.932 710.7549,-956.932 716.7549,-956.932 722.7549,-962.932 722.7549,-968.932 722.7549,-968.932 722.7549,-1016.932 722.7549,-1016.932 722.7549,-1022.932 716.7549,-1028.932 710.7549,-1028.932 710.7549,-1028.932 634.7549,-1028.932 634.7549,-1028.932 628.7549,-1028.932 622.7549,-1022.932 622.7549,-1016.932 622.7549,-1016.932 622.7549,-968.932 622.7549,-968.932 622.7549,-962.932 628.7549,-956.932 634.7549,-956.932"/>
<text text-anchor="middle" x="672.7549" y="-1016.132" font-family="Times,serif" font-size="11.00" fill="#c0c0c0">Forms</text>
</g>
<g id="clust25" class="cluster">
<title>cluster_\Firesphere\SolrSearch\Helpers</title>
<path fill="none" stroke="#c0c0c0" d="M624.7549,-660.932C624.7549,-660.932 720.7549,-660.932 720.7549,-660.932 726.7549,-660.932 732.7549,-666.932 732.7549,-672.932 732.7549,-672.932 732.7549,-936.932 732.7549,-936.932 732.7549,-942.932 726.7549,-948.932 720.7549,-948.932 720.7549,-948.932 624.7549,-948.932 624.7549,-948.932 618.7549,-948.932 612.7549,-942.932 612.7549,-936.932 612.7549,-936.932 612.7549,-672.932 612.7549,-672.932 612.7549,-666.932 618.7549,-660.932 624.7549,-660.932"/>
<text text-anchor="middle" x="672.7549" y="-936.132" font-family="Times,serif" font-size="11.00" fill="#c0c0c0">Helpers</text>
</g>
<g id="clust26" class="cluster">
<title>cluster_\Firesphere\SolrSearch\Fluent</title>
<path fill="none" stroke="#c0c0c0" d="M617.7549,-580.932C617.7549,-580.932 727.7549,-580.932 727.7549,-580.932 733.7549,-580.932 739.7549,-586.932 739.7549,-592.932 739.7549,-592.932 739.7549,-640.932 739.7549,-640.932 739.7549,-646.932 733.7549,-652.932 727.7549,-652.932 727.7549,-652.932 617.7549,-652.932 617.7549,-652.932 611.7549,-652.932 605.7549,-646.932 605.7549,-640.932 605.7549,-640.932 605.7549,-592.932 605.7549,-592.932 605.7549,-586.932 611.7549,-580.932 617.7549,-580.932"/>
<text text-anchor="middle" x="672.7549" y="-640.132" font-family="Times,serif" font-size="11.00" fill="#c0c0c0">Fluent</text>
</g>
<g id="clust27" class="cluster">
<title>cluster_\Firesphere\SolrSearch\Subsites</title>
<path fill="none" stroke="#c0c0c0" d="M611.2549,-500.932C611.2549,-500.932 734.2549,-500.932 734.2549,-500.932 740.2549,-500.932 746.2549,-506.932 746.2549,-512.932 746.2549,-512.932 746.2549,-560.932 746.2549,-560.932 746.2549,-566.932 740.2549,-572.932 734.2549,-572.932 734.2549,-572.932 611.2549,-572.932 611.2549,-572.932 605.2549,-572.932 599.2549,-566.932 599.2549,-560.932 599.2549,-560.932 599.2549,-512.932 599.2549,-512.932 599.2549,-506.932 605.2549,-500.932 611.2549,-500.932"/>
<text text-anchor="middle" x="672.7549" y="-560.132" font-family="Times,serif" font-size="11.00" fill="#c0c0c0">Subsites</text>
</g>
<!-- \\SilverStripe\\FullTextSearch\\Solr\\Solr -->
<g id="node1" class="node">
<title>\\SilverStripe\\FullTextSearch\\Solr\\Solr</title>
<polygon fill="none" stroke="#000000" points="909.7549,-1777.932 855.7549,-1777.932 855.7549,-1741.932 909.7549,-1741.932 909.7549,-1777.932"/>
<text text-anchor="middle" x="882.7549" y="-1757.132" font-family="Courier,monospace" font-size="11.00" fill="#000000">Solr</text>
</g>
<!-- \\SilverStripe\\FullTextSearch\\Solr\\SolrIndex -->
<g id="node2" class="node">
<title>\\SilverStripe\\FullTextSearch\\Solr\\SolrIndex</title>
<polygon fill="none" stroke="#000000" points="924.7549,-1723.932 840.7549,-1723.932 840.7549,-1687.932 924.7549,-1687.932 924.7549,-1723.932"/>
<text text-anchor="start" x="848.7549" y="-1709.132" font-family="Courier,monospace" font-size="11.00" fill="#000000">«abstract»</text>
<text text-anchor="start" x="852.2549" y="-1697.132" font-family="Courier,monospace" font-size="11.00" fill="#000000">SolrIndex</text>
</g>
<!-- \\Firesphere\\SolrSearch\\Indexes\\BaseIndex -->
<g id="node31" class="node">
<title>\\Firesphere\\SolrSearch\\Indexes\\BaseIndex</title>
<polygon fill="none" stroke="#000000" points="714.7549,-1830.932 630.7549,-1830.932 630.7549,-1794.932 714.7549,-1794.932 714.7549,-1830.932"/>
<text text-anchor="start" x="638.7549" y="-1816.132" font-family="Courier,monospace" font-size="11.00" fill="#000000">«abstract»</text>
<text text-anchor="start" x="642.2549" y="-1804.132" font-family="Courier,monospace" font-size="11.00" fill="#000000">BaseIndex</text>
</g>
<!-- \\SilverStripe\\FullTextSearch\\Solr\\SolrIndex&#45;&gt;\\Firesphere\\SolrSearch\\Indexes\\BaseIndex -->
<g id="edge2" class="edge">
<title>\\SilverStripe\\FullTextSearch\\Solr\\SolrIndex&#45;&gt;\\Firesphere\\SolrSearch\\Indexes\\BaseIndex</title>
<path fill="none" stroke="#000000" d="M840.5624,-1713.0361C827.8115,-1717.0224 814.7031,-1723.2394 805.2549,-1732.932 788.9685,-1749.6397 806.2221,-1766.9161 789.2549,-1782.932 772.067,-1799.1562 747.309,-1806.8987 725.0327,-1810.488"/>
<polygon fill="none" stroke="#000000" points="724.4412,-1807.0362 715.0084,-1811.8603 725.3907,-1813.9715 724.4412,-1807.0362"/>
</g>
<!-- \\SilverStripe\\FullTextSearch\\Search\\Queries\\SearchQuery -->
<g id="node3" class="node">
<title>\\SilverStripe\\FullTextSearch\\Search\\Queries\\SearchQuery</title>
<polygon fill="none" stroke="#000000" points="928.2549,-1615.932 837.2549,-1615.932 837.2549,-1579.932 928.2549,-1579.932 928.2549,-1615.932"/>
<text text-anchor="middle" x="882.7549" y="-1595.132" font-family="Courier,monospace" font-size="11.00" fill="#000000">SearchQuery</text>
</g>
<!-- \\Firesphere\\SolrSearch\\Queries\\BaseQuery -->
<g id="node38" class="node">
<title>\\Firesphere\\SolrSearch\\Queries\\BaseQuery</title>
<polygon fill="none" stroke="#000000" points="711.2549,-1508.932 634.2549,-1508.932 634.2549,-1472.932 711.2549,-1472.932 711.2549,-1508.932"/>
<text text-anchor="middle" x="672.7549" y="-1488.132" font-family="Courier,monospace" font-size="11.00" fill="#000000">BaseQuery</text>
</g>
<!-- \\SilverStripe\\FullTextSearch\\Search\\Queries\\SearchQuery&#45;&gt;\\Firesphere\\SolrSearch\\Queries\\BaseQuery -->
<g id="edge1" class="edge">
<title>\\SilverStripe\\FullTextSearch\\Search\\Queries\\SearchQuery&#45;&gt;\\Firesphere\\SolrSearch\\Queries\\BaseQuery</title>
<path fill="none" stroke="#000000" d="M855.5272,-1579.9167C837.1829,-1568.1354 812.2308,-1552.7896 789.2549,-1540.932 767.2904,-1529.5963 742.1777,-1518.5841 720.9056,-1509.7931"/>
<polygon fill="none" stroke="#000000" points="722.0081,-1506.4627 711.4273,-1505.9171 719.3585,-1512.9419 722.0081,-1506.4627"/>
</g>
<!-- \\Firesphere\\SolrSearch\\Compat\\FulltextSearchExtension -->
<g id="node4" class="node">
<title>\\Firesphere\\SolrSearch\\Compat\\FulltextSearchExtension</title>
<polygon fill="none" stroke="#000000" points="758.7549,-3470.932 586.7549,-3470.932 586.7549,-3434.932 758.7549,-3434.932 758.7549,-3470.932"/>
<text text-anchor="middle" x="672.7549" y="-3450.132" font-family="Courier,monospace" font-size="11.00" fill="#000000">FulltextSearchExtension</text>
</g>
<!-- \\SilverStripe\\Core\\Extension -->
<g id="node53" class="node">
<title>\\SilverStripe\\Core\\Extension</title>
<ellipse fill="none" stroke="#000000" cx="254.1275" cy="-450.932" rx="144.0747" ry="18"/>
<text text-anchor="middle" x="254.1275" y="-447.232" font-family="Times,serif" font-size="14.00" fill="#c0c0c0">\SilverStripe\Core\Extension</text>
</g>
<!-- \\Firesphere\\SolrSearch\\Compat\\FulltextSearchExtension&#45;&gt;\\SilverStripe\\Core\\Extension -->
<g id="edge3" class="edge">
<title>\\Firesphere\\SolrSearch\\Compat\\FulltextSearchExtension&#45;&gt;\\SilverStripe\\Core\\Extension</title>
<path fill="none" stroke="#000000" d="M586.5147,-3436.0554C581.1128,-3432.4546 576.2523,-3428.1272 572.2549,-3422.932 502.1275,-3331.7891 525.7388,-1467.5945 508.2549,-1353.932 453.805,-999.9544 305.3813,-587.7963 264.6109,-478.6116"/>
<polygon fill="none" stroke="#000000" points="267.7963,-477.1378 261.0082,-469.0032 261.2419,-479.5955 267.7963,-477.1378"/>
</g>
<!-- \\Firesphere\\SolrSearch\\Traits\\BaseQueryTrait -->
<g id="node5" class="node">
<title>\\Firesphere\\SolrSearch\\Traits\\BaseQueryTrait</title>
<polygon fill="none" stroke="#000000" points="728.2549,-3390.932 617.2549,-3390.932 617.2549,-3354.932 728.2549,-3354.932 728.2549,-3390.932"/>
<text text-anchor="middle" x="672.7549" y="-3370.132" font-family="Courier,monospace" font-size="11.00" fill="#000000">BaseQueryTrait</text>
</g>
<!-- \\Firesphere\\SolrSearch\\Traits\\DataResolveTrait -->
<g id="node6" class="node">
<title>\\Firesphere\\SolrSearch\\Traits\\DataResolveTrait</title>
<polygon fill="none" stroke="#000000" points="735.2549,-3336.932 610.2549,-3336.932 610.2549,-3300.932 735.2549,-3300.932 735.2549,-3336.932"/>
<text text-anchor="middle" x="672.7549" y="-3316.132" font-family="Courier,monospace" font-size="11.00" fill="#000000">DataResolveTrait</text>
</g>
<!-- \\Firesphere\\SolrSearch\\Traits\\GetterSetterTrait -->
<g id="node7" class="node">
<title>\\Firesphere\\SolrSearch\\Traits\\GetterSetterTrait</title>
<polygon fill="none" stroke="#000000" points="738.2549,-3282.932 607.2549,-3282.932 607.2549,-3246.932 738.2549,-3246.932 738.2549,-3282.932"/>
<text text-anchor="middle" x="672.7549" y="-3262.132" font-family="Courier,monospace" font-size="11.00" fill="#000000">GetterSetterTrait</text>
</g>
<!-- \\Firesphere\\SolrSearch\\Traits\\LoggerTrait -->
<g id="node8" class="node">
<title>\\Firesphere\\SolrSearch\\Traits\\LoggerTrait</title>
<polygon fill="none" stroke="#000000" points="718.2549,-3228.932 627.2549,-3228.932 627.2549,-3192.932 718.2549,-3192.932 718.2549,-3228.932"/>
<text text-anchor="middle" x="672.7549" y="-3208.132" font-family="Courier,monospace" font-size="11.00" fill="#000000">LoggerTrait</text>
</g>
<!-- \\Firesphere\\SolrSearch\\Traits\\CoreAdminTrait -->
<g id="node9" class="node">
<title>\\Firesphere\\SolrSearch\\Traits\\CoreAdminTrait</title>
<polygon fill="none" stroke="#000000" points="728.2549,-3174.932 617.2549,-3174.932 617.2549,-3138.932 728.2549,-3138.932 728.2549,-3174.932"/>
<text text-anchor="middle" x="672.7549" y="-3154.132" font-family="Courier,monospace" font-size="11.00" fill="#000000">CoreAdminTrait</text>
</g>
<!-- \\Firesphere\\SolrSearch\\Traits\\CoreServiceTrait -->
<g id="node10" class="node">
<title>\\Firesphere\\SolrSearch\\Traits\\CoreServiceTrait</title>
<polygon fill="none" stroke="#000000" points="735.2549,-3120.932 610.2549,-3120.932 610.2549,-3084.932 735.2549,-3084.932 735.2549,-3120.932"/>
<text text-anchor="middle" x="672.7549" y="-3100.132" font-family="Courier,monospace" font-size="11.00" fill="#000000">CoreServiceTrait</text>
</g>
<!-- \\Firesphere\\SolrSearch\\Traits\\QueryComponentBoostTrait -->
<g id="node11" class="node">
<title>\\Firesphere\\SolrSearch\\Traits\\QueryComponentBoostTrait</title>
<polygon fill="none" stroke="#000000" points="762.2549,-3066.932 583.2549,-3066.932 583.2549,-3030.932 762.2549,-3030.932 762.2549,-3066.932"/>
<text text-anchor="middle" x="672.7549" y="-3046.132" font-family="Courier,monospace" font-size="11.00" fill="#000000">QueryComponentBoostTrait</text>
</g>
<!-- \\Firesphere\\SolrSearch\\Traits\\QueryComponentFacetTrait -->
<g id="node12" class="node">
<title>\\Firesphere\\SolrSearch\\Traits\\QueryComponentFacetTrait</title>
<polygon fill="none" stroke="#000000" points="762.2549,-3012.932 583.2549,-3012.932 583.2549,-2976.932 762.2549,-2976.932 762.2549,-3012.932"/>
<text text-anchor="middle" x="672.7549" y="-2992.132" font-family="Courier,monospace" font-size="11.00" fill="#000000">QueryComponentFacetTrait</text>
</g>
<!-- \\Firesphere\\SolrSearch\\Traits\\QueryComponentFilterTrait -->
<g id="node13" class="node">
<title>\\Firesphere\\SolrSearch\\Traits\\QueryComponentFilterTrait</title>
<polygon fill="none" stroke="#000000" points="765.2549,-2958.932 580.2549,-2958.932 580.2549,-2922.932 765.2549,-2922.932 765.2549,-2958.932"/>
<text text-anchor="middle" x="672.7549" y="-2938.132" font-family="Courier,monospace" font-size="11.00" fill="#000000">QueryComponentFilterTrait</text>
</g>
<!-- \\Firesphere\\SolrSearch\\Traits\\SearchResultGetTrait -->
<g id="node14" class="node">
<title>\\Firesphere\\SolrSearch\\Traits\\SearchResultGetTrait</title>
<polygon fill="none" stroke="#000000" points="748.7549,-2904.932 596.7549,-2904.932 596.7549,-2868.932 748.7549,-2868.932 748.7549,-2904.932"/>
<text text-anchor="middle" x="672.7549" y="-2884.132" font-family="Courier,monospace" font-size="11.00" fill="#000000">SearchResultGetTrait</text>
</g>
<!-- \\Firesphere\\SolrSearch\\Traits\\SearchResultSetTrait -->
<g id="node15" class="node">
<title>\\Firesphere\\SolrSearch\\Traits\\SearchResultSetTrait</title>
<polygon fill="none" stroke="#000000" points="748.7549,-2850.932 596.7549,-2850.932 596.7549,-2814.932 748.7549,-2814.932 748.7549,-2850.932"/>
<text text-anchor="middle" x="672.7549" y="-2830.132" font-family="Courier,monospace" font-size="11.00" fill="#000000">SearchResultSetTrait</text>
</g>
<!-- \\Firesphere\\SolrSearch\\Traits\\GetSetSchemaServiceTrait -->
<g id="node16" class="node">
<title>\\Firesphere\\SolrSearch\\Traits\\GetSetSchemaServiceTrait</title>
<polygon fill="none" stroke="#000000" points="762.2549,-2796.932 583.2549,-2796.932 583.2549,-2760.932 762.2549,-2760.932 762.2549,-2796.932"/>
<text text-anchor="middle" x="672.7549" y="-2776.132" font-family="Courier,monospace" font-size="11.00" fill="#000000">GetSetSchemaServiceTrait</text>
</g>
<!-- \\Firesphere\\SolrSearch\\Traits\\GetSetSearchResolverTrait -->
<g id="node17" class="node">
<title>\\Firesphere\\SolrSearch\\Traits\\GetSetSearchResolverTrait</title>
<polygon fill="none" stroke="#000000" points="765.2549,-2742.932 580.2549,-2742.932 580.2549,-2706.932 765.2549,-2706.932 765.2549,-2742.932"/>
<text text-anchor="middle" x="672.7549" y="-2722.132" font-family="Courier,monospace" font-size="11.00" fill="#000000">GetSetSearchResolverTrait</text>
</g>
<!-- \\Firesphere\\SolrSearch\\Traits\\BaseIndexTrait -->
<g id="node18" class="node">
<title>\\Firesphere\\SolrSearch\\Traits\\BaseIndexTrait</title>
<polygon fill="none" stroke="#000000" points="728.2549,-2688.932 617.2549,-2688.932 617.2549,-2652.932 728.2549,-2652.932 728.2549,-2688.932"/>
<text text-anchor="middle" x="672.7549" y="-2668.132" font-family="Courier,monospace" font-size="11.00" fill="#000000">BaseIndexTrait</text>
</g>
<!-- \\Firesphere\\SolrSearch\\Traits\\DocumentFactoryTrait -->
<g id="node19" class="node">
<title>\\Firesphere\\SolrSearch\\Traits\\DocumentFactoryTrait</title>
<polygon fill="none" stroke="#000000" points="748.7549,-2634.932 596.7549,-2634.932 596.7549,-2598.932 748.7549,-2598.932 748.7549,-2634.932"/>
<text text-anchor="middle" x="672.7549" y="-2614.132" font-family="Courier,monospace" font-size="11.00" fill="#000000">DocumentFactoryTrait</text>
</g>
<!-- \\Firesphere\\SolrSearch\\Factories\\QueryComponentFactory -->
<g id="node20" class="node">
<title>\\Firesphere\\SolrSearch\\Factories\\QueryComponentFactory</title>
<polygon fill="none" stroke="#000000" points="751.7549,-2554.932 593.7549,-2554.932 593.7549,-2518.932 751.7549,-2518.932 751.7549,-2554.932"/>
<text text-anchor="middle" x="672.7549" y="-2534.132" font-family="Courier,monospace" font-size="11.00" fill="#000000">QueryComponentFactory</text>
</g>
<!-- \\Firesphere\\SolrSearch\\Factories\\DocumentFactory -->
<g id="node21" class="node">
<title>\\Firesphere\\SolrSearch\\Factories\\DocumentFactory</title>
<polygon fill="none" stroke="#000000" points="731.7549,-2500.932 613.7549,-2500.932 613.7549,-2464.932 731.7549,-2464.932 731.7549,-2500.932"/>
<text text-anchor="middle" x="672.7549" y="-2480.132" font-family="Courier,monospace" font-size="11.00" fill="#000000">DocumentFactory</text>
</g>
<!-- \\Firesphere\\SolrSearch\\Extensions\\GridFieldExtension -->
<g id="node22" class="node">
<title>\\Firesphere\\SolrSearch\\Extensions\\GridFieldExtension</title>
<polygon fill="none" stroke="#000000" points="741.7549,-2420.932 603.7549,-2420.932 603.7549,-2384.932 741.7549,-2384.932 741.7549,-2420.932"/>
<text text-anchor="middle" x="672.7549" y="-2400.132" font-family="Courier,monospace" font-size="11.00" fill="#000000">GridFieldExtension</text>
</g>
<!-- \\Firesphere\\SolrSearch\\Extensions\\GridFieldExtension&#45;&gt;\\SilverStripe\\Core\\Extension -->
<g id="edge4" class="edge">
<title>\\Firesphere\\SolrSearch\\Extensions\\GridFieldExtension&#45;&gt;\\SilverStripe\\Core\\Extension</title>
<path fill="none" stroke="#000000" d="M603.6228,-2396.4787C591.5614,-2392.2692 580.3176,-2385.7922 572.2549,-2375.932 500.232,-2287.8517 527.3287,-1466.0998 508.2549,-1353.932 448.2161,-1000.8594 303.8054,-588.0515 264.2776,-478.6655"/>
<polygon fill="none" stroke="#000000" points="267.4861,-477.2465 260.7861,-469.0392 260.9055,-479.6334 267.4861,-477.2465"/>
</g>
<!-- \\Firesphere\\SolrSearch\\Extensions\\DataObjectExtension -->
<g id="node23" class="node">
<title>\\Firesphere\\SolrSearch\\Extensions\\DataObjectExtension</title>
<polygon fill="none" stroke="#000000" points="745.2549,-2366.932 600.2549,-2366.932 600.2549,-2330.932 745.2549,-2330.932 745.2549,-2366.932"/>
<text text-anchor="middle" x="672.7549" y="-2346.132" font-family="Courier,monospace" font-size="11.00" fill="#000000">DataObjectExtension</text>
</g>
<!-- \\SilverStripe\\ORM\\DataExtension -->
<g id="node54" class="node">
<title>\\SilverStripe\\ORM\\DataExtension</title>
<ellipse fill="none" stroke="#000000" cx="254.1275" cy="-18.932" rx="167.8704" ry="18"/>
<text text-anchor="middle" x="254.1275" y="-15.232" font-family="Times,serif" font-size="14.00" fill="#c0c0c0">\SilverStripe\ORM\DataExtension</text>
</g>
<!-- \\Firesphere\\SolrSearch\\Extensions\\DataObjectExtension&#45;&gt;\\SilverStripe\\ORM\\DataExtension -->
<g id="edge5" class="edge">
<title>\\Firesphere\\SolrSearch\\Extensions\\DataObjectExtension&#45;&gt;\\SilverStripe\\ORM\\DataExtension</title>
<path fill="none" stroke="#000000" d="M600.1806,-2339.3281C589.3303,-2334.7772 579.4039,-2328.2501 572.2549,-2318.932 418.4618,-2118.4761 679.8357,-231.3906 508.2549,-45.932 467.4093,-1.7826 398.5617,3.1801 342.8222,-1.922"/>
<polygon fill="none" stroke="#000000" points="342.1622,1.5284 332.5767,-2.9846 342.8844,-5.4342 342.1622,1.5284"/>
</g>
<!-- \\Firesphere\\SolrSearch\\Admins\\SearchAdmin -->
<g id="node24" class="node">
<title>\\Firesphere\\SolrSearch\\Admins\\SearchAdmin</title>
<polygon fill="none" stroke="#000000" points="718.2549,-2286.932 627.2549,-2286.932 627.2549,-2250.932 718.2549,-2250.932 718.2549,-2286.932"/>
<text text-anchor="middle" x="672.7549" y="-2266.132" font-family="Courier,monospace" font-size="11.00" fill="#000000">SearchAdmin</text>
</g>
<!-- \\SilverStripe\\Admin\\ModelAdmin -->
<g id="node55" class="node">
<title>\\SilverStripe\\Admin\\ModelAdmin</title>
<ellipse fill="none" stroke="#000000" cx="254.1275" cy="-396.932" rx="165.1707" ry="18"/>
<text text-anchor="middle" x="254.1275" y="-393.232" font-family="Times,serif" font-size="14.00" fill="#c0c0c0">\SilverStripe\Admin\ModelAdmin</text>
</g>
<!-- \\Firesphere\\SolrSearch\\Admins\\SearchAdmin&#45;&gt;\\SilverStripe\\Admin\\ModelAdmin -->
<g id="edge6" class="edge">
<title>\\Firesphere\\SolrSearch\\Admins\\SearchAdmin&#45;&gt;\\SilverStripe\\Admin\\ModelAdmin</title>
<path fill="none" stroke="#000000" d="M627.0481,-2266.8234C607.0173,-2263.3709 585.1714,-2255.6444 572.2549,-2238.932 448.8554,-2079.268 645.8185,-571.5675 508.2549,-423.932 467.2528,-379.9279 398.4145,-374.9565 342.7183,-380.0184"/>
<polygon fill="none" stroke="#000000" points="342.0698,-376.5666 332.4813,-381.0732 342.7873,-383.5298 342.0698,-376.5666"/>
</g>
<!-- \\Firesphere\\SolrSearch\\Models\\SolrLog -->
<g id="node25" class="node">
<title>\\Firesphere\\SolrSearch\\Models\\SolrLog</title>
<polygon fill="none" stroke="#000000" points="704.7549,-2098.932 640.7549,-2098.932 640.7549,-2062.932 704.7549,-2062.932 704.7549,-2098.932"/>
<text text-anchor="middle" x="672.7549" y="-2078.132" font-family="Courier,monospace" font-size="11.00" fill="#000000">SolrLog</text>
</g>
<!-- \\SilverStripe\\ORM\\DataObject -->
<g id="node56" class="node">
<title>\\SilverStripe\\ORM\\DataObject</title>
<ellipse fill="none" stroke="#000000" cx="254.1275" cy="-342.932" rx="152.9733" ry="18"/>
<text text-anchor="middle" x="254.1275" y="-339.232" font-family="Times,serif" font-size="14.00" fill="#c0c0c0">\SilverStripe\ORM\DataObject</text>
</g>
<!-- \\Firesphere\\SolrSearch\\Models\\SolrLog&#45;&gt;\\SilverStripe\\ORM\\DataObject -->
<g id="edge7" class="edge">
<title>\\Firesphere\\SolrSearch\\Models\\SolrLog&#45;&gt;\\SilverStripe\\ORM\\DataObject</title>
<path fill="none" stroke="#000000" d="M640.6216,-2080.586C617.6961,-2078.4611 588.2068,-2071.512 572.2549,-2050.932 457.7466,-1903.2013 635.8672,-506.5028 508.2549,-369.932 466.7634,-325.5277 396.9194,-320.9113 340.9417,-326.2176"/>
<polygon fill="none" stroke="#000000" points="340.2321,-322.7734 330.6608,-327.3165 340.9762,-329.7338 340.2321,-322.7734"/>
</g>
<!-- \\SilverStripe\\Security\\PermissionProvider -->
<g id="node57" class="node">
<title>\\SilverStripe\\Security\\PermissionProvider</title>
<ellipse fill="none" stroke="#000000" cx="254.1275" cy="-288.932" rx="206.0634" ry="18"/>
<text text-anchor="middle" x="254.1275" y="-285.232" font-family="Times,serif" font-size="14.00" fill="#c0c0c0">\SilverStripe\Security\PermissionProvider</text>
</g>
<!-- \\Firesphere\\SolrSearch\\Models\\SolrLog&#45;&gt;\\SilverStripe\\Security\\PermissionProvider -->
<g id="edge8" class="edge">
<title>\\Firesphere\\SolrSearch\\Models\\SolrLog&#45;&gt;\\SilverStripe\\Security\\PermissionProvider</title>
<path fill="none" stroke="#000000" stroke-dasharray="1,5" d="M640.6145,-2080.5915C617.6854,-2078.4694 588.1946,-2071.5214 572.2549,-2050.932 454.1637,-1898.3925 639.8774,-456.9616 508.2549,-315.932 468.5708,-273.4116 402.8919,-267.3584 348.2467,-271.5743"/>
<polygon fill="none" stroke="#000000" points="347.8288,-268.0976 338.1804,-272.4745 348.4524,-275.0698 347.8288,-268.0976"/>
</g>
<!-- \\Firesphere\\SolrSearch\\Models\\DirtyClass -->
<g id="node26" class="node">
<title>\\Firesphere\\SolrSearch\\Models\\DirtyClass</title>
<polygon fill="none" stroke="#000000" points="714.7549,-2152.932 630.7549,-2152.932 630.7549,-2116.932 714.7549,-2116.932 714.7549,-2152.932"/>
<text text-anchor="middle" x="672.7549" y="-2132.132" font-family="Courier,monospace" font-size="11.00" fill="#000000">DirtyClass</text>
</g>
<!-- \\Firesphere\\SolrSearch\\Models\\DirtyClass&#45;&gt;\\SilverStripe\\ORM\\DataObject -->
<g id="edge9" class="edge">
<title>\\Firesphere\\SolrSearch\\Models\\DirtyClass&#45;&gt;\\SilverStripe\\ORM\\DataObject</title>
<path fill="none" stroke="#000000" d="M630.5169,-2134.686C609.6476,-2132.17 586.0429,-2125.2438 572.2549,-2107.932 451.8651,-1956.7739 640.1001,-511.2094 508.2549,-369.932 466.7911,-325.5018 396.9451,-320.8873 340.9597,-326.2008"/>
<polygon fill="none" stroke="#000000" points="340.248,-322.7569 330.6772,-327.3012 340.9929,-329.7172 340.248,-322.7569"/>
</g>
<!-- \\Firesphere\\SolrSearch\\Models\\SearchSynonym -->
<g id="node27" class="node">
<title>\\Firesphere\\SolrSearch\\Models\\SearchSynonym</title>
<polygon fill="none" stroke="#000000" points="724.7549,-2206.932 620.7549,-2206.932 620.7549,-2170.932 724.7549,-2170.932 724.7549,-2206.932"/>
<text text-anchor="middle" x="672.7549" y="-2186.132" font-family="Courier,monospace" font-size="11.00" fill="#000000">SearchSynonym</text>
</g>
<!-- \\Firesphere\\SolrSearch\\Models\\SearchSynonym&#45;&gt;\\SilverStripe\\ORM\\DataObject -->
<g id="edge10" class="edge">
<title>\\Firesphere\\SolrSearch\\Models\\SearchSynonym&#45;&gt;\\SilverStripe\\ORM\\DataObject</title>
<path fill="none" stroke="#000000" d="M620.6471,-2187.1816C602.5518,-2183.7793 583.8962,-2176.5651 572.2549,-2161.932 448.216,-2006.0149 644.1104,-515.6683 508.2549,-369.932 466.6584,-325.3101 396.4372,-320.8315 340.3385,-326.247"/>
<polygon fill="none" stroke="#000000" points="339.9612,-322.7673 330.3958,-327.3229 340.7143,-329.7266 339.9612,-322.7673"/>
</g>
<!-- \\Firesphere\\SolrSearch\\Jobs\\SolrConfigureJob -->
<g id="node28" class="node">
<title>\\Firesphere\\SolrSearch\\Jobs\\SolrConfigureJob</title>
<polygon fill="none" stroke="#000000" points="735.2549,-2018.932 610.2549,-2018.932 610.2549,-1982.932 735.2549,-1982.932 735.2549,-2018.932"/>
<text text-anchor="middle" x="672.7549" y="-1998.132" font-family="Courier,monospace" font-size="11.00" fill="#000000">SolrConfigureJob</text>
</g>
<!-- \\Symbiote\\QueuedJobs\\Services\\AbstractQueuedJob -->
<g id="node58" class="node">
<title>\\Symbiote\\QueuedJobs\\Services\\AbstractQueuedJob</title>
<ellipse fill="none" stroke="#000000" cx="254.1275" cy="-234.932" rx="254.255" ry="18"/>
<text text-anchor="middle" x="254.1275" y="-231.232" font-family="Times,serif" font-size="14.00" fill="#c0c0c0">\Symbiote\QueuedJobs\Services\AbstractQueuedJob</text>
</g>
<!-- \\Firesphere\\SolrSearch\\Jobs\\SolrConfigureJob&#45;&gt;\\Symbiote\\QueuedJobs\\Services\\AbstractQueuedJob -->
<g id="edge11" class="edge">
<title>\\Firesphere\\SolrSearch\\Jobs\\SolrConfigureJob&#45;&gt;\\Symbiote\\QueuedJobs\\Services\\AbstractQueuedJob</title>
<path fill="none" stroke="#000000" d="M610.1623,-1996.7456C595.6171,-1992.7037 581.6565,-1985.7296 572.2549,-1973.932 453.6221,-1825.0652 638.1693,-401.0625 508.2549,-261.932 469.7094,-220.652 406.6625,-213.749 353.0115,-217.2419"/>
<polygon fill="none" stroke="#000000" points="352.4623,-213.774 342.7644,-218.0403 353.0061,-220.7528 352.4623,-213.774"/>
</g>
<!-- \\Firesphere\\SolrSearch\\Jobs\\ClearDirtyClassesJob -->
<g id="node29" class="node">
<title>\\Firesphere\\SolrSearch\\Jobs\\ClearDirtyClassesJob</title>
<polygon fill="none" stroke="#000000" points="748.7549,-1964.932 596.7549,-1964.932 596.7549,-1928.932 748.7549,-1928.932 748.7549,-1964.932"/>
<text text-anchor="middle" x="672.7549" y="-1944.132" font-family="Courier,monospace" font-size="11.00" fill="#000000">ClearDirtyClassesJob</text>
</g>
<!-- \\Firesphere\\SolrSearch\\Jobs\\ClearDirtyClassesJob&#45;&gt;\\Symbiote\\QueuedJobs\\Services\\AbstractQueuedJob -->
<g id="edge12" class="edge">
<title>\\Firesphere\\SolrSearch\\Jobs\\ClearDirtyClassesJob&#45;&gt;\\Symbiote\\QueuedJobs\\Services\\AbstractQueuedJob</title>
<path fill="none" stroke="#000000" d="M596.6264,-1937.9438C587.2227,-1933.7851 578.6777,-1927.9816 572.2549,-1919.932 457.2711,-1775.824 634.1593,-396.6037 508.2549,-261.932 469.6843,-220.6755 406.6373,-213.7726 352.9925,-217.2596"/>
<polygon fill="none" stroke="#000000" points="352.445,-213.7916 342.7467,-218.0569 352.9881,-220.7705 352.445,-213.7916"/>
</g>
<!-- \\Firesphere\\SolrSearch\\Jobs\\SolrIndexJob -->
<g id="node30" class="node">
<title>\\Firesphere\\SolrSearch\\Jobs\\SolrIndexJob</title>
<polygon fill="none" stroke="#000000" points="721.7549,-1910.932 623.7549,-1910.932 623.7549,-1874.932 721.7549,-1874.932 721.7549,-1910.932"/>
<text text-anchor="middle" x="672.7549" y="-1890.132" font-family="Courier,monospace" font-size="11.00" fill="#000000">SolrIndexJob</text>
</g>
<!-- \\Firesphere\\SolrSearch\\Jobs\\SolrIndexJob&#45;&gt;\\Symbiote\\QueuedJobs\\Services\\AbstractQueuedJob -->
<g id="edge13" class="edge">
<title>\\Firesphere\\SolrSearch\\Jobs\\SolrIndexJob&#45;&gt;\\Symbiote\\QueuedJobs\\Services\\AbstractQueuedJob</title>
<path fill="none" stroke="#000000" d="M623.7021,-1890.1737C604.6395,-1886.4439 584.4848,-1878.6792 572.2549,-1862.932 463.0545,-1722.3251 629.9266,-391.8975 508.2549,-261.932 469.7272,-220.778 406.8414,-213.8248 353.268,-217.2606"/>
<polygon fill="none" stroke="#000000" points="352.7368,-213.791 343.0348,-218.0479 353.2739,-220.7704 352.7368,-213.791"/>
</g>
<!-- \\Firesphere\\SolrSearch\\Interfaces\\SiteStateInterface -->
<g id="node32" class="node">
<title>\\Firesphere\\SolrSearch\\Interfaces\\SiteStateInterface</title>
<polygon fill="none" stroke="#000000" points="323.1275,-1455.932 185.1275,-1455.932 185.1275,-1419.932 323.1275,-1419.932 323.1275,-1455.932"/>
<text text-anchor="middle" x="254.1275" y="-1435.132" font-family="Courier,monospace" font-size="11.00" fill="#000000">SiteStateInterface</text>
</g>
<!-- \\Firesphere\\SolrSearch\\Interfaces\\ConfigStore -->
<g id="node33" class="node">
<title>\\Firesphere\\SolrSearch\\Interfaces\\ConfigStore</title>
<polygon fill="none" stroke="#000000" points="299.6275,-1401.932 208.6275,-1401.932 208.6275,-1365.932 299.6275,-1365.932 299.6275,-1401.932"/>
<text text-anchor="middle" x="254.1275" y="-1381.132" font-family="Courier,monospace" font-size="11.00" fill="#000000">ConfigStore</text>
</g>
<!-- \\Firesphere\\SolrSearch\\Tasks\\SolrConfigureTask -->
<g id="node34" class="node">
<title>\\Firesphere\\SolrSearch\\Tasks\\SolrConfigureTask</title>
<polygon fill="none" stroke="#000000" points="738.2549,-1750.932 607.2549,-1750.932 607.2549,-1714.932 738.2549,-1714.932 738.2549,-1750.932"/>
<text text-anchor="middle" x="672.7549" y="-1730.132" font-family="Courier,monospace" font-size="11.00" fill="#000000">SolrConfigureTask</text>
</g>
<!-- \\SilverStripe\\Dev\\BuildTask -->
<g id="node59" class="node">
<title>\\SilverStripe\\Dev\\BuildTask</title>
<ellipse fill="none" stroke="#000000" cx="254.1275" cy="-180.932" rx="139.9756" ry="18"/>
<text text-anchor="middle" x="254.1275" y="-177.232" font-family="Times,serif" font-size="14.00" fill="#c0c0c0">\SilverStripe\Dev\BuildTask</text>
</g>
<!-- \\Firesphere\\SolrSearch\\Tasks\\SolrConfigureTask&#45;&gt;\\SilverStripe\\Dev\\BuildTask -->
<g id="edge14" class="edge">
<title>\\Firesphere\\SolrSearch\\Tasks\\SolrConfigureTask&#45;&gt;\\SilverStripe\\Dev\\BuildTask</title>
<path fill="none" stroke="#000000" d="M607.0799,-1727.7941C593.675,-1723.644 581.0101,-1716.8586 572.2549,-1705.932 468.0821,-1575.923 622.2785,-329.3936 508.2549,-207.932 466.0012,-162.9219 394.6028,-158.8644 338.2254,-164.5385"/>
<polygon fill="none" stroke="#000000" points="337.7896,-161.0653 328.2424,-165.659 338.5705,-168.0217 337.7896,-161.0653"/>
</g>
<!-- \\Firesphere\\SolrSearch\\Tasks\\ClearErrorsTask -->
<g id="node35" class="node">
<title>\\Firesphere\\SolrSearch\\Tasks\\ClearErrorsTask</title>
<polygon fill="none" stroke="#000000" points="731.7549,-1696.932 613.7549,-1696.932 613.7549,-1660.932 731.7549,-1660.932 731.7549,-1696.932"/>
<text text-anchor="middle" x="672.7549" y="-1676.132" font-family="Courier,monospace" font-size="11.00" fill="#000000">ClearErrorsTask</text>
</g>
<!-- \\Firesphere\\SolrSearch\\Tasks\\ClearErrorsTask&#45;&gt;\\SilverStripe\\Dev\\BuildTask -->
<g id="edge15" class="edge">
<title>\\Firesphere\\SolrSearch\\Tasks\\ClearErrorsTask&#45;&gt;\\SilverStripe\\Dev\\BuildTask</title>
<path fill="none" stroke="#000000" d="M613.6234,-1675.5927C597.8752,-1671.7146 582.4324,-1664.6129 572.2549,-1651.932 471.7304,-1526.681 618.2691,-324.9356 508.2549,-207.932 466.037,-163.0318 394.812,-158.9091 338.4897,-164.5308"/>
<polygon fill="none" stroke="#000000" points="338.0663,-161.0563 328.5154,-165.6421 338.8415,-168.0132 338.0663,-161.0563"/>
</g>
<!-- \\Firesphere\\SolrSearch\\Tasks\\SolrIndexTask -->
<g id="node36" class="node">
<title>\\Firesphere\\SolrSearch\\Tasks\\SolrIndexTask</title>
<polygon fill="none" stroke="#000000" points="724.7549,-1642.932 620.7549,-1642.932 620.7549,-1606.932 724.7549,-1606.932 724.7549,-1642.932"/>
<text text-anchor="middle" x="672.7549" y="-1622.132" font-family="Courier,monospace" font-size="11.00" fill="#000000">SolrIndexTask</text>
</g>
<!-- \\Firesphere\\SolrSearch\\Tasks\\SolrIndexTask&#45;&gt;\\SilverStripe\\Dev\\BuildTask -->
<g id="edge16" class="edge">
<title>\\Firesphere\\SolrSearch\\Tasks\\SolrIndexTask&#45;&gt;\\SilverStripe\\Dev\\BuildTask</title>
<path fill="none" stroke="#000000" d="M620.7272,-1623.1175C602.6415,-1619.7076 583.9715,-1612.5049 572.2549,-1597.932 475.3786,-1477.4387 614.26,-320.4778 508.2549,-207.932 465.9984,-163.0681 394.7767,-158.9423 338.4655,-164.5536"/>
<polygon fill="none" stroke="#000000" points="338.0449,-161.0787 328.4932,-165.663 338.8189,-168.0358 338.0449,-161.0787"/>
</g>
<!-- \\Firesphere\\SolrSearch\\Tasks\\ClearDirtyClassesTask -->
<g id="node37" class="node">
<title>\\Firesphere\\SolrSearch\\Tasks\\ClearDirtyClassesTask</title>
<polygon fill="none" stroke="#000000" points="751.7549,-1588.932 593.7549,-1588.932 593.7549,-1552.932 751.7549,-1552.932 751.7549,-1588.932"/>
<text text-anchor="middle" x="672.7549" y="-1568.132" font-family="Courier,monospace" font-size="11.00" fill="#000000">ClearDirtyClassesTask</text>
</g>
<!-- \\Firesphere\\SolrSearch\\Tasks\\ClearDirtyClassesTask&#45;&gt;\\SilverStripe\\Dev\\BuildTask -->
<g id="edge17" class="edge">
<title>\\Firesphere\\SolrSearch\\Tasks\\ClearDirtyClassesTask&#45;&gt;\\SilverStripe\\Dev\\BuildTask</title>
<path fill="none" stroke="#000000" d="M593.646,-1558.0949C585.4133,-1553.8323 577.9804,-1548.2434 572.2549,-1540.932 480.8331,-1424.1864 610.0284,-315.7727 508.2549,-207.932 465.9543,-163.1096 394.7364,-158.9803 338.4379,-164.5797"/>
<polygon fill="none" stroke="#000000" points="338.0206,-161.1044 328.468,-165.6868 338.7932,-168.0617 338.0206,-161.1044"/>
</g>
<!-- \\Firesphere\\SolrSearch\\Stores\\PostConfigStore -->
<g id="node39" class="node">
<title>\\Firesphere\\SolrSearch\\Stores\\PostConfigStore</title>
<polygon fill="none" stroke="#000000" points="731.7549,-1428.932 613.7549,-1428.932 613.7549,-1392.932 731.7549,-1392.932 731.7549,-1428.932"/>
<text text-anchor="middle" x="672.7549" y="-1408.132" font-family="Courier,monospace" font-size="11.00" fill="#000000">PostConfigStore</text>
</g>
<!-- \\Firesphere\\SolrSearch\\Stores\\PostConfigStore&#45;&gt;\\Firesphere\\SolrSearch\\Interfaces\\ConfigStore -->
<g id="edge18" class="edge">
<title>\\Firesphere\\SolrSearch\\Stores\\PostConfigStore&#45;&gt;\\Firesphere\\SolrSearch\\Interfaces\\ConfigStore</title>
<path fill="none" stroke="#000000" stroke-dasharray="1,5" d="M613.6637,-1407.1208C532.8854,-1401.9109 389.0185,-1392.632 309.9722,-1387.5338"/>
<polygon fill="none" stroke="#000000" points="309.9333,-1384.0241 299.7287,-1386.8731 309.4827,-1391.0096 309.9333,-1384.0241"/>
</g>
<!-- \\Firesphere\\SolrSearch\\Stores\\FileConfigStore -->
<g id="node40" class="node">
<title>\\Firesphere\\SolrSearch\\Stores\\FileConfigStore</title>
<polygon fill="none" stroke="#000000" points="731.7549,-1374.932 613.7549,-1374.932 613.7549,-1338.932 731.7549,-1338.932 731.7549,-1374.932"/>
<text text-anchor="middle" x="672.7549" y="-1354.132" font-family="Courier,monospace" font-size="11.00" fill="#000000">FileConfigStore</text>
</g>
<!-- \\Firesphere\\SolrSearch\\Stores\\FileConfigStore&#45;&gt;\\Firesphere\\SolrSearch\\Interfaces\\ConfigStore -->
<g id="edge19" class="edge">
<title>\\Firesphere\\SolrSearch\\Stores\\FileConfigStore&#45;&gt;\\Firesphere\\SolrSearch\\Interfaces\\ConfigStore</title>
<path fill="none" stroke="#000000" stroke-dasharray="1,5" d="M613.6637,-1360.7431C532.8854,-1365.9531 389.0185,-1375.232 309.9722,-1380.3302"/>
<polygon fill="none" stroke="#000000" points="309.4827,-1376.8544 299.7287,-1380.9908 309.9333,-1383.8399 309.4827,-1376.8544"/>
</g>
<!-- \\Firesphere\\SolrSearch\\Services\\SolrCoreService -->
<g id="node41" class="node">
<title>\\Firesphere\\SolrSearch\\Services\\SolrCoreService</title>
<polygon fill="none" stroke="#000000" points="731.7549,-1294.932 613.7549,-1294.932 613.7549,-1258.932 731.7549,-1258.932 731.7549,-1294.932"/>
<text text-anchor="middle" x="672.7549" y="-1274.132" font-family="Courier,monospace" font-size="11.00" fill="#000000">SolrCoreService</text>
</g>
<!-- \\Firesphere\\SolrSearch\\Services\\SchemaService -->
<g id="node42" class="node">
<title>\\Firesphere\\SolrSearch\\Services\\SchemaService</title>
<polygon fill="none" stroke="#000000" points="724.7549,-1240.932 620.7549,-1240.932 620.7549,-1204.932 724.7549,-1204.932 724.7549,-1240.932"/>
<text text-anchor="middle" x="672.7549" y="-1220.132" font-family="Courier,monospace" font-size="11.00" fill="#000000">SchemaService</text>
</g>
<!-- \\SilverStripe\\View\\ViewableData -->
<g id="node60" class="node">
<title>\\SilverStripe\\View\\ViewableData</title>
<ellipse fill="none" stroke="#000000" cx="254.1275" cy="-126.932" rx="163.2712" ry="18"/>
<text text-anchor="middle" x="254.1275" y="-123.232" font-family="Times,serif" font-size="14.00" fill="#c0c0c0">\SilverStripe\View\ViewableData</text>
</g>
<!-- \\Firesphere\\SolrSearch\\Services\\SchemaService&#45;&gt;\\SilverStripe\\View\\ViewableData -->
<g id="edge20" class="edge">
<title>\\Firesphere\\SolrSearch\\Services\\SchemaService&#45;&gt;\\SilverStripe\\View\\ViewableData</title>
<path fill="none" stroke="#000000" d="M620.7303,-1219.39C602.645,-1215.4194 583.9745,-1207.6908 572.2549,-1192.932 428.4024,-1011.7735 668.1621,-321.0895 508.2549,-153.932 467.1114,-110.923 399.3044,-105.5753 344.0767,-110.2284"/>
<polygon fill="none" stroke="#000000" points="343.5384,-106.7639 333.9201,-111.2067 344.2097,-113.7317 343.5384,-106.7639"/>
</g>
<!-- \\Firesphere\\SolrSearch\\States\\SiteState -->
<g id="node43" class="node">
<title>\\Firesphere\\SolrSearch\\States\\SiteState</title>
<polygon fill="none" stroke="#000000" points="714.7549,-1160.932 630.7549,-1160.932 630.7549,-1124.932 714.7549,-1124.932 714.7549,-1160.932"/>
<text text-anchor="start" x="638.7549" y="-1146.132" font-family="Courier,monospace" font-size="11.00" fill="#000000">«abstract»</text>
<text text-anchor="start" x="642.2549" y="-1134.132" font-family="Courier,monospace" font-size="11.00" fill="#000000">SiteState</text>
</g>
<!-- \\Firesphere\\SolrSearch\\Results\\SearchResult -->
<g id="node44" class="node">
<title>\\Firesphere\\SolrSearch\\Results\\SearchResult</title>
<polygon fill="none" stroke="#000000" points="721.7549,-1080.932 623.7549,-1080.932 623.7549,-1044.932 721.7549,-1044.932 721.7549,-1080.932"/>
<text text-anchor="middle" x="672.7549" y="-1060.132" font-family="Courier,monospace" font-size="11.00" fill="#000000">SearchResult</text>
</g>
<!-- \\Firesphere\\SolrSearch\\Forms\\SearchForm -->
<g id="node45" class="node">
<title>\\Firesphere\\SolrSearch\\Forms\\SearchForm</title>
<polygon fill="none" stroke="#000000" points="714.7549,-1000.932 630.7549,-1000.932 630.7549,-964.932 714.7549,-964.932 714.7549,-1000.932"/>
<text text-anchor="middle" x="672.7549" y="-980.132" font-family="Courier,monospace" font-size="11.00" fill="#000000">SearchForm</text>
</g>
<!-- \\SilverStripe\\Forms\\Form -->
<g id="node61" class="node">
<title>\\SilverStripe\\Forms\\Form</title>
<ellipse fill="none" stroke="#000000" cx="254.1275" cy="-72.932" rx="129.1772" ry="18"/>
<text text-anchor="middle" x="254.1275" y="-69.232" font-family="Times,serif" font-size="14.00" fill="#c0c0c0">\SilverStripe\Forms\Form</text>
</g>
<!-- \\Firesphere\\SolrSearch\\Forms\\SearchForm&#45;&gt;\\SilverStripe\\Forms\\Form -->
<g id="edge21" class="edge">
<title>\\Firesphere\\SolrSearch\\Forms\\SearchForm&#45;&gt;\\SilverStripe\\Forms\\Form</title>
<path fill="none" stroke="#000000" d="M630.6796,-981.141C609.8556,-977.923 586.2423,-970.3071 572.2549,-952.932 453.0543,-804.8618 640.5709,-236.4092 508.2549,-99.932 465.2094,-55.5327 393.7046,-51.4768 337.4905,-56.9952"/>
<polygon fill="none" stroke="#000000" points="337.0988,-53.517 327.5398,-58.0861 337.8617,-60.4754 337.0988,-53.517"/>
</g>
<!-- \\Firesphere\\SolrSearch\\Helpers\\SolrLogger -->
<g id="node46" class="node">
<title>\\Firesphere\\SolrSearch\\Helpers\\SolrLogger</title>
<polygon fill="none" stroke="#000000" points="714.7549,-920.932 630.7549,-920.932 630.7549,-884.932 714.7549,-884.932 714.7549,-920.932"/>
<text text-anchor="middle" x="672.7549" y="-900.132" font-family="Courier,monospace" font-size="11.00" fill="#000000">SolrLogger</text>
</g>
<!-- \\Firesphere\\SolrSearch\\Helpers\\DataResolver -->
<g id="node47" class="node">
<title>\\Firesphere\\SolrSearch\\Helpers\\DataResolver</title>
<polygon fill="none" stroke="#000000" points="721.7549,-866.932 623.7549,-866.932 623.7549,-830.932 721.7549,-830.932 721.7549,-866.932"/>
<text text-anchor="middle" x="672.7549" y="-846.132" font-family="Courier,monospace" font-size="11.00" fill="#000000">DataResolver</text>
</g>
<!-- \\Firesphere\\SolrSearch\\Helpers\\Statics -->
<g id="node48" class="node">
<title>\\Firesphere\\SolrSearch\\Helpers\\Statics</title>
<polygon fill="none" stroke="#000000" points="704.7549,-812.932 640.7549,-812.932 640.7549,-776.932 704.7549,-776.932 704.7549,-812.932"/>
<text text-anchor="middle" x="672.7549" y="-792.132" font-family="Courier,monospace" font-size="11.00" fill="#000000">Statics</text>
</g>
<!-- \\Firesphere\\SolrSearch\\Helpers\\FieldResolver -->
<g id="node49" class="node">
<title>\\Firesphere\\SolrSearch\\Helpers\\FieldResolver</title>
<polygon fill="none" stroke="#000000" points="724.7549,-758.932 620.7549,-758.932 620.7549,-722.932 724.7549,-722.932 724.7549,-758.932"/>
<text text-anchor="middle" x="672.7549" y="-738.132" font-family="Courier,monospace" font-size="11.00" fill="#000000">FieldResolver</text>
</g>
<!-- \\Firesphere\\SolrSearch\\Helpers\\Synonyms -->
<g id="node50" class="node">
<title>\\Firesphere\\SolrSearch\\Helpers\\Synonyms</title>
<polygon fill="none" stroke="#000000" points="708.2549,-704.932 637.2549,-704.932 637.2549,-668.932 708.2549,-668.932 708.2549,-704.932"/>
<text text-anchor="middle" x="672.7549" y="-684.132" font-family="Courier,monospace" font-size="11.00" fill="#000000">Synonyms</text>
</g>
<!-- \\Firesphere\\SolrSearch\\Fluent\\FluentExtension -->
<g id="node51" class="node">
<title>\\Firesphere\\SolrSearch\\Fluent\\FluentExtension</title>
<polygon fill="none" stroke="#000000" points="731.7549,-624.932 613.7549,-624.932 613.7549,-588.932 731.7549,-588.932 731.7549,-624.932"/>
<text text-anchor="middle" x="672.7549" y="-604.132" font-family="Courier,monospace" font-size="11.00" fill="#000000">FluentExtension</text>
</g>
<!-- \\Firesphere\\SolrSearch\\Fluent\\FluentExtension&#45;&gt;\\SilverStripe\\Core\\Extension -->
<g id="edge22" class="edge">
<title>\\Firesphere\\SolrSearch\\Fluent\\FluentExtension&#45;&gt;\\SilverStripe\\Core\\Extension</title>
<path fill="none" stroke="#000000" d="M613.4926,-590.1753C599.8732,-586.0663 585.5026,-581.523 572.2549,-576.932 476.352,-543.6967 366.7546,-498.6986 304.4624,-472.4438"/>
<polygon fill="none" stroke="#000000" points="305.4542,-469.0633 294.8804,-468.3957 302.73,-475.5115 305.4542,-469.0633"/>
</g>
<!-- \\Firesphere\\SolrSearch\\Subsites\\SubsitesExtension -->
<g id="node52" class="node">
<title>\\Firesphere\\SolrSearch\\Subsites\\SubsitesExtension</title>
<polygon fill="none" stroke="#000000" points="738.2549,-544.932 607.2549,-544.932 607.2549,-508.932 738.2549,-508.932 738.2549,-544.932"/>
<text text-anchor="middle" x="672.7549" y="-524.132" font-family="Courier,monospace" font-size="11.00" fill="#000000">SubsitesExtension</text>
</g>
<!-- \\Firesphere\\SolrSearch\\Subsites\\SubsitesExtension&#45;&gt;\\SilverStripe\\ORM\\DataExtension -->
<g id="edge23" class="edge">
<title>\\Firesphere\\SolrSearch\\Subsites\\SubsitesExtension&#45;&gt;\\SilverStripe\\ORM\\DataExtension</title>
<path fill="none" stroke="#000000" d="M669.255,-508.887C653.3631,-428.8935 585.4274,-107.5206 508.2549,-45.932 471.5859,-16.6678 421.8522,-6.9723 376.1027,-5.6726"/>
<polygon fill="none" stroke="#000000" points="376.1562,-2.1731 366.1032,-5.5177 376.0477,-9.1723 376.1562,-2.1731"/>
</g>
</g>
</svg>
