<?xml version="1.0" encoding="UTF-8" standalone="no"?>
<!DOCTYPE svg PUBLIC "-//W3C//DTD SVG 1.1//EN"
 "http://www.w3.org/Graphics/SVG/1.1/DTD/svg11.dtd">
<!-- Generated by graphviz version 2.38.0 (20140413.2041)
 -->
<!-- Title: G Pages: 1 -->
<svg width="1005pt" height="2820pt"
 viewBox="0.00 0.00 1004.64 2820.00" xmlns="http://www.w3.org/2000/svg" xmlns:xlink="http://www.w3.org/1999/xlink">
<g id="graph0" class="graph" transform="scale(1 1) rotate(0) translate(4 2816)">
<title>G</title>
<polygon fill="white" stroke="none" points="-4,4 -4,-2816 1000.64,-2816 1000.64,4 -4,4"/>
<g id="clust1" class="cluster"><title>cluster_Global</title>
<path fill="none" stroke="gray" d="M130.783,-476C130.783,-476 976.637,-476 976.637,-476 982.637,-476 988.637,-482 988.637,-488 988.637,-488 988.637,-2792 988.637,-2792 988.637,-2798 982.637,-2804 976.637,-2804 976.637,-2804 130.783,-2804 130.783,-2804 124.783,-2804 118.783,-2798 118.783,-2792 118.783,-2792 118.783,-488 118.783,-488 118.783,-482 124.783,-476 130.783,-476"/>
<text text-anchor="middle" x="553.71" y="-2791.2" font-family="Times,serif" font-size="11.00" fill="gray">Global</text>
</g>
<g id="clust2" class="cluster"><title>cluster_\Firesphere</title>
<path fill="none" stroke="gray" d="M138.783,-484C138.783,-484 729.601,-484 729.601,-484 735.601,-484 741.601,-490 741.601,-496 741.601,-496 741.601,-2764 741.601,-2764 741.601,-2770 735.601,-2776 729.601,-2776 729.601,-2776 138.783,-2776 138.783,-2776 132.783,-2776 126.783,-2770 126.783,-2764 126.783,-2764 126.783,-496 126.783,-496 126.783,-490 132.783,-484 138.783,-484"/>
<text text-anchor="middle" x="434.192" y="-2763.2" font-family="Times,serif" font-size="11.00" fill="gray">Firesphere</text>
</g>
<g id="clust3" class="cluster"><title>cluster_\Firesphere\SolrSearch</title>
<path fill="none" stroke="gray" d="M146.783,-492C146.783,-492 721.601,-492 721.601,-492 727.601,-492 733.601,-498 733.601,-504 733.601,-504 733.601,-2736 733.601,-2736 733.601,-2742 727.601,-2748 721.601,-2748 721.601,-2748 146.783,-2748 146.783,-2748 140.783,-2748 134.783,-2742 134.783,-2736 134.783,-2736 134.783,-504 134.783,-504 134.783,-498 140.783,-492 146.783,-492"/>
<text text-anchor="middle" x="434.192" y="-2735.2" font-family="Times,serif" font-size="11.00" fill="gray">SolrSearch</text>
</g>
<g id="clust4" class="cluster"><title>cluster_\Firesphere\SolrSearch\Compat</title>
<path fill="none" stroke="gray" d="M543.101,-2540C543.101,-2540 707.101,-2540 707.101,-2540 713.101,-2540 719.101,-2546 719.101,-2552 719.101,-2552 719.101,-2708 719.101,-2708 719.101,-2714 713.101,-2720 707.101,-2720 707.101,-2720 543.101,-2720 543.101,-2720 537.101,-2720 531.101,-2714 531.101,-2708 531.101,-2708 531.101,-2552 531.101,-2552 531.101,-2546 537.101,-2540 543.101,-2540"/>
<text text-anchor="middle" x="625.101" y="-2707.2" font-family="Times,serif" font-size="11.00" fill="gray">Compat</text>
</g>
<g id="clust5" class="cluster"><title>cluster_\Firesphere\SolrSearch\Traits</title>
<path fill="none" stroke="gray" d="M536.601,-1866C536.601,-1866 713.601,-1866 713.601,-1866 719.601,-1866 725.601,-1872 725.601,-1878 725.601,-1878 725.601,-2520 725.601,-2520 725.601,-2526 719.601,-2532 713.601,-2532 713.601,-2532 536.601,-2532 536.601,-2532 530.601,-2532 524.601,-2526 524.601,-2520 524.601,-2520 524.601,-1878 524.601,-1878 524.601,-1872 530.601,-1866 536.601,-1866"/>
<text text-anchor="middle" x="625.101" y="-2519.2" font-family="Times,serif" font-size="11.00" fill="gray">Traits</text>
</g>
<g id="clust6" class="cluster"><title>cluster_\Firesphere\SolrSearch\Models</title>
<path fill="none" stroke="gray" d="M587.101,-1732C587.101,-1732 663.101,-1732 663.101,-1732 669.101,-1732 675.101,-1738 675.101,-1744 675.101,-1744 675.101,-1846 675.101,-1846 675.101,-1852 669.101,-1858 663.101,-1858 663.101,-1858 587.101,-1858 587.101,-1858 581.101,-1858 575.101,-1852 575.101,-1846 575.101,-1846 575.101,-1744 575.101,-1744 575.101,-1738 581.101,-1732 587.101,-1732"/>
<text text-anchor="middle" x="625.101" y="-1845.2" font-family="Times,serif" font-size="11.00" fill="gray">Models</text>
</g>
<g id="clust7" class="cluster"><title>cluster_\Firesphere\SolrSearch\Helpers</title>
<path fill="none" stroke="gray" d="M577.101,-1436C577.101,-1436 673.101,-1436 673.101,-1436 679.101,-1436 685.101,-1442 685.101,-1448 685.101,-1448 685.101,-1712 685.101,-1712 685.101,-1718 679.101,-1724 673.101,-1724 673.101,-1724 577.101,-1724 577.101,-1724 571.101,-1724 565.101,-1718 565.101,-1712 565.101,-1712 565.101,-1448 565.101,-1448 565.101,-1442 571.101,-1436 577.101,-1436"/>
<text text-anchor="middle" x="625.101" y="-1711.2" font-family="Times,serif" font-size="11.00" fill="gray">Helpers</text>
</g>
<g id="clust8" class="cluster"><title>cluster_\Firesphere\SolrSearch\Tasks</title>
<path fill="none" stroke="gray" d="M550.101,-1168C550.101,-1168 700.101,-1168 700.101,-1168 706.101,-1168 712.101,-1174 712.101,-1180 712.101,-1180 712.101,-1282 712.101,-1282 712.101,-1288 706.101,-1294 700.101,-1294 700.101,-1294 550.101,-1294 550.101,-1294 544.101,-1294 538.101,-1288 538.101,-1282 538.101,-1282 538.101,-1180 538.101,-1180 538.101,-1174 544.101,-1168 550.101,-1168"/>
<text text-anchor="middle" x="625.101" y="-1281.2" font-family="Times,serif" font-size="11.00" fill="gray">Tasks</text>
</g>
<g id="clust9" class="cluster"><title>cluster_\Firesphere\SolrSearch\Stores</title>
<path fill="none" stroke="gray" d="M570.101,-1302C570.101,-1302 680.101,-1302 680.101,-1302 686.101,-1302 692.101,-1308 692.101,-1314 692.101,-1314 692.101,-1416 692.101,-1416 692.101,-1422 686.101,-1428 680.101,-1428 680.101,-1428 570.101,-1428 570.101,-1428 564.101,-1428 558.101,-1422 558.101,-1416 558.101,-1416 558.101,-1314 558.101,-1314 558.101,-1308 564.101,-1302 570.101,-1302"/>
<text text-anchor="middle" x="625.101" y="-1415.2" font-family="Times,serif" font-size="11.00" fill="gray">Stores</text>
</g>
<g id="clust10" class="cluster"><title>cluster_\Firesphere\SolrSearch\Factories</title>
<path fill="none" stroke="gray" d="M570.101,-1088C570.101,-1088 680.101,-1088 680.101,-1088 686.101,-1088 692.101,-1094 692.101,-1100 692.101,-1100 692.101,-1148 692.101,-1148 692.101,-1154 686.101,-1160 680.101,-1160 680.101,-1160 570.101,-1160 570.101,-1160 564.101,-1160 558.101,-1154 558.101,-1148 558.101,-1148 558.101,-1100 558.101,-1100 558.101,-1094 564.101,-1088 570.101,-1088"/>
<text text-anchor="middle" x="625.101" y="-1147.2" font-family="Times,serif" font-size="11.00" fill="gray">Factories</text>
</g>
<g id="clust11" class="cluster"><title>cluster_\Firesphere\SolrSearch\Extensions</title>
<path fill="none" stroke="gray" d="M556.601,-954C556.601,-954 693.601,-954 693.601,-954 699.601,-954 705.601,-960 705.601,-966 705.601,-966 705.601,-1068 705.601,-1068 705.601,-1074 699.601,-1080 693.601,-1080 693.601,-1080 556.601,-1080 556.601,-1080 550.601,-1080 544.601,-1074 544.601,-1068 544.601,-1068 544.601,-966 544.601,-966 544.601,-960 550.601,-954 556.601,-954"/>
<text text-anchor="middle" x="625.101" y="-1067.2" font-family="Times,serif" font-size="11.00" fill="gray">Extensions</text>
</g>
<g id="clust12" class="cluster"><title>cluster_\Firesphere\SolrSearch\Admins</title>
<path fill="none" stroke="gray" d="M583.601,-874C583.601,-874 666.601,-874 666.601,-874 672.601,-874 678.601,-880 678.601,-886 678.601,-886 678.601,-934 678.601,-934 678.601,-940 672.601,-946 666.601,-946 666.601,-946 583.601,-946 583.601,-946 577.601,-946 571.601,-940 571.601,-934 571.601,-934 571.601,-886 571.601,-886 571.601,-880 577.601,-874 583.601,-874"/>
<text text-anchor="middle" x="625.101" y="-933.2" font-family="Times,serif" font-size="11.00" fill="gray">Admins</text>
</g>
<g id="clust13" class="cluster"><title>cluster_\Firesphere\SolrSearch\Services</title>
<path fill="none" stroke="gray" d="M577.101,-794C577.101,-794 673.101,-794 673.101,-794 679.101,-794 685.101,-800 685.101,-806 685.101,-806 685.101,-854 685.101,-854 685.101,-860 679.101,-866 673.101,-866 673.101,-866 577.101,-866 577.101,-866 571.101,-866 565.101,-860 565.101,-854 565.101,-854 565.101,-806 565.101,-806 565.101,-800 571.101,-794 577.101,-794"/>
<text text-anchor="middle" x="625.101" y="-853.2" font-family="Times,serif" font-size="11.00" fill="gray">Services</text>
</g>
<g id="clust14" class="cluster"><title>cluster_\Firesphere\SolrSearch\Interfaces</title>
<path fill="none" stroke="gray" d="M154.783,-1329C154.783,-1329 237.783,-1329 237.783,-1329 243.783,-1329 249.783,-1335 249.783,-1341 249.783,-1341 249.783,-1389 249.783,-1389 249.783,-1395 243.783,-1401 237.783,-1401 237.783,-1401 154.783,-1401 154.783,-1401 148.783,-1401 142.783,-1395 142.783,-1389 142.783,-1389 142.783,-1341 142.783,-1341 142.783,-1335 148.783,-1329 154.783,-1329"/>
<text text-anchor="middle" x="196.283" y="-1388.2" font-family="Times,serif" font-size="11.00" fill="gray">Interfaces</text>
</g>
<g id="clust15" class="cluster"><title>cluster_\Firesphere\SolrSearch\Jobs</title>
<path fill="none" stroke="gray" d="M553.101,-660C553.101,-660 697.101,-660 697.101,-660 703.101,-660 709.101,-666 709.101,-672 709.101,-672 709.101,-774 709.101,-774 709.101,-780 703.101,-786 697.101,-786 697.101,-786 553.101,-786 553.101,-786 547.101,-786 541.101,-780 541.101,-774 541.101,-774 541.101,-672 541.101,-672 541.101,-666 547.101,-660 553.101,-660"/>
<text text-anchor="middle" x="625.101" y="-773.2" font-family="Times,serif" font-size="11.00" fill="gray">Jobs</text>
</g>
<g id="clust16" class="cluster"><title>cluster_\Firesphere\SolrSearch\Queries</title>
<path fill="none" stroke="gray" d="M590.601,-580C590.601,-580 659.601,-580 659.601,-580 665.601,-580 671.601,-586 671.601,-592 671.601,-592 671.601,-640 671.601,-640 671.601,-646 665.601,-652 659.601,-652 659.601,-652 590.601,-652 590.601,-652 584.601,-652 578.601,-646 578.601,-640 578.601,-640 578.601,-592 578.601,-592 578.601,-586 584.601,-580 590.601,-580"/>
<text text-anchor="middle" x="625.101" y="-639.2" font-family="Times,serif" font-size="11.00" fill="gray">Queries</text>
</g>
<g id="clust17" class="cluster"><title>cluster_\Firesphere\SolrSearch\Forms</title>
<path fill="none" stroke="gray" d="M587.101,-500C587.101,-500 663.101,-500 663.101,-500 669.101,-500 675.101,-506 675.101,-512 675.101,-512 675.101,-560 675.101,-560 675.101,-566 669.101,-572 663.101,-572 663.101,-572 587.101,-572 587.101,-572 581.101,-572 575.101,-566 575.101,-560 575.101,-560 575.101,-512 575.101,-512 575.101,-506 581.101,-500 587.101,-500"/>
<text text-anchor="middle" x="625.101" y="-559.2" font-family="Times,serif" font-size="11.00" fill="gray">Forms</text>
</g>
<g id="clust18" class="cluster"><title>cluster_\SilverStripe</title>
<path fill="none" stroke="gray" d="M837.637,-484C837.637,-484 968.637,-484 968.637,-484 974.637,-484 980.637,-490 980.637,-496 980.637,-496 980.637,-786 980.637,-786 980.637,-792 974.637,-798 968.637,-798 968.637,-798 837.637,-798 837.637,-798 831.637,-798 825.637,-792 825.637,-786 825.637,-786 825.637,-496 825.637,-496 825.637,-490 831.637,-484 837.637,-484"/>
<text text-anchor="middle" x="903.137" y="-785.2" font-family="Times,serif" font-size="11.00" fill="gray">SilverStripe</text>
</g>
<g id="clust19" class="cluster"><title>cluster_\SilverStripe\FullTextSearch</title>
<path fill="none" stroke="gray" d="M845.637,-492C845.637,-492 960.637,-492 960.637,-492 966.637,-492 972.637,-498 972.637,-504 972.637,-504 972.637,-758 972.637,-758 972.637,-764 966.637,-770 960.637,-770 960.637,-770 845.637,-770 845.637,-770 839.637,-770 833.637,-764 833.637,-758 833.637,-758 833.637,-504 833.637,-504 833.637,-498 839.637,-492 845.637,-492"/>
<text text-anchor="middle" x="903.137" y="-757.2" font-family="Times,serif" font-size="11.00" fill="gray">FullTextSearch</text>
</g>
<g id="clust20" class="cluster"><title>cluster_\SilverStripe\FullTextSearch\Search</title>
<path fill="none" stroke="gray" d="M853.637,-634C853.637,-634 952.637,-634 952.637,-634 958.637,-634 964.637,-640 964.637,-646 964.637,-646 964.637,-730 964.637,-730 964.637,-736 958.637,-742 952.637,-742 952.637,-742 853.637,-742 853.637,-742 847.637,-742 841.637,-736 841.637,-730 841.637,-730 841.637,-646 841.637,-646 841.637,-640 847.637,-634 853.637,-634"/>
<text text-anchor="middle" x="903.137" y="-729.2" font-family="Times,serif" font-size="11.00" fill="gray">Search</text>
</g>
<g id="clust21" class="cluster"><title>cluster_\SilverStripe\FullTextSearch\Search\Queries</title>
<path fill="none" stroke="gray" d="M861.637,-642C861.637,-642 944.637,-642 944.637,-642 950.637,-642 956.637,-648 956.637,-654 956.637,-654 956.637,-702 956.637,-702 956.637,-708 950.637,-714 944.637,-714 944.637,-714 861.637,-714 861.637,-714 855.637,-714 849.637,-708 849.637,-702 849.637,-702 849.637,-654 849.637,-654 849.637,-648 855.637,-642 861.637,-642"/>
<text text-anchor="middle" x="903.137" y="-701.2" font-family="Times,serif" font-size="11.00" fill="gray">Queries</text>
</g>
<g id="clust22" class="cluster"><title>cluster_\SilverStripe\FullTextSearch\Solr</title>
<path fill="none" stroke="gray" d="M865.137,-500C865.137,-500 941.137,-500 941.137,-500 947.137,-500 953.137,-506 953.137,-512 953.137,-512 953.137,-614 953.137,-614 953.137,-620 947.137,-626 941.137,-626 941.137,-626 865.137,-626 865.137,-626 859.137,-626 853.137,-620 853.137,-614 853.137,-614 853.137,-512 853.137,-512 853.137,-506 859.137,-500 865.137,-500"/>
<text text-anchor="middle" x="903.137" y="-613.2" font-family="Times,serif" font-size="11.00" fill="gray">Solr</text>
</g>
<!-- \\Firesphere\\SolrSearch\\Compat\\FluentExtension -->
<g id="node1" class="node"><title>\\Firesphere\\SolrSearch\\Compat\\FluentExtension</title>
<polygon fill="none" stroke="black" points="684.101,-2692 566.101,-2692 566.101,-2656 684.101,-2656 684.101,-2692"/>
<text text-anchor="middle" x="625.101" y="-2671.2" font-family="Courier,monospace" font-size="11.00">FluentExtension</text>
</g>
<!-- \\SilverStripe\\Core\\Extension -->
<g id="node40" class="node"><title>\\SilverStripe\\Core\\Extension</title>
<ellipse fill="none" stroke="black" cx="196.283" cy="-450" rx="112.38" ry="18"/>
<text text-anchor="middle" x="196.283" y="-446.3" font-family="Times,serif" font-size="14.00" fill="gray">\SilverStripe\Core\Extension</text>
</g>
<!-- \\Firesphere\\SolrSearch\\Compat\\FluentExtension&#45;&gt;\\SilverStripe\\Core\\Extension -->
<g id="edge1" class="edge"><title>\\Firesphere\\SolrSearch\\Compat\\FluentExtension&#45;&gt;\\SilverStripe\\Core\\Extension</title>
<path fill="none" stroke="black" d="M565.844,-2680.6C531.219,-2681.02 489.353,-2674.77 464.565,-2647 366.598,-2537.26 412.655,-1470.73 392.565,-1325 345.971,-987.017 235.995,-586.309 205.34,-478.092"/>
<polygon fill="none" stroke="black" points="208.648,-476.929 202.546,-468.267 201.915,-478.843 208.648,-476.929"/>
</g>
<!-- \\Firesphere\\SolrSearch\\Compat\\FulltextSearchExtension -->
<g id="node2" class="node"><title>\\Firesphere\\SolrSearch\\Compat\\FulltextSearchExtension</title>
<polygon fill="none" stroke="black" points="711.101,-2638 539.101,-2638 539.101,-2602 711.101,-2602 711.101,-2638"/>
<text text-anchor="middle" x="625.101" y="-2617.2" font-family="Courier,monospace" font-size="11.00">FulltextSearchExtension</text>
</g>
<!-- \\Firesphere\\SolrSearch\\Compat\\FulltextSearchExtension&#45;&gt;\\SilverStripe\\Core\\Extension -->
<g id="edge7" class="edge"><title>\\Firesphere\\SolrSearch\\Compat\\FulltextSearchExtension&#45;&gt;\\SilverStripe\\Core\\Extension</title>
<path fill="none" stroke="black" d="M539.028,-2625.42C511.453,-2622.55 483.203,-2613.83 464.565,-2593 370.466,-2487.84 411.999,-1464.77 392.565,-1325 345.581,-987.071 235.882,-586.325 205.315,-478.095"/>
<polygon fill="none" stroke="black" points="208.625,-476.936 202.53,-468.269 201.89,-478.845 208.625,-476.936"/>
</g>
<!-- \\Firesphere\\SolrSearch\\Compat\\SubsitesExtension -->
<g id="node3" class="node"><title>\\Firesphere\\SolrSearch\\Compat\\SubsitesExtension</title>
<polygon fill="none" stroke="black" points="690.601,-2584 559.601,-2584 559.601,-2548 690.601,-2548 690.601,-2584"/>
<text text-anchor="middle" x="625.101" y="-2563.2" font-family="Courier,monospace" font-size="11.00">SubsitesExtension</text>
</g>
<!-- \\SilverStripe\\ORM\\DataExtension -->
<g id="node48" class="node"><title>\\SilverStripe\\ORM\\DataExtension</title>
<ellipse fill="none" stroke="black" cx="196.283" cy="-288" rx="131.877" ry="18"/>
<text text-anchor="middle" x="196.283" y="-284.3" font-family="Times,serif" font-size="14.00" fill="gray">\SilverStripe\ORM\DataExtension</text>
</g>
<!-- \\Firesphere\\SolrSearch\\Compat\\SubsitesExtension&#45;&gt;\\SilverStripe\\ORM\\DataExtension -->
<g id="edge15" class="edge"><title>\\Firesphere\\SolrSearch\\Compat\\SubsitesExtension&#45;&gt;\\SilverStripe\\ORM\\DataExtension</title>
<path fill="none" stroke="black" d="M559.54,-2571.48C526.066,-2570.53 487.492,-2562.75 464.565,-2536 303.873,-2348.54 557.754,-498.51 392.565,-315 373.004,-293.269 344.752,-283.035 315.787,-279.044"/>
<polygon fill="none" stroke="black" points="315.856,-275.53 305.526,-277.885 315.069,-282.486 315.856,-275.53"/>
</g>
<!-- \\Firesphere\\SolrSearch\\Traits\\BaseQueryTrait -->
<g id="node4" class="node"><title>\\Firesphere\\SolrSearch\\Traits\\BaseQueryTrait</title>
<polygon fill="none" stroke="black" points="680.601,-2504 569.601,-2504 569.601,-2468 680.601,-2468 680.601,-2504"/>
<text text-anchor="middle" x="625.101" y="-2483.2" font-family="Courier,monospace" font-size="11.00">BaseQueryTrait</text>
</g>
<!-- \\Firesphere\\SolrSearch\\Traits\\BaseIndexTrait -->
<g id="node5" class="node"><title>\\Firesphere\\SolrSearch\\Traits\\BaseIndexTrait</title>
<polygon fill="none" stroke="black" points="680.601,-2450 569.601,-2450 569.601,-2414 680.601,-2414 680.601,-2450"/>
<text text-anchor="middle" x="625.101" y="-2429.2" font-family="Courier,monospace" font-size="11.00">BaseIndexTrait</text>
</g>
<!-- \\Firesphere\\SolrSearch\\Traits\\DocumentFactoryTrait -->
<g id="node6" class="node"><title>\\Firesphere\\SolrSearch\\Traits\\DocumentFactoryTrait</title>
<polygon fill="none" stroke="black" points="701.101,-2396 549.101,-2396 549.101,-2360 701.101,-2360 701.101,-2396"/>
<text text-anchor="middle" x="625.101" y="-2375.2" font-family="Courier,monospace" font-size="11.00">DocumentFactoryTrait</text>
</g>
<!-- \\Firesphere\\SolrSearch\\Traits\\QueryComponentFacetTrait -->
<g id="node7" class="node"><title>\\Firesphere\\SolrSearch\\Traits\\QueryComponentFacetTrait</title>
<polygon fill="none" stroke="black" points="714.601,-2342 535.601,-2342 535.601,-2306 714.601,-2306 714.601,-2342"/>
<text text-anchor="middle" x="625.101" y="-2321.2" font-family="Courier,monospace" font-size="11.00">QueryComponentFacetTrait</text>
</g>
<!-- \\Firesphere\\SolrSearch\\Traits\\SearchResultSetTrait -->
<g id="node8" class="node"><title>\\Firesphere\\SolrSearch\\Traits\\SearchResultSetTrait</title>
<polygon fill="none" stroke="black" points="701.101,-2288 549.101,-2288 549.101,-2252 701.101,-2252 701.101,-2288"/>
<text text-anchor="middle" x="625.101" y="-2267.2" font-family="Courier,monospace" font-size="11.00">SearchResultSetTrait</text>
</g>
<!-- \\Firesphere\\SolrSearch\\Traits\\QueryComponentFilterTrait -->
<g id="node9" class="node"><title>\\Firesphere\\SolrSearch\\Traits\\QueryComponentFilterTrait</title>
<polygon fill="none" stroke="black" points="717.601,-2234 532.601,-2234 532.601,-2198 717.601,-2198 717.601,-2234"/>
<text text-anchor="middle" x="625.101" y="-2213.2" font-family="Courier,monospace" font-size="11.00">QueryComponentFilterTrait</text>
</g>
<!-- \\Firesphere\\SolrSearch\\Traits\\GetterSetterTrait -->
<g id="node10" class="node"><title>\\Firesphere\\SolrSearch\\Traits\\GetterSetterTrait</title>
<polygon fill="none" stroke="black" points="690.601,-2180 559.601,-2180 559.601,-2144 690.601,-2144 690.601,-2180"/>
<text text-anchor="middle" x="625.101" y="-2159.2" font-family="Courier,monospace" font-size="11.00">GetterSetterTrait</text>
</g>
<!-- \\Firesphere\\SolrSearch\\Traits\\QueryComponentBoostTrait -->
<g id="node11" class="node"><title>\\Firesphere\\SolrSearch\\Traits\\QueryComponentBoostTrait</title>
<polygon fill="none" stroke="black" points="714.601,-2126 535.601,-2126 535.601,-2090 714.601,-2090 714.601,-2126"/>
<text text-anchor="middle" x="625.101" y="-2105.2" font-family="Courier,monospace" font-size="11.00">QueryComponentBoostTrait</text>
</g>
<!-- \\Firesphere\\SolrSearch\\Traits\\GetSetSchemaServiceTrait -->
<g id="node12" class="node"><title>\\Firesphere\\SolrSearch\\Traits\\GetSetSchemaServiceTrait</title>
<polygon fill="none" stroke="black" points="714.601,-2072 535.601,-2072 535.601,-2036 714.601,-2036 714.601,-2072"/>
<text text-anchor="middle" x="625.101" y="-2051.2" font-family="Courier,monospace" font-size="11.00">GetSetSchemaServiceTrait</text>
</g>
<!-- \\Firesphere\\SolrSearch\\Traits\\LoggerTrait -->
<g id="node13" class="node"><title>\\Firesphere\\SolrSearch\\Traits\\LoggerTrait</title>
<polygon fill="none" stroke="black" points="670.601,-2018 579.601,-2018 579.601,-1982 670.601,-1982 670.601,-2018"/>
<text text-anchor="middle" x="625.101" y="-1997.2" font-family="Courier,monospace" font-size="11.00">LoggerTrait</text>
</g>
<!-- \\Firesphere\\SolrSearch\\Traits\\DataResolveTrait -->
<g id="node14" class="node"><title>\\Firesphere\\SolrSearch\\Traits\\DataResolveTrait</title>
<polygon fill="none" stroke="black" points="687.601,-1964 562.601,-1964 562.601,-1928 687.601,-1928 687.601,-1964"/>
<text text-anchor="middle" x="625.101" y="-1943.2" font-family="Courier,monospace" font-size="11.00">DataResolveTrait</text>
</g>
<!-- \\Firesphere\\SolrSearch\\Traits\\GetSetSearchResolverTrait -->
<g id="node15" class="node"><title>\\Firesphere\\SolrSearch\\Traits\\GetSetSearchResolverTrait</title>
<polygon fill="none" stroke="black" points="717.601,-1910 532.601,-1910 532.601,-1874 717.601,-1874 717.601,-1910"/>
<text text-anchor="middle" x="625.101" y="-1889.2" font-family="Courier,monospace" font-size="11.00">GetSetSearchResolverTrait</text>
</g>
<!-- \\Firesphere\\SolrSearch\\Models\\DirtyClass -->
<g id="node16" class="node"><title>\\Firesphere\\SolrSearch\\Models\\DirtyClass</title>
<polygon fill="none" stroke="black" points="667.101,-1830 583.101,-1830 583.101,-1794 667.101,-1794 667.101,-1830"/>
<text text-anchor="middle" x="625.101" y="-1809.2" font-family="Courier,monospace" font-size="11.00">DirtyClass</text>
</g>
<!-- \\SilverStripe\\ORM\\DataObject -->
<g id="node41" class="node"><title>\\SilverStripe\\ORM\\DataObject</title>
<ellipse fill="none" stroke="black" cx="196.283" cy="-396" rx="120.479" ry="18"/>
<text text-anchor="middle" x="196.283" y="-392.3" font-family="Times,serif" font-size="14.00" fill="gray">\SilverStripe\ORM\DataObject</text>
</g>
<!-- \\Firesphere\\SolrSearch\\Models\\DirtyClass&#45;&gt;\\SilverStripe\\ORM\\DataObject -->
<g id="edge3" class="edge"><title>\\Firesphere\\SolrSearch\\Models\\DirtyClass&#45;&gt;\\SilverStripe\\ORM\\DataObject</title>
<path fill="none" stroke="black" d="M583.082,-1817.86C546.248,-1820.57 493.629,-1817.61 464.565,-1785 262.901,-1558.74 597.63,-646.185 392.565,-423 370.111,-398.561 336.648,-388.763 303.739,-386.02"/>
<polygon fill="none" stroke="black" points="303.754,-382.514 293.556,-385.386 303.32,-389.5 303.754,-382.514"/>
</g>
<!-- \\Firesphere\\SolrSearch\\Models\\SolrLog -->
<g id="node17" class="node"><title>\\Firesphere\\SolrSearch\\Models\\SolrLog</title>
<polygon fill="none" stroke="black" points="657.101,-1776 593.101,-1776 593.101,-1740 657.101,-1740 657.101,-1776"/>
<text text-anchor="middle" x="625.101" y="-1755.2" font-family="Courier,monospace" font-size="11.00">SolrLog</text>
</g>
<!-- \\Firesphere\\SolrSearch\\Models\\SolrLog&#45;&gt;\\SilverStripe\\ORM\\DataObject -->
<g id="edge11" class="edge"><title>\\Firesphere\\SolrSearch\\Models\\SolrLog&#45;&gt;\\SilverStripe\\ORM\\DataObject</title>
<path fill="none" stroke="black" d="M592.881,-1762.31C556.143,-1765.43 496.157,-1764.02 464.565,-1728 273.049,-1509.65 589.318,-636.645 392.565,-423 370.135,-398.644 336.77,-388.841 303.937,-386.069"/>
<polygon fill="none" stroke="black" points="303.979,-382.565 293.777,-385.426 303.537,-389.551 303.979,-382.565"/>
</g>
<!-- \\SilverStripe\\Security\\PermissionProvider -->
<g id="node45" class="node"><title>\\SilverStripe\\Security\\PermissionProvider</title>
<ellipse fill="none" stroke="black" cx="196.283" cy="-342" rx="159.472" ry="18"/>
<text text-anchor="middle" x="196.283" y="-338.3" font-family="Times,serif" font-size="14.00" fill="gray">\SilverStripe\Security\PermissionProvider</text>
</g>
<!-- \\Firesphere\\SolrSearch\\Models\\SolrLog&#45;&gt;\\SilverStripe\\Security\\PermissionProvider -->
<g id="edge12" class="edge"><title>\\Firesphere\\SolrSearch\\Models\\SolrLog&#45;&gt;\\SilverStripe\\Security\\PermissionProvider</title>
<path fill="none" stroke="black" stroke-dasharray="1,5" d="M592.867,-1762.32C556.117,-1765.45 496.118,-1764.05 464.565,-1728 265.396,-1500.42 597.192,-591.683 392.565,-369 384.505,-360.229 375.027,-353.343 364.666,-347.993"/>
<polygon fill="none" stroke="black" points="365.891,-344.704 355.346,-343.678 362.95,-351.056 365.891,-344.704"/>
</g>
<!-- \\Firesphere\\SolrSearch\\Helpers\\Synonyms -->
<g id="node18" class="node"><title>\\Firesphere\\SolrSearch\\Helpers\\Synonyms</title>
<polygon fill="none" stroke="black" points="660.601,-1696 589.601,-1696 589.601,-1660 660.601,-1660 660.601,-1696"/>
<text text-anchor="middle" x="625.101" y="-1675.2" font-family="Courier,monospace" font-size="11.00">Synonyms</text>
</g>
<!-- \\Firesphere\\SolrSearch\\Helpers\\Statics -->
<g id="node19" class="node"><title>\\Firesphere\\SolrSearch\\Helpers\\Statics</title>
<polygon fill="none" stroke="black" points="657.101,-1642 593.101,-1642 593.101,-1606 657.101,-1606 657.101,-1642"/>
<text text-anchor="middle" x="625.101" y="-1621.2" font-family="Courier,monospace" font-size="11.00">Statics</text>
</g>
<!-- \\Firesphere\\SolrSearch\\Helpers\\FieldResolver -->
<g id="node20" class="node"><title>\\Firesphere\\SolrSearch\\Helpers\\FieldResolver</title>
<polygon fill="none" stroke="black" points="677.101,-1588 573.101,-1588 573.101,-1552 677.101,-1552 677.101,-1588"/>
<text text-anchor="middle" x="625.101" y="-1567.2" font-family="Courier,monospace" font-size="11.00">FieldResolver</text>
</g>
<!-- \\Firesphere\\SolrSearch\\Helpers\\DataResolver -->
<g id="node21" class="node"><title>\\Firesphere\\SolrSearch\\Helpers\\DataResolver</title>
<polygon fill="none" stroke="black" points="674.101,-1534 576.101,-1534 576.101,-1498 674.101,-1498 674.101,-1534"/>
<text text-anchor="middle" x="625.101" y="-1513.2" font-family="Courier,monospace" font-size="11.00">DataResolver</text>
</g>
<!-- \\Firesphere\\SolrSearch\\Helpers\\SolrLogger -->
<g id="node22" class="node"><title>\\Firesphere\\SolrSearch\\Helpers\\SolrLogger</title>
<polygon fill="none" stroke="black" points="667.101,-1480 583.101,-1480 583.101,-1444 667.101,-1444 667.101,-1480"/>
<text text-anchor="middle" x="625.101" y="-1459.2" font-family="Courier,monospace" font-size="11.00">SolrLogger</text>
</g>
<!-- \\Firesphere\\SolrSearch\\Tasks\\SolrConfigureTask -->
<g id="node23" class="node"><title>\\Firesphere\\SolrSearch\\Tasks\\SolrConfigureTask</title>
<polygon fill="none" stroke="black" points="690.601,-1266 559.601,-1266 559.601,-1230 690.601,-1230 690.601,-1266"/>
<text text-anchor="middle" x="625.101" y="-1245.2" font-family="Courier,monospace" font-size="11.00">SolrConfigureTask</text>
</g>
<!-- \\SilverStripe\\Dev\\BuildTask -->
<g id="node42" class="node"><title>\\SilverStripe\\Dev\\BuildTask</title>
<ellipse fill="none" stroke="black" cx="196.283" cy="-234" rx="111.28" ry="18"/>
<text text-anchor="middle" x="196.283" y="-230.3" font-family="Times,serif" font-size="14.00" fill="gray">\SilverStripe\Dev\BuildTask</text>
</g>
<!-- \\Firesphere\\SolrSearch\\Tasks\\SolrConfigureTask&#45;&gt;\\SilverStripe\\Dev\\BuildTask -->
<g id="edge4" class="edge"><title>\\Firesphere\\SolrSearch\\Tasks\\SolrConfigureTask&#45;&gt;\\SilverStripe\\Dev\\BuildTask</title>
<path fill="none" stroke="black" d="M559.308,-1254.4C526.19,-1253.89 488.027,-1246.75 464.565,-1221 320.471,-1062.87 539.036,-416.928 392.565,-261 368.305,-235.173 331.728,-225.82 296.765,-223.84"/>
<polygon fill="none" stroke="black" points="296.594,-220.332 286.472,-223.461 296.336,-227.327 296.594,-220.332"/>
</g>
<!-- \\Firesphere\\SolrSearch\\Tasks\\ClearDirtyClassesTask -->
<g id="node24" class="node"><title>\\Firesphere\\SolrSearch\\Tasks\\ClearDirtyClassesTask</title>
<polygon fill="none" stroke="black" points="704.101,-1212 546.101,-1212 546.101,-1176 704.101,-1176 704.101,-1212"/>
<text text-anchor="middle" x="625.101" y="-1191.2" font-family="Courier,monospace" font-size="11.00">ClearDirtyClassesTask</text>
</g>
<!-- \\Firesphere\\SolrSearch\\Tasks\\ClearDirtyClassesTask&#45;&gt;\\SilverStripe\\Dev\\BuildTask -->
<g id="edge18" class="edge"><title>\\Firesphere\\SolrSearch\\Tasks\\ClearDirtyClassesTask&#45;&gt;\\SilverStripe\\Dev\\BuildTask</title>
<path fill="none" stroke="black" d="M545.78,-1198.17C516.195,-1195.43 484.819,-1186.53 464.565,-1164 329.986,-1014.3 530.734,-407.398 392.565,-261 368.298,-235.287 331.817,-225.929 296.931,-223.914"/>
<polygon fill="none" stroke="black" points="296.786,-220.406 286.66,-223.524 296.52,-227.401 296.786,-220.406"/>
</g>
<!-- \\Firesphere\\SolrSearch\\Stores\\PostConfigStore -->
<g id="node25" class="node"><title>\\Firesphere\\SolrSearch\\Stores\\PostConfigStore</title>
<polygon fill="none" stroke="black" points="684.101,-1400 566.101,-1400 566.101,-1364 684.101,-1364 684.101,-1400"/>
<text text-anchor="middle" x="625.101" y="-1379.2" font-family="Courier,monospace" font-size="11.00">PostConfigStore</text>
</g>
<!-- \\Firesphere\\SolrSearch\\Interfaces\\ConfigStore -->
<g id="node32" class="node"><title>\\Firesphere\\SolrSearch\\Interfaces\\ConfigStore</title>
<polygon fill="none" stroke="black" points="241.783,-1373 150.783,-1373 150.783,-1337 241.783,-1337 241.783,-1373"/>
<text text-anchor="middle" x="196.283" y="-1352.2" font-family="Courier,monospace" font-size="11.00">ConfigStore</text>
</g>
<!-- \\Firesphere\\SolrSearch\\Stores\\PostConfigStore&#45;&gt;\\Firesphere\\SolrSearch\\Interfaces\\ConfigStore -->
<g id="edge5" class="edge"><title>\\Firesphere\\SolrSearch\\Stores\\PostConfigStore&#45;&gt;\\Firesphere\\SolrSearch\\Interfaces\\ConfigStore</title>
<path fill="none" stroke="black" stroke-dasharray="1,5" d="M566.094,-1378.33C483.53,-1373.11 333.186,-1363.6 252.296,-1358.48"/>
<polygon fill="none" stroke="black" points="252.035,-1354.96 241.834,-1357.82 251.593,-1361.94 252.035,-1354.96"/>
</g>
<!-- \\Firesphere\\SolrSearch\\Stores\\FileConfigStore -->
<g id="node26" class="node"><title>\\Firesphere\\SolrSearch\\Stores\\FileConfigStore</title>
<polygon fill="none" stroke="black" points="684.101,-1346 566.101,-1346 566.101,-1310 684.101,-1310 684.101,-1346"/>
<text text-anchor="middle" x="625.101" y="-1325.2" font-family="Courier,monospace" font-size="11.00">FileConfigStore</text>
</g>
<!-- \\Firesphere\\SolrSearch\\Stores\\FileConfigStore&#45;&gt;\\Firesphere\\SolrSearch\\Interfaces\\ConfigStore -->
<g id="edge10" class="edge"><title>\\Firesphere\\SolrSearch\\Stores\\FileConfigStore&#45;&gt;\\Firesphere\\SolrSearch\\Interfaces\\ConfigStore</title>
<path fill="none" stroke="black" stroke-dasharray="1,5" d="M566.094,-1331.67C483.53,-1336.89 333.186,-1346.4 252.296,-1351.52"/>
<polygon fill="none" stroke="black" points="251.593,-1348.06 241.834,-1352.18 252.035,-1355.04 251.593,-1348.06"/>
</g>
<!-- \\Firesphere\\SolrSearch\\Factories\\DocumentFactory -->
<g id="node27" class="node"><title>\\Firesphere\\SolrSearch\\Factories\\DocumentFactory</title>
<polygon fill="none" stroke="black" points="684.101,-1132 566.101,-1132 566.101,-1096 684.101,-1096 684.101,-1132"/>
<text text-anchor="middle" x="625.101" y="-1111.2" font-family="Courier,monospace" font-size="11.00">DocumentFactory</text>
</g>
<!-- \\Firesphere\\SolrSearch\\Extensions\\GridFieldExtension -->
<g id="node28" class="node"><title>\\Firesphere\\SolrSearch\\Extensions\\GridFieldExtension</title>
<polygon fill="none" stroke="black" points="694.101,-1052 556.101,-1052 556.101,-1016 694.101,-1016 694.101,-1052"/>
<text text-anchor="middle" x="625.101" y="-1031.2" font-family="Courier,monospace" font-size="11.00">GridFieldExtension</text>
</g>
<!-- \\Firesphere\\SolrSearch\\Extensions\\GridFieldExtension&#45;&gt;\\SilverStripe\\Core\\Extension -->
<g id="edge8" class="edge"><title>\\Firesphere\\SolrSearch\\Extensions\\GridFieldExtension&#45;&gt;\\SilverStripe\\Core\\Extension</title>
<path fill="none" stroke="black" d="M555.707,-1036.14C525.184,-1033.86 490.37,-1026.43 464.565,-1007 280.783,-868.582 217.329,-571.057 201.587,-478.246"/>
<polygon fill="none" stroke="black" points="205.013,-477.507 199.937,-468.207 198.105,-478.642 205.013,-477.507"/>
</g>
<!-- \\Firesphere\\SolrSearch\\Extensions\\DataObjectExtension -->
<g id="node29" class="node"><title>\\Firesphere\\SolrSearch\\Extensions\\DataObjectExtension</title>
<polygon fill="none" stroke="black" points="697.601,-998 552.601,-998 552.601,-962 697.601,-962 697.601,-998"/>
<text text-anchor="middle" x="625.101" y="-977.2" font-family="Courier,monospace" font-size="11.00">DataObjectExtension</text>
</g>
<!-- \\Firesphere\\SolrSearch\\Extensions\\DataObjectExtension&#45;&gt;\\SilverStripe\\ORM\\DataExtension -->
<g id="edge16" class="edge"><title>\\Firesphere\\SolrSearch\\Extensions\\DataObjectExtension&#45;&gt;\\SilverStripe\\ORM\\DataExtension</title>
<path fill="none" stroke="black" d="M552.305,-984.326C521.066,-982.203 486.631,-973.738 464.565,-950 271.185,-741.968 590.931,-518.284 392.565,-315 374.681,-296.673 350.571,-286.752 325.401,-281.889"/>
<polygon fill="none" stroke="black" points="325.772,-278.403 315.333,-280.212 324.622,-285.308 325.772,-278.403"/>
</g>
<!-- \\Firesphere\\SolrSearch\\Admins\\SearchAdmin -->
<g id="node30" class="node"><title>\\Firesphere\\SolrSearch\\Admins\\SearchAdmin</title>
<polygon fill="none" stroke="black" points="670.601,-918 579.601,-918 579.601,-882 670.601,-882 670.601,-918"/>
<text text-anchor="middle" x="625.101" y="-897.2" font-family="Courier,monospace" font-size="11.00">SearchAdmin</text>
</g>
<!-- \\SilverStripe\\Admin\\ModelAdmin -->
<g id="node44" class="node"><title>\\SilverStripe\\Admin\\ModelAdmin</title>
<ellipse fill="none" stroke="black" cx="196.283" cy="-180" rx="133.477" ry="18"/>
<text text-anchor="middle" x="196.283" y="-176.3" font-family="Times,serif" font-size="14.00" fill="gray">\SilverStripe\Admin\ModelAdmin</text>
</g>
<!-- \\Firesphere\\SolrSearch\\Admins\\SearchAdmin&#45;&gt;\\SilverStripe\\Admin\\ModelAdmin -->
<g id="edge9" class="edge"><title>\\Firesphere\\SolrSearch\\Admins\\SearchAdmin&#45;&gt;\\SilverStripe\\Admin\\ModelAdmin</title>
<path fill="none" stroke="black" d="M579.462,-904.79C543.112,-905.997 493.274,-901.031 464.565,-870 263.278,-652.432 599.067,-419.625 392.565,-207 375.17,-189.089 351.832,-179.194 327.35,-174.2"/>
<polygon fill="none" stroke="black" points="327.634,-170.696 317.178,-172.407 326.418,-177.59 327.634,-170.696"/>
</g>
<!-- \\Firesphere\\SolrSearch\\Services\\SchemaService -->
<g id="node31" class="node"><title>\\Firesphere\\SolrSearch\\Services\\SchemaService</title>
<polygon fill="none" stroke="black" points="677.101,-838 573.101,-838 573.101,-802 677.101,-802 677.101,-838"/>
<text text-anchor="middle" x="625.101" y="-817.2" font-family="Courier,monospace" font-size="11.00">SchemaService</text>
</g>
<!-- \\SilverStripe\\View\\ViewableData -->
<g id="node46" class="node"><title>\\SilverStripe\\View\\ViewableData</title>
<ellipse fill="none" stroke="black" cx="196.283" cy="-126" rx="129.177" ry="18"/>
<text text-anchor="middle" x="196.283" y="-122.3" font-family="Times,serif" font-size="14.00" fill="gray">\SilverStripe\View\ViewableData</text>
</g>
<!-- \\Firesphere\\SolrSearch\\Services\\SchemaService&#45;&gt;\\SilverStripe\\View\\ViewableData -->
<g id="edge13" class="edge"><title>\\Firesphere\\SolrSearch\\Services\\SchemaService&#45;&gt;\\SilverStripe\\View\\ViewableData</title>
<path fill="none" stroke="black" d="M572.819,-824.9C537.265,-825.254 491.615,-819.11 464.565,-790 270.62,-581.287 591.512,-356.951 392.565,-153 373.568,-133.525 347.541,-123.542 320.681,-119.032"/>
<polygon fill="none" stroke="black" points="321.154,-115.564 310.759,-117.611 320.162,-122.494 321.154,-115.564"/>
</g>
<!-- \\Firesphere\\SolrSearch\\Jobs\\SolrConfigureJob -->
<g id="node33" class="node"><title>\\Firesphere\\SolrSearch\\Jobs\\SolrConfigureJob</title>
<polygon fill="none" stroke="black" points="687.601,-758 562.601,-758 562.601,-722 687.601,-722 687.601,-758"/>
<text text-anchor="middle" x="625.101" y="-737.2" font-family="Courier,monospace" font-size="11.00">SolrConfigureJob</text>
</g>
<!-- \\Symbiote\\QueuedJobs\\Services\\AbstractQueuedJob -->
<g id="node47" class="node"><title>\\Symbiote\\QueuedJobs\\Services\\AbstractQueuedJob</title>
<ellipse fill="none" stroke="black" cx="196.283" cy="-72" rx="196.065" ry="18"/>
<text text-anchor="middle" x="196.283" y="-68.3" font-family="Times,serif" font-size="14.00" fill="gray">\Symbiote\QueuedJobs\Services\AbstractQueuedJob</text>
</g>
<!-- \\Firesphere\\SolrSearch\\Jobs\\SolrConfigureJob&#45;&gt;\\Symbiote\\QueuedJobs\\Services\\AbstractQueuedJob -->
<g id="edge14" class="edge"><title>\\Firesphere\\SolrSearch\\Jobs\\SolrConfigureJob&#45;&gt;\\Symbiote\\QueuedJobs\\Services\\AbstractQueuedJob</title>
<path fill="none" stroke="black" d="M562.515,-746.045C528.907,-745.761 489.238,-738.962 464.565,-713 275.29,-513.833 584.832,-295.28 392.565,-99 387.85,-94.1864 382.705,-89.9535 377.225,-86.2405"/>
<polygon fill="none" stroke="black" points="378.709,-83.046 368.349,-80.8248 375.062,-89.0214 378.709,-83.046"/>
</g>
<!-- \\Firesphere\\SolrSearch\\Jobs\\ClearDirtyClassesJob -->
<g id="node34" class="node"><title>\\Firesphere\\SolrSearch\\Jobs\\ClearDirtyClassesJob</title>
<polygon fill="none" stroke="black" points="701.101,-704 549.101,-704 549.101,-668 701.101,-668 701.101,-704"/>
<text text-anchor="middle" x="625.101" y="-683.2" font-family="Courier,monospace" font-size="11.00">ClearDirtyClassesJob</text>
</g>
<!-- \\Firesphere\\SolrSearch\\Jobs\\ClearDirtyClassesJob&#45;&gt;\\Symbiote\\QueuedJobs\\Services\\AbstractQueuedJob -->
<g id="edge17" class="edge"><title>\\Firesphere\\SolrSearch\\Jobs\\ClearDirtyClassesJob&#45;&gt;\\Symbiote\\QueuedJobs\\Services\\AbstractQueuedJob</title>
<path fill="none" stroke="black" d="M548.796,-689.886C518.592,-687.328 485.946,-678.643 464.565,-656 293.191,-474.51 568.288,-276.283 392.565,-99 387.822,-94.2144 382.653,-90.0051 377.152,-86.3119"/>
<polygon fill="none" stroke="black" points="378.616,-83.1068 368.248,-80.9244 374.992,-89.0958 378.616,-83.1068"/>
</g>
<!-- \\Firesphere\\SolrSearch\\Queries\\BaseQuery -->
<g id="node35" class="node"><title>\\Firesphere\\SolrSearch\\Queries\\BaseQuery</title>
<polygon fill="none" stroke="black" points="663.601,-624 586.601,-624 586.601,-588 663.601,-588 663.601,-624"/>
<text text-anchor="middle" x="625.101" y="-603.2" font-family="Courier,monospace" font-size="11.00">BaseQuery</text>
</g>
<!-- \\Firesphere\\SolrSearch\\Forms\\SearchForm -->
<g id="node36" class="node"><title>\\Firesphere\\SolrSearch\\Forms\\SearchForm</title>
<polygon fill="none" stroke="black" points="667.101,-544 583.101,-544 583.101,-508 667.101,-508 667.101,-544"/>
<text text-anchor="middle" x="625.101" y="-523.2" font-family="Courier,monospace" font-size="11.00">SearchForm</text>
</g>
<!-- \\SilverStripe\\Forms\\Form -->
<g id="node49" class="node"><title>\\SilverStripe\\Forms\\Form</title>
<ellipse fill="none" stroke="black" cx="196.283" cy="-18" rx="102.882" ry="18"/>
<text text-anchor="middle" x="196.283" y="-14.3" font-family="Times,serif" font-size="14.00" fill="gray">\SilverStripe\Forms\Form</text>
</g>
<!-- \\Firesphere\\SolrSearch\\Forms\\SearchForm&#45;&gt;\\SilverStripe\\Forms\\Form -->
<g id="edge19" class="edge"><title>\\Firesphere\\SolrSearch\\Forms\\SearchForm&#45;&gt;\\SilverStripe\\Forms\\Form</title>
<path fill="none" stroke="black" d="M583.01,-524.918C546.389,-521.629 494.143,-510.794 464.565,-477 336.367,-330.531 532.099,-180.714 392.565,-45 366.885,-20.023 329.559,-10.9567 294.404,-8.96592"/>
<polygon fill="none" stroke="black" points="294.195,-5.4556 284.07,-8.57471 293.93,-12.4506 294.195,-5.4556"/>
</g>
<!-- \\SilverStripe\\FullTextSearch\\Search\\Queries\\SearchQuery -->
<g id="node37" class="node"><title>\\SilverStripe\\FullTextSearch\\Search\\Queries\\SearchQuery</title>
<polygon fill="none" stroke="black" points="948.637,-686 857.637,-686 857.637,-650 948.637,-650 948.637,-686"/>
<text text-anchor="middle" x="903.137" y="-665.2" font-family="Courier,monospace" font-size="11.00">SearchQuery</text>
</g>
<!-- \\SilverStripe\\FullTextSearch\\Search\\Queries\\SearchQuery&#45;&gt;\\Firesphere\\SolrSearch\\Queries\\BaseQuery -->
<g id="edge2" class="edge"><title>\\SilverStripe\\FullTextSearch\\Search\\Queries\\SearchQuery&#45;&gt;\\Firesphere\\SolrSearch\\Queries\\BaseQuery</title>
<path fill="none" stroke="black" d="M857.48,-657.97C807.127,-646.66 725.562,-628.34 673.938,-616.745"/>
<polygon fill="none" stroke="black" points="674.554,-613.296 664.03,-614.519 673.02,-620.126 674.554,-613.296"/>
</g>
<!-- \\SilverStripe\\FullTextSearch\\Solr\\SolrIndex -->
<g id="node38" class="node"><title>\\SilverStripe\\FullTextSearch\\Solr\\SolrIndex</title>
<polygon fill="none" stroke="black" points="945.137,-598 861.137,-598 861.137,-562 945.137,-562 945.137,-598"/>
<text text-anchor="start" x="869.137" y="-583.2" font-family="Courier,monospace" font-size="11.00">«abstract»</text>
<text text-anchor="start" x="872.637" y="-571.2" font-family="Courier,monospace" font-size="11.00">SolrIndex</text>
</g>
<!-- \\Firesphere\\SolrSearch\\Indexes\\BaseIndex -->
<g id="node43" class="node"><title>\\Firesphere\\SolrSearch\\Indexes\\BaseIndex</title>
<ellipse fill="none" stroke="black" cx="625.101" cy="-450" rx="160.572" ry="18"/>
<text text-anchor="middle" x="625.101" y="-446.3" font-family="Times,serif" font-size="14.00" fill="gray">\Firesphere\SolrSearch\Indexes\BaseIndex</text>
</g>
<!-- \\SilverStripe\\FullTextSearch\\Solr\\SolrIndex&#45;&gt;\\Firesphere\\SolrSearch\\Indexes\\BaseIndex -->
<g id="edge6" class="edge"><title>\\SilverStripe\\FullTextSearch\\Solr\\SolrIndex&#45;&gt;\\Firesphere\\SolrSearch\\Indexes\\BaseIndex</title>
<path fill="none" stroke="black" d="M860.884,-570.598C848.742,-566.522 835.959,-560.832 825.637,-553 800.982,-534.293 810.829,-513.977 785.637,-496 768.217,-483.569 747.483,-474.479 726.822,-467.838"/>
<polygon fill="none" stroke="black" points="727.611,-464.42 717.025,-464.864 725.577,-471.118 727.611,-464.42"/>
</g>
<!-- \\SilverStripe\\FullTextSearch\\Solr\\Solr -->
<g id="node39" class="node"><title>\\SilverStripe\\FullTextSearch\\Solr\\Solr</title>
<polygon fill="none" stroke="black" points="930.137,-544 876.137,-544 876.137,-508 930.137,-508 930.137,-544"/>
<text text-anchor="middle" x="903.137" y="-523.2" font-family="Courier,monospace" font-size="11.00">Solr</text>
</g>
</g>
</svg>
