<?xml version="1.0" encoding="UTF-8" standalone="no"?>
<!DOCTYPE svg PUBLIC "-//W3C//DTD SVG 1.1//EN"
 "http://www.w3.org/Graphics/SVG/1.1/DTD/svg11.dtd">
<!-- Generated by graphviz version 2.38.0 (20140413.2041)
 -->
<!-- Title: G Pages: 1 -->
<svg width="888pt" height="2738pt"
 viewBox="0.00 0.00 887.57 2738.00" xmlns="http://www.w3.org/2000/svg" xmlns:xlink="http://www.w3.org/1999/xlink">
<g id="graph0" class="graph" transform="scale(1 1) rotate(0) translate(4 2734)">
<title>G</title>
<polygon fill="white" stroke="none" points="-4,4 -4,-2734 883.565,-2734 883.565,4 -4,4"/>
<g id="clust1" class="cluster"><title>cluster_Global</title>
<path fill="none" stroke="gray" d="M130.783,-476C130.783,-476 859.565,-476 859.565,-476 865.565,-476 871.565,-482 871.565,-488 871.565,-488 871.565,-2710 871.565,-2710 871.565,-2716 865.565,-2722 859.565,-2722 859.565,-2722 130.783,-2722 130.783,-2722 124.783,-2722 118.783,-2716 118.783,-2710 118.783,-2710 118.783,-488 118.783,-488 118.783,-482 124.783,-476 130.783,-476"/>
<text text-anchor="middle" x="495.174" y="-2709.2" font-family="Times,serif" font-size="11.00" fill="gray">Global</text>
</g>
<g id="clust2" class="cluster"><title>cluster_\Firesphere</title>
<path fill="none" stroke="gray" d="M138.783,-484C138.783,-484 695.565,-484 695.565,-484 701.565,-484 707.565,-490 707.565,-496 707.565,-496 707.565,-2682 707.565,-2682 707.565,-2688 701.565,-2694 695.565,-2694 695.565,-2694 138.783,-2694 138.783,-2694 132.783,-2694 126.783,-2688 126.783,-2682 126.783,-2682 126.783,-496 126.783,-496 126.783,-490 132.783,-484 138.783,-484"/>
<text text-anchor="middle" x="417.174" y="-2681.2" font-family="Times,serif" font-size="11.00" fill="gray">Firesphere</text>
</g>
<g id="clust3" class="cluster"><title>cluster_\Firesphere\SolrSearch</title>
<path fill="none" stroke="gray" d="M146.783,-492C146.783,-492 687.565,-492 687.565,-492 693.565,-492 699.565,-498 699.565,-504 699.565,-504 699.565,-2654 699.565,-2654 699.565,-2660 693.565,-2666 687.565,-2666 687.565,-2666 146.783,-2666 146.783,-2666 140.783,-2666 134.783,-2660 134.783,-2654 134.783,-2654 134.783,-504 134.783,-504 134.783,-498 140.783,-492 146.783,-492"/>
<text text-anchor="middle" x="417.174" y="-2653.2" font-family="Times,serif" font-size="11.00" fill="gray">SolrSearch</text>
</g>
<g id="clust4" class="cluster"><title>cluster_\Firesphere\SolrSearch\Compat</title>
<path fill="none" stroke="gray" d="M492.065,-2458C492.065,-2458 656.065,-2458 656.065,-2458 662.065,-2458 668.065,-2464 668.065,-2470 668.065,-2470 668.065,-2626 668.065,-2626 668.065,-2632 662.065,-2638 656.065,-2638 656.065,-2638 492.065,-2638 492.065,-2638 486.065,-2638 480.065,-2632 480.065,-2626 480.065,-2626 480.065,-2470 480.065,-2470 480.065,-2464 486.065,-2458 492.065,-2458"/>
<text text-anchor="middle" x="574.065" y="-2625.2" font-family="Times,serif" font-size="11.00" fill="gray">Compat</text>
</g>
<g id="clust5" class="cluster"><title>cluster_\Firesphere\SolrSearch\Indexes</title>
<path fill="none" stroke="gray" d="M536.065,-2378C536.065,-2378 612.065,-2378 612.065,-2378 618.065,-2378 624.065,-2384 624.065,-2390 624.065,-2390 624.065,-2438 624.065,-2438 624.065,-2444 618.065,-2450 612.065,-2450 612.065,-2450 536.065,-2450 536.065,-2450 530.065,-2450 524.065,-2444 524.065,-2438 524.065,-2438 524.065,-2390 524.065,-2390 524.065,-2384 530.065,-2378 536.065,-2378"/>
<text text-anchor="middle" x="574.065" y="-2437.2" font-family="Times,serif" font-size="11.00" fill="gray">Indexes</text>
</g>
<g id="clust6" class="cluster"><title>cluster_\Firesphere\SolrSearch\Traits</title>
<path fill="none" stroke="gray" d="M468.565,-1704C468.565,-1704 679.565,-1704 679.565,-1704 685.565,-1704 691.565,-1710 691.565,-1716 691.565,-1716 691.565,-2358 691.565,-2358 691.565,-2364 685.565,-2370 679.565,-2370 679.565,-2370 468.565,-2370 468.565,-2370 462.565,-2370 456.565,-2364 456.565,-2358 456.565,-2358 456.565,-1716 456.565,-1716 456.565,-1710 462.565,-1704 468.565,-1704"/>
<text text-anchor="middle" x="574.065" y="-2357.2" font-family="Times,serif" font-size="11.00" fill="gray">Traits</text>
</g>
<g id="clust7" class="cluster"><title>cluster_\Firesphere\SolrSearch\Models</title>
<path fill="none" stroke="gray" d="M536.065,-1570C536.065,-1570 612.065,-1570 612.065,-1570 618.065,-1570 624.065,-1576 624.065,-1582 624.065,-1582 624.065,-1684 624.065,-1684 624.065,-1690 618.065,-1696 612.065,-1696 612.065,-1696 536.065,-1696 536.065,-1696 530.065,-1696 524.065,-1690 524.065,-1684 524.065,-1684 524.065,-1582 524.065,-1582 524.065,-1576 530.065,-1570 536.065,-1570"/>
<text text-anchor="middle" x="574.065" y="-1683.2" font-family="Times,serif" font-size="11.00" fill="gray">Models</text>
</g>
<g id="clust8" class="cluster"><title>cluster_\Firesphere\SolrSearch\Helpers</title>
<path fill="none" stroke="gray" d="M526.065,-1274C526.065,-1274 622.065,-1274 622.065,-1274 628.065,-1274 634.065,-1280 634.065,-1286 634.065,-1286 634.065,-1550 634.065,-1550 634.065,-1556 628.065,-1562 622.065,-1562 622.065,-1562 526.065,-1562 526.065,-1562 520.065,-1562 514.065,-1556 514.065,-1550 514.065,-1550 514.065,-1286 514.065,-1286 514.065,-1280 520.065,-1274 526.065,-1274"/>
<text text-anchor="middle" x="574.065" y="-1549.2" font-family="Times,serif" font-size="11.00" fill="gray">Helpers</text>
</g>
<g id="clust9" class="cluster"><title>cluster_\Firesphere\SolrSearch\Tasks</title>
<path fill="none" stroke="gray" d="M512.565,-1060C512.565,-1060 635.565,-1060 635.565,-1060 641.565,-1060 647.565,-1066 647.565,-1072 647.565,-1072 647.565,-1120 647.565,-1120 647.565,-1126 641.565,-1132 635.565,-1132 635.565,-1132 512.565,-1132 512.565,-1132 506.565,-1132 500.565,-1126 500.565,-1120 500.565,-1120 500.565,-1072 500.565,-1072 500.565,-1066 506.565,-1060 512.565,-1060"/>
<text text-anchor="middle" x="574.065" y="-1119.2" font-family="Times,serif" font-size="11.00" fill="gray">Tasks</text>
</g>
<g id="clust10" class="cluster"><title>cluster_\Firesphere\SolrSearch\Stores</title>
<path fill="none" stroke="gray" d="M519.065,-1140C519.065,-1140 629.065,-1140 629.065,-1140 635.065,-1140 641.065,-1146 641.065,-1152 641.065,-1152 641.065,-1254 641.065,-1254 641.065,-1260 635.065,-1266 629.065,-1266 629.065,-1266 519.065,-1266 519.065,-1266 513.065,-1266 507.065,-1260 507.065,-1254 507.065,-1254 507.065,-1152 507.065,-1152 507.065,-1146 513.065,-1140 519.065,-1140"/>
<text text-anchor="middle" x="574.065" y="-1253.2" font-family="Times,serif" font-size="11.00" fill="gray">Stores</text>
</g>
<g id="clust11" class="cluster"><title>cluster_\Firesphere\SolrSearch\Factories</title>
<path fill="none" stroke="gray" d="M519.065,-980C519.065,-980 629.065,-980 629.065,-980 635.065,-980 641.065,-986 641.065,-992 641.065,-992 641.065,-1040 641.065,-1040 641.065,-1046 635.065,-1052 629.065,-1052 629.065,-1052 519.065,-1052 519.065,-1052 513.065,-1052 507.065,-1046 507.065,-1040 507.065,-1040 507.065,-992 507.065,-992 507.065,-986 513.065,-980 519.065,-980"/>
<text text-anchor="middle" x="574.065" y="-1039.2" font-family="Times,serif" font-size="11.00" fill="gray">Factories</text>
</g>
<g id="clust12" class="cluster"><title>cluster_\Firesphere\SolrSearch\Extensions</title>
<path fill="none" stroke="gray" d="M509.065,-900C509.065,-900 639.065,-900 639.065,-900 645.065,-900 651.065,-906 651.065,-912 651.065,-912 651.065,-960 651.065,-960 651.065,-966 645.065,-972 639.065,-972 639.065,-972 509.065,-972 509.065,-972 503.065,-972 497.065,-966 497.065,-960 497.065,-960 497.065,-912 497.065,-912 497.065,-906 503.065,-900 509.065,-900"/>
<text text-anchor="middle" x="574.065" y="-959.2" font-family="Times,serif" font-size="11.00" fill="gray">Extensions</text>
</g>
<g id="clust13" class="cluster"><title>cluster_\Firesphere\SolrSearch\Admins</title>
<path fill="none" stroke="gray" d="M532.565,-820C532.565,-820 615.565,-820 615.565,-820 621.565,-820 627.565,-826 627.565,-832 627.565,-832 627.565,-880 627.565,-880 627.565,-886 621.565,-892 615.565,-892 615.565,-892 532.565,-892 532.565,-892 526.565,-892 520.565,-886 520.565,-880 520.565,-880 520.565,-832 520.565,-832 520.565,-826 526.565,-820 532.565,-820"/>
<text text-anchor="middle" x="574.065" y="-879.2" font-family="Times,serif" font-size="11.00" fill="gray">Admins</text>
</g>
<g id="clust14" class="cluster"><title>cluster_\Firesphere\SolrSearch\Services</title>
<path fill="none" stroke="gray" d="M526.065,-740C526.065,-740 622.065,-740 622.065,-740 628.065,-740 634.065,-746 634.065,-752 634.065,-752 634.065,-800 634.065,-800 634.065,-806 628.065,-812 622.065,-812 622.065,-812 526.065,-812 526.065,-812 520.065,-812 514.065,-806 514.065,-800 514.065,-800 514.065,-752 514.065,-752 514.065,-746 520.065,-740 526.065,-740"/>
<text text-anchor="middle" x="574.065" y="-799.2" font-family="Times,serif" font-size="11.00" fill="gray">Services</text>
</g>
<g id="clust15" class="cluster"><title>cluster_\Firesphere\SolrSearch\Forms</title>
<path fill="none" stroke="gray" d="M522.565,-660C522.565,-660 625.565,-660 625.565,-660 631.565,-660 637.565,-666 637.565,-672 637.565,-672 637.565,-720 637.565,-720 637.565,-726 631.565,-732 625.565,-732 625.565,-732 522.565,-732 522.565,-732 516.565,-732 510.565,-726 510.565,-720 510.565,-720 510.565,-672 510.565,-672 510.565,-666 516.565,-660 522.565,-660"/>
<text text-anchor="middle" x="574.065" y="-719.2" font-family="Times,serif" font-size="11.00" fill="gray">Forms</text>
</g>
<g id="clust16" class="cluster"><title>cluster_\Firesphere\SolrSearch\Interfaces</title>
<path fill="none" stroke="gray" d="M154.783,-1167C154.783,-1167 237.783,-1167 237.783,-1167 243.783,-1167 249.783,-1173 249.783,-1179 249.783,-1179 249.783,-1227 249.783,-1227 249.783,-1233 243.783,-1239 237.783,-1239 237.783,-1239 154.783,-1239 154.783,-1239 148.783,-1239 142.783,-1233 142.783,-1227 142.783,-1227 142.783,-1179 142.783,-1179 142.783,-1173 148.783,-1167 154.783,-1167"/>
<text text-anchor="middle" x="196.283" y="-1226.2" font-family="Times,serif" font-size="11.00" fill="gray">Interfaces</text>
</g>
<g id="clust17" class="cluster"><title>cluster_\Firesphere\SolrSearch\Jobs</title>
<path fill="none" stroke="gray" d="M515.565,-580C515.565,-580 632.565,-580 632.565,-580 638.565,-580 644.565,-586 644.565,-592 644.565,-592 644.565,-640 644.565,-640 644.565,-646 638.565,-652 632.565,-652 632.565,-652 515.565,-652 515.565,-652 509.565,-652 503.565,-646 503.565,-640 503.565,-640 503.565,-592 503.565,-592 503.565,-586 509.565,-580 515.565,-580"/>
<text text-anchor="middle" x="574.065" y="-639.2" font-family="Times,serif" font-size="11.00" fill="gray">Jobs</text>
</g>
<g id="clust18" class="cluster"><title>cluster_\Firesphere\SolrSearch\Queries</title>
<path fill="none" stroke="gray" d="M539.565,-500C539.565,-500 608.565,-500 608.565,-500 614.565,-500 620.565,-506 620.565,-512 620.565,-512 620.565,-560 620.565,-560 620.565,-566 614.565,-572 608.565,-572 608.565,-572 539.565,-572 539.565,-572 533.565,-572 527.565,-566 527.565,-560 527.565,-560 527.565,-512 527.565,-512 527.565,-506 533.565,-500 539.565,-500"/>
<text text-anchor="middle" x="574.065" y="-559.2" font-family="Times,serif" font-size="11.00" fill="gray">Queries</text>
</g>
<g id="clust19" class="cluster"><title>cluster_\SilverStripe</title>
<path fill="none" stroke="gray" d="M743.565,-2308C743.565,-2308 851.565,-2308 851.565,-2308 857.565,-2308 863.565,-2314 863.565,-2320 863.565,-2320 863.565,-2494 863.565,-2494 863.565,-2500 857.565,-2506 851.565,-2506 851.565,-2506 743.565,-2506 743.565,-2506 737.565,-2506 731.565,-2500 731.565,-2494 731.565,-2494 731.565,-2320 731.565,-2320 731.565,-2314 737.565,-2308 743.565,-2308"/>
<text text-anchor="middle" x="797.565" y="-2493.2" font-family="Times,serif" font-size="11.00" fill="gray">SilverStripe</text>
</g>
<g id="clust20" class="cluster"><title>cluster_\SilverStripe\FullTextSearch</title>
<path fill="none" stroke="gray" d="M751.565,-2316C751.565,-2316 843.565,-2316 843.565,-2316 849.565,-2316 855.565,-2322 855.565,-2328 855.565,-2328 855.565,-2466 855.565,-2466 855.565,-2472 849.565,-2478 843.565,-2478 843.565,-2478 751.565,-2478 751.565,-2478 745.565,-2478 739.565,-2472 739.565,-2466 739.565,-2466 739.565,-2328 739.565,-2328 739.565,-2322 745.565,-2316 751.565,-2316"/>
<text text-anchor="middle" x="797.565" y="-2465.2" font-family="Times,serif" font-size="11.00" fill="gray">FullTextSearch</text>
</g>
<g id="clust21" class="cluster"><title>cluster_\SilverStripe\FullTextSearch\Solr</title>
<path fill="none" stroke="gray" d="M759.565,-2324C759.565,-2324 835.565,-2324 835.565,-2324 841.565,-2324 847.565,-2330 847.565,-2336 847.565,-2336 847.565,-2438 847.565,-2438 847.565,-2444 841.565,-2450 835.565,-2450 835.565,-2450 759.565,-2450 759.565,-2450 753.565,-2450 747.565,-2444 747.565,-2438 747.565,-2438 747.565,-2336 747.565,-2336 747.565,-2330 753.565,-2324 759.565,-2324"/>
<text text-anchor="middle" x="797.565" y="-2437.2" font-family="Times,serif" font-size="11.00" fill="gray">Solr</text>
</g>
<!-- \\Firesphere\\SolrSearch\\Compat\\FluentExtension -->
<g id="node1" class="node"><title>\\Firesphere\\SolrSearch\\Compat\\FluentExtension</title>
<polygon fill="none" stroke="black" points="633.065,-2610 515.065,-2610 515.065,-2574 633.065,-2574 633.065,-2610"/>
<text text-anchor="middle" x="574.065" y="-2589.2" font-family="Courier,monospace" font-size="11.00">FluentExtension</text>
</g>
<!-- \\SilverStripe\\Core\\Extension -->
<g id="node37" class="node"><title>\\SilverStripe\\Core\\Extension</title>
<ellipse fill="none" stroke="black" cx="196.283" cy="-450" rx="112.38" ry="18"/>
<text text-anchor="middle" x="196.283" y="-446.3" font-family="Times,serif" font-size="14.00" fill="gray">\SilverStripe\Core\Extension</text>
</g>
<!-- \\Firesphere\\SolrSearch\\Compat\\FluentExtension&#45;&gt;\\SilverStripe\\Core\\Extension -->
<g id="edge1" class="edge"><title>\\Firesphere\\SolrSearch\\Compat\\FluentExtension&#45;&gt;\\SilverStripe\\Core\\Extension</title>
<path fill="none" stroke="black" d="M515.055,-2592.56C493.465,-2589.59 470.78,-2582.07 456.565,-2565 356.783,-2445.16 416.866,-1317.03 392.565,-1163 349.527,-890.2 240.866,-572.246 207.31,-477.791"/>
<polygon fill="none" stroke="black" points="210.518,-476.367 203.861,-468.125 203.925,-478.72 210.518,-476.367"/>
</g>
<!-- \\Firesphere\\SolrSearch\\Compat\\FulltextSearchExtension -->
<g id="node2" class="node"><title>\\Firesphere\\SolrSearch\\Compat\\FulltextSearchExtension</title>
<polygon fill="none" stroke="black" points="660.065,-2556 488.065,-2556 488.065,-2520 660.065,-2520 660.065,-2556"/>
<text text-anchor="middle" x="574.065" y="-2535.2" font-family="Courier,monospace" font-size="11.00">FulltextSearchExtension</text>
</g>
<!-- \\Firesphere\\SolrSearch\\Compat\\FulltextSearchExtension&#45;&gt;\\SilverStripe\\Core\\Extension -->
<g id="edge6" class="edge"><title>\\Firesphere\\SolrSearch\\Compat\\FulltextSearchExtension&#45;&gt;\\SilverStripe\\Core\\Extension</title>
<path fill="none" stroke="black" d="M487.961,-2532.01C475.896,-2527.56 464.811,-2520.88 456.565,-2511 360.513,-2395.86 416.068,-1311.09 392.565,-1163 349.278,-890.239 240.787,-572.258 207.291,-477.794"/>
<polygon fill="none" stroke="black" points="210.5,-476.373 203.848,-468.127 203.906,-478.722 210.5,-476.373"/>
</g>
<!-- \\Firesphere\\SolrSearch\\Compat\\SubsitesExtension -->
<g id="node3" class="node"><title>\\Firesphere\\SolrSearch\\Compat\\SubsitesExtension</title>
<polygon fill="none" stroke="black" points="639.565,-2502 508.565,-2502 508.565,-2466 639.565,-2466 639.565,-2502"/>
<text text-anchor="middle" x="574.065" y="-2481.2" font-family="Courier,monospace" font-size="11.00">SubsitesExtension</text>
</g>
<!-- \\SilverStripe\\ORM\\DataExtension -->
<g id="node45" class="node"><title>\\SilverStripe\\ORM\\DataExtension</title>
<ellipse fill="none" stroke="black" cx="196.283" cy="-396" rx="131.877" ry="18"/>
<text text-anchor="middle" x="196.283" y="-392.3" font-family="Times,serif" font-size="14.00" fill="gray">\SilverStripe\ORM\DataExtension</text>
</g>
<!-- \\Firesphere\\SolrSearch\\Compat\\SubsitesExtension&#45;&gt;\\SilverStripe\\ORM\\DataExtension -->
<g id="edge15" class="edge"><title>\\Firesphere\\SolrSearch\\Compat\\SubsitesExtension&#45;&gt;\\SilverStripe\\ORM\\DataExtension</title>
<path fill="none" stroke="black" d="M508.416,-2481.9C488.816,-2477.87 469.162,-2469.73 456.565,-2454 315.454,-2277.75 543.542,-590.875 392.565,-423 372.962,-401.203 344.617,-390.97 315.573,-387.001"/>
<polygon fill="none" stroke="black" points="315.611,-383.484 305.284,-385.85 314.833,-390.44 315.611,-383.484"/>
</g>
<!-- \\Firesphere\\SolrSearch\\Indexes\\BaseIndex -->
<g id="node4" class="node"><title>\\Firesphere\\SolrSearch\\Indexes\\BaseIndex</title>
<polygon fill="none" stroke="black" points="616.065,-2422 532.065,-2422 532.065,-2386 616.065,-2386 616.065,-2422"/>
<text text-anchor="start" x="540.065" y="-2407.2" font-family="Courier,monospace" font-size="11.00">«abstract»</text>
<text text-anchor="start" x="543.565" y="-2395.2" font-family="Courier,monospace" font-size="11.00">BaseIndex</text>
</g>
<!-- \\Firesphere\\SolrSearch\\Traits\\BaseQueryTrait -->
<g id="node5" class="node"><title>\\Firesphere\\SolrSearch\\Traits\\BaseQueryTrait</title>
<polygon fill="none" stroke="black" points="629.565,-2342 518.565,-2342 518.565,-2306 629.565,-2306 629.565,-2342"/>
<text text-anchor="middle" x="574.065" y="-2321.2" font-family="Courier,monospace" font-size="11.00">BaseQueryTrait</text>
</g>
<!-- \\Firesphere\\SolrSearch\\Traits\\GetSetSearchIntrospectionTrait -->
<g id="node6" class="node"><title>\\Firesphere\\SolrSearch\\Traits\\GetSetSearchIntrospectionTrait</title>
<polygon fill="none" stroke="black" points="683.565,-2288 464.565,-2288 464.565,-2252 683.565,-2252 683.565,-2288"/>
<text text-anchor="middle" x="574.065" y="-2267.2" font-family="Courier,monospace" font-size="11.00">GetSetSearchIntrospectionTrait</text>
</g>
<!-- \\Firesphere\\SolrSearch\\Traits\\BaseIndexTrait -->
<g id="node7" class="node"><title>\\Firesphere\\SolrSearch\\Traits\\BaseIndexTrait</title>
<polygon fill="none" stroke="black" points="629.565,-2234 518.565,-2234 518.565,-2198 629.565,-2198 629.565,-2234"/>
<text text-anchor="middle" x="574.065" y="-2213.2" font-family="Courier,monospace" font-size="11.00">BaseIndexTrait</text>
</g>
<!-- \\Firesphere\\SolrSearch\\Traits\\DocumentFactoryTrait -->
<g id="node8" class="node"><title>\\Firesphere\\SolrSearch\\Traits\\DocumentFactoryTrait</title>
<polygon fill="none" stroke="black" points="650.065,-2180 498.065,-2180 498.065,-2144 650.065,-2144 650.065,-2180"/>
<text text-anchor="middle" x="574.065" y="-2159.2" font-family="Courier,monospace" font-size="11.00">DocumentFactoryTrait</text>
</g>
<!-- \\Firesphere\\SolrSearch\\Traits\\QueryComponentFacetTrait -->
<g id="node9" class="node"><title>\\Firesphere\\SolrSearch\\Traits\\QueryComponentFacetTrait</title>
<polygon fill="none" stroke="black" points="663.565,-2126 484.565,-2126 484.565,-2090 663.565,-2090 663.565,-2126"/>
<text text-anchor="middle" x="574.065" y="-2105.2" font-family="Courier,monospace" font-size="11.00">QueryComponentFacetTrait</text>
</g>
<!-- \\Firesphere\\SolrSearch\\Traits\\SearchResultSetTrait -->
<g id="node10" class="node"><title>\\Firesphere\\SolrSearch\\Traits\\SearchResultSetTrait</title>
<polygon fill="none" stroke="black" points="650.065,-2072 498.065,-2072 498.065,-2036 650.065,-2036 650.065,-2072"/>
<text text-anchor="middle" x="574.065" y="-2051.2" font-family="Courier,monospace" font-size="11.00">SearchResultSetTrait</text>
</g>
<!-- \\Firesphere\\SolrSearch\\Traits\\QueryComponentFilterTrait -->
<g id="node11" class="node"><title>\\Firesphere\\SolrSearch\\Traits\\QueryComponentFilterTrait</title>
<polygon fill="none" stroke="black" points="666.565,-2018 481.565,-2018 481.565,-1982 666.565,-1982 666.565,-2018"/>
<text text-anchor="middle" x="574.065" y="-1997.2" font-family="Courier,monospace" font-size="11.00">QueryComponentFilterTrait</text>
</g>
<!-- \\Firesphere\\SolrSearch\\Traits\\GetterSetterTrait -->
<g id="node12" class="node"><title>\\Firesphere\\SolrSearch\\Traits\\GetterSetterTrait</title>
<polygon fill="none" stroke="black" points="639.565,-1964 508.565,-1964 508.565,-1928 639.565,-1928 639.565,-1964"/>
<text text-anchor="middle" x="574.065" y="-1943.2" font-family="Courier,monospace" font-size="11.00">GetterSetterTrait</text>
</g>
<!-- \\Firesphere\\SolrSearch\\Traits\\QueryComponentBoostTrait -->
<g id="node13" class="node"><title>\\Firesphere\\SolrSearch\\Traits\\QueryComponentBoostTrait</title>
<polygon fill="none" stroke="black" points="663.565,-1910 484.565,-1910 484.565,-1874 663.565,-1874 663.565,-1910"/>
<text text-anchor="middle" x="574.065" y="-1889.2" font-family="Courier,monospace" font-size="11.00">QueryComponentBoostTrait</text>
</g>
<!-- \\Firesphere\\SolrSearch\\Traits\\GetSetSchemaServiceTrait -->
<g id="node14" class="node"><title>\\Firesphere\\SolrSearch\\Traits\\GetSetSchemaServiceTrait</title>
<polygon fill="none" stroke="black" points="663.565,-1856 484.565,-1856 484.565,-1820 663.565,-1820 663.565,-1856"/>
<text text-anchor="middle" x="574.065" y="-1835.2" font-family="Courier,monospace" font-size="11.00">GetSetSchemaServiceTrait</text>
</g>
<!-- \\Firesphere\\SolrSearch\\Traits\\LoggerTrait -->
<g id="node15" class="node"><title>\\Firesphere\\SolrSearch\\Traits\\LoggerTrait</title>
<polygon fill="none" stroke="black" points="619.565,-1802 528.565,-1802 528.565,-1766 619.565,-1766 619.565,-1802"/>
<text text-anchor="middle" x="574.065" y="-1781.2" font-family="Courier,monospace" font-size="11.00">LoggerTrait</text>
</g>
<!-- \\Firesphere\\SolrSearch\\Traits\\DataResolveTrait -->
<g id="node16" class="node"><title>\\Firesphere\\SolrSearch\\Traits\\DataResolveTrait</title>
<polygon fill="none" stroke="black" points="636.565,-1748 511.565,-1748 511.565,-1712 636.565,-1712 636.565,-1748"/>
<text text-anchor="middle" x="574.065" y="-1727.2" font-family="Courier,monospace" font-size="11.00">DataResolveTrait</text>
</g>
<!-- \\Firesphere\\SolrSearch\\Models\\DirtyClass -->
<g id="node17" class="node"><title>\\Firesphere\\SolrSearch\\Models\\DirtyClass</title>
<polygon fill="none" stroke="black" points="616.065,-1668 532.065,-1668 532.065,-1632 616.065,-1632 616.065,-1668"/>
<text text-anchor="middle" x="574.065" y="-1647.2" font-family="Courier,monospace" font-size="11.00">DirtyClass</text>
</g>
<!-- \\SilverStripe\\ORM\\DataObject -->
<g id="node38" class="node"><title>\\SilverStripe\\ORM\\DataObject</title>
<ellipse fill="none" stroke="black" cx="196.283" cy="-342" rx="120.479" ry="18"/>
<text text-anchor="middle" x="196.283" y="-338.3" font-family="Times,serif" font-size="14.00" fill="gray">\SilverStripe\ORM\DataObject</text>
</g>
<!-- \\Firesphere\\SolrSearch\\Models\\DirtyClass&#45;&gt;\\SilverStripe\\ORM\\DataObject -->
<g id="edge2" class="edge"><title>\\Firesphere\\SolrSearch\\Models\\DirtyClass&#45;&gt;\\SilverStripe\\ORM\\DataObject</title>
<path fill="none" stroke="black" d="M531.933,-1652.02C506.204,-1650.87 474.624,-1644.57 456.565,-1623 367.005,-1516.03 486.865,-471.82 392.565,-369 370.08,-344.484 336.52,-334.691 303.534,-331.977"/>
<polygon fill="none" stroke="black" points="303.524,-328.47 293.329,-331.353 303.096,-335.457 303.524,-328.47"/>
</g>
<!-- \\Firesphere\\SolrSearch\\Models\\SolrLog -->
<g id="node18" class="node"><title>\\Firesphere\\SolrSearch\\Models\\SolrLog</title>
<polygon fill="none" stroke="black" points="606.065,-1614 542.065,-1614 542.065,-1578 606.065,-1578 606.065,-1614"/>
<text text-anchor="middle" x="574.065" y="-1593.2" font-family="Courier,monospace" font-size="11.00">SolrLog</text>
</g>
<!-- \\Firesphere\\SolrSearch\\Models\\SolrLog&#45;&gt;\\SilverStripe\\ORM\\DataObject -->
<g id="edge10" class="edge"><title>\\Firesphere\\SolrSearch\\Models\\SolrLog&#45;&gt;\\SilverStripe\\ORM\\DataObject</title>
<path fill="none" stroke="black" d="M542.023,-1597.36C514.961,-1596.69 476.941,-1590.89 456.565,-1566 287.809,-1359.89 572.852,-565.099 392.565,-369 370.103,-344.568 336.639,-334.771 303.73,-332.027"/>
<polygon fill="none" stroke="black" points="303.746,-328.522 293.548,-331.394 303.311,-335.508 303.746,-328.522"/>
</g>
<!-- \\SilverStripe\\Security\\PermissionProvider -->
<g id="node41" class="node"><title>\\SilverStripe\\Security\\PermissionProvider</title>
<ellipse fill="none" stroke="black" cx="196.283" cy="-288" rx="159.472" ry="18"/>
<text text-anchor="middle" x="196.283" y="-284.3" font-family="Times,serif" font-size="14.00" fill="gray">\SilverStripe\Security\PermissionProvider</text>
</g>
<!-- \\Firesphere\\SolrSearch\\Models\\SolrLog&#45;&gt;\\SilverStripe\\Security\\PermissionProvider -->
<g id="edge11" class="edge"><title>\\Firesphere\\SolrSearch\\Models\\SolrLog&#45;&gt;\\SilverStripe\\Security\\PermissionProvider</title>
<path fill="none" stroke="black" stroke-dasharray="1,5" d="M542.01,-1597.37C514.938,-1596.71 476.913,-1590.91 456.565,-1566 368.515,-1458.21 486.646,-417.569 392.565,-315 384.513,-306.221 375.041,-299.331 364.683,-293.977"/>
<polygon fill="none" stroke="black" points="365.912,-290.689 355.367,-289.659 362.968,-297.04 365.912,-290.689"/>
</g>
<!-- \\Firesphere\\SolrSearch\\Helpers\\Synonyms -->
<g id="node19" class="node"><title>\\Firesphere\\SolrSearch\\Helpers\\Synonyms</title>
<polygon fill="none" stroke="black" points="609.565,-1534 538.565,-1534 538.565,-1498 609.565,-1498 609.565,-1534"/>
<text text-anchor="middle" x="574.065" y="-1513.2" font-family="Courier,monospace" font-size="11.00">Synonyms</text>
</g>
<!-- \\Firesphere\\SolrSearch\\Helpers\\Statics -->
<g id="node20" class="node"><title>\\Firesphere\\SolrSearch\\Helpers\\Statics</title>
<polygon fill="none" stroke="black" points="606.065,-1480 542.065,-1480 542.065,-1444 606.065,-1444 606.065,-1480"/>
<text text-anchor="middle" x="574.065" y="-1459.2" font-family="Courier,monospace" font-size="11.00">Statics</text>
</g>
<!-- \\Firesphere\\SolrSearch\\Helpers\\FieldResolver -->
<g id="node21" class="node"><title>\\Firesphere\\SolrSearch\\Helpers\\FieldResolver</title>
<polygon fill="none" stroke="black" points="626.065,-1426 522.065,-1426 522.065,-1390 626.065,-1390 626.065,-1426"/>
<text text-anchor="middle" x="574.065" y="-1405.2" font-family="Courier,monospace" font-size="11.00">FieldResolver</text>
</g>
<!-- \\Firesphere\\SolrSearch\\Helpers\\DataResolver -->
<g id="node22" class="node"><title>\\Firesphere\\SolrSearch\\Helpers\\DataResolver</title>
<polygon fill="none" stroke="black" points="623.065,-1372 525.065,-1372 525.065,-1336 623.065,-1336 623.065,-1372"/>
<text text-anchor="middle" x="574.065" y="-1351.2" font-family="Courier,monospace" font-size="11.00">DataResolver</text>
</g>
<!-- \\Firesphere\\SolrSearch\\Helpers\\SolrLogger -->
<g id="node23" class="node"><title>\\Firesphere\\SolrSearch\\Helpers\\SolrLogger</title>
<polygon fill="none" stroke="black" points="616.065,-1318 532.065,-1318 532.065,-1282 616.065,-1282 616.065,-1318"/>
<text text-anchor="middle" x="574.065" y="-1297.2" font-family="Courier,monospace" font-size="11.00">SolrLogger</text>
</g>
<!-- \\Firesphere\\SolrSearch\\Tasks\\SolrConfigureTask -->
<g id="node24" class="node"><title>\\Firesphere\\SolrSearch\\Tasks\\SolrConfigureTask</title>
<polygon fill="none" stroke="black" points="639.565,-1104 508.565,-1104 508.565,-1068 639.565,-1068 639.565,-1104"/>
<text text-anchor="middle" x="574.065" y="-1083.2" font-family="Courier,monospace" font-size="11.00">SolrConfigureTask</text>
</g>
<!-- \\SilverStripe\\Dev\\BuildTask -->
<g id="node39" class="node"><title>\\SilverStripe\\Dev\\BuildTask</title>
<ellipse fill="none" stroke="black" cx="196.283" cy="-234" rx="111.28" ry="18"/>
<text text-anchor="middle" x="196.283" y="-230.3" font-family="Times,serif" font-size="14.00" fill="gray">\SilverStripe\Dev\BuildTask</text>
</g>
<!-- \\Firesphere\\SolrSearch\\Tasks\\SolrConfigureTask&#45;&gt;\\SilverStripe\\Dev\\BuildTask -->
<g id="edge3" class="edge"><title>\\Firesphere\\SolrSearch\\Tasks\\SolrConfigureTask&#45;&gt;\\SilverStripe\\Dev\\BuildTask</title>
<path fill="none" stroke="black" d="M508.555,-1083.47C489.085,-1079.4 469.475,-1071.34 456.565,-1056 342.447,-920.389 514.265,-389.85 392.565,-261 368.341,-235.353 331.966,-225.982 297.151,-223.938"/>
<polygon fill="none" stroke="black" points="297.029,-220.43 286.9,-223.538 296.756,-227.425 297.029,-220.43"/>
</g>
<!-- \\Firesphere\\SolrSearch\\Stores\\PostConfigStore -->
<g id="node25" class="node"><title>\\Firesphere\\SolrSearch\\Stores\\PostConfigStore</title>
<polygon fill="none" stroke="black" points="633.065,-1238 515.065,-1238 515.065,-1202 633.065,-1202 633.065,-1238"/>
<text text-anchor="middle" x="574.065" y="-1217.2" font-family="Courier,monospace" font-size="11.00">PostConfigStore</text>
</g>
<!-- \\Firesphere\\SolrSearch\\Interfaces\\ConfigStore -->
<g id="node32" class="node"><title>\\Firesphere\\SolrSearch\\Interfaces\\ConfigStore</title>
<polygon fill="none" stroke="black" points="241.783,-1211 150.783,-1211 150.783,-1175 241.783,-1175 241.783,-1211"/>
<text text-anchor="middle" x="196.283" y="-1190.2" font-family="Courier,monospace" font-size="11.00">ConfigStore</text>
</g>
<!-- \\Firesphere\\SolrSearch\\Stores\\PostConfigStore&#45;&gt;\\Firesphere\\SolrSearch\\Interfaces\\ConfigStore -->
<g id="edge4" class="edge"><title>\\Firesphere\\SolrSearch\\Stores\\PostConfigStore&#45;&gt;\\Firesphere\\SolrSearch\\Interfaces\\ConfigStore</title>
<path fill="none" stroke="black" stroke-dasharray="1,5" d="M514.761,-1215.81C443.092,-1210.66 322.376,-1201.99 252.263,-1196.95"/>
<polygon fill="none" stroke="black" points="252.104,-1193.43 241.879,-1196.2 251.602,-1200.41 252.104,-1193.43"/>
</g>
<!-- \\Firesphere\\SolrSearch\\Stores\\FileConfigStore -->
<g id="node26" class="node"><title>\\Firesphere\\SolrSearch\\Stores\\FileConfigStore</title>
<polygon fill="none" stroke="black" points="633.065,-1184 515.065,-1184 515.065,-1148 633.065,-1148 633.065,-1184"/>
<text text-anchor="middle" x="574.065" y="-1163.2" font-family="Courier,monospace" font-size="11.00">FileConfigStore</text>
</g>
<!-- \\Firesphere\\SolrSearch\\Stores\\FileConfigStore&#45;&gt;\\Firesphere\\SolrSearch\\Interfaces\\ConfigStore -->
<g id="edge9" class="edge"><title>\\Firesphere\\SolrSearch\\Stores\\FileConfigStore&#45;&gt;\\Firesphere\\SolrSearch\\Interfaces\\ConfigStore</title>
<path fill="none" stroke="black" stroke-dasharray="1,5" d="M514.761,-1170.19C443.092,-1175.34 322.376,-1184.01 252.263,-1189.05"/>
<polygon fill="none" stroke="black" points="251.602,-1185.59 241.879,-1189.8 252.104,-1192.57 251.602,-1185.59"/>
</g>
<!-- \\Firesphere\\SolrSearch\\Factories\\DocumentFactory -->
<g id="node27" class="node"><title>\\Firesphere\\SolrSearch\\Factories\\DocumentFactory</title>
<polygon fill="none" stroke="black" points="633.065,-1024 515.065,-1024 515.065,-988 633.065,-988 633.065,-1024"/>
<text text-anchor="middle" x="574.065" y="-1003.2" font-family="Courier,monospace" font-size="11.00">DocumentFactory</text>
</g>
<!-- \\Firesphere\\SolrSearch\\Extensions\\GridFieldExtension -->
<g id="node28" class="node"><title>\\Firesphere\\SolrSearch\\Extensions\\GridFieldExtension</title>
<polygon fill="none" stroke="black" points="643.065,-944 505.065,-944 505.065,-908 643.065,-908 643.065,-944"/>
<text text-anchor="middle" x="574.065" y="-923.2" font-family="Courier,monospace" font-size="11.00">GridFieldExtension</text>
</g>
<!-- \\Firesphere\\SolrSearch\\Extensions\\GridFieldExtension&#45;&gt;\\SilverStripe\\Core\\Extension -->
<g id="edge7" class="edge"><title>\\Firesphere\\SolrSearch\\Extensions\\GridFieldExtension&#45;&gt;\\SilverStripe\\Core\\Extension</title>
<path fill="none" stroke="black" d="M504.904,-917.913C487.902,-913.462 470.551,-906.591 456.565,-896 307.254,-782.936 228.869,-556.998 205.164,-478.026"/>
<polygon fill="none" stroke="black" points="208.483,-476.906 202.3,-468.302 201.768,-478.883 208.483,-476.906"/>
</g>
<!-- \\Firesphere\\SolrSearch\\Admins\\SearchAdmin -->
<g id="node29" class="node"><title>\\Firesphere\\SolrSearch\\Admins\\SearchAdmin</title>
<polygon fill="none" stroke="black" points="619.565,-864 528.565,-864 528.565,-828 619.565,-828 619.565,-864"/>
<text text-anchor="middle" x="574.065" y="-843.2" font-family="Courier,monospace" font-size="11.00">SearchAdmin</text>
</g>
<!-- \\SilverStripe\\Admin\\ModelAdmin -->
<g id="node40" class="node"><title>\\SilverStripe\\Admin\\ModelAdmin</title>
<ellipse fill="none" stroke="black" cx="196.283" cy="-180" rx="133.477" ry="18"/>
<text text-anchor="middle" x="196.283" y="-176.3" font-family="Times,serif" font-size="14.00" fill="gray">\SilverStripe\Admin\ModelAdmin</text>
</g>
<!-- \\Firesphere\\SolrSearch\\Admins\\SearchAdmin&#45;&gt;\\SilverStripe\\Admin\\ModelAdmin -->
<g id="edge8" class="edge"><title>\\Firesphere\\SolrSearch\\Admins\\SearchAdmin&#45;&gt;\\SilverStripe\\Admin\\ModelAdmin</title>
<path fill="none" stroke="black" d="M528.49,-846.239C503.607,-843.86 474.162,-836.402 456.565,-816 367.686,-712.957 487.202,-304.782 392.565,-207 375.019,-188.871 351.386,-178.944 326.626,-173.998"/>
<polygon fill="none" stroke="black" points="327.169,-170.54 316.718,-172.284 325.975,-177.437 327.169,-170.54"/>
</g>
<!-- \\Firesphere\\SolrSearch\\Services\\SchemaService -->
<g id="node30" class="node"><title>\\Firesphere\\SolrSearch\\Services\\SchemaService</title>
<polygon fill="none" stroke="black" points="626.065,-784 522.065,-784 522.065,-748 626.065,-748 626.065,-784"/>
<text text-anchor="middle" x="574.065" y="-763.2" font-family="Courier,monospace" font-size="11.00">SchemaService</text>
</g>
<!-- \\SilverStripe\\View\\ViewableData -->
<g id="node42" class="node"><title>\\SilverStripe\\View\\ViewableData</title>
<ellipse fill="none" stroke="black" cx="196.283" cy="-126" rx="129.177" ry="18"/>
<text text-anchor="middle" x="196.283" y="-122.3" font-family="Times,serif" font-size="14.00" fill="gray">\SilverStripe\View\ViewableData</text>
</g>
<!-- \\Firesphere\\SolrSearch\\Services\\SchemaService&#45;&gt;\\SilverStripe\\View\\ViewableData -->
<g id="edge12" class="edge"><title>\\Firesphere\\SolrSearch\\Services\\SchemaService&#45;&gt;\\SilverStripe\\View\\ViewableData</title>
<path fill="none" stroke="black" d="M521.776,-765.443C498.498,-762.387 472.637,-754.546 456.565,-736 285.854,-539.009 574.282,-339.887 392.565,-153 373.547,-133.44 347.439,-123.444 320.5,-118.951"/>
<polygon fill="none" stroke="black" points="320.942,-115.479 310.549,-117.537 319.958,-122.409 320.942,-115.479"/>
</g>
<!-- \\Firesphere\\SolrSearch\\Forms\\SolrSearchForm -->
<g id="node31" class="node"><title>\\Firesphere\\SolrSearch\\Forms\\SolrSearchForm</title>
<polygon fill="none" stroke="black" points="629.565,-704 518.565,-704 518.565,-668 629.565,-668 629.565,-704"/>
<text text-anchor="middle" x="574.065" y="-683.2" font-family="Courier,monospace" font-size="11.00">SolrSearchForm</text>
</g>
<!-- \\SilverStripe\\Forms\\Form -->
<g id="node43" class="node"><title>\\SilverStripe\\Forms\\Form</title>
<ellipse fill="none" stroke="black" cx="196.283" cy="-72" rx="102.882" ry="18"/>
<text text-anchor="middle" x="196.283" y="-68.3" font-family="Times,serif" font-size="14.00" fill="gray">\SilverStripe\Forms\Form</text>
</g>
<!-- \\Firesphere\\SolrSearch\\Forms\\SolrSearchForm&#45;&gt;\\SilverStripe\\Forms\\Form -->
<g id="edge13" class="edge"><title>\\Firesphere\\SolrSearch\\Forms\\SolrSearchForm&#45;&gt;\\SilverStripe\\Forms\\Form</title>
<path fill="none" stroke="black" d="M518.534,-684.945C496.148,-681.586 471.929,-673.639 456.565,-656 292.898,-468.101 566.728,-277.214 392.565,-99 366.764,-72.5983 328.038,-63.6512 291.859,-62.1371"/>
<polygon fill="none" stroke="black" points="291.815,-58.6352 281.735,-61.8989 291.65,-65.6333 291.815,-58.6352"/>
</g>
<!-- \\Firesphere\\SolrSearch\\Jobs\\SolrConfigureJob -->
<g id="node33" class="node"><title>\\Firesphere\\SolrSearch\\Jobs\\SolrConfigureJob</title>
<polygon fill="none" stroke="black" points="636.565,-624 511.565,-624 511.565,-588 636.565,-588 636.565,-624"/>
<text text-anchor="middle" x="574.065" y="-603.2" font-family="Courier,monospace" font-size="11.00">SolrConfigureJob</text>
</g>
<!-- \\Symbiote\\QueuedJobs\\Services\\AbstractQueuedJob -->
<g id="node44" class="node"><title>\\Symbiote\\QueuedJobs\\Services\\AbstractQueuedJob</title>
<ellipse fill="none" stroke="black" cx="196.283" cy="-18" rx="196.065" ry="18"/>
<text text-anchor="middle" x="196.283" y="-14.3" font-family="Times,serif" font-size="14.00" fill="gray">\Symbiote\QueuedJobs\Services\AbstractQueuedJob</text>
</g>
<!-- \\Firesphere\\SolrSearch\\Jobs\\SolrConfigureJob&#45;&gt;\\Symbiote\\QueuedJobs\\Services\\AbstractQueuedJob -->
<g id="edge14" class="edge"><title>\\Firesphere\\SolrSearch\\Jobs\\SolrConfigureJob&#45;&gt;\\Symbiote\\QueuedJobs\\Services\\AbstractQueuedJob</title>
<path fill="none" stroke="black" d="M511.337,-603.659C491.113,-599.725 470.327,-591.711 456.565,-576 299.939,-397.189 559.178,-214.544 392.565,-45 387.842,-40.194 382.691,-35.9675 377.205,-32.2599"/>
<polygon fill="none" stroke="black" points="378.683,-29.0625 368.322,-26.8519 375.043,-35.0416 378.683,-29.0625"/>
</g>
<!-- \\Firesphere\\SolrSearch\\Queries\\BaseQuery -->
<g id="node34" class="node"><title>\\Firesphere\\SolrSearch\\Queries\\BaseQuery</title>
<polygon fill="none" stroke="black" points="612.565,-544 535.565,-544 535.565,-508 612.565,-508 612.565,-544"/>
<text text-anchor="middle" x="574.065" y="-523.2" font-family="Courier,monospace" font-size="11.00">BaseQuery</text>
</g>
<!-- \\SilverStripe\\FullTextSearch\\Solr\\SolrIndex -->
<g id="node35" class="node"><title>\\SilverStripe\\FullTextSearch\\Solr\\SolrIndex</title>
<polygon fill="none" stroke="black" points="839.565,-2422 755.565,-2422 755.565,-2386 839.565,-2386 839.565,-2422"/>
<text text-anchor="start" x="763.565" y="-2407.2" font-family="Courier,monospace" font-size="11.00">«abstract»</text>
<text text-anchor="start" x="767.065" y="-2395.2" font-family="Courier,monospace" font-size="11.00">SolrIndex</text>
</g>
<!-- \\SilverStripe\\FullTextSearch\\Solr\\SolrIndex&#45;&gt;\\Firesphere\\SolrSearch\\Indexes\\BaseIndex -->
<g id="edge5" class="edge"><title>\\SilverStripe\\FullTextSearch\\Solr\\SolrIndex&#45;&gt;\\Firesphere\\SolrSearch\\Indexes\\BaseIndex</title>
<path fill="none" stroke="black" d="M755.422,-2404C719.015,-2404 665.733,-2404 626.517,-2404"/>
<polygon fill="none" stroke="black" points="626.363,-2400.5 616.363,-2404 626.363,-2407.5 626.363,-2400.5"/>
</g>
<!-- \\SilverStripe\\FullTextSearch\\Solr\\Solr -->
<g id="node36" class="node"><title>\\SilverStripe\\FullTextSearch\\Solr\\Solr</title>
<polygon fill="none" stroke="black" points="824.565,-2368 770.565,-2368 770.565,-2332 824.565,-2332 824.565,-2368"/>
<text text-anchor="middle" x="797.565" y="-2347.2" font-family="Courier,monospace" font-size="11.00">Solr</text>
</g>
</g>
</svg>
