<?xml version="1.0" encoding="UTF-8" standalone="no"?>
<!DOCTYPE svg PUBLIC "-//W3C//DTD SVG 1.1//EN"
 "http://www.w3.org/Graphics/SVG/1.1/DTD/svg11.dtd">
<!-- Generated by graphviz version 2.40.1 (20161225.0304)
 -->
<!-- Title: G Pages: 1 -->
<svg width="984pt" height="3436pt"
 viewBox="0.00 0.00 984.25 3436.20" xmlns="http://www.w3.org/2000/svg" xmlns:xlink="http://www.w3.org/1999/xlink">
<g id="graph0" class="graph" transform="scale(1 1) rotate(0) translate(4 3432.1995)">
<title>G</title>
<polygon fill="#ffffff" stroke="transparent" points="-4,4 -4,-3432.1995 980.2549,-3432.1995 980.2549,4 -4,4"/>
<g id="clust1" class="cluster">
<title>cluster_Global</title>
<path fill="none" stroke="#c0c0c0" d="M188.6275,-476.1995C188.6275,-476.1995 956.2549,-476.1995 956.2549,-476.1995 962.2549,-476.1995 968.2549,-482.1995 968.2549,-488.1995 968.2549,-488.1995 968.2549,-3408.1995 968.2549,-3408.1995 968.2549,-3414.1995 962.2549,-3420.1995 956.2549,-3420.1995 956.2549,-3420.1995 188.6275,-3420.1995 188.6275,-3420.1995 182.6275,-3420.1995 176.6275,-3414.1995 176.6275,-3408.1995 176.6275,-3408.1995 176.6275,-488.1995 176.6275,-488.1995 176.6275,-482.1995 182.6275,-476.1995 188.6275,-476.1995"/>
<text text-anchor="middle" x="572.4412" y="-3407.3995" font-family="Times,serif" font-size="11.00" fill="#c0c0c0">Global</text>
</g>
<g id="clust2" class="cluster">
<title>cluster_\SilverStripe</title>
<path fill="none" stroke="#c0c0c0" d="M817.2549,-1082.1995C817.2549,-1082.1995 948.2549,-1082.1995 948.2549,-1082.1995 954.2549,-1082.1995 960.2549,-1088.1995 960.2549,-1094.1995 960.2549,-1094.1995 960.2549,-1384.1995 960.2549,-1384.1995 960.2549,-1390.1995 954.2549,-1396.1995 948.2549,-1396.1995 948.2549,-1396.1995 817.2549,-1396.1995 817.2549,-1396.1995 811.2549,-1396.1995 805.2549,-1390.1995 805.2549,-1384.1995 805.2549,-1384.1995 805.2549,-1094.1995 805.2549,-1094.1995 805.2549,-1088.1995 811.2549,-1082.1995 817.2549,-1082.1995"/>
<text text-anchor="middle" x="882.7549" y="-1383.3995" font-family="Times,serif" font-size="11.00" fill="#c0c0c0">SilverStripe</text>
</g>
<g id="clust3" class="cluster">
<title>cluster_\SilverStripe\FullTextSearch</title>
<path fill="none" stroke="#c0c0c0" d="M825.2549,-1090.1995C825.2549,-1090.1995 940.2549,-1090.1995 940.2549,-1090.1995 946.2549,-1090.1995 952.2549,-1096.1995 952.2549,-1102.1995 952.2549,-1102.1995 952.2549,-1356.1995 952.2549,-1356.1995 952.2549,-1362.1995 946.2549,-1368.1995 940.2549,-1368.1995 940.2549,-1368.1995 825.2549,-1368.1995 825.2549,-1368.1995 819.2549,-1368.1995 813.2549,-1362.1995 813.2549,-1356.1995 813.2549,-1356.1995 813.2549,-1102.1995 813.2549,-1102.1995 813.2549,-1096.1995 819.2549,-1090.1995 825.2549,-1090.1995"/>
<text text-anchor="middle" x="882.7549" y="-1355.3995" font-family="Times,serif" font-size="11.00" fill="#c0c0c0">FullTextSearch</text>
</g>
<g id="clust4" class="cluster">
<title>cluster_\SilverStripe\FullTextSearch\Search</title>
<path fill="none" stroke="#c0c0c0" d="M833.2549,-1232.1995C833.2549,-1232.1995 932.2549,-1232.1995 932.2549,-1232.1995 938.2549,-1232.1995 944.2549,-1238.1995 944.2549,-1244.1995 944.2549,-1244.1995 944.2549,-1328.1995 944.2549,-1328.1995 944.2549,-1334.1995 938.2549,-1340.1995 932.2549,-1340.1995 932.2549,-1340.1995 833.2549,-1340.1995 833.2549,-1340.1995 827.2549,-1340.1995 821.2549,-1334.1995 821.2549,-1328.1995 821.2549,-1328.1995 821.2549,-1244.1995 821.2549,-1244.1995 821.2549,-1238.1995 827.2549,-1232.1995 833.2549,-1232.1995"/>
<text text-anchor="middle" x="882.7549" y="-1327.3995" font-family="Times,serif" font-size="11.00" fill="#c0c0c0">Search</text>
</g>
<g id="clust5" class="cluster">
<title>cluster_\SilverStripe\FullTextSearch\Search\Queries</title>
<path fill="none" stroke="#c0c0c0" d="M841.2549,-1240.1995C841.2549,-1240.1995 924.2549,-1240.1995 924.2549,-1240.1995 930.2549,-1240.1995 936.2549,-1246.1995 936.2549,-1252.1995 936.2549,-1252.1995 936.2549,-1300.1995 936.2549,-1300.1995 936.2549,-1306.1995 930.2549,-1312.1995 924.2549,-1312.1995 924.2549,-1312.1995 841.2549,-1312.1995 841.2549,-1312.1995 835.2549,-1312.1995 829.2549,-1306.1995 829.2549,-1300.1995 829.2549,-1300.1995 829.2549,-1252.1995 829.2549,-1252.1995 829.2549,-1246.1995 835.2549,-1240.1995 841.2549,-1240.1995"/>
<text text-anchor="middle" x="882.7549" y="-1299.3995" font-family="Times,serif" font-size="11.00" fill="#c0c0c0">Queries</text>
</g>
<g id="clust6" class="cluster">
<title>cluster_\SilverStripe\FullTextSearch\Solr</title>
<path fill="none" stroke="#c0c0c0" d="M844.7549,-1098.1995C844.7549,-1098.1995 920.7549,-1098.1995 920.7549,-1098.1995 926.7549,-1098.1995 932.7549,-1104.1995 932.7549,-1110.1995 932.7549,-1110.1995 932.7549,-1212.1995 932.7549,-1212.1995 932.7549,-1218.1995 926.7549,-1224.1995 920.7549,-1224.1995 920.7549,-1224.1995 844.7549,-1224.1995 844.7549,-1224.1995 838.7549,-1224.1995 832.7549,-1218.1995 832.7549,-1212.1995 832.7549,-1212.1995 832.7549,-1110.1995 832.7549,-1110.1995 832.7549,-1104.1995 838.7549,-1098.1995 844.7549,-1098.1995"/>
<text text-anchor="middle" x="882.7549" y="-1211.3995" font-family="Times,serif" font-size="11.00" fill="#c0c0c0">Solr</text>
</g>
<g id="clust7" class="cluster">
<title>cluster_\Firesphere</title>
<path fill="none" stroke="#c0c0c0" d="M196.6275,-484.1995C196.6275,-484.1995 777.2549,-484.1995 777.2549,-484.1995 783.2549,-484.1995 789.2549,-490.1995 789.2549,-496.1995 789.2549,-496.1995 789.2549,-3380.1995 789.2549,-3380.1995 789.2549,-3386.1995 783.2549,-3392.1995 777.2549,-3392.1995 777.2549,-3392.1995 196.6275,-3392.1995 196.6275,-3392.1995 190.6275,-3392.1995 184.6275,-3386.1995 184.6275,-3380.1995 184.6275,-3380.1995 184.6275,-496.1995 184.6275,-496.1995 184.6275,-490.1995 190.6275,-484.1995 196.6275,-484.1995"/>
<text text-anchor="middle" x="486.9412" y="-3379.3995" font-family="Times,serif" font-size="11.00" fill="#c0c0c0">Firesphere</text>
</g>
<g id="clust8" class="cluster">
<title>cluster_\Firesphere\SolrSearch</title>
<path fill="none" stroke="#c0c0c0" d="M204.6275,-492.1995C204.6275,-492.1995 769.2549,-492.1995 769.2549,-492.1995 775.2549,-492.1995 781.2549,-498.1995 781.2549,-504.1995 781.2549,-504.1995 781.2549,-3352.1995 781.2549,-3352.1995 781.2549,-3358.1995 775.2549,-3364.1995 769.2549,-3364.1995 769.2549,-3364.1995 204.6275,-3364.1995 204.6275,-3364.1995 198.6275,-3364.1995 192.6275,-3358.1995 192.6275,-3352.1995 192.6275,-3352.1995 192.6275,-504.1995 192.6275,-504.1995 192.6275,-498.1995 198.6275,-492.1995 204.6275,-492.1995"/>
<text text-anchor="middle" x="486.9412" y="-3351.3995" font-family="Times,serif" font-size="11.00" fill="#c0c0c0">SolrSearch</text>
</g>
<g id="clust9" class="cluster">
<title>cluster_\Firesphere\SolrSearch\Compat</title>
<path fill="none" stroke="#c0c0c0" d="M590.7549,-3264.1995C590.7549,-3264.1995 754.7549,-3264.1995 754.7549,-3264.1995 760.7549,-3264.1995 766.7549,-3270.1995 766.7549,-3276.1995 766.7549,-3276.1995 766.7549,-3324.1995 766.7549,-3324.1995 766.7549,-3330.1995 760.7549,-3336.1995 754.7549,-3336.1995 754.7549,-3336.1995 590.7549,-3336.1995 590.7549,-3336.1995 584.7549,-3336.1995 578.7549,-3330.1995 578.7549,-3324.1995 578.7549,-3324.1995 578.7549,-3276.1995 578.7549,-3276.1995 578.7549,-3270.1995 584.7549,-3264.1995 590.7549,-3264.1995"/>
<text text-anchor="middle" x="672.7549" y="-3323.3995" font-family="Times,serif" font-size="11.00" fill="#c0c0c0">Compat</text>
</g>
<g id="clust10" class="cluster">
<title>cluster_\Firesphere\SolrSearch\Traits</title>
<path fill="none" stroke="#c0c0c0" d="M584.2549,-2428.1995C584.2549,-2428.1995 761.2549,-2428.1995 761.2549,-2428.1995 767.2549,-2428.1995 773.2549,-2434.1995 773.2549,-2440.1995 773.2549,-2440.1995 773.2549,-3244.1995 773.2549,-3244.1995 773.2549,-3250.1995 767.2549,-3256.1995 761.2549,-3256.1995 761.2549,-3256.1995 584.2549,-3256.1995 584.2549,-3256.1995 578.2549,-3256.1995 572.2549,-3250.1995 572.2549,-3244.1995 572.2549,-3244.1995 572.2549,-2440.1995 572.2549,-2440.1995 572.2549,-2434.1995 578.2549,-2428.1995 584.2549,-2428.1995"/>
<text text-anchor="middle" x="672.7549" y="-3243.3995" font-family="Times,serif" font-size="11.00" fill="#c0c0c0">Traits</text>
</g>
<g id="clust11" class="cluster">
<title>cluster_\Firesphere\SolrSearch\Results</title>
<path fill="none" stroke="#c0c0c0" d="M627.7549,-2348.1995C627.7549,-2348.1995 717.7549,-2348.1995 717.7549,-2348.1995 723.7549,-2348.1995 729.7549,-2354.1995 729.7549,-2360.1995 729.7549,-2360.1995 729.7549,-2408.1995 729.7549,-2408.1995 729.7549,-2414.1995 723.7549,-2420.1995 717.7549,-2420.1995 717.7549,-2420.1995 627.7549,-2420.1995 627.7549,-2420.1995 621.7549,-2420.1995 615.7549,-2414.1995 615.7549,-2408.1995 615.7549,-2408.1995 615.7549,-2360.1995 615.7549,-2360.1995 615.7549,-2354.1995 621.7549,-2348.1995 627.7549,-2348.1995"/>
<text text-anchor="middle" x="672.7549" y="-2407.3995" font-family="Times,serif" font-size="11.00" fill="#c0c0c0">Results</text>
</g>
<g id="clust12" class="cluster">
<title>cluster_\Firesphere\SolrSearch\Interfaces</title>
<path fill="none" stroke="#c0c0c0" d="M212.6275,-1491.1995C212.6275,-1491.1995 295.6275,-1491.1995 295.6275,-1491.1995 301.6275,-1491.1995 307.6275,-1497.1995 307.6275,-1503.1995 307.6275,-1503.1995 307.6275,-1551.1995 307.6275,-1551.1995 307.6275,-1557.1995 301.6275,-1563.1995 295.6275,-1563.1995 295.6275,-1563.1995 212.6275,-1563.1995 212.6275,-1563.1995 206.6275,-1563.1995 200.6275,-1557.1995 200.6275,-1551.1995 200.6275,-1551.1995 200.6275,-1503.1995 200.6275,-1503.1995 200.6275,-1497.1995 206.6275,-1491.1995 212.6275,-1491.1995"/>
<text text-anchor="middle" x="254.1275" y="-1550.3995" font-family="Times,serif" font-size="11.00" fill="#c0c0c0">Interfaces</text>
</g>
<g id="clust13" class="cluster">
<title>cluster_\Firesphere\SolrSearch\Helpers</title>
<path fill="none" stroke="#c0c0c0" d="M624.7549,-2052.1995C624.7549,-2052.1995 720.7549,-2052.1995 720.7549,-2052.1995 726.7549,-2052.1995 732.7549,-2058.1995 732.7549,-2064.1995 732.7549,-2064.1995 732.7549,-2328.1995 732.7549,-2328.1995 732.7549,-2334.1995 726.7549,-2340.1995 720.7549,-2340.1995 720.7549,-2340.1995 624.7549,-2340.1995 624.7549,-2340.1995 618.7549,-2340.1995 612.7549,-2334.1995 612.7549,-2328.1995 612.7549,-2328.1995 612.7549,-2064.1995 612.7549,-2064.1995 612.7549,-2058.1995 618.7549,-2052.1995 624.7549,-2052.1995"/>
<text text-anchor="middle" x="672.7549" y="-2327.3995" font-family="Times,serif" font-size="11.00" fill="#c0c0c0">Helpers</text>
</g>
<g id="clust14" class="cluster">
<title>cluster_\Firesphere\SolrSearch\Admins</title>
<path fill="none" stroke="#c0c0c0" d="M631.2549,-1972.1995C631.2549,-1972.1995 714.2549,-1972.1995 714.2549,-1972.1995 720.2549,-1972.1995 726.2549,-1978.1995 726.2549,-1984.1995 726.2549,-1984.1995 726.2549,-2032.1995 726.2549,-2032.1995 726.2549,-2038.1995 720.2549,-2044.1995 714.2549,-2044.1995 714.2549,-2044.1995 631.2549,-2044.1995 631.2549,-2044.1995 625.2549,-2044.1995 619.2549,-2038.1995 619.2549,-2032.1995 619.2549,-2032.1995 619.2549,-1984.1995 619.2549,-1984.1995 619.2549,-1978.1995 625.2549,-1972.1995 631.2549,-1972.1995"/>
<text text-anchor="middle" x="672.7549" y="-2031.3995" font-family="Times,serif" font-size="11.00" fill="#c0c0c0">Admins</text>
</g>
<g id="clust15" class="cluster">
<title>cluster_\Firesphere\SolrSearch\States</title>
<path fill="none" stroke="#c0c0c0" d="M634.7549,-1892.1995C634.7549,-1892.1995 710.7549,-1892.1995 710.7549,-1892.1995 716.7549,-1892.1995 722.7549,-1898.1995 722.7549,-1904.1995 722.7549,-1904.1995 722.7549,-1952.1995 722.7549,-1952.1995 722.7549,-1958.1995 716.7549,-1964.1995 710.7549,-1964.1995 710.7549,-1964.1995 634.7549,-1964.1995 634.7549,-1964.1995 628.7549,-1964.1995 622.7549,-1958.1995 622.7549,-1952.1995 622.7549,-1952.1995 622.7549,-1904.1995 622.7549,-1904.1995 622.7549,-1898.1995 628.7549,-1892.1995 634.7549,-1892.1995"/>
<text text-anchor="middle" x="672.7549" y="-1951.3995" font-family="Times,serif" font-size="11.00" fill="#c0c0c0">States</text>
</g>
<g id="clust16" class="cluster">
<title>cluster_\Firesphere\SolrSearch\Models</title>
<path fill="none" stroke="#c0c0c0" d="M634.7549,-1758.1995C634.7549,-1758.1995 710.7549,-1758.1995 710.7549,-1758.1995 716.7549,-1758.1995 722.7549,-1764.1995 722.7549,-1770.1995 722.7549,-1770.1995 722.7549,-1872.1995 722.7549,-1872.1995 722.7549,-1878.1995 716.7549,-1884.1995 710.7549,-1884.1995 710.7549,-1884.1995 634.7549,-1884.1995 634.7549,-1884.1995 628.7549,-1884.1995 622.7549,-1878.1995 622.7549,-1872.1995 622.7549,-1872.1995 622.7549,-1770.1995 622.7549,-1770.1995 622.7549,-1764.1995 628.7549,-1758.1995 634.7549,-1758.1995"/>
<text text-anchor="middle" x="672.7549" y="-1871.3995" font-family="Times,serif" font-size="11.00" fill="#c0c0c0">Models</text>
</g>
<g id="clust17" class="cluster">
<title>cluster_\Firesphere\SolrSearch\Services</title>
<path fill="none" stroke="#c0c0c0" d="M624.7549,-1678.1995C624.7549,-1678.1995 720.7549,-1678.1995 720.7549,-1678.1995 726.7549,-1678.1995 732.7549,-1684.1995 732.7549,-1690.1995 732.7549,-1690.1995 732.7549,-1738.1995 732.7549,-1738.1995 732.7549,-1744.1995 726.7549,-1750.1995 720.7549,-1750.1995 720.7549,-1750.1995 624.7549,-1750.1995 624.7549,-1750.1995 618.7549,-1750.1995 612.7549,-1744.1995 612.7549,-1738.1995 612.7549,-1738.1995 612.7549,-1690.1995 612.7549,-1690.1995 612.7549,-1684.1995 618.7549,-1678.1995 624.7549,-1678.1995"/>
<text text-anchor="middle" x="672.7549" y="-1737.3995" font-family="Times,serif" font-size="11.00" fill="#c0c0c0">Services</text>
</g>
<g id="clust18" class="cluster">
<title>cluster_\Firesphere\SolrSearch\Indexes</title>
<path fill="none" stroke="#c0c0c0" d="M634.7549,-1598.1995C634.7549,-1598.1995 710.7549,-1598.1995 710.7549,-1598.1995 716.7549,-1598.1995 722.7549,-1604.1995 722.7549,-1610.1995 722.7549,-1610.1995 722.7549,-1658.1995 722.7549,-1658.1995 722.7549,-1664.1995 716.7549,-1670.1995 710.7549,-1670.1995 710.7549,-1670.1995 634.7549,-1670.1995 634.7549,-1670.1995 628.7549,-1670.1995 622.7549,-1664.1995 622.7549,-1658.1995 622.7549,-1658.1995 622.7549,-1610.1995 622.7549,-1610.1995 622.7549,-1604.1995 628.7549,-1598.1995 634.7549,-1598.1995"/>
<text text-anchor="middle" x="672.7549" y="-1657.3995" font-family="Times,serif" font-size="11.00" fill="#c0c0c0">Indexes</text>
</g>
<g id="clust19" class="cluster">
<title>cluster_\Firesphere\SolrSearch\Extensions</title>
<path fill="none" stroke="#c0c0c0" d="M604.2549,-1330.1995C604.2549,-1330.1995 741.2549,-1330.1995 741.2549,-1330.1995 747.2549,-1330.1995 753.2549,-1336.1995 753.2549,-1342.1995 753.2549,-1342.1995 753.2549,-1444.1995 753.2549,-1444.1995 753.2549,-1450.1995 747.2549,-1456.1995 741.2549,-1456.1995 741.2549,-1456.1995 604.2549,-1456.1995 604.2549,-1456.1995 598.2549,-1456.1995 592.2549,-1450.1995 592.2549,-1444.1995 592.2549,-1444.1995 592.2549,-1342.1995 592.2549,-1342.1995 592.2549,-1336.1995 598.2549,-1330.1995 604.2549,-1330.1995"/>
<text text-anchor="middle" x="672.7549" y="-1443.3995" font-family="Times,serif" font-size="11.00" fill="#c0c0c0">Extensions</text>
</g>
<g id="clust20" class="cluster">
<title>cluster_\Firesphere\SolrSearch\Tasks</title>
<path fill="none" stroke="#c0c0c0" d="M597.7549,-1142.1995C597.7549,-1142.1995 747.7549,-1142.1995 747.7549,-1142.1995 753.7549,-1142.1995 759.7549,-1148.1995 759.7549,-1154.1995 759.7549,-1154.1995 759.7549,-1310.1995 759.7549,-1310.1995 759.7549,-1316.1995 753.7549,-1322.1995 747.7549,-1322.1995 747.7549,-1322.1995 597.7549,-1322.1995 597.7549,-1322.1995 591.7549,-1322.1995 585.7549,-1316.1995 585.7549,-1310.1995 585.7549,-1310.1995 585.7549,-1154.1995 585.7549,-1154.1995 585.7549,-1148.1995 591.7549,-1142.1995 597.7549,-1142.1995"/>
<text text-anchor="middle" x="672.7549" y="-1309.3995" font-family="Times,serif" font-size="11.00" fill="#c0c0c0">Tasks</text>
</g>
<g id="clust21" class="cluster">
<title>cluster_\Firesphere\SolrSearch\Forms</title>
<path fill="none" stroke="#c0c0c0" d="M634.7549,-1062.1995C634.7549,-1062.1995 710.7549,-1062.1995 710.7549,-1062.1995 716.7549,-1062.1995 722.7549,-1068.1995 722.7549,-1074.1995 722.7549,-1074.1995 722.7549,-1122.1995 722.7549,-1122.1995 722.7549,-1128.1995 716.7549,-1134.1995 710.7549,-1134.1995 710.7549,-1134.1995 634.7549,-1134.1995 634.7549,-1134.1995 628.7549,-1134.1995 622.7549,-1128.1995 622.7549,-1122.1995 622.7549,-1122.1995 622.7549,-1074.1995 622.7549,-1074.1995 622.7549,-1068.1995 628.7549,-1062.1995 634.7549,-1062.1995"/>
<text text-anchor="middle" x="672.7549" y="-1121.3995" font-family="Times,serif" font-size="11.00" fill="#c0c0c0">Forms</text>
</g>
<g id="clust22" class="cluster">
<title>cluster_\Firesphere\SolrSearch\Stores</title>
<path fill="none" stroke="#c0c0c0" d="M617.7549,-1464.1995C617.7549,-1464.1995 727.7549,-1464.1995 727.7549,-1464.1995 733.7549,-1464.1995 739.7549,-1470.1995 739.7549,-1476.1995 739.7549,-1476.1995 739.7549,-1578.1995 739.7549,-1578.1995 739.7549,-1584.1995 733.7549,-1590.1995 727.7549,-1590.1995 727.7549,-1590.1995 617.7549,-1590.1995 617.7549,-1590.1995 611.7549,-1590.1995 605.7549,-1584.1995 605.7549,-1578.1995 605.7549,-1578.1995 605.7549,-1476.1995 605.7549,-1476.1995 605.7549,-1470.1995 611.7549,-1464.1995 617.7549,-1464.1995"/>
<text text-anchor="middle" x="672.7549" y="-1577.3995" font-family="Times,serif" font-size="11.00" fill="#c0c0c0">Stores</text>
</g>
<g id="clust23" class="cluster">
<title>cluster_\Firesphere\SolrSearch\Jobs</title>
<path fill="none" stroke="#c0c0c0" d="M600.7549,-874.1995C600.7549,-874.1995 744.7549,-874.1995 744.7549,-874.1995 750.7549,-874.1995 756.7549,-880.1995 756.7549,-886.1995 756.7549,-886.1995 756.7549,-1042.1995 756.7549,-1042.1995 756.7549,-1048.1995 750.7549,-1054.1995 744.7549,-1054.1995 744.7549,-1054.1995 600.7549,-1054.1995 600.7549,-1054.1995 594.7549,-1054.1995 588.7549,-1048.1995 588.7549,-1042.1995 588.7549,-1042.1995 588.7549,-886.1995 588.7549,-886.1995 588.7549,-880.1995 594.7549,-874.1995 600.7549,-874.1995"/>
<text text-anchor="middle" x="672.7549" y="-1041.3995" font-family="Times,serif" font-size="11.00" fill="#c0c0c0">Jobs</text>
</g>
<g id="clust24" class="cluster">
<title>cluster_\Firesphere\SolrSearch\Queries</title>
<path fill="none" stroke="#c0c0c0" d="M638.2549,-794.1995C638.2549,-794.1995 707.2549,-794.1995 707.2549,-794.1995 713.2549,-794.1995 719.2549,-800.1995 719.2549,-806.1995 719.2549,-806.1995 719.2549,-854.1995 719.2549,-854.1995 719.2549,-860.1995 713.2549,-866.1995 707.2549,-866.1995 707.2549,-866.1995 638.2549,-866.1995 638.2549,-866.1995 632.2549,-866.1995 626.2549,-860.1995 626.2549,-854.1995 626.2549,-854.1995 626.2549,-806.1995 626.2549,-806.1995 626.2549,-800.1995 632.2549,-794.1995 638.2549,-794.1995"/>
<text text-anchor="middle" x="672.7549" y="-853.3995" font-family="Times,serif" font-size="11.00" fill="#c0c0c0">Queries</text>
</g>
<g id="clust25" class="cluster">
<title>cluster_\Firesphere\SolrSearch\Factories</title>
<path fill="none" stroke="#c0c0c0" d="M597.7549,-660.1995C597.7549,-660.1995 747.7549,-660.1995 747.7549,-660.1995 753.7549,-660.1995 759.7549,-666.1995 759.7549,-672.1995 759.7549,-672.1995 759.7549,-774.1995 759.7549,-774.1995 759.7549,-780.1995 753.7549,-786.1995 747.7549,-786.1995 747.7549,-786.1995 597.7549,-786.1995 597.7549,-786.1995 591.7549,-786.1995 585.7549,-780.1995 585.7549,-774.1995 585.7549,-774.1995 585.7549,-672.1995 585.7549,-672.1995 585.7549,-666.1995 591.7549,-660.1995 597.7549,-660.1995"/>
<text text-anchor="middle" x="672.7549" y="-773.3995" font-family="Times,serif" font-size="11.00" fill="#c0c0c0">Factories</text>
</g>
<g id="clust26" class="cluster">
<title>cluster_\Firesphere\SolrSearch\Fluent</title>
<path fill="none" stroke="#c0c0c0" d="M617.7549,-580.1995C617.7549,-580.1995 727.7549,-580.1995 727.7549,-580.1995 733.7549,-580.1995 739.7549,-586.1995 739.7549,-592.1995 739.7549,-592.1995 739.7549,-640.1995 739.7549,-640.1995 739.7549,-646.1995 733.7549,-652.1995 727.7549,-652.1995 727.7549,-652.1995 617.7549,-652.1995 617.7549,-652.1995 611.7549,-652.1995 605.7549,-646.1995 605.7549,-640.1995 605.7549,-640.1995 605.7549,-592.1995 605.7549,-592.1995 605.7549,-586.1995 611.7549,-580.1995 617.7549,-580.1995"/>
<text text-anchor="middle" x="672.7549" y="-639.3995" font-family="Times,serif" font-size="11.00" fill="#c0c0c0">Fluent</text>
</g>
<g id="clust27" class="cluster">
<title>cluster_\Firesphere\SolrSearch\Subsites</title>
<path fill="none" stroke="#c0c0c0" d="M611.2549,-500.1995C611.2549,-500.1995 734.2549,-500.1995 734.2549,-500.1995 740.2549,-500.1995 746.2549,-506.1995 746.2549,-512.1995 746.2549,-512.1995 746.2549,-560.1995 746.2549,-560.1995 746.2549,-566.1995 740.2549,-572.1995 734.2549,-572.1995 734.2549,-572.1995 611.2549,-572.1995 611.2549,-572.1995 605.2549,-572.1995 599.2549,-566.1995 599.2549,-560.1995 599.2549,-560.1995 599.2549,-512.1995 599.2549,-512.1995 599.2549,-506.1995 605.2549,-500.1995 611.2549,-500.1995"/>
<text text-anchor="middle" x="672.7549" y="-559.3995" font-family="Times,serif" font-size="11.00" fill="#c0c0c0">Subsites</text>
</g>
<!-- \\SilverStripe\\FullTextSearch\\Search\\Queries\\SearchQuery -->
<g id="node1" class="node">
<title>\\SilverStripe\\FullTextSearch\\Search\\Queries\\SearchQuery</title>
<polygon fill="none" stroke="#000000" points="928.2549,-1284.1995 837.2549,-1284.1995 837.2549,-1248.1995 928.2549,-1248.1995 928.2549,-1284.1995"/>
<text text-anchor="middle" x="882.7549" y="-1263.3995" font-family="Courier,monospace" font-size="11.00" fill="#000000">SearchQuery</text>
</g>
<!-- \\Firesphere\\SolrSearch\\Queries\\BaseQuery -->
<g id="node44" class="node">
<title>\\Firesphere\\SolrSearch\\Queries\\BaseQuery</title>
<polygon fill="none" stroke="#000000" points="711.2549,-838.1995 634.2549,-838.1995 634.2549,-802.1995 711.2549,-802.1995 711.2549,-838.1995"/>
<text text-anchor="middle" x="672.7549" y="-817.3995" font-family="Courier,monospace" font-size="11.00" fill="#000000">BaseQuery</text>
</g>
<!-- \\SilverStripe\\FullTextSearch\\Search\\Queries\\SearchQuery&#45;&gt;\\Firesphere\\SolrSearch\\Queries\\BaseQuery -->
<g id="edge1" class="edge">
<title>\\SilverStripe\\FullTextSearch\\Search\\Queries\\SearchQuery&#45;&gt;\\Firesphere\\SolrSearch\\Queries\\BaseQuery</title>
<path fill="none" stroke="#000000" d="M836.9817,-1253.4081C824.6779,-1247.7068 812.7257,-1239.6075 805.2549,-1228.1995 761.6269,-1161.5788 834.5499,-935.6983 789.2549,-870.1995 773.7409,-847.7655 745.9467,-835.3345 721.3971,-828.4791"/>
<polygon fill="none" stroke="#000000" points="722.0299,-825.0286 711.4753,-825.9514 720.3017,-831.8119 722.0299,-825.0286"/>
</g>
<!-- \\SilverStripe\\FullTextSearch\\Solr\\SolrIndex -->
<g id="node2" class="node">
<title>\\SilverStripe\\FullTextSearch\\Solr\\SolrIndex</title>
<polygon fill="none" stroke="#000000" points="924.7549,-1196.1995 840.7549,-1196.1995 840.7549,-1160.1995 924.7549,-1160.1995 924.7549,-1196.1995"/>
<text text-anchor="start" x="848.7549" y="-1181.3995" font-family="Courier,monospace" font-size="11.00" fill="#000000">«abstract»</text>
<text text-anchor="start" x="852.2549" y="-1169.3995" font-family="Courier,monospace" font-size="11.00" fill="#000000">SolrIndex</text>
</g>
<!-- \\Firesphere\\SolrSearch\\Indexes\\BaseIndex -->
<g id="node32" class="node">
<title>\\Firesphere\\SolrSearch\\Indexes\\BaseIndex</title>
<polygon fill="none" stroke="#000000" points="714.7549,-1642.1995 630.7549,-1642.1995 630.7549,-1606.1995 714.7549,-1606.1995 714.7549,-1642.1995"/>
<text text-anchor="start" x="638.7549" y="-1627.3995" font-family="Courier,monospace" font-size="11.00" fill="#000000">«abstract»</text>
<text text-anchor="start" x="642.2549" y="-1615.3995" font-family="Courier,monospace" font-size="11.00" fill="#000000">BaseIndex</text>
</g>
<!-- \\SilverStripe\\FullTextSearch\\Solr\\SolrIndex&#45;&gt;\\Firesphere\\SolrSearch\\Indexes\\BaseIndex -->
<g id="edge2" class="edge">
<title>\\SilverStripe\\FullTextSearch\\Solr\\SolrIndex&#45;&gt;\\Firesphere\\SolrSearch\\Indexes\\BaseIndex</title>
<path fill="none" stroke="#000000" d="M845.9406,-1196.3063C830.5602,-1205.9101 814.212,-1219.264 805.2549,-1236.1995 786.639,-1271.3973 814.3448,-1563.2815 789.2549,-1594.1995 773.8931,-1613.1297 748.3196,-1621.034 725.0403,-1624.0316"/>
<polygon fill="none" stroke="#000000" points="724.4928,-1620.5691 714.8968,-1625.0599 725.1989,-1627.5334 724.4928,-1620.5691"/>
</g>
<!-- \\SilverStripe\\FullTextSearch\\Solr\\Solr -->
<g id="node3" class="node">
<title>\\SilverStripe\\FullTextSearch\\Solr\\Solr</title>
<polygon fill="none" stroke="#000000" points="909.7549,-1142.1995 855.7549,-1142.1995 855.7549,-1106.1995 909.7549,-1106.1995 909.7549,-1142.1995"/>
<text text-anchor="middle" x="882.7549" y="-1121.3995" font-family="Courier,monospace" font-size="11.00" fill="#000000">Solr</text>
</g>
<!-- \\Firesphere\\SolrSearch\\Compat\\FulltextSearchExtension -->
<g id="node4" class="node">
<title>\\Firesphere\\SolrSearch\\Compat\\FulltextSearchExtension</title>
<polygon fill="none" stroke="#000000" points="758.7549,-3308.1995 586.7549,-3308.1995 586.7549,-3272.1995 758.7549,-3272.1995 758.7549,-3308.1995"/>
<text text-anchor="middle" x="672.7549" y="-3287.3995" font-family="Courier,monospace" font-size="11.00" fill="#000000">FulltextSearchExtension</text>
</g>
<!-- \\SilverStripe\\Core\\Extension -->
<g id="node49" class="node">
<title>\\SilverStripe\\Core\\Extension</title>
<ellipse fill="none" stroke="#000000" cx="254.1275" cy="-234.1995" rx="144.0747" ry="18"/>
<text text-anchor="middle" x="254.1275" y="-230.4995" font-family="Times,serif" font-size="14.00" fill="#c0c0c0">\SilverStripe\Core\Extension</text>
</g>
<!-- \\Firesphere\\SolrSearch\\Compat\\FulltextSearchExtension&#45;&gt;\\SilverStripe\\Core\\Extension -->
<g id="edge3" class="edge">
<title>\\Firesphere\\SolrSearch\\Compat\\FulltextSearchExtension&#45;&gt;\\SilverStripe\\Core\\Extension</title>
<path fill="none" stroke="#000000" d="M586.4594,-3273.3653C581.0699,-3269.755 576.2273,-3265.4139 572.2549,-3260.1995 471.2655,-3127.6362 621.0105,-383.9109 508.2549,-261.1995 466.4135,-215.6637 394.8016,-211.7089 338.2401,-217.5552"/>
<polygon fill="none" stroke="#000000" points="337.759,-214.0874 328.2245,-218.7074 338.559,-221.0415 337.759,-214.0874"/>
</g>
<!-- \\Firesphere\\SolrSearch\\Traits\\GetSetSearchResolverTrait -->
<g id="node5" class="node">
<title>\\Firesphere\\SolrSearch\\Traits\\GetSetSearchResolverTrait</title>
<polygon fill="none" stroke="#000000" points="765.2549,-3228.1995 580.2549,-3228.1995 580.2549,-3192.1995 765.2549,-3192.1995 765.2549,-3228.1995"/>
<text text-anchor="middle" x="672.7549" y="-3207.3995" font-family="Courier,monospace" font-size="11.00" fill="#000000">GetSetSearchResolverTrait</text>
</g>
<!-- \\Firesphere\\SolrSearch\\Traits\\GetSetSchemaServiceTrait -->
<g id="node6" class="node">
<title>\\Firesphere\\SolrSearch\\Traits\\GetSetSchemaServiceTrait</title>
<polygon fill="none" stroke="#000000" points="762.2549,-3174.1995 583.2549,-3174.1995 583.2549,-3138.1995 762.2549,-3138.1995 762.2549,-3174.1995"/>
<text text-anchor="middle" x="672.7549" y="-3153.3995" font-family="Courier,monospace" font-size="11.00" fill="#000000">GetSetSchemaServiceTrait</text>
</g>
<!-- \\Firesphere\\SolrSearch\\Traits\\QueryComponentFilterTrait -->
<g id="node7" class="node">
<title>\\Firesphere\\SolrSearch\\Traits\\QueryComponentFilterTrait</title>
<polygon fill="none" stroke="#000000" points="765.2549,-3120.1995 580.2549,-3120.1995 580.2549,-3084.1995 765.2549,-3084.1995 765.2549,-3120.1995"/>
<text text-anchor="middle" x="672.7549" y="-3099.3995" font-family="Courier,monospace" font-size="11.00" fill="#000000">QueryComponentFilterTrait</text>
</g>
<!-- \\Firesphere\\SolrSearch\\Traits\\QueryComponentBoostTrait -->
<g id="node8" class="node">
<title>\\Firesphere\\SolrSearch\\Traits\\QueryComponentBoostTrait</title>
<polygon fill="none" stroke="#000000" points="762.2549,-3066.1995 583.2549,-3066.1995 583.2549,-3030.1995 762.2549,-3030.1995 762.2549,-3066.1995"/>
<text text-anchor="middle" x="672.7549" y="-3045.3995" font-family="Courier,monospace" font-size="11.00" fill="#000000">QueryComponentBoostTrait</text>
</g>
<!-- \\Firesphere\\SolrSearch\\Traits\\QueryComponentFacetTrait -->
<g id="node9" class="node">
<title>\\Firesphere\\SolrSearch\\Traits\\QueryComponentFacetTrait</title>
<polygon fill="none" stroke="#000000" points="762.2549,-3012.1995 583.2549,-3012.1995 583.2549,-2976.1995 762.2549,-2976.1995 762.2549,-3012.1995"/>
<text text-anchor="middle" x="672.7549" y="-2991.3995" font-family="Courier,monospace" font-size="11.00" fill="#000000">QueryComponentFacetTrait</text>
</g>
<!-- \\Firesphere\\SolrSearch\\Traits\\BaseQueryTrait -->
<g id="node10" class="node">
<title>\\Firesphere\\SolrSearch\\Traits\\BaseQueryTrait</title>
<polygon fill="none" stroke="#000000" points="728.2549,-2958.1995 617.2549,-2958.1995 617.2549,-2922.1995 728.2549,-2922.1995 728.2549,-2958.1995"/>
<text text-anchor="middle" x="672.7549" y="-2937.3995" font-family="Courier,monospace" font-size="11.00" fill="#000000">BaseQueryTrait</text>
</g>
<!-- \\Firesphere\\SolrSearch\\Traits\\SearchResultSetTrait -->
<g id="node11" class="node">
<title>\\Firesphere\\SolrSearch\\Traits\\SearchResultSetTrait</title>
<polygon fill="none" stroke="#000000" points="748.7549,-2904.1995 596.7549,-2904.1995 596.7549,-2868.1995 748.7549,-2868.1995 748.7549,-2904.1995"/>
<text text-anchor="middle" x="672.7549" y="-2883.3995" font-family="Courier,monospace" font-size="11.00" fill="#000000">SearchResultSetTrait</text>
</g>
<!-- \\Firesphere\\SolrSearch\\Traits\\SearchResultGetTrait -->
<g id="node12" class="node">
<title>\\Firesphere\\SolrSearch\\Traits\\SearchResultGetTrait</title>
<polygon fill="none" stroke="#000000" points="748.7549,-2850.1995 596.7549,-2850.1995 596.7549,-2814.1995 748.7549,-2814.1995 748.7549,-2850.1995"/>
<text text-anchor="middle" x="672.7549" y="-2829.3995" font-family="Courier,monospace" font-size="11.00" fill="#000000">SearchResultGetTrait</text>
</g>
<!-- \\Firesphere\\SolrSearch\\Traits\\GetterSetterTrait -->
<g id="node13" class="node">
<title>\\Firesphere\\SolrSearch\\Traits\\GetterSetterTrait</title>
<polygon fill="none" stroke="#000000" points="738.2549,-2796.1995 607.2549,-2796.1995 607.2549,-2760.1995 738.2549,-2760.1995 738.2549,-2796.1995"/>
<text text-anchor="middle" x="672.7549" y="-2775.3995" font-family="Courier,monospace" font-size="11.00" fill="#000000">GetterSetterTrait</text>
</g>
<!-- \\Firesphere\\SolrSearch\\Traits\\DataResolveTrait -->
<g id="node14" class="node">
<title>\\Firesphere\\SolrSearch\\Traits\\DataResolveTrait</title>
<polygon fill="none" stroke="#000000" points="735.2549,-2742.1995 610.2549,-2742.1995 610.2549,-2706.1995 735.2549,-2706.1995 735.2549,-2742.1995"/>
<text text-anchor="middle" x="672.7549" y="-2721.3995" font-family="Courier,monospace" font-size="11.00" fill="#000000">DataResolveTrait</text>
</g>
<!-- \\Firesphere\\SolrSearch\\Traits\\DocumentFactoryTrait -->
<g id="node15" class="node">
<title>\\Firesphere\\SolrSearch\\Traits\\DocumentFactoryTrait</title>
<polygon fill="none" stroke="#000000" points="748.7549,-2688.1995 596.7549,-2688.1995 596.7549,-2652.1995 748.7549,-2652.1995 748.7549,-2688.1995"/>
<text text-anchor="middle" x="672.7549" y="-2667.3995" font-family="Courier,monospace" font-size="11.00" fill="#000000">DocumentFactoryTrait</text>
</g>
<!-- \\Firesphere\\SolrSearch\\Traits\\BaseIndexTrait -->
<g id="node16" class="node">
<title>\\Firesphere\\SolrSearch\\Traits\\BaseIndexTrait</title>
<polygon fill="none" stroke="#000000" points="728.2549,-2634.1995 617.2549,-2634.1995 617.2549,-2598.1995 728.2549,-2598.1995 728.2549,-2634.1995"/>
<text text-anchor="middle" x="672.7549" y="-2613.3995" font-family="Courier,monospace" font-size="11.00" fill="#000000">BaseIndexTrait</text>
</g>
<!-- \\Firesphere\\SolrSearch\\Traits\\LoggerTrait -->
<g id="node17" class="node">
<title>\\Firesphere\\SolrSearch\\Traits\\LoggerTrait</title>
<polygon fill="none" stroke="#000000" points="718.2549,-2580.1995 627.2549,-2580.1995 627.2549,-2544.1995 718.2549,-2544.1995 718.2549,-2580.1995"/>
<text text-anchor="middle" x="672.7549" y="-2559.3995" font-family="Courier,monospace" font-size="11.00" fill="#000000">LoggerTrait</text>
</g>
<!-- \\Firesphere\\SolrSearch\\Traits\\CoreServiceTrait -->
<g id="node18" class="node">
<title>\\Firesphere\\SolrSearch\\Traits\\CoreServiceTrait</title>
<polygon fill="none" stroke="#000000" points="735.2549,-2526.1995 610.2549,-2526.1995 610.2549,-2490.1995 735.2549,-2490.1995 735.2549,-2526.1995"/>
<text text-anchor="middle" x="672.7549" y="-2505.3995" font-family="Courier,monospace" font-size="11.00" fill="#000000">CoreServiceTrait</text>
</g>
<!-- \\Firesphere\\SolrSearch\\Traits\\CoreAdminTrait -->
<g id="node19" class="node">
<title>\\Firesphere\\SolrSearch\\Traits\\CoreAdminTrait</title>
<polygon fill="none" stroke="#000000" points="728.2549,-2472.1995 617.2549,-2472.1995 617.2549,-2436.1995 728.2549,-2436.1995 728.2549,-2472.1995"/>
<text text-anchor="middle" x="672.7549" y="-2451.3995" font-family="Courier,monospace" font-size="11.00" fill="#000000">CoreAdminTrait</text>
</g>
<!-- \\Firesphere\\SolrSearch\\Results\\SearchResult -->
<g id="node20" class="node">
<title>\\Firesphere\\SolrSearch\\Results\\SearchResult</title>
<polygon fill="none" stroke="#000000" points="721.7549,-2392.1995 623.7549,-2392.1995 623.7549,-2356.1995 721.7549,-2356.1995 721.7549,-2392.1995"/>
<text text-anchor="middle" x="672.7549" y="-2371.3995" font-family="Courier,monospace" font-size="11.00" fill="#000000">SearchResult</text>
</g>
<!-- \\Firesphere\\SolrSearch\\Interfaces\\ConfigStore -->
<g id="node21" class="node">
<title>\\Firesphere\\SolrSearch\\Interfaces\\ConfigStore</title>
<polygon fill="none" stroke="#000000" points="299.6275,-1535.1995 208.6275,-1535.1995 208.6275,-1499.1995 299.6275,-1499.1995 299.6275,-1535.1995"/>
<text text-anchor="middle" x="254.1275" y="-1514.3995" font-family="Courier,monospace" font-size="11.00" fill="#000000">ConfigStore</text>
</g>
<!-- \\Firesphere\\SolrSearch\\Helpers\\FieldResolver -->
<g id="node22" class="node">
<title>\\Firesphere\\SolrSearch\\Helpers\\FieldResolver</title>
<polygon fill="none" stroke="#000000" points="724.7549,-2312.1995 620.7549,-2312.1995 620.7549,-2276.1995 724.7549,-2276.1995 724.7549,-2312.1995"/>
<text text-anchor="middle" x="672.7549" y="-2291.3995" font-family="Courier,monospace" font-size="11.00" fill="#000000">FieldResolver</text>
</g>
<!-- \\Firesphere\\SolrSearch\\Helpers\\Statics -->
<g id="node23" class="node">
<title>\\Firesphere\\SolrSearch\\Helpers\\Statics</title>
<polygon fill="none" stroke="#000000" points="704.7549,-2258.1995 640.7549,-2258.1995 640.7549,-2222.1995 704.7549,-2222.1995 704.7549,-2258.1995"/>
<text text-anchor="middle" x="672.7549" y="-2237.3995" font-family="Courier,monospace" font-size="11.00" fill="#000000">Statics</text>
</g>
<!-- \\Firesphere\\SolrSearch\\Helpers\\DataResolver -->
<g id="node24" class="node">
<title>\\Firesphere\\SolrSearch\\Helpers\\DataResolver</title>
<polygon fill="none" stroke="#000000" points="721.7549,-2204.1995 623.7549,-2204.1995 623.7549,-2168.1995 721.7549,-2168.1995 721.7549,-2204.1995"/>
<text text-anchor="middle" x="672.7549" y="-2183.3995" font-family="Courier,monospace" font-size="11.00" fill="#000000">DataResolver</text>
</g>
<!-- \\Firesphere\\SolrSearch\\Helpers\\SolrLogger -->
<g id="node25" class="node">
<title>\\Firesphere\\SolrSearch\\Helpers\\SolrLogger</title>
<polygon fill="none" stroke="#000000" points="714.7549,-2150.1995 630.7549,-2150.1995 630.7549,-2114.1995 714.7549,-2114.1995 714.7549,-2150.1995"/>
<text text-anchor="middle" x="672.7549" y="-2129.3995" font-family="Courier,monospace" font-size="11.00" fill="#000000">SolrLogger</text>
</g>
<!-- \\Firesphere\\SolrSearch\\Helpers\\Synonyms -->
<g id="node26" class="node">
<title>\\Firesphere\\SolrSearch\\Helpers\\Synonyms</title>
<polygon fill="none" stroke="#000000" points="708.2549,-2096.1995 637.2549,-2096.1995 637.2549,-2060.1995 708.2549,-2060.1995 708.2549,-2096.1995"/>
<text text-anchor="middle" x="672.7549" y="-2075.3995" font-family="Courier,monospace" font-size="11.00" fill="#000000">Synonyms</text>
</g>
<!-- \\Firesphere\\SolrSearch\\Admins\\SearchAdmin -->
<g id="node27" class="node">
<title>\\Firesphere\\SolrSearch\\Admins\\SearchAdmin</title>
<polygon fill="none" stroke="#000000" points="718.2549,-2016.1995 627.2549,-2016.1995 627.2549,-1980.1995 718.2549,-1980.1995 718.2549,-2016.1995"/>
<text text-anchor="middle" x="672.7549" y="-1995.3995" font-family="Courier,monospace" font-size="11.00" fill="#000000">SearchAdmin</text>
</g>
<!-- \\SilverStripe\\Admin\\ModelAdmin -->
<g id="node50" class="node">
<title>\\SilverStripe\\Admin\\ModelAdmin</title>
<ellipse fill="none" stroke="#000000" cx="254.1275" cy="-450.1995" rx="165.1707" ry="18"/>
<text text-anchor="middle" x="254.1275" y="-446.4995" font-family="Times,serif" font-size="14.00" fill="#c0c0c0">\SilverStripe\Admin\ModelAdmin</text>
</g>
<!-- \\Firesphere\\SolrSearch\\Admins\\SearchAdmin&#45;&gt;\\SilverStripe\\Admin\\ModelAdmin -->
<g id="edge4" class="edge">
<title>\\Firesphere\\SolrSearch\\Admins\\SearchAdmin&#45;&gt;\\SilverStripe\\Admin\\ModelAdmin</title>
<path fill="none" stroke="#000000" d="M627.2473,-1995.4178C607.5098,-1991.799 585.8485,-1984.1274 572.2549,-1968.1995 502.2542,-1886.1788 528.228,-1593.1645 508.2549,-1487.1995 431.934,-1082.2868 296.5469,-598.6806 262.2158,-478.3428"/>
<polygon fill="none" stroke="#000000" points="265.502,-477.1045 259.3879,-468.4519 258.7717,-479.0288 265.502,-477.1045"/>
</g>
<!-- \\Firesphere\\SolrSearch\\States\\SiteState -->
<g id="node28" class="node">
<title>\\Firesphere\\SolrSearch\\States\\SiteState</title>
<polygon fill="none" stroke="#000000" points="714.7549,-1936.1995 630.7549,-1936.1995 630.7549,-1900.1995 714.7549,-1900.1995 714.7549,-1936.1995"/>
<text text-anchor="start" x="638.7549" y="-1921.3995" font-family="Courier,monospace" font-size="11.00" fill="#000000">«abstract»</text>
<text text-anchor="start" x="642.2549" y="-1909.3995" font-family="Courier,monospace" font-size="11.00" fill="#000000">SiteState</text>
</g>
<!-- \\Firesphere\\SolrSearch\\Models\\SolrLog -->
<g id="node29" class="node">
<title>\\Firesphere\\SolrSearch\\Models\\SolrLog</title>
<polygon fill="none" stroke="#000000" points="704.7549,-1802.1995 640.7549,-1802.1995 640.7549,-1766.1995 704.7549,-1766.1995 704.7549,-1802.1995"/>
<text text-anchor="middle" x="672.7549" y="-1781.3995" font-family="Courier,monospace" font-size="11.00" fill="#000000">SolrLog</text>
</g>
<!-- \\SilverStripe\\ORM\\DataObject -->
<g id="node51" class="node">
<title>\\SilverStripe\\ORM\\DataObject</title>
<ellipse fill="none" stroke="#000000" cx="254.1275" cy="-396.1995" rx="152.9733" ry="18"/>
<text text-anchor="middle" x="254.1275" y="-392.4995" font-family="Times,serif" font-size="14.00" fill="#c0c0c0">\SilverStripe\ORM\DataObject</text>
</g>
<!-- \\Firesphere\\SolrSearch\\Models\\SolrLog&#45;&gt;\\SilverStripe\\ORM\\DataObject -->
<g id="edge5" class="edge">
<title>\\Firesphere\\SolrSearch\\Models\\SolrLog&#45;&gt;\\SilverStripe\\ORM\\DataObject</title>
<path fill="none" stroke="#000000" d="M640.6816,-1783.8068C617.7867,-1781.6581 588.3094,-1774.6996 572.2549,-1754.1995 480.9657,-1637.632 609.8799,-530.8752 508.2549,-423.1995 466.6854,-379.155 397.1931,-374.4045 341.3751,-379.5662"/>
<polygon fill="none" stroke="#000000" points="340.7035,-376.1173 331.1216,-380.6381 341.4313,-383.0793 340.7035,-376.1173"/>
</g>
<!-- \\SilverStripe\\Security\\PermissionProvider -->
<g id="node52" class="node">
<title>\\SilverStripe\\Security\\PermissionProvider</title>
<ellipse fill="none" stroke="#000000" cx="254.1275" cy="-342.1995" rx="206.0634" ry="18"/>
<text text-anchor="middle" x="254.1275" y="-338.4995" font-family="Times,serif" font-size="14.00" fill="#c0c0c0">\SilverStripe\Security\PermissionProvider</text>
</g>
<!-- \\Firesphere\\SolrSearch\\Models\\SolrLog&#45;&gt;\\SilverStripe\\Security\\PermissionProvider -->
<g id="edge6" class="edge">
<title>\\Firesphere\\SolrSearch\\Models\\SolrLog&#45;&gt;\\SilverStripe\\Security\\PermissionProvider</title>
<path fill="none" stroke="#000000" stroke-dasharray="1,5" d="M640.6704,-1783.8156C617.7698,-1781.6713 588.2902,-1774.7146 572.2549,-1754.1995 477.3839,-1632.8247 613.8888,-481.3327 508.2549,-369.1995 468.5882,-327.0923 403.406,-320.8729 348.9888,-324.9076"/>
<polygon fill="none" stroke="#000000" points="348.6233,-321.4261 338.9618,-325.774 349.226,-328.4001 348.6233,-321.4261"/>
</g>
<!-- \\Firesphere\\SolrSearch\\Models\\DirtyClass -->
<g id="node30" class="node">
<title>\\Firesphere\\SolrSearch\\Models\\DirtyClass</title>
<polygon fill="none" stroke="#000000" points="714.7549,-1856.1995 630.7549,-1856.1995 630.7549,-1820.1995 714.7549,-1820.1995 714.7549,-1856.1995"/>
<text text-anchor="middle" x="672.7549" y="-1835.3995" font-family="Courier,monospace" font-size="11.00" fill="#000000">DirtyClass</text>
</g>
<!-- \\Firesphere\\SolrSearch\\Models\\DirtyClass&#45;&gt;\\SilverStripe\\ORM\\DataObject -->
<g id="edge7" class="edge">
<title>\\Firesphere\\SolrSearch\\Models\\DirtyClass&#45;&gt;\\SilverStripe\\ORM\\DataObject</title>
<path fill="none" stroke="#000000" d="M630.5822,-1837.9013C609.7311,-1835.3708 586.123,-1828.4473 572.2549,-1811.1995 475.5137,-1690.8825 614.1115,-535.5803 508.2549,-423.1995 466.7288,-379.1141 397.2336,-374.3663 341.4035,-379.5395"/>
<polygon fill="none" stroke="#000000" points="340.7286,-376.0909 331.1476,-380.6136 341.4578,-383.0528 340.7286,-376.0909"/>
</g>
<!-- \\Firesphere\\SolrSearch\\Services\\SchemaService -->
<g id="node31" class="node">
<title>\\Firesphere\\SolrSearch\\Services\\SchemaService</title>
<polygon fill="none" stroke="#000000" points="724.7549,-1722.1995 620.7549,-1722.1995 620.7549,-1686.1995 724.7549,-1686.1995 724.7549,-1722.1995"/>
<text text-anchor="middle" x="672.7549" y="-1701.3995" font-family="Courier,monospace" font-size="11.00" fill="#000000">SchemaService</text>
</g>
<!-- \\SilverStripe\\View\\ViewableData -->
<g id="node53" class="node">
<title>\\SilverStripe\\View\\ViewableData</title>
<ellipse fill="none" stroke="#000000" cx="254.1275" cy="-288.1995" rx="163.2712" ry="18"/>
<text text-anchor="middle" x="254.1275" y="-284.4995" font-family="Times,serif" font-size="14.00" fill="#c0c0c0">\SilverStripe\View\ViewableData</text>
</g>
<!-- \\Firesphere\\SolrSearch\\Services\\SchemaService&#45;&gt;\\SilverStripe\\View\\ViewableData -->
<g id="edge8" class="edge">
<title>\\Firesphere\\SolrSearch\\Services\\SchemaService&#45;&gt;\\SilverStripe\\View\\ViewableData</title>
<path fill="none" stroke="#000000" d="M620.6164,-1700.7474C602.5175,-1696.7875 583.8674,-1689.0427 572.2549,-1674.1995 479.1085,-1555.1394 611.9586,-425.1864 508.2549,-315.1995 467.1369,-271.5903 398.6483,-266.4878 343.1262,-271.3956"/>
<polygon fill="none" stroke="#000000" points="342.5192,-267.9389 332.9194,-272.4215 343.2193,-274.9038 342.5192,-267.9389"/>
</g>
<!-- \\Firesphere\\SolrSearch\\Extensions\\GridFieldExtension -->
<g id="node33" class="node">
<title>\\Firesphere\\SolrSearch\\Extensions\\GridFieldExtension</title>
<polygon fill="none" stroke="#000000" points="741.7549,-1428.1995 603.7549,-1428.1995 603.7549,-1392.1995 741.7549,-1392.1995 741.7549,-1428.1995"/>
<text text-anchor="middle" x="672.7549" y="-1407.3995" font-family="Courier,monospace" font-size="11.00" fill="#000000">GridFieldExtension</text>
</g>
<!-- \\Firesphere\\SolrSearch\\Extensions\\GridFieldExtension&#45;&gt;\\SilverStripe\\Core\\Extension -->
<g id="edge9" class="edge">
<title>\\Firesphere\\SolrSearch\\Extensions\\GridFieldExtension&#45;&gt;\\SilverStripe\\Core\\Extension</title>
<path fill="none" stroke="#000000" d="M603.5795,-1403.7816C591.5216,-1399.5692 580.2901,-1393.0821 572.2549,-1383.1995 414.7054,-1189.4277 680.4795,-442.0532 508.2549,-261.1995 466.273,-217.1142 396.2904,-212.53 340.3826,-217.7679"/>
<polygon fill="none" stroke="#000000" points="339.6938,-214.3212 330.1171,-218.853 340.4297,-221.2824 339.6938,-214.3212"/>
</g>
<!-- \\Firesphere\\SolrSearch\\Extensions\\DataObjectExtension -->
<g id="node34" class="node">
<title>\\Firesphere\\SolrSearch\\Extensions\\DataObjectExtension</title>
<polygon fill="none" stroke="#000000" points="745.2549,-1374.1995 600.2549,-1374.1995 600.2549,-1338.1995 745.2549,-1338.1995 745.2549,-1374.1995"/>
<text text-anchor="middle" x="672.7549" y="-1353.3995" font-family="Courier,monospace" font-size="11.00" fill="#000000">DataObjectExtension</text>
</g>
<!-- \\SilverStripe\\ORM\\DataExtension -->
<g id="node54" class="node">
<title>\\SilverStripe\\ORM\\DataExtension</title>
<ellipse fill="none" stroke="#000000" cx="254.1275" cy="-72.1995" rx="167.8704" ry="18"/>
<text text-anchor="middle" x="254.1275" y="-68.4995" font-family="Times,serif" font-size="14.00" fill="#c0c0c0">\SilverStripe\ORM\DataExtension</text>
</g>
<!-- \\Firesphere\\SolrSearch\\Extensions\\DataObjectExtension&#45;&gt;\\SilverStripe\\ORM\\DataExtension -->
<g id="edge10" class="edge">
<title>\\Firesphere\\SolrSearch\\Extensions\\DataObjectExtension&#45;&gt;\\SilverStripe\\ORM\\DataExtension</title>
<path fill="none" stroke="#000000" d="M600.1146,-1346.3449C589.342,-1341.8149 579.4588,-1335.3598 572.2549,-1326.1995 487.8633,-1218.8897 602.16,-198.2913 508.2549,-99.1995 467.3142,-55.9975 399.4974,-50.6591 344.2145,-55.3647"/>
<polygon fill="none" stroke="#000000" points="343.6614,-51.9019 334.0471,-56.3534 344.3389,-58.869 343.6614,-51.9019"/>
</g>
<!-- \\Firesphere\\SolrSearch\\Tasks\\ClearDirtyClassesTask -->
<g id="node35" class="node">
<title>\\Firesphere\\SolrSearch\\Tasks\\ClearDirtyClassesTask</title>
<polygon fill="none" stroke="#000000" points="751.7549,-1240.1995 593.7549,-1240.1995 593.7549,-1204.1995 751.7549,-1204.1995 751.7549,-1240.1995"/>
<text text-anchor="middle" x="672.7549" y="-1219.3995" font-family="Courier,monospace" font-size="11.00" fill="#000000">ClearDirtyClassesTask</text>
</g>
<!-- \\SilverStripe\\Dev\\BuildTask -->
<g id="node55" class="node">
<title>\\SilverStripe\\Dev\\BuildTask</title>
<ellipse fill="none" stroke="#000000" cx="254.1275" cy="-180.1995" rx="139.9756" ry="18"/>
<text text-anchor="middle" x="254.1275" y="-176.4995" font-family="Times,serif" font-size="14.00" fill="#c0c0c0">\SilverStripe\Dev\BuildTask</text>
</g>
<!-- \\Firesphere\\SolrSearch\\Tasks\\ClearDirtyClassesTask&#45;&gt;\\SilverStripe\\Dev\\BuildTask -->
<g id="edge11" class="edge">
<title>\\Firesphere\\SolrSearch\\Tasks\\ClearDirtyClassesTask&#45;&gt;\\SilverStripe\\Dev\\BuildTask</title>
<path fill="none" stroke="#000000" d="M593.3812,-1211.4596C585.3035,-1207.4741 577.9806,-1202.1864 572.2549,-1195.1995 432.7994,-1025.0258 660.5949,-365.9428 508.2549,-207.1995 465.9589,-163.1257 395.6526,-158.6494 339.6987,-163.9264"/>
<polygon fill="none" stroke="#000000" points="339.002,-160.4807 329.4279,-165.0179 339.7418,-167.4415 339.002,-160.4807"/>
</g>
<!-- \\Firesphere\\SolrSearch\\Tasks\\SolrConfigureTask -->
<g id="node36" class="node">
<title>\\Firesphere\\SolrSearch\\Tasks\\SolrConfigureTask</title>
<polygon fill="none" stroke="#000000" points="738.2549,-1186.1995 607.2549,-1186.1995 607.2549,-1150.1995 738.2549,-1150.1995 738.2549,-1186.1995"/>
<text text-anchor="middle" x="672.7549" y="-1165.3995" font-family="Courier,monospace" font-size="11.00" fill="#000000">SolrConfigureTask</text>
</g>
<!-- \\Firesphere\\SolrSearch\\Tasks\\SolrConfigureTask&#45;&gt;\\SilverStripe\\Dev\\BuildTask -->
<g id="edge12" class="edge">
<title>\\Firesphere\\SolrSearch\\Tasks\\SolrConfigureTask&#45;&gt;\\SilverStripe\\Dev\\BuildTask</title>
<path fill="none" stroke="#000000" d="M607.1667,-1160.8563C593.758,-1156.3167 581.0697,-1149.2196 572.2549,-1138.1995 442.7185,-976.2563 652.139,-356.5402 508.2549,-207.1995 465.9444,-163.2844 395.8125,-158.7421 339.9299,-163.9531"/>
<polygon fill="none" stroke="#000000" points="339.2501,-160.5053 329.6712,-165.0324 339.9825,-167.4668 339.2501,-160.5053"/>
</g>
<!-- \\Firesphere\\SolrSearch\\Tasks\\SolrIndexTask -->
<g id="node37" class="node">
<title>\\Firesphere\\SolrSearch\\Tasks\\SolrIndexTask</title>
<polygon fill="none" stroke="#000000" points="724.7549,-1294.1995 620.7549,-1294.1995 620.7549,-1258.1995 724.7549,-1258.1995 724.7549,-1294.1995"/>
<text text-anchor="middle" x="672.7549" y="-1273.3995" font-family="Courier,monospace" font-size="11.00" fill="#000000">SolrIndexTask</text>
</g>
<!-- \\Firesphere\\SolrSearch\\Tasks\\SolrIndexTask&#45;&gt;\\SilverStripe\\Dev\\BuildTask -->
<g id="edge13" class="edge">
<title>\\Firesphere\\SolrSearch\\Tasks\\SolrIndexTask&#45;&gt;\\SilverStripe\\Dev\\BuildTask</title>
<path fill="none" stroke="#000000" d="M620.5838,-1274.2391C602.5937,-1270.798 584.0258,-1263.6123 572.2549,-1249.1995 425.5086,-1069.5171 668.6072,-374.8521 508.2549,-207.1995 465.9604,-162.9795 395.4803,-158.5689 339.459,-163.9084"/>
<polygon fill="none" stroke="#000000" points="338.7465,-160.4647 329.1769,-165.0115 339.4932,-167.4247 338.7465,-160.4647"/>
</g>
<!-- \\Firesphere\\SolrSearch\\Forms\\SearchForm -->
<g id="node38" class="node">
<title>\\Firesphere\\SolrSearch\\Forms\\SearchForm</title>
<polygon fill="none" stroke="#000000" points="714.7549,-1106.1995 630.7549,-1106.1995 630.7549,-1070.1995 714.7549,-1070.1995 714.7549,-1106.1995"/>
<text text-anchor="middle" x="672.7549" y="-1085.3995" font-family="Courier,monospace" font-size="11.00" fill="#000000">SearchForm</text>
</g>
<!-- \\SilverStripe\\Forms\\Form -->
<g id="node56" class="node">
<title>\\SilverStripe\\Forms\\Form</title>
<ellipse fill="none" stroke="#000000" cx="254.1275" cy="-126.1995" rx="129.1772" ry="18"/>
<text text-anchor="middle" x="254.1275" y="-122.4995" font-family="Times,serif" font-size="14.00" fill="#c0c0c0">\SilverStripe\Forms\Form</text>
</g>
<!-- \\Firesphere\\SolrSearch\\Forms\\SearchForm&#45;&gt;\\SilverStripe\\Forms\\Form -->
<g id="edge14" class="edge">
<title>\\Firesphere\\SolrSearch\\Forms\\SearchForm&#45;&gt;\\SilverStripe\\Forms\\Form</title>
<path fill="none" stroke="#000000" d="M630.6492,-1086.433C609.8167,-1083.2218 586.205,-1075.6046 572.2549,-1058.1995 446.1642,-900.8811 648.2825,-298.252 508.2549,-153.1995 465.232,-108.6328 393.5493,-104.6468 337.2645,-110.2336"/>
<polygon fill="none" stroke="#000000" points="336.8563,-106.7573 327.3023,-111.3367 337.6268,-113.7148 336.8563,-106.7573"/>
</g>
<!-- \\Firesphere\\SolrSearch\\Stores\\FileConfigStore -->
<g id="node39" class="node">
<title>\\Firesphere\\SolrSearch\\Stores\\FileConfigStore</title>
<polygon fill="none" stroke="#000000" points="731.7549,-1562.1995 613.7549,-1562.1995 613.7549,-1526.1995 731.7549,-1526.1995 731.7549,-1562.1995"/>
<text text-anchor="middle" x="672.7549" y="-1541.3995" font-family="Courier,monospace" font-size="11.00" fill="#000000">FileConfigStore</text>
</g>
<!-- \\Firesphere\\SolrSearch\\Stores\\FileConfigStore&#45;&gt;\\Firesphere\\SolrSearch\\Interfaces\\ConfigStore -->
<g id="edge15" class="edge">
<title>\\Firesphere\\SolrSearch\\Stores\\FileConfigStore&#45;&gt;\\Firesphere\\SolrSearch\\Interfaces\\ConfigStore</title>
<path fill="none" stroke="#000000" stroke-dasharray="1,5" d="M613.6637,-1540.3884C532.8854,-1535.1784 389.0185,-1525.8995 309.9722,-1520.8013"/>
<polygon fill="none" stroke="#000000" points="309.9333,-1517.2916 299.7287,-1520.1407 309.4827,-1524.2771 309.9333,-1517.2916"/>
</g>
<!-- \\Firesphere\\SolrSearch\\Stores\\PostConfigStore -->
<g id="node40" class="node">
<title>\\Firesphere\\SolrSearch\\Stores\\PostConfigStore</title>
<polygon fill="none" stroke="#000000" points="731.7549,-1508.1995 613.7549,-1508.1995 613.7549,-1472.1995 731.7549,-1472.1995 731.7549,-1508.1995"/>
<text text-anchor="middle" x="672.7549" y="-1487.3995" font-family="Courier,monospace" font-size="11.00" fill="#000000">PostConfigStore</text>
</g>
<!-- \\Firesphere\\SolrSearch\\Stores\\PostConfigStore&#45;&gt;\\Firesphere\\SolrSearch\\Interfaces\\ConfigStore -->
<g id="edge16" class="edge">
<title>\\Firesphere\\SolrSearch\\Stores\\PostConfigStore&#45;&gt;\\Firesphere\\SolrSearch\\Interfaces\\ConfigStore</title>
<path fill="none" stroke="#000000" stroke-dasharray="1,5" d="M613.6637,-1494.0107C532.8854,-1499.2206 389.0185,-1508.4995 309.9722,-1513.5977"/>
<polygon fill="none" stroke="#000000" points="309.4827,-1510.1219 299.7287,-1514.2584 309.9333,-1517.1074 309.4827,-1510.1219"/>
</g>
<!-- \\Firesphere\\SolrSearch\\Jobs\\SolrConfigureJob -->
<g id="node41" class="node">
<title>\\Firesphere\\SolrSearch\\Jobs\\SolrConfigureJob</title>
<polygon fill="none" stroke="#000000" points="735.2549,-972.1995 610.2549,-972.1995 610.2549,-936.1995 735.2549,-936.1995 735.2549,-972.1995"/>
<text text-anchor="middle" x="672.7549" y="-951.3995" font-family="Courier,monospace" font-size="11.00" fill="#000000">SolrConfigureJob</text>
</g>
<!-- \\Symbiote\\QueuedJobs\\Services\\AbstractQueuedJob -->
<g id="node57" class="node">
<title>\\Symbiote\\QueuedJobs\\Services\\AbstractQueuedJob</title>
<ellipse fill="none" stroke="#000000" cx="254.1275" cy="-18.1995" rx="254.255" ry="18"/>
<text text-anchor="middle" x="254.1275" y="-14.4995" font-family="Times,serif" font-size="14.00" fill="#c0c0c0">\Symbiote\QueuedJobs\Services\AbstractQueuedJob</text>
</g>
<!-- \\Firesphere\\SolrSearch\\Jobs\\SolrConfigureJob&#45;&gt;\\Symbiote\\QueuedJobs\\Services\\AbstractQueuedJob -->
<g id="edge17" class="edge">
<title>\\Firesphere\\SolrSearch\\Jobs\\SolrConfigureJob&#45;&gt;\\Symbiote\\QueuedJobs\\Services\\AbstractQueuedJob</title>
<path fill="none" stroke="#000000" d="M610.1808,-949.7132C595.726,-945.6636 581.8044,-938.7609 572.2549,-927.1995 447.1071,-775.6862 644.8714,-186.4589 508.2549,-45.1995 470.0781,-5.7254 409.4124,1.8898 356.9282,-.7747"/>
<polygon fill="none" stroke="#000000" points="356.6487,2.7147 346.8907,-1.4122 357.0924,-4.2713 356.6487,2.7147"/>
</g>
<!-- \\Firesphere\\SolrSearch\\Jobs\\SolrIndexJob -->
<g id="node42" class="node">
<title>\\Firesphere\\SolrSearch\\Jobs\\SolrIndexJob</title>
<polygon fill="none" stroke="#000000" points="721.7549,-918.1995 623.7549,-918.1995 623.7549,-882.1995 721.7549,-882.1995 721.7549,-918.1995"/>
<text text-anchor="middle" x="672.7549" y="-897.3995" font-family="Courier,monospace" font-size="11.00" fill="#000000">SolrIndexJob</text>
</g>
<!-- \\Firesphere\\SolrSearch\\Jobs\\SolrIndexJob&#45;&gt;\\Symbiote\\QueuedJobs\\Services\\AbstractQueuedJob -->
<g id="edge18" class="edge">
<title>\\Firesphere\\SolrSearch\\Jobs\\SolrIndexJob&#45;&gt;\\Symbiote\\QueuedJobs\\Services\\AbstractQueuedJob</title>
<path fill="none" stroke="#000000" d="M623.7293,-897.1616C604.7904,-893.3753 584.7204,-885.644 572.2549,-870.1995 456.7636,-727.1082 636.4194,-177.0603 508.2549,-45.1995 470.1251,-5.9701 409.771,1.7331 357.4472,-.8213"/>
<polygon fill="none" stroke="#000000" points="357.2047,2.6705 347.4386,-1.4374 357.6348,-4.3163 357.2047,2.6705"/>
</g>
<!-- \\Firesphere\\SolrSearch\\Jobs\\ClearDirtyClassesJob -->
<g id="node43" class="node">
<title>\\Firesphere\\SolrSearch\\Jobs\\ClearDirtyClassesJob</title>
<polygon fill="none" stroke="#000000" points="748.7549,-1026.1995 596.7549,-1026.1995 596.7549,-990.1995 748.7549,-990.1995 748.7549,-1026.1995"/>
<text text-anchor="middle" x="672.7549" y="-1005.3995" font-family="Courier,monospace" font-size="11.00" fill="#000000">ClearDirtyClassesJob</text>
</g>
<!-- \\Firesphere\\SolrSearch\\Jobs\\ClearDirtyClassesJob&#45;&gt;\\Symbiote\\QueuedJobs\\Services\\AbstractQueuedJob -->
<g id="edge19" class="edge">
<title>\\Firesphere\\SolrSearch\\Jobs\\ClearDirtyClassesJob&#45;&gt;\\Symbiote\\QueuedJobs\\Services\\AbstractQueuedJob</title>
<path fill="none" stroke="#000000" d="M596.346,-998.8178C587.1058,-994.7007 578.6817,-989.0134 572.2549,-981.1995 439.819,-820.1809 652.8807,-195.365 508.2549,-45.1995 470.0159,-5.4958 409.0366,2.0292 356.3966,-.7421"/>
<polygon fill="none" stroke="#000000" points="356.0813,2.7448 346.3311,-1.4004 356.5382,-4.2403 356.0813,2.7448"/>
</g>
<!-- \\Firesphere\\SolrSearch\\Factories\\DocumentFactory -->
<g id="node45" class="node">
<title>\\Firesphere\\SolrSearch\\Factories\\DocumentFactory</title>
<polygon fill="none" stroke="#000000" points="731.7549,-758.1995 613.7549,-758.1995 613.7549,-722.1995 731.7549,-722.1995 731.7549,-758.1995"/>
<text text-anchor="middle" x="672.7549" y="-737.3995" font-family="Courier,monospace" font-size="11.00" fill="#000000">DocumentFactory</text>
</g>
<!-- \\Firesphere\\SolrSearch\\Factories\\QueryComponentFactory -->
<g id="node46" class="node">
<title>\\Firesphere\\SolrSearch\\Factories\\QueryComponentFactory</title>
<polygon fill="none" stroke="#000000" points="751.7549,-704.1995 593.7549,-704.1995 593.7549,-668.1995 751.7549,-668.1995 751.7549,-704.1995"/>
<text text-anchor="middle" x="672.7549" y="-683.3995" font-family="Courier,monospace" font-size="11.00" fill="#000000">QueryComponentFactory</text>
</g>
<!-- \\Firesphere\\SolrSearch\\Fluent\\FluentExtension -->
<g id="node47" class="node">
<title>\\Firesphere\\SolrSearch\\Fluent\\FluentExtension</title>
<polygon fill="none" stroke="#000000" points="731.7549,-624.1995 613.7549,-624.1995 613.7549,-588.1995 731.7549,-588.1995 731.7549,-624.1995"/>
<text text-anchor="middle" x="672.7549" y="-603.3995" font-family="Courier,monospace" font-size="11.00" fill="#000000">FluentExtension</text>
</g>
<!-- \\Firesphere\\SolrSearch\\Fluent\\FluentExtension&#45;&gt;\\SilverStripe\\Core\\Extension -->
<g id="edge20" class="edge">
<title>\\Firesphere\\SolrSearch\\Fluent\\FluentExtension&#45;&gt;\\SilverStripe\\Core\\Extension</title>
<path fill="none" stroke="#000000" d="M613.6852,-599.6772C598.3203,-595.267 583.0663,-588.0262 572.2549,-576.1995 475.8649,-470.7573 613.9357,-357.3279 508.2549,-261.1995 466.244,-222.9859 402.7118,-216.236 349.6825,-219.0395"/>
<polygon fill="none" stroke="#000000" points="349.3216,-215.5554 339.5689,-219.6947 349.7743,-222.5408 349.3216,-215.5554"/>
</g>
<!-- \\Firesphere\\SolrSearch\\Subsites\\SubsitesExtension -->
<g id="node48" class="node">
<title>\\Firesphere\\SolrSearch\\Subsites\\SubsitesExtension</title>
<polygon fill="none" stroke="#000000" points="738.2549,-544.1995 607.2549,-544.1995 607.2549,-508.1995 738.2549,-508.1995 738.2549,-544.1995"/>
<text text-anchor="middle" x="672.7549" y="-523.3995" font-family="Courier,monospace" font-size="11.00" fill="#000000">SubsitesExtension</text>
</g>
<!-- \\Firesphere\\SolrSearch\\Subsites\\SubsitesExtension&#45;&gt;\\SilverStripe\\ORM\\DataExtension -->
<g id="edge21" class="edge">
<title>\\Firesphere\\SolrSearch\\Subsites\\SubsitesExtension&#45;&gt;\\SilverStripe\\ORM\\DataExtension</title>
<path fill="none" stroke="#000000" d="M672.0649,-508.1985C668.4379,-441.2209 645.9712,-204.8648 508.2549,-99.1995 473.3941,-72.452 427.4732,-62.3586 384.2668,-60.0369"/>
<polygon fill="none" stroke="#000000" points="384.3591,-56.5379 374.226,-59.6316 384.0767,-63.5322 384.3591,-56.5379"/>
</g>
</g>
</svg>
