<?xml version="1.0" encoding="UTF-8" standalone="no"?>
<!DOCTYPE svg PUBLIC "-//W3C//DTD SVG 1.1//EN"
 "http://www.w3.org/Graphics/SVG/1.1/DTD/svg11.dtd">
<!-- Generated by graphviz version 2.38.0 (20140413.2041)
 -->
<!-- Title: G Pages: 1 -->
<svg width="1005pt" height="2658pt"
 viewBox="0.00 0.00 1004.64 2658.00" xmlns="http://www.w3.org/2000/svg" xmlns:xlink="http://www.w3.org/1999/xlink">
<g id="graph0" class="graph" transform="scale(1 1) rotate(0) translate(4 2654)">
<title>G</title>
<polygon fill="white" stroke="none" points="-4,4 -4,-2654 1000.64,-2654 1000.64,4 -4,4"/>
<g id="clust1" class="cluster"><title>cluster_Global</title>
<path fill="none" stroke="gray" d="M130.783,-476C130.783,-476 976.637,-476 976.637,-476 982.637,-476 988.637,-482 988.637,-488 988.637,-488 988.637,-2630 988.637,-2630 988.637,-2636 982.637,-2642 976.637,-2642 976.637,-2642 130.783,-2642 130.783,-2642 124.783,-2642 118.783,-2636 118.783,-2630 118.783,-2630 118.783,-488 118.783,-488 118.783,-482 124.783,-476 130.783,-476"/>
<text text-anchor="middle" x="553.71" y="-2629.2" font-family="Times,serif" font-size="11.00" fill="gray">Global</text>
</g>
<g id="clust2" class="cluster"><title>cluster_\Firesphere</title>
<path fill="none" stroke="gray" d="M138.783,-484C138.783,-484 729.601,-484 729.601,-484 735.601,-484 741.601,-490 741.601,-496 741.601,-496 741.601,-2602 741.601,-2602 741.601,-2608 735.601,-2614 729.601,-2614 729.601,-2614 138.783,-2614 138.783,-2614 132.783,-2614 126.783,-2608 126.783,-2602 126.783,-2602 126.783,-496 126.783,-496 126.783,-490 132.783,-484 138.783,-484"/>
<text text-anchor="middle" x="434.192" y="-2601.2" font-family="Times,serif" font-size="11.00" fill="gray">Firesphere</text>
</g>
<g id="clust3" class="cluster"><title>cluster_\Firesphere\SolrSearch</title>
<path fill="none" stroke="gray" d="M146.783,-492C146.783,-492 721.601,-492 721.601,-492 727.601,-492 733.601,-498 733.601,-504 733.601,-504 733.601,-2574 733.601,-2574 733.601,-2580 727.601,-2586 721.601,-2586 721.601,-2586 146.783,-2586 146.783,-2586 140.783,-2586 134.783,-2580 134.783,-2574 134.783,-2574 134.783,-504 134.783,-504 134.783,-498 140.783,-492 146.783,-492"/>
<text text-anchor="middle" x="434.192" y="-2573.2" font-family="Times,serif" font-size="11.00" fill="gray">SolrSearch</text>
</g>
<g id="clust4" class="cluster"><title>cluster_\Firesphere\SolrSearch\Compat</title>
<path fill="none" stroke="gray" d="M543.101,-2378C543.101,-2378 707.101,-2378 707.101,-2378 713.101,-2378 719.101,-2384 719.101,-2390 719.101,-2390 719.101,-2546 719.101,-2546 719.101,-2552 713.101,-2558 707.101,-2558 707.101,-2558 543.101,-2558 543.101,-2558 537.101,-2558 531.101,-2552 531.101,-2546 531.101,-2546 531.101,-2390 531.101,-2390 531.101,-2384 537.101,-2378 543.101,-2378"/>
<text text-anchor="middle" x="625.101" y="-2545.2" font-family="Times,serif" font-size="11.00" fill="gray">Compat</text>
</g>
<g id="clust5" class="cluster"><title>cluster_\Firesphere\SolrSearch\Traits</title>
<path fill="none" stroke="gray" d="M536.601,-1704C536.601,-1704 713.601,-1704 713.601,-1704 719.601,-1704 725.601,-1710 725.601,-1716 725.601,-1716 725.601,-2358 725.601,-2358 725.601,-2364 719.601,-2370 713.601,-2370 713.601,-2370 536.601,-2370 536.601,-2370 530.601,-2370 524.601,-2364 524.601,-2358 524.601,-2358 524.601,-1716 524.601,-1716 524.601,-1710 530.601,-1704 536.601,-1704"/>
<text text-anchor="middle" x="625.101" y="-2357.2" font-family="Times,serif" font-size="11.00" fill="gray">Traits</text>
</g>
<g id="clust6" class="cluster"><title>cluster_\Firesphere\SolrSearch\Models</title>
<path fill="none" stroke="gray" d="M587.101,-1570C587.101,-1570 663.101,-1570 663.101,-1570 669.101,-1570 675.101,-1576 675.101,-1582 675.101,-1582 675.101,-1684 675.101,-1684 675.101,-1690 669.101,-1696 663.101,-1696 663.101,-1696 587.101,-1696 587.101,-1696 581.101,-1696 575.101,-1690 575.101,-1684 575.101,-1684 575.101,-1582 575.101,-1582 575.101,-1576 581.101,-1570 587.101,-1570"/>
<text text-anchor="middle" x="625.101" y="-1683.2" font-family="Times,serif" font-size="11.00" fill="gray">Models</text>
</g>
<g id="clust7" class="cluster"><title>cluster_\Firesphere\SolrSearch\Helpers</title>
<path fill="none" stroke="gray" d="M577.101,-1274C577.101,-1274 673.101,-1274 673.101,-1274 679.101,-1274 685.101,-1280 685.101,-1286 685.101,-1286 685.101,-1550 685.101,-1550 685.101,-1556 679.101,-1562 673.101,-1562 673.101,-1562 577.101,-1562 577.101,-1562 571.101,-1562 565.101,-1556 565.101,-1550 565.101,-1550 565.101,-1286 565.101,-1286 565.101,-1280 571.101,-1274 577.101,-1274"/>
<text text-anchor="middle" x="625.101" y="-1549.2" font-family="Times,serif" font-size="11.00" fill="gray">Helpers</text>
</g>
<g id="clust8" class="cluster"><title>cluster_\Firesphere\SolrSearch\Tasks</title>
<path fill="none" stroke="gray" d="M563.601,-1060C563.601,-1060 686.601,-1060 686.601,-1060 692.601,-1060 698.601,-1066 698.601,-1072 698.601,-1072 698.601,-1120 698.601,-1120 698.601,-1126 692.601,-1132 686.601,-1132 686.601,-1132 563.601,-1132 563.601,-1132 557.601,-1132 551.601,-1126 551.601,-1120 551.601,-1120 551.601,-1072 551.601,-1072 551.601,-1066 557.601,-1060 563.601,-1060"/>
<text text-anchor="middle" x="625.101" y="-1119.2" font-family="Times,serif" font-size="11.00" fill="gray">Tasks</text>
</g>
<g id="clust9" class="cluster"><title>cluster_\Firesphere\SolrSearch\Stores</title>
<path fill="none" stroke="gray" d="M570.101,-1140C570.101,-1140 680.101,-1140 680.101,-1140 686.101,-1140 692.101,-1146 692.101,-1152 692.101,-1152 692.101,-1254 692.101,-1254 692.101,-1260 686.101,-1266 680.101,-1266 680.101,-1266 570.101,-1266 570.101,-1266 564.101,-1266 558.101,-1260 558.101,-1254 558.101,-1254 558.101,-1152 558.101,-1152 558.101,-1146 564.101,-1140 570.101,-1140"/>
<text text-anchor="middle" x="625.101" y="-1253.2" font-family="Times,serif" font-size="11.00" fill="gray">Stores</text>
</g>
<g id="clust10" class="cluster"><title>cluster_\Firesphere\SolrSearch\Factories</title>
<path fill="none" stroke="gray" d="M570.101,-980C570.101,-980 680.101,-980 680.101,-980 686.101,-980 692.101,-986 692.101,-992 692.101,-992 692.101,-1040 692.101,-1040 692.101,-1046 686.101,-1052 680.101,-1052 680.101,-1052 570.101,-1052 570.101,-1052 564.101,-1052 558.101,-1046 558.101,-1040 558.101,-1040 558.101,-992 558.101,-992 558.101,-986 564.101,-980 570.101,-980"/>
<text text-anchor="middle" x="625.101" y="-1039.2" font-family="Times,serif" font-size="11.00" fill="gray">Factories</text>
</g>
<g id="clust11" class="cluster"><title>cluster_\Firesphere\SolrSearch\Extensions</title>
<path fill="none" stroke="gray" d="M560.101,-900C560.101,-900 690.101,-900 690.101,-900 696.101,-900 702.101,-906 702.101,-912 702.101,-912 702.101,-960 702.101,-960 702.101,-966 696.101,-972 690.101,-972 690.101,-972 560.101,-972 560.101,-972 554.101,-972 548.101,-966 548.101,-960 548.101,-960 548.101,-912 548.101,-912 548.101,-906 554.101,-900 560.101,-900"/>
<text text-anchor="middle" x="625.101" y="-959.2" font-family="Times,serif" font-size="11.00" fill="gray">Extensions</text>
</g>
<g id="clust12" class="cluster"><title>cluster_\Firesphere\SolrSearch\Admins</title>
<path fill="none" stroke="gray" d="M583.601,-820C583.601,-820 666.601,-820 666.601,-820 672.601,-820 678.601,-826 678.601,-832 678.601,-832 678.601,-880 678.601,-880 678.601,-886 672.601,-892 666.601,-892 666.601,-892 583.601,-892 583.601,-892 577.601,-892 571.601,-886 571.601,-880 571.601,-880 571.601,-832 571.601,-832 571.601,-826 577.601,-820 583.601,-820"/>
<text text-anchor="middle" x="625.101" y="-879.2" font-family="Times,serif" font-size="11.00" fill="gray">Admins</text>
</g>
<g id="clust13" class="cluster"><title>cluster_\Firesphere\SolrSearch\Services</title>
<path fill="none" stroke="gray" d="M577.101,-740C577.101,-740 673.101,-740 673.101,-740 679.101,-740 685.101,-746 685.101,-752 685.101,-752 685.101,-800 685.101,-800 685.101,-806 679.101,-812 673.101,-812 673.101,-812 577.101,-812 577.101,-812 571.101,-812 565.101,-806 565.101,-800 565.101,-800 565.101,-752 565.101,-752 565.101,-746 571.101,-740 577.101,-740"/>
<text text-anchor="middle" x="625.101" y="-799.2" font-family="Times,serif" font-size="11.00" fill="gray">Services</text>
</g>
<g id="clust14" class="cluster"><title>cluster_\Firesphere\SolrSearch\Forms</title>
<path fill="none" stroke="gray" d="M573.601,-660C573.601,-660 676.601,-660 676.601,-660 682.601,-660 688.601,-666 688.601,-672 688.601,-672 688.601,-720 688.601,-720 688.601,-726 682.601,-732 676.601,-732 676.601,-732 573.601,-732 573.601,-732 567.601,-732 561.601,-726 561.601,-720 561.601,-720 561.601,-672 561.601,-672 561.601,-666 567.601,-660 573.601,-660"/>
<text text-anchor="middle" x="625.101" y="-719.2" font-family="Times,serif" font-size="11.00" fill="gray">Forms</text>
</g>
<g id="clust15" class="cluster"><title>cluster_\Firesphere\SolrSearch\Interfaces</title>
<path fill="none" stroke="gray" d="M154.783,-1167C154.783,-1167 237.783,-1167 237.783,-1167 243.783,-1167 249.783,-1173 249.783,-1179 249.783,-1179 249.783,-1227 249.783,-1227 249.783,-1233 243.783,-1239 237.783,-1239 237.783,-1239 154.783,-1239 154.783,-1239 148.783,-1239 142.783,-1233 142.783,-1227 142.783,-1227 142.783,-1179 142.783,-1179 142.783,-1173 148.783,-1167 154.783,-1167"/>
<text text-anchor="middle" x="196.283" y="-1226.2" font-family="Times,serif" font-size="11.00" fill="gray">Interfaces</text>
</g>
<g id="clust16" class="cluster"><title>cluster_\Firesphere\SolrSearch\Jobs</title>
<path fill="none" stroke="gray" d="M566.601,-580C566.601,-580 683.601,-580 683.601,-580 689.601,-580 695.601,-586 695.601,-592 695.601,-592 695.601,-640 695.601,-640 695.601,-646 689.601,-652 683.601,-652 683.601,-652 566.601,-652 566.601,-652 560.601,-652 554.601,-646 554.601,-640 554.601,-640 554.601,-592 554.601,-592 554.601,-586 560.601,-580 566.601,-580"/>
<text text-anchor="middle" x="625.101" y="-639.2" font-family="Times,serif" font-size="11.00" fill="gray">Jobs</text>
</g>
<g id="clust17" class="cluster"><title>cluster_\Firesphere\SolrSearch\Queries</title>
<path fill="none" stroke="gray" d="M590.601,-500C590.601,-500 659.601,-500 659.601,-500 665.601,-500 671.601,-506 671.601,-512 671.601,-512 671.601,-560 671.601,-560 671.601,-566 665.601,-572 659.601,-572 659.601,-572 590.601,-572 590.601,-572 584.601,-572 578.601,-566 578.601,-560 578.601,-560 578.601,-512 578.601,-512 578.601,-506 584.601,-500 590.601,-500"/>
<text text-anchor="middle" x="625.101" y="-559.2" font-family="Times,serif" font-size="11.00" fill="gray">Queries</text>
</g>
<g id="clust18" class="cluster"><title>cluster_\SilverStripe</title>
<path fill="none" stroke="gray" d="M837.637,-484C837.637,-484 968.637,-484 968.637,-484 974.637,-484 980.637,-490 980.637,-496 980.637,-496 980.637,-786 980.637,-786 980.637,-792 974.637,-798 968.637,-798 968.637,-798 837.637,-798 837.637,-798 831.637,-798 825.637,-792 825.637,-786 825.637,-786 825.637,-496 825.637,-496 825.637,-490 831.637,-484 837.637,-484"/>
<text text-anchor="middle" x="903.137" y="-785.2" font-family="Times,serif" font-size="11.00" fill="gray">SilverStripe</text>
</g>
<g id="clust19" class="cluster"><title>cluster_\SilverStripe\FullTextSearch</title>
<path fill="none" stroke="gray" d="M845.637,-492C845.637,-492 960.637,-492 960.637,-492 966.637,-492 972.637,-498 972.637,-504 972.637,-504 972.637,-758 972.637,-758 972.637,-764 966.637,-770 960.637,-770 960.637,-770 845.637,-770 845.637,-770 839.637,-770 833.637,-764 833.637,-758 833.637,-758 833.637,-504 833.637,-504 833.637,-498 839.637,-492 845.637,-492"/>
<text text-anchor="middle" x="903.137" y="-757.2" font-family="Times,serif" font-size="11.00" fill="gray">FullTextSearch</text>
</g>
<g id="clust20" class="cluster"><title>cluster_\SilverStripe\FullTextSearch\Search</title>
<path fill="none" stroke="gray" d="M853.637,-634C853.637,-634 952.637,-634 952.637,-634 958.637,-634 964.637,-640 964.637,-646 964.637,-646 964.637,-730 964.637,-730 964.637,-736 958.637,-742 952.637,-742 952.637,-742 853.637,-742 853.637,-742 847.637,-742 841.637,-736 841.637,-730 841.637,-730 841.637,-646 841.637,-646 841.637,-640 847.637,-634 853.637,-634"/>
<text text-anchor="middle" x="903.137" y="-729.2" font-family="Times,serif" font-size="11.00" fill="gray">Search</text>
</g>
<g id="clust21" class="cluster"><title>cluster_\SilverStripe\FullTextSearch\Search\Queries</title>
<path fill="none" stroke="gray" d="M861.637,-642C861.637,-642 944.637,-642 944.637,-642 950.637,-642 956.637,-648 956.637,-654 956.637,-654 956.637,-702 956.637,-702 956.637,-708 950.637,-714 944.637,-714 944.637,-714 861.637,-714 861.637,-714 855.637,-714 849.637,-708 849.637,-702 849.637,-702 849.637,-654 849.637,-654 849.637,-648 855.637,-642 861.637,-642"/>
<text text-anchor="middle" x="903.137" y="-701.2" font-family="Times,serif" font-size="11.00" fill="gray">Queries</text>
</g>
<g id="clust22" class="cluster"><title>cluster_\SilverStripe\FullTextSearch\Solr</title>
<path fill="none" stroke="gray" d="M865.137,-500C865.137,-500 941.137,-500 941.137,-500 947.137,-500 953.137,-506 953.137,-512 953.137,-512 953.137,-614 953.137,-614 953.137,-620 947.137,-626 941.137,-626 941.137,-626 865.137,-626 865.137,-626 859.137,-626 853.137,-620 853.137,-614 853.137,-614 853.137,-512 853.137,-512 853.137,-506 859.137,-500 865.137,-500"/>
<text text-anchor="middle" x="903.137" y="-613.2" font-family="Times,serif" font-size="11.00" fill="gray">Solr</text>
</g>
<!-- \\Firesphere\\SolrSearch\\Compat\\FluentExtension -->
<g id="node1" class="node"><title>\\Firesphere\\SolrSearch\\Compat\\FluentExtension</title>
<polygon fill="none" stroke="black" points="684.101,-2530 566.101,-2530 566.101,-2494 684.101,-2494 684.101,-2530"/>
<text text-anchor="middle" x="625.101" y="-2509.2" font-family="Courier,monospace" font-size="11.00">FluentExtension</text>
</g>
<!-- \\SilverStripe\\Core\\Extension -->
<g id="node37" class="node"><title>\\SilverStripe\\Core\\Extension</title>
<ellipse fill="none" stroke="black" cx="196.283" cy="-450" rx="112.38" ry="18"/>
<text text-anchor="middle" x="196.283" y="-446.3" font-family="Times,serif" font-size="14.00" fill="gray">\SilverStripe\Core\Extension</text>
</g>
<!-- \\Firesphere\\SolrSearch\\Compat\\FluentExtension&#45;&gt;\\SilverStripe\\Core\\Extension -->
<g id="edge1" class="edge"><title>\\Firesphere\\SolrSearch\\Compat\\FluentExtension&#45;&gt;\\SilverStripe\\Core\\Extension</title>
<path fill="none" stroke="black" d="M565.844,-2518.6C531.219,-2519.02 489.353,-2512.77 464.565,-2485 366.598,-2375.26 416.128,-1308.21 392.565,-1163 348.328,-890.392 240.484,-572.307 207.219,-477.806"/>
<polygon fill="none" stroke="black" points="210.433,-476.396 203.799,-468.135 203.833,-478.73 210.433,-476.396"/>
</g>
<!-- \\Firesphere\\SolrSearch\\Compat\\FulltextSearchExtension -->
<g id="node2" class="node"><title>\\Firesphere\\SolrSearch\\Compat\\FulltextSearchExtension</title>
<polygon fill="none" stroke="black" points="711.101,-2476 539.101,-2476 539.101,-2440 711.101,-2440 711.101,-2476"/>
<text text-anchor="middle" x="625.101" y="-2455.2" font-family="Courier,monospace" font-size="11.00">FulltextSearchExtension</text>
</g>
<!-- \\Firesphere\\SolrSearch\\Compat\\FulltextSearchExtension&#45;&gt;\\SilverStripe\\Core\\Extension -->
<g id="edge7" class="edge"><title>\\Firesphere\\SolrSearch\\Compat\\FulltextSearchExtension&#45;&gt;\\SilverStripe\\Core\\Extension</title>
<path fill="none" stroke="black" d="M539.028,-2463.42C511.453,-2460.55 483.203,-2451.83 464.565,-2431 370.466,-2325.84 415.33,-1302.27 392.565,-1163 348.013,-890.443 240.383,-572.323 207.195,-477.81"/>
<polygon fill="none" stroke="black" points="210.41,-476.404 203.783,-468.138 203.809,-478.732 210.41,-476.404"/>
</g>
<!-- \\Firesphere\\SolrSearch\\Compat\\SubsitesExtension -->
<g id="node3" class="node"><title>\\Firesphere\\SolrSearch\\Compat\\SubsitesExtension</title>
<polygon fill="none" stroke="black" points="690.601,-2422 559.601,-2422 559.601,-2386 690.601,-2386 690.601,-2422"/>
<text text-anchor="middle" x="625.101" y="-2401.2" font-family="Courier,monospace" font-size="11.00">SubsitesExtension</text>
</g>
<!-- \\SilverStripe\\ORM\\DataExtension -->
<g id="node46" class="node"><title>\\SilverStripe\\ORM\\DataExtension</title>
<ellipse fill="none" stroke="black" cx="196.283" cy="-396" rx="131.877" ry="18"/>
<text text-anchor="middle" x="196.283" y="-392.3" font-family="Times,serif" font-size="14.00" fill="gray">\SilverStripe\ORM\DataExtension</text>
</g>
<!-- \\Firesphere\\SolrSearch\\Compat\\SubsitesExtension&#45;&gt;\\SilverStripe\\ORM\\DataExtension -->
<g id="edge16" class="edge"><title>\\Firesphere\\SolrSearch\\Compat\\SubsitesExtension&#45;&gt;\\SilverStripe\\ORM\\DataExtension</title>
<path fill="none" stroke="black" d="M559.587,-2409.44C526.127,-2408.47 487.552,-2400.7 464.565,-2374 323.017,-2209.62 538.056,-583.901 392.565,-423 373.058,-401.427 344.983,-391.201 316.177,-387.166"/>
<polygon fill="none" stroke="black" points="316.306,-383.658 305.971,-385.989 315.504,-390.612 316.306,-383.658"/>
</g>
<!-- \\Firesphere\\SolrSearch\\Traits\\BaseQueryTrait -->
<g id="node4" class="node"><title>\\Firesphere\\SolrSearch\\Traits\\BaseQueryTrait</title>
<polygon fill="none" stroke="black" points="680.601,-2342 569.601,-2342 569.601,-2306 680.601,-2306 680.601,-2342"/>
<text text-anchor="middle" x="625.101" y="-2321.2" font-family="Courier,monospace" font-size="11.00">BaseQueryTrait</text>
</g>
<!-- \\Firesphere\\SolrSearch\\Traits\\BaseIndexTrait -->
<g id="node5" class="node"><title>\\Firesphere\\SolrSearch\\Traits\\BaseIndexTrait</title>
<polygon fill="none" stroke="black" points="680.601,-2288 569.601,-2288 569.601,-2252 680.601,-2252 680.601,-2288"/>
<text text-anchor="middle" x="625.101" y="-2267.2" font-family="Courier,monospace" font-size="11.00">BaseIndexTrait</text>
</g>
<!-- \\Firesphere\\SolrSearch\\Traits\\DocumentFactoryTrait -->
<g id="node6" class="node"><title>\\Firesphere\\SolrSearch\\Traits\\DocumentFactoryTrait</title>
<polygon fill="none" stroke="black" points="701.101,-2234 549.101,-2234 549.101,-2198 701.101,-2198 701.101,-2234"/>
<text text-anchor="middle" x="625.101" y="-2213.2" font-family="Courier,monospace" font-size="11.00">DocumentFactoryTrait</text>
</g>
<!-- \\Firesphere\\SolrSearch\\Traits\\QueryComponentFacetTrait -->
<g id="node7" class="node"><title>\\Firesphere\\SolrSearch\\Traits\\QueryComponentFacetTrait</title>
<polygon fill="none" stroke="black" points="714.601,-2180 535.601,-2180 535.601,-2144 714.601,-2144 714.601,-2180"/>
<text text-anchor="middle" x="625.101" y="-2159.2" font-family="Courier,monospace" font-size="11.00">QueryComponentFacetTrait</text>
</g>
<!-- \\Firesphere\\SolrSearch\\Traits\\SearchResultSetTrait -->
<g id="node8" class="node"><title>\\Firesphere\\SolrSearch\\Traits\\SearchResultSetTrait</title>
<polygon fill="none" stroke="black" points="701.101,-2126 549.101,-2126 549.101,-2090 701.101,-2090 701.101,-2126"/>
<text text-anchor="middle" x="625.101" y="-2105.2" font-family="Courier,monospace" font-size="11.00">SearchResultSetTrait</text>
</g>
<!-- \\Firesphere\\SolrSearch\\Traits\\QueryComponentFilterTrait -->
<g id="node9" class="node"><title>\\Firesphere\\SolrSearch\\Traits\\QueryComponentFilterTrait</title>
<polygon fill="none" stroke="black" points="717.601,-2072 532.601,-2072 532.601,-2036 717.601,-2036 717.601,-2072"/>
<text text-anchor="middle" x="625.101" y="-2051.2" font-family="Courier,monospace" font-size="11.00">QueryComponentFilterTrait</text>
</g>
<!-- \\Firesphere\\SolrSearch\\Traits\\GetterSetterTrait -->
<g id="node10" class="node"><title>\\Firesphere\\SolrSearch\\Traits\\GetterSetterTrait</title>
<polygon fill="none" stroke="black" points="690.601,-2018 559.601,-2018 559.601,-1982 690.601,-1982 690.601,-2018"/>
<text text-anchor="middle" x="625.101" y="-1997.2" font-family="Courier,monospace" font-size="11.00">GetterSetterTrait</text>
</g>
<!-- \\Firesphere\\SolrSearch\\Traits\\QueryComponentBoostTrait -->
<g id="node11" class="node"><title>\\Firesphere\\SolrSearch\\Traits\\QueryComponentBoostTrait</title>
<polygon fill="none" stroke="black" points="714.601,-1964 535.601,-1964 535.601,-1928 714.601,-1928 714.601,-1964"/>
<text text-anchor="middle" x="625.101" y="-1943.2" font-family="Courier,monospace" font-size="11.00">QueryComponentBoostTrait</text>
</g>
<!-- \\Firesphere\\SolrSearch\\Traits\\GetSetSchemaServiceTrait -->
<g id="node12" class="node"><title>\\Firesphere\\SolrSearch\\Traits\\GetSetSchemaServiceTrait</title>
<polygon fill="none" stroke="black" points="714.601,-1910 535.601,-1910 535.601,-1874 714.601,-1874 714.601,-1910"/>
<text text-anchor="middle" x="625.101" y="-1889.2" font-family="Courier,monospace" font-size="11.00">GetSetSchemaServiceTrait</text>
</g>
<!-- \\Firesphere\\SolrSearch\\Traits\\LoggerTrait -->
<g id="node13" class="node"><title>\\Firesphere\\SolrSearch\\Traits\\LoggerTrait</title>
<polygon fill="none" stroke="black" points="670.601,-1856 579.601,-1856 579.601,-1820 670.601,-1820 670.601,-1856"/>
<text text-anchor="middle" x="625.101" y="-1835.2" font-family="Courier,monospace" font-size="11.00">LoggerTrait</text>
</g>
<!-- \\Firesphere\\SolrSearch\\Traits\\DataResolveTrait -->
<g id="node14" class="node"><title>\\Firesphere\\SolrSearch\\Traits\\DataResolveTrait</title>
<polygon fill="none" stroke="black" points="687.601,-1802 562.601,-1802 562.601,-1766 687.601,-1766 687.601,-1802"/>
<text text-anchor="middle" x="625.101" y="-1781.2" font-family="Courier,monospace" font-size="11.00">DataResolveTrait</text>
</g>
<!-- \\Firesphere\\SolrSearch\\Traits\\GetSetSearchResolverTrait -->
<g id="node15" class="node"><title>\\Firesphere\\SolrSearch\\Traits\\GetSetSearchResolverTrait</title>
<polygon fill="none" stroke="black" points="717.601,-1748 532.601,-1748 532.601,-1712 717.601,-1712 717.601,-1748"/>
<text text-anchor="middle" x="625.101" y="-1727.2" font-family="Courier,monospace" font-size="11.00">GetSetSearchResolverTrait</text>
</g>
<!-- \\Firesphere\\SolrSearch\\Models\\DirtyClass -->
<g id="node16" class="node"><title>\\Firesphere\\SolrSearch\\Models\\DirtyClass</title>
<polygon fill="none" stroke="black" points="667.101,-1668 583.101,-1668 583.101,-1632 667.101,-1632 667.101,-1668"/>
<text text-anchor="middle" x="625.101" y="-1647.2" font-family="Courier,monospace" font-size="11.00">DirtyClass</text>
</g>
<!-- \\SilverStripe\\ORM\\DataObject -->
<g id="node38" class="node"><title>\\SilverStripe\\ORM\\DataObject</title>
<ellipse fill="none" stroke="black" cx="196.283" cy="-342" rx="120.479" ry="18"/>
<text text-anchor="middle" x="196.283" y="-338.3" font-family="Times,serif" font-size="14.00" fill="gray">\SilverStripe\ORM\DataObject</text>
</g>
<!-- \\Firesphere\\SolrSearch\\Models\\DirtyClass&#45;&gt;\\SilverStripe\\ORM\\DataObject -->
<g id="edge3" class="edge"><title>\\Firesphere\\SolrSearch\\Models\\DirtyClass&#45;&gt;\\SilverStripe\\ORM\\DataObject</title>
<path fill="none" stroke="black" d="M582.76,-1655.86C545.968,-1658.49 493.609,-1655.44 464.565,-1623 278.373,-1415.05 581.882,-574.11 392.565,-369 370.108,-344.669 336.736,-334.872 303.905,-332.098"/>
<polygon fill="none" stroke="black" points="303.948,-328.594 293.747,-331.454 303.506,-335.58 303.948,-328.594"/>
</g>
<!-- \\Firesphere\\SolrSearch\\Models\\SolrLog -->
<g id="node17" class="node"><title>\\Firesphere\\SolrSearch\\Models\\SolrLog</title>
<polygon fill="none" stroke="black" points="657.101,-1614 593.101,-1614 593.101,-1578 657.101,-1578 657.101,-1614"/>
<text text-anchor="middle" x="625.101" y="-1593.2" font-family="Courier,monospace" font-size="11.00">SolrLog</text>
</g>
<!-- \\Firesphere\\SolrSearch\\Models\\SolrLog&#45;&gt;\\SilverStripe\\ORM\\DataObject -->
<g id="edge11" class="edge"><title>\\Firesphere\\SolrSearch\\Models\\SolrLog&#45;&gt;\\SilverStripe\\ORM\\DataObject</title>
<path fill="none" stroke="black" d="M592.911,-1600.29C556.203,-1603.38 496.247,-1601.94 464.565,-1566 288.352,-1366.1 573.573,-564.572 392.565,-369 370.127,-344.757 336.851,-334.956 304.098,-332.153"/>
<polygon fill="none" stroke="black" points="304.167,-328.651 293.962,-331.5 303.716,-335.636 304.167,-328.651"/>
</g>
<!-- \\SilverStripe\\Security\\PermissionProvider -->
<g id="node42" class="node"><title>\\SilverStripe\\Security\\PermissionProvider</title>
<ellipse fill="none" stroke="black" cx="196.283" cy="-288" rx="159.472" ry="18"/>
<text text-anchor="middle" x="196.283" y="-284.3" font-family="Times,serif" font-size="14.00" fill="gray">\SilverStripe\Security\PermissionProvider</text>
</g>
<!-- \\Firesphere\\SolrSearch\\Models\\SolrLog&#45;&gt;\\SilverStripe\\Security\\PermissionProvider -->
<g id="edge12" class="edge"><title>\\Firesphere\\SolrSearch\\Models\\SolrLog&#45;&gt;\\SilverStripe\\Security\\PermissionProvider</title>
<path fill="none" stroke="black" stroke-dasharray="1,5" d="M592.895,-1600.3C556.172,-1603.4 496.2,-1601.98 464.565,-1566 280.701,-1356.87 581.445,-519.608 392.565,-315 384.485,-306.247 374.993,-299.375 364.621,-294.035"/>
<polygon fill="none" stroke="black" points="365.84,-290.742 355.293,-289.727 362.904,-297.097 365.84,-290.742"/>
</g>
<!-- \\Firesphere\\SolrSearch\\Helpers\\Synonyms -->
<g id="node18" class="node"><title>\\Firesphere\\SolrSearch\\Helpers\\Synonyms</title>
<polygon fill="none" stroke="black" points="660.601,-1534 589.601,-1534 589.601,-1498 660.601,-1498 660.601,-1534"/>
<text text-anchor="middle" x="625.101" y="-1513.2" font-family="Courier,monospace" font-size="11.00">Synonyms</text>
</g>
<!-- \\Firesphere\\SolrSearch\\Helpers\\Statics -->
<g id="node19" class="node"><title>\\Firesphere\\SolrSearch\\Helpers\\Statics</title>
<polygon fill="none" stroke="black" points="657.101,-1480 593.101,-1480 593.101,-1444 657.101,-1444 657.101,-1480"/>
<text text-anchor="middle" x="625.101" y="-1459.2" font-family="Courier,monospace" font-size="11.00">Statics</text>
</g>
<!-- \\Firesphere\\SolrSearch\\Helpers\\FieldResolver -->
<g id="node20" class="node"><title>\\Firesphere\\SolrSearch\\Helpers\\FieldResolver</title>
<polygon fill="none" stroke="black" points="677.101,-1426 573.101,-1426 573.101,-1390 677.101,-1390 677.101,-1426"/>
<text text-anchor="middle" x="625.101" y="-1405.2" font-family="Courier,monospace" font-size="11.00">FieldResolver</text>
</g>
<!-- \\Firesphere\\SolrSearch\\Helpers\\DataResolver -->
<g id="node21" class="node"><title>\\Firesphere\\SolrSearch\\Helpers\\DataResolver</title>
<polygon fill="none" stroke="black" points="674.101,-1372 576.101,-1372 576.101,-1336 674.101,-1336 674.101,-1372"/>
<text text-anchor="middle" x="625.101" y="-1351.2" font-family="Courier,monospace" font-size="11.00">DataResolver</text>
</g>
<!-- \\Firesphere\\SolrSearch\\Helpers\\SolrLogger -->
<g id="node22" class="node"><title>\\Firesphere\\SolrSearch\\Helpers\\SolrLogger</title>
<polygon fill="none" stroke="black" points="667.101,-1318 583.101,-1318 583.101,-1282 667.101,-1282 667.101,-1318"/>
<text text-anchor="middle" x="625.101" y="-1297.2" font-family="Courier,monospace" font-size="11.00">SolrLogger</text>
</g>
<!-- \\Firesphere\\SolrSearch\\Tasks\\SolrConfigureTask -->
<g id="node23" class="node"><title>\\Firesphere\\SolrSearch\\Tasks\\SolrConfigureTask</title>
<polygon fill="none" stroke="black" points="690.601,-1104 559.601,-1104 559.601,-1068 690.601,-1068 690.601,-1104"/>
<text text-anchor="middle" x="625.101" y="-1083.2" font-family="Courier,monospace" font-size="11.00">SolrConfigureTask</text>
</g>
<!-- \\SilverStripe\\Dev\\BuildTask -->
<g id="node39" class="node"><title>\\SilverStripe\\Dev\\BuildTask</title>
<ellipse fill="none" stroke="black" cx="196.283" cy="-234" rx="111.28" ry="18"/>
<text text-anchor="middle" x="196.283" y="-230.3" font-family="Times,serif" font-size="14.00" fill="gray">\SilverStripe\Dev\BuildTask</text>
</g>
<!-- \\Firesphere\\SolrSearch\\Tasks\\SolrConfigureTask&#45;&gt;\\SilverStripe\\Dev\\BuildTask -->
<g id="edge4" class="edge"><title>\\Firesphere\\SolrSearch\\Tasks\\SolrConfigureTask&#45;&gt;\\SilverStripe\\Dev\\BuildTask</title>
<path fill="none" stroke="black" d="M559.341,-1090.93C526.232,-1089.71 488.068,-1081.86 464.565,-1056 345.265,-924.719 515.012,-389.351 392.565,-261 368.375,-235.643 332.295,-226.251 297.706,-224.109"/>
<polygon fill="none" stroke="black" points="297.658,-220.604 287.519,-223.679 297.362,-227.598 297.658,-220.604"/>
</g>
<!-- \\Firesphere\\SolrSearch\\Stores\\PostConfigStore -->
<g id="node24" class="node"><title>\\Firesphere\\SolrSearch\\Stores\\PostConfigStore</title>
<polygon fill="none" stroke="black" points="684.101,-1238 566.101,-1238 566.101,-1202 684.101,-1202 684.101,-1238"/>
<text text-anchor="middle" x="625.101" y="-1217.2" font-family="Courier,monospace" font-size="11.00">PostConfigStore</text>
</g>
<!-- \\Firesphere\\SolrSearch\\Interfaces\\ConfigStore -->
<g id="node31" class="node"><title>\\Firesphere\\SolrSearch\\Interfaces\\ConfigStore</title>
<polygon fill="none" stroke="black" points="241.783,-1211 150.783,-1211 150.783,-1175 241.783,-1175 241.783,-1211"/>
<text text-anchor="middle" x="196.283" y="-1190.2" font-family="Courier,monospace" font-size="11.00">ConfigStore</text>
</g>
<!-- \\Firesphere\\SolrSearch\\Stores\\PostConfigStore&#45;&gt;\\Firesphere\\SolrSearch\\Interfaces\\ConfigStore -->
<g id="edge5" class="edge"><title>\\Firesphere\\SolrSearch\\Stores\\PostConfigStore&#45;&gt;\\Firesphere\\SolrSearch\\Interfaces\\ConfigStore</title>
<path fill="none" stroke="black" stroke-dasharray="1,5" d="M566.094,-1216.33C483.53,-1211.11 333.186,-1201.6 252.296,-1196.48"/>
<polygon fill="none" stroke="black" points="252.035,-1192.96 241.834,-1195.82 251.593,-1199.94 252.035,-1192.96"/>
</g>
<!-- \\Firesphere\\SolrSearch\\Stores\\FileConfigStore -->
<g id="node25" class="node"><title>\\Firesphere\\SolrSearch\\Stores\\FileConfigStore</title>
<polygon fill="none" stroke="black" points="684.101,-1184 566.101,-1184 566.101,-1148 684.101,-1148 684.101,-1184"/>
<text text-anchor="middle" x="625.101" y="-1163.2" font-family="Courier,monospace" font-size="11.00">FileConfigStore</text>
</g>
<!-- \\Firesphere\\SolrSearch\\Stores\\FileConfigStore&#45;&gt;\\Firesphere\\SolrSearch\\Interfaces\\ConfigStore -->
<g id="edge10" class="edge"><title>\\Firesphere\\SolrSearch\\Stores\\FileConfigStore&#45;&gt;\\Firesphere\\SolrSearch\\Interfaces\\ConfigStore</title>
<path fill="none" stroke="black" stroke-dasharray="1,5" d="M566.094,-1169.67C483.53,-1174.89 333.186,-1184.4 252.296,-1189.52"/>
<polygon fill="none" stroke="black" points="251.593,-1186.06 241.834,-1190.18 252.035,-1193.04 251.593,-1186.06"/>
</g>
<!-- \\Firesphere\\SolrSearch\\Factories\\DocumentFactory -->
<g id="node26" class="node"><title>\\Firesphere\\SolrSearch\\Factories\\DocumentFactory</title>
<polygon fill="none" stroke="black" points="684.101,-1024 566.101,-1024 566.101,-988 684.101,-988 684.101,-1024"/>
<text text-anchor="middle" x="625.101" y="-1003.2" font-family="Courier,monospace" font-size="11.00">DocumentFactory</text>
</g>
<!-- \\Firesphere\\SolrSearch\\Extensions\\GridFieldExtension -->
<g id="node27" class="node"><title>\\Firesphere\\SolrSearch\\Extensions\\GridFieldExtension</title>
<polygon fill="none" stroke="black" points="694.101,-944 556.101,-944 556.101,-908 694.101,-908 694.101,-944"/>
<text text-anchor="middle" x="625.101" y="-923.2" font-family="Courier,monospace" font-size="11.00">GridFieldExtension</text>
</g>
<!-- \\Firesphere\\SolrSearch\\Extensions\\GridFieldExtension&#45;&gt;\\SilverStripe\\Core\\Extension -->
<g id="edge8" class="edge"><title>\\Firesphere\\SolrSearch\\Extensions\\GridFieldExtension&#45;&gt;\\SilverStripe\\Core\\Extension</title>
<path fill="none" stroke="black" d="M556.03,-925.54C525.752,-922.39 491.044,-914.443 464.565,-896 309.315,-787.865 229.119,-557.845 205.144,-477.998"/>
<polygon fill="none" stroke="black" points="208.434,-476.781 202.253,-468.176 201.719,-478.757 208.434,-476.781"/>
</g>
<!-- \\Firesphere\\SolrSearch\\Admins\\SearchAdmin -->
<g id="node28" class="node"><title>\\Firesphere\\SolrSearch\\Admins\\SearchAdmin</title>
<polygon fill="none" stroke="black" points="670.601,-864 579.601,-864 579.601,-828 670.601,-828 670.601,-864"/>
<text text-anchor="middle" x="625.101" y="-843.2" font-family="Courier,monospace" font-size="11.00">SearchAdmin</text>
</g>
<!-- \\SilverStripe\\Admin\\ModelAdmin -->
<g id="node41" class="node"><title>\\SilverStripe\\Admin\\ModelAdmin</title>
<ellipse fill="none" stroke="black" cx="196.283" cy="-180" rx="133.477" ry="18"/>
<text text-anchor="middle" x="196.283" y="-176.3" font-family="Times,serif" font-size="14.00" fill="gray">\SilverStripe\Admin\ModelAdmin</text>
</g>
<!-- \\Firesphere\\SolrSearch\\Admins\\SearchAdmin&#45;&gt;\\SilverStripe\\Admin\\ModelAdmin -->
<g id="edge9" class="edge"><title>\\Firesphere\\SolrSearch\\Admins\\SearchAdmin&#45;&gt;\\SilverStripe\\Admin\\ModelAdmin</title>
<path fill="none" stroke="black" d="M579.537,-850.719C543.234,-851.884 493.421,-846.894 464.565,-816 278.524,-616.819 583.38,-401.613 392.565,-207 375.296,-189.387 352.273,-179.551 328.104,-174.509"/>
<polygon fill="none" stroke="black" points="328.525,-171.029 318.061,-172.691 327.278,-177.917 328.525,-171.029"/>
</g>
<!-- \\Firesphere\\SolrSearch\\Services\\SchemaService -->
<g id="node29" class="node"><title>\\Firesphere\\SolrSearch\\Services\\SchemaService</title>
<polygon fill="none" stroke="black" points="677.101,-784 573.101,-784 573.101,-748 677.101,-748 677.101,-784"/>
<text text-anchor="middle" x="625.101" y="-763.2" font-family="Courier,monospace" font-size="11.00">SchemaService</text>
</g>
<!-- \\SilverStripe\\View\\ViewableData -->
<g id="node43" class="node"><title>\\SilverStripe\\View\\ViewableData</title>
<ellipse fill="none" stroke="black" cx="196.283" cy="-126" rx="129.177" ry="18"/>
<text text-anchor="middle" x="196.283" y="-122.3" font-family="Times,serif" font-size="14.00" fill="gray">\SilverStripe\View\ViewableData</text>
</g>
<!-- \\Firesphere\\SolrSearch\\Services\\SchemaService&#45;&gt;\\SilverStripe\\View\\ViewableData -->
<g id="edge13" class="edge"><title>\\Firesphere\\SolrSearch\\Services\\SchemaService&#45;&gt;\\SilverStripe\\View\\ViewableData</title>
<path fill="none" stroke="black" d="M572.91,-770.815C537.399,-771.128 491.765,-764.97 464.565,-736 285.86,-545.666 575.832,-338.946 392.565,-153 373.818,-133.979 348.356,-124.045 322.015,-119.426"/>
<polygon fill="none" stroke="black" points="322.296,-115.929 311.888,-117.907 321.259,-122.851 322.296,-115.929"/>
</g>
<!-- \\Firesphere\\SolrSearch\\Forms\\SolrSearchForm -->
<g id="node30" class="node"><title>\\Firesphere\\SolrSearch\\Forms\\SolrSearchForm</title>
<polygon fill="none" stroke="black" points="680.601,-704 569.601,-704 569.601,-668 680.601,-668 680.601,-704"/>
<text text-anchor="middle" x="625.101" y="-683.2" font-family="Courier,monospace" font-size="11.00">SolrSearchForm</text>
</g>
<!-- \\SilverStripe\\Forms\\Form -->
<g id="node44" class="node"><title>\\SilverStripe\\Forms\\Form</title>
<ellipse fill="none" stroke="black" cx="196.283" cy="-72" rx="102.882" ry="18"/>
<text text-anchor="middle" x="196.283" y="-68.3" font-family="Times,serif" font-size="14.00" fill="gray">\SilverStripe\Forms\Form</text>
</g>
<!-- \\Firesphere\\SolrSearch\\Forms\\SolrSearchForm&#45;&gt;\\SilverStripe\\Forms\\Form -->
<g id="edge14" class="edge"><title>\\Firesphere\\SolrSearch\\Forms\\SolrSearchForm&#45;&gt;\\SilverStripe\\Forms\\Form</title>
<path fill="none" stroke="black" d="M569.532,-690.776C534.579,-690.642 490.976,-683.97 464.565,-656 293.191,-474.51 568.288,-276.283 392.565,-99 366.688,-72.8927 328.151,-63.9391 292.132,-62.3412"/>
<polygon fill="none" stroke="black" points="292.14,-58.8403 282.052,-62.0774 291.957,-65.8379 292.14,-58.8403"/>
</g>
<!-- \\Firesphere\\SolrSearch\\Jobs\\SolrConfigureJob -->
<g id="node32" class="node"><title>\\Firesphere\\SolrSearch\\Jobs\\SolrConfigureJob</title>
<polygon fill="none" stroke="black" points="687.601,-624 562.601,-624 562.601,-588 687.601,-588 687.601,-624"/>
<text text-anchor="middle" x="625.101" y="-603.2" font-family="Courier,monospace" font-size="11.00">SolrConfigureJob</text>
</g>
<!-- \\Symbiote\\QueuedJobs\\Services\\AbstractQueuedJob -->
<g id="node45" class="node"><title>\\Symbiote\\QueuedJobs\\Services\\AbstractQueuedJob</title>
<ellipse fill="none" stroke="black" cx="196.283" cy="-18" rx="196.065" ry="18"/>
<text text-anchor="middle" x="196.283" y="-14.3" font-family="Times,serif" font-size="14.00" fill="gray">\Symbiote\QueuedJobs\Services\AbstractQueuedJob</text>
</g>
<!-- \\Firesphere\\SolrSearch\\Jobs\\SolrConfigureJob&#45;&gt;\\Symbiote\\QueuedJobs\\Services\\AbstractQueuedJob -->
<g id="edge15" class="edge"><title>\\Firesphere\\SolrSearch\\Jobs\\SolrConfigureJob&#45;&gt;\\Symbiote\\QueuedJobs\\Services\\AbstractQueuedJob</title>
<path fill="none" stroke="black" d="M562.574,-610.602C528.986,-609.593 489.316,-602.049 464.565,-576 300.518,-403.348 560.749,-213.625 392.565,-45 387.807,-40.2291 382.625,-36.0324 377.114,-32.3497"/>
<polygon fill="none" stroke="black" points="378.567,-29.1391 368.195,-26.977 374.955,-35.1352 378.567,-29.1391"/>
</g>
<!-- \\Firesphere\\SolrSearch\\Queries\\BaseQuery -->
<g id="node33" class="node"><title>\\Firesphere\\SolrSearch\\Queries\\BaseQuery</title>
<polygon fill="none" stroke="black" points="663.601,-544 586.601,-544 586.601,-508 663.601,-508 663.601,-544"/>
<text text-anchor="middle" x="625.101" y="-523.2" font-family="Courier,monospace" font-size="11.00">BaseQuery</text>
</g>
<!-- \\SilverStripe\\FullTextSearch\\Search\\Queries\\SearchQuery -->
<g id="node34" class="node"><title>\\SilverStripe\\FullTextSearch\\Search\\Queries\\SearchQuery</title>
<polygon fill="none" stroke="black" points="948.637,-686 857.637,-686 857.637,-650 948.637,-650 948.637,-686"/>
<text text-anchor="middle" x="903.137" y="-665.2" font-family="Courier,monospace" font-size="11.00">SearchQuery</text>
</g>
<!-- \\SilverStripe\\FullTextSearch\\Search\\Queries\\SearchQuery&#45;&gt;\\Firesphere\\SolrSearch\\Queries\\BaseQuery -->
<g id="edge2" class="edge"><title>\\SilverStripe\\FullTextSearch\\Search\\Queries\\SearchQuery&#45;&gt;\\Firesphere\\SolrSearch\\Queries\\BaseQuery</title>
<path fill="none" stroke="black" d="M857.475,-650.22C846.433,-644.675 835.073,-637.902 825.637,-630 802.738,-610.824 809.971,-593.317 785.637,-576 752.417,-552.361 707.621,-539.609 673.953,-532.915"/>
<polygon fill="none" stroke="black" points="674.361,-529.43 663.887,-531.026 673.07,-536.31 674.361,-529.43"/>
</g>
<!-- \\SilverStripe\\FullTextSearch\\Solr\\SolrIndex -->
<g id="node35" class="node"><title>\\SilverStripe\\FullTextSearch\\Solr\\SolrIndex</title>
<polygon fill="none" stroke="black" points="945.137,-598 861.137,-598 861.137,-562 945.137,-562 945.137,-598"/>
<text text-anchor="start" x="869.137" y="-583.2" font-family="Courier,monospace" font-size="11.00">«abstract»</text>
<text text-anchor="start" x="872.637" y="-571.2" font-family="Courier,monospace" font-size="11.00">SolrIndex</text>
</g>
<!-- \\Firesphere\\SolrSearch\\Indexes\\BaseIndex -->
<g id="node40" class="node"><title>\\Firesphere\\SolrSearch\\Indexes\\BaseIndex</title>
<ellipse fill="none" stroke="black" cx="625.101" cy="-450" rx="160.572" ry="18"/>
<text text-anchor="middle" x="625.101" y="-446.3" font-family="Times,serif" font-size="14.00" fill="gray">\Firesphere\SolrSearch\Indexes\BaseIndex</text>
</g>
<!-- \\SilverStripe\\FullTextSearch\\Solr\\SolrIndex&#45;&gt;\\Firesphere\\SolrSearch\\Indexes\\BaseIndex -->
<g id="edge6" class="edge"><title>\\SilverStripe\\FullTextSearch\\Solr\\SolrIndex&#45;&gt;\\Firesphere\\SolrSearch\\Indexes\\BaseIndex</title>
<path fill="none" stroke="black" d="M860.884,-570.598C848.742,-566.522 835.959,-560.832 825.637,-553 800.982,-534.293 810.829,-513.977 785.637,-496 768.217,-483.569 747.483,-474.479 726.822,-467.838"/>
<polygon fill="none" stroke="black" points="727.611,-464.42 717.025,-464.864 725.577,-471.118 727.611,-464.42"/>
</g>
<!-- \\SilverStripe\\FullTextSearch\\Solr\\Solr -->
<g id="node36" class="node"><title>\\SilverStripe\\FullTextSearch\\Solr\\Solr</title>
<polygon fill="none" stroke="black" points="930.137,-544 876.137,-544 876.137,-508 930.137,-508 930.137,-544"/>
<text text-anchor="middle" x="903.137" y="-523.2" font-family="Courier,monospace" font-size="11.00">Solr</text>
</g>
</g>
</svg>
